3
6
0.22264152646727897 -0.09970260436531371 0.96978870965540409
-0.046594460655508485 -1.2513001713550358 1.5595117304474115
-0.16533843996794717 0.85558035004408961 -0.49055628105998039
-0.38023736965271121 1.3469886504577884 -1.4286501035094261
1.8973363903704143 0.61842201206847314 0.13292417675256729
-0.41556090947014745 1.7425182318617307 0.88934770599007607
11
2 3 4 6
3 2 1 6
5 3 1 6
4 2 0 5
3 2 4 5
2 3 1 5
2 4 0 6
1 2 5 6
5 2 0 6
4 3 5 6
0 4 5 6
9 6 1 4
7 2 0 5
1 7 9 5
8 10 4 6
3 9 5 0
2 7 4 1
10 8 0 3
8 2 1 5
6 10 7 3
2 10 0 4
9 8 6 3












cdt-plusplus-causal-info-v2
vertices=6
v=0|1
v=1|2
v=2|1
v=3|2
v=4|2
v=5|2
cells=7
c=0|13
c=1|22
c=2|22
c=3|13
c=4|22
c=5|13
c=6|13
