<?xml version="1.0" encoding="UTF-8" standalone="no"?>
<!DOCTYPE svg PUBLIC "-//W3C//DTD SVG 1.1//EN"
 "http://www.w3.org/Graphics/SVG/1.1/DTD/svg11.dtd">
<!-- Generated by graphviz version 2.40.1 (20161225.0304)
 -->
<!-- Title: include/Apply_move.hpp Pages: 1 -->
<svg width="537pt" height="274pt"
 viewBox="0.00 0.00 537.00 274.00" xmlns="http://www.w3.org/2000/svg" xmlns:xlink="http://www.w3.org/1999/xlink">
<g id="graph0" class="graph" transform="scale(1 1) rotate(0) translate(4 270)">
<title>include/Apply_move.hpp</title>
<polygon fill="#ffffff" stroke="transparent" points="-4,4 -4,-270 533,-270 533,4 -4,4"/>
<!-- Node6 -->
<g id="node1" class="node">
<title>Node6</title>
<polygon fill="#bfbfbf" stroke="#000000" points="300,-246.5 300,-265.5 437,-265.5 437,-246.5 300,-246.5"/>
<text text-anchor="middle" x="368.5" y="-253.5" font-family="Helvetica,sans-Serif" font-size="10.00" fill="#000000">include/Apply_move.hpp</text>
</g>
<!-- Node7 -->
<g id="node2" class="node">
<title>Node7</title>
<g id="a_node2"><a xlink:href="_move__command_8hpp.html" target="_top" xlink:title="Do ergodic moves using the Command pattern. ">
<polygon fill="#ffffff" stroke="#000000" points="205.5,-190.5 205.5,-209.5 361.5,-209.5 361.5,-190.5 205.5,-190.5"/>
<text text-anchor="middle" x="283.5" y="-197.5" font-family="Helvetica,sans-Serif" font-size="10.00" fill="#000000">include/Move_command.hpp</text>
</a>
</g>
</g>
<!-- Node6&#45;&gt;Node7 -->
<g id="edge1" class="edge">
<title>Node6&#45;&gt;Node7</title>
<path fill="none" stroke="#191970" d="M344.9581,-240.49C329.961,-230.6096 311.0027,-218.1194 298.1362,-209.6427"/>
<polygon fill="#191970" stroke="#191970" points="343.4179,-243.6666 353.6941,-246.2455 347.2691,-237.8212 343.4179,-243.6666"/>
</g>
<!-- Node16 -->
<g id="node11" class="node">
<title>Node16</title>
<g id="a_node11"><a xlink:href="_apply__move__test_8cpp.html" target="_top" xlink:title="Apply ergodic moves to manifolds. ">
<polygon fill="#ffffff" stroke="#000000" points="380,-190.5 380,-209.5 529,-209.5 529,-190.5 380,-190.5"/>
<text text-anchor="middle" x="454.5" y="-197.5" font-family="Helvetica,sans-Serif" font-size="10.00" fill="#000000">tests/Apply_move_test.cpp</text>
</a>
</g>
</g>
<!-- Node6&#45;&gt;Node16 -->
<g id="edge10" class="edge">
<title>Node6&#45;&gt;Node16</title>
<path fill="none" stroke="#191970" d="M391.8905,-240.769C407.1299,-230.8456 426.5509,-218.1994 439.6916,-209.6427"/>
<polygon fill="#191970" stroke="#191970" points="389.9502,-237.8558 383.4801,-246.2455 393.7699,-243.7218 389.9502,-237.8558"/>
</g>
<!-- Node8 -->
<g id="node3" class="node">
<title>Node8</title>
<g id="a_node3"><a xlink:href="_move__strategy_8hpp.html" target="_top" xlink:title="Base class for move algorithms on Delaunay Triangulations. ">
<polygon fill="#ffffff" stroke="#000000" points="134.5,-129 134.5,-148 280.5,-148 280.5,-129 134.5,-129"/>
<text text-anchor="middle" x="207.5" y="-136" font-family="Helvetica,sans-Serif" font-size="10.00" fill="#000000">include/Move_strategy.hpp</text>
</a>
</g>
</g>
<!-- Node7&#45;&gt;Node8 -->
<g id="edge2" class="edge">
<title>Node7&#45;&gt;Node8</title>
<path fill="none" stroke="#191970" d="M263.566,-183.8692C249.5875,-172.5576 231.3581,-157.8062 219.5424,-148.2449"/>
<polygon fill="#191970" stroke="#191970" points="261.6496,-186.8209 271.625,-190.3906 266.053,-181.3793 261.6496,-186.8209"/>
</g>
<!-- Node15 -->
<g id="node10" class="node">
<title>Node15</title>
<g id="a_node10"><a xlink:href="_move__command__test_8cpp.html" target="_top" xlink:title="Tests for moves. ">
<polygon fill="#ffffff" stroke="#000000" points="298.5,-123.5 298.5,-153.5 422.5,-153.5 422.5,-123.5 298.5,-123.5"/>
<text text-anchor="start" x="306.5" y="-141.5" font-family="Helvetica,sans-Serif" font-size="10.00" fill="#000000">tests/Move_command</text>
<text text-anchor="middle" x="360.5" y="-130.5" font-family="Helvetica,sans-Serif" font-size="10.00" fill="#000000">_test.cpp</text>
</a>
</g>
</g>
<!-- Node7&#45;&gt;Node15 -->
<g id="edge9" class="edge">
<title>Node7&#45;&gt;Node15</title>
<path fill="none" stroke="#191970" d="M303.4844,-184.0385C315.2671,-174.6276 330.0867,-162.7911 341.6637,-153.5446"/>
<polygon fill="#191970" stroke="#191970" points="301.1606,-181.415 295.5313,-190.3906 305.5292,-186.8846 301.1606,-181.415"/>
</g>
<!-- Node9 -->
<g id="node4" class="node">
<title>Node9</title>
<g id="a_node4"><a xlink:href="_metropolis_8hpp.html" target="_top" xlink:title="Perform Metropolis&#45;Hastings algorithm on Delaunay Triangulations. ">
<polygon fill="#ffffff" stroke="#000000" points="68,-67.5 68,-86.5 195,-86.5 195,-67.5 68,-67.5"/>
<text text-anchor="middle" x="131.5" y="-74.5" font-family="Helvetica,sans-Serif" font-size="10.00" fill="#000000">include/Metropolis.hpp</text>
</a>
</g>
</g>
<!-- Node8&#45;&gt;Node9 -->
<g id="edge3" class="edge">
<title>Node8&#45;&gt;Node9</title>
<path fill="none" stroke="#191970" d="M187.566,-122.3692C173.5875,-111.0576 155.3581,-96.3062 143.5424,-86.7449"/>
<polygon fill="#191970" stroke="#191970" points="185.6496,-125.3209 195.625,-128.8906 190.053,-119.8793 185.6496,-125.3209"/>
</g>
<!-- Node12 -->
<g id="node7" class="node">
<title>Node12</title>
<g id="a_node7"><a xlink:href="_move__always_8hpp.html" target="_top" xlink:title="Randomly selects moves to always perform on triangulations. ">
<polygon fill="#ffffff" stroke="#000000" points="213.5,-67.5 213.5,-86.5 355.5,-86.5 355.5,-67.5 213.5,-67.5"/>
<text text-anchor="middle" x="284.5" y="-74.5" font-family="Helvetica,sans-Serif" font-size="10.00" fill="#000000">include/Move_always.hpp</text>
</a>
</g>
</g>
<!-- Node8&#45;&gt;Node12 -->
<g id="edge6" class="edge">
<title>Node8&#45;&gt;Node12</title>
<path fill="none" stroke="#191970" d="M227.3458,-122.6491C241.653,-111.222 260.4924,-96.1749 272.5532,-86.5419"/>
<polygon fill="#191970" stroke="#191970" points="225.1606,-119.915 219.5313,-128.8906 229.5292,-125.3846 225.1606,-119.915"/>
</g>
<!-- Node10 -->
<g id="node5" class="node">
<title>Node10</title>
<g id="a_node5"><a xlink:href="cdt-opt_8cpp.html" target="_top" xlink:title="Outputs values to determine optimizations. ">
<polygon fill="#ffffff" stroke="#000000" points="0,-6 0,-25 89,-25 89,-6 0,-6"/>
<text text-anchor="middle" x="44.5" y="-13" font-family="Helvetica,sans-Serif" font-size="10.00" fill="#000000">src/cdt&#45;opt.cpp</text>
</a>
</g>
</g>
<!-- Node9&#45;&gt;Node10 -->
<g id="edge4" class="edge">
<title>Node9&#45;&gt;Node10</title>
<path fill="none" stroke="#191970" d="M109.5287,-61.4685C93.3101,-50.0037 71.7529,-34.765 57.9983,-25.0419"/>
<polygon fill="#191970" stroke="#191970" points="107.7201,-64.4763 117.9063,-67.3906 111.7608,-58.7602 107.7201,-64.4763"/>
</g>
<!-- Node11 -->
<g id="node6" class="node">
<title>Node11</title>
<g id="a_node6"><a xlink:href="cdt_8cpp.html" target="_top" xlink:title="The main executable. ">
<polygon fill="#ffffff" stroke="#000000" points="107,-6 107,-25 176,-25 176,-6 107,-6"/>
<text text-anchor="middle" x="141.5" y="-13" font-family="Helvetica,sans-Serif" font-size="10.00" fill="#000000">src/cdt.cpp</text>
</a>
</g>
</g>
<!-- Node9&#45;&gt;Node11 -->
<g id="edge5" class="edge">
<title>Node9&#45;&gt;Node11</title>
<path fill="none" stroke="#191970" d="M134.712,-57.2462C136.4509,-46.5519 138.5221,-33.814 139.9155,-25.2449"/>
<polygon fill="#191970" stroke="#191970" points="131.2129,-56.9585 133.0625,-67.3906 138.1221,-58.082 131.2129,-56.9585"/>
</g>
<!-- Node13 -->
<g id="node8" class="node">
<title>Node13</title>
<g id="a_node8"><a xlink:href="_move__strategies__test_8cpp.html" target="_top" xlink:title="Tests for the Metropolis&#45;Hastings algorithm. ">
<polygon fill="#ffffff" stroke="#000000" points="213.5,-.5 213.5,-30.5 337.5,-30.5 337.5,-.5 213.5,-.5"/>
<text text-anchor="start" x="221.5" y="-18.5" font-family="Helvetica,sans-Serif" font-size="10.00" fill="#000000">tests/Move_strategies</text>
<text text-anchor="middle" x="275.5" y="-7.5" font-family="Helvetica,sans-Serif" font-size="10.00" fill="#000000">_test.cpp</text>
</a>
</g>
</g>
<!-- Node12&#45;&gt;Node13 -->
<g id="edge7" class="edge">
<title>Node12&#45;&gt;Node13</title>
<path fill="none" stroke="#191970" d="M281.6272,-57.3693C280.3558,-48.681 278.884,-38.6241 277.7016,-30.5446"/>
<polygon fill="#191970" stroke="#191970" points="278.1826,-58.0028 283.0938,-67.3906 285.1088,-56.9892 278.1826,-58.0028"/>
</g>
<!-- Node14 -->
<g id="node9" class="node">
<title>Node14</title>
<g id="a_node9"><a xlink:href="_simulation_test_8cpp_source.html" target="_top" xlink:title="tests/SimulationTest.cpp">
<polygon fill="#ffffff" stroke="#000000" points="355.5,-6 355.5,-25 491.5,-25 491.5,-6 355.5,-6"/>
<text text-anchor="middle" x="423.5" y="-13" font-family="Helvetica,sans-Serif" font-size="10.00" fill="#000000">tests/SimulationTest.cpp</text>
</a>
</g>
</g>
<!-- Node12&#45;&gt;Node14 -->
<g id="edge8" class="edge">
<title>Node12&#45;&gt;Node14</title>
<path fill="none" stroke="#191970" d="M315.3675,-63.3428C341.6506,-51.7139 378.7372,-35.3051 401.9338,-25.0419"/>
<polygon fill="#191970" stroke="#191970" points="313.9475,-60.1437 306.2188,-67.3906 316.7798,-66.5452 313.9475,-60.1437"/>
</g>
</g>
</svg>
