<?xml version="1.0" encoding="UTF-8" standalone="no"?>
<!DOCTYPE svg PUBLIC "-//W3C//DTD SVG 1.1//EN"
 "http://www.w3.org/Graphics/SVG/1.1/DTD/svg11.dtd">
<!-- Generated by graphviz version 2.40.1 (20161225.0304)
 -->
<!-- Title: include/Apply_move.hpp Pages: 1 -->
<svg width="243pt" height="140pt"
 viewBox="0.00 0.00 242.50 140.00" xmlns="http://www.w3.org/2000/svg" xmlns:xlink="http://www.w3.org/1999/xlink">
<g id="graph0" class="graph" transform="scale(1 1) rotate(0) translate(4 136)">
<title>include/Apply_move.hpp</title>
<polygon fill="#ffffff" stroke="transparent" points="-4,4 -4,-136 238.5,-136 238.5,4 -4,4"/>
<!-- Node0 -->
<g id="node1" class="node">
<title>Node0</title>
<polygon fill="#bfbfbf" stroke="#000000" points="83.5,-112.5 83.5,-131.5 220.5,-131.5 220.5,-112.5 83.5,-112.5"/>
<text text-anchor="middle" x="152" y="-119.5" font-family="Helvetica,sans-Serif" font-size="10.00" fill="#000000">include/Apply_move.hpp</text>
</g>
<!-- Node1 -->
<g id="node2" class="node">
<title>Node1</title>
<g id="a_node2"><a xlink:href="_function__ref_8hpp.html" target="_top" xlink:title="Efficient, type&#45;erasing, non&#45;owning function reference. ">
<polygon fill="#ffffff" stroke="#000000" points="55,-56.5 55,-75.5 151,-75.5 151,-56.5 55,-56.5"/>
<text text-anchor="middle" x="103" y="-63.5" font-family="Helvetica,sans-Serif" font-size="10.00" fill="#000000">Function_ref.hpp</text>
</a>
</g>
</g>
<!-- Node0&#45;&gt;Node1 -->
<g id="edge1" class="edge">
<title>Node0&#45;&gt;Node1</title>
<path fill="none" stroke="#191970" d="M143.4649,-112.2455C136.5088,-104.2958 126.5117,-92.8706 118.1949,-83.3656"/>
<polygon fill="#191970" stroke="#191970" points="120.6564,-80.8637 111.4373,-75.6427 115.3884,-85.4732 120.6564,-80.8637"/>
</g>
<!-- Node5 -->
<g id="node6" class="node">
<title>Node5</title>
<polygon fill="#ffffff" stroke="#bfbfbf" points="169.5,-56.5 169.5,-75.5 234.5,-75.5 234.5,-56.5 169.5,-56.5"/>
<text text-anchor="middle" x="202" y="-63.5" font-family="Helvetica,sans-Serif" font-size="10.00" fill="#000000">functional</text>
</g>
<!-- Node0&#45;&gt;Node5 -->
<g id="edge5" class="edge">
<title>Node0&#45;&gt;Node5</title>
<path fill="none" stroke="#191970" d="M160.7093,-112.2455C167.8073,-104.2958 178.0084,-92.8706 186.495,-83.3656"/>
<polygon fill="#191970" stroke="#191970" points="189.3411,-85.4331 193.3905,-75.6427 184.1195,-80.771 189.3411,-85.4331"/>
</g>
<!-- Node2 -->
<g id="node3" class="node">
<title>Node2</title>
<polygon fill="#ffffff" stroke="#bfbfbf" points="0,-.5 0,-19.5 50,-19.5 50,-.5 0,-.5"/>
<text text-anchor="middle" x="25" y="-7.5" font-family="Helvetica,sans-Serif" font-size="10.00" fill="#000000">cstdint</text>
</g>
<!-- Node1&#45;&gt;Node2 -->
<g id="edge2" class="edge">
<title>Node1&#45;&gt;Node2</title>
<path fill="none" stroke="#191970" d="M89.4134,-56.2455C77.6695,-47.814 60.4801,-35.4729 46.8118,-25.6598"/>
<polygon fill="#191970" stroke="#191970" points="48.5954,-22.6316 38.4309,-19.6427 44.5129,-28.3179 48.5954,-22.6316"/>
</g>
<!-- Node3 -->
<g id="node4" class="node">
<title>Node3</title>
<polygon fill="#ffffff" stroke="#bfbfbf" points="68.5,-.5 68.5,-19.5 137.5,-19.5 137.5,-.5 68.5,-.5"/>
<text text-anchor="middle" x="103" y="-7.5" font-family="Helvetica,sans-Serif" font-size="10.00" fill="#000000">type_traits</text>
</g>
<!-- Node1&#45;&gt;Node3 -->
<g id="edge3" class="edge">
<title>Node1&#45;&gt;Node3</title>
<path fill="none" stroke="#191970" d="M103,-56.2455C103,-48.9382 103,-38.6944 103,-29.7046"/>
<polygon fill="#191970" stroke="#191970" points="106.5001,-29.6426 103,-19.6427 99.5001,-29.6427 106.5001,-29.6426"/>
</g>
<!-- Node4 -->
<g id="node5" class="node">
<title>Node4</title>
<polygon fill="#ffffff" stroke="#bfbfbf" points="155.5,-.5 155.5,-19.5 200.5,-19.5 200.5,-.5 155.5,-.5"/>
<text text-anchor="middle" x="178" y="-7.5" font-family="Helvetica,sans-Serif" font-size="10.00" fill="#000000">utility</text>
</g>
<!-- Node1&#45;&gt;Node4 -->
<g id="edge4" class="edge">
<title>Node1&#45;&gt;Node4</title>
<path fill="none" stroke="#191970" d="M116.064,-56.2455C127.3562,-47.814 143.8845,-35.4729 157.0271,-25.6598"/>
<polygon fill="#191970" stroke="#191970" points="159.1669,-28.4301 165.0857,-19.6427 154.9789,-22.8211 159.1669,-28.4301"/>
</g>
</g>
</svg>
