<?xml version="1.0" encoding="UTF-8" standalone="no"?>
<!DOCTYPE svg PUBLIC "-//W3C//DTD SVG 1.1//EN"
 "http://www.w3.org/Graphics/SVG/1.1/DTD/svg11.dtd">
<!-- Generated by graphviz version 2.43.0 (0)
 -->
<!-- Title: include/Apply_move.hpp Pages: 1 -->
<svg width="565pt" height="203pt"
 viewBox="0.00 0.00 565.00 203.00" xmlns="http://www.w3.org/2000/svg" xmlns:xlink="http://www.w3.org/1999/xlink">
<g id="graph0" class="graph" transform="scale(1 1) rotate(0) translate(4 199)">
<title>include/Apply_move.hpp</title>
<!-- Node1 -->
<g id="node1" class="node">
<title>Node1</title>
<g id="a_node1"><a xlink:title="Apply Pachner moves to foliated Delaunay triangulations.">
<polygon fill="#999999" stroke="#666666" points="465,-195 328,-195 328,-176 465,-176 465,-195"/>
<text text-anchor="middle" x="396.5" y="-183" font-family="Helvetica,sans-Serif" font-size="10.00">include/Apply_move.hpp</text>
</a>
</g>
</g>
<!-- Node2 -->
<g id="node2" class="node">
<title>Node2</title>
<g id="a_node2"><a xlink:href="_move__command_8hpp.html" target="_top" xlink:title="Do ergodic moves using the Command pattern.">
<polygon fill="white" stroke="#666666" points="390,-140 233,-140 233,-121 390,-121 390,-140"/>
<text text-anchor="middle" x="311.5" y="-128" font-family="Helvetica,sans-Serif" font-size="10.00">include/Move_command.hpp</text>
</a>
</g>
</g>
<!-- Node1&#45;&gt;Node2 -->
<g id="edge1" class="edge">
<title>Node1&#45;&gt;Node2</title>
<path fill="none" stroke="#63b8ff" d="M373.93,-170.42C358.5,-160.81 338.55,-148.37 325.41,-140.17"/>
<polygon fill="#63b8ff" stroke="#63b8ff" points="372.51,-173.66 382.84,-175.98 376.21,-167.72 372.51,-173.66"/>
</g>
<!-- Node10 -->
<g id="node10" class="node">
<title>Node10</title>
<g id="a_node10"><a xlink:href="_apply__move__test_8cpp.html" target="_top" xlink:title="Applying ergodic moves to manifolds.">
<polygon fill="white" stroke="#666666" points="557,-140 408,-140 408,-121 557,-121 557,-140"/>
<text text-anchor="middle" x="482.5" y="-128" font-family="Helvetica,sans-Serif" font-size="10.00">tests/Apply_move_test.cpp</text>
</a>
</g>
</g>
<!-- Node1&#45;&gt;Node10 -->
<g id="edge10" class="edge">
<title>Node1&#45;&gt;Node10</title>
<path fill="none" stroke="#63b8ff" d="M418.9,-170.7C434.57,-161.04 455.01,-148.44 468.43,-140.17"/>
<polygon fill="#63b8ff" stroke="#63b8ff" points="416.99,-167.76 410.32,-175.98 420.67,-173.72 416.99,-167.76"/>
</g>
<!-- Node3 -->
<g id="node3" class="node">
<title>Node3</title>
<g id="a_node3"><a xlink:href="_metropolis_8hpp.html" target="_top" xlink:title="Perform Metropolis&#45;Hastings algorithm on Delaunay Triangulations.">
<polygon fill="white" stroke="#666666" points="221.5,-79.5 93.5,-79.5 93.5,-60.5 221.5,-60.5 221.5,-79.5"/>
<text text-anchor="middle" x="157.5" y="-67.5" font-family="Helvetica,sans-Serif" font-size="10.00">include/Metropolis.hpp</text>
</a>
</g>
</g>
<!-- Node2&#45;&gt;Node3 -->
<g id="edge2" class="edge">
<title>Node2&#45;&gt;Node3</title>
<path fill="none" stroke="#63b8ff" d="M279.59,-117.38C249.82,-106.07 206.16,-89.49 179.92,-79.52"/>
<polygon fill="#63b8ff" stroke="#63b8ff" points="278.52,-120.71 289.11,-120.99 281,-114.17 278.52,-120.71"/>
</g>
<!-- Node7 -->
<g id="node7" class="node">
<title>Node7</title>
<g id="a_node7"><a xlink:href="_move__always_8hpp.html" target="_top" xlink:title="Randomly selects moves to always perform on triangulations.">
<polygon fill="white" stroke="#666666" points="383,-79.5 240,-79.5 240,-60.5 383,-60.5 383,-79.5"/>
<text text-anchor="middle" x="311.5" y="-67.5" font-family="Helvetica,sans-Serif" font-size="10.00">include/Move_always.hpp</text>
</a>
</g>
</g>
<!-- Node2&#45;&gt;Node7 -->
<g id="edge6" class="edge">
<title>Node2&#45;&gt;Node7</title>
<path fill="none" stroke="#63b8ff" d="M311.5,-110.66C311.5,-100.24 311.5,-87.8 311.5,-79.67"/>
<polygon fill="#63b8ff" stroke="#63b8ff" points="308,-110.87 311.5,-120.87 315,-110.87 308,-110.87"/>
</g>
<!-- Node9 -->
<g id="node9" class="node">
<title>Node9</title>
<g id="a_node9"><a xlink:href="_move__command__test_8cpp.html" target="_top" xlink:title="Tests of MoveCommand, that is, that moves are handled properly.">
<polygon fill="white" stroke="#666666" points="526,-85 401,-85 401,-55 526,-55 526,-85"/>
<text text-anchor="start" x="409" y="-73" font-family="Helvetica,sans-Serif" font-size="10.00">tests/Move_command</text>
<text text-anchor="middle" x="463.5" y="-62" font-family="Helvetica,sans-Serif" font-size="10.00">_test.cpp</text>
</a>
</g>
</g>
<!-- Node2&#45;&gt;Node9 -->
<g id="edge9" class="edge">
<title>Node2&#45;&gt;Node9</title>
<path fill="none" stroke="#63b8ff" d="M343.11,-117.33C367.54,-107.93 401.37,-94.91 426.96,-85.06"/>
<polygon fill="#63b8ff" stroke="#63b8ff" points="341.68,-114.14 333.6,-120.99 344.19,-120.67 341.68,-114.14"/>
</g>
<!-- Node4 -->
<g id="node4" class="node">
<title>Node4</title>
<g id="a_node4"><a xlink:href="cdt-opt_8cpp.html" target="_top" xlink:title="Outputs values to determine optimizations.">
<polygon fill="white" stroke="#666666" points="335,-19 246,-19 246,0 335,0 335,-19"/>
<text text-anchor="middle" x="290.5" y="-7" font-family="Helvetica,sans-Serif" font-size="10.00">src/cdt&#45;opt.cpp</text>
</a>
</g>
</g>
<!-- Node3&#45;&gt;Node4 -->
<g id="edge3" class="edge">
<title>Node3&#45;&gt;Node4</title>
<path fill="none" stroke="#63b8ff" d="M186.07,-56.43C211.75,-45.14 248.77,-28.86 271.14,-19.02"/>
<polygon fill="#63b8ff" stroke="#63b8ff" points="184.58,-53.26 176.84,-60.49 187.4,-59.67 184.58,-53.26"/>
</g>
<!-- Node5 -->
<g id="node5" class="node">
<title>Node5</title>
<g id="a_node5"><a xlink:href="cdt_8cpp.html" target="_top" xlink:title="The main executable.">
<polygon fill="white" stroke="#666666" points="69,-19 0,-19 0,0 69,0 69,-19"/>
<text text-anchor="middle" x="34.5" y="-7" font-family="Helvetica,sans-Serif" font-size="10.00">src/cdt.cpp</text>
</a>
</g>
</g>
<!-- Node3&#45;&gt;Node5 -->
<g id="edge4" class="edge">
<title>Node3&#45;&gt;Node5</title>
<path fill="none" stroke="#63b8ff" d="M130.45,-56.13C106.72,-44.85 72.91,-28.77 52.41,-19.02"/>
<polygon fill="#63b8ff" stroke="#63b8ff" points="129.08,-59.36 139.61,-60.49 132.09,-53.04 129.08,-59.36"/>
</g>
<!-- Node6 -->
<g id="node6" class="node">
<title>Node6</title>
<g id="a_node6"><a xlink:href="_metropolis__test_8cpp.html" target="_top" xlink:title="Tests for the Metropolis&#45;Hastings algorithm.">
<polygon fill="white" stroke="#666666" points="227.5,-19 87.5,-19 87.5,0 227.5,0 227.5,-19"/>
<text text-anchor="middle" x="157.5" y="-7" font-family="Helvetica,sans-Serif" font-size="10.00">tests/Metropolis_test.cpp</text>
</a>
</g>
</g>
<!-- Node3&#45;&gt;Node6 -->
<g id="edge5" class="edge">
<title>Node3&#45;&gt;Node6</title>
<path fill="none" stroke="#63b8ff" d="M157.5,-50.16C157.5,-39.74 157.5,-27.3 157.5,-19.17"/>
<polygon fill="#63b8ff" stroke="#63b8ff" points="154,-50.37 157.5,-60.37 161,-50.37 154,-50.37"/>
</g>
<!-- Node7&#45;&gt;Node4 -->
<g id="edge7" class="edge">
<title>Node7&#45;&gt;Node4</title>
<path fill="none" stroke="#63b8ff" d="M304.97,-50.82C301.19,-40.28 296.59,-27.48 293.61,-19.17"/>
<polygon fill="#63b8ff" stroke="#63b8ff" points="301.73,-52.14 308.4,-60.37 308.32,-49.77 301.73,-52.14"/>
</g>
<!-- Node8 -->
<g id="node8" class="node">
<title>Node8</title>
<g id="a_node8"><a xlink:href="_move__always__test_8cpp.html" target="_top" xlink:title="Tests for the Move Always algorithm.">
<polygon fill="white" stroke="#666666" points="508,-19 353,-19 353,0 508,0 508,-19"/>
<text text-anchor="middle" x="430.5" y="-7" font-family="Helvetica,sans-Serif" font-size="10.00">tests/Move_always_test.cpp</text>
</a>
</g>
</g>
<!-- Node7&#45;&gt;Node8 -->
<g id="edge8" class="edge">
<title>Node7&#45;&gt;Node8</title>
<path fill="none" stroke="#63b8ff" d="M337.98,-55.98C360.91,-44.71 393.43,-28.73 413.18,-19.02"/>
<polygon fill="#63b8ff" stroke="#63b8ff" points="336.23,-52.94 328.8,-60.49 339.32,-59.22 336.23,-52.94"/>
</g>
</g>
</svg>
