<?xml version="1.0" encoding="UTF-8" standalone="no"?>
<!DOCTYPE svg PUBLIC "-//W3C//DTD SVG 1.1//EN"
 "http://www.w3.org/Graphics/SVG/1.1/DTD/svg11.dtd">
<!-- Generated by graphviz version 2.43.0 (0)
 -->
<!-- Title: include/Apply_move.hpp Pages: 1 -->
<svg width="671pt" height="263pt"
 viewBox="0.00 0.00 670.50 263.00" xmlns="http://www.w3.org/2000/svg" xmlns:xlink="http://www.w3.org/1999/xlink">
<g id="graph0" class="graph" transform="scale(1 1) rotate(0) translate(4 259)">
<title>include/Apply_move.hpp</title>
<polygon fill="white" stroke="transparent" points="-4,4 -4,-259 666.5,-259 666.5,4 -4,4"/>
<!-- Node1 -->
<g id="node1" class="node">
<title>Node1</title>
<g id="a_node1"><a xlink:title="Apply Pachner moves to foliated Delaunay triangulations.">
<polygon fill="#bfbfbf" stroke="black" points="387,-235.5 387,-254.5 524,-254.5 524,-235.5 387,-235.5"/>
<text text-anchor="middle" x="455.5" y="-242.5" font-family="Helvetica,sans-Serif" font-size="10.00">include/Apply_move.hpp</text>
</a>
</g>
</g>
<!-- Node2 -->
<g id="node2" class="node">
<title>Node2</title>
<g id="a_node2"><a xlink:href="_move__command_8hpp.html" target="_top" xlink:title="Do ergodic moves using the Command pattern.">
<polygon fill="white" stroke="black" points="292,-179.5 292,-198.5 449,-198.5 449,-179.5 292,-179.5"/>
<text text-anchor="middle" x="370.5" y="-186.5" font-family="Helvetica,sans-Serif" font-size="10.00">include/Move_command.hpp</text>
</a>
</g>
</g>
<!-- Node1&#45;&gt;Node2 -->
<g id="edge1" class="edge">
<title>Node1&#45;&gt;Node2</title>
<path fill="none" stroke="midnightblue" d="M433.31,-229.9C417.72,-220 397.37,-207.07 384.12,-198.65"/>
<polygon fill="midnightblue" stroke="midnightblue" points="431.53,-232.92 441.84,-235.32 435.28,-227.01 431.53,-232.92"/>
</g>
<!-- Node12 -->
<g id="node12" class="node">
<title>Node12</title>
<g id="a_node12"><a xlink:href="_apply__move__test_8cpp.html" target="_top" xlink:title="Applying ergodic moves to manifolds.">
<polygon fill="white" stroke="black" points="467,-179.5 467,-198.5 616,-198.5 616,-179.5 467,-179.5"/>
<text text-anchor="middle" x="541.5" y="-186.5" font-family="Helvetica,sans-Serif" font-size="10.00">tests/Apply_move_test.cpp</text>
</a>
</g>
</g>
<!-- Node1&#45;&gt;Node12 -->
<g id="edge12" class="edge">
<title>Node1&#45;&gt;Node12</title>
<path fill="none" stroke="midnightblue" d="M477.95,-229.9C493.72,-220 514.31,-207.07 527.72,-198.65"/>
<polygon fill="midnightblue" stroke="midnightblue" points="475.93,-227.04 469.32,-235.32 479.65,-232.97 475.93,-227.04"/>
</g>
<!-- Node3 -->
<g id="node3" class="node">
<title>Node3</title>
<g id="a_node3"><a xlink:href="_move__strategy_8hpp.html" target="_top" xlink:title="Template class for move algorithms (strategies) on manifolds.">
<polygon fill="white" stroke="black" points="220,-118 220,-137 367,-137 367,-118 220,-118"/>
<text text-anchor="middle" x="293.5" y="-125" font-family="Helvetica,sans-Serif" font-size="10.00">include/Move_strategy.hpp</text>
</a>
</g>
</g>
<!-- Node2&#45;&gt;Node3 -->
<g id="edge2" class="edge">
<title>Node2&#45;&gt;Node3</title>
<path fill="none" stroke="midnightblue" d="M351.47,-173.29C336.7,-161.88 316.74,-146.46 304.51,-137.01"/>
<polygon fill="midnightblue" stroke="midnightblue" points="349.41,-176.13 359.47,-179.48 353.69,-170.59 349.41,-176.13"/>
</g>
<!-- Node11 -->
<g id="node11" class="node">
<title>Node11</title>
<g id="a_node11"><a xlink:href="_move__command__test_8cpp.html" target="_top" xlink:title="Tests of MoveCommand, that is, that moves are handled properly.">
<polygon fill="white" stroke="black" points="385,-112.5 385,-142.5 510,-142.5 510,-112.5 385,-112.5"/>
<text text-anchor="start" x="393" y="-130.5" font-family="Helvetica,sans-Serif" font-size="10.00">tests/Move_command</text>
<text text-anchor="middle" x="447.5" y="-119.5" font-family="Helvetica,sans-Serif" font-size="10.00">_test.cpp</text>
</a>
</g>
</g>
<!-- Node2&#45;&gt;Node11 -->
<g id="edge11" class="edge">
<title>Node2&#45;&gt;Node11</title>
<path fill="none" stroke="midnightblue" d="M389.66,-173.2C401.8,-163.81 417.41,-151.75 429.35,-142.52"/>
<polygon fill="midnightblue" stroke="midnightblue" points="387.31,-170.59 381.53,-179.48 391.59,-176.13 387.31,-170.59"/>
</g>
<!-- Node4 -->
<g id="node4" class="node">
<title>Node4</title>
<g id="a_node4"><a xlink:href="_metropolis_8hpp.html" target="_top" xlink:title="Perform Metropolis&#45;Hastings algorithm on Delaunay Triangulations.">
<polygon fill="white" stroke="black" points="152.5,-56.5 152.5,-75.5 280.5,-75.5 280.5,-56.5 152.5,-56.5"/>
<text text-anchor="middle" x="216.5" y="-63.5" font-family="Helvetica,sans-Serif" font-size="10.00">include/Metropolis.hpp</text>
</a>
</g>
</g>
<!-- Node3&#45;&gt;Node4 -->
<g id="edge3" class="edge">
<title>Node3&#45;&gt;Node4</title>
<path fill="none" stroke="midnightblue" d="M274.47,-111.79C259.7,-100.38 239.74,-84.96 227.51,-75.51"/>
<polygon fill="midnightblue" stroke="midnightblue" points="272.41,-114.63 282.47,-117.98 276.69,-109.09 272.41,-114.63"/>
</g>
<!-- Node8 -->
<g id="node8" class="node">
<title>Node8</title>
<g id="a_node8"><a xlink:href="_move__always_8hpp.html" target="_top" xlink:title="Randomly selects moves to always perform on triangulations.">
<polygon fill="white" stroke="black" points="329,-56.5 329,-75.5 472,-75.5 472,-56.5 329,-56.5"/>
<text text-anchor="middle" x="400.5" y="-63.5" font-family="Helvetica,sans-Serif" font-size="10.00">include/Move_always.hpp</text>
</a>
</g>
</g>
<!-- Node3&#45;&gt;Node8 -->
<g id="edge7" class="edge">
<title>Node3&#45;&gt;Node8</title>
<path fill="none" stroke="midnightblue" d="M317.68,-113.06C338.38,-101.54 367.57,-85.31 385.2,-75.51"/>
<polygon fill="midnightblue" stroke="midnightblue" points="315.87,-110.06 308.83,-117.98 319.27,-116.17 315.87,-110.06"/>
</g>
<!-- Node5 -->
<g id="node5" class="node">
<title>Node5</title>
<g id="a_node5"><a xlink:href="cdt-opt_8cpp.html" target="_top" xlink:title="Outputs values to determine optimizations.">
<polygon fill="white" stroke="black" points="246,-0.5 246,-19.5 335,-19.5 335,-0.5 246,-0.5"/>
<text text-anchor="middle" x="290.5" y="-7.5" font-family="Helvetica,sans-Serif" font-size="10.00">src/cdt&#45;opt.cpp</text>
</a>
</g>
</g>
<!-- Node4&#45;&gt;Node5 -->
<g id="edge4" class="edge">
<title>Node4&#45;&gt;Node5</title>
<path fill="none" stroke="midnightblue" d="M236.53,-50.38C249.91,-40.62 267.06,-28.11 278.39,-19.83"/>
<polygon fill="midnightblue" stroke="midnightblue" points="234.4,-47.6 228.39,-56.32 238.53,-53.26 234.4,-47.6"/>
</g>
<!-- Node6 -->
<g id="node6" class="node">
<title>Node6</title>
<g id="a_node6"><a xlink:href="cdt_8cpp.html" target="_top" xlink:title="The main executable.">
<polygon fill="white" stroke="black" points="0,-0.5 0,-19.5 69,-19.5 69,-0.5 0,-0.5"/>
<text text-anchor="middle" x="34.5" y="-7.5" font-family="Helvetica,sans-Serif" font-size="10.00">src/cdt.cpp</text>
</a>
</g>
</g>
<!-- Node4&#45;&gt;Node6 -->
<g id="edge5" class="edge">
<title>Node4&#45;&gt;Node6</title>
<path fill="none" stroke="midnightblue" d="M177.97,-53.57C143.64,-43.38 94.17,-28.7 63.2,-19.52"/>
<polygon fill="midnightblue" stroke="midnightblue" points="177.08,-56.95 187.66,-56.44 179.07,-50.24 177.08,-56.95"/>
</g>
<!-- Node7 -->
<g id="node7" class="node">
<title>Node7</title>
<g id="a_node7"><a xlink:href="_metropolis__test_8cpp.html" target="_top" xlink:title="Tests for the Metropolis&#45;Hastings algorithm.">
<polygon fill="white" stroke="black" points="87.5,-0.5 87.5,-19.5 227.5,-19.5 227.5,-0.5 87.5,-0.5"/>
<text text-anchor="middle" x="157.5" y="-7.5" font-family="Helvetica,sans-Serif" font-size="10.00">tests/Metropolis_test.cpp</text>
</a>
</g>
</g>
<!-- Node4&#45;&gt;Node7 -->
<g id="edge6" class="edge">
<title>Node4&#45;&gt;Node7</title>
<path fill="none" stroke="midnightblue" d="M199.61,-49.54C189.09,-39.91 175.93,-27.87 167.15,-19.83"/>
<polygon fill="midnightblue" stroke="midnightblue" points="197.28,-52.15 207.02,-56.32 202.01,-46.99 197.28,-52.15"/>
</g>
<!-- Node8&#45;&gt;Node5 -->
<g id="edge8" class="edge">
<title>Node8&#45;&gt;Node5</title>
<path fill="none" stroke="midnightblue" d="M373.74,-51.86C353.34,-41.85 325.83,-28.35 308.13,-19.65"/>
<polygon fill="midnightblue" stroke="midnightblue" points="372.31,-55.06 382.83,-56.32 375.39,-48.78 372.31,-55.06"/>
</g>
<!-- Node9 -->
<g id="node9" class="node">
<title>Node9</title>
<g id="a_node9"><a xlink:href="_move__always__test_8cpp_source.html" target="_top" xlink:title=" ">
<polygon fill="white" stroke="black" points="353,-0.5 353,-19.5 508,-19.5 508,-0.5 353,-0.5"/>
<text text-anchor="middle" x="430.5" y="-7.5" font-family="Helvetica,sans-Serif" font-size="10.00">tests/Move_always_test.cpp</text>
</a>
</g>
</g>
<!-- Node8&#45;&gt;Node9 -->
<g id="edge9" class="edge">
<title>Node8&#45;&gt;Node9</title>
<path fill="none" stroke="midnightblue" d="M410.35,-47.27C415.47,-38.05 421.52,-27.17 425.64,-19.75"/>
<polygon fill="midnightblue" stroke="midnightblue" points="407.25,-45.64 405.45,-56.08 413.37,-49.04 407.25,-45.64"/>
</g>
<!-- Node10 -->
<g id="node10" class="node">
<title>Node10</title>
<g id="a_node10"><a xlink:href="_simulation_test_8cpp_source.html" target="_top" xlink:title=" ">
<polygon fill="white" stroke="black" points="526.5,-0.5 526.5,-19.5 662.5,-19.5 662.5,-0.5 526.5,-0.5"/>
<text text-anchor="middle" x="594.5" y="-7.5" font-family="Helvetica,sans-Serif" font-size="10.00">tests/SimulationTest.cpp</text>
</a>
</g>
</g>
<!-- Node8&#45;&gt;Node10 -->
<g id="edge10" class="edge">
<title>Node8&#45;&gt;Node10</title>
<path fill="none" stroke="midnightblue" d="M441.1,-53.7C477.72,-43.51 530.76,-28.74 563.9,-19.52"/>
<polygon fill="midnightblue" stroke="midnightblue" points="439.94,-50.39 431.24,-56.44 441.81,-57.13 439.94,-50.39"/>
</g>
</g>
</svg>
