<?xml version="1.0" encoding="UTF-8" standalone="no"?>
<!DOCTYPE svg PUBLIC "-//W3C//DTD SVG 1.1//EN"
 "http://www.w3.org/Graphics/SVG/1.1/DTD/svg11.dtd">
<!-- Generated by graphviz version 15.1.0 (20260618.0150)
 -->
<!-- Title: include/Ergodic_moves_3.hpp Pages: 1 -->
<svg width="2444pt" height="408pt"
 viewBox="0.00 0.00 2444.00 408.00" xmlns="http://www.w3.org/2000/svg" xmlns:xlink="http://www.w3.org/1999/xlink">
<g id="graph0" class="graph" transform="scale(1 1) rotate(0) translate(4 403.5)">
<title>include/Ergodic_moves_3.hpp</title>
<!-- Node1 -->
<g id="Node000001" class="node">
<title>Node1</title>
<g id="a_Node000001"><a xlink:title="Pachner moves on 2+1 dimensional foliated Delaunay triangulations.">
<polygon fill="#999999" stroke="#666666" points="2019.53,-399.5 1891.03,-399.5 1891.03,-366 2019.53,-366 2019.53,-399.5"/>
<text xml:space="preserve" text-anchor="start" x="1899.03" y="-386" font-family="Helvetica,sans-Serif" font-size="10.00">include/Ergodic_moves</text>
<text xml:space="preserve" text-anchor="middle" x="1955.28" y="-373.25" font-family="Helvetica,sans-Serif" font-size="10.00">_3.hpp</text>
</a>
</g>
</g>
<!-- Node2 -->
<g id="Node000002" class="node">
<title>Node2</title>
<g id="a_Node000002"><a xlink:title=" ">
<polygon fill="#e0e0e0" stroke="#999999" points="1645.03,-273.25 1603.53,-273.25 1603.53,-252.5 1645.03,-252.5 1645.03,-273.25"/>
<text xml:space="preserve" text-anchor="middle" x="1624.28" y="-259.75" font-family="Helvetica,sans-Serif" font-size="10.00">array</text>
</a>
</g>
</g>
<!-- Node1&#45;&gt;Node2 -->
<g id="edge1_Node000001_Node000002" class="edge">
<title>Node1&#45;&gt;Node2</title>
<g id="a_edge1_Node000001_Node000002"><a xlink:title=" ">
<path fill="none" stroke="#63b8ff" d="M1890.66,-377.09C1838.27,-371.31 1763.66,-358.47 1704.28,-330 1679.56,-318.15 1655.96,-297.03 1640.89,-281.84"/>
<polygon fill="#63b8ff" stroke="#63b8ff" points="1643.56,-279.57 1634.1,-274.79 1638.52,-284.43 1643.56,-279.57"/>
</a>
</g>
</g>
<!-- Node3 -->
<g id="Node000003" class="node">
<title>Node3</title>
<g id="a_Node000003"><a xlink:title=" ">
<polygon fill="#e0e0e0" stroke="#999999" points="2356.68,-330 2327.88,-330 2327.88,-309.25 2356.68,-309.25 2356.68,-330"/>
<text xml:space="preserve" text-anchor="middle" x="2342.28" y="-316.5" font-family="Helvetica,sans-Serif" font-size="10.00">bit</text>
</a>
</g>
</g>
<!-- Node1&#45;&gt;Node3 -->
<g id="edge2_Node000001_Node000003" class="edge">
<title>Node1&#45;&gt;Node3</title>
<g id="a_edge2_Node000001_Node000003"><a xlink:title=" ">
<path fill="none" stroke="#63b8ff" d="M2019.81,-375.98C2092.18,-368.7 2212.73,-354.11 2314.28,-330 2315.1,-329.8 2315.93,-329.6 2316.77,-329.38"/>
<polygon fill="#63b8ff" stroke="#63b8ff" points="2317.6,-332.78 2326.15,-326.53 2315.56,-326.08 2317.6,-332.78"/>
</a>
</g>
</g>
<!-- Node4 -->
<g id="Node000004" class="node">
<title>Node4</title>
<g id="a_Node000004"><a xlink:title=" ">
<polygon fill="#e0e0e0" stroke="#999999" points="1041.03,-20.75 981.53,-20.75 981.53,0 1041.03,0 1041.03,-20.75"/>
<text xml:space="preserve" text-anchor="middle" x="1011.28" y="-7.25" font-family="Helvetica,sans-Serif" font-size="10.00">concepts</text>
</a>
</g>
</g>
<!-- Node1&#45;&gt;Node4 -->
<g id="edge3_Node000001_Node000004" class="edge">
<title>Node1&#45;&gt;Node4</title>
<g id="a_edge3_Node000001_Node000004"><a xlink:title=" ">
<path fill="none" stroke="#63b8ff" d="M2019.71,-380.57C2099.29,-375.3 2224.28,-352.85 2224.28,-263.88 2224.28,-263.88 2224.28,-263.88 2224.28,-148.38 2224.28,-106.79 2237.12,-83.5 2205.28,-56.75 2157.86,-16.91 1187.02,-28.55 1052.91,-20.43"/>
<polygon fill="#63b8ff" stroke="#63b8ff" points="1053.22,-16.94 1042.96,-19.56 1052.61,-23.92 1053.22,-16.94"/>
</a>
</g>
</g>
<!-- Node5 -->
<g id="Node000005" class="node">
<title>Node5</title>
<g id="a_Node000005"><a xlink:title=" ">
<polygon fill="#e0e0e0" stroke="#999999" points="1585.28,-273.25 1533.28,-273.25 1533.28,-252.5 1585.28,-252.5 1585.28,-273.25"/>
<text xml:space="preserve" text-anchor="middle" x="1559.28" y="-259.75" font-family="Helvetica,sans-Serif" font-size="10.00">cstddef</text>
</a>
</g>
</g>
<!-- Node1&#45;&gt;Node5 -->
<g id="edge4_Node000001_Node000005" class="edge">
<title>Node1&#45;&gt;Node5</title>
<g id="a_edge4_Node000001_Node000005"><a xlink:title=" ">
<path fill="none" stroke="#63b8ff" d="M1890.74,-376.78C1831.59,-370.68 1742.35,-357.52 1669.28,-330 1636.51,-317.66 1602.53,-295.56 1581.17,-280.33"/>
<polygon fill="#63b8ff" stroke="#63b8ff" points="1583.39,-277.62 1573.25,-274.56 1579.27,-283.28 1583.39,-277.62"/>
</a>
</g>
</g>
<!-- Node6 -->
<g id="Node000006" class="node">
<title>Node6</title>
<g id="a_Node000006"><a xlink:title=" ">
<polygon fill="#e0e0e0" stroke="#999999" points="2435.78,-330 2374.78,-330 2374.78,-309.25 2435.78,-309.25 2435.78,-330"/>
<text xml:space="preserve" text-anchor="middle" x="2405.28" y="-316.5" font-family="Helvetica,sans-Serif" font-size="10.00">expected</text>
</a>
</g>
</g>
<!-- Node1&#45;&gt;Node6 -->
<g id="edge5_Node000001_Node000006" class="edge">
<title>Node1&#45;&gt;Node6</title>
<g id="a_edge5_Node000001_Node000006"><a xlink:title=" ">
<path fill="none" stroke="#63b8ff" d="M2019.86,-375.71C2098.61,-367.87 2235.94,-352.7 2363.23,-330.2"/>
<polygon fill="#63b8ff" stroke="#63b8ff" points="2363.62,-333.69 2372.84,-328.48 2362.38,-326.8 2363.62,-333.69"/>
</a>
</g>
</g>
<!-- Node7 -->
<g id="Node000007" class="node">
<title>Node7</title>
<g id="a_Node000007"><a xlink:title=" ">
<polygon fill="#e0e0e0" stroke="#999999" points="2222.03,-20.75 2168.53,-20.75 2168.53,0 2222.03,0 2222.03,-20.75"/>
<text xml:space="preserve" text-anchor="middle" x="2195.28" y="-7.25" font-family="Helvetica,sans-Serif" font-size="10.00">random</text>
</a>
</g>
</g>
<!-- Node1&#45;&gt;Node7 -->
<g id="edge6_Node000001_Node000007" class="edge">
<title>Node1&#45;&gt;Node7</title>
<g id="a_edge6_Node000001_Node000007"><a xlink:title=" ">
<path fill="none" stroke="#63b8ff" d="M2019.77,-381.31C2079.74,-378.36 2169.87,-367.3 2238.28,-330 2273.65,-310.71 2300.28,-304.16 2300.28,-263.88 2300.28,-263.88 2300.28,-263.88 2300.28,-148.38 2300.28,-95.65 2250.67,-50.68 2219.65,-27.72"/>
<polygon fill="#63b8ff" stroke="#63b8ff" points="2221.72,-24.89 2211.55,-21.93 2217.66,-30.59 2221.72,-24.89"/>
</a>
</g>
</g>
<!-- Node8 -->
<g id="Node000008" class="node">
<title>Node8</title>
<g id="a_Node000008"><a xlink:href="_manifold_8hpp.html" target="_top" xlink:title="Data structures for manifolds.">
<polygon fill="white" stroke="#666666" points="1523.15,-330 1443.4,-330 1443.4,-309.25 1523.15,-309.25 1523.15,-330"/>
<text xml:space="preserve" text-anchor="middle" x="1483.28" y="-316.5" font-family="Helvetica,sans-Serif" font-size="10.00">Manifold.hpp</text>
</a>
</g>
</g>
<!-- Node1&#45;&gt;Node8 -->
<g id="edge7_Node000001_Node000008" class="edge">
<title>Node1&#45;&gt;Node8</title>
<g id="a_edge7_Node000001_Node000008"><a xlink:title=" ">
<path fill="none" stroke="#63b8ff" d="M1890.64,-373.38C1796.01,-361.13 1621.65,-338.55 1534.99,-327.32"/>
<polygon fill="#63b8ff" stroke="#63b8ff" points="1535.48,-323.86 1525.11,-326.04 1534.58,-330.8 1535.48,-323.86"/>
</a>
</g>
</g>
<!-- Node44 -->
<g id="Node000044" class="node">
<title>Node44</title>
<g id="a_Node000044"><a xlink:href="_move__tracker_8hpp.html" target="_top" xlink:title="Track ergodic moves.">
<polygon fill="white" stroke="#666666" points="1815.4,-330 1713.15,-330 1713.15,-309.25 1815.4,-309.25 1815.4,-330"/>
<text xml:space="preserve" text-anchor="middle" x="1764.28" y="-316.5" font-family="Helvetica,sans-Serif" font-size="10.00">Move_tracker.hpp</text>
</a>
</g>
</g>
<!-- Node1&#45;&gt;Node44 -->
<g id="edge55_Node000001_Node000044" class="edge">
<title>Node1&#45;&gt;Node44</title>
<g id="a_edge55_Node000001_Node000044"><a xlink:title=" ">
<path fill="none" stroke="#63b8ff" d="M1904.59,-365.53C1873.63,-355.62 1834.53,-343.11 1805.47,-333.81"/>
<polygon fill="#63b8ff" stroke="#63b8ff" points="1806.9,-330.59 1796.31,-330.88 1804.77,-337.26 1806.9,-330.59"/>
</a>
</g>
</g>
<!-- Node8&#45;&gt;Node5 -->
<g id="edge8_Node000008_Node000005" class="edge">
<title>Node8&#45;&gt;Node5</title>
<g id="a_edge8_Node000008_Node000005"><a xlink:title=" ">
<path fill="none" stroke="#63b8ff" d="M1496.86,-308.84C1507.89,-300.9 1523.66,-289.53 1536.6,-280.21"/>
<polygon fill="#63b8ff" stroke="#63b8ff" points="1538.51,-283.15 1544.58,-274.46 1534.42,-277.47 1538.51,-283.15"/>
</a>
</g>
</g>
<!-- Node9 -->
<g id="Node000009" class="node">
<title>Node9</title>
<g id="a_Node000009"><a xlink:title=" ">
<polygon fill="#e0e0e0" stroke="#999999" points="1443.53,-159.75 1375.03,-159.75 1375.03,-139 1443.53,-139 1443.53,-159.75"/>
<text xml:space="preserve" text-anchor="middle" x="1409.28" y="-146.25" font-family="Helvetica,sans-Serif" font-size="10.00">type_traits</text>
</a>
</g>
</g>
<!-- Node8&#45;&gt;Node9 -->
<g id="edge9_Node000008_Node000009" class="edge">
<title>Node8&#45;&gt;Node9</title>
<g id="a_edge9_Node000008_Node000009"><a xlink:title=" ">
<path fill="none" stroke="#63b8ff" d="M1485.6,-308.91C1488.3,-295.75 1491.63,-271.69 1485.28,-252.5 1474.06,-218.63 1446.77,-186.87 1428.13,-168.02"/>
<polygon fill="#63b8ff" stroke="#63b8ff" points="1430.7,-165.64 1421.11,-161.14 1425.81,-170.64 1430.7,-165.64"/>
</a>
</g>
</g>
<!-- Node10 -->
<g id="Node000010" class="node">
<title>Node10</title>
<g id="a_Node000010"><a xlink:title=" ">
<polygon fill="#e0e0e0" stroke="#999999" points="1476.15,-273.25 1390.4,-273.25 1390.4,-252.5 1476.15,-252.5 1476.15,-273.25"/>
<text xml:space="preserve" text-anchor="middle" x="1433.28" y="-259.75" font-family="Helvetica,sans-Serif" font-size="10.00">unordered_set</text>
</a>
</g>
</g>
<!-- Node8&#45;&gt;Node10 -->
<g id="edge10_Node000008_Node000010" class="edge">
<title>Node8&#45;&gt;Node10</title>
<g id="a_edge10_Node000008_Node000010"><a xlink:title=" ">
<path fill="none" stroke="#63b8ff" d="M1474.34,-308.84C1467.51,-301.36 1457.92,-290.86 1449.72,-281.88"/>
<polygon fill="#63b8ff" stroke="#63b8ff" points="1452.49,-279.72 1443.16,-274.7 1447.32,-284.44 1452.49,-279.72"/>
</a>
</g>
</g>
<!-- Node11 -->
<g id="Node000011" class="node">
<title>Node11</title>
<g id="a_Node000011"><a xlink:href="_geometry_8hpp.html" target="_top" xlink:title="Geometric scalars of the Manifold used to calculate the Regge action.">
<polygon fill="white" stroke="#666666" points="1372.4,-273.25 1288.15,-273.25 1288.15,-252.5 1372.4,-252.5 1372.4,-273.25"/>
<text xml:space="preserve" text-anchor="middle" x="1330.28" y="-259.75" font-family="Helvetica,sans-Serif" font-size="10.00">Geometry.hpp</text>
</a>
</g>
</g>
<!-- Node8&#45;&gt;Node11 -->
<g id="edge11_Node000008_Node000011" class="edge">
<title>Node8&#45;&gt;Node11</title>
<g id="a_edge11_Node000008_Node000011"><a xlink:title=" ">
<path fill="none" stroke="#63b8ff" d="M1455.92,-308.84C1431.52,-300.11 1395.55,-287.23 1368.34,-277.5"/>
<polygon fill="#63b8ff" stroke="#63b8ff" points="1369.67,-274.25 1359.08,-274.18 1367.31,-280.85 1369.67,-274.25"/>
</a>
</g>
</g>
<!-- Node20 -->
<g id="Node000020" class="node">
<title>Node20</title>
<g id="a_Node000020"><a xlink:href="_random_8hpp.html" target="_top" xlink:title="Run&#45;owned random&#45;number generation and reproducible stream splitting.">
<polygon fill="white" stroke="#666666" points="933.03,-90.25 855.53,-90.25 855.53,-69.5 933.03,-69.5 933.03,-90.25"/>
<text xml:space="preserve" text-anchor="middle" x="894.28" y="-76.75" font-family="Helvetica,sans-Serif" font-size="10.00">Random.hpp</text>
</a>
</g>
</g>
<!-- Node8&#45;&gt;Node20 -->
<g id="edge54_Node000008_Node000020" class="edge">
<title>Node8&#45;&gt;Node20</title>
<g id="a_edge54_Node000008_Node000020"><a xlink:title=" ">
<path fill="none" stroke="#63b8ff" d="M1443.2,-312.84C1326.19,-295.15 988.64,-238.17 914.28,-159.75 899.57,-144.24 895.26,-119.52 894.2,-101.89"/>
<polygon fill="#63b8ff" stroke="#63b8ff" points="897.7,-101.95 893.93,-92.05 890.7,-102.14 897.7,-101.95"/>
</a>
</g>
</g>
<!-- Node11&#45;&gt;Node9 -->
<g id="edge12_Node000011_Node000009" class="edge">
<title>Node11&#45;&gt;Node9</title>
<g id="a_edge12_Node000011_Node000009"><a xlink:title=" ">
<path fill="none" stroke="#63b8ff" d="M1337.01,-252.37C1350.01,-234.03 1378.76,-193.45 1395.82,-169.37"/>
<polygon fill="#63b8ff" stroke="#63b8ff" points="1398.53,-171.59 1401.46,-161.41 1392.82,-167.55 1398.53,-171.59"/>
</a>
</g>
</g>
<!-- Node12 -->
<g id="Node000012" class="node">
<title>Node12</title>
<g id="a_Node000012"><a xlink:href="_foliated__triangulation_8hpp.html" target="_top" xlink:title="Create foliated spherical triangulations.">
<polygon fill="white" stroke="#666666" points="1265.03,-216.5 1121.53,-216.5 1121.53,-195.75 1265.03,-195.75 1265.03,-216.5"/>
<text xml:space="preserve" text-anchor="middle" x="1193.28" y="-203" font-family="Helvetica,sans-Serif" font-size="10.00">Foliated_triangulation.hpp</text>
</a>
</g>
</g>
<!-- Node11&#45;&gt;Node12 -->
<g id="edge13_Node000011_Node000012" class="edge">
<title>Node11&#45;&gt;Node12</title>
<g id="a_edge13_Node000011_Node000012"><a xlink:title=" ">
<path fill="none" stroke="#63b8ff" d="M1305.78,-252.09C1284.16,-243.44 1252.39,-230.75 1228.12,-221.05"/>
<polygon fill="#63b8ff" stroke="#63b8ff" points="1229.55,-217.85 1218.96,-217.39 1226.95,-224.35 1229.55,-217.85"/>
</a>
</g>
</g>
<!-- Node12&#45;&gt;Node9 -->
<g id="edge20_Node000012_Node000009" class="edge">
<title>Node12&#45;&gt;Node9</title>
<g id="a_edge20_Node000012_Node000009"><a xlink:title=" ">
<path fill="none" stroke="#63b8ff" d="M1231.89,-195.34C1268.78,-185.99 1324.4,-171.89 1363.5,-161.98"/>
<polygon fill="#63b8ff" stroke="#63b8ff" points="1364.26,-165.4 1373.09,-159.55 1362.54,-158.61 1364.26,-165.4"/>
</a>
</g>
</g>
<!-- Node13 -->
<g id="Node000013" class="node">
<title>Node13</title>
<g id="a_Node000013"><a xlink:title=" ">
<polygon fill="#e0e0e0" stroke="#999999" points="1039.65,-159.75 944.9,-159.75 944.9,-139 1039.65,-139 1039.65,-159.75"/>
<text xml:space="preserve" text-anchor="middle" x="992.28" y="-146.25" font-family="Helvetica,sans-Serif" font-size="10.00">CGAL/Random.h</text>
</a>
</g>
</g>
<!-- Node12&#45;&gt;Node13 -->
<g id="edge14_Node000012_Node000013" class="edge">
<title>Node12&#45;&gt;Node13</title>
<g id="a_edge14_Node000012_Node000013"><a xlink:title=" ">
<path fill="none" stroke="#63b8ff" d="M1157.34,-195.34C1124.29,-186.33 1075.08,-172.93 1038.99,-163.1"/>
<polygon fill="#63b8ff" stroke="#63b8ff" points="1040.27,-159.82 1029.7,-160.57 1038.43,-166.57 1040.27,-159.82"/>
</a>
</g>
</g>
<!-- Node14 -->
<g id="Node000014" class="node">
<title>Node14</title>
<g id="a_Node000014"><a xlink:title=" ">
<polygon fill="#e0e0e0" stroke="#999999" points="1108.9,-90.25 1045.65,-90.25 1045.65,-69.5 1108.9,-69.5 1108.9,-90.25"/>
<text xml:space="preserve" text-anchor="middle" x="1077.28" y="-76.75" font-family="Helvetica,sans-Serif" font-size="10.00">algorithm</text>
</a>
</g>
</g>
<!-- Node12&#45;&gt;Node14 -->
<g id="edge15_Node000012_Node000014" class="edge">
<title>Node12&#45;&gt;Node14</title>
<g id="a_edge15_Node000012_Node000014"><a xlink:title=" ">
<path fill="none" stroke="#63b8ff" d="M1259.31,-195.32C1304.82,-185.78 1353.01,-168.33 1328.28,-139 1267.24,-66.6 1207.79,-133.89 1118.28,-103 1113.01,-101.18 1107.61,-98.74 1102.53,-96.14"/>
<polygon fill="#63b8ff" stroke="#63b8ff" points="1104.47,-93.22 1094.02,-91.47 1101.1,-99.35 1104.47,-93.22"/>
</a>
</g>
</g>
<!-- Node15 -->
<g id="Node000015" class="node">
<title>Node15</title>
<g id="a_Node000015"><a xlink:title=" ">
<polygon fill="#e0e0e0" stroke="#999999" points="1104.65,-159.75 1057.9,-159.75 1057.9,-139 1104.65,-139 1104.65,-159.75"/>
<text xml:space="preserve" text-anchor="middle" x="1081.28" y="-146.25" font-family="Helvetica,sans-Serif" font-size="10.00">cmath</text>
</a>
</g>
</g>
<!-- Node12&#45;&gt;Node15 -->
<g id="edge16_Node000012_Node000015" class="edge">
<title>Node12&#45;&gt;Node15</title>
<g id="a_edge16_Node000012_Node000015"><a xlink:title=" ">
<path fill="none" stroke="#63b8ff" d="M1173.25,-195.34C1156.05,-186.93 1131,-174.68 1111.38,-165.09"/>
<polygon fill="#63b8ff" stroke="#63b8ff" points="1113.01,-161.99 1102.49,-160.74 1109.93,-168.28 1113.01,-161.99"/>
</a>
</g>
</g>
<!-- Node16 -->
<g id="Node000016" class="node">
<title>Node16</title>
<g id="a_Node000016"><a xlink:title=" ">
<polygon fill="#e0e0e0" stroke="#999999" points="1187.65,-159.75 1122.9,-159.75 1122.9,-139 1187.65,-139 1187.65,-159.75"/>
<text xml:space="preserve" text-anchor="middle" x="1155.28" y="-146.25" font-family="Helvetica,sans-Serif" font-size="10.00">functional</text>
</a>
</g>
</g>
<!-- Node12&#45;&gt;Node16 -->
<g id="edge17_Node000012_Node000016" class="edge">
<title>Node12&#45;&gt;Node16</title>
<g id="a_edge17_Node000012_Node000016"><a xlink:title=" ">
<path fill="none" stroke="#63b8ff" d="M1186.48,-195.34C1181.51,-188.17 1174.61,-178.23 1168.56,-169.51"/>
<polygon fill="#63b8ff" stroke="#63b8ff" points="1171.45,-167.54 1162.87,-161.32 1165.7,-171.53 1171.45,-167.54"/>
</a>
</g>
</g>
<!-- Node17 -->
<g id="Node000017" class="node">
<title>Node17</title>
<g id="a_Node000017"><a xlink:title=" ">
<polygon fill="#e0e0e0" stroke="#999999" points="1257.28,-159.75 1205.28,-159.75 1205.28,-139 1257.28,-139 1257.28,-159.75"/>
<text xml:space="preserve" text-anchor="middle" x="1231.28" y="-146.25" font-family="Helvetica,sans-Serif" font-size="10.00">iterator</text>
</a>
</g>
</g>
<!-- Node12&#45;&gt;Node17 -->
<g id="edge18_Node000012_Node000017" class="edge">
<title>Node12&#45;&gt;Node17</title>
<g id="a_edge18_Node000012_Node000017"><a xlink:title=" ">
<path fill="none" stroke="#63b8ff" d="M1200.07,-195.34C1205.04,-188.17 1211.95,-178.23 1218,-169.51"/>
<polygon fill="#63b8ff" stroke="#63b8ff" points="1220.85,-171.53 1223.68,-161.32 1215.1,-167.54 1220.85,-171.53"/>
</a>
</g>
</g>
<!-- Node18 -->
<g id="Node000018" class="node">
<title>Node18</title>
<g id="a_Node000018"><a xlink:title=" ">
<polygon fill="#e0e0e0" stroke="#999999" points="420.15,-20.75 376.4,-20.75 376.4,0 420.15,0 420.15,-20.75"/>
<text xml:space="preserve" text-anchor="middle" x="398.28" y="-7.25" font-family="Helvetica,sans-Serif" font-size="10.00">limits</text>
</a>
</g>
</g>
<!-- Node12&#45;&gt;Node18 -->
<g id="edge19_Node000012_Node000018" class="edge">
<title>Node12&#45;&gt;Node18</title>
<g id="a_edge19_Node000012_Node000018"><a xlink:title=" ">
<path fill="none" stroke="#63b8ff" d="M1121.1,-204.49C875.7,-201.6 84.62,-185.85 10.28,-103 -3.45,-87.7 -3.39,-72.11 10.28,-56.75 33.69,-30.44 274.52,-16.95 364.56,-12.8"/>
<polygon fill="#63b8ff" stroke="#63b8ff" points="364.64,-16.3 374.47,-12.36 364.32,-9.31 364.64,-16.3"/>
</a>
</g>
</g>
<!-- Node19 -->
<g id="Node000019" class="node">
<title>Node19</title>
<g id="a_Node000019"><a xlink:title=" ">
<polygon fill="#e0e0e0" stroke="#999999" points="1319.53,-159.75 1275.03,-159.75 1275.03,-139 1319.53,-139 1319.53,-159.75"/>
<text xml:space="preserve" text-anchor="middle" x="1297.28" y="-146.25" font-family="Helvetica,sans-Serif" font-size="10.00">utility</text>
</a>
</g>
</g>
<!-- Node12&#45;&gt;Node19 -->
<g id="edge21_Node000012_Node000019" class="edge">
<title>Node12&#45;&gt;Node19</title>
<g id="a_edge21_Node000012_Node000019"><a xlink:title=" ">
<path fill="none" stroke="#63b8ff" d="M1211.87,-195.34C1227.69,-187.01 1250.68,-174.91 1268.81,-165.36"/>
<polygon fill="#63b8ff" stroke="#63b8ff" points="1270.29,-168.54 1277.51,-160.78 1267.03,-162.34 1270.29,-168.54"/>
</a>
</g>
</g>
<!-- Node12&#45;&gt;Node20 -->
<g id="edge22_Node000012_Node000020" class="edge">
<title>Node12&#45;&gt;Node20</title>
<g id="a_edge22_Node000012_Node000020"><a xlink:title=" ">
<path fill="none" stroke="#63b8ff" d="M1121.23,-199.45C1055.77,-193.06 965.15,-180.72 936.28,-159.75 916.91,-145.68 905.63,-119.92 899.72,-101.67"/>
<polygon fill="#63b8ff" stroke="#63b8ff" points="903.11,-100.79 896.95,-92.17 896.39,-102.75 903.11,-100.79"/>
</a>
</g>
</g>
<!-- Node23 -->
<g id="Node000023" class="node">
<title>Node23</title>
<g id="a_Node000023"><a xlink:href="_triangulation__traits_8hpp.html" target="_top" xlink:title="Traits class for particular uses of CGAL.">
<polygon fill="white" stroke="#666666" points="672.65,-159.75 541.9,-159.75 541.9,-139 672.65,-139 672.65,-159.75"/>
<text xml:space="preserve" text-anchor="middle" x="607.28" y="-146.25" font-family="Helvetica,sans-Serif" font-size="10.00">Triangulation_traits.hpp</text>
</a>
</g>
</g>
<!-- Node12&#45;&gt;Node23 -->
<g id="edge28_Node000012_Node000023" class="edge">
<title>Node12&#45;&gt;Node23</title>
<g id="a_edge28_Node000012_Node000023"><a xlink:title=" ">
<path fill="none" stroke="#63b8ff" d="M1121.13,-198.38C1010.07,-188.01 798.16,-168.21 684.26,-157.57"/>
<polygon fill="#63b8ff" stroke="#63b8ff" points="684.67,-154.09 674.38,-156.64 684.01,-161.06 684.67,-154.09"/>
</a>
</g>
</g>
<!-- Node31 -->
<g id="Node000031" class="node">
<title>Node31</title>
<g id="a_Node000031"><a xlink:href="_utilities_8hpp.html" target="_top" xlink:title="Utility functions.">
<polygon fill="white" stroke="#666666" points="1735.9,-159.75 1660.65,-159.75 1660.65,-139 1735.9,-139 1735.9,-159.75"/>
<text xml:space="preserve" text-anchor="middle" x="1698.28" y="-146.25" font-family="Helvetica,sans-Serif" font-size="10.00">Utilities.hpp</text>
</a>
</g>
</g>
<!-- Node12&#45;&gt;Node31 -->
<g id="edge37_Node000012_Node000031" class="edge">
<title>Node12&#45;&gt;Node31</title>
<g id="a_edge37_Node000012_Node000031"><a xlink:title=" ">
<path fill="none" stroke="#63b8ff" d="M1265.36,-197.31C1369.53,-186.02 1559.45,-165.43 1649.03,-155.71"/>
<polygon fill="#63b8ff" stroke="#63b8ff" points="1649.14,-159.22 1658.71,-154.66 1648.39,-152.26 1649.14,-159.22"/>
</a>
</g>
</g>
<!-- Node20&#45;&gt;Node4 -->
<g id="edge23_Node000020_Node000004" class="edge">
<title>Node20&#45;&gt;Node4</title>
<g id="a_edge23_Node000020_Node000004"><a xlink:title=" ">
<path fill="none" stroke="#63b8ff" d="M911.29,-69.06C930.44,-58.01 961.81,-39.91 984.31,-26.94"/>
<polygon fill="#63b8ff" stroke="#63b8ff" points="986.02,-29.99 992.93,-21.96 982.52,-23.92 986.02,-29.99"/>
</a>
</g>
</g>
<!-- Node20&#45;&gt;Node7 -->
<g id="edge26_Node000020_Node000007" class="edge">
<title>Node20&#45;&gt;Node7</title>
<g id="a_edge26_Node000020_Node000007"><a xlink:title=" ">
<path fill="none" stroke="#63b8ff" d="M911.01,-69.17C919.98,-64.49 931.39,-59.35 942.28,-56.75 1062.7,-28.04 1958.53,-14.52 2156.59,-11.87"/>
<polygon fill="#63b8ff" stroke="#63b8ff" points="2156.63,-15.37 2166.59,-11.74 2156.54,-8.37 2156.63,-15.37"/>
</a>
</g>
</g>
<!-- Node20&#45;&gt;Node18 -->
<g id="edge25_Node000020_Node000018" class="edge">
<title>Node20&#45;&gt;Node18</title>
<g id="a_edge25_Node000020_Node000018"><a xlink:title=" ">
<path fill="none" stroke="#63b8ff" d="M876.58,-69C867.74,-64.52 856.72,-59.6 846.28,-56.75 695.54,-15.61 507.09,-11.05 431.7,-11.03"/>
<polygon fill="#63b8ff" stroke="#63b8ff" points="431.69,-7.53 421.7,-11.06 431.71,-14.53 431.69,-7.53"/>
</a>
</g>
</g>
<!-- Node21 -->
<g id="Node000021" class="node">
<title>Node21</title>
<g id="a_Node000021"><a xlink:title=" ">
<polygon fill="#e0e0e0" stroke="#999999" points="963.78,-20.75 914.78,-20.75 914.78,0 963.78,0 963.78,-20.75"/>
<text xml:space="preserve" text-anchor="middle" x="939.28" y="-7.25" font-family="Helvetica,sans-Serif" font-size="10.00">cstdint</text>
</a>
</g>
</g>
<!-- Node20&#45;&gt;Node21 -->
<g id="edge24_Node000020_Node000021" class="edge">
<title>Node20&#45;&gt;Node21</title>
<g id="a_edge24_Node000020_Node000021"><a xlink:title=" ">
<path fill="none" stroke="#63b8ff" d="M900.72,-69.2C907.47,-59.08 918.25,-42.92 926.69,-30.26"/>
<polygon fill="#63b8ff" stroke="#63b8ff" points="929.37,-32.55 932,-22.29 923.54,-28.67 929.37,-32.55"/>
</a>
</g>
</g>
<!-- Node22 -->
<g id="Node000022" class="node">
<title>Node22</title>
<g id="a_Node000022"><a xlink:title=" ">
<polygon fill="#e0e0e0" stroke="#999999" points="896.78,-20.75 799.78,-20.75 799.78,0 896.78,0 896.78,-20.75"/>
<text xml:space="preserve" text-anchor="middle" x="848.28" y="-7.25" font-family="Helvetica,sans-Serif" font-size="10.00">pcg_random.hpp</text>
</a>
</g>
</g>
<!-- Node20&#45;&gt;Node22 -->
<g id="edge27_Node000020_Node000022" class="edge">
<title>Node20&#45;&gt;Node22</title>
<g id="a_edge27_Node000020_Node000022"><a xlink:title=" ">
<path fill="none" stroke="#63b8ff" d="M887.69,-69.2C880.79,-59.08 869.77,-42.92 861.14,-30.26"/>
<polygon fill="#63b8ff" stroke="#63b8ff" points="864.23,-28.57 855.71,-22.28 858.45,-32.51 864.23,-28.57"/>
</a>
</g>
</g>
<!-- Node24 -->
<g id="Node000024" class="node">
<title>Node24</title>
<g id="a_Node000024"><a xlink:title=" ">
<polygon fill="#e0e0e0" stroke="#999999" points="369.03,-90.25 189.53,-90.25 189.53,-69.5 369.03,-69.5 369.03,-90.25"/>
<text xml:space="preserve" text-anchor="middle" x="279.28" y="-76.75" font-family="Helvetica,sans-Serif" font-size="10.00">CGAL/Delaunay_triangulation_3.h</text>
</a>
</g>
</g>
<!-- Node23&#45;&gt;Node24 -->
<g id="edge29_Node000023_Node000024" class="edge">
<title>Node23&#45;&gt;Node24</title>
<g id="a_edge29_Node000023_Node000024"><a xlink:title=" ">
<path fill="none" stroke="#63b8ff" d="M555.82,-138.55C509.36,-129.59 439.15,-115.83 378.28,-103 363.58,-99.9 347.69,-96.41 333.04,-93.14"/>
<polygon fill="#63b8ff" stroke="#63b8ff" points="334.11,-89.79 323.59,-91.02 332.58,-96.62 334.11,-89.79"/>
</a>
</g>
</g>
<!-- Node25 -->
<g id="Node000025" class="node">
<title>Node25</title>
<g id="a_Node000025"><a xlink:title=" ">
<polygon fill="#e0e0e0" stroke="#999999" points="515.53,-103 387.03,-103 387.03,-56.75 515.53,-56.75 515.53,-103"/>
<text xml:space="preserve" text-anchor="start" x="395.03" y="-89.5" font-family="Helvetica,sans-Serif" font-size="10.00">CGAL/Exact_predicates</text>
<text xml:space="preserve" text-anchor="start" x="395.03" y="-76.75" font-family="Helvetica,sans-Serif" font-size="10.00">_inexact_constructions</text>
<text xml:space="preserve" text-anchor="middle" x="451.28" y="-64" font-family="Helvetica,sans-Serif" font-size="10.00">_kernel.h</text>
</a>
</g>
</g>
<!-- Node23&#45;&gt;Node25 -->
<g id="edge30_Node000023_Node000025" class="edge">
<title>Node23&#45;&gt;Node25</title>
<g id="a_edge30_Node000023_Node000025"><a xlink:title=" ">
<path fill="none" stroke="#63b8ff" d="M584.59,-138.56C566.03,-130.53 538.87,-118.77 513.89,-107.97"/>
<polygon fill="#63b8ff" stroke="#63b8ff" points="515.31,-104.77 504.74,-104.01 512.53,-111.19 515.31,-104.77"/>
</a>
</g>
</g>
<!-- Node26 -->
<g id="Node000026" class="node">
<title>Node26</title>
<g id="a_Node000026"><a xlink:title=" ">
<polygon fill="#e0e0e0" stroke="#999999" points="681.28,-90.25 533.28,-90.25 533.28,-69.5 681.28,-69.5 681.28,-90.25"/>
<text xml:space="preserve" text-anchor="middle" x="607.28" y="-76.75" font-family="Helvetica,sans-Serif" font-size="10.00">CGAL/point_generators_3.h</text>
</a>
</g>
</g>
<!-- Node23&#45;&gt;Node26 -->
<g id="edge31_Node000023_Node000026" class="edge">
<title>Node23&#45;&gt;Node26</title>
<g id="a_edge31_Node000023_Node000026"><a xlink:title=" ">
<path fill="none" stroke="#63b8ff" d="M607.28,-138.7C607.28,-129.08 607.28,-114.01 607.28,-101.66"/>
<polygon fill="#63b8ff" stroke="#63b8ff" points="610.78,-102.04 607.28,-92.04 603.78,-102.04 610.78,-102.04"/>
</a>
</g>
</g>
<!-- Node27 -->
<g id="Node000027" class="node">
<title>Node27</title>
<g id="a_Node000027"><a xlink:title=" ">
<polygon fill="#e0e0e0" stroke="#999999" points="837.03,-96.62 699.53,-96.62 699.53,-63.12 837.03,-63.12 837.03,-96.62"/>
<text xml:space="preserve" text-anchor="start" x="707.53" y="-83.12" font-family="Helvetica,sans-Serif" font-size="10.00">CGAL/Triangulation</text>
<text xml:space="preserve" text-anchor="middle" x="768.28" y="-70.38" font-family="Helvetica,sans-Serif" font-size="10.00">_cell_base_with_info_3.h</text>
</a>
</g>
</g>
<!-- Node23&#45;&gt;Node27 -->
<g id="edge32_Node000023_Node000027" class="edge">
<title>Node23&#45;&gt;Node27</title>
<g id="a_edge32_Node000023_Node000027"><a xlink:title=" ">
<path fill="none" stroke="#63b8ff" d="M630.69,-138.56C653.76,-128.89 689.71,-113.81 719.08,-101.5"/>
<polygon fill="#63b8ff" stroke="#63b8ff" points="720.3,-104.78 728.17,-97.69 717.6,-98.33 720.3,-104.78"/>
</a>
</g>
</g>
<!-- Node28 -->
<g id="Node000028" class="node">
<title>Node28</title>
<g id="a_Node000028"><a xlink:title=" ">
<polygon fill="#e0e0e0" stroke="#999999" points="171.15,-96.62 19.4,-96.62 19.4,-63.12 171.15,-63.12 171.15,-96.62"/>
<text xml:space="preserve" text-anchor="start" x="27.4" y="-83.12" font-family="Helvetica,sans-Serif" font-size="10.00">CGAL/Triangulation</text>
<text xml:space="preserve" text-anchor="middle" x="95.28" y="-70.38" font-family="Helvetica,sans-Serif" font-size="10.00">_vertex_base_with_info_3.h</text>
</a>
</g>
</g>
<!-- Node23&#45;&gt;Node28 -->
<g id="edge33_Node000023_Node000028" class="edge">
<title>Node23&#45;&gt;Node28</title>
<g id="a_edge33_Node000023_Node000028"><a xlink:title=" ">
<path fill="none" stroke="#63b8ff" d="M541.74,-144.45C457.55,-138.71 307.16,-126.12 180.28,-103 174.79,-102 169.14,-100.84 163.48,-99.57"/>
<polygon fill="#63b8ff" stroke="#63b8ff" points="164.64,-96.25 154.1,-97.38 163.05,-103.06 164.64,-96.25"/>
</a>
</g>
</g>
<!-- Node29 -->
<g id="Node000029" class="node">
<title>Node29</title>
<g id="a_Node000029"><a xlink:href="_settings_8hpp.html" target="_top" xlink:title="Global integer and precision settings.">
<polygon fill="white" stroke="#666666" points="1027.65,-90.25 950.9,-90.25 950.9,-69.5 1027.65,-69.5 1027.65,-90.25"/>
<text xml:space="preserve" text-anchor="middle" x="989.28" y="-76.75" font-family="Helvetica,sans-Serif" font-size="10.00">Settings.hpp</text>
</a>
</g>
</g>
<!-- Node23&#45;&gt;Node29 -->
<g id="edge34_Node000023_Node000029" class="edge">
<title>Node23&#45;&gt;Node29</title>
<g id="a_edge34_Node000023_Node000029"><a xlink:title=" ">
<path fill="none" stroke="#63b8ff" d="M673.04,-145.39C741.5,-140.92 851.24,-129.9 942.28,-103 948.81,-101.07 955.59,-98.35 961.89,-95.47"/>
<polygon fill="#63b8ff" stroke="#63b8ff" points="963.1,-98.78 970.56,-91.26 960.04,-92.48 963.1,-98.78"/>
</a>
</g>
</g>
<!-- Node29&#45;&gt;Node21 -->
<g id="edge36_Node000029_Node000021" class="edge">
<title>Node29&#45;&gt;Node21</title>
<g id="a_edge36_Node000029_Node000021"><a xlink:title=" ">
<path fill="none" stroke="#63b8ff" d="M982.11,-69.2C974.61,-59.08 962.64,-42.92 953.26,-30.26"/>
<polygon fill="#63b8ff" stroke="#63b8ff" points="956.09,-28.2 947.33,-22.24 950.47,-32.36 956.09,-28.2"/>
</a>
</g>
</g>
<!-- Node30 -->
<g id="Node000030" class="node">
<title>Node30</title>
<g id="a_Node000030"><a xlink:title=" ">
<polygon fill="#e0e0e0" stroke="#999999" points="1197.78,-20.75 1058.78,-20.75 1058.78,0 1197.78,0 1197.78,-20.75"/>
<text xml:space="preserve" text-anchor="middle" x="1128.28" y="-7.25" font-family="Helvetica,sans-Serif" font-size="10.00">CGAL/GMP/Gmpzf_type.h</text>
</a>
</g>
</g>
<!-- Node29&#45;&gt;Node30 -->
<g id="edge35_Node000029_Node000030" class="edge">
<title>Node29&#45;&gt;Node30</title>
<g id="a_edge35_Node000029_Node000030"><a xlink:title=" ">
<path fill="none" stroke="#63b8ff" d="M1009.49,-69.06C1032.75,-57.76 1071.2,-39.09 1098.03,-26.06"/>
<polygon fill="#63b8ff" stroke="#63b8ff" points="1099.21,-29.38 1106.68,-21.86 1096.15,-23.08 1099.21,-29.38"/>
</a>
</g>
</g>
<!-- Node31&#45;&gt;Node7 -->
<g id="edge43_Node000031_Node000007" class="edge">
<title>Node31&#45;&gt;Node7</title>
<g id="a_edge43_Node000031_Node000007"><a xlink:title=" ">
<path fill="none" stroke="#63b8ff" d="M1736.28,-141.17C1740.98,-140.38 1745.73,-139.64 1750.28,-139 1829.68,-127.88 2038.59,-140.84 2109.28,-103 2132.73,-90.44 2129.13,-76.2 2147.28,-56.75 2156.31,-47.06 2166.96,-36.88 2175.94,-28.62"/>
<polygon fill="#63b8ff" stroke="#63b8ff" points="2178.06,-31.43 2183.1,-22.11 2173.35,-26.24 2178.06,-31.43"/>
</a>
</g>
</g>
<!-- Node31&#45;&gt;Node14 -->
<g id="edge38_Node000031_Node000014" class="edge">
<title>Node31&#45;&gt;Node14</title>
<g id="a_edge38_Node000031_Node000014"><a xlink:title=" ">
<path fill="none" stroke="#63b8ff" d="M1660.29,-141.03C1655.59,-140.26 1650.83,-139.56 1646.28,-139 1412.85,-110.09 1344.23,-168.33 1118.28,-103 1112.59,-101.36 1106.81,-98.85 1101.45,-96.1"/>
<polygon fill="#63b8ff" stroke="#63b8ff" points="1103.56,-93.27 1093.12,-91.43 1100.13,-99.37 1103.56,-93.27"/>
</a>
</g>
</g>
<!-- Node31&#45;&gt;Node20 -->
<g id="edge52_Node000031_Node000020" class="edge">
<title>Node31&#45;&gt;Node20</title>
<g id="a_edge52_Node000031_Node000020"><a xlink:title=" ">
<path fill="none" stroke="#63b8ff" d="M1660.33,-146.92C1516.87,-141.32 1012.18,-120.55 942.28,-103 935.43,-101.28 928.37,-98.6 921.84,-95.69"/>
<polygon fill="#63b8ff" stroke="#63b8ff" points="923.37,-92.54 912.84,-91.36 920.34,-98.85 923.37,-92.54"/>
</a>
</g>
</g>
<!-- Node31&#45;&gt;Node29 -->
<g id="edge53_Node000031_Node000029" class="edge">
<title>Node31&#45;&gt;Node29</title>
<g id="a_edge53_Node000031_Node000029"><a xlink:title=" ">
<path fill="none" stroke="#63b8ff" d="M1660.3,-140.99C1655.59,-140.23 1650.83,-139.54 1646.28,-139 1376.6,-106.85 1299.45,-170.05 1036.28,-103 1029.56,-101.29 1022.64,-98.61 1016.24,-95.7"/>
<polygon fill="#63b8ff" stroke="#63b8ff" points="1017.97,-92.65 1007.46,-91.38 1014.88,-98.93 1017.97,-92.65"/>
</a>
</g>
</g>
<!-- Node32 -->
<g id="Node000032" class="node">
<title>Node32</title>
<g id="a_Node000032"><a xlink:title=" ">
<polygon fill="#e0e0e0" stroke="#999999" points="1813.78,-90.25 1746.78,-90.25 1746.78,-69.5 1813.78,-69.5 1813.78,-90.25"/>
<text xml:space="preserve" text-anchor="middle" x="1780.28" y="-76.75" font-family="Helvetica,sans-Serif" font-size="10.00">filesystem</text>
</a>
</g>
</g>
<!-- Node31&#45;&gt;Node32 -->
<g id="edge39_Node000031_Node000032" class="edge">
<title>Node31&#45;&gt;Node32</title>
<g id="a_edge39_Node000031_Node000032"><a xlink:title=" ">
<path fill="none" stroke="#63b8ff" d="M1710.03,-138.7C1722.98,-128.04 1744.07,-110.68 1759.77,-97.76"/>
<polygon fill="#63b8ff" stroke="#63b8ff" points="1761.62,-100.77 1767.11,-91.71 1757.17,-95.36 1761.62,-100.77"/>
</a>
</g>
</g>
<!-- Node33 -->
<g id="Node000033" class="node">
<title>Node33</title>
<g id="a_Node000033"><a xlink:title=" ">
<polygon fill="#e0e0e0" stroke="#999999" points="1886.4,-90.25 1832.15,-90.25 1832.15,-69.5 1886.4,-69.5 1886.4,-90.25"/>
<text xml:space="preserve" text-anchor="middle" x="1859.28" y="-76.75" font-family="Helvetica,sans-Serif" font-size="10.00">fstream</text>
</a>
</g>
</g>
<!-- Node31&#45;&gt;Node33 -->
<g id="edge40_Node000031_Node000033" class="edge">
<title>Node31&#45;&gt;Node33</title>
<g id="a_edge40_Node000031_Node000033"><a xlink:title=" ">
<path fill="none" stroke="#63b8ff" d="M1730.87,-138.56C1756.53,-130.35 1792.92,-117.65 1823.28,-103 1827.21,-101.1 1831.26,-98.89 1835.15,-96.62"/>
<polygon fill="#63b8ff" stroke="#63b8ff" points="1836.96,-99.62 1843.65,-91.4 1833.3,-93.65 1836.96,-99.62"/>
</a>
</g>
</g>
<!-- Node34 -->
<g id="Node000034" class="node">
<title>Node34</title>
<g id="a_Node000034"><a xlink:title=" ">
<polygon fill="#e0e0e0" stroke="#999999" points="1952.03,-90.25 1904.53,-90.25 1904.53,-69.5 1952.03,-69.5 1952.03,-90.25"/>
<text xml:space="preserve" text-anchor="middle" x="1928.28" y="-76.75" font-family="Helvetica,sans-Serif" font-size="10.00">gsl/gsl</text>
</a>
</g>
</g>
<!-- Node31&#45;&gt;Node34 -->
<g id="edge41_Node000031_Node000034" class="edge">
<title>Node31&#45;&gt;Node34</title>
<g id="a_edge41_Node000031_Node000034"><a xlink:title=" ">
<path fill="none" stroke="#63b8ff" d="M1736.08,-141.37C1784.92,-132.02 1867.01,-115.23 1895.28,-103 1899.06,-101.36 1902.88,-99.28 1906.51,-97.05"/>
<polygon fill="#63b8ff" stroke="#63b8ff" points="1908.45,-99.97 1914.8,-91.48 1904.54,-94.16 1908.45,-99.97"/>
</a>
</g>
</g>
<!-- Node35 -->
<g id="Node000035" class="node">
<title>Node35</title>
<g id="a_Node000035"><a xlink:title=" ">
<polygon fill="#e0e0e0" stroke="#999999" points="2018.03,-90.25 1970.53,-90.25 1970.53,-69.5 2018.03,-69.5 2018.03,-90.25"/>
<text xml:space="preserve" text-anchor="middle" x="1994.28" y="-76.75" font-family="Helvetica,sans-Serif" font-size="10.00">mutex</text>
</a>
</g>
</g>
<!-- Node31&#45;&gt;Node35 -->
<g id="edge42_Node000031_Node000035" class="edge">
<title>Node31&#45;&gt;Node35</title>
<g id="a_edge42_Node000031_Node000035"><a xlink:title=" ">
<path fill="none" stroke="#63b8ff" d="M1736.32,-141.47C1741.02,-140.63 1745.76,-139.79 1750.28,-139 1843.98,-122.56 1872.92,-138.27 1961.28,-103 1965.29,-101.4 1969.32,-99.25 1973.11,-96.93"/>
<polygon fill="#63b8ff" stroke="#63b8ff" points="1974.87,-99.96 1981.18,-91.45 1970.94,-94.17 1974.87,-99.96"/>
</a>
</g>
</g>
<!-- Node36 -->
<g id="Node000036" class="node">
<title>Node36</title>
<g id="a_Node000036"><a xlink:title=" ">
<polygon fill="#e0e0e0" stroke="#999999" points="2195.9,-90.25 2156.65,-90.25 2156.65,-69.5 2195.9,-69.5 2195.9,-90.25"/>
<text xml:space="preserve" text-anchor="middle" x="2176.28" y="-76.75" font-family="Helvetica,sans-Serif" font-size="10.00">span</text>
</a>
</g>
</g>
<!-- Node31&#45;&gt;Node36 -->
<g id="edge44_Node000031_Node000036" class="edge">
<title>Node31&#45;&gt;Node36</title>
<g id="a_edge44_Node000031_Node000036"><a xlink:title=" ">
<path fill="none" stroke="#63b8ff" d="M1736.27,-141.13C1740.98,-140.35 1745.73,-139.62 1750.28,-139 1923.64,-115.46 1977,-160.39 2142.28,-103 2146.64,-101.48 2151,-99.29 2155.08,-96.87"/>
<polygon fill="#63b8ff" stroke="#63b8ff" points="2156.8,-99.92 2163.18,-91.47 2152.92,-94.1 2156.8,-99.92"/>
</a>
</g>
</g>
<!-- Node37 -->
<g id="Node000037" class="node">
<title>Node37</title>
<g id="a_Node000037"><a xlink:title=" ">
<polygon fill="#e0e0e0" stroke="#999999" points="2100.28,-90.25 2036.28,-90.25 2036.28,-69.5 2100.28,-69.5 2100.28,-90.25"/>
<text xml:space="preserve" text-anchor="middle" x="2068.28" y="-76.75" font-family="Helvetica,sans-Serif" font-size="10.00">stdexcept</text>
</a>
</g>
</g>
<!-- Node31&#45;&gt;Node37 -->
<g id="edge45_Node000031_Node000037" class="edge">
<title>Node31&#45;&gt;Node37</title>
<g id="a_edge45_Node000031_Node000037"><a xlink:title=" ">
<path fill="none" stroke="#63b8ff" d="M1736.3,-141.3C1741,-140.49 1745.74,-139.7 1750.28,-139 1872.96,-119.98 1909.13,-141.11 2027.28,-103 2032.67,-101.26 2038.18,-98.82 2043.34,-96.18"/>
<polygon fill="#63b8ff" stroke="#63b8ff" points="2044.92,-99.31 2051.97,-91.41 2041.53,-93.19 2044.92,-99.31"/>
</a>
</g>
</g>
<!-- Node38 -->
<g id="Node000038" class="node">
<title>Node38</title>
<g id="a_Node000038"><a xlink:title=" ">
<polygon fill="#e0e0e0" stroke="#999999" points="1171.15,-90.25 1127.4,-90.25 1127.4,-69.5 1171.15,-69.5 1171.15,-90.25"/>
<text xml:space="preserve" text-anchor="middle" x="1149.28" y="-76.75" font-family="Helvetica,sans-Serif" font-size="10.00">string</text>
</a>
</g>
</g>
<!-- Node31&#45;&gt;Node38 -->
<g id="edge46_Node000031_Node000038" class="edge">
<title>Node31&#45;&gt;Node38</title>
<g id="a_edge46_Node000031_Node000038"><a xlink:title=" ">
<path fill="none" stroke="#63b8ff" d="M1660.29,-141.07C1655.58,-140.3 1650.83,-139.58 1646.28,-139 1440.24,-112.54 1375.52,-173.93 1180.28,-103 1176.43,-101.6 1172.63,-99.59 1169.09,-97.34"/>
<polygon fill="#63b8ff" stroke="#63b8ff" points="1171.29,-94.61 1161.14,-91.57 1167.17,-100.28 1171.29,-94.61"/>
</a>
</g>
</g>
<!-- Node39 -->
<g id="Node000039" class="node">
<title>Node39</title>
<g id="a_Node000039"><a xlink:title=" ">
<polygon fill="#e0e0e0" stroke="#999999" points="1261.03,-90.25 1189.53,-90.25 1189.53,-69.5 1261.03,-69.5 1261.03,-90.25"/>
<text xml:space="preserve" text-anchor="middle" x="1225.28" y="-76.75" font-family="Helvetica,sans-Serif" font-size="10.00">date/date.h</text>
</a>
</g>
</g>
<!-- Node31&#45;&gt;Node39 -->
<g id="edge47_Node000031_Node000039" class="edge">
<title>Node31&#45;&gt;Node39</title>
<g id="a_edge47_Node000031_Node000039"><a xlink:title=" ">
<path fill="none" stroke="#63b8ff" d="M1660.28,-141.15C1655.57,-140.37 1650.82,-139.63 1646.28,-139 1479.97,-116.09 1431.79,-148.78 1270.28,-103 1263.99,-101.22 1257.53,-98.58 1251.53,-95.75"/>
<polygon fill="#63b8ff" stroke="#63b8ff" points="1253.22,-92.68 1242.72,-91.25 1250.04,-98.91 1253.22,-92.68"/>
</a>
</g>
</g>
<!-- Node40 -->
<g id="Node000040" class="node">
<title>Node40</title>
<g id="a_Node000040"><a xlink:title=" ">
<polygon fill="#e0e0e0" stroke="#999999" points="1365.15,-90.25 1279.4,-90.25 1279.4,-69.5 1365.15,-69.5 1365.15,-90.25"/>
<text xml:space="preserve" text-anchor="middle" x="1322.28" y="-76.75" font-family="Helvetica,sans-Serif" font-size="10.00">fmt/ostream.h</text>
</a>
</g>
</g>
<!-- Node31&#45;&gt;Node40 -->
<g id="edge48_Node000031_Node000040" class="edge">
<title>Node31&#45;&gt;Node40</title>
<g id="a_edge48_Node000031_Node000040"><a xlink:title=" ">
<path fill="none" stroke="#63b8ff" d="M1660.26,-141.31C1655.55,-140.5 1650.81,-139.71 1646.28,-139 1525.79,-120.18 1491.9,-135.17 1374.28,-103 1366.86,-100.97 1359.11,-98.11 1351.93,-95.12"/>
<polygon fill="#63b8ff" stroke="#63b8ff" points="1353.53,-92 1342.97,-91.18 1350.71,-98.41 1353.53,-92"/>
</a>
</g>
</g>
<!-- Node41 -->
<g id="Node000041" class="node">
<title>Node41</title>
<g id="a_Node000041"><a xlink:title=" ">
<polygon fill="#e0e0e0" stroke="#999999" points="1488.9,-96.62 1383.65,-96.62 1383.65,-63.12 1488.9,-63.12 1488.9,-96.62"/>
<text xml:space="preserve" text-anchor="start" x="1391.65" y="-83.12" font-family="Helvetica,sans-Serif" font-size="10.00">spdlog/sinks/basic</text>
<text xml:space="preserve" text-anchor="middle" x="1436.28" y="-70.38" font-family="Helvetica,sans-Serif" font-size="10.00">_file_sink.h</text>
</a>
</g>
</g>
<!-- Node31&#45;&gt;Node41 -->
<g id="edge49_Node000031_Node000041" class="edge">
<title>Node31&#45;&gt;Node41</title>
<g id="a_edge49_Node000031_Node000041"><a xlink:title=" ">
<path fill="none" stroke="#63b8ff" d="M1660.33,-141.18C1619.85,-133.17 1554,-119.2 1498.28,-103 1495.59,-102.22 1492.85,-101.38 1490.09,-100.51"/>
<polygon fill="#63b8ff" stroke="#63b8ff" points="1491.45,-97.28 1480.86,-97.49 1489.27,-103.93 1491.45,-97.28"/>
</a>
</g>
</g>
<!-- Node42 -->
<g id="Node000042" class="node">
<title>Node42</title>
<g id="a_Node000042"><a xlink:title=" ">
<polygon fill="#e0e0e0" stroke="#999999" points="1617.53,-96.62 1507.03,-96.62 1507.03,-63.12 1617.53,-63.12 1617.53,-96.62"/>
<text xml:space="preserve" text-anchor="start" x="1515.03" y="-83.12" font-family="Helvetica,sans-Serif" font-size="10.00">spdlog/sinks/stdout</text>
<text xml:space="preserve" text-anchor="middle" x="1562.28" y="-70.38" font-family="Helvetica,sans-Serif" font-size="10.00">_color_sinks.h</text>
</a>
</g>
</g>
<!-- Node31&#45;&gt;Node42 -->
<g id="edge50_Node000031_Node000042" class="edge">
<title>Node31&#45;&gt;Node42</title>
<g id="a_edge50_Node000031_Node000042"><a xlink:title=" ">
<path fill="none" stroke="#63b8ff" d="M1678.5,-138.56C1659.36,-129.06 1629.7,-114.34 1605.14,-102.15"/>
<polygon fill="#63b8ff" stroke="#63b8ff" points="1606.84,-99.09 1596.33,-97.78 1603.73,-105.36 1606.84,-99.09"/>
</a>
</g>
</g>
<!-- Node43 -->
<g id="Node000043" class="node">
<title>Node43</title>
<g id="a_Node000043"><a xlink:title=" ">
<polygon fill="#e0e0e0" stroke="#999999" points="1728.53,-90.25 1636.03,-90.25 1636.03,-69.5 1728.53,-69.5 1728.53,-90.25"/>
<text xml:space="preserve" text-anchor="middle" x="1682.28" y="-76.75" font-family="Helvetica,sans-Serif" font-size="10.00">spdlog/spdlog.h</text>
</a>
</g>
</g>
<!-- Node31&#45;&gt;Node43 -->
<g id="edge51_Node000031_Node000043" class="edge">
<title>Node31&#45;&gt;Node43</title>
<g id="a_edge51_Node000031_Node000043"><a xlink:title=" ">
<path fill="none" stroke="#63b8ff" d="M1695.98,-138.7C1693.7,-129.08 1690.13,-114.01 1687.2,-101.66"/>
<polygon fill="#63b8ff" stroke="#63b8ff" points="1690.63,-100.92 1684.91,-92 1683.81,-102.54 1690.63,-100.92"/>
</a>
</g>
</g>
<!-- Node44&#45;&gt;Node2 -->
<g id="edge56_Node000044_Node000002" class="edge">
<title>Node44&#45;&gt;Node2</title>
<g id="a_edge56_Node000044_Node000002"><a xlink:title=" ">
<path fill="none" stroke="#63b8ff" d="M1739.25,-308.84C1715.95,-299.73 1681.14,-286.11 1655.92,-276.25"/>
<polygon fill="#63b8ff" stroke="#63b8ff" points="1657.43,-273.08 1646.84,-272.7 1654.88,-279.6 1657.43,-273.08"/>
</a>
</g>
</g>
<!-- Node44&#45;&gt;Node5 -->
<g id="edge57_Node000044_Node000005" class="edge">
<title>Node44&#45;&gt;Node5</title>
<g id="a_edge57_Node000044_Node000005"><a xlink:title=" ">
<path fill="none" stroke="#63b8ff" d="M1727.46,-308.81C1695.32,-300.24 1647.11,-287.37 1596.48,-273.84"/>
<polygon fill="#63b8ff" stroke="#63b8ff" points="1597.68,-270.53 1587.11,-271.33 1595.87,-277.3 1597.68,-270.53"/>
</a>
</g>
</g>
<!-- Node44&#45;&gt;Node7 -->
<g id="edge60_Node000044_Node000007" class="edge">
<title>Node44&#45;&gt;Node7</title>
<g id="a_edge60_Node000044_Node000007"><a xlink:title=" ">
<path fill="none" stroke="#63b8ff" d="M1815.83,-312.04C1913.8,-296.35 2124.34,-246.68 2205.28,-103 2217.63,-81.06 2211.02,-51.48 2204.09,-31.94"/>
<polygon fill="#63b8ff" stroke="#63b8ff" points="2207.36,-30.67 2200.45,-22.63 2200.84,-33.22 2207.36,-30.67"/>
</a>
</g>
</g>
<!-- Node44&#45;&gt;Node29 -->
<g id="edge62_Node000044_Node000029" class="edge">
<title>Node44&#45;&gt;Node29</title>
<g id="a_edge62_Node000044_Node000029"><a xlink:title=" ">
<path fill="none" stroke="#63b8ff" d="M1752.16,-308.89C1712.24,-277.45 1580.09,-178.41 1452.28,-139 1274.94,-84.31 1215.47,-151.27 1036.28,-103 1029.58,-101.2 1022.67,-98.48 1016.27,-95.56"/>
<polygon fill="#63b8ff" stroke="#63b8ff" points="1018.01,-92.52 1007.49,-91.26 1014.93,-98.8 1018.01,-92.52"/>
</a>
</g>
</g>
<!-- Node44&#45;&gt;Node31 -->
<g id="edge63_Node000044_Node000031" class="edge">
<title>Node44&#45;&gt;Node31</title>
<g id="a_edge63_Node000044_Node000031"><a xlink:title=" ">
<path fill="none" stroke="#63b8ff" d="M1760.54,-309.1C1750.11,-282.5 1720.5,-207.02 1706.2,-170.57"/>
<polygon fill="#63b8ff" stroke="#63b8ff" points="1709.6,-169.66 1702.69,-161.63 1703.08,-172.21 1709.6,-169.66"/>
</a>
</g>
</g>
<!-- Node44&#45;&gt;Node36 -->
<g id="edge61_Node000044_Node000036" class="edge">
<title>Node44&#45;&gt;Node36</title>
<g id="a_edge61_Node000044_Node000036"><a xlink:title=" ">
<path fill="none" stroke="#63b8ff" d="M1764.69,-308.84C1765.8,-294.7 1769.81,-268.52 1784.28,-252.5 1899.84,-124.53 1989.83,-183.58 2142.28,-103 2145.81,-101.13 2149.44,-99.01 2152.96,-96.83"/>
<polygon fill="#63b8ff" stroke="#63b8ff" points="2154.63,-99.92 2161.13,-91.55 2150.83,-94.04 2154.63,-99.92"/>
</a>
</g>
</g>
<!-- Node45 -->
<g id="Node000045" class="node">
<title>Node45</title>
<g id="a_Node000045"><a xlink:title=" ">
<polygon fill="#e0e0e0" stroke="#999999" points="1841.78,-273.25 1792.78,-273.25 1792.78,-252.5 1841.78,-252.5 1841.78,-273.25"/>
<text xml:space="preserve" text-anchor="middle" x="1817.28" y="-259.75" font-family="Helvetica,sans-Serif" font-size="10.00">gsl/util</text>
</a>
</g>
</g>
<!-- Node44&#45;&gt;Node45 -->
<g id="edge58_Node000044_Node000045" class="edge">
<title>Node44&#45;&gt;Node45</title>
<g id="a_edge58_Node000044_Node000045"><a xlink:title=" ">
<path fill="none" stroke="#63b8ff" d="M1773.75,-308.84C1781.06,-301.28 1791.37,-290.64 1800.12,-281.6"/>
<polygon fill="#63b8ff" stroke="#63b8ff" points="1802.39,-284.29 1806.83,-274.67 1797.36,-279.42 1802.39,-284.29"/>
</a>
</g>
</g>
<!-- Node46 -->
<g id="Node000046" class="node">
<title>Node46</title>
<g id="a_Node000046"><a xlink:title=" ">
<polygon fill="#e0e0e0" stroke="#999999" points="1915.15,-273.25 1859.4,-273.25 1859.4,-252.5 1915.15,-252.5 1915.15,-273.25"/>
<text xml:space="preserve" text-anchor="middle" x="1887.28" y="-259.75" font-family="Helvetica,sans-Serif" font-size="10.00">numeric</text>
</a>
</g>
</g>
<!-- Node44&#45;&gt;Node46 -->
<g id="edge59_Node000044_Node000046" class="edge">
<title>Node44&#45;&gt;Node46</title>
<g id="a_edge59_Node000044_Node000046"><a xlink:title=" ">
<path fill="none" stroke="#63b8ff" d="M1786.27,-308.84C1805.42,-300.31 1833.44,-287.84 1855.11,-278.19"/>
<polygon fill="#63b8ff" stroke="#63b8ff" points="1856.38,-281.46 1864.09,-274.19 1853.54,-275.06 1856.38,-281.46"/>
</a>
</g>
</g>
</g>
</svg>
