<?xml version="1.0" encoding="UTF-8" standalone="no"?>
<!DOCTYPE svg PUBLIC "-//W3C//DTD SVG 1.1//EN"
 "http://www.w3.org/Graphics/SVG/1.1/DTD/svg11.dtd">
<!-- Generated by graphviz version 2.40.1 (20161225.0304)
 -->
<!-- Title: include/Ergodic_moves_3.hpp Pages: 1 -->
<!--zoomable 397 -->
<svg id="main" version="1.1" xmlns="http://www.w3.org/2000/svg" xmlns:xlink="http://www.w3.org/1999/xlink" xml:space="preserve" onload="init(evt)">
<style type="text/css"><![CDATA[
.edge:hover path { stroke: red; }
.edge:hover polygon { stroke: red; fill: red; }
]]></style>
<script type="text/javascript"><![CDATA[
var edges = document.getElementsByTagName('g');
if (edges && edges.length) {
  for (var i=0;i<edges.length;i++) {
    if (edges[i].id.substr(0,4)=='edge') {
      edges[i].setAttribute('class','edge');
    }
  }
}
]]></script>
        <defs>
                <circle id="rim" cx="0" cy="0" r="7"/>
                <circle id="rim2" cx="0" cy="0" r="3.5"/>
                <g id="zoomPlus">
                        <use xlink:href="#rim" fill="#404040">
                                <set attributeName="fill" to="#808080" begin="zoomplus.mouseover" end="zoomplus.mouseout"/>
                        </use>
                        <path d="M-4,0h8M0,-4v8" fill="none" stroke="white" stroke-width="1.5" pointer-events="none"/>
                </g>
                <g id="zoomMin">
                        <use xlink:href="#rim" fill="#404040">
                                <set attributeName="fill" to="#808080" begin="zoomminus.mouseover" end="zoomminus.mouseout"/>
                        </use>
                        <path d="M-4,0h8" fill="none" stroke="white" stroke-width="1.5" pointer-events="none"/>
                </g>
                <g id="dirArrow">
                        <path fill="none" stroke="white" stroke-width="1.5" d="M0,-3.0v7 M-2.5,-0.5L0,-3.0L2.5,-0.5"/>
                </g>
               <g id="resetDef">
                       <use xlink:href="#rim2" fill="#404040">
                               <set attributeName="fill" to="#808080" begin="reset.mouseover" end="reset.mouseout"/>
                       </use>
               </g>
        </defs>

<script type="text/javascript">
var viewWidth = 1935;
var viewHeight = 397;
var sectionId = 'dynsection-0';
</script>
<script xlink:href="svgpan.js"/>
<svg id="graph" class="graph">
<g id="viewport">
<title>include/Ergodic_moves_3.hpp</title>
<polygon fill="#ffffff" stroke="transparent" points="-4,4 -4,-393 1930.5,-393 1930.5,4 -4,4"/>
<!-- Node0 -->
<g id="node1" class="node">
<title>Node0</title>
<polygon fill="#bfbfbf" stroke="#000000" points="1423,-358.5 1423,-388.5 1552,-388.5 1552,-358.5 1423,-358.5"/>
<text text-anchor="start" x="1431" y="-376.5" font-family="Helvetica,sans-Serif" font-size="10.00" fill="#000000">include/Ergodic_moves</text>
<text text-anchor="middle" x="1487.5" y="-365.5" font-family="Helvetica,sans-Serif" font-size="10.00" fill="#000000">_3.hpp</text>
</g>
<!-- Node1 -->
<g id="node2" class="node">
<title>Node1</title>
<g id="a_node2"><a xlink:href="_manifold_8hpp.html" target="_top" xlink:title="Data structures for manifolds. ">
<polygon fill="#ffffff" stroke="#000000" points="1447.5,-302.5 1447.5,-321.5 1527.5,-321.5 1527.5,-302.5 1447.5,-302.5"/>
<text text-anchor="middle" x="1487.5" y="-309.5" font-family="Helvetica,sans-Serif" font-size="10.00" fill="#000000">Manifold.hpp</text>
</a>
</g>
</g>
<!-- Node0&#45;&gt;Node1 -->
<g id="edge1" class="edge">
<title>Node0&#45;&gt;Node1</title>
<path fill="none" stroke="#191970" d="M1487.5,-358.2977C1487.5,-350.3834 1487.5,-340.6043 1487.5,-332.0759"/>
<polygon fill="#191970" stroke="#191970" points="1491.0001,-331.8469 1487.5,-321.8469 1484.0001,-331.847 1491.0001,-331.8469"/>
</g>
<!-- Node2 -->
<g id="node3" class="node">
<title>Node2</title>
<g id="a_node3"><a xlink:href="_geometry_8hpp.html" target="_top" xlink:title="Data structures for geometry. ">
<polygon fill="#ffffff" stroke="#000000" points="1314,-246.5 1314,-265.5 1399,-265.5 1399,-246.5 1314,-246.5"/>
<text text-anchor="middle" x="1356.5" y="-253.5" font-family="Helvetica,sans-Serif" font-size="10.00" fill="#000000">Geometry.hpp</text>
</a>
</g>
</g>
<!-- Node1&#45;&gt;Node2 -->
<g id="edge2" class="edge">
<title>Node1&#45;&gt;Node2</title>
<path fill="none" stroke="#191970" d="M1464.9803,-302.3733C1443.7628,-293.3032 1411.7724,-279.6279 1388.0231,-269.4755"/>
<polygon fill="#191970" stroke="#191970" points="1389.2967,-266.2136 1378.7258,-265.5011 1386.5452,-272.6502 1389.2967,-266.2136"/>
</g>
<!-- Node33 -->
<g id="node34" class="node">
<title>Node33</title>
<polygon fill="#ffffff" stroke="#bfbfbf" points="1417,-246.5 1417,-265.5 1470,-265.5 1470,-246.5 1417,-246.5"/>
<text text-anchor="middle" x="1443.5" y="-253.5" font-family="Helvetica,sans-Serif" font-size="10.00" fill="#000000">cstddef</text>
</g>
<!-- Node1&#45;&gt;Node33 -->
<g id="edge33" class="edge">
<title>Node1&#45;&gt;Node33</title>
<path fill="none" stroke="#191970" d="M1479.8358,-302.2455C1473.6527,-294.3761 1464.7937,-283.101 1457.3711,-273.6542"/>
<polygon fill="#191970" stroke="#191970" points="1460.0068,-271.3435 1451.0764,-265.6427 1454.5025,-275.6683 1460.0068,-271.3435"/>
</g>
<!-- Node34 -->
<g id="node35" class="node">
<title>Node34</title>
<polygon fill="#ffffff" stroke="#bfbfbf" points="1488.5,-246.5 1488.5,-265.5 1574.5,-265.5 1574.5,-246.5 1488.5,-246.5"/>
<text text-anchor="middle" x="1531.5" y="-253.5" font-family="Helvetica,sans-Serif" font-size="10.00" fill="#000000">unordered_set</text>
</g>
<!-- Node1&#45;&gt;Node34 -->
<g id="edge34" class="edge">
<title>Node1&#45;&gt;Node34</title>
<path fill="none" stroke="#191970" d="M1495.1642,-302.2455C1501.3473,-294.3761 1510.2063,-283.101 1517.6289,-273.6542"/>
<polygon fill="#191970" stroke="#191970" points="1520.4975,-275.6683 1523.9236,-265.6427 1514.9932,-271.3435 1520.4975,-275.6683"/>
</g>
<!-- Node35 -->
<g id="node36" class="node">
<title>Node35</title>
<polygon fill="#ffffff" stroke="#bfbfbf" points="1593,-246.5 1593,-265.5 1638,-265.5 1638,-246.5 1593,-246.5"/>
<text text-anchor="middle" x="1615.5" y="-253.5" font-family="Helvetica,sans-Serif" font-size="10.00" fill="#000000">utility</text>
</g>
<!-- Node1&#45;&gt;Node35 -->
<g id="edge35" class="edge">
<title>Node1&#45;&gt;Node35</title>
<path fill="none" stroke="#191970" d="M1509.504,-302.3733C1530.1435,-293.3435 1561.2158,-279.7494 1584.3889,-269.6111"/>
<polygon fill="#191970" stroke="#191970" points="1586.0245,-272.7159 1593.7831,-265.5011 1583.2187,-266.3028 1586.0245,-272.7159"/>
</g>
<!-- Node3 -->
<g id="node4" class="node">
<title>Node3</title>
<g id="a_node4"><a xlink:href="_foliated__triangulation_8hpp.html" target="_top" xlink:title="Create foliated spherical triangulations. ">
<polygon fill="#ffffff" stroke="#000000" points="1284.5,-190.5 1284.5,-209.5 1428.5,-209.5 1428.5,-190.5 1284.5,-190.5"/>
<text text-anchor="middle" x="1356.5" y="-197.5" font-family="Helvetica,sans-Serif" font-size="10.00" fill="#000000">Foliated_triangulation.hpp</text>
</a>
</g>
</g>
<!-- Node2&#45;&gt;Node3 -->
<g id="edge3" class="edge">
<title>Node2&#45;&gt;Node3</title>
<path fill="none" stroke="#191970" d="M1356.5,-246.2455C1356.5,-238.9382 1356.5,-228.6944 1356.5,-219.7046"/>
<polygon fill="#191970" stroke="#191970" points="1360.0001,-219.6426 1356.5,-209.6427 1353.0001,-219.6427 1360.0001,-219.6426"/>
</g>
<!-- Node4 -->
<g id="node5" class="node">
<title>Node4</title>
<g id="a_node5"><a xlink:href="_utilities_8hpp.html" target="_top" xlink:title="Utility functions. ">
<polygon fill="#ffffff" stroke="#000000" points="766.5,-123.5 766.5,-142.5 842.5,-142.5 842.5,-123.5 766.5,-123.5"/>
<text text-anchor="middle" x="804.5" y="-130.5" font-family="Helvetica,sans-Serif" font-size="10.00" fill="#000000">Utilities.hpp</text>
</a>
</g>
</g>
<!-- Node3&#45;&gt;Node4 -->
<g id="edge4" class="edge">
<title>Node3&#45;&gt;Node4</title>
<path fill="none" stroke="#191970" d="M1284.0527,-196.3365C1164.5147,-189.7998 931.2482,-174.8324 851.5,-154 844.9175,-152.2805 838.0938,-149.7267 831.7544,-146.9868"/>
<polygon fill="#191970" stroke="#191970" points="832.8418,-143.6339 822.2954,-142.6213 829.9084,-149.9897 832.8418,-143.6339"/>
</g>
<!-- Node26 -->
<g id="node27" class="node">
<title>Node26</title>
<polygon fill="#ffffff" stroke="#bfbfbf" points="860.5,-123.5 860.5,-142.5 1040.5,-142.5 1040.5,-123.5 860.5,-123.5"/>
<text text-anchor="middle" x="950.5" y="-130.5" font-family="Helvetica,sans-Serif" font-size="10.00" fill="#000000">CGAL/Delaunay_triangulation_3.h</text>
</g>
<!-- Node3&#45;&gt;Node26 -->
<g id="edge26" class="edge">
<title>Node3&#45;&gt;Node26</title>
<path fill="none" stroke="#191970" d="M1284.6527,-190.4825C1222.3075,-181.9261 1129.7134,-168.5033 1049.5,-154 1034.3284,-151.2568 1017.9258,-147.9269 1002.9186,-144.7347"/>
<polygon fill="#191970" stroke="#191970" points="1003.2966,-141.236 992.7843,-142.5556 1001.825,-148.0796 1003.2966,-141.236"/>
</g>
<!-- Node27 -->
<g id="node28" class="node">
<title>Node27</title>
<polygon fill="#ffffff" stroke="#bfbfbf" points="1059,-112.5 1059,-153.5 1188,-153.5 1188,-112.5 1059,-112.5"/>
<text text-anchor="start" x="1067" y="-141.5" font-family="Helvetica,sans-Serif" font-size="10.00" fill="#000000">CGAL/Exact_predicates</text>
<text text-anchor="start" x="1067" y="-130.5" font-family="Helvetica,sans-Serif" font-size="10.00" fill="#000000">_inexact_constructions</text>
<text text-anchor="middle" x="1123.5" y="-119.5" font-family="Helvetica,sans-Serif" font-size="10.00" fill="#000000">_kernel.h</text>
</g>
<!-- Node3&#45;&gt;Node27 -->
<g id="edge27" class="edge">
<title>Node3&#45;&gt;Node27</title>
<path fill="none" stroke="#191970" d="M1323.1168,-190.4005C1290.5464,-181.0348 1239.8907,-166.4686 1197.7596,-154.3536"/>
<polygon fill="#191970" stroke="#191970" points="1198.6598,-150.9707 1188.082,-151.5708 1196.7253,-157.6981 1198.6598,-150.9707"/>
</g>
<!-- Node28 -->
<g id="node29" class="node">
<title>Node28</title>
<polygon fill="#ffffff" stroke="#bfbfbf" points="1206.5,-118 1206.5,-148 1344.5,-148 1344.5,-118 1206.5,-118"/>
<text text-anchor="start" x="1214.5" y="-136" font-family="Helvetica,sans-Serif" font-size="10.00" fill="#000000">CGAL/Triangulation</text>
<text text-anchor="middle" x="1275.5" y="-125" font-family="Helvetica,sans-Serif" font-size="10.00" fill="#000000">_cell_base_with_info_3.h</text>
</g>
<!-- Node3&#45;&gt;Node28 -->
<g id="edge28" class="edge">
<title>Node3&#45;&gt;Node28</title>
<path fill="none" stroke="#191970" d="M1344.8947,-190.4005C1333.6004,-181.0583 1316.0505,-166.5417 1301.426,-154.445"/>
<polygon fill="#191970" stroke="#191970" points="1303.597,-151.6986 1293.6606,-148.0218 1299.1354,-157.0925 1303.597,-151.6986"/>
</g>
<!-- Node29 -->
<g id="node30" class="node">
<title>Node29</title>
<polygon fill="#ffffff" stroke="#bfbfbf" points="1362.5,-118 1362.5,-148 1514.5,-148 1514.5,-118 1362.5,-118"/>
<text text-anchor="start" x="1370.5" y="-136" font-family="Helvetica,sans-Serif" font-size="10.00" fill="#000000">CGAL/Triangulation</text>
<text text-anchor="middle" x="1438.5" y="-125" font-family="Helvetica,sans-Serif" font-size="10.00" fill="#000000">_vertex_base_with_info_3.h</text>
</g>
<!-- Node3&#45;&gt;Node29 -->
<g id="edge29" class="edge">
<title>Node3&#45;&gt;Node29</title>
<path fill="none" stroke="#191970" d="M1368.2486,-190.4005C1379.6823,-181.0583 1397.4489,-166.5417 1412.2539,-154.445"/>
<polygon fill="#191970" stroke="#191970" points="1414.5859,-157.0594 1420.1152,-148.0218 1410.1568,-151.6387 1414.5859,-157.0594"/>
</g>
<!-- Node30 -->
<g id="node31" class="node">
<title>Node30</title>
<polygon fill="#ffffff" stroke="#bfbfbf" points="1533,-123.5 1533,-142.5 1682,-142.5 1682,-123.5 1533,-123.5"/>
<text text-anchor="middle" x="1607.5" y="-130.5" font-family="Helvetica,sans-Serif" font-size="10.00" fill="#000000">CGAL/point_generators_3.h</text>
</g>
<!-- Node3&#45;&gt;Node30 -->
<g id="edge30" class="edge">
<title>Node3&#45;&gt;Node30</title>
<path fill="none" stroke="#191970" d="M1392.1956,-190.4717C1436.7664,-178.5743 1513.0719,-158.2059 1561.8508,-145.1852"/>
<polygon fill="#191970" stroke="#191970" points="1562.7621,-148.5646 1571.5211,-142.6039 1560.9567,-141.8014 1562.7621,-148.5646"/>
</g>
<!-- Node31 -->
<g id="node32" class="node">
<title>Node31</title>
<polygon fill="#ffffff" stroke="#bfbfbf" points="1700.5,-123.5 1700.5,-142.5 1852.5,-142.5 1852.5,-123.5 1700.5,-123.5"/>
<text text-anchor="middle" x="1776.5" y="-130.5" font-family="Helvetica,sans-Serif" font-size="10.00" fill="#000000">CGAL/squared_distance_3.h</text>
</g>
<!-- Node3&#45;&gt;Node31 -->
<g id="edge31" class="edge">
<title>Node3&#45;&gt;Node31</title>
<path fill="none" stroke="#191970" d="M1428.7426,-192.3165C1496.8331,-184.5471 1601.556,-171.2359 1691.5,-154 1704.5757,-151.4943 1718.6538,-148.245 1731.5178,-145.0543"/>
<polygon fill="#191970" stroke="#191970" points="1732.6945,-148.367 1741.5319,-142.5232 1730.9791,-141.5804 1732.6945,-148.367"/>
</g>
<!-- Node32 -->
<g id="node33" class="node">
<title>Node32</title>
<polygon fill="#ffffff" stroke="#bfbfbf" points="1870.5,-123.5 1870.5,-142.5 1926.5,-142.5 1926.5,-123.5 1870.5,-123.5"/>
<text text-anchor="middle" x="1898.5" y="-130.5" font-family="Helvetica,sans-Serif" font-size="10.00" fill="#000000">optional</text>
</g>
<!-- Node3&#45;&gt;Node32 -->
<g id="edge32" class="edge">
<title>Node3&#45;&gt;Node32</title>
<path fill="none" stroke="#191970" d="M1428.7039,-197.1808C1548.4473,-191.8781 1782.7387,-178.6691 1861.5,-154 1866.3546,-152.4795 1871.2753,-150.257 1875.875,-147.8205"/>
<polygon fill="#191970" stroke="#191970" points="1877.8497,-150.7212 1884.7419,-142.6745 1874.3361,-144.6669 1877.8497,-150.7212"/>
</g>
<!-- Node5 -->
<g id="node6" class="node">
<title>Node5</title>
<polygon fill="#ffffff" stroke="#bfbfbf" points="0,-56.5 0,-75.5 83,-75.5 83,-56.5 0,-56.5"/>
<text text-anchor="middle" x="41.5" y="-63.5" font-family="Helvetica,sans-Serif" font-size="10.00" fill="#000000">CGAL/Timer.h</text>
</g>
<!-- Node4&#45;&gt;Node5 -->
<g id="edge5" class="edge">
<title>Node4&#45;&gt;Node5</title>
<path fill="none" stroke="#191970" d="M766.1293,-131.4651C660.4582,-126.9114 356.1904,-111.6014 93.3038,-75.9592"/>
<polygon fill="#191970" stroke="#191970" points="93.5661,-72.4625 83.1838,-74.5742 92.6169,-79.3979 93.5661,-72.4625"/>
</g>
<!-- Node6 -->
<g id="node7" class="node">
<title>Node6</title>
<polygon fill="#ffffff" stroke="#bfbfbf" points="101.5,-56.5 101.5,-75.5 189.5,-75.5 189.5,-56.5 101.5,-56.5"/>
<text text-anchor="middle" x="145.5" y="-63.5" font-family="Helvetica,sans-Serif" font-size="10.00" fill="#000000">sys/utsname.h</text>
</g>
<!-- Node4&#45;&gt;Node6 -->
<g id="edge6" class="edge">
<title>Node4&#45;&gt;Node6</title>
<path fill="none" stroke="#191970" d="M766.4215,-130.6498C672.1157,-124.5663 420.0074,-106.6994 199.8246,-76.077"/>
<polygon fill="#191970" stroke="#191970" points="200.085,-72.5793 189.6957,-74.656 199.1124,-79.5114 200.085,-72.5793"/>
</g>
<!-- Node7 -->
<g id="node8" class="node">
<title>Node7</title>
<polygon fill="#ffffff" stroke="#bfbfbf" points="208,-56.5 208,-75.5 325,-75.5 325,-56.5 208,-56.5"/>
<text text-anchor="middle" x="266.5" y="-63.5" font-family="Helvetica,sans-Serif" font-size="10.00" fill="#000000">boost/date_time.hpp</text>
</g>
<!-- Node4&#45;&gt;Node7 -->
<g id="edge7" class="edge">
<title>Node4&#45;&gt;Node7</title>
<path fill="none" stroke="#191970" d="M766.3822,-128.7087C687.8753,-119.7988 502.2222,-98.3604 335.0589,-76.0471"/>
<polygon fill="#191970" stroke="#191970" points="335.4682,-72.5707 325.0921,-74.7126 334.5392,-79.5088 335.4682,-72.5707"/>
</g>
<!-- Node8 -->
<g id="node9" class="node">
<title>Node8</title>
<polygon fill="#ffffff" stroke="#bfbfbf" points="343.5,-56.5 343.5,-75.5 407.5,-75.5 407.5,-56.5 343.5,-56.5"/>
<text text-anchor="middle" x="375.5" y="-63.5" font-family="Helvetica,sans-Serif" font-size="10.00" fill="#000000">algorithm</text>
</g>
<!-- Node4&#45;&gt;Node8 -->
<g id="edge8" class="edge">
<title>Node4&#45;&gt;Node8</title>
<path fill="none" stroke="#191970" d="M766.2989,-128.5894C698.2008,-120.4673 551.2097,-101.7623 417.6655,-76.0867"/>
<polygon fill="#191970" stroke="#191970" points="418.15,-72.6156 407.6664,-74.1461 416.8163,-79.4873 418.15,-72.6156"/>
</g>
<!-- Node9 -->
<g id="node10" class="node">
<title>Node9</title>
<polygon fill="#ffffff" stroke="#bfbfbf" points="425.5,-56.5 425.5,-75.5 477.5,-75.5 477.5,-56.5 425.5,-56.5"/>
<text text-anchor="middle" x="451.5" y="-63.5" font-family="Helvetica,sans-Serif" font-size="10.00" fill="#000000">cassert</text>
</g>
<!-- Node4&#45;&gt;Node9 -->
<g id="edge9" class="edge">
<title>Node4&#45;&gt;Node9</title>
<path fill="none" stroke="#191970" d="M766.065,-127.394C707.8412,-118.6225 593.6719,-100.3342 487.6982,-76.1081"/>
<polygon fill="#191970" stroke="#191970" points="488.3303,-72.662 477.7991,-73.8219 486.755,-79.4825 488.3303,-72.662"/>
</g>
<!-- Node10 -->
<g id="node11" class="node">
<title>Node10</title>
<polygon fill="#ffffff" stroke="#bfbfbf" points="496,-56.5 496,-75.5 545,-75.5 545,-56.5 496,-56.5"/>
<text text-anchor="middle" x="520.5" y="-63.5" font-family="Helvetica,sans-Serif" font-size="10.00" fill="#000000">cstdlib</text>
</g>
<!-- Node4&#45;&gt;Node10 -->
<g id="edge10" class="edge">
<title>Node4&#45;&gt;Node10</title>
<path fill="none" stroke="#191970" d="M766.4499,-125.2375C719.0249,-115.3696 635.3144,-97.3202 555.0775,-76.3024"/>
<polygon fill="#191970" stroke="#191970" points="555.8745,-72.893 545.3124,-73.7249 554.088,-79.6612 555.8745,-72.893"/>
</g>
<!-- Node11 -->
<g id="node12" class="node">
<title>Node11</title>
<polygon fill="#ffffff" stroke="#bfbfbf" points="563,-56.5 563,-75.5 618,-75.5 618,-56.5 563,-56.5"/>
<text text-anchor="middle" x="590.5" y="-63.5" font-family="Helvetica,sans-Serif" font-size="10.00" fill="#000000">fstream</text>
</g>
<!-- Node4&#45;&gt;Node11 -->
<g id="edge11" class="edge">
<title>Node4&#45;&gt;Node11</title>
<path fill="none" stroke="#191970" d="M773.839,-123.4005C735.2955,-111.3332 669.1764,-90.6323 627.759,-77.6652"/>
<polygon fill="#191970" stroke="#191970" points="628.6362,-74.2724 618.0472,-74.6246 626.5446,-80.9526 628.6362,-74.2724"/>
</g>
<!-- Node12 -->
<g id="node13" class="node">
<title>Node12</title>
<polygon fill="#ffffff" stroke="#bfbfbf" points="636.5,-56.5 636.5,-75.5 684.5,-75.5 684.5,-56.5 636.5,-56.5"/>
<text text-anchor="middle" x="660.5" y="-63.5" font-family="Helvetica,sans-Serif" font-size="10.00" fill="#000000">gsl/gsl</text>
</g>
<!-- Node4&#45;&gt;Node12 -->
<g id="edge12" class="edge">
<title>Node4&#45;&gt;Node12</title>
<path fill="none" stroke="#191970" d="M783.8683,-123.4005C759.3811,-112.0072 718.3532,-92.9178 690.3907,-79.9075"/>
<polygon fill="#191970" stroke="#191970" points="691.6366,-76.6269 681.0934,-75.5817 688.6836,-82.9736 691.6366,-76.6269"/>
</g>
<!-- Node13 -->
<g id="node14" class="node">
<title>Node13</title>
<polygon fill="#ffffff" stroke="#bfbfbf" points="702.5,-56.5 702.5,-75.5 762.5,-75.5 762.5,-56.5 702.5,-56.5"/>
<text text-anchor="middle" x="732.5" y="-63.5" font-family="Helvetica,sans-Serif" font-size="10.00" fill="#000000">iostream</text>
</g>
<!-- Node4&#45;&gt;Node13 -->
<g id="edge13" class="edge">
<title>Node4&#45;&gt;Node13</title>
<path fill="none" stroke="#191970" d="M794.1842,-123.4005C782.7425,-112.7535 764.0785,-95.3856 750.2727,-82.5385"/>
<polygon fill="#191970" stroke="#191970" points="752.5017,-79.8317 742.7967,-75.5817 747.7331,-84.9562 752.5017,-79.8317"/>
</g>
<!-- Node14 -->
<g id="node15" class="node">
<title>Node14</title>
<polygon fill="#ffffff" stroke="#bfbfbf" points="780.5,-56.5 780.5,-75.5 828.5,-75.5 828.5,-56.5 780.5,-56.5"/>
<text text-anchor="middle" x="804.5" y="-63.5" font-family="Helvetica,sans-Serif" font-size="10.00" fill="#000000">mutex</text>
</g>
<!-- Node4&#45;&gt;Node14 -->
<g id="edge14" class="edge">
<title>Node4&#45;&gt;Node14</title>
<path fill="none" stroke="#191970" d="M804.5,-123.4005C804.5,-113.649 804.5,-98.2597 804.5,-85.8695"/>
<polygon fill="#191970" stroke="#191970" points="808.0001,-85.5816 804.5,-75.5817 801.0001,-85.5817 808.0001,-85.5816"/>
</g>
<!-- Node15 -->
<g id="node16" class="node">
<title>Node15</title>
<polygon fill="#ffffff" stroke="#bfbfbf" points="846.5,-56.5 846.5,-75.5 900.5,-75.5 900.5,-56.5 846.5,-56.5"/>
<text text-anchor="middle" x="873.5" y="-63.5" font-family="Helvetica,sans-Serif" font-size="10.00" fill="#000000">random</text>
</g>
<!-- Node4&#45;&gt;Node15 -->
<g id="edge15" class="edge">
<title>Node4&#45;&gt;Node15</title>
<path fill="none" stroke="#191970" d="M814.386,-123.4005C825.2484,-112.853 842.9035,-95.7096 856.0957,-82.8998"/>
<polygon fill="#191970" stroke="#191970" points="858.8962,-85.059 863.6323,-75.5817 854.0198,-80.037 858.8962,-85.059"/>
</g>
<!-- Node16 -->
<g id="node17" class="node">
<title>Node16</title>
<polygon fill="#ffffff" stroke="#bfbfbf" points="919,-56.5 919,-75.5 984,-75.5 984,-56.5 919,-56.5"/>
<text text-anchor="middle" x="951.5" y="-63.5" font-family="Helvetica,sans-Serif" font-size="10.00" fill="#000000">stdexcept</text>
</g>
<!-- Node4&#45;&gt;Node16 -->
<g id="edge16" class="edge">
<title>Node4&#45;&gt;Node16</title>
<path fill="none" stroke="#191970" d="M825.5615,-123.4005C850.6681,-111.9574 892.8077,-92.7509 921.3598,-79.7374"/>
<polygon fill="#191970" stroke="#191970" points="922.8297,-82.9139 930.4776,-75.5817 919.9265,-76.5443 922.8297,-82.9139"/>
</g>
<!-- Node17 -->
<g id="node18" class="node">
<title>Node17</title>
<polygon fill="#ffffff" stroke="#bfbfbf" points="1002.5,-56.5 1002.5,-75.5 1046.5,-75.5 1046.5,-56.5 1002.5,-56.5"/>
<text text-anchor="middle" x="1024.5" y="-63.5" font-family="Helvetica,sans-Serif" font-size="10.00" fill="#000000">string</text>
</g>
<!-- Node4&#45;&gt;Node17 -->
<g id="edge17" class="edge">
<title>Node4&#45;&gt;Node17</title>
<path fill="none" stroke="#191970" d="M823.8652,-123.4543C832.2326,-119.5648 842.2159,-115.2329 851.5,-112 912.5797,-90.7308 930.2785,-93.6519 992.5,-76 992.598,-75.9722 992.6961,-75.9443 992.7944,-75.9163"/>
<polygon fill="#191970" stroke="#191970" points="993.5687,-79.3373 1002.1655,-73.1449 991.5835,-72.6247 993.5687,-79.3373"/>
</g>
<!-- Node18 -->
<g id="node19" class="node">
<title>Node18</title>
<polygon fill="#ffffff" stroke="#bfbfbf" points="1065,-56.5 1065,-75.5 1130,-75.5 1130,-56.5 1065,-56.5"/>
<text text-anchor="middle" x="1097.5" y="-63.5" font-family="Helvetica,sans-Serif" font-size="10.00" fill="#000000">typeindex</text>
</g>
<!-- Node4&#45;&gt;Node18 -->
<g id="edge18" class="edge">
<title>Node4&#45;&gt;Node18</title>
<path fill="none" stroke="#191970" d="M823.2992,-123.326C831.7375,-119.3197 841.9299,-114.9335 851.5,-112 936.5164,-85.9401 963.5076,-94.0535 1055.0196,-75.9641"/>
<polygon fill="#191970" stroke="#191970" points="1055.8787,-79.3612 1064.983,-73.9425 1054.4867,-72.501 1055.8787,-79.3612"/>
</g>
<!-- Node19 -->
<g id="node20" class="node">
<title>Node19</title>
<polygon fill="#ffffff" stroke="#bfbfbf" points="1148,-56.5 1148,-75.5 1207,-75.5 1207,-56.5 1148,-56.5"/>
<text text-anchor="middle" x="1177.5" y="-63.5" font-family="Helvetica,sans-Serif" font-size="10.00" fill="#000000">date/tz.h</text>
</g>
<!-- Node4&#45;&gt;Node19 -->
<g id="edge19" class="edge">
<title>Node4&#45;&gt;Node19</title>
<path fill="none" stroke="#191970" d="M822.7828,-123.3152C831.294,-119.2063 841.6875,-114.742 851.5,-112 972.1683,-78.2803 1010.2778,-98.9014 1137.6377,-75.9201"/>
<polygon fill="#191970" stroke="#191970" points="1138.5855,-79.3038 1147.7764,-74.0334 1137.3049,-72.422 1138.5855,-79.3038"/>
</g>
<!-- Node20 -->
<g id="node21" class="node">
<title>Node20</title>
<polygon fill="#ffffff" stroke="#bfbfbf" points="1225.5,-56.5 1225.5,-75.5 1323.5,-75.5 1323.5,-56.5 1225.5,-56.5"/>
<text text-anchor="middle" x="1274.5" y="-63.5" font-family="Helvetica,sans-Serif" font-size="10.00" fill="#000000">pcg_random.hpp</text>
</g>
<!-- Node4&#45;&gt;Node20 -->
<g id="edge20" class="edge">
<title>Node4&#45;&gt;Node20</title>
<path fill="none" stroke="#191970" d="M822.3046,-123.4135C830.8901,-119.2201 841.4797,-114.6591 851.5,-112 1005.4063,-71.1583 1052.4507,-96.5057 1214.9243,-75.9562"/>
<polygon fill="#191970" stroke="#191970" points="1215.8205,-79.369 1225.2834,-74.6041 1214.9145,-72.4279 1215.8205,-79.369"/>
</g>
<!-- Node21 -->
<g id="node22" class="node">
<title>Node21</title>
<polygon fill="#ffffff" stroke="#bfbfbf" points="1342,-56.5 1342,-75.5 1421,-75.5 1421,-56.5 1342,-56.5"/>
<text text-anchor="middle" x="1381.5" y="-63.5" font-family="Helvetica,sans-Serif" font-size="10.00" fill="#000000">fmt/format.h</text>
</g>
<!-- Node4&#45;&gt;Node21 -->
<g id="edge21" class="edge">
<title>Node4&#45;&gt;Node21</title>
<path fill="none" stroke="#191970" d="M822.2768,-123.306C830.8562,-119.0891 841.4487,-114.5393 851.5,-112 1056.1997,-60.2871 1118.2879,-104.1224 1332.0299,-75.8643"/>
<polygon fill="#191970" stroke="#191970" points="1332.5564,-79.325 1341.9937,-74.5097 1331.6133,-72.3888 1332.5564,-79.325"/>
</g>
<!-- Node22 -->
<g id="node23" class="node">
<title>Node22</title>
<polygon fill="#ffffff" stroke="#bfbfbf" points="1439.5,-56.5 1439.5,-75.5 1525.5,-75.5 1525.5,-56.5 1439.5,-56.5"/>
<text text-anchor="middle" x="1482.5" y="-63.5" font-family="Helvetica,sans-Serif" font-size="10.00" fill="#000000">fmt/ostream.h</text>
</g>
<!-- Node4&#45;&gt;Node22 -->
<g id="edge22" class="edge">
<title>Node4&#45;&gt;Node22</title>
<path fill="none" stroke="#191970" d="M821.8209,-123.4681C830.4736,-119.1776 841.2594,-114.5191 851.5,-112 1101.4359,-50.5185 1174.1006,-107.9224 1429.5,-76 1429.6016,-75.9873 1429.7033,-75.9745 1429.8052,-75.9617"/>
<polygon fill="#191970" stroke="#191970" points="1430.0669,-79.4599 1439.4719,-74.5816 1429.0775,-72.5301 1430.0669,-79.4599"/>
</g>
<!-- Node23 -->
<g id="node24" class="node">
<title>Node23</title>
<g id="a_node24"><a xlink:href="_settings_8hpp.html" target="_top" xlink:title="Global integer and precision settings. ">
<polygon fill="#ffffff" stroke="#000000" points="1544,-56.5 1544,-75.5 1621,-75.5 1621,-56.5 1544,-56.5"/>
<text text-anchor="middle" x="1582.5" y="-63.5" font-family="Helvetica,sans-Serif" font-size="10.00" fill="#000000">Settings.hpp</text>
</a>
</g>
</g>
<!-- Node4&#45;&gt;Node23 -->
<g id="edge23" class="edge">
<title>Node4&#45;&gt;Node23</title>
<path fill="none" stroke="#191970" d="M821.8105,-123.4255C830.4608,-119.1249 841.2475,-114.4702 851.5,-112 1143.846,-41.5638 1231.1774,-113.5329 1533.8761,-75.8553"/>
<polygon fill="#191970" stroke="#191970" points="1534.3364,-79.325 1543.8137,-74.5888 1533.4514,-72.3812 1534.3364,-79.325"/>
</g>
<!-- Node24 -->
<g id="node25" class="node">
<title>Node24</title>
<polygon fill="#ffffff" stroke="#bfbfbf" points="1496.5,-.5 1496.5,-19.5 1582.5,-19.5 1582.5,-.5 1496.5,-.5"/>
<text text-anchor="middle" x="1539.5" y="-7.5" font-family="Helvetica,sans-Serif" font-size="10.00" fill="#000000">CGAL/Gmpzf.h</text>
</g>
<!-- Node23&#45;&gt;Node24 -->
<g id="edge24" class="edge">
<title>Node23&#45;&gt;Node24</title>
<path fill="none" stroke="#191970" d="M1575.01,-56.2455C1568.9674,-48.3761 1560.3097,-37.101 1553.0559,-27.6542"/>
<polygon fill="#191970" stroke="#191970" points="1555.7705,-25.4426 1546.9042,-19.6427 1550.2185,-29.7058 1555.7705,-25.4426"/>
</g>
<!-- Node25 -->
<g id="node26" class="node">
<title>Node25</title>
<polygon fill="#ffffff" stroke="#bfbfbf" points="1600.5,-.5 1600.5,-19.5 1650.5,-19.5 1650.5,-.5 1600.5,-.5"/>
<text text-anchor="middle" x="1625.5" y="-7.5" font-family="Helvetica,sans-Serif" font-size="10.00" fill="#000000">cstdint</text>
</g>
<!-- Node23&#45;&gt;Node25 -->
<g id="edge25" class="edge">
<title>Node23&#45;&gt;Node25</title>
<path fill="none" stroke="#191970" d="M1589.99,-56.2455C1596.0326,-48.3761 1604.6903,-37.101 1611.9441,-27.6542"/>
<polygon fill="#191970" stroke="#191970" points="1614.7815,-29.7058 1618.0958,-19.6427 1609.2295,-25.4426 1614.7815,-29.7058"/>
</g>
</g>
</svg>
        <g id="navigator" transform="translate(0 0)" fill="#404254">
                <rect fill="#f2f5e9" fill-opacity="0.5" stroke="#606060" stroke-width=".5" x="0" y="0" width="60" height="60"/>
                <use id="zoomplus" xlink:href="#zoomPlus" x="17" y="9" onmousedown="handleZoom(evt,'in')"/>
                <use id="zoomminus" xlink:href="#zoomMin" x="42" y="9" onmousedown="handleZoom(evt,'out')"/>
                <use id="reset" xlink:href="#resetDef" x="30" y="36" onmousedown="handleReset()"/>
                <g id="arrowUp" xlink:href="#dirArrow" transform="translate(30 24)" onmousedown="handlePan(0,-1)">
                  <use xlink:href="#rim" fill="#404040">
                        <set attributeName="fill" to="#808080" begin="arrowUp.mouseover" end="arrowUp.mouseout"/>
                  </use>
                  <path fill="none" stroke="white" stroke-width="1.5" d="M0,-3.0v7 M-2.5,-0.5L0,-3.0L2.5,-0.5"/>
                </g>
                <g id="arrowRight" xlink:href="#dirArrow" transform="rotate(90) translate(36 -43)" onmousedown="handlePan(1,0)">
                  <use xlink:href="#rim" fill="#404040">
                        <set attributeName="fill" to="#808080" begin="arrowRight.mouseover" end="arrowRight.mouseout"/>
                  </use>
                  <path fill="none" stroke="white" stroke-width="1.5" d="M0,-3.0v7 M-2.5,-0.5L0,-3.0L2.5,-0.5"/>
                </g>
                <g id="arrowDown" xlink:href="#dirArrow" transform="rotate(180) translate(-30 -48)" onmousedown="handlePan(0,1)">
                  <use xlink:href="#rim" fill="#404040">
                        <set attributeName="fill" to="#808080" begin="arrowDown.mouseover" end="arrowDown.mouseout"/>
                  </use>
                  <path fill="none" stroke="white" stroke-width="1.5" d="M0,-3.0v7 M-2.5,-0.5L0,-3.0L2.5,-0.5"/>
                </g>
                <g id="arrowLeft" xlink:href="#dirArrow" transform="rotate(270) translate(-36 17)" onmousedown="handlePan(-1,0)">
                  <use xlink:href="#rim" fill="#404040">
                        <set attributeName="fill" to="#808080" begin="arrowLeft.mouseover" end="arrowLeft.mouseout"/>
                  </use>
                  <path fill="none" stroke="white" stroke-width="1.5" d="M0,-3.0v7 M-2.5,-0.5L0,-3.0L2.5,-0.5"/>
                </g>
        </g>
        <svg viewBox="0 0 15 15" width="100%" height="30px" preserveAspectRatio="xMaxYMin meet">
         <g id="arrow_out" transform="scale(0.3 0.3)">
          <a xlink:href="_ergodic__moves__3_8hpp__incl_org.svg" target="_base">
           <rect id="button" ry="5" rx="5" y="6" x="6" height="38" width="38"
                fill="#f2f5e9" fill-opacity="0.5" stroke="#606060" stroke-width="1.0"/>
           <path id="arrow"
             d="M 11.500037,31.436501 C 11.940474,20.09759 22.043105,11.32322 32.158766,21.979434 L 37.068811,17.246167 C 37.068811,17.246167 37.088388,32 37.088388,32 L 22.160133,31.978069 C 22.160133,31.978069 26.997745,27.140456 26.997745,27.140456 C 18.528582,18.264221 13.291696,25.230495 11.500037,31.436501 z"
             style="fill:#404040;"/>
          </a>
         </g>
        </svg>
</svg>
