<?xml version="1.0" encoding="UTF-8" standalone="no"?>
<!DOCTYPE svg PUBLIC "-//W3C//DTD SVG 1.1//EN"
 "http://www.w3.org/Graphics/SVG/1.1/DTD/svg11.dtd">
<!-- Generated by graphviz version 2.43.0 (0)
 -->
<!-- Title: include/Ergodic_moves_3.hpp Pages: 1 -->
<svg width="955pt" height="225pt"
 viewBox="0.00 0.00 954.50 225.00" xmlns="http://www.w3.org/2000/svg" xmlns:xlink="http://www.w3.org/1999/xlink">
<g id="graph0" class="graph" transform="scale(1 1) rotate(0) translate(4 221)">
<title>include/Ergodic_moves_3.hpp</title>
<!-- Node1 -->
<g id="node1" class="node">
<title>Node1</title>
<g id="a_node1"><a xlink:title="Pachner moves on 2+1 dimensional foliated Delaunay triangulations.">
<polygon fill="#999999" stroke="#666666" points="678,-217 549,-217 549,-187 678,-187 678,-217"/>
<text text-anchor="start" x="557" y="-205" font-family="Helvetica,sans-Serif" font-size="10.00">include/Ergodic_moves</text>
<text text-anchor="middle" x="613.5" y="-194" font-family="Helvetica,sans-Serif" font-size="10.00">_3.hpp</text>
</a>
</g>
</g>
<!-- Node2 -->
<g id="node2" class="node">
<title>Node2</title>
<g id="a_node2"><a xlink:href="_move__command_8hpp.html" target="_top" xlink:title="Do ergodic moves using the Command pattern.">
<polygon fill="white" stroke="#666666" points="390,-145.5 233,-145.5 233,-126.5 390,-126.5 390,-145.5"/>
<text text-anchor="middle" x="311.5" y="-133.5" font-family="Helvetica,sans-Serif" font-size="10.00">include/Move_command.hpp</text>
</a>
</g>
</g>
<!-- Node1&#45;&gt;Node2 -->
<g id="edge1" class="edge">
<title>Node1&#45;&gt;Node2</title>
<path fill="none" stroke="#63b8ff" d="M538.67,-185.14C479.52,-172.61 399.25,-155.6 351.66,-145.51"/>
<polygon fill="#63b8ff" stroke="#63b8ff" points="538.21,-188.62 548.71,-187.27 539.66,-181.77 538.21,-188.62"/>
</g>
<!-- Node10 -->
<g id="node10" class="node">
<title>Node10</title>
<g id="a_node10"><a xlink:href="bistellar-flip_8cpp.html" target="_top" xlink:title="Tests and views bistellar flips.">
<polygon fill="white" stroke="#666666" points="521,-145.5 408,-145.5 408,-126.5 521,-126.5 521,-145.5"/>
<text text-anchor="middle" x="464.5" y="-133.5" font-family="Helvetica,sans-Serif" font-size="10.00">src/bistellar&#45;flip.cpp</text>
</a>
</g>
</g>
<!-- Node1&#45;&gt;Node10 -->
<g id="edge10" class="edge">
<title>Node1&#45;&gt;Node10</title>
<path fill="none" stroke="#63b8ff" d="M571.46,-182.94C542.91,-170.68 506.46,-155.02 484.33,-145.52"/>
<polygon fill="#63b8ff" stroke="#63b8ff" points="570.23,-186.22 580.8,-186.95 572.99,-179.79 570.23,-186.22"/>
</g>
<!-- Node11 -->
<g id="node11" class="node">
<title>Node11</title>
<g id="a_node11"><a xlink:href="_apply__move__test_8cpp.html" target="_top" xlink:title="Applying ergodic moves to manifolds.">
<polygon fill="white" stroke="#666666" points="688,-145.5 539,-145.5 539,-126.5 688,-126.5 688,-145.5"/>
<text text-anchor="middle" x="613.5" y="-133.5" font-family="Helvetica,sans-Serif" font-size="10.00">tests/Apply_move_test.cpp</text>
</a>
</g>
</g>
<!-- Node1&#45;&gt;Node11 -->
<g id="edge11" class="edge">
<title>Node1&#45;&gt;Node11</title>
<path fill="none" stroke="#63b8ff" d="M613.5,-176.6C613.5,-165.8 613.5,-153.78 613.5,-145.84"/>
<polygon fill="#63b8ff" stroke="#63b8ff" points="610,-176.8 613.5,-186.8 617,-176.8 610,-176.8"/>
</g>
<!-- Node12 -->
<g id="node12" class="node">
<title>Node12</title>
<g id="a_node12"><a xlink:href="_ergodic__moves__3__test_8cpp.html" target="_top" xlink:title="Tests for ergodic moves on foliated triangulations.">
<polygon fill="white" stroke="#666666" points="824.5,-151 706.5,-151 706.5,-121 824.5,-121 824.5,-151"/>
<text text-anchor="start" x="714.5" y="-139" font-family="Helvetica,sans-Serif" font-size="10.00">tests/Ergodic_moves</text>
<text text-anchor="middle" x="765.5" y="-128" font-family="Helvetica,sans-Serif" font-size="10.00">_3_test.cpp</text>
</a>
</g>
</g>
<!-- Node1&#45;&gt;Node12 -->
<g id="edge12" class="edge">
<title>Node1&#45;&gt;Node12</title>
<path fill="none" stroke="#63b8ff" d="M656.12,-183.05C680.2,-172.91 709.86,-160.43 732.22,-151.01"/>
<polygon fill="#63b8ff" stroke="#63b8ff" points="654.72,-179.85 646.86,-186.95 657.43,-186.3 654.72,-179.85"/>
</g>
<!-- Node13 -->
<g id="node13" class="node">
<title>Node13</title>
<g id="a_node13"><a xlink:href="_function__ref__test_8cpp.html" target="_top" xlink:title="Tests on function pointers, lambdas, and function_refs.">
<polygon fill="white" stroke="#666666" points="946.5,-151 842.5,-151 842.5,-121 946.5,-121 946.5,-151"/>
<text text-anchor="start" x="850.5" y="-139" font-family="Helvetica,sans-Serif" font-size="10.00">tests/Function_ref</text>
<text text-anchor="middle" x="894.5" y="-128" font-family="Helvetica,sans-Serif" font-size="10.00">_test.cpp</text>
</a>
</g>
</g>
<!-- Node1&#45;&gt;Node13 -->
<g id="edge13" class="edge">
<title>Node1&#45;&gt;Node13</title>
<path fill="none" stroke="#63b8ff" d="M685.42,-184.69C728.4,-174.94 784.08,-162.29 833.5,-151 836.36,-150.35 839.3,-149.68 842.26,-149"/>
<polygon fill="#63b8ff" stroke="#63b8ff" points="684.6,-181.29 675.62,-186.92 686.15,-188.12 684.6,-181.29"/>
</g>
<!-- Node3 -->
<g id="node3" class="node">
<title>Node3</title>
<g id="a_node3"><a xlink:href="_metropolis_8hpp.html" target="_top" xlink:title="Perform Metropolis&#45;Hastings algorithm on Delaunay Triangulations.">
<polygon fill="white" stroke="#666666" points="221.5,-79.5 93.5,-79.5 93.5,-60.5 221.5,-60.5 221.5,-79.5"/>
<text text-anchor="middle" x="157.5" y="-67.5" font-family="Helvetica,sans-Serif" font-size="10.00">include/Metropolis.hpp</text>
</a>
</g>
</g>
<!-- Node2&#45;&gt;Node3 -->
<g id="edge2" class="edge">
<title>Node2&#45;&gt;Node3</title>
<path fill="none" stroke="#63b8ff" d="M281.48,-122.52C251.13,-109.91 205.03,-90.75 178.43,-79.7"/>
<polygon fill="#63b8ff" stroke="#63b8ff" points="280.15,-125.76 290.73,-126.37 282.84,-119.3 280.15,-125.76"/>
</g>
<!-- Node7 -->
<g id="node7" class="node">
<title>Node7</title>
<g id="a_node7"><a xlink:href="_move__always_8hpp.html" target="_top" xlink:title="Randomly selects moves to always perform on triangulations.">
<polygon fill="white" stroke="#666666" points="383,-79.5 240,-79.5 240,-60.5 383,-60.5 383,-79.5"/>
<text text-anchor="middle" x="311.5" y="-67.5" font-family="Helvetica,sans-Serif" font-size="10.00">include/Move_always.hpp</text>
</a>
</g>
</g>
<!-- Node2&#45;&gt;Node7 -->
<g id="edge6" class="edge">
<title>Node2&#45;&gt;Node7</title>
<path fill="none" stroke="#63b8ff" d="M311.5,-116.08C311.5,-104.13 311.5,-89.22 311.5,-79.91"/>
<polygon fill="#63b8ff" stroke="#63b8ff" points="308,-116.37 311.5,-126.37 315,-116.37 308,-116.37"/>
</g>
<!-- Node9 -->
<g id="node9" class="node">
<title>Node9</title>
<g id="a_node9"><a xlink:href="_move__command__test_8cpp.html" target="_top" xlink:title="Tests of MoveCommand, that is, that moves are handled properly.">
<polygon fill="white" stroke="#666666" points="526,-85 401,-85 401,-55 526,-55 526,-85"/>
<text text-anchor="start" x="409" y="-73" font-family="Helvetica,sans-Serif" font-size="10.00">tests/Move_command</text>
<text text-anchor="middle" x="463.5" y="-62" font-family="Helvetica,sans-Serif" font-size="10.00">_test.cpp</text>
</a>
</g>
</g>
<!-- Node2&#45;&gt;Node9 -->
<g id="edge9" class="edge">
<title>Node2&#45;&gt;Node9</title>
<path fill="none" stroke="#63b8ff" d="M341.51,-122.36C367,-111.63 403.54,-96.25 429.98,-85.12"/>
<polygon fill="#63b8ff" stroke="#63b8ff" points="339.86,-119.26 332,-126.37 342.57,-125.71 339.86,-119.26"/>
</g>
<!-- Node4 -->
<g id="node4" class="node">
<title>Node4</title>
<g id="a_node4"><a xlink:href="cdt-opt_8cpp.html" target="_top" xlink:title="Outputs values to determine optimizations.">
<polygon fill="white" stroke="#666666" points="335,-19 246,-19 246,0 335,0 335,-19"/>
<text text-anchor="middle" x="290.5" y="-7" font-family="Helvetica,sans-Serif" font-size="10.00">src/cdt&#45;opt.cpp</text>
</a>
</g>
</g>
<!-- Node3&#45;&gt;Node4 -->
<g id="edge3" class="edge">
<title>Node3&#45;&gt;Node4</title>
<path fill="none" stroke="#63b8ff" d="M186.07,-56.43C211.75,-45.14 248.77,-28.86 271.14,-19.02"/>
<polygon fill="#63b8ff" stroke="#63b8ff" points="184.58,-53.26 176.84,-60.49 187.4,-59.67 184.58,-53.26"/>
</g>
<!-- Node5 -->
<g id="node5" class="node">
<title>Node5</title>
<g id="a_node5"><a xlink:href="cdt_8cpp.html" target="_top" xlink:title="The main executable.">
<polygon fill="white" stroke="#666666" points="69,-19 0,-19 0,0 69,0 69,-19"/>
<text text-anchor="middle" x="34.5" y="-7" font-family="Helvetica,sans-Serif" font-size="10.00">src/cdt.cpp</text>
</a>
</g>
</g>
<!-- Node3&#45;&gt;Node5 -->
<g id="edge4" class="edge">
<title>Node3&#45;&gt;Node5</title>
<path fill="none" stroke="#63b8ff" d="M130.45,-56.13C106.72,-44.85 72.91,-28.77 52.41,-19.02"/>
<polygon fill="#63b8ff" stroke="#63b8ff" points="129.08,-59.36 139.61,-60.49 132.09,-53.04 129.08,-59.36"/>
</g>
<!-- Node6 -->
<g id="node6" class="node">
<title>Node6</title>
<g id="a_node6"><a xlink:href="_metropolis__test_8cpp.html" target="_top" xlink:title="Tests for the Metropolis&#45;Hastings algorithm.">
<polygon fill="white" stroke="#666666" points="227.5,-19 87.5,-19 87.5,0 227.5,0 227.5,-19"/>
<text text-anchor="middle" x="157.5" y="-7" font-family="Helvetica,sans-Serif" font-size="10.00">tests/Metropolis_test.cpp</text>
</a>
</g>
</g>
<!-- Node3&#45;&gt;Node6 -->
<g id="edge5" class="edge">
<title>Node3&#45;&gt;Node6</title>
<path fill="none" stroke="#63b8ff" d="M157.5,-50.16C157.5,-39.74 157.5,-27.3 157.5,-19.17"/>
<polygon fill="#63b8ff" stroke="#63b8ff" points="154,-50.37 157.5,-60.37 161,-50.37 154,-50.37"/>
</g>
<!-- Node7&#45;&gt;Node4 -->
<g id="edge7" class="edge">
<title>Node7&#45;&gt;Node4</title>
<path fill="none" stroke="#63b8ff" d="M304.97,-50.82C301.19,-40.28 296.59,-27.48 293.61,-19.17"/>
<polygon fill="#63b8ff" stroke="#63b8ff" points="301.73,-52.14 308.4,-60.37 308.32,-49.77 301.73,-52.14"/>
</g>
<!-- Node8 -->
<g id="node8" class="node">
<title>Node8</title>
<g id="a_node8"><a xlink:href="_move__always__test_8cpp.html" target="_top" xlink:title="Tests for the Move Always algorithm.">
<polygon fill="white" stroke="#666666" points="508,-19 353,-19 353,0 508,0 508,-19"/>
<text text-anchor="middle" x="430.5" y="-7" font-family="Helvetica,sans-Serif" font-size="10.00">tests/Move_always_test.cpp</text>
</a>
</g>
</g>
<!-- Node7&#45;&gt;Node8 -->
<g id="edge8" class="edge">
<title>Node7&#45;&gt;Node8</title>
<path fill="none" stroke="#63b8ff" d="M337.98,-55.98C360.91,-44.71 393.43,-28.73 413.18,-19.02"/>
<polygon fill="#63b8ff" stroke="#63b8ff" points="336.23,-52.94 328.8,-60.49 339.32,-59.22 336.23,-52.94"/>
</g>
</g>
</svg>
