<?xml version="1.0" encoding="UTF-8" standalone="no"?>
<!DOCTYPE svg PUBLIC "-//W3C//DTD SVG 1.1//EN"
 "http://www.w3.org/Graphics/SVG/1.1/DTD/svg11.dtd">
<!-- Generated by graphviz version 2.43.0 (0)
 -->
<!-- Title: include/Foliated_triangulation.hpp Pages: 1 -->
<!--zoomable 218 -->
<svg id="main" version="1.1" xmlns="http://www.w3.org/2000/svg" xmlns:xlink="http://www.w3.org/1999/xlink" xml:space="preserve" onload="init(evt)">
<style type="text/css"><![CDATA[
.edge:hover path { stroke: red; }
.edge:hover polygon { stroke: red; fill: red; }
]]></style>
<script type="text/javascript"><![CDATA[
var edges = document.getElementsByTagName('g');
if (edges && edges.length) {
  for (var i=0;i<edges.length;i++) {
    if (edges[i].id.substr(0,4)=='edge') {
      edges[i].setAttribute('class','edge');
    }
  }
}
]]></script>
        <defs>
                <circle id="rim" cx="0" cy="0" r="7"/>
                <circle id="rim2" cx="0" cy="0" r="3.5"/>
                <g id="zoomPlus">
                        <use xlink:href="#rim" fill="#404040">
                                <set attributeName="fill" to="#808080" begin="zoomplus.mouseover" end="zoomplus.mouseout"/>
                        </use>
                        <path d="M-4,0h8M0,-4v8" fill="none" stroke="white" stroke-width="1.5" pointer-events="none"/>
                </g>
                <g id="zoomMin">
                        <use xlink:href="#rim" fill="#404040">
                                <set attributeName="fill" to="#808080" begin="zoomminus.mouseover" end="zoomminus.mouseout"/>
                        </use>
                        <path d="M-4,0h8" fill="none" stroke="white" stroke-width="1.5" pointer-events="none"/>
                </g>
                <g id="dirArrow">
                        <path fill="none" stroke="white" stroke-width="1.5" d="M0,-3.0v7 M-2.5,-0.5L0,-3.0L2.5,-0.5"/>
                </g>
               <g id="resetDef">
                       <use xlink:href="#rim2" fill="#404040">
                               <set attributeName="fill" to="#808080" begin="reset.mouseover" end="reset.mouseout"/>
                       </use>
               </g>
        </defs>

<script type="text/javascript">
var viewWidth = 2774;
var viewHeight = 218;
var sectionId = 'dynsection-0';
</script>
<script xlink:href="svgpan.js"/>
<svg id="graph" class="graph">
<g id="viewport">
<title>include/Foliated_triangulation.hpp</title>
<polygon fill="white" stroke="transparent" points="-4,4 -4,-214 2769.5,-214 2769.5,4 -4,4"/>
<!-- Node1 -->
<g id="node1" class="node">
<title>Node1</title>
<g id="a_node1"><a xlink:title="Create foliated spherical triangulations.">
<polygon fill="#bfbfbf" stroke="black" points="491,-190.5 491,-209.5 673,-209.5 673,-190.5 491,-190.5"/>
<text text-anchor="middle" x="582" y="-197.5" font-family="Helvetica,sans-Serif" font-size="10.00">include/Foliated_triangulation.hpp</text>
</a>
</g>
</g>
<!-- Node2 -->
<g id="node2" class="node">
<title>Node2</title>
<g id="a_node2"><a xlink:title=" ">
<polygon fill="white" stroke="#bfbfbf" points="438,-134.5 438,-153.5 498,-153.5 498,-134.5 438,-134.5"/>
<text text-anchor="middle" x="468" y="-141.5" font-family="Helvetica,sans-Serif" font-size="10.00">concepts</text>
</a>
</g>
</g>
<!-- Node1&#45;&gt;Node2 -->
<g id="edge1" class="edge">
<title>Node1&#45;&gt;Node2</title>
<path fill="none" stroke="midnightblue" d="M563.94,-190.44C545.43,-181.68 516.42,-167.94 495.14,-157.86"/>
<polygon fill="midnightblue" stroke="midnightblue" points="496.51,-154.63 485.98,-153.52 493.52,-160.96 496.51,-154.63"/>
</g>
<!-- Node3 -->
<g id="node3" class="node">
<title>Node3</title>
<g id="a_node3"><a xlink:href="_triangulation__traits_8hpp.html" target="_top" xlink:title="Traits class for particular uses of CGAL.">
<polygon fill="white" stroke="black" points="516.5,-134.5 516.5,-153.5 647.5,-153.5 647.5,-134.5 516.5,-134.5"/>
<text text-anchor="middle" x="582" y="-141.5" font-family="Helvetica,sans-Serif" font-size="10.00">Triangulation_traits.hpp</text>
</a>
</g>
</g>
<!-- Node1&#45;&gt;Node3 -->
<g id="edge2" class="edge">
<title>Node1&#45;&gt;Node3</title>
<path fill="none" stroke="midnightblue" d="M582,-190.08C582,-183.01 582,-172.86 582,-163.99"/>
<polygon fill="midnightblue" stroke="midnightblue" points="585.5,-163.75 582,-153.75 578.5,-163.75 585.5,-163.75"/>
</g>
<!-- Node12 -->
<g id="node12" class="node">
<title>Node12</title>
<g id="a_node12"><a xlink:href="_utilities_8hpp.html" target="_top" xlink:title="Utility functions.">
<polygon fill="white" stroke="black" points="1647,-134.5 1647,-153.5 1723,-153.5 1723,-134.5 1647,-134.5"/>
<text text-anchor="middle" x="1685" y="-141.5" font-family="Helvetica,sans-Serif" font-size="10.00">Utilities.hpp</text>
</a>
</g>
</g>
<!-- Node1&#45;&gt;Node12 -->
<g id="edge11" class="edge">
<title>Node1&#45;&gt;Node12</title>
<path fill="none" stroke="midnightblue" d="M673.2,-194.54C896.91,-183.58 1466.94,-155.68 1636.63,-147.37"/>
<polygon fill="midnightblue" stroke="midnightblue" points="1636.94,-150.86 1646.76,-146.87 1636.6,-143.87 1636.94,-150.86"/>
</g>
<!-- Node4 -->
<g id="node4" class="node">
<title>Node4</title>
<g id="a_node4"><a xlink:title=" ">
<polygon fill="white" stroke="#bfbfbf" points="0,-67.5 0,-86.5 180,-86.5 180,-67.5 0,-67.5"/>
<text text-anchor="middle" x="90" y="-74.5" font-family="Helvetica,sans-Serif" font-size="10.00">CGAL/Delaunay_triangulation_3.h</text>
</a>
</g>
</g>
<!-- Node3&#45;&gt;Node4 -->
<g id="edge3" class="edge">
<title>Node3&#45;&gt;Node4</title>
<path fill="none" stroke="midnightblue" d="M516.15,-135.07C513.06,-134.71 510,-134.35 507,-134 365.72,-117.53 329.51,-120.1 189,-98 172.52,-95.41 154.61,-91.98 138.61,-88.69"/>
<polygon fill="midnightblue" stroke="midnightblue" points="138.92,-85.18 128.41,-86.57 137.49,-92.03 138.92,-85.18"/>
</g>
<!-- Node5 -->
<g id="node5" class="node">
<title>Node5</title>
<g id="a_node5"><a xlink:title=" ">
<polygon fill="white" stroke="#bfbfbf" points="198.5,-56.5 198.5,-97.5 327.5,-97.5 327.5,-56.5 198.5,-56.5"/>
<text text-anchor="start" x="206.5" y="-85.5" font-family="Helvetica,sans-Serif" font-size="10.00">CGAL/Exact_predicates</text>
<text text-anchor="start" x="206.5" y="-74.5" font-family="Helvetica,sans-Serif" font-size="10.00">_inexact_constructions</text>
<text text-anchor="middle" x="263" y="-63.5" font-family="Helvetica,sans-Serif" font-size="10.00">_kernel.h</text>
</a>
</g>
</g>
<!-- Node3&#45;&gt;Node5 -->
<g id="edge4" class="edge">
<title>Node3&#45;&gt;Node5</title>
<path fill="none" stroke="midnightblue" d="M527.98,-134.5C480.2,-126.67 408.42,-114.15 337.76,-98.32"/>
<polygon fill="midnightblue" stroke="midnightblue" points="338.33,-94.86 327.81,-96.07 336.79,-101.69 338.33,-94.86"/>
</g>
<!-- Node6 -->
<g id="node6" class="node">
<title>Node6</title>
<g id="a_node6"><a xlink:title=" ">
<polygon fill="white" stroke="#bfbfbf" points="345.5,-67.5 345.5,-86.5 494.5,-86.5 494.5,-67.5 345.5,-67.5"/>
<text text-anchor="middle" x="420" y="-74.5" font-family="Helvetica,sans-Serif" font-size="10.00">CGAL/point_generators_3.h</text>
</a>
</g>
</g>
<!-- Node3&#45;&gt;Node6 -->
<g id="edge5" class="edge">
<title>Node3&#45;&gt;Node6</title>
<path fill="none" stroke="midnightblue" d="M560.49,-134.37C532.33,-123.07 482.8,-103.2 450.7,-90.32"/>
<polygon fill="midnightblue" stroke="midnightblue" points="451.93,-87.04 441.34,-86.56 449.32,-93.54 451.93,-87.04"/>
</g>
<!-- Node7 -->
<g id="node7" class="node">
<title>Node7</title>
<g id="a_node7"><a xlink:title=" ">
<polygon fill="white" stroke="#bfbfbf" points="513,-62 513,-92 651,-92 651,-62 513,-62"/>
<text text-anchor="start" x="521" y="-80" font-family="Helvetica,sans-Serif" font-size="10.00">CGAL/Triangulation</text>
<text text-anchor="middle" x="582" y="-69" font-family="Helvetica,sans-Serif" font-size="10.00">_cell_base_with_info_3.h</text>
</a>
</g>
</g>
<!-- Node3&#45;&gt;Node7 -->
<g id="edge6" class="edge">
<title>Node3&#45;&gt;Node7</title>
<path fill="none" stroke="midnightblue" d="M582,-134.23C582,-126.04 582,-113.42 582,-102.21"/>
<polygon fill="midnightblue" stroke="midnightblue" points="585.5,-102.09 582,-92.09 578.5,-102.09 585.5,-102.09"/>
</g>
<!-- Node8 -->
<g id="node8" class="node">
<title>Node8</title>
<g id="a_node8"><a xlink:title=" ">
<polygon fill="white" stroke="#bfbfbf" points="669,-62 669,-92 821,-92 821,-62 669,-62"/>
<text text-anchor="start" x="677" y="-80" font-family="Helvetica,sans-Serif" font-size="10.00">CGAL/Triangulation</text>
<text text-anchor="middle" x="745" y="-69" font-family="Helvetica,sans-Serif" font-size="10.00">_vertex_base_with_info_3.h</text>
</a>
</g>
</g>
<!-- Node3&#45;&gt;Node8 -->
<g id="edge7" class="edge">
<title>Node3&#45;&gt;Node8</title>
<path fill="none" stroke="midnightblue" d="M603.65,-134.37C628.21,-124.57 668.94,-108.33 700.39,-95.79"/>
<polygon fill="midnightblue" stroke="midnightblue" points="701.83,-98.98 709.82,-92.03 699.24,-92.48 701.83,-98.98"/>
</g>
<!-- Node9 -->
<g id="node9" class="node">
<title>Node9</title>
<g id="a_node9"><a xlink:href="_settings_8hpp.html" target="_top" xlink:title="Global integer and precision settings.">
<polygon fill="white" stroke="black" points="839.5,-67.5 839.5,-86.5 916.5,-86.5 916.5,-67.5 839.5,-67.5"/>
<text text-anchor="middle" x="878" y="-74.5" font-family="Helvetica,sans-Serif" font-size="10.00">Settings.hpp</text>
</a>
</g>
</g>
<!-- Node3&#45;&gt;Node9 -->
<g id="edge8" class="edge">
<title>Node3&#45;&gt;Node9</title>
<path fill="none" stroke="midnightblue" d="M647.64,-135.02C698.16,-127.94 769.36,-115.91 830,-98 836.86,-95.97 844.08,-93.28 850.77,-90.54"/>
<polygon fill="midnightblue" stroke="midnightblue" points="852.29,-93.69 860.1,-86.54 849.53,-87.26 852.29,-93.69"/>
</g>
<!-- Node10 -->
<g id="node10" class="node">
<title>Node10</title>
<g id="a_node10"><a xlink:title=" ">
<polygon fill="white" stroke="#bfbfbf" points="751,-0.5 751,-19.5 891,-19.5 891,-0.5 751,-0.5"/>
<text text-anchor="middle" x="821" y="-7.5" font-family="Helvetica,sans-Serif" font-size="10.00">CGAL/GMP/Gmpzf_type.h</text>
</a>
</g>
</g>
<!-- Node9&#45;&gt;Node10 -->
<g id="edge9" class="edge">
<title>Node9&#45;&gt;Node10</title>
<path fill="none" stroke="midnightblue" d="M870.31,-67.23C861.34,-57 846.31,-39.86 835.2,-27.19"/>
<polygon fill="midnightblue" stroke="midnightblue" points="837.79,-24.84 828.57,-19.63 832.53,-29.45 837.79,-24.84"/>
</g>
<!-- Node11 -->
<g id="node11" class="node">
<title>Node11</title>
<g id="a_node11"><a xlink:title=" ">
<polygon fill="white" stroke="#bfbfbf" points="909,-0.5 909,-19.5 959,-19.5 959,-0.5 909,-0.5"/>
<text text-anchor="middle" x="934" y="-7.5" font-family="Helvetica,sans-Serif" font-size="10.00">cstdint</text>
</a>
</g>
</g>
<!-- Node9&#45;&gt;Node11 -->
<g id="edge10" class="edge">
<title>Node9&#45;&gt;Node11</title>
<path fill="none" stroke="midnightblue" d="M885.55,-67.23C894.28,-57.1 908.85,-40.19 919.74,-27.56"/>
<polygon fill="midnightblue" stroke="midnightblue" points="922.69,-29.49 926.57,-19.63 917.39,-24.92 922.69,-29.49"/>
</g>
<!-- Node12&#45;&gt;Node9 -->
<g id="edge34" class="edge">
<title>Node12&#45;&gt;Node9</title>
<path fill="none" stroke="midnightblue" d="M1646.72,-142.46C1512.58,-140.3 1064.45,-130.76 925,-98 917.92,-96.34 910.56,-93.69 903.82,-90.86"/>
<polygon fill="midnightblue" stroke="midnightblue" points="905.05,-87.57 894.49,-86.67 902.18,-93.96 905.05,-87.57"/>
</g>
<!-- Node13 -->
<g id="node13" class="node">
<title>Node13</title>
<g id="a_node13"><a xlink:title=" ">
<polygon fill="white" stroke="#bfbfbf" points="934.5,-67.5 934.5,-86.5 1017.5,-86.5 1017.5,-67.5 934.5,-67.5"/>
<text text-anchor="middle" x="976" y="-74.5" font-family="Helvetica,sans-Serif" font-size="10.00">CGAL/Timer.h</text>
</a>
</g>
</g>
<!-- Node12&#45;&gt;Node13 -->
<g id="edge12" class="edge">
<title>Node12&#45;&gt;Node13</title>
<path fill="none" stroke="midnightblue" d="M1646.9,-141.92C1525.14,-138.23 1146.4,-124.83 1027,-98 1019.13,-96.23 1010.87,-93.44 1003.35,-90.5"/>
<polygon fill="midnightblue" stroke="midnightblue" points="1004.56,-87.21 993.99,-86.61 1001.88,-93.67 1004.56,-87.21"/>
</g>
<!-- Node14 -->
<g id="node14" class="node">
<title>Node14</title>
<g id="a_node14"><a xlink:title=" ">
<polygon fill="white" stroke="#bfbfbf" points="1036,-67.5 1036,-86.5 1100,-86.5 1100,-67.5 1036,-67.5"/>
<text text-anchor="middle" x="1068" y="-74.5" font-family="Helvetica,sans-Serif" font-size="10.00">algorithm</text>
</a>
</g>
</g>
<!-- Node12&#45;&gt;Node14 -->
<g id="edge13" class="edge">
<title>Node12&#45;&gt;Node14</title>
<path fill="none" stroke="midnightblue" d="M1646.93,-141.88C1535.42,-138.32 1210.98,-125.78 1109,-98 1103.03,-96.37 1096.88,-93.88 1091.22,-91.19"/>
<polygon fill="midnightblue" stroke="midnightblue" points="1092.77,-88.05 1082.28,-86.62 1089.59,-94.29 1092.77,-88.05"/>
</g>
<!-- Node15 -->
<g id="node15" class="node">
<title>Node15</title>
<g id="a_node15"><a xlink:title=" ">
<polygon fill="white" stroke="#bfbfbf" points="1118,-67.5 1118,-86.5 1170,-86.5 1170,-67.5 1118,-67.5"/>
<text text-anchor="middle" x="1144" y="-74.5" font-family="Helvetica,sans-Serif" font-size="10.00">cassert</text>
</a>
</g>
</g>
<!-- Node12&#45;&gt;Node15 -->
<g id="edge14" class="edge">
<title>Node12&#45;&gt;Node15</title>
<path fill="none" stroke="midnightblue" d="M1646.8,-141.72C1544.52,-137.94 1266.31,-125.38 1179,-98 1174.16,-96.48 1169.26,-94.22 1164.72,-91.76"/>
<polygon fill="midnightblue" stroke="midnightblue" points="1166.42,-88.7 1156.03,-86.6 1162.84,-94.72 1166.42,-88.7"/>
</g>
<!-- Node16 -->
<g id="node16" class="node">
<title>Node16</title>
<g id="a_node16"><a xlink:title=" ">
<polygon fill="white" stroke="#bfbfbf" points="1188.5,-67.5 1188.5,-86.5 1237.5,-86.5 1237.5,-67.5 1188.5,-67.5"/>
<text text-anchor="middle" x="1213" y="-74.5" font-family="Helvetica,sans-Serif" font-size="10.00">cstdlib</text>
</a>
</g>
</g>
<!-- Node12&#45;&gt;Node16 -->
<g id="edge15" class="edge">
<title>Node12&#45;&gt;Node16</title>
<path fill="none" stroke="midnightblue" d="M1646.96,-141.18C1554.66,-136.42 1320.99,-122.28 1247,-98 1242.41,-96.49 1237.77,-94.3 1233.45,-91.91"/>
<polygon fill="midnightblue" stroke="midnightblue" points="1235.03,-88.77 1224.67,-86.56 1231.39,-94.75 1235.03,-88.77"/>
</g>
<!-- Node17 -->
<g id="node17" class="node">
<title>Node17</title>
<g id="a_node17"><a xlink:title=" ">
<polygon fill="white" stroke="#bfbfbf" points="1256,-67.5 1256,-86.5 1324,-86.5 1324,-67.5 1256,-67.5"/>
<text text-anchor="middle" x="1290" y="-74.5" font-family="Helvetica,sans-Serif" font-size="10.00">filesystem</text>
</a>
</g>
</g>
<!-- Node12&#45;&gt;Node17 -->
<g id="edge16" class="edge">
<title>Node12&#45;&gt;Node17</title>
<path fill="none" stroke="midnightblue" d="M1646.98,-141.96C1581.58,-139.32 1444.13,-130.11 1333,-98 1326.92,-96.24 1320.61,-93.74 1314.77,-91.09"/>
<polygon fill="midnightblue" stroke="midnightblue" points="1316,-87.8 1305.48,-86.61 1312.96,-94.11 1316,-87.8"/>
</g>
<!-- Node18 -->
<g id="node18" class="node">
<title>Node18</title>
<g id="a_node18"><a xlink:title=" ">
<polygon fill="white" stroke="#bfbfbf" points="1342.5,-67.5 1342.5,-86.5 1397.5,-86.5 1397.5,-67.5 1342.5,-67.5"/>
<text text-anchor="middle" x="1370" y="-74.5" font-family="Helvetica,sans-Serif" font-size="10.00">fstream</text>
</a>
</g>
</g>
<!-- Node12&#45;&gt;Node18 -->
<g id="edge17" class="edge">
<title>Node12&#45;&gt;Node18</title>
<path fill="none" stroke="midnightblue" d="M1646.71,-140.85C1592.18,-136.9 1489.62,-126.12 1407,-98 1402.07,-96.32 1397.02,-94.03 1392.3,-91.6"/>
<polygon fill="midnightblue" stroke="midnightblue" points="1393.65,-88.34 1383.21,-86.55 1390.25,-94.46 1393.65,-88.34"/>
</g>
<!-- Node19 -->
<g id="node19" class="node">
<title>Node19</title>
<g id="a_node19"><a xlink:title=" ">
<polygon fill="white" stroke="#bfbfbf" points="1416,-67.5 1416,-86.5 1464,-86.5 1464,-67.5 1416,-67.5"/>
<text text-anchor="middle" x="1440" y="-74.5" font-family="Helvetica,sans-Serif" font-size="10.00">gsl/gsl</text>
</a>
</g>
</g>
<!-- Node12&#45;&gt;Node19 -->
<g id="edge18" class="edge">
<title>Node12&#45;&gt;Node19</title>
<path fill="none" stroke="midnightblue" d="M1646.74,-138.8C1603.4,-133.16 1531.25,-121.06 1473,-98 1468.87,-96.36 1464.66,-94.23 1460.69,-91.97"/>
<polygon fill="midnightblue" stroke="midnightblue" points="1462.37,-88.9 1452.02,-86.63 1458.7,-94.86 1462.37,-88.9"/>
</g>
<!-- Node20 -->
<g id="node20" class="node">
<title>Node20</title>
<g id="a_node20"><a xlink:title=" ">
<polygon fill="white" stroke="#bfbfbf" points="1482,-67.5 1482,-86.5 1542,-86.5 1542,-67.5 1482,-67.5"/>
<text text-anchor="middle" x="1512" y="-74.5" font-family="Helvetica,sans-Serif" font-size="10.00">iostream</text>
</a>
</g>
</g>
<!-- Node12&#45;&gt;Node20 -->
<g id="edge19" class="edge">
<title>Node12&#45;&gt;Node20</title>
<path fill="none" stroke="midnightblue" d="M1655.52,-134.49C1628.05,-126.24 1586.16,-112.82 1551,-98 1546.25,-96 1541.29,-93.66 1536.56,-91.3"/>
<polygon fill="midnightblue" stroke="midnightblue" points="1537.8,-88 1527.31,-86.52 1534.59,-94.22 1537.8,-88"/>
</g>
<!-- Node21 -->
<g id="node21" class="node">
<title>Node21</title>
<g id="a_node21"><a xlink:title=" ">
<polygon fill="white" stroke="#bfbfbf" points="1560,-67.5 1560,-86.5 1608,-86.5 1608,-67.5 1560,-67.5"/>
<text text-anchor="middle" x="1584" y="-74.5" font-family="Helvetica,sans-Serif" font-size="10.00">mutex</text>
</a>
</g>
</g>
<!-- Node12&#45;&gt;Node21 -->
<g id="edge20" class="edge">
<title>Node12&#45;&gt;Node21</title>
<path fill="none" stroke="midnightblue" d="M1671.38,-134.23C1654.57,-123.42 1625.77,-104.88 1605.86,-92.07"/>
<polygon fill="midnightblue" stroke="midnightblue" points="1607.71,-89.1 1597.41,-86.63 1603.92,-94.98 1607.71,-89.1"/>
</g>
<!-- Node22 -->
<g id="node22" class="node">
<title>Node22</title>
<g id="a_node22"><a xlink:title=" ">
<polygon fill="white" stroke="#bfbfbf" points="1626,-67.5 1626,-86.5 1680,-86.5 1680,-67.5 1626,-67.5"/>
<text text-anchor="middle" x="1653" y="-74.5" font-family="Helvetica,sans-Serif" font-size="10.00">random</text>
</a>
</g>
</g>
<!-- Node12&#45;&gt;Node22 -->
<g id="edge21" class="edge">
<title>Node12&#45;&gt;Node22</title>
<path fill="none" stroke="midnightblue" d="M1680.68,-134.23C1675.84,-124.39 1667.85,-108.16 1661.69,-95.66"/>
<polygon fill="midnightblue" stroke="midnightblue" points="1664.8,-94.05 1657.25,-86.63 1658.52,-97.14 1664.8,-94.05"/>
</g>
<!-- Node23 -->
<g id="node23" class="node">
<title>Node23</title>
<g id="a_node23"><a xlink:title=" ">
<polygon fill="white" stroke="#bfbfbf" points="1698,-67.5 1698,-86.5 1738,-86.5 1738,-67.5 1698,-67.5"/>
<text text-anchor="middle" x="1718" y="-74.5" font-family="Helvetica,sans-Serif" font-size="10.00">span</text>
</a>
</g>
</g>
<!-- Node12&#45;&gt;Node23 -->
<g id="edge22" class="edge">
<title>Node12&#45;&gt;Node23</title>
<path fill="none" stroke="midnightblue" d="M1689.45,-134.23C1694.45,-124.39 1702.69,-108.16 1709.03,-95.66"/>
<polygon fill="midnightblue" stroke="midnightblue" points="1712.21,-97.13 1713.62,-86.63 1705.97,-93.96 1712.21,-97.13"/>
</g>
<!-- Node24 -->
<g id="node24" class="node">
<title>Node24</title>
<g id="a_node24"><a xlink:title=" ">
<polygon fill="white" stroke="#bfbfbf" points="1756.5,-67.5 1756.5,-86.5 1821.5,-86.5 1821.5,-67.5 1756.5,-67.5"/>
<text text-anchor="middle" x="1789" y="-74.5" font-family="Helvetica,sans-Serif" font-size="10.00">stdexcept</text>
</a>
</g>
</g>
<!-- Node12&#45;&gt;Node24 -->
<g id="edge23" class="edge">
<title>Node12&#45;&gt;Node24</title>
<path fill="none" stroke="midnightblue" d="M1699.03,-134.23C1716.33,-123.42 1745.99,-104.88 1766.49,-92.07"/>
<polygon fill="midnightblue" stroke="midnightblue" points="1768.57,-94.9 1775.2,-86.63 1764.86,-88.96 1768.57,-94.9"/>
</g>
<!-- Node25 -->
<g id="node25" class="node">
<title>Node25</title>
<g id="a_node25"><a xlink:title=" ">
<polygon fill="white" stroke="#bfbfbf" points="1840,-67.5 1840,-86.5 1884,-86.5 1884,-67.5 1840,-67.5"/>
<text text-anchor="middle" x="1862" y="-74.5" font-family="Helvetica,sans-Serif" font-size="10.00">string</text>
</a>
</g>
</g>
<!-- Node12&#45;&gt;Node25 -->
<g id="edge24" class="edge">
<title>Node12&#45;&gt;Node25</title>
<path fill="none" stroke="midnightblue" d="M1722.64,-134.43C1752.76,-126.86 1795.66,-114.47 1831,-98 1834.58,-96.33 1838.23,-94.31 1841.71,-92.2"/>
<polygon fill="midnightblue" stroke="midnightblue" points="1843.88,-94.96 1850.37,-86.59 1840.07,-89.09 1843.88,-94.96"/>
</g>
<!-- Node26 -->
<g id="node26" class="node">
<title>Node26</title>
<g id="a_node26"><a xlink:title=" ">
<polygon fill="white" stroke="#bfbfbf" points="1902.5,-67.5 1902.5,-86.5 1967.5,-86.5 1967.5,-67.5 1902.5,-67.5"/>
<text text-anchor="middle" x="1935" y="-74.5" font-family="Helvetica,sans-Serif" font-size="10.00">typeindex</text>
</a>
</g>
</g>
<!-- Node12&#45;&gt;Node26 -->
<g id="edge25" class="edge">
<title>Node12&#45;&gt;Node26</title>
<path fill="none" stroke="midnightblue" d="M1723.29,-137.44C1765.57,-130.69 1835.3,-117.68 1893,-98 1898.54,-96.11 1904.31,-93.69 1909.74,-91.18"/>
<polygon fill="midnightblue" stroke="midnightblue" points="1911.54,-94.2 1919.01,-86.69 1908.49,-87.9 1911.54,-94.2"/>
</g>
<!-- Node27 -->
<g id="node27" class="node">
<title>Node27</title>
<g id="a_node27"><a xlink:title=" ">
<polygon fill="white" stroke="#bfbfbf" points="1985.5,-67.5 1985.5,-86.5 2044.5,-86.5 2044.5,-67.5 1985.5,-67.5"/>
<text text-anchor="middle" x="2015" y="-74.5" font-family="Helvetica,sans-Serif" font-size="10.00">date/tz.h</text>
</a>
</g>
</g>
<!-- Node12&#45;&gt;Node27 -->
<g id="edge26" class="edge">
<title>Node12&#45;&gt;Node27</title>
<path fill="none" stroke="midnightblue" d="M1723.27,-141.14C1779.98,-137.48 1889.08,-127.01 1977,-98 1982.18,-96.29 1987.5,-93.93 1992.46,-91.42"/>
<polygon fill="midnightblue" stroke="midnightblue" points="1994.29,-94.41 2001.41,-86.56 1990.96,-88.25 1994.29,-94.41"/>
</g>
<!-- Node28 -->
<g id="node28" class="node">
<title>Node28</title>
<g id="a_node28"><a xlink:title=" ">
<polygon fill="white" stroke="#bfbfbf" points="2063,-67.5 2063,-86.5 2113,-86.5 2113,-67.5 2063,-67.5"/>
<text text-anchor="middle" x="2088" y="-74.5" font-family="Helvetica,sans-Serif" font-size="10.00">chrono</text>
</a>
</g>
</g>
<!-- Node12&#45;&gt;Node28 -->
<g id="edge27" class="edge">
<title>Node12&#45;&gt;Node28</title>
<path fill="none" stroke="midnightblue" d="M1723.04,-143.41C1791.24,-143.05 1938.01,-137.28 2054,-98 2058.5,-96.48 2063.06,-94.31 2067.31,-91.96"/>
<polygon fill="midnightblue" stroke="midnightblue" points="2069.25,-94.88 2076,-86.7 2065.63,-88.89 2069.25,-94.88"/>
</g>
<!-- Node29 -->
<g id="node29" class="node">
<title>Node29</title>
<g id="a_node29"><a xlink:title=" ">
<polygon fill="white" stroke="#bfbfbf" points="2131,-67.5 2131,-86.5 2181,-86.5 2181,-67.5 2131,-67.5"/>
<text text-anchor="middle" x="2156" y="-74.5" font-family="Helvetica,sans-Serif" font-size="10.00">format</text>
</a>
</g>
</g>
<!-- Node12&#45;&gt;Node29 -->
<g id="edge28" class="edge">
<title>Node12&#45;&gt;Node29</title>
<path fill="none" stroke="midnightblue" d="M1723.3,-141.15C1815.62,-136.36 2048.27,-122.2 2122,-98 2126.59,-96.49 2131.23,-94.3 2135.55,-91.91"/>
<polygon fill="midnightblue" stroke="midnightblue" points="2137.61,-94.75 2144.33,-86.56 2133.97,-88.77 2137.61,-94.75"/>
</g>
<!-- Node30 -->
<g id="node30" class="node">
<title>Node30</title>
<g id="a_node30"><a xlink:title=" ">
<polygon fill="white" stroke="#bfbfbf" points="2199,-67.5 2199,-86.5 2297,-86.5 2297,-67.5 2199,-67.5"/>
<text text-anchor="middle" x="2248" y="-74.5" font-family="Helvetica,sans-Serif" font-size="10.00">pcg_random.hpp</text>
</a>
</g>
</g>
<!-- Node12&#45;&gt;Node30 -->
<g id="edge29" class="edge">
<title>Node12&#45;&gt;Node30</title>
<path fill="none" stroke="midnightblue" d="M1723.16,-142.75C1808.04,-141.5 2018.49,-134.64 2190,-98 2199.16,-96.04 2208.87,-93.07 2217.67,-90.01"/>
<polygon fill="midnightblue" stroke="midnightblue" points="2218.93,-93.28 2227.14,-86.57 2216.54,-86.7 2218.93,-93.28"/>
</g>
<!-- Node31 -->
<g id="node31" class="node">
<title>Node31</title>
<g id="a_node31"><a xlink:title=" ">
<polygon fill="white" stroke="#bfbfbf" points="2315,-67.5 2315,-86.5 2401,-86.5 2401,-67.5 2315,-67.5"/>
<text text-anchor="middle" x="2358" y="-74.5" font-family="Helvetica,sans-Serif" font-size="10.00">fmt/ostream.h</text>
</a>
</g>
</g>
<!-- Node12&#45;&gt;Node31 -->
<g id="edge30" class="edge">
<title>Node12&#45;&gt;Node31</title>
<path fill="none" stroke="midnightblue" d="M1723.4,-141.7C1840.85,-137.48 2194.04,-123.01 2306,-98 2314.1,-96.19 2322.61,-93.35 2330.34,-90.37"/>
<polygon fill="midnightblue" stroke="midnightblue" points="2331.69,-93.6 2339.64,-86.59 2329.06,-87.11 2331.69,-93.6"/>
</g>
<!-- Node32 -->
<g id="node32" class="node">
<title>Node32</title>
<g id="a_node32"><a xlink:title=" ">
<polygon fill="white" stroke="#bfbfbf" points="2419,-62 2419,-92 2525,-92 2525,-62 2419,-62"/>
<text text-anchor="start" x="2427" y="-80" font-family="Helvetica,sans-Serif" font-size="10.00">spdlog/sinks/basic</text>
<text text-anchor="middle" x="2472" y="-69" font-family="Helvetica,sans-Serif" font-size="10.00">_file_sink.h</text>
</a>
</g>
</g>
<!-- Node12&#45;&gt;Node32 -->
<g id="edge31" class="edge">
<title>Node12&#45;&gt;Node32</title>
<path fill="none" stroke="midnightblue" d="M1723.22,-141.89C1853.02,-137.92 2276.33,-123.29 2410,-98 2414.5,-97.15 2419.12,-96.07 2423.72,-94.85"/>
<polygon fill="midnightblue" stroke="midnightblue" points="2425.04,-98.11 2433.69,-92 2423.11,-91.38 2425.04,-98.11"/>
</g>
<!-- Node33 -->
<g id="node33" class="node">
<title>Node33</title>
<g id="a_node33"><a xlink:title=" ">
<polygon fill="white" stroke="#bfbfbf" points="2543.5,-62 2543.5,-92 2654.5,-92 2654.5,-62 2543.5,-62"/>
<text text-anchor="start" x="2551.5" y="-80" font-family="Helvetica,sans-Serif" font-size="10.00">spdlog/sinks/stdout</text>
<text text-anchor="middle" x="2599" y="-69" font-family="Helvetica,sans-Serif" font-size="10.00">_color_sinks.h</text>
</a>
</g>
</g>
<!-- Node12&#45;&gt;Node33 -->
<g id="edge32" class="edge">
<title>Node12&#45;&gt;Node33</title>
<path fill="none" stroke="midnightblue" d="M1723.11,-142.22C1866.68,-139.1 2374.86,-126.26 2534,-98 2538.96,-97.12 2544.07,-95.98 2549.14,-94.68"/>
<polygon fill="midnightblue" stroke="midnightblue" points="2550.09,-98.06 2558.81,-92.04 2548.24,-91.3 2550.09,-98.06"/>
</g>
<!-- Node34 -->
<g id="node34" class="node">
<title>Node34</title>
<g id="a_node34"><a xlink:title=" ">
<polygon fill="white" stroke="#bfbfbf" points="2672.5,-67.5 2672.5,-86.5 2765.5,-86.5 2765.5,-67.5 2672.5,-67.5"/>
<text text-anchor="middle" x="2719" y="-74.5" font-family="Helvetica,sans-Serif" font-size="10.00">spdlog/spdlog.h</text>
</a>
</g>
</g>
<!-- Node12&#45;&gt;Node34 -->
<g id="edge33" class="edge">
<title>Node12&#45;&gt;Node34</title>
<path fill="none" stroke="midnightblue" d="M1723.21,-142.78C1880.61,-141.65 2479.12,-134.97 2664,-98 2672.81,-96.24 2682.09,-93.31 2690.47,-90.23"/>
<polygon fill="midnightblue" stroke="midnightblue" points="2691.76,-93.48 2699.81,-86.6 2689.22,-86.96 2691.76,-93.48"/>
</g>
</g>
</svg>
        <g id="navigator" transform="translate(0 0)" fill="#404254">
                <rect fill="#f2f5e9" fill-opacity="0.5" stroke="#606060" stroke-width=".5" x="0" y="0" width="60" height="60"/>
                <use id="zoomplus" xlink:href="#zoomPlus" x="17" y="9" onmousedown="handleZoom(evt,'in')"/>
                <use id="zoomminus" xlink:href="#zoomMin" x="42" y="9" onmousedown="handleZoom(evt,'out')"/>
                <use id="reset" xlink:href="#resetDef" x="30" y="36" onmousedown="handleReset()"/>
                <g id="arrowUp" xlink:href="#dirArrow" transform="translate(30 24)" onmousedown="handlePan(0,-1)">
                  <use xlink:href="#rim" fill="#404040">
                        <set attributeName="fill" to="#808080" begin="arrowUp.mouseover" end="arrowUp.mouseout"/>
                  </use>
                  <path fill="none" stroke="white" stroke-width="1.5" d="M0,-3.0v7 M-2.5,-0.5L0,-3.0L2.5,-0.5"/>
                </g>
                <g id="arrowRight" xlink:href="#dirArrow" transform="rotate(90) translate(36 -43)" onmousedown="handlePan(1,0)">
                  <use xlink:href="#rim" fill="#404040">
                        <set attributeName="fill" to="#808080" begin="arrowRight.mouseover" end="arrowRight.mouseout"/>
                  </use>
                  <path fill="none" stroke="white" stroke-width="1.5" d="M0,-3.0v7 M-2.5,-0.5L0,-3.0L2.5,-0.5"/>
                </g>
                <g id="arrowDown" xlink:href="#dirArrow" transform="rotate(180) translate(-30 -48)" onmousedown="handlePan(0,1)">
                  <use xlink:href="#rim" fill="#404040">
                        <set attributeName="fill" to="#808080" begin="arrowDown.mouseover" end="arrowDown.mouseout"/>
                  </use>
                  <path fill="none" stroke="white" stroke-width="1.5" d="M0,-3.0v7 M-2.5,-0.5L0,-3.0L2.5,-0.5"/>
                </g>
                <g id="arrowLeft" xlink:href="#dirArrow" transform="rotate(270) translate(-36 17)" onmousedown="handlePan(-1,0)">
                  <use xlink:href="#rim" fill="#404040">
                        <set attributeName="fill" to="#808080" begin="arrowLeft.mouseover" end="arrowLeft.mouseout"/>
                  </use>
                  <path fill="none" stroke="white" stroke-width="1.5" d="M0,-3.0v7 M-2.5,-0.5L0,-3.0L2.5,-0.5"/>
                </g>
        </g>
        <svg viewBox="0 0 15 15" width="100%" height="30px" preserveAspectRatio="xMaxYMin meet">
         <g id="arrow_out" transform="scale(0.3 0.3)">
          <a xlink:href="_foliated__triangulation_8hpp__incl_org.svg" target="_base">
           <rect id="button" ry="5" rx="5" y="6" x="6" height="38" width="38"
                fill="#f2f5e9" fill-opacity="0.5" stroke="#606060" stroke-width="1.0"/>
           <path id="arrow"
             d="M 11.500037,31.436501 C 11.940474,20.09759 22.043105,11.32322 32.158766,21.979434 L 37.068811,17.246167 C 37.068811,17.246167 37.088388,32 37.088388,32 L 22.160133,31.978069 C 22.160133,31.978069 26.997745,27.140456 26.997745,27.140456 C 18.528582,18.264221 13.291696,25.230495 11.500037,31.436501 z"
             style="fill:#404040;"/>
          </a>
         </g>
        </svg>
</svg>
