<?xml version="1.0" encoding="UTF-8" standalone="no"?>
<!DOCTYPE svg PUBLIC "-//W3C//DTD SVG 1.1//EN"
 "http://www.w3.org/Graphics/SVG/1.1/DTD/svg11.dtd">
<!-- Generated by graphviz version 2.43.0 (0)
 -->
<!-- Title: include/Foliated_triangulation.hpp Pages: 1 -->
<svg width="2250pt" height="214pt"
 viewBox="0.00 0.00 2249.50 214.00" xmlns="http://www.w3.org/2000/svg" xmlns:xlink="http://www.w3.org/1999/xlink">
<g id="graph0" class="graph" transform="scale(1 1) rotate(0) translate(4 210)">
<title>include/Foliated_triangulation.hpp</title>
<!-- Node1 -->
<g id="node1" class="node">
<title>Node1</title>
<g id="a_node1"><a xlink:title="Create foliated spherical triangulations.">
<polygon fill="#999999" stroke="#666666" points="1082,-206 900,-206 900,-187 1082,-187 1082,-206"/>
<text text-anchor="middle" x="991" y="-194" font-family="Helvetica,sans-Serif" font-size="10.00">include/Foliated_triangulation.hpp</text>
</a>
</g>
</g>
<!-- Node2 -->
<g id="node2" class="node">
<title>Node2</title>
<g id="a_node2"><a xlink:href="_triangulation__traits_8hpp.html" target="_top" xlink:title="Traits class for particular uses of CGAL.">
<polygon fill="white" stroke="#666666" points="647.5,-151 516.5,-151 516.5,-132 647.5,-132 647.5,-151"/>
<text text-anchor="middle" x="582" y="-139" font-family="Helvetica,sans-Serif" font-size="10.00">Triangulation_traits.hpp</text>
</a>
</g>
</g>
<!-- Node1&#45;&gt;Node2 -->
<g id="edge1" class="edge">
<title>Node1&#45;&gt;Node2</title>
<path fill="none" stroke="#63b8ff" d="M925.29,-186.98C852.24,-177.52 734.47,-162.26 657.64,-152.3"/>
<polygon fill="#63b8ff" stroke="#63b8ff" points="657.92,-148.81 647.55,-150.99 657.02,-155.75 657.92,-148.81"/>
</g>
<!-- Node11 -->
<g id="node11" class="node">
<title>Node11</title>
<g id="a_node11"><a xlink:href="_utilities_8hpp.html" target="_top" xlink:title="Utility functions.">
<polygon fill="white" stroke="#666666" points="1439,-151 1363,-151 1363,-132 1439,-132 1439,-151"/>
<text text-anchor="middle" x="1401" y="-139" font-family="Helvetica,sans-Serif" font-size="10.00">Utilities.hpp</text>
</a>
</g>
</g>
<!-- Node1&#45;&gt;Node11 -->
<g id="edge10" class="edge">
<title>Node1&#45;&gt;Node11</title>
<path fill="none" stroke="#63b8ff" d="M1056.87,-186.98C1139.51,-176.3 1279.24,-158.24 1352.65,-148.75"/>
<polygon fill="#63b8ff" stroke="#63b8ff" points="1353.51,-152.17 1362.98,-147.41 1352.62,-145.23 1353.51,-152.17"/>
</g>
<!-- Node3 -->
<g id="node3" class="node">
<title>Node3</title>
<g id="a_node3"><a xlink:title=" ">
<polygon fill="#e0e0e0" stroke="#999999" points="180,-85 0,-85 0,-66 180,-66 180,-85"/>
<text text-anchor="middle" x="90" y="-73" font-family="Helvetica,sans-Serif" font-size="10.00">CGAL/Delaunay_triangulation_3.h</text>
</a>
</g>
</g>
<!-- Node2&#45;&gt;Node3 -->
<g id="edge2" class="edge">
<title>Node2&#45;&gt;Node3</title>
<path fill="none" stroke="#63b8ff" d="M516.42,-134.73C438.22,-127.46 303.68,-113.76 189,-96 172.81,-93.49 155.24,-90.22 139.45,-87.07"/>
<polygon fill="#63b8ff" stroke="#63b8ff" points="139.87,-83.58 129.37,-85.02 138.48,-90.44 139.87,-83.58"/>
</g>
<!-- Node4 -->
<g id="node4" class="node">
<title>Node4</title>
<g id="a_node4"><a xlink:title=" ">
<polygon fill="#e0e0e0" stroke="#999999" points="327.5,-96 198.5,-96 198.5,-55 327.5,-55 327.5,-96"/>
<text text-anchor="start" x="206.5" y="-84" font-family="Helvetica,sans-Serif" font-size="10.00">CGAL/Exact_predicates</text>
<text text-anchor="start" x="206.5" y="-73" font-family="Helvetica,sans-Serif" font-size="10.00">_inexact_constructions</text>
<text text-anchor="middle" x="263" y="-62" font-family="Helvetica,sans-Serif" font-size="10.00">_kernel.h</text>
</a>
</g>
</g>
<!-- Node2&#45;&gt;Node4 -->
<g id="edge3" class="edge">
<title>Node2&#45;&gt;Node4</title>
<path fill="none" stroke="#63b8ff" d="M527.51,-131.96C479.74,-124.18 408.22,-111.81 337.75,-96.31"/>
<polygon fill="#63b8ff" stroke="#63b8ff" points="338.33,-92.86 327.81,-94.11 336.81,-99.69 338.33,-92.86"/>
</g>
<!-- Node5 -->
<g id="node5" class="node">
<title>Node5</title>
<g id="a_node5"><a xlink:title=" ">
<polygon fill="#e0e0e0" stroke="#999999" points="494.5,-85 345.5,-85 345.5,-66 494.5,-66 494.5,-85"/>
<text text-anchor="middle" x="420" y="-73" font-family="Helvetica,sans-Serif" font-size="10.00">CGAL/point_generators_3.h</text>
</a>
</g>
</g>
<!-- Node2&#45;&gt;Node5 -->
<g id="edge4" class="edge">
<title>Node2&#45;&gt;Node5</title>
<path fill="none" stroke="#63b8ff" d="M560.15,-131.87C532.05,-120.77 483.07,-101.42 451.1,-88.78"/>
<polygon fill="#63b8ff" stroke="#63b8ff" points="452.35,-85.52 441.76,-85.1 449.77,-92.03 452.35,-85.52"/>
</g>
<!-- Node6 -->
<g id="node6" class="node">
<title>Node6</title>
<g id="a_node6"><a xlink:title=" ">
<polygon fill="#e0e0e0" stroke="#999999" points="651,-90.5 513,-90.5 513,-60.5 651,-60.5 651,-90.5"/>
<text text-anchor="start" x="521" y="-78.5" font-family="Helvetica,sans-Serif" font-size="10.00">CGAL/Triangulation</text>
<text text-anchor="middle" x="582" y="-67.5" font-family="Helvetica,sans-Serif" font-size="10.00">_cell_base_with_info_3.h</text>
</a>
</g>
</g>
<!-- Node2&#45;&gt;Node6 -->
<g id="edge5" class="edge">
<title>Node2&#45;&gt;Node6</title>
<path fill="none" stroke="#63b8ff" d="M582,-131.87C582,-123.99 582,-111.95 582,-101.1"/>
<polygon fill="#63b8ff" stroke="#63b8ff" points="585.5,-100.86 582,-90.86 578.5,-100.86 585.5,-100.86"/>
</g>
<!-- Node7 -->
<g id="node7" class="node">
<title>Node7</title>
<g id="a_node7"><a xlink:title=" ">
<polygon fill="#e0e0e0" stroke="#999999" points="821,-90.5 669,-90.5 669,-60.5 821,-60.5 821,-90.5"/>
<text text-anchor="start" x="677" y="-78.5" font-family="Helvetica,sans-Serif" font-size="10.00">CGAL/Triangulation</text>
<text text-anchor="middle" x="745" y="-67.5" font-family="Helvetica,sans-Serif" font-size="10.00">_vertex_base_with_info_3.h</text>
</a>
</g>
</g>
<!-- Node2&#45;&gt;Node7 -->
<g id="edge6" class="edge">
<title>Node2&#45;&gt;Node7</title>
<path fill="none" stroke="#63b8ff" d="M603.98,-131.87C628.4,-122.28 668.48,-106.55 699.68,-94.3"/>
<polygon fill="#63b8ff" stroke="#63b8ff" points="701.02,-97.53 709.05,-90.62 698.46,-91.01 701.02,-97.53"/>
</g>
<!-- Node8 -->
<g id="node8" class="node">
<title>Node8</title>
<g id="a_node8"><a xlink:href="_settings_8hpp.html" target="_top" xlink:title="Global integer and precision settings.">
<polygon fill="white" stroke="#666666" points="916.5,-85 839.5,-85 839.5,-66 916.5,-66 916.5,-85"/>
<text text-anchor="middle" x="878" y="-73" font-family="Helvetica,sans-Serif" font-size="10.00">Settings.hpp</text>
</a>
</g>
</g>
<!-- Node2&#45;&gt;Node8 -->
<g id="edge7" class="edge">
<title>Node2&#45;&gt;Node8</title>
<path fill="none" stroke="#63b8ff" d="M647.6,-132.53C698.09,-125.49 769.28,-113.57 830,-96 836.58,-94.1 843.49,-91.6 849.95,-89.03"/>
<polygon fill="#63b8ff" stroke="#63b8ff" points="851.73,-92.08 859.63,-85.01 849.05,-85.62 851.73,-92.08"/>
</g>
<!-- Node9 -->
<g id="node9" class="node">
<title>Node9</title>
<g id="a_node9"><a xlink:title=" ">
<polygon fill="#e0e0e0" stroke="#999999" points="891,-19 751,-19 751,0 891,0 891,-19"/>
<text text-anchor="middle" x="821" y="-7" font-family="Helvetica,sans-Serif" font-size="10.00">CGAL/GMP/Gmpzf_type.h</text>
</a>
</g>
</g>
<!-- Node8&#45;&gt;Node9 -->
<g id="edge8" class="edge">
<title>Node8&#45;&gt;Node9</title>
<path fill="none" stroke="#63b8ff" d="M870.31,-65.87C861.52,-56 846.93,-39.61 835.89,-27.22"/>
<polygon fill="#63b8ff" stroke="#63b8ff" points="838.2,-24.55 828.93,-19.41 832.97,-29.2 838.2,-24.55"/>
</g>
<!-- Node10 -->
<g id="node10" class="node">
<title>Node10</title>
<g id="a_node10"><a xlink:title=" ">
<polygon fill="#e0e0e0" stroke="#999999" points="959,-19 909,-19 909,0 959,0 959,-19"/>
<text text-anchor="middle" x="934" y="-7" font-family="Helvetica,sans-Serif" font-size="10.00">cstdint</text>
</a>
</g>
</g>
<!-- Node8&#45;&gt;Node10 -->
<g id="edge9" class="edge">
<title>Node8&#45;&gt;Node10</title>
<path fill="none" stroke="#63b8ff" d="M885.55,-65.87C894.19,-56 908.53,-39.61 919.37,-27.22"/>
<polygon fill="#63b8ff" stroke="#63b8ff" points="922.26,-29.24 926.21,-19.41 916.99,-24.63 922.26,-29.24"/>
</g>
<!-- Node11&#45;&gt;Node8 -->
<g id="edge26" class="edge">
<title>Node11&#45;&gt;Node8</title>
<path fill="none" stroke="#63b8ff" d="M1362.82,-140.67C1281.34,-140.23 1084.91,-134.83 926,-96 919.07,-94.31 911.83,-91.79 905.14,-89.13"/>
<polygon fill="#63b8ff" stroke="#63b8ff" points="906.39,-85.86 895.82,-85.19 903.67,-92.31 906.39,-85.86"/>
</g>
<!-- Node12 -->
<g id="node12" class="node">
<title>Node12</title>
<g id="a_node12"><a xlink:title=" ">
<polygon fill="#e0e0e0" stroke="#999999" points="999,-85 935,-85 935,-66 999,-66 999,-85"/>
<text text-anchor="middle" x="967" y="-73" font-family="Helvetica,sans-Serif" font-size="10.00">algorithm</text>
</a>
</g>
</g>
<!-- Node11&#45;&gt;Node12 -->
<g id="edge11" class="edge">
<title>Node11&#45;&gt;Node12</title>
<path fill="none" stroke="#63b8ff" d="M1362.81,-140.33C1291.62,-139.11 1134.43,-132.13 1008,-96 1002.41,-94.4 996.64,-92.11 991.25,-89.65"/>
<polygon fill="#63b8ff" stroke="#63b8ff" points="992.62,-86.42 982.1,-85.16 989.54,-92.71 992.62,-86.42"/>
</g>
<!-- Node13 -->
<g id="node13" class="node">
<title>Node13</title>
<g id="a_node13"><a xlink:title=" ">
<polygon fill="#e0e0e0" stroke="#999999" points="1085,-85 1017,-85 1017,-66 1085,-66 1085,-85"/>
<text text-anchor="middle" x="1051" y="-73" font-family="Helvetica,sans-Serif" font-size="10.00">filesystem</text>
</a>
</g>
</g>
<!-- Node11&#45;&gt;Node13 -->
<g id="edge12" class="edge">
<title>Node11&#45;&gt;Node13</title>
<path fill="none" stroke="#63b8ff" d="M1362.94,-138.43C1304.19,-134.48 1188.33,-123.62 1094,-96 1088.05,-94.26 1081.87,-91.85 1076.11,-89.31"/>
<polygon fill="#63b8ff" stroke="#63b8ff" points="1077.46,-86.08 1066.92,-85.02 1074.5,-92.42 1077.46,-86.08"/>
</g>
<!-- Node14 -->
<g id="node14" class="node">
<title>Node14</title>
<g id="a_node14"><a xlink:title=" ">
<polygon fill="#e0e0e0" stroke="#999999" points="1158.5,-85 1103.5,-85 1103.5,-66 1158.5,-66 1158.5,-85"/>
<text text-anchor="middle" x="1131" y="-73" font-family="Helvetica,sans-Serif" font-size="10.00">fstream</text>
</a>
</g>
</g>
<!-- Node11&#45;&gt;Node14 -->
<g id="edge13" class="edge">
<title>Node11&#45;&gt;Node14</title>
<path fill="none" stroke="#63b8ff" d="M1362.98,-136.74C1316.1,-131.31 1234.46,-119.28 1168,-96 1163.28,-94.35 1158.42,-92.17 1153.84,-89.88"/>
<polygon fill="#63b8ff" stroke="#63b8ff" points="1155.43,-86.76 1144.96,-85.12 1152.12,-92.93 1155.43,-86.76"/>
</g>
<!-- Node15 -->
<g id="node15" class="node">
<title>Node15</title>
<g id="a_node15"><a xlink:title=" ">
<polygon fill="#e0e0e0" stroke="#999999" points="1225,-85 1177,-85 1177,-66 1225,-66 1225,-85"/>
<text text-anchor="middle" x="1201" y="-73" font-family="Helvetica,sans-Serif" font-size="10.00">gsl/gsl</text>
</a>
</g>
</g>
<!-- Node11&#45;&gt;Node15 -->
<g id="edge14" class="edge">
<title>Node11&#45;&gt;Node15</title>
<path fill="none" stroke="#63b8ff" d="M1362.89,-133.45C1328.39,-126.34 1276.61,-113.87 1234,-96 1230.17,-94.4 1226.25,-92.42 1222.51,-90.34"/>
<polygon fill="#63b8ff" stroke="#63b8ff" points="1224.13,-87.23 1213.74,-85.14 1220.55,-93.25 1224.13,-87.23"/>
</g>
<!-- Node16 -->
<g id="node16" class="node">
<title>Node16</title>
<g id="a_node16"><a xlink:title=" ">
<polygon fill="#e0e0e0" stroke="#999999" points="1291,-85 1243,-85 1243,-66 1291,-66 1291,-85"/>
<text text-anchor="middle" x="1267" y="-73" font-family="Helvetica,sans-Serif" font-size="10.00">mutex</text>
</a>
</g>
</g>
<!-- Node11&#45;&gt;Node16 -->
<g id="edge15" class="edge">
<title>Node11&#45;&gt;Node16</title>
<path fill="none" stroke="#63b8ff" d="M1379.38,-131.85C1358.69,-123.36 1326.76,-109.74 1300,-96 1296.54,-94.22 1292.94,-92.24 1289.45,-90.24"/>
<polygon fill="#63b8ff" stroke="#63b8ff" points="1291,-87.09 1280.6,-85.03 1287.44,-93.12 1291,-87.09"/>
</g>
<!-- Node17 -->
<g id="node17" class="node">
<title>Node17</title>
<g id="a_node17"><a xlink:title=" ">
<polygon fill="#e0e0e0" stroke="#999999" points="1363,-85 1309,-85 1309,-66 1363,-66 1363,-85"/>
<text text-anchor="middle" x="1336" y="-73" font-family="Helvetica,sans-Serif" font-size="10.00">random</text>
</a>
</g>
</g>
<!-- Node11&#45;&gt;Node17 -->
<g id="edge16" class="edge">
<title>Node11&#45;&gt;Node17</title>
<path fill="none" stroke="#63b8ff" d="M1392.23,-131.87C1382.02,-121.81 1364.92,-104.98 1352.26,-92.51"/>
<polygon fill="#63b8ff" stroke="#63b8ff" points="1354.63,-89.93 1345.04,-85.41 1349.71,-94.92 1354.63,-89.93"/>
</g>
<!-- Node18 -->
<g id="node18" class="node">
<title>Node18</title>
<g id="a_node18"><a xlink:title=" ">
<polygon fill="#e0e0e0" stroke="#999999" points="1421,-85 1381,-85 1381,-66 1421,-66 1421,-85"/>
<text text-anchor="middle" x="1401" y="-73" font-family="Helvetica,sans-Serif" font-size="10.00">span</text>
</a>
</g>
</g>
<!-- Node11&#45;&gt;Node18 -->
<g id="edge17" class="edge">
<title>Node11&#45;&gt;Node18</title>
<path fill="none" stroke="#63b8ff" d="M1401,-131.87C1401,-122.66 1401,-107.79 1401,-95.77"/>
<polygon fill="#63b8ff" stroke="#63b8ff" points="1404.5,-95.41 1401,-85.41 1397.5,-95.41 1404.5,-95.41"/>
</g>
<!-- Node19 -->
<g id="node19" class="node">
<title>Node19</title>
<g id="a_node19"><a xlink:title=" ">
<polygon fill="#e0e0e0" stroke="#999999" points="1504.5,-85 1439.5,-85 1439.5,-66 1504.5,-66 1504.5,-85"/>
<text text-anchor="middle" x="1472" y="-73" font-family="Helvetica,sans-Serif" font-size="10.00">stdexcept</text>
</a>
</g>
</g>
<!-- Node11&#45;&gt;Node19 -->
<g id="edge18" class="edge">
<title>Node11&#45;&gt;Node19</title>
<path fill="none" stroke="#63b8ff" d="M1410.58,-131.87C1421.84,-121.71 1440.76,-104.66 1454.63,-92.15"/>
<polygon fill="#63b8ff" stroke="#63b8ff" points="1457.04,-94.7 1462.12,-85.41 1452.35,-89.5 1457.04,-94.7"/>
</g>
<!-- Node20 -->
<g id="node20" class="node">
<title>Node20</title>
<g id="a_node20"><a xlink:title=" ">
<polygon fill="#e0e0e0" stroke="#999999" points="1567,-85 1523,-85 1523,-66 1567,-66 1567,-85"/>
<text text-anchor="middle" x="1545" y="-73" font-family="Helvetica,sans-Serif" font-size="10.00">string</text>
</a>
</g>
</g>
<!-- Node11&#45;&gt;Node20 -->
<g id="edge19" class="edge">
<title>Node11&#45;&gt;Node20</title>
<path fill="none" stroke="#63b8ff" d="M1426.72,-131.92C1450.02,-123.78 1485.03,-110.66 1514,-96 1517.28,-94.34 1520.65,-92.44 1523.92,-90.49"/>
<polygon fill="#63b8ff" stroke="#63b8ff" points="1526.03,-93.3 1532.64,-85.02 1522.31,-87.37 1526.03,-93.3"/>
</g>
<!-- Node21 -->
<g id="node21" class="node">
<title>Node21</title>
<g id="a_node21"><a xlink:title=" ">
<polygon fill="#e0e0e0" stroke="#999999" points="1657,-85 1585,-85 1585,-66 1657,-66 1657,-85"/>
<text text-anchor="middle" x="1621" y="-73" font-family="Helvetica,sans-Serif" font-size="10.00">date/date.h</text>
</a>
</g>
</g>
<!-- Node11&#45;&gt;Node21 -->
<g id="edge20" class="edge">
<title>Node11&#45;&gt;Node21</title>
<path fill="none" stroke="#63b8ff" d="M1439.06,-132.67C1474.86,-124.87 1529.72,-111.8 1576,-96 1581.78,-94.03 1587.86,-91.63 1593.61,-89.2"/>
<polygon fill="#63b8ff" stroke="#63b8ff" points="1595.11,-92.36 1602.87,-85.14 1592.31,-85.95 1595.11,-92.36"/>
</g>
<!-- Node22 -->
<g id="node22" class="node">
<title>Node22</title>
<g id="a_node22"><a xlink:title=" ">
<polygon fill="#e0e0e0" stroke="#999999" points="1773,-85 1675,-85 1675,-66 1773,-66 1773,-85"/>
<text text-anchor="middle" x="1724" y="-73" font-family="Helvetica,sans-Serif" font-size="10.00">pcg_random.hpp</text>
</a>
</g>
</g>
<!-- Node11&#45;&gt;Node22 -->
<g id="edge21" class="edge">
<title>Node11&#45;&gt;Node22</title>
<path fill="none" stroke="#63b8ff" d="M1439.13,-136.02C1490.97,-129.5 1586.35,-115.94 1666,-96 1674.43,-93.89 1683.38,-91.14 1691.68,-88.37"/>
<polygon fill="#63b8ff" stroke="#63b8ff" points="1693.07,-91.6 1701.38,-85.03 1690.79,-84.98 1693.07,-91.6"/>
</g>
<!-- Node23 -->
<g id="node23" class="node">
<title>Node23</title>
<g id="a_node23"><a xlink:title=" ">
<polygon fill="#e0e0e0" stroke="#999999" points="1877,-85 1791,-85 1791,-66 1877,-66 1877,-85"/>
<text text-anchor="middle" x="1834" y="-73" font-family="Helvetica,sans-Serif" font-size="10.00">fmt/ostream.h</text>
</a>
</g>
</g>
<!-- Node11&#45;&gt;Node23 -->
<g id="edge22" class="edge">
<title>Node11&#45;&gt;Node23</title>
<path fill="none" stroke="#63b8ff" d="M1439.12,-139.1C1508.32,-135.89 1658.86,-125.81 1782,-96 1789.69,-94.14 1797.79,-91.47 1805.25,-88.7"/>
<polygon fill="#63b8ff" stroke="#63b8ff" points="1806.55,-91.95 1814.6,-85.06 1804.01,-85.42 1806.55,-91.95"/>
</g>
<!-- Node24 -->
<g id="node24" class="node">
<title>Node24</title>
<g id="a_node24"><a xlink:title=" ">
<polygon fill="#e0e0e0" stroke="#999999" points="2001,-90.5 1895,-90.5 1895,-60.5 2001,-60.5 2001,-90.5"/>
<text text-anchor="start" x="1903" y="-78.5" font-family="Helvetica,sans-Serif" font-size="10.00">spdlog/sinks/basic</text>
<text text-anchor="middle" x="1948" y="-67.5" font-family="Helvetica,sans-Serif" font-size="10.00">_file_sink.h</text>
</a>
</g>
</g>
<!-- Node11&#45;&gt;Node24 -->
<g id="edge23" class="edge">
<title>Node11&#45;&gt;Node24</title>
<path fill="none" stroke="#63b8ff" d="M1439.13,-139.76C1521.49,-137.55 1721.86,-128.95 1886,-96 1889.87,-95.22 1893.84,-94.29 1897.82,-93.27"/>
<polygon fill="#63b8ff" stroke="#63b8ff" points="1898.93,-96.59 1907.64,-90.55 1897.06,-89.85 1898.93,-96.59"/>
</g>
<!-- Node25 -->
<g id="node25" class="node">
<title>Node25</title>
<g id="a_node25"><a xlink:title=" ">
<polygon fill="#e0e0e0" stroke="#999999" points="2130.5,-90.5 2019.5,-90.5 2019.5,-60.5 2130.5,-60.5 2130.5,-90.5"/>
<text text-anchor="start" x="2027.5" y="-78.5" font-family="Helvetica,sans-Serif" font-size="10.00">spdlog/sinks/stdout</text>
<text text-anchor="middle" x="2075" y="-67.5" font-family="Helvetica,sans-Serif" font-size="10.00">_color_sinks.h</text>
</a>
</g>
</g>
<!-- Node11&#45;&gt;Node25 -->
<g id="edge24" class="edge">
<title>Node11&#45;&gt;Node25</title>
<path fill="none" stroke="#63b8ff" d="M1439.14,-140.59C1535.6,-140.2 1796.8,-135.28 2010,-96 2014.35,-95.2 2018.83,-94.21 2023.3,-93.11"/>
<polygon fill="#63b8ff" stroke="#63b8ff" points="2024.24,-96.48 2033.02,-90.55 2022.46,-89.71 2024.24,-96.48"/>
</g>
<!-- Node26 -->
<g id="node26" class="node">
<title>Node26</title>
<g id="a_node26"><a xlink:title=" ">
<polygon fill="#e0e0e0" stroke="#999999" points="2241.5,-85 2148.5,-85 2148.5,-66 2241.5,-66 2241.5,-85"/>
<text text-anchor="middle" x="2195" y="-73" font-family="Helvetica,sans-Serif" font-size="10.00">spdlog/spdlog.h</text>
</a>
</g>
</g>
<!-- Node11&#45;&gt;Node26 -->
<g id="edge25" class="edge">
<title>Node11&#45;&gt;Node26</title>
<path fill="none" stroke="#63b8ff" d="M1439.07,-139.62C1570.38,-136.35 2003.81,-123.67 2140,-96 2148.54,-94.26 2157.55,-91.49 2165.75,-88.58"/>
<polygon fill="#63b8ff" stroke="#63b8ff" points="2167.13,-91.8 2175.27,-85.01 2164.68,-85.25 2167.13,-91.8"/>
</g>
</g>
</svg>
