<?xml version="1.0" encoding="UTF-8" standalone="no"?>
<!DOCTYPE svg PUBLIC "-//W3C//DTD SVG 1.1//EN"
 "http://www.w3.org/Graphics/SVG/1.1/DTD/svg11.dtd">
<!-- Generated by graphviz version 2.43.0 (0)
 -->
<!-- Title: include/Foliated_triangulation.hpp Pages: 1 -->
<svg width="1652pt" height="401pt"
 viewBox="0.00 0.00 1652.00 401.00" xmlns="http://www.w3.org/2000/svg" xmlns:xlink="http://www.w3.org/1999/xlink">
<g id="graph0" class="graph" transform="scale(1 1) rotate(0) translate(4 397)">
<title>include/Foliated_triangulation.hpp</title>
<!-- Node1 -->
<g id="node1" class="node">
<title>Node1</title>
<g id="a_node1"><a xlink:title="Create foliated spherical triangulations.">
<polygon fill="#999999" stroke="#666666" points="1406.5,-393 1224.5,-393 1224.5,-374 1406.5,-374 1406.5,-393"/>
<text text-anchor="middle" x="1315.5" y="-381" font-family="Helvetica,sans-Serif" font-size="10.00">include/Foliated_triangulation.hpp</text>
</a>
</g>
</g>
<!-- Node2 -->
<g id="node2" class="node">
<title>Node2</title>
<g id="a_node2"><a xlink:href="_geometry_8hpp.html" target="_top" xlink:title="Geometric scalars of the Manifold used to calculate the Regge action.">
<polygon fill="white" stroke="#666666" points="1222,-332.5 1099,-332.5 1099,-313.5 1222,-313.5 1222,-332.5"/>
<text text-anchor="middle" x="1160.5" y="-320.5" font-family="Helvetica,sans-Serif" font-size="10.00">include/Geometry.hpp</text>
</a>
</g>
</g>
<!-- Node1&#45;&gt;Node2 -->
<g id="edge1" class="edge">
<title>Node1&#45;&gt;Node2</title>
<path fill="none" stroke="#63b8ff" d="M1283.38,-370.38C1253.42,-359.07 1209.48,-342.49 1183.07,-332.52"/>
<polygon fill="#63b8ff" stroke="#63b8ff" points="1282.37,-373.74 1292.96,-373.99 1284.84,-367.19 1282.37,-373.74"/>
</g>
<!-- Node24 -->
<g id="node24" class="node">
<title>Node24</title>
<g id="a_node24"><a xlink:href="_foliated__triangulation__test_8cpp.html" target="_top" xlink:title="Tests for foliated triangulations.">
<polygon fill="white" stroke="#666666" points="1390.5,-338 1240.5,-338 1240.5,-308 1390.5,-308 1390.5,-338"/>
<text text-anchor="start" x="1248.5" y="-326" font-family="Helvetica,sans-Serif" font-size="10.00">tests/Foliated_triangulation</text>
<text text-anchor="middle" x="1315.5" y="-315" font-family="Helvetica,sans-Serif" font-size="10.00">_test.cpp</text>
</a>
</g>
</g>
<!-- Node1&#45;&gt;Node24 -->
<g id="edge23" class="edge">
<title>Node1&#45;&gt;Node24</title>
<path fill="none" stroke="#63b8ff" d="M1315.5,-363.65C1315.5,-355.36 1315.5,-345.78 1315.5,-338.11"/>
<polygon fill="#63b8ff" stroke="#63b8ff" points="1312,-363.87 1315.5,-373.87 1319,-363.87 1312,-363.87"/>
</g>
<!-- Node25 -->
<g id="node25" class="node">
<title>Node25</title>
<g id="a_node25"><a xlink:href="_tetrahedron__test_8cpp.html" target="_top" xlink:title="Tests for 3D triangulated and foliated tetrahedrons.">
<polygon fill="white" stroke="#666666" points="1554.5,-332.5 1408.5,-332.5 1408.5,-313.5 1554.5,-313.5 1554.5,-332.5"/>
<text text-anchor="middle" x="1481.5" y="-320.5" font-family="Helvetica,sans-Serif" font-size="10.00">tests/Tetrahedron_test.cpp</text>
</a>
</g>
</g>
<!-- Node1&#45;&gt;Node25 -->
<g id="edge24" class="edge">
<title>Node1&#45;&gt;Node25</title>
<path fill="none" stroke="#63b8ff" d="M1349.48,-370.52C1381.58,-359.21 1428.92,-342.53 1457.33,-332.52"/>
<polygon fill="#63b8ff" stroke="#63b8ff" points="1347.91,-367.37 1339.64,-373.99 1350.23,-373.97 1347.91,-367.37"/>
</g>
<!-- Node3 -->
<g id="node3" class="node">
<title>Node3</title>
<g id="a_node3"><a xlink:href="_manifold_8hpp.html" target="_top" xlink:title="Data structures for manifolds.">
<polygon fill="white" stroke="#666666" points="1147,-272 1028,-272 1028,-253 1147,-253 1147,-272"/>
<text text-anchor="middle" x="1087.5" y="-260" font-family="Helvetica,sans-Serif" font-size="10.00">include/Manifold.hpp</text>
</a>
</g>
</g>
<!-- Node2&#45;&gt;Node3 -->
<g id="edge2" class="edge">
<title>Node2&#45;&gt;Node3</title>
<path fill="none" stroke="#63b8ff" d="M1141.83,-307.04C1128.04,-295.99 1109.76,-281.34 1098.32,-272.17"/>
<polygon fill="#63b8ff" stroke="#63b8ff" points="1139.74,-309.85 1149.73,-313.37 1144.11,-304.38 1139.74,-309.85"/>
</g>
<!-- Node23 -->
<g id="node23" class="node">
<title>Node23</title>
<g id="a_node23"><a xlink:href="_geometry__test_8cpp.html" target="_top" xlink:title="Tests of new geometry data structure.">
<polygon fill="white" stroke="#666666" points="1302,-272 1165,-272 1165,-253 1302,-253 1302,-272"/>
<text text-anchor="middle" x="1233.5" y="-260" font-family="Helvetica,sans-Serif" font-size="10.00">tests/Geometry_test.cpp</text>
</a>
</g>
</g>
<!-- Node2&#45;&gt;Node23 -->
<g id="edge22" class="edge">
<title>Node2&#45;&gt;Node23</title>
<path fill="none" stroke="#63b8ff" d="M1179.17,-307.04C1192.96,-295.99 1211.24,-281.34 1222.68,-272.17"/>
<polygon fill="#63b8ff" stroke="#63b8ff" points="1176.89,-304.38 1171.27,-313.37 1181.26,-309.85 1176.89,-304.38"/>
</g>
<!-- Node4 -->
<g id="node4" class="node">
<title>Node4</title>
<g id="a_node4"><a xlink:href="_ergodic__moves__3_8hpp.html" target="_top" xlink:title="Pachner moves on 2+1 dimensional foliated Delaunay triangulations.">
<polygon fill="white" stroke="#666666" points="698,-217 569,-217 569,-187 698,-187 698,-217"/>
<text text-anchor="start" x="577" y="-205" font-family="Helvetica,sans-Serif" font-size="10.00">include/Ergodic_moves</text>
<text text-anchor="middle" x="633.5" y="-194" font-family="Helvetica,sans-Serif" font-size="10.00">_3.hpp</text>
</a>
</g>
</g>
<!-- Node3&#45;&gt;Node4 -->
<g id="edge3" class="edge">
<title>Node3&#45;&gt;Node4</title>
<path fill="none" stroke="#63b8ff" d="M1017.78,-254.82C941.42,-247.16 815.42,-233.51 707.5,-217 704.4,-216.53 701.23,-216.02 698.03,-215.48"/>
<polygon fill="#63b8ff" stroke="#63b8ff" points="1017.46,-258.31 1027.76,-255.82 1018.16,-251.34 1017.46,-258.31"/>
</g>
<!-- Node16 -->
<g id="node16" class="node">
<title>Node16</title>
<g id="a_node16"><a xlink:href="cdt-viewer_8cpp.html" target="_top" xlink:title="Views 3D spacetimes.">
<polygon fill="white" stroke="#666666" points="820.5,-211.5 716.5,-211.5 716.5,-192.5 820.5,-192.5 820.5,-211.5"/>
<text text-anchor="middle" x="768.5" y="-199.5" font-family="Helvetica,sans-Serif" font-size="10.00">src/cdt&#45;viewer.cpp</text>
</a>
</g>
</g>
<!-- Node3&#45;&gt;Node16 -->
<g id="edge15" class="edge">
<title>Node3&#45;&gt;Node16</title>
<path fill="none" stroke="#63b8ff" d="M1022.84,-251.36C970.55,-242.91 895.09,-230.17 829.5,-217 821.3,-215.35 812.51,-213.43 804.23,-211.55"/>
<polygon fill="#63b8ff" stroke="#63b8ff" points="1022.55,-254.85 1032.98,-252.99 1023.66,-247.94 1022.55,-254.85"/>
</g>
<!-- Node17 -->
<g id="node17" class="node">
<title>Node17</title>
<g id="a_node17"><a xlink:href="initialize_8cpp.html" target="_top" xlink:title="Generates initial spacetimes.">
<polygon fill="white" stroke="#666666" points="934.5,-211.5 838.5,-211.5 838.5,-192.5 934.5,-192.5 934.5,-211.5"/>
<text text-anchor="middle" x="886.5" y="-199.5" font-family="Helvetica,sans-Serif" font-size="10.00">src/initialize.cpp</text>
</a>
</g>
</g>
<!-- Node3&#45;&gt;Node17 -->
<g id="edge16" class="edge">
<title>Node3&#45;&gt;Node17</title>
<path fill="none" stroke="#63b8ff" d="M1048.36,-250.11C1009.48,-238.79 950.76,-221.7 915.76,-211.52"/>
<polygon fill="#63b8ff" stroke="#63b8ff" points="1047.69,-253.56 1058.27,-252.99 1049.65,-246.84 1047.69,-253.56"/>
</g>
<!-- Node18 -->
<g id="node18" class="node">
<title>Node18</title>
<g id="a_node18"><a xlink:href="_manifold__test_8cpp.html" target="_top" xlink:title="Tests of new manifold data structure.">
<polygon fill="white" stroke="#666666" points="1084,-211.5 953,-211.5 953,-192.5 1084,-192.5 1084,-211.5"/>
<text text-anchor="middle" x="1018.5" y="-199.5" font-family="Helvetica,sans-Serif" font-size="10.00">tests/Manifold_test.cpp</text>
</a>
</g>
</g>
<!-- Node3&#45;&gt;Node18 -->
<g id="edge17" class="edge">
<title>Node3&#45;&gt;Node18</title>
<path fill="none" stroke="#63b8ff" d="M1069.48,-246.22C1056.5,-235.21 1039.44,-220.75 1028.72,-211.67"/>
<polygon fill="#63b8ff" stroke="#63b8ff" points="1067.43,-249.07 1077.32,-252.87 1071.95,-243.73 1067.43,-249.07"/>
</g>
<!-- Node19 -->
<g id="node19" class="node">
<title>Node19</title>
<g id="a_node19"><a xlink:href="_move__tracker__test_8cpp.html" target="_top" xlink:title="Tests of MoveTracker, that is, that moves are tracked properly.">
<polygon fill="white" stroke="#666666" points="1212.5,-217 1102.5,-217 1102.5,-187 1212.5,-187 1212.5,-217"/>
<text text-anchor="start" x="1110.5" y="-205" font-family="Helvetica,sans-Serif" font-size="10.00">tests/Move_tracker</text>
<text text-anchor="middle" x="1157.5" y="-194" font-family="Helvetica,sans-Serif" font-size="10.00">_test.cpp</text>
</a>
</g>
</g>
<!-- Node3&#45;&gt;Node19 -->
<g id="edge18" class="edge">
<title>Node3&#45;&gt;Node19</title>
<path fill="none" stroke="#63b8ff" d="M1105.77,-246.23C1116.54,-237.23 1130.08,-225.91 1140.61,-217.11"/>
<polygon fill="#63b8ff" stroke="#63b8ff" points="1103.26,-243.77 1097.83,-252.87 1107.75,-249.14 1103.26,-243.77"/>
</g>
<!-- Node20 -->
<g id="node20" class="node">
<title>Node20</title>
<g id="a_node20"><a xlink:href="_s3_action__test_8cpp.html" target="_top" xlink:title="Tests for the S3 action functions.">
<polygon fill="white" stroke="#666666" points="1362,-211.5 1231,-211.5 1231,-192.5 1362,-192.5 1362,-211.5"/>
<text text-anchor="middle" x="1296.5" y="-199.5" font-family="Helvetica,sans-Serif" font-size="10.00">tests/S3Action_test.cpp</text>
</a>
</g>
</g>
<!-- Node3&#45;&gt;Node20 -->
<g id="edge19" class="edge">
<title>Node3&#45;&gt;Node20</title>
<path fill="none" stroke="#63b8ff" d="M1127.69,-250.25C1168.1,-238.94 1229.53,-221.75 1266.07,-211.52"/>
<polygon fill="#63b8ff" stroke="#63b8ff" points="1126.58,-246.93 1117.89,-252.99 1128.46,-253.67 1126.58,-246.93"/>
</g>
<!-- Node21 -->
<g id="node21" class="node">
<title>Node21</title>
<g id="a_node21"><a xlink:href="_utilities__test_8cpp.html" target="_top" xlink:title="Tests on utility functions.">
<polygon fill="white" stroke="#666666" points="1506.5,-211.5 1380.5,-211.5 1380.5,-192.5 1506.5,-192.5 1506.5,-211.5"/>
<text text-anchor="middle" x="1443.5" y="-199.5" font-family="Helvetica,sans-Serif" font-size="10.00">tests/Utilities_test.cpp</text>
</a>
</g>
</g>
<!-- Node3&#45;&gt;Node21 -->
<g id="edge20" class="edge">
<title>Node3&#45;&gt;Node21</title>
<path fill="none" stroke="#63b8ff" d="M1156.15,-251.46C1213.74,-242.87 1298.12,-229.88 1371.5,-217 1381.03,-215.33 1391.25,-213.41 1400.91,-211.55"/>
<polygon fill="#63b8ff" stroke="#63b8ff" points="1155.45,-248.03 1146.07,-252.96 1156.48,-254.95 1155.45,-248.03"/>
</g>
<!-- Node22 -->
<g id="node22" class="node">
<title>Node22</title>
<g id="a_node22"><a xlink:href="_vertex__test_8cpp.html" target="_top" xlink:title="Tests on points and vertices in foliated Delaunay triangulations.">
<polygon fill="white" stroke="#666666" points="1644,-211.5 1525,-211.5 1525,-192.5 1644,-192.5 1644,-211.5"/>
<text text-anchor="middle" x="1584.5" y="-199.5" font-family="Helvetica,sans-Serif" font-size="10.00">tests/Vertex_test.cpp</text>
</a>
</g>
</g>
<!-- Node3&#45;&gt;Node22 -->
<g id="edge21" class="edge">
<title>Node3&#45;&gt;Node22</title>
<path fill="none" stroke="#63b8ff" d="M1157.54,-252.92C1317.6,-235.42 1360.2,-240.48 1515.5,-217 1525.41,-215.5 1536.05,-213.53 1545.94,-211.53"/>
<polygon fill="#63b8ff" stroke="#63b8ff" points="1156.88,-249.47 1147.33,-254.05 1157.65,-256.43 1156.88,-249.47"/>
</g>
<!-- Node5 -->
<g id="node5" class="node">
<title>Node5</title>
<g id="a_node5"><a xlink:href="_move__command_8hpp.html" target="_top" xlink:title="Do ergodic moves using the Command pattern.">
<polygon fill="white" stroke="#666666" points="396,-145.5 239,-145.5 239,-126.5 396,-126.5 396,-145.5"/>
<text text-anchor="middle" x="317.5" y="-133.5" font-family="Helvetica,sans-Serif" font-size="10.00">include/Move_command.hpp</text>
</a>
</g>
</g>
<!-- Node4&#45;&gt;Node5 -->
<g id="edge4" class="edge">
<title>Node4&#45;&gt;Node5</title>
<path fill="none" stroke="#63b8ff" d="M558.66,-185.84C496.64,-173.28 410.69,-155.87 359.91,-145.59"/>
<polygon fill="#63b8ff" stroke="#63b8ff" points="558.29,-189.34 568.79,-187.89 559.68,-182.48 558.29,-189.34"/>
</g>
<!-- Node12 -->
<g id="node12" class="node">
<title>Node12</title>
<g id="a_node12"><a xlink:href="_apply__move__test_8cpp.html" target="_top" xlink:title="Applying ergodic moves to manifolds.">
<polygon fill="white" stroke="#666666" points="563,-145.5 414,-145.5 414,-126.5 563,-126.5 563,-145.5"/>
<text text-anchor="middle" x="488.5" y="-133.5" font-family="Helvetica,sans-Serif" font-size="10.00">tests/Apply_move_test.cpp</text>
</a>
</g>
</g>
<!-- Node4&#45;&gt;Node12 -->
<g id="edge11" class="edge">
<title>Node4&#45;&gt;Node12</title>
<path fill="none" stroke="#63b8ff" d="M592.22,-182.78C564.5,-170.54 529.24,-154.98 507.8,-145.52"/>
<polygon fill="#63b8ff" stroke="#63b8ff" points="591.12,-186.12 601.68,-186.95 593.94,-179.71 591.12,-186.12"/>
</g>
<!-- Node13 -->
<g id="node13" class="node">
<title>Node13</title>
<g id="a_node13"><a xlink:href="_bistellar__flip__test_8cpp.html" target="_top" xlink:title="Comprehensive tests for bistellar flip operations.">
<polygon fill="white" stroke="#666666" points="685.5,-151 581.5,-151 581.5,-121 685.5,-121 685.5,-151"/>
<text text-anchor="start" x="589.5" y="-139" font-family="Helvetica,sans-Serif" font-size="10.00">tests/Bistellar_flip</text>
<text text-anchor="middle" x="633.5" y="-128" font-family="Helvetica,sans-Serif" font-size="10.00">_test.cpp</text>
</a>
</g>
</g>
<!-- Node4&#45;&gt;Node13 -->
<g id="edge12" class="edge">
<title>Node4&#45;&gt;Node13</title>
<path fill="none" stroke="#63b8ff" d="M633.5,-176.54C633.5,-167.96 633.5,-158.61 633.5,-151.16"/>
<polygon fill="#63b8ff" stroke="#63b8ff" points="630,-176.8 633.5,-186.8 637,-176.8 630,-176.8"/>
</g>
<!-- Node14 -->
<g id="node14" class="node">
<title>Node14</title>
<g id="a_node14"><a xlink:href="_ergodic__moves__3__test_8cpp.html" target="_top" xlink:title="Tests for ergodic moves on foliated triangulations.">
<polygon fill="white" stroke="#666666" points="821.5,-151 703.5,-151 703.5,-121 821.5,-121 821.5,-151"/>
<text text-anchor="start" x="711.5" y="-139" font-family="Helvetica,sans-Serif" font-size="10.00">tests/Ergodic_moves</text>
<text text-anchor="middle" x="762.5" y="-128" font-family="Helvetica,sans-Serif" font-size="10.00">_3_test.cpp</text>
</a>
</g>
</g>
<!-- Node4&#45;&gt;Node14 -->
<g id="edge13" class="edge">
<title>Node4&#45;&gt;Node14</title>
<path fill="none" stroke="#63b8ff" d="M671.04,-182.38C691.22,-172.36 715.7,-160.22 734.26,-151.01"/>
<polygon fill="#63b8ff" stroke="#63b8ff" points="669.21,-179.38 661.81,-186.95 672.32,-185.65 669.21,-179.38"/>
</g>
<!-- Node15 -->
<g id="node15" class="node">
<title>Node15</title>
<g id="a_node15"><a xlink:href="_function__ref__test_8cpp.html" target="_top" xlink:title="Tests on function pointers, lambdas, and function_refs.">
<polygon fill="white" stroke="#666666" points="943.5,-151 839.5,-151 839.5,-121 943.5,-121 943.5,-151"/>
<text text-anchor="start" x="847.5" y="-139" font-family="Helvetica,sans-Serif" font-size="10.00">tests/Function_ref</text>
<text text-anchor="middle" x="891.5" y="-128" font-family="Helvetica,sans-Serif" font-size="10.00">_test.cpp</text>
</a>
</g>
</g>
<!-- Node4&#45;&gt;Node15 -->
<g id="edge14" class="edge">
<title>Node4&#45;&gt;Node15</title>
<path fill="none" stroke="#63b8ff" d="M700.02,-184.5C743.41,-173.74 799.24,-159.89 839.4,-149.92"/>
<polygon fill="#63b8ff" stroke="#63b8ff" points="698.98,-181.15 690.12,-186.95 700.67,-187.94 698.98,-181.15"/>
</g>
<!-- Node6 -->
<g id="node6" class="node">
<title>Node6</title>
<g id="a_node6"><a xlink:href="_metropolis_8hpp.html" target="_top" xlink:title="Perform Metropolis&#45;Hastings algorithm on Delaunay Triangulations.">
<polygon fill="white" stroke="#666666" points="221.5,-79.5 93.5,-79.5 93.5,-60.5 221.5,-60.5 221.5,-79.5"/>
<text text-anchor="middle" x="157.5" y="-67.5" font-family="Helvetica,sans-Serif" font-size="10.00">include/Metropolis.hpp</text>
</a>
</g>
</g>
<!-- Node5&#45;&gt;Node6 -->
<g id="edge5" class="edge">
<title>Node5&#45;&gt;Node6</title>
<path fill="none" stroke="#63b8ff" d="M286.28,-122.51C254.65,-109.86 206.58,-90.63 178.99,-79.6"/>
<polygon fill="#63b8ff" stroke="#63b8ff" points="285.34,-125.9 295.92,-126.37 287.94,-119.41 285.34,-125.9"/>
</g>
<!-- Node9 -->
<g id="node9" class="node">
<title>Node9</title>
<g id="a_node9"><a xlink:href="_move__always_8hpp.html" target="_top" xlink:title="Randomly selects moves to always perform on triangulations.">
<polygon fill="white" stroke="#666666" points="389,-79.5 246,-79.5 246,-60.5 389,-60.5 389,-79.5"/>
<text text-anchor="middle" x="317.5" y="-67.5" font-family="Helvetica,sans-Serif" font-size="10.00">include/Move_always.hpp</text>
</a>
</g>
</g>
<!-- Node5&#45;&gt;Node9 -->
<g id="edge8" class="edge">
<title>Node5&#45;&gt;Node9</title>
<path fill="none" stroke="#63b8ff" d="M317.5,-116.08C317.5,-104.13 317.5,-89.22 317.5,-79.91"/>
<polygon fill="#63b8ff" stroke="#63b8ff" points="314,-116.37 317.5,-126.37 321,-116.37 314,-116.37"/>
</g>
<!-- Node11 -->
<g id="node11" class="node">
<title>Node11</title>
<g id="a_node11"><a xlink:href="_move__command__test_8cpp.html" target="_top" xlink:title="Tests of MoveCommand, that is, that moves are handled properly.">
<polygon fill="white" stroke="#666666" points="532,-85 407,-85 407,-55 532,-55 532,-85"/>
<text text-anchor="start" x="415" y="-73" font-family="Helvetica,sans-Serif" font-size="10.00">tests/Move_command</text>
<text text-anchor="middle" x="469.5" y="-62" font-family="Helvetica,sans-Serif" font-size="10.00">_test.cpp</text>
</a>
</g>
</g>
<!-- Node5&#45;&gt;Node11 -->
<g id="edge10" class="edge">
<title>Node5&#45;&gt;Node11</title>
<path fill="none" stroke="#63b8ff" d="M347.51,-122.36C373,-111.63 409.54,-96.25 435.98,-85.12"/>
<polygon fill="#63b8ff" stroke="#63b8ff" points="345.86,-119.26 338,-126.37 348.57,-125.71 345.86,-119.26"/>
</g>
<!-- Node7 -->
<g id="node7" class="node">
<title>Node7</title>
<g id="a_node7"><a xlink:href="cdt_8cpp.html" target="_top" xlink:title="The main executable.">
<polygon fill="white" stroke="#666666" points="69,-19 0,-19 0,0 69,0 69,-19"/>
<text text-anchor="middle" x="34.5" y="-7" font-family="Helvetica,sans-Serif" font-size="10.00">src/cdt.cpp</text>
</a>
</g>
</g>
<!-- Node6&#45;&gt;Node7 -->
<g id="edge6" class="edge">
<title>Node6&#45;&gt;Node7</title>
<path fill="none" stroke="#63b8ff" d="M130.45,-56.13C106.72,-44.85 72.91,-28.77 52.41,-19.02"/>
<polygon fill="#63b8ff" stroke="#63b8ff" points="129.08,-59.36 139.61,-60.49 132.09,-53.04 129.08,-59.36"/>
</g>
<!-- Node8 -->
<g id="node8" class="node">
<title>Node8</title>
<g id="a_node8"><a xlink:href="_metropolis__test_8cpp.html" target="_top" xlink:title="Tests for the Metropolis&#45;Hastings algorithm.">
<polygon fill="white" stroke="#666666" points="227.5,-19 87.5,-19 87.5,0 227.5,0 227.5,-19"/>
<text text-anchor="middle" x="157.5" y="-7" font-family="Helvetica,sans-Serif" font-size="10.00">tests/Metropolis_test.cpp</text>
</a>
</g>
</g>
<!-- Node6&#45;&gt;Node8 -->
<g id="edge7" class="edge">
<title>Node6&#45;&gt;Node8</title>
<path fill="none" stroke="#63b8ff" d="M157.5,-50.16C157.5,-39.74 157.5,-27.3 157.5,-19.17"/>
<polygon fill="#63b8ff" stroke="#63b8ff" points="154,-50.37 157.5,-60.37 161,-50.37 154,-50.37"/>
</g>
<!-- Node10 -->
<g id="node10" class="node">
<title>Node10</title>
<g id="a_node10"><a xlink:href="_move__always__test_8cpp.html" target="_top" xlink:title="Tests for the Move Always algorithm.">
<polygon fill="white" stroke="#666666" points="401,-19 246,-19 246,0 401,0 401,-19"/>
<text text-anchor="middle" x="323.5" y="-7" font-family="Helvetica,sans-Serif" font-size="10.00">tests/Move_always_test.cpp</text>
</a>
</g>
</g>
<!-- Node9&#45;&gt;Node10 -->
<g id="edge9" class="edge">
<title>Node9&#45;&gt;Node10</title>
<path fill="none" stroke="#63b8ff" d="M319.43,-50.16C320.5,-39.74 321.78,-27.3 322.61,-19.17"/>
<polygon fill="#63b8ff" stroke="#63b8ff" points="315.92,-50.06 318.39,-60.37 322.89,-50.78 315.92,-50.06"/>
</g>
</g>
</svg>
