<?xml version="1.0" encoding="UTF-8" standalone="no"?>
<!DOCTYPE svg PUBLIC "-//W3C//DTD SVG 1.1//EN"
 "http://www.w3.org/Graphics/SVG/1.1/DTD/svg11.dtd">
<!-- Generated by graphviz version 2.43.0 (0)
 -->
<!-- Title: include/Foliated_triangulation.hpp Pages: 1 -->
<!--zoomable 401 -->
<svg id="main" version="1.1" xmlns="http://www.w3.org/2000/svg" xmlns:xlink="http://www.w3.org/1999/xlink" xml:space="preserve" onload="init(evt)">
<style type="text/css"><![CDATA[
.edge:hover path { stroke: red; }
.edge:hover polygon { stroke: red; fill: red; }
]]></style>
<script type="text/javascript"><![CDATA[
var edges = document.getElementsByTagName('g');
if (edges && edges.length) {
  for (var i=0;i<edges.length;i++) {
    if (edges[i].id.substr(0,4)=='edge') {
      edges[i].setAttribute('class','edge');
    }
  }
}
]]></script>
        <defs>
                <circle id="rim" cx="0" cy="0" r="7"/>
                <circle id="rim2" cx="0" cy="0" r="3.5"/>
                <g id="zoomPlus">
                        <use xlink:href="#rim" fill="#404040">
                                <set attributeName="fill" to="#808080" begin="zoomplus.mouseover" end="zoomplus.mouseout"/>
                        </use>
                        <path d="M-4,0h8M0,-4v8" fill="none" stroke="white" stroke-width="1.5" pointer-events="none"/>
                </g>
                <g id="zoomMin">
                        <use xlink:href="#rim" fill="#404040">
                                <set attributeName="fill" to="#808080" begin="zoomminus.mouseover" end="zoomminus.mouseout"/>
                        </use>
                        <path d="M-4,0h8" fill="none" stroke="white" stroke-width="1.5" pointer-events="none"/>
                </g>
                <g id="dirArrow">
                        <path fill="none" stroke="white" stroke-width="1.5" d="M0,-3.0v7 M-2.5,-0.5L0,-3.0L2.5,-0.5"/>
                </g>
               <g id="resetDef">
                       <use xlink:href="#rim2" fill="#404040">
                               <set attributeName="fill" to="#808080" begin="reset.mouseover" end="reset.mouseout"/>
                       </use>
               </g>
        </defs>

<script type="text/javascript">
var viewWidth = 1704;
var viewHeight = 401;
var sectionId = 'dynsection-1';
</script>
<script xlink:href="svgpan.js"/>
<svg id="graph" class="graph">
<g id="viewport">
<title>include/Foliated_triangulation.hpp</title>
<!-- Node1 -->
<g id="node1" class="node">
<title>Node1</title>
<g id="a_node1"><a xlink:title="Create foliated spherical triangulations.">
<polygon fill="#999999" stroke="#666666" points="1458.5,-393 1276.5,-393 1276.5,-374 1458.5,-374 1458.5,-393"/>
<text text-anchor="middle" x="1367.5" y="-381" font-family="Helvetica,sans-Serif" font-size="10.00">include/Foliated_triangulation.hpp</text>
</a>
</g>
</g>
<!-- Node2 -->
<g id="node2" class="node">
<title>Node2</title>
<g id="a_node2"><a xlink:href="_geometry_8hpp.html" target="_top" xlink:title="Geometric scalars of the Manifold used to calculate the Regge action.">
<polygon fill="white" stroke="#666666" points="1274,-332.5 1151,-332.5 1151,-313.5 1274,-313.5 1274,-332.5"/>
<text text-anchor="middle" x="1212.5" y="-320.5" font-family="Helvetica,sans-Serif" font-size="10.00">include/Geometry.hpp</text>
</a>
</g>
</g>
<!-- Node1&#45;&gt;Node2 -->
<g id="edge1" class="edge">
<title>Node1&#45;&gt;Node2</title>
<path fill="none" stroke="#63b8ff" d="M1335.38,-370.38C1305.42,-359.07 1261.48,-342.49 1235.07,-332.52"/>
<polygon fill="#63b8ff" stroke="#63b8ff" points="1334.37,-373.74 1344.96,-373.99 1336.84,-367.19 1334.37,-373.74"/>
</g>
<!-- Node26 -->
<g id="node26" class="node">
<title>Node26</title>
<g id="a_node26"><a xlink:href="_foliated__triangulation__test_8cpp.html" target="_top" xlink:title="Tests for foliated triangulations.">
<polygon fill="white" stroke="#666666" points="1442.5,-338 1292.5,-338 1292.5,-308 1442.5,-308 1442.5,-338"/>
<text text-anchor="start" x="1300.5" y="-326" font-family="Helvetica,sans-Serif" font-size="10.00">tests/Foliated_triangulation</text>
<text text-anchor="middle" x="1367.5" y="-315" font-family="Helvetica,sans-Serif" font-size="10.00">_test.cpp</text>
</a>
</g>
</g>
<!-- Node1&#45;&gt;Node26 -->
<g id="edge26" class="edge">
<title>Node1&#45;&gt;Node26</title>
<path fill="none" stroke="#63b8ff" d="M1367.5,-363.65C1367.5,-355.36 1367.5,-345.78 1367.5,-338.11"/>
<polygon fill="#63b8ff" stroke="#63b8ff" points="1364,-363.87 1367.5,-373.87 1371,-363.87 1364,-363.87"/>
</g>
<!-- Node27 -->
<g id="node27" class="node">
<title>Node27</title>
<g id="a_node27"><a xlink:href="_tetrahedron__test_8cpp.html" target="_top" xlink:title="Tests for 3D triangulated and foliated tetrahedrons.">
<polygon fill="white" stroke="#666666" points="1606.5,-332.5 1460.5,-332.5 1460.5,-313.5 1606.5,-313.5 1606.5,-332.5"/>
<text text-anchor="middle" x="1533.5" y="-320.5" font-family="Helvetica,sans-Serif" font-size="10.00">tests/Tetrahedron_test.cpp</text>
</a>
</g>
</g>
<!-- Node1&#45;&gt;Node27 -->
<g id="edge27" class="edge">
<title>Node1&#45;&gt;Node27</title>
<path fill="none" stroke="#63b8ff" d="M1401.48,-370.52C1433.58,-359.21 1480.92,-342.53 1509.33,-332.52"/>
<polygon fill="#63b8ff" stroke="#63b8ff" points="1399.91,-367.37 1391.64,-373.99 1402.23,-373.97 1399.91,-367.37"/>
</g>
<!-- Node3 -->
<g id="node3" class="node">
<title>Node3</title>
<g id="a_node3"><a xlink:href="_manifold_8hpp.html" target="_top" xlink:title="Data structures for manifolds.">
<polygon fill="white" stroke="#666666" points="1199,-272 1080,-272 1080,-253 1199,-253 1199,-272"/>
<text text-anchor="middle" x="1139.5" y="-260" font-family="Helvetica,sans-Serif" font-size="10.00">include/Manifold.hpp</text>
</a>
</g>
</g>
<!-- Node2&#45;&gt;Node3 -->
<g id="edge2" class="edge">
<title>Node2&#45;&gt;Node3</title>
<path fill="none" stroke="#63b8ff" d="M1193.83,-307.04C1180.04,-295.99 1161.76,-281.34 1150.32,-272.17"/>
<polygon fill="#63b8ff" stroke="#63b8ff" points="1191.74,-309.85 1201.73,-313.37 1196.11,-304.38 1191.74,-309.85"/>
</g>
<!-- Node25 -->
<g id="node25" class="node">
<title>Node25</title>
<g id="a_node25"><a xlink:href="_geometry__test_8cpp.html" target="_top" xlink:title="Tests of new geometry data structure.">
<polygon fill="white" stroke="#666666" points="1354,-272 1217,-272 1217,-253 1354,-253 1354,-272"/>
<text text-anchor="middle" x="1285.5" y="-260" font-family="Helvetica,sans-Serif" font-size="10.00">tests/Geometry_test.cpp</text>
</a>
</g>
</g>
<!-- Node2&#45;&gt;Node25 -->
<g id="edge25" class="edge">
<title>Node2&#45;&gt;Node25</title>
<path fill="none" stroke="#63b8ff" d="M1231.17,-307.04C1244.96,-295.99 1263.24,-281.34 1274.68,-272.17"/>
<polygon fill="#63b8ff" stroke="#63b8ff" points="1228.89,-304.38 1223.27,-313.37 1233.26,-309.85 1228.89,-304.38"/>
</g>
<!-- Node4 -->
<g id="node4" class="node">
<title>Node4</title>
<g id="a_node4"><a xlink:href="_ergodic__moves__3_8hpp.html" target="_top" xlink:title="Pachner moves on 2+1 dimensional foliated Delaunay triangulations.">
<polygon fill="white" stroke="#666666" points="750,-217 621,-217 621,-187 750,-187 750,-217"/>
<text text-anchor="start" x="629" y="-205" font-family="Helvetica,sans-Serif" font-size="10.00">include/Ergodic_moves</text>
<text text-anchor="middle" x="685.5" y="-194" font-family="Helvetica,sans-Serif" font-size="10.00">_3.hpp</text>
</a>
</g>
</g>
<!-- Node3&#45;&gt;Node4 -->
<g id="edge3" class="edge">
<title>Node3&#45;&gt;Node4</title>
<path fill="none" stroke="#63b8ff" d="M1069.78,-254.82C993.42,-247.16 867.42,-233.51 759.5,-217 756.4,-216.53 753.23,-216.02 750.03,-215.48"/>
<polygon fill="#63b8ff" stroke="#63b8ff" points="1069.46,-258.31 1079.76,-255.82 1070.16,-251.34 1069.46,-258.31"/>
</g>
<!-- Node18 -->
<g id="node18" class="node">
<title>Node18</title>
<g id="a_node18"><a xlink:href="cdt-viewer_8cpp.html" target="_top" xlink:title="Views 3D spacetimes.">
<polygon fill="white" stroke="#666666" points="872.5,-211.5 768.5,-211.5 768.5,-192.5 872.5,-192.5 872.5,-211.5"/>
<text text-anchor="middle" x="820.5" y="-199.5" font-family="Helvetica,sans-Serif" font-size="10.00">src/cdt&#45;viewer.cpp</text>
</a>
</g>
</g>
<!-- Node3&#45;&gt;Node18 -->
<g id="edge18" class="edge">
<title>Node3&#45;&gt;Node18</title>
<path fill="none" stroke="#63b8ff" d="M1074.84,-251.36C1022.55,-242.91 947.09,-230.17 881.5,-217 873.3,-215.35 864.51,-213.43 856.23,-211.55"/>
<polygon fill="#63b8ff" stroke="#63b8ff" points="1074.55,-254.85 1084.98,-252.99 1075.66,-247.94 1074.55,-254.85"/>
</g>
<!-- Node19 -->
<g id="node19" class="node">
<title>Node19</title>
<g id="a_node19"><a xlink:href="initialize_8cpp.html" target="_top" xlink:title="Generates initial spacetimes.">
<polygon fill="white" stroke="#666666" points="986.5,-211.5 890.5,-211.5 890.5,-192.5 986.5,-192.5 986.5,-211.5"/>
<text text-anchor="middle" x="938.5" y="-199.5" font-family="Helvetica,sans-Serif" font-size="10.00">src/initialize.cpp</text>
</a>
</g>
</g>
<!-- Node3&#45;&gt;Node19 -->
<g id="edge19" class="edge">
<title>Node3&#45;&gt;Node19</title>
<path fill="none" stroke="#63b8ff" d="M1100.36,-250.11C1061.48,-238.79 1002.76,-221.7 967.76,-211.52"/>
<polygon fill="#63b8ff" stroke="#63b8ff" points="1099.69,-253.56 1110.27,-252.99 1101.65,-246.84 1099.69,-253.56"/>
</g>
<!-- Node20 -->
<g id="node20" class="node">
<title>Node20</title>
<g id="a_node20"><a xlink:href="_manifold__test_8cpp.html" target="_top" xlink:title="Tests of new manifold data structure.">
<polygon fill="white" stroke="#666666" points="1136,-211.5 1005,-211.5 1005,-192.5 1136,-192.5 1136,-211.5"/>
<text text-anchor="middle" x="1070.5" y="-199.5" font-family="Helvetica,sans-Serif" font-size="10.00">tests/Manifold_test.cpp</text>
</a>
</g>
</g>
<!-- Node3&#45;&gt;Node20 -->
<g id="edge20" class="edge">
<title>Node3&#45;&gt;Node20</title>
<path fill="none" stroke="#63b8ff" d="M1121.48,-246.22C1108.5,-235.21 1091.44,-220.75 1080.72,-211.67"/>
<polygon fill="#63b8ff" stroke="#63b8ff" points="1119.43,-249.07 1129.32,-252.87 1123.95,-243.73 1119.43,-249.07"/>
</g>
<!-- Node21 -->
<g id="node21" class="node">
<title>Node21</title>
<g id="a_node21"><a xlink:href="_move__tracker__test_8cpp.html" target="_top" xlink:title="Tests of MoveTracker, that is, that moves are tracked properly.">
<polygon fill="white" stroke="#666666" points="1264.5,-217 1154.5,-217 1154.5,-187 1264.5,-187 1264.5,-217"/>
<text text-anchor="start" x="1162.5" y="-205" font-family="Helvetica,sans-Serif" font-size="10.00">tests/Move_tracker</text>
<text text-anchor="middle" x="1209.5" y="-194" font-family="Helvetica,sans-Serif" font-size="10.00">_test.cpp</text>
</a>
</g>
</g>
<!-- Node3&#45;&gt;Node21 -->
<g id="edge21" class="edge">
<title>Node3&#45;&gt;Node21</title>
<path fill="none" stroke="#63b8ff" d="M1157.77,-246.23C1168.54,-237.23 1182.08,-225.91 1192.61,-217.11"/>
<polygon fill="#63b8ff" stroke="#63b8ff" points="1155.26,-243.77 1149.83,-252.87 1159.75,-249.14 1155.26,-243.77"/>
</g>
<!-- Node22 -->
<g id="node22" class="node">
<title>Node22</title>
<g id="a_node22"><a xlink:href="_s3_action__test_8cpp.html" target="_top" xlink:title="Tests for the S3 action functions.">
<polygon fill="white" stroke="#666666" points="1414,-211.5 1283,-211.5 1283,-192.5 1414,-192.5 1414,-211.5"/>
<text text-anchor="middle" x="1348.5" y="-199.5" font-family="Helvetica,sans-Serif" font-size="10.00">tests/S3Action_test.cpp</text>
</a>
</g>
</g>
<!-- Node3&#45;&gt;Node22 -->
<g id="edge22" class="edge">
<title>Node3&#45;&gt;Node22</title>
<path fill="none" stroke="#63b8ff" d="M1179.69,-250.25C1220.1,-238.94 1281.53,-221.75 1318.07,-211.52"/>
<polygon fill="#63b8ff" stroke="#63b8ff" points="1178.58,-246.93 1169.89,-252.99 1180.46,-253.67 1178.58,-246.93"/>
</g>
<!-- Node23 -->
<g id="node23" class="node">
<title>Node23</title>
<g id="a_node23"><a xlink:href="_utilities__test_8cpp.html" target="_top" xlink:title="Tests on utility functions.">
<polygon fill="white" stroke="#666666" points="1558.5,-211.5 1432.5,-211.5 1432.5,-192.5 1558.5,-192.5 1558.5,-211.5"/>
<text text-anchor="middle" x="1495.5" y="-199.5" font-family="Helvetica,sans-Serif" font-size="10.00">tests/Utilities_test.cpp</text>
</a>
</g>
</g>
<!-- Node3&#45;&gt;Node23 -->
<g id="edge23" class="edge">
<title>Node3&#45;&gt;Node23</title>
<path fill="none" stroke="#63b8ff" d="M1208.15,-251.46C1265.74,-242.87 1350.12,-229.88 1423.5,-217 1433.03,-215.33 1443.25,-213.41 1452.91,-211.55"/>
<polygon fill="#63b8ff" stroke="#63b8ff" points="1207.45,-248.03 1198.07,-252.96 1208.48,-254.95 1207.45,-248.03"/>
</g>
<!-- Node24 -->
<g id="node24" class="node">
<title>Node24</title>
<g id="a_node24"><a xlink:href="_vertex__test_8cpp.html" target="_top" xlink:title="Tests on points and vertices in foliated Delaunay triangulations.">
<polygon fill="white" stroke="#666666" points="1696,-211.5 1577,-211.5 1577,-192.5 1696,-192.5 1696,-211.5"/>
<text text-anchor="middle" x="1636.5" y="-199.5" font-family="Helvetica,sans-Serif" font-size="10.00">tests/Vertex_test.cpp</text>
</a>
</g>
</g>
<!-- Node3&#45;&gt;Node24 -->
<g id="edge24" class="edge">
<title>Node3&#45;&gt;Node24</title>
<path fill="none" stroke="#63b8ff" d="M1209.54,-252.92C1369.6,-235.42 1412.2,-240.48 1567.5,-217 1577.41,-215.5 1588.05,-213.53 1597.94,-211.53"/>
<polygon fill="#63b8ff" stroke="#63b8ff" points="1208.88,-249.47 1199.33,-254.05 1209.65,-256.43 1208.88,-249.47"/>
</g>
<!-- Node5 -->
<g id="node5" class="node">
<title>Node5</title>
<g id="a_node5"><a xlink:href="_move__command_8hpp.html" target="_top" xlink:title="Do ergodic moves using the Command pattern.">
<polygon fill="white" stroke="#666666" points="390,-145.5 233,-145.5 233,-126.5 390,-126.5 390,-145.5"/>
<text text-anchor="middle" x="311.5" y="-133.5" font-family="Helvetica,sans-Serif" font-size="10.00">include/Move_command.hpp</text>
</a>
</g>
</g>
<!-- Node4&#45;&gt;Node5 -->
<g id="edge4" class="edge">
<title>Node4&#45;&gt;Node5</title>
<path fill="none" stroke="#63b8ff" d="M610.58,-188.18C536.51,-175.51 425.26,-156.47 361.39,-145.54"/>
<polygon fill="#63b8ff" stroke="#63b8ff" points="610.33,-191.69 620.78,-189.93 611.51,-184.79 610.33,-191.69"/>
</g>
<!-- Node13 -->
<g id="node13" class="node">
<title>Node13</title>
<g id="a_node13"><a xlink:href="bistellar-flip_8cpp.html" target="_top" xlink:title="Tests and views bistellar flips.">
<polygon fill="white" stroke="#666666" points="521,-145.5 408,-145.5 408,-126.5 521,-126.5 521,-145.5"/>
<text text-anchor="middle" x="464.5" y="-133.5" font-family="Helvetica,sans-Serif" font-size="10.00">src/bistellar&#45;flip.cpp</text>
</a>
</g>
</g>
<!-- Node4&#45;&gt;Node13 -->
<g id="edge13" class="edge">
<title>Node4&#45;&gt;Node13</title>
<path fill="none" stroke="#63b8ff" d="M627.24,-184.13C584.35,-171.71 527.81,-155.33 493.91,-145.52"/>
<polygon fill="#63b8ff" stroke="#63b8ff" points="626.42,-187.54 637,-186.95 628.37,-180.81 626.42,-187.54"/>
</g>
<!-- Node14 -->
<g id="node14" class="node">
<title>Node14</title>
<g id="a_node14"><a xlink:href="_apply__move__test_8cpp.html" target="_top" xlink:title="Applying ergodic moves to manifolds.">
<polygon fill="white" stroke="#666666" points="688,-145.5 539,-145.5 539,-126.5 688,-126.5 688,-145.5"/>
<text text-anchor="middle" x="613.5" y="-133.5" font-family="Helvetica,sans-Serif" font-size="10.00">tests/Apply_move_test.cpp</text>
</a>
</g>
</g>
<!-- Node4&#45;&gt;Node14 -->
<g id="edge14" class="edge">
<title>Node4&#45;&gt;Node14</title>
<path fill="none" stroke="#63b8ff" d="M661.8,-179.93C648.77,-168.35 633.31,-154.61 623.45,-145.84"/>
<polygon fill="#63b8ff" stroke="#63b8ff" points="659.72,-182.77 669.52,-186.8 664.37,-177.54 659.72,-182.77"/>
</g>
<!-- Node15 -->
<g id="node15" class="node">
<title>Node15</title>
<g id="a_node15"><a xlink:href="_bistellar__flip__test_8cpp.html" target="_top" xlink:title="Comprehensive tests for bistellar flip operations.">
<polygon fill="white" stroke="#666666" points="810.5,-151 706.5,-151 706.5,-121 810.5,-121 810.5,-151"/>
<text text-anchor="start" x="714.5" y="-139" font-family="Helvetica,sans-Serif" font-size="10.00">tests/Bistellar_flip</text>
<text text-anchor="middle" x="758.5" y="-128" font-family="Helvetica,sans-Serif" font-size="10.00">_test.cpp</text>
</a>
</g>
</g>
<!-- Node4&#45;&gt;Node15 -->
<g id="edge15" class="edge">
<title>Node4&#45;&gt;Node15</title>
<path fill="none" stroke="#63b8ff" d="M709.22,-180.2C720.06,-170.7 732.62,-159.69 742.34,-151.16"/>
<polygon fill="#63b8ff" stroke="#63b8ff" points="706.91,-177.57 701.7,-186.8 711.53,-182.84 706.91,-177.57"/>
</g>
<!-- Node16 -->
<g id="node16" class="node">
<title>Node16</title>
<g id="a_node16"><a xlink:href="_ergodic__moves__3__test_8cpp.html" target="_top" xlink:title="Tests for ergodic moves on foliated triangulations.">
<polygon fill="white" stroke="#666666" points="946.5,-151 828.5,-151 828.5,-121 946.5,-121 946.5,-151"/>
<text text-anchor="start" x="836.5" y="-139" font-family="Helvetica,sans-Serif" font-size="10.00">tests/Ergodic_moves</text>
<text text-anchor="middle" x="887.5" y="-128" font-family="Helvetica,sans-Serif" font-size="10.00">_3_test.cpp</text>
</a>
</g>
</g>
<!-- Node4&#45;&gt;Node16 -->
<g id="edge16" class="edge">
<title>Node4&#45;&gt;Node16</title>
<path fill="none" stroke="#63b8ff" d="M739.61,-183.86C772.05,-173.58 812.77,-160.68 843.27,-151.01"/>
<polygon fill="#63b8ff" stroke="#63b8ff" points="738.31,-180.6 729.83,-186.95 740.42,-187.27 738.31,-180.6"/>
</g>
<!-- Node17 -->
<g id="node17" class="node">
<title>Node17</title>
<g id="a_node17"><a xlink:href="_function__ref__test_8cpp.html" target="_top" xlink:title="Tests on function pointers, lambdas, and function_refs.">
<polygon fill="white" stroke="#666666" points="1068.5,-151 964.5,-151 964.5,-121 1068.5,-121 1068.5,-151"/>
<text text-anchor="start" x="972.5" y="-139" font-family="Helvetica,sans-Serif" font-size="10.00">tests/Function_ref</text>
<text text-anchor="middle" x="1016.5" y="-128" font-family="Helvetica,sans-Serif" font-size="10.00">_test.cpp</text>
</a>
</g>
</g>
<!-- Node4&#45;&gt;Node17 -->
<g id="edge17" class="edge">
<title>Node4&#45;&gt;Node17</title>
<path fill="none" stroke="#63b8ff" d="M759.98,-186.92C848.21,-170.62 871.81,-168.28 955.5,-151 958.37,-150.41 961.32,-149.78 964.29,-149.14"/>
<polygon fill="#63b8ff" stroke="#63b8ff" points="759.26,-183.5 750.07,-188.76 760.54,-190.38 759.26,-183.5"/>
</g>
<!-- Node6 -->
<g id="node6" class="node">
<title>Node6</title>
<g id="a_node6"><a xlink:href="_metropolis_8hpp.html" target="_top" xlink:title="Perform Metropolis&#45;Hastings algorithm on Delaunay Triangulations.">
<polygon fill="white" stroke="#666666" points="221.5,-79.5 93.5,-79.5 93.5,-60.5 221.5,-60.5 221.5,-79.5"/>
<text text-anchor="middle" x="157.5" y="-67.5" font-family="Helvetica,sans-Serif" font-size="10.00">include/Metropolis.hpp</text>
</a>
</g>
</g>
<!-- Node5&#45;&gt;Node6 -->
<g id="edge5" class="edge">
<title>Node5&#45;&gt;Node6</title>
<path fill="none" stroke="#63b8ff" d="M281.48,-122.52C251.13,-109.91 205.03,-90.75 178.43,-79.7"/>
<polygon fill="#63b8ff" stroke="#63b8ff" points="280.15,-125.76 290.73,-126.37 282.84,-119.3 280.15,-125.76"/>
</g>
<!-- Node10 -->
<g id="node10" class="node">
<title>Node10</title>
<g id="a_node10"><a xlink:href="_move__always_8hpp.html" target="_top" xlink:title="Randomly selects moves to always perform on triangulations.">
<polygon fill="white" stroke="#666666" points="383,-79.5 240,-79.5 240,-60.5 383,-60.5 383,-79.5"/>
<text text-anchor="middle" x="311.5" y="-67.5" font-family="Helvetica,sans-Serif" font-size="10.00">include/Move_always.hpp</text>
</a>
</g>
</g>
<!-- Node5&#45;&gt;Node10 -->
<g id="edge9" class="edge">
<title>Node5&#45;&gt;Node10</title>
<path fill="none" stroke="#63b8ff" d="M311.5,-116.08C311.5,-104.13 311.5,-89.22 311.5,-79.91"/>
<polygon fill="#63b8ff" stroke="#63b8ff" points="308,-116.37 311.5,-126.37 315,-116.37 308,-116.37"/>
</g>
<!-- Node12 -->
<g id="node12" class="node">
<title>Node12</title>
<g id="a_node12"><a xlink:href="_move__command__test_8cpp.html" target="_top" xlink:title="Tests of MoveCommand, that is, that moves are handled properly.">
<polygon fill="white" stroke="#666666" points="526,-85 401,-85 401,-55 526,-55 526,-85"/>
<text text-anchor="start" x="409" y="-73" font-family="Helvetica,sans-Serif" font-size="10.00">tests/Move_command</text>
<text text-anchor="middle" x="463.5" y="-62" font-family="Helvetica,sans-Serif" font-size="10.00">_test.cpp</text>
</a>
</g>
</g>
<!-- Node5&#45;&gt;Node12 -->
<g id="edge12" class="edge">
<title>Node5&#45;&gt;Node12</title>
<path fill="none" stroke="#63b8ff" d="M341.51,-122.36C367,-111.63 403.54,-96.25 429.98,-85.12"/>
<polygon fill="#63b8ff" stroke="#63b8ff" points="339.86,-119.26 332,-126.37 342.57,-125.71 339.86,-119.26"/>
</g>
<!-- Node7 -->
<g id="node7" class="node">
<title>Node7</title>
<g id="a_node7"><a xlink:href="cdt-opt_8cpp.html" target="_top" xlink:title="Outputs values to determine optimizations.">
<polygon fill="white" stroke="#666666" points="335,-19 246,-19 246,0 335,0 335,-19"/>
<text text-anchor="middle" x="290.5" y="-7" font-family="Helvetica,sans-Serif" font-size="10.00">src/cdt&#45;opt.cpp</text>
</a>
</g>
</g>
<!-- Node6&#45;&gt;Node7 -->
<g id="edge6" class="edge">
<title>Node6&#45;&gt;Node7</title>
<path fill="none" stroke="#63b8ff" d="M186.07,-56.43C211.75,-45.14 248.77,-28.86 271.14,-19.02"/>
<polygon fill="#63b8ff" stroke="#63b8ff" points="184.58,-53.26 176.84,-60.49 187.4,-59.67 184.58,-53.26"/>
</g>
<!-- Node8 -->
<g id="node8" class="node">
<title>Node8</title>
<g id="a_node8"><a xlink:href="cdt_8cpp.html" target="_top" xlink:title="The main executable.">
<polygon fill="white" stroke="#666666" points="69,-19 0,-19 0,0 69,0 69,-19"/>
<text text-anchor="middle" x="34.5" y="-7" font-family="Helvetica,sans-Serif" font-size="10.00">src/cdt.cpp</text>
</a>
</g>
</g>
<!-- Node6&#45;&gt;Node8 -->
<g id="edge7" class="edge">
<title>Node6&#45;&gt;Node8</title>
<path fill="none" stroke="#63b8ff" d="M130.45,-56.13C106.72,-44.85 72.91,-28.77 52.41,-19.02"/>
<polygon fill="#63b8ff" stroke="#63b8ff" points="129.08,-59.36 139.61,-60.49 132.09,-53.04 129.08,-59.36"/>
</g>
<!-- Node9 -->
<g id="node9" class="node">
<title>Node9</title>
<g id="a_node9"><a xlink:href="_metropolis__test_8cpp.html" target="_top" xlink:title="Tests for the Metropolis&#45;Hastings algorithm.">
<polygon fill="white" stroke="#666666" points="227.5,-19 87.5,-19 87.5,0 227.5,0 227.5,-19"/>
<text text-anchor="middle" x="157.5" y="-7" font-family="Helvetica,sans-Serif" font-size="10.00">tests/Metropolis_test.cpp</text>
</a>
</g>
</g>
<!-- Node6&#45;&gt;Node9 -->
<g id="edge8" class="edge">
<title>Node6&#45;&gt;Node9</title>
<path fill="none" stroke="#63b8ff" d="M157.5,-50.16C157.5,-39.74 157.5,-27.3 157.5,-19.17"/>
<polygon fill="#63b8ff" stroke="#63b8ff" points="154,-50.37 157.5,-60.37 161,-50.37 154,-50.37"/>
</g>
<!-- Node10&#45;&gt;Node7 -->
<g id="edge10" class="edge">
<title>Node10&#45;&gt;Node7</title>
<path fill="none" stroke="#63b8ff" d="M304.97,-50.82C301.19,-40.28 296.59,-27.48 293.61,-19.17"/>
<polygon fill="#63b8ff" stroke="#63b8ff" points="301.73,-52.14 308.4,-60.37 308.32,-49.77 301.73,-52.14"/>
</g>
<!-- Node11 -->
<g id="node11" class="node">
<title>Node11</title>
<g id="a_node11"><a xlink:href="_move__always__test_8cpp.html" target="_top" xlink:title="Tests for the Move Always algorithm.">
<polygon fill="white" stroke="#666666" points="508,-19 353,-19 353,0 508,0 508,-19"/>
<text text-anchor="middle" x="430.5" y="-7" font-family="Helvetica,sans-Serif" font-size="10.00">tests/Move_always_test.cpp</text>
</a>
</g>
</g>
<!-- Node10&#45;&gt;Node11 -->
<g id="edge11" class="edge">
<title>Node10&#45;&gt;Node11</title>
<path fill="none" stroke="#63b8ff" d="M337.98,-55.98C360.91,-44.71 393.43,-28.73 413.18,-19.02"/>
<polygon fill="#63b8ff" stroke="#63b8ff" points="336.23,-52.94 328.8,-60.49 339.32,-59.22 336.23,-52.94"/>
</g>
</g>
</svg>
        <g id="navigator" transform="translate(0 0)" fill="#404254">
                <rect fill="#f2f5e9" fill-opacity="0.5" stroke="#606060" stroke-width=".5" x="0" y="0" width="60" height="60"/>
                <use id="zoomplus" xlink:href="#zoomPlus" x="17" y="9" onmousedown="handleZoom(evt,'in')"/>
                <use id="zoomminus" xlink:href="#zoomMin" x="42" y="9" onmousedown="handleZoom(evt,'out')"/>
                <use id="reset" xlink:href="#resetDef" x="30" y="36" onmousedown="handleReset()"/>
                <g id="arrowUp" xlink:href="#dirArrow" transform="translate(30 24)" onmousedown="handlePan(0,-1)">
                  <use xlink:href="#rim" fill="#404040">
                        <set attributeName="fill" to="#808080" begin="arrowUp.mouseover" end="arrowUp.mouseout"/>
                  </use>
                  <path fill="none" stroke="white" stroke-width="1.5" d="M0,-3.0v7 M-2.5,-0.5L0,-3.0L2.5,-0.5"/>
                </g>
                <g id="arrowRight" xlink:href="#dirArrow" transform="rotate(90) translate(36 -43)" onmousedown="handlePan(1,0)">
                  <use xlink:href="#rim" fill="#404040">
                        <set attributeName="fill" to="#808080" begin="arrowRight.mouseover" end="arrowRight.mouseout"/>
                  </use>
                  <path fill="none" stroke="white" stroke-width="1.5" d="M0,-3.0v7 M-2.5,-0.5L0,-3.0L2.5,-0.5"/>
                </g>
                <g id="arrowDown" xlink:href="#dirArrow" transform="rotate(180) translate(-30 -48)" onmousedown="handlePan(0,1)">
                  <use xlink:href="#rim" fill="#404040">
                        <set attributeName="fill" to="#808080" begin="arrowDown.mouseover" end="arrowDown.mouseout"/>
                  </use>
                  <path fill="none" stroke="white" stroke-width="1.5" d="M0,-3.0v7 M-2.5,-0.5L0,-3.0L2.5,-0.5"/>
                </g>
                <g id="arrowLeft" xlink:href="#dirArrow" transform="rotate(270) translate(-36 17)" onmousedown="handlePan(-1,0)">
                  <use xlink:href="#rim" fill="#404040">
                        <set attributeName="fill" to="#808080" begin="arrowLeft.mouseover" end="arrowLeft.mouseout"/>
                  </use>
                  <path fill="none" stroke="white" stroke-width="1.5" d="M0,-3.0v7 M-2.5,-0.5L0,-3.0L2.5,-0.5"/>
                </g>
        </g>
        <svg viewBox="0 0 15 15" width="100%" height="30px" preserveAspectRatio="xMaxYMin meet">
         <g id="arrow_out" transform="scale(0.3 0.3)">
          <a xlink:href="_foliated__triangulation_8hpp__dep__incl_org.svg" target="_base">
           <rect id="button" ry="5" rx="5" y="6" x="6" height="38" width="38"
                fill="#f2f5e9" fill-opacity="0.5" stroke="#606060" stroke-width="1.0"/>
           <path id="arrow"
             d="M 11.500037,31.436501 C 11.940474,20.09759 22.043105,11.32322 32.158766,21.979434 L 37.068811,17.246167 C 37.068811,17.246167 37.088388,32 37.088388,32 L 22.160133,31.978069 C 22.160133,31.978069 26.997745,27.140456 26.997745,27.140456 C 18.528582,18.264221 13.291696,25.230495 11.500037,31.436501 z"
             style="fill:#404040;"/>
          </a>
         </g>
        </svg>
</svg>
