<?xml version="1.0" encoding="UTF-8" standalone="no"?>
<!DOCTYPE svg PUBLIC "-//W3C//DTD SVG 1.1//EN"
 "http://www.w3.org/Graphics/SVG/1.1/DTD/svg11.dtd">
<!-- Generated by graphviz version 15.1.0 (20260618.0150)
 -->
<!-- Title: include/Foliated_triangulation.hpp Pages: 1 -->
<svg width="3377pt" height="225pt"
 viewBox="0.00 0.00 3377.00 225.00" xmlns="http://www.w3.org/2000/svg" xmlns:xlink="http://www.w3.org/1999/xlink">
<g id="graph0" class="graph" transform="scale(1 1) rotate(0) translate(4 220.5)">
<title>include/Foliated_triangulation.hpp</title>
<!-- Node1 -->
<g id="Node000001" class="node">
<title>Node1</title>
<g id="a_Node000001"><a xlink:title="Create foliated spherical triangulations.">
<polygon fill="#999999" stroke="#666666" points="2118.12,-216.5 1936.38,-216.5 1936.38,-195.75 2118.12,-195.75 2118.12,-216.5"/>
<text xml:space="preserve" text-anchor="middle" x="2027.25" y="-203" font-family="Helvetica,sans-Serif" font-size="10.00">include/Foliated_triangulation.hpp</text>
</a>
</g>
</g>
<!-- Node2 -->
<g id="Node000002" class="node">
<title>Node2</title>
<g id="a_Node000002"><a xlink:title=" ">
<polygon fill="#e0e0e0" stroke="#999999" points="531.38,-159.75 441.12,-159.75 441.12,-139 531.38,-139 531.38,-159.75"/>
<text xml:space="preserve" text-anchor="middle" x="486.25" y="-146.25" font-family="Helvetica,sans-Serif" font-size="10.00">CGAL/Bbox_3.h</text>
</a>
</g>
</g>
<!-- Node1&#45;&gt;Node2 -->
<g id="edge1_Node000001_Node000002" class="edge">
<title>Node1&#45;&gt;Node2</title>
<g id="a_edge1_Node000001_Node000002"><a xlink:title=" ">
<path fill="none" stroke="#63b8ff" d="M1936.26,-204C1660.57,-200.32 836.09,-187.37 543.25,-159.75"/>
<polygon fill="#63b8ff" stroke="#63b8ff" points="543.6,-156.27 533.31,-158.79 542.92,-163.24 543.6,-156.27"/>
</a>
</g>
</g>
<!-- Node3 -->
<g id="Node000003" class="node">
<title>Node3</title>
<g id="a_Node000003"><a xlink:title=" ">
<polygon fill="#e0e0e0" stroke="#999999" points="644.62,-159.75 549.88,-159.75 549.88,-139 644.62,-139 644.62,-159.75"/>
<text xml:space="preserve" text-anchor="middle" x="597.25" y="-146.25" font-family="Helvetica,sans-Serif" font-size="10.00">CGAL/Random.h</text>
</a>
</g>
</g>
<!-- Node1&#45;&gt;Node3 -->
<g id="edge2_Node000001_Node000003" class="edge">
<title>Node1&#45;&gt;Node3</title>
<g id="a_edge2_Node000001_Node000003"><a xlink:title=" ">
<path fill="none" stroke="#63b8ff" d="M1936.22,-203.66C1675.12,-199.23 925.69,-184.74 656.39,-159.79"/>
<polygon fill="#63b8ff" stroke="#63b8ff" points="656.88,-156.32 646.59,-158.85 656.21,-163.29 656.88,-156.32"/>
</a>
</g>
</g>
<!-- Node4 -->
<g id="Node000004" class="node">
<title>Node4</title>
<g id="a_Node000004"><a xlink:title=" ">
<polygon fill="#e0e0e0" stroke="#999999" points="993.88,-90.25 930.62,-90.25 930.62,-69.5 993.88,-69.5 993.88,-90.25"/>
<text xml:space="preserve" text-anchor="middle" x="962.25" y="-76.75" font-family="Helvetica,sans-Serif" font-size="10.00">algorithm</text>
</a>
</g>
</g>
<!-- Node1&#45;&gt;Node4 -->
<g id="edge3_Node000001_Node000004" class="edge">
<title>Node1&#45;&gt;Node4</title>
<g id="a_edge3_Node000001_Node000004"><a xlink:title=" ">
<path fill="none" stroke="#63b8ff" d="M1936.13,-200.94C1811.18,-194.7 1579.76,-181.31 1383.25,-159.75 1213.51,-141.12 1165.26,-156.97 1003.25,-103 997.87,-101.21 992.37,-98.74 987.21,-96.1"/>
<polygon fill="#63b8ff" stroke="#63b8ff" points="989.02,-93.11 978.58,-91.33 985.64,-99.23 989.02,-93.11"/>
</a>
</g>
</g>
<!-- Node5 -->
<g id="Node000005" class="node">
<title>Node5</title>
<g id="a_Node000005"><a xlink:title=" ">
<polygon fill="#e0e0e0" stroke="#999999" points="1058.62,-90.25 1011.88,-90.25 1011.88,-69.5 1058.62,-69.5 1058.62,-90.25"/>
<text xml:space="preserve" text-anchor="middle" x="1035.25" y="-76.75" font-family="Helvetica,sans-Serif" font-size="10.00">cmath</text>
</a>
</g>
</g>
<!-- Node1&#45;&gt;Node5 -->
<g id="edge4_Node000001_Node000005" class="edge">
<title>Node1&#45;&gt;Node5</title>
<g id="a_edge4_Node000001_Node000005"><a xlink:title=" ">
<path fill="none" stroke="#63b8ff" d="M1936.26,-202.97C1823.73,-199.14 1626.64,-188.58 1460.25,-159.75 1425.33,-153.7 1418.07,-145.64 1383.25,-139 1244.83,-112.59 1200.51,-151.61 1068.25,-103 1064.12,-101.48 1060,-99.35 1056.15,-97"/>
<polygon fill="#63b8ff" stroke="#63b8ff" points="1058.2,-94.16 1047.97,-91.41 1054.25,-99.94 1058.2,-94.16"/>
</a>
</g>
</g>
<!-- Node6 -->
<g id="Node000006" class="node">
<title>Node6</title>
<g id="a_Node000006"><a xlink:title=" ">
<polygon fill="#e0e0e0" stroke="#999999" points="2190.62,-159.75 2125.88,-159.75 2125.88,-139 2190.62,-139 2190.62,-159.75"/>
<text xml:space="preserve" text-anchor="middle" x="2158.25" y="-146.25" font-family="Helvetica,sans-Serif" font-size="10.00">functional</text>
</a>
</g>
</g>
<!-- Node1&#45;&gt;Node6 -->
<g id="edge5_Node000001_Node000006" class="edge">
<title>Node1&#45;&gt;Node6</title>
<g id="a_edge5_Node000001_Node000006"><a xlink:title=" ">
<path fill="none" stroke="#63b8ff" d="M2050.67,-195.34C2071.25,-186.73 2101.45,-174.11 2124.62,-164.43"/>
<polygon fill="#63b8ff" stroke="#63b8ff" points="2125.76,-167.75 2133.64,-160.66 2123.06,-161.29 2125.76,-167.75"/>
</a>
</g>
</g>
<!-- Node7 -->
<g id="Node000007" class="node">
<title>Node7</title>
<g id="a_Node000007"><a xlink:title=" ">
<polygon fill="#e0e0e0" stroke="#999999" points="2260.25,-159.75 2208.25,-159.75 2208.25,-139 2260.25,-139 2260.25,-159.75"/>
<text xml:space="preserve" text-anchor="middle" x="2234.25" y="-146.25" font-family="Helvetica,sans-Serif" font-size="10.00">iterator</text>
</a>
</g>
</g>
<!-- Node1&#45;&gt;Node7 -->
<g id="edge6_Node000001_Node000007" class="edge">
<title>Node1&#45;&gt;Node7</title>
<g id="a_edge6_Node000001_Node000007"><a xlink:title=" ">
<path fill="none" stroke="#63b8ff" d="M2064.84,-195.25C2097.38,-186.7 2145.99,-173.89 2196.97,-160.35"/>
<polygon fill="#63b8ff" stroke="#63b8ff" points="2197.65,-163.79 2206.42,-157.84 2195.85,-157.02 2197.65,-163.79"/>
</a>
</g>
</g>
<!-- Node8 -->
<g id="Node000008" class="node">
<title>Node8</title>
<g id="a_Node000008"><a xlink:title=" ">
<polygon fill="#e0e0e0" stroke="#999999" points="3369.12,-20.75 3325.38,-20.75 3325.38,0 3369.12,0 3369.12,-20.75"/>
<text xml:space="preserve" text-anchor="middle" x="3347.25" y="-7.25" font-family="Helvetica,sans-Serif" font-size="10.00">limits</text>
</a>
</g>
</g>
<!-- Node1&#45;&gt;Node8 -->
<g id="edge7_Node000001_Node000008" class="edge">
<title>Node1&#45;&gt;Node8</title>
<g id="a_edge7_Node000001_Node000008"><a xlink:title=" ">
<path fill="none" stroke="#63b8ff" d="M2039.66,-195.36C2062.22,-177.71 2108.45,-142.03 2117.25,-139 2181.79,-116.79 3297.17,-151.44 3345.25,-103 3363.43,-84.69 3359.38,-52.81 3353.97,-31.9"/>
<polygon fill="#63b8ff" stroke="#63b8ff" points="3357.38,-31.1 3351.21,-22.49 3350.66,-33.07 3357.38,-31.1"/>
</a>
</g>
</g>
<!-- Node9 -->
<g id="Node000009" class="node">
<title>Node9</title>
<g id="a_Node000009"><a xlink:title=" ">
<polygon fill="#e0e0e0" stroke="#999999" points="2335.88,-159.75 2278.62,-159.75 2278.62,-139 2335.88,-139 2335.88,-159.75"/>
<text xml:space="preserve" text-anchor="middle" x="2307.25" y="-146.25" font-family="Helvetica,sans-Serif" font-size="10.00">memory</text>
</a>
</g>
</g>
<!-- Node1&#45;&gt;Node9 -->
<g id="edge8_Node000001_Node000009" class="edge">
<title>Node1&#45;&gt;Node9</title>
<g id="a_edge8_Node000001_Node000009"><a xlink:title=" ">
<path fill="none" stroke="#63b8ff" d="M2084.64,-195.31C2131.3,-187.11 2199.07,-174.73 2267.29,-160.08"/>
<polygon fill="#63b8ff" stroke="#63b8ff" points="2267.73,-163.57 2276.76,-158.03 2266.25,-156.72 2267.73,-163.57"/>
</a>
</g>
</g>
<!-- Node10 -->
<g id="Node000010" class="node">
<title>Node10</title>
<g id="a_Node000010"><a xlink:title=" ">
<polygon fill="#e0e0e0" stroke="#999999" points="2410.12,-159.75 2354.38,-159.75 2354.38,-139 2410.12,-139 2410.12,-159.75"/>
<text xml:space="preserve" text-anchor="middle" x="2382.25" y="-146.25" font-family="Helvetica,sans-Serif" font-size="10.00">numeric</text>
</a>
</g>
</g>
<!-- Node1&#45;&gt;Node10 -->
<g id="edge9_Node000001_Node000010" class="edge">
<title>Node1&#45;&gt;Node10</title>
<g id="a_edge9_Node000001_Node000010"><a xlink:title=" ">
<path fill="none" stroke="#63b8ff" d="M2114.05,-195.27C2175.46,-187.71 2259.93,-176.14 2342.88,-160.05"/>
<polygon fill="#63b8ff" stroke="#63b8ff" points="2343.42,-163.51 2352.55,-158.14 2342.07,-156.64 2343.42,-163.51"/>
</a>
</g>
</g>
<!-- Node11 -->
<g id="Node000011" class="node">
<title>Node11</title>
<g id="a_Node000011"><a xlink:title=" ">
<polygon fill="#e0e0e0" stroke="#999999" points="1145.5,-90.25 1077,-90.25 1077,-69.5 1145.5,-69.5 1145.5,-90.25"/>
<text xml:space="preserve" text-anchor="middle" x="1111.25" y="-76.75" font-family="Helvetica,sans-Serif" font-size="10.00">type_traits</text>
</a>
</g>
</g>
<!-- Node1&#45;&gt;Node11 -->
<g id="edge10_Node000001_Node000011" class="edge">
<title>Node1&#45;&gt;Node11</title>
<g id="a_edge10_Node000001_Node000011"><a xlink:title=" ">
<path fill="none" stroke="#63b8ff" d="M1942.08,-195.26C1723.42,-169.93 1158.96,-104.43 1154.25,-103 1148.48,-101.24 1142.55,-98.72 1137.02,-96.01"/>
<polygon fill="#63b8ff" stroke="#63b8ff" points="1138.82,-93 1128.34,-91.42 1135.54,-99.19 1138.82,-93"/>
</a>
</g>
</g>
<!-- Node12 -->
<g id="Node000012" class="node">
<title>Node12</title>
<g id="a_Node000012"><a xlink:title=" ">
<polygon fill="#e0e0e0" stroke="#999999" points="2472.5,-159.75 2428,-159.75 2428,-139 2472.5,-139 2472.5,-159.75"/>
<text xml:space="preserve" text-anchor="middle" x="2450.25" y="-146.25" font-family="Helvetica,sans-Serif" font-size="10.00">utility</text>
</a>
</g>
</g>
<!-- Node1&#45;&gt;Node12 -->
<g id="edge11_Node000001_Node000012" class="edge">
<title>Node1&#45;&gt;Node12</title>
<g id="a_edge11_Node000001_Node000012"><a xlink:title=" ">
<path fill="none" stroke="#63b8ff" d="M2118.29,-199.21C2195.55,-193.13 2309.42,-181.69 2416.66,-159.98"/>
<polygon fill="#63b8ff" stroke="#63b8ff" points="2417.11,-163.46 2426.2,-158.01 2415.7,-156.61 2417.11,-163.46"/>
</a>
</g>
</g>
<!-- Node13 -->
<g id="Node000013" class="node">
<title>Node13</title>
<g id="a_Node000013"><a xlink:href="_random_8hpp.html" target="_top" xlink:title="Run&#45;owned random&#45;number generation and reproducible stream splitting.">
<polygon fill="white" stroke="#666666" points="3309,-90.25 3231.5,-90.25 3231.5,-69.5 3309,-69.5 3309,-90.25"/>
<text xml:space="preserve" text-anchor="middle" x="3270.25" y="-76.75" font-family="Helvetica,sans-Serif" font-size="10.00">Random.hpp</text>
</a>
</g>
</g>
<!-- Node1&#45;&gt;Node13 -->
<g id="edge12_Node000001_Node000013" class="edge">
<title>Node1&#45;&gt;Node13</title>
<g id="a_edge12_Node000001_Node000013"><a xlink:title=" ">
<path fill="none" stroke="#63b8ff" d="M2032,-195.72C2040.25,-180.55 2058.81,-151.15 2084.25,-139 2198.41,-84.49 3099.12,-132.06 3222.25,-103 3229.4,-101.31 3236.77,-98.52 3243.53,-95.47"/>
<polygon fill="#63b8ff" stroke="#63b8ff" points="3244.7,-98.79 3252.16,-91.26 3241.64,-92.5 3244.7,-98.79"/>
</a>
</g>
</g>
<!-- Node18 -->
<g id="Node000018" class="node">
<title>Node18</title>
<g id="a_Node000018"><a xlink:href="_triangulation__traits_8hpp.html" target="_top" xlink:title="Traits class for particular uses of CGAL.">
<polygon fill="white" stroke="#666666" points="793.62,-159.75 662.88,-159.75 662.88,-139 793.62,-139 793.62,-159.75"/>
<text xml:space="preserve" text-anchor="middle" x="728.25" y="-146.25" font-family="Helvetica,sans-Serif" font-size="10.00">Triangulation_traits.hpp</text>
</a>
</g>
</g>
<!-- Node1&#45;&gt;Node18 -->
<g id="edge18_Node000001_Node000018" class="edge">
<title>Node1&#45;&gt;Node18</title>
<g id="a_edge18_Node000001_Node000018"><a xlink:title=" ">
<path fill="none" stroke="#63b8ff" d="M1935.91,-201.28C1692.54,-191.02 1031.64,-163.16 805.41,-153.63"/>
<polygon fill="#63b8ff" stroke="#63b8ff" points="805.66,-150.13 795.53,-153.21 805.37,-157.13 805.66,-150.13"/>
</a>
</g>
</g>
<!-- Node26 -->
<g id="Node000026" class="node">
<title>Node26</title>
<g id="a_Node000026"><a xlink:href="_utilities_8hpp.html" target="_top" xlink:title="Utility functions.">
<polygon fill="white" stroke="#666666" points="2031.88,-159.75 1956.62,-159.75 1956.62,-139 2031.88,-139 2031.88,-159.75"/>
<text xml:space="preserve" text-anchor="middle" x="1994.25" y="-146.25" font-family="Helvetica,sans-Serif" font-size="10.00">Utilities.hpp</text>
</a>
</g>
</g>
<!-- Node1&#45;&gt;Node26 -->
<g id="edge27_Node000001_Node000026" class="edge">
<title>Node1&#45;&gt;Node26</title>
<g id="a_edge27_Node000001_Node000026"><a xlink:title=" ">
<path fill="none" stroke="#63b8ff" d="M2021.35,-195.34C2017.08,-188.25 2011.17,-178.44 2005.95,-169.79"/>
<polygon fill="#63b8ff" stroke="#63b8ff" points="2009.04,-168.13 2000.88,-161.37 2003.04,-171.75 2009.04,-168.13"/>
</a>
</g>
</g>
<!-- Node13&#45;&gt;Node8 -->
<g id="edge15_Node000013_Node000008" class="edge">
<title>Node13&#45;&gt;Node8</title>
<g id="a_edge15_Node000013_Node000008"><a xlink:title=" ">
<path fill="none" stroke="#63b8ff" d="M3281.28,-69.2C3293.34,-58.64 3312.88,-41.5 3327.58,-28.62"/>
<polygon fill="#63b8ff" stroke="#63b8ff" points="3329.64,-31.47 3334.85,-22.25 3325.02,-26.21 3329.64,-31.47"/>
</a>
</g>
</g>
<!-- Node14 -->
<g id="Node000014" class="node">
<title>Node14</title>
<g id="a_Node000014"><a xlink:title=" ">
<polygon fill="#e0e0e0" stroke="#999999" points="2952,-20.75 2892.5,-20.75 2892.5,0 2952,0 2952,-20.75"/>
<text xml:space="preserve" text-anchor="middle" x="2922.25" y="-7.25" font-family="Helvetica,sans-Serif" font-size="10.00">concepts</text>
</a>
</g>
</g>
<!-- Node13&#45;&gt;Node14 -->
<g id="edge13_Node000013_Node000014" class="edge">
<title>Node13&#45;&gt;Node14</title>
<g id="a_edge13_Node000013_Node000014"><a xlink:title=" ">
<path fill="none" stroke="#63b8ff" d="M3252.03,-69C3243.26,-64.63 3232.45,-59.8 3222.25,-56.75 3174.57,-42.47 3033.8,-24.55 2963.36,-16.14"/>
<polygon fill="#63b8ff" stroke="#63b8ff" points="2964.13,-12.71 2953.79,-15.01 2963.3,-19.66 2964.13,-12.71"/>
</a>
</g>
</g>
<!-- Node15 -->
<g id="Node000015" class="node">
<title>Node15</title>
<g id="a_Node000015"><a xlink:title=" ">
<polygon fill="#e0e0e0" stroke="#999999" points="2589.75,-20.75 2540.75,-20.75 2540.75,0 2589.75,0 2589.75,-20.75"/>
<text xml:space="preserve" text-anchor="middle" x="2565.25" y="-7.25" font-family="Helvetica,sans-Serif" font-size="10.00">cstdint</text>
</a>
</g>
</g>
<!-- Node13&#45;&gt;Node15 -->
<g id="edge14_Node000013_Node000015" class="edge">
<title>Node13&#45;&gt;Node15</title>
<g id="a_edge14_Node000013_Node000015"><a xlink:title=" ">
<path fill="none" stroke="#63b8ff" d="M3253.04,-69.09C3244.13,-64.51 3232.92,-59.48 3222.25,-56.75 3103.25,-26.31 2721.16,-15 2601.46,-12.16"/>
<polygon fill="#63b8ff" stroke="#63b8ff" points="2601.67,-8.66 2591.59,-11.93 2601.51,-15.66 2601.67,-8.66"/>
</a>
</g>
</g>
<!-- Node16 -->
<g id="Node000016" class="node">
<title>Node16</title>
<g id="a_Node000016"><a xlink:title=" ">
<polygon fill="#e0e0e0" stroke="#999999" points="3084,-20.75 3030.5,-20.75 3030.5,0 3084,0 3084,-20.75"/>
<text xml:space="preserve" text-anchor="middle" x="3057.25" y="-7.25" font-family="Helvetica,sans-Serif" font-size="10.00">random</text>
</a>
</g>
</g>
<!-- Node13&#45;&gt;Node16 -->
<g id="edge16_Node000013_Node000016" class="edge">
<title>Node13&#45;&gt;Node16</title>
<g id="a_edge16_Node000013_Node000016"><a xlink:title=" ">
<path fill="none" stroke="#63b8ff" d="M3250.94,-69.1C3242.3,-64.95 3231.9,-60.28 3222.25,-56.75 3179.5,-41.14 3128.83,-27.96 3095.03,-19.9"/>
<polygon fill="#63b8ff" stroke="#63b8ff" points="3096.26,-16.59 3085.72,-17.71 3094.66,-23.41 3096.26,-16.59"/>
</a>
</g>
</g>
<!-- Node17 -->
<g id="Node000017" class="node">
<title>Node17</title>
<g id="a_Node000017"><a xlink:title=" ">
<polygon fill="#e0e0e0" stroke="#999999" points="3307.75,-20.75 3210.75,-20.75 3210.75,0 3307.75,0 3307.75,-20.75"/>
<text xml:space="preserve" text-anchor="middle" x="3259.25" y="-7.25" font-family="Helvetica,sans-Serif" font-size="10.00">pcg_random.hpp</text>
</a>
</g>
</g>
<!-- Node13&#45;&gt;Node17 -->
<g id="edge17_Node000013_Node000017" class="edge">
<title>Node13&#45;&gt;Node17</title>
<g id="a_edge17_Node000013_Node000017"><a xlink:title=" ">
<path fill="none" stroke="#63b8ff" d="M3268.67,-69.2C3267.11,-59.58 3264.65,-44.51 3262.64,-32.16"/>
<polygon fill="#63b8ff" stroke="#63b8ff" points="3266.13,-31.83 3261.07,-22.52 3259.22,-32.95 3266.13,-31.83"/>
</a>
</g>
</g>
<!-- Node19 -->
<g id="Node000019" class="node">
<title>Node19</title>
<g id="a_Node000019"><a xlink:title=" ">
<polygon fill="#e0e0e0" stroke="#999999" points="818,-90.25 638.5,-90.25 638.5,-69.5 818,-69.5 818,-90.25"/>
<text xml:space="preserve" text-anchor="middle" x="728.25" y="-76.75" font-family="Helvetica,sans-Serif" font-size="10.00">CGAL/Delaunay_triangulation_3.h</text>
</a>
</g>
</g>
<!-- Node18&#45;&gt;Node19 -->
<g id="edge19_Node000018_Node000019" class="edge">
<title>Node18&#45;&gt;Node19</title>
<g id="a_edge19_Node000018_Node000019"><a xlink:title=" ">
<path fill="none" stroke="#63b8ff" d="M728.25,-138.7C728.25,-129.08 728.25,-114.01 728.25,-101.66"/>
<polygon fill="#63b8ff" stroke="#63b8ff" points="731.75,-102.04 728.25,-92.04 724.75,-102.04 731.75,-102.04"/>
</a>
</g>
</g>
<!-- Node20 -->
<g id="Node000020" class="node">
<title>Node20</title>
<g id="a_Node000020"><a xlink:title=" ">
<polygon fill="#e0e0e0" stroke="#999999" points="128.5,-103 0,-103 0,-56.75 128.5,-56.75 128.5,-103"/>
<text xml:space="preserve" text-anchor="start" x="8" y="-89.5" font-family="Helvetica,sans-Serif" font-size="10.00">CGAL/Exact_predicates</text>
<text xml:space="preserve" text-anchor="start" x="8" y="-76.75" font-family="Helvetica,sans-Serif" font-size="10.00">_inexact_constructions</text>
<text xml:space="preserve" text-anchor="middle" x="64.25" y="-64" font-family="Helvetica,sans-Serif" font-size="10.00">_kernel.h</text>
</a>
</g>
</g>
<!-- Node18&#45;&gt;Node20 -->
<g id="edge20_Node000018_Node000020" class="edge">
<title>Node18&#45;&gt;Node20</title>
<g id="a_edge20_Node000018_Node000020"><a xlink:title=" ">
<path fill="none" stroke="#63b8ff" d="M662.42,-139.94C659.32,-139.61 656.25,-139.29 653.25,-139 428.13,-117.09 365.36,-143.72 140.14,-103.34"/>
<polygon fill="#63b8ff" stroke="#63b8ff" points="140.9,-99.92 130.43,-101.58 139.64,-106.81 140.9,-99.92"/>
</a>
</g>
</g>
<!-- Node21 -->
<g id="Node000021" class="node">
<title>Node21</title>
<g id="a_Node000021"><a xlink:title=" ">
<polygon fill="#e0e0e0" stroke="#999999" points="294.25,-90.25 146.25,-90.25 146.25,-69.5 294.25,-69.5 294.25,-90.25"/>
<text xml:space="preserve" text-anchor="middle" x="220.25" y="-76.75" font-family="Helvetica,sans-Serif" font-size="10.00">CGAL/point_generators_3.h</text>
</a>
</g>
</g>
<!-- Node18&#45;&gt;Node21 -->
<g id="edge21_Node000018_Node000021" class="edge">
<title>Node18&#45;&gt;Node21</title>
<g id="a_edge21_Node000018_Node000021"><a xlink:title=" ">
<path fill="none" stroke="#63b8ff" d="M662.41,-140.06C659.31,-139.7 656.25,-139.34 653.25,-139 497.88,-121.3 457.06,-131.23 303.25,-103 290.09,-100.58 275.96,-97.15 263.16,-93.7"/>
<polygon fill="#63b8ff" stroke="#63b8ff" points="264.33,-90.39 253.76,-91.09 262.46,-97.14 264.33,-90.39"/>
</a>
</g>
</g>
<!-- Node22 -->
<g id="Node000022" class="node">
<title>Node22</title>
<g id="a_Node000022"><a xlink:title=" ">
<polygon fill="#e0e0e0" stroke="#999999" points="450,-96.62 312.5,-96.62 312.5,-63.12 450,-63.12 450,-96.62"/>
<text xml:space="preserve" text-anchor="start" x="320.5" y="-83.12" font-family="Helvetica,sans-Serif" font-size="10.00">CGAL/Triangulation</text>
<text xml:space="preserve" text-anchor="middle" x="381.25" y="-70.38" font-family="Helvetica,sans-Serif" font-size="10.00">_cell_base_with_info_3.h</text>
</a>
</g>
</g>
<!-- Node18&#45;&gt;Node22 -->
<g id="edge22_Node000018_Node000022" class="edge">
<title>Node18&#45;&gt;Node22</title>
<g id="a_edge22_Node000018_Node000022"><a xlink:title=" ">
<path fill="none" stroke="#63b8ff" d="M662.63,-139.35C607.92,-131.35 528.09,-118.52 459.25,-103 455.04,-102.05 450.73,-101.01 446.39,-99.92"/>
<polygon fill="#63b8ff" stroke="#63b8ff" points="447.63,-96.63 437.07,-97.49 445.87,-103.4 447.63,-96.63"/>
</a>
</g>
</g>
<!-- Node23 -->
<g id="Node000023" class="node">
<title>Node23</title>
<g id="a_Node000023"><a xlink:title=" ">
<polygon fill="#e0e0e0" stroke="#999999" points="620.12,-96.62 468.38,-96.62 468.38,-63.12 620.12,-63.12 620.12,-96.62"/>
<text xml:space="preserve" text-anchor="start" x="476.38" y="-83.12" font-family="Helvetica,sans-Serif" font-size="10.00">CGAL/Triangulation</text>
<text xml:space="preserve" text-anchor="middle" x="544.25" y="-70.38" font-family="Helvetica,sans-Serif" font-size="10.00">_vertex_base_with_info_3.h</text>
</a>
</g>
</g>
<!-- Node18&#45;&gt;Node23 -->
<g id="edge23_Node000018_Node000023" class="edge">
<title>Node18&#45;&gt;Node23</title>
<g id="a_edge23_Node000018_Node000023"><a xlink:title=" ">
<path fill="none" stroke="#63b8ff" d="M701.49,-138.56C674.78,-128.76 632.95,-113.42 599.15,-101.01"/>
<polygon fill="#63b8ff" stroke="#63b8ff" points="600.5,-97.78 589.91,-97.62 598.09,-104.35 600.5,-97.78"/>
</a>
</g>
</g>
<!-- Node24 -->
<g id="Node000024" class="node">
<title>Node24</title>
<g id="a_Node000024"><a xlink:href="_settings_8hpp.html" target="_top" xlink:title="Global integer and precision settings.">
<polygon fill="white" stroke="#666666" points="912.62,-90.25 835.88,-90.25 835.88,-69.5 912.62,-69.5 912.62,-90.25"/>
<text xml:space="preserve" text-anchor="middle" x="874.25" y="-76.75" font-family="Helvetica,sans-Serif" font-size="10.00">Settings.hpp</text>
</a>
</g>
</g>
<!-- Node18&#45;&gt;Node24 -->
<g id="edge24_Node000018_Node000024" class="edge">
<title>Node18&#45;&gt;Node24</title>
<g id="a_edge24_Node000018_Node000024"><a xlink:title=" ">
<path fill="none" stroke="#63b8ff" d="M749.91,-138.52C769.99,-129.38 800.67,-115.35 827.25,-103 832.53,-100.55 838.14,-97.92 843.58,-95.37"/>
<polygon fill="#63b8ff" stroke="#63b8ff" points="844.75,-98.68 852.31,-91.26 841.77,-92.35 844.75,-98.68"/>
</a>
</g>
</g>
<!-- Node24&#45;&gt;Node15 -->
<g id="edge26_Node000024_Node000015" class="edge">
<title>Node24&#45;&gt;Node15</title>
<g id="a_edge26_Node000024_Node000015"><a xlink:title=" ">
<path fill="none" stroke="#63b8ff" d="M890.6,-69.13C899.37,-64.44 910.55,-59.3 921.25,-56.75 1082.42,-18.37 2302.68,-12.29 2529.14,-11.48"/>
<polygon fill="#63b8ff" stroke="#63b8ff" points="2528.83,-14.99 2538.82,-11.45 2528.81,-7.99 2528.83,-14.99"/>
</a>
</g>
</g>
<!-- Node25 -->
<g id="Node000025" class="node">
<title>Node25</title>
<g id="a_Node000025"><a xlink:title=" ">
<polygon fill="#e0e0e0" stroke="#999999" points="943.75,-20.75 804.75,-20.75 804.75,0 943.75,0 943.75,-20.75"/>
<text xml:space="preserve" text-anchor="middle" x="874.25" y="-7.25" font-family="Helvetica,sans-Serif" font-size="10.00">CGAL/GMP/Gmpzf_type.h</text>
</a>
</g>
</g>
<!-- Node24&#45;&gt;Node25 -->
<g id="edge25_Node000024_Node000025" class="edge">
<title>Node24&#45;&gt;Node25</title>
<g id="a_edge25_Node000024_Node000025"><a xlink:title=" ">
<path fill="none" stroke="#63b8ff" d="M874.25,-69.2C874.25,-59.58 874.25,-44.51 874.25,-32.16"/>
<polygon fill="#63b8ff" stroke="#63b8ff" points="877.75,-32.54 874.25,-22.54 870.75,-32.54 877.75,-32.54"/>
</a>
</g>
</g>
<!-- Node26&#45;&gt;Node4 -->
<g id="edge29_Node000026_Node000004" class="edge">
<title>Node26&#45;&gt;Node4</title>
<g id="a_edge29_Node000026_Node000004"><a xlink:title=" ">
<path fill="none" stroke="#63b8ff" d="M1956.31,-147.64C1785.99,-144.2 1096.25,-128.77 1003.25,-103 997.46,-101.39 991.57,-98.86 986.13,-96.06"/>
<polygon fill="#63b8ff" stroke="#63b8ff" points="988.12,-93.16 977.69,-91.29 984.68,-99.26 988.12,-93.16"/>
</a>
</g>
</g>
<!-- Node26&#45;&gt;Node5 -->
<g id="edge32_Node000026_Node000005" class="edge">
<title>Node26&#45;&gt;Node5</title>
<g id="a_edge32_Node000026_Node000005"><a xlink:title=" ">
<path fill="none" stroke="#63b8ff" d="M1956.3,-147.71C1792.86,-144.7 1153.43,-131.21 1068.25,-103 1063.88,-101.55 1059.55,-99.36 1055.53,-96.9"/>
<polygon fill="#63b8ff" stroke="#63b8ff" points="1057.8,-94.22 1047.59,-91.4 1053.82,-99.97 1057.8,-94.22"/>
</a>
</g>
</g>
<!-- Node26&#45;&gt;Node8 -->
<g id="edge39_Node000026_Node000008" class="edge">
<title>Node26&#45;&gt;Node8</title>
<g id="a_edge39_Node000026_Node000008"><a xlink:title=" ">
<path fill="none" stroke="#63b8ff" d="M2032.3,-143.78C2048.31,-142.01 2067.16,-140.14 2084.25,-139 2152.68,-134.44 3263.51,-144.33 3318.25,-103 3339.96,-86.61 3345.78,-53.94 3347.14,-32.37"/>
<polygon fill="#63b8ff" stroke="#63b8ff" points="3350.63,-32.79 3347.47,-22.68 3343.63,-32.55 3350.63,-32.79"/>
</a>
</g>
</g>
<!-- Node26&#45;&gt;Node11 -->
<g id="edge50_Node000026_Node000011" class="edge">
<title>Node26&#45;&gt;Node11</title>
<g id="a_edge50_Node000026_Node000011"><a xlink:title=" ">
<path fill="none" stroke="#63b8ff" d="M1956.33,-147.26C1802.85,-142.63 1232.22,-124.13 1154.25,-103 1148.32,-101.39 1142.28,-98.9 1136.66,-96.16"/>
<polygon fill="#63b8ff" stroke="#63b8ff" points="1138.33,-93.09 1127.86,-91.46 1135.03,-99.26 1138.33,-93.09"/>
</a>
</g>
</g>
<!-- Node26&#45;&gt;Node13 -->
<g id="edge58_Node000026_Node000013" class="edge">
<title>Node26&#45;&gt;Node13</title>
<g id="a_edge58_Node000026_Node000013"><a xlink:title=" ">
<path fill="none" stroke="#63b8ff" d="M2032.21,-140.86C2036.92,-140.13 2041.69,-139.48 2046.25,-139 2306.28,-111.73 2967.75,-162.93 3222.25,-103 3229.4,-101.32 3236.77,-98.52 3243.53,-95.48"/>
<polygon fill="#63b8ff" stroke="#63b8ff" points="3244.7,-98.8 3252.16,-91.27 3241.64,-92.5 3244.7,-98.8"/>
</a>
</g>
</g>
<!-- Node26&#45;&gt;Node14 -->
<g id="edge33_Node000026_Node000014" class="edge">
<title>Node26&#45;&gt;Node14</title>
<g id="a_edge33_Node000026_Node000014"><a xlink:title=" ">
<path fill="none" stroke="#63b8ff" d="M2032.22,-140.93C2036.93,-140.18 2041.69,-139.51 2046.25,-139 2134.45,-129.1 2764.54,-142.03 2844.25,-103 2852.69,-98.87 2887.83,-55.25 2907.94,-29.71"/>
<polygon fill="#63b8ff" stroke="#63b8ff" points="2910.48,-32.15 2913.89,-22.12 2904.97,-27.83 2910.48,-32.15"/>
</a>
</g>
</g>
<!-- Node26&#45;&gt;Node15 -->
<g id="edge34_Node000026_Node000015" class="edge">
<title>Node26&#45;&gt;Node15</title>
<g id="a_edge34_Node000026_Node000015"><a xlink:title=" ">
<path fill="none" stroke="#63b8ff" d="M2032.23,-141.05C2036.94,-140.28 2041.7,-139.57 2046.25,-139 2101.51,-132.05 2504.34,-139.69 2546.25,-103 2565.98,-85.73 2568.38,-53.81 2567.47,-32.58"/>
<polygon fill="#63b8ff" stroke="#63b8ff" points="2570.97,-32.46 2566.73,-22.75 2563.99,-32.98 2570.97,-32.46"/>
</a>
</g>
</g>
<!-- Node26&#45;&gt;Node16 -->
<g id="edge44_Node000026_Node000016" class="edge">
<title>Node26&#45;&gt;Node16</title>
<g id="a_edge44_Node000026_Node000016"><a xlink:title=" ">
<path fill="none" stroke="#63b8ff" d="M2032.22,-140.92C2036.93,-140.17 2041.69,-139.51 2046.25,-139 2138.32,-128.76 2795.6,-142.82 2879.25,-103 2904.05,-91.19 2897.31,-71.87 2920.25,-56.75 2950.54,-36.79 2990.39,-24.89 3019.29,-18.32"/>
<polygon fill="#63b8ff" stroke="#63b8ff" points="3019.66,-21.83 3028.7,-16.3 3018.19,-14.98 3019.66,-21.83"/>
</a>
</g>
</g>
<!-- Node26&#45;&gt;Node24 -->
<g id="edge59_Node000026_Node000024" class="edge">
<title>Node26&#45;&gt;Node24</title>
<g id="a_edge59_Node000026_Node000024"><a xlink:title=" ">
<path fill="none" stroke="#63b8ff" d="M1956.26,-148.77C1789.73,-150.22 1123.47,-152.73 921.25,-103 914.41,-101.32 907.36,-98.6 900.87,-95.64"/>
<polygon fill="#63b8ff" stroke="#63b8ff" points="902.49,-92.53 891.98,-91.23 899.38,-98.8 902.49,-92.53"/>
</a>
</g>
</g>
<!-- Node27 -->
<g id="Node000027" class="node">
<title>Node27</title>
<g id="a_Node000027"><a xlink:title=" ">
<polygon fill="#e0e0e0" stroke="#999999" points="2775.38,-90.25 2685.12,-90.25 2685.12,-69.5 2775.38,-69.5 2775.38,-90.25"/>
<text xml:space="preserve" text-anchor="middle" x="2730.25" y="-76.75" font-family="Helvetica,sans-Serif" font-size="10.00">CGAL/version.h</text>
</a>
</g>
</g>
<!-- Node26&#45;&gt;Node27 -->
<g id="edge28_Node000026_Node000027" class="edge">
<title>Node26&#45;&gt;Node27</title>
<g id="a_edge28_Node000026_Node000027"><a xlink:title=" ">
<path fill="none" stroke="#63b8ff" d="M2032.23,-140.98C2036.94,-140.22 2041.7,-139.54 2046.25,-139 2324.77,-106.06 2402.74,-165.02 2676.25,-103 2684.31,-101.17 2692.71,-98.26 2700.43,-95.15"/>
<polygon fill="#63b8ff" stroke="#63b8ff" points="2701.57,-98.47 2709.37,-91.3 2698.8,-92.04 2701.57,-98.47"/>
</a>
</g>
</g>
<!-- Node28 -->
<g id="Node000028" class="node">
<title>Node28</title>
<g id="a_Node000028"><a xlink:title=" ">
<polygon fill="#e0e0e0" stroke="#999999" points="2835,-90.25 2793.5,-90.25 2793.5,-69.5 2835,-69.5 2835,-90.25"/>
<text xml:space="preserve" text-anchor="middle" x="2814.25" y="-76.75" font-family="Helvetica,sans-Serif" font-size="10.00">array</text>
</a>
</g>
</g>
<!-- Node26&#45;&gt;Node28 -->
<g id="edge30_Node000026_Node000028" class="edge">
<title>Node26&#45;&gt;Node28</title>
<g id="a_edge30_Node000026_Node000028"><a xlink:title=" ">
<path fill="none" stroke="#63b8ff" d="M2032.22,-140.94C2036.93,-140.19 2041.69,-139.52 2046.25,-139 2209.39,-120.39 2629.57,-158.08 2784.25,-103 2788.09,-101.63 2791.85,-99.6 2795.34,-97.32"/>
<polygon fill="#63b8ff" stroke="#63b8ff" points="2797.24,-100.27 2803.1,-91.45 2793.01,-94.69 2797.24,-100.27"/>
</a>
</g>
</g>
<!-- Node29 -->
<g id="Node000029" class="node">
<title>Node29</title>
<g id="a_Node000029"><a xlink:title=" ">
<polygon fill="#e0e0e0" stroke="#999999" points="2989.38,-90.25 2929.12,-90.25 2929.12,-69.5 2989.38,-69.5 2989.38,-90.25"/>
<text xml:space="preserve" text-anchor="middle" x="2959.25" y="-76.75" font-family="Helvetica,sans-Serif" font-size="10.00">charconv</text>
</a>
</g>
</g>
<!-- Node26&#45;&gt;Node29 -->
<g id="edge31_Node000026_Node000029" class="edge">
<title>Node26&#45;&gt;Node29</title>
<g id="a_edge31_Node000026_Node000029"><a xlink:title=" ">
<path fill="none" stroke="#63b8ff" d="M2032.22,-140.91C2036.93,-140.17 2041.69,-139.5 2046.25,-139 2238.36,-117.8 2728.16,-151.5 2915.25,-103 2921.56,-101.36 2928.02,-98.74 2933.97,-95.86"/>
<polygon fill="#63b8ff" stroke="#63b8ff" points="2935.46,-99.03 2942.67,-91.27 2932.19,-92.84 2935.46,-99.03"/>
</a>
</g>
</g>
<!-- Node30 -->
<g id="Node000030" class="node">
<title>Node30</title>
<g id="a_Node000030"><a xlink:title=" ">
<polygon fill="#e0e0e0" stroke="#999999" points="3074.75,-90.25 3007.75,-90.25 3007.75,-69.5 3074.75,-69.5 3074.75,-90.25"/>
<text xml:space="preserve" text-anchor="middle" x="3041.25" y="-76.75" font-family="Helvetica,sans-Serif" font-size="10.00">filesystem</text>
</a>
</g>
</g>
<!-- Node26&#45;&gt;Node30 -->
<g id="edge35_Node000026_Node000030" class="edge">
<title>Node26&#45;&gt;Node30</title>
<g id="a_edge35_Node000026_Node000030"><a xlink:title=" ">
<path fill="none" stroke="#63b8ff" d="M2032.22,-140.89C2036.93,-140.15 2041.69,-139.49 2046.25,-139 2256.72,-116.16 2793.47,-156.71 2998.25,-103 3004.44,-101.38 3010.76,-98.76 3016.58,-95.88"/>
<polygon fill="#63b8ff" stroke="#63b8ff" points="3017.92,-99.13 3025.05,-91.3 3014.59,-92.98 3017.92,-99.13"/>
</a>
</g>
</g>
<!-- Node31 -->
<g id="Node000031" class="node">
<title>Node31</title>
<g id="a_Node000031"><a xlink:title=" ">
<polygon fill="#e0e0e0" stroke="#999999" points="3147.38,-90.25 3093.12,-90.25 3093.12,-69.5 3147.38,-69.5 3147.38,-90.25"/>
<text xml:space="preserve" text-anchor="middle" x="3120.25" y="-76.75" font-family="Helvetica,sans-Serif" font-size="10.00">fstream</text>
</a>
</g>
</g>
<!-- Node26&#45;&gt;Node31 -->
<g id="edge36_Node000026_Node000031" class="edge">
<title>Node26&#45;&gt;Node31</title>
<g id="a_edge36_Node000026_Node000031"><a xlink:title=" ">
<path fill="none" stroke="#63b8ff" d="M2032.21,-140.88C2036.93,-140.14 2041.69,-139.49 2046.25,-139 2275.75,-114.46 2863.27,-169.63 3084.25,-103 3089.07,-101.55 3093.89,-99.28 3098.37,-96.75"/>
<polygon fill="#63b8ff" stroke="#63b8ff" points="3100.2,-99.73 3106.75,-91.4 3096.44,-93.83 3100.2,-99.73"/>
</a>
</g>
</g>
<!-- Node32 -->
<g id="Node000032" class="node">
<title>Node32</title>
<g id="a_Node000032"><a xlink:title=" ">
<polygon fill="#e0e0e0" stroke="#999999" points="3213,-90.25 3165.5,-90.25 3165.5,-69.5 3213,-69.5 3213,-90.25"/>
<text xml:space="preserve" text-anchor="middle" x="3189.25" y="-76.75" font-family="Helvetica,sans-Serif" font-size="10.00">gsl/gsl</text>
</a>
</g>
</g>
<!-- Node26&#45;&gt;Node32 -->
<g id="edge37_Node000026_Node000032" class="edge">
<title>Node26&#45;&gt;Node32</title>
<g id="a_edge37_Node000026_Node000032"><a xlink:title=" ">
<path fill="none" stroke="#63b8ff" d="M2032.21,-140.87C2036.93,-140.13 2041.69,-139.48 2046.25,-139 2168.96,-126.02 3038.79,-140.82 3156.25,-103 3160.63,-101.59 3164.97,-99.41 3168.99,-96.96"/>
<polygon fill="#63b8ff" stroke="#63b8ff" points="3170.71,-100.03 3176.93,-91.46 3166.72,-94.28 3170.71,-100.03"/>
</a>
</g>
</g>
<!-- Node33 -->
<g id="Node000033" class="node">
<title>Node33</title>
<g id="a_Node000033"><a xlink:title=" ">
<polygon fill="#e0e0e0" stroke="#999999" points="1219.12,-90.25 1163.38,-90.25 1163.38,-69.5 1219.12,-69.5 1219.12,-90.25"/>
<text xml:space="preserve" text-anchor="middle" x="1191.25" y="-76.75" font-family="Helvetica,sans-Serif" font-size="10.00">iomanip</text>
</a>
</g>
</g>
<!-- Node26&#45;&gt;Node33 -->
<g id="edge38_Node000026_Node000033" class="edge">
<title>Node26&#45;&gt;Node33</title>
<g id="a_edge38_Node000026_Node000033"><a xlink:title=" ">
<path fill="none" stroke="#63b8ff" d="M1956.42,-148.5C1821.77,-148.58 1366.54,-145.63 1228.25,-103 1223.29,-101.47 1218.3,-99.14 1213.66,-96.57"/>
<polygon fill="#63b8ff" stroke="#63b8ff" points="1215.85,-93.81 1205.5,-91.53 1212.17,-99.76 1215.85,-93.81"/>
</a>
</g>
</g>
<!-- Node34 -->
<g id="Node000034" class="node">
<title>Node34</title>
<g id="a_Node000034"><a xlink:title=" ">
<polygon fill="#e0e0e0" stroke="#999999" points="1282.88,-90.25 1237.62,-90.25 1237.62,-69.5 1282.88,-69.5 1282.88,-90.25"/>
<text xml:space="preserve" text-anchor="middle" x="1260.25" y="-76.75" font-family="Helvetica,sans-Serif" font-size="10.00">locale</text>
</a>
</g>
</g>
<!-- Node26&#45;&gt;Node34 -->
<g id="edge40_Node000026_Node000034" class="edge">
<title>Node26&#45;&gt;Node34</title>
<g id="a_edge40_Node000026_Node000034"><a xlink:title=" ">
<path fill="none" stroke="#63b8ff" d="M1956.43,-148.57C1829.03,-148.83 1416.54,-146.23 1292.25,-103 1288.18,-101.59 1284.16,-99.5 1280.4,-97.17"/>
<polygon fill="#63b8ff" stroke="#63b8ff" points="1282.69,-94.5 1272.5,-91.59 1278.65,-100.22 1282.69,-94.5"/>
</a>
</g>
</g>
<!-- Node35 -->
<g id="Node000035" class="node">
<title>Node35</title>
<g id="a_Node000035"><a xlink:title=" ">
<polygon fill="#e0e0e0" stroke="#999999" points="1339.12,-90.25 1301.38,-90.25 1301.38,-69.5 1339.12,-69.5 1339.12,-90.25"/>
<text xml:space="preserve" text-anchor="middle" x="1320.25" y="-76.75" font-family="Helvetica,sans-Serif" font-size="10.00">map</text>
</a>
</g>
</g>
<!-- Node26&#45;&gt;Node35 -->
<g id="edge41_Node000026_Node000035" class="edge">
<title>Node26&#45;&gt;Node35</title>
<g id="a_edge41_Node000026_Node000035"><a xlink:title=" ">
<path fill="none" stroke="#63b8ff" d="M1956.43,-148.62C1835.6,-148.95 1460.3,-146.39 1348.25,-103 1344.89,-101.7 1341.62,-99.85 1338.56,-97.77"/>
<polygon fill="#63b8ff" stroke="#63b8ff" points="1340.88,-95.14 1330.87,-91.64 1336.51,-100.61 1340.88,-95.14"/>
</a>
</g>
</g>
<!-- Node36 -->
<g id="Node000036" class="node">
<title>Node36</title>
<g id="a_Node000036"><a xlink:title=" ">
<polygon fill="#e0e0e0" stroke="#999999" points="1405,-90.25 1357.5,-90.25 1357.5,-69.5 1405,-69.5 1405,-90.25"/>
<text xml:space="preserve" text-anchor="middle" x="1381.25" y="-76.75" font-family="Helvetica,sans-Serif" font-size="10.00">mutex</text>
</a>
</g>
</g>
<!-- Node26&#45;&gt;Node36 -->
<g id="edge42_Node000026_Node000036" class="edge">
<title>Node26&#45;&gt;Node36</title>
<g id="a_edge42_Node000026_Node000036"><a xlink:title=" ">
<path fill="none" stroke="#63b8ff" d="M1956.52,-147.91C1844.43,-146.14 1515.03,-138.01 1414.25,-103 1410.1,-101.56 1405.96,-99.46 1402.1,-97.13"/>
<polygon fill="#63b8ff" stroke="#63b8ff" points="1404.15,-94.29 1393.92,-91.53 1400.2,-100.06 1404.15,-94.29"/>
</a>
</g>
</g>
<!-- Node37 -->
<g id="Node000037" class="node">
<title>Node37</title>
<g id="a_Node000037"><a xlink:title=" ">
<polygon fill="#e0e0e0" stroke="#999999" points="1479.12,-90.25 1423.38,-90.25 1423.38,-69.5 1479.12,-69.5 1479.12,-90.25"/>
<text xml:space="preserve" text-anchor="middle" x="1451.25" y="-76.75" font-family="Helvetica,sans-Serif" font-size="10.00">optional</text>
</a>
</g>
</g>
<!-- Node26&#45;&gt;Node37 -->
<g id="edge43_Node000026_Node000037" class="edge">
<title>Node26&#45;&gt;Node37</title>
<g id="a_edge43_Node000026_Node000037"><a xlink:title=" ">
<path fill="none" stroke="#63b8ff" d="M1956.39,-147.16C1854.33,-143.56 1575.38,-131.31 1488.25,-103 1483.31,-101.4 1478.33,-99.04 1473.7,-96.45"/>
<polygon fill="#63b8ff" stroke="#63b8ff" points="1475.89,-93.69 1465.54,-91.42 1472.21,-99.64 1475.89,-93.69"/>
</a>
</g>
</g>
<!-- Node38 -->
<g id="Node000038" class="node">
<title>Node38</title>
<g id="a_Node000038"><a xlink:title=" ">
<polygon fill="#e0e0e0" stroke="#999999" points="1536.88,-90.25 1497.62,-90.25 1497.62,-69.5 1536.88,-69.5 1536.88,-90.25"/>
<text xml:space="preserve" text-anchor="middle" x="1517.25" y="-76.75" font-family="Helvetica,sans-Serif" font-size="10.00">span</text>
</a>
</g>
</g>
<!-- Node26&#45;&gt;Node38 -->
<g id="edge45_Node000026_Node000038" class="edge">
<title>Node26&#45;&gt;Node38</title>
<g id="a_edge45_Node000026_Node000038"><a xlink:title=" ">
<path fill="none" stroke="#63b8ff" d="M1956.18,-147.17C1862.04,-143.77 1620.59,-132.38 1546.25,-103 1542.72,-101.6 1539.25,-99.65 1536,-97.47"/>
<polygon fill="#63b8ff" stroke="#63b8ff" points="1538.38,-94.88 1528.32,-91.53 1534.1,-100.42 1538.38,-94.88"/>
</a>
</g>
</g>
<!-- Node39 -->
<g id="Node000039" class="node">
<title>Node39</title>
<g id="a_Node000039"><a xlink:title=" ">
<polygon fill="#e0e0e0" stroke="#999999" points="1611.12,-90.25 1555.38,-90.25 1555.38,-69.5 1611.12,-69.5 1611.12,-90.25"/>
<text xml:space="preserve" text-anchor="middle" x="1583.25" y="-76.75" font-family="Helvetica,sans-Serif" font-size="10.00">sstream</text>
</a>
</g>
</g>
<!-- Node26&#45;&gt;Node39 -->
<g id="edge46_Node000026_Node000039" class="edge">
<title>Node26&#45;&gt;Node39</title>
<g id="a_edge46_Node000026_Node000039"><a xlink:title=" ">
<path fill="none" stroke="#63b8ff" d="M1956.21,-148.91C1887.28,-148.76 1737.98,-143.3 1620.25,-103 1615.55,-101.39 1610.8,-99.13 1606.34,-96.66"/>
<polygon fill="#63b8ff" stroke="#63b8ff" points="1608.28,-93.74 1597.92,-91.53 1604.64,-99.72 1608.28,-93.74"/>
</a>
</g>
</g>
<!-- Node40 -->
<g id="Node000040" class="node">
<title>Node40</title>
<g id="a_Node000040"><a xlink:title=" ">
<polygon fill="#e0e0e0" stroke="#999999" points="1693.25,-90.25 1629.25,-90.25 1629.25,-69.5 1693.25,-69.5 1693.25,-90.25"/>
<text xml:space="preserve" text-anchor="middle" x="1661.25" y="-76.75" font-family="Helvetica,sans-Serif" font-size="10.00">stdexcept</text>
</a>
</g>
</g>
<!-- Node26&#45;&gt;Node40 -->
<g id="edge47_Node000026_Node000040" class="edge">
<title>Node26&#45;&gt;Node40</title>
<g id="a_edge47_Node000026_Node000040"><a xlink:title=" ">
<path fill="none" stroke="#63b8ff" d="M1956.41,-146.6C1899.79,-143.03 1790.26,-132.61 1702.25,-103 1696.88,-101.19 1691.38,-98.72 1686.22,-96.08"/>
<polygon fill="#63b8ff" stroke="#63b8ff" points="1688.03,-93.08 1677.59,-91.31 1684.65,-99.21 1688.03,-93.08"/>
</a>
</g>
</g>
<!-- Node41 -->
<g id="Node000041" class="node">
<title>Node41</title>
<g id="a_Node000041"><a xlink:title=" ">
<polygon fill="#e0e0e0" stroke="#999999" points="1755.12,-90.25 1711.38,-90.25 1711.38,-69.5 1755.12,-69.5 1755.12,-90.25"/>
<text xml:space="preserve" text-anchor="middle" x="1733.25" y="-76.75" font-family="Helvetica,sans-Serif" font-size="10.00">string</text>
</a>
</g>
</g>
<!-- Node26&#45;&gt;Node41 -->
<g id="edge48_Node000026_Node000041" class="edge">
<title>Node26&#45;&gt;Node41</title>
<g id="a_edge48_Node000026_Node000041"><a xlink:title=" ">
<path fill="none" stroke="#63b8ff" d="M1956.15,-145.81C1909.31,-141.55 1828.15,-130.57 1764.25,-103 1760.56,-101.41 1756.87,-99.32 1753.39,-97.07"/>
<polygon fill="#63b8ff" stroke="#63b8ff" points="1755.71,-94.42 1745.55,-91.42 1751.62,-100.1 1755.71,-94.42"/>
</a>
</g>
</g>
<!-- Node42 -->
<g id="Node000042" class="node">
<title>Node42</title>
<g id="a_Node000042"><a xlink:title=" ">
<polygon fill="#e0e0e0" stroke="#999999" points="1845.38,-90.25 1773.12,-90.25 1773.12,-69.5 1845.38,-69.5 1845.38,-90.25"/>
<text xml:space="preserve" text-anchor="middle" x="1809.25" y="-76.75" font-family="Helvetica,sans-Serif" font-size="10.00">string_view</text>
</a>
</g>
</g>
<!-- Node26&#45;&gt;Node42 -->
<g id="edge49_Node000026_Node000042" class="edge">
<title>Node26&#45;&gt;Node42</title>
<g id="a_edge49_Node000026_Node000042"><a xlink:title=" ">
<path fill="none" stroke="#63b8ff" d="M1959.81,-138.52C1931.4,-130.07 1890.23,-117.05 1855.25,-103 1849.74,-100.79 1843.96,-98.21 1838.43,-95.62"/>
<polygon fill="#63b8ff" stroke="#63b8ff" points="1840.13,-92.56 1829.61,-91.37 1837.09,-98.87 1840.13,-92.56"/>
</a>
</g>
</g>
<!-- Node43 -->
<g id="Node000043" class="node">
<title>Node43</title>
<g id="a_Node000043"><a xlink:title=" ">
<polygon fill="#e0e0e0" stroke="#999999" points="1910.62,-90.25 1863.88,-90.25 1863.88,-69.5 1910.62,-69.5 1910.62,-90.25"/>
<text xml:space="preserve" text-anchor="middle" x="1887.25" y="-76.75" font-family="Helvetica,sans-Serif" font-size="10.00">vector</text>
</a>
</g>
</g>
<!-- Node26&#45;&gt;Node43 -->
<g id="edge51_Node000026_Node000043" class="edge">
<title>Node26&#45;&gt;Node43</title>
<g id="a_edge51_Node000026_Node000043"><a xlink:title=" ">
<path fill="none" stroke="#63b8ff" d="M1977.39,-138.57C1962.07,-129.57 1938.92,-115.74 1919.25,-103 1916.28,-101.08 1913.19,-99.02 1910.15,-96.96"/>
<polygon fill="#63b8ff" stroke="#63b8ff" points="1912.3,-94.18 1902.08,-91.39 1908.32,-99.95 1912.3,-94.18"/>
</a>
</g>
</g>
<!-- Node44 -->
<g id="Node000044" class="node">
<title>Node44</title>
<g id="a_Node000044"><a xlink:title=" ">
<polygon fill="#e0e0e0" stroke="#999999" points="1980.25,-90.25 1928.25,-90.25 1928.25,-69.5 1980.25,-69.5 1980.25,-90.25"/>
<text xml:space="preserve" text-anchor="middle" x="1954.25" y="-76.75" font-family="Helvetica,sans-Serif" font-size="10.00">version</text>
</a>
</g>
</g>
<!-- Node26&#45;&gt;Node44 -->
<g id="edge52_Node000026_Node000044" class="edge">
<title>Node26&#45;&gt;Node44</title>
<g id="a_edge52_Node000026_Node000044"><a xlink:title=" ">
<path fill="none" stroke="#63b8ff" d="M1988.52,-138.7C1982.58,-128.68 1973.13,-112.74 1965.66,-100.13"/>
<polygon fill="#63b8ff" stroke="#63b8ff" points="1968.85,-98.65 1960.74,-91.83 1962.83,-102.22 1968.85,-98.65"/>
</a>
</g>
</g>
<!-- Node45 -->
<g id="Node000045" class="node">
<title>Node45</title>
<g id="a_Node000045"><a xlink:title=" ">
<polygon fill="#e0e0e0" stroke="#999999" points="2070,-90.25 1998.5,-90.25 1998.5,-69.5 2070,-69.5 2070,-90.25"/>
<text xml:space="preserve" text-anchor="middle" x="2034.25" y="-76.75" font-family="Helvetica,sans-Serif" font-size="10.00">date/date.h</text>
</a>
</g>
</g>
<!-- Node26&#45;&gt;Node45 -->
<g id="edge53_Node000026_Node000045" class="edge">
<title>Node26&#45;&gt;Node45</title>
<g id="a_edge53_Node000026_Node000045"><a xlink:title=" ">
<path fill="none" stroke="#63b8ff" d="M1999.98,-138.7C2005.92,-128.68 2015.37,-112.74 2022.84,-100.13"/>
<polygon fill="#63b8ff" stroke="#63b8ff" points="2025.67,-102.22 2027.76,-91.83 2019.65,-98.65 2025.67,-102.22"/>
</a>
</g>
</g>
<!-- Node46 -->
<g id="Node000046" class="node">
<title>Node46</title>
<g id="a_Node000046"><a xlink:title=" ">
<polygon fill="#e0e0e0" stroke="#999999" points="2174.12,-90.25 2088.38,-90.25 2088.38,-69.5 2174.12,-69.5 2174.12,-90.25"/>
<text xml:space="preserve" text-anchor="middle" x="2131.25" y="-76.75" font-family="Helvetica,sans-Serif" font-size="10.00">fmt/ostream.h</text>
</a>
</g>
</g>
<!-- Node26&#45;&gt;Node46 -->
<g id="edge54_Node000026_Node000046" class="edge">
<title>Node26&#45;&gt;Node46</title>
<g id="a_edge54_Node000026_Node000046"><a xlink:title=" ">
<path fill="none" stroke="#63b8ff" d="M2014.17,-138.56C2037,-127.31 2074.66,-108.76 2101.09,-95.74"/>
<polygon fill="#63b8ff" stroke="#63b8ff" points="2102.52,-98.93 2109.95,-91.37 2099.43,-92.65 2102.52,-98.93"/>
</a>
</g>
</g>
<!-- Node47 -->
<g id="Node000047" class="node">
<title>Node47</title>
<g id="a_Node000047"><a xlink:title=" ">
<polygon fill="#e0e0e0" stroke="#999999" points="2297.88,-96.62 2192.62,-96.62 2192.62,-63.12 2297.88,-63.12 2297.88,-96.62"/>
<text xml:space="preserve" text-anchor="start" x="2200.62" y="-83.12" font-family="Helvetica,sans-Serif" font-size="10.00">spdlog/sinks/basic</text>
<text xml:space="preserve" text-anchor="middle" x="2245.25" y="-70.38" font-family="Helvetica,sans-Serif" font-size="10.00">_file_sink.h</text>
</a>
</g>
</g>
<!-- Node26&#45;&gt;Node47 -->
<g id="edge55_Node000026_Node000047" class="edge">
<title>Node26&#45;&gt;Node47</title>
<g id="a_edge55_Node000026_Node000047"><a xlink:title=" ">
<path fill="none" stroke="#63b8ff" d="M2032.22,-140.51C2070.61,-132.27 2131.5,-118.4 2183.25,-103 2185.79,-102.24 2188.38,-101.44 2190.99,-100.61"/>
<polygon fill="#63b8ff" stroke="#63b8ff" points="2191.91,-103.99 2200.31,-97.53 2189.72,-97.35 2191.91,-103.99"/>
</a>
</g>
</g>
<!-- Node48 -->
<g id="Node000048" class="node">
<title>Node48</title>
<g id="a_Node000048"><a xlink:title=" ">
<polygon fill="#e0e0e0" stroke="#999999" points="2426.5,-96.62 2316,-96.62 2316,-63.12 2426.5,-63.12 2426.5,-96.62"/>
<text xml:space="preserve" text-anchor="start" x="2324" y="-83.12" font-family="Helvetica,sans-Serif" font-size="10.00">spdlog/sinks/stdout</text>
<text xml:space="preserve" text-anchor="middle" x="2371.25" y="-70.38" font-family="Helvetica,sans-Serif" font-size="10.00">_color_sinks.h</text>
</a>
</g>
</g>
<!-- Node26&#45;&gt;Node48 -->
<g id="edge56_Node000026_Node000048" class="edge">
<title>Node26&#45;&gt;Node48</title>
<g id="a_edge56_Node000026_Node000048"><a xlink:title=" ">
<path fill="none" stroke="#63b8ff" d="M2032.27,-141.33C2036.98,-140.52 2041.72,-139.72 2046.25,-139 2161.89,-120.61 2193.37,-130.26 2307.25,-103 2310.57,-102.2 2313.97,-101.3 2317.37,-100.33"/>
<polygon fill="#63b8ff" stroke="#63b8ff" points="2318.22,-103.74 2326.76,-97.48 2316.18,-97.04 2318.22,-103.74"/>
</a>
</g>
</g>
<!-- Node49 -->
<g id="Node000049" class="node">
<title>Node49</title>
<g id="a_Node000049"><a xlink:title=" ">
<polygon fill="#e0e0e0" stroke="#999999" points="2537.5,-90.25 2445,-90.25 2445,-69.5 2537.5,-69.5 2537.5,-90.25"/>
<text xml:space="preserve" text-anchor="middle" x="2491.25" y="-76.75" font-family="Helvetica,sans-Serif" font-size="10.00">spdlog/spdlog.h</text>
</a>
</g>
</g>
<!-- Node26&#45;&gt;Node49 -->
<g id="edge57_Node000026_Node000049" class="edge">
<title>Node26&#45;&gt;Node49</title>
<g id="a_edge57_Node000026_Node000049"><a xlink:title=" ">
<path fill="none" stroke="#63b8ff" d="M2032.25,-141.14C2036.95,-140.35 2041.71,-139.62 2046.25,-139 2218.29,-115.58 2266.37,-143.31 2435.25,-103 2443.41,-101.05 2451.95,-98.16 2459.83,-95.09"/>
<polygon fill="#63b8ff" stroke="#63b8ff" points="2461.12,-98.35 2469.04,-91.31 2458.46,-91.87 2461.12,-98.35"/>
</a>
</g>
</g>
<!-- Node50 -->
<g id="Node000050" class="node">
<title>Node50</title>
<g id="a_Node000050"><a xlink:title=" ">
<polygon fill="#e0e0e0" stroke="#999999" points="2666.75,-90.25 2593.75,-90.25 2593.75,-69.5 2666.75,-69.5 2666.75,-90.25"/>
<text xml:space="preserve" text-anchor="middle" x="2630.25" y="-76.75" font-family="Helvetica,sans-Serif" font-size="10.00">Version.hpp</text>
</a>
</g>
</g>
<!-- Node26&#45;&gt;Node50 -->
<g id="edge60_Node000026_Node000050" class="edge">
<title>Node26&#45;&gt;Node50</title>
<g id="a_edge60_Node000026_Node000050"><a xlink:title=" ">
<path fill="none" stroke="#63b8ff" d="M2032.23,-141.03C2036.94,-140.26 2041.7,-139.56 2046.25,-139 2281.89,-109.89 2348.54,-159.06 2579.25,-103 2586.72,-101.18 2594.49,-98.35 2601.63,-95.32"/>
<polygon fill="#63b8ff" stroke="#63b8ff" points="2602.86,-98.61 2610.51,-91.28 2599.96,-92.23 2602.86,-98.61"/>
</a>
</g>
</g>
</g>
</svg>
