<?xml version="1.0" encoding="UTF-8" standalone="no"?>
<!DOCTYPE svg PUBLIC "-//W3C//DTD SVG 1.1//EN"
 "http://www.w3.org/Graphics/SVG/1.1/DTD/svg11.dtd">
<!-- Generated by graphviz version 15.1.0 (20260618.0150)
 -->
<!-- Title: include/Formatters.hpp Pages: 1 -->
<svg width="1490pt" height="225pt"
 viewBox="0.00 0.00 1490.00 225.00" xmlns="http://www.w3.org/2000/svg" xmlns:xlink="http://www.w3.org/1999/xlink">
<g id="graph0" class="graph" transform="scale(1 1) rotate(0) translate(4 220.5)">
<title>include/Formatters.hpp</title>
<!-- Node1 -->
<g id="Node000001" class="node">
<title>Node1</title>
<g id="a_Node000001"><a xlink:title="Formatter specializations for various types.">
<polygon fill="#999999" stroke="#666666" points="759,-216.5 630.5,-216.5 630.5,-195.75 759,-195.75 759,-216.5"/>
<text xml:space="preserve" text-anchor="middle" x="694.75" y="-203" font-family="Helvetica,sans-Serif" font-size="10.00">include/Formatters.hpp</text>
</a>
</g>
</g>
<!-- Node2 -->
<g id="Node000002" class="node">
<title>Node2</title>
<g id="a_Node000002"><a xlink:title=" ">
<polygon fill="#e0e0e0" stroke="#999999" points="595.88,-159.75 529.62,-159.75 529.62,-139 595.88,-139 595.88,-159.75"/>
<text xml:space="preserve" text-anchor="middle" x="562.75" y="-146.25" font-family="Helvetica,sans-Serif" font-size="10.00">fmt/core.h</text>
</a>
</g>
</g>
<!-- Node1&#45;&gt;Node2 -->
<g id="edge1_Node000001_Node000002" class="edge">
<title>Node1&#45;&gt;Node2</title>
<g id="a_edge1_Node000001_Node000002"><a xlink:title=" ">
<path fill="none" stroke="#63b8ff" d="M671.15,-195.34C650.41,-186.73 619.98,-174.11 596.64,-164.43"/>
<polygon fill="#63b8ff" stroke="#63b8ff" points="598.12,-161.26 587.54,-160.66 595.44,-167.72 598.12,-161.26"/>
</a>
</g>
</g>
<!-- Node3 -->
<g id="Node000003" class="node">
<title>Node3</title>
<g id="a_Node000003"><a xlink:title=" ">
<polygon fill="#e0e0e0" stroke="#999999" points="691.88,-159.75 613.62,-159.75 613.62,-139 691.88,-139 691.88,-159.75"/>
<text xml:space="preserve" text-anchor="middle" x="652.75" y="-146.25" font-family="Helvetica,sans-Serif" font-size="10.00">fmt/format.h</text>
</a>
</g>
</g>
<!-- Node1&#45;&gt;Node3 -->
<g id="edge2_Node000001_Node000003" class="edge">
<title>Node1&#45;&gt;Node3</title>
<g id="a_edge2_Node000001_Node000003"><a xlink:title=" ">
<path fill="none" stroke="#63b8ff" d="M687.24,-195.34C681.63,-188.02 673.78,-177.79 666.99,-168.94"/>
<polygon fill="#63b8ff" stroke="#63b8ff" points="669.98,-167.08 661.11,-161.28 664.42,-171.34 669.98,-167.08"/>
</a>
</g>
</g>
<!-- Node4 -->
<g id="Node000004" class="node">
<title>Node4</title>
<g id="a_Node000004"><a xlink:title=" ">
<polygon fill="#e0e0e0" stroke="#999999" points="765.62,-159.75 709.88,-159.75 709.88,-139 765.62,-139 765.62,-159.75"/>
<text xml:space="preserve" text-anchor="middle" x="737.75" y="-146.25" font-family="Helvetica,sans-Serif" font-size="10.00">sstream</text>
</a>
</g>
</g>
<!-- Node1&#45;&gt;Node4 -->
<g id="edge3_Node000001_Node000004" class="edge">
<title>Node1&#45;&gt;Node4</title>
<g id="a_edge3_Node000001_Node000004"><a xlink:title=" ">
<path fill="none" stroke="#63b8ff" d="M702.44,-195.34C708.19,-188.02 716.22,-177.79 723.17,-168.94"/>
<polygon fill="#63b8ff" stroke="#63b8ff" points="725.77,-171.3 729.19,-161.27 720.26,-166.97 725.77,-171.3"/>
</a>
</g>
</g>
<!-- Node5 -->
<g id="Node000005" class="node">
<title>Node5</title>
<g id="a_Node000005"><a xlink:href="_triangulation__traits_8hpp.html" target="_top" xlink:title="Traits class for particular uses of CGAL.">
<polygon fill="white" stroke="#666666" points="914.12,-159.75 783.38,-159.75 783.38,-139 914.12,-139 914.12,-159.75"/>
<text xml:space="preserve" text-anchor="middle" x="848.75" y="-146.25" font-family="Helvetica,sans-Serif" font-size="10.00">Triangulation_traits.hpp</text>
</a>
</g>
</g>
<!-- Node1&#45;&gt;Node5 -->
<g id="edge4_Node000001_Node000005" class="edge">
<title>Node1&#45;&gt;Node5</title>
<g id="a_edge4_Node000001_Node000005"><a xlink:title=" ">
<path fill="none" stroke="#63b8ff" d="M722.28,-195.34C746.84,-186.61 783.05,-173.73 810.43,-164"/>
<polygon fill="#63b8ff" stroke="#63b8ff" points="811.52,-167.33 819.77,-160.68 809.18,-160.73 811.52,-167.33"/>
</a>
</g>
</g>
<!-- Node6 -->
<g id="Node000006" class="node">
<title>Node6</title>
<g id="a_Node000006"><a xlink:title=" ">
<polygon fill="#e0e0e0" stroke="#999999" points="179.5,-90.25 0,-90.25 0,-69.5 179.5,-69.5 179.5,-90.25"/>
<text xml:space="preserve" text-anchor="middle" x="89.75" y="-76.75" font-family="Helvetica,sans-Serif" font-size="10.00">CGAL/Delaunay_triangulation_3.h</text>
</a>
</g>
</g>
<!-- Node5&#45;&gt;Node6 -->
<g id="edge5_Node000005_Node000006" class="edge">
<title>Node5&#45;&gt;Node6</title>
<g id="a_edge5_Node000005_Node000006"><a xlink:title=" ">
<path fill="none" stroke="#63b8ff" d="M783.01,-139.82C780.22,-139.53 777.46,-139.25 774.75,-139 514.52,-114.56 446.51,-139.9 187.75,-103 171.35,-100.66 153.64,-97.01 137.84,-93.35"/>
<polygon fill="#63b8ff" stroke="#63b8ff" points="138.73,-89.96 128.19,-91.05 137.11,-96.77 138.73,-89.96"/>
</a>
</g>
</g>
<!-- Node7 -->
<g id="Node000007" class="node">
<title>Node7</title>
<g id="a_Node000007"><a xlink:title=" ">
<polygon fill="#e0e0e0" stroke="#999999" points="356.38,-96.62 197.12,-96.62 197.12,-63.12 356.38,-63.12 356.38,-96.62"/>
<text xml:space="preserve" text-anchor="start" x="205.12" y="-83.12" font-family="Helvetica,sans-Serif" font-size="10.00">CGAL/Delaunay_triangulation</text>
<text xml:space="preserve" text-anchor="middle" x="276.75" y="-70.38" font-family="Helvetica,sans-Serif" font-size="10.00">_cell_base_3.h</text>
</a>
</g>
</g>
<!-- Node5&#45;&gt;Node7 -->
<g id="edge6_Node000005_Node000007" class="edge">
<title>Node5&#45;&gt;Node7</title>
<g id="a_edge6_Node000005_Node000007"><a xlink:title=" ">
<path fill="none" stroke="#63b8ff" d="M783,-139.91C780.21,-139.6 777.45,-139.29 774.75,-139 593.31,-119.53 545.73,-133.1 365.75,-103 359.76,-102 353.59,-100.8 347.41,-99.5"/>
<polygon fill="#63b8ff" stroke="#63b8ff" points="348.32,-96.12 337.8,-97.37 346.81,-102.95 348.32,-96.12"/>
</a>
</g>
</g>
<!-- Node8 -->
<g id="Node000008" class="node">
<title>Node8</title>
<g id="a_Node000008"><a xlink:title=" ">
<polygon fill="#e0e0e0" stroke="#999999" points="503,-103 374.5,-103 374.5,-56.75 503,-56.75 503,-103"/>
<text xml:space="preserve" text-anchor="start" x="382.5" y="-89.5" font-family="Helvetica,sans-Serif" font-size="10.00">CGAL/Exact_predicates</text>
<text xml:space="preserve" text-anchor="start" x="382.5" y="-76.75" font-family="Helvetica,sans-Serif" font-size="10.00">_inexact_constructions</text>
<text xml:space="preserve" text-anchor="middle" x="438.75" y="-64" font-family="Helvetica,sans-Serif" font-size="10.00">_kernel.h</text>
</a>
</g>
</g>
<!-- Node5&#45;&gt;Node8 -->
<g id="edge7_Node000005_Node000008" class="edge">
<title>Node5&#45;&gt;Node8</title>
<g id="a_edge7_Node000005_Node000008"><a xlink:title=" ">
<path fill="none" stroke="#63b8ff" d="M783.07,-139.81C698.71,-128.77 558.64,-110.3 514.75,-103.12"/>
<polygon fill="#63b8ff" stroke="#63b8ff" points="515.44,-99.69 504.98,-101.35 514.19,-106.58 515.44,-99.69"/>
</a>
</g>
</g>
<!-- Node9 -->
<g id="Node000009" class="node">
<title>Node9</title>
<g id="a_Node000009"><a xlink:title=" ">
<polygon fill="#e0e0e0" stroke="#999999" points="668.75,-90.25 520.75,-90.25 520.75,-69.5 668.75,-69.5 668.75,-90.25"/>
<text xml:space="preserve" text-anchor="middle" x="594.75" y="-76.75" font-family="Helvetica,sans-Serif" font-size="10.00">CGAL/point_generators_3.h</text>
</a>
</g>
</g>
<!-- Node5&#45;&gt;Node9 -->
<g id="edge8_Node000005_Node000009" class="edge">
<title>Node5&#45;&gt;Node9</title>
<g id="a_edge8_Node000005_Node000009"><a xlink:title=" ">
<path fill="none" stroke="#63b8ff" d="M811.72,-138.56C777.08,-129.38 723.91,-115.28 677.75,-103 666.28,-99.95 653.92,-96.66 642.34,-93.57"/>
<polygon fill="#63b8ff" stroke="#63b8ff" points="643.55,-90.27 632.98,-91.08 641.74,-97.03 643.55,-90.27"/>
</a>
</g>
</g>
<!-- Node10 -->
<g id="Node000010" class="node">
<title>Node10</title>
<g id="a_Node000010"><a xlink:title=" ">
<polygon fill="#e0e0e0" stroke="#999999" points="762.38,-90.25 687.12,-90.25 687.12,-69.5 762.38,-69.5 762.38,-90.25"/>
<text xml:space="preserve" text-anchor="middle" x="724.75" y="-76.75" font-family="Helvetica,sans-Serif" font-size="10.00">CGAL/tags.h</text>
</a>
</g>
</g>
<!-- Node5&#45;&gt;Node10 -->
<g id="edge9_Node000005_Node000010" class="edge">
<title>Node5&#45;&gt;Node10</title>
<g id="a_edge9_Node000005_Node000010"><a xlink:title=" ">
<path fill="none" stroke="#63b8ff" d="M830.72,-138.56C810.24,-127.41 776.58,-109.09 752.69,-96.08"/>
<polygon fill="#63b8ff" stroke="#63b8ff" points="754.59,-93.13 744.13,-91.43 751.24,-99.28 754.59,-93.13"/>
</a>
</g>
</g>
<!-- Node11 -->
<g id="Node000011" class="node">
<title>Node11</title>
<g id="a_Node000011"><a xlink:title=" ">
<polygon fill="#e0e0e0" stroke="#999999" points="917.5,-96.62 780,-96.62 780,-63.12 917.5,-63.12 917.5,-96.62"/>
<text xml:space="preserve" text-anchor="start" x="788" y="-83.12" font-family="Helvetica,sans-Serif" font-size="10.00">CGAL/Triangulation</text>
<text xml:space="preserve" text-anchor="middle" x="848.75" y="-70.38" font-family="Helvetica,sans-Serif" font-size="10.00">_cell_base_with_info_3.h</text>
</a>
</g>
</g>
<!-- Node5&#45;&gt;Node11 -->
<g id="edge10_Node000005_Node000011" class="edge">
<title>Node5&#45;&gt;Node11</title>
<g id="a_edge10_Node000005_Node000011"><a xlink:title=" ">
<path fill="none" stroke="#63b8ff" d="M848.75,-138.7C848.75,-130.81 848.75,-119.25 848.75,-108.54"/>
<polygon fill="#63b8ff" stroke="#63b8ff" points="852.25,-108.56 848.75,-98.56 845.25,-108.56 852.25,-108.56"/>
</a>
</g>
</g>
<!-- Node12 -->
<g id="Node000012" class="node">
<title>Node12</title>
<g id="a_Node000012"><a xlink:title=" ">
<polygon fill="#e0e0e0" stroke="#999999" points="1047.75,-96.62 935.75,-96.62 935.75,-63.12 1047.75,-63.12 1047.75,-96.62"/>
<text xml:space="preserve" text-anchor="start" x="943.75" y="-83.12" font-family="Helvetica,sans-Serif" font-size="10.00">CGAL/Triangulation</text>
<text xml:space="preserve" text-anchor="middle" x="991.75" y="-70.38" font-family="Helvetica,sans-Serif" font-size="10.00">_data_structure_3.h</text>
</a>
</g>
</g>
<!-- Node5&#45;&gt;Node12 -->
<g id="edge11_Node000005_Node000012" class="edge">
<title>Node5&#45;&gt;Node12</title>
<g id="a_edge11_Node000005_Node000012"><a xlink:title=" ">
<path fill="none" stroke="#63b8ff" d="M869.54,-138.56C889.76,-129.02 921.13,-114.21 947.02,-101.99"/>
<polygon fill="#63b8ff" stroke="#63b8ff" points="948.45,-105.18 956,-97.75 945.46,-98.85 948.45,-105.18"/>
</a>
</g>
</g>
<!-- Node13 -->
<g id="Node000013" class="node">
<title>Node13</title>
<g id="a_Node000013"><a xlink:title=" ">
<polygon fill="#e0e0e0" stroke="#999999" points="1217.62,-96.62 1065.88,-96.62 1065.88,-63.12 1217.62,-63.12 1217.62,-96.62"/>
<text xml:space="preserve" text-anchor="start" x="1073.88" y="-83.12" font-family="Helvetica,sans-Serif" font-size="10.00">CGAL/Triangulation</text>
<text xml:space="preserve" text-anchor="middle" x="1141.75" y="-70.38" font-family="Helvetica,sans-Serif" font-size="10.00">_vertex_base_with_info_3.h</text>
</a>
</g>
</g>
<!-- Node5&#45;&gt;Node13 -->
<g id="edge12_Node000005_Node000013" class="edge">
<title>Node5&#45;&gt;Node13</title>
<g id="a_edge12_Node000005_Node000013"><a xlink:title=" ">
<path fill="none" stroke="#63b8ff" d="M896.37,-138.55C938.61,-129.7 1001.93,-116.11 1056.75,-103 1060.97,-101.99 1065.3,-100.93 1069.66,-99.85"/>
<polygon fill="#63b8ff" stroke="#63b8ff" points="1070.22,-103.32 1079.07,-97.49 1068.52,-96.53 1070.22,-103.32"/>
</a>
</g>
</g>
<!-- Node14 -->
<g id="Node000014" class="node">
<title>Node14</title>
<g id="a_Node000014"><a xlink:title=" ">
<polygon fill="#e0e0e0" stroke="#999999" points="1280,-90.25 1235.5,-90.25 1235.5,-69.5 1280,-69.5 1280,-90.25"/>
<text xml:space="preserve" text-anchor="middle" x="1257.75" y="-76.75" font-family="Helvetica,sans-Serif" font-size="10.00">utility</text>
</a>
</g>
</g>
<!-- Node5&#45;&gt;Node14 -->
<g id="edge13_Node000005_Node000014" class="edge">
<title>Node5&#45;&gt;Node14</title>
<g id="a_edge13_Node000005_Node000014"><a xlink:title=" ">
<path fill="none" stroke="#63b8ff" d="M914.25,-144.43C1006.94,-138.19 1171.28,-124.49 1226.75,-103 1230.56,-101.52 1234.35,-99.47 1237.89,-97.2"/>
<polygon fill="#63b8ff" stroke="#63b8ff" points="1239.8,-100.14 1245.84,-91.43 1235.69,-94.47 1239.8,-100.14"/>
</a>
</g>
</g>
<!-- Node15 -->
<g id="Node000015" class="node">
<title>Node15</title>
<g id="a_Node000015"><a xlink:title=" ">
<polygon fill="#e0e0e0" stroke="#999999" points="1345.12,-90.25 1298.38,-90.25 1298.38,-69.5 1345.12,-69.5 1345.12,-90.25"/>
<text xml:space="preserve" text-anchor="middle" x="1321.75" y="-76.75" font-family="Helvetica,sans-Serif" font-size="10.00">vector</text>
</a>
</g>
</g>
<!-- Node5&#45;&gt;Node15 -->
<g id="edge14_Node000005_Node000015" class="edge">
<title>Node5&#45;&gt;Node15</title>
<g id="a_edge14_Node000005_Node000015"><a xlink:title=" ">
<path fill="none" stroke="#63b8ff" d="M914.39,-145.5C1019.74,-140.22 1221.58,-127.27 1288.75,-103 1292.89,-101.51 1297.01,-99.38 1300.87,-97.04"/>
<polygon fill="#63b8ff" stroke="#63b8ff" points="1302.77,-99.98 1309.05,-91.45 1298.82,-94.2 1302.77,-99.98"/>
</a>
</g>
</g>
<!-- Node16 -->
<g id="Node000016" class="node">
<title>Node16</title>
<g id="a_Node000016"><a xlink:href="_settings_8hpp.html" target="_top" xlink:title="Global integer and precision settings.">
<polygon fill="white" stroke="#666666" points="1440.12,-90.25 1363.38,-90.25 1363.38,-69.5 1440.12,-69.5 1440.12,-90.25"/>
<text xml:space="preserve" text-anchor="middle" x="1401.75" y="-76.75" font-family="Helvetica,sans-Serif" font-size="10.00">Settings.hpp</text>
</a>
</g>
</g>
<!-- Node5&#45;&gt;Node16 -->
<g id="edge15_Node000005_Node000016" class="edge">
<title>Node5&#45;&gt;Node16</title>
<g id="a_edge15_Node000005_Node000016"><a xlink:title=" ">
<path fill="none" stroke="#63b8ff" d="M914.18,-145.28C1031.39,-139.26 1272.53,-124.67 1353.75,-103 1360.57,-101.18 1367.62,-98.46 1374.15,-95.54"/>
<polygon fill="#63b8ff" stroke="#63b8ff" points="1375.64,-98.71 1383.15,-91.22 1372.62,-92.39 1375.64,-98.71"/>
</a>
</g>
</g>
<!-- Node17 -->
<g id="Node000017" class="node">
<title>Node17</title>
<g id="a_Node000017"><a xlink:title=" ">
<polygon fill="#e0e0e0" stroke="#999999" points="1415.25,-20.75 1276.25,-20.75 1276.25,0 1415.25,0 1415.25,-20.75"/>
<text xml:space="preserve" text-anchor="middle" x="1345.75" y="-7.25" font-family="Helvetica,sans-Serif" font-size="10.00">CGAL/GMP/Gmpzf_type.h</text>
</a>
</g>
</g>
<!-- Node16&#45;&gt;Node17 -->
<g id="edge16_Node000016_Node000017" class="edge">
<title>Node16&#45;&gt;Node17</title>
<g id="a_edge16_Node000016_Node000017"><a xlink:title=" ">
<path fill="none" stroke="#63b8ff" d="M1393.73,-69.2C1385.24,-58.98 1371.66,-42.6 1361.1,-29.88"/>
<polygon fill="#63b8ff" stroke="#63b8ff" points="1363.8,-27.65 1354.72,-22.19 1358.42,-32.12 1363.8,-27.65"/>
</a>
</g>
</g>
<!-- Node18 -->
<g id="Node000018" class="node">
<title>Node18</title>
<g id="a_Node000018"><a xlink:title=" ">
<polygon fill="#e0e0e0" stroke="#999999" points="1482.25,-20.75 1433.25,-20.75 1433.25,0 1482.25,0 1482.25,-20.75"/>
<text xml:space="preserve" text-anchor="middle" x="1457.75" y="-7.25" font-family="Helvetica,sans-Serif" font-size="10.00">cstdint</text>
</a>
</g>
</g>
<!-- Node16&#45;&gt;Node18 -->
<g id="edge17_Node000016_Node000018" class="edge">
<title>Node16&#45;&gt;Node18</title>
<g id="a_edge17_Node000016_Node000018"><a xlink:title=" ">
<path fill="none" stroke="#63b8ff" d="M1409.77,-69.2C1418.26,-58.98 1431.84,-42.6 1442.4,-29.88"/>
<polygon fill="#63b8ff" stroke="#63b8ff" points="1445.08,-32.12 1448.78,-22.19 1439.7,-27.65 1445.08,-32.12"/>
</a>
</g>
</g>
</g>
</svg>
