<?xml version="1.0" encoding="UTF-8" standalone="no"?>
<!DOCTYPE svg PUBLIC "-//W3C//DTD SVG 1.1//EN"
 "http://www.w3.org/Graphics/SVG/1.1/DTD/svg11.dtd">
<!-- Generated by graphviz version 2.43.0 (0)
 -->
<!-- Title: include/Function_ref.hpp Pages: 1 -->
<svg width="568pt" height="341pt"
 viewBox="0.00 0.00 568.00 341.00" xmlns="http://www.w3.org/2000/svg" xmlns:xlink="http://www.w3.org/1999/xlink">
<g id="graph0" class="graph" transform="scale(1 1) rotate(0) translate(4 337)">
<title>include/Function_ref.hpp</title>
<polygon fill="white" stroke="transparent" points="-4,4 -4,-337 564,-337 564,4 -4,4"/>
<!-- Node1 -->
<g id="node1" class="node">
<title>Node1</title>
<g id="a_node1"><a xlink:title="Efficient, type&#45;erasing, non&#45;owning function reference.">
<polygon fill="#bfbfbf" stroke="black" points="243,-313.5 243,-332.5 378,-332.5 378,-313.5 243,-313.5"/>
<text text-anchor="middle" x="310.5" y="-320.5" font-family="Helvetica,sans-Serif" font-size="10.00">include/Function_ref.hpp</text>
</a>
</g>
</g>
<!-- Node2 -->
<g id="node2" class="node">
<title>Node2</title>
<g id="a_node2"><a xlink:href="_apply__move_8hpp.html" target="_top" xlink:title="Apply Pachner moves to foliated Delaunay triangulations.">
<polygon fill="white" stroke="black" points="242,-252 242,-271 379,-271 379,-252 242,-252"/>
<text text-anchor="middle" x="310.5" y="-259" font-family="Helvetica,sans-Serif" font-size="10.00">include/Apply_move.hpp</text>
</a>
</g>
</g>
<!-- Node1&#45;&gt;Node2 -->
<g id="edge1" class="edge">
<title>Node1&#45;&gt;Node2</title>
<path fill="none" stroke="midnightblue" d="M310.5,-303.32C310.5,-292.5 310.5,-279.4 310.5,-271.01"/>
<polygon fill="midnightblue" stroke="midnightblue" points="307,-303.48 310.5,-313.48 314,-303.48 307,-303.48"/>
</g>
<!-- Node13 -->
<g id="node13" class="node">
<title>Node13</title>
<g id="a_node13"><a xlink:href="_simulation_8hpp.html" target="_top" xlink:title="Simulation class.">
<polygon fill="white" stroke="black" points="271.5,-67.5 271.5,-86.5 399.5,-86.5 399.5,-67.5 271.5,-67.5"/>
<text text-anchor="middle" x="335.5" y="-74.5" font-family="Helvetica,sans-Serif" font-size="10.00">include/Simulation.hpp</text>
</a>
</g>
</g>
<!-- Node1&#45;&gt;Node13 -->
<g id="edge12" class="edge">
<title>Node1&#45;&gt;Node13</title>
<path fill="none" stroke="midnightblue" d="M274.22,-309.48C259.11,-302.35 242.91,-291.83 233.5,-277 212.73,-244.28 219.64,-227.95 227.5,-190 234.08,-158.23 234.84,-147.16 256.5,-123 271.67,-106.07 294.77,-93.95 312.08,-86.58"/>
<polygon fill="midnightblue" stroke="midnightblue" points="272.86,-312.7 283.42,-313.48 275.65,-306.28 272.86,-312.7"/>
</g>
<!-- Node14 -->
<g id="node14" class="node">
<title>Node14</title>
<g id="a_node14"><a xlink:href="_function__ref__test_8cpp_source.html" target="_top" xlink:title=" ">
<polygon fill="white" stroke="black" points="397.5,-246.5 397.5,-276.5 501.5,-276.5 501.5,-246.5 397.5,-246.5"/>
<text text-anchor="start" x="405.5" y="-264.5" font-family="Helvetica,sans-Serif" font-size="10.00">tests/Function_ref</text>
<text text-anchor="middle" x="449.5" y="-253.5" font-family="Helvetica,sans-Serif" font-size="10.00">_test.cpp</text>
</a>
</g>
</g>
<!-- Node1&#45;&gt;Node14 -->
<g id="edge15" class="edge">
<title>Node1&#45;&gt;Node14</title>
<path fill="none" stroke="midnightblue" d="M339.79,-309.46C362.31,-299.82 393.4,-286.51 416.74,-276.52"/>
<polygon fill="midnightblue" stroke="midnightblue" points="338.23,-306.32 330.42,-313.48 340.99,-312.76 338.23,-306.32"/>
</g>
<!-- Node3 -->
<g id="node3" class="node">
<title>Node3</title>
<g id="a_node3"><a xlink:href="_move__command_8hpp.html" target="_top" xlink:title="Do ergodic moves using the Command pattern.">
<polygon fill="white" stroke="black" points="403,-190.5 403,-209.5 560,-209.5 560,-190.5 403,-190.5"/>
<text text-anchor="middle" x="481.5" y="-197.5" font-family="Helvetica,sans-Serif" font-size="10.00">include/Move_command.hpp</text>
</a>
</g>
</g>
<!-- Node2&#45;&gt;Node3 -->
<g id="edge2" class="edge">
<title>Node2&#45;&gt;Node3</title>
<path fill="none" stroke="midnightblue" d="M344.75,-248.58C377.99,-237.02 427.61,-219.75 457.05,-209.51"/>
<polygon fill="midnightblue" stroke="midnightblue" points="343.29,-245.38 335,-251.98 345.59,-251.99 343.29,-245.38"/>
</g>
<!-- Node12 -->
<g id="node12" class="node">
<title>Node12</title>
<g id="a_node12"><a xlink:href="_apply__move__test_8cpp.html" target="_top" xlink:title="Applying ergodic moves to manifolds.">
<polygon fill="white" stroke="black" points="236,-190.5 236,-209.5 385,-209.5 385,-190.5 236,-190.5"/>
<text text-anchor="middle" x="310.5" y="-197.5" font-family="Helvetica,sans-Serif" font-size="10.00">tests/Apply_move_test.cpp</text>
</a>
</g>
</g>
<!-- Node2&#45;&gt;Node12 -->
<g id="edge11" class="edge">
<title>Node2&#45;&gt;Node12</title>
<path fill="none" stroke="midnightblue" d="M310.5,-241.82C310.5,-231 310.5,-217.9 310.5,-209.51"/>
<polygon fill="midnightblue" stroke="midnightblue" points="307,-241.98 310.5,-251.98 314,-241.98 307,-241.98"/>
</g>
<!-- Node4 -->
<g id="node4" class="node">
<title>Node4</title>
<g id="a_node4"><a xlink:href="_move__strategy_8hpp.html" target="_top" xlink:title="Base class for move algorithms on Delaunay Triangulations.">
<polygon fill="white" stroke="black" points="408,-129 408,-148 555,-148 555,-129 408,-129"/>
<text text-anchor="middle" x="481.5" y="-136" font-family="Helvetica,sans-Serif" font-size="10.00">include/Move_strategy.hpp</text>
</a>
</g>
</g>
<!-- Node3&#45;&gt;Node4 -->
<g id="edge3" class="edge">
<title>Node3&#45;&gt;Node4</title>
<path fill="none" stroke="midnightblue" d="M481.5,-180.32C481.5,-169.5 481.5,-156.4 481.5,-148.01"/>
<polygon fill="midnightblue" stroke="midnightblue" points="478,-180.48 481.5,-190.48 485,-180.48 478,-180.48"/>
</g>
<!-- Node11 -->
<g id="node11" class="node">
<title>Node11</title>
<g id="a_node11"><a xlink:href="_move__command__test_8cpp.html" target="_top" xlink:title="Tests of MoveCommand, that is, that moves are handled properly.">
<polygon fill="white" stroke="black" points="265,-123.5 265,-153.5 390,-153.5 390,-123.5 265,-123.5"/>
<text text-anchor="start" x="273" y="-141.5" font-family="Helvetica,sans-Serif" font-size="10.00">tests/Move_command</text>
<text text-anchor="middle" x="327.5" y="-130.5" font-family="Helvetica,sans-Serif" font-size="10.00">_test.cpp</text>
</a>
</g>
</g>
<!-- Node3&#45;&gt;Node11 -->
<g id="edge10" class="edge">
<title>Node3&#45;&gt;Node11</title>
<path fill="none" stroke="midnightblue" d="M450.05,-186.85C425.03,-177.18 390,-163.65 363.79,-153.52"/>
<polygon fill="midnightblue" stroke="midnightblue" points="448.85,-190.14 459.44,-190.48 451.37,-183.61 448.85,-190.14"/>
</g>
<!-- Node5 -->
<g id="node5" class="node">
<title>Node5</title>
<g id="a_node5"><a xlink:href="_metropolis_8hpp.html" target="_top" xlink:title="Perform Metropolis&#45;Hastings algorithm on Delaunay Triangulations.">
<polygon fill="white" stroke="black" points="417.5,-67.5 417.5,-86.5 545.5,-86.5 545.5,-67.5 417.5,-67.5"/>
<text text-anchor="middle" x="481.5" y="-74.5" font-family="Helvetica,sans-Serif" font-size="10.00">include/Metropolis.hpp</text>
</a>
</g>
</g>
<!-- Node4&#45;&gt;Node5 -->
<g id="edge4" class="edge">
<title>Node4&#45;&gt;Node5</title>
<path fill="none" stroke="midnightblue" d="M481.5,-118.82C481.5,-108 481.5,-94.9 481.5,-86.51"/>
<polygon fill="midnightblue" stroke="midnightblue" points="478,-118.98 481.5,-128.98 485,-118.98 478,-118.98"/>
</g>
<!-- Node7 -->
<g id="node7" class="node">
<title>Node7</title>
<g id="a_node7"><a xlink:href="_move__always_8hpp.html" target="_top" xlink:title="Randomly selects moves to always perform on triangulations.">
<polygon fill="white" stroke="black" points="110,-67.5 110,-86.5 253,-86.5 253,-67.5 110,-67.5"/>
<text text-anchor="middle" x="181.5" y="-74.5" font-family="Helvetica,sans-Serif" font-size="10.00">include/Move_always.hpp</text>
</a>
</g>
</g>
<!-- Node4&#45;&gt;Node7 -->
<g id="edge6" class="edge">
<title>Node4&#45;&gt;Node7</title>
<path fill="none" stroke="midnightblue" d="M428.43,-126.97C370.29,-115.44 278.16,-97.17 224.4,-86.51"/>
<polygon fill="midnightblue" stroke="midnightblue" points="428.03,-130.46 438.52,-128.98 429.39,-123.6 428.03,-130.46"/>
</g>
<!-- Node6 -->
<g id="node6" class="node">
<title>Node6</title>
<g id="a_node6"><a xlink:href="cdt_8cpp.html" target="_top" xlink:title="The main executable.">
<polygon fill="white" stroke="black" points="432,-6 432,-25 501,-25 501,-6 432,-6"/>
<text text-anchor="middle" x="466.5" y="-13" font-family="Helvetica,sans-Serif" font-size="10.00">src/cdt.cpp</text>
</a>
</g>
</g>
<!-- Node5&#45;&gt;Node6 -->
<g id="edge5" class="edge">
<title>Node5&#45;&gt;Node6</title>
<path fill="none" stroke="midnightblue" d="M476.88,-57.66C474.13,-46.77 470.78,-33.49 468.65,-25.01"/>
<polygon fill="midnightblue" stroke="midnightblue" points="473.51,-58.63 479.35,-67.48 480.3,-56.92 473.51,-58.63"/>
</g>
<!-- Node8 -->
<g id="node8" class="node">
<title>Node8</title>
<g id="a_node8"><a xlink:href="cdt-opt_8cpp.html" target="_top" xlink:title="Outputs values to determine optimizations.">
<polygon fill="white" stroke="black" points="143,-6 143,-25 232,-25 232,-6 143,-6"/>
<text text-anchor="middle" x="187.5" y="-13" font-family="Helvetica,sans-Serif" font-size="10.00">src/cdt&#45;opt.cpp</text>
</a>
</g>
</g>
<!-- Node7&#45;&gt;Node8 -->
<g id="edge7" class="edge">
<title>Node7&#45;&gt;Node8</title>
<path fill="none" stroke="midnightblue" d="M183.38,-57.32C184.48,-46.5 185.8,-33.4 186.64,-25.01"/>
<polygon fill="midnightblue" stroke="midnightblue" points="179.88,-57.17 182.36,-67.48 186.85,-57.88 179.88,-57.17"/>
</g>
<!-- Node9 -->
<g id="node9" class="node">
<title>Node9</title>
<g id="a_node9"><a xlink:href="_move__strategies__test_8cpp.html" target="_top" xlink:title="Tests for the Metropolis&#45;Hastings algorithm.">
<polygon fill="white" stroke="black" points="0,-0.5 0,-30.5 125,-30.5 125,-0.5 0,-0.5"/>
<text text-anchor="start" x="8" y="-18.5" font-family="Helvetica,sans-Serif" font-size="10.00">tests/Move_strategies</text>
<text text-anchor="middle" x="62.5" y="-7.5" font-family="Helvetica,sans-Serif" font-size="10.00">_test.cpp</text>
</a>
</g>
</g>
<!-- Node7&#45;&gt;Node9 -->
<g id="edge8" class="edge">
<title>Node7&#45;&gt;Node9</title>
<path fill="none" stroke="midnightblue" d="M155.38,-62.94C136.19,-53.35 110.17,-40.33 90.55,-30.52"/>
<polygon fill="midnightblue" stroke="midnightblue" points="153.94,-66.13 164.45,-67.48 157.07,-59.87 153.94,-66.13"/>
</g>
<!-- Node10 -->
<g id="node10" class="node">
<title>Node10</title>
<g id="a_node10"><a xlink:href="_simulation_test_8cpp_source.html" target="_top" xlink:title=" ">
<polygon fill="white" stroke="black" points="261.5,-6 261.5,-25 397.5,-25 397.5,-6 261.5,-6"/>
<text text-anchor="middle" x="329.5" y="-13" font-family="Helvetica,sans-Serif" font-size="10.00">tests/SimulationTest.cpp</text>
</a>
</g>
</g>
<!-- Node7&#45;&gt;Node10 -->
<g id="edge9" class="edge">
<title>Node7&#45;&gt;Node10</title>
<path fill="none" stroke="midnightblue" d="M212.27,-63.63C241.02,-52.07 283.18,-35.12 308.33,-25.01"/>
<polygon fill="midnightblue" stroke="midnightblue" points="210.68,-60.5 202.7,-67.48 213.29,-66.99 210.68,-60.5"/>
</g>
<!-- Node13&#45;&gt;Node6 -->
<g id="edge13" class="edge">
<title>Node13&#45;&gt;Node6</title>
<path fill="none" stroke="midnightblue" d="M363.4,-63.33C388.83,-51.78 425.7,-35.03 447.77,-25.01"/>
<polygon fill="midnightblue" stroke="midnightblue" points="361.93,-60.15 354.27,-67.48 364.82,-66.53 361.93,-60.15"/>
</g>
<!-- Node13&#45;&gt;Node10 -->
<g id="edge14" class="edge">
<title>Node13&#45;&gt;Node10</title>
<path fill="none" stroke="midnightblue" d="M333.62,-57.32C332.52,-46.5 331.2,-33.4 330.36,-25.01"/>
<polygon fill="midnightblue" stroke="midnightblue" points="330.15,-57.88 334.64,-67.48 337.12,-57.17 330.15,-57.88"/>
</g>
</g>
</svg>
