<?xml version="1.0" encoding="UTF-8" standalone="no"?>
<!DOCTYPE svg PUBLIC "-//W3C//DTD SVG 1.1//EN"
 "http://www.w3.org/Graphics/SVG/1.1/DTD/svg11.dtd">
<!-- Generated by graphviz version 2.40.1 (20161225.0304)
 -->
<!-- Title: include/Function_ref.hpp Pages: 1 -->
<!--zoomable 341 -->
<svg id="main" version="1.1" xmlns="http://www.w3.org/2000/svg" xmlns:xlink="http://www.w3.org/1999/xlink" xml:space="preserve" onload="init(evt)">
<style type="text/css"><![CDATA[
.edge:hover path { stroke: red; }
.edge:hover polygon { stroke: red; fill: red; }
]]></style>
<script type="text/javascript"><![CDATA[
var edges = document.getElementsByTagName('g');
if (edges && edges.length) {
  for (var i=0;i<edges.length;i++) {
    if (edges[i].id.substr(0,4)=='edge') {
      edges[i].setAttribute('class','edge');
    }
  }
}
]]></script>
        <defs>
                <circle id="rim" cx="0" cy="0" r="7"/>
                <circle id="rim2" cx="0" cy="0" r="3.5"/>
                <g id="zoomPlus">
                        <use xlink:href="#rim" fill="#404040">
                                <set attributeName="fill" to="#808080" begin="zoomplus.mouseover" end="zoomplus.mouseout"/>
                        </use>
                        <path d="M-4,0h8M0,-4v8" fill="none" stroke="white" stroke-width="1.5" pointer-events="none"/>
                </g>
                <g id="zoomMin">
                        <use xlink:href="#rim" fill="#404040">
                                <set attributeName="fill" to="#808080" begin="zoomminus.mouseover" end="zoomminus.mouseout"/>
                        </use>
                        <path d="M-4,0h8" fill="none" stroke="white" stroke-width="1.5" pointer-events="none"/>
                </g>
                <g id="dirArrow">
                        <path fill="none" stroke="white" stroke-width="1.5" d="M0,-3.0v7 M-2.5,-0.5L0,-3.0L2.5,-0.5"/>
                </g>
               <g id="resetDef">
                       <use xlink:href="#rim2" fill="#404040">
                               <set attributeName="fill" to="#808080" begin="reset.mouseover" end="reset.mouseout"/>
                       </use>
               </g>
        </defs>

<script type="text/javascript">
var viewWidth = 514;
var viewHeight = 341;
var sectionId = 'dynsection-1';
</script>
<script xlink:href="svgpan.js"/>
<svg id="graph" class="graph">
<g id="viewport">
<title>include/Function_ref.hpp</title>
<polygon fill="#ffffff" stroke="transparent" points="-4,4 -4,-337 510,-337 510,4 -4,4"/>
<!-- Node4 -->
<g id="node1" class="node">
<title>Node4</title>
<polygon fill="#bfbfbf" stroke="#000000" points="190,-313.5 190,-332.5 324,-332.5 324,-313.5 190,-313.5"/>
<text text-anchor="middle" x="257" y="-320.5" font-family="Helvetica,sans-Serif" font-size="10.00" fill="#000000">include/Function_ref.hpp</text>
</g>
<!-- Node5 -->
<g id="node2" class="node">
<title>Node5</title>
<g id="a_node2"><a xlink:href="_apply__move_8hpp.html" target="_top" xlink:title="Apply Pachner moves to foliated Delaunay triangulations. ">
<polygon fill="#ffffff" stroke="#000000" points="188.5,-252 188.5,-271 325.5,-271 325.5,-252 188.5,-252"/>
<text text-anchor="middle" x="257" y="-259" font-family="Helvetica,sans-Serif" font-size="10.00" fill="#000000">include/Apply_move.hpp</text>
</a>
</g>
</g>
<!-- Node4&#45;&gt;Node5 -->
<g id="edge1" class="edge">
<title>Node4&#45;&gt;Node5</title>
<path fill="none" stroke="#191970" d="M257,-303.2462C257,-292.5519 257,-279.814 257,-271.2449"/>
<polygon fill="#191970" stroke="#191970" points="253.5001,-303.3906 257,-313.3906 260.5001,-303.3907 253.5001,-303.3906"/>
</g>
<!-- Node16 -->
<g id="node13" class="node">
<title>Node16</title>
<g id="a_node13"><a xlink:href="_simulation_8hpp.html" target="_top" xlink:title="Simulation class. ">
<polygon fill="#ffffff" stroke="#000000" points="218,-67.5 218,-86.5 346,-86.5 346,-67.5 218,-67.5"/>
<text text-anchor="middle" x="282" y="-74.5" font-family="Helvetica,sans-Serif" font-size="10.00" fill="#000000">include/Simulation.hpp</text>
</a>
</g>
</g>
<!-- Node4&#45;&gt;Node16 -->
<g id="edge12" class="edge">
<title>Node4&#45;&gt;Node16</title>
<path fill="none" stroke="#191970" d="M218.9613,-309.1549C204.3554,-301.8659 189.0359,-291.3869 180,-277 159.3857,-244.1782 165.9016,-227.903 174,-190 180.8171,-158.0936 182.2552,-147.324 204,-123 218.7737,-106.474 240.9353,-94.1979 257.8648,-86.5034"/>
<polygon fill="#191970" stroke="#191970" points="217.8361,-312.4899 228.3833,-313.4931 220.7638,-306.1315 217.8361,-312.4899"/>
</g>
<!-- Node17 -->
<g id="node14" class="node">
<title>Node17</title>
<g id="a_node14"><a xlink:href="_function__ref__test_8cpp_source.html" target="_top" xlink:title="tests/Function_ref\l_test.cpp">
<polygon fill="#ffffff" stroke="#000000" points="343.5,-246.5 343.5,-276.5 446.5,-276.5 446.5,-246.5 343.5,-246.5"/>
<text text-anchor="start" x="351.5" y="-264.5" font-family="Helvetica,sans-Serif" font-size="10.00" fill="#000000">tests/Function_ref</text>
<text text-anchor="middle" x="395" y="-253.5" font-family="Helvetica,sans-Serif" font-size="10.00" fill="#000000">_test.cpp</text>
</a>
</g>
</g>
<!-- Node4&#45;&gt;Node17 -->
<g id="edge16" class="edge">
<title>Node4&#45;&gt;Node17</title>
<path fill="none" stroke="#191970" d="M287.7057,-309.316C309.51,-299.5988 338.7808,-286.5542 361.2414,-276.5446"/>
<polygon fill="#191970" stroke="#191970" points="286.2718,-306.1231 278.5625,-313.3906 289.1213,-312.5169 286.2718,-306.1231"/>
</g>
<!-- Node6 -->
<g id="node3" class="node">
<title>Node6</title>
<g id="a_node3"><a xlink:href="_move__command_8hpp.html" target="_top" xlink:title="Do ergodic moves using the Command pattern. ">
<polygon fill="#ffffff" stroke="#000000" points="350,-190.5 350,-209.5 506,-209.5 506,-190.5 350,-190.5"/>
<text text-anchor="middle" x="428" y="-197.5" font-family="Helvetica,sans-Serif" font-size="10.00" fill="#000000">include/Move_command.hpp</text>
</a>
</g>
</g>
<!-- Node5&#45;&gt;Node6 -->
<g id="edge2" class="edge">
<title>Node5&#45;&gt;Node6</title>
<path fill="none" stroke="#191970" d="M293.2843,-248.4504C325.7015,-236.7916 372.4314,-219.9852 401.4689,-209.5419"/>
<polygon fill="#191970" stroke="#191970" points="291.9442,-245.2128 283.7188,-251.8906 294.3132,-251.7998 291.9442,-245.2128"/>
</g>
<!-- Node15 -->
<g id="node12" class="node">
<title>Node15</title>
<g id="a_node12"><a xlink:href="_apply__move__test_8cpp.html" target="_top" xlink:title="Apply ergodic moves to manifolds. ">
<polygon fill="#ffffff" stroke="#000000" points="182.5,-190.5 182.5,-209.5 331.5,-209.5 331.5,-190.5 182.5,-190.5"/>
<text text-anchor="middle" x="257" y="-197.5" font-family="Helvetica,sans-Serif" font-size="10.00" fill="#000000">tests/Apply_move_test.cpp</text>
</a>
</g>
</g>
<!-- Node5&#45;&gt;Node15 -->
<g id="edge11" class="edge">
<title>Node5&#45;&gt;Node15</title>
<path fill="none" stroke="#191970" d="M257,-241.7462C257,-231.0519 257,-218.314 257,-209.7449"/>
<polygon fill="#191970" stroke="#191970" points="253.5001,-241.8906 257,-251.8906 260.5001,-241.8907 253.5001,-241.8906"/>
</g>
<!-- Node7 -->
<g id="node4" class="node">
<title>Node7</title>
<g id="a_node4"><a xlink:href="_move__strategy_8hpp.html" target="_top" xlink:title="Base class for move algorithms on Delaunay Triangulations. ">
<polygon fill="#ffffff" stroke="#000000" points="355,-129 355,-148 501,-148 501,-129 355,-129"/>
<text text-anchor="middle" x="428" y="-136" font-family="Helvetica,sans-Serif" font-size="10.00" fill="#000000">include/Move_strategy.hpp</text>
</a>
</g>
</g>
<!-- Node6&#45;&gt;Node7 -->
<g id="edge3" class="edge">
<title>Node6&#45;&gt;Node7</title>
<path fill="none" stroke="#191970" d="M428,-180.2462C428,-169.5519 428,-156.814 428,-148.2449"/>
<polygon fill="#191970" stroke="#191970" points="424.5001,-180.3906 428,-190.3906 431.5001,-180.3907 424.5001,-180.3906"/>
</g>
<!-- Node14 -->
<g id="node11" class="node">
<title>Node14</title>
<g id="a_node11"><a xlink:href="_move__command__test_8cpp.html" target="_top" xlink:title="Tests for moves. ">
<polygon fill="#ffffff" stroke="#000000" points="213,-123.5 213,-153.5 337,-153.5 337,-123.5 213,-123.5"/>
<text text-anchor="start" x="221" y="-141.5" font-family="Helvetica,sans-Serif" font-size="10.00" fill="#000000">tests/Move_command</text>
<text text-anchor="middle" x="275" y="-130.5" font-family="Helvetica,sans-Serif" font-size="10.00" fill="#000000">_test.cpp</text>
</a>
</g>
</g>
<!-- Node6&#45;&gt;Node14 -->
<g id="edge10" class="edge">
<title>Node6&#45;&gt;Node14</title>
<path fill="none" stroke="#191970" d="M394.6052,-186.5766C370.3651,-176.833 337.5533,-163.644 312.428,-153.5446"/>
<polygon fill="#191970" stroke="#191970" points="393.5099,-189.9084 404.0938,-190.3906 396.1206,-183.4135 393.5099,-189.9084"/>
</g>
<!-- Node8 -->
<g id="node5" class="node">
<title>Node8</title>
<g id="a_node5"><a xlink:href="_metropolis_8hpp.html" target="_top" xlink:title="Perform Metropolis&#45;Hastings algorithm on Delaunay Triangulations. ">
<polygon fill="#ffffff" stroke="#000000" points="364.5,-67.5 364.5,-86.5 491.5,-86.5 491.5,-67.5 364.5,-67.5"/>
<text text-anchor="middle" x="428" y="-74.5" font-family="Helvetica,sans-Serif" font-size="10.00" fill="#000000">include/Metropolis.hpp</text>
</a>
</g>
</g>
<!-- Node7&#45;&gt;Node8 -->
<g id="edge4" class="edge">
<title>Node7&#45;&gt;Node8</title>
<path fill="none" stroke="#191970" d="M428,-118.7462C428,-108.0519 428,-95.314 428,-86.7449"/>
<polygon fill="#191970" stroke="#191970" points="424.5001,-118.8906 428,-128.8906 431.5001,-118.8907 424.5001,-118.8906"/>
</g>
<!-- Node11 -->
<g id="node8" class="node">
<title>Node11</title>
<g id="a_node8"><a xlink:href="_move__always_8hpp.html" target="_top" xlink:title="Randomly selects moves to always perform on triangulations. ">
<polygon fill="#ffffff" stroke="#000000" points="58,-67.5 58,-86.5 200,-86.5 200,-67.5 58,-67.5"/>
<text text-anchor="middle" x="129" y="-74.5" font-family="Helvetica,sans-Serif" font-size="10.00" fill="#000000">include/Move_always.hpp</text>
</a>
</g>
</g>
<!-- Node7&#45;&gt;Node11 -->
<g id="edge7" class="edge">
<title>Node7&#45;&gt;Node11</title>
<path fill="none" stroke="#191970" d="M371.7272,-126.9255C314.9989,-115.2573 228.4665,-97.4588 175.4995,-86.5643"/>
<polygon fill="#191970" stroke="#191970" points="371.1092,-130.3716 381.6093,-128.9581 372.5195,-123.5151 371.1092,-130.3716"/>
</g>
<!-- Node9 -->
<g id="node6" class="node">
<title>Node9</title>
<g id="a_node6"><a xlink:href="cdt-opt_8cpp.html" target="_top" xlink:title="Outputs values to determine optimizations. ">
<polygon fill="#ffffff" stroke="#000000" points="383.5,-6 383.5,-25 472.5,-25 472.5,-6 383.5,-6"/>
<text text-anchor="middle" x="428" y="-13" font-family="Helvetica,sans-Serif" font-size="10.00" fill="#000000">src/cdt&#45;opt.cpp</text>
</a>
</g>
</g>
<!-- Node8&#45;&gt;Node9 -->
<g id="edge5" class="edge">
<title>Node8&#45;&gt;Node9</title>
<path fill="none" stroke="#191970" d="M428,-57.2462C428,-46.5519 428,-33.814 428,-25.2449"/>
<polygon fill="#191970" stroke="#191970" points="424.5001,-57.3906 428,-67.3906 431.5001,-57.3907 424.5001,-57.3906"/>
</g>
<!-- Node10 -->
<g id="node7" class="node">
<title>Node10</title>
<g id="a_node7"><a xlink:href="cdt_8cpp.html" target="_top" xlink:title="The main executable. ">
<polygon fill="#ffffff" stroke="#000000" points="296.5,-6 296.5,-25 365.5,-25 365.5,-6 296.5,-6"/>
<text text-anchor="middle" x="331" y="-13" font-family="Helvetica,sans-Serif" font-size="10.00" fill="#000000">src/cdt.cpp</text>
</a>
</g>
</g>
<!-- Node8&#45;&gt;Node10 -->
<g id="edge6" class="edge">
<title>Node8&#45;&gt;Node10</title>
<path fill="none" stroke="#191970" d="M404.004,-61.786C385.8663,-50.2864 361.5274,-34.855 346.0498,-25.0419"/>
<polygon fill="#191970" stroke="#191970" points="402.524,-64.9919 412.8438,-67.3906 406.2723,-59.08 402.524,-64.9919"/>
</g>
<!-- Node12 -->
<g id="node9" class="node">
<title>Node12</title>
<g id="a_node9"><a xlink:href="_move__strategies__test_8cpp.html" target="_top" xlink:title="Tests for the Metropolis&#45;Hastings algorithm. ">
<polygon fill="#ffffff" stroke="#000000" points="0,-.5 0,-30.5 124,-30.5 124,-.5 0,-.5"/>
<text text-anchor="start" x="8" y="-18.5" font-family="Helvetica,sans-Serif" font-size="10.00" fill="#000000">tests/Move_strategies</text>
<text text-anchor="middle" x="62" y="-7.5" font-family="Helvetica,sans-Serif" font-size="10.00" fill="#000000">_test.cpp</text>
</a>
</g>
</g>
<!-- Node11&#45;&gt;Node12 -->
<g id="edge8" class="edge">
<title>Node11&#45;&gt;Node12</title>
<path fill="none" stroke="#191970" d="M111.0108,-60.4875C100.8588,-51.1689 88.2679,-39.6116 78.39,-30.5446"/>
<polygon fill="#191970" stroke="#191970" points="108.7975,-63.2068 118.5313,-67.3906 113.531,-58.0499 108.7975,-63.2068"/>
</g>
<!-- Node13 -->
<g id="node10" class="node">
<title>Node13</title>
<g id="a_node10"><a xlink:href="_simulation_test_8cpp_source.html" target="_top" xlink:title="tests/SimulationTest.cpp">
<polygon fill="#ffffff" stroke="#000000" points="142,-6 142,-25 278,-25 278,-6 142,-6"/>
<text text-anchor="middle" x="210" y="-13" font-family="Helvetica,sans-Serif" font-size="10.00" fill="#000000">tests/SimulationTest.cpp</text>
</a>
</g>
</g>
<!-- Node11&#45;&gt;Node13 -->
<g id="edge9" class="edge">
<title>Node11&#45;&gt;Node13</title>
<path fill="none" stroke="#191970" d="M149.8768,-61.1491C164.9271,-49.722 184.7452,-34.6749 197.4326,-25.0419"/>
<polygon fill="#191970" stroke="#191970" points="147.5042,-58.5559 141.6563,-67.3906 151.7372,-64.1311 147.5042,-58.5559"/>
</g>
<!-- Node16&#45;&gt;Node9 -->
<g id="edge13" class="edge">
<title>Node16&#45;&gt;Node9</title>
<path fill="none" stroke="#191970" d="M314.0594,-63.4955C341.6867,-51.858 380.8761,-35.3501 405.3477,-25.0419"/>
<polygon fill="#191970" stroke="#191970" points="312.6696,-60.2831 304.8125,-67.3906 315.387,-66.7341 312.6696,-60.2831"/>
</g>
<!-- Node16&#45;&gt;Node10 -->
<g id="edge14" class="edge">
<title>Node16&#45;&gt;Node10</title>
<path fill="none" stroke="#191970" d="M296.1451,-59.2465C304.9642,-48.1775 315.9771,-34.3552 323.2358,-25.2449"/>
<polygon fill="#191970" stroke="#191970" points="293.1503,-57.3885 289.6563,-67.3906 298.6251,-61.7505 293.1503,-57.3885"/>
</g>
<!-- Node16&#45;&gt;Node13 -->
<g id="edge15" class="edge">
<title>Node16&#45;&gt;Node13</title>
<path fill="none" stroke="#191970" d="M263.1152,-60.8692C249.8723,-49.5576 232.6024,-34.8062 221.4086,-25.2449"/>
<polygon fill="#191970" stroke="#191970" points="260.873,-63.557 270.75,-67.3906 265.4195,-58.2344 260.873,-63.557"/>
</g>
</g>
</svg>
        <g id="navigator" transform="translate(0 0)" fill="#404254">
                <rect fill="#f2f5e9" fill-opacity="0.5" stroke="#606060" stroke-width=".5" x="0" y="0" width="60" height="60"/>
                <use id="zoomplus" xlink:href="#zoomPlus" x="17" y="9" onmousedown="handleZoom(evt,'in')"/>
                <use id="zoomminus" xlink:href="#zoomMin" x="42" y="9" onmousedown="handleZoom(evt,'out')"/>
                <use id="reset" xlink:href="#resetDef" x="30" y="36" onmousedown="handleReset()"/>
                <g id="arrowUp" xlink:href="#dirArrow" transform="translate(30 24)" onmousedown="handlePan(0,-1)">
                  <use xlink:href="#rim" fill="#404040">
                        <set attributeName="fill" to="#808080" begin="arrowUp.mouseover" end="arrowUp.mouseout"/>
                  </use>
                  <path fill="none" stroke="white" stroke-width="1.5" d="M0,-3.0v7 M-2.5,-0.5L0,-3.0L2.5,-0.5"/>
                </g>
                <g id="arrowRight" xlink:href="#dirArrow" transform="rotate(90) translate(36 -43)" onmousedown="handlePan(1,0)">
                  <use xlink:href="#rim" fill="#404040">
                        <set attributeName="fill" to="#808080" begin="arrowRight.mouseover" end="arrowRight.mouseout"/>
                  </use>
                  <path fill="none" stroke="white" stroke-width="1.5" d="M0,-3.0v7 M-2.5,-0.5L0,-3.0L2.5,-0.5"/>
                </g>
                <g id="arrowDown" xlink:href="#dirArrow" transform="rotate(180) translate(-30 -48)" onmousedown="handlePan(0,1)">
                  <use xlink:href="#rim" fill="#404040">
                        <set attributeName="fill" to="#808080" begin="arrowDown.mouseover" end="arrowDown.mouseout"/>
                  </use>
                  <path fill="none" stroke="white" stroke-width="1.5" d="M0,-3.0v7 M-2.5,-0.5L0,-3.0L2.5,-0.5"/>
                </g>
                <g id="arrowLeft" xlink:href="#dirArrow" transform="rotate(270) translate(-36 17)" onmousedown="handlePan(-1,0)">
                  <use xlink:href="#rim" fill="#404040">
                        <set attributeName="fill" to="#808080" begin="arrowLeft.mouseover" end="arrowLeft.mouseout"/>
                  </use>
                  <path fill="none" stroke="white" stroke-width="1.5" d="M0,-3.0v7 M-2.5,-0.5L0,-3.0L2.5,-0.5"/>
                </g>
        </g>
        <svg viewBox="0 0 15 15" width="100%" height="30px" preserveAspectRatio="xMaxYMin meet">
         <g id="arrow_out" transform="scale(0.3 0.3)">
          <a xlink:href="_function__ref_8hpp__dep__incl_org.svg" target="_base">
           <rect id="button" ry="5" rx="5" y="6" x="6" height="38" width="38"
                fill="#f2f5e9" fill-opacity="0.5" stroke="#606060" stroke-width="1.0"/>
           <path id="arrow"
             d="M 11.500037,31.436501 C 11.940474,20.09759 22.043105,11.32322 32.158766,21.979434 L 37.068811,17.246167 C 37.068811,17.246167 37.088388,32 37.088388,32 L 22.160133,31.978069 C 22.160133,31.978069 26.997745,27.140456 26.997745,27.140456 C 18.528582,18.264221 13.291696,25.230495 11.500037,31.436501 z"
             style="fill:#404040;"/>
          </a>
         </g>
        </svg>
</svg>
