<?xml version="1.0" encoding="UTF-8" standalone="no"?>
<!DOCTYPE svg PUBLIC "-//W3C//DTD SVG 1.1//EN"
 "http://www.w3.org/Graphics/SVG/1.1/DTD/svg11.dtd">
<!-- Generated by graphviz version 2.43.0 (0)
 -->
<!-- Title: include/Function_ref.hpp Pages: 1 -->
<!--zoomable 341 -->
<svg id="main" version="1.1" xmlns="http://www.w3.org/2000/svg" xmlns:xlink="http://www.w3.org/1999/xlink" xml:space="preserve" onload="init(evt)">
<style type="text/css"><![CDATA[
.edge:hover path { stroke: red; }
.edge:hover polygon { stroke: red; fill: red; }
]]></style>
<script type="text/javascript"><![CDATA[
var edges = document.getElementsByTagName('g');
if (edges && edges.length) {
  for (var i=0;i<edges.length;i++) {
    if (edges[i].id.substr(0,4)=='edge') {
      edges[i].setAttribute('class','edge');
    }
  }
}
]]></script>
        <defs>
                <circle id="rim" cx="0" cy="0" r="7"/>
                <circle id="rim2" cx="0" cy="0" r="3.5"/>
                <g id="zoomPlus">
                        <use xlink:href="#rim" fill="#404040">
                                <set attributeName="fill" to="#808080" begin="zoomplus.mouseover" end="zoomplus.mouseout"/>
                        </use>
                        <path d="M-4,0h8M0,-4v8" fill="none" stroke="white" stroke-width="1.5" pointer-events="none"/>
                </g>
                <g id="zoomMin">
                        <use xlink:href="#rim" fill="#404040">
                                <set attributeName="fill" to="#808080" begin="zoomminus.mouseover" end="zoomminus.mouseout"/>
                        </use>
                        <path d="M-4,0h8" fill="none" stroke="white" stroke-width="1.5" pointer-events="none"/>
                </g>
                <g id="dirArrow">
                        <path fill="none" stroke="white" stroke-width="1.5" d="M0,-3.0v7 M-2.5,-0.5L0,-3.0L2.5,-0.5"/>
                </g>
               <g id="resetDef">
                       <use xlink:href="#rim2" fill="#404040">
                               <set attributeName="fill" to="#808080" begin="reset.mouseover" end="reset.mouseout"/>
                       </use>
               </g>
        </defs>

<script type="text/javascript">
var viewWidth = 516;
var viewHeight = 341;
var sectionId = 'dynsection-1';
</script>
<script xlink:href="svgpan.js"/>
<svg id="graph" class="graph">
<g id="viewport">
<title>include/Function_ref.hpp</title>
<polygon fill="white" stroke="transparent" points="-4,4 -4,-337 512,-337 512,4 -4,4"/>
<!-- Node1 -->
<g id="node1" class="node">
<title>Node1</title>
<g id="a_node1"><a xlink:title="Efficient, type&#45;erasing, non&#45;owning function reference.">
<polygon fill="#bfbfbf" stroke="black" points="191,-313.5 191,-332.5 326,-332.5 326,-313.5 191,-313.5"/>
<text text-anchor="middle" x="258.5" y="-320.5" font-family="Helvetica,sans-Serif" font-size="10.00">include/Function_ref.hpp</text>
</a>
</g>
</g>
<!-- Node2 -->
<g id="node2" class="node">
<title>Node2</title>
<g id="a_node2"><a xlink:href="_apply__move_8hpp.html" target="_top" xlink:title="Apply Pachner moves to foliated Delaunay triangulations.">
<polygon fill="white" stroke="black" points="190,-252 190,-271 327,-271 327,-252 190,-252"/>
<text text-anchor="middle" x="258.5" y="-259" font-family="Helvetica,sans-Serif" font-size="10.00">include/Apply_move.hpp</text>
</a>
</g>
</g>
<!-- Node1&#45;&gt;Node2 -->
<g id="edge1" class="edge">
<title>Node1&#45;&gt;Node2</title>
<path fill="none" stroke="midnightblue" d="M258.5,-303.32C258.5,-292.5 258.5,-279.4 258.5,-271.01"/>
<polygon fill="midnightblue" stroke="midnightblue" points="255,-303.48 258.5,-313.48 262,-303.48 255,-303.48"/>
</g>
<!-- Node13 -->
<g id="node13" class="node">
<title>Node13</title>
<g id="a_node13"><a xlink:href="_simulation_8hpp.html" target="_top" xlink:title="Simulation class.">
<polygon fill="white" stroke="black" points="219.5,-67.5 219.5,-86.5 347.5,-86.5 347.5,-67.5 219.5,-67.5"/>
<text text-anchor="middle" x="283.5" y="-74.5" font-family="Helvetica,sans-Serif" font-size="10.00">include/Simulation.hpp</text>
</a>
</g>
</g>
<!-- Node1&#45;&gt;Node13 -->
<g id="edge12" class="edge">
<title>Node1&#45;&gt;Node13</title>
<path fill="none" stroke="midnightblue" d="M222.22,-309.48C207.11,-302.35 190.91,-291.83 181.5,-277 160.73,-244.28 167.64,-227.95 175.5,-190 182.08,-158.23 182.84,-147.16 204.5,-123 219.67,-106.07 242.77,-93.95 260.08,-86.58"/>
<polygon fill="midnightblue" stroke="midnightblue" points="220.86,-312.7 231.42,-313.48 223.65,-306.28 220.86,-312.7"/>
</g>
<!-- Node14 -->
<g id="node14" class="node">
<title>Node14</title>
<g id="a_node14"><a xlink:href="_function__ref__test_8cpp_source.html" target="_top" xlink:title=" ">
<polygon fill="white" stroke="black" points="345.5,-246.5 345.5,-276.5 449.5,-276.5 449.5,-246.5 345.5,-246.5"/>
<text text-anchor="start" x="353.5" y="-264.5" font-family="Helvetica,sans-Serif" font-size="10.00">tests/Function_ref</text>
<text text-anchor="middle" x="397.5" y="-253.5" font-family="Helvetica,sans-Serif" font-size="10.00">_test.cpp</text>
</a>
</g>
</g>
<!-- Node1&#45;&gt;Node14 -->
<g id="edge16" class="edge">
<title>Node1&#45;&gt;Node14</title>
<path fill="none" stroke="midnightblue" d="M287.79,-309.46C310.31,-299.82 341.4,-286.51 364.74,-276.52"/>
<polygon fill="midnightblue" stroke="midnightblue" points="286.23,-306.32 278.42,-313.48 288.99,-312.76 286.23,-306.32"/>
</g>
<!-- Node3 -->
<g id="node3" class="node">
<title>Node3</title>
<g id="a_node3"><a xlink:href="_move__command_8hpp.html" target="_top" xlink:title="Do ergodic moves using the Command pattern.">
<polygon fill="white" stroke="black" points="351,-190.5 351,-209.5 508,-209.5 508,-190.5 351,-190.5"/>
<text text-anchor="middle" x="429.5" y="-197.5" font-family="Helvetica,sans-Serif" font-size="10.00">include/Move_command.hpp</text>
</a>
</g>
</g>
<!-- Node2&#45;&gt;Node3 -->
<g id="edge2" class="edge">
<title>Node2&#45;&gt;Node3</title>
<path fill="none" stroke="midnightblue" d="M292.75,-248.58C325.99,-237.02 375.61,-219.75 405.05,-209.51"/>
<polygon fill="midnightblue" stroke="midnightblue" points="291.29,-245.38 283,-251.98 293.59,-251.99 291.29,-245.38"/>
</g>
<!-- Node12 -->
<g id="node12" class="node">
<title>Node12</title>
<g id="a_node12"><a xlink:href="_apply__move__test_8cpp.html" target="_top" xlink:title="Apply ergodic moves to manifolds.">
<polygon fill="white" stroke="black" points="184,-190.5 184,-209.5 333,-209.5 333,-190.5 184,-190.5"/>
<text text-anchor="middle" x="258.5" y="-197.5" font-family="Helvetica,sans-Serif" font-size="10.00">tests/Apply_move_test.cpp</text>
</a>
</g>
</g>
<!-- Node2&#45;&gt;Node12 -->
<g id="edge11" class="edge">
<title>Node2&#45;&gt;Node12</title>
<path fill="none" stroke="midnightblue" d="M258.5,-241.82C258.5,-231 258.5,-217.9 258.5,-209.51"/>
<polygon fill="midnightblue" stroke="midnightblue" points="255,-241.98 258.5,-251.98 262,-241.98 255,-241.98"/>
</g>
<!-- Node4 -->
<g id="node4" class="node">
<title>Node4</title>
<g id="a_node4"><a xlink:href="_move__strategy_8hpp.html" target="_top" xlink:title="Base class for move algorithms on Delaunay Triangulations.">
<polygon fill="white" stroke="black" points="356,-129 356,-148 503,-148 503,-129 356,-129"/>
<text text-anchor="middle" x="429.5" y="-136" font-family="Helvetica,sans-Serif" font-size="10.00">include/Move_strategy.hpp</text>
</a>
</g>
</g>
<!-- Node3&#45;&gt;Node4 -->
<g id="edge3" class="edge">
<title>Node3&#45;&gt;Node4</title>
<path fill="none" stroke="midnightblue" d="M429.5,-180.32C429.5,-169.5 429.5,-156.4 429.5,-148.01"/>
<polygon fill="midnightblue" stroke="midnightblue" points="426,-180.48 429.5,-190.48 433,-180.48 426,-180.48"/>
</g>
<!-- Node11 -->
<g id="node11" class="node">
<title>Node11</title>
<g id="a_node11"><a xlink:href="_move__command__test_8cpp.html" target="_top" xlink:title="Tests for moves.">
<polygon fill="white" stroke="black" points="213,-123.5 213,-153.5 338,-153.5 338,-123.5 213,-123.5"/>
<text text-anchor="start" x="221" y="-141.5" font-family="Helvetica,sans-Serif" font-size="10.00">tests/Move_command</text>
<text text-anchor="middle" x="275.5" y="-130.5" font-family="Helvetica,sans-Serif" font-size="10.00">_test.cpp</text>
</a>
</g>
</g>
<!-- Node3&#45;&gt;Node11 -->
<g id="edge10" class="edge">
<title>Node3&#45;&gt;Node11</title>
<path fill="none" stroke="midnightblue" d="M398.05,-186.85C373.03,-177.18 338,-163.65 311.79,-153.52"/>
<polygon fill="midnightblue" stroke="midnightblue" points="396.85,-190.14 407.44,-190.48 399.37,-183.61 396.85,-190.14"/>
</g>
<!-- Node5 -->
<g id="node5" class="node">
<title>Node5</title>
<g id="a_node5"><a xlink:href="_metropolis_8hpp.html" target="_top" xlink:title="Perform Metropolis&#45;Hastings algorithm on Delaunay Triangulations.">
<polygon fill="white" stroke="black" points="365.5,-67.5 365.5,-86.5 493.5,-86.5 493.5,-67.5 365.5,-67.5"/>
<text text-anchor="middle" x="429.5" y="-74.5" font-family="Helvetica,sans-Serif" font-size="10.00">include/Metropolis.hpp</text>
</a>
</g>
</g>
<!-- Node4&#45;&gt;Node5 -->
<g id="edge4" class="edge">
<title>Node4&#45;&gt;Node5</title>
<path fill="none" stroke="midnightblue" d="M429.5,-118.82C429.5,-108 429.5,-94.9 429.5,-86.51"/>
<polygon fill="midnightblue" stroke="midnightblue" points="426,-118.98 429.5,-128.98 433,-118.98 426,-118.98"/>
</g>
<!-- Node8 -->
<g id="node8" class="node">
<title>Node8</title>
<g id="a_node8"><a xlink:href="_move__always_8hpp.html" target="_top" xlink:title="Randomly selects moves to always perform on triangulations.">
<polygon fill="white" stroke="black" points="58,-67.5 58,-86.5 201,-86.5 201,-67.5 58,-67.5"/>
<text text-anchor="middle" x="129.5" y="-74.5" font-family="Helvetica,sans-Serif" font-size="10.00">include/Move_always.hpp</text>
</a>
</g>
</g>
<!-- Node4&#45;&gt;Node8 -->
<g id="edge7" class="edge">
<title>Node4&#45;&gt;Node8</title>
<path fill="none" stroke="midnightblue" d="M376.43,-126.97C318.29,-115.44 226.16,-97.17 172.4,-86.51"/>
<polygon fill="midnightblue" stroke="midnightblue" points="376.03,-130.46 386.52,-128.98 377.39,-123.6 376.03,-130.46"/>
</g>
<!-- Node6 -->
<g id="node6" class="node">
<title>Node6</title>
<g id="a_node6"><a xlink:href="cdt-opt_8cpp.html" target="_top" xlink:title="Outputs values to determine optimizations.">
<polygon fill="white" stroke="black" points="385,-6 385,-25 474,-25 474,-6 385,-6"/>
<text text-anchor="middle" x="429.5" y="-13" font-family="Helvetica,sans-Serif" font-size="10.00">src/cdt&#45;opt.cpp</text>
</a>
</g>
</g>
<!-- Node5&#45;&gt;Node6 -->
<g id="edge5" class="edge">
<title>Node5&#45;&gt;Node6</title>
<path fill="none" stroke="midnightblue" d="M429.5,-57.32C429.5,-46.5 429.5,-33.4 429.5,-25.01"/>
<polygon fill="midnightblue" stroke="midnightblue" points="426,-57.48 429.5,-67.48 433,-57.48 426,-57.48"/>
</g>
<!-- Node7 -->
<g id="node7" class="node">
<title>Node7</title>
<g id="a_node7"><a xlink:href="cdt_8cpp.html" target="_top" xlink:title="The main executable.">
<polygon fill="white" stroke="black" points="298,-6 298,-25 367,-25 367,-6 298,-6"/>
<text text-anchor="middle" x="332.5" y="-13" font-family="Helvetica,sans-Serif" font-size="10.00">src/cdt.cpp</text>
</a>
</g>
</g>
<!-- Node5&#45;&gt;Node7 -->
<g id="edge6" class="edge">
<title>Node5&#45;&gt;Node7</title>
<path fill="none" stroke="midnightblue" d="M407.07,-62.24C388.34,-50.75 362.21,-34.72 346.37,-25.01"/>
<polygon fill="midnightblue" stroke="midnightblue" points="405.25,-65.23 415.6,-67.48 408.91,-59.26 405.25,-65.23"/>
</g>
<!-- Node9 -->
<g id="node9" class="node">
<title>Node9</title>
<g id="a_node9"><a xlink:href="_move__strategies__test_8cpp.html" target="_top" xlink:title="Tests for the Metropolis&#45;Hastings algorithm.">
<polygon fill="white" stroke="black" points="0,-0.5 0,-30.5 125,-30.5 125,-0.5 0,-0.5"/>
<text text-anchor="start" x="8" y="-18.5" font-family="Helvetica,sans-Serif" font-size="10.00">tests/Move_strategies</text>
<text text-anchor="middle" x="62.5" y="-7.5" font-family="Helvetica,sans-Serif" font-size="10.00">_test.cpp</text>
</a>
</g>
</g>
<!-- Node8&#45;&gt;Node9 -->
<g id="edge8" class="edge">
<title>Node8&#45;&gt;Node9</title>
<path fill="none" stroke="midnightblue" d="M112.21,-60.65C101.74,-51.35 88.48,-39.57 78.29,-30.52"/>
<polygon fill="midnightblue" stroke="midnightblue" points="110.1,-63.45 119.9,-67.48 114.75,-58.22 110.1,-63.45"/>
</g>
<!-- Node10 -->
<g id="node10" class="node">
<title>Node10</title>
<g id="a_node10"><a xlink:href="_simulation_test_8cpp_source.html" target="_top" xlink:title=" ">
<polygon fill="white" stroke="black" points="143.5,-6 143.5,-25 279.5,-25 279.5,-6 143.5,-6"/>
<text text-anchor="middle" x="211.5" y="-13" font-family="Helvetica,sans-Serif" font-size="10.00">tests/SimulationTest.cpp</text>
</a>
</g>
</g>
<!-- Node8&#45;&gt;Node10 -->
<g id="edge9" class="edge">
<title>Node8&#45;&gt;Node10</title>
<path fill="none" stroke="midnightblue" d="M149.77,-61.29C165.5,-49.88 186.75,-34.46 199.77,-25.01"/>
<polygon fill="midnightblue" stroke="midnightblue" points="147.29,-58.77 141.25,-67.48 151.4,-64.43 147.29,-58.77"/>
</g>
<!-- Node13&#45;&gt;Node6 -->
<g id="edge13" class="edge">
<title>Node13&#45;&gt;Node6</title>
<path fill="none" stroke="midnightblue" d="M313.85,-63.63C342.21,-52.07 383.81,-35.12 408.62,-25.01"/>
<polygon fill="midnightblue" stroke="midnightblue" points="312.36,-60.46 304.42,-67.48 315,-66.94 312.36,-60.46"/>
</g>
<!-- Node13&#45;&gt;Node7 -->
<g id="edge14" class="edge">
<title>Node13&#45;&gt;Node7</title>
<path fill="none" stroke="midnightblue" d="M296.95,-59.67C306.19,-48.45 318.07,-34.02 325.49,-25.01"/>
<polygon fill="midnightblue" stroke="midnightblue" points="294.18,-57.53 290.52,-67.48 299.58,-61.98 294.18,-57.53"/>
</g>
<!-- Node13&#45;&gt;Node10 -->
<g id="edge15" class="edge">
<title>Node13&#45;&gt;Node10</title>
<path fill="none" stroke="midnightblue" d="M265.32,-60.97C251.54,-49.59 233.12,-34.37 221.8,-25.01"/>
<polygon fill="midnightblue" stroke="midnightblue" points="263.25,-63.8 273.18,-67.48 267.71,-58.41 263.25,-63.8"/>
</g>
</g>
</svg>
        <g id="navigator" transform="translate(0 0)" fill="#404254">
                <rect fill="#f2f5e9" fill-opacity="0.5" stroke="#606060" stroke-width=".5" x="0" y="0" width="60" height="60"/>
                <use id="zoomplus" xlink:href="#zoomPlus" x="17" y="9" onmousedown="handleZoom(evt,'in')"/>
                <use id="zoomminus" xlink:href="#zoomMin" x="42" y="9" onmousedown="handleZoom(evt,'out')"/>
                <use id="reset" xlink:href="#resetDef" x="30" y="36" onmousedown="handleReset()"/>
                <g id="arrowUp" xlink:href="#dirArrow" transform="translate(30 24)" onmousedown="handlePan(0,-1)">
                  <use xlink:href="#rim" fill="#404040">
                        <set attributeName="fill" to="#808080" begin="arrowUp.mouseover" end="arrowUp.mouseout"/>
                  </use>
                  <path fill="none" stroke="white" stroke-width="1.5" d="M0,-3.0v7 M-2.5,-0.5L0,-3.0L2.5,-0.5"/>
                </g>
                <g id="arrowRight" xlink:href="#dirArrow" transform="rotate(90) translate(36 -43)" onmousedown="handlePan(1,0)">
                  <use xlink:href="#rim" fill="#404040">
                        <set attributeName="fill" to="#808080" begin="arrowRight.mouseover" end="arrowRight.mouseout"/>
                  </use>
                  <path fill="none" stroke="white" stroke-width="1.5" d="M0,-3.0v7 M-2.5,-0.5L0,-3.0L2.5,-0.5"/>
                </g>
                <g id="arrowDown" xlink:href="#dirArrow" transform="rotate(180) translate(-30 -48)" onmousedown="handlePan(0,1)">
                  <use xlink:href="#rim" fill="#404040">
                        <set attributeName="fill" to="#808080" begin="arrowDown.mouseover" end="arrowDown.mouseout"/>
                  </use>
                  <path fill="none" stroke="white" stroke-width="1.5" d="M0,-3.0v7 M-2.5,-0.5L0,-3.0L2.5,-0.5"/>
                </g>
                <g id="arrowLeft" xlink:href="#dirArrow" transform="rotate(270) translate(-36 17)" onmousedown="handlePan(-1,0)">
                  <use xlink:href="#rim" fill="#404040">
                        <set attributeName="fill" to="#808080" begin="arrowLeft.mouseover" end="arrowLeft.mouseout"/>
                  </use>
                  <path fill="none" stroke="white" stroke-width="1.5" d="M0,-3.0v7 M-2.5,-0.5L0,-3.0L2.5,-0.5"/>
                </g>
        </g>
        <svg viewBox="0 0 15 15" width="100%" height="30px" preserveAspectRatio="xMaxYMin meet">
         <g id="arrow_out" transform="scale(0.3 0.3)">
          <a xlink:href="_function__ref_8hpp__dep__incl_org.svg" target="_base">
           <rect id="button" ry="5" rx="5" y="6" x="6" height="38" width="38"
                fill="#f2f5e9" fill-opacity="0.5" stroke="#606060" stroke-width="1.0"/>
           <path id="arrow"
             d="M 11.500037,31.436501 C 11.940474,20.09759 22.043105,11.32322 32.158766,21.979434 L 37.068811,17.246167 C 37.068811,17.246167 37.088388,32 37.088388,32 L 22.160133,31.978069 C 22.160133,31.978069 26.997745,27.140456 26.997745,27.140456 C 18.528582,18.264221 13.291696,25.230495 11.500037,31.436501 z"
             style="fill:#404040;"/>
          </a>
         </g>
        </svg>
</svg>
