<?xml version="1.0" encoding="UTF-8" standalone="no"?>
<!DOCTYPE svg PUBLIC "-//W3C//DTD SVG 1.1//EN"
 "http://www.w3.org/Graphics/SVG/1.1/DTD/svg11.dtd">
<!-- Generated by graphviz version 2.43.0 (0)
 -->
<!-- Title: include/Geometry.hpp Pages: 1 -->
<!--zoomable 453 -->
<svg id="main" version="1.1" xmlns="http://www.w3.org/2000/svg" xmlns:xlink="http://www.w3.org/1999/xlink" xml:space="preserve" onload="init(evt)">
<style type="text/css"><![CDATA[
.edge:hover path { stroke: red; }
.edge:hover polygon { stroke: red; fill: red; }
]]></style>
<script type="text/javascript"><![CDATA[
var edges = document.getElementsByTagName('g');
if (edges && edges.length) {
  for (var i=0;i<edges.length;i++) {
    if (edges[i].id.substr(0,4)=='edge') {
      edges[i].setAttribute('class','edge');
    }
  }
}
]]></script>
        <defs>
                <circle id="rim" cx="0" cy="0" r="7"/>
                <circle id="rim2" cx="0" cy="0" r="3.5"/>
                <g id="zoomPlus">
                        <use xlink:href="#rim" fill="#404040">
                                <set attributeName="fill" to="#808080" begin="zoomplus.mouseover" end="zoomplus.mouseout"/>
                        </use>
                        <path d="M-4,0h8M0,-4v8" fill="none" stroke="white" stroke-width="1.5" pointer-events="none"/>
                </g>
                <g id="zoomMin">
                        <use xlink:href="#rim" fill="#404040">
                                <set attributeName="fill" to="#808080" begin="zoomminus.mouseover" end="zoomminus.mouseout"/>
                        </use>
                        <path d="M-4,0h8" fill="none" stroke="white" stroke-width="1.5" pointer-events="none"/>
                </g>
                <g id="dirArrow">
                        <path fill="none" stroke="white" stroke-width="1.5" d="M0,-3.0v7 M-2.5,-0.5L0,-3.0L2.5,-0.5"/>
                </g>
               <g id="resetDef">
                       <use xlink:href="#rim2" fill="#404040">
                               <set attributeName="fill" to="#808080" begin="reset.mouseover" end="reset.mouseout"/>
                       </use>
               </g>
        </defs>

<script type="text/javascript">
var viewWidth = 1436;
var viewHeight = 453;
var sectionId = 'dynsection-1';
</script>
<script xlink:href="svgpan.js"/>
<svg id="graph" class="graph">
<g id="viewport">
<title>include/Geometry.hpp</title>
<polygon fill="white" stroke="transparent" points="-4,4 -4,-449 1432,-449 1432,4 -4,4"/>
<!-- Node1 -->
<g id="node1" class="node">
<title>Node1</title>
<g id="a_node1"><a xlink:title="Geometric quantities of Manifold used by MoveAlgorithm.">
<polygon fill="#bfbfbf" stroke="black" points="1017,-425.5 1017,-444.5 1140,-444.5 1140,-425.5 1017,-425.5"/>
<text text-anchor="middle" x="1078.5" y="-432.5" font-family="Helvetica,sans-Serif" font-size="10.00">include/Geometry.hpp</text>
</a>
</g>
</g>
<!-- Node2 -->
<g id="node2" class="node">
<title>Node2</title>
<g id="a_node2"><a xlink:href="_manifold_8hpp.html" target="_top" xlink:title="Data structures for manifolds.">
<polygon fill="white" stroke="black" points="946,-369.5 946,-388.5 1065,-388.5 1065,-369.5 946,-369.5"/>
<text text-anchor="middle" x="1005.5" y="-376.5" font-family="Helvetica,sans-Serif" font-size="10.00">include/Manifold.hpp</text>
</a>
</g>
</g>
<!-- Node1&#45;&gt;Node2 -->
<g id="edge1" class="edge">
<title>Node1&#45;&gt;Node2</title>
<path fill="none" stroke="midnightblue" d="M1058.36,-419.1C1045.22,-409.38 1028.52,-397.03 1017.44,-388.83"/>
<polygon fill="midnightblue" stroke="midnightblue" points="1056.65,-422.19 1066.77,-425.32 1060.81,-416.56 1056.65,-422.19"/>
</g>
<!-- Node24 -->
<g id="node24" class="node">
<title>Node24</title>
<g id="a_node24"><a xlink:href="_geometry__test_8cpp.html" target="_top" xlink:title="Tests of new geometry data structure.">
<polygon fill="white" stroke="black" points="1083,-369.5 1083,-388.5 1220,-388.5 1220,-369.5 1083,-369.5"/>
<text text-anchor="middle" x="1151.5" y="-376.5" font-family="Helvetica,sans-Serif" font-size="10.00">tests/Geometry_test.cpp</text>
</a>
</g>
</g>
<!-- Node1&#45;&gt;Node24 -->
<g id="edge24" class="edge">
<title>Node1&#45;&gt;Node24</title>
<path fill="none" stroke="midnightblue" d="M1098.64,-419.1C1111.78,-409.38 1128.48,-397.03 1139.56,-388.83"/>
<polygon fill="midnightblue" stroke="midnightblue" points="1096.19,-416.56 1090.23,-425.32 1100.35,-422.19 1096.19,-416.56"/>
</g>
<!-- Node3 -->
<g id="node3" class="node">
<title>Node3</title>
<g id="a_node3"><a xlink:href="_move__tracker_8hpp.html" target="_top" xlink:title="Track ergodic moves.">
<polygon fill="white" stroke="black" points="592,-313.5 592,-332.5 733,-332.5 733,-313.5 592,-313.5"/>
<text text-anchor="middle" x="662.5" y="-320.5" font-family="Helvetica,sans-Serif" font-size="10.00">include/Move_tracker.hpp</text>
</a>
</g>
</g>
<!-- Node2&#45;&gt;Node3 -->
<g id="edge2" class="edge">
<title>Node2&#45;&gt;Node3</title>
<path fill="none" stroke="midnightblue" d="M941.05,-367.85C876.25,-357.65 777.45,-342.1 716.6,-332.52"/>
<polygon fill="midnightblue" stroke="midnightblue" points="940.73,-371.35 951.15,-369.44 941.82,-364.43 940.73,-371.35"/>
</g>
<!-- Node19 -->
<g id="node19" class="node">
<title>Node19</title>
<g id="a_node19"><a xlink:href="initialize_8cpp.html" target="_top" xlink:title="Generates initial spacetimes.">
<polygon fill="white" stroke="black" points="751.5,-313.5 751.5,-332.5 847.5,-332.5 847.5,-313.5 751.5,-313.5"/>
<text text-anchor="middle" x="799.5" y="-320.5" font-family="Helvetica,sans-Serif" font-size="10.00">src/initialize.cpp</text>
</a>
</g>
</g>
<!-- Node2&#45;&gt;Node19 -->
<g id="edge19" class="edge">
<title>Node2&#45;&gt;Node19</title>
<path fill="none" stroke="midnightblue" d="M962.88,-366.83C923.99,-356.63 867.34,-341.78 831.99,-332.52"/>
<polygon fill="midnightblue" stroke="midnightblue" points="962.3,-370.29 972.86,-369.44 964.07,-363.52 962.3,-370.29"/>
</g>
<!-- Node20 -->
<g id="node20" class="node">
<title>Node20</title>
<g id="a_node20"><a xlink:href="_manifold__test_8cpp.html" target="_top" xlink:title="Tests of new manifold data structure.">
<polygon fill="white" stroke="black" points="866,-313.5 866,-332.5 997,-332.5 997,-313.5 866,-313.5"/>
<text text-anchor="middle" x="931.5" y="-320.5" font-family="Helvetica,sans-Serif" font-size="10.00">tests/Manifold_test.cpp</text>
</a>
</g>
</g>
<!-- Node2&#45;&gt;Node20 -->
<g id="edge20" class="edge">
<title>Node2&#45;&gt;Node20</title>
<path fill="none" stroke="midnightblue" d="M985.47,-363.38C972.09,-353.62 954.94,-341.11 943.61,-332.83"/>
<polygon fill="midnightblue" stroke="midnightblue" points="983.47,-366.26 993.61,-369.32 987.6,-360.6 983.47,-366.26"/>
</g>
<!-- Node21 -->
<g id="node21" class="node">
<title>Node21</title>
<g id="a_node21"><a xlink:href="_s3_action__test_8cpp.html" target="_top" xlink:title="Tests for the S3 action functions.">
<polygon fill="white" stroke="black" points="1015,-313.5 1015,-332.5 1146,-332.5 1146,-313.5 1015,-313.5"/>
<text text-anchor="middle" x="1080.5" y="-320.5" font-family="Helvetica,sans-Serif" font-size="10.00">tests/S3Action_test.cpp</text>
</a>
</g>
</g>
<!-- Node2&#45;&gt;Node21 -->
<g id="edge21" class="edge">
<title>Node2&#45;&gt;Node21</title>
<path fill="none" stroke="midnightblue" d="M1025.81,-363.38C1039.36,-353.62 1056.74,-341.11 1068.23,-332.83"/>
<polygon fill="midnightblue" stroke="midnightblue" points="1023.62,-360.64 1017.55,-369.32 1027.71,-366.32 1023.62,-360.64"/>
</g>
<!-- Node22 -->
<g id="node22" class="node">
<title>Node22</title>
<g id="a_node22"><a xlink:href="_utilities__test_8cpp.html" target="_top" xlink:title="Tests on utility functions.">
<polygon fill="white" stroke="black" points="1164.5,-313.5 1164.5,-332.5 1290.5,-332.5 1290.5,-313.5 1164.5,-313.5"/>
<text text-anchor="middle" x="1227.5" y="-320.5" font-family="Helvetica,sans-Serif" font-size="10.00">tests/Utilities_test.cpp</text>
</a>
</g>
</g>
<!-- Node2&#45;&gt;Node22 -->
<g id="edge22" class="edge">
<title>Node2&#45;&gt;Node22</title>
<path fill="none" stroke="midnightblue" d="M1050.62,-367.02C1092.56,-356.82 1154.15,-341.84 1192.49,-332.52"/>
<polygon fill="midnightblue" stroke="midnightblue" points="1049.57,-363.68 1040.68,-369.44 1051.22,-370.48 1049.57,-363.68"/>
</g>
<!-- Node23 -->
<g id="node23" class="node">
<title>Node23</title>
<g id="a_node23"><a xlink:href="_vertex__test_8cpp.html" target="_top" xlink:title="Tests on points and vertices in foliated Delaunay triangulations.">
<polygon fill="white" stroke="black" points="1309,-313.5 1309,-332.5 1428,-332.5 1428,-313.5 1309,-313.5"/>
<text text-anchor="middle" x="1368.5" y="-320.5" font-family="Helvetica,sans-Serif" font-size="10.00">tests/Vertex_test.cpp</text>
</a>
</g>
</g>
<!-- Node2&#45;&gt;Node23 -->
<g id="edge23" class="edge">
<title>Node2&#45;&gt;Node23</title>
<path fill="none" stroke="midnightblue" d="M1073.28,-367.92C1141.86,-357.71 1246.71,-342.12 1311.25,-332.52"/>
<polygon fill="midnightblue" stroke="midnightblue" points="1072.39,-364.51 1063.02,-369.44 1073.42,-371.43 1072.39,-364.51"/>
</g>
<!-- Node4 -->
<g id="node4" class="node">
<title>Node4</title>
<g id="a_node4"><a xlink:href="_ergodic__moves__3_8hpp.html" target="_top" xlink:title="Pachner moves on 2+1 dimensional foliated Delaunay triangulations.">
<polygon fill="white" stroke="black" points="529,-246.5 529,-276.5 658,-276.5 658,-246.5 529,-246.5"/>
<text text-anchor="start" x="537" y="-264.5" font-family="Helvetica,sans-Serif" font-size="10.00">include/Ergodic_moves</text>
<text text-anchor="middle" x="593.5" y="-253.5" font-family="Helvetica,sans-Serif" font-size="10.00">_3.hpp</text>
</a>
</g>
</g>
<!-- Node3&#45;&gt;Node4 -->
<g id="edge3" class="edge">
<title>Node3&#45;&gt;Node4</title>
<path fill="none" stroke="midnightblue" d="M645.01,-306.92C634.18,-297.58 620.36,-285.66 609.76,-276.52"/>
<polygon fill="midnightblue" stroke="midnightblue" points="642.76,-309.6 652.61,-313.48 647.33,-304.29 642.76,-309.6"/>
</g>
<!-- Node18 -->
<g id="node18" class="node">
<title>Node18</title>
<g id="a_node18"><a xlink:href="_move__tracker__test_8cpp.html" target="_top" xlink:title="Tests of MoveTracker, that is, that moves are tracked properly.">
<polygon fill="white" stroke="black" points="676.5,-246.5 676.5,-276.5 786.5,-276.5 786.5,-246.5 676.5,-246.5"/>
<text text-anchor="start" x="684.5" y="-264.5" font-family="Helvetica,sans-Serif" font-size="10.00">tests/Move_tracker</text>
<text text-anchor="middle" x="731.5" y="-253.5" font-family="Helvetica,sans-Serif" font-size="10.00">_test.cpp</text>
</a>
</g>
</g>
<!-- Node3&#45;&gt;Node18 -->
<g id="edge18" class="edge">
<title>Node3&#45;&gt;Node18</title>
<path fill="none" stroke="midnightblue" d="M679.99,-306.92C690.82,-297.58 704.64,-285.66 715.24,-276.52"/>
<polygon fill="midnightblue" stroke="midnightblue" points="677.67,-304.29 672.39,-313.48 682.24,-309.6 677.67,-304.29"/>
</g>
<!-- Node5 -->
<g id="node5" class="node">
<title>Node5</title>
<g id="a_node5"><a xlink:href="_move__command_8hpp.html" target="_top" xlink:title="Do ergodic moves using the Command pattern.">
<polygon fill="white" stroke="black" points="233,-185 233,-204 390,-204 390,-185 233,-185"/>
<text text-anchor="middle" x="311.5" y="-192" font-family="Helvetica,sans-Serif" font-size="10.00">include/Move_command.hpp</text>
</a>
</g>
</g>
<!-- Node4&#45;&gt;Node5 -->
<g id="edge4" class="edge">
<title>Node4&#45;&gt;Node5</title>
<path fill="none" stroke="midnightblue" d="M522.91,-244.23C467.54,-231.47 392.68,-214.21 348.5,-204.03"/>
<polygon fill="midnightblue" stroke="midnightblue" points="522.13,-247.64 532.66,-246.48 523.7,-240.82 522.13,-247.64"/>
</g>
<!-- Node14 -->
<g id="node14" class="node">
<title>Node14</title>
<g id="a_node14"><a xlink:href="bistellar_8cpp.html" target="_top" xlink:title="Example bistellar fip.">
<polygon fill="white" stroke="black" points="408,-185 408,-204 501,-204 501,-185 408,-185"/>
<text text-anchor="middle" x="454.5" y="-192" font-family="Helvetica,sans-Serif" font-size="10.00">src/bistellar.cpp</text>
</a>
</g>
</g>
<!-- Node4&#45;&gt;Node14 -->
<g id="edge14" class="edge">
<title>Node4&#45;&gt;Node14</title>
<path fill="none" stroke="midnightblue" d="M554.22,-242.13C527.47,-229.62 493.29,-213.64 472.69,-204.01"/>
<polygon fill="midnightblue" stroke="midnightblue" points="552.8,-245.33 563.34,-246.4 555.76,-238.99 552.8,-245.33"/>
</g>
<!-- Node15 -->
<g id="node15" class="node">
<title>Node15</title>
<g id="a_node15"><a xlink:href="_apply__move__test_8cpp.html" target="_top" xlink:title="Applying ergodic moves to manifolds.">
<polygon fill="white" stroke="black" points="519,-185 519,-204 668,-204 668,-185 519,-185"/>
<text text-anchor="middle" x="593.5" y="-192" font-family="Helvetica,sans-Serif" font-size="10.00">tests/Apply_move_test.cpp</text>
</a>
</g>
</g>
<!-- Node4&#45;&gt;Node15 -->
<g id="edge15" class="edge">
<title>Node4&#45;&gt;Node15</title>
<path fill="none" stroke="midnightblue" d="M593.5,-236.25C593.5,-225.02 593.5,-212.38 593.5,-204.19"/>
<polygon fill="midnightblue" stroke="midnightblue" points="590,-236.4 593.5,-246.4 597,-236.4 590,-236.4"/>
</g>
<!-- Node16 -->
<g id="node16" class="node">
<title>Node16</title>
<g id="a_node16"><a xlink:href="_ergodic__moves__3__test_8cpp.html" target="_top" xlink:title="Tests for ergodic moves on foliated triangulations.">
<polygon fill="white" stroke="black" points="686.5,-179.5 686.5,-209.5 804.5,-209.5 804.5,-179.5 686.5,-179.5"/>
<text text-anchor="start" x="694.5" y="-197.5" font-family="Helvetica,sans-Serif" font-size="10.00">tests/Ergodic_moves</text>
<text text-anchor="middle" x="745.5" y="-186.5" font-family="Helvetica,sans-Serif" font-size="10.00">_3_test.cpp</text>
</a>
</g>
</g>
<!-- Node4&#45;&gt;Node16 -->
<g id="edge16" class="edge">
<title>Node4&#45;&gt;Node16</title>
<path fill="none" stroke="midnightblue" d="M635.81,-242.41C660.08,-232.03 690.09,-219.2 712.58,-209.58"/>
<polygon fill="midnightblue" stroke="midnightblue" points="634.3,-239.25 626.48,-246.4 637.05,-245.68 634.3,-239.25"/>
</g>
<!-- Node17 -->
<g id="node17" class="node">
<title>Node17</title>
<g id="a_node17"><a xlink:href="_function__ref__test_8cpp.html" target="_top" xlink:title="Tests on function pointers, lambdas, and function_refs.">
<polygon fill="white" stroke="black" points="822.5,-179.5 822.5,-209.5 926.5,-209.5 926.5,-179.5 822.5,-179.5"/>
<text text-anchor="start" x="830.5" y="-197.5" font-family="Helvetica,sans-Serif" font-size="10.00">tests/Function_ref</text>
<text text-anchor="middle" x="874.5" y="-186.5" font-family="Helvetica,sans-Serif" font-size="10.00">_test.cpp</text>
</a>
</g>
</g>
<!-- Node4&#45;&gt;Node17 -->
<g id="edge17" class="edge">
<title>Node4&#45;&gt;Node17</title>
<path fill="none" stroke="midnightblue" d="M664.99,-244.24C708.04,-234.41 763.94,-221.58 813.5,-210 816.36,-209.33 819.3,-208.64 822.26,-207.95"/>
<polygon fill="midnightblue" stroke="midnightblue" points="664.14,-240.84 655.17,-246.48 665.7,-247.67 664.14,-240.84"/>
</g>
<!-- Node6 -->
<g id="node6" class="node">
<title>Node6</title>
<g id="a_node6"><a xlink:href="_move__strategy_8hpp.html" target="_top" xlink:title="Template class for move algorithms (strategies) on manifolds.">
<polygon fill="white" stroke="black" points="161,-118 161,-137 308,-137 308,-118 161,-118"/>
<text text-anchor="middle" x="234.5" y="-125" font-family="Helvetica,sans-Serif" font-size="10.00">include/Move_strategy.hpp</text>
</a>
</g>
</g>
<!-- Node5&#45;&gt;Node6 -->
<g id="edge5" class="edge">
<title>Node5&#45;&gt;Node6</title>
<path fill="none" stroke="midnightblue" d="M293.39,-178.21C278.22,-165.41 257.11,-147.59 244.72,-137.13"/>
<polygon fill="midnightblue" stroke="midnightblue" points="291.22,-180.96 301.12,-184.73 295.73,-175.61 291.22,-180.96"/>
</g>
<!-- Node13 -->
<g id="node13" class="node">
<title>Node13</title>
<g id="a_node13"><a xlink:href="_move__command__test_8cpp.html" target="_top" xlink:title="Tests of MoveCommand, that is, that moves are handled properly.">
<polygon fill="white" stroke="black" points="326,-112.5 326,-142.5 451,-142.5 451,-112.5 326,-112.5"/>
<text text-anchor="start" x="334" y="-130.5" font-family="Helvetica,sans-Serif" font-size="10.00">tests/Move_command</text>
<text text-anchor="middle" x="388.5" y="-119.5" font-family="Helvetica,sans-Serif" font-size="10.00">_test.cpp</text>
</a>
</g>
</g>
<!-- Node5&#45;&gt;Node13 -->
<g id="edge13" class="edge">
<title>Node5&#45;&gt;Node13</title>
<path fill="none" stroke="midnightblue" d="M329.58,-178.24C342.36,-167.45 359.36,-153.1 371.81,-142.59"/>
<polygon fill="midnightblue" stroke="midnightblue" points="327.27,-175.61 321.88,-184.73 331.78,-180.96 327.27,-175.61"/>
</g>
<!-- Node7 -->
<g id="node7" class="node">
<title>Node7</title>
<g id="a_node7"><a xlink:href="_metropolis_8hpp.html" target="_top" xlink:title="Perform Metropolis&#45;Hastings algorithm on Delaunay Triangulations.">
<polygon fill="white" stroke="black" points="93.5,-56.5 93.5,-75.5 221.5,-75.5 221.5,-56.5 93.5,-56.5"/>
<text text-anchor="middle" x="157.5" y="-63.5" font-family="Helvetica,sans-Serif" font-size="10.00">include/Metropolis.hpp</text>
</a>
</g>
</g>
<!-- Node6&#45;&gt;Node7 -->
<g id="edge6" class="edge">
<title>Node6&#45;&gt;Node7</title>
<path fill="none" stroke="midnightblue" d="M215.47,-111.79C200.7,-100.38 180.74,-84.96 168.51,-75.51"/>
<polygon fill="midnightblue" stroke="midnightblue" points="213.41,-114.63 223.47,-117.98 217.69,-109.09 213.41,-114.63"/>
</g>
<!-- Node11 -->
<g id="node11" class="node">
<title>Node11</title>
<g id="a_node11"><a xlink:href="_move__always_8hpp.html" target="_top" xlink:title="Randomly selects moves to always perform on triangulations.">
<polygon fill="white" stroke="black" points="240,-56.5 240,-75.5 383,-75.5 383,-56.5 240,-56.5"/>
<text text-anchor="middle" x="311.5" y="-63.5" font-family="Helvetica,sans-Serif" font-size="10.00">include/Move_always.hpp</text>
</a>
</g>
</g>
<!-- Node6&#45;&gt;Node11 -->
<g id="edge10" class="edge">
<title>Node6&#45;&gt;Node11</title>
<path fill="none" stroke="midnightblue" d="M253.53,-111.79C268.3,-100.38 288.26,-84.96 300.49,-75.51"/>
<polygon fill="midnightblue" stroke="midnightblue" points="251.31,-109.09 245.53,-117.98 255.59,-114.63 251.31,-109.09"/>
</g>
<!-- Node8 -->
<g id="node8" class="node">
<title>Node8</title>
<g id="a_node8"><a xlink:href="cdt-opt_8cpp.html" target="_top" xlink:title="Outputs values to determine optimizations.">
<polygon fill="white" stroke="black" points="246,-0.5 246,-19.5 335,-19.5 335,-0.5 246,-0.5"/>
<text text-anchor="middle" x="290.5" y="-7.5" font-family="Helvetica,sans-Serif" font-size="10.00">src/cdt&#45;opt.cpp</text>
</a>
</g>
</g>
<!-- Node7&#45;&gt;Node8 -->
<g id="edge7" class="edge">
<title>Node7&#45;&gt;Node8</title>
<path fill="none" stroke="midnightblue" d="M187.95,-52.64C212.91,-42.5 247.58,-28.43 269.52,-19.52"/>
<polygon fill="midnightblue" stroke="midnightblue" points="186.52,-49.44 178.57,-56.44 189.16,-55.92 186.52,-49.44"/>
</g>
<!-- Node9 -->
<g id="node9" class="node">
<title>Node9</title>
<g id="a_node9"><a xlink:href="cdt_8cpp.html" target="_top" xlink:title="The main executable.">
<polygon fill="white" stroke="black" points="0,-0.5 0,-19.5 69,-19.5 69,-0.5 0,-0.5"/>
<text text-anchor="middle" x="34.5" y="-7.5" font-family="Helvetica,sans-Serif" font-size="10.00">src/cdt.cpp</text>
</a>
</g>
</g>
<!-- Node7&#45;&gt;Node9 -->
<g id="edge8" class="edge">
<title>Node7&#45;&gt;Node9</title>
<path fill="none" stroke="midnightblue" d="M128.73,-52.37C105.69,-42.26 74.02,-28.35 53.9,-19.52"/>
<polygon fill="midnightblue" stroke="midnightblue" points="127.45,-55.63 138.01,-56.44 130.26,-49.22 127.45,-55.63"/>
</g>
<!-- Node10 -->
<g id="node10" class="node">
<title>Node10</title>
<g id="a_node10"><a xlink:href="_metropolis__test_8cpp.html" target="_top" xlink:title="Tests for the Metropolis&#45;Hastings algorithm.">
<polygon fill="white" stroke="black" points="87.5,-0.5 87.5,-19.5 227.5,-19.5 227.5,-0.5 87.5,-0.5"/>
<text text-anchor="middle" x="157.5" y="-7.5" font-family="Helvetica,sans-Serif" font-size="10.00">tests/Metropolis_test.cpp</text>
</a>
</g>
</g>
<!-- Node7&#45;&gt;Node10 -->
<g id="edge9" class="edge">
<title>Node7&#45;&gt;Node10</title>
<path fill="none" stroke="midnightblue" d="M157.5,-45.8C157.5,-36.91 157.5,-26.78 157.5,-19.75"/>
<polygon fill="midnightblue" stroke="midnightblue" points="154,-46.08 157.5,-56.08 161,-46.08 154,-46.08"/>
</g>
<!-- Node11&#45;&gt;Node8 -->
<g id="edge11" class="edge">
<title>Node11&#45;&gt;Node8</title>
<path fill="none" stroke="midnightblue" d="M304.38,-46.69C300.84,-37.59 296.73,-27.01 293.9,-19.75"/>
<polygon fill="midnightblue" stroke="midnightblue" points="301.15,-48.03 308.03,-56.08 307.67,-45.49 301.15,-48.03"/>
</g>
<!-- Node12 -->
<g id="node12" class="node">
<title>Node12</title>
<g id="a_node12"><a xlink:href="_move__always__test_8cpp.html" target="_top" xlink:title="Tests for the Move Always algorithm.">
<polygon fill="white" stroke="black" points="353,-0.5 353,-19.5 508,-19.5 508,-0.5 353,-0.5"/>
<text text-anchor="middle" x="430.5" y="-7.5" font-family="Helvetica,sans-Serif" font-size="10.00">tests/Move_always_test.cpp</text>
</a>
</g>
</g>
<!-- Node11&#45;&gt;Node12 -->
<g id="edge12" class="edge">
<title>Node11&#45;&gt;Node12</title>
<path fill="none" stroke="midnightblue" d="M339.64,-52.23C361.9,-42.13 392.36,-28.31 411.73,-19.52"/>
<polygon fill="midnightblue" stroke="midnightblue" points="338.02,-49.12 330.36,-56.44 340.91,-55.5 338.02,-49.12"/>
</g>
</g>
</svg>
        <g id="navigator" transform="translate(0 0)" fill="#404254">
                <rect fill="#f2f5e9" fill-opacity="0.5" stroke="#606060" stroke-width=".5" x="0" y="0" width="60" height="60"/>
                <use id="zoomplus" xlink:href="#zoomPlus" x="17" y="9" onmousedown="handleZoom(evt,'in')"/>
                <use id="zoomminus" xlink:href="#zoomMin" x="42" y="9" onmousedown="handleZoom(evt,'out')"/>
                <use id="reset" xlink:href="#resetDef" x="30" y="36" onmousedown="handleReset()"/>
                <g id="arrowUp" xlink:href="#dirArrow" transform="translate(30 24)" onmousedown="handlePan(0,-1)">
                  <use xlink:href="#rim" fill="#404040">
                        <set attributeName="fill" to="#808080" begin="arrowUp.mouseover" end="arrowUp.mouseout"/>
                  </use>
                  <path fill="none" stroke="white" stroke-width="1.5" d="M0,-3.0v7 M-2.5,-0.5L0,-3.0L2.5,-0.5"/>
                </g>
                <g id="arrowRight" xlink:href="#dirArrow" transform="rotate(90) translate(36 -43)" onmousedown="handlePan(1,0)">
                  <use xlink:href="#rim" fill="#404040">
                        <set attributeName="fill" to="#808080" begin="arrowRight.mouseover" end="arrowRight.mouseout"/>
                  </use>
                  <path fill="none" stroke="white" stroke-width="1.5" d="M0,-3.0v7 M-2.5,-0.5L0,-3.0L2.5,-0.5"/>
                </g>
                <g id="arrowDown" xlink:href="#dirArrow" transform="rotate(180) translate(-30 -48)" onmousedown="handlePan(0,1)">
                  <use xlink:href="#rim" fill="#404040">
                        <set attributeName="fill" to="#808080" begin="arrowDown.mouseover" end="arrowDown.mouseout"/>
                  </use>
                  <path fill="none" stroke="white" stroke-width="1.5" d="M0,-3.0v7 M-2.5,-0.5L0,-3.0L2.5,-0.5"/>
                </g>
                <g id="arrowLeft" xlink:href="#dirArrow" transform="rotate(270) translate(-36 17)" onmousedown="handlePan(-1,0)">
                  <use xlink:href="#rim" fill="#404040">
                        <set attributeName="fill" to="#808080" begin="arrowLeft.mouseover" end="arrowLeft.mouseout"/>
                  </use>
                  <path fill="none" stroke="white" stroke-width="1.5" d="M0,-3.0v7 M-2.5,-0.5L0,-3.0L2.5,-0.5"/>
                </g>
        </g>
        <svg viewBox="0 0 15 15" width="100%" height="30px" preserveAspectRatio="xMaxYMin meet">
         <g id="arrow_out" transform="scale(0.3 0.3)">
          <a xlink:href="_geometry_8hpp__dep__incl_org.svg" target="_base">
           <rect id="button" ry="5" rx="5" y="6" x="6" height="38" width="38"
                fill="#f2f5e9" fill-opacity="0.5" stroke="#606060" stroke-width="1.0"/>
           <path id="arrow"
             d="M 11.500037,31.436501 C 11.940474,20.09759 22.043105,11.32322 32.158766,21.979434 L 37.068811,17.246167 C 37.068811,17.246167 37.088388,32 37.088388,32 L 22.160133,31.978069 C 22.160133,31.978069 26.997745,27.140456 26.997745,27.140456 C 18.528582,18.264221 13.291696,25.230495 11.500037,31.436501 z"
             style="fill:#404040;"/>
          </a>
         </g>
        </svg>
</svg>
