<?xml version="1.0" encoding="UTF-8" standalone="no"?>
<!DOCTYPE svg PUBLIC "-//W3C//DTD SVG 1.1//EN"
 "http://www.w3.org/Graphics/SVG/1.1/DTD/svg11.dtd">
<!-- Generated by graphviz version 2.43.0 (0)
 -->
<!-- Title: include/Geometry.hpp Pages: 1 -->
<svg width="2249pt" height="269pt"
 viewBox="0.00 0.00 2249.00 269.00" xmlns="http://www.w3.org/2000/svg" xmlns:xlink="http://www.w3.org/1999/xlink">
<g id="graph0" class="graph" transform="scale(1 1) rotate(0) translate(4 265)">
<title>include/Geometry.hpp</title>
<!-- Node1 -->
<g id="node1" class="node">
<title>Node1</title>
<g id="a_node1"><a xlink:title="Geometric scalars of the Manifold used to calculate the Regge action.">
<polygon fill="#999999" stroke="#666666" points="408.5,-261 285.5,-261 285.5,-242 408.5,-242 408.5,-261"/>
<text text-anchor="middle" x="347" y="-249" font-family="Helvetica,sans-Serif" font-size="10.00">include/Geometry.hpp</text>
</a>
</g>
</g>
<!-- Node2 -->
<g id="node2" class="node">
<title>Node2</title>
<g id="a_node2"><a xlink:title=" ">
<polygon fill="#e0e0e0" stroke="#999999" points="234.5,-151 165.5,-151 165.5,-132 234.5,-132 234.5,-151"/>
<text text-anchor="middle" x="200" y="-139" font-family="Helvetica,sans-Serif" font-size="10.00">type_traits</text>
</a>
</g>
</g>
<!-- Node1&#45;&gt;Node2 -->
<g id="edge1" class="edge">
<title>Node1&#45;&gt;Node2</title>
<path fill="none" stroke="#63b8ff" d="M335.22,-241.84C310.17,-223.44 251.36,-180.23 220.2,-157.34"/>
<polygon fill="#63b8ff" stroke="#63b8ff" points="221.97,-154.3 211.84,-151.2 217.82,-159.94 221.97,-154.3"/>
</g>
<!-- Node3 -->
<g id="node3" class="node">
<title>Node3</title>
<g id="a_node3"><a xlink:href="_foliated__triangulation_8hpp.html" target="_top" xlink:title="Create foliated spherical triangulations.">
<polygon fill="white" stroke="#666666" points="532,-206 388,-206 388,-187 532,-187 532,-206"/>
<text text-anchor="middle" x="460" y="-194" font-family="Helvetica,sans-Serif" font-size="10.00">Foliated_triangulation.hpp</text>
</a>
</g>
</g>
<!-- Node1&#45;&gt;Node3 -->
<g id="edge2" class="edge">
<title>Node1&#45;&gt;Node3</title>
<path fill="none" stroke="#63b8ff" d="M365.16,-241.98C383.25,-233.5 411.28,-220.35 432.19,-210.54"/>
<polygon fill="#63b8ff" stroke="#63b8ff" points="433.95,-213.59 441.51,-206.17 430.97,-207.25 433.95,-213.59"/>
</g>
<!-- Node3&#45;&gt;Node2 -->
<g id="edge8" class="edge">
<title>Node3&#45;&gt;Node2</title>
<path fill="none" stroke="#63b8ff" d="M418.23,-186.98C370.65,-177.29 293.23,-161.5 244.53,-151.58"/>
<polygon fill="#63b8ff" stroke="#63b8ff" points="245.1,-148.12 234.6,-149.55 243.7,-154.98 245.1,-148.12"/>
</g>
<!-- Node4 -->
<g id="node4" class="node">
<title>Node4</title>
<g id="a_node4"><a xlink:title=" ">
<polygon fill="#e0e0e0" stroke="#999999" points="2241,-85 2177,-85 2177,-66 2241,-66 2241,-85"/>
<text text-anchor="middle" x="2209" y="-73" font-family="Helvetica,sans-Serif" font-size="10.00">algorithm</text>
</a>
</g>
</g>
<!-- Node3&#45;&gt;Node4 -->
<g id="edge3" class="edge">
<title>Node3&#45;&gt;Node4</title>
<path fill="none" stroke="#63b8ff" d="M532.18,-194.25C714.29,-190.78 1207.15,-179.31 1617,-151 1862.52,-134.04 1930.92,-162.05 2168,-96 2173.69,-94.41 2179.57,-92.08 2185.04,-89.58"/>
<polygon fill="#63b8ff" stroke="#63b8ff" points="2186.87,-92.58 2194.3,-85.01 2183.78,-86.3 2186.87,-92.58"/>
</g>
<!-- Node5 -->
<g id="node5" class="node">
<title>Node5</title>
<g id="a_node5"><a xlink:title=" ">
<polygon fill="#e0e0e0" stroke="#999999" points="299.5,-151 252.5,-151 252.5,-132 299.5,-132 299.5,-151"/>
<text text-anchor="middle" x="276" y="-139" font-family="Helvetica,sans-Serif" font-size="10.00">cmath</text>
</a>
</g>
</g>
<!-- Node3&#45;&gt;Node5 -->
<g id="edge4" class="edge">
<title>Node3&#45;&gt;Node5</title>
<path fill="none" stroke="#63b8ff" d="M430.44,-186.98C397.34,-177.45 343.82,-162.03 309.28,-152.09"/>
<polygon fill="#63b8ff" stroke="#63b8ff" points="310.22,-148.71 299.64,-149.31 308.28,-155.44 310.22,-148.71"/>
</g>
<!-- Node6 -->
<g id="node6" class="node">
<title>Node6</title>
<g id="a_node6"><a xlink:title=" ">
<polygon fill="#e0e0e0" stroke="#999999" points="382.5,-151 317.5,-151 317.5,-132 382.5,-132 382.5,-151"/>
<text text-anchor="middle" x="350" y="-139" font-family="Helvetica,sans-Serif" font-size="10.00">functional</text>
</a>
</g>
</g>
<!-- Node3&#45;&gt;Node6 -->
<g id="edge5" class="edge">
<title>Node3&#45;&gt;Node6</title>
<path fill="none" stroke="#63b8ff" d="M442.33,-186.98C424.71,-178.5 397.42,-165.35 377.07,-155.54"/>
<polygon fill="#63b8ff" stroke="#63b8ff" points="378.52,-152.36 367.99,-151.17 375.48,-158.66 378.52,-152.36"/>
</g>
<!-- Node7 -->
<g id="node7" class="node">
<title>Node7</title>
<g id="a_node7"><a xlink:title=" ">
<polygon fill="#e0e0e0" stroke="#999999" points="453.5,-151 400.5,-151 400.5,-132 453.5,-132 453.5,-151"/>
<text text-anchor="middle" x="427" y="-139" font-family="Helvetica,sans-Serif" font-size="10.00">iterator</text>
</a>
</g>
</g>
<!-- Node3&#45;&gt;Node7 -->
<g id="edge6" class="edge">
<title>Node3&#45;&gt;Node7</title>
<path fill="none" stroke="#63b8ff" d="M454.55,-186.75C449.99,-179.42 443.33,-168.73 437.71,-159.7"/>
<polygon fill="#63b8ff" stroke="#63b8ff" points="440.6,-157.73 432.35,-151.09 434.66,-161.43 440.6,-157.73"/>
</g>
<!-- Node8 -->
<g id="node8" class="node">
<title>Node8</title>
<g id="a_node8"><a xlink:title=" ">
<polygon fill="#e0e0e0" stroke="#999999" points="516,-151 472,-151 472,-132 516,-132 516,-151"/>
<text text-anchor="middle" x="494" y="-139" font-family="Helvetica,sans-Serif" font-size="10.00">limits</text>
</a>
</g>
</g>
<!-- Node3&#45;&gt;Node8 -->
<g id="edge7" class="edge">
<title>Node3&#45;&gt;Node8</title>
<path fill="none" stroke="#63b8ff" d="M465.61,-186.75C470.32,-179.42 477.17,-168.73 482.97,-159.7"/>
<polygon fill="#63b8ff" stroke="#63b8ff" points="486.04,-161.4 488.49,-151.09 480.14,-157.62 486.04,-161.4"/>
</g>
<!-- Node9 -->
<g id="node9" class="node">
<title>Node9</title>
<g id="a_node9"><a xlink:title=" ">
<polygon fill="#e0e0e0" stroke="#999999" points="579.5,-151 534.5,-151 534.5,-132 579.5,-132 579.5,-151"/>
<text text-anchor="middle" x="557" y="-139" font-family="Helvetica,sans-Serif" font-size="10.00">utility</text>
</a>
</g>
</g>
<!-- Node3&#45;&gt;Node9 -->
<g id="edge9" class="edge">
<title>Node3&#45;&gt;Node9</title>
<path fill="none" stroke="#63b8ff" d="M475.58,-186.98C490.77,-178.69 514.1,-165.94 531.9,-156.22"/>
<polygon fill="#63b8ff" stroke="#63b8ff" points="534.03,-159.04 541.13,-151.17 530.68,-152.89 534.03,-159.04"/>
</g>
<!-- Node10 -->
<g id="node10" class="node">
<title>Node10</title>
<g id="a_node10"><a xlink:href="_triangulation__traits_8hpp.html" target="_top" xlink:title="Traits class for particular uses of CGAL.">
<polygon fill="white" stroke="#666666" points="728.5,-151 597.5,-151 597.5,-132 728.5,-132 728.5,-151"/>
<text text-anchor="middle" x="663" y="-139" font-family="Helvetica,sans-Serif" font-size="10.00">Triangulation_traits.hpp</text>
</a>
</g>
</g>
<!-- Node3&#45;&gt;Node10 -->
<g id="edge10" class="edge">
<title>Node3&#45;&gt;Node10</title>
<path fill="none" stroke="#63b8ff" d="M492.62,-186.98C527.29,-177.93 582.26,-163.58 620.35,-153.64"/>
<polygon fill="#63b8ff" stroke="#63b8ff" points="621.34,-156.99 630.13,-151.08 619.57,-150.22 621.34,-156.99"/>
</g>
<!-- Node19 -->
<g id="node19" class="node">
<title>Node19</title>
<g id="a_node19"><a xlink:href="_utilities_8hpp.html" target="_top" xlink:title="Utility functions.">
<polygon fill="white" stroke="#666666" points="1608,-151 1532,-151 1532,-132 1608,-132 1608,-151"/>
<text text-anchor="middle" x="1570" y="-139" font-family="Helvetica,sans-Serif" font-size="10.00">Utilities.hpp</text>
</a>
</g>
</g>
<!-- Node3&#45;&gt;Node19 -->
<g id="edge19" class="edge">
<title>Node3&#45;&gt;Node19</title>
<path fill="none" stroke="#63b8ff" d="M532.4,-192.04C742.08,-182.03 1346.03,-153.19 1521.59,-144.81"/>
<polygon fill="#63b8ff" stroke="#63b8ff" points="1521.99,-148.3 1531.81,-144.32 1521.65,-141.3 1521.99,-148.3"/>
</g>
<!-- Node11 -->
<g id="node11" class="node">
<title>Node11</title>
<g id="a_node11"><a xlink:title=" ">
<polygon fill="#e0e0e0" stroke="#999999" points="180,-85 0,-85 0,-66 180,-66 180,-85"/>
<text text-anchor="middle" x="90" y="-73" font-family="Helvetica,sans-Serif" font-size="10.00">CGAL/Delaunay_triangulation_3.h</text>
</a>
</g>
</g>
<!-- Node10&#45;&gt;Node11 -->
<g id="edge11" class="edge">
<title>Node10&#45;&gt;Node11</title>
<path fill="none" stroke="#63b8ff" d="M597.16,-132.95C594.06,-132.62 591,-132.31 588,-132 410.86,-113.97 365.26,-121.24 189,-96 172.5,-93.64 154.59,-90.34 138.59,-87.12"/>
<polygon fill="#63b8ff" stroke="#63b8ff" points="138.89,-83.61 128.39,-85.03 137.49,-90.47 138.89,-83.61"/>
</g>
<!-- Node12 -->
<g id="node12" class="node">
<title>Node12</title>
<g id="a_node12"><a xlink:title=" ">
<polygon fill="#e0e0e0" stroke="#999999" points="327.5,-96 198.5,-96 198.5,-55 327.5,-55 327.5,-96"/>
<text text-anchor="start" x="206.5" y="-84" font-family="Helvetica,sans-Serif" font-size="10.00">CGAL/Exact_predicates</text>
<text text-anchor="start" x="206.5" y="-73" font-family="Helvetica,sans-Serif" font-size="10.00">_inexact_constructions</text>
<text text-anchor="middle" x="263" y="-62" font-family="Helvetica,sans-Serif" font-size="10.00">_kernel.h</text>
</a>
</g>
</g>
<!-- Node10&#45;&gt;Node12 -->
<g id="edge12" class="edge">
<title>Node10&#45;&gt;Node12</title>
<path fill="none" stroke="#63b8ff" d="M597.49,-132.58C521.25,-123.19 398.9,-107.58 337.76,-96.19"/>
<polygon fill="#63b8ff" stroke="#63b8ff" points="338.26,-92.72 327.78,-94.26 336.93,-99.6 338.26,-92.72"/>
</g>
<!-- Node13 -->
<g id="node13" class="node">
<title>Node13</title>
<g id="a_node13"><a xlink:title=" ">
<polygon fill="#e0e0e0" stroke="#999999" points="494.5,-85 345.5,-85 345.5,-66 494.5,-66 494.5,-85"/>
<text text-anchor="middle" x="420" y="-73" font-family="Helvetica,sans-Serif" font-size="10.00">CGAL/point_generators_3.h</text>
</a>
</g>
</g>
<!-- Node10&#45;&gt;Node13 -->
<g id="edge13" class="edge">
<title>Node10&#45;&gt;Node13</title>
<path fill="none" stroke="#63b8ff" d="M630.48,-131.94C587.01,-120.49 509.92,-100.18 462.07,-87.58"/>
<polygon fill="#63b8ff" stroke="#63b8ff" points="462.89,-84.18 452.33,-85.01 461.11,-90.95 462.89,-84.18"/>
</g>
<!-- Node14 -->
<g id="node14" class="node">
<title>Node14</title>
<g id="a_node14"><a xlink:title=" ">
<polygon fill="#e0e0e0" stroke="#999999" points="651,-90.5 513,-90.5 513,-60.5 651,-60.5 651,-90.5"/>
<text text-anchor="start" x="521" y="-78.5" font-family="Helvetica,sans-Serif" font-size="10.00">CGAL/Triangulation</text>
<text text-anchor="middle" x="582" y="-67.5" font-family="Helvetica,sans-Serif" font-size="10.00">_cell_base_with_info_3.h</text>
</a>
</g>
</g>
<!-- Node10&#45;&gt;Node14 -->
<g id="edge14" class="edge">
<title>Node10&#45;&gt;Node14</title>
<path fill="none" stroke="#63b8ff" d="M652.08,-131.87C640.78,-122.94 622.74,-108.69 607.79,-96.88"/>
<polygon fill="#63b8ff" stroke="#63b8ff" points="609.88,-94.07 599.87,-90.62 605.54,-99.56 609.88,-94.07"/>
</g>
<!-- Node15 -->
<g id="node15" class="node">
<title>Node15</title>
<g id="a_node15"><a xlink:title=" ">
<polygon fill="#e0e0e0" stroke="#999999" points="821,-90.5 669,-90.5 669,-60.5 821,-60.5 821,-90.5"/>
<text text-anchor="start" x="677" y="-78.5" font-family="Helvetica,sans-Serif" font-size="10.00">CGAL/Triangulation</text>
<text text-anchor="middle" x="745" y="-67.5" font-family="Helvetica,sans-Serif" font-size="10.00">_vertex_base_with_info_3.h</text>
</a>
</g>
</g>
<!-- Node10&#45;&gt;Node15 -->
<g id="edge15" class="edge">
<title>Node10&#45;&gt;Node15</title>
<path fill="none" stroke="#63b8ff" d="M674.06,-131.87C685.49,-122.94 703.76,-108.69 718.89,-96.88"/>
<polygon fill="#63b8ff" stroke="#63b8ff" points="721.18,-99.53 726.91,-90.62 716.88,-94.01 721.18,-99.53"/>
</g>
<!-- Node16 -->
<g id="node16" class="node">
<title>Node16</title>
<g id="a_node16"><a xlink:href="_settings_8hpp.html" target="_top" xlink:title="Global integer and precision settings.">
<polygon fill="white" stroke="#666666" points="916.5,-85 839.5,-85 839.5,-66 916.5,-66 916.5,-85"/>
<text text-anchor="middle" x="878" y="-73" font-family="Helvetica,sans-Serif" font-size="10.00">Settings.hpp</text>
</a>
</g>
</g>
<!-- Node10&#45;&gt;Node16 -->
<g id="edge16" class="edge">
<title>Node10&#45;&gt;Node16</title>
<path fill="none" stroke="#63b8ff" d="M700.54,-131.92C734.65,-123.8 786.18,-110.67 830,-96 836.27,-93.9 842.89,-91.4 849.16,-88.9"/>
<polygon fill="#63b8ff" stroke="#63b8ff" points="850.67,-92.06 858.59,-85.03 848.01,-85.59 850.67,-92.06"/>
</g>
<!-- Node17 -->
<g id="node17" class="node">
<title>Node17</title>
<g id="a_node17"><a xlink:title=" ">
<polygon fill="#e0e0e0" stroke="#999999" points="891,-19 751,-19 751,0 891,0 891,-19"/>
<text text-anchor="middle" x="821" y="-7" font-family="Helvetica,sans-Serif" font-size="10.00">CGAL/GMP/Gmpzf_type.h</text>
</a>
</g>
</g>
<!-- Node16&#45;&gt;Node17 -->
<g id="edge17" class="edge">
<title>Node16&#45;&gt;Node17</title>
<path fill="none" stroke="#63b8ff" d="M870.31,-65.87C861.52,-56 846.93,-39.61 835.89,-27.22"/>
<polygon fill="#63b8ff" stroke="#63b8ff" points="838.2,-24.55 828.93,-19.41 832.97,-29.2 838.2,-24.55"/>
</g>
<!-- Node18 -->
<g id="node18" class="node">
<title>Node18</title>
<g id="a_node18"><a xlink:title=" ">
<polygon fill="#e0e0e0" stroke="#999999" points="959,-19 909,-19 909,0 959,0 959,-19"/>
<text text-anchor="middle" x="934" y="-7" font-family="Helvetica,sans-Serif" font-size="10.00">cstdint</text>
</a>
</g>
</g>
<!-- Node16&#45;&gt;Node18 -->
<g id="edge18" class="edge">
<title>Node16&#45;&gt;Node18</title>
<path fill="none" stroke="#63b8ff" d="M885.55,-65.87C894.19,-56 908.53,-39.61 919.37,-27.22"/>
<polygon fill="#63b8ff" stroke="#63b8ff" points="922.26,-29.24 926.21,-19.41 916.99,-24.63 922.26,-29.24"/>
</g>
<!-- Node19&#45;&gt;Node4 -->
<g id="edge20" class="edge">
<title>Node19&#45;&gt;Node4</title>
<path fill="none" stroke="#63b8ff" d="M1608.28,-139.49C1722.83,-136.18 2061.58,-124.21 2168,-96 2173.71,-94.49 2179.6,-92.18 2185.06,-89.69"/>
<polygon fill="#63b8ff" stroke="#63b8ff" points="2186.91,-92.68 2194.32,-85.11 2183.81,-86.41 2186.91,-92.68"/>
</g>
<!-- Node19&#45;&gt;Node16 -->
<g id="edge35" class="edge">
<title>Node19&#45;&gt;Node16</title>
<path fill="none" stroke="#63b8ff" d="M1531.86,-139.45C1411.76,-135.88 1042.42,-122.94 926,-96 918.93,-94.36 911.56,-91.83 904.77,-89.11"/>
<polygon fill="#63b8ff" stroke="#63b8ff" points="905.92,-85.8 895.34,-85.1 903.17,-92.24 905.92,-85.8"/>
</g>
<!-- Node20 -->
<g id="node20" class="node">
<title>Node20</title>
<g id="a_node20"><a xlink:title=" ">
<polygon fill="#e0e0e0" stroke="#999999" points="1823,-85 1755,-85 1755,-66 1823,-66 1823,-85"/>
<text text-anchor="middle" x="1789" y="-73" font-family="Helvetica,sans-Serif" font-size="10.00">filesystem</text>
</a>
</g>
</g>
<!-- Node19&#45;&gt;Node20 -->
<g id="edge21" class="edge">
<title>Node19&#45;&gt;Node20</title>
<path fill="none" stroke="#63b8ff" d="M1608.34,-132.87C1644.39,-125.21 1699.59,-112.24 1746,-96 1751.42,-94.1 1757.08,-91.79 1762.46,-89.42"/>
<polygon fill="#63b8ff" stroke="#63b8ff" points="1764.08,-92.53 1771.71,-85.19 1761.17,-86.17 1764.08,-92.53"/>
</g>
<!-- Node21 -->
<g id="node21" class="node">
<title>Node21</title>
<g id="a_node21"><a xlink:title=" ">
<polygon fill="#e0e0e0" stroke="#999999" points="1896.5,-85 1841.5,-85 1841.5,-66 1896.5,-66 1896.5,-85"/>
<text text-anchor="middle" x="1869" y="-73" font-family="Helvetica,sans-Serif" font-size="10.00">fstream</text>
</a>
</g>
</g>
<!-- Node19&#45;&gt;Node21 -->
<g id="edge22" class="edge">
<title>Node19&#45;&gt;Node21</title>
<path fill="none" stroke="#63b8ff" d="M1608.23,-137.81C1660.1,-133.32 1755.09,-122.05 1832,-96 1836.74,-94.4 1841.6,-92.24 1846.19,-89.95"/>
<polygon fill="#63b8ff" stroke="#63b8ff" points="1847.9,-93 1855.06,-85.19 1844.6,-86.83 1847.9,-93"/>
</g>
<!-- Node22 -->
<g id="node22" class="node">
<title>Node22</title>
<g id="a_node22"><a xlink:title=" ">
<polygon fill="#e0e0e0" stroke="#999999" points="1963,-85 1915,-85 1915,-66 1963,-66 1963,-85"/>
<text text-anchor="middle" x="1939" y="-73" font-family="Helvetica,sans-Serif" font-size="10.00">gsl/gsl</text>
</a>
</g>
</g>
<!-- Node19&#45;&gt;Node22 -->
<g id="edge23" class="edge">
<title>Node19&#45;&gt;Node22</title>
<path fill="none" stroke="#63b8ff" d="M1608.17,-140.36C1671.71,-139.06 1802.41,-131.79 1906,-96 1910.17,-94.56 1914.4,-92.55 1918.38,-90.37"/>
<polygon fill="#63b8ff" stroke="#63b8ff" points="1920.28,-93.31 1927.04,-85.15 1916.67,-87.32 1920.28,-93.31"/>
</g>
<!-- Node23 -->
<g id="node23" class="node">
<title>Node23</title>
<g id="a_node23"><a xlink:title=" ">
<polygon fill="#e0e0e0" stroke="#999999" points="2029,-85 1981,-85 1981,-66 2029,-66 2029,-85"/>
<text text-anchor="middle" x="2005" y="-73" font-family="Helvetica,sans-Serif" font-size="10.00">mutex</text>
</a>
</g>
</g>
<!-- Node19&#45;&gt;Node23 -->
<g id="edge24" class="edge">
<title>Node19&#45;&gt;Node23</title>
<path fill="none" stroke="#63b8ff" d="M1608.1,-138.33C1694.89,-133.06 1904.97,-118.36 1972,-96 1976.26,-94.58 1980.57,-92.55 1984.6,-90.34"/>
<polygon fill="#63b8ff" stroke="#63b8ff" points="1986.63,-93.2 1993.37,-85.02 1983,-87.21 1986.63,-93.2"/>
</g>
<!-- Node24 -->
<g id="node24" class="node">
<title>Node24</title>
<g id="a_node24"><a xlink:title=" ">
<polygon fill="#e0e0e0" stroke="#999999" points="2101,-85 2047,-85 2047,-66 2101,-66 2101,-85"/>
<text text-anchor="middle" x="2074" y="-73" font-family="Helvetica,sans-Serif" font-size="10.00">random</text>
</a>
</g>
</g>
<!-- Node19&#45;&gt;Node24 -->
<g id="edge25" class="edge">
<title>Node19&#45;&gt;Node24</title>
<path fill="none" stroke="#63b8ff" d="M1608.08,-138.84C1704.78,-134.31 1957.78,-120.43 2038,-96 2042.84,-94.52 2047.78,-92.36 2052.38,-90"/>
<polygon fill="#63b8ff" stroke="#63b8ff" points="2054.2,-93 2061.22,-85.06 2050.79,-86.89 2054.2,-93"/>
</g>
<!-- Node25 -->
<g id="node25" class="node">
<title>Node25</title>
<g id="a_node25"><a xlink:title=" ">
<polygon fill="#e0e0e0" stroke="#999999" points="2159,-85 2119,-85 2119,-66 2159,-66 2159,-85"/>
<text text-anchor="middle" x="2139" y="-73" font-family="Helvetica,sans-Serif" font-size="10.00">span</text>
</a>
</g>
</g>
<!-- Node19&#45;&gt;Node25 -->
<g id="edge26" class="edge">
<title>Node19&#45;&gt;Node25</title>
<path fill="none" stroke="#63b8ff" d="M1608.16,-139.85C1715.3,-137.62 2017.12,-128.55 2110,-96 2113.65,-94.72 2117.28,-92.87 2120.67,-90.81"/>
<polygon fill="#63b8ff" stroke="#63b8ff" points="2122.7,-93.67 2128.96,-85.12 2118.73,-87.9 2122.7,-93.67"/>
</g>
<!-- Node26 -->
<g id="node26" class="node">
<title>Node26</title>
<g id="a_node26"><a xlink:title=" ">
<polygon fill="#e0e0e0" stroke="#999999" points="999.5,-85 934.5,-85 934.5,-66 999.5,-66 999.5,-85"/>
<text text-anchor="middle" x="967" y="-73" font-family="Helvetica,sans-Serif" font-size="10.00">stdexcept</text>
</a>
</g>
</g>
<!-- Node19&#45;&gt;Node26 -->
<g id="edge27" class="edge">
<title>Node19&#45;&gt;Node26</title>
<path fill="none" stroke="#63b8ff" d="M1531.78,-139.23C1422.16,-135.31 1108.22,-122.07 1009,-96 1003.02,-94.43 996.85,-92.04 991.13,-89.47"/>
<polygon fill="#63b8ff" stroke="#63b8ff" points="992.59,-86.29 982.07,-85.09 989.54,-92.59 992.59,-86.29"/>
</g>
<!-- Node27 -->
<g id="node27" class="node">
<title>Node27</title>
<g id="a_node27"><a xlink:title=" ">
<polygon fill="#e0e0e0" stroke="#999999" points="1062,-85 1018,-85 1018,-66 1062,-66 1062,-85"/>
<text text-anchor="middle" x="1040" y="-73" font-family="Helvetica,sans-Serif" font-size="10.00">string</text>
</a>
</g>
</g>
<!-- Node19&#45;&gt;Node27 -->
<g id="edge28" class="edge">
<title>Node19&#45;&gt;Node27</title>
<path fill="none" stroke="#63b8ff" d="M1531.9,-139.41C1430.57,-136.13 1156.4,-124.8 1071,-96 1067.05,-94.67 1063.08,-92.74 1059.37,-90.6"/>
<polygon fill="#63b8ff" stroke="#63b8ff" points="1061.13,-87.57 1050.83,-85.1 1057.34,-93.46 1061.13,-87.57"/>
</g>
<!-- Node28 -->
<g id="node28" class="node">
<title>Node28</title>
<g id="a_node28"><a xlink:title=" ">
<polygon fill="#e0e0e0" stroke="#999999" points="1152,-85 1080,-85 1080,-66 1152,-66 1152,-85"/>
<text text-anchor="middle" x="1116" y="-73" font-family="Helvetica,sans-Serif" font-size="10.00">date/date.h</text>
</a>
</g>
</g>
<!-- Node19&#45;&gt;Node28 -->
<g id="edge29" class="edge">
<title>Node19&#45;&gt;Node28</title>
<path fill="none" stroke="#63b8ff" d="M1531.81,-140.14C1458.63,-138.63 1294.09,-131.21 1161,-96 1154.63,-94.31 1147.99,-91.86 1141.84,-89.27"/>
<polygon fill="#63b8ff" stroke="#63b8ff" points="1143.22,-86.05 1132.66,-85.15 1140.35,-92.44 1143.22,-86.05"/>
</g>
<!-- Node29 -->
<g id="node29" class="node">
<title>Node29</title>
<g id="a_node29"><a xlink:title=" ">
<polygon fill="#e0e0e0" stroke="#999999" points="1268,-85 1170,-85 1170,-66 1268,-66 1268,-85"/>
<text text-anchor="middle" x="1219" y="-73" font-family="Helvetica,sans-Serif" font-size="10.00">pcg_random.hpp</text>
</a>
</g>
</g>
<!-- Node19&#45;&gt;Node29 -->
<g id="edge30" class="edge">
<title>Node19&#45;&gt;Node29</title>
<path fill="none" stroke="#63b8ff" d="M1531.66,-136.82C1475.3,-130.94 1367.01,-117.79 1277,-96 1268.39,-93.92 1259.24,-91.12 1250.81,-88.3"/>
<polygon fill="#63b8ff" stroke="#63b8ff" points="1251.91,-84.98 1241.32,-85.02 1249.63,-91.59 1251.91,-84.98"/>
</g>
<!-- Node30 -->
<g id="node30" class="node">
<title>Node30</title>
<g id="a_node30"><a xlink:title=" ">
<polygon fill="#e0e0e0" stroke="#999999" points="1372,-85 1286,-85 1286,-66 1372,-66 1372,-85"/>
<text text-anchor="middle" x="1329" y="-73" font-family="Helvetica,sans-Serif" font-size="10.00">fmt/ostream.h</text>
</a>
</g>
</g>
<!-- Node19&#45;&gt;Node30 -->
<g id="edge31" class="edge">
<title>Node19&#45;&gt;Node30</title>
<path fill="none" stroke="#63b8ff" d="M1531.97,-133.04C1493.53,-125.14 1432.61,-111.68 1381,-96 1374.06,-93.89 1366.7,-91.34 1359.78,-88.78"/>
<polygon fill="#63b8ff" stroke="#63b8ff" points="1360.63,-85.36 1350.04,-85.09 1358.15,-91.91 1360.63,-85.36"/>
</g>
<!-- Node31 -->
<g id="node31" class="node">
<title>Node31</title>
<g id="a_node31"><a xlink:title=" ">
<polygon fill="#e0e0e0" stroke="#999999" points="1496,-90.5 1390,-90.5 1390,-60.5 1496,-60.5 1496,-90.5"/>
<text text-anchor="start" x="1398" y="-78.5" font-family="Helvetica,sans-Serif" font-size="10.00">spdlog/sinks/basic</text>
<text text-anchor="middle" x="1443" y="-67.5" font-family="Helvetica,sans-Serif" font-size="10.00">_file_sink.h</text>
</a>
</g>
</g>
<!-- Node19&#45;&gt;Node31 -->
<g id="edge32" class="edge">
<title>Node19&#45;&gt;Node31</title>
<path fill="none" stroke="#63b8ff" d="M1552.87,-131.87C1534.34,-122.53 1504.23,-107.36 1480.21,-95.25"/>
<polygon fill="#63b8ff" stroke="#63b8ff" points="1481.52,-91.99 1471.01,-90.62 1478.37,-98.24 1481.52,-91.99"/>
</g>
<!-- Node32 -->
<g id="node32" class="node">
<title>Node32</title>
<g id="a_node32"><a xlink:title=" ">
<polygon fill="#e0e0e0" stroke="#999999" points="1625.5,-90.5 1514.5,-90.5 1514.5,-60.5 1625.5,-60.5 1625.5,-90.5"/>
<text text-anchor="start" x="1522.5" y="-78.5" font-family="Helvetica,sans-Serif" font-size="10.00">spdlog/sinks/stdout</text>
<text text-anchor="middle" x="1570" y="-67.5" font-family="Helvetica,sans-Serif" font-size="10.00">_color_sinks.h</text>
</a>
</g>
</g>
<!-- Node19&#45;&gt;Node32 -->
<g id="edge33" class="edge">
<title>Node19&#45;&gt;Node32</title>
<path fill="none" stroke="#63b8ff" d="M1570,-131.87C1570,-123.99 1570,-111.95 1570,-101.1"/>
<polygon fill="#63b8ff" stroke="#63b8ff" points="1573.5,-100.86 1570,-90.86 1566.5,-100.86 1573.5,-100.86"/>
</g>
<!-- Node33 -->
<g id="node33" class="node">
<title>Node33</title>
<g id="a_node33"><a xlink:title=" ">
<polygon fill="#e0e0e0" stroke="#999999" points="1736.5,-85 1643.5,-85 1643.5,-66 1736.5,-66 1736.5,-85"/>
<text text-anchor="middle" x="1690" y="-73" font-family="Helvetica,sans-Serif" font-size="10.00">spdlog/spdlog.h</text>
</a>
</g>
</g>
<!-- Node19&#45;&gt;Node33 -->
<g id="edge34" class="edge">
<title>Node19&#45;&gt;Node33</title>
<path fill="none" stroke="#63b8ff" d="M1586.18,-131.87C1606.31,-121.13 1640.91,-102.68 1664.59,-90.05"/>
<polygon fill="#63b8ff" stroke="#63b8ff" points="1666.51,-92.99 1673.69,-85.2 1663.22,-86.82 1666.51,-92.99"/>
</g>
</g>
</svg>
