<?xml version="1.0" encoding="UTF-8" standalone="no"?>
<!DOCTYPE svg PUBLIC "-//W3C//DTD SVG 1.1//EN"
 "http://www.w3.org/Graphics/SVG/1.1/DTD/svg11.dtd">
<!-- Generated by graphviz version 15.1.0 (20260618.0150)
 -->
<!-- Title: include/Geometry.hpp Pages: 1 -->
<svg width="3393pt" height="281pt"
 viewBox="0.00 0.00 3393.00 281.00" xmlns="http://www.w3.org/2000/svg" xmlns:xlink="http://www.w3.org/1999/xlink">
<g id="graph0" class="graph" transform="scale(1 1) rotate(0) translate(4 277.25)">
<title>include/Geometry.hpp</title>
<!-- Node1 -->
<g id="Node000001" class="node">
<title>Node1</title>
<g id="a_Node000001"><a xlink:title="Geometric scalars of the Manifold used to calculate the Regge action.">
<polygon fill="#999999" stroke="#666666" points="2405,-273.25 2282.5,-273.25 2282.5,-252.5 2405,-252.5 2405,-273.25"/>
<text xml:space="preserve" text-anchor="middle" x="2343.75" y="-259.75" font-family="Helvetica,sans-Serif" font-size="10.00">include/Geometry.hpp</text>
</a>
</g>
</g>
<!-- Node2 -->
<g id="Node000002" class="node">
<title>Node2</title>
<g id="a_Node000002"><a xlink:title=" ">
<polygon fill="#e0e0e0" stroke="#999999" points="3385,-90.25 3316.5,-90.25 3316.5,-69.5 3385,-69.5 3385,-90.25"/>
<text xml:space="preserve" text-anchor="middle" x="3350.75" y="-76.75" font-family="Helvetica,sans-Serif" font-size="10.00">type_traits</text>
</a>
</g>
</g>
<!-- Node1&#45;&gt;Node2 -->
<g id="edge1_Node000001_Node000002" class="edge">
<title>Node1&#45;&gt;Node2</title>
<g id="a_edge1_Node000001_Node000002"><a xlink:title=" ">
<path fill="none" stroke="#63b8ff" d="M2405.23,-253.62C2524.57,-237.38 2795.82,-199.39 3022.75,-159.75 3149.98,-137.53 3185.81,-145.57 3307.75,-103 3313.35,-101.04 3319.14,-98.48 3324.58,-95.8"/>
<polygon fill="#63b8ff" stroke="#63b8ff" points="3325.91,-99.05 3333.14,-91.31 3322.66,-92.85 3325.91,-99.05"/>
</a>
</g>
</g>
<!-- Node3 -->
<g id="Node000003" class="node">
<title>Node3</title>
<g id="a_Node000003"><a xlink:href="_foliated__triangulation_8hpp.html" target="_top" xlink:title="Create foliated spherical triangulations.">
<polygon fill="white" stroke="#666666" points="2176.5,-216.5 2033,-216.5 2033,-195.75 2176.5,-195.75 2176.5,-216.5"/>
<text xml:space="preserve" text-anchor="middle" x="2104.75" y="-203" font-family="Helvetica,sans-Serif" font-size="10.00">Foliated_triangulation.hpp</text>
</a>
</g>
</g>
<!-- Node1&#45;&gt;Node3 -->
<g id="edge2_Node000001_Node000003" class="edge">
<title>Node1&#45;&gt;Node3</title>
<g id="a_edge2_Node000001_Node000003"><a xlink:title=" ">
<path fill="none" stroke="#63b8ff" d="M2300.75,-252.02C2261.02,-242.92 2201.84,-229.37 2158.91,-219.53"/>
<polygon fill="#63b8ff" stroke="#63b8ff" points="2159.82,-216.15 2149.29,-217.33 2158.25,-222.97 2159.82,-216.15"/>
</a>
</g>
</g>
<!-- Node3&#45;&gt;Node2 -->
<g id="edge12_Node000003_Node000002" class="edge">
<title>Node3&#45;&gt;Node2</title>
<g id="a_edge12_Node000003_Node000002"><a xlink:title=" ">
<path fill="none" stroke="#63b8ff" d="M2176.61,-202.68C2402.06,-194.45 3093.08,-164.72 3307.75,-103 3313.65,-101.3 3319.69,-98.77 3325.3,-96.02"/>
<polygon fill="#63b8ff" stroke="#63b8ff" points="3326.92,-99.12 3334.1,-91.33 3323.63,-92.95 3326.92,-99.12"/>
</a>
</g>
</g>
<!-- Node4 -->
<g id="Node000004" class="node">
<title>Node4</title>
<g id="a_Node000004"><a xlink:title=" ">
<polygon fill="#e0e0e0" stroke="#999999" points="2404.88,-159.75 2314.62,-159.75 2314.62,-139 2404.88,-139 2404.88,-159.75"/>
<text xml:space="preserve" text-anchor="middle" x="2359.75" y="-146.25" font-family="Helvetica,sans-Serif" font-size="10.00">CGAL/Bbox_3.h</text>
</a>
</g>
</g>
<!-- Node3&#45;&gt;Node4 -->
<g id="edge3_Node000003_Node000004" class="edge">
<title>Node3&#45;&gt;Node4</title>
<g id="a_edge3_Node000003_Node000004"><a xlink:title=" ">
<path fill="none" stroke="#63b8ff" d="M2150.63,-195.27C2193.33,-186.11 2257.09,-172.42 2302.98,-162.56"/>
<polygon fill="#63b8ff" stroke="#63b8ff" points="2303.71,-165.99 2312.76,-160.47 2302.24,-159.14 2303.71,-165.99"/>
</a>
</g>
</g>
<!-- Node5 -->
<g id="Node000005" class="node">
<title>Node5</title>
<g id="a_Node000005"><a xlink:title=" ">
<polygon fill="#e0e0e0" stroke="#999999" points="2518.12,-159.75 2423.38,-159.75 2423.38,-139 2518.12,-139 2518.12,-159.75"/>
<text xml:space="preserve" text-anchor="middle" x="2470.75" y="-146.25" font-family="Helvetica,sans-Serif" font-size="10.00">CGAL/Random.h</text>
</a>
</g>
</g>
<!-- Node3&#45;&gt;Node5 -->
<g id="edge4_Node000003_Node000005" class="edge">
<title>Node3&#45;&gt;Node5</title>
<g id="a_edge4_Node000003_Node000005"><a xlink:title=" ">
<path fill="none" stroke="#63b8ff" d="M2174.14,-195.28C2234.23,-186.68 2323.8,-173.67 2411.88,-160.02"/>
<polygon fill="#63b8ff" stroke="#63b8ff" points="2412.33,-163.49 2421.68,-158.5 2411.26,-156.57 2412.33,-163.49"/>
</a>
</g>
</g>
<!-- Node6 -->
<g id="Node000006" class="node">
<title>Node6</title>
<g id="a_Node000006"><a xlink:title=" ">
<polygon fill="#e0e0e0" stroke="#999999" points="3298.38,-90.25 3235.12,-90.25 3235.12,-69.5 3298.38,-69.5 3298.38,-90.25"/>
<text xml:space="preserve" text-anchor="middle" x="3266.75" y="-76.75" font-family="Helvetica,sans-Serif" font-size="10.00">algorithm</text>
</a>
</g>
</g>
<!-- Node3&#45;&gt;Node6 -->
<g id="edge5_Node000003_Node000006" class="edge">
<title>Node3&#45;&gt;Node6</title>
<g id="a_edge5_Node000003_Node000006"><a xlink:title=" ">
<path fill="none" stroke="#63b8ff" d="M2148.94,-195.25C2181.74,-187.3 2227.27,-174.97 2265.75,-159.75 2284.37,-152.38 2286.39,-144.13 2305.75,-139 2500.52,-87.37 3014.73,-145.22 3211.75,-103 3220.03,-101.23 3228.66,-98.31 3236.57,-95.17"/>
<polygon fill="#63b8ff" stroke="#63b8ff" points="3237.93,-98.39 3245.76,-91.26 3235.19,-91.95 3237.93,-98.39"/>
</a>
</g>
</g>
<!-- Node7 -->
<g id="Node000007" class="node">
<title>Node7</title>
<g id="a_Node000007"><a xlink:title=" ">
<polygon fill="#e0e0e0" stroke="#999999" points="1015.12,-90.25 968.38,-90.25 968.38,-69.5 1015.12,-69.5 1015.12,-90.25"/>
<text xml:space="preserve" text-anchor="middle" x="991.75" y="-76.75" font-family="Helvetica,sans-Serif" font-size="10.00">cmath</text>
</a>
</g>
</g>
<!-- Node3&#45;&gt;Node7 -->
<g id="edge6_Node000003_Node000007" class="edge">
<title>Node3&#45;&gt;Node7</title>
<g id="a_edge6_Node000003_Node000007"><a xlink:title=" ">
<path fill="none" stroke="#63b8ff" d="M2050.57,-195.3C2014.02,-187.77 1965.09,-175.91 1923.75,-159.75 1905.83,-152.74 1904.29,-144.15 1885.75,-139 1702.09,-87.99 1211.38,-157.59 1028.75,-103 1023.69,-101.49 1018.61,-99.13 1013.91,-96.51"/>
<polygon fill="#63b8ff" stroke="#63b8ff" points="1015.98,-93.68 1005.64,-91.36 1012.29,-99.62 1015.98,-93.68"/>
</a>
</g>
</g>
<!-- Node8 -->
<g id="Node000008" class="node">
<title>Node8</title>
<g id="a_Node000008"><a xlink:title=" ">
<polygon fill="#e0e0e0" stroke="#999999" points="1807.12,-159.75 1742.38,-159.75 1742.38,-139 1807.12,-139 1807.12,-159.75"/>
<text xml:space="preserve" text-anchor="middle" x="1774.75" y="-146.25" font-family="Helvetica,sans-Serif" font-size="10.00">functional</text>
</a>
</g>
</g>
<!-- Node3&#45;&gt;Node8 -->
<g id="edge7_Node000003_Node000008" class="edge">
<title>Node3&#45;&gt;Node8</title>
<g id="a_edge7_Node000003_Node000008"><a xlink:title=" ">
<path fill="none" stroke="#63b8ff" d="M2032.95,-195.26C1976.97,-187.24 1897.01,-175.09 1818.45,-160.17"/>
<polygon fill="#63b8ff" stroke="#63b8ff" points="1819.35,-156.78 1808.87,-158.34 1818.03,-163.66 1819.35,-156.78"/>
</a>
</g>
</g>
<!-- Node9 -->
<g id="Node000009" class="node">
<title>Node9</title>
<g id="a_Node000009"><a xlink:title=" ">
<polygon fill="#e0e0e0" stroke="#999999" points="1876.75,-159.75 1824.75,-159.75 1824.75,-139 1876.75,-139 1876.75,-159.75"/>
<text xml:space="preserve" text-anchor="middle" x="1850.75" y="-146.25" font-family="Helvetica,sans-Serif" font-size="10.00">iterator</text>
</a>
</g>
</g>
<!-- Node3&#45;&gt;Node9 -->
<g id="edge8_Node000003_Node000009" class="edge">
<title>Node3&#45;&gt;Node9</title>
<g id="a_edge8_Node000003_Node000009"><a xlink:title=" ">
<path fill="none" stroke="#63b8ff" d="M2057.09,-195.32C2013.68,-186.32 1947.83,-172.49 1890.75,-159.75 1889.78,-159.53 1888.79,-159.31 1887.79,-159.09"/>
<polygon fill="#63b8ff" stroke="#63b8ff" points="1888.99,-155.77 1878.46,-156.95 1887.42,-162.59 1888.99,-155.77"/>
</a>
</g>
</g>
<!-- Node10 -->
<g id="Node000010" class="node">
<title>Node10</title>
<g id="a_Node000010"><a xlink:title=" ">
<polygon fill="#e0e0e0" stroke="#999999" points="1064.62,-20.75 1020.88,-20.75 1020.88,0 1064.62,0 1064.62,-20.75"/>
<text xml:space="preserve" text-anchor="middle" x="1042.75" y="-7.25" font-family="Helvetica,sans-Serif" font-size="10.00">limits</text>
</a>
</g>
</g>
<!-- Node3&#45;&gt;Node10 -->
<g id="edge9_Node000003_Node000010" class="edge">
<title>Node3&#45;&gt;Node10</title>
<g id="a_edge9_Node000003_Node000010"><a xlink:title=" ">
<path fill="none" stroke="#63b8ff" d="M2032.71,-204.74C1779.9,-202.64 944.14,-189.19 864.75,-103 850.82,-87.88 852.14,-72.98 864.75,-56.75 882.3,-34.16 962.66,-20.95 1009.18,-15.07"/>
<polygon fill="#63b8ff" stroke="#63b8ff" points="1009.49,-18.55 1018.99,-13.88 1008.65,-11.6 1009.49,-18.55"/>
</a>
</g>
</g>
<!-- Node11 -->
<g id="Node000011" class="node">
<title>Node11</title>
<g id="a_Node000011"><a xlink:title=" ">
<polygon fill="#e0e0e0" stroke="#999999" points="1990.38,-159.75 1933.12,-159.75 1933.12,-139 1990.38,-139 1990.38,-159.75"/>
<text xml:space="preserve" text-anchor="middle" x="1961.75" y="-146.25" font-family="Helvetica,sans-Serif" font-size="10.00">memory</text>
</a>
</g>
</g>
<!-- Node3&#45;&gt;Node11 -->
<g id="edge10_Node000003_Node000011" class="edge">
<title>Node3&#45;&gt;Node11</title>
<g id="a_edge10_Node000003_Node000011"><a xlink:title=" ">
<path fill="none" stroke="#63b8ff" d="M2079.18,-195.34C2056.51,-186.66 2023.15,-173.88 1997.77,-164.17"/>
<polygon fill="#63b8ff" stroke="#63b8ff" points="1999.1,-160.93 1988.51,-160.62 1996.6,-167.46 1999.1,-160.93"/>
</a>
</g>
</g>
<!-- Node12 -->
<g id="Node000012" class="node">
<title>Node12</title>
<g id="a_Node000012"><a xlink:title=" ">
<polygon fill="#e0e0e0" stroke="#999999" points="2064.62,-159.75 2008.88,-159.75 2008.88,-139 2064.62,-139 2064.62,-159.75"/>
<text xml:space="preserve" text-anchor="middle" x="2036.75" y="-146.25" font-family="Helvetica,sans-Serif" font-size="10.00">numeric</text>
</a>
</g>
</g>
<!-- Node3&#45;&gt;Node12 -->
<g id="edge11_Node000003_Node000012" class="edge">
<title>Node3&#45;&gt;Node12</title>
<g id="a_edge11_Node000003_Node000012"><a xlink:title=" ">
<path fill="none" stroke="#63b8ff" d="M2092.59,-195.34C2082.92,-187.55 2069.17,-176.47 2057.73,-167.26"/>
<polygon fill="#63b8ff" stroke="#63b8ff" points="2059.96,-164.57 2049.98,-161.03 2055.57,-170.03 2059.96,-164.57"/>
</a>
</g>
</g>
<!-- Node13 -->
<g id="Node000013" class="node">
<title>Node13</title>
<g id="a_Node000013"><a xlink:title=" ">
<polygon fill="#e0e0e0" stroke="#999999" points="2127,-159.75 2082.5,-159.75 2082.5,-139 2127,-139 2127,-159.75"/>
<text xml:space="preserve" text-anchor="middle" x="2104.75" y="-146.25" font-family="Helvetica,sans-Serif" font-size="10.00">utility</text>
</a>
</g>
</g>
<!-- Node3&#45;&gt;Node13 -->
<g id="edge13_Node000003_Node000013" class="edge">
<title>Node3&#45;&gt;Node13</title>
<g id="a_edge13_Node000003_Node000013"><a xlink:title=" ">
<path fill="none" stroke="#63b8ff" d="M2104.75,-195.34C2104.75,-188.72 2104.75,-179.72 2104.75,-171.52"/>
<polygon fill="#63b8ff" stroke="#63b8ff" points="2108.25,-171.59 2104.75,-161.59 2101.25,-171.59 2108.25,-171.59"/>
</a>
</g>
</g>
<!-- Node14 -->
<g id="Node000014" class="node">
<title>Node14</title>
<g id="a_Node000014"><a xlink:href="_random_8hpp.html" target="_top" xlink:title="Run&#45;owned random&#45;number generation and reproducible stream splitting.">
<polygon fill="white" stroke="#666666" points="3178.5,-90.25 3101,-90.25 3101,-69.5 3178.5,-69.5 3178.5,-90.25"/>
<text xml:space="preserve" text-anchor="middle" x="3139.75" y="-76.75" font-family="Helvetica,sans-Serif" font-size="10.00">Random.hpp</text>
</a>
</g>
</g>
<!-- Node3&#45;&gt;Node14 -->
<g id="edge14_Node000003_Node000014" class="edge">
<title>Node3&#45;&gt;Node14</title>
<g id="a_edge14_Node000003_Node000014"><a xlink:title=" ">
<path fill="none" stroke="#63b8ff" d="M2134.37,-195.32C2159.91,-186.64 2197.63,-173.29 2229.75,-159.75 2249.3,-151.51 2252.17,-144.18 2272.75,-139 2626.06,-50 2737.66,-188.87 3091.75,-103 3098.89,-101.27 3106.26,-98.46 3113.01,-95.41"/>
<polygon fill="#63b8ff" stroke="#63b8ff" points="3114.18,-98.73 3121.65,-91.21 3111.12,-92.44 3114.18,-98.73"/>
</a>
</g>
</g>
<!-- Node19 -->
<g id="Node000019" class="node">
<title>Node19</title>
<g id="a_Node000019"><a xlink:href="_triangulation__traits_8hpp.html" target="_top" xlink:title="Traits class for particular uses of CGAL.">
<polygon fill="white" stroke="#666666" points="653.12,-159.75 522.38,-159.75 522.38,-139 653.12,-139 653.12,-159.75"/>
<text xml:space="preserve" text-anchor="middle" x="587.75" y="-146.25" font-family="Helvetica,sans-Serif" font-size="10.00">Triangulation_traits.hpp</text>
</a>
</g>
</g>
<!-- Node3&#45;&gt;Node19 -->
<g id="edge20_Node000003_Node000019" class="edge">
<title>Node3&#45;&gt;Node19</title>
<g id="a_edge20_Node000003_Node000019"><a xlink:title=" ">
<path fill="none" stroke="#63b8ff" d="M2032.62,-202.62C1838.53,-195.88 1288.94,-176.68 831.75,-159.75 775.86,-157.68 712.78,-155.25 664.76,-153.39"/>
<polygon fill="#63b8ff" stroke="#63b8ff" points="665.15,-149.9 655.02,-153.01 664.88,-156.9 665.15,-149.9"/>
</a>
</g>
</g>
<!-- Node27 -->
<g id="Node000027" class="node">
<title>Node27</title>
<g id="a_Node000027"><a xlink:href="_utilities_8hpp.html" target="_top" xlink:title="Utility functions.">
<polygon fill="white" stroke="#666666" points="2220.38,-159.75 2145.12,-159.75 2145.12,-139 2220.38,-139 2220.38,-159.75"/>
<text xml:space="preserve" text-anchor="middle" x="2182.75" y="-146.25" font-family="Helvetica,sans-Serif" font-size="10.00">Utilities.hpp</text>
</a>
</g>
</g>
<!-- Node3&#45;&gt;Node27 -->
<g id="edge28_Node000003_Node000027" class="edge">
<title>Node3&#45;&gt;Node27</title>
<g id="a_edge28_Node000003_Node000027"><a xlink:title=" ">
<path fill="none" stroke="#63b8ff" d="M2118.69,-195.34C2130.12,-187.32 2146.52,-175.81 2159.86,-166.44"/>
<polygon fill="#63b8ff" stroke="#63b8ff" points="2161.51,-169.56 2167.69,-160.95 2157.49,-163.83 2161.51,-169.56"/>
</a>
</g>
</g>
<!-- Node14&#45;&gt;Node10 -->
<g id="edge17_Node000014_Node000010" class="edge">
<title>Node14&#45;&gt;Node10</title>
<g id="a_edge17_Node000014_Node000010"><a xlink:title=" ">
<path fill="none" stroke="#63b8ff" d="M3123.03,-69.1C3114.07,-64.41 3102.66,-59.27 3091.75,-56.75 2908.62,-14.53 1588.63,-25.21 1400.75,-20.75 1281.34,-17.92 1139.53,-14.06 1076.19,-12.31"/>
<polygon fill="#63b8ff" stroke="#63b8ff" points="1076.56,-8.81 1066.47,-12.04 1076.37,-15.81 1076.56,-8.81"/>
</a>
</g>
</g>
<!-- Node15 -->
<g id="Node000015" class="node">
<title>Node15</title>
<g id="a_Node000015"><a xlink:title=" ">
<polygon fill="#e0e0e0" stroke="#999999" points="2742.5,-20.75 2683,-20.75 2683,0 2742.5,0 2742.5,-20.75"/>
<text xml:space="preserve" text-anchor="middle" x="2712.75" y="-7.25" font-family="Helvetica,sans-Serif" font-size="10.00">concepts</text>
</a>
</g>
</g>
<!-- Node14&#45;&gt;Node15 -->
<g id="edge15_Node000014_Node000015" class="edge">
<title>Node14&#45;&gt;Node15</title>
<g id="a_edge15_Node000014_Node000015"><a xlink:title=" ">
<path fill="none" stroke="#63b8ff" d="M3122.03,-69.09C3113.18,-64.63 3102.17,-59.7 3091.75,-56.75 2972.39,-23 2824.97,-14.35 2754.32,-12.13"/>
<polygon fill="#63b8ff" stroke="#63b8ff" points="2754.46,-8.64 2744.37,-11.85 2754.26,-15.63 2754.46,-8.64"/>
</a>
</g>
</g>
<!-- Node16 -->
<g id="Node000016" class="node">
<title>Node16</title>
<g id="a_Node000016"><a xlink:title=" ">
<polygon fill="#e0e0e0" stroke="#999999" points="1459.25,-20.75 1410.25,-20.75 1410.25,0 1459.25,0 1459.25,-20.75"/>
<text xml:space="preserve" text-anchor="middle" x="1434.75" y="-7.25" font-family="Helvetica,sans-Serif" font-size="10.00">cstdint</text>
</a>
</g>
</g>
<!-- Node14&#45;&gt;Node16 -->
<g id="edge16_Node000014_Node000016" class="edge">
<title>Node14&#45;&gt;Node16</title>
<g id="a_edge16_Node000014_Node000016"><a xlink:title=" ">
<path fill="none" stroke="#63b8ff" d="M3123.02,-69.13C3114.06,-64.44 3102.65,-59.3 3091.75,-56.75 2929.06,-18.72 1698.07,-12.35 1470.78,-11.49"/>
<polygon fill="#63b8ff" stroke="#63b8ff" points="1471.08,-7.99 1461.06,-11.46 1471.05,-14.99 1471.08,-7.99"/>
</a>
</g>
</g>
<!-- Node17 -->
<g id="Node000017" class="node">
<title>Node17</title>
<g id="a_Node000017"><a xlink:title=" ">
<polygon fill="#e0e0e0" stroke="#999999" points="3233.5,-20.75 3180,-20.75 3180,0 3233.5,0 3233.5,-20.75"/>
<text xml:space="preserve" text-anchor="middle" x="3206.75" y="-7.25" font-family="Helvetica,sans-Serif" font-size="10.00">random</text>
</a>
</g>
</g>
<!-- Node14&#45;&gt;Node17 -->
<g id="edge18_Node000014_Node000017" class="edge">
<title>Node14&#45;&gt;Node17</title>
<g id="a_edge18_Node000014_Node000017"><a xlink:title=" ">
<path fill="none" stroke="#63b8ff" d="M3149.35,-69.2C3159.7,-58.78 3176.4,-41.96 3189.12,-29.14"/>
<polygon fill="#63b8ff" stroke="#63b8ff" points="3191.54,-31.67 3196.1,-22.1 3186.57,-26.73 3191.54,-31.67"/>
</a>
</g>
</g>
<!-- Node18 -->
<g id="Node000018" class="node">
<title>Node18</title>
<g id="a_Node000018"><a xlink:title=" ">
<polygon fill="#e0e0e0" stroke="#999999" points="3162.25,-20.75 3065.25,-20.75 3065.25,0 3162.25,0 3162.25,-20.75"/>
<text xml:space="preserve" text-anchor="middle" x="3113.75" y="-7.25" font-family="Helvetica,sans-Serif" font-size="10.00">pcg_random.hpp</text>
</a>
</g>
</g>
<!-- Node14&#45;&gt;Node18 -->
<g id="edge19_Node000014_Node000018" class="edge">
<title>Node14&#45;&gt;Node18</title>
<g id="a_edge19_Node000014_Node000018"><a xlink:title=" ">
<path fill="none" stroke="#63b8ff" d="M3136.02,-69.2C3132.24,-59.38 3126.27,-43.88 3121.46,-31.39"/>
<polygon fill="#63b8ff" stroke="#63b8ff" points="3124.87,-30.51 3118.01,-22.44 3118.34,-33.03 3124.87,-30.51"/>
</a>
</g>
</g>
<!-- Node20 -->
<g id="Node000020" class="node">
<title>Node20</title>
<g id="a_Node000020"><a xlink:title=" ">
<polygon fill="#e0e0e0" stroke="#999999" points="505.5,-90.25 326,-90.25 326,-69.5 505.5,-69.5 505.5,-90.25"/>
<text xml:space="preserve" text-anchor="middle" x="415.75" y="-76.75" font-family="Helvetica,sans-Serif" font-size="10.00">CGAL/Delaunay_triangulation_3.h</text>
</a>
</g>
</g>
<!-- Node19&#45;&gt;Node20 -->
<g id="edge21_Node000019_Node000020" class="edge">
<title>Node19&#45;&gt;Node20</title>
<g id="a_edge21_Node000019_Node000020"><a xlink:title=" ">
<path fill="none" stroke="#63b8ff" d="M562.74,-138.56C533.44,-127.06 484.69,-107.93 451.43,-94.88"/>
<polygon fill="#63b8ff" stroke="#63b8ff" points="452.79,-91.65 442.2,-91.25 450.23,-98.17 452.79,-91.65"/>
</a>
</g>
</g>
<!-- Node21 -->
<g id="Node000021" class="node">
<title>Node21</title>
<g id="a_Node000021"><a xlink:title=" ">
<polygon fill="#e0e0e0" stroke="#999999" points="652,-103 523.5,-103 523.5,-56.75 652,-56.75 652,-103"/>
<text xml:space="preserve" text-anchor="start" x="531.5" y="-89.5" font-family="Helvetica,sans-Serif" font-size="10.00">CGAL/Exact_predicates</text>
<text xml:space="preserve" text-anchor="start" x="531.5" y="-76.75" font-family="Helvetica,sans-Serif" font-size="10.00">_inexact_constructions</text>
<text xml:space="preserve" text-anchor="middle" x="587.75" y="-64" font-family="Helvetica,sans-Serif" font-size="10.00">_kernel.h</text>
</a>
</g>
</g>
<!-- Node19&#45;&gt;Node21 -->
<g id="edge22_Node000019_Node000021" class="edge">
<title>Node19&#45;&gt;Node21</title>
<g id="a_edge22_Node000019_Node000021"><a xlink:title=" ">
<path fill="none" stroke="#63b8ff" d="M587.75,-138.7C587.75,-132.32 587.75,-123.53 587.75,-114.73"/>
<polygon fill="#63b8ff" stroke="#63b8ff" points="591.25,-114.87 587.75,-104.87 584.25,-114.87 591.25,-114.87"/>
</a>
</g>
</g>
<!-- Node22 -->
<g id="Node000022" class="node">
<title>Node22</title>
<g id="a_Node000022"><a xlink:title=" ">
<polygon fill="#e0e0e0" stroke="#999999" points="817.75,-90.25 669.75,-90.25 669.75,-69.5 817.75,-69.5 817.75,-90.25"/>
<text xml:space="preserve" text-anchor="middle" x="743.75" y="-76.75" font-family="Helvetica,sans-Serif" font-size="10.00">CGAL/point_generators_3.h</text>
</a>
</g>
</g>
<!-- Node19&#45;&gt;Node22 -->
<g id="edge23_Node000019_Node000022" class="edge">
<title>Node19&#45;&gt;Node22</title>
<g id="a_edge23_Node000019_Node000022"><a xlink:title=" ">
<path fill="none" stroke="#63b8ff" d="M610.43,-138.56C636.78,-127.16 680.46,-108.26 710.6,-95.22"/>
<polygon fill="#63b8ff" stroke="#63b8ff" points="711.86,-98.49 719.65,-91.3 709.08,-92.06 711.86,-98.49"/>
</a>
</g>
</g>
<!-- Node23 -->
<g id="Node000023" class="node">
<title>Node23</title>
<g id="a_Node000023"><a xlink:title=" ">
<polygon fill="#e0e0e0" stroke="#999999" points="137.5,-96.62 0,-96.62 0,-63.12 137.5,-63.12 137.5,-96.62"/>
<text xml:space="preserve" text-anchor="start" x="8" y="-83.12" font-family="Helvetica,sans-Serif" font-size="10.00">CGAL/Triangulation</text>
<text xml:space="preserve" text-anchor="middle" x="68.75" y="-70.38" font-family="Helvetica,sans-Serif" font-size="10.00">_cell_base_with_info_3.h</text>
</a>
</g>
</g>
<!-- Node19&#45;&gt;Node23 -->
<g id="edge24_Node000019_Node000023" class="edge">
<title>Node19&#45;&gt;Node23</title>
<g id="a_edge24_Node000019_Node000023"><a xlink:title=" ">
<path fill="none" stroke="#63b8ff" d="M522.23,-145.2C435.64,-140.19 278.65,-128.29 146.75,-103 141.87,-102.07 136.86,-100.97 131.84,-99.77"/>
<polygon fill="#63b8ff" stroke="#63b8ff" points="132.92,-96.43 122.36,-97.38 131.21,-103.22 132.92,-96.43"/>
</a>
</g>
</g>
<!-- Node24 -->
<g id="Node000024" class="node">
<title>Node24</title>
<g id="a_Node000024"><a xlink:title=" ">
<polygon fill="#e0e0e0" stroke="#999999" points="307.62,-96.62 155.88,-96.62 155.88,-63.12 307.62,-63.12 307.62,-96.62"/>
<text xml:space="preserve" text-anchor="start" x="163.88" y="-83.12" font-family="Helvetica,sans-Serif" font-size="10.00">CGAL/Triangulation</text>
<text xml:space="preserve" text-anchor="middle" x="231.75" y="-70.38" font-family="Helvetica,sans-Serif" font-size="10.00">_vertex_base_with_info_3.h</text>
</a>
</g>
</g>
<!-- Node19&#45;&gt;Node24 -->
<g id="edge25_Node000019_Node000024" class="edge">
<title>Node19&#45;&gt;Node24</title>
<g id="a_edge25_Node000019_Node000024"><a xlink:title=" ">
<path fill="none" stroke="#63b8ff" d="M522,-139.04C466.93,-130.82 386.38,-117.86 316.75,-103 311.92,-101.97 306.96,-100.85 301.96,-99.67"/>
<polygon fill="#63b8ff" stroke="#63b8ff" points="303.05,-96.33 292.51,-97.38 301.4,-103.13 303.05,-96.33"/>
</a>
</g>
</g>
<!-- Node25 -->
<g id="Node000025" class="node">
<title>Node25</title>
<g id="a_Node000025"><a xlink:href="_settings_8hpp.html" target="_top" xlink:title="Global integer and precision settings.">
<polygon fill="#fff0f0" stroke="red" points="950.12,-90.25 873.38,-90.25 873.38,-69.5 950.12,-69.5 950.12,-90.25"/>
<text xml:space="preserve" text-anchor="middle" x="911.75" y="-76.75" font-family="Helvetica,sans-Serif" font-size="10.00">Settings.hpp</text>
</a>
</g>
</g>
<!-- Node19&#45;&gt;Node25 -->
<g id="edge26_Node000019_Node000025" class="edge">
<title>Node19&#45;&gt;Node25</title>
<g id="a_edge26_Node000019_Node000025"><a xlink:title=" ">
<path fill="none" stroke="#63b8ff" d="M645.44,-138.54C693.99,-130 765.15,-116.85 826.75,-103 839.28,-100.18 852.76,-96.83 865.22,-93.59"/>
<polygon fill="#63b8ff" stroke="#63b8ff" points="866.07,-96.98 874.85,-91.05 864.29,-90.21 866.07,-96.98"/>
</a>
</g>
</g>
<!-- Node25&#45;&gt;Node16 -->
<g id="edge27_Node000025_Node000016" class="edge">
<title>Node25&#45;&gt;Node16</title>
<g id="a_edge27_Node000025_Node000016"><a xlink:title=" ">
<path fill="none" stroke="#63b8ff" d="M929,-69.21C937.91,-64.66 949.12,-59.62 959.75,-56.75 1118.94,-13.79 1317.72,-10.2 1398.3,-10.73"/>
<polygon fill="#63b8ff" stroke="#63b8ff" points="1398.21,-14.23 1408.24,-10.83 1398.28,-7.23 1398.21,-14.23"/>
</a>
</g>
</g>
<!-- Node27&#45;&gt;Node2 -->
<g id="edge51_Node000027_Node000002" class="edge">
<title>Node27&#45;&gt;Node2</title>
<g id="a_edge51_Node000027_Node000002"><a xlink:title=" ">
<path fill="none" stroke="#63b8ff" d="M2220.68,-145.09C2244.98,-143.08 2277.2,-140.6 2305.75,-139 2528.21,-126.53 3092.18,-159.32 3307.75,-103 3313.94,-101.38 3320.26,-98.76 3326.08,-95.89"/>
<polygon fill="#63b8ff" stroke="#63b8ff" points="3327.42,-99.14 3334.55,-91.31 3324.09,-92.98 3327.42,-99.14"/>
</a>
</g>
</g>
<!-- Node27&#45;&gt;Node6 -->
<g id="edge30_Node000027_Node000006" class="edge">
<title>Node27&#45;&gt;Node6</title>
<g id="a_edge30_Node000027_Node000006"><a xlink:title=" ">
<path fill="none" stroke="#63b8ff" d="M2220.8,-143.85C2236.82,-142.09 2255.67,-140.21 2272.75,-139 2483.04,-124.07 3016.13,-153.75 3220.75,-103 3227.47,-101.33 3234.38,-98.62 3240.73,-95.66"/>
<polygon fill="#63b8ff" stroke="#63b8ff" points="3242.07,-98.9 3249.41,-91.26 3238.91,-92.66 3242.07,-98.9"/>
</a>
</g>
</g>
<!-- Node27&#45;&gt;Node7 -->
<g id="edge33_Node000027_Node000007" class="edge">
<title>Node27&#45;&gt;Node7</title>
<g id="a_edge33_Node000027_Node000007"><a xlink:title=" ">
<path fill="none" stroke="#63b8ff" d="M2144.87,-140.26C2141.79,-139.77 2138.73,-139.34 2135.75,-139 1891.24,-110.83 1264.9,-172.37 1028.75,-103 1023.69,-101.51 1018.6,-99.16 1013.9,-96.54"/>
<polygon fill="#63b8ff" stroke="#63b8ff" points="1015.97,-93.71 1005.63,-91.4 1012.27,-99.66 1015.97,-93.71"/>
</a>
</g>
</g>
<!-- Node27&#45;&gt;Node10 -->
<g id="edge40_Node000027_Node000010" class="edge">
<title>Node27&#45;&gt;Node10</title>
<g id="a_edge40_Node000027_Node000010"><a xlink:title=" ">
<path fill="none" stroke="#63b8ff" d="M2144.87,-140.27C2141.79,-139.78 2138.73,-139.34 2135.75,-139 2076.45,-132.14 1107.41,-141.46 1061.75,-103 1041.59,-86.02 1039.35,-53.76 1040.42,-32.41"/>
<polygon fill="#63b8ff" stroke="#63b8ff" points="1043.9,-32.79 1041.22,-22.54 1036.92,-32.22 1043.9,-32.79"/>
</a>
</g>
</g>
<!-- Node27&#45;&gt;Node14 -->
<g id="edge59_Node000027_Node000014" class="edge">
<title>Node27&#45;&gt;Node14</title>
<g id="a_edge59_Node000027_Node000014"><a xlink:title=" ">
<path fill="none" stroke="#63b8ff" d="M2220.72,-140.91C2225.43,-140.17 2230.19,-139.5 2234.75,-139 2424.21,-118.04 2906.46,-147.74 3091.75,-103 3098.89,-101.28 3106.26,-98.47 3113.02,-95.42"/>
<polygon fill="#63b8ff" stroke="#63b8ff" points="3114.19,-98.74 3121.65,-91.22 3111.12,-92.45 3114.19,-98.74"/>
</a>
</g>
</g>
<!-- Node27&#45;&gt;Node15 -->
<g id="edge34_Node000027_Node000015" class="edge">
<title>Node27&#45;&gt;Node15</title>
<g id="a_edge34_Node000027_Node000015"><a xlink:title=" ">
<path fill="none" stroke="#63b8ff" d="M2220.6,-141.47C2276.33,-131.09 2375.43,-111.77 2389.75,-103 2412.44,-89.11 2404.67,-69.98 2427.75,-56.75 2468.53,-33.37 2602.65,-19.89 2671.37,-14.35"/>
<polygon fill="#63b8ff" stroke="#63b8ff" points="2671.4,-17.86 2681.1,-13.59 2670.85,-10.88 2671.4,-17.86"/>
</a>
</g>
</g>
<!-- Node27&#45;&gt;Node16 -->
<g id="edge35_Node000027_Node000016" class="edge">
<title>Node27&#45;&gt;Node16</title>
<g id="a_edge35_Node000027_Node000016"><a xlink:title=" ">
<path fill="none" stroke="#63b8ff" d="M2144.86,-140.33C2141.79,-139.83 2138.72,-139.37 2135.75,-139 2060.46,-129.55 1511.32,-152.44 1453.75,-103 1433.75,-85.83 1431.47,-53.62 1432.48,-32.33"/>
<polygon fill="#63b8ff" stroke="#63b8ff" points="1435.96,-32.74 1433.26,-22.5 1428.98,-32.19 1435.96,-32.74"/>
</a>
</g>
</g>
<!-- Node27&#45;&gt;Node17 -->
<g id="edge45_Node000027_Node000017" class="edge">
<title>Node27&#45;&gt;Node17</title>
<g id="a_edge45_Node000027_Node000017"><a xlink:title=" ">
<path fill="none" stroke="#63b8ff" d="M2220.8,-143.86C2236.82,-142.11 2255.67,-140.22 2272.75,-139 2323.49,-135.36 3148.93,-135.88 3187.75,-103 3207.86,-85.96 3210.11,-53.72 3209.06,-32.39"/>
<polygon fill="#63b8ff" stroke="#63b8ff" points="3212.56,-32.21 3208.27,-22.52 3205.58,-32.77 3212.56,-32.21"/>
</a>
</g>
</g>
<!-- Node27&#45;&gt;Node25 -->
<g id="edge60_Node000027_Node000025" class="edge">
<title>Node27&#45;&gt;Node25</title>
<g id="a_edge60_Node000027_Node000025"><a xlink:title=" ">
<path fill="none" stroke="#63b8ff" d="M2144.87,-140.26C2141.79,-139.77 2138.73,-139.34 2135.75,-139 1875.98,-109.33 1214.25,-162.93 959.75,-103 952.6,-101.32 945.23,-98.52 938.47,-95.48"/>
<polygon fill="#63b8ff" stroke="#63b8ff" points="940.36,-92.5 929.84,-91.27 937.3,-98.8 940.36,-92.5"/>
</a>
</g>
</g>
<!-- Node28 -->
<g id="Node000028" class="node">
<title>Node28</title>
<g id="a_Node000028"><a xlink:title=" ">
<polygon fill="#e0e0e0" stroke="#999999" points="2526.88,-90.25 2436.62,-90.25 2436.62,-69.5 2526.88,-69.5 2526.88,-90.25"/>
<text xml:space="preserve" text-anchor="middle" x="2481.75" y="-76.75" font-family="Helvetica,sans-Serif" font-size="10.00">CGAL/version.h</text>
</a>
</g>
</g>
<!-- Node27&#45;&gt;Node28 -->
<g id="edge29_Node000027_Node000028" class="edge">
<title>Node27&#45;&gt;Node28</title>
<g id="a_edge29_Node000027_Node000028"><a xlink:title=" ">
<path fill="none" stroke="#63b8ff" d="M2220.7,-141.38C2285.88,-129.33 2413.06,-105.71 2422.75,-103 2431.01,-100.69 2439.74,-97.72 2447.88,-94.71"/>
<polygon fill="#63b8ff" stroke="#63b8ff" points="2449.01,-98.03 2457.1,-91.18 2446.51,-91.49 2449.01,-98.03"/>
</a>
</g>
</g>
<!-- Node29 -->
<g id="Node000029" class="node">
<title>Node29</title>
<g id="a_Node000029"><a xlink:title=" ">
<polygon fill="#e0e0e0" stroke="#999999" points="2586.5,-90.25 2545,-90.25 2545,-69.5 2586.5,-69.5 2586.5,-90.25"/>
<text xml:space="preserve" text-anchor="middle" x="2565.75" y="-76.75" font-family="Helvetica,sans-Serif" font-size="10.00">array</text>
</a>
</g>
</g>
<!-- Node27&#45;&gt;Node29 -->
<g id="edge31_Node000027_Node000029" class="edge">
<title>Node27&#45;&gt;Node29</title>
<g id="a_edge31_Node000027_Node000029"><a xlink:title=" ">
<path fill="none" stroke="#63b8ff" d="M2220.76,-141.25C2225.47,-140.45 2230.21,-139.68 2234.75,-139 2367.99,-119.04 2410.49,-152.63 2535.75,-103 2539.36,-101.57 2542.93,-99.59 2546.27,-97.41"/>
<polygon fill="#63b8ff" stroke="#63b8ff" points="2548.32,-100.24 2554.25,-91.46 2544.14,-94.63 2548.32,-100.24"/>
</a>
</g>
</g>
<!-- Node30 -->
<g id="Node000030" class="node">
<title>Node30</title>
<g id="a_Node000030"><a xlink:title=" ">
<polygon fill="#e0e0e0" stroke="#999999" points="2664.88,-90.25 2604.62,-90.25 2604.62,-69.5 2664.88,-69.5 2664.88,-90.25"/>
<text xml:space="preserve" text-anchor="middle" x="2634.75" y="-76.75" font-family="Helvetica,sans-Serif" font-size="10.00">charconv</text>
</a>
</g>
</g>
<!-- Node27&#45;&gt;Node30 -->
<g id="edge32_Node000027_Node000030" class="edge">
<title>Node27&#45;&gt;Node30</title>
<g id="a_edge32_Node000027_Node000030"><a xlink:title=" ">
<path fill="none" stroke="#63b8ff" d="M2220.75,-141.17C2225.46,-140.38 2230.21,-139.63 2234.75,-139 2394.44,-116.68 2442.08,-151.84 2595.75,-103 2601.04,-101.32 2606.4,-98.86 2611.39,-96.19"/>
<polygon fill="#63b8ff" stroke="#63b8ff" points="2612.8,-99.42 2619.66,-91.34 2609.26,-93.38 2612.8,-99.42"/>
</a>
</g>
</g>
<!-- Node31 -->
<g id="Node000031" class="node">
<title>Node31</title>
<g id="a_Node000031"><a xlink:title=" ">
<polygon fill="#e0e0e0" stroke="#999999" points="2750.25,-90.25 2683.25,-90.25 2683.25,-69.5 2750.25,-69.5 2750.25,-90.25"/>
<text xml:space="preserve" text-anchor="middle" x="2716.75" y="-76.75" font-family="Helvetica,sans-Serif" font-size="10.00">filesystem</text>
</a>
</g>
</g>
<!-- Node27&#45;&gt;Node31 -->
<g id="edge36_Node000027_Node000031" class="edge">
<title>Node27&#45;&gt;Node31</title>
<g id="a_edge36_Node000027_Node000031"><a xlink:title=" ">
<path fill="none" stroke="#63b8ff" d="M2220.74,-141.09C2225.45,-140.32 2230.2,-139.6 2234.75,-139 2428.86,-113.6 2485.53,-156.82 2673.75,-103 2679.65,-101.31 2685.69,-98.78 2691.31,-96.03"/>
<polygon fill="#63b8ff" stroke="#63b8ff" points="2692.93,-99.13 2700.1,-91.34 2689.63,-92.96 2692.93,-99.13"/>
</a>
</g>
</g>
<!-- Node32 -->
<g id="Node000032" class="node">
<title>Node32</title>
<g id="a_Node000032"><a xlink:title=" ">
<polygon fill="#e0e0e0" stroke="#999999" points="2822.88,-90.25 2768.62,-90.25 2768.62,-69.5 2822.88,-69.5 2822.88,-90.25"/>
<text xml:space="preserve" text-anchor="middle" x="2795.75" y="-76.75" font-family="Helvetica,sans-Serif" font-size="10.00">fstream</text>
</a>
</g>
</g>
<!-- Node27&#45;&gt;Node32 -->
<g id="edge37_Node000027_Node000032" class="edge">
<title>Node27&#45;&gt;Node32</title>
<g id="a_edge37_Node000027_Node000032"><a xlink:title=" ">
<path fill="none" stroke="#63b8ff" d="M2220.73,-141.03C2225.44,-140.27 2230.2,-139.56 2234.75,-139 2466.85,-110.21 2537,-174.3 2759.75,-103 2764.47,-101.49 2769.2,-99.24 2773.61,-96.74"/>
<polygon fill="#63b8ff" stroke="#63b8ff" points="2775.3,-99.81 2781.88,-91.51 2771.56,-93.9 2775.3,-99.81"/>
</a>
</g>
</g>
<!-- Node33 -->
<g id="Node000033" class="node">
<title>Node33</title>
<g id="a_Node000033"><a xlink:title=" ">
<polygon fill="#e0e0e0" stroke="#999999" points="2888.5,-90.25 2841,-90.25 2841,-69.5 2888.5,-69.5 2888.5,-90.25"/>
<text xml:space="preserve" text-anchor="middle" x="2864.75" y="-76.75" font-family="Helvetica,sans-Serif" font-size="10.00">gsl/gsl</text>
</a>
</g>
</g>
<!-- Node27&#45;&gt;Node33 -->
<g id="edge38_Node000027_Node000033" class="edge">
<title>Node27&#45;&gt;Node33</title>
<g id="a_edge38_Node000027_Node000033"><a xlink:title=" ">
<path fill="none" stroke="#63b8ff" d="M2220.73,-140.99C2225.44,-140.24 2230.2,-139.55 2234.75,-139 2366.71,-123.18 2705.82,-145.49 2831.75,-103 2835.92,-101.59 2840.05,-99.52 2843.92,-97.19"/>
<polygon fill="#63b8ff" stroke="#63b8ff" points="2845.82,-100.13 2852.1,-91.59 2841.87,-94.35 2845.82,-100.13"/>
</a>
</g>
</g>
<!-- Node34 -->
<g id="Node000034" class="node">
<title>Node34</title>
<g id="a_Node000034"><a xlink:title=" ">
<polygon fill="#e0e0e0" stroke="#999999" points="2962.62,-90.25 2906.88,-90.25 2906.88,-69.5 2962.62,-69.5 2962.62,-90.25"/>
<text xml:space="preserve" text-anchor="middle" x="2934.75" y="-76.75" font-family="Helvetica,sans-Serif" font-size="10.00">iomanip</text>
</a>
</g>
</g>
<!-- Node27&#45;&gt;Node34 -->
<g id="edge39_Node000027_Node000034" class="edge">
<title>Node27&#45;&gt;Node34</title>
<g id="a_edge39_Node000027_Node000034"><a xlink:title=" ">
<path fill="none" stroke="#63b8ff" d="M2220.72,-140.97C2225.43,-140.21 2230.19,-139.53 2234.75,-139 2381.3,-121.88 2756.64,-146.12 2897.75,-103 2902.8,-101.46 2907.87,-99.09 2912.58,-96.46"/>
<polygon fill="#63b8ff" stroke="#63b8ff" points="2914.2,-99.57 2920.84,-91.32 2910.5,-93.63 2914.2,-99.57"/>
</a>
</g>
</g>
<!-- Node35 -->
<g id="Node000035" class="node">
<title>Node35</title>
<g id="a_Node000035"><a xlink:title=" ">
<polygon fill="#e0e0e0" stroke="#999999" points="3026.38,-90.25 2981.12,-90.25 2981.12,-69.5 3026.38,-69.5 3026.38,-90.25"/>
<text xml:space="preserve" text-anchor="middle" x="3003.75" y="-76.75" font-family="Helvetica,sans-Serif" font-size="10.00">locale</text>
</a>
</g>
</g>
<!-- Node27&#45;&gt;Node35 -->
<g id="edge41_Node000027_Node000035" class="edge">
<title>Node27&#45;&gt;Node35</title>
<g id="a_edge41_Node000027_Node000035"><a xlink:title=" ">
<path fill="none" stroke="#63b8ff" d="M2220.72,-140.94C2225.43,-140.19 2230.19,-139.52 2234.75,-139 2397.67,-120.41 2816.46,-155.65 2971.75,-103 2975.9,-101.59 2979.99,-99.48 2983.8,-97.11"/>
<polygon fill="#63b8ff" stroke="#63b8ff" points="2985.69,-100.07 2991.81,-91.42 2981.63,-94.36 2985.69,-100.07"/>
</a>
</g>
</g>
<!-- Node36 -->
<g id="Node000036" class="node">
<title>Node36</title>
<g id="a_Node000036"><a xlink:title=" ">
<polygon fill="#e0e0e0" stroke="#999999" points="3082.62,-90.25 3044.88,-90.25 3044.88,-69.5 3082.62,-69.5 3082.62,-90.25"/>
<text xml:space="preserve" text-anchor="middle" x="3063.75" y="-76.75" font-family="Helvetica,sans-Serif" font-size="10.00">map</text>
</a>
</g>
</g>
<!-- Node27&#45;&gt;Node36 -->
<g id="edge42_Node000027_Node000036" class="edge">
<title>Node27&#45;&gt;Node36</title>
<g id="a_edge42_Node000027_Node000036"><a xlink:title=" ">
<path fill="none" stroke="#63b8ff" d="M2220.72,-140.93C2225.43,-140.18 2230.19,-139.51 2234.75,-139 2411.82,-119.15 2868.79,-165.24 3035.75,-103 3039.35,-101.66 3042.85,-99.67 3046.08,-97.42"/>
<polygon fill="#63b8ff" stroke="#63b8ff" points="3048.1,-100.29 3053.66,-91.27 3043.69,-94.86 3048.1,-100.29"/>
</a>
</g>
</g>
<!-- Node37 -->
<g id="Node000037" class="node">
<title>Node37</title>
<g id="a_Node000037"><a xlink:title=" ">
<polygon fill="#e0e0e0" stroke="#999999" points="1118.5,-90.25 1071,-90.25 1071,-69.5 1118.5,-69.5 1118.5,-90.25"/>
<text xml:space="preserve" text-anchor="middle" x="1094.75" y="-76.75" font-family="Helvetica,sans-Serif" font-size="10.00">mutex</text>
</a>
</g>
</g>
<!-- Node27&#45;&gt;Node37 -->
<g id="edge43_Node000027_Node000037" class="edge">
<title>Node27&#45;&gt;Node37</title>
<g id="a_edge43_Node000027_Node000037"><a xlink:title=" ">
<path fill="none" stroke="#63b8ff" d="M2144.87,-140.27C2141.79,-139.78 2138.73,-139.35 2135.75,-139 1913.12,-112.99 1340.99,-172.05 1127.75,-103 1123.37,-101.58 1119.03,-99.4 1115.01,-96.95"/>
<polygon fill="#63b8ff" stroke="#63b8ff" points="1117.29,-94.27 1107.07,-91.45 1113.3,-100.02 1117.29,-94.27"/>
</a>
</g>
</g>
<!-- Node38 -->
<g id="Node000038" class="node">
<title>Node38</title>
<g id="a_Node000038"><a xlink:title=" ">
<polygon fill="#e0e0e0" stroke="#999999" points="1192.62,-90.25 1136.88,-90.25 1136.88,-69.5 1192.62,-69.5 1192.62,-90.25"/>
<text xml:space="preserve" text-anchor="middle" x="1164.75" y="-76.75" font-family="Helvetica,sans-Serif" font-size="10.00">optional</text>
</a>
</g>
</g>
<!-- Node27&#45;&gt;Node38 -->
<g id="edge44_Node000027_Node000038" class="edge">
<title>Node27&#45;&gt;Node38</title>
<g id="a_edge44_Node000027_Node000038"><a xlink:title=" ">
<path fill="none" stroke="#63b8ff" d="M2144.87,-140.28C2141.79,-139.79 2138.72,-139.35 2135.75,-139 1929.48,-114.61 1400.86,-162.14 1201.75,-103 1196.69,-101.5 1191.61,-99.14 1186.9,-96.52"/>
<polygon fill="#63b8ff" stroke="#63b8ff" points="1188.98,-93.69 1178.64,-91.38 1185.28,-99.63 1188.98,-93.69"/>
</a>
</g>
</g>
<!-- Node39 -->
<g id="Node000039" class="node">
<title>Node39</title>
<g id="a_Node000039"><a xlink:title=" ">
<polygon fill="#e0e0e0" stroke="#999999" points="1250.38,-90.25 1211.12,-90.25 1211.12,-69.5 1250.38,-69.5 1250.38,-90.25"/>
<text xml:space="preserve" text-anchor="middle" x="1230.75" y="-76.75" font-family="Helvetica,sans-Serif" font-size="10.00">span</text>
</a>
</g>
</g>
<!-- Node27&#45;&gt;Node39 -->
<g id="edge46_Node000027_Node000039" class="edge">
<title>Node27&#45;&gt;Node39</title>
<g id="a_edge46_Node000027_Node000039"><a xlink:title=" ">
<path fill="none" stroke="#63b8ff" d="M2144.87,-140.29C2141.79,-139.8 2138.72,-139.36 2135.75,-139 1942.3,-115.87 1443.01,-169.15 1259.75,-103 1256.12,-101.69 1252.57,-99.75 1249.27,-97.55"/>
<polygon fill="#63b8ff" stroke="#63b8ff" points="1251.53,-94.87 1241.49,-91.49 1247.23,-100.39 1251.53,-94.87"/>
</a>
</g>
</g>
<!-- Node40 -->
<g id="Node000040" class="node">
<title>Node40</title>
<g id="a_Node000040"><a xlink:title=" ">
<polygon fill="#e0e0e0" stroke="#999999" points="1324.62,-90.25 1268.88,-90.25 1268.88,-69.5 1324.62,-69.5 1324.62,-90.25"/>
<text xml:space="preserve" text-anchor="middle" x="1296.75" y="-76.75" font-family="Helvetica,sans-Serif" font-size="10.00">sstream</text>
</a>
</g>
</g>
<!-- Node27&#45;&gt;Node40 -->
<g id="edge47_Node000027_Node000040" class="edge">
<title>Node27&#45;&gt;Node40</title>
<g id="a_edge47_Node000027_Node000040"><a xlink:title=" ">
<path fill="none" stroke="#63b8ff" d="M2144.86,-140.3C2141.79,-139.81 2138.72,-139.36 2135.75,-139 1958.65,-117.49 1504.61,-154.34 1333.75,-103 1328.69,-101.48 1323.62,-99.12 1318.91,-96.5"/>
<polygon fill="#63b8ff" stroke="#63b8ff" points="1320.99,-93.66 1310.65,-91.35 1317.29,-99.61 1320.99,-93.66"/>
</a>
</g>
</g>
<!-- Node41 -->
<g id="Node000041" class="node">
<title>Node41</title>
<g id="a_Node000041"><a xlink:title=" ">
<polygon fill="#e0e0e0" stroke="#999999" points="1406.75,-90.25 1342.75,-90.25 1342.75,-69.5 1406.75,-69.5 1406.75,-90.25"/>
<text xml:space="preserve" text-anchor="middle" x="1374.75" y="-76.75" font-family="Helvetica,sans-Serif" font-size="10.00">stdexcept</text>
</a>
</g>
</g>
<!-- Node27&#45;&gt;Node41 -->
<g id="edge48_Node000027_Node000041" class="edge">
<title>Node27&#45;&gt;Node41</title>
<g id="a_edge48_Node000027_Node000041"><a xlink:title=" ">
<path fill="none" stroke="#63b8ff" d="M2144.86,-140.32C2141.79,-139.82 2138.72,-139.37 2135.75,-139 1820,-99.77 1729.09,-181.51 1420.75,-103 1414.04,-101.29 1407.14,-98.56 1400.79,-95.6"/>
<polygon fill="#63b8ff" stroke="#63b8ff" points="1402.61,-92.6 1392.1,-91.21 1399.45,-98.84 1402.61,-92.6"/>
</a>
</g>
</g>
<!-- Node42 -->
<g id="Node000042" class="node">
<title>Node42</title>
<g id="a_Node000042"><a xlink:title=" ">
<polygon fill="#e0e0e0" stroke="#999999" points="1506.62,-90.25 1462.88,-90.25 1462.88,-69.5 1506.62,-69.5 1506.62,-90.25"/>
<text xml:space="preserve" text-anchor="middle" x="1484.75" y="-76.75" font-family="Helvetica,sans-Serif" font-size="10.00">string</text>
</a>
</g>
</g>
<!-- Node27&#45;&gt;Node42 -->
<g id="edge49_Node000027_Node000042" class="edge">
<title>Node27&#45;&gt;Node42</title>
<g id="a_edge49_Node000027_Node000042"><a xlink:title=" ">
<path fill="none" stroke="#63b8ff" d="M2144.86,-140.35C2141.79,-139.84 2138.72,-139.38 2135.75,-139 1998.86,-121.46 1645.91,-148.89 1515.75,-103 1511.89,-101.64 1508.09,-99.64 1504.54,-97.4"/>
<polygon fill="#63b8ff" stroke="#63b8ff" points="1506.74,-94.67 1496.59,-91.63 1502.62,-100.34 1506.74,-94.67"/>
</a>
</g>
</g>
<!-- Node43 -->
<g id="Node000043" class="node">
<title>Node43</title>
<g id="a_Node000043"><a xlink:title=" ">
<polygon fill="#e0e0e0" stroke="#999999" points="1596.88,-90.25 1524.62,-90.25 1524.62,-69.5 1596.88,-69.5 1596.88,-90.25"/>
<text xml:space="preserve" text-anchor="middle" x="1560.75" y="-76.75" font-family="Helvetica,sans-Serif" font-size="10.00">string_view</text>
</a>
</g>
</g>
<!-- Node27&#45;&gt;Node43 -->
<g id="edge50_Node000027_Node000043" class="edge">
<title>Node27&#45;&gt;Node43</title>
<g id="a_edge50_Node000027_Node000043"><a xlink:title=" ">
<path fill="none" stroke="#63b8ff" d="M2144.86,-140.38C2141.78,-139.87 2138.72,-139.4 2135.75,-139 1902.16,-107.89 1834.6,-163.16 1606.75,-103 1600.16,-101.26 1593.38,-98.57 1587.12,-95.66"/>
<polygon fill="#63b8ff" stroke="#63b8ff" points="1589.06,-92.71 1578.55,-91.35 1585.92,-98.97 1589.06,-92.71"/>
</a>
</g>
</g>
<!-- Node44 -->
<g id="Node000044" class="node">
<title>Node44</title>
<g id="a_Node000044"><a xlink:title=" ">
<polygon fill="#e0e0e0" stroke="#999999" points="1662.12,-90.25 1615.38,-90.25 1615.38,-69.5 1662.12,-69.5 1662.12,-90.25"/>
<text xml:space="preserve" text-anchor="middle" x="1638.75" y="-76.75" font-family="Helvetica,sans-Serif" font-size="10.00">vector</text>
</a>
</g>
</g>
<!-- Node27&#45;&gt;Node44 -->
<g id="edge52_Node000027_Node000044" class="edge">
<title>Node27&#45;&gt;Node44</title>
<g id="a_edge52_Node000027_Node000044"><a xlink:title=" ">
<path fill="none" stroke="#63b8ff" d="M2144.85,-140.41C2141.78,-139.89 2138.72,-139.41 2135.75,-139 1930.41,-110.68 1866.09,-172.34 1670.75,-103 1666.69,-101.56 1662.67,-99.46 1658.92,-97.13"/>
<polygon fill="#63b8ff" stroke="#63b8ff" points="1661.21,-94.46 1651.02,-91.55 1657.17,-100.18 1661.21,-94.46"/>
</a>
</g>
</g>
<!-- Node45 -->
<g id="Node000045" class="node">
<title>Node45</title>
<g id="a_Node000045"><a xlink:title=" ">
<polygon fill="#e0e0e0" stroke="#999999" points="1731.75,-90.25 1679.75,-90.25 1679.75,-69.5 1731.75,-69.5 1731.75,-90.25"/>
<text xml:space="preserve" text-anchor="middle" x="1705.75" y="-76.75" font-family="Helvetica,sans-Serif" font-size="10.00">version</text>
</a>
</g>
</g>
<!-- Node27&#45;&gt;Node45 -->
<g id="edge53_Node000027_Node000045" class="edge">
<title>Node27&#45;&gt;Node45</title>
<g id="a_edge53_Node000027_Node000045"><a xlink:title=" ">
<path fill="none" stroke="#63b8ff" d="M2144.84,-140.46C2141.77,-139.92 2138.71,-139.43 2135.75,-139 1961.29,-113.72 1907.67,-159.67 1740.75,-103 1736.28,-101.48 1731.81,-99.29 1727.62,-96.87"/>
<polygon fill="#63b8ff" stroke="#63b8ff" points="1729.54,-93.94 1719.24,-91.45 1725.74,-99.82 1729.54,-93.94"/>
</a>
</g>
</g>
<!-- Node46 -->
<g id="Node000046" class="node">
<title>Node46</title>
<g id="a_Node000046"><a xlink:title=" ">
<polygon fill="#e0e0e0" stroke="#999999" points="1821.5,-90.25 1750,-90.25 1750,-69.5 1821.5,-69.5 1821.5,-90.25"/>
<text xml:space="preserve" text-anchor="middle" x="1785.75" y="-76.75" font-family="Helvetica,sans-Serif" font-size="10.00">date/date.h</text>
</a>
</g>
</g>
<!-- Node27&#45;&gt;Node46 -->
<g id="edge54_Node000027_Node000046" class="edge">
<title>Node27&#45;&gt;Node46</title>
<g id="a_edge54_Node000027_Node000046"><a xlink:title=" ">
<path fill="none" stroke="#63b8ff" d="M2144.83,-140.54C2141.76,-139.99 2138.71,-139.47 2135.75,-139 2000.94,-117.63 1961.65,-141.67 1830.75,-103 1824.59,-101.18 1818.25,-98.57 1812.34,-95.78"/>
<polygon fill="#63b8ff" stroke="#63b8ff" points="1814.14,-92.78 1803.64,-91.38 1810.98,-99.02 1814.14,-92.78"/>
</a>
</g>
</g>
<!-- Node47 -->
<g id="Node000047" class="node">
<title>Node47</title>
<g id="a_Node000047"><a xlink:title=" ">
<polygon fill="#e0e0e0" stroke="#999999" points="1925.62,-90.25 1839.88,-90.25 1839.88,-69.5 1925.62,-69.5 1925.62,-90.25"/>
<text xml:space="preserve" text-anchor="middle" x="1882.75" y="-76.75" font-family="Helvetica,sans-Serif" font-size="10.00">fmt/ostream.h</text>
</a>
</g>
</g>
<!-- Node27&#45;&gt;Node47 -->
<g id="edge55_Node000027_Node000047" class="edge">
<title>Node27&#45;&gt;Node47</title>
<g id="a_edge55_Node000027_Node000047"><a xlink:title=" ">
<path fill="none" stroke="#63b8ff" d="M2144.8,-140.74C2141.74,-140.14 2138.69,-139.56 2135.75,-139 2046.58,-122.12 2021.72,-128.93 1934.75,-103 1927.59,-100.87 1920.09,-98.04 1913.09,-95.13"/>
<polygon fill="#63b8ff" stroke="#63b8ff" points="1914.56,-91.96 1904,-91.18 1911.77,-98.38 1914.56,-91.96"/>
</a>
</g>
</g>
<!-- Node48 -->
<g id="Node000048" class="node">
<title>Node48</title>
<g id="a_Node000048"><a xlink:title=" ">
<polygon fill="#e0e0e0" stroke="#999999" points="2049.38,-96.62 1944.12,-96.62 1944.12,-63.12 2049.38,-63.12 2049.38,-96.62"/>
<text xml:space="preserve" text-anchor="start" x="1952.12" y="-83.12" font-family="Helvetica,sans-Serif" font-size="10.00">spdlog/sinks/basic</text>
<text xml:space="preserve" text-anchor="middle" x="1996.75" y="-70.38" font-family="Helvetica,sans-Serif" font-size="10.00">_file_sink.h</text>
</a>
</g>
</g>
<!-- Node27&#45;&gt;Node48 -->
<g id="edge56_Node000027_Node000048" class="edge">
<title>Node27&#45;&gt;Node48</title>
<g id="a_edge56_Node000027_Node000048"><a xlink:title=" ">
<path fill="none" stroke="#63b8ff" d="M2155.7,-138.56C2128.7,-128.76 2086.42,-113.42 2052.25,-101.01"/>
<polygon fill="#63b8ff" stroke="#63b8ff" points="2053.48,-97.74 2042.89,-97.62 2051.1,-104.32 2053.48,-97.74"/>
</a>
</g>
</g>
<!-- Node49 -->
<g id="Node000049" class="node">
<title>Node49</title>
<g id="a_Node000049"><a xlink:title=" ">
<polygon fill="#e0e0e0" stroke="#999999" points="2178,-96.62 2067.5,-96.62 2067.5,-63.12 2178,-63.12 2178,-96.62"/>
<text xml:space="preserve" text-anchor="start" x="2075.5" y="-83.12" font-family="Helvetica,sans-Serif" font-size="10.00">spdlog/sinks/stdout</text>
<text xml:space="preserve" text-anchor="middle" x="2122.75" y="-70.38" font-family="Helvetica,sans-Serif" font-size="10.00">_color_sinks.h</text>
</a>
</g>
</g>
<!-- Node27&#45;&gt;Node49 -->
<g id="edge57_Node000027_Node000049" class="edge">
<title>Node27&#45;&gt;Node49</title>
<g id="a_edge57_Node000027_Node000049"><a xlink:title=" ">
<path fill="none" stroke="#63b8ff" d="M2174.15,-138.7C2166.46,-130.05 2154.84,-116.98 2144.6,-105.46"/>
<polygon fill="#63b8ff" stroke="#63b8ff" points="2147.39,-103.32 2138.13,-98.18 2142.16,-107.97 2147.39,-103.32"/>
</a>
</g>
</g>
<!-- Node50 -->
<g id="Node000050" class="node">
<title>Node50</title>
<g id="a_Node000050"><a xlink:title=" ">
<polygon fill="#e0e0e0" stroke="#999999" points="2289,-90.25 2196.5,-90.25 2196.5,-69.5 2289,-69.5 2289,-90.25"/>
<text xml:space="preserve" text-anchor="middle" x="2242.75" y="-76.75" font-family="Helvetica,sans-Serif" font-size="10.00">spdlog/spdlog.h</text>
</a>
</g>
</g>
<!-- Node27&#45;&gt;Node50 -->
<g id="edge58_Node000027_Node000050" class="edge">
<title>Node27&#45;&gt;Node50</title>
<g id="a_edge58_Node000027_Node000050"><a xlink:title=" ">
<path fill="none" stroke="#63b8ff" d="M2191.35,-138.7C2200.52,-128.38 2215.28,-111.78 2226.63,-99.01"/>
<polygon fill="#63b8ff" stroke="#63b8ff" points="2229.14,-101.46 2233.16,-91.66 2223.9,-96.81 2229.14,-101.46"/>
</a>
</g>
</g>
<!-- Node51 -->
<g id="Node000051" class="node">
<title>Node51</title>
<g id="a_Node000051"><a xlink:title=" ">
<polygon fill="#e0e0e0" stroke="#999999" points="2380.25,-90.25 2307.25,-90.25 2307.25,-69.5 2380.25,-69.5 2380.25,-90.25"/>
<text xml:space="preserve" text-anchor="middle" x="2343.75" y="-76.75" font-family="Helvetica,sans-Serif" font-size="10.00">Version.hpp</text>
</a>
</g>
</g>
<!-- Node27&#45;&gt;Node51 -->
<g id="edge61_Node000027_Node000051" class="edge">
<title>Node27&#45;&gt;Node51</title>
<g id="a_edge61_Node000027_Node000051"><a xlink:title=" ">
<path fill="none" stroke="#63b8ff" d="M2209.01,-138.64C2232.46,-129.79 2267.66,-116.15 2297.75,-103 2303.09,-100.66 2308.73,-98.07 2314.16,-95.5"/>
<polygon fill="#63b8ff" stroke="#63b8ff" points="2315.34,-98.81 2322.83,-91.32 2312.3,-92.5 2315.34,-98.81"/>
</a>
</g>
</g>
</g>
</svg>
