<?xml version="1.0" encoding="UTF-8" standalone="no"?>
<!DOCTYPE svg PUBLIC "-//W3C//DTD SVG 1.1//EN"
 "http://www.w3.org/Graphics/SVG/1.1/DTD/svg11.dtd">
<!-- Generated by graphviz version 2.40.1 (20161225.0304)
 -->
<!-- Title: include/Geometry.hpp Pages: 1 -->
<!--zoomable 408 -->
<svg id="main" version="1.1" xmlns="http://www.w3.org/2000/svg" xmlns:xlink="http://www.w3.org/1999/xlink" xml:space="preserve" onload="init(evt)">
<style type="text/css"><![CDATA[
.edge:hover path { stroke: red; }
.edge:hover polygon { stroke: red; fill: red; }
]]></style>
<script type="text/javascript"><![CDATA[
var edges = document.getElementsByTagName('g');
if (edges && edges.length) {
  for (var i=0;i<edges.length;i++) {
    if (edges[i].id.substr(0,4)=='edge') {
      edges[i].setAttribute('class','edge');
    }
  }
}
]]></script>
        <defs>
                <circle id="rim" cx="0" cy="0" r="7"/>
                <circle id="rim2" cx="0" cy="0" r="3.5"/>
                <g id="zoomPlus">
                        <use xlink:href="#rim" fill="#404040">
                                <set attributeName="fill" to="#808080" begin="zoomplus.mouseover" end="zoomplus.mouseout"/>
                        </use>
                        <path d="M-4,0h8M0,-4v8" fill="none" stroke="white" stroke-width="1.5" pointer-events="none"/>
                </g>
                <g id="zoomMin">
                        <use xlink:href="#rim" fill="#404040">
                                <set attributeName="fill" to="#808080" begin="zoomminus.mouseover" end="zoomminus.mouseout"/>
                        </use>
                        <path d="M-4,0h8" fill="none" stroke="white" stroke-width="1.5" pointer-events="none"/>
                </g>
                <g id="dirArrow">
                        <path fill="none" stroke="white" stroke-width="1.5" d="M0,-3.0v7 M-2.5,-0.5L0,-3.0L2.5,-0.5"/>
                </g>
               <g id="resetDef">
                       <use xlink:href="#rim2" fill="#404040">
                               <set attributeName="fill" to="#808080" begin="reset.mouseover" end="reset.mouseout"/>
                       </use>
               </g>
        </defs>

<script type="text/javascript">
var viewWidth = 1297;
var viewHeight = 408;
var sectionId = 'dynsection-1';
</script>
<script xlink:href="svgpan.js"/>
<svg id="graph" class="graph">
<g id="viewport">
<title>include/Geometry.hpp</title>
<polygon fill="#ffffff" stroke="transparent" points="-4,4 -4,-404 1293,-404 1293,4 -4,4"/>
<!-- Node31 -->
<g id="node1" class="node">
<title>Node31</title>
<polygon fill="#bfbfbf" stroke="#000000" points="878,-380.5 878,-399.5 1001,-399.5 1001,-380.5 878,-380.5"/>
<text text-anchor="middle" x="939.5" y="-387.5" font-family="Helvetica,sans-Serif" font-size="10.00" fill="#000000">include/Geometry.hpp</text>
</g>
<!-- Node32 -->
<g id="node2" class="node">
<title>Node32</title>
<g id="a_node2"><a xlink:href="_manifold_8hpp.html" target="_top" xlink:title="Data structures for manifolds. ">
<polygon fill="#ffffff" stroke="#000000" points="807.5,-324.5 807.5,-343.5 925.5,-343.5 925.5,-324.5 807.5,-324.5"/>
<text text-anchor="middle" x="866.5" y="-331.5" font-family="Helvetica,sans-Serif" font-size="10.00" fill="#000000">include/Manifold.hpp</text>
</a>
</g>
</g>
<!-- Node31&#45;&gt;Node32 -->
<g id="edge1" class="edge">
<title>Node31&#45;&gt;Node32</title>
<path fill="none" stroke="#191970" d="M918.549,-373.928C905.7893,-364.1397 889.9115,-351.9595 879.0699,-343.6427"/>
<polygon fill="#191970" stroke="#191970" points="916.7197,-376.9359 926.7844,-380.2455 920.9804,-371.3819 916.7197,-376.9359"/>
</g>
<!-- Node51 -->
<g id="node21" class="node">
<title>Node51</title>
<g id="a_node21"><a xlink:href="_geometry__test_8cpp.html" target="_top" xlink:title="Tests of new geometry data structure. ">
<polygon fill="#ffffff" stroke="#000000" points="944,-324.5 944,-343.5 1081,-343.5 1081,-324.5 944,-324.5"/>
<text text-anchor="middle" x="1012.5" y="-331.5" font-family="Helvetica,sans-Serif" font-size="10.00" fill="#000000">tests/Geometry_test.cpp</text>
</a>
</g>
</g>
<!-- Node31&#45;&gt;Node51 -->
<g id="edge20" class="edge">
<title>Node31&#45;&gt;Node51</title>
<path fill="none" stroke="#191970" d="M960.451,-373.928C973.2107,-364.1397 989.0885,-351.9595 999.9301,-343.6427"/>
<polygon fill="#191970" stroke="#191970" points="958.0196,-371.3819 952.2156,-380.2455 962.2803,-376.9359 958.0196,-371.3819"/>
</g>
<!-- Node33 -->
<g id="node3" class="node">
<title>Node33</title>
<g id="a_node3"><a xlink:href="_ergodic__moves__3_8hpp.html" target="_top" xlink:title="Pachner moves on 2+1 dimensional foliated Delaunay triangulations. ">
<polygon fill="#ffffff" stroke="#000000" points="466,-257.5 466,-287.5 595,-287.5 595,-257.5 466,-257.5"/>
<text text-anchor="start" x="474" y="-275.5" font-family="Helvetica,sans-Serif" font-size="10.00" fill="#000000">include/Ergodic_moves</text>
<text text-anchor="middle" x="530.5" y="-264.5" font-family="Helvetica,sans-Serif" font-size="10.00" fill="#000000">_3.hpp</text>
</a>
</g>
</g>
<!-- Node32&#45;&gt;Node33 -->
<g id="edge2" class="edge">
<title>Node32&#45;&gt;Node33</title>
<path fill="none" stroke="#191970" d="M799.2046,-322.8069C746.2167,-313.8434 670.5359,-300.7094 604.5,-288 601.4065,-287.4046 598.2427,-286.7846 595.0489,-286.1499"/>
<polygon fill="#191970" stroke="#191970" points="798.7152,-326.2737 809.1583,-324.4868 799.8802,-319.3713 798.7152,-326.2737"/>
</g>
<!-- Node46 -->
<g id="node16" class="node">
<title>Node46</title>
<g id="a_node16"><a xlink:href="initialize_8cpp.html" target="_top" xlink:title="Generates initial spacetimes. ">
<polygon fill="#ffffff" stroke="#000000" points="613.5,-263 613.5,-282 709.5,-282 709.5,-263 613.5,-263"/>
<text text-anchor="middle" x="661.5" y="-270" font-family="Helvetica,sans-Serif" font-size="10.00" fill="#000000">src/initialize.cpp</text>
</a>
</g>
</g>
<!-- Node32&#45;&gt;Node46 -->
<g id="edge15" class="edge">
<title>Node32&#45;&gt;Node46</title>
<path fill="none" stroke="#191970" d="M824.5002,-321.4001C785.591,-309.7273 728.5674,-292.6202 693.3063,-282.0419"/>
<polygon fill="#191970" stroke="#191970" points="823.8847,-324.8695 834.4688,-324.3906 825.8962,-318.1647 823.8847,-324.8695"/>
</g>
<!-- Node47 -->
<g id="node17" class="node">
<title>Node47</title>
<g id="a_node17"><a xlink:href="_manifold__test_8cpp.html" target="_top" xlink:title="Tests of new manifold data structure. ">
<polygon fill="#ffffff" stroke="#000000" points="727.5,-263 727.5,-282 857.5,-282 857.5,-263 727.5,-263"/>
<text text-anchor="middle" x="792.5" y="-270" font-family="Helvetica,sans-Serif" font-size="10.00" fill="#000000">tests/Manifold_test.cpp</text>
</a>
</g>
</g>
<!-- Node32&#45;&gt;Node47 -->
<g id="edge16" class="edge">
<title>Node32&#45;&gt;Node47</title>
<path fill="none" stroke="#191970" d="M847.0906,-317.8692C833.4799,-306.5576 815.7302,-291.8062 804.2255,-282.2449"/>
<polygon fill="#191970" stroke="#191970" points="845.0097,-320.6907 854.9375,-324.3906 849.4838,-315.3072 845.0097,-320.6907"/>
</g>
<!-- Node48 -->
<g id="node18" class="node">
<title>Node48</title>
<g id="a_node18"><a xlink:href="_s3_action__test_8cpp.html" target="_top" xlink:title="Tests for the S3 action functions. ">
<polygon fill="#ffffff" stroke="#000000" points="876,-263 876,-282 1007,-282 1007,-263 876,-263"/>
<text text-anchor="middle" x="941.5" y="-270" font-family="Helvetica,sans-Serif" font-size="10.00" fill="#000000">tests/S3Action_test.cpp</text>
</a>
</g>
</g>
<!-- Node32&#45;&gt;Node48 -->
<g id="edge17" class="edge">
<title>Node32&#45;&gt;Node48</title>
<path fill="none" stroke="#191970" d="M886.1717,-317.8692C899.9663,-306.5576 917.9558,-291.8062 929.616,-282.2449"/>
<polygon fill="#191970" stroke="#191970" points="883.7322,-315.3433 878.2188,-324.3906 888.1707,-320.7562 883.7322,-315.3433"/>
</g>
<!-- Node49 -->
<g id="node19" class="node">
<title>Node49</title>
<g id="a_node19"><a xlink:href="_utilities__test_8cpp.html" target="_top" xlink:title="Tests on utility functions. ">
<polygon fill="#ffffff" stroke="#000000" points="1025.5,-263 1025.5,-282 1151.5,-282 1151.5,-263 1025.5,-263"/>
<text text-anchor="middle" x="1088.5" y="-270" font-family="Helvetica,sans-Serif" font-size="10.00" fill="#000000">tests/Utilities_test.cpp</text>
</a>
</g>
</g>
<!-- Node32&#45;&gt;Node49 -->
<g id="edge18" class="edge">
<title>Node32&#45;&gt;Node49</title>
<path fill="none" stroke="#191970" d="M910.9112,-321.6969C953.0658,-310.0189 1015.5459,-292.7103 1054.0561,-282.0419"/>
<polygon fill="#191970" stroke="#191970" points="909.8901,-318.3479 901.1875,-324.3906 911.759,-325.0938 909.8901,-318.3479"/>
</g>
<!-- Node50 -->
<g id="node20" class="node">
<title>Node50</title>
<g id="a_node20"><a xlink:href="_vertex__test_8cpp.html" target="_top" xlink:title="Tests on vertices in Delaunay triangulations. ">
<polygon fill="#ffffff" stroke="#000000" points="1170,-263 1170,-282 1289,-282 1289,-263 1170,-263"/>
<text text-anchor="middle" x="1229.5" y="-270" font-family="Helvetica,sans-Serif" font-size="10.00" fill="#000000">tests/Vertex_test.cpp</text>
</a>
</g>
</g>
<!-- Node32&#45;&gt;Node50 -->
<g id="edge19" class="edge">
<title>Node32&#45;&gt;Node50</title>
<path fill="none" stroke="#191970" d="M935.6787,-323.7138C1008.6131,-312.773 1118.6326,-295.9689 1160.5,-288 1169.7871,-286.2323 1179.7298,-284.1257 1189.0935,-282.044"/>
<polygon fill="#191970" stroke="#191970" points="935.0155,-320.2741 925.6445,-325.2172 936.0527,-327.1968 935.0155,-320.2741"/>
</g>
<!-- Node34 -->
<g id="node4" class="node">
<title>Node34</title>
<g id="a_node4"><a xlink:href="_move__command_8hpp.html" target="_top" xlink:title="Do ergodic moves using the Command pattern. ">
<polygon fill="#ffffff" stroke="#000000" points="205.5,-196 205.5,-215 361.5,-215 361.5,-196 205.5,-196"/>
<text text-anchor="middle" x="283.5" y="-203" font-family="Helvetica,sans-Serif" font-size="10.00" fill="#000000">include/Move_command.hpp</text>
</a>
</g>
</g>
<!-- Node33&#45;&gt;Node34 -->
<g id="edge3" class="edge">
<title>Node33&#45;&gt;Node34</title>
<path fill="none" stroke="#191970" d="M465.2698,-254.806C418.2466,-242.0507 356.6012,-225.3291 318.5419,-215.0053"/>
<polygon fill="#191970" stroke="#191970" points="464.5008,-258.2238 475.0684,-257.4639 466.3334,-251.4679 464.5008,-258.2238"/>
</g>
<!-- Node43 -->
<g id="node13" class="node">
<title>Node43</title>
<g id="a_node13"><a xlink:href="_apply__move__test_8cpp.html" target="_top" xlink:title="Apply ergodic moves to manifolds. ">
<polygon fill="#ffffff" stroke="#000000" points="380,-196 380,-215 529,-215 529,-196 380,-196"/>
<text text-anchor="middle" x="454.5" y="-203" font-family="Helvetica,sans-Serif" font-size="10.00" fill="#000000">tests/Apply_move_test.cpp</text>
</a>
</g>
</g>
<!-- Node33&#45;&gt;Node43 -->
<g id="edge12" class="edge">
<title>Node33&#45;&gt;Node43</title>
<path fill="none" stroke="#191970" d="M505.5908,-250.5406C491.9664,-238.5296 475.7842,-224.2637 465.3385,-215.055"/>
<polygon fill="#191970" stroke="#191970" points="503.4386,-253.3091 513.2544,-257.2967 508.0677,-248.0582 503.4386,-253.3091"/>
</g>
<!-- Node44 -->
<g id="node14" class="node">
<title>Node44</title>
<g id="a_node14"><a xlink:href="_ergodic__moves__3__test_8cpp.html" target="_top" xlink:title="Tests for ergodic moves on foliated triangulations. ">
<polygon fill="#ffffff" stroke="#000000" points="547.5,-190.5 547.5,-220.5 665.5,-220.5 665.5,-190.5 547.5,-190.5"/>
<text text-anchor="start" x="555.5" y="-208.5" font-family="Helvetica,sans-Serif" font-size="10.00" fill="#000000">tests/Ergodic_moves</text>
<text text-anchor="middle" x="606.5" y="-197.5" font-family="Helvetica,sans-Serif" font-size="10.00" fill="#000000">_3_test.cpp</text>
</a>
</g>
</g>
<!-- Node33&#45;&gt;Node44 -->
<g id="edge13" class="edge">
<title>Node33&#45;&gt;Node44</title>
<path fill="none" stroke="#191970" d="M555.4592,-250.4965C566.5497,-240.7193 579.3267,-229.4554 589.3227,-220.6432"/>
<polygon fill="#191970" stroke="#191970" points="552.9323,-248.0582 547.7456,-257.2967 557.5614,-253.3091 552.9323,-248.0582"/>
</g>
<!-- Node45 -->
<g id="node15" class="node">
<title>Node45</title>
<g id="a_node15"><a xlink:href="_function__ref__test_8cpp_source.html" target="_top" xlink:title="tests/Function_ref\l_test.cpp">
<polygon fill="#ffffff" stroke="#000000" points="684,-190.5 684,-220.5 787,-220.5 787,-190.5 684,-190.5"/>
<text text-anchor="start" x="692" y="-208.5" font-family="Helvetica,sans-Serif" font-size="10.00" fill="#000000">tests/Function_ref</text>
<text text-anchor="middle" x="735.5" y="-197.5" font-family="Helvetica,sans-Serif" font-size="10.00" fill="#000000">_test.cpp</text>
</a>
</g>
</g>
<!-- Node33&#45;&gt;Node45 -->
<g id="edge14" class="edge">
<title>Node33&#45;&gt;Node45</title>
<path fill="none" stroke="#191970" d="M586.2603,-254.2759C618.5689,-243.7165 658.7612,-230.5805 689.2933,-220.6017"/>
<polygon fill="#191970" stroke="#191970" points="584.9239,-251.0304 576.506,-257.4639 587.0986,-257.6841 584.9239,-251.0304"/>
</g>
<!-- Node35 -->
<g id="node5" class="node">
<title>Node35</title>
<g id="a_node5"><a xlink:href="_move__strategy_8hpp.html" target="_top" xlink:title="Base class for move algorithms on Delaunay Triangulations. ">
<polygon fill="#ffffff" stroke="#000000" points="134.5,-129 134.5,-148 280.5,-148 280.5,-129 134.5,-129"/>
<text text-anchor="middle" x="207.5" y="-136" font-family="Helvetica,sans-Serif" font-size="10.00" fill="#000000">include/Move_strategy.hpp</text>
</a>
</g>
</g>
<!-- Node34&#45;&gt;Node35 -->
<g id="edge4" class="edge">
<title>Node34&#45;&gt;Node35</title>
<path fill="none" stroke="#191970" d="M264.7156,-188.94C250.137,-176.0879 230.4375,-158.7212 218.3687,-148.0817"/>
<polygon fill="#191970" stroke="#191970" points="262.7952,-191.913 272.6111,-195.9005 267.4243,-186.6621 262.7952,-191.913"/>
</g>
<!-- Node42 -->
<g id="node12" class="node">
<title>Node42</title>
<g id="a_node12"><a xlink:href="_move__command__test_8cpp.html" target="_top" xlink:title="Tests for moves. ">
<polygon fill="#ffffff" stroke="#000000" points="298.5,-123.5 298.5,-153.5 422.5,-153.5 422.5,-123.5 298.5,-123.5"/>
<text text-anchor="start" x="306.5" y="-141.5" font-family="Helvetica,sans-Serif" font-size="10.00" fill="#000000">tests/Move_command</text>
<text text-anchor="middle" x="360.5" y="-130.5" font-family="Helvetica,sans-Serif" font-size="10.00" fill="#000000">_test.cpp</text>
</a>
</g>
</g>
<!-- Node34&#45;&gt;Node42 -->
<g id="edge11" class="edge">
<title>Node34&#45;&gt;Node42</title>
<path fill="none" stroke="#191970" d="M302.1165,-189.3012C314.6325,-178.4107 331.0125,-164.1579 343.2362,-153.5218"/>
<polygon fill="#191970" stroke="#191970" points="299.7787,-186.6959 294.5322,-195.9005 304.3737,-191.9767 299.7787,-186.6959"/>
</g>
<!-- Node36 -->
<g id="node6" class="node">
<title>Node36</title>
<g id="a_node6"><a xlink:href="_metropolis_8hpp.html" target="_top" xlink:title="Perform Metropolis&#45;Hastings algorithm on Delaunay Triangulations. ">
<polygon fill="#ffffff" stroke="#000000" points="68,-67.5 68,-86.5 195,-86.5 195,-67.5 68,-67.5"/>
<text text-anchor="middle" x="131.5" y="-74.5" font-family="Helvetica,sans-Serif" font-size="10.00" fill="#000000">include/Metropolis.hpp</text>
</a>
</g>
</g>
<!-- Node35&#45;&gt;Node36 -->
<g id="edge5" class="edge">
<title>Node35&#45;&gt;Node36</title>
<path fill="none" stroke="#191970" d="M187.566,-122.3692C173.5875,-111.0576 155.3581,-96.3062 143.5424,-86.7449"/>
<polygon fill="#191970" stroke="#191970" points="185.6496,-125.3209 195.625,-128.8906 190.053,-119.8793 185.6496,-125.3209"/>
</g>
<!-- Node39 -->
<g id="node9" class="node">
<title>Node39</title>
<g id="a_node9"><a xlink:href="_move__always_8hpp.html" target="_top" xlink:title="Randomly selects moves to always perform on triangulations. ">
<polygon fill="#ffffff" stroke="#000000" points="213.5,-67.5 213.5,-86.5 355.5,-86.5 355.5,-67.5 213.5,-67.5"/>
<text text-anchor="middle" x="284.5" y="-74.5" font-family="Helvetica,sans-Serif" font-size="10.00" fill="#000000">include/Move_always.hpp</text>
</a>
</g>
</g>
<!-- Node35&#45;&gt;Node39 -->
<g id="edge8" class="edge">
<title>Node35&#45;&gt;Node39</title>
<path fill="none" stroke="#191970" d="M227.3458,-122.6491C241.653,-111.222 260.4924,-96.1749 272.5532,-86.5419"/>
<polygon fill="#191970" stroke="#191970" points="225.1606,-119.915 219.5313,-128.8906 229.5292,-125.3846 225.1606,-119.915"/>
</g>
<!-- Node37 -->
<g id="node7" class="node">
<title>Node37</title>
<g id="a_node7"><a xlink:href="cdt-opt_8cpp.html" target="_top" xlink:title="Outputs values to determine optimizations. ">
<polygon fill="#ffffff" stroke="#000000" points="0,-6 0,-25 89,-25 89,-6 0,-6"/>
<text text-anchor="middle" x="44.5" y="-13" font-family="Helvetica,sans-Serif" font-size="10.00" fill="#000000">src/cdt&#45;opt.cpp</text>
</a>
</g>
</g>
<!-- Node36&#45;&gt;Node37 -->
<g id="edge6" class="edge">
<title>Node36&#45;&gt;Node37</title>
<path fill="none" stroke="#191970" d="M109.5287,-61.4685C93.3101,-50.0037 71.7529,-34.765 57.9983,-25.0419"/>
<polygon fill="#191970" stroke="#191970" points="107.7201,-64.4763 117.9063,-67.3906 111.7608,-58.7602 107.7201,-64.4763"/>
</g>
<!-- Node38 -->
<g id="node8" class="node">
<title>Node38</title>
<g id="a_node8"><a xlink:href="cdt_8cpp.html" target="_top" xlink:title="The main executable. ">
<polygon fill="#ffffff" stroke="#000000" points="107,-6 107,-25 176,-25 176,-6 107,-6"/>
<text text-anchor="middle" x="141.5" y="-13" font-family="Helvetica,sans-Serif" font-size="10.00" fill="#000000">src/cdt.cpp</text>
</a>
</g>
</g>
<!-- Node36&#45;&gt;Node38 -->
<g id="edge7" class="edge">
<title>Node36&#45;&gt;Node38</title>
<path fill="none" stroke="#191970" d="M134.712,-57.2462C136.4509,-46.5519 138.5221,-33.814 139.9155,-25.2449"/>
<polygon fill="#191970" stroke="#191970" points="131.2129,-56.9585 133.0625,-67.3906 138.1221,-58.082 131.2129,-56.9585"/>
</g>
<!-- Node40 -->
<g id="node10" class="node">
<title>Node40</title>
<g id="a_node10"><a xlink:href="_move__strategies__test_8cpp.html" target="_top" xlink:title="Tests for the Metropolis&#45;Hastings algorithm. ">
<polygon fill="#ffffff" stroke="#000000" points="213.5,-.5 213.5,-30.5 337.5,-30.5 337.5,-.5 213.5,-.5"/>
<text text-anchor="start" x="221.5" y="-18.5" font-family="Helvetica,sans-Serif" font-size="10.00" fill="#000000">tests/Move_strategies</text>
<text text-anchor="middle" x="275.5" y="-7.5" font-family="Helvetica,sans-Serif" font-size="10.00" fill="#000000">_test.cpp</text>
</a>
</g>
</g>
<!-- Node39&#45;&gt;Node40 -->
<g id="edge9" class="edge">
<title>Node39&#45;&gt;Node40</title>
<path fill="none" stroke="#191970" d="M281.6272,-57.3693C280.3558,-48.681 278.884,-38.6241 277.7016,-30.5446"/>
<polygon fill="#191970" stroke="#191970" points="278.1826,-58.0028 283.0938,-67.3906 285.1088,-56.9892 278.1826,-58.0028"/>
</g>
<!-- Node41 -->
<g id="node11" class="node">
<title>Node41</title>
<g id="a_node11"><a xlink:href="_simulation_test_8cpp_source.html" target="_top" xlink:title="tests/SimulationTest.cpp">
<polygon fill="#ffffff" stroke="#000000" points="355.5,-6 355.5,-25 491.5,-25 491.5,-6 355.5,-6"/>
<text text-anchor="middle" x="423.5" y="-13" font-family="Helvetica,sans-Serif" font-size="10.00" fill="#000000">tests/SimulationTest.cpp</text>
</a>
</g>
</g>
<!-- Node39&#45;&gt;Node41 -->
<g id="edge10" class="edge">
<title>Node39&#45;&gt;Node41</title>
<path fill="none" stroke="#191970" d="M315.3675,-63.3428C341.6506,-51.7139 378.7372,-35.3051 401.9338,-25.0419"/>
<polygon fill="#191970" stroke="#191970" points="313.9475,-60.1437 306.2188,-67.3906 316.7798,-66.5452 313.9475,-60.1437"/>
</g>
</g>
</svg>
        <g id="navigator" transform="translate(0 0)" fill="#404254">
                <rect fill="#f2f5e9" fill-opacity="0.5" stroke="#606060" stroke-width=".5" x="0" y="0" width="60" height="60"/>
                <use id="zoomplus" xlink:href="#zoomPlus" x="17" y="9" onmousedown="handleZoom(evt,'in')"/>
                <use id="zoomminus" xlink:href="#zoomMin" x="42" y="9" onmousedown="handleZoom(evt,'out')"/>
                <use id="reset" xlink:href="#resetDef" x="30" y="36" onmousedown="handleReset()"/>
                <g id="arrowUp" xlink:href="#dirArrow" transform="translate(30 24)" onmousedown="handlePan(0,-1)">
                  <use xlink:href="#rim" fill="#404040">
                        <set attributeName="fill" to="#808080" begin="arrowUp.mouseover" end="arrowUp.mouseout"/>
                  </use>
                  <path fill="none" stroke="white" stroke-width="1.5" d="M0,-3.0v7 M-2.5,-0.5L0,-3.0L2.5,-0.5"/>
                </g>
                <g id="arrowRight" xlink:href="#dirArrow" transform="rotate(90) translate(36 -43)" onmousedown="handlePan(1,0)">
                  <use xlink:href="#rim" fill="#404040">
                        <set attributeName="fill" to="#808080" begin="arrowRight.mouseover" end="arrowRight.mouseout"/>
                  </use>
                  <path fill="none" stroke="white" stroke-width="1.5" d="M0,-3.0v7 M-2.5,-0.5L0,-3.0L2.5,-0.5"/>
                </g>
                <g id="arrowDown" xlink:href="#dirArrow" transform="rotate(180) translate(-30 -48)" onmousedown="handlePan(0,1)">
                  <use xlink:href="#rim" fill="#404040">
                        <set attributeName="fill" to="#808080" begin="arrowDown.mouseover" end="arrowDown.mouseout"/>
                  </use>
                  <path fill="none" stroke="white" stroke-width="1.5" d="M0,-3.0v7 M-2.5,-0.5L0,-3.0L2.5,-0.5"/>
                </g>
                <g id="arrowLeft" xlink:href="#dirArrow" transform="rotate(270) translate(-36 17)" onmousedown="handlePan(-1,0)">
                  <use xlink:href="#rim" fill="#404040">
                        <set attributeName="fill" to="#808080" begin="arrowLeft.mouseover" end="arrowLeft.mouseout"/>
                  </use>
                  <path fill="none" stroke="white" stroke-width="1.5" d="M0,-3.0v7 M-2.5,-0.5L0,-3.0L2.5,-0.5"/>
                </g>
        </g>
        <svg viewBox="0 0 15 15" width="100%" height="30px" preserveAspectRatio="xMaxYMin meet">
         <g id="arrow_out" transform="scale(0.3 0.3)">
          <a xlink:href="_geometry_8hpp__dep__incl_org.svg" target="_base">
           <rect id="button" ry="5" rx="5" y="6" x="6" height="38" width="38"
                fill="#f2f5e9" fill-opacity="0.5" stroke="#606060" stroke-width="1.0"/>
           <path id="arrow"
             d="M 11.500037,31.436501 C 11.940474,20.09759 22.043105,11.32322 32.158766,21.979434 L 37.068811,17.246167 C 37.068811,17.246167 37.088388,32 37.088388,32 L 22.160133,31.978069 C 22.160133,31.978069 26.997745,27.140456 26.997745,27.140456 C 18.528582,18.264221 13.291696,25.230495 11.500037,31.436501 z"
             style="fill:#404040;"/>
          </a>
         </g>
        </svg>
</svg>
