<?xml version="1.0" encoding="UTF-8" standalone="no"?>
<!DOCTYPE svg PUBLIC "-//W3C//DTD SVG 1.1//EN"
 "http://www.w3.org/Graphics/SVG/1.1/DTD/svg11.dtd">
<!-- Generated by graphviz version 2.43.0 (0)
 -->
<!-- Title: include/Manifold.hpp Pages: 1 -->
<!--zoomable 330 -->
<svg id="main" version="1.1" xmlns="http://www.w3.org/2000/svg" xmlns:xlink="http://www.w3.org/1999/xlink" xml:space="preserve" onload="init(evt)">
<style type="text/css"><![CDATA[
.edge:hover path { stroke: red; }
.edge:hover polygon { stroke: red; fill: red; }
]]></style>
<script type="text/javascript"><![CDATA[
var edges = document.getElementsByTagName('g');
if (edges && edges.length) {
  for (var i=0;i<edges.length;i++) {
    if (edges[i].id.substr(0,4)=='edge') {
      edges[i].setAttribute('class','edge');
    }
  }
}
]]></script>
        <defs>
                <circle id="rim" cx="0" cy="0" r="7"/>
                <circle id="rim2" cx="0" cy="0" r="3.5"/>
                <g id="zoomPlus">
                        <use xlink:href="#rim" fill="#404040">
                                <set attributeName="fill" to="#808080" begin="zoomplus.mouseover" end="zoomplus.mouseout"/>
                        </use>
                        <path d="M-4,0h8M0,-4v8" fill="none" stroke="white" stroke-width="1.5" pointer-events="none"/>
                </g>
                <g id="zoomMin">
                        <use xlink:href="#rim" fill="#404040">
                                <set attributeName="fill" to="#808080" begin="zoomminus.mouseover" end="zoomminus.mouseout"/>
                        </use>
                        <path d="M-4,0h8" fill="none" stroke="white" stroke-width="1.5" pointer-events="none"/>
                </g>
                <g id="dirArrow">
                        <path fill="none" stroke="white" stroke-width="1.5" d="M0,-3.0v7 M-2.5,-0.5L0,-3.0L2.5,-0.5"/>
                </g>
               <g id="resetDef">
                       <use xlink:href="#rim2" fill="#404040">
                               <set attributeName="fill" to="#808080" begin="reset.mouseover" end="reset.mouseout"/>
                       </use>
               </g>
        </defs>

<script type="text/javascript">
var viewWidth = 2580;
var viewHeight = 330;
var sectionId = 'dynsection-0';
</script>
<script xlink:href="svgpan.js"/>
<svg id="graph" class="graph">
<g id="viewport">
<title>include/Manifold.hpp</title>
<polygon fill="white" stroke="transparent" points="-4,4 -4,-326 2575.5,-326 2575.5,4 -4,4"/>
<!-- Node1 -->
<g id="node1" class="node">
<title>Node1</title>
<g id="a_node1"><a xlink:title="Data structures for manifolds.">
<polygon fill="#bfbfbf" stroke="black" points="1193.5,-302.5 1193.5,-321.5 1312.5,-321.5 1312.5,-302.5 1193.5,-302.5"/>
<text text-anchor="middle" x="1253" y="-309.5" font-family="Helvetica,sans-Serif" font-size="10.00">include/Manifold.hpp</text>
</a>
</g>
</g>
<!-- Node2 -->
<g id="node2" class="node">
<title>Node2</title>
<g id="a_node2"><a xlink:href="_geometry_8hpp.html" target="_top" xlink:title="Geometric quantities of Manifold used by MoveAlgorithm.">
<polygon fill="white" stroke="black" points="1079.5,-246.5 1079.5,-265.5 1164.5,-265.5 1164.5,-246.5 1079.5,-246.5"/>
<text text-anchor="middle" x="1122" y="-253.5" font-family="Helvetica,sans-Serif" font-size="10.00">Geometry.hpp</text>
</a>
</g>
</g>
<!-- Node1&#45;&gt;Node2 -->
<g id="edge1" class="edge">
<title>Node1&#45;&gt;Node2</title>
<path fill="none" stroke="midnightblue" d="M1232.24,-302.44C1210.68,-293.56 1176.74,-279.56 1152.21,-269.45"/>
<polygon fill="midnightblue" stroke="midnightblue" points="1153.24,-266.09 1142.66,-265.52 1150.57,-272.56 1153.24,-266.09"/>
</g>
<!-- Node33 -->
<g id="node33" class="node">
<title>Node33</title>
<g id="a_node33"><a xlink:title=" ">
<polygon fill="white" stroke="#bfbfbf" points="1182.5,-246.5 1182.5,-265.5 1235.5,-265.5 1235.5,-246.5 1182.5,-246.5"/>
<text text-anchor="middle" x="1209" y="-253.5" font-family="Helvetica,sans-Serif" font-size="10.00">cstddef</text>
</a>
</g>
</g>
<!-- Node1&#45;&gt;Node33 -->
<g id="edge33" class="edge">
<title>Node1&#45;&gt;Node33</title>
<path fill="none" stroke="midnightblue" d="M1245.73,-302.08C1239.46,-294.38 1230.21,-283.03 1222.57,-273.65"/>
<polygon fill="midnightblue" stroke="midnightblue" points="1225.16,-271.29 1216.13,-265.75 1219.73,-275.71 1225.16,-271.29"/>
</g>
<!-- Node34 -->
<g id="node34" class="node">
<title>Node34</title>
<g id="a_node34"><a xlink:title=" ">
<polygon fill="white" stroke="#bfbfbf" points="1254,-246.5 1254,-265.5 1340,-265.5 1340,-246.5 1254,-246.5"/>
<text text-anchor="middle" x="1297" y="-253.5" font-family="Helvetica,sans-Serif" font-size="10.00">unordered_set</text>
</a>
</g>
</g>
<!-- Node1&#45;&gt;Node34 -->
<g id="edge34" class="edge">
<title>Node1&#45;&gt;Node34</title>
<path fill="none" stroke="midnightblue" d="M1260.27,-302.08C1266.54,-294.38 1275.79,-283.03 1283.43,-273.65"/>
<polygon fill="midnightblue" stroke="midnightblue" points="1286.27,-275.71 1289.87,-265.75 1280.84,-271.29 1286.27,-275.71"/>
</g>
<!-- Node35 -->
<g id="node35" class="node">
<title>Node35</title>
<g id="a_node35"><a xlink:title=" ">
<polygon fill="white" stroke="#bfbfbf" points="1358.5,-246.5 1358.5,-265.5 1403.5,-265.5 1403.5,-246.5 1358.5,-246.5"/>
<text text-anchor="middle" x="1381" y="-253.5" font-family="Helvetica,sans-Serif" font-size="10.00">utility</text>
</a>
</g>
</g>
<!-- Node1&#45;&gt;Node35 -->
<g id="edge35" class="edge">
<title>Node1&#45;&gt;Node35</title>
<path fill="none" stroke="midnightblue" d="M1273.28,-302.44C1294.35,-293.56 1327.52,-279.56 1351.49,-269.45"/>
<polygon fill="midnightblue" stroke="midnightblue" points="1352.96,-272.63 1360.81,-265.52 1350.24,-266.18 1352.96,-272.63"/>
</g>
<!-- Node3 -->
<g id="node3" class="node">
<title>Node3</title>
<g id="a_node3"><a xlink:href="_foliated__triangulation_8hpp.html" target="_top" xlink:title="Create foliated spherical triangulations.">
<polygon fill="white" stroke="black" points="1050,-190.5 1050,-209.5 1194,-209.5 1194,-190.5 1050,-190.5"/>
<text text-anchor="middle" x="1122" y="-197.5" font-family="Helvetica,sans-Serif" font-size="10.00">Foliated_triangulation.hpp</text>
</a>
</g>
</g>
<!-- Node2&#45;&gt;Node3 -->
<g id="edge2" class="edge">
<title>Node2&#45;&gt;Node3</title>
<path fill="none" stroke="midnightblue" d="M1122,-246.08C1122,-239.01 1122,-228.86 1122,-219.99"/>
<polygon fill="midnightblue" stroke="midnightblue" points="1125.5,-219.75 1122,-209.75 1118.5,-219.75 1125.5,-219.75"/>
</g>
<!-- Node4 -->
<g id="node4" class="node">
<title>Node4</title>
<g id="a_node4"><a xlink:href="_triangulation__traits_8hpp.html" target="_top" xlink:title="Traits class for particular uses of CGAL.">
<polygon fill="white" stroke="black" points="512.5,-134.5 512.5,-153.5 643.5,-153.5 643.5,-134.5 512.5,-134.5"/>
<text text-anchor="middle" x="578" y="-141.5" font-family="Helvetica,sans-Serif" font-size="10.00">Triangulation_traits.hpp</text>
</a>
</g>
</g>
<!-- Node3&#45;&gt;Node4 -->
<g id="edge3" class="edge">
<title>Node3&#45;&gt;Node4</title>
<path fill="none" stroke="midnightblue" d="M1049.76,-191.83C946.83,-181.61 758.84,-162.95 653.92,-152.54"/>
<polygon fill="midnightblue" stroke="midnightblue" points="654.02,-149.03 643.72,-151.52 653.33,-155.99 654.02,-149.03"/>
</g>
<!-- Node13 -->
<g id="node13" class="node">
<title>Node13</title>
<g id="a_node13"><a xlink:href="_utilities_8hpp.html" target="_top" xlink:title="Utility functions.">
<polygon fill="white" stroke="black" points="1629,-134.5 1629,-153.5 1705,-153.5 1705,-134.5 1629,-134.5"/>
<text text-anchor="middle" x="1667" y="-141.5" font-family="Helvetica,sans-Serif" font-size="10.00">Utilities.hpp</text>
</a>
</g>
</g>
<!-- Node3&#45;&gt;Node13 -->
<g id="edge12" class="edge">
<title>Node3&#45;&gt;Node13</title>
<path fill="none" stroke="midnightblue" d="M1194.09,-191.86C1307,-180.67 1522.56,-159.31 1618.67,-149.79"/>
<polygon fill="midnightblue" stroke="midnightblue" points="1619.08,-153.27 1628.69,-148.8 1618.39,-146.3 1619.08,-153.27"/>
</g>
<!-- Node5 -->
<g id="node5" class="node">
<title>Node5</title>
<g id="a_node5"><a xlink:href="_settings_8hpp.html" target="_top" xlink:title="Global integer and precision settings.">
<polygon fill="white" stroke="black" points="839.5,-67.5 839.5,-86.5 916.5,-86.5 916.5,-67.5 839.5,-67.5"/>
<text text-anchor="middle" x="878" y="-74.5" font-family="Helvetica,sans-Serif" font-size="10.00">Settings.hpp</text>
</a>
</g>
</g>
<!-- Node4&#45;&gt;Node5 -->
<g id="edge4" class="edge">
<title>Node4&#45;&gt;Node5</title>
<path fill="none" stroke="midnightblue" d="M643.64,-135.27C695.04,-128.27 767.96,-116.23 830,-98 836.87,-95.98 844.08,-93.3 850.78,-90.55"/>
<polygon fill="midnightblue" stroke="midnightblue" points="852.29,-93.71 860.1,-86.55 849.53,-87.27 852.29,-93.71"/>
</g>
<!-- Node8 -->
<g id="node8" class="node">
<title>Node8</title>
<g id="a_node8"><a xlink:title=" ">
<polygon fill="white" stroke="#bfbfbf" points="0,-67.5 0,-86.5 180,-86.5 180,-67.5 0,-67.5"/>
<text text-anchor="middle" x="90" y="-74.5" font-family="Helvetica,sans-Serif" font-size="10.00">CGAL/Delaunay_triangulation_3.h</text>
</a>
</g>
</g>
<!-- Node4&#45;&gt;Node8 -->
<g id="edge7" class="edge">
<title>Node4&#45;&gt;Node8</title>
<path fill="none" stroke="midnightblue" d="M512.38,-137.11C434.87,-129.76 302.14,-115.94 189,-98 172.52,-95.39 154.61,-91.95 138.62,-88.67"/>
<polygon fill="midnightblue" stroke="midnightblue" points="138.92,-85.16 128.42,-86.54 137.49,-92.01 138.92,-85.16"/>
</g>
<!-- Node9 -->
<g id="node9" class="node">
<title>Node9</title>
<g id="a_node9"><a xlink:title=" ">
<polygon fill="white" stroke="#bfbfbf" points="198.5,-56.5 198.5,-97.5 327.5,-97.5 327.5,-56.5 198.5,-56.5"/>
<text text-anchor="start" x="206.5" y="-85.5" font-family="Helvetica,sans-Serif" font-size="10.00">CGAL/Exact_predicates</text>
<text text-anchor="start" x="206.5" y="-74.5" font-family="Helvetica,sans-Serif" font-size="10.00">_inexact_constructions</text>
<text text-anchor="middle" x="263" y="-63.5" font-family="Helvetica,sans-Serif" font-size="10.00">_kernel.h</text>
</a>
</g>
</g>
<!-- Node4&#45;&gt;Node9 -->
<g id="edge8" class="edge">
<title>Node4&#45;&gt;Node9</title>
<path fill="none" stroke="midnightblue" d="M525.57,-134.45C478.79,-126.53 408.22,-113.92 337.83,-98.11"/>
<polygon fill="midnightblue" stroke="midnightblue" points="338.43,-94.65 327.9,-95.85 336.88,-101.48 338.43,-94.65"/>
</g>
<!-- Node10 -->
<g id="node10" class="node">
<title>Node10</title>
<g id="a_node10"><a xlink:title=" ">
<polygon fill="white" stroke="#bfbfbf" points="346,-62 346,-92 484,-92 484,-62 346,-62"/>
<text text-anchor="start" x="354" y="-80" font-family="Helvetica,sans-Serif" font-size="10.00">CGAL/Triangulation</text>
<text text-anchor="middle" x="415" y="-69" font-family="Helvetica,sans-Serif" font-size="10.00">_cell_base_with_info_3.h</text>
</a>
</g>
</g>
<!-- Node4&#45;&gt;Node10 -->
<g id="edge9" class="edge">
<title>Node4&#45;&gt;Node10</title>
<path fill="none" stroke="midnightblue" d="M556.35,-134.37C531.79,-124.57 491.06,-108.33 459.61,-95.79"/>
<polygon fill="midnightblue" stroke="midnightblue" points="460.76,-92.48 450.18,-92.03 458.17,-98.98 460.76,-92.48"/>
</g>
<!-- Node11 -->
<g id="node11" class="node">
<title>Node11</title>
<g id="a_node11"><a xlink:title=" ">
<polygon fill="white" stroke="#bfbfbf" points="502,-62 502,-92 654,-92 654,-62 502,-62"/>
<text text-anchor="start" x="510" y="-80" font-family="Helvetica,sans-Serif" font-size="10.00">CGAL/Triangulation</text>
<text text-anchor="middle" x="578" y="-69" font-family="Helvetica,sans-Serif" font-size="10.00">_vertex_base_with_info_3.h</text>
</a>
</g>
</g>
<!-- Node4&#45;&gt;Node11 -->
<g id="edge10" class="edge">
<title>Node4&#45;&gt;Node11</title>
<path fill="none" stroke="midnightblue" d="M578,-134.23C578,-126.04 578,-113.42 578,-102.21"/>
<polygon fill="midnightblue" stroke="midnightblue" points="581.5,-102.09 578,-92.09 574.5,-102.09 581.5,-102.09"/>
</g>
<!-- Node12 -->
<g id="node12" class="node">
<title>Node12</title>
<g id="a_node12"><a xlink:title=" ">
<polygon fill="white" stroke="#bfbfbf" points="672.5,-67.5 672.5,-86.5 821.5,-86.5 821.5,-67.5 672.5,-67.5"/>
<text text-anchor="middle" x="747" y="-74.5" font-family="Helvetica,sans-Serif" font-size="10.00">CGAL/point_generators_3.h</text>
</a>
</g>
</g>
<!-- Node4&#45;&gt;Node12 -->
<g id="edge11" class="edge">
<title>Node4&#45;&gt;Node12</title>
<path fill="none" stroke="midnightblue" d="M600.44,-134.37C629.82,-123.07 681.49,-103.2 714.97,-90.32"/>
<polygon fill="midnightblue" stroke="midnightblue" points="716.66,-93.42 724.73,-86.56 714.14,-86.89 716.66,-93.42"/>
</g>
<!-- Node6 -->
<g id="node6" class="node">
<title>Node6</title>
<g id="a_node6"><a xlink:title=" ">
<polygon fill="white" stroke="#bfbfbf" points="792,-0.5 792,-19.5 878,-19.5 878,-0.5 792,-0.5"/>
<text text-anchor="middle" x="835" y="-7.5" font-family="Helvetica,sans-Serif" font-size="10.00">CGAL/Gmpzf.h</text>
</a>
</g>
</g>
<!-- Node5&#45;&gt;Node6 -->
<g id="edge5" class="edge">
<title>Node5&#45;&gt;Node6</title>
<path fill="none" stroke="midnightblue" d="M872.2,-67.23C865.62,-57.29 854.74,-40.84 846.44,-28.29"/>
<polygon fill="midnightblue" stroke="midnightblue" points="849.14,-26.04 840.71,-19.63 843.31,-29.9 849.14,-26.04"/>
</g>
<!-- Node7 -->
<g id="node7" class="node">
<title>Node7</title>
<g id="a_node7"><a xlink:title=" ">
<polygon fill="white" stroke="#bfbfbf" points="896,-0.5 896,-19.5 946,-19.5 946,-0.5 896,-0.5"/>
<text text-anchor="middle" x="921" y="-7.5" font-family="Helvetica,sans-Serif" font-size="10.00">cstdint</text>
</a>
</g>
</g>
<!-- Node5&#45;&gt;Node7 -->
<g id="edge6" class="edge">
<title>Node5&#45;&gt;Node7</title>
<path fill="none" stroke="midnightblue" d="M883.8,-67.23C890.38,-57.29 901.26,-40.84 909.56,-28.29"/>
<polygon fill="midnightblue" stroke="midnightblue" points="912.69,-29.9 915.29,-19.63 906.86,-26.04 912.69,-29.9"/>
</g>
<!-- Node13&#45;&gt;Node5 -->
<g id="edge32" class="edge">
<title>Node13&#45;&gt;Node5</title>
<path fill="none" stroke="midnightblue" d="M1628.71,-142.4C1496.64,-140.05 1060.82,-130.01 925,-98 917.93,-96.33 910.56,-93.68 903.82,-90.85"/>
<polygon fill="midnightblue" stroke="midnightblue" points="905.05,-87.57 894.5,-86.66 902.18,-93.95 905.05,-87.57"/>
</g>
<!-- Node14 -->
<g id="node14" class="node">
<title>Node14</title>
<g id="a_node14"><a xlink:title=" ">
<polygon fill="white" stroke="#bfbfbf" points="934.5,-67.5 934.5,-86.5 1017.5,-86.5 1017.5,-67.5 934.5,-67.5"/>
<text text-anchor="middle" x="976" y="-74.5" font-family="Helvetica,sans-Serif" font-size="10.00">CGAL/Timer.h</text>
</a>
</g>
</g>
<!-- Node13&#45;&gt;Node14 -->
<g id="edge13" class="edge">
<title>Node13&#45;&gt;Node14</title>
<path fill="none" stroke="midnightblue" d="M1628.69,-141.83C1508.93,-137.93 1142.72,-124.11 1027,-98 1019.13,-96.22 1010.88,-93.43 1003.36,-90.49"/>
<polygon fill="midnightblue" stroke="midnightblue" points="1004.57,-87.2 993.99,-86.6 1001.89,-93.66 1004.57,-87.2"/>
</g>
<!-- Node15 -->
<g id="node15" class="node">
<title>Node15</title>
<g id="a_node15"><a xlink:title=" ">
<polygon fill="white" stroke="#bfbfbf" points="1036,-67.5 1036,-86.5 1124,-86.5 1124,-67.5 1036,-67.5"/>
<text text-anchor="middle" x="1080" y="-74.5" font-family="Helvetica,sans-Serif" font-size="10.00">sys/utsname.h</text>
</a>
</g>
</g>
<!-- Node13&#45;&gt;Node15 -->
<g id="edge14" class="edge">
<title>Node13&#45;&gt;Node15</title>
<path fill="none" stroke="midnightblue" d="M1628.9,-143.37C1540.57,-143.47 1315.4,-139.26 1133,-98 1124.77,-96.14 1116.11,-93.28 1108.22,-90.3"/>
<polygon fill="midnightblue" stroke="midnightblue" points="1109.33,-86.97 1098.74,-86.53 1106.74,-93.48 1109.33,-86.97"/>
</g>
<!-- Node16 -->
<g id="node16" class="node">
<title>Node16</title>
<g id="a_node16"><a xlink:title=" ">
<polygon fill="white" stroke="#bfbfbf" points="1142.5,-67.5 1142.5,-86.5 1259.5,-86.5 1259.5,-67.5 1142.5,-67.5"/>
<text text-anchor="middle" x="1201" y="-74.5" font-family="Helvetica,sans-Serif" font-size="10.00">boost/date_time.hpp</text>
</a>
</g>
</g>
<!-- Node13&#45;&gt;Node16 -->
<g id="edge15" class="edge">
<title>Node13&#45;&gt;Node16</title>
<path fill="none" stroke="midnightblue" d="M1628.79,-140.89C1557.48,-136.47 1399.53,-124.37 1269,-98 1258.12,-95.8 1246.47,-92.67 1235.94,-89.54"/>
<polygon fill="midnightblue" stroke="midnightblue" points="1236.83,-86.15 1226.25,-86.56 1234.78,-92.84 1236.83,-86.15"/>
</g>
<!-- Node17 -->
<g id="node17" class="node">
<title>Node17</title>
<g id="a_node17"><a xlink:title=" ">
<polygon fill="white" stroke="#bfbfbf" points="1278,-67.5 1278,-86.5 1342,-86.5 1342,-67.5 1278,-67.5"/>
<text text-anchor="middle" x="1310" y="-74.5" font-family="Helvetica,sans-Serif" font-size="10.00">algorithm</text>
</a>
</g>
</g>
<!-- Node13&#45;&gt;Node17 -->
<g id="edge16" class="edge">
<title>Node13&#45;&gt;Node17</title>
<path fill="none" stroke="midnightblue" d="M1628.71,-141.39C1568.42,-138.01 1448.21,-127.82 1351,-98 1345.32,-96.26 1339.45,-93.82 1333.99,-91.24"/>
<polygon fill="midnightblue" stroke="midnightblue" points="1335.23,-87.95 1324.73,-86.58 1332.08,-94.2 1335.23,-87.95"/>
</g>
<!-- Node18 -->
<g id="node18" class="node">
<title>Node18</title>
<g id="a_node18"><a xlink:title=" ">
<polygon fill="white" stroke="#bfbfbf" points="1360,-67.5 1360,-86.5 1412,-86.5 1412,-67.5 1360,-67.5"/>
<text text-anchor="middle" x="1386" y="-74.5" font-family="Helvetica,sans-Serif" font-size="10.00">cassert</text>
</a>
</g>
</g>
<!-- Node13&#45;&gt;Node18 -->
<g id="edge17" class="edge">
<title>Node13&#45;&gt;Node18</title>
<path fill="none" stroke="midnightblue" d="M1628.87,-140.04C1579.6,-135.32 1491.76,-123.83 1421,-98 1416.52,-96.36 1411.94,-94.18 1407.63,-91.85"/>
<polygon fill="midnightblue" stroke="midnightblue" points="1409.19,-88.71 1398.78,-86.7 1405.66,-94.76 1409.19,-88.71"/>
</g>
<!-- Node19 -->
<g id="node19" class="node">
<title>Node19</title>
<g id="a_node19"><a xlink:title=" ">
<polygon fill="white" stroke="#bfbfbf" points="1430.5,-67.5 1430.5,-86.5 1479.5,-86.5 1479.5,-67.5 1430.5,-67.5"/>
<text text-anchor="middle" x="1455" y="-74.5" font-family="Helvetica,sans-Serif" font-size="10.00">cstdlib</text>
</a>
</g>
</g>
<!-- Node13&#45;&gt;Node19 -->
<g id="edge18" class="edge">
<title>Node13&#45;&gt;Node19</title>
<path fill="none" stroke="midnightblue" d="M1628.93,-136.84C1591.95,-130.08 1534.72,-117.51 1488,-98 1483.9,-96.29 1479.7,-94.12 1475.74,-91.84"/>
<polygon fill="midnightblue" stroke="midnightblue" points="1477.42,-88.77 1467.07,-86.51 1473.76,-94.73 1477.42,-88.77"/>
</g>
<!-- Node20 -->
<g id="node20" class="node">
<title>Node20</title>
<g id="a_node20"><a xlink:title=" ">
<polygon fill="white" stroke="#bfbfbf" points="1497.5,-67.5 1497.5,-86.5 1552.5,-86.5 1552.5,-67.5 1497.5,-67.5"/>
<text text-anchor="middle" x="1525" y="-74.5" font-family="Helvetica,sans-Serif" font-size="10.00">fstream</text>
</a>
</g>
</g>
<!-- Node13&#45;&gt;Node20 -->
<g id="edge19" class="edge">
<title>Node13&#45;&gt;Node20</title>
<path fill="none" stroke="midnightblue" d="M1645.43,-134.42C1624.02,-125.76 1590.39,-111.72 1562,-98 1557.82,-95.98 1553.43,-93.73 1549.2,-91.49"/>
<polygon fill="midnightblue" stroke="midnightblue" points="1550.78,-88.36 1540.32,-86.68 1547.45,-94.52 1550.78,-88.36"/>
</g>
<!-- Node21 -->
<g id="node21" class="node">
<title>Node21</title>
<g id="a_node21"><a xlink:title=" ">
<polygon fill="white" stroke="#bfbfbf" points="1571,-67.5 1571,-86.5 1619,-86.5 1619,-67.5 1571,-67.5"/>
<text text-anchor="middle" x="1595" y="-74.5" font-family="Helvetica,sans-Serif" font-size="10.00">gsl/gsl</text>
</a>
</g>
</g>
<!-- Node13&#45;&gt;Node21 -->
<g id="edge20" class="edge">
<title>Node13&#45;&gt;Node21</title>
<path fill="none" stroke="midnightblue" d="M1657.29,-134.23C1645.74,-123.81 1626.25,-106.21 1612.14,-93.47"/>
<polygon fill="midnightblue" stroke="midnightblue" points="1614.32,-90.73 1604.56,-86.63 1609.63,-95.93 1614.32,-90.73"/>
</g>
<!-- Node22 -->
<g id="node22" class="node">
<title>Node22</title>
<g id="a_node22"><a xlink:title=" ">
<polygon fill="white" stroke="#bfbfbf" points="1637,-67.5 1637,-86.5 1697,-86.5 1697,-67.5 1637,-67.5"/>
<text text-anchor="middle" x="1667" y="-74.5" font-family="Helvetica,sans-Serif" font-size="10.00">iostream</text>
</a>
</g>
</g>
<!-- Node13&#45;&gt;Node22 -->
<g id="edge21" class="edge">
<title>Node13&#45;&gt;Node22</title>
<path fill="none" stroke="midnightblue" d="M1667,-134.23C1667,-124.68 1667,-109.12 1667,-96.78"/>
<polygon fill="midnightblue" stroke="midnightblue" points="1670.5,-96.63 1667,-86.63 1663.5,-96.63 1670.5,-96.63"/>
</g>
<!-- Node23 -->
<g id="node23" class="node">
<title>Node23</title>
<g id="a_node23"><a xlink:title=" ">
<polygon fill="white" stroke="#bfbfbf" points="1715,-67.5 1715,-86.5 1763,-86.5 1763,-67.5 1715,-67.5"/>
<text text-anchor="middle" x="1739" y="-74.5" font-family="Helvetica,sans-Serif" font-size="10.00">mutex</text>
</a>
</g>
</g>
<!-- Node13&#45;&gt;Node23 -->
<g id="edge22" class="edge">
<title>Node13&#45;&gt;Node23</title>
<path fill="none" stroke="midnightblue" d="M1676.71,-134.23C1688.26,-123.81 1707.75,-106.21 1721.86,-93.47"/>
<polygon fill="midnightblue" stroke="midnightblue" points="1724.37,-95.93 1729.44,-86.63 1719.68,-90.73 1724.37,-95.93"/>
</g>
<!-- Node24 -->
<g id="node24" class="node">
<title>Node24</title>
<g id="a_node24"><a xlink:title=" ">
<polygon fill="white" stroke="#bfbfbf" points="1781,-67.5 1781,-86.5 1835,-86.5 1835,-67.5 1781,-67.5"/>
<text text-anchor="middle" x="1808" y="-74.5" font-family="Helvetica,sans-Serif" font-size="10.00">random</text>
</a>
</g>
</g>
<!-- Node13&#45;&gt;Node24 -->
<g id="edge23" class="edge">
<title>Node13&#45;&gt;Node24</title>
<path fill="none" stroke="midnightblue" d="M1688.61,-134.49C1710.04,-125.88 1743.69,-111.89 1772,-98 1776.16,-95.96 1780.51,-93.67 1784.7,-91.4"/>
<polygon fill="midnightblue" stroke="midnightblue" points="1786.43,-94.44 1793.47,-86.52 1783.03,-88.32 1786.43,-94.44"/>
</g>
<!-- Node25 -->
<g id="node25" class="node">
<title>Node25</title>
<g id="a_node25"><a xlink:title=" ">
<polygon fill="white" stroke="#bfbfbf" points="1853.5,-67.5 1853.5,-86.5 1918.5,-86.5 1918.5,-67.5 1853.5,-67.5"/>
<text text-anchor="middle" x="1886" y="-74.5" font-family="Helvetica,sans-Serif" font-size="10.00">stdexcept</text>
</a>
</g>
</g>
<!-- Node13&#45;&gt;Node25 -->
<g id="edge24" class="edge">
<title>Node13&#45;&gt;Node25</title>
<path fill="none" stroke="midnightblue" d="M1705.28,-135.53C1741.57,-127.92 1797.33,-114.86 1844,-98 1849.51,-96.01 1855.26,-93.54 1860.69,-91.03"/>
<polygon fill="midnightblue" stroke="midnightblue" points="1862.48,-94.05 1869.96,-86.55 1859.43,-87.75 1862.48,-94.05"/>
</g>
<!-- Node26 -->
<g id="node26" class="node">
<title>Node26</title>
<g id="a_node26"><a xlink:title=" ">
<polygon fill="white" stroke="#bfbfbf" points="1937,-67.5 1937,-86.5 1981,-86.5 1981,-67.5 1937,-67.5"/>
<text text-anchor="middle" x="1959" y="-74.5" font-family="Helvetica,sans-Serif" font-size="10.00">string</text>
</a>
</g>
</g>
<!-- Node13&#45;&gt;Node26 -->
<g id="edge25" class="edge">
<title>Node13&#45;&gt;Node26</title>
<path fill="none" stroke="midnightblue" d="M1705,-141.21C1756.97,-137.71 1852.39,-127.49 1928,-98 1931.92,-96.47 1935.86,-94.41 1939.56,-92.2"/>
<polygon fill="midnightblue" stroke="midnightblue" points="1941.68,-94.99 1948.11,-86.57 1937.83,-89.15 1941.68,-94.99"/>
</g>
<!-- Node27 -->
<g id="node27" class="node">
<title>Node27</title>
<g id="a_node27"><a xlink:title=" ">
<polygon fill="white" stroke="#bfbfbf" points="1999.5,-67.5 1999.5,-86.5 2064.5,-86.5 2064.5,-67.5 1999.5,-67.5"/>
<text text-anchor="middle" x="2032" y="-74.5" font-family="Helvetica,sans-Serif" font-size="10.00">typeindex</text>
</a>
</g>
</g>
<!-- Node13&#45;&gt;Node27 -->
<g id="edge26" class="edge">
<title>Node13&#45;&gt;Node27</title>
<path fill="none" stroke="midnightblue" d="M1705.1,-141.45C1766.34,-138.14 1889.94,-128.01 1990,-98 1995.95,-96.22 2002.11,-93.7 2007.82,-91.05"/>
<polygon fill="midnightblue" stroke="midnightblue" points="2009.47,-94.14 2016.89,-86.58 2006.38,-87.86 2009.47,-94.14"/>
</g>
<!-- Node28 -->
<g id="node28" class="node">
<title>Node28</title>
<g id="a_node28"><a xlink:title=" ">
<polygon fill="white" stroke="#bfbfbf" points="2082.5,-67.5 2082.5,-86.5 2141.5,-86.5 2141.5,-67.5 2082.5,-67.5"/>
<text text-anchor="middle" x="2112" y="-74.5" font-family="Helvetica,sans-Serif" font-size="10.00">date/tz.h</text>
</a>
</g>
</g>
<!-- Node13&#45;&gt;Node28 -->
<g id="edge27" class="edge">
<title>Node13&#45;&gt;Node28</title>
<path fill="none" stroke="midnightblue" d="M1705.26,-143.47C1778.53,-143.35 1942.98,-138.14 2074,-98 2079.3,-96.38 2084.73,-94.01 2089.76,-91.47"/>
<polygon fill="midnightblue" stroke="midnightblue" points="2091.72,-94.38 2098.81,-86.51 2088.36,-88.24 2091.72,-94.38"/>
</g>
<!-- Node29 -->
<g id="node29" class="node">
<title>Node29</title>
<g id="a_node29"><a xlink:title=" ">
<polygon fill="white" stroke="#bfbfbf" points="2160,-67.5 2160,-86.5 2258,-86.5 2258,-67.5 2160,-67.5"/>
<text text-anchor="middle" x="2209" y="-74.5" font-family="Helvetica,sans-Serif" font-size="10.00">pcg_random.hpp</text>
</a>
</g>
</g>
<!-- Node13&#45;&gt;Node29 -->
<g id="edge28" class="edge">
<title>Node13&#45;&gt;Node29</title>
<path fill="none" stroke="midnightblue" d="M1705.12,-142.54C1787.46,-140.88 1987.66,-133.22 2151,-98 2160.15,-96.03 2169.86,-93.05 2178.66,-89.99"/>
<polygon fill="midnightblue" stroke="midnightblue" points="2179.93,-93.25 2188.13,-86.55 2177.54,-86.67 2179.93,-93.25"/>
</g>
<!-- Node30 -->
<g id="node30" class="node">
<title>Node30</title>
<g id="a_node30"><a xlink:title=" ">
<polygon fill="white" stroke="#bfbfbf" points="2276.5,-67.5 2276.5,-86.5 2355.5,-86.5 2355.5,-67.5 2276.5,-67.5"/>
<text text-anchor="middle" x="2316" y="-74.5" font-family="Helvetica,sans-Serif" font-size="10.00">fmt/format.h</text>
</a>
</g>
</g>
<!-- Node13&#45;&gt;Node30 -->
<g id="edge29" class="edge">
<title>Node13&#45;&gt;Node30</title>
<path fill="none" stroke="midnightblue" d="M1705.34,-141.69C1820.08,-137.52 2159.47,-123.31 2267,-98 2274.5,-96.23 2282.35,-93.48 2289.51,-90.57"/>
<polygon fill="midnightblue" stroke="midnightblue" points="2290.95,-93.76 2298.75,-86.59 2288.18,-87.33 2290.95,-93.76"/>
</g>
<!-- Node31 -->
<g id="node31" class="node">
<title>Node31</title>
<g id="a_node31"><a xlink:title=" ">
<polygon fill="white" stroke="#bfbfbf" points="2374,-67.5 2374,-86.5 2460,-86.5 2460,-67.5 2374,-67.5"/>
<text text-anchor="middle" x="2417" y="-74.5" font-family="Helvetica,sans-Serif" font-size="10.00">fmt/ostream.h</text>
</a>
</g>
</g>
<!-- Node13&#45;&gt;Node31 -->
<g id="edge30" class="edge">
<title>Node13&#45;&gt;Node31</title>
<path fill="none" stroke="midnightblue" d="M1705.16,-142.06C1831.83,-138.69 2237.49,-125.95 2365,-98 2373.1,-96.22 2381.62,-93.39 2389.35,-90.41"/>
<polygon fill="midnightblue" stroke="midnightblue" points="2390.71,-93.64 2398.65,-86.63 2388.07,-87.16 2390.71,-93.64"/>
</g>
<!-- Node32 -->
<g id="node32" class="node">
<title>Node32</title>
<g id="a_node32"><a xlink:title=" ">
<polygon fill="white" stroke="#bfbfbf" points="2478.5,-67.5 2478.5,-86.5 2571.5,-86.5 2571.5,-67.5 2478.5,-67.5"/>
<text text-anchor="middle" x="2525" y="-74.5" font-family="Helvetica,sans-Serif" font-size="10.00">spdlog/spdlog.h</text>
</a>
</g>
</g>
<!-- Node13&#45;&gt;Node32 -->
<g id="edge31" class="edge">
<title>Node13&#45;&gt;Node32</title>
<path fill="none" stroke="midnightblue" d="M1705.4,-142.3C1844.28,-139.55 2320.18,-128.1 2469,-98 2477.95,-96.19 2487.39,-93.25 2495.92,-90.17"/>
<polygon fill="midnightblue" stroke="midnightblue" points="2497.34,-93.37 2505.44,-86.55 2494.85,-86.83 2497.34,-93.37"/>
</g>
</g>
</svg>
        <g id="navigator" transform="translate(0 0)" fill="#404254">
                <rect fill="#f2f5e9" fill-opacity="0.5" stroke="#606060" stroke-width=".5" x="0" y="0" width="60" height="60"/>
                <use id="zoomplus" xlink:href="#zoomPlus" x="17" y="9" onmousedown="handleZoom(evt,'in')"/>
                <use id="zoomminus" xlink:href="#zoomMin" x="42" y="9" onmousedown="handleZoom(evt,'out')"/>
                <use id="reset" xlink:href="#resetDef" x="30" y="36" onmousedown="handleReset()"/>
                <g id="arrowUp" xlink:href="#dirArrow" transform="translate(30 24)" onmousedown="handlePan(0,-1)">
                  <use xlink:href="#rim" fill="#404040">
                        <set attributeName="fill" to="#808080" begin="arrowUp.mouseover" end="arrowUp.mouseout"/>
                  </use>
                  <path fill="none" stroke="white" stroke-width="1.5" d="M0,-3.0v7 M-2.5,-0.5L0,-3.0L2.5,-0.5"/>
                </g>
                <g id="arrowRight" xlink:href="#dirArrow" transform="rotate(90) translate(36 -43)" onmousedown="handlePan(1,0)">
                  <use xlink:href="#rim" fill="#404040">
                        <set attributeName="fill" to="#808080" begin="arrowRight.mouseover" end="arrowRight.mouseout"/>
                  </use>
                  <path fill="none" stroke="white" stroke-width="1.5" d="M0,-3.0v7 M-2.5,-0.5L0,-3.0L2.5,-0.5"/>
                </g>
                <g id="arrowDown" xlink:href="#dirArrow" transform="rotate(180) translate(-30 -48)" onmousedown="handlePan(0,1)">
                  <use xlink:href="#rim" fill="#404040">
                        <set attributeName="fill" to="#808080" begin="arrowDown.mouseover" end="arrowDown.mouseout"/>
                  </use>
                  <path fill="none" stroke="white" stroke-width="1.5" d="M0,-3.0v7 M-2.5,-0.5L0,-3.0L2.5,-0.5"/>
                </g>
                <g id="arrowLeft" xlink:href="#dirArrow" transform="rotate(270) translate(-36 17)" onmousedown="handlePan(-1,0)">
                  <use xlink:href="#rim" fill="#404040">
                        <set attributeName="fill" to="#808080" begin="arrowLeft.mouseover" end="arrowLeft.mouseout"/>
                  </use>
                  <path fill="none" stroke="white" stroke-width="1.5" d="M0,-3.0v7 M-2.5,-0.5L0,-3.0L2.5,-0.5"/>
                </g>
        </g>
        <svg viewBox="0 0 15 15" width="100%" height="30px" preserveAspectRatio="xMaxYMin meet">
         <g id="arrow_out" transform="scale(0.3 0.3)">
          <a xlink:href="_manifold_8hpp__incl_org.svg" target="_base">
           <rect id="button" ry="5" rx="5" y="6" x="6" height="38" width="38"
                fill="#f2f5e9" fill-opacity="0.5" stroke="#606060" stroke-width="1.0"/>
           <path id="arrow"
             d="M 11.500037,31.436501 C 11.940474,20.09759 22.043105,11.32322 32.158766,21.979434 L 37.068811,17.246167 C 37.068811,17.246167 37.088388,32 37.088388,32 L 22.160133,31.978069 C 22.160133,31.978069 26.997745,27.140456 26.997745,27.140456 C 18.528582,18.264221 13.291696,25.230495 11.500037,31.436501 z"
             style="fill:#404040;"/>
          </a>
         </g>
        </svg>
</svg>
