<?xml version="1.0" encoding="UTF-8" standalone="no"?>
<!DOCTYPE svg PUBLIC "-//W3C//DTD SVG 1.1//EN"
 "http://www.w3.org/Graphics/SVG/1.1/DTD/svg11.dtd">
<!-- Generated by graphviz version 2.43.0 (0)
 -->
<!-- Title: include/Metropolis.hpp Pages: 1 -->
<!--zoomable 610 -->
<svg id="main" version="1.1" xmlns="http://www.w3.org/2000/svg" xmlns:xlink="http://www.w3.org/1999/xlink" xml:space="preserve" onload="init(evt)">
<style type="text/css"><![CDATA[
.edge:hover path { stroke: red; }
.edge:hover polygon { stroke: red; fill: red; }
]]></style>
<script type="text/javascript"><![CDATA[
var edges = document.getElementsByTagName('g');
if (edges && edges.length) {
  for (var i=0;i<edges.length;i++) {
    if (edges[i].id.substr(0,4)=='edge') {
      edges[i].setAttribute('class','edge');
    }
  }
}
]]></script>
        <defs>
                <circle id="rim" cx="0" cy="0" r="7"/>
                <circle id="rim2" cx="0" cy="0" r="3.5"/>
                <g id="zoomPlus">
                        <use xlink:href="#rim" fill="#404040">
                                <set attributeName="fill" to="#808080" begin="zoomplus.mouseover" end="zoomplus.mouseout"/>
                        </use>
                        <path d="M-4,0h8M0,-4v8" fill="none" stroke="white" stroke-width="1.5" pointer-events="none"/>
                </g>
                <g id="zoomMin">
                        <use xlink:href="#rim" fill="#404040">
                                <set attributeName="fill" to="#808080" begin="zoomminus.mouseover" end="zoomminus.mouseout"/>
                        </use>
                        <path d="M-4,0h8" fill="none" stroke="white" stroke-width="1.5" pointer-events="none"/>
                </g>
                <g id="dirArrow">
                        <path fill="none" stroke="white" stroke-width="1.5" d="M0,-3.0v7 M-2.5,-0.5L0,-3.0L2.5,-0.5"/>
                </g>
               <g id="resetDef">
                       <use xlink:href="#rim2" fill="#404040">
                               <set attributeName="fill" to="#808080" begin="reset.mouseover" end="reset.mouseout"/>
                       </use>
               </g>
        </defs>

<script type="text/javascript">
var viewWidth = 2735;
var viewHeight = 610;
var sectionId = 'dynsection-0';
</script>
<script xlink:href="svgpan.js"/>
<svg id="graph" class="graph">
<g id="viewport">
<title>include/Metropolis.hpp</title>
<polygon fill="white" stroke="transparent" points="-4,4 -4,-606 2731,-606 2731,4 -4,4"/>
<!-- Node1 -->
<g id="node1" class="node">
<title>Node1</title>
<g id="a_node1"><a xlink:title="Perform Metropolis&#45;Hastings algorithm on Delaunay Triangulations.">
<polygon fill="#bfbfbf" stroke="black" points="265,-582.5 265,-601.5 393,-601.5 393,-582.5 265,-582.5"/>
<text text-anchor="middle" x="329" y="-589.5" font-family="Helvetica,sans-Serif" font-size="10.00">include/Metropolis.hpp</text>
</a>
</g>
</g>
<!-- Node2 -->
<g id="node2" class="node">
<title>Node2</title>
<g id="a_node2"><a xlink:href="_move__strategy_8hpp.html" target="_top" xlink:title="Template class for move algorithms (strategies) on manifolds.">
<polygon fill="white" stroke="black" points="218.5,-526.5 218.5,-545.5 327.5,-545.5 327.5,-526.5 218.5,-526.5"/>
<text text-anchor="middle" x="273" y="-533.5" font-family="Helvetica,sans-Serif" font-size="10.00">Move_strategy.hpp</text>
</a>
</g>
</g>
<!-- Node1&#45;&gt;Node2 -->
<g id="edge1" class="edge">
<title>Node1&#45;&gt;Node2</title>
<path fill="none" stroke="midnightblue" d="M320,-582.32C311.81,-574.42 299.49,-562.55 289.53,-552.94"/>
<polygon fill="midnightblue" stroke="midnightblue" points="291.79,-550.26 282.16,-545.83 286.93,-555.29 291.79,-550.26"/>
</g>
<!-- Node48 -->
<g id="node48" class="node">
<title>Node48</title>
<g id="a_node48"><a xlink:href="_s3_action_8hpp.html" target="_top" xlink:title="Calculate S3 bulk actions on 3D Delaunay Triangulations.">
<polygon fill="white" stroke="black" points="346,-526.5 346,-545.5 426,-545.5 426,-526.5 346,-526.5"/>
<text text-anchor="middle" x="386" y="-533.5" font-family="Helvetica,sans-Serif" font-size="10.00">S3Action.hpp</text>
</a>
</g>
</g>
<!-- Node1&#45;&gt;Node48 -->
<g id="edge51" class="edge">
<title>Node1&#45;&gt;Node48</title>
<path fill="none" stroke="midnightblue" d="M338.16,-582.32C346.5,-574.42 359.03,-562.55 369.18,-552.94"/>
<polygon fill="midnightblue" stroke="midnightblue" points="371.82,-555.25 376.68,-545.83 367.01,-550.17 371.82,-555.25"/>
</g>
<!-- Node3 -->
<g id="node3" class="node">
<title>Node3</title>
<g id="a_node3"><a xlink:href="_move__command_8hpp.html" target="_top" xlink:title="Do ergodic moves using the Command pattern.">
<polygon fill="white" stroke="black" points="213.5,-470.5 213.5,-489.5 332.5,-489.5 332.5,-470.5 213.5,-470.5"/>
<text text-anchor="middle" x="273" y="-477.5" font-family="Helvetica,sans-Serif" font-size="10.00">Move_command.hpp</text>
</a>
</g>
</g>
<!-- Node2&#45;&gt;Node3 -->
<g id="edge2" class="edge">
<title>Node2&#45;&gt;Node3</title>
<path fill="none" stroke="midnightblue" d="M273,-526.08C273,-519.01 273,-508.86 273,-499.99"/>
<polygon fill="midnightblue" stroke="midnightblue" points="276.5,-499.75 273,-489.75 269.5,-499.75 276.5,-499.75"/>
</g>
<!-- Node4 -->
<g id="node4" class="node">
<title>Node4</title>
<g id="a_node4"><a xlink:href="_apply__move_8hpp.html" target="_top" xlink:title="Apply Pachner moves to foliated Delaunay triangulations.">
<polygon fill="white" stroke="black" points="160,-414.5 160,-433.5 258,-433.5 258,-414.5 160,-414.5"/>
<text text-anchor="middle" x="209" y="-421.5" font-family="Helvetica,sans-Serif" font-size="10.00">Apply_move.hpp</text>
</a>
</g>
</g>
<!-- Node3&#45;&gt;Node4 -->
<g id="edge3" class="edge">
<title>Node3&#45;&gt;Node4</title>
<path fill="none" stroke="midnightblue" d="M262.72,-470.32C253.16,-462.26 238.72,-450.08 227.22,-440.37"/>
<polygon fill="midnightblue" stroke="midnightblue" points="229.37,-437.61 219.47,-433.83 224.86,-442.96 229.37,-437.61"/>
</g>
<!-- Node10 -->
<g id="node10" class="node">
<title>Node10</title>
<g id="a_node10"><a xlink:href="_ergodic__moves__3_8hpp.html" target="_top" xlink:title="Pachner moves on 2+1 dimensional foliated Delaunay triangulations.">
<polygon fill="white" stroke="black" points="279.5,-414.5 279.5,-433.5 402.5,-433.5 402.5,-414.5 279.5,-414.5"/>
<text text-anchor="middle" x="341" y="-421.5" font-family="Helvetica,sans-Serif" font-size="10.00">Ergodic_moves_3.hpp</text>
</a>
</g>
</g>
<!-- Node3&#45;&gt;Node10 -->
<g id="edge9" class="edge">
<title>Node3&#45;&gt;Node10</title>
<path fill="none" stroke="midnightblue" d="M283.93,-470.32C294.17,-462.18 309.72,-449.84 322,-440.09"/>
<polygon fill="midnightblue" stroke="midnightblue" points="324.22,-442.79 329.88,-433.83 319.87,-437.31 324.22,-442.79"/>
</g>
<!-- Node5 -->
<g id="node5" class="node">
<title>Node5</title>
<g id="a_node5"><a xlink:title=" ">
<polygon fill="white" stroke="#bfbfbf" points="173.5,-358.5 173.5,-377.5 238.5,-377.5 238.5,-358.5 173.5,-358.5"/>
<text text-anchor="middle" x="206" y="-365.5" font-family="Helvetica,sans-Serif" font-size="10.00">functional</text>
</a>
</g>
</g>
<!-- Node4&#45;&gt;Node5 -->
<g id="edge4" class="edge">
<title>Node4&#45;&gt;Node5</title>
<path fill="none" stroke="midnightblue" d="M208.5,-414.08C208.11,-407.01 207.55,-396.86 207.05,-387.99"/>
<polygon fill="midnightblue" stroke="midnightblue" points="210.54,-387.54 206.49,-377.75 203.55,-387.93 210.54,-387.54"/>
</g>
<!-- Node6 -->
<g id="node6" class="node">
<title>Node6</title>
<g id="a_node6"><a xlink:title=" ">
<polygon fill="white" stroke="#bfbfbf" points="62.5,-67.5 62.5,-86.5 155.5,-86.5 155.5,-67.5 62.5,-67.5"/>
<text text-anchor="middle" x="109" y="-74.5" font-family="Helvetica,sans-Serif" font-size="10.00">spdlog/spdlog.h</text>
</a>
</g>
</g>
<!-- Node4&#45;&gt;Node6 -->
<g id="edge5" class="edge">
<title>Node4&#45;&gt;Node6</title>
<path fill="none" stroke="midnightblue" d="M218.04,-414.5C226.6,-406 239.26,-392.18 247,-378 261.49,-351.47 267,-343.23 267,-313 267,-313 267,-313 267,-199 267,-166.1 179.55,-115.18 134.77,-91.26"/>
<polygon fill="midnightblue" stroke="midnightblue" points="136.39,-88.16 125.91,-86.59 133.12,-94.35 136.39,-88.16"/>
</g>
<!-- Node7 -->
<g id="node7" class="node">
<title>Node7</title>
<g id="a_node7"><a xlink:title=" ">
<polygon fill="white" stroke="#bfbfbf" points="0,-67.5 0,-86.5 44,-86.5 44,-67.5 0,-67.5"/>
<text text-anchor="middle" x="22" y="-74.5" font-family="Helvetica,sans-Serif" font-size="10.00">string</text>
</a>
</g>
</g>
<!-- Node4&#45;&gt;Node7 -->
<g id="edge6" class="edge">
<title>Node4&#45;&gt;Node7</title>
<path fill="none" stroke="midnightblue" d="M159.68,-422.25C122.39,-419.05 72.42,-408.71 41,-378 19.48,-356.96 22,-343.1 22,-313 22,-313 22,-313 22,-199 22,-162.71 22,-120.31 22,-96.56"/>
<polygon fill="midnightblue" stroke="midnightblue" points="25.5,-96.51 22,-86.51 18.5,-96.51 25.5,-96.51"/>
</g>
<!-- Node8 -->
<g id="node8" class="node">
<title>Node8</title>
<g id="a_node8"><a xlink:title=" ">
<polygon fill="white" stroke="#bfbfbf" points="295,-358.5 295,-377.5 387,-377.5 387,-358.5 295,-358.5"/>
<text text-anchor="middle" x="341" y="-365.5" font-family="Helvetica,sans-Serif" font-size="10.00">tl/expected.hpp</text>
</a>
</g>
</g>
<!-- Node4&#45;&gt;Node8 -->
<g id="edge7" class="edge">
<title>Node4&#45;&gt;Node8</title>
<path fill="none" stroke="midnightblue" d="M229.92,-414.44C251.74,-405.52 286.15,-391.44 310.89,-381.32"/>
<polygon fill="midnightblue" stroke="midnightblue" points="312.25,-384.54 320.18,-377.52 309.6,-378.06 312.25,-384.54"/>
</g>
<!-- Node9 -->
<g id="node9" class="node">
<title>Node9</title>
<g id="a_node9"><a xlink:title=" ">
<polygon fill="white" stroke="#bfbfbf" points="50.5,-358.5 50.5,-377.5 155.5,-377.5 155.5,-358.5 50.5,-358.5"/>
<text text-anchor="middle" x="103" y="-365.5" font-family="Helvetica,sans-Serif" font-size="10.00">tl/function_ref.hpp</text>
</a>
</g>
</g>
<!-- Node4&#45;&gt;Node9 -->
<g id="edge8" class="edge">
<title>Node4&#45;&gt;Node9</title>
<path fill="none" stroke="midnightblue" d="M191.97,-414.32C174.97,-405.66 148.62,-392.24 129.01,-382.25"/>
<polygon fill="midnightblue" stroke="midnightblue" points="130.49,-379.08 119.99,-377.65 127.31,-385.31 130.49,-379.08"/>
</g>
<!-- Node10&#45;&gt;Node8 -->
<g id="edge50" class="edge">
<title>Node10&#45;&gt;Node8</title>
<path fill="none" stroke="midnightblue" d="M341,-414.08C341,-407.01 341,-396.86 341,-387.99"/>
<polygon fill="midnightblue" stroke="midnightblue" points="344.5,-387.75 341,-377.75 337.5,-387.75 344.5,-387.75"/>
</g>
<!-- Node11 -->
<g id="node11" class="node">
<title>Node11</title>
<g id="a_node11"><a xlink:href="_move__tracker_8hpp.html" target="_top" xlink:title="Track ergodic moves.">
<polygon fill="white" stroke="black" points="625.5,-358.5 625.5,-377.5 728.5,-377.5 728.5,-358.5 625.5,-358.5"/>
<text text-anchor="middle" x="677" y="-365.5" font-family="Helvetica,sans-Serif" font-size="10.00">Move_tracker.hpp</text>
</a>
</g>
</g>
<!-- Node10&#45;&gt;Node11 -->
<g id="edge10" class="edge">
<title>Node10&#45;&gt;Node11</title>
<path fill="none" stroke="midnightblue" d="M394.24,-414.44C454.28,-404.79 551.76,-389.13 615.13,-378.94"/>
<polygon fill="midnightblue" stroke="midnightblue" points="616.07,-382.34 625.39,-377.29 614.96,-375.43 616.07,-382.34"/>
</g>
<!-- Node12 -->
<g id="node12" class="node">
<title>Node12</title>
<g id="a_node12"><a xlink:href="_manifold_8hpp.html" target="_top" xlink:title="Data structures for manifolds.">
<polygon fill="white" stroke="black" points="787,-302.5 787,-321.5 867,-321.5 867,-302.5 787,-302.5"/>
<text text-anchor="middle" x="827" y="-309.5" font-family="Helvetica,sans-Serif" font-size="10.00">Manifold.hpp</text>
</a>
</g>
</g>
<!-- Node11&#45;&gt;Node12 -->
<g id="edge11" class="edge">
<title>Node11&#45;&gt;Node12</title>
<path fill="none" stroke="midnightblue" d="M700.77,-358.44C725.89,-349.4 765.71,-335.06 793.9,-324.92"/>
<polygon fill="midnightblue" stroke="midnightblue" points="795.12,-328.2 803.34,-321.52 792.75,-321.61 795.12,-328.2"/>
</g>
<!-- Node13 -->
<g id="node13" class="node">
<title>Node13</title>
<g id="a_node13"><a xlink:href="_geometry_8hpp.html" target="_top" xlink:title="Geometric quantities of Manifold used by MoveAlgorithm.">
<polygon fill="white" stroke="black" points="680.5,-246.5 680.5,-265.5 765.5,-265.5 765.5,-246.5 680.5,-246.5"/>
<text text-anchor="middle" x="723" y="-253.5" font-family="Helvetica,sans-Serif" font-size="10.00">Geometry.hpp</text>
</a>
</g>
</g>
<!-- Node12&#45;&gt;Node13 -->
<g id="edge12" class="edge">
<title>Node12&#45;&gt;Node13</title>
<path fill="none" stroke="midnightblue" d="M810.29,-302.32C793.69,-293.7 768,-280.36 748.78,-270.39"/>
<polygon fill="midnightblue" stroke="midnightblue" points="750.16,-267.16 739.67,-265.65 746.93,-273.37 750.16,-267.16"/>
</g>
<!-- Node45 -->
<g id="node45" class="node">
<title>Node45</title>
<g id="a_node45"><a xlink:title=" ">
<polygon fill="white" stroke="#bfbfbf" points="951.5,-246.5 951.5,-265.5 1004.5,-265.5 1004.5,-246.5 951.5,-246.5"/>
<text text-anchor="middle" x="978" y="-253.5" font-family="Helvetica,sans-Serif" font-size="10.00">cstddef</text>
</a>
</g>
</g>
<!-- Node12&#45;&gt;Node45 -->
<g id="edge47" class="edge">
<title>Node12&#45;&gt;Node45</title>
<path fill="none" stroke="midnightblue" d="M850.93,-302.44C876.22,-293.4 916.3,-279.06 944.68,-268.92"/>
<polygon fill="midnightblue" stroke="midnightblue" points="945.95,-272.18 954.19,-265.52 943.59,-265.59 945.95,-272.18"/>
</g>
<!-- Node46 -->
<g id="node46" class="node">
<title>Node46</title>
<g id="a_node46"><a xlink:title=" ">
<polygon fill="white" stroke="#bfbfbf" points="784,-246.5 784,-265.5 870,-265.5 870,-246.5 784,-246.5"/>
<text text-anchor="middle" x="827" y="-253.5" font-family="Helvetica,sans-Serif" font-size="10.00">unordered_set</text>
</a>
</g>
</g>
<!-- Node12&#45;&gt;Node46 -->
<g id="edge48" class="edge">
<title>Node12&#45;&gt;Node46</title>
<path fill="none" stroke="midnightblue" d="M827,-302.08C827,-295.01 827,-284.86 827,-275.99"/>
<polygon fill="midnightblue" stroke="midnightblue" points="830.5,-275.75 827,-265.75 823.5,-275.75 830.5,-275.75"/>
</g>
<!-- Node47 -->
<g id="node47" class="node">
<title>Node47</title>
<g id="a_node47"><a xlink:title=" ">
<polygon fill="white" stroke="#bfbfbf" points="888.5,-246.5 888.5,-265.5 933.5,-265.5 933.5,-246.5 888.5,-246.5"/>
<text text-anchor="middle" x="911" y="-253.5" font-family="Helvetica,sans-Serif" font-size="10.00">utility</text>
</a>
</g>
</g>
<!-- Node12&#45;&gt;Node47 -->
<g id="edge49" class="edge">
<title>Node12&#45;&gt;Node47</title>
<path fill="none" stroke="midnightblue" d="M840.5,-302.32C853.6,-293.9 873.71,-280.97 889.11,-271.07"/>
<polygon fill="midnightblue" stroke="midnightblue" points="891.02,-274.01 897.54,-265.65 887.23,-268.12 891.02,-274.01"/>
</g>
<!-- Node14 -->
<g id="node14" class="node">
<title>Node14</title>
<g id="a_node14"><a xlink:href="_foliated__triangulation_8hpp.html" target="_top" xlink:title="Create foliated spherical triangulations.">
<polygon fill="white" stroke="black" points="801,-190.5 801,-209.5 945,-209.5 945,-190.5 801,-190.5"/>
<text text-anchor="middle" x="873" y="-197.5" font-family="Helvetica,sans-Serif" font-size="10.00">Foliated_triangulation.hpp</text>
</a>
</g>
</g>
<!-- Node13&#45;&gt;Node14 -->
<g id="edge13" class="edge">
<title>Node13&#45;&gt;Node14</title>
<path fill="none" stroke="midnightblue" d="M746.77,-246.44C771.89,-237.4 811.71,-223.06 839.9,-212.92"/>
<polygon fill="midnightblue" stroke="midnightblue" points="841.12,-216.2 849.34,-209.52 838.75,-209.61 841.12,-216.2"/>
</g>
<!-- Node15 -->
<g id="node15" class="node">
<title>Node15</title>
<g id="a_node15"><a xlink:href="_triangulation__traits_8hpp.html" target="_top" xlink:title="Traits class for particular uses of CGAL.">
<polygon fill="white" stroke="black" points="2056.5,-134.5 2056.5,-153.5 2187.5,-153.5 2187.5,-134.5 2056.5,-134.5"/>
<text text-anchor="middle" x="2122" y="-141.5" font-family="Helvetica,sans-Serif" font-size="10.00">Triangulation_traits.hpp</text>
</a>
</g>
</g>
<!-- Node14&#45;&gt;Node15 -->
<g id="edge14" class="edge">
<title>Node14&#45;&gt;Node15</title>
<path fill="none" stroke="midnightblue" d="M945.09,-195.88C1164.46,-186.4 1822.49,-157.95 2046.42,-148.27"/>
<polygon fill="midnightblue" stroke="midnightblue" points="2046.6,-151.76 2056.44,-147.83 2046.3,-144.77 2046.6,-151.76"/>
</g>
<!-- Node24 -->
<g id="node24" class="node">
<title>Node24</title>
<g id="a_node24"><a xlink:href="_utilities_8hpp.html" target="_top" xlink:title="Utility functions.">
<polygon fill="white" stroke="black" points="878,-134.5 878,-153.5 954,-153.5 954,-134.5 878,-134.5"/>
<text text-anchor="middle" x="916" y="-141.5" font-family="Helvetica,sans-Serif" font-size="10.00">Utilities.hpp</text>
</a>
</g>
</g>
<!-- Node14&#45;&gt;Node24 -->
<g id="edge23" class="edge">
<title>Node14&#45;&gt;Node24</title>
<path fill="none" stroke="midnightblue" d="M880.1,-190.08C886.24,-182.38 895.27,-171.03 902.74,-161.65"/>
<polygon fill="midnightblue" stroke="midnightblue" points="905.54,-163.75 909.03,-153.75 900.06,-159.39 905.54,-163.75"/>
</g>
<!-- Node44 -->
<g id="node44" class="node">
<title>Node44</title>
<g id="a_node44"><a xlink:title=" ">
<polygon fill="white" stroke="#bfbfbf" points="800,-134.5 800,-153.5 860,-153.5 860,-134.5 800,-134.5"/>
<text text-anchor="middle" x="830" y="-141.5" font-family="Helvetica,sans-Serif" font-size="10.00">concepts</text>
</a>
</g>
</g>
<!-- Node14&#45;&gt;Node44 -->
<g id="edge46" class="edge">
<title>Node14&#45;&gt;Node44</title>
<path fill="none" stroke="midnightblue" d="M865.9,-190.08C859.76,-182.38 850.73,-171.03 843.26,-161.65"/>
<polygon fill="midnightblue" stroke="midnightblue" points="845.94,-159.39 836.97,-153.75 840.46,-163.75 845.94,-159.39"/>
</g>
<!-- Node16 -->
<g id="node16" class="node">
<title>Node16</title>
<g id="a_node16"><a xlink:href="_settings_8hpp.html" target="_top" xlink:title="Global integer and precision settings.">
<polygon fill="white" stroke="black" points="1810.5,-67.5 1810.5,-86.5 1887.5,-86.5 1887.5,-67.5 1810.5,-67.5"/>
<text text-anchor="middle" x="1849" y="-74.5" font-family="Helvetica,sans-Serif" font-size="10.00">Settings.hpp</text>
</a>
</g>
</g>
<!-- Node15&#45;&gt;Node16 -->
<g id="edge15" class="edge">
<title>Node15&#45;&gt;Node16</title>
<path fill="none" stroke="midnightblue" d="M2062.94,-134.46C2017.09,-127.05 1952.25,-114.85 1897,-98 1890.27,-95.95 1883.19,-93.29 1876.59,-90.59"/>
<polygon fill="midnightblue" stroke="midnightblue" points="1877.95,-87.36 1867.38,-86.66 1875.21,-93.8 1877.95,-87.36"/>
</g>
<!-- Node19 -->
<g id="node19" class="node">
<title>Node19</title>
<g id="a_node19"><a xlink:title=" ">
<polygon fill="white" stroke="#bfbfbf" points="2547,-67.5 2547,-86.5 2727,-86.5 2727,-67.5 2547,-67.5"/>
<text text-anchor="middle" x="2637" y="-74.5" font-family="Helvetica,sans-Serif" font-size="10.00">CGAL/Delaunay_triangulation_3.h</text>
</a>
</g>
</g>
<!-- Node15&#45;&gt;Node19 -->
<g id="edge18" class="edge">
<title>Node15&#45;&gt;Node19</title>
<path fill="none" stroke="midnightblue" d="M2187.81,-137.76C2270.02,-130.77 2414.88,-117.05 2538,-98 2554.79,-95.4 2573.05,-91.91 2589.27,-88.56"/>
<polygon fill="midnightblue" stroke="midnightblue" points="2590,-91.99 2599.07,-86.51 2588.56,-85.13 2590,-91.99"/>
</g>
<!-- Node20 -->
<g id="node20" class="node">
<title>Node20</title>
<g id="a_node20"><a xlink:title=" ">
<polygon fill="white" stroke="#bfbfbf" points="1905.5,-56.5 1905.5,-97.5 2034.5,-97.5 2034.5,-56.5 1905.5,-56.5"/>
<text text-anchor="start" x="1913.5" y="-85.5" font-family="Helvetica,sans-Serif" font-size="10.00">CGAL/Exact_predicates</text>
<text text-anchor="start" x="1913.5" y="-74.5" font-family="Helvetica,sans-Serif" font-size="10.00">_inexact_constructions</text>
<text text-anchor="middle" x="1970" y="-63.5" font-family="Helvetica,sans-Serif" font-size="10.00">_kernel.h</text>
</a>
</g>
</g>
<!-- Node15&#45;&gt;Node20 -->
<g id="edge19" class="edge">
<title>Node15&#45;&gt;Node20</title>
<path fill="none" stroke="midnightblue" d="M2101.82,-134.37C2082.31,-126.03 2051.88,-113.01 2025.16,-101.59"/>
<polygon fill="midnightblue" stroke="midnightblue" points="2026.46,-98.34 2015.89,-97.63 2023.71,-104.78 2026.46,-98.34"/>
</g>
<!-- Node21 -->
<g id="node21" class="node">
<title>Node21</title>
<g id="a_node21"><a xlink:title=" ">
<polygon fill="white" stroke="#bfbfbf" points="2053,-62 2053,-92 2191,-92 2191,-62 2053,-62"/>
<text text-anchor="start" x="2061" y="-80" font-family="Helvetica,sans-Serif" font-size="10.00">CGAL/Triangulation</text>
<text text-anchor="middle" x="2122" y="-69" font-family="Helvetica,sans-Serif" font-size="10.00">_cell_base_with_info_3.h</text>
</a>
</g>
</g>
<!-- Node15&#45;&gt;Node21 -->
<g id="edge20" class="edge">
<title>Node15&#45;&gt;Node21</title>
<path fill="none" stroke="midnightblue" d="M2122,-134.23C2122,-126.04 2122,-113.42 2122,-102.21"/>
<polygon fill="midnightblue" stroke="midnightblue" points="2125.5,-102.09 2122,-92.09 2118.5,-102.09 2125.5,-102.09"/>
</g>
<!-- Node22 -->
<g id="node22" class="node">
<title>Node22</title>
<g id="a_node22"><a xlink:title=" ">
<polygon fill="white" stroke="#bfbfbf" points="2209,-62 2209,-92 2361,-92 2361,-62 2209,-62"/>
<text text-anchor="start" x="2217" y="-80" font-family="Helvetica,sans-Serif" font-size="10.00">CGAL/Triangulation</text>
<text text-anchor="middle" x="2285" y="-69" font-family="Helvetica,sans-Serif" font-size="10.00">_vertex_base_with_info_3.h</text>
</a>
</g>
</g>
<!-- Node15&#45;&gt;Node22 -->
<g id="edge21" class="edge">
<title>Node15&#45;&gt;Node22</title>
<path fill="none" stroke="midnightblue" d="M2143.65,-134.37C2168.21,-124.57 2208.94,-108.33 2240.39,-95.79"/>
<polygon fill="midnightblue" stroke="midnightblue" points="2241.83,-98.98 2249.82,-92.03 2239.24,-92.48 2241.83,-98.98"/>
</g>
<!-- Node23 -->
<g id="node23" class="node">
<title>Node23</title>
<g id="a_node23"><a xlink:title=" ">
<polygon fill="white" stroke="#bfbfbf" points="2379.5,-67.5 2379.5,-86.5 2528.5,-86.5 2528.5,-67.5 2379.5,-67.5"/>
<text text-anchor="middle" x="2454" y="-74.5" font-family="Helvetica,sans-Serif" font-size="10.00">CGAL/point_generators_3.h</text>
</a>
</g>
</g>
<!-- Node15&#45;&gt;Node23 -->
<g id="edge22" class="edge">
<title>Node15&#45;&gt;Node23</title>
<path fill="none" stroke="midnightblue" d="M2173.93,-134.42C2224.22,-125.91 2302.55,-112.14 2370,-98 2382.97,-95.28 2396.99,-92.06 2409.8,-89"/>
<polygon fill="midnightblue" stroke="midnightblue" points="2410.86,-92.34 2419.76,-86.6 2409.22,-85.54 2410.86,-92.34"/>
</g>
<!-- Node17 -->
<g id="node17" class="node">
<title>Node17</title>
<g id="a_node17"><a xlink:title=" ">
<polygon fill="white" stroke="#bfbfbf" points="1763,-0.5 1763,-19.5 1849,-19.5 1849,-0.5 1763,-0.5"/>
<text text-anchor="middle" x="1806" y="-7.5" font-family="Helvetica,sans-Serif" font-size="10.00">CGAL/Gmpzf.h</text>
</a>
</g>
</g>
<!-- Node16&#45;&gt;Node17 -->
<g id="edge16" class="edge">
<title>Node16&#45;&gt;Node17</title>
<path fill="none" stroke="midnightblue" d="M1843.2,-67.23C1836.62,-57.29 1825.74,-40.84 1817.44,-28.29"/>
<polygon fill="midnightblue" stroke="midnightblue" points="1820.14,-26.04 1811.71,-19.63 1814.31,-29.9 1820.14,-26.04"/>
</g>
<!-- Node18 -->
<g id="node18" class="node">
<title>Node18</title>
<g id="a_node18"><a xlink:title=" ">
<polygon fill="white" stroke="#bfbfbf" points="1867,-0.5 1867,-19.5 1917,-19.5 1917,-0.5 1867,-0.5"/>
<text text-anchor="middle" x="1892" y="-7.5" font-family="Helvetica,sans-Serif" font-size="10.00">cstdint</text>
</a>
</g>
</g>
<!-- Node16&#45;&gt;Node18 -->
<g id="edge17" class="edge">
<title>Node16&#45;&gt;Node18</title>
<path fill="none" stroke="midnightblue" d="M1854.8,-67.23C1861.38,-57.29 1872.26,-40.84 1880.56,-28.29"/>
<polygon fill="midnightblue" stroke="midnightblue" points="1883.69,-29.9 1886.29,-19.63 1877.86,-26.04 1883.69,-29.9"/>
</g>
<!-- Node24&#45;&gt;Node6 -->
<g id="edge44" class="edge">
<title>Node24&#45;&gt;Node6</title>
<path fill="none" stroke="midnightblue" d="M877.85,-135.24C874.86,-134.77 871.89,-134.35 869,-134 557.52,-96.41 471.49,-160.3 164,-98 155.2,-96.22 145.91,-93.28 137.53,-90.2"/>
<polygon fill="midnightblue" stroke="midnightblue" points="138.78,-86.93 128.19,-86.58 136.25,-93.46 138.78,-86.93"/>
</g>
<!-- Node24&#45;&gt;Node7 -->
<g id="edge36" class="edge">
<title>Node24&#45;&gt;Node7</title>
<path fill="none" stroke="midnightblue" d="M877.85,-135.22C874.86,-134.75 871.89,-134.34 869,-134 688.72,-112.88 225.94,-153.12 53,-98 48.74,-96.64 44.51,-94.54 40.59,-92.2"/>
<polygon fill="midnightblue" stroke="midnightblue" points="42.44,-89.23 32.19,-86.55 38.53,-95.03 42.44,-89.23"/>
</g>
<!-- Node24&#45;&gt;Node16 -->
<g id="edge45" class="edge">
<title>Node24&#45;&gt;Node16</title>
<path fill="none" stroke="midnightblue" d="M954.04,-142.8C1101.59,-141.74 1636.05,-135.37 1801,-98 1808.22,-96.36 1815.73,-93.73 1822.62,-90.89"/>
<polygon fill="midnightblue" stroke="midnightblue" points="1824.4,-93.93 1832.14,-86.7 1821.58,-87.53 1824.4,-93.93"/>
</g>
<!-- Node25 -->
<g id="node25" class="node">
<title>Node25</title>
<g id="a_node25"><a xlink:title=" ">
<polygon fill="white" stroke="#bfbfbf" points="302.5,-67.5 302.5,-86.5 385.5,-86.5 385.5,-67.5 302.5,-67.5"/>
<text text-anchor="middle" x="344" y="-74.5" font-family="Helvetica,sans-Serif" font-size="10.00">CGAL/Timer.h</text>
</a>
</g>
</g>
<!-- Node24&#45;&gt;Node25 -->
<g id="edge24" class="edge">
<title>Node24&#45;&gt;Node25</title>
<path fill="none" stroke="midnightblue" d="M877.84,-135.32C874.86,-134.83 871.88,-134.38 869,-134 659.58,-106.09 600.96,-145.09 395,-98 387.14,-96.2 378.88,-93.4 371.36,-90.46"/>
<polygon fill="midnightblue" stroke="midnightblue" points="372.57,-87.17 361.99,-86.58 369.9,-93.64 372.57,-87.17"/>
</g>
<!-- Node26 -->
<g id="node26" class="node">
<title>Node26</title>
<g id="a_node26"><a xlink:title=" ">
<polygon fill="white" stroke="#bfbfbf" points="404,-67.5 404,-86.5 468,-86.5 468,-67.5 404,-67.5"/>
<text text-anchor="middle" x="436" y="-74.5" font-family="Helvetica,sans-Serif" font-size="10.00">algorithm</text>
</a>
</g>
</g>
<!-- Node24&#45;&gt;Node26 -->
<g id="edge25" class="edge">
<title>Node24&#45;&gt;Node26</title>
<path fill="none" stroke="midnightblue" d="M877.83,-135.37C874.85,-134.87 871.88,-134.41 869,-134 695.77,-109.52 645.49,-145.12 477,-98 471.04,-96.33 464.9,-93.82 459.24,-91.13"/>
<polygon fill="midnightblue" stroke="midnightblue" points="460.79,-87.99 450.29,-86.56 457.61,-94.23 460.79,-87.99"/>
</g>
<!-- Node27 -->
<g id="node27" class="node">
<title>Node27</title>
<g id="a_node27"><a xlink:title=" ">
<polygon fill="white" stroke="#bfbfbf" points="486,-67.5 486,-86.5 538,-86.5 538,-67.5 486,-67.5"/>
<text text-anchor="middle" x="512" y="-74.5" font-family="Helvetica,sans-Serif" font-size="10.00">cassert</text>
</a>
</g>
</g>
<!-- Node24&#45;&gt;Node27 -->
<g id="edge26" class="edge">
<title>Node24&#45;&gt;Node27</title>
<path fill="none" stroke="midnightblue" d="M877.82,-135.43C874.84,-134.92 871.87,-134.44 869,-134 727.06,-112.48 684.74,-141.71 548,-98 543.07,-96.42 538.04,-94.14 533.37,-91.67"/>
<polygon fill="midnightblue" stroke="midnightblue" points="534.85,-88.48 524.44,-86.52 531.35,-94.54 534.85,-88.48"/>
</g>
<!-- Node28 -->
<g id="node28" class="node">
<title>Node28</title>
<g id="a_node28"><a xlink:title=" ">
<polygon fill="white" stroke="#bfbfbf" points="556.5,-67.5 556.5,-86.5 605.5,-86.5 605.5,-67.5 556.5,-67.5"/>
<text text-anchor="middle" x="581" y="-74.5" font-family="Helvetica,sans-Serif" font-size="10.00">cstdlib</text>
</a>
</g>
</g>
<!-- Node24&#45;&gt;Node28 -->
<g id="edge27" class="edge">
<title>Node24&#45;&gt;Node28</title>
<path fill="none" stroke="midnightblue" d="M877.81,-135.53C874.83,-134.99 871.87,-134.48 869,-134 756.53,-115.27 722.63,-135.62 615,-98 610.52,-96.43 605.96,-94.25 601.71,-91.89"/>
<polygon fill="midnightblue" stroke="midnightblue" points="603.39,-88.82 593.02,-86.64 599.77,-94.81 603.39,-88.82"/>
</g>
<!-- Node29 -->
<g id="node29" class="node">
<title>Node29</title>
<g id="a_node29"><a xlink:title=" ">
<polygon fill="white" stroke="#bfbfbf" points="624,-67.5 624,-86.5 692,-86.5 692,-67.5 624,-67.5"/>
<text text-anchor="middle" x="658" y="-74.5" font-family="Helvetica,sans-Serif" font-size="10.00">filesystem</text>
</a>
</g>
</g>
<!-- Node24&#45;&gt;Node29 -->
<g id="edge28" class="edge">
<title>Node24&#45;&gt;Node29</title>
<path fill="none" stroke="midnightblue" d="M877.75,-135.43C820.77,-124.08 718.5,-103.41 702,-98 696.08,-96.06 689.88,-93.56 684.08,-90.99"/>
<polygon fill="midnightblue" stroke="midnightblue" points="685.33,-87.71 674.79,-86.68 682.39,-94.06 685.33,-87.71"/>
</g>
<!-- Node30 -->
<g id="node30" class="node">
<title>Node30</title>
<g id="a_node30"><a xlink:title=" ">
<polygon fill="white" stroke="#bfbfbf" points="710.5,-67.5 710.5,-86.5 765.5,-86.5 765.5,-67.5 710.5,-67.5"/>
<text text-anchor="middle" x="738" y="-74.5" font-family="Helvetica,sans-Serif" font-size="10.00">fstream</text>
</a>
</g>
</g>
<!-- Node24&#45;&gt;Node30 -->
<g id="edge29" class="edge">
<title>Node24&#45;&gt;Node30</title>
<path fill="none" stroke="midnightblue" d="M883.46,-134.48C854.47,-126.46 811.18,-113.39 775,-98 770.57,-96.12 765.97,-93.88 761.58,-91.59"/>
<polygon fill="midnightblue" stroke="midnightblue" points="762.91,-88.33 752.45,-86.63 759.57,-94.48 762.91,-88.33"/>
</g>
<!-- Node31 -->
<g id="node31" class="node">
<title>Node31</title>
<g id="a_node31"><a xlink:title=" ">
<polygon fill="white" stroke="#bfbfbf" points="784,-67.5 784,-86.5 832,-86.5 832,-67.5 784,-67.5"/>
<text text-anchor="middle" x="808" y="-74.5" font-family="Helvetica,sans-Serif" font-size="10.00">gsl/gsl</text>
</a>
</g>
</g>
<!-- Node24&#45;&gt;Node31 -->
<g id="edge30" class="edge">
<title>Node24&#45;&gt;Node31</title>
<path fill="none" stroke="midnightblue" d="M901.61,-134.39C886.5,-125.35 862.07,-110.7 841,-98 837.71,-96.02 834.23,-93.92 830.83,-91.85"/>
<polygon fill="midnightblue" stroke="midnightblue" points="832.49,-88.77 822.12,-86.58 828.86,-94.75 832.49,-88.77"/>
</g>
<!-- Node32 -->
<g id="node32" class="node">
<title>Node32</title>
<g id="a_node32"><a xlink:title=" ">
<polygon fill="white" stroke="#bfbfbf" points="850,-67.5 850,-86.5 910,-86.5 910,-67.5 850,-67.5"/>
<text text-anchor="middle" x="880" y="-74.5" font-family="Helvetica,sans-Serif" font-size="10.00">iostream</text>
</a>
</g>
</g>
<!-- Node24&#45;&gt;Node32 -->
<g id="edge31" class="edge">
<title>Node24&#45;&gt;Node32</title>
<path fill="none" stroke="midnightblue" d="M911.14,-134.23C905.69,-124.39 896.7,-108.16 889.78,-95.66"/>
<polygon fill="midnightblue" stroke="midnightblue" points="892.69,-93.68 884.78,-86.63 886.56,-97.07 892.69,-93.68"/>
</g>
<!-- Node33 -->
<g id="node33" class="node">
<title>Node33</title>
<g id="a_node33"><a xlink:title=" ">
<polygon fill="white" stroke="#bfbfbf" points="928,-67.5 928,-86.5 976,-86.5 976,-67.5 928,-67.5"/>
<text text-anchor="middle" x="952" y="-74.5" font-family="Helvetica,sans-Serif" font-size="10.00">mutex</text>
</a>
</g>
</g>
<!-- Node24&#45;&gt;Node33 -->
<g id="edge32" class="edge">
<title>Node24&#45;&gt;Node33</title>
<path fill="none" stroke="midnightblue" d="M920.86,-134.23C926.31,-124.39 935.3,-108.16 942.22,-95.66"/>
<polygon fill="midnightblue" stroke="midnightblue" points="945.44,-97.07 947.22,-86.63 939.31,-93.68 945.44,-97.07"/>
</g>
<!-- Node34 -->
<g id="node34" class="node">
<title>Node34</title>
<g id="a_node34"><a xlink:title=" ">
<polygon fill="white" stroke="#bfbfbf" points="994,-67.5 994,-86.5 1048,-86.5 1048,-67.5 994,-67.5"/>
<text text-anchor="middle" x="1021" y="-74.5" font-family="Helvetica,sans-Serif" font-size="10.00">random</text>
</a>
</g>
</g>
<!-- Node24&#45;&gt;Node34 -->
<g id="edge33" class="edge">
<title>Node24&#45;&gt;Node34</title>
<path fill="none" stroke="midnightblue" d="M930.16,-134.23C947.71,-123.37 977.84,-104.72 998.56,-91.89"/>
<polygon fill="midnightblue" stroke="midnightblue" points="1000.4,-94.87 1007.06,-86.63 996.72,-88.91 1000.4,-94.87"/>
</g>
<!-- Node35 -->
<g id="node35" class="node">
<title>Node35</title>
<g id="a_node35"><a xlink:title=" ">
<polygon fill="white" stroke="#bfbfbf" points="1066,-67.5 1066,-86.5 1106,-86.5 1106,-67.5 1066,-67.5"/>
<text text-anchor="middle" x="1086" y="-74.5" font-family="Helvetica,sans-Serif" font-size="10.00">span</text>
</a>
</g>
</g>
<!-- Node24&#45;&gt;Node35 -->
<g id="edge34" class="edge">
<title>Node24&#45;&gt;Node35</title>
<path fill="none" stroke="midnightblue" d="M952.77,-134.45C981.92,-126.93 1023.21,-114.59 1057,-98 1060.28,-96.39 1063.62,-94.44 1066.8,-92.39"/>
<polygon fill="midnightblue" stroke="midnightblue" points="1068.95,-95.16 1075.18,-86.6 1064.96,-89.41 1068.95,-95.16"/>
</g>
<!-- Node36 -->
<g id="node36" class="node">
<title>Node36</title>
<g id="a_node36"><a xlink:title=" ">
<polygon fill="white" stroke="#bfbfbf" points="1124.5,-67.5 1124.5,-86.5 1189.5,-86.5 1189.5,-67.5 1124.5,-67.5"/>
<text text-anchor="middle" x="1157" y="-74.5" font-family="Helvetica,sans-Serif" font-size="10.00">stdexcept</text>
</a>
</g>
</g>
<!-- Node24&#45;&gt;Node36 -->
<g id="edge35" class="edge">
<title>Node24&#45;&gt;Node36</title>
<path fill="none" stroke="midnightblue" d="M954.11,-136.98C994.68,-129.97 1060.44,-116.89 1115,-98 1120.53,-96.08 1126.3,-93.65 1131.73,-91.14"/>
<polygon fill="midnightblue" stroke="midnightblue" points="1133.52,-94.16 1141,-86.65 1130.47,-87.86 1133.52,-94.16"/>
</g>
<!-- Node37 -->
<g id="node37" class="node">
<title>Node37</title>
<g id="a_node37"><a xlink:title=" ">
<polygon fill="white" stroke="#bfbfbf" points="1207.5,-67.5 1207.5,-86.5 1272.5,-86.5 1272.5,-67.5 1207.5,-67.5"/>
<text text-anchor="middle" x="1240" y="-74.5" font-family="Helvetica,sans-Serif" font-size="10.00">typeindex</text>
</a>
</g>
</g>
<!-- Node24&#45;&gt;Node37 -->
<g id="edge37" class="edge">
<title>Node24&#45;&gt;Node37</title>
<path fill="none" stroke="midnightblue" d="M954.36,-140.51C1009.55,-136.13 1114.08,-124.81 1199,-98 1204.66,-96.21 1210.53,-93.75 1215.99,-91.17"/>
<polygon fill="midnightblue" stroke="midnightblue" points="1217.89,-94.13 1225.25,-86.51 1214.75,-87.88 1217.89,-94.13"/>
</g>
<!-- Node38 -->
<g id="node38" class="node">
<title>Node38</title>
<g id="a_node38"><a xlink:title=" ">
<polygon fill="white" stroke="#bfbfbf" points="1290.5,-67.5 1290.5,-86.5 1349.5,-86.5 1349.5,-67.5 1290.5,-67.5"/>
<text text-anchor="middle" x="1320" y="-74.5" font-family="Helvetica,sans-Serif" font-size="10.00">date/tz.h</text>
</a>
</g>
</g>
<!-- Node24&#45;&gt;Node38 -->
<g id="edge38" class="edge">
<title>Node24&#45;&gt;Node38</title>
<path fill="none" stroke="midnightblue" d="M954.09,-142.8C1021.68,-141.47 1166.38,-134.2 1282,-98 1287.2,-96.37 1292.53,-94.04 1297.49,-91.54"/>
<polygon fill="midnightblue" stroke="midnightblue" points="1299.34,-94.53 1306.45,-86.67 1295.99,-88.38 1299.34,-94.53"/>
</g>
<!-- Node39 -->
<g id="node39" class="node">
<title>Node39</title>
<g id="a_node39"><a xlink:title=" ">
<polygon fill="white" stroke="#bfbfbf" points="1368,-67.5 1368,-86.5 1466,-86.5 1466,-67.5 1368,-67.5"/>
<text text-anchor="middle" x="1417" y="-74.5" font-family="Helvetica,sans-Serif" font-size="10.00">pcg_random.hpp</text>
</a>
</g>
</g>
<!-- Node24&#45;&gt;Node39 -->
<g id="edge39" class="edge">
<title>Node24&#45;&gt;Node39</title>
<path fill="none" stroke="midnightblue" d="M954.1,-142.08C1031.34,-139.58 1211.59,-130.45 1359,-98 1368.15,-95.99 1377.85,-93 1386.65,-89.94"/>
<polygon fill="midnightblue" stroke="midnightblue" points="1387.91,-93.21 1396.12,-86.51 1385.53,-86.62 1387.91,-93.21"/>
</g>
<!-- Node40 -->
<g id="node40" class="node">
<title>Node40</title>
<g id="a_node40"><a xlink:title=" ">
<polygon fill="white" stroke="#bfbfbf" points="1484.5,-67.5 1484.5,-86.5 1563.5,-86.5 1563.5,-67.5 1484.5,-67.5"/>
<text text-anchor="middle" x="1524" y="-74.5" font-family="Helvetica,sans-Serif" font-size="10.00">fmt/format.h</text>
</a>
</g>
</g>
<!-- Node24&#45;&gt;Node40 -->
<g id="edge40" class="edge">
<title>Node24&#45;&gt;Node40</title>
<path fill="none" stroke="midnightblue" d="M954.03,-141.46C1063.1,-136.8 1375.55,-121.7 1475,-98 1482.5,-96.21 1490.34,-93.45 1497.5,-90.54"/>
<polygon fill="midnightblue" stroke="midnightblue" points="1498.94,-93.73 1506.74,-86.57 1496.17,-87.3 1498.94,-93.73"/>
</g>
<!-- Node41 -->
<g id="node41" class="node">
<title>Node41</title>
<g id="a_node41"><a xlink:title=" ">
<polygon fill="white" stroke="#bfbfbf" points="1582,-67.5 1582,-86.5 1668,-86.5 1668,-67.5 1582,-67.5"/>
<text text-anchor="middle" x="1625" y="-74.5" font-family="Helvetica,sans-Serif" font-size="10.00">fmt/ostream.h</text>
</a>
</g>
</g>
<!-- Node24&#45;&gt;Node41 -->
<g id="edge41" class="edge">
<title>Node24&#45;&gt;Node41</title>
<path fill="none" stroke="midnightblue" d="M954.03,-141.88C1075.59,-138.09 1453.7,-124.4 1573,-98 1581.1,-96.21 1589.61,-93.37 1597.35,-90.39"/>
<polygon fill="midnightblue" stroke="midnightblue" points="1598.7,-93.62 1606.64,-86.61 1596.06,-87.14 1598.7,-93.62"/>
</g>
<!-- Node42 -->
<g id="node42" class="node">
<title>Node42</title>
<g id="a_node42"><a xlink:title=" ">
<polygon fill="white" stroke="#bfbfbf" points="1686,-62 1686,-92 1792,-92 1792,-62 1686,-62"/>
<text text-anchor="start" x="1694" y="-80" font-family="Helvetica,sans-Serif" font-size="10.00">spdlog/sinks/basic</text>
<text text-anchor="middle" x="1739" y="-69" font-family="Helvetica,sans-Serif" font-size="10.00">_file_sink.h</text>
</a>
</g>
</g>
<!-- Node24&#45;&gt;Node42 -->
<g id="edge42" class="edge">
<title>Node24&#45;&gt;Node42</title>
<path fill="none" stroke="midnightblue" d="M954.24,-142.02C1088.24,-138.37 1536.03,-124.46 1677,-98 1681.5,-97.16 1686.12,-96.08 1690.72,-94.86"/>
<polygon fill="midnightblue" stroke="midnightblue" points="1692.04,-98.13 1700.69,-92.02 1690.12,-91.4 1692.04,-98.13"/>
</g>
<!-- Node43 -->
<g id="node43" class="node">
<title>Node43</title>
<g id="a_node43"><a xlink:title=" ">
<polygon fill="white" stroke="#bfbfbf" points="173.5,-62 173.5,-92 284.5,-92 284.5,-62 173.5,-62"/>
<text text-anchor="start" x="181.5" y="-80" font-family="Helvetica,sans-Serif" font-size="10.00">spdlog/sinks/stdout</text>
<text text-anchor="middle" x="229" y="-69" font-family="Helvetica,sans-Serif" font-size="10.00">_color_sinks.h</text>
</a>
</g>
</g>
<!-- Node24&#45;&gt;Node43 -->
<g id="edge43" class="edge">
<title>Node24&#45;&gt;Node43</title>
<path fill="none" stroke="midnightblue" d="M877.85,-135.27C874.86,-134.8 871.88,-134.36 869,-134 614.53,-101.82 545.23,-144.59 293,-98 288.31,-97.13 283.48,-96.03 278.68,-94.79"/>
<polygon fill="midnightblue" stroke="midnightblue" points="279.49,-91.38 268.91,-92.09 277.62,-98.13 279.49,-91.38"/>
</g>
<!-- Node49 -->
<g id="node49" class="node">
<title>Node49</title>
<g id="a_node49"><a xlink:title=" ">
<polygon fill="white" stroke="#bfbfbf" points="362,-470.5 362,-489.5 410,-489.5 410,-470.5 362,-470.5"/>
<text text-anchor="middle" x="386" y="-477.5" font-family="Helvetica,sans-Serif" font-size="10.00">mpfr.h</text>
</a>
</g>
</g>
<!-- Node48&#45;&gt;Node49 -->
<g id="edge52" class="edge">
<title>Node48&#45;&gt;Node49</title>
<path fill="none" stroke="midnightblue" d="M386,-526.08C386,-519.01 386,-508.86 386,-499.99"/>
<polygon fill="midnightblue" stroke="midnightblue" points="389.5,-499.75 386,-489.75 382.5,-499.75 389.5,-499.75"/>
</g>
</g>
</svg>
        <g id="navigator" transform="translate(0 0)" fill="#404254">
                <rect fill="#f2f5e9" fill-opacity="0.5" stroke="#606060" stroke-width=".5" x="0" y="0" width="60" height="60"/>
                <use id="zoomplus" xlink:href="#zoomPlus" x="17" y="9" onmousedown="handleZoom(evt,'in')"/>
                <use id="zoomminus" xlink:href="#zoomMin" x="42" y="9" onmousedown="handleZoom(evt,'out')"/>
                <use id="reset" xlink:href="#resetDef" x="30" y="36" onmousedown="handleReset()"/>
                <g id="arrowUp" xlink:href="#dirArrow" transform="translate(30 24)" onmousedown="handlePan(0,-1)">
                  <use xlink:href="#rim" fill="#404040">
                        <set attributeName="fill" to="#808080" begin="arrowUp.mouseover" end="arrowUp.mouseout"/>
                  </use>
                  <path fill="none" stroke="white" stroke-width="1.5" d="M0,-3.0v7 M-2.5,-0.5L0,-3.0L2.5,-0.5"/>
                </g>
                <g id="arrowRight" xlink:href="#dirArrow" transform="rotate(90) translate(36 -43)" onmousedown="handlePan(1,0)">
                  <use xlink:href="#rim" fill="#404040">
                        <set attributeName="fill" to="#808080" begin="arrowRight.mouseover" end="arrowRight.mouseout"/>
                  </use>
                  <path fill="none" stroke="white" stroke-width="1.5" d="M0,-3.0v7 M-2.5,-0.5L0,-3.0L2.5,-0.5"/>
                </g>
                <g id="arrowDown" xlink:href="#dirArrow" transform="rotate(180) translate(-30 -48)" onmousedown="handlePan(0,1)">
                  <use xlink:href="#rim" fill="#404040">
                        <set attributeName="fill" to="#808080" begin="arrowDown.mouseover" end="arrowDown.mouseout"/>
                  </use>
                  <path fill="none" stroke="white" stroke-width="1.5" d="M0,-3.0v7 M-2.5,-0.5L0,-3.0L2.5,-0.5"/>
                </g>
                <g id="arrowLeft" xlink:href="#dirArrow" transform="rotate(270) translate(-36 17)" onmousedown="handlePan(-1,0)">
                  <use xlink:href="#rim" fill="#404040">
                        <set attributeName="fill" to="#808080" begin="arrowLeft.mouseover" end="arrowLeft.mouseout"/>
                  </use>
                  <path fill="none" stroke="white" stroke-width="1.5" d="M0,-3.0v7 M-2.5,-0.5L0,-3.0L2.5,-0.5"/>
                </g>
        </g>
        <svg viewBox="0 0 15 15" width="100%" height="30px" preserveAspectRatio="xMaxYMin meet">
         <g id="arrow_out" transform="scale(0.3 0.3)">
          <a xlink:href="_metropolis_8hpp__incl_org.svg" target="_base">
           <rect id="button" ry="5" rx="5" y="6" x="6" height="38" width="38"
                fill="#f2f5e9" fill-opacity="0.5" stroke="#606060" stroke-width="1.0"/>
           <path id="arrow"
             d="M 11.500037,31.436501 C 11.940474,20.09759 22.043105,11.32322 32.158766,21.979434 L 37.068811,17.246167 C 37.068811,17.246167 37.088388,32 37.088388,32 L 22.160133,31.978069 C 22.160133,31.978069 26.997745,27.140456 26.997745,27.140456 C 18.528582,18.264221 13.291696,25.230495 11.500037,31.436501 z"
             style="fill:#404040;"/>
          </a>
         </g>
        </svg>
</svg>
