<?xml version="1.0" encoding="UTF-8" standalone="no"?>
<!DOCTYPE svg PUBLIC "-//W3C//DTD SVG 1.1//EN"
 "http://www.w3.org/Graphics/SVG/1.1/DTD/svg11.dtd">
<!-- Generated by graphviz version 2.43.0 (0)
 -->
<!-- Title: include/Metropolis.hpp Pages: 1 -->
<!--zoomable 610 -->
<svg id="main" version="1.1" xmlns="http://www.w3.org/2000/svg" xmlns:xlink="http://www.w3.org/1999/xlink" xml:space="preserve" onload="init(evt)">
<style type="text/css"><![CDATA[
.edge:hover path { stroke: red; }
.edge:hover polygon { stroke: red; fill: red; }
]]></style>
<script type="text/javascript"><![CDATA[
var edges = document.getElementsByTagName('g');
if (edges && edges.length) {
  for (var i=0;i<edges.length;i++) {
    if (edges[i].id.substr(0,4)=='edge') {
      edges[i].setAttribute('class','edge');
    }
  }
}
]]></script>
        <defs>
                <circle id="rim" cx="0" cy="0" r="7"/>
                <circle id="rim2" cx="0" cy="0" r="3.5"/>
                <g id="zoomPlus">
                        <use xlink:href="#rim" fill="#404040">
                                <set attributeName="fill" to="#808080" begin="zoomplus.mouseover" end="zoomplus.mouseout"/>
                        </use>
                        <path d="M-4,0h8M0,-4v8" fill="none" stroke="white" stroke-width="1.5" pointer-events="none"/>
                </g>
                <g id="zoomMin">
                        <use xlink:href="#rim" fill="#404040">
                                <set attributeName="fill" to="#808080" begin="zoomminus.mouseover" end="zoomminus.mouseout"/>
                        </use>
                        <path d="M-4,0h8" fill="none" stroke="white" stroke-width="1.5" pointer-events="none"/>
                </g>
                <g id="dirArrow">
                        <path fill="none" stroke="white" stroke-width="1.5" d="M0,-3.0v7 M-2.5,-0.5L0,-3.0L2.5,-0.5"/>
                </g>
               <g id="resetDef">
                       <use xlink:href="#rim2" fill="#404040">
                               <set attributeName="fill" to="#808080" begin="reset.mouseover" end="reset.mouseout"/>
                       </use>
               </g>
        </defs>

<script type="text/javascript">
var viewWidth = 2735;
var viewHeight = 610;
var sectionId = 'dynsection-0';
</script>
<script xlink:href="svgpan.js"/>
<svg id="graph" class="graph">
<g id="viewport">
<title>include/Metropolis.hpp</title>
<polygon fill="white" stroke="transparent" points="-4,4 -4,-606 2731,-606 2731,4 -4,4"/>
<!-- Node1 -->
<g id="node1" class="node">
<title>Node1</title>
<g id="a_node1"><a xlink:title="Perform Metropolis&#45;Hastings algorithm on Delaunay Triangulations.">
<polygon fill="#bfbfbf" stroke="black" points="907,-582.5 907,-601.5 1035,-601.5 1035,-582.5 907,-582.5"/>
<text text-anchor="middle" x="971" y="-589.5" font-family="Helvetica,sans-Serif" font-size="10.00">include/Metropolis.hpp</text>
</a>
</g>
</g>
<!-- Node2 -->
<g id="node2" class="node">
<title>Node2</title>
<g id="a_node2"><a xlink:href="_move__strategy_8hpp.html" target="_top" xlink:title="Template class for move algorithms (strategies) on manifolds.">
<polygon fill="white" stroke="black" points="860.5,-526.5 860.5,-545.5 969.5,-545.5 969.5,-526.5 860.5,-526.5"/>
<text text-anchor="middle" x="915" y="-533.5" font-family="Helvetica,sans-Serif" font-size="10.00">Move_strategy.hpp</text>
</a>
</g>
</g>
<!-- Node1&#45;&gt;Node2 -->
<g id="edge1" class="edge">
<title>Node1&#45;&gt;Node2</title>
<path fill="none" stroke="midnightblue" d="M962,-582.32C953.81,-574.42 941.49,-562.55 931.53,-552.94"/>
<polygon fill="midnightblue" stroke="midnightblue" points="933.79,-550.26 924.16,-545.83 928.93,-555.29 933.79,-550.26"/>
</g>
<!-- Node47 -->
<g id="node47" class="node">
<title>Node47</title>
<g id="a_node47"><a xlink:href="_s3_action_8hpp.html" target="_top" xlink:title="Calculate S3 bulk actions on 3D Delaunay Triangulations.">
<polygon fill="white" stroke="black" points="988,-526.5 988,-545.5 1068,-545.5 1068,-526.5 988,-526.5"/>
<text text-anchor="middle" x="1028" y="-533.5" font-family="Helvetica,sans-Serif" font-size="10.00">S3Action.hpp</text>
</a>
</g>
</g>
<!-- Node1&#45;&gt;Node47 -->
<g id="edge50" class="edge">
<title>Node1&#45;&gt;Node47</title>
<path fill="none" stroke="midnightblue" d="M980.16,-582.32C988.5,-574.42 1001.03,-562.55 1011.18,-552.94"/>
<polygon fill="midnightblue" stroke="midnightblue" points="1013.82,-555.25 1018.68,-545.83 1009.01,-550.17 1013.82,-555.25"/>
</g>
<!-- Node3 -->
<g id="node3" class="node">
<title>Node3</title>
<g id="a_node3"><a xlink:href="_move__command_8hpp.html" target="_top" xlink:title="Do ergodic moves using the Command pattern.">
<polygon fill="white" stroke="black" points="855.5,-470.5 855.5,-489.5 974.5,-489.5 974.5,-470.5 855.5,-470.5"/>
<text text-anchor="middle" x="915" y="-477.5" font-family="Helvetica,sans-Serif" font-size="10.00">Move_command.hpp</text>
</a>
</g>
</g>
<!-- Node2&#45;&gt;Node3 -->
<g id="edge2" class="edge">
<title>Node2&#45;&gt;Node3</title>
<path fill="none" stroke="midnightblue" d="M915,-526.08C915,-519.01 915,-508.86 915,-499.99"/>
<polygon fill="midnightblue" stroke="midnightblue" points="918.5,-499.75 915,-489.75 911.5,-499.75 918.5,-499.75"/>
</g>
<!-- Node4 -->
<g id="node4" class="node">
<title>Node4</title>
<g id="a_node4"><a xlink:href="_apply__move_8hpp.html" target="_top" xlink:title="Apply Pachner moves to foliated Delaunay triangulations.">
<polygon fill="white" stroke="black" points="802,-414.5 802,-433.5 900,-433.5 900,-414.5 802,-414.5"/>
<text text-anchor="middle" x="851" y="-421.5" font-family="Helvetica,sans-Serif" font-size="10.00">Apply_move.hpp</text>
</a>
</g>
</g>
<!-- Node3&#45;&gt;Node4 -->
<g id="edge3" class="edge">
<title>Node3&#45;&gt;Node4</title>
<path fill="none" stroke="midnightblue" d="M904.72,-470.32C895.16,-462.26 880.72,-450.08 869.22,-440.37"/>
<polygon fill="midnightblue" stroke="midnightblue" points="871.37,-437.61 861.47,-433.83 866.86,-442.96 871.37,-437.61"/>
</g>
<!-- Node10 -->
<g id="node10" class="node">
<title>Node10</title>
<g id="a_node10"><a xlink:href="_ergodic__moves__3_8hpp.html" target="_top" xlink:title="Pachner moves on 2+1 dimensional foliated Delaunay triangulations.">
<polygon fill="white" stroke="black" points="921.5,-414.5 921.5,-433.5 1044.5,-433.5 1044.5,-414.5 921.5,-414.5"/>
<text text-anchor="middle" x="983" y="-421.5" font-family="Helvetica,sans-Serif" font-size="10.00">Ergodic_moves_3.hpp</text>
</a>
</g>
</g>
<!-- Node3&#45;&gt;Node10 -->
<g id="edge9" class="edge">
<title>Node3&#45;&gt;Node10</title>
<path fill="none" stroke="midnightblue" d="M925.93,-470.32C936.17,-462.18 951.72,-449.84 964,-440.09"/>
<polygon fill="midnightblue" stroke="midnightblue" points="966.22,-442.79 971.88,-433.83 961.87,-437.31 966.22,-442.79"/>
</g>
<!-- Node5 -->
<g id="node5" class="node">
<title>Node5</title>
<g id="a_node5"><a xlink:title=" ">
<polygon fill="white" stroke="#bfbfbf" points="815.5,-358.5 815.5,-377.5 880.5,-377.5 880.5,-358.5 815.5,-358.5"/>
<text text-anchor="middle" x="848" y="-365.5" font-family="Helvetica,sans-Serif" font-size="10.00">functional</text>
</a>
</g>
</g>
<!-- Node4&#45;&gt;Node5 -->
<g id="edge4" class="edge">
<title>Node4&#45;&gt;Node5</title>
<path fill="none" stroke="midnightblue" d="M850.5,-414.08C850.11,-407.01 849.55,-396.86 849.05,-387.99"/>
<polygon fill="midnightblue" stroke="midnightblue" points="852.54,-387.54 848.49,-377.75 845.55,-387.93 852.54,-387.54"/>
</g>
<!-- Node6 -->
<g id="node6" class="node">
<title>Node6</title>
<g id="a_node6"><a xlink:title=" ">
<polygon fill="white" stroke="#bfbfbf" points="997.5,-67.5 997.5,-86.5 1090.5,-86.5 1090.5,-67.5 997.5,-67.5"/>
<text text-anchor="middle" x="1044" y="-74.5" font-family="Helvetica,sans-Serif" font-size="10.00">spdlog/spdlog.h</text>
</a>
</g>
</g>
<!-- Node4&#45;&gt;Node6 -->
<g id="edge5" class="edge">
<title>Node4&#45;&gt;Node6</title>
<path fill="none" stroke="midnightblue" d="M860.04,-414.5C868.6,-406 881.26,-392.18 889,-378 903.49,-351.47 909,-343.23 909,-313 909,-313 909,-313 909,-199 909,-144.34 971.14,-108.15 1011.1,-90.53"/>
<polygon fill="midnightblue" stroke="midnightblue" points="1012.64,-93.68 1020.48,-86.55 1009.91,-87.23 1012.64,-93.68"/>
</g>
<!-- Node7 -->
<g id="node7" class="node">
<title>Node7</title>
<g id="a_node7"><a xlink:title=" ">
<polygon fill="white" stroke="#bfbfbf" points="0,-67.5 0,-86.5 44,-86.5 44,-67.5 0,-67.5"/>
<text text-anchor="middle" x="22" y="-74.5" font-family="Helvetica,sans-Serif" font-size="10.00">string</text>
</a>
</g>
</g>
<!-- Node4&#45;&gt;Node7 -->
<g id="edge6" class="edge">
<title>Node4&#45;&gt;Node7</title>
<path fill="none" stroke="midnightblue" d="M802,-417.37C708.53,-405.25 514,-372.85 514,-313 514,-313 514,-313 514,-199 514,-94.13 149.83,-138.29 53,-98 49.18,-96.41 45.32,-94.35 41.68,-92.16"/>
<polygon fill="midnightblue" stroke="midnightblue" points="43.51,-89.18 33.23,-86.64 39.68,-95.04 43.51,-89.18"/>
</g>
<!-- Node8 -->
<g id="node8" class="node">
<title>Node8</title>
<g id="a_node8"><a xlink:title=" ">
<polygon fill="white" stroke="#bfbfbf" points="937,-358.5 937,-377.5 1029,-377.5 1029,-358.5 937,-358.5"/>
<text text-anchor="middle" x="983" y="-365.5" font-family="Helvetica,sans-Serif" font-size="10.00">tl/expected.hpp</text>
</a>
</g>
</g>
<!-- Node4&#45;&gt;Node8 -->
<g id="edge7" class="edge">
<title>Node4&#45;&gt;Node8</title>
<path fill="none" stroke="midnightblue" d="M871.92,-414.44C893.74,-405.52 928.15,-391.44 952.89,-381.32"/>
<polygon fill="midnightblue" stroke="midnightblue" points="954.25,-384.54 962.18,-377.52 951.6,-378.06 954.25,-384.54"/>
</g>
<!-- Node9 -->
<g id="node9" class="node">
<title>Node9</title>
<g id="a_node9"><a xlink:title=" ">
<polygon fill="white" stroke="#bfbfbf" points="380.5,-358.5 380.5,-377.5 485.5,-377.5 485.5,-358.5 380.5,-358.5"/>
<text text-anchor="middle" x="433" y="-365.5" font-family="Helvetica,sans-Serif" font-size="10.00">tl/function_ref.hpp</text>
</a>
</g>
</g>
<!-- Node4&#45;&gt;Node9 -->
<g id="edge8" class="edge">
<title>Node4&#45;&gt;Node9</title>
<path fill="none" stroke="midnightblue" d="M801.87,-416.8C733.98,-408.2 607.66,-392.13 500,-378 498.55,-377.81 497.07,-377.62 495.59,-377.42"/>
<polygon fill="midnightblue" stroke="midnightblue" points="496.04,-373.95 485.66,-376.1 495.12,-380.89 496.04,-373.95"/>
</g>
<!-- Node10&#45;&gt;Node8 -->
<g id="edge49" class="edge">
<title>Node10&#45;&gt;Node8</title>
<path fill="none" stroke="midnightblue" d="M983,-414.08C983,-407.01 983,-396.86 983,-387.99"/>
<polygon fill="midnightblue" stroke="midnightblue" points="986.5,-387.75 983,-377.75 979.5,-387.75 986.5,-387.75"/>
</g>
<!-- Node11 -->
<g id="node11" class="node">
<title>Node11</title>
<g id="a_node11"><a xlink:href="_move__tracker_8hpp.html" target="_top" xlink:title="Track ergodic moves.">
<polygon fill="white" stroke="black" points="1047.5,-358.5 1047.5,-377.5 1150.5,-377.5 1150.5,-358.5 1047.5,-358.5"/>
<text text-anchor="middle" x="1099" y="-365.5" font-family="Helvetica,sans-Serif" font-size="10.00">Move_tracker.hpp</text>
</a>
</g>
</g>
<!-- Node10&#45;&gt;Node11 -->
<g id="edge10" class="edge">
<title>Node10&#45;&gt;Node11</title>
<path fill="none" stroke="midnightblue" d="M1001.38,-414.44C1020.22,-405.68 1049.73,-391.94 1071.38,-381.86"/>
<polygon fill="midnightblue" stroke="midnightblue" points="1073.12,-384.91 1080.71,-377.52 1070.16,-378.56 1073.12,-384.91"/>
</g>
<!-- Node12 -->
<g id="node12" class="node">
<title>Node12</title>
<g id="a_node12"><a xlink:href="_manifold_8hpp.html" target="_top" xlink:title="Data structures for manifolds.">
<polygon fill="white" stroke="black" points="734,-302.5 734,-321.5 814,-321.5 814,-302.5 734,-302.5"/>
<text text-anchor="middle" x="774" y="-309.5" font-family="Helvetica,sans-Serif" font-size="10.00">Manifold.hpp</text>
</a>
</g>
</g>
<!-- Node11&#45;&gt;Node12 -->
<g id="edge11" class="edge">
<title>Node11&#45;&gt;Node12</title>
<path fill="none" stroke="midnightblue" d="M1047.5,-358.44C986.42,-348.29 885.26,-331.49 824.58,-321.4"/>
<polygon fill="midnightblue" stroke="midnightblue" points="824.91,-317.91 814.47,-319.73 823.77,-324.82 824.91,-317.91"/>
</g>
<!-- Node13 -->
<g id="node13" class="node">
<title>Node13</title>
<g id="a_node13"><a xlink:href="_geometry_8hpp.html" target="_top" xlink:title="Geometric quantities of Manifold used by MoveAlgorithm.">
<polygon fill="white" stroke="black" points="556.5,-246.5 556.5,-265.5 641.5,-265.5 641.5,-246.5 556.5,-246.5"/>
<text text-anchor="middle" x="599" y="-253.5" font-family="Helvetica,sans-Serif" font-size="10.00">Geometry.hpp</text>
</a>
</g>
</g>
<!-- Node12&#45;&gt;Node13 -->
<g id="edge12" class="edge">
<title>Node12&#45;&gt;Node13</title>
<path fill="none" stroke="midnightblue" d="M746.27,-302.44C716.57,-293.28 669.28,-278.69 636.33,-268.52"/>
<polygon fill="midnightblue" stroke="midnightblue" points="637.19,-265.12 626.6,-265.52 635.12,-271.81 637.19,-265.12"/>
</g>
<!-- Node44 -->
<g id="node44" class="node">
<title>Node44</title>
<g id="a_node44"><a xlink:title=" ">
<polygon fill="white" stroke="#bfbfbf" points="659.5,-246.5 659.5,-265.5 712.5,-265.5 712.5,-246.5 659.5,-246.5"/>
<text text-anchor="middle" x="686" y="-253.5" font-family="Helvetica,sans-Serif" font-size="10.00">cstddef</text>
</a>
</g>
</g>
<!-- Node12&#45;&gt;Node44 -->
<g id="edge46" class="edge">
<title>Node12&#45;&gt;Node44</title>
<path fill="none" stroke="midnightblue" d="M759.86,-302.32C746.13,-293.9 725.06,-280.97 708.94,-271.07"/>
<polygon fill="midnightblue" stroke="midnightblue" points="710.46,-267.9 700.1,-265.65 706.8,-273.87 710.46,-267.9"/>
</g>
<!-- Node45 -->
<g id="node45" class="node">
<title>Node45</title>
<g id="a_node45"><a xlink:title=" ">
<polygon fill="white" stroke="#bfbfbf" points="731,-246.5 731,-265.5 817,-265.5 817,-246.5 731,-246.5"/>
<text text-anchor="middle" x="774" y="-253.5" font-family="Helvetica,sans-Serif" font-size="10.00">unordered_set</text>
</a>
</g>
</g>
<!-- Node12&#45;&gt;Node45 -->
<g id="edge47" class="edge">
<title>Node12&#45;&gt;Node45</title>
<path fill="none" stroke="midnightblue" d="M774,-302.08C774,-295.01 774,-284.86 774,-275.99"/>
<polygon fill="midnightblue" stroke="midnightblue" points="777.5,-275.75 774,-265.75 770.5,-275.75 777.5,-275.75"/>
</g>
<!-- Node46 -->
<g id="node46" class="node">
<title>Node46</title>
<g id="a_node46"><a xlink:title=" ">
<polygon fill="white" stroke="#bfbfbf" points="835.5,-246.5 835.5,-265.5 880.5,-265.5 880.5,-246.5 835.5,-246.5"/>
<text text-anchor="middle" x="858" y="-253.5" font-family="Helvetica,sans-Serif" font-size="10.00">utility</text>
</a>
</g>
</g>
<!-- Node12&#45;&gt;Node46 -->
<g id="edge48" class="edge">
<title>Node12&#45;&gt;Node46</title>
<path fill="none" stroke="midnightblue" d="M787.5,-302.32C800.6,-293.9 820.71,-280.97 836.11,-271.07"/>
<polygon fill="midnightblue" stroke="midnightblue" points="838.02,-274.01 844.54,-265.65 834.23,-268.12 838.02,-274.01"/>
</g>
<!-- Node14 -->
<g id="node14" class="node">
<title>Node14</title>
<g id="a_node14"><a xlink:href="_foliated__triangulation_8hpp.html" target="_top" xlink:title="Create foliated spherical triangulations.">
<polygon fill="white" stroke="black" points="542,-190.5 542,-209.5 686,-209.5 686,-190.5 542,-190.5"/>
<text text-anchor="middle" x="614" y="-197.5" font-family="Helvetica,sans-Serif" font-size="10.00">Foliated_triangulation.hpp</text>
</a>
</g>
</g>
<!-- Node13&#45;&gt;Node14 -->
<g id="edge13" class="edge">
<title>Node13&#45;&gt;Node14</title>
<path fill="none" stroke="midnightblue" d="M601.48,-246.08C603.49,-238.85 606.39,-228.41 608.89,-219.4"/>
<polygon fill="midnightblue" stroke="midnightblue" points="612.26,-220.32 611.57,-209.75 605.52,-218.45 612.26,-220.32"/>
</g>
<!-- Node15 -->
<g id="node15" class="node">
<title>Node15</title>
<g id="a_node15"><a xlink:href="_triangulation__traits_8hpp.html" target="_top" xlink:title="Traits class for particular uses of CGAL.">
<polygon fill="white" stroke="black" points="545.5,-134.5 545.5,-153.5 676.5,-153.5 676.5,-134.5 545.5,-134.5"/>
<text text-anchor="middle" x="611" y="-141.5" font-family="Helvetica,sans-Serif" font-size="10.00">Triangulation_traits.hpp</text>
</a>
</g>
</g>
<!-- Node14&#45;&gt;Node15 -->
<g id="edge14" class="edge">
<title>Node14&#45;&gt;Node15</title>
<path fill="none" stroke="midnightblue" d="M613.5,-190.08C613.11,-183.01 612.55,-172.86 612.05,-163.99"/>
<polygon fill="midnightblue" stroke="midnightblue" points="615.54,-163.54 611.49,-153.75 608.55,-163.93 615.54,-163.54"/>
</g>
<!-- Node24 -->
<g id="node24" class="node">
<title>Node24</title>
<g id="a_node24"><a xlink:href="_utilities_8hpp.html" target="_top" xlink:title="Utility functions.">
<polygon fill="white" stroke="black" points="1600,-134.5 1600,-153.5 1676,-153.5 1676,-134.5 1600,-134.5"/>
<text text-anchor="middle" x="1638" y="-141.5" font-family="Helvetica,sans-Serif" font-size="10.00">Utilities.hpp</text>
</a>
</g>
</g>
<!-- Node14&#45;&gt;Node24 -->
<g id="edge23" class="edge">
<title>Node14&#45;&gt;Node24</title>
<path fill="none" stroke="midnightblue" d="M686.01,-195.2C882.57,-184.84 1424.62,-156.25 1589.68,-147.55"/>
<polygon fill="midnightblue" stroke="midnightblue" points="1590.19,-151.03 1600,-147 1589.83,-144.04 1590.19,-151.03"/>
</g>
<!-- Node16 -->
<g id="node16" class="node">
<title>Node16</title>
<g id="a_node16"><a xlink:href="_settings_8hpp.html" target="_top" xlink:title="Global integer and precision settings.">
<polygon fill="white" stroke="black" points="902.5,-67.5 902.5,-86.5 979.5,-86.5 979.5,-67.5 902.5,-67.5"/>
<text text-anchor="middle" x="941" y="-74.5" font-family="Helvetica,sans-Serif" font-size="10.00">Settings.hpp</text>
</a>
</g>
</g>
<!-- Node15&#45;&gt;Node16 -->
<g id="edge15" class="edge">
<title>Node15&#45;&gt;Node16</title>
<path fill="none" stroke="midnightblue" d="M676.63,-136.97C734.4,-130.62 820.39,-118.61 893,-98 899.89,-96.05 907.11,-93.38 913.8,-90.64"/>
<polygon fill="midnightblue" stroke="midnightblue" points="915.32,-93.8 923.13,-86.63 912.56,-87.37 915.32,-93.8"/>
</g>
<!-- Node19 -->
<g id="node19" class="node">
<title>Node19</title>
<g id="a_node19"><a xlink:title=" ">
<polygon fill="white" stroke="#bfbfbf" points="704,-67.5 704,-86.5 884,-86.5 884,-67.5 704,-67.5"/>
<text text-anchor="middle" x="794" y="-74.5" font-family="Helvetica,sans-Serif" font-size="10.00">CGAL/Delaunay_triangulation_3.h</text>
</a>
</g>
</g>
<!-- Node15&#45;&gt;Node19 -->
<g id="edge18" class="edge">
<title>Node15&#45;&gt;Node19</title>
<path fill="none" stroke="midnightblue" d="M635.3,-134.37C667.38,-122.97 724.03,-102.85 760.25,-89.99"/>
<polygon fill="midnightblue" stroke="midnightblue" points="761.64,-93.21 769.89,-86.56 759.3,-86.61 761.64,-93.21"/>
</g>
<!-- Node20 -->
<g id="node20" class="node">
<title>Node20</title>
<g id="a_node20"><a xlink:title=" ">
<polygon fill="white" stroke="#bfbfbf" points="62.5,-56.5 62.5,-97.5 191.5,-97.5 191.5,-56.5 62.5,-56.5"/>
<text text-anchor="start" x="70.5" y="-85.5" font-family="Helvetica,sans-Serif" font-size="10.00">CGAL/Exact_predicates</text>
<text text-anchor="start" x="70.5" y="-74.5" font-family="Helvetica,sans-Serif" font-size="10.00">_inexact_constructions</text>
<text text-anchor="middle" x="127" y="-63.5" font-family="Helvetica,sans-Serif" font-size="10.00">_kernel.h</text>
</a>
</g>
</g>
<!-- Node15&#45;&gt;Node20 -->
<g id="edge19" class="edge">
<title>Node15&#45;&gt;Node20</title>
<path fill="none" stroke="midnightblue" d="M545.49,-135.87C442.2,-124.63 249.03,-103.57 201.83,-97.55"/>
<polygon fill="midnightblue" stroke="midnightblue" points="202.23,-94.07 191.84,-96.13 201.25,-101 202.23,-94.07"/>
</g>
<!-- Node21 -->
<g id="node21" class="node">
<title>Node21</title>
<g id="a_node21"><a xlink:title=" ">
<polygon fill="white" stroke="#bfbfbf" points="210,-62 210,-92 348,-92 348,-62 210,-62"/>
<text text-anchor="start" x="218" y="-80" font-family="Helvetica,sans-Serif" font-size="10.00">CGAL/Triangulation</text>
<text text-anchor="middle" x="279" y="-69" font-family="Helvetica,sans-Serif" font-size="10.00">_cell_base_with_info_3.h</text>
</a>
</g>
</g>
<!-- Node15&#45;&gt;Node21 -->
<g id="edge20" class="edge">
<title>Node15&#45;&gt;Node21</title>
<path fill="none" stroke="midnightblue" d="M555.77,-134.45C504.16,-126.17 425.06,-112.73 357,-98 352,-96.92 346.84,-95.74 341.67,-94.51"/>
<polygon fill="midnightblue" stroke="midnightblue" points="342.28,-91.06 331.74,-92.1 340.63,-97.86 342.28,-91.06"/>
</g>
<!-- Node22 -->
<g id="node22" class="node">
<title>Node22</title>
<g id="a_node22"><a xlink:title=" ">
<polygon fill="white" stroke="#bfbfbf" points="366,-62 366,-92 518,-92 518,-62 366,-62"/>
<text text-anchor="start" x="374" y="-80" font-family="Helvetica,sans-Serif" font-size="10.00">CGAL/Triangulation</text>
<text text-anchor="middle" x="442" y="-69" font-family="Helvetica,sans-Serif" font-size="10.00">_vertex_base_with_info_3.h</text>
</a>
</g>
</g>
<!-- Node15&#45;&gt;Node22 -->
<g id="edge21" class="edge">
<title>Node15&#45;&gt;Node22</title>
<path fill="none" stroke="midnightblue" d="M588.56,-134.37C562.98,-124.53 520.49,-108.19 487.83,-95.63"/>
<polygon fill="midnightblue" stroke="midnightblue" points="489.06,-92.35 478.47,-92.03 486.55,-98.88 489.06,-92.35"/>
</g>
<!-- Node23 -->
<g id="node23" class="node">
<title>Node23</title>
<g id="a_node23"><a xlink:title=" ">
<polygon fill="white" stroke="#bfbfbf" points="536.5,-67.5 536.5,-86.5 685.5,-86.5 685.5,-67.5 536.5,-67.5"/>
<text text-anchor="middle" x="611" y="-74.5" font-family="Helvetica,sans-Serif" font-size="10.00">CGAL/point_generators_3.h</text>
</a>
</g>
</g>
<!-- Node15&#45;&gt;Node23 -->
<g id="edge22" class="edge">
<title>Node15&#45;&gt;Node23</title>
<path fill="none" stroke="midnightblue" d="M611,-134.23C611,-124.68 611,-109.12 611,-96.78"/>
<polygon fill="midnightblue" stroke="midnightblue" points="614.5,-96.63 611,-86.63 607.5,-96.63 614.5,-96.63"/>
</g>
<!-- Node17 -->
<g id="node17" class="node">
<title>Node17</title>
<g id="a_node17"><a xlink:title=" ">
<polygon fill="white" stroke="#bfbfbf" points="855,-0.5 855,-19.5 941,-19.5 941,-0.5 855,-0.5"/>
<text text-anchor="middle" x="898" y="-7.5" font-family="Helvetica,sans-Serif" font-size="10.00">CGAL/Gmpzf.h</text>
</a>
</g>
</g>
<!-- Node16&#45;&gt;Node17 -->
<g id="edge16" class="edge">
<title>Node16&#45;&gt;Node17</title>
<path fill="none" stroke="midnightblue" d="M935.2,-67.23C928.62,-57.29 917.74,-40.84 909.44,-28.29"/>
<polygon fill="midnightblue" stroke="midnightblue" points="912.14,-26.04 903.71,-19.63 906.31,-29.9 912.14,-26.04"/>
</g>
<!-- Node18 -->
<g id="node18" class="node">
<title>Node18</title>
<g id="a_node18"><a xlink:title=" ">
<polygon fill="white" stroke="#bfbfbf" points="959,-0.5 959,-19.5 1009,-19.5 1009,-0.5 959,-0.5"/>
<text text-anchor="middle" x="984" y="-7.5" font-family="Helvetica,sans-Serif" font-size="10.00">cstdint</text>
</a>
</g>
</g>
<!-- Node16&#45;&gt;Node18 -->
<g id="edge17" class="edge">
<title>Node16&#45;&gt;Node18</title>
<path fill="none" stroke="midnightblue" d="M946.8,-67.23C953.38,-57.29 964.26,-40.84 972.56,-28.29"/>
<polygon fill="midnightblue" stroke="midnightblue" points="975.69,-29.9 978.29,-19.63 969.86,-26.04 975.69,-29.9"/>
</g>
<!-- Node24&#45;&gt;Node6 -->
<g id="edge44" class="edge">
<title>Node24&#45;&gt;Node6</title>
<path fill="none" stroke="midnightblue" d="M1600,-143.18C1511.34,-142.88 1284.36,-137.92 1100,-98 1091.15,-96.08 1081.8,-93.13 1073.32,-90.08"/>
<polygon fill="midnightblue" stroke="midnightblue" points="1074.44,-86.77 1063.85,-86.51 1071.97,-93.32 1074.44,-86.77"/>
</g>
<!-- Node24&#45;&gt;Node7 -->
<g id="edge36" class="edge">
<title>Node24&#45;&gt;Node7</title>
<path fill="none" stroke="midnightblue" d="M1599.7,-142.5C1365.04,-139.33 129.13,-121.61 53,-98 48.73,-96.68 44.49,-94.59 40.57,-92.25"/>
<polygon fill="midnightblue" stroke="midnightblue" points="42.42,-89.28 32.18,-86.59 38.51,-95.08 42.42,-89.28"/>
</g>
<!-- Node24&#45;&gt;Node16 -->
<g id="edge45" class="edge">
<title>Node24&#45;&gt;Node16</title>
<path fill="none" stroke="midnightblue" d="M1599.91,-142.02C1479.08,-138.66 1105.41,-126.2 988,-98 980.93,-96.3 973.57,-93.64 966.83,-90.81"/>
<polygon fill="midnightblue" stroke="midnightblue" points="968.06,-87.52 957.5,-86.63 965.2,-93.91 968.06,-87.52"/>
</g>
<!-- Node25 -->
<g id="node25" class="node">
<title>Node25</title>
<g id="a_node25"><a xlink:title=" ">
<polygon fill="white" stroke="#bfbfbf" points="2337.5,-67.5 2337.5,-86.5 2420.5,-86.5 2420.5,-67.5 2337.5,-67.5"/>
<text text-anchor="middle" x="2379" y="-74.5" font-family="Helvetica,sans-Serif" font-size="10.00">CGAL/Timer.h</text>
</a>
</g>
</g>
<!-- Node24&#45;&gt;Node25 -->
<g id="edge24" class="edge">
<title>Node24&#45;&gt;Node25</title>
<path fill="none" stroke="midnightblue" d="M1676.23,-142.09C1802.17,-138.86 2203.1,-126.52 2329,-98 2336.65,-96.27 2344.65,-93.52 2351.96,-90.62"/>
<polygon fill="midnightblue" stroke="midnightblue" points="2353.54,-93.75 2361.39,-86.63 2350.81,-87.3 2353.54,-93.75"/>
</g>
<!-- Node26 -->
<g id="node26" class="node">
<title>Node26</title>
<g id="a_node26"><a xlink:title=" ">
<polygon fill="white" stroke="#bfbfbf" points="2439,-67.5 2439,-86.5 2503,-86.5 2503,-67.5 2439,-67.5"/>
<text text-anchor="middle" x="2471" y="-74.5" font-family="Helvetica,sans-Serif" font-size="10.00">algorithm</text>
</a>
</g>
</g>
<!-- Node24&#45;&gt;Node26 -->
<g id="edge25" class="edge">
<title>Node24&#45;&gt;Node26</title>
<path fill="none" stroke="midnightblue" d="M1676.04,-142.82C1813.64,-141.87 2284.92,-135.87 2430,-98 2435.99,-96.44 2442.14,-93.96 2447.8,-91.28"/>
<polygon fill="midnightblue" stroke="midnightblue" points="2449.44,-94.37 2456.74,-86.7 2446.25,-88.15 2449.44,-94.37"/>
</g>
<!-- Node27 -->
<g id="node27" class="node">
<title>Node27</title>
<g id="a_node27"><a xlink:title=" ">
<polygon fill="white" stroke="#bfbfbf" points="2521,-67.5 2521,-86.5 2573,-86.5 2573,-67.5 2521,-67.5"/>
<text text-anchor="middle" x="2547" y="-74.5" font-family="Helvetica,sans-Serif" font-size="10.00">cassert</text>
</a>
</g>
</g>
<!-- Node24&#45;&gt;Node27 -->
<g id="edge26" class="edge">
<title>Node24&#45;&gt;Node27</title>
<path fill="none" stroke="midnightblue" d="M1676.23,-143.38C1823.23,-144.46 2351.9,-144.96 2512,-98 2516.94,-96.55 2521.94,-94.28 2526.55,-91.78"/>
<polygon fill="midnightblue" stroke="midnightblue" points="2528.54,-94.66 2535.32,-86.52 2524.95,-88.66 2528.54,-94.66"/>
</g>
<!-- Node28 -->
<g id="node28" class="node">
<title>Node28</title>
<g id="a_node28"><a xlink:title=" ">
<polygon fill="white" stroke="#bfbfbf" points="2591.5,-67.5 2591.5,-86.5 2640.5,-86.5 2640.5,-67.5 2591.5,-67.5"/>
<text text-anchor="middle" x="2616" y="-74.5" font-family="Helvetica,sans-Serif" font-size="10.00">cstdlib</text>
</a>
</g>
</g>
<!-- Node24&#45;&gt;Node28 -->
<g id="edge27" class="edge">
<title>Node24&#45;&gt;Node28</title>
<path fill="none" stroke="midnightblue" d="M1676.09,-142.26C1841.63,-138.92 2494.24,-124.16 2582,-98 2586.83,-96.56 2591.7,-94.29 2596.18,-91.8"/>
<polygon fill="midnightblue" stroke="midnightblue" points="2598.03,-94.77 2604.69,-86.53 2594.35,-88.81 2598.03,-94.77"/>
</g>
<!-- Node29 -->
<g id="node29" class="node">
<title>Node29</title>
<g id="a_node29"><a xlink:title=" ">
<polygon fill="white" stroke="#bfbfbf" points="2659,-67.5 2659,-86.5 2727,-86.5 2727,-67.5 2659,-67.5"/>
<text text-anchor="middle" x="2693" y="-74.5" font-family="Helvetica,sans-Serif" font-size="10.00">filesystem</text>
</a>
</g>
</g>
<!-- Node24&#45;&gt;Node29 -->
<g id="edge28" class="edge">
<title>Node24&#45;&gt;Node29</title>
<path fill="none" stroke="midnightblue" d="M1676.23,-143.28C1837.19,-144.16 2460.16,-144.44 2650,-98 2656.51,-96.41 2663.22,-93.81 2669.36,-91"/>
<polygon fill="midnightblue" stroke="midnightblue" points="2670.99,-94.1 2678.4,-86.53 2667.89,-87.82 2670.99,-94.1"/>
</g>
<!-- Node30 -->
<g id="node30" class="node">
<title>Node30</title>
<g id="a_node30"><a xlink:title=" ">
<polygon fill="white" stroke="#bfbfbf" points="1108.5,-67.5 1108.5,-86.5 1163.5,-86.5 1163.5,-67.5 1108.5,-67.5"/>
<text text-anchor="middle" x="1136" y="-74.5" font-family="Helvetica,sans-Serif" font-size="10.00">fstream</text>
</a>
</g>
</g>
<!-- Node24&#45;&gt;Node30 -->
<g id="edge29" class="edge">
<title>Node24&#45;&gt;Node30</title>
<path fill="none" stroke="midnightblue" d="M1599.81,-141.26C1503.48,-136.55 1252.62,-122.28 1173,-98 1167.81,-96.42 1162.51,-94.07 1157.61,-91.53"/>
<polygon fill="midnightblue" stroke="midnightblue" points="1159.23,-88.42 1148.8,-86.57 1155.79,-94.52 1159.23,-88.42"/>
</g>
<!-- Node31 -->
<g id="node31" class="node">
<title>Node31</title>
<g id="a_node31"><a xlink:title=" ">
<polygon fill="white" stroke="#bfbfbf" points="1182,-67.5 1182,-86.5 1230,-86.5 1230,-67.5 1182,-67.5"/>
<text text-anchor="middle" x="1206" y="-74.5" font-family="Helvetica,sans-Serif" font-size="10.00">gsl/gsl</text>
</a>
</g>
</g>
<!-- Node24&#45;&gt;Node31 -->
<g id="edge30" class="edge">
<title>Node24&#45;&gt;Node31</title>
<path fill="none" stroke="midnightblue" d="M1599.84,-140.79C1513.46,-135.46 1305.31,-120.61 1239,-98 1234.53,-96.48 1230.01,-94.27 1225.82,-91.88"/>
<polygon fill="midnightblue" stroke="midnightblue" points="1227.63,-88.88 1217.3,-86.53 1223.91,-94.81 1227.63,-88.88"/>
</g>
<!-- Node32 -->
<g id="node32" class="node">
<title>Node32</title>
<g id="a_node32"><a xlink:title=" ">
<polygon fill="white" stroke="#bfbfbf" points="1248,-67.5 1248,-86.5 1308,-86.5 1308,-67.5 1248,-67.5"/>
<text text-anchor="middle" x="1278" y="-74.5" font-family="Helvetica,sans-Serif" font-size="10.00">iostream</text>
</a>
</g>
</g>
<!-- Node24&#45;&gt;Node32 -->
<g id="edge31" class="edge">
<title>Node24&#45;&gt;Node32</title>
<path fill="none" stroke="midnightblue" d="M1599.53,-141.74C1538.36,-138.82 1415.72,-129.25 1317,-98 1311.7,-96.32 1306.24,-93.97 1301.15,-91.47"/>
<polygon fill="midnightblue" stroke="midnightblue" points="1302.43,-88.18 1291.96,-86.6 1299.16,-94.37 1302.43,-88.18"/>
</g>
<!-- Node33 -->
<g id="node33" class="node">
<title>Node33</title>
<g id="a_node33"><a xlink:title=" ">
<polygon fill="white" stroke="#bfbfbf" points="1326,-67.5 1326,-86.5 1374,-86.5 1374,-67.5 1326,-67.5"/>
<text text-anchor="middle" x="1350" y="-74.5" font-family="Helvetica,sans-Serif" font-size="10.00">mutex</text>
</a>
</g>
</g>
<!-- Node24&#45;&gt;Node33 -->
<g id="edge32" class="edge">
<title>Node24&#45;&gt;Node33</title>
<path fill="none" stroke="midnightblue" d="M1599.68,-140.65C1548.76,-136.56 1456.63,-125.7 1383,-98 1378.77,-96.41 1374.47,-94.27 1370.44,-91.97"/>
<polygon fill="midnightblue" stroke="midnightblue" points="1372.02,-88.83 1361.67,-86.54 1368.33,-94.78 1372.02,-88.83"/>
</g>
<!-- Node34 -->
<g id="node34" class="node">
<title>Node34</title>
<g id="a_node34"><a xlink:title=" ">
<polygon fill="white" stroke="#bfbfbf" points="1392,-67.5 1392,-86.5 1446,-86.5 1446,-67.5 1392,-67.5"/>
<text text-anchor="middle" x="1419" y="-74.5" font-family="Helvetica,sans-Serif" font-size="10.00">random</text>
</a>
</g>
</g>
<!-- Node24&#45;&gt;Node34 -->
<g id="edge33" class="edge">
<title>Node24&#45;&gt;Node34</title>
<path fill="none" stroke="midnightblue" d="M1599.95,-136.7C1562.29,-129.77 1503.42,-117.01 1455,-98 1450.54,-96.25 1445.94,-94.04 1441.59,-91.74"/>
<polygon fill="midnightblue" stroke="midnightblue" points="1443.03,-88.53 1432.6,-86.68 1439.6,-94.63 1443.03,-88.53"/>
</g>
<!-- Node35 -->
<g id="node35" class="node">
<title>Node35</title>
<g id="a_node35"><a xlink:title=" ">
<polygon fill="white" stroke="#bfbfbf" points="1464,-67.5 1464,-86.5 1504,-86.5 1504,-67.5 1464,-67.5"/>
<text text-anchor="middle" x="1484" y="-74.5" font-family="Helvetica,sans-Serif" font-size="10.00">span</text>
</a>
</g>
</g>
<!-- Node24&#45;&gt;Node35 -->
<g id="edge34" class="edge">
<title>Node24&#45;&gt;Node35</title>
<path fill="none" stroke="midnightblue" d="M1608.36,-134.45C1582.71,-126.54 1544.96,-113.65 1514,-98 1510.72,-96.34 1507.36,-94.39 1504.13,-92.37"/>
<polygon fill="midnightblue" stroke="midnightblue" points="1505.84,-89.29 1495.57,-86.66 1501.96,-95.12 1505.84,-89.29"/>
</g>
<!-- Node36 -->
<g id="node36" class="node">
<title>Node36</title>
<g id="a_node36"><a xlink:title=" ">
<polygon fill="white" stroke="#bfbfbf" points="1522.5,-67.5 1522.5,-86.5 1587.5,-86.5 1587.5,-67.5 1522.5,-67.5"/>
<text text-anchor="middle" x="1555" y="-74.5" font-family="Helvetica,sans-Serif" font-size="10.00">stdexcept</text>
</a>
</g>
</g>
<!-- Node24&#45;&gt;Node36 -->
<g id="edge35" class="edge">
<title>Node24&#45;&gt;Node36</title>
<path fill="none" stroke="midnightblue" d="M1626.81,-134.23C1613.37,-123.71 1590.6,-105.88 1574.3,-93.12"/>
<polygon fill="midnightblue" stroke="midnightblue" points="1576.05,-90.04 1566.02,-86.63 1571.73,-95.55 1576.05,-90.04"/>
</g>
<!-- Node37 -->
<g id="node37" class="node">
<title>Node37</title>
<g id="a_node37"><a xlink:title=" ">
<polygon fill="white" stroke="#bfbfbf" points="1605.5,-67.5 1605.5,-86.5 1670.5,-86.5 1670.5,-67.5 1605.5,-67.5"/>
<text text-anchor="middle" x="1638" y="-74.5" font-family="Helvetica,sans-Serif" font-size="10.00">typeindex</text>
</a>
</g>
</g>
<!-- Node24&#45;&gt;Node37 -->
<g id="edge37" class="edge">
<title>Node24&#45;&gt;Node37</title>
<path fill="none" stroke="midnightblue" d="M1638,-134.23C1638,-124.68 1638,-109.12 1638,-96.78"/>
<polygon fill="midnightblue" stroke="midnightblue" points="1641.5,-96.63 1638,-86.63 1634.5,-96.63 1641.5,-96.63"/>
</g>
<!-- Node38 -->
<g id="node38" class="node">
<title>Node38</title>
<g id="a_node38"><a xlink:title=" ">
<polygon fill="white" stroke="#bfbfbf" points="1688.5,-67.5 1688.5,-86.5 1747.5,-86.5 1747.5,-67.5 1688.5,-67.5"/>
<text text-anchor="middle" x="1718" y="-74.5" font-family="Helvetica,sans-Serif" font-size="10.00">date/tz.h</text>
</a>
</g>
</g>
<!-- Node24&#45;&gt;Node38 -->
<g id="edge38" class="edge">
<title>Node24&#45;&gt;Node38</title>
<path fill="none" stroke="midnightblue" d="M1648.79,-134.23C1661.74,-123.71 1683.69,-105.88 1699.39,-93.12"/>
<polygon fill="midnightblue" stroke="midnightblue" points="1701.83,-95.65 1707.38,-86.63 1697.41,-90.22 1701.83,-95.65"/>
</g>
<!-- Node39 -->
<g id="node39" class="node">
<title>Node39</title>
<g id="a_node39"><a xlink:title=" ">
<polygon fill="white" stroke="#bfbfbf" points="1766,-67.5 1766,-86.5 1864,-86.5 1864,-67.5 1766,-67.5"/>
<text text-anchor="middle" x="1815" y="-74.5" font-family="Helvetica,sans-Serif" font-size="10.00">pcg_random.hpp</text>
</a>
</g>
</g>
<!-- Node24&#45;&gt;Node39 -->
<g id="edge39" class="edge">
<title>Node24&#45;&gt;Node39</title>
<path fill="none" stroke="midnightblue" d="M1661.5,-134.37C1692.4,-123.02 1746.86,-103.02 1781.91,-90.15"/>
<polygon fill="midnightblue" stroke="midnightblue" points="1783.5,-93.3 1791.68,-86.56 1781.09,-86.73 1783.5,-93.3"/>
</g>
<!-- Node40 -->
<g id="node40" class="node">
<title>Node40</title>
<g id="a_node40"><a xlink:title=" ">
<polygon fill="white" stroke="#bfbfbf" points="1882.5,-67.5 1882.5,-86.5 1961.5,-86.5 1961.5,-67.5 1882.5,-67.5"/>
<text text-anchor="middle" x="1922" y="-74.5" font-family="Helvetica,sans-Serif" font-size="10.00">fmt/format.h</text>
</a>
</g>
</g>
<!-- Node24&#45;&gt;Node40 -->
<g id="edge40" class="edge">
<title>Node24&#45;&gt;Node40</title>
<path fill="none" stroke="midnightblue" d="M1676.41,-138.03C1723.4,-131.41 1805.1,-118.14 1873,-98 1879.87,-95.96 1887.09,-93.31 1893.82,-90.61"/>
<polygon fill="midnightblue" stroke="midnightblue" points="1895.35,-93.77 1903.23,-86.68 1892.66,-87.31 1895.35,-93.77"/>
</g>
<!-- Node41 -->
<g id="node41" class="node">
<title>Node41</title>
<g id="a_node41"><a xlink:title=" ">
<polygon fill="white" stroke="#bfbfbf" points="1980,-67.5 1980,-86.5 2066,-86.5 2066,-67.5 1980,-67.5"/>
<text text-anchor="middle" x="2023" y="-74.5" font-family="Helvetica,sans-Serif" font-size="10.00">fmt/ostream.h</text>
</a>
</g>
</g>
<!-- Node24&#45;&gt;Node41 -->
<g id="edge41" class="edge">
<title>Node24&#45;&gt;Node41</title>
<path fill="none" stroke="midnightblue" d="M1676,-140.75C1738.42,-136.42 1866.17,-124.85 1971,-98 1978.69,-96.03 1986.79,-93.27 1994.25,-90.43"/>
<polygon fill="midnightblue" stroke="midnightblue" points="1995.6,-93.65 2003.6,-86.7 1993.01,-87.15 1995.6,-93.65"/>
</g>
<!-- Node42 -->
<g id="node42" class="node">
<title>Node42</title>
<g id="a_node42"><a xlink:title=" ">
<polygon fill="white" stroke="#bfbfbf" points="2084,-62 2084,-92 2190,-92 2190,-62 2084,-62"/>
<text text-anchor="start" x="2092" y="-80" font-family="Helvetica,sans-Serif" font-size="10.00">spdlog/sinks/basic</text>
<text text-anchor="middle" x="2137" y="-69" font-family="Helvetica,sans-Serif" font-size="10.00">_file_sink.h</text>
</a>
</g>
</g>
<!-- Node24&#45;&gt;Node42 -->
<g id="edge42" class="edge">
<title>Node24&#45;&gt;Node42</title>
<path fill="none" stroke="midnightblue" d="M1676.11,-141.76C1752.54,-138.67 1929.65,-128.58 2075,-98 2079.17,-97.12 2083.46,-96.07 2087.74,-94.91"/>
<polygon fill="midnightblue" stroke="midnightblue" points="2089,-98.19 2097.64,-92.06 2087.06,-91.46 2089,-98.19"/>
</g>
<!-- Node43 -->
<g id="node43" class="node">
<title>Node43</title>
<g id="a_node43"><a xlink:title=" ">
<polygon fill="white" stroke="#bfbfbf" points="2208.5,-62 2208.5,-92 2319.5,-92 2319.5,-62 2208.5,-62"/>
<text text-anchor="start" x="2216.5" y="-80" font-family="Helvetica,sans-Serif" font-size="10.00">spdlog/sinks/stdout</text>
<text text-anchor="middle" x="2264" y="-69" font-family="Helvetica,sans-Serif" font-size="10.00">_color_sinks.h</text>
</a>
</g>
</g>
<!-- Node24&#45;&gt;Node43 -->
<g id="edge43" class="edge">
<title>Node24&#45;&gt;Node43</title>
<path fill="none" stroke="midnightblue" d="M1676.14,-142.8C1767.34,-141.7 2004.91,-135.18 2199,-98 2203.68,-97.1 2208.5,-95.99 2213.31,-94.76"/>
<polygon fill="midnightblue" stroke="midnightblue" points="2214.36,-98.09 2223.08,-92.07 2212.51,-91.34 2214.36,-98.09"/>
</g>
<!-- Node48 -->
<g id="node48" class="node">
<title>Node48</title>
<g id="a_node48"><a xlink:title=" ">
<polygon fill="white" stroke="#bfbfbf" points="1004,-470.5 1004,-489.5 1052,-489.5 1052,-470.5 1004,-470.5"/>
<text text-anchor="middle" x="1028" y="-477.5" font-family="Helvetica,sans-Serif" font-size="10.00">mpfr.h</text>
</a>
</g>
</g>
<!-- Node47&#45;&gt;Node48 -->
<g id="edge51" class="edge">
<title>Node47&#45;&gt;Node48</title>
<path fill="none" stroke="midnightblue" d="M1028,-526.08C1028,-519.01 1028,-508.86 1028,-499.99"/>
<polygon fill="midnightblue" stroke="midnightblue" points="1031.5,-499.75 1028,-489.75 1024.5,-499.75 1031.5,-499.75"/>
</g>
</g>
</svg>
        <g id="navigator" transform="translate(0 0)" fill="#404254">
                <rect fill="#f2f5e9" fill-opacity="0.5" stroke="#606060" stroke-width=".5" x="0" y="0" width="60" height="60"/>
                <use id="zoomplus" xlink:href="#zoomPlus" x="17" y="9" onmousedown="handleZoom(evt,'in')"/>
                <use id="zoomminus" xlink:href="#zoomMin" x="42" y="9" onmousedown="handleZoom(evt,'out')"/>
                <use id="reset" xlink:href="#resetDef" x="30" y="36" onmousedown="handleReset()"/>
                <g id="arrowUp" xlink:href="#dirArrow" transform="translate(30 24)" onmousedown="handlePan(0,-1)">
                  <use xlink:href="#rim" fill="#404040">
                        <set attributeName="fill" to="#808080" begin="arrowUp.mouseover" end="arrowUp.mouseout"/>
                  </use>
                  <path fill="none" stroke="white" stroke-width="1.5" d="M0,-3.0v7 M-2.5,-0.5L0,-3.0L2.5,-0.5"/>
                </g>
                <g id="arrowRight" xlink:href="#dirArrow" transform="rotate(90) translate(36 -43)" onmousedown="handlePan(1,0)">
                  <use xlink:href="#rim" fill="#404040">
                        <set attributeName="fill" to="#808080" begin="arrowRight.mouseover" end="arrowRight.mouseout"/>
                  </use>
                  <path fill="none" stroke="white" stroke-width="1.5" d="M0,-3.0v7 M-2.5,-0.5L0,-3.0L2.5,-0.5"/>
                </g>
                <g id="arrowDown" xlink:href="#dirArrow" transform="rotate(180) translate(-30 -48)" onmousedown="handlePan(0,1)">
                  <use xlink:href="#rim" fill="#404040">
                        <set attributeName="fill" to="#808080" begin="arrowDown.mouseover" end="arrowDown.mouseout"/>
                  </use>
                  <path fill="none" stroke="white" stroke-width="1.5" d="M0,-3.0v7 M-2.5,-0.5L0,-3.0L2.5,-0.5"/>
                </g>
                <g id="arrowLeft" xlink:href="#dirArrow" transform="rotate(270) translate(-36 17)" onmousedown="handlePan(-1,0)">
                  <use xlink:href="#rim" fill="#404040">
                        <set attributeName="fill" to="#808080" begin="arrowLeft.mouseover" end="arrowLeft.mouseout"/>
                  </use>
                  <path fill="none" stroke="white" stroke-width="1.5" d="M0,-3.0v7 M-2.5,-0.5L0,-3.0L2.5,-0.5"/>
                </g>
        </g>
        <svg viewBox="0 0 15 15" width="100%" height="30px" preserveAspectRatio="xMaxYMin meet">
         <g id="arrow_out" transform="scale(0.3 0.3)">
          <a xlink:href="_metropolis_8hpp__incl_org.svg" target="_base">
           <rect id="button" ry="5" rx="5" y="6" x="6" height="38" width="38"
                fill="#f2f5e9" fill-opacity="0.5" stroke="#606060" stroke-width="1.0"/>
           <path id="arrow"
             d="M 11.500037,31.436501 C 11.940474,20.09759 22.043105,11.32322 32.158766,21.979434 L 37.068811,17.246167 C 37.068811,17.246167 37.088388,32 37.088388,32 L 22.160133,31.978069 C 22.160133,31.978069 26.997745,27.140456 26.997745,27.140456 C 18.528582,18.264221 13.291696,25.230495 11.500037,31.436501 z"
             style="fill:#404040;"/>
          </a>
         </g>
        </svg>
</svg>
