<?xml version="1.0" encoding="UTF-8" standalone="no"?>
<!DOCTYPE svg PUBLIC "-//W3C//DTD SVG 1.1//EN"
 "http://www.w3.org/Graphics/SVG/1.1/DTD/svg11.dtd">
<!-- Generated by graphviz version 2.43.0 (0)
 -->
<!-- Title: include/Metropolis.hpp Pages: 1 -->
<svg width="2187pt" height="500pt"
 viewBox="0.00 0.00 2186.50 500.00" xmlns="http://www.w3.org/2000/svg" xmlns:xlink="http://www.w3.org/1999/xlink">
<g id="graph0" class="graph" transform="scale(1 1) rotate(0) translate(4 496)">
<title>include/Metropolis.hpp</title>
<!-- Node1 -->
<g id="node1" class="node">
<title>Node1</title>
<g id="a_node1"><a xlink:title="Perform Metropolis&#45;Hastings algorithm on Delaunay Triangulations.">
<polygon fill="#999999" stroke="#666666" points="528.5,-492 400.5,-492 400.5,-473 528.5,-473 528.5,-492"/>
<text text-anchor="middle" x="464.5" y="-480" font-family="Helvetica,sans-Serif" font-size="10.00">include/Metropolis.hpp</text>
</a>
</g>
</g>
<!-- Node2 -->
<g id="node2" class="node">
<title>Node2</title>
<g id="a_node2"><a xlink:title=" ">
<polygon fill="#e0e0e0" stroke="#999999" points="65,-85 0,-85 0,-66 65,-66 65,-85"/>
<text text-anchor="middle" x="32.5" y="-73" font-family="Helvetica,sans-Serif" font-size="10.00">stdexcept</text>
</a>
</g>
</g>
<!-- Node1&#45;&gt;Node2 -->
<g id="edge1" class="edge">
<title>Node1&#45;&gt;Node2</title>
<path fill="none" stroke="#63b8ff" d="M400.36,-479.42C275.85,-473.63 13.5,-452.1 13.5,-373.5 13.5,-373.5 13.5,-373.5 13.5,-206.5 13.5,-166.54 22.4,-120.4 28.01,-95.25"/>
<polygon fill="#63b8ff" stroke="#63b8ff" points="31.48,-95.79 30.32,-85.26 24.66,-94.22 31.48,-95.79"/>
</g>
<!-- Node3 -->
<g id="node3" class="node">
<title>Node3</title>
<g id="a_node3"><a xlink:href="_move__command_8hpp.html" target="_top" xlink:title="Do ergodic moves using the Command pattern.">
<polygon fill="white" stroke="#666666" points="676,-437 557,-437 557,-418 676,-418 676,-437"/>
<text text-anchor="middle" x="616.5" y="-425" font-family="Helvetica,sans-Serif" font-size="10.00">Move_command.hpp</text>
</a>
</g>
</g>
<!-- Node1&#45;&gt;Node3 -->
<g id="edge2" class="edge">
<title>Node1&#45;&gt;Node3</title>
<path fill="none" stroke="#63b8ff" d="M488.92,-472.98C514.22,-464.16 553.95,-450.31 582.36,-440.41"/>
<polygon fill="#63b8ff" stroke="#63b8ff" points="583.6,-443.68 591.89,-437.08 581.29,-437.07 583.6,-443.68"/>
</g>
<!-- Node51 -->
<g id="node47" class="node">
<title>Node51</title>
<g id="a_node47"><a xlink:href="_move__strategy_8hpp.html" target="_top" xlink:title="Template class for move algorithms (strategies) on manifolds.">
<polygon fill="white" stroke="#666666" points="803,-437 694,-437 694,-418 803,-418 803,-437"/>
<text text-anchor="middle" x="748.5" y="-425" font-family="Helvetica,sans-Serif" font-size="10.00">Move_strategy.hpp</text>
</a>
</g>
</g>
<!-- Node1&#45;&gt;Node51 -->
<g id="edge61" class="edge">
<title>Node1&#45;&gt;Node51</title>
<path fill="none" stroke="#63b8ff" d="M510.13,-472.98C559.77,-463.72 639.16,-448.9 692.53,-438.94"/>
<polygon fill="#63b8ff" stroke="#63b8ff" points="693.32,-442.36 702.51,-437.08 692.04,-435.48 693.32,-442.36"/>
</g>
<!-- Node52 -->
<g id="node48" class="node">
<title>Node52</title>
<g id="a_node48"><a xlink:href="_s3_action_8hpp.html" target="_top" xlink:title="Calculate S3 bulk actions on 3D Delaunay Triangulations.">
<polygon fill="white" stroke="#666666" points="171.5,-217 91.5,-217 91.5,-198 171.5,-198 171.5,-217"/>
<text text-anchor="middle" x="131.5" y="-205" font-family="Helvetica,sans-Serif" font-size="10.00">S3Action.hpp</text>
</a>
</g>
</g>
<!-- Node1&#45;&gt;Node52 -->
<g id="edge62" class="edge">
<title>Node1&#45;&gt;Node52</title>
<path fill="none" stroke="#63b8ff" d="M400.15,-472.94C307.23,-458.76 146.5,-426.56 146.5,-373.5 146.5,-373.5 146.5,-373.5 146.5,-316.5 146.5,-284.89 140.12,-248.56 135.68,-227.13"/>
<polygon fill="#63b8ff" stroke="#63b8ff" points="139.05,-226.16 133.52,-217.12 132.21,-227.64 139.05,-226.16"/>
</g>
<!-- Node4 -->
<g id="node4" class="node">
<title>Node4</title>
<g id="a_node4"><a xlink:href="_apply__move_8hpp.html" target="_top" xlink:title="Apply Pachner moves to foliated Delaunay triangulations.">
<polygon fill="white" stroke="#666666" points="615.5,-217 517.5,-217 517.5,-198 615.5,-198 615.5,-217"/>
<text text-anchor="middle" x="566.5" y="-205" font-family="Helvetica,sans-Serif" font-size="10.00">Apply_move.hpp</text>
</a>
</g>
</g>
<!-- Node3&#45;&gt;Node4 -->
<g id="edge3" class="edge">
<title>Node3&#45;&gt;Node4</title>
<path fill="none" stroke="#63b8ff" d="M628.17,-417.69C661.73,-391.32 753.41,-311.17 710.5,-253 699.89,-238.61 659.57,-226.9 624.29,-219.12"/>
<polygon fill="#63b8ff" stroke="#63b8ff" points="625.01,-215.69 614.5,-217.02 623.55,-222.54 625.01,-215.69"/>
</g>
<!-- Node11 -->
<g id="node11" class="node">
<title>Node11</title>
<g id="a_node11"><a xlink:href="_ergodic__moves__3_8hpp.html" target="_top" xlink:title="Pachner moves on 2+1 dimensional foliated Delaunay triangulations.">
<polygon fill="white" stroke="#666666" points="919,-382 796,-382 796,-363 919,-363 919,-382"/>
<text text-anchor="middle" x="857.5" y="-370" font-family="Helvetica,sans-Serif" font-size="10.00">Ergodic_moves_3.hpp</text>
</a>
</g>
</g>
<!-- Node3&#45;&gt;Node11 -->
<g id="edge10" class="edge">
<title>Node3&#45;&gt;Node11</title>
<path fill="none" stroke="#63b8ff" d="M655.22,-417.98C696.91,-408.82 763.32,-394.21 808.59,-384.26"/>
<polygon fill="#63b8ff" stroke="#63b8ff" points="809.46,-387.65 818.48,-382.08 807.96,-380.81 809.46,-387.65"/>
</g>
<!-- Node5 -->
<g id="node5" class="node">
<title>Node5</title>
<g id="a_node5"><a xlink:title=" ">
<polygon fill="#e0e0e0" stroke="#999999" points="429,-85 336,-85 336,-66 429,-66 429,-85"/>
<text text-anchor="middle" x="382.5" y="-73" font-family="Helvetica,sans-Serif" font-size="10.00">spdlog/spdlog.h</text>
</a>
</g>
</g>
<!-- Node4&#45;&gt;Node5 -->
<g id="edge4" class="edge">
<title>Node4&#45;&gt;Node5</title>
<path fill="none" stroke="#63b8ff" d="M560.38,-197.66C549.56,-182.56 525.72,-151.55 499.5,-132 474.31,-113.22 441.76,-98.41 417.39,-88.82"/>
<polygon fill="#63b8ff" stroke="#63b8ff" points="418.41,-85.47 407.82,-85.16 415.91,-92.01 418.41,-85.47"/>
</g>
<!-- Node6 -->
<g id="node6" class="node">
<title>Node6</title>
<g id="a_node6"><a xlink:title=" ">
<polygon fill="#e0e0e0" stroke="#999999" points="457.5,-162 331.5,-162 331.5,-132 457.5,-132 457.5,-162"/>
<text text-anchor="start" x="339.5" y="-150" font-family="Helvetica,sans-Serif" font-size="10.00">boost/compat/function</text>
<text text-anchor="middle" x="394.5" y="-139" font-family="Helvetica,sans-Serif" font-size="10.00">_ref.hpp</text>
</a>
</g>
</g>
<!-- Node4&#45;&gt;Node6 -->
<g id="edge5" class="edge">
<title>Node4&#45;&gt;Node6</title>
<path fill="none" stroke="#63b8ff" d="M541.49,-197.99C516.41,-189.46 477.08,-176.09 445.41,-165.32"/>
<polygon fill="#63b8ff" stroke="#63b8ff" points="446.45,-161.97 435.85,-162.06 444.19,-168.6 446.45,-161.97"/>
</g>
<!-- Node7 -->
<g id="node7" class="node">
<title>Node7</title>
<g id="a_node7"><a xlink:title=" ">
<polygon fill="#e0e0e0" stroke="#999999" points="836.5,-156.5 774.5,-156.5 774.5,-137.5 836.5,-137.5 836.5,-156.5"/>
<text text-anchor="middle" x="805.5" y="-144.5" font-family="Helvetica,sans-Serif" font-size="10.00">expected</text>
</a>
</g>
</g>
<!-- Node4&#45;&gt;Node7 -->
<g id="edge6" class="edge">
<title>Node4&#45;&gt;Node7</title>
<path fill="none" stroke="#63b8ff" d="M601.25,-197.99C644.46,-187.42 718.13,-169.39 764.18,-158.11"/>
<polygon fill="#63b8ff" stroke="#63b8ff" points="765.25,-161.45 774.14,-155.68 763.59,-154.66 765.25,-161.45"/>
</g>
<!-- Node8 -->
<g id="node8" class="node">
<title>Node8</title>
<g id="a_node8"><a xlink:title=" ">
<polygon fill="#e0e0e0" stroke="#999999" points="680,-156.5 615,-156.5 615,-137.5 680,-137.5 680,-156.5"/>
<text text-anchor="middle" x="647.5" y="-144.5" font-family="Helvetica,sans-Serif" font-size="10.00">functional</text>
</a>
</g>
</g>
<!-- Node4&#45;&gt;Node8 -->
<g id="edge7" class="edge">
<title>Node4&#45;&gt;Node8</title>
<path fill="none" stroke="#63b8ff" d="M578.45,-197.87C591.25,-188.62 611.8,-173.78 627.15,-162.69"/>
<polygon fill="#63b8ff" stroke="#63b8ff" points="629.44,-165.36 635.5,-156.67 625.34,-159.68 629.44,-165.36"/>
</g>
<!-- Node9 -->
<g id="node9" class="node">
<title>Node9</title>
<g id="a_node9"><a xlink:title=" ">
<polygon fill="#e0e0e0" stroke="#999999" points="317.5,-85 273.5,-85 273.5,-66 317.5,-66 317.5,-85"/>
<text text-anchor="middle" x="295.5" y="-73" font-family="Helvetica,sans-Serif" font-size="10.00">string</text>
</a>
</g>
</g>
<!-- Node4&#45;&gt;Node9 -->
<g id="edge8" class="edge">
<title>Node4&#45;&gt;Node9</title>
<path fill="none" stroke="#63b8ff" d="M552.21,-197.89C538.34,-189.33 516.9,-175.56 499.5,-162 483.87,-149.82 483.94,-141.43 466.5,-132 410.36,-101.65 386.27,-120.87 327.5,-96 323.87,-94.46 320.17,-92.56 316.63,-90.56"/>
<polygon fill="#63b8ff" stroke="#63b8ff" points="318.17,-87.4 307.81,-85.18 314.52,-93.37 318.17,-87.4"/>
</g>
<!-- Node10 -->
<g id="node10" class="node">
<title>Node10</title>
<g id="a_node10"><a xlink:title=" ">
<polygon fill="#e0e0e0" stroke="#999999" points="597,-156.5 552,-156.5 552,-137.5 597,-137.5 597,-156.5"/>
<text text-anchor="middle" x="574.5" y="-144.5" font-family="Helvetica,sans-Serif" font-size="10.00">utility</text>
</a>
</g>
</g>
<!-- Node4&#45;&gt;Node10 -->
<g id="edge9" class="edge">
<title>Node4&#45;&gt;Node10</title>
<path fill="none" stroke="#63b8ff" d="M567.68,-197.87C568.79,-189.75 570.49,-177.31 571.92,-166.89"/>
<polygon fill="#63b8ff" stroke="#63b8ff" points="575.43,-167.05 573.31,-156.67 568.49,-166.1 575.43,-167.05"/>
</g>
<!-- Node11&#45;&gt;Node7 -->
<g id="edge11" class="edge">
<title>Node11&#45;&gt;Node7</title>
<path fill="none" stroke="#63b8ff" d="M855.46,-362.74C847.79,-329.78 820.58,-212.81 809.87,-166.79"/>
<polygon fill="#63b8ff" stroke="#63b8ff" points="813.26,-165.89 807.58,-156.94 806.44,-167.48 813.26,-165.89"/>
</g>
<!-- Node12 -->
<g id="node12" class="node">
<title>Node12</title>
<g id="a_node12"><a xlink:href="_formatters_8hpp.html" target="_top" xlink:title="Formatter specializations for various types.">
<polygon fill="white" stroke="#666666" points="1231,-327 1140,-327 1140,-308 1231,-308 1231,-327"/>
<text text-anchor="middle" x="1185.5" y="-315" font-family="Helvetica,sans-Serif" font-size="10.00">Formatters.hpp</text>
</a>
</g>
</g>
<!-- Node11&#45;&gt;Node12 -->
<g id="edge12" class="edge">
<title>Node11&#45;&gt;Node12</title>
<path fill="none" stroke="#63b8ff" d="M910.2,-362.98C970.41,-353.26 1068.52,-337.4 1129.91,-327.48"/>
<polygon fill="#63b8ff" stroke="#63b8ff" points="1130.5,-330.93 1139.81,-325.88 1129.38,-324.02 1130.5,-330.93"/>
</g>
<!-- Node25 -->
<g id="node25" class="node">
<title>Node25</title>
<g id="a_node25"><a xlink:href="_manifold_8hpp.html" target="_top" xlink:title="Data structures for manifolds.">
<polygon fill="white" stroke="#666666" points="698.5,-327 618.5,-327 618.5,-308 698.5,-308 698.5,-327"/>
<text text-anchor="middle" x="658.5" y="-315" font-family="Helvetica,sans-Serif" font-size="10.00">Manifold.hpp</text>
</a>
</g>
</g>
<!-- Node11&#45;&gt;Node25 -->
<g id="edge25" class="edge">
<title>Node11&#45;&gt;Node25</title>
<path fill="none" stroke="#63b8ff" d="M825.53,-362.98C791.68,-353.97 738.1,-339.7 700.79,-329.76"/>
<polygon fill="#63b8ff" stroke="#63b8ff" points="701.29,-326.27 690.72,-327.08 699.49,-333.04 701.29,-326.27"/>
</g>
<!-- Node47 -->
<g id="node43" class="node">
<title>Node47</title>
<g id="a_node43"><a xlink:href="_move__tracker_8hpp.html" target="_top" xlink:title="Track ergodic moves.">
<polygon fill="white" stroke="#666666" points="1149,-217 1046,-217 1046,-198 1149,-198 1149,-217"/>
<text text-anchor="middle" x="1097.5" y="-205" font-family="Helvetica,sans-Serif" font-size="10.00">Move_tracker.hpp</text>
</a>
</g>
</g>
<!-- Node11&#45;&gt;Node47 -->
<g id="edge53" class="edge">
<title>Node11&#45;&gt;Node47</title>
<path fill="none" stroke="#63b8ff" d="M870.07,-362.97C908.94,-336.57 1027.54,-256.02 1076.26,-222.93"/>
<polygon fill="#63b8ff" stroke="#63b8ff" points="1078.46,-225.66 1084.77,-217.15 1074.53,-219.87 1078.46,-225.66"/>
</g>
<!-- Node13 -->
<g id="node13" class="node">
<title>Node13</title>
<g id="a_node13"><a xlink:title=" ">
<polygon fill="#e0e0e0" stroke="#999999" points="1337,-272 1270,-272 1270,-253 1337,-253 1337,-272"/>
<text text-anchor="middle" x="1303.5" y="-260" font-family="Helvetica,sans-Serif" font-size="10.00">fmt/core.h</text>
</a>
</g>
</g>
<!-- Node12&#45;&gt;Node13 -->
<g id="edge13" class="edge">
<title>Node12&#45;&gt;Node13</title>
<path fill="none" stroke="#63b8ff" d="M1204.46,-307.98C1223.53,-299.42 1253.16,-286.11 1275.05,-276.28"/>
<polygon fill="#63b8ff" stroke="#63b8ff" points="1276.51,-279.46 1284.2,-272.17 1273.64,-273.07 1276.51,-279.46"/>
</g>
<!-- Node14 -->
<g id="node14" class="node">
<title>Node14</title>
<g id="a_node14"><a xlink:title=" ">
<polygon fill="#e0e0e0" stroke="#999999" points="1140,-272 1061,-272 1061,-253 1140,-253 1140,-272"/>
<text text-anchor="middle" x="1100.5" y="-260" font-family="Helvetica,sans-Serif" font-size="10.00">fmt/format.h</text>
</a>
</g>
</g>
<!-- Node12&#45;&gt;Node14 -->
<g id="edge14" class="edge">
<title>Node12&#45;&gt;Node14</title>
<path fill="none" stroke="#63b8ff" d="M1171.84,-307.98C1158.66,-299.77 1138.47,-287.18 1122.93,-277.49"/>
<polygon fill="#63b8ff" stroke="#63b8ff" points="1124.74,-274.49 1114.41,-272.17 1121.04,-280.43 1124.74,-274.49"/>
</g>
<!-- Node15 -->
<g id="node15" class="node">
<title>Node15</title>
<g id="a_node15"><a xlink:title=" ">
<polygon fill="#e0e0e0" stroke="#999999" points="1213.5,-272 1157.5,-272 1157.5,-253 1213.5,-253 1213.5,-272"/>
<text text-anchor="middle" x="1185.5" y="-260" font-family="Helvetica,sans-Serif" font-size="10.00">sstream</text>
</a>
</g>
</g>
<!-- Node12&#45;&gt;Node15 -->
<g id="edge15" class="edge">
<title>Node12&#45;&gt;Node15</title>
<path fill="none" stroke="#63b8ff" d="M1185.5,-307.75C1185.5,-300.8 1185.5,-290.85 1185.5,-282.13"/>
<polygon fill="#63b8ff" stroke="#63b8ff" points="1189,-282.09 1185.5,-272.09 1182,-282.09 1189,-282.09"/>
</g>
<!-- Node16 -->
<g id="node16" class="node">
<title>Node16</title>
<g id="a_node16"><a xlink:href="_triangulation__traits_8hpp.html" target="_top" xlink:title="Traits class for particular uses of CGAL.">
<polygon fill="white" stroke="#666666" points="1488,-156.5 1357,-156.5 1357,-137.5 1488,-137.5 1488,-156.5"/>
<text text-anchor="middle" x="1422.5" y="-144.5" font-family="Helvetica,sans-Serif" font-size="10.00">Triangulation_traits.hpp</text>
</a>
</g>
</g>
<!-- Node12&#45;&gt;Node16 -->
<g id="edge16" class="edge">
<title>Node12&#45;&gt;Node16</title>
<path fill="none" stroke="#63b8ff" d="M1195.04,-307.9C1209.15,-295.32 1236.62,-271.41 1261.5,-253 1308.87,-217.96 1367.49,-181.3 1399.3,-161.93"/>
<polygon fill="#63b8ff" stroke="#63b8ff" points="1401.16,-164.89 1407.9,-156.72 1397.54,-158.91 1401.16,-164.89"/>
</g>
<!-- Node17 -->
<g id="node17" class="node">
<title>Node17</title>
<g id="a_node17"><a xlink:title=" ">
<polygon fill="#e0e0e0" stroke="#999999" points="2178.5,-85 1998.5,-85 1998.5,-66 2178.5,-66 2178.5,-85"/>
<text text-anchor="middle" x="2088.5" y="-73" font-family="Helvetica,sans-Serif" font-size="10.00">CGAL/Delaunay_triangulation_3.h</text>
</a>
</g>
</g>
<!-- Node16&#45;&gt;Node17 -->
<g id="edge17" class="edge">
<title>Node16&#45;&gt;Node17</title>
<path fill="none" stroke="#63b8ff" d="M1463.63,-137.47C1474.6,-135.43 1486.47,-133.43 1497.5,-132 1714.94,-103.84 1772.21,-125.24 1989.5,-96 2006.32,-93.74 2024.59,-90.39 2040.8,-87.11"/>
<polygon fill="#63b8ff" stroke="#63b8ff" points="2041.52,-90.54 2050.6,-85.09 2040.1,-83.68 2041.52,-90.54"/>
</g>
<!-- Node18 -->
<g id="node18" class="node">
<title>Node18</title>
<g id="a_node18"><a xlink:title=" ">
<polygon fill="#e0e0e0" stroke="#999999" points="1487,-96 1358,-96 1358,-55 1487,-55 1487,-96"/>
<text text-anchor="start" x="1366" y="-84" font-family="Helvetica,sans-Serif" font-size="10.00">CGAL/Exact_predicates</text>
<text text-anchor="start" x="1366" y="-73" font-family="Helvetica,sans-Serif" font-size="10.00">_inexact_constructions</text>
<text text-anchor="middle" x="1422.5" y="-62" font-family="Helvetica,sans-Serif" font-size="10.00">_kernel.h</text>
</a>
</g>
</g>
<!-- Node16&#45;&gt;Node18 -->
<g id="edge18" class="edge">
<title>Node16&#45;&gt;Node18</title>
<path fill="none" stroke="#63b8ff" d="M1422.5,-137.48C1422.5,-129.65 1422.5,-117.58 1422.5,-106.24"/>
<polygon fill="#63b8ff" stroke="#63b8ff" points="1426,-106.17 1422.5,-96.17 1419,-106.17 1426,-106.17"/>
</g>
<!-- Node19 -->
<g id="node19" class="node">
<title>Node19</title>
<g id="a_node19"><a xlink:title=" ">
<polygon fill="#e0e0e0" stroke="#999999" points="1654,-85 1505,-85 1505,-66 1654,-66 1654,-85"/>
<text text-anchor="middle" x="1579.5" y="-73" font-family="Helvetica,sans-Serif" font-size="10.00">CGAL/point_generators_3.h</text>
</a>
</g>
</g>
<!-- Node16&#45;&gt;Node19 -->
<g id="edge19" class="edge">
<title>Node16&#45;&gt;Node19</title>
<path fill="none" stroke="#63b8ff" d="M1441.75,-137.48C1469.06,-125.39 1519.24,-103.18 1550.9,-89.16"/>
<polygon fill="#63b8ff" stroke="#63b8ff" points="1552.36,-92.34 1560.09,-85.09 1549.53,-85.94 1552.36,-92.34"/>
</g>
<!-- Node20 -->
<g id="node20" class="node">
<title>Node20</title>
<g id="a_node20"><a xlink:title=" ">
<polygon fill="#e0e0e0" stroke="#999999" points="1810.5,-90.5 1672.5,-90.5 1672.5,-60.5 1810.5,-60.5 1810.5,-90.5"/>
<text text-anchor="start" x="1680.5" y="-78.5" font-family="Helvetica,sans-Serif" font-size="10.00">CGAL/Triangulation</text>
<text text-anchor="middle" x="1741.5" y="-67.5" font-family="Helvetica,sans-Serif" font-size="10.00">_cell_base_with_info_3.h</text>
</a>
</g>
</g>
<!-- Node16&#45;&gt;Node20 -->
<g id="edge20" class="edge">
<title>Node16&#45;&gt;Node20</title>
<path fill="none" stroke="#63b8ff" d="M1466.15,-137.5C1514.52,-127.94 1594.77,-111.71 1663.5,-96 1667.83,-95.01 1672.28,-93.97 1676.77,-92.9"/>
<polygon fill="#63b8ff" stroke="#63b8ff" points="1677.7,-96.27 1686.59,-90.52 1676.05,-89.47 1677.7,-96.27"/>
</g>
<!-- Node21 -->
<g id="node21" class="node">
<title>Node21</title>
<g id="a_node21"><a xlink:title=" ">
<polygon fill="#e0e0e0" stroke="#999999" points="1980.5,-90.5 1828.5,-90.5 1828.5,-60.5 1980.5,-60.5 1980.5,-90.5"/>
<text text-anchor="start" x="1836.5" y="-78.5" font-family="Helvetica,sans-Serif" font-size="10.00">CGAL/Triangulation</text>
<text text-anchor="middle" x="1904.5" y="-67.5" font-family="Helvetica,sans-Serif" font-size="10.00">_vertex_base_with_info_3.h</text>
</a>
</g>
</g>
<!-- Node16&#45;&gt;Node21 -->
<g id="edge21" class="edge">
<title>Node16&#45;&gt;Node21</title>
<path fill="none" stroke="#63b8ff" d="M1465.24,-137.46C1475.76,-135.51 1487.02,-133.56 1497.5,-132 1639.93,-110.77 1677.53,-120.14 1819.5,-96 1825.33,-95.01 1831.37,-93.86 1837.4,-92.64"/>
<polygon fill="#63b8ff" stroke="#63b8ff" points="1838.46,-95.99 1847.53,-90.51 1837.02,-89.14 1838.46,-95.99"/>
</g>
<!-- Node22 -->
<g id="node22" class="node">
<title>Node22</title>
<g id="a_node22"><a xlink:href="_settings_8hpp.html" target="_top" xlink:title="Global integer and precision settings.">
<polygon fill="white" stroke="#666666" points="1281,-85 1204,-85 1204,-66 1281,-66 1281,-85"/>
<text text-anchor="middle" x="1242.5" y="-73" font-family="Helvetica,sans-Serif" font-size="10.00">Settings.hpp</text>
</a>
</g>
</g>
<!-- Node16&#45;&gt;Node22 -->
<g id="edge22" class="edge">
<title>Node16&#45;&gt;Node22</title>
<path fill="none" stroke="#63b8ff" d="M1399.54,-137.49C1373.16,-127.67 1328.6,-110.95 1290.5,-96 1284.81,-93.77 1278.77,-91.35 1272.95,-89"/>
<polygon fill="#63b8ff" stroke="#63b8ff" points="1274.07,-85.67 1263.49,-85.15 1271.43,-92.16 1274.07,-85.67"/>
</g>
<!-- Node23 -->
<g id="node23" class="node">
<title>Node23</title>
<g id="a_node23"><a xlink:title=" ">
<polygon fill="#e0e0e0" stroke="#999999" points="1255.5,-19 1115.5,-19 1115.5,0 1255.5,0 1255.5,-19"/>
<text text-anchor="middle" x="1185.5" y="-7" font-family="Helvetica,sans-Serif" font-size="10.00">CGAL/GMP/Gmpzf_type.h</text>
</a>
</g>
</g>
<!-- Node22&#45;&gt;Node23 -->
<g id="edge23" class="edge">
<title>Node22&#45;&gt;Node23</title>
<path fill="none" stroke="#63b8ff" d="M1234.81,-65.87C1226.02,-56 1211.43,-39.61 1200.39,-27.22"/>
<polygon fill="#63b8ff" stroke="#63b8ff" points="1202.7,-24.55 1193.43,-19.41 1197.47,-29.2 1202.7,-24.55"/>
</g>
<!-- Node24 -->
<g id="node24" class="node">
<title>Node24</title>
<g id="a_node24"><a xlink:title=" ">
<polygon fill="#e0e0e0" stroke="#999999" points="1323.5,-19 1273.5,-19 1273.5,0 1323.5,0 1323.5,-19"/>
<text text-anchor="middle" x="1298.5" y="-7" font-family="Helvetica,sans-Serif" font-size="10.00">cstdint</text>
</a>
</g>
</g>
<!-- Node22&#45;&gt;Node24 -->
<g id="edge24" class="edge">
<title>Node22&#45;&gt;Node24</title>
<path fill="none" stroke="#63b8ff" d="M1250.05,-65.87C1258.69,-56 1273.03,-39.61 1283.87,-27.22"/>
<polygon fill="#63b8ff" stroke="#63b8ff" points="1286.76,-29.24 1290.71,-19.41 1281.49,-24.63 1286.76,-29.24"/>
</g>
<!-- Node26 -->
<g id="node26" class="node">
<title>Node26</title>
<g id="a_node26"><a xlink:title=" ">
<polygon fill="#e0e0e0" stroke="#999999" points="1016,-156.5 963,-156.5 963,-137.5 1016,-137.5 1016,-156.5"/>
<text text-anchor="middle" x="989.5" y="-144.5" font-family="Helvetica,sans-Serif" font-size="10.00">cstddef</text>
</a>
</g>
</g>
<!-- Node25&#45;&gt;Node26 -->
<g id="edge26" class="edge">
<title>Node25&#45;&gt;Node26</title>
<path fill="none" stroke="#63b8ff" d="M675.37,-307.91C729.38,-280.42 898.29,-194.43 963.48,-161.25"/>
<polygon fill="#63b8ff" stroke="#63b8ff" points="965.34,-164.23 972.66,-156.57 962.16,-157.99 965.34,-164.23"/>
</g>
<!-- Node27 -->
<g id="node27" class="node">
<title>Node27</title>
<g id="a_node27"><a xlink:title=" ">
<polygon fill="#e0e0e0" stroke="#999999" points="255,-85 186,-85 186,-66 255,-66 255,-85"/>
<text text-anchor="middle" x="220.5" y="-73" font-family="Helvetica,sans-Serif" font-size="10.00">type_traits</text>
</a>
</g>
</g>
<!-- Node25&#45;&gt;Node27 -->
<g id="edge27" class="edge">
<title>Node25&#45;&gt;Node27</title>
<path fill="none" stroke="#63b8ff" d="M618.25,-310.04C551.02,-298.2 412.77,-269.3 306.5,-217 269.73,-198.91 253.41,-197.24 232.5,-162 220.4,-141.6 218.67,-113.75 219.12,-95.45"/>
<polygon fill="#63b8ff" stroke="#63b8ff" points="222.63,-95.38 219.62,-85.22 215.63,-95.03 222.63,-95.38"/>
</g>
<!-- Node28 -->
<g id="node28" class="node">
<title>Node28</title>
<g id="a_node28"><a xlink:title=" ">
<polygon fill="#e0e0e0" stroke="#999999" points="701.5,-272 615.5,-272 615.5,-253 701.5,-253 701.5,-272"/>
<text text-anchor="middle" x="658.5" y="-260" font-family="Helvetica,sans-Serif" font-size="10.00">unordered_set</text>
</a>
</g>
</g>
<!-- Node25&#45;&gt;Node28 -->
<g id="edge28" class="edge">
<title>Node25&#45;&gt;Node28</title>
<path fill="none" stroke="#63b8ff" d="M658.5,-307.75C658.5,-300.8 658.5,-290.85 658.5,-282.13"/>
<polygon fill="#63b8ff" stroke="#63b8ff" points="662,-282.09 658.5,-272.09 655,-282.09 662,-282.09"/>
</g>
<!-- Node29 -->
<g id="node29" class="node">
<title>Node29</title>
<g id="a_node29"><a xlink:href="_geometry_8hpp.html" target="_top" xlink:title="Geometric scalars of the Manifold used to calculate the Regge action.">
<polygon fill="white" stroke="#666666" points="597,-272 512,-272 512,-253 597,-253 597,-272"/>
<text text-anchor="middle" x="554.5" y="-260" font-family="Helvetica,sans-Serif" font-size="10.00">Geometry.hpp</text>
</a>
</g>
</g>
<!-- Node25&#45;&gt;Node29 -->
<g id="edge29" class="edge">
<title>Node25&#45;&gt;Node29</title>
<path fill="none" stroke="#63b8ff" d="M641.79,-307.98C625.29,-299.57 599.8,-286.59 580.62,-276.81"/>
<polygon fill="#63b8ff" stroke="#63b8ff" points="582.01,-273.59 571.51,-272.17 578.83,-279.83 582.01,-273.59"/>
</g>
<!-- Node29&#45;&gt;Node27 -->
<g id="edge30" class="edge">
<title>Node29&#45;&gt;Node27</title>
<path fill="none" stroke="#63b8ff" d="M511.93,-258.22C448.56,-251.17 329.12,-229.28 256.5,-162 237.24,-144.16 227.91,-114.37 223.68,-95.09"/>
<polygon fill="#63b8ff" stroke="#63b8ff" points="227.08,-94.26 221.73,-85.11 220.21,-95.6 227.08,-94.26"/>
</g>
<!-- Node30 -->
<g id="node30" class="node">
<title>Node30</title>
<g id="a_node30"><a xlink:href="_foliated__triangulation_8hpp.html" target="_top" xlink:title="Create foliated spherical triangulations.">
<polygon fill="#fff0f0" stroke="red" points="777.5,-217 633.5,-217 633.5,-198 777.5,-198 777.5,-217"/>
<text text-anchor="middle" x="705.5" y="-205" font-family="Helvetica,sans-Serif" font-size="10.00">Foliated_triangulation.hpp</text>
</a>
</g>
</g>
<!-- Node29&#45;&gt;Node30 -->
<g id="edge31" class="edge">
<title>Node29&#45;&gt;Node30</title>
<path fill="none" stroke="#63b8ff" d="M578.76,-252.98C603.82,-244.19 643.13,-230.39 671.33,-220.49"/>
<polygon fill="#63b8ff" stroke="#63b8ff" points="672.52,-223.78 680.8,-217.17 670.2,-217.18 672.52,-223.78"/>
</g>
<!-- Node30&#45;&gt;Node8 -->
<g id="edge34" class="edge">
<title>Node30&#45;&gt;Node8</title>
<path fill="none" stroke="#63b8ff" d="M696.94,-197.87C688.12,-188.97 674.16,-174.89 663.32,-163.95"/>
<polygon fill="#63b8ff" stroke="#63b8ff" points="665.62,-161.3 656.09,-156.67 660.65,-166.23 665.62,-161.3"/>
</g>
<!-- Node30&#45;&gt;Node10 -->
<g id="edge36" class="edge">
<title>Node30&#45;&gt;Node10</title>
<path fill="none" stroke="#63b8ff" d="M686.45,-197.99C664.53,-188.2 628.29,-172.02 603,-160.73"/>
<polygon fill="#63b8ff" stroke="#63b8ff" points="604.13,-157.4 593.57,-156.52 601.28,-163.79 604.13,-157.4"/>
</g>
<!-- Node30&#45;&gt;Node16 -->
<g id="edge37" class="edge">
<title>Node30&#45;&gt;Node16</title>
<path fill="none" stroke="#63b8ff" d="M777.53,-200.62C913.69,-189.51 1207.6,-165.53 1346.65,-154.19"/>
<polygon fill="#63b8ff" stroke="#63b8ff" points="1347.11,-157.66 1356.79,-153.36 1346.54,-150.69 1347.11,-157.66"/>
</g>
<!-- Node30&#45;&gt;Node27 -->
<g id="edge35" class="edge">
<title>Node30&#45;&gt;Node27</title>
<path fill="none" stroke="#63b8ff" d="M706.6,-197.76C708.04,-181.95 708.46,-148.7 689.5,-132 618.36,-69.37 356.32,-119.53 264.5,-96 258.28,-94.41 251.82,-92.01 245.84,-89.44"/>
<polygon fill="#63b8ff" stroke="#63b8ff" points="246.88,-86.07 236.34,-85.06 243.95,-92.42 246.88,-86.07"/>
</g>
<!-- Node31 -->
<g id="node31" class="node">
<title>Node31</title>
<g id="a_node31"><a xlink:title=" ">
<polygon fill="#e0e0e0" stroke="#999999" points="511.5,-85 447.5,-85 447.5,-66 511.5,-66 511.5,-85"/>
<text text-anchor="middle" x="479.5" y="-73" font-family="Helvetica,sans-Serif" font-size="10.00">algorithm</text>
</a>
</g>
</g>
<!-- Node30&#45;&gt;Node31 -->
<g id="edge32" class="edge">
<title>Node30&#45;&gt;Node31</title>
<path fill="none" stroke="#63b8ff" d="M711.85,-197.57C721.84,-182.34 738.51,-151.12 722.5,-132 663.95,-62.09 607.34,-123.83 520.5,-96 515.06,-94.26 509.41,-91.94 504.11,-89.51"/>
<polygon fill="#63b8ff" stroke="#63b8ff" points="505.59,-86.33 495.06,-85.11 502.53,-92.63 505.59,-86.33"/>
</g>
<!-- Node32 -->
<g id="node32" class="node">
<title>Node32</title>
<g id="a_node32"><a xlink:title=" ">
<polygon fill="#e0e0e0" stroke="#999999" points="313,-156.5 266,-156.5 266,-137.5 313,-137.5 313,-156.5"/>
<text text-anchor="middle" x="289.5" y="-144.5" font-family="Helvetica,sans-Serif" font-size="10.00">cmath</text>
</a>
</g>
</g>
<!-- Node30&#45;&gt;Node32 -->
<g id="edge33" class="edge">
<title>Node30&#45;&gt;Node32</title>
<path fill="none" stroke="#63b8ff" d="M633.44,-198.66C526.66,-186.97 337.3,-165.91 322.5,-162 320.56,-161.49 318.58,-160.88 316.61,-160.21"/>
<polygon fill="#63b8ff" stroke="#63b8ff" points="317.57,-156.83 306.98,-156.51 315.06,-163.37 317.57,-156.83"/>
</g>
<!-- Node35 -->
<g id="node33" class="node">
<title>Node35</title>
<g id="a_node33"><a xlink:href="_utilities_8hpp.html" target="_top" xlink:title="Utility functions.">
<polygon fill="#fff0f0" stroke="red" points="930.5,-156.5 854.5,-156.5 854.5,-137.5 930.5,-137.5 930.5,-156.5"/>
<text text-anchor="middle" x="892.5" y="-144.5" font-family="Helvetica,sans-Serif" font-size="10.00">Utilities.hpp</text>
</a>
</g>
</g>
<!-- Node30&#45;&gt;Node35 -->
<g id="edge38" class="edge">
<title>Node30&#45;&gt;Node35</title>
<path fill="none" stroke="#63b8ff" d="M732.69,-197.99C765.1,-187.86 819.4,-170.87 855.58,-159.55"/>
<polygon fill="#63b8ff" stroke="#63b8ff" points="856.78,-162.84 865.28,-156.52 854.69,-156.16 856.78,-162.84"/>
</g>
<!-- Node35&#45;&gt;Node2 -->
<g id="edge46" class="edge">
<title>Node35&#45;&gt;Node2</title>
<path fill="none" stroke="#63b8ff" d="M867.89,-137.44C860.75,-135.3 852.89,-133.25 845.5,-132 506.85,-74.55 406.7,-179.4 73.5,-96 67.52,-94.5 61.38,-92.1 55.72,-89.49"/>
<polygon fill="#63b8ff" stroke="#63b8ff" points="57.28,-86.36 46.77,-85.02 54.15,-92.62 57.28,-86.36"/>
</g>
<!-- Node35&#45;&gt;Node5 -->
<g id="edge51" class="edge">
<title>Node35&#45;&gt;Node5</title>
<path fill="none" stroke="#63b8ff" d="M867.36,-137.5C860.36,-135.41 852.69,-133.37 845.5,-132 667.13,-97.91 616.04,-134.15 438.5,-96 429.98,-94.17 420.98,-91.42 412.74,-88.56"/>
<polygon fill="#63b8ff" stroke="#63b8ff" points="413.75,-85.2 403.16,-85.07 411.36,-91.78 413.75,-85.2"/>
</g>
<!-- Node35&#45;&gt;Node9 -->
<g id="edge47" class="edge">
<title>Node35&#45;&gt;Node9</title>
<path fill="none" stroke="#63b8ff" d="M867.38,-137.41C860.37,-135.32 852.7,-133.31 845.5,-132 618.43,-90.81 547.39,-166.03 327.5,-96 323.32,-94.67 319.11,-92.68 315.19,-90.48"/>
<polygon fill="#63b8ff" stroke="#63b8ff" points="317.03,-87.5 306.7,-85.16 313.31,-93.43 317.03,-87.5"/>
</g>
<!-- Node35&#45;&gt;Node22 -->
<g id="edge52" class="edge">
<title>Node35&#45;&gt;Node22</title>
<path fill="none" stroke="#63b8ff" d="M928.14,-137.48C936.75,-135.56 945.93,-133.61 954.5,-132 1060.51,-112.11 1090.47,-124.5 1194.5,-96 1201.1,-94.19 1208.02,-91.73 1214.49,-89.17"/>
<polygon fill="#63b8ff" stroke="#63b8ff" points="1216.28,-92.22 1224.16,-85.14 1213.59,-85.76 1216.28,-92.22"/>
</g>
<!-- Node35&#45;&gt;Node31 -->
<g id="edge39" class="edge">
<title>Node35&#45;&gt;Node31</title>
<path fill="none" stroke="#63b8ff" d="M866.85,-137.46C859.98,-135.42 852.51,-133.42 845.5,-132 703.07,-103.14 660.28,-135.76 520.5,-96 514.91,-94.41 509.14,-92.12 503.75,-89.66"/>
<polygon fill="#63b8ff" stroke="#63b8ff" points="505.12,-86.43 494.6,-85.17 502.04,-92.72 505.12,-86.43"/>
</g>
<!-- Node36 -->
<g id="node34" class="node">
<title>Node36</title>
<g id="a_node34"><a xlink:title=" ">
<polygon fill="#e0e0e0" stroke="#999999" points="817.5,-85 749.5,-85 749.5,-66 817.5,-66 817.5,-85"/>
<text text-anchor="middle" x="783.5" y="-73" font-family="Helvetica,sans-Serif" font-size="10.00">filesystem</text>
</a>
</g>
</g>
<!-- Node35&#45;&gt;Node36 -->
<g id="edge40" class="edge">
<title>Node35&#45;&gt;Node36</title>
<path fill="none" stroke="#63b8ff" d="M879.13,-137.48C860.83,-125.81 827.72,-104.7 805.67,-90.64"/>
<polygon fill="#63b8ff" stroke="#63b8ff" points="807.29,-87.52 796.97,-85.09 803.53,-93.42 807.29,-87.52"/>
</g>
<!-- Node37 -->
<g id="node35" class="node">
<title>Node37</title>
<g id="a_node35"><a xlink:title=" ">
<polygon fill="#e0e0e0" stroke="#999999" points="891,-85 836,-85 836,-66 891,-66 891,-85"/>
<text text-anchor="middle" x="863.5" y="-73" font-family="Helvetica,sans-Serif" font-size="10.00">fstream</text>
</a>
</g>
</g>
<!-- Node35&#45;&gt;Node37 -->
<g id="edge41" class="edge">
<title>Node35&#45;&gt;Node37</title>
<path fill="none" stroke="#63b8ff" d="M888.94,-137.48C884.51,-126.85 876.81,-108.39 871.04,-94.56"/>
<polygon fill="#63b8ff" stroke="#63b8ff" points="874.17,-92.97 867.09,-85.09 867.71,-95.67 874.17,-92.97"/>
</g>
<!-- Node38 -->
<g id="node36" class="node">
<title>Node38</title>
<g id="a_node36"><a xlink:title=" ">
<polygon fill="#e0e0e0" stroke="#999999" points="957.5,-85 909.5,-85 909.5,-66 957.5,-66 957.5,-85"/>
<text text-anchor="middle" x="933.5" y="-73" font-family="Helvetica,sans-Serif" font-size="10.00">gsl/gsl</text>
</a>
</g>
</g>
<!-- Node35&#45;&gt;Node38 -->
<g id="edge42" class="edge">
<title>Node35&#45;&gt;Node38</title>
<path fill="none" stroke="#63b8ff" d="M897.53,-137.48C903.92,-126.64 915.12,-107.66 923.32,-93.75"/>
<polygon fill="#63b8ff" stroke="#63b8ff" points="926.36,-95.48 928.43,-85.09 920.34,-91.93 926.36,-95.48"/>
</g>
<!-- Node39 -->
<g id="node37" class="node">
<title>Node39</title>
<g id="a_node37"><a xlink:title=" ">
<polygon fill="#e0e0e0" stroke="#999999" points="1023.5,-85 975.5,-85 975.5,-66 1023.5,-66 1023.5,-85"/>
<text text-anchor="middle" x="999.5" y="-73" font-family="Helvetica,sans-Serif" font-size="10.00">mutex</text>
</a>
</g>
</g>
<!-- Node35&#45;&gt;Node39 -->
<g id="edge43" class="edge">
<title>Node35&#45;&gt;Node39</title>
<path fill="none" stroke="#63b8ff" d="M905.62,-137.48C923.59,-125.81 956.09,-104.7 977.73,-90.64"/>
<polygon fill="#63b8ff" stroke="#63b8ff" points="979.79,-93.47 986.27,-85.09 975.98,-87.6 979.79,-93.47"/>
</g>
<!-- Node40 -->
<g id="node38" class="node">
<title>Node40</title>
<g id="a_node38"><a xlink:title=" ">
<polygon fill="#e0e0e0" stroke="#999999" points="1095.5,-85 1041.5,-85 1041.5,-66 1095.5,-66 1095.5,-85"/>
<text text-anchor="middle" x="1068.5" y="-73" font-family="Helvetica,sans-Serif" font-size="10.00">random</text>
</a>
</g>
</g>
<!-- Node35&#45;&gt;Node40 -->
<g id="edge44" class="edge">
<title>Node35&#45;&gt;Node40</title>
<path fill="none" stroke="#63b8ff" d="M920.35,-137.45C948.96,-128.34 994.55,-112.93 1032.5,-96 1036.52,-94.21 1040.69,-92.14 1044.72,-90.04"/>
<polygon fill="#63b8ff" stroke="#63b8ff" points="1046.57,-93.02 1053.7,-85.18 1043.23,-86.87 1046.57,-93.02"/>
</g>
<!-- Node41 -->
<g id="node39" class="node">
<title>Node41</title>
<g id="a_node39"><a xlink:title=" ">
<polygon fill="#e0e0e0" stroke="#999999" points="1339.5,-85 1299.5,-85 1299.5,-66 1339.5,-66 1339.5,-85"/>
<text text-anchor="middle" x="1319.5" y="-73" font-family="Helvetica,sans-Serif" font-size="10.00">span</text>
</a>
</g>
</g>
<!-- Node35&#45;&gt;Node41 -->
<g id="edge45" class="edge">
<title>Node35&#45;&gt;Node41</title>
<path fill="none" stroke="#63b8ff" d="M927.12,-137.44C936,-135.45 945.57,-133.48 954.5,-132 1102.66,-107.42 1149.38,-147.41 1290.5,-96 1294.13,-94.68 1297.76,-92.8 1301.15,-90.73"/>
<polygon fill="#63b8ff" stroke="#63b8ff" points="1303.17,-93.59 1309.43,-85.05 1299.21,-87.82 1303.17,-93.59"/>
</g>
<!-- Node42 -->
<g id="node40" class="node">
<title>Node42</title>
<g id="a_node40"><a xlink:title=" ">
<polygon fill="#e0e0e0" stroke="#999999" points="1185.5,-85 1113.5,-85 1113.5,-66 1185.5,-66 1185.5,-85"/>
<text text-anchor="middle" x="1149.5" y="-73" font-family="Helvetica,sans-Serif" font-size="10.00">date/date.h</text>
</a>
</g>
</g>
<!-- Node35&#45;&gt;Node42 -->
<g id="edge48" class="edge">
<title>Node35&#45;&gt;Node42</title>
<path fill="none" stroke="#63b8ff" d="M930.38,-137.45C986.8,-124.66 1088.08,-101.45 1104.5,-96 1110.4,-94.04 1116.6,-91.61 1122.44,-89.14"/>
<polygon fill="#63b8ff" stroke="#63b8ff" points="1124.08,-92.25 1131.83,-85.02 1121.26,-85.84 1124.08,-92.25"/>
</g>
<!-- Node43 -->
<g id="node41" class="node">
<title>Node43</title>
<g id="a_node41"><a xlink:title=" ">
<polygon fill="#e0e0e0" stroke="#999999" points="627.5,-85 529.5,-85 529.5,-66 627.5,-66 627.5,-85"/>
<text text-anchor="middle" x="578.5" y="-73" font-family="Helvetica,sans-Serif" font-size="10.00">pcg_random.hpp</text>
</a>
</g>
</g>
<!-- Node35&#45;&gt;Node43 -->
<g id="edge49" class="edge">
<title>Node35&#45;&gt;Node43</title>
<path fill="none" stroke="#63b8ff" d="M865.8,-137.45C859.21,-135.5 852.13,-133.55 845.5,-132 753.73,-110.51 727.89,-119.09 636.5,-96 628.08,-93.87 619.12,-91.12 610.83,-88.35"/>
<polygon fill="#63b8ff" stroke="#63b8ff" points="611.72,-84.95 601.12,-85.01 609.44,-91.57 611.72,-84.95"/>
</g>
<!-- Node44 -->
<g id="node42" class="node">
<title>Node44</title>
<g id="a_node42"><a xlink:title=" ">
<polygon fill="#e0e0e0" stroke="#999999" points="731.5,-85 645.5,-85 645.5,-66 731.5,-66 731.5,-85"/>
<text text-anchor="middle" x="688.5" y="-73" font-family="Helvetica,sans-Serif" font-size="10.00">fmt/ostream.h</text>
</a>
</g>
</g>
<!-- Node35&#45;&gt;Node44 -->
<g id="edge50" class="edge">
<title>Node35&#45;&gt;Node44</title>
<path fill="none" stroke="#63b8ff" d="M865.48,-137.48C835,-127.78 784,-111.3 740.5,-96 733.9,-93.68 726.86,-91.11 720.17,-88.61"/>
<polygon fill="#63b8ff" stroke="#63b8ff" points="721.29,-85.29 710.69,-85.05 718.82,-91.85 721.29,-85.29"/>
</g>
<!-- Node47&#45;&gt;Node22 -->
<g id="edge59" class="edge">
<title>Node47&#45;&gt;Node22</title>
<path fill="none" stroke="#63b8ff" d="M1093.28,-197.73C1086.75,-182.75 1076.33,-151.89 1090.5,-132 1118.87,-92.16 1148.71,-113.21 1194.5,-96 1200.33,-93.81 1206.51,-91.38 1212.43,-89"/>
<polygon fill="#63b8ff" stroke="#63b8ff" points="1214.09,-92.1 1222.04,-85.09 1211.46,-85.62 1214.09,-92.1"/>
</g>
<!-- Node47&#45;&gt;Node26 -->
<g id="edge55" class="edge">
<title>Node47&#45;&gt;Node26</title>
<path fill="none" stroke="#63b8ff" d="M1081.56,-197.87C1063.86,-188.28 1035.04,-172.67 1014.36,-161.47"/>
<polygon fill="#63b8ff" stroke="#63b8ff" points="1015.96,-158.35 1005.5,-156.67 1012.63,-164.51 1015.96,-158.35"/>
</g>
<!-- Node47&#45;&gt;Node35 -->
<g id="edge60" class="edge">
<title>Node47&#45;&gt;Node35</title>
<path fill="none" stroke="#63b8ff" d="M1067.69,-197.99C1031.94,-187.79 971.87,-170.65 932.21,-159.33"/>
<polygon fill="#63b8ff" stroke="#63b8ff" points="932.92,-155.9 922.34,-156.52 931,-162.63 932.92,-155.9"/>
</g>
<!-- Node47&#45;&gt;Node41 -->
<g id="edge58" class="edge">
<title>Node47&#45;&gt;Node41</title>
<path fill="none" stroke="#63b8ff" d="M1139.49,-197.93C1167.27,-191.02 1203.74,-179.54 1232.5,-162 1263.08,-143.36 1291.22,-112.04 1306.8,-92.92"/>
<polygon fill="#63b8ff" stroke="#63b8ff" points="1309.55,-95.09 1313.04,-85.09 1304.07,-90.73 1309.55,-95.09"/>
</g>
<!-- Node48 -->
<g id="node44" class="node">
<title>Node48</title>
<g id="a_node44"><a xlink:title=" ">
<polygon fill="#e0e0e0" stroke="#999999" points="1548.5,-156.5 1506.5,-156.5 1506.5,-137.5 1548.5,-137.5 1548.5,-156.5"/>
<text text-anchor="middle" x="1527.5" y="-144.5" font-family="Helvetica,sans-Serif" font-size="10.00">array</text>
</a>
</g>
</g>
<!-- Node47&#45;&gt;Node48 -->
<g id="edge54" class="edge">
<title>Node47&#45;&gt;Node48</title>
<path fill="none" stroke="#63b8ff" d="M1149.03,-206.08C1226.2,-204.28 1375.74,-196.19 1497.5,-162 1499.14,-161.54 1500.79,-161 1502.45,-160.41"/>
<polygon fill="#63b8ff" stroke="#63b8ff" points="1503.8,-163.63 1511.68,-156.55 1501.1,-157.17 1503.8,-163.63"/>
</g>
<!-- Node49 -->
<g id="node45" class="node">
<title>Node49</title>
<g id="a_node45"><a xlink:title=" ">
<polygon fill="#e0e0e0" stroke="#999999" points="1149.5,-156.5 1099.5,-156.5 1099.5,-137.5 1149.5,-137.5 1149.5,-156.5"/>
<text text-anchor="middle" x="1124.5" y="-144.5" font-family="Helvetica,sans-Serif" font-size="10.00">gsl/util</text>
</a>
</g>
</g>
<!-- Node47&#45;&gt;Node49 -->
<g id="edge56" class="edge">
<title>Node47&#45;&gt;Node49</title>
<path fill="none" stroke="#63b8ff" d="M1101.48,-197.87C1105.35,-189.49 1111.34,-176.51 1116.24,-165.89"/>
<polygon fill="#63b8ff" stroke="#63b8ff" points="1119.49,-167.21 1120.5,-156.67 1113.13,-164.28 1119.49,-167.21"/>
</g>
<!-- Node50 -->
<g id="node46" class="node">
<title>Node50</title>
<g id="a_node46"><a xlink:title=" ">
<polygon fill="#e0e0e0" stroke="#999999" points="1223.5,-156.5 1167.5,-156.5 1167.5,-137.5 1223.5,-137.5 1223.5,-156.5"/>
<text text-anchor="middle" x="1195.5" y="-144.5" font-family="Helvetica,sans-Serif" font-size="10.00">numeric</text>
</a>
</g>
</g>
<!-- Node47&#45;&gt;Node50 -->
<g id="edge57" class="edge">
<title>Node47&#45;&gt;Node50</title>
<path fill="none" stroke="#63b8ff" d="M1111.96,-197.87C1127.81,-188.41 1153.47,-173.09 1172.18,-161.92"/>
<polygon fill="#63b8ff" stroke="#63b8ff" points="1174.19,-164.8 1180.98,-156.67 1170.6,-158.79 1174.19,-164.8"/>
</g>
<!-- Node52&#45;&gt;Node2 -->
<g id="edge64" class="edge">
<title>Node52&#45;&gt;Node2</title>
<path fill="none" stroke="#63b8ff" d="M115.41,-197.95C101.93,-190.11 82.94,-177.4 70.5,-162 54.2,-141.81 43.44,-113.53 37.66,-95.11"/>
<polygon fill="#63b8ff" stroke="#63b8ff" points="40.96,-93.91 34.76,-85.31 34.24,-95.89 40.96,-93.91"/>
</g>
<!-- Node52&#45;&gt;Node10 -->
<g id="edge65" class="edge">
<title>Node52&#45;&gt;Node10</title>
<path fill="none" stroke="#63b8ff" d="M171.59,-201.21C258.43,-189.74 462.44,-162.8 541.96,-152.3"/>
<polygon fill="#63b8ff" stroke="#63b8ff" points="542.44,-155.76 551.9,-150.98 541.52,-148.82 542.44,-155.76"/>
</g>
<!-- Node52&#45;&gt;Node32 -->
<g id="edge63" class="edge">
<title>Node52&#45;&gt;Node32</title>
<path fill="none" stroke="#63b8ff" d="M154.47,-197.99C181.39,-188.03 226.17,-171.45 256.73,-160.13"/>
<polygon fill="#63b8ff" stroke="#63b8ff" points="258.34,-163.27 266.5,-156.52 255.9,-156.71 258.34,-163.27"/>
</g>
<!-- Node53 -->
<g id="node49" class="node">
<title>Node53</title>
<g id="a_node49"><a xlink:href="_mpfr__value_8hpp.html" target="_top" xlink:title="Scope&#45;owned, value&#45;returning MPFR operations.">
<polygon fill="white" stroke="#666666" points="171.5,-156.5 79.5,-156.5 79.5,-137.5 171.5,-137.5 171.5,-156.5"/>
<text text-anchor="middle" x="125.5" y="-144.5" font-family="Helvetica,sans-Serif" font-size="10.00">Mpfr_value.hpp</text>
</a>
</g>
</g>
<!-- Node52&#45;&gt;Node53 -->
<g id="edge66" class="edge">
<title>Node52&#45;&gt;Node53</title>
<path fill="none" stroke="#63b8ff" d="M130.61,-197.87C129.78,-189.75 128.51,-177.31 127.44,-166.89"/>
<polygon fill="#63b8ff" stroke="#63b8ff" points="130.89,-166.26 126.39,-156.67 123.93,-166.97 130.89,-166.26"/>
</g>
<!-- Node53&#45;&gt;Node2 -->
<g id="edge68" class="edge">
<title>Node53&#45;&gt;Node2</title>
<path fill="none" stroke="#63b8ff" d="M114.1,-137.48C98.69,-125.96 70.99,-105.26 52.18,-91.21"/>
<polygon fill="#63b8ff" stroke="#63b8ff" points="54.1,-88.27 44,-85.09 49.91,-93.88 54.1,-88.27"/>
</g>
<!-- Node53&#45;&gt;Node22 -->
<g id="edge70" class="edge">
<title>Node53&#45;&gt;Node22</title>
<path fill="none" stroke="#63b8ff" d="M171.51,-140.31C196.59,-137.4 228.21,-134.05 256.5,-132 464.55,-116.91 990.58,-139.92 1194.5,-96 1201.71,-94.45 1209.22,-91.89 1216.1,-89.13"/>
<polygon fill="#63b8ff" stroke="#63b8ff" points="1217.83,-92.2 1225.63,-85.04 1215.06,-85.77 1217.83,-92.2"/>
</g>
<!-- Node53&#45;&gt;Node27 -->
<g id="edge69" class="edge">
<title>Node53&#45;&gt;Node27</title>
<path fill="none" stroke="#63b8ff" d="M137.15,-137.48C152.96,-125.91 181.44,-105.07 200.66,-91.02"/>
<polygon fill="#63b8ff" stroke="#63b8ff" points="202.75,-93.82 208.76,-85.09 198.62,-88.17 202.75,-93.82"/>
</g>
<!-- Node54 -->
<g id="node50" class="node">
<title>Node54</title>
<g id="a_node50"><a xlink:title=" ">
<polygon fill="#e0e0e0" stroke="#999999" points="168,-85 83,-85 83,-66 168,-66 168,-85"/>
<text text-anchor="middle" x="125.5" y="-73" font-family="Helvetica,sans-Serif" font-size="10.00">CGAL/Gmpfr.h</text>
</a>
</g>
</g>
<!-- Node53&#45;&gt;Node54 -->
<g id="edge67" class="edge">
<title>Node53&#45;&gt;Node54</title>
<path fill="none" stroke="#63b8ff" d="M125.5,-137.48C125.5,-127.06 125.5,-109.11 125.5,-95.38"/>
<polygon fill="#63b8ff" stroke="#63b8ff" points="129,-95.09 125.5,-85.09 122,-95.09 129,-95.09"/>
</g>
</g>
</svg>
