<?xml version="1.0" encoding="UTF-8" standalone="no"?>
<!DOCTYPE svg PUBLIC "-//W3C//DTD SVG 1.1//EN"
 "http://www.w3.org/Graphics/SVG/1.1/DTD/svg11.dtd">
<!-- Generated by graphviz version 2.43.0 (0)
 -->
<!-- Title: include/Metropolis.hpp Pages: 1 -->
<svg width="2637pt" height="610pt"
 viewBox="0.00 0.00 2637.00 610.00" xmlns="http://www.w3.org/2000/svg" xmlns:xlink="http://www.w3.org/1999/xlink">
<g id="graph0" class="graph" transform="scale(1 1) rotate(0) translate(4 606)">
<title>include/Metropolis.hpp</title>
<polygon fill="white" stroke="transparent" points="-4,4 -4,-606 2633,-606 2633,4 -4,4"/>
<!-- Node1 -->
<g id="node1" class="node">
<title>Node1</title>
<g id="a_node1"><a xlink:title="Perform Metropolis&#45;Hastings algorithm on Delaunay Triangulations.">
<polygon fill="#bfbfbf" stroke="black" points="999,-582.5 999,-601.5 1127,-601.5 1127,-582.5 999,-582.5"/>
<text text-anchor="middle" x="1063" y="-589.5" font-family="Helvetica,sans-Serif" font-size="10.00">include/Metropolis.hpp</text>
</a>
</g>
</g>
<!-- Node2 -->
<g id="node2" class="node">
<title>Node2</title>
<g id="a_node2"><a xlink:href="_move__strategy_8hpp.html" target="_top" xlink:title="Template class for move algorithms (strategies) on manifolds.">
<polygon fill="white" stroke="black" points="1083.5,-526.5 1083.5,-545.5 1192.5,-545.5 1192.5,-526.5 1083.5,-526.5"/>
<text text-anchor="middle" x="1138" y="-533.5" font-family="Helvetica,sans-Serif" font-size="10.00">Move_strategy.hpp</text>
</a>
</g>
</g>
<!-- Node1&#45;&gt;Node2 -->
<g id="edge1" class="edge">
<title>Node1&#45;&gt;Node2</title>
<path fill="none" stroke="midnightblue" d="M1075.05,-582.32C1086.46,-574.11 1103.83,-561.6 1117.43,-551.81"/>
<polygon fill="midnightblue" stroke="midnightblue" points="1119.66,-554.52 1125.73,-545.83 1115.57,-548.84 1119.66,-554.52"/>
</g>
<!-- Node49 -->
<g id="node49" class="node">
<title>Node49</title>
<g id="a_node49"><a xlink:href="_s3_action_8hpp.html" target="_top" xlink:title="Calculate S3 bulk actions on 3D Delaunay Triangulations.">
<polygon fill="white" stroke="black" points="967,-526.5 967,-545.5 1047,-545.5 1047,-526.5 967,-526.5"/>
<text text-anchor="middle" x="1007" y="-533.5" font-family="Helvetica,sans-Serif" font-size="10.00">S3Action.hpp</text>
</a>
</g>
</g>
<!-- Node1&#45;&gt;Node49 -->
<g id="edge53" class="edge">
<title>Node1&#45;&gt;Node49</title>
<path fill="none" stroke="midnightblue" d="M1054,-582.32C1045.81,-574.42 1033.49,-562.55 1023.53,-552.94"/>
<polygon fill="midnightblue" stroke="midnightblue" points="1025.79,-550.26 1016.16,-545.83 1020.93,-555.29 1025.79,-550.26"/>
</g>
<!-- Node3 -->
<g id="node3" class="node">
<title>Node3</title>
<g id="a_node3"><a xlink:href="_move__command_8hpp.html" target="_top" xlink:title="Do ergodic moves using the Command pattern.">
<polygon fill="white" stroke="black" points="1289.5,-470.5 1289.5,-489.5 1408.5,-489.5 1408.5,-470.5 1289.5,-470.5"/>
<text text-anchor="middle" x="1349" y="-477.5" font-family="Helvetica,sans-Serif" font-size="10.00">Move_command.hpp</text>
</a>
</g>
</g>
<!-- Node2&#45;&gt;Node3 -->
<g id="edge2" class="edge">
<title>Node2&#45;&gt;Node3</title>
<path fill="none" stroke="midnightblue" d="M1171.43,-526.44C1207.86,-517.12 1266.23,-502.18 1306.03,-492"/>
<polygon fill="midnightblue" stroke="midnightblue" points="1306.9,-495.39 1315.72,-489.52 1305.17,-488.61 1306.9,-495.39"/>
</g>
<!-- Node4 -->
<g id="node4" class="node">
<title>Node4</title>
<g id="a_node4"><a xlink:href="_apply__move_8hpp.html" target="_top" xlink:title="Apply Pachner moves to foliated Delaunay triangulations.">
<polygon fill="white" stroke="black" points="1582,-414.5 1582,-433.5 1680,-433.5 1680,-414.5 1582,-414.5"/>
<text text-anchor="middle" x="1631" y="-421.5" font-family="Helvetica,sans-Serif" font-size="10.00">Apply_move.hpp</text>
</a>
</g>
</g>
<!-- Node3&#45;&gt;Node4 -->
<g id="edge3" class="edge">
<title>Node3&#45;&gt;Node4</title>
<path fill="none" stroke="midnightblue" d="M1393.68,-470.44C1443.29,-460.94 1523.36,-445.61 1576.59,-435.42"/>
<polygon fill="midnightblue" stroke="midnightblue" points="1577.36,-438.83 1586.53,-433.52 1576.05,-431.96 1577.36,-438.83"/>
</g>
<!-- Node10 -->
<g id="node10" class="node">
<title>Node10</title>
<g id="a_node10"><a xlink:href="_ergodic__moves__3_8hpp.html" target="_top" xlink:title="Pachner moves on 2+1 dimensional foliated Delaunay triangulations.">
<polygon fill="white" stroke="black" points="1287.5,-414.5 1287.5,-433.5 1410.5,-433.5 1410.5,-414.5 1287.5,-414.5"/>
<text text-anchor="middle" x="1349" y="-421.5" font-family="Helvetica,sans-Serif" font-size="10.00">Ergodic_moves_3.hpp</text>
</a>
</g>
</g>
<!-- Node3&#45;&gt;Node10 -->
<g id="edge9" class="edge">
<title>Node3&#45;&gt;Node10</title>
<path fill="none" stroke="midnightblue" d="M1349,-470.08C1349,-463.01 1349,-452.86 1349,-443.99"/>
<polygon fill="midnightblue" stroke="midnightblue" points="1352.5,-443.75 1349,-433.75 1345.5,-443.75 1352.5,-443.75"/>
</g>
<!-- Node5 -->
<g id="node5" class="node">
<title>Node5</title>
<g id="a_node5"><a xlink:title=" ">
<polygon fill="white" stroke="#bfbfbf" points="2473.5,-67.5 2473.5,-86.5 2566.5,-86.5 2566.5,-67.5 2473.5,-67.5"/>
<text text-anchor="middle" x="2520" y="-74.5" font-family="Helvetica,sans-Serif" font-size="10.00">spdlog/spdlog.h</text>
</a>
</g>
</g>
<!-- Node4&#45;&gt;Node5 -->
<g id="edge4" class="edge">
<title>Node4&#45;&gt;Node5</title>
<path fill="none" stroke="midnightblue" d="M1660.68,-414.41C1680.84,-407.33 1707.01,-395.57 1725,-378 1748.17,-355.36 1758,-345.4 1758,-313 1758,-313 1758,-313 1758,-199 1758,-40.51 2310.15,-136.07 2464,-98 2472.48,-95.9 2481.47,-93.01 2489.71,-90.07"/>
<polygon fill="midnightblue" stroke="midnightblue" points="2491.14,-93.27 2499.3,-86.52 2488.7,-86.71 2491.14,-93.27"/>
</g>
<!-- Node6 -->
<g id="node6" class="node">
<title>Node6</title>
<g id="a_node6"><a xlink:title=" ">
<polygon fill="white" stroke="#bfbfbf" points="1650.5,-358.5 1650.5,-377.5 1715.5,-377.5 1715.5,-358.5 1650.5,-358.5"/>
<text text-anchor="middle" x="1683" y="-365.5" font-family="Helvetica,sans-Serif" font-size="10.00">functional</text>
</a>
</g>
</g>
<!-- Node4&#45;&gt;Node6 -->
<g id="edge5" class="edge">
<title>Node4&#45;&gt;Node6</title>
<path fill="none" stroke="midnightblue" d="M1639.59,-414.08C1647.16,-406.22 1658.38,-394.57 1667.51,-385.08"/>
<polygon fill="midnightblue" stroke="midnightblue" points="1670.16,-387.38 1674.57,-377.75 1665.12,-382.53 1670.16,-387.38"/>
</g>
<!-- Node7 -->
<g id="node7" class="node">
<title>Node7</title>
<g id="a_node7"><a xlink:title=" ">
<polygon fill="white" stroke="#bfbfbf" points="2585,-67.5 2585,-86.5 2629,-86.5 2629,-67.5 2585,-67.5"/>
<text text-anchor="middle" x="2607" y="-74.5" font-family="Helvetica,sans-Serif" font-size="10.00">string</text>
</a>
</g>
</g>
<!-- Node4&#45;&gt;Node7 -->
<g id="edge6" class="edge">
<title>Node4&#45;&gt;Node7</title>
<path fill="none" stroke="midnightblue" d="M1680.2,-419.79C1830.74,-409.31 2275,-373.29 2275,-313 2275,-313 2275,-313 2275,-199 2275,-57.89 2448.84,-159.17 2576,-98 2579.56,-96.29 2583.2,-94.24 2586.68,-92.12"/>
<polygon fill="midnightblue" stroke="midnightblue" points="2588.84,-94.89 2595.33,-86.51 2585.04,-89.01 2588.84,-94.89"/>
</g>
<!-- Node8 -->
<g id="node8" class="node">
<title>Node8</title>
<g id="a_node8"><a xlink:title=" ">
<polygon fill="white" stroke="#bfbfbf" points="1389,-358.5 1389,-377.5 1481,-377.5 1481,-358.5 1389,-358.5"/>
<text text-anchor="middle" x="1435" y="-365.5" font-family="Helvetica,sans-Serif" font-size="10.00">tl/expected.hpp</text>
</a>
</g>
</g>
<!-- Node4&#45;&gt;Node8 -->
<g id="edge7" class="edge">
<title>Node4&#45;&gt;Node8</title>
<path fill="none" stroke="midnightblue" d="M1599.94,-414.44C1566.4,-405.2 1512.8,-390.44 1475.86,-380.26"/>
<polygon fill="midnightblue" stroke="midnightblue" points="1476.48,-376.8 1465.91,-377.52 1474.62,-383.55 1476.48,-376.8"/>
</g>
<!-- Node9 -->
<g id="node9" class="node">
<title>Node9</title>
<g id="a_node9"><a xlink:title=" ">
<polygon fill="white" stroke="#bfbfbf" points="1527.5,-358.5 1527.5,-377.5 1632.5,-377.5 1632.5,-358.5 1527.5,-358.5"/>
<text text-anchor="middle" x="1580" y="-365.5" font-family="Helvetica,sans-Serif" font-size="10.00">tl/function_ref.hpp</text>
</a>
</g>
</g>
<!-- Node4&#45;&gt;Node9 -->
<g id="edge8" class="edge">
<title>Node4&#45;&gt;Node9</title>
<path fill="none" stroke="midnightblue" d="M1622.58,-414.08C1615.15,-406.22 1604.15,-394.57 1595.19,-385.08"/>
<polygon fill="midnightblue" stroke="midnightblue" points="1597.68,-382.62 1588.26,-377.75 1592.59,-387.42 1597.68,-382.62"/>
</g>
<!-- Node10&#45;&gt;Node8 -->
<g id="edge10" class="edge">
<title>Node10&#45;&gt;Node8</title>
<path fill="none" stroke="midnightblue" d="M1362.82,-414.32C1376.23,-405.9 1396.82,-392.97 1412.59,-383.07"/>
<polygon fill="midnightblue" stroke="midnightblue" points="1414.61,-385.94 1421.22,-377.65 1410.89,-380.01 1414.61,-385.94"/>
</g>
<!-- Node11 -->
<g id="node11" class="node">
<title>Node11</title>
<g id="a_node11"><a xlink:href="_move__tracker_8hpp.html" target="_top" xlink:title="Track ergodic moves.">
<polygon fill="white" stroke="black" points="1211.5,-358.5 1211.5,-377.5 1314.5,-377.5 1314.5,-358.5 1211.5,-358.5"/>
<text text-anchor="middle" x="1263" y="-365.5" font-family="Helvetica,sans-Serif" font-size="10.00">Move_tracker.hpp</text>
</a>
</g>
</g>
<!-- Node10&#45;&gt;Node11 -->
<g id="edge11" class="edge">
<title>Node10&#45;&gt;Node11</title>
<path fill="none" stroke="midnightblue" d="M1335.18,-414.32C1321.77,-405.9 1301.18,-392.97 1285.41,-383.07"/>
<polygon fill="midnightblue" stroke="midnightblue" points="1287.11,-380.01 1276.78,-377.65 1283.39,-385.94 1287.11,-380.01"/>
</g>
<!-- Node12 -->
<g id="node12" class="node">
<title>Node12</title>
<g id="a_node12"><a xlink:href="_manifold_8hpp.html" target="_top" xlink:title="Data structures for manifolds.">
<polygon fill="white" stroke="black" points="1142,-302.5 1142,-321.5 1222,-321.5 1222,-302.5 1142,-302.5"/>
<text text-anchor="middle" x="1182" y="-309.5" font-family="Helvetica,sans-Serif" font-size="10.00">Manifold.hpp</text>
</a>
</g>
</g>
<!-- Node11&#45;&gt;Node12 -->
<g id="edge12" class="edge">
<title>Node11&#45;&gt;Node12</title>
<path fill="none" stroke="midnightblue" d="M1249.99,-358.32C1237.47,-349.98 1218.32,-337.21 1203.53,-327.35"/>
<polygon fill="midnightblue" stroke="midnightblue" points="1205.24,-324.29 1194.98,-321.65 1201.36,-330.11 1205.24,-324.29"/>
</g>
<!-- Node13 -->
<g id="node13" class="node">
<title>Node13</title>
<g id="a_node13"><a xlink:title=" ">
<polygon fill="white" stroke="#bfbfbf" points="1155.5,-246.5 1155.5,-265.5 1208.5,-265.5 1208.5,-246.5 1155.5,-246.5"/>
<text text-anchor="middle" x="1182" y="-253.5" font-family="Helvetica,sans-Serif" font-size="10.00">cstddef</text>
</a>
</g>
</g>
<!-- Node12&#45;&gt;Node13 -->
<g id="edge13" class="edge">
<title>Node12&#45;&gt;Node13</title>
<path fill="none" stroke="midnightblue" d="M1182,-302.08C1182,-295.01 1182,-284.86 1182,-275.99"/>
<polygon fill="midnightblue" stroke="midnightblue" points="1185.5,-275.75 1182,-265.75 1178.5,-275.75 1185.5,-275.75"/>
</g>
<!-- Node14 -->
<g id="node14" class="node">
<title>Node14</title>
<g id="a_node14"><a xlink:title=" ">
<polygon fill="white" stroke="#bfbfbf" points="988,-246.5 988,-265.5 1074,-265.5 1074,-246.5 988,-246.5"/>
<text text-anchor="middle" x="1031" y="-253.5" font-family="Helvetica,sans-Serif" font-size="10.00">unordered_set</text>
</a>
</g>
</g>
<!-- Node12&#45;&gt;Node14 -->
<g id="edge14" class="edge">
<title>Node12&#45;&gt;Node14</title>
<path fill="none" stroke="midnightblue" d="M1158.07,-302.44C1132.78,-293.4 1092.7,-279.06 1064.32,-268.92"/>
<polygon fill="midnightblue" stroke="midnightblue" points="1065.41,-265.59 1054.81,-265.52 1063.05,-272.18 1065.41,-265.59"/>
</g>
<!-- Node15 -->
<g id="node15" class="node">
<title>Node15</title>
<g id="a_node15"><a xlink:title=" ">
<polygon fill="white" stroke="#bfbfbf" points="1092.5,-246.5 1092.5,-265.5 1137.5,-265.5 1137.5,-246.5 1092.5,-246.5"/>
<text text-anchor="middle" x="1115" y="-253.5" font-family="Helvetica,sans-Serif" font-size="10.00">utility</text>
</a>
</g>
</g>
<!-- Node12&#45;&gt;Node15 -->
<g id="edge15" class="edge">
<title>Node12&#45;&gt;Node15</title>
<path fill="none" stroke="midnightblue" d="M1171.24,-302.32C1161.23,-294.26 1146.11,-282.08 1134.07,-272.37"/>
<polygon fill="midnightblue" stroke="midnightblue" points="1135.94,-269.38 1125.96,-265.83 1131.55,-274.83 1135.94,-269.38"/>
</g>
<!-- Node16 -->
<g id="node16" class="node">
<title>Node16</title>
<g id="a_node16"><a xlink:href="_geometry_8hpp.html" target="_top" xlink:title="Geometric quantities of Manifold used by MoveAlgorithm.">
<polygon fill="white" stroke="black" points="1226.5,-246.5 1226.5,-265.5 1311.5,-265.5 1311.5,-246.5 1226.5,-246.5"/>
<text text-anchor="middle" x="1269" y="-253.5" font-family="Helvetica,sans-Serif" font-size="10.00">Geometry.hpp</text>
</a>
</g>
</g>
<!-- Node12&#45;&gt;Node16 -->
<g id="edge16" class="edge">
<title>Node12&#45;&gt;Node16</title>
<path fill="none" stroke="midnightblue" d="M1195.98,-302.32C1209.55,-293.9 1230.38,-280.97 1246.32,-271.07"/>
<polygon fill="midnightblue" stroke="midnightblue" points="1248.41,-273.9 1255.06,-265.65 1244.71,-267.95 1248.41,-273.9"/>
</g>
<!-- Node17 -->
<g id="node17" class="node">
<title>Node17</title>
<g id="a_node17"><a xlink:title=" ">
<polygon fill="white" stroke="#bfbfbf" points="1222.5,-190.5 1222.5,-209.5 1315.5,-209.5 1315.5,-190.5 1222.5,-190.5"/>
<text text-anchor="middle" x="1269" y="-197.5" font-family="Helvetica,sans-Serif" font-size="10.00">__utility/swap.h</text>
</a>
</g>
</g>
<!-- Node16&#45;&gt;Node17 -->
<g id="edge17" class="edge">
<title>Node16&#45;&gt;Node17</title>
<path fill="none" stroke="midnightblue" d="M1269,-246.08C1269,-239.01 1269,-228.86 1269,-219.99"/>
<polygon fill="midnightblue" stroke="midnightblue" points="1272.5,-219.75 1269,-209.75 1265.5,-219.75 1272.5,-219.75"/>
</g>
<!-- Node18 -->
<g id="node18" class="node">
<title>Node18</title>
<g id="a_node18"><a xlink:title=" ">
<polygon fill="white" stroke="#bfbfbf" points="1157.5,-190.5 1157.5,-209.5 1204.5,-209.5 1204.5,-190.5 1157.5,-190.5"/>
<text text-anchor="middle" x="1181" y="-197.5" font-family="Helvetica,sans-Serif" font-size="10.00">vector</text>
</a>
</g>
</g>
<!-- Node16&#45;&gt;Node18 -->
<g id="edge18" class="edge">
<title>Node16&#45;&gt;Node18</title>
<path fill="none" stroke="midnightblue" d="M1254.86,-246.32C1241.13,-237.9 1220.06,-224.97 1203.94,-215.07"/>
<polygon fill="midnightblue" stroke="midnightblue" points="1205.46,-211.9 1195.1,-209.65 1201.8,-217.87 1205.46,-211.9"/>
</g>
<!-- Node19 -->
<g id="node19" class="node">
<title>Node19</title>
<g id="a_node19"><a xlink:href="_foliated__triangulation_8hpp.html" target="_top" xlink:title="Create foliated spherical triangulations.">
<polygon fill="white" stroke="black" points="995,-190.5 995,-209.5 1139,-209.5 1139,-190.5 995,-190.5"/>
<text text-anchor="middle" x="1067" y="-197.5" font-family="Helvetica,sans-Serif" font-size="10.00">Foliated_triangulation.hpp</text>
</a>
</g>
</g>
<!-- Node16&#45;&gt;Node19 -->
<g id="edge19" class="edge">
<title>Node16&#45;&gt;Node19</title>
<path fill="none" stroke="midnightblue" d="M1236.99,-246.44C1202.27,-237.16 1146.71,-222.31 1108.62,-212.13"/>
<polygon fill="midnightblue" stroke="midnightblue" points="1109.42,-208.72 1098.86,-209.52 1107.61,-215.48 1109.42,-208.72"/>
</g>
<!-- Node27 -->
<g id="node27" class="node">
<title>Node27</title>
<g id="a_node27"><a xlink:href="_settings_8hpp.html" target="_top" xlink:title="Global integer and precision settings.">
<polygon fill="white" stroke="black" points="839.5,-67.5 839.5,-86.5 916.5,-86.5 916.5,-67.5 839.5,-67.5"/>
<text text-anchor="middle" x="878" y="-74.5" font-family="Helvetica,sans-Serif" font-size="10.00">Settings.hpp</text>
</a>
</g>
</g>
<!-- Node16&#45;&gt;Node27 -->
<g id="edge52" class="edge">
<title>Node16&#45;&gt;Node27</title>
<path fill="none" stroke="midnightblue" d="M1285.96,-246.41C1307.84,-234.19 1341.26,-210.94 1325,-190 1213.12,-45.92 1099.31,-151.79 925,-98 918.55,-96.01 911.78,-93.43 905.45,-90.8"/>
<polygon fill="midnightblue" stroke="midnightblue" points="906.54,-87.46 895.98,-86.68 903.75,-93.88 906.54,-87.46"/>
</g>
<!-- Node20 -->
<g id="node20" class="node">
<title>Node20</title>
<g id="a_node20"><a xlink:title=" ">
<polygon fill="white" stroke="#bfbfbf" points="1037,-134.5 1037,-153.5 1097,-153.5 1097,-134.5 1037,-134.5"/>
<text text-anchor="middle" x="1067" y="-141.5" font-family="Helvetica,sans-Serif" font-size="10.00">concepts</text>
</a>
</g>
</g>
<!-- Node19&#45;&gt;Node20 -->
<g id="edge20" class="edge">
<title>Node19&#45;&gt;Node20</title>
<path fill="none" stroke="midnightblue" d="M1067,-190.08C1067,-183.01 1067,-172.86 1067,-163.99"/>
<polygon fill="midnightblue" stroke="midnightblue" points="1070.5,-163.75 1067,-153.75 1063.5,-163.75 1070.5,-163.75"/>
</g>
<!-- Node21 -->
<g id="node21" class="node">
<title>Node21</title>
<g id="a_node21"><a xlink:href="_triangulation__traits_8hpp.html" target="_top" xlink:title="Traits class for particular uses of CGAL.">
<polygon fill="white" stroke="black" points="524.5,-134.5 524.5,-153.5 655.5,-153.5 655.5,-134.5 524.5,-134.5"/>
<text text-anchor="middle" x="590" y="-141.5" font-family="Helvetica,sans-Serif" font-size="10.00">Triangulation_traits.hpp</text>
</a>
</g>
</g>
<!-- Node19&#45;&gt;Node21 -->
<g id="edge21" class="edge">
<title>Node19&#45;&gt;Node21</title>
<path fill="none" stroke="midnightblue" d="M994.81,-190.83C906.04,-180.78 756.04,-163.8 665.69,-153.57"/>
<polygon fill="midnightblue" stroke="midnightblue" points="665.85,-150.06 655.52,-152.42 665.06,-157.02 665.85,-150.06"/>
</g>
<!-- Node30 -->
<g id="node30" class="node">
<title>Node30</title>
<g id="a_node30"><a xlink:href="_utilities_8hpp.html" target="_top" xlink:title="Utility functions.">
<polygon fill="white" stroke="black" points="1554,-134.5 1554,-153.5 1630,-153.5 1630,-134.5 1554,-134.5"/>
<text text-anchor="middle" x="1592" y="-141.5" font-family="Helvetica,sans-Serif" font-size="10.00">Utilities.hpp</text>
</a>
</g>
</g>
<!-- Node19&#45;&gt;Node30 -->
<g id="edge30" class="edge">
<title>Node19&#45;&gt;Node30</title>
<path fill="none" stroke="midnightblue" d="M1139.42,-190.92C1142.32,-190.61 1145.19,-190.3 1148,-190 1292.08,-174.7 1462.58,-157.74 1544.02,-149.71"/>
<polygon fill="midnightblue" stroke="midnightblue" points="1544.37,-153.19 1553.98,-148.73 1543.68,-146.23 1544.37,-153.19"/>
</g>
<!-- Node22 -->
<g id="node22" class="node">
<title>Node22</title>
<g id="a_node22"><a xlink:title=" ">
<polygon fill="white" stroke="#bfbfbf" points="170,-67.5 170,-86.5 350,-86.5 350,-67.5 170,-67.5"/>
<text text-anchor="middle" x="260" y="-74.5" font-family="Helvetica,sans-Serif" font-size="10.00">CGAL/Delaunay_triangulation_3.h</text>
</a>
</g>
</g>
<!-- Node21&#45;&gt;Node22 -->
<g id="edge22" class="edge">
<title>Node21&#45;&gt;Node22</title>
<path fill="none" stroke="midnightblue" d="M545.7,-134.46C499.18,-125.48 423.92,-110.88 359,-98 343.77,-94.98 327.23,-91.65 312.1,-88.6"/>
<polygon fill="midnightblue" stroke="midnightblue" points="312.39,-85.08 301.9,-86.53 311,-91.94 312.39,-85.08"/>
</g>
<!-- Node23 -->
<g id="node23" class="node">
<title>Node23</title>
<g id="a_node23"><a xlink:title=" ">
<polygon fill="white" stroke="#bfbfbf" points="368.5,-56.5 368.5,-97.5 497.5,-97.5 497.5,-56.5 368.5,-56.5"/>
<text text-anchor="start" x="376.5" y="-85.5" font-family="Helvetica,sans-Serif" font-size="10.00">CGAL/Exact_predicates</text>
<text text-anchor="start" x="376.5" y="-74.5" font-family="Helvetica,sans-Serif" font-size="10.00">_inexact_constructions</text>
<text text-anchor="middle" x="433" y="-63.5" font-family="Helvetica,sans-Serif" font-size="10.00">_kernel.h</text>
</a>
</g>
</g>
<!-- Node21&#45;&gt;Node23 -->
<g id="edge23" class="edge">
<title>Node21&#45;&gt;Node23</title>
<path fill="none" stroke="midnightblue" d="M569.15,-134.37C549.01,-126.03 517.57,-113.01 489.98,-101.59"/>
<polygon fill="midnightblue" stroke="midnightblue" points="490.98,-98.22 480.4,-97.63 488.3,-104.68 490.98,-98.22"/>
</g>
<!-- Node24 -->
<g id="node24" class="node">
<title>Node24</title>
<g id="a_node24"><a xlink:title=" ">
<polygon fill="white" stroke="#bfbfbf" points="515.5,-67.5 515.5,-86.5 664.5,-86.5 664.5,-67.5 515.5,-67.5"/>
<text text-anchor="middle" x="590" y="-74.5" font-family="Helvetica,sans-Serif" font-size="10.00">CGAL/point_generators_3.h</text>
</a>
</g>
</g>
<!-- Node21&#45;&gt;Node24 -->
<g id="edge24" class="edge">
<title>Node21&#45;&gt;Node24</title>
<path fill="none" stroke="midnightblue" d="M590,-134.23C590,-124.68 590,-109.12 590,-96.78"/>
<polygon fill="midnightblue" stroke="midnightblue" points="593.5,-96.63 590,-86.63 586.5,-96.63 593.5,-96.63"/>
</g>
<!-- Node25 -->
<g id="node25" class="node">
<title>Node25</title>
<g id="a_node25"><a xlink:title=" ">
<polygon fill="white" stroke="#bfbfbf" points="683,-62 683,-92 821,-92 821,-62 683,-62"/>
<text text-anchor="start" x="691" y="-80" font-family="Helvetica,sans-Serif" font-size="10.00">CGAL/Triangulation</text>
<text text-anchor="middle" x="752" y="-69" font-family="Helvetica,sans-Serif" font-size="10.00">_cell_base_with_info_3.h</text>
</a>
</g>
</g>
<!-- Node21&#45;&gt;Node25 -->
<g id="edge25" class="edge">
<title>Node21&#45;&gt;Node25</title>
<path fill="none" stroke="midnightblue" d="M611.51,-134.37C635.93,-124.57 676.41,-108.33 707.66,-95.79"/>
<polygon fill="midnightblue" stroke="midnightblue" points="709.06,-99 717.04,-92.03 706.45,-92.5 709.06,-99"/>
</g>
<!-- Node26 -->
<g id="node26" class="node">
<title>Node26</title>
<g id="a_node26"><a xlink:title=" ">
<polygon fill="white" stroke="#bfbfbf" points="0,-62 0,-92 152,-92 152,-62 0,-62"/>
<text text-anchor="start" x="8" y="-80" font-family="Helvetica,sans-Serif" font-size="10.00">CGAL/Triangulation</text>
<text text-anchor="middle" x="76" y="-69" font-family="Helvetica,sans-Serif" font-size="10.00">_vertex_base_with_info_3.h</text>
</a>
</g>
</g>
<!-- Node21&#45;&gt;Node26 -->
<g id="edge26" class="edge">
<title>Node21&#45;&gt;Node26</title>
<path fill="none" stroke="midnightblue" d="M524.24,-138.7C439.74,-132.58 288.74,-119.64 161,-98 154.47,-96.89 147.7,-95.58 140.95,-94.17"/>
<polygon fill="midnightblue" stroke="midnightblue" points="141.63,-90.74 131.12,-92.04 140.15,-97.58 141.63,-90.74"/>
</g>
<!-- Node21&#45;&gt;Node27 -->
<g id="edge27" class="edge">
<title>Node21&#45;&gt;Node27</title>
<path fill="none" stroke="midnightblue" d="M655.56,-134.5C704.31,-127.26 772.11,-115.28 830,-98 836.86,-95.95 844.07,-93.26 850.76,-90.51"/>
<polygon fill="midnightblue" stroke="midnightblue" points="852.28,-93.67 860.09,-86.51 849.52,-87.23 852.28,-93.67"/>
</g>
<!-- Node28 -->
<g id="node28" class="node">
<title>Node28</title>
<g id="a_node28"><a xlink:title=" ">
<polygon fill="white" stroke="#bfbfbf" points="751,-0.5 751,-19.5 891,-19.5 891,-0.5 751,-0.5"/>
<text text-anchor="middle" x="821" y="-7.5" font-family="Helvetica,sans-Serif" font-size="10.00">CGAL/GMP/Gmpzf_type.h</text>
</a>
</g>
</g>
<!-- Node27&#45;&gt;Node28 -->
<g id="edge28" class="edge">
<title>Node27&#45;&gt;Node28</title>
<path fill="none" stroke="midnightblue" d="M870.31,-67.23C861.34,-57 846.31,-39.86 835.2,-27.19"/>
<polygon fill="midnightblue" stroke="midnightblue" points="837.79,-24.84 828.57,-19.63 832.53,-29.45 837.79,-24.84"/>
</g>
<!-- Node29 -->
<g id="node29" class="node">
<title>Node29</title>
<g id="a_node29"><a xlink:title=" ">
<polygon fill="white" stroke="#bfbfbf" points="909,-0.5 909,-19.5 959,-19.5 959,-0.5 909,-0.5"/>
<text text-anchor="middle" x="934" y="-7.5" font-family="Helvetica,sans-Serif" font-size="10.00">cstdint</text>
</a>
</g>
</g>
<!-- Node27&#45;&gt;Node29 -->
<g id="edge29" class="edge">
<title>Node27&#45;&gt;Node29</title>
<path fill="none" stroke="midnightblue" d="M885.55,-67.23C894.28,-57.1 908.85,-40.19 919.74,-27.56"/>
<polygon fill="midnightblue" stroke="midnightblue" points="922.69,-29.49 926.57,-19.63 917.39,-24.92 922.69,-29.49"/>
</g>
<!-- Node30&#45;&gt;Node5 -->
<g id="edge50" class="edge">
<title>Node30&#45;&gt;Node5</title>
<path fill="none" stroke="midnightblue" d="M1630.1,-140.65C1660.84,-138.77 1705.2,-136.12 1744,-134 2063.92,-116.53 2149.77,-160.55 2464,-98 2472.95,-96.22 2482.4,-93.28 2490.93,-90.2"/>
<polygon fill="midnightblue" stroke="midnightblue" points="2492.34,-93.41 2500.44,-86.58 2489.85,-86.87 2492.34,-93.41"/>
</g>
<!-- Node30&#45;&gt;Node7 -->
<g id="edge43" class="edge">
<title>Node30&#45;&gt;Node7</title>
<path fill="none" stroke="midnightblue" d="M1630.01,-142.43C1799.82,-139.74 2484.78,-127.15 2576,-98 2580.26,-96.64 2584.49,-94.54 2588.41,-92.2"/>
<polygon fill="midnightblue" stroke="midnightblue" points="2590.47,-95.03 2596.81,-86.54 2586.56,-89.22 2590.47,-95.03"/>
</g>
<!-- Node30&#45;&gt;Node27 -->
<g id="edge51" class="edge">
<title>Node30&#45;&gt;Node27</title>
<path fill="none" stroke="midnightblue" d="M1553.62,-141.16C1420.9,-134.7 986.09,-112.62 925,-98 917.93,-96.31 910.57,-93.65 903.83,-90.82"/>
<polygon fill="midnightblue" stroke="midnightblue" points="905.06,-87.53 894.5,-86.63 902.19,-93.92 905.06,-87.53"/>
</g>
<!-- Node31 -->
<g id="node31" class="node">
<title>Node31</title>
<g id="a_node31"><a xlink:title=" ">
<polygon fill="white" stroke="#bfbfbf" points="2065.5,-67.5 2065.5,-86.5 2148.5,-86.5 2148.5,-67.5 2065.5,-67.5"/>
<text text-anchor="middle" x="2107" y="-74.5" font-family="Helvetica,sans-Serif" font-size="10.00">CGAL/Timer.h</text>
</a>
</g>
</g>
<!-- Node30&#45;&gt;Node31 -->
<g id="edge31" class="edge">
<title>Node30&#45;&gt;Node31</title>
<path fill="none" stroke="midnightblue" d="M1630.04,-140.71C1726.02,-134.72 1976.12,-117.66 2057,-98 2064.49,-96.18 2072.35,-93.45 2079.56,-90.6"/>
<polygon fill="midnightblue" stroke="midnightblue" points="2081.02,-93.78 2088.89,-86.69 2078.31,-87.32 2081.02,-93.78"/>
</g>
<!-- Node32 -->
<g id="node32" class="node">
<title>Node32</title>
<g id="a_node32"><a xlink:title=" ">
<polygon fill="white" stroke="#bfbfbf" points="2167,-67.5 2167,-86.5 2231,-86.5 2231,-67.5 2167,-67.5"/>
<text text-anchor="middle" x="2199" y="-74.5" font-family="Helvetica,sans-Serif" font-size="10.00">algorithm</text>
</a>
</g>
</g>
<!-- Node30&#45;&gt;Node32 -->
<g id="edge32" class="edge">
<title>Node30&#45;&gt;Node32</title>
<path fill="none" stroke="midnightblue" d="M1630.26,-140.79C1749.16,-133.8 2107.36,-111.83 2158,-98 2163.97,-96.37 2170.12,-93.87 2175.78,-91.18"/>
<polygon fill="midnightblue" stroke="midnightblue" points="2177.41,-94.28 2184.72,-86.61 2174.22,-88.05 2177.41,-94.28"/>
</g>
<!-- Node33 -->
<g id="node33" class="node">
<title>Node33</title>
<g id="a_node33"><a xlink:title=" ">
<polygon fill="white" stroke="#bfbfbf" points="2249,-67.5 2249,-86.5 2301,-86.5 2301,-67.5 2249,-67.5"/>
<text text-anchor="middle" x="2275" y="-74.5" font-family="Helvetica,sans-Serif" font-size="10.00">cassert</text>
</a>
</g>
</g>
<!-- Node30&#45;&gt;Node33 -->
<g id="edge33" class="edge">
<title>Node30&#45;&gt;Node33</title>
<path fill="none" stroke="midnightblue" d="M1630.09,-140.58C1766.79,-131.89 2225.31,-102.45 2240,-98 2244.85,-96.53 2249.76,-94.29 2254.3,-91.83"/>
<polygon fill="midnightblue" stroke="midnightblue" points="2256.18,-94.79 2262.99,-86.67 2252.6,-88.77 2256.18,-94.79"/>
</g>
<!-- Node34 -->
<g id="node34" class="node">
<title>Node34</title>
<g id="a_node34"><a xlink:title=" ">
<polygon fill="white" stroke="#bfbfbf" points="2319.5,-67.5 2319.5,-86.5 2368.5,-86.5 2368.5,-67.5 2319.5,-67.5"/>
<text text-anchor="middle" x="2344" y="-74.5" font-family="Helvetica,sans-Serif" font-size="10.00">cstdlib</text>
</a>
</g>
</g>
<!-- Node30&#45;&gt;Node34 -->
<g id="edge34" class="edge">
<title>Node30&#45;&gt;Node34</title>
<path fill="none" stroke="midnightblue" d="M1630.12,-140.73C1777.43,-131.94 2301.79,-100.51 2310,-98 2314.62,-96.59 2319.27,-94.43 2323.59,-92.06"/>
<polygon fill="midnightblue" stroke="midnightblue" points="2325.66,-94.89 2332.37,-86.69 2322.01,-88.92 2325.66,-94.89"/>
</g>
<!-- Node35 -->
<g id="node35" class="node">
<title>Node35</title>
<g id="a_node35"><a xlink:title=" ">
<polygon fill="white" stroke="#bfbfbf" points="2387,-67.5 2387,-86.5 2455,-86.5 2455,-67.5 2387,-67.5"/>
<text text-anchor="middle" x="2421" y="-74.5" font-family="Helvetica,sans-Serif" font-size="10.00">filesystem</text>
</a>
</g>
</g>
<!-- Node30&#45;&gt;Node35 -->
<g id="edge35" class="edge">
<title>Node30&#45;&gt;Node35</title>
<path fill="none" stroke="midnightblue" d="M1630.1,-140.72C1660.85,-138.88 1705.21,-136.25 1744,-134 1884.88,-125.83 2241.13,-132.37 2378,-98 2384.24,-96.43 2390.68,-93.96 2396.61,-91.28"/>
<polygon fill="midnightblue" stroke="midnightblue" points="2398.55,-94.23 2406,-86.69 2395.48,-87.94 2398.55,-94.23"/>
</g>
<!-- Node36 -->
<g id="node36" class="node">
<title>Node36</title>
<g id="a_node36"><a xlink:title=" ">
<polygon fill="white" stroke="#bfbfbf" points="934.5,-67.5 934.5,-86.5 989.5,-86.5 989.5,-67.5 934.5,-67.5"/>
<text text-anchor="middle" x="962" y="-74.5" font-family="Helvetica,sans-Serif" font-size="10.00">fstream</text>
</a>
</g>
</g>
<!-- Node30&#45;&gt;Node36 -->
<g id="edge36" class="edge">
<title>Node30&#45;&gt;Node36</title>
<path fill="none" stroke="midnightblue" d="M1553.63,-141.02C1430.77,-134.55 1052,-113.56 999,-98 993.79,-96.47 988.49,-94.14 983.58,-91.61"/>
<polygon fill="midnightblue" stroke="midnightblue" points="985.2,-88.5 974.77,-86.64 981.76,-94.6 985.2,-88.5"/>
</g>
<!-- Node37 -->
<g id="node37" class="node">
<title>Node37</title>
<g id="a_node37"><a xlink:title=" ">
<polygon fill="white" stroke="#bfbfbf" points="1008,-67.5 1008,-86.5 1056,-86.5 1056,-67.5 1008,-67.5"/>
<text text-anchor="middle" x="1032" y="-74.5" font-family="Helvetica,sans-Serif" font-size="10.00">gsl/gsl</text>
</a>
</g>
</g>
<!-- Node30&#45;&gt;Node37 -->
<g id="edge37" class="edge">
<title>Node30&#45;&gt;Node37</title>
<path fill="none" stroke="midnightblue" d="M1553.7,-141.99C1448.35,-138.86 1156.02,-127.66 1065,-98 1060.51,-96.54 1055.99,-94.36 1051.79,-91.98"/>
<polygon fill="midnightblue" stroke="midnightblue" points="1053.6,-88.98 1043.27,-86.62 1049.88,-94.91 1053.6,-88.98"/>
</g>
<!-- Node38 -->
<g id="node38" class="node">
<title>Node38</title>
<g id="a_node38"><a xlink:title=" ">
<polygon fill="white" stroke="#bfbfbf" points="1074,-67.5 1074,-86.5 1134,-86.5 1134,-67.5 1074,-67.5"/>
<text text-anchor="middle" x="1104" y="-74.5" font-family="Helvetica,sans-Serif" font-size="10.00">iostream</text>
</a>
</g>
</g>
<!-- Node30&#45;&gt;Node38 -->
<g id="edge38" class="edge">
<title>Node30&#45;&gt;Node38</title>
<path fill="none" stroke="midnightblue" d="M1553.78,-141C1459.84,-135.8 1219.74,-120.64 1143,-98 1137.44,-96.36 1131.73,-93.92 1126.45,-91.31"/>
<polygon fill="midnightblue" stroke="midnightblue" points="1128.02,-88.18 1117.55,-86.54 1124.72,-94.35 1128.02,-88.18"/>
</g>
<!-- Node39 -->
<g id="node39" class="node">
<title>Node39</title>
<g id="a_node39"><a xlink:title=" ">
<polygon fill="white" stroke="#bfbfbf" points="1152,-67.5 1152,-86.5 1200,-86.5 1200,-67.5 1152,-67.5"/>
<text text-anchor="middle" x="1176" y="-74.5" font-family="Helvetica,sans-Serif" font-size="10.00">mutex</text>
</a>
</g>
</g>
<!-- Node30&#45;&gt;Node39 -->
<g id="edge39" class="edge">
<title>Node30&#45;&gt;Node39</title>
<path fill="none" stroke="midnightblue" d="M1553.85,-143.81C1483.61,-144.15 1329.94,-139.55 1209,-98 1204.53,-96.46 1200.02,-94.26 1195.83,-91.86"/>
<polygon fill="midnightblue" stroke="midnightblue" points="1197.64,-88.87 1187.31,-86.52 1193.92,-94.8 1197.64,-88.87"/>
</g>
<!-- Node40 -->
<g id="node40" class="node">
<title>Node40</title>
<g id="a_node40"><a xlink:title=" ">
<polygon fill="white" stroke="#bfbfbf" points="1218,-67.5 1218,-86.5 1272,-86.5 1272,-67.5 1218,-67.5"/>
<text text-anchor="middle" x="1245" y="-74.5" font-family="Helvetica,sans-Serif" font-size="10.00">random</text>
</a>
</g>
</g>
<!-- Node30&#45;&gt;Node40 -->
<g id="edge40" class="edge">
<title>Node30&#45;&gt;Node40</title>
<path fill="none" stroke="midnightblue" d="M1553.63,-141.9C1493.87,-139.2 1375.6,-129.92 1281,-98 1276.17,-96.37 1271.24,-94.1 1266.64,-91.67"/>
<polygon fill="midnightblue" stroke="midnightblue" points="1268.22,-88.54 1257.8,-86.61 1264.75,-94.62 1268.22,-88.54"/>
</g>
<!-- Node41 -->
<g id="node41" class="node">
<title>Node41</title>
<g id="a_node41"><a xlink:title=" ">
<polygon fill="white" stroke="#bfbfbf" points="1290,-67.5 1290,-86.5 1330,-86.5 1330,-67.5 1290,-67.5"/>
<text text-anchor="middle" x="1310" y="-74.5" font-family="Helvetica,sans-Serif" font-size="10.00">span</text>
</a>
</g>
</g>
<!-- Node30&#45;&gt;Node41 -->
<g id="edge41" class="edge">
<title>Node30&#45;&gt;Node41</title>
<path fill="none" stroke="midnightblue" d="M1553.95,-141.05C1503.42,-137.39 1412.16,-127.02 1340,-98 1336.19,-96.47 1332.36,-94.41 1328.77,-92.19"/>
<polygon fill="midnightblue" stroke="midnightblue" points="1330.74,-89.29 1320.5,-86.56 1326.8,-95.08 1330.74,-89.29"/>
</g>
<!-- Node42 -->
<g id="node42" class="node">
<title>Node42</title>
<g id="a_node42"><a xlink:title=" ">
<polygon fill="white" stroke="#bfbfbf" points="1348.5,-67.5 1348.5,-86.5 1413.5,-86.5 1413.5,-67.5 1348.5,-67.5"/>
<text text-anchor="middle" x="1381" y="-74.5" font-family="Helvetica,sans-Serif" font-size="10.00">stdexcept</text>
</a>
</g>
</g>
<!-- Node30&#45;&gt;Node42 -->
<g id="edge42" class="edge">
<title>Node30&#45;&gt;Node42</title>
<path fill="none" stroke="midnightblue" d="M1553.79,-134.95C1519.13,-127.14 1466.89,-114.14 1423,-98 1417.5,-95.98 1411.75,-93.5 1406.33,-90.98"/>
<polygon fill="midnightblue" stroke="midnightblue" points="1407.58,-87.7 1397.06,-86.5 1404.54,-94 1407.58,-87.7"/>
</g>
<!-- Node43 -->
<g id="node43" class="node">
<title>Node43</title>
<g id="a_node43"><a xlink:title=" ">
<polygon fill="white" stroke="#bfbfbf" points="1431.5,-67.5 1431.5,-86.5 1496.5,-86.5 1496.5,-67.5 1431.5,-67.5"/>
<text text-anchor="middle" x="1464" y="-74.5" font-family="Helvetica,sans-Serif" font-size="10.00">typeindex</text>
</a>
</g>
</g>
<!-- Node30&#45;&gt;Node43 -->
<g id="edge44" class="edge">
<title>Node30&#45;&gt;Node43</title>
<path fill="none" stroke="midnightblue" d="M1575,-134.37C1553.29,-123.34 1515.51,-104.16 1490.13,-91.27"/>
<polygon fill="midnightblue" stroke="midnightblue" points="1491.57,-88.07 1481.07,-86.67 1488.4,-94.32 1491.57,-88.07"/>
</g>
<!-- Node44 -->
<g id="node44" class="node">
<title>Node44</title>
<g id="a_node44"><a xlink:title=" ">
<polygon fill="white" stroke="#bfbfbf" points="1514.5,-67.5 1514.5,-86.5 1573.5,-86.5 1573.5,-67.5 1514.5,-67.5"/>
<text text-anchor="middle" x="1544" y="-74.5" font-family="Helvetica,sans-Serif" font-size="10.00">date/tz.h</text>
</a>
</g>
</g>
<!-- Node30&#45;&gt;Node44 -->
<g id="edge45" class="edge">
<title>Node30&#45;&gt;Node44</title>
<path fill="none" stroke="midnightblue" d="M1585.53,-134.23C1578.11,-124.2 1565.8,-107.51 1556.5,-94.92"/>
<polygon fill="midnightblue" stroke="midnightblue" points="1559.13,-92.59 1550.37,-86.63 1553.5,-96.75 1559.13,-92.59"/>
</g>
<!-- Node45 -->
<g id="node45" class="node">
<title>Node45</title>
<g id="a_node45"><a xlink:title=" ">
<polygon fill="white" stroke="#bfbfbf" points="1592,-67.5 1592,-86.5 1690,-86.5 1690,-67.5 1592,-67.5"/>
<text text-anchor="middle" x="1641" y="-74.5" font-family="Helvetica,sans-Serif" font-size="10.00">pcg_random.hpp</text>
</a>
</g>
</g>
<!-- Node30&#45;&gt;Node45 -->
<g id="edge46" class="edge">
<title>Node30&#45;&gt;Node45</title>
<path fill="none" stroke="midnightblue" d="M1598.61,-134.23C1606.18,-124.2 1618.75,-107.51 1628.24,-94.92"/>
<polygon fill="midnightblue" stroke="midnightblue" points="1631.27,-96.72 1634.5,-86.63 1625.68,-92.51 1631.27,-96.72"/>
</g>
<!-- Node46 -->
<g id="node46" class="node">
<title>Node46</title>
<g id="a_node46"><a xlink:title=" ">
<polygon fill="white" stroke="#bfbfbf" points="1708,-67.5 1708,-86.5 1794,-86.5 1794,-67.5 1708,-67.5"/>
<text text-anchor="middle" x="1751" y="-74.5" font-family="Helvetica,sans-Serif" font-size="10.00">fmt/ostream.h</text>
</a>
</g>
</g>
<!-- Node30&#45;&gt;Node46 -->
<g id="edge47" class="edge">
<title>Node30&#45;&gt;Node46</title>
<path fill="none" stroke="midnightblue" d="M1613.11,-134.37C1640.63,-123.12 1688.95,-103.37 1720.46,-90.49"/>
<polygon fill="midnightblue" stroke="midnightblue" points="1722.12,-93.59 1730.05,-86.56 1719.47,-87.11 1722.12,-93.59"/>
</g>
<!-- Node47 -->
<g id="node47" class="node">
<title>Node47</title>
<g id="a_node47"><a xlink:title=" ">
<polygon fill="white" stroke="#bfbfbf" points="1812,-62 1812,-92 1918,-92 1918,-62 1812,-62"/>
<text text-anchor="start" x="1820" y="-80" font-family="Helvetica,sans-Serif" font-size="10.00">spdlog/sinks/basic</text>
<text text-anchor="middle" x="1865" y="-69" font-family="Helvetica,sans-Serif" font-size="10.00">_file_sink.h</text>
</a>
</g>
</g>
<!-- Node30&#45;&gt;Node47 -->
<g id="edge48" class="edge">
<title>Node30&#45;&gt;Node47</title>
<path fill="none" stroke="midnightblue" d="M1630.01,-136.1C1672.47,-128.12 1743.11,-114 1803,-98 1806.54,-97.05 1810.18,-96.03 1813.83,-94.95"/>
<polygon fill="midnightblue" stroke="midnightblue" points="1814.93,-98.28 1823.49,-92.03 1812.9,-91.58 1814.93,-98.28"/>
</g>
<!-- Node48 -->
<g id="node48" class="node">
<title>Node48</title>
<g id="a_node48"><a xlink:title=" ">
<polygon fill="white" stroke="#bfbfbf" points="1936.5,-62 1936.5,-92 2047.5,-92 2047.5,-62 1936.5,-62"/>
<text text-anchor="start" x="1944.5" y="-80" font-family="Helvetica,sans-Serif" font-size="10.00">spdlog/sinks/stdout</text>
<text text-anchor="middle" x="1992" y="-69" font-family="Helvetica,sans-Serif" font-size="10.00">_color_sinks.h</text>
</a>
</g>
</g>
<!-- Node30&#45;&gt;Node48 -->
<g id="edge49" class="edge">
<title>Node30&#45;&gt;Node48</title>
<path fill="none" stroke="midnightblue" d="M1630.03,-139.95C1692.54,-134.48 1820.67,-121.33 1927,-98 1931.33,-97.05 1935.8,-95.95 1940.25,-94.76"/>
<polygon fill="midnightblue" stroke="midnightblue" points="1941.28,-98.11 1949.96,-92.04 1939.39,-91.36 1941.28,-98.11"/>
</g>
<!-- Node49&#45;&gt;Node27 -->
<g id="edge55" class="edge">
<title>Node49&#45;&gt;Node27</title>
<path fill="none" stroke="midnightblue" d="M992.86,-526.36C967.99,-509.95 919,-471.71 919,-425 919,-425 919,-425 919,-199 919,-160.55 900.2,-118.69 888.06,-95.67"/>
<polygon fill="midnightblue" stroke="midnightblue" points="891.06,-93.86 883.19,-86.76 884.92,-97.21 891.06,-93.86"/>
</g>
<!-- Node50 -->
<g id="node50" class="node">
<title>Node50</title>
<g id="a_node50"><a xlink:title=" ">
<polygon fill="white" stroke="#bfbfbf" points="983,-470.5 983,-489.5 1031,-489.5 1031,-470.5 983,-470.5"/>
<text text-anchor="middle" x="1007" y="-477.5" font-family="Helvetica,sans-Serif" font-size="10.00">mpfr.h</text>
</a>
</g>
</g>
<!-- Node49&#45;&gt;Node50 -->
<g id="edge54" class="edge">
<title>Node49&#45;&gt;Node50</title>
<path fill="none" stroke="midnightblue" d="M1007,-526.08C1007,-519.01 1007,-508.86 1007,-499.99"/>
<polygon fill="midnightblue" stroke="midnightblue" points="1010.5,-499.75 1007,-489.75 1003.5,-499.75 1010.5,-499.75"/>
</g>
</g>
</svg>
