<?xml version="1.0" encoding="UTF-8" standalone="no"?>
<!DOCTYPE svg PUBLIC "-//W3C//DTD SVG 1.1//EN"
 "http://www.w3.org/Graphics/SVG/1.1/DTD/svg11.dtd">
<!-- Generated by graphviz version 2.43.0 (0)
 -->
<!-- Title: include/Metropolis.hpp Pages: 1 -->
<svg width="2251pt" height="500pt"
 viewBox="0.00 0.00 2250.50 500.00" xmlns="http://www.w3.org/2000/svg" xmlns:xlink="http://www.w3.org/1999/xlink">
<g id="graph0" class="graph" transform="scale(1 1) rotate(0) translate(4 496)">
<title>include/Metropolis.hpp</title>
<!-- Node1 -->
<g id="node1" class="node">
<title>Node1</title>
<g id="a_node1"><a xlink:title="Perform Metropolis&#45;Hastings algorithm on Delaunay Triangulations.">
<polygon fill="#999999" stroke="#666666" points="279.5,-492 151.5,-492 151.5,-473 279.5,-473 279.5,-492"/>
<text text-anchor="middle" x="215.5" y="-480" font-family="Helvetica,sans-Serif" font-size="10.00">include/Metropolis.hpp</text>
</a>
</g>
</g>
<!-- Node2 -->
<g id="node2" class="node">
<title>Node2</title>
<g id="a_node2"><a xlink:title=" ">
<polygon fill="#e0e0e0" stroke="#999999" points="65,-85 0,-85 0,-66 65,-66 65,-85"/>
<text text-anchor="middle" x="32.5" y="-73" font-family="Helvetica,sans-Serif" font-size="10.00">stdexcept</text>
</a>
</g>
</g>
<!-- Node1&#45;&gt;Node2 -->
<g id="edge1" class="edge">
<title>Node1&#45;&gt;Node2</title>
<path fill="none" stroke="#63b8ff" d="M172.58,-472.94C123.69,-460.4 50.5,-431.87 50.5,-373.5 50.5,-373.5 50.5,-373.5 50.5,-195.5 50.5,-159.59 42.39,-118.26 37.05,-94.97"/>
<polygon fill="#63b8ff" stroke="#63b8ff" points="40.42,-94.01 34.71,-85.09 33.61,-95.63 40.42,-94.01"/>
</g>
<!-- Node3 -->
<g id="node3" class="node">
<title>Node3</title>
<g id="a_node3"><a xlink:href="_move__command_8hpp.html" target="_top" xlink:title="Do ergodic moves using the Command pattern.">
<polygon fill="white" stroke="#666666" points="464,-437 345,-437 345,-418 464,-418 464,-437"/>
<text text-anchor="middle" x="404.5" y="-425" font-family="Helvetica,sans-Serif" font-size="10.00">Move_command.hpp</text>
</a>
</g>
</g>
<!-- Node1&#45;&gt;Node3 -->
<g id="edge2" class="edge">
<title>Node1&#45;&gt;Node3</title>
<path fill="none" stroke="#63b8ff" d="M245.87,-472.98C277.87,-464.01 328.46,-449.82 363.88,-439.89"/>
<polygon fill="#63b8ff" stroke="#63b8ff" points="365.21,-443.15 373.9,-437.08 363.32,-436.41 365.21,-443.15"/>
</g>
<!-- Node47 -->
<g id="node47" class="node">
<title>Node47</title>
<g id="a_node47"><a xlink:href="_move__strategy_8hpp.html" target="_top" xlink:title="Template class for move algorithms (strategies) on manifolds.">
<polygon fill="white" stroke="#666666" points="327,-437 218,-437 218,-418 327,-418 327,-437"/>
<text text-anchor="middle" x="272.5" y="-425" font-family="Helvetica,sans-Serif" font-size="10.00">Move_strategy.hpp</text>
</a>
</g>
</g>
<!-- Node1&#45;&gt;Node47 -->
<g id="edge56" class="edge">
<title>Node1&#45;&gt;Node47</title>
<path fill="none" stroke="#63b8ff" d="M224.66,-472.98C233,-465.23 245.53,-453.58 255.68,-444.14"/>
<polygon fill="#63b8ff" stroke="#63b8ff" points="258.24,-446.54 263.18,-437.17 253.47,-441.42 258.24,-446.54"/>
</g>
<!-- Node48 -->
<g id="node48" class="node">
<title>Node48</title>
<g id="a_node48"><a xlink:href="_s3_action_8hpp.html" target="_top" xlink:title="Calculate S3 bulk actions on 3D Delaunay Triangulations.">
<polygon fill="white" stroke="#666666" points="199.5,-437 119.5,-437 119.5,-418 199.5,-418 199.5,-437"/>
<text text-anchor="middle" x="159.5" y="-425" font-family="Helvetica,sans-Serif" font-size="10.00">S3Action.hpp</text>
</a>
</g>
</g>
<!-- Node1&#45;&gt;Node48 -->
<g id="edge57" class="edge">
<title>Node1&#45;&gt;Node48</title>
<path fill="none" stroke="#63b8ff" d="M206.5,-472.98C198.31,-465.23 185.99,-453.58 176.03,-444.14"/>
<polygon fill="#63b8ff" stroke="#63b8ff" points="178.33,-441.5 168.66,-437.17 173.52,-446.59 178.33,-441.5"/>
</g>
<!-- Node4 -->
<g id="node4" class="node">
<title>Node4</title>
<g id="a_node4"><a xlink:href="_apply__move_8hpp.html" target="_top" xlink:title="Apply Pachner moves to foliated Delaunay triangulations.">
<polygon fill="white" stroke="#666666" points="348.5,-382 250.5,-382 250.5,-363 348.5,-363 348.5,-382"/>
<text text-anchor="middle" x="299.5" y="-370" font-family="Helvetica,sans-Serif" font-size="10.00">Apply_move.hpp</text>
</a>
</g>
</g>
<!-- Node3&#45;&gt;Node4 -->
<g id="edge3" class="edge">
<title>Node3&#45;&gt;Node4</title>
<path fill="none" stroke="#63b8ff" d="M387.63,-417.98C370.89,-409.54 345,-396.47 325.61,-386.68"/>
<polygon fill="#63b8ff" stroke="#63b8ff" points="327.18,-383.55 316.68,-382.17 324.03,-389.8 327.18,-383.55"/>
</g>
<!-- Node11 -->
<g id="node11" class="node">
<title>Node11</title>
<g id="a_node11"><a xlink:href="_ergodic__moves__3_8hpp.html" target="_top" xlink:title="Pachner moves on 2+1 dimensional foliated Delaunay triangulations.">
<polygon fill="white" stroke="#666666" points="620,-382 497,-382 497,-363 620,-363 620,-382"/>
<text text-anchor="middle" x="558.5" y="-370" font-family="Helvetica,sans-Serif" font-size="10.00">Ergodic_moves_3.hpp</text>
</a>
</g>
</g>
<!-- Node3&#45;&gt;Node11 -->
<g id="edge10" class="edge">
<title>Node3&#45;&gt;Node11</title>
<path fill="none" stroke="#63b8ff" d="M429.24,-417.98C454.87,-409.16 495.13,-395.31 523.91,-385.41"/>
<polygon fill="#63b8ff" stroke="#63b8ff" points="525.25,-388.65 533.56,-382.08 522.97,-382.03 525.25,-388.65"/>
</g>
<!-- Node5 -->
<g id="node5" class="node">
<title>Node5</title>
<g id="a_node5"><a xlink:title=" ">
<polygon fill="#e0e0e0" stroke="#999999" points="239,-85 146,-85 146,-66 239,-66 239,-85"/>
<text text-anchor="middle" x="192.5" y="-73" font-family="Helvetica,sans-Serif" font-size="10.00">spdlog/spdlog.h</text>
</a>
</g>
</g>
<!-- Node4&#45;&gt;Node5 -->
<g id="edge4" class="edge">
<title>Node4&#45;&gt;Node5</title>
<path fill="none" stroke="#63b8ff" d="M276.73,-362.89C260.65,-355.67 239.85,-343.82 227.5,-327 207.27,-299.46 208.5,-286.67 208.5,-252.5 208.5,-252.5 208.5,-252.5 208.5,-195.5 208.5,-159.67 201.29,-118.31 196.55,-95"/>
<polygon fill="#63b8ff" stroke="#63b8ff" points="199.95,-94.17 194.46,-85.11 193.1,-95.61 199.95,-94.17"/>
</g>
<!-- Node6 -->
<g id="node6" class="node">
<title>Node6</title>
<g id="a_node6"><a xlink:title=" ">
<polygon fill="#e0e0e0" stroke="#999999" points="362.5,-327 236.5,-327 236.5,-297 362.5,-297 362.5,-327"/>
<text text-anchor="start" x="244.5" y="-315" font-family="Helvetica,sans-Serif" font-size="10.00">boost/compat/function</text>
<text text-anchor="middle" x="299.5" y="-304" font-family="Helvetica,sans-Serif" font-size="10.00">_ref.hpp</text>
</a>
</g>
</g>
<!-- Node4&#45;&gt;Node6 -->
<g id="edge5" class="edge">
<title>Node4&#45;&gt;Node6</title>
<path fill="none" stroke="#63b8ff" d="M299.5,-362.87C299.5,-356.11 299.5,-346.35 299.5,-337.26"/>
<polygon fill="#63b8ff" stroke="#63b8ff" points="303,-337.11 299.5,-327.11 296,-337.11 303,-337.11"/>
</g>
<!-- Node7 -->
<g id="node7" class="node">
<title>Node7</title>
<g id="a_node7"><a xlink:title=" ">
<polygon fill="#e0e0e0" stroke="#999999" points="529.5,-321.5 467.5,-321.5 467.5,-302.5 529.5,-302.5 529.5,-321.5"/>
<text text-anchor="middle" x="498.5" y="-309.5" font-family="Helvetica,sans-Serif" font-size="10.00">expected</text>
</a>
</g>
</g>
<!-- Node4&#45;&gt;Node7 -->
<g id="edge6" class="edge">
<title>Node4&#45;&gt;Node7</title>
<path fill="none" stroke="#63b8ff" d="M330.68,-362.97C362.24,-354.25 412.4,-340.16 455.5,-327 457.93,-326.26 460.43,-325.48 462.95,-324.69"/>
<polygon fill="#63b8ff" stroke="#63b8ff" points="464.17,-327.97 472.63,-321.59 462.04,-321.3 464.17,-327.97"/>
</g>
<!-- Node8 -->
<g id="node8" class="node">
<title>Node8</title>
<g id="a_node8"><a xlink:title=" ">
<polygon fill="#e0e0e0" stroke="#999999" points="446,-321.5 381,-321.5 381,-302.5 446,-302.5 446,-321.5"/>
<text text-anchor="middle" x="413.5" y="-309.5" font-family="Helvetica,sans-Serif" font-size="10.00">functional</text>
</a>
</g>
</g>
<!-- Node4&#45;&gt;Node8 -->
<g id="edge7" class="edge">
<title>Node4&#45;&gt;Node8</title>
<path fill="none" stroke="#63b8ff" d="M316.32,-362.87C335.1,-353.23 365.7,-337.53 387.55,-326.31"/>
<polygon fill="#63b8ff" stroke="#63b8ff" points="389.31,-329.35 396.61,-321.67 386.11,-323.12 389.31,-329.35"/>
</g>
<!-- Node9 -->
<g id="node9" class="node">
<title>Node9</title>
<g id="a_node9"><a xlink:title=" ">
<polygon fill="#e0e0e0" stroke="#999999" points="127.5,-85 83.5,-85 83.5,-66 127.5,-66 127.5,-85"/>
<text text-anchor="middle" x="105.5" y="-73" font-family="Helvetica,sans-Serif" font-size="10.00">string</text>
</a>
</g>
</g>
<!-- Node4&#45;&gt;Node9 -->
<g id="edge8" class="edge">
<title>Node4&#45;&gt;Node9</title>
<path fill="none" stroke="#63b8ff" d="M250.24,-371.52C211.66,-368.87 159.21,-358.97 126.5,-327 101.9,-302.96 105.5,-286.9 105.5,-252.5 105.5,-252.5 105.5,-252.5 105.5,-195.5 105.5,-160.15 105.5,-118.9 105.5,-95.42"/>
<polygon fill="#63b8ff" stroke="#63b8ff" points="109,-95.16 105.5,-85.16 102,-95.16 109,-95.16"/>
</g>
<!-- Node10 -->
<g id="node10" class="node">
<title>Node10</title>
<g id="a_node10"><a xlink:title=" ">
<polygon fill="#e0e0e0" stroke="#999999" points="180,-321.5 135,-321.5 135,-302.5 180,-302.5 180,-321.5"/>
<text text-anchor="middle" x="157.5" y="-309.5" font-family="Helvetica,sans-Serif" font-size="10.00">utility</text>
</a>
</g>
</g>
<!-- Node4&#45;&gt;Node10 -->
<g id="edge9" class="edge">
<title>Node4&#45;&gt;Node10</title>
<path fill="none" stroke="#63b8ff" d="M278.85,-362.99C254.87,-353.12 215.11,-336.73 187.67,-325.43"/>
<polygon fill="#63b8ff" stroke="#63b8ff" points="188.75,-322.09 178.17,-321.52 186.09,-328.56 188.75,-322.09"/>
</g>
<!-- Node11&#45;&gt;Node7 -->
<g id="edge11" class="edge">
<title>Node11&#45;&gt;Node7</title>
<path fill="none" stroke="#63b8ff" d="M549.65,-362.87C540.52,-353.97 526.08,-339.89 514.86,-328.95"/>
<polygon fill="#63b8ff" stroke="#63b8ff" points="516.99,-326.14 507.39,-321.67 512.11,-331.15 516.99,-326.14"/>
</g>
<!-- Node12 -->
<g id="node12" class="node">
<title>Node12</title>
<g id="a_node12"><a xlink:href="_formatters_8hpp.html" target="_top" xlink:title="Formatter specializations for various types.">
<polygon fill="white" stroke="#666666" points="1303,-321.5 1212,-321.5 1212,-302.5 1303,-302.5 1303,-321.5"/>
<text text-anchor="middle" x="1257.5" y="-309.5" font-family="Helvetica,sans-Serif" font-size="10.00">Formatters.hpp</text>
</a>
</g>
</g>
<!-- Node11&#45;&gt;Node12 -->
<g id="edge12" class="edge">
<title>Node11&#45;&gt;Node12</title>
<path fill="none" stroke="#63b8ff" d="M620.22,-366.33C754.71,-355.08 1072.42,-328.49 1201.51,-317.69"/>
<polygon fill="#63b8ff" stroke="#63b8ff" points="1201.9,-321.17 1211.58,-316.84 1201.32,-314.19 1201.9,-321.17"/>
</g>
<!-- Node25 -->
<g id="node25" class="node">
<title>Node25</title>
<g id="a_node25"><a xlink:href="_manifold_8hpp.html" target="_top" xlink:title="Data structures for manifolds.">
<polygon fill="white" stroke="#666666" points="668.5,-321.5 588.5,-321.5 588.5,-302.5 668.5,-302.5 668.5,-321.5"/>
<text text-anchor="middle" x="628.5" y="-309.5" font-family="Helvetica,sans-Serif" font-size="10.00">Manifold.hpp</text>
</a>
</g>
</g>
<!-- Node11&#45;&gt;Node25 -->
<g id="edge25" class="edge">
<title>Node11&#45;&gt;Node25</title>
<path fill="none" stroke="#63b8ff" d="M568.83,-362.87C579.69,-353.8 596.99,-339.34 610.17,-328.32"/>
<polygon fill="#63b8ff" stroke="#63b8ff" points="612.7,-330.77 618.13,-321.67 608.21,-325.39 612.7,-330.77"/>
</g>
<!-- Node43 -->
<g id="node43" class="node">
<title>Node43</title>
<g id="a_node43"><a xlink:href="_move__tracker_8hpp.html" target="_top" xlink:title="Track ergodic moves.">
<polygon fill="white" stroke="#666666" points="642,-206 539,-206 539,-187 642,-187 642,-206"/>
<text text-anchor="middle" x="590.5" y="-194" font-family="Helvetica,sans-Serif" font-size="10.00">Move_tracker.hpp</text>
</a>
</g>
</g>
<!-- Node11&#45;&gt;Node43 -->
<g id="edge48" class="edge">
<title>Node11&#45;&gt;Node43</title>
<path fill="none" stroke="#63b8ff" d="M559.34,-362.94C561.48,-342.09 567.66,-287.07 577.5,-242 579.39,-233.35 582.05,-223.92 584.48,-215.97"/>
<polygon fill="#63b8ff" stroke="#63b8ff" points="587.87,-216.86 587.55,-206.27 581.2,-214.75 587.87,-216.86"/>
</g>
<!-- Node13 -->
<g id="node13" class="node">
<title>Node13</title>
<g id="a_node13"><a xlink:title=" ">
<polygon fill="#e0e0e0" stroke="#999999" points="1291,-261 1224,-261 1224,-242 1291,-242 1291,-261"/>
<text text-anchor="middle" x="1257.5" y="-249" font-family="Helvetica,sans-Serif" font-size="10.00">fmt/core.h</text>
</a>
</g>
</g>
<!-- Node12&#45;&gt;Node13 -->
<g id="edge13" class="edge">
<title>Node12&#45;&gt;Node13</title>
<path fill="none" stroke="#63b8ff" d="M1257.5,-302.37C1257.5,-294.25 1257.5,-281.81 1257.5,-271.39"/>
<polygon fill="#63b8ff" stroke="#63b8ff" points="1261,-271.17 1257.5,-261.17 1254,-271.17 1261,-271.17"/>
</g>
<!-- Node14 -->
<g id="node14" class="node">
<title>Node14</title>
<g id="a_node14"><a xlink:title=" ">
<polygon fill="#e0e0e0" stroke="#999999" points="1388,-261 1309,-261 1309,-242 1388,-242 1388,-261"/>
<text text-anchor="middle" x="1348.5" y="-249" font-family="Helvetica,sans-Serif" font-size="10.00">fmt/format.h</text>
</a>
</g>
</g>
<!-- Node12&#45;&gt;Node14 -->
<g id="edge14" class="edge">
<title>Node12&#45;&gt;Node14</title>
<path fill="none" stroke="#63b8ff" d="M1270.93,-302.37C1285.58,-292.95 1309.26,-277.73 1326.6,-266.58"/>
<polygon fill="#63b8ff" stroke="#63b8ff" points="1328.5,-269.52 1335.02,-261.17 1324.71,-263.63 1328.5,-269.52"/>
</g>
<!-- Node15 -->
<g id="node15" class="node">
<title>Node15</title>
<g id="a_node15"><a xlink:title=" ">
<polygon fill="#e0e0e0" stroke="#999999" points="1205.5,-261 1149.5,-261 1149.5,-242 1205.5,-242 1205.5,-261"/>
<text text-anchor="middle" x="1177.5" y="-249" font-family="Helvetica,sans-Serif" font-size="10.00">sstream</text>
</a>
</g>
</g>
<!-- Node12&#45;&gt;Node15 -->
<g id="edge15" class="edge">
<title>Node12&#45;&gt;Node15</title>
<path fill="none" stroke="#63b8ff" d="M1245.7,-302.37C1233.05,-293.12 1212.76,-278.28 1197.59,-267.19"/>
<polygon fill="#63b8ff" stroke="#63b8ff" points="1199.49,-264.24 1189.35,-261.17 1195.36,-269.9 1199.49,-264.24"/>
</g>
<!-- Node16 -->
<g id="node16" class="node">
<title>Node16</title>
<g id="a_node16"><a xlink:href="_triangulation__traits_8hpp.html" target="_top" xlink:title="Traits class for particular uses of CGAL.">
<polygon fill="white" stroke="#666666" points="1663,-151 1532,-151 1532,-132 1663,-132 1663,-151"/>
<text text-anchor="middle" x="1597.5" y="-139" font-family="Helvetica,sans-Serif" font-size="10.00">Triangulation_traits.hpp</text>
</a>
</g>
</g>
<!-- Node12&#45;&gt;Node16 -->
<g id="edge16" class="edge">
<title>Node12&#45;&gt;Node16</title>
<path fill="none" stroke="#63b8ff" d="M1286.57,-302.42C1315.34,-293.5 1360.35,-278.44 1397.5,-261 1465.58,-229.04 1540.52,-180.82 1576.26,-156.94"/>
<polygon fill="#63b8ff" stroke="#63b8ff" points="1578.52,-159.64 1584.87,-151.16 1574.62,-153.83 1578.52,-159.64"/>
</g>
<!-- Node17 -->
<g id="node17" class="node">
<title>Node17</title>
<g id="a_node17"><a xlink:title=" ">
<polygon fill="#e0e0e0" stroke="#999999" points="1601.5,-85 1421.5,-85 1421.5,-66 1601.5,-66 1601.5,-85"/>
<text text-anchor="middle" x="1511.5" y="-73" font-family="Helvetica,sans-Serif" font-size="10.00">CGAL/Delaunay_triangulation_3.h</text>
</a>
</g>
</g>
<!-- Node16&#45;&gt;Node17 -->
<g id="edge17" class="edge">
<title>Node16&#45;&gt;Node17</title>
<path fill="none" stroke="#63b8ff" d="M1585.9,-131.87C1571.92,-121.47 1548.21,-103.82 1531.32,-91.25"/>
<polygon fill="#63b8ff" stroke="#63b8ff" points="1533.3,-88.36 1523.19,-85.2 1529.12,-93.98 1533.3,-88.36"/>
</g>
<!-- Node18 -->
<g id="node18" class="node">
<title>Node18</title>
<g id="a_node18"><a xlink:title=" ">
<polygon fill="#e0e0e0" stroke="#999999" points="1749,-96 1620,-96 1620,-55 1749,-55 1749,-96"/>
<text text-anchor="start" x="1628" y="-84" font-family="Helvetica,sans-Serif" font-size="10.00">CGAL/Exact_predicates</text>
<text text-anchor="start" x="1628" y="-73" font-family="Helvetica,sans-Serif" font-size="10.00">_inexact_constructions</text>
<text text-anchor="middle" x="1684.5" y="-62" font-family="Helvetica,sans-Serif" font-size="10.00">_kernel.h</text>
</a>
</g>
</g>
<!-- Node16&#45;&gt;Node18 -->
<g id="edge18" class="edge">
<title>Node16&#45;&gt;Node18</title>
<path fill="none" stroke="#63b8ff" d="M1609.23,-131.87C1619.62,-124.22 1635.33,-112.67 1649.71,-102.09"/>
<polygon fill="#63b8ff" stroke="#63b8ff" points="1652,-104.75 1657.98,-96.01 1647.85,-99.12 1652,-104.75"/>
</g>
<!-- Node19 -->
<g id="node19" class="node">
<title>Node19</title>
<g id="a_node19"><a xlink:title=" ">
<polygon fill="#e0e0e0" stroke="#999999" points="1916,-85 1767,-85 1767,-66 1916,-66 1916,-85"/>
<text text-anchor="middle" x="1841.5" y="-73" font-family="Helvetica,sans-Serif" font-size="10.00">CGAL/point_generators_3.h</text>
</a>
</g>
</g>
<!-- Node16&#45;&gt;Node19 -->
<g id="edge19" class="edge">
<title>Node16&#45;&gt;Node19</title>
<path fill="none" stroke="#63b8ff" d="M1630.15,-131.94C1673.8,-120.49 1751.21,-100.18 1799.26,-87.58"/>
<polygon fill="#63b8ff" stroke="#63b8ff" points="1800.25,-90.94 1809.04,-85.01 1798.48,-84.17 1800.25,-90.94"/>
</g>
<!-- Node20 -->
<g id="node20" class="node">
<title>Node20</title>
<g id="a_node20"><a xlink:title=" ">
<polygon fill="#e0e0e0" stroke="#999999" points="2072.5,-90.5 1934.5,-90.5 1934.5,-60.5 2072.5,-60.5 2072.5,-90.5"/>
<text text-anchor="start" x="1942.5" y="-78.5" font-family="Helvetica,sans-Serif" font-size="10.00">CGAL/Triangulation</text>
<text text-anchor="middle" x="2003.5" y="-67.5" font-family="Helvetica,sans-Serif" font-size="10.00">_cell_base_with_info_3.h</text>
</a>
</g>
</g>
<!-- Node16&#45;&gt;Node20 -->
<g id="edge20" class="edge">
<title>Node16&#45;&gt;Node20</title>
<path fill="none" stroke="#63b8ff" d="M1663.19,-133.74C1729.66,-126.4 1835.21,-113.36 1925.5,-96 1930.51,-95.04 1935.68,-93.95 1940.87,-92.8"/>
<polygon fill="#63b8ff" stroke="#63b8ff" points="1941.85,-96.16 1950.81,-90.51 1940.28,-89.34 1941.85,-96.16"/>
</g>
<!-- Node21 -->
<g id="node21" class="node">
<title>Node21</title>
<g id="a_node21"><a xlink:title=" ">
<polygon fill="#e0e0e0" stroke="#999999" points="2242.5,-90.5 2090.5,-90.5 2090.5,-60.5 2242.5,-60.5 2242.5,-90.5"/>
<text text-anchor="start" x="2098.5" y="-78.5" font-family="Helvetica,sans-Serif" font-size="10.00">CGAL/Triangulation</text>
<text text-anchor="middle" x="2166.5" y="-67.5" font-family="Helvetica,sans-Serif" font-size="10.00">_vertex_base_with_info_3.h</text>
</a>
</g>
</g>
<!-- Node16&#45;&gt;Node21 -->
<g id="edge21" class="edge">
<title>Node16&#45;&gt;Node21</title>
<path fill="none" stroke="#63b8ff" d="M1663.22,-137.25C1756.63,-132 1932.98,-119.75 2081.5,-96 2087.58,-95.03 2093.88,-93.87 2100.17,-92.61"/>
<polygon fill="#63b8ff" stroke="#63b8ff" points="2100.93,-96.03 2110.01,-90.57 2099.51,-89.18 2100.93,-96.03"/>
</g>
<!-- Node22 -->
<g id="node22" class="node">
<title>Node22</title>
<g id="a_node22"><a xlink:href="_settings_8hpp.html" target="_top" xlink:title="Global integer and precision settings.">
<polygon fill="white" stroke="#666666" points="1403,-85 1326,-85 1326,-66 1403,-66 1403,-85"/>
<text text-anchor="middle" x="1364.5" y="-73" font-family="Helvetica,sans-Serif" font-size="10.00">Settings.hpp</text>
</a>
</g>
</g>
<!-- Node16&#45;&gt;Node22 -->
<g id="edge22" class="edge">
<title>Node16&#45;&gt;Node22</title>
<path fill="none" stroke="#63b8ff" d="M1554.01,-131.96C1516.19,-124.09 1460.15,-111.31 1412.5,-96 1406.21,-93.98 1399.57,-91.51 1393.31,-89.02"/>
<polygon fill="#63b8ff" stroke="#63b8ff" points="1394.45,-85.7 1383.87,-85.14 1391.79,-92.18 1394.45,-85.7"/>
</g>
<!-- Node23 -->
<g id="node23" class="node">
<title>Node23</title>
<g id="a_node23"><a xlink:title=" ">
<polygon fill="#e0e0e0" stroke="#999999" points="1377.5,-19 1237.5,-19 1237.5,0 1377.5,0 1377.5,-19"/>
<text text-anchor="middle" x="1307.5" y="-7" font-family="Helvetica,sans-Serif" font-size="10.00">CGAL/GMP/Gmpzf_type.h</text>
</a>
</g>
</g>
<!-- Node22&#45;&gt;Node23 -->
<g id="edge23" class="edge">
<title>Node22&#45;&gt;Node23</title>
<path fill="none" stroke="#63b8ff" d="M1356.81,-65.87C1348.02,-56 1333.43,-39.61 1322.39,-27.22"/>
<polygon fill="#63b8ff" stroke="#63b8ff" points="1324.7,-24.55 1315.43,-19.41 1319.47,-29.2 1324.7,-24.55"/>
</g>
<!-- Node24 -->
<g id="node24" class="node">
<title>Node24</title>
<g id="a_node24"><a xlink:title=" ">
<polygon fill="#e0e0e0" stroke="#999999" points="1445.5,-19 1395.5,-19 1395.5,0 1445.5,0 1445.5,-19"/>
<text text-anchor="middle" x="1420.5" y="-7" font-family="Helvetica,sans-Serif" font-size="10.00">cstdint</text>
</a>
</g>
</g>
<!-- Node22&#45;&gt;Node24 -->
<g id="edge24" class="edge">
<title>Node22&#45;&gt;Node24</title>
<path fill="none" stroke="#63b8ff" d="M1372.05,-65.87C1380.69,-56 1395.03,-39.61 1405.87,-27.22"/>
<polygon fill="#63b8ff" stroke="#63b8ff" points="1408.76,-29.24 1412.71,-19.41 1403.49,-24.63 1408.76,-29.24"/>
</g>
<!-- Node26 -->
<g id="node26" class="node">
<title>Node26</title>
<g id="a_node26"><a xlink:title=" ">
<polygon fill="#e0e0e0" stroke="#999999" points="481,-151 428,-151 428,-132 481,-132 481,-151"/>
<text text-anchor="middle" x="454.5" y="-139" font-family="Helvetica,sans-Serif" font-size="10.00">cstddef</text>
</a>
</g>
</g>
<!-- Node25&#45;&gt;Node26 -->
<g id="edge26" class="edge">
<title>Node25&#45;&gt;Node26</title>
<path fill="none" stroke="#63b8ff" d="M619.63,-302.41C591.95,-275.6 506.82,-193.17 470.84,-158.32"/>
<polygon fill="#63b8ff" stroke="#63b8ff" points="473.18,-155.71 463.56,-151.27 468.31,-160.74 473.18,-155.71"/>
</g>
<!-- Node27 -->
<g id="node27" class="node">
<title>Node27</title>
<g id="a_node27"><a xlink:title=" ">
<polygon fill="#e0e0e0" stroke="#999999" points="672.5,-261 586.5,-261 586.5,-242 672.5,-242 672.5,-261"/>
<text text-anchor="middle" x="629.5" y="-249" font-family="Helvetica,sans-Serif" font-size="10.00">unordered_set</text>
</a>
</g>
</g>
<!-- Node25&#45;&gt;Node27 -->
<g id="edge27" class="edge">
<title>Node25&#45;&gt;Node27</title>
<path fill="none" stroke="#63b8ff" d="M628.65,-302.37C628.79,-294.25 629,-281.81 629.18,-271.39"/>
<polygon fill="#63b8ff" stroke="#63b8ff" points="632.68,-271.23 629.35,-261.17 625.68,-271.11 632.68,-271.23"/>
</g>
<!-- Node28 -->
<g id="node28" class="node">
<title>Node28</title>
<g id="a_node28"><a xlink:href="_geometry_8hpp.html" target="_top" xlink:title="Geometric scalars of the Manifold used to calculate the Regge action.">
<polygon fill="white" stroke="#666666" points="777,-261 692,-261 692,-242 777,-242 777,-261"/>
<text text-anchor="middle" x="734.5" y="-249" font-family="Helvetica,sans-Serif" font-size="10.00">Geometry.hpp</text>
</a>
</g>
</g>
<!-- Node25&#45;&gt;Node28 -->
<g id="edge28" class="edge">
<title>Node25&#45;&gt;Node28</title>
<path fill="none" stroke="#63b8ff" d="M644.14,-302.37C661.44,-292.82 689.55,-277.31 709.83,-266.12"/>
<polygon fill="#63b8ff" stroke="#63b8ff" points="711.73,-269.06 718.8,-261.17 708.35,-262.93 711.73,-269.06"/>
</g>
<!-- Node29 -->
<g id="node29" class="node">
<title>Node29</title>
<g id="a_node29"><a xlink:href="_foliated__triangulation_8hpp.html" target="_top" xlink:title="Create foliated spherical triangulations.">
<polygon fill="white" stroke="#666666" points="811.5,-206 667.5,-206 667.5,-187 811.5,-187 811.5,-206"/>
<text text-anchor="middle" x="739.5" y="-194" font-family="Helvetica,sans-Serif" font-size="10.00">Foliated_triangulation.hpp</text>
</a>
</g>
</g>
<!-- Node28&#45;&gt;Node29 -->
<g id="edge29" class="edge">
<title>Node28&#45;&gt;Node29</title>
<path fill="none" stroke="#63b8ff" d="M735.33,-241.75C735.98,-234.8 736.92,-224.85 737.74,-216.13"/>
<polygon fill="#63b8ff" stroke="#63b8ff" points="741.23,-216.37 738.69,-206.09 734.27,-215.72 741.23,-216.37"/>
</g>
<!-- Node29&#45;&gt;Node16 -->
<g id="edge30" class="edge">
<title>Node29&#45;&gt;Node16</title>
<path fill="none" stroke="#63b8ff" d="M811.54,-191.05C972.06,-181.13 1357.8,-157.31 1521.74,-147.18"/>
<polygon fill="#63b8ff" stroke="#63b8ff" points="1521.97,-150.67 1531.74,-146.56 1521.54,-143.69 1521.97,-150.67"/>
</g>
<!-- Node30 -->
<g id="node30" class="node">
<title>Node30</title>
<g id="a_node30"><a xlink:href="_utilities_8hpp.html" target="_top" xlink:title="Utility functions.">
<polygon fill="white" stroke="#666666" points="777.5,-151 701.5,-151 701.5,-132 777.5,-132 777.5,-151"/>
<text text-anchor="middle" x="739.5" y="-139" font-family="Helvetica,sans-Serif" font-size="10.00">Utilities.hpp</text>
</a>
</g>
</g>
<!-- Node29&#45;&gt;Node30 -->
<g id="edge31" class="edge">
<title>Node29&#45;&gt;Node30</title>
<path fill="none" stroke="#63b8ff" d="M739.5,-186.75C739.5,-179.8 739.5,-169.85 739.5,-161.13"/>
<polygon fill="#63b8ff" stroke="#63b8ff" points="743,-161.09 739.5,-151.09 736,-161.09 743,-161.09"/>
</g>
<!-- Node30&#45;&gt;Node2 -->
<g id="edge39" class="edge">
<title>Node30&#45;&gt;Node2</title>
<path fill="none" stroke="#63b8ff" d="M701.34,-133.2C698.35,-132.75 695.38,-132.34 692.5,-132 419.3,-99.46 341.32,-163.12 74.5,-96 68.51,-94.49 62.33,-92.13 56.61,-89.57"/>
<polygon fill="#63b8ff" stroke="#63b8ff" points="58.07,-86.38 47.54,-85.17 55.02,-92.68 58.07,-86.38"/>
</g>
<!-- Node30&#45;&gt;Node5 -->
<g id="edge46" class="edge">
<title>Node30&#45;&gt;Node5</title>
<path fill="none" stroke="#63b8ff" d="M701.33,-133.27C698.35,-132.81 695.38,-132.38 692.5,-132 496.19,-106.35 442.21,-136.88 248.5,-96 239.91,-94.19 230.82,-91.42 222.53,-88.53"/>
<polygon fill="#63b8ff" stroke="#63b8ff" points="223.48,-85.15 212.89,-85 221.08,-91.72 223.48,-85.15"/>
</g>
<!-- Node30&#45;&gt;Node9 -->
<g id="edge40" class="edge">
<title>Node30&#45;&gt;Node9</title>
<path fill="none" stroke="#63b8ff" d="M701.34,-133.22C698.35,-132.77 695.38,-132.35 692.5,-132 569.82,-116.98 255.35,-133.24 137.5,-96 133.31,-94.68 129.11,-92.7 125.19,-90.5"/>
<polygon fill="#63b8ff" stroke="#63b8ff" points="127.03,-87.52 116.7,-85.17 123.31,-93.45 127.03,-87.52"/>
</g>
<!-- Node30&#45;&gt;Node22 -->
<g id="edge47" class="edge">
<title>Node30&#45;&gt;Node22</title>
<path fill="none" stroke="#63b8ff" d="M777.61,-138.24C897.85,-131.04 1264.3,-108.3 1316.5,-96 1323.56,-94.34 1330.93,-91.79 1337.72,-89.07"/>
<polygon fill="#63b8ff" stroke="#63b8ff" points="1339.31,-92.2 1347.15,-85.07 1336.58,-85.76 1339.31,-92.2"/>
</g>
<!-- Node31 -->
<g id="node31" class="node">
<title>Node31</title>
<g id="a_node31"><a xlink:title=" ">
<polygon fill="#e0e0e0" stroke="#999999" points="321.5,-85 257.5,-85 257.5,-66 321.5,-66 321.5,-85"/>
<text text-anchor="middle" x="289.5" y="-73" font-family="Helvetica,sans-Serif" font-size="10.00">algorithm</text>
</a>
</g>
</g>
<!-- Node30&#45;&gt;Node31 -->
<g id="edge32" class="edge">
<title>Node30&#45;&gt;Node31</title>
<path fill="none" stroke="#63b8ff" d="M701.32,-133.33C698.34,-132.85 695.37,-132.4 692.5,-132 532.38,-109.6 486.26,-139.36 330.5,-96 324.81,-94.41 318.93,-92.08 313.46,-89.58"/>
<polygon fill="#63b8ff" stroke="#63b8ff" points="314.72,-86.3 304.2,-85.01 311.62,-92.58 314.72,-86.3"/>
</g>
<!-- Node32 -->
<g id="node32" class="node">
<title>Node32</title>
<g id="a_node32"><a xlink:title=" ">
<polygon fill="#e0e0e0" stroke="#999999" points="407.5,-85 339.5,-85 339.5,-66 407.5,-66 407.5,-85"/>
<text text-anchor="middle" x="373.5" y="-73" font-family="Helvetica,sans-Serif" font-size="10.00">filesystem</text>
</a>
</g>
</g>
<!-- Node30&#45;&gt;Node32 -->
<g id="edge33" class="edge">
<title>Node30&#45;&gt;Node32</title>
<path fill="none" stroke="#63b8ff" d="M701.31,-133.43C698.33,-132.93 695.37,-132.45 692.5,-132 570.7,-113.03 536.18,-129.31 417.5,-96 411.42,-94.29 405.09,-91.89 399.2,-89.36"/>
<polygon fill="#63b8ff" stroke="#63b8ff" points="400.35,-86.04 389.8,-85.07 397.44,-92.41 400.35,-86.04"/>
</g>
<!-- Node33 -->
<g id="node33" class="node">
<title>Node33</title>
<g id="a_node33"><a xlink:title=" ">
<polygon fill="#e0e0e0" stroke="#999999" points="481,-85 426,-85 426,-66 481,-66 481,-85"/>
<text text-anchor="middle" x="453.5" y="-73" font-family="Helvetica,sans-Serif" font-size="10.00">fstream</text>
</a>
</g>
</g>
<!-- Node30&#45;&gt;Node33 -->
<g id="edge34" class="edge">
<title>Node30&#45;&gt;Node33</title>
<path fill="none" stroke="#63b8ff" d="M701.28,-133.58C698.31,-133.04 695.36,-132.51 692.5,-132 602.74,-115.89 576.75,-125.61 490.5,-96 485.77,-94.38 480.91,-92.21 476.32,-89.92"/>
<polygon fill="#63b8ff" stroke="#63b8ff" points="477.91,-86.8 467.45,-85.16 474.61,-92.97 477.91,-86.8"/>
</g>
<!-- Node34 -->
<g id="node34" class="node">
<title>Node34</title>
<g id="a_node34"><a xlink:title=" ">
<polygon fill="#e0e0e0" stroke="#999999" points="547.5,-85 499.5,-85 499.5,-66 547.5,-66 547.5,-85"/>
<text text-anchor="middle" x="523.5" y="-73" font-family="Helvetica,sans-Serif" font-size="10.00">gsl/gsl</text>
</a>
</g>
</g>
<!-- Node30&#45;&gt;Node34 -->
<g id="edge35" class="edge">
<title>Node30&#45;&gt;Node34</title>
<path fill="none" stroke="#63b8ff" d="M701.34,-132.61C655.78,-122.94 582.47,-106.56 556.5,-96 552.59,-94.41 548.59,-92.41 544.79,-90.3"/>
<polygon fill="#63b8ff" stroke="#63b8ff" points="546.28,-87.12 535.9,-85.01 542.7,-93.13 546.28,-87.12"/>
</g>
<!-- Node35 -->
<g id="node35" class="node">
<title>Node35</title>
<g id="a_node35"><a xlink:title=" ">
<polygon fill="#e0e0e0" stroke="#999999" points="613.5,-85 565.5,-85 565.5,-66 613.5,-66 613.5,-85"/>
<text text-anchor="middle" x="589.5" y="-73" font-family="Helvetica,sans-Serif" font-size="10.00">mutex</text>
</a>
</g>
</g>
<!-- Node30&#45;&gt;Node35 -->
<g id="edge36" class="edge">
<title>Node30&#45;&gt;Node35</title>
<path fill="none" stroke="#63b8ff" d="M712.94,-131.85C688.87,-123.67 652.66,-110.51 622.5,-96 618.83,-94.23 615.02,-92.19 611.36,-90.12"/>
<polygon fill="#63b8ff" stroke="#63b8ff" points="613.09,-87.07 602.7,-85 609.53,-93.1 613.09,-87.07"/>
</g>
<!-- Node36 -->
<g id="node36" class="node">
<title>Node36</title>
<g id="a_node36"><a xlink:title=" ">
<polygon fill="#e0e0e0" stroke="#999999" points="685.5,-85 631.5,-85 631.5,-66 685.5,-66 685.5,-85"/>
<text text-anchor="middle" x="658.5" y="-73" font-family="Helvetica,sans-Serif" font-size="10.00">random</text>
</a>
</g>
</g>
<!-- Node30&#45;&gt;Node36 -->
<g id="edge37" class="edge">
<title>Node30&#45;&gt;Node36</title>
<path fill="none" stroke="#63b8ff" d="M728.58,-131.87C715.53,-121.56 693.49,-104.15 677.6,-91.59"/>
<polygon fill="#63b8ff" stroke="#63b8ff" points="679.53,-88.65 669.51,-85.2 675.19,-94.14 679.53,-88.65"/>
</g>
<!-- Node37 -->
<g id="node37" class="node">
<title>Node37</title>
<g id="a_node37"><a xlink:title=" ">
<polygon fill="#e0e0e0" stroke="#999999" points="1307.5,-85 1267.5,-85 1267.5,-66 1307.5,-66 1307.5,-85"/>
<text text-anchor="middle" x="1287.5" y="-73" font-family="Helvetica,sans-Serif" font-size="10.00">span</text>
</a>
</g>
</g>
<!-- Node30&#45;&gt;Node37 -->
<g id="edge38" class="edge">
<title>Node30&#45;&gt;Node37</title>
<path fill="none" stroke="#63b8ff" d="M777.91,-136.98C794.94,-135.43 815.22,-133.6 833.5,-132 1022.34,-115.46 1079.68,-158.9 1258.5,-96 1262.15,-94.72 1265.78,-92.86 1269.17,-90.8"/>
<polygon fill="#63b8ff" stroke="#63b8ff" points="1271.19,-93.66 1277.46,-85.12 1267.23,-87.89 1271.19,-93.66"/>
</g>
<!-- Node38 -->
<g id="node38" class="node">
<title>Node38</title>
<g id="a_node38"><a xlink:title=" ">
<polygon fill="#e0e0e0" stroke="#999999" points="775.5,-85 703.5,-85 703.5,-66 775.5,-66 775.5,-85"/>
<text text-anchor="middle" x="739.5" y="-73" font-family="Helvetica,sans-Serif" font-size="10.00">date/date.h</text>
</a>
</g>
</g>
<!-- Node30&#45;&gt;Node38 -->
<g id="edge41" class="edge">
<title>Node30&#45;&gt;Node38</title>
<path fill="none" stroke="#63b8ff" d="M739.5,-131.87C739.5,-122.66 739.5,-107.79 739.5,-95.77"/>
<polygon fill="#63b8ff" stroke="#63b8ff" points="743,-95.41 739.5,-85.41 736,-95.41 743,-95.41"/>
</g>
<!-- Node39 -->
<g id="node39" class="node">
<title>Node39</title>
<g id="a_node39"><a xlink:title=" ">
<polygon fill="#e0e0e0" stroke="#999999" points="891.5,-85 793.5,-85 793.5,-66 891.5,-66 891.5,-85"/>
<text text-anchor="middle" x="842.5" y="-73" font-family="Helvetica,sans-Serif" font-size="10.00">pcg_random.hpp</text>
</a>
</g>
</g>
<!-- Node30&#45;&gt;Node39 -->
<g id="edge42" class="edge">
<title>Node30&#45;&gt;Node39</title>
<path fill="none" stroke="#63b8ff" d="M753.39,-131.87C770.44,-121.28 799.57,-103.17 819.87,-90.56"/>
<polygon fill="#63b8ff" stroke="#63b8ff" points="821.85,-93.45 828.5,-85.2 818.16,-87.5 821.85,-93.45"/>
</g>
<!-- Node40 -->
<g id="node40" class="node">
<title>Node40</title>
<g id="a_node40"><a xlink:title=" ">
<polygon fill="#e0e0e0" stroke="#999999" points="995.5,-85 909.5,-85 909.5,-66 995.5,-66 995.5,-85"/>
<text text-anchor="middle" x="952.5" y="-73" font-family="Helvetica,sans-Serif" font-size="10.00">fmt/ostream.h</text>
</a>
</g>
</g>
<!-- Node30&#45;&gt;Node40 -->
<g id="edge43" class="edge">
<title>Node30&#45;&gt;Node40</title>
<path fill="none" stroke="#63b8ff" d="M773.68,-132C806.46,-123.62 857.2,-110.07 900.5,-96 907.28,-93.8 914.47,-91.24 921.29,-88.72"/>
<polygon fill="#63b8ff" stroke="#63b8ff" points="922.77,-91.9 930.89,-85.09 920.3,-85.35 922.77,-91.9"/>
</g>
<!-- Node41 -->
<g id="node41" class="node">
<title>Node41</title>
<g id="a_node41"><a xlink:title=" ">
<polygon fill="#e0e0e0" stroke="#999999" points="1119.5,-90.5 1013.5,-90.5 1013.5,-60.5 1119.5,-60.5 1119.5,-90.5"/>
<text text-anchor="start" x="1021.5" y="-78.5" font-family="Helvetica,sans-Serif" font-size="10.00">spdlog/sinks/basic</text>
<text text-anchor="middle" x="1066.5" y="-67.5" font-family="Helvetica,sans-Serif" font-size="10.00">_file_sink.h</text>
</a>
</g>
</g>
<!-- Node30&#45;&gt;Node41 -->
<g id="edge44" class="edge">
<title>Node30&#45;&gt;Node41</title>
<path fill="none" stroke="#63b8ff" d="M777.57,-135.79C829.35,-129.01 924.66,-115.16 1004.5,-96 1007.89,-95.19 1011.37,-94.28 1014.87,-93.33"/>
<polygon fill="#63b8ff" stroke="#63b8ff" points="1016.05,-96.63 1024.7,-90.51 1014.12,-89.9 1016.05,-96.63"/>
</g>
<!-- Node42 -->
<g id="node42" class="node">
<title>Node42</title>
<g id="a_node42"><a xlink:title=" ">
<polygon fill="#e0e0e0" stroke="#999999" points="1249,-90.5 1138,-90.5 1138,-60.5 1249,-60.5 1249,-90.5"/>
<text text-anchor="start" x="1146" y="-78.5" font-family="Helvetica,sans-Serif" font-size="10.00">spdlog/sinks/stdout</text>
<text text-anchor="middle" x="1193.5" y="-67.5" font-family="Helvetica,sans-Serif" font-size="10.00">_color_sinks.h</text>
</a>
</g>
</g>
<!-- Node30&#45;&gt;Node42 -->
<g id="edge45" class="edge">
<title>Node30&#45;&gt;Node42</title>
<path fill="none" stroke="#63b8ff" d="M777.64,-137.01C861.94,-129.15 1061.92,-109.68 1128.5,-96 1132.41,-95.2 1136.43,-94.26 1140.45,-93.25"/>
<polygon fill="#63b8ff" stroke="#63b8ff" points="1141.66,-96.55 1150.42,-90.59 1139.85,-89.79 1141.66,-96.55"/>
</g>
<!-- Node43&#45;&gt;Node22 -->
<g id="edge54" class="edge">
<title>Node43&#45;&gt;Node22</title>
<path fill="none" stroke="#63b8ff" d="M642.44,-187.62C695.98,-179.3 781.79,-165.42 855.5,-151 893.49,-143.57 902.27,-138.08 940.5,-132 1106.29,-105.64 1153.46,-136.01 1316.5,-96 1323.43,-94.3 1330.67,-91.78 1337.36,-89.12"/>
<polygon fill="#63b8ff" stroke="#63b8ff" points="1338.83,-92.3 1346.68,-85.18 1336.11,-85.85 1338.83,-92.3"/>
</g>
<!-- Node43&#45;&gt;Node26 -->
<g id="edge50" class="edge">
<title>Node43&#45;&gt;Node26</title>
<path fill="none" stroke="#63b8ff" d="M568.65,-186.98C546.38,-178.3 511.6,-164.75 486.28,-154.88"/>
<polygon fill="#63b8ff" stroke="#63b8ff" points="487.34,-151.54 476.75,-151.17 484.79,-158.06 487.34,-151.54"/>
</g>
<!-- Node43&#45;&gt;Node30 -->
<g id="edge55" class="edge">
<title>Node43&#45;&gt;Node30</title>
<path fill="none" stroke="#63b8ff" d="M614.44,-186.98C639.06,-178.23 677.62,-164.51 705.42,-154.62"/>
<polygon fill="#63b8ff" stroke="#63b8ff" points="706.88,-157.82 715.12,-151.17 704.53,-151.22 706.88,-157.82"/>
</g>
<!-- Node43&#45;&gt;Node37 -->
<g id="edge53" class="edge">
<title>Node43&#45;&gt;Node37</title>
<path fill="none" stroke="#63b8ff" d="M625.15,-186.92C681.06,-173.38 794.8,-147.03 892.5,-132 1054.05,-107.15 1104.68,-151.28 1258.5,-96 1262.14,-94.69 1265.77,-92.83 1269.16,-90.76"/>
<polygon fill="#63b8ff" stroke="#63b8ff" points="1271.18,-93.62 1277.44,-85.08 1267.22,-87.85 1271.18,-93.62"/>
</g>
<!-- Node44 -->
<g id="node44" class="node">
<title>Node44</title>
<g id="a_node44"><a xlink:title=" ">
<polygon fill="#e0e0e0" stroke="#999999" points="541.5,-151 499.5,-151 499.5,-132 541.5,-132 541.5,-151"/>
<text text-anchor="middle" x="520.5" y="-139" font-family="Helvetica,sans-Serif" font-size="10.00">array</text>
</a>
</g>
</g>
<!-- Node43&#45;&gt;Node44 -->
<g id="edge49" class="edge">
<title>Node43&#45;&gt;Node44</title>
<path fill="none" stroke="#63b8ff" d="M579.25,-186.98C568.7,-179 552.7,-166.88 540.06,-157.31"/>
<polygon fill="#63b8ff" stroke="#63b8ff" points="542.04,-154.42 531.95,-151.17 537.81,-160 542.04,-154.42"/>
</g>
<!-- Node45 -->
<g id="node45" class="node">
<title>Node45</title>
<g id="a_node45"><a xlink:title=" ">
<polygon fill="#e0e0e0" stroke="#999999" points="609.5,-151 559.5,-151 559.5,-132 609.5,-132 609.5,-151"/>
<text text-anchor="middle" x="584.5" y="-139" font-family="Helvetica,sans-Serif" font-size="10.00">gsl/util</text>
</a>
</g>
</g>
<!-- Node43&#45;&gt;Node45 -->
<g id="edge51" class="edge">
<title>Node43&#45;&gt;Node45</title>
<path fill="none" stroke="#63b8ff" d="M589.51,-186.75C588.72,-179.8 587.6,-169.85 586.61,-161.13"/>
<polygon fill="#63b8ff" stroke="#63b8ff" points="590.08,-160.63 585.47,-151.09 583.12,-161.42 590.08,-160.63"/>
</g>
<!-- Node46 -->
<g id="node46" class="node">
<title>Node46</title>
<g id="a_node46"><a xlink:title=" ">
<polygon fill="#e0e0e0" stroke="#999999" points="683.5,-151 627.5,-151 627.5,-132 683.5,-132 683.5,-151"/>
<text text-anchor="middle" x="655.5" y="-139" font-family="Helvetica,sans-Serif" font-size="10.00">numeric</text>
</a>
</g>
</g>
<!-- Node43&#45;&gt;Node46 -->
<g id="edge52" class="edge">
<title>Node43&#45;&gt;Node46</title>
<path fill="none" stroke="#63b8ff" d="M600.94,-186.98C610.65,-179.07 625.32,-167.11 637,-157.58"/>
<polygon fill="#63b8ff" stroke="#63b8ff" points="639.33,-160.2 644.87,-151.17 634.9,-154.78 639.33,-160.2"/>
</g>
<!-- Node48&#45;&gt;Node22 -->
<g id="edge59" class="edge">
<title>Node48&#45;&gt;Node22</title>
<path fill="none" stroke="#63b8ff" d="M199.57,-419.39C202.93,-418.88 206.27,-418.41 209.5,-418 292.42,-407.42 954.5,-396.6 954.5,-313 954.5,-313 954.5,-313 954.5,-195.5 954.5,-28.64 1158.49,-149.6 1316.5,-96 1322.65,-93.91 1329.15,-91.45 1335.31,-89"/>
<polygon fill="#63b8ff" stroke="#63b8ff" points="1336.68,-92.22 1344.61,-85.19 1334.03,-85.74 1336.68,-92.22"/>
</g>
<!-- Node49 -->
<g id="node49" class="node">
<title>Node49</title>
<g id="a_node49"><a xlink:title=" ">
<polygon fill="#e0e0e0" stroke="#999999" points="183.5,-382 135.5,-382 135.5,-363 183.5,-363 183.5,-382"/>
<text text-anchor="middle" x="159.5" y="-370" font-family="Helvetica,sans-Serif" font-size="10.00">mpfr.h</text>
</a>
</g>
</g>
<!-- Node48&#45;&gt;Node49 -->
<g id="edge58" class="edge">
<title>Node48&#45;&gt;Node49</title>
<path fill="none" stroke="#63b8ff" d="M159.5,-417.75C159.5,-410.8 159.5,-400.85 159.5,-392.13"/>
<polygon fill="#63b8ff" stroke="#63b8ff" points="163,-392.09 159.5,-382.09 156,-392.09 163,-392.09"/>
</g>
</g>
</svg>
