<?xml version="1.0" encoding="UTF-8" standalone="no"?>
<!DOCTYPE svg PUBLIC "-//W3C//DTD SVG 1.1//EN"
 "http://www.w3.org/Graphics/SVG/1.1/DTD/svg11.dtd">
<!-- Generated by graphviz version 2.43.0 (0)
 -->
<!-- Title: include/Metropolis.hpp Pages: 1 -->
<svg width="2447pt" height="554pt"
 viewBox="0.00 0.00 2447.00 554.00" xmlns="http://www.w3.org/2000/svg" xmlns:xlink="http://www.w3.org/1999/xlink">
<g id="graph0" class="graph" transform="scale(1 1) rotate(0) translate(4 550)">
<title>include/Metropolis.hpp</title>
<polygon fill="white" stroke="transparent" points="-4,4 -4,-550 2443,-550 2443,4 -4,4"/>
<!-- Node1 -->
<g id="node1" class="node">
<title>Node1</title>
<g id="a_node1"><a xlink:title="Perform Metropolis&#45;Hastings algorithm on Delaunay Triangulations.">
<polygon fill="#bfbfbf" stroke="black" points="1067,-526.5 1067,-545.5 1195,-545.5 1195,-526.5 1067,-526.5"/>
<text text-anchor="middle" x="1131" y="-533.5" font-family="Helvetica,sans-Serif" font-size="10.00">include/Metropolis.hpp</text>
</a>
</g>
</g>
<!-- Node2 -->
<g id="node2" class="node">
<title>Node2</title>
<g id="a_node2"><a xlink:href="_move__strategy_8hpp.html" target="_top" xlink:title="Template class for move algorithms (strategies) on manifolds.">
<polygon fill="white" stroke="black" points="1020.5,-470.5 1020.5,-489.5 1129.5,-489.5 1129.5,-470.5 1020.5,-470.5"/>
<text text-anchor="middle" x="1075" y="-477.5" font-family="Helvetica,sans-Serif" font-size="10.00">Move_strategy.hpp</text>
</a>
</g>
</g>
<!-- Node1&#45;&gt;Node2 -->
<g id="edge1" class="edge">
<title>Node1&#45;&gt;Node2</title>
<path fill="none" stroke="midnightblue" d="M1122,-526.32C1113.81,-518.42 1101.49,-506.55 1091.53,-496.94"/>
<polygon fill="midnightblue" stroke="midnightblue" points="1093.79,-494.26 1084.16,-489.83 1088.93,-499.29 1093.79,-494.26"/>
</g>
<!-- Node51 -->
<g id="node49" class="node">
<title>Node51</title>
<g id="a_node49"><a xlink:href="_s3_action_8hpp.html" target="_top" xlink:title="Calculate S3 bulk actions on 3D Delaunay Triangulations.">
<polygon fill="white" stroke="black" points="1477,-470.5 1477,-489.5 1557,-489.5 1557,-470.5 1477,-470.5"/>
<text text-anchor="middle" x="1517" y="-477.5" font-family="Helvetica,sans-Serif" font-size="10.00">S3Action.hpp</text>
</a>
</g>
</g>
<!-- Node1&#45;&gt;Node51 -->
<g id="edge56" class="edge">
<title>Node1&#45;&gt;Node51</title>
<path fill="none" stroke="midnightblue" d="M1192.16,-526.44C1268.14,-515.81 1396.34,-497.88 1466.83,-488.02"/>
<polygon fill="midnightblue" stroke="midnightblue" points="1467.38,-491.48 1476.8,-486.62 1466.41,-484.54 1467.38,-491.48"/>
</g>
<!-- Node3 -->
<g id="node3" class="node">
<title>Node3</title>
<g id="a_node3"><a xlink:href="_move__command_8hpp.html" target="_top" xlink:title="Do ergodic moves using the Command pattern.">
<polygon fill="white" stroke="black" points="685.5,-414.5 685.5,-433.5 804.5,-433.5 804.5,-414.5 685.5,-414.5"/>
<text text-anchor="middle" x="745" y="-421.5" font-family="Helvetica,sans-Serif" font-size="10.00">Move_command.hpp</text>
</a>
</g>
</g>
<!-- Node2&#45;&gt;Node3 -->
<g id="edge2" class="edge">
<title>Node2&#45;&gt;Node3</title>
<path fill="none" stroke="midnightblue" d="M1022.71,-470.44C964.18,-460.87 869.4,-445.36 807.13,-435.17"/>
<polygon fill="midnightblue" stroke="midnightblue" points="807.48,-431.68 797.04,-433.52 806.35,-438.59 807.48,-431.68"/>
</g>
<!-- Node4 -->
<g id="node4" class="node">
<title>Node4</title>
<g id="a_node4"><a xlink:href="_apply__move_8hpp.html" target="_top" xlink:title="Apply Pachner moves to foliated Delaunay triangulations.">
<polygon fill="white" stroke="black" points="502,-358.5 502,-377.5 600,-377.5 600,-358.5 502,-358.5"/>
<text text-anchor="middle" x="551" y="-365.5" font-family="Helvetica,sans-Serif" font-size="10.00">Apply_move.hpp</text>
</a>
</g>
</g>
<!-- Node3&#45;&gt;Node4 -->
<g id="edge3" class="edge">
<title>Node3&#45;&gt;Node4</title>
<path fill="none" stroke="midnightblue" d="M714.26,-414.44C681.06,-405.2 628.01,-390.44 591.44,-380.26"/>
<polygon fill="midnightblue" stroke="midnightblue" points="592.17,-376.83 581.6,-377.52 590.29,-383.57 592.17,-376.83"/>
</g>
<!-- Node10 -->
<g id="node10" class="node">
<title>Node10</title>
<g id="a_node10"><a xlink:href="_ergodic__moves__3_8hpp.html" target="_top" xlink:title="Pachner moves on 2+1 dimensional foliated Delaunay triangulations.">
<polygon fill="white" stroke="black" points="683.5,-358.5 683.5,-377.5 806.5,-377.5 806.5,-358.5 683.5,-358.5"/>
<text text-anchor="middle" x="745" y="-365.5" font-family="Helvetica,sans-Serif" font-size="10.00">Ergodic_moves_3.hpp</text>
</a>
</g>
</g>
<!-- Node3&#45;&gt;Node10 -->
<g id="edge9" class="edge">
<title>Node3&#45;&gt;Node10</title>
<path fill="none" stroke="midnightblue" d="M745,-414.08C745,-407.01 745,-396.86 745,-387.99"/>
<polygon fill="midnightblue" stroke="midnightblue" points="748.5,-387.75 745,-377.75 741.5,-387.75 748.5,-387.75"/>
</g>
<!-- Node5 -->
<g id="node5" class="node">
<title>Node5</title>
<g id="a_node5"><a xlink:title=" ">
<polygon fill="white" stroke="#bfbfbf" points="62.5,-67.5 62.5,-86.5 155.5,-86.5 155.5,-67.5 62.5,-67.5"/>
<text text-anchor="middle" x="109" y="-74.5" font-family="Helvetica,sans-Serif" font-size="10.00">spdlog/spdlog.h</text>
</a>
</g>
</g>
<!-- Node4&#45;&gt;Node5 -->
<g id="edge4" class="edge">
<title>Node4&#45;&gt;Node5</title>
<path fill="none" stroke="midnightblue" d="M556.56,-358.27C567.55,-340.15 591,-296.83 591,-257 591,-257 591,-257 591,-199 591,-108.83 263.12,-121.59 165,-98 156.51,-95.96 147.51,-93.08 139.27,-90.15"/>
<polygon fill="midnightblue" stroke="midnightblue" points="140.28,-86.79 129.69,-86.59 137.84,-93.35 140.28,-86.79"/>
</g>
<!-- Node6 -->
<g id="node6" class="node">
<title>Node6</title>
<g id="a_node6"><a xlink:title=" ">
<polygon fill="white" stroke="#bfbfbf" points="335.5,-302.5 335.5,-321.5 400.5,-321.5 400.5,-302.5 335.5,-302.5"/>
<text text-anchor="middle" x="368" y="-309.5" font-family="Helvetica,sans-Serif" font-size="10.00">functional</text>
</a>
</g>
</g>
<!-- Node4&#45;&gt;Node6 -->
<g id="edge5" class="edge">
<title>Node4&#45;&gt;Node6</title>
<path fill="none" stroke="midnightblue" d="M522,-358.44C490.82,-349.24 441.07,-334.56 406.59,-324.39"/>
<polygon fill="midnightblue" stroke="midnightblue" points="407.44,-320.99 396.86,-321.52 405.46,-327.7 407.44,-320.99"/>
</g>
<!-- Node7 -->
<g id="node7" class="node">
<title>Node7</title>
<g id="a_node7"><a xlink:title=" ">
<polygon fill="white" stroke="#bfbfbf" points="0,-67.5 0,-86.5 44,-86.5 44,-67.5 0,-67.5"/>
<text text-anchor="middle" x="22" y="-74.5" font-family="Helvetica,sans-Serif" font-size="10.00">string</text>
</a>
</g>
</g>
<!-- Node4&#45;&gt;Node7 -->
<g id="edge6" class="edge">
<title>Node4&#45;&gt;Node7</title>
<path fill="none" stroke="midnightblue" d="M511.62,-358.49C490.05,-351.91 464.44,-340.68 448,-322 428.12,-299.4 429,-287.1 429,-257 429,-257 429,-257 429,-199 429,-25.96 211.16,-168.19 53,-98 49.39,-96.4 45.73,-94.41 42.24,-92.31"/>
<polygon fill="midnightblue" stroke="midnightblue" points="43.87,-89.2 33.58,-86.7 40.07,-95.08 43.87,-89.2"/>
</g>
<!-- Node8 -->
<g id="node8" class="node">
<title>Node8</title>
<g id="a_node8"><a xlink:title=" ">
<polygon fill="white" stroke="#bfbfbf" points="623,-302.5 623,-321.5 715,-321.5 715,-302.5 623,-302.5"/>
<text text-anchor="middle" x="669" y="-309.5" font-family="Helvetica,sans-Serif" font-size="10.00">tl/expected.hpp</text>
</a>
</g>
</g>
<!-- Node4&#45;&gt;Node8 -->
<g id="edge7" class="edge">
<title>Node4&#45;&gt;Node8</title>
<path fill="none" stroke="midnightblue" d="M569.7,-358.44C588.94,-349.64 619.15,-335.81 641.2,-325.72"/>
<polygon fill="midnightblue" stroke="midnightblue" points="642.75,-328.86 650.39,-321.52 639.84,-322.5 642.75,-328.86"/>
</g>
<!-- Node9 -->
<g id="node9" class="node">
<title>Node9</title>
<g id="a_node9"><a xlink:title=" ">
<polygon fill="white" stroke="#bfbfbf" points="457.5,-302.5 457.5,-321.5 562.5,-321.5 562.5,-302.5 457.5,-302.5"/>
<text text-anchor="middle" x="510" y="-309.5" font-family="Helvetica,sans-Serif" font-size="10.00">tl/function_ref.hpp</text>
</a>
</g>
</g>
<!-- Node4&#45;&gt;Node9 -->
<g id="edge8" class="edge">
<title>Node4&#45;&gt;Node9</title>
<path fill="none" stroke="midnightblue" d="M544.23,-358.08C538.44,-350.46 529.94,-339.26 522.86,-329.94"/>
<polygon fill="midnightblue" stroke="midnightblue" points="525.48,-327.6 516.64,-321.75 519.9,-331.83 525.48,-327.6"/>
</g>
<!-- Node10&#45;&gt;Node8 -->
<g id="edge10" class="edge">
<title>Node10&#45;&gt;Node8</title>
<path fill="none" stroke="midnightblue" d="M732.79,-358.32C721.22,-350.11 703.62,-337.6 689.84,-327.81"/>
<polygon fill="midnightblue" stroke="midnightblue" points="691.61,-324.77 681.43,-321.83 687.56,-330.48 691.61,-324.77"/>
</g>
<!-- Node11 -->
<g id="node11" class="node">
<title>Node11</title>
<g id="a_node11"><a xlink:href="_manifold_8hpp.html" target="_top" xlink:title="Data structures for manifolds.">
<polygon fill="white" stroke="black" points="807,-302.5 807,-321.5 887,-321.5 887,-302.5 807,-302.5"/>
<text text-anchor="middle" x="847" y="-309.5" font-family="Helvetica,sans-Serif" font-size="10.00">Manifold.hpp</text>
</a>
</g>
</g>
<!-- Node10&#45;&gt;Node11 -->
<g id="edge11" class="edge">
<title>Node10&#45;&gt;Node11</title>
<path fill="none" stroke="midnightblue" d="M761.39,-358.32C777.67,-349.7 802.87,-336.36 821.72,-326.39"/>
<polygon fill="midnightblue" stroke="midnightblue" points="823.45,-329.43 830.65,-321.65 820.18,-323.24 823.45,-329.43"/>
</g>
<!-- Node48 -->
<g id="node46" class="node">
<title>Node48</title>
<g id="a_node46"><a xlink:href="_move__tracker_8hpp.html" target="_top" xlink:title="Track ergodic moves.">
<polygon fill="white" stroke="black" points="704.5,-190.5 704.5,-209.5 807.5,-209.5 807.5,-190.5 704.5,-190.5"/>
<text text-anchor="middle" x="756" y="-197.5" font-family="Helvetica,sans-Serif" font-size="10.00">Move_tracker.hpp</text>
</a>
</g>
</g>
<!-- Node10&#45;&gt;Node48 -->
<g id="edge49" class="edge">
<title>Node10&#45;&gt;Node48</title>
<path fill="none" stroke="midnightblue" d="M745.59,-358.08C747.32,-331.95 752.41,-255.21 754.77,-219.58"/>
<polygon fill="midnightblue" stroke="midnightblue" points="758.26,-219.78 755.43,-209.57 751.28,-219.31 758.26,-219.78"/>
</g>
<!-- Node12 -->
<g id="node12" class="node">
<title>Node12</title>
<g id="a_node12"><a xlink:title=" ">
<polygon fill="white" stroke="#bfbfbf" points="799.5,-134.5 799.5,-153.5 852.5,-153.5 852.5,-134.5 799.5,-134.5"/>
<text text-anchor="middle" x="826" y="-141.5" font-family="Helvetica,sans-Serif" font-size="10.00">cstddef</text>
</a>
</g>
</g>
<!-- Node11&#45;&gt;Node12 -->
<g id="edge12" class="edge">
<title>Node11&#45;&gt;Node12</title>
<path fill="none" stroke="midnightblue" d="M845.87,-302.08C842.57,-275.95 832.86,-199.21 828.35,-163.58"/>
<polygon fill="midnightblue" stroke="midnightblue" points="831.81,-163.05 827.08,-153.57 824.87,-163.93 831.81,-163.05"/>
</g>
<!-- Node13 -->
<g id="node13" class="node">
<title>Node13</title>
<g id="a_node13"><a xlink:title=" ">
<polygon fill="white" stroke="#bfbfbf" points="875,-246.5 875,-265.5 961,-265.5 961,-246.5 875,-246.5"/>
<text text-anchor="middle" x="918" y="-253.5" font-family="Helvetica,sans-Serif" font-size="10.00">unordered_set</text>
</a>
</g>
</g>
<!-- Node11&#45;&gt;Node13 -->
<g id="edge13" class="edge">
<title>Node11&#45;&gt;Node13</title>
<path fill="none" stroke="midnightblue" d="M858.41,-302.32C869.11,-294.18 885.34,-281.84 898.16,-272.09"/>
<polygon fill="midnightblue" stroke="midnightblue" points="900.54,-274.67 906.39,-265.83 896.31,-269.1 900.54,-274.67"/>
</g>
<!-- Node14 -->
<g id="node14" class="node">
<title>Node14</title>
<g id="a_node14"><a xlink:title=" ">
<polygon fill="white" stroke="#bfbfbf" points="773.5,-246.5 773.5,-265.5 818.5,-265.5 818.5,-246.5 773.5,-246.5"/>
<text text-anchor="middle" x="796" y="-253.5" font-family="Helvetica,sans-Serif" font-size="10.00">utility</text>
</a>
</g>
</g>
<!-- Node11&#45;&gt;Node14 -->
<g id="edge14" class="edge">
<title>Node11&#45;&gt;Node14</title>
<path fill="none" stroke="midnightblue" d="M838.58,-302.08C831.15,-294.22 820.15,-282.57 811.19,-273.08"/>
<polygon fill="midnightblue" stroke="midnightblue" points="813.68,-270.62 804.26,-265.75 808.59,-275.42 813.68,-270.62"/>
</g>
<!-- Node15 -->
<g id="node15" class="node">
<title>Node15</title>
<g id="a_node15"><a xlink:href="_geometry_8hpp.html" target="_top" xlink:title="Geometric scalars of the Manifold used to calculate the Regge action.">
<polygon fill="white" stroke="black" points="987.5,-246.5 987.5,-265.5 1072.5,-265.5 1072.5,-246.5 987.5,-246.5"/>
<text text-anchor="middle" x="1030" y="-253.5" font-family="Helvetica,sans-Serif" font-size="10.00">Geometry.hpp</text>
</a>
</g>
</g>
<!-- Node11&#45;&gt;Node15 -->
<g id="edge15" class="edge">
<title>Node11&#45;&gt;Node15</title>
<path fill="none" stroke="midnightblue" d="M876,-302.44C907.18,-293.24 956.93,-278.56 991.41,-268.39"/>
<polygon fill="midnightblue" stroke="midnightblue" points="992.54,-271.7 1001.14,-265.52 990.56,-264.99 992.54,-271.7"/>
</g>
<!-- Node16 -->
<g id="node16" class="node">
<title>Node16</title>
<g id="a_node16"><a xlink:href="_foliated__triangulation_8hpp.html" target="_top" xlink:title="Create foliated spherical triangulations.">
<polygon fill="white" stroke="black" points="959,-190.5 959,-209.5 1103,-209.5 1103,-190.5 959,-190.5"/>
<text text-anchor="middle" x="1031" y="-197.5" font-family="Helvetica,sans-Serif" font-size="10.00">Foliated_triangulation.hpp</text>
</a>
</g>
</g>
<!-- Node15&#45;&gt;Node16 -->
<g id="edge16" class="edge">
<title>Node15&#45;&gt;Node16</title>
<path fill="none" stroke="midnightblue" d="M1030.17,-246.08C1030.3,-239.01 1030.48,-228.86 1030.65,-219.99"/>
<polygon fill="midnightblue" stroke="midnightblue" points="1034.15,-219.81 1030.84,-209.75 1027.15,-219.68 1034.15,-219.81"/>
</g>
<!-- Node17 -->
<g id="node17" class="node">
<title>Node17</title>
<g id="a_node17"><a xlink:title=" ">
<polygon fill="white" stroke="#bfbfbf" points="1003,-134.5 1003,-153.5 1063,-153.5 1063,-134.5 1003,-134.5"/>
<text text-anchor="middle" x="1033" y="-141.5" font-family="Helvetica,sans-Serif" font-size="10.00">concepts</text>
</a>
</g>
</g>
<!-- Node16&#45;&gt;Node17 -->
<g id="edge17" class="edge">
<title>Node16&#45;&gt;Node17</title>
<path fill="none" stroke="midnightblue" d="M1031.33,-190.08C1031.59,-183.01 1031.97,-172.86 1032.3,-163.99"/>
<polygon fill="midnightblue" stroke="midnightblue" points="1035.8,-163.87 1032.68,-153.75 1028.81,-163.61 1035.8,-163.87"/>
</g>
<!-- Node18 -->
<g id="node18" class="node">
<title>Node18</title>
<g id="a_node18"><a xlink:href="_triangulation__traits_8hpp.html" target="_top" xlink:title="Traits class for particular uses of CGAL.">
<polygon fill="white" stroke="red" points="1943.5,-134.5 1943.5,-153.5 2074.5,-153.5 2074.5,-134.5 1943.5,-134.5"/>
<text text-anchor="middle" x="2009" y="-141.5" font-family="Helvetica,sans-Serif" font-size="10.00">Triangulation_traits.hpp</text>
</a>
</g>
</g>
<!-- Node16&#45;&gt;Node18 -->
<g id="edge18" class="edge">
<title>Node16&#45;&gt;Node18</title>
<path fill="none" stroke="midnightblue" d="M1103.31,-195.01C1283.19,-185.08 1749.51,-159.33 1933.12,-149.19"/>
<polygon fill="midnightblue" stroke="midnightblue" points="1933.43,-152.68 1943.22,-148.63 1933.05,-145.69 1933.43,-152.68"/>
</g>
<!-- Node27 -->
<g id="node25" class="node">
<title>Node27</title>
<g id="a_node25"><a xlink:href="_utilities_8hpp.html" target="_top" xlink:title="Utility functions.">
<polygon fill="white" stroke="black" points="871,-134.5 871,-153.5 947,-153.5 947,-134.5 871,-134.5"/>
<text text-anchor="middle" x="909" y="-141.5" font-family="Helvetica,sans-Serif" font-size="10.00">Utilities.hpp</text>
</a>
</g>
</g>
<!-- Node16&#45;&gt;Node27 -->
<g id="edge25" class="edge">
<title>Node16&#45;&gt;Node27</title>
<path fill="none" stroke="midnightblue" d="M1011.67,-190.44C991.68,-181.6 960.26,-167.69 937.44,-157.59"/>
<polygon fill="midnightblue" stroke="midnightblue" points="938.8,-154.36 928.24,-153.52 935.97,-160.76 938.8,-154.36"/>
</g>
<!-- Node19 -->
<g id="node19" class="node">
<title>Node19</title>
<g id="a_node19"><a xlink:title=" ">
<polygon fill="white" stroke="#bfbfbf" points="2259,-67.5 2259,-86.5 2439,-86.5 2439,-67.5 2259,-67.5"/>
<text text-anchor="middle" x="2349" y="-74.5" font-family="Helvetica,sans-Serif" font-size="10.00">CGAL/Delaunay_triangulation_3.h</text>
</a>
</g>
</g>
<!-- Node18&#45;&gt;Node19 -->
<g id="edge19" class="edge">
<title>Node18&#45;&gt;Node19</title>
<path fill="none" stroke="midnightblue" d="M2055.69,-134.49C2104.27,-125.59 2182.52,-111.11 2250,-98 2265.53,-94.98 2282.41,-91.61 2297.77,-88.5"/>
<polygon fill="midnightblue" stroke="midnightblue" points="2298.5,-91.92 2307.6,-86.5 2297.11,-85.06 2298.5,-91.92"/>
</g>
<!-- Node20 -->
<g id="node20" class="node">
<title>Node20</title>
<g id="a_node20"><a xlink:title=" ">
<polygon fill="white" stroke="#bfbfbf" points="1944.5,-56.5 1944.5,-97.5 2073.5,-97.5 2073.5,-56.5 1944.5,-56.5"/>
<text text-anchor="start" x="1952.5" y="-85.5" font-family="Helvetica,sans-Serif" font-size="10.00">CGAL/Exact_predicates</text>
<text text-anchor="start" x="1952.5" y="-74.5" font-family="Helvetica,sans-Serif" font-size="10.00">_inexact_constructions</text>
<text text-anchor="middle" x="2009" y="-63.5" font-family="Helvetica,sans-Serif" font-size="10.00">_kernel.h</text>
</a>
</g>
</g>
<!-- Node18&#45;&gt;Node20 -->
<g id="edge20" class="edge">
<title>Node18&#45;&gt;Node20</title>
<path fill="none" stroke="midnightblue" d="M2009,-134.23C2009,-127.36 2009,-117.38 2009,-107.73"/>
<polygon fill="midnightblue" stroke="midnightblue" points="2012.5,-107.54 2009,-97.54 2005.5,-107.54 2012.5,-107.54"/>
</g>
<!-- Node21 -->
<g id="node21" class="node">
<title>Node21</title>
<g id="a_node21"><a xlink:title=" ">
<polygon fill="white" stroke="#bfbfbf" points="2091.5,-67.5 2091.5,-86.5 2240.5,-86.5 2240.5,-67.5 2091.5,-67.5"/>
<text text-anchor="middle" x="2166" y="-74.5" font-family="Helvetica,sans-Serif" font-size="10.00">CGAL/point_generators_3.h</text>
</a>
</g>
</g>
<!-- Node18&#45;&gt;Node21 -->
<g id="edge21" class="edge">
<title>Node18&#45;&gt;Node21</title>
<path fill="none" stroke="midnightblue" d="M2029.85,-134.37C2056.94,-123.15 2104.46,-103.48 2135.58,-90.59"/>
<polygon fill="midnightblue" stroke="midnightblue" points="2137.16,-93.73 2145.07,-86.67 2134.49,-87.26 2137.16,-93.73"/>
</g>
<!-- Node24 -->
<g id="node22" class="node">
<title>Node24</title>
<g id="a_node22"><a xlink:href="_settings_8hpp.html" target="_top" xlink:title="Global integer and precision settings.">
<polygon fill="white" stroke="black" points="1849.5,-67.5 1849.5,-86.5 1926.5,-86.5 1926.5,-67.5 1849.5,-67.5"/>
<text text-anchor="middle" x="1888" y="-74.5" font-family="Helvetica,sans-Serif" font-size="10.00">Settings.hpp</text>
</a>
</g>
</g>
<!-- Node18&#45;&gt;Node24 -->
<g id="edge22" class="edge">
<title>Node18&#45;&gt;Node24</title>
<path fill="none" stroke="midnightblue" d="M1992.68,-134.23C1972.18,-123.22 1936.8,-104.21 1912.91,-91.38"/>
<polygon fill="midnightblue" stroke="midnightblue" points="1914.53,-88.28 1904.06,-86.63 1911.21,-94.44 1914.53,-88.28"/>
</g>
<!-- Node25 -->
<g id="node23" class="node">
<title>Node25</title>
<g id="a_node23"><a xlink:title=" ">
<polygon fill="white" stroke="#bfbfbf" points="1761,-0.5 1761,-19.5 1901,-19.5 1901,-0.5 1761,-0.5"/>
<text text-anchor="middle" x="1831" y="-7.5" font-family="Helvetica,sans-Serif" font-size="10.00">CGAL/GMP/Gmpzf_type.h</text>
</a>
</g>
</g>
<!-- Node24&#45;&gt;Node25 -->
<g id="edge23" class="edge">
<title>Node24&#45;&gt;Node25</title>
<path fill="none" stroke="midnightblue" d="M1880.31,-67.23C1871.34,-57 1856.31,-39.86 1845.2,-27.19"/>
<polygon fill="midnightblue" stroke="midnightblue" points="1847.79,-24.84 1838.57,-19.63 1842.53,-29.45 1847.79,-24.84"/>
</g>
<!-- Node26 -->
<g id="node24" class="node">
<title>Node26</title>
<g id="a_node24"><a xlink:title=" ">
<polygon fill="white" stroke="#bfbfbf" points="1919,-0.5 1919,-19.5 1969,-19.5 1969,-0.5 1919,-0.5"/>
<text text-anchor="middle" x="1944" y="-7.5" font-family="Helvetica,sans-Serif" font-size="10.00">cstdint</text>
</a>
</g>
</g>
<!-- Node24&#45;&gt;Node26 -->
<g id="edge24" class="edge">
<title>Node24&#45;&gt;Node26</title>
<path fill="none" stroke="midnightblue" d="M1895.55,-67.23C1904.28,-57.1 1918.85,-40.19 1929.74,-27.56"/>
<polygon fill="midnightblue" stroke="midnightblue" points="1932.69,-29.49 1936.57,-19.63 1927.39,-24.92 1932.69,-29.49"/>
</g>
<!-- Node27&#45;&gt;Node5 -->
<g id="edge47" class="edge">
<title>Node27&#45;&gt;Node5</title>
<path fill="none" stroke="midnightblue" d="M870.82,-135.36C867.51,-134.85 864.2,-134.38 861,-134 553.43,-97.38 468.73,-158.73 165,-98 156.05,-96.21 146.6,-93.27 138.07,-90.19"/>
<polygon fill="midnightblue" stroke="midnightblue" points="139.15,-86.86 128.56,-86.57 136.66,-93.4 139.15,-86.86"/>
</g>
<!-- Node27&#45;&gt;Node7 -->
<g id="edge38" class="edge">
<title>Node27&#45;&gt;Node7</title>
<path fill="none" stroke="midnightblue" d="M870.82,-135.34C867.51,-134.83 864.2,-134.37 861,-134 682.45,-113.39 224.24,-152.61 53,-98 48.74,-96.64 44.51,-94.54 40.59,-92.2"/>
<polygon fill="midnightblue" stroke="midnightblue" points="42.44,-89.23 32.19,-86.54 38.53,-95.03 42.44,-89.23"/>
</g>
<!-- Node27&#45;&gt;Node24 -->
<g id="edge48" class="edge">
<title>Node27&#45;&gt;Node24</title>
<path fill="none" stroke="midnightblue" d="M947.26,-135.8C951.88,-135.1 956.54,-134.48 961,-134 1155.4,-113.29 1649.12,-140.26 1840,-98 1847.51,-96.34 1855.35,-93.56 1862.45,-90.6"/>
<polygon fill="midnightblue" stroke="midnightblue" points="1863.88,-93.8 1871.59,-86.54 1861.03,-87.4 1863.88,-93.8"/>
</g>
<!-- Node28 -->
<g id="node26" class="node">
<title>Node28</title>
<g id="a_node26"><a xlink:title=" ">
<polygon fill="white" stroke="#bfbfbf" points="1223.5,-67.5 1223.5,-86.5 1306.5,-86.5 1306.5,-67.5 1223.5,-67.5"/>
<text text-anchor="middle" x="1265" y="-74.5" font-family="Helvetica,sans-Serif" font-size="10.00">CGAL/Timer.h</text>
</a>
</g>
</g>
<!-- Node27&#45;&gt;Node28 -->
<g id="edge26" class="edge">
<title>Node27&#45;&gt;Node28</title>
<path fill="none" stroke="midnightblue" d="M947.03,-136.28C951.73,-135.49 956.47,-134.71 961,-134 1073.19,-116.31 1104.17,-126.93 1214,-98 1221.46,-96.03 1229.31,-93.31 1236.56,-90.5"/>
<polygon fill="midnightblue" stroke="midnightblue" points="1238.03,-93.68 1245.98,-86.68 1235.4,-87.19 1238.03,-93.68"/>
</g>
<!-- Node29 -->
<g id="node27" class="node">
<title>Node29</title>
<g id="a_node27"><a xlink:title=" ">
<polygon fill="white" stroke="#bfbfbf" points="1325,-67.5 1325,-86.5 1389,-86.5 1389,-67.5 1325,-67.5"/>
<text text-anchor="middle" x="1357" y="-74.5" font-family="Helvetica,sans-Serif" font-size="10.00">algorithm</text>
</a>
</g>
</g>
<!-- Node27&#45;&gt;Node29 -->
<g id="edge27" class="edge">
<title>Node27&#45;&gt;Node29</title>
<path fill="none" stroke="midnightblue" d="M947.01,-136.11C951.71,-135.35 956.46,-134.62 961,-134 1117.68,-112.5 1162.71,-140.62 1315,-98 1321.08,-96.3 1327.36,-93.77 1333.15,-91.08"/>
<polygon fill="midnightblue" stroke="midnightblue" points="1334.93,-94.11 1342.32,-86.52 1331.81,-87.84 1334.93,-94.11"/>
</g>
<!-- Node30 -->
<g id="node28" class="node">
<title>Node30</title>
<g id="a_node28"><a xlink:title=" ">
<polygon fill="white" stroke="#bfbfbf" points="1407,-67.5 1407,-86.5 1459,-86.5 1459,-67.5 1407,-67.5"/>
<text text-anchor="middle" x="1433" y="-74.5" font-family="Helvetica,sans-Serif" font-size="10.00">cassert</text>
</a>
</g>
</g>
<!-- Node27&#45;&gt;Node30 -->
<g id="edge28" class="edge">
<title>Node27&#45;&gt;Node30</title>
<path fill="none" stroke="midnightblue" d="M947.28,-135.98C951.89,-135.25 956.55,-134.57 961,-134 1154.32,-109.36 1211.86,-155.72 1398,-98 1402.84,-96.5 1407.75,-94.25 1412.29,-91.79"/>
<polygon fill="midnightblue" stroke="midnightblue" points="1414.17,-94.74 1420.97,-86.62 1410.59,-88.73 1414.17,-94.74"/>
</g>
<!-- Node31 -->
<g id="node29" class="node">
<title>Node31</title>
<g id="a_node29"><a xlink:title=" ">
<polygon fill="white" stroke="#bfbfbf" points="1477.5,-67.5 1477.5,-86.5 1526.5,-86.5 1526.5,-67.5 1477.5,-67.5"/>
<text text-anchor="middle" x="1502" y="-74.5" font-family="Helvetica,sans-Serif" font-size="10.00">cstdlib</text>
</a>
</g>
</g>
<!-- Node27&#45;&gt;Node31 -->
<g id="edge29" class="edge">
<title>Node27&#45;&gt;Node31</title>
<path fill="none" stroke="midnightblue" d="M947.27,-135.93C951.89,-135.21 956.54,-134.54 961,-134 1185.25,-106.7 1252.28,-165.04 1468,-98 1472.61,-96.57 1477.26,-94.4 1481.58,-92.02"/>
<polygon fill="midnightblue" stroke="midnightblue" points="1483.65,-94.86 1490.36,-86.66 1480,-88.89 1483.65,-94.86"/>
</g>
<!-- Node32 -->
<g id="node30" class="node">
<title>Node32</title>
<g id="a_node30"><a xlink:title=" ">
<polygon fill="white" stroke="#bfbfbf" points="1545,-67.5 1545,-86.5 1613,-86.5 1613,-67.5 1545,-67.5"/>
<text text-anchor="middle" x="1579" y="-74.5" font-family="Helvetica,sans-Serif" font-size="10.00">filesystem</text>
</a>
</g>
</g>
<!-- Node27&#45;&gt;Node32 -->
<g id="edge30" class="edge">
<title>Node27&#45;&gt;Node32</title>
<path fill="none" stroke="midnightblue" d="M947.27,-135.89C951.88,-135.18 956.54,-134.52 961,-134 1215.31,-104.12 1287.84,-161.09 1536,-98 1542.24,-96.41 1548.67,-93.93 1554.61,-91.25"/>
<polygon fill="midnightblue" stroke="midnightblue" points="1556.54,-94.2 1563.99,-86.67 1553.47,-87.91 1556.54,-94.2"/>
</g>
<!-- Node33 -->
<g id="node31" class="node">
<title>Node33</title>
<g id="a_node31"><a xlink:title=" ">
<polygon fill="white" stroke="#bfbfbf" points="1631.5,-67.5 1631.5,-86.5 1686.5,-86.5 1686.5,-67.5 1631.5,-67.5"/>
<text text-anchor="middle" x="1659" y="-74.5" font-family="Helvetica,sans-Serif" font-size="10.00">fstream</text>
</a>
</g>
</g>
<!-- Node27&#45;&gt;Node33 -->
<g id="edge31" class="edge">
<title>Node27&#45;&gt;Node33</title>
<path fill="none" stroke="midnightblue" d="M947.26,-135.85C951.88,-135.15 956.54,-134.51 961,-134 1107.17,-117.43 1480.42,-137.94 1622,-98 1627.31,-96.5 1632.71,-94.15 1637.68,-91.57"/>
<polygon fill="midnightblue" stroke="midnightblue" points="1639.62,-94.49 1646.58,-86.51 1636.16,-88.41 1639.62,-94.49"/>
</g>
<!-- Node34 -->
<g id="node32" class="node">
<title>Node34</title>
<g id="a_node32"><a xlink:title=" ">
<polygon fill="white" stroke="#bfbfbf" points="1705,-67.5 1705,-86.5 1753,-86.5 1753,-67.5 1705,-67.5"/>
<text text-anchor="middle" x="1729" y="-74.5" font-family="Helvetica,sans-Serif" font-size="10.00">gsl/gsl</text>
</a>
</g>
</g>
<!-- Node27&#45;&gt;Node34 -->
<g id="edge32" class="edge">
<title>Node27&#45;&gt;Node34</title>
<path fill="none" stroke="midnightblue" d="M947.26,-135.83C951.88,-135.13 956.54,-134.49 961,-134 1123.54,-116.02 1539.63,-145.84 1696,-98 1700.59,-96.59 1705.2,-94.41 1709.46,-91.99"/>
<polygon fill="midnightblue" stroke="midnightblue" points="1711.49,-94.84 1718.06,-86.53 1707.74,-88.93 1711.49,-94.84"/>
</g>
<!-- Node35 -->
<g id="node33" class="node">
<title>Node35</title>
<g id="a_node33"><a xlink:title=" ">
<polygon fill="white" stroke="#bfbfbf" points="1771,-67.5 1771,-86.5 1831,-86.5 1831,-67.5 1771,-67.5"/>
<text text-anchor="middle" x="1801" y="-74.5" font-family="Helvetica,sans-Serif" font-size="10.00">iostream</text>
</a>
</g>
</g>
<!-- Node27&#45;&gt;Node35 -->
<g id="edge33" class="edge">
<title>Node27&#45;&gt;Node35</title>
<path fill="none" stroke="midnightblue" d="M947.26,-135.81C951.88,-135.11 956.54,-134.48 961,-134 1138.14,-114.77 1589.78,-143.7 1762,-98 1767.7,-96.49 1773.52,-94.06 1778.87,-91.4"/>
<polygon fill="midnightblue" stroke="midnightblue" points="1780.73,-94.38 1787.86,-86.54 1777.4,-88.22 1780.73,-94.38"/>
</g>
<!-- Node36 -->
<g id="node34" class="node">
<title>Node36</title>
<g id="a_node34"><a xlink:title=" ">
<polygon fill="white" stroke="#bfbfbf" points="232,-67.5 232,-86.5 280,-86.5 280,-67.5 232,-67.5"/>
<text text-anchor="middle" x="256" y="-74.5" font-family="Helvetica,sans-Serif" font-size="10.00">mutex</text>
</a>
</g>
</g>
<!-- Node27&#45;&gt;Node36 -->
<g id="edge34" class="edge">
<title>Node27&#45;&gt;Node36</title>
<path fill="none" stroke="midnightblue" d="M870.81,-135.4C867.5,-134.88 864.2,-134.4 861,-134 734.62,-118.23 410.53,-136.11 289,-98 284.49,-96.59 279.96,-94.43 275.77,-92.06"/>
<polygon fill="midnightblue" stroke="midnightblue" points="277.58,-89.06 267.25,-86.69 273.85,-94.98 277.58,-89.06"/>
</g>
<!-- Node37 -->
<g id="node35" class="node">
<title>Node37</title>
<g id="a_node35"><a xlink:title=" ">
<polygon fill="white" stroke="#bfbfbf" points="298,-67.5 298,-86.5 352,-86.5 352,-67.5 298,-67.5"/>
<text text-anchor="middle" x="325" y="-74.5" font-family="Helvetica,sans-Serif" font-size="10.00">random</text>
</a>
</g>
</g>
<!-- Node27&#45;&gt;Node37 -->
<g id="edge35" class="edge">
<title>Node27&#45;&gt;Node37</title>
<path fill="none" stroke="midnightblue" d="M870.81,-135.44C867.5,-134.9 864.2,-134.41 861,-134 640.04,-105.42 574.53,-161.6 361,-98 356.04,-96.52 351,-94.28 346.33,-91.82"/>
<polygon fill="midnightblue" stroke="midnightblue" points="347.8,-88.63 337.39,-86.66 344.3,-94.69 347.8,-88.63"/>
</g>
<!-- Node38 -->
<g id="node36" class="node">
<title>Node38</title>
<g id="a_node36"><a xlink:title=" ">
<polygon fill="white" stroke="#bfbfbf" points="174,-67.5 174,-86.5 214,-86.5 214,-67.5 174,-67.5"/>
<text text-anchor="middle" x="194" y="-74.5" font-family="Helvetica,sans-Serif" font-size="10.00">span</text>
</a>
</g>
</g>
<!-- Node27&#45;&gt;Node38 -->
<g id="edge36" class="edge">
<title>Node27&#45;&gt;Node38</title>
<path fill="none" stroke="midnightblue" d="M870.82,-135.38C867.5,-134.86 864.2,-134.39 861,-134 720.03,-116.88 357.34,-144.02 223,-98 219.08,-96.66 215.2,-94.62 211.61,-92.35"/>
<polygon fill="midnightblue" stroke="midnightblue" points="213.62,-89.49 203.46,-86.51 209.55,-95.18 213.62,-89.49"/>
</g>
<!-- Node39 -->
<g id="node37" class="node">
<title>Node39</title>
<g id="a_node37"><a xlink:title=" ">
<polygon fill="white" stroke="#bfbfbf" points="370.5,-67.5 370.5,-86.5 435.5,-86.5 435.5,-67.5 370.5,-67.5"/>
<text text-anchor="middle" x="403" y="-74.5" font-family="Helvetica,sans-Serif" font-size="10.00">stdexcept</text>
</a>
</g>
</g>
<!-- Node27&#45;&gt;Node39 -->
<g id="edge37" class="edge">
<title>Node27&#45;&gt;Node39</title>
<path fill="none" stroke="midnightblue" d="M870.8,-135.48C867.49,-134.94 864.19,-134.44 861,-134 676.69,-108.83 623.28,-147.61 444,-98 438.03,-96.35 431.89,-93.84 426.23,-91.16"/>
<polygon fill="midnightblue" stroke="midnightblue" points="427.78,-88.02 417.29,-86.58 424.6,-94.25 427.78,-88.02"/>
</g>
<!-- Node40 -->
<g id="node38" class="node">
<title>Node40</title>
<g id="a_node38"><a xlink:title=" ">
<polygon fill="white" stroke="#bfbfbf" points="453.5,-67.5 453.5,-86.5 518.5,-86.5 518.5,-67.5 453.5,-67.5"/>
<text text-anchor="middle" x="486" y="-74.5" font-family="Helvetica,sans-Serif" font-size="10.00">typeindex</text>
</a>
</g>
</g>
<!-- Node27&#45;&gt;Node40 -->
<g id="edge39" class="edge">
<title>Node27&#45;&gt;Node40</title>
<path fill="none" stroke="midnightblue" d="M870.79,-135.56C867.49,-135 864.19,-134.47 861,-134 713.29,-112.23 670.46,-139.35 527,-98 521.05,-96.29 514.91,-93.75 509.26,-91.06"/>
<polygon fill="midnightblue" stroke="midnightblue" points="510.81,-87.93 500.31,-86.5 507.63,-94.16 510.81,-87.93"/>
</g>
<!-- Node41 -->
<g id="node39" class="node">
<title>Node41</title>
<g id="a_node39"><a xlink:title=" ">
<polygon fill="white" stroke="#bfbfbf" points="536.5,-67.5 536.5,-86.5 595.5,-86.5 595.5,-67.5 536.5,-67.5"/>
<text text-anchor="middle" x="566" y="-74.5" font-family="Helvetica,sans-Serif" font-size="10.00">date/tz.h</text>
</a>
</g>
</g>
<!-- Node27&#45;&gt;Node41 -->
<g id="edge40" class="edge">
<title>Node27&#45;&gt;Node41</title>
<path fill="none" stroke="midnightblue" d="M870.78,-135.67C867.47,-135.09 864.18,-134.52 861,-134 747.62,-115.41 714.53,-132.7 605,-98 599.7,-96.32 594.24,-93.97 589.15,-91.46"/>
<polygon fill="midnightblue" stroke="midnightblue" points="590.43,-88.18 579.96,-86.6 587.16,-94.37 590.43,-88.18"/>
</g>
<!-- Node42 -->
<g id="node40" class="node">
<title>Node42</title>
<g id="a_node40"><a xlink:title=" ">
<polygon fill="white" stroke="#bfbfbf" points="614,-67.5 614,-86.5 664,-86.5 664,-67.5 614,-67.5"/>
<text text-anchor="middle" x="639" y="-74.5" font-family="Helvetica,sans-Serif" font-size="10.00">chrono</text>
</a>
</g>
</g>
<!-- Node27&#45;&gt;Node42 -->
<g id="edge41" class="edge">
<title>Node27&#45;&gt;Node42</title>
<path fill="none" stroke="midnightblue" d="M870.75,-135.79C804.53,-123.3 675.32,-98.87 673,-98 668.63,-96.35 664.17,-94.16 659.99,-91.84"/>
<polygon fill="midnightblue" stroke="midnightblue" points="661.77,-88.83 651.4,-86.69 658.17,-94.83 661.77,-88.83"/>
</g>
<!-- Node43 -->
<g id="node41" class="node">
<title>Node43</title>
<g id="a_node41"><a xlink:title=" ">
<polygon fill="white" stroke="#bfbfbf" points="682,-67.5 682,-86.5 732,-86.5 732,-67.5 682,-67.5"/>
<text text-anchor="middle" x="707" y="-74.5" font-family="Helvetica,sans-Serif" font-size="10.00">format</text>
</a>
</g>
</g>
<!-- Node27&#45;&gt;Node43 -->
<g id="edge42" class="edge">
<title>Node27&#45;&gt;Node43</title>
<path fill="none" stroke="midnightblue" d="M870.67,-135.82C835.97,-128.6 783.89,-115.97 741,-98 736.88,-96.27 732.65,-94.13 728.63,-91.89"/>
<polygon fill="midnightblue" stroke="midnightblue" points="730.2,-88.74 719.81,-86.65 726.62,-94.76 730.2,-88.74"/>
</g>
<!-- Node44 -->
<g id="node42" class="node">
<title>Node44</title>
<g id="a_node42"><a xlink:title=" ">
<polygon fill="white" stroke="#bfbfbf" points="750,-67.5 750,-86.5 848,-86.5 848,-67.5 750,-67.5"/>
<text text-anchor="middle" x="799" y="-74.5" font-family="Helvetica,sans-Serif" font-size="10.00">pcg_random.hpp</text>
</a>
</g>
</g>
<!-- Node27&#45;&gt;Node44 -->
<g id="edge43" class="edge">
<title>Node27&#45;&gt;Node44</title>
<path fill="none" stroke="midnightblue" d="M894.16,-134.23C875.69,-123.32 843.93,-104.55 822.22,-91.72"/>
<polygon fill="midnightblue" stroke="midnightblue" points="823.99,-88.7 813.6,-86.63 820.43,-94.73 823.99,-88.7"/>
</g>
<!-- Node45 -->
<g id="node43" class="node">
<title>Node45</title>
<g id="a_node43"><a xlink:title=" ">
<polygon fill="white" stroke="#bfbfbf" points="866,-67.5 866,-86.5 952,-86.5 952,-67.5 866,-67.5"/>
<text text-anchor="middle" x="909" y="-74.5" font-family="Helvetica,sans-Serif" font-size="10.00">fmt/ostream.h</text>
</a>
</g>
</g>
<!-- Node27&#45;&gt;Node45 -->
<g id="edge44" class="edge">
<title>Node27&#45;&gt;Node45</title>
<path fill="none" stroke="midnightblue" d="M909,-134.23C909,-124.68 909,-109.12 909,-96.78"/>
<polygon fill="midnightblue" stroke="midnightblue" points="912.5,-96.63 909,-86.63 905.5,-96.63 912.5,-96.63"/>
</g>
<!-- Node46 -->
<g id="node44" class="node">
<title>Node46</title>
<g id="a_node44"><a xlink:title=" ">
<polygon fill="white" stroke="#bfbfbf" points="970,-62 970,-92 1076,-92 1076,-62 970,-62"/>
<text text-anchor="start" x="978" y="-80" font-family="Helvetica,sans-Serif" font-size="10.00">spdlog/sinks/basic</text>
<text text-anchor="middle" x="1023" y="-69" font-family="Helvetica,sans-Serif" font-size="10.00">_file_sink.h</text>
</a>
</g>
</g>
<!-- Node27&#45;&gt;Node46 -->
<g id="edge45" class="edge">
<title>Node27&#45;&gt;Node46</title>
<path fill="none" stroke="midnightblue" d="M924.37,-134.23C940.97,-124.77 967.9,-109.41 989.44,-97.14"/>
<polygon fill="midnightblue" stroke="midnightblue" points="991.34,-100.08 998.29,-92.09 987.87,-94 991.34,-100.08"/>
</g>
<!-- Node47 -->
<g id="node45" class="node">
<title>Node47</title>
<g id="a_node45"><a xlink:title=" ">
<polygon fill="white" stroke="#bfbfbf" points="1094.5,-62 1094.5,-92 1205.5,-92 1205.5,-62 1094.5,-62"/>
<text text-anchor="start" x="1102.5" y="-80" font-family="Helvetica,sans-Serif" font-size="10.00">spdlog/sinks/stdout</text>
<text text-anchor="middle" x="1150" y="-69" font-family="Helvetica,sans-Serif" font-size="10.00">_color_sinks.h</text>
</a>
</g>
</g>
<!-- Node27&#45;&gt;Node47 -->
<g id="edge46" class="edge">
<title>Node27&#45;&gt;Node47</title>
<path fill="none" stroke="midnightblue" d="M944.53,-134.45C980.17,-125.75 1036.58,-111.63 1085,-98 1088.5,-97.01 1092.1,-95.98 1095.73,-94.91"/>
<polygon fill="midnightblue" stroke="midnightblue" points="1096.74,-98.26 1105.33,-92.06 1094.74,-91.55 1096.74,-98.26"/>
</g>
<!-- Node48&#45;&gt;Node12 -->
<g id="edge51" class="edge">
<title>Node48&#45;&gt;Node12</title>
<path fill="none" stroke="midnightblue" d="M767.25,-190.32C777.8,-182.18 793.8,-169.84 806.44,-160.09"/>
<polygon fill="midnightblue" stroke="midnightblue" points="808.77,-162.71 814.55,-153.83 804.49,-157.17 808.77,-162.71"/>
</g>
<!-- Node48&#45;&gt;Node24 -->
<g id="edge54" class="edge">
<title>Node48&#45;&gt;Node24</title>
<path fill="none" stroke="midnightblue" d="M807.62,-191.23C848.65,-184.15 907.07,-172.02 956,-154 973.91,-147.4 975.57,-138.97 994,-134 1357.35,-35.98 1472.62,-179.64 1840,-98 1847.51,-96.33 1855.35,-93.56 1862.45,-90.6"/>
<polygon fill="midnightblue" stroke="midnightblue" points="1863.88,-93.79 1871.59,-86.53 1861.03,-87.4 1863.88,-93.79"/>
</g>
<!-- Node48&#45;&gt;Node27 -->
<g id="edge55" class="edge">
<title>Node48&#45;&gt;Node27</title>
<path fill="none" stroke="midnightblue" d="M780.24,-190.44C805.87,-181.4 846.49,-167.06 875.24,-156.92"/>
<polygon fill="midnightblue" stroke="midnightblue" points="876.61,-160.15 884.87,-153.52 874.28,-153.54 876.61,-160.15"/>
</g>
<!-- Node48&#45;&gt;Node38 -->
<g id="edge53" class="edge">
<title>Node48&#45;&gt;Node38</title>
<path fill="none" stroke="midnightblue" d="M738.18,-190.49C704.33,-174.47 631.75,-140.84 605,-134 439.78,-91.77 383.26,-156.29 223,-98 219.27,-96.65 215.58,-94.69 212.13,-92.54"/>
<polygon fill="midnightblue" stroke="midnightblue" points="213.94,-89.53 203.76,-86.61 209.89,-95.24 213.94,-89.53"/>
</g>
<!-- Node49 -->
<g id="node47" class="node">
<title>Node49</title>
<g id="a_node47"><a xlink:title=" ">
<polygon fill="white" stroke="#bfbfbf" points="671,-134.5 671,-153.5 713,-153.5 713,-134.5 671,-134.5"/>
<text text-anchor="middle" x="692" y="-141.5" font-family="Helvetica,sans-Serif" font-size="10.00">array</text>
</a>
</g>
</g>
<!-- Node48&#45;&gt;Node49 -->
<g id="edge50" class="edge">
<title>Node48&#45;&gt;Node49</title>
<path fill="none" stroke="midnightblue" d="M745.72,-190.32C736.16,-182.26 721.72,-170.08 710.22,-160.37"/>
<polygon fill="midnightblue" stroke="midnightblue" points="712.37,-157.61 702.47,-153.83 707.86,-162.96 712.37,-157.61"/>
</g>
<!-- Node50 -->
<g id="node48" class="node">
<title>Node50</title>
<g id="a_node48"><a xlink:title=" ">
<polygon fill="white" stroke="#bfbfbf" points="731,-134.5 731,-153.5 781,-153.5 781,-134.5 731,-134.5"/>
<text text-anchor="middle" x="756" y="-141.5" font-family="Helvetica,sans-Serif" font-size="10.00">gsl/util</text>
</a>
</g>
</g>
<!-- Node48&#45;&gt;Node50 -->
<g id="edge52" class="edge">
<title>Node48&#45;&gt;Node50</title>
<path fill="none" stroke="midnightblue" d="M756,-190.08C756,-183.01 756,-172.86 756,-163.99"/>
<polygon fill="midnightblue" stroke="midnightblue" points="759.5,-163.75 756,-153.75 752.5,-163.75 759.5,-163.75"/>
</g>
<!-- Node51&#45;&gt;Node24 -->
<g id="edge58" class="edge">
<title>Node51&#45;&gt;Node24</title>
<path fill="none" stroke="midnightblue" d="M1517,-470.44C1517,-451.94 1517,-406.81 1517,-369 1517,-369 1517,-369 1517,-199 1517,-48.59 1698.65,-149.42 1840,-98 1846.24,-95.73 1852.85,-93.12 1859.11,-90.54"/>
<polygon fill="midnightblue" stroke="midnightblue" points="1860.67,-93.68 1868.54,-86.58 1857.97,-87.22 1860.67,-93.68"/>
</g>
<!-- Node52 -->
<g id="node50" class="node">
<title>Node52</title>
<g id="a_node50"><a xlink:title=" ">
<polygon fill="white" stroke="#bfbfbf" points="1545,-414.5 1545,-433.5 1593,-433.5 1593,-414.5 1545,-414.5"/>
<text text-anchor="middle" x="1569" y="-421.5" font-family="Helvetica,sans-Serif" font-size="10.00">mpfr.h</text>
</a>
</g>
</g>
<!-- Node51&#45;&gt;Node52 -->
<g id="edge57" class="edge">
<title>Node51&#45;&gt;Node52</title>
<path fill="none" stroke="midnightblue" d="M1525.59,-470.08C1533.16,-462.22 1544.38,-450.57 1553.51,-441.08"/>
<polygon fill="midnightblue" stroke="midnightblue" points="1556.16,-443.38 1560.57,-433.75 1551.12,-438.53 1556.16,-443.38"/>
</g>
</g>
</svg>
