<?xml version="1.0" encoding="UTF-8" standalone="no"?>
<!DOCTYPE svg PUBLIC "-//W3C//DTD SVG 1.1//EN"
 "http://www.w3.org/Graphics/SVG/1.1/DTD/svg11.dtd">
<!-- Generated by graphviz version 2.43.0 (0)
 -->
<!-- Title: include/Move_tracker.hpp Pages: 1 -->
<svg width="1635pt" height="203pt"
 viewBox="0.00 0.00 1635.00 203.00" xmlns="http://www.w3.org/2000/svg" xmlns:xlink="http://www.w3.org/1999/xlink">
<g id="graph0" class="graph" transform="scale(1 1) rotate(0) translate(4 199)">
<title>include/Move_tracker.hpp</title>
<!-- Node1 -->
<g id="node1" class="node">
<title>Node1</title>
<g id="a_node1"><a xlink:title="Track ergodic moves.">
<polygon fill="#999999" stroke="#666666" points="298.5,-195 157.5,-195 157.5,-176 298.5,-176 298.5,-195"/>
<text text-anchor="middle" x="228" y="-183" font-family="Helvetica,sans-Serif" font-size="10.00">include/Move_tracker.hpp</text>
</a>
</g>
</g>
<!-- Node2 -->
<g id="node2" class="node">
<title>Node2</title>
<g id="a_node2"><a xlink:title=" ">
<polygon fill="#e0e0e0" stroke="#999999" points="42,-140 0,-140 0,-121 42,-121 42,-140"/>
<text text-anchor="middle" x="21" y="-128" font-family="Helvetica,sans-Serif" font-size="10.00">array</text>
</a>
</g>
</g>
<!-- Node1&#45;&gt;Node2 -->
<g id="edge1" class="edge">
<title>Node1&#45;&gt;Node2</title>
<path fill="none" stroke="#63b8ff" d="M192.66,-175.94C158.9,-167.7 106.35,-154.67 52.08,-140.23"/>
<polygon fill="#63b8ff" stroke="#63b8ff" points="52.85,-136.81 42.28,-137.61 51.04,-143.58 52.85,-136.81"/>
</g>
<!-- Node3 -->
<g id="node3" class="node">
<title>Node3</title>
<g id="a_node3"><a xlink:title=" ">
<polygon fill="#e0e0e0" stroke="#999999" points="113.5,-140 60.5,-140 60.5,-121 113.5,-121 113.5,-140"/>
<text text-anchor="middle" x="87" y="-128" font-family="Helvetica,sans-Serif" font-size="10.00">cstddef</text>
</a>
</g>
</g>
<!-- Node1&#45;&gt;Node3 -->
<g id="edge2" class="edge">
<title>Node1&#45;&gt;Node3</title>
<path fill="none" stroke="#63b8ff" d="M205.35,-175.98C182.15,-167.27 145.88,-153.63 119.6,-143.75"/>
<polygon fill="#63b8ff" stroke="#63b8ff" points="120.66,-140.41 110.07,-140.17 118.2,-146.97 120.66,-140.41"/>
</g>
<!-- Node4 -->
<g id="node4" class="node">
<title>Node4</title>
<g id="a_node4"><a xlink:title=" ">
<polygon fill="#e0e0e0" stroke="#999999" points="182,-140 132,-140 132,-121 182,-121 182,-140"/>
<text text-anchor="middle" x="157" y="-128" font-family="Helvetica,sans-Serif" font-size="10.00">gsl/util</text>
</a>
</g>
</g>
<!-- Node1&#45;&gt;Node4 -->
<g id="edge3" class="edge">
<title>Node1&#45;&gt;Node4</title>
<path fill="none" stroke="#63b8ff" d="M216.59,-175.98C205.89,-168 189.66,-155.88 176.84,-146.31"/>
<polygon fill="#63b8ff" stroke="#63b8ff" points="178.72,-143.35 168.61,-140.17 174.53,-148.96 178.72,-143.35"/>
</g>
<!-- Node5 -->
<g id="node5" class="node">
<title>Node5</title>
<g id="a_node5"><a xlink:title=" ">
<polygon fill="#e0e0e0" stroke="#999999" points="256,-140 200,-140 200,-121 256,-121 256,-140"/>
<text text-anchor="middle" x="228" y="-128" font-family="Helvetica,sans-Serif" font-size="10.00">numeric</text>
</a>
</g>
</g>
<!-- Node1&#45;&gt;Node5 -->
<g id="edge4" class="edge">
<title>Node1&#45;&gt;Node5</title>
<path fill="none" stroke="#63b8ff" d="M228,-175.75C228,-168.8 228,-158.85 228,-150.13"/>
<polygon fill="#63b8ff" stroke="#63b8ff" points="231.5,-150.09 228,-140.09 224.5,-150.09 231.5,-150.09"/>
</g>
<!-- Node6 -->
<g id="node6" class="node">
<title>Node6</title>
<g id="a_node6"><a xlink:title=" ">
<polygon fill="#e0e0e0" stroke="#999999" points="265,-79.5 225,-79.5 225,-60.5 265,-60.5 265,-79.5"/>
<text text-anchor="middle" x="245" y="-67.5" font-family="Helvetica,sans-Serif" font-size="10.00">span</text>
</a>
</g>
</g>
<!-- Node1&#45;&gt;Node6 -->
<g id="edge5" class="edge">
<title>Node1&#45;&gt;Node6</title>
<path fill="none" stroke="#63b8ff" d="M238.44,-175.87C247.42,-167.7 259.74,-154.55 265,-140 271.27,-122.65 263.62,-102.33 256.04,-88.25"/>
<polygon fill="#63b8ff" stroke="#63b8ff" points="259.06,-86.47 250.98,-79.61 253.02,-90.01 259.06,-86.47"/>
</g>
<!-- Node7 -->
<g id="node7" class="node">
<title>Node7</title>
<g id="a_node7"><a xlink:href="_settings_8hpp.html" target="_top" xlink:title="Global integer and precision settings.">
<polygon fill="white" stroke="#666666" points="360.5,-79.5 283.5,-79.5 283.5,-60.5 360.5,-60.5 360.5,-79.5"/>
<text text-anchor="middle" x="322" y="-67.5" font-family="Helvetica,sans-Serif" font-size="10.00">Settings.hpp</text>
</a>
</g>
</g>
<!-- Node1&#45;&gt;Node7 -->
<g id="edge6" class="edge">
<title>Node1&#45;&gt;Node7</title>
<path fill="none" stroke="#63b8ff" d="M240.39,-175.97C251.84,-167.68 268.86,-154.28 281,-140 294.49,-124.12 306.2,-103.26 313.62,-88.65"/>
<polygon fill="#63b8ff" stroke="#63b8ff" points="316.76,-90.19 318.03,-79.67 310.48,-87.1 316.76,-90.19"/>
</g>
<!-- Node10 -->
<g id="node10" class="node">
<title>Node10</title>
<g id="a_node10"><a xlink:href="_utilities_8hpp.html" target="_top" xlink:title="Utility functions.">
<polygon fill="white" stroke="#666666" points="925,-140 849,-140 849,-121 925,-121 925,-140"/>
<text text-anchor="middle" x="887" y="-128" font-family="Helvetica,sans-Serif" font-size="10.00">Utilities.hpp</text>
</a>
</g>
</g>
<!-- Node1&#45;&gt;Node10 -->
<g id="edge9" class="edge">
<title>Node1&#45;&gt;Node10</title>
<path fill="none" stroke="#63b8ff" d="M298.52,-178.83C433.12,-168 723.44,-144.65 838.55,-135.4"/>
<polygon fill="#63b8ff" stroke="#63b8ff" points="839.12,-138.86 848.81,-134.57 838.56,-131.88 839.12,-138.86"/>
</g>
<!-- Node8 -->
<g id="node8" class="node">
<title>Node8</title>
<g id="a_node8"><a xlink:title=" ">
<polygon fill="#e0e0e0" stroke="#999999" points="336,-19 196,-19 196,0 336,0 336,-19"/>
<text text-anchor="middle" x="266" y="-7" font-family="Helvetica,sans-Serif" font-size="10.00">CGAL/GMP/Gmpzf_type.h</text>
</a>
</g>
</g>
<!-- Node7&#45;&gt;Node8 -->
<g id="edge7" class="edge">
<title>Node7&#45;&gt;Node8</title>
<path fill="none" stroke="#63b8ff" d="M313.74,-60.37C305.22,-51.47 291.74,-37.39 281.27,-26.45"/>
<polygon fill="#63b8ff" stroke="#63b8ff" points="283.74,-23.97 274.3,-19.17 278.68,-28.81 283.74,-23.97"/>
</g>
<!-- Node9 -->
<g id="node9" class="node">
<title>Node9</title>
<g id="a_node9"><a xlink:title=" ">
<polygon fill="#e0e0e0" stroke="#999999" points="404,-19 354,-19 354,0 404,0 404,-19"/>
<text text-anchor="middle" x="379" y="-7" font-family="Helvetica,sans-Serif" font-size="10.00">cstdint</text>
</a>
</g>
</g>
<!-- Node7&#45;&gt;Node9 -->
<g id="edge8" class="edge">
<title>Node7&#45;&gt;Node9</title>
<path fill="none" stroke="#63b8ff" d="M330.41,-60.37C339.08,-51.47 352.8,-37.39 363.46,-26.45"/>
<polygon fill="#63b8ff" stroke="#63b8ff" points="366.08,-28.77 370.55,-19.17 361.07,-23.89 366.08,-28.77"/>
</g>
<!-- Node10&#45;&gt;Node6 -->
<g id="edge16" class="edge">
<title>Node10&#45;&gt;Node6</title>
<path fill="none" stroke="#63b8ff" d="M848.99,-128.61C732.77,-125.58 383.4,-114.23 274,-85 272.51,-84.6 271.01,-84.13 269.52,-83.6"/>
<polygon fill="#63b8ff" stroke="#63b8ff" points="270.51,-80.22 259.93,-79.53 267.77,-86.66 270.51,-80.22"/>
</g>
<!-- Node10&#45;&gt;Node7 -->
<g id="edge25" class="edge">
<title>Node10&#45;&gt;Node7</title>
<path fill="none" stroke="#63b8ff" d="M848.71,-128.79C762.5,-126.63 546.89,-118.07 370,-85 365.87,-84.23 361.59,-83.25 357.36,-82.17"/>
<polygon fill="#63b8ff" stroke="#63b8ff" points="358.25,-78.78 347.68,-79.51 356.4,-85.53 358.25,-78.78"/>
</g>
<!-- Node11 -->
<g id="node11" class="node">
<title>Node11</title>
<g id="a_node11"><a xlink:title=" ">
<polygon fill="#e0e0e0" stroke="#999999" points="1263,-79.5 1199,-79.5 1199,-60.5 1263,-60.5 1263,-79.5"/>
<text text-anchor="middle" x="1231" y="-67.5" font-family="Helvetica,sans-Serif" font-size="10.00">algorithm</text>
</a>
</g>
</g>
<!-- Node10&#45;&gt;Node11 -->
<g id="edge10" class="edge">
<title>Node10&#45;&gt;Node11</title>
<path fill="none" stroke="#63b8ff" d="M925.22,-126.15C983.1,-120.58 1096.21,-107.7 1190,-85 1192.81,-84.32 1195.7,-83.53 1198.58,-82.67"/>
<polygon fill="#63b8ff" stroke="#63b8ff" points="1199.77,-85.97 1208.23,-79.6 1197.64,-79.3 1199.77,-85.97"/>
</g>
<!-- Node12 -->
<g id="node12" class="node">
<title>Node12</title>
<g id="a_node12"><a xlink:title=" ">
<polygon fill="#e0e0e0" stroke="#999999" points="1349,-79.5 1281,-79.5 1281,-60.5 1349,-60.5 1349,-79.5"/>
<text text-anchor="middle" x="1315" y="-67.5" font-family="Helvetica,sans-Serif" font-size="10.00">filesystem</text>
</a>
</g>
</g>
<!-- Node10&#45;&gt;Node12 -->
<g id="edge11" class="edge">
<title>Node10&#45;&gt;Node12</title>
<path fill="none" stroke="#63b8ff" d="M925.12,-127.62C994.73,-123.63 1146.77,-112.34 1272,-85 1275.22,-84.3 1278.54,-83.45 1281.85,-82.52"/>
<polygon fill="#63b8ff" stroke="#63b8ff" points="1283.03,-85.82 1291.58,-79.56 1280.99,-79.12 1283.03,-85.82"/>
</g>
<!-- Node13 -->
<g id="node13" class="node">
<title>Node13</title>
<g id="a_node13"><a xlink:title=" ">
<polygon fill="#e0e0e0" stroke="#999999" points="1422.5,-79.5 1367.5,-79.5 1367.5,-60.5 1422.5,-60.5 1422.5,-79.5"/>
<text text-anchor="middle" x="1395" y="-67.5" font-family="Helvetica,sans-Serif" font-size="10.00">fstream</text>
</a>
</g>
</g>
<!-- Node10&#45;&gt;Node13 -->
<g id="edge12" class="edge">
<title>Node10&#45;&gt;Node13</title>
<path fill="none" stroke="#63b8ff" d="M925.1,-129.33C1005.94,-128.22 1200.18,-121.61 1358,-85 1360.52,-84.42 1363.09,-83.7 1365.66,-82.91"/>
<polygon fill="#63b8ff" stroke="#63b8ff" points="1367.03,-86.14 1375.33,-79.56 1364.74,-79.52 1367.03,-86.14"/>
</g>
<!-- Node14 -->
<g id="node14" class="node">
<title>Node14</title>
<g id="a_node14"><a xlink:title=" ">
<polygon fill="#e0e0e0" stroke="#999999" points="1489,-79.5 1441,-79.5 1441,-60.5 1489,-60.5 1489,-79.5"/>
<text text-anchor="middle" x="1465" y="-67.5" font-family="Helvetica,sans-Serif" font-size="10.00">gsl/gsl</text>
</a>
</g>
</g>
<!-- Node10&#45;&gt;Node14 -->
<g id="edge13" class="edge">
<title>Node10&#45;&gt;Node14</title>
<path fill="none" stroke="#63b8ff" d="M925.24,-127.97C1032.65,-123.4 1335.56,-108.74 1432,-85 1433.95,-84.52 1435.93,-83.94 1437.91,-83.29"/>
<polygon fill="#63b8ff" stroke="#63b8ff" points="1439.44,-86.45 1447.55,-79.63 1436.95,-79.91 1439.44,-86.45"/>
</g>
<!-- Node15 -->
<g id="node15" class="node">
<title>Node15</title>
<g id="a_node15"><a xlink:title=" ">
<polygon fill="#e0e0e0" stroke="#999999" points="1555,-79.5 1507,-79.5 1507,-60.5 1555,-60.5 1555,-79.5"/>
<text text-anchor="middle" x="1531" y="-67.5" font-family="Helvetica,sans-Serif" font-size="10.00">mutex</text>
</a>
</g>
</g>
<!-- Node10&#45;&gt;Node15 -->
<g id="edge14" class="edge">
<title>Node10&#45;&gt;Node15</title>
<path fill="none" stroke="#63b8ff" d="M925.23,-128.35C1041.31,-124.62 1388.41,-111.47 1498,-85 1500.16,-84.48 1502.36,-83.83 1504.55,-83.1"/>
<polygon fill="#63b8ff" stroke="#63b8ff" points="1505.81,-86.36 1513.9,-79.51 1503.31,-79.83 1505.81,-86.36"/>
</g>
<!-- Node16 -->
<g id="node16" class="node">
<title>Node16</title>
<g id="a_node16"><a xlink:title=" ">
<polygon fill="#e0e0e0" stroke="#999999" points="1627,-79.5 1573,-79.5 1573,-60.5 1627,-60.5 1627,-79.5"/>
<text text-anchor="middle" x="1600" y="-67.5" font-family="Helvetica,sans-Serif" font-size="10.00">random</text>
</a>
</g>
</g>
<!-- Node10&#45;&gt;Node16 -->
<g id="edge15" class="edge">
<title>Node10&#45;&gt;Node16</title>
<path fill="none" stroke="#63b8ff" d="M925.32,-128.52C1049.63,-125.08 1440.81,-112.32 1564,-85 1566.52,-84.44 1569.1,-83.73 1571.66,-82.93"/>
<polygon fill="#63b8ff" stroke="#63b8ff" points="1573.02,-86.16 1581.28,-79.52 1570.69,-79.57 1573.02,-86.16"/>
</g>
<!-- Node17 -->
<g id="node17" class="node">
<title>Node17</title>
<g id="a_node17"><a xlink:title=" ">
<polygon fill="#e0e0e0" stroke="#999999" points="443.5,-79.5 378.5,-79.5 378.5,-60.5 443.5,-60.5 443.5,-79.5"/>
<text text-anchor="middle" x="411" y="-67.5" font-family="Helvetica,sans-Serif" font-size="10.00">stdexcept</text>
</a>
</g>
</g>
<!-- Node10&#45;&gt;Node17 -->
<g id="edge17" class="edge">
<title>Node10&#45;&gt;Node17</title>
<path fill="none" stroke="#63b8ff" d="M848.83,-128.4C772.72,-125.58 597.02,-115.99 453,-85 449.94,-84.34 446.8,-83.54 443.67,-82.66"/>
<polygon fill="#63b8ff" stroke="#63b8ff" points="444.44,-79.23 433.85,-79.63 442.38,-85.92 444.44,-79.23"/>
</g>
<!-- Node18 -->
<g id="node18" class="node">
<title>Node18</title>
<g id="a_node18"><a xlink:title=" ">
<polygon fill="#e0e0e0" stroke="#999999" points="506,-79.5 462,-79.5 462,-60.5 506,-60.5 506,-79.5"/>
<text text-anchor="middle" x="484" y="-67.5" font-family="Helvetica,sans-Serif" font-size="10.00">string</text>
</a>
</g>
</g>
<!-- Node10&#45;&gt;Node18 -->
<g id="edge18" class="edge">
<title>Node10&#45;&gt;Node18</title>
<path fill="none" stroke="#63b8ff" d="M848.77,-128.75C780.52,-126.56 633.74,-118.07 515,-85 513.32,-84.53 511.61,-83.98 509.91,-83.38"/>
<polygon fill="#63b8ff" stroke="#63b8ff" points="510.97,-80.04 500.38,-79.52 508.33,-86.52 510.97,-80.04"/>
</g>
<!-- Node19 -->
<g id="node19" class="node">
<title>Node19</title>
<g id="a_node19"><a xlink:title=" ">
<polygon fill="#e0e0e0" stroke="#999999" points="596,-79.5 524,-79.5 524,-60.5 596,-60.5 596,-79.5"/>
<text text-anchor="middle" x="560" y="-67.5" font-family="Helvetica,sans-Serif" font-size="10.00">date/date.h</text>
</a>
</g>
</g>
<!-- Node10&#45;&gt;Node19 -->
<g id="edge19" class="edge">
<title>Node10&#45;&gt;Node19</title>
<path fill="none" stroke="#63b8ff" d="M848.8,-125.26C794.27,-118.8 691.16,-105.09 605,-85 601.81,-84.26 598.52,-83.4 595.24,-82.49"/>
<polygon fill="#63b8ff" stroke="#63b8ff" points="596.1,-79.1 585.52,-79.65 594.14,-85.82 596.1,-79.1"/>
</g>
<!-- Node20 -->
<g id="node20" class="node">
<title>Node20</title>
<g id="a_node20"><a xlink:title=" ">
<polygon fill="#e0e0e0" stroke="#999999" points="712,-79.5 614,-79.5 614,-60.5 712,-60.5 712,-79.5"/>
<text text-anchor="middle" x="663" y="-67.5" font-family="Helvetica,sans-Serif" font-size="10.00">pcg_random.hpp</text>
</a>
</g>
</g>
<!-- Node10&#45;&gt;Node20 -->
<g id="edge20" class="edge">
<title>Node10&#45;&gt;Node20</title>
<path fill="none" stroke="#63b8ff" d="M854.43,-120.99C815.03,-110.7 748.61,-93.36 705.29,-82.04"/>
<polygon fill="#63b8ff" stroke="#63b8ff" points="706.17,-78.66 695.61,-79.52 704.4,-85.43 706.17,-78.66"/>
</g>
<!-- Node21 -->
<g id="node21" class="node">
<title>Node21</title>
<g id="a_node21"><a xlink:title=" ">
<polygon fill="#e0e0e0" stroke="#999999" points="816,-79.5 730,-79.5 730,-60.5 816,-60.5 816,-79.5"/>
<text text-anchor="middle" x="773" y="-67.5" font-family="Helvetica,sans-Serif" font-size="10.00">fmt/ostream.h</text>
</a>
</g>
</g>
<!-- Node10&#45;&gt;Node21 -->
<g id="edge21" class="edge">
<title>Node10&#45;&gt;Node21</title>
<path fill="none" stroke="#63b8ff" d="M870.18,-120.87C851.4,-111.23 820.8,-95.53 798.95,-84.31"/>
<polygon fill="#63b8ff" stroke="#63b8ff" points="800.39,-81.12 789.89,-79.67 797.19,-87.35 800.39,-81.12"/>
</g>
<!-- Node22 -->
<g id="node22" class="node">
<title>Node22</title>
<g id="a_node22"><a xlink:title=" ">
<polygon fill="#e0e0e0" stroke="#999999" points="940,-85 834,-85 834,-55 940,-55 940,-85"/>
<text text-anchor="start" x="842" y="-73" font-family="Helvetica,sans-Serif" font-size="10.00">spdlog/sinks/basic</text>
<text text-anchor="middle" x="887" y="-62" font-family="Helvetica,sans-Serif" font-size="10.00">_file_sink.h</text>
</a>
</g>
</g>
<!-- Node10&#45;&gt;Node22 -->
<g id="edge22" class="edge">
<title>Node10&#45;&gt;Node22</title>
<path fill="none" stroke="#63b8ff" d="M887,-120.87C887,-114.11 887,-104.35 887,-95.26"/>
<polygon fill="#63b8ff" stroke="#63b8ff" points="890.5,-95.11 887,-85.11 883.5,-95.11 890.5,-95.11"/>
</g>
<!-- Node23 -->
<g id="node23" class="node">
<title>Node23</title>
<g id="a_node23"><a xlink:title=" ">
<polygon fill="#e0e0e0" stroke="#999999" points="1069.5,-85 958.5,-85 958.5,-55 1069.5,-55 1069.5,-85"/>
<text text-anchor="start" x="966.5" y="-73" font-family="Helvetica,sans-Serif" font-size="10.00">spdlog/sinks/stdout</text>
<text text-anchor="middle" x="1014" y="-62" font-family="Helvetica,sans-Serif" font-size="10.00">_color_sinks.h</text>
</a>
</g>
</g>
<!-- Node10&#45;&gt;Node23 -->
<g id="edge23" class="edge">
<title>Node10&#45;&gt;Node23</title>
<path fill="none" stroke="#63b8ff" d="M905.47,-120.99C923.36,-112.75 951.1,-99.98 974.05,-89.4"/>
<polygon fill="#63b8ff" stroke="#63b8ff" points="975.6,-92.54 983.22,-85.18 972.67,-86.18 975.6,-92.54"/>
</g>
<!-- Node24 -->
<g id="node24" class="node">
<title>Node24</title>
<g id="a_node24"><a xlink:title=" ">
<polygon fill="#e0e0e0" stroke="#999999" points="1180.5,-79.5 1087.5,-79.5 1087.5,-60.5 1180.5,-60.5 1180.5,-79.5"/>
<text text-anchor="middle" x="1134" y="-67.5" font-family="Helvetica,sans-Serif" font-size="10.00">spdlog/spdlog.h</text>
</a>
</g>
</g>
<!-- Node10&#45;&gt;Node24 -->
<g id="edge24" class="edge">
<title>Node10&#45;&gt;Node24</title>
<path fill="none" stroke="#63b8ff" d="M924.94,-120.96C963.72,-112.17 1025.64,-97.97 1079,-85 1082.87,-84.06 1086.9,-83.06 1090.93,-82.06"/>
<polygon fill="#63b8ff" stroke="#63b8ff" points="1092.03,-85.39 1100.87,-79.56 1090.32,-78.6 1092.03,-85.39"/>
</g>
</g>
</svg>
