<?xml version="1.0" encoding="UTF-8" standalone="no"?>
<!DOCTYPE svg PUBLIC "-//W3C//DTD SVG 1.1//EN"
 "http://www.w3.org/Graphics/SVG/1.1/DTD/svg11.dtd">
<!-- Generated by graphviz version 2.43.0 (0)
 -->
<!-- Title: include/Move_always.hpp Pages: 1 -->
<!--zoomable 500 -->
<svg id="main" version="1.1" xmlns="http://www.w3.org/2000/svg" xmlns:xlink="http://www.w3.org/1999/xlink" xml:space="preserve" onload="init(evt)">
<style type="text/css"><![CDATA[
.edge:hover path { stroke: red; }
.edge:hover polygon { stroke: red; fill: red; }
]]></style>
<script type="text/javascript"><![CDATA[
var edges = document.getElementsByTagName('g');
if (edges && edges.length) {
  for (var i=0;i<edges.length;i++) {
    if (edges[i].id.substr(0,4)=='edge') {
      edges[i].setAttribute('class','edge');
    }
  }
}
]]></script>
        <defs>
                <circle id="rim" cx="0" cy="0" r="7"/>
                <circle id="rim2" cx="0" cy="0" r="3.5"/>
                <g id="zoomPlus">
                        <use xlink:href="#rim" fill="#404040">
                                <set attributeName="fill" to="#808080" begin="zoomplus.mouseover" end="zoomplus.mouseout"/>
                        </use>
                        <path d="M-4,0h8M0,-4v8" fill="none" stroke="white" stroke-width="1.5" pointer-events="none"/>
                </g>
                <g id="zoomMin">
                        <use xlink:href="#rim" fill="#404040">
                                <set attributeName="fill" to="#808080" begin="zoomminus.mouseover" end="zoomminus.mouseout"/>
                        </use>
                        <path d="M-4,0h8" fill="none" stroke="white" stroke-width="1.5" pointer-events="none"/>
                </g>
                <g id="dirArrow">
                        <path fill="none" stroke="white" stroke-width="1.5" d="M0,-3.0v7 M-2.5,-0.5L0,-3.0L2.5,-0.5"/>
                </g>
               <g id="resetDef">
                       <use xlink:href="#rim2" fill="#404040">
                               <set attributeName="fill" to="#808080" begin="reset.mouseover" end="reset.mouseout"/>
                       </use>
               </g>
        </defs>

<script type="text/javascript">
var viewWidth = 2267;
var viewHeight = 500;
var sectionId = 'dynsection-0';
</script>
<script xlink:href="svgpan.js"/>
<svg id="graph" class="graph">
<g id="viewport">
<title>include/Move_always.hpp</title>
<!-- Node1 -->
<g id="node1" class="node">
<title>Node1</title>
<g id="a_node1"><a xlink:title="Randomly selects moves to always perform on triangulations.">
<polygon fill="#999999" stroke="#666666" points="1335,-492 1192,-492 1192,-473 1335,-473 1335,-492"/>
<text text-anchor="middle" x="1263.5" y="-480" font-family="Helvetica,sans-Serif" font-size="10.00">include/Move_always.hpp</text>
</a>
</g>
</g>
<!-- Node2 -->
<g id="node2" class="node">
<title>Node2</title>
<g id="a_node2"><a xlink:title=" ">
<polygon fill="#e0e0e0" stroke="#999999" points="1325,-85 1260,-85 1260,-66 1325,-66 1325,-85"/>
<text text-anchor="middle" x="1292.5" y="-73" font-family="Helvetica,sans-Serif" font-size="10.00">stdexcept</text>
</a>
</g>
</g>
<!-- Node1&#45;&gt;Node2 -->
<g id="edge1" class="edge">
<title>Node1&#45;&gt;Node2</title>
<path fill="none" stroke="#63b8ff" d="M1263.5,-472.82C1263.5,-454.48 1263.5,-410.44 1263.5,-373.5 1263.5,-373.5 1263.5,-373.5 1263.5,-195.5 1263.5,-158.97 1276.56,-117.88 1285.15,-94.8"/>
<polygon fill="#63b8ff" stroke="#63b8ff" points="1288.49,-95.87 1288.83,-85.28 1281.96,-93.35 1288.49,-95.87"/>
</g>
<!-- Node3 -->
<g id="node3" class="node">
<title>Node3</title>
<g id="a_node3"><a xlink:href="_move__command_8hpp.html" target="_top" xlink:title="Do ergodic moves using the Command pattern.">
<polygon fill="white" stroke="#666666" points="666,-437 547,-437 547,-418 666,-418 666,-437"/>
<text text-anchor="middle" x="606.5" y="-425" font-family="Helvetica,sans-Serif" font-size="10.00">Move_command.hpp</text>
</a>
</g>
</g>
<!-- Node1&#45;&gt;Node3 -->
<g id="edge2" class="edge">
<title>Node1&#45;&gt;Node3</title>
<path fill="none" stroke="#63b8ff" d="M1191.94,-475.73C1065.13,-465.5 802.53,-444.31 676.7,-434.16"/>
<polygon fill="#63b8ff" stroke="#63b8ff" points="676.67,-430.65 666.42,-433.33 676.1,-437.63 676.67,-430.65"/>
</g>
<!-- Node47 -->
<g id="node47" class="node">
<title>Node47</title>
<g id="a_node47"><a xlink:href="_move__strategy_8hpp.html" target="_top" xlink:title="Template class for move algorithms (strategies) on manifolds.">
<polygon fill="white" stroke="#666666" points="1401,-437 1292,-437 1292,-418 1401,-418 1401,-437"/>
<text text-anchor="middle" x="1346.5" y="-425" font-family="Helvetica,sans-Serif" font-size="10.00">Move_strategy.hpp</text>
</a>
</g>
</g>
<!-- Node1&#45;&gt;Node47 -->
<g id="edge56" class="edge">
<title>Node1&#45;&gt;Node47</title>
<path fill="none" stroke="#63b8ff" d="M1276.84,-472.98C1289.59,-464.84 1309.05,-452.41 1324.17,-442.76"/>
<polygon fill="#63b8ff" stroke="#63b8ff" points="1326.38,-445.5 1332.92,-437.17 1322.61,-439.6 1326.38,-445.5"/>
</g>
<!-- Node4 -->
<g id="node4" class="node">
<title>Node4</title>
<g id="a_node4"><a xlink:href="_apply__move_8hpp.html" target="_top" xlink:title="Apply Pachner moves to foliated Delaunay triangulations.">
<polygon fill="white" stroke="#666666" points="243.5,-382 145.5,-382 145.5,-363 243.5,-363 243.5,-382"/>
<text text-anchor="middle" x="194.5" y="-370" font-family="Helvetica,sans-Serif" font-size="10.00">Apply_move.hpp</text>
</a>
</g>
</g>
<!-- Node3&#45;&gt;Node4 -->
<g id="edge3" class="edge">
<title>Node3&#45;&gt;Node4</title>
<path fill="none" stroke="#63b8ff" d="M546.59,-418.79C468.2,-408.71 331.67,-391.15 253.66,-381.11"/>
<polygon fill="#63b8ff" stroke="#63b8ff" points="253.88,-377.61 243.51,-379.81 252.99,-384.55 253.88,-377.61"/>
</g>
<!-- Node11 -->
<g id="node11" class="node">
<title>Node11</title>
<g id="a_node11"><a xlink:href="_ergodic__moves__3_8hpp.html" target="_top" xlink:title="Pachner moves on 2+1 dimensional foliated Delaunay triangulations.">
<polygon fill="white" stroke="#666666" points="668,-382 545,-382 545,-363 668,-363 668,-382"/>
<text text-anchor="middle" x="606.5" y="-370" font-family="Helvetica,sans-Serif" font-size="10.00">Ergodic_moves_3.hpp</text>
</a>
</g>
</g>
<!-- Node3&#45;&gt;Node11 -->
<g id="edge10" class="edge">
<title>Node3&#45;&gt;Node11</title>
<path fill="none" stroke="#63b8ff" d="M606.5,-417.75C606.5,-410.8 606.5,-400.85 606.5,-392.13"/>
<polygon fill="#63b8ff" stroke="#63b8ff" points="610,-392.09 606.5,-382.09 603,-392.09 610,-392.09"/>
</g>
<!-- Node5 -->
<g id="node5" class="node">
<title>Node5</title>
<g id="a_node5"><a xlink:title=" ">
<polygon fill="#e0e0e0" stroke="#999999" points="111,-85 18,-85 18,-66 111,-66 111,-85"/>
<text text-anchor="middle" x="64.5" y="-73" font-family="Helvetica,sans-Serif" font-size="10.00">spdlog/spdlog.h</text>
</a>
</g>
</g>
<!-- Node4&#45;&gt;Node5 -->
<g id="edge4" class="edge">
<title>Node4&#45;&gt;Node5</title>
<path fill="none" stroke="#63b8ff" d="M189.69,-362.85C179.46,-343.63 156.5,-295.66 156.5,-252.5 156.5,-252.5 156.5,-252.5 156.5,-195.5 156.5,-149.79 113.48,-110.95 86.28,-90.96"/>
<polygon fill="#63b8ff" stroke="#63b8ff" points="88.26,-88.07 78.07,-85.14 84.21,-93.78 88.26,-88.07"/>
</g>
<!-- Node6 -->
<g id="node6" class="node">
<title>Node6</title>
<g id="a_node6"><a xlink:title=" ">
<polygon fill="#e0e0e0" stroke="#999999" points="348.5,-327 222.5,-327 222.5,-297 348.5,-297 348.5,-327"/>
<text text-anchor="start" x="230.5" y="-315" font-family="Helvetica,sans-Serif" font-size="10.00">boost/compat/function</text>
<text text-anchor="middle" x="285.5" y="-304" font-family="Helvetica,sans-Serif" font-size="10.00">_ref.hpp</text>
</a>
</g>
</g>
<!-- Node4&#45;&gt;Node6 -->
<g id="edge5" class="edge">
<title>Node4&#45;&gt;Node6</title>
<path fill="none" stroke="#63b8ff" d="M207.93,-362.87C220.27,-354.93 239.03,-342.87 255.01,-332.6"/>
<polygon fill="#63b8ff" stroke="#63b8ff" points="257.02,-335.47 263.54,-327.11 253.24,-329.58 257.02,-335.47"/>
</g>
<!-- Node7 -->
<g id="node7" class="node">
<title>Node7</title>
<g id="a_node7"><a xlink:title=" ">
<polygon fill="#e0e0e0" stroke="#999999" points="505.5,-321.5 443.5,-321.5 443.5,-302.5 505.5,-302.5 505.5,-321.5"/>
<text text-anchor="middle" x="474.5" y="-309.5" font-family="Helvetica,sans-Serif" font-size="10.00">expected</text>
</a>
</g>
</g>
<!-- Node4&#45;&gt;Node7 -->
<g id="edge6" class="edge">
<title>Node4&#45;&gt;Node7</title>
<path fill="none" stroke="#63b8ff" d="M235.21,-362.99C288.11,-351.94 379.97,-332.75 433.17,-321.64"/>
<polygon fill="#63b8ff" stroke="#63b8ff" points="434.19,-325 443.27,-319.53 432.76,-318.14 434.19,-325"/>
</g>
<!-- Node8 -->
<g id="node8" class="node">
<title>Node8</title>
<g id="a_node8"><a xlink:title=" ">
<polygon fill="#e0e0e0" stroke="#999999" points="65,-321.5 0,-321.5 0,-302.5 65,-302.5 65,-321.5"/>
<text text-anchor="middle" x="32.5" y="-309.5" font-family="Helvetica,sans-Serif" font-size="10.00">functional</text>
</a>
</g>
</g>
<!-- Node4&#45;&gt;Node8 -->
<g id="edge7" class="edge">
<title>Node4&#45;&gt;Node8</title>
<path fill="none" stroke="#63b8ff" d="M170.94,-362.99C143.23,-352.99 97.03,-336.3 65.69,-324.99"/>
<polygon fill="#63b8ff" stroke="#63b8ff" points="66.68,-321.62 56.08,-321.52 64.3,-328.21 66.68,-321.62"/>
</g>
<!-- Node9 -->
<g id="node9" class="node">
<title>Node9</title>
<g id="a_node9"><a xlink:title=" ">
<polygon fill="#e0e0e0" stroke="#999999" points="173.5,-85 129.5,-85 129.5,-66 173.5,-66 173.5,-85"/>
<text text-anchor="middle" x="151.5" y="-73" font-family="Helvetica,sans-Serif" font-size="10.00">string</text>
</a>
</g>
</g>
<!-- Node4&#45;&gt;Node9 -->
<g id="edge8" class="edge">
<title>Node4&#45;&gt;Node9</title>
<path fill="none" stroke="#63b8ff" d="M194.5,-362.84C194.5,-343.21 194.5,-293.82 194.5,-252.5 194.5,-252.5 194.5,-252.5 194.5,-195.5 194.5,-157.42 174.78,-116.35 162.05,-93.8"/>
<polygon fill="#63b8ff" stroke="#63b8ff" points="165.02,-91.93 156.95,-85.07 158.98,-95.47 165.02,-91.93"/>
</g>
<!-- Node10 -->
<g id="node10" class="node">
<title>Node10</title>
<g id="a_node10"><a xlink:title=" ">
<polygon fill="#e0e0e0" stroke="#999999" points="128,-321.5 83,-321.5 83,-302.5 128,-302.5 128,-321.5"/>
<text text-anchor="middle" x="105.5" y="-309.5" font-family="Helvetica,sans-Serif" font-size="10.00">utility</text>
</a>
</g>
</g>
<!-- Node4&#45;&gt;Node10 -->
<g id="edge9" class="edge">
<title>Node4&#45;&gt;Node10</title>
<path fill="none" stroke="#63b8ff" d="M181.37,-362.87C167.17,-353.54 144.3,-338.51 127.38,-327.38"/>
<polygon fill="#63b8ff" stroke="#63b8ff" points="128.97,-324.24 118.69,-321.67 125.12,-330.08 128.97,-324.24"/>
</g>
<!-- Node11&#45;&gt;Node7 -->
<g id="edge11" class="edge">
<title>Node11&#45;&gt;Node7</title>
<path fill="none" stroke="#63b8ff" d="M587.31,-362.99C565.11,-353.16 528.38,-336.88 502.88,-325.58"/>
<polygon fill="#63b8ff" stroke="#63b8ff" points="504.28,-322.37 493.72,-321.52 501.44,-328.77 504.28,-322.37"/>
</g>
<!-- Node12 -->
<g id="node12" class="node">
<title>Node12</title>
<g id="a_node12"><a xlink:href="_formatters_8hpp.html" target="_top" xlink:title="Formatter specializations for various types.">
<polygon fill="white" stroke="#666666" points="1099,-321.5 1008,-321.5 1008,-302.5 1099,-302.5 1099,-321.5"/>
<text text-anchor="middle" x="1053.5" y="-309.5" font-family="Helvetica,sans-Serif" font-size="10.00">Formatters.hpp</text>
</a>
</g>
</g>
<!-- Node11&#45;&gt;Node12 -->
<g id="edge12" class="edge">
<title>Node11&#45;&gt;Node12</title>
<path fill="none" stroke="#63b8ff" d="M668.18,-363.43C755.44,-352.01 913.6,-331.31 997.59,-320.32"/>
<polygon fill="#63b8ff" stroke="#63b8ff" points="998.24,-323.76 1007.7,-318.99 997.33,-316.82 998.24,-323.76"/>
</g>
<!-- Node25 -->
<g id="node25" class="node">
<title>Node25</title>
<g id="a_node25"><a xlink:href="_manifold_8hpp.html" target="_top" xlink:title="Data structures for manifolds.">
<polygon fill="white" stroke="#666666" points="711.5,-321.5 631.5,-321.5 631.5,-302.5 711.5,-302.5 711.5,-321.5"/>
<text text-anchor="middle" x="671.5" y="-309.5" font-family="Helvetica,sans-Serif" font-size="10.00">Manifold.hpp</text>
</a>
</g>
</g>
<!-- Node11&#45;&gt;Node25 -->
<g id="edge25" class="edge">
<title>Node11&#45;&gt;Node25</title>
<path fill="none" stroke="#63b8ff" d="M616.09,-362.87C626.08,-353.88 641.93,-339.61 654.13,-328.64"/>
<polygon fill="#63b8ff" stroke="#63b8ff" points="656.78,-330.96 661.87,-321.67 652.1,-325.76 656.78,-330.96"/>
</g>
<!-- Node43 -->
<g id="node43" class="node">
<title>Node43</title>
<g id="a_node43"><a xlink:href="_move__tracker_8hpp.html" target="_top" xlink:title="Track ergodic moves.">
<polygon fill="white" stroke="#666666" points="603,-206 500,-206 500,-187 603,-187 603,-206"/>
<text text-anchor="middle" x="551.5" y="-194" font-family="Helvetica,sans-Serif" font-size="10.00">Move_tracker.hpp</text>
</a>
</g>
</g>
<!-- Node11&#45;&gt;Node43 -->
<g id="edge48" class="edge">
<title>Node11&#45;&gt;Node43</title>
<path fill="none" stroke="#63b8ff" d="M603.7,-362.63C595.13,-335.52 569.14,-253.32 557.39,-216.13"/>
<polygon fill="#63b8ff" stroke="#63b8ff" points="560.58,-214.62 554.23,-206.14 553.91,-216.73 560.58,-214.62"/>
</g>
<!-- Node13 -->
<g id="node13" class="node">
<title>Node13</title>
<g id="a_node13"><a xlink:title=" ">
<polygon fill="#e0e0e0" stroke="#999999" points="996,-261 929,-261 929,-242 996,-242 996,-261"/>
<text text-anchor="middle" x="962.5" y="-249" font-family="Helvetica,sans-Serif" font-size="10.00">fmt/core.h</text>
</a>
</g>
</g>
<!-- Node12&#45;&gt;Node13 -->
<g id="edge13" class="edge">
<title>Node12&#45;&gt;Node13</title>
<path fill="none" stroke="#63b8ff" d="M1040.07,-302.37C1025.42,-292.95 1001.74,-277.73 984.4,-266.58"/>
<polygon fill="#63b8ff" stroke="#63b8ff" points="986.29,-263.63 975.98,-261.17 982.5,-269.52 986.29,-263.63"/>
</g>
<!-- Node14 -->
<g id="node14" class="node">
<title>Node14</title>
<g id="a_node14"><a xlink:title=" ">
<polygon fill="#e0e0e0" stroke="#999999" points="1093,-261 1014,-261 1014,-242 1093,-242 1093,-261"/>
<text text-anchor="middle" x="1053.5" y="-249" font-family="Helvetica,sans-Serif" font-size="10.00">fmt/format.h</text>
</a>
</g>
</g>
<!-- Node12&#45;&gt;Node14 -->
<g id="edge14" class="edge">
<title>Node12&#45;&gt;Node14</title>
<path fill="none" stroke="#63b8ff" d="M1053.5,-302.37C1053.5,-294.25 1053.5,-281.81 1053.5,-271.39"/>
<polygon fill="#63b8ff" stroke="#63b8ff" points="1057,-271.17 1053.5,-261.17 1050,-271.17 1057,-271.17"/>
</g>
<!-- Node15 -->
<g id="node15" class="node">
<title>Node15</title>
<g id="a_node15"><a xlink:title=" ">
<polygon fill="#e0e0e0" stroke="#999999" points="1166.5,-261 1110.5,-261 1110.5,-242 1166.5,-242 1166.5,-261"/>
<text text-anchor="middle" x="1138.5" y="-249" font-family="Helvetica,sans-Serif" font-size="10.00">sstream</text>
</a>
</g>
</g>
<!-- Node12&#45;&gt;Node15 -->
<g id="edge15" class="edge">
<title>Node12&#45;&gt;Node15</title>
<path fill="none" stroke="#63b8ff" d="M1066.04,-302.37C1079.6,-293.04 1101.44,-278.01 1117.6,-266.88"/>
<polygon fill="#63b8ff" stroke="#63b8ff" points="1119.65,-269.72 1125.91,-261.17 1115.68,-263.95 1119.65,-269.72"/>
</g>
<!-- Node16 -->
<g id="node16" class="node">
<title>Node16</title>
<g id="a_node16"><a xlink:href="_triangulation__traits_8hpp.html" target="_top" xlink:title="Traits class for particular uses of CGAL.">
<polygon fill="white" stroke="#666666" points="1659,-151 1528,-151 1528,-132 1659,-132 1659,-151"/>
<text text-anchor="middle" x="1593.5" y="-139" font-family="Helvetica,sans-Serif" font-size="10.00">Triangulation_traits.hpp</text>
</a>
</g>
</g>
<!-- Node12&#45;&gt;Node16 -->
<g id="edge16" class="edge">
<title>Node12&#45;&gt;Node16</title>
<path fill="none" stroke="#63b8ff" d="M1081.02,-302.41C1170.67,-274.44 1454.37,-185.91 1556.45,-154.06"/>
<polygon fill="#63b8ff" stroke="#63b8ff" points="1557.53,-157.39 1566.03,-151.07 1555.45,-150.71 1557.53,-157.39"/>
</g>
<!-- Node17 -->
<g id="node17" class="node">
<title>Node17</title>
<g id="a_node17"><a xlink:title=" ">
<polygon fill="#e0e0e0" stroke="#999999" points="2111.5,-85 1931.5,-85 1931.5,-66 2111.5,-66 2111.5,-85"/>
<text text-anchor="middle" x="2021.5" y="-73" font-family="Helvetica,sans-Serif" font-size="10.00">CGAL/Delaunay_triangulation_3.h</text>
</a>
</g>
</g>
<!-- Node16&#45;&gt;Node17 -->
<g id="edge17" class="edge">
<title>Node16&#45;&gt;Node17</title>
<path fill="none" stroke="#63b8ff" d="M1659.22,-132.79C1725.75,-124.71 1831.52,-111.1 1922.5,-96 1938.38,-93.37 1955.61,-90.11 1971.18,-87.02"/>
<polygon fill="#63b8ff" stroke="#63b8ff" points="1972.02,-90.42 1981.14,-85.02 1970.65,-83.56 1972.02,-90.42"/>
</g>
<!-- Node18 -->
<g id="node18" class="node">
<title>Node18</title>
<g id="a_node18"><a xlink:title=" ">
<polygon fill="#e0e0e0" stroke="#999999" points="2259,-96 2130,-96 2130,-55 2259,-55 2259,-96"/>
<text text-anchor="start" x="2138" y="-84" font-family="Helvetica,sans-Serif" font-size="10.00">CGAL/Exact_predicates</text>
<text text-anchor="start" x="2138" y="-73" font-family="Helvetica,sans-Serif" font-size="10.00">_inexact_constructions</text>
<text text-anchor="middle" x="2194.5" y="-62" font-family="Helvetica,sans-Serif" font-size="10.00">_kernel.h</text>
</a>
</g>
</g>
<!-- Node16&#45;&gt;Node18 -->
<g id="edge18" class="edge">
<title>Node16&#45;&gt;Node18</title>
<path fill="none" stroke="#63b8ff" d="M1659.28,-138.61C1757.57,-134.97 1948.6,-124.79 2119.73,-95.96"/>
<polygon fill="#63b8ff" stroke="#63b8ff" points="2120.4,-99.4 2129.67,-94.26 2119.22,-92.5 2120.4,-99.4"/>
</g>
<!-- Node19 -->
<g id="node19" class="node">
<title>Node19</title>
<g id="a_node19"><a xlink:title=" ">
<polygon fill="#e0e0e0" stroke="#999999" points="1587,-85 1438,-85 1438,-66 1587,-66 1587,-85"/>
<text text-anchor="middle" x="1512.5" y="-73" font-family="Helvetica,sans-Serif" font-size="10.00">CGAL/point_generators_3.h</text>
</a>
</g>
</g>
<!-- Node16&#45;&gt;Node19 -->
<g id="edge19" class="edge">
<title>Node16&#45;&gt;Node19</title>
<path fill="none" stroke="#63b8ff" d="M1582.58,-131.87C1569.53,-121.56 1547.49,-104.15 1531.6,-91.59"/>
<polygon fill="#63b8ff" stroke="#63b8ff" points="1533.53,-88.65 1523.51,-85.2 1529.19,-94.14 1533.53,-88.65"/>
</g>
<!-- Node20 -->
<g id="node20" class="node">
<title>Node20</title>
<g id="a_node20"><a xlink:title=" ">
<polygon fill="#e0e0e0" stroke="#999999" points="1743.5,-90.5 1605.5,-90.5 1605.5,-60.5 1743.5,-60.5 1743.5,-90.5"/>
<text text-anchor="start" x="1613.5" y="-78.5" font-family="Helvetica,sans-Serif" font-size="10.00">CGAL/Triangulation</text>
<text text-anchor="middle" x="1674.5" y="-67.5" font-family="Helvetica,sans-Serif" font-size="10.00">_cell_base_with_info_3.h</text>
</a>
</g>
</g>
<!-- Node16&#45;&gt;Node20 -->
<g id="edge20" class="edge">
<title>Node16&#45;&gt;Node20</title>
<path fill="none" stroke="#63b8ff" d="M1604.42,-131.87C1615.72,-122.94 1633.76,-108.69 1648.71,-96.88"/>
<polygon fill="#63b8ff" stroke="#63b8ff" points="1650.96,-99.56 1656.63,-90.62 1646.62,-94.07 1650.96,-99.56"/>
</g>
<!-- Node21 -->
<g id="node21" class="node">
<title>Node21</title>
<g id="a_node21"><a xlink:title=" ">
<polygon fill="#e0e0e0" stroke="#999999" points="1913.5,-90.5 1761.5,-90.5 1761.5,-60.5 1913.5,-60.5 1913.5,-90.5"/>
<text text-anchor="start" x="1769.5" y="-78.5" font-family="Helvetica,sans-Serif" font-size="10.00">CGAL/Triangulation</text>
<text text-anchor="middle" x="1837.5" y="-67.5" font-family="Helvetica,sans-Serif" font-size="10.00">_vertex_base_with_info_3.h</text>
</a>
</g>
</g>
<!-- Node16&#45;&gt;Node21 -->
<g id="edge21" class="edge">
<title>Node16&#45;&gt;Node21</title>
<path fill="none" stroke="#63b8ff" d="M1626.15,-131.94C1663.86,-122.05 1726.77,-105.55 1774.17,-93.11"/>
<polygon fill="#63b8ff" stroke="#63b8ff" points="1775.25,-96.45 1784.03,-90.52 1773.47,-89.68 1775.25,-96.45"/>
</g>
<!-- Node22 -->
<g id="node22" class="node">
<title>Node22</title>
<g id="a_node22"><a xlink:href="_settings_8hpp.html" target="_top" xlink:title="Global integer and precision settings.">
<polygon fill="white" stroke="#666666" points="1420,-85 1343,-85 1343,-66 1420,-66 1420,-85"/>
<text text-anchor="middle" x="1381.5" y="-73" font-family="Helvetica,sans-Serif" font-size="10.00">Settings.hpp</text>
</a>
</g>
</g>
<!-- Node16&#45;&gt;Node22 -->
<g id="edge22" class="edge">
<title>Node16&#45;&gt;Node22</title>
<path fill="none" stroke="#63b8ff" d="M1556.97,-131.93C1523.48,-123.76 1472.69,-110.57 1429.5,-96 1423.24,-93.89 1416.61,-91.38 1410.35,-88.88"/>
<polygon fill="#63b8ff" stroke="#63b8ff" points="1411.5,-85.56 1400.92,-85.01 1408.84,-92.04 1411.5,-85.56"/>
</g>
<!-- Node23 -->
<g id="node23" class="node">
<title>Node23</title>
<g id="a_node23"><a xlink:title=" ">
<polygon fill="#e0e0e0" stroke="#999999" points="1394.5,-19 1254.5,-19 1254.5,0 1394.5,0 1394.5,-19"/>
<text text-anchor="middle" x="1324.5" y="-7" font-family="Helvetica,sans-Serif" font-size="10.00">CGAL/GMP/Gmpzf_type.h</text>
</a>
</g>
</g>
<!-- Node22&#45;&gt;Node23 -->
<g id="edge23" class="edge">
<title>Node22&#45;&gt;Node23</title>
<path fill="none" stroke="#63b8ff" d="M1373.81,-65.87C1365.02,-56 1350.43,-39.61 1339.39,-27.22"/>
<polygon fill="#63b8ff" stroke="#63b8ff" points="1341.7,-24.55 1332.43,-19.41 1336.47,-29.2 1341.7,-24.55"/>
</g>
<!-- Node24 -->
<g id="node24" class="node">
<title>Node24</title>
<g id="a_node24"><a xlink:title=" ">
<polygon fill="#e0e0e0" stroke="#999999" points="1462.5,-19 1412.5,-19 1412.5,0 1462.5,0 1462.5,-19"/>
<text text-anchor="middle" x="1437.5" y="-7" font-family="Helvetica,sans-Serif" font-size="10.00">cstdint</text>
</a>
</g>
</g>
<!-- Node22&#45;&gt;Node24 -->
<g id="edge24" class="edge">
<title>Node22&#45;&gt;Node24</title>
<path fill="none" stroke="#63b8ff" d="M1389.05,-65.87C1397.69,-56 1412.03,-39.61 1422.87,-27.22"/>
<polygon fill="#63b8ff" stroke="#63b8ff" points="1425.76,-29.24 1429.71,-19.41 1420.49,-24.63 1425.76,-29.24"/>
</g>
<!-- Node26 -->
<g id="node26" class="node">
<title>Node26</title>
<g id="a_node26"><a xlink:title=" ">
<polygon fill="#e0e0e0" stroke="#999999" points="655,-151 602,-151 602,-132 655,-132 655,-151"/>
<text text-anchor="middle" x="628.5" y="-139" font-family="Helvetica,sans-Serif" font-size="10.00">cstddef</text>
</a>
</g>
</g>
<!-- Node25&#45;&gt;Node26 -->
<g id="edge26" class="edge">
<title>Node25&#45;&gt;Node26</title>
<path fill="none" stroke="#63b8ff" d="M667.2,-302.36C662.48,-292.55 654.98,-275.97 650.5,-261 640.2,-226.54 633.81,-184.94 630.73,-161.32"/>
<polygon fill="#63b8ff" stroke="#63b8ff" points="634.19,-160.77 629.48,-151.27 627.24,-161.63 634.19,-160.77"/>
</g>
<!-- Node27 -->
<g id="node27" class="node">
<title>Node27</title>
<g id="a_node27"><a xlink:title=" ">
<polygon fill="#e0e0e0" stroke="#999999" points="745.5,-261 659.5,-261 659.5,-242 745.5,-242 745.5,-261"/>
<text text-anchor="middle" x="702.5" y="-249" font-family="Helvetica,sans-Serif" font-size="10.00">unordered_set</text>
</a>
</g>
</g>
<!-- Node25&#45;&gt;Node27 -->
<g id="edge27" class="edge">
<title>Node25&#45;&gt;Node27</title>
<path fill="none" stroke="#63b8ff" d="M676.07,-302.37C680.56,-293.9 687.53,-280.74 693.19,-270.07"/>
<polygon fill="#63b8ff" stroke="#63b8ff" points="696.32,-271.64 697.91,-261.17 690.13,-268.36 696.32,-271.64"/>
</g>
<!-- Node28 -->
<g id="node28" class="node">
<title>Node28</title>
<g id="a_node28"><a xlink:href="_geometry_8hpp.html" target="_top" xlink:title="Geometric scalars of the Manifold used to calculate the Regge action.">
<polygon fill="white" stroke="#666666" points="849,-261 764,-261 764,-242 849,-242 849,-261"/>
<text text-anchor="middle" x="806.5" y="-249" font-family="Helvetica,sans-Serif" font-size="10.00">Geometry.hpp</text>
</a>
</g>
</g>
<!-- Node25&#45;&gt;Node28 -->
<g id="edge28" class="edge">
<title>Node25&#45;&gt;Node28</title>
<path fill="none" stroke="#63b8ff" d="M691.13,-302.49C713.83,-292.66 751.4,-276.38 777.47,-265.08"/>
<polygon fill="#63b8ff" stroke="#63b8ff" points="779.06,-268.2 786.85,-261.02 776.28,-261.78 779.06,-268.2"/>
</g>
<!-- Node29 -->
<g id="node29" class="node">
<title>Node29</title>
<g id="a_node29"><a xlink:href="_foliated__triangulation_8hpp.html" target="_top" xlink:title="Create foliated spherical triangulations.">
<polygon fill="white" stroke="#666666" points="878.5,-206 734.5,-206 734.5,-187 878.5,-187 878.5,-206"/>
<text text-anchor="middle" x="806.5" y="-194" font-family="Helvetica,sans-Serif" font-size="10.00">Foliated_triangulation.hpp</text>
</a>
</g>
</g>
<!-- Node28&#45;&gt;Node29 -->
<g id="edge29" class="edge">
<title>Node28&#45;&gt;Node29</title>
<path fill="none" stroke="#63b8ff" d="M806.5,-241.75C806.5,-234.8 806.5,-224.85 806.5,-216.13"/>
<polygon fill="#63b8ff" stroke="#63b8ff" points="810,-216.09 806.5,-206.09 803,-216.09 810,-216.09"/>
</g>
<!-- Node29&#45;&gt;Node16 -->
<g id="edge30" class="edge">
<title>Node29&#45;&gt;Node16</title>
<path fill="none" stroke="#63b8ff" d="M878.78,-190.63C1027.45,-180.62 1366.28,-157.8 1517.81,-147.6"/>
<polygon fill="#63b8ff" stroke="#63b8ff" points="1518.21,-151.08 1527.95,-146.91 1517.74,-144.09 1518.21,-151.08"/>
</g>
<!-- Node30 -->
<g id="node30" class="node">
<title>Node30</title>
<g id="a_node30"><a xlink:href="_utilities_8hpp.html" target="_top" xlink:title="Utility functions.">
<polygon fill="white" stroke="#666666" points="749.5,-151 673.5,-151 673.5,-132 749.5,-132 749.5,-151"/>
<text text-anchor="middle" x="711.5" y="-139" font-family="Helvetica,sans-Serif" font-size="10.00">Utilities.hpp</text>
</a>
</g>
</g>
<!-- Node29&#45;&gt;Node30 -->
<g id="edge31" class="edge">
<title>Node29&#45;&gt;Node30</title>
<path fill="none" stroke="#63b8ff" d="M791.24,-186.98C776.37,-178.69 753.52,-165.94 736.08,-156.22"/>
<polygon fill="#63b8ff" stroke="#63b8ff" points="737.48,-152.99 727.04,-151.17 734.07,-159.1 737.48,-152.99"/>
</g>
<!-- Node30&#45;&gt;Node2 -->
<g id="edge39" class="edge">
<title>Node30&#45;&gt;Node2</title>
<path fill="none" stroke="#63b8ff" d="M749.74,-139.09C856.41,-134.87 1155.64,-121.08 1250.5,-96 1256.47,-94.42 1262.65,-92.03 1268.36,-89.46"/>
<polygon fill="#63b8ff" stroke="#63b8ff" points="1269.95,-92.58 1277.43,-85.07 1266.9,-86.28 1269.95,-92.58"/>
</g>
<!-- Node30&#45;&gt;Node5 -->
<g id="edge46" class="edge">
<title>Node30&#45;&gt;Node5</title>
<path fill="none" stroke="#63b8ff" d="M673.34,-133.23C670.35,-132.77 667.38,-132.35 664.5,-132 424.01,-102.39 357.95,-144.28 120.5,-96 111.89,-94.25 102.8,-91.5 94.51,-88.61"/>
<polygon fill="#63b8ff" stroke="#63b8ff" points="95.47,-85.24 84.87,-85.08 93.06,-91.81 95.47,-85.24"/>
</g>
<!-- Node30&#45;&gt;Node9 -->
<g id="edge40" class="edge">
<title>Node30&#45;&gt;Node9</title>
<path fill="none" stroke="#63b8ff" d="M673.33,-133.25C670.35,-132.79 667.38,-132.37 664.5,-132 451.4,-104.85 386.55,-163.17 182.5,-96 178.54,-94.7 174.57,-92.78 170.86,-90.65"/>
<polygon fill="#63b8ff" stroke="#63b8ff" points="172.62,-87.62 162.32,-85.14 168.82,-93.5 172.62,-87.62"/>
</g>
<!-- Node30&#45;&gt;Node22 -->
<g id="edge47" class="edge">
<title>Node30&#45;&gt;Node22</title>
<path fill="none" stroke="#63b8ff" d="M749.64,-139.38C867.13,-135.68 1222.38,-122.52 1334.5,-96 1341.43,-94.36 1348.66,-91.82 1355.31,-89.11"/>
<polygon fill="#63b8ff" stroke="#63b8ff" points="1356.76,-92.29 1364.53,-85.1 1353.97,-85.87 1356.76,-92.29"/>
</g>
<!-- Node31 -->
<g id="node31" class="node">
<title>Node31</title>
<g id="a_node31"><a xlink:title=" ">
<polygon fill="#e0e0e0" stroke="#999999" points="443.5,-85 379.5,-85 379.5,-66 443.5,-66 443.5,-85"/>
<text text-anchor="middle" x="411.5" y="-73" font-family="Helvetica,sans-Serif" font-size="10.00">algorithm</text>
</a>
</g>
</g>
<!-- Node30&#45;&gt;Node31 -->
<g id="edge32" class="edge">
<title>Node30&#45;&gt;Node31</title>
<path fill="none" stroke="#63b8ff" d="M673.29,-133.55C670.31,-133.02 667.36,-132.5 664.5,-132 570.36,-115.5 543.63,-124.8 452.5,-96 447.05,-94.28 441.4,-91.97 436.1,-89.54"/>
<polygon fill="#63b8ff" stroke="#63b8ff" points="437.58,-86.37 427.05,-85.15 434.52,-92.66 437.58,-86.37"/>
</g>
<!-- Node32 -->
<g id="node32" class="node">
<title>Node32</title>
<g id="a_node32"><a xlink:title=" ">
<polygon fill="#e0e0e0" stroke="#999999" points="529.5,-85 461.5,-85 461.5,-66 529.5,-66 529.5,-85"/>
<text text-anchor="middle" x="495.5" y="-73" font-family="Helvetica,sans-Serif" font-size="10.00">filesystem</text>
</a>
</g>
</g>
<!-- Node30&#45;&gt;Node32 -->
<g id="edge33" class="edge">
<title>Node30&#45;&gt;Node32</title>
<path fill="none" stroke="#63b8ff" d="M673.39,-132.53C638.18,-124.72 584.65,-111.73 539.5,-96 533.98,-94.08 528.18,-91.75 522.68,-89.38"/>
<polygon fill="#63b8ff" stroke="#63b8ff" points="523.77,-86.03 513.21,-85.15 520.92,-92.42 523.77,-86.03"/>
</g>
<!-- Node33 -->
<g id="node33" class="node">
<title>Node33</title>
<g id="a_node33"><a xlink:title=" ">
<polygon fill="#e0e0e0" stroke="#999999" points="603,-85 548,-85 548,-66 603,-66 603,-85"/>
<text text-anchor="middle" x="575.5" y="-73" font-family="Helvetica,sans-Serif" font-size="10.00">fstream</text>
</a>
</g>
</g>
<!-- Node30&#45;&gt;Node33 -->
<g id="edge34" class="edge">
<title>Node30&#45;&gt;Node33</title>
<path fill="none" stroke="#63b8ff" d="M691.61,-132C671.5,-123.29 639.6,-109.22 612.5,-96 608.54,-94.07 604.37,-91.95 600.32,-89.85"/>
<polygon fill="#63b8ff" stroke="#63b8ff" points="601.71,-86.63 591.23,-85.07 598.45,-92.83 601.71,-86.63"/>
</g>
<!-- Node34 -->
<g id="node34" class="node">
<title>Node34</title>
<g id="a_node34"><a xlink:title=" ">
<polygon fill="#e0e0e0" stroke="#999999" points="669.5,-85 621.5,-85 621.5,-66 669.5,-66 669.5,-85"/>
<text text-anchor="middle" x="645.5" y="-73" font-family="Helvetica,sans-Serif" font-size="10.00">gsl/gsl</text>
</a>
</g>
</g>
<!-- Node30&#45;&gt;Node34 -->
<g id="edge35" class="edge">
<title>Node30&#45;&gt;Node34</title>
<path fill="none" stroke="#63b8ff" d="M702.6,-131.87C692.23,-121.81 674.87,-104.98 662.01,-92.51"/>
<polygon fill="#63b8ff" stroke="#63b8ff" points="664.3,-89.85 654.68,-85.41 659.43,-94.88 664.3,-89.85"/>
</g>
<!-- Node35 -->
<g id="node35" class="node">
<title>Node35</title>
<g id="a_node35"><a xlink:title=" ">
<polygon fill="#e0e0e0" stroke="#999999" points="735.5,-85 687.5,-85 687.5,-66 735.5,-66 735.5,-85"/>
<text text-anchor="middle" x="711.5" y="-73" font-family="Helvetica,sans-Serif" font-size="10.00">mutex</text>
</a>
</g>
</g>
<!-- Node30&#45;&gt;Node35 -->
<g id="edge36" class="edge">
<title>Node30&#45;&gt;Node35</title>
<path fill="none" stroke="#63b8ff" d="M711.5,-131.87C711.5,-122.66 711.5,-107.79 711.5,-95.77"/>
<polygon fill="#63b8ff" stroke="#63b8ff" points="715,-95.41 711.5,-85.41 708,-95.41 715,-95.41"/>
</g>
<!-- Node36 -->
<g id="node36" class="node">
<title>Node36</title>
<g id="a_node36"><a xlink:title=" ">
<polygon fill="#e0e0e0" stroke="#999999" points="807.5,-85 753.5,-85 753.5,-66 807.5,-66 807.5,-85"/>
<text text-anchor="middle" x="780.5" y="-73" font-family="Helvetica,sans-Serif" font-size="10.00">random</text>
</a>
</g>
</g>
<!-- Node30&#45;&gt;Node36 -->
<g id="edge37" class="edge">
<title>Node30&#45;&gt;Node36</title>
<path fill="none" stroke="#63b8ff" d="M720.81,-131.87C731.65,-121.81 749.8,-104.98 763.24,-92.51"/>
<polygon fill="#63b8ff" stroke="#63b8ff" points="765.95,-94.77 770.9,-85.41 761.19,-89.64 765.95,-94.77"/>
</g>
<!-- Node37 -->
<g id="node37" class="node">
<title>Node37</title>
<g id="a_node37"><a xlink:title=" ">
<polygon fill="#e0e0e0" stroke="#999999" points="231.5,-85 191.5,-85 191.5,-66 231.5,-66 231.5,-85"/>
<text text-anchor="middle" x="211.5" y="-73" font-family="Helvetica,sans-Serif" font-size="10.00">span</text>
</a>
</g>
</g>
<!-- Node30&#45;&gt;Node37 -->
<g id="edge38" class="edge">
<title>Node30&#45;&gt;Node37</title>
<path fill="none" stroke="#63b8ff" d="M673.33,-133.29C670.35,-132.82 667.38,-132.38 664.5,-132 477.46,-107.18 419.96,-157.25 241.5,-96 237.75,-94.71 234.01,-92.86 230.51,-90.8"/>
<polygon fill="#63b8ff" stroke="#63b8ff" points="232.2,-87.72 221.93,-85.11 228.33,-93.56 232.2,-87.72"/>
</g>
<!-- Node38 -->
<g id="node38" class="node">
<title>Node38</title>
<g id="a_node38"><a xlink:title=" ">
<polygon fill="#e0e0e0" stroke="#999999" points="897.5,-85 825.5,-85 825.5,-66 897.5,-66 897.5,-85"/>
<text text-anchor="middle" x="861.5" y="-73" font-family="Helvetica,sans-Serif" font-size="10.00">date/date.h</text>
</a>
</g>
</g>
<!-- Node30&#45;&gt;Node38 -->
<g id="edge41" class="edge">
<title>Node30&#45;&gt;Node38</title>
<path fill="none" stroke="#63b8ff" d="M732.04,-131.85C753.22,-122.92 787.2,-108.56 816.5,-96 821.68,-93.78 827.2,-91.4 832.53,-89.1"/>
<polygon fill="#63b8ff" stroke="#63b8ff" points="834.02,-92.26 841.8,-85.08 831.23,-85.84 834.02,-92.26"/>
</g>
<!-- Node39 -->
<g id="node39" class="node">
<title>Node39</title>
<g id="a_node39"><a xlink:title=" ">
<polygon fill="#e0e0e0" stroke="#999999" points="1013.5,-85 915.5,-85 915.5,-66 1013.5,-66 1013.5,-85"/>
<text text-anchor="middle" x="964.5" y="-73" font-family="Helvetica,sans-Serif" font-size="10.00">pcg_random.hpp</text>
</a>
</g>
</g>
<!-- Node30&#45;&gt;Node39 -->
<g id="edge42" class="edge">
<title>Node30&#45;&gt;Node39</title>
<path fill="none" stroke="#63b8ff" d="M749.53,-133C789.04,-124.93 852.52,-111.19 906.5,-96 914.64,-93.71 923.33,-90.96 931.44,-88.25"/>
<polygon fill="#63b8ff" stroke="#63b8ff" points="932.62,-91.54 940.96,-85.01 930.37,-84.92 932.62,-91.54"/>
</g>
<!-- Node40 -->
<g id="node40" class="node">
<title>Node40</title>
<g id="a_node40"><a xlink:title=" ">
<polygon fill="#e0e0e0" stroke="#999999" points="1117.5,-85 1031.5,-85 1031.5,-66 1117.5,-66 1117.5,-85"/>
<text text-anchor="middle" x="1074.5" y="-73" font-family="Helvetica,sans-Serif" font-size="10.00">fmt/ostream.h</text>
</a>
</g>
</g>
<!-- Node30&#45;&gt;Node40 -->
<g id="edge43" class="edge">
<title>Node30&#45;&gt;Node40</title>
<path fill="none" stroke="#63b8ff" d="M749.84,-137.7C809.07,-132.78 926.06,-120.67 1022.5,-96 1029.95,-94.09 1037.8,-91.48 1045.09,-88.79"/>
<polygon fill="#63b8ff" stroke="#63b8ff" points="1046.51,-92 1054.58,-85.13 1043.99,-85.47 1046.51,-92"/>
</g>
<!-- Node41 -->
<g id="node41" class="node">
<title>Node41</title>
<g id="a_node41"><a xlink:title=" ">
<polygon fill="#e0e0e0" stroke="#999999" points="1241.5,-90.5 1135.5,-90.5 1135.5,-60.5 1241.5,-60.5 1241.5,-90.5"/>
<text text-anchor="start" x="1143.5" y="-78.5" font-family="Helvetica,sans-Serif" font-size="10.00">spdlog/sinks/basic</text>
<text text-anchor="middle" x="1188.5" y="-67.5" font-family="Helvetica,sans-Serif" font-size="10.00">_file_sink.h</text>
</a>
</g>
</g>
<!-- Node30&#45;&gt;Node41 -->
<g id="edge44" class="edge">
<title>Node30&#45;&gt;Node41</title>
<path fill="none" stroke="#63b8ff" d="M749.66,-138.93C823.24,-135.36 989.6,-124.57 1126.5,-96 1130.31,-95.21 1134.21,-94.27 1138.12,-93.25"/>
<polygon fill="#63b8ff" stroke="#63b8ff" points="1139.09,-96.61 1147.78,-90.56 1137.21,-89.87 1139.09,-96.61"/>
</g>
<!-- Node42 -->
<g id="node42" class="node">
<title>Node42</title>
<g id="a_node42"><a xlink:title=" ">
<polygon fill="#e0e0e0" stroke="#999999" points="361,-90.5 250,-90.5 250,-60.5 361,-60.5 361,-90.5"/>
<text text-anchor="start" x="258" y="-78.5" font-family="Helvetica,sans-Serif" font-size="10.00">spdlog/sinks/stdout</text>
<text text-anchor="middle" x="305.5" y="-67.5" font-family="Helvetica,sans-Serif" font-size="10.00">_color_sinks.h</text>
</a>
</g>
</g>
<!-- Node30&#45;&gt;Node42 -->
<g id="edge45" class="edge">
<title>Node30&#45;&gt;Node42</title>
<path fill="none" stroke="#63b8ff" d="M673.31,-133.41C670.33,-132.91 667.37,-132.43 664.5,-132 534.34,-112.28 499.34,-123.01 370.5,-96 366.59,-95.18 362.58,-94.24 358.55,-93.21"/>
<polygon fill="#63b8ff" stroke="#63b8ff" points="359.16,-89.75 348.59,-90.54 357.34,-96.51 359.16,-89.75"/>
</g>
<!-- Node43&#45;&gt;Node22 -->
<g id="edge54" class="edge">
<title>Node43&#45;&gt;Node22</title>
<path fill="none" stroke="#63b8ff" d="M603.25,-193.68C730.01,-188.21 1065.33,-167.56 1334.5,-96 1341.11,-94.24 1348.02,-91.76 1354.45,-89.16"/>
<polygon fill="#63b8ff" stroke="#63b8ff" points="1356.22,-92.21 1364.03,-85.06 1353.46,-85.78 1356.22,-92.21"/>
</g>
<!-- Node43&#45;&gt;Node26 -->
<g id="edge50" class="edge">
<title>Node43&#45;&gt;Node26</title>
<path fill="none" stroke="#63b8ff" d="M563.87,-186.98C575.59,-178.92 593.42,-166.65 607.39,-157.03"/>
<polygon fill="#63b8ff" stroke="#63b8ff" points="609.65,-159.72 615.9,-151.17 605.68,-153.96 609.65,-159.72"/>
</g>
<!-- Node43&#45;&gt;Node30 -->
<g id="edge55" class="edge">
<title>Node43&#45;&gt;Node30</title>
<path fill="none" stroke="#63b8ff" d="M577.21,-186.98C603.95,-178.13 646.03,-164.19 675.95,-154.28"/>
<polygon fill="#63b8ff" stroke="#63b8ff" points="677.2,-157.55 685.59,-151.08 675,-150.9 677.2,-157.55"/>
</g>
<!-- Node43&#45;&gt;Node37 -->
<g id="edge53" class="edge">
<title>Node43&#45;&gt;Node37</title>
<path fill="none" stroke="#63b8ff" d="M511.82,-186.93C451.34,-172.96 333.45,-142.13 241.5,-96 238.29,-94.39 235.01,-92.52 231.84,-90.58"/>
<polygon fill="#63b8ff" stroke="#63b8ff" points="233.69,-87.61 223.4,-85.11 229.89,-93.48 233.69,-87.61"/>
</g>
<!-- Node44 -->
<g id="node44" class="node">
<title>Node44</title>
<g id="a_node44"><a xlink:title=" ">
<polygon fill="#e0e0e0" stroke="#999999" points="441.5,-151 399.5,-151 399.5,-132 441.5,-132 441.5,-151"/>
<text text-anchor="middle" x="420.5" y="-139" font-family="Helvetica,sans-Serif" font-size="10.00">array</text>
</a>
</g>
</g>
<!-- Node43&#45;&gt;Node44 -->
<g id="edge49" class="edge">
<title>Node43&#45;&gt;Node44</title>
<path fill="none" stroke="#63b8ff" d="M530.45,-186.98C509.09,-178.34 475.8,-164.87 451.44,-155.02"/>
<polygon fill="#63b8ff" stroke="#63b8ff" points="452.51,-151.68 441.93,-151.17 449.89,-158.17 452.51,-151.68"/>
</g>
<!-- Node45 -->
<g id="node45" class="node">
<title>Node45</title>
<g id="a_node45"><a xlink:title=" ">
<polygon fill="#e0e0e0" stroke="#999999" points="509.5,-151 459.5,-151 459.5,-132 509.5,-132 509.5,-151"/>
<text text-anchor="middle" x="484.5" y="-139" font-family="Helvetica,sans-Serif" font-size="10.00">gsl/util</text>
</a>
</g>
</g>
<!-- Node43&#45;&gt;Node45 -->
<g id="edge51" class="edge">
<title>Node43&#45;&gt;Node45</title>
<path fill="none" stroke="#63b8ff" d="M540.74,-186.98C530.73,-179.07 515.61,-167.11 503.57,-157.58"/>
<polygon fill="#63b8ff" stroke="#63b8ff" points="505.47,-154.63 495.46,-151.17 501.13,-160.12 505.47,-154.63"/>
</g>
<!-- Node46 -->
<g id="node46" class="node">
<title>Node46</title>
<g id="a_node46"><a xlink:title=" ">
<polygon fill="#e0e0e0" stroke="#999999" points="583.5,-151 527.5,-151 527.5,-132 583.5,-132 583.5,-151"/>
<text text-anchor="middle" x="555.5" y="-139" font-family="Helvetica,sans-Serif" font-size="10.00">numeric</text>
</a>
</g>
</g>
<!-- Node43&#45;&gt;Node46 -->
<g id="edge52" class="edge">
<title>Node43&#45;&gt;Node46</title>
<path fill="none" stroke="#63b8ff" d="M552.16,-186.75C552.68,-179.8 553.44,-169.85 554.09,-161.13"/>
<polygon fill="#63b8ff" stroke="#63b8ff" points="557.59,-161.32 554.85,-151.09 550.61,-160.8 557.59,-161.32"/>
</g>
</g>
</svg>
        <g id="navigator" transform="translate(0 0)" fill="#404254">
                <rect fill="#f2f5e9" fill-opacity="0.5" stroke="#606060" stroke-width=".5" x="0" y="0" width="60" height="60"/>
                <use id="zoomplus" xlink:href="#zoomPlus" x="17" y="9" onmousedown="handleZoom(evt,'in')"/>
                <use id="zoomminus" xlink:href="#zoomMin" x="42" y="9" onmousedown="handleZoom(evt,'out')"/>
                <use id="reset" xlink:href="#resetDef" x="30" y="36" onmousedown="handleReset()"/>
                <g id="arrowUp" xlink:href="#dirArrow" transform="translate(30 24)" onmousedown="handlePan(0,-1)">
                  <use xlink:href="#rim" fill="#404040">
                        <set attributeName="fill" to="#808080" begin="arrowUp.mouseover" end="arrowUp.mouseout"/>
                  </use>
                  <path fill="none" stroke="white" stroke-width="1.5" d="M0,-3.0v7 M-2.5,-0.5L0,-3.0L2.5,-0.5"/>
                </g>
                <g id="arrowRight" xlink:href="#dirArrow" transform="rotate(90) translate(36 -43)" onmousedown="handlePan(1,0)">
                  <use xlink:href="#rim" fill="#404040">
                        <set attributeName="fill" to="#808080" begin="arrowRight.mouseover" end="arrowRight.mouseout"/>
                  </use>
                  <path fill="none" stroke="white" stroke-width="1.5" d="M0,-3.0v7 M-2.5,-0.5L0,-3.0L2.5,-0.5"/>
                </g>
                <g id="arrowDown" xlink:href="#dirArrow" transform="rotate(180) translate(-30 -48)" onmousedown="handlePan(0,1)">
                  <use xlink:href="#rim" fill="#404040">
                        <set attributeName="fill" to="#808080" begin="arrowDown.mouseover" end="arrowDown.mouseout"/>
                  </use>
                  <path fill="none" stroke="white" stroke-width="1.5" d="M0,-3.0v7 M-2.5,-0.5L0,-3.0L2.5,-0.5"/>
                </g>
                <g id="arrowLeft" xlink:href="#dirArrow" transform="rotate(270) translate(-36 17)" onmousedown="handlePan(-1,0)">
                  <use xlink:href="#rim" fill="#404040">
                        <set attributeName="fill" to="#808080" begin="arrowLeft.mouseover" end="arrowLeft.mouseout"/>
                  </use>
                  <path fill="none" stroke="white" stroke-width="1.5" d="M0,-3.0v7 M-2.5,-0.5L0,-3.0L2.5,-0.5"/>
                </g>
        </g>
        <svg viewBox="0 0 15 15" width="100%" height="30px" preserveAspectRatio="xMaxYMin meet">
         <g id="arrow_out" transform="scale(0.3 0.3)">
          <a xlink:href="_move__always_8hpp__incl_org.svg" target="_base">
           <rect id="button" ry="5" rx="5" y="6" x="6" height="38" width="38"
                fill="#f2f5e9" fill-opacity="0.5" stroke="#606060" stroke-width="1.0"/>
           <path id="arrow"
             d="M 11.500037,31.436501 C 11.940474,20.09759 22.043105,11.32322 32.158766,21.979434 L 37.068811,17.246167 C 37.068811,17.246167 37.088388,32 37.088388,32 L 22.160133,31.978069 C 22.160133,31.978069 26.997745,27.140456 26.997745,27.140456 C 18.528582,18.264221 13.291696,25.230495 11.500037,31.436501 z"
             style="fill:#404040;"/>
          </a>
         </g>
        </svg>
</svg>
