<?xml version="1.0" encoding="UTF-8" standalone="no"?>
<!DOCTYPE svg PUBLIC "-//W3C//DTD SVG 1.1//EN"
 "http://www.w3.org/Graphics/SVG/1.1/DTD/svg11.dtd">
<!-- Generated by graphviz version 2.43.0 (0)
 -->
<!-- Title: include/Move_command.hpp Pages: 1 -->
<!--zoomable 445 -->
<svg id="main" version="1.1" xmlns="http://www.w3.org/2000/svg" xmlns:xlink="http://www.w3.org/1999/xlink" xml:space="preserve" onload="init(evt)">
<style type="text/css"><![CDATA[
.edge:hover path { stroke: red; }
.edge:hover polygon { stroke: red; fill: red; }
]]></style>
<script type="text/javascript"><![CDATA[
var edges = document.getElementsByTagName('g');
if (edges && edges.length) {
  for (var i=0;i<edges.length;i++) {
    if (edges[i].id.substr(0,4)=='edge') {
      edges[i].setAttribute('class','edge');
    }
  }
}
]]></script>
        <defs>
                <circle id="rim" cx="0" cy="0" r="7"/>
                <circle id="rim2" cx="0" cy="0" r="3.5"/>
                <g id="zoomPlus">
                        <use xlink:href="#rim" fill="#404040">
                                <set attributeName="fill" to="#808080" begin="zoomplus.mouseover" end="zoomplus.mouseout"/>
                        </use>
                        <path d="M-4,0h8M0,-4v8" fill="none" stroke="white" stroke-width="1.5" pointer-events="none"/>
                </g>
                <g id="zoomMin">
                        <use xlink:href="#rim" fill="#404040">
                                <set attributeName="fill" to="#808080" begin="zoomminus.mouseover" end="zoomminus.mouseout"/>
                        </use>
                        <path d="M-4,0h8" fill="none" stroke="white" stroke-width="1.5" pointer-events="none"/>
                </g>
                <g id="dirArrow">
                        <path fill="none" stroke="white" stroke-width="1.5" d="M0,-3.0v7 M-2.5,-0.5L0,-3.0L2.5,-0.5"/>
                </g>
               <g id="resetDef">
                       <use xlink:href="#rim2" fill="#404040">
                               <set attributeName="fill" to="#808080" begin="reset.mouseover" end="reset.mouseout"/>
                       </use>
               </g>
        </defs>

<script type="text/javascript">
var viewWidth = 2250;
var viewHeight = 445;
var sectionId = 'dynsection-0';
</script>
<script xlink:href="svgpan.js"/>
<svg id="graph" class="graph">
<g id="viewport">
<title>include/Move_command.hpp</title>
<!-- Node1 -->
<g id="node1" class="node">
<title>Node1</title>
<g id="a_node1"><a xlink:title="Do ergodic moves using the Command pattern.">
<polygon fill="#999999" stroke="#666666" points="1066,-437 909,-437 909,-418 1066,-418 1066,-437"/>
<text text-anchor="middle" x="987.5" y="-425" font-family="Helvetica,sans-Serif" font-size="10.00">include/Move_command.hpp</text>
</a>
</g>
</g>
<!-- Node2 -->
<g id="node2" class="node">
<title>Node2</title>
<g id="a_node2"><a xlink:href="_apply__move_8hpp.html" target="_top" xlink:title="Apply Pachner moves to foliated Delaunay triangulations.">
<polygon fill="white" stroke="#666666" points="991.5,-217 893.5,-217 893.5,-198 991.5,-198 991.5,-217"/>
<text text-anchor="middle" x="942.5" y="-205" font-family="Helvetica,sans-Serif" font-size="10.00">Apply_move.hpp</text>
</a>
</g>
</g>
<!-- Node1&#45;&gt;Node2 -->
<g id="edge1" class="edge">
<title>Node1&#45;&gt;Node2</title>
<path fill="none" stroke="#63b8ff" d="M981.21,-417.78C975.33,-409.15 966.82,-395.32 962.5,-382 944.94,-327.79 942.38,-259.68 942.27,-227.28"/>
<polygon fill="#63b8ff" stroke="#63b8ff" points="945.77,-227.07 942.31,-217.06 938.77,-227.04 945.77,-227.07"/>
</g>
<!-- Node9 -->
<g id="node9" class="node">
<title>Node9</title>
<g id="a_node9"><a xlink:href="_ergodic__moves__3_8hpp.html" target="_top" xlink:title="Pachner moves on 2+1 dimensional foliated Delaunay triangulations.">
<polygon fill="white" stroke="#666666" points="1094,-382 971,-382 971,-363 1094,-363 1094,-382"/>
<text text-anchor="middle" x="1032.5" y="-370" font-family="Helvetica,sans-Serif" font-size="10.00">Ergodic_moves_3.hpp</text>
</a>
</g>
</g>
<!-- Node1&#45;&gt;Node9 -->
<g id="edge8" class="edge">
<title>Node1&#45;&gt;Node9</title>
<path fill="none" stroke="#63b8ff" d="M994.93,-417.75C1001.35,-410.18 1010.81,-399.05 1018.62,-389.84"/>
<polygon fill="#63b8ff" stroke="#63b8ff" points="1021.4,-391.98 1025.21,-382.09 1016.07,-387.45 1021.4,-391.98"/>
</g>
<!-- Node3 -->
<g id="node3" class="node">
<title>Node3</title>
<g id="a_node3"><a xlink:title=" ">
<polygon fill="#e0e0e0" stroke="#999999" points="1027,-85 934,-85 934,-66 1027,-66 1027,-85"/>
<text text-anchor="middle" x="980.5" y="-73" font-family="Helvetica,sans-Serif" font-size="10.00">spdlog/spdlog.h</text>
</a>
</g>
</g>
<!-- Node2&#45;&gt;Node3 -->
<g id="edge2" class="edge">
<title>Node2&#45;&gt;Node3</title>
<path fill="none" stroke="#63b8ff" d="M938.13,-197.94C931.51,-183.77 920.63,-154.75 929.5,-132 935.77,-115.91 949.13,-101.66 960.6,-91.63"/>
<polygon fill="#63b8ff" stroke="#63b8ff" points="963.02,-94.17 968.49,-85.1 958.56,-88.78 963.02,-94.17"/>
</g>
<!-- Node4 -->
<g id="node4" class="node">
<title>Node4</title>
<g id="a_node4"><a xlink:title=" ">
<polygon fill="#e0e0e0" stroke="#999999" points="877.5,-162 751.5,-162 751.5,-132 877.5,-132 877.5,-162"/>
<text text-anchor="start" x="759.5" y="-150" font-family="Helvetica,sans-Serif" font-size="10.00">boost/compat/function</text>
<text text-anchor="middle" x="814.5" y="-139" font-family="Helvetica,sans-Serif" font-size="10.00">_ref.hpp</text>
</a>
</g>
</g>
<!-- Node2&#45;&gt;Node4 -->
<g id="edge3" class="edge">
<title>Node2&#45;&gt;Node4</title>
<path fill="none" stroke="#63b8ff" d="M923.89,-197.99C905.85,-189.75 877.9,-176.98 854.77,-166.4"/>
<polygon fill="#63b8ff" stroke="#63b8ff" points="856.07,-163.15 845.52,-162.18 853.16,-169.52 856.07,-163.15"/>
</g>
<!-- Node5 -->
<g id="node5" class="node">
<title>Node5</title>
<g id="a_node5"><a xlink:title=" ">
<polygon fill="#e0e0e0" stroke="#999999" points="733.5,-156.5 671.5,-156.5 671.5,-137.5 733.5,-137.5 733.5,-156.5"/>
<text text-anchor="middle" x="702.5" y="-144.5" font-family="Helvetica,sans-Serif" font-size="10.00">expected</text>
</a>
</g>
</g>
<!-- Node2&#45;&gt;Node5 -->
<g id="edge4" class="edge">
<title>Node2&#45;&gt;Node5</title>
<path fill="none" stroke="#63b8ff" d="M896.84,-197.93C856.05,-189.91 794.84,-176.93 742.5,-162 740.09,-161.31 737.6,-160.56 735.12,-159.77"/>
<polygon fill="#63b8ff" stroke="#63b8ff" points="736.21,-156.44 725.62,-156.61 734,-163.09 736.21,-156.44"/>
</g>
<!-- Node6 -->
<g id="node6" class="node">
<title>Node6</title>
<g id="a_node6"><a xlink:title=" ">
<polygon fill="#e0e0e0" stroke="#999999" points="1100,-156.5 1035,-156.5 1035,-137.5 1100,-137.5 1100,-156.5"/>
<text text-anchor="middle" x="1067.5" y="-144.5" font-family="Helvetica,sans-Serif" font-size="10.00">functional</text>
</a>
</g>
</g>
<!-- Node2&#45;&gt;Node6 -->
<g id="edge5" class="edge">
<title>Node2&#45;&gt;Node6</title>
<path fill="none" stroke="#63b8ff" d="M960.68,-197.99C981.51,-188.25 1015.87,-172.16 1039.98,-160.88"/>
<polygon fill="#63b8ff" stroke="#63b8ff" points="1041.73,-163.93 1049.3,-156.52 1038.76,-157.59 1041.73,-163.93"/>
</g>
<!-- Node7 -->
<g id="node7" class="node">
<title>Node7</title>
<g id="a_node7"><a xlink:title=" ">
<polygon fill="#e0e0e0" stroke="#999999" points="1089.5,-85 1045.5,-85 1045.5,-66 1089.5,-66 1089.5,-85"/>
<text text-anchor="middle" x="1067.5" y="-73" font-family="Helvetica,sans-Serif" font-size="10.00">string</text>
</a>
</g>
</g>
<!-- Node2&#45;&gt;Node7 -->
<g id="edge6" class="edge">
<title>Node2&#45;&gt;Node7</title>
<path fill="none" stroke="#63b8ff" d="M942.74,-197.63C943.59,-182.5 947.35,-151.42 963.5,-132 986.63,-104.19 1004.93,-113.65 1036.5,-96 1039.5,-94.32 1042.61,-92.49 1045.65,-90.63"/>
<polygon fill="#63b8ff" stroke="#63b8ff" points="1047.79,-93.43 1054.41,-85.16 1044.07,-87.49 1047.79,-93.43"/>
</g>
<!-- Node8 -->
<g id="node8" class="node">
<title>Node8</title>
<g id="a_node8"><a xlink:title=" ">
<polygon fill="#e0e0e0" stroke="#999999" points="1017,-156.5 972,-156.5 972,-137.5 1017,-137.5 1017,-156.5"/>
<text text-anchor="middle" x="994.5" y="-144.5" font-family="Helvetica,sans-Serif" font-size="10.00">utility</text>
</a>
</g>
</g>
<!-- Node2&#45;&gt;Node8 -->
<g id="edge7" class="edge">
<title>Node2&#45;&gt;Node8</title>
<path fill="none" stroke="#63b8ff" d="M950.17,-197.87C958.01,-189.05 970.36,-175.16 980.04,-164.27"/>
<polygon fill="#63b8ff" stroke="#63b8ff" points="982.77,-166.47 986.8,-156.67 977.54,-161.82 982.77,-166.47"/>
</g>
<!-- Node9&#45;&gt;Node5 -->
<g id="edge9" class="edge">
<title>Node9&#45;&gt;Node5</title>
<path fill="none" stroke="#63b8ff" d="M1019.56,-362.74C969.25,-328.66 786.29,-204.75 723.68,-162.35"/>
<polygon fill="#63b8ff" stroke="#63b8ff" points="725.59,-159.41 715.35,-156.7 721.66,-165.21 725.59,-159.41"/>
</g>
<!-- Node10 -->
<g id="node10" class="node">
<title>Node10</title>
<g id="a_node10"><a xlink:href="_formatters_8hpp.html" target="_top" xlink:title="Formatter specializations for various types.">
<polygon fill="white" stroke="#666666" points="760,-327 669,-327 669,-308 760,-308 760,-327"/>
<text text-anchor="middle" x="714.5" y="-315" font-family="Helvetica,sans-Serif" font-size="10.00">Formatters.hpp</text>
</a>
</g>
</g>
<!-- Node9&#45;&gt;Node10 -->
<g id="edge10" class="edge">
<title>Node9&#45;&gt;Node10</title>
<path fill="none" stroke="#63b8ff" d="M981.41,-362.98C923.57,-353.34 829.66,-337.69 770.04,-327.76"/>
<polygon fill="#63b8ff" stroke="#63b8ff" points="770.49,-324.28 760.05,-326.09 769.34,-331.19 770.49,-324.28"/>
</g>
<!-- Node23 -->
<g id="node23" class="node">
<title>Node23</title>
<g id="a_node23"><a xlink:href="_manifold_8hpp.html" target="_top" xlink:title="Data structures for manifolds.">
<polygon fill="white" stroke="#666666" points="1358.5,-327 1278.5,-327 1278.5,-308 1358.5,-308 1358.5,-327"/>
<text text-anchor="middle" x="1318.5" y="-315" font-family="Helvetica,sans-Serif" font-size="10.00">Manifold.hpp</text>
</a>
</g>
</g>
<!-- Node9&#45;&gt;Node23 -->
<g id="edge23" class="edge">
<title>Node9&#45;&gt;Node23</title>
<path fill="none" stroke="#63b8ff" d="M1078.45,-362.98C1130.37,-353.36 1214.61,-337.75 1268.24,-327.81"/>
<polygon fill="#63b8ff" stroke="#63b8ff" points="1269.02,-331.23 1278.21,-325.97 1267.74,-324.35 1269.02,-331.23"/>
</g>
<!-- Node46 -->
<g id="node46" class="node">
<title>Node46</title>
<g id="a_node46"><a xlink:href="_move__tracker_8hpp.html" target="_top" xlink:title="Track ergodic moves.">
<polygon fill="white" stroke="#666666" points="1683,-217 1580,-217 1580,-198 1683,-198 1683,-217"/>
<text text-anchor="middle" x="1631.5" y="-205" font-family="Helvetica,sans-Serif" font-size="10.00">Move_tracker.hpp</text>
</a>
</g>
</g>
<!-- Node9&#45;&gt;Node46 -->
<g id="edge55" class="edge">
<title>Node9&#45;&gt;Node46</title>
<path fill="none" stroke="#63b8ff" d="M1094.1,-368.66C1162.13,-364.31 1274.38,-353.47 1367.5,-327 1460.44,-300.58 1562.73,-246.98 1607.87,-221.94"/>
<polygon fill="#63b8ff" stroke="#63b8ff" points="1609.59,-224.99 1616.61,-217.06 1606.18,-218.88 1609.59,-224.99"/>
</g>
<!-- Node11 -->
<g id="node11" class="node">
<title>Node11</title>
<g id="a_node11"><a xlink:title=" ">
<polygon fill="#e0e0e0" stroke="#999999" points="828,-272 761,-272 761,-253 828,-253 828,-272"/>
<text text-anchor="middle" x="794.5" y="-260" font-family="Helvetica,sans-Serif" font-size="10.00">fmt/core.h</text>
</a>
</g>
</g>
<!-- Node10&#45;&gt;Node11 -->
<g id="edge11" class="edge">
<title>Node10&#45;&gt;Node11</title>
<path fill="none" stroke="#63b8ff" d="M727.35,-307.98C739.64,-299.84 758.41,-287.41 772.98,-277.76"/>
<polygon fill="#63b8ff" stroke="#63b8ff" points="775.01,-280.61 781.41,-272.17 771.14,-274.78 775.01,-280.61"/>
</g>
<!-- Node12 -->
<g id="node12" class="node">
<title>Node12</title>
<g id="a_node12"><a xlink:title=" ">
<polygon fill="#e0e0e0" stroke="#999999" points="669,-272 590,-272 590,-253 669,-253 669,-272"/>
<text text-anchor="middle" x="629.5" y="-260" font-family="Helvetica,sans-Serif" font-size="10.00">fmt/format.h</text>
</a>
</g>
</g>
<!-- Node10&#45;&gt;Node12 -->
<g id="edge12" class="edge">
<title>Node10&#45;&gt;Node12</title>
<path fill="none" stroke="#63b8ff" d="M700.84,-307.98C687.66,-299.77 667.47,-287.18 651.93,-277.49"/>
<polygon fill="#63b8ff" stroke="#63b8ff" points="653.74,-274.49 643.41,-272.17 650.04,-280.43 653.74,-274.49"/>
</g>
<!-- Node13 -->
<g id="node13" class="node">
<title>Node13</title>
<g id="a_node13"><a xlink:title=" ">
<polygon fill="#e0e0e0" stroke="#999999" points="742.5,-272 686.5,-272 686.5,-253 742.5,-253 742.5,-272"/>
<text text-anchor="middle" x="714.5" y="-260" font-family="Helvetica,sans-Serif" font-size="10.00">sstream</text>
</a>
</g>
</g>
<!-- Node10&#45;&gt;Node13 -->
<g id="edge13" class="edge">
<title>Node10&#45;&gt;Node13</title>
<path fill="none" stroke="#63b8ff" d="M714.5,-307.75C714.5,-300.8 714.5,-290.85 714.5,-282.13"/>
<polygon fill="#63b8ff" stroke="#63b8ff" points="718,-282.09 714.5,-272.09 711,-282.09 718,-282.09"/>
</g>
<!-- Node14 -->
<g id="node14" class="node">
<title>Node14</title>
<g id="a_node14"><a xlink:href="_triangulation__traits_8hpp.html" target="_top" xlink:title="Traits class for particular uses of CGAL.">
<polygon fill="white" stroke="#666666" points="613,-156.5 482,-156.5 482,-137.5 613,-137.5 613,-156.5"/>
<text text-anchor="middle" x="547.5" y="-144.5" font-family="Helvetica,sans-Serif" font-size="10.00">Triangulation_traits.hpp</text>
</a>
</g>
</g>
<!-- Node10&#45;&gt;Node14 -->
<g id="edge14" class="edge">
<title>Node10&#45;&gt;Node14</title>
<path fill="none" stroke="#63b8ff" d="M668.83,-312.34C639.74,-307.32 603.35,-296.28 580.5,-272 553.1,-242.89 547.9,-193.66 547.24,-166.83"/>
<polygon fill="#63b8ff" stroke="#63b8ff" points="550.74,-166.5 547.19,-156.52 543.74,-166.54 550.74,-166.5"/>
</g>
<!-- Node15 -->
<g id="node15" class="node">
<title>Node15</title>
<g id="a_node15"><a xlink:title=" ">
<polygon fill="#e0e0e0" stroke="#999999" points="820.5,-85 640.5,-85 640.5,-66 820.5,-66 820.5,-85"/>
<text text-anchor="middle" x="730.5" y="-73" font-family="Helvetica,sans-Serif" font-size="10.00">CGAL/Delaunay_triangulation_3.h</text>
</a>
</g>
</g>
<!-- Node14&#45;&gt;Node15 -->
<g id="edge15" class="edge">
<title>Node14&#45;&gt;Node15</title>
<path fill="none" stroke="#63b8ff" d="M569.94,-137.48C602.04,-125.29 661.27,-102.79 698.12,-88.8"/>
<polygon fill="#63b8ff" stroke="#63b8ff" points="699.77,-91.91 707.88,-85.09 697.29,-85.37 699.77,-91.91"/>
</g>
<!-- Node16 -->
<g id="node16" class="node">
<title>Node16</title>
<g id="a_node16"><a xlink:title=" ">
<polygon fill="#e0e0e0" stroke="#999999" points="129,-96 0,-96 0,-55 129,-55 129,-96"/>
<text text-anchor="start" x="8" y="-84" font-family="Helvetica,sans-Serif" font-size="10.00">CGAL/Exact_predicates</text>
<text text-anchor="start" x="8" y="-73" font-family="Helvetica,sans-Serif" font-size="10.00">_inexact_constructions</text>
<text text-anchor="middle" x="64.5" y="-62" font-family="Helvetica,sans-Serif" font-size="10.00">_kernel.h</text>
</a>
</g>
</g>
<!-- Node14&#45;&gt;Node16 -->
<g id="edge16" class="edge">
<title>Node14&#45;&gt;Node16</title>
<path fill="none" stroke="#63b8ff" d="M481.73,-140.83C402.44,-133.96 265.08,-120.03 139.09,-96.19"/>
<polygon fill="#63b8ff" stroke="#63b8ff" points="139.75,-92.75 129.27,-94.3 138.43,-99.63 139.75,-92.75"/>
</g>
<!-- Node17 -->
<g id="node17" class="node">
<title>Node17</title>
<g id="a_node17"><a xlink:title=" ">
<polygon fill="#e0e0e0" stroke="#999999" points="296,-85 147,-85 147,-66 296,-66 296,-85"/>
<text text-anchor="middle" x="221.5" y="-73" font-family="Helvetica,sans-Serif" font-size="10.00">CGAL/point_generators_3.h</text>
</a>
</g>
</g>
<!-- Node14&#45;&gt;Node17 -->
<g id="edge17" class="edge">
<title>Node14&#45;&gt;Node17</title>
<path fill="none" stroke="#63b8ff" d="M504.59,-137.46C456.17,-127.75 375.06,-111.26 305.5,-96 293.16,-93.29 279.83,-90.25 267.5,-87.39"/>
<polygon fill="#63b8ff" stroke="#63b8ff" points="267.96,-83.91 257.43,-85.04 266.37,-90.72 267.96,-83.91"/>
</g>
<!-- Node18 -->
<g id="node18" class="node">
<title>Node18</title>
<g id="a_node18"><a xlink:title=" ">
<polygon fill="#e0e0e0" stroke="#999999" points="452.5,-90.5 314.5,-90.5 314.5,-60.5 452.5,-60.5 452.5,-90.5"/>
<text text-anchor="start" x="322.5" y="-78.5" font-family="Helvetica,sans-Serif" font-size="10.00">CGAL/Triangulation</text>
<text text-anchor="middle" x="383.5" y="-67.5" font-family="Helvetica,sans-Serif" font-size="10.00">_cell_base_with_info_3.h</text>
</a>
</g>
</g>
<!-- Node14&#45;&gt;Node18 -->
<g id="edge18" class="edge">
<title>Node14&#45;&gt;Node18</title>
<path fill="none" stroke="#63b8ff" d="M527.39,-137.48C502.25,-126.82 458.54,-108.3 425.87,-94.46"/>
<polygon fill="#63b8ff" stroke="#63b8ff" points="427.13,-91.19 416.55,-90.51 424.39,-97.63 427.13,-91.19"/>
</g>
<!-- Node19 -->
<g id="node19" class="node">
<title>Node19</title>
<g id="a_node19"><a xlink:title=" ">
<polygon fill="#e0e0e0" stroke="#999999" points="622.5,-90.5 470.5,-90.5 470.5,-60.5 622.5,-60.5 622.5,-90.5"/>
<text text-anchor="start" x="478.5" y="-78.5" font-family="Helvetica,sans-Serif" font-size="10.00">CGAL/Triangulation</text>
<text text-anchor="middle" x="546.5" y="-67.5" font-family="Helvetica,sans-Serif" font-size="10.00">_vertex_base_with_info_3.h</text>
</a>
</g>
</g>
<!-- Node14&#45;&gt;Node19 -->
<g id="edge19" class="edge">
<title>Node14&#45;&gt;Node19</title>
<path fill="none" stroke="#63b8ff" d="M547.38,-137.48C547.25,-128.36 547.03,-113.48 546.85,-100.7"/>
<polygon fill="#63b8ff" stroke="#63b8ff" points="550.35,-100.59 546.7,-90.64 543.35,-100.69 550.35,-100.59"/>
</g>
<!-- Node20 -->
<g id="node20" class="node">
<title>Node20</title>
<g id="a_node20"><a xlink:href="_settings_8hpp.html" target="_top" xlink:title="Global integer and precision settings.">
<polygon fill="white" stroke="#666666" points="916,-85 839,-85 839,-66 916,-66 916,-85"/>
<text text-anchor="middle" x="877.5" y="-73" font-family="Helvetica,sans-Serif" font-size="10.00">Settings.hpp</text>
</a>
</g>
</g>
<!-- Node14&#45;&gt;Node20 -->
<g id="edge20" class="edge">
<title>Node14&#45;&gt;Node20</title>
<path fill="none" stroke="#63b8ff" d="M613.07,-138.35C670.8,-130.68 756.76,-116.97 829.5,-96 836.08,-94.1 842.99,-91.61 849.45,-89.04"/>
<polygon fill="#63b8ff" stroke="#63b8ff" points="851.24,-92.09 859.13,-85.02 848.55,-85.63 851.24,-92.09"/>
</g>
<!-- Node21 -->
<g id="node21" class="node">
<title>Node21</title>
<g id="a_node21"><a xlink:title=" ">
<polygon fill="#e0e0e0" stroke="#999999" points="890.5,-19 750.5,-19 750.5,0 890.5,0 890.5,-19"/>
<text text-anchor="middle" x="820.5" y="-7" font-family="Helvetica,sans-Serif" font-size="10.00">CGAL/GMP/Gmpzf_type.h</text>
</a>
</g>
</g>
<!-- Node20&#45;&gt;Node21 -->
<g id="edge21" class="edge">
<title>Node20&#45;&gt;Node21</title>
<path fill="none" stroke="#63b8ff" d="M869.81,-65.87C861.02,-56 846.43,-39.61 835.39,-27.22"/>
<polygon fill="#63b8ff" stroke="#63b8ff" points="837.7,-24.55 828.43,-19.41 832.47,-29.2 837.7,-24.55"/>
</g>
<!-- Node22 -->
<g id="node22" class="node">
<title>Node22</title>
<g id="a_node22"><a xlink:title=" ">
<polygon fill="#e0e0e0" stroke="#999999" points="958.5,-19 908.5,-19 908.5,0 958.5,0 958.5,-19"/>
<text text-anchor="middle" x="933.5" y="-7" font-family="Helvetica,sans-Serif" font-size="10.00">cstdint</text>
</a>
</g>
</g>
<!-- Node20&#45;&gt;Node22 -->
<g id="edge22" class="edge">
<title>Node20&#45;&gt;Node22</title>
<path fill="none" stroke="#63b8ff" d="M885.05,-65.87C893.69,-56 908.03,-39.61 918.87,-27.22"/>
<polygon fill="#63b8ff" stroke="#63b8ff" points="921.76,-29.24 925.71,-19.41 916.49,-24.63 921.76,-29.24"/>
</g>
<!-- Node24 -->
<g id="node24" class="node">
<title>Node24</title>
<g id="a_node24"><a xlink:title=" ">
<polygon fill="#e0e0e0" stroke="#999999" points="1495,-156.5 1442,-156.5 1442,-137.5 1495,-137.5 1495,-156.5"/>
<text text-anchor="middle" x="1468.5" y="-144.5" font-family="Helvetica,sans-Serif" font-size="10.00">cstddef</text>
</a>
</g>
</g>
<!-- Node23&#45;&gt;Node24 -->
<g id="edge24" class="edge">
<title>Node23&#45;&gt;Node24</title>
<path fill="none" stroke="#63b8ff" d="M1335.8,-308C1350.69,-300.1 1372.13,-287.28 1387.5,-272 1420.2,-239.49 1446.83,-191.7 1459.85,-165.97"/>
<polygon fill="#63b8ff" stroke="#63b8ff" points="1463.14,-167.21 1464.44,-156.69 1456.87,-164.1 1463.14,-167.21"/>
</g>
<!-- Node25 -->
<g id="node25" class="node">
<title>Node25</title>
<g id="a_node25"><a xlink:title=" ">
<polygon fill="#e0e0e0" stroke="#999999" points="1424,-156.5 1355,-156.5 1355,-137.5 1424,-137.5 1424,-156.5"/>
<text text-anchor="middle" x="1389.5" y="-144.5" font-family="Helvetica,sans-Serif" font-size="10.00">type_traits</text>
</a>
</g>
</g>
<!-- Node23&#45;&gt;Node25 -->
<g id="edge25" class="edge">
<title>Node23&#45;&gt;Node25</title>
<path fill="none" stroke="#63b8ff" d="M1333.41,-307.94C1345.47,-300.18 1361.84,-287.58 1370.5,-272 1389.13,-238.49 1391.12,-192.43 1390.55,-166.93"/>
<polygon fill="#63b8ff" stroke="#63b8ff" points="1394.04,-166.63 1390.16,-156.78 1387.05,-166.9 1394.04,-166.63"/>
</g>
<!-- Node26 -->
<g id="node26" class="node">
<title>Node26</title>
<g id="a_node26"><a xlink:title=" ">
<polygon fill="#e0e0e0" stroke="#999999" points="1361.5,-272 1275.5,-272 1275.5,-253 1361.5,-253 1361.5,-272"/>
<text text-anchor="middle" x="1318.5" y="-260" font-family="Helvetica,sans-Serif" font-size="10.00">unordered_set</text>
</a>
</g>
</g>
<!-- Node23&#45;&gt;Node26 -->
<g id="edge26" class="edge">
<title>Node23&#45;&gt;Node26</title>
<path fill="none" stroke="#63b8ff" d="M1318.5,-307.75C1318.5,-300.8 1318.5,-290.85 1318.5,-282.13"/>
<polygon fill="#63b8ff" stroke="#63b8ff" points="1322,-282.09 1318.5,-272.09 1315,-282.09 1322,-282.09"/>
</g>
<!-- Node27 -->
<g id="node27" class="node">
<title>Node27</title>
<g id="a_node27"><a xlink:href="_geometry_8hpp.html" target="_top" xlink:title="Geometric scalars of the Manifold used to calculate the Regge action.">
<polygon fill="white" stroke="#666666" points="1257,-272 1172,-272 1172,-253 1257,-253 1257,-272"/>
<text text-anchor="middle" x="1214.5" y="-260" font-family="Helvetica,sans-Serif" font-size="10.00">Geometry.hpp</text>
</a>
</g>
</g>
<!-- Node23&#45;&gt;Node27 -->
<g id="edge27" class="edge">
<title>Node23&#45;&gt;Node27</title>
<path fill="none" stroke="#63b8ff" d="M1301.79,-307.98C1285.29,-299.57 1259.8,-286.59 1240.62,-276.81"/>
<polygon fill="#63b8ff" stroke="#63b8ff" points="1242.01,-273.59 1231.51,-272.17 1238.83,-279.83 1242.01,-273.59"/>
</g>
<!-- Node27&#45;&gt;Node25 -->
<g id="edge28" class="edge">
<title>Node27&#45;&gt;Node25</title>
<path fill="none" stroke="#63b8ff" d="M1227.74,-252.99C1241.64,-244.04 1264.12,-229.56 1283.5,-217 1312.72,-198.07 1346.4,-176.12 1367.81,-162.16"/>
<polygon fill="#63b8ff" stroke="#63b8ff" points="1369.99,-164.91 1376.46,-156.52 1366.17,-159.05 1369.99,-164.91"/>
</g>
<!-- Node28 -->
<g id="node28" class="node">
<title>Node28</title>
<g id="a_node28"><a xlink:href="_foliated__triangulation_8hpp.html" target="_top" xlink:title="Create foliated spherical triangulations.">
<polygon fill="white" stroke="#666666" points="1274.5,-217 1130.5,-217 1130.5,-198 1274.5,-198 1274.5,-217"/>
<text text-anchor="middle" x="1202.5" y="-205" font-family="Helvetica,sans-Serif" font-size="10.00">Foliated_triangulation.hpp</text>
</a>
</g>
</g>
<!-- Node27&#45;&gt;Node28 -->
<g id="edge29" class="edge">
<title>Node27&#45;&gt;Node28</title>
<path fill="none" stroke="#63b8ff" d="M1212.52,-252.75C1210.93,-245.72 1208.64,-235.62 1206.65,-226.84"/>
<polygon fill="#63b8ff" stroke="#63b8ff" points="1210.07,-226.07 1204.44,-217.09 1203.24,-227.62 1210.07,-226.07"/>
</g>
<!-- Node28&#45;&gt;Node6 -->
<g id="edge32" class="edge">
<title>Node28&#45;&gt;Node6</title>
<path fill="none" stroke="#63b8ff" d="M1182.87,-197.99C1160.17,-188.16 1122.6,-171.88 1096.53,-160.58"/>
<polygon fill="#63b8ff" stroke="#63b8ff" points="1097.72,-157.28 1087.15,-156.52 1094.94,-163.7 1097.72,-157.28"/>
</g>
<!-- Node28&#45;&gt;Node8 -->
<g id="edge36" class="edge">
<title>Node28&#45;&gt;Node8</title>
<path fill="none" stroke="#63b8ff" d="M1160.69,-197.97C1124.67,-190.13 1071.52,-177.42 1026.5,-162 1025.07,-161.51 1023.61,-160.98 1022.14,-160.43"/>
<polygon fill="#63b8ff" stroke="#63b8ff" points="1023.15,-157.06 1012.57,-156.52 1020.51,-163.54 1023.15,-157.06"/>
</g>
<!-- Node28&#45;&gt;Node14 -->
<g id="edge37" class="edge">
<title>Node28&#45;&gt;Node14</title>
<path fill="none" stroke="#63b8ff" d="M1130.36,-201.45C1026.73,-194 829.78,-179.07 662.5,-162 649.74,-160.7 636.21,-159.18 623.08,-157.63"/>
<polygon fill="#63b8ff" stroke="#63b8ff" points="623.47,-154.15 613.13,-156.44 622.64,-161.1 623.47,-154.15"/>
</g>
<!-- Node28&#45;&gt;Node25 -->
<g id="edge35" class="edge">
<title>Node28&#45;&gt;Node25</title>
<path fill="none" stroke="#63b8ff" d="M1230.68,-197.93C1259.74,-189.06 1306.34,-174.74 1346.5,-162 1348.92,-161.23 1351.42,-160.43 1353.94,-159.63"/>
<polygon fill="#63b8ff" stroke="#63b8ff" points="1355.16,-162.91 1363.6,-156.5 1353.01,-156.25 1355.16,-162.91"/>
</g>
<!-- Node29 -->
<g id="node29" class="node">
<title>Node29</title>
<g id="a_node29"><a xlink:title=" ">
<polygon fill="#e0e0e0" stroke="#999999" points="1171.5,-85 1107.5,-85 1107.5,-66 1171.5,-66 1171.5,-85"/>
<text text-anchor="middle" x="1139.5" y="-73" font-family="Helvetica,sans-Serif" font-size="10.00">algorithm</text>
</a>
</g>
</g>
<!-- Node28&#45;&gt;Node29 -->
<g id="edge30" class="edge">
<title>Node28&#45;&gt;Node29</title>
<path fill="none" stroke="#63b8ff" d="M1199.23,-197.62C1193.93,-183.49 1182.91,-155.11 1171.5,-132 1165.09,-119.02 1156.93,-104.89 1150.45,-94.14"/>
<polygon fill="#63b8ff" stroke="#63b8ff" points="1153.27,-92.05 1145.07,-85.34 1147.3,-95.7 1153.27,-92.05"/>
</g>
<!-- Node30 -->
<g id="node30" class="node">
<title>Node30</title>
<g id="a_node30"><a xlink:title=" ">
<polygon fill="#e0e0e0" stroke="#999999" points="1266,-156.5 1219,-156.5 1219,-137.5 1266,-137.5 1266,-156.5"/>
<text text-anchor="middle" x="1242.5" y="-144.5" font-family="Helvetica,sans-Serif" font-size="10.00">cmath</text>
</a>
</g>
</g>
<!-- Node28&#45;&gt;Node30 -->
<g id="edge31" class="edge">
<title>Node28&#45;&gt;Node30</title>
<path fill="none" stroke="#63b8ff" d="M1208.4,-197.87C1214.25,-189.31 1223.37,-175.97 1230.71,-165.24"/>
<polygon fill="#63b8ff" stroke="#63b8ff" points="1233.82,-166.9 1236.57,-156.67 1228.04,-162.95 1233.82,-166.9"/>
</g>
<!-- Node31 -->
<g id="node31" class="node">
<title>Node31</title>
<g id="a_node31"><a xlink:title=" ">
<polygon fill="#e0e0e0" stroke="#999999" points="1337,-156.5 1284,-156.5 1284,-137.5 1337,-137.5 1337,-156.5"/>
<text text-anchor="middle" x="1310.5" y="-144.5" font-family="Helvetica,sans-Serif" font-size="10.00">iterator</text>
</a>
</g>
</g>
<!-- Node28&#45;&gt;Node31 -->
<g id="edge33" class="edge">
<title>Node28&#45;&gt;Node31</title>
<path fill="none" stroke="#63b8ff" d="M1218.44,-197.87C1236.14,-188.28 1264.96,-172.67 1285.64,-161.47"/>
<polygon fill="#63b8ff" stroke="#63b8ff" points="1287.37,-164.51 1294.5,-156.67 1284.04,-158.35 1287.37,-164.51"/>
</g>
<!-- Node32 -->
<g id="node32" class="node">
<title>Node32</title>
<g id="a_node32"><a xlink:title=" ">
<polygon fill="#e0e0e0" stroke="#999999" points="1162.5,-156.5 1118.5,-156.5 1118.5,-137.5 1162.5,-137.5 1162.5,-156.5"/>
<text text-anchor="middle" x="1140.5" y="-144.5" font-family="Helvetica,sans-Serif" font-size="10.00">limits</text>
</a>
</g>
</g>
<!-- Node28&#45;&gt;Node32 -->
<g id="edge34" class="edge">
<title>Node28&#45;&gt;Node32</title>
<path fill="none" stroke="#63b8ff" d="M1193.35,-197.87C1183.83,-188.88 1168.7,-174.61 1157.07,-163.64"/>
<polygon fill="#63b8ff" stroke="#63b8ff" points="1159.36,-160.98 1149.69,-156.67 1154.56,-166.08 1159.36,-160.98"/>
</g>
<!-- Node33 -->
<g id="node33" class="node">
<title>Node33</title>
<g id="a_node33"><a xlink:href="_utilities_8hpp.html" target="_top" xlink:title="Utility functions.">
<polygon fill="white" stroke="#666666" points="1627.5,-156.5 1551.5,-156.5 1551.5,-137.5 1627.5,-137.5 1627.5,-156.5"/>
<text text-anchor="middle" x="1589.5" y="-144.5" font-family="Helvetica,sans-Serif" font-size="10.00">Utilities.hpp</text>
</a>
</g>
</g>
<!-- Node28&#45;&gt;Node33 -->
<g id="edge38" class="edge">
<title>Node28&#45;&gt;Node33</title>
<path fill="none" stroke="#63b8ff" d="M1262.42,-197.98C1323.39,-189.23 1420.59,-175.09 1504.5,-162 1516.51,-160.13 1529.45,-158.03 1541.54,-156.05"/>
<polygon fill="#63b8ff" stroke="#63b8ff" points="1542.14,-159.49 1551.44,-154.41 1541,-152.59 1542.14,-159.49"/>
</g>
<!-- Node33&#45;&gt;Node3 -->
<g id="edge53" class="edge">
<title>Node33&#45;&gt;Node3</title>
<path fill="none" stroke="#63b8ff" d="M1561.65,-137.45C1553.9,-135.36 1545.43,-133.34 1537.5,-132 1317.38,-94.81 1255.14,-141.1 1036.5,-96 1027.9,-94.23 1018.81,-91.47 1010.52,-88.58"/>
<polygon fill="#63b8ff" stroke="#63b8ff" points="1011.47,-85.2 1000.88,-85.05 1009.06,-91.78 1011.47,-85.2"/>
</g>
<!-- Node33&#45;&gt;Node7 -->
<g id="edge47" class="edge">
<title>Node33&#45;&gt;Node7</title>
<path fill="none" stroke="#63b8ff" d="M1561.37,-137.43C1553.69,-135.36 1545.33,-133.36 1537.5,-132 1344.64,-98.42 1284.23,-157.89 1098.5,-96 1094.54,-94.68 1090.58,-92.76 1086.87,-90.62"/>
<polygon fill="#63b8ff" stroke="#63b8ff" points="1088.62,-87.59 1078.32,-85.12 1084.83,-93.48 1088.62,-87.59"/>
</g>
<!-- Node33&#45;&gt;Node20 -->
<g id="edge54" class="edge">
<title>Node33&#45;&gt;Node20</title>
<path fill="none" stroke="#63b8ff" d="M1561.93,-137.46C1554.11,-135.34 1545.53,-133.3 1537.5,-132 1268.55,-88.36 1191.26,-156.08 925.5,-96 918.43,-94.4 911.05,-91.87 904.26,-89.16"/>
<polygon fill="#63b8ff" stroke="#63b8ff" points="905.4,-85.85 894.83,-85.15 902.66,-92.29 905.4,-85.85"/>
</g>
<!-- Node33&#45;&gt;Node29 -->
<g id="edge39" class="edge">
<title>Node33&#45;&gt;Node29</title>
<path fill="none" stroke="#63b8ff" d="M1561.08,-137.46C1553.48,-135.41 1545.22,-133.42 1537.5,-132 1380.66,-103.18 1334.1,-138.88 1180.5,-96 1174.81,-94.41 1168.93,-92.08 1163.47,-89.58"/>
<polygon fill="#63b8ff" stroke="#63b8ff" points="1164.72,-86.29 1154.21,-85.01 1161.63,-92.57 1164.72,-86.29"/>
</g>
<!-- Node34 -->
<g id="node34" class="node">
<title>Node34</title>
<g id="a_node34"><a xlink:title=" ">
<polygon fill="#e0e0e0" stroke="#999999" points="1731.5,-85 1663.5,-85 1663.5,-66 1731.5,-66 1731.5,-85"/>
<text text-anchor="middle" x="1697.5" y="-73" font-family="Helvetica,sans-Serif" font-size="10.00">filesystem</text>
</a>
</g>
</g>
<!-- Node33&#45;&gt;Node34 -->
<g id="edge40" class="edge">
<title>Node33&#45;&gt;Node34</title>
<path fill="none" stroke="#63b8ff" d="M1602.74,-137.48C1620.88,-125.81 1653.68,-104.7 1675.53,-90.64"/>
<polygon fill="#63b8ff" stroke="#63b8ff" points="1677.63,-93.45 1684.15,-85.09 1673.85,-87.56 1677.63,-93.45"/>
</g>
<!-- Node35 -->
<g id="node35" class="node">
<title>Node35</title>
<g id="a_node35"><a xlink:title=" ">
<polygon fill="#e0e0e0" stroke="#999999" points="1805,-85 1750,-85 1750,-66 1805,-66 1805,-85"/>
<text text-anchor="middle" x="1777.5" y="-73" font-family="Helvetica,sans-Serif" font-size="10.00">fstream</text>
</a>
</g>
</g>
<!-- Node33&#45;&gt;Node35 -->
<g id="edge41" class="edge">
<title>Node33&#45;&gt;Node35</title>
<path fill="none" stroke="#63b8ff" d="M1617.03,-137.49C1654.08,-125.92 1717.95,-105.6 1740.5,-96 1744.83,-94.16 1749.33,-92 1753.65,-89.81"/>
<polygon fill="#63b8ff" stroke="#63b8ff" points="1755.45,-92.81 1762.65,-85.05 1752.18,-86.62 1755.45,-92.81"/>
</g>
<!-- Node36 -->
<g id="node36" class="node">
<title>Node36</title>
<g id="a_node36"><a xlink:title=" ">
<polygon fill="#e0e0e0" stroke="#999999" points="1871.5,-85 1823.5,-85 1823.5,-66 1871.5,-66 1871.5,-85"/>
<text text-anchor="middle" x="1847.5" y="-73" font-family="Helvetica,sans-Serif" font-size="10.00">gsl/gsl</text>
</a>
</g>
</g>
<!-- Node33&#45;&gt;Node36 -->
<g id="edge42" class="edge">
<title>Node33&#45;&gt;Node36</title>
<path fill="none" stroke="#63b8ff" d="M1616.72,-137.44C1623.18,-135.54 1630.06,-133.61 1636.5,-132 1714.81,-112.46 1739.15,-124.93 1814.5,-96 1818.44,-94.49 1822.46,-92.53 1826.26,-90.43"/>
<polygon fill="#63b8ff" stroke="#63b8ff" points="1828.35,-93.26 1835.15,-85.13 1824.77,-87.25 1828.35,-93.26"/>
</g>
<!-- Node37 -->
<g id="node37" class="node">
<title>Node37</title>
<g id="a_node37"><a xlink:title=" ">
<polygon fill="#e0e0e0" stroke="#999999" points="1937.5,-85 1889.5,-85 1889.5,-66 1937.5,-66 1937.5,-85"/>
<text text-anchor="middle" x="1913.5" y="-73" font-family="Helvetica,sans-Serif" font-size="10.00">mutex</text>
</a>
</g>
</g>
<!-- Node33&#45;&gt;Node37 -->
<g id="edge43" class="edge">
<title>Node33&#45;&gt;Node37</title>
<path fill="none" stroke="#63b8ff" d="M1615.68,-137.48C1622.41,-135.49 1629.68,-133.51 1636.5,-132 1743.52,-108.29 1777.16,-132.57 1880.5,-96 1884.66,-94.53 1888.89,-92.51 1892.86,-90.32"/>
<polygon fill="#63b8ff" stroke="#63b8ff" points="1894.76,-93.26 1901.52,-85.11 1891.15,-87.26 1894.76,-93.26"/>
</g>
<!-- Node38 -->
<g id="node38" class="node">
<title>Node38</title>
<g id="a_node38"><a xlink:title=" ">
<polygon fill="#e0e0e0" stroke="#999999" points="2009.5,-85 1955.5,-85 1955.5,-66 2009.5,-66 2009.5,-85"/>
<text text-anchor="middle" x="1982.5" y="-73" font-family="Helvetica,sans-Serif" font-size="10.00">random</text>
</a>
</g>
</g>
<!-- Node33&#45;&gt;Node38 -->
<g id="edge44" class="edge">
<title>Node33&#45;&gt;Node38</title>
<path fill="none" stroke="#63b8ff" d="M1615.15,-137.48C1622.03,-135.44 1629.49,-133.44 1636.5,-132 1772.37,-104.1 1814.24,-137.79 1946.5,-96 1951.12,-94.54 1955.84,-92.47 1960.27,-90.23"/>
<polygon fill="#63b8ff" stroke="#63b8ff" points="1962.31,-93.09 1969.37,-85.19 1958.92,-86.97 1962.31,-93.09"/>
</g>
<!-- Node39 -->
<g id="node39" class="node">
<title>Node39</title>
<g id="a_node39"><a xlink:title=" ">
<polygon fill="#e0e0e0" stroke="#999999" points="2241.5,-85 2201.5,-85 2201.5,-66 2241.5,-66 2241.5,-85"/>
<text text-anchor="middle" x="2221.5" y="-73" font-family="Helvetica,sans-Serif" font-size="10.00">span</text>
</a>
</g>
</g>
<!-- Node33&#45;&gt;Node39 -->
<g id="edge45" class="edge">
<title>Node33&#45;&gt;Node39</title>
<path fill="none" stroke="#63b8ff" d="M1614.62,-137.38C1621.62,-135.29 1629.29,-133.29 1636.5,-132 1880.26,-88.38 1958.1,-175.85 2192.5,-96 2196.16,-94.75 2199.8,-92.92 2203.19,-90.86"/>
<polygon fill="#63b8ff" stroke="#63b8ff" points="2205.22,-93.72 2211.48,-85.18 2201.25,-87.95 2205.22,-93.72"/>
</g>
<!-- Node40 -->
<g id="node40" class="node">
<title>Node40</title>
<g id="a_node40"><a xlink:title=" ">
<polygon fill="#e0e0e0" stroke="#999999" points="2093,-85 2028,-85 2028,-66 2093,-66 2093,-85"/>
<text text-anchor="middle" x="2060.5" y="-73" font-family="Helvetica,sans-Serif" font-size="10.00">stdexcept</text>
</a>
</g>
</g>
<!-- Node33&#45;&gt;Node40 -->
<g id="edge46" class="edge">
<title>Node33&#45;&gt;Node40</title>
<path fill="none" stroke="#63b8ff" d="M1615.13,-137.38C1622.01,-135.34 1629.48,-133.36 1636.5,-132 1803.91,-99.5 1853.89,-140.55 2018.5,-96 2024.47,-94.39 2030.64,-91.98 2036.35,-89.41"/>
<polygon fill="#63b8ff" stroke="#63b8ff" points="2037.94,-92.53 2045.42,-85.03 2034.89,-86.23 2037.94,-92.53"/>
</g>
<!-- Node41 -->
<g id="node41" class="node">
<title>Node41</title>
<g id="a_node41"><a xlink:title=" ">
<polygon fill="#e0e0e0" stroke="#999999" points="2183.5,-85 2111.5,-85 2111.5,-66 2183.5,-66 2183.5,-85"/>
<text text-anchor="middle" x="2147.5" y="-73" font-family="Helvetica,sans-Serif" font-size="10.00">date/date.h</text>
</a>
</g>
</g>
<!-- Node33&#45;&gt;Node41 -->
<g id="edge48" class="edge">
<title>Node33&#45;&gt;Node41</title>
<path fill="none" stroke="#63b8ff" d="M1614.63,-137.44C1621.63,-135.35 1629.3,-133.33 1636.5,-132 1840.75,-94.14 1900.87,-145.98 2102.5,-96 2109.01,-94.39 2115.77,-91.92 2122.01,-89.28"/>
<polygon fill="#63b8ff" stroke="#63b8ff" points="2123.62,-92.39 2131.29,-85.08 2120.74,-86.02 2123.62,-92.39"/>
</g>
<!-- Node42 -->
<g id="node42" class="node">
<title>Node42</title>
<g id="a_node42"><a xlink:title=" ">
<polygon fill="#e0e0e0" stroke="#999999" points="1287.5,-85 1189.5,-85 1189.5,-66 1287.5,-66 1287.5,-85"/>
<text text-anchor="middle" x="1238.5" y="-73" font-family="Helvetica,sans-Serif" font-size="10.00">pcg_random.hpp</text>
</a>
</g>
</g>
<!-- Node33&#45;&gt;Node42 -->
<g id="edge49" class="edge">
<title>Node33&#45;&gt;Node42</title>
<path fill="none" stroke="#63b8ff" d="M1560.22,-137.49C1552.84,-135.52 1544.91,-133.55 1537.5,-132 1431.48,-109.89 1401.79,-121.35 1296.5,-96 1287.89,-93.93 1278.73,-91.14 1270.3,-88.31"/>
<polygon fill="#63b8ff" stroke="#63b8ff" points="1271.41,-84.99 1260.82,-85.03 1269.12,-91.61 1271.41,-84.99"/>
</g>
<!-- Node43 -->
<g id="node43" class="node">
<title>Node43</title>
<g id="a_node43"><a xlink:title=" ">
<polygon fill="#e0e0e0" stroke="#999999" points="1391.5,-85 1305.5,-85 1305.5,-66 1391.5,-66 1391.5,-85"/>
<text text-anchor="middle" x="1348.5" y="-73" font-family="Helvetica,sans-Serif" font-size="10.00">fmt/ostream.h</text>
</a>
</g>
</g>
<!-- Node33&#45;&gt;Node43 -->
<g id="edge50" class="edge">
<title>Node33&#45;&gt;Node43</title>
<path fill="none" stroke="#63b8ff" d="M1557.88,-137.46C1551.16,-135.65 1544.1,-133.75 1537.5,-132 1476.66,-115.82 1460.5,-115.08 1400.5,-96 1393.65,-93.82 1386.37,-91.26 1379.51,-88.72"/>
<polygon fill="#63b8ff" stroke="#63b8ff" points="1380.42,-85.32 1369.83,-85.06 1377.95,-91.87 1380.42,-85.32"/>
</g>
<!-- Node44 -->
<g id="node44" class="node">
<title>Node44</title>
<g id="a_node44"><a xlink:title=" ">
<polygon fill="#e0e0e0" stroke="#999999" points="1515.5,-90.5 1409.5,-90.5 1409.5,-60.5 1515.5,-60.5 1515.5,-90.5"/>
<text text-anchor="start" x="1417.5" y="-78.5" font-family="Helvetica,sans-Serif" font-size="10.00">spdlog/sinks/basic</text>
<text text-anchor="middle" x="1462.5" y="-67.5" font-family="Helvetica,sans-Serif" font-size="10.00">_file_sink.h</text>
</a>
</g>
</g>
<!-- Node33&#45;&gt;Node44 -->
<g id="edge51" class="edge">
<title>Node33&#45;&gt;Node44</title>
<path fill="none" stroke="#63b8ff" d="M1573.93,-137.48C1554.93,-127.08 1522.26,-109.2 1497.19,-95.48"/>
<polygon fill="#63b8ff" stroke="#63b8ff" points="1498.79,-92.37 1488.33,-90.64 1495.43,-98.51 1498.79,-92.37"/>
</g>
<!-- Node45 -->
<g id="node45" class="node">
<title>Node45</title>
<g id="a_node45"><a xlink:title=" ">
<polygon fill="#e0e0e0" stroke="#999999" points="1645,-90.5 1534,-90.5 1534,-60.5 1645,-60.5 1645,-90.5"/>
<text text-anchor="start" x="1542" y="-78.5" font-family="Helvetica,sans-Serif" font-size="10.00">spdlog/sinks/stdout</text>
<text text-anchor="middle" x="1589.5" y="-67.5" font-family="Helvetica,sans-Serif" font-size="10.00">_color_sinks.h</text>
</a>
</g>
</g>
<!-- Node33&#45;&gt;Node45 -->
<g id="edge52" class="edge">
<title>Node33&#45;&gt;Node45</title>
<path fill="none" stroke="#63b8ff" d="M1589.5,-137.48C1589.5,-128.36 1589.5,-113.48 1589.5,-100.7"/>
<polygon fill="#63b8ff" stroke="#63b8ff" points="1593,-100.64 1589.5,-90.64 1586,-100.64 1593,-100.64"/>
</g>
<!-- Node46&#45;&gt;Node20 -->
<g id="edge61" class="edge">
<title>Node46&#45;&gt;Node20</title>
<path fill="none" stroke="#63b8ff" d="M1611.43,-197.89C1592.96,-189.64 1565.1,-176.36 1542.5,-162 1524.34,-150.46 1524.6,-139.68 1504.5,-132 1384.09,-85.96 1051.19,-124.63 925.5,-96 918.43,-94.39 911.05,-91.86 904.26,-89.15"/>
<polygon fill="#63b8ff" stroke="#63b8ff" points="905.41,-85.83 894.84,-85.13 902.66,-92.27 905.41,-85.83"/>
</g>
<!-- Node46&#45;&gt;Node24 -->
<g id="edge57" class="edge">
<title>Node46&#45;&gt;Node24</title>
<path fill="none" stroke="#63b8ff" d="M1607.8,-197.99C1579.91,-187.99 1533.43,-171.3 1501.9,-159.99"/>
<polygon fill="#63b8ff" stroke="#63b8ff" points="1502.82,-156.6 1492.23,-156.52 1500.46,-163.19 1502.82,-156.6"/>
</g>
<!-- Node46&#45;&gt;Node33 -->
<g id="edge62" class="edge">
<title>Node46&#45;&gt;Node33</title>
<path fill="none" stroke="#63b8ff" d="M1625.3,-197.87C1619.1,-189.23 1609.39,-175.7 1601.64,-164.92"/>
<polygon fill="#63b8ff" stroke="#63b8ff" points="1604.4,-162.75 1595.72,-156.67 1598.71,-166.83 1604.4,-162.75"/>
</g>
<!-- Node46&#45;&gt;Node39 -->
<g id="edge60" class="edge">
<title>Node46&#45;&gt;Node39</title>
<path fill="none" stroke="#63b8ff" d="M1648.6,-197.86C1664.91,-189.38 1689.97,-175.76 1710.5,-162 1728.37,-150.02 1728.47,-139.87 1748.5,-132 1932.75,-59.56 2005.62,-161.36 2192.5,-96 2196.15,-94.72 2199.78,-92.87 2203.18,-90.81"/>
<polygon fill="#63b8ff" stroke="#63b8ff" points="2205.2,-93.67 2211.46,-85.13 2201.24,-87.9 2205.2,-93.67"/>
</g>
<!-- Node47 -->
<g id="node47" class="node">
<title>Node47</title>
<g id="a_node47"><a xlink:title=" ">
<polygon fill="#e0e0e0" stroke="#999999" points="1799.5,-156.5 1757.5,-156.5 1757.5,-137.5 1799.5,-137.5 1799.5,-156.5"/>
<text text-anchor="middle" x="1778.5" y="-144.5" font-family="Helvetica,sans-Serif" font-size="10.00">array</text>
</a>
</g>
</g>
<!-- Node46&#45;&gt;Node47 -->
<g id="edge56" class="edge">
<title>Node46&#45;&gt;Node47</title>
<path fill="none" stroke="#63b8ff" d="M1652.98,-197.98C1675.53,-189.04 1712.01,-174.55 1743.5,-162 1744.91,-161.44 1746.34,-160.87 1747.8,-160.29"/>
<polygon fill="#63b8ff" stroke="#63b8ff" points="1749.42,-163.41 1757.4,-156.45 1746.82,-156.91 1749.42,-163.41"/>
</g>
<!-- Node48 -->
<g id="node48" class="node">
<title>Node48</title>
<g id="a_node48"><a xlink:title=" ">
<polygon fill="#e0e0e0" stroke="#999999" points="1867.5,-156.5 1817.5,-156.5 1817.5,-137.5 1867.5,-137.5 1867.5,-156.5"/>
<text text-anchor="middle" x="1842.5" y="-144.5" font-family="Helvetica,sans-Serif" font-size="10.00">gsl/util</text>
</a>
</g>
</g>
<!-- Node46&#45;&gt;Node48 -->
<g id="edge58" class="edge">
<title>Node46&#45;&gt;Node48</title>
<path fill="none" stroke="#63b8ff" d="M1672.4,-197.98C1708.58,-190.02 1762.61,-177.13 1808.5,-162 1810.13,-161.46 1811.78,-160.89 1813.45,-160.28"/>
<polygon fill="#63b8ff" stroke="#63b8ff" points="1814.84,-163.5 1822.9,-156.63 1812.31,-156.97 1814.84,-163.5"/>
</g>
<!-- Node49 -->
<g id="node49" class="node">
<title>Node49</title>
<g id="a_node49"><a xlink:title=" ">
<polygon fill="#e0e0e0" stroke="#999999" points="1701.5,-156.5 1645.5,-156.5 1645.5,-137.5 1701.5,-137.5 1701.5,-156.5"/>
<text text-anchor="middle" x="1673.5" y="-144.5" font-family="Helvetica,sans-Serif" font-size="10.00">numeric</text>
</a>
</g>
</g>
<!-- Node46&#45;&gt;Node49 -->
<g id="edge59" class="edge">
<title>Node46&#45;&gt;Node49</title>
<path fill="none" stroke="#63b8ff" d="M1637.7,-197.87C1643.9,-189.23 1653.61,-175.7 1661.36,-164.92"/>
<polygon fill="#63b8ff" stroke="#63b8ff" points="1664.29,-166.83 1667.28,-156.67 1658.6,-162.75 1664.29,-166.83"/>
</g>
</g>
</svg>
        <g id="navigator" transform="translate(0 0)" fill="#404254">
                <rect fill="#f2f5e9" fill-opacity="0.5" stroke="#606060" stroke-width=".5" x="0" y="0" width="60" height="60"/>
                <use id="zoomplus" xlink:href="#zoomPlus" x="17" y="9" onmousedown="handleZoom(evt,'in')"/>
                <use id="zoomminus" xlink:href="#zoomMin" x="42" y="9" onmousedown="handleZoom(evt,'out')"/>
                <use id="reset" xlink:href="#resetDef" x="30" y="36" onmousedown="handleReset()"/>
                <g id="arrowUp" xlink:href="#dirArrow" transform="translate(30 24)" onmousedown="handlePan(0,-1)">
                  <use xlink:href="#rim" fill="#404040">
                        <set attributeName="fill" to="#808080" begin="arrowUp.mouseover" end="arrowUp.mouseout"/>
                  </use>
                  <path fill="none" stroke="white" stroke-width="1.5" d="M0,-3.0v7 M-2.5,-0.5L0,-3.0L2.5,-0.5"/>
                </g>
                <g id="arrowRight" xlink:href="#dirArrow" transform="rotate(90) translate(36 -43)" onmousedown="handlePan(1,0)">
                  <use xlink:href="#rim" fill="#404040">
                        <set attributeName="fill" to="#808080" begin="arrowRight.mouseover" end="arrowRight.mouseout"/>
                  </use>
                  <path fill="none" stroke="white" stroke-width="1.5" d="M0,-3.0v7 M-2.5,-0.5L0,-3.0L2.5,-0.5"/>
                </g>
                <g id="arrowDown" xlink:href="#dirArrow" transform="rotate(180) translate(-30 -48)" onmousedown="handlePan(0,1)">
                  <use xlink:href="#rim" fill="#404040">
                        <set attributeName="fill" to="#808080" begin="arrowDown.mouseover" end="arrowDown.mouseout"/>
                  </use>
                  <path fill="none" stroke="white" stroke-width="1.5" d="M0,-3.0v7 M-2.5,-0.5L0,-3.0L2.5,-0.5"/>
                </g>
                <g id="arrowLeft" xlink:href="#dirArrow" transform="rotate(270) translate(-36 17)" onmousedown="handlePan(-1,0)">
                  <use xlink:href="#rim" fill="#404040">
                        <set attributeName="fill" to="#808080" begin="arrowLeft.mouseover" end="arrowLeft.mouseout"/>
                  </use>
                  <path fill="none" stroke="white" stroke-width="1.5" d="M0,-3.0v7 M-2.5,-0.5L0,-3.0L2.5,-0.5"/>
                </g>
        </g>
        <svg viewBox="0 0 15 15" width="100%" height="30px" preserveAspectRatio="xMaxYMin meet">
         <g id="arrow_out" transform="scale(0.3 0.3)">
          <a xlink:href="_move__command_8hpp__incl_org.svg" target="_base">
           <rect id="button" ry="5" rx="5" y="6" x="6" height="38" width="38"
                fill="#f2f5e9" fill-opacity="0.5" stroke="#606060" stroke-width="1.0"/>
           <path id="arrow"
             d="M 11.500037,31.436501 C 11.940474,20.09759 22.043105,11.32322 32.158766,21.979434 L 37.068811,17.246167 C 37.068811,17.246167 37.088388,32 37.088388,32 L 22.160133,31.978069 C 22.160133,31.978069 26.997745,27.140456 26.997745,27.140456 C 18.528582,18.264221 13.291696,25.230495 11.500037,31.436501 z"
             style="fill:#404040;"/>
          </a>
         </g>
        </svg>
</svg>
