<?xml version="1.0" encoding="UTF-8" standalone="no"?>
<!DOCTYPE svg PUBLIC "-//W3C//DTD SVG 1.1//EN"
 "http://www.w3.org/Graphics/SVG/1.1/DTD/svg11.dtd">
<!-- Generated by graphviz version 2.43.0 (0)
 -->
<!-- Title: include/Move_tracker.hpp Pages: 1 -->
<svg width="955pt" height="285pt"
 viewBox="0.00 0.00 954.50 285.00" xmlns="http://www.w3.org/2000/svg" xmlns:xlink="http://www.w3.org/1999/xlink">
<g id="graph0" class="graph" transform="scale(1 1) rotate(0) translate(4 281)">
<title>include/Move_tracker.hpp</title>
<polygon fill="white" stroke="transparent" points="-4,4 -4,-281 950.5,-281 950.5,4 -4,4"/>
<!-- Node1 -->
<g id="node1" class="node">
<title>Node1</title>
<g id="a_node1"><a xlink:title="Track ergodic moves.">
<polygon fill="#bfbfbf" stroke="black" points="612,-257.5 612,-276.5 753,-276.5 753,-257.5 612,-257.5"/>
<text text-anchor="middle" x="682.5" y="-264.5" font-family="Helvetica,sans-Serif" font-size="10.00">include/Move_tracker.hpp</text>
</a>
</g>
</g>
<!-- Node2 -->
<g id="node2" class="node">
<title>Node2</title>
<g id="a_node2"><a xlink:href="_ergodic__moves__3_8hpp.html" target="_top" xlink:title="Pachner moves on 2+1 dimensional foliated Delaunay triangulations.">
<polygon fill="white" stroke="black" points="549,-190.5 549,-220.5 678,-220.5 678,-190.5 549,-190.5"/>
<text text-anchor="start" x="557" y="-208.5" font-family="Helvetica,sans-Serif" font-size="10.00">include/Ergodic_moves</text>
<text text-anchor="middle" x="613.5" y="-197.5" font-family="Helvetica,sans-Serif" font-size="10.00">_3.hpp</text>
</a>
</g>
</g>
<!-- Node1&#45;&gt;Node2 -->
<g id="edge1" class="edge">
<title>Node1&#45;&gt;Node2</title>
<path fill="none" stroke="midnightblue" d="M665.01,-250.92C654.18,-241.58 640.36,-229.66 629.76,-220.52"/>
<polygon fill="midnightblue" stroke="midnightblue" points="662.76,-253.6 672.61,-257.48 667.33,-248.29 662.76,-253.6"/>
</g>
<!-- Node15 -->
<g id="node15" class="node">
<title>Node15</title>
<g id="a_node15"><a xlink:href="_move__tracker__test_8cpp.html" target="_top" xlink:title="Tests of MoveTracker, that is, that moves are tracked properly.">
<polygon fill="white" stroke="black" points="696.5,-190.5 696.5,-220.5 806.5,-220.5 806.5,-190.5 696.5,-190.5"/>
<text text-anchor="start" x="704.5" y="-208.5" font-family="Helvetica,sans-Serif" font-size="10.00">tests/Move_tracker</text>
<text text-anchor="middle" x="751.5" y="-197.5" font-family="Helvetica,sans-Serif" font-size="10.00">_test.cpp</text>
</a>
</g>
</g>
<!-- Node1&#45;&gt;Node15 -->
<g id="edge15" class="edge">
<title>Node1&#45;&gt;Node15</title>
<path fill="none" stroke="midnightblue" d="M699.99,-250.92C710.82,-241.58 724.64,-229.66 735.24,-220.52"/>
<polygon fill="midnightblue" stroke="midnightblue" points="697.67,-248.29 692.39,-257.48 702.24,-253.6 697.67,-248.29"/>
</g>
<!-- Node3 -->
<g id="node3" class="node">
<title>Node3</title>
<g id="a_node3"><a xlink:href="_move__command_8hpp.html" target="_top" xlink:title="Do ergodic moves using the Command pattern.">
<polygon fill="white" stroke="black" points="233,-129 233,-148 390,-148 390,-129 233,-129"/>
<text text-anchor="middle" x="311.5" y="-136" font-family="Helvetica,sans-Serif" font-size="10.00">include/Move_command.hpp</text>
</a>
</g>
</g>
<!-- Node2&#45;&gt;Node3 -->
<g id="edge2" class="edge">
<title>Node2&#45;&gt;Node3</title>
<path fill="none" stroke="midnightblue" d="M538.64,-188.39C479.31,-175.62 398.75,-158.28 351.23,-148.05"/>
<polygon fill="midnightblue" stroke="midnightblue" points="538.2,-191.87 548.71,-190.56 539.67,-185.03 538.2,-191.87"/>
</g>
<!-- Node11 -->
<g id="node11" class="node">
<title>Node11</title>
<g id="a_node11"><a xlink:href="bistellar-flip_8cpp.html" target="_top" xlink:title="Tests and views bistellar flips.">
<polygon fill="white" stroke="black" points="408,-129 408,-148 521,-148 521,-129 408,-129"/>
<text text-anchor="middle" x="464.5" y="-136" font-family="Helvetica,sans-Serif" font-size="10.00">src/bistellar&#45;flip.cpp</text>
</a>
</g>
</g>
<!-- Node2&#45;&gt;Node11 -->
<g id="edge11" class="edge">
<title>Node2&#45;&gt;Node11</title>
<path fill="none" stroke="midnightblue" d="M571.77,-186.3C543.03,-173.76 506.18,-157.68 484,-148.01"/>
<polygon fill="midnightblue" stroke="midnightblue" points="570.6,-189.61 581.17,-190.4 573.4,-183.19 570.6,-189.61"/>
</g>
<!-- Node12 -->
<g id="node12" class="node">
<title>Node12</title>
<g id="a_node12"><a xlink:href="_apply__move__test_8cpp.html" target="_top" xlink:title="Applying ergodic moves to manifolds.">
<polygon fill="white" stroke="black" points="539,-129 539,-148 688,-148 688,-129 539,-129"/>
<text text-anchor="middle" x="613.5" y="-136" font-family="Helvetica,sans-Serif" font-size="10.00">tests/Apply_move_test.cpp</text>
</a>
</g>
</g>
<!-- Node2&#45;&gt;Node12 -->
<g id="edge12" class="edge">
<title>Node2&#45;&gt;Node12</title>
<path fill="none" stroke="midnightblue" d="M613.5,-180.25C613.5,-169.02 613.5,-156.38 613.5,-148.19"/>
<polygon fill="midnightblue" stroke="midnightblue" points="610,-180.4 613.5,-190.4 617,-180.4 610,-180.4"/>
</g>
<!-- Node13 -->
<g id="node13" class="node">
<title>Node13</title>
<g id="a_node13"><a xlink:href="_ergodic__moves__3__test_8cpp.html" target="_top" xlink:title="Tests for ergodic moves on foliated triangulations.">
<polygon fill="white" stroke="black" points="706.5,-123.5 706.5,-153.5 824.5,-153.5 824.5,-123.5 706.5,-123.5"/>
<text text-anchor="start" x="714.5" y="-141.5" font-family="Helvetica,sans-Serif" font-size="10.00">tests/Ergodic_moves</text>
<text text-anchor="middle" x="765.5" y="-130.5" font-family="Helvetica,sans-Serif" font-size="10.00">_3_test.cpp</text>
</a>
</g>
</g>
<!-- Node2&#45;&gt;Node13 -->
<g id="edge13" class="edge">
<title>Node2&#45;&gt;Node13</title>
<path fill="none" stroke="midnightblue" d="M655.81,-186.41C680.08,-176.03 710.09,-163.2 732.58,-153.58"/>
<polygon fill="midnightblue" stroke="midnightblue" points="654.3,-183.25 646.48,-190.4 657.05,-189.68 654.3,-183.25"/>
</g>
<!-- Node14 -->
<g id="node14" class="node">
<title>Node14</title>
<g id="a_node14"><a xlink:href="_function__ref__test_8cpp.html" target="_top" xlink:title="Tests on function pointers, lambdas, and function_refs.">
<polygon fill="white" stroke="black" points="842.5,-123.5 842.5,-153.5 946.5,-153.5 946.5,-123.5 842.5,-123.5"/>
<text text-anchor="start" x="850.5" y="-141.5" font-family="Helvetica,sans-Serif" font-size="10.00">tests/Function_ref</text>
<text text-anchor="middle" x="894.5" y="-130.5" font-family="Helvetica,sans-Serif" font-size="10.00">_test.cpp</text>
</a>
</g>
</g>
<!-- Node2&#45;&gt;Node14 -->
<g id="edge14" class="edge">
<title>Node2&#45;&gt;Node14</title>
<path fill="none" stroke="midnightblue" d="M684.99,-188.24C728.04,-178.41 783.94,-165.58 833.5,-154 836.36,-153.33 839.3,-152.64 842.26,-151.95"/>
<polygon fill="midnightblue" stroke="midnightblue" points="684.14,-184.84 675.17,-190.48 685.7,-191.67 684.14,-184.84"/>
</g>
<!-- Node4 -->
<g id="node4" class="node">
<title>Node4</title>
<g id="a_node4"><a xlink:href="_metropolis_8hpp.html" target="_top" xlink:title="Perform Metropolis&#45;Hastings algorithm on Delaunay Triangulations.">
<polygon fill="white" stroke="black" points="93.5,-62 93.5,-81 221.5,-81 221.5,-62 93.5,-62"/>
<text text-anchor="middle" x="157.5" y="-69" font-family="Helvetica,sans-Serif" font-size="10.00">include/Metropolis.hpp</text>
</a>
</g>
</g>
<!-- Node3&#45;&gt;Node4 -->
<g id="edge3" class="edge">
<title>Node3&#45;&gt;Node4</title>
<path fill="none" stroke="midnightblue" d="M281.76,-124.95C251.27,-112.08 204.66,-92.4 178.03,-81.17"/>
<polygon fill="midnightblue" stroke="midnightblue" points="280.48,-128.2 291.05,-128.87 283.2,-121.76 280.48,-128.2"/>
</g>
<!-- Node8 -->
<g id="node8" class="node">
<title>Node8</title>
<g id="a_node8"><a xlink:href="_move__always_8hpp.html" target="_top" xlink:title="Randomly selects moves to always perform on triangulations.">
<polygon fill="white" stroke="black" points="240,-62 240,-81 383,-81 383,-62 240,-62"/>
<text text-anchor="middle" x="311.5" y="-69" font-family="Helvetica,sans-Serif" font-size="10.00">include/Move_always.hpp</text>
</a>
</g>
</g>
<!-- Node3&#45;&gt;Node8 -->
<g id="edge7" class="edge">
<title>Node3&#45;&gt;Node8</title>
<path fill="none" stroke="midnightblue" d="M311.5,-118.54C311.5,-106.17 311.5,-90.62 311.5,-81.13"/>
<polygon fill="midnightblue" stroke="midnightblue" points="308,-118.73 311.5,-128.73 315,-118.73 308,-118.73"/>
</g>
<!-- Node10 -->
<g id="node10" class="node">
<title>Node10</title>
<g id="a_node10"><a xlink:href="_move__command__test_8cpp.html" target="_top" xlink:title="Tests of MoveCommand, that is, that moves are handled properly.">
<polygon fill="white" stroke="black" points="401,-56.5 401,-86.5 526,-86.5 526,-56.5 401,-56.5"/>
<text text-anchor="start" x="409" y="-74.5" font-family="Helvetica,sans-Serif" font-size="10.00">tests/Move_command</text>
<text text-anchor="middle" x="463.5" y="-63.5" font-family="Helvetica,sans-Serif" font-size="10.00">_test.cpp</text>
</a>
</g>
</g>
<!-- Node3&#45;&gt;Node10 -->
<g id="edge10" class="edge">
<title>Node3&#45;&gt;Node10</title>
<path fill="none" stroke="midnightblue" d="M340.93,-124.91C366.67,-113.91 404.01,-97.94 430.7,-86.53"/>
<polygon fill="midnightblue" stroke="midnightblue" points="339.5,-121.72 331.68,-128.87 342.26,-128.15 339.5,-121.72"/>
</g>
<!-- Node5 -->
<g id="node5" class="node">
<title>Node5</title>
<g id="a_node5"><a xlink:href="cdt-opt_8cpp.html" target="_top" xlink:title="Outputs values to determine optimizations.">
<polygon fill="white" stroke="black" points="246,-0.5 246,-19.5 335,-19.5 335,-0.5 246,-0.5"/>
<text text-anchor="middle" x="290.5" y="-7.5" font-family="Helvetica,sans-Serif" font-size="10.00">src/cdt&#45;opt.cpp</text>
</a>
</g>
</g>
<!-- Node4&#45;&gt;Node5 -->
<g id="edge4" class="edge">
<title>Node4&#45;&gt;Node5</title>
<path fill="none" stroke="midnightblue" d="M185.83,-57.83C211.65,-46.28 249.08,-29.53 271.48,-19.51"/>
<polygon fill="midnightblue" stroke="midnightblue" points="184.25,-54.7 176.56,-61.98 187.11,-61.09 184.25,-54.7"/>
</g>
<!-- Node6 -->
<g id="node6" class="node">
<title>Node6</title>
<g id="a_node6"><a xlink:href="cdt_8cpp.html" target="_top" xlink:title="The main executable.">
<polygon fill="white" stroke="black" points="0,-0.5 0,-19.5 69,-19.5 69,-0.5 0,-0.5"/>
<text text-anchor="middle" x="34.5" y="-7.5" font-family="Helvetica,sans-Serif" font-size="10.00">src/cdt.cpp</text>
</a>
</g>
</g>
<!-- Node4&#45;&gt;Node6 -->
<g id="edge5" class="edge">
<title>Node4&#45;&gt;Node6</title>
<path fill="none" stroke="midnightblue" d="M130.67,-57.52C106.81,-45.98 72.63,-29.44 52.09,-19.51"/>
<polygon fill="midnightblue" stroke="midnightblue" points="129.35,-60.77 139.88,-61.98 132.4,-54.47 129.35,-60.77"/>
</g>
<!-- Node7 -->
<g id="node7" class="node">
<title>Node7</title>
<g id="a_node7"><a xlink:href="_metropolis__test_8cpp.html" target="_top" xlink:title="Tests for the Metropolis&#45;Hastings algorithm.">
<polygon fill="white" stroke="black" points="87.5,-0.5 87.5,-19.5 227.5,-19.5 227.5,-0.5 87.5,-0.5"/>
<text text-anchor="middle" x="157.5" y="-7.5" font-family="Helvetica,sans-Serif" font-size="10.00">tests/Metropolis_test.cpp</text>
</a>
</g>
</g>
<!-- Node4&#45;&gt;Node7 -->
<g id="edge6" class="edge">
<title>Node4&#45;&gt;Node7</title>
<path fill="none" stroke="midnightblue" d="M157.5,-51.82C157.5,-41 157.5,-27.9 157.5,-19.51"/>
<polygon fill="midnightblue" stroke="midnightblue" points="154,-51.98 157.5,-61.98 161,-51.98 154,-51.98"/>
</g>
<!-- Node8&#45;&gt;Node5 -->
<g id="edge8" class="edge">
<title>Node8&#45;&gt;Node5</title>
<path fill="none" stroke="midnightblue" d="M305.15,-52.5C301.28,-41.55 296.53,-28.07 293.5,-19.51"/>
<polygon fill="midnightblue" stroke="midnightblue" points="301.86,-53.71 308.49,-61.98 308.46,-51.38 301.86,-53.71"/>
</g>
<!-- Node9 -->
<g id="node9" class="node">
<title>Node9</title>
<g id="a_node9"><a xlink:href="_move__always__test_8cpp.html" target="_top" xlink:title="Tests for the Move Always algorithm.">
<polygon fill="white" stroke="black" points="353,-0.5 353,-19.5 508,-19.5 508,-0.5 353,-0.5"/>
<text text-anchor="middle" x="430.5" y="-7.5" font-family="Helvetica,sans-Serif" font-size="10.00">tests/Move_always_test.cpp</text>
</a>
</g>
</g>
<!-- Node8&#45;&gt;Node9 -->
<g id="edge9" class="edge">
<title>Node8&#45;&gt;Node9</title>
<path fill="none" stroke="midnightblue" d="M337.77,-57.37C360.83,-45.83 393.7,-29.4 413.48,-19.51"/>
<polygon fill="midnightblue" stroke="midnightblue" points="335.93,-54.37 328.55,-61.98 339.06,-60.63 335.93,-54.37"/>
</g>
</g>
</svg>
