<?xml version="1.0" encoding="UTF-8" standalone="no"?>
<!DOCTYPE svg PUBLIC "-//W3C//DTD SVG 1.1//EN"
 "http://www.w3.org/Graphics/SVG/1.1/DTD/svg11.dtd">
<!-- Generated by graphviz version 15.1.0 (20260618.0150)
 -->
<!-- Title: include/Move_tracker.hpp Pages: 1 -->
<svg width="2565pt" height="212pt"
 viewBox="0.00 0.00 2565.00 212.00" xmlns="http://www.w3.org/2000/svg" xmlns:xlink="http://www.w3.org/1999/xlink">
<g id="graph0" class="graph" transform="scale(1 1) rotate(0) translate(4 207.75)">
<title>include/Move_tracker.hpp</title>
<!-- Node1 -->
<g id="Node000001" class="node">
<title>Node1</title>
<g id="a_Node000001"><a xlink:title="Track ergodic moves.">
<polygon fill="#999999" stroke="#666666" points="1533.75,-203.75 1393.25,-203.75 1393.25,-183 1533.75,-183 1533.75,-203.75"/>
<text xml:space="preserve" text-anchor="middle" x="1463.5" y="-190.25" font-family="Helvetica,sans-Serif" font-size="10.00">include/Move_tracker.hpp</text>
</a>
</g>
</g>
<!-- Node2 -->
<g id="Node000002" class="node">
<title>Node2</title>
<g id="a_Node000002"><a xlink:title=" ">
<polygon fill="#e0e0e0" stroke="#999999" points="167.25,-83.88 125.75,-83.88 125.75,-63.12 167.25,-63.12 167.25,-83.88"/>
<text xml:space="preserve" text-anchor="middle" x="146.5" y="-70.38" font-family="Helvetica,sans-Serif" font-size="10.00">array</text>
</a>
</g>
</g>
<!-- Node1&#45;&gt;Node2 -->
<g id="edge1_Node000001_Node000002" class="edge">
<title>Node1&#45;&gt;Node2</title>
<g id="a_edge1_Node000001_Node000002"><a xlink:title=" ">
<path fill="none" stroke="#63b8ff" d="M1392.76,-190.63C1158.03,-184.25 406.68,-158.82 175.5,-90.25 174.32,-89.9 173.13,-89.5 171.95,-89.05"/>
<polygon fill="#63b8ff" stroke="#63b8ff" points="173.55,-85.94 163,-84.9 170.6,-92.29 173.55,-85.94"/>
</a>
</g>
</g>
<!-- Node3 -->
<g id="Node000003" class="node">
<title>Node3</title>
<g id="a_Node000003"><a xlink:title=" ">
<polygon fill="#e0e0e0" stroke="#999999" points="2137.5,-147 2085.5,-147 2085.5,-126.25 2137.5,-126.25 2137.5,-147"/>
<text xml:space="preserve" text-anchor="middle" x="2111.5" y="-133.5" font-family="Helvetica,sans-Serif" font-size="10.00">cstddef</text>
</a>
</g>
</g>
<!-- Node1&#45;&gt;Node3 -->
<g id="edge2_Node000001_Node000003" class="edge">
<title>Node1&#45;&gt;Node3</title>
<g id="a_edge2_Node000001_Node000003"><a xlink:title=" ">
<path fill="none" stroke="#63b8ff" d="M1534.12,-190.67C1647.87,-187.12 1878.47,-176.64 2071.5,-147 2072.49,-146.85 2073.49,-146.69 2074.49,-146.51"/>
<polygon fill="#63b8ff" stroke="#63b8ff" points="2074.75,-150.03 2083.88,-144.66 2073.39,-143.16 2074.75,-150.03"/>
</a>
</g>
</g>
<!-- Node4 -->
<g id="Node000004" class="node">
<title>Node4</title>
<g id="a_Node000004"><a xlink:title=" ">
<polygon fill="#e0e0e0" stroke="#999999" points="2205,-147 2156,-147 2156,-126.25 2205,-126.25 2205,-147"/>
<text xml:space="preserve" text-anchor="middle" x="2180.5" y="-133.5" font-family="Helvetica,sans-Serif" font-size="10.00">gsl/util</text>
</a>
</g>
</g>
<!-- Node1&#45;&gt;Node4 -->
<g id="edge3_Node000001_Node000004" class="edge">
<title>Node1&#45;&gt;Node4</title>
<g id="a_edge3_Node000001_Node000004"><a xlink:title=" ">
<path fill="none" stroke="#63b8ff" d="M1533.86,-192.38C1656.3,-191.37 1916.49,-184.71 2144.57,-146.95"/>
<polygon fill="#63b8ff" stroke="#63b8ff" points="2144.97,-150.44 2154.26,-145.33 2143.81,-143.53 2144.97,-150.44"/>
</a>
</g>
</g>
<!-- Node5 -->
<g id="Node000005" class="node">
<title>Node5</title>
<g id="a_Node000005"><a xlink:title=" ">
<polygon fill="#e0e0e0" stroke="#999999" points="2278.38,-147 2222.62,-147 2222.62,-126.25 2278.38,-126.25 2278.38,-147"/>
<text xml:space="preserve" text-anchor="middle" x="2250.5" y="-133.5" font-family="Helvetica,sans-Serif" font-size="10.00">numeric</text>
</a>
</g>
</g>
<!-- Node1&#45;&gt;Node5 -->
<g id="edge4_Node000001_Node000005" class="edge">
<title>Node1&#45;&gt;Node5</title>
<g id="a_edge4_Node000001_Node000005"><a xlink:title=" ">
<path fill="none" stroke="#63b8ff" d="M1534.14,-192.66C1665.87,-192.21 1957.94,-186.54 2211.05,-147.29"/>
<polygon fill="#63b8ff" stroke="#63b8ff" points="2211.48,-150.77 2220.82,-145.75 2210.39,-143.85 2211.48,-150.77"/>
</a>
</g>
</g>
<!-- Node6 -->
<g id="Node000006" class="node">
<title>Node6</title>
<g id="a_Node000006"><a xlink:title=" ">
<polygon fill="#e0e0e0" stroke="#999999" points="1779.25,-20.75 1725.75,-20.75 1725.75,0 1779.25,0 1779.25,-20.75"/>
<text xml:space="preserve" text-anchor="middle" x="1752.5" y="-7.25" font-family="Helvetica,sans-Serif" font-size="10.00">random</text>
</a>
</g>
</g>
<!-- Node1&#45;&gt;Node6 -->
<g id="edge5_Node000001_Node000006" class="edge">
<title>Node1&#45;&gt;Node6</title>
<g id="a_edge5_Node000001_Node000006"><a xlink:title=" ">
<path fill="none" stroke="#63b8ff" d="M1534.22,-184.01C1648.25,-170.7 1879.84,-144.34 2076.5,-126.25 2128.99,-121.42 2513.67,-128.91 2549.5,-90.25 2559.62,-79.33 2559.72,-67.57 2549.5,-56.75 2523.15,-28.86 1945.84,-15.27 1790.63,-12.11"/>
<polygon fill="#63b8ff" stroke="#63b8ff" points="1790.96,-8.61 1780.89,-11.91 1790.82,-15.61 1790.96,-8.61"/>
</a>
</g>
</g>
<!-- Node7 -->
<g id="Node000007" class="node">
<title>Node7</title>
<g id="a_Node000007"><a xlink:title=" ">
<polygon fill="#e0e0e0" stroke="#999999" points="224.12,-83.88 184.88,-83.88 184.88,-63.12 224.12,-63.12 224.12,-83.88"/>
<text xml:space="preserve" text-anchor="middle" x="204.5" y="-70.38" font-family="Helvetica,sans-Serif" font-size="10.00">span</text>
</a>
</g>
</g>
<!-- Node1&#45;&gt;Node7 -->
<g id="edge6_Node000001_Node000007" class="edge">
<title>Node1&#45;&gt;Node7</title>
<g id="a_edge6_Node000001_Node000007"><a xlink:title=" ">
<path fill="none" stroke="#63b8ff" d="M1392.8,-182.58C1286.57,-168.19 1079.36,-141.42 902.5,-126.25 754.16,-113.53 376.76,-130.77 233.5,-90.25 232.31,-89.91 231.12,-89.52 229.94,-89.09"/>
<polygon fill="#63b8ff" stroke="#63b8ff" points="231.53,-85.97 220.98,-84.97 228.6,-92.33 231.53,-85.97"/>
</a>
</g>
</g>
<!-- Node8 -->
<g id="Node000008" class="node">
<title>Node8</title>
<g id="a_Node000008"><a xlink:href="_settings_8hpp.html" target="_top" xlink:title="Global integer and precision settings.">
<polygon fill="white" stroke="#666666" points="107.88,-83.88 31.12,-83.88 31.12,-63.12 107.88,-63.12 107.88,-83.88"/>
<text xml:space="preserve" text-anchor="middle" x="69.5" y="-70.38" font-family="Helvetica,sans-Serif" font-size="10.00">Settings.hpp</text>
</a>
</g>
</g>
<!-- Node1&#45;&gt;Node8 -->
<g id="edge7_Node000001_Node000008" class="edge">
<title>Node1&#45;&gt;Node8</title>
<g id="a_edge7_Node000001_Node000008"><a xlink:title=" ">
<path fill="none" stroke="#63b8ff" d="M1392.83,-190.97C1185,-186.6 578.15,-172 381.5,-147 262.01,-131.81 232.68,-122.05 116.5,-90.25 113.74,-89.49 110.9,-88.67 108.06,-87.81"/>
<polygon fill="#63b8ff" stroke="#63b8ff" points="109.21,-84.5 98.62,-84.81 107.09,-91.17 109.21,-84.5"/>
</a>
</g>
</g>
<!-- Node11 -->
<g id="Node000011" class="node">
<title>Node11</title>
<g id="a_Node000011"><a xlink:href="_utilities_8hpp.html" target="_top" xlink:title="Utility functions.">
<polygon fill="white" stroke="#666666" points="1468.12,-147 1392.88,-147 1392.88,-126.25 1468.12,-126.25 1468.12,-147"/>
<text xml:space="preserve" text-anchor="middle" x="1430.5" y="-133.5" font-family="Helvetica,sans-Serif" font-size="10.00">Utilities.hpp</text>
</a>
</g>
</g>
<!-- Node1&#45;&gt;Node11 -->
<g id="edge10_Node000001_Node000011" class="edge">
<title>Node1&#45;&gt;Node11</title>
<g id="a_edge10_Node000001_Node000011"><a xlink:title=" ">
<path fill="none" stroke="#63b8ff" d="M1457.6,-182.59C1453.33,-175.5 1447.42,-165.69 1442.2,-157.04"/>
<polygon fill="#63b8ff" stroke="#63b8ff" points="1445.29,-155.38 1437.13,-148.62 1439.29,-159 1445.29,-155.38"/>
</a>
</g>
</g>
<!-- Node9 -->
<g id="Node000009" class="node">
<title>Node9</title>
<g id="a_Node000009"><a xlink:title=" ">
<polygon fill="#e0e0e0" stroke="#999999" points="139,-20.75 0,-20.75 0,0 139,0 139,-20.75"/>
<text xml:space="preserve" text-anchor="middle" x="69.5" y="-7.25" font-family="Helvetica,sans-Serif" font-size="10.00">CGAL/GMP/Gmpzf_type.h</text>
</a>
</g>
</g>
<!-- Node8&#45;&gt;Node9 -->
<g id="edge8_Node000008_Node000009" class="edge">
<title>Node8&#45;&gt;Node9</title>
<g id="a_edge8_Node000008_Node000009"><a xlink:title=" ">
<path fill="none" stroke="#63b8ff" d="M69.5,-62.68C69.5,-54.52 69.5,-42.63 69.5,-32.35"/>
<polygon fill="#63b8ff" stroke="#63b8ff" points="73,-32.48 69.5,-22.48 66,-32.48 73,-32.48"/>
</a>
</g>
</g>
<!-- Node10 -->
<g id="Node000010" class="node">
<title>Node10</title>
<g id="a_Node000010"><a xlink:title=" ">
<polygon fill="#e0e0e0" stroke="#999999" points="1286,-20.75 1237,-20.75 1237,0 1286,0 1286,-20.75"/>
<text xml:space="preserve" text-anchor="middle" x="1261.5" y="-7.25" font-family="Helvetica,sans-Serif" font-size="10.00">cstdint</text>
</a>
</g>
</g>
<!-- Node8&#45;&gt;Node10 -->
<g id="edge9_Node000008_Node000010" class="edge">
<title>Node8&#45;&gt;Node10</title>
<g id="a_edge9_Node000008_Node000010"><a xlink:title=" ">
<path fill="none" stroke="#63b8ff" d="M94.52,-62.66C101.53,-60.3 109.22,-58.09 116.5,-56.75 336.86,-16.32 1055.76,-11.91 1225.4,-11.43"/>
<polygon fill="#63b8ff" stroke="#63b8ff" points="1225.36,-14.93 1235.36,-11.41 1225.35,-7.93 1225.36,-14.93"/>
</a>
</g>
</g>
<!-- Node11&#45;&gt;Node2 -->
<g id="edge13_Node000011_Node000002" class="edge">
<title>Node11&#45;&gt;Node2</title>
<g id="a_edge13_Node000011_Node000002"><a xlink:title=" ">
<path fill="none" stroke="#63b8ff" d="M1392.58,-134.74C1189.3,-129.95 235.6,-106.68 175.5,-90.25 174.13,-89.88 172.76,-89.43 171.39,-88.92"/>
<polygon fill="#63b8ff" stroke="#63b8ff" points="173.21,-85.91 162.66,-84.87 170.26,-92.25 173.21,-85.91"/>
</a>
</g>
</g>
<!-- Node11&#45;&gt;Node6 -->
<g id="edge27_Node000011_Node000006" class="edge">
<title>Node11&#45;&gt;Node6</title>
<g id="a_edge27_Node000011_Node000006"><a xlink:title=" ">
<path fill="none" stroke="#63b8ff" d="M1468.41,-133.73C1536.1,-129.69 1674.25,-118.17 1712.5,-90.25 1731.64,-76.28 1742.24,-50.5 1747.64,-32.22"/>
<polygon fill="#63b8ff" stroke="#63b8ff" points="1750.98,-33.26 1750.15,-22.7 1744.21,-31.48 1750.98,-33.26"/>
</a>
</g>
</g>
<!-- Node11&#45;&gt;Node7 -->
<g id="edge28_Node000011_Node000007" class="edge">
<title>Node11&#45;&gt;Node7</title>
<g id="a_edge28_Node000011_Node000007"><a xlink:title=" ">
<path fill="none" stroke="#63b8ff" d="M1392.55,-133.7C1352.7,-131.71 1288.2,-128.57 1232.5,-126.25 1121.52,-121.62 340.64,-119.53 233.5,-90.25 232.13,-89.88 230.76,-89.43 229.39,-88.92"/>
<polygon fill="#63b8ff" stroke="#63b8ff" points="231.21,-85.91 220.66,-84.87 228.26,-92.26 231.21,-85.91"/>
</a>
</g>
</g>
<!-- Node11&#45;&gt;Node8 -->
<g id="edge47_Node000011_Node000008" class="edge">
<title>Node11&#45;&gt;Node8</title>
<g id="a_edge47_Node000011_Node000008"><a xlink:title=" ">
<path fill="none" stroke="#63b8ff" d="M1392.62,-135.79C1204.66,-136.37 371.02,-136.28 116.5,-90.25 112.86,-89.59 109.11,-88.71 105.4,-87.7"/>
<polygon fill="#63b8ff" stroke="#63b8ff" points="106.55,-84.39 95.96,-84.81 104.5,-91.08 106.55,-84.39"/>
</a>
</g>
</g>
<!-- Node11&#45;&gt;Node10 -->
<g id="edge17_Node000011_Node000010" class="edge">
<title>Node11&#45;&gt;Node10</title>
<g id="a_edge17_Node000011_Node000010"><a xlink:title=" ">
<path fill="none" stroke="#63b8ff" d="M1392.6,-126.32C1369.22,-119.23 1339.58,-107.66 1317.5,-90.25 1297.17,-74.22 1281.02,-48.9 1271.39,-31.29"/>
<polygon fill="#63b8ff" stroke="#63b8ff" points="1274.57,-29.82 1266.84,-22.58 1268.37,-33.06 1274.57,-29.82"/>
</a>
</g>
</g>
<!-- Node12 -->
<g id="Node000012" class="node">
<title>Node12</title>
<g id="a_Node000012"><a xlink:title=" ">
<polygon fill="#e0e0e0" stroke="#999999" points="1526.62,-83.88 1436.38,-83.88 1436.38,-63.12 1526.62,-63.12 1526.62,-83.88"/>
<text xml:space="preserve" text-anchor="middle" x="1481.5" y="-70.38" font-family="Helvetica,sans-Serif" font-size="10.00">CGAL/version.h</text>
</a>
</g>
</g>
<!-- Node11&#45;&gt;Node12 -->
<g id="edge11_Node000011_Node000012" class="edge">
<title>Node11&#45;&gt;Node12</title>
<g id="a_edge11_Node000011_Node000012"><a xlink:title=" ">
<path fill="none" stroke="#63b8ff" d="M1438.69,-125.8C1446.1,-116.93 1457.19,-103.64 1466.23,-92.81"/>
<polygon fill="#63b8ff" stroke="#63b8ff" points="1468.81,-95.18 1472.52,-85.26 1463.43,-90.69 1468.81,-95.18"/>
</a>
</g>
</g>
<!-- Node13 -->
<g id="Node000013" class="node">
<title>Node13</title>
<g id="a_Node000013"><a xlink:title=" ">
<polygon fill="#e0e0e0" stroke="#999999" points="1608.12,-83.88 1544.88,-83.88 1544.88,-63.12 1608.12,-63.12 1608.12,-83.88"/>
<text xml:space="preserve" text-anchor="middle" x="1576.5" y="-70.38" font-family="Helvetica,sans-Serif" font-size="10.00">algorithm</text>
</a>
</g>
</g>
<!-- Node11&#45;&gt;Node13 -->
<g id="edge12_Node000011_Node000013" class="edge">
<title>Node11&#45;&gt;Node13</title>
<g id="a_edge12_Node000011_Node000013"><a xlink:title=" ">
<path fill="none" stroke="#63b8ff" d="M1453.96,-125.8C1477.9,-115.78 1515.32,-100.12 1542.51,-88.73"/>
<polygon fill="#63b8ff" stroke="#63b8ff" points="1543.83,-91.97 1551.7,-84.88 1541.13,-85.51 1543.83,-91.97"/>
</a>
</g>
</g>
<!-- Node14 -->
<g id="Node000014" class="node">
<title>Node14</title>
<g id="a_Node000014"><a xlink:title=" ">
<polygon fill="#e0e0e0" stroke="#999999" points="1686.62,-83.88 1626.38,-83.88 1626.38,-63.12 1686.62,-63.12 1686.62,-83.88"/>
<text xml:space="preserve" text-anchor="middle" x="1656.5" y="-70.38" font-family="Helvetica,sans-Serif" font-size="10.00">charconv</text>
</a>
</g>
</g>
<!-- Node11&#45;&gt;Node14 -->
<g id="edge14_Node000011_Node000014" class="edge">
<title>Node11&#45;&gt;Node14</title>
<g id="a_edge14_Node000011_Node000014"><a xlink:title=" ">
<path fill="none" stroke="#63b8ff" d="M1468.56,-128.09C1506.66,-120.15 1566.77,-106.55 1617.5,-90.25 1619.45,-89.62 1621.44,-88.95 1623.44,-88.24"/>
<polygon fill="#63b8ff" stroke="#63b8ff" points="1624.49,-91.58 1632.6,-84.76 1622.01,-85.03 1624.49,-91.58"/>
</a>
</g>
</g>
<!-- Node15 -->
<g id="Node000015" class="node">
<title>Node15</title>
<g id="a_Node000015"><a xlink:title=" ">
<polygon fill="#e0e0e0" stroke="#999999" points="1826.88,-83.88 1780.12,-83.88 1780.12,-63.12 1826.88,-63.12 1826.88,-83.88"/>
<text xml:space="preserve" text-anchor="middle" x="1803.5" y="-70.38" font-family="Helvetica,sans-Serif" font-size="10.00">cmath</text>
</a>
</g>
</g>
<!-- Node11&#45;&gt;Node15 -->
<g id="edge15_Node000011_Node000015" class="edge">
<title>Node11&#45;&gt;Node15</title>
<g id="a_edge15_Node000011_Node000015"><a xlink:title=" ">
<path fill="none" stroke="#63b8ff" d="M1468.45,-133.81C1531.4,-130.08 1660.93,-119.28 1766.5,-90.25 1768.48,-89.7 1770.5,-89.08 1772.52,-88.39"/>
<polygon fill="#63b8ff" stroke="#63b8ff" points="1773.61,-91.72 1781.69,-84.88 1771.1,-85.18 1773.61,-91.72"/>
</a>
</g>
</g>
<!-- Node16 -->
<g id="Node000016" class="node">
<title>Node16</title>
<g id="a_Node000016"><a xlink:title=" ">
<polygon fill="#e0e0e0" stroke="#999999" points="1617.25,-20.75 1557.75,-20.75 1557.75,0 1617.25,0 1617.25,-20.75"/>
<text xml:space="preserve" text-anchor="middle" x="1587.5" y="-7.25" font-family="Helvetica,sans-Serif" font-size="10.00">concepts</text>
</a>
</g>
</g>
<!-- Node11&#45;&gt;Node16 -->
<g id="edge16_Node000011_Node000016" class="edge">
<title>Node11&#45;&gt;Node16</title>
<g id="a_edge16_Node000011_Node000016"><a xlink:title=" ">
<path fill="none" stroke="#63b8ff" d="M1468.56,-134.89C1534.79,-132.72 1666.91,-124.15 1695.5,-90.25 1705.1,-78.87 1703.74,-69.15 1695.5,-56.75 1680.63,-34.38 1652.36,-23.01 1628.47,-17.25"/>
<polygon fill="#63b8ff" stroke="#63b8ff" points="1629.51,-13.89 1619,-15.23 1628.05,-20.74 1629.51,-13.89"/>
</a>
</g>
</g>
<!-- Node17 -->
<g id="Node000017" class="node">
<title>Node17</title>
<g id="a_Node000017"><a xlink:title=" ">
<polygon fill="#e0e0e0" stroke="#999999" points="1912,-83.88 1845,-83.88 1845,-63.12 1912,-63.12 1912,-83.88"/>
<text xml:space="preserve" text-anchor="middle" x="1878.5" y="-70.38" font-family="Helvetica,sans-Serif" font-size="10.00">filesystem</text>
</a>
</g>
</g>
<!-- Node11&#45;&gt;Node17 -->
<g id="edge18_Node000011_Node000017" class="edge">
<title>Node11&#45;&gt;Node17</title>
<g id="a_edge18_Node000011_Node000017"><a xlink:title=" ">
<path fill="none" stroke="#63b8ff" d="M1468.42,-134.4C1540.73,-131.4 1702.93,-121.48 1835.5,-90.25 1838.28,-89.6 1841.12,-88.82 1843.95,-87.96"/>
<polygon fill="#63b8ff" stroke="#63b8ff" points="1844.89,-91.33 1853.27,-84.85 1842.67,-84.7 1844.89,-91.33"/>
</a>
</g>
</g>
<!-- Node18 -->
<g id="Node000018" class="node">
<title>Node18</title>
<g id="a_Node000018"><a xlink:title=" ">
<polygon fill="#e0e0e0" stroke="#999999" points="1984.62,-83.88 1930.38,-83.88 1930.38,-63.12 1984.62,-63.12 1984.62,-83.88"/>
<text xml:space="preserve" text-anchor="middle" x="1957.5" y="-70.38" font-family="Helvetica,sans-Serif" font-size="10.00">fstream</text>
</a>
</g>
</g>
<!-- Node11&#45;&gt;Node18 -->
<g id="edge19_Node000011_Node000018" class="edge">
<title>Node11&#45;&gt;Node18</title>
<g id="a_edge19_Node000011_Node000018"><a xlink:title=" ">
<path fill="none" stroke="#63b8ff" d="M1468.46,-136.2C1551.86,-136.59 1756.74,-132.72 1921.5,-90.25 1923.49,-89.74 1925.52,-89.12 1927.54,-88.44"/>
<polygon fill="#63b8ff" stroke="#63b8ff" points="1928.64,-91.77 1936.69,-84.89 1926.1,-85.25 1928.64,-91.77"/>
</a>
</g>
</g>
<!-- Node19 -->
<g id="Node000019" class="node">
<title>Node19</title>
<g id="a_Node000019"><a xlink:title=" ">
<polygon fill="#e0e0e0" stroke="#999999" points="2050.25,-83.88 2002.75,-83.88 2002.75,-63.12 2050.25,-63.12 2050.25,-83.88"/>
<text xml:space="preserve" text-anchor="middle" x="2026.5" y="-70.38" font-family="Helvetica,sans-Serif" font-size="10.00">gsl/gsl</text>
</a>
</g>
</g>
<!-- Node11&#45;&gt;Node19 -->
<g id="edge20_Node000011_Node000019" class="edge">
<title>Node11&#45;&gt;Node19</title>
<g id="a_edge20_Node000011_Node000019"><a xlink:title=" ">
<path fill="none" stroke="#63b8ff" d="M1468.48,-134.36C1578.17,-130.43 1893.96,-117.04 1993.5,-90.25 1995.31,-89.76 1997.15,-89.18 1998.97,-88.52"/>
<polygon fill="#63b8ff" stroke="#63b8ff" points="1999.9,-91.93 2007.75,-84.82 1997.18,-85.48 1999.9,-91.93"/>
</a>
</g>
</g>
<!-- Node20 -->
<g id="Node000020" class="node">
<title>Node20</title>
<g id="a_Node000020"><a xlink:title=" ">
<polygon fill="#e0e0e0" stroke="#999999" points="2124.38,-83.88 2068.62,-83.88 2068.62,-63.12 2124.38,-63.12 2124.38,-83.88"/>
<text xml:space="preserve" text-anchor="middle" x="2096.5" y="-70.38" font-family="Helvetica,sans-Serif" font-size="10.00">iomanip</text>
</a>
</g>
</g>
<!-- Node11&#45;&gt;Node20 -->
<g id="edge21_Node000011_Node000020" class="edge">
<title>Node11&#45;&gt;Node20</title>
<g id="a_edge21_Node000011_Node000020"><a xlink:title=" ">
<path fill="none" stroke="#63b8ff" d="M1468.6,-134.52C1586.83,-130.84 1946.3,-117.62 2059.5,-90.25 2061.78,-89.7 2064.1,-89.02 2066.41,-88.26"/>
<polygon fill="#63b8ff" stroke="#63b8ff" points="2067.43,-91.62 2075.53,-84.78 2064.94,-85.07 2067.43,-91.62"/>
</a>
</g>
</g>
<!-- Node21 -->
<g id="Node000021" class="node">
<title>Node21</title>
<g id="a_Node000021"><a xlink:title=" ">
<polygon fill="#e0e0e0" stroke="#999999" points="1347.38,-20.75 1303.62,-20.75 1303.62,0 1347.38,0 1347.38,-20.75"/>
<text xml:space="preserve" text-anchor="middle" x="1325.5" y="-7.25" font-family="Helvetica,sans-Serif" font-size="10.00">limits</text>
</a>
</g>
</g>
<!-- Node11&#45;&gt;Node21 -->
<g id="edge22_Node000011_Node000021" class="edge">
<title>Node11&#45;&gt;Node21</title>
<g id="a_edge22_Node000011_Node000021"><a xlink:title=" ">
<path fill="none" stroke="#63b8ff" d="M1392.87,-128.27C1371.25,-121.98 1345.66,-110.57 1331.5,-90.25 1319.81,-73.47 1319.69,-49.51 1321.64,-32.41"/>
<polygon fill="#63b8ff" stroke="#63b8ff" points="1325.08,-33.05 1323.1,-22.64 1318.16,-32.01 1325.08,-33.05"/>
</a>
</g>
</g>
<!-- Node22 -->
<g id="Node000022" class="node">
<title>Node22</title>
<g id="a_Node000022"><a xlink:title=" ">
<polygon fill="#e0e0e0" stroke="#999999" points="2188.12,-83.88 2142.88,-83.88 2142.88,-63.12 2188.12,-63.12 2188.12,-83.88"/>
<text xml:space="preserve" text-anchor="middle" x="2165.5" y="-70.38" font-family="Helvetica,sans-Serif" font-size="10.00">locale</text>
</a>
</g>
</g>
<!-- Node11&#45;&gt;Node22 -->
<g id="edge23_Node000011_Node000022" class="edge">
<title>Node11&#45;&gt;Node22</title>
<g id="a_edge23_Node000011_Node000022"><a xlink:title=" ">
<path fill="none" stroke="#63b8ff" d="M1468.6,-135.12C1596.01,-133.14 2006.33,-124.21 2133.5,-90.25 2135.11,-89.82 2136.73,-89.31 2138.35,-88.73"/>
<polygon fill="#63b8ff" stroke="#63b8ff" points="2139.51,-92.04 2147.32,-84.89 2136.75,-85.61 2139.51,-92.04"/>
</a>
</g>
</g>
<!-- Node23 -->
<g id="Node000023" class="node">
<title>Node23</title>
<g id="a_Node000023"><a xlink:title=" ">
<polygon fill="#e0e0e0" stroke="#999999" points="2244.38,-83.88 2206.62,-83.88 2206.62,-63.12 2244.38,-63.12 2244.38,-83.88"/>
<text xml:space="preserve" text-anchor="middle" x="2225.5" y="-70.38" font-family="Helvetica,sans-Serif" font-size="10.00">map</text>
</a>
</g>
</g>
<!-- Node11&#45;&gt;Node23 -->
<g id="edge24_Node000011_Node000023" class="edge">
<title>Node11&#45;&gt;Node23</title>
<g id="a_edge24_Node000011_Node000023"><a xlink:title=" ">
<path fill="none" stroke="#63b8ff" d="M1468.34,-135.63C1603.04,-135.29 2058.48,-131.09 2197.5,-90.25 2198.65,-89.91 2199.81,-89.52 2200.96,-89.08"/>
<polygon fill="#63b8ff" stroke="#63b8ff" points="2202.06,-92.44 2209.58,-84.97 2199.05,-86.12 2202.06,-92.44"/>
</a>
</g>
</g>
<!-- Node24 -->
<g id="Node000024" class="node">
<title>Node24</title>
<g id="a_Node000024"><a xlink:title=" ">
<polygon fill="#e0e0e0" stroke="#999999" points="2310.25,-83.88 2262.75,-83.88 2262.75,-63.12 2310.25,-63.12 2310.25,-83.88"/>
<text xml:space="preserve" text-anchor="middle" x="2286.5" y="-70.38" font-family="Helvetica,sans-Serif" font-size="10.00">mutex</text>
</a>
</g>
</g>
<!-- Node11&#45;&gt;Node24 -->
<g id="edge25_Node000011_Node000024" class="edge">
<title>Node11&#45;&gt;Node24</title>
<g id="a_edge25_Node000011_Node000024"><a xlink:title=" ">
<path fill="none" stroke="#63b8ff" d="M1468.55,-135.48C1609.58,-134.65 2102.03,-128.96 2253.5,-90.25 2255.32,-89.79 2257.16,-89.22 2258.99,-88.58"/>
<polygon fill="#63b8ff" stroke="#63b8ff" points="2259.89,-91.99 2267.77,-84.91 2257.2,-85.53 2259.89,-91.99"/>
</a>
</g>
</g>
<!-- Node25 -->
<g id="Node000025" class="node">
<title>Node25</title>
<g id="a_Node000025"><a xlink:title=" ">
<polygon fill="#e0e0e0" stroke="#999999" points="2384.38,-83.88 2328.62,-83.88 2328.62,-63.12 2384.38,-63.12 2384.38,-83.88"/>
<text xml:space="preserve" text-anchor="middle" x="2356.5" y="-70.38" font-family="Helvetica,sans-Serif" font-size="10.00">optional</text>
</a>
</g>
</g>
<!-- Node11&#45;&gt;Node25 -->
<g id="edge26_Node000011_Node000025" class="edge">
<title>Node11&#45;&gt;Node25</title>
<g id="a_edge26_Node000011_Node000025"><a xlink:title=" ">
<path fill="none" stroke="#63b8ff" d="M1468.47,-135.45C1616.36,-134.51 2153.86,-128.46 2319.5,-90.25 2321.79,-89.72 2324.11,-89.06 2326.42,-88.31"/>
<polygon fill="#63b8ff" stroke="#63b8ff" points="2327.43,-91.67 2335.55,-84.86 2324.95,-85.13 2327.43,-91.67"/>
</a>
</g>
</g>
<!-- Node26 -->
<g id="Node000026" class="node">
<title>Node26</title>
<g id="a_Node000026"><a xlink:title=" ">
<polygon fill="#e0e0e0" stroke="#999999" points="2458.38,-83.88 2402.62,-83.88 2402.62,-63.12 2458.38,-63.12 2458.38,-83.88"/>
<text xml:space="preserve" text-anchor="middle" x="2430.5" y="-70.38" font-family="Helvetica,sans-Serif" font-size="10.00">sstream</text>
</a>
</g>
</g>
<!-- Node11&#45;&gt;Node26 -->
<g id="edge29_Node000011_Node000026" class="edge">
<title>Node11&#45;&gt;Node26</title>
<g id="a_edge29_Node000011_Node000026"><a xlink:title=" ">
<path fill="none" stroke="#63b8ff" d="M1468.41,-135.63C1623.86,-135.35 2212.8,-131.56 2393.5,-90.25 2395.79,-89.73 2398.11,-89.07 2400.42,-88.32"/>
<polygon fill="#63b8ff" stroke="#63b8ff" points="2401.43,-91.68 2409.55,-84.88 2398.96,-85.14 2401.43,-91.68"/>
</a>
</g>
</g>
<!-- Node27 -->
<g id="Node000027" class="node">
<title>Node27</title>
<g id="a_Node000027"><a xlink:title=" ">
<polygon fill="#e0e0e0" stroke="#999999" points="2540.5,-83.88 2476.5,-83.88 2476.5,-63.12 2540.5,-63.12 2540.5,-83.88"/>
<text xml:space="preserve" text-anchor="middle" x="2508.5" y="-70.38" font-family="Helvetica,sans-Serif" font-size="10.00">stdexcept</text>
</a>
</g>
</g>
<!-- Node11&#45;&gt;Node27 -->
<g id="edge30_Node000011_Node000027" class="edge">
<title>Node11&#45;&gt;Node27</title>
<g id="a_edge30_Node000011_Node000027"><a xlink:title=" ">
<path fill="none" stroke="#63b8ff" d="M1468.49,-135.6C1631.34,-135.23 2271.01,-131.16 2467.5,-90.25 2470.31,-89.67 2473.18,-88.91 2476.03,-88.05"/>
<polygon fill="#63b8ff" stroke="#63b8ff" points="2477.03,-91.41 2485.33,-84.84 2474.74,-84.79 2477.03,-91.41"/>
</a>
</g>
</g>
<!-- Node28 -->
<g id="Node000028" class="node">
<title>Node28</title>
<g id="a_Node000028"><a xlink:title=" ">
<polygon fill="#e0e0e0" stroke="#999999" points="286.38,-83.88 242.62,-83.88 242.62,-63.12 286.38,-63.12 286.38,-83.88"/>
<text xml:space="preserve" text-anchor="middle" x="264.5" y="-70.38" font-family="Helvetica,sans-Serif" font-size="10.00">string</text>
</a>
</g>
</g>
<!-- Node11&#45;&gt;Node28 -->
<g id="edge31_Node000011_Node000028" class="edge">
<title>Node11&#45;&gt;Node28</title>
<g id="a_edge31_Node000011_Node000028"><a xlink:title=" ">
<path fill="none" stroke="#63b8ff" d="M1392.55,-133.73C1352.69,-131.76 1288.2,-128.64 1232.5,-126.25 1024.32,-117.32 497.18,-142.66 295.5,-90.25 293.89,-89.83 292.27,-89.32 290.66,-88.75"/>
<polygon fill="#63b8ff" stroke="#63b8ff" points="292.33,-85.66 281.77,-84.83 289.51,-92.06 292.33,-85.66"/>
</a>
</g>
</g>
<!-- Node29 -->
<g id="Node000029" class="node">
<title>Node29</title>
<g id="a_Node000029"><a xlink:title=" ">
<polygon fill="#e0e0e0" stroke="#999999" points="376.62,-83.88 304.38,-83.88 304.38,-63.12 376.62,-63.12 376.62,-83.88"/>
<text xml:space="preserve" text-anchor="middle" x="340.5" y="-70.38" font-family="Helvetica,sans-Serif" font-size="10.00">string_view</text>
</a>
</g>
</g>
<!-- Node11&#45;&gt;Node29 -->
<g id="edge32_Node000011_Node000029" class="edge">
<title>Node11&#45;&gt;Node29</title>
<g id="a_edge32_Node000011_Node000029"><a xlink:title=" ">
<path fill="none" stroke="#63b8ff" d="M1392.54,-133.77C1352.69,-131.84 1288.19,-128.75 1232.5,-126.25 1044.3,-117.79 570.52,-125.75 385.5,-90.25 382.11,-89.6 378.64,-88.74 375.19,-87.77"/>
<polygon fill="#63b8ff" stroke="#63b8ff" points="376.46,-84.5 365.87,-84.8 374.34,-91.17 376.46,-84.5"/>
</a>
</g>
</g>
<!-- Node30 -->
<g id="Node000030" class="node">
<title>Node30</title>
<g id="a_Node000030"><a xlink:title=" ">
<polygon fill="#e0e0e0" stroke="#999999" points="462.75,-83.88 394.25,-83.88 394.25,-63.12 462.75,-63.12 462.75,-83.88"/>
<text xml:space="preserve" text-anchor="middle" x="428.5" y="-70.38" font-family="Helvetica,sans-Serif" font-size="10.00">type_traits</text>
</a>
</g>
</g>
<!-- Node11&#45;&gt;Node30 -->
<g id="edge33_Node000011_Node000030" class="edge">
<title>Node11&#45;&gt;Node30</title>
<g id="a_edge33_Node000011_Node000030"><a xlink:title=" ">
<path fill="none" stroke="#63b8ff" d="M1392.65,-133.83C1215,-125.42 472.5,-90.25 472.5,-90.25 469.29,-89.61 466,-88.79 462.74,-87.85"/>
<polygon fill="#63b8ff" stroke="#63b8ff" points="463.92,-84.55 453.32,-84.79 461.75,-91.21 463.92,-84.55"/>
</a>
</g>
</g>
<!-- Node31 -->
<g id="Node000031" class="node">
<title>Node31</title>
<g id="a_Node000031"><a xlink:title=" ">
<polygon fill="#e0e0e0" stroke="#999999" points="527.88,-83.88 481.12,-83.88 481.12,-63.12 527.88,-63.12 527.88,-83.88"/>
<text xml:space="preserve" text-anchor="middle" x="504.5" y="-70.38" font-family="Helvetica,sans-Serif" font-size="10.00">vector</text>
</a>
</g>
</g>
<!-- Node11&#45;&gt;Node31 -->
<g id="edge34_Node000011_Node000031" class="edge">
<title>Node11&#45;&gt;Node31</title>
<g id="a_edge34_Node000011_Node000031"><a xlink:title=" ">
<path fill="none" stroke="#63b8ff" d="M1392.58,-133.8C1223.6,-125.67 547.03,-92.98 536.5,-90.25 534.89,-89.83 533.26,-89.33 531.65,-88.76"/>
<polygon fill="#63b8ff" stroke="#63b8ff" points="533.24,-85.63 522.67,-84.93 530.49,-92.07 533.24,-85.63"/>
</a>
</g>
</g>
<!-- Node32 -->
<g id="Node000032" class="node">
<title>Node32</title>
<g id="a_Node000032"><a xlink:title=" ">
<polygon fill="#e0e0e0" stroke="#999999" points="597.5,-83.88 545.5,-83.88 545.5,-63.12 597.5,-63.12 597.5,-83.88"/>
<text xml:space="preserve" text-anchor="middle" x="571.5" y="-70.38" font-family="Helvetica,sans-Serif" font-size="10.00">version</text>
</a>
</g>
</g>
<!-- Node11&#45;&gt;Node32 -->
<g id="edge35_Node000011_Node000032" class="edge">
<title>Node11&#45;&gt;Node32</title>
<g id="a_edge35_Node000011_Node000032"><a xlink:title=" ">
<path fill="none" stroke="#63b8ff" d="M1392.59,-133.73C1233.34,-125.73 625.85,-94.96 606.5,-90.25 604.5,-89.76 602.47,-89.16 600.45,-88.49"/>
<polygon fill="#63b8ff" stroke="#63b8ff" points="601.93,-85.31 591.35,-84.88 599.35,-91.82 601.93,-85.31"/>
</a>
</g>
</g>
<!-- Node33 -->
<g id="Node000033" class="node">
<title>Node33</title>
<g id="a_Node000033"><a xlink:title=" ">
<polygon fill="#e0e0e0" stroke="#999999" points="687.25,-83.88 615.75,-83.88 615.75,-63.12 687.25,-63.12 687.25,-83.88"/>
<text xml:space="preserve" text-anchor="middle" x="651.5" y="-70.38" font-family="Helvetica,sans-Serif" font-size="10.00">date/date.h</text>
</a>
</g>
</g>
<!-- Node11&#45;&gt;Node33 -->
<g id="edge36_Node000011_Node000033" class="edge">
<title>Node11&#45;&gt;Node33</title>
<g id="a_edge36_Node000011_Node000033"><a xlink:title=" ">
<path fill="none" stroke="#63b8ff" d="M1392.75,-133.9C1252.35,-127.4 764.94,-104.07 696.5,-90.25 693.12,-89.57 689.65,-88.69 686.21,-87.7"/>
<polygon fill="#63b8ff" stroke="#63b8ff" points="687.48,-84.43 676.89,-84.71 685.34,-91.1 687.48,-84.43"/>
</a>
</g>
</g>
<!-- Node34 -->
<g id="Node000034" class="node">
<title>Node34</title>
<g id="a_Node000034"><a xlink:title=" ">
<polygon fill="#e0e0e0" stroke="#999999" points="791.38,-83.88 705.62,-83.88 705.62,-63.12 791.38,-63.12 791.38,-83.88"/>
<text xml:space="preserve" text-anchor="middle" x="748.5" y="-70.38" font-family="Helvetica,sans-Serif" font-size="10.00">fmt/ostream.h</text>
</a>
</g>
</g>
<!-- Node11&#45;&gt;Node34 -->
<g id="edge37_Node000011_Node000034" class="edge">
<title>Node11&#45;&gt;Node34</title>
<g id="a_edge37_Node000011_Node000034"><a xlink:title=" ">
<path fill="none" stroke="#63b8ff" d="M1392.45,-133.99C1274.37,-128.76 915.2,-111.48 800.5,-90.25 796.36,-89.48 792.08,-88.51 787.85,-87.41"/>
<polygon fill="#63b8ff" stroke="#63b8ff" points="788.86,-84.06 778.28,-84.73 786.97,-90.8 788.86,-84.06"/>
</a>
</g>
</g>
<!-- Node35 -->
<g id="Node000035" class="node">
<title>Node35</title>
<g id="a_Node000035"><a xlink:title=" ">
<polygon fill="#e0e0e0" stroke="#999999" points="915.12,-90.25 809.88,-90.25 809.88,-56.75 915.12,-56.75 915.12,-90.25"/>
<text xml:space="preserve" text-anchor="start" x="817.88" y="-76.75" font-family="Helvetica,sans-Serif" font-size="10.00">spdlog/sinks/basic</text>
<text xml:space="preserve" text-anchor="middle" x="862.5" y="-64" font-family="Helvetica,sans-Serif" font-size="10.00">_file_sink.h</text>
</a>
</g>
</g>
<!-- Node11&#45;&gt;Node35 -->
<g id="edge38_Node000011_Node000035" class="edge">
<title>Node11&#45;&gt;Node35</title>
<g id="a_edge38_Node000011_Node000035"><a xlink:title=" ">
<path fill="none" stroke="#63b8ff" d="M1392.47,-134.28C1309.57,-130.92 1106.3,-120.28 926.73,-90.45"/>
<polygon fill="#63b8ff" stroke="#63b8ff" points="927.42,-87.02 916.97,-88.8 926.25,-93.92 927.42,-87.02"/>
</a>
</g>
</g>
<!-- Node36 -->
<g id="Node000036" class="node">
<title>Node36</title>
<g id="a_Node000036"><a xlink:title=" ">
<polygon fill="#e0e0e0" stroke="#999999" points="1043.75,-90.25 933.25,-90.25 933.25,-56.75 1043.75,-56.75 1043.75,-90.25"/>
<text xml:space="preserve" text-anchor="start" x="941.25" y="-76.75" font-family="Helvetica,sans-Serif" font-size="10.00">spdlog/sinks/stdout</text>
<text xml:space="preserve" text-anchor="middle" x="988.5" y="-64" font-family="Helvetica,sans-Serif" font-size="10.00">_color_sinks.h</text>
</a>
</g>
</g>
<!-- Node11&#45;&gt;Node36 -->
<g id="edge39_Node000011_Node000036" class="edge">
<title>Node11&#45;&gt;Node36</title>
<g id="a_edge39_Node000011_Node000036"><a xlink:title=" ">
<path fill="none" stroke="#63b8ff" d="M1392.56,-132.55C1326.27,-126.86 1184.9,-113.29 1055.37,-90.44"/>
<polygon fill="#63b8ff" stroke="#63b8ff" points="1056.03,-87.01 1045.57,-88.69 1054.79,-93.9 1056.03,-87.01"/>
</a>
</g>
</g>
<!-- Node37 -->
<g id="Node000037" class="node">
<title>Node37</title>
<g id="a_Node000037"><a xlink:title=" ">
<polygon fill="#e0e0e0" stroke="#999999" points="1154.75,-83.88 1062.25,-83.88 1062.25,-63.12 1154.75,-63.12 1154.75,-83.88"/>
<text xml:space="preserve" text-anchor="middle" x="1108.5" y="-70.38" font-family="Helvetica,sans-Serif" font-size="10.00">spdlog/spdlog.h</text>
</a>
</g>
</g>
<!-- Node11&#45;&gt;Node37 -->
<g id="edge40_Node000011_Node000037" class="edge">
<title>Node11&#45;&gt;Node37</title>
<g id="a_edge40_Node000011_Node000037"><a xlink:title=" ">
<path fill="none" stroke="#63b8ff" d="M1392.81,-130.47C1341.04,-123.1 1245.16,-108.42 1164.5,-90.25 1160.47,-89.34 1156.3,-88.32 1152.13,-87.25"/>
<polygon fill="#63b8ff" stroke="#63b8ff" points="1153.25,-83.93 1142.68,-84.72 1151.44,-90.69 1153.25,-83.93"/>
</a>
</g>
</g>
<!-- Node38 -->
<g id="Node000038" class="node">
<title>Node38</title>
<g id="a_Node000038"><a xlink:href="_random_8hpp.html" target="_top" xlink:title="Run&#45;owned random&#45;number generation and reproducible stream splitting.">
<polygon fill="white" stroke="#666666" points="1418.25,-83.88 1340.75,-83.88 1340.75,-63.12 1418.25,-63.12 1418.25,-83.88"/>
<text xml:space="preserve" text-anchor="middle" x="1379.5" y="-70.38" font-family="Helvetica,sans-Serif" font-size="10.00">Random.hpp</text>
</a>
</g>
</g>
<!-- Node11&#45;&gt;Node38 -->
<g id="edge41_Node000011_Node000038" class="edge">
<title>Node11&#45;&gt;Node38</title>
<g id="a_edge41_Node000011_Node000038"><a xlink:title=" ">
<path fill="none" stroke="#63b8ff" d="M1422.31,-125.8C1414.9,-116.93 1403.81,-103.64 1394.77,-92.81"/>
<polygon fill="#63b8ff" stroke="#63b8ff" points="1397.57,-90.69 1388.48,-85.26 1392.19,-95.18 1397.57,-90.69"/>
</a>
</g>
</g>
<!-- Node40 -->
<g id="Node000040" class="node">
<title>Node40</title>
<g id="a_Node000040"><a xlink:title=" ">
<polygon fill="#e0e0e0" stroke="#999999" points="1246,-83.88 1173,-83.88 1173,-63.12 1246,-63.12 1246,-83.88"/>
<text xml:space="preserve" text-anchor="middle" x="1209.5" y="-70.38" font-family="Helvetica,sans-Serif" font-size="10.00">Version.hpp</text>
</a>
</g>
</g>
<!-- Node11&#45;&gt;Node40 -->
<g id="edge48_Node000011_Node000040" class="edge">
<title>Node11&#45;&gt;Node40</title>
<g id="a_edge48_Node000011_Node000040"><a xlink:title=" ">
<path fill="none" stroke="#63b8ff" d="M1392.57,-125.95C1358.04,-117.04 1305.71,-103.26 1260.5,-90.25 1257.59,-89.41 1254.6,-88.54 1251.59,-87.64"/>
<polygon fill="#63b8ff" stroke="#63b8ff" points="1252.76,-84.34 1242.18,-84.79 1250.74,-91.04 1252.76,-84.34"/>
</a>
</g>
</g>
<!-- Node38&#45;&gt;Node6 -->
<g id="edge45_Node000038_Node000006" class="edge">
<title>Node38&#45;&gt;Node6</title>
<g id="a_edge45_Node000038_Node000006"><a xlink:title=" ">
<path fill="none" stroke="#63b8ff" d="M1406.68,-62.65C1413.41,-60.47 1420.67,-58.34 1427.5,-56.75 1529.74,-33.04 1653.13,-19.96 1714.29,-14.48"/>
<polygon fill="#63b8ff" stroke="#63b8ff" points="1714.5,-17.98 1724.16,-13.62 1713.89,-11.01 1714.5,-17.98"/>
</a>
</g>
</g>
<!-- Node38&#45;&gt;Node10 -->
<g id="edge43_Node000038_Node000010" class="edge">
<title>Node38&#45;&gt;Node10</title>
<g id="a_edge43_Node000038_Node000010"><a xlink:title=" ">
<path fill="none" stroke="#63b8ff" d="M1360.54,-62.68C1341.62,-52.88 1312.29,-37.68 1290.45,-26.37"/>
<polygon fill="#63b8ff" stroke="#63b8ff" points="1292.24,-23.36 1281.76,-21.87 1289.03,-29.58 1292.24,-23.36"/>
</a>
</g>
</g>
<!-- Node38&#45;&gt;Node16 -->
<g id="edge42_Node000038_Node000016" class="edge">
<title>Node38&#45;&gt;Node16</title>
<g id="a_edge42_Node000038_Node000016"><a xlink:title=" ">
<path fill="none" stroke="#63b8ff" d="M1408.89,-62.65C1415.02,-60.65 1421.46,-58.6 1427.5,-56.75 1467.76,-44.44 1514.06,-31.43 1546.47,-22.52"/>
<polygon fill="#63b8ff" stroke="#63b8ff" points="1547.14,-25.96 1555.85,-19.94 1545.28,-19.21 1547.14,-25.96"/>
</a>
</g>
</g>
<!-- Node38&#45;&gt;Node21 -->
<g id="edge44_Node000038_Node000021" class="edge">
<title>Node38&#45;&gt;Node21</title>
<g id="a_edge44_Node000038_Node000021"><a xlink:title=" ">
<path fill="none" stroke="#63b8ff" d="M1370.82,-62.68C1362.9,-53.72 1351,-40.24 1341.38,-29.35"/>
<polygon fill="#63b8ff" stroke="#63b8ff" points="1344.22,-27.28 1334.98,-22.1 1338.98,-31.92 1344.22,-27.28"/>
</a>
</g>
</g>
<!-- Node39 -->
<g id="Node000039" class="node">
<title>Node39</title>
<g id="a_Node000039"><a xlink:title=" ">
<polygon fill="#e0e0e0" stroke="#999999" points="1462,-20.75 1365,-20.75 1365,0 1462,0 1462,-20.75"/>
<text xml:space="preserve" text-anchor="middle" x="1413.5" y="-7.25" font-family="Helvetica,sans-Serif" font-size="10.00">pcg_random.hpp</text>
</a>
</g>
</g>
<!-- Node38&#45;&gt;Node39 -->
<g id="edge46_Node000038_Node000039" class="edge">
<title>Node38&#45;&gt;Node39</title>
<g id="a_edge46_Node000038_Node000039"><a xlink:title=" ">
<path fill="none" stroke="#63b8ff" d="M1384.96,-62.68C1389.7,-54.16 1396.7,-41.58 1402.58,-31.01"/>
<polygon fill="#63b8ff" stroke="#63b8ff" points="1405.62,-32.73 1407.43,-22.29 1399.51,-29.33 1405.62,-32.73"/>
</a>
</g>
</g>
</g>
</svg>
