<?xml version="1.0" encoding="UTF-8" standalone="no"?>
<!DOCTYPE svg PUBLIC "-//W3C//DTD SVG 1.1//EN"
 "http://www.w3.org/Graphics/SVG/1.1/DTD/svg11.dtd">
<!-- Generated by graphviz version 15.1.0 (20260618.0150)
 -->
<!-- Title: include/Move_run.hpp Pages: 1 -->
<svg width="2565pt" height="269pt"
 viewBox="0.00 0.00 2565.00 269.00" xmlns="http://www.w3.org/2000/svg" xmlns:xlink="http://www.w3.org/1999/xlink">
<g id="graph0" class="graph" transform="scale(1 1) rotate(0) translate(4 264.5)">
<title>include/Move_run.hpp</title>
<!-- Node1 -->
<g id="Node000001" class="node">
<title>Node1</title>
<g id="a_Node000001"><a xlink:title="Shared value&#45;oriented orchestration for ergodic&#45;move strategies.">
<polygon fill="#999999" stroke="#666666" points="507.62,-260.5 384.38,-260.5 384.38,-239.75 507.62,-239.75 507.62,-260.5"/>
<text xml:space="preserve" text-anchor="middle" x="446" y="-247" font-family="Helvetica,sans-Serif" font-size="10.00">include/Move_run.hpp</text>
</a>
</g>
</g>
<!-- Node2 -->
<g id="Node000002" class="node">
<title>Node2</title>
<g id="a_Node000002"><a xlink:title=" ">
<polygon fill="#e0e0e0" stroke="#999999" points="237.12,-203.75 158.88,-203.75 158.88,-183 237.12,-183 237.12,-203.75"/>
<text xml:space="preserve" text-anchor="middle" x="198" y="-190.25" font-family="Helvetica,sans-Serif" font-size="10.00">fmt/format.h</text>
</a>
</g>
</g>
<!-- Node1&#45;&gt;Node2 -->
<g id="edge1_Node000001_Node000002" class="edge">
<title>Node1&#45;&gt;Node2</title>
<g id="a_edge1_Node000001_Node000002"><a xlink:title=" ">
<path fill="none" stroke="#63b8ff" d="M401.38,-239.27C358.4,-229.79 293.48,-215.45 248.6,-205.55"/>
<polygon fill="#63b8ff" stroke="#63b8ff" points="249.36,-202.13 238.84,-203.39 247.85,-208.96 249.36,-202.13"/>
</a>
</g>
</g>
<!-- Node3 -->
<g id="Node000003" class="node">
<title>Node3</title>
<g id="a_Node000003"><a xlink:title=" ">
<polygon fill="#e0e0e0" stroke="#999999" points="316.5,-203.75 255.5,-203.75 255.5,-183 316.5,-183 316.5,-203.75"/>
<text xml:space="preserve" text-anchor="middle" x="286" y="-190.25" font-family="Helvetica,sans-Serif" font-size="10.00">expected</text>
</a>
</g>
</g>
<!-- Node1&#45;&gt;Node3 -->
<g id="edge2_Node000001_Node000003" class="edge">
<title>Node1&#45;&gt;Node3</title>
<g id="a_edge2_Node000001_Node000003"><a xlink:title=" ">
<path fill="none" stroke="#63b8ff" d="M417.4,-239.34C391.76,-230.57 353.93,-217.62 325.43,-207.87"/>
<polygon fill="#63b8ff" stroke="#63b8ff" points="326.65,-204.59 316.06,-204.66 324.39,-211.21 326.65,-204.59"/>
</a>
</g>
</g>
<!-- Node4 -->
<g id="Node000004" class="node">
<title>Node4</title>
<g id="a_Node000004"><a xlink:title=" ">
<polygon fill="#e0e0e0" stroke="#999999" points="399.38,-203.75 334.62,-203.75 334.62,-183 399.38,-183 399.38,-203.75"/>
<text xml:space="preserve" text-anchor="middle" x="367" y="-190.25" font-family="Helvetica,sans-Serif" font-size="10.00">functional</text>
</a>
</g>
</g>
<!-- Node1&#45;&gt;Node4 -->
<g id="edge3_Node000001_Node000004" class="edge">
<title>Node1&#45;&gt;Node4</title>
<g id="a_edge3_Node000001_Node000004"><a xlink:title=" ">
<path fill="none" stroke="#63b8ff" d="M431.88,-239.34C420.31,-231.32 403.7,-219.81 390.18,-210.44"/>
<polygon fill="#63b8ff" stroke="#63b8ff" points="392.46,-207.76 382.25,-204.94 388.47,-213.51 392.46,-207.76"/>
</a>
</g>
</g>
<!-- Node5 -->
<g id="Node000005" class="node">
<title>Node5</title>
<g id="a_Node000005"><a xlink:title=" ">
<polygon fill="#e0e0e0" stroke="#999999" points="64,-83.88 0,-83.88 0,-63.12 64,-63.12 64,-83.88"/>
<text xml:space="preserve" text-anchor="middle" x="32" y="-70.38" font-family="Helvetica,sans-Serif" font-size="10.00">stdexcept</text>
</a>
</g>
</g>
<!-- Node1&#45;&gt;Node5 -->
<g id="edge4_Node000001_Node000005" class="edge">
<title>Node1&#45;&gt;Node5</title>
<g id="a_edge4_Node000001_Node000005"><a xlink:title=" ">
<path fill="none" stroke="#63b8ff" d="M443.08,-239.45C438.22,-224.96 427.04,-197.77 408,-183 285.92,-88.32 219.72,-138.62 73,-90.25 70.94,-89.57 68.82,-88.85 66.7,-88.1"/>
<polygon fill="#63b8ff" stroke="#63b8ff" points="68.16,-84.9 57.56,-84.74 65.74,-91.47 68.16,-84.9"/>
</a>
</g>
</g>
<!-- Node6 -->
<g id="Node000006" class="node">
<title>Node6</title>
<g id="a_Node000006"><a xlink:title=" ">
<polygon fill="#e0e0e0" stroke="#999999" points="154.12,-83.88 81.88,-83.88 81.88,-63.12 154.12,-63.12 154.12,-83.88"/>
<text xml:space="preserve" text-anchor="middle" x="118" y="-70.38" font-family="Helvetica,sans-Serif" font-size="10.00">string_view</text>
</a>
</g>
</g>
<!-- Node1&#45;&gt;Node6 -->
<g id="edge5_Node000001_Node000006" class="edge">
<title>Node1&#45;&gt;Node6</title>
<g id="a_edge5_Node000001_Node000006"><a xlink:title=" ">
<path fill="none" stroke="#63b8ff" d="M449.31,-239.28C456.4,-216.18 470.12,-158.07 441,-126.25 399.09,-80.46 224.44,-104.37 164,-90.25 160.84,-89.51 157.59,-88.64 154.35,-87.69"/>
<polygon fill="#63b8ff" stroke="#63b8ff" points="155.56,-84.4 144.97,-84.71 153.44,-91.07 155.56,-84.4"/>
</a>
</g>
</g>
<!-- Node7 -->
<g id="Node000007" class="node">
<title>Node7</title>
<g id="a_Node000007"><a xlink:title=" ">
<polygon fill="#e0e0e0" stroke="#999999" points="2557.25,-203.75 2512.75,-203.75 2512.75,-183 2557.25,-183 2557.25,-203.75"/>
<text xml:space="preserve" text-anchor="middle" x="2535" y="-190.25" font-family="Helvetica,sans-Serif" font-size="10.00">utility</text>
</a>
</g>
</g>
<!-- Node1&#45;&gt;Node7 -->
<g id="edge6_Node000001_Node000007" class="edge">
<title>Node1&#45;&gt;Node7</title>
<g id="a_edge6_Node000001_Node000007"><a xlink:title=" ">
<path fill="none" stroke="#63b8ff" d="M507.87,-248.61C828.93,-245.85 2297.9,-231.77 2499,-203.75 2499.68,-203.66 2500.36,-203.55 2501.05,-203.44"/>
<polygon fill="#63b8ff" stroke="#63b8ff" points="2501.73,-206.88 2510.83,-201.44 2500.33,-200.02 2501.73,-206.88"/>
</a>
</g>
</g>
<!-- Node8 -->
<g id="Node000008" class="node">
<title>Node8</title>
<g id="a_Node000008"><a xlink:href="_move__tracker_8hpp.html" target="_top" xlink:title="Track ergodic moves.">
<polygon fill="white" stroke="#666666" points="733.12,-203.75 630.88,-203.75 630.88,-183 733.12,-183 733.12,-203.75"/>
<text xml:space="preserve" text-anchor="middle" x="682" y="-190.25" font-family="Helvetica,sans-Serif" font-size="10.00">Move_tracker.hpp</text>
</a>
</g>
</g>
<!-- Node1&#45;&gt;Node8 -->
<g id="edge7_Node000001_Node000008" class="edge">
<title>Node1&#45;&gt;Node8</title>
<g id="a_edge7_Node000001_Node000008"><a xlink:title=" ">
<path fill="none" stroke="#63b8ff" d="M488.46,-239.27C527.69,-230.17 586.13,-216.62 628.52,-206.78"/>
<polygon fill="#63b8ff" stroke="#63b8ff" points="629.05,-210.25 638,-204.58 627.47,-203.43 629.05,-210.25"/>
</a>
</g>
</g>
<!-- Node43 -->
<g id="Node000043" class="node">
<title>Node43</title>
<g id="a_Node000043"><a xlink:href="_random_8hpp.html" target="_top" xlink:title="Run&#45;owned random&#45;number generation and reproducible stream splitting.">
<polygon fill="white" stroke="#666666" points="2433.75,-83.88 2356.25,-83.88 2356.25,-63.12 2433.75,-63.12 2433.75,-83.88"/>
<text xml:space="preserve" text-anchor="middle" x="2395" y="-70.38" font-family="Helvetica,sans-Serif" font-size="10.00">Random.hpp</text>
</a>
</g>
</g>
<!-- Node1&#45;&gt;Node43 -->
<g id="edge56_Node000001_Node000043" class="edge">
<title>Node1&#45;&gt;Node43</title>
<g id="a_edge56_Node000001_Node000043"><a xlink:title=" ">
<path fill="none" stroke="#63b8ff" d="M507.94,-249.31C747.58,-248.92 1636.06,-237.05 2348,-90.25 2351.43,-89.54 2354.96,-88.66 2358.46,-87.68"/>
<polygon fill="#63b8ff" stroke="#63b8ff" points="2359.47,-91.03 2368,-84.74 2357.41,-84.34 2359.47,-91.03"/>
</a>
</g>
</g>
<!-- Node9 -->
<g id="Node000009" class="node">
<title>Node9</title>
<g id="a_Node000009"><a xlink:title=" ">
<polygon fill="#e0e0e0" stroke="#999999" points="308.75,-83.88 267.25,-83.88 267.25,-63.12 308.75,-63.12 308.75,-83.88"/>
<text xml:space="preserve" text-anchor="middle" x="288" y="-70.38" font-family="Helvetica,sans-Serif" font-size="10.00">array</text>
</a>
</g>
</g>
<!-- Node8&#45;&gt;Node9 -->
<g id="edge8_Node000008_Node000009" class="edge">
<title>Node8&#45;&gt;Node9</title>
<g id="a_edge8_Node000008_Node000009"><a xlink:title=" ">
<path fill="none" stroke="#63b8ff" d="M682.33,-182.97C682.29,-168.35 679.85,-140.36 663,-126.25 603.74,-76.61 390.84,-113.14 317,-90.25 315.85,-89.89 314.69,-89.49 313.54,-89.05"/>
<polygon fill="#63b8ff" stroke="#63b8ff" points="315.37,-86.04 304.83,-84.99 312.41,-92.38 315.37,-86.04"/>
</a>
</g>
</g>
<!-- Node10 -->
<g id="Node000010" class="node">
<title>Node10</title>
<g id="a_Node000010"><a xlink:title=" ">
<polygon fill="#e0e0e0" stroke="#999999" points="1185,-147 1133,-147 1133,-126.25 1185,-126.25 1185,-147"/>
<text xml:space="preserve" text-anchor="middle" x="1159" y="-133.5" font-family="Helvetica,sans-Serif" font-size="10.00">cstddef</text>
</a>
</g>
</g>
<!-- Node8&#45;&gt;Node10 -->
<g id="edge9_Node000008_Node000010" class="edge">
<title>Node8&#45;&gt;Node10</title>
<g id="a_edge9_Node000008_Node000010"><a xlink:title=" ">
<path fill="none" stroke="#63b8ff" d="M733.42,-189.76C814.21,-185.08 975.89,-173.35 1121.81,-147.14"/>
<polygon fill="#63b8ff" stroke="#63b8ff" points="1122.03,-150.66 1131.24,-145.42 1120.77,-143.77 1122.03,-150.66"/>
</a>
</g>
</g>
<!-- Node11 -->
<g id="Node000011" class="node">
<title>Node11</title>
<g id="a_Node000011"><a xlink:title=" ">
<polygon fill="#e0e0e0" stroke="#999999" points="580.5,-147 531.5,-147 531.5,-126.25 580.5,-126.25 580.5,-147"/>
<text xml:space="preserve" text-anchor="middle" x="556" y="-133.5" font-family="Helvetica,sans-Serif" font-size="10.00">gsl/util</text>
</a>
</g>
</g>
<!-- Node8&#45;&gt;Node11 -->
<g id="edge10_Node000008_Node000011" class="edge">
<title>Node8&#45;&gt;Node11</title>
<g id="a_edge10_Node000008_Node000011"><a xlink:title=" ">
<path fill="none" stroke="#63b8ff" d="M659.47,-182.59C639.76,-174.02 610.89,-161.48 588.65,-151.81"/>
<polygon fill="#63b8ff" stroke="#63b8ff" points="590.29,-148.71 579.72,-147.93 587.5,-155.13 590.29,-148.71"/>
</a>
</g>
</g>
<!-- Node12 -->
<g id="Node000012" class="node">
<title>Node12</title>
<g id="a_Node000012"><a xlink:title=" ">
<polygon fill="#e0e0e0" stroke="#999999" points="653.88,-147 598.12,-147 598.12,-126.25 653.88,-126.25 653.88,-147"/>
<text xml:space="preserve" text-anchor="middle" x="626" y="-133.5" font-family="Helvetica,sans-Serif" font-size="10.00">numeric</text>
</a>
</g>
</g>
<!-- Node8&#45;&gt;Node12 -->
<g id="edge11_Node000008_Node000012" class="edge">
<title>Node8&#45;&gt;Node12</title>
<g id="a_edge11_Node000008_Node000012"><a xlink:title=" ">
<path fill="none" stroke="#63b8ff" d="M671.99,-182.59C664.26,-175.03 653.37,-164.39 644.13,-155.35"/>
<polygon fill="#63b8ff" stroke="#63b8ff" points="646.6,-152.87 637.01,-148.39 641.71,-157.88 646.6,-152.87"/>
</a>
</g>
</g>
<!-- Node13 -->
<g id="Node000013" class="node">
<title>Node13</title>
<g id="a_Node000013"><a xlink:title=" ">
<polygon fill="#e0e0e0" stroke="#999999" points="2540.75,-20.75 2487.25,-20.75 2487.25,0 2540.75,0 2540.75,-20.75"/>
<text xml:space="preserve" text-anchor="middle" x="2514" y="-7.25" font-family="Helvetica,sans-Serif" font-size="10.00">random</text>
</a>
</g>
</g>
<!-- Node8&#45;&gt;Node13 -->
<g id="edge12_Node000008_Node000013" class="edge">
<title>Node8&#45;&gt;Node13</title>
<g id="a_edge12_Node000008_Node000013"><a xlink:title=" ">
<path fill="none" stroke="#63b8ff" d="M733.48,-191.16C1021.5,-184.18 2422.91,-147.33 2493,-90.25 2509.96,-76.44 2514.1,-50.6 2514.72,-32.26"/>
<polygon fill="#63b8ff" stroke="#63b8ff" points="2518.22,-32.52 2514.7,-22.52 2511.22,-32.53 2518.22,-32.52"/>
</a>
</g>
</g>
<!-- Node14 -->
<g id="Node000014" class="node">
<title>Node14</title>
<g id="a_Node000014"><a xlink:title=" ">
<polygon fill="#e0e0e0" stroke="#999999" points="365.62,-83.88 326.38,-83.88 326.38,-63.12 365.62,-63.12 365.62,-83.88"/>
<text xml:space="preserve" text-anchor="middle" x="346" y="-70.38" font-family="Helvetica,sans-Serif" font-size="10.00">span</text>
</a>
</g>
</g>
<!-- Node8&#45;&gt;Node14 -->
<g id="edge13_Node000008_Node000014" class="edge">
<title>Node8&#45;&gt;Node14</title>
<g id="a_edge13_Node000008_Node000014"><a xlink:title=" ">
<path fill="none" stroke="#63b8ff" d="M688.69,-182.52C697.43,-168.3 710.06,-142.01 696,-126.25 648.94,-73.52 448.05,-109.35 380,-90.25 378.19,-89.74 376.36,-89.15 374.53,-88.5"/>
<polygon fill="#63b8ff" stroke="#63b8ff" points="376.27,-85.43 365.69,-84.85 373.61,-91.9 376.27,-85.43"/>
</a>
</g>
</g>
<!-- Node15 -->
<g id="Node000015" class="node">
<title>Node15</title>
<g id="a_Node000015"><a xlink:href="_settings_8hpp.html" target="_top" xlink:title="Global integer and precision settings.">
<polygon fill="white" stroke="#666666" points="249.38,-83.88 172.62,-83.88 172.62,-63.12 249.38,-63.12 249.38,-83.88"/>
<text xml:space="preserve" text-anchor="middle" x="211" y="-70.38" font-family="Helvetica,sans-Serif" font-size="10.00">Settings.hpp</text>
</a>
</g>
</g>
<!-- Node8&#45;&gt;Node15 -->
<g id="edge14_Node000008_Node000015" class="edge">
<title>Node8&#45;&gt;Node15</title>
<g id="a_edge14_Node000008_Node000015"><a xlink:title=" ">
<path fill="none" stroke="#63b8ff" d="M640.56,-182.52C608.12,-174.34 562.1,-161.69 523,-147 502.76,-139.4 499.65,-132.66 479,-126.25 383.96,-96.74 354.61,-114.14 258,-90.25 254.87,-89.48 251.64,-88.59 248.42,-87.64"/>
<polygon fill="#63b8ff" stroke="#63b8ff" points="249.66,-84.36 239.07,-84.71 247.56,-91.04 249.66,-84.36"/>
</a>
</g>
</g>
<!-- Node18 -->
<g id="Node000018" class="node">
<title>Node18</title>
<g id="a_Node000018"><a xlink:href="_utilities_8hpp.html" target="_top" xlink:title="Utility functions.">
<polygon fill="white" stroke="#666666" points="1114.62,-147 1039.38,-147 1039.38,-126.25 1114.62,-126.25 1114.62,-147"/>
<text xml:space="preserve" text-anchor="middle" x="1077" y="-133.5" font-family="Helvetica,sans-Serif" font-size="10.00">Utilities.hpp</text>
</a>
</g>
</g>
<!-- Node8&#45;&gt;Node18 -->
<g id="edge17_Node000008_Node000018" class="edge">
<title>Node8&#45;&gt;Node18</title>
<g id="a_edge17_Node000008_Node000018"><a xlink:title=" ">
<path fill="none" stroke="#63b8ff" d="M733.23,-185.27C809.78,-174.66 953,-154.81 1028.14,-144.4"/>
<polygon fill="#63b8ff" stroke="#63b8ff" points="1028.23,-147.92 1037.65,-143.08 1027.27,-140.99 1028.23,-147.92"/>
</a>
</g>
</g>
<!-- Node16 -->
<g id="Node000016" class="node">
<title>Node16</title>
<g id="a_Node000016"><a xlink:title=" ">
<polygon fill="#e0e0e0" stroke="#999999" points="280.5,-20.75 141.5,-20.75 141.5,0 280.5,0 280.5,-20.75"/>
<text xml:space="preserve" text-anchor="middle" x="211" y="-7.25" font-family="Helvetica,sans-Serif" font-size="10.00">CGAL/GMP/Gmpzf_type.h</text>
</a>
</g>
</g>
<!-- Node15&#45;&gt;Node16 -->
<g id="edge15_Node000015_Node000016" class="edge">
<title>Node15&#45;&gt;Node16</title>
<g id="a_edge15_Node000015_Node000016"><a xlink:title=" ">
<path fill="none" stroke="#63b8ff" d="M211,-62.68C211,-54.52 211,-42.63 211,-32.35"/>
<polygon fill="#63b8ff" stroke="#63b8ff" points="214.5,-32.48 211,-22.48 207.5,-32.48 214.5,-32.48"/>
</a>
</g>
</g>
<!-- Node17 -->
<g id="Node000017" class="node">
<title>Node17</title>
<g id="a_Node000017"><a xlink:title=" ">
<polygon fill="#e0e0e0" stroke="#999999" points="418.5,-20.75 369.5,-20.75 369.5,0 418.5,0 418.5,-20.75"/>
<text xml:space="preserve" text-anchor="middle" x="394" y="-7.25" font-family="Helvetica,sans-Serif" font-size="10.00">cstdint</text>
</a>
</g>
</g>
<!-- Node15&#45;&gt;Node17 -->
<g id="edge16_Node000015_Node000017" class="edge">
<title>Node15&#45;&gt;Node17</title>
<g id="a_edge16_Node000015_Node000017"><a xlink:title=" ">
<path fill="none" stroke="#63b8ff" d="M240.33,-62.66C246.18,-60.7 252.29,-58.66 258,-56.75 292.23,-45.3 331.32,-32.26 358.78,-23.11"/>
<polygon fill="#63b8ff" stroke="#63b8ff" points="359.61,-26.52 367.99,-20.04 357.4,-19.88 359.61,-26.52"/>
</a>
</g>
</g>
<!-- Node18&#45;&gt;Node5 -->
<g id="edge37_Node000018_Node000005" class="edge">
<title>Node18&#45;&gt;Node5</title>
<g id="a_edge37_Node000018_Node000005"><a xlink:title=" ">
<path fill="none" stroke="#63b8ff" d="M1038.92,-134.63C867.16,-130.03 168.75,-110.26 73,-90.25 70.19,-89.66 67.32,-88.91 64.47,-88.05"/>
<polygon fill="#63b8ff" stroke="#63b8ff" points="65.76,-84.79 55.17,-84.83 63.47,-91.41 65.76,-84.79"/>
</a>
</g>
</g>
<!-- Node18&#45;&gt;Node6 -->
<g id="edge39_Node000018_Node000006" class="edge">
<title>Node18&#45;&gt;Node6</title>
<g id="a_edge39_Node000018_Node000006"><a xlink:title=" ">
<path fill="none" stroke="#63b8ff" d="M1039.11,-135.15C889,-133.07 335.83,-123.25 164,-90.25 160.44,-89.57 156.77,-88.67 153.14,-87.64"/>
<polygon fill="#63b8ff" stroke="#63b8ff" points="154.52,-84.41 143.93,-84.75 152.42,-91.09 154.52,-84.41"/>
</a>
</g>
</g>
<!-- Node18&#45;&gt;Node9 -->
<g id="edge20_Node000018_Node000009" class="edge">
<title>Node18&#45;&gt;Node9</title>
<g id="a_edge20_Node000018_Node000009"><a xlink:title=" ">
<path fill="none" stroke="#63b8ff" d="M1039.31,-134.34C895.62,-129.3 386.74,-110.2 317,-90.25 315.82,-89.91 314.63,-89.52 313.44,-89.08"/>
<polygon fill="#63b8ff" stroke="#63b8ff" points="315.03,-85.96 304.49,-84.95 312.1,-92.32 315.03,-85.96"/>
</a>
</g>
</g>
<!-- Node18&#45;&gt;Node13 -->
<g id="edge34_Node000018_Node000013" class="edge">
<title>Node18&#45;&gt;Node13</title>
<g id="a_edge34_Node000018_Node000013"><a xlink:title=" ">
<path fill="none" stroke="#63b8ff" d="M1114.88,-127.49C1117.95,-127.01 1121.02,-126.58 1124,-126.25 1197.95,-117.94 2398.12,-126.7 2463,-90.25 2485.38,-77.68 2499.52,-50.74 2507.09,-31.86"/>
<polygon fill="#63b8ff" stroke="#63b8ff" points="2510.36,-33.11 2510.53,-22.52 2503.79,-30.69 2510.36,-33.11"/>
</a>
</g>
</g>
<!-- Node18&#45;&gt;Node14 -->
<g id="edge35_Node000018_Node000014" class="edge">
<title>Node18&#45;&gt;Node14</title>
<g id="a_edge35_Node000018_Node000014"><a xlink:title=" ">
<path fill="none" stroke="#63b8ff" d="M1039.25,-134.99C913.03,-132.58 506.47,-122.46 380,-90.25 378.14,-89.78 376.25,-89.2 374.37,-88.55"/>
<polygon fill="#63b8ff" stroke="#63b8ff" points="375.88,-85.39 365.3,-84.86 373.24,-91.87 375.88,-85.39"/>
</a>
</g>
</g>
<!-- Node18&#45;&gt;Node15 -->
<g id="edge54_Node000018_Node000015" class="edge">
<title>Node18&#45;&gt;Node15</title>
<g id="a_edge54_Node000018_Node000015"><a xlink:title=" ">
<path fill="none" stroke="#63b8ff" d="M1039.26,-134.87C899.4,-131.88 410.8,-119.53 258,-90.25 254.37,-89.55 250.63,-88.65 246.92,-87.62"/>
<polygon fill="#63b8ff" stroke="#63b8ff" points="248.07,-84.31 237.48,-84.71 246.01,-91 248.07,-84.31"/>
</a>
</g>
</g>
<!-- Node18&#45;&gt;Node17 -->
<g id="edge24_Node000018_Node000017" class="edge">
<title>Node18&#45;&gt;Node17</title>
<g id="a_edge24_Node000018_Node000017"><a xlink:title=" ">
<path fill="none" stroke="#63b8ff" d="M1039.04,-134.27C901.65,-129.19 437.06,-110.57 413,-90.25 396.55,-76.36 392.97,-50.95 392.76,-32.72"/>
<polygon fill="#63b8ff" stroke="#63b8ff" points="396.26,-32.82 393.01,-22.74 389.26,-32.65 396.26,-32.82"/>
</a>
</g>
</g>
<!-- Node19 -->
<g id="Node000019" class="node">
<title>Node19</title>
<g id="a_Node000019"><a xlink:title=" ">
<polygon fill="#e0e0e0" stroke="#999999" points="2257.12,-83.88 2166.88,-83.88 2166.88,-63.12 2257.12,-63.12 2257.12,-83.88"/>
<text xml:space="preserve" text-anchor="middle" x="2212" y="-70.38" font-family="Helvetica,sans-Serif" font-size="10.00">CGAL/version.h</text>
</a>
</g>
</g>
<!-- Node18&#45;&gt;Node19 -->
<g id="edge18_Node000018_Node000019" class="edge">
<title>Node18&#45;&gt;Node19</title>
<g id="a_edge18_Node000018_Node000019"><a xlink:title=" ">
<path fill="none" stroke="#63b8ff" d="M1114.88,-127.52C1117.96,-127.03 1121.02,-126.6 1124,-126.25 1578.54,-73.32 1700.38,-157.69 2153,-90.25 2158.35,-89.45 2163.92,-88.35 2169.4,-87.09"/>
<polygon fill="#63b8ff" stroke="#63b8ff" points="2170.11,-90.52 2178.96,-84.7 2168.41,-83.73 2170.11,-90.52"/>
</a>
</g>
</g>
<!-- Node20 -->
<g id="Node000020" class="node">
<title>Node20</title>
<g id="a_Node000020"><a xlink:title=" ">
<polygon fill="#e0e0e0" stroke="#999999" points="2338.62,-83.88 2275.38,-83.88 2275.38,-63.12 2338.62,-63.12 2338.62,-83.88"/>
<text xml:space="preserve" text-anchor="middle" x="2307" y="-70.38" font-family="Helvetica,sans-Serif" font-size="10.00">algorithm</text>
</a>
</g>
</g>
<!-- Node18&#45;&gt;Node20 -->
<g id="edge19_Node000018_Node000020" class="edge">
<title>Node18&#45;&gt;Node20</title>
<g id="a_edge19_Node000018_Node000020"><a xlink:title=" ">
<path fill="none" stroke="#63b8ff" d="M1114.88,-127.51C1117.96,-127.02 1121.02,-126.59 1124,-126.25 1376.25,-97.32 2017.11,-140.48 2266,-90.25 2268.98,-89.65 2272.03,-88.85 2275.05,-87.94"/>
<polygon fill="#63b8ff" stroke="#63b8ff" points="2275.98,-91.32 2284.27,-84.73 2273.68,-84.71 2275.98,-91.32"/>
</a>
</g>
</g>
<!-- Node21 -->
<g id="Node000021" class="node">
<title>Node21</title>
<g id="a_Node000021"><a xlink:title=" ">
<polygon fill="#e0e0e0" stroke="#999999" points="482.12,-83.88 421.88,-83.88 421.88,-63.12 482.12,-63.12 482.12,-83.88"/>
<text xml:space="preserve" text-anchor="middle" x="452" y="-70.38" font-family="Helvetica,sans-Serif" font-size="10.00">charconv</text>
</a>
</g>
</g>
<!-- Node18&#45;&gt;Node21 -->
<g id="edge21_Node000018_Node000021" class="edge">
<title>Node18&#45;&gt;Node21</title>
<g id="a_edge21_Node000018_Node000021"><a xlink:title=" ">
<path fill="none" stroke="#63b8ff" d="M1039.23,-134.16C927.01,-129.59 596.86,-114.39 492,-90.25 489.52,-89.68 486.99,-88.98 484.46,-88.2"/>
<polygon fill="#63b8ff" stroke="#63b8ff" points="485.65,-84.91 475.06,-84.88 483.32,-91.51 485.65,-84.91"/>
</a>
</g>
</g>
<!-- Node22 -->
<g id="Node000022" class="node">
<title>Node22</title>
<g id="a_Node000022"><a xlink:title=" ">
<polygon fill="#e0e0e0" stroke="#999999" points="547.38,-83.88 500.62,-83.88 500.62,-63.12 547.38,-63.12 547.38,-83.88"/>
<text xml:space="preserve" text-anchor="middle" x="524" y="-70.38" font-family="Helvetica,sans-Serif" font-size="10.00">cmath</text>
</a>
</g>
</g>
<!-- Node18&#45;&gt;Node22 -->
<g id="edge22_Node000018_Node000022" class="edge">
<title>Node18&#45;&gt;Node22</title>
<g id="a_edge22_Node000018_Node000022"><a xlink:title=" ">
<path fill="none" stroke="#63b8ff" d="M1038.98,-134.07C935.07,-129.54 648.04,-115.07 557,-90.25 555.19,-89.76 553.36,-89.17 551.53,-88.51"/>
<polygon fill="#63b8ff" stroke="#63b8ff" points="553.33,-85.47 542.76,-84.8 550.6,-91.92 553.33,-85.47"/>
</a>
</g>
</g>
<!-- Node23 -->
<g id="Node000023" class="node">
<title>Node23</title>
<g id="a_Node000023"><a xlink:title=" ">
<polygon fill="#e0e0e0" stroke="#999999" points="2230.75,-20.75 2171.25,-20.75 2171.25,0 2230.75,0 2230.75,-20.75"/>
<text xml:space="preserve" text-anchor="middle" x="2201" y="-7.25" font-family="Helvetica,sans-Serif" font-size="10.00">concepts</text>
</a>
</g>
</g>
<!-- Node18&#45;&gt;Node23 -->
<g id="edge23_Node000018_Node000023" class="edge">
<title>Node18&#45;&gt;Node23</title>
<g id="a_edge23_Node000018_Node000023"><a xlink:title=" ">
<path fill="none" stroke="#63b8ff" d="M1114.88,-127.53C1117.96,-127.03 1121.02,-126.6 1124,-126.25 1233.99,-113.38 2018.18,-133.79 2120,-90.25 2127.89,-86.88 2162.77,-51.34 2184.1,-29.13"/>
<polygon fill="#63b8ff" stroke="#63b8ff" points="2186.36,-31.84 2190.74,-22.19 2181.3,-27 2186.36,-31.84"/>
</a>
</g>
</g>
<!-- Node24 -->
<g id="Node000024" class="node">
<title>Node24</title>
<g id="a_Node000024"><a xlink:title=" ">
<polygon fill="#e0e0e0" stroke="#999999" points="632.5,-83.88 565.5,-83.88 565.5,-63.12 632.5,-63.12 632.5,-83.88"/>
<text xml:space="preserve" text-anchor="middle" x="599" y="-70.38" font-family="Helvetica,sans-Serif" font-size="10.00">filesystem</text>
</a>
</g>
</g>
<!-- Node18&#45;&gt;Node24 -->
<g id="edge25_Node000018_Node000024" class="edge">
<title>Node18&#45;&gt;Node24</title>
<g id="a_edge25_Node000018_Node000024"><a xlink:title=" ">
<path fill="none" stroke="#63b8ff" d="M1038.95,-134.8C962.68,-132.47 786.06,-123.6 642,-90.25 639.05,-89.57 636.03,-88.74 633.02,-87.82"/>
<polygon fill="#63b8ff" stroke="#63b8ff" points="634.37,-84.58 623.77,-84.72 632.14,-91.22 634.37,-84.58"/>
</a>
</g>
</g>
<!-- Node25 -->
<g id="Node000025" class="node">
<title>Node25</title>
<g id="a_Node000025"><a xlink:title=" ">
<polygon fill="#e0e0e0" stroke="#999999" points="705.12,-83.88 650.88,-83.88 650.88,-63.12 705.12,-63.12 705.12,-83.88"/>
<text xml:space="preserve" text-anchor="middle" x="678" y="-70.38" font-family="Helvetica,sans-Serif" font-size="10.00">fstream</text>
</a>
</g>
</g>
<!-- Node18&#45;&gt;Node25 -->
<g id="edge26_Node000018_Node000025" class="edge">
<title>Node18&#45;&gt;Node25</title>
<g id="a_edge26_Node000018_Node000025"><a xlink:title=" ">
<path fill="none" stroke="#63b8ff" d="M1038.94,-134.46C972.06,-131.62 829.59,-122.04 714,-90.25 712.01,-89.7 710,-89.07 707.98,-88.37"/>
<polygon fill="#63b8ff" stroke="#63b8ff" points="709.43,-85.18 698.84,-84.77 706.86,-91.69 709.43,-85.18"/>
</a>
</g>
</g>
<!-- Node26 -->
<g id="Node000026" class="node">
<title>Node26</title>
<g id="a_Node000026"><a xlink:title=" ">
<polygon fill="#e0e0e0" stroke="#999999" points="770.75,-83.88 723.25,-83.88 723.25,-63.12 770.75,-63.12 770.75,-83.88"/>
<text xml:space="preserve" text-anchor="middle" x="747" y="-70.38" font-family="Helvetica,sans-Serif" font-size="10.00">gsl/gsl</text>
</a>
</g>
</g>
<!-- Node18&#45;&gt;Node26 -->
<g id="edge27_Node000018_Node000026" class="edge">
<title>Node18&#45;&gt;Node26</title>
<g id="a_edge27_Node000018_Node000026"><a xlink:title=" ">
<path fill="none" stroke="#63b8ff" d="M1039.17,-133.41C981.96,-129.26 870.49,-118.09 780,-90.25 778.45,-89.77 776.87,-89.23 775.3,-88.65"/>
<polygon fill="#63b8ff" stroke="#63b8ff" points="777.08,-85.6 766.51,-84.91 774.34,-92.04 777.08,-85.6"/>
</a>
</g>
</g>
<!-- Node27 -->
<g id="Node000027" class="node">
<title>Node27</title>
<g id="a_Node000027"><a xlink:title=" ">
<polygon fill="#e0e0e0" stroke="#999999" points="844.88,-83.88 789.12,-83.88 789.12,-63.12 844.88,-63.12 844.88,-83.88"/>
<text xml:space="preserve" text-anchor="middle" x="817" y="-70.38" font-family="Helvetica,sans-Serif" font-size="10.00">iomanip</text>
</a>
</g>
</g>
<!-- Node18&#45;&gt;Node27 -->
<g id="edge28_Node000018_Node000027" class="edge">
<title>Node18&#45;&gt;Node27</title>
<g id="a_edge28_Node000018_Node000027"><a xlink:title=" ">
<path fill="none" stroke="#63b8ff" d="M1038.93,-130.28C994.06,-123.43 917.57,-110.02 854,-90.25 852.17,-89.68 850.3,-89.05 848.43,-88.38"/>
<polygon fill="#63b8ff" stroke="#63b8ff" points="849.85,-85.18 839.27,-84.8 847.3,-91.7 849.85,-85.18"/>
</a>
</g>
</g>
<!-- Node28 -->
<g id="Node000028" class="node">
<title>Node28</title>
<g id="a_Node000028"><a xlink:title=" ">
<polygon fill="#e0e0e0" stroke="#999999" points="2468.88,-20.75 2425.12,-20.75 2425.12,0 2468.88,0 2468.88,-20.75"/>
<text xml:space="preserve" text-anchor="middle" x="2447" y="-7.25" font-family="Helvetica,sans-Serif" font-size="10.00">limits</text>
</a>
</g>
</g>
<!-- Node18&#45;&gt;Node28 -->
<g id="edge29_Node000018_Node000028" class="edge">
<title>Node18&#45;&gt;Node28</title>
<g id="a_edge29_Node000018_Node000028"><a xlink:title=" ">
<path fill="none" stroke="#63b8ff" d="M1114.88,-127.5C1117.95,-127.01 1121.02,-126.59 1124,-126.25 1196.85,-118.05 2390.56,-141.47 2443,-90.25 2458.06,-75.54 2456.49,-50.09 2452.83,-32.09"/>
<polygon fill="#63b8ff" stroke="#63b8ff" points="2456.26,-31.39 2450.49,-22.5 2449.46,-33.05 2456.26,-31.39"/>
</a>
</g>
</g>
<!-- Node29 -->
<g id="Node000029" class="node">
<title>Node29</title>
<g id="a_Node000029"><a xlink:title=" ">
<polygon fill="#e0e0e0" stroke="#999999" points="908.62,-83.88 863.38,-83.88 863.38,-63.12 908.62,-63.12 908.62,-83.88"/>
<text xml:space="preserve" text-anchor="middle" x="886" y="-70.38" font-family="Helvetica,sans-Serif" font-size="10.00">locale</text>
</a>
</g>
</g>
<!-- Node18&#45;&gt;Node29 -->
<g id="edge30_Node000018_Node000029" class="edge">
<title>Node18&#45;&gt;Node29</title>
<g id="a_edge30_Node000018_Node000029"><a xlink:title=" ">
<path fill="none" stroke="#63b8ff" d="M1039.11,-126.85C1006.5,-118.82 958.45,-105.83 918,-90.25 916.87,-89.82 915.73,-89.36 914.59,-88.88"/>
<polygon fill="#63b8ff" stroke="#63b8ff" points="916.29,-85.81 905.74,-84.86 913.4,-92.18 916.29,-85.81"/>
</a>
</g>
</g>
<!-- Node30 -->
<g id="Node000030" class="node">
<title>Node30</title>
<g id="a_Node000030"><a xlink:title=" ">
<polygon fill="#e0e0e0" stroke="#999999" points="964.88,-83.88 927.12,-83.88 927.12,-63.12 964.88,-63.12 964.88,-83.88"/>
<text xml:space="preserve" text-anchor="middle" x="946" y="-70.38" font-family="Helvetica,sans-Serif" font-size="10.00">map</text>
</a>
</g>
</g>
<!-- Node18&#45;&gt;Node30 -->
<g id="edge31_Node000018_Node000030" class="edge">
<title>Node18&#45;&gt;Node30</title>
<g id="a_edge31_Node000018_Node000030"><a xlink:title=" ">
<path fill="none" stroke="#63b8ff" d="M1052.97,-125.82C1031.9,-117.04 1000.57,-103.53 974,-90.25 973.54,-90.02 973.07,-89.78 972.61,-89.55"/>
<polygon fill="#63b8ff" stroke="#63b8ff" points="974.54,-86.61 964.07,-84.98 971.24,-92.78 974.54,-86.61"/>
</a>
</g>
</g>
<!-- Node31 -->
<g id="Node000031" class="node">
<title>Node31</title>
<g id="a_Node000031"><a xlink:title=" ">
<polygon fill="#e0e0e0" stroke="#999999" points="1030.75,-83.88 983.25,-83.88 983.25,-63.12 1030.75,-63.12 1030.75,-83.88"/>
<text xml:space="preserve" text-anchor="middle" x="1007" y="-70.38" font-family="Helvetica,sans-Serif" font-size="10.00">mutex</text>
</a>
</g>
</g>
<!-- Node18&#45;&gt;Node31 -->
<g id="edge32_Node000018_Node000031" class="edge">
<title>Node18&#45;&gt;Node31</title>
<g id="a_edge32_Node000018_Node000031"><a xlink:title=" ">
<path fill="none" stroke="#63b8ff" d="M1065.75,-125.8C1055.18,-116.57 1039.13,-102.56 1026.48,-91.51"/>
<polygon fill="#63b8ff" stroke="#63b8ff" points="1028.96,-89.03 1019.13,-85.09 1024.36,-94.3 1028.96,-89.03"/>
</a>
</g>
</g>
<!-- Node32 -->
<g id="Node000032" class="node">
<title>Node32</title>
<g id="a_Node000032"><a xlink:title=" ">
<polygon fill="#e0e0e0" stroke="#999999" points="1104.88,-83.88 1049.12,-83.88 1049.12,-63.12 1104.88,-63.12 1104.88,-83.88"/>
<text xml:space="preserve" text-anchor="middle" x="1077" y="-70.38" font-family="Helvetica,sans-Serif" font-size="10.00">optional</text>
</a>
</g>
</g>
<!-- Node18&#45;&gt;Node32 -->
<g id="edge33_Node000018_Node000032" class="edge">
<title>Node18&#45;&gt;Node32</title>
<g id="a_edge33_Node000018_Node000032"><a xlink:title=" ">
<path fill="none" stroke="#63b8ff" d="M1077,-125.8C1077,-117.65 1077,-105.76 1077,-95.48"/>
<polygon fill="#63b8ff" stroke="#63b8ff" points="1080.5,-95.61 1077,-85.61 1073.5,-95.61 1080.5,-95.61"/>
</a>
</g>
</g>
<!-- Node33 -->
<g id="Node000033" class="node">
<title>Node33</title>
<g id="a_Node000033"><a xlink:title=" ">
<polygon fill="#e0e0e0" stroke="#999999" points="1178.88,-83.88 1123.12,-83.88 1123.12,-63.12 1178.88,-63.12 1178.88,-83.88"/>
<text xml:space="preserve" text-anchor="middle" x="1151" y="-70.38" font-family="Helvetica,sans-Serif" font-size="10.00">sstream</text>
</a>
</g>
</g>
<!-- Node18&#45;&gt;Node33 -->
<g id="edge36_Node000018_Node000033" class="edge">
<title>Node18&#45;&gt;Node33</title>
<g id="a_edge36_Node000018_Node000033"><a xlink:title=" ">
<path fill="none" stroke="#63b8ff" d="M1088.89,-125.8C1100.18,-116.48 1117.36,-102.28 1130.8,-91.19"/>
<polygon fill="#63b8ff" stroke="#63b8ff" points="1132.74,-94.13 1138.22,-85.06 1128.28,-88.73 1132.74,-94.13"/>
</a>
</g>
</g>
<!-- Node34 -->
<g id="Node000034" class="node">
<title>Node34</title>
<g id="a_Node000034"><a xlink:title=" ">
<polygon fill="#e0e0e0" stroke="#999999" points="1240.88,-83.88 1197.12,-83.88 1197.12,-63.12 1240.88,-63.12 1240.88,-83.88"/>
<text xml:space="preserve" text-anchor="middle" x="1219" y="-70.38" font-family="Helvetica,sans-Serif" font-size="10.00">string</text>
</a>
</g>
</g>
<!-- Node18&#45;&gt;Node34 -->
<g id="edge38_Node000018_Node000034" class="edge">
<title>Node18&#45;&gt;Node34</title>
<g id="a_edge38_Node000018_Node000034"><a xlink:title=" ">
<path fill="none" stroke="#63b8ff" d="M1102.83,-125.76C1125.49,-116.94 1159.22,-103.41 1188,-90.25 1188.76,-89.9 1189.53,-89.54 1190.31,-89.18"/>
<polygon fill="#63b8ff" stroke="#63b8ff" points="1191.62,-92.44 1199.07,-84.91 1188.55,-86.14 1191.62,-92.44"/>
</a>
</g>
</g>
<!-- Node35 -->
<g id="Node000035" class="node">
<title>Node35</title>
<g id="a_Node000035"><a xlink:title=" ">
<polygon fill="#e0e0e0" stroke="#999999" points="1327.25,-83.88 1258.75,-83.88 1258.75,-63.12 1327.25,-63.12 1327.25,-83.88"/>
<text xml:space="preserve" text-anchor="middle" x="1293" y="-70.38" font-family="Helvetica,sans-Serif" font-size="10.00">type_traits</text>
</a>
</g>
</g>
<!-- Node18&#45;&gt;Node35 -->
<g id="edge40_Node000018_Node000035" class="edge">
<title>Node18&#45;&gt;Node35</title>
<g id="a_edge40_Node000018_Node000035"><a xlink:title=" ">
<path fill="none" stroke="#63b8ff" d="M1115.09,-126.73C1150.34,-118.24 1204.08,-104.65 1250,-90.25 1252.25,-89.54 1254.56,-88.79 1256.88,-88.01"/>
<polygon fill="#63b8ff" stroke="#63b8ff" points="1257.96,-91.34 1266.24,-84.73 1255.65,-84.73 1257.96,-91.34"/>
</a>
</g>
</g>
<!-- Node36 -->
<g id="Node000036" class="node">
<title>Node36</title>
<g id="a_Node000036"><a xlink:title=" ">
<polygon fill="#e0e0e0" stroke="#999999" points="1392.38,-83.88 1345.62,-83.88 1345.62,-63.12 1392.38,-63.12 1392.38,-83.88"/>
<text xml:space="preserve" text-anchor="middle" x="1369" y="-70.38" font-family="Helvetica,sans-Serif" font-size="10.00">vector</text>
</a>
</g>
</g>
<!-- Node18&#45;&gt;Node36 -->
<g id="edge41_Node000018_Node000036" class="edge">
<title>Node18&#45;&gt;Node36</title>
<g id="a_edge41_Node000018_Node000036"><a xlink:title=" ">
<path fill="none" stroke="#63b8ff" d="M1114.95,-127.96C1118.01,-127.37 1121.05,-126.79 1124,-126.25 1217.98,-108.9 1244.89,-119.11 1336,-90.25 1337.55,-89.76 1339.12,-89.21 1340.69,-88.61"/>
<polygon fill="#63b8ff" stroke="#63b8ff" points="1341.66,-92.01 1349.47,-84.85 1338.9,-85.57 1341.66,-92.01"/>
</a>
</g>
</g>
<!-- Node37 -->
<g id="Node000037" class="node">
<title>Node37</title>
<g id="a_Node000037"><a xlink:title=" ">
<polygon fill="#e0e0e0" stroke="#999999" points="1462,-83.88 1410,-83.88 1410,-63.12 1462,-63.12 1462,-83.88"/>
<text xml:space="preserve" text-anchor="middle" x="1436" y="-70.38" font-family="Helvetica,sans-Serif" font-size="10.00">version</text>
</a>
</g>
</g>
<!-- Node18&#45;&gt;Node37 -->
<g id="edge42_Node000018_Node000037" class="edge">
<title>Node18&#45;&gt;Node37</title>
<g id="a_edge42_Node000018_Node000037"><a xlink:title=" ">
<path fill="none" stroke="#63b8ff" d="M1114.92,-127.83C1117.99,-127.27 1121.04,-126.74 1124,-126.25 1246.5,-106.1 1281.55,-124.09 1401,-90.25 1402.81,-89.74 1404.64,-89.15 1406.47,-88.5"/>
<polygon fill="#63b8ff" stroke="#63b8ff" points="1407.38,-91.91 1415.35,-84.94 1404.77,-85.42 1407.38,-91.91"/>
</a>
</g>
</g>
<!-- Node38 -->
<g id="Node000038" class="node">
<title>Node38</title>
<g id="a_Node000038"><a xlink:title=" ">
<polygon fill="#e0e0e0" stroke="#999999" points="1551.75,-83.88 1480.25,-83.88 1480.25,-63.12 1551.75,-63.12 1551.75,-83.88"/>
<text xml:space="preserve" text-anchor="middle" x="1516" y="-70.38" font-family="Helvetica,sans-Serif" font-size="10.00">date/date.h</text>
</a>
</g>
</g>
<!-- Node18&#45;&gt;Node38 -->
<g id="edge43_Node000018_Node000038" class="edge">
<title>Node18&#45;&gt;Node38</title>
<g id="a_edge43_Node000018_Node000038"><a xlink:title=" ">
<path fill="none" stroke="#63b8ff" d="M1114.91,-127.75C1117.98,-127.21 1121.04,-126.7 1124,-126.25 1277.31,-103.06 1319.69,-124.09 1471,-90.25 1474.18,-89.54 1477.45,-88.67 1480.7,-87.72"/>
<polygon fill="#63b8ff" stroke="#63b8ff" points="1481.66,-91.09 1490.1,-84.69 1479.51,-84.42 1481.66,-91.09"/>
</a>
</g>
</g>
<!-- Node39 -->
<g id="Node000039" class="node">
<title>Node39</title>
<g id="a_Node000039"><a xlink:title=" ">
<polygon fill="#e0e0e0" stroke="#999999" points="1655.88,-83.88 1570.12,-83.88 1570.12,-63.12 1655.88,-63.12 1655.88,-83.88"/>
<text xml:space="preserve" text-anchor="middle" x="1613" y="-70.38" font-family="Helvetica,sans-Serif" font-size="10.00">fmt/ostream.h</text>
</a>
</g>
</g>
<!-- Node18&#45;&gt;Node39 -->
<g id="edge44_Node000018_Node000039" class="edge">
<title>Node18&#45;&gt;Node39</title>
<g id="a_edge44_Node000018_Node000039"><a xlink:title=" ">
<path fill="none" stroke="#63b8ff" d="M1114.9,-127.68C1117.97,-127.15 1121.03,-126.67 1124,-126.25 1316.99,-99.14 1369.56,-126.7 1561,-90.25 1565.09,-89.47 1569.31,-88.49 1573.5,-87.41"/>
<polygon fill="#63b8ff" stroke="#63b8ff" points="1574.25,-90.83 1582.93,-84.76 1572.36,-84.09 1574.25,-90.83"/>
</a>
</g>
</g>
<!-- Node40 -->
<g id="Node000040" class="node">
<title>Node40</title>
<g id="a_Node000040"><a xlink:title=" ">
<polygon fill="#e0e0e0" stroke="#999999" points="1779.62,-90.25 1674.38,-90.25 1674.38,-56.75 1779.62,-56.75 1779.62,-90.25"/>
<text xml:space="preserve" text-anchor="start" x="1682.38" y="-76.75" font-family="Helvetica,sans-Serif" font-size="10.00">spdlog/sinks/basic</text>
<text xml:space="preserve" text-anchor="middle" x="1727" y="-64" font-family="Helvetica,sans-Serif" font-size="10.00">_file_sink.h</text>
</a>
</g>
</g>
<!-- Node18&#45;&gt;Node40 -->
<g id="edge45_Node000018_Node000040" class="edge">
<title>Node18&#45;&gt;Node40</title>
<g id="a_edge45_Node000018_Node000040"><a xlink:title=" ">
<path fill="none" stroke="#63b8ff" d="M1114.89,-127.63C1117.97,-127.11 1121.03,-126.64 1124,-126.25 1359.27,-95.09 1425.03,-127.07 1662.94,-90.37"/>
<polygon fill="#63b8ff" stroke="#63b8ff" points="1663.2,-93.87 1672.54,-88.87 1662.12,-86.96 1663.2,-93.87"/>
</a>
</g>
</g>
<!-- Node41 -->
<g id="Node000041" class="node">
<title>Node41</title>
<g id="a_Node000041"><a xlink:title=" ">
<polygon fill="#e0e0e0" stroke="#999999" points="1908.25,-90.25 1797.75,-90.25 1797.75,-56.75 1908.25,-56.75 1908.25,-90.25"/>
<text xml:space="preserve" text-anchor="start" x="1805.75" y="-76.75" font-family="Helvetica,sans-Serif" font-size="10.00">spdlog/sinks/stdout</text>
<text xml:space="preserve" text-anchor="middle" x="1853" y="-64" font-family="Helvetica,sans-Serif" font-size="10.00">_color_sinks.h</text>
</a>
</g>
</g>
<!-- Node18&#45;&gt;Node41 -->
<g id="edge46_Node000018_Node000041" class="edge">
<title>Node18&#45;&gt;Node41</title>
<g id="a_edge46_Node000018_Node000041"><a xlink:title=" ">
<path fill="none" stroke="#63b8ff" d="M1114.89,-127.58C1117.96,-127.08 1121.03,-126.62 1124,-126.25 1413.93,-89.68 1494.2,-132.69 1785.92,-90.53"/>
<polygon fill="#63b8ff" stroke="#63b8ff" points="1786.39,-94 1795.78,-89.08 1785.37,-87.08 1786.39,-94"/>
</a>
</g>
</g>
<!-- Node42 -->
<g id="Node000042" class="node">
<title>Node42</title>
<g id="a_Node000042"><a xlink:title=" ">
<polygon fill="#e0e0e0" stroke="#999999" points="2019.25,-83.88 1926.75,-83.88 1926.75,-63.12 2019.25,-63.12 2019.25,-83.88"/>
<text xml:space="preserve" text-anchor="middle" x="1973" y="-70.38" font-family="Helvetica,sans-Serif" font-size="10.00">spdlog/spdlog.h</text>
</a>
</g>
</g>
<!-- Node18&#45;&gt;Node42 -->
<g id="edge47_Node000018_Node000042" class="edge">
<title>Node18&#45;&gt;Node42</title>
<g id="a_edge47_Node000018_Node000042"><a xlink:title=" ">
<path fill="none" stroke="#63b8ff" d="M1114.89,-127.56C1117.96,-127.06 1121.03,-126.61 1124,-126.25 1474.22,-83.62 1568.69,-146.38 1917,-90.25 1921.9,-89.46 1926.98,-88.39 1932,-87.19"/>
<polygon fill="#63b8ff" stroke="#63b8ff" points="1932.51,-90.67 1941.3,-84.75 1930.74,-83.9 1932.51,-90.67"/>
</a>
</g>
</g>
<!-- Node18&#45;&gt;Node43 -->
<g id="edge48_Node000018_Node000043" class="edge">
<title>Node18&#45;&gt;Node43</title>
<g id="a_edge48_Node000018_Node000043"><a xlink:title=" ">
<path fill="none" stroke="#63b8ff" d="M1114.88,-127.5C1117.96,-127.02 1121.02,-126.59 1124,-126.25 1394.38,-95.53 2080.1,-138 2348,-90.25 2351.84,-89.56 2355.8,-88.63 2359.71,-87.55"/>
<polygon fill="#63b8ff" stroke="#63b8ff" points="2360.51,-90.97 2369.03,-84.68 2358.44,-84.28 2360.51,-90.97"/>
</a>
</g>
</g>
<!-- Node45 -->
<g id="Node000045" class="node">
<title>Node45</title>
<g id="a_Node000045"><a xlink:title=" ">
<polygon fill="#e0e0e0" stroke="#999999" points="2110.5,-83.88 2037.5,-83.88 2037.5,-63.12 2110.5,-63.12 2110.5,-83.88"/>
<text xml:space="preserve" text-anchor="middle" x="2074" y="-70.38" font-family="Helvetica,sans-Serif" font-size="10.00">Version.hpp</text>
</a>
</g>
</g>
<!-- Node18&#45;&gt;Node45 -->
<g id="edge55_Node000018_Node000045" class="edge">
<title>Node18&#45;&gt;Node45</title>
<g id="a_edge55_Node000018_Node000045"><a xlink:title=" ">
<path fill="none" stroke="#63b8ff" d="M1114.88,-127.54C1117.96,-127.04 1121.03,-126.6 1124,-126.25 1523.28,-78.78 1632.75,-164.15 2028,-90.25 2031.57,-89.58 2035.24,-88.7 2038.87,-87.68"/>
<polygon fill="#63b8ff" stroke="#63b8ff" points="2039.58,-91.12 2048.08,-84.8 2037.49,-84.44 2039.58,-91.12"/>
</a>
</g>
</g>
<!-- Node43&#45;&gt;Node13 -->
<g id="edge52_Node000043_Node000013" class="edge">
<title>Node43&#45;&gt;Node13</title>
<g id="a_edge52_Node000043_Node000013"><a xlink:title=" ">
<path fill="none" stroke="#63b8ff" d="M2414.12,-62.68C2433.2,-52.88 2462.78,-37.68 2484.8,-26.37"/>
<polygon fill="#63b8ff" stroke="#63b8ff" points="2486.29,-29.55 2493.58,-21.86 2483.09,-23.32 2486.29,-29.55"/>
</a>
</g>
</g>
<!-- Node43&#45;&gt;Node17 -->
<g id="edge50_Node000043_Node000017" class="edge">
<title>Node43&#45;&gt;Node17</title>
<g id="a_edge50_Node000043_Node000017"><a xlink:title=" ">
<path fill="none" stroke="#63b8ff" d="M2370.48,-62.74C2363.34,-60.32 2355.46,-58.06 2348,-56.75 2152.33,-22.5 679.73,-12.94 429.95,-11.56"/>
<polygon fill="#63b8ff" stroke="#63b8ff" points="430.21,-8.06 420.19,-11.51 430.17,-15.06 430.21,-8.06"/>
</a>
</g>
</g>
<!-- Node43&#45;&gt;Node23 -->
<g id="edge49_Node000043_Node000023" class="edge">
<title>Node43&#45;&gt;Node23</title>
<g id="a_edge49_Node000043_Node000023"><a xlink:title=" ">
<path fill="none" stroke="#63b8ff" d="M2365.95,-62.65C2360.02,-60.67 2353.82,-58.62 2348,-56.75 2312.27,-45.25 2271.46,-32.7 2241.93,-23.72"/>
<polygon fill="#63b8ff" stroke="#63b8ff" points="2243.22,-20.46 2232.64,-20.9 2241.19,-27.16 2243.22,-20.46"/>
</a>
</g>
</g>
<!-- Node43&#45;&gt;Node28 -->
<g id="edge51_Node000043_Node000028" class="edge">
<title>Node43&#45;&gt;Node28</title>
<g id="a_edge51_Node000043_Node000028"><a xlink:title=" ">
<path fill="none" stroke="#63b8ff" d="M2403.35,-62.68C2410.9,-53.8 2422.21,-40.51 2431.43,-29.68"/>
<polygon fill="#63b8ff" stroke="#63b8ff" points="2434.04,-32.01 2437.86,-22.12 2428.71,-27.47 2434.04,-32.01"/>
</a>
</g>
</g>
<!-- Node44 -->
<g id="Node000044" class="node">
<title>Node44</title>
<g id="a_Node000044"><a xlink:title=" ">
<polygon fill="#e0e0e0" stroke="#999999" points="2407.5,-20.75 2310.5,-20.75 2310.5,0 2407.5,0 2407.5,-20.75"/>
<text xml:space="preserve" text-anchor="middle" x="2359" y="-7.25" font-family="Helvetica,sans-Serif" font-size="10.00">pcg_random.hpp</text>
</a>
</g>
</g>
<!-- Node43&#45;&gt;Node44 -->
<g id="edge53_Node000043_Node000044" class="edge">
<title>Node43&#45;&gt;Node44</title>
<g id="a_edge53_Node000043_Node000044"><a xlink:title=" ">
<path fill="none" stroke="#63b8ff" d="M2389.22,-62.68C2384.15,-54.07 2376.63,-41.31 2370.37,-30.67"/>
<polygon fill="#63b8ff" stroke="#63b8ff" points="2373.51,-29.11 2365.42,-22.27 2367.48,-32.67 2373.51,-29.11"/>
</a>
</g>
</g>
</g>
</svg>
