<?xml version="1.0" encoding="UTF-8" standalone="no"?>
<!DOCTYPE svg PUBLIC "-//W3C//DTD SVG 1.1//EN"
 "http://www.w3.org/Graphics/SVG/1.1/DTD/svg11.dtd">
<!-- Generated by graphviz version 2.43.0 (0)
 -->
<!-- Title: include/Move_always.hpp Pages: 1 -->
<!--zoomable 489 -->
<svg id="main" version="1.1" xmlns="http://www.w3.org/2000/svg" xmlns:xlink="http://www.w3.org/1999/xlink" xml:space="preserve" onload="init(evt)">
<style type="text/css"><![CDATA[
.edge:hover path { stroke: red; }
.edge:hover polygon { stroke: red; fill: red; }
]]></style>
<script type="text/javascript"><![CDATA[
var edges = document.getElementsByTagName('g');
if (edges && edges.length) {
  for (var i=0;i<edges.length;i++) {
    if (edges[i].id.substr(0,4)=='edge') {
      edges[i].setAttribute('class','edge');
    }
  }
}
]]></script>
        <defs>
                <circle id="rim" cx="0" cy="0" r="7"/>
                <circle id="rim2" cx="0" cy="0" r="3.5"/>
                <g id="zoomPlus">
                        <use xlink:href="#rim" fill="#404040">
                                <set attributeName="fill" to="#808080" begin="zoomplus.mouseover" end="zoomplus.mouseout"/>
                        </use>
                        <path d="M-4,0h8M0,-4v8" fill="none" stroke="white" stroke-width="1.5" pointer-events="none"/>
                </g>
                <g id="zoomMin">
                        <use xlink:href="#rim" fill="#404040">
                                <set attributeName="fill" to="#808080" begin="zoomminus.mouseover" end="zoomminus.mouseout"/>
                        </use>
                        <path d="M-4,0h8" fill="none" stroke="white" stroke-width="1.5" pointer-events="none"/>
                </g>
                <g id="dirArrow">
                        <path fill="none" stroke="white" stroke-width="1.5" d="M0,-3.0v7 M-2.5,-0.5L0,-3.0L2.5,-0.5"/>
                </g>
               <g id="resetDef">
                       <use xlink:href="#rim2" fill="#404040">
                               <set attributeName="fill" to="#808080" begin="reset.mouseover" end="reset.mouseout"/>
                       </use>
               </g>
        </defs>

<script type="text/javascript">
var viewWidth = 2154;
var viewHeight = 489;
var sectionId = 'dynsection-0';
</script>
<script xlink:href="svgpan.js"/>
<svg id="graph" class="graph">
<g id="viewport">
<title>include/Move_always.hpp</title>
<!-- Node1 -->
<g id="node1" class="node">
<title>Node1</title>
<g id="a_node1"><a xlink:title="Randomly selects moves to always perform on triangulations.">
<polygon fill="#999999" stroke="#666666" points="1910.5,-481 1767.5,-481 1767.5,-462 1910.5,-462 1910.5,-481"/>
<text text-anchor="middle" x="1839" y="-469" font-family="Helvetica,sans-Serif" font-size="10.00">include/Move_always.hpp</text>
</a>
</g>
</g>
<!-- Node2 -->
<g id="node2" class="node">
<title>Node2</title>
<g id="a_node2"><a xlink:href="_move__command_8hpp.html" target="_top" xlink:title="Do ergodic moves using the Command pattern.">
<polygon fill="white" stroke="#666666" points="1832.5,-426 1713.5,-426 1713.5,-407 1832.5,-407 1832.5,-426"/>
<text text-anchor="middle" x="1773" y="-414" font-family="Helvetica,sans-Serif" font-size="10.00">Move_command.hpp</text>
</a>
</g>
</g>
<!-- Node1&#45;&gt;Node2 -->
<g id="edge1" class="edge">
<title>Node1&#45;&gt;Node2</title>
<path fill="none" stroke="#63b8ff" d="M1828.4,-461.98C1818.54,-454.07 1803.65,-442.11 1791.78,-432.58"/>
<polygon fill="#63b8ff" stroke="#63b8ff" points="1793.79,-429.7 1783.8,-426.17 1789.4,-435.16 1793.79,-429.7"/>
</g>
<!-- Node43 -->
<g id="node43" class="node">
<title>Node43</title>
<g id="a_node43"><a xlink:href="_move__strategy_8hpp.html" target="_top" xlink:title="Template class for move algorithms (strategies) on manifolds.">
<polygon fill="white" stroke="#666666" points="1959.5,-426 1850.5,-426 1850.5,-407 1959.5,-407 1959.5,-426"/>
<text text-anchor="middle" x="1905" y="-414" font-family="Helvetica,sans-Serif" font-size="10.00">Move_strategy.hpp</text>
</a>
</g>
</g>
<!-- Node1&#45;&gt;Node43 -->
<g id="edge51" class="edge">
<title>Node1&#45;&gt;Node43</title>
<path fill="none" stroke="#63b8ff" d="M1849.6,-461.98C1859.46,-454.07 1874.35,-442.11 1886.22,-432.58"/>
<polygon fill="#63b8ff" stroke="#63b8ff" points="1888.6,-435.16 1894.2,-426.17 1884.21,-429.7 1888.6,-435.16"/>
</g>
<!-- Node3 -->
<g id="node3" class="node">
<title>Node3</title>
<g id="a_node3"><a xlink:href="_apply__move_8hpp.html" target="_top" xlink:title="Apply Pachner moves to foliated Delaunay triangulations.">
<polygon fill="white" stroke="#666666" points="1914,-371 1816,-371 1816,-352 1914,-352 1914,-371"/>
<text text-anchor="middle" x="1865" y="-359" font-family="Helvetica,sans-Serif" font-size="10.00">Apply_move.hpp</text>
</a>
</g>
</g>
<!-- Node2&#45;&gt;Node3 -->
<g id="edge2" class="edge">
<title>Node2&#45;&gt;Node3</title>
<path fill="none" stroke="#63b8ff" d="M1787.78,-406.98C1802.18,-398.69 1824.31,-385.94 1841.19,-376.22"/>
<polygon fill="#63b8ff" stroke="#63b8ff" points="1843.03,-379.19 1849.95,-371.17 1839.54,-373.13 1843.03,-379.19"/>
</g>
<!-- Node8 -->
<g id="node8" class="node">
<title>Node8</title>
<g id="a_node8"><a xlink:href="_ergodic__moves__3_8hpp.html" target="_top" xlink:title="Pachner moves on 2+1 dimensional foliated Delaunay triangulations.">
<polygon fill="white" stroke="#666666" points="1759.5,-371 1636.5,-371 1636.5,-352 1759.5,-352 1759.5,-371"/>
<text text-anchor="middle" x="1698" y="-359" font-family="Helvetica,sans-Serif" font-size="10.00">Ergodic_moves_3.hpp</text>
</a>
</g>
</g>
<!-- Node2&#45;&gt;Node8 -->
<g id="edge7" class="edge">
<title>Node2&#45;&gt;Node8</title>
<path fill="none" stroke="#63b8ff" d="M1760.95,-406.98C1749.54,-398.92 1732.17,-386.65 1718.57,-377.03"/>
<polygon fill="#63b8ff" stroke="#63b8ff" points="1720.46,-374.08 1710.27,-371.17 1716.42,-379.8 1720.46,-374.08"/>
</g>
<!-- Node4 -->
<g id="node4" class="node">
<title>Node4</title>
<g id="a_node4"><a xlink:title=" ">
<polygon fill="#e0e0e0" stroke="#999999" points="2145.5,-85 2052.5,-85 2052.5,-66 2145.5,-66 2145.5,-85"/>
<text text-anchor="middle" x="2099" y="-73" font-family="Helvetica,sans-Serif" font-size="10.00">spdlog/spdlog.h</text>
</a>
</g>
</g>
<!-- Node3&#45;&gt;Node4 -->
<g id="edge3" class="edge">
<title>Node3&#45;&gt;Node4</title>
<path fill="none" stroke="#63b8ff" d="M1914.13,-356.86C1977.04,-349.22 2078,-325.58 2078,-252.5 2078,-252.5 2078,-252.5 2078,-195.5 2078,-159.44 2087.47,-118.16 2093.69,-94.92"/>
<polygon fill="#63b8ff" stroke="#63b8ff" points="2097.12,-95.64 2096.42,-85.07 2090.38,-93.77 2097.12,-95.64"/>
</g>
<!-- Node5 -->
<g id="node5" class="node">
<title>Node5</title>
<g id="a_node5"><a xlink:title=" ">
<polygon fill="#e0e0e0" stroke="#999999" points="1821,-316 1759,-316 1759,-297 1821,-297 1821,-316"/>
<text text-anchor="middle" x="1790" y="-304" font-family="Helvetica,sans-Serif" font-size="10.00">expected</text>
</a>
</g>
</g>
<!-- Node3&#45;&gt;Node5 -->
<g id="edge4" class="edge">
<title>Node3&#45;&gt;Node5</title>
<path fill="none" stroke="#63b8ff" d="M1852.95,-351.98C1841.54,-343.92 1824.17,-331.65 1810.57,-322.03"/>
<polygon fill="#63b8ff" stroke="#63b8ff" points="1812.46,-319.08 1802.27,-316.17 1808.42,-324.8 1812.46,-319.08"/>
</g>
<!-- Node6 -->
<g id="node6" class="node">
<title>Node6</title>
<g id="a_node6"><a xlink:title=" ">
<polygon fill="#e0e0e0" stroke="#999999" points="2034,-85 1990,-85 1990,-66 2034,-66 2034,-85"/>
<text text-anchor="middle" x="2012" y="-73" font-family="Helvetica,sans-Serif" font-size="10.00">string</text>
</a>
</g>
</g>
<!-- Node3&#45;&gt;Node6 -->
<g id="edge5" class="edge">
<title>Node3&#45;&gt;Node6</title>
<path fill="none" stroke="#63b8ff" d="M1865,-351.82C1865,-333.48 1865,-289.44 1865,-252.5 1865,-252.5 1865,-252.5 1865,-195.5 1865,-179.51 1950.09,-118.97 1990.79,-90.92"/>
<polygon fill="#63b8ff" stroke="#63b8ff" points="1992.94,-93.69 1999.21,-85.15 1988.99,-87.92 1992.94,-93.69"/>
</g>
<!-- Node7 -->
<g id="node7" class="node">
<title>Node7</title>
<g id="a_node7"><a xlink:title=" ">
<polygon fill="#e0e0e0" stroke="#999999" points="1998.5,-316 1893.5,-316 1893.5,-297 1998.5,-297 1998.5,-316"/>
<text text-anchor="middle" x="1946" y="-304" font-family="Helvetica,sans-Serif" font-size="10.00">tl/function_ref.hpp</text>
</a>
</g>
</g>
<!-- Node3&#45;&gt;Node7 -->
<g id="edge6" class="edge">
<title>Node3&#45;&gt;Node7</title>
<path fill="none" stroke="#63b8ff" d="M1878.01,-351.98C1890.46,-343.84 1909.46,-331.41 1924.21,-321.76"/>
<polygon fill="#63b8ff" stroke="#63b8ff" points="1926.3,-324.57 1932.75,-316.17 1922.46,-318.72 1926.3,-324.57"/>
</g>
<!-- Node8&#45;&gt;Node5 -->
<g id="edge8" class="edge">
<title>Node8&#45;&gt;Node5</title>
<path fill="none" stroke="#63b8ff" d="M1712.78,-351.98C1727.18,-343.69 1749.31,-330.94 1766.19,-321.22"/>
<polygon fill="#63b8ff" stroke="#63b8ff" points="1768.03,-324.19 1774.95,-316.17 1764.54,-318.13 1768.03,-324.19"/>
</g>
<!-- Node9 -->
<g id="node9" class="node">
<title>Node9</title>
<g id="a_node9"><a xlink:href="_formatters_8hpp.html" target="_top" xlink:title="Formatter specializations for various types.">
<polygon fill="white" stroke="#666666" points="1257.5,-316 1166.5,-316 1166.5,-297 1257.5,-297 1257.5,-316"/>
<text text-anchor="middle" x="1212" y="-304" font-family="Helvetica,sans-Serif" font-size="10.00">Formatters.hpp</text>
</a>
</g>
</g>
<!-- Node8&#45;&gt;Node9 -->
<g id="edge9" class="edge">
<title>Node8&#45;&gt;Node9</title>
<path fill="none" stroke="#63b8ff" d="M1636.45,-353.79C1541.14,-343.39 1359.33,-323.57 1267.71,-313.58"/>
<polygon fill="#63b8ff" stroke="#63b8ff" points="1267.85,-310.07 1257.53,-312.47 1267.09,-317.03 1267.85,-310.07"/>
</g>
<!-- Node22 -->
<g id="node22" class="node">
<title>Node22</title>
<g id="a_node22"><a xlink:href="_manifold_8hpp.html" target="_top" xlink:title="Data structures for manifolds.">
<polygon fill="white" stroke="#666666" points="1615,-316 1535,-316 1535,-297 1615,-297 1615,-316"/>
<text text-anchor="middle" x="1575" y="-304" font-family="Helvetica,sans-Serif" font-size="10.00">Manifold.hpp</text>
</a>
</g>
</g>
<!-- Node8&#45;&gt;Node22 -->
<g id="edge22" class="edge">
<title>Node8&#45;&gt;Node22</title>
<path fill="none" stroke="#63b8ff" d="M1678.24,-351.98C1658.27,-343.38 1627.2,-329.99 1604.35,-320.15"/>
<polygon fill="#63b8ff" stroke="#63b8ff" points="1605.69,-316.91 1595.12,-316.17 1602.92,-323.34 1605.69,-316.91"/>
</g>
<!-- Node40 -->
<g id="node40" class="node">
<title>Node40</title>
<g id="a_node40"><a xlink:href="_move__tracker_8hpp.html" target="_top" xlink:title="Track ergodic moves.">
<polygon fill="white" stroke="#666666" points="1747.5,-206 1644.5,-206 1644.5,-187 1747.5,-187 1747.5,-206"/>
<text text-anchor="middle" x="1696" y="-194" font-family="Helvetica,sans-Serif" font-size="10.00">Move_tracker.hpp</text>
</a>
</g>
</g>
<!-- Node8&#45;&gt;Node40 -->
<g id="edge44" class="edge">
<title>Node8&#45;&gt;Node40</title>
<path fill="none" stroke="#63b8ff" d="M1697.89,-351.74C1697.58,-326.31 1696.67,-252.08 1696.24,-216.69"/>
<polygon fill="#63b8ff" stroke="#63b8ff" points="1699.73,-216.26 1696.11,-206.31 1692.73,-216.35 1699.73,-216.26"/>
</g>
<!-- Node10 -->
<g id="node10" class="node">
<title>Node10</title>
<g id="a_node10"><a xlink:title=" ">
<polygon fill="#e0e0e0" stroke="#999999" points="1154.5,-261 1087.5,-261 1087.5,-242 1154.5,-242 1154.5,-261"/>
<text text-anchor="middle" x="1121" y="-249" font-family="Helvetica,sans-Serif" font-size="10.00">fmt/core.h</text>
</a>
</g>
</g>
<!-- Node9&#45;&gt;Node10 -->
<g id="edge10" class="edge">
<title>Node9&#45;&gt;Node10</title>
<path fill="none" stroke="#63b8ff" d="M1197.38,-296.98C1183.14,-288.69 1161.25,-275.94 1144.55,-266.22"/>
<polygon fill="#63b8ff" stroke="#63b8ff" points="1146.29,-263.18 1135.89,-261.17 1142.77,-269.23 1146.29,-263.18"/>
</g>
<!-- Node11 -->
<g id="node11" class="node">
<title>Node11</title>
<g id="a_node11"><a xlink:title=" ">
<polygon fill="#e0e0e0" stroke="#999999" points="1251.5,-261 1172.5,-261 1172.5,-242 1251.5,-242 1251.5,-261"/>
<text text-anchor="middle" x="1212" y="-249" font-family="Helvetica,sans-Serif" font-size="10.00">fmt/format.h</text>
</a>
</g>
</g>
<!-- Node9&#45;&gt;Node11 -->
<g id="edge11" class="edge">
<title>Node9&#45;&gt;Node11</title>
<path fill="none" stroke="#63b8ff" d="M1212,-296.75C1212,-289.8 1212,-279.85 1212,-271.13"/>
<polygon fill="#63b8ff" stroke="#63b8ff" points="1215.5,-271.09 1212,-261.09 1208.5,-271.09 1215.5,-271.09"/>
</g>
<!-- Node12 -->
<g id="node12" class="node">
<title>Node12</title>
<g id="a_node12"><a xlink:title=" ">
<polygon fill="#e0e0e0" stroke="#999999" points="1325,-261 1269,-261 1269,-242 1325,-242 1325,-261"/>
<text text-anchor="middle" x="1297" y="-249" font-family="Helvetica,sans-Serif" font-size="10.00">sstream</text>
</a>
</g>
</g>
<!-- Node9&#45;&gt;Node12 -->
<g id="edge12" class="edge">
<title>Node9&#45;&gt;Node12</title>
<path fill="none" stroke="#63b8ff" d="M1225.66,-296.98C1238.84,-288.77 1259.03,-276.18 1274.57,-266.49"/>
<polygon fill="#63b8ff" stroke="#63b8ff" points="1276.46,-269.43 1283.09,-261.17 1272.76,-263.49 1276.46,-269.43"/>
</g>
<!-- Node13 -->
<g id="node13" class="node">
<title>Node13</title>
<g id="a_node13"><a xlink:href="_triangulation__traits_8hpp.html" target="_top" xlink:title="Traits class for particular uses of CGAL.">
<polygon fill="white" stroke="#666666" points="733.5,-151 602.5,-151 602.5,-132 733.5,-132 733.5,-151"/>
<text text-anchor="middle" x="668" y="-139" font-family="Helvetica,sans-Serif" font-size="10.00">Triangulation_traits.hpp</text>
</a>
</g>
</g>
<!-- Node9&#45;&gt;Node13 -->
<g id="edge13" class="edge">
<title>Node9&#45;&gt;Node13</title>
<path fill="none" stroke="#63b8ff" d="M1183.52,-296.97C1092.65,-269.74 809.56,-184.91 706.24,-153.96"/>
<polygon fill="#63b8ff" stroke="#63b8ff" points="707.11,-150.57 696.53,-151.05 705.1,-157.27 707.11,-150.57"/>
</g>
<!-- Node14 -->
<g id="node14" class="node">
<title>Node14</title>
<g id="a_node14"><a xlink:title=" ">
<polygon fill="#e0e0e0" stroke="#999999" points="506,-85 326,-85 326,-66 506,-66 506,-85"/>
<text text-anchor="middle" x="416" y="-73" font-family="Helvetica,sans-Serif" font-size="10.00">CGAL/Delaunay_triangulation_3.h</text>
</a>
</g>
</g>
<!-- Node13&#45;&gt;Node14 -->
<g id="edge14" class="edge">
<title>Node13&#45;&gt;Node14</title>
<path fill="none" stroke="#63b8ff" d="M634.28,-131.94C589.11,-120.46 508.91,-100.1 459.32,-87.5"/>
<polygon fill="#63b8ff" stroke="#63b8ff" points="460.08,-84.08 449.52,-85.01 458.36,-90.87 460.08,-84.08"/>
</g>
<!-- Node15 -->
<g id="node15" class="node">
<title>Node15</title>
<g id="a_node15"><a xlink:title=" ">
<polygon fill="#e0e0e0" stroke="#999999" points="653.5,-96 524.5,-96 524.5,-55 653.5,-55 653.5,-96"/>
<text text-anchor="start" x="532.5" y="-84" font-family="Helvetica,sans-Serif" font-size="10.00">CGAL/Exact_predicates</text>
<text text-anchor="start" x="532.5" y="-73" font-family="Helvetica,sans-Serif" font-size="10.00">_inexact_constructions</text>
<text text-anchor="middle" x="589" y="-62" font-family="Helvetica,sans-Serif" font-size="10.00">_kernel.h</text>
</a>
</g>
</g>
<!-- Node13&#45;&gt;Node15 -->
<g id="edge15" class="edge">
<title>Node13&#45;&gt;Node15</title>
<path fill="none" stroke="#63b8ff" d="M657.35,-131.87C648,-124.3 633.91,-112.89 620.95,-102.39"/>
<polygon fill="#63b8ff" stroke="#63b8ff" points="623.05,-99.58 613.08,-96.01 618.65,-105.02 623.05,-99.58"/>
</g>
<!-- Node16 -->
<g id="node16" class="node">
<title>Node16</title>
<g id="a_node16"><a xlink:title=" ">
<polygon fill="#e0e0e0" stroke="#999999" points="820.5,-85 671.5,-85 671.5,-66 820.5,-66 820.5,-85"/>
<text text-anchor="middle" x="746" y="-73" font-family="Helvetica,sans-Serif" font-size="10.00">CGAL/point_generators_3.h</text>
</a>
</g>
</g>
<!-- Node13&#45;&gt;Node16 -->
<g id="edge16" class="edge">
<title>Node13&#45;&gt;Node16</title>
<path fill="none" stroke="#63b8ff" d="M678.52,-131.87C691.08,-121.56 712.31,-104.15 727.6,-91.59"/>
<polygon fill="#63b8ff" stroke="#63b8ff" points="729.89,-94.25 735.4,-85.2 725.45,-88.84 729.89,-94.25"/>
</g>
<!-- Node17 -->
<g id="node17" class="node">
<title>Node17</title>
<g id="a_node17"><a xlink:title=" ">
<polygon fill="#e0e0e0" stroke="#999999" points="138,-90.5 0,-90.5 0,-60.5 138,-60.5 138,-90.5"/>
<text text-anchor="start" x="8" y="-78.5" font-family="Helvetica,sans-Serif" font-size="10.00">CGAL/Triangulation</text>
<text text-anchor="middle" x="69" y="-67.5" font-family="Helvetica,sans-Serif" font-size="10.00">_cell_base_with_info_3.h</text>
</a>
</g>
</g>
<!-- Node13&#45;&gt;Node17 -->
<g id="edge17" class="edge">
<title>Node13&#45;&gt;Node17</title>
<path fill="none" stroke="#63b8ff" d="M602.19,-138.25C502.95,-134.1 309.3,-123.04 147,-96 141.58,-95.1 135.98,-94.01 130.39,-92.82"/>
<polygon fill="#63b8ff" stroke="#63b8ff" points="130.89,-89.34 120.36,-90.57 129.36,-96.17 130.89,-89.34"/>
</g>
<!-- Node18 -->
<g id="node18" class="node">
<title>Node18</title>
<g id="a_node18"><a xlink:title=" ">
<polygon fill="#e0e0e0" stroke="#999999" points="308,-90.5 156,-90.5 156,-60.5 308,-60.5 308,-90.5"/>
<text text-anchor="start" x="164" y="-78.5" font-family="Helvetica,sans-Serif" font-size="10.00">CGAL/Triangulation</text>
<text text-anchor="middle" x="232" y="-67.5" font-family="Helvetica,sans-Serif" font-size="10.00">_vertex_base_with_info_3.h</text>
</a>
</g>
</g>
<!-- Node13&#45;&gt;Node18 -->
<g id="edge18" class="edge">
<title>Node13&#45;&gt;Node18</title>
<path fill="none" stroke="#63b8ff" d="M602.37,-134.15C531.63,-126.85 415.88,-113.57 317,-96 311.37,-95 305.54,-93.87 299.71,-92.67"/>
<polygon fill="#63b8ff" stroke="#63b8ff" points="300.42,-89.24 289.91,-90.59 298.97,-96.09 300.42,-89.24"/>
</g>
<!-- Node19 -->
<g id="node19" class="node">
<title>Node19</title>
<g id="a_node19"><a xlink:href="_settings_8hpp.html" target="_top" xlink:title="Global integer and precision settings.">
<polygon fill="white" stroke="#666666" points="915.5,-85 838.5,-85 838.5,-66 915.5,-66 915.5,-85"/>
<text text-anchor="middle" x="877" y="-73" font-family="Helvetica,sans-Serif" font-size="10.00">Settings.hpp</text>
</a>
</g>
</g>
<!-- Node13&#45;&gt;Node19 -->
<g id="edge19" class="edge">
<title>Node13&#45;&gt;Node19</title>
<path fill="none" stroke="#63b8ff" d="M703.53,-131.94C736.4,-123.73 786.44,-110.47 829,-96 835.15,-93.91 841.64,-91.45 847.81,-88.99"/>
<polygon fill="#63b8ff" stroke="#63b8ff" points="849.18,-92.21 857.11,-85.18 846.53,-85.73 849.18,-92.21"/>
</g>
<!-- Node20 -->
<g id="node20" class="node">
<title>Node20</title>
<g id="a_node20"><a xlink:title=" ">
<polygon fill="#e0e0e0" stroke="#999999" points="890,-19 750,-19 750,0 890,0 890,-19"/>
<text text-anchor="middle" x="820" y="-7" font-family="Helvetica,sans-Serif" font-size="10.00">CGAL/GMP/Gmpzf_type.h</text>
</a>
</g>
</g>
<!-- Node19&#45;&gt;Node20 -->
<g id="edge20" class="edge">
<title>Node19&#45;&gt;Node20</title>
<path fill="none" stroke="#63b8ff" d="M869.31,-65.87C860.52,-56 845.93,-39.61 834.89,-27.22"/>
<polygon fill="#63b8ff" stroke="#63b8ff" points="837.2,-24.55 827.93,-19.41 831.97,-29.2 837.2,-24.55"/>
</g>
<!-- Node21 -->
<g id="node21" class="node">
<title>Node21</title>
<g id="a_node21"><a xlink:title=" ">
<polygon fill="#e0e0e0" stroke="#999999" points="958,-19 908,-19 908,0 958,0 958,-19"/>
<text text-anchor="middle" x="933" y="-7" font-family="Helvetica,sans-Serif" font-size="10.00">cstdint</text>
</a>
</g>
</g>
<!-- Node19&#45;&gt;Node21 -->
<g id="edge21" class="edge">
<title>Node19&#45;&gt;Node21</title>
<path fill="none" stroke="#63b8ff" d="M884.55,-65.87C893.19,-56 907.53,-39.61 918.37,-27.22"/>
<polygon fill="#63b8ff" stroke="#63b8ff" points="921.26,-29.24 925.21,-19.41 915.99,-24.63 921.26,-29.24"/>
</g>
<!-- Node23 -->
<g id="node23" class="node">
<title>Node23</title>
<g id="a_node23"><a xlink:title=" ">
<polygon fill="#e0e0e0" stroke="#999999" points="1483.5,-151 1430.5,-151 1430.5,-132 1483.5,-132 1483.5,-151"/>
<text text-anchor="middle" x="1457" y="-139" font-family="Helvetica,sans-Serif" font-size="10.00">cstddef</text>
</a>
</g>
</g>
<!-- Node22&#45;&gt;Node23 -->
<g id="edge23" class="edge">
<title>Node22&#45;&gt;Node23</title>
<path fill="none" stroke="#63b8ff" d="M1534.81,-298.49C1512.46,-292.43 1486.17,-281.29 1471,-261 1449.16,-231.79 1450.74,-186.72 1453.85,-161.41"/>
<polygon fill="#63b8ff" stroke="#63b8ff" points="1457.35,-161.7 1455.31,-151.3 1450.42,-160.7 1457.35,-161.7"/>
</g>
<!-- Node24 -->
<g id="node24" class="node">
<title>Node24</title>
<g id="a_node24"><a xlink:title=" ">
<polygon fill="#e0e0e0" stroke="#999999" points="1566,-261 1480,-261 1480,-242 1566,-242 1566,-261"/>
<text text-anchor="middle" x="1523" y="-249" font-family="Helvetica,sans-Serif" font-size="10.00">unordered_set</text>
</a>
</g>
</g>
<!-- Node22&#45;&gt;Node24 -->
<g id="edge24" class="edge">
<title>Node22&#45;&gt;Node24</title>
<path fill="none" stroke="#63b8ff" d="M1566.41,-296.75C1558.84,-289.03 1547.62,-277.6 1538.49,-268.28"/>
<polygon fill="#63b8ff" stroke="#63b8ff" points="1540.93,-265.78 1531.43,-261.09 1535.93,-270.68 1540.93,-265.78"/>
</g>
<!-- Node25 -->
<g id="node25" class="node">
<title>Node25</title>
<g id="a_node25"><a xlink:href="_geometry_8hpp.html" target="_top" xlink:title="Geometric scalars of the Manifold used to calculate the Regge action.">
<polygon fill="white" stroke="#666666" points="1669.5,-261 1584.5,-261 1584.5,-242 1669.5,-242 1669.5,-261"/>
<text text-anchor="middle" x="1627" y="-249" font-family="Helvetica,sans-Serif" font-size="10.00">Geometry.hpp</text>
</a>
</g>
</g>
<!-- Node22&#45;&gt;Node25 -->
<g id="edge25" class="edge">
<title>Node22&#45;&gt;Node25</title>
<path fill="none" stroke="#63b8ff" d="M1583.59,-296.75C1591.16,-289.03 1602.38,-277.6 1611.51,-268.28"/>
<polygon fill="#63b8ff" stroke="#63b8ff" points="1614.07,-270.68 1618.57,-261.09 1609.07,-265.78 1614.07,-270.68"/>
</g>
<!-- Node26 -->
<g id="node26" class="node">
<title>Node26</title>
<g id="a_node26"><a xlink:href="_foliated__triangulation_8hpp.html" target="_top" xlink:title="Create foliated spherical triangulations.">
<polygon fill="white" stroke="#666666" points="1626,-206 1482,-206 1482,-187 1626,-187 1626,-206"/>
<text text-anchor="middle" x="1554" y="-194" font-family="Helvetica,sans-Serif" font-size="10.00">Foliated_triangulation.hpp</text>
</a>
</g>
</g>
<!-- Node25&#45;&gt;Node26 -->
<g id="edge26" class="edge">
<title>Node25&#45;&gt;Node26</title>
<path fill="none" stroke="#63b8ff" d="M1615.27,-241.98C1604.27,-234 1587.58,-221.88 1574.4,-212.31"/>
<polygon fill="#63b8ff" stroke="#63b8ff" points="1576.09,-209.21 1565.94,-206.17 1571.98,-214.88 1576.09,-209.21"/>
</g>
<!-- Node26&#45;&gt;Node13 -->
<g id="edge27" class="edge">
<title>Node26&#45;&gt;Node13</title>
<path fill="none" stroke="#63b8ff" d="M1481.87,-191.19C1316.69,-181.3 912.26,-157.11 743.7,-147.03"/>
<polygon fill="#63b8ff" stroke="#63b8ff" points="743.86,-143.53 733.66,-146.43 743.44,-150.52 743.86,-143.53"/>
</g>
<!-- Node27 -->
<g id="node27" class="node">
<title>Node27</title>
<g id="a_node27"><a xlink:href="_utilities_8hpp.html" target="_top" xlink:title="Utility functions.">
<polygon fill="white" stroke="#666666" points="1640,-151 1564,-151 1564,-132 1640,-132 1640,-151"/>
<text text-anchor="middle" x="1602" y="-139" font-family="Helvetica,sans-Serif" font-size="10.00">Utilities.hpp</text>
</a>
</g>
</g>
<!-- Node26&#45;&gt;Node27 -->
<g id="edge28" class="edge">
<title>Node26&#45;&gt;Node27</title>
<path fill="none" stroke="#63b8ff" d="M1561.93,-186.75C1568.85,-179.11 1579.07,-167.82 1587.45,-158.56"/>
<polygon fill="#63b8ff" stroke="#63b8ff" points="1590.1,-160.85 1594.22,-151.09 1584.91,-156.15 1590.1,-160.85"/>
</g>
<!-- Node27&#45;&gt;Node4 -->
<g id="edge42" class="edge">
<title>Node27&#45;&gt;Node4</title>
<path fill="none" stroke="#63b8ff" d="M1640.02,-134.64C1646.67,-133.7 1653.53,-132.78 1660,-132 1829.75,-111.6 1875.94,-132.38 2043,-96 2051.51,-94.15 2060.51,-91.39 2068.75,-88.53"/>
<polygon fill="#63b8ff" stroke="#63b8ff" points="2070.14,-91.75 2078.34,-85.04 2067.74,-85.17 2070.14,-91.75"/>
</g>
<!-- Node27&#45;&gt;Node6 -->
<g id="edge36" class="edge">
<title>Node27&#45;&gt;Node6</title>
<path fill="none" stroke="#63b8ff" d="M1640.04,-134.74C1646.69,-133.78 1653.54,-132.84 1660,-132 1802.38,-113.59 1845.49,-143.41 1981,-96 1984.94,-94.62 1988.89,-92.67 1992.6,-90.53"/>
<polygon fill="#63b8ff" stroke="#63b8ff" points="1994.63,-93.38 2001.15,-85.03 1990.84,-87.5 1994.63,-93.38"/>
</g>
<!-- Node27&#45;&gt;Node19 -->
<g id="edge43" class="edge">
<title>Node27&#45;&gt;Node19</title>
<path fill="none" stroke="#63b8ff" d="M1563.71,-134C1558.44,-133.24 1553.1,-132.55 1548,-132 1271.79,-102.37 1194.76,-158.1 924,-96 917.06,-94.41 909.83,-91.88 903.18,-89.17"/>
<polygon fill="#63b8ff" stroke="#63b8ff" points="904.52,-85.94 893.95,-85.16 901.72,-92.36 904.52,-85.94"/>
</g>
<!-- Node28 -->
<g id="node28" class="node">
<title>Node28</title>
<g id="a_node28"><a xlink:title=" ">
<polygon fill="#e0e0e0" stroke="#999999" points="1636,-85 1568,-85 1568,-66 1636,-66 1636,-85"/>
<text text-anchor="middle" x="1602" y="-73" font-family="Helvetica,sans-Serif" font-size="10.00">filesystem</text>
</a>
</g>
</g>
<!-- Node27&#45;&gt;Node28 -->
<g id="edge29" class="edge">
<title>Node27&#45;&gt;Node28</title>
<path fill="none" stroke="#63b8ff" d="M1602,-131.87C1602,-122.66 1602,-107.79 1602,-95.77"/>
<polygon fill="#63b8ff" stroke="#63b8ff" points="1605.5,-95.41 1602,-85.41 1598.5,-95.41 1605.5,-95.41"/>
</g>
<!-- Node29 -->
<g id="node29" class="node">
<title>Node29</title>
<g id="a_node29"><a xlink:title=" ">
<polygon fill="#e0e0e0" stroke="#999999" points="1709.5,-85 1654.5,-85 1654.5,-66 1709.5,-66 1709.5,-85"/>
<text text-anchor="middle" x="1682" y="-73" font-family="Helvetica,sans-Serif" font-size="10.00">fstream</text>
</a>
</g>
</g>
<!-- Node27&#45;&gt;Node29 -->
<g id="edge30" class="edge">
<title>Node27&#45;&gt;Node29</title>
<path fill="none" stroke="#63b8ff" d="M1612.79,-131.87C1625.67,-121.56 1647.44,-104.15 1663.13,-91.59"/>
<polygon fill="#63b8ff" stroke="#63b8ff" points="1665.5,-94.18 1671.13,-85.2 1661.13,-88.71 1665.5,-94.18"/>
</g>
<!-- Node30 -->
<g id="node30" class="node">
<title>Node30</title>
<g id="a_node30"><a xlink:title=" ">
<polygon fill="#e0e0e0" stroke="#999999" points="1776,-85 1728,-85 1728,-66 1776,-66 1776,-85"/>
<text text-anchor="middle" x="1752" y="-73" font-family="Helvetica,sans-Serif" font-size="10.00">gsl/gsl</text>
</a>
</g>
</g>
<!-- Node27&#45;&gt;Node30 -->
<g id="edge31" class="edge">
<title>Node27&#45;&gt;Node30</title>
<path fill="none" stroke="#63b8ff" d="M1628.56,-131.85C1652.63,-123.67 1688.84,-110.51 1719,-96 1722.67,-94.23 1726.48,-92.19 1730.14,-90.12"/>
<polygon fill="#63b8ff" stroke="#63b8ff" points="1731.97,-93.1 1738.8,-85 1728.41,-87.07 1731.97,-93.1"/>
</g>
<!-- Node31 -->
<g id="node31" class="node">
<title>Node31</title>
<g id="a_node31"><a xlink:title=" ">
<polygon fill="#e0e0e0" stroke="#999999" points="1842,-85 1794,-85 1794,-66 1842,-66 1842,-85"/>
<text text-anchor="middle" x="1818" y="-73" font-family="Helvetica,sans-Serif" font-size="10.00">mutex</text>
</a>
</g>
</g>
<!-- Node27&#45;&gt;Node31 -->
<g id="edge32" class="edge">
<title>Node27&#45;&gt;Node31</title>
<path fill="none" stroke="#63b8ff" d="M1640.17,-134.61C1677.91,-128 1736.84,-115.58 1785,-96 1788.91,-94.41 1792.91,-92.41 1796.71,-90.3"/>
<polygon fill="#63b8ff" stroke="#63b8ff" points="1798.8,-93.13 1805.6,-85.01 1795.22,-87.12 1798.8,-93.13"/>
</g>
<!-- Node32 -->
<g id="node32" class="node">
<title>Node32</title>
<g id="a_node32"><a xlink:title=" ">
<polygon fill="#e0e0e0" stroke="#999999" points="1914,-85 1860,-85 1860,-66 1914,-66 1914,-85"/>
<text text-anchor="middle" x="1887" y="-73" font-family="Helvetica,sans-Serif" font-size="10.00">random</text>
</a>
</g>
</g>
<!-- Node27&#45;&gt;Node32 -->
<g id="edge33" class="edge">
<title>Node27&#45;&gt;Node32</title>
<path fill="none" stroke="#63b8ff" d="M1640.21,-134.36C1705.03,-123.84 1831.42,-102.85 1851,-96 1855.5,-94.43 1860.11,-92.34 1864.47,-90.11"/>
<polygon fill="#63b8ff" stroke="#63b8ff" points="1866.38,-93.06 1873.46,-85.17 1863.01,-86.92 1866.38,-93.06"/>
</g>
<!-- Node33 -->
<g id="node33" class="node">
<title>Node33</title>
<g id="a_node33"><a xlink:title=" ">
<polygon fill="#e0e0e0" stroke="#999999" points="1972,-85 1932,-85 1932,-66 1972,-66 1972,-85"/>
<text text-anchor="middle" x="1952" y="-73" font-family="Helvetica,sans-Serif" font-size="10.00">span</text>
</a>
</g>
</g>
<!-- Node27&#45;&gt;Node33 -->
<g id="edge34" class="edge">
<title>Node27&#45;&gt;Node33</title>
<path fill="none" stroke="#63b8ff" d="M1640.06,-134.87C1646.7,-133.9 1653.55,-132.91 1660,-132 1776.81,-115.45 1812.75,-138 1923,-96 1926.45,-94.69 1929.9,-92.89 1933.15,-90.93"/>
<polygon fill="#63b8ff" stroke="#63b8ff" points="1935.33,-93.68 1941.64,-85.17 1931.4,-87.89 1935.33,-93.68"/>
</g>
<!-- Node34 -->
<g id="node34" class="node">
<title>Node34</title>
<g id="a_node34"><a xlink:title=" ">
<polygon fill="#e0e0e0" stroke="#999999" points="998.5,-85 933.5,-85 933.5,-66 998.5,-66 998.5,-85"/>
<text text-anchor="middle" x="966" y="-73" font-family="Helvetica,sans-Serif" font-size="10.00">stdexcept</text>
</a>
</g>
</g>
<!-- Node27&#45;&gt;Node34 -->
<g id="edge35" class="edge">
<title>Node27&#45;&gt;Node34</title>
<path fill="none" stroke="#63b8ff" d="M1563.71,-134.04C1558.44,-133.28 1553.09,-132.57 1548,-132 1308.51,-105.24 1240.17,-156.83 1007,-96 1001.28,-94.51 995.39,-92.22 989.93,-89.72"/>
<polygon fill="#63b8ff" stroke="#63b8ff" points="991.19,-86.44 980.67,-85.14 988.08,-92.71 991.19,-86.44"/>
</g>
<!-- Node35 -->
<g id="node35" class="node">
<title>Node35</title>
<g id="a_node35"><a xlink:title=" ">
<polygon fill="#e0e0e0" stroke="#999999" points="1075.5,-85 1016.5,-85 1016.5,-66 1075.5,-66 1075.5,-85"/>
<text text-anchor="middle" x="1046" y="-73" font-family="Helvetica,sans-Serif" font-size="10.00">date/tz.h</text>
</a>
</g>
</g>
<!-- Node27&#45;&gt;Node35 -->
<g id="edge37" class="edge">
<title>Node27&#45;&gt;Node35</title>
<path fill="none" stroke="#63b8ff" d="M1563.99,-134.13C1558.63,-133.35 1553.18,-132.61 1548,-132 1343.01,-107.93 1283.89,-151.18 1085,-96 1079.67,-94.52 1074.2,-92.29 1069.11,-89.87"/>
<polygon fill="#63b8ff" stroke="#63b8ff" points="1070.4,-86.6 1059.91,-85.11 1067.18,-92.82 1070.4,-86.6"/>
</g>
<!-- Node36 -->
<g id="node36" class="node">
<title>Node36</title>
<g id="a_node36"><a xlink:title=" ">
<polygon fill="#e0e0e0" stroke="#999999" points="1192,-85 1094,-85 1094,-66 1192,-66 1192,-85"/>
<text text-anchor="middle" x="1143" y="-73" font-family="Helvetica,sans-Serif" font-size="10.00">pcg_random.hpp</text>
</a>
</g>
</g>
<!-- Node27&#45;&gt;Node36 -->
<g id="edge38" class="edge">
<title>Node27&#45;&gt;Node36</title>
<path fill="none" stroke="#63b8ff" d="M1563.98,-134.26C1558.62,-133.45 1553.18,-132.68 1548,-132 1394.25,-111.94 1352.52,-128.91 1201,-96 1192.2,-94.09 1182.86,-91.3 1174.31,-88.43"/>
<polygon fill="#63b8ff" stroke="#63b8ff" points="1175.31,-85.07 1164.71,-85.07 1172.99,-91.68 1175.31,-85.07"/>
</g>
<!-- Node37 -->
<g id="node37" class="node">
<title>Node37</title>
<g id="a_node37"><a xlink:title=" ">
<polygon fill="#e0e0e0" stroke="#999999" points="1296,-85 1210,-85 1210,-66 1296,-66 1296,-85"/>
<text text-anchor="middle" x="1253" y="-73" font-family="Helvetica,sans-Serif" font-size="10.00">fmt/ostream.h</text>
</a>
</g>
</g>
<!-- Node27&#45;&gt;Node37 -->
<g id="edge39" class="edge">
<title>Node27&#45;&gt;Node37</title>
<path fill="none" stroke="#63b8ff" d="M1563.95,-134.47C1558.6,-133.63 1553.16,-132.79 1548,-132 1440.07,-115.51 1410.71,-123.32 1305,-96 1297.56,-94.08 1289.7,-91.46 1282.42,-88.77"/>
<polygon fill="#63b8ff" stroke="#63b8ff" points="1283.52,-85.44 1272.93,-85.11 1281,-91.97 1283.52,-85.44"/>
</g>
<!-- Node38 -->
<g id="node38" class="node">
<title>Node38</title>
<g id="a_node38"><a xlink:title=" ">
<polygon fill="#e0e0e0" stroke="#999999" points="1420,-90.5 1314,-90.5 1314,-60.5 1420,-60.5 1420,-90.5"/>
<text text-anchor="start" x="1322" y="-78.5" font-family="Helvetica,sans-Serif" font-size="10.00">spdlog/sinks/basic</text>
<text text-anchor="middle" x="1367" y="-67.5" font-family="Helvetica,sans-Serif" font-size="10.00">_file_sink.h</text>
</a>
</g>
</g>
<!-- Node27&#45;&gt;Node38 -->
<g id="edge40" class="edge">
<title>Node27&#45;&gt;Node38</title>
<path fill="none" stroke="#63b8ff" d="M1566.95,-131.94C1532.1,-123.32 1477.18,-109.4 1430,-96 1427.07,-95.17 1424.06,-94.3 1421.03,-93.4"/>
<polygon fill="#63b8ff" stroke="#63b8ff" points="1421.91,-90.01 1411.32,-90.51 1419.9,-96.72 1421.91,-90.01"/>
</g>
<!-- Node39 -->
<g id="node39" class="node">
<title>Node39</title>
<g id="a_node39"><a xlink:title=" ">
<polygon fill="#e0e0e0" stroke="#999999" points="1549.5,-90.5 1438.5,-90.5 1438.5,-60.5 1549.5,-60.5 1549.5,-90.5"/>
<text text-anchor="start" x="1446.5" y="-78.5" font-family="Helvetica,sans-Serif" font-size="10.00">spdlog/sinks/stdout</text>
<text text-anchor="middle" x="1494" y="-67.5" font-family="Helvetica,sans-Serif" font-size="10.00">_color_sinks.h</text>
</a>
</g>
</g>
<!-- Node27&#45;&gt;Node39 -->
<g id="edge41" class="edge">
<title>Node27&#45;&gt;Node39</title>
<path fill="none" stroke="#63b8ff" d="M1587.43,-131.87C1571.89,-122.66 1546.75,-107.76 1526.46,-95.74"/>
<polygon fill="#63b8ff" stroke="#63b8ff" points="1528.21,-92.7 1517.82,-90.62 1524.64,-98.72 1528.21,-92.7"/>
</g>
<!-- Node40&#45;&gt;Node19 -->
<g id="edge49" class="edge">
<title>Node40&#45;&gt;Node19</title>
<path fill="none" stroke="#63b8ff" d="M1668.92,-186.94C1614.68,-169.8 1497.46,-132.83 1493,-132 1243.84,-85.84 1170.82,-153.33 924,-96 917.06,-94.39 909.83,-91.86 903.18,-89.15"/>
<polygon fill="#63b8ff" stroke="#63b8ff" points="904.52,-85.91 893.96,-85.13 901.73,-92.33 904.52,-85.91"/>
</g>
<!-- Node40&#45;&gt;Node23 -->
<g id="edge46" class="edge">
<title>Node40&#45;&gt;Node23</title>
<path fill="none" stroke="#63b8ff" d="M1657.6,-186.98C1612.43,-176.97 1537.98,-160.46 1493.6,-150.62"/>
<polygon fill="#63b8ff" stroke="#63b8ff" points="1494.33,-147.19 1483.81,-148.45 1492.81,-154.03 1494.33,-147.19"/>
</g>
<!-- Node40&#45;&gt;Node27 -->
<g id="edge50" class="edge">
<title>Node40&#45;&gt;Node27</title>
<path fill="none" stroke="#63b8ff" d="M1680.9,-186.98C1666.18,-178.69 1643.58,-165.94 1626.33,-156.22"/>
<polygon fill="#63b8ff" stroke="#63b8ff" points="1627.81,-153.03 1617.38,-151.17 1624.37,-159.13 1627.81,-153.03"/>
</g>
<!-- Node40&#45;&gt;Node33 -->
<g id="edge48" class="edge">
<title>Node40&#45;&gt;Node33</title>
<path fill="none" stroke="#63b8ff" d="M1703.15,-186.57C1714.78,-172.66 1739.24,-145.97 1766,-132 1829.46,-98.87 1857.31,-124.45 1923,-96 1926.33,-94.56 1929.69,-92.73 1932.88,-90.76"/>
<polygon fill="#63b8ff" stroke="#63b8ff" points="1934.93,-93.6 1941.26,-85.11 1931.01,-87.8 1934.93,-93.6"/>
</g>
<!-- Node41 -->
<g id="node41" class="node">
<title>Node41</title>
<g id="a_node41"><a xlink:title=" ">
<polygon fill="#e0e0e0" stroke="#999999" points="1817,-151 1775,-151 1775,-132 1817,-132 1817,-151"/>
<text text-anchor="middle" x="1796" y="-139" font-family="Helvetica,sans-Serif" font-size="10.00">array</text>
</a>
</g>
</g>
<!-- Node40&#45;&gt;Node41 -->
<g id="edge45" class="edge">
<title>Node40&#45;&gt;Node41</title>
<path fill="none" stroke="#63b8ff" d="M1712.07,-186.98C1727.86,-178.61 1752.22,-165.7 1770.63,-155.95"/>
<polygon fill="#63b8ff" stroke="#63b8ff" points="1772.44,-158.95 1779.64,-151.17 1769.17,-152.76 1772.44,-158.95"/>
</g>
<!-- Node42 -->
<g id="node42" class="node">
<title>Node42</title>
<g id="a_node42"><a xlink:title=" ">
<polygon fill="#e0e0e0" stroke="#999999" points="1719,-151 1669,-151 1669,-132 1719,-132 1719,-151"/>
<text text-anchor="middle" x="1694" y="-139" font-family="Helvetica,sans-Serif" font-size="10.00">gsl/util</text>
</a>
</g>
</g>
<!-- Node40&#45;&gt;Node42 -->
<g id="edge47" class="edge">
<title>Node40&#45;&gt;Node42</title>
<path fill="none" stroke="#63b8ff" d="M1695.67,-186.75C1695.41,-179.8 1695.03,-169.85 1694.7,-161.13"/>
<polygon fill="#63b8ff" stroke="#63b8ff" points="1698.2,-160.95 1694.32,-151.09 1691.2,-161.21 1698.2,-160.95"/>
</g>
</g>
</svg>
        <g id="navigator" transform="translate(0 0)" fill="#404254">
                <rect fill="#f2f5e9" fill-opacity="0.5" stroke="#606060" stroke-width=".5" x="0" y="0" width="60" height="60"/>
                <use id="zoomplus" xlink:href="#zoomPlus" x="17" y="9" onmousedown="handleZoom(evt,'in')"/>
                <use id="zoomminus" xlink:href="#zoomMin" x="42" y="9" onmousedown="handleZoom(evt,'out')"/>
                <use id="reset" xlink:href="#resetDef" x="30" y="36" onmousedown="handleReset()"/>
                <g id="arrowUp" xlink:href="#dirArrow" transform="translate(30 24)" onmousedown="handlePan(0,-1)">
                  <use xlink:href="#rim" fill="#404040">
                        <set attributeName="fill" to="#808080" begin="arrowUp.mouseover" end="arrowUp.mouseout"/>
                  </use>
                  <path fill="none" stroke="white" stroke-width="1.5" d="M0,-3.0v7 M-2.5,-0.5L0,-3.0L2.5,-0.5"/>
                </g>
                <g id="arrowRight" xlink:href="#dirArrow" transform="rotate(90) translate(36 -43)" onmousedown="handlePan(1,0)">
                  <use xlink:href="#rim" fill="#404040">
                        <set attributeName="fill" to="#808080" begin="arrowRight.mouseover" end="arrowRight.mouseout"/>
                  </use>
                  <path fill="none" stroke="white" stroke-width="1.5" d="M0,-3.0v7 M-2.5,-0.5L0,-3.0L2.5,-0.5"/>
                </g>
                <g id="arrowDown" xlink:href="#dirArrow" transform="rotate(180) translate(-30 -48)" onmousedown="handlePan(0,1)">
                  <use xlink:href="#rim" fill="#404040">
                        <set attributeName="fill" to="#808080" begin="arrowDown.mouseover" end="arrowDown.mouseout"/>
                  </use>
                  <path fill="none" stroke="white" stroke-width="1.5" d="M0,-3.0v7 M-2.5,-0.5L0,-3.0L2.5,-0.5"/>
                </g>
                <g id="arrowLeft" xlink:href="#dirArrow" transform="rotate(270) translate(-36 17)" onmousedown="handlePan(-1,0)">
                  <use xlink:href="#rim" fill="#404040">
                        <set attributeName="fill" to="#808080" begin="arrowLeft.mouseover" end="arrowLeft.mouseout"/>
                  </use>
                  <path fill="none" stroke="white" stroke-width="1.5" d="M0,-3.0v7 M-2.5,-0.5L0,-3.0L2.5,-0.5"/>
                </g>
        </g>
        <svg viewBox="0 0 15 15" width="100%" height="30px" preserveAspectRatio="xMaxYMin meet">
         <g id="arrow_out" transform="scale(0.3 0.3)">
          <a xlink:href="_move__always_8hpp__incl_org.svg" target="_base">
           <rect id="button" ry="5" rx="5" y="6" x="6" height="38" width="38"
                fill="#f2f5e9" fill-opacity="0.5" stroke="#606060" stroke-width="1.0"/>
           <path id="arrow"
             d="M 11.500037,31.436501 C 11.940474,20.09759 22.043105,11.32322 32.158766,21.979434 L 37.068811,17.246167 C 37.068811,17.246167 37.088388,32 37.088388,32 L 22.160133,31.978069 C 22.160133,31.978069 26.997745,27.140456 26.997745,27.140456 C 18.528582,18.264221 13.291696,25.230495 11.500037,31.436501 z"
             style="fill:#404040;"/>
          </a>
         </g>
        </svg>
</svg>
