<?xml version="1.0" encoding="UTF-8" standalone="no"?>
<!DOCTYPE svg PUBLIC "-//W3C//DTD SVG 1.1//EN"
 "http://www.w3.org/Graphics/SVG/1.1/DTD/svg11.dtd">
<!-- Generated by graphviz version 2.43.0 (0)
 -->
<!-- Title: include/Move_strategy.hpp Pages: 1 -->
<svg width="2638pt" height="498pt"
 viewBox="0.00 0.00 2637.50 498.00" xmlns="http://www.w3.org/2000/svg" xmlns:xlink="http://www.w3.org/1999/xlink">
<g id="graph0" class="graph" transform="scale(1 1) rotate(0) translate(4 494)">
<title>include/Move_strategy.hpp</title>
<polygon fill="white" stroke="transparent" points="-4,4 -4,-494 2633.5,-494 2633.5,4 -4,4"/>
<!-- Node1 -->
<g id="node1" class="node">
<title>Node1</title>
<g id="a_node1"><a xlink:title="Template class for move algorithms (strategies) on manifolds.">
<polygon fill="#bfbfbf" stroke="black" points="223.5,-470.5 223.5,-489.5 370.5,-489.5 370.5,-470.5 223.5,-470.5"/>
<text text-anchor="middle" x="297" y="-477.5" font-family="Helvetica,sans-Serif" font-size="10.00">include/Move_strategy.hpp</text>
</a>
</g>
</g>
<!-- Node2 -->
<g id="node2" class="node">
<title>Node2</title>
<g id="a_node2"><a xlink:href="_move__command_8hpp.html" target="_top" xlink:title="Do ergodic moves using the Command pattern.">
<polygon fill="white" stroke="black" points="237.5,-414.5 237.5,-433.5 356.5,-433.5 356.5,-414.5 237.5,-414.5"/>
<text text-anchor="middle" x="297" y="-421.5" font-family="Helvetica,sans-Serif" font-size="10.00">Move_command.hpp</text>
</a>
</g>
</g>
<!-- Node1&#45;&gt;Node2 -->
<g id="edge1" class="edge">
<title>Node1&#45;&gt;Node2</title>
<path fill="none" stroke="midnightblue" d="M297,-470.08C297,-463.01 297,-452.86 297,-443.99"/>
<polygon fill="midnightblue" stroke="midnightblue" points="300.5,-443.75 297,-433.75 293.5,-443.75 300.5,-443.75"/>
</g>
<!-- Node3 -->
<g id="node3" class="node">
<title>Node3</title>
<g id="a_node3"><a xlink:href="_apply__move_8hpp.html" target="_top" xlink:title="Apply Pachner moves to foliated Delaunay triangulations.">
<polygon fill="white" stroke="black" points="184,-358.5 184,-377.5 282,-377.5 282,-358.5 184,-358.5"/>
<text text-anchor="middle" x="233" y="-365.5" font-family="Helvetica,sans-Serif" font-size="10.00">Apply_move.hpp</text>
</a>
</g>
</g>
<!-- Node2&#45;&gt;Node3 -->
<g id="edge2" class="edge">
<title>Node2&#45;&gt;Node3</title>
<path fill="none" stroke="midnightblue" d="M286.72,-414.32C277.16,-406.26 262.72,-394.08 251.22,-384.37"/>
<polygon fill="midnightblue" stroke="midnightblue" points="253.37,-381.61 243.47,-377.83 248.86,-386.96 253.37,-381.61"/>
</g>
<!-- Node9 -->
<g id="node9" class="node">
<title>Node9</title>
<g id="a_node9"><a xlink:href="_ergodic__moves__3_8hpp.html" target="_top" xlink:title="Pachner moves on 2+1 dimensional foliated Delaunay triangulations.">
<polygon fill="white" stroke="black" points="326.5,-358.5 326.5,-377.5 449.5,-377.5 449.5,-358.5 326.5,-358.5"/>
<text text-anchor="middle" x="388" y="-365.5" font-family="Helvetica,sans-Serif" font-size="10.00">Ergodic_moves_3.hpp</text>
</a>
</g>
</g>
<!-- Node2&#45;&gt;Node9 -->
<g id="edge8" class="edge">
<title>Node2&#45;&gt;Node9</title>
<path fill="none" stroke="midnightblue" d="M311.62,-414.32C325.95,-405.82 348.01,-392.73 364.75,-382.8"/>
<polygon fill="midnightblue" stroke="midnightblue" points="366.6,-385.77 373.42,-377.65 363.03,-379.75 366.6,-385.77"/>
</g>
<!-- Node4 -->
<g id="node4" class="node">
<title>Node4</title>
<g id="a_node4"><a xlink:title=" ">
<polygon fill="white" stroke="#bfbfbf" points="62.5,-67.5 62.5,-86.5 155.5,-86.5 155.5,-67.5 62.5,-67.5"/>
<text text-anchor="middle" x="109" y="-74.5" font-family="Helvetica,sans-Serif" font-size="10.00">spdlog/spdlog.h</text>
</a>
</g>
</g>
<!-- Node3&#45;&gt;Node4 -->
<g id="edge3" class="edge">
<title>Node3&#45;&gt;Node4</title>
<path fill="none" stroke="midnightblue" d="M236.64,-358.34C244.01,-340 260,-295.74 260,-257 260,-257 260,-257 260,-199 260,-167.07 176.72,-115.83 133.85,-91.57"/>
<polygon fill="midnightblue" stroke="midnightblue" points="135.31,-88.38 124.87,-86.55 131.89,-94.49 135.31,-88.38"/>
</g>
<!-- Node5 -->
<g id="node5" class="node">
<title>Node5</title>
<g id="a_node5"><a xlink:title=" ">
<polygon fill="white" stroke="#bfbfbf" points="4.5,-302.5 4.5,-321.5 69.5,-321.5 69.5,-302.5 4.5,-302.5"/>
<text text-anchor="middle" x="37" y="-309.5" font-family="Helvetica,sans-Serif" font-size="10.00">functional</text>
</a>
</g>
</g>
<!-- Node3&#45;&gt;Node5 -->
<g id="edge4" class="edge">
<title>Node3&#45;&gt;Node5</title>
<path fill="none" stroke="midnightblue" d="M201.94,-358.44C168.4,-349.2 114.8,-334.44 77.86,-324.26"/>
<polygon fill="midnightblue" stroke="midnightblue" points="78.48,-320.8 67.91,-321.52 76.62,-327.55 78.48,-320.8"/>
</g>
<!-- Node6 -->
<g id="node6" class="node">
<title>Node6</title>
<g id="a_node6"><a xlink:title=" ">
<polygon fill="white" stroke="#bfbfbf" points="0,-67.5 0,-86.5 44,-86.5 44,-67.5 0,-67.5"/>
<text text-anchor="middle" x="22" y="-74.5" font-family="Helvetica,sans-Serif" font-size="10.00">string</text>
</a>
</g>
</g>
<!-- Node3&#45;&gt;Node6 -->
<g id="edge5" class="edge">
<title>Node3&#45;&gt;Node6</title>
<path fill="none" stroke="midnightblue" d="M184.12,-358.48C160.89,-352.09 134.45,-341.02 117,-322 96.65,-299.83 98,-287.1 98,-257 98,-257 98,-257 98,-199 98,-155.48 62.3,-114.77 39.84,-93.47"/>
<polygon fill="midnightblue" stroke="midnightblue" points="41.99,-90.7 32.25,-86.53 37.27,-95.86 41.99,-90.7"/>
</g>
<!-- Node7 -->
<g id="node7" class="node">
<title>Node7</title>
<g id="a_node7"><a xlink:title=" ">
<polygon fill="white" stroke="#bfbfbf" points="315,-302.5 315,-321.5 407,-321.5 407,-302.5 315,-302.5"/>
<text text-anchor="middle" x="361" y="-309.5" font-family="Helvetica,sans-Serif" font-size="10.00">tl/expected.hpp</text>
</a>
</g>
</g>
<!-- Node3&#45;&gt;Node7 -->
<g id="edge6" class="edge">
<title>Node3&#45;&gt;Node7</title>
<path fill="none" stroke="midnightblue" d="M253.28,-358.44C274.35,-349.56 307.52,-335.56 331.49,-325.45"/>
<polygon fill="midnightblue" stroke="midnightblue" points="332.96,-328.63 340.81,-321.52 330.24,-322.18 332.96,-328.63"/>
</g>
<!-- Node8 -->
<g id="node8" class="node">
<title>Node8</title>
<g id="a_node8"><a xlink:title=" ">
<polygon fill="white" stroke="#bfbfbf" points="126.5,-302.5 126.5,-321.5 231.5,-321.5 231.5,-302.5 126.5,-302.5"/>
<text text-anchor="middle" x="179" y="-309.5" font-family="Helvetica,sans-Serif" font-size="10.00">tl/function_ref.hpp</text>
</a>
</g>
</g>
<!-- Node3&#45;&gt;Node8 -->
<g id="edge7" class="edge">
<title>Node3&#45;&gt;Node8</title>
<path fill="none" stroke="midnightblue" d="M224.08,-358.08C216.22,-350.22 204.57,-338.57 195.08,-329.08"/>
<polygon fill="midnightblue" stroke="midnightblue" points="197.3,-326.35 187.75,-321.75 192.35,-331.3 197.3,-326.35"/>
</g>
<!-- Node9&#45;&gt;Node7 -->
<g id="edge9" class="edge">
<title>Node9&#45;&gt;Node7</title>
<path fill="none" stroke="midnightblue" d="M383.54,-358.08C379.85,-350.69 374.48,-339.95 369.91,-330.81"/>
<polygon fill="midnightblue" stroke="midnightblue" points="372.98,-329.13 365.38,-321.75 366.72,-332.26 372.98,-329.13"/>
</g>
<!-- Node10 -->
<g id="node10" class="node">
<title>Node10</title>
<g id="a_node10"><a xlink:href="_manifold_8hpp.html" target="_top" xlink:title="Data structures for manifolds.">
<polygon fill="white" stroke="black" points="751,-302.5 751,-321.5 831,-321.5 831,-302.5 751,-302.5"/>
<text text-anchor="middle" x="791" y="-309.5" font-family="Helvetica,sans-Serif" font-size="10.00">Manifold.hpp</text>
</a>
</g>
</g>
<!-- Node9&#45;&gt;Node10 -->
<g id="edge10" class="edge">
<title>Node9&#45;&gt;Node10</title>
<path fill="none" stroke="midnightblue" d="M449.65,-358.74C529.46,-348.05 667.04,-329.61 740.81,-319.73"/>
<polygon fill="midnightblue" stroke="midnightblue" points="741.34,-323.19 750.78,-318.39 740.41,-316.25 741.34,-323.19"/>
</g>
<!-- Node45 -->
<g id="node45" class="node">
<title>Node45</title>
<g id="a_node45"><a xlink:href="_move__tracker_8hpp.html" target="_top" xlink:title="Track ergodic moves.">
<polygon fill="white" stroke="black" points="588.5,-190.5 588.5,-209.5 691.5,-209.5 691.5,-190.5 588.5,-190.5"/>
<text text-anchor="middle" x="640" y="-197.5" font-family="Helvetica,sans-Serif" font-size="10.00">Move_tracker.hpp</text>
</a>
</g>
</g>
<!-- Node9&#45;&gt;Node45 -->
<g id="edge48" class="edge">
<title>Node9&#45;&gt;Node45</title>
<path fill="none" stroke="midnightblue" d="M401.19,-358.31C442.19,-331.3 567.64,-248.67 618.37,-215.25"/>
<polygon fill="midnightblue" stroke="midnightblue" points="620.51,-218.03 626.94,-209.61 616.66,-212.18 620.51,-218.03"/>
</g>
<!-- Node11 -->
<g id="node11" class="node">
<title>Node11</title>
<g id="a_node11"><a xlink:title=" ">
<polygon fill="white" stroke="#bfbfbf" points="682.5,-134.5 682.5,-153.5 735.5,-153.5 735.5,-134.5 682.5,-134.5"/>
<text text-anchor="middle" x="709" y="-141.5" font-family="Helvetica,sans-Serif" font-size="10.00">cstddef</text>
</a>
</g>
</g>
<!-- Node10&#45;&gt;Node11 -->
<g id="edge11" class="edge">
<title>Node10&#45;&gt;Node11</title>
<path fill="none" stroke="midnightblue" d="M776.92,-302.41C765.04,-294.43 748.49,-281.47 739,-266 719.17,-233.67 712.43,-188.9 710.15,-163.87"/>
<polygon fill="midnightblue" stroke="midnightblue" points="713.62,-163.3 709.37,-153.6 706.64,-163.83 713.62,-163.3"/>
</g>
<!-- Node12 -->
<g id="node12" class="node">
<title>Node12</title>
<g id="a_node12"><a xlink:title=" ">
<polygon fill="white" stroke="#bfbfbf" points="748,-246.5 748,-265.5 834,-265.5 834,-246.5 748,-246.5"/>
<text text-anchor="middle" x="791" y="-253.5" font-family="Helvetica,sans-Serif" font-size="10.00">unordered_set</text>
</a>
</g>
</g>
<!-- Node10&#45;&gt;Node12 -->
<g id="edge12" class="edge">
<title>Node10&#45;&gt;Node12</title>
<path fill="none" stroke="midnightblue" d="M791,-302.08C791,-295.01 791,-284.86 791,-275.99"/>
<polygon fill="midnightblue" stroke="midnightblue" points="794.5,-275.75 791,-265.75 787.5,-275.75 794.5,-275.75"/>
</g>
<!-- Node13 -->
<g id="node13" class="node">
<title>Node13</title>
<g id="a_node13"><a xlink:title=" ">
<polygon fill="white" stroke="#bfbfbf" points="852.5,-246.5 852.5,-265.5 897.5,-265.5 897.5,-246.5 852.5,-246.5"/>
<text text-anchor="middle" x="875" y="-253.5" font-family="Helvetica,sans-Serif" font-size="10.00">utility</text>
</a>
</g>
</g>
<!-- Node10&#45;&gt;Node13 -->
<g id="edge13" class="edge">
<title>Node10&#45;&gt;Node13</title>
<path fill="none" stroke="midnightblue" d="M804.5,-302.32C817.6,-293.9 837.71,-280.97 853.11,-271.07"/>
<polygon fill="midnightblue" stroke="midnightblue" points="855.02,-274.01 861.54,-265.65 851.23,-268.12 855.02,-274.01"/>
</g>
<!-- Node14 -->
<g id="node14" class="node">
<title>Node14</title>
<g id="a_node14"><a xlink:href="_geometry_8hpp.html" target="_top" xlink:title="Geometric scalars of the Manifold used to calculate the Regge action.">
<polygon fill="white" stroke="black" points="1002.5,-246.5 1002.5,-265.5 1087.5,-265.5 1087.5,-246.5 1002.5,-246.5"/>
<text text-anchor="middle" x="1045" y="-253.5" font-family="Helvetica,sans-Serif" font-size="10.00">Geometry.hpp</text>
</a>
</g>
</g>
<!-- Node10&#45;&gt;Node14 -->
<g id="edge14" class="edge">
<title>Node10&#45;&gt;Node14</title>
<path fill="none" stroke="midnightblue" d="M831.25,-302.44C875.65,-293 947.15,-277.8 995.09,-267.61"/>
<polygon fill="midnightblue" stroke="midnightblue" points="995.89,-271.02 1004.94,-265.52 994.43,-264.17 995.89,-271.02"/>
</g>
<!-- Node15 -->
<g id="node15" class="node">
<title>Node15</title>
<g id="a_node15"><a xlink:href="_foliated__triangulation_8hpp.html" target="_top" xlink:title="Create foliated spherical triangulations.">
<polygon fill="white" stroke="black" points="1049,-190.5 1049,-209.5 1193,-209.5 1193,-190.5 1049,-190.5"/>
<text text-anchor="middle" x="1121" y="-197.5" font-family="Helvetica,sans-Serif" font-size="10.00">Foliated_triangulation.hpp</text>
</a>
</g>
</g>
<!-- Node14&#45;&gt;Node15 -->
<g id="edge15" class="edge">
<title>Node14&#45;&gt;Node15</title>
<path fill="none" stroke="midnightblue" d="M1057.21,-246.32C1068.78,-238.11 1086.38,-225.6 1100.16,-215.81"/>
<polygon fill="midnightblue" stroke="midnightblue" points="1102.44,-218.48 1108.57,-209.83 1098.39,-212.77 1102.44,-218.48"/>
</g>
<!-- Node16 -->
<g id="node16" class="node">
<title>Node16</title>
<g id="a_node16"><a xlink:title=" ">
<polygon fill="white" stroke="#bfbfbf" points="2048,-134.5 2048,-153.5 2108,-153.5 2108,-134.5 2048,-134.5"/>
<text text-anchor="middle" x="2078" y="-141.5" font-family="Helvetica,sans-Serif" font-size="10.00">concepts</text>
</a>
</g>
</g>
<!-- Node15&#45;&gt;Node16 -->
<g id="edge16" class="edge">
<title>Node15&#45;&gt;Node16</title>
<path fill="none" stroke="midnightblue" d="M1193.12,-199.81C1346.93,-200.59 1718.53,-197.46 2037.95,-153.88"/>
<polygon fill="midnightblue" stroke="midnightblue" points="2038.44,-157.35 2047.86,-152.51 2037.48,-150.41 2038.44,-157.35"/>
</g>
<!-- Node17 -->
<g id="node17" class="node">
<title>Node17</title>
<g id="a_node17"><a xlink:href="_triangulation__traits_8hpp.html" target="_top" xlink:title="Traits class for particular uses of CGAL.">
<polygon fill="white" stroke="black" points="1898.5,-134.5 1898.5,-153.5 2029.5,-153.5 2029.5,-134.5 1898.5,-134.5"/>
<text text-anchor="middle" x="1964" y="-141.5" font-family="Helvetica,sans-Serif" font-size="10.00">Triangulation_traits.hpp</text>
</a>
</g>
</g>
<!-- Node15&#45;&gt;Node17 -->
<g id="edge17" class="edge">
<title>Node15&#45;&gt;Node17</title>
<path fill="none" stroke="midnightblue" d="M1193.24,-194.37C1351.27,-184.25 1726.43,-160.22 1887.92,-149.87"/>
<polygon fill="midnightblue" stroke="midnightblue" points="1888.49,-153.34 1898.24,-149.21 1888.04,-146.36 1888.49,-153.34"/>
</g>
<!-- Node26 -->
<g id="node26" class="node">
<title>Node26</title>
<g id="a_node26"><a xlink:href="_utilities_8hpp.html" target="_top" xlink:title="Utility functions.">
<polygon fill="white" stroke="black" points="962,-134.5 962,-153.5 1038,-153.5 1038,-134.5 962,-134.5"/>
<text text-anchor="middle" x="1000" y="-141.5" font-family="Helvetica,sans-Serif" font-size="10.00">Utilities.hpp</text>
</a>
</g>
</g>
<!-- Node15&#45;&gt;Node26 -->
<g id="edge26" class="edge">
<title>Node15&#45;&gt;Node26</title>
<path fill="none" stroke="midnightblue" d="M1101.83,-190.44C1082.09,-181.64 1051.11,-167.81 1028.51,-157.72"/>
<polygon fill="midnightblue" stroke="midnightblue" points="1029.64,-154.4 1019.08,-153.52 1026.79,-160.79 1029.64,-154.4"/>
</g>
<!-- Node18 -->
<g id="node18" class="node">
<title>Node18</title>
<g id="a_node18"><a xlink:title=" ">
<polygon fill="white" stroke="#bfbfbf" points="2302,-67.5 2302,-86.5 2482,-86.5 2482,-67.5 2302,-67.5"/>
<text text-anchor="middle" x="2392" y="-74.5" font-family="Helvetica,sans-Serif" font-size="10.00">CGAL/Delaunay_triangulation_3.h</text>
</a>
</g>
</g>
<!-- Node17&#45;&gt;Node18 -->
<g id="edge18" class="edge">
<title>Node17&#45;&gt;Node18</title>
<path fill="none" stroke="midnightblue" d="M2029.82,-134.5C2110.87,-123.95 2243.83,-106.32 2293,-98 2309.17,-95.26 2326.73,-91.86 2342.52,-88.64"/>
<polygon fill="midnightblue" stroke="midnightblue" points="2343.52,-92 2352.6,-86.56 2342.1,-85.15 2343.52,-92"/>
</g>
<!-- Node19 -->
<g id="node19" class="node">
<title>Node19</title>
<g id="a_node19"><a xlink:title=" ">
<polygon fill="white" stroke="#bfbfbf" points="2500.5,-56.5 2500.5,-97.5 2629.5,-97.5 2629.5,-56.5 2500.5,-56.5"/>
<text text-anchor="start" x="2508.5" y="-85.5" font-family="Helvetica,sans-Serif" font-size="10.00">CGAL/Exact_predicates</text>
<text text-anchor="start" x="2508.5" y="-74.5" font-family="Helvetica,sans-Serif" font-size="10.00">_inexact_constructions</text>
<text text-anchor="middle" x="2565" y="-63.5" font-family="Helvetica,sans-Serif" font-size="10.00">_kernel.h</text>
</a>
</g>
</g>
<!-- Node17&#45;&gt;Node19 -->
<g id="edge19" class="edge">
<title>Node17&#45;&gt;Node19</title>
<path fill="none" stroke="midnightblue" d="M2029.83,-134.95C2032.93,-134.62 2036,-134.3 2039,-134 2236.3,-114.31 2290.7,-131.85 2490.26,-97.95"/>
<polygon fill="midnightblue" stroke="midnightblue" points="2490.92,-101.39 2500.18,-96.24 2489.73,-94.49 2490.92,-101.39"/>
</g>
<!-- Node20 -->
<g id="node20" class="node">
<title>Node20</title>
<g id="a_node20"><a xlink:title=" ">
<polygon fill="white" stroke="#bfbfbf" points="1808.5,-67.5 1808.5,-86.5 1957.5,-86.5 1957.5,-67.5 1808.5,-67.5"/>
<text text-anchor="middle" x="1883" y="-74.5" font-family="Helvetica,sans-Serif" font-size="10.00">CGAL/point_generators_3.h</text>
</a>
</g>
</g>
<!-- Node17&#45;&gt;Node20 -->
<g id="edge20" class="edge">
<title>Node17&#45;&gt;Node20</title>
<path fill="none" stroke="midnightblue" d="M1953.08,-134.23C1939.96,-123.71 1917.74,-105.88 1901.84,-93.12"/>
<polygon fill="midnightblue" stroke="midnightblue" points="1903.74,-90.16 1893.75,-86.63 1899.36,-95.62 1903.74,-90.16"/>
</g>
<!-- Node21 -->
<g id="node21" class="node">
<title>Node21</title>
<g id="a_node21"><a xlink:title=" ">
<polygon fill="white" stroke="#bfbfbf" points="1976,-62 1976,-92 2114,-92 2114,-62 1976,-62"/>
<text text-anchor="start" x="1984" y="-80" font-family="Helvetica,sans-Serif" font-size="10.00">CGAL/Triangulation</text>
<text text-anchor="middle" x="2045" y="-69" font-family="Helvetica,sans-Serif" font-size="10.00">_cell_base_with_info_3.h</text>
</a>
</g>
</g>
<!-- Node17&#45;&gt;Node21 -->
<g id="edge21" class="edge">
<title>Node17&#45;&gt;Node21</title>
<path fill="none" stroke="midnightblue" d="M1974.92,-134.23C1986.29,-125.11 2004.5,-110.5 2019.5,-98.46"/>
<polygon fill="midnightblue" stroke="midnightblue" points="2021.83,-101.08 2027.44,-92.09 2017.45,-95.62 2021.83,-101.08"/>
</g>
<!-- Node22 -->
<g id="node22" class="node">
<title>Node22</title>
<g id="a_node22"><a xlink:title=" ">
<polygon fill="white" stroke="#bfbfbf" points="2132,-62 2132,-92 2284,-92 2284,-62 2132,-62"/>
<text text-anchor="start" x="2140" y="-80" font-family="Helvetica,sans-Serif" font-size="10.00">CGAL/Triangulation</text>
<text text-anchor="middle" x="2208" y="-69" font-family="Helvetica,sans-Serif" font-size="10.00">_vertex_base_with_info_3.h</text>
</a>
</g>
</g>
<!-- Node17&#45;&gt;Node22 -->
<g id="edge22" class="edge">
<title>Node17&#45;&gt;Node22</title>
<path fill="none" stroke="midnightblue" d="M1996.15,-134.44C2033.96,-124.36 2097.62,-107.4 2145.31,-94.7"/>
<polygon fill="midnightblue" stroke="midnightblue" points="2146.46,-98.02 2155.22,-92.06 2144.66,-91.25 2146.46,-98.02"/>
</g>
<!-- Node23 -->
<g id="node23" class="node">
<title>Node23</title>
<g id="a_node23"><a xlink:href="_settings_8hpp.html" target="_top" xlink:title="Global integer and precision settings.">
<polygon fill="white" stroke="black" points="1713.5,-67.5 1713.5,-86.5 1790.5,-86.5 1790.5,-67.5 1713.5,-67.5"/>
<text text-anchor="middle" x="1752" y="-74.5" font-family="Helvetica,sans-Serif" font-size="10.00">Settings.hpp</text>
</a>
</g>
</g>
<!-- Node17&#45;&gt;Node23 -->
<g id="edge23" class="edge">
<title>Node17&#45;&gt;Node23</title>
<path fill="none" stroke="midnightblue" d="M1927.77,-134.46C1894.27,-126.24 1843.27,-112.89 1800,-98 1793.61,-95.8 1786.86,-93.18 1780.5,-90.57"/>
<polygon fill="midnightblue" stroke="midnightblue" points="1781.51,-87.2 1770.94,-86.54 1778.8,-93.65 1781.51,-87.2"/>
</g>
<!-- Node24 -->
<g id="node24" class="node">
<title>Node24</title>
<g id="a_node24"><a xlink:title=" ">
<polygon fill="white" stroke="#bfbfbf" points="1625,-0.5 1625,-19.5 1765,-19.5 1765,-0.5 1625,-0.5"/>
<text text-anchor="middle" x="1695" y="-7.5" font-family="Helvetica,sans-Serif" font-size="10.00">CGAL/GMP/Gmpzf_type.h</text>
</a>
</g>
</g>
<!-- Node23&#45;&gt;Node24 -->
<g id="edge24" class="edge">
<title>Node23&#45;&gt;Node24</title>
<path fill="none" stroke="midnightblue" d="M1744.31,-67.23C1735.34,-57 1720.31,-39.86 1709.2,-27.19"/>
<polygon fill="midnightblue" stroke="midnightblue" points="1711.79,-24.84 1702.57,-19.63 1706.53,-29.45 1711.79,-24.84"/>
</g>
<!-- Node25 -->
<g id="node25" class="node">
<title>Node25</title>
<g id="a_node25"><a xlink:title=" ">
<polygon fill="white" stroke="#bfbfbf" points="1783,-0.5 1783,-19.5 1833,-19.5 1833,-0.5 1783,-0.5"/>
<text text-anchor="middle" x="1808" y="-7.5" font-family="Helvetica,sans-Serif" font-size="10.00">cstdint</text>
</a>
</g>
</g>
<!-- Node23&#45;&gt;Node25 -->
<g id="edge25" class="edge">
<title>Node23&#45;&gt;Node25</title>
<path fill="none" stroke="midnightblue" d="M1759.55,-67.23C1768.28,-57.1 1782.85,-40.19 1793.74,-27.56"/>
<polygon fill="midnightblue" stroke="midnightblue" points="1796.69,-29.49 1800.57,-19.63 1791.39,-24.92 1796.69,-29.49"/>
</g>
<!-- Node26&#45;&gt;Node4 -->
<g id="edge46" class="edge">
<title>Node26&#45;&gt;Node4</title>
<path fill="none" stroke="midnightblue" d="M961.85,-141.59C808.79,-135.86 243.64,-113.81 165,-98 156.05,-96.2 146.61,-93.26 138.07,-90.18"/>
<polygon fill="midnightblue" stroke="midnightblue" points="139.15,-86.84 128.56,-86.56 136.66,-93.39 139.15,-86.84"/>
</g>
<!-- Node26&#45;&gt;Node6 -->
<g id="edge39" class="edge">
<title>Node26&#45;&gt;Node6</title>
<path fill="none" stroke="midnightblue" d="M961.8,-141.46C787.49,-134.37 75,-105.05 53,-98 48.75,-96.64 44.51,-94.53 40.59,-92.19"/>
<polygon fill="midnightblue" stroke="midnightblue" points="42.44,-89.22 32.19,-86.53 38.54,-95.02 42.44,-89.22"/>
</g>
<!-- Node26&#45;&gt;Node23 -->
<g id="edge47" class="edge">
<title>Node26&#45;&gt;Node23</title>
<path fill="none" stroke="midnightblue" d="M1038.14,-142.26C1165.69,-139.52 1576.57,-128.48 1705,-98 1712.07,-96.32 1719.43,-93.67 1726.18,-90.83"/>
<polygon fill="midnightblue" stroke="midnightblue" points="1727.81,-93.94 1735.5,-86.65 1724.94,-87.55 1727.81,-93.94"/>
</g>
<!-- Node27 -->
<g id="node27" class="node">
<title>Node27</title>
<g id="a_node27"><a xlink:title=" ">
<polygon fill="white" stroke="#bfbfbf" points="866.5,-67.5 866.5,-86.5 949.5,-86.5 949.5,-67.5 866.5,-67.5"/>
<text text-anchor="middle" x="908" y="-74.5" font-family="Helvetica,sans-Serif" font-size="10.00">CGAL/Timer.h</text>
</a>
</g>
</g>
<!-- Node26&#45;&gt;Node27 -->
<g id="edge27" class="edge">
<title>Node26&#45;&gt;Node27</title>
<path fill="none" stroke="midnightblue" d="M987.59,-134.23C972.42,-123.51 946.52,-105.22 928.4,-92.41"/>
<polygon fill="midnightblue" stroke="midnightblue" points="930.4,-89.54 920.21,-86.63 926.36,-95.26 930.4,-89.54"/>
</g>
<!-- Node28 -->
<g id="node28" class="node">
<title>Node28</title>
<g id="a_node28"><a xlink:title=" ">
<polygon fill="white" stroke="#bfbfbf" points="968,-67.5 968,-86.5 1032,-86.5 1032,-67.5 968,-67.5"/>
<text text-anchor="middle" x="1000" y="-74.5" font-family="Helvetica,sans-Serif" font-size="10.00">algorithm</text>
</a>
</g>
</g>
<!-- Node26&#45;&gt;Node28 -->
<g id="edge28" class="edge">
<title>Node26&#45;&gt;Node28</title>
<path fill="none" stroke="midnightblue" d="M1000,-134.23C1000,-124.68 1000,-109.12 1000,-96.78"/>
<polygon fill="midnightblue" stroke="midnightblue" points="1003.5,-96.63 1000,-86.63 996.5,-96.63 1003.5,-96.63"/>
</g>
<!-- Node29 -->
<g id="node29" class="node">
<title>Node29</title>
<g id="a_node29"><a xlink:title=" ">
<polygon fill="white" stroke="#bfbfbf" points="1050,-67.5 1050,-86.5 1102,-86.5 1102,-67.5 1050,-67.5"/>
<text text-anchor="middle" x="1076" y="-74.5" font-family="Helvetica,sans-Serif" font-size="10.00">cassert</text>
</a>
</g>
</g>
<!-- Node26&#45;&gt;Node29 -->
<g id="edge29" class="edge">
<title>Node26&#45;&gt;Node29</title>
<path fill="none" stroke="midnightblue" d="M1010.25,-134.23C1022.44,-123.81 1043.02,-106.21 1057.91,-93.47"/>
<polygon fill="midnightblue" stroke="midnightblue" points="1060.59,-95.79 1065.91,-86.63 1056.04,-90.47 1060.59,-95.79"/>
</g>
<!-- Node30 -->
<g id="node30" class="node">
<title>Node30</title>
<g id="a_node30"><a xlink:title=" ">
<polygon fill="white" stroke="#bfbfbf" points="1120.5,-67.5 1120.5,-86.5 1169.5,-86.5 1169.5,-67.5 1120.5,-67.5"/>
<text text-anchor="middle" x="1145" y="-74.5" font-family="Helvetica,sans-Serif" font-size="10.00">cstdlib</text>
</a>
</g>
</g>
<!-- Node26&#45;&gt;Node30 -->
<g id="edge30" class="edge">
<title>Node26&#45;&gt;Node30</title>
<path fill="none" stroke="midnightblue" d="M1023.83,-134.5C1046.61,-126.1 1081.72,-112.45 1111,-98 1114.76,-96.14 1118.67,-94.03 1122.44,-91.89"/>
<polygon fill="midnightblue" stroke="midnightblue" points="1124.51,-94.73 1131.36,-86.64 1120.96,-88.7 1124.51,-94.73"/>
</g>
<!-- Node31 -->
<g id="node31" class="node">
<title>Node31</title>
<g id="a_node31"><a xlink:title=" ">
<polygon fill="white" stroke="#bfbfbf" points="1188,-67.5 1188,-86.5 1256,-86.5 1256,-67.5 1188,-67.5"/>
<text text-anchor="middle" x="1222" y="-74.5" font-family="Helvetica,sans-Serif" font-size="10.00">filesystem</text>
</a>
</g>
</g>
<!-- Node26&#45;&gt;Node31 -->
<g id="edge31" class="edge">
<title>Node26&#45;&gt;Node31</title>
<path fill="none" stroke="midnightblue" d="M1038.33,-135.56C1075,-127.93 1131.59,-114.82 1179,-98 1184.77,-95.95 1190.81,-93.41 1196.48,-90.83"/>
<polygon fill="midnightblue" stroke="midnightblue" points="1198.02,-93.98 1205.56,-86.54 1195.03,-87.65 1198.02,-93.98"/>
</g>
<!-- Node32 -->
<g id="node32" class="node">
<title>Node32</title>
<g id="a_node32"><a xlink:title=" ">
<polygon fill="white" stroke="#bfbfbf" points="1274.5,-67.5 1274.5,-86.5 1329.5,-86.5 1329.5,-67.5 1274.5,-67.5"/>
<text text-anchor="middle" x="1302" y="-74.5" font-family="Helvetica,sans-Serif" font-size="10.00">fstream</text>
</a>
</g>
</g>
<!-- Node26&#45;&gt;Node32 -->
<g id="edge32" class="edge">
<title>Node26&#45;&gt;Node32</title>
<path fill="none" stroke="midnightblue" d="M1038.27,-140.44C1090.67,-136.06 1187.13,-124.84 1265,-98 1269.92,-96.3 1274.97,-94 1279.69,-91.57"/>
<polygon fill="midnightblue" stroke="midnightblue" points="1281.74,-94.43 1288.78,-86.52 1278.34,-88.31 1281.74,-94.43"/>
</g>
<!-- Node33 -->
<g id="node33" class="node">
<title>Node33</title>
<g id="a_node33"><a xlink:title=" ">
<polygon fill="white" stroke="#bfbfbf" points="1348,-67.5 1348,-86.5 1396,-86.5 1396,-67.5 1348,-67.5"/>
<text text-anchor="middle" x="1372" y="-74.5" font-family="Helvetica,sans-Serif" font-size="10.00">gsl/gsl</text>
</a>
</g>
</g>
<!-- Node26&#45;&gt;Node33 -->
<g id="edge33" class="edge">
<title>Node26&#45;&gt;Node33</title>
<path fill="none" stroke="midnightblue" d="M1038.04,-142.98C1102.02,-141.86 1234.41,-134.81 1339,-98 1343.27,-96.5 1347.58,-94.4 1351.61,-92.12"/>
<polygon fill="midnightblue" stroke="midnightblue" points="1353.73,-94.93 1360.38,-86.68 1350.03,-88.98 1353.73,-94.93"/>
</g>
<!-- Node34 -->
<g id="node34" class="node">
<title>Node34</title>
<g id="a_node34"><a xlink:title=" ">
<polygon fill="white" stroke="#bfbfbf" points="1414,-67.5 1414,-86.5 1474,-86.5 1474,-67.5 1414,-67.5"/>
<text text-anchor="middle" x="1444" y="-74.5" font-family="Helvetica,sans-Serif" font-size="10.00">iostream</text>
</a>
</g>
</g>
<!-- Node26&#45;&gt;Node34 -->
<g id="edge34" class="edge">
<title>Node26&#45;&gt;Node34</title>
<path fill="none" stroke="midnightblue" d="M1038.04,-143.31C1110.88,-142.92 1274.42,-137.29 1405,-98 1410.56,-96.33 1416.26,-93.88 1421.54,-91.26"/>
<polygon fill="midnightblue" stroke="midnightblue" points="1423.27,-94.3 1430.44,-86.5 1419.97,-88.13 1423.27,-94.3"/>
</g>
<!-- Node35 -->
<g id="node35" class="node">
<title>Node35</title>
<g id="a_node35"><a xlink:title=" ">
<polygon fill="white" stroke="#bfbfbf" points="1492,-67.5 1492,-86.5 1540,-86.5 1540,-67.5 1492,-67.5"/>
<text text-anchor="middle" x="1516" y="-74.5" font-family="Helvetica,sans-Serif" font-size="10.00">mutex</text>
</a>
</g>
</g>
<!-- Node26&#45;&gt;Node35 -->
<g id="edge35" class="edge">
<title>Node26&#45;&gt;Node35</title>
<path fill="none" stroke="midnightblue" d="M1038.29,-141.65C1137.43,-137.79 1400.53,-125.23 1483,-98 1487.49,-96.52 1492.01,-94.34 1496.2,-91.95"/>
<polygon fill="midnightblue" stroke="midnightblue" points="1498.11,-94.88 1504.72,-86.6 1494.39,-88.95 1498.11,-94.88"/>
</g>
<!-- Node36 -->
<g id="node36" class="node">
<title>Node36</title>
<g id="a_node36"><a xlink:title=" ">
<polygon fill="white" stroke="#bfbfbf" points="1558,-67.5 1558,-86.5 1612,-86.5 1612,-67.5 1558,-67.5"/>
<text text-anchor="middle" x="1585" y="-74.5" font-family="Helvetica,sans-Serif" font-size="10.00">random</text>
</a>
</g>
</g>
<!-- Node26&#45;&gt;Node36 -->
<g id="edge36" class="edge">
<title>Node26&#45;&gt;Node36</title>
<path fill="none" stroke="midnightblue" d="M1038.27,-141.96C1146.5,-138.7 1453.14,-127.07 1549,-98 1553.96,-96.5 1558.99,-94.24 1563.66,-91.78"/>
<polygon fill="midnightblue" stroke="midnightblue" points="1565.69,-94.65 1572.6,-86.62 1562.19,-88.59 1565.69,-94.65"/>
</g>
<!-- Node37 -->
<g id="node37" class="node">
<title>Node37</title>
<g id="a_node37"><a xlink:title=" ">
<polygon fill="white" stroke="#bfbfbf" points="174,-67.5 174,-86.5 214,-86.5 214,-67.5 174,-67.5"/>
<text text-anchor="middle" x="194" y="-74.5" font-family="Helvetica,sans-Serif" font-size="10.00">span</text>
</a>
</g>
</g>
<!-- Node26&#45;&gt;Node37 -->
<g id="edge37" class="edge">
<title>Node26&#45;&gt;Node37</title>
<path fill="none" stroke="midnightblue" d="M961.87,-141.36C810.46,-134.8 258.26,-110.11 223,-98 219.08,-96.65 215.2,-94.62 211.61,-92.35"/>
<polygon fill="midnightblue" stroke="midnightblue" points="213.63,-89.48 203.46,-86.5 209.55,-95.17 213.63,-89.48"/>
</g>
<!-- Node38 -->
<g id="node38" class="node">
<title>Node38</title>
<g id="a_node38"><a xlink:title=" ">
<polygon fill="white" stroke="#bfbfbf" points="1630.5,-67.5 1630.5,-86.5 1695.5,-86.5 1695.5,-67.5 1630.5,-67.5"/>
<text text-anchor="middle" x="1663" y="-74.5" font-family="Helvetica,sans-Serif" font-size="10.00">stdexcept</text>
</a>
</g>
</g>
<!-- Node26&#45;&gt;Node38 -->
<g id="edge38" class="edge">
<title>Node26&#45;&gt;Node38</title>
<path fill="none" stroke="midnightblue" d="M1038.08,-142.09C1155.38,-138.98 1509.96,-127.35 1621,-98 1627.1,-96.39 1633.39,-93.9 1639.19,-91.21"/>
<polygon fill="midnightblue" stroke="midnightblue" points="1640.97,-94.23 1648.35,-86.63 1637.84,-87.97 1640.97,-94.23"/>
</g>
<!-- Node39 -->
<g id="node39" class="node">
<title>Node39</title>
<g id="a_node39"><a xlink:title=" ">
<polygon fill="white" stroke="#bfbfbf" points="232.5,-67.5 232.5,-86.5 297.5,-86.5 297.5,-67.5 232.5,-67.5"/>
<text text-anchor="middle" x="265" y="-74.5" font-family="Helvetica,sans-Serif" font-size="10.00">typeindex</text>
</a>
</g>
</g>
<!-- Node26&#45;&gt;Node39 -->
<g id="edge40" class="edge">
<title>Node26&#45;&gt;Node39</title>
<path fill="none" stroke="midnightblue" d="M961.94,-141.39C826.04,-135.55 369.46,-114.83 306,-98 300.02,-96.41 293.87,-93.93 288.21,-91.25"/>
<polygon fill="midnightblue" stroke="midnightblue" points="289.76,-88.11 279.26,-86.67 286.57,-94.34 289.76,-88.11"/>
</g>
<!-- Node40 -->
<g id="node40" class="node">
<title>Node40</title>
<g id="a_node40"><a xlink:title=" ">
<polygon fill="white" stroke="#bfbfbf" points="315.5,-67.5 315.5,-86.5 374.5,-86.5 374.5,-67.5 315.5,-67.5"/>
<text text-anchor="middle" x="345" y="-74.5" font-family="Helvetica,sans-Serif" font-size="10.00">date/tz.h</text>
</a>
</g>
</g>
<!-- Node26&#45;&gt;Node40 -->
<g id="edge41" class="edge">
<title>Node26&#45;&gt;Node40</title>
<path fill="none" stroke="midnightblue" d="M961.93,-141.1C836.26,-134.72 439.5,-113.56 384,-98 378.41,-96.43 372.69,-94.03 367.42,-91.42"/>
<polygon fill="midnightblue" stroke="midnightblue" points="368.99,-88.29 358.52,-86.64 365.68,-94.46 368.99,-88.29"/>
</g>
<!-- Node41 -->
<g id="node41" class="node">
<title>Node41</title>
<g id="a_node41"><a xlink:title=" ">
<polygon fill="white" stroke="#bfbfbf" points="393,-67.5 393,-86.5 491,-86.5 491,-67.5 393,-67.5"/>
<text text-anchor="middle" x="442" y="-74.5" font-family="Helvetica,sans-Serif" font-size="10.00">pcg_random.hpp</text>
</a>
</g>
</g>
<!-- Node26&#45;&gt;Node41 -->
<g id="edge42" class="edge">
<title>Node26&#45;&gt;Node41</title>
<path fill="none" stroke="midnightblue" d="M961.9,-142.7C877.66,-141.36 669.6,-134.31 500,-98 490.84,-96.04 481.14,-93.07 472.34,-90.01"/>
<polygon fill="midnightblue" stroke="midnightblue" points="473.46,-86.69 462.86,-86.57 471.07,-93.27 473.46,-86.69"/>
</g>
<!-- Node42 -->
<g id="node42" class="node">
<title>Node42</title>
<g id="a_node42"><a xlink:title=" ">
<polygon fill="white" stroke="#bfbfbf" points="509,-67.5 509,-86.5 595,-86.5 595,-67.5 509,-67.5"/>
<text text-anchor="middle" x="552" y="-74.5" font-family="Helvetica,sans-Serif" font-size="10.00">fmt/ostream.h</text>
</a>
</g>
</g>
<!-- Node26&#45;&gt;Node42 -->
<g id="edge43" class="edge">
<title>Node26&#45;&gt;Node42</title>
<path fill="none" stroke="midnightblue" d="M961.76,-141.87C890.44,-139.06 732.7,-129.52 604,-98 596.16,-96.08 587.91,-93.29 580.34,-90.39"/>
<polygon fill="midnightblue" stroke="midnightblue" points="581.47,-87.08 570.89,-86.6 578.87,-93.57 581.47,-87.08"/>
</g>
<!-- Node43 -->
<g id="node43" class="node">
<title>Node43</title>
<g id="a_node43"><a xlink:title=" ">
<polygon fill="white" stroke="#bfbfbf" points="613,-62 613,-92 719,-92 719,-62 613,-62"/>
<text text-anchor="start" x="621" y="-80" font-family="Helvetica,sans-Serif" font-size="10.00">spdlog/sinks/basic</text>
<text text-anchor="middle" x="666" y="-69" font-family="Helvetica,sans-Serif" font-size="10.00">_file_sink.h</text>
</a>
</g>
</g>
<!-- Node26&#45;&gt;Node43 -->
<g id="edge44" class="edge">
<title>Node26&#45;&gt;Node43</title>
<path fill="none" stroke="midnightblue" d="M961.95,-138.43C909.21,-131.69 811.08,-117.74 729,-98 725.16,-97.08 721.21,-96.04 717.25,-94.93"/>
<polygon fill="midnightblue" stroke="midnightblue" points="718.03,-91.52 707.45,-92.08 716.07,-98.24 718.03,-91.52"/>
</g>
<!-- Node44 -->
<g id="node44" class="node">
<title>Node44</title>
<g id="a_node44"><a xlink:title=" ">
<polygon fill="white" stroke="#bfbfbf" points="737.5,-62 737.5,-92 848.5,-92 848.5,-62 737.5,-62"/>
<text text-anchor="start" x="745.5" y="-80" font-family="Helvetica,sans-Serif" font-size="10.00">spdlog/sinks/stdout</text>
<text text-anchor="middle" x="793" y="-69" font-family="Helvetica,sans-Serif" font-size="10.00">_color_sinks.h</text>
</a>
</g>
</g>
<!-- Node26&#45;&gt;Node44 -->
<g id="edge45" class="edge">
<title>Node26&#45;&gt;Node44</title>
<path fill="none" stroke="midnightblue" d="M972.51,-134.37C940.71,-124.38 887.57,-107.7 847.34,-95.06"/>
<polygon fill="midnightblue" stroke="midnightblue" points="848.26,-91.68 837.67,-92.03 846.17,-98.36 848.26,-91.68"/>
</g>
<!-- Node45&#45;&gt;Node11 -->
<g id="edge50" class="edge">
<title>Node45&#45;&gt;Node11</title>
<path fill="none" stroke="midnightblue" d="M651.09,-190.32C661.49,-182.18 677.26,-169.84 689.72,-160.09"/>
<polygon fill="midnightblue" stroke="midnightblue" points="691.99,-162.75 697.71,-153.83 687.68,-157.24 691.99,-162.75"/>
</g>
<!-- Node45&#45;&gt;Node23 -->
<g id="edge53" class="edge">
<title>Node45&#45;&gt;Node23</title>
<path fill="none" stroke="midnightblue" d="M691.73,-196.2C877.36,-185.84 1509.22,-147.66 1705,-98 1712.05,-96.21 1719.4,-93.52 1726.14,-90.68"/>
<polygon fill="midnightblue" stroke="midnightblue" points="1727.77,-93.79 1735.47,-86.52 1724.91,-87.4 1727.77,-93.79"/>
</g>
<!-- Node45&#45;&gt;Node26 -->
<g id="edge54" class="edge">
<title>Node45&#45;&gt;Node26</title>
<path fill="none" stroke="midnightblue" d="M691.58,-191.26C761.11,-180.83 883.99,-162.4 951.76,-152.24"/>
<polygon fill="midnightblue" stroke="midnightblue" points="952.38,-155.68 961.75,-150.74 951.34,-148.76 952.38,-155.68"/>
</g>
<!-- Node45&#45;&gt;Node37 -->
<g id="edge52" class="edge">
<title>Node45&#45;&gt;Node37</title>
<path fill="none" stroke="midnightblue" d="M641.94,-190.37C644.54,-176.35 647.21,-148.69 632,-134 566.37,-70.61 308.84,-128.92 223,-98 219.27,-96.66 215.57,-94.71 212.12,-92.56"/>
<polygon fill="midnightblue" stroke="midnightblue" points="213.93,-89.55 203.75,-86.62 209.89,-95.26 213.93,-89.55"/>
</g>
<!-- Node46 -->
<g id="node46" class="node">
<title>Node46</title>
<g id="a_node46"><a xlink:title=" ">
<polygon fill="white" stroke="#bfbfbf" points="513,-134.5 513,-153.5 555,-153.5 555,-134.5 513,-134.5"/>
<text text-anchor="middle" x="534" y="-141.5" font-family="Helvetica,sans-Serif" font-size="10.00">array</text>
</a>
</g>
</g>
<!-- Node45&#45;&gt;Node46 -->
<g id="edge49" class="edge">
<title>Node45&#45;&gt;Node46</title>
<path fill="none" stroke="midnightblue" d="M622.97,-190.32C605.97,-181.66 579.62,-168.24 560.01,-158.25"/>
<polygon fill="midnightblue" stroke="midnightblue" points="561.49,-155.08 550.99,-153.65 558.31,-161.31 561.49,-155.08"/>
</g>
<!-- Node47 -->
<g id="node47" class="node">
<title>Node47</title>
<g id="a_node47"><a xlink:title=" ">
<polygon fill="white" stroke="#bfbfbf" points="573,-134.5 573,-153.5 623,-153.5 623,-134.5 573,-134.5"/>
<text text-anchor="middle" x="598" y="-141.5" font-family="Helvetica,sans-Serif" font-size="10.00">gsl/util</text>
</a>
</g>
</g>
<!-- Node45&#45;&gt;Node47 -->
<g id="edge51" class="edge">
<title>Node45&#45;&gt;Node47</title>
<path fill="none" stroke="midnightblue" d="M633.06,-190.08C627.07,-182.38 618.25,-171.03 610.95,-161.65"/>
<polygon fill="midnightblue" stroke="midnightblue" points="613.71,-159.5 604.81,-153.75 608.18,-163.79 613.71,-159.5"/>
</g>
</g>
</svg>
