<?xml version="1.0" encoding="UTF-8" standalone="no"?>
<!DOCTYPE svg PUBLIC "-//W3C//DTD SVG 1.1//EN"
 "http://www.w3.org/Graphics/SVG/1.1/DTD/svg11.dtd">
<!-- Generated by graphviz version 2.43.0 (0)
 -->
<!-- Title: include/Move_strategy.hpp Pages: 1 -->
<svg width="501pt" height="151pt"
 viewBox="0.00 0.00 500.50 151.00" xmlns="http://www.w3.org/2000/svg" xmlns:xlink="http://www.w3.org/1999/xlink">
<g id="graph0" class="graph" transform="scale(1 1) rotate(0) translate(4 147)">
<title>include/Move_strategy.hpp</title>
<polygon fill="white" stroke="transparent" points="-4,4 -4,-147 496.5,-147 496.5,4 -4,4"/>
<!-- Node1 -->
<g id="node1" class="node">
<title>Node1</title>
<g id="a_node1"><a xlink:title="Base class for move algorithms on Delaunay Triangulations.">
<polygon fill="#bfbfbf" stroke="black" points="135,-123.5 135,-142.5 282,-142.5 282,-123.5 135,-123.5"/>
<text text-anchor="middle" x="208.5" y="-130.5" font-family="Helvetica,sans-Serif" font-size="10.00">include/Move_strategy.hpp</text>
</a>
</g>
</g>
<!-- Node2 -->
<g id="node2" class="node">
<title>Node2</title>
<g id="a_node2"><a xlink:href="_metropolis_8hpp.html" target="_top" xlink:title="Perform Metropolis&#45;Hastings algorithm on Delaunay Triangulations.">
<polygon fill="white" stroke="black" points="67.5,-67.5 67.5,-86.5 195.5,-86.5 195.5,-67.5 67.5,-67.5"/>
<text text-anchor="middle" x="131.5" y="-74.5" font-family="Helvetica,sans-Serif" font-size="10.00">include/Metropolis.hpp</text>
</a>
</g>
</g>
<!-- Node1&#45;&gt;Node2 -->
<g id="edge1" class="edge">
<title>Node1&#45;&gt;Node2</title>
<path fill="none" stroke="midnightblue" d="M187.6,-117.34C173.59,-107.52 155.62,-94.91 143.84,-86.65"/>
<polygon fill="midnightblue" stroke="midnightblue" points="185.93,-120.45 196.13,-123.32 189.95,-114.72 185.93,-120.45"/>
</g>
<!-- Node5 -->
<g id="node5" class="node">
<title>Node5</title>
<g id="a_node5"><a xlink:href="_move__always_8hpp.html" target="_top" xlink:title="Randomly selects moves to always perform on triangulations.">
<polygon fill="white" stroke="black" points="214,-67.5 214,-86.5 357,-86.5 357,-67.5 214,-67.5"/>
<text text-anchor="middle" x="285.5" y="-74.5" font-family="Helvetica,sans-Serif" font-size="10.00">include/Move_always.hpp</text>
</a>
</g>
</g>
<!-- Node1&#45;&gt;Node5 -->
<g id="edge4" class="edge">
<title>Node1&#45;&gt;Node5</title>
<path fill="none" stroke="midnightblue" d="M229.4,-117.34C243.41,-107.52 261.38,-94.91 273.16,-86.65"/>
<polygon fill="midnightblue" stroke="midnightblue" points="227.05,-114.72 220.87,-123.32 231.07,-120.45 227.05,-114.72"/>
</g>
<!-- Node3 -->
<g id="node3" class="node">
<title>Node3</title>
<g id="a_node3"><a xlink:href="cdt-opt_8cpp.html" target="_top" xlink:title="Outputs values to determine optimizations.">
<polygon fill="white" stroke="black" points="0,-6 0,-25 89,-25 89,-6 0,-6"/>
<text text-anchor="middle" x="44.5" y="-13" font-family="Helvetica,sans-Serif" font-size="10.00">src/cdt&#45;opt.cpp</text>
</a>
</g>
</g>
<!-- Node2&#45;&gt;Node3 -->
<g id="edge2" class="edge">
<title>Node2&#45;&gt;Node3</title>
<path fill="none" stroke="midnightblue" d="M110.46,-61.61C93.73,-50.17 70.89,-34.55 56.94,-25.01"/>
<polygon fill="midnightblue" stroke="midnightblue" points="108.8,-64.72 119.04,-67.48 112.76,-58.94 108.8,-64.72"/>
</g>
<!-- Node4 -->
<g id="node4" class="node">
<title>Node4</title>
<g id="a_node4"><a xlink:href="cdt_8cpp.html" target="_top" xlink:title="The main executable.">
<polygon fill="white" stroke="black" points="107,-6 107,-25 176,-25 176,-6 107,-6"/>
<text text-anchor="middle" x="141.5" y="-13" font-family="Helvetica,sans-Serif" font-size="10.00">src/cdt.cpp</text>
</a>
</g>
</g>
<!-- Node2&#45;&gt;Node4 -->
<g id="edge3" class="edge">
<title>Node2&#45;&gt;Node4</title>
<path fill="none" stroke="midnightblue" d="M134.64,-57.32C136.46,-46.5 138.66,-33.4 140.07,-25.01"/>
<polygon fill="midnightblue" stroke="midnightblue" points="131.14,-57.03 132.93,-67.48 138.04,-58.19 131.14,-57.03"/>
</g>
<!-- Node6 -->
<g id="node6" class="node">
<title>Node6</title>
<g id="a_node6"><a xlink:href="_move__strategies__test_8cpp.html" target="_top" xlink:title="Tests for the Metropolis&#45;Hastings algorithm.">
<polygon fill="white" stroke="black" points="213,-0.5 213,-30.5 338,-30.5 338,-0.5 213,-0.5"/>
<text text-anchor="start" x="221" y="-18.5" font-family="Helvetica,sans-Serif" font-size="10.00">tests/Move_strategies</text>
<text text-anchor="middle" x="275.5" y="-7.5" font-family="Helvetica,sans-Serif" font-size="10.00">_test.cpp</text>
</a>
</g>
</g>
<!-- Node5&#45;&gt;Node6 -->
<g id="edge5" class="edge">
<title>Node5&#45;&gt;Node6</title>
<path fill="none" stroke="midnightblue" d="M282.4,-57.53C280.93,-48.81 279.21,-38.59 277.86,-30.52"/>
<polygon fill="midnightblue" stroke="midnightblue" points="278.96,-58.19 284.07,-67.48 285.86,-57.03 278.96,-58.19"/>
</g>
<!-- Node7 -->
<g id="node7" class="node">
<title>Node7</title>
<g id="a_node7"><a xlink:href="_simulation_test_8cpp_source.html" target="_top" xlink:title=" ">
<polygon fill="white" stroke="black" points="356.5,-6 356.5,-25 492.5,-25 492.5,-6 356.5,-6"/>
<text text-anchor="middle" x="424.5" y="-13" font-family="Helvetica,sans-Serif" font-size="10.00">tests/SimulationTest.cpp</text>
</a>
</g>
</g>
<!-- Node5&#45;&gt;Node7 -->
<g id="edge6" class="edge">
<title>Node5&#45;&gt;Node7</title>
<path fill="none" stroke="midnightblue" d="M314.75,-63.48C341.75,-51.92 381.1,-35.08 404.62,-25.01"/>
<polygon fill="midnightblue" stroke="midnightblue" points="313.23,-60.32 305.42,-67.48 315.99,-66.76 313.23,-60.32"/>
</g>
</g>
</svg>
