<?xml version="1.0" encoding="UTF-8" standalone="no"?>
<!DOCTYPE svg PUBLIC "-//W3C//DTD SVG 1.1//EN"
 "http://www.w3.org/Graphics/SVG/1.1/DTD/svg11.dtd">
<!-- Generated by graphviz version 2.43.0 (0)
 -->
<!-- Title: include/Move_command.hpp Pages: 1 -->
<!--zoomable 442 -->
<svg id="main" version="1.1" xmlns="http://www.w3.org/2000/svg" xmlns:xlink="http://www.w3.org/1999/xlink" xml:space="preserve" onload="init(evt)">
<style type="text/css"><![CDATA[
.edge:hover path { stroke: red; }
.edge:hover polygon { stroke: red; fill: red; }
]]></style>
<script type="text/javascript"><![CDATA[
var edges = document.getElementsByTagName('g');
if (edges && edges.length) {
  for (var i=0;i<edges.length;i++) {
    if (edges[i].id.substr(0,4)=='edge') {
      edges[i].setAttribute('class','edge');
    }
  }
}
]]></script>
        <defs>
                <circle id="rim" cx="0" cy="0" r="7"/>
                <circle id="rim2" cx="0" cy="0" r="3.5"/>
                <g id="zoomPlus">
                        <use xlink:href="#rim" fill="#404040">
                                <set attributeName="fill" to="#808080" begin="zoomplus.mouseover" end="zoomplus.mouseout"/>
                        </use>
                        <path d="M-4,0h8M0,-4v8" fill="none" stroke="white" stroke-width="1.5" pointer-events="none"/>
                </g>
                <g id="zoomMin">
                        <use xlink:href="#rim" fill="#404040">
                                <set attributeName="fill" to="#808080" begin="zoomminus.mouseover" end="zoomminus.mouseout"/>
                        </use>
                        <path d="M-4,0h8" fill="none" stroke="white" stroke-width="1.5" pointer-events="none"/>
                </g>
                <g id="dirArrow">
                        <path fill="none" stroke="white" stroke-width="1.5" d="M0,-3.0v7 M-2.5,-0.5L0,-3.0L2.5,-0.5"/>
                </g>
               <g id="resetDef">
                       <use xlink:href="#rim2" fill="#404040">
                               <set attributeName="fill" to="#808080" begin="reset.mouseover" end="reset.mouseout"/>
                       </use>
               </g>
        </defs>

<script type="text/javascript">
var viewWidth = 2773;
var viewHeight = 442;
var sectionId = 'dynsection-0';
</script>
<script xlink:href="svgpan.js"/>
<svg id="graph" class="graph">
<g id="viewport">
<title>include/Move_command.hpp</title>
<polygon fill="white" stroke="transparent" points="-4,4 -4,-438 2769,-438 2769,4 -4,4"/>
<!-- Node1 -->
<g id="node1" class="node">
<title>Node1</title>
<g id="a_node1"><a xlink:title="Do ergodic moves using the Command pattern.">
<polygon fill="#bfbfbf" stroke="black" points="223.5,-414.5 223.5,-433.5 380.5,-433.5 380.5,-414.5 223.5,-414.5"/>
<text text-anchor="middle" x="302" y="-421.5" font-family="Helvetica,sans-Serif" font-size="10.00">include/Move_command.hpp</text>
</a>
</g>
</g>
<!-- Node2 -->
<g id="node2" class="node">
<title>Node2</title>
<g id="a_node2"><a xlink:href="_apply__move_8hpp.html" target="_top" xlink:title="Apply Pachner moves to foliated Delaunay triangulations.">
<polygon fill="white" stroke="black" points="189,-358.5 189,-377.5 287,-377.5 287,-358.5 189,-358.5"/>
<text text-anchor="middle" x="238" y="-365.5" font-family="Helvetica,sans-Serif" font-size="10.00">Apply_move.hpp</text>
</a>
</g>
</g>
<!-- Node1&#45;&gt;Node2 -->
<g id="edge1" class="edge">
<title>Node1&#45;&gt;Node2</title>
<path fill="none" stroke="midnightblue" d="M291.72,-414.32C282.16,-406.26 267.72,-394.08 256.22,-384.37"/>
<polygon fill="midnightblue" stroke="midnightblue" points="258.37,-381.61 248.47,-377.83 253.86,-386.96 258.37,-381.61"/>
</g>
<!-- Node8 -->
<g id="node8" class="node">
<title>Node8</title>
<g id="a_node8"><a xlink:href="_ergodic__moves__3_8hpp.html" target="_top" xlink:title="Pachner moves on 2+1 dimensional foliated Delaunay triangulations.">
<polygon fill="white" stroke="black" points="331.5,-358.5 331.5,-377.5 454.5,-377.5 454.5,-358.5 331.5,-358.5"/>
<text text-anchor="middle" x="393" y="-365.5" font-family="Helvetica,sans-Serif" font-size="10.00">Ergodic_moves_3.hpp</text>
</a>
</g>
</g>
<!-- Node1&#45;&gt;Node8 -->
<g id="edge7" class="edge">
<title>Node1&#45;&gt;Node8</title>
<path fill="none" stroke="midnightblue" d="M316.62,-414.32C330.95,-405.82 353.01,-392.73 369.75,-382.8"/>
<polygon fill="midnightblue" stroke="midnightblue" points="371.6,-385.77 378.42,-377.65 368.03,-379.75 371.6,-385.77"/>
</g>
<!-- Node3 -->
<g id="node3" class="node">
<title>Node3</title>
<g id="a_node3"><a xlink:title=" ">
<polygon fill="white" stroke="#bfbfbf" points="62.5,-67.5 62.5,-86.5 155.5,-86.5 155.5,-67.5 62.5,-67.5"/>
<text text-anchor="middle" x="109" y="-74.5" font-family="Helvetica,sans-Serif" font-size="10.00">spdlog/spdlog.h</text>
</a>
</g>
</g>
<!-- Node2&#45;&gt;Node3 -->
<g id="edge2" class="edge">
<title>Node2&#45;&gt;Node3</title>
<path fill="none" stroke="midnightblue" d="M241.64,-358.34C249.01,-340 265,-295.74 265,-257 265,-257 265,-257 265,-199 265,-166.43 179.02,-115.53 134.72,-91.47"/>
<polygon fill="midnightblue" stroke="midnightblue" points="136.16,-88.27 125.69,-86.62 132.85,-94.43 136.16,-88.27"/>
</g>
<!-- Node4 -->
<g id="node4" class="node">
<title>Node4</title>
<g id="a_node4"><a xlink:title=" ">
<polygon fill="white" stroke="#bfbfbf" points="9.5,-302.5 9.5,-321.5 74.5,-321.5 74.5,-302.5 9.5,-302.5"/>
<text text-anchor="middle" x="42" y="-309.5" font-family="Helvetica,sans-Serif" font-size="10.00">functional</text>
</a>
</g>
</g>
<!-- Node2&#45;&gt;Node4 -->
<g id="edge3" class="edge">
<title>Node2&#45;&gt;Node4</title>
<path fill="none" stroke="midnightblue" d="M206.94,-358.44C173.4,-349.2 119.8,-334.44 82.86,-324.26"/>
<polygon fill="midnightblue" stroke="midnightblue" points="83.48,-320.8 72.91,-321.52 81.62,-327.55 83.48,-320.8"/>
</g>
<!-- Node5 -->
<g id="node5" class="node">
<title>Node5</title>
<g id="a_node5"><a xlink:title=" ">
<polygon fill="white" stroke="#bfbfbf" points="0,-67.5 0,-86.5 44,-86.5 44,-67.5 0,-67.5"/>
<text text-anchor="middle" x="22" y="-74.5" font-family="Helvetica,sans-Serif" font-size="10.00">string</text>
</a>
</g>
</g>
<!-- Node2&#45;&gt;Node5 -->
<g id="edge4" class="edge">
<title>Node2&#45;&gt;Node5</title>
<path fill="none" stroke="midnightblue" d="M189.12,-358.48C165.89,-352.09 139.45,-341.02 122,-322 101.65,-299.83 103,-287.1 103,-257 103,-257 103,-257 103,-199 103,-154.68 65.01,-114.31 41.06,-93.27"/>
<polygon fill="midnightblue" stroke="midnightblue" points="43.15,-90.46 33.26,-86.66 38.63,-95.8 43.15,-90.46"/>
</g>
<!-- Node6 -->
<g id="node6" class="node">
<title>Node6</title>
<g id="a_node6"><a xlink:title=" ">
<polygon fill="white" stroke="#bfbfbf" points="320,-302.5 320,-321.5 412,-321.5 412,-302.5 320,-302.5"/>
<text text-anchor="middle" x="366" y="-309.5" font-family="Helvetica,sans-Serif" font-size="10.00">tl/expected.hpp</text>
</a>
</g>
</g>
<!-- Node2&#45;&gt;Node6 -->
<g id="edge5" class="edge">
<title>Node2&#45;&gt;Node6</title>
<path fill="none" stroke="midnightblue" d="M258.28,-358.44C279.35,-349.56 312.52,-335.56 336.49,-325.45"/>
<polygon fill="midnightblue" stroke="midnightblue" points="337.96,-328.63 345.81,-321.52 335.24,-322.18 337.96,-328.63"/>
</g>
<!-- Node7 -->
<g id="node7" class="node">
<title>Node7</title>
<g id="a_node7"><a xlink:title=" ">
<polygon fill="white" stroke="#bfbfbf" points="131.5,-302.5 131.5,-321.5 236.5,-321.5 236.5,-302.5 131.5,-302.5"/>
<text text-anchor="middle" x="184" y="-309.5" font-family="Helvetica,sans-Serif" font-size="10.00">tl/function_ref.hpp</text>
</a>
</g>
</g>
<!-- Node2&#45;&gt;Node7 -->
<g id="edge6" class="edge">
<title>Node2&#45;&gt;Node7</title>
<path fill="none" stroke="midnightblue" d="M229.08,-358.08C221.22,-350.22 209.57,-338.57 200.08,-329.08"/>
<polygon fill="midnightblue" stroke="midnightblue" points="202.3,-326.35 192.75,-321.75 197.35,-331.3 202.3,-326.35"/>
</g>
<!-- Node8&#45;&gt;Node6 -->
<g id="edge8" class="edge">
<title>Node8&#45;&gt;Node6</title>
<path fill="none" stroke="midnightblue" d="M388.54,-358.08C384.85,-350.69 379.48,-339.95 374.91,-330.81"/>
<polygon fill="midnightblue" stroke="midnightblue" points="377.98,-329.13 370.38,-321.75 371.72,-332.26 377.98,-329.13"/>
</g>
<!-- Node9 -->
<g id="node9" class="node">
<title>Node9</title>
<g id="a_node9"><a xlink:href="_manifold_8hpp.html" target="_top" xlink:title="Data structures for manifolds.">
<polygon fill="white" stroke="black" points="784,-302.5 784,-321.5 864,-321.5 864,-302.5 784,-302.5"/>
<text text-anchor="middle" x="824" y="-309.5" font-family="Helvetica,sans-Serif" font-size="10.00">Manifold.hpp</text>
</a>
</g>
</g>
<!-- Node8&#45;&gt;Node9 -->
<g id="edge9" class="edge">
<title>Node8&#45;&gt;Node9</title>
<path fill="none" stroke="midnightblue" d="M454.75,-359.26C540.63,-348.5 694.47,-329.23 773.74,-319.3"/>
<polygon fill="midnightblue" stroke="midnightblue" points="774.46,-322.73 783.95,-318.02 773.59,-315.79 774.46,-322.73"/>
</g>
<!-- Node46 -->
<g id="node46" class="node">
<title>Node46</title>
<g id="a_node46"><a xlink:href="_move__tracker_8hpp.html" target="_top" xlink:title="Track ergodic moves.">
<polygon fill="white" stroke="black" points="621.5,-190.5 621.5,-209.5 724.5,-209.5 724.5,-190.5 621.5,-190.5"/>
<text text-anchor="middle" x="673" y="-197.5" font-family="Helvetica,sans-Serif" font-size="10.00">Move_tracker.hpp</text>
</a>
</g>
</g>
<!-- Node8&#45;&gt;Node46 -->
<g id="edge49" class="edge">
<title>Node8&#45;&gt;Node46</title>
<path fill="none" stroke="midnightblue" d="M407.66,-358.31C453.4,-331.19 593.76,-247.98 649.66,-214.83"/>
<polygon fill="midnightblue" stroke="midnightblue" points="651.67,-217.72 658.49,-209.61 648.1,-211.69 651.67,-217.72"/>
</g>
<!-- Node10 -->
<g id="node10" class="node">
<title>Node10</title>
<g id="a_node10"><a xlink:title=" ">
<polygon fill="white" stroke="#bfbfbf" points="715.5,-134.5 715.5,-153.5 768.5,-153.5 768.5,-134.5 715.5,-134.5"/>
<text text-anchor="middle" x="742" y="-141.5" font-family="Helvetica,sans-Serif" font-size="10.00">cstddef</text>
</a>
</g>
</g>
<!-- Node9&#45;&gt;Node10 -->
<g id="edge10" class="edge">
<title>Node9&#45;&gt;Node10</title>
<path fill="none" stroke="midnightblue" d="M809.92,-302.41C798.04,-294.43 781.49,-281.47 772,-266 752.17,-233.67 745.43,-188.9 743.15,-163.87"/>
<polygon fill="midnightblue" stroke="midnightblue" points="746.62,-163.3 742.37,-153.6 739.64,-163.83 746.62,-163.3"/>
</g>
<!-- Node11 -->
<g id="node11" class="node">
<title>Node11</title>
<g id="a_node11"><a xlink:title=" ">
<polygon fill="white" stroke="#bfbfbf" points="781,-246.5 781,-265.5 867,-265.5 867,-246.5 781,-246.5"/>
<text text-anchor="middle" x="824" y="-253.5" font-family="Helvetica,sans-Serif" font-size="10.00">unordered_set</text>
</a>
</g>
</g>
<!-- Node9&#45;&gt;Node11 -->
<g id="edge11" class="edge">
<title>Node9&#45;&gt;Node11</title>
<path fill="none" stroke="midnightblue" d="M824,-302.08C824,-295.01 824,-284.86 824,-275.99"/>
<polygon fill="midnightblue" stroke="midnightblue" points="827.5,-275.75 824,-265.75 820.5,-275.75 827.5,-275.75"/>
</g>
<!-- Node12 -->
<g id="node12" class="node">
<title>Node12</title>
<g id="a_node12"><a xlink:title=" ">
<polygon fill="white" stroke="#bfbfbf" points="885.5,-246.5 885.5,-265.5 930.5,-265.5 930.5,-246.5 885.5,-246.5"/>
<text text-anchor="middle" x="908" y="-253.5" font-family="Helvetica,sans-Serif" font-size="10.00">utility</text>
</a>
</g>
</g>
<!-- Node9&#45;&gt;Node12 -->
<g id="edge12" class="edge">
<title>Node9&#45;&gt;Node12</title>
<path fill="none" stroke="midnightblue" d="M837.5,-302.32C850.6,-293.9 870.71,-280.97 886.11,-271.07"/>
<polygon fill="midnightblue" stroke="midnightblue" points="888.02,-274.01 894.54,-265.65 884.23,-268.12 888.02,-274.01"/>
</g>
<!-- Node13 -->
<g id="node13" class="node">
<title>Node13</title>
<g id="a_node13"><a xlink:href="_geometry_8hpp.html" target="_top" xlink:title="Geometric scalars of the Manifold used to calculate the Regge action.">
<polygon fill="white" stroke="black" points="1046.5,-246.5 1046.5,-265.5 1131.5,-265.5 1131.5,-246.5 1046.5,-246.5"/>
<text text-anchor="middle" x="1089" y="-253.5" font-family="Helvetica,sans-Serif" font-size="10.00">Geometry.hpp</text>
</a>
</g>
</g>
<!-- Node9&#45;&gt;Node13 -->
<g id="edge13" class="edge">
<title>Node9&#45;&gt;Node13</title>
<path fill="none" stroke="midnightblue" d="M864.25,-302.8C910.44,-293.39 986.33,-277.92 1036.97,-267.6"/>
<polygon fill="midnightblue" stroke="midnightblue" points="1037.96,-270.97 1047.06,-265.55 1036.56,-264.11 1037.96,-270.97"/>
</g>
<!-- Node14 -->
<g id="node14" class="node">
<title>Node14</title>
<g id="a_node14"><a xlink:href="_foliated__triangulation_8hpp.html" target="_top" xlink:title="Create foliated spherical triangulations.">
<polygon fill="white" stroke="black" points="1098,-190.5 1098,-209.5 1242,-209.5 1242,-190.5 1098,-190.5"/>
<text text-anchor="middle" x="1170" y="-197.5" font-family="Helvetica,sans-Serif" font-size="10.00">Foliated_triangulation.hpp</text>
</a>
</g>
</g>
<!-- Node13&#45;&gt;Node14 -->
<g id="edge14" class="edge">
<title>Node13&#45;&gt;Node14</title>
<path fill="none" stroke="midnightblue" d="M1102.01,-246.32C1114.53,-237.98 1133.68,-225.21 1148.47,-215.35"/>
<polygon fill="midnightblue" stroke="midnightblue" points="1150.64,-218.11 1157.02,-209.65 1146.76,-212.29 1150.64,-218.11"/>
</g>
<!-- Node15 -->
<g id="node15" class="node">
<title>Node15</title>
<g id="a_node15"><a xlink:title=" ">
<polygon fill="white" stroke="#bfbfbf" points="2171,-134.5 2171,-153.5 2231,-153.5 2231,-134.5 2171,-134.5"/>
<text text-anchor="middle" x="2201" y="-141.5" font-family="Helvetica,sans-Serif" font-size="10.00">concepts</text>
</a>
</g>
</g>
<!-- Node14&#45;&gt;Node15 -->
<g id="edge15" class="edge">
<title>Node14&#45;&gt;Node15</title>
<path fill="none" stroke="midnightblue" d="M1242.1,-197.43C1435.74,-192.94 1965.1,-178.86 2160.69,-153.87"/>
<polygon fill="midnightblue" stroke="midnightblue" points="2161.41,-157.31 2170.87,-152.52 2160.49,-150.37 2161.41,-157.31"/>
</g>
<!-- Node16 -->
<g id="node16" class="node">
<title>Node16</title>
<g id="a_node16"><a xlink:href="_triangulation__traits_8hpp.html" target="_top" xlink:title="Traits class for particular uses of CGAL.">
<polygon fill="white" stroke="black" points="2021.5,-134.5 2021.5,-153.5 2152.5,-153.5 2152.5,-134.5 2021.5,-134.5"/>
<text text-anchor="middle" x="2087" y="-141.5" font-family="Helvetica,sans-Serif" font-size="10.00">Triangulation_traits.hpp</text>
</a>
</g>
</g>
<!-- Node14&#45;&gt;Node16 -->
<g id="edge16" class="edge">
<title>Node14&#45;&gt;Node16</title>
<path fill="none" stroke="midnightblue" d="M1242.34,-194.74C1412.66,-184.71 1837.63,-159.68 2011.27,-149.46"/>
<polygon fill="midnightblue" stroke="midnightblue" points="2011.57,-152.95 2021.35,-148.87 2011.16,-145.96 2011.57,-152.95"/>
</g>
<!-- Node25 -->
<g id="node25" class="node">
<title>Node25</title>
<g id="a_node25"><a xlink:href="_utilities_8hpp.html" target="_top" xlink:title="Utility functions.">
<polygon fill="white" stroke="black" points="1006,-134.5 1006,-153.5 1082,-153.5 1082,-134.5 1006,-134.5"/>
<text text-anchor="middle" x="1044" y="-141.5" font-family="Helvetica,sans-Serif" font-size="10.00">Utilities.hpp</text>
</a>
</g>
</g>
<!-- Node14&#45;&gt;Node25 -->
<g id="edge25" class="edge">
<title>Node14&#45;&gt;Node25</title>
<path fill="none" stroke="midnightblue" d="M1150.03,-190.44C1129.39,-181.6 1096.94,-167.69 1073.37,-157.59"/>
<polygon fill="midnightblue" stroke="midnightblue" points="1074.44,-154.24 1063.87,-153.52 1071.68,-160.67 1074.44,-154.24"/>
</g>
<!-- Node17 -->
<g id="node17" class="node">
<title>Node17</title>
<g id="a_node17"><a xlink:title=" ">
<polygon fill="white" stroke="#bfbfbf" points="2585,-67.5 2585,-86.5 2765,-86.5 2765,-67.5 2585,-67.5"/>
<text text-anchor="middle" x="2675" y="-74.5" font-family="Helvetica,sans-Serif" font-size="10.00">CGAL/Delaunay_triangulation_3.h</text>
</a>
</g>
</g>
<!-- Node16&#45;&gt;Node17 -->
<g id="edge17" class="edge">
<title>Node16&#45;&gt;Node17</title>
<path fill="none" stroke="midnightblue" d="M2152.84,-134.98C2155.93,-134.64 2159,-134.31 2162,-134 2345.71,-114.99 2393.19,-124.33 2576,-98 2592.96,-95.56 2611.4,-92.07 2627.71,-88.68"/>
<polygon fill="midnightblue" stroke="midnightblue" points="2628.5,-92.09 2637.56,-86.6 2627.06,-85.24 2628.5,-92.09"/>
</g>
<!-- Node18 -->
<g id="node18" class="node">
<title>Node18</title>
<g id="a_node18"><a xlink:title=" ">
<polygon fill="white" stroke="#bfbfbf" points="1944.5,-56.5 1944.5,-97.5 2073.5,-97.5 2073.5,-56.5 1944.5,-56.5"/>
<text text-anchor="start" x="1952.5" y="-85.5" font-family="Helvetica,sans-Serif" font-size="10.00">CGAL/Exact_predicates</text>
<text text-anchor="start" x="1952.5" y="-74.5" font-family="Helvetica,sans-Serif" font-size="10.00">_inexact_constructions</text>
<text text-anchor="middle" x="2009" y="-63.5" font-family="Helvetica,sans-Serif" font-size="10.00">_kernel.h</text>
</a>
</g>
</g>
<!-- Node16&#45;&gt;Node18 -->
<g id="edge18" class="edge">
<title>Node16&#45;&gt;Node18</title>
<path fill="none" stroke="midnightblue" d="M2076.48,-134.23C2067.18,-126.49 2053.14,-114.78 2040.26,-104.05"/>
<polygon fill="midnightblue" stroke="midnightblue" points="2042.37,-101.26 2032.45,-97.54 2037.89,-106.63 2042.37,-101.26"/>
</g>
<!-- Node19 -->
<g id="node19" class="node">
<title>Node19</title>
<g id="a_node19"><a xlink:title=" ">
<polygon fill="white" stroke="#bfbfbf" points="2091.5,-67.5 2091.5,-86.5 2240.5,-86.5 2240.5,-67.5 2091.5,-67.5"/>
<text text-anchor="middle" x="2166" y="-74.5" font-family="Helvetica,sans-Serif" font-size="10.00">CGAL/point_generators_3.h</text>
</a>
</g>
</g>
<!-- Node16&#45;&gt;Node19 -->
<g id="edge19" class="edge">
<title>Node16&#45;&gt;Node19</title>
<path fill="none" stroke="midnightblue" d="M2097.65,-134.23C2110.45,-123.71 2132.12,-105.88 2147.63,-93.12"/>
<polygon fill="midnightblue" stroke="midnightblue" points="2150.02,-95.68 2155.51,-86.63 2145.57,-90.28 2150.02,-95.68"/>
</g>
<!-- Node20 -->
<g id="node20" class="node">
<title>Node20</title>
<g id="a_node20"><a xlink:title=" ">
<polygon fill="white" stroke="#bfbfbf" points="2259,-62 2259,-92 2397,-92 2397,-62 2259,-62"/>
<text text-anchor="start" x="2267" y="-80" font-family="Helvetica,sans-Serif" font-size="10.00">CGAL/Triangulation</text>
<text text-anchor="middle" x="2328" y="-69" font-family="Helvetica,sans-Serif" font-size="10.00">_cell_base_with_info_3.h</text>
</a>
</g>
</g>
<!-- Node16&#45;&gt;Node20 -->
<g id="edge20" class="edge">
<title>Node16&#45;&gt;Node20</title>
<path fill="none" stroke="midnightblue" d="M2119,-134.37C2156.42,-124.28 2219.2,-107.34 2266.21,-94.66"/>
<polygon fill="midnightblue" stroke="midnightblue" points="2267.24,-98.01 2275.99,-92.03 2265.42,-91.25 2267.24,-98.01"/>
</g>
<!-- Node21 -->
<g id="node21" class="node">
<title>Node21</title>
<g id="a_node21"><a xlink:title=" ">
<polygon fill="white" stroke="#bfbfbf" points="2415,-62 2415,-92 2567,-92 2567,-62 2415,-62"/>
<text text-anchor="start" x="2423" y="-80" font-family="Helvetica,sans-Serif" font-size="10.00">CGAL/Triangulation</text>
<text text-anchor="middle" x="2491" y="-69" font-family="Helvetica,sans-Serif" font-size="10.00">_vertex_base_with_info_3.h</text>
</a>
</g>
</g>
<!-- Node16&#45;&gt;Node21 -->
<g id="edge21" class="edge">
<title>Node16&#45;&gt;Node21</title>
<path fill="none" stroke="midnightblue" d="M2152.57,-134.47C2231.35,-124.09 2358.79,-106.86 2406,-98 2412.06,-96.86 2418.34,-95.58 2424.62,-94.23"/>
<polygon fill="midnightblue" stroke="midnightblue" points="2425.45,-97.63 2434.46,-92.06 2423.94,-90.8 2425.45,-97.63"/>
</g>
<!-- Node22 -->
<g id="node22" class="node">
<title>Node22</title>
<g id="a_node22"><a xlink:href="_settings_8hpp.html" target="_top" xlink:title="Global integer and precision settings.">
<polygon fill="white" stroke="black" points="1849.5,-67.5 1849.5,-86.5 1926.5,-86.5 1926.5,-67.5 1849.5,-67.5"/>
<text text-anchor="middle" x="1888" y="-74.5" font-family="Helvetica,sans-Serif" font-size="10.00">Settings.hpp</text>
</a>
</g>
</g>
<!-- Node16&#45;&gt;Node22 -->
<g id="edge22" class="edge">
<title>Node16&#45;&gt;Node22</title>
<path fill="none" stroke="midnightblue" d="M2054.87,-134.48C2024.08,-126.07 1976.46,-112.41 1936,-98 1929.75,-95.77 1923.13,-93.18 1916.87,-90.61"/>
<polygon fill="midnightblue" stroke="midnightblue" points="1918.01,-87.29 1907.44,-86.64 1915.3,-93.74 1918.01,-87.29"/>
</g>
<!-- Node23 -->
<g id="node23" class="node">
<title>Node23</title>
<g id="a_node23"><a xlink:title=" ">
<polygon fill="white" stroke="#bfbfbf" points="1761,-0.5 1761,-19.5 1901,-19.5 1901,-0.5 1761,-0.5"/>
<text text-anchor="middle" x="1831" y="-7.5" font-family="Helvetica,sans-Serif" font-size="10.00">CGAL/GMP/Gmpzf_type.h</text>
</a>
</g>
</g>
<!-- Node22&#45;&gt;Node23 -->
<g id="edge23" class="edge">
<title>Node22&#45;&gt;Node23</title>
<path fill="none" stroke="midnightblue" d="M1880.31,-67.23C1871.34,-57 1856.31,-39.86 1845.2,-27.19"/>
<polygon fill="midnightblue" stroke="midnightblue" points="1847.79,-24.84 1838.57,-19.63 1842.53,-29.45 1847.79,-24.84"/>
</g>
<!-- Node24 -->
<g id="node24" class="node">
<title>Node24</title>
<g id="a_node24"><a xlink:title=" ">
<polygon fill="white" stroke="#bfbfbf" points="1919,-0.5 1919,-19.5 1969,-19.5 1969,-0.5 1919,-0.5"/>
<text text-anchor="middle" x="1944" y="-7.5" font-family="Helvetica,sans-Serif" font-size="10.00">cstdint</text>
</a>
</g>
</g>
<!-- Node22&#45;&gt;Node24 -->
<g id="edge24" class="edge">
<title>Node22&#45;&gt;Node24</title>
<path fill="none" stroke="midnightblue" d="M1895.55,-67.23C1904.28,-57.1 1918.85,-40.19 1929.74,-27.56"/>
<polygon fill="midnightblue" stroke="midnightblue" points="1932.69,-29.49 1936.57,-19.63 1927.39,-24.92 1932.69,-29.49"/>
</g>
<!-- Node25&#45;&gt;Node3 -->
<g id="edge47" class="edge">
<title>Node25&#45;&gt;Node3</title>
<path fill="none" stroke="midnightblue" d="M1005.74,-141.7C847.44,-136.23 248.12,-114.6 165,-98 156.05,-96.21 146.6,-93.27 138.07,-90.19"/>
<polygon fill="midnightblue" stroke="midnightblue" points="139.15,-86.86 128.56,-86.57 136.66,-93.4 139.15,-86.86"/>
</g>
<!-- Node25&#45;&gt;Node5 -->
<g id="edge38" class="edge">
<title>Node25&#45;&gt;Node5</title>
<path fill="none" stroke="midnightblue" d="M1005.84,-141.54C826.61,-134.64 76.11,-105.38 53,-98 48.74,-96.64 44.51,-94.54 40.59,-92.2"/>
<polygon fill="midnightblue" stroke="midnightblue" points="42.44,-89.22 32.19,-86.54 38.53,-95.03 42.44,-89.22"/>
</g>
<!-- Node25&#45;&gt;Node22 -->
<g id="edge48" class="edge">
<title>Node25&#45;&gt;Node22</title>
<path fill="none" stroke="midnightblue" d="M1082.22,-142.58C1220.46,-140.81 1694.06,-132.31 1841,-98 1848.08,-96.35 1855.44,-93.7 1862.18,-90.87"/>
<polygon fill="midnightblue" stroke="midnightblue" points="1863.82,-93.97 1871.51,-86.68 1860.95,-87.59 1863.82,-93.97"/>
</g>
<!-- Node26 -->
<g id="node26" class="node">
<title>Node26</title>
<g id="a_node26"><a xlink:title=" ">
<polygon fill="white" stroke="#bfbfbf" points="1002.5,-67.5 1002.5,-86.5 1085.5,-86.5 1085.5,-67.5 1002.5,-67.5"/>
<text text-anchor="middle" x="1044" y="-74.5" font-family="Helvetica,sans-Serif" font-size="10.00">CGAL/Timer.h</text>
</a>
</g>
</g>
<!-- Node25&#45;&gt;Node26 -->
<g id="edge26" class="edge">
<title>Node25&#45;&gt;Node26</title>
<path fill="none" stroke="midnightblue" d="M1044,-134.23C1044,-124.68 1044,-109.12 1044,-96.78"/>
<polygon fill="midnightblue" stroke="midnightblue" points="1047.5,-96.63 1044,-86.63 1040.5,-96.63 1047.5,-96.63"/>
</g>
<!-- Node27 -->
<g id="node27" class="node">
<title>Node27</title>
<g id="a_node27"><a xlink:title=" ">
<polygon fill="white" stroke="#bfbfbf" points="1104,-67.5 1104,-86.5 1168,-86.5 1168,-67.5 1104,-67.5"/>
<text text-anchor="middle" x="1136" y="-74.5" font-family="Helvetica,sans-Serif" font-size="10.00">algorithm</text>
</a>
</g>
</g>
<!-- Node25&#45;&gt;Node27 -->
<g id="edge27" class="edge">
<title>Node25&#45;&gt;Node27</title>
<path fill="none" stroke="midnightblue" d="M1056.41,-134.23C1071.58,-123.51 1097.48,-105.22 1115.6,-92.41"/>
<polygon fill="midnightblue" stroke="midnightblue" points="1117.64,-95.26 1123.79,-86.63 1113.6,-89.54 1117.64,-95.26"/>
</g>
<!-- Node28 -->
<g id="node28" class="node">
<title>Node28</title>
<g id="a_node28"><a xlink:title=" ">
<polygon fill="white" stroke="#bfbfbf" points="1186,-67.5 1186,-86.5 1238,-86.5 1238,-67.5 1186,-67.5"/>
<text text-anchor="middle" x="1212" y="-74.5" font-family="Helvetica,sans-Serif" font-size="10.00">cassert</text>
</a>
</g>
</g>
<!-- Node25&#45;&gt;Node28 -->
<g id="edge28" class="edge">
<title>Node25&#45;&gt;Node28</title>
<path fill="none" stroke="midnightblue" d="M1074.75,-134.44C1102.12,-126.39 1142.99,-113.3 1177,-98 1181.09,-96.16 1185.33,-93.99 1189.39,-91.76"/>
<polygon fill="midnightblue" stroke="midnightblue" points="1191.43,-94.63 1198.36,-86.61 1187.94,-88.55 1191.43,-94.63"/>
</g>
<!-- Node29 -->
<g id="node29" class="node">
<title>Node29</title>
<g id="a_node29"><a xlink:title=" ">
<polygon fill="white" stroke="#bfbfbf" points="1256.5,-67.5 1256.5,-86.5 1305.5,-86.5 1305.5,-67.5 1256.5,-67.5"/>
<text text-anchor="middle" x="1281" y="-74.5" font-family="Helvetica,sans-Serif" font-size="10.00">cstdlib</text>
</a>
</g>
</g>
<!-- Node25&#45;&gt;Node29 -->
<g id="edge29" class="edge">
<title>Node25&#45;&gt;Node29</title>
<path fill="none" stroke="midnightblue" d="M1082.08,-138.2C1123.68,-132.13 1191.74,-119.75 1247,-98 1251.35,-96.29 1255.79,-94.07 1259.97,-91.73"/>
<polygon fill="midnightblue" stroke="midnightblue" points="1261.79,-94.73 1268.57,-86.59 1258.19,-88.72 1261.79,-94.73"/>
</g>
<!-- Node30 -->
<g id="node30" class="node">
<title>Node30</title>
<g id="a_node30"><a xlink:title=" ">
<polygon fill="white" stroke="#bfbfbf" points="1324,-67.5 1324,-86.5 1392,-86.5 1392,-67.5 1324,-67.5"/>
<text text-anchor="middle" x="1358" y="-74.5" font-family="Helvetica,sans-Serif" font-size="10.00">filesystem</text>
</a>
</g>
</g>
<!-- Node25&#45;&gt;Node30 -->
<g id="edge30" class="edge">
<title>Node25&#45;&gt;Node30</title>
<path fill="none" stroke="midnightblue" d="M1082,-139.96C1135.12,-134.97 1234.12,-123.01 1315,-98 1320.95,-96.16 1327.13,-93.66 1332.89,-91.06"/>
<polygon fill="midnightblue" stroke="midnightblue" points="1334.56,-94.14 1342.08,-86.67 1331.55,-87.82 1334.56,-94.14"/>
</g>
<!-- Node31 -->
<g id="node31" class="node">
<title>Node31</title>
<g id="a_node31"><a xlink:title=" ">
<polygon fill="white" stroke="#bfbfbf" points="1410.5,-67.5 1410.5,-86.5 1465.5,-86.5 1465.5,-67.5 1410.5,-67.5"/>
<text text-anchor="middle" x="1438" y="-74.5" font-family="Helvetica,sans-Serif" font-size="10.00">fstream</text>
</a>
</g>
</g>
<!-- Node25&#45;&gt;Node31 -->
<g id="edge31" class="edge">
<title>Node25&#45;&gt;Node31</title>
<path fill="none" stroke="midnightblue" d="M1082.25,-142.76C1148.69,-141.35 1289.02,-133.93 1401,-98 1405.95,-96.41 1411.02,-94.16 1415.74,-91.73"/>
<polygon fill="midnightblue" stroke="midnightblue" points="1417.8,-94.59 1424.83,-86.67 1414.39,-88.48 1417.8,-94.59"/>
</g>
<!-- Node32 -->
<g id="node32" class="node">
<title>Node32</title>
<g id="a_node32"><a xlink:title=" ">
<polygon fill="white" stroke="#bfbfbf" points="1484,-67.5 1484,-86.5 1532,-86.5 1532,-67.5 1484,-67.5"/>
<text text-anchor="middle" x="1508" y="-74.5" font-family="Helvetica,sans-Serif" font-size="10.00">gsl/gsl</text>
</a>
</g>
</g>
<!-- Node25&#45;&gt;Node32 -->
<g id="edge32" class="edge">
<title>Node25&#45;&gt;Node32</title>
<path fill="none" stroke="midnightblue" d="M1082.13,-141.16C1173.46,-136.41 1402.53,-122.37 1475,-98 1479.48,-96.49 1483.99,-94.3 1488.19,-91.91"/>
<polygon fill="midnightblue" stroke="midnightblue" points="1490.1,-94.84 1496.71,-86.56 1486.38,-88.91 1490.1,-94.84"/>
</g>
<!-- Node33 -->
<g id="node33" class="node">
<title>Node33</title>
<g id="a_node33"><a xlink:title=" ">
<polygon fill="white" stroke="#bfbfbf" points="1550,-67.5 1550,-86.5 1610,-86.5 1610,-67.5 1550,-67.5"/>
<text text-anchor="middle" x="1580" y="-74.5" font-family="Helvetica,sans-Serif" font-size="10.00">iostream</text>
</a>
</g>
</g>
<!-- Node25&#45;&gt;Node33 -->
<g id="edge33" class="edge">
<title>Node25&#45;&gt;Node33</title>
<path fill="none" stroke="midnightblue" d="M1082.19,-141.43C1183.08,-136.98 1454.87,-122.96 1541,-98 1546.57,-96.39 1552.29,-93.96 1557.56,-91.35"/>
<polygon fill="midnightblue" stroke="midnightblue" points="1559.3,-94.39 1566.46,-86.58 1555.99,-88.22 1559.3,-94.39"/>
</g>
<!-- Node34 -->
<g id="node34" class="node">
<title>Node34</title>
<g id="a_node34"><a xlink:title=" ">
<polygon fill="white" stroke="#bfbfbf" points="1628,-67.5 1628,-86.5 1676,-86.5 1676,-67.5 1628,-67.5"/>
<text text-anchor="middle" x="1652" y="-74.5" font-family="Helvetica,sans-Serif" font-size="10.00">mutex</text>
</a>
</g>
</g>
<!-- Node25&#45;&gt;Node34 -->
<g id="edge34" class="edge">
<title>Node25&#45;&gt;Node34</title>
<path fill="none" stroke="midnightblue" d="M1082.13,-142.31C1193.8,-139.93 1518.56,-130.34 1619,-98 1623.5,-96.55 1628.02,-94.38 1632.22,-92"/>
<polygon fill="midnightblue" stroke="midnightblue" points="1634.13,-94.93 1640.74,-86.64 1630.41,-89.01 1634.13,-94.93"/>
</g>
<!-- Node35 -->
<g id="node35" class="node">
<title>Node35</title>
<g id="a_node35"><a xlink:title=" ">
<polygon fill="white" stroke="#bfbfbf" points="1694,-67.5 1694,-86.5 1748,-86.5 1748,-67.5 1694,-67.5"/>
<text text-anchor="middle" x="1721" y="-74.5" font-family="Helvetica,sans-Serif" font-size="10.00">random</text>
</a>
</g>
</g>
<!-- Node25&#45;&gt;Node35 -->
<g id="edge35" class="edge">
<title>Node25&#45;&gt;Node35</title>
<path fill="none" stroke="midnightblue" d="M1082.12,-142.49C1202.12,-140.53 1570.97,-131.85 1685,-98 1689.96,-96.53 1695,-94.28 1699.67,-91.83"/>
<polygon fill="midnightblue" stroke="midnightblue" points="1701.7,-94.7 1708.61,-86.66 1698.2,-88.64 1701.7,-94.7"/>
</g>
<!-- Node36 -->
<g id="node36" class="node">
<title>Node36</title>
<g id="a_node36"><a xlink:title=" ">
<polygon fill="white" stroke="#bfbfbf" points="174,-67.5 174,-86.5 214,-86.5 214,-67.5 174,-67.5"/>
<text text-anchor="middle" x="194" y="-74.5" font-family="Helvetica,sans-Serif" font-size="10.00">span</text>
</a>
</g>
</g>
<!-- Node25&#45;&gt;Node36 -->
<g id="edge36" class="edge">
<title>Node25&#45;&gt;Node36</title>
<path fill="none" stroke="midnightblue" d="M1005.86,-141.49C849.03,-135.19 260.44,-110.79 223,-98 219.08,-96.66 215.2,-94.63 211.61,-92.36"/>
<polygon fill="midnightblue" stroke="midnightblue" points="213.62,-89.49 203.46,-86.51 209.54,-95.18 213.62,-89.49"/>
</g>
<!-- Node37 -->
<g id="node37" class="node">
<title>Node37</title>
<g id="a_node37"><a xlink:title=" ">
<polygon fill="white" stroke="#bfbfbf" points="1766.5,-67.5 1766.5,-86.5 1831.5,-86.5 1831.5,-67.5 1766.5,-67.5"/>
<text text-anchor="middle" x="1799" y="-74.5" font-family="Helvetica,sans-Serif" font-size="10.00">stdexcept</text>
</a>
</g>
</g>
<!-- Node25&#45;&gt;Node37 -->
<g id="edge37" class="edge">
<title>Node25&#45;&gt;Node37</title>
<path fill="none" stroke="midnightblue" d="M1082.18,-142.5C1210.82,-140.5 1627.64,-131.55 1757,-98 1763.11,-96.42 1769.4,-93.93 1775.2,-91.25"/>
<polygon fill="midnightblue" stroke="midnightblue" points="1776.99,-94.27 1784.36,-86.67 1773.85,-88.01 1776.99,-94.27"/>
</g>
<!-- Node38 -->
<g id="node38" class="node">
<title>Node38</title>
<g id="a_node38"><a xlink:title=" ">
<polygon fill="white" stroke="#bfbfbf" points="232.5,-67.5 232.5,-86.5 297.5,-86.5 297.5,-67.5 232.5,-67.5"/>
<text text-anchor="middle" x="265" y="-74.5" font-family="Helvetica,sans-Serif" font-size="10.00">typeindex</text>
</a>
</g>
</g>
<!-- Node25&#45;&gt;Node38 -->
<g id="edge39" class="edge">
<title>Node25&#45;&gt;Node38</title>
<path fill="none" stroke="midnightblue" d="M1005.98,-141.55C864.61,-136.06 373.89,-115.87 306,-98 300.01,-96.42 293.86,-93.95 288.2,-91.26"/>
<polygon fill="midnightblue" stroke="midnightblue" points="289.76,-88.13 279.26,-86.68 286.56,-94.36 289.76,-88.13"/>
</g>
<!-- Node39 -->
<g id="node39" class="node">
<title>Node39</title>
<g id="a_node39"><a xlink:title=" ">
<polygon fill="white" stroke="#bfbfbf" points="315.5,-67.5 315.5,-86.5 374.5,-86.5 374.5,-67.5 315.5,-67.5"/>
<text text-anchor="middle" x="345" y="-74.5" font-family="Helvetica,sans-Serif" font-size="10.00">date/tz.h</text>
</a>
</g>
</g>
<!-- Node25&#45;&gt;Node39 -->
<g id="edge40" class="edge">
<title>Node25&#45;&gt;Node39</title>
<path fill="none" stroke="midnightblue" d="M1005.99,-141.3C874.52,-135.32 443.89,-114.64 384,-98 378.41,-96.45 372.69,-94.04 367.41,-91.44"/>
<polygon fill="midnightblue" stroke="midnightblue" points="368.98,-88.31 358.52,-86.66 365.67,-94.47 368.98,-88.31"/>
</g>
<!-- Node40 -->
<g id="node40" class="node">
<title>Node40</title>
<g id="a_node40"><a xlink:title=" ">
<polygon fill="white" stroke="#bfbfbf" points="393,-67.5 393,-86.5 443,-86.5 443,-67.5 393,-67.5"/>
<text text-anchor="middle" x="418" y="-74.5" font-family="Helvetica,sans-Serif" font-size="10.00">chrono</text>
</a>
</g>
</g>
<!-- Node25&#45;&gt;Node40 -->
<g id="edge41" class="edge">
<title>Node25&#45;&gt;Node40</title>
<path fill="none" stroke="midnightblue" d="M1005.67,-141.1C882.95,-134.86 504.62,-114.5 452,-98 447.39,-96.56 442.74,-94.39 438.42,-92.01"/>
<polygon fill="midnightblue" stroke="midnightblue" points="440,-88.87 429.64,-86.65 436.35,-94.85 440,-88.87"/>
</g>
<!-- Node41 -->
<g id="node41" class="node">
<title>Node41</title>
<g id="a_node41"><a xlink:title=" ">
<polygon fill="white" stroke="#bfbfbf" points="461,-67.5 461,-86.5 511,-86.5 511,-67.5 461,-67.5"/>
<text text-anchor="middle" x="486" y="-74.5" font-family="Helvetica,sans-Serif" font-size="10.00">format</text>
</a>
</g>
</g>
<!-- Node25&#45;&gt;Node41 -->
<g id="edge42" class="edge">
<title>Node25&#45;&gt;Node41</title>
<path fill="none" stroke="midnightblue" d="M1005.94,-141.91C901.24,-138.58 610.69,-126.92 520,-98 515.4,-96.53 510.75,-94.36 506.43,-91.97"/>
<polygon fill="midnightblue" stroke="midnightblue" points="508.01,-88.83 497.65,-86.62 504.37,-94.81 508.01,-88.83"/>
</g>
<!-- Node42 -->
<g id="node42" class="node">
<title>Node42</title>
<g id="a_node42"><a xlink:title=" ">
<polygon fill="white" stroke="#bfbfbf" points="529,-67.5 529,-86.5 627,-86.5 627,-67.5 529,-67.5"/>
<text text-anchor="middle" x="578" y="-74.5" font-family="Helvetica,sans-Serif" font-size="10.00">pcg_random.hpp</text>
</a>
</g>
</g>
<!-- Node25&#45;&gt;Node42 -->
<g id="edge43" class="edge">
<title>Node25&#45;&gt;Node42</title>
<path fill="none" stroke="midnightblue" d="M1005.85,-141.62C933.1,-138.36 769.85,-128.06 636,-98 626.94,-95.96 617.32,-93 608.58,-89.97"/>
<polygon fill="midnightblue" stroke="midnightblue" points="609.75,-86.67 599.16,-86.56 607.37,-93.25 609.75,-86.67"/>
</g>
<!-- Node43 -->
<g id="node43" class="node">
<title>Node43</title>
<g id="a_node43"><a xlink:title=" ">
<polygon fill="white" stroke="#bfbfbf" points="645,-67.5 645,-86.5 731,-86.5 731,-67.5 645,-67.5"/>
<text text-anchor="middle" x="688" y="-74.5" font-family="Helvetica,sans-Serif" font-size="10.00">fmt/ostream.h</text>
</a>
</g>
</g>
<!-- Node25&#45;&gt;Node43 -->
<g id="edge44" class="edge">
<title>Node25&#45;&gt;Node43</title>
<path fill="none" stroke="midnightblue" d="M1005.54,-140.04C947.32,-134.95 833.65,-122.62 740,-98 732.32,-95.98 724.23,-93.2 716.77,-90.36"/>
<polygon fill="midnightblue" stroke="midnightblue" points="718,-87.08 707.42,-86.64 715.42,-93.59 718,-87.08"/>
</g>
<!-- Node44 -->
<g id="node44" class="node">
<title>Node44</title>
<g id="a_node44"><a xlink:title=" ">
<polygon fill="white" stroke="#bfbfbf" points="749,-62 749,-92 855,-92 855,-62 749,-62"/>
<text text-anchor="start" x="757" y="-80" font-family="Helvetica,sans-Serif" font-size="10.00">spdlog/sinks/basic</text>
<text text-anchor="middle" x="802" y="-69" font-family="Helvetica,sans-Serif" font-size="10.00">_file_sink.h</text>
</a>
</g>
</g>
<!-- Node25&#45;&gt;Node44 -->
<g id="edge45" class="edge">
<title>Node25&#45;&gt;Node44</title>
<path fill="none" stroke="midnightblue" d="M1007.14,-134.43C970.83,-125.82 913.85,-111.88 865,-98 861.64,-97.05 858.19,-96.04 854.72,-95"/>
<polygon fill="midnightblue" stroke="midnightblue" points="855.52,-91.58 844.93,-92.02 853.48,-98.28 855.52,-91.58"/>
</g>
<!-- Node45 -->
<g id="node45" class="node">
<title>Node45</title>
<g id="a_node45"><a xlink:title=" ">
<polygon fill="white" stroke="#bfbfbf" points="873.5,-62 873.5,-92 984.5,-92 984.5,-62 873.5,-62"/>
<text text-anchor="start" x="881.5" y="-80" font-family="Helvetica,sans-Serif" font-size="10.00">spdlog/sinks/stdout</text>
<text text-anchor="middle" x="929" y="-69" font-family="Helvetica,sans-Serif" font-size="10.00">_color_sinks.h</text>
</a>
</g>
</g>
<!-- Node25&#45;&gt;Node45 -->
<g id="edge46" class="edge">
<title>Node25&#45;&gt;Node45</title>
<path fill="none" stroke="midnightblue" d="M1028.49,-134.23C1011.75,-124.77 984.58,-109.41 962.86,-97.14"/>
<polygon fill="midnightblue" stroke="midnightblue" points="964.35,-93.96 953.93,-92.09 960.91,-100.06 964.35,-93.96"/>
</g>
<!-- Node46&#45;&gt;Node10 -->
<g id="edge51" class="edge">
<title>Node46&#45;&gt;Node10</title>
<path fill="none" stroke="midnightblue" d="M684.09,-190.32C694.49,-182.18 710.26,-169.84 722.72,-160.09"/>
<polygon fill="midnightblue" stroke="midnightblue" points="724.99,-162.75 730.71,-153.83 720.68,-157.24 724.99,-162.75"/>
</g>
<!-- Node46&#45;&gt;Node22 -->
<g id="edge54" class="edge">
<title>Node46&#45;&gt;Node22</title>
<path fill="none" stroke="midnightblue" d="M724.58,-196.71C921.31,-187.62 1624.38,-152 1841,-98 1848.05,-96.24 1855.41,-93.56 1862.15,-90.72"/>
<polygon fill="midnightblue" stroke="midnightblue" points="1863.78,-93.83 1871.48,-86.55 1860.92,-87.44 1863.78,-93.83"/>
</g>
<!-- Node46&#45;&gt;Node25 -->
<g id="edge55" class="edge">
<title>Node46&#45;&gt;Node25</title>
<path fill="none" stroke="midnightblue" d="M724.59,-191.49C796.36,-181.04 925.41,-162.26 995.5,-152.06"/>
<polygon fill="midnightblue" stroke="midnightblue" points="996.42,-155.46 1005.81,-150.56 995.41,-148.54 996.42,-155.46"/>
</g>
<!-- Node46&#45;&gt;Node36 -->
<g id="edge53" class="edge">
<title>Node46&#45;&gt;Node36</title>
<path fill="none" stroke="midnightblue" d="M674.96,-190.36C677.57,-176.32 680.26,-148.64 665,-134 593.9,-65.77 315.82,-131.1 223,-98 219.27,-96.67 215.56,-94.73 212.12,-92.58"/>
<polygon fill="midnightblue" stroke="midnightblue" points="213.93,-89.57 203.74,-86.64 209.88,-95.28 213.93,-89.57"/>
</g>
<!-- Node47 -->
<g id="node47" class="node">
<title>Node47</title>
<g id="a_node47"><a xlink:title=" ">
<polygon fill="white" stroke="#bfbfbf" points="546,-134.5 546,-153.5 588,-153.5 588,-134.5 546,-134.5"/>
<text text-anchor="middle" x="567" y="-141.5" font-family="Helvetica,sans-Serif" font-size="10.00">array</text>
</a>
</g>
</g>
<!-- Node46&#45;&gt;Node47 -->
<g id="edge50" class="edge">
<title>Node46&#45;&gt;Node47</title>
<path fill="none" stroke="midnightblue" d="M655.97,-190.32C638.97,-181.66 612.62,-168.24 593.01,-158.25"/>
<polygon fill="midnightblue" stroke="midnightblue" points="594.49,-155.08 583.99,-153.65 591.31,-161.31 594.49,-155.08"/>
</g>
<!-- Node48 -->
<g id="node48" class="node">
<title>Node48</title>
<g id="a_node48"><a xlink:title=" ">
<polygon fill="white" stroke="#bfbfbf" points="606,-134.5 606,-153.5 656,-153.5 656,-134.5 606,-134.5"/>
<text text-anchor="middle" x="631" y="-141.5" font-family="Helvetica,sans-Serif" font-size="10.00">gsl/util</text>
</a>
</g>
</g>
<!-- Node46&#45;&gt;Node48 -->
<g id="edge52" class="edge">
<title>Node46&#45;&gt;Node48</title>
<path fill="none" stroke="midnightblue" d="M666.06,-190.08C660.07,-182.38 651.25,-171.03 643.95,-161.65"/>
<polygon fill="midnightblue" stroke="midnightblue" points="646.71,-159.5 637.81,-153.75 641.18,-163.79 646.71,-159.5"/>
</g>
</g>
</svg>
        <g id="navigator" transform="translate(0 0)" fill="#404254">
                <rect fill="#f2f5e9" fill-opacity="0.5" stroke="#606060" stroke-width=".5" x="0" y="0" width="60" height="60"/>
                <use id="zoomplus" xlink:href="#zoomPlus" x="17" y="9" onmousedown="handleZoom(evt,'in')"/>
                <use id="zoomminus" xlink:href="#zoomMin" x="42" y="9" onmousedown="handleZoom(evt,'out')"/>
                <use id="reset" xlink:href="#resetDef" x="30" y="36" onmousedown="handleReset()"/>
                <g id="arrowUp" xlink:href="#dirArrow" transform="translate(30 24)" onmousedown="handlePan(0,-1)">
                  <use xlink:href="#rim" fill="#404040">
                        <set attributeName="fill" to="#808080" begin="arrowUp.mouseover" end="arrowUp.mouseout"/>
                  </use>
                  <path fill="none" stroke="white" stroke-width="1.5" d="M0,-3.0v7 M-2.5,-0.5L0,-3.0L2.5,-0.5"/>
                </g>
                <g id="arrowRight" xlink:href="#dirArrow" transform="rotate(90) translate(36 -43)" onmousedown="handlePan(1,0)">
                  <use xlink:href="#rim" fill="#404040">
                        <set attributeName="fill" to="#808080" begin="arrowRight.mouseover" end="arrowRight.mouseout"/>
                  </use>
                  <path fill="none" stroke="white" stroke-width="1.5" d="M0,-3.0v7 M-2.5,-0.5L0,-3.0L2.5,-0.5"/>
                </g>
                <g id="arrowDown" xlink:href="#dirArrow" transform="rotate(180) translate(-30 -48)" onmousedown="handlePan(0,1)">
                  <use xlink:href="#rim" fill="#404040">
                        <set attributeName="fill" to="#808080" begin="arrowDown.mouseover" end="arrowDown.mouseout"/>
                  </use>
                  <path fill="none" stroke="white" stroke-width="1.5" d="M0,-3.0v7 M-2.5,-0.5L0,-3.0L2.5,-0.5"/>
                </g>
                <g id="arrowLeft" xlink:href="#dirArrow" transform="rotate(270) translate(-36 17)" onmousedown="handlePan(-1,0)">
                  <use xlink:href="#rim" fill="#404040">
                        <set attributeName="fill" to="#808080" begin="arrowLeft.mouseover" end="arrowLeft.mouseout"/>
                  </use>
                  <path fill="none" stroke="white" stroke-width="1.5" d="M0,-3.0v7 M-2.5,-0.5L0,-3.0L2.5,-0.5"/>
                </g>
        </g>
        <svg viewBox="0 0 15 15" width="100%" height="30px" preserveAspectRatio="xMaxYMin meet">
         <g id="arrow_out" transform="scale(0.3 0.3)">
          <a xlink:href="_move__command_8hpp__incl_org.svg" target="_base">
           <rect id="button" ry="5" rx="5" y="6" x="6" height="38" width="38"
                fill="#f2f5e9" fill-opacity="0.5" stroke="#606060" stroke-width="1.0"/>
           <path id="arrow"
             d="M 11.500037,31.436501 C 11.940474,20.09759 22.043105,11.32322 32.158766,21.979434 L 37.068811,17.246167 C 37.068811,17.246167 37.088388,32 37.088388,32 L 22.160133,31.978069 C 22.160133,31.978069 26.997745,27.140456 26.997745,27.140456 C 18.528582,18.264221 13.291696,25.230495 11.500037,31.436501 z"
             style="fill:#404040;"/>
          </a>
         </g>
        </svg>
</svg>
