<?xml version="1.0" encoding="UTF-8" standalone="no"?>
<!DOCTYPE svg PUBLIC "-//W3C//DTD SVG 1.1//EN"
 "http://www.w3.org/Graphics/SVG/1.1/DTD/svg11.dtd">
<!-- Generated by graphviz version 2.43.0 (0)
 -->
<!-- Title: include/Move_tracker.hpp Pages: 1 -->
<!--zoomable 203 -->
<svg id="main" version="1.1" xmlns="http://www.w3.org/2000/svg" xmlns:xlink="http://www.w3.org/1999/xlink" xml:space="preserve" onload="init(evt)">
<style type="text/css"><![CDATA[
.edge:hover path { stroke: red; }
.edge:hover polygon { stroke: red; fill: red; }
]]></style>
<script type="text/javascript"><![CDATA[
var edges = document.getElementsByTagName('g');
if (edges && edges.length) {
  for (var i=0;i<edges.length;i++) {
    if (edges[i].id.substr(0,4)=='edge') {
      edges[i].setAttribute('class','edge');
    }
  }
}
]]></script>
        <defs>
                <circle id="rim" cx="0" cy="0" r="7"/>
                <circle id="rim2" cx="0" cy="0" r="3.5"/>
                <g id="zoomPlus">
                        <use xlink:href="#rim" fill="#404040">
                                <set attributeName="fill" to="#808080" begin="zoomplus.mouseover" end="zoomplus.mouseout"/>
                        </use>
                        <path d="M-4,0h8M0,-4v8" fill="none" stroke="white" stroke-width="1.5" pointer-events="none"/>
                </g>
                <g id="zoomMin">
                        <use xlink:href="#rim" fill="#404040">
                                <set attributeName="fill" to="#808080" begin="zoomminus.mouseover" end="zoomminus.mouseout"/>
                        </use>
                        <path d="M-4,0h8" fill="none" stroke="white" stroke-width="1.5" pointer-events="none"/>
                </g>
                <g id="dirArrow">
                        <path fill="none" stroke="white" stroke-width="1.5" d="M0,-3.0v7 M-2.5,-0.5L0,-3.0L2.5,-0.5"/>
                </g>
               <g id="resetDef">
                       <use xlink:href="#rim2" fill="#404040">
                               <set attributeName="fill" to="#808080" begin="reset.mouseover" end="reset.mouseout"/>
                       </use>
               </g>
        </defs>

<script type="text/javascript">
var viewWidth = 1468;
var viewHeight = 203;
var sectionId = 'dynsection-0';
</script>
<script xlink:href="svgpan.js"/>
<svg id="graph" class="graph">
<g id="viewport">
<title>include/Move_tracker.hpp</title>
<!-- Node1 -->
<g id="node1" class="node">
<title>Node1</title>
<g id="a_node1"><a xlink:title="Track ergodic moves.">
<polygon fill="#999999" stroke="#666666" points="253.5,-195 112.5,-195 112.5,-176 253.5,-176 253.5,-195"/>
<text text-anchor="middle" x="183" y="-183" font-family="Helvetica,sans-Serif" font-size="10.00">include/Move_tracker.hpp</text>
</a>
</g>
</g>
<!-- Node2 -->
<g id="node2" class="node">
<title>Node2</title>
<g id="a_node2"><a xlink:title=" ">
<polygon fill="#e0e0e0" stroke="#999999" points="42,-140 0,-140 0,-121 42,-121 42,-140"/>
<text text-anchor="middle" x="21" y="-128" font-family="Helvetica,sans-Serif" font-size="10.00">array</text>
</a>
</g>
</g>
<!-- Node1&#45;&gt;Node2 -->
<g id="edge1" class="edge">
<title>Node1&#45;&gt;Node2</title>
<path fill="none" stroke="#63b8ff" d="M156.97,-175.98C128.36,-166.63 82.44,-151.6 51.99,-141.64"/>
<polygon fill="#63b8ff" stroke="#63b8ff" points="52.9,-138.25 42.31,-138.47 50.72,-144.91 52.9,-138.25"/>
</g>
<!-- Node3 -->
<g id="node3" class="node">
<title>Node3</title>
<g id="a_node3"><a xlink:title=" ">
<polygon fill="#e0e0e0" stroke="#999999" points="113.5,-140 60.5,-140 60.5,-121 113.5,-121 113.5,-140"/>
<text text-anchor="middle" x="87" y="-128" font-family="Helvetica,sans-Serif" font-size="10.00">cstddef</text>
</a>
</g>
</g>
<!-- Node1&#45;&gt;Node3 -->
<g id="edge2" class="edge">
<title>Node1&#45;&gt;Node3</title>
<path fill="none" stroke="#63b8ff" d="M167.58,-175.98C152.55,-167.69 129.46,-154.94 111.84,-145.22"/>
<polygon fill="#63b8ff" stroke="#63b8ff" points="113.15,-141.94 102.7,-140.17 109.77,-148.07 113.15,-141.94"/>
</g>
<!-- Node4 -->
<g id="node4" class="node">
<title>Node4</title>
<g id="a_node4"><a xlink:title=" ">
<polygon fill="#e0e0e0" stroke="#999999" points="182,-140 132,-140 132,-121 182,-121 182,-140"/>
<text text-anchor="middle" x="157" y="-128" font-family="Helvetica,sans-Serif" font-size="10.00">gsl/util</text>
</a>
</g>
</g>
<!-- Node1&#45;&gt;Node4 -->
<g id="edge3" class="edge">
<title>Node1&#45;&gt;Node4</title>
<path fill="none" stroke="#63b8ff" d="M178.71,-175.75C175.19,-168.57 170.09,-158.18 165.72,-149.27"/>
<polygon fill="#63b8ff" stroke="#63b8ff" points="168.76,-147.53 161.21,-140.09 162.48,-150.61 168.76,-147.53"/>
</g>
<!-- Node5 -->
<g id="node5" class="node">
<title>Node5</title>
<g id="a_node5"><a xlink:title=" ">
<polygon fill="#e0e0e0" stroke="#999999" points="191,-79.5 151,-79.5 151,-60.5 191,-60.5 191,-79.5"/>
<text text-anchor="middle" x="171" y="-67.5" font-family="Helvetica,sans-Serif" font-size="10.00">span</text>
</a>
</g>
</g>
<!-- Node1&#45;&gt;Node5 -->
<g id="edge4" class="edge">
<title>Node1&#45;&gt;Node5</title>
<path fill="none" stroke="#63b8ff" d="M185.82,-175.82C189.41,-163.53 194.74,-140.42 191,-121 188.84,-109.81 184.21,-97.94 179.94,-88.57"/>
<polygon fill="#63b8ff" stroke="#63b8ff" points="183.08,-87.03 175.59,-79.54 176.78,-90.07 183.08,-87.03"/>
</g>
<!-- Node6 -->
<g id="node6" class="node">
<title>Node6</title>
<g id="a_node6"><a xlink:href="_settings_8hpp.html" target="_top" xlink:title="Global integer and precision settings.">
<polygon fill="white" stroke="#666666" points="286.5,-79.5 209.5,-79.5 209.5,-60.5 286.5,-60.5 286.5,-79.5"/>
<text text-anchor="middle" x="248" y="-67.5" font-family="Helvetica,sans-Serif" font-size="10.00">Settings.hpp</text>
</a>
</g>
</g>
<!-- Node1&#45;&gt;Node6 -->
<g id="edge5" class="edge">
<title>Node1&#45;&gt;Node6</title>
<path fill="none" stroke="#63b8ff" d="M187.89,-175.97C198.52,-157.4 223.94,-113.01 238.08,-88.32"/>
<polygon fill="#63b8ff" stroke="#63b8ff" points="241.13,-90.05 243.06,-79.63 235.05,-86.57 241.13,-90.05"/>
</g>
<!-- Node9 -->
<g id="node9" class="node">
<title>Node9</title>
<g id="a_node9"><a xlink:href="_utilities_8hpp.html" target="_top" xlink:title="Utility functions.">
<polygon fill="white" stroke="#666666" points="819,-140 743,-140 743,-121 819,-121 819,-140"/>
<text text-anchor="middle" x="781" y="-128" font-family="Helvetica,sans-Serif" font-size="10.00">Utilities.hpp</text>
</a>
</g>
</g>
<!-- Node1&#45;&gt;Node9 -->
<g id="edge8" class="edge">
<title>Node1&#45;&gt;Node9</title>
<path fill="none" stroke="#63b8ff" d="M253.65,-178.24C376.73,-167.33 627.39,-145.11 732.7,-135.78"/>
<polygon fill="#63b8ff" stroke="#63b8ff" points="733.07,-139.26 742.72,-134.89 732.45,-132.29 733.07,-139.26"/>
</g>
<!-- Node7 -->
<g id="node7" class="node">
<title>Node7</title>
<g id="a_node7"><a xlink:title=" ">
<polygon fill="#e0e0e0" stroke="#999999" points="262,-19 122,-19 122,0 262,0 262,-19"/>
<text text-anchor="middle" x="192" y="-7" font-family="Helvetica,sans-Serif" font-size="10.00">CGAL/GMP/Gmpzf_type.h</text>
</a>
</g>
</g>
<!-- Node6&#45;&gt;Node7 -->
<g id="edge6" class="edge">
<title>Node6&#45;&gt;Node7</title>
<path fill="none" stroke="#63b8ff" d="M239.74,-60.37C231.22,-51.47 217.74,-37.39 207.27,-26.45"/>
<polygon fill="#63b8ff" stroke="#63b8ff" points="209.74,-23.97 200.3,-19.17 204.68,-28.81 209.74,-23.97"/>
</g>
<!-- Node8 -->
<g id="node8" class="node">
<title>Node8</title>
<g id="a_node8"><a xlink:title=" ">
<polygon fill="#e0e0e0" stroke="#999999" points="330,-19 280,-19 280,0 330,0 330,-19"/>
<text text-anchor="middle" x="305" y="-7" font-family="Helvetica,sans-Serif" font-size="10.00">cstdint</text>
</a>
</g>
</g>
<!-- Node6&#45;&gt;Node8 -->
<g id="edge7" class="edge">
<title>Node6&#45;&gt;Node8</title>
<path fill="none" stroke="#63b8ff" d="M256.41,-60.37C265.08,-51.47 278.8,-37.39 289.46,-26.45"/>
<polygon fill="#63b8ff" stroke="#63b8ff" points="292.08,-28.77 296.55,-19.17 287.07,-23.89 292.08,-28.77"/>
</g>
<!-- Node9&#45;&gt;Node5 -->
<g id="edge14" class="edge">
<title>Node9&#45;&gt;Node5</title>
<path fill="none" stroke="#63b8ff" d="M742.61,-128.42C630.15,-124.96 302.93,-112.72 200,-85 198.52,-84.6 197.02,-84.12 195.52,-83.59"/>
<polygon fill="#63b8ff" stroke="#63b8ff" points="196.51,-80.21 185.94,-79.52 193.77,-86.65 196.51,-80.21"/>
</g>
<!-- Node9&#45;&gt;Node6 -->
<g id="edge23" class="edge">
<title>Node9&#45;&gt;Node6</title>
<path fill="none" stroke="#63b8ff" d="M742.92,-128.49C660.66,-125.77 460.48,-116.23 296,-85 292.04,-84.25 287.93,-83.31 283.86,-82.27"/>
<polygon fill="#63b8ff" stroke="#63b8ff" points="284.51,-78.82 273.94,-79.55 282.66,-85.57 284.51,-78.82"/>
</g>
<!-- Node10 -->
<g id="node10" class="node">
<title>Node10</title>
<g id="a_node10"><a xlink:title=" ">
<polygon fill="#e0e0e0" stroke="#999999" points="1098,-79.5 1030,-79.5 1030,-60.5 1098,-60.5 1098,-79.5"/>
<text text-anchor="middle" x="1064" y="-67.5" font-family="Helvetica,sans-Serif" font-size="10.00">filesystem</text>
</a>
</g>
</g>
<!-- Node9&#45;&gt;Node10 -->
<g id="edge9" class="edge">
<title>Node9&#45;&gt;Node10</title>
<path fill="none" stroke="#63b8ff" d="M819.16,-124.01C866.79,-116.8 950.57,-102.91 1021,-85 1023.95,-84.25 1026.99,-83.41 1030.03,-82.51"/>
<polygon fill="#63b8ff" stroke="#63b8ff" points="1031.08,-85.85 1039.6,-79.56 1029.02,-79.16 1031.08,-85.85"/>
</g>
<!-- Node11 -->
<g id="node11" class="node">
<title>Node11</title>
<g id="a_node11"><a xlink:title=" ">
<polygon fill="#e0e0e0" stroke="#999999" points="1171.5,-79.5 1116.5,-79.5 1116.5,-60.5 1171.5,-60.5 1171.5,-79.5"/>
<text text-anchor="middle" x="1144" y="-67.5" font-family="Helvetica,sans-Serif" font-size="10.00">fstream</text>
</a>
</g>
</g>
<!-- Node9&#45;&gt;Node11 -->
<g id="edge10" class="edge">
<title>Node9&#45;&gt;Node11</title>
<path fill="none" stroke="#63b8ff" d="M819.18,-127.1C880.61,-122.6 1004.85,-110.94 1107,-85 1109.45,-84.38 1111.95,-83.65 1114.45,-82.85"/>
<polygon fill="#63b8ff" stroke="#63b8ff" points="1115.62,-86.15 1123.91,-79.54 1113.31,-79.54 1115.62,-86.15"/>
</g>
<!-- Node12 -->
<g id="node12" class="node">
<title>Node12</title>
<g id="a_node12"><a xlink:title=" ">
<polygon fill="#e0e0e0" stroke="#999999" points="1238,-79.5 1190,-79.5 1190,-60.5 1238,-60.5 1238,-79.5"/>
<text text-anchor="middle" x="1214" y="-67.5" font-family="Helvetica,sans-Serif" font-size="10.00">gsl/gsl</text>
</a>
</g>
</g>
<!-- Node9&#45;&gt;Node12 -->
<g id="edge11" class="edge">
<title>Node9&#45;&gt;Node12</title>
<path fill="none" stroke="#63b8ff" d="M819.17,-128.92C891.11,-127.02 1051.22,-118.97 1181,-85 1182.94,-84.49 1184.92,-83.89 1186.89,-83.22"/>
<polygon fill="#63b8ff" stroke="#63b8ff" points="1188.44,-86.38 1196.52,-79.53 1185.93,-79.84 1188.44,-86.38"/>
</g>
<!-- Node13 -->
<g id="node13" class="node">
<title>Node13</title>
<g id="a_node13"><a xlink:title=" ">
<polygon fill="#e0e0e0" stroke="#999999" points="1304,-79.5 1256,-79.5 1256,-60.5 1304,-60.5 1304,-79.5"/>
<text text-anchor="middle" x="1280" y="-67.5" font-family="Helvetica,sans-Serif" font-size="10.00">mutex</text>
</a>
</g>
</g>
<!-- Node9&#45;&gt;Node13 -->
<g id="edge12" class="edge">
<title>Node9&#45;&gt;Node13</title>
<path fill="none" stroke="#63b8ff" d="M819.12,-129.77C899.51,-129.48 1091.8,-124.33 1247,-85 1248.95,-84.51 1250.92,-83.92 1252.9,-83.26"/>
<polygon fill="#63b8ff" stroke="#63b8ff" points="1254.44,-86.42 1262.53,-79.58 1251.94,-79.88 1254.44,-86.42"/>
</g>
<!-- Node14 -->
<g id="node14" class="node">
<title>Node14</title>
<g id="a_node14"><a xlink:title=" ">
<polygon fill="#e0e0e0" stroke="#999999" points="1376,-79.5 1322,-79.5 1322,-60.5 1376,-60.5 1376,-79.5"/>
<text text-anchor="middle" x="1349" y="-67.5" font-family="Helvetica,sans-Serif" font-size="10.00">random</text>
</a>
</g>
</g>
<!-- Node9&#45;&gt;Node14 -->
<g id="edge13" class="edge">
<title>Node9&#45;&gt;Node14</title>
<path fill="none" stroke="#63b8ff" d="M819.31,-130.03C907.6,-130.45 1131.72,-126.91 1313,-85 1315.37,-84.45 1317.79,-83.78 1320.2,-83.03"/>
<polygon fill="#63b8ff" stroke="#63b8ff" points="1321.63,-86.23 1329.89,-79.6 1319.3,-79.63 1321.63,-86.23"/>
</g>
<!-- Node15 -->
<g id="node15" class="node">
<title>Node15</title>
<g id="a_node15"><a xlink:title=" ">
<polygon fill="#e0e0e0" stroke="#999999" points="1459.5,-79.5 1394.5,-79.5 1394.5,-60.5 1459.5,-60.5 1459.5,-79.5"/>
<text text-anchor="middle" x="1427" y="-67.5" font-family="Helvetica,sans-Serif" font-size="10.00">stdexcept</text>
</a>
</g>
</g>
<!-- Node9&#45;&gt;Node15 -->
<g id="edge15" class="edge">
<title>Node9&#45;&gt;Node15</title>
<path fill="none" stroke="#63b8ff" d="M819.25,-129.95C915.38,-130.38 1174.42,-127.17 1385,-85 1388.24,-84.35 1391.58,-83.53 1394.89,-82.6"/>
<polygon fill="#63b8ff" stroke="#63b8ff" points="1396.08,-85.89 1404.61,-79.6 1394.02,-79.2 1396.08,-85.89"/>
</g>
<!-- Node16 -->
<g id="node16" class="node">
<title>Node16</title>
<g id="a_node16"><a xlink:title=" ">
<polygon fill="#e0e0e0" stroke="#999999" points="349,-79.5 305,-79.5 305,-60.5 349,-60.5 349,-79.5"/>
<text text-anchor="middle" x="327" y="-67.5" font-family="Helvetica,sans-Serif" font-size="10.00">string</text>
</a>
</g>
</g>
<!-- Node9&#45;&gt;Node16 -->
<g id="edge16" class="edge">
<title>Node9&#45;&gt;Node16</title>
<path fill="none" stroke="#63b8ff" d="M742.75,-129.36C667.83,-128.25 496.98,-121.52 359,-85 357.11,-84.5 355.19,-83.9 353.27,-83.24"/>
<polygon fill="#63b8ff" stroke="#63b8ff" points="354.51,-79.97 343.92,-79.56 351.94,-86.48 354.51,-79.97"/>
</g>
<!-- Node17 -->
<g id="node17" class="node">
<title>Node17</title>
<g id="a_node17"><a xlink:title=" ">
<polygon fill="#e0e0e0" stroke="#999999" points="426.5,-79.5 367.5,-79.5 367.5,-60.5 426.5,-60.5 426.5,-79.5"/>
<text text-anchor="middle" x="397" y="-67.5" font-family="Helvetica,sans-Serif" font-size="10.00">date/tz.h</text>
</a>
</g>
</g>
<!-- Node9&#45;&gt;Node17 -->
<g id="edge17" class="edge">
<title>Node9&#45;&gt;Node17</title>
<path fill="none" stroke="#63b8ff" d="M742.99,-127.29C678.91,-122.98 545.64,-111.42 436,-85 433.34,-84.36 430.61,-83.6 427.88,-82.77"/>
<polygon fill="#63b8ff" stroke="#63b8ff" points="428.8,-79.38 418.2,-79.55 426.59,-86.03 428.8,-79.38"/>
</g>
<!-- Node18 -->
<g id="node18" class="node">
<title>Node18</title>
<g id="a_node18"><a xlink:title=" ">
<polygon fill="#e0e0e0" stroke="#999999" points="543,-79.5 445,-79.5 445,-60.5 543,-60.5 543,-79.5"/>
<text text-anchor="middle" x="494" y="-67.5" font-family="Helvetica,sans-Serif" font-size="10.00">pcg_random.hpp</text>
</a>
</g>
</g>
<!-- Node9&#45;&gt;Node18 -->
<g id="edge18" class="edge">
<title>Node9&#45;&gt;Node18</title>
<path fill="none" stroke="#63b8ff" d="M742.8,-122.62C697.26,-114.29 618.88,-99.56 552,-85 547.55,-84.03 542.92,-82.98 538.31,-81.91"/>
<polygon fill="#63b8ff" stroke="#63b8ff" points="538.83,-78.44 528.29,-79.55 537.22,-85.25 538.83,-78.44"/>
</g>
<!-- Node19 -->
<g id="node19" class="node">
<title>Node19</title>
<g id="a_node19"><a xlink:title=" ">
<polygon fill="#e0e0e0" stroke="#999999" points="647,-79.5 561,-79.5 561,-60.5 647,-60.5 647,-79.5"/>
<text text-anchor="middle" x="604" y="-67.5" font-family="Helvetica,sans-Serif" font-size="10.00">fmt/ostream.h</text>
</a>
</g>
</g>
<!-- Node9&#45;&gt;Node19 -->
<g id="edge19" class="edge">
<title>Node9&#45;&gt;Node19</title>
<path fill="none" stroke="#63b8ff" d="M755.26,-120.99C724.72,-110.9 673.63,-94.01 639.38,-82.69"/>
<polygon fill="#63b8ff" stroke="#63b8ff" points="640.36,-79.33 629.77,-79.52 638.16,-85.98 640.36,-79.33"/>
</g>
<!-- Node20 -->
<g id="node20" class="node">
<title>Node20</title>
<g id="a_node20"><a xlink:title=" ">
<polygon fill="#e0e0e0" stroke="#999999" points="771,-85 665,-85 665,-55 771,-55 771,-85"/>
<text text-anchor="start" x="673" y="-73" font-family="Helvetica,sans-Serif" font-size="10.00">spdlog/sinks/basic</text>
<text text-anchor="middle" x="718" y="-62" font-family="Helvetica,sans-Serif" font-size="10.00">_file_sink.h</text>
</a>
</g>
</g>
<!-- Node9&#45;&gt;Node20 -->
<g id="edge20" class="edge">
<title>Node9&#45;&gt;Node20</title>
<path fill="none" stroke="#63b8ff" d="M771.7,-120.87C763.55,-113.3 751.36,-101.98 740.66,-92.04"/>
<polygon fill="#63b8ff" stroke="#63b8ff" points="742.91,-89.35 733.2,-85.11 738.15,-94.48 742.91,-89.35"/>
</g>
<!-- Node21 -->
<g id="node21" class="node">
<title>Node21</title>
<g id="a_node21"><a xlink:title=" ">
<polygon fill="#e0e0e0" stroke="#999999" points="900.5,-85 789.5,-85 789.5,-55 900.5,-55 900.5,-85"/>
<text text-anchor="start" x="797.5" y="-73" font-family="Helvetica,sans-Serif" font-size="10.00">spdlog/sinks/stdout</text>
<text text-anchor="middle" x="845" y="-62" font-family="Helvetica,sans-Serif" font-size="10.00">_color_sinks.h</text>
</a>
</g>
</g>
<!-- Node9&#45;&gt;Node21 -->
<g id="edge21" class="edge">
<title>Node9&#45;&gt;Node21</title>
<path fill="none" stroke="#63b8ff" d="M790.44,-120.87C798.73,-113.3 811.11,-101.98 821.99,-92.04"/>
<polygon fill="#63b8ff" stroke="#63b8ff" points="824.54,-94.44 829.56,-85.11 819.82,-89.28 824.54,-94.44"/>
</g>
<!-- Node22 -->
<g id="node22" class="node">
<title>Node22</title>
<g id="a_node22"><a xlink:title=" ">
<polygon fill="#e0e0e0" stroke="#999999" points="1011.5,-79.5 918.5,-79.5 918.5,-60.5 1011.5,-60.5 1011.5,-79.5"/>
<text text-anchor="middle" x="965" y="-67.5" font-family="Helvetica,sans-Serif" font-size="10.00">spdlog/spdlog.h</text>
</a>
</g>
</g>
<!-- Node9&#45;&gt;Node22 -->
<g id="edge22" class="edge">
<title>Node9&#45;&gt;Node22</title>
<path fill="none" stroke="#63b8ff" d="M807.76,-120.99C839.64,-110.86 893.07,-93.87 928.68,-82.55"/>
<polygon fill="#63b8ff" stroke="#63b8ff" points="929.74,-85.88 938.21,-79.52 927.62,-79.21 929.74,-85.88"/>
</g>
</g>
</svg>
        <g id="navigator" transform="translate(0 0)" fill="#404254">
                <rect fill="#f2f5e9" fill-opacity="0.5" stroke="#606060" stroke-width=".5" x="0" y="0" width="60" height="60"/>
                <use id="zoomplus" xlink:href="#zoomPlus" x="17" y="9" onmousedown="handleZoom(evt,'in')"/>
                <use id="zoomminus" xlink:href="#zoomMin" x="42" y="9" onmousedown="handleZoom(evt,'out')"/>
                <use id="reset" xlink:href="#resetDef" x="30" y="36" onmousedown="handleReset()"/>
                <g id="arrowUp" xlink:href="#dirArrow" transform="translate(30 24)" onmousedown="handlePan(0,-1)">
                  <use xlink:href="#rim" fill="#404040">
                        <set attributeName="fill" to="#808080" begin="arrowUp.mouseover" end="arrowUp.mouseout"/>
                  </use>
                  <path fill="none" stroke="white" stroke-width="1.5" d="M0,-3.0v7 M-2.5,-0.5L0,-3.0L2.5,-0.5"/>
                </g>
                <g id="arrowRight" xlink:href="#dirArrow" transform="rotate(90) translate(36 -43)" onmousedown="handlePan(1,0)">
                  <use xlink:href="#rim" fill="#404040">
                        <set attributeName="fill" to="#808080" begin="arrowRight.mouseover" end="arrowRight.mouseout"/>
                  </use>
                  <path fill="none" stroke="white" stroke-width="1.5" d="M0,-3.0v7 M-2.5,-0.5L0,-3.0L2.5,-0.5"/>
                </g>
                <g id="arrowDown" xlink:href="#dirArrow" transform="rotate(180) translate(-30 -48)" onmousedown="handlePan(0,1)">
                  <use xlink:href="#rim" fill="#404040">
                        <set attributeName="fill" to="#808080" begin="arrowDown.mouseover" end="arrowDown.mouseout"/>
                  </use>
                  <path fill="none" stroke="white" stroke-width="1.5" d="M0,-3.0v7 M-2.5,-0.5L0,-3.0L2.5,-0.5"/>
                </g>
                <g id="arrowLeft" xlink:href="#dirArrow" transform="rotate(270) translate(-36 17)" onmousedown="handlePan(-1,0)">
                  <use xlink:href="#rim" fill="#404040">
                        <set attributeName="fill" to="#808080" begin="arrowLeft.mouseover" end="arrowLeft.mouseout"/>
                  </use>
                  <path fill="none" stroke="white" stroke-width="1.5" d="M0,-3.0v7 M-2.5,-0.5L0,-3.0L2.5,-0.5"/>
                </g>
        </g>
        <svg viewBox="0 0 15 15" width="100%" height="30px" preserveAspectRatio="xMaxYMin meet">
         <g id="arrow_out" transform="scale(0.3 0.3)">
          <a xlink:href="_move__tracker_8hpp__incl_org.svg" target="_base">
           <rect id="button" ry="5" rx="5" y="6" x="6" height="38" width="38"
                fill="#f2f5e9" fill-opacity="0.5" stroke="#606060" stroke-width="1.0"/>
           <path id="arrow"
             d="M 11.500037,31.436501 C 11.940474,20.09759 22.043105,11.32322 32.158766,21.979434 L 37.068811,17.246167 C 37.068811,17.246167 37.088388,32 37.088388,32 L 22.160133,31.978069 C 22.160133,31.978069 26.997745,27.140456 26.997745,27.140456 C 18.528582,18.264221 13.291696,25.230495 11.500037,31.436501 z"
             style="fill:#404040;"/>
          </a>
         </g>
        </svg>
</svg>
