<?xml version="1.0" encoding="UTF-8" standalone="no"?>
<!DOCTYPE svg PUBLIC "-//W3C//DTD SVG 1.1//EN"
 "http://www.w3.org/Graphics/SVG/1.1/DTD/svg11.dtd">
<!-- Generated by graphviz version 2.43.0 (0)
 -->
<!-- Title: include/Move_tracker.hpp Pages: 1 -->
<svg width="1950pt" height="207pt"
 viewBox="0.00 0.00 1949.50 207.00" xmlns="http://www.w3.org/2000/svg" xmlns:xlink="http://www.w3.org/1999/xlink">
<g id="graph0" class="graph" transform="scale(1 1) rotate(0) translate(4 203)">
<title>include/Move_tracker.hpp</title>
<polygon fill="white" stroke="transparent" points="-4,4 -4,-203 1945.5,-203 1945.5,4 -4,4"/>
<!-- Node1 -->
<g id="node1" class="node">
<title>Node1</title>
<g id="a_node1"><a xlink:title="Track ergodic moves.">
<polygon fill="#bfbfbf" stroke="black" points="112.5,-179.5 112.5,-198.5 253.5,-198.5 253.5,-179.5 112.5,-179.5"/>
<text text-anchor="middle" x="183" y="-186.5" font-family="Helvetica,sans-Serif" font-size="10.00">include/Move_tracker.hpp</text>
</a>
</g>
</g>
<!-- Node2 -->
<g id="node2" class="node">
<title>Node2</title>
<g id="a_node2"><a xlink:title=" ">
<polygon fill="white" stroke="#bfbfbf" points="0,-123.5 0,-142.5 42,-142.5 42,-123.5 0,-123.5"/>
<text text-anchor="middle" x="21" y="-130.5" font-family="Helvetica,sans-Serif" font-size="10.00">array</text>
</a>
</g>
</g>
<!-- Node1&#45;&gt;Node2 -->
<g id="edge1" class="edge">
<title>Node1&#45;&gt;Node2</title>
<path fill="none" stroke="midnightblue" d="M157.33,-179.44C128.79,-169.93 82.71,-154.57 52.14,-144.38"/>
<polygon fill="midnightblue" stroke="midnightblue" points="53,-140.98 42.41,-141.14 50.79,-147.62 53,-140.98"/>
</g>
<!-- Node3 -->
<g id="node3" class="node">
<title>Node3</title>
<g id="a_node3"><a xlink:title=" ">
<polygon fill="white" stroke="#bfbfbf" points="60.5,-123.5 60.5,-142.5 113.5,-142.5 113.5,-123.5 60.5,-123.5"/>
<text text-anchor="middle" x="87" y="-130.5" font-family="Helvetica,sans-Serif" font-size="10.00">cstddef</text>
</a>
</g>
</g>
<!-- Node1&#45;&gt;Node3 -->
<g id="edge2" class="edge">
<title>Node1&#45;&gt;Node3</title>
<path fill="none" stroke="midnightblue" d="M167.58,-179.32C152.46,-170.82 129.18,-157.73 111.53,-147.8"/>
<polygon fill="midnightblue" stroke="midnightblue" points="112.82,-144.51 102.39,-142.65 109.39,-150.61 112.82,-144.51"/>
</g>
<!-- Node4 -->
<g id="node4" class="node">
<title>Node4</title>
<g id="a_node4"><a xlink:title=" ">
<polygon fill="white" stroke="#bfbfbf" points="132,-123.5 132,-142.5 182,-142.5 182,-123.5 132,-123.5"/>
<text text-anchor="middle" x="157" y="-130.5" font-family="Helvetica,sans-Serif" font-size="10.00">gsl/util</text>
</a>
</g>
</g>
<!-- Node1&#45;&gt;Node4 -->
<g id="edge3" class="edge">
<title>Node1&#45;&gt;Node4</title>
<path fill="none" stroke="midnightblue" d="M178.71,-179.08C175.15,-171.69 169.98,-160.95 165.58,-151.81"/>
<polygon fill="midnightblue" stroke="midnightblue" points="168.71,-150.24 161.21,-142.75 162.4,-153.28 168.71,-150.24"/>
</g>
<!-- Node5 -->
<g id="node5" class="node">
<title>Node5</title>
<g id="a_node5"><a xlink:title=" ">
<polygon fill="white" stroke="#bfbfbf" points="151,-62 151,-81 191,-81 191,-62 151,-62"/>
<text text-anchor="middle" x="171" y="-69" font-family="Helvetica,sans-Serif" font-size="10.00">span</text>
</a>
</g>
</g>
<!-- Node1&#45;&gt;Node5 -->
<g id="edge4" class="edge">
<title>Node1&#45;&gt;Node5</title>
<path fill="none" stroke="midnightblue" d="M185.83,-179.11C189.44,-166.54 194.79,-142.88 191,-123 188.85,-111.71 184.21,-99.72 179.94,-90.26"/>
<polygon fill="midnightblue" stroke="midnightblue" points="183.05,-88.65 175.59,-81.13 176.74,-91.67 183.05,-88.65"/>
</g>
<!-- Node6 -->
<g id="node6" class="node">
<title>Node6</title>
<g id="a_node6"><a xlink:href="_settings_8hpp.html" target="_top" xlink:title="Global integer and precision settings.">
<polygon fill="white" stroke="black" points="209.5,-62 209.5,-81 286.5,-81 286.5,-62 209.5,-62"/>
<text text-anchor="middle" x="248" y="-69" font-family="Helvetica,sans-Serif" font-size="10.00">Settings.hpp</text>
</a>
</g>
</g>
<!-- Node1&#45;&gt;Node6 -->
<g id="edge5" class="edge">
<title>Node1&#45;&gt;Node6</title>
<path fill="none" stroke="midnightblue" d="M187.89,-179.32C198.52,-160.42 223.94,-115.25 238.08,-90.12"/>
<polygon fill="midnightblue" stroke="midnightblue" points="241.2,-91.71 243.06,-81.28 235.1,-88.28 241.2,-91.71"/>
</g>
<!-- Node9 -->
<g id="node9" class="node">
<title>Node9</title>
<g id="a_node9"><a xlink:href="_utilities_8hpp.html" target="_top" xlink:title="Utility functions.">
<polygon fill="white" stroke="black" points="856,-123.5 856,-142.5 932,-142.5 932,-123.5 856,-123.5"/>
<text text-anchor="middle" x="894" y="-130.5" font-family="Helvetica,sans-Serif" font-size="10.00">Utilities.hpp</text>
</a>
</g>
</g>
<!-- Node1&#45;&gt;Node9 -->
<g id="edge8" class="edge">
<title>Node1&#45;&gt;Node9</title>
<path fill="none" stroke="midnightblue" d="M253.77,-182.62C397.97,-171.67 722.54,-147.02 845.52,-137.68"/>
<polygon fill="midnightblue" stroke="midnightblue" points="846.05,-141.15 855.75,-136.9 845.52,-134.17 846.05,-141.15"/>
</g>
<!-- Node7 -->
<g id="node7" class="node">
<title>Node7</title>
<g id="a_node7"><a xlink:title=" ">
<polygon fill="white" stroke="#bfbfbf" points="122,-0.5 122,-19.5 262,-19.5 262,-0.5 122,-0.5"/>
<text text-anchor="middle" x="192" y="-7.5" font-family="Helvetica,sans-Serif" font-size="10.00">CGAL/GMP/Gmpzf_type.h</text>
</a>
</g>
</g>
<!-- Node6&#45;&gt;Node7 -->
<g id="edge6" class="edge">
<title>Node6&#45;&gt;Node7</title>
<path fill="none" stroke="midnightblue" d="M239.98,-61.98C231.41,-52.87 217.64,-38.24 207.04,-26.98"/>
<polygon fill="midnightblue" stroke="midnightblue" points="209.41,-24.39 200.01,-19.51 204.31,-29.19 209.41,-24.39"/>
</g>
<!-- Node8 -->
<g id="node8" class="node">
<title>Node8</title>
<g id="a_node8"><a xlink:title=" ">
<polygon fill="white" stroke="#bfbfbf" points="280,-0.5 280,-19.5 330,-19.5 330,-0.5 280,-0.5"/>
<text text-anchor="middle" x="305" y="-7.5" font-family="Helvetica,sans-Serif" font-size="10.00">cstdint</text>
</a>
</g>
</g>
<!-- Node6&#45;&gt;Node8 -->
<g id="edge7" class="edge">
<title>Node6&#45;&gt;Node8</title>
<path fill="none" stroke="midnightblue" d="M256.17,-61.98C264.89,-52.87 278.9,-38.24 289.69,-26.98"/>
<polygon fill="midnightblue" stroke="midnightblue" points="292.46,-29.15 296.85,-19.51 287.4,-24.31 292.46,-29.15"/>
</g>
<!-- Node9&#45;&gt;Node5 -->
<g id="edge19" class="edge">
<title>Node9&#45;&gt;Node5</title>
<path fill="none" stroke="midnightblue" d="M855.94,-131.52C729.64,-129.6 325.29,-120.89 200,-87 198.28,-86.54 196.55,-85.96 194.82,-85.32"/>
<polygon fill="midnightblue" stroke="midnightblue" points="195.86,-81.95 185.3,-81.06 193,-88.34 195.86,-81.95"/>
</g>
<!-- Node9&#45;&gt;Node6 -->
<g id="edge29" class="edge">
<title>Node9&#45;&gt;Node6</title>
<path fill="none" stroke="midnightblue" d="M855.85,-132C760.56,-131.38 504.8,-125.91 296,-87 291.55,-86.17 286.92,-85.08 282.38,-83.87"/>
<polygon fill="midnightblue" stroke="midnightblue" points="283.24,-80.47 272.66,-81.07 281.3,-87.2 283.24,-80.47"/>
</g>
<!-- Node10 -->
<g id="node10" class="node">
<title>Node10</title>
<g id="a_node10"><a xlink:title=" ">
<polygon fill="white" stroke="#bfbfbf" points="1478.5,-62 1478.5,-81 1561.5,-81 1561.5,-62 1478.5,-62"/>
<text text-anchor="middle" x="1520" y="-69" font-family="Helvetica,sans-Serif" font-size="10.00">CGAL/Timer.h</text>
</a>
</g>
</g>
<!-- Node9&#45;&gt;Node10 -->
<g id="edge9" class="edge">
<title>Node9&#45;&gt;Node10</title>
<path fill="none" stroke="midnightblue" d="M932.08,-131.7C1024.86,-130.4 1269.68,-123.48 1470,-87 1474.75,-86.13 1479.7,-85 1484.55,-83.74"/>
<polygon fill="midnightblue" stroke="midnightblue" points="1485.59,-87.09 1494.29,-81.05 1483.72,-80.34 1485.59,-87.09"/>
</g>
<!-- Node11 -->
<g id="node11" class="node">
<title>Node11</title>
<g id="a_node11"><a xlink:title=" ">
<polygon fill="white" stroke="#bfbfbf" points="1580,-62 1580,-81 1644,-81 1644,-62 1580,-62"/>
<text text-anchor="middle" x="1612" y="-69" font-family="Helvetica,sans-Serif" font-size="10.00">algorithm</text>
</a>
</g>
</g>
<!-- Node9&#45;&gt;Node11 -->
<g id="edge10" class="edge">
<title>Node9&#45;&gt;Node11</title>
<path fill="none" stroke="midnightblue" d="M932.28,-130.83C1056.5,-126.82 1447.41,-112.46 1571,-87 1574.51,-86.28 1578.12,-85.32 1581.69,-84.25"/>
<polygon fill="midnightblue" stroke="midnightblue" points="1583.07,-87.48 1591.46,-81 1580.86,-80.84 1583.07,-87.48"/>
</g>
<!-- Node12 -->
<g id="node12" class="node">
<title>Node12</title>
<g id="a_node12"><a xlink:title=" ">
<polygon fill="white" stroke="#bfbfbf" points="1662,-62 1662,-81 1714,-81 1714,-62 1662,-62"/>
<text text-anchor="middle" x="1688" y="-69" font-family="Helvetica,sans-Serif" font-size="10.00">cassert</text>
</a>
</g>
</g>
<!-- Node9&#45;&gt;Node12 -->
<g id="edge11" class="edge">
<title>Node9&#45;&gt;Node12</title>
<path fill="none" stroke="midnightblue" d="M932.22,-131.41C1066.15,-129.09 1513.58,-119.06 1653,-87 1655.67,-86.39 1658.4,-85.59 1661.1,-84.68"/>
<polygon fill="midnightblue" stroke="midnightblue" points="1662.48,-87.9 1670.57,-81.06 1659.98,-81.36 1662.48,-87.9"/>
</g>
<!-- Node13 -->
<g id="node13" class="node">
<title>Node13</title>
<g id="a_node13"><a xlink:title=" ">
<polygon fill="white" stroke="#bfbfbf" points="1732.5,-62 1732.5,-81 1781.5,-81 1781.5,-62 1732.5,-62"/>
<text text-anchor="middle" x="1757" y="-69" font-family="Helvetica,sans-Serif" font-size="10.00">cstdlib</text>
</a>
</g>
</g>
<!-- Node9&#45;&gt;Node13 -->
<g id="edge12" class="edge">
<title>Node9&#45;&gt;Node13</title>
<path fill="none" stroke="midnightblue" d="M932.28,-131.68C1074.15,-130.24 1569.63,-122.7 1723,-87 1725.52,-86.41 1728.08,-85.65 1730.62,-84.79"/>
<polygon fill="midnightblue" stroke="midnightblue" points="1732.06,-87.98 1740.1,-81.08 1729.51,-81.47 1732.06,-87.98"/>
</g>
<!-- Node14 -->
<g id="node14" class="node">
<title>Node14</title>
<g id="a_node14"><a xlink:title=" ">
<polygon fill="white" stroke="#bfbfbf" points="1800,-62 1800,-81 1868,-81 1868,-62 1800,-62"/>
<text text-anchor="middle" x="1834" y="-69" font-family="Helvetica,sans-Serif" font-size="10.00">filesystem</text>
</a>
</g>
</g>
<!-- Node9&#45;&gt;Node14 -->
<g id="edge13" class="edge">
<title>Node9&#45;&gt;Node14</title>
<path fill="none" stroke="midnightblue" d="M932.23,-131.48C1081.15,-129.23 1622.49,-119 1791,-87 1794.89,-86.26 1798.92,-85.25 1802.87,-84.11"/>
<polygon fill="midnightblue" stroke="midnightblue" points="1803.97,-87.43 1812.44,-81.06 1801.85,-80.76 1803.97,-87.43"/>
</g>
<!-- Node15 -->
<g id="node15" class="node">
<title>Node15</title>
<g id="a_node15"><a xlink:title=" ">
<polygon fill="white" stroke="#bfbfbf" points="1886.5,-62 1886.5,-81 1941.5,-81 1941.5,-62 1886.5,-62"/>
<text text-anchor="middle" x="1914" y="-69" font-family="Helvetica,sans-Serif" font-size="10.00">fstream</text>
</a>
</g>
</g>
<!-- Node9&#45;&gt;Node15 -->
<g id="edge14" class="edge">
<title>Node9&#45;&gt;Node15</title>
<path fill="none" stroke="midnightblue" d="M932.13,-131.92C1089.86,-131.31 1691.73,-126.42 1877,-87 1880.01,-86.36 1883.09,-85.5 1886.13,-84.53"/>
<polygon fill="midnightblue" stroke="midnightblue" points="1887.34,-87.81 1895.54,-81.1 1884.95,-81.23 1887.34,-87.81"/>
</g>
<!-- Node16 -->
<g id="node16" class="node">
<title>Node16</title>
<g id="a_node16"><a xlink:title=" ">
<polygon fill="white" stroke="#bfbfbf" points="305,-62 305,-81 353,-81 353,-62 305,-62"/>
<text text-anchor="middle" x="329" y="-69" font-family="Helvetica,sans-Serif" font-size="10.00">gsl/gsl</text>
</a>
</g>
</g>
<!-- Node9&#45;&gt;Node16 -->
<g id="edge15" class="edge">
<title>Node9&#45;&gt;Node16</title>
<path fill="none" stroke="midnightblue" d="M855.9,-130.41C750.35,-125.73 455.76,-110.86 362,-87 359.7,-86.41 357.35,-85.68 355.03,-84.86"/>
<polygon fill="midnightblue" stroke="midnightblue" points="356.33,-81.61 345.75,-81.13 353.72,-88.11 356.33,-81.61"/>
</g>
<!-- Node17 -->
<g id="node17" class="node">
<title>Node17</title>
<g id="a_node17"><a xlink:title=" ">
<polygon fill="white" stroke="#bfbfbf" points="371,-62 371,-81 431,-81 431,-62 371,-62"/>
<text text-anchor="middle" x="401" y="-69" font-family="Helvetica,sans-Serif" font-size="10.00">iostream</text>
</a>
</g>
</g>
<!-- Node9&#45;&gt;Node17 -->
<g id="edge16" class="edge">
<title>Node9&#45;&gt;Node17</title>
<path fill="none" stroke="midnightblue" d="M855.8,-131.51C777.02,-129.78 591.25,-122 440,-87 436.93,-86.29 433.78,-85.4 430.66,-84.42"/>
<polygon fill="midnightblue" stroke="midnightblue" points="431.53,-81.02 420.94,-81.04 429.23,-87.63 431.53,-81.02"/>
</g>
<!-- Node18 -->
<g id="node18" class="node">
<title>Node18</title>
<g id="a_node18"><a xlink:title=" ">
<polygon fill="white" stroke="#bfbfbf" points="449,-62 449,-81 497,-81 497,-62 449,-62"/>
<text text-anchor="middle" x="473" y="-69" font-family="Helvetica,sans-Serif" font-size="10.00">mutex</text>
</a>
</g>
</g>
<!-- Node9&#45;&gt;Node18 -->
<g id="edge17" class="edge">
<title>Node9&#45;&gt;Node18</title>
<path fill="none" stroke="midnightblue" d="M855.84,-131.32C785.46,-129.26 631.01,-120.89 506,-87 503.71,-86.38 501.37,-85.62 499.05,-84.78"/>
<polygon fill="midnightblue" stroke="midnightblue" points="500.36,-81.54 489.77,-81.02 497.73,-88.03 500.36,-81.54"/>
</g>
<!-- Node19 -->
<g id="node19" class="node">
<title>Node19</title>
<g id="a_node19"><a xlink:title=" ">
<polygon fill="white" stroke="#bfbfbf" points="515,-62 515,-81 569,-81 569,-62 515,-62"/>
<text text-anchor="middle" x="542" y="-69" font-family="Helvetica,sans-Serif" font-size="10.00">random</text>
</a>
</g>
</g>
<!-- Node9&#45;&gt;Node19 -->
<g id="edge18" class="edge">
<title>Node9&#45;&gt;Node19</title>
<path fill="none" stroke="midnightblue" d="M855.61,-129.39C795.72,-124.69 676.76,-112.76 579,-87 576.34,-86.3 573.61,-85.46 570.9,-84.56"/>
<polygon fill="midnightblue" stroke="midnightblue" points="571.9,-81.19 561.3,-81.04 569.49,-87.77 571.9,-81.19"/>
</g>
<!-- Node20 -->
<g id="node20" class="node">
<title>Node20</title>
<g id="a_node20"><a xlink:title=" ">
<polygon fill="white" stroke="#bfbfbf" points="587.5,-62 587.5,-81 652.5,-81 652.5,-62 587.5,-62"/>
<text text-anchor="middle" x="620" y="-69" font-family="Helvetica,sans-Serif" font-size="10.00">stdexcept</text>
</a>
</g>
</g>
<!-- Node9&#45;&gt;Node20 -->
<g id="edge20" class="edge">
<title>Node9&#45;&gt;Node20</title>
<path fill="none" stroke="midnightblue" d="M855.85,-126.29C809.57,-118.98 729.37,-105.07 662,-87 658.97,-86.19 655.84,-85.27 652.72,-84.29"/>
<polygon fill="midnightblue" stroke="midnightblue" points="653.52,-80.87 642.93,-81.07 651.33,-87.52 653.52,-80.87"/>
</g>
<!-- Node21 -->
<g id="node21" class="node">
<title>Node21</title>
<g id="a_node21"><a xlink:title=" ">
<polygon fill="white" stroke="#bfbfbf" points="671,-62 671,-81 715,-81 715,-62 671,-62"/>
<text text-anchor="middle" x="693" y="-69" font-family="Helvetica,sans-Serif" font-size="10.00">string</text>
</a>
</g>
</g>
<!-- Node9&#45;&gt;Node21 -->
<g id="edge21" class="edge">
<title>Node9&#45;&gt;Node21</title>
<path fill="none" stroke="midnightblue" d="M855.87,-123.75C821.25,-115.81 769.04,-102.72 725,-87 723.34,-86.41 721.65,-85.76 719.95,-85.09"/>
<polygon fill="midnightblue" stroke="midnightblue" points="720.96,-81.71 710.39,-81.01 718.21,-88.15 720.96,-81.71"/>
</g>
<!-- Node22 -->
<g id="node22" class="node">
<title>Node22</title>
<g id="a_node22"><a xlink:title=" ">
<polygon fill="white" stroke="#bfbfbf" points="733.5,-62 733.5,-81 798.5,-81 798.5,-62 733.5,-62"/>
<text text-anchor="middle" x="766" y="-69" font-family="Helvetica,sans-Serif" font-size="10.00">typeindex</text>
</a>
</g>
</g>
<!-- Node9&#45;&gt;Node22 -->
<g id="edge22" class="edge">
<title>Node9&#45;&gt;Node22</title>
<path fill="none" stroke="midnightblue" d="M875.66,-123.48C854.18,-113.49 818.38,-96.85 793.55,-85.31"/>
<polygon fill="midnightblue" stroke="midnightblue" points="794.85,-82.05 784.31,-81.01 791.9,-88.4 794.85,-82.05"/>
</g>
<!-- Node23 -->
<g id="node23" class="node">
<title>Node23</title>
<g id="a_node23"><a xlink:title=" ">
<polygon fill="white" stroke="#bfbfbf" points="816.5,-62 816.5,-81 875.5,-81 875.5,-62 816.5,-62"/>
<text text-anchor="middle" x="846" y="-69" font-family="Helvetica,sans-Serif" font-size="10.00">date/tz.h</text>
</a>
</g>
</g>
<!-- Node9&#45;&gt;Node23 -->
<g id="edge23" class="edge">
<title>Node9&#45;&gt;Node23</title>
<path fill="none" stroke="midnightblue" d="M887.12,-123.48C879.85,-114.46 868.2,-100.02 859.16,-88.81"/>
<polygon fill="midnightblue" stroke="midnightblue" points="861.87,-86.59 852.86,-81.01 856.42,-90.99 861.87,-86.59"/>
</g>
<!-- Node24 -->
<g id="node24" class="node">
<title>Node24</title>
<g id="a_node24"><a xlink:title=" ">
<polygon fill="white" stroke="#bfbfbf" points="894,-62 894,-81 992,-81 992,-62 894,-62"/>
<text text-anchor="middle" x="943" y="-69" font-family="Helvetica,sans-Serif" font-size="10.00">pcg_random.hpp</text>
</a>
</g>
</g>
<!-- Node9&#45;&gt;Node24 -->
<g id="edge24" class="edge">
<title>Node9&#45;&gt;Node24</title>
<path fill="none" stroke="midnightblue" d="M901.02,-123.48C908.44,-114.46 920.33,-100.02 929.57,-88.81"/>
<polygon fill="midnightblue" stroke="midnightblue" points="932.34,-90.95 935.99,-81.01 926.93,-86.5 932.34,-90.95"/>
</g>
<!-- Node25 -->
<g id="node25" class="node">
<title>Node25</title>
<g id="a_node25"><a xlink:title=" ">
<polygon fill="white" stroke="#bfbfbf" points="1010,-62 1010,-81 1096,-81 1096,-62 1010,-62"/>
<text text-anchor="middle" x="1053" y="-69" font-family="Helvetica,sans-Serif" font-size="10.00">fmt/ostream.h</text>
</a>
</g>
</g>
<!-- Node9&#45;&gt;Node25 -->
<g id="edge25" class="edge">
<title>Node9&#45;&gt;Node25</title>
<path fill="none" stroke="midnightblue" d="M916.78,-123.48C944.05,-113.27 989.91,-96.11 1020.8,-84.55"/>
<polygon fill="midnightblue" stroke="midnightblue" points="1022.12,-87.79 1030.26,-81.01 1019.67,-81.24 1022.12,-87.79"/>
</g>
<!-- Node26 -->
<g id="node26" class="node">
<title>Node26</title>
<g id="a_node26"><a xlink:title=" ">
<polygon fill="white" stroke="#bfbfbf" points="1114,-56.5 1114,-86.5 1220,-86.5 1220,-56.5 1114,-56.5"/>
<text text-anchor="start" x="1122" y="-74.5" font-family="Helvetica,sans-Serif" font-size="10.00">spdlog/sinks/basic</text>
<text text-anchor="middle" x="1167" y="-63.5" font-family="Helvetica,sans-Serif" font-size="10.00">_file_sink.h</text>
</a>
</g>
</g>
<!-- Node9&#45;&gt;Node26 -->
<g id="edge26" class="edge">
<title>Node9&#45;&gt;Node26</title>
<path fill="none" stroke="midnightblue" d="M932.17,-124.1C972.4,-115.71 1037.9,-101.91 1103.77,-87.25"/>
<polygon fill="midnightblue" stroke="midnightblue" points="1104.92,-90.58 1113.92,-84.99 1103.39,-83.75 1104.92,-90.58"/>
</g>
<!-- Node27 -->
<g id="node27" class="node">
<title>Node27</title>
<g id="a_node27"><a xlink:title=" ">
<polygon fill="white" stroke="#bfbfbf" points="1238.5,-56.5 1238.5,-86.5 1349.5,-86.5 1349.5,-56.5 1238.5,-56.5"/>
<text text-anchor="start" x="1246.5" y="-74.5" font-family="Helvetica,sans-Serif" font-size="10.00">spdlog/sinks/stdout</text>
<text text-anchor="middle" x="1294" y="-63.5" font-family="Helvetica,sans-Serif" font-size="10.00">_color_sinks.h</text>
</a>
</g>
</g>
<!-- Node9&#45;&gt;Node27 -->
<g id="edge27" class="edge">
<title>Node9&#45;&gt;Node27</title>
<path fill="none" stroke="midnightblue" d="M932.1,-127.96C992.66,-121.31 1114.81,-106.93 1228.48,-86.99"/>
<polygon fill="midnightblue" stroke="midnightblue" points="1229.16,-90.43 1238.39,-85.23 1227.94,-83.53 1229.16,-90.43"/>
</g>
<!-- Node28 -->
<g id="node28" class="node">
<title>Node28</title>
<g id="a_node28"><a xlink:title=" ">
<polygon fill="white" stroke="#bfbfbf" points="1367.5,-62 1367.5,-81 1460.5,-81 1460.5,-62 1367.5,-62"/>
<text text-anchor="middle" x="1414" y="-69" font-family="Helvetica,sans-Serif" font-size="10.00">spdlog/spdlog.h</text>
</a>
</g>
</g>
<!-- Node9&#45;&gt;Node28 -->
<g id="edge28" class="edge">
<title>Node9&#45;&gt;Node28</title>
<path fill="none" stroke="midnightblue" d="M932.26,-130.39C1012.11,-126.57 1202.12,-115.08 1359,-87 1364.21,-86.07 1369.65,-84.89 1375,-83.61"/>
<polygon fill="midnightblue" stroke="midnightblue" points="1376.24,-86.9 1385.08,-81.06 1374.53,-80.12 1376.24,-86.9"/>
</g>
</g>
</svg>
