<?xml version="1.0" encoding="UTF-8" standalone="no"?>
<!DOCTYPE svg PUBLIC "-//W3C//DTD SVG 1.1//EN"
 "http://www.w3.org/Graphics/SVG/1.1/DTD/svg11.dtd">
<!-- Generated by graphviz version 15.1.0 (20260618.0150)
 -->
<!-- Title: include/Move_outcome.hpp Pages: 1 -->
<svg width="2759pt" height="269pt"
 viewBox="0.00 0.00 2759.00 269.00" xmlns="http://www.w3.org/2000/svg" xmlns:xlink="http://www.w3.org/1999/xlink">
<g id="graph0" class="graph" transform="scale(1 1) rotate(0) translate(4 264.5)">
<title>include/Move_outcome.hpp</title>
<!-- Node1 -->
<g id="Node000001" class="node">
<title>Node1</title>
<g id="a_Node000001"><a xlink:title="Structured Pachner&#45;move failures and transition outcomes.">
<polygon fill="#999999" stroke="#666666" points="150.25,-260.5 0,-260.5 0,-239.75 150.25,-239.75 150.25,-260.5"/>
<text xml:space="preserve" text-anchor="middle" x="75.12" y="-247" font-family="Helvetica,sans-Serif" font-size="10.00">include/Move_outcome.hpp</text>
</a>
</g>
</g>
<!-- Node2 -->
<g id="Node000002" class="node">
<title>Node2</title>
<g id="a_Node000002"><a xlink:title=" ">
<polygon fill="#e0e0e0" stroke="#999999" points="404.62,-20.75 355.62,-20.75 355.62,0 404.62,0 404.62,-20.75"/>
<text xml:space="preserve" text-anchor="middle" x="380.12" y="-7.25" font-family="Helvetica,sans-Serif" font-size="10.00">cstdint</text>
</a>
</g>
</g>
<!-- Node1&#45;&gt;Node2 -->
<g id="edge1_Node000001_Node000002" class="edge">
<title>Node1&#45;&gt;Node2</title>
<g id="a_edge1_Node000001_Node000002"><a xlink:title=" ">
<path fill="none" stroke="#63b8ff" d="M77.29,-239.42C85.83,-201.25 117.13,-63.18 124.12,-56.75 196.13,9.38 245.31,-40.19 341.12,-20.75 342.14,-20.54 343.17,-20.33 344.21,-20.11"/>
<polygon fill="#63b8ff" stroke="#63b8ff" points="344.96,-23.53 353.95,-17.93 343.43,-16.7 344.96,-23.53"/>
</a>
</g>
</g>
<!-- Node3 -->
<g id="Node000003" class="node">
<title>Node3</title>
<g id="a_Node000003"><a xlink:title=" ">
<polygon fill="#e0e0e0" stroke="#999999" points="76.62,-203.75 15.62,-203.75 15.62,-183 76.62,-183 76.62,-203.75"/>
<text xml:space="preserve" text-anchor="middle" x="46.12" y="-190.25" font-family="Helvetica,sans-Serif" font-size="10.00">expected</text>
</a>
</g>
</g>
<!-- Node1&#45;&gt;Node3 -->
<g id="edge2_Node000001_Node000003" class="edge">
<title>Node1&#45;&gt;Node3</title>
<g id="a_edge2_Node000001_Node000003"><a xlink:title=" ">
<path fill="none" stroke="#63b8ff" d="M69.94,-239.34C66.23,-232.33 61.11,-222.66 56.56,-214.08"/>
<polygon fill="#63b8ff" stroke="#63b8ff" points="59.75,-212.61 51.97,-205.42 53.56,-215.89 59.75,-212.61"/>
</a>
</g>
</g>
<!-- Node4 -->
<g id="Node000004" class="node">
<title>Node4</title>
<g id="a_Node000004"><a xlink:title=" ">
<polygon fill="#e0e0e0" stroke="#999999" points="205.25,-83.88 133,-83.88 133,-63.12 205.25,-63.12 205.25,-83.88"/>
<text xml:space="preserve" text-anchor="middle" x="169.12" y="-70.38" font-family="Helvetica,sans-Serif" font-size="10.00">string_view</text>
</a>
</g>
</g>
<!-- Node1&#45;&gt;Node4 -->
<g id="edge3_Node000001_Node000004" class="edge">
<title>Node1&#45;&gt;Node4</title>
<g id="a_edge3_Node000001_Node000004"><a xlink:title=" ">
<path fill="none" stroke="#63b8ff" d="M50.71,-239.36C25.99,-227.87 -6.88,-207.28 6.12,-183 31.87,-134.93 89.36,-104.5 128.69,-88.48"/>
<polygon fill="#63b8ff" stroke="#63b8ff" points="129.82,-91.79 137.86,-84.89 127.27,-85.28 129.82,-91.79"/>
</a>
</g>
</g>
<!-- Node5 -->
<g id="Node000005" class="node">
<title>Node5</title>
<g id="a_Node000005"><a xlink:href="_move__tracker_8hpp.html" target="_top" xlink:title="Track ergodic moves.">
<polygon fill="white" stroke="#666666" points="1203.25,-203.75 1101,-203.75 1101,-183 1203.25,-183 1203.25,-203.75"/>
<text xml:space="preserve" text-anchor="middle" x="1152.12" y="-190.25" font-family="Helvetica,sans-Serif" font-size="10.00">Move_tracker.hpp</text>
</a>
</g>
</g>
<!-- Node1&#45;&gt;Node5 -->
<g id="edge4_Node000001_Node000005" class="edge">
<title>Node1&#45;&gt;Node5</title>
<g id="a_edge4_Node000001_Node000005"><a xlink:title=" ">
<path fill="none" stroke="#63b8ff" d="M150.43,-245.3C352.31,-235.03 902.88,-207.05 1089.39,-197.56"/>
<polygon fill="#63b8ff" stroke="#63b8ff" points="1089.29,-201.07 1099.1,-197.07 1088.94,-194.08 1089.29,-201.07"/>
</a>
</g>
</g>
<!-- Node6 -->
<g id="Node000006" class="node">
<title>Node6</title>
<g id="a_Node000006"><a xlink:title=" ">
<polygon fill="#e0e0e0" stroke="#999999" points="2642.88,-83.88 2601.38,-83.88 2601.38,-63.12 2642.88,-63.12 2642.88,-83.88"/>
<text xml:space="preserve" text-anchor="middle" x="2622.12" y="-70.38" font-family="Helvetica,sans-Serif" font-size="10.00">array</text>
</a>
</g>
</g>
<!-- Node5&#45;&gt;Node6 -->
<g id="edge5_Node000005_Node000006" class="edge">
<title>Node5&#45;&gt;Node6</title>
<g id="a_edge5_Node000005_Node000006"><a xlink:title=" ">
<path fill="none" stroke="#63b8ff" d="M1203.58,-191.55C1428.15,-187.5 2323.04,-166.79 2592.12,-90.25 2593.49,-89.86 2594.87,-89.4 2596.24,-88.9"/>
<polygon fill="#63b8ff" stroke="#63b8ff" points="2597.4,-92.22 2605.07,-84.9 2594.51,-85.84 2597.4,-92.22"/>
</a>
</g>
</g>
<!-- Node7 -->
<g id="Node000007" class="node">
<title>Node7</title>
<g id="a_Node000007"><a xlink:title=" ">
<polygon fill="#e0e0e0" stroke="#999999" points="2751.12,-147 2699.12,-147 2699.12,-126.25 2751.12,-126.25 2751.12,-147"/>
<text xml:space="preserve" text-anchor="middle" x="2725.12" y="-133.5" font-family="Helvetica,sans-Serif" font-size="10.00">cstddef</text>
</a>
</g>
</g>
<!-- Node5&#45;&gt;Node7 -->
<g id="edge6_Node000005_Node000007" class="edge">
<title>Node5&#45;&gt;Node7</title>
<g id="a_edge6_Node000005_Node000007"><a xlink:title=" ">
<path fill="none" stroke="#63b8ff" d="M1203.75,-192.24C1436.43,-191.4 2389.26,-185.65 2685.12,-147 2685.97,-146.89 2686.83,-146.77 2687.69,-146.64"/>
<polygon fill="#63b8ff" stroke="#63b8ff" points="2688.33,-150.08 2697.53,-144.81 2687.05,-143.2 2688.33,-150.08"/>
</a>
</g>
</g>
<!-- Node8 -->
<g id="Node000008" class="node">
<title>Node8</title>
<g id="a_Node000008"><a xlink:title=" ">
<polygon fill="#e0e0e0" stroke="#999999" points="1050.62,-147 1001.62,-147 1001.62,-126.25 1050.62,-126.25 1050.62,-147"/>
<text xml:space="preserve" text-anchor="middle" x="1026.12" y="-133.5" font-family="Helvetica,sans-Serif" font-size="10.00">gsl/util</text>
</a>
</g>
</g>
<!-- Node5&#45;&gt;Node8 -->
<g id="edge7_Node000005_Node000008" class="edge">
<title>Node5&#45;&gt;Node8</title>
<g id="a_edge7_Node000005_Node000008"><a xlink:title=" ">
<path fill="none" stroke="#63b8ff" d="M1129.6,-182.59C1109.89,-174.02 1081.02,-161.48 1058.77,-151.81"/>
<polygon fill="#63b8ff" stroke="#63b8ff" points="1060.41,-148.71 1049.84,-147.93 1057.62,-155.13 1060.41,-148.71"/>
</a>
</g>
</g>
<!-- Node9 -->
<g id="Node000009" class="node">
<title>Node9</title>
<g id="a_Node000009"><a xlink:title=" ">
<polygon fill="#e0e0e0" stroke="#999999" points="1124,-147 1068.25,-147 1068.25,-126.25 1124,-126.25 1124,-147"/>
<text xml:space="preserve" text-anchor="middle" x="1096.12" y="-133.5" font-family="Helvetica,sans-Serif" font-size="10.00">numeric</text>
</a>
</g>
</g>
<!-- Node5&#45;&gt;Node9 -->
<g id="edge8_Node000005_Node000009" class="edge">
<title>Node5&#45;&gt;Node9</title>
<g id="a_edge8_Node000005_Node000009"><a xlink:title=" ">
<path fill="none" stroke="#63b8ff" d="M1142.11,-182.59C1134.39,-175.03 1123.5,-164.39 1114.25,-155.35"/>
<polygon fill="#63b8ff" stroke="#63b8ff" points="1116.73,-152.87 1107.13,-148.39 1111.84,-157.88 1116.73,-152.87"/>
</a>
</g>
</g>
<!-- Node10 -->
<g id="Node000010" class="node">
<title>Node10</title>
<g id="a_Node000010"><a xlink:title=" ">
<polygon fill="#e0e0e0" stroke="#999999" points="2331.88,-20.75 2278.38,-20.75 2278.38,0 2331.88,0 2331.88,-20.75"/>
<text xml:space="preserve" text-anchor="middle" x="2305.12" y="-7.25" font-family="Helvetica,sans-Serif" font-size="10.00">random</text>
</a>
</g>
</g>
<!-- Node5&#45;&gt;Node10 -->
<g id="edge9_Node000005_Node000010" class="edge">
<title>Node5&#45;&gt;Node10</title>
<g id="a_edge9_Node000005_Node000010"><a xlink:title=" ">
<path fill="none" stroke="#63b8ff" d="M1203.73,-192.74C1367.36,-193.4 1889.19,-191.6 2318.12,-147 2467.89,-131.43 2554.98,-205.29 2652.12,-90.25 2661.73,-78.87 2661.95,-67.94 2652.12,-56.75 2631.98,-33.8 2429.47,-18.91 2343.45,-13.58"/>
<polygon fill="#63b8ff" stroke="#63b8ff" points="2343.82,-10.09 2333.63,-12.98 2343.39,-17.08 2343.82,-10.09"/>
</a>
</g>
</g>
<!-- Node11 -->
<g id="Node000011" class="node">
<title>Node11</title>
<g id="a_Node000011"><a xlink:title=" ">
<polygon fill="#e0e0e0" stroke="#999999" points="357.75,-83.88 318.5,-83.88 318.5,-63.12 357.75,-63.12 357.75,-83.88"/>
<text xml:space="preserve" text-anchor="middle" x="338.12" y="-70.38" font-family="Helvetica,sans-Serif" font-size="10.00">span</text>
</a>
</g>
</g>
<!-- Node5&#45;&gt;Node11 -->
<g id="edge10_Node000005_Node000011" class="edge">
<title>Node5&#45;&gt;Node11</title>
<g id="a_edge10_Node000005_Node000011"><a xlink:title=" ">
<path fill="none" stroke="#63b8ff" d="M1152.55,-182.86C1152.64,-168.08 1150.36,-139.88 1133.12,-126.25 1066.73,-73.74 454.34,-110.42 372.12,-90.25 370.26,-89.79 368.37,-89.23 366.49,-88.59"/>
<polygon fill="#63b8ff" stroke="#63b8ff" points="367.99,-85.43 357.41,-84.92 365.36,-91.91 367.99,-85.43"/>
</a>
</g>
</g>
<!-- Node12 -->
<g id="Node000012" class="node">
<title>Node12</title>
<g id="a_Node000012"><a xlink:href="_settings_8hpp.html" target="_top" xlink:title="Global integer and precision settings.">
<polygon fill="white" stroke="#666666" points="300.5,-83.88 223.75,-83.88 223.75,-63.12 300.5,-63.12 300.5,-83.88"/>
<text xml:space="preserve" text-anchor="middle" x="262.12" y="-70.38" font-family="Helvetica,sans-Serif" font-size="10.00">Settings.hpp</text>
</a>
</g>
</g>
<!-- Node5&#45;&gt;Node12 -->
<g id="edge11_Node000005_Node000012" class="edge">
<title>Node5&#45;&gt;Node12</title>
<g id="a_edge11_Node000005_Node000012"><a xlink:title=" ">
<path fill="none" stroke="#63b8ff" d="M1100.67,-189.78C968.05,-182.31 604.29,-156.86 309.12,-90.25 305.79,-89.5 302.36,-88.6 298.94,-87.62"/>
<polygon fill="#63b8ff" stroke="#63b8ff" points="300.24,-84.36 289.65,-84.73 298.16,-91.04 300.24,-84.36"/>
</a>
</g>
</g>
<!-- Node14 -->
<g id="Node000014" class="node">
<title>Node14</title>
<g id="a_Node000014"><a xlink:href="_utilities_8hpp.html" target="_top" xlink:title="Utility functions.">
<polygon fill="white" stroke="#666666" points="1255.75,-147 1180.5,-147 1180.5,-126.25 1255.75,-126.25 1255.75,-147"/>
<text xml:space="preserve" text-anchor="middle" x="1218.12" y="-133.5" font-family="Helvetica,sans-Serif" font-size="10.00">Utilities.hpp</text>
</a>
</g>
</g>
<!-- Node5&#45;&gt;Node14 -->
<g id="edge14_Node000005_Node000014" class="edge">
<title>Node5&#45;&gt;Node14</title>
<g id="a_edge14_Node000005_Node000014"><a xlink:title=" ">
<path fill="none" stroke="#63b8ff" d="M1163.92,-182.59C1173.31,-174.8 1186.66,-163.72 1197.77,-154.51"/>
<polygon fill="#63b8ff" stroke="#63b8ff" points="1199.8,-157.37 1205.26,-148.29 1195.33,-151.99 1199.8,-157.37"/>
</a>
</g>
</g>
<!-- Node12&#45;&gt;Node2 -->
<g id="edge13_Node000012_Node000002" class="edge">
<title>Node12&#45;&gt;Node2</title>
<g id="a_edge13_Node000012_Node000002"><a xlink:title=" ">
<path fill="none" stroke="#63b8ff" d="M281.08,-62.68C300.01,-52.88 329.34,-37.68 351.17,-26.37"/>
<polygon fill="#63b8ff" stroke="#63b8ff" points="352.6,-29.58 359.87,-21.87 349.38,-23.36 352.6,-29.58"/>
</a>
</g>
</g>
<!-- Node13 -->
<g id="Node000013" class="node">
<title>Node13</title>
<g id="a_Node000013"><a xlink:title=" ">
<polygon fill="#e0e0e0" stroke="#999999" points="331.62,-20.75 192.62,-20.75 192.62,0 331.62,0 331.62,-20.75"/>
<text xml:space="preserve" text-anchor="middle" x="262.12" y="-7.25" font-family="Helvetica,sans-Serif" font-size="10.00">CGAL/GMP/Gmpzf_type.h</text>
</a>
</g>
</g>
<!-- Node12&#45;&gt;Node13 -->
<g id="edge12_Node000012_Node000013" class="edge">
<title>Node12&#45;&gt;Node13</title>
<g id="a_edge12_Node000012_Node000013"><a xlink:title=" ">
<path fill="none" stroke="#63b8ff" d="M262.12,-62.68C262.12,-54.52 262.12,-42.63 262.12,-32.35"/>
<polygon fill="#63b8ff" stroke="#63b8ff" points="265.63,-32.48 262.13,-22.48 258.63,-32.48 265.63,-32.48"/>
</a>
</g>
</g>
<!-- Node14&#45;&gt;Node2 -->
<g id="edge21_Node000014_Node000002" class="edge">
<title>Node14&#45;&gt;Node2</title>
<g id="a_edge21_Node000014_Node000002"><a xlink:title=" ">
<path fill="none" stroke="#63b8ff" d="M1180.3,-129.46C1171.71,-128.24 1162.62,-127.07 1154.12,-126.25 1071.2,-118.2 471.15,-141.07 405.12,-90.25 387.55,-76.72 382.08,-50.83 380.51,-32.4"/>
<polygon fill="#63b8ff" stroke="#63b8ff" points="384.01,-32.4 380.02,-22.59 377.02,-32.75 384.01,-32.4"/>
</a>
</g>
</g>
<!-- Node14&#45;&gt;Node4 -->
<g id="edge36_Node000014_Node000004" class="edge">
<title>Node14&#45;&gt;Node4</title>
<g id="a_edge36_Node000014_Node000004"><a xlink:title=" ">
<path fill="none" stroke="#63b8ff" d="M1180.1,-130.85C1165.44,-129.16 1148.52,-127.4 1133.12,-126.25 929.53,-111.05 415.82,-127.71 215.12,-90.25 211.56,-89.58 207.89,-88.7 204.26,-87.68"/>
<polygon fill="#63b8ff" stroke="#63b8ff" points="205.63,-84.45 195.04,-84.8 203.54,-91.13 205.63,-84.45"/>
</a>
</g>
</g>
<!-- Node14&#45;&gt;Node6 -->
<g id="edge17_Node000014_Node000006" class="edge">
<title>Node14&#45;&gt;Node6</title>
<g id="a_edge17_Node000014_Node000006"><a xlink:title=" ">
<path fill="none" stroke="#63b8ff" d="M1256,-135.38C1463.72,-133.93 2459.94,-125.16 2592.12,-90.25 2593.53,-89.88 2594.95,-89.43 2596.36,-88.93"/>
<polygon fill="#63b8ff" stroke="#63b8ff" points="2597.72,-92.15 2605.41,-84.86 2594.85,-85.77 2597.72,-92.15"/>
</a>
</g>
</g>
<!-- Node14&#45;&gt;Node10 -->
<g id="edge31_Node000014_Node000010" class="edge">
<title>Node14&#45;&gt;Node10</title>
<g id="a_edge31_Node000014_Node000010"><a xlink:title=" ">
<path fill="none" stroke="#63b8ff" d="M1256.09,-135.28C1441.62,-133.45 2245.57,-123.61 2286.12,-90.25 2302.92,-76.44 2306.37,-50.6 2306.46,-32.26"/>
<polygon fill="#63b8ff" stroke="#63b8ff" points="2309.96,-32.41 2306.16,-22.52 2302.97,-32.63 2309.96,-32.41"/>
</a>
</g>
</g>
<!-- Node14&#45;&gt;Node11 -->
<g id="edge32_Node000014_Node000011" class="edge">
<title>Node14&#45;&gt;Node11</title>
<g id="a_edge32_Node000014_Node000011"><a xlink:title=" ">
<path fill="none" stroke="#63b8ff" d="M1180.16,-128.18C1175.44,-127.43 1170.68,-126.76 1166.12,-126.25 990.6,-106.54 543.71,-132.16 372.12,-90.25 370.26,-89.79 368.37,-89.23 366.48,-88.6"/>
<polygon fill="#63b8ff" stroke="#63b8ff" points="367.99,-85.43 357.4,-84.92 365.36,-91.92 367.99,-85.43"/>
</a>
</g>
</g>
<!-- Node14&#45;&gt;Node12 -->
<g id="edge51_Node000014_Node000012" class="edge">
<title>Node14&#45;&gt;Node12</title>
<g id="a_edge51_Node000014_Node000012"><a xlink:title=" ">
<path fill="none" stroke="#63b8ff" d="M1180.09,-130.89C1165.43,-129.2 1148.52,-127.43 1133.12,-126.25 767.63,-98.14 669.54,-157.14 309.12,-90.25 305.49,-89.57 301.74,-88.68 298.04,-87.66"/>
<polygon fill="#63b8ff" stroke="#63b8ff" points="299.18,-84.35 288.6,-84.77 297.13,-91.05 299.18,-84.35"/>
</a>
</g>
</g>
<!-- Node15 -->
<g id="Node000015" class="node">
<title>Node15</title>
<g id="a_Node000015"><a xlink:title=" ">
<polygon fill="#e0e0e0" stroke="#999999" points="2423.25,-83.88 2333,-83.88 2333,-63.12 2423.25,-63.12 2423.25,-83.88"/>
<text xml:space="preserve" text-anchor="middle" x="2378.12" y="-70.38" font-family="Helvetica,sans-Serif" font-size="10.00">CGAL/version.h</text>
</a>
</g>
</g>
<!-- Node14&#45;&gt;Node15 -->
<g id="edge15_Node000014_Node000015" class="edge">
<title>Node14&#45;&gt;Node15</title>
<g id="a_edge15_Node000014_Node000015"><a xlink:title=" ">
<path fill="none" stroke="#63b8ff" d="M1256.07,-135.18C1424.74,-133.03 2107.54,-122.45 2319.12,-90.25 2324.48,-89.44 2330.04,-88.32 2335.52,-87.05"/>
<polygon fill="#63b8ff" stroke="#63b8ff" points="2336.23,-90.48 2345.08,-84.66 2334.53,-83.69 2336.23,-90.48"/>
</a>
</g>
</g>
<!-- Node16 -->
<g id="Node000016" class="node">
<title>Node16</title>
<g id="a_Node000016"><a xlink:title=" ">
<polygon fill="#e0e0e0" stroke="#999999" points="2504.75,-83.88 2441.5,-83.88 2441.5,-63.12 2504.75,-63.12 2504.75,-83.88"/>
<text xml:space="preserve" text-anchor="middle" x="2473.12" y="-70.38" font-family="Helvetica,sans-Serif" font-size="10.00">algorithm</text>
</a>
</g>
</g>
<!-- Node14&#45;&gt;Node16 -->
<g id="edge16_Node000014_Node000016" class="edge">
<title>Node14&#45;&gt;Node16</title>
<g id="a_edge16_Node000014_Node000016"><a xlink:title=" ">
<path fill="none" stroke="#63b8ff" d="M1256.18,-134.95C1449.12,-131.41 2314.74,-114.3 2432.12,-90.25 2434.94,-89.67 2437.81,-88.93 2440.66,-88.07"/>
<polygon fill="#63b8ff" stroke="#63b8ff" points="2441.65,-91.43 2449.97,-84.86 2439.37,-84.81 2441.65,-91.43"/>
</a>
</g>
</g>
<!-- Node17 -->
<g id="Node000017" class="node">
<title>Node17</title>
<g id="a_Node000017"><a xlink:title=" ">
<polygon fill="#e0e0e0" stroke="#999999" points="2583.25,-83.88 2523,-83.88 2523,-63.12 2583.25,-63.12 2583.25,-83.88"/>
<text xml:space="preserve" text-anchor="middle" x="2553.12" y="-70.38" font-family="Helvetica,sans-Serif" font-size="10.00">charconv</text>
</a>
</g>
</g>
<!-- Node14&#45;&gt;Node17 -->
<g id="edge18_Node000014_Node000017" class="edge">
<title>Node14&#45;&gt;Node17</title>
<g id="a_edge18_Node000014_Node000017"><a xlink:title=" ">
<path fill="none" stroke="#63b8ff" d="M1256.08,-135.08C1456.62,-132.11 2388.46,-116.96 2514.12,-90.25 2516.78,-89.69 2519.48,-88.96 2522.16,-88.12"/>
<polygon fill="#63b8ff" stroke="#63b8ff" points="2523.27,-91.44 2531.48,-84.74 2520.89,-84.86 2523.27,-91.44"/>
</a>
</g>
</g>
<!-- Node18 -->
<g id="Node000018" class="node">
<title>Node18</title>
<g id="a_Node000018"><a xlink:title=" ">
<polygon fill="#e0e0e0" stroke="#999999" points="460.5,-83.88 413.75,-83.88 413.75,-63.12 460.5,-63.12 460.5,-83.88"/>
<text xml:space="preserve" text-anchor="middle" x="437.12" y="-70.38" font-family="Helvetica,sans-Serif" font-size="10.00">cmath</text>
</a>
</g>
</g>
<!-- Node14&#45;&gt;Node18 -->
<g id="edge19_Node000014_Node000018" class="edge">
<title>Node14&#45;&gt;Node18</title>
<g id="a_edge19_Node000014_Node000018"><a xlink:title=" ">
<path fill="none" stroke="#63b8ff" d="M1180.15,-128.21C1175.44,-127.46 1170.68,-126.78 1166.12,-126.25 860.19,-90.86 774.18,-159.62 474.12,-90.25 471.84,-89.72 469.52,-89.06 467.21,-88.31"/>
<polygon fill="#63b8ff" stroke="#63b8ff" points="468.67,-85.12 458.08,-84.86 466.19,-91.67 468.67,-85.12"/>
</a>
</g>
</g>
<!-- Node19 -->
<g id="Node000019" class="node">
<title>Node19</title>
<g id="a_Node000019"><a xlink:title=" ">
<polygon fill="#e0e0e0" stroke="#999999" points="958.88,-20.75 899.38,-20.75 899.38,0 958.88,0 958.88,-20.75"/>
<text xml:space="preserve" text-anchor="middle" x="929.12" y="-7.25" font-family="Helvetica,sans-Serif" font-size="10.00">concepts</text>
</a>
</g>
</g>
<!-- Node14&#45;&gt;Node19 -->
<g id="edge20_Node000014_Node000019" class="edge">
<title>Node14&#45;&gt;Node19</title>
<g id="a_edge20_Node000014_Node000019"><a xlink:title=" ">
<path fill="none" stroke="#63b8ff" d="M1180.15,-128.22C1175.44,-127.47 1170.68,-126.78 1166.12,-126.25 1093.4,-117.74 558.47,-143.42 508.12,-90.25 497.89,-79.44 498.18,-67.83 508.12,-56.75 533.23,-28.8 786.65,-16.56 887.78,-12.76"/>
<polygon fill="#63b8ff" stroke="#63b8ff" points="887.67,-16.26 897.54,-12.4 887.42,-9.27 887.67,-16.26"/>
</a>
</g>
</g>
<!-- Node20 -->
<g id="Node000020" class="node">
<title>Node20</title>
<g id="a_Node000020"><a xlink:title=" ">
<polygon fill="#e0e0e0" stroke="#999999" points="583.62,-83.88 516.62,-83.88 516.62,-63.12 583.62,-63.12 583.62,-83.88"/>
<text xml:space="preserve" text-anchor="middle" x="550.12" y="-70.38" font-family="Helvetica,sans-Serif" font-size="10.00">filesystem</text>
</a>
</g>
</g>
<!-- Node14&#45;&gt;Node20 -->
<g id="edge22_Node000014_Node000020" class="edge">
<title>Node14&#45;&gt;Node20</title>
<g id="a_edge22_Node000014_Node000020"><a xlink:title=" ">
<path fill="none" stroke="#63b8ff" d="M1180.15,-128.25C1175.44,-127.5 1170.68,-126.8 1166.12,-126.25 912.81,-95.56 842.85,-142.67 593.12,-90.25 589.99,-89.59 586.77,-88.75 583.58,-87.8"/>
<polygon fill="#63b8ff" stroke="#63b8ff" points="585,-84.58 574.41,-84.73 582.79,-91.22 585,-84.58"/>
</a>
</g>
</g>
<!-- Node21 -->
<g id="Node000021" class="node">
<title>Node21</title>
<g id="a_Node000021"><a xlink:title=" ">
<polygon fill="#e0e0e0" stroke="#999999" points="656.25,-83.88 602,-83.88 602,-63.12 656.25,-63.12 656.25,-83.88"/>
<text xml:space="preserve" text-anchor="middle" x="629.12" y="-70.38" font-family="Helvetica,sans-Serif" font-size="10.00">fstream</text>
</a>
</g>
</g>
<!-- Node14&#45;&gt;Node21 -->
<g id="edge23_Node000014_Node000021" class="edge">
<title>Node14&#45;&gt;Node21</title>
<g id="a_edge23_Node000014_Node000021"><a xlink:title=" ">
<path fill="none" stroke="#63b8ff" d="M1180.14,-128.29C1175.43,-127.53 1170.68,-126.82 1166.12,-126.25 944.63,-98.41 881.86,-143.76 665.12,-90.25 662.99,-89.72 660.82,-89.08 658.66,-88.35"/>
<polygon fill="#63b8ff" stroke="#63b8ff" points="660.13,-85.17 649.54,-84.8 657.59,-91.69 660.13,-85.17"/>
</a>
</g>
</g>
<!-- Node22 -->
<g id="Node000022" class="node">
<title>Node22</title>
<g id="a_Node000022"><a xlink:title=" ">
<polygon fill="#e0e0e0" stroke="#999999" points="721.88,-83.88 674.38,-83.88 674.38,-63.12 721.88,-63.12 721.88,-83.88"/>
<text xml:space="preserve" text-anchor="middle" x="698.12" y="-70.38" font-family="Helvetica,sans-Serif" font-size="10.00">gsl/gsl</text>
</a>
</g>
</g>
<!-- Node14&#45;&gt;Node22 -->
<g id="edge24_Node000014_Node000022" class="edge">
<title>Node14&#45;&gt;Node22</title>
<g id="a_edge24_Node000014_Node000022"><a xlink:title=" ">
<path fill="none" stroke="#63b8ff" d="M1180.14,-128.34C1175.43,-127.57 1170.67,-126.85 1166.12,-126.25 973.78,-101.01 918.4,-140.86 731.12,-90.25 729.31,-89.76 727.48,-89.17 725.65,-88.52"/>
<polygon fill="#63b8ff" stroke="#63b8ff" points="727.45,-85.48 716.88,-84.82 724.73,-91.93 727.45,-85.48"/>
</a>
</g>
</g>
<!-- Node23 -->
<g id="Node000023" class="node">
<title>Node23</title>
<g id="a_Node000023"><a xlink:title=" ">
<polygon fill="#e0e0e0" stroke="#999999" points="796,-83.88 740.25,-83.88 740.25,-63.12 796,-63.12 796,-83.88"/>
<text xml:space="preserve" text-anchor="middle" x="768.12" y="-70.38" font-family="Helvetica,sans-Serif" font-size="10.00">iomanip</text>
</a>
</g>
</g>
<!-- Node14&#45;&gt;Node23 -->
<g id="edge25_Node000014_Node000023" class="edge">
<title>Node14&#45;&gt;Node23</title>
<g id="a_edge25_Node000014_Node000023"><a xlink:title=" ">
<path fill="none" stroke="#63b8ff" d="M1180.12,-128.42C1175.42,-127.63 1170.67,-126.89 1166.12,-126.25 1008.64,-104.13 964.97,-126.47 810.12,-90.25 807.34,-89.6 804.49,-88.81 801.64,-87.94"/>
<polygon fill="#63b8ff" stroke="#63b8ff" points="802.93,-84.67 792.33,-84.75 800.66,-91.3 802.93,-84.67"/>
</a>
</g>
</g>
<!-- Node24 -->
<g id="Node000024" class="node">
<title>Node24</title>
<g id="a_Node000024"><a xlink:title=" ">
<polygon fill="#e0e0e0" stroke="#999999" points="1463,-20.75 1419.25,-20.75 1419.25,0 1463,0 1463,-20.75"/>
<text xml:space="preserve" text-anchor="middle" x="1441.12" y="-7.25" font-family="Helvetica,sans-Serif" font-size="10.00">limits</text>
</a>
</g>
</g>
<!-- Node14&#45;&gt;Node24 -->
<g id="edge26_Node000014_Node000024" class="edge">
<title>Node14&#45;&gt;Node24</title>
<g id="a_edge26_Node000014_Node000024"><a xlink:title=" ">
<path fill="none" stroke="#63b8ff" d="M1180.12,-128.47C1175.41,-127.67 1170.66,-126.91 1166.12,-126.25 1020.82,-105.08 743.3,-164.44 843.12,-56.75 881.66,-15.18 1287.37,-11.5 1407.68,-11.33"/>
<polygon fill="#63b8ff" stroke="#63b8ff" points="1407.53,-14.83 1417.53,-11.32 1407.52,-7.83 1407.53,-14.83"/>
</a>
</g>
</g>
<!-- Node25 -->
<g id="Node000025" class="node">
<title>Node25</title>
<g id="a_Node000025"><a xlink:title=" ">
<polygon fill="#e0e0e0" stroke="#999999" points="897.75,-83.88 852.5,-83.88 852.5,-63.12 897.75,-63.12 897.75,-83.88"/>
<text xml:space="preserve" text-anchor="middle" x="875.12" y="-70.38" font-family="Helvetica,sans-Serif" font-size="10.00">locale</text>
</a>
</g>
</g>
<!-- Node14&#45;&gt;Node25 -->
<g id="edge27_Node000014_Node000025" class="edge">
<title>Node14&#45;&gt;Node25</title>
<g id="a_edge27_Node000014_Node000025"><a xlink:title=" ">
<path fill="none" stroke="#63b8ff" d="M1180.1,-128.59C1175.4,-127.77 1170.65,-126.97 1166.12,-126.25 1051.36,-107.94 1018.23,-124.34 907.12,-90.25 905.76,-89.83 904.38,-89.36 903,-88.85"/>
<polygon fill="#63b8ff" stroke="#63b8ff" points="904.61,-85.73 894.04,-84.97 901.83,-92.16 904.61,-85.73"/>
</a>
</g>
</g>
<!-- Node26 -->
<g id="Node000026" class="node">
<title>Node26</title>
<g id="a_Node000026"><a xlink:title=" ">
<polygon fill="#e0e0e0" stroke="#999999" points="954,-83.88 916.25,-83.88 916.25,-63.12 954,-63.12 954,-83.88"/>
<text xml:space="preserve" text-anchor="middle" x="935.12" y="-70.38" font-family="Helvetica,sans-Serif" font-size="10.00">map</text>
</a>
</g>
</g>
<!-- Node14&#45;&gt;Node26 -->
<g id="edge28_Node000014_Node000026" class="edge">
<title>Node14&#45;&gt;Node26</title>
<g id="a_edge28_Node000014_Node000026"><a xlink:title=" ">
<path fill="none" stroke="#63b8ff" d="M1180.07,-128.75C1175.38,-127.91 1170.64,-127.06 1166.12,-126.25 1075.93,-110.12 1049.39,-121.15 963.12,-90.25 962.32,-89.96 961.51,-89.65 960.69,-89.32"/>
<polygon fill="#63b8ff" stroke="#63b8ff" points="962.26,-86.19 951.74,-84.96 959.2,-92.49 962.26,-86.19"/>
</a>
</g>
</g>
<!-- Node27 -->
<g id="Node000027" class="node">
<title>Node27</title>
<g id="a_Node000027"><a xlink:title=" ">
<polygon fill="#e0e0e0" stroke="#999999" points="1019.88,-83.88 972.38,-83.88 972.38,-63.12 1019.88,-63.12 1019.88,-83.88"/>
<text xml:space="preserve" text-anchor="middle" x="996.12" y="-70.38" font-family="Helvetica,sans-Serif" font-size="10.00">mutex</text>
</a>
</g>
</g>
<!-- Node14&#45;&gt;Node27 -->
<g id="edge29_Node000014_Node000027" class="edge">
<title>Node14&#45;&gt;Node27</title>
<g id="a_edge29_Node000014_Node000027"><a xlink:title=" ">
<path fill="none" stroke="#63b8ff" d="M1180.16,-128.94C1141.5,-121.58 1080.18,-108.34 1029.12,-90.25 1027.96,-89.84 1026.78,-89.39 1025.59,-88.93"/>
<polygon fill="#63b8ff" stroke="#63b8ff" points="1026.99,-85.72 1016.42,-84.96 1024.21,-92.14 1026.99,-85.72"/>
</a>
</g>
</g>
<!-- Node28 -->
<g id="Node000028" class="node">
<title>Node28</title>
<g id="a_Node000028"><a xlink:title=" ">
<polygon fill="#e0e0e0" stroke="#999999" points="1094,-83.88 1038.25,-83.88 1038.25,-63.12 1094,-63.12 1094,-83.88"/>
<text xml:space="preserve" text-anchor="middle" x="1066.12" y="-70.38" font-family="Helvetica,sans-Serif" font-size="10.00">optional</text>
</a>
</g>
</g>
<!-- Node14&#45;&gt;Node28 -->
<g id="edge30_Node000014_Node000028" class="edge">
<title>Node14&#45;&gt;Node28</title>
<g id="a_edge30_Node000014_Node000028"><a xlink:title=" ">
<path fill="none" stroke="#63b8ff" d="M1192.92,-125.9C1169.57,-116.84 1133.91,-102.87 1103.12,-90.25 1101.82,-89.71 1100.48,-89.16 1099.14,-88.61"/>
<polygon fill="#63b8ff" stroke="#63b8ff" points="1100.75,-85.49 1090.18,-84.84 1098.04,-91.94 1100.75,-85.49"/>
</a>
</g>
</g>
<!-- Node29 -->
<g id="Node000029" class="node">
<title>Node29</title>
<g id="a_Node000029"><a xlink:title=" ">
<polygon fill="#e0e0e0" stroke="#999999" points="1168,-83.88 1112.25,-83.88 1112.25,-63.12 1168,-63.12 1168,-83.88"/>
<text xml:space="preserve" text-anchor="middle" x="1140.12" y="-70.38" font-family="Helvetica,sans-Serif" font-size="10.00">sstream</text>
</a>
</g>
</g>
<!-- Node14&#45;&gt;Node29 -->
<g id="edge33_Node000014_Node000029" class="edge">
<title>Node14&#45;&gt;Node29</title>
<g id="a_edge33_Node000014_Node000029"><a xlink:title=" ">
<path fill="none" stroke="#63b8ff" d="M1205.59,-125.8C1193.77,-116.54 1175.79,-102.45 1161.67,-91.38"/>
<polygon fill="#63b8ff" stroke="#63b8ff" points="1163.85,-88.64 1153.82,-85.23 1159.53,-94.15 1163.85,-88.64"/>
</a>
</g>
</g>
<!-- Node30 -->
<g id="Node000030" class="node">
<title>Node30</title>
<g id="a_Node000030"><a xlink:title=" ">
<polygon fill="#e0e0e0" stroke="#999999" points="1250.12,-83.88 1186.12,-83.88 1186.12,-63.12 1250.12,-63.12 1250.12,-83.88"/>
<text xml:space="preserve" text-anchor="middle" x="1218.12" y="-70.38" font-family="Helvetica,sans-Serif" font-size="10.00">stdexcept</text>
</a>
</g>
</g>
<!-- Node14&#45;&gt;Node30 -->
<g id="edge34_Node000014_Node000030" class="edge">
<title>Node14&#45;&gt;Node30</title>
<g id="a_edge34_Node000014_Node000030"><a xlink:title=" ">
<path fill="none" stroke="#63b8ff" d="M1218.12,-125.8C1218.12,-117.65 1218.12,-105.76 1218.12,-95.48"/>
<polygon fill="#63b8ff" stroke="#63b8ff" points="1221.63,-95.61 1218.13,-85.61 1214.63,-95.61 1221.63,-95.61"/>
</a>
</g>
</g>
<!-- Node31 -->
<g id="Node000031" class="node">
<title>Node31</title>
<g id="a_Node000031"><a xlink:title=" ">
<polygon fill="#e0e0e0" stroke="#999999" points="1312,-83.88 1268.25,-83.88 1268.25,-63.12 1312,-63.12 1312,-83.88"/>
<text xml:space="preserve" text-anchor="middle" x="1290.12" y="-70.38" font-family="Helvetica,sans-Serif" font-size="10.00">string</text>
</a>
</g>
</g>
<!-- Node14&#45;&gt;Node31 -->
<g id="edge35_Node000014_Node000031" class="edge">
<title>Node14&#45;&gt;Node31</title>
<g id="a_edge35_Node000014_Node000031"><a xlink:title=" ">
<path fill="none" stroke="#63b8ff" d="M1229.69,-125.8C1240.57,-116.57 1257.08,-102.56 1270.09,-91.51"/>
<polygon fill="#63b8ff" stroke="#63b8ff" points="1272.31,-94.21 1277.67,-85.07 1267.78,-88.88 1272.31,-94.21"/>
</a>
</g>
</g>
<!-- Node32 -->
<g id="Node000032" class="node">
<title>Node32</title>
<g id="a_Node000032"><a xlink:title=" ">
<polygon fill="#e0e0e0" stroke="#999999" points="1398.38,-83.88 1329.88,-83.88 1329.88,-63.12 1398.38,-63.12 1398.38,-83.88"/>
<text xml:space="preserve" text-anchor="middle" x="1364.12" y="-70.38" font-family="Helvetica,sans-Serif" font-size="10.00">type_traits</text>
</a>
</g>
</g>
<!-- Node14&#45;&gt;Node32 -->
<g id="edge37_Node000014_Node000032" class="edge">
<title>Node14&#45;&gt;Node32</title>
<g id="a_edge37_Node000014_Node000032"><a xlink:title=" ">
<path fill="none" stroke="#63b8ff" d="M1241.58,-125.8C1265.53,-115.78 1302.94,-100.12 1330.13,-88.73"/>
<polygon fill="#63b8ff" stroke="#63b8ff" points="1331.46,-91.97 1339.33,-84.88 1328.75,-85.51 1331.46,-91.97"/>
</a>
</g>
</g>
<!-- Node33 -->
<g id="Node000033" class="node">
<title>Node33</title>
<g id="a_Node000033"><a xlink:title=" ">
<polygon fill="#e0e0e0" stroke="#999999" points="1463.5,-83.88 1416.75,-83.88 1416.75,-63.12 1463.5,-63.12 1463.5,-83.88"/>
<text xml:space="preserve" text-anchor="middle" x="1440.12" y="-70.38" font-family="Helvetica,sans-Serif" font-size="10.00">vector</text>
</a>
</g>
</g>
<!-- Node14&#45;&gt;Node33 -->
<g id="edge38_Node000014_Node000033" class="edge">
<title>Node14&#45;&gt;Node33</title>
<g id="a_edge38_Node000014_Node000033"><a xlink:title=" ">
<path fill="none" stroke="#63b8ff" d="M1256.09,-128.94C1294.75,-121.58 1356.07,-108.34 1407.12,-90.25 1408.29,-89.84 1409.47,-89.39 1410.66,-88.93"/>
<polygon fill="#63b8ff" stroke="#63b8ff" points="1412.04,-92.14 1419.83,-84.96 1409.26,-85.72 1412.04,-92.14"/>
</a>
</g>
</g>
<!-- Node34 -->
<g id="Node000034" class="node">
<title>Node34</title>
<g id="a_Node000034"><a xlink:title=" ">
<polygon fill="#e0e0e0" stroke="#999999" points="1533.12,-83.88 1481.12,-83.88 1481.12,-63.12 1533.12,-63.12 1533.12,-83.88"/>
<text xml:space="preserve" text-anchor="middle" x="1507.12" y="-70.38" font-family="Helvetica,sans-Serif" font-size="10.00">version</text>
</a>
</g>
</g>
<!-- Node14&#45;&gt;Node34 -->
<g id="edge39_Node000014_Node000034" class="edge">
<title>Node14&#45;&gt;Node34</title>
<g id="a_edge39_Node000014_Node000034"><a xlink:title=" ">
<path fill="none" stroke="#63b8ff" d="M1255.83,-131.83C1306.04,-126.1 1397.23,-113.4 1472.12,-90.25 1473.72,-89.76 1475.33,-89.21 1476.95,-88.63"/>
<polygon fill="#63b8ff" stroke="#63b8ff" points="1478.11,-91.93 1486.06,-84.93 1475.48,-85.45 1478.11,-91.93"/>
</a>
</g>
</g>
<!-- Node35 -->
<g id="Node000035" class="node">
<title>Node35</title>
<g id="a_Node000035"><a xlink:title=" ">
<polygon fill="#e0e0e0" stroke="#999999" points="1622.88,-83.88 1551.38,-83.88 1551.38,-63.12 1622.88,-63.12 1622.88,-83.88"/>
<text xml:space="preserve" text-anchor="middle" x="1587.12" y="-70.38" font-family="Helvetica,sans-Serif" font-size="10.00">date/date.h</text>
</a>
</g>
</g>
<!-- Node14&#45;&gt;Node35 -->
<g id="edge40_Node000014_Node000035" class="edge">
<title>Node14&#45;&gt;Node35</title>
<g id="a_edge40_Node000014_Node000035"><a xlink:title=" ">
<path fill="none" stroke="#63b8ff" d="M1256,-132.76C1316.95,-127.61 1440.28,-114.95 1542.12,-90.25 1545.11,-89.53 1548.18,-88.68 1551.25,-87.76"/>
<polygon fill="#63b8ff" stroke="#63b8ff" points="1552.29,-91.1 1560.72,-84.69 1550.13,-84.45 1552.29,-91.1"/>
</a>
</g>
</g>
<!-- Node36 -->
<g id="Node000036" class="node">
<title>Node36</title>
<g id="a_Node000036"><a xlink:title=" ">
<polygon fill="#e0e0e0" stroke="#999999" points="1727,-83.88 1641.25,-83.88 1641.25,-63.12 1727,-63.12 1727,-83.88"/>
<text xml:space="preserve" text-anchor="middle" x="1684.12" y="-70.38" font-family="Helvetica,sans-Serif" font-size="10.00">fmt/ostream.h</text>
</a>
</g>
</g>
<!-- Node14&#45;&gt;Node36 -->
<g id="edge41_Node000014_Node000036" class="edge">
<title>Node14&#45;&gt;Node36</title>
<g id="a_edge41_Node000014_Node000036"><a xlink:title=" ">
<path fill="none" stroke="#63b8ff" d="M1256.16,-133.81C1329.52,-129.8 1495.4,-118.2 1632.12,-90.25 1635.98,-89.46 1639.97,-88.51 1643.94,-87.47"/>
<polygon fill="#63b8ff" stroke="#63b8ff" points="1644.81,-90.86 1653.49,-84.78 1642.91,-84.12 1644.81,-90.86"/>
</a>
</g>
</g>
<!-- Node37 -->
<g id="Node000037" class="node">
<title>Node37</title>
<g id="a_Node000037"><a xlink:title=" ">
<polygon fill="#e0e0e0" stroke="#999999" points="1850.75,-90.25 1745.5,-90.25 1745.5,-56.75 1850.75,-56.75 1850.75,-90.25"/>
<text xml:space="preserve" text-anchor="start" x="1753.5" y="-76.75" font-family="Helvetica,sans-Serif" font-size="10.00">spdlog/sinks/basic</text>
<text xml:space="preserve" text-anchor="middle" x="1798.12" y="-64" font-family="Helvetica,sans-Serif" font-size="10.00">_file_sink.h</text>
</a>
</g>
</g>
<!-- Node14&#45;&gt;Node37 -->
<g id="edge42_Node000014_Node000037" class="edge">
<title>Node14&#45;&gt;Node37</title>
<g id="a_edge42_Node000014_Node000037"><a xlink:title=" ">
<path fill="none" stroke="#63b8ff" d="M1256.09,-134.4C1340.36,-131.22 1549.52,-120.88 1733.88,-90.45"/>
<polygon fill="#63b8ff" stroke="#63b8ff" points="1734.37,-93.91 1743.65,-88.81 1733.21,-87.01 1734.37,-93.91"/>
</a>
</g>
</g>
<!-- Node38 -->
<g id="Node000038" class="node">
<title>Node38</title>
<g id="a_Node000038"><a xlink:title=" ">
<polygon fill="#e0e0e0" stroke="#999999" points="1979.38,-90.25 1868.88,-90.25 1868.88,-56.75 1979.38,-56.75 1979.38,-90.25"/>
<text xml:space="preserve" text-anchor="start" x="1876.88" y="-76.75" font-family="Helvetica,sans-Serif" font-size="10.00">spdlog/sinks/stdout</text>
<text xml:space="preserve" text-anchor="middle" x="1924.12" y="-64" font-family="Helvetica,sans-Serif" font-size="10.00">_color_sinks.h</text>
</a>
</g>
</g>
<!-- Node14&#45;&gt;Node38 -->
<g id="edge43_Node000014_Node000038" class="edge">
<title>Node14&#45;&gt;Node38</title>
<g id="a_edge43_Node000014_Node000038"><a xlink:title=" ">
<path fill="none" stroke="#63b8ff" d="M1256.01,-135.2C1354.04,-133.62 1624.12,-126.23 1857.32,-90.53"/>
<polygon fill="#63b8ff" stroke="#63b8ff" points="1857.55,-94.04 1866.9,-89.04 1856.48,-87.12 1857.55,-94.04"/>
</a>
</g>
</g>
<!-- Node39 -->
<g id="Node000039" class="node">
<title>Node39</title>
<g id="a_Node000039"><a xlink:title=" ">
<polygon fill="#e0e0e0" stroke="#999999" points="2090.38,-83.88 1997.88,-83.88 1997.88,-63.12 2090.38,-63.12 2090.38,-83.88"/>
<text xml:space="preserve" text-anchor="middle" x="2044.12" y="-70.38" font-family="Helvetica,sans-Serif" font-size="10.00">spdlog/spdlog.h</text>
</a>
</g>
</g>
<!-- Node14&#45;&gt;Node39 -->
<g id="edge44_Node000014_Node000039" class="edge">
<title>Node14&#45;&gt;Node39</title>
<g id="a_edge44_Node000014_Node000039"><a xlink:title=" ">
<path fill="none" stroke="#63b8ff" d="M1256.11,-136.26C1368.7,-137.54 1710.14,-136.97 1988.12,-90.25 1992.83,-89.46 1997.71,-88.42 2002.53,-87.26"/>
<polygon fill="#63b8ff" stroke="#63b8ff" points="2003.33,-90.67 2012.12,-84.75 2001.56,-83.9 2003.33,-90.67"/>
</a>
</g>
</g>
<!-- Node40 -->
<g id="Node000040" class="node">
<title>Node40</title>
<g id="a_Node000040"><a xlink:href="_random_8hpp.html" target="_top" xlink:title="Run&#45;owned random&#45;number generation and reproducible stream splitting.">
<polygon fill="white" stroke="#666666" points="2185.88,-83.88 2108.38,-83.88 2108.38,-63.12 2185.88,-63.12 2185.88,-83.88"/>
<text xml:space="preserve" text-anchor="middle" x="2147.12" y="-70.38" font-family="Helvetica,sans-Serif" font-size="10.00">Random.hpp</text>
</a>
</g>
</g>
<!-- Node14&#45;&gt;Node40 -->
<g id="edge45_Node000014_Node000040" class="edge">
<title>Node14&#45;&gt;Node40</title>
<g id="a_edge45_Node000014_Node000040"><a xlink:title=" ">
<path fill="none" stroke="#63b8ff" d="M1256.17,-135.01C1403.11,-132.42 1933.7,-121.08 2099.12,-90.25 2102.79,-89.57 2106.56,-88.68 2110.3,-87.67"/>
<polygon fill="#63b8ff" stroke="#63b8ff" points="2111.28,-91.03 2119.85,-84.8 2109.26,-84.32 2111.28,-91.03"/>
</a>
</g>
</g>
<!-- Node42 -->
<g id="Node000042" class="node">
<title>Node42</title>
<g id="a_Node000042"><a xlink:title=" ">
<polygon fill="#e0e0e0" stroke="#999999" points="2276.62,-83.88 2203.62,-83.88 2203.62,-63.12 2276.62,-63.12 2276.62,-83.88"/>
<text xml:space="preserve" text-anchor="middle" x="2240.12" y="-70.38" font-family="Helvetica,sans-Serif" font-size="10.00">Version.hpp</text>
</a>
</g>
</g>
<!-- Node14&#45;&gt;Node42 -->
<g id="edge52_Node000014_Node000042" class="edge">
<title>Node14&#45;&gt;Node42</title>
<g id="a_edge52_Node000014_Node000042"><a xlink:title=" ">
<path fill="none" stroke="#63b8ff" d="M1256.25,-135.33C1413.28,-133.88 2010.41,-126.07 2195.12,-90.25 2198.51,-89.59 2201.98,-88.73 2205.43,-87.75"/>
<polygon fill="#63b8ff" stroke="#63b8ff" points="2206.29,-91.15 2214.75,-84.78 2204.16,-84.49 2206.29,-91.15"/>
</a>
</g>
</g>
<!-- Node40&#45;&gt;Node2 -->
<g id="edge47_Node000040_Node000002" class="edge">
<title>Node40&#45;&gt;Node2</title>
<g id="a_edge47_Node000040_Node000002"><a xlink:title=" ">
<path fill="none" stroke="#63b8ff" d="M2121.82,-62.68C2114.59,-60.29 2106.64,-58.05 2099.12,-56.75 2013.34,-41.87 656.12,-16.42 416.22,-12.03"/>
<polygon fill="#63b8ff" stroke="#63b8ff" points="416.61,-8.54 406.55,-11.85 416.48,-15.54 416.61,-8.54"/>
</a>
</g>
</g>
<!-- Node40&#45;&gt;Node10 -->
<g id="edge49_Node000040_Node000010" class="edge">
<title>Node40&#45;&gt;Node10</title>
<g id="a_edge49_Node000040_Node000010"><a xlink:title=" ">
<path fill="none" stroke="#63b8ff" d="M2172.51,-62.68C2198.65,-52.56 2239.63,-36.71 2269.12,-25.3"/>
<polygon fill="#63b8ff" stroke="#63b8ff" points="2270.33,-28.59 2278.39,-21.72 2267.8,-22.06 2270.33,-28.59"/>
</a>
</g>
</g>
<!-- Node40&#45;&gt;Node19 -->
<g id="edge46_Node000040_Node000019" class="edge">
<title>Node40&#45;&gt;Node19</title>
<g id="a_edge46_Node000040_Node000019"><a xlink:title=" ">
<path fill="none" stroke="#63b8ff" d="M2121.56,-62.65C2114.4,-60.3 2106.55,-58.08 2099.12,-56.75 1986.44,-36.49 1166.01,-16.75 970.75,-12.3"/>
<polygon fill="#63b8ff" stroke="#63b8ff" points="970.91,-8.81 960.83,-12.08 970.75,-15.8 970.91,-8.81"/>
</a>
</g>
</g>
<!-- Node40&#45;&gt;Node24 -->
<g id="edge48_Node000040_Node000024" class="edge">
<title>Node40&#45;&gt;Node24</title>
<g id="a_edge48_Node000040_Node000024"><a xlink:title=" ">
<path fill="none" stroke="#63b8ff" d="M2121.03,-62.64C2114.01,-60.34 2106.36,-58.16 2099.12,-56.75 1863.37,-10.69 1572.15,-9.65 1474.67,-10.77"/>
<polygon fill="#63b8ff" stroke="#63b8ff" points="1474.72,-7.27 1464.76,-10.91 1474.81,-14.27 1474.72,-7.27"/>
</a>
</g>
</g>
<!-- Node41 -->
<g id="Node000041" class="node">
<title>Node41</title>
<g id="a_Node000041"><a xlink:title=" ">
<polygon fill="#e0e0e0" stroke="#999999" points="2195.62,-20.75 2098.62,-20.75 2098.62,0 2195.62,0 2195.62,-20.75"/>
<text xml:space="preserve" text-anchor="middle" x="2147.12" y="-7.25" font-family="Helvetica,sans-Serif" font-size="10.00">pcg_random.hpp</text>
</a>
</g>
</g>
<!-- Node40&#45;&gt;Node41 -->
<g id="edge50_Node000040_Node000041" class="edge">
<title>Node40&#45;&gt;Node41</title>
<g id="a_edge50_Node000040_Node000041"><a xlink:title=" ">
<path fill="none" stroke="#63b8ff" d="M2147.12,-62.68C2147.12,-54.52 2147.12,-42.63 2147.12,-32.35"/>
<polygon fill="#63b8ff" stroke="#63b8ff" points="2150.63,-32.48 2147.13,-22.48 2143.63,-32.48 2150.63,-32.48"/>
</a>
</g>
</g>
</g>
</svg>
