<?xml version="1.0" encoding="UTF-8" standalone="no"?>
<!DOCTYPE svg PUBLIC "-//W3C//DTD SVG 1.1//EN"
 "http://www.w3.org/Graphics/SVG/1.1/DTD/svg11.dtd">
<!-- Generated by graphviz version 2.43.0 (0)
 -->
<!-- Title: tests/Move_command_test.cpp Pages: 1 -->
<svg width="1996pt" height="511pt"
 viewBox="0.00 0.00 1995.50 511.00" xmlns="http://www.w3.org/2000/svg" xmlns:xlink="http://www.w3.org/1999/xlink">
<g id="graph0" class="graph" transform="scale(1 1) rotate(0) translate(4 507)">
<title>tests/Move_command_test.cpp</title>
<!-- Node1 -->
<g id="node1" class="node">
<title>Node1</title>
<g id="a_node1"><a xlink:title="Tests of MoveCommand, that is, that moves are handled properly.">
<polygon fill="#999999" stroke="#666666" points="1222.5,-503 1097.5,-503 1097.5,-473 1222.5,-473 1222.5,-503"/>
<text text-anchor="start" x="1105.5" y="-491" font-family="Helvetica,sans-Serif" font-size="10.00">tests/Move_command</text>
<text text-anchor="middle" x="1160" y="-480" font-family="Helvetica,sans-Serif" font-size="10.00">_test.cpp</text>
</a>
</g>
</g>
<!-- Node2 -->
<g id="node2" class="node">
<title>Node2</title>
<g id="a_node2"><a xlink:href="_move__command_8hpp.html" target="_top" xlink:title="Do ergodic moves using the Command pattern.">
<polygon fill="white" stroke="#666666" points="782.5,-437 663.5,-437 663.5,-418 782.5,-418 782.5,-437"/>
<text text-anchor="middle" x="723" y="-425" font-family="Helvetica,sans-Serif" font-size="10.00">Move_command.hpp</text>
</a>
</g>
</g>
<!-- Node1&#45;&gt;Node2 -->
<g id="edge1" class="edge">
<title>Node1&#45;&gt;Node2</title>
<path fill="none" stroke="#63b8ff" d="M1097.39,-478.62C1016.65,-467.81 876.67,-449.07 792.65,-437.82"/>
<polygon fill="#63b8ff" stroke="#63b8ff" points="793.07,-434.35 782.69,-436.49 792.14,-441.29 793.07,-434.35"/>
</g>
<!-- Node9 -->
<g id="node9" class="node">
<title>Node9</title>
<g id="a_node9"><a xlink:title=" ">
<polygon fill="#e0e0e0" stroke="#999999" points="474.5,-321.5 429.5,-321.5 429.5,-302.5 474.5,-302.5 474.5,-321.5"/>
<text text-anchor="middle" x="452" y="-309.5" font-family="Helvetica,sans-Serif" font-size="10.00">utility</text>
</a>
</g>
</g>
<!-- Node1&#45;&gt;Node9 -->
<g id="edge60" class="edge">
<title>Node1&#45;&gt;Node9</title>
<path fill="none" stroke="#63b8ff" d="M1097.49,-484.29C981.07,-478.68 735.5,-463.99 655,-437 580.24,-411.93 504.07,-355.28 470.18,-328.1"/>
<polygon fill="#63b8ff" stroke="#63b8ff" points="472.11,-325.16 462.14,-321.56 467.7,-330.59 472.11,-325.16"/>
</g>
<!-- Node30 -->
<g id="node30" class="node">
<title>Node30</title>
<g id="a_node30"><a xlink:title=" ">
<polygon fill="#e0e0e0" stroke="#999999" points="1053,-85 989,-85 989,-66 1053,-66 1053,-85"/>
<text text-anchor="middle" x="1021" y="-73" font-family="Helvetica,sans-Serif" font-size="10.00">algorithm</text>
</a>
</g>
</g>
<!-- Node1&#45;&gt;Node30 -->
<g id="edge55" class="edge">
<title>Node1&#45;&gt;Node30</title>
<path fill="none" stroke="#63b8ff" d="M1104.4,-472.97C1083.93,-465.33 1062.09,-453.87 1047,-437 1027.28,-414.94 1027,-403.09 1027,-373.5 1027,-373.5 1027,-373.5 1027,-311 1027,-230.57 1023.43,-134.66 1021.8,-95.04"/>
<polygon fill="#63b8ff" stroke="#63b8ff" points="1025.29,-94.86 1021.38,-85.02 1018.3,-95.15 1025.29,-94.86"/>
</g>
<!-- Node44 -->
<g id="node42" class="node">
<title>Node44</title>
<g id="a_node42"><a xlink:title=" ">
<polygon fill="#e0e0e0" stroke="#999999" points="999,-261 957,-261 957,-242 999,-242 999,-261"/>
<text text-anchor="middle" x="978" y="-249" font-family="Helvetica,sans-Serif" font-size="10.00">array</text>
</a>
</g>
</g>
<!-- Node1&#45;&gt;Node44 -->
<g id="edge56" class="edge">
<title>Node1&#45;&gt;Node44</title>
<path fill="none" stroke="#63b8ff" d="M1097.21,-480.26C1067.56,-473.83 1034.12,-461.32 1013,-437 971.52,-389.25 972.81,-307.91 975.87,-271.32"/>
<polygon fill="#63b8ff" stroke="#63b8ff" points="979.37,-271.4 976.87,-261.11 972.41,-270.72 979.37,-271.4"/>
</g>
<!-- Node47 -->
<g id="node45" class="node">
<title>Node47</title>
<g id="a_node45"><a xlink:title=" ">
<polygon fill="#e0e0e0" stroke="#999999" points="1156.5,-437 1055.5,-437 1055.5,-418 1156.5,-418 1156.5,-437"/>
<text text-anchor="middle" x="1106" y="-425" font-family="Helvetica,sans-Serif" font-size="10.00">doctest/doctest.h</text>
</a>
</g>
</g>
<!-- Node1&#45;&gt;Node47 -->
<g id="edge53" class="edge">
<title>Node1&#45;&gt;Node47</title>
<path fill="none" stroke="#63b8ff" d="M1146.93,-472.84C1139.09,-464.35 1129.09,-453.52 1120.94,-444.69"/>
<polygon fill="#63b8ff" stroke="#63b8ff" points="1123.45,-442.24 1114.09,-437.27 1118.3,-446.99 1123.45,-442.24"/>
</g>
<!-- Node48 -->
<g id="node46" class="node">
<title>Node48</title>
<g id="a_node46"><a xlink:title=" ">
<polygon fill="#e0e0e0" stroke="#999999" points="1253.5,-437 1174.5,-437 1174.5,-418 1253.5,-418 1253.5,-437"/>
<text text-anchor="middle" x="1214" y="-425" font-family="Helvetica,sans-Serif" font-size="10.00">fmt/ranges.h</text>
</a>
</g>
</g>
<!-- Node1&#45;&gt;Node48 -->
<g id="edge54" class="edge">
<title>Node1&#45;&gt;Node48</title>
<path fill="none" stroke="#63b8ff" d="M1173.07,-472.84C1180.91,-464.35 1190.91,-453.52 1199.06,-444.69"/>
<polygon fill="#63b8ff" stroke="#63b8ff" points="1201.7,-446.99 1205.91,-437.27 1196.55,-442.24 1201.7,-446.99"/>
</g>
<!-- Node49 -->
<g id="node47" class="node">
<title>Node49</title>
<g id="a_node47"><a xlink:title=" ">
<polygon fill="#e0e0e0" stroke="#999999" points="1330.5,-437 1271.5,-437 1271.5,-418 1330.5,-418 1330.5,-437"/>
<text text-anchor="middle" x="1301" y="-425" font-family="Helvetica,sans-Serif" font-size="10.00">numbers</text>
</a>
</g>
</g>
<!-- Node1&#45;&gt;Node49 -->
<g id="edge57" class="edge">
<title>Node1&#45;&gt;Node49</title>
<path fill="none" stroke="#63b8ff" d="M1193.77,-472.99C1217.19,-463.27 1248.12,-450.44 1270.73,-441.06"/>
<polygon fill="#63b8ff" stroke="#63b8ff" points="1272.28,-444.2 1280.18,-437.14 1269.6,-437.74 1272.28,-444.2"/>
</g>
<!-- Node50 -->
<g id="node48" class="node">
<title>Node50</title>
<g id="a_node48"><a xlink:title=" ">
<polygon fill="#e0e0e0" stroke="#999999" points="1389.5,-437 1348.5,-437 1348.5,-418 1389.5,-418 1389.5,-437"/>
<text text-anchor="middle" x="1369" y="-425" font-family="Helvetica,sans-Serif" font-size="10.00">tuple</text>
</a>
</g>
</g>
<!-- Node1&#45;&gt;Node50 -->
<g id="edge58" class="edge">
<title>Node1&#45;&gt;Node50</title>
<path fill="none" stroke="#63b8ff" d="M1211.26,-472.97C1245.05,-463.67 1290.53,-451.07 1338.74,-437.33"/>
<polygon fill="#63b8ff" stroke="#63b8ff" points="1339.76,-440.68 1348.42,-434.57 1337.84,-433.95 1339.76,-440.68"/>
</g>
<!-- Node51 -->
<g id="node49" class="node">
<title>Node51</title>
<g id="a_node49"><a xlink:title=" ">
<polygon fill="#e0e0e0" stroke="#999999" points="1476.5,-437 1407.5,-437 1407.5,-418 1476.5,-418 1476.5,-437"/>
<text text-anchor="middle" x="1442" y="-425" font-family="Helvetica,sans-Serif" font-size="10.00">type_traits</text>
</a>
</g>
</g>
<!-- Node1&#45;&gt;Node51 -->
<g id="edge59" class="edge">
<title>Node1&#45;&gt;Node51</title>
<path fill="none" stroke="#63b8ff" d="M1222.58,-474.02C1275.65,-463.01 1350.43,-447.5 1397.55,-437.72"/>
<polygon fill="#63b8ff" stroke="#63b8ff" points="1398.37,-441.13 1407.45,-435.67 1396.95,-434.27 1398.37,-441.13"/>
</g>
<!-- Node52 -->
<g id="node50" class="node">
<title>Node52</title>
<g id="a_node50"><a xlink:title=" ">
<polygon fill="#e0e0e0" stroke="#999999" points="1541.5,-437 1494.5,-437 1494.5,-418 1541.5,-418 1541.5,-437"/>
<text text-anchor="middle" x="1518" y="-425" font-family="Helvetica,sans-Serif" font-size="10.00">vector</text>
</a>
</g>
</g>
<!-- Node1&#45;&gt;Node52 -->
<g id="edge61" class="edge">
<title>Node1&#45;&gt;Node52</title>
<path fill="none" stroke="#63b8ff" d="M1222.55,-479.44C1286.26,-471.28 1388.02,-456.98 1484.39,-437.16"/>
<polygon fill="#63b8ff" stroke="#63b8ff" points="1485.22,-440.56 1494.3,-435.1 1483.8,-433.71 1485.22,-440.56"/>
</g>
<!-- Node3 -->
<g id="node3" class="node">
<title>Node3</title>
<g id="a_node3"><a xlink:href="_apply__move_8hpp.html" target="_top" xlink:title="Apply Pachner moves to foliated Delaunay triangulations.">
<polygon fill="white" stroke="#666666" points="443,-382 345,-382 345,-363 443,-363 443,-382"/>
<text text-anchor="middle" x="394" y="-370" font-family="Helvetica,sans-Serif" font-size="10.00">Apply_move.hpp</text>
</a>
</g>
</g>
<!-- Node2&#45;&gt;Node3 -->
<g id="edge2" class="edge">
<title>Node2&#45;&gt;Node3</title>
<path fill="none" stroke="#63b8ff" d="M670.14,-417.98C610.86,-408.44 514.97,-392.99 453.22,-383.04"/>
<polygon fill="#63b8ff" stroke="#63b8ff" points="453.66,-379.57 443.23,-381.43 452.55,-386.48 453.66,-379.57"/>
</g>
<!-- Node10 -->
<g id="node10" class="node">
<title>Node10</title>
<g id="a_node10"><a xlink:href="_ergodic__moves__3_8hpp.html" target="_top" xlink:title="Pachner moves on 2+1 dimensional foliated Delaunay triangulations.">
<polygon fill="white" stroke="#666666" points="784.5,-382 661.5,-382 661.5,-363 784.5,-363 784.5,-382"/>
<text text-anchor="middle" x="723" y="-370" font-family="Helvetica,sans-Serif" font-size="10.00">Ergodic_moves_3.hpp</text>
</a>
</g>
</g>
<!-- Node2&#45;&gt;Node10 -->
<g id="edge9" class="edge">
<title>Node2&#45;&gt;Node10</title>
<path fill="none" stroke="#63b8ff" d="M723,-417.75C723,-410.8 723,-400.85 723,-392.13"/>
<polygon fill="#63b8ff" stroke="#63b8ff" points="726.5,-392.09 723,-382.09 719.5,-392.09 726.5,-392.09"/>
</g>
<!-- Node4 -->
<g id="node4" class="node">
<title>Node4</title>
<g id="a_node4"><a xlink:title=" ">
<polygon fill="#e0e0e0" stroke="#999999" points="155.5,-85 62.5,-85 62.5,-66 155.5,-66 155.5,-85"/>
<text text-anchor="middle" x="109" y="-73" font-family="Helvetica,sans-Serif" font-size="10.00">spdlog/spdlog.h</text>
</a>
</g>
</g>
<!-- Node3&#45;&gt;Node4 -->
<g id="edge3" class="edge">
<title>Node3&#45;&gt;Node4</title>
<path fill="none" stroke="#63b8ff" d="M394,-362.84C394,-343.21 394,-293.82 394,-252.5 394,-252.5 394,-252.5 394,-195.5 394,-165.33 393.25,-151.23 370,-132 298.39,-72.75 253.89,-119.61 164,-96 156.08,-93.92 147.67,-91.21 139.88,-88.47"/>
<polygon fill="#63b8ff" stroke="#63b8ff" points="141.01,-85.16 130.42,-85.04 138.63,-91.74 141.01,-85.16"/>
</g>
<!-- Node5 -->
<g id="node5" class="node">
<title>Node5</title>
<g id="a_node5"><a xlink:title=" ">
<polygon fill="#e0e0e0" stroke="#999999" points="244,-327 118,-327 118,-297 244,-297 244,-327"/>
<text text-anchor="start" x="126" y="-315" font-family="Helvetica,sans-Serif" font-size="10.00">boost/compat/function</text>
<text text-anchor="middle" x="181" y="-304" font-family="Helvetica,sans-Serif" font-size="10.00">_ref.hpp</text>
</a>
</g>
</g>
<!-- Node3&#45;&gt;Node5 -->
<g id="edge4" class="edge">
<title>Node3&#45;&gt;Node5</title>
<path fill="none" stroke="#63b8ff" d="M363.03,-362.99C331.44,-354.32 281.58,-340.62 242.03,-329.76"/>
<polygon fill="#63b8ff" stroke="#63b8ff" points="242.78,-326.34 232.21,-327.06 240.92,-333.09 242.78,-326.34"/>
</g>
<!-- Node6 -->
<g id="node6" class="node">
<title>Node6</title>
<g id="a_node6"><a xlink:title=" ">
<polygon fill="#e0e0e0" stroke="#999999" points="580,-321.5 518,-321.5 518,-302.5 580,-302.5 580,-321.5"/>
<text text-anchor="middle" x="549" y="-309.5" font-family="Helvetica,sans-Serif" font-size="10.00">expected</text>
</a>
</g>
</g>
<!-- Node3&#45;&gt;Node6 -->
<g id="edge5" class="edge">
<title>Node3&#45;&gt;Node6</title>
<path fill="none" stroke="#63b8ff" d="M416.54,-362.99C442.94,-353.03 486.88,-336.45 516.85,-325.13"/>
<polygon fill="#63b8ff" stroke="#63b8ff" points="518.31,-328.32 526.43,-321.52 515.84,-321.77 518.31,-328.32"/>
</g>
<!-- Node7 -->
<g id="node7" class="node">
<title>Node7</title>
<g id="a_node7"><a xlink:title=" ">
<polygon fill="#e0e0e0" stroke="#999999" points="327.5,-321.5 262.5,-321.5 262.5,-302.5 327.5,-302.5 327.5,-321.5"/>
<text text-anchor="middle" x="295" y="-309.5" font-family="Helvetica,sans-Serif" font-size="10.00">functional</text>
</a>
</g>
</g>
<!-- Node3&#45;&gt;Node7 -->
<g id="edge6" class="edge">
<title>Node3&#45;&gt;Node7</title>
<path fill="none" stroke="#63b8ff" d="M379.39,-362.87C363.31,-353.36 337.22,-337.95 318.3,-326.77"/>
<polygon fill="#63b8ff" stroke="#63b8ff" points="320.06,-323.74 309.67,-321.67 316.5,-329.77 320.06,-323.74"/>
</g>
<!-- Node8 -->
<g id="node8" class="node">
<title>Node8</title>
<g id="a_node8"><a xlink:title=" ">
<polygon fill="#e0e0e0" stroke="#999999" points="44,-85 0,-85 0,-66 44,-66 44,-85"/>
<text text-anchor="middle" x="22" y="-73" font-family="Helvetica,sans-Serif" font-size="10.00">string</text>
</a>
</g>
</g>
<!-- Node3&#45;&gt;Node8 -->
<g id="edge7" class="edge">
<title>Node3&#45;&gt;Node8</title>
<path fill="none" stroke="#63b8ff" d="M389.19,-362.85C378.96,-343.63 356,-295.66 356,-252.5 356,-252.5 356,-252.5 356,-195.5 356,-53.76 181.28,-156.3 53,-96 49.68,-94.44 46.28,-92.59 43,-90.66"/>
<polygon fill="#63b8ff" stroke="#63b8ff" points="44.61,-87.54 34.27,-85.19 40.89,-93.47 44.61,-87.54"/>
</g>
<!-- Node3&#45;&gt;Node9 -->
<g id="edge8" class="edge">
<title>Node3&#45;&gt;Node9</title>
<path fill="none" stroke="#63b8ff" d="M402.56,-362.87C411.38,-353.97 425.34,-339.89 436.18,-328.95"/>
<polygon fill="#63b8ff" stroke="#63b8ff" points="438.85,-331.23 443.41,-321.67 433.88,-326.3 438.85,-331.23"/>
</g>
<!-- Node10&#45;&gt;Node6 -->
<g id="edge10" class="edge">
<title>Node10&#45;&gt;Node6</title>
<path fill="none" stroke="#63b8ff" d="M697.7,-362.99C667.8,-352.94 617.88,-336.16 584.22,-324.84"/>
<polygon fill="#63b8ff" stroke="#63b8ff" points="584.93,-321.39 574.33,-321.52 582.69,-328.02 584.93,-321.39"/>
</g>
<!-- Node11 -->
<g id="node11" class="node">
<title>Node11</title>
<g id="a_node11"><a xlink:href="_formatters_8hpp.html" target="_top" xlink:title="Formatter specializations for various types.">
<polygon fill="white" stroke="#666666" points="1219.5,-321.5 1128.5,-321.5 1128.5,-302.5 1219.5,-302.5 1219.5,-321.5"/>
<text text-anchor="middle" x="1174" y="-309.5" font-family="Helvetica,sans-Serif" font-size="10.00">Formatters.hpp</text>
</a>
</g>
</g>
<!-- Node10&#45;&gt;Node11 -->
<g id="edge11" class="edge">
<title>Node10&#45;&gt;Node11</title>
<path fill="none" stroke="#63b8ff" d="M784.76,-363.49C872.97,-352.05 1033.7,-331.2 1118.39,-320.21"/>
<polygon fill="#63b8ff" stroke="#63b8ff" points="1118.86,-323.68 1128.33,-318.92 1117.96,-316.74 1118.86,-323.68"/>
</g>
<!-- Node24 -->
<g id="node24" class="node">
<title>Node24</title>
<g id="a_node24"><a xlink:href="_manifold_8hpp.html" target="_top" xlink:title="Data structures for manifolds.">
<polygon fill="white" stroke="#666666" points="690,-321.5 610,-321.5 610,-302.5 690,-302.5 690,-321.5"/>
<text text-anchor="middle" x="650" y="-309.5" font-family="Helvetica,sans-Serif" font-size="10.00">Manifold.hpp</text>
</a>
</g>
</g>
<!-- Node10&#45;&gt;Node24 -->
<g id="edge24" class="edge">
<title>Node10&#45;&gt;Node24</title>
<path fill="none" stroke="#63b8ff" d="M712.23,-362.87C700.8,-353.71 682.52,-339.06 668.72,-328.01"/>
<polygon fill="#63b8ff" stroke="#63b8ff" points="670.81,-325.19 660.82,-321.67 666.43,-330.65 670.81,-325.19"/>
</g>
<!-- Node43 -->
<g id="node41" class="node">
<title>Node43</title>
<g id="a_node41"><a xlink:href="_move__tracker_8hpp.html" target="_top" xlink:title="Track ergodic moves.">
<polygon fill="white" stroke="#666666" points="832.5,-321.5 729.5,-321.5 729.5,-302.5 832.5,-302.5 832.5,-321.5"/>
<text text-anchor="middle" x="781" y="-309.5" font-family="Helvetica,sans-Serif" font-size="10.00">Move_tracker.hpp</text>
</a>
</g>
</g>
<!-- Node10&#45;&gt;Node43 -->
<g id="edge45" class="edge">
<title>Node10&#45;&gt;Node43</title>
<path fill="none" stroke="#63b8ff" d="M731.56,-362.87C740.38,-353.97 754.34,-339.89 765.18,-328.95"/>
<polygon fill="#63b8ff" stroke="#63b8ff" points="767.85,-331.23 772.41,-321.67 762.88,-326.3 767.85,-331.23"/>
</g>
<!-- Node12 -->
<g id="node12" class="node">
<title>Node12</title>
<g id="a_node12"><a xlink:title=" ">
<polygon fill="#e0e0e0" stroke="#999999" points="1207.5,-261 1140.5,-261 1140.5,-242 1207.5,-242 1207.5,-261"/>
<text text-anchor="middle" x="1174" y="-249" font-family="Helvetica,sans-Serif" font-size="10.00">fmt/core.h</text>
</a>
</g>
</g>
<!-- Node11&#45;&gt;Node12 -->
<g id="edge12" class="edge">
<title>Node11&#45;&gt;Node12</title>
<path fill="none" stroke="#63b8ff" d="M1174,-302.37C1174,-294.25 1174,-281.81 1174,-271.39"/>
<polygon fill="#63b8ff" stroke="#63b8ff" points="1177.5,-271.17 1174,-261.17 1170.5,-271.17 1177.5,-271.17"/>
</g>
<!-- Node13 -->
<g id="node13" class="node">
<title>Node13</title>
<g id="a_node13"><a xlink:title=" ">
<polygon fill="#e0e0e0" stroke="#999999" points="1304.5,-261 1225.5,-261 1225.5,-242 1304.5,-242 1304.5,-261"/>
<text text-anchor="middle" x="1265" y="-249" font-family="Helvetica,sans-Serif" font-size="10.00">fmt/format.h</text>
</a>
</g>
</g>
<!-- Node11&#45;&gt;Node13 -->
<g id="edge13" class="edge">
<title>Node11&#45;&gt;Node13</title>
<path fill="none" stroke="#63b8ff" d="M1187.43,-302.37C1202.08,-292.95 1225.76,-277.73 1243.1,-266.58"/>
<polygon fill="#63b8ff" stroke="#63b8ff" points="1245,-269.52 1251.52,-261.17 1241.21,-263.63 1245,-269.52"/>
</g>
<!-- Node14 -->
<g id="node14" class="node">
<title>Node14</title>
<g id="a_node14"><a xlink:title=" ">
<polygon fill="#e0e0e0" stroke="#999999" points="1122,-261 1066,-261 1066,-242 1122,-242 1122,-261"/>
<text text-anchor="middle" x="1094" y="-249" font-family="Helvetica,sans-Serif" font-size="10.00">sstream</text>
</a>
</g>
</g>
<!-- Node11&#45;&gt;Node14 -->
<g id="edge14" class="edge">
<title>Node11&#45;&gt;Node14</title>
<path fill="none" stroke="#63b8ff" d="M1162.2,-302.37C1149.55,-293.12 1129.26,-278.28 1114.09,-267.19"/>
<polygon fill="#63b8ff" stroke="#63b8ff" points="1115.99,-264.24 1105.85,-261.17 1111.86,-269.9 1115.99,-264.24"/>
</g>
<!-- Node15 -->
<g id="node15" class="node">
<title>Node15</title>
<g id="a_node15"><a xlink:href="_triangulation__traits_8hpp.html" target="_top" xlink:title="Traits class for particular uses of CGAL.">
<polygon fill="white" stroke="#666666" points="1463.5,-151 1332.5,-151 1332.5,-132 1463.5,-132 1463.5,-151"/>
<text text-anchor="middle" x="1398" y="-139" font-family="Helvetica,sans-Serif" font-size="10.00">Triangulation_traits.hpp</text>
</a>
</g>
</g>
<!-- Node11&#45;&gt;Node15 -->
<g id="edge15" class="edge">
<title>Node11&#45;&gt;Node15</title>
<path fill="none" stroke="#63b8ff" d="M1218.36,-302.48C1247.71,-295.18 1285.82,-282.36 1314,-261 1350.21,-233.55 1377.06,-186.04 1389.79,-160.31"/>
<polygon fill="#63b8ff" stroke="#63b8ff" points="1393.07,-161.55 1394.23,-151.02 1386.76,-158.53 1393.07,-161.55"/>
</g>
<!-- Node16 -->
<g id="node16" class="node">
<title>Node16</title>
<g id="a_node16"><a xlink:title=" ">
<polygon fill="#e0e0e0" stroke="#999999" points="1840,-85 1660,-85 1660,-66 1840,-66 1840,-85"/>
<text text-anchor="middle" x="1750" y="-73" font-family="Helvetica,sans-Serif" font-size="10.00">CGAL/Delaunay_triangulation_3.h</text>
</a>
</g>
</g>
<!-- Node15&#45;&gt;Node16 -->
<g id="edge16" class="edge">
<title>Node15&#45;&gt;Node16</title>
<path fill="none" stroke="#63b8ff" d="M1448.46,-131.94C1499.56,-123.19 1580.85,-109.08 1651,-96 1666.11,-93.18 1682.5,-90.01 1697.5,-87.05"/>
<polygon fill="#63b8ff" stroke="#63b8ff" points="1698.51,-90.42 1707.64,-85.04 1697.15,-83.55 1698.51,-90.42"/>
</g>
<!-- Node17 -->
<g id="node17" class="node">
<title>Node17</title>
<g id="a_node17"><a xlink:title=" ">
<polygon fill="#e0e0e0" stroke="#999999" points="1987.5,-96 1858.5,-96 1858.5,-55 1987.5,-55 1987.5,-96"/>
<text text-anchor="start" x="1866.5" y="-84" font-family="Helvetica,sans-Serif" font-size="10.00">CGAL/Exact_predicates</text>
<text text-anchor="start" x="1866.5" y="-73" font-family="Helvetica,sans-Serif" font-size="10.00">_inexact_constructions</text>
<text text-anchor="middle" x="1923" y="-62" font-family="Helvetica,sans-Serif" font-size="10.00">_kernel.h</text>
</a>
</g>
</g>
<!-- Node15&#45;&gt;Node17 -->
<g id="edge17" class="edge">
<title>Node15&#45;&gt;Node17</title>
<path fill="none" stroke="#63b8ff" d="M1463.8,-137.3C1549.97,-132.37 1705.78,-120.97 1847.95,-96.03"/>
<polygon fill="#63b8ff" stroke="#63b8ff" points="1848.93,-99.41 1858.16,-94.21 1847.7,-92.52 1848.93,-99.41"/>
</g>
<!-- Node18 -->
<g id="node18" class="node">
<title>Node18</title>
<g id="a_node18"><a xlink:title=" ">
<polygon fill="#e0e0e0" stroke="#999999" points="1315.5,-85 1166.5,-85 1166.5,-66 1315.5,-66 1315.5,-85"/>
<text text-anchor="middle" x="1241" y="-73" font-family="Helvetica,sans-Serif" font-size="10.00">CGAL/point_generators_3.h</text>
</a>
</g>
</g>
<!-- Node15&#45;&gt;Node18 -->
<g id="edge18" class="edge">
<title>Node15&#45;&gt;Node18</title>
<path fill="none" stroke="#63b8ff" d="M1376.83,-131.87C1349.71,-120.82 1302.54,-101.58 1271.54,-88.95"/>
<polygon fill="#63b8ff" stroke="#63b8ff" points="1272.67,-85.63 1262.09,-85.1 1270.03,-92.11 1272.67,-85.63"/>
</g>
<!-- Node19 -->
<g id="node19" class="node">
<title>Node19</title>
<g id="a_node19"><a xlink:title=" ">
<polygon fill="#e0e0e0" stroke="#999999" points="1472,-90.5 1334,-90.5 1334,-60.5 1472,-60.5 1472,-90.5"/>
<text text-anchor="start" x="1342" y="-78.5" font-family="Helvetica,sans-Serif" font-size="10.00">CGAL/Triangulation</text>
<text text-anchor="middle" x="1403" y="-67.5" font-family="Helvetica,sans-Serif" font-size="10.00">_cell_base_with_info_3.h</text>
</a>
</g>
</g>
<!-- Node15&#45;&gt;Node19 -->
<g id="edge19" class="edge">
<title>Node15&#45;&gt;Node19</title>
<path fill="none" stroke="#63b8ff" d="M1398.67,-131.87C1399.29,-123.99 1400.23,-111.95 1401.08,-101.1"/>
<polygon fill="#63b8ff" stroke="#63b8ff" points="1404.59,-101.1 1401.88,-90.86 1397.61,-100.56 1404.59,-101.1"/>
</g>
<!-- Node20 -->
<g id="node20" class="node">
<title>Node20</title>
<g id="a_node20"><a xlink:title=" ">
<polygon fill="#e0e0e0" stroke="#999999" points="1642,-90.5 1490,-90.5 1490,-60.5 1642,-60.5 1642,-90.5"/>
<text text-anchor="start" x="1498" y="-78.5" font-family="Helvetica,sans-Serif" font-size="10.00">CGAL/Triangulation</text>
<text text-anchor="middle" x="1566" y="-67.5" font-family="Helvetica,sans-Serif" font-size="10.00">_vertex_base_with_info_3.h</text>
</a>
</g>
</g>
<!-- Node15&#45;&gt;Node20 -->
<g id="edge20" class="edge">
<title>Node15&#45;&gt;Node20</title>
<path fill="none" stroke="#63b8ff" d="M1420.66,-131.87C1445.82,-122.28 1487.13,-106.55 1519.29,-94.3"/>
<polygon fill="#63b8ff" stroke="#63b8ff" points="1520.85,-97.45 1528.95,-90.62 1518.36,-90.9 1520.85,-97.45"/>
</g>
<!-- Node21 -->
<g id="node21" class="node">
<title>Node21</title>
<g id="a_node21"><a xlink:href="_settings_8hpp.html" target="_top" xlink:title="Global integer and precision settings.">
<polygon fill="white" stroke="#666666" points="1148.5,-85 1071.5,-85 1071.5,-66 1148.5,-66 1148.5,-85"/>
<text text-anchor="middle" x="1110" y="-73" font-family="Helvetica,sans-Serif" font-size="10.00">Settings.hpp</text>
</a>
</g>
</g>
<!-- Node15&#45;&gt;Node21 -->
<g id="edge21" class="edge">
<title>Node15&#45;&gt;Node21</title>
<path fill="none" stroke="#63b8ff" d="M1332.48,-132.01C1283.76,-124.82 1215.96,-112.96 1158,-96 1151.54,-94.11 1144.76,-91.66 1138.39,-89.14"/>
<polygon fill="#63b8ff" stroke="#63b8ff" points="1139.42,-85.77 1128.84,-85.19 1136.74,-92.24 1139.42,-85.77"/>
</g>
<!-- Node22 -->
<g id="node22" class="node">
<title>Node22</title>
<g id="a_node22"><a xlink:title=" ">
<polygon fill="#e0e0e0" stroke="#999999" points="1123,-19 983,-19 983,0 1123,0 1123,-19"/>
<text text-anchor="middle" x="1053" y="-7" font-family="Helvetica,sans-Serif" font-size="10.00">CGAL/GMP/Gmpzf_type.h</text>
</a>
</g>
</g>
<!-- Node21&#45;&gt;Node22 -->
<g id="edge22" class="edge">
<title>Node21&#45;&gt;Node22</title>
<path fill="none" stroke="#63b8ff" d="M1102.31,-65.87C1093.52,-56 1078.93,-39.61 1067.89,-27.22"/>
<polygon fill="#63b8ff" stroke="#63b8ff" points="1070.2,-24.55 1060.93,-19.41 1064.97,-29.2 1070.2,-24.55"/>
</g>
<!-- Node23 -->
<g id="node23" class="node">
<title>Node23</title>
<g id="a_node23"><a xlink:title=" ">
<polygon fill="#e0e0e0" stroke="#999999" points="1191,-19 1141,-19 1141,0 1191,0 1191,-19"/>
<text text-anchor="middle" x="1166" y="-7" font-family="Helvetica,sans-Serif" font-size="10.00">cstdint</text>
</a>
</g>
</g>
<!-- Node21&#45;&gt;Node23 -->
<g id="edge23" class="edge">
<title>Node21&#45;&gt;Node23</title>
<path fill="none" stroke="#63b8ff" d="M1117.55,-65.87C1126.19,-56 1140.53,-39.61 1151.37,-27.22"/>
<polygon fill="#63b8ff" stroke="#63b8ff" points="1154.26,-29.24 1158.21,-19.41 1148.99,-24.63 1154.26,-29.24"/>
</g>
<!-- Node25 -->
<g id="node25" class="node">
<title>Node25</title>
<g id="a_node25"><a xlink:title=" ">
<polygon fill="#e0e0e0" stroke="#999999" points="682.5,-261 629.5,-261 629.5,-242 682.5,-242 682.5,-261"/>
<text text-anchor="middle" x="656" y="-249" font-family="Helvetica,sans-Serif" font-size="10.00">cstddef</text>
</a>
</g>
</g>
<!-- Node24&#45;&gt;Node25 -->
<g id="edge25" class="edge">
<title>Node24&#45;&gt;Node25</title>
<path fill="none" stroke="#63b8ff" d="M650.89,-302.37C651.72,-294.25 652.99,-281.81 654.06,-271.39"/>
<polygon fill="#63b8ff" stroke="#63b8ff" points="657.57,-271.47 655.11,-261.17 650.61,-270.76 657.57,-271.47"/>
</g>
<!-- Node26 -->
<g id="node26" class="node">
<title>Node26</title>
<g id="a_node26"><a xlink:title=" ">
<polygon fill="#e0e0e0" stroke="#999999" points="508,-261 422,-261 422,-242 508,-242 508,-261"/>
<text text-anchor="middle" x="465" y="-249" font-family="Helvetica,sans-Serif" font-size="10.00">unordered_set</text>
</a>
</g>
</g>
<!-- Node24&#45;&gt;Node26 -->
<g id="edge26" class="edge">
<title>Node24&#45;&gt;Node26</title>
<path fill="none" stroke="#63b8ff" d="M623.1,-302.49C591.04,-292.36 537.32,-275.37 501.52,-264.05"/>
<polygon fill="#63b8ff" stroke="#63b8ff" points="502.52,-260.69 491.93,-261.02 500.41,-267.37 502.52,-260.69"/>
</g>
<!-- Node27 -->
<g id="node27" class="node">
<title>Node27</title>
<g id="a_node27"><a xlink:href="_geometry_8hpp.html" target="_top" xlink:title="Geometric scalars of the Manifold used to calculate the Regge action.">
<polygon fill="white" stroke="#666666" points="611.5,-261 526.5,-261 526.5,-242 611.5,-242 611.5,-261"/>
<text text-anchor="middle" x="569" y="-249" font-family="Helvetica,sans-Serif" font-size="10.00">Geometry.hpp</text>
</a>
</g>
</g>
<!-- Node24&#45;&gt;Node27 -->
<g id="edge27" class="edge">
<title>Node24&#45;&gt;Node27</title>
<path fill="none" stroke="#63b8ff" d="M638.05,-302.37C625.25,-293.12 604.7,-278.28 589.35,-267.19"/>
<polygon fill="#63b8ff" stroke="#63b8ff" points="591.16,-264.18 581,-261.17 587.06,-269.86 591.16,-264.18"/>
</g>
<!-- Node28 -->
<g id="node28" class="node">
<title>Node28</title>
<g id="a_node28"><a xlink:href="_foliated__triangulation_8hpp.html" target="_top" xlink:title="Create foliated spherical triangulations.">
<polygon fill="white" stroke="#666666" points="643,-206 499,-206 499,-187 643,-187 643,-206"/>
<text text-anchor="middle" x="571" y="-194" font-family="Helvetica,sans-Serif" font-size="10.00">Foliated_triangulation.hpp</text>
</a>
</g>
</g>
<!-- Node27&#45;&gt;Node28 -->
<g id="edge28" class="edge">
<title>Node27&#45;&gt;Node28</title>
<path fill="none" stroke="#63b8ff" d="M569.33,-241.75C569.59,-234.8 569.97,-224.85 570.3,-216.13"/>
<polygon fill="#63b8ff" stroke="#63b8ff" points="573.8,-216.21 570.68,-206.09 566.8,-215.95 573.8,-216.21"/>
</g>
<!-- Node28&#45;&gt;Node15 -->
<g id="edge29" class="edge">
<title>Node28&#45;&gt;Node15</title>
<path fill="none" stroke="#63b8ff" d="M643.3,-190.87C798.79,-180.9 1163.68,-157.52 1322.23,-147.36"/>
<polygon fill="#63b8ff" stroke="#63b8ff" points="1322.61,-150.84 1332.37,-146.71 1322.16,-143.85 1322.61,-150.84"/>
</g>
<!-- Node29 -->
<g id="node29" class="node">
<title>Node29</title>
<g id="a_node29"><a xlink:href="_utilities_8hpp.html" target="_top" xlink:title="Utility functions.">
<polygon fill="#fff0f0" stroke="red" points="609,-151 533,-151 533,-132 609,-132 609,-151"/>
<text text-anchor="middle" x="571" y="-139" font-family="Helvetica,sans-Serif" font-size="10.00">Utilities.hpp</text>
</a>
</g>
</g>
<!-- Node28&#45;&gt;Node29 -->
<g id="edge30" class="edge">
<title>Node28&#45;&gt;Node29</title>
<path fill="none" stroke="#63b8ff" d="M571,-186.75C571,-179.8 571,-169.85 571,-161.13"/>
<polygon fill="#63b8ff" stroke="#63b8ff" points="574.5,-161.09 571,-151.09 567.5,-161.09 574.5,-161.09"/>
</g>
<!-- Node29&#45;&gt;Node4 -->
<g id="edge43" class="edge">
<title>Node29&#45;&gt;Node4</title>
<path fill="none" stroke="#63b8ff" d="M532.92,-139.27C460.3,-136.29 297.39,-126.5 164,-96 155.81,-94.13 147.15,-91.42 139.18,-88.61"/>
<polygon fill="#63b8ff" stroke="#63b8ff" points="140.15,-85.24 129.56,-85.07 137.73,-91.81 140.15,-85.24"/>
</g>
<!-- Node29&#45;&gt;Node8 -->
<g id="edge39" class="edge">
<title>Node29&#45;&gt;Node8</title>
<path fill="none" stroke="#63b8ff" d="M532.79,-138.26C420.77,-131.55 98.14,-111.14 53,-96 49.04,-94.67 45.08,-92.75 41.37,-90.61"/>
<polygon fill="#63b8ff" stroke="#63b8ff" points="43.13,-87.58 32.83,-85.11 39.34,-93.47 43.13,-87.58"/>
</g>
<!-- Node29&#45;&gt;Node21 -->
<g id="edge44" class="edge">
<title>Node29&#45;&gt;Node21</title>
<path fill="none" stroke="#63b8ff" d="M609.2,-140.84C692.63,-140.76 896.89,-136.08 1062,-96 1069.05,-94.29 1076.42,-91.72 1083.21,-89.01"/>
<polygon fill="#63b8ff" stroke="#63b8ff" points="1084.8,-92.14 1092.63,-85.01 1082.06,-85.69 1084.8,-92.14"/>
</g>
<!-- Node29&#45;&gt;Node30 -->
<g id="edge31" class="edge">
<title>Node29&#45;&gt;Node30</title>
<path fill="none" stroke="#63b8ff" d="M609.02,-140.57C682.26,-139.79 847.37,-133.59 980,-96 985.59,-94.41 991.37,-92.12 996.75,-89.67"/>
<polygon fill="#63b8ff" stroke="#63b8ff" points="998.47,-92.72 1005.9,-85.18 995.38,-86.44 998.47,-92.72"/>
</g>
<!-- Node31 -->
<g id="node31" class="node">
<title>Node31</title>
<g id="a_node31"><a xlink:title=" ">
<polygon fill="#e0e0e0" stroke="#999999" points="913,-85 845,-85 845,-66 913,-66 913,-85"/>
<text text-anchor="middle" x="879" y="-73" font-family="Helvetica,sans-Serif" font-size="10.00">filesystem</text>
</a>
</g>
</g>
<!-- Node29&#45;&gt;Node31 -->
<g id="edge32" class="edge">
<title>Node29&#45;&gt;Node31</title>
<path fill="none" stroke="#63b8ff" d="M609.01,-137.24C661.12,-132.07 757.24,-120.02 836,-96 841.83,-94.22 847.89,-91.83 853.57,-89.34"/>
<polygon fill="#63b8ff" stroke="#63b8ff" points="855.05,-92.51 862.65,-85.13 852.1,-86.16 855.05,-92.51"/>
</g>
<!-- Node32 -->
<g id="node32" class="node">
<title>Node32</title>
<g id="a_node32"><a xlink:title=" ">
<polygon fill="#e0e0e0" stroke="#999999" points="228.5,-85 173.5,-85 173.5,-66 228.5,-66 228.5,-85"/>
<text text-anchor="middle" x="201" y="-73" font-family="Helvetica,sans-Serif" font-size="10.00">fstream</text>
</a>
</g>
</g>
<!-- Node29&#45;&gt;Node32 -->
<g id="edge33" class="edge">
<title>Node29&#45;&gt;Node32</title>
<path fill="none" stroke="#63b8ff" d="M532.85,-139.73C469.96,-137.51 341.21,-128.94 238,-96 233.15,-94.45 228.19,-92.29 223.53,-89.97"/>
<polygon fill="#63b8ff" stroke="#63b8ff" points="225.01,-86.79 214.55,-85.12 221.68,-92.95 225.01,-86.79"/>
</g>
<!-- Node33 -->
<g id="node33" class="node">
<title>Node33</title>
<g id="a_node33"><a xlink:title=" ">
<polygon fill="#e0e0e0" stroke="#999999" points="295,-85 247,-85 247,-66 295,-66 295,-85"/>
<text text-anchor="middle" x="271" y="-73" font-family="Helvetica,sans-Serif" font-size="10.00">gsl/gsl</text>
</a>
</g>
</g>
<!-- Node29&#45;&gt;Node33 -->
<g id="edge34" class="edge">
<title>Node29&#45;&gt;Node33</title>
<path fill="none" stroke="#63b8ff" d="M532.74,-138.54C479.87,-134.85 382.15,-124.48 304,-96 299.85,-94.49 295.63,-92.45 291.66,-90.26"/>
<polygon fill="#63b8ff" stroke="#63b8ff" points="293.37,-87.2 283,-85.05 289.76,-93.2 293.37,-87.2"/>
</g>
<!-- Node34 -->
<g id="node34" class="node">
<title>Node34</title>
<g id="a_node34"><a xlink:title=" ">
<polygon fill="#e0e0e0" stroke="#999999" points="361,-85 313,-85 313,-66 361,-66 361,-85"/>
<text text-anchor="middle" x="337" y="-73" font-family="Helvetica,sans-Serif" font-size="10.00">mutex</text>
</a>
</g>
</g>
<!-- Node29&#45;&gt;Node34 -->
<g id="edge35" class="edge">
<title>Node29&#45;&gt;Node34</title>
<path fill="none" stroke="#63b8ff" d="M532.91,-135.72C491.68,-129.72 424.52,-117.51 370,-96 366.07,-94.45 362.07,-92.47 358.26,-90.37"/>
<polygon fill="#63b8ff" stroke="#63b8ff" points="359.75,-87.19 349.37,-85.08 356.17,-93.2 359.75,-87.19"/>
</g>
<!-- Node35 -->
<g id="node35" class="node">
<title>Node35</title>
<g id="a_node35"><a xlink:title=" ">
<polygon fill="#e0e0e0" stroke="#999999" points="433,-85 379,-85 379,-66 433,-66 433,-85"/>
<text text-anchor="middle" x="406" y="-73" font-family="Helvetica,sans-Serif" font-size="10.00">random</text>
</a>
</g>
</g>
<!-- Node29&#45;&gt;Node35 -->
<g id="edge36" class="edge">
<title>Node29&#45;&gt;Node35</title>
<path fill="none" stroke="#63b8ff" d="M541.79,-131.93C515.3,-123.81 475.4,-110.69 442,-96 437.9,-94.2 433.64,-92.1 429.54,-89.96"/>
<polygon fill="#63b8ff" stroke="#63b8ff" points="430.9,-86.72 420.44,-85.03 427.56,-92.87 430.9,-86.72"/>
</g>
<!-- Node36 -->
<g id="node36" class="node">
<title>Node36</title>
<g id="a_node36"><a xlink:title=" ">
<polygon fill="#e0e0e0" stroke="#999999" points="971,-85 931,-85 931,-66 971,-66 971,-85"/>
<text text-anchor="middle" x="951" y="-73" font-family="Helvetica,sans-Serif" font-size="10.00">span</text>
</a>
</g>
</g>
<!-- Node29&#45;&gt;Node36 -->
<g id="edge37" class="edge">
<title>Node29&#45;&gt;Node36</title>
<path fill="none" stroke="#63b8ff" d="M609.01,-137.91C687.58,-132.19 865.28,-117.29 922,-96 925.46,-94.7 928.91,-92.92 932.16,-90.96"/>
<polygon fill="#63b8ff" stroke="#63b8ff" points="934.34,-93.71 940.65,-85.2 930.41,-87.92 934.34,-93.71"/>
</g>
<!-- Node37 -->
<g id="node37" class="node">
<title>Node37</title>
<g id="a_node37"><a xlink:title=" ">
<polygon fill="#e0e0e0" stroke="#999999" points="516.5,-85 451.5,-85 451.5,-66 516.5,-66 516.5,-85"/>
<text text-anchor="middle" x="484" y="-73" font-family="Helvetica,sans-Serif" font-size="10.00">stdexcept</text>
</a>
</g>
</g>
<!-- Node29&#45;&gt;Node37 -->
<g id="edge38" class="edge">
<title>Node29&#45;&gt;Node37</title>
<path fill="none" stroke="#63b8ff" d="M559.27,-131.87C545.13,-121.47 521.14,-103.82 504.05,-91.25"/>
<polygon fill="#63b8ff" stroke="#63b8ff" points="505.95,-88.31 495.83,-85.2 501.81,-93.94 505.95,-88.31"/>
</g>
<!-- Node38 -->
<g id="node38" class="node">
<title>Node38</title>
<g id="a_node38"><a xlink:title=" ">
<polygon fill="#e0e0e0" stroke="#999999" points="607,-85 535,-85 535,-66 607,-66 607,-85"/>
<text text-anchor="middle" x="571" y="-73" font-family="Helvetica,sans-Serif" font-size="10.00">date/date.h</text>
</a>
</g>
</g>
<!-- Node29&#45;&gt;Node38 -->
<g id="edge40" class="edge">
<title>Node29&#45;&gt;Node38</title>
<path fill="none" stroke="#63b8ff" d="M571,-131.87C571,-122.66 571,-107.79 571,-95.77"/>
<polygon fill="#63b8ff" stroke="#63b8ff" points="574.5,-95.41 571,-85.41 567.5,-95.41 574.5,-95.41"/>
</g>
<!-- Node39 -->
<g id="node39" class="node">
<title>Node39</title>
<g id="a_node39"><a xlink:title=" ">
<polygon fill="#e0e0e0" stroke="#999999" points="723,-85 625,-85 625,-66 723,-66 723,-85"/>
<text text-anchor="middle" x="674" y="-73" font-family="Helvetica,sans-Serif" font-size="10.00">pcg_random.hpp</text>
</a>
</g>
</g>
<!-- Node29&#45;&gt;Node39 -->
<g id="edge41" class="edge">
<title>Node29&#45;&gt;Node39</title>
<path fill="none" stroke="#63b8ff" d="M584.89,-131.87C601.94,-121.28 631.07,-103.17 651.37,-90.56"/>
<polygon fill="#63b8ff" stroke="#63b8ff" points="653.35,-93.45 660,-85.2 649.66,-87.5 653.35,-93.45"/>
</g>
<!-- Node40 -->
<g id="node40" class="node">
<title>Node40</title>
<g id="a_node40"><a xlink:title=" ">
<polygon fill="#e0e0e0" stroke="#999999" points="827,-85 741,-85 741,-66 827,-66 827,-85"/>
<text text-anchor="middle" x="784" y="-73" font-family="Helvetica,sans-Serif" font-size="10.00">fmt/ostream.h</text>
</a>
</g>
</g>
<!-- Node29&#45;&gt;Node40 -->
<g id="edge42" class="edge">
<title>Node29&#45;&gt;Node40</title>
<path fill="none" stroke="#63b8ff" d="M605.18,-132C637.96,-123.62 688.7,-110.07 732,-96 738.78,-93.8 745.97,-91.24 752.79,-88.72"/>
<polygon fill="#63b8ff" stroke="#63b8ff" points="754.27,-91.9 762.39,-85.09 751.8,-85.35 754.27,-91.9"/>
</g>
<!-- Node43&#45;&gt;Node21 -->
<g id="edge51" class="edge">
<title>Node43&#45;&gt;Node21</title>
<path fill="none" stroke="#63b8ff" d="M812.5,-302.43C839.61,-294.23 879.12,-280.25 910,-261 989.46,-211.47 1065.76,-128.04 1096.17,-92.89"/>
<polygon fill="#63b8ff" stroke="#63b8ff" points="1099.04,-94.92 1102.89,-85.05 1093.72,-90.37 1099.04,-94.92"/>
</g>
<!-- Node43&#45;&gt;Node25 -->
<g id="edge47" class="edge">
<title>Node43&#45;&gt;Node25</title>
<path fill="none" stroke="#63b8ff" d="M762.82,-302.49C741.99,-292.75 707.63,-276.66 683.52,-265.38"/>
<polygon fill="#63b8ff" stroke="#63b8ff" points="684.74,-262.09 674.2,-261.02 681.77,-268.43 684.74,-262.09"/>
</g>
<!-- Node43&#45;&gt;Node29 -->
<g id="edge52" class="edge">
<title>Node43&#45;&gt;Node29</title>
<path fill="none" stroke="#63b8ff" d="M773.51,-302.38C754.66,-280.99 703.06,-224.54 652,-187 635.51,-174.88 615.35,-163.79 599.27,-155.71"/>
<polygon fill="#63b8ff" stroke="#63b8ff" points="600.37,-152.36 589.85,-151.09 597.28,-158.64 600.37,-152.36"/>
</g>
<!-- Node43&#45;&gt;Node36 -->
<g id="edge50" class="edge">
<title>Node43&#45;&gt;Node36</title>
<path fill="none" stroke="#63b8ff" d="M776.11,-302.12C769.37,-288.6 759,-262.28 768,-242 785.4,-202.81 887.51,-123.69 931.19,-91.07"/>
<polygon fill="#63b8ff" stroke="#63b8ff" points="933.4,-93.79 939.34,-85.02 929.23,-88.17 933.4,-93.79"/>
</g>
<!-- Node43&#45;&gt;Node44 -->
<g id="edge46" class="edge">
<title>Node43&#45;&gt;Node44</title>
<path fill="none" stroke="#63b8ff" d="M809.65,-302.49C846.22,-291.63 909.28,-272.91 946.97,-261.71"/>
<polygon fill="#63b8ff" stroke="#63b8ff" points="948.29,-264.97 956.88,-258.77 946.3,-258.26 948.29,-264.97"/>
</g>
<!-- Node45 -->
<g id="node43" class="node">
<title>Node45</title>
<g id="a_node43"><a xlink:title=" ">
<polygon fill="#e0e0e0" stroke="#999999" points="827,-261 777,-261 777,-242 827,-242 827,-261"/>
<text text-anchor="middle" x="802" y="-249" font-family="Helvetica,sans-Serif" font-size="10.00">gsl/util</text>
</a>
</g>
</g>
<!-- Node43&#45;&gt;Node45 -->
<g id="edge48" class="edge">
<title>Node43&#45;&gt;Node45</title>
<path fill="none" stroke="#63b8ff" d="M784.1,-302.37C787.08,-294.07 791.67,-281.28 795.46,-270.72"/>
<polygon fill="#63b8ff" stroke="#63b8ff" points="798.8,-271.76 798.89,-261.17 792.22,-269.4 798.8,-271.76"/>
</g>
<!-- Node46 -->
<g id="node44" class="node">
<title>Node46</title>
<g id="a_node44"><a xlink:title=" ">
<polygon fill="#e0e0e0" stroke="#999999" points="901,-261 845,-261 845,-242 901,-242 901,-261"/>
<text text-anchor="middle" x="873" y="-249" font-family="Helvetica,sans-Serif" font-size="10.00">numeric</text>
</a>
</g>
</g>
<!-- Node43&#45;&gt;Node46 -->
<g id="edge49" class="edge">
<title>Node43&#45;&gt;Node46</title>
<path fill="none" stroke="#63b8ff" d="M794.57,-302.37C809.39,-292.95 833.33,-277.73 850.86,-266.58"/>
<polygon fill="#63b8ff" stroke="#63b8ff" points="852.81,-269.49 859.37,-261.17 849.05,-263.58 852.81,-269.49"/>
</g>
</g>
</svg>
