<?xml version="1.0" encoding="UTF-8" standalone="no"?>
<!DOCTYPE svg PUBLIC "-//W3C//DTD SVG 1.1//EN"
 "http://www.w3.org/Graphics/SVG/1.1/DTD/svg11.dtd">
<!-- Generated by graphviz version 2.40.1 (20161225.0304)
 -->
<!-- Title: include/Move_always.hpp Pages: 1 -->
<svg width="286pt" height="95pt"
 viewBox="0.00 0.00 286.00 95.00" xmlns="http://www.w3.org/2000/svg" xmlns:xlink="http://www.w3.org/1999/xlink">
<g id="graph0" class="graph" transform="scale(1 1) rotate(0) translate(4 91)">
<title>include/Move_always.hpp</title>
<polygon fill="#ffffff" stroke="transparent" points="-4,4 -4,-91 282,-91 282,4 -4,4"/>
<!-- Node44 -->
<g id="node1" class="node">
<title>Node44</title>
<polygon fill="#bfbfbf" stroke="#000000" points="65,-67.5 65,-86.5 207,-86.5 207,-67.5 65,-67.5"/>
<text text-anchor="middle" x="136" y="-74.5" font-family="Helvetica,sans-Serif" font-size="10.00" fill="#000000">include/Move_always.hpp</text>
</g>
<!-- Node45 -->
<g id="node2" class="node">
<title>Node45</title>
<g id="a_node2"><a xlink:href="_move__strategies__test_8cpp.html" target="_top" xlink:title="Tests for the Metropolis&#45;Hastings algorithm. ">
<polygon fill="#ffffff" stroke="#000000" points="0,-.5 0,-30.5 124,-30.5 124,-.5 0,-.5"/>
<text text-anchor="start" x="8" y="-18.5" font-family="Helvetica,sans-Serif" font-size="10.00" fill="#000000">tests/Move_strategies</text>
<text text-anchor="middle" x="62" y="-7.5" font-family="Helvetica,sans-Serif" font-size="10.00" fill="#000000">_test.cpp</text>
</a>
</g>
</g>
<!-- Node44&#45;&gt;Node45 -->
<g id="edge1" class="edge">
<title>Node44&#45;&gt;Node45</title>
<path fill="none" stroke="#191970" d="M116.4636,-60.7637C105.1943,-51.398 91.1204,-39.7014 80.1024,-30.5446"/>
<polygon fill="#191970" stroke="#191970" points="114.5097,-63.6907 124.4375,-67.3906 118.9838,-58.3072 114.5097,-63.6907"/>
</g>
<!-- Node46 -->
<g id="node3" class="node">
<title>Node46</title>
<g id="a_node3"><a xlink:href="_simulation_test_8cpp_source.html" target="_top" xlink:title="tests/SimulationTest.cpp">
<polygon fill="#ffffff" stroke="#000000" points="142,-6 142,-25 278,-25 278,-6 142,-6"/>
<text text-anchor="middle" x="210" y="-13" font-family="Helvetica,sans-Serif" font-size="10.00" fill="#000000">tests/SimulationTest.cpp</text>
</a>
</g>
</g>
<!-- Node44&#45;&gt;Node46 -->
<g id="edge2" class="edge">
<title>Node44&#45;&gt;Node46</title>
<path fill="none" stroke="#191970" d="M155.4094,-60.8692C169.0201,-49.5576 186.7698,-34.8062 198.2745,-25.2449"/>
<polygon fill="#191970" stroke="#191970" points="153.0162,-58.3072 147.5625,-67.3906 157.4903,-63.6907 153.0162,-58.3072"/>
</g>
</g>
</svg>
