<?xml version="1.0" encoding="UTF-8" standalone="no"?>
<!DOCTYPE svg PUBLIC "-//W3C//DTD SVG 1.1//EN"
 "http://www.w3.org/Graphics/SVG/1.1/DTD/svg11.dtd">
<!-- Generated by graphviz version 2.43.0 (0)
 -->
<!-- Title: include/Move_command.hpp Pages: 1 -->
<svg width="671pt" height="207pt"
 viewBox="0.00 0.00 670.50 207.00" xmlns="http://www.w3.org/2000/svg" xmlns:xlink="http://www.w3.org/1999/xlink">
<g id="graph0" class="graph" transform="scale(1 1) rotate(0) translate(4 203)">
<title>include/Move_command.hpp</title>
<polygon fill="white" stroke="transparent" points="-4,4 -4,-203 666.5,-203 666.5,4 -4,4"/>
<!-- Node1 -->
<g id="node1" class="node">
<title>Node1</title>
<g id="a_node1"><a xlink:title="Do ergodic moves using the Command pattern.">
<polygon fill="#bfbfbf" stroke="black" points="233,-179.5 233,-198.5 390,-198.5 390,-179.5 233,-179.5"/>
<text text-anchor="middle" x="311.5" y="-186.5" font-family="Helvetica,sans-Serif" font-size="10.00">include/Move_command.hpp</text>
</a>
</g>
</g>
<!-- Node2 -->
<g id="node2" class="node">
<title>Node2</title>
<g id="a_node2"><a xlink:href="_move__strategy_8hpp.html" target="_top" xlink:title="Template class for move algorithms (strategies) on manifolds.">
<polygon fill="white" stroke="black" points="161,-118 161,-137 308,-137 308,-118 161,-118"/>
<text text-anchor="middle" x="234.5" y="-125" font-family="Helvetica,sans-Serif" font-size="10.00">include/Move_strategy.hpp</text>
</a>
</g>
</g>
<!-- Node1&#45;&gt;Node2 -->
<g id="edge1" class="edge">
<title>Node1&#45;&gt;Node2</title>
<path fill="none" stroke="midnightblue" d="M292.47,-173.29C277.7,-161.88 257.74,-146.46 245.51,-137.01"/>
<polygon fill="midnightblue" stroke="midnightblue" points="290.41,-176.13 300.47,-179.48 294.69,-170.59 290.41,-176.13"/>
</g>
<!-- Node10 -->
<g id="node10" class="node">
<title>Node10</title>
<g id="a_node10"><a xlink:href="_move__command__test_8cpp.html" target="_top" xlink:title="Tests of MoveCommand, that is, that moves are handled properly.">
<polygon fill="white" stroke="black" points="326,-112.5 326,-142.5 451,-142.5 451,-112.5 326,-112.5"/>
<text text-anchor="start" x="334" y="-130.5" font-family="Helvetica,sans-Serif" font-size="10.00">tests/Move_command</text>
<text text-anchor="middle" x="388.5" y="-119.5" font-family="Helvetica,sans-Serif" font-size="10.00">_test.cpp</text>
</a>
</g>
</g>
<!-- Node1&#45;&gt;Node10 -->
<g id="edge9" class="edge">
<title>Node1&#45;&gt;Node10</title>
<path fill="none" stroke="midnightblue" d="M330.66,-173.2C342.8,-163.81 358.41,-151.75 370.35,-142.52"/>
<polygon fill="midnightblue" stroke="midnightblue" points="328.31,-170.59 322.53,-179.48 332.59,-176.13 328.31,-170.59"/>
</g>
<!-- Node3 -->
<g id="node3" class="node">
<title>Node3</title>
<g id="a_node3"><a xlink:href="_metropolis_8hpp.html" target="_top" xlink:title="Perform Metropolis&#45;Hastings algorithm on Delaunay Triangulations.">
<polygon fill="white" stroke="black" points="93.5,-56.5 93.5,-75.5 221.5,-75.5 221.5,-56.5 93.5,-56.5"/>
<text text-anchor="middle" x="157.5" y="-63.5" font-family="Helvetica,sans-Serif" font-size="10.00">include/Metropolis.hpp</text>
</a>
</g>
</g>
<!-- Node2&#45;&gt;Node3 -->
<g id="edge2" class="edge">
<title>Node2&#45;&gt;Node3</title>
<path fill="none" stroke="midnightblue" d="M215.47,-111.79C200.7,-100.38 180.74,-84.96 168.51,-75.51"/>
<polygon fill="midnightblue" stroke="midnightblue" points="213.41,-114.63 223.47,-117.98 217.69,-109.09 213.41,-114.63"/>
</g>
<!-- Node6 -->
<g id="node6" class="node">
<title>Node6</title>
<g id="a_node6"><a xlink:href="_move__always_8hpp.html" target="_top" xlink:title="Randomly selects moves to always perform on triangulations.">
<polygon fill="white" stroke="black" points="299,-56.5 299,-75.5 442,-75.5 442,-56.5 299,-56.5"/>
<text text-anchor="middle" x="370.5" y="-63.5" font-family="Helvetica,sans-Serif" font-size="10.00">include/Move_always.hpp</text>
</a>
</g>
</g>
<!-- Node2&#45;&gt;Node6 -->
<g id="edge5" class="edge">
<title>Node2&#45;&gt;Node6</title>
<path fill="none" stroke="midnightblue" d="M263.47,-113.83C289.87,-102.28 328.14,-85.53 351.05,-75.51"/>
<polygon fill="midnightblue" stroke="midnightblue" points="261.74,-110.76 253.99,-117.98 264.55,-117.17 261.74,-110.76"/>
</g>
<!-- Node4 -->
<g id="node4" class="node">
<title>Node4</title>
<g id="a_node4"><a xlink:href="cdt_8cpp.html" target="_top" xlink:title="The main executable.">
<polygon fill="white" stroke="black" points="0,-0.5 0,-19.5 69,-19.5 69,-0.5 0,-0.5"/>
<text text-anchor="middle" x="34.5" y="-7.5" font-family="Helvetica,sans-Serif" font-size="10.00">src/cdt.cpp</text>
</a>
</g>
</g>
<!-- Node3&#45;&gt;Node4 -->
<g id="edge3" class="edge">
<title>Node3&#45;&gt;Node4</title>
<path fill="none" stroke="midnightblue" d="M128.73,-52.37C105.69,-42.26 74.02,-28.35 53.9,-19.52"/>
<polygon fill="midnightblue" stroke="midnightblue" points="127.45,-55.63 138.01,-56.44 130.26,-49.22 127.45,-55.63"/>
</g>
<!-- Node5 -->
<g id="node5" class="node">
<title>Node5</title>
<g id="a_node5"><a xlink:href="_metropolis__test_8cpp.html" target="_top" xlink:title="Tests for the Metropolis&#45;Hastings algorithm.">
<polygon fill="white" stroke="black" points="87.5,-0.5 87.5,-19.5 227.5,-19.5 227.5,-0.5 87.5,-0.5"/>
<text text-anchor="middle" x="157.5" y="-7.5" font-family="Helvetica,sans-Serif" font-size="10.00">tests/Metropolis_test.cpp</text>
</a>
</g>
</g>
<!-- Node3&#45;&gt;Node5 -->
<g id="edge4" class="edge">
<title>Node3&#45;&gt;Node5</title>
<path fill="none" stroke="midnightblue" d="M157.5,-45.8C157.5,-36.91 157.5,-26.78 157.5,-19.75"/>
<polygon fill="midnightblue" stroke="midnightblue" points="154,-46.08 157.5,-56.08 161,-46.08 154,-46.08"/>
</g>
<!-- Node7 -->
<g id="node7" class="node">
<title>Node7</title>
<g id="a_node7"><a xlink:href="cdt-opt_8cpp.html" target="_top" xlink:title="Outputs values to determine optimizations.">
<polygon fill="white" stroke="black" points="246,-0.5 246,-19.5 335,-19.5 335,-0.5 246,-0.5"/>
<text text-anchor="middle" x="290.5" y="-7.5" font-family="Helvetica,sans-Serif" font-size="10.00">src/cdt&#45;opt.cpp</text>
</a>
</g>
</g>
<!-- Node6&#45;&gt;Node7 -->
<g id="edge6" class="edge">
<title>Node6&#45;&gt;Node7</title>
<path fill="none" stroke="midnightblue" d="M349.2,-50.62C334.58,-40.76 315.67,-27.99 303.32,-19.65"/>
<polygon fill="midnightblue" stroke="midnightblue" points="347.4,-53.63 357.65,-56.32 351.32,-47.83 347.4,-53.63"/>
</g>
<!-- Node8 -->
<g id="node8" class="node">
<title>Node8</title>
<g id="a_node8"><a xlink:href="_move__always__test_8cpp_source.html" target="_top" xlink:title=" ">
<polygon fill="white" stroke="black" points="353,-0.5 353,-19.5 508,-19.5 508,-0.5 353,-0.5"/>
<text text-anchor="middle" x="430.5" y="-7.5" font-family="Helvetica,sans-Serif" font-size="10.00">tests/Move_always_test.cpp</text>
</a>
</g>
</g>
<!-- Node6&#45;&gt;Node8 -->
<g id="edge7" class="edge">
<title>Node6&#45;&gt;Node8</title>
<path fill="none" stroke="midnightblue" d="M387.68,-49.54C398.38,-39.91 411.76,-27.87 420.68,-19.83"/>
<polygon fill="midnightblue" stroke="midnightblue" points="385.23,-47.03 380.14,-56.32 389.91,-52.24 385.23,-47.03"/>
</g>
<!-- Node9 -->
<g id="node9" class="node">
<title>Node9</title>
<g id="a_node9"><a xlink:href="_simulation_test_8cpp_source.html" target="_top" xlink:title=" ">
<polygon fill="white" stroke="black" points="526.5,-0.5 526.5,-19.5 662.5,-19.5 662.5,-0.5 526.5,-0.5"/>
<text text-anchor="middle" x="594.5" y="-7.5" font-family="Helvetica,sans-Serif" font-size="10.00">tests/SimulationTest.cpp</text>
</a>
</g>
</g>
<!-- Node6&#45;&gt;Node9 -->
<g id="edge8" class="edge">
<title>Node6&#45;&gt;Node9</title>
<path fill="none" stroke="midnightblue" d="M415.76,-54.09C458.08,-43.89 520.41,-28.86 559.17,-19.52"/>
<polygon fill="midnightblue" stroke="midnightblue" points="414.89,-50.7 405.99,-56.44 416.54,-57.5 414.89,-50.7"/>
</g>
</g>
</svg>
