<?xml version="1.0" encoding="UTF-8" standalone="no"?>
<!DOCTYPE svg PUBLIC "-//W3C//DTD SVG 1.1//EN"
 "http://www.w3.org/Graphics/SVG/1.1/DTD/svg11.dtd">
<!-- Generated by graphviz version 15.1.0 (20260618.0150)
 -->
<!-- Title: include/Move_tracker.hpp Pages: 1 -->
<svg width="335pt" height="269pt"
 viewBox="0.00 0.00 335.00 269.00" xmlns="http://www.w3.org/2000/svg" xmlns:xlink="http://www.w3.org/1999/xlink">
<g id="graph0" class="graph" transform="scale(1 1) rotate(0) translate(4 264.5)">
<title>include/Move_tracker.hpp</title>
<!-- Node1 -->
<g id="Node000001" class="node">
<title>Node1</title>
<g id="a_Node000001"><a xlink:title="Track ergodic moves.">
<polygon fill="#999999" stroke="#666666" points="232.38,-260.5 91.88,-260.5 91.88,-239.75 232.38,-239.75 232.38,-260.5"/>
<text xml:space="preserve" text-anchor="middle" x="162.12" y="-247" font-family="Helvetica,sans-Serif" font-size="10.00">include/Move_tracker.hpp</text>
</a>
</g>
</g>
<!-- Node2 -->
<g id="Node000002" class="node">
<title>Node2</title>
<g id="a_Node000002"><a xlink:href="_ergodic__moves__3_8hpp.html" target="_top" xlink:title="Pachner moves on 2+1 dimensional foliated Delaunay triangulations.">
<polygon fill="white" stroke="#666666" points="150.38,-147 21.88,-147 21.88,-113.5 150.38,-113.5 150.38,-147"/>
<text xml:space="preserve" text-anchor="start" x="29.88" y="-133.5" font-family="Helvetica,sans-Serif" font-size="10.00">include/Ergodic_moves</text>
<text xml:space="preserve" text-anchor="middle" x="86.12" y="-120.75" font-family="Helvetica,sans-Serif" font-size="10.00">_3.hpp</text>
</a>
</g>
</g>
<!-- Node1&#45;&gt;Node2 -->
<g id="edge1_Node000001_Node000002" class="edge">
<title>Node1&#45;&gt;Node2</title>
<g id="a_edge1_Node000001_Node000002"><a xlink:title=" ">
<path fill="none" stroke="#63b8ff" d="M115.57,-234.76C100.99,-227.82 86.53,-217.84 78.12,-203.75 67.88,-186.57 73.33,-162.98 79,-147.43"/>
<polygon fill="#63b8ff" stroke="#63b8ff" points="114.16,-237.96 124.73,-238.69 116.92,-231.53 114.16,-237.96"/>
</a>
</g>
</g>
<!-- Node7 -->
<g id="Node000007" class="node">
<title>Node7</title>
<g id="a_Node000007"><a xlink:href="_move__outcome_8hpp.html" target="_top" xlink:title="Structured Pachner&#45;move failures and transition outcomes.">
<polygon fill="white" stroke="#666666" points="237.25,-203.75 87,-203.75 87,-183 237.25,-183 237.25,-203.75"/>
<text xml:space="preserve" text-anchor="middle" x="162.12" y="-190.25" font-family="Helvetica,sans-Serif" font-size="10.00">include/Move_outcome.hpp</text>
</a>
</g>
</g>
<!-- Node1&#45;&gt;Node7 -->
<g id="edge6_Node000001_Node000007" class="edge">
<title>Node1&#45;&gt;Node7</title>
<g id="a_edge6_Node000001_Node000007"><a xlink:title=" ">
<path fill="none" stroke="#63b8ff" d="M162.12,-227.88C162.12,-219.66 162.12,-210.68 162.12,-204.08"/>
<polygon fill="#63b8ff" stroke="#63b8ff" points="158.63,-227.82 162.13,-237.82 165.63,-227.82 158.63,-227.82"/>
</a>
</g>
</g>
<!-- Node8 -->
<g id="Node000008" class="node">
<title>Node8</title>
<g id="a_Node000008"><a xlink:href="_move__run_8hpp.html" target="_top" xlink:title="Shared value&#45;oriented orchestration for ergodic&#45;move strategies.">
<polygon fill="white" stroke="#666666" points="326.75,-140.62 203.5,-140.62 203.5,-119.88 326.75,-119.88 326.75,-140.62"/>
<text xml:space="preserve" text-anchor="middle" x="265.12" y="-127.12" font-family="Helvetica,sans-Serif" font-size="10.00">include/Move_run.hpp</text>
</a>
</g>
</g>
<!-- Node1&#45;&gt;Node8 -->
<g id="edge8_Node000001_Node000008" class="edge">
<title>Node1&#45;&gt;Node8</title>
<g id="a_edge8_Node000001_Node000008"><a xlink:title=" ">
<path fill="none" stroke="#63b8ff" d="M203.83,-234.8C219.12,-227.65 235.31,-217.52 246.12,-203.75 260.84,-185.03 264.22,-156.02 264.96,-141.01"/>
<polygon fill="#63b8ff" stroke="#63b8ff" points="202.64,-231.5 194.86,-238.68 205.42,-237.92 202.64,-231.5"/>
</a>
</g>
</g>
<!-- Node3 -->
<g id="Node000003" class="node">
<title>Node3</title>
<g id="a_Node000003"><a xlink:href="_metropolis_8hpp.html" target="_top" xlink:title="Perform Metropolis&#45;Hastings algorithm on Delaunay Triangulations.">
<polygon fill="white" stroke="#666666" points="301.62,-77.5 174.62,-77.5 174.62,-56.75 301.62,-56.75 301.62,-77.5"/>
<text xml:space="preserve" text-anchor="middle" x="238.12" y="-64" font-family="Helvetica,sans-Serif" font-size="10.00">include/Metropolis.hpp</text>
</a>
</g>
</g>
<!-- Node2&#45;&gt;Node3 -->
<g id="edge2_Node000002_Node000003" class="edge">
<title>Node2&#45;&gt;Node3</title>
<g id="a_edge2_Node000002_Node000003"><a xlink:title=" ">
<path fill="none" stroke="#63b8ff" d="M136.88,-108.84C162.79,-98.42 193.12,-86.22 213.78,-77.92"/>
<polygon fill="#63b8ff" stroke="#63b8ff" points="135.84,-105.49 127.86,-112.47 138.45,-111.98 135.84,-105.49"/>
</a>
</g>
</g>
<!-- Node5 -->
<g id="Node000005" class="node">
<title>Node5</title>
<g id="a_Node000005"><a xlink:href="_move__command_8hpp.html" target="_top" xlink:title="Do ergodic moves using the Command pattern.">
<polygon fill="white" stroke="#666666" points="156.25,-77.5 0,-77.5 0,-56.75 156.25,-56.75 156.25,-77.5"/>
<text xml:space="preserve" text-anchor="middle" x="78.12" y="-64" font-family="Helvetica,sans-Serif" font-size="10.00">include/Move_command.hpp</text>
</a>
</g>
</g>
<!-- Node2&#45;&gt;Node5 -->
<g id="edge4_Node000002_Node000005" class="edge">
<title>Node2&#45;&gt;Node5</title>
<g id="a_edge4_Node000002_Node000005"><a xlink:title=" ">
<path fill="none" stroke="#63b8ff" d="M82.56,-101.98C81.43,-93.41 80.27,-84.5 79.41,-77.97"/>
<polygon fill="#63b8ff" stroke="#63b8ff" points="79.06,-102.23 83.83,-111.69 86,-101.32 79.06,-102.23"/>
</a>
</g>
</g>
<!-- Node4 -->
<g id="Node000004" class="node">
<title>Node4</title>
<g id="a_Node000004"><a xlink:href="cdt_8cpp.html" target="_top" xlink:title="The main executable.">
<polygon fill="white" stroke="#666666" points="272.38,-20.75 203.88,-20.75 203.88,0 272.38,0 272.38,-20.75"/>
<text xml:space="preserve" text-anchor="middle" x="238.12" y="-7.25" font-family="Helvetica,sans-Serif" font-size="10.00">src/cdt.cpp</text>
</a>
</g>
</g>
<!-- Node3&#45;&gt;Node4 -->
<g id="edge3_Node000003_Node000004" class="edge">
<title>Node3&#45;&gt;Node4</title>
<g id="a_edge3_Node000003_Node000004"><a xlink:title=" ">
<path fill="none" stroke="#63b8ff" d="M238.12,-44.88C238.12,-36.66 238.12,-27.68 238.12,-21.08"/>
<polygon fill="#63b8ff" stroke="#63b8ff" points="234.63,-44.82 238.13,-54.82 241.63,-44.82 234.63,-44.82"/>
</a>
</g>
</g>
<!-- Node6 -->
<g id="Node000006" class="node">
<title>Node6</title>
<g id="a_Node000006"><a xlink:href="_move__always_8hpp.html" target="_top" xlink:title="Randomly selects moves to always perform on triangulations.">
<polygon fill="white" stroke="#666666" points="168.12,-20.75 26.12,-20.75 26.12,0 168.12,0 168.12,-20.75"/>
<text xml:space="preserve" text-anchor="middle" x="97.12" y="-7.25" font-family="Helvetica,sans-Serif" font-size="10.00">include/Move_always.hpp</text>
</a>
</g>
</g>
<!-- Node5&#45;&gt;Node6 -->
<g id="edge5_Node000005_Node000006" class="edge">
<title>Node5&#45;&gt;Node6</title>
<g id="a_edge5_Node000005_Node000006"><a xlink:title=" ">
<path fill="none" stroke="#63b8ff" d="M85.2,-45.74C88.13,-37.3 91.39,-27.91 93.76,-21.08"/>
<polygon fill="#63b8ff" stroke="#63b8ff" points="81.99,-44.31 82.02,-54.91 88.6,-46.61 81.99,-44.31"/>
</a>
</g>
</g>
<!-- Node7&#45;&gt;Node2 -->
<g id="edge7_Node000007_Node000002" class="edge">
<title>Node7&#45;&gt;Node2</title>
<g id="a_edge7_Node000007_Node000002"><a xlink:title=" ">
<path fill="none" stroke="#63b8ff" d="M141.09,-175.46C130.23,-166.72 117.04,-156.12 106.31,-147.48"/>
<polygon fill="#63b8ff" stroke="#63b8ff" points="138.75,-178.07 148.73,-181.61 143.14,-172.61 138.75,-178.07"/>
</a>
</g>
</g>
<!-- Node8&#45;&gt;Node3 -->
<g id="edge9_Node000008_Node000003" class="edge">
<title>Node8&#45;&gt;Node3</title>
<g id="a_edge9_Node000008_Node000003"><a xlink:title=" ">
<path fill="none" stroke="#63b8ff" d="M256.18,-109C251.53,-98.46 246.05,-86.07 242.36,-77.72"/>
<polygon fill="#63b8ff" stroke="#63b8ff" points="252.93,-110.31 260.18,-118.04 259.34,-107.48 252.93,-110.31"/>
</a>
</g>
</g>
<!-- Node8&#45;&gt;Node6 -->
<g id="edge10_Node000008_Node000006" class="edge">
<title>Node8&#45;&gt;Node6</title>
<g id="a_edge10_Node000008_Node000006"><a xlink:title=" ">
<path fill="none" stroke="#63b8ff" d="M287.86,-112.59C305.82,-97.4 325.64,-74.67 311.12,-56.75 301.73,-45.15 223.13,-30.68 163.89,-21.24"/>
<polygon fill="#63b8ff" stroke="#63b8ff" points="286.16,-109.47 280.53,-118.44 290.53,-114.94 286.16,-109.47"/>
</a>
</g>
</g>
</g>
</svg>
