<?xml version="1.0" encoding="UTF-8" standalone="no"?>
<!DOCTYPE svg PUBLIC "-//W3C//DTD SVG 1.1//EN"
 "http://www.w3.org/Graphics/SVG/1.1/DTD/svg11.dtd">
<!-- Generated by graphviz version 2.43.0 (0)
 -->
<!-- Title: include/Move_command.hpp Pages: 1 -->
<!--zoomable 445 -->
<svg id="main" version="1.1" xmlns="http://www.w3.org/2000/svg" xmlns:xlink="http://www.w3.org/1999/xlink" xml:space="preserve" onload="init(evt)">
<style type="text/css"><![CDATA[
.edge:hover path { stroke: red; }
.edge:hover polygon { stroke: red; fill: red; }
]]></style>
<script type="text/javascript"><![CDATA[
var edges = document.getElementsByTagName('g');
if (edges && edges.length) {
  for (var i=0;i<edges.length;i++) {
    if (edges[i].id.substr(0,4)=='edge') {
      edges[i].setAttribute('class','edge');
    }
  }
}
]]></script>
        <defs>
                <circle id="rim" cx="0" cy="0" r="7"/>
                <circle id="rim2" cx="0" cy="0" r="3.5"/>
                <g id="zoomPlus">
                        <use xlink:href="#rim" fill="#404040">
                                <set attributeName="fill" to="#808080" begin="zoomplus.mouseover" end="zoomplus.mouseout"/>
                        </use>
                        <path d="M-4,0h8M0,-4v8" fill="none" stroke="white" stroke-width="1.5" pointer-events="none"/>
                </g>
                <g id="zoomMin">
                        <use xlink:href="#rim" fill="#404040">
                                <set attributeName="fill" to="#808080" begin="zoomminus.mouseover" end="zoomminus.mouseout"/>
                        </use>
                        <path d="M-4,0h8" fill="none" stroke="white" stroke-width="1.5" pointer-events="none"/>
                </g>
                <g id="dirArrow">
                        <path fill="none" stroke="white" stroke-width="1.5" d="M0,-3.0v7 M-2.5,-0.5L0,-3.0L2.5,-0.5"/>
                </g>
               <g id="resetDef">
                       <use xlink:href="#rim2" fill="#404040">
                               <set attributeName="fill" to="#808080" begin="reset.mouseover" end="reset.mouseout"/>
                       </use>
               </g>
        </defs>

<script type="text/javascript">
var viewWidth = 2250;
var viewHeight = 445;
var sectionId = 'dynsection-0';
</script>
<script xlink:href="svgpan.js"/>
<svg id="graph" class="graph">
<g id="viewport">
<title>include/Move_command.hpp</title>
<!-- Node1 -->
<g id="node1" class="node">
<title>Node1</title>
<g id="a_node1"><a xlink:title="Do ergodic moves using the Command pattern.">
<polygon fill="#999999" stroke="#666666" points="1128,-437 971,-437 971,-418 1128,-418 1128,-437"/>
<text text-anchor="middle" x="1049.5" y="-425" font-family="Helvetica,sans-Serif" font-size="10.00">include/Move_command.hpp</text>
</a>
</g>
</g>
<!-- Node2 -->
<g id="node2" class="node">
<title>Node2</title>
<g id="a_node2"><a xlink:href="_apply__move_8hpp.html" target="_top" xlink:title="Apply Pachner moves to foliated Delaunay triangulations.">
<polygon fill="white" stroke="#666666" points="953.5,-382 855.5,-382 855.5,-363 953.5,-363 953.5,-382"/>
<text text-anchor="middle" x="904.5" y="-370" font-family="Helvetica,sans-Serif" font-size="10.00">Apply_move.hpp</text>
</a>
</g>
</g>
<!-- Node1&#45;&gt;Node2 -->
<g id="edge1" class="edge">
<title>Node1&#45;&gt;Node2</title>
<path fill="none" stroke="#63b8ff" d="M1026.2,-417.98C1002.25,-409.23 964.72,-395.51 937.67,-385.62"/>
<polygon fill="#63b8ff" stroke="#63b8ff" points="938.81,-382.32 928.22,-382.17 936.41,-388.89 938.81,-382.32"/>
</g>
<!-- Node9 -->
<g id="node9" class="node">
<title>Node9</title>
<g id="a_node9"><a xlink:href="_ergodic__moves__3_8hpp.html" target="_top" xlink:title="Pachner moves on 2+1 dimensional foliated Delaunay triangulations.">
<polygon fill="white" stroke="#666666" points="1257,-382 1134,-382 1134,-363 1257,-363 1257,-382"/>
<text text-anchor="middle" x="1195.5" y="-370" font-family="Helvetica,sans-Serif" font-size="10.00">Ergodic_moves_3.hpp</text>
</a>
</g>
</g>
<!-- Node1&#45;&gt;Node9 -->
<g id="edge8" class="edge">
<title>Node1&#45;&gt;Node9</title>
<path fill="none" stroke="#63b8ff" d="M1072.96,-417.98C1097.08,-409.23 1134.87,-395.51 1162.1,-385.62"/>
<polygon fill="#63b8ff" stroke="#63b8ff" points="1163.41,-388.87 1171.62,-382.17 1161.02,-382.29 1163.41,-388.87"/>
</g>
<!-- Node3 -->
<g id="node3" class="node">
<title>Node3</title>
<g id="a_node3"><a xlink:title=" ">
<polygon fill="#e0e0e0" stroke="#999999" points="1089,-85 996,-85 996,-66 1089,-66 1089,-85"/>
<text text-anchor="middle" x="1042.5" y="-73" font-family="Helvetica,sans-Serif" font-size="10.00">spdlog/spdlog.h</text>
</a>
</g>
</g>
<!-- Node2&#45;&gt;Node3 -->
<g id="edge2" class="edge">
<title>Node2&#45;&gt;Node3</title>
<path fill="none" stroke="#63b8ff" d="M881.73,-362.89C865.65,-355.67 844.85,-343.82 832.5,-327 812.27,-299.46 813.5,-286.67 813.5,-252.5 813.5,-252.5 813.5,-252.5 813.5,-195.5 813.5,-173.38 949.71,-114.6 1012.03,-88.86"/>
<polygon fill="#63b8ff" stroke="#63b8ff" points="1013.45,-92.06 1021.37,-85.02 1010.79,-85.59 1013.45,-92.06"/>
</g>
<!-- Node4 -->
<g id="node4" class="node">
<title>Node4</title>
<g id="a_node4"><a xlink:title=" ">
<polygon fill="#e0e0e0" stroke="#999999" points="967.5,-327 841.5,-327 841.5,-297 967.5,-297 967.5,-327"/>
<text text-anchor="start" x="849.5" y="-315" font-family="Helvetica,sans-Serif" font-size="10.00">boost/compat/function</text>
<text text-anchor="middle" x="904.5" y="-304" font-family="Helvetica,sans-Serif" font-size="10.00">_ref.hpp</text>
</a>
</g>
</g>
<!-- Node2&#45;&gt;Node4 -->
<g id="edge3" class="edge">
<title>Node2&#45;&gt;Node4</title>
<path fill="none" stroke="#63b8ff" d="M904.5,-362.87C904.5,-356.11 904.5,-346.35 904.5,-337.26"/>
<polygon fill="#63b8ff" stroke="#63b8ff" points="908,-337.11 904.5,-327.11 901,-337.11 908,-337.11"/>
</g>
<!-- Node5 -->
<g id="node5" class="node">
<title>Node5</title>
<g id="a_node5"><a xlink:title=" ">
<polygon fill="#e0e0e0" stroke="#999999" points="1131.5,-321.5 1069.5,-321.5 1069.5,-302.5 1131.5,-302.5 1131.5,-321.5"/>
<text text-anchor="middle" x="1100.5" y="-309.5" font-family="Helvetica,sans-Serif" font-size="10.00">expected</text>
</a>
</g>
</g>
<!-- Node2&#45;&gt;Node5 -->
<g id="edge4" class="edge">
<title>Node2&#45;&gt;Node5</title>
<path fill="none" stroke="#63b8ff" d="M936.1,-362.92C967.52,-354.27 1017.03,-340.34 1059.5,-327 1061.66,-326.32 1063.87,-325.61 1066.1,-324.88"/>
<polygon fill="#63b8ff" stroke="#63b8ff" points="1067.47,-328.12 1075.85,-321.64 1065.26,-321.48 1067.47,-328.12"/>
</g>
<!-- Node6 -->
<g id="node6" class="node">
<title>Node6</title>
<g id="a_node6"><a xlink:title=" ">
<polygon fill="#e0e0e0" stroke="#999999" points="1051,-321.5 986,-321.5 986,-302.5 1051,-302.5 1051,-321.5"/>
<text text-anchor="middle" x="1018.5" y="-309.5" font-family="Helvetica,sans-Serif" font-size="10.00">functional</text>
</a>
</g>
</g>
<!-- Node2&#45;&gt;Node6 -->
<g id="edge5" class="edge">
<title>Node2&#45;&gt;Node6</title>
<path fill="none" stroke="#63b8ff" d="M921.32,-362.87C940.1,-353.23 970.7,-337.53 992.55,-326.31"/>
<polygon fill="#63b8ff" stroke="#63b8ff" points="994.31,-329.35 1001.61,-321.67 991.11,-323.12 994.31,-329.35"/>
</g>
<!-- Node7 -->
<g id="node7" class="node">
<title>Node7</title>
<g id="a_node7"><a xlink:title=" ">
<polygon fill="#e0e0e0" stroke="#999999" points="367.5,-85 323.5,-85 323.5,-66 367.5,-66 367.5,-85"/>
<text text-anchor="middle" x="345.5" y="-73" font-family="Helvetica,sans-Serif" font-size="10.00">string</text>
</a>
</g>
</g>
<!-- Node2&#45;&gt;Node7 -->
<g id="edge6" class="edge">
<title>Node2&#45;&gt;Node7</title>
<path fill="none" stroke="#63b8ff" d="M855.42,-367.2C749.2,-356.53 507.5,-324.36 507.5,-252.5 507.5,-252.5 507.5,-252.5 507.5,-195.5 507.5,-186.87 410.67,-120.45 366.73,-90.76"/>
<polygon fill="#63b8ff" stroke="#63b8ff" points="368.46,-87.71 358.21,-85.02 364.55,-93.51 368.46,-87.71"/>
</g>
<!-- Node8 -->
<g id="node8" class="node">
<title>Node8</title>
<g id="a_node8"><a xlink:title=" ">
<polygon fill="#e0e0e0" stroke="#999999" points="785,-321.5 740,-321.5 740,-302.5 785,-302.5 785,-321.5"/>
<text text-anchor="middle" x="762.5" y="-309.5" font-family="Helvetica,sans-Serif" font-size="10.00">utility</text>
</a>
</g>
</g>
<!-- Node2&#45;&gt;Node8 -->
<g id="edge7" class="edge">
<title>Node2&#45;&gt;Node8</title>
<path fill="none" stroke="#63b8ff" d="M883.85,-362.99C859.87,-353.12 820.11,-336.73 792.67,-325.43"/>
<polygon fill="#63b8ff" stroke="#63b8ff" points="793.75,-322.09 783.17,-321.52 791.09,-328.56 793.75,-322.09"/>
</g>
<!-- Node9&#45;&gt;Node5 -->
<g id="edge9" class="edge">
<title>Node9&#45;&gt;Node5</title>
<path fill="none" stroke="#63b8ff" d="M1181.48,-362.87C1166.19,-353.45 1141.47,-338.23 1123.36,-327.08"/>
<polygon fill="#63b8ff" stroke="#63b8ff" points="1124.93,-323.93 1114.58,-321.67 1121.25,-329.89 1124.93,-323.93"/>
</g>
<!-- Node10 -->
<g id="node10" class="node">
<title>Node10</title>
<g id="a_node10"><a xlink:href="_formatters_8hpp.html" target="_top" xlink:title="Formatter specializations for various types.">
<polygon fill="white" stroke="#666666" points="1241,-321.5 1150,-321.5 1150,-302.5 1241,-302.5 1241,-321.5"/>
<text text-anchor="middle" x="1195.5" y="-309.5" font-family="Helvetica,sans-Serif" font-size="10.00">Formatters.hpp</text>
</a>
</g>
</g>
<!-- Node9&#45;&gt;Node10 -->
<g id="edge10" class="edge">
<title>Node9&#45;&gt;Node10</title>
<path fill="none" stroke="#63b8ff" d="M1195.5,-362.87C1195.5,-354.75 1195.5,-342.31 1195.5,-331.89"/>
<polygon fill="#63b8ff" stroke="#63b8ff" points="1199,-331.67 1195.5,-321.67 1192,-331.67 1199,-331.67"/>
</g>
<!-- Node23 -->
<g id="node23" class="node">
<title>Node23</title>
<g id="a_node23"><a xlink:href="_manifold_8hpp.html" target="_top" xlink:title="Data structures for manifolds.">
<polygon fill="white" stroke="#666666" points="1369.5,-321.5 1289.5,-321.5 1289.5,-302.5 1369.5,-302.5 1369.5,-321.5"/>
<text text-anchor="middle" x="1329.5" y="-309.5" font-family="Helvetica,sans-Serif" font-size="10.00">Manifold.hpp</text>
</a>
</g>
</g>
<!-- Node9&#45;&gt;Node23 -->
<g id="edge23" class="edge">
<title>Node9&#45;&gt;Node23</title>
<path fill="none" stroke="#63b8ff" d="M1214.98,-362.99C1237.51,-353.16 1274.81,-336.88 1300.69,-325.58"/>
<polygon fill="#63b8ff" stroke="#63b8ff" points="1302.23,-328.73 1309.99,-321.52 1299.43,-322.31 1302.23,-328.73"/>
</g>
<!-- Node42 -->
<g id="node42" class="node">
<title>Node42</title>
<g id="a_node42"><a xlink:href="_move__tracker_8hpp.html" target="_top" xlink:title="Track ergodic moves.">
<polygon fill="white" stroke="#666666" points="1635,-206 1532,-206 1532,-187 1635,-187 1635,-206"/>
<text text-anchor="middle" x="1583.5" y="-194" font-family="Helvetica,sans-Serif" font-size="10.00">Move_tracker.hpp</text>
</a>
</g>
</g>
<!-- Node9&#45;&gt;Node42 -->
<g id="edge46" class="edge">
<title>Node9&#45;&gt;Node42</title>
<path fill="none" stroke="#63b8ff" d="M1242.56,-362.94C1280.01,-355.44 1333.42,-343.21 1378.5,-327 1441.72,-304.27 1458.97,-298.82 1514.5,-261 1534.97,-247.06 1555.48,-227.26 1568.75,-213.49"/>
<polygon fill="#63b8ff" stroke="#63b8ff" points="1571.35,-215.84 1575.68,-206.17 1566.26,-211.03 1571.35,-215.84"/>
</g>
<!-- Node11 -->
<g id="node11" class="node">
<title>Node11</title>
<g id="a_node11"><a xlink:title=" ">
<polygon fill="#e0e0e0" stroke="#999999" points="1259,-261 1192,-261 1192,-242 1259,-242 1259,-261"/>
<text text-anchor="middle" x="1225.5" y="-249" font-family="Helvetica,sans-Serif" font-size="10.00">fmt/core.h</text>
</a>
</g>
</g>
<!-- Node10&#45;&gt;Node11 -->
<g id="edge11" class="edge">
<title>Node10&#45;&gt;Node11</title>
<path fill="none" stroke="#63b8ff" d="M1199.93,-302.37C1204.27,-293.9 1211.02,-280.74 1216.49,-270.07"/>
<polygon fill="#63b8ff" stroke="#63b8ff" points="1219.61,-271.66 1221.06,-261.17 1213.38,-268.47 1219.61,-271.66"/>
</g>
<!-- Node12 -->
<g id="node12" class="node">
<title>Node12</title>
<g id="a_node12"><a xlink:title=" ">
<polygon fill="#e0e0e0" stroke="#999999" points="1062,-261 983,-261 983,-242 1062,-242 1062,-261"/>
<text text-anchor="middle" x="1022.5" y="-249" font-family="Helvetica,sans-Serif" font-size="10.00">fmt/format.h</text>
</a>
</g>
</g>
<!-- Node10&#45;&gt;Node12 -->
<g id="edge12" class="edge">
<title>Node10&#45;&gt;Node12</title>
<path fill="none" stroke="#63b8ff" d="M1170.34,-302.49C1140.62,-292.44 1090.98,-275.66 1057.51,-264.34"/>
<polygon fill="#63b8ff" stroke="#63b8ff" points="1058.28,-260.9 1047.69,-261.02 1056.04,-267.54 1058.28,-260.9"/>
</g>
<!-- Node13 -->
<g id="node13" class="node">
<title>Node13</title>
<g id="a_node13"><a xlink:title=" ">
<polygon fill="#e0e0e0" stroke="#999999" points="1135.5,-261 1079.5,-261 1079.5,-242 1135.5,-242 1135.5,-261"/>
<text text-anchor="middle" x="1107.5" y="-249" font-family="Helvetica,sans-Serif" font-size="10.00">sstream</text>
</a>
</g>
</g>
<!-- Node10&#45;&gt;Node13 -->
<g id="edge13" class="edge">
<title>Node10&#45;&gt;Node13</title>
<path fill="none" stroke="#63b8ff" d="M1182.52,-302.37C1168.48,-293.04 1145.87,-278.01 1129.14,-266.88"/>
<polygon fill="#63b8ff" stroke="#63b8ff" points="1130.8,-263.79 1120.54,-261.17 1126.93,-269.62 1130.8,-263.79"/>
</g>
<!-- Node14 -->
<g id="node14" class="node">
<title>Node14</title>
<g id="a_node14"><a xlink:href="_triangulation__traits_8hpp.html" target="_top" xlink:title="Traits class for particular uses of CGAL.">
<polygon fill="white" stroke="#666666" points="770,-151 639,-151 639,-132 770,-132 770,-151"/>
<text text-anchor="middle" x="704.5" y="-139" font-family="Helvetica,sans-Serif" font-size="10.00">Triangulation_traits.hpp</text>
</a>
</g>
</g>
<!-- Node10&#45;&gt;Node14 -->
<g id="edge14" class="edge">
<title>Node10&#45;&gt;Node14</title>
<path fill="none" stroke="#63b8ff" d="M1191.58,-302.22C1184.46,-287.34 1167.95,-257.31 1144.5,-242 1032.14,-168.65 873.1,-148.91 780.19,-143.88"/>
<polygon fill="#63b8ff" stroke="#63b8ff" points="780.19,-140.38 770.02,-143.38 779.84,-147.37 780.19,-140.38"/>
</g>
<!-- Node15 -->
<g id="node15" class="node">
<title>Node15</title>
<g id="a_node15"><a xlink:title=" ">
<polygon fill="#e0e0e0" stroke="#999999" points="735.5,-85 555.5,-85 555.5,-66 735.5,-66 735.5,-85"/>
<text text-anchor="middle" x="645.5" y="-73" font-family="Helvetica,sans-Serif" font-size="10.00">CGAL/Delaunay_triangulation_3.h</text>
</a>
</g>
</g>
<!-- Node14&#45;&gt;Node15 -->
<g id="edge15" class="edge">
<title>Node14&#45;&gt;Node15</title>
<path fill="none" stroke="#63b8ff" d="M696.54,-131.87C687.36,-121.9 672.04,-105.29 660.58,-92.86"/>
<polygon fill="#63b8ff" stroke="#63b8ff" points="663.06,-90.39 653.71,-85.41 657.91,-95.13 663.06,-90.39"/>
</g>
<!-- Node16 -->
<g id="node16" class="node">
<title>Node16</title>
<g id="a_node16"><a xlink:title=" ">
<polygon fill="#e0e0e0" stroke="#999999" points="883,-96 754,-96 754,-55 883,-55 883,-96"/>
<text text-anchor="start" x="762" y="-84" font-family="Helvetica,sans-Serif" font-size="10.00">CGAL/Exact_predicates</text>
<text text-anchor="start" x="762" y="-73" font-family="Helvetica,sans-Serif" font-size="10.00">_inexact_constructions</text>
<text text-anchor="middle" x="818.5" y="-62" font-family="Helvetica,sans-Serif" font-size="10.00">_kernel.h</text>
</a>
</g>
</g>
<!-- Node14&#45;&gt;Node16 -->
<g id="edge16" class="edge">
<title>Node14&#45;&gt;Node16</title>
<path fill="none" stroke="#63b8ff" d="M719.87,-131.87C734,-123.94 755.62,-111.8 775.03,-100.91"/>
<polygon fill="#63b8ff" stroke="#63b8ff" points="776.74,-103.96 783.75,-96.01 773.32,-97.85 776.74,-103.96"/>
</g>
<!-- Node17 -->
<g id="node17" class="node">
<title>Node17</title>
<g id="a_node17"><a xlink:title=" ">
<polygon fill="#e0e0e0" stroke="#999999" points="149,-85 0,-85 0,-66 149,-66 149,-85"/>
<text text-anchor="middle" x="74.5" y="-73" font-family="Helvetica,sans-Serif" font-size="10.00">CGAL/point_generators_3.h</text>
</a>
</g>
</g>
<!-- Node14&#45;&gt;Node17 -->
<g id="edge17" class="edge">
<title>Node14&#45;&gt;Node17</title>
<path fill="none" stroke="#63b8ff" d="M639,-138.27C536.14,-134.07 330.7,-122.86 158.5,-96 144.59,-93.83 129.57,-90.62 116.12,-87.43"/>
<polygon fill="#63b8ff" stroke="#63b8ff" points="116.74,-83.98 106.2,-85.02 115.08,-90.78 116.74,-83.98"/>
</g>
<!-- Node18 -->
<g id="node18" class="node">
<title>Node18</title>
<g id="a_node18"><a xlink:title=" ">
<polygon fill="#e0e0e0" stroke="#999999" points="305.5,-90.5 167.5,-90.5 167.5,-60.5 305.5,-60.5 305.5,-90.5"/>
<text text-anchor="start" x="175.5" y="-78.5" font-family="Helvetica,sans-Serif" font-size="10.00">CGAL/Triangulation</text>
<text text-anchor="middle" x="236.5" y="-67.5" font-family="Helvetica,sans-Serif" font-size="10.00">_cell_base_with_info_3.h</text>
</a>
</g>
</g>
<!-- Node14&#45;&gt;Node18 -->
<g id="edge18" class="edge">
<title>Node14&#45;&gt;Node18</title>
<path fill="none" stroke="#63b8ff" d="M638.91,-135.66C561.09,-129.32 427.66,-116.51 314.5,-96 309.39,-95.07 304.13,-94.01 298.85,-92.86"/>
<polygon fill="#63b8ff" stroke="#63b8ff" points="299.27,-89.36 288.74,-90.56 297.72,-96.19 299.27,-89.36"/>
</g>
<!-- Node19 -->
<g id="node19" class="node">
<title>Node19</title>
<g id="a_node19"><a xlink:title=" ">
<polygon fill="#e0e0e0" stroke="#999999" points="537.5,-90.5 385.5,-90.5 385.5,-60.5 537.5,-60.5 537.5,-90.5"/>
<text text-anchor="start" x="393.5" y="-78.5" font-family="Helvetica,sans-Serif" font-size="10.00">CGAL/Triangulation</text>
<text text-anchor="middle" x="461.5" y="-67.5" font-family="Helvetica,sans-Serif" font-size="10.00">_vertex_base_with_info_3.h</text>
</a>
</g>
</g>
<!-- Node14&#45;&gt;Node19 -->
<g id="edge19" class="edge">
<title>Node14&#45;&gt;Node19</title>
<path fill="none" stroke="#63b8ff" d="M671.98,-131.94C634.43,-122.05 571.78,-105.55 524.57,-93.11"/>
<polygon fill="#63b8ff" stroke="#63b8ff" points="525.31,-89.69 514.75,-90.52 523.53,-96.46 525.31,-89.69"/>
</g>
<!-- Node20 -->
<g id="node20" class="node">
<title>Node20</title>
<g id="a_node20"><a xlink:href="_settings_8hpp.html" target="_top" xlink:title="Global integer and precision settings.">
<polygon fill="white" stroke="#666666" points="978,-85 901,-85 901,-66 978,-66 978,-85"/>
<text text-anchor="middle" x="939.5" y="-73" font-family="Helvetica,sans-Serif" font-size="10.00">Settings.hpp</text>
</a>
</g>
</g>
<!-- Node14&#45;&gt;Node20 -->
<g id="edge20" class="edge">
<title>Node14&#45;&gt;Node20</title>
<path fill="none" stroke="#63b8ff" d="M748.85,-131.93C787.07,-124.08 843.51,-111.36 891.5,-96 897.8,-93.98 904.43,-91.52 910.7,-89.03"/>
<polygon fill="#63b8ff" stroke="#63b8ff" points="912.21,-92.19 920.13,-85.15 909.55,-85.72 912.21,-92.19"/>
</g>
<!-- Node21 -->
<g id="node21" class="node">
<title>Node21</title>
<g id="a_node21"><a xlink:title=" ">
<polygon fill="#e0e0e0" stroke="#999999" points="952.5,-19 812.5,-19 812.5,0 952.5,0 952.5,-19"/>
<text text-anchor="middle" x="882.5" y="-7" font-family="Helvetica,sans-Serif" font-size="10.00">CGAL/GMP/Gmpzf_type.h</text>
</a>
</g>
</g>
<!-- Node20&#45;&gt;Node21 -->
<g id="edge21" class="edge">
<title>Node20&#45;&gt;Node21</title>
<path fill="none" stroke="#63b8ff" d="M931.81,-65.87C923.02,-56 908.43,-39.61 897.39,-27.22"/>
<polygon fill="#63b8ff" stroke="#63b8ff" points="899.7,-24.55 890.43,-19.41 894.47,-29.2 899.7,-24.55"/>
</g>
<!-- Node22 -->
<g id="node22" class="node">
<title>Node22</title>
<g id="a_node22"><a xlink:title=" ">
<polygon fill="#e0e0e0" stroke="#999999" points="1020.5,-19 970.5,-19 970.5,0 1020.5,0 1020.5,-19"/>
<text text-anchor="middle" x="995.5" y="-7" font-family="Helvetica,sans-Serif" font-size="10.00">cstdint</text>
</a>
</g>
</g>
<!-- Node20&#45;&gt;Node22 -->
<g id="edge22" class="edge">
<title>Node20&#45;&gt;Node22</title>
<path fill="none" stroke="#63b8ff" d="M947.05,-65.87C955.69,-56 970.03,-39.61 980.87,-27.22"/>
<polygon fill="#63b8ff" stroke="#63b8ff" points="983.76,-29.24 987.71,-19.41 978.49,-24.63 983.76,-29.24"/>
</g>
<!-- Node24 -->
<g id="node24" class="node">
<title>Node24</title>
<g id="a_node24"><a xlink:title=" ">
<polygon fill="#e0e0e0" stroke="#999999" points="1346,-151 1293,-151 1293,-132 1346,-132 1346,-151"/>
<text text-anchor="middle" x="1319.5" y="-139" font-family="Helvetica,sans-Serif" font-size="10.00">cstddef</text>
</a>
</g>
</g>
<!-- Node23&#45;&gt;Node24 -->
<g id="edge24" class="edge">
<title>Node23&#45;&gt;Node24</title>
<path fill="none" stroke="#63b8ff" d="M1324.02,-302.2C1318.35,-292.52 1309.85,-276.31 1306.5,-261 1298.86,-226.09 1307.44,-184.37 1313.83,-160.9"/>
<polygon fill="#63b8ff" stroke="#63b8ff" points="1317.22,-161.8 1316.63,-151.23 1310.49,-159.86 1317.22,-161.8"/>
</g>
<!-- Node25 -->
<g id="node25" class="node">
<title>Node25</title>
<g id="a_node25"><a xlink:title=" ">
<polygon fill="#e0e0e0" stroke="#999999" points="1401.5,-261 1315.5,-261 1315.5,-242 1401.5,-242 1401.5,-261"/>
<text text-anchor="middle" x="1358.5" y="-249" font-family="Helvetica,sans-Serif" font-size="10.00">unordered_set</text>
</a>
</g>
</g>
<!-- Node23&#45;&gt;Node25 -->
<g id="edge25" class="edge">
<title>Node23&#45;&gt;Node25</title>
<path fill="none" stroke="#63b8ff" d="M1333.78,-302.37C1337.93,-293.99 1344.37,-281.01 1349.63,-270.39"/>
<polygon fill="#63b8ff" stroke="#63b8ff" points="1352.9,-271.68 1354.2,-261.17 1346.63,-268.57 1352.9,-271.68"/>
</g>
<!-- Node26 -->
<g id="node26" class="node">
<title>Node26</title>
<g id="a_node26"><a xlink:href="_geometry_8hpp.html" target="_top" xlink:title="Geometric scalars of the Manifold used to calculate the Regge action.">
<polygon fill="white" stroke="#666666" points="1505,-261 1420,-261 1420,-242 1505,-242 1505,-261"/>
<text text-anchor="middle" x="1462.5" y="-249" font-family="Helvetica,sans-Serif" font-size="10.00">Geometry.hpp</text>
</a>
</g>
</g>
<!-- Node23&#45;&gt;Node26 -->
<g id="edge26" class="edge">
<title>Node23&#45;&gt;Node26</title>
<path fill="none" stroke="#63b8ff" d="M1348.84,-302.49C1371.2,-292.66 1408.21,-276.38 1433.9,-265.08"/>
<polygon fill="#63b8ff" stroke="#63b8ff" points="1435.39,-268.25 1443.14,-261.02 1432.57,-261.84 1435.39,-268.25"/>
</g>
<!-- Node27 -->
<g id="node27" class="node">
<title>Node27</title>
<g id="a_node27"><a xlink:href="_foliated__triangulation_8hpp.html" target="_top" xlink:title="Create foliated spherical triangulations.">
<polygon fill="white" stroke="#666666" points="1513.5,-206 1369.5,-206 1369.5,-187 1513.5,-187 1513.5,-206"/>
<text text-anchor="middle" x="1441.5" y="-194" font-family="Helvetica,sans-Serif" font-size="10.00">Foliated_triangulation.hpp</text>
</a>
</g>
</g>
<!-- Node26&#45;&gt;Node27 -->
<g id="edge27" class="edge">
<title>Node26&#45;&gt;Node27</title>
<path fill="none" stroke="#63b8ff" d="M1459.03,-241.75C1456.22,-234.65 1452.16,-224.4 1448.65,-215.56"/>
<polygon fill="#63b8ff" stroke="#63b8ff" points="1451.84,-214.1 1444.9,-206.09 1445.33,-216.68 1451.84,-214.1"/>
</g>
<!-- Node27&#45;&gt;Node14 -->
<g id="edge28" class="edge">
<title>Node27&#45;&gt;Node14</title>
<path fill="none" stroke="#63b8ff" d="M1369.49,-190.32C1229.69,-180.27 922.74,-158.19 780.11,-147.94"/>
<polygon fill="#63b8ff" stroke="#63b8ff" points="780.36,-144.45 770.13,-147.22 779.85,-151.43 780.36,-144.45"/>
</g>
<!-- Node28 -->
<g id="node28" class="node">
<title>Node28</title>
<g id="a_node28"><a xlink:href="_utilities_8hpp.html" target="_top" xlink:title="Utility functions.">
<polygon fill="white" stroke="#666666" points="1555.5,-151 1479.5,-151 1479.5,-132 1555.5,-132 1555.5,-151"/>
<text text-anchor="middle" x="1517.5" y="-139" font-family="Helvetica,sans-Serif" font-size="10.00">Utilities.hpp</text>
</a>
</g>
</g>
<!-- Node27&#45;&gt;Node28 -->
<g id="edge29" class="edge">
<title>Node27&#45;&gt;Node28</title>
<path fill="none" stroke="#63b8ff" d="M1453.71,-186.98C1465.28,-178.92 1482.88,-166.65 1496.66,-157.03"/>
<polygon fill="#63b8ff" stroke="#63b8ff" points="1498.87,-159.76 1505.07,-151.17 1494.86,-154.02 1498.87,-159.76"/>
</g>
<!-- Node28&#45;&gt;Node3 -->
<g id="edge44" class="edge">
<title>Node28&#45;&gt;Node3</title>
<path fill="none" stroke="#63b8ff" d="M1479.3,-136.95C1382.96,-127.92 1135.17,-104.22 1098.5,-96 1090.07,-94.11 1081.15,-91.37 1072.97,-88.53"/>
<polygon fill="#63b8ff" stroke="#63b8ff" points="1074.03,-85.19 1063.44,-85.07 1071.65,-91.77 1074.03,-85.19"/>
</g>
<!-- Node28&#45;&gt;Node7 -->
<g id="edge38" class="edge">
<title>Node28&#45;&gt;Node7</title>
<path fill="none" stroke="#63b8ff" d="M1479.21,-138.32C1446.39,-136.49 1397.84,-133.89 1355.5,-132 1246.76,-127.15 480.52,-128.08 376.5,-96 372.45,-94.75 368.4,-92.83 364.63,-90.67"/>
<polygon fill="#63b8ff" stroke="#63b8ff" points="366.29,-87.57 356,-85.06 362.48,-93.44 366.29,-87.57"/>
</g>
<!-- Node28&#45;&gt;Node20 -->
<g id="edge45" class="edge">
<title>Node28&#45;&gt;Node20</title>
<path fill="none" stroke="#63b8ff" d="M1479.04,-137.22C1460.45,-135.63 1437.81,-133.71 1417.5,-132 1225.96,-115.86 1173.29,-141.38 986.5,-96 979.58,-94.32 972.36,-91.76 965.71,-89.05"/>
<polygon fill="#63b8ff" stroke="#63b8ff" points="967.05,-85.81 956.48,-85.04 964.26,-92.24 967.05,-85.81"/>
</g>
<!-- Node29 -->
<g id="node29" class="node">
<title>Node29</title>
<g id="a_node29"><a xlink:title=" ">
<polygon fill="#e0e0e0" stroke="#999999" points="1425.5,-85 1361.5,-85 1361.5,-66 1425.5,-66 1425.5,-85"/>
<text text-anchor="middle" x="1393.5" y="-73" font-family="Helvetica,sans-Serif" font-size="10.00">algorithm</text>
</a>
</g>
</g>
<!-- Node28&#45;&gt;Node29 -->
<g id="edge30" class="edge">
<title>Node28&#45;&gt;Node29</title>
<path fill="none" stroke="#63b8ff" d="M1500.78,-131.87C1479.88,-121.09 1443.91,-102.52 1419.43,-89.88"/>
<polygon fill="#63b8ff" stroke="#63b8ff" points="1420.85,-86.68 1410.35,-85.2 1417.64,-92.9 1420.85,-86.68"/>
</g>
<!-- Node30 -->
<g id="node30" class="node">
<title>Node30</title>
<g id="a_node30"><a xlink:title=" ">
<polygon fill="#e0e0e0" stroke="#999999" points="1511.5,-85 1443.5,-85 1443.5,-66 1511.5,-66 1511.5,-85"/>
<text text-anchor="middle" x="1477.5" y="-73" font-family="Helvetica,sans-Serif" font-size="10.00">filesystem</text>
</a>
</g>
</g>
<!-- Node28&#45;&gt;Node30 -->
<g id="edge31" class="edge">
<title>Node28&#45;&gt;Node30</title>
<path fill="none" stroke="#63b8ff" d="M1512.11,-131.87C1506.06,-122.19 1496.09,-106.24 1488.4,-93.94"/>
<polygon fill="#63b8ff" stroke="#63b8ff" points="1491.33,-92.03 1483.07,-85.41 1485.4,-95.74 1491.33,-92.03"/>
</g>
<!-- Node31 -->
<g id="node31" class="node">
<title>Node31</title>
<g id="a_node31"><a xlink:title=" ">
<polygon fill="#e0e0e0" stroke="#999999" points="1585,-85 1530,-85 1530,-66 1585,-66 1585,-85"/>
<text text-anchor="middle" x="1557.5" y="-73" font-family="Helvetica,sans-Serif" font-size="10.00">fstream</text>
</a>
</g>
</g>
<!-- Node28&#45;&gt;Node31 -->
<g id="edge32" class="edge">
<title>Node28&#45;&gt;Node31</title>
<path fill="none" stroke="#63b8ff" d="M1522.89,-131.87C1528.94,-122.19 1538.91,-106.24 1546.6,-93.94"/>
<polygon fill="#63b8ff" stroke="#63b8ff" points="1549.6,-95.74 1551.93,-85.41 1543.67,-92.03 1549.6,-95.74"/>
</g>
<!-- Node32 -->
<g id="node32" class="node">
<title>Node32</title>
<g id="a_node32"><a xlink:title=" ">
<polygon fill="#e0e0e0" stroke="#999999" points="1651.5,-85 1603.5,-85 1603.5,-66 1651.5,-66 1651.5,-85"/>
<text text-anchor="middle" x="1627.5" y="-73" font-family="Helvetica,sans-Serif" font-size="10.00">gsl/gsl</text>
</a>
</g>
</g>
<!-- Node28&#45;&gt;Node32 -->
<g id="edge33" class="edge">
<title>Node28&#45;&gt;Node32</title>
<path fill="none" stroke="#63b8ff" d="M1532.57,-131.85C1548.12,-122.91 1573.04,-108.54 1594.5,-96 1597.64,-94.16 1600.94,-92.22 1604.2,-90.31"/>
<polygon fill="#63b8ff" stroke="#63b8ff" points="1606.23,-93.17 1613.06,-85.07 1602.67,-87.14 1606.23,-93.17"/>
</g>
<!-- Node33 -->
<g id="node33" class="node">
<title>Node33</title>
<g id="a_node33"><a xlink:title=" ">
<polygon fill="#e0e0e0" stroke="#999999" points="1717.5,-85 1669.5,-85 1669.5,-66 1717.5,-66 1717.5,-85"/>
<text text-anchor="middle" x="1693.5" y="-73" font-family="Helvetica,sans-Serif" font-size="10.00">mutex</text>
</a>
</g>
</g>
<!-- Node28&#45;&gt;Node33 -->
<g id="edge34" class="edge">
<title>Node28&#45;&gt;Node33</title>
<path fill="none" stroke="#63b8ff" d="M1552.71,-131.99C1582.17,-124.3 1624.97,-111.77 1660.5,-96 1664.29,-94.32 1668.19,-92.3 1671.93,-90.2"/>
<polygon fill="#63b8ff" stroke="#63b8ff" points="1673.89,-93.11 1680.7,-85 1670.32,-87.09 1673.89,-93.11"/>
</g>
<!-- Node34 -->
<g id="node34" class="node">
<title>Node34</title>
<g id="a_node34"><a xlink:title=" ">
<polygon fill="#e0e0e0" stroke="#999999" points="1789.5,-85 1735.5,-85 1735.5,-66 1789.5,-66 1789.5,-85"/>
<text text-anchor="middle" x="1762.5" y="-73" font-family="Helvetica,sans-Serif" font-size="10.00">random</text>
</a>
</g>
</g>
<!-- Node28&#45;&gt;Node34 -->
<g id="edge35" class="edge">
<title>Node28&#45;&gt;Node34</title>
<path fill="none" stroke="#63b8ff" d="M1555.69,-133.73C1607.08,-124.38 1695.61,-107.39 1726.5,-96 1730.97,-94.35 1735.57,-92.23 1739.93,-89.99"/>
<polygon fill="#63b8ff" stroke="#63b8ff" points="1741.83,-92.94 1748.92,-85.06 1738.47,-86.8 1741.83,-92.94"/>
</g>
<!-- Node35 -->
<g id="node35" class="node">
<title>Node35</title>
<g id="a_node35"><a xlink:title=" ">
<polygon fill="#e0e0e0" stroke="#999999" points="2241.5,-85 2201.5,-85 2201.5,-66 2241.5,-66 2241.5,-85"/>
<text text-anchor="middle" x="2221.5" y="-73" font-family="Helvetica,sans-Serif" font-size="10.00">span</text>
</a>
</g>
</g>
<!-- Node28&#45;&gt;Node35 -->
<g id="edge36" class="edge">
<title>Node28&#45;&gt;Node35</title>
<path fill="none" stroke="#63b8ff" d="M1555.78,-133.78C1560.39,-133.11 1565.04,-132.49 1569.5,-132 1707.34,-116.79 2061.08,-140.26 2192.5,-96 2196.17,-94.77 2199.8,-92.94 2203.2,-90.89"/>
<polygon fill="#63b8ff" stroke="#63b8ff" points="2205.22,-93.74 2211.48,-85.2 2201.26,-87.97 2205.22,-93.74"/>
</g>
<!-- Node36 -->
<g id="node36" class="node">
<title>Node36</title>
<g id="a_node36"><a xlink:title=" ">
<polygon fill="#e0e0e0" stroke="#999999" points="1873,-85 1808,-85 1808,-66 1873,-66 1873,-85"/>
<text text-anchor="middle" x="1840.5" y="-73" font-family="Helvetica,sans-Serif" font-size="10.00">stdexcept</text>
</a>
</g>
</g>
<!-- Node28&#45;&gt;Node36 -->
<g id="edge37" class="edge">
<title>Node28&#45;&gt;Node36</title>
<path fill="none" stroke="#63b8ff" d="M1555.55,-134.25C1560.25,-133.49 1564.98,-132.72 1569.5,-132 1671.23,-115.69 1699.93,-125.98 1798.5,-96 1804.08,-94.3 1809.86,-92 1815.29,-89.58"/>
<polygon fill="#63b8ff" stroke="#63b8ff" points="1817.03,-92.63 1824.56,-85.18 1814.03,-86.31 1817.03,-92.63"/>
</g>
<!-- Node37 -->
<g id="node37" class="node">
<title>Node37</title>
<g id="a_node37"><a xlink:title=" ">
<polygon fill="#e0e0e0" stroke="#999999" points="1963.5,-85 1891.5,-85 1891.5,-66 1963.5,-66 1963.5,-85"/>
<text text-anchor="middle" x="1927.5" y="-73" font-family="Helvetica,sans-Serif" font-size="10.00">date/date.h</text>
</a>
</g>
</g>
<!-- Node28&#45;&gt;Node37 -->
<g id="edge39" class="edge">
<title>Node28&#45;&gt;Node37</title>
<path fill="none" stroke="#63b8ff" d="M1555.52,-134.07C1560.23,-133.34 1564.97,-132.63 1569.5,-132 1708.19,-112.7 1747.24,-132.23 1882.5,-96 1888.87,-94.29 1895.5,-91.84 1901.66,-89.24"/>
<polygon fill="#63b8ff" stroke="#63b8ff" points="1903.14,-92.41 1910.83,-85.12 1900.27,-86.02 1903.14,-92.41"/>
</g>
<!-- Node38 -->
<g id="node38" class="node">
<title>Node38</title>
<g id="a_node38"><a xlink:title=" ">
<polygon fill="#e0e0e0" stroke="#999999" points="2079.5,-85 1981.5,-85 1981.5,-66 2079.5,-66 2079.5,-85"/>
<text text-anchor="middle" x="2030.5" y="-73" font-family="Helvetica,sans-Serif" font-size="10.00">pcg_random.hpp</text>
</a>
</g>
</g>
<!-- Node28&#45;&gt;Node38 -->
<g id="edge40" class="edge">
<title>Node28&#45;&gt;Node38</title>
<path fill="none" stroke="#63b8ff" d="M1555.51,-133.96C1560.21,-133.25 1564.96,-132.57 1569.5,-132 1747.91,-109.48 1796.5,-132.91 1972.5,-96 1981.39,-94.14 1990.82,-91.34 1999.43,-88.44"/>
<polygon fill="#63b8ff" stroke="#63b8ff" points="2000.81,-91.67 2009.08,-85.05 1998.48,-85.07 2000.81,-91.67"/>
</g>
<!-- Node39 -->
<g id="node39" class="node">
<title>Node39</title>
<g id="a_node39"><a xlink:title=" ">
<polygon fill="#e0e0e0" stroke="#999999" points="2183.5,-85 2097.5,-85 2097.5,-66 2183.5,-66 2183.5,-85"/>
<text text-anchor="middle" x="2140.5" y="-73" font-family="Helvetica,sans-Serif" font-size="10.00">fmt/ostream.h</text>
</a>
</g>
</g>
<!-- Node28&#45;&gt;Node39 -->
<g id="edge41" class="edge">
<title>Node28&#45;&gt;Node39</title>
<path fill="none" stroke="#63b8ff" d="M1555.78,-133.83C1560.39,-133.15 1565.05,-132.52 1569.5,-132 1799.18,-105.32 1862.55,-145.11 2088.5,-96 2096.36,-94.29 2104.62,-91.63 2112.19,-88.81"/>
<polygon fill="#63b8ff" stroke="#63b8ff" points="2113.62,-92.01 2121.64,-85.08 2111.05,-85.49 2113.62,-92.01"/>
</g>
<!-- Node40 -->
<g id="node40" class="node">
<title>Node40</title>
<g id="a_node40"><a xlink:title=" ">
<polygon fill="#e0e0e0" stroke="#999999" points="1213.5,-90.5 1107.5,-90.5 1107.5,-60.5 1213.5,-60.5 1213.5,-90.5"/>
<text text-anchor="start" x="1115.5" y="-78.5" font-family="Helvetica,sans-Serif" font-size="10.00">spdlog/sinks/basic</text>
<text text-anchor="middle" x="1160.5" y="-67.5" font-family="Helvetica,sans-Serif" font-size="10.00">_file_sink.h</text>
</a>
</g>
</g>
<!-- Node28&#45;&gt;Node40 -->
<g id="edge42" class="edge">
<title>Node28&#45;&gt;Node40</title>
<path fill="none" stroke="#63b8ff" d="M1479.43,-136.67C1422.88,-130.54 1313.59,-117.06 1222.5,-96 1218.94,-95.18 1215.28,-94.25 1211.62,-93.26"/>
<polygon fill="#63b8ff" stroke="#63b8ff" points="1212.52,-89.87 1201.94,-90.51 1210.61,-96.61 1212.52,-89.87"/>
</g>
<!-- Node41 -->
<g id="node41" class="node">
<title>Node41</title>
<g id="a_node41"><a xlink:title=" ">
<polygon fill="#e0e0e0" stroke="#999999" points="1343,-90.5 1232,-90.5 1232,-60.5 1343,-60.5 1343,-90.5"/>
<text text-anchor="start" x="1240" y="-78.5" font-family="Helvetica,sans-Serif" font-size="10.00">spdlog/sinks/stdout</text>
<text text-anchor="middle" x="1287.5" y="-67.5" font-family="Helvetica,sans-Serif" font-size="10.00">_color_sinks.h</text>
</a>
</g>
</g>
<!-- Node28&#45;&gt;Node41 -->
<g id="edge43" class="edge">
<title>Node28&#45;&gt;Node41</title>
<path fill="none" stroke="#63b8ff" d="M1484.87,-131.99C1451.53,-123.22 1398.3,-109.04 1352.5,-96 1349.54,-95.16 1346.5,-94.28 1343.44,-93.39"/>
<polygon fill="#63b8ff" stroke="#63b8ff" points="1344.2,-89.97 1333.61,-90.51 1342.22,-96.68 1344.2,-89.97"/>
</g>
<!-- Node42&#45;&gt;Node20 -->
<g id="edge52" class="edge">
<title>Node42&#45;&gt;Node20</title>
<path fill="none" stroke="#63b8ff" d="M1558.53,-187C1516.95,-173.19 1430.63,-146.02 1355.5,-132 1193.52,-101.78 1146.35,-136.01 986.5,-96 979.86,-94.34 972.94,-91.9 966.51,-89.3"/>
<polygon fill="#63b8ff" stroke="#63b8ff" points="967.5,-85.92 956.93,-85.18 964.74,-92.35 967.5,-85.92"/>
</g>
<!-- Node42&#45;&gt;Node24 -->
<g id="edge48" class="edge">
<title>Node42&#45;&gt;Node24</title>
<path fill="none" stroke="#63b8ff" d="M1541.08,-186.98C1489.89,-176.71 1404.66,-159.6 1356.18,-149.86"/>
<polygon fill="#63b8ff" stroke="#63b8ff" points="1356.62,-146.38 1346.13,-147.85 1355.25,-153.25 1356.62,-146.38"/>
</g>
<!-- Node42&#45;&gt;Node28 -->
<g id="edge53" class="edge">
<title>Node42&#45;&gt;Node28</title>
<path fill="none" stroke="#63b8ff" d="M1572.9,-186.98C1563.04,-179.07 1548.15,-167.11 1536.28,-157.58"/>
<polygon fill="#63b8ff" stroke="#63b8ff" points="1538.29,-154.7 1528.3,-151.17 1533.9,-160.16 1538.29,-154.7"/>
</g>
<!-- Node42&#45;&gt;Node35 -->
<g id="edge51" class="edge">
<title>Node42&#45;&gt;Node35</title>
<path fill="none" stroke="#63b8ff" d="M1583.22,-186.84C1583.3,-172.79 1585.73,-145.3 1602.5,-132 1653.96,-91.19 2130.29,-117.06 2192.5,-96 2196.16,-94.76 2199.8,-92.93 2203.2,-90.88"/>
<polygon fill="#63b8ff" stroke="#63b8ff" points="2205.22,-93.73 2211.48,-85.19 2201.26,-87.96 2205.22,-93.73"/>
</g>
<!-- Node43 -->
<g id="node43" class="node">
<title>Node43</title>
<g id="a_node43"><a xlink:title=" ">
<polygon fill="#e0e0e0" stroke="#999999" points="1653.5,-151 1611.5,-151 1611.5,-132 1653.5,-132 1653.5,-151"/>
<text text-anchor="middle" x="1632.5" y="-139" font-family="Helvetica,sans-Serif" font-size="10.00">array</text>
</a>
</g>
</g>
<!-- Node42&#45;&gt;Node43 -->
<g id="edge47" class="edge">
<title>Node42&#45;&gt;Node43</title>
<path fill="none" stroke="#63b8ff" d="M1591.59,-186.75C1598.66,-179.11 1609.09,-167.82 1617.65,-158.56"/>
<polygon fill="#63b8ff" stroke="#63b8ff" points="1620.34,-160.81 1624.56,-151.09 1615.2,-156.06 1620.34,-160.81"/>
</g>
<!-- Node44 -->
<g id="node44" class="node">
<title>Node44</title>
<g id="a_node44"><a xlink:title=" ">
<polygon fill="#e0e0e0" stroke="#999999" points="1721.5,-151 1671.5,-151 1671.5,-132 1721.5,-132 1721.5,-151"/>
<text text-anchor="middle" x="1696.5" y="-139" font-family="Helvetica,sans-Serif" font-size="10.00">gsl/util</text>
</a>
</g>
</g>
<!-- Node42&#45;&gt;Node44 -->
<g id="edge49" class="edge">
<title>Node42&#45;&gt;Node44</title>
<path fill="none" stroke="#63b8ff" d="M1601.66,-186.98C1619.75,-178.5 1647.78,-165.35 1668.69,-155.54"/>
<polygon fill="#63b8ff" stroke="#63b8ff" points="1670.45,-158.59 1678.01,-151.17 1667.47,-152.25 1670.45,-158.59"/>
</g>
<!-- Node45 -->
<g id="node45" class="node">
<title>Node45</title>
<g id="a_node45"><a xlink:title=" ">
<polygon fill="#e0e0e0" stroke="#999999" points="1795.5,-151 1739.5,-151 1739.5,-132 1795.5,-132 1795.5,-151"/>
<text text-anchor="middle" x="1767.5" y="-139" font-family="Helvetica,sans-Serif" font-size="10.00">numeric</text>
</a>
</g>
</g>
<!-- Node42&#45;&gt;Node45 -->
<g id="edge50" class="edge">
<title>Node42&#45;&gt;Node45</title>
<path fill="none" stroke="#63b8ff" d="M1613.06,-186.98C1644.68,-177.88 1694.94,-163.4 1729.48,-153.45"/>
<polygon fill="#63b8ff" stroke="#63b8ff" points="1730.58,-156.78 1739.22,-150.65 1728.64,-150.05 1730.58,-156.78"/>
</g>
</g>
</svg>
        <g id="navigator" transform="translate(0 0)" fill="#404254">
                <rect fill="#f2f5e9" fill-opacity="0.5" stroke="#606060" stroke-width=".5" x="0" y="0" width="60" height="60"/>
                <use id="zoomplus" xlink:href="#zoomPlus" x="17" y="9" onmousedown="handleZoom(evt,'in')"/>
                <use id="zoomminus" xlink:href="#zoomMin" x="42" y="9" onmousedown="handleZoom(evt,'out')"/>
                <use id="reset" xlink:href="#resetDef" x="30" y="36" onmousedown="handleReset()"/>
                <g id="arrowUp" xlink:href="#dirArrow" transform="translate(30 24)" onmousedown="handlePan(0,-1)">
                  <use xlink:href="#rim" fill="#404040">
                        <set attributeName="fill" to="#808080" begin="arrowUp.mouseover" end="arrowUp.mouseout"/>
                  </use>
                  <path fill="none" stroke="white" stroke-width="1.5" d="M0,-3.0v7 M-2.5,-0.5L0,-3.0L2.5,-0.5"/>
                </g>
                <g id="arrowRight" xlink:href="#dirArrow" transform="rotate(90) translate(36 -43)" onmousedown="handlePan(1,0)">
                  <use xlink:href="#rim" fill="#404040">
                        <set attributeName="fill" to="#808080" begin="arrowRight.mouseover" end="arrowRight.mouseout"/>
                  </use>
                  <path fill="none" stroke="white" stroke-width="1.5" d="M0,-3.0v7 M-2.5,-0.5L0,-3.0L2.5,-0.5"/>
                </g>
                <g id="arrowDown" xlink:href="#dirArrow" transform="rotate(180) translate(-30 -48)" onmousedown="handlePan(0,1)">
                  <use xlink:href="#rim" fill="#404040">
                        <set attributeName="fill" to="#808080" begin="arrowDown.mouseover" end="arrowDown.mouseout"/>
                  </use>
                  <path fill="none" stroke="white" stroke-width="1.5" d="M0,-3.0v7 M-2.5,-0.5L0,-3.0L2.5,-0.5"/>
                </g>
                <g id="arrowLeft" xlink:href="#dirArrow" transform="rotate(270) translate(-36 17)" onmousedown="handlePan(-1,0)">
                  <use xlink:href="#rim" fill="#404040">
                        <set attributeName="fill" to="#808080" begin="arrowLeft.mouseover" end="arrowLeft.mouseout"/>
                  </use>
                  <path fill="none" stroke="white" stroke-width="1.5" d="M0,-3.0v7 M-2.5,-0.5L0,-3.0L2.5,-0.5"/>
                </g>
        </g>
        <svg viewBox="0 0 15 15" width="100%" height="30px" preserveAspectRatio="xMaxYMin meet">
         <g id="arrow_out" transform="scale(0.3 0.3)">
          <a xlink:href="_move__command_8hpp__incl_org.svg" target="_base">
           <rect id="button" ry="5" rx="5" y="6" x="6" height="38" width="38"
                fill="#f2f5e9" fill-opacity="0.5" stroke="#606060" stroke-width="1.0"/>
           <path id="arrow"
             d="M 11.500037,31.436501 C 11.940474,20.09759 22.043105,11.32322 32.158766,21.979434 L 37.068811,17.246167 C 37.068811,17.246167 37.088388,32 37.088388,32 L 22.160133,31.978069 C 22.160133,31.978069 26.997745,27.140456 26.997745,27.140456 C 18.528582,18.264221 13.291696,25.230495 11.500037,31.436501 z"
             style="fill:#404040;"/>
          </a>
         </g>
        </svg>
</svg>
