<?xml version="1.0" encoding="UTF-8" standalone="no"?>
<!DOCTYPE svg PUBLIC "-//W3C//DTD SVG 1.1//EN"
 "http://www.w3.org/Graphics/SVG/1.1/DTD/svg11.dtd">
<!-- Generated by graphviz version 2.43.0 (0)
 -->
<!-- Title: include/Move_command.hpp Pages: 1 -->
<!--zoomable 442 -->
<svg id="main" version="1.1" xmlns="http://www.w3.org/2000/svg" xmlns:xlink="http://www.w3.org/1999/xlink" xml:space="preserve" onload="init(evt)">
<style type="text/css"><![CDATA[
.edge:hover path { stroke: red; }
.edge:hover polygon { stroke: red; fill: red; }
]]></style>
<script type="text/javascript"><![CDATA[
var edges = document.getElementsByTagName('g');
if (edges && edges.length) {
  for (var i=0;i<edges.length;i++) {
    if (edges[i].id.substr(0,4)=='edge') {
      edges[i].setAttribute('class','edge');
    }
  }
}
]]></script>
        <defs>
                <circle id="rim" cx="0" cy="0" r="7"/>
                <circle id="rim2" cx="0" cy="0" r="3.5"/>
                <g id="zoomPlus">
                        <use xlink:href="#rim" fill="#404040">
                                <set attributeName="fill" to="#808080" begin="zoomplus.mouseover" end="zoomplus.mouseout"/>
                        </use>
                        <path d="M-4,0h8M0,-4v8" fill="none" stroke="white" stroke-width="1.5" pointer-events="none"/>
                </g>
                <g id="zoomMin">
                        <use xlink:href="#rim" fill="#404040">
                                <set attributeName="fill" to="#808080" begin="zoomminus.mouseover" end="zoomminus.mouseout"/>
                        </use>
                        <path d="M-4,0h8" fill="none" stroke="white" stroke-width="1.5" pointer-events="none"/>
                </g>
                <g id="dirArrow">
                        <path fill="none" stroke="white" stroke-width="1.5" d="M0,-3.0v7 M-2.5,-0.5L0,-3.0L2.5,-0.5"/>
                </g>
               <g id="resetDef">
                       <use xlink:href="#rim2" fill="#404040">
                               <set attributeName="fill" to="#808080" begin="reset.mouseover" end="reset.mouseout"/>
                       </use>
               </g>
        </defs>

<script type="text/javascript">
var viewWidth = 2706;
var viewHeight = 442;
var sectionId = 'dynsection-0';
</script>
<script xlink:href="svgpan.js"/>
<svg id="graph" class="graph">
<g id="viewport">
<title>include/Move_command.hpp</title>
<polygon fill="white" stroke="transparent" points="-4,4 -4,-438 2702,-438 2702,4 -4,4"/>
<!-- Node1 -->
<g id="node1" class="node">
<title>Node1</title>
<g id="a_node1"><a xlink:title="Do ergodic moves using the Command pattern.">
<polygon fill="#bfbfbf" stroke="black" points="238.5,-414.5 238.5,-433.5 395.5,-433.5 395.5,-414.5 238.5,-414.5"/>
<text text-anchor="middle" x="317" y="-421.5" font-family="Helvetica,sans-Serif" font-size="10.00">include/Move_command.hpp</text>
</a>
</g>
</g>
<!-- Node2 -->
<g id="node2" class="node">
<title>Node2</title>
<g id="a_node2"><a xlink:href="_apply__move_8hpp.html" target="_top" xlink:title="Apply Pachner moves to foliated Delaunay triangulations.">
<polygon fill="white" stroke="black" points="204,-358.5 204,-377.5 302,-377.5 302,-358.5 204,-358.5"/>
<text text-anchor="middle" x="253" y="-365.5" font-family="Helvetica,sans-Serif" font-size="10.00">Apply_move.hpp</text>
</a>
</g>
</g>
<!-- Node1&#45;&gt;Node2 -->
<g id="edge1" class="edge">
<title>Node1&#45;&gt;Node2</title>
<path fill="none" stroke="midnightblue" d="M306.72,-414.32C297.16,-406.26 282.72,-394.08 271.22,-384.37"/>
<polygon fill="midnightblue" stroke="midnightblue" points="273.37,-381.61 263.47,-377.83 268.86,-386.96 273.37,-381.61"/>
</g>
<!-- Node8 -->
<g id="node8" class="node">
<title>Node8</title>
<g id="a_node8"><a xlink:href="_ergodic__moves__3_8hpp.html" target="_top" xlink:title="Pachner moves on 2+1 dimensional foliated Delaunay triangulations.">
<polygon fill="white" stroke="black" points="346.5,-358.5 346.5,-377.5 469.5,-377.5 469.5,-358.5 346.5,-358.5"/>
<text text-anchor="middle" x="408" y="-365.5" font-family="Helvetica,sans-Serif" font-size="10.00">Ergodic_moves_3.hpp</text>
</a>
</g>
</g>
<!-- Node1&#45;&gt;Node8 -->
<g id="edge7" class="edge">
<title>Node1&#45;&gt;Node8</title>
<path fill="none" stroke="midnightblue" d="M331.62,-414.32C345.95,-405.82 368.01,-392.73 384.75,-382.8"/>
<polygon fill="midnightblue" stroke="midnightblue" points="386.6,-385.77 393.42,-377.65 383.03,-379.75 386.6,-385.77"/>
</g>
<!-- Node3 -->
<g id="node3" class="node">
<title>Node3</title>
<g id="a_node3"><a xlink:title=" ">
<polygon fill="white" stroke="#bfbfbf" points="62.5,-67.5 62.5,-86.5 155.5,-86.5 155.5,-67.5 62.5,-67.5"/>
<text text-anchor="middle" x="109" y="-74.5" font-family="Helvetica,sans-Serif" font-size="10.00">spdlog/spdlog.h</text>
</a>
</g>
</g>
<!-- Node2&#45;&gt;Node3 -->
<g id="edge2" class="edge">
<title>Node2&#45;&gt;Node3</title>
<path fill="none" stroke="midnightblue" d="M256.64,-358.34C264.01,-340 280,-295.74 280,-257 280,-257 280,-257 280,-199 280,-164.38 185.43,-114.33 136.94,-90.95"/>
<polygon fill="midnightblue" stroke="midnightblue" points="138.16,-87.65 127.63,-86.51 135.15,-93.97 138.16,-87.65"/>
</g>
<!-- Node4 -->
<g id="node4" class="node">
<title>Node4</title>
<g id="a_node4"><a xlink:title=" ">
<polygon fill="white" stroke="#bfbfbf" points="24.5,-302.5 24.5,-321.5 89.5,-321.5 89.5,-302.5 24.5,-302.5"/>
<text text-anchor="middle" x="57" y="-309.5" font-family="Helvetica,sans-Serif" font-size="10.00">functional</text>
</a>
</g>
</g>
<!-- Node2&#45;&gt;Node4 -->
<g id="edge3" class="edge">
<title>Node2&#45;&gt;Node4</title>
<path fill="none" stroke="midnightblue" d="M221.94,-358.44C188.4,-349.2 134.8,-334.44 97.86,-324.26"/>
<polygon fill="midnightblue" stroke="midnightblue" points="98.48,-320.8 87.91,-321.52 96.62,-327.55 98.48,-320.8"/>
</g>
<!-- Node5 -->
<g id="node5" class="node">
<title>Node5</title>
<g id="a_node5"><a xlink:title=" ">
<polygon fill="white" stroke="#bfbfbf" points="0,-67.5 0,-86.5 44,-86.5 44,-67.5 0,-67.5"/>
<text text-anchor="middle" x="22" y="-74.5" font-family="Helvetica,sans-Serif" font-size="10.00">string</text>
</a>
</g>
</g>
<!-- Node2&#45;&gt;Node5 -->
<g id="edge4" class="edge">
<title>Node2&#45;&gt;Node5</title>
<path fill="none" stroke="midnightblue" d="M204.12,-358.48C180.89,-352.09 154.45,-341.02 137,-322 116.65,-299.83 118,-287.1 118,-257 118,-257 118,-257 118,-199 118,-152.06 73.11,-112.74 44.72,-92.56"/>
<polygon fill="midnightblue" stroke="midnightblue" points="46.39,-89.46 36.17,-86.7 42.44,-95.24 46.39,-89.46"/>
</g>
<!-- Node6 -->
<g id="node6" class="node">
<title>Node6</title>
<g id="a_node6"><a xlink:title=" ">
<polygon fill="white" stroke="#bfbfbf" points="335,-302.5 335,-321.5 427,-321.5 427,-302.5 335,-302.5"/>
<text text-anchor="middle" x="381" y="-309.5" font-family="Helvetica,sans-Serif" font-size="10.00">tl/expected.hpp</text>
</a>
</g>
</g>
<!-- Node2&#45;&gt;Node6 -->
<g id="edge5" class="edge">
<title>Node2&#45;&gt;Node6</title>
<path fill="none" stroke="midnightblue" d="M273.28,-358.44C294.35,-349.56 327.52,-335.56 351.49,-325.45"/>
<polygon fill="midnightblue" stroke="midnightblue" points="352.96,-328.63 360.81,-321.52 350.24,-322.18 352.96,-328.63"/>
</g>
<!-- Node7 -->
<g id="node7" class="node">
<title>Node7</title>
<g id="a_node7"><a xlink:title=" ">
<polygon fill="white" stroke="#bfbfbf" points="146.5,-302.5 146.5,-321.5 251.5,-321.5 251.5,-302.5 146.5,-302.5"/>
<text text-anchor="middle" x="199" y="-309.5" font-family="Helvetica,sans-Serif" font-size="10.00">tl/function_ref.hpp</text>
</a>
</g>
</g>
<!-- Node2&#45;&gt;Node7 -->
<g id="edge6" class="edge">
<title>Node2&#45;&gt;Node7</title>
<path fill="none" stroke="midnightblue" d="M244.08,-358.08C236.22,-350.22 224.57,-338.57 215.08,-329.08"/>
<polygon fill="midnightblue" stroke="midnightblue" points="217.3,-326.35 207.75,-321.75 212.35,-331.3 217.3,-326.35"/>
</g>
<!-- Node8&#45;&gt;Node6 -->
<g id="edge8" class="edge">
<title>Node8&#45;&gt;Node6</title>
<path fill="none" stroke="midnightblue" d="M403.54,-358.08C399.85,-350.69 394.48,-339.95 389.91,-330.81"/>
<polygon fill="midnightblue" stroke="midnightblue" points="392.98,-329.13 385.38,-321.75 386.72,-332.26 392.98,-329.13"/>
</g>
<!-- Node9 -->
<g id="node9" class="node">
<title>Node9</title>
<g id="a_node9"><a xlink:href="_manifold_8hpp.html" target="_top" xlink:title="Data structures for manifolds.">
<polygon fill="white" stroke="black" points="756,-302.5 756,-321.5 836,-321.5 836,-302.5 756,-302.5"/>
<text text-anchor="middle" x="796" y="-309.5" font-family="Helvetica,sans-Serif" font-size="10.00">Manifold.hpp</text>
</a>
</g>
</g>
<!-- Node8&#45;&gt;Node9 -->
<g id="edge9" class="edge">
<title>Node8&#45;&gt;Node9</title>
<path fill="none" stroke="midnightblue" d="M469.48,-358.44C545.96,-347.8 675.06,-329.83 745.85,-319.98"/>
<polygon fill="midnightblue" stroke="midnightblue" points="746.44,-323.43 755.86,-318.59 745.47,-316.5 746.44,-323.43"/>
</g>
<!-- Node45 -->
<g id="node45" class="node">
<title>Node45</title>
<g id="a_node45"><a xlink:href="_move__tracker_8hpp.html" target="_top" xlink:title="Track ergodic moves.">
<polygon fill="white" stroke="black" points="593.5,-190.5 593.5,-209.5 696.5,-209.5 696.5,-190.5 593.5,-190.5"/>
<text text-anchor="middle" x="645" y="-197.5" font-family="Helvetica,sans-Serif" font-size="10.00">Move_tracker.hpp</text>
</a>
</g>
</g>
<!-- Node8&#45;&gt;Node45 -->
<g id="edge48" class="edge">
<title>Node8&#45;&gt;Node45</title>
<path fill="none" stroke="midnightblue" d="M420.41,-358.31C458.88,-331.36 576.46,-249.01 624.36,-215.46"/>
<polygon fill="midnightblue" stroke="midnightblue" points="626.53,-218.21 632.71,-209.61 622.52,-212.48 626.53,-218.21"/>
</g>
<!-- Node10 -->
<g id="node10" class="node">
<title>Node10</title>
<g id="a_node10"><a xlink:title=" ">
<polygon fill="white" stroke="#bfbfbf" points="687.5,-134.5 687.5,-153.5 740.5,-153.5 740.5,-134.5 687.5,-134.5"/>
<text text-anchor="middle" x="714" y="-141.5" font-family="Helvetica,sans-Serif" font-size="10.00">cstddef</text>
</a>
</g>
</g>
<!-- Node9&#45;&gt;Node10 -->
<g id="edge10" class="edge">
<title>Node9&#45;&gt;Node10</title>
<path fill="none" stroke="midnightblue" d="M781.92,-302.41C770.04,-294.43 753.49,-281.47 744,-266 724.17,-233.67 717.43,-188.9 715.15,-163.87"/>
<polygon fill="midnightblue" stroke="midnightblue" points="718.62,-163.3 714.37,-153.6 711.64,-163.83 718.62,-163.3"/>
</g>
<!-- Node11 -->
<g id="node11" class="node">
<title>Node11</title>
<g id="a_node11"><a xlink:title=" ">
<polygon fill="white" stroke="#bfbfbf" points="753,-246.5 753,-265.5 839,-265.5 839,-246.5 753,-246.5"/>
<text text-anchor="middle" x="796" y="-253.5" font-family="Helvetica,sans-Serif" font-size="10.00">unordered_set</text>
</a>
</g>
</g>
<!-- Node9&#45;&gt;Node11 -->
<g id="edge11" class="edge">
<title>Node9&#45;&gt;Node11</title>
<path fill="none" stroke="midnightblue" d="M796,-302.08C796,-295.01 796,-284.86 796,-275.99"/>
<polygon fill="midnightblue" stroke="midnightblue" points="799.5,-275.75 796,-265.75 792.5,-275.75 799.5,-275.75"/>
</g>
<!-- Node12 -->
<g id="node12" class="node">
<title>Node12</title>
<g id="a_node12"><a xlink:title=" ">
<polygon fill="white" stroke="#bfbfbf" points="857.5,-246.5 857.5,-265.5 902.5,-265.5 902.5,-246.5 857.5,-246.5"/>
<text text-anchor="middle" x="880" y="-253.5" font-family="Helvetica,sans-Serif" font-size="10.00">utility</text>
</a>
</g>
</g>
<!-- Node9&#45;&gt;Node12 -->
<g id="edge12" class="edge">
<title>Node9&#45;&gt;Node12</title>
<path fill="none" stroke="midnightblue" d="M809.5,-302.32C822.6,-293.9 842.71,-280.97 858.11,-271.07"/>
<polygon fill="midnightblue" stroke="midnightblue" points="860.02,-274.01 866.54,-265.65 856.23,-268.12 860.02,-274.01"/>
</g>
<!-- Node13 -->
<g id="node13" class="node">
<title>Node13</title>
<g id="a_node13"><a xlink:href="_geometry_8hpp.html" target="_top" xlink:title="Geometric scalars of the Manifold used to calculate the Regge action.">
<polygon fill="white" stroke="black" points="1001.5,-246.5 1001.5,-265.5 1086.5,-265.5 1086.5,-246.5 1001.5,-246.5"/>
<text text-anchor="middle" x="1044" y="-253.5" font-family="Helvetica,sans-Serif" font-size="10.00">Geometry.hpp</text>
</a>
</g>
</g>
<!-- Node9&#45;&gt;Node13 -->
<g id="edge13" class="edge">
<title>Node9&#45;&gt;Node13</title>
<path fill="none" stroke="midnightblue" d="M835.3,-302.44C878.56,-293.02 948.17,-277.87 994.97,-267.68"/>
<polygon fill="midnightblue" stroke="midnightblue" points="995.86,-271.06 1004.89,-265.52 994.37,-264.22 995.86,-271.06"/>
</g>
<!-- Node14 -->
<g id="node14" class="node">
<title>Node14</title>
<g id="a_node14"><a xlink:href="_foliated__triangulation_8hpp.html" target="_top" xlink:title="Create foliated spherical triangulations.">
<polygon fill="white" stroke="black" points="1068,-190.5 1068,-209.5 1212,-209.5 1212,-190.5 1068,-190.5"/>
<text text-anchor="middle" x="1140" y="-197.5" font-family="Helvetica,sans-Serif" font-size="10.00">Foliated_triangulation.hpp</text>
</a>
</g>
</g>
<!-- Node13&#45;&gt;Node14 -->
<g id="edge14" class="edge">
<title>Node13&#45;&gt;Node14</title>
<path fill="none" stroke="midnightblue" d="M1059.42,-246.32C1074.54,-237.82 1097.82,-224.73 1115.47,-214.8"/>
<polygon fill="midnightblue" stroke="midnightblue" points="1117.61,-217.61 1124.61,-209.65 1114.18,-211.51 1117.61,-217.61"/>
</g>
<!-- Node15 -->
<g id="node15" class="node">
<title>Node15</title>
<g id="a_node15"><a xlink:title=" ">
<polygon fill="white" stroke="#bfbfbf" points="2129,-134.5 2129,-153.5 2189,-153.5 2189,-134.5 2129,-134.5"/>
<text text-anchor="middle" x="2159" y="-141.5" font-family="Helvetica,sans-Serif" font-size="10.00">concepts</text>
</a>
</g>
</g>
<!-- Node14&#45;&gt;Node15 -->
<g id="edge15" class="edge">
<title>Node14&#45;&gt;Node15</title>
<path fill="none" stroke="midnightblue" d="M1212.28,-197.38C1404.45,-192.8 1925.85,-178.57 2118.83,-153.86"/>
<polygon fill="midnightblue" stroke="midnightblue" points="2119.42,-157.31 2128.87,-152.52 2118.49,-150.37 2119.42,-157.31"/>
</g>
<!-- Node16 -->
<g id="node16" class="node">
<title>Node16</title>
<g id="a_node16"><a xlink:href="_triangulation__traits_8hpp.html" target="_top" xlink:title="Traits class for particular uses of CGAL.">
<polygon fill="white" stroke="black" points="1979.5,-134.5 1979.5,-153.5 2110.5,-153.5 2110.5,-134.5 1979.5,-134.5"/>
<text text-anchor="middle" x="2045" y="-141.5" font-family="Helvetica,sans-Serif" font-size="10.00">Triangulation_traits.hpp</text>
</a>
</g>
</g>
<!-- Node14&#45;&gt;Node16 -->
<g id="edge16" class="edge">
<title>Node14&#45;&gt;Node16</title>
<path fill="none" stroke="midnightblue" d="M1212.15,-194.69C1380.4,-184.66 1797.48,-159.77 1969.23,-149.52"/>
<polygon fill="midnightblue" stroke="midnightblue" points="1969.68,-153 1979.45,-148.91 1969.26,-146.01 1969.68,-153"/>
</g>
<!-- Node25 -->
<g id="node25" class="node">
<title>Node25</title>
<g id="a_node25"><a xlink:href="_utilities_8hpp.html" target="_top" xlink:title="Utility functions.">
<polygon fill="white" stroke="black" points="984,-134.5 984,-153.5 1060,-153.5 1060,-134.5 984,-134.5"/>
<text text-anchor="middle" x="1022" y="-141.5" font-family="Helvetica,sans-Serif" font-size="10.00">Utilities.hpp</text>
</a>
</g>
</g>
<!-- Node14&#45;&gt;Node25 -->
<g id="edge25" class="edge">
<title>Node14&#45;&gt;Node25</title>
<path fill="none" stroke="midnightblue" d="M1121.3,-190.44C1102.06,-181.64 1071.85,-167.81 1049.8,-157.72"/>
<polygon fill="midnightblue" stroke="midnightblue" points="1051.16,-154.5 1040.61,-153.52 1048.25,-160.86 1051.16,-154.5"/>
</g>
<!-- Node17 -->
<g id="node17" class="node">
<title>Node17</title>
<g id="a_node17"><a xlink:title=" ">
<polygon fill="white" stroke="#bfbfbf" points="2047,-67.5 2047,-86.5 2227,-86.5 2227,-67.5 2047,-67.5"/>
<text text-anchor="middle" x="2137" y="-74.5" font-family="Helvetica,sans-Serif" font-size="10.00">CGAL/Delaunay_triangulation_3.h</text>
</a>
</g>
</g>
<!-- Node16&#45;&gt;Node17 -->
<g id="edge17" class="edge">
<title>Node16&#45;&gt;Node17</title>
<path fill="none" stroke="midnightblue" d="M2057.41,-134.23C2072.58,-123.51 2098.48,-105.22 2116.6,-92.41"/>
<polygon fill="midnightblue" stroke="midnightblue" points="2118.64,-95.26 2124.79,-86.63 2114.6,-89.54 2118.64,-95.26"/>
</g>
<!-- Node18 -->
<g id="node18" class="node">
<title>Node18</title>
<g id="a_node18"><a xlink:title=" ">
<polygon fill="white" stroke="#bfbfbf" points="2245.5,-56.5 2245.5,-97.5 2374.5,-97.5 2374.5,-56.5 2245.5,-56.5"/>
<text text-anchor="start" x="2253.5" y="-85.5" font-family="Helvetica,sans-Serif" font-size="10.00">CGAL/Exact_predicates</text>
<text text-anchor="start" x="2253.5" y="-74.5" font-family="Helvetica,sans-Serif" font-size="10.00">_inexact_constructions</text>
<text text-anchor="middle" x="2310" y="-63.5" font-family="Helvetica,sans-Serif" font-size="10.00">_kernel.h</text>
</a>
</g>
</g>
<!-- Node16&#45;&gt;Node18 -->
<g id="edge18" class="edge">
<title>Node16&#45;&gt;Node18</title>
<path fill="none" stroke="midnightblue" d="M2082.78,-134.48C2119.34,-126.15 2176.56,-112.9 2235.59,-98.07"/>
<polygon fill="midnightblue" stroke="midnightblue" points="2236.62,-101.42 2245.46,-95.58 2234.91,-94.63 2236.62,-101.42"/>
</g>
<!-- Node19 -->
<g id="node19" class="node">
<title>Node19</title>
<g id="a_node19"><a xlink:title=" ">
<polygon fill="white" stroke="#bfbfbf" points="2392.5,-67.5 2392.5,-86.5 2541.5,-86.5 2541.5,-67.5 2392.5,-67.5"/>
<text text-anchor="middle" x="2467" y="-74.5" font-family="Helvetica,sans-Serif" font-size="10.00">CGAL/point_generators_3.h</text>
</a>
</g>
</g>
<!-- Node16&#45;&gt;Node19 -->
<g id="edge19" class="edge">
<title>Node16&#45;&gt;Node19</title>
<path fill="none" stroke="midnightblue" d="M2110.72,-135.11C2194.06,-124.95 2333.08,-107.49 2384,-98 2397.34,-95.51 2411.75,-92.25 2424.76,-89.08"/>
<polygon fill="midnightblue" stroke="midnightblue" points="2425.98,-92.38 2434.85,-86.58 2424.3,-85.59 2425.98,-92.38"/>
</g>
<!-- Node20 -->
<g id="node20" class="node">
<title>Node20</title>
<g id="a_node20"><a xlink:title=" ">
<polygon fill="white" stroke="#bfbfbf" points="2560,-62 2560,-92 2698,-92 2698,-62 2560,-62"/>
<text text-anchor="start" x="2568" y="-80" font-family="Helvetica,sans-Serif" font-size="10.00">CGAL/Triangulation</text>
<text text-anchor="middle" x="2629" y="-69" font-family="Helvetica,sans-Serif" font-size="10.00">_cell_base_with_info_3.h</text>
</a>
</g>
</g>
<!-- Node16&#45;&gt;Node20 -->
<g id="edge20" class="edge">
<title>Node16&#45;&gt;Node20</title>
<path fill="none" stroke="midnightblue" d="M2110.84,-134.96C2113.93,-134.63 2117,-134.31 2120,-134 2311.24,-114.55 2361.46,-129.98 2551,-98 2557.06,-96.98 2563.34,-95.72 2569.59,-94.33"/>
<polygon fill="midnightblue" stroke="midnightblue" points="2570.39,-97.73 2579.33,-92.06 2568.8,-90.92 2570.39,-97.73"/>
</g>
<!-- Node21 -->
<g id="node21" class="node">
<title>Node21</title>
<g id="a_node21"><a xlink:title=" ">
<polygon fill="white" stroke="#bfbfbf" points="1877,-62 1877,-92 2029,-92 2029,-62 1877,-62"/>
<text text-anchor="start" x="1885" y="-80" font-family="Helvetica,sans-Serif" font-size="10.00">CGAL/Triangulation</text>
<text text-anchor="middle" x="1953" y="-69" font-family="Helvetica,sans-Serif" font-size="10.00">_vertex_base_with_info_3.h</text>
</a>
</g>
</g>
<!-- Node16&#45;&gt;Node21 -->
<g id="edge21" class="edge">
<title>Node16&#45;&gt;Node21</title>
<path fill="none" stroke="midnightblue" d="M2032.59,-134.23C2019.56,-125.03 1998.62,-110.23 1981.49,-98.13"/>
<polygon fill="midnightblue" stroke="midnightblue" points="1983.13,-95 1972.94,-92.09 1979.09,-100.72 1983.13,-95"/>
</g>
<!-- Node22 -->
<g id="node22" class="node">
<title>Node22</title>
<g id="a_node22"><a xlink:href="_settings_8hpp.html" target="_top" xlink:title="Global integer and precision settings.">
<polygon fill="white" stroke="black" points="1781.5,-67.5 1781.5,-86.5 1858.5,-86.5 1858.5,-67.5 1781.5,-67.5"/>
<text text-anchor="middle" x="1820" y="-74.5" font-family="Helvetica,sans-Serif" font-size="10.00">Settings.hpp</text>
</a>
</g>
</g>
<!-- Node16&#45;&gt;Node22 -->
<g id="edge22" class="edge">
<title>Node16&#45;&gt;Node22</title>
<path fill="none" stroke="midnightblue" d="M2004.45,-134.46C1968.25,-126.42 1914.02,-113.35 1868,-98 1861.59,-95.86 1854.83,-93.27 1848.47,-90.66"/>
<polygon fill="midnightblue" stroke="midnightblue" points="1849.48,-87.29 1838.91,-86.63 1846.76,-93.74 1849.48,-87.29"/>
</g>
<!-- Node23 -->
<g id="node23" class="node">
<title>Node23</title>
<g id="a_node23"><a xlink:title=" ">
<polygon fill="white" stroke="#bfbfbf" points="1693,-0.5 1693,-19.5 1833,-19.5 1833,-0.5 1693,-0.5"/>
<text text-anchor="middle" x="1763" y="-7.5" font-family="Helvetica,sans-Serif" font-size="10.00">CGAL/GMP/Gmpzf_type.h</text>
</a>
</g>
</g>
<!-- Node22&#45;&gt;Node23 -->
<g id="edge23" class="edge">
<title>Node22&#45;&gt;Node23</title>
<path fill="none" stroke="midnightblue" d="M1812.31,-67.23C1803.34,-57 1788.31,-39.86 1777.2,-27.19"/>
<polygon fill="midnightblue" stroke="midnightblue" points="1779.79,-24.84 1770.57,-19.63 1774.53,-29.45 1779.79,-24.84"/>
</g>
<!-- Node24 -->
<g id="node24" class="node">
<title>Node24</title>
<g id="a_node24"><a xlink:title=" ">
<polygon fill="white" stroke="#bfbfbf" points="1851,-0.5 1851,-19.5 1901,-19.5 1901,-0.5 1851,-0.5"/>
<text text-anchor="middle" x="1876" y="-7.5" font-family="Helvetica,sans-Serif" font-size="10.00">cstdint</text>
</a>
</g>
</g>
<!-- Node22&#45;&gt;Node24 -->
<g id="edge24" class="edge">
<title>Node22&#45;&gt;Node24</title>
<path fill="none" stroke="midnightblue" d="M1827.55,-67.23C1836.28,-57.1 1850.85,-40.19 1861.74,-27.56"/>
<polygon fill="midnightblue" stroke="midnightblue" points="1864.69,-29.49 1868.57,-19.63 1859.39,-24.92 1864.69,-29.49"/>
</g>
<!-- Node25&#45;&gt;Node3 -->
<g id="edge46" class="edge">
<title>Node25&#45;&gt;Node3</title>
<path fill="none" stroke="midnightblue" d="M983.91,-141.65C828.38,-136.06 245.9,-114.21 165,-98 156.05,-96.21 146.6,-93.27 138.07,-90.19"/>
<polygon fill="midnightblue" stroke="midnightblue" points="139.15,-86.85 128.56,-86.57 136.66,-93.39 139.15,-86.85"/>
</g>
<!-- Node25&#45;&gt;Node5 -->
<g id="edge38" class="edge">
<title>Node25&#45;&gt;Node5</title>
<path fill="none" stroke="midnightblue" d="M983.93,-141.79C810.08,-136.18 98.04,-112.41 53,-98 48.75,-96.64 44.51,-94.53 40.59,-92.19"/>
<polygon fill="midnightblue" stroke="midnightblue" points="42.44,-89.22 32.19,-86.54 38.53,-95.03 42.44,-89.22"/>
</g>
<!-- Node25&#45;&gt;Node22 -->
<g id="edge47" class="edge">
<title>Node25&#45;&gt;Node22</title>
<path fill="none" stroke="midnightblue" d="M1060.29,-142.43C1193.4,-140.18 1635.37,-130.38 1773,-98 1780.08,-96.34 1787.44,-93.69 1794.18,-90.85"/>
<polygon fill="midnightblue" stroke="midnightblue" points="1795.82,-93.96 1803.51,-86.67 1792.95,-87.57 1795.82,-93.96"/>
</g>
<!-- Node26 -->
<g id="node26" class="node">
<title>Node26</title>
<g id="a_node26"><a xlink:title=" ">
<polygon fill="white" stroke="#bfbfbf" points="934.5,-67.5 934.5,-86.5 1017.5,-86.5 1017.5,-67.5 934.5,-67.5"/>
<text text-anchor="middle" x="976" y="-74.5" font-family="Helvetica,sans-Serif" font-size="10.00">CGAL/Timer.h</text>
</a>
</g>
</g>
<!-- Node25&#45;&gt;Node26 -->
<g id="edge26" class="edge">
<title>Node25&#45;&gt;Node26</title>
<path fill="none" stroke="midnightblue" d="M1015.8,-134.23C1008.69,-124.2 996.89,-107.51 987.98,-94.92"/>
<polygon fill="midnightblue" stroke="midnightblue" points="990.74,-92.77 982.11,-86.63 985.03,-96.81 990.74,-92.77"/>
</g>
<!-- Node27 -->
<g id="node27" class="node">
<title>Node27</title>
<g id="a_node27"><a xlink:title=" ">
<polygon fill="white" stroke="#bfbfbf" points="1036,-67.5 1036,-86.5 1100,-86.5 1100,-67.5 1036,-67.5"/>
<text text-anchor="middle" x="1068" y="-74.5" font-family="Helvetica,sans-Serif" font-size="10.00">algorithm</text>
</a>
</g>
</g>
<!-- Node25&#45;&gt;Node27 -->
<g id="edge27" class="edge">
<title>Node25&#45;&gt;Node27</title>
<path fill="none" stroke="midnightblue" d="M1028.2,-134.23C1035.31,-124.2 1047.11,-107.51 1056.02,-94.92"/>
<polygon fill="midnightblue" stroke="midnightblue" points="1058.97,-96.81 1061.89,-86.63 1053.26,-92.77 1058.97,-96.81"/>
</g>
<!-- Node28 -->
<g id="node28" class="node">
<title>Node28</title>
<g id="a_node28"><a xlink:title=" ">
<polygon fill="white" stroke="#bfbfbf" points="1118,-67.5 1118,-86.5 1170,-86.5 1170,-67.5 1118,-67.5"/>
<text text-anchor="middle" x="1144" y="-74.5" font-family="Helvetica,sans-Serif" font-size="10.00">cassert</text>
</a>
</g>
</g>
<!-- Node25&#45;&gt;Node28 -->
<g id="edge28" class="edge">
<title>Node25&#45;&gt;Node28</title>
<path fill="none" stroke="midnightblue" d="M1039.11,-134.41C1056.74,-125.51 1084.95,-111.08 1109,-98 1112.8,-95.93 1116.81,-93.69 1120.71,-91.49"/>
<polygon fill="midnightblue" stroke="midnightblue" points="1122.48,-94.51 1129.43,-86.51 1119.01,-88.43 1122.48,-94.51"/>
</g>
<!-- Node29 -->
<g id="node29" class="node">
<title>Node29</title>
<g id="a_node29"><a xlink:title=" ">
<polygon fill="white" stroke="#bfbfbf" points="1188.5,-67.5 1188.5,-86.5 1237.5,-86.5 1237.5,-67.5 1188.5,-67.5"/>
<text text-anchor="middle" x="1213" y="-74.5" font-family="Helvetica,sans-Serif" font-size="10.00">cstdlib</text>
</a>
</g>
</g>
<!-- Node25&#45;&gt;Node29 -->
<g id="edge29" class="edge">
<title>Node25&#45;&gt;Node29</title>
<path fill="none" stroke="midnightblue" d="M1060.04,-134.95C1092.42,-127.43 1139.79,-114.83 1179,-98 1183.11,-96.24 1187.33,-94.07 1191.34,-91.83"/>
<polygon fill="midnightblue" stroke="midnightblue" points="1193.35,-94.7 1200.17,-86.59 1189.78,-88.68 1193.35,-94.7"/>
</g>
<!-- Node30 -->
<g id="node30" class="node">
<title>Node30</title>
<g id="a_node30"><a xlink:title=" ">
<polygon fill="white" stroke="#bfbfbf" points="1256,-67.5 1256,-86.5 1324,-86.5 1324,-67.5 1256,-67.5"/>
<text text-anchor="middle" x="1290" y="-74.5" font-family="Helvetica,sans-Serif" font-size="10.00">filesystem</text>
</a>
</g>
</g>
<!-- Node25&#45;&gt;Node30 -->
<g id="edge30" class="edge">
<title>Node25&#45;&gt;Node30</title>
<path fill="none" stroke="midnightblue" d="M1060.13,-138.2C1105.46,-131.85 1183.02,-118.95 1247,-98 1252.91,-96.06 1259.09,-93.53 1264.85,-90.91"/>
<polygon fill="midnightblue" stroke="midnightblue" points="1266.51,-94 1274.03,-86.53 1263.5,-87.68 1266.51,-94"/>
</g>
<!-- Node31 -->
<g id="node31" class="node">
<title>Node31</title>
<g id="a_node31"><a xlink:title=" ">
<polygon fill="white" stroke="#bfbfbf" points="1342.5,-67.5 1342.5,-86.5 1397.5,-86.5 1397.5,-67.5 1342.5,-67.5"/>
<text text-anchor="middle" x="1370" y="-74.5" font-family="Helvetica,sans-Serif" font-size="10.00">fstream</text>
</a>
</g>
</g>
<!-- Node25&#45;&gt;Node31 -->
<g id="edge31" class="edge">
<title>Node25&#45;&gt;Node31</title>
<path fill="none" stroke="midnightblue" d="M1060.32,-141.76C1120.02,-138.89 1238.22,-129.37 1333,-98 1337.94,-96.37 1343,-94.09 1347.72,-91.66"/>
<polygon fill="midnightblue" stroke="midnightblue" points="1349.77,-94.52 1356.81,-86.61 1346.37,-88.41 1349.77,-94.52"/>
</g>
<!-- Node32 -->
<g id="node32" class="node">
<title>Node32</title>
<g id="a_node32"><a xlink:title=" ">
<polygon fill="white" stroke="#bfbfbf" points="1416,-67.5 1416,-86.5 1464,-86.5 1464,-67.5 1416,-67.5"/>
<text text-anchor="middle" x="1440" y="-74.5" font-family="Helvetica,sans-Serif" font-size="10.00">gsl/gsl</text>
</a>
</g>
</g>
<!-- Node25&#45;&gt;Node32 -->
<g id="edge32" class="edge">
<title>Node25&#45;&gt;Node32</title>
<path fill="none" stroke="midnightblue" d="M1060.07,-143.84C1130.55,-144.25 1285.27,-139.78 1407,-98 1411.47,-96.47 1415.98,-94.26 1420.17,-91.87"/>
<polygon fill="midnightblue" stroke="midnightblue" points="1422.08,-94.8 1428.69,-86.52 1418.36,-88.87 1422.08,-94.8"/>
</g>
<!-- Node33 -->
<g id="node33" class="node">
<title>Node33</title>
<g id="a_node33"><a xlink:title=" ">
<polygon fill="white" stroke="#bfbfbf" points="1482,-67.5 1482,-86.5 1542,-86.5 1542,-67.5 1482,-67.5"/>
<text text-anchor="middle" x="1512" y="-74.5" font-family="Helvetica,sans-Serif" font-size="10.00">iostream</text>
</a>
</g>
</g>
<!-- Node25&#45;&gt;Node33 -->
<g id="edge33" class="edge">
<title>Node25&#45;&gt;Node33</title>
<path fill="none" stroke="midnightblue" d="M1060.04,-141.03C1154.15,-135.87 1395.83,-120.75 1473,-98 1478.57,-96.36 1484.28,-93.92 1489.55,-91.31"/>
<polygon fill="midnightblue" stroke="midnightblue" points="1491.28,-94.35 1498.45,-86.55 1487.98,-88.18 1491.28,-94.35"/>
</g>
<!-- Node34 -->
<g id="node34" class="node">
<title>Node34</title>
<g id="a_node34"><a xlink:title=" ">
<polygon fill="white" stroke="#bfbfbf" points="1560,-67.5 1560,-86.5 1608,-86.5 1608,-67.5 1560,-67.5"/>
<text text-anchor="middle" x="1584" y="-74.5" font-family="Helvetica,sans-Serif" font-size="10.00">mutex</text>
</a>
</g>
</g>
<!-- Node25&#45;&gt;Node34 -->
<g id="edge34" class="edge">
<title>Node25&#45;&gt;Node34</title>
<path fill="none" stroke="midnightblue" d="M1060.06,-142.01C1165.49,-138.92 1459.53,-127.79 1551,-98 1555.49,-96.54 1560.01,-94.36 1564.21,-91.98"/>
<polygon fill="midnightblue" stroke="midnightblue" points="1566.13,-94.91 1572.73,-86.62 1562.4,-88.98 1566.13,-94.91"/>
</g>
<!-- Node35 -->
<g id="node35" class="node">
<title>Node35</title>
<g id="a_node35"><a xlink:title=" ">
<polygon fill="white" stroke="#bfbfbf" points="1626,-67.5 1626,-86.5 1680,-86.5 1680,-67.5 1626,-67.5"/>
<text text-anchor="middle" x="1653" y="-74.5" font-family="Helvetica,sans-Serif" font-size="10.00">random</text>
</a>
</g>
</g>
<!-- Node25&#45;&gt;Node35 -->
<g id="edge35" class="edge">
<title>Node25&#45;&gt;Node35</title>
<path fill="none" stroke="midnightblue" d="M1060.17,-142.25C1174.4,-139.65 1512.06,-129.46 1617,-98 1621.96,-96.51 1627,-94.27 1631.67,-91.81"/>
<polygon fill="midnightblue" stroke="midnightblue" points="1633.7,-94.68 1640.6,-86.64 1630.19,-88.62 1633.7,-94.68"/>
</g>
<!-- Node36 -->
<g id="node36" class="node">
<title>Node36</title>
<g id="a_node36"><a xlink:title=" ">
<polygon fill="white" stroke="#bfbfbf" points="174,-67.5 174,-86.5 214,-86.5 214,-67.5 174,-67.5"/>
<text text-anchor="middle" x="194" y="-74.5" font-family="Helvetica,sans-Serif" font-size="10.00">span</text>
</a>
</g>
</g>
<!-- Node25&#45;&gt;Node36 -->
<g id="edge36" class="edge">
<title>Node25&#45;&gt;Node36</title>
<path fill="none" stroke="midnightblue" d="M983.84,-141.43C829.68,-134.99 259.35,-110.45 223,-98 219.08,-96.66 215.2,-94.62 211.61,-92.35"/>
<polygon fill="midnightblue" stroke="midnightblue" points="213.62,-89.49 203.46,-86.51 209.55,-95.18 213.62,-89.49"/>
</g>
<!-- Node37 -->
<g id="node37" class="node">
<title>Node37</title>
<g id="a_node37"><a xlink:title=" ">
<polygon fill="white" stroke="#bfbfbf" points="1698.5,-67.5 1698.5,-86.5 1763.5,-86.5 1763.5,-67.5 1698.5,-67.5"/>
<text text-anchor="middle" x="1731" y="-74.5" font-family="Helvetica,sans-Serif" font-size="10.00">stdexcept</text>
</a>
</g>
</g>
<!-- Node25&#45;&gt;Node37 -->
<g id="edge37" class="edge">
<title>Node25&#45;&gt;Node37</title>
<path fill="none" stroke="midnightblue" d="M1060.27,-142.3C1183.48,-139.76 1568.86,-129.43 1689,-98 1695.11,-96.4 1701.4,-93.92 1707.19,-91.23"/>
<polygon fill="midnightblue" stroke="midnightblue" points="1708.98,-94.25 1716.36,-86.65 1705.85,-87.99 1708.98,-94.25"/>
</g>
<!-- Node38 -->
<g id="node38" class="node">
<title>Node38</title>
<g id="a_node38"><a xlink:title=" ">
<polygon fill="white" stroke="#bfbfbf" points="232.5,-67.5 232.5,-86.5 297.5,-86.5 297.5,-67.5 232.5,-67.5"/>
<text text-anchor="middle" x="265" y="-74.5" font-family="Helvetica,sans-Serif" font-size="10.00">typeindex</text>
</a>
</g>
</g>
<!-- Node25&#45;&gt;Node38 -->
<g id="edge39" class="edge">
<title>Node25&#45;&gt;Node38</title>
<path fill="none" stroke="midnightblue" d="M983.69,-141.47C844.7,-135.78 371.63,-115.34 306,-98 300.02,-96.42 293.86,-93.94 288.2,-91.26"/>
<polygon fill="midnightblue" stroke="midnightblue" points="289.76,-88.12 279.26,-86.67 286.57,-94.35 289.76,-88.12"/>
</g>
<!-- Node39 -->
<g id="node39" class="node">
<title>Node39</title>
<g id="a_node39"><a xlink:title=" ">
<polygon fill="white" stroke="#bfbfbf" points="315.5,-67.5 315.5,-86.5 374.5,-86.5 374.5,-67.5 315.5,-67.5"/>
<text text-anchor="middle" x="345" y="-74.5" font-family="Helvetica,sans-Serif" font-size="10.00">date/tz.h</text>
</a>
</g>
</g>
<!-- Node25&#45;&gt;Node39 -->
<g id="edge40" class="edge">
<title>Node25&#45;&gt;Node39</title>
<path fill="none" stroke="midnightblue" d="M983.92,-141.21C855.29,-135.02 441.69,-114.1 384,-98 378.41,-96.44 372.69,-94.04 367.42,-91.43"/>
<polygon fill="midnightblue" stroke="midnightblue" points="368.99,-88.3 358.52,-86.65 365.68,-94.47 368.99,-88.3"/>
</g>
<!-- Node40 -->
<g id="node40" class="node">
<title>Node40</title>
<g id="a_node40"><a xlink:title=" ">
<polygon fill="white" stroke="#bfbfbf" points="393,-67.5 393,-86.5 443,-86.5 443,-67.5 393,-67.5"/>
<text text-anchor="middle" x="418" y="-74.5" font-family="Helvetica,sans-Serif" font-size="10.00">chrono</text>
</a>
</g>
</g>
<!-- Node25&#45;&gt;Node40 -->
<g id="edge41" class="edge">
<title>Node25&#45;&gt;Node40</title>
<path fill="none" stroke="midnightblue" d="M983.83,-142.22C872.81,-139.59 551.65,-129.4 452,-98 447.39,-96.55 442.74,-94.38 438.43,-92"/>
<polygon fill="midnightblue" stroke="midnightblue" points="440,-88.86 429.64,-86.64 436.36,-94.84 440,-88.86"/>
</g>
<!-- Node41 -->
<g id="node41" class="node">
<title>Node41</title>
<g id="a_node41"><a xlink:title=" ">
<polygon fill="white" stroke="#bfbfbf" points="461,-67.5 461,-86.5 559,-86.5 559,-67.5 461,-67.5"/>
<text text-anchor="middle" x="510" y="-74.5" font-family="Helvetica,sans-Serif" font-size="10.00">pcg_random.hpp</text>
</a>
</g>
</g>
<!-- Node25&#45;&gt;Node41 -->
<g id="edge42" class="edge">
<title>Node25&#45;&gt;Node41</title>
<path fill="none" stroke="midnightblue" d="M983.87,-142.21C905.21,-139.93 719.65,-131.19 568,-98 558.85,-96 549.15,-93.01 540.35,-89.96"/>
<polygon fill="midnightblue" stroke="midnightblue" points="541.47,-86.64 530.87,-86.52 539.08,-93.22 541.47,-86.64"/>
</g>
<!-- Node42 -->
<g id="node42" class="node">
<title>Node42</title>
<g id="a_node42"><a xlink:title=" ">
<polygon fill="white" stroke="#bfbfbf" points="577,-67.5 577,-86.5 663,-86.5 663,-67.5 577,-67.5"/>
<text text-anchor="middle" x="620" y="-74.5" font-family="Helvetica,sans-Serif" font-size="10.00">fmt/ostream.h</text>
</a>
</g>
</g>
<!-- Node25&#45;&gt;Node42 -->
<g id="edge43" class="edge">
<title>Node25&#45;&gt;Node42</title>
<path fill="none" stroke="midnightblue" d="M983.89,-141.09C918.99,-137.17 783.22,-126.11 672,-98 664.18,-96.02 655.93,-93.21 648.36,-90.32"/>
<polygon fill="midnightblue" stroke="midnightblue" points="649.49,-87 638.91,-86.53 646.89,-93.5 649.49,-87"/>
</g>
<!-- Node43 -->
<g id="node43" class="node">
<title>Node43</title>
<g id="a_node43"><a xlink:title=" ">
<polygon fill="white" stroke="#bfbfbf" points="681,-62 681,-92 787,-92 787,-62 681,-62"/>
<text text-anchor="start" x="689" y="-80" font-family="Helvetica,sans-Serif" font-size="10.00">spdlog/sinks/basic</text>
<text text-anchor="middle" x="734" y="-69" font-family="Helvetica,sans-Serif" font-size="10.00">_file_sink.h</text>
</a>
</g>
</g>
<!-- Node25&#45;&gt;Node43 -->
<g id="edge44" class="edge">
<title>Node25&#45;&gt;Node43</title>
<path fill="none" stroke="midnightblue" d="M983.89,-136.7C938.91,-128.95 862,-114.76 797,-98 793.4,-97.07 789.7,-96.06 785.99,-94.99"/>
<polygon fill="midnightblue" stroke="midnightblue" points="786.76,-91.57 776.18,-92.09 784.77,-98.29 786.76,-91.57"/>
</g>
<!-- Node44 -->
<g id="node44" class="node">
<title>Node44</title>
<g id="a_node44"><a xlink:title=" ">
<polygon fill="white" stroke="#bfbfbf" points="805.5,-62 805.5,-92 916.5,-92 916.5,-62 805.5,-62"/>
<text text-anchor="start" x="813.5" y="-80" font-family="Helvetica,sans-Serif" font-size="10.00">spdlog/sinks/stdout</text>
<text text-anchor="middle" x="861" y="-69" font-family="Helvetica,sans-Serif" font-size="10.00">_color_sinks.h</text>
</a>
</g>
</g>
<!-- Node25&#45;&gt;Node44 -->
<g id="edge45" class="edge">
<title>Node25&#45;&gt;Node44</title>
<path fill="none" stroke="midnightblue" d="M1000.62,-134.37C976.36,-124.57 936.12,-108.33 905.06,-95.79"/>
<polygon fill="midnightblue" stroke="midnightblue" points="906.33,-92.53 895.75,-92.03 903.71,-99.02 906.33,-92.53"/>
</g>
<!-- Node45&#45;&gt;Node10 -->
<g id="edge50" class="edge">
<title>Node45&#45;&gt;Node10</title>
<path fill="none" stroke="midnightblue" d="M656.09,-190.32C666.49,-182.18 682.26,-169.84 694.72,-160.09"/>
<polygon fill="midnightblue" stroke="midnightblue" points="696.99,-162.75 702.71,-153.83 692.68,-157.24 696.99,-162.75"/>
</g>
<!-- Node45&#45;&gt;Node22 -->
<g id="edge53" class="edge">
<title>Node45&#45;&gt;Node22</title>
<path fill="none" stroke="midnightblue" d="M696.78,-196.51C889.45,-186.93 1564.53,-150.3 1773,-98 1780.05,-96.23 1787.4,-93.54 1794.14,-90.71"/>
<polygon fill="midnightblue" stroke="midnightblue" points="1795.77,-93.82 1803.47,-86.54 1792.92,-87.42 1795.77,-93.82"/>
</g>
<!-- Node45&#45;&gt;Node25 -->
<g id="edge54" class="edge">
<title>Node45&#45;&gt;Node25</title>
<path fill="none" stroke="midnightblue" d="M696.63,-191.6C769.77,-181.13 902.54,-162.11 973.77,-151.91"/>
<polygon fill="midnightblue" stroke="midnightblue" points="974.42,-155.35 983.82,-150.47 973.43,-148.42 974.42,-155.35"/>
</g>
<!-- Node45&#45;&gt;Node36 -->
<g id="edge52" class="edge">
<title>Node45&#45;&gt;Node36</title>
<path fill="none" stroke="midnightblue" d="M646.95,-190.37C649.55,-176.34 652.22,-148.68 637,-134 570.54,-69.88 309.9,-129.25 223,-98 219.27,-96.66 215.57,-94.71 212.12,-92.56"/>
<polygon fill="midnightblue" stroke="midnightblue" points="213.93,-89.55 203.75,-86.63 209.89,-95.26 213.93,-89.55"/>
</g>
<!-- Node46 -->
<g id="node46" class="node">
<title>Node46</title>
<g id="a_node46"><a xlink:title=" ">
<polygon fill="white" stroke="#bfbfbf" points="518,-134.5 518,-153.5 560,-153.5 560,-134.5 518,-134.5"/>
<text text-anchor="middle" x="539" y="-141.5" font-family="Helvetica,sans-Serif" font-size="10.00">array</text>
</a>
</g>
</g>
<!-- Node45&#45;&gt;Node46 -->
<g id="edge49" class="edge">
<title>Node45&#45;&gt;Node46</title>
<path fill="none" stroke="midnightblue" d="M627.97,-190.32C610.97,-181.66 584.62,-168.24 565.01,-158.25"/>
<polygon fill="midnightblue" stroke="midnightblue" points="566.49,-155.08 555.99,-153.65 563.31,-161.31 566.49,-155.08"/>
</g>
<!-- Node47 -->
<g id="node47" class="node">
<title>Node47</title>
<g id="a_node47"><a xlink:title=" ">
<polygon fill="white" stroke="#bfbfbf" points="578,-134.5 578,-153.5 628,-153.5 628,-134.5 578,-134.5"/>
<text text-anchor="middle" x="603" y="-141.5" font-family="Helvetica,sans-Serif" font-size="10.00">gsl/util</text>
</a>
</g>
</g>
<!-- Node45&#45;&gt;Node47 -->
<g id="edge51" class="edge">
<title>Node45&#45;&gt;Node47</title>
<path fill="none" stroke="midnightblue" d="M638.06,-190.08C632.07,-182.38 623.25,-171.03 615.95,-161.65"/>
<polygon fill="midnightblue" stroke="midnightblue" points="618.71,-159.5 609.81,-153.75 613.18,-163.79 618.71,-159.5"/>
</g>
</g>
</svg>
        <g id="navigator" transform="translate(0 0)" fill="#404254">
                <rect fill="#f2f5e9" fill-opacity="0.5" stroke="#606060" stroke-width=".5" x="0" y="0" width="60" height="60"/>
                <use id="zoomplus" xlink:href="#zoomPlus" x="17" y="9" onmousedown="handleZoom(evt,'in')"/>
                <use id="zoomminus" xlink:href="#zoomMin" x="42" y="9" onmousedown="handleZoom(evt,'out')"/>
                <use id="reset" xlink:href="#resetDef" x="30" y="36" onmousedown="handleReset()"/>
                <g id="arrowUp" xlink:href="#dirArrow" transform="translate(30 24)" onmousedown="handlePan(0,-1)">
                  <use xlink:href="#rim" fill="#404040">
                        <set attributeName="fill" to="#808080" begin="arrowUp.mouseover" end="arrowUp.mouseout"/>
                  </use>
                  <path fill="none" stroke="white" stroke-width="1.5" d="M0,-3.0v7 M-2.5,-0.5L0,-3.0L2.5,-0.5"/>
                </g>
                <g id="arrowRight" xlink:href="#dirArrow" transform="rotate(90) translate(36 -43)" onmousedown="handlePan(1,0)">
                  <use xlink:href="#rim" fill="#404040">
                        <set attributeName="fill" to="#808080" begin="arrowRight.mouseover" end="arrowRight.mouseout"/>
                  </use>
                  <path fill="none" stroke="white" stroke-width="1.5" d="M0,-3.0v7 M-2.5,-0.5L0,-3.0L2.5,-0.5"/>
                </g>
                <g id="arrowDown" xlink:href="#dirArrow" transform="rotate(180) translate(-30 -48)" onmousedown="handlePan(0,1)">
                  <use xlink:href="#rim" fill="#404040">
                        <set attributeName="fill" to="#808080" begin="arrowDown.mouseover" end="arrowDown.mouseout"/>
                  </use>
                  <path fill="none" stroke="white" stroke-width="1.5" d="M0,-3.0v7 M-2.5,-0.5L0,-3.0L2.5,-0.5"/>
                </g>
                <g id="arrowLeft" xlink:href="#dirArrow" transform="rotate(270) translate(-36 17)" onmousedown="handlePan(-1,0)">
                  <use xlink:href="#rim" fill="#404040">
                        <set attributeName="fill" to="#808080" begin="arrowLeft.mouseover" end="arrowLeft.mouseout"/>
                  </use>
                  <path fill="none" stroke="white" stroke-width="1.5" d="M0,-3.0v7 M-2.5,-0.5L0,-3.0L2.5,-0.5"/>
                </g>
        </g>
        <svg viewBox="0 0 15 15" width="100%" height="30px" preserveAspectRatio="xMaxYMin meet">
         <g id="arrow_out" transform="scale(0.3 0.3)">
          <a xlink:href="_move__command_8hpp__incl_org.svg" target="_base">
           <rect id="button" ry="5" rx="5" y="6" x="6" height="38" width="38"
                fill="#f2f5e9" fill-opacity="0.5" stroke="#606060" stroke-width="1.0"/>
           <path id="arrow"
             d="M 11.500037,31.436501 C 11.940474,20.09759 22.043105,11.32322 32.158766,21.979434 L 37.068811,17.246167 C 37.068811,17.246167 37.088388,32 37.088388,32 L 22.160133,31.978069 C 22.160133,31.978069 26.997745,27.140456 26.997745,27.140456 C 18.528582,18.264221 13.291696,25.230495 11.500037,31.436501 z"
             style="fill:#404040;"/>
          </a>
         </g>
        </svg>
</svg>
