<?xml version="1.0" encoding="UTF-8" standalone="no"?>
<!DOCTYPE svg PUBLIC "-//W3C//DTD SVG 1.1//EN"
 "http://www.w3.org/Graphics/SVG/1.1/DTD/svg11.dtd">
<!-- Generated by graphviz version 2.43.0 (0)
 -->
<!-- Title: include/Move_strategy.hpp Pages: 1 -->
<svg width="1867pt" height="498pt"
 viewBox="0.00 0.00 1867.00 498.00" xmlns="http://www.w3.org/2000/svg" xmlns:xlink="http://www.w3.org/1999/xlink">
<g id="graph0" class="graph" transform="scale(1 1) rotate(0) translate(4 494)">
<title>include/Move_strategy.hpp</title>
<polygon fill="white" stroke="transparent" points="-4,4 -4,-494 1863,-494 1863,4 -4,4"/>
<!-- Node1 -->
<g id="node1" class="node">
<title>Node1</title>
<g id="a_node1"><a xlink:title="Base class for move algorithms on Delaunay Triangulations.">
<polygon fill="#bfbfbf" stroke="black" points="1508,-470.5 1508,-489.5 1655,-489.5 1655,-470.5 1508,-470.5"/>
<text text-anchor="middle" x="1581.5" y="-477.5" font-family="Helvetica,sans-Serif" font-size="10.00">include/Move_strategy.hpp</text>
</a>
</g>
</g>
<!-- Node2 -->
<g id="node2" class="node">
<title>Node2</title>
<g id="a_node2"><a xlink:href="_move__command_8hpp.html" target="_top" xlink:title="Do ergodic moves using the Command pattern.">
<polygon fill="white" stroke="black" points="1469,-414.5 1469,-433.5 1588,-433.5 1588,-414.5 1469,-414.5"/>
<text text-anchor="middle" x="1528.5" y="-421.5" font-family="Helvetica,sans-Serif" font-size="10.00">Move_command.hpp</text>
</a>
</g>
</g>
<!-- Node1&#45;&gt;Node2 -->
<g id="edge1" class="edge">
<title>Node1&#45;&gt;Node2</title>
<path fill="none" stroke="midnightblue" d="M1572.75,-470.08C1565.03,-462.22 1553.6,-450.57 1544.28,-441.08"/>
<polygon fill="midnightblue" stroke="midnightblue" points="1546.59,-438.44 1537.09,-433.75 1541.6,-443.34 1546.59,-438.44"/>
</g>
<!-- Node45 -->
<g id="node45" class="node">
<title>Node45</title>
<g id="a_node45"><a xlink:title=" ">
<polygon fill="white" stroke="#bfbfbf" points="1606.5,-414.5 1606.5,-433.5 1664.5,-433.5 1664.5,-414.5 1606.5,-414.5"/>
<text text-anchor="middle" x="1635.5" y="-421.5" font-family="Helvetica,sans-Serif" font-size="10.00">memory</text>
</a>
</g>
</g>
<!-- Node1&#45;&gt;Node45 -->
<g id="edge48" class="edge">
<title>Node1&#45;&gt;Node45</title>
<path fill="none" stroke="midnightblue" d="M1590.42,-470.08C1598.28,-462.22 1609.93,-450.57 1619.42,-441.08"/>
<polygon fill="midnightblue" stroke="midnightblue" points="1622.15,-443.3 1626.75,-433.75 1617.2,-438.35 1622.15,-443.3"/>
</g>
<!-- Node3 -->
<g id="node3" class="node">
<title>Node3</title>
<g id="a_node3"><a xlink:href="_apply__move_8hpp.html" target="_top" xlink:title="Apply Pachner moves to foliated Delaunay triangulations.">
<polygon fill="white" stroke="black" points="1544.5,-358.5 1544.5,-377.5 1642.5,-377.5 1642.5,-358.5 1544.5,-358.5"/>
<text text-anchor="middle" x="1593.5" y="-365.5" font-family="Helvetica,sans-Serif" font-size="10.00">Apply_move.hpp</text>
</a>
</g>
</g>
<!-- Node2&#45;&gt;Node3 -->
<g id="edge2" class="edge">
<title>Node2&#45;&gt;Node3</title>
<path fill="none" stroke="midnightblue" d="M1538.94,-414.32C1548.65,-406.26 1563.32,-394.08 1575,-384.37"/>
<polygon fill="midnightblue" stroke="midnightblue" points="1577.41,-386.92 1582.87,-377.83 1572.94,-381.53 1577.41,-386.92"/>
</g>
<!-- Node11 -->
<g id="node11" class="node">
<title>Node11</title>
<g id="a_node11"><a xlink:href="_ergodic__moves__3_8hpp.html" target="_top" xlink:title="Pachner moves on 2+1 dimensional foliated Delaunay triangulations.">
<polygon fill="white" stroke="black" points="1403,-358.5 1403,-377.5 1526,-377.5 1526,-358.5 1403,-358.5"/>
<text text-anchor="middle" x="1464.5" y="-365.5" font-family="Helvetica,sans-Serif" font-size="10.00">Ergodic_moves_3.hpp</text>
</a>
</g>
</g>
<!-- Node2&#45;&gt;Node11 -->
<g id="edge10" class="edge">
<title>Node2&#45;&gt;Node11</title>
<path fill="none" stroke="midnightblue" d="M1518.22,-414.32C1508.66,-406.26 1494.22,-394.08 1482.72,-384.37"/>
<polygon fill="midnightblue" stroke="midnightblue" points="1484.87,-381.61 1474.97,-377.83 1480.36,-386.96 1484.87,-381.61"/>
</g>
<!-- Node4 -->
<g id="node4" class="node">
<title>Node4</title>
<g id="a_node4"><a xlink:href="_function__ref_8hpp.html" target="_top" xlink:title="Efficient, type&#45;erasing, non&#45;owning function reference.">
<polygon fill="white" stroke="black" points="1713,-302.5 1713,-321.5 1810,-321.5 1810,-302.5 1713,-302.5"/>
<text text-anchor="middle" x="1761.5" y="-309.5" font-family="Helvetica,sans-Serif" font-size="10.00">Function_ref.hpp</text>
</a>
</g>
</g>
<!-- Node3&#45;&gt;Node4 -->
<g id="edge3" class="edge">
<title>Node3&#45;&gt;Node4</title>
<path fill="none" stroke="midnightblue" d="M1620.12,-358.44C1648.51,-349.32 1693.64,-334.81 1725.25,-324.65"/>
<polygon fill="midnightblue" stroke="midnightblue" points="1726.56,-327.91 1735,-321.52 1724.41,-321.24 1726.56,-327.91"/>
</g>
<!-- Node8 -->
<g id="node8" class="node">
<title>Node8</title>
<g id="a_node8"><a xlink:title=" ">
<polygon fill="white" stroke="#bfbfbf" points="1630,-302.5 1630,-321.5 1695,-321.5 1695,-302.5 1630,-302.5"/>
<text text-anchor="middle" x="1662.5" y="-309.5" font-family="Helvetica,sans-Serif" font-size="10.00">functional</text>
</a>
</g>
</g>
<!-- Node3&#45;&gt;Node8 -->
<g id="edge7" class="edge">
<title>Node3&#45;&gt;Node8</title>
<path fill="none" stroke="midnightblue" d="M1604.59,-358.32C1614.99,-350.18 1630.76,-337.84 1643.22,-328.09"/>
<polygon fill="midnightblue" stroke="midnightblue" points="1645.49,-330.75 1651.21,-321.83 1641.18,-325.24 1645.49,-330.75"/>
</g>
<!-- Node9 -->
<g id="node9" class="node">
<title>Node9</title>
<g id="a_node9"><a xlink:title=" ">
<polygon fill="white" stroke="#bfbfbf" points="1428,-302.5 1428,-321.5 1501,-321.5 1501,-302.5 1428,-302.5"/>
<text text-anchor="middle" x="1464.5" y="-309.5" font-family="Helvetica,sans-Serif" font-size="10.00">string_view</text>
</a>
</g>
</g>
<!-- Node3&#45;&gt;Node9 -->
<g id="edge8" class="edge">
<title>Node3&#45;&gt;Node9</title>
<path fill="none" stroke="midnightblue" d="M1573.06,-358.44C1551.83,-349.56 1518.4,-335.56 1494.25,-325.45"/>
<polygon fill="midnightblue" stroke="midnightblue" points="1495.42,-322.15 1484.84,-321.52 1492.72,-328.61 1495.42,-322.15"/>
</g>
<!-- Node10 -->
<g id="node10" class="node">
<title>Node10</title>
<g id="a_node10"><a xlink:title=" ">
<polygon fill="white" stroke="#bfbfbf" points="1519.5,-302.5 1519.5,-321.5 1611.5,-321.5 1611.5,-302.5 1519.5,-302.5"/>
<text text-anchor="middle" x="1565.5" y="-309.5" font-family="Helvetica,sans-Serif" font-size="10.00">tl/expected.hpp</text>
</a>
</g>
</g>
<!-- Node3&#45;&gt;Node10 -->
<g id="edge9" class="edge">
<title>Node3&#45;&gt;Node10</title>
<path fill="none" stroke="midnightblue" d="M1588.88,-358.08C1585.04,-350.69 1579.48,-339.95 1574.74,-330.81"/>
<polygon fill="midnightblue" stroke="midnightblue" points="1577.75,-329.02 1570.04,-321.75 1571.53,-332.24 1577.75,-329.02"/>
</g>
<!-- Node5 -->
<g id="node5" class="node">
<title>Node5</title>
<g id="a_node5"><a xlink:title=" ">
<polygon fill="white" stroke="#bfbfbf" points="1695.5,-0.5 1695.5,-19.5 1745.5,-19.5 1745.5,-0.5 1695.5,-0.5"/>
<text text-anchor="middle" x="1720.5" y="-7.5" font-family="Helvetica,sans-Serif" font-size="10.00">cstdint</text>
</a>
</g>
</g>
<!-- Node4&#45;&gt;Node5 -->
<g id="edge4" class="edge">
<title>Node4&#45;&gt;Node5</title>
<path fill="none" stroke="midnightblue" d="M1761.5,-302.44C1761.5,-283.94 1761.5,-238.81 1761.5,-201 1761.5,-201 1761.5,-201 1761.5,-132 1761.5,-93.55 1742.7,-51.69 1730.56,-28.67"/>
<polygon fill="midnightblue" stroke="midnightblue" points="1733.56,-26.86 1725.69,-19.76 1727.42,-30.21 1733.56,-26.86"/>
</g>
<!-- Node6 -->
<g id="node6" class="node">
<title>Node6</title>
<g id="a_node6"><a xlink:title=" ">
<polygon fill="white" stroke="#bfbfbf" points="1790,-246.5 1790,-265.5 1859,-265.5 1859,-246.5 1790,-246.5"/>
<text text-anchor="middle" x="1824.5" y="-253.5" font-family="Helvetica,sans-Serif" font-size="10.00">type_traits</text>
</a>
</g>
</g>
<!-- Node4&#45;&gt;Node6 -->
<g id="edge5" class="edge">
<title>Node4&#45;&gt;Node6</title>
<path fill="none" stroke="midnightblue" d="M1771.62,-302.32C1781.03,-294.26 1795.24,-282.08 1806.57,-272.37"/>
<polygon fill="midnightblue" stroke="midnightblue" points="1808.88,-275 1814.19,-265.83 1804.32,-269.68 1808.88,-275"/>
</g>
<!-- Node7 -->
<g id="node7" class="node">
<title>Node7</title>
<g id="a_node7"><a xlink:title=" ">
<polygon fill="white" stroke="#bfbfbf" points="1604,-246.5 1604,-265.5 1649,-265.5 1649,-246.5 1604,-246.5"/>
<text text-anchor="middle" x="1626.5" y="-253.5" font-family="Helvetica,sans-Serif" font-size="10.00">utility</text>
</a>
</g>
</g>
<!-- Node4&#45;&gt;Node7 -->
<g id="edge6" class="edge">
<title>Node4&#45;&gt;Node7</title>
<path fill="none" stroke="midnightblue" d="M1740.11,-302.44C1717.79,-293.52 1682.6,-279.44 1657.29,-269.32"/>
<polygon fill="midnightblue" stroke="midnightblue" points="1658.38,-265.98 1647.79,-265.52 1655.78,-272.48 1658.38,-265.98"/>
</g>
<!-- Node11&#45;&gt;Node9 -->
<g id="edge46" class="edge">
<title>Node11&#45;&gt;Node9</title>
<path fill="none" stroke="midnightblue" d="M1464.5,-358.08C1464.5,-351.01 1464.5,-340.86 1464.5,-331.99"/>
<polygon fill="midnightblue" stroke="midnightblue" points="1468,-331.75 1464.5,-321.75 1461,-331.75 1468,-331.75"/>
</g>
<!-- Node11&#45;&gt;Node10 -->
<g id="edge47" class="edge">
<title>Node11&#45;&gt;Node10</title>
<path fill="none" stroke="midnightblue" d="M1480.73,-358.32C1496.85,-349.7 1521.8,-336.36 1540.46,-326.39"/>
<polygon fill="midnightblue" stroke="midnightblue" points="1542.14,-329.46 1549.31,-321.65 1538.84,-323.28 1542.14,-329.46"/>
</g>
<!-- Node12 -->
<g id="node12" class="node">
<title>Node12</title>
<g id="a_node12"><a xlink:href="_manifold_8hpp.html" target="_top" xlink:title="Data structures for manifolds.">
<polygon fill="white" stroke="black" points="1329.5,-302.5 1329.5,-321.5 1409.5,-321.5 1409.5,-302.5 1329.5,-302.5"/>
<text text-anchor="middle" x="1369.5" y="-309.5" font-family="Helvetica,sans-Serif" font-size="10.00">Manifold.hpp</text>
</a>
</g>
</g>
<!-- Node11&#45;&gt;Node12 -->
<g id="edge11" class="edge">
<title>Node11&#45;&gt;Node12</title>
<path fill="none" stroke="midnightblue" d="M1449.24,-358.32C1434.28,-349.82 1411.25,-336.73 1393.77,-326.8"/>
<polygon fill="midnightblue" stroke="midnightblue" points="1395.15,-323.55 1384.73,-321.65 1391.69,-329.64 1395.15,-323.55"/>
</g>
<!-- Node12&#45;&gt;Node7 -->
<g id="edge45" class="edge">
<title>Node12&#45;&gt;Node7</title>
<path fill="none" stroke="midnightblue" d="M1409.66,-302.56C1460.45,-291.89 1546.94,-273.72 1593.87,-263.86"/>
<polygon fill="midnightblue" stroke="midnightblue" points="1594.74,-267.25 1603.81,-261.77 1593.3,-260.4 1594.74,-267.25"/>
</g>
<!-- Node13 -->
<g id="node13" class="node">
<title>Node13</title>
<g id="a_node13"><a xlink:href="_geometry_8hpp.html" target="_top" xlink:title="Geometric quantities of Manifold used by MoveAlgorithm.">
<polygon fill="white" stroke="black" points="894,-246.5 894,-265.5 979,-265.5 979,-246.5 894,-246.5"/>
<text text-anchor="middle" x="936.5" y="-253.5" font-family="Helvetica,sans-Serif" font-size="10.00">Geometry.hpp</text>
</a>
</g>
</g>
<!-- Node12&#45;&gt;Node13 -->
<g id="edge12" class="edge">
<title>Node12&#45;&gt;Node13</title>
<path fill="none" stroke="midnightblue" d="M1329.15,-305.97C1250.49,-296.16 1076.7,-274.48 989.12,-263.56"/>
<polygon fill="midnightblue" stroke="midnightblue" points="989.49,-260.08 979.13,-262.32 988.62,-267.03 989.49,-260.08"/>
</g>
<!-- Node43 -->
<g id="node43" class="node">
<title>Node43</title>
<g id="a_node43"><a xlink:title=" ">
<polygon fill="white" stroke="#bfbfbf" points="1299,-246.5 1299,-265.5 1352,-265.5 1352,-246.5 1299,-246.5"/>
<text text-anchor="middle" x="1325.5" y="-253.5" font-family="Helvetica,sans-Serif" font-size="10.00">cstddef</text>
</a>
</g>
</g>
<!-- Node12&#45;&gt;Node43 -->
<g id="edge43" class="edge">
<title>Node12&#45;&gt;Node43</title>
<path fill="none" stroke="midnightblue" d="M1362.23,-302.08C1355.96,-294.38 1346.71,-283.03 1339.07,-273.65"/>
<polygon fill="midnightblue" stroke="midnightblue" points="1341.66,-271.29 1332.63,-265.75 1336.23,-275.71 1341.66,-271.29"/>
</g>
<!-- Node44 -->
<g id="node44" class="node">
<title>Node44</title>
<g id="a_node44"><a xlink:title=" ">
<polygon fill="white" stroke="#bfbfbf" points="1370.5,-246.5 1370.5,-265.5 1456.5,-265.5 1456.5,-246.5 1370.5,-246.5"/>
<text text-anchor="middle" x="1413.5" y="-253.5" font-family="Helvetica,sans-Serif" font-size="10.00">unordered_set</text>
</a>
</g>
</g>
<!-- Node12&#45;&gt;Node44 -->
<g id="edge44" class="edge">
<title>Node12&#45;&gt;Node44</title>
<path fill="none" stroke="midnightblue" d="M1376.77,-302.08C1383.04,-294.38 1392.29,-283.03 1399.93,-273.65"/>
<polygon fill="midnightblue" stroke="midnightblue" points="1402.77,-275.71 1406.37,-265.75 1397.34,-271.29 1402.77,-275.71"/>
</g>
<!-- Node14 -->
<g id="node14" class="node">
<title>Node14</title>
<g id="a_node14"><a xlink:href="_foliated__triangulation_8hpp.html" target="_top" xlink:title="Create foliated spherical triangulations.">
<polygon fill="white" stroke="black" points="645.5,-190.5 645.5,-209.5 789.5,-209.5 789.5,-190.5 645.5,-190.5"/>
<text text-anchor="middle" x="717.5" y="-197.5" font-family="Helvetica,sans-Serif" font-size="10.00">Foliated_triangulation.hpp</text>
</a>
</g>
</g>
<!-- Node13&#45;&gt;Node14 -->
<g id="edge13" class="edge">
<title>Node13&#45;&gt;Node14</title>
<path fill="none" stroke="midnightblue" d="M901.8,-246.44C863.92,-237.1 803.15,-222.12 761.84,-211.93"/>
<polygon fill="midnightblue" stroke="midnightblue" points="762.59,-208.51 752.04,-209.52 760.91,-215.31 762.59,-208.51"/>
</g>
<!-- Node15 -->
<g id="node15" class="node">
<title>Node15</title>
<g id="a_node15"><a xlink:href="_utilities_8hpp.html" target="_top" xlink:title="Utility functions.">
<polygon fill="white" stroke="black" points="885.5,-123.5 885.5,-142.5 961.5,-142.5 961.5,-123.5 885.5,-123.5"/>
<text text-anchor="middle" x="923.5" y="-130.5" font-family="Helvetica,sans-Serif" font-size="10.00">Utilities.hpp</text>
</a>
</g>
</g>
<!-- Node14&#45;&gt;Node15 -->
<g id="edge14" class="edge">
<title>Node14&#45;&gt;Node15</title>
<path fill="none" stroke="midnightblue" d="M752.32,-190.5C784.8,-182.25 834.43,-168.84 876.5,-154 882.76,-151.79 889.37,-149.17 895.6,-146.56"/>
<polygon fill="midnightblue" stroke="midnightblue" points="897.16,-149.7 904.96,-142.53 894.39,-143.27 897.16,-149.7"/>
</g>
<!-- Node36 -->
<g id="node36" class="node">
<title>Node36</title>
<g id="a_node36"><a xlink:title=" ">
<polygon fill="white" stroke="#bfbfbf" points="979.5,-123.5 979.5,-142.5 1159.5,-142.5 1159.5,-123.5 979.5,-123.5"/>
<text text-anchor="middle" x="1069.5" y="-130.5" font-family="Helvetica,sans-Serif" font-size="10.00">CGAL/Delaunay_triangulation_3.h</text>
</a>
</g>
</g>
<!-- Node14&#45;&gt;Node36 -->
<g id="edge36" class="edge">
<title>Node14&#45;&gt;Node36</title>
<path fill="none" stroke="midnightblue" d="M767.49,-190.46C818.57,-181.66 900.15,-167.36 970.5,-154 986.04,-151.05 1002.93,-147.69 1018.28,-144.58"/>
<polygon fill="midnightblue" stroke="midnightblue" points="1019.02,-148.01 1028.12,-142.58 1017.62,-141.15 1019.02,-148.01"/>
</g>
<!-- Node37 -->
<g id="node37" class="node">
<title>Node37</title>
<g id="a_node37"><a xlink:title=" ">
<polygon fill="white" stroke="#bfbfbf" points="0,-112.5 0,-153.5 129,-153.5 129,-112.5 0,-112.5"/>
<text text-anchor="start" x="8" y="-141.5" font-family="Helvetica,sans-Serif" font-size="10.00">CGAL/Exact_predicates</text>
<text text-anchor="start" x="8" y="-130.5" font-family="Helvetica,sans-Serif" font-size="10.00">_inexact_constructions</text>
<text text-anchor="middle" x="64.5" y="-119.5" font-family="Helvetica,sans-Serif" font-size="10.00">_kernel.h</text>
</a>
</g>
</g>
<!-- Node14&#45;&gt;Node37 -->
<g id="edge37" class="edge">
<title>Node14&#45;&gt;Node37</title>
<path fill="none" stroke="midnightblue" d="M645.21,-197.7C537.03,-194.8 326.64,-185.48 139.35,-153.96"/>
<polygon fill="midnightblue" stroke="midnightblue" points="139.77,-150.49 129.32,-152.25 138.59,-157.39 139.77,-150.49"/>
</g>
<!-- Node38 -->
<g id="node38" class="node">
<title>Node38</title>
<g id="a_node38"><a xlink:title=" ">
<polygon fill="white" stroke="#bfbfbf" points="147.5,-118 147.5,-148 285.5,-148 285.5,-118 147.5,-118"/>
<text text-anchor="start" x="155.5" y="-136" font-family="Helvetica,sans-Serif" font-size="10.00">CGAL/Triangulation</text>
<text text-anchor="middle" x="216.5" y="-125" font-family="Helvetica,sans-Serif" font-size="10.00">_cell_base_with_info_3.h</text>
</a>
</g>
</g>
<!-- Node14&#45;&gt;Node38 -->
<g id="edge38" class="edge">
<title>Node14&#45;&gt;Node38</title>
<path fill="none" stroke="midnightblue" d="M645.2,-194.51C560.61,-188.52 416.6,-176.03 294.5,-154 288.77,-152.97 282.84,-151.74 276.93,-150.41"/>
<polygon fill="midnightblue" stroke="midnightblue" points="277.57,-146.97 267.03,-148.09 275.97,-153.78 277.57,-146.97"/>
</g>
<!-- Node39 -->
<g id="node39" class="node">
<title>Node39</title>
<g id="a_node39"><a xlink:title=" ">
<polygon fill="white" stroke="#bfbfbf" points="303.5,-118 303.5,-148 455.5,-148 455.5,-118 303.5,-118"/>
<text text-anchor="start" x="311.5" y="-136" font-family="Helvetica,sans-Serif" font-size="10.00">CGAL/Triangulation</text>
<text text-anchor="middle" x="379.5" y="-125" font-family="Helvetica,sans-Serif" font-size="10.00">_vertex_base_with_info_3.h</text>
</a>
</g>
</g>
<!-- Node14&#45;&gt;Node39 -->
<g id="edge39" class="edge">
<title>Node14&#45;&gt;Node39</title>
<path fill="none" stroke="midnightblue" d="M664.52,-190.45C613.22,-181.96 533.31,-168.2 464.5,-154 458.89,-152.84 453.08,-151.59 447.26,-150.3"/>
<polygon fill="midnightblue" stroke="midnightblue" points="448,-146.88 437.47,-148.09 446.46,-153.7 448,-146.88"/>
</g>
<!-- Node40 -->
<g id="node40" class="node">
<title>Node40</title>
<g id="a_node40"><a xlink:title=" ">
<polygon fill="white" stroke="#bfbfbf" points="474,-123.5 474,-142.5 623,-142.5 623,-123.5 474,-123.5"/>
<text text-anchor="middle" x="548.5" y="-130.5" font-family="Helvetica,sans-Serif" font-size="10.00">CGAL/point_generators_3.h</text>
</a>
</g>
</g>
<!-- Node14&#45;&gt;Node40 -->
<g id="edge40" class="edge">
<title>Node14&#45;&gt;Node40</title>
<path fill="none" stroke="midnightblue" d="M695.06,-190.37C665.68,-179.07 614.01,-159.2 580.53,-146.32"/>
<polygon fill="midnightblue" stroke="midnightblue" points="581.36,-142.89 570.77,-142.56 578.84,-149.42 581.36,-142.89"/>
</g>
<!-- Node41 -->
<g id="node41" class="node">
<title>Node41</title>
<g id="a_node41"><a xlink:title=" ">
<polygon fill="white" stroke="#bfbfbf" points="641.5,-123.5 641.5,-142.5 793.5,-142.5 793.5,-123.5 641.5,-123.5"/>
<text text-anchor="middle" x="717.5" y="-130.5" font-family="Helvetica,sans-Serif" font-size="10.00">CGAL/squared_distance_3.h</text>
</a>
</g>
</g>
<!-- Node14&#45;&gt;Node41 -->
<g id="edge41" class="edge">
<title>Node14&#45;&gt;Node41</title>
<path fill="none" stroke="midnightblue" d="M717.5,-190.23C717.5,-180.68 717.5,-165.12 717.5,-152.78"/>
<polygon fill="midnightblue" stroke="midnightblue" points="721,-152.63 717.5,-142.63 714,-152.63 721,-152.63"/>
</g>
<!-- Node42 -->
<g id="node42" class="node">
<title>Node42</title>
<g id="a_node42"><a xlink:title=" ">
<polygon fill="white" stroke="#bfbfbf" points="811.5,-123.5 811.5,-142.5 867.5,-142.5 867.5,-123.5 811.5,-123.5"/>
<text text-anchor="middle" x="839.5" y="-130.5" font-family="Helvetica,sans-Serif" font-size="10.00">optional</text>
</a>
</g>
</g>
<!-- Node14&#45;&gt;Node42 -->
<g id="edge42" class="edge">
<title>Node14&#45;&gt;Node42</title>
<path fill="none" stroke="midnightblue" d="M733.82,-190.41C750.95,-181.39 778.65,-166.76 802.5,-154 806.41,-151.91 810.55,-149.68 814.59,-147.5"/>
<polygon fill="midnightblue" stroke="midnightblue" points="816.54,-150.43 823.67,-142.59 813.21,-144.27 816.54,-150.43"/>
</g>
<!-- Node16 -->
<g id="node16" class="node">
<title>Node16</title>
<g id="a_node16"><a xlink:title=" ">
<polygon fill="white" stroke="#bfbfbf" points="1650,-56.5 1650,-75.5 1733,-75.5 1733,-56.5 1650,-56.5"/>
<text text-anchor="middle" x="1691.5" y="-63.5" font-family="Helvetica,sans-Serif" font-size="10.00">CGAL/Timer.h</text>
</a>
</g>
</g>
<!-- Node15&#45;&gt;Node16 -->
<g id="edge15" class="edge">
<title>Node15&#45;&gt;Node16</title>
<path fill="none" stroke="midnightblue" d="M939.99,-123.31C948.79,-119.1 959.96,-114.45 970.5,-112 1257.73,-45.35 1342.34,-108.52 1639.6,-75.93"/>
<polygon fill="midnightblue" stroke="midnightblue" points="1640.27,-79.38 1649.81,-74.78 1639.48,-72.42 1640.27,-79.38"/>
</g>
<!-- Node17 -->
<g id="node17" class="node">
<title>Node17</title>
<g id="a_node17"><a xlink:title=" ">
<polygon fill="white" stroke="#bfbfbf" points="112.5,-56.5 112.5,-75.5 200.5,-75.5 200.5,-56.5 112.5,-56.5"/>
<text text-anchor="middle" x="156.5" y="-63.5" font-family="Helvetica,sans-Serif" font-size="10.00">sys/utsname.h</text>
</a>
</g>
</g>
<!-- Node15&#45;&gt;Node17 -->
<g id="edge16" class="edge">
<title>Node15&#45;&gt;Node17</title>
<path fill="none" stroke="midnightblue" d="M907.01,-123.31C898.21,-119.1 887.04,-114.45 876.5,-112 590.56,-45.62 506.43,-107.48 210.85,-76"/>
<polygon fill="midnightblue" stroke="midnightblue" points="211.01,-72.5 200.69,-74.89 210.25,-79.46 211.01,-72.5"/>
</g>
<!-- Node18 -->
<g id="node18" class="node">
<title>Node18</title>
<g id="a_node18"><a xlink:title=" ">
<polygon fill="white" stroke="#bfbfbf" points="219,-56.5 219,-75.5 336,-75.5 336,-56.5 219,-56.5"/>
<text text-anchor="middle" x="277.5" y="-63.5" font-family="Helvetica,sans-Serif" font-size="10.00">boost/date_time.hpp</text>
</a>
</g>
</g>
<!-- Node15&#45;&gt;Node18 -->
<g id="edge17" class="edge">
<title>Node15&#45;&gt;Node18</title>
<path fill="none" stroke="midnightblue" d="M907,-123.37C898.19,-119.18 887.02,-114.52 876.5,-112 649.72,-57.7 582.76,-98.34 346.37,-76"/>
<polygon fill="midnightblue" stroke="midnightblue" points="346.37,-72.48 336.08,-74.99 345.69,-79.45 346.37,-72.48"/>
</g>
<!-- Node19 -->
<g id="node19" class="node">
<title>Node19</title>
<g id="a_node19"><a xlink:title=" ">
<polygon fill="white" stroke="#bfbfbf" points="354.5,-56.5 354.5,-75.5 418.5,-75.5 418.5,-56.5 354.5,-56.5"/>
<text text-anchor="middle" x="386.5" y="-63.5" font-family="Helvetica,sans-Serif" font-size="10.00">algorithm</text>
</a>
</g>
</g>
<!-- Node15&#45;&gt;Node19 -->
<g id="edge18" class="edge">
<title>Node15&#45;&gt;Node19</title>
<path fill="none" stroke="midnightblue" d="M906.98,-123.42C898.17,-119.25 887.01,-114.58 876.5,-112 685.32,-64.98 627.42,-104.18 428.83,-75.98"/>
<polygon fill="midnightblue" stroke="midnightblue" points="429.05,-72.47 418.65,-74.49 428.04,-79.4 429.05,-72.47"/>
</g>
<!-- Node20 -->
<g id="node20" class="node">
<title>Node20</title>
<g id="a_node20"><a xlink:title=" ">
<polygon fill="white" stroke="#bfbfbf" points="436.5,-56.5 436.5,-75.5 488.5,-75.5 488.5,-56.5 436.5,-56.5"/>
<text text-anchor="middle" x="462.5" y="-63.5" font-family="Helvetica,sans-Serif" font-size="10.00">cassert</text>
</a>
</g>
</g>
<!-- Node15&#45;&gt;Node20 -->
<g id="edge19" class="edge">
<title>Node15&#45;&gt;Node20</title>
<path fill="none" stroke="midnightblue" d="M906.97,-123.48C898.15,-119.33 886.99,-114.66 876.5,-112 715.62,-71.18 666.05,-103.86 498.66,-75.93"/>
<polygon fill="midnightblue" stroke="midnightblue" points="499.22,-72.47 488.78,-74.23 498.04,-79.37 499.22,-72.47"/>
</g>
<!-- Node21 -->
<g id="node21" class="node">
<title>Node21</title>
<g id="a_node21"><a xlink:title=" ">
<polygon fill="white" stroke="#bfbfbf" points="507,-56.5 507,-75.5 556,-75.5 556,-56.5 507,-56.5"/>
<text text-anchor="middle" x="531.5" y="-63.5" font-family="Helvetica,sans-Serif" font-size="10.00">cstdlib</text>
</a>
</g>
</g>
<!-- Node15&#45;&gt;Node21 -->
<g id="edge20" class="edge">
<title>Node15&#45;&gt;Node21</title>
<path fill="none" stroke="midnightblue" d="M906.51,-123.37C897.76,-119.29 886.79,-114.72 876.5,-112 744.72,-77.14 703.49,-101.25 566.32,-76.09"/>
<polygon fill="midnightblue" stroke="midnightblue" points="566.75,-72.61 556.27,-74.19 565.45,-79.48 566.75,-72.61"/>
</g>
<!-- Node22 -->
<g id="node22" class="node">
<title>Node22</title>
<g id="a_node22"><a xlink:title=" ">
<polygon fill="white" stroke="#bfbfbf" points="574,-56.5 574,-75.5 629,-75.5 629,-56.5 574,-56.5"/>
<text text-anchor="middle" x="601.5" y="-63.5" font-family="Helvetica,sans-Serif" font-size="10.00">fstream</text>
</a>
</g>
</g>
<!-- Node15&#45;&gt;Node22 -->
<g id="edge21" class="edge">
<title>Node15&#45;&gt;Node22</title>
<path fill="none" stroke="midnightblue" d="M906.03,-123.32C897.34,-119.33 886.57,-114.85 876.5,-112 776.59,-83.68 745.29,-95.89 639.14,-75.94"/>
<polygon fill="midnightblue" stroke="midnightblue" points="639.8,-72.51 629.32,-74.05 638.48,-79.38 639.8,-72.51"/>
</g>
<!-- Node23 -->
<g id="node23" class="node">
<title>Node23</title>
<g id="a_node23"><a xlink:title=" ">
<polygon fill="white" stroke="#bfbfbf" points="647.5,-56.5 647.5,-75.5 695.5,-75.5 695.5,-56.5 647.5,-56.5"/>
<text text-anchor="middle" x="671.5" y="-63.5" font-family="Helvetica,sans-Serif" font-size="10.00">gsl/gsl</text>
</a>
</g>
</g>
<!-- Node15&#45;&gt;Node23 -->
<g id="edge22" class="edge">
<title>Node15&#45;&gt;Node23</title>
<path fill="none" stroke="midnightblue" d="M905.51,-123.36C896.88,-119.48 886.31,-115.08 876.5,-112 805.04,-89.56 782.29,-93.87 705.73,-76.15"/>
<polygon fill="midnightblue" stroke="midnightblue" points="706.14,-72.65 695.61,-73.75 704.53,-79.46 706.14,-72.65"/>
</g>
<!-- Node24 -->
<g id="node24" class="node">
<title>Node24</title>
<g id="a_node24"><a xlink:title=" ">
<polygon fill="white" stroke="#bfbfbf" points="713.5,-56.5 713.5,-75.5 773.5,-75.5 773.5,-56.5 713.5,-56.5"/>
<text text-anchor="middle" x="743.5" y="-63.5" font-family="Helvetica,sans-Serif" font-size="10.00">iostream</text>
</a>
</g>
</g>
<!-- Node15&#45;&gt;Node24 -->
<g id="edge23" class="edge">
<title>Node15&#45;&gt;Node24</title>
<path fill="none" stroke="midnightblue" d="M904.43,-123.49C895.94,-119.81 885.78,-115.54 876.5,-112 844.39,-99.76 807.31,-87.35 780.47,-78.67"/>
<polygon fill="midnightblue" stroke="midnightblue" points="781.31,-75.27 770.72,-75.54 779.17,-81.93 781.31,-75.27"/>
</g>
<!-- Node25 -->
<g id="node25" class="node">
<title>Node25</title>
<g id="a_node25"><a xlink:title=" ">
<polygon fill="white" stroke="#bfbfbf" points="791.5,-56.5 791.5,-75.5 839.5,-75.5 839.5,-56.5 791.5,-56.5"/>
<text text-anchor="middle" x="815.5" y="-63.5" font-family="Helvetica,sans-Serif" font-size="10.00">mutex</text>
</a>
</g>
</g>
<!-- Node15&#45;&gt;Node25 -->
<g id="edge24" class="edge">
<title>Node15&#45;&gt;Node25</title>
<path fill="none" stroke="midnightblue" d="M908.93,-123.23C890.88,-112.37 859.89,-93.72 838.58,-80.89"/>
<polygon fill="midnightblue" stroke="midnightblue" points="840.21,-77.79 829.83,-75.63 836.6,-83.78 840.21,-77.79"/>
</g>
<!-- Node26 -->
<g id="node26" class="node">
<title>Node26</title>
<g id="a_node26"><a xlink:title=" ">
<polygon fill="white" stroke="#bfbfbf" points="857.5,-56.5 857.5,-75.5 911.5,-75.5 911.5,-56.5 857.5,-56.5"/>
<text text-anchor="middle" x="884.5" y="-63.5" font-family="Helvetica,sans-Serif" font-size="10.00">random</text>
</a>
</g>
</g>
<!-- Node15&#45;&gt;Node26 -->
<g id="edge25" class="edge">
<title>Node15&#45;&gt;Node26</title>
<path fill="none" stroke="midnightblue" d="M918.24,-123.23C912.28,-113.29 902.4,-96.84 894.87,-84.29"/>
<polygon fill="midnightblue" stroke="midnightblue" points="897.82,-82.4 889.68,-75.63 891.82,-86 897.82,-82.4"/>
</g>
<!-- Node27 -->
<g id="node27" class="node">
<title>Node27</title>
<g id="a_node27"><a xlink:title=" ">
<polygon fill="white" stroke="#bfbfbf" points="930,-56.5 930,-75.5 995,-75.5 995,-56.5 930,-56.5"/>
<text text-anchor="middle" x="962.5" y="-63.5" font-family="Helvetica,sans-Serif" font-size="10.00">stdexcept</text>
</a>
</g>
</g>
<!-- Node15&#45;&gt;Node27 -->
<g id="edge26" class="edge">
<title>Node15&#45;&gt;Node27</title>
<path fill="none" stroke="midnightblue" d="M928.76,-123.23C934.72,-113.29 944.6,-96.84 952.13,-84.29"/>
<polygon fill="midnightblue" stroke="midnightblue" points="955.18,-86 957.32,-75.63 949.18,-82.4 955.18,-86"/>
</g>
<!-- Node28 -->
<g id="node28" class="node">
<title>Node28</title>
<g id="a_node28"><a xlink:title=" ">
<polygon fill="white" stroke="#bfbfbf" points="1013.5,-56.5 1013.5,-75.5 1057.5,-75.5 1057.5,-56.5 1013.5,-56.5"/>
<text text-anchor="middle" x="1035.5" y="-63.5" font-family="Helvetica,sans-Serif" font-size="10.00">string</text>
</a>
</g>
</g>
<!-- Node15&#45;&gt;Node28 -->
<g id="edge27" class="edge">
<title>Node15&#45;&gt;Node28</title>
<path fill="none" stroke="midnightblue" d="M938.6,-123.23C957.41,-112.32 989.75,-93.55 1011.86,-80.72"/>
<polygon fill="midnightblue" stroke="midnightblue" points="1013.74,-83.67 1020.63,-75.63 1010.23,-77.62 1013.74,-83.67"/>
</g>
<!-- Node29 -->
<g id="node29" class="node">
<title>Node29</title>
<g id="a_node29"><a xlink:title=" ">
<polygon fill="white" stroke="#bfbfbf" points="1076,-56.5 1076,-75.5 1141,-75.5 1141,-56.5 1076,-56.5"/>
<text text-anchor="middle" x="1108.5" y="-63.5" font-family="Helvetica,sans-Serif" font-size="10.00">typeindex</text>
</a>
</g>
</g>
<!-- Node15&#45;&gt;Node29 -->
<g id="edge28" class="edge">
<title>Node15&#45;&gt;Node29</title>
<path fill="none" stroke="midnightblue" d="M942.56,-123.44C951.04,-119.75 961.2,-115.49 970.5,-112 1003.81,-99.51 1042.34,-87.11 1070.21,-78.5"/>
<polygon fill="midnightblue" stroke="midnightblue" points="1071.44,-81.79 1079.97,-75.51 1069.38,-75.1 1071.44,-81.79"/>
</g>
<!-- Node30 -->
<g id="node30" class="node">
<title>Node30</title>
<g id="a_node30"><a xlink:title=" ">
<polygon fill="white" stroke="#bfbfbf" points="1159,-56.5 1159,-75.5 1218,-75.5 1218,-56.5 1159,-56.5"/>
<text text-anchor="middle" x="1188.5" y="-63.5" font-family="Helvetica,sans-Serif" font-size="10.00">date/tz.h</text>
</a>
</g>
</g>
<!-- Node15&#45;&gt;Node30 -->
<g id="edge29" class="edge">
<title>Node15&#45;&gt;Node30</title>
<path fill="none" stroke="midnightblue" d="M941.48,-123.33C950.1,-119.44 960.67,-115.04 970.5,-112 1044.99,-88.93 1068.36,-92.77 1148.63,-76.1"/>
<polygon fill="midnightblue" stroke="midnightblue" points="1149.65,-79.46 1158.71,-73.97 1148.2,-72.62 1149.65,-79.46"/>
</g>
<!-- Node31 -->
<g id="node31" class="node">
<title>Node31</title>
<g id="a_node31"><a xlink:title=" ">
<polygon fill="white" stroke="#bfbfbf" points="1236.5,-56.5 1236.5,-75.5 1334.5,-75.5 1334.5,-56.5 1236.5,-56.5"/>
<text text-anchor="middle" x="1285.5" y="-63.5" font-family="Helvetica,sans-Serif" font-size="10.00">pcg_random.hpp</text>
</a>
</g>
</g>
<!-- Node15&#45;&gt;Node31 -->
<g id="edge30" class="edge">
<title>Node15&#45;&gt;Node31</title>
<path fill="none" stroke="midnightblue" d="M940.52,-123.48C949.28,-119.42 960.25,-114.85 970.5,-112 1078.18,-82.08 1111.03,-92.07 1226.33,-75.98"/>
<polygon fill="midnightblue" stroke="midnightblue" points="1226.85,-79.44 1236.25,-74.56 1225.86,-72.51 1226.85,-79.44"/>
</g>
<!-- Node32 -->
<g id="node32" class="node">
<title>Node32</title>
<g id="a_node32"><a xlink:title=" ">
<polygon fill="white" stroke="#bfbfbf" points="1353,-56.5 1353,-75.5 1432,-75.5 1432,-56.5 1353,-56.5"/>
<text text-anchor="middle" x="1392.5" y="-63.5" font-family="Helvetica,sans-Serif" font-size="10.00">fmt/format.h</text>
</a>
</g>
</g>
<!-- Node15&#45;&gt;Node32 -->
<g id="edge31" class="edge">
<title>Node15&#45;&gt;Node32</title>
<path fill="none" stroke="midnightblue" d="M940.03,-123.49C948.85,-119.34 960.02,-114.67 970.5,-112 1128.75,-71.72 1176.69,-97.99 1342.89,-75.94"/>
<polygon fill="midnightblue" stroke="midnightblue" points="1343.53,-79.38 1352.97,-74.56 1342.58,-72.45 1343.53,-79.38"/>
</g>
<!-- Node33 -->
<g id="node33" class="node">
<title>Node33</title>
<g id="a_node33"><a xlink:title=" ">
<polygon fill="white" stroke="#bfbfbf" points="1450.5,-56.5 1450.5,-75.5 1536.5,-75.5 1536.5,-56.5 1450.5,-56.5"/>
<text text-anchor="middle" x="1493.5" y="-63.5" font-family="Helvetica,sans-Serif" font-size="10.00">fmt/ostream.h</text>
</a>
</g>
</g>
<!-- Node15&#45;&gt;Node33 -->
<g id="edge32" class="edge">
<title>Node15&#45;&gt;Node33</title>
<path fill="none" stroke="midnightblue" d="M940.01,-123.41C948.82,-119.23 959.99,-114.57 970.5,-112 1174.03,-62.33 1232.56,-101.56 1440.5,-76 1440.6,-75.99 1440.7,-75.98 1440.8,-75.96"/>
<polygon fill="midnightblue" stroke="midnightblue" points="1441.01,-79.47 1450.45,-74.65 1440.07,-72.53 1441.01,-79.47"/>
</g>
<!-- Node34 -->
<g id="node34" class="node">
<title>Node34</title>
<g id="a_node34"><a xlink:href="_settings_8hpp.html" target="_top" xlink:title="Global integer and precision settings.">
<polygon fill="white" stroke="black" points="1555,-56.5 1555,-75.5 1632,-75.5 1632,-56.5 1555,-56.5"/>
<text text-anchor="middle" x="1593.5" y="-63.5" font-family="Helvetica,sans-Serif" font-size="10.00">Settings.hpp</text>
</a>
</g>
</g>
<!-- Node15&#45;&gt;Node34 -->
<g id="edge33" class="edge">
<title>Node15&#45;&gt;Node34</title>
<path fill="none" stroke="midnightblue" d="M940,-123.35C948.8,-119.15 959.97,-114.49 970.5,-112 1216.51,-53.77 1289.56,-106.28 1544.85,-75.89"/>
<polygon fill="midnightblue" stroke="midnightblue" points="1545.29,-79.37 1554.79,-74.68 1544.44,-72.42 1545.29,-79.37"/>
</g>
<!-- Node34&#45;&gt;Node5 -->
<g id="edge35" class="edge">
<title>Node34&#45;&gt;Node5</title>
<path fill="none" stroke="midnightblue" d="M1613.62,-56.44C1634.52,-47.56 1667.43,-33.56 1691.22,-23.45"/>
<polygon fill="midnightblue" stroke="midnightblue" points="1692.64,-26.65 1700.47,-19.52 1689.9,-20.21 1692.64,-26.65"/>
</g>
<!-- Node35 -->
<g id="node35" class="node">
<title>Node35</title>
<g id="a_node35"><a xlink:title=" ">
<polygon fill="white" stroke="#bfbfbf" points="1550.5,-0.5 1550.5,-19.5 1636.5,-19.5 1636.5,-0.5 1550.5,-0.5"/>
<text text-anchor="middle" x="1593.5" y="-7.5" font-family="Helvetica,sans-Serif" font-size="10.00">CGAL/Gmpzf.h</text>
</a>
</g>
</g>
<!-- Node34&#45;&gt;Node35 -->
<g id="edge34" class="edge">
<title>Node34&#45;&gt;Node35</title>
<path fill="none" stroke="midnightblue" d="M1593.5,-56.08C1593.5,-49.01 1593.5,-38.86 1593.5,-29.99"/>
<polygon fill="midnightblue" stroke="midnightblue" points="1597,-29.75 1593.5,-19.75 1590,-29.75 1597,-29.75"/>
</g>
</g>
</svg>
