<?xml version="1.0" encoding="UTF-8" standalone="no"?>
<!DOCTYPE svg PUBLIC "-//W3C//DTD SVG 1.1//EN"
 "http://www.w3.org/Graphics/SVG/1.1/DTD/svg11.dtd">
<!-- Generated by graphviz version 2.43.0 (0)
 -->
<!-- Title: include/Move_always.hpp Pages: 1 -->
<svg width="2249pt" height="500pt"
 viewBox="0.00 0.00 2248.50 500.00" xmlns="http://www.w3.org/2000/svg" xmlns:xlink="http://www.w3.org/1999/xlink">
<g id="graph0" class="graph" transform="scale(1 1) rotate(0) translate(4 496)">
<title>include/Move_always.hpp</title>
<!-- Node1 -->
<g id="node1" class="node">
<title>Node1</title>
<g id="a_node1"><a xlink:title="Randomly selects moves to always perform on triangulations.">
<polygon fill="#999999" stroke="#666666" points="1613.5,-492 1470.5,-492 1470.5,-473 1613.5,-473 1613.5,-492"/>
<text text-anchor="middle" x="1542" y="-480" font-family="Helvetica,sans-Serif" font-size="10.00">include/Move_always.hpp</text>
</a>
</g>
</g>
<!-- Node2 -->
<g id="node2" class="node">
<title>Node2</title>
<g id="a_node2"><a xlink:title=" ">
<polygon fill="#e0e0e0" stroke="#999999" points="998.5,-85 933.5,-85 933.5,-66 998.5,-66 998.5,-85"/>
<text text-anchor="middle" x="966" y="-73" font-family="Helvetica,sans-Serif" font-size="10.00">stdexcept</text>
</a>
</g>
</g>
<!-- Node1&#45;&gt;Node2 -->
<g id="edge1" class="edge">
<title>Node1&#45;&gt;Node2</title>
<path fill="none" stroke="#63b8ff" d="M1470.21,-475.46C1315.81,-461.49 966,-424.24 966,-373.5 966,-373.5 966,-373.5 966,-206.5 966,-166.95 966,-120.63 966,-95.34"/>
<polygon fill="#63b8ff" stroke="#63b8ff" points="969.5,-95.02 966,-85.02 962.5,-95.02 969.5,-95.02"/>
</g>
<!-- Node3 -->
<g id="node3" class="node">
<title>Node3</title>
<g id="a_node3"><a xlink:href="_move__command_8hpp.html" target="_top" xlink:title="Do ergodic moves using the Command pattern.">
<polygon fill="white" stroke="#666666" points="1601.5,-437 1482.5,-437 1482.5,-418 1601.5,-418 1601.5,-437"/>
<text text-anchor="middle" x="1542" y="-425" font-family="Helvetica,sans-Serif" font-size="10.00">Move_command.hpp</text>
</a>
</g>
</g>
<!-- Node1&#45;&gt;Node3 -->
<g id="edge2" class="edge">
<title>Node1&#45;&gt;Node3</title>
<path fill="none" stroke="#63b8ff" d="M1542,-472.75C1542,-465.8 1542,-455.85 1542,-447.13"/>
<polygon fill="#63b8ff" stroke="#63b8ff" points="1545.5,-447.09 1542,-437.09 1538.5,-447.09 1545.5,-447.09"/>
</g>
<!-- Node51 -->
<g id="node50" class="node">
<title>Node51</title>
<g id="a_node50"><a xlink:href="_move__strategy_8hpp.html" target="_top" xlink:title="Template class for move algorithms (strategies) on manifolds.">
<polygon fill="white" stroke="#666666" points="1728.5,-437 1619.5,-437 1619.5,-418 1728.5,-418 1728.5,-437"/>
<text text-anchor="middle" x="1674" y="-425" font-family="Helvetica,sans-Serif" font-size="10.00">Move_strategy.hpp</text>
</a>
</g>
</g>
<!-- Node1&#45;&gt;Node51 -->
<g id="edge64" class="edge">
<title>Node1&#45;&gt;Node51</title>
<path fill="none" stroke="#63b8ff" d="M1563.21,-472.98C1584.73,-464.34 1618.28,-450.87 1642.83,-441.02"/>
<polygon fill="#63b8ff" stroke="#63b8ff" points="1644.43,-444.14 1652.41,-437.17 1641.82,-437.65 1644.43,-444.14"/>
</g>
<!-- Node4 -->
<g id="node4" class="node">
<title>Node4</title>
<g id="a_node4"><a xlink:href="_apply__move_8hpp.html" target="_top" xlink:title="Apply Pachner moves to foliated Delaunay triangulations.">
<polygon fill="white" stroke="#666666" points="2002,-217 1904,-217 1904,-198 2002,-198 2002,-217"/>
<text text-anchor="middle" x="1953" y="-205" font-family="Helvetica,sans-Serif" font-size="10.00">Apply_move.hpp</text>
</a>
</g>
</g>
<!-- Node3&#45;&gt;Node4 -->
<g id="edge3" class="edge">
<title>Node3&#45;&gt;Node4</title>
<path fill="none" stroke="#63b8ff" d="M1575.91,-417.98C1628.57,-403.89 1732.14,-372.66 1811,-327 1862.15,-297.38 1913.16,-249.09 1937.79,-224.29"/>
<polygon fill="#63b8ff" stroke="#63b8ff" points="1940.32,-226.71 1944.82,-217.12 1935.32,-221.81 1940.32,-226.71"/>
</g>
<!-- Node11 -->
<g id="node11" class="node">
<title>Node11</title>
<g id="a_node11"><a xlink:href="_ergodic__moves__3_8hpp.html" target="_top" xlink:title="Pachner moves on 2+1 dimensional foliated Delaunay triangulations.">
<polygon fill="white" stroke="#666666" points="1603.5,-382 1480.5,-382 1480.5,-363 1603.5,-363 1603.5,-382"/>
<text text-anchor="middle" x="1542" y="-370" font-family="Helvetica,sans-Serif" font-size="10.00">Ergodic_moves_3.hpp</text>
</a>
</g>
</g>
<!-- Node3&#45;&gt;Node11 -->
<g id="edge10" class="edge">
<title>Node3&#45;&gt;Node11</title>
<path fill="none" stroke="#63b8ff" d="M1542,-417.75C1542,-410.8 1542,-400.85 1542,-392.13"/>
<polygon fill="#63b8ff" stroke="#63b8ff" points="1545.5,-392.09 1542,-382.09 1538.5,-392.09 1545.5,-392.09"/>
</g>
<!-- Node5 -->
<g id="node5" class="node">
<title>Node5</title>
<g id="a_node5"><a xlink:title=" ">
<polygon fill="#e0e0e0" stroke="#999999" points="2240.5,-85 2147.5,-85 2147.5,-66 2240.5,-66 2240.5,-85"/>
<text text-anchor="middle" x="2194" y="-73" font-family="Helvetica,sans-Serif" font-size="10.00">spdlog/spdlog.h</text>
</a>
</g>
</g>
<!-- Node4&#45;&gt;Node5 -->
<g id="edge4" class="edge">
<title>Node4&#45;&gt;Node5</title>
<path fill="none" stroke="#63b8ff" d="M2002.42,-200.62C2054.14,-193.59 2130.99,-180.44 2154,-162 2175.05,-145.13 2185.57,-114.61 2190.39,-94.96"/>
<polygon fill="#63b8ff" stroke="#63b8ff" points="2193.84,-95.6 2192.57,-85.08 2187,-94.09 2193.84,-95.6"/>
</g>
<!-- Node6 -->
<g id="node6" class="node">
<title>Node6</title>
<g id="a_node6"><a xlink:title=" ">
<polygon fill="#e0e0e0" stroke="#999999" points="2128,-162 2002,-162 2002,-132 2128,-132 2128,-162"/>
<text text-anchor="start" x="2010" y="-150" font-family="Helvetica,sans-Serif" font-size="10.00">boost/compat/function</text>
<text text-anchor="middle" x="2065" y="-139" font-family="Helvetica,sans-Serif" font-size="10.00">_ref.hpp</text>
</a>
</g>
</g>
<!-- Node4&#45;&gt;Node6 -->
<g id="edge5" class="edge">
<title>Node4&#45;&gt;Node6</title>
<path fill="none" stroke="#63b8ff" d="M1969.53,-197.87C1985.15,-189.71 2009.1,-177.2 2029.11,-166.75"/>
<polygon fill="#63b8ff" stroke="#63b8ff" points="2030.73,-169.85 2037.98,-162.11 2027.49,-163.64 2030.73,-169.85"/>
</g>
<!-- Node7 -->
<g id="node7" class="node">
<title>Node7</title>
<g id="a_node7"><a xlink:title=" ">
<polygon fill="#e0e0e0" stroke="#999999" points="1984,-156.5 1922,-156.5 1922,-137.5 1984,-137.5 1984,-156.5"/>
<text text-anchor="middle" x="1953" y="-144.5" font-family="Helvetica,sans-Serif" font-size="10.00">expected</text>
</a>
</g>
</g>
<!-- Node4&#45;&gt;Node7 -->
<g id="edge6" class="edge">
<title>Node4&#45;&gt;Node7</title>
<path fill="none" stroke="#63b8ff" d="M1953,-197.87C1953,-189.75 1953,-177.31 1953,-166.89"/>
<polygon fill="#63b8ff" stroke="#63b8ff" points="1956.5,-166.67 1953,-156.67 1949.5,-166.67 1956.5,-166.67"/>
</g>
<!-- Node8 -->
<g id="node8" class="node">
<title>Node8</title>
<g id="a_node8"><a xlink:title=" ">
<polygon fill="#e0e0e0" stroke="#999999" points="1529.5,-156.5 1464.5,-156.5 1464.5,-137.5 1529.5,-137.5 1529.5,-156.5"/>
<text text-anchor="middle" x="1497" y="-144.5" font-family="Helvetica,sans-Serif" font-size="10.00">functional</text>
</a>
</g>
</g>
<!-- Node4&#45;&gt;Node8 -->
<g id="edge7" class="edge">
<title>Node4&#45;&gt;Node8</title>
<path fill="none" stroke="#63b8ff" d="M1903.7,-204.62C1825.55,-200.88 1668.79,-190.26 1539,-162 1535.94,-161.33 1532.8,-160.53 1529.67,-159.64"/>
<polygon fill="#63b8ff" stroke="#63b8ff" points="1530.45,-156.22 1519.86,-156.61 1528.38,-162.9 1530.45,-156.22"/>
</g>
<!-- Node9 -->
<g id="node9" class="node">
<title>Node9</title>
<g id="a_node9"><a xlink:title=" ">
<polygon fill="#e0e0e0" stroke="#999999" points="2129,-85 2085,-85 2085,-66 2129,-66 2129,-85"/>
<text text-anchor="middle" x="2107" y="-73" font-family="Helvetica,sans-Serif" font-size="10.00">string</text>
</a>
</g>
</g>
<!-- Node4&#45;&gt;Node9 -->
<g id="edge8" class="edge">
<title>Node4&#45;&gt;Node9</title>
<path fill="none" stroke="#63b8ff" d="M2002.1,-201.43C2050.8,-195.26 2120.49,-182.98 2137,-162 2153.21,-141.4 2135.61,-111.4 2121.35,-92.96"/>
<polygon fill="#63b8ff" stroke="#63b8ff" points="2124.01,-90.68 2114.97,-85.15 2118.58,-95.11 2124.01,-90.68"/>
</g>
<!-- Node10 -->
<g id="node10" class="node">
<title>Node10</title>
<g id="a_node10"><a xlink:title=" ">
<polygon fill="#e0e0e0" stroke="#999999" points="1592.5,-156.5 1547.5,-156.5 1547.5,-137.5 1592.5,-137.5 1592.5,-156.5"/>
<text text-anchor="middle" x="1570" y="-144.5" font-family="Helvetica,sans-Serif" font-size="10.00">utility</text>
</a>
</g>
</g>
<!-- Node4&#45;&gt;Node10 -->
<g id="edge9" class="edge">
<title>Node4&#45;&gt;Node10</title>
<path fill="none" stroke="#63b8ff" d="M1903.88,-204.69C1835.2,-201.18 1707.1,-191 1602,-162 1600.31,-161.53 1598.6,-161 1596.88,-160.41"/>
<polygon fill="#63b8ff" stroke="#63b8ff" points="1597.86,-157.03 1587.28,-156.63 1595.3,-163.55 1597.86,-157.03"/>
</g>
<!-- Node11&#45;&gt;Node7 -->
<g id="edge11" class="edge">
<title>Node11&#45;&gt;Node7</title>
<path fill="none" stroke="#63b8ff" d="M1557.86,-362.88C1620.53,-328.79 1851.25,-203.33 1927.99,-161.6"/>
<polygon fill="#63b8ff" stroke="#63b8ff" points="1929.85,-164.57 1936.97,-156.72 1926.51,-158.42 1929.85,-164.57"/>
</g>
<!-- Node12 -->
<g id="node12" class="node">
<title>Node12</title>
<g id="a_node12"><a xlink:href="_formatters_8hpp.html" target="_top" xlink:title="Formatter specializations for various types.">
<polygon fill="white" stroke="#666666" points="1147.5,-327 1056.5,-327 1056.5,-308 1147.5,-308 1147.5,-327"/>
<text text-anchor="middle" x="1102" y="-315" font-family="Helvetica,sans-Serif" font-size="10.00">Formatters.hpp</text>
</a>
</g>
</g>
<!-- Node11&#45;&gt;Node12 -->
<g id="edge12" class="edge">
<title>Node11&#45;&gt;Node12</title>
<path fill="none" stroke="#63b8ff" d="M1480.36,-364.07C1394.53,-353.74 1240.32,-335.16 1157.76,-325.22"/>
<polygon fill="#63b8ff" stroke="#63b8ff" points="1158.16,-321.74 1147.81,-324.02 1157.32,-328.69 1158.16,-321.74"/>
</g>
<!-- Node25 -->
<g id="node25" class="node">
<title>Node25</title>
<g id="a_node25"><a xlink:href="_manifold_8hpp.html" target="_top" xlink:title="Data structures for manifolds.">
<polygon fill="white" stroke="#666666" points="1509,-327 1429,-327 1429,-308 1509,-308 1509,-327"/>
<text text-anchor="middle" x="1469" y="-315" font-family="Helvetica,sans-Serif" font-size="10.00">Manifold.hpp</text>
</a>
</g>
</g>
<!-- Node11&#45;&gt;Node25 -->
<g id="edge25" class="edge">
<title>Node11&#45;&gt;Node25</title>
<path fill="none" stroke="#63b8ff" d="M1530.27,-362.98C1519.27,-355 1502.58,-342.88 1489.4,-333.31"/>
<polygon fill="#63b8ff" stroke="#63b8ff" points="1491.09,-330.21 1480.94,-327.17 1486.98,-335.88 1491.09,-330.21"/>
</g>
<!-- Node47 -->
<g id="node46" class="node">
<title>Node47</title>
<g id="a_node46"><a xlink:href="_move__tracker_8hpp.html" target="_top" xlink:title="Track ergodic moves.">
<polygon fill="white" stroke="#666666" points="1715.5,-217 1612.5,-217 1612.5,-198 1715.5,-198 1715.5,-217"/>
<text text-anchor="middle" x="1664" y="-205" font-family="Helvetica,sans-Serif" font-size="10.00">Move_tracker.hpp</text>
</a>
</g>
</g>
<!-- Node11&#45;&gt;Node47 -->
<g id="edge56" class="edge">
<title>Node11&#45;&gt;Node47</title>
<path fill="none" stroke="#63b8ff" d="M1548.56,-362.74C1568,-336.76 1625.58,-259.83 1651.32,-225.44"/>
<polygon fill="#63b8ff" stroke="#63b8ff" points="1654.22,-227.41 1657.41,-217.31 1648.61,-223.22 1654.22,-227.41"/>
</g>
<!-- Node13 -->
<g id="node13" class="node">
<title>Node13</title>
<g id="a_node13"><a xlink:title=" ">
<polygon fill="#e0e0e0" stroke="#999999" points="1135.5,-272 1068.5,-272 1068.5,-253 1135.5,-253 1135.5,-272"/>
<text text-anchor="middle" x="1102" y="-260" font-family="Helvetica,sans-Serif" font-size="10.00">fmt/core.h</text>
</a>
</g>
</g>
<!-- Node12&#45;&gt;Node13 -->
<g id="edge13" class="edge">
<title>Node12&#45;&gt;Node13</title>
<path fill="none" stroke="#63b8ff" d="M1102,-307.75C1102,-300.8 1102,-290.85 1102,-282.13"/>
<polygon fill="#63b8ff" stroke="#63b8ff" points="1105.5,-282.09 1102,-272.09 1098.5,-282.09 1105.5,-282.09"/>
</g>
<!-- Node14 -->
<g id="node14" class="node">
<title>Node14</title>
<g id="a_node14"><a xlink:title=" ">
<polygon fill="#e0e0e0" stroke="#999999" points="1232.5,-272 1153.5,-272 1153.5,-253 1232.5,-253 1232.5,-272"/>
<text text-anchor="middle" x="1193" y="-260" font-family="Helvetica,sans-Serif" font-size="10.00">fmt/format.h</text>
</a>
</g>
</g>
<!-- Node12&#45;&gt;Node14 -->
<g id="edge14" class="edge">
<title>Node12&#45;&gt;Node14</title>
<path fill="none" stroke="#63b8ff" d="M1116.62,-307.98C1130.86,-299.69 1152.75,-286.94 1169.45,-277.22"/>
<polygon fill="#63b8ff" stroke="#63b8ff" points="1171.23,-280.23 1178.11,-272.17 1167.71,-274.18 1171.23,-280.23"/>
</g>
<!-- Node15 -->
<g id="node15" class="node">
<title>Node15</title>
<g id="a_node15"><a xlink:title=" ">
<polygon fill="#e0e0e0" stroke="#999999" points="1050,-272 994,-272 994,-253 1050,-253 1050,-272"/>
<text text-anchor="middle" x="1022" y="-260" font-family="Helvetica,sans-Serif" font-size="10.00">sstream</text>
</a>
</g>
</g>
<!-- Node12&#45;&gt;Node15 -->
<g id="edge15" class="edge">
<title>Node12&#45;&gt;Node15</title>
<path fill="none" stroke="#63b8ff" d="M1089.15,-307.98C1076.86,-299.84 1058.09,-287.41 1043.52,-277.76"/>
<polygon fill="#63b8ff" stroke="#63b8ff" points="1045.36,-274.78 1035.09,-272.17 1041.49,-280.61 1045.36,-274.78"/>
</g>
<!-- Node16 -->
<g id="node16" class="node">
<title>Node16</title>
<g id="a_node16"><a xlink:href="_triangulation__traits_8hpp.html" target="_top" xlink:title="Traits class for particular uses of CGAL.">
<polygon fill="white" stroke="#666666" points="733.5,-156.5 602.5,-156.5 602.5,-137.5 733.5,-137.5 733.5,-156.5"/>
<text text-anchor="middle" x="668" y="-144.5" font-family="Helvetica,sans-Serif" font-size="10.00">Triangulation_traits.hpp</text>
</a>
</g>
</g>
<!-- Node12&#45;&gt;Node16 -->
<g id="edge16" class="edge">
<title>Node12&#45;&gt;Node16</title>
<path fill="none" stroke="#63b8ff" d="M1079.11,-307.87C1055.5,-298.95 1017.64,-284.59 985,-272 880.19,-231.57 756.25,-182.81 699.38,-160.39"/>
<polygon fill="#63b8ff" stroke="#63b8ff" points="700.47,-157.05 689.88,-156.64 697.9,-163.57 700.47,-157.05"/>
</g>
<!-- Node17 -->
<g id="node17" class="node">
<title>Node17</title>
<g id="a_node17"><a xlink:title=" ">
<polygon fill="#e0e0e0" stroke="#999999" points="506,-85 326,-85 326,-66 506,-66 506,-85"/>
<text text-anchor="middle" x="416" y="-73" font-family="Helvetica,sans-Serif" font-size="10.00">CGAL/Delaunay_triangulation_3.h</text>
</a>
</g>
</g>
<!-- Node16&#45;&gt;Node17 -->
<g id="edge17" class="edge">
<title>Node16&#45;&gt;Node17</title>
<path fill="none" stroke="#63b8ff" d="M637.1,-137.48C591.85,-125 507.48,-101.73 457.07,-87.83"/>
<polygon fill="#63b8ff" stroke="#63b8ff" points="457.72,-84.38 447.15,-85.09 455.86,-91.12 457.72,-84.38"/>
</g>
<!-- Node18 -->
<g id="node18" class="node">
<title>Node18</title>
<g id="a_node18"><a xlink:title=" ">
<polygon fill="#e0e0e0" stroke="#999999" points="653.5,-96 524.5,-96 524.5,-55 653.5,-55 653.5,-96"/>
<text text-anchor="start" x="532.5" y="-84" font-family="Helvetica,sans-Serif" font-size="10.00">CGAL/Exact_predicates</text>
<text text-anchor="start" x="532.5" y="-73" font-family="Helvetica,sans-Serif" font-size="10.00">_inexact_constructions</text>
<text text-anchor="middle" x="589" y="-62" font-family="Helvetica,sans-Serif" font-size="10.00">_kernel.h</text>
</a>
</g>
</g>
<!-- Node16&#45;&gt;Node18 -->
<g id="edge18" class="edge">
<title>Node16&#45;&gt;Node18</title>
<path fill="none" stroke="#63b8ff" d="M658.31,-137.48C648.51,-128.85 632.85,-115.08 618.89,-102.8"/>
<polygon fill="#63b8ff" stroke="#63b8ff" points="621.18,-100.15 611.36,-96.17 616.56,-105.41 621.18,-100.15"/>
</g>
<!-- Node19 -->
<g id="node19" class="node">
<title>Node19</title>
<g id="a_node19"><a xlink:title=" ">
<polygon fill="#e0e0e0" stroke="#999999" points="820.5,-85 671.5,-85 671.5,-66 820.5,-66 820.5,-85"/>
<text text-anchor="middle" x="746" y="-73" font-family="Helvetica,sans-Serif" font-size="10.00">CGAL/point_generators_3.h</text>
</a>
</g>
</g>
<!-- Node16&#45;&gt;Node19 -->
<g id="edge19" class="edge">
<title>Node16&#45;&gt;Node19</title>
<path fill="none" stroke="#63b8ff" d="M677.56,-137.48C690.31,-126.12 713.09,-105.82 728.85,-91.78"/>
<polygon fill="#63b8ff" stroke="#63b8ff" points="731.22,-94.36 736.36,-85.09 726.56,-89.13 731.22,-94.36"/>
</g>
<!-- Node20 -->
<g id="node20" class="node">
<title>Node20</title>
<g id="a_node20"><a xlink:title=" ">
<polygon fill="#e0e0e0" stroke="#999999" points="138,-90.5 0,-90.5 0,-60.5 138,-60.5 138,-90.5"/>
<text text-anchor="start" x="8" y="-78.5" font-family="Helvetica,sans-Serif" font-size="10.00">CGAL/Triangulation</text>
<text text-anchor="middle" x="69" y="-67.5" font-family="Helvetica,sans-Serif" font-size="10.00">_cell_base_with_info_3.h</text>
</a>
</g>
</g>
<!-- Node16&#45;&gt;Node20 -->
<g id="edge20" class="edge">
<title>Node16&#45;&gt;Node20</title>
<path fill="none" stroke="#63b8ff" d="M602.2,-142.84C502.95,-137.37 309.31,-123.92 147,-96 141.67,-95.08 136.17,-94 130.66,-92.81"/>
<polygon fill="#63b8ff" stroke="#63b8ff" points="131.32,-89.37 120.8,-90.6 129.79,-96.2 131.32,-89.37"/>
</g>
<!-- Node21 -->
<g id="node21" class="node">
<title>Node21</title>
<g id="a_node21"><a xlink:title=" ">
<polygon fill="#e0e0e0" stroke="#999999" points="308,-90.5 156,-90.5 156,-60.5 308,-60.5 308,-90.5"/>
<text text-anchor="start" x="164" y="-78.5" font-family="Helvetica,sans-Serif" font-size="10.00">CGAL/Triangulation</text>
<text text-anchor="middle" x="232" y="-67.5" font-family="Helvetica,sans-Serif" font-size="10.00">_vertex_base_with_info_3.h</text>
</a>
</g>
</g>
<!-- Node16&#45;&gt;Node21 -->
<g id="edge21" class="edge">
<title>Node16&#45;&gt;Node21</title>
<path fill="none" stroke="#63b8ff" d="M602.39,-138.33C531.68,-129.67 415.95,-114.36 317,-96 311.6,-95 306.03,-93.89 300.44,-92.72"/>
<polygon fill="#63b8ff" stroke="#63b8ff" points="300.9,-89.24 290.39,-90.58 299.44,-96.09 300.9,-89.24"/>
</g>
<!-- Node22 -->
<g id="node22" class="node">
<title>Node22</title>
<g id="a_node22"><a xlink:href="_settings_8hpp.html" target="_top" xlink:title="Global integer and precision settings.">
<polygon fill="white" stroke="#666666" points="915.5,-85 838.5,-85 838.5,-66 915.5,-66 915.5,-85"/>
<text text-anchor="middle" x="877" y="-73" font-family="Helvetica,sans-Serif" font-size="10.00">Settings.hpp</text>
</a>
</g>
</g>
<!-- Node16&#45;&gt;Node22 -->
<g id="edge22" class="edge">
<title>Node16&#45;&gt;Node22</title>
<path fill="none" stroke="#63b8ff" d="M698.22,-137.45C730.77,-128.04 783.94,-112.12 829,-96 835.11,-93.81 841.6,-91.31 847.75,-88.84"/>
<polygon fill="#63b8ff" stroke="#63b8ff" points="849.13,-92.06 857.06,-85.04 846.48,-85.58 849.13,-92.06"/>
</g>
<!-- Node23 -->
<g id="node23" class="node">
<title>Node23</title>
<g id="a_node23"><a xlink:title=" ">
<polygon fill="#e0e0e0" stroke="#999999" points="890,-19 750,-19 750,0 890,0 890,-19"/>
<text text-anchor="middle" x="820" y="-7" font-family="Helvetica,sans-Serif" font-size="10.00">CGAL/GMP/Gmpzf_type.h</text>
</a>
</g>
</g>
<!-- Node22&#45;&gt;Node23 -->
<g id="edge23" class="edge">
<title>Node22&#45;&gt;Node23</title>
<path fill="none" stroke="#63b8ff" d="M869.31,-65.87C860.52,-56 845.93,-39.61 834.89,-27.22"/>
<polygon fill="#63b8ff" stroke="#63b8ff" points="837.2,-24.55 827.93,-19.41 831.97,-29.2 837.2,-24.55"/>
</g>
<!-- Node24 -->
<g id="node24" class="node">
<title>Node24</title>
<g id="a_node24"><a xlink:title=" ">
<polygon fill="#e0e0e0" stroke="#999999" points="958,-19 908,-19 908,0 958,0 958,-19"/>
<text text-anchor="middle" x="933" y="-7" font-family="Helvetica,sans-Serif" font-size="10.00">cstdint</text>
</a>
</g>
</g>
<!-- Node22&#45;&gt;Node24 -->
<g id="edge24" class="edge">
<title>Node22&#45;&gt;Node24</title>
<path fill="none" stroke="#63b8ff" d="M884.55,-65.87C893.19,-56 907.53,-39.61 918.37,-27.22"/>
<polygon fill="#63b8ff" stroke="#63b8ff" points="921.26,-29.24 925.21,-19.41 915.99,-24.63 921.26,-29.24"/>
</g>
<!-- Node26 -->
<g id="node26" class="node">
<title>Node26</title>
<g id="a_node26"><a xlink:title=" ">
<polygon fill="#e0e0e0" stroke="#999999" points="1663.5,-156.5 1610.5,-156.5 1610.5,-137.5 1663.5,-137.5 1663.5,-156.5"/>
<text text-anchor="middle" x="1637" y="-144.5" font-family="Helvetica,sans-Serif" font-size="10.00">cstddef</text>
</a>
</g>
</g>
<!-- Node25&#45;&gt;Node26 -->
<g id="edge26" class="edge">
<title>Node25&#45;&gt;Node26</title>
<path fill="none" stroke="#63b8ff" d="M1477.56,-307.91C1504.18,-281.21 1585.79,-199.36 1620.79,-164.26"/>
<polygon fill="#63b8ff" stroke="#63b8ff" points="1623.67,-166.33 1628.25,-156.77 1618.71,-161.38 1623.67,-166.33"/>
</g>
<!-- Node27 -->
<g id="node27" class="node">
<title>Node27</title>
<g id="a_node27"><a xlink:title=" ">
<polygon fill="#e0e0e0" stroke="#999999" points="1313.5,-156.5 1244.5,-156.5 1244.5,-137.5 1313.5,-137.5 1313.5,-156.5"/>
<text text-anchor="middle" x="1279" y="-144.5" font-family="Helvetica,sans-Serif" font-size="10.00">type_traits</text>
</a>
</g>
</g>
<!-- Node25&#45;&gt;Node27 -->
<g id="edge27" class="edge">
<title>Node25&#45;&gt;Node27</title>
<path fill="none" stroke="#63b8ff" d="M1468.02,-307.58C1466.24,-294.61 1461.54,-270.2 1450,-253 1428.35,-220.72 1414.81,-218.85 1382,-198 1358.83,-183.28 1330.67,-169.89 1309.66,-160.67"/>
<polygon fill="#63b8ff" stroke="#63b8ff" points="1310.83,-157.37 1300.27,-156.62 1308.06,-163.8 1310.83,-157.37"/>
</g>
<!-- Node28 -->
<g id="node28" class="node">
<title>Node28</title>
<g id="a_node28"><a xlink:title=" ">
<polygon fill="#e0e0e0" stroke="#999999" points="1337,-272 1251,-272 1251,-253 1337,-253 1337,-272"/>
<text text-anchor="middle" x="1294" y="-260" font-family="Helvetica,sans-Serif" font-size="10.00">unordered_set</text>
</a>
</g>
</g>
<!-- Node25&#45;&gt;Node28 -->
<g id="edge28" class="edge">
<title>Node25&#45;&gt;Node28</title>
<path fill="none" stroke="#63b8ff" d="M1440.88,-307.98C1411.38,-299.05 1364.81,-284.94 1332.03,-275.02"/>
<polygon fill="#63b8ff" stroke="#63b8ff" points="1332.92,-271.63 1322.34,-272.08 1330.89,-278.33 1332.92,-271.63"/>
</g>
<!-- Node29 -->
<g id="node29" class="node">
<title>Node29</title>
<g id="a_node29"><a xlink:href="_geometry_8hpp.html" target="_top" xlink:title="Geometric scalars of the Manifold used to calculate the Regge action.">
<polygon fill="white" stroke="#666666" points="1440.5,-272 1355.5,-272 1355.5,-253 1440.5,-253 1440.5,-272"/>
<text text-anchor="middle" x="1398" y="-260" font-family="Helvetica,sans-Serif" font-size="10.00">Geometry.hpp</text>
</a>
</g>
</g>
<!-- Node25&#45;&gt;Node29 -->
<g id="edge29" class="edge">
<title>Node25&#45;&gt;Node29</title>
<path fill="none" stroke="#63b8ff" d="M1457.59,-307.98C1446.89,-300 1430.66,-287.88 1417.84,-278.31"/>
<polygon fill="#63b8ff" stroke="#63b8ff" points="1419.72,-275.35 1409.61,-272.17 1415.53,-280.96 1419.72,-275.35"/>
</g>
<!-- Node29&#45;&gt;Node27 -->
<g id="edge30" class="edge">
<title>Node29&#45;&gt;Node27</title>
<path fill="none" stroke="#63b8ff" d="M1394.43,-252.82C1388.7,-239.72 1376.42,-214.65 1360,-198 1344.87,-182.66 1324.13,-169.97 1307.43,-161.22"/>
<polygon fill="#63b8ff" stroke="#63b8ff" points="1308.64,-157.91 1298.14,-156.53 1305.49,-164.16 1308.64,-157.91"/>
</g>
<!-- Node30 -->
<g id="node30" class="node">
<title>Node30</title>
<g id="a_node30"><a xlink:href="_foliated__triangulation_8hpp.html" target="_top" xlink:title="Create foliated spherical triangulations.">
<polygon fill="#fff0f0" stroke="red" points="1351,-217 1207,-217 1207,-198 1351,-198 1351,-217"/>
<text text-anchor="middle" x="1279" y="-205" font-family="Helvetica,sans-Serif" font-size="10.00">Foliated_triangulation.hpp</text>
</a>
</g>
</g>
<!-- Node29&#45;&gt;Node30 -->
<g id="edge31" class="edge">
<title>Node29&#45;&gt;Node30</title>
<path fill="none" stroke="#63b8ff" d="M1378.88,-252.98C1359.65,-244.42 1329.77,-231.11 1307.69,-221.28"/>
<polygon fill="#63b8ff" stroke="#63b8ff" points="1309.03,-218.04 1298.47,-217.17 1306.18,-224.44 1309.03,-218.04"/>
</g>
<!-- Node30&#45;&gt;Node8 -->
<g id="edge34" class="edge">
<title>Node30&#45;&gt;Node8</title>
<path fill="none" stroke="#63b8ff" d="M1315.96,-198C1351.72,-189.57 1407.36,-175.94 1455,-162 1457.45,-161.28 1459.98,-160.51 1462.51,-159.72"/>
<polygon fill="#63b8ff" stroke="#63b8ff" points="1463.78,-162.99 1472.22,-156.6 1461.63,-156.33 1463.78,-162.99"/>
</g>
<!-- Node30&#45;&gt;Node10 -->
<g id="edge37" class="edge">
<title>Node30&#45;&gt;Node10</title>
<path fill="none" stroke="#63b8ff" d="M1351.04,-199.17C1403.88,-192.59 1476.92,-180.99 1539,-162 1540.63,-161.5 1542.29,-160.94 1543.94,-160.33"/>
<polygon fill="#63b8ff" stroke="#63b8ff" points="1545.33,-163.54 1553.25,-156.5 1542.67,-157.07 1545.33,-163.54"/>
</g>
<!-- Node30&#45;&gt;Node16 -->
<g id="edge38" class="edge">
<title>Node30&#45;&gt;Node16</title>
<path fill="none" stroke="#63b8ff" d="M1206.81,-199.59C1090.37,-188.44 862.16,-166.59 743.58,-155.24"/>
<polygon fill="#63b8ff" stroke="#63b8ff" points="743.79,-151.74 733.5,-154.27 743.12,-158.71 743.79,-151.74"/>
</g>
<!-- Node30&#45;&gt;Node27 -->
<g id="edge36" class="edge">
<title>Node30&#45;&gt;Node27</title>
<path fill="none" stroke="#63b8ff" d="M1279,-197.87C1279,-189.75 1279,-177.31 1279,-166.89"/>
<polygon fill="#63b8ff" stroke="#63b8ff" points="1282.5,-166.67 1279,-156.67 1275.5,-166.67 1282.5,-166.67"/>
</g>
<!-- Node31 -->
<g id="node31" class="node">
<title>Node31</title>
<g id="a_node31"><a xlink:title=" ">
<polygon fill="#e0e0e0" stroke="#999999" points="1081,-85 1017,-85 1017,-66 1081,-66 1081,-85"/>
<text text-anchor="middle" x="1049" y="-73" font-family="Helvetica,sans-Serif" font-size="10.00">algorithm</text>
</a>
</g>
</g>
<!-- Node30&#45;&gt;Node31 -->
<g id="edge32" class="edge">
<title>Node30&#45;&gt;Node31</title>
<path fill="none" stroke="#63b8ff" d="M1252.54,-197.94C1229.87,-190.1 1196.76,-177.38 1170,-162 1151.04,-151.1 1148.73,-144.8 1131,-132 1110.89,-117.48 1087.4,-101.7 1070.73,-90.69"/>
<polygon fill="#63b8ff" stroke="#63b8ff" points="1072.51,-87.67 1062.23,-85.1 1068.67,-93.52 1072.51,-87.67"/>
</g>
<!-- Node32 -->
<g id="node32" class="node">
<title>Node32</title>
<g id="a_node32"><a xlink:title=" ">
<polygon fill="#e0e0e0" stroke="#999999" points="1226.5,-156.5 1179.5,-156.5 1179.5,-137.5 1226.5,-137.5 1226.5,-156.5"/>
<text text-anchor="middle" x="1203" y="-144.5" font-family="Helvetica,sans-Serif" font-size="10.00">cmath</text>
</a>
</g>
</g>
<!-- Node30&#45;&gt;Node32 -->
<g id="edge33" class="edge">
<title>Node30&#45;&gt;Node32</title>
<path fill="none" stroke="#63b8ff" d="M1267.79,-197.87C1255.89,-188.71 1236.86,-174.06 1222.49,-163.01"/>
<polygon fill="#63b8ff" stroke="#63b8ff" points="1224.32,-159.99 1214.26,-156.67 1220.05,-165.54 1224.32,-159.99"/>
</g>
<!-- Node33 -->
<g id="node33" class="node">
<title>Node33</title>
<g id="a_node33"><a xlink:title=" ">
<polygon fill="#e0e0e0" stroke="#999999" points="1122.5,-156.5 1069.5,-156.5 1069.5,-137.5 1122.5,-137.5 1122.5,-156.5"/>
<text text-anchor="middle" x="1096" y="-144.5" font-family="Helvetica,sans-Serif" font-size="10.00">iterator</text>
</a>
</g>
</g>
<!-- Node30&#45;&gt;Node33 -->
<g id="edge35" class="edge">
<title>Node30&#45;&gt;Node33</title>
<path fill="none" stroke="#63b8ff" d="M1250.91,-197.93C1222.22,-189.12 1176.41,-174.9 1137,-162 1134.77,-161.27 1132.47,-160.51 1130.16,-159.74"/>
<polygon fill="#63b8ff" stroke="#63b8ff" points="1131.28,-156.42 1120.68,-156.54 1129.04,-163.05 1131.28,-156.42"/>
</g>
<!-- Node35 -->
<g id="node34" class="node">
<title>Node35</title>
<g id="a_node34"><a xlink:href="_utilities_8hpp.html" target="_top" xlink:title="Utility functions.">
<polygon fill="white" stroke="#666666" points="1446,-156.5 1370,-156.5 1370,-137.5 1446,-137.5 1446,-156.5"/>
<text text-anchor="middle" x="1408" y="-144.5" font-family="Helvetica,sans-Serif" font-size="10.00">Utilities.hpp</text>
</a>
</g>
</g>
<!-- Node30&#45;&gt;Node35 -->
<g id="edge39" class="edge">
<title>Node30&#45;&gt;Node35</title>
<path fill="none" stroke="#63b8ff" d="M1297.76,-197.99C1319.35,-188.2 1355.03,-172.02 1379.93,-160.73"/>
<polygon fill="#63b8ff" stroke="#63b8ff" points="1381.56,-163.83 1389.22,-156.52 1378.67,-157.46 1381.56,-163.83"/>
</g>
<!-- Node35&#45;&gt;Node2 -->
<g id="edge47" class="edge">
<title>Node35&#45;&gt;Node2</title>
<path fill="none" stroke="#63b8ff" d="M1379.58,-137.47C1371.98,-135.43 1363.72,-133.43 1356,-132 1203.11,-103.7 1157.91,-137.31 1008,-96 1002.28,-94.42 996.38,-92.14 990.86,-89.68"/>
<polygon fill="#63b8ff" stroke="#63b8ff" points="992.01,-86.35 981.48,-85.19 988.99,-92.67 992.01,-86.35"/>
</g>
<!-- Node35&#45;&gt;Node5 -->
<g id="edge54" class="edge">
<title>Node35&#45;&gt;Node5</title>
<path fill="none" stroke="#63b8ff" d="M1433.15,-137.48C1440.44,-135.33 1448.47,-133.28 1456,-132 1755.25,-81.17 1840.16,-154.49 2138,-96 2146.79,-94.27 2156.06,-91.47 2164.49,-88.52"/>
<polygon fill="#63b8ff" stroke="#63b8ff" points="2165.73,-91.79 2173.9,-85.05 2163.31,-85.23 2165.73,-91.79"/>
</g>
<!-- Node35&#45;&gt;Node9 -->
<g id="edge48" class="edge">
<title>Node35&#45;&gt;Node9</title>
<path fill="none" stroke="#63b8ff" d="M1433.41,-137.43C1440.63,-135.31 1448.56,-133.28 1456,-132 1592,-108.53 1944.56,-138.07 2076,-96 2079.97,-94.73 2083.95,-92.83 2087.66,-90.7"/>
<polygon fill="#63b8ff" stroke="#63b8ff" points="2089.69,-93.56 2096.2,-85.19 2085.9,-87.67 2089.69,-93.56"/>
</g>
<!-- Node35&#45;&gt;Node22 -->
<g id="edge55" class="edge">
<title>Node35&#45;&gt;Node22</title>
<path fill="none" stroke="#63b8ff" d="M1379.87,-137.44C1372.19,-135.37 1363.83,-133.37 1356,-132 1166.21,-98.82 1111.22,-141.46 924,-96 917.08,-94.32 909.86,-91.76 903.21,-89.05"/>
<polygon fill="#63b8ff" stroke="#63b8ff" points="904.54,-85.82 893.98,-85.04 901.76,-92.24 904.54,-85.82"/>
</g>
<!-- Node35&#45;&gt;Node31 -->
<g id="edge40" class="edge">
<title>Node35&#45;&gt;Node31</title>
<path fill="none" stroke="#63b8ff" d="M1379,-137.49C1371.55,-135.49 1363.52,-133.51 1356,-132 1239.05,-108.44 1204.34,-130.03 1090,-96 1084.43,-94.34 1078.66,-92.02 1073.28,-89.56"/>
<polygon fill="#63b8ff" stroke="#63b8ff" points="1074.65,-86.33 1064.13,-85.08 1071.57,-92.62 1074.65,-86.33"/>
</g>
<!-- Node36 -->
<g id="node35" class="node">
<title>Node36</title>
<g id="a_node35"><a xlink:title=" ">
<polygon fill="#e0e0e0" stroke="#999999" points="1525,-85 1457,-85 1457,-66 1525,-66 1525,-85"/>
<text text-anchor="middle" x="1491" y="-73" font-family="Helvetica,sans-Serif" font-size="10.00">filesystem</text>
</a>
</g>
</g>
<!-- Node35&#45;&gt;Node36 -->
<g id="edge41" class="edge">
<title>Node35&#45;&gt;Node36</title>
<path fill="none" stroke="#63b8ff" d="M1418.18,-137.48C1431.74,-126.12 1455.98,-105.82 1472.75,-91.78"/>
<polygon fill="#63b8ff" stroke="#63b8ff" points="1475.32,-94.2 1480.74,-85.09 1470.83,-88.83 1475.32,-94.2"/>
</g>
<!-- Node37 -->
<g id="node36" class="node">
<title>Node37</title>
<g id="a_node36"><a xlink:title=" ">
<polygon fill="#e0e0e0" stroke="#999999" points="1598.5,-85 1543.5,-85 1543.5,-66 1598.5,-66 1598.5,-85"/>
<text text-anchor="middle" x="1571" y="-73" font-family="Helvetica,sans-Serif" font-size="10.00">fstream</text>
</a>
</g>
</g>
<!-- Node35&#45;&gt;Node37 -->
<g id="edge42" class="edge">
<title>Node35&#45;&gt;Node37</title>
<path fill="none" stroke="#63b8ff" d="M1432.01,-137.35C1457.6,-127.92 1499.15,-112.04 1534,-96 1538.19,-94.07 1542.59,-91.89 1546.82,-89.72"/>
<polygon fill="#63b8ff" stroke="#63b8ff" points="1548.49,-92.79 1555.7,-85.03 1545.22,-86.6 1548.49,-92.79"/>
</g>
<!-- Node38 -->
<g id="node37" class="node">
<title>Node38</title>
<g id="a_node37"><a xlink:title=" ">
<polygon fill="#e0e0e0" stroke="#999999" points="1665,-85 1617,-85 1617,-66 1665,-66 1665,-85"/>
<text text-anchor="middle" x="1641" y="-73" font-family="Helvetica,sans-Serif" font-size="10.00">gsl/gsl</text>
</a>
</g>
</g>
<!-- Node35&#45;&gt;Node38 -->
<g id="edge43" class="edge">
<title>Node35&#45;&gt;Node38</title>
<path fill="none" stroke="#63b8ff" d="M1436.36,-137.47C1442.8,-135.6 1449.62,-133.68 1456,-132 1523.12,-114.27 1543.61,-121.95 1608,-96 1611.92,-94.42 1615.92,-92.43 1619.72,-90.32"/>
<polygon fill="#63b8ff" stroke="#63b8ff" points="1621.81,-93.15 1628.61,-85.03 1618.23,-87.14 1621.81,-93.15"/>
</g>
<!-- Node39 -->
<g id="node38" class="node">
<title>Node39</title>
<g id="a_node38"><a xlink:title=" ">
<polygon fill="#e0e0e0" stroke="#999999" points="1731,-85 1683,-85 1683,-66 1731,-66 1731,-85"/>
<text text-anchor="middle" x="1707" y="-73" font-family="Helvetica,sans-Serif" font-size="10.00">mutex</text>
</a>
</g>
</g>
<!-- Node35&#45;&gt;Node39 -->
<g id="edge44" class="edge">
<title>Node35&#45;&gt;Node39</title>
<path fill="none" stroke="#63b8ff" d="M1435.27,-137.43C1442,-135.49 1449.23,-133.54 1456,-132 1551.75,-110.21 1581.71,-129.55 1674,-96 1678.15,-94.49 1682.37,-92.45 1686.34,-90.26"/>
<polygon fill="#63b8ff" stroke="#63b8ff" points="1688.24,-93.2 1695,-85.05 1684.63,-87.21 1688.24,-93.2"/>
</g>
<!-- Node40 -->
<g id="node39" class="node">
<title>Node40</title>
<g id="a_node39"><a xlink:title=" ">
<polygon fill="#e0e0e0" stroke="#999999" points="1803,-85 1749,-85 1749,-66 1803,-66 1803,-85"/>
<text text-anchor="middle" x="1776" y="-73" font-family="Helvetica,sans-Serif" font-size="10.00">random</text>
</a>
</g>
</g>
<!-- Node35&#45;&gt;Node40 -->
<g id="edge45" class="edge">
<title>Node35&#45;&gt;Node40</title>
<path fill="none" stroke="#63b8ff" d="M1434.47,-137.47C1441.42,-135.45 1448.95,-133.47 1456,-132 1580.57,-106.11 1618.88,-134.97 1740,-96 1744.62,-94.51 1749.33,-92.44 1753.76,-90.19"/>
<polygon fill="#63b8ff" stroke="#63b8ff" points="1755.8,-93.06 1762.86,-85.15 1752.41,-86.93 1755.8,-93.06"/>
</g>
<!-- Node41 -->
<g id="node40" class="node">
<title>Node41</title>
<g id="a_node40"><a xlink:title=" ">
<polygon fill="#e0e0e0" stroke="#999999" points="2067,-85 2027,-85 2027,-66 2067,-66 2067,-85"/>
<text text-anchor="middle" x="2047" y="-73" font-family="Helvetica,sans-Serif" font-size="10.00">span</text>
</a>
</g>
</g>
<!-- Node35&#45;&gt;Node41 -->
<g id="edge46" class="edge">
<title>Node35&#45;&gt;Node41</title>
<path fill="none" stroke="#63b8ff" d="M1433.41,-137.46C1440.64,-135.34 1448.56,-133.31 1456,-132 1702.52,-88.7 1781.05,-176.62 2018,-96 2021.66,-94.75 2025.3,-92.92 2028.69,-90.87"/>
<polygon fill="#63b8ff" stroke="#63b8ff" points="2030.72,-93.72 2036.98,-85.18 2026.75,-87.95 2030.72,-93.72"/>
</g>
<!-- Node42 -->
<g id="node41" class="node">
<title>Node42</title>
<g id="a_node41"><a xlink:title=" ">
<polygon fill="#e0e0e0" stroke="#999999" points="1893,-85 1821,-85 1821,-66 1893,-66 1893,-85"/>
<text text-anchor="middle" x="1857" y="-73" font-family="Helvetica,sans-Serif" font-size="10.00">date/date.h</text>
</a>
</g>
</g>
<!-- Node35&#45;&gt;Node42 -->
<g id="edge49" class="edge">
<title>Node35&#45;&gt;Node42</title>
<path fill="none" stroke="#63b8ff" d="M1433.94,-137.49C1441.03,-135.43 1448.76,-133.41 1456,-132 1612.1,-101.61 1658.11,-136.09 1812,-96 1818.38,-94.34 1825.02,-91.9 1831.17,-89.3"/>
<polygon fill="#63b8ff" stroke="#63b8ff" points="1832.66,-92.47 1840.34,-85.18 1829.79,-86.09 1832.66,-92.47"/>
</g>
<!-- Node43 -->
<g id="node42" class="node">
<title>Node43</title>
<g id="a_node42"><a xlink:title=" ">
<polygon fill="#e0e0e0" stroke="#999999" points="2009,-85 1911,-85 1911,-66 2009,-66 2009,-85"/>
<text text-anchor="middle" x="1960" y="-73" font-family="Helvetica,sans-Serif" font-size="10.00">pcg_random.hpp</text>
</a>
</g>
</g>
<!-- Node35&#45;&gt;Node43 -->
<g id="edge50" class="edge">
<title>Node35&#45;&gt;Node43</title>
<path fill="none" stroke="#63b8ff" d="M1433.68,-137.47C1440.83,-135.38 1448.66,-133.35 1456,-132 1651.58,-95.97 1707.19,-135.98 1902,-96 1910.9,-94.17 1920.33,-91.39 1928.94,-88.49"/>
<polygon fill="#63b8ff" stroke="#63b8ff" points="1930.32,-91.72 1938.59,-85.09 1927.99,-85.12 1930.32,-91.72"/>
</g>
<!-- Node44 -->
<g id="node43" class="node">
<title>Node44</title>
<g id="a_node43"><a xlink:title=" ">
<polygon fill="#e0e0e0" stroke="#999999" points="1185,-85 1099,-85 1099,-66 1185,-66 1185,-85"/>
<text text-anchor="middle" x="1142" y="-73" font-family="Helvetica,sans-Serif" font-size="10.00">fmt/ostream.h</text>
</a>
</g>
</g>
<!-- Node35&#45;&gt;Node44 -->
<g id="edge51" class="edge">
<title>Node35&#45;&gt;Node44</title>
<path fill="none" stroke="#63b8ff" d="M1377.26,-137.48C1370.29,-135.62 1362.9,-133.69 1356,-132 1284.37,-114.41 1264.7,-117 1194,-96 1187.04,-93.93 1179.69,-91.4 1172.76,-88.85"/>
<polygon fill="#63b8ff" stroke="#63b8ff" points="1173.61,-85.43 1163.02,-85.15 1171.13,-91.97 1173.61,-85.43"/>
</g>
<!-- Node45 -->
<g id="node44" class="node">
<title>Node45</title>
<g id="a_node44"><a xlink:title=" ">
<polygon fill="#e0e0e0" stroke="#999999" points="1309,-90.5 1203,-90.5 1203,-60.5 1309,-60.5 1309,-90.5"/>
<text text-anchor="start" x="1211" y="-78.5" font-family="Helvetica,sans-Serif" font-size="10.00">spdlog/sinks/basic</text>
<text text-anchor="middle" x="1256" y="-67.5" font-family="Helvetica,sans-Serif" font-size="10.00">_file_sink.h</text>
</a>
</g>
</g>
<!-- Node35&#45;&gt;Node45 -->
<g id="edge52" class="edge">
<title>Node35&#45;&gt;Node45</title>
<path fill="none" stroke="#63b8ff" d="M1389.36,-137.48C1366.26,-126.91 1326.24,-108.62 1296.06,-94.81"/>
<polygon fill="#63b8ff" stroke="#63b8ff" points="1297.18,-91.48 1286.63,-90.51 1294.27,-97.85 1297.18,-91.48"/>
</g>
<!-- Node46 -->
<g id="node45" class="node">
<title>Node46</title>
<g id="a_node45"><a xlink:title=" ">
<polygon fill="#e0e0e0" stroke="#999999" points="1438.5,-90.5 1327.5,-90.5 1327.5,-60.5 1438.5,-60.5 1438.5,-90.5"/>
<text text-anchor="start" x="1335.5" y="-78.5" font-family="Helvetica,sans-Serif" font-size="10.00">spdlog/sinks/stdout</text>
<text text-anchor="middle" x="1383" y="-67.5" font-family="Helvetica,sans-Serif" font-size="10.00">_color_sinks.h</text>
</a>
</g>
</g>
<!-- Node35&#45;&gt;Node46 -->
<g id="edge53" class="edge">
<title>Node35&#45;&gt;Node46</title>
<path fill="none" stroke="#63b8ff" d="M1404.93,-137.48C1401.62,-128.27 1396.2,-113.18 1391.57,-100.32"/>
<polygon fill="#63b8ff" stroke="#63b8ff" points="1394.76,-98.86 1388.09,-90.64 1388.18,-101.23 1394.76,-98.86"/>
</g>
<!-- Node47&#45;&gt;Node22 -->
<g id="edge62" class="edge">
<title>Node47&#45;&gt;Node22</title>
<path fill="none" stroke="#63b8ff" d="M1612.29,-206.74C1550.22,-205.29 1444.1,-197.21 1361,-162 1340.86,-153.47 1342.36,-139.97 1322,-132 1156.6,-67.28 1096.45,-138.52 924,-96 917.08,-94.29 909.86,-91.73 903.21,-89.02"/>
<polygon fill="#63b8ff" stroke="#63b8ff" points="904.55,-85.78 893.99,-85.01 901.77,-92.2 904.55,-85.78"/>
</g>
<!-- Node47&#45;&gt;Node26 -->
<g id="edge58" class="edge">
<title>Node47&#45;&gt;Node26</title>
<path fill="none" stroke="#63b8ff" d="M1660.02,-197.87C1656.15,-189.49 1650.16,-176.51 1645.26,-165.89"/>
<polygon fill="#63b8ff" stroke="#63b8ff" points="1648.37,-164.28 1641,-156.67 1642.01,-167.21 1648.37,-164.28"/>
</g>
<!-- Node47&#45;&gt;Node35 -->
<g id="edge63" class="edge">
<title>Node47&#45;&gt;Node35</title>
<path fill="none" stroke="#63b8ff" d="M1619.56,-197.97C1577.29,-189.63 1512.03,-176.15 1456,-162 1452.66,-161.16 1449.2,-160.24 1445.74,-159.29"/>
<polygon fill="#63b8ff" stroke="#63b8ff" points="1446.65,-155.91 1436.08,-156.56 1444.75,-162.65 1446.65,-155.91"/>
</g>
<!-- Node47&#45;&gt;Node41 -->
<g id="edge61" class="edge">
<title>Node47&#45;&gt;Node41</title>
<path fill="none" stroke="#63b8ff" d="M1666.69,-197.79C1672.14,-181.73 1686.16,-147.66 1711,-132 1827.22,-58.75 1889.16,-143.67 2018,-96 2021.63,-94.66 2025.25,-92.78 2028.64,-90.7"/>
<polygon fill="#63b8ff" stroke="#63b8ff" points="2030.65,-93.56 2036.92,-85.02 2026.7,-87.79 2030.65,-93.56"/>
</g>
<!-- Node48 -->
<g id="node47" class="node">
<title>Node48</title>
<g id="a_node47"><a xlink:title=" ">
<polygon fill="#e0e0e0" stroke="#999999" points="1762,-156.5 1720,-156.5 1720,-137.5 1762,-137.5 1762,-156.5"/>
<text text-anchor="middle" x="1741" y="-144.5" font-family="Helvetica,sans-Serif" font-size="10.00">array</text>
</a>
</g>
</g>
<!-- Node47&#45;&gt;Node48 -->
<g id="edge57" class="edge">
<title>Node47&#45;&gt;Node48</title>
<path fill="none" stroke="#63b8ff" d="M1675.36,-197.87C1687.42,-188.71 1706.7,-174.06 1721.25,-163.01"/>
<polygon fill="#63b8ff" stroke="#63b8ff" points="1723.75,-165.5 1729.59,-156.67 1719.51,-159.93 1723.75,-165.5"/>
</g>
<!-- Node49 -->
<g id="node48" class="node">
<title>Node49</title>
<g id="a_node48"><a xlink:title=" ">
<polygon fill="#e0e0e0" stroke="#999999" points="1830,-156.5 1780,-156.5 1780,-137.5 1830,-137.5 1830,-156.5"/>
<text text-anchor="middle" x="1805" y="-144.5" font-family="Helvetica,sans-Serif" font-size="10.00">gsl/util</text>
</a>
</g>
</g>
<!-- Node47&#45;&gt;Node49 -->
<g id="edge59" class="edge">
<title>Node47&#45;&gt;Node49</title>
<path fill="none" stroke="#63b8ff" d="M1684.5,-197.99C1708.31,-188.12 1747.79,-171.73 1775.04,-160.43"/>
<polygon fill="#63b8ff" stroke="#63b8ff" points="1776.58,-163.58 1784.47,-156.52 1773.89,-157.12 1776.58,-163.58"/>
</g>
<!-- Node50 -->
<g id="node49" class="node">
<title>Node50</title>
<g id="a_node49"><a xlink:title=" ">
<polygon fill="#e0e0e0" stroke="#999999" points="1904,-156.5 1848,-156.5 1848,-137.5 1904,-137.5 1904,-156.5"/>
<text text-anchor="middle" x="1876" y="-144.5" font-family="Helvetica,sans-Serif" font-size="10.00">numeric</text>
</a>
</g>
</g>
<!-- Node47&#45;&gt;Node50 -->
<g id="edge60" class="edge">
<title>Node47&#45;&gt;Node50</title>
<path fill="none" stroke="#63b8ff" d="M1702.93,-197.93C1738.63,-189.76 1792.81,-176.56 1839,-162 1840.92,-161.4 1842.88,-160.75 1844.85,-160.07"/>
<polygon fill="#63b8ff" stroke="#63b8ff" points="1846.4,-163.23 1854.62,-156.56 1844.03,-156.65 1846.4,-163.23"/>
</g>
</g>
</svg>
