<?xml version="1.0" encoding="UTF-8" standalone="no"?>
<!DOCTYPE svg PUBLIC "-//W3C//DTD SVG 1.1//EN"
 "http://www.w3.org/Graphics/SVG/1.1/DTD/svg11.dtd">
<!-- Generated by graphviz version 15.1.0 (20260618.0150)
 -->
<!-- Title: include/Move_command.hpp Pages: 1 -->
<svg width="2271pt" height="452pt"
 viewBox="0.00 0.00 2271.00 452.00" xmlns="http://www.w3.org/2000/svg" xmlns:xlink="http://www.w3.org/1999/xlink">
<g id="graph0" class="graph" transform="scale(1 1) rotate(0) translate(4 447.5)">
<title>include/Move_command.hpp</title>
<!-- Node1 -->
<g id="Node000001" class="node">
<title>Node1</title>
<g id="a_Node000001"><a xlink:title="Do ergodic moves using the Command pattern.">
<polygon fill="#999999" stroke="#666666" points="2048.31,-443.5 1892.06,-443.5 1892.06,-422.75 2048.31,-422.75 2048.31,-443.5"/>
<text xml:space="preserve" text-anchor="middle" x="1970.19" y="-430" font-family="Helvetica,sans-Serif" font-size="10.00">include/Move_command.hpp</text>
</a>
</g>
</g>
<!-- Node2 -->
<g id="Node000002" class="node">
<title>Node2</title>
<g id="a_Node000002"><a xlink:title=" ">
<polygon fill="#e0e0e0" stroke="#999999" points="2232.44,-90.25 2139.94,-90.25 2139.94,-69.5 2232.44,-69.5 2232.44,-90.25"/>
<text xml:space="preserve" text-anchor="middle" x="2186.19" y="-76.75" font-family="Helvetica,sans-Serif" font-size="10.00">spdlog/spdlog.h</text>
</a>
</g>
</g>
<!-- Node1&#45;&gt;Node2 -->
<g id="edge1_Node000001_Node000002" class="edge">
<title>Node1&#45;&gt;Node2</title>
<g id="a_edge1_Node000001_Node000002"><a xlink:title=" ">
<path fill="none" stroke="#63b8ff" d="M1994.32,-422.26C2029.22,-406.97 2094.1,-374.6 2135.19,-330 2195.07,-265.01 2192.49,-149.33 2188.51,-101.97"/>
<polygon fill="#63b8ff" stroke="#63b8ff" points="2192,-101.65 2187.55,-92.03 2185.03,-102.32 2192,-101.65"/>
</a>
</g>
</g>
<!-- Node3 -->
<g id="Node000003" class="node">
<title>Node3</title>
<g id="a_Node000003"><a xlink:href="_ergodic__moves__3_8hpp.html" target="_top" xlink:title="Pachner moves on 2+1 dimensional foliated Delaunay triangulations.">
<polygon fill="white" stroke="#666666" points="2031.44,-386.75 1908.94,-386.75 1908.94,-366 2031.44,-366 2031.44,-386.75"/>
<text xml:space="preserve" text-anchor="middle" x="1970.19" y="-373.25" font-family="Helvetica,sans-Serif" font-size="10.00">Ergodic_moves_3.hpp</text>
</a>
</g>
</g>
<!-- Node1&#45;&gt;Node3 -->
<g id="edge2_Node000001_Node000003" class="edge">
<title>Node1&#45;&gt;Node3</title>
<g id="a_edge2_Node000001_Node000003"><a xlink:title=" ">
<path fill="none" stroke="#63b8ff" d="M1970.19,-422.34C1970.19,-415.72 1970.19,-406.72 1970.19,-398.52"/>
<polygon fill="#63b8ff" stroke="#63b8ff" points="1973.69,-398.59 1970.19,-388.59 1966.69,-398.59 1973.69,-398.59"/>
</a>
</g>
</g>
<!-- Node19 -->
<g id="Node000019" class="node">
<title>Node19</title>
<g id="a_Node000019"><a xlink:href="_random_8hpp.html" target="_top" xlink:title="Run&#45;owned random&#45;number generation and reproducible stream splitting.">
<polygon fill="white" stroke="#666666" points="932.94,-90.25 855.44,-90.25 855.44,-69.5 932.94,-69.5 932.94,-90.25"/>
<text xml:space="preserve" text-anchor="middle" x="894.19" y="-76.75" font-family="Helvetica,sans-Serif" font-size="10.00">Random.hpp</text>
</a>
</g>
</g>
<!-- Node1&#45;&gt;Node19 -->
<g id="edge63_Node000001_Node000019" class="edge">
<title>Node1&#45;&gt;Node19</title>
<g id="a_edge63_Node000001_Node000019"><a xlink:title=" ">
<path fill="none" stroke="#63b8ff" d="M1891.72,-429.7C1605.77,-420.36 636.19,-384.03 636.19,-320.62 636.19,-320.62 636.19,-320.62 636.19,-205.12 636.19,-101.34 747.8,-136.04 846.19,-103 852.54,-100.87 859.18,-98.15 865.41,-95.36"/>
<polygon fill="#63b8ff" stroke="#63b8ff" points="866.48,-98.72 874.05,-91.31 863.51,-92.38 866.48,-98.72"/>
</a>
</g>
</g>
<!-- Node3&#45;&gt;Node2 -->
<g id="edge3_Node000003_Node000002" class="edge">
<title>Node3&#45;&gt;Node2</title>
<g id="a_edge3_Node000003_Node000002"><a xlink:title=" ">
<path fill="none" stroke="#63b8ff" d="M2024.68,-365.52C2077.66,-352.44 2150.19,-323.61 2150.19,-263.88 2150.19,-263.88 2150.19,-263.88 2150.19,-205.12 2150.19,-167.1 2165.93,-125.03 2176.6,-100.89"/>
<polygon fill="#63b8ff" stroke="#63b8ff" points="2179.71,-102.51 2180.7,-91.96 2173.35,-99.58 2179.71,-102.51"/>
</a>
</g>
</g>
<!-- Node4 -->
<g id="Node000004" class="node">
<title>Node4</title>
<g id="a_Node000004"><a xlink:title=" ">
<polygon fill="#e0e0e0" stroke="#999999" points="1941.69,-330 1880.69,-330 1880.69,-309.25 1941.69,-309.25 1941.69,-330"/>
<text xml:space="preserve" text-anchor="middle" x="1911.19" y="-316.5" font-family="Helvetica,sans-Serif" font-size="10.00">expected</text>
</a>
</g>
</g>
<!-- Node3&#45;&gt;Node4 -->
<g id="edge4_Node000003_Node000004" class="edge">
<title>Node3&#45;&gt;Node4</title>
<g id="a_edge4_Node000003_Node000004"><a xlink:title=" ">
<path fill="none" stroke="#63b8ff" d="M1959.64,-365.59C1951.42,-357.96 1939.79,-347.17 1929.99,-338.07"/>
<polygon fill="#63b8ff" stroke="#63b8ff" points="1932.47,-335.59 1922.75,-331.36 1927.7,-340.73 1932.47,-335.59"/>
</a>
</g>
</g>
<!-- Node5 -->
<g id="Node000005" class="node">
<title>Node5</title>
<g id="a_Node000005"><a xlink:title=" ">
<polygon fill="#e0e0e0" stroke="#999999" points="1873.94,-20.75 1820.44,-20.75 1820.44,0 1873.94,0 1873.94,-20.75"/>
<text xml:space="preserve" text-anchor="middle" x="1847.19" y="-7.25" font-family="Helvetica,sans-Serif" font-size="10.00">random</text>
</a>
</g>
</g>
<!-- Node3&#45;&gt;Node5 -->
<g id="edge5_Node000003_Node000005" class="edge">
<title>Node3&#45;&gt;Node5</title>
<g id="a_edge5_Node000003_Node000005"><a xlink:title=" ">
<path fill="none" stroke="#63b8ff" d="M2031.69,-367.4C2116.82,-352.51 2260.19,-311.9 2260.19,-207.12 2260.19,-207.12 2260.19,-207.12 2260.19,-148.38 2260.19,-106.79 2271.89,-84.81 2241.19,-56.75 2215.2,-33 1979.3,-18.24 1885.45,-13.26"/>
<polygon fill="#63b8ff" stroke="#63b8ff" points="1885.89,-9.78 1875.73,-12.76 1885.53,-16.77 1885.89,-9.78"/>
</a>
</g>
</g>
<!-- Node6 -->
<g id="Node000006" class="node">
<title>Node6</title>
<g id="a_Node000006"><a xlink:href="_manifold_8hpp.html" target="_top" xlink:title="Data structures for manifolds.">
<polygon fill="white" stroke="#666666" points="1180.06,-330 1100.31,-330 1100.31,-309.25 1180.06,-309.25 1180.06,-330"/>
<text xml:space="preserve" text-anchor="middle" x="1140.19" y="-316.5" font-family="Helvetica,sans-Serif" font-size="10.00">Manifold.hpp</text>
</a>
</g>
</g>
<!-- Node3&#45;&gt;Node6 -->
<g id="edge6_Node000003_Node000006" class="edge">
<title>Node3&#45;&gt;Node6</title>
<g id="a_edge6_Node000003_Node000006"><a xlink:title=" ">
<path fill="none" stroke="#63b8ff" d="M1908.48,-371.3C1751.01,-360.92 1336.47,-333.57 1191.29,-324"/>
<polygon fill="#63b8ff" stroke="#63b8ff" points="1191.82,-320.52 1181.61,-323.36 1191.36,-327.51 1191.82,-320.52"/>
</a>
</g>
</g>
<!-- Node43 -->
<g id="Node000043" class="node">
<title>Node43</title>
<g id="a_Node000043"><a xlink:href="_move__tracker_8hpp.html" target="_top" xlink:title="Track ergodic moves.">
<polygon fill="white" stroke="#666666" points="1880.31,-216.5 1778.06,-216.5 1778.06,-195.75 1880.31,-195.75 1880.31,-216.5"/>
<text xml:space="preserve" text-anchor="middle" x="1829.19" y="-203" font-family="Helvetica,sans-Serif" font-size="10.00">Move_tracker.hpp</text>
</a>
</g>
</g>
<!-- Node3&#45;&gt;Node43 -->
<g id="edge54_Node000003_Node000043" class="edge">
<title>Node3&#45;&gt;Node43</title>
<g id="a_edge54_Node000003_Node000043"><a xlink:title=" ">
<path fill="none" stroke="#63b8ff" d="M1969.2,-365.66C1967.44,-352.08 1962.78,-327.07 1951.19,-309.25 1926.64,-271.51 1883.9,-240.43 1856.08,-222.83"/>
<polygon fill="#63b8ff" stroke="#63b8ff" points="1858.2,-220.03 1847.86,-217.76 1854.53,-225.99 1858.2,-220.03"/>
</a>
</g>
</g>
<!-- Node7 -->
<g id="Node000007" class="node">
<title>Node7</title>
<g id="a_Node000007"><a xlink:title=" ">
<polygon fill="#e0e0e0" stroke="#999999" points="1382.19,-159.75 1330.19,-159.75 1330.19,-139 1382.19,-139 1382.19,-159.75"/>
<text xml:space="preserve" text-anchor="middle" x="1356.19" y="-146.25" font-family="Helvetica,sans-Serif" font-size="10.00">cstddef</text>
</a>
</g>
</g>
<!-- Node6&#45;&gt;Node7 -->
<g id="edge7_Node000006_Node000007" class="edge">
<title>Node6&#45;&gt;Node7</title>
<g id="a_edge7_Node000006_Node000007"><a xlink:title=" ">
<path fill="none" stroke="#63b8ff" d="M1163,-308.88C1181.16,-300.62 1206.82,-287.82 1227.19,-273.25 1272.22,-241.04 1317.35,-193.79 1340.42,-168.29"/>
<polygon fill="#63b8ff" stroke="#63b8ff" points="1342.82,-170.86 1346.88,-161.07 1337.6,-166.19 1342.82,-170.86"/>
</a>
</g>
</g>
<!-- Node8 -->
<g id="Node000008" class="node">
<title>Node8</title>
<g id="a_Node000008"><a xlink:title=" ">
<polygon fill="#e0e0e0" stroke="#999999" points="161.44,-159.75 92.94,-159.75 92.94,-139 161.44,-139 161.44,-159.75"/>
<text xml:space="preserve" text-anchor="middle" x="127.19" y="-146.25" font-family="Helvetica,sans-Serif" font-size="10.00">type_traits</text>
</a>
</g>
</g>
<!-- Node6&#45;&gt;Node8 -->
<g id="edge8_Node000006_Node000008" class="edge">
<title>Node6&#45;&gt;Node8</title>
<g id="a_edge8_Node000006_Node000008"><a xlink:title=" ">
<path fill="none" stroke="#63b8ff" d="M1099.89,-313.93C1034.27,-306.18 900.28,-289.9 787.19,-273.25 634.75,-250.81 596.65,-244.8 445.19,-216.5 347.87,-198.32 234.46,-173.97 172.81,-160.47"/>
<polygon fill="#63b8ff" stroke="#63b8ff" points="173.91,-157.13 163.4,-158.4 172.41,-163.97 173.91,-157.13"/>
</a>
</g>
</g>
<!-- Node9 -->
<g id="Node000009" class="node">
<title>Node9</title>
<g id="a_Node000009"><a xlink:title=" ">
<polygon fill="#e0e0e0" stroke="#999999" points="1218.06,-273.25 1132.31,-273.25 1132.31,-252.5 1218.06,-252.5 1218.06,-273.25"/>
<text xml:space="preserve" text-anchor="middle" x="1175.19" y="-259.75" font-family="Helvetica,sans-Serif" font-size="10.00">unordered_set</text>
</a>
</g>
</g>
<!-- Node6&#45;&gt;Node9 -->
<g id="edge9_Node000006_Node000009" class="edge">
<title>Node6&#45;&gt;Node9</title>
<g id="a_edge9_Node000006_Node000009"><a xlink:title=" ">
<path fill="none" stroke="#63b8ff" d="M1146.45,-308.84C1151.02,-301.67 1157.38,-291.73 1162.96,-283.01"/>
<polygon fill="#63b8ff" stroke="#63b8ff" points="1165.73,-285.16 1168.17,-274.85 1159.83,-281.39 1165.73,-285.16"/>
</a>
</g>
</g>
<!-- Node10 -->
<g id="Node000010" class="node">
<title>Node10</title>
<g id="a_Node000010"><a xlink:href="_geometry_8hpp.html" target="_top" xlink:title="Geometric scalars of the Manifold used to calculate the Regge action.">
<polygon fill="white" stroke="#666666" points="880.31,-273.25 796.06,-273.25 796.06,-252.5 880.31,-252.5 880.31,-273.25"/>
<text xml:space="preserve" text-anchor="middle" x="838.19" y="-259.75" font-family="Helvetica,sans-Serif" font-size="10.00">Geometry.hpp</text>
</a>
</g>
</g>
<!-- Node6&#45;&gt;Node10 -->
<g id="edge10_Node000006_Node000010" class="edge">
<title>Node6&#45;&gt;Node10</title>
<g id="a_edge10_Node000006_Node000010"><a xlink:title=" ">
<path fill="none" stroke="#63b8ff" d="M1100.08,-311.35C1046.42,-301.63 951.12,-284.35 891.47,-273.53"/>
<polygon fill="#63b8ff" stroke="#63b8ff" points="892.36,-270.14 881.89,-271.8 891.11,-277.03 892.36,-270.14"/>
</a>
</g>
</g>
<!-- Node6&#45;&gt;Node19 -->
<g id="edge53_Node000006_Node000019" class="edge">
<title>Node6&#45;&gt;Node19</title>
<g id="a_edge53_Node000006_Node000019"><a xlink:title=" ">
<path fill="none" stroke="#63b8ff" d="M1136.31,-308.97C1132.7,-299.84 1127.28,-285.72 1123.19,-273.25 1103.85,-214.33 1129.67,-182.2 1085.19,-139 1038.17,-93.34 1003.99,-124.81 942.19,-103 935.87,-100.77 929.25,-98.01 923.01,-95.21"/>
<polygon fill="#63b8ff" stroke="#63b8ff" points="924.92,-92.23 914.38,-91.17 921.95,-98.58 924.92,-92.23"/>
</a>
</g>
</g>
<!-- Node10&#45;&gt;Node8 -->
<g id="edge11_Node000010_Node000008" class="edge">
<title>Node10&#45;&gt;Node8</title>
<g id="a_edge11_Node000010_Node000008"><a xlink:title=" ">
<path fill="none" stroke="#63b8ff" d="M795.81,-254.26C723.85,-241.43 573.12,-215.04 445.19,-195.75 325.48,-177.7 294.65,-179.36 175.19,-159.75 174.37,-159.62 173.55,-159.48 172.72,-159.34"/>
<polygon fill="#63b8ff" stroke="#63b8ff" points="173.7,-155.96 163.24,-157.65 172.47,-162.85 173.7,-155.96"/>
</a>
</g>
</g>
<!-- Node11 -->
<g id="Node000011" class="node">
<title>Node11</title>
<g id="a_Node000011"><a xlink:href="_foliated__triangulation_8hpp.html" target="_top" xlink:title="Create foliated spherical triangulations.">
<polygon fill="white" stroke="#666666" points="909.94,-216.5 766.44,-216.5 766.44,-195.75 909.94,-195.75 909.94,-216.5"/>
<text xml:space="preserve" text-anchor="middle" x="838.19" y="-203" font-family="Helvetica,sans-Serif" font-size="10.00">Foliated_triangulation.hpp</text>
</a>
</g>
</g>
<!-- Node10&#45;&gt;Node11 -->
<g id="edge12_Node000010_Node000011" class="edge">
<title>Node10&#45;&gt;Node11</title>
<g id="a_edge12_Node000010_Node000011"><a xlink:title=" ">
<path fill="none" stroke="#63b8ff" d="M838.19,-252.09C838.19,-245.47 838.19,-236.47 838.19,-228.27"/>
<polygon fill="#63b8ff" stroke="#63b8ff" points="841.69,-228.34 838.19,-218.34 834.69,-228.34 841.69,-228.34"/>
</a>
</g>
</g>
<!-- Node11&#45;&gt;Node8 -->
<g id="edge19_Node000011_Node000008" class="edge">
<title>Node11&#45;&gt;Node8</title>
<g id="a_edge19_Node000011_Node000008"><a xlink:title=" ">
<path fill="none" stroke="#63b8ff" d="M766.28,-203.14C644.27,-199.11 389.1,-187.85 175.19,-159.75 174.37,-159.64 173.54,-159.53 172.71,-159.41"/>
<polygon fill="#63b8ff" stroke="#63b8ff" points="173.63,-156.01 163.21,-157.89 172.53,-162.93 173.63,-156.01"/>
</a>
</g>
</g>
<!-- Node12 -->
<g id="Node000012" class="node">
<title>Node12</title>
<g id="a_Node000012"><a xlink:title=" ">
<polygon fill="#e0e0e0" stroke="#999999" points="796.56,-159.75 701.81,-159.75 701.81,-139 796.56,-139 796.56,-159.75"/>
<text xml:space="preserve" text-anchor="middle" x="749.19" y="-146.25" font-family="Helvetica,sans-Serif" font-size="10.00">CGAL/Random.h</text>
</a>
</g>
</g>
<!-- Node11&#45;&gt;Node12 -->
<g id="edge13_Node000011_Node000012" class="edge">
<title>Node11&#45;&gt;Node12</title>
<g id="a_edge13_Node000011_Node000012"><a xlink:title=" ">
<path fill="none" stroke="#63b8ff" d="M822.28,-195.34C808.99,-187.16 789.8,-175.36 774.42,-165.9"/>
<polygon fill="#63b8ff" stroke="#63b8ff" points="776.6,-163.13 766.25,-160.87 772.93,-169.09 776.6,-163.13"/>
</a>
</g>
</g>
<!-- Node13 -->
<g id="Node000013" class="node">
<title>Node13</title>
<g id="a_Node000013"><a xlink:title=" ">
<polygon fill="#e0e0e0" stroke="#999999" points="1108.81,-90.25 1045.56,-90.25 1045.56,-69.5 1108.81,-69.5 1108.81,-90.25"/>
<text xml:space="preserve" text-anchor="middle" x="1077.19" y="-76.75" font-family="Helvetica,sans-Serif" font-size="10.00">algorithm</text>
</a>
</g>
</g>
<!-- Node11&#45;&gt;Node13 -->
<g id="edge14_Node000011_Node000013" class="edge">
<title>Node11&#45;&gt;Node13</title>
<g id="a_edge14_Node000011_Node000013"><a xlink:title=" ">
<path fill="none" stroke="#63b8ff" d="M910.3,-201.84C975.06,-197.19 1063.25,-186.09 1085.19,-159.75 1098.7,-143.53 1093.15,-118.43 1086.53,-100.91"/>
<polygon fill="#63b8ff" stroke="#63b8ff" points="1089.9,-99.92 1082.8,-92.06 1083.45,-102.64 1089.9,-99.92"/>
</a>
</g>
</g>
<!-- Node14 -->
<g id="Node000014" class="node">
<title>Node14</title>
<g id="a_Node000014"><a xlink:title=" ">
<polygon fill="#e0e0e0" stroke="#999999" points="861.56,-159.75 814.81,-159.75 814.81,-139 861.56,-139 861.56,-159.75"/>
<text xml:space="preserve" text-anchor="middle" x="838.19" y="-146.25" font-family="Helvetica,sans-Serif" font-size="10.00">cmath</text>
</a>
</g>
</g>
<!-- Node11&#45;&gt;Node14 -->
<g id="edge15_Node000011_Node000014" class="edge">
<title>Node11&#45;&gt;Node14</title>
<g id="a_edge15_Node000011_Node000014"><a xlink:title=" ">
<path fill="none" stroke="#63b8ff" d="M838.19,-195.34C838.19,-188.72 838.19,-179.72 838.19,-171.52"/>
<polygon fill="#63b8ff" stroke="#63b8ff" points="841.69,-171.59 838.19,-161.59 834.69,-171.59 841.69,-171.59"/>
</a>
</g>
</g>
<!-- Node15 -->
<g id="Node000015" class="node">
<title>Node15</title>
<g id="a_Node000015"><a xlink:title=" ">
<polygon fill="#e0e0e0" stroke="#999999" points="944.56,-159.75 879.81,-159.75 879.81,-139 944.56,-139 944.56,-159.75"/>
<text xml:space="preserve" text-anchor="middle" x="912.19" y="-146.25" font-family="Helvetica,sans-Serif" font-size="10.00">functional</text>
</a>
</g>
</g>
<!-- Node11&#45;&gt;Node15 -->
<g id="edge16_Node000011_Node000015" class="edge">
<title>Node11&#45;&gt;Node15</title>
<g id="a_edge16_Node000011_Node000015"><a xlink:title=" ">
<path fill="none" stroke="#63b8ff" d="M851.42,-195.34C862.15,-187.4 877.51,-176.03 890.11,-166.71"/>
<polygon fill="#63b8ff" stroke="#63b8ff" points="891.9,-169.74 897.86,-160.98 887.74,-164.11 891.9,-169.74"/>
</a>
</g>
</g>
<!-- Node16 -->
<g id="Node000016" class="node">
<title>Node16</title>
<g id="a_Node000016"><a xlink:title=" ">
<polygon fill="#e0e0e0" stroke="#999999" points="1014.19,-159.75 962.19,-159.75 962.19,-139 1014.19,-139 1014.19,-159.75"/>
<text xml:space="preserve" text-anchor="middle" x="988.19" y="-146.25" font-family="Helvetica,sans-Serif" font-size="10.00">iterator</text>
</a>
</g>
</g>
<!-- Node11&#45;&gt;Node16 -->
<g id="edge17_Node000011_Node000016" class="edge">
<title>Node11&#45;&gt;Node16</title>
<g id="a_edge17_Node000011_Node000016"><a xlink:title=" ">
<path fill="none" stroke="#63b8ff" d="M865.01,-195.34C889.08,-186.55 924.63,-173.57 951.36,-163.82"/>
<polygon fill="#63b8ff" stroke="#63b8ff" points="952.24,-167.22 960.43,-160.51 949.84,-160.65 952.24,-167.22"/>
</a>
</g>
</g>
<!-- Node17 -->
<g id="Node000017" class="node">
<title>Node17</title>
<g id="a_Node000017"><a xlink:title=" ">
<polygon fill="#e0e0e0" stroke="#999999" points="373.06,-20.75 329.31,-20.75 329.31,0 373.06,0 373.06,-20.75"/>
<text xml:space="preserve" text-anchor="middle" x="351.19" y="-7.25" font-family="Helvetica,sans-Serif" font-size="10.00">limits</text>
</a>
</g>
</g>
<!-- Node11&#45;&gt;Node17 -->
<g id="edge18_Node000011_Node000017" class="edge">
<title>Node11&#45;&gt;Node17</title>
<g id="a_edge18_Node000011_Node000017"><a xlink:title=" ">
<path fill="none" stroke="#63b8ff" d="M766.18,-198.83C569.35,-181.3 35.2,-131.3 10.19,-103 -3.43,-87.6 -3.35,-72.21 10.19,-56.75 30.28,-33.81 235.35,-18.59 317.46,-13.38"/>
<polygon fill="#63b8ff" stroke="#63b8ff" points="317.6,-16.87 327.36,-12.76 317.16,-9.89 317.6,-16.87"/>
</a>
</g>
</g>
<!-- Node18 -->
<g id="Node000018" class="node">
<title>Node18</title>
<g id="a_Node000018"><a xlink:title=" ">
<polygon fill="#e0e0e0" stroke="#999999" points="1076.44,-159.75 1031.94,-159.75 1031.94,-139 1076.44,-139 1076.44,-159.75"/>
<text xml:space="preserve" text-anchor="middle" x="1054.19" y="-146.25" font-family="Helvetica,sans-Serif" font-size="10.00">utility</text>
</a>
</g>
</g>
<!-- Node11&#45;&gt;Node18 -->
<g id="edge20_Node000011_Node000018" class="edge">
<title>Node11&#45;&gt;Node18</title>
<g id="a_edge20_Node000011_Node000018"><a xlink:title=" ">
<path fill="none" stroke="#63b8ff" d="M880.97,-195.31C916.15,-187.09 967.55,-174.74 1020.57,-160.37"/>
<polygon fill="#63b8ff" stroke="#63b8ff" points="1021.36,-163.78 1030.08,-157.77 1019.51,-157.03 1021.36,-163.78"/>
</a>
</g>
</g>
<!-- Node11&#45;&gt;Node19 -->
<g id="edge21_Node000011_Node000019" class="edge">
<title>Node11&#45;&gt;Node19</title>
<g id="a_edge21_Node000011_Node000019"><a xlink:title=" ">
<path fill="none" stroke="#63b8ff" d="M766,-196.35C718.11,-187.49 668.28,-170.45 693.19,-139 736.56,-84.24 780.13,-125.74 846.19,-103 852.52,-100.82 859.15,-98.08 865.39,-95.28"/>
<polygon fill="#63b8ff" stroke="#63b8ff" points="866.45,-98.65 874.03,-91.24 863.48,-92.31 866.45,-98.65"/>
</a>
</g>
</g>
<!-- Node23 -->
<g id="Node000023" class="node">
<title>Node23</title>
<g id="a_Node000023"><a xlink:href="_triangulation__traits_8hpp.html" target="_top" xlink:title="Traits class for particular uses of CGAL.">
<polygon fill="white" stroke="#666666" points="608.56,-159.75 477.81,-159.75 477.81,-139 608.56,-139 608.56,-159.75"/>
<text xml:space="preserve" text-anchor="middle" x="543.19" y="-146.25" font-family="Helvetica,sans-Serif" font-size="10.00">Triangulation_traits.hpp</text>
</a>
</g>
</g>
<!-- Node11&#45;&gt;Node23 -->
<g id="edge27_Node000011_Node000023" class="edge">
<title>Node11&#45;&gt;Node23</title>
<g id="a_edge27_Node000011_Node000023"><a xlink:title=" ">
<path fill="none" stroke="#63b8ff" d="M785.11,-195.27C735.24,-186.02 660.53,-172.15 607.35,-162.28"/>
<polygon fill="#63b8ff" stroke="#63b8ff" points="608.3,-158.9 597.83,-160.52 607.02,-165.78 608.3,-158.9"/>
</a>
</g>
</g>
<!-- Node31 -->
<g id="Node000031" class="node">
<title>Node31</title>
<g id="a_Node000031"><a xlink:href="_utilities_8hpp.html" target="_top" xlink:title="Utility functions.">
<polygon fill="white" stroke="#666666" points="1650.81,-159.75 1575.56,-159.75 1575.56,-139 1650.81,-139 1650.81,-159.75"/>
<text xml:space="preserve" text-anchor="middle" x="1613.19" y="-146.25" font-family="Helvetica,sans-Serif" font-size="10.00">Utilities.hpp</text>
</a>
</g>
</g>
<!-- Node11&#45;&gt;Node31 -->
<g id="edge36_Node000011_Node000031" class="edge">
<title>Node11&#45;&gt;Node31</title>
<g id="a_edge36_Node000011_Node000031"><a xlink:title=" ">
<path fill="none" stroke="#63b8ff" d="M910.4,-200.02C1066.34,-189.01 1431.17,-163.23 1563.84,-153.86"/>
<polygon fill="#63b8ff" stroke="#63b8ff" points="1563.97,-157.36 1573.7,-153.16 1563.47,-150.38 1563.97,-157.36"/>
</a>
</g>
</g>
<!-- Node19&#45;&gt;Node5 -->
<g id="edge25_Node000019_Node000005" class="edge">
<title>Node19&#45;&gt;Node5</title>
<g id="a_edge25_Node000019_Node000005"><a xlink:title=" ">
<path fill="none" stroke="#63b8ff" d="M911.38,-69C920.28,-64.4 931.5,-59.38 942.19,-56.75 1110.45,-15.39 1659.23,-11.61 1809.08,-11.36"/>
<polygon fill="#63b8ff" stroke="#63b8ff" points="1808.86,-14.86 1818.85,-11.35 1808.85,-7.86 1808.86,-14.86"/>
</a>
</g>
</g>
<!-- Node19&#45;&gt;Node17 -->
<g id="edge24_Node000019_Node000017" class="edge">
<title>Node19&#45;&gt;Node17</title>
<g id="a_edge24_Node000019_Node000017"><a xlink:title=" ">
<path fill="none" stroke="#63b8ff" d="M876.95,-69.19C868.04,-64.64 856.82,-59.6 846.19,-56.75 758.65,-33.31 481.59,-17.79 384.89,-12.97"/>
<polygon fill="#63b8ff" stroke="#63b8ff" points="385.17,-9.48 375.01,-12.49 384.83,-16.47 385.17,-9.48"/>
</a>
</g>
</g>
<!-- Node20 -->
<g id="Node000020" class="node">
<title>Node20</title>
<g id="a_Node000020"><a xlink:title=" ">
<polygon fill="#e0e0e0" stroke="#999999" points="923.94,-20.75 864.44,-20.75 864.44,0 923.94,0 923.94,-20.75"/>
<text xml:space="preserve" text-anchor="middle" x="894.19" y="-7.25" font-family="Helvetica,sans-Serif" font-size="10.00">concepts</text>
</a>
</g>
</g>
<!-- Node19&#45;&gt;Node20 -->
<g id="edge22_Node000019_Node000020" class="edge">
<title>Node19&#45;&gt;Node20</title>
<g id="a_edge22_Node000019_Node000020"><a xlink:title=" ">
<path fill="none" stroke="#63b8ff" d="M894.19,-69.2C894.19,-59.58 894.19,-44.51 894.19,-32.16"/>
<polygon fill="#63b8ff" stroke="#63b8ff" points="897.69,-32.54 894.19,-22.54 890.69,-32.54 897.69,-32.54"/>
</a>
</g>
</g>
<!-- Node21 -->
<g id="Node000021" class="node">
<title>Node21</title>
<g id="a_Node000021"><a xlink:title=" ">
<polygon fill="#e0e0e0" stroke="#999999" points="990.69,-20.75 941.69,-20.75 941.69,0 990.69,0 990.69,-20.75"/>
<text xml:space="preserve" text-anchor="middle" x="966.19" y="-7.25" font-family="Helvetica,sans-Serif" font-size="10.00">cstdint</text>
</a>
</g>
</g>
<!-- Node19&#45;&gt;Node21 -->
<g id="edge23_Node000019_Node000021" class="edge">
<title>Node19&#45;&gt;Node21</title>
<g id="a_edge23_Node000019_Node000021"><a xlink:title=" ">
<path fill="none" stroke="#63b8ff" d="M904.5,-69.2C915.73,-58.68 933.91,-41.63 947.64,-28.77"/>
<polygon fill="#63b8ff" stroke="#63b8ff" points="949.89,-31.46 954.79,-22.06 945.1,-26.35 949.89,-31.46"/>
</a>
</g>
</g>
<!-- Node22 -->
<g id="Node000022" class="node">
<title>Node22</title>
<g id="a_Node000022"><a xlink:title=" ">
<polygon fill="#e0e0e0" stroke="#999999" points="846.69,-20.75 749.69,-20.75 749.69,0 846.69,0 846.69,-20.75"/>
<text xml:space="preserve" text-anchor="middle" x="798.19" y="-7.25" font-family="Helvetica,sans-Serif" font-size="10.00">pcg_random.hpp</text>
</a>
</g>
</g>
<!-- Node19&#45;&gt;Node22 -->
<g id="edge26_Node000019_Node000022" class="edge">
<title>Node19&#45;&gt;Node22</title>
<g id="a_edge26_Node000019_Node000022"><a xlink:title=" ">
<path fill="none" stroke="#63b8ff" d="M880.43,-69.2C865.05,-58.39 839.88,-40.69 821.43,-27.72"/>
<polygon fill="#63b8ff" stroke="#63b8ff" points="823.66,-25.01 813.47,-22.12 819.63,-30.73 823.66,-25.01"/>
</a>
</g>
</g>
<!-- Node24 -->
<g id="Node000024" class="node">
<title>Node24</title>
<g id="a_Node000024"><a xlink:title=" ">
<polygon fill="#e0e0e0" stroke="#999999" points="524.94,-90.25 345.44,-90.25 345.44,-69.5 524.94,-69.5 524.94,-90.25"/>
<text xml:space="preserve" text-anchor="middle" x="435.19" y="-76.75" font-family="Helvetica,sans-Serif" font-size="10.00">CGAL/Delaunay_triangulation_3.h</text>
</a>
</g>
</g>
<!-- Node23&#45;&gt;Node24 -->
<g id="edge28_Node000023_Node000024" class="edge">
<title>Node23&#45;&gt;Node24</title>
<g id="a_edge28_Node000023_Node000024"><a xlink:title=" ">
<path fill="none" stroke="#63b8ff" d="M527.71,-138.7C510.17,-127.74 481.31,-109.7 460.48,-96.68"/>
<polygon fill="#63b8ff" stroke="#63b8ff" points="462.6,-93.88 452.27,-91.55 458.89,-99.82 462.6,-93.88"/>
</a>
</g>
</g>
<!-- Node25 -->
<g id="Node000025" class="node">
<title>Node25</title>
<g id="a_Node000025"><a xlink:title=" ">
<polygon fill="#e0e0e0" stroke="#999999" points="671.44,-103 542.94,-103 542.94,-56.75 671.44,-56.75 671.44,-103"/>
<text xml:space="preserve" text-anchor="start" x="550.94" y="-89.5" font-family="Helvetica,sans-Serif" font-size="10.00">CGAL/Exact_predicates</text>
<text xml:space="preserve" text-anchor="start" x="550.94" y="-76.75" font-family="Helvetica,sans-Serif" font-size="10.00">_inexact_constructions</text>
<text xml:space="preserve" text-anchor="middle" x="607.19" y="-64" font-family="Helvetica,sans-Serif" font-size="10.00">_kernel.h</text>
</a>
</g>
</g>
<!-- Node23&#45;&gt;Node25 -->
<g id="edge29_Node000023_Node000025" class="edge">
<title>Node23&#45;&gt;Node25</title>
<g id="a_edge29_Node000023_Node000025"><a xlink:title=" ">
<path fill="none" stroke="#63b8ff" d="M552.36,-138.7C559.16,-131.53 568.84,-121.32 578.18,-111.47"/>
<polygon fill="#63b8ff" stroke="#63b8ff" points="580.49,-114.12 584.83,-104.46 575.41,-109.31 580.49,-114.12"/>
</a>
</g>
</g>
<!-- Node26 -->
<g id="Node000026" class="node">
<title>Node26</title>
<g id="a_Node000026"><a xlink:title=" ">
<polygon fill="#e0e0e0" stroke="#999999" points="837.19,-90.25 689.19,-90.25 689.19,-69.5 837.19,-69.5 837.19,-90.25"/>
<text xml:space="preserve" text-anchor="middle" x="763.19" y="-76.75" font-family="Helvetica,sans-Serif" font-size="10.00">CGAL/point_generators_3.h</text>
</a>
</g>
</g>
<!-- Node23&#45;&gt;Node26 -->
<g id="edge30_Node000023_Node000026" class="edge">
<title>Node23&#45;&gt;Node26</title>
<g id="a_edge30_Node000023_Node000026"><a xlink:title=" ">
<path fill="none" stroke="#63b8ff" d="M575.18,-138.56C613.47,-126.81 677.74,-107.09 720.3,-94.03"/>
<polygon fill="#63b8ff" stroke="#63b8ff" points="721.18,-97.43 729.71,-91.15 719.13,-90.73 721.18,-97.43"/>
</a>
</g>
</g>
<!-- Node27 -->
<g id="Node000027" class="node">
<title>Node27</title>
<g id="a_Node000027"><a xlink:title=" ">
<polygon fill="#e0e0e0" stroke="#999999" points="156.94,-96.62 19.44,-96.62 19.44,-63.12 156.94,-63.12 156.94,-96.62"/>
<text xml:space="preserve" text-anchor="start" x="27.44" y="-83.12" font-family="Helvetica,sans-Serif" font-size="10.00">CGAL/Triangulation</text>
<text xml:space="preserve" text-anchor="middle" x="88.19" y="-70.38" font-family="Helvetica,sans-Serif" font-size="10.00">_cell_base_with_info_3.h</text>
</a>
</g>
</g>
<!-- Node23&#45;&gt;Node27 -->
<g id="edge31_Node000023_Node000027" class="edge">
<title>Node23&#45;&gt;Node27</title>
<g id="a_edge31_Node000023_Node000027"><a xlink:title=" ">
<path fill="none" stroke="#63b8ff" d="M477.65,-143.62C402.06,-137.41 274.29,-124.7 166.19,-103 161.61,-102.08 156.9,-101.03 152.19,-99.89"/>
<polygon fill="#63b8ff" stroke="#63b8ff" points="153.22,-96.54 142.67,-97.48 151.51,-103.33 153.22,-96.54"/>
</a>
</g>
</g>
<!-- Node28 -->
<g id="Node000028" class="node">
<title>Node28</title>
<g id="a_Node000028"><a xlink:title=" ">
<polygon fill="#e0e0e0" stroke="#999999" points="327.06,-96.62 175.31,-96.62 175.31,-63.12 327.06,-63.12 327.06,-96.62"/>
<text xml:space="preserve" text-anchor="start" x="183.31" y="-83.12" font-family="Helvetica,sans-Serif" font-size="10.00">CGAL/Triangulation</text>
<text xml:space="preserve" text-anchor="middle" x="251.19" y="-70.38" font-family="Helvetica,sans-Serif" font-size="10.00">_vertex_base_with_info_3.h</text>
</a>
</g>
</g>
<!-- Node23&#45;&gt;Node28 -->
<g id="edge32_Node000023_Node000028" class="edge">
<title>Node23&#45;&gt;Node28</title>
<g id="a_edge32_Node000023_Node000028"><a xlink:title=" ">
<path fill="none" stroke="#63b8ff" d="M495.8,-138.53C453.76,-129.67 390.75,-116.08 336.19,-103 331.97,-101.99 327.64,-100.93 323.28,-99.85"/>
<polygon fill="#63b8ff" stroke="#63b8ff" points="324.42,-96.52 313.87,-97.48 322.71,-103.31 324.42,-96.52"/>
</a>
</g>
</g>
<!-- Node29 -->
<g id="Node000029" class="node">
<title>Node29</title>
<g id="a_Node000029"><a xlink:href="_settings_8hpp.html" target="_top" xlink:title="Global integer and precision settings.">
<polygon fill="white" stroke="#666666" points="1027.56,-90.25 950.81,-90.25 950.81,-69.5 1027.56,-69.5 1027.56,-90.25"/>
<text xml:space="preserve" text-anchor="middle" x="989.19" y="-76.75" font-family="Helvetica,sans-Serif" font-size="10.00">Settings.hpp</text>
</a>
</g>
</g>
<!-- Node23&#45;&gt;Node29 -->
<g id="edge33_Node000023_Node000029" class="edge">
<title>Node23&#45;&gt;Node29</title>
<g id="a_edge33_Node000023_Node000029"><a xlink:title=" ">
<path fill="none" stroke="#63b8ff" d="M609.03,-143.5C705.72,-135.91 881.24,-120.3 942.19,-103 948.75,-101.14 955.53,-98.45 961.83,-95.58"/>
<polygon fill="#63b8ff" stroke="#63b8ff" points="963.04,-98.88 970.5,-91.36 959.98,-92.59 963.04,-98.88"/>
</a>
</g>
</g>
<!-- Node29&#45;&gt;Node21 -->
<g id="edge35_Node000029_Node000021" class="edge">
<title>Node29&#45;&gt;Node21</title>
<g id="a_edge35_Node000029_Node000021"><a xlink:title=" ">
<path fill="none" stroke="#63b8ff" d="M985.89,-69.2C982.58,-59.48 977.37,-44.19 973.14,-31.78"/>
<polygon fill="#63b8ff" stroke="#63b8ff" points="976.5,-30.8 969.97,-22.46 969.88,-33.06 976.5,-30.8"/>
</a>
</g>
</g>
<!-- Node30 -->
<g id="Node000030" class="node">
<title>Node30</title>
<g id="a_Node000030"><a xlink:title=" ">
<polygon fill="#e0e0e0" stroke="#999999" points="1147.69,-20.75 1008.69,-20.75 1008.69,0 1147.69,0 1147.69,-20.75"/>
<text xml:space="preserve" text-anchor="middle" x="1078.19" y="-7.25" font-family="Helvetica,sans-Serif" font-size="10.00">CGAL/GMP/Gmpzf_type.h</text>
</a>
</g>
</g>
<!-- Node29&#45;&gt;Node30 -->
<g id="edge34_Node000029_Node000030" class="edge">
<title>Node29&#45;&gt;Node30</title>
<g id="a_edge34_Node000029_Node000030"><a xlink:title=" ">
<path fill="none" stroke="#63b8ff" d="M1001.94,-69.2C1016.13,-58.44 1039.32,-40.85 1056.4,-27.9"/>
<polygon fill="#63b8ff" stroke="#63b8ff" points="1058.11,-30.99 1063.96,-22.16 1053.88,-25.42 1058.11,-30.99"/>
</a>
</g>
</g>
<!-- Node31&#45;&gt;Node2 -->
<g id="edge50_Node000031_Node000002" class="edge">
<title>Node31&#45;&gt;Node2</title>
<g id="a_edge50_Node000031_Node000002"><a xlink:title=" ">
<path fill="none" stroke="#63b8ff" d="M1651.07,-146.59C1732.46,-142.37 1929.88,-130.01 2093.19,-103 2108.32,-100.5 2124.65,-96.92 2139.34,-93.36"/>
<polygon fill="#63b8ff" stroke="#63b8ff" points="2139.88,-96.84 2148.74,-91.03 2138.19,-90.04 2139.88,-96.84"/>
</a>
</g>
</g>
<!-- Node31&#45;&gt;Node5 -->
<g id="edge42_Node000031_Node000005" class="edge">
<title>Node31&#45;&gt;Node5</title>
<g id="a_edge42_Node000031_Node000005"><a xlink:title=" ">
<path fill="none" stroke="#63b8ff" d="M1607.92,-138.78C1598.71,-120.53 1582.41,-80.52 1602.19,-56.75 1628.05,-25.66 1746.8,-15.78 1808.98,-12.71"/>
<polygon fill="#63b8ff" stroke="#63b8ff" points="1808.91,-16.22 1818.74,-12.27 1808.59,-9.23 1808.91,-16.22"/>
</a>
</g>
</g>
<!-- Node31&#45;&gt;Node13 -->
<g id="edge37_Node000031_Node000013" class="edge">
<title>Node31&#45;&gt;Node13</title>
<g id="a_edge37_Node000031_Node000013"><a xlink:title=" ">
<path fill="none" stroke="#63b8ff" d="M1575.5,-144.72C1557.28,-142.97 1535.1,-140.85 1515.19,-139 1338.34,-122.54 1286.99,-155.1 1117.19,-103 1111.78,-101.34 1106.29,-98.89 1101.17,-96.22"/>
<polygon fill="#63b8ff" stroke="#63b8ff" points="1103.09,-93.28 1092.67,-91.36 1099.61,-99.36 1103.09,-93.28"/>
</a>
</g>
</g>
<!-- Node31&#45;&gt;Node19 -->
<g id="edge51_Node000031_Node000019" class="edge">
<title>Node31&#45;&gt;Node19</title>
<g id="a_edge51_Node000031_Node000019"><a xlink:title=" ">
<path fill="none" stroke="#63b8ff" d="M1575.49,-146.63C1443.02,-140.37 1003.57,-118.65 942.19,-103 935.35,-101.26 928.29,-98.57 921.76,-95.65"/>
<polygon fill="#63b8ff" stroke="#63b8ff" points="923.29,-92.51 912.77,-91.33 920.26,-98.81 923.29,-92.51"/>
</a>
</g>
</g>
<!-- Node31&#45;&gt;Node29 -->
<g id="edge52_Node000031_Node000029" class="edge">
<title>Node31&#45;&gt;Node29</title>
<g id="a_edge52_Node000031_Node000029"><a xlink:title=" ">
<path fill="none" stroke="#63b8ff" d="M1575.51,-144.59C1557.3,-142.81 1535.11,-140.7 1515.19,-139 1302.47,-120.83 1242.64,-157.37 1036.19,-103 1029.48,-101.23 1022.57,-98.53 1016.17,-95.62"/>
<polygon fill="#63b8ff" stroke="#63b8ff" points="1017.91,-92.57 1007.39,-91.31 1014.82,-98.86 1017.91,-92.57"/>
</a>
</g>
</g>
<!-- Node32 -->
<g id="Node000032" class="node">
<title>Node32</title>
<g id="a_Node000032"><a xlink:title=" ">
<polygon fill="#e0e0e0" stroke="#999999" points="1677.69,-90.25 1610.69,-90.25 1610.69,-69.5 1677.69,-69.5 1677.69,-90.25"/>
<text xml:space="preserve" text-anchor="middle" x="1644.19" y="-76.75" font-family="Helvetica,sans-Serif" font-size="10.00">filesystem</text>
</a>
</g>
</g>
<!-- Node31&#45;&gt;Node32 -->
<g id="edge38_Node000031_Node000032" class="edge">
<title>Node31&#45;&gt;Node32</title>
<g id="a_edge38_Node000031_Node000032"><a xlink:title=" ">
<path fill="none" stroke="#63b8ff" d="M1617.63,-138.7C1622.14,-128.88 1629.26,-113.38 1634.99,-100.89"/>
<polygon fill="#63b8ff" stroke="#63b8ff" points="1638.13,-102.45 1639.12,-91.9 1631.77,-99.53 1638.13,-102.45"/>
</a>
</g>
</g>
<!-- Node33 -->
<g id="Node000033" class="node">
<title>Node33</title>
<g id="a_Node000033"><a xlink:title=" ">
<polygon fill="#e0e0e0" stroke="#999999" points="1750.31,-90.25 1696.06,-90.25 1696.06,-69.5 1750.31,-69.5 1750.31,-90.25"/>
<text xml:space="preserve" text-anchor="middle" x="1723.19" y="-76.75" font-family="Helvetica,sans-Serif" font-size="10.00">fstream</text>
</a>
</g>
</g>
<!-- Node31&#45;&gt;Node33 -->
<g id="edge39_Node000031_Node000033" class="edge">
<title>Node31&#45;&gt;Node33</title>
<g id="a_edge39_Node000031_Node000033"><a xlink:title=" ">
<path fill="none" stroke="#63b8ff" d="M1629.07,-138.64C1644.06,-129.46 1667.15,-115.3 1687.19,-103 1690.61,-100.9 1694.2,-98.69 1697.75,-96.51"/>
<polygon fill="#63b8ff" stroke="#63b8ff" points="1699.44,-99.58 1706.13,-91.36 1695.78,-93.62 1699.44,-99.58"/>
</a>
</g>
</g>
<!-- Node34 -->
<g id="Node000034" class="node">
<title>Node34</title>
<g id="a_Node000034"><a xlink:title=" ">
<polygon fill="#e0e0e0" stroke="#999999" points="1815.94,-90.25 1768.44,-90.25 1768.44,-69.5 1815.94,-69.5 1815.94,-90.25"/>
<text xml:space="preserve" text-anchor="middle" x="1792.19" y="-76.75" font-family="Helvetica,sans-Serif" font-size="10.00">gsl/gsl</text>
</a>
</g>
</g>
<!-- Node31&#45;&gt;Node34 -->
<g id="edge40_Node000031_Node000034" class="edge">
<title>Node31&#45;&gt;Node34</title>
<g id="a_edge40_Node000031_Node000034"><a xlink:title=" ">
<path fill="none" stroke="#63b8ff" d="M1651.22,-139.78C1681.36,-132.21 1724.11,-119.77 1759.19,-103 1762.85,-101.25 1766.56,-99.14 1770.12,-96.92"/>
<polygon fill="#63b8ff" stroke="#63b8ff" points="1771.92,-99.93 1778.28,-91.46 1768.03,-94.11 1771.92,-99.93"/>
</a>
</g>
</g>
<!-- Node35 -->
<g id="Node000035" class="node">
<title>Node35</title>
<g id="a_Node000035"><a xlink:title=" ">
<polygon fill="#e0e0e0" stroke="#999999" points="1881.94,-90.25 1834.44,-90.25 1834.44,-69.5 1881.94,-69.5 1881.94,-90.25"/>
<text xml:space="preserve" text-anchor="middle" x="1858.19" y="-76.75" font-family="Helvetica,sans-Serif" font-size="10.00">mutex</text>
</a>
</g>
</g>
<!-- Node31&#45;&gt;Node35 -->
<g id="edge41_Node000031_Node000035" class="edge">
<title>Node31&#45;&gt;Node35</title>
<g id="a_edge41_Node000031_Node000035"><a xlink:title=" ">
<path fill="none" stroke="#63b8ff" d="M1651.26,-144.63C1694.73,-139.36 1767.31,-127.52 1825.19,-103 1828.99,-101.39 1832.81,-99.33 1836.44,-97.11"/>
<polygon fill="#63b8ff" stroke="#63b8ff" points="1838.38,-100.02 1844.73,-91.53 1834.48,-94.21 1838.38,-100.02"/>
</a>
</g>
</g>
<!-- Node36 -->
<g id="Node000036" class="node">
<title>Node36</title>
<g id="a_Node000036"><a xlink:title=" ">
<polygon fill="#e0e0e0" stroke="#999999" points="2083.81,-90.25 2044.56,-90.25 2044.56,-69.5 2083.81,-69.5 2083.81,-90.25"/>
<text xml:space="preserve" text-anchor="middle" x="2064.19" y="-76.75" font-family="Helvetica,sans-Serif" font-size="10.00">span</text>
</a>
</g>
</g>
<!-- Node31&#45;&gt;Node36 -->
<g id="edge43_Node000031_Node000036" class="edge">
<title>Node31&#45;&gt;Node36</title>
<g id="a_edge43_Node000031_Node000036"><a xlink:title=" ">
<path fill="none" stroke="#63b8ff" d="M1651.16,-145.47C1748.16,-137.87 1999.94,-117.06 2035.19,-103 2038.72,-101.59 2042.19,-99.63 2045.43,-97.45"/>
<polygon fill="#63b8ff" stroke="#63b8ff" points="2047.33,-100.4 2053.11,-91.52 2043.06,-94.86 2047.33,-100.4"/>
</a>
</g>
</g>
<!-- Node37 -->
<g id="Node000037" class="node">
<title>Node37</title>
<g id="a_Node000037"><a xlink:title=" ">
<polygon fill="#e0e0e0" stroke="#999999" points="1964.19,-90.25 1900.19,-90.25 1900.19,-69.5 1964.19,-69.5 1964.19,-90.25"/>
<text xml:space="preserve" text-anchor="middle" x="1932.19" y="-76.75" font-family="Helvetica,sans-Serif" font-size="10.00">stdexcept</text>
</a>
</g>
</g>
<!-- Node31&#45;&gt;Node37 -->
<g id="edge44_Node000031_Node000037" class="edge">
<title>Node31&#45;&gt;Node37</title>
<g id="a_edge44_Node000031_Node000037"><a xlink:title=" ">
<path fill="none" stroke="#63b8ff" d="M1651.02,-146.19C1705.43,-142.16 1808.33,-131.23 1891.19,-103 1896.55,-101.17 1902.05,-98.69 1907.21,-96.04"/>
<polygon fill="#63b8ff" stroke="#63b8ff" points="1908.78,-99.18 1915.84,-91.28 1905.4,-93.05 1908.78,-99.18"/>
</a>
</g>
</g>
<!-- Node38 -->
<g id="Node000038" class="node">
<title>Node38</title>
<g id="a_Node000038"><a xlink:title=" ">
<polygon fill="#e0e0e0" stroke="#999999" points="2026.06,-90.25 1982.31,-90.25 1982.31,-69.5 2026.06,-69.5 2026.06,-90.25"/>
<text xml:space="preserve" text-anchor="middle" x="2004.19" y="-76.75" font-family="Helvetica,sans-Serif" font-size="10.00">string</text>
</a>
</g>
</g>
<!-- Node31&#45;&gt;Node38 -->
<g id="edge45_Node000031_Node000038" class="edge">
<title>Node31&#45;&gt;Node38</title>
<g id="a_edge45_Node000031_Node000038"><a xlink:title=" ">
<path fill="none" stroke="#63b8ff" d="M1651.31,-145.94C1731.51,-140.43 1915.1,-125.7 1973.19,-103 1977,-101.51 1980.78,-99.45 1984.32,-97.18"/>
<polygon fill="#63b8ff" stroke="#63b8ff" points="1986.23,-100.12 1992.27,-91.42 1982.12,-94.45 1986.23,-100.12"/>
</a>
</g>
</g>
<!-- Node39 -->
<g id="Node000039" class="node">
<title>Node39</title>
<g id="a_Node000039"><a xlink:title=" ">
<polygon fill="#e0e0e0" stroke="#999999" points="1197.94,-90.25 1126.44,-90.25 1126.44,-69.5 1197.94,-69.5 1197.94,-90.25"/>
<text xml:space="preserve" text-anchor="middle" x="1162.19" y="-76.75" font-family="Helvetica,sans-Serif" font-size="10.00">date/date.h</text>
</a>
</g>
</g>
<!-- Node31&#45;&gt;Node39 -->
<g id="edge46_Node000031_Node000039" class="edge">
<title>Node31&#45;&gt;Node39</title>
<g id="a_edge46_Node000031_Node000039"><a xlink:title=" ">
<path fill="none" stroke="#63b8ff" d="M1575.14,-144.48C1477.54,-134.44 1224.74,-108.13 1207.19,-103 1201.03,-101.2 1194.68,-98.6 1188.77,-95.81"/>
<polygon fill="#63b8ff" stroke="#63b8ff" points="1190.57,-92.81 1180.07,-91.41 1187.41,-99.05 1190.57,-92.81"/>
</a>
</g>
</g>
<!-- Node40 -->
<g id="Node000040" class="node">
<title>Node40</title>
<g id="a_Node000040"><a xlink:title=" ">
<polygon fill="#e0e0e0" stroke="#999999" points="1302.06,-90.25 1216.31,-90.25 1216.31,-69.5 1302.06,-69.5 1302.06,-90.25"/>
<text xml:space="preserve" text-anchor="middle" x="1259.19" y="-76.75" font-family="Helvetica,sans-Serif" font-size="10.00">fmt/ostream.h</text>
</a>
</g>
</g>
<!-- Node31&#45;&gt;Node40 -->
<g id="edge47_Node000031_Node000040" class="edge">
<title>Node31&#45;&gt;Node40</title>
<g id="a_edge47_Node000031_Node000040"><a xlink:title=" ">
<path fill="none" stroke="#63b8ff" d="M1575.18,-143.88C1505.55,-135.45 1360.16,-116.86 1311.19,-103 1304,-100.97 1296.49,-98.19 1289.48,-95.28"/>
<polygon fill="#63b8ff" stroke="#63b8ff" points="1290.96,-92.11 1280.4,-91.31 1288.16,-98.52 1290.96,-92.11"/>
</a>
</g>
</g>
<!-- Node41 -->
<g id="Node000041" class="node">
<title>Node41</title>
<g id="a_Node000041"><a xlink:title=" ">
<polygon fill="#e0e0e0" stroke="#999999" points="1425.81,-96.62 1320.56,-96.62 1320.56,-63.12 1425.81,-63.12 1425.81,-96.62"/>
<text xml:space="preserve" text-anchor="start" x="1328.56" y="-83.12" font-family="Helvetica,sans-Serif" font-size="10.00">spdlog/sinks/basic</text>
<text xml:space="preserve" text-anchor="middle" x="1373.19" y="-70.38" font-family="Helvetica,sans-Serif" font-size="10.00">_file_sink.h</text>
</a>
</g>
</g>
<!-- Node31&#45;&gt;Node41 -->
<g id="edge48_Node000031_Node000041" class="edge">
<title>Node31&#45;&gt;Node41</title>
<g id="a_edge48_Node000031_Node000041"><a xlink:title=" ">
<path fill="none" stroke="#63b8ff" d="M1575.4,-139.82C1539.18,-131.37 1483.08,-117.61 1435.19,-103 1432.79,-102.27 1430.35,-101.5 1427.89,-100.71"/>
<polygon fill="#63b8ff" stroke="#63b8ff" points="1429.08,-97.41 1418.49,-97.58 1426.87,-104.06 1429.08,-97.41"/>
</a>
</g>
</g>
<!-- Node42 -->
<g id="Node000042" class="node">
<title>Node42</title>
<g id="a_Node000042"><a xlink:title=" ">
<polygon fill="#e0e0e0" stroke="#999999" points="1554.44,-96.62 1443.94,-96.62 1443.94,-63.12 1554.44,-63.12 1554.44,-96.62"/>
<text xml:space="preserve" text-anchor="start" x="1451.94" y="-83.12" font-family="Helvetica,sans-Serif" font-size="10.00">spdlog/sinks/stdout</text>
<text xml:space="preserve" text-anchor="middle" x="1499.19" y="-70.38" font-family="Helvetica,sans-Serif" font-size="10.00">_color_sinks.h</text>
</a>
</g>
</g>
<!-- Node31&#45;&gt;Node42 -->
<g id="edge49_Node000031_Node000042" class="edge">
<title>Node31&#45;&gt;Node42</title>
<g id="a_edge49_Node000031_Node000042"><a xlink:title=" ">
<path fill="none" stroke="#63b8ff" d="M1596.85,-138.7C1581.09,-129.37 1556.66,-114.9 1536.18,-102.78"/>
<polygon fill="#63b8ff" stroke="#63b8ff" points="1538.19,-99.9 1527.8,-97.82 1534.62,-105.92 1538.19,-99.9"/>
</a>
</g>
</g>
<!-- Node43&#45;&gt;Node5 -->
<g id="edge59_Node000043_Node000005" class="edge">
<title>Node43&#45;&gt;Node5</title>
<g id="a_edge59_Node000043_Node000005"><a xlink:title=" ">
<path fill="none" stroke="#63b8ff" d="M1880.55,-203.19C1944.59,-197.58 2050.77,-176.96 2093.19,-103 2103.41,-85.17 2106.34,-72.55 2093.19,-56.75 2067.22,-25.55 1947.98,-15.72 1885.56,-12.69"/>
<polygon fill="#63b8ff" stroke="#63b8ff" points="1885.89,-9.2 1875.74,-12.25 1885.58,-16.19 1885.89,-9.2"/>
</a>
</g>
</g>
<!-- Node43&#45;&gt;Node7 -->
<g id="edge56_Node000043_Node000007" class="edge">
<title>Node43&#45;&gt;Node7</title>
<g id="a_edge56_Node000043_Node000007"><a xlink:title=" ">
<path fill="none" stroke="#63b8ff" d="M1777.67,-199.16C1681.84,-188.07 1478.27,-164.51 1393.97,-154.75"/>
<polygon fill="#63b8ff" stroke="#63b8ff" points="1394.49,-151.29 1384.16,-153.61 1393.69,-158.24 1394.49,-151.29"/>
</a>
</g>
</g>
<!-- Node43&#45;&gt;Node29 -->
<g id="edge61_Node000043_Node000029" class="edge">
<title>Node43&#45;&gt;Node29</title>
<g id="a_edge61_Node000043_Node000029"><a xlink:title=" ">
<path fill="none" stroke="#63b8ff" d="M1777.72,-196.52C1695.98,-183.05 1531.39,-156.68 1391.19,-139 1233.85,-119.16 1189.01,-145.38 1036.19,-103 1029.51,-101.15 1022.6,-98.41 1016.21,-95.49"/>
<polygon fill="#63b8ff" stroke="#63b8ff" points="1017.94,-92.44 1007.42,-91.19 1014.86,-98.73 1017.94,-92.44"/>
</a>
</g>
</g>
<!-- Node43&#45;&gt;Node31 -->
<g id="edge62_Node000043_Node000031" class="edge">
<title>Node43&#45;&gt;Node31</title>
<g id="a_edge62_Node000043_Node000031"><a xlink:title=" ">
<path fill="none" stroke="#63b8ff" d="M1790.57,-195.34C1754.68,-186.24 1701.05,-172.65 1662.16,-162.79"/>
<polygon fill="#63b8ff" stroke="#63b8ff" points="1663.13,-159.42 1652.58,-160.36 1661.41,-166.21 1663.13,-159.42"/>
</a>
</g>
</g>
<!-- Node43&#45;&gt;Node36 -->
<g id="edge60_Node000043_Node000036" class="edge">
<title>Node43&#45;&gt;Node36</title>
<g id="a_edge60_Node000043_Node000036"><a xlink:title=" ">
<path fill="none" stroke="#63b8ff" d="M1817.72,-195.27C1803.06,-181.52 1781.29,-156.31 1796.19,-139 1831.22,-98.29 1985.73,-123.95 2035.19,-103 2038.52,-101.59 2041.81,-99.7 2044.91,-97.63"/>
<polygon fill="#63b8ff" stroke="#63b8ff" points="2046.97,-100.46 2052.79,-91.61 2042.72,-94.9 2046.97,-100.46"/>
</a>
</g>
</g>
<!-- Node44 -->
<g id="Node000044" class="node">
<title>Node44</title>
<g id="a_Node000044"><a xlink:title=" ">
<polygon fill="#e0e0e0" stroke="#999999" points="1986.94,-159.75 1945.44,-159.75 1945.44,-139 1986.94,-139 1986.94,-159.75"/>
<text xml:space="preserve" text-anchor="middle" x="1966.19" y="-146.25" font-family="Helvetica,sans-Serif" font-size="10.00">array</text>
</a>
</g>
</g>
<!-- Node43&#45;&gt;Node44 -->
<g id="edge55_Node000043_Node000044" class="edge">
<title>Node43&#45;&gt;Node44</title>
<g id="a_edge55_Node000043_Node000044"><a xlink:title=" ">
<path fill="none" stroke="#63b8ff" d="M1853.68,-195.34C1876.24,-186.32 1909.84,-172.89 1934.45,-163.06"/>
<polygon fill="#63b8ff" stroke="#63b8ff" points="1935.66,-166.34 1943.65,-159.38 1933.06,-159.84 1935.66,-166.34"/>
</a>
</g>
</g>
<!-- Node45 -->
<g id="Node000045" class="node">
<title>Node45</title>
<g id="a_Node000045"><a xlink:title=" ">
<polygon fill="#e0e0e0" stroke="#999999" points="1853.69,-159.75 1804.69,-159.75 1804.69,-139 1853.69,-139 1853.69,-159.75"/>
<text xml:space="preserve" text-anchor="middle" x="1829.19" y="-146.25" font-family="Helvetica,sans-Serif" font-size="10.00">gsl/util</text>
</a>
</g>
</g>
<!-- Node43&#45;&gt;Node45 -->
<g id="edge57_Node000043_Node000045" class="edge">
<title>Node43&#45;&gt;Node45</title>
<g id="a_edge57_Node000043_Node000045"><a xlink:title=" ">
<path fill="none" stroke="#63b8ff" d="M1829.19,-195.34C1829.19,-188.72 1829.19,-179.72 1829.19,-171.52"/>
<polygon fill="#63b8ff" stroke="#63b8ff" points="1832.69,-171.59 1829.19,-161.59 1825.69,-171.59 1832.69,-171.59"/>
</a>
</g>
</g>
<!-- Node46 -->
<g id="Node000046" class="node">
<title>Node46</title>
<g id="a_Node000046"><a xlink:title=" ">
<polygon fill="#e0e0e0" stroke="#999999" points="1927.06,-159.75 1871.31,-159.75 1871.31,-139 1927.06,-139 1927.06,-159.75"/>
<text xml:space="preserve" text-anchor="middle" x="1899.19" y="-146.25" font-family="Helvetica,sans-Serif" font-size="10.00">numeric</text>
</a>
</g>
</g>
<!-- Node43&#45;&gt;Node46 -->
<g id="edge58_Node000043_Node000046" class="edge">
<title>Node43&#45;&gt;Node46</title>
<g id="a_edge58_Node000043_Node000046"><a xlink:title=" ">
<path fill="none" stroke="#63b8ff" d="M1841.7,-195.34C1851.76,-187.47 1866.1,-176.25 1877.95,-166.99"/>
<polygon fill="#63b8ff" stroke="#63b8ff" points="1879.87,-169.93 1885.59,-161.01 1875.56,-164.41 1879.87,-169.93"/>
</a>
</g>
</g>
</g>
</svg>
