<?xml version="1.0" encoding="UTF-8" standalone="no"?>
<!DOCTYPE svg PUBLIC "-//W3C//DTD SVG 1.1//EN"
 "http://www.w3.org/Graphics/SVG/1.1/DTD/svg11.dtd">
<!-- Generated by graphviz version 2.43.0 (0)
 -->
<!-- Title: include/Move_strategy.hpp Pages: 1 -->
<svg width="2499pt" height="554pt"
 viewBox="0.00 0.00 2499.09 554.00" xmlns="http://www.w3.org/2000/svg" xmlns:xlink="http://www.w3.org/1999/xlink">
<g id="graph0" class="graph" transform="scale(1 1) rotate(0) translate(4 550)">
<title>include/Move_strategy.hpp</title>
<polygon fill="white" stroke="transparent" points="-4,4 -4,-550 2495.09,-550 2495.09,4 -4,4"/>
<!-- Node1 -->
<g id="node1" class="node">
<title>Node1</title>
<g id="a_node1"><a xlink:title="Template class for move algorithms (strategies) on manifolds.">
<polygon fill="#bfbfbf" stroke="black" points="867.09,-526.5 867.09,-545.5 1014.09,-545.5 1014.09,-526.5 867.09,-526.5"/>
<text text-anchor="middle" x="940.59" y="-533.5" font-family="Helvetica,sans-Serif" font-size="10.00">include/Move_strategy.hpp</text>
</a>
</g>
</g>
<!-- Node2 -->
<g id="node2" class="node">
<title>Node2</title>
<g id="a_node2"><a xlink:href="_move__command_8hpp.html" target="_top" xlink:title="Do ergodic moves using the Command pattern.">
<polygon fill="white" stroke="black" points="881.09,-470.5 881.09,-489.5 1000.09,-489.5 1000.09,-470.5 881.09,-470.5"/>
<text text-anchor="middle" x="940.59" y="-477.5" font-family="Helvetica,sans-Serif" font-size="10.00">Move_command.hpp</text>
</a>
</g>
</g>
<!-- Node1&#45;&gt;Node2 -->
<g id="edge1" class="edge">
<title>Node1&#45;&gt;Node2</title>
<path fill="none" stroke="midnightblue" d="M940.59,-526.08C940.59,-519.01 940.59,-508.86 940.59,-499.99"/>
<polygon fill="midnightblue" stroke="midnightblue" points="944.09,-499.75 940.59,-489.75 937.09,-499.75 944.09,-499.75"/>
</g>
<!-- Node3 -->
<g id="node3" class="node">
<title>Node3</title>
<g id="a_node3"><a xlink:href="_apply__move_8hpp.html" target="_top" xlink:title="Apply Pachner moves to foliated Delaunay triangulations.">
<polygon fill="white" stroke="black" points="842.59,-358.5 842.59,-377.5 940.59,-377.5 940.59,-358.5 842.59,-358.5"/>
<text text-anchor="middle" x="891.59" y="-365.5" font-family="Helvetica,sans-Serif" font-size="10.00">Apply_move.hpp</text>
</a>
</g>
</g>
<!-- Node2&#45;&gt;Node3 -->
<g id="edge2" class="edge">
<title>Node2&#45;&gt;Node3</title>
<path fill="none" stroke="midnightblue" d="M935.94,-470.49C931.12,-461.52 923.47,-446.94 917.59,-434 910.52,-418.44 903.37,-400.36 898.36,-387.23"/>
<polygon fill="midnightblue" stroke="midnightblue" points="901.51,-385.64 894.71,-377.52 894.96,-388.11 901.51,-385.64"/>
</g>
<!-- Node11 -->
<g id="node11" class="node">
<title>Node11</title>
<g id="a_node11"><a xlink:href="_ergodic__moves__3_8hpp.html" target="_top" xlink:title="Pachner moves on 2+1 dimensional foliated Delaunay triangulations.">
<polygon fill="white" stroke="black" points="927.09,-414.5 927.09,-433.5 1050.09,-433.5 1050.09,-414.5 927.09,-414.5"/>
<text text-anchor="middle" x="988.59" y="-421.5" font-family="Helvetica,sans-Serif" font-size="10.00">Ergodic_moves_3.hpp</text>
</a>
</g>
</g>
<!-- Node2&#45;&gt;Node11 -->
<g id="edge10" class="edge">
<title>Node2&#45;&gt;Node11</title>
<path fill="none" stroke="midnightblue" d="M948.52,-470.08C955.44,-462.3 965.66,-450.8 974.04,-441.37"/>
<polygon fill="midnightblue" stroke="midnightblue" points="976.78,-443.55 980.81,-433.75 971.55,-438.9 976.78,-443.55"/>
</g>
<!-- Node4 -->
<g id="node4" class="node">
<title>Node4</title>
<g id="a_node4"><a xlink:href="_function__ref_8hpp.html" target="_top" xlink:title="Efficient, type&#45;erasing, non&#45;owning function reference.">
<polygon fill="white" stroke="black" points="681.09,-302.5 681.09,-321.5 778.09,-321.5 778.09,-302.5 681.09,-302.5"/>
<text text-anchor="middle" x="729.59" y="-309.5" font-family="Helvetica,sans-Serif" font-size="10.00">Function_ref.hpp</text>
</a>
</g>
</g>
<!-- Node3&#45;&gt;Node4 -->
<g id="edge3" class="edge">
<title>Node3&#45;&gt;Node4</title>
<path fill="none" stroke="midnightblue" d="M865.92,-358.44C838.67,-349.36 795.41,-334.94 764.94,-324.78"/>
<polygon fill="midnightblue" stroke="midnightblue" points="765.73,-321.36 755.14,-321.52 763.52,-328 765.73,-321.36"/>
</g>
<!-- Node8 -->
<g id="node8" class="node">
<title>Node8</title>
<g id="a_node8"><a xlink:title=" ">
<polygon fill="white" stroke="#bfbfbf" points="859.09,-302.5 859.09,-321.5 924.09,-321.5 924.09,-302.5 859.09,-302.5"/>
<text text-anchor="middle" x="891.59" y="-309.5" font-family="Helvetica,sans-Serif" font-size="10.00">functional</text>
</a>
</g>
</g>
<!-- Node3&#45;&gt;Node8 -->
<g id="edge7" class="edge">
<title>Node3&#45;&gt;Node8</title>
<path fill="none" stroke="midnightblue" d="M891.59,-358.08C891.59,-351.01 891.59,-340.86 891.59,-331.99"/>
<polygon fill="midnightblue" stroke="midnightblue" points="895.09,-331.75 891.59,-321.75 888.09,-331.75 895.09,-331.75"/>
</g>
<!-- Node9 -->
<g id="node9" class="node">
<title>Node9</title>
<g id="a_node9"><a xlink:title=" ">
<polygon fill="white" stroke="#bfbfbf" points="966.59,-67.5 966.59,-86.5 1010.59,-86.5 1010.59,-67.5 966.59,-67.5"/>
<text text-anchor="middle" x="988.59" y="-74.5" font-family="Helvetica,sans-Serif" font-size="10.00">string</text>
</a>
</g>
</g>
<!-- Node3&#45;&gt;Node9 -->
<g id="edge8" class="edge">
<title>Node3&#45;&gt;Node9</title>
<path fill="none" stroke="midnightblue" d="M881.15,-358.4C871.63,-350.03 857.84,-336.49 849.59,-322 834.7,-295.85 830.59,-287.1 830.59,-257 830.59,-257 830.59,-257 830.59,-199 830.59,-182.07 923.26,-120.1 966.66,-92.01"/>
<polygon fill="midnightblue" stroke="midnightblue" points="968.61,-94.92 975.12,-86.56 964.82,-89.03 968.61,-94.92"/>
</g>
<!-- Node10 -->
<g id="node10" class="node">
<title>Node10</title>
<g id="a_node10"><a xlink:title=" ">
<polygon fill="white" stroke="#bfbfbf" points="942.59,-302.5 942.59,-321.5 1034.59,-321.5 1034.59,-302.5 942.59,-302.5"/>
<text text-anchor="middle" x="988.59" y="-309.5" font-family="Helvetica,sans-Serif" font-size="10.00">tl/expected.hpp</text>
</a>
</g>
</g>
<!-- Node3&#45;&gt;Node10 -->
<g id="edge9" class="edge">
<title>Node3&#45;&gt;Node10</title>
<path fill="none" stroke="midnightblue" d="M907.17,-358.32C922.59,-349.74 946.4,-336.49 964.3,-326.52"/>
<polygon fill="midnightblue" stroke="midnightblue" points="966.01,-329.58 973.04,-321.65 962.6,-323.46 966.01,-329.58"/>
</g>
<!-- Node5 -->
<g id="node5" class="node">
<title>Node5</title>
<g id="a_node5"><a xlink:title=" ">
<polygon fill="white" stroke="#bfbfbf" points="388.59,-0.5 388.59,-19.5 438.59,-19.5 438.59,-0.5 388.59,-0.5"/>
<text text-anchor="middle" x="413.59" y="-7.5" font-family="Helvetica,sans-Serif" font-size="10.00">cstdint</text>
</a>
</g>
</g>
<!-- Node4&#45;&gt;Node5 -->
<g id="edge4" class="edge">
<title>Node4&#45;&gt;Node5</title>
<path fill="none" stroke="midnightblue" d="M681.04,-308.79C518.36,-300.74 2.59,-269.81 2.59,-201 2.59,-201 2.59,-201 2.59,-143 2.59,-103.42 -7.77,-82.54 21.59,-56 47.83,-32.28 286.96,-17.54 378.33,-12.73"/>
<polygon fill="midnightblue" stroke="midnightblue" points="378.66,-16.22 388.46,-12.21 378.29,-9.23 378.66,-16.22"/>
</g>
<!-- Node6 -->
<g id="node6" class="node">
<title>Node6</title>
<g id="a_node6"><a xlink:title=" ">
<polygon fill="white" stroke="#bfbfbf" points="670.09,-246.5 670.09,-265.5 739.09,-265.5 739.09,-246.5 670.09,-246.5"/>
<text text-anchor="middle" x="704.59" y="-253.5" font-family="Helvetica,sans-Serif" font-size="10.00">type_traits</text>
</a>
</g>
</g>
<!-- Node4&#45;&gt;Node6 -->
<g id="edge5" class="edge">
<title>Node4&#45;&gt;Node6</title>
<path fill="none" stroke="midnightblue" d="M725.46,-302.08C722.08,-294.77 717.17,-284.18 712.97,-275.1"/>
<polygon fill="midnightblue" stroke="midnightblue" points="716.02,-273.36 708.64,-265.75 709.67,-276.3 716.02,-273.36"/>
</g>
<!-- Node7 -->
<g id="node7" class="node">
<title>Node7</title>
<g id="a_node7"><a xlink:title=" ">
<polygon fill="white" stroke="#bfbfbf" points="757.09,-246.5 757.09,-265.5 802.09,-265.5 802.09,-246.5 757.09,-246.5"/>
<text text-anchor="middle" x="779.59" y="-253.5" font-family="Helvetica,sans-Serif" font-size="10.00">utility</text>
</a>
</g>
</g>
<!-- Node4&#45;&gt;Node7 -->
<g id="edge6" class="edge">
<title>Node4&#45;&gt;Node7</title>
<path fill="none" stroke="midnightblue" d="M737.85,-302.08C745.05,-294.3 755.7,-282.8 764.44,-273.37"/>
<polygon fill="midnightblue" stroke="midnightblue" points="767.26,-275.47 771.49,-265.75 762.12,-270.71 767.26,-275.47"/>
</g>
<!-- Node11&#45;&gt;Node10 -->
<g id="edge47" class="edge">
<title>Node11&#45;&gt;Node10</title>
<path fill="none" stroke="midnightblue" d="M988.59,-414.37C988.59,-396.62 988.59,-355.67 988.59,-331.6"/>
<polygon fill="midnightblue" stroke="midnightblue" points="992.09,-331.59 988.59,-321.59 985.09,-331.59 992.09,-331.59"/>
</g>
<!-- Node12 -->
<g id="node12" class="node">
<title>Node12</title>
<g id="a_node12"><a xlink:href="_move__tracker_8hpp.html" target="_top" xlink:title="Track ergodic moves.">
<polygon fill="white" stroke="black" points="1029.09,-358.5 1029.09,-377.5 1132.09,-377.5 1132.09,-358.5 1029.09,-358.5"/>
<text text-anchor="middle" x="1080.59" y="-365.5" font-family="Helvetica,sans-Serif" font-size="10.00">Move_tracker.hpp</text>
</a>
</g>
</g>
<!-- Node11&#45;&gt;Node12 -->
<g id="edge11" class="edge">
<title>Node11&#45;&gt;Node12</title>
<path fill="none" stroke="midnightblue" d="M1003.37,-414.32C1017.86,-405.82 1040.16,-392.73 1057.08,-382.8"/>
<polygon fill="midnightblue" stroke="midnightblue" points="1058.99,-385.74 1065.85,-377.65 1055.45,-379.7 1058.99,-385.74"/>
</g>
<!-- Node13 -->
<g id="node13" class="node">
<title>Node13</title>
<g id="a_node13"><a xlink:href="_manifold_8hpp.html" target="_top" xlink:title="Data structures for manifolds.">
<polygon fill="white" stroke="black" points="1052.59,-302.5 1052.59,-321.5 1132.59,-321.5 1132.59,-302.5 1052.59,-302.5"/>
<text text-anchor="middle" x="1092.59" y="-309.5" font-family="Helvetica,sans-Serif" font-size="10.00">Manifold.hpp</text>
</a>
</g>
</g>
<!-- Node12&#45;&gt;Node13 -->
<g id="edge12" class="edge">
<title>Node12&#45;&gt;Node13</title>
<path fill="none" stroke="midnightblue" d="M1082.57,-358.08C1084.16,-350.93 1086.45,-340.64 1088.44,-331.69"/>
<polygon fill="midnightblue" stroke="midnightblue" points="1091.89,-332.27 1090.65,-321.75 1085.06,-330.75 1091.89,-332.27"/>
</g>
<!-- Node13&#45;&gt;Node7 -->
<g id="edge46" class="edge">
<title>Node13&#45;&gt;Node7</title>
<path fill="none" stroke="midnightblue" d="M1052.49,-303.59C1049.48,-303.05 1046.49,-302.51 1043.59,-302 960.24,-287.24 861.93,-270.72 812.09,-262.4"/>
<polygon fill="midnightblue" stroke="midnightblue" points="812.65,-258.95 802.21,-260.75 811.5,-265.85 812.65,-258.95"/>
</g>
<!-- Node14 -->
<g id="node14" class="node">
<title>Node14</title>
<g id="a_node14"><a xlink:href="_geometry_8hpp.html" target="_top" xlink:title="Geometric quantities of Manifold used by MoveAlgorithm.">
<polygon fill="white" stroke="black" points="1137.09,-246.5 1137.09,-265.5 1222.09,-265.5 1222.09,-246.5 1137.09,-246.5"/>
<text text-anchor="middle" x="1179.59" y="-253.5" font-family="Helvetica,sans-Serif" font-size="10.00">Geometry.hpp</text>
</a>
</g>
</g>
<!-- Node13&#45;&gt;Node14 -->
<g id="edge13" class="edge">
<title>Node13&#45;&gt;Node14</title>
<path fill="none" stroke="midnightblue" d="M1106.57,-302.32C1120.14,-293.9 1140.97,-280.97 1156.91,-271.07"/>
<polygon fill="midnightblue" stroke="midnightblue" points="1159,-273.9 1165.65,-265.65 1155.3,-267.95 1159,-273.9"/>
</g>
<!-- Node42 -->
<g id="node42" class="node">
<title>Node42</title>
<g id="a_node42"><a xlink:title=" ">
<polygon fill="white" stroke="#bfbfbf" points="1066.09,-246.5 1066.09,-265.5 1119.09,-265.5 1119.09,-246.5 1066.09,-246.5"/>
<text text-anchor="middle" x="1092.59" y="-253.5" font-family="Helvetica,sans-Serif" font-size="10.00">cstddef</text>
</a>
</g>
</g>
<!-- Node13&#45;&gt;Node42 -->
<g id="edge44" class="edge">
<title>Node13&#45;&gt;Node42</title>
<path fill="none" stroke="midnightblue" d="M1092.59,-302.08C1092.59,-295.01 1092.59,-284.86 1092.59,-275.99"/>
<polygon fill="midnightblue" stroke="midnightblue" points="1096.09,-275.75 1092.59,-265.75 1089.09,-275.75 1096.09,-275.75"/>
</g>
<!-- Node43 -->
<g id="node43" class="node">
<title>Node43</title>
<g id="a_node43"><a xlink:title=" ">
<polygon fill="white" stroke="#bfbfbf" points="961.59,-246.5 961.59,-265.5 1047.59,-265.5 1047.59,-246.5 961.59,-246.5"/>
<text text-anchor="middle" x="1004.59" y="-253.5" font-family="Helvetica,sans-Serif" font-size="10.00">unordered_set</text>
</a>
</g>
</g>
<!-- Node13&#45;&gt;Node43 -->
<g id="edge45" class="edge">
<title>Node13&#45;&gt;Node43</title>
<path fill="none" stroke="midnightblue" d="M1078.45,-302.32C1064.72,-293.9 1043.65,-280.97 1027.53,-271.07"/>
<polygon fill="midnightblue" stroke="midnightblue" points="1029.05,-267.9 1018.69,-265.65 1025.39,-273.87 1029.05,-267.9"/>
</g>
<!-- Node15 -->
<g id="node15" class="node">
<title>Node15</title>
<g id="a_node15"><a xlink:href="_foliated__triangulation_8hpp.html" target="_top" xlink:title="Create foliated spherical triangulations.">
<polygon fill="white" stroke="black" points="1107.59,-190.5 1107.59,-209.5 1251.59,-209.5 1251.59,-190.5 1107.59,-190.5"/>
<text text-anchor="middle" x="1179.59" y="-197.5" font-family="Helvetica,sans-Serif" font-size="10.00">Foliated_triangulation.hpp</text>
</a>
</g>
</g>
<!-- Node14&#45;&gt;Node15 -->
<g id="edge14" class="edge">
<title>Node14&#45;&gt;Node15</title>
<path fill="none" stroke="midnightblue" d="M1179.59,-246.08C1179.59,-239.01 1179.59,-228.86 1179.59,-219.99"/>
<polygon fill="midnightblue" stroke="midnightblue" points="1183.09,-219.75 1179.59,-209.75 1176.09,-219.75 1183.09,-219.75"/>
</g>
<!-- Node16 -->
<g id="node16" class="node">
<title>Node16</title>
<g id="a_node16"><a xlink:href="_triangulation__traits_8hpp.html" target="_top" xlink:title="Traits class for particular uses of CGAL.">
<polygon fill="white" stroke="black" points="514.09,-134.5 514.09,-153.5 645.09,-153.5 645.09,-134.5 514.09,-134.5"/>
<text text-anchor="middle" x="579.59" y="-141.5" font-family="Helvetica,sans-Serif" font-size="10.00">Triangulation_traits.hpp</text>
</a>
</g>
</g>
<!-- Node15&#45;&gt;Node16 -->
<g id="edge15" class="edge">
<title>Node15&#45;&gt;Node16</title>
<path fill="none" stroke="midnightblue" d="M1107.51,-192.51C993.42,-182.24 772.22,-162.34 655.67,-151.85"/>
<polygon fill="midnightblue" stroke="midnightblue" points="655.68,-148.33 645.41,-150.92 655.06,-155.31 655.68,-148.33"/>
</g>
<!-- Node24 -->
<g id="node24" class="node">
<title>Node24</title>
<g id="a_node24"><a xlink:href="_utilities_8hpp.html" target="_top" xlink:title="Utility functions.">
<polygon fill="white" stroke="black" points="1516.59,-134.5 1516.59,-153.5 1592.59,-153.5 1592.59,-134.5 1516.59,-134.5"/>
<text text-anchor="middle" x="1554.59" y="-141.5" font-family="Helvetica,sans-Serif" font-size="10.00">Utilities.hpp</text>
</a>
</g>
</g>
<!-- Node15&#45;&gt;Node24 -->
<g id="edge24" class="edge">
<title>Node15&#45;&gt;Node24</title>
<path fill="none" stroke="midnightblue" d="M1239.01,-190.44C1313.07,-179.78 1438.19,-161.76 1506.52,-151.92"/>
<polygon fill="midnightblue" stroke="midnightblue" points="1507.18,-155.36 1516.58,-150.47 1506.18,-148.43 1507.18,-155.36"/>
</g>
<!-- Node17 -->
<g id="node17" class="node">
<title>Node17</title>
<g id="a_node17"><a xlink:href="_settings_8hpp.html" target="_top" xlink:title="Global integer and precision settings.">
<polygon fill="white" stroke="black" points="871.09,-67.5 871.09,-86.5 948.09,-86.5 948.09,-67.5 871.09,-67.5"/>
<text text-anchor="middle" x="909.59" y="-74.5" font-family="Helvetica,sans-Serif" font-size="10.00">Settings.hpp</text>
</a>
</g>
</g>
<!-- Node16&#45;&gt;Node17 -->
<g id="edge16" class="edge">
<title>Node16&#45;&gt;Node17</title>
<path fill="none" stroke="midnightblue" d="M645.22,-136.97C702.99,-130.62 788.98,-118.61 861.59,-98 868.48,-96.05 875.7,-93.38 882.39,-90.64"/>
<polygon fill="midnightblue" stroke="midnightblue" points="883.91,-93.8 891.72,-86.63 881.15,-87.37 883.91,-93.8"/>
</g>
<!-- Node19 -->
<g id="node19" class="node">
<title>Node19</title>
<g id="a_node19"><a xlink:title=" ">
<polygon fill="white" stroke="#bfbfbf" points="672.59,-67.5 672.59,-86.5 852.59,-86.5 852.59,-67.5 672.59,-67.5"/>
<text text-anchor="middle" x="762.59" y="-74.5" font-family="Helvetica,sans-Serif" font-size="10.00">CGAL/Delaunay_triangulation_3.h</text>
</a>
</g>
</g>
<!-- Node16&#45;&gt;Node19 -->
<g id="edge19" class="edge">
<title>Node16&#45;&gt;Node19</title>
<path fill="none" stroke="midnightblue" d="M603.89,-134.37C635.97,-122.97 692.62,-102.85 728.84,-89.99"/>
<polygon fill="midnightblue" stroke="midnightblue" points="730.23,-93.21 738.48,-86.56 727.89,-86.61 730.23,-93.21"/>
</g>
<!-- Node20 -->
<g id="node20" class="node">
<title>Node20</title>
<g id="a_node20"><a xlink:title=" ">
<polygon fill="white" stroke="#bfbfbf" points="31.09,-56.5 31.09,-97.5 160.09,-97.5 160.09,-56.5 31.09,-56.5"/>
<text text-anchor="start" x="39.09" y="-85.5" font-family="Helvetica,sans-Serif" font-size="10.00">CGAL/Exact_predicates</text>
<text text-anchor="start" x="39.09" y="-74.5" font-family="Helvetica,sans-Serif" font-size="10.00">_inexact_constructions</text>
<text text-anchor="middle" x="95.59" y="-63.5" font-family="Helvetica,sans-Serif" font-size="10.00">_kernel.h</text>
</a>
</g>
</g>
<!-- Node16&#45;&gt;Node20 -->
<g id="edge20" class="edge">
<title>Node16&#45;&gt;Node20</title>
<path fill="none" stroke="midnightblue" d="M513.8,-138.93C434.49,-133.31 297.11,-121.35 170.32,-97.98"/>
<polygon fill="midnightblue" stroke="midnightblue" points="170.9,-94.53 160.43,-96.13 169.62,-101.41 170.9,-94.53"/>
</g>
<!-- Node21 -->
<g id="node21" class="node">
<title>Node21</title>
<g id="a_node21"><a xlink:title=" ">
<polygon fill="white" stroke="#bfbfbf" points="178.59,-62 178.59,-92 316.59,-92 316.59,-62 178.59,-62"/>
<text text-anchor="start" x="186.59" y="-80" font-family="Helvetica,sans-Serif" font-size="10.00">CGAL/Triangulation</text>
<text text-anchor="middle" x="247.59" y="-69" font-family="Helvetica,sans-Serif" font-size="10.00">_cell_base_with_info_3.h</text>
</a>
</g>
</g>
<!-- Node16&#45;&gt;Node21 -->
<g id="edge21" class="edge">
<title>Node16&#45;&gt;Node21</title>
<path fill="none" stroke="midnightblue" d="M524.36,-134.45C472.75,-126.17 393.65,-112.73 325.59,-98 320.59,-96.92 315.43,-95.74 310.26,-94.51"/>
<polygon fill="midnightblue" stroke="midnightblue" points="310.87,-91.06 300.33,-92.1 309.22,-97.86 310.87,-91.06"/>
</g>
<!-- Node22 -->
<g id="node22" class="node">
<title>Node22</title>
<g id="a_node22"><a xlink:title=" ">
<polygon fill="white" stroke="#bfbfbf" points="334.59,-62 334.59,-92 486.59,-92 486.59,-62 334.59,-62"/>
<text text-anchor="start" x="342.59" y="-80" font-family="Helvetica,sans-Serif" font-size="10.00">CGAL/Triangulation</text>
<text text-anchor="middle" x="410.59" y="-69" font-family="Helvetica,sans-Serif" font-size="10.00">_vertex_base_with_info_3.h</text>
</a>
</g>
</g>
<!-- Node16&#45;&gt;Node22 -->
<g id="edge22" class="edge">
<title>Node16&#45;&gt;Node22</title>
<path fill="none" stroke="midnightblue" d="M557.15,-134.37C531.57,-124.53 489.08,-108.19 456.42,-95.63"/>
<polygon fill="midnightblue" stroke="midnightblue" points="457.65,-92.35 447.06,-92.03 455.14,-98.88 457.65,-92.35"/>
</g>
<!-- Node23 -->
<g id="node23" class="node">
<title>Node23</title>
<g id="a_node23"><a xlink:title=" ">
<polygon fill="white" stroke="#bfbfbf" points="505.09,-67.5 505.09,-86.5 654.09,-86.5 654.09,-67.5 505.09,-67.5"/>
<text text-anchor="middle" x="579.59" y="-74.5" font-family="Helvetica,sans-Serif" font-size="10.00">CGAL/point_generators_3.h</text>
</a>
</g>
</g>
<!-- Node16&#45;&gt;Node23 -->
<g id="edge23" class="edge">
<title>Node16&#45;&gt;Node23</title>
<path fill="none" stroke="midnightblue" d="M579.59,-134.23C579.59,-124.68 579.59,-109.12 579.59,-96.78"/>
<polygon fill="midnightblue" stroke="midnightblue" points="583.09,-96.63 579.59,-86.63 576.09,-96.63 583.09,-96.63"/>
</g>
<!-- Node17&#45;&gt;Node5 -->
<g id="edge18" class="edge">
<title>Node17&#45;&gt;Node5</title>
<path fill="none" stroke="midnightblue" d="M892.24,-67.31C883.3,-63.21 872.09,-58.65 861.59,-56 711.39,-18.06 525.26,-11.89 448.84,-11.04"/>
<polygon fill="midnightblue" stroke="midnightblue" points="448.83,-7.54 438.8,-10.96 448.77,-14.54 448.83,-7.54"/>
</g>
<!-- Node18 -->
<g id="node18" class="node">
<title>Node18</title>
<g id="a_node18"><a xlink:title=" ">
<polygon fill="white" stroke="#bfbfbf" points="866.59,-0.5 866.59,-19.5 952.59,-19.5 952.59,-0.5 866.59,-0.5"/>
<text text-anchor="middle" x="909.59" y="-7.5" font-family="Helvetica,sans-Serif" font-size="10.00">CGAL/Gmpzf.h</text>
</a>
</g>
</g>
<!-- Node17&#45;&gt;Node18 -->
<g id="edge17" class="edge">
<title>Node17&#45;&gt;Node18</title>
<path fill="none" stroke="midnightblue" d="M909.59,-67.23C909.59,-57.68 909.59,-42.12 909.59,-29.78"/>
<polygon fill="midnightblue" stroke="midnightblue" points="913.09,-29.63 909.59,-19.63 906.09,-29.63 913.09,-29.63"/>
</g>
<!-- Node24&#45;&gt;Node9 -->
<g id="edge37" class="edge">
<title>Node24&#45;&gt;Node9</title>
<path fill="none" stroke="midnightblue" d="M1516.44,-142.18C1410.03,-139.53 1111.79,-129.42 1019.59,-98 1015.54,-96.62 1011.5,-94.6 1007.74,-92.37"/>
<polygon fill="midnightblue" stroke="midnightblue" points="1009.37,-89.25 999.1,-86.63 1005.49,-95.08 1009.37,-89.25"/>
</g>
<!-- Node24&#45;&gt;Node17 -->
<g id="edge43" class="edge">
<title>Node24&#45;&gt;Node17</title>
<path fill="none" stroke="midnightblue" d="M1516.43,-141.71C1402.24,-137.61 1064.48,-123.59 957.59,-98 950.39,-96.28 942.88,-93.61 936,-90.77"/>
<polygon fill="midnightblue" stroke="midnightblue" points="937.04,-87.41 926.47,-86.59 934.22,-93.82 937.04,-87.41"/>
</g>
<!-- Node25 -->
<g id="node25" class="node">
<title>Node25</title>
<g id="a_node25"><a xlink:title=" ">
<polygon fill="white" stroke="#bfbfbf" points="1873.09,-67.5 1873.09,-86.5 1956.09,-86.5 1956.09,-67.5 1873.09,-67.5"/>
<text text-anchor="middle" x="1914.59" y="-74.5" font-family="Helvetica,sans-Serif" font-size="10.00">CGAL/Timer.h</text>
</a>
</g>
</g>
<!-- Node24&#45;&gt;Node25 -->
<g id="edge25" class="edge">
<title>Node24&#45;&gt;Node25</title>
<path fill="none" stroke="midnightblue" d="M1592.73,-140.27C1651.64,-135.43 1767.96,-123.36 1863.59,-98 1871.05,-96.02 1878.9,-93.29 1886.15,-90.48"/>
<polygon fill="midnightblue" stroke="midnightblue" points="1887.61,-93.66 1895.56,-86.66 1884.98,-87.18 1887.61,-93.66"/>
</g>
<!-- Node26 -->
<g id="node26" class="node">
<title>Node26</title>
<g id="a_node26"><a xlink:title=" ">
<polygon fill="white" stroke="#bfbfbf" points="1974.59,-67.5 1974.59,-86.5 2062.59,-86.5 2062.59,-67.5 1974.59,-67.5"/>
<text text-anchor="middle" x="2018.59" y="-74.5" font-family="Helvetica,sans-Serif" font-size="10.00">sys/utsname.h</text>
</a>
</g>
</g>
<!-- Node24&#45;&gt;Node26 -->
<g id="edge26" class="edge">
<title>Node24&#45;&gt;Node26</title>
<path fill="none" stroke="midnightblue" d="M1592.82,-142.01C1666.1,-139.43 1831.03,-130.21 1965.59,-98 1973.66,-96.07 1982.17,-93.24 1989.95,-90.31"/>
<polygon fill="midnightblue" stroke="midnightblue" points="1991.31,-93.54 1999.33,-86.61 1988.74,-87.02 1991.31,-93.54"/>
</g>
<!-- Node27 -->
<g id="node27" class="node">
<title>Node27</title>
<g id="a_node27"><a xlink:title=" ">
<polygon fill="white" stroke="#bfbfbf" points="2081.09,-67.5 2081.09,-86.5 2198.09,-86.5 2198.09,-67.5 2081.09,-67.5"/>
<text text-anchor="middle" x="2139.59" y="-74.5" font-family="Helvetica,sans-Serif" font-size="10.00">boost/date_time.hpp</text>
</a>
</g>
</g>
<!-- Node24&#45;&gt;Node27 -->
<g id="edge27" class="edge">
<title>Node24&#45;&gt;Node27</title>
<path fill="none" stroke="midnightblue" d="M1592.89,-142.27C1679.11,-140.06 1894.74,-131.36 2071.59,-98 2082.68,-95.91 2094.55,-92.75 2105.22,-89.56"/>
<polygon fill="midnightblue" stroke="midnightblue" points="2106.5,-92.82 2115.01,-86.52 2104.42,-86.14 2106.5,-92.82"/>
</g>
<!-- Node28 -->
<g id="node28" class="node">
<title>Node28</title>
<g id="a_node28"><a xlink:title=" ">
<polygon fill="white" stroke="#bfbfbf" points="2216.59,-67.5 2216.59,-86.5 2280.59,-86.5 2280.59,-67.5 2216.59,-67.5"/>
<text text-anchor="middle" x="2248.59" y="-74.5" font-family="Helvetica,sans-Serif" font-size="10.00">algorithm</text>
</a>
</g>
</g>
<!-- Node24&#45;&gt;Node28 -->
<g id="edge28" class="edge">
<title>Node24&#45;&gt;Node28</title>
<path fill="none" stroke="midnightblue" d="M1592.92,-142.28C1714.5,-139.71 2090.4,-129.34 2207.59,-98 2213.57,-96.4 2219.72,-93.91 2225.38,-91.23"/>
<polygon fill="midnightblue" stroke="midnightblue" points="2227.02,-94.32 2234.32,-86.65 2223.83,-88.09 2227.02,-94.32"/>
</g>
<!-- Node29 -->
<g id="node29" class="node">
<title>Node29</title>
<g id="a_node29"><a xlink:title=" ">
<polygon fill="white" stroke="#bfbfbf" points="2298.59,-67.5 2298.59,-86.5 2350.59,-86.5 2350.59,-67.5 2298.59,-67.5"/>
<text text-anchor="middle" x="2324.59" y="-74.5" font-family="Helvetica,sans-Serif" font-size="10.00">cassert</text>
</a>
</g>
</g>
<!-- Node24&#45;&gt;Node29 -->
<g id="edge29" class="edge">
<title>Node24&#45;&gt;Node29</title>
<path fill="none" stroke="midnightblue" d="M1592.67,-142.94C1723.99,-142.39 2157.14,-137.55 2289.59,-98 2294.45,-96.55 2299.36,-94.32 2303.9,-91.87"/>
<polygon fill="midnightblue" stroke="midnightblue" points="2305.78,-94.82 2312.58,-86.69 2302.2,-88.8 2305.78,-94.82"/>
</g>
<!-- Node30 -->
<g id="node30" class="node">
<title>Node30</title>
<g id="a_node30"><a xlink:title=" ">
<polygon fill="white" stroke="#bfbfbf" points="2369.09,-67.5 2369.09,-86.5 2418.09,-86.5 2418.09,-67.5 2369.09,-67.5"/>
<text text-anchor="middle" x="2393.59" y="-74.5" font-family="Helvetica,sans-Serif" font-size="10.00">cstdlib</text>
</a>
</g>
</g>
<!-- Node24&#45;&gt;Node30 -->
<g id="edge30" class="edge">
<title>Node24&#45;&gt;Node30</title>
<path fill="none" stroke="midnightblue" d="M1592.88,-143.24C1732.48,-143.75 2213.55,-142.18 2359.59,-98 2364.42,-96.54 2369.28,-94.27 2373.76,-91.77"/>
<polygon fill="midnightblue" stroke="midnightblue" points="2375.6,-94.74 2382.28,-86.51 2371.93,-88.78 2375.6,-94.74"/>
</g>
<!-- Node31 -->
<g id="node31" class="node">
<title>Node31</title>
<g id="a_node31"><a xlink:title=" ">
<polygon fill="white" stroke="#bfbfbf" points="2436.09,-67.5 2436.09,-86.5 2491.09,-86.5 2491.09,-67.5 2436.09,-67.5"/>
<text text-anchor="middle" x="2463.59" y="-74.5" font-family="Helvetica,sans-Serif" font-size="10.00">fstream</text>
</a>
</g>
</g>
<!-- Node24&#45;&gt;Node31 -->
<g id="edge31" class="edge">
<title>Node24&#45;&gt;Node31</title>
<path fill="none" stroke="midnightblue" d="M1592.75,-143.32C1739.53,-144.18 2267.39,-143.94 2427.59,-98 2432.78,-96.51 2438.05,-94.16 2442.89,-91.58"/>
<polygon fill="midnightblue" stroke="midnightblue" points="2444.68,-94.59 2451.54,-86.52 2441.14,-88.55 2444.68,-94.59"/>
</g>
<!-- Node32 -->
<g id="node32" class="node">
<title>Node32</title>
<g id="a_node32"><a xlink:title=" ">
<polygon fill="white" stroke="#bfbfbf" points="1028.59,-67.5 1028.59,-86.5 1076.59,-86.5 1076.59,-67.5 1028.59,-67.5"/>
<text text-anchor="middle" x="1052.59" y="-74.5" font-family="Helvetica,sans-Serif" font-size="10.00">gsl/gsl</text>
</a>
</g>
</g>
<!-- Node24&#45;&gt;Node32 -->
<g id="edge32" class="edge">
<title>Node24&#45;&gt;Node32</title>
<path fill="none" stroke="midnightblue" d="M1516.35,-141.53C1419.28,-137.44 1165.36,-124.46 1085.59,-98 1081.1,-96.51 1076.59,-94.33 1072.39,-91.94"/>
<polygon fill="midnightblue" stroke="midnightblue" points="1074.2,-88.94 1063.87,-86.59 1070.48,-94.87 1074.2,-88.94"/>
</g>
<!-- Node33 -->
<g id="node33" class="node">
<title>Node33</title>
<g id="a_node33"><a xlink:title=" ">
<polygon fill="white" stroke="#bfbfbf" points="1094.59,-67.5 1094.59,-86.5 1154.59,-86.5 1154.59,-67.5 1094.59,-67.5"/>
<text text-anchor="middle" x="1124.59" y="-74.5" font-family="Helvetica,sans-Serif" font-size="10.00">iostream</text>
</a>
</g>
</g>
<!-- Node24&#45;&gt;Node33 -->
<g id="edge33" class="edge">
<title>Node24&#45;&gt;Node33</title>
<path fill="none" stroke="midnightblue" d="M1516.48,-143.1C1445.49,-142.3 1288.82,-135.95 1163.59,-98 1158.26,-96.39 1152.8,-94.06 1147.71,-91.57"/>
<polygon fill="midnightblue" stroke="midnightblue" points="1148.99,-88.28 1138.52,-86.69 1145.71,-94.47 1148.99,-88.28"/>
</g>
<!-- Node34 -->
<g id="node34" class="node">
<title>Node34</title>
<g id="a_node34"><a xlink:title=" ">
<polygon fill="white" stroke="#bfbfbf" points="1172.59,-67.5 1172.59,-86.5 1220.59,-86.5 1220.59,-67.5 1172.59,-67.5"/>
<text text-anchor="middle" x="1196.59" y="-74.5" font-family="Helvetica,sans-Serif" font-size="10.00">mutex</text>
</a>
</g>
</g>
<!-- Node24&#45;&gt;Node34 -->
<g id="edge34" class="edge">
<title>Node24&#45;&gt;Node34</title>
<path fill="none" stroke="midnightblue" d="M1516.38,-142.67C1454.4,-141.06 1328.89,-133.26 1229.59,-98 1225.33,-96.49 1221.02,-94.38 1216.99,-92.1"/>
<polygon fill="midnightblue" stroke="midnightblue" points="1218.56,-88.96 1208.22,-86.66 1214.87,-94.91 1218.56,-88.96"/>
</g>
<!-- Node35 -->
<g id="node35" class="node">
<title>Node35</title>
<g id="a_node35"><a xlink:title=" ">
<polygon fill="white" stroke="#bfbfbf" points="1238.59,-67.5 1238.59,-86.5 1292.59,-86.5 1292.59,-67.5 1238.59,-67.5"/>
<text text-anchor="middle" x="1265.59" y="-74.5" font-family="Helvetica,sans-Serif" font-size="10.00">random</text>
</a>
</g>
</g>
<!-- Node24&#45;&gt;Node35 -->
<g id="edge35" class="edge">
<title>Node24&#45;&gt;Node35</title>
<path fill="none" stroke="midnightblue" d="M1516.49,-140C1466.29,-135.2 1375.8,-123.58 1302.59,-98 1297.76,-96.31 1292.8,-94.05 1288.15,-91.66"/>
<polygon fill="midnightblue" stroke="midnightblue" points="1289.61,-88.46 1279.16,-86.69 1286.22,-94.59 1289.61,-88.46"/>
</g>
<!-- Node36 -->
<g id="node36" class="node">
<title>Node36</title>
<g id="a_node36"><a xlink:title=" ">
<polygon fill="white" stroke="#bfbfbf" points="1311.09,-67.5 1311.09,-86.5 1376.09,-86.5 1376.09,-67.5 1311.09,-67.5"/>
<text text-anchor="middle" x="1343.59" y="-74.5" font-family="Helvetica,sans-Serif" font-size="10.00">stdexcept</text>
</a>
</g>
</g>
<!-- Node24&#45;&gt;Node36 -->
<g id="edge36" class="edge">
<title>Node24&#45;&gt;Node36</title>
<path fill="none" stroke="midnightblue" d="M1516.38,-134.95C1481.72,-127.14 1429.48,-114.14 1385.59,-98 1380.09,-95.98 1374.34,-93.5 1368.92,-90.98"/>
<polygon fill="midnightblue" stroke="midnightblue" points="1370.17,-87.7 1359.65,-86.5 1367.13,-94 1370.17,-87.7"/>
</g>
<!-- Node37 -->
<g id="node37" class="node">
<title>Node37</title>
<g id="a_node37"><a xlink:title=" ">
<polygon fill="white" stroke="#bfbfbf" points="1394.09,-67.5 1394.09,-86.5 1459.09,-86.5 1459.09,-67.5 1394.09,-67.5"/>
<text text-anchor="middle" x="1426.59" y="-74.5" font-family="Helvetica,sans-Serif" font-size="10.00">typeindex</text>
</a>
</g>
</g>
<!-- Node24&#45;&gt;Node37 -->
<g id="edge38" class="edge">
<title>Node24&#45;&gt;Node37</title>
<path fill="none" stroke="midnightblue" d="M1537.59,-134.37C1515.88,-123.34 1478.1,-104.16 1452.72,-91.27"/>
<polygon fill="midnightblue" stroke="midnightblue" points="1454.16,-88.07 1443.66,-86.67 1450.99,-94.32 1454.16,-88.07"/>
</g>
<!-- Node38 -->
<g id="node38" class="node">
<title>Node38</title>
<g id="a_node38"><a xlink:title=" ">
<polygon fill="white" stroke="#bfbfbf" points="1477.09,-67.5 1477.09,-86.5 1536.09,-86.5 1536.09,-67.5 1477.09,-67.5"/>
<text text-anchor="middle" x="1506.59" y="-74.5" font-family="Helvetica,sans-Serif" font-size="10.00">date/tz.h</text>
</a>
</g>
</g>
<!-- Node24&#45;&gt;Node38 -->
<g id="edge39" class="edge">
<title>Node24&#45;&gt;Node38</title>
<path fill="none" stroke="midnightblue" d="M1548.12,-134.23C1540.7,-124.2 1528.39,-107.51 1519.09,-94.92"/>
<polygon fill="midnightblue" stroke="midnightblue" points="1521.72,-92.59 1512.96,-86.63 1516.09,-96.75 1521.72,-92.59"/>
</g>
<!-- Node39 -->
<g id="node39" class="node">
<title>Node39</title>
<g id="a_node39"><a xlink:title=" ">
<polygon fill="white" stroke="#bfbfbf" points="1554.59,-67.5 1554.59,-86.5 1652.59,-86.5 1652.59,-67.5 1554.59,-67.5"/>
<text text-anchor="middle" x="1603.59" y="-74.5" font-family="Helvetica,sans-Serif" font-size="10.00">pcg_random.hpp</text>
</a>
</g>
</g>
<!-- Node24&#45;&gt;Node39 -->
<g id="edge40" class="edge">
<title>Node24&#45;&gt;Node39</title>
<path fill="none" stroke="midnightblue" d="M1561.2,-134.23C1568.77,-124.2 1581.34,-107.51 1590.83,-94.92"/>
<polygon fill="midnightblue" stroke="midnightblue" points="1593.86,-96.72 1597.09,-86.63 1588.27,-92.51 1593.86,-96.72"/>
</g>
<!-- Node40 -->
<g id="node40" class="node">
<title>Node40</title>
<g id="a_node40"><a xlink:title=" ">
<polygon fill="white" stroke="#bfbfbf" points="1671.09,-67.5 1671.09,-86.5 1750.09,-86.5 1750.09,-67.5 1671.09,-67.5"/>
<text text-anchor="middle" x="1710.59" y="-74.5" font-family="Helvetica,sans-Serif" font-size="10.00">fmt/format.h</text>
</a>
</g>
</g>
<!-- Node24&#45;&gt;Node40 -->
<g id="edge41" class="edge">
<title>Node24&#45;&gt;Node40</title>
<path fill="none" stroke="midnightblue" d="M1575.31,-134.37C1602.23,-123.15 1649.45,-103.48 1680.37,-90.59"/>
<polygon fill="midnightblue" stroke="midnightblue" points="1681.9,-93.74 1689.79,-86.67 1679.21,-87.28 1681.9,-93.74"/>
</g>
<!-- Node41 -->
<g id="node41" class="node">
<title>Node41</title>
<g id="a_node41"><a xlink:title=" ">
<polygon fill="white" stroke="#bfbfbf" points="1768.59,-67.5 1768.59,-86.5 1854.59,-86.5 1854.59,-67.5 1768.59,-67.5"/>
<text text-anchor="middle" x="1811.59" y="-74.5" font-family="Helvetica,sans-Serif" font-size="10.00">fmt/ostream.h</text>
</a>
</g>
</g>
<!-- Node24&#45;&gt;Node41 -->
<g id="edge42" class="edge">
<title>Node24&#45;&gt;Node41</title>
<path fill="none" stroke="midnightblue" d="M1592.81,-136.4C1634.32,-128.82 1702.36,-115.18 1759.59,-98 1766.98,-95.78 1774.81,-93.01 1782.09,-90.23"/>
<polygon fill="midnightblue" stroke="midnightblue" points="1783.55,-93.42 1791.59,-86.51 1781,-86.9 1783.55,-93.42"/>
</g>
</g>
</svg>
