<?xml version="1.0" encoding="UTF-8" standalone="no"?>
<!DOCTYPE svg PUBLIC "-//W3C//DTD SVG 1.1//EN"
 "http://www.w3.org/Graphics/SVG/1.1/DTD/svg11.dtd">
<!-- Generated by graphviz version 2.43.0 (0)
 -->
<!-- Title: include/Move_tracker.hpp Pages: 1 -->
<svg width="2018pt" height="207pt"
 viewBox="0.00 0.00 2017.50 207.00" xmlns="http://www.w3.org/2000/svg" xmlns:xlink="http://www.w3.org/1999/xlink">
<g id="graph0" class="graph" transform="scale(1 1) rotate(0) translate(4 203)">
<title>include/Move_tracker.hpp</title>
<polygon fill="white" stroke="transparent" points="-4,4 -4,-203 2013.5,-203 2013.5,4 -4,4"/>
<!-- Node1 -->
<g id="node1" class="node">
<title>Node1</title>
<g id="a_node1"><a xlink:title="Track ergodic moves.">
<polygon fill="#bfbfbf" stroke="black" points="112.5,-179.5 112.5,-198.5 253.5,-198.5 253.5,-179.5 112.5,-179.5"/>
<text text-anchor="middle" x="183" y="-186.5" font-family="Helvetica,sans-Serif" font-size="10.00">include/Move_tracker.hpp</text>
</a>
</g>
</g>
<!-- Node2 -->
<g id="node2" class="node">
<title>Node2</title>
<g id="a_node2"><a xlink:title=" ">
<polygon fill="white" stroke="#bfbfbf" points="0,-123.5 0,-142.5 42,-142.5 42,-123.5 0,-123.5"/>
<text text-anchor="middle" x="21" y="-130.5" font-family="Helvetica,sans-Serif" font-size="10.00">array</text>
</a>
</g>
</g>
<!-- Node1&#45;&gt;Node2 -->
<g id="edge1" class="edge">
<title>Node1&#45;&gt;Node2</title>
<path fill="none" stroke="midnightblue" d="M157.33,-179.44C128.79,-169.93 82.71,-154.57 52.14,-144.38"/>
<polygon fill="midnightblue" stroke="midnightblue" points="53,-140.98 42.41,-141.14 50.79,-147.62 53,-140.98"/>
</g>
<!-- Node3 -->
<g id="node3" class="node">
<title>Node3</title>
<g id="a_node3"><a xlink:title=" ">
<polygon fill="white" stroke="#bfbfbf" points="60.5,-123.5 60.5,-142.5 113.5,-142.5 113.5,-123.5 60.5,-123.5"/>
<text text-anchor="middle" x="87" y="-130.5" font-family="Helvetica,sans-Serif" font-size="10.00">cstddef</text>
</a>
</g>
</g>
<!-- Node1&#45;&gt;Node3 -->
<g id="edge2" class="edge">
<title>Node1&#45;&gt;Node3</title>
<path fill="none" stroke="midnightblue" d="M167.58,-179.32C152.46,-170.82 129.18,-157.73 111.53,-147.8"/>
<polygon fill="midnightblue" stroke="midnightblue" points="112.82,-144.51 102.39,-142.65 109.39,-150.61 112.82,-144.51"/>
</g>
<!-- Node4 -->
<g id="node4" class="node">
<title>Node4</title>
<g id="a_node4"><a xlink:title=" ">
<polygon fill="white" stroke="#bfbfbf" points="132,-123.5 132,-142.5 182,-142.5 182,-123.5 132,-123.5"/>
<text text-anchor="middle" x="157" y="-130.5" font-family="Helvetica,sans-Serif" font-size="10.00">gsl/util</text>
</a>
</g>
</g>
<!-- Node1&#45;&gt;Node4 -->
<g id="edge3" class="edge">
<title>Node1&#45;&gt;Node4</title>
<path fill="none" stroke="midnightblue" d="M178.71,-179.08C175.15,-171.69 169.98,-160.95 165.58,-151.81"/>
<polygon fill="midnightblue" stroke="midnightblue" points="168.71,-150.24 161.21,-142.75 162.4,-153.28 168.71,-150.24"/>
</g>
<!-- Node5 -->
<g id="node5" class="node">
<title>Node5</title>
<g id="a_node5"><a xlink:title=" ">
<polygon fill="white" stroke="#bfbfbf" points="151,-62 151,-81 191,-81 191,-62 151,-62"/>
<text text-anchor="middle" x="171" y="-69" font-family="Helvetica,sans-Serif" font-size="10.00">span</text>
</a>
</g>
</g>
<!-- Node1&#45;&gt;Node5 -->
<g id="edge4" class="edge">
<title>Node1&#45;&gt;Node5</title>
<path fill="none" stroke="midnightblue" d="M185.83,-179.11C189.44,-166.54 194.79,-142.88 191,-123 188.85,-111.71 184.21,-99.72 179.94,-90.26"/>
<polygon fill="midnightblue" stroke="midnightblue" points="183.05,-88.65 175.59,-81.13 176.74,-91.67 183.05,-88.65"/>
</g>
<!-- Node6 -->
<g id="node6" class="node">
<title>Node6</title>
<g id="a_node6"><a xlink:href="_settings_8hpp.html" target="_top" xlink:title="Global integer and precision settings.">
<polygon fill="white" stroke="black" points="209.5,-62 209.5,-81 286.5,-81 286.5,-62 209.5,-62"/>
<text text-anchor="middle" x="248" y="-69" font-family="Helvetica,sans-Serif" font-size="10.00">Settings.hpp</text>
</a>
</g>
</g>
<!-- Node1&#45;&gt;Node6 -->
<g id="edge5" class="edge">
<title>Node1&#45;&gt;Node6</title>
<path fill="none" stroke="midnightblue" d="M187.89,-179.32C198.52,-160.42 223.94,-115.25 238.08,-90.12"/>
<polygon fill="midnightblue" stroke="midnightblue" points="241.2,-91.71 243.06,-81.28 235.1,-88.28 241.2,-91.71"/>
</g>
<!-- Node9 -->
<g id="node9" class="node">
<title>Node9</title>
<g id="a_node9"><a xlink:href="_utilities_8hpp.html" target="_top" xlink:title="Utility functions.">
<polygon fill="white" stroke="black" points="881,-123.5 881,-142.5 957,-142.5 957,-123.5 881,-123.5"/>
<text text-anchor="middle" x="919" y="-130.5" font-family="Helvetica,sans-Serif" font-size="10.00">Utilities.hpp</text>
</a>
</g>
</g>
<!-- Node1&#45;&gt;Node9 -->
<g id="edge8" class="edge">
<title>Node1&#45;&gt;Node9</title>
<path fill="none" stroke="midnightblue" d="M253.57,-182.82C402.13,-171.92 743.83,-146.85 870.55,-137.55"/>
<polygon fill="midnightblue" stroke="midnightblue" points="871,-141.03 880.72,-136.81 870.49,-134.05 871,-141.03"/>
</g>
<!-- Node7 -->
<g id="node7" class="node">
<title>Node7</title>
<g id="a_node7"><a xlink:title=" ">
<polygon fill="white" stroke="#bfbfbf" points="122,-0.5 122,-19.5 262,-19.5 262,-0.5 122,-0.5"/>
<text text-anchor="middle" x="192" y="-7.5" font-family="Helvetica,sans-Serif" font-size="10.00">CGAL/GMP/Gmpzf_type.h</text>
</a>
</g>
</g>
<!-- Node6&#45;&gt;Node7 -->
<g id="edge6" class="edge">
<title>Node6&#45;&gt;Node7</title>
<path fill="none" stroke="midnightblue" d="M239.98,-61.98C231.41,-52.87 217.64,-38.24 207.04,-26.98"/>
<polygon fill="midnightblue" stroke="midnightblue" points="209.41,-24.39 200.01,-19.51 204.31,-29.19 209.41,-24.39"/>
</g>
<!-- Node8 -->
<g id="node8" class="node">
<title>Node8</title>
<g id="a_node8"><a xlink:title=" ">
<polygon fill="white" stroke="#bfbfbf" points="280,-0.5 280,-19.5 330,-19.5 330,-0.5 280,-0.5"/>
<text text-anchor="middle" x="305" y="-7.5" font-family="Helvetica,sans-Serif" font-size="10.00">cstdint</text>
</a>
</g>
</g>
<!-- Node6&#45;&gt;Node8 -->
<g id="edge7" class="edge">
<title>Node6&#45;&gt;Node8</title>
<path fill="none" stroke="midnightblue" d="M256.17,-61.98C264.89,-52.87 278.9,-38.24 289.69,-26.98"/>
<polygon fill="midnightblue" stroke="midnightblue" points="292.46,-29.15 296.85,-19.51 287.4,-24.31 292.46,-29.15"/>
</g>
<!-- Node9&#45;&gt;Node5 -->
<g id="edge19" class="edge">
<title>Node9&#45;&gt;Node5</title>
<path fill="none" stroke="midnightblue" d="M880.93,-131.61C751.65,-130 330.28,-122.09 200,-87 198.28,-86.54 196.54,-85.97 194.82,-85.32"/>
<polygon fill="midnightblue" stroke="midnightblue" points="195.86,-81.95 185.3,-81.07 193,-88.34 195.86,-81.95"/>
</g>
<!-- Node9&#45;&gt;Node6 -->
<g id="edge30" class="edge">
<title>Node9&#45;&gt;Node6</title>
<path fill="none" stroke="midnightblue" d="M880.7,-132.16C782.6,-131.95 514.6,-127.4 296,-87 291.55,-86.18 286.92,-85.09 282.37,-83.88"/>
<polygon fill="midnightblue" stroke="midnightblue" points="283.23,-80.48 272.66,-81.09 281.3,-87.21 283.23,-80.48"/>
</g>
<!-- Node10 -->
<g id="node10" class="node">
<title>Node10</title>
<g id="a_node10"><a xlink:title=" ">
<polygon fill="white" stroke="#bfbfbf" points="1546.5,-62 1546.5,-81 1629.5,-81 1629.5,-62 1546.5,-62"/>
<text text-anchor="middle" x="1588" y="-69" font-family="Helvetica,sans-Serif" font-size="10.00">CGAL/Timer.h</text>
</a>
</g>
</g>
<!-- Node9&#45;&gt;Node10 -->
<g id="edge9" class="edge">
<title>Node9&#45;&gt;Node10</title>
<path fill="none" stroke="midnightblue" d="M957.03,-132C1054.44,-131.39 1320.58,-125.98 1538,-87 1542.75,-86.15 1547.7,-85.02 1552.56,-83.77"/>
<polygon fill="midnightblue" stroke="midnightblue" points="1553.59,-87.11 1562.29,-81.07 1551.72,-80.37 1553.59,-87.11"/>
</g>
<!-- Node11 -->
<g id="node11" class="node">
<title>Node11</title>
<g id="a_node11"><a xlink:title=" ">
<polygon fill="white" stroke="#bfbfbf" points="1648,-62 1648,-81 1712,-81 1712,-62 1648,-62"/>
<text text-anchor="middle" x="1680" y="-69" font-family="Helvetica,sans-Serif" font-size="10.00">algorithm</text>
</a>
</g>
</g>
<!-- Node9&#45;&gt;Node11 -->
<g id="edge10" class="edge">
<title>Node9&#45;&gt;Node11</title>
<path fill="none" stroke="midnightblue" d="M957.43,-131C1086.95,-127.42 1506.77,-113.97 1639,-87 1642.51,-86.28 1646.13,-85.34 1649.69,-84.27"/>
<polygon fill="midnightblue" stroke="midnightblue" points="1651.07,-87.49 1659.46,-81.02 1648.87,-80.85 1651.07,-87.49"/>
</g>
<!-- Node12 -->
<g id="node12" class="node">
<title>Node12</title>
<g id="a_node12"><a xlink:title=" ">
<polygon fill="white" stroke="#bfbfbf" points="1730,-62 1730,-81 1782,-81 1782,-62 1730,-62"/>
<text text-anchor="middle" x="1756" y="-69" font-family="Helvetica,sans-Serif" font-size="10.00">cassert</text>
</a>
</g>
</g>
<!-- Node9&#45;&gt;Node12 -->
<g id="edge11" class="edge">
<title>Node9&#45;&gt;Node12</title>
<path fill="none" stroke="midnightblue" d="M957.45,-131.55C1096.52,-129.65 1572.98,-120.79 1721,-87 1723.67,-86.39 1726.4,-85.59 1729.1,-84.69"/>
<polygon fill="midnightblue" stroke="midnightblue" points="1730.48,-87.91 1738.58,-81.07 1727.98,-81.37 1730.48,-87.91"/>
</g>
<!-- Node13 -->
<g id="node13" class="node">
<title>Node13</title>
<g id="a_node13"><a xlink:title=" ">
<polygon fill="white" stroke="#bfbfbf" points="1800.5,-62 1800.5,-81 1849.5,-81 1849.5,-62 1800.5,-62"/>
<text text-anchor="middle" x="1825" y="-69" font-family="Helvetica,sans-Serif" font-size="10.00">cstdlib</text>
</a>
</g>
</g>
<!-- Node9&#45;&gt;Node13 -->
<g id="edge12" class="edge">
<title>Node9&#45;&gt;Node13</title>
<path fill="none" stroke="midnightblue" d="M957.24,-131.8C1103.71,-130.78 1628.91,-124.5 1791,-87 1793.52,-86.42 1796.08,-85.66 1798.62,-84.8"/>
<polygon fill="midnightblue" stroke="midnightblue" points="1800.06,-87.99 1808.1,-81.09 1797.51,-81.47 1800.06,-87.99"/>
</g>
<!-- Node14 -->
<g id="node14" class="node">
<title>Node14</title>
<g id="a_node14"><a xlink:title=" ">
<polygon fill="white" stroke="#bfbfbf" points="1868,-62 1868,-81 1936,-81 1936,-62 1868,-62"/>
<text text-anchor="middle" x="1902" y="-69" font-family="Helvetica,sans-Serif" font-size="10.00">filesystem</text>
</a>
</g>
</g>
<!-- Node9&#45;&gt;Node14 -->
<g id="edge13" class="edge">
<title>Node9&#45;&gt;Node14</title>
<path fill="none" stroke="midnightblue" d="M957.22,-131.58C1110.6,-129.68 1681.7,-120.46 1859,-87 1862.9,-86.26 1866.92,-85.26 1870.87,-84.12"/>
<polygon fill="midnightblue" stroke="midnightblue" points="1871.97,-87.44 1880.44,-81.07 1869.85,-80.77 1871.97,-87.44"/>
</g>
<!-- Node15 -->
<g id="node15" class="node">
<title>Node15</title>
<g id="a_node15"><a xlink:title=" ">
<polygon fill="white" stroke="#bfbfbf" points="1954.5,-62 1954.5,-81 2009.5,-81 2009.5,-62 1954.5,-62"/>
<text text-anchor="middle" x="1982" y="-69" font-family="Helvetica,sans-Serif" font-size="10.00">fstream</text>
</a>
</g>
</g>
<!-- Node9&#45;&gt;Node15 -->
<g id="edge14" class="edge">
<title>Node9&#45;&gt;Node15</title>
<path fill="none" stroke="midnightblue" d="M957.14,-132C1119.17,-131.75 1750.95,-128.09 1945,-87 1948.01,-86.36 1951.09,-85.51 1954.13,-84.53"/>
<polygon fill="midnightblue" stroke="midnightblue" points="1955.34,-87.81 1963.55,-81.11 1952.95,-81.24 1955.34,-87.81"/>
</g>
<!-- Node16 -->
<g id="node16" class="node">
<title>Node16</title>
<g id="a_node16"><a xlink:title=" ">
<polygon fill="white" stroke="#bfbfbf" points="305,-62 305,-81 353,-81 353,-62 305,-62"/>
<text text-anchor="middle" x="329" y="-69" font-family="Helvetica,sans-Serif" font-size="10.00">gsl/gsl</text>
</a>
</g>
</g>
<!-- Node9&#45;&gt;Node16 -->
<g id="edge15" class="edge">
<title>Node9&#45;&gt;Node16</title>
<path fill="none" stroke="midnightblue" d="M880.69,-130.56C771.57,-126.21 460.65,-111.91 362,-87 359.7,-86.42 357.35,-85.69 355.02,-84.87"/>
<polygon fill="midnightblue" stroke="midnightblue" points="356.33,-81.62 345.74,-81.14 353.72,-88.12 356.33,-81.62"/>
</g>
<!-- Node17 -->
<g id="node17" class="node">
<title>Node17</title>
<g id="a_node17"><a xlink:title=" ">
<polygon fill="white" stroke="#bfbfbf" points="371,-62 371,-81 431,-81 431,-62 371,-62"/>
<text text-anchor="middle" x="401" y="-69" font-family="Helvetica,sans-Serif" font-size="10.00">iostream</text>
</a>
</g>
</g>
<!-- Node9&#45;&gt;Node17 -->
<g id="edge16" class="edge">
<title>Node9&#45;&gt;Node17</title>
<path fill="none" stroke="midnightblue" d="M880.9,-131.79C799.09,-130.61 601.02,-123.82 440,-87 436.93,-86.3 433.77,-85.41 430.65,-84.43"/>
<polygon fill="midnightblue" stroke="midnightblue" points="431.53,-81.03 420.93,-81.06 429.23,-87.64 431.53,-81.03"/>
</g>
<!-- Node18 -->
<g id="node18" class="node">
<title>Node18</title>
<g id="a_node18"><a xlink:title=" ">
<polygon fill="white" stroke="#bfbfbf" points="449,-62 449,-81 497,-81 497,-62 449,-62"/>
<text text-anchor="middle" x="473" y="-69" font-family="Helvetica,sans-Serif" font-size="10.00">mutex</text>
</a>
</g>
</g>
<!-- Node9&#45;&gt;Node18 -->
<g id="edge17" class="edge">
<title>Node9&#45;&gt;Node18</title>
<path fill="none" stroke="midnightblue" d="M880.99,-131.7C807.36,-130.29 640.65,-123 506,-87 503.7,-86.39 501.36,-85.64 499.04,-84.8"/>
<polygon fill="midnightblue" stroke="midnightblue" points="500.35,-81.56 489.77,-81.05 497.72,-88.04 500.35,-81.56"/>
</g>
<!-- Node19 -->
<g id="node19" class="node">
<title>Node19</title>
<g id="a_node19"><a xlink:title=" ">
<polygon fill="white" stroke="#bfbfbf" points="515,-62 515,-81 569,-81 569,-62 515,-62"/>
<text text-anchor="middle" x="542" y="-69" font-family="Helvetica,sans-Serif" font-size="10.00">random</text>
</a>
</g>
</g>
<!-- Node9&#45;&gt;Node19 -->
<g id="edge18" class="edge">
<title>Node9&#45;&gt;Node19</title>
<path fill="none" stroke="midnightblue" d="M880.95,-129.97C817.48,-125.92 686.38,-114.71 579,-87 576.34,-86.31 573.6,-85.49 570.89,-84.58"/>
<polygon fill="midnightblue" stroke="midnightblue" points="571.89,-81.22 561.29,-81.08 569.49,-87.8 571.89,-81.22"/>
</g>
<!-- Node20 -->
<g id="node20" class="node">
<title>Node20</title>
<g id="a_node20"><a xlink:title=" ">
<polygon fill="white" stroke="#bfbfbf" points="587.5,-62 587.5,-81 652.5,-81 652.5,-62 587.5,-62"/>
<text text-anchor="middle" x="620" y="-69" font-family="Helvetica,sans-Serif" font-size="10.00">stdexcept</text>
</a>
</g>
</g>
<!-- Node9&#45;&gt;Node20 -->
<g id="edge20" class="edge">
<title>Node9&#45;&gt;Node20</title>
<path fill="none" stroke="midnightblue" d="M880.71,-127.23C830.14,-120.5 738.53,-106.78 662,-87 658.96,-86.21 655.83,-85.31 652.71,-84.35"/>
<polygon fill="midnightblue" stroke="midnightblue" points="653.5,-80.93 642.91,-81.15 651.32,-87.58 653.5,-80.93"/>
</g>
<!-- Node21 -->
<g id="node21" class="node">
<title>Node21</title>
<g id="a_node21"><a xlink:title=" ">
<polygon fill="white" stroke="#bfbfbf" points="671,-62 671,-81 715,-81 715,-62 671,-62"/>
<text text-anchor="middle" x="693" y="-69" font-family="Helvetica,sans-Serif" font-size="10.00">string</text>
</a>
</g>
</g>
<!-- Node9&#45;&gt;Node21 -->
<g id="edge21" class="edge">
<title>Node9&#45;&gt;Node21</title>
<path fill="none" stroke="midnightblue" d="M880.83,-125.46C841.25,-118.14 777.88,-104.92 725,-87 723.33,-86.43 721.63,-85.81 719.93,-85.15"/>
<polygon fill="midnightblue" stroke="midnightblue" points="720.93,-81.78 710.35,-81.11 718.21,-88.23 720.93,-81.78"/>
</g>
<!-- Node22 -->
<g id="node22" class="node">
<title>Node22</title>
<g id="a_node22"><a xlink:title=" ">
<polygon fill="white" stroke="#bfbfbf" points="733.5,-62 733.5,-81 798.5,-81 798.5,-62 733.5,-62"/>
<text text-anchor="middle" x="766" y="-69" font-family="Helvetica,sans-Serif" font-size="10.00">typeindex</text>
</a>
</g>
</g>
<!-- Node9&#45;&gt;Node22 -->
<g id="edge22" class="edge">
<title>Node9&#45;&gt;Node22</title>
<path fill="none" stroke="midnightblue" d="M897.08,-123.48C870.95,-113.31 827.09,-96.26 797.37,-84.7"/>
<polygon fill="midnightblue" stroke="midnightblue" points="798.47,-81.37 787.88,-81.01 795.93,-87.9 798.47,-81.37"/>
</g>
<!-- Node23 -->
<g id="node23" class="node">
<title>Node23</title>
<g id="a_node23"><a xlink:title=" ">
<polygon fill="white" stroke="#bfbfbf" points="816.5,-62 816.5,-81 875.5,-81 875.5,-62 816.5,-62"/>
<text text-anchor="middle" x="846" y="-69" font-family="Helvetica,sans-Serif" font-size="10.00">date/tz.h</text>
</a>
</g>
</g>
<!-- Node9&#45;&gt;Node23 -->
<g id="edge23" class="edge">
<title>Node9&#45;&gt;Node23</title>
<path fill="none" stroke="midnightblue" d="M908.54,-123.48C897.05,-114.11 878.37,-98.88 864.41,-87.51"/>
<polygon fill="midnightblue" stroke="midnightblue" points="866.4,-84.61 856.44,-81.01 861.98,-90.04 866.4,-84.61"/>
</g>
<!-- Node24 -->
<g id="node24" class="node">
<title>Node24</title>
<g id="a_node24"><a xlink:title=" ">
<polygon fill="white" stroke="#bfbfbf" points="894,-62 894,-81 944,-81 944,-62 894,-62"/>
<text text-anchor="middle" x="919" y="-69" font-family="Helvetica,sans-Serif" font-size="10.00">chrono</text>
</a>
</g>
</g>
<!-- Node9&#45;&gt;Node24 -->
<g id="edge24" class="edge">
<title>Node9&#45;&gt;Node24</title>
<path fill="none" stroke="midnightblue" d="M919,-123.48C919,-115.08 919,-101.98 919,-91.16"/>
<polygon fill="midnightblue" stroke="midnightblue" points="922.5,-91.01 919,-81.01 915.5,-91.01 922.5,-91.01"/>
</g>
<!-- Node25 -->
<g id="node25" class="node">
<title>Node25</title>
<g id="a_node25"><a xlink:title=" ">
<polygon fill="white" stroke="#bfbfbf" points="962,-62 962,-81 1060,-81 1060,-62 962,-62"/>
<text text-anchor="middle" x="1011" y="-69" font-family="Helvetica,sans-Serif" font-size="10.00">pcg_random.hpp</text>
</a>
</g>
</g>
<!-- Node9&#45;&gt;Node25 -->
<g id="edge25" class="edge">
<title>Node9&#45;&gt;Node25</title>
<path fill="none" stroke="midnightblue" d="M932.18,-123.48C947.07,-113.84 971.54,-98.02 989.27,-86.55"/>
<polygon fill="midnightblue" stroke="midnightblue" points="991.35,-89.38 997.84,-81.01 987.55,-83.5 991.35,-89.38"/>
</g>
<!-- Node26 -->
<g id="node26" class="node">
<title>Node26</title>
<g id="a_node26"><a xlink:title=" ">
<polygon fill="white" stroke="#bfbfbf" points="1078,-62 1078,-81 1164,-81 1164,-62 1078,-62"/>
<text text-anchor="middle" x="1121" y="-69" font-family="Helvetica,sans-Serif" font-size="10.00">fmt/ostream.h</text>
</a>
</g>
</g>
<!-- Node9&#45;&gt;Node26 -->
<g id="edge26" class="edge">
<title>Node9&#45;&gt;Node26</title>
<path fill="none" stroke="midnightblue" d="M947.94,-123.48C983.27,-113.07 1043.13,-95.44 1082.36,-83.88"/>
<polygon fill="midnightblue" stroke="midnightblue" points="1083.51,-87.19 1092.11,-81.01 1081.53,-80.48 1083.51,-87.19"/>
</g>
<!-- Node27 -->
<g id="node27" class="node">
<title>Node27</title>
<g id="a_node27"><a xlink:title=" ">
<polygon fill="white" stroke="#bfbfbf" points="1182,-56.5 1182,-86.5 1288,-86.5 1288,-56.5 1182,-56.5"/>
<text text-anchor="start" x="1190" y="-74.5" font-family="Helvetica,sans-Serif" font-size="10.00">spdlog/sinks/basic</text>
<text text-anchor="middle" x="1235" y="-63.5" font-family="Helvetica,sans-Serif" font-size="10.00">_file_sink.h</text>
</a>
</g>
</g>
<!-- Node9&#45;&gt;Node27 -->
<g id="edge27" class="edge">
<title>Node9&#45;&gt;Node27</title>
<path fill="none" stroke="midnightblue" d="M957.42,-125.86C1005.33,-118.06 1089.95,-103.8 1171.96,-87.15"/>
<polygon fill="midnightblue" stroke="midnightblue" points="1172.85,-90.54 1181.94,-85.11 1171.44,-83.68 1172.85,-90.54"/>
</g>
<!-- Node28 -->
<g id="node28" class="node">
<title>Node28</title>
<g id="a_node28"><a xlink:title=" ">
<polygon fill="white" stroke="#bfbfbf" points="1306.5,-56.5 1306.5,-86.5 1417.5,-86.5 1417.5,-56.5 1306.5,-56.5"/>
<text text-anchor="start" x="1314.5" y="-74.5" font-family="Helvetica,sans-Serif" font-size="10.00">spdlog/sinks/stdout</text>
<text text-anchor="middle" x="1362" y="-63.5" font-family="Helvetica,sans-Serif" font-size="10.00">_color_sinks.h</text>
</a>
</g>
</g>
<!-- Node9&#45;&gt;Node28 -->
<g id="edge28" class="edge">
<title>Node9&#45;&gt;Node28</title>
<path fill="none" stroke="midnightblue" d="M957.01,-128.76C1023.61,-122.79 1165.92,-108.82 1296.24,-87.01"/>
<polygon fill="midnightblue" stroke="midnightblue" points="1297.13,-90.41 1306.4,-85.29 1295.96,-83.51 1297.13,-90.41"/>
</g>
<!-- Node29 -->
<g id="node29" class="node">
<title>Node29</title>
<g id="a_node29"><a xlink:title=" ">
<polygon fill="white" stroke="#bfbfbf" points="1435.5,-62 1435.5,-81 1528.5,-81 1528.5,-62 1435.5,-62"/>
<text text-anchor="middle" x="1482" y="-69" font-family="Helvetica,sans-Serif" font-size="10.00">spdlog/spdlog.h</text>
</a>
</g>
</g>
<!-- Node9&#45;&gt;Node29 -->
<g id="edge29" class="edge">
<title>Node9&#45;&gt;Node29</title>
<path fill="none" stroke="midnightblue" d="M957.2,-130.82C1042.22,-127.73 1253.22,-117.38 1427,-87 1432.41,-86.05 1438.07,-84.83 1443.61,-83.51"/>
<polygon fill="midnightblue" stroke="midnightblue" points="1444.54,-86.88 1453.37,-81.03 1442.82,-80.09 1444.54,-86.88"/>
</g>
</g>
</svg>
