<?xml version="1.0" encoding="UTF-8" standalone="no"?>
<!DOCTYPE svg PUBLIC "-//W3C//DTD SVG 1.1//EN"
 "http://www.w3.org/Graphics/SVG/1.1/DTD/svg11.dtd">
<!-- Generated by graphviz version 2.40.1 (20161225.0304)
 -->
<!-- Title: include/Move_strategy.hpp Pages: 1 -->
<svg width="500pt" height="151pt"
 viewBox="0.00 0.00 499.50 151.00" xmlns="http://www.w3.org/2000/svg" xmlns:xlink="http://www.w3.org/1999/xlink">
<g id="graph0" class="graph" transform="scale(1 1) rotate(0) translate(4 147)">
<title>include/Move_strategy.hpp</title>
<polygon fill="#ffffff" stroke="transparent" points="-4,4 -4,-147 495.5,-147 495.5,4 -4,4"/>
<!-- Node43 -->
<g id="node1" class="node">
<title>Node43</title>
<polygon fill="#bfbfbf" stroke="#000000" points="134.5,-123.5 134.5,-142.5 280.5,-142.5 280.5,-123.5 134.5,-123.5"/>
<text text-anchor="middle" x="207.5" y="-130.5" font-family="Helvetica,sans-Serif" font-size="10.00" fill="#000000">include/Move_strategy.hpp</text>
</g>
<!-- Node44 -->
<g id="node2" class="node">
<title>Node44</title>
<g id="a_node2"><a xlink:href="_metropolis_8hpp.html" target="_top" xlink:title="Perform Metropolis&#45;Hastings algorithm on Delaunay Triangulations. ">
<polygon fill="#ffffff" stroke="#000000" points="68,-67.5 68,-86.5 195,-86.5 195,-67.5 68,-67.5"/>
<text text-anchor="middle" x="131.5" y="-74.5" font-family="Helvetica,sans-Serif" font-size="10.00" fill="#000000">include/Metropolis.hpp</text>
</a>
</g>
</g>
<!-- Node43&#45;&gt;Node44 -->
<g id="edge1" class="edge">
<title>Node43&#45;&gt;Node44</title>
<path fill="none" stroke="#191970" d="M186.0703,-117.2097C172.7223,-107.3743 155.9821,-95.0394 144.5865,-86.6427"/>
<polygon fill="#191970" stroke="#191970" points="184.135,-120.1312 194.2618,-123.2455 188.2874,-114.4958 184.135,-120.1312"/>
</g>
<!-- Node47 -->
<g id="node5" class="node">
<title>Node47</title>
<g id="a_node5"><a xlink:href="_move__always_8hpp.html" target="_top" xlink:title="Randomly selects moves to always perform on triangulations. ">
<polygon fill="#ffffff" stroke="#000000" points="213.5,-67.5 213.5,-86.5 355.5,-86.5 355.5,-67.5 213.5,-67.5"/>
<text text-anchor="middle" x="284.5" y="-74.5" font-family="Helvetica,sans-Serif" font-size="10.00" fill="#000000">include/Move_always.hpp</text>
</a>
</g>
</g>
<!-- Node43&#45;&gt;Node47 -->
<g id="edge4" class="edge">
<title>Node43&#45;&gt;Node47</title>
<path fill="none" stroke="#191970" d="M229.2116,-117.2097C242.7353,-107.3743 259.6958,-95.0394 271.2413,-86.6427"/>
<polygon fill="#191970" stroke="#191970" points="226.9411,-114.5332 220.9124,-123.2455 231.0584,-120.1944 226.9411,-114.5332"/>
</g>
<!-- Node45 -->
<g id="node3" class="node">
<title>Node45</title>
<g id="a_node3"><a xlink:href="cdt-opt_8cpp.html" target="_top" xlink:title="Outputs values to determine optimizations. ">
<polygon fill="#ffffff" stroke="#000000" points="0,-6 0,-25 89,-25 89,-6 0,-6"/>
<text text-anchor="middle" x="44.5" y="-13" font-family="Helvetica,sans-Serif" font-size="10.00" fill="#000000">src/cdt&#45;opt.cpp</text>
</a>
</g>
</g>
<!-- Node44&#45;&gt;Node45 -->
<g id="edge2" class="edge">
<title>Node44&#45;&gt;Node45</title>
<path fill="none" stroke="#191970" d="M109.5287,-61.4685C93.3101,-50.0037 71.7529,-34.765 57.9983,-25.0419"/>
<polygon fill="#191970" stroke="#191970" points="107.7201,-64.4763 117.9063,-67.3906 111.7608,-58.7602 107.7201,-64.4763"/>
</g>
<!-- Node46 -->
<g id="node4" class="node">
<title>Node46</title>
<g id="a_node4"><a xlink:href="cdt_8cpp.html" target="_top" xlink:title="The main executable. ">
<polygon fill="#ffffff" stroke="#000000" points="107,-6 107,-25 176,-25 176,-6 107,-6"/>
<text text-anchor="middle" x="141.5" y="-13" font-family="Helvetica,sans-Serif" font-size="10.00" fill="#000000">src/cdt.cpp</text>
</a>
</g>
</g>
<!-- Node44&#45;&gt;Node46 -->
<g id="edge3" class="edge">
<title>Node44&#45;&gt;Node46</title>
<path fill="none" stroke="#191970" d="M134.712,-57.2462C136.4509,-46.5519 138.5221,-33.814 139.9155,-25.2449"/>
<polygon fill="#191970" stroke="#191970" points="131.2129,-56.9585 133.0625,-67.3906 138.1221,-58.082 131.2129,-56.9585"/>
</g>
<!-- Node48 -->
<g id="node6" class="node">
<title>Node48</title>
<g id="a_node6"><a xlink:href="_move__strategies__test_8cpp.html" target="_top" xlink:title="Tests for the Metropolis&#45;Hastings algorithm. ">
<polygon fill="#ffffff" stroke="#000000" points="213.5,-.5 213.5,-30.5 337.5,-30.5 337.5,-.5 213.5,-.5"/>
<text text-anchor="start" x="221.5" y="-18.5" font-family="Helvetica,sans-Serif" font-size="10.00" fill="#000000">tests/Move_strategies</text>
<text text-anchor="middle" x="275.5" y="-7.5" font-family="Helvetica,sans-Serif" font-size="10.00" fill="#000000">_test.cpp</text>
</a>
</g>
</g>
<!-- Node47&#45;&gt;Node48 -->
<g id="edge5" class="edge">
<title>Node47&#45;&gt;Node48</title>
<path fill="none" stroke="#191970" d="M281.6272,-57.3693C280.3558,-48.681 278.884,-38.6241 277.7016,-30.5446"/>
<polygon fill="#191970" stroke="#191970" points="278.1826,-58.0028 283.0938,-67.3906 285.1088,-56.9892 278.1826,-58.0028"/>
</g>
<!-- Node49 -->
<g id="node7" class="node">
<title>Node49</title>
<g id="a_node7"><a xlink:href="_simulation_test_8cpp_source.html" target="_top" xlink:title="tests/SimulationTest.cpp">
<polygon fill="#ffffff" stroke="#000000" points="355.5,-6 355.5,-25 491.5,-25 491.5,-6 355.5,-6"/>
<text text-anchor="middle" x="423.5" y="-13" font-family="Helvetica,sans-Serif" font-size="10.00" fill="#000000">tests/SimulationTest.cpp</text>
</a>
</g>
</g>
<!-- Node47&#45;&gt;Node49 -->
<g id="edge6" class="edge">
<title>Node47&#45;&gt;Node49</title>
<path fill="none" stroke="#191970" d="M315.3675,-63.3428C341.6506,-51.7139 378.7372,-35.3051 401.9338,-25.0419"/>
<polygon fill="#191970" stroke="#191970" points="313.9475,-60.1437 306.2188,-67.3906 316.7798,-66.5452 313.9475,-60.1437"/>
</g>
</g>
</svg>
