<?xml version="1.0" encoding="UTF-8" standalone="no"?>
<!DOCTYPE svg PUBLIC "-//W3C//DTD SVG 1.1//EN"
 "http://www.w3.org/Graphics/SVG/1.1/DTD/svg11.dtd">
<!-- Generated by graphviz version 2.43.0 (0)
 -->
<!-- Title: tests/Move_command_test.cpp Pages: 1 -->
<!--zoomable 511 -->
<svg id="main" version="1.1" xmlns="http://www.w3.org/2000/svg" xmlns:xlink="http://www.w3.org/1999/xlink" xml:space="preserve" onload="init(evt)">
<style type="text/css"><![CDATA[
.edge:hover path { stroke: red; }
.edge:hover polygon { stroke: red; fill: red; }
]]></style>
<script type="text/javascript"><![CDATA[
var edges = document.getElementsByTagName('g');
if (edges && edges.length) {
  for (var i=0;i<edges.length;i++) {
    if (edges[i].id.substr(0,4)=='edge') {
      edges[i].setAttribute('class','edge');
    }
  }
}
]]></script>
        <defs>
                <circle id="rim" cx="0" cy="0" r="7"/>
                <circle id="rim2" cx="0" cy="0" r="3.5"/>
                <g id="zoomPlus">
                        <use xlink:href="#rim" fill="#404040">
                                <set attributeName="fill" to="#808080" begin="zoomplus.mouseover" end="zoomplus.mouseout"/>
                        </use>
                        <path d="M-4,0h8M0,-4v8" fill="none" stroke="white" stroke-width="1.5" pointer-events="none"/>
                </g>
                <g id="zoomMin">
                        <use xlink:href="#rim" fill="#404040">
                                <set attributeName="fill" to="#808080" begin="zoomminus.mouseover" end="zoomminus.mouseout"/>
                        </use>
                        <path d="M-4,0h8" fill="none" stroke="white" stroke-width="1.5" pointer-events="none"/>
                </g>
                <g id="dirArrow">
                        <path fill="none" stroke="white" stroke-width="1.5" d="M0,-3.0v7 M-2.5,-0.5L0,-3.0L2.5,-0.5"/>
                </g>
               <g id="resetDef">
                       <use xlink:href="#rim2" fill="#404040">
                               <set attributeName="fill" to="#808080" begin="reset.mouseover" end="reset.mouseout"/>
                       </use>
               </g>
        </defs>

<script type="text/javascript">
var viewWidth = 2042;
var viewHeight = 511;
var sectionId = 'dynsection-0';
</script>
<script xlink:href="svgpan.js"/>
<svg id="graph" class="graph">
<g id="viewport">
<title>tests/Move_command_test.cpp</title>
<!-- Node1 -->
<g id="node1" class="node">
<title>Node1</title>
<g id="a_node1"><a xlink:title="Tests of MoveCommand, that is, that moves are handled properly.">
<polygon fill="#999999" stroke="#666666" points="1375.5,-503 1250.5,-503 1250.5,-473 1375.5,-473 1375.5,-503"/>
<text text-anchor="start" x="1258.5" y="-491" font-family="Helvetica,sans-Serif" font-size="10.00">tests/Move_command</text>
<text text-anchor="middle" x="1313" y="-480" font-family="Helvetica,sans-Serif" font-size="10.00">_test.cpp</text>
</a>
</g>
</g>
<!-- Node2 -->
<g id="node2" class="node">
<title>Node2</title>
<g id="a_node2"><a xlink:href="_move__command_8hpp.html" target="_top" xlink:title="Do ergodic moves using the Command pattern.">
<polygon fill="white" stroke="#666666" points="567.5,-437 448.5,-437 448.5,-418 567.5,-418 567.5,-437"/>
<text text-anchor="middle" x="508" y="-425" font-family="Helvetica,sans-Serif" font-size="10.00">Move_command.hpp</text>
</a>
</g>
</g>
<!-- Node1&#45;&gt;Node2 -->
<g id="edge1" class="edge">
<title>Node1&#45;&gt;Node2</title>
<path fill="none" stroke="#63b8ff" d="M1250.17,-482.43C1102.23,-471.68 732.77,-444.83 577.97,-433.59"/>
<polygon fill="#63b8ff" stroke="#63b8ff" points="577.88,-430.07 567.65,-432.83 577.37,-437.05 577.88,-430.07"/>
</g>
<!-- Node9 -->
<g id="node9" class="node">
<title>Node9</title>
<g id="a_node9"><a xlink:title=" ">
<polygon fill="#e0e0e0" stroke="#999999" points="765.5,-156.5 720.5,-156.5 720.5,-137.5 765.5,-137.5 765.5,-156.5"/>
<text text-anchor="middle" x="743" y="-144.5" font-family="Helvetica,sans-Serif" font-size="10.00">utility</text>
</a>
</g>
</g>
<!-- Node1&#45;&gt;Node9 -->
<g id="edge66" class="edge">
<title>Node1&#45;&gt;Node9</title>
<path fill="none" stroke="#63b8ff" d="M1250.49,-486.21C1113.51,-482.8 799,-465 799,-373.5 799,-373.5 799,-373.5 799,-316.5 799,-287.04 790.85,-280.39 780,-253 773.41,-236.37 768.4,-233.7 762,-217 755.61,-200.34 750.41,-180.66 747.08,-166.59"/>
<polygon fill="#63b8ff" stroke="#63b8ff" points="750.45,-165.64 744.82,-156.67 743.63,-167.2 750.45,-165.64"/>
</g>
<!-- Node26 -->
<g id="node26" class="node">
<title>Node26</title>
<g id="a_node26"><a xlink:title=" ">
<polygon fill="#e0e0e0" stroke="#999999" points="996.5,-156.5 927.5,-156.5 927.5,-137.5 996.5,-137.5 996.5,-156.5"/>
<text text-anchor="middle" x="962" y="-144.5" font-family="Helvetica,sans-Serif" font-size="10.00">type_traits</text>
</a>
</g>
</g>
<!-- Node1&#45;&gt;Node26 -->
<g id="edge65" class="edge">
<title>Node1&#45;&gt;Node26</title>
<path fill="none" stroke="#63b8ff" d="M1294.26,-472.95C1283.06,-463.75 1269.26,-450.89 1260,-437 1243.27,-411.9 1236,-403.67 1236,-373.5 1236,-373.5 1236,-373.5 1236,-261.5 1236,-163.64 1084.97,-148.53 1007.17,-147.23"/>
<polygon fill="#63b8ff" stroke="#63b8ff" points="1006.73,-143.73 996.7,-147.14 1006.67,-150.73 1006.73,-143.73"/>
</g>
<!-- Node30 -->
<g id="node30" class="node">
<title>Node30</title>
<g id="a_node30"><a xlink:title=" ">
<polygon fill="#e0e0e0" stroke="#999999" points="1099,-85 1035,-85 1035,-66 1099,-66 1099,-85"/>
<text text-anchor="middle" x="1067" y="-73" font-family="Helvetica,sans-Serif" font-size="10.00">algorithm</text>
</a>
</g>
</g>
<!-- Node1&#45;&gt;Node30 -->
<g id="edge61" class="edge">
<title>Node1&#45;&gt;Node30</title>
<path fill="none" stroke="#63b8ff" d="M1306.64,-472.77C1302.38,-462.87 1296.87,-449.31 1293,-437 1259.97,-332.11 1295.2,-285.81 1229,-198 1191.66,-148.48 1128.85,-109.51 1093.41,-90.07"/>
<polygon fill="#63b8ff" stroke="#63b8ff" points="1094.65,-86.76 1084.18,-85.11 1091.33,-92.93 1094.65,-86.76"/>
</g>
<!-- Node48 -->
<g id="node43" class="node">
<title>Node48</title>
<g id="a_node43"><a xlink:title=" ">
<polygon fill="#e0e0e0" stroke="#999999" points="595,-272 553,-272 553,-253 595,-253 595,-272"/>
<text text-anchor="middle" x="574" y="-260" font-family="Helvetica,sans-Serif" font-size="10.00">array</text>
</a>
</g>
</g>
<!-- Node1&#45;&gt;Node48 -->
<g id="edge62" class="edge">
<title>Node1&#45;&gt;Node48</title>
<path fill="none" stroke="#63b8ff" d="M1250.09,-485.63C1128.88,-482.24 867.67,-471.11 785,-437 697.7,-400.98 618.55,-316.02 587.69,-280.05"/>
<polygon fill="#63b8ff" stroke="#63b8ff" points="590.03,-277.4 580.91,-272.02 584.69,-281.92 590.03,-277.4"/>
</g>
<!-- Node51 -->
<g id="node46" class="node">
<title>Node51</title>
<g id="a_node46"><a xlink:title=" ">
<polygon fill="#e0e0e0" stroke="#999999" points="1403.5,-437 1302.5,-437 1302.5,-418 1403.5,-418 1403.5,-437"/>
<text text-anchor="middle" x="1353" y="-425" font-family="Helvetica,sans-Serif" font-size="10.00">doctest/doctest.h</text>
</a>
</g>
</g>
<!-- Node1&#45;&gt;Node51 -->
<g id="edge59" class="edge">
<title>Node1&#45;&gt;Node51</title>
<path fill="none" stroke="#63b8ff" d="M1322.68,-472.84C1328.25,-464.69 1335.29,-454.4 1341.18,-445.78"/>
<polygon fill="#63b8ff" stroke="#63b8ff" points="1344.25,-447.5 1347.01,-437.27 1338.47,-443.55 1344.25,-447.5"/>
</g>
<!-- Node52 -->
<g id="node47" class="node">
<title>Node52</title>
<g id="a_node47"><a xlink:title=" ">
<polygon fill="#e0e0e0" stroke="#999999" points="1500.5,-437 1421.5,-437 1421.5,-418 1500.5,-418 1500.5,-437"/>
<text text-anchor="middle" x="1461" y="-425" font-family="Helvetica,sans-Serif" font-size="10.00">fmt/ranges.h</text>
</a>
</g>
</g>
<!-- Node1&#45;&gt;Node52 -->
<g id="edge60" class="edge">
<title>Node1&#45;&gt;Node52</title>
<path fill="none" stroke="#63b8ff" d="M1348.45,-472.99C1373.14,-463.23 1405.78,-450.33 1429.55,-440.93"/>
<polygon fill="#63b8ff" stroke="#63b8ff" points="1431.13,-444.07 1439.14,-437.14 1428.56,-437.56 1431.13,-444.07"/>
</g>
<!-- Node53 -->
<g id="node48" class="node">
<title>Node53</title>
<g id="a_node48"><a xlink:title=" ">
<polygon fill="#e0e0e0" stroke="#999999" points="1577.5,-437 1518.5,-437 1518.5,-418 1577.5,-418 1577.5,-437"/>
<text text-anchor="middle" x="1548" y="-425" font-family="Helvetica,sans-Serif" font-size="10.00">numbers</text>
</a>
</g>
</g>
<!-- Node1&#45;&gt;Node53 -->
<g id="edge63" class="edge">
<title>Node1&#45;&gt;Node53</title>
<path fill="none" stroke="#63b8ff" d="M1369.29,-472.99C1412.29,-462.28 1470.47,-447.8 1508.6,-438.31"/>
<polygon fill="#63b8ff" stroke="#63b8ff" points="1509.46,-441.7 1518.32,-435.89 1507.77,-434.91 1509.46,-441.7"/>
</g>
<!-- Node54 -->
<g id="node49" class="node">
<title>Node54</title>
<g id="a_node49"><a xlink:title=" ">
<polygon fill="#e0e0e0" stroke="#999999" points="1636.5,-437 1595.5,-437 1595.5,-418 1636.5,-418 1636.5,-437"/>
<text text-anchor="middle" x="1616" y="-425" font-family="Helvetica,sans-Serif" font-size="10.00">tuple</text>
</a>
</g>
</g>
<!-- Node1&#45;&gt;Node54 -->
<g id="edge64" class="edge">
<title>Node1&#45;&gt;Node54</title>
<path fill="none" stroke="#63b8ff" d="M1375.69,-477.48C1429.19,-468.91 1508.31,-455.22 1585.57,-437.15"/>
<polygon fill="#63b8ff" stroke="#63b8ff" points="1586.55,-440.51 1595.48,-434.8 1584.94,-433.7 1586.55,-440.51"/>
</g>
<!-- Node55 -->
<g id="node50" class="node">
<title>Node55</title>
<g id="a_node50"><a xlink:title=" ">
<polygon fill="#e0e0e0" stroke="#999999" points="1701.5,-437 1654.5,-437 1654.5,-418 1701.5,-418 1701.5,-437"/>
<text text-anchor="middle" x="1678" y="-425" font-family="Helvetica,sans-Serif" font-size="10.00">vector</text>
</a>
</g>
</g>
<!-- Node1&#45;&gt;Node55 -->
<g id="edge67" class="edge">
<title>Node1&#45;&gt;Node55</title>
<path fill="none" stroke="#63b8ff" d="M1375.66,-479.69C1440.7,-471.63 1545.52,-457.33 1644.44,-437.14"/>
<polygon fill="#63b8ff" stroke="#63b8ff" points="1645.22,-440.56 1654.3,-435.11 1643.8,-433.7 1645.22,-440.56"/>
</g>
<!-- Node3 -->
<g id="node3" class="node">
<title>Node3</title>
<g id="a_node3"><a xlink:href="_apply__move_8hpp.html" target="_top" xlink:title="Apply Pachner moves to foliated Delaunay triangulations.">
<polygon fill="white" stroke="#666666" points="241,-217 143,-217 143,-198 241,-198 241,-217"/>
<text text-anchor="middle" x="192" y="-205" font-family="Helvetica,sans-Serif" font-size="10.00">Apply_move.hpp</text>
</a>
</g>
</g>
<!-- Node2&#45;&gt;Node3 -->
<g id="edge2" class="edge">
<title>Node2&#45;&gt;Node3</title>
<path fill="none" stroke="#63b8ff" d="M488.86,-417.99C454.44,-402.3 380.41,-366.73 324,-327 278.08,-294.66 230.59,-248.25 207.08,-224.24"/>
<polygon fill="#63b8ff" stroke="#63b8ff" points="209.53,-221.74 200.06,-217.01 204.51,-226.62 209.53,-221.74"/>
</g>
<!-- Node10 -->
<g id="node10" class="node">
<title>Node10</title>
<g id="a_node10"><a xlink:href="_ergodic__moves__3_8hpp.html" target="_top" xlink:title="Pachner moves on 2+1 dimensional foliated Delaunay triangulations.">
<polygon fill="white" stroke="#666666" points="569.5,-382 446.5,-382 446.5,-363 569.5,-363 569.5,-382"/>
<text text-anchor="middle" x="508" y="-370" font-family="Helvetica,sans-Serif" font-size="10.00">Ergodic_moves_3.hpp</text>
</a>
</g>
</g>
<!-- Node2&#45;&gt;Node10 -->
<g id="edge9" class="edge">
<title>Node2&#45;&gt;Node10</title>
<path fill="none" stroke="#63b8ff" d="M508,-417.75C508,-410.8 508,-400.85 508,-392.13"/>
<polygon fill="#63b8ff" stroke="#63b8ff" points="511.5,-392.09 508,-382.09 504.5,-392.09 511.5,-392.09"/>
</g>
<!-- Node4 -->
<g id="node4" class="node">
<title>Node4</title>
<g id="a_node4"><a xlink:title=" ">
<polygon fill="#e0e0e0" stroke="#999999" points="138.5,-85 45.5,-85 45.5,-66 138.5,-66 138.5,-85"/>
<text text-anchor="middle" x="92" y="-73" font-family="Helvetica,sans-Serif" font-size="10.00">spdlog/spdlog.h</text>
</a>
</g>
</g>
<!-- Node3&#45;&gt;Node4 -->
<g id="edge3" class="edge">
<title>Node3&#45;&gt;Node4</title>
<path fill="none" stroke="#63b8ff" d="M185.35,-197.77C174.73,-183.84 153.28,-155.74 135,-132 124.91,-118.89 113.43,-104.08 104.87,-93.06"/>
<polygon fill="#63b8ff" stroke="#63b8ff" points="107.62,-90.89 98.72,-85.14 102.09,-95.18 107.62,-90.89"/>
</g>
<!-- Node5 -->
<g id="node5" class="node">
<title>Node5</title>
<g id="a_node5"><a xlink:title=" ">
<polygon fill="#e0e0e0" stroke="#999999" points="126,-162 0,-162 0,-132 126,-132 126,-162"/>
<text text-anchor="start" x="8" y="-150" font-family="Helvetica,sans-Serif" font-size="10.00">boost/compat/function</text>
<text text-anchor="middle" x="63" y="-139" font-family="Helvetica,sans-Serif" font-size="10.00">_ref.hpp</text>
</a>
</g>
</g>
<!-- Node3&#45;&gt;Node5 -->
<g id="edge4" class="edge">
<title>Node3&#45;&gt;Node5</title>
<path fill="none" stroke="#63b8ff" d="M173.24,-197.99C155.06,-189.75 126.9,-176.98 103.58,-166.4"/>
<polygon fill="#63b8ff" stroke="#63b8ff" points="104.82,-163.12 94.26,-162.18 101.93,-169.5 104.82,-163.12"/>
</g>
<!-- Node6 -->
<g id="node6" class="node">
<title>Node6</title>
<g id="a_node6"><a xlink:title=" ">
<polygon fill="#e0e0e0" stroke="#999999" points="291,-156.5 229,-156.5 229,-137.5 291,-137.5 291,-156.5"/>
<text text-anchor="middle" x="260" y="-144.5" font-family="Helvetica,sans-Serif" font-size="10.00">expected</text>
</a>
</g>
</g>
<!-- Node3&#45;&gt;Node6 -->
<g id="edge5" class="edge">
<title>Node3&#45;&gt;Node6</title>
<path fill="none" stroke="#63b8ff" d="M202.03,-197.87C212.58,-188.8 229.39,-174.34 242.19,-163.32"/>
<polygon fill="#63b8ff" stroke="#63b8ff" points="244.63,-165.84 249.93,-156.67 240.06,-160.54 244.63,-165.84"/>
</g>
<!-- Node7 -->
<g id="node7" class="node">
<title>Node7</title>
<g id="a_node7"><a xlink:title=" ">
<polygon fill="#e0e0e0" stroke="#999999" points="494.5,-156.5 429.5,-156.5 429.5,-137.5 494.5,-137.5 494.5,-156.5"/>
<text text-anchor="middle" x="462" y="-144.5" font-family="Helvetica,sans-Serif" font-size="10.00">functional</text>
</a>
</g>
</g>
<!-- Node3&#45;&gt;Node7 -->
<g id="edge6" class="edge">
<title>Node3&#45;&gt;Node7</title>
<path fill="none" stroke="#63b8ff" d="M231.26,-197.99C281.44,-187.12 368,-168.37 419.63,-157.18"/>
<polygon fill="#63b8ff" stroke="#63b8ff" points="420.44,-160.59 429.47,-155.05 418.96,-153.74 420.44,-160.59"/>
</g>
<!-- Node8 -->
<g id="node8" class="node">
<title>Node8</title>
<g id="a_node8"><a xlink:title=" ">
<polygon fill="#e0e0e0" stroke="#999999" points="201,-85 157,-85 157,-66 201,-66 201,-85"/>
<text text-anchor="middle" x="179" y="-73" font-family="Helvetica,sans-Serif" font-size="10.00">string</text>
</a>
</g>
</g>
<!-- Node3&#45;&gt;Node8 -->
<g id="edge7" class="edge">
<title>Node3&#45;&gt;Node8</title>
<path fill="none" stroke="#63b8ff" d="M191.15,-197.97C189.08,-177.32 183.77,-124.22 180.9,-95.54"/>
<polygon fill="#63b8ff" stroke="#63b8ff" points="184.35,-94.83 179.87,-85.23 177.39,-95.53 184.35,-94.83"/>
</g>
<!-- Node3&#45;&gt;Node9 -->
<g id="edge8" class="edge">
<title>Node3&#45;&gt;Node9</title>
<path fill="none" stroke="#63b8ff" d="M241.38,-201.26C352.04,-189.51 617.42,-161.33 710.26,-151.48"/>
<polygon fill="#63b8ff" stroke="#63b8ff" points="710.88,-154.93 720.46,-150.39 710.14,-147.97 710.88,-154.93"/>
</g>
<!-- Node10&#45;&gt;Node6 -->
<g id="edge10" class="edge">
<title>Node10&#45;&gt;Node6</title>
<path fill="none" stroke="#63b8ff" d="M460.48,-362.93C409.99,-351.29 331.58,-325.44 288,-272 263.09,-241.46 259.31,-193.19 259.3,-166.79"/>
<polygon fill="#63b8ff" stroke="#63b8ff" points="262.8,-166.69 259.49,-156.63 255.8,-166.56 262.8,-166.69"/>
</g>
<!-- Node11 -->
<g id="node11" class="node">
<title>Node11</title>
<g id="a_node11"><a xlink:href="_formatters_8hpp.html" target="_top" xlink:title="Formatter specializations for various types.">
<polygon fill="white" stroke="#666666" points="1122.5,-327 1031.5,-327 1031.5,-308 1122.5,-308 1122.5,-327"/>
<text text-anchor="middle" x="1077" y="-315" font-family="Helvetica,sans-Serif" font-size="10.00">Formatters.hpp</text>
</a>
</g>
</g>
<!-- Node10&#45;&gt;Node11 -->
<g id="edge11" class="edge">
<title>Node10&#45;&gt;Node11</title>
<path fill="none" stroke="#63b8ff" d="M569.7,-365.75C681.08,-355.38 914.03,-333.68 1021.05,-323.71"/>
<polygon fill="#63b8ff" stroke="#63b8ff" points="1021.68,-327.17 1031.32,-322.76 1021.03,-320.2 1021.68,-327.17"/>
</g>
<!-- Node24 -->
<g id="node24" class="node">
<title>Node24</title>
<g id="a_node24"><a xlink:href="_manifold_8hpp.html" target="_top" xlink:title="Data structures for manifolds.">
<polygon fill="white" stroke="#666666" points="768,-327 688,-327 688,-308 768,-308 768,-327"/>
<text text-anchor="middle" x="728" y="-315" font-family="Helvetica,sans-Serif" font-size="10.00">Manifold.hpp</text>
</a>
</g>
</g>
<!-- Node10&#45;&gt;Node24 -->
<g id="edge24" class="edge">
<title>Node10&#45;&gt;Node24</title>
<path fill="none" stroke="#63b8ff" d="M543.35,-362.98C581.16,-353.87 641.26,-339.4 682.57,-329.45"/>
<polygon fill="#63b8ff" stroke="#63b8ff" points="683.47,-332.83 692.38,-327.08 681.83,-326.02 683.47,-332.83"/>
</g>
<!-- Node47 -->
<g id="node42" class="node">
<title>Node47</title>
<g id="a_node42"><a xlink:href="_move__tracker_8hpp.html" target="_top" xlink:title="Track ergodic moves.">
<polygon fill="white" stroke="#666666" points="548.5,-327 445.5,-327 445.5,-308 548.5,-308 548.5,-327"/>
<text text-anchor="middle" x="497" y="-315" font-family="Helvetica,sans-Serif" font-size="10.00">Move_tracker.hpp</text>
</a>
</g>
</g>
<!-- Node10&#45;&gt;Node47 -->
<g id="edge51" class="edge">
<title>Node10&#45;&gt;Node47</title>
<path fill="none" stroke="#63b8ff" d="M506.18,-362.75C504.74,-355.8 502.68,-345.85 500.87,-337.13"/>
<polygon fill="#63b8ff" stroke="#63b8ff" points="504.24,-336.17 498.78,-327.09 497.39,-337.59 504.24,-336.17"/>
</g>
<!-- Node12 -->
<g id="node12" class="node">
<title>Node12</title>
<g id="a_node12"><a xlink:title=" ">
<polygon fill="#e0e0e0" stroke="#999999" points="1110.5,-272 1043.5,-272 1043.5,-253 1110.5,-253 1110.5,-272"/>
<text text-anchor="middle" x="1077" y="-260" font-family="Helvetica,sans-Serif" font-size="10.00">fmt/core.h</text>
</a>
</g>
</g>
<!-- Node11&#45;&gt;Node12 -->
<g id="edge12" class="edge">
<title>Node11&#45;&gt;Node12</title>
<path fill="none" stroke="#63b8ff" d="M1077,-307.75C1077,-300.8 1077,-290.85 1077,-282.13"/>
<polygon fill="#63b8ff" stroke="#63b8ff" points="1080.5,-282.09 1077,-272.09 1073.5,-282.09 1080.5,-282.09"/>
</g>
<!-- Node13 -->
<g id="node13" class="node">
<title>Node13</title>
<g id="a_node13"><a xlink:title=" ">
<polygon fill="#e0e0e0" stroke="#999999" points="1207.5,-272 1128.5,-272 1128.5,-253 1207.5,-253 1207.5,-272"/>
<text text-anchor="middle" x="1168" y="-260" font-family="Helvetica,sans-Serif" font-size="10.00">fmt/format.h</text>
</a>
</g>
</g>
<!-- Node11&#45;&gt;Node13 -->
<g id="edge13" class="edge">
<title>Node11&#45;&gt;Node13</title>
<path fill="none" stroke="#63b8ff" d="M1091.62,-307.98C1105.86,-299.69 1127.75,-286.94 1144.45,-277.22"/>
<polygon fill="#63b8ff" stroke="#63b8ff" points="1146.23,-280.23 1153.11,-272.17 1142.71,-274.18 1146.23,-280.23"/>
</g>
<!-- Node14 -->
<g id="node14" class="node">
<title>Node14</title>
<g id="a_node14"><a xlink:title=" ">
<polygon fill="#e0e0e0" stroke="#999999" points="1025,-272 969,-272 969,-253 1025,-253 1025,-272"/>
<text text-anchor="middle" x="997" y="-260" font-family="Helvetica,sans-Serif" font-size="10.00">sstream</text>
</a>
</g>
</g>
<!-- Node11&#45;&gt;Node14 -->
<g id="edge14" class="edge">
<title>Node11&#45;&gt;Node14</title>
<path fill="none" stroke="#63b8ff" d="M1064.15,-307.98C1051.86,-299.84 1033.09,-287.41 1018.52,-277.76"/>
<polygon fill="#63b8ff" stroke="#63b8ff" points="1020.36,-274.78 1010.09,-272.17 1016.49,-280.61 1020.36,-274.78"/>
</g>
<!-- Node15 -->
<g id="node15" class="node">
<title>Node15</title>
<g id="a_node15"><a xlink:href="_triangulation__traits_8hpp.html" target="_top" xlink:title="Traits class for particular uses of CGAL.">
<polygon fill="white" stroke="#666666" points="1497.5,-156.5 1366.5,-156.5 1366.5,-137.5 1497.5,-137.5 1497.5,-156.5"/>
<text text-anchor="middle" x="1432" y="-144.5" font-family="Helvetica,sans-Serif" font-size="10.00">Triangulation_traits.hpp</text>
</a>
</g>
</g>
<!-- Node11&#45;&gt;Node15 -->
<g id="edge15" class="edge">
<title>Node11&#45;&gt;Node15</title>
<path fill="none" stroke="#63b8ff" d="M1110.3,-307.98C1138.92,-300.15 1180.99,-287.44 1216,-272 1290.76,-239.02 1372.86,-187.15 1410.71,-162.26"/>
<polygon fill="#63b8ff" stroke="#63b8ff" points="1412.95,-164.98 1419.35,-156.54 1409.08,-159.14 1412.95,-164.98"/>
</g>
<!-- Node16 -->
<g id="node16" class="node">
<title>Node16</title>
<g id="a_node16"><a xlink:title=" ">
<polygon fill="#e0e0e0" stroke="#999999" points="1719,-85 1539,-85 1539,-66 1719,-66 1719,-85"/>
<text text-anchor="middle" x="1629" y="-73" font-family="Helvetica,sans-Serif" font-size="10.00">CGAL/Delaunay_triangulation_3.h</text>
</a>
</g>
</g>
<!-- Node15&#45;&gt;Node16 -->
<g id="edge16" class="edge">
<title>Node15&#45;&gt;Node16</title>
<path fill="none" stroke="#63b8ff" d="M1456.16,-137.48C1491.01,-125.18 1555.56,-102.41 1595.15,-88.44"/>
<polygon fill="#63b8ff" stroke="#63b8ff" points="1596.38,-91.72 1604.65,-85.09 1594.05,-85.12 1596.38,-91.72"/>
</g>
<!-- Node17 -->
<g id="node17" class="node">
<title>Node17</title>
<g id="a_node17"><a xlink:title=" ">
<polygon fill="#e0e0e0" stroke="#999999" points="1866.5,-96 1737.5,-96 1737.5,-55 1866.5,-55 1866.5,-96"/>
<text text-anchor="start" x="1745.5" y="-84" font-family="Helvetica,sans-Serif" font-size="10.00">CGAL/Exact_predicates</text>
<text text-anchor="start" x="1745.5" y="-73" font-family="Helvetica,sans-Serif" font-size="10.00">_inexact_constructions</text>
<text text-anchor="middle" x="1802" y="-62" font-family="Helvetica,sans-Serif" font-size="10.00">_kernel.h</text>
</a>
</g>
</g>
<!-- Node15&#45;&gt;Node17 -->
<g id="edge17" class="edge">
<title>Node15&#45;&gt;Node17</title>
<path fill="none" stroke="#63b8ff" d="M1492.11,-137.47C1549.97,-128.9 1640.07,-114.59 1727.31,-96.06"/>
<polygon fill="#63b8ff" stroke="#63b8ff" points="1728.06,-99.47 1737.11,-93.95 1726.6,-92.63 1728.06,-99.47"/>
</g>
<!-- Node18 -->
<g id="node18" class="node">
<title>Node18</title>
<g id="a_node18"><a xlink:title=" ">
<polygon fill="#e0e0e0" stroke="#999999" points="2033.5,-85 1884.5,-85 1884.5,-66 2033.5,-66 2033.5,-85"/>
<text text-anchor="middle" x="1959" y="-73" font-family="Helvetica,sans-Serif" font-size="10.00">CGAL/point_generators_3.h</text>
</a>
</g>
</g>
<!-- Node15&#45;&gt;Node18 -->
<g id="edge18" class="edge">
<title>Node15&#45;&gt;Node18</title>
<path fill="none" stroke="#63b8ff" d="M1497.79,-141.05C1584.78,-133.94 1742.62,-119.09 1876,-96 1889.23,-93.71 1903.52,-90.59 1916.44,-87.52"/>
<polygon fill="#63b8ff" stroke="#63b8ff" points="1917.57,-90.85 1926.46,-85.09 1915.92,-84.05 1917.57,-90.85"/>
</g>
<!-- Node19 -->
<g id="node19" class="node">
<title>Node19</title>
<g id="a_node19"><a xlink:title=" ">
<polygon fill="#e0e0e0" stroke="#999999" points="1351,-90.5 1213,-90.5 1213,-60.5 1351,-60.5 1351,-90.5"/>
<text text-anchor="start" x="1221" y="-78.5" font-family="Helvetica,sans-Serif" font-size="10.00">CGAL/Triangulation</text>
<text text-anchor="middle" x="1282" y="-67.5" font-family="Helvetica,sans-Serif" font-size="10.00">_cell_base_with_info_3.h</text>
</a>
</g>
</g>
<!-- Node15&#45;&gt;Node19 -->
<g id="edge19" class="edge">
<title>Node15&#45;&gt;Node19</title>
<path fill="none" stroke="#63b8ff" d="M1413.61,-137.48C1390.81,-126.91 1351.32,-108.62 1321.53,-94.81"/>
<polygon fill="#63b8ff" stroke="#63b8ff" points="1322.78,-91.54 1312.23,-90.51 1319.83,-97.89 1322.78,-91.54"/>
</g>
<!-- Node20 -->
<g id="node20" class="node">
<title>Node20</title>
<g id="a_node20"><a xlink:title=" ">
<polygon fill="#e0e0e0" stroke="#999999" points="1521,-90.5 1369,-90.5 1369,-60.5 1521,-60.5 1521,-90.5"/>
<text text-anchor="start" x="1377" y="-78.5" font-family="Helvetica,sans-Serif" font-size="10.00">CGAL/Triangulation</text>
<text text-anchor="middle" x="1445" y="-67.5" font-family="Helvetica,sans-Serif" font-size="10.00">_vertex_base_with_info_3.h</text>
</a>
</g>
</g>
<!-- Node15&#45;&gt;Node20 -->
<g id="edge20" class="edge">
<title>Node15&#45;&gt;Node20</title>
<path fill="none" stroke="#63b8ff" d="M1433.59,-137.48C1435.3,-128.36 1438.08,-113.48 1440.47,-100.7"/>
<polygon fill="#63b8ff" stroke="#63b8ff" points="1443.96,-101.11 1442.36,-90.64 1437.08,-99.82 1443.96,-101.11"/>
</g>
<!-- Node21 -->
<g id="node21" class="node">
<title>Node21</title>
<g id="a_node21"><a xlink:href="_settings_8hpp.html" target="_top" xlink:title="Global integer and precision settings.">
<polygon fill="white" stroke="#666666" points="1194.5,-85 1117.5,-85 1117.5,-66 1194.5,-66 1194.5,-85"/>
<text text-anchor="middle" x="1156" y="-73" font-family="Helvetica,sans-Serif" font-size="10.00">Settings.hpp</text>
</a>
</g>
</g>
<!-- Node15&#45;&gt;Node21 -->
<g id="edge21" class="edge">
<title>Node15&#45;&gt;Node21</title>
<path fill="none" stroke="#63b8ff" d="M1381.55,-137.49C1334.92,-129.02 1263.99,-114.62 1204,-96 1197.57,-94.01 1190.8,-91.51 1184.44,-88.98"/>
<polygon fill="#63b8ff" stroke="#63b8ff" points="1185.46,-85.62 1174.88,-85.04 1182.79,-92.09 1185.46,-85.62"/>
</g>
<!-- Node22 -->
<g id="node22" class="node">
<title>Node22</title>
<g id="a_node22"><a xlink:title=" ">
<polygon fill="#e0e0e0" stroke="#999999" points="1169,-19 1029,-19 1029,0 1169,0 1169,-19"/>
<text text-anchor="middle" x="1099" y="-7" font-family="Helvetica,sans-Serif" font-size="10.00">CGAL/GMP/Gmpzf_type.h</text>
</a>
</g>
</g>
<!-- Node21&#45;&gt;Node22 -->
<g id="edge22" class="edge">
<title>Node21&#45;&gt;Node22</title>
<path fill="none" stroke="#63b8ff" d="M1148.31,-65.87C1139.52,-56 1124.93,-39.61 1113.89,-27.22"/>
<polygon fill="#63b8ff" stroke="#63b8ff" points="1116.2,-24.55 1106.93,-19.41 1110.97,-29.2 1116.2,-24.55"/>
</g>
<!-- Node23 -->
<g id="node23" class="node">
<title>Node23</title>
<g id="a_node23"><a xlink:title=" ">
<polygon fill="#e0e0e0" stroke="#999999" points="1237,-19 1187,-19 1187,0 1237,0 1237,-19"/>
<text text-anchor="middle" x="1212" y="-7" font-family="Helvetica,sans-Serif" font-size="10.00">cstdint</text>
</a>
</g>
</g>
<!-- Node21&#45;&gt;Node23 -->
<g id="edge23" class="edge">
<title>Node21&#45;&gt;Node23</title>
<path fill="none" stroke="#63b8ff" d="M1163.55,-65.87C1172.19,-56 1186.53,-39.61 1197.37,-27.22"/>
<polygon fill="#63b8ff" stroke="#63b8ff" points="1200.26,-29.24 1204.21,-19.41 1194.99,-24.63 1200.26,-29.24"/>
</g>
<!-- Node25 -->
<g id="node25" class="node">
<title>Node25</title>
<g id="a_node25"><a xlink:title=" ">
<polygon fill="#e0e0e0" stroke="#999999" points="666.5,-272 613.5,-272 613.5,-253 666.5,-253 666.5,-272"/>
<text text-anchor="middle" x="640" y="-260" font-family="Helvetica,sans-Serif" font-size="10.00">cstddef</text>
</a>
</g>
</g>
<!-- Node24&#45;&gt;Node25 -->
<g id="edge25" class="edge">
<title>Node24&#45;&gt;Node25</title>
<path fill="none" stroke="#63b8ff" d="M713.86,-307.98C700.21,-299.77 679.31,-287.18 663.22,-277.49"/>
<polygon fill="#63b8ff" stroke="#63b8ff" points="664.77,-274.33 654.4,-272.17 661.16,-280.33 664.77,-274.33"/>
</g>
<!-- Node24&#45;&gt;Node26 -->
<g id="edge26" class="edge">
<title>Node24&#45;&gt;Node26</title>
<path fill="none" stroke="#63b8ff" d="M768.06,-311.55C817.56,-304.72 898.05,-291.06 921,-272 952.6,-245.76 960.01,-194.58 961.64,-166.88"/>
<polygon fill="#63b8ff" stroke="#63b8ff" points="965.15,-166.72 962.04,-156.59 958.15,-166.45 965.15,-166.72"/>
</g>
<!-- Node27 -->
<g id="node27" class="node">
<title>Node27</title>
<g id="a_node27"><a xlink:title=" ">
<polygon fill="#e0e0e0" stroke="#999999" points="771,-272 685,-272 685,-253 771,-253 771,-272"/>
<text text-anchor="middle" x="728" y="-260" font-family="Helvetica,sans-Serif" font-size="10.00">unordered_set</text>
</a>
</g>
</g>
<!-- Node24&#45;&gt;Node27 -->
<g id="edge27" class="edge">
<title>Node24&#45;&gt;Node27</title>
<path fill="none" stroke="#63b8ff" d="M728,-307.75C728,-300.8 728,-290.85 728,-282.13"/>
<polygon fill="#63b8ff" stroke="#63b8ff" points="731.5,-282.09 728,-272.09 724.5,-282.09 731.5,-282.09"/>
</g>
<!-- Node28 -->
<g id="node28" class="node">
<title>Node28</title>
<g id="a_node28"><a xlink:href="_geometry_8hpp.html" target="_top" xlink:title="Geometric scalars of the Manifold used to calculate the Regge action.">
<polygon fill="white" stroke="#666666" points="912.5,-272 827.5,-272 827.5,-253 912.5,-253 912.5,-272"/>
<text text-anchor="middle" x="870" y="-260" font-family="Helvetica,sans-Serif" font-size="10.00">Geometry.hpp</text>
</a>
</g>
</g>
<!-- Node24&#45;&gt;Node28 -->
<g id="edge28" class="edge">
<title>Node24&#45;&gt;Node28</title>
<path fill="none" stroke="#63b8ff" d="M750.81,-307.98C774.17,-299.27 810.7,-285.63 837.17,-275.75"/>
<polygon fill="#63b8ff" stroke="#63b8ff" points="838.63,-278.95 846.77,-272.17 836.18,-272.39 838.63,-278.95"/>
</g>
<!-- Node28&#45;&gt;Node26 -->
<g id="edge29" class="edge">
<title>Node28&#45;&gt;Node26</title>
<path fill="none" stroke="#63b8ff" d="M883.2,-252.79C894.94,-244.58 912.06,-231.4 924,-217 936.93,-201.42 947.61,-180.78 954.32,-166.14"/>
<polygon fill="#63b8ff" stroke="#63b8ff" points="957.65,-167.27 958.49,-156.71 951.25,-164.45 957.65,-167.27"/>
</g>
<!-- Node29 -->
<g id="node29" class="node">
<title>Node29</title>
<g id="a_node29"><a xlink:href="_foliated__triangulation_8hpp.html" target="_top" xlink:title="Create foliated spherical triangulations.">
<polygon fill="#fff0f0" stroke="red" points="915,-217 771,-217 771,-198 915,-198 915,-217"/>
<text text-anchor="middle" x="843" y="-205" font-family="Helvetica,sans-Serif" font-size="10.00">Foliated_triangulation.hpp</text>
</a>
</g>
</g>
<!-- Node28&#45;&gt;Node29 -->
<g id="edge30" class="edge">
<title>Node28&#45;&gt;Node29</title>
<path fill="none" stroke="#63b8ff" d="M865.54,-252.75C861.88,-245.57 856.59,-235.18 852.05,-226.27"/>
<polygon fill="#63b8ff" stroke="#63b8ff" points="855.03,-224.41 847.38,-217.09 848.8,-227.59 855.03,-224.41"/>
</g>
<!-- Node29&#45;&gt;Node7 -->
<g id="edge32" class="edge">
<title>Node29&#45;&gt;Node7</title>
<path fill="none" stroke="#63b8ff" d="M770.87,-201.06C701.75,-194.9 594.82,-182.9 504,-162 500.95,-161.3 497.81,-160.47 494.69,-159.56"/>
<polygon fill="#63b8ff" stroke="#63b8ff" points="495.47,-156.14 484.88,-156.51 493.39,-162.82 495.47,-156.14"/>
</g>
<!-- Node29&#45;&gt;Node9 -->
<g id="edge34" class="edge">
<title>Node29&#45;&gt;Node9</title>
<path fill="none" stroke="#63b8ff" d="M828.24,-197.87C812,-188.36 785.65,-172.95 766.54,-161.77"/>
<polygon fill="#63b8ff" stroke="#63b8ff" points="768.21,-158.7 757.82,-156.67 764.68,-164.74 768.21,-158.7"/>
</g>
<!-- Node29&#45;&gt;Node15 -->
<g id="edge35" class="edge">
<title>Node29&#45;&gt;Node15</title>
<path fill="none" stroke="#63b8ff" d="M915.22,-199.33C1027.34,-188.19 1242.22,-166.85 1356.38,-155.51"/>
<polygon fill="#63b8ff" stroke="#63b8ff" points="1356.83,-158.98 1366.43,-154.51 1356.14,-152.02 1356.83,-158.98"/>
</g>
<!-- Node29&#45;&gt;Node26 -->
<g id="edge33" class="edge">
<title>Node29&#45;&gt;Node26</title>
<path fill="none" stroke="#63b8ff" d="M860.3,-197.99C880.05,-188.29 912.55,-172.31 935.49,-161.03"/>
<polygon fill="#63b8ff" stroke="#63b8ff" points="937.25,-164.07 944.68,-156.52 934.16,-157.79 937.25,-164.07"/>
</g>
<!-- Node29&#45;&gt;Node30 -->
<g id="edge31" class="edge">
<title>Node29&#45;&gt;Node30</title>
<path fill="none" stroke="#63b8ff" d="M849.46,-197.84C861.38,-182.46 888.31,-150.28 918,-132 961.08,-105.47 979.07,-114.9 1026,-96 1030.9,-94.03 1036.05,-91.75 1040.97,-89.46"/>
<polygon fill="#63b8ff" stroke="#63b8ff" points="1042.53,-92.6 1050.05,-85.13 1039.52,-86.28 1042.53,-92.6"/>
</g>
<!-- Node34 -->
<g id="node31" class="node">
<title>Node34</title>
<g id="a_node31"><a xlink:href="_utilities_8hpp.html" target="_top" xlink:title="Utility functions.">
<polygon fill="#fff0f0" stroke="red" points="589,-156.5 513,-156.5 513,-137.5 589,-137.5 589,-156.5"/>
<text text-anchor="middle" x="551" y="-144.5" font-family="Helvetica,sans-Serif" font-size="10.00">Utilities.hpp</text>
</a>
</g>
</g>
<!-- Node29&#45;&gt;Node34 -->
<g id="edge36" class="edge">
<title>Node29&#45;&gt;Node34</title>
<path fill="none" stroke="#63b8ff" d="M800.54,-197.99C747.08,-187.28 655.47,-168.93 599.37,-157.69"/>
<polygon fill="#63b8ff" stroke="#63b8ff" points="599.81,-154.21 589.32,-155.68 598.44,-161.07 599.81,-154.21"/>
</g>
<!-- Node34&#45;&gt;Node4 -->
<g id="edge49" class="edge">
<title>Node34&#45;&gt;Node4</title>
<path fill="none" stroke="#63b8ff" d="M525.06,-137.49C517.97,-135.43 510.24,-133.41 503,-132 347.34,-101.67 302.83,-130.31 148,-96 139.57,-94.13 130.65,-91.39 122.47,-88.56"/>
<polygon fill="#63b8ff" stroke="#63b8ff" points="123.53,-85.22 112.94,-85.1 121.14,-91.8 123.53,-85.22"/>
</g>
<!-- Node34&#45;&gt;Node8 -->
<g id="edge45" class="edge">
<title>Node34&#45;&gt;Node8</title>
<path fill="none" stroke="#63b8ff" d="M524.53,-137.45C517.58,-135.44 510.06,-133.45 503,-132 374.49,-105.55 333.61,-139.99 210,-96 206.13,-94.62 202.25,-92.7 198.6,-90.6"/>
<polygon fill="#63b8ff" stroke="#63b8ff" points="200.46,-87.64 190.15,-85.2 196.69,-93.53 200.46,-87.64"/>
</g>
<!-- Node34&#45;&gt;Node21 -->
<g id="edge50" class="edge">
<title>Node34&#45;&gt;Node21</title>
<path fill="none" stroke="#63b8ff" d="M578.85,-137.45C586.6,-135.36 595.07,-133.34 603,-132 824.88,-94.58 888.84,-146.97 1108,-96 1115.06,-94.36 1122.44,-91.81 1129.23,-89.1"/>
<polygon fill="#63b8ff" stroke="#63b8ff" points="1130.82,-92.23 1138.65,-85.09 1128.08,-85.79 1130.82,-92.23"/>
</g>
<!-- Node34&#45;&gt;Node30 -->
<g id="edge37" class="edge">
<title>Node34&#45;&gt;Node30</title>
<path fill="none" stroke="#63b8ff" d="M579.13,-137.45C586.81,-135.38 595.17,-133.38 603,-132 788.83,-99.34 843.88,-145.31 1026,-96 1031.71,-94.45 1037.59,-92.14 1043.05,-89.64"/>
<polygon fill="#63b8ff" stroke="#63b8ff" points="1044.89,-92.64 1052.31,-85.07 1041.79,-86.36 1044.89,-92.64"/>
</g>
<!-- Node35 -->
<g id="node32" class="node">
<title>Node35</title>
<g id="a_node32"><a xlink:title=" ">
<polygon fill="#e0e0e0" stroke="#999999" points="877,-85 809,-85 809,-66 877,-66 877,-85"/>
<text text-anchor="middle" x="843" y="-73" font-family="Helvetica,sans-Serif" font-size="10.00">filesystem</text>
</a>
</g>
</g>
<!-- Node34&#45;&gt;Node35 -->
<g id="edge38" class="edge">
<title>Node34&#45;&gt;Node35</title>
<path fill="none" stroke="#63b8ff" d="M581.14,-137.43C588.28,-135.53 595.89,-133.6 603,-132 689.82,-112.41 715.06,-122.58 800,-96 805.81,-94.18 811.88,-91.77 817.55,-89.28"/>
<polygon fill="#63b8ff" stroke="#63b8ff" points="819.03,-92.45 826.63,-85.07 816.08,-86.1 819.03,-92.45"/>
</g>
<!-- Node36 -->
<g id="node33" class="node">
<title>Node36</title>
<g id="a_node33"><a xlink:title=" ">
<polygon fill="#e0e0e0" stroke="#999999" points="950.5,-85 895.5,-85 895.5,-66 950.5,-66 950.5,-85"/>
<text text-anchor="middle" x="923" y="-73" font-family="Helvetica,sans-Serif" font-size="10.00">fstream</text>
</a>
</g>
</g>
<!-- Node34&#45;&gt;Node36 -->
<g id="edge39" class="edge">
<title>Node34&#45;&gt;Node36</title>
<path fill="none" stroke="#63b8ff" d="M579.99,-137.45C587.44,-135.45 595.48,-133.48 603,-132 727.39,-107.46 765.09,-134.17 886,-96 890.85,-94.47 895.82,-92.31 900.47,-89.99"/>
<polygon fill="#63b8ff" stroke="#63b8ff" points="902.32,-92.97 909.46,-85.14 899,-86.81 902.32,-92.97"/>
</g>
<!-- Node37 -->
<g id="node34" class="node">
<title>Node37</title>
<g id="a_node34"><a xlink:title=" ">
<polygon fill="#e0e0e0" stroke="#999999" points="1017,-85 969,-85 969,-66 1017,-66 1017,-85"/>
<text text-anchor="middle" x="993" y="-73" font-family="Helvetica,sans-Serif" font-size="10.00">gsl/gsl</text>
</a>
</g>
</g>
<!-- Node34&#45;&gt;Node37 -->
<g id="edge40" class="edge">
<title>Node34&#45;&gt;Node37</title>
<path fill="none" stroke="#63b8ff" d="M579.42,-137.46C587.02,-135.42 595.28,-133.42 603,-132 759.41,-103.23 807.59,-144.63 959,-96 963.49,-94.56 968.05,-92.46 972.3,-90.18"/>
<polygon fill="#63b8ff" stroke="#63b8ff" points="974.16,-93.15 980.99,-85.05 970.6,-87.12 974.16,-93.15"/>
</g>
<!-- Node38 -->
<g id="node35" class="node">
<title>Node38</title>
<g id="a_node35"><a xlink:title=" ">
<polygon fill="#e0e0e0" stroke="#999999" points="325,-85 277,-85 277,-66 325,-66 325,-85"/>
<text text-anchor="middle" x="301" y="-73" font-family="Helvetica,sans-Serif" font-size="10.00">mutex</text>
</a>
</g>
</g>
<!-- Node34&#45;&gt;Node38 -->
<g id="edge41" class="edge">
<title>Node34&#45;&gt;Node38</title>
<path fill="none" stroke="#63b8ff" d="M522.92,-137.43C516.41,-135.55 509.48,-133.63 503,-132 428.53,-113.24 405.55,-123.9 334,-96 330.07,-94.47 326.06,-92.5 322.25,-90.4"/>
<polygon fill="#63b8ff" stroke="#63b8ff" points="323.74,-87.21 313.36,-85.1 320.16,-93.23 323.74,-87.21"/>
</g>
<!-- Node39 -->
<g id="node36" class="node">
<title>Node39</title>
<g id="a_node36"><a xlink:title=" ">
<polygon fill="#e0e0e0" stroke="#999999" points="397,-85 343,-85 343,-66 397,-66 397,-85"/>
<text text-anchor="middle" x="370" y="-73" font-family="Helvetica,sans-Serif" font-size="10.00">random</text>
</a>
</g>
</g>
<!-- Node34&#45;&gt;Node39 -->
<g id="edge42" class="edge">
<title>Node34&#45;&gt;Node39</title>
<path fill="none" stroke="#63b8ff" d="M521.85,-137.5C492.19,-128.49 445.12,-113.2 406,-96 401.9,-94.2 397.64,-92.1 393.54,-89.97"/>
<polygon fill="#63b8ff" stroke="#63b8ff" points="394.9,-86.72 384.44,-85.03 391.56,-92.87 394.9,-86.72"/>
</g>
<!-- Node40 -->
<g id="node37" class="node">
<title>Node40</title>
<g id="a_node37"><a xlink:title=" ">
<polygon fill="#e0e0e0" stroke="#999999" points="259,-85 219,-85 219,-66 259,-66 259,-85"/>
<text text-anchor="middle" x="239" y="-73" font-family="Helvetica,sans-Serif" font-size="10.00">span</text>
</a>
</g>
</g>
<!-- Node34&#45;&gt;Node40 -->
<g id="edge43" class="edge">
<title>Node34&#45;&gt;Node40</title>
<path fill="none" stroke="#63b8ff" d="M524,-137.45C517.19,-135.48 509.86,-133.52 503,-132 399.84,-109.16 366.44,-134.41 268,-96 264.56,-94.66 261.12,-92.85 257.87,-90.88"/>
<polygon fill="#63b8ff" stroke="#63b8ff" points="259.62,-87.84 249.38,-85.12 255.69,-93.63 259.62,-87.84"/>
</g>
<!-- Node41 -->
<g id="node38" class="node">
<title>Node41</title>
<g id="a_node38"><a xlink:title=" ">
<polygon fill="#e0e0e0" stroke="#999999" points="480.5,-85 415.5,-85 415.5,-66 480.5,-66 480.5,-85"/>
<text text-anchor="middle" x="448" y="-73" font-family="Helvetica,sans-Serif" font-size="10.00">stdexcept</text>
</a>
</g>
</g>
<!-- Node34&#45;&gt;Node41 -->
<g id="edge44" class="edge">
<title>Node34&#45;&gt;Node41</title>
<path fill="none" stroke="#63b8ff" d="M538.37,-137.48C521.15,-125.86 490.07,-104.89 469.23,-90.83"/>
<polygon fill="#63b8ff" stroke="#63b8ff" points="470.98,-87.78 460.73,-85.09 467.06,-93.59 470.98,-87.78"/>
</g>
<!-- Node42 -->
<g id="node39" class="node">
<title>Node42</title>
<g id="a_node39"><a xlink:title=" ">
<polygon fill="#e0e0e0" stroke="#999999" points="571,-85 499,-85 499,-66 571,-66 571,-85"/>
<text text-anchor="middle" x="535" y="-73" font-family="Helvetica,sans-Serif" font-size="10.00">date/date.h</text>
</a>
</g>
</g>
<!-- Node34&#45;&gt;Node42 -->
<g id="edge46" class="edge">
<title>Node34&#45;&gt;Node42</title>
<path fill="none" stroke="#63b8ff" d="M549.04,-137.48C546.62,-126.95 542.43,-108.75 539.25,-94.97"/>
<polygon fill="#63b8ff" stroke="#63b8ff" points="542.63,-94.05 536.98,-85.09 535.81,-95.62 542.63,-94.05"/>
</g>
<!-- Node43 -->
<g id="node40" class="node">
<title>Node43</title>
<g id="a_node40"><a xlink:title=" ">
<polygon fill="#e0e0e0" stroke="#999999" points="687,-85 589,-85 589,-66 687,-66 687,-85"/>
<text text-anchor="middle" x="638" y="-73" font-family="Helvetica,sans-Serif" font-size="10.00">pcg_random.hpp</text>
</a>
</g>
</g>
<!-- Node34&#45;&gt;Node43 -->
<g id="edge47" class="edge">
<title>Node34&#45;&gt;Node43</title>
<path fill="none" stroke="#63b8ff" d="M561.67,-137.48C576.02,-126.01 601.76,-105.45 619.35,-91.4"/>
<polygon fill="#63b8ff" stroke="#63b8ff" points="621.62,-94.07 627.24,-85.09 617.25,-88.6 621.62,-94.07"/>
</g>
<!-- Node44 -->
<g id="node41" class="node">
<title>Node44</title>
<g id="a_node41"><a xlink:title=" ">
<polygon fill="#e0e0e0" stroke="#999999" points="791,-85 705,-85 705,-66 791,-66 791,-85"/>
<text text-anchor="middle" x="748" y="-73" font-family="Helvetica,sans-Serif" font-size="10.00">fmt/ostream.h</text>
</a>
</g>
</g>
<!-- Node34&#45;&gt;Node44 -->
<g id="edge48" class="edge">
<title>Node34&#45;&gt;Node44</title>
<path fill="none" stroke="#63b8ff" d="M576.48,-137.44C605.49,-127.65 654.28,-111.01 696,-96 702.52,-93.65 709.48,-91.09 716.12,-88.61"/>
<polygon fill="#63b8ff" stroke="#63b8ff" points="717.39,-91.87 725.52,-85.08 714.93,-85.32 717.39,-91.87"/>
</g>
<!-- Node47&#45;&gt;Node21 -->
<g id="edge57" class="edge">
<title>Node47&#45;&gt;Node21</title>
<path fill="none" stroke="#63b8ff" d="M502.33,-307.63C510.35,-294.71 526.45,-270.37 544,-253 609.14,-188.52 625.18,-164.18 711,-132 876.89,-69.8 935.83,-137.8 1108,-96 1115.05,-94.29 1122.42,-91.72 1129.21,-89.01"/>
<polygon fill="#63b8ff" stroke="#63b8ff" points="1130.8,-92.13 1138.63,-85.01 1128.06,-85.69 1130.8,-92.13"/>
</g>
<!-- Node47&#45;&gt;Node25 -->
<g id="edge53" class="edge">
<title>Node47&#45;&gt;Node25</title>
<path fill="none" stroke="#63b8ff" d="M519.98,-307.98C543.5,-299.27 580.29,-285.63 606.94,-275.75"/>
<polygon fill="#63b8ff" stroke="#63b8ff" points="608.45,-278.93 616.61,-272.17 606.01,-272.36 608.45,-278.93"/>
</g>
<!-- Node47&#45;&gt;Node34 -->
<g id="edge58" class="edge">
<title>Node47&#45;&gt;Node34</title>
<path fill="none" stroke="#63b8ff" d="M498.5,-307.77C500.72,-295.43 505.24,-272.25 511,-253 520.33,-221.81 534.49,-186.65 543.23,-165.97"/>
<polygon fill="#63b8ff" stroke="#63b8ff" points="546.53,-167.13 547.24,-156.56 540.1,-164.38 546.53,-167.13"/>
</g>
<!-- Node47&#45;&gt;Node40 -->
<g id="edge56" class="edge">
<title>Node47&#45;&gt;Node40</title>
<path fill="none" stroke="#63b8ff" d="M487.92,-307.85C475.06,-295.6 450.79,-272.53 430,-253 372.47,-198.96 358.08,-185.45 300,-132 285.28,-118.45 268.45,-103.16 256.2,-92.06"/>
<polygon fill="#63b8ff" stroke="#63b8ff" points="258.3,-89.24 248.54,-85.12 253.6,-94.43 258.3,-89.24"/>
</g>
<!-- Node47&#45;&gt;Node48 -->
<g id="edge52" class="edge">
<title>Node47&#45;&gt;Node48</title>
<path fill="none" stroke="#63b8ff" d="M509.37,-307.98C521.09,-299.92 538.92,-287.65 552.89,-278.03"/>
<polygon fill="#63b8ff" stroke="#63b8ff" points="555.15,-280.72 561.4,-272.17 551.18,-274.96 555.15,-280.72"/>
</g>
<!-- Node49 -->
<g id="node44" class="node">
<title>Node49</title>
<g id="a_node44"><a xlink:title=" ">
<polygon fill="#e0e0e0" stroke="#999999" points="347,-272 297,-272 297,-253 347,-253 347,-272"/>
<text text-anchor="middle" x="322" y="-260" font-family="Helvetica,sans-Serif" font-size="10.00">gsl/util</text>
</a>
</g>
</g>
<!-- Node47&#45;&gt;Node49 -->
<g id="edge54" class="edge">
<title>Node47&#45;&gt;Node49</title>
<path fill="none" stroke="#63b8ff" d="M468.88,-307.98C438.41,-298.76 389.75,-284.02 356.87,-274.06"/>
<polygon fill="#63b8ff" stroke="#63b8ff" points="357.79,-270.68 347.21,-271.13 355.76,-277.38 357.79,-270.68"/>
</g>
<!-- Node50 -->
<g id="node45" class="node">
<title>Node50</title>
<g id="a_node45"><a xlink:title=" ">
<polygon fill="#e0e0e0" stroke="#999999" points="421,-272 365,-272 365,-253 421,-253 421,-272"/>
<text text-anchor="middle" x="393" y="-260" font-family="Helvetica,sans-Serif" font-size="10.00">numeric</text>
</a>
</g>
</g>
<!-- Node47&#45;&gt;Node50 -->
<g id="edge55" class="edge">
<title>Node47&#45;&gt;Node50</title>
<path fill="none" stroke="#63b8ff" d="M480.29,-307.98C463.79,-299.57 438.3,-286.59 419.12,-276.81"/>
<polygon fill="#63b8ff" stroke="#63b8ff" points="420.51,-273.59 410.01,-272.17 417.33,-279.83 420.51,-273.59"/>
</g>
</g>
</svg>
        <g id="navigator" transform="translate(0 0)" fill="#404254">
                <rect fill="#f2f5e9" fill-opacity="0.5" stroke="#606060" stroke-width=".5" x="0" y="0" width="60" height="60"/>
                <use id="zoomplus" xlink:href="#zoomPlus" x="17" y="9" onmousedown="handleZoom(evt,'in')"/>
                <use id="zoomminus" xlink:href="#zoomMin" x="42" y="9" onmousedown="handleZoom(evt,'out')"/>
                <use id="reset" xlink:href="#resetDef" x="30" y="36" onmousedown="handleReset()"/>
                <g id="arrowUp" xlink:href="#dirArrow" transform="translate(30 24)" onmousedown="handlePan(0,-1)">
                  <use xlink:href="#rim" fill="#404040">
                        <set attributeName="fill" to="#808080" begin="arrowUp.mouseover" end="arrowUp.mouseout"/>
                  </use>
                  <path fill="none" stroke="white" stroke-width="1.5" d="M0,-3.0v7 M-2.5,-0.5L0,-3.0L2.5,-0.5"/>
                </g>
                <g id="arrowRight" xlink:href="#dirArrow" transform="rotate(90) translate(36 -43)" onmousedown="handlePan(1,0)">
                  <use xlink:href="#rim" fill="#404040">
                        <set attributeName="fill" to="#808080" begin="arrowRight.mouseover" end="arrowRight.mouseout"/>
                  </use>
                  <path fill="none" stroke="white" stroke-width="1.5" d="M0,-3.0v7 M-2.5,-0.5L0,-3.0L2.5,-0.5"/>
                </g>
                <g id="arrowDown" xlink:href="#dirArrow" transform="rotate(180) translate(-30 -48)" onmousedown="handlePan(0,1)">
                  <use xlink:href="#rim" fill="#404040">
                        <set attributeName="fill" to="#808080" begin="arrowDown.mouseover" end="arrowDown.mouseout"/>
                  </use>
                  <path fill="none" stroke="white" stroke-width="1.5" d="M0,-3.0v7 M-2.5,-0.5L0,-3.0L2.5,-0.5"/>
                </g>
                <g id="arrowLeft" xlink:href="#dirArrow" transform="rotate(270) translate(-36 17)" onmousedown="handlePan(-1,0)">
                  <use xlink:href="#rim" fill="#404040">
                        <set attributeName="fill" to="#808080" begin="arrowLeft.mouseover" end="arrowLeft.mouseout"/>
                  </use>
                  <path fill="none" stroke="white" stroke-width="1.5" d="M0,-3.0v7 M-2.5,-0.5L0,-3.0L2.5,-0.5"/>
                </g>
        </g>
        <svg viewBox="0 0 15 15" width="100%" height="30px" preserveAspectRatio="xMaxYMin meet">
         <g id="arrow_out" transform="scale(0.3 0.3)">
          <a xlink:href="_move__command__test_8cpp__incl_org.svg" target="_base">
           <rect id="button" ry="5" rx="5" y="6" x="6" height="38" width="38"
                fill="#f2f5e9" fill-opacity="0.5" stroke="#606060" stroke-width="1.0"/>
           <path id="arrow"
             d="M 11.500037,31.436501 C 11.940474,20.09759 22.043105,11.32322 32.158766,21.979434 L 37.068811,17.246167 C 37.068811,17.246167 37.088388,32 37.088388,32 L 22.160133,31.978069 C 22.160133,31.978069 26.997745,27.140456 26.997745,27.140456 C 18.528582,18.264221 13.291696,25.230495 11.500037,31.436501 z"
             style="fill:#404040;"/>
          </a>
         </g>
        </svg>
</svg>
