<?xml version="1.0" encoding="UTF-8" standalone="no"?>
<!DOCTYPE svg PUBLIC "-//W3C//DTD SVG 1.1//EN"
 "http://www.w3.org/Graphics/SVG/1.1/DTD/svg11.dtd">
<!-- Generated by graphviz version 2.43.0 (0)
 -->
<!-- Title: include/Move_always.hpp Pages: 1 -->
<!--zoomable 498 -->
<svg id="main" version="1.1" xmlns="http://www.w3.org/2000/svg" xmlns:xlink="http://www.w3.org/1999/xlink" xml:space="preserve" onload="init(evt)">
<style type="text/css"><![CDATA[
.edge:hover path { stroke: red; }
.edge:hover polygon { stroke: red; fill: red; }
]]></style>
<script type="text/javascript"><![CDATA[
var edges = document.getElementsByTagName('g');
if (edges && edges.length) {
  for (var i=0;i<edges.length;i++) {
    if (edges[i].id.substr(0,4)=='edge') {
      edges[i].setAttribute('class','edge');
    }
  }
}
]]></script>
        <defs>
                <circle id="rim" cx="0" cy="0" r="7"/>
                <circle id="rim2" cx="0" cy="0" r="3.5"/>
                <g id="zoomPlus">
                        <use xlink:href="#rim" fill="#404040">
                                <set attributeName="fill" to="#808080" begin="zoomplus.mouseover" end="zoomplus.mouseout"/>
                        </use>
                        <path d="M-4,0h8M0,-4v8" fill="none" stroke="white" stroke-width="1.5" pointer-events="none"/>
                </g>
                <g id="zoomMin">
                        <use xlink:href="#rim" fill="#404040">
                                <set attributeName="fill" to="#808080" begin="zoomminus.mouseover" end="zoomminus.mouseout"/>
                        </use>
                        <path d="M-4,0h8" fill="none" stroke="white" stroke-width="1.5" pointer-events="none"/>
                </g>
                <g id="dirArrow">
                        <path fill="none" stroke="white" stroke-width="1.5" d="M0,-3.0v7 M-2.5,-0.5L0,-3.0L2.5,-0.5"/>
                </g>
               <g id="resetDef">
                       <use xlink:href="#rim2" fill="#404040">
                               <set attributeName="fill" to="#808080" begin="reset.mouseover" end="reset.mouseout"/>
                       </use>
               </g>
        </defs>

<script type="text/javascript">
var viewWidth = 2155;
var viewHeight = 498;
var sectionId = 'dynsection-0';
</script>
<script xlink:href="svgpan.js"/>
<svg id="graph" class="graph">
<g id="viewport">
<title>include/Move_always.hpp</title>
<polygon fill="white" stroke="transparent" points="-4,4 -4,-494 2151,-494 2151,4 -4,4"/>
<!-- Node1 -->
<g id="node1" class="node">
<title>Node1</title>
<g id="a_node1"><a xlink:title="Randomly selects moves to always perform on triangulations.">
<polygon fill="#bfbfbf" stroke="black" points="1674.5,-470.5 1674.5,-489.5 1817.5,-489.5 1817.5,-470.5 1674.5,-470.5"/>
<text text-anchor="middle" x="1746" y="-477.5" font-family="Helvetica,sans-Serif" font-size="10.00">include/Move_always.hpp</text>
</a>
</g>
</g>
<!-- Node2 -->
<g id="node2" class="node">
<title>Node2</title>
<g id="a_node2"><a xlink:href="_move__command_8hpp.html" target="_top" xlink:title="Do ergodic moves using the Command pattern.">
<polygon fill="white" stroke="black" points="1620.5,-414.5 1620.5,-433.5 1739.5,-433.5 1739.5,-414.5 1620.5,-414.5"/>
<text text-anchor="middle" x="1680" y="-421.5" font-family="Helvetica,sans-Serif" font-size="10.00">Move_command.hpp</text>
</a>
</g>
</g>
<!-- Node1&#45;&gt;Node2 -->
<g id="edge1" class="edge">
<title>Node1&#45;&gt;Node2</title>
<path fill="none" stroke="midnightblue" d="M1735.4,-470.32C1725.54,-462.26 1710.65,-450.08 1698.78,-440.37"/>
<polygon fill="midnightblue" stroke="midnightblue" points="1700.75,-437.46 1690.8,-433.83 1696.32,-442.88 1700.75,-437.46"/>
</g>
<!-- Node39 -->
<g id="node39" class="node">
<title>Node39</title>
<g id="a_node39"><a xlink:href="_move__strategy_8hpp.html" target="_top" xlink:title="Template class for move algorithms (strategies) on manifolds.">
<polygon fill="white" stroke="black" points="1757.5,-414.5 1757.5,-433.5 1866.5,-433.5 1866.5,-414.5 1757.5,-414.5"/>
<text text-anchor="middle" x="1812" y="-421.5" font-family="Helvetica,sans-Serif" font-size="10.00">Move_strategy.hpp</text>
</a>
</g>
</g>
<!-- Node1&#45;&gt;Node39 -->
<g id="edge46" class="edge">
<title>Node1&#45;&gt;Node39</title>
<path fill="none" stroke="midnightblue" d="M1756.6,-470.32C1766.46,-462.26 1781.35,-450.08 1793.22,-440.37"/>
<polygon fill="midnightblue" stroke="midnightblue" points="1795.68,-442.88 1801.2,-433.83 1791.25,-437.46 1795.68,-442.88"/>
</g>
<!-- Node3 -->
<g id="node3" class="node">
<title>Node3</title>
<g id="a_node3"><a xlink:href="_apply__move_8hpp.html" target="_top" xlink:title="Apply Pachner moves to foliated Delaunay triangulations.">
<polygon fill="white" stroke="black" points="1714,-358.5 1714,-377.5 1812,-377.5 1812,-358.5 1714,-358.5"/>
<text text-anchor="middle" x="1763" y="-365.5" font-family="Helvetica,sans-Serif" font-size="10.00">Apply_move.hpp</text>
</a>
</g>
</g>
<!-- Node2&#45;&gt;Node3 -->
<g id="edge2" class="edge">
<title>Node2&#45;&gt;Node3</title>
<path fill="none" stroke="midnightblue" d="M1693.34,-414.32C1706.16,-405.98 1725.78,-393.21 1740.94,-383.35"/>
<polygon fill="midnightblue" stroke="midnightblue" points="1743.22,-386.04 1749.7,-377.65 1739.41,-380.17 1743.22,-386.04"/>
</g>
<!-- Node8 -->
<g id="node8" class="node">
<title>Node8</title>
<g id="a_node8"><a xlink:href="_ergodic__moves__3_8hpp.html" target="_top" xlink:title="Pachner moves on 2+1 dimensional foliated Delaunay triangulations.">
<polygon fill="white" stroke="black" points="1554.5,-358.5 1554.5,-377.5 1677.5,-377.5 1677.5,-358.5 1554.5,-358.5"/>
<text text-anchor="middle" x="1616" y="-365.5" font-family="Helvetica,sans-Serif" font-size="10.00">Ergodic_moves_3.hpp</text>
</a>
</g>
</g>
<!-- Node2&#45;&gt;Node8 -->
<g id="edge7" class="edge">
<title>Node2&#45;&gt;Node8</title>
<path fill="none" stroke="midnightblue" d="M1669.72,-414.32C1660.16,-406.26 1645.72,-394.08 1634.22,-384.37"/>
<polygon fill="midnightblue" stroke="midnightblue" points="1636.37,-381.61 1626.47,-377.83 1631.86,-386.96 1636.37,-381.61"/>
</g>
<!-- Node4 -->
<g id="node4" class="node">
<title>Node4</title>
<g id="a_node4"><a xlink:title=" ">
<polygon fill="white" stroke="#bfbfbf" points="1991.5,-67.5 1991.5,-86.5 2084.5,-86.5 2084.5,-67.5 1991.5,-67.5"/>
<text text-anchor="middle" x="2038" y="-74.5" font-family="Helvetica,sans-Serif" font-size="10.00">spdlog/spdlog.h</text>
</a>
</g>
</g>
<!-- Node3&#45;&gt;Node4 -->
<g id="edge3" class="edge">
<title>Node3&#45;&gt;Node4</title>
<path fill="none" stroke="midnightblue" d="M1763,-358.44C1763,-339.94 1763,-294.81 1763,-257 1763,-257 1763,-257 1763,-199 1763,-168.2 1763.44,-153.83 1787,-134 1854.42,-77.24 1896.89,-120.89 1982,-98 1990.29,-95.77 1999.11,-92.88 2007.23,-89.99"/>
<polygon fill="midnightblue" stroke="midnightblue" points="2008.53,-93.24 2016.72,-86.51 2006.12,-86.67 2008.53,-93.24"/>
</g>
<!-- Node5 -->
<g id="node5" class="node">
<title>Node5</title>
<g id="a_node5"><a xlink:title=" ">
<polygon fill="white" stroke="#bfbfbf" points="2103,-67.5 2103,-86.5 2147,-86.5 2147,-67.5 2103,-67.5"/>
<text text-anchor="middle" x="2125" y="-74.5" font-family="Helvetica,sans-Serif" font-size="10.00">string</text>
</a>
</g>
</g>
<!-- Node3&#45;&gt;Node5 -->
<g id="edge4" class="edge">
<title>Node3&#45;&gt;Node5</title>
<path fill="none" stroke="midnightblue" d="M1768.28,-358.23C1778.73,-340.04 1801,-296.6 1801,-257 1801,-257 1801,-257 1801,-199 1801,-61.26 1970.12,-158.22 2094,-98 2097.49,-96.3 2101.06,-94.29 2104.48,-92.21"/>
<polygon fill="midnightblue" stroke="midnightblue" points="2106.53,-95.05 2113.03,-86.69 2102.73,-89.17 2106.53,-95.05"/>
</g>
<!-- Node6 -->
<g id="node6" class="node">
<title>Node6</title>
<g id="a_node6"><a xlink:title=" ">
<polygon fill="white" stroke="#bfbfbf" points="1637,-302.5 1637,-321.5 1729,-321.5 1729,-302.5 1637,-302.5"/>
<text text-anchor="middle" x="1683" y="-309.5" font-family="Helvetica,sans-Serif" font-size="10.00">tl/expected.hpp</text>
</a>
</g>
</g>
<!-- Node3&#45;&gt;Node6 -->
<g id="edge5" class="edge">
<title>Node3&#45;&gt;Node6</title>
<path fill="none" stroke="midnightblue" d="M1750.15,-358.32C1737.78,-349.98 1718.87,-337.21 1704.26,-327.35"/>
<polygon fill="midnightblue" stroke="midnightblue" points="1706.07,-324.35 1695.82,-321.65 1702.15,-330.15 1706.07,-324.35"/>
</g>
<!-- Node7 -->
<g id="node7" class="node">
<title>Node7</title>
<g id="a_node7"><a xlink:title=" ">
<polygon fill="white" stroke="#bfbfbf" points="1829.5,-302.5 1829.5,-321.5 1934.5,-321.5 1934.5,-302.5 1829.5,-302.5"/>
<text text-anchor="middle" x="1882" y="-309.5" font-family="Helvetica,sans-Serif" font-size="10.00">tl/function_ref.hpp</text>
</a>
</g>
</g>
<!-- Node3&#45;&gt;Node7 -->
<g id="edge6" class="edge">
<title>Node3&#45;&gt;Node7</title>
<path fill="none" stroke="midnightblue" d="M1781.86,-358.44C1801.27,-349.64 1831.73,-335.81 1853.96,-325.72"/>
<polygon fill="midnightblue" stroke="midnightblue" points="1855.57,-328.84 1863.23,-321.52 1852.68,-322.46 1855.57,-328.84"/>
</g>
<!-- Node8&#45;&gt;Node6 -->
<g id="edge8" class="edge">
<title>Node8&#45;&gt;Node6</title>
<path fill="none" stroke="midnightblue" d="M1626.76,-358.32C1636.77,-350.26 1651.89,-338.08 1663.93,-328.37"/>
<polygon fill="midnightblue" stroke="midnightblue" points="1666.45,-330.83 1672.04,-321.83 1662.06,-325.38 1666.45,-330.83"/>
</g>
<!-- Node9 -->
<g id="node9" class="node">
<title>Node9</title>
<g id="a_node9"><a xlink:href="_manifold_8hpp.html" target="_top" xlink:title="Data structures for manifolds.">
<polygon fill="white" stroke="black" points="1266,-302.5 1266,-321.5 1346,-321.5 1346,-302.5 1266,-302.5"/>
<text text-anchor="middle" x="1306" y="-309.5" font-family="Helvetica,sans-Serif" font-size="10.00">Manifold.hpp</text>
</a>
</g>
</g>
<!-- Node8&#45;&gt;Node9 -->
<g id="edge9" class="edge">
<title>Node8&#45;&gt;Node9</title>
<path fill="none" stroke="midnightblue" d="M1566.88,-358.44C1509.22,-348.4 1414.12,-331.83 1356.06,-321.72"/>
<polygon fill="midnightblue" stroke="midnightblue" points="1356.47,-318.24 1346.02,-319.97 1355.27,-325.14 1356.47,-318.24"/>
</g>
<!-- Node36 -->
<g id="node36" class="node">
<title>Node36</title>
<g id="a_node36"><a xlink:href="_move__tracker_8hpp.html" target="_top" xlink:title="Track ergodic moves.">
<polygon fill="white" stroke="black" points="1538.5,-190.5 1538.5,-209.5 1641.5,-209.5 1641.5,-190.5 1538.5,-190.5"/>
<text text-anchor="middle" x="1590" y="-197.5" font-family="Helvetica,sans-Serif" font-size="10.00">Move_tracker.hpp</text>
</a>
</g>
</g>
<!-- Node8&#45;&gt;Node36 -->
<g id="edge39" class="edge">
<title>Node8&#45;&gt;Node36</title>
<path fill="none" stroke="midnightblue" d="M1614.6,-358.08C1610.51,-331.95 1598.49,-255.21 1592.91,-219.58"/>
<polygon fill="midnightblue" stroke="midnightblue" points="1596.35,-218.91 1591.34,-209.57 1589.43,-219.99 1596.35,-218.91"/>
</g>
<!-- Node10 -->
<g id="node10" class="node">
<title>Node10</title>
<g id="a_node10"><a xlink:title=" ">
<polygon fill="white" stroke="#bfbfbf" points="609.5,-134.5 609.5,-153.5 662.5,-153.5 662.5,-134.5 609.5,-134.5"/>
<text text-anchor="middle" x="636" y="-141.5" font-family="Helvetica,sans-Serif" font-size="10.00">cstddef</text>
</a>
</g>
</g>
<!-- Node9&#45;&gt;Node10 -->
<g id="edge10" class="edge">
<title>Node9&#45;&gt;Node10</title>
<path fill="none" stroke="midnightblue" d="M1270.86,-302.43C1176.08,-279.3 906.98,-213.46 672.48,-154.36"/>
<polygon fill="midnightblue" stroke="midnightblue" points="673.3,-150.96 662.75,-151.9 671.59,-157.74 673.3,-150.96"/>
</g>
<!-- Node11 -->
<g id="node11" class="node">
<title>Node11</title>
<g id="a_node11"><a xlink:title=" ">
<polygon fill="white" stroke="#bfbfbf" points="1315,-246.5 1315,-265.5 1401,-265.5 1401,-246.5 1315,-246.5"/>
<text text-anchor="middle" x="1358" y="-253.5" font-family="Helvetica,sans-Serif" font-size="10.00">unordered_set</text>
</a>
</g>
</g>
<!-- Node9&#45;&gt;Node11 -->
<g id="edge11" class="edge">
<title>Node9&#45;&gt;Node11</title>
<path fill="none" stroke="midnightblue" d="M1314.59,-302.08C1322.16,-294.22 1333.38,-282.57 1342.51,-273.08"/>
<polygon fill="midnightblue" stroke="midnightblue" points="1345.16,-275.38 1349.57,-265.75 1340.12,-270.53 1345.16,-275.38"/>
</g>
<!-- Node12 -->
<g id="node12" class="node">
<title>Node12</title>
<g id="a_node12"><a xlink:href="_geometry_8hpp.html" target="_top" xlink:title="Geometric scalars of the Manifold used to calculate the Regge action.">
<polygon fill="white" stroke="black" points="1211.5,-246.5 1211.5,-265.5 1296.5,-265.5 1296.5,-246.5 1211.5,-246.5"/>
<text text-anchor="middle" x="1254" y="-253.5" font-family="Helvetica,sans-Serif" font-size="10.00">Geometry.hpp</text>
</a>
</g>
</g>
<!-- Node9&#45;&gt;Node12 -->
<g id="edge12" class="edge">
<title>Node9&#45;&gt;Node12</title>
<path fill="none" stroke="midnightblue" d="M1297.41,-302.08C1289.84,-294.22 1278.62,-282.57 1269.49,-273.08"/>
<polygon fill="midnightblue" stroke="midnightblue" points="1271.88,-270.53 1262.43,-265.75 1266.84,-275.38 1271.88,-270.53"/>
</g>
<!-- Node13 -->
<g id="node13" class="node">
<title>Node13</title>
<g id="a_node13"><a xlink:href="_foliated__triangulation_8hpp.html" target="_top" xlink:title="Create foliated spherical triangulations.">
<polygon fill="white" stroke="black" points="1182,-190.5 1182,-209.5 1326,-209.5 1326,-190.5 1182,-190.5"/>
<text text-anchor="middle" x="1254" y="-197.5" font-family="Helvetica,sans-Serif" font-size="10.00">Foliated_triangulation.hpp</text>
</a>
</g>
</g>
<!-- Node12&#45;&gt;Node13 -->
<g id="edge13" class="edge">
<title>Node12&#45;&gt;Node13</title>
<path fill="none" stroke="midnightblue" d="M1254,-246.08C1254,-239.01 1254,-228.86 1254,-219.99"/>
<polygon fill="midnightblue" stroke="midnightblue" points="1257.5,-219.75 1254,-209.75 1250.5,-219.75 1257.5,-219.75"/>
</g>
<!-- Node14 -->
<g id="node14" class="node">
<title>Node14</title>
<g id="a_node14"><a xlink:href="_triangulation__traits_8hpp.html" target="_top" xlink:title="Traits class for particular uses of CGAL.">
<polygon fill="white" stroke="black" points="680.5,-134.5 680.5,-153.5 811.5,-153.5 811.5,-134.5 680.5,-134.5"/>
<text text-anchor="middle" x="746" y="-141.5" font-family="Helvetica,sans-Serif" font-size="10.00">Triangulation_traits.hpp</text>
</a>
</g>
</g>
<!-- Node13&#45;&gt;Node14 -->
<g id="edge14" class="edge">
<title>Node13&#45;&gt;Node14</title>
<path fill="none" stroke="midnightblue" d="M1181.76,-191.32C1086.25,-181.17 918.74,-163.36 821.59,-153.04"/>
<polygon fill="midnightblue" stroke="midnightblue" points="821.86,-149.54 811.55,-151.97 821.12,-156.5 821.86,-149.54"/>
</g>
<!-- Node23 -->
<g id="node23" class="node">
<title>Node23</title>
<g id="a_node23"><a xlink:href="_utilities_8hpp.html" target="_top" xlink:title="Utility functions.">
<polygon fill="white" stroke="black" points="1471,-134.5 1471,-153.5 1547,-153.5 1547,-134.5 1471,-134.5"/>
<text text-anchor="middle" x="1509" y="-141.5" font-family="Helvetica,sans-Serif" font-size="10.00">Utilities.hpp</text>
</a>
</g>
</g>
<!-- Node13&#45;&gt;Node23 -->
<g id="edge23" class="edge">
<title>Node13&#45;&gt;Node23</title>
<path fill="none" stroke="midnightblue" d="M1294.41,-190.44C1339.64,-180.86 1412.89,-165.35 1461,-155.16"/>
<polygon fill="midnightblue" stroke="midnightblue" points="1461.81,-158.57 1470.87,-153.08 1460.36,-151.72 1461.81,-158.57"/>
</g>
<!-- Node15 -->
<g id="node15" class="node">
<title>Node15</title>
<g id="a_node15"><a xlink:title=" ">
<polygon fill="white" stroke="#bfbfbf" points="326,-67.5 326,-86.5 506,-86.5 506,-67.5 326,-67.5"/>
<text text-anchor="middle" x="416" y="-74.5" font-family="Helvetica,sans-Serif" font-size="10.00">CGAL/Delaunay_triangulation_3.h</text>
</a>
</g>
</g>
<!-- Node14&#45;&gt;Node15 -->
<g id="edge15" class="edge">
<title>Node14&#45;&gt;Node15</title>
<path fill="none" stroke="midnightblue" d="M701.7,-134.46C655.18,-125.48 579.92,-110.88 515,-98 499.77,-94.98 483.23,-91.65 468.1,-88.6"/>
<polygon fill="midnightblue" stroke="midnightblue" points="468.39,-85.08 457.9,-86.53 467,-91.94 468.39,-85.08"/>
</g>
<!-- Node16 -->
<g id="node16" class="node">
<title>Node16</title>
<g id="a_node16"><a xlink:title=" ">
<polygon fill="white" stroke="#bfbfbf" points="524.5,-56.5 524.5,-97.5 653.5,-97.5 653.5,-56.5 524.5,-56.5"/>
<text text-anchor="start" x="532.5" y="-85.5" font-family="Helvetica,sans-Serif" font-size="10.00">CGAL/Exact_predicates</text>
<text text-anchor="start" x="532.5" y="-74.5" font-family="Helvetica,sans-Serif" font-size="10.00">_inexact_constructions</text>
<text text-anchor="middle" x="589" y="-63.5" font-family="Helvetica,sans-Serif" font-size="10.00">_kernel.h</text>
</a>
</g>
</g>
<!-- Node14&#45;&gt;Node16 -->
<g id="edge16" class="edge">
<title>Node14&#45;&gt;Node16</title>
<path fill="none" stroke="midnightblue" d="M725.15,-134.37C705.01,-126.03 673.57,-113.01 645.98,-101.59"/>
<polygon fill="midnightblue" stroke="midnightblue" points="646.98,-98.22 636.4,-97.63 644.3,-104.68 646.98,-98.22"/>
</g>
<!-- Node17 -->
<g id="node17" class="node">
<title>Node17</title>
<g id="a_node17"><a xlink:title=" ">
<polygon fill="white" stroke="#bfbfbf" points="671.5,-67.5 671.5,-86.5 820.5,-86.5 820.5,-67.5 671.5,-67.5"/>
<text text-anchor="middle" x="746" y="-74.5" font-family="Helvetica,sans-Serif" font-size="10.00">CGAL/point_generators_3.h</text>
</a>
</g>
</g>
<!-- Node14&#45;&gt;Node17 -->
<g id="edge17" class="edge">
<title>Node14&#45;&gt;Node17</title>
<path fill="none" stroke="midnightblue" d="M746,-134.23C746,-124.68 746,-109.12 746,-96.78"/>
<polygon fill="midnightblue" stroke="midnightblue" points="749.5,-96.63 746,-86.63 742.5,-96.63 749.5,-96.63"/>
</g>
<!-- Node18 -->
<g id="node18" class="node">
<title>Node18</title>
<g id="a_node18"><a xlink:title=" ">
<polygon fill="white" stroke="#bfbfbf" points="0,-62 0,-92 138,-92 138,-62 0,-62"/>
<text text-anchor="start" x="8" y="-80" font-family="Helvetica,sans-Serif" font-size="10.00">CGAL/Triangulation</text>
<text text-anchor="middle" x="69" y="-69" font-family="Helvetica,sans-Serif" font-size="10.00">_cell_base_with_info_3.h</text>
</a>
</g>
</g>
<!-- Node14&#45;&gt;Node18 -->
<g id="edge18" class="edge">
<title>Node14&#45;&gt;Node18</title>
<path fill="none" stroke="midnightblue" d="M680.17,-134.91C677.07,-134.59 674,-134.28 671,-134 438.59,-112.09 377.46,-135.14 147,-98 140.84,-97.01 134.46,-95.75 128.12,-94.36"/>
<polygon fill="midnightblue" stroke="midnightblue" points="128.76,-90.91 118.23,-92.07 127.18,-97.73 128.76,-90.91"/>
</g>
<!-- Node19 -->
<g id="node19" class="node">
<title>Node19</title>
<g id="a_node19"><a xlink:title=" ">
<polygon fill="white" stroke="#bfbfbf" points="156,-62 156,-92 308,-92 308,-62 156,-62"/>
<text text-anchor="start" x="164" y="-80" font-family="Helvetica,sans-Serif" font-size="10.00">CGAL/Triangulation</text>
<text text-anchor="middle" x="232" y="-69" font-family="Helvetica,sans-Serif" font-size="10.00">_vertex_base_with_info_3.h</text>
</a>
</g>
</g>
<!-- Node14&#45;&gt;Node19 -->
<g id="edge19" class="edge">
<title>Node14&#45;&gt;Node19</title>
<path fill="none" stroke="midnightblue" d="M680.16,-135.03C677.06,-134.68 674,-134.33 671,-134 513.82,-116.58 472.97,-124.17 317,-98 310.47,-96.9 303.7,-95.6 296.95,-94.19"/>
<polygon fill="midnightblue" stroke="midnightblue" points="297.63,-90.76 287.11,-92.06 296.15,-97.6 297.63,-90.76"/>
</g>
<!-- Node20 -->
<g id="node20" class="node">
<title>Node20</title>
<g id="a_node20"><a xlink:href="_settings_8hpp.html" target="_top" xlink:title="Global integer and precision settings.">
<polygon fill="white" stroke="black" points="838.5,-67.5 838.5,-86.5 915.5,-86.5 915.5,-67.5 838.5,-67.5"/>
<text text-anchor="middle" x="877" y="-74.5" font-family="Helvetica,sans-Serif" font-size="10.00">Settings.hpp</text>
</a>
</g>
</g>
<!-- Node14&#45;&gt;Node20 -->
<g id="edge20" class="edge">
<title>Node14&#45;&gt;Node20</title>
<path fill="none" stroke="midnightblue" d="M763.4,-134.37C785.61,-123.34 824.29,-104.16 850.26,-91.27"/>
<polygon fill="midnightblue" stroke="midnightblue" points="852.13,-94.25 859.53,-86.67 849.02,-87.98 852.13,-94.25"/>
</g>
<!-- Node21 -->
<g id="node21" class="node">
<title>Node21</title>
<g id="a_node21"><a xlink:title=" ">
<polygon fill="white" stroke="#bfbfbf" points="750,-0.5 750,-19.5 890,-19.5 890,-0.5 750,-0.5"/>
<text text-anchor="middle" x="820" y="-7.5" font-family="Helvetica,sans-Serif" font-size="10.00">CGAL/GMP/Gmpzf_type.h</text>
</a>
</g>
</g>
<!-- Node20&#45;&gt;Node21 -->
<g id="edge21" class="edge">
<title>Node20&#45;&gt;Node21</title>
<path fill="none" stroke="midnightblue" d="M869.31,-67.23C860.34,-57 845.31,-39.86 834.2,-27.19"/>
<polygon fill="midnightblue" stroke="midnightblue" points="836.79,-24.84 827.57,-19.63 831.53,-29.45 836.79,-24.84"/>
</g>
<!-- Node22 -->
<g id="node22" class="node">
<title>Node22</title>
<g id="a_node22"><a xlink:title=" ">
<polygon fill="white" stroke="#bfbfbf" points="908,-0.5 908,-19.5 958,-19.5 958,-0.5 908,-0.5"/>
<text text-anchor="middle" x="933" y="-7.5" font-family="Helvetica,sans-Serif" font-size="10.00">cstdint</text>
</a>
</g>
</g>
<!-- Node20&#45;&gt;Node22 -->
<g id="edge22" class="edge">
<title>Node20&#45;&gt;Node22</title>
<path fill="none" stroke="midnightblue" d="M884.55,-67.23C893.28,-57.1 907.85,-40.19 918.74,-27.56"/>
<polygon fill="midnightblue" stroke="midnightblue" points="921.69,-29.49 925.57,-19.63 916.39,-24.92 921.69,-29.49"/>
</g>
<!-- Node23&#45;&gt;Node4 -->
<g id="edge37" class="edge">
<title>Node23&#45;&gt;Node4</title>
<path fill="none" stroke="midnightblue" d="M1547.16,-135.34C1550.15,-134.85 1553.12,-134.4 1556,-134 1744.23,-108.1 1796.31,-138.29 1982,-98 1990.85,-96.08 2000.2,-93.13 2008.68,-90.08"/>
<polygon fill="midnightblue" stroke="midnightblue" points="2010.03,-93.31 2018.15,-86.51 2007.56,-86.76 2010.03,-93.31"/>
</g>
<!-- Node23&#45;&gt;Node5 -->
<g id="edge31" class="edge">
<title>Node23&#45;&gt;Node5</title>
<path fill="none" stroke="midnightblue" d="M1547.16,-135.29C1550.14,-134.81 1553.12,-134.37 1556,-134 1674.84,-118.7 1980.26,-135.68 2094,-98 2098.06,-96.66 2102.1,-94.65 2105.87,-92.43"/>
<polygon fill="midnightblue" stroke="midnightblue" points="2108.12,-95.14 2114.51,-86.68 2104.24,-89.31 2108.12,-95.14"/>
</g>
<!-- Node23&#45;&gt;Node20 -->
<g id="edge38" class="edge">
<title>Node23&#45;&gt;Node20</title>
<path fill="none" stroke="midnightblue" d="M1470.88,-141.64C1358.4,-137.38 1029.31,-123.07 925,-98 917.8,-96.27 910.3,-93.6 903.41,-90.76"/>
<polygon fill="midnightblue" stroke="midnightblue" points="904.45,-87.4 893.88,-86.59 901.64,-93.81 904.45,-87.4"/>
</g>
<!-- Node24 -->
<g id="node24" class="node">
<title>Node24</title>
<g id="a_node24"><a xlink:title=" ">
<polygon fill="white" stroke="#bfbfbf" points="1292,-67.5 1292,-86.5 1360,-86.5 1360,-67.5 1292,-67.5"/>
<text text-anchor="middle" x="1326" y="-74.5" font-family="Helvetica,sans-Serif" font-size="10.00">filesystem</text>
</a>
</g>
</g>
<!-- Node23&#45;&gt;Node24 -->
<g id="edge24" class="edge">
<title>Node23&#45;&gt;Node24</title>
<path fill="none" stroke="midnightblue" d="M1478.85,-134.49C1450.24,-126.14 1406.2,-112.57 1369,-98 1363.63,-95.9 1357.99,-93.45 1352.61,-91"/>
<polygon fill="midnightblue" stroke="midnightblue" points="1353.9,-87.74 1343.36,-86.67 1350.93,-94.08 1353.9,-87.74"/>
</g>
<!-- Node25 -->
<g id="node25" class="node">
<title>Node25</title>
<g id="a_node25"><a xlink:title=" ">
<polygon fill="white" stroke="#bfbfbf" points="1378.5,-67.5 1378.5,-86.5 1433.5,-86.5 1433.5,-67.5 1378.5,-67.5"/>
<text text-anchor="middle" x="1406" y="-74.5" font-family="Helvetica,sans-Serif" font-size="10.00">fstream</text>
</a>
</g>
</g>
<!-- Node23&#45;&gt;Node25 -->
<g id="edge25" class="edge">
<title>Node23&#45;&gt;Node25</title>
<path fill="none" stroke="midnightblue" d="M1495.11,-134.23C1477.97,-123.42 1448.6,-104.88 1428.29,-92.07"/>
<polygon fill="midnightblue" stroke="midnightblue" points="1430,-89 1419.67,-86.63 1426.26,-94.92 1430,-89"/>
</g>
<!-- Node26 -->
<g id="node26" class="node">
<title>Node26</title>
<g id="a_node26"><a xlink:title=" ">
<polygon fill="white" stroke="#bfbfbf" points="1452,-67.5 1452,-86.5 1500,-86.5 1500,-67.5 1452,-67.5"/>
<text text-anchor="middle" x="1476" y="-74.5" font-family="Helvetica,sans-Serif" font-size="10.00">gsl/gsl</text>
</a>
</g>
</g>
<!-- Node23&#45;&gt;Node26 -->
<g id="edge26" class="edge">
<title>Node23&#45;&gt;Node26</title>
<path fill="none" stroke="midnightblue" d="M1504.55,-134.23C1499.55,-124.39 1491.31,-108.16 1484.97,-95.66"/>
<polygon fill="midnightblue" stroke="midnightblue" points="1488.03,-93.96 1480.38,-86.63 1481.79,-97.13 1488.03,-93.96"/>
</g>
<!-- Node27 -->
<g id="node27" class="node">
<title>Node27</title>
<g id="a_node27"><a xlink:title=" ">
<polygon fill="white" stroke="#bfbfbf" points="1518,-67.5 1518,-86.5 1566,-86.5 1566,-67.5 1518,-67.5"/>
<text text-anchor="middle" x="1542" y="-74.5" font-family="Helvetica,sans-Serif" font-size="10.00">mutex</text>
</a>
</g>
</g>
<!-- Node23&#45;&gt;Node27 -->
<g id="edge27" class="edge">
<title>Node23&#45;&gt;Node27</title>
<path fill="none" stroke="midnightblue" d="M1513.45,-134.23C1518.45,-124.39 1526.69,-108.16 1533.03,-95.66"/>
<polygon fill="midnightblue" stroke="midnightblue" points="1536.21,-97.13 1537.62,-86.63 1529.97,-93.96 1536.21,-97.13"/>
</g>
<!-- Node28 -->
<g id="node28" class="node">
<title>Node28</title>
<g id="a_node28"><a xlink:title=" ">
<polygon fill="white" stroke="#bfbfbf" points="1584,-67.5 1584,-86.5 1638,-86.5 1638,-67.5 1584,-67.5"/>
<text text-anchor="middle" x="1611" y="-74.5" font-family="Helvetica,sans-Serif" font-size="10.00">random</text>
</a>
</g>
</g>
<!-- Node23&#45;&gt;Node28 -->
<g id="edge28" class="edge">
<title>Node23&#45;&gt;Node28</title>
<path fill="none" stroke="midnightblue" d="M1522.76,-134.23C1539.73,-123.42 1568.81,-104.88 1588.93,-92.07"/>
<polygon fill="midnightblue" stroke="midnightblue" points="1590.91,-94.95 1597.46,-86.63 1587.15,-89.05 1590.91,-94.95"/>
</g>
<!-- Node29 -->
<g id="node29" class="node">
<title>Node29</title>
<g id="a_node29"><a xlink:title=" ">
<polygon fill="white" stroke="#bfbfbf" points="1933,-67.5 1933,-86.5 1973,-86.5 1973,-67.5 1933,-67.5"/>
<text text-anchor="middle" x="1953" y="-74.5" font-family="Helvetica,sans-Serif" font-size="10.00">span</text>
</a>
</g>
</g>
<!-- Node23&#45;&gt;Node29 -->
<g id="edge29" class="edge">
<title>Node23&#45;&gt;Node29</title>
<path fill="none" stroke="midnightblue" d="M1547.17,-135.39C1550.15,-134.89 1553.12,-134.42 1556,-134 1718.65,-110.52 1769.66,-154.45 1924,-98 1927.72,-96.64 1931.42,-94.68 1934.86,-92.53"/>
<polygon fill="midnightblue" stroke="midnightblue" points="1937.1,-95.23 1943.24,-86.6 1933.06,-89.52 1937.1,-95.23"/>
</g>
<!-- Node30 -->
<g id="node30" class="node">
<title>Node30</title>
<g id="a_node30"><a xlink:title=" ">
<polygon fill="white" stroke="#bfbfbf" points="1656.5,-67.5 1656.5,-86.5 1721.5,-86.5 1721.5,-67.5 1656.5,-67.5"/>
<text text-anchor="middle" x="1689" y="-74.5" font-family="Helvetica,sans-Serif" font-size="10.00">stdexcept</text>
</a>
</g>
</g>
<!-- Node23&#45;&gt;Node30 -->
<g id="edge30" class="edge">
<title>Node23&#45;&gt;Node30</title>
<path fill="none" stroke="midnightblue" d="M1539.01,-134.44C1567.23,-126.1 1610.49,-112.57 1647,-98 1652.25,-95.9 1657.77,-93.46 1663.02,-91.01"/>
<polygon fill="midnightblue" stroke="midnightblue" points="1664.55,-94.16 1672.06,-86.68 1661.53,-87.85 1664.55,-94.16"/>
</g>
<!-- Node31 -->
<g id="node31" class="node">
<title>Node31</title>
<g id="a_node31"><a xlink:title=" ">
<polygon fill="white" stroke="#bfbfbf" points="1739.5,-67.5 1739.5,-86.5 1798.5,-86.5 1798.5,-67.5 1739.5,-67.5"/>
<text text-anchor="middle" x="1769" y="-74.5" font-family="Helvetica,sans-Serif" font-size="10.00">date/tz.h</text>
</a>
</g>
</g>
<!-- Node23&#45;&gt;Node31 -->
<g id="edge32" class="edge">
<title>Node23&#45;&gt;Node31</title>
<path fill="none" stroke="midnightblue" d="M1547.29,-135.53C1608.49,-123.55 1722.36,-101.08 1731,-98 1736.05,-96.2 1741.26,-93.83 1746.14,-91.36"/>
<polygon fill="midnightblue" stroke="midnightblue" points="1747.85,-94.42 1755,-86.6 1744.54,-88.25 1747.85,-94.42"/>
</g>
<!-- Node32 -->
<g id="node32" class="node">
<title>Node32</title>
<g id="a_node32"><a xlink:title=" ">
<polygon fill="white" stroke="#bfbfbf" points="1817,-67.5 1817,-86.5 1915,-86.5 1915,-67.5 1817,-67.5"/>
<text text-anchor="middle" x="1866" y="-74.5" font-family="Helvetica,sans-Serif" font-size="10.00">pcg_random.hpp</text>
</a>
</g>
</g>
<!-- Node23&#45;&gt;Node32 -->
<g id="edge33" class="edge">
<title>Node23&#45;&gt;Node32</title>
<path fill="none" stroke="midnightblue" d="M1547.19,-135.53C1550.17,-135 1553.13,-134.48 1556,-134 1667.59,-115.36 1698.02,-124.56 1808,-98 1816.78,-95.88 1826.11,-92.97 1834.66,-90.02"/>
<polygon fill="midnightblue" stroke="midnightblue" points="1836.02,-93.26 1844.26,-86.6 1833.66,-86.66 1836.02,-93.26"/>
</g>
<!-- Node33 -->
<g id="node33" class="node">
<title>Node33</title>
<g id="a_node33"><a xlink:title=" ">
<polygon fill="white" stroke="#bfbfbf" points="934,-67.5 934,-86.5 1020,-86.5 1020,-67.5 934,-67.5"/>
<text text-anchor="middle" x="977" y="-74.5" font-family="Helvetica,sans-Serif" font-size="10.00">fmt/ostream.h</text>
</a>
</g>
</g>
<!-- Node23&#45;&gt;Node33 -->
<g id="edge34" class="edge">
<title>Node23&#45;&gt;Node33</title>
<path fill="none" stroke="midnightblue" d="M1470.78,-142.94C1388.75,-142.05 1190.14,-135.79 1029,-98 1021.14,-96.16 1012.88,-93.39 1005.32,-90.5"/>
<polygon fill="midnightblue" stroke="midnightblue" points="1006.45,-87.18 995.87,-86.69 1003.83,-93.68 1006.45,-87.18"/>
</g>
<!-- Node34 -->
<g id="node34" class="node">
<title>Node34</title>
<g id="a_node34"><a xlink:title=" ">
<polygon fill="white" stroke="#bfbfbf" points="1038,-62 1038,-92 1144,-92 1144,-62 1038,-62"/>
<text text-anchor="start" x="1046" y="-80" font-family="Helvetica,sans-Serif" font-size="10.00">spdlog/sinks/basic</text>
<text text-anchor="middle" x="1091" y="-69" font-family="Helvetica,sans-Serif" font-size="10.00">_file_sink.h</text>
</a>
</g>
</g>
<!-- Node23&#45;&gt;Node34 -->
<g id="edge35" class="edge">
<title>Node23&#45;&gt;Node34</title>
<path fill="none" stroke="midnightblue" d="M1470.93,-140.53C1405.36,-135.75 1267.17,-123.4 1153,-98 1148.9,-97.09 1144.69,-96.02 1140.48,-94.86"/>
<polygon fill="midnightblue" stroke="midnightblue" points="1141.3,-91.45 1130.72,-92.02 1139.34,-98.18 1141.3,-91.45"/>
</g>
<!-- Node35 -->
<g id="node35" class="node">
<title>Node35</title>
<g id="a_node35"><a xlink:title=" ">
<polygon fill="white" stroke="#bfbfbf" points="1162.5,-62 1162.5,-92 1273.5,-92 1273.5,-62 1162.5,-62"/>
<text text-anchor="start" x="1170.5" y="-80" font-family="Helvetica,sans-Serif" font-size="10.00">spdlog/sinks/stdout</text>
<text text-anchor="middle" x="1218" y="-69" font-family="Helvetica,sans-Serif" font-size="10.00">_color_sinks.h</text>
</a>
</g>
</g>
<!-- Node23&#45;&gt;Node35 -->
<g id="edge36" class="edge">
<title>Node23&#45;&gt;Node35</title>
<path fill="none" stroke="midnightblue" d="M1470.75,-136.61C1425.59,-128.79 1348.36,-114.52 1283,-98 1279.18,-97.04 1275.25,-95.98 1271.31,-94.88"/>
<polygon fill="midnightblue" stroke="midnightblue" points="1272.11,-91.47 1261.53,-92.06 1270.17,-98.19 1272.11,-91.47"/>
</g>
<!-- Node36&#45;&gt;Node10 -->
<g id="edge41" class="edge">
<title>Node36&#45;&gt;Node10</title>
<path fill="none" stroke="midnightblue" d="M1538.48,-197.09C1363.08,-190.5 793.82,-168.42 672.91,-153.83"/>
<polygon fill="midnightblue" stroke="midnightblue" points="673.02,-150.31 662.64,-152.44 672.08,-157.25 673.02,-150.31"/>
</g>
<!-- Node36&#45;&gt;Node20 -->
<g id="edge44" class="edge">
<title>Node36&#45;&gt;Node20</title>
<path fill="none" stroke="midnightblue" d="M1538.21,-195.45C1425.1,-186.78 1148.23,-160.44 925,-98 918.11,-96.07 910.88,-93.42 904.19,-90.68"/>
<polygon fill="midnightblue" stroke="midnightblue" points="905.43,-87.4 894.86,-86.67 902.67,-93.83 905.43,-87.4"/>
</g>
<!-- Node36&#45;&gt;Node23 -->
<g id="edge45" class="edge">
<title>Node36&#45;&gt;Node23</title>
<path fill="none" stroke="midnightblue" d="M1576.99,-190.32C1564.47,-181.98 1545.32,-169.21 1530.53,-159.35"/>
<polygon fill="midnightblue" stroke="midnightblue" points="1532.24,-156.29 1521.98,-153.65 1528.36,-162.11 1532.24,-156.29"/>
</g>
<!-- Node36&#45;&gt;Node29 -->
<g id="edge43" class="edge">
<title>Node36&#45;&gt;Node29</title>
<path fill="none" stroke="midnightblue" d="M1607.73,-190.48C1636.69,-176.86 1696.22,-150.07 1749,-134 1824.97,-110.88 1850.96,-129.16 1924,-98 1927.42,-96.54 1930.86,-94.64 1934.1,-92.6"/>
<polygon fill="midnightblue" stroke="midnightblue" points="1936.38,-95.28 1942.59,-86.7 1932.38,-89.54 1936.38,-95.28"/>
</g>
<!-- Node37 -->
<g id="node37" class="node">
<title>Node37</title>
<g id="a_node37"><a xlink:title=" ">
<polygon fill="white" stroke="#bfbfbf" points="1633,-134.5 1633,-153.5 1675,-153.5 1675,-134.5 1633,-134.5"/>
<text text-anchor="middle" x="1654" y="-141.5" font-family="Helvetica,sans-Serif" font-size="10.00">array</text>
</a>
</g>
</g>
<!-- Node36&#45;&gt;Node37 -->
<g id="edge40" class="edge">
<title>Node36&#45;&gt;Node37</title>
<path fill="none" stroke="midnightblue" d="M1600.28,-190.32C1609.84,-182.26 1624.28,-170.08 1635.78,-160.37"/>
<polygon fill="midnightblue" stroke="midnightblue" points="1638.14,-162.96 1643.53,-153.83 1633.63,-157.61 1638.14,-162.96"/>
</g>
<!-- Node38 -->
<g id="node38" class="node">
<title>Node38</title>
<g id="a_node38"><a xlink:title=" ">
<polygon fill="white" stroke="#bfbfbf" points="1565,-134.5 1565,-153.5 1615,-153.5 1615,-134.5 1565,-134.5"/>
<text text-anchor="middle" x="1590" y="-141.5" font-family="Helvetica,sans-Serif" font-size="10.00">gsl/util</text>
</a>
</g>
</g>
<!-- Node36&#45;&gt;Node38 -->
<g id="edge42" class="edge">
<title>Node36&#45;&gt;Node38</title>
<path fill="none" stroke="midnightblue" d="M1590,-190.08C1590,-183.01 1590,-172.86 1590,-163.99"/>
<polygon fill="midnightblue" stroke="midnightblue" points="1593.5,-163.75 1590,-153.75 1586.5,-163.75 1593.5,-163.75"/>
</g>
</g>
</svg>
        <g id="navigator" transform="translate(0 0)" fill="#404254">
                <rect fill="#f2f5e9" fill-opacity="0.5" stroke="#606060" stroke-width=".5" x="0" y="0" width="60" height="60"/>
                <use id="zoomplus" xlink:href="#zoomPlus" x="17" y="9" onmousedown="handleZoom(evt,'in')"/>
                <use id="zoomminus" xlink:href="#zoomMin" x="42" y="9" onmousedown="handleZoom(evt,'out')"/>
                <use id="reset" xlink:href="#resetDef" x="30" y="36" onmousedown="handleReset()"/>
                <g id="arrowUp" xlink:href="#dirArrow" transform="translate(30 24)" onmousedown="handlePan(0,-1)">
                  <use xlink:href="#rim" fill="#404040">
                        <set attributeName="fill" to="#808080" begin="arrowUp.mouseover" end="arrowUp.mouseout"/>
                  </use>
                  <path fill="none" stroke="white" stroke-width="1.5" d="M0,-3.0v7 M-2.5,-0.5L0,-3.0L2.5,-0.5"/>
                </g>
                <g id="arrowRight" xlink:href="#dirArrow" transform="rotate(90) translate(36 -43)" onmousedown="handlePan(1,0)">
                  <use xlink:href="#rim" fill="#404040">
                        <set attributeName="fill" to="#808080" begin="arrowRight.mouseover" end="arrowRight.mouseout"/>
                  </use>
                  <path fill="none" stroke="white" stroke-width="1.5" d="M0,-3.0v7 M-2.5,-0.5L0,-3.0L2.5,-0.5"/>
                </g>
                <g id="arrowDown" xlink:href="#dirArrow" transform="rotate(180) translate(-30 -48)" onmousedown="handlePan(0,1)">
                  <use xlink:href="#rim" fill="#404040">
                        <set attributeName="fill" to="#808080" begin="arrowDown.mouseover" end="arrowDown.mouseout"/>
                  </use>
                  <path fill="none" stroke="white" stroke-width="1.5" d="M0,-3.0v7 M-2.5,-0.5L0,-3.0L2.5,-0.5"/>
                </g>
                <g id="arrowLeft" xlink:href="#dirArrow" transform="rotate(270) translate(-36 17)" onmousedown="handlePan(-1,0)">
                  <use xlink:href="#rim" fill="#404040">
                        <set attributeName="fill" to="#808080" begin="arrowLeft.mouseover" end="arrowLeft.mouseout"/>
                  </use>
                  <path fill="none" stroke="white" stroke-width="1.5" d="M0,-3.0v7 M-2.5,-0.5L0,-3.0L2.5,-0.5"/>
                </g>
        </g>
        <svg viewBox="0 0 15 15" width="100%" height="30px" preserveAspectRatio="xMaxYMin meet">
         <g id="arrow_out" transform="scale(0.3 0.3)">
          <a xlink:href="_move__always_8hpp__incl_org.svg" target="_base">
           <rect id="button" ry="5" rx="5" y="6" x="6" height="38" width="38"
                fill="#f2f5e9" fill-opacity="0.5" stroke="#606060" stroke-width="1.0"/>
           <path id="arrow"
             d="M 11.500037,31.436501 C 11.940474,20.09759 22.043105,11.32322 32.158766,21.979434 L 37.068811,17.246167 C 37.068811,17.246167 37.088388,32 37.088388,32 L 22.160133,31.978069 C 22.160133,31.978069 26.997745,27.140456 26.997745,27.140456 C 18.528582,18.264221 13.291696,25.230495 11.500037,31.436501 z"
             style="fill:#404040;"/>
          </a>
         </g>
        </svg>
</svg>
