<?xml version="1.0" encoding="UTF-8" standalone="no"?>
<!DOCTYPE svg PUBLIC "-//W3C//DTD SVG 1.1//EN"
 "http://www.w3.org/Graphics/SVG/1.1/DTD/svg11.dtd">
<!-- Generated by graphviz version 2.40.1 (20161225.0304)
 -->
<!-- Title: include/Periodic_3_triangulations.hpp Pages: 1 -->
<svg width="1172pt" height="117pt"
 viewBox="0.00 0.00 1172.00 117.00" xmlns="http://www.w3.org/2000/svg" xmlns:xlink="http://www.w3.org/1999/xlink">
<g id="graph0" class="graph" transform="scale(1 1) rotate(0) translate(4 113)">
<title>include/Periodic_3_triangulations.hpp</title>
<polygon fill="#ffffff" stroke="transparent" points="-4,4 -4,-113 1168,-113 1168,4 -4,4"/>
<!-- Node0 -->
<g id="node1" class="node">
<title>Node0</title>
<polygon fill="#bfbfbf" stroke="#000000" points="658.5,-78.5 658.5,-108.5 768.5,-108.5 768.5,-78.5 658.5,-78.5"/>
<text text-anchor="start" x="666.5" y="-96.5" font-family="Helvetica,sans-Serif" font-size="10.00" fill="#000000">include/Periodic_3</text>
<text text-anchor="middle" x="713.5" y="-85.5" font-family="Helvetica,sans-Serif" font-size="10.00" fill="#000000">_triangulations.hpp</text>
</g>
<!-- Node1 -->
<g id="node2" class="node">
<title>Node1</title>
<polygon fill="#ffffff" stroke="#bfbfbf" points="0,-.5 0,-41.5 129,-41.5 129,-.5 0,-.5"/>
<text text-anchor="start" x="8" y="-29.5" font-family="Helvetica,sans-Serif" font-size="10.00" fill="#000000">CGAL/Exact_predicates</text>
<text text-anchor="start" x="8" y="-18.5" font-family="Helvetica,sans-Serif" font-size="10.00" fill="#000000">_inexact_constructions</text>
<text text-anchor="middle" x="64.5" y="-7.5" font-family="Helvetica,sans-Serif" font-size="10.00" fill="#000000">_kernel.h</text>
</g>
<!-- Node0&#45;&gt;Node1 -->
<g id="edge1" class="edge">
<title>Node0&#45;&gt;Node1</title>
<path fill="none" stroke="#191970" d="M658.3316,-91.9885C557.0672,-88.4703 334.7707,-77.2925 139.1911,-41.9444"/>
<polygon fill="#191970" stroke="#191970" points="139.7766,-38.4935 129.3095,-40.1334 138.5147,-45.3788 139.7766,-38.4935"/>
</g>
<!-- Node2 -->
<g id="node3" class="node">
<title>Node2</title>
<polygon fill="#ffffff" stroke="#bfbfbf" points="147.5,-6 147.5,-36 295.5,-36 295.5,-6 147.5,-6"/>
<text text-anchor="start" x="155.5" y="-24" font-family="Helvetica,sans-Serif" font-size="10.00" fill="#000000">CGAL/Periodic_3_Delaunay</text>
<text text-anchor="middle" x="221.5" y="-13" font-family="Helvetica,sans-Serif" font-size="10.00" fill="#000000">_triangulation_3.h</text>
</g>
<!-- Node0&#45;&gt;Node2 -->
<g id="edge2" class="edge">
<title>Node0&#45;&gt;Node2</title>
<path fill="none" stroke="#191970" d="M658.2576,-88.712C579.3532,-81.3827 430.0322,-65.6915 304.5,-42 298.7923,-40.9228 292.8931,-39.6851 286.9938,-38.3611"/>
<polygon fill="#191970" stroke="#191970" points="287.6321,-34.9162 277.0996,-36.0643 286.0492,-41.7349 287.6321,-34.9162"/>
</g>
<!-- Node3 -->
<g id="node4" class="node">
<title>Node3</title>
<polygon fill="#ffffff" stroke="#bfbfbf" points="313.5,-6 313.5,-36 477.5,-36 477.5,-6 313.5,-6"/>
<text text-anchor="start" x="321.5" y="-24" font-family="Helvetica,sans-Serif" font-size="10.00" fill="#000000">CGAL/Periodic_3_triangulation</text>
<text text-anchor="middle" x="395.5" y="-13" font-family="Helvetica,sans-Serif" font-size="10.00" fill="#000000">_filtered_traits_3.h</text>
</g>
<!-- Node0&#45;&gt;Node3 -->
<g id="edge3" class="edge">
<title>Node0&#45;&gt;Node3</title>
<path fill="none" stroke="#191970" d="M658.4431,-81.069C612.4646,-70.6734 545.1957,-55.4307 486.5,-42 481.2645,-40.802 475.8603,-39.5624 470.4186,-38.3121"/>
<polygon fill="#191970" stroke="#191970" points="471.1418,-34.8871 460.6117,-36.0566 469.5727,-41.709 471.1418,-34.8871"/>
</g>
<!-- Node4 -->
<g id="node5" class="node">
<title>Node4</title>
<polygon fill="#ffffff" stroke="#bfbfbf" points="495.5,-6 495.5,-36 647.5,-36 647.5,-6 495.5,-6"/>
<text text-anchor="start" x="503.5" y="-24" font-family="Helvetica,sans-Serif" font-size="10.00" fill="#000000">CGAL/Triangulation</text>
<text text-anchor="middle" x="571.5" y="-13" font-family="Helvetica,sans-Serif" font-size="10.00" fill="#000000">_vertex_base_with_info_3.h</text>
</g>
<!-- Node0&#45;&gt;Node4 -->
<g id="edge4" class="edge">
<title>Node0&#45;&gt;Node4</title>
<path fill="none" stroke="#191970" d="M684.0775,-78.478C662.5627,-67.4933 633.1835,-52.4933 609.8326,-40.5712"/>
<polygon fill="#191970" stroke="#191970" points="611.3827,-37.4329 600.8848,-36.0028 608.1996,-43.6673 611.3827,-37.4329"/>
</g>
<!-- Node5 -->
<g id="node6" class="node">
<title>Node5</title>
<polygon fill="#ffffff" stroke="#bfbfbf" points="666,-11.5 666,-30.5 761,-30.5 761,-11.5 666,-11.5"/>
<text text-anchor="middle" x="713.5" y="-18.5" font-family="Helvetica,sans-Serif" font-size="10.00" fill="#000000">CGAL/Random.h</text>
</g>
<!-- Node0&#45;&gt;Node5 -->
<g id="edge5" class="edge">
<title>Node0&#45;&gt;Node5</title>
<path fill="none" stroke="#191970" d="M713.5,-78.478C713.5,-67.6657 713.5,-52.9631 713.5,-41.1348"/>
<polygon fill="#191970" stroke="#191970" points="717.0001,-40.8956 713.5,-30.8957 710.0001,-40.8957 717.0001,-40.8956"/>
</g>
<!-- Node6 -->
<g id="node7" class="node">
<title>Node6</title>
<polygon fill="#ffffff" stroke="#bfbfbf" points="779,-11.5 779,-30.5 862,-30.5 862,-11.5 779,-11.5"/>
<text text-anchor="middle" x="820.5" y="-18.5" font-family="Helvetica,sans-Serif" font-size="10.00" fill="#000000">CGAL/Timer.h</text>
</g>
<!-- Node0&#45;&gt;Node6 -->
<g id="edge6" class="edge">
<title>Node0&#45;&gt;Node6</title>
<path fill="none" stroke="#191970" d="M735.6705,-78.478C753.8717,-66.1453 779.5427,-48.7514 797.8686,-36.3344"/>
<polygon fill="#191970" stroke="#191970" points="799.8946,-39.1894 806.21,-30.6825 795.9681,-33.3944 799.8946,-39.1894"/>
</g>
<!-- Node7 -->
<g id="node8" class="node">
<title>Node7</title>
<polygon fill="#ffffff" stroke="#bfbfbf" points="880,-11.5 880,-30.5 1029,-30.5 1029,-11.5 880,-11.5"/>
<text text-anchor="middle" x="954.5" y="-18.5" font-family="Helvetica,sans-Serif" font-size="10.00" fill="#000000">CGAL/point_generators_2.h</text>
</g>
<!-- Node0&#45;&gt;Node7 -->
<g id="edge7" class="edge">
<title>Node0&#45;&gt;Node7</title>
<path fill="none" stroke="#191970" d="M763.4354,-78.478C807.6327,-65.1821 871.3852,-46.0034 912.8796,-33.5207"/>
<polygon fill="#191970" stroke="#191970" points="914.0983,-36.8091 922.6661,-30.5766 912.0817,-30.1058 914.0983,-36.8091"/>
</g>
<!-- Node8 -->
<g id="node9" class="node">
<title>Node8</title>
<polygon fill="#ffffff" stroke="#bfbfbf" points="1046.5,-11.5 1046.5,-30.5 1098.5,-30.5 1098.5,-11.5 1046.5,-11.5"/>
<text text-anchor="middle" x="1072.5" y="-18.5" font-family="Helvetica,sans-Serif" font-size="10.00" fill="#000000">cassert</text>
</g>
<!-- Node0&#45;&gt;Node8 -->
<g id="edge8" class="edge">
<title>Node0&#45;&gt;Node8</title>
<path fill="none" stroke="#191970" d="M768.6456,-91.3692C834.6722,-87.336 947.714,-75.678 1038.5,-42 1042.6712,-40.4527 1046.886,-38.3629 1050.8609,-36.0995"/>
<polygon fill="#191970" stroke="#191970" points="1052.9292,-38.9346 1059.5668,-30.6767 1049.2282,-32.993 1052.9292,-38.9346"/>
</g>
<!-- Node9 -->
<g id="node10" class="node">
<title>Node9</title>
<polygon fill="#ffffff" stroke="#bfbfbf" points="1117,-11.5 1117,-30.5 1164,-30.5 1164,-11.5 1117,-11.5"/>
<text text-anchor="middle" x="1140.5" y="-18.5" font-family="Helvetica,sans-Serif" font-size="10.00" fill="#000000">vector</text>
</g>
<!-- Node0&#45;&gt;Node9 -->
<g id="edge9" class="edge">
<title>Node0&#45;&gt;Node9</title>
<path fill="none" stroke="#191970" d="M768.856,-89.2453C862.1438,-81.5798 1046.4682,-64.1644 1107.5,-42 1111.6649,-40.4875 1115.8505,-38.3817 1119.7757,-36.0834"/>
<polygon fill="#191970" stroke="#191970" points="1121.8276,-38.9247 1128.3297,-30.5597 1118.0303,-33.0442 1121.8276,-38.9247"/>
</g>
</g>
</svg>
