<?xml version="1.0" encoding="UTF-8" standalone="no"?>
<!DOCTYPE svg PUBLIC "-//W3C//DTD SVG 1.1//EN"
 "http://www.w3.org/Graphics/SVG/1.1/DTD/svg11.dtd">
<!-- Generated by graphviz version 2.43.0 (0)
 -->
<!-- Title: include/Periodic_3_complex.hpp Pages: 1 -->
<svg width="1003pt" height="117pt"
 viewBox="0.00 0.00 1003.00 117.00" xmlns="http://www.w3.org/2000/svg" xmlns:xlink="http://www.w3.org/1999/xlink">
<g id="graph0" class="graph" transform="scale(1 1) rotate(0) translate(4 113)">
<title>include/Periodic_3_complex.hpp</title>
<polygon fill="white" stroke="transparent" points="-4,4 -4,-113 999,-113 999,4 -4,4"/>
<!-- Node1 -->
<g id="node1" class="node">
<title>Node1</title>
<g id="a_node1"><a xlink:title="Toroidal simplicial complexes.">
<polygon fill="#bfbfbf" stroke="black" points="588,-78.5 588,-108.5 693,-108.5 693,-78.5 588,-78.5"/>
<text text-anchor="start" x="596" y="-96.5" font-family="Helvetica,sans-Serif" font-size="10.00">include/Periodic_3</text>
<text text-anchor="middle" x="640.5" y="-85.5" font-family="Helvetica,sans-Serif" font-size="10.00">_complex.hpp</text>
</a>
</g>
</g>
<!-- Node2 -->
<g id="node2" class="node">
<title>Node2</title>
<g id="a_node2"><a xlink:title=" ">
<polygon fill="white" stroke="#bfbfbf" points="0,-0.5 0,-41.5 129,-41.5 129,-0.5 0,-0.5"/>
<text text-anchor="start" x="8" y="-29.5" font-family="Helvetica,sans-Serif" font-size="10.00">CGAL/Exact_predicates</text>
<text text-anchor="start" x="8" y="-18.5" font-family="Helvetica,sans-Serif" font-size="10.00">_inexact_constructions</text>
<text text-anchor="middle" x="64.5" y="-7.5" font-family="Helvetica,sans-Serif" font-size="10.00">_kernel.h</text>
</a>
</g>
</g>
<!-- Node1&#45;&gt;Node2 -->
<g id="edge1" class="edge">
<title>Node1&#45;&gt;Node2</title>
<path fill="none" stroke="midnightblue" d="M587.71,-90.04C497.58,-85.21 308.25,-72.38 139.4,-42"/>
<polygon fill="midnightblue" stroke="midnightblue" points="139.8,-38.52 129.33,-40.17 138.54,-45.4 139.8,-38.52"/>
</g>
<!-- Node3 -->
<g id="node3" class="node">
<title>Node3</title>
<g id="a_node3"><a xlink:title=" ">
<polygon fill="white" stroke="#bfbfbf" points="147.5,-6 147.5,-36 295.5,-36 295.5,-6 147.5,-6"/>
<text text-anchor="start" x="155.5" y="-24" font-family="Helvetica,sans-Serif" font-size="10.00">CGAL/Periodic_3_Delaunay</text>
<text text-anchor="middle" x="221.5" y="-13" font-family="Helvetica,sans-Serif" font-size="10.00">_triangulation_3.h</text>
</a>
</g>
</g>
<!-- Node1&#45;&gt;Node3 -->
<g id="edge2" class="edge">
<title>Node1&#45;&gt;Node3</title>
<path fill="none" stroke="midnightblue" d="M587.88,-86.04C521.53,-77.56 404.08,-61.44 304.5,-42 298.72,-40.87 292.74,-39.61 286.75,-38.29"/>
<polygon fill="midnightblue" stroke="midnightblue" points="287.24,-34.81 276.71,-36.02 285.69,-41.64 287.24,-34.81"/>
</g>
<!-- Node4 -->
<g id="node4" class="node">
<title>Node4</title>
<g id="a_node4"><a xlink:title=" ">
<polygon fill="white" stroke="#bfbfbf" points="313.5,-6 313.5,-36 477.5,-36 477.5,-6 313.5,-6"/>
<text text-anchor="start" x="321.5" y="-24" font-family="Helvetica,sans-Serif" font-size="10.00">CGAL/Periodic_3_triangulation</text>
<text text-anchor="middle" x="395.5" y="-13" font-family="Helvetica,sans-Serif" font-size="10.00">_traits_3.h</text>
</a>
</g>
</g>
<!-- Node1&#45;&gt;Node4 -->
<g id="edge3" class="edge">
<title>Node1&#45;&gt;Node4</title>
<path fill="none" stroke="midnightblue" d="M591.8,-78.49C552.27,-67.11 496.39,-51.03 454.35,-38.93"/>
<polygon fill="midnightblue" stroke="midnightblue" points="455.1,-35.51 444.52,-36.11 453.17,-42.24 455.1,-35.51"/>
</g>
<!-- Node5 -->
<g id="node5" class="node">
<title>Node5</title>
<g id="a_node5"><a xlink:title=" ">
<polygon fill="white" stroke="#bfbfbf" points="496,-11.5 496,-30.5 645,-30.5 645,-11.5 496,-11.5"/>
<text text-anchor="middle" x="570.5" y="-18.5" font-family="Helvetica,sans-Serif" font-size="10.00">CGAL/point_generators_3.h</text>
</a>
</g>
</g>
<!-- Node1&#45;&gt;Node5 -->
<g id="edge4" class="edge">
<title>Node1&#45;&gt;Node5</title>
<path fill="none" stroke="midnightblue" d="M626.33,-78.23C614.8,-66.62 598.52,-50.22 586.51,-38.12"/>
<polygon fill="midnightblue" stroke="midnightblue" points="588.86,-35.52 579.33,-30.89 583.89,-40.46 588.86,-35.52"/>
</g>
<!-- Node6 -->
<g id="node6" class="node">
<title>Node6</title>
<g id="a_node6"><a xlink:title=" ">
<polygon fill="white" stroke="#bfbfbf" points="663,-11.5 663,-30.5 758,-30.5 758,-11.5 663,-11.5"/>
<text text-anchor="middle" x="710.5" y="-18.5" font-family="Helvetica,sans-Serif" font-size="10.00">CGAL/Random.h</text>
</a>
</g>
</g>
<!-- Node1&#45;&gt;Node6 -->
<g id="edge5" class="edge">
<title>Node1&#45;&gt;Node6</title>
<path fill="none" stroke="midnightblue" d="M654.67,-78.23C666.2,-66.62 682.48,-50.22 694.49,-38.12"/>
<polygon fill="midnightblue" stroke="midnightblue" points="697.11,-40.46 701.67,-30.89 692.14,-35.52 697.11,-40.46"/>
</g>
<!-- Node7 -->
<g id="node7" class="node">
<title>Node7</title>
<g id="a_node7"><a xlink:title=" ">
<polygon fill="white" stroke="#bfbfbf" points="776,-11.5 776,-30.5 859,-30.5 859,-11.5 776,-11.5"/>
<text text-anchor="middle" x="817.5" y="-18.5" font-family="Helvetica,sans-Serif" font-size="10.00">CGAL/Timer.h</text>
</a>
</g>
</g>
<!-- Node1&#45;&gt;Node7 -->
<g id="edge6" class="edge">
<title>Node1&#45;&gt;Node7</title>
<path fill="none" stroke="midnightblue" d="M675.82,-78.48C701.3,-68.35 736.53,-54.35 767.5,-42 773.65,-39.55 780.23,-36.92 786.53,-34.4"/>
<polygon fill="midnightblue" stroke="midnightblue" points="788.11,-37.54 796.09,-30.57 785.51,-31.04 788.11,-37.54"/>
</g>
<!-- Node8 -->
<g id="node8" class="node">
<title>Node8</title>
<g id="a_node8"><a xlink:title=" ">
<polygon fill="white" stroke="#bfbfbf" points="877.5,-11.5 877.5,-30.5 929.5,-30.5 929.5,-11.5 877.5,-11.5"/>
<text text-anchor="middle" x="903.5" y="-18.5" font-family="Helvetica,sans-Serif" font-size="10.00">cassert</text>
</a>
</g>
</g>
<!-- Node1&#45;&gt;Node8 -->
<g id="edge7" class="edge">
<title>Node1&#45;&gt;Node8</title>
<path fill="none" stroke="midnightblue" d="M693.42,-85.41C740.5,-78.02 810.64,-64.35 868.5,-42 872.95,-40.28 877.52,-38.06 881.82,-35.72"/>
<polygon fill="midnightblue" stroke="midnightblue" points="883.78,-38.63 890.67,-30.58 880.26,-32.58 883.78,-38.63"/>
</g>
<!-- Node9 -->
<g id="node9" class="node">
<title>Node9</title>
<g id="a_node9"><a xlink:title=" ">
<polygon fill="white" stroke="#bfbfbf" points="948,-11.5 948,-30.5 995,-30.5 995,-11.5 948,-11.5"/>
<text text-anchor="middle" x="971.5" y="-18.5" font-family="Helvetica,sans-Serif" font-size="10.00">vector</text>
</a>
</g>
</g>
<!-- Node1&#45;&gt;Node9 -->
<g id="edge8" class="edge">
<title>Node1&#45;&gt;Node9</title>
<path fill="none" stroke="midnightblue" d="M693.19,-89.56C753.97,-84.82 856.13,-72.66 938.5,-42 942.74,-40.42 947.04,-38.29 951.07,-36"/>
<polygon fill="midnightblue" stroke="midnightblue" points="953.18,-38.8 959.83,-30.56 949.49,-32.85 953.18,-38.8"/>
</g>
</g>
</svg>
