<?xml version="1.0" encoding="UTF-8" standalone="no"?>
<!DOCTYPE svg PUBLIC "-//W3C//DTD SVG 1.1//EN"
 "http://www.w3.org/Graphics/SVG/1.1/DTD/svg11.dtd">
<!-- Generated by graphviz version 2.43.0 (0)
 -->
<!-- Title: include/Periodic_3_triangulations.hpp Pages: 1 -->
<svg width="1173pt" height="115pt"
 viewBox="0.00 0.00 1173.00 115.00" xmlns="http://www.w3.org/2000/svg" xmlns:xlink="http://www.w3.org/1999/xlink">
<g id="graph0" class="graph" transform="scale(1 1) rotate(0) translate(4 111)">
<title>include/Periodic_3_triangulations.hpp</title>
<!-- Node1 -->
<g id="node1" class="node">
<title>Node1</title>
<g id="a_node1"><a xlink:title="Toroidal 3D triangulations.">
<polygon fill="#999999" stroke="#666666" points="765.5,-107 655.5,-107 655.5,-77 765.5,-77 765.5,-107"/>
<text text-anchor="start" x="663.5" y="-95" font-family="Helvetica,sans-Serif" font-size="10.00">include/Periodic_3</text>
<text text-anchor="middle" x="710.5" y="-84" font-family="Helvetica,sans-Serif" font-size="10.00">_triangulations.hpp</text>
</a>
</g>
</g>
<!-- Node2 -->
<g id="node2" class="node">
<title>Node2</title>
<g id="a_node2"><a xlink:title=" ">
<polygon fill="#e0e0e0" stroke="#999999" points="129,-41 0,-41 0,0 129,0 129,-41"/>
<text text-anchor="start" x="8" y="-29" font-family="Helvetica,sans-Serif" font-size="10.00">CGAL/Exact_predicates</text>
<text text-anchor="start" x="8" y="-18" font-family="Helvetica,sans-Serif" font-size="10.00">_inexact_constructions</text>
<text text-anchor="middle" x="64.5" y="-7" font-family="Helvetica,sans-Serif" font-size="10.00">_kernel.h</text>
</a>
</g>
</g>
<!-- Node1&#45;&gt;Node2 -->
<g id="edge1" class="edge">
<title>Node1&#45;&gt;Node2</title>
<path fill="none" stroke="#63b8ff" d="M655.28,-89.3C554.5,-85.52 334.02,-74.11 139.46,-41"/>
<polygon fill="#63b8ff" stroke="#63b8ff" points="139.78,-37.5 129.33,-39.25 138.59,-44.4 139.78,-37.5"/>
</g>
<!-- Node3 -->
<g id="node3" class="node">
<title>Node3</title>
<g id="a_node3"><a xlink:title=" ">
<polygon fill="#e0e0e0" stroke="#999999" points="295.5,-35.5 147.5,-35.5 147.5,-5.5 295.5,-5.5 295.5,-35.5"/>
<text text-anchor="start" x="155.5" y="-23.5" font-family="Helvetica,sans-Serif" font-size="10.00">CGAL/Periodic_3_Delaunay</text>
<text text-anchor="middle" x="221.5" y="-12.5" font-family="Helvetica,sans-Serif" font-size="10.00">_triangulation_3.h</text>
</a>
</g>
</g>
<!-- Node1&#45;&gt;Node3 -->
<g id="edge2" class="edge">
<title>Node1&#45;&gt;Node3</title>
<path fill="none" stroke="#63b8ff" d="M655.38,-86.12C577.03,-78.75 429.12,-63.25 304.5,-41 299.04,-40.02 293.39,-38.92 287.74,-37.74"/>
<polygon fill="#63b8ff" stroke="#63b8ff" points="288.1,-34.23 277.58,-35.54 286.62,-41.08 288.1,-34.23"/>
</g>
<!-- Node4 -->
<g id="node4" class="node">
<title>Node4</title>
<g id="a_node4"><a xlink:title=" ">
<polygon fill="#e0e0e0" stroke="#999999" points="477.5,-35.5 313.5,-35.5 313.5,-5.5 477.5,-5.5 477.5,-35.5"/>
<text text-anchor="start" x="321.5" y="-23.5" font-family="Helvetica,sans-Serif" font-size="10.00">CGAL/Periodic_3_triangulation</text>
<text text-anchor="middle" x="395.5" y="-12.5" font-family="Helvetica,sans-Serif" font-size="10.00">_filtered_traits_3.h</text>
</a>
</g>
</g>
<!-- Node1&#45;&gt;Node4 -->
<g id="edge3" class="edge">
<title>Node1&#45;&gt;Node4</title>
<path fill="none" stroke="#63b8ff" d="M655.27,-78.81C603.59,-67.41 526.02,-50.3 469.1,-37.74"/>
<polygon fill="#63b8ff" stroke="#63b8ff" points="469.6,-34.26 459.08,-35.53 468.09,-41.1 469.6,-34.26"/>
</g>
<!-- Node5 -->
<g id="node5" class="node">
<title>Node5</title>
<g id="a_node5"><a xlink:title=" ">
<polygon fill="#e0e0e0" stroke="#999999" points="645,-30 496,-30 496,-11 645,-11 645,-30"/>
<text text-anchor="middle" x="570.5" y="-18" font-family="Helvetica,sans-Serif" font-size="10.00">CGAL/point_generators_2.h</text>
</a>
</g>
</g>
<!-- Node1&#45;&gt;Node5 -->
<g id="edge4" class="edge">
<title>Node1&#45;&gt;Node5</title>
<path fill="none" stroke="#63b8ff" d="M682.17,-76.94C657.2,-64.54 621.11,-46.62 596.77,-34.54"/>
<polygon fill="#63b8ff" stroke="#63b8ff" points="598.27,-31.38 587.76,-30.07 595.16,-37.65 598.27,-31.38"/>
</g>
<!-- Node6 -->
<g id="node6" class="node">
<title>Node6</title>
<g id="a_node6"><a xlink:title=" ">
<polygon fill="#e0e0e0" stroke="#999999" points="758,-30 663,-30 663,-11 758,-11 758,-30"/>
<text text-anchor="middle" x="710.5" y="-18" font-family="Helvetica,sans-Serif" font-size="10.00">CGAL/Random.h</text>
</a>
</g>
</g>
<!-- Node1&#45;&gt;Node6 -->
<g id="edge5" class="edge">
<title>Node1&#45;&gt;Node6</title>
<path fill="none" stroke="#63b8ff" d="M710.5,-76.94C710.5,-66.46 710.5,-52.05 710.5,-40.55"/>
<polygon fill="#63b8ff" stroke="#63b8ff" points="714,-40.27 710.5,-30.27 707,-40.27 714,-40.27"/>
</g>
<!-- Node7 -->
<g id="node7" class="node">
<title>Node7</title>
<g id="a_node7"><a xlink:title=" ">
<polygon fill="#e0e0e0" stroke="#999999" points="859,-30 776,-30 776,-11 859,-11 859,-30"/>
<text text-anchor="middle" x="817.5" y="-18" font-family="Helvetica,sans-Serif" font-size="10.00">CGAL/Timer.h</text>
</a>
</g>
</g>
<!-- Node1&#45;&gt;Node7 -->
<g id="edge6" class="edge">
<title>Node1&#45;&gt;Node7</title>
<path fill="none" stroke="#63b8ff" d="M732.15,-76.94C750.73,-64.87 777.36,-47.57 795.92,-35.52"/>
<polygon fill="#63b8ff" stroke="#63b8ff" points="797.83,-38.45 804.31,-30.07 794.02,-32.58 797.83,-38.45"/>
</g>
<!-- Node8 -->
<g id="node8" class="node">
<title>Node8</title>
<g id="a_node8"><a xlink:title=" ">
<polygon fill="#e0e0e0" stroke="#999999" points="1029.5,-35.5 877.5,-35.5 877.5,-5.5 1029.5,-5.5 1029.5,-35.5"/>
<text text-anchor="start" x="885.5" y="-23.5" font-family="Helvetica,sans-Serif" font-size="10.00">CGAL/Triangulation</text>
<text text-anchor="middle" x="953.5" y="-12.5" font-family="Helvetica,sans-Serif" font-size="10.00">_vertex_base_with_info_3.h</text>
</a>
</g>
</g>
<!-- Node1&#45;&gt;Node8 -->
<g id="edge7" class="edge">
<title>Node1&#45;&gt;Node8</title>
<path fill="none" stroke="#63b8ff" d="M759.67,-76.94C798.71,-65.77 853.39,-50.13 894.73,-38.31"/>
<polygon fill="#63b8ff" stroke="#63b8ff" points="895.75,-41.66 904.4,-35.54 893.82,-34.93 895.75,-41.66"/>
</g>
<!-- Node9 -->
<g id="node9" class="node">
<title>Node9</title>
<g id="a_node9"><a xlink:title=" ">
<polygon fill="#e0e0e0" stroke="#999999" points="1099.5,-30 1047.5,-30 1047.5,-11 1099.5,-11 1099.5,-30"/>
<text text-anchor="middle" x="1073.5" y="-18" font-family="Helvetica,sans-Serif" font-size="10.00">cassert</text>
</a>
</g>
</g>
<!-- Node1&#45;&gt;Node9 -->
<g id="edge8" class="edge">
<title>Node1&#45;&gt;Node9</title>
<path fill="none" stroke="#63b8ff" d="M765.6,-88.58C831.95,-84.32 945.99,-72.67 1038.5,-41 1042.99,-39.46 1047.57,-37.36 1051.88,-35.1"/>
<polygon fill="#63b8ff" stroke="#63b8ff" points="1053.76,-38.06 1060.72,-30.07 1050.3,-31.97 1053.76,-38.06"/>
</g>
<!-- Node10 -->
<g id="node10" class="node">
<title>Node10</title>
<g id="a_node10"><a xlink:title=" ">
<polygon fill="#e0e0e0" stroke="#999999" points="1165,-30 1118,-30 1118,-11 1165,-11 1165,-30"/>
<text text-anchor="middle" x="1141.5" y="-18" font-family="Helvetica,sans-Serif" font-size="10.00">vector</text>
</a>
</g>
</g>
<!-- Node1&#45;&gt;Node10 -->
<g id="edge9" class="edge">
<title>Node1&#45;&gt;Node10</title>
<path fill="none" stroke="#63b8ff" d="M765.5,-91.08C843.78,-89.65 990.87,-81.2 1108.5,-41 1112.68,-39.57 1116.91,-37.57 1120.88,-35.4"/>
<polygon fill="#63b8ff" stroke="#63b8ff" points="1122.79,-38.33 1129.55,-30.18 1119.18,-32.34 1122.79,-38.33"/>
</g>
</g>
</svg>
