<?xml version="1.0" encoding="UTF-8" standalone="no"?>
<!DOCTYPE svg PUBLIC "-//W3C//DTD SVG 1.1//EN"
 "http://www.w3.org/Graphics/SVG/1.1/DTD/svg11.dtd">
<!-- Generated by graphviz version 15.1.0 (20260618.0150)
 -->
<!-- Title: include/Periodic_3_triangulations.hpp Pages: 1 -->
<!--zoomable 124 -->

<svg id="main" version="1.1" xmlns="http://www.w3.org/2000/svg" xmlns:xlink="http://www.w3.org/1999/xlink" xml:space="preserve" onload="init(evt)">

<style type="text/css"><![CDATA[
.node, .edge {opacity: 0.7;}
.node.selected, .edge.selected {opacity: 1;}
.edge:hover path { stroke: red; }
.edge:hover polygon { stroke: red; fill: red; }
]]></style>

<defs>
  <circle id="rim" cx="0" cy="0" r="7"/>
  <circle id="rim2" cx="0" cy="0" r="3.5"/>
  <g id="zoomPlus">
    <use xlink:href="#rim" fill="#404040"><set attributeName="fill" to="#808080" begin="zoomplus.mouseover" end="zoomplus.mouseout"/></use>
    <path d="M-4,0h8M0,-4v8" fill="none" stroke="white" stroke-width="1.5" pointer-events="none"/>
  </g>
  <g id="zoomMin">
    <use xlink:href="#rim" fill="#404040"><set attributeName="fill" to="#808080" begin="zoomminus.mouseover" end="zoomminus.mouseout"/></use>
    <path d="M-4,0h8" fill="none" stroke="white" stroke-width="1.5" pointer-events="none"/>
  </g>
  <g id="arrowUp" transform="translate(30 24)">
    <use xlink:href="#rim"/>
    <path pointer-events="none" fill="none" stroke="white" stroke-width="1.5" d="M0,-3.0v7 M-2.5,-0.5L0,-3.0L2.5,-0.5"/>
  </g>
  <g id="arrowRight" transform="rotate(90) translate(36 -43)">
    <use xlink:href="#rim"/>
    <path pointer-events="none" fill="none" stroke="white" stroke-width="1.5" d="M0,-3.0v7 M-2.5,-0.5L0,-3.0L2.5,-0.5"/>
  </g>
  <g id="arrowDown" transform="rotate(180) translate(-30 -48)">
    <use xlink:href="#rim"/>
    <path pointer-events="none" fill="none" stroke="white" stroke-width="1.5" d="M0,-3.0v7 M-2.5,-0.5L0,-3.0L2.5,-0.5"/>
  </g>
  <g id="arrowLeft" transform="rotate(270) translate(-36 17)">
    <use xlink:href="#rim"/>
    <path pointer-events="none" fill="none" stroke="white" stroke-width="1.5" d="M0,-3.0v7 M-2.5,-0.5L0,-3.0L2.5,-0.5"/>
  </g>
  <g id="resetDef">
    <use xlink:href="#rim2" fill="#404040"><set attributeName="fill" to="#808080" begin="reset.mouseover" end="reset.mouseout"/></use>
  </g>
</defs>
<script type="application/ecmascript">
var viewWidth = 1166;
var viewHeight = 124;
var sectionId = 'dynsection-0';
</script>
<script type="application/ecmascript" xlink:href="svg.min.js"/>
<svg id="graph" class="graph">
<g id="viewport">
<title>include/Periodic_3_triangulations.hpp</title>
<!-- Node1 -->
<g id="Node000001" class="node">
<title>Node1</title>
<g id="a_Node000001"><a xlink:title="Toroidal 3D triangulations.">
<polygon fill="#999999" stroke="#666666" points="761.12,-115.75 651.38,-115.75 651.38,-82.25 761.12,-82.25 761.12,-115.75"/>
<text xml:space="preserve" text-anchor="start" x="659.38" y="-102.25" font-family="Helvetica,sans-Serif" font-size="10.00">include/Periodic_3</text>
<text xml:space="preserve" text-anchor="middle" x="706.25" y="-89.5" font-family="Helvetica,sans-Serif" font-size="10.00">_triangulations.hpp</text>
</a>
</g>
</g>
<!-- Node2 -->
<g id="Node000002" class="node">
<title>Node2</title>
<g id="a_Node000002"><a xlink:title=" ">
<polygon fill="#e0e0e0" stroke="#999999" points="128.5,-46.25 0,-46.25 0,0 128.5,0 128.5,-46.25"/>
<text xml:space="preserve" text-anchor="start" x="8" y="-32.75" font-family="Helvetica,sans-Serif" font-size="10.00">CGAL/Exact_predicates</text>
<text xml:space="preserve" text-anchor="start" x="8" y="-20" font-family="Helvetica,sans-Serif" font-size="10.00">_inexact_constructions</text>
<text xml:space="preserve" text-anchor="middle" x="64.25" y="-7.25" font-family="Helvetica,sans-Serif" font-size="10.00">_kernel.h</text>
</a>
</g>
</g>
<!-- Node1&#45;&gt;Node2 -->
<g id="edge1_Node000001_Node000002" class="edge">
<title>Node1&#45;&gt;Node2</title>
<g id="a_edge1_Node000001_Node000002"><a xlink:title=" ">
<path fill="none" stroke="#63b8ff" d="M651.2,-96.71C550.95,-93.55 332,-82.96 140.1,-46.63"/>
<polygon fill="#63b8ff" stroke="#63b8ff" points="140.92,-43.22 130.44,-44.77 139.6,-50.1 140.92,-43.22"/>
</a>
</g>
</g>
<!-- Node3 -->
<g id="Node000003" class="node">
<title>Node3</title>
<g id="a_Node000003"><a xlink:title=" ">
<polygon fill="#e0e0e0" stroke="#999999" points="293.88,-39.88 146.62,-39.88 146.62,-6.38 293.88,-6.38 293.88,-39.88"/>
<text xml:space="preserve" text-anchor="start" x="154.62" y="-26.38" font-family="Helvetica,sans-Serif" font-size="10.00">CGAL/Periodic_3_Delaunay</text>
<text xml:space="preserve" text-anchor="middle" x="220.25" y="-13.62" font-family="Helvetica,sans-Serif" font-size="10.00">_triangulation_3.h</text>
</a>
</g>
</g>
<!-- Node1&#45;&gt;Node3 -->
<g id="edge2_Node000001_Node000003" class="edge">
<title>Node1&#45;&gt;Node3</title>
<g id="a_edge2_Node000001_Node000003"><a xlink:title=" ">
<path fill="none" stroke="#63b8ff" d="M650.98,-93.32C572.81,-86.17 425.72,-70.7 302.25,-46.25 297.32,-45.27 292.24,-44.16 287.15,-42.97"/>
<polygon fill="#63b8ff" stroke="#63b8ff" points="288.05,-39.59 277.5,-40.62 286.39,-46.39 288.05,-39.59"/>
</a>
</g>
</g>
<!-- Node4 -->
<g id="Node000004" class="node">
<title>Node4</title>
<g id="a_Node000004"><a xlink:title=" ">
<polygon fill="#e0e0e0" stroke="#999999" points="474.75,-39.88 311.75,-39.88 311.75,-6.38 474.75,-6.38 474.75,-39.88"/>
<text xml:space="preserve" text-anchor="start" x="319.75" y="-26.38" font-family="Helvetica,sans-Serif" font-size="10.00">CGAL/Periodic_3_triangulation</text>
<text xml:space="preserve" text-anchor="middle" x="393.25" y="-13.62" font-family="Helvetica,sans-Serif" font-size="10.00">_filtered_traits_3.h</text>
</a>
</g>
</g>
<!-- Node1&#45;&gt;Node4 -->
<g id="edge3_Node000001_Node000004" class="edge">
<title>Node1&#45;&gt;Node4</title>
<g id="a_edge3_Node000001_Node000004"><a xlink:title=" ">
<path fill="none" stroke="#63b8ff" d="M651.02,-85.28C606.08,-74.89 541.04,-59.77 484.25,-46.25 479.71,-45.17 475.05,-44.05 470.35,-42.92"/>
<polygon fill="#63b8ff" stroke="#63b8ff" points="471.35,-39.56 460.81,-40.63 469.71,-46.37 471.35,-39.56"/>
</a>
</g>
</g>
<!-- Node5 -->
<g id="Node000005" class="node">
<title>Node5</title>
<g id="a_Node000005"><a xlink:title=" ">
<polygon fill="#e0e0e0" stroke="#999999" points="641.25,-33.5 493.25,-33.5 493.25,-12.75 641.25,-12.75 641.25,-33.5"/>
<text xml:space="preserve" text-anchor="middle" x="567.25" y="-20" font-family="Helvetica,sans-Serif" font-size="10.00">CGAL/point_generators_2.h</text>
</a>
</g>
</g>
<!-- Node1&#45;&gt;Node5 -->
<g id="edge4_Node000001_Node000005" class="edge">
<title>Node1&#45;&gt;Node5</title>
<g id="a_edge4_Node000001_Node000005"><a xlink:title=" ">
<path fill="none" stroke="#63b8ff" d="M675.75,-81.79C651.91,-69.12 619.02,-51.64 595.71,-39.25"/>
<polygon fill="#63b8ff" stroke="#63b8ff" points="597.56,-36.27 587.09,-34.67 594.27,-42.45 597.56,-36.27"/>
</a>
</g>
</g>
<!-- Node6 -->
<g id="Node000006" class="node">
<title>Node6</title>
<g id="a_Node000006"><a xlink:title=" ">
<polygon fill="#e0e0e0" stroke="#999999" points="753.62,-33.5 658.88,-33.5 658.88,-12.75 753.62,-12.75 753.62,-33.5"/>
<text xml:space="preserve" text-anchor="middle" x="706.25" y="-20" font-family="Helvetica,sans-Serif" font-size="10.00">CGAL/Random.h</text>
</a>
</g>
</g>
<!-- Node1&#45;&gt;Node6 -->
<g id="edge5_Node000001_Node000006" class="edge">
<title>Node1&#45;&gt;Node6</title>
<g id="a_edge5_Node000001_Node000006"><a xlink:title=" ">
<path fill="none" stroke="#63b8ff" d="M706.25,-81.97C706.25,-71.13 706.25,-56.69 706.25,-44.96"/>
<polygon fill="#63b8ff" stroke="#63b8ff" points="709.75,-45.1 706.25,-35.1 702.75,-45.1 709.75,-45.1"/>
</a>
</g>
</g>
<!-- Node7 -->
<g id="Node000007" class="node">
<title>Node7</title>
<g id="a_Node000007"><a xlink:title=" ">
<polygon fill="#e0e0e0" stroke="#999999" points="853.25,-33.5 771.25,-33.5 771.25,-12.75 853.25,-12.75 853.25,-33.5"/>
<text xml:space="preserve" text-anchor="middle" x="812.25" y="-20" font-family="Helvetica,sans-Serif" font-size="10.00">CGAL/Timer.h</text>
</a>
</g>
</g>
<!-- Node1&#45;&gt;Node7 -->
<g id="edge6_Node000001_Node000007" class="edge">
<title>Node1&#45;&gt;Node7</title>
<g id="a_edge6_Node000001_Node000007"><a xlink:title=" ">
<path fill="none" stroke="#63b8ff" d="M729.51,-81.79C747.2,-69.46 771.42,-52.58 789.09,-40.27"/>
<polygon fill="#63b8ff" stroke="#63b8ff" points="790.7,-43.41 796.9,-34.82 786.7,-37.67 790.7,-43.41"/>
</a>
</g>
</g>
<!-- Node8 -->
<g id="Node000008" class="node">
<title>Node8</title>
<g id="a_Node000008"><a xlink:title=" ">
<polygon fill="#e0e0e0" stroke="#999999" points="1023.12,-39.88 871.38,-39.88 871.38,-6.38 1023.12,-6.38 1023.12,-39.88"/>
<text xml:space="preserve" text-anchor="start" x="879.38" y="-26.38" font-family="Helvetica,sans-Serif" font-size="10.00">CGAL/Triangulation</text>
<text xml:space="preserve" text-anchor="middle" x="947.25" y="-13.62" font-family="Helvetica,sans-Serif" font-size="10.00">_vertex_base_with_info_3.h</text>
</a>
</g>
</g>
<!-- Node1&#45;&gt;Node8 -->
<g id="edge7_Node000001_Node000008" class="edge">
<title>Node1&#45;&gt;Node8</title>
<g id="a_edge7_Node000001_Node000008"><a xlink:title=" ">
<path fill="none" stroke="#63b8ff" d="M759.14,-81.79C795.87,-70.53 844.99,-55.47 883.82,-43.57"/>
<polygon fill="#63b8ff" stroke="#63b8ff" points="884.5,-47.02 893.04,-40.74 882.45,-40.33 884.5,-47.02"/>
</a>
</g>
</g>
<!-- Node9 -->
<g id="Node000009" class="node">
<title>Node9</title>
<g id="a_Node000009"><a xlink:title=" ">
<polygon fill="#e0e0e0" stroke="#999999" points="1092.88,-33.5 1041.62,-33.5 1041.62,-12.75 1092.88,-12.75 1092.88,-33.5"/>
<text xml:space="preserve" text-anchor="middle" x="1067.25" y="-20" font-family="Helvetica,sans-Serif" font-size="10.00">cassert</text>
</a>
</g>
</g>
<!-- Node1&#45;&gt;Node9 -->
<g id="edge8_Node000001_Node000009" class="edge">
<title>Node1&#45;&gt;Node9</title>
<g id="a_edge8_Node000001_Node000009"><a xlink:title=" ">
<path fill="none" stroke="#63b8ff" d="M761.33,-96.02C827.58,-92.13 941.23,-80.57 1032.25,-46.25 1036.59,-44.61 1040.97,-42.4 1045.09,-39.99"/>
<polygon fill="#63b8ff" stroke="#63b8ff" points="1046.82,-43.04 1053.35,-34.69 1043.04,-37.15 1046.82,-43.04"/>
</a>
</g>
</g>
<!-- Node10 -->
<g id="Node000010" class="node">
<title>Node10</title>
<g id="a_Node000010"><a xlink:title=" ">
<polygon fill="#e0e0e0" stroke="#999999" points="1157.62,-33.5 1110.88,-33.5 1110.88,-12.75 1157.62,-12.75 1157.62,-33.5"/>
<text xml:space="preserve" text-anchor="middle" x="1134.25" y="-20" font-family="Helvetica,sans-Serif" font-size="10.00">vector</text>
</a>
</g>
</g>
<!-- Node1&#45;&gt;Node10 -->
<g id="edge9_Node000001_Node000010" class="edge">
<title>Node1&#45;&gt;Node10</title>
<g id="a_edge9_Node000001_Node000010"><a xlink:title=" ">
<path fill="none" stroke="#63b8ff" d="M761.4,-98.87C839.79,-98.33 986.75,-90.71 1102.25,-46.25 1106.09,-44.77 1109.9,-42.75 1113.5,-40.52"/>
<polygon fill="#63b8ff" stroke="#63b8ff" points="1115.43,-43.45 1121.62,-34.85 1111.42,-37.71 1115.43,-43.45"/>
</a>
</g>
</g>
</g>
</svg>

<g id="navigator" transform="translate(0 0)" fill="#404254">
  <rect fill="#f2f5e9" fill-opacity="0.5" stroke="#606060" stroke-width=".5" x="0" y="0" width="60" height="60"/>
  <use id="zoomplus" xlink:href="#zoomPlus" x="17" y="9" onmousedown="handleZoom(evt,'in')"/>
  <use id="zoomminus" xlink:href="#zoomMin" x="42" y="9" onmousedown="handleZoom(evt,'out')"/>
  <use id="reset" xlink:href="#resetDef" x="30" y="36" onmousedown="handleReset()"/>
   <use id="arrowup" xlink:href="#arrowUp" x="0" y="0" onmousedown="handlePan(0,-1)"/>
  <use id="arrowright" xlink:href="#arrowRight" x="0" y="0" onmousedown="handlePan(1,0)"/>
  <use id="arrowdown" xlink:href="#arrowDown" x="0" y="0" onmousedown="handlePan(0,1)"/>
  <use id="arrowleft" xlink:href="#arrowLeft" x="0" y="0" onmousedown="handlePan(-1,0)"/>
</g>
<svg viewBox="0 0 15 15" width="100%" height="30px" preserveAspectRatio="xMaxYMin meet">
 <g id="arrow_out" transform="scale(0.3 0.3)">
  <a xlink:href="_periodic__3__triangulations_8hpp__incl_org.svg" target="_base">
   <rect id="button" ry="5" rx="5" y="6" x="6" height="38" width="38"
        fill="#f2f5e9" fill-opacity="0.5" stroke="#606060" stroke-width="1.0"/>
   <path id="arrow"
     d="M 11.500037,31.436501 C 11.940474,20.09759 22.043105,11.32322 32.158766,21.979434 L 37.068811,17.246167 C 37.068811,17.246167 37.088388,32 37.088388,32 L 22.160133,31.978069 C 22.160133,31.978069 26.997745,27.140456 26.997745,27.140456 C 18.528582,18.264221 13.291696,25.230495 11.500037,31.436501 z"
     style="fill:#404040;"/>
  </a>
 </g>
</svg>

<style type='text/css'>
<![CDATA[
[data-mouse-over-selected='false'] { opacity: 0.7; }
[data-mouse-over-selected='true']  { opacity: 1.0; }
]]>
</style>
<script type="application/ecmascript"><![CDATA[
document.addEventListener('DOMContentLoaded', (event) => {
  highlightEdges();
  highlightAdjacentNodes();
});
]]></script>
</svg>
