<?xml version="1.0" encoding="UTF-8" standalone="no"?>
<!DOCTYPE svg PUBLIC "-//W3C//DTD SVG 1.1//EN"
 "http://www.w3.org/Graphics/SVG/1.1/DTD/svg11.dtd">
<!-- Generated by graphviz version 15.1.0 (20260618.0150)
 -->
<!-- Title: include/Random.hpp Pages: 1 -->
<!--zoomable 439 -->

<svg id="main" version="1.1" xmlns="http://www.w3.org/2000/svg" xmlns:xlink="http://www.w3.org/1999/xlink" xml:space="preserve" onload="init(evt)">

<style type="text/css"><![CDATA[
.node, .edge {opacity: 0.7;}
.node.selected, .edge.selected {opacity: 1;}
.edge:hover path { stroke: red; }
.edge:hover polygon { stroke: red; fill: red; }
]]></style>

<defs>
  <circle id="rim" cx="0" cy="0" r="7"/>
  <circle id="rim2" cx="0" cy="0" r="3.5"/>
  <g id="zoomPlus">
    <use xlink:href="#rim" fill="#404040"><set attributeName="fill" to="#808080" begin="zoomplus.mouseover" end="zoomplus.mouseout"/></use>
    <path d="M-4,0h8M0,-4v8" fill="none" stroke="white" stroke-width="1.5" pointer-events="none"/>
  </g>
  <g id="zoomMin">
    <use xlink:href="#rim" fill="#404040"><set attributeName="fill" to="#808080" begin="zoomminus.mouseover" end="zoomminus.mouseout"/></use>
    <path d="M-4,0h8" fill="none" stroke="white" stroke-width="1.5" pointer-events="none"/>
  </g>
  <g id="arrowUp" transform="translate(30 24)">
    <use xlink:href="#rim"/>
    <path pointer-events="none" fill="none" stroke="white" stroke-width="1.5" d="M0,-3.0v7 M-2.5,-0.5L0,-3.0L2.5,-0.5"/>
  </g>
  <g id="arrowRight" transform="rotate(90) translate(36 -43)">
    <use xlink:href="#rim"/>
    <path pointer-events="none" fill="none" stroke="white" stroke-width="1.5" d="M0,-3.0v7 M-2.5,-0.5L0,-3.0L2.5,-0.5"/>
  </g>
  <g id="arrowDown" transform="rotate(180) translate(-30 -48)">
    <use xlink:href="#rim"/>
    <path pointer-events="none" fill="none" stroke="white" stroke-width="1.5" d="M0,-3.0v7 M-2.5,-0.5L0,-3.0L2.5,-0.5"/>
  </g>
  <g id="arrowLeft" transform="rotate(270) translate(-36 17)">
    <use xlink:href="#rim"/>
    <path pointer-events="none" fill="none" stroke="white" stroke-width="1.5" d="M0,-3.0v7 M-2.5,-0.5L0,-3.0L2.5,-0.5"/>
  </g>
  <g id="resetDef">
    <use xlink:href="#rim2" fill="#404040"><set attributeName="fill" to="#808080" begin="reset.mouseover" end="reset.mouseout"/></use>
  </g>
</defs>
<script type="application/ecmascript">
var viewWidth = 656;
var viewHeight = 439;
var sectionId = 'dynsection-1';
</script>
<script type="application/ecmascript" xlink:href="svg.min.js"/>
<svg id="graph" class="graph">
<g id="viewport">
<title>include/Random.hpp</title>
<!-- Node1 -->
<g id="Node000001" class="node">
<title>Node1</title>
<g id="a_Node000001"><a xlink:title="Run&#45;owned random&#45;number generation and reproducible stream splitting.">
<polygon fill="#999999" stroke="#666666" points="406.38,-430.75 290.62,-430.75 290.62,-410 406.38,-410 406.38,-430.75"/>
<text xml:space="preserve" text-anchor="middle" x="348.5" y="-417.25" font-family="Helvetica,sans-Serif" font-size="10.00">include/Random.hpp</text>
</a>
</g>
</g>
<!-- Node2 -->
<g id="Node000002" class="node">
<title>Node2</title>
<g id="a_Node000002"><a xlink:href="_foliated__triangulation_8hpp.html" target="_top" xlink:title="Create foliated spherical triangulations.">
<polygon fill="white" stroke="#666666" points="397.38,-317.25 215.62,-317.25 215.62,-296.5 397.38,-296.5 397.38,-317.25"/>
<text xml:space="preserve" text-anchor="middle" x="306.5" y="-303.75" font-family="Helvetica,sans-Serif" font-size="10.00">include/Foliated_triangulation.hpp</text>
</a>
</g>
</g>
<!-- Node1&#45;&gt;Node2 -->
<g id="edge1_Node000001_Node000002" class="edge">
<title>Node1&#45;&gt;Node2</title>
<g id="a_edge1_Node000001_Node000002"><a xlink:title=" ">
<path fill="none" stroke="#63b8ff" d="M337.44,-399.57C333.34,-391.76 328.88,-382.6 325.5,-374 317.81,-354.43 311.71,-330.52 308.65,-317.48"/>
<polygon fill="#63b8ff" stroke="#63b8ff" points="334.27,-401.07 342.1,-408.2 340.42,-397.74 334.27,-401.07"/>
</a>
</g>
</g>
<!-- Node4 -->
<g id="Node000004" class="node">
<title>Node4</title>
<g id="a_Node000004"><a xlink:href="_manifold_8hpp.html" target="_top" xlink:title="Data structures for manifolds.">
<polygon fill="white" stroke="#666666" points="367.5,-203.75 249.5,-203.75 249.5,-183 367.5,-183 367.5,-203.75"/>
<text xml:space="preserve" text-anchor="middle" x="308.5" y="-190.25" font-family="Helvetica,sans-Serif" font-size="10.00">include/Manifold.hpp</text>
</a>
</g>
</g>
<!-- Node1&#45;&gt;Node4 -->
<g id="edge11_Node000001_Node000004" class="edge">
<title>Node1&#45;&gt;Node4</title>
<g id="a_edge11_Node000001_Node000004"><a xlink:title=" ">
<path fill="none" stroke="#63b8ff" d="M312.6,-405.15C278.28,-389.39 228.59,-360.35 206.5,-317.25 182.03,-269.51 252.83,-223.74 288.85,-204.23"/>
<polygon fill="#63b8ff" stroke="#63b8ff" points="310.76,-408.17 321.32,-409.01 313.59,-401.77 310.76,-408.17"/>
</a>
</g>
</g>
<!-- Node6 -->
<g id="Node000006" class="node">
<title>Node6</title>
<g id="a_Node000006"><a xlink:href="_metropolis_8hpp.html" target="_top" xlink:title="Perform Metropolis&#45;Hastings algorithm on Delaunay Triangulations.">
<polygon fill="white" stroke="#666666" points="127,-77.5 0,-77.5 0,-56.75 127,-56.75 127,-77.5"/>
<text xml:space="preserve" text-anchor="middle" x="63.5" y="-64" font-family="Helvetica,sans-Serif" font-size="10.00">include/Metropolis.hpp</text>
</a>
</g>
</g>
<!-- Node1&#45;&gt;Node6 -->
<g id="edge12_Node000001_Node000006" class="edge">
<title>Node1&#45;&gt;Node6</title>
<g id="a_edge12_Node000001_Node000006"><a xlink:title=" ">
<path fill="none" stroke="#63b8ff" d="M278.95,-407.59C191.17,-390.69 51.5,-356.22 51.5,-307.88 51.5,-307.88 51.5,-307.88 51.5,-192.38 51.5,-149.47 58.68,-98.6 61.93,-77.76"/>
<polygon fill="#63b8ff" stroke="#63b8ff" points="278.21,-411.01 288.69,-409.42 279.51,-404.13 278.21,-411.01"/>
</a>
</g>
</g>
<!-- Node8 -->
<g id="Node000008" class="node">
<title>Node8</title>
<g id="a_Node000008"><a xlink:href="_move__command_8hpp.html" target="_top" xlink:title="Do ergodic moves using the Command pattern.">
<polygon fill="white" stroke="#666666" points="601.62,-77.5 445.38,-77.5 445.38,-56.75 601.62,-56.75 601.62,-77.5"/>
<text xml:space="preserve" text-anchor="middle" x="523.5" y="-64" font-family="Helvetica,sans-Serif" font-size="10.00">include/Move_command.hpp</text>
</a>
</g>
</g>
<!-- Node1&#45;&gt;Node8 -->
<g id="edge14_Node000001_Node000008" class="edge">
<title>Node1&#45;&gt;Node8</title>
<g id="a_edge14_Node000001_Node000008"><a xlink:title=" ">
<path fill="none" stroke="#63b8ff" d="M417.95,-416.24C489.77,-408.83 591.5,-384.76 591.5,-307.88 591.5,-307.88 591.5,-307.88 591.5,-192.38 591.5,-144.42 552.05,-97.43 533.24,-77.76"/>
<polygon fill="#63b8ff" stroke="#63b8ff" points="417.84,-412.74 408.21,-417.15 418.49,-419.71 417.84,-412.74"/>
</a>
</g>
</g>
<!-- Node9 -->
<g id="Node000009" class="node">
<title>Node9</title>
<g id="a_Node000009"><a xlink:href="_move__always_8hpp.html" target="_top" xlink:title="Randomly selects moves to always perform on triangulations.">
<polygon fill="white" stroke="#666666" points="647.5,-20.75 505.5,-20.75 505.5,0 647.5,0 647.5,-20.75"/>
<text xml:space="preserve" text-anchor="middle" x="576.5" y="-7.25" font-family="Helvetica,sans-Serif" font-size="10.00">include/Move_always.hpp</text>
</a>
</g>
</g>
<!-- Node1&#45;&gt;Node9 -->
<g id="edge13_Node000001_Node000009" class="edge">
<title>Node1&#45;&gt;Node9</title>
<g id="a_edge13_Node000001_Node000009"><a xlink:title=" ">
<path fill="none" stroke="#63b8ff" d="M418.13,-418.53C466.63,-415.02 531.05,-404.28 579.5,-374 610.74,-354.47 629.5,-344.72 629.5,-307.88 629.5,-307.88 629.5,-307.88 629.5,-129.25 629.5,-95.94 624.98,-86.75 610.5,-56.75 604,-43.27 593.23,-29.81 585.55,-21.08"/>
<polygon fill="#63b8ff" stroke="#63b8ff" points="418.07,-415.03 408.3,-419.15 418.5,-422.02 418.07,-415.03"/>
</a>
</g>
</g>
<!-- Node12 -->
<g id="Node000012" class="node">
<title>Node12</title>
<g id="a_Node000012"><a xlink:href="_utilities_8hpp.html" target="_top" xlink:title="Utility functions.">
<polygon fill="white" stroke="#666666" points="448.25,-374 334.75,-374 334.75,-353.25 448.25,-353.25 448.25,-374"/>
<text xml:space="preserve" text-anchor="middle" x="391.5" y="-360.5" font-family="Helvetica,sans-Serif" font-size="10.00">include/Utilities.hpp</text>
</a>
</g>
</g>
<!-- Node1&#45;&gt;Node12 -->
<g id="edge15_Node000001_Node000012" class="edge">
<title>Node1&#45;&gt;Node12</title>
<g id="a_edge15_Node000001_Node000012"><a xlink:title=" ">
<path fill="none" stroke="#63b8ff" d="M363.16,-400.71C370.12,-391.84 378.15,-381.62 383.88,-374.33"/>
<polygon fill="#63b8ff" stroke="#63b8ff" points="360.55,-398.37 357.12,-408.4 366.05,-402.69 360.55,-398.37"/>
</a>
</g>
</g>
<!-- Node3 -->
<g id="Node000003" class="node">
<title>Node3</title>
<g id="a_Node000003"><a xlink:href="_geometry_8hpp.html" target="_top" xlink:title="Geometric scalars of the Manifold used to calculate the Regge action.">
<polygon fill="white" stroke="#666666" points="367.75,-260.5 245.25,-260.5 245.25,-239.75 367.75,-239.75 367.75,-260.5"/>
<text xml:space="preserve" text-anchor="middle" x="306.5" y="-247" font-family="Helvetica,sans-Serif" font-size="10.00">include/Geometry.hpp</text>
</a>
</g>
</g>
<!-- Node2&#45;&gt;Node3 -->
<g id="edge2_Node000002_Node000003" class="edge">
<title>Node2&#45;&gt;Node3</title>
<g id="a_edge2_Node000002_Node000003"><a xlink:title=" ">
<path fill="none" stroke="#63b8ff" d="M306.5,-284.63C306.5,-276.41 306.5,-267.43 306.5,-260.83"/>
<polygon fill="#63b8ff" stroke="#63b8ff" points="303,-284.57 306.5,-294.57 310,-284.57 303,-284.57"/>
</a>
</g>
</g>
<!-- Node3&#45;&gt;Node4 -->
<g id="edge3_Node000003_Node000004" class="edge">
<title>Node3&#45;&gt;Node4</title>
<g id="a_edge3_Node000003_Node000004"><a xlink:title=" ">
<path fill="none" stroke="#63b8ff" d="M307.28,-227.88C307.58,-219.66 307.9,-210.68 308.15,-204.08"/>
<polygon fill="#63b8ff" stroke="#63b8ff" points="303.78,-227.7 306.91,-237.82 310.78,-227.96 303.78,-227.7"/>
</a>
</g>
</g>
<!-- Node5 -->
<g id="Node000005" class="node">
<title>Node5</title>
<g id="a_Node000005"><a xlink:href="_ergodic__moves__3_8hpp.html" target="_top" xlink:title="Pachner moves on 2+1 dimensional foliated Delaunay triangulations.">
<polygon fill="white" stroke="#666666" points="551.75,-147 423.25,-147 423.25,-113.5 551.75,-113.5 551.75,-147"/>
<text xml:space="preserve" text-anchor="start" x="431.25" y="-133.5" font-family="Helvetica,sans-Serif" font-size="10.00">include/Ergodic_moves</text>
<text xml:space="preserve" text-anchor="middle" x="487.5" y="-120.75" font-family="Helvetica,sans-Serif" font-size="10.00">_3.hpp</text>
</a>
</g>
</g>
<!-- Node4&#45;&gt;Node5 -->
<g id="edge4_Node000004_Node000005" class="edge">
<title>Node4&#45;&gt;Node5</title>
<g id="a_edge4_Node000004_Node000005"><a xlink:title=" ">
<path fill="none" stroke="#63b8ff" d="M347.91,-178.92C375.04,-169.65 411.23,-157.3 439.96,-147.48"/>
<polygon fill="#63b8ff" stroke="#63b8ff" points="347.02,-175.52 338.69,-182.07 349.29,-182.15 347.02,-175.52"/>
</a>
</g>
</g>
<!-- Node10 -->
<g id="Node000010" class="node">
<title>Node10</title>
<g id="a_Node000010"><a xlink:href="cdt-viewer_8cpp.html" target="_top" xlink:title="Views 3D spacetimes.">
<polygon fill="white" stroke="#666666" points="404.38,-140.62 300.62,-140.62 300.62,-119.88 404.38,-119.88 404.38,-140.62"/>
<text xml:space="preserve" text-anchor="middle" x="352.5" y="-127.12" font-family="Helvetica,sans-Serif" font-size="10.00">src/cdt&#45;viewer.cpp</text>
</a>
</g>
</g>
<!-- Node4&#45;&gt;Node10 -->
<g id="edge9_Node000004_Node000010" class="edge">
<title>Node4&#45;&gt;Node10</title>
<g id="a_edge9_Node000004_Node000010"><a xlink:title=" ">
<path fill="none" stroke="#63b8ff" d="M322.12,-173.46C329.9,-162.65 339.32,-149.55 345.59,-140.84"/>
<polygon fill="#63b8ff" stroke="#63b8ff" points="319.46,-171.17 316.45,-181.33 325.14,-175.25 319.46,-171.17"/>
</a>
</g>
</g>
<!-- Node11 -->
<g id="Node000011" class="node">
<title>Node11</title>
<g id="a_Node000011"><a xlink:href="initialize_8cpp.html" target="_top" xlink:title="Generates initial spacetimes.">
<polygon fill="white" stroke="#666666" points="280.25,-140.62 184.75,-140.62 184.75,-119.88 280.25,-119.88 280.25,-140.62"/>
<text xml:space="preserve" text-anchor="middle" x="232.5" y="-127.12" font-family="Helvetica,sans-Serif" font-size="10.00">src/initialize.cpp</text>
</a>
</g>
</g>
<!-- Node4&#45;&gt;Node11 -->
<g id="edge10_Node000004_Node000011" class="edge">
<title>Node4&#45;&gt;Node11</title>
<g id="a_edge10_Node000004_Node000011"><a xlink:title=" ">
<path fill="none" stroke="#63b8ff" d="M287.42,-175.42C273.56,-164.27 255.92,-150.09 244.43,-140.84"/>
<polygon fill="#63b8ff" stroke="#63b8ff" points="285.12,-178.07 295.11,-181.61 289.51,-172.61 285.12,-178.07"/>
</a>
</g>
</g>
<!-- Node5&#45;&gt;Node6 -->
<g id="edge5_Node000005_Node000006" class="edge">
<title>Node5&#45;&gt;Node6</title>
<g id="a_edge5_Node000005_Node000006"><a xlink:title=" ">
<path fill="none" stroke="#63b8ff" d="M411.79,-113.3C306.09,-95.55 195.2,-82.32 127.28,-74.83"/>
<polygon fill="#63b8ff" stroke="#63b8ff" points="411.05,-116.72 421.49,-114.94 412.22,-109.82 411.05,-116.72"/>
</a>
</g>
</g>
<!-- Node5&#45;&gt;Node8 -->
<g id="edge7_Node000005_Node000008" class="edge">
<title>Node5&#45;&gt;Node8</title>
<g id="a_edge7_Node000005_Node000008"><a xlink:title=" ">
<path fill="none" stroke="#63b8ff" d="M502.7,-103.44C508,-94.43 513.64,-84.87 517.7,-77.97"/>
<polygon fill="#63b8ff" stroke="#63b8ff" points="499.79,-101.49 497.73,-111.89 505.82,-105.05 499.79,-101.49"/>
</a>
</g>
</g>
<!-- Node7 -->
<g id="Node000007" class="node">
<title>Node7</title>
<g id="a_Node000007"><a xlink:href="cdt_8cpp.html" target="_top" xlink:title="The main executable.">
<polygon fill="white" stroke="#666666" points="143.75,-20.75 75.25,-20.75 75.25,0 143.75,0 143.75,-20.75"/>
<text xml:space="preserve" text-anchor="middle" x="109.5" y="-7.25" font-family="Helvetica,sans-Serif" font-size="10.00">src/cdt.cpp</text>
</a>
</g>
</g>
<!-- Node6&#45;&gt;Node7 -->
<g id="edge6_Node000006_Node000007" class="edge">
<title>Node6&#45;&gt;Node7</title>
<g id="a_edge6_Node000006_Node000007"><a xlink:title=" ">
<path fill="none" stroke="#63b8ff" d="M78.95,-47.74C86.45,-38.81 95.15,-28.45 101.35,-21.08"/>
<polygon fill="#63b8ff" stroke="#63b8ff" points="76.45,-45.27 72.7,-55.18 81.81,-49.77 76.45,-45.27"/>
</a>
</g>
</g>
<!-- Node8&#45;&gt;Node9 -->
<g id="edge8_Node000008_Node000009" class="edge">
<title>Node8&#45;&gt;Node9</title>
<g id="a_edge8_Node000008_Node000009"><a xlink:title=" ">
<path fill="none" stroke="#63b8ff" d="M540.75,-48.3C549.52,-39.25 559.82,-28.61 567.11,-21.08"/>
<polygon fill="#63b8ff" stroke="#63b8ff" points="538.47,-45.63 534.03,-55.25 543.5,-50.5 538.47,-45.63"/>
</a>
</g>
</g>
<!-- Node12&#45;&gt;Node2 -->
<g id="edge16_Node000012_Node000002" class="edge">
<title>Node12&#45;&gt;Node2</title>
<g id="a_edge16_Node000012_Node000002"><a xlink:title=" ">
<path fill="none" stroke="#63b8ff" d="M366.83,-346.73C352.19,-337.3 334.1,-325.65 321.56,-317.58"/>
<polygon fill="#63b8ff" stroke="#63b8ff" points="364.73,-349.54 375.03,-352.02 368.52,-343.66 364.73,-349.54"/>
</a>
</g>
</g>
<!-- Node12&#45;&gt;Node10 -->
<g id="edge22_Node000012_Node000010" class="edge">
<title>Node12&#45;&gt;Node10</title>
<g id="a_edge22_Node000012_Node000010"><a xlink:title=" ">
<path fill="none" stroke="#63b8ff" d="M399.77,-342.25C402.49,-334.55 405.15,-325.63 406.5,-317.25 407.97,-308.15 407.69,-305.65 406.5,-296.5 399.78,-244.76 394.21,-232.08 376.5,-183 371.05,-167.91 362.89,-151.19 357.63,-140.95"/>
<polygon fill="#63b8ff" stroke="#63b8ff" points="396.6,-340.76 396.32,-351.35 403.14,-343.24 396.6,-340.76"/>
</a>
</g>
</g>
<!-- Node13 -->
<g id="Node000013" class="node">
<title>Node13</title>
<g id="a_Node000013"><a xlink:href="_move__tracker_8hpp.html" target="_top" xlink:title="Track ergodic moves.">
<polygon fill="white" stroke="#666666" points="563.75,-260.5 423.25,-260.5 423.25,-239.75 563.75,-239.75 563.75,-260.5"/>
<text xml:space="preserve" text-anchor="middle" x="493.5" y="-247" font-family="Helvetica,sans-Serif" font-size="10.00">include/Move_tracker.hpp</text>
</a>
</g>
</g>
<!-- Node12&#45;&gt;Node13 -->
<g id="edge17_Node000012_Node000013" class="edge">
<title>Node12&#45;&gt;Node13</title>
<g id="a_edge17_Node000012_Node000013"><a xlink:title=" ">
<path fill="none" stroke="#63b8ff" d="M410.85,-345.39C419.83,-337.13 430.48,-326.95 439.5,-317.25 457.27,-298.15 476.13,-274.06 486.18,-260.87"/>
<polygon fill="#63b8ff" stroke="#63b8ff" points="408.74,-342.59 403.68,-351.9 413.44,-347.77 408.74,-342.59"/>
</a>
</g>
</g>
<!-- Node14 -->
<g id="Node000014" class="node">
<title>Node14</title>
<g id="a_Node000014"><a xlink:href="_runtime__config_8hpp.html" target="_top" xlink:title="Validated runtime configuration for CDT++ command&#45;line programs.">
<polygon fill="white" stroke="#666666" points="231,-203.75 80,-203.75 80,-183 231,-183 231,-203.75"/>
<text xml:space="preserve" text-anchor="middle" x="155.5" y="-190.25" font-family="Helvetica,sans-Serif" font-size="10.00">include/Runtime_config.hpp</text>
</a>
</g>
</g>
<!-- Node12&#45;&gt;Node14 -->
<g id="edge19_Node000012_Node000014" class="edge">
<title>Node12&#45;&gt;Node14</title>
<g id="a_edge19_Node000012_Node000014"><a xlink:title=" ">
<path fill="none" stroke="#63b8ff" d="M323.39,-360.64C285.12,-356.21 238.71,-344.88 206.5,-317.25 170.91,-286.72 159.7,-227.35 156.58,-204.07"/>
<polygon fill="#63b8ff" stroke="#63b8ff" points="322.66,-364.08 332.96,-361.61 323.37,-357.12 322.66,-364.08"/>
</a>
</g>
</g>
<!-- Node13&#45;&gt;Node5 -->
<g id="edge18_Node000013_Node000005" class="edge">
<title>Node13&#45;&gt;Node5</title>
<g id="a_edge18_Node000013_Node000005"><a xlink:title=" ">
<path fill="none" stroke="#63b8ff" d="M492.44,-228.22C491.26,-205.08 489.39,-168.3 488.32,-147.32"/>
<polygon fill="#63b8ff" stroke="#63b8ff" points="488.93,-228.16 492.93,-237.97 495.92,-227.8 488.93,-228.16"/>
</a>
</g>
</g>
<!-- Node14&#45;&gt;Node7 -->
<g id="edge20_Node000014_Node000007" class="edge">
<title>Node14&#45;&gt;Node7</title>
<g id="a_edge20_Node000014_Node000007"><a xlink:title=" ">
<path fill="none" stroke="#63b8ff" d="M155.11,-171.33C154.04,-144.14 150.18,-95.67 136.5,-56.75 131.88,-43.6 123.23,-30.07 116.96,-21.25"/>
<polygon fill="#63b8ff" stroke="#63b8ff" points="151.61,-171.12 155.4,-181.01 158.6,-170.92 151.61,-171.12"/>
</a>
</g>
</g>
<!-- Node14&#45;&gt;Node11 -->
<g id="edge21_Node000014_Node000011" class="edge">
<title>Node14&#45;&gt;Node11</title>
<g id="a_edge21_Node000014_Node000011"><a xlink:title=" ">
<path fill="none" stroke="#63b8ff" d="M176.8,-175.46C190.75,-164.39 208.5,-150.31 220.16,-141.05"/>
<polygon fill="#63b8ff" stroke="#63b8ff" points="174.71,-172.65 169.06,-181.61 179.07,-178.14 174.71,-172.65"/>
</a>
</g>
</g>
</g>
</svg>

<g id="navigator" transform="translate(0 0)" fill="#404254">
  <rect fill="#f2f5e9" fill-opacity="0.5" stroke="#606060" stroke-width=".5" x="0" y="0" width="60" height="60"/>
  <use id="zoomplus" xlink:href="#zoomPlus" x="17" y="9" onmousedown="handleZoom(evt,'in')"/>
  <use id="zoomminus" xlink:href="#zoomMin" x="42" y="9" onmousedown="handleZoom(evt,'out')"/>
  <use id="reset" xlink:href="#resetDef" x="30" y="36" onmousedown="handleReset()"/>
   <use id="arrowup" xlink:href="#arrowUp" x="0" y="0" onmousedown="handlePan(0,-1)"/>
  <use id="arrowright" xlink:href="#arrowRight" x="0" y="0" onmousedown="handlePan(1,0)"/>
  <use id="arrowdown" xlink:href="#arrowDown" x="0" y="0" onmousedown="handlePan(0,1)"/>
  <use id="arrowleft" xlink:href="#arrowLeft" x="0" y="0" onmousedown="handlePan(-1,0)"/>
</g>
<svg viewBox="0 0 15 15" width="100%" height="30px" preserveAspectRatio="xMaxYMin meet">
 <g id="arrow_out" transform="scale(0.3 0.3)">
  <a xlink:href="_random_8hpp__dep__incl_org.svg" target="_base">
   <rect id="button" ry="5" rx="5" y="6" x="6" height="38" width="38"
        fill="#f2f5e9" fill-opacity="0.5" stroke="#606060" stroke-width="1.0"/>
   <path id="arrow"
     d="M 11.500037,31.436501 C 11.940474,20.09759 22.043105,11.32322 32.158766,21.979434 L 37.068811,17.246167 C 37.068811,17.246167 37.088388,32 37.088388,32 L 22.160133,31.978069 C 22.160133,31.978069 26.997745,27.140456 26.997745,27.140456 C 18.528582,18.264221 13.291696,25.230495 11.500037,31.436501 z"
     style="fill:#404040;"/>
  </a>
 </g>
</svg>

<style type='text/css'>
<![CDATA[
[data-mouse-over-selected='false'] { opacity: 0.7; }
[data-mouse-over-selected='true']  { opacity: 1.0; }
]]>
</style>
<script type="application/ecmascript"><![CDATA[
document.addEventListener('DOMContentLoaded', (event) => {
  highlightEdges();
  highlightAdjacentNodes();
});
]]></script>
</svg>
