<?xml version="1.0" encoding="UTF-8" standalone="no"?>
<!DOCTYPE svg PUBLIC "-//W3C//DTD SVG 1.1//EN"
 "http://www.w3.org/Graphics/SVG/1.1/DTD/svg11.dtd">
<!-- Generated by graphviz version 15.1.0 (20260618.0150)
 -->
<!-- Title: include/Random.hpp Pages: 1 -->
<!--zoomable 439 -->

<svg id="main" version="1.1" xmlns="http://www.w3.org/2000/svg" xmlns:xlink="http://www.w3.org/1999/xlink" xml:space="preserve" onload="init(evt)">

<style type="text/css"><![CDATA[
.node, .edge {opacity: 0.7;}
.node.selected, .edge.selected {opacity: 1;}
.edge:hover path { stroke: red; }
.edge:hover polygon { stroke: red; fill: red; }
]]></style>

<defs>
  <circle id="rim" cx="0" cy="0" r="7"/>
  <circle id="rim2" cx="0" cy="0" r="3.5"/>
  <g id="zoomPlus">
    <use xlink:href="#rim" fill="#404040"><set attributeName="fill" to="#808080" begin="zoomplus.mouseover" end="zoomplus.mouseout"/></use>
    <path d="M-4,0h8M0,-4v8" fill="none" stroke="white" stroke-width="1.5" pointer-events="none"/>
  </g>
  <g id="zoomMin">
    <use xlink:href="#rim" fill="#404040"><set attributeName="fill" to="#808080" begin="zoomminus.mouseover" end="zoomminus.mouseout"/></use>
    <path d="M-4,0h8" fill="none" stroke="white" stroke-width="1.5" pointer-events="none"/>
  </g>
  <g id="arrowUp" transform="translate(30 24)">
    <use xlink:href="#rim"/>
    <path pointer-events="none" fill="none" stroke="white" stroke-width="1.5" d="M0,-3.0v7 M-2.5,-0.5L0,-3.0L2.5,-0.5"/>
  </g>
  <g id="arrowRight" transform="rotate(90) translate(36 -43)">
    <use xlink:href="#rim"/>
    <path pointer-events="none" fill="none" stroke="white" stroke-width="1.5" d="M0,-3.0v7 M-2.5,-0.5L0,-3.0L2.5,-0.5"/>
  </g>
  <g id="arrowDown" transform="rotate(180) translate(-30 -48)">
    <use xlink:href="#rim"/>
    <path pointer-events="none" fill="none" stroke="white" stroke-width="1.5" d="M0,-3.0v7 M-2.5,-0.5L0,-3.0L2.5,-0.5"/>
  </g>
  <g id="arrowLeft" transform="rotate(270) translate(-36 17)">
    <use xlink:href="#rim"/>
    <path pointer-events="none" fill="none" stroke="white" stroke-width="1.5" d="M0,-3.0v7 M-2.5,-0.5L0,-3.0L2.5,-0.5"/>
  </g>
  <g id="resetDef">
    <use xlink:href="#rim2" fill="#404040"><set attributeName="fill" to="#808080" begin="reset.mouseover" end="reset.mouseout"/></use>
  </g>
</defs>
<script type="application/ecmascript">
var viewWidth = 754;
var viewHeight = 439;
var sectionId = 'dynsection-1';
</script>
<script type="application/ecmascript" xlink:href="svg.min.js"/>
<svg id="graph" class="graph">
<g id="viewport">
<title>include/Random.hpp</title>
<!-- Node1 -->
<g id="Node000001" class="node">
<title>Node1</title>
<g id="a_Node000001"><a xlink:title="Run&#45;owned random&#45;number generation and reproducible stream splitting.">
<polygon fill="#999999" stroke="#666666" points="332.32,-430.75 216.57,-430.75 216.57,-410 332.32,-410 332.32,-430.75"/>
<text xml:space="preserve" text-anchor="middle" x="274.44" y="-417.25" font-family="Helvetica,sans-Serif" font-size="10.00">include/Random.hpp</text>
</a>
</g>
</g>
<!-- Node2 -->
<g id="Node000002" class="node">
<title>Node2</title>
<g id="a_Node000002"><a xlink:href="_foliated__triangulation_8hpp.html" target="_top" xlink:title="Create foliated spherical triangulations.">
<polygon fill="white" stroke="#666666" points="425.32,-317.25 243.57,-317.25 243.57,-296.5 425.32,-296.5 425.32,-317.25"/>
<text xml:space="preserve" text-anchor="middle" x="334.44" y="-303.75" font-family="Helvetica,sans-Serif" font-size="10.00">include/Foliated_triangulation.hpp</text>
</a>
</g>
</g>
<!-- Node1&#45;&gt;Node2 -->
<g id="edge1_Node000001_Node000002" class="edge">
<title>Node1&#45;&gt;Node2</title>
<g id="a_edge1_Node000001_Node000002"><a xlink:title=" ">
<path fill="none" stroke="#63b8ff" d="M284.98,-399.79C297.9,-375.77 319.31,-336 329.17,-317.68"/>
<polygon fill="#63b8ff" stroke="#63b8ff" points="281.93,-398.07 280.27,-408.54 288.1,-401.39 281.93,-398.07"/>
</a>
</g>
</g>
<!-- Node4 -->
<g id="Node000004" class="node">
<title>Node4</title>
<g id="a_Node000004"><a xlink:href="_manifold_8hpp.html" target="_top" xlink:title="Data structures for manifolds.">
<polygon fill="white" stroke="#666666" points="471.44,-203.75 353.44,-203.75 353.44,-183 471.44,-183 471.44,-203.75"/>
<text xml:space="preserve" text-anchor="middle" x="412.44" y="-190.25" font-family="Helvetica,sans-Serif" font-size="10.00">include/Manifold.hpp</text>
</a>
</g>
</g>
<!-- Node1&#45;&gt;Node4 -->
<g id="edge11_Node000001_Node000004" class="edge">
<title>Node1&#45;&gt;Node4</title>
<g id="a_edge11_Node000001_Node000004"><a xlink:title=" ">
<path fill="none" stroke="#63b8ff" d="M259.27,-400.75C240.88,-375.77 214.69,-330.61 234.44,-296.5 264.26,-245.01 330.92,-217.24 373.67,-204.15"/>
<polygon fill="#63b8ff" stroke="#63b8ff" points="256.25,-402.57 265.13,-408.36 261.8,-398.3 256.25,-402.57"/>
</a>
</g>
</g>
<!-- Node6 -->
<g id="Node000006" class="node">
<title>Node6</title>
<g id="a_Node000006"><a xlink:href="_metropolis_8hpp.html" target="_top" xlink:title="Perform Metropolis&#45;Hastings algorithm on Delaunay Triangulations.">
<polygon fill="white" stroke="#666666" points="681.94,-77.5 554.94,-77.5 554.94,-56.75 681.94,-56.75 681.94,-77.5"/>
<text xml:space="preserve" text-anchor="middle" x="618.44" y="-64" font-family="Helvetica,sans-Serif" font-size="10.00">include/Metropolis.hpp</text>
</a>
</g>
</g>
<!-- Node1&#45;&gt;Node6 -->
<g id="edge12_Node000001_Node000006" class="edge">
<title>Node1&#45;&gt;Node6</title>
<g id="a_edge12_Node000001_Node000006"><a xlink:title=" ">
<path fill="none" stroke="#63b8ff" d="M344.29,-417.29C475.67,-411.44 746.44,-389.51 746.44,-307.88 746.44,-307.88 746.44,-307.88 746.44,-249.12 746.44,-170.61 665.16,-102.29 632.14,-77.78"/>
<polygon fill="#63b8ff" stroke="#63b8ff" points="344.15,-413.79 334.3,-417.71 344.44,-420.78 344.15,-413.79"/>
</a>
</g>
</g>
<!-- Node8 -->
<g id="Node000008" class="node">
<title>Node8</title>
<g id="a_Node000008"><a xlink:href="_move__command_8hpp.html" target="_top" xlink:title="Do ergodic moves using the Command pattern.">
<polygon fill="white" stroke="#666666" points="184.57,-77.5 28.32,-77.5 28.32,-56.75 184.57,-56.75 184.57,-77.5"/>
<text xml:space="preserve" text-anchor="middle" x="106.44" y="-64" font-family="Helvetica,sans-Serif" font-size="10.00">include/Move_command.hpp</text>
</a>
</g>
</g>
<!-- Node1&#45;&gt;Node8 -->
<g id="edge14_Node000001_Node000008" class="edge">
<title>Node1&#45;&gt;Node8</title>
<g id="a_edge14_Node000001_Node000008"><a xlink:title=" ">
<path fill="none" stroke="#63b8ff" d="M205.2,-410.05C146.73,-397.83 72.44,-370.06 72.44,-307.88 72.44,-307.88 72.44,-307.88 72.44,-192.38 72.44,-148.32 92.58,-98.49 101.86,-77.86"/>
<polygon fill="#63b8ff" stroke="#63b8ff" points="204.31,-413.45 214.8,-411.94 205.66,-406.58 204.31,-413.45"/>
</a>
</g>
</g>
<!-- Node9 -->
<g id="Node000009" class="node">
<title>Node9</title>
<g id="a_Node000009"><a xlink:href="_move__always_8hpp.html" target="_top" xlink:title="Randomly selects moves to always perform on triangulations.">
<polygon fill="white" stroke="#666666" points="177.44,-20.75 35.44,-20.75 35.44,0 177.44,0 177.44,-20.75"/>
<text xml:space="preserve" text-anchor="middle" x="106.44" y="-7.25" font-family="Helvetica,sans-Serif" font-size="10.00">include/Move_always.hpp</text>
</a>
</g>
</g>
<!-- Node1&#45;&gt;Node9 -->
<g id="edge13_Node000001_Node000009" class="edge">
<title>Node1&#45;&gt;Node9</title>
<g id="a_edge13_Node000001_Node000009"><a xlink:title=" ">
<path fill="none" stroke="#63b8ff" d="M205.32,-410.04C168.45,-403.3 123.06,-392.1 85.44,-374 42.31,-353.25 0.44,-355.74 0.44,-307.88 0.44,-307.88 0.44,-307.88 0.44,-129.25 0.44,-95.94 -1.33,-82.79 19.44,-56.75 33.14,-39.57 55.13,-28.18 73.57,-21.11"/>
<polygon fill="#63b8ff" stroke="#63b8ff" points="204.53,-413.46 214.98,-411.74 205.74,-406.56 204.53,-413.46"/>
</a>
</g>
</g>
<!-- Node12 -->
<g id="Node000012" class="node">
<title>Node12</title>
<g id="a_Node000012"><a xlink:href="_move__run_8hpp.html" target="_top" xlink:title="Shared value&#45;oriented orchestration for ergodic&#45;move strategies.">
<polygon fill="white" stroke="#666666" points="224.07,-140.62 100.82,-140.62 100.82,-119.88 224.07,-119.88 224.07,-140.62"/>
<text xml:space="preserve" text-anchor="middle" x="162.44" y="-127.12" font-family="Helvetica,sans-Serif" font-size="10.00">include/Move_run.hpp</text>
</a>
</g>
</g>
<!-- Node1&#45;&gt;Node12 -->
<g id="edge15_Node000001_Node000012" class="edge">
<title>Node1&#45;&gt;Node12</title>
<g id="a_edge15_Node000001_Node000012"><a xlink:title=" ">
<path fill="none" stroke="#63b8ff" d="M242.41,-404.25C209.63,-386.29 163.44,-352.98 163.44,-307.88 163.44,-307.88 163.44,-307.88 163.44,-249.12 163.44,-209.01 162.86,-161.23 162.58,-141.03"/>
<polygon fill="#63b8ff" stroke="#63b8ff" points="240.69,-407.3 251.17,-408.84 243.94,-401.1 240.69,-407.3"/>
</a>
</g>
</g>
<!-- Node13 -->
<g id="Node000013" class="node">
<title>Node13</title>
<g id="a_Node000013"><a xlink:href="_runtime__config_8hpp.html" target="_top" xlink:title="Validated runtime configuration for CDT++ command&#45;line programs.">
<polygon fill="white" stroke="#666666" points="717.94,-260.5 566.94,-260.5 566.94,-239.75 717.94,-239.75 717.94,-260.5"/>
<text xml:space="preserve" text-anchor="middle" x="642.44" y="-247" font-family="Helvetica,sans-Serif" font-size="10.00">include/Runtime_config.hpp</text>
</a>
</g>
</g>
<!-- Node1&#45;&gt;Node13 -->
<g id="edge18_Node000001_Node000013" class="edge">
<title>Node1&#45;&gt;Node13</title>
<g id="a_edge18_Node000001_Node000013"><a xlink:title=" ">
<path fill="none" stroke="#63b8ff" d="M343.84,-413.29C412.01,-406.33 510.44,-393.33 543.44,-374 591.66,-345.76 625.9,-284.5 637.82,-260.78"/>
<polygon fill="#63b8ff" stroke="#63b8ff" points="343.87,-409.77 334.26,-414.25 344.56,-416.74 343.87,-409.77"/>
</a>
</g>
</g>
<!-- Node14 -->
<g id="Node000014" class="node">
<title>Node14</title>
<g id="a_Node000014"><a xlink:href="_utilities_8hpp.html" target="_top" xlink:title="Utility functions.">
<polygon fill="white" stroke="#666666" points="534.19,-374 420.69,-374 420.69,-353.25 534.19,-353.25 534.19,-374"/>
<text xml:space="preserve" text-anchor="middle" x="477.44" y="-360.5" font-family="Helvetica,sans-Serif" font-size="10.00">include/Utilities.hpp</text>
</a>
</g>
</g>
<!-- Node1&#45;&gt;Node14 -->
<g id="edge21_Node000001_Node000014" class="edge">
<title>Node1&#45;&gt;Node14</title>
<g id="a_edge21_Node000001_Node000014"><a xlink:title=" ">
<path fill="none" stroke="#63b8ff" d="M321.59,-406.66C358.03,-396.83 407.73,-383.43 441.12,-374.42"/>
<polygon fill="#63b8ff" stroke="#63b8ff" points="320.94,-403.21 312.2,-409.19 322.76,-409.97 320.94,-403.21"/>
</a>
</g>
</g>
<!-- Node3 -->
<g id="Node000003" class="node">
<title>Node3</title>
<g id="a_Node000003"><a xlink:href="_geometry_8hpp.html" target="_top" xlink:title="Geometric scalars of the Manifold used to calculate the Regge action.">
<polygon fill="white" stroke="#666666" points="472.69,-260.5 350.19,-260.5 350.19,-239.75 472.69,-239.75 472.69,-260.5"/>
<text xml:space="preserve" text-anchor="middle" x="411.44" y="-247" font-family="Helvetica,sans-Serif" font-size="10.00">include/Geometry.hpp</text>
</a>
</g>
</g>
<!-- Node2&#45;&gt;Node3 -->
<g id="edge2_Node000002_Node000003" class="edge">
<title>Node2&#45;&gt;Node3</title>
<g id="a_edge2_Node000002_Node000003"><a xlink:title=" ">
<path fill="none" stroke="#63b8ff" d="M357.56,-289.44C370.68,-280.11 386.66,-268.75 397.8,-260.83"/>
<polygon fill="#63b8ff" stroke="#63b8ff" points="355.56,-286.56 349.44,-295.21 359.62,-292.27 355.56,-286.56"/>
</a>
</g>
</g>
<!-- Node3&#45;&gt;Node4 -->
<g id="edge3_Node000003_Node000004" class="edge">
<title>Node3&#45;&gt;Node4</title>
<g id="a_edge3_Node000003_Node000004"><a xlink:title=" ">
<path fill="none" stroke="#63b8ff" d="M411.83,-227.88C411.98,-219.66 412.14,-210.68 412.26,-204.08"/>
<polygon fill="#63b8ff" stroke="#63b8ff" points="408.33,-227.76 411.65,-237.82 415.33,-227.89 408.33,-227.76"/>
</a>
</g>
</g>
<!-- Node5 -->
<g id="Node000005" class="node">
<title>Node5</title>
<g id="a_Node000005"><a xlink:href="_ergodic__moves__3_8hpp.html" target="_top" xlink:title="Pachner moves on 2+1 dimensional foliated Delaunay triangulations.">
<polygon fill="white" stroke="#666666" points="370.69,-147 242.19,-147 242.19,-113.5 370.69,-113.5 370.69,-147"/>
<text xml:space="preserve" text-anchor="start" x="250.19" y="-133.5" font-family="Helvetica,sans-Serif" font-size="10.00">include/Ergodic_moves</text>
<text xml:space="preserve" text-anchor="middle" x="306.44" y="-120.75" font-family="Helvetica,sans-Serif" font-size="10.00">_3.hpp</text>
</a>
</g>
</g>
<!-- Node4&#45;&gt;Node5 -->
<g id="edge4_Node000004_Node000005" class="edge">
<title>Node4&#45;&gt;Node5</title>
<g id="a_edge4_Node000004_Node000005"><a xlink:title=" ">
<path fill="none" stroke="#63b8ff" d="M385.82,-177.02C370.2,-168.02 350.47,-156.64 334.6,-147.48"/>
<polygon fill="#63b8ff" stroke="#63b8ff" points="383.69,-179.83 394.1,-181.8 387.19,-173.77 383.69,-179.83"/>
</a>
</g>
</g>
<!-- Node10 -->
<g id="Node000010" class="node">
<title>Node10</title>
<g id="a_Node000010"><a xlink:href="cdt-viewer_8cpp.html" target="_top" xlink:title="Views 3D spacetimes.">
<polygon fill="white" stroke="#666666" points="492.32,-140.62 388.57,-140.62 388.57,-119.88 492.32,-119.88 492.32,-140.62"/>
<text xml:space="preserve" text-anchor="middle" x="440.44" y="-127.12" font-family="Helvetica,sans-Serif" font-size="10.00">src/cdt&#45;viewer.cpp</text>
</a>
</g>
</g>
<!-- Node4&#45;&gt;Node10 -->
<g id="edge9_Node000004_Node000010" class="edge">
<title>Node4&#45;&gt;Node10</title>
<g id="a_edge9_Node000004_Node000010"><a xlink:title=" ">
<path fill="none" stroke="#63b8ff" d="M421.72,-172.13C426.54,-161.59 432.22,-149.2 436.05,-140.84"/>
<polygon fill="#63b8ff" stroke="#63b8ff" points="418.55,-170.63 417.57,-181.18 424.92,-173.54 418.55,-170.63"/>
</a>
</g>
</g>
<!-- Node11 -->
<g id="Node000011" class="node">
<title>Node11</title>
<g id="a_Node000011"><a xlink:href="initialize_8cpp.html" target="_top" xlink:title="Generates initial spacetimes.">
<polygon fill="white" stroke="#666666" points="606.19,-140.62 510.69,-140.62 510.69,-119.88 606.19,-119.88 606.19,-140.62"/>
<text xml:space="preserve" text-anchor="middle" x="558.44" y="-127.12" font-family="Helvetica,sans-Serif" font-size="10.00">src/initialize.cpp</text>
</a>
</g>
</g>
<!-- Node4&#45;&gt;Node11 -->
<g id="edge10_Node000004_Node000011" class="edge">
<title>Node4&#45;&gt;Node11</title>
<g id="a_edge10_Node000004_Node000011"><a xlink:title=" ">
<path fill="none" stroke="#63b8ff" d="M446.5,-178.12C473.71,-166.72 511.12,-151.06 535.04,-141.05"/>
<polygon fill="#63b8ff" stroke="#63b8ff" points="445.17,-174.88 437.3,-181.97 447.87,-181.34 445.17,-174.88"/>
</a>
</g>
</g>
<!-- Node5&#45;&gt;Node6 -->
<g id="edge5_Node000005_Node000006" class="edge">
<title>Node5&#45;&gt;Node6</title>
<g id="a_edge5_Node000005_Node000006"><a xlink:title=" ">
<path fill="none" stroke="#63b8ff" d="M381.9,-113.03C450.36,-99.23 518.71,-86.42 564.74,-77.93"/>
<polygon fill="#63b8ff" stroke="#63b8ff" points="381.5,-109.54 372.39,-114.95 382.89,-116.4 381.5,-109.54"/>
</a>
</g>
</g>
<!-- Node5&#45;&gt;Node8 -->
<g id="edge7_Node000005_Node000008" class="edge">
<title>Node5&#45;&gt;Node8</title>
<g id="a_edge7_Node000005_Node000008"><a xlink:title=" ">
<path fill="none" stroke="#63b8ff" d="M242.37,-109.67C207.7,-99.07 166.38,-86.44 138.47,-77.92"/>
<polygon fill="#63b8ff" stroke="#63b8ff" points="241.34,-113.01 251.92,-112.59 243.38,-106.32 241.34,-113.01"/>
</a>
</g>
</g>
<!-- Node7 -->
<g id="Node000007" class="node">
<title>Node7</title>
<g id="a_Node000007"><a xlink:href="cdt_8cpp.html" target="_top" xlink:title="The main executable.">
<polygon fill="white" stroke="#666666" points="698.69,-20.75 630.19,-20.75 630.19,0 698.69,0 698.69,-20.75"/>
<text xml:space="preserve" text-anchor="middle" x="664.44" y="-7.25" font-family="Helvetica,sans-Serif" font-size="10.00">src/cdt.cpp</text>
</a>
</g>
</g>
<!-- Node6&#45;&gt;Node7 -->
<g id="edge6_Node000006_Node000007" class="edge">
<title>Node6&#45;&gt;Node7</title>
<g id="a_edge6_Node000006_Node000007"><a xlink:title=" ">
<path fill="none" stroke="#63b8ff" d="M633.89,-47.74C641.39,-38.81 650.09,-28.45 656.29,-21.08"/>
<polygon fill="#63b8ff" stroke="#63b8ff" points="631.39,-45.27 627.64,-55.18 636.75,-49.77 631.39,-45.27"/>
</a>
</g>
</g>
<!-- Node8&#45;&gt;Node9 -->
<g id="edge8_Node000008_Node000009" class="edge">
<title>Node8&#45;&gt;Node9</title>
<g id="a_edge8_Node000008_Node000009"><a xlink:title=" ">
<path fill="none" stroke="#63b8ff" d="M106.44,-44.88C106.44,-36.66 106.44,-27.68 106.44,-21.08"/>
<polygon fill="#63b8ff" stroke="#63b8ff" points="102.94,-44.82 106.44,-54.82 109.94,-44.82 102.94,-44.82"/>
</a>
</g>
</g>
<!-- Node12&#45;&gt;Node6 -->
<g id="edge16_Node000012_Node000006" class="edge">
<title>Node12&#45;&gt;Node6</title>
<g id="a_edge16_Node000012_Node000006"><a xlink:title=" ">
<path fill="none" stroke="#63b8ff" d="M214.77,-117.02C221.04,-115.74 227.37,-114.53 233.44,-113.5 345.75,-94.47 477.84,-80.77 554.46,-73.67"/>
<polygon fill="#63b8ff" stroke="#63b8ff" points="214.14,-113.57 205.08,-119.07 215.59,-120.42 214.14,-113.57"/>
</a>
</g>
</g>
<!-- Node12&#45;&gt;Node9 -->
<g id="edge17_Node000012_Node000009" class="edge">
<title>Node12&#45;&gt;Node9</title>
<g id="a_edge17_Node000012_Node000009"><a xlink:title=" ">
<path fill="none" stroke="#63b8ff" d="M179.69,-111C191.77,-95.91 204.02,-74.2 193.44,-56.75 182.76,-39.12 162.74,-28.02 144.59,-21.22"/>
<polygon fill="#63b8ff" stroke="#63b8ff" points="177.27,-108.44 173.38,-118.3 182.57,-113.02 177.27,-108.44"/>
</a>
</g>
</g>
<!-- Node13&#45;&gt;Node7 -->
<g id="edge19_Node000013_Node000007" class="edge">
<title>Node13&#45;&gt;Node7</title>
<g id="a_edge19_Node000013_Node000007"><a xlink:title=" ">
<path fill="none" stroke="#63b8ff" d="M650.27,-228.74C662,-196.99 683.6,-133.56 691.44,-77.5 692.72,-68.37 693.89,-65.64 691.44,-56.75 687.75,-43.32 678.92,-29.84 672.36,-21.1"/>
<polygon fill="#63b8ff" stroke="#63b8ff" points="647.09,-227.27 646.84,-237.86 653.64,-229.73 647.09,-227.27"/>
</a>
</g>
</g>
<!-- Node13&#45;&gt;Node11 -->
<g id="edge20_Node000013_Node000011" class="edge">
<title>Node13&#45;&gt;Node11</title>
<g id="a_edge20_Node000013_Node000011"><a xlink:title=" ">
<path fill="none" stroke="#63b8ff" d="M628.92,-230.15C610.81,-204.74 579.34,-160.57 565.41,-141.03"/>
<polygon fill="#63b8ff" stroke="#63b8ff" points="626.04,-232.13 634.69,-238.25 631.74,-228.07 626.04,-232.13"/>
</a>
</g>
</g>
<!-- Node14&#45;&gt;Node2 -->
<g id="edge22_Node000014_Node000002" class="edge">
<title>Node14&#45;&gt;Node2</title>
<g id="a_edge22_Node000014_Node000002"><a xlink:title=" ">
<path fill="none" stroke="#63b8ff" d="M441.17,-348.74C415.74,-339 382.39,-326.23 359.79,-317.58"/>
<polygon fill="#63b8ff" stroke="#63b8ff" points="439.87,-351.99 450.46,-352.3 442.38,-345.45 439.87,-351.99"/>
</a>
</g>
</g>
<!-- Node14&#45;&gt;Node6 -->
<g id="edge23_Node000014_Node000006" class="edge">
<title>Node14&#45;&gt;Node6</title>
<g id="a_edge23_Node000014_Node000006"><a xlink:title=" ">
<path fill="none" stroke="#63b8ff" d="M490.17,-343.35C523.68,-292.52 612,-157.99 615.44,-147 622.94,-123.07 621.25,-93.05 619.68,-77.87"/>
<polygon fill="#63b8ff" stroke="#63b8ff" points="487.32,-341.31 484.74,-351.58 493.16,-345.16 487.32,-341.31"/>
</a>
</g>
</g>
<!-- Node14&#45;&gt;Node10 -->
<g id="edge28_Node000014_Node000010" class="edge">
<title>Node14&#45;&gt;Node10</title>
<g id="a_edge28_Node000014_Node000010"><a xlink:title=" ">
<path fill="none" stroke="#63b8ff" d="M482.29,-342.03C489.36,-307.86 499.68,-237.77 480.44,-183 474.57,-166.29 461,-150.73 451.3,-141.12"/>
<polygon fill="#63b8ff" stroke="#63b8ff" points="478.95,-340.91 480.22,-351.43 485.79,-342.41 478.95,-340.91"/>
</a>
</g>
</g>
<!-- Node14&#45;&gt;Node13 -->
<g id="edge27_Node000014_Node000013" class="edge">
<title>Node14&#45;&gt;Node13</title>
<g id="a_edge27_Node000014_Node000013"><a xlink:title=" ">
<path fill="none" stroke="#63b8ff" d="M504.49,-347.05C518.92,-338.55 536.86,-327.66 552.44,-317.25 580.82,-298.3 612.72,-274.15 629.88,-260.91"/>
<polygon fill="#63b8ff" stroke="#63b8ff" points="502.87,-343.95 496,-352.02 506.4,-349.99 502.87,-343.95"/>
</a>
</g>
</g>
<!-- Node15 -->
<g id="Node000015" class="node">
<title>Node15</title>
<g id="a_Node000015"><a xlink:href="_move__tracker_8hpp.html" target="_top" xlink:title="Track ergodic moves.">
<polygon fill="white" stroke="#666666" points="335.69,-203.75 195.19,-203.75 195.19,-183 335.69,-183 335.69,-203.75"/>
<text xml:space="preserve" text-anchor="middle" x="265.44" y="-190.25" font-family="Helvetica,sans-Serif" font-size="10.00">include/Move_tracker.hpp</text>
</a>
</g>
</g>
<!-- Node14&#45;&gt;Node15 -->
<g id="edge24_Node000014_Node000015" class="edge">
<title>Node14&#45;&gt;Node15</title>
<g id="a_edge24_Node000014_Node000015"><a xlink:title=" ">
<path fill="none" stroke="#63b8ff" d="M468.9,-343.18C461.61,-328.57 449.86,-309.02 434.44,-296.5 400.03,-268.57 379.4,-283.39 341.44,-260.5 314.48,-244.24 287.86,-218.16 274.43,-204.1"/>
<polygon fill="#63b8ff" stroke="#63b8ff" points="465.53,-344.24 472.95,-351.81 471.87,-341.27 465.53,-344.24"/>
</a>
</g>
</g>
<!-- Node15&#45;&gt;Node5 -->
<g id="edge25_Node000015_Node000005" class="edge">
<title>Node15&#45;&gt;Node5</title>
<g id="a_edge25_Node000015_Node000005"><a xlink:title=" ">
<path fill="none" stroke="#63b8ff" d="M278.42,-173.03C283.93,-164.81 290.29,-155.33 295.55,-147.48"/>
<polygon fill="#63b8ff" stroke="#63b8ff" points="275.54,-171.04 272.87,-181.3 281.35,-174.94 275.54,-171.04"/>
</a>
</g>
</g>
<!-- Node15&#45;&gt;Node12 -->
<g id="edge26_Node000015_Node000012" class="edge">
<title>Node15&#45;&gt;Node12</title>
<g id="a_edge26_Node000015_Node000012"><a xlink:title=" ">
<path fill="none" stroke="#63b8ff" d="M239.08,-176.73C220.12,-165.48 195.15,-150.66 178.95,-141.05"/>
<polygon fill="#63b8ff" stroke="#63b8ff" points="237.21,-179.69 247.59,-181.78 240.78,-173.67 237.21,-179.69"/>
</a>
</g>
</g>
</g>
</svg>

<g id="navigator" transform="translate(0 0)" fill="#404254">
  <rect fill="#f2f5e9" fill-opacity="0.5" stroke="#606060" stroke-width=".5" x="0" y="0" width="60" height="60"/>
  <use id="zoomplus" xlink:href="#zoomPlus" x="17" y="9" onmousedown="handleZoom(evt,'in')"/>
  <use id="zoomminus" xlink:href="#zoomMin" x="42" y="9" onmousedown="handleZoom(evt,'out')"/>
  <use id="reset" xlink:href="#resetDef" x="30" y="36" onmousedown="handleReset()"/>
   <use id="arrowup" xlink:href="#arrowUp" x="0" y="0" onmousedown="handlePan(0,-1)"/>
  <use id="arrowright" xlink:href="#arrowRight" x="0" y="0" onmousedown="handlePan(1,0)"/>
  <use id="arrowdown" xlink:href="#arrowDown" x="0" y="0" onmousedown="handlePan(0,1)"/>
  <use id="arrowleft" xlink:href="#arrowLeft" x="0" y="0" onmousedown="handlePan(-1,0)"/>
</g>
<svg viewBox="0 0 15 15" width="100%" height="30px" preserveAspectRatio="xMaxYMin meet">
 <g id="arrow_out" transform="scale(0.3 0.3)">
  <a xlink:href="_random_8hpp__dep__incl_org.svg" target="_base">
   <rect id="button" ry="5" rx="5" y="6" x="6" height="38" width="38"
        fill="#f2f5e9" fill-opacity="0.5" stroke="#606060" stroke-width="1.0"/>
   <path id="arrow"
     d="M 11.500037,31.436501 C 11.940474,20.09759 22.043105,11.32322 32.158766,21.979434 L 37.068811,17.246167 C 37.068811,17.246167 37.088388,32 37.088388,32 L 22.160133,31.978069 C 22.160133,31.978069 26.997745,27.140456 26.997745,27.140456 C 18.528582,18.264221 13.291696,25.230495 11.500037,31.436501 z"
     style="fill:#404040;"/>
  </a>
 </g>
</svg>

<style type='text/css'>
<![CDATA[
[data-mouse-over-selected='false'] { opacity: 0.7; }
[data-mouse-over-selected='true']  { opacity: 1.0; }
]]>
</style>
<script type="application/ecmascript"><![CDATA[
document.addEventListener('DOMContentLoaded', (event) => {
  highlightEdges();
  highlightAdjacentNodes();
});
]]></script>
</svg>
