<?xml version="1.0" encoding="UTF-8" standalone="no"?>
<!DOCTYPE svg PUBLIC "-//W3C//DTD SVG 1.1//EN"
 "http://www.w3.org/Graphics/SVG/1.1/DTD/svg11.dtd">
<!-- Generated by graphviz version 15.1.0 (20260618.0150)
 -->
<!-- Title: include/Random.hpp Pages: 1 -->
<!--zoomable 439 -->

<svg id="main" version="1.1" xmlns="http://www.w3.org/2000/svg" xmlns:xlink="http://www.w3.org/1999/xlink" xml:space="preserve" onload="init(evt)">

<style type="text/css"><![CDATA[
.node, .edge {opacity: 0.7;}
.node.selected, .edge.selected {opacity: 1;}
.edge:hover path { stroke: red; }
.edge:hover polygon { stroke: red; fill: red; }
]]></style>

<defs>
  <circle id="rim" cx="0" cy="0" r="7"/>
  <circle id="rim2" cx="0" cy="0" r="3.5"/>
  <g id="zoomPlus">
    <use xlink:href="#rim" fill="#404040"><set attributeName="fill" to="#808080" begin="zoomplus.mouseover" end="zoomplus.mouseout"/></use>
    <path d="M-4,0h8M0,-4v8" fill="none" stroke="white" stroke-width="1.5" pointer-events="none"/>
  </g>
  <g id="zoomMin">
    <use xlink:href="#rim" fill="#404040"><set attributeName="fill" to="#808080" begin="zoomminus.mouseover" end="zoomminus.mouseout"/></use>
    <path d="M-4,0h8" fill="none" stroke="white" stroke-width="1.5" pointer-events="none"/>
  </g>
  <g id="arrowUp" transform="translate(30 24)">
    <use xlink:href="#rim"/>
    <path pointer-events="none" fill="none" stroke="white" stroke-width="1.5" d="M0,-3.0v7 M-2.5,-0.5L0,-3.0L2.5,-0.5"/>
  </g>
  <g id="arrowRight" transform="rotate(90) translate(36 -43)">
    <use xlink:href="#rim"/>
    <path pointer-events="none" fill="none" stroke="white" stroke-width="1.5" d="M0,-3.0v7 M-2.5,-0.5L0,-3.0L2.5,-0.5"/>
  </g>
  <g id="arrowDown" transform="rotate(180) translate(-30 -48)">
    <use xlink:href="#rim"/>
    <path pointer-events="none" fill="none" stroke="white" stroke-width="1.5" d="M0,-3.0v7 M-2.5,-0.5L0,-3.0L2.5,-0.5"/>
  </g>
  <g id="arrowLeft" transform="rotate(270) translate(-36 17)">
    <use xlink:href="#rim"/>
    <path pointer-events="none" fill="none" stroke="white" stroke-width="1.5" d="M0,-3.0v7 M-2.5,-0.5L0,-3.0L2.5,-0.5"/>
  </g>
  <g id="resetDef">
    <use xlink:href="#rim2" fill="#404040"><set attributeName="fill" to="#808080" begin="reset.mouseover" end="reset.mouseout"/></use>
  </g>
</defs>
<script type="application/ecmascript">
var viewWidth = 777;
var viewHeight = 439;
var sectionId = 'dynsection-1';
</script>
<script type="application/ecmascript" xlink:href="svg.min.js"/>
<svg id="graph" class="graph">
<g id="viewport">
<title>include/Random.hpp</title>
<!-- Node1 -->
<g id="Node000001" class="node">
<title>Node1</title>
<g id="a_Node000001"><a xlink:title="Run&#45;owned random&#45;number generation and reproducible stream splitting.">
<polygon fill="#999999" stroke="#666666" points="390.88,-430.75 275.12,-430.75 275.12,-410 390.88,-410 390.88,-430.75"/>
<text xml:space="preserve" text-anchor="middle" x="333" y="-417.25" font-family="Helvetica,sans-Serif" font-size="10.00">include/Random.hpp</text>
</a>
</g>
</g>
<!-- Node2 -->
<g id="Node000002" class="node">
<title>Node2</title>
<g id="a_Node000002"><a xlink:href="_foliated__triangulation_8hpp.html" target="_top" xlink:title="Create foliated spherical triangulations.">
<polygon fill="white" stroke="#666666" points="285.88,-317.25 104.12,-317.25 104.12,-296.5 285.88,-296.5 285.88,-317.25"/>
<text xml:space="preserve" text-anchor="middle" x="195" y="-303.75" font-family="Helvetica,sans-Serif" font-size="10.00">include/Foliated_triangulation.hpp</text>
</a>
</g>
</g>
<!-- Node1&#45;&gt;Node2 -->
<g id="edge1_Node000001_Node000002" class="edge">
<title>Node1&#45;&gt;Node2</title>
<g id="a_edge1_Node000001_Node000002"><a xlink:title=" ">
<path fill="none" stroke="#63b8ff" d="M312.29,-402.64C283.09,-379.05 230.73,-336.75 207.13,-317.68"/>
<polygon fill="#63b8ff" stroke="#63b8ff" points="310.08,-405.36 320.06,-408.92 314.48,-399.91 310.08,-405.36"/>
</a>
</g>
</g>
<!-- Node4 -->
<g id="Node000004" class="node">
<title>Node4</title>
<g id="a_Node000004"><a xlink:href="_manifold_8hpp.html" target="_top" xlink:title="Data structures for manifolds.">
<polygon fill="white" stroke="#666666" points="239,-203.75 121,-203.75 121,-183 239,-183 239,-203.75"/>
<text xml:space="preserve" text-anchor="middle" x="180" y="-190.25" font-family="Helvetica,sans-Serif" font-size="10.00">include/Manifold.hpp</text>
</a>
</g>
</g>
<!-- Node1&#45;&gt;Node4 -->
<g id="edge11_Node000001_Node000004" class="edge">
<title>Node1&#45;&gt;Node4</title>
<g id="a_edge11_Node000001_Node000004"><a xlink:title=" ">
<path fill="none" stroke="#63b8ff" d="M263.38,-410.29C207.37,-398.92 132.1,-373.53 95,-317.25 83,-299.05 98.42,-255.74 110,-239.75 121.73,-223.57 141.15,-211.64 156.57,-204.09"/>
<polygon fill="#63b8ff" stroke="#63b8ff" points="262.7,-413.73 273.18,-412.17 264.01,-406.85 262.7,-413.73"/>
</a>
</g>
</g>
<!-- Node6 -->
<g id="Node000006" class="node">
<title>Node6</title>
<g id="a_Node000006"><a xlink:href="_metropolis_8hpp.html" target="_top" xlink:title="Perform Metropolis&#45;Hastings algorithm on Delaunay Triangulations.">
<polygon fill="white" stroke="#666666" points="704.5,-77.5 577.5,-77.5 577.5,-56.75 704.5,-56.75 704.5,-77.5"/>
<text xml:space="preserve" text-anchor="middle" x="641" y="-64" font-family="Helvetica,sans-Serif" font-size="10.00">include/Metropolis.hpp</text>
</a>
</g>
</g>
<!-- Node1&#45;&gt;Node6 -->
<g id="edge12_Node000001_Node000006" class="edge">
<title>Node1&#45;&gt;Node6</title>
<g id="a_edge12_Node000001_Node000006"><a xlink:title=" ">
<path fill="none" stroke="#63b8ff" d="M402.51,-415.93C525.59,-407.91 769,-382.6 769,-307.88 769,-307.88 769,-307.88 769,-192.38 769,-134.77 701.43,-95.28 664.48,-77.99"/>
<polygon fill="#63b8ff" stroke="#63b8ff" points="402.62,-412.41 392.86,-416.53 403.06,-419.4 402.62,-412.41"/>
</a>
</g>
</g>
<!-- Node8 -->
<g id="Node000008" class="node">
<title>Node8</title>
<g id="a_Node000008"><a xlink:href="_move__command_8hpp.html" target="_top" xlink:title="Do ergodic moves using the Command pattern.">
<polygon fill="white" stroke="#666666" points="242.12,-77.5 85.88,-77.5 85.88,-56.75 242.12,-56.75 242.12,-77.5"/>
<text xml:space="preserve" text-anchor="middle" x="164" y="-64" font-family="Helvetica,sans-Serif" font-size="10.00">include/Move_command.hpp</text>
</a>
</g>
</g>
<!-- Node1&#45;&gt;Node8 -->
<g id="edge14_Node000001_Node000008" class="edge">
<title>Node1&#45;&gt;Node8</title>
<g id="a_edge14_Node000001_Node000008"><a xlink:title=" ">
<path fill="none" stroke="#63b8ff" d="M263.65,-411.93C222.02,-405.61 168.81,-394.21 125,-374 80.9,-353.65 38,-356.44 38,-307.88 38,-307.88 38,-307.88 38,-192.38 38,-135.08 104.87,-95.32 141.18,-77.96"/>
<polygon fill="#63b8ff" stroke="#63b8ff" points="262.9,-415.36 273.3,-413.32 263.9,-408.43 262.9,-415.36"/>
</a>
</g>
</g>
<!-- Node9 -->
<g id="Node000009" class="node">
<title>Node9</title>
<g id="a_Node000009"><a xlink:href="_move__always_8hpp.html" target="_top" xlink:title="Randomly selects moves to always perform on triangulations.">
<polygon fill="white" stroke="#666666" points="235,-20.75 93,-20.75 93,0 235,0 235,-20.75"/>
<text xml:space="preserve" text-anchor="middle" x="164" y="-7.25" font-family="Helvetica,sans-Serif" font-size="10.00">include/Move_always.hpp</text>
</a>
</g>
</g>
<!-- Node1&#45;&gt;Node9 -->
<g id="edge13_Node000001_Node000009" class="edge">
<title>Node1&#45;&gt;Node9</title>
<g id="a_edge13_Node000001_Node000009"><a xlink:title=" ">
<path fill="none" stroke="#63b8ff" d="M263.54,-419.23C207.13,-416.46 127.04,-406.37 65,-374 28.46,-354.94 0,-349.09 0,-307.88 0,-307.88 0,-307.88 0,-129.25 0,-68.24 75.76,-35.71 124.3,-21.13"/>
<polygon fill="#63b8ff" stroke="#63b8ff" points="263.2,-422.71 273.33,-419.63 263.49,-415.72 263.2,-422.71"/>
</a>
</g>
</g>
<!-- Node12 -->
<g id="Node000012" class="node">
<title>Node12</title>
<g id="a_Node000012"><a xlink:href="_move__run_8hpp.html" target="_top" xlink:title="Shared value&#45;oriented orchestration for ergodic&#45;move strategies.">
<polygon fill="white" stroke="#666666" points="702.62,-203.75 579.38,-203.75 579.38,-183 702.62,-183 702.62,-203.75"/>
<text xml:space="preserve" text-anchor="middle" x="641" y="-190.25" font-family="Helvetica,sans-Serif" font-size="10.00">include/Move_run.hpp</text>
</a>
</g>
</g>
<!-- Node1&#45;&gt;Node12 -->
<g id="edge15_Node000001_Node000012" class="edge">
<title>Node1&#45;&gt;Node12</title>
<g id="a_edge15_Node000001_Node000012"><a xlink:title=" ">
<path fill="none" stroke="#63b8ff" d="M402.44,-416.83C445.18,-412.35 499.37,-401.16 540,-374 603.65,-331.45 631.46,-234.52 638.88,-203.86"/>
<polygon fill="#63b8ff" stroke="#63b8ff" points="402.13,-413.35 392.5,-417.76 402.78,-420.31 402.13,-413.35"/>
</a>
</g>
</g>
<!-- Node13 -->
<g id="Node000013" class="node">
<title>Node13</title>
<g id="a_Node000013"><a xlink:href="_runtime__config_8hpp.html" target="_top" xlink:title="Validated runtime configuration for CDT++ command&#45;line programs.">
<polygon fill="white" stroke="#666666" points="454.5,-317.25 303.5,-317.25 303.5,-296.5 454.5,-296.5 454.5,-317.25"/>
<text xml:space="preserve" text-anchor="middle" x="379" y="-303.75" font-family="Helvetica,sans-Serif" font-size="10.00">include/Runtime_config.hpp</text>
</a>
</g>
</g>
<!-- Node1&#45;&gt;Node13 -->
<g id="edge18_Node000001_Node000013" class="edge">
<title>Node1&#45;&gt;Node13</title>
<g id="a_edge18_Node000001_Node000013"><a xlink:title=" ">
<path fill="none" stroke="#63b8ff" d="M341.21,-399.46C351.14,-375.41 367.43,-335.92 374.96,-317.68"/>
<polygon fill="#63b8ff" stroke="#63b8ff" points="338.08,-397.89 337.5,-408.47 344.55,-400.56 338.08,-397.89"/>
</a>
</g>
</g>
<!-- Node14 -->
<g id="Node000014" class="node">
<title>Node14</title>
<g id="a_Node000014"><a xlink:href="_utilities_8hpp.html" target="_top" xlink:title="Utility functions.">
<polygon fill="white" stroke="#666666" points="530.75,-374 417.25,-374 417.25,-353.25 530.75,-353.25 530.75,-374"/>
<text xml:space="preserve" text-anchor="middle" x="474" y="-360.5" font-family="Helvetica,sans-Serif" font-size="10.00">include/Utilities.hpp</text>
</a>
</g>
</g>
<!-- Node1&#45;&gt;Node14 -->
<g id="edge21_Node000001_Node000014" class="edge">
<title>Node1&#45;&gt;Node14</title>
<g id="a_edge21_Node000001_Node000014"><a xlink:title=" ">
<path fill="none" stroke="#63b8ff" d="M368.77,-405.49C393.84,-395.75 426.72,-382.98 449.01,-374.33"/>
<polygon fill="#63b8ff" stroke="#63b8ff" points="367.67,-402.16 359.62,-409.04 370.21,-408.68 367.67,-402.16"/>
</a>
</g>
</g>
<!-- Node3 -->
<g id="Node000003" class="node">
<title>Node3</title>
<g id="a_Node000003"><a xlink:href="_geometry_8hpp.html" target="_top" xlink:title="Geometric scalars of the Manifold used to calculate the Regge action.">
<polygon fill="white" stroke="#666666" points="241.25,-260.5 118.75,-260.5 118.75,-239.75 241.25,-239.75 241.25,-260.5"/>
<text xml:space="preserve" text-anchor="middle" x="180" y="-247" font-family="Helvetica,sans-Serif" font-size="10.00">include/Geometry.hpp</text>
</a>
</g>
</g>
<!-- Node2&#45;&gt;Node3 -->
<g id="edge2_Node000002_Node000003" class="edge">
<title>Node2&#45;&gt;Node3</title>
<g id="a_edge2_Node000002_Node000003"><a xlink:title=" ">
<path fill="none" stroke="#63b8ff" d="M189.34,-285.21C187.04,-276.84 184.51,-267.58 182.66,-260.83"/>
<polygon fill="#63b8ff" stroke="#63b8ff" points="185.9,-285.91 191.92,-294.63 192.65,-284.06 185.9,-285.91"/>
</a>
</g>
</g>
<!-- Node3&#45;&gt;Node4 -->
<g id="edge3_Node000003_Node000004" class="edge">
<title>Node3&#45;&gt;Node4</title>
<g id="a_edge3_Node000003_Node000004"><a xlink:title=" ">
<path fill="none" stroke="#63b8ff" d="M180,-227.88C180,-219.66 180,-210.68 180,-204.08"/>
<polygon fill="#63b8ff" stroke="#63b8ff" points="176.5,-227.82 180,-237.82 183.5,-227.82 176.5,-227.82"/>
</a>
</g>
</g>
<!-- Node5 -->
<g id="Node000005" class="node">
<title>Node5</title>
<g id="a_Node000005"><a xlink:href="_ergodic__moves__3_8hpp.html" target="_top" xlink:title="Pachner moves on 2+1 dimensional foliated Delaunay triangulations.">
<polygon fill="white" stroke="#666666" points="512.25,-147 383.75,-147 383.75,-113.5 512.25,-113.5 512.25,-147"/>
<text xml:space="preserve" text-anchor="start" x="391.75" y="-133.5" font-family="Helvetica,sans-Serif" font-size="10.00">include/Ergodic_moves</text>
<text xml:space="preserve" text-anchor="middle" x="448" y="-120.75" font-family="Helvetica,sans-Serif" font-size="10.00">_3.hpp</text>
</a>
</g>
</g>
<!-- Node4&#45;&gt;Node5 -->
<g id="edge4_Node000004_Node000005" class="edge">
<title>Node4&#45;&gt;Node5</title>
<g id="a_edge4_Node000004_Node000005"><a xlink:title=" ">
<path fill="none" stroke="#63b8ff" d="M234.17,-180.02C277.25,-170.19 337.66,-156.42 383.28,-146.01"/>
<polygon fill="#63b8ff" stroke="#63b8ff" points="233.51,-176.58 224.53,-182.22 235.06,-183.41 233.51,-176.58"/>
</a>
</g>
</g>
<!-- Node10 -->
<g id="Node000010" class="node">
<title>Node10</title>
<g id="a_Node000010"><a xlink:href="cdt-viewer_8cpp.html" target="_top" xlink:title="Views 3D spacetimes.">
<polygon fill="white" stroke="#666666" points="316.88,-140.62 213.12,-140.62 213.12,-119.88 316.88,-119.88 316.88,-140.62"/>
<text xml:space="preserve" text-anchor="middle" x="265" y="-127.12" font-family="Helvetica,sans-Serif" font-size="10.00">src/cdt&#45;viewer.cpp</text>
</a>
</g>
</g>
<!-- Node4&#45;&gt;Node10 -->
<g id="edge9_Node000004_Node000010" class="edge">
<title>Node4&#45;&gt;Node10</title>
<g id="a_edge9_Node000004_Node000010"><a xlink:title=" ">
<path fill="none" stroke="#63b8ff" d="M202.63,-176.1C218.16,-164.93 238.25,-150.48 251.38,-141.05"/>
<polygon fill="#63b8ff" stroke="#63b8ff" points="200.96,-172.99 194.89,-181.67 205.05,-178.67 200.96,-172.99"/>
</a>
</g>
</g>
<!-- Node11 -->
<g id="Node000011" class="node">
<title>Node11</title>
<g id="a_Node000011"><a xlink:href="initialize_8cpp.html" target="_top" xlink:title="Generates initial spacetimes.">
<polygon fill="white" stroke="#666666" points="194.75,-140.62 99.25,-140.62 99.25,-119.88 194.75,-119.88 194.75,-140.62"/>
<text xml:space="preserve" text-anchor="middle" x="147" y="-127.12" font-family="Helvetica,sans-Serif" font-size="10.00">src/initialize.cpp</text>
</a>
</g>
</g>
<!-- Node4&#45;&gt;Node11 -->
<g id="edge10_Node000004_Node000011" class="edge">
<title>Node4&#45;&gt;Node11</title>
<g id="a_edge10_Node000004_Node000011"><a xlink:title=" ">
<path fill="none" stroke="#63b8ff" d="M169.25,-172.46C163.52,-161.85 156.74,-149.29 152.18,-140.84"/>
<polygon fill="#63b8ff" stroke="#63b8ff" points="166.15,-174.09 173.98,-181.22 172.31,-170.76 166.15,-174.09"/>
</a>
</g>
</g>
<!-- Node5&#45;&gt;Node6 -->
<g id="edge5_Node000005_Node000006" class="edge">
<title>Node5&#45;&gt;Node6</title>
<g id="a_edge5_Node000005_Node000006"><a xlink:title=" ">
<path fill="none" stroke="#63b8ff" d="M509.83,-109.67C543.28,-99.07 583.16,-86.44 610.09,-77.92"/>
<polygon fill="#63b8ff" stroke="#63b8ff" points="509.13,-106.22 500.66,-112.57 511.25,-112.89 509.13,-106.22"/>
</a>
</g>
</g>
<!-- Node5&#45;&gt;Node8 -->
<g id="edge7_Node000005_Node000008" class="edge">
<title>Node5&#45;&gt;Node8</title>
<g id="a_edge7_Node000005_Node000008"><a xlink:title=" ">
<path fill="none" stroke="#63b8ff" d="M372.41,-112.98C320.56,-101.82 253.48,-87.38 209.62,-77.94"/>
<polygon fill="#63b8ff" stroke="#63b8ff" points="371.56,-116.38 382.08,-115.06 373.04,-109.54 371.56,-116.38"/>
</a>
</g>
</g>
<!-- Node7 -->
<g id="Node000007" class="node">
<title>Node7</title>
<g id="a_Node000007"><a xlink:href="cdt_8cpp.html" target="_top" xlink:title="The main executable.">
<polygon fill="white" stroke="#666666" points="527.25,-20.75 458.75,-20.75 458.75,0 527.25,0 527.25,-20.75"/>
<text xml:space="preserve" text-anchor="middle" x="493" y="-7.25" font-family="Helvetica,sans-Serif" font-size="10.00">src/cdt.cpp</text>
</a>
</g>
</g>
<!-- Node6&#45;&gt;Node7 -->
<g id="edge6_Node000006_Node000007" class="edge">
<title>Node6&#45;&gt;Node7</title>
<g id="a_edge6_Node000006_Node000007"><a xlink:title=" ">
<path fill="none" stroke="#63b8ff" d="M603.81,-52.37C577.45,-42.62 542.73,-29.77 519.23,-21.08"/>
<polygon fill="#63b8ff" stroke="#63b8ff" points="602.53,-55.62 613.12,-55.81 604.96,-49.06 602.53,-55.62"/>
</a>
</g>
</g>
<!-- Node8&#45;&gt;Node9 -->
<g id="edge8_Node000008_Node000009" class="edge">
<title>Node8&#45;&gt;Node9</title>
<g id="a_edge8_Node000008_Node000009"><a xlink:title=" ">
<path fill="none" stroke="#63b8ff" d="M164,-44.88C164,-36.66 164,-27.68 164,-21.08"/>
<polygon fill="#63b8ff" stroke="#63b8ff" points="160.5,-44.82 164,-54.82 167.5,-44.82 160.5,-44.82"/>
</a>
</g>
</g>
<!-- Node12&#45;&gt;Node6 -->
<g id="edge16_Node000012_Node000006" class="edge">
<title>Node12&#45;&gt;Node6</title>
<g id="a_edge16_Node000012_Node000006"><a xlink:title=" ">
<path fill="none" stroke="#63b8ff" d="M641,-171.31C641,-144.09 641,-97.84 641,-77.83"/>
<polygon fill="#63b8ff" stroke="#63b8ff" points="637.5,-171.11 641,-181.11 644.5,-171.11 637.5,-171.11"/>
</a>
</g>
</g>
<!-- Node12&#45;&gt;Node9 -->
<g id="edge17_Node000012_Node000009" class="edge">
<title>Node12&#45;&gt;Node9</title>
<g id="a_edge17_Node000012_Node000009"><a xlink:title=" ">
<path fill="none" stroke="#63b8ff" d="M619.89,-175.62C596.78,-158 558.08,-130.51 521,-113.5 417.87,-66.2 287.81,-35.67 216.59,-21.2"/>
<polygon fill="#63b8ff" stroke="#63b8ff" points="617.54,-178.23 627.59,-181.58 621.82,-172.69 617.54,-178.23"/>
</a>
</g>
</g>
<!-- Node13&#45;&gt;Node7 -->
<g id="edge19_Node000013_Node000007" class="edge">
<title>Node13&#45;&gt;Node7</title>
<g id="a_edge19_Node000013_Node000007"><a xlink:title=" ">
<path fill="none" stroke="#63b8ff" d="M368.91,-285.72C358.89,-263.81 345,-227.48 345,-194.38 345,-194.38 345,-194.38 345,-129.25 345,-70.62 416.95,-36.44 460.52,-21.12"/>
<polygon fill="#63b8ff" stroke="#63b8ff" points="365.72,-287.16 373.18,-294.67 372.03,-284.14 365.72,-287.16"/>
</a>
</g>
</g>
<!-- Node13&#45;&gt;Node11 -->
<g id="edge20_Node000013_Node000011" class="edge">
<title>Node13&#45;&gt;Node11</title>
<g id="a_edge20_Node000013_Node000011"><a xlink:title=" ">
<path fill="none" stroke="#63b8ff" d="M360.5,-288.39C325.12,-254.99 251.1,-185.18 248,-183 223.19,-165.53 191.68,-150.35 170.51,-141.03"/>
<polygon fill="#63b8ff" stroke="#63b8ff" points="357.82,-290.68 367.49,-295 362.62,-285.59 357.82,-290.68"/>
</a>
</g>
</g>
<!-- Node14&#45;&gt;Node2 -->
<g id="edge22_Node000014_Node000002" class="edge">
<title>Node14&#45;&gt;Node2</title>
<g id="a_edge22_Node000014_Node000002"><a xlink:title=" ">
<path fill="none" stroke="#63b8ff" d="M412.76,-350.61C362.52,-340.75 292.26,-326.96 245.27,-317.74"/>
<polygon fill="#63b8ff" stroke="#63b8ff" points="411.83,-353.99 422.31,-352.48 413.17,-347.12 411.83,-353.99"/>
</a>
</g>
</g>
<!-- Node14&#45;&gt;Node6 -->
<g id="edge23_Node000014_Node000006" class="edge">
<title>Node14&#45;&gt;Node6</title>
<g id="a_edge23_Node000014_Node000006"><a xlink:title=" ">
<path fill="none" stroke="#63b8ff" d="M515.53,-348.96C571.91,-327.9 670.38,-281.58 712,-203.75 737.19,-156.64 679.06,-99.9 652.91,-77.69"/>
<polygon fill="#63b8ff" stroke="#63b8ff" points="514.48,-345.62 506.27,-352.32 516.87,-352.2 514.48,-345.62"/>
</a>
</g>
</g>
<!-- Node14&#45;&gt;Node10 -->
<g id="edge30_Node000014_Node000010" class="edge">
<title>Node14&#45;&gt;Node10</title>
<g id="a_edge30_Node000014_Node000010"><a xlink:title=" ">
<path fill="none" stroke="#63b8ff" d="M474.59,-341.81C474.11,-328.13 471.78,-310.28 464,-296.5 452.13,-275.48 319.84,-173.21 277.76,-140.99"/>
<polygon fill="#63b8ff" stroke="#63b8ff" points="471.09,-341.46 474.61,-351.45 478.09,-341.44 471.09,-341.46"/>
</a>
</g>
</g>
<!-- Node14&#45;&gt;Node13 -->
<g id="edge29_Node000014_Node000013" class="edge">
<title>Node14&#45;&gt;Node13</title>
<g id="a_edge29_Node000014_Node000013"><a xlink:title=" ">
<path fill="none" stroke="#63b8ff" d="M447.37,-347.28C430.84,-337.75 410.11,-325.81 395.84,-317.58"/>
<polygon fill="#63b8ff" stroke="#63b8ff" points="445.29,-350.12 455.7,-352.08 448.79,-344.06 445.29,-350.12"/>
</a>
</g>
</g>
<!-- Node15 -->
<g id="Node000015" class="node">
<title>Node15</title>
<g id="a_Node000015"><a xlink:href="_move__tracker_8hpp.html" target="_top" xlink:title="Track ergodic moves.">
<polygon fill="white" stroke="#666666" points="610.25,-260.5 469.75,-260.5 469.75,-239.75 610.25,-239.75 610.25,-260.5"/>
<text xml:space="preserve" text-anchor="middle" x="540" y="-247" font-family="Helvetica,sans-Serif" font-size="10.00">include/Move_tracker.hpp</text>
</a>
</g>
</g>
<!-- Node14&#45;&gt;Node15 -->
<g id="edge24_Node000014_Node000015" class="edge">
<title>Node14&#45;&gt;Node15</title>
<g id="a_edge24_Node000014_Node000015"><a xlink:title=" ">
<path fill="none" stroke="#63b8ff" d="M485.4,-343.37C499.6,-319.38 523.3,-279.33 534.2,-260.93"/>
<polygon fill="#63b8ff" stroke="#63b8ff" points="482.48,-341.43 480.4,-351.82 488.5,-344.99 482.48,-341.43"/>
</a>
</g>
</g>
<!-- Node15&#45;&gt;Node5 -->
<g id="edge25_Node000015_Node000005" class="edge">
<title>Node15&#45;&gt;Node5</title>
<g id="a_edge25_Node000015_Node000005"><a xlink:title=" ">
<path fill="none" stroke="#63b8ff" d="M541.96,-227.97C542.22,-214.15 540.5,-196.27 532,-183 521.93,-167.28 505.21,-155.56 489.32,-147.29"/>
<polygon fill="#63b8ff" stroke="#63b8ff" points="538.48,-227.58 541.4,-237.77 545.47,-227.98 538.48,-227.58"/>
</a>
</g>
</g>
<!-- Node15&#45;&gt;Node12 -->
<g id="edge28_Node000015_Node000012" class="edge">
<title>Node15&#45;&gt;Node12</title>
<g id="a_edge28_Node000015_Node000012"><a xlink:title=" ">
<path fill="none" stroke="#63b8ff" d="M567.82,-234.04C585.47,-224.48 607.78,-212.38 623.1,-204.08"/>
<polygon fill="#63b8ff" stroke="#63b8ff" points="566.51,-230.77 559.39,-238.62 569.85,-236.93 566.51,-230.77"/>
</a>
</g>
</g>
<!-- Node16 -->
<g id="Node000016" class="node">
<title>Node16</title>
<g id="a_Node000016"><a xlink:href="_move__outcome_8hpp.html" target="_top" xlink:title="Structured Pachner&#45;move failures and transition outcomes.">
<polygon fill="white" stroke="#666666" points="523.12,-203.75 372.88,-203.75 372.88,-183 523.12,-183 523.12,-203.75"/>
<text xml:space="preserve" text-anchor="middle" x="448" y="-190.25" font-family="Helvetica,sans-Serif" font-size="10.00">include/Move_outcome.hpp</text>
</a>
</g>
</g>
<!-- Node15&#45;&gt;Node16 -->
<g id="edge26_Node000015_Node000016" class="edge">
<title>Node15&#45;&gt;Node16</title>
<g id="a_edge26_Node000015_Node000016"><a xlink:title=" ">
<path fill="none" stroke="#63b8ff" d="M513.75,-233.51C497.83,-224.03 478,-212.23 464.31,-204.08"/>
<polygon fill="#63b8ff" stroke="#63b8ff" points="511.87,-236.46 522.25,-238.56 515.45,-230.44 511.87,-236.46"/>
</a>
</g>
</g>
<!-- Node16&#45;&gt;Node5 -->
<g id="edge27_Node000016_Node000005" class="edge">
<title>Node16&#45;&gt;Node5</title>
<g id="a_edge27_Node000016_Node000005"><a xlink:title=" ">
<path fill="none" stroke="#63b8ff" d="M448,-171.09C448,-163.35 448,-154.72 448,-147.48"/>
<polygon fill="#63b8ff" stroke="#63b8ff" points="444.5,-171.04 448,-181.04 451.5,-171.04 444.5,-171.04"/>
</a>
</g>
</g>
</g>
</svg>

<g id="navigator" transform="translate(0 0)" fill="#404254">
  <rect fill="#f2f5e9" fill-opacity="0.5" stroke="#606060" stroke-width=".5" x="0" y="0" width="60" height="60"/>
  <use id="zoomplus" xlink:href="#zoomPlus" x="17" y="9" onmousedown="handleZoom(evt,'in')"/>
  <use id="zoomminus" xlink:href="#zoomMin" x="42" y="9" onmousedown="handleZoom(evt,'out')"/>
  <use id="reset" xlink:href="#resetDef" x="30" y="36" onmousedown="handleReset()"/>
   <use id="arrowup" xlink:href="#arrowUp" x="0" y="0" onmousedown="handlePan(0,-1)"/>
  <use id="arrowright" xlink:href="#arrowRight" x="0" y="0" onmousedown="handlePan(1,0)"/>
  <use id="arrowdown" xlink:href="#arrowDown" x="0" y="0" onmousedown="handlePan(0,1)"/>
  <use id="arrowleft" xlink:href="#arrowLeft" x="0" y="0" onmousedown="handlePan(-1,0)"/>
</g>
<svg viewBox="0 0 15 15" width="100%" height="30px" preserveAspectRatio="xMaxYMin meet">
 <g id="arrow_out" transform="scale(0.3 0.3)">
  <a xlink:href="_random_8hpp__dep__incl_org.svg" target="_base">
   <rect id="button" ry="5" rx="5" y="6" x="6" height="38" width="38"
        fill="#f2f5e9" fill-opacity="0.5" stroke="#606060" stroke-width="1.0"/>
   <path id="arrow"
     d="M 11.500037,31.436501 C 11.940474,20.09759 22.043105,11.32322 32.158766,21.979434 L 37.068811,17.246167 C 37.068811,17.246167 37.088388,32 37.088388,32 L 22.160133,31.978069 C 22.160133,31.978069 26.997745,27.140456 26.997745,27.140456 C 18.528582,18.264221 13.291696,25.230495 11.500037,31.436501 z"
     style="fill:#404040;"/>
  </a>
 </g>
</svg>

<style type='text/css'>
<![CDATA[
[data-mouse-over-selected='false'] { opacity: 0.7; }
[data-mouse-over-selected='true']  { opacity: 1.0; }
]]>
</style>
<script type="application/ecmascript"><![CDATA[
document.addEventListener('DOMContentLoaded', (event) => {
  highlightEdges();
  highlightAdjacentNodes();
});
]]></script>
</svg>
