<?xml version="1.0" encoding="UTF-8" standalone="no"?>
<!DOCTYPE svg PUBLIC "-//W3C//DTD SVG 1.1//EN"
 "http://www.w3.org/Graphics/SVG/1.1/DTD/svg11.dtd">
<!-- Generated by graphviz version 2.43.0 (0)
 -->
<!-- Title: include/Runtime_config.hpp Pages: 1 -->
<svg width="329pt" height="93pt"
 viewBox="0.00 0.00 329.00 93.00" xmlns="http://www.w3.org/2000/svg" xmlns:xlink="http://www.w3.org/1999/xlink">
<g id="graph0" class="graph" transform="scale(1 1) rotate(0) translate(4 89)">
<title>include/Runtime_config.hpp</title>
<!-- Node1 -->
<g id="node1" class="node">
<title>Node1</title>
<g id="a_node1"><a xlink:title="Validated runtime configuration for CDT++ command&#45;line programs.">
<polygon fill="#999999" stroke="#666666" points="211.5,-85 59.5,-85 59.5,-66 211.5,-66 211.5,-85"/>
<text text-anchor="middle" x="135.5" y="-73" font-family="Helvetica,sans-Serif" font-size="10.00">include/Runtime_config.hpp</text>
</a>
</g>
</g>
<!-- Node2 -->
<g id="node2" class="node">
<title>Node2</title>
<g id="a_node2"><a xlink:href="cdt_8cpp.html" target="_top" xlink:title="The main executable.">
<polygon fill="white" stroke="#666666" points="69,-24.5 0,-24.5 0,-5.5 69,-5.5 69,-24.5"/>
<text text-anchor="middle" x="34.5" y="-12.5" font-family="Helvetica,sans-Serif" font-size="10.00">src/cdt.cpp</text>
</a>
</g>
</g>
<!-- Node1&#45;&gt;Node2 -->
<g id="edge1" class="edge">
<title>Node1&#45;&gt;Node2</title>
<path fill="none" stroke="#63b8ff" d="M111.8,-60.77C92.52,-49.6 65.9,-34.19 49.46,-24.67"/>
<polygon fill="#63b8ff" stroke="#63b8ff" points="110.19,-63.88 120.6,-65.87 113.7,-57.83 110.19,-63.88"/>
</g>
<!-- Node3 -->
<g id="node3" class="node">
<title>Node3</title>
<g id="a_node3"><a xlink:href="initialize_8cpp.html" target="_top" xlink:title="Generates initial spacetimes.">
<polygon fill="white" stroke="#666666" points="183.5,-24.5 87.5,-24.5 87.5,-5.5 183.5,-5.5 183.5,-24.5"/>
<text text-anchor="middle" x="135.5" y="-12.5" font-family="Helvetica,sans-Serif" font-size="10.00">src/initialize.cpp</text>
</a>
</g>
</g>
<!-- Node1&#45;&gt;Node3 -->
<g id="edge2" class="edge">
<title>Node1&#45;&gt;Node3</title>
<path fill="none" stroke="#63b8ff" d="M135.5,-55.66C135.5,-45.24 135.5,-32.8 135.5,-24.67"/>
<polygon fill="#63b8ff" stroke="#63b8ff" points="132,-55.87 135.5,-65.87 139,-55.87 132,-55.87"/>
</g>
<!-- Node4 -->
<g id="node4" class="node">
<title>Node4</title>
<g id="a_node4"><a xlink:href="_runtime__config__test_8cpp.html" target="_top" xlink:title="Tests for validated command&#45;line configuration values.">
<polygon fill="white" stroke="#666666" points="321,-30 202,-30 202,0 321,0 321,-30"/>
<text text-anchor="start" x="210" y="-18" font-family="Helvetica,sans-Serif" font-size="10.00">tests/Runtime_config</text>
<text text-anchor="middle" x="261.5" y="-7" font-family="Helvetica,sans-Serif" font-size="10.00">_test.cpp</text>
</a>
</g>
</g>
<!-- Node1&#45;&gt;Node4 -->
<g id="edge3" class="edge">
<title>Node1&#45;&gt;Node4</title>
<path fill="none" stroke="#63b8ff" d="M163.03,-61.72C183.09,-52.41 210.25,-39.8 230.96,-30.18"/>
<polygon fill="#63b8ff" stroke="#63b8ff" points="161.42,-58.61 153.82,-65.99 164.37,-64.96 161.42,-58.61"/>
</g>
</g>
</svg>
