<?xml version="1.0" encoding="UTF-8" standalone="no"?>
<!DOCTYPE svg PUBLIC "-//W3C//DTD SVG 1.1//EN"
 "http://www.w3.org/Graphics/SVG/1.1/DTD/svg11.dtd">
<!-- Generated by graphviz version 2.43.0 (0)
 -->
<!-- Title: include/Runtime_config.hpp Pages: 1 -->
<svg width="1410pt" height="203pt"
 viewBox="0.00 0.00 1409.50 203.00" xmlns="http://www.w3.org/2000/svg" xmlns:xlink="http://www.w3.org/1999/xlink">
<g id="graph0" class="graph" transform="scale(1 1) rotate(0) translate(4 199)">
<title>include/Runtime_config.hpp</title>
<!-- Node1 -->
<g id="node1" class="node">
<title>Node1</title>
<g id="a_node1"><a xlink:title="Validated runtime configuration for CDT++ command&#45;line programs.">
<polygon fill="#999999" stroke="#666666" points="360.5,-195 208.5,-195 208.5,-176 360.5,-176 360.5,-195"/>
<text text-anchor="middle" x="284.5" y="-183" font-family="Helvetica,sans-Serif" font-size="10.00">include/Runtime_config.hpp</text>
</a>
</g>
</g>
<!-- Node2 -->
<g id="node2" class="node">
<title>Node2</title>
<g id="a_node2"><a xlink:title=" ">
<polygon fill="#e0e0e0" stroke="#999999" points="175,-140 128,-140 128,-121 175,-121 175,-140"/>
<text text-anchor="middle" x="151.5" y="-128" font-family="Helvetica,sans-Serif" font-size="10.00">cmath</text>
</a>
</g>
</g>
<!-- Node1&#45;&gt;Node2 -->
<g id="edge1" class="edge">
<title>Node1&#45;&gt;Node2</title>
<path fill="none" stroke="#63b8ff" d="M263.13,-175.98C241.35,-167.3 207.34,-153.75 182.58,-143.88"/>
<polygon fill="#63b8ff" stroke="#63b8ff" points="183.84,-140.62 173.26,-140.17 181.25,-147.12 183.84,-140.62"/>
</g>
<!-- Node3 -->
<g id="node3" class="node">
<title>Node3</title>
<g id="a_node3"><a xlink:title=" ">
<polygon fill="#e0e0e0" stroke="#999999" points="237.5,-140 193.5,-140 193.5,-121 237.5,-121 237.5,-140"/>
<text text-anchor="middle" x="215.5" y="-128" font-family="Helvetica,sans-Serif" font-size="10.00">limits</text>
</a>
</g>
</g>
<!-- Node1&#45;&gt;Node3 -->
<g id="edge2" class="edge">
<title>Node1&#45;&gt;Node3</title>
<path fill="none" stroke="#63b8ff" d="M273.41,-175.98C263.01,-168 247.24,-155.88 234.78,-146.31"/>
<polygon fill="#63b8ff" stroke="#63b8ff" points="236.85,-143.49 226.79,-140.17 232.59,-149.04 236.85,-143.49"/>
</g>
<!-- Node4 -->
<g id="node4" class="node">
<title>Node4</title>
<g id="a_node4"><a xlink:title=" ">
<polygon fill="#e0e0e0" stroke="#999999" points="65,-79.5 0,-79.5 0,-60.5 65,-60.5 65,-79.5"/>
<text text-anchor="middle" x="32.5" y="-67.5" font-family="Helvetica,sans-Serif" font-size="10.00">stdexcept</text>
</a>
</g>
</g>
<!-- Node1&#45;&gt;Node4 -->
<g id="edge3" class="edge">
<title>Node1&#45;&gt;Node4</title>
<path fill="none" stroke="#63b8ff" d="M281.9,-175.96C277.2,-162.1 265.96,-134.86 246.5,-121 182.89,-75.69 149.89,-105.38 74.5,-85 71.88,-84.29 69.18,-83.51 66.47,-82.69"/>
<polygon fill="#63b8ff" stroke="#63b8ff" points="67.38,-79.31 56.78,-79.62 65.26,-85.98 67.38,-79.31"/>
</g>
<!-- Node5 -->
<g id="node5" class="node">
<title>Node5</title>
<g id="a_node5"><a xlink:title=" ">
<polygon fill="#e0e0e0" stroke="#999999" points="127.5,-79.5 83.5,-79.5 83.5,-60.5 127.5,-60.5 127.5,-79.5"/>
<text text-anchor="middle" x="105.5" y="-67.5" font-family="Helvetica,sans-Serif" font-size="10.00">string</text>
</a>
</g>
</g>
<!-- Node1&#45;&gt;Node5 -->
<g id="edge4" class="edge">
<title>Node1&#45;&gt;Node5</title>
<path fill="none" stroke="#63b8ff" d="M286.65,-175.95C289.47,-162.55 292.63,-136.54 279.5,-121 237.21,-70.93 198.39,-106.57 136.5,-85 135.11,-84.51 133.69,-83.99 132.27,-83.44"/>
<polygon fill="#63b8ff" stroke="#63b8ff" points="133.56,-80.19 122.98,-79.55 130.85,-86.64 133.56,-80.19"/>
</g>
<!-- Node6 -->
<g id="node6" class="node">
<title>Node6</title>
<g id="a_node6"><a xlink:title=" ">
<polygon fill="#e0e0e0" stroke="#999999" points="732,-140 687,-140 687,-121 732,-121 732,-140"/>
<text text-anchor="middle" x="709.5" y="-128" font-family="Helvetica,sans-Serif" font-size="10.00">utility</text>
</a>
</g>
</g>
<!-- Node1&#45;&gt;Node6 -->
<g id="edge5" class="edge">
<title>Node1&#45;&gt;Node6</title>
<path fill="none" stroke="#63b8ff" d="M360.7,-179.21C437.99,-173.08 561.14,-161.25 676.78,-139.85"/>
<polygon fill="#63b8ff" stroke="#63b8ff" points="677.69,-143.24 686.87,-137.95 676.39,-136.36 677.69,-143.24"/>
</g>
<!-- Node7 -->
<g id="node7" class="node">
<title>Node7</title>
<g id="a_node7"><a xlink:href="_utilities_8hpp.html" target="_top" xlink:title="Utility functions.">
<polygon fill="white" stroke="#666666" points="668.5,-140 592.5,-140 592.5,-121 668.5,-121 668.5,-140"/>
<text text-anchor="middle" x="630.5" y="-128" font-family="Helvetica,sans-Serif" font-size="10.00">Utilities.hpp</text>
</a>
</g>
</g>
<!-- Node1&#45;&gt;Node7 -->
<g id="edge6" class="edge">
<title>Node1&#45;&gt;Node7</title>
<path fill="none" stroke="#63b8ff" d="M340.09,-175.98C407.04,-165.73 518.42,-148.67 582.02,-138.93"/>
<polygon fill="#63b8ff" stroke="#63b8ff" points="582.83,-142.34 592.19,-137.37 581.77,-135.42 582.83,-142.34"/>
</g>
<!-- Node7&#45;&gt;Node4 -->
<g id="edge14" class="edge">
<title>Node7&#45;&gt;Node4</title>
<path fill="none" stroke="#63b8ff" d="M592.31,-129.6C501.54,-129.17 266.18,-124.02 74.5,-85 71.26,-84.34 67.93,-83.51 64.62,-82.58"/>
<polygon fill="#63b8ff" stroke="#63b8ff" points="65.48,-79.18 54.9,-79.58 63.42,-85.87 65.48,-79.18"/>
</g>
<!-- Node7&#45;&gt;Node5 -->
<g id="edge15" class="edge">
<title>Node7&#45;&gt;Node5</title>
<path fill="none" stroke="#63b8ff" d="M592.27,-130.35C508.29,-131.28 302.02,-128.5 136.5,-85 134.81,-84.56 133.1,-84.03 131.39,-83.44"/>
<polygon fill="#63b8ff" stroke="#63b8ff" points="132.44,-80.09 121.86,-79.61 129.83,-86.59 132.44,-80.09"/>
</g>
<!-- Node8 -->
<g id="node8" class="node">
<title>Node8</title>
<g id="a_node8"><a xlink:title=" ">
<polygon fill="#e0e0e0" stroke="#999999" points="1037.5,-79.5 973.5,-79.5 973.5,-60.5 1037.5,-60.5 1037.5,-79.5"/>
<text text-anchor="middle" x="1005.5" y="-67.5" font-family="Helvetica,sans-Serif" font-size="10.00">algorithm</text>
</a>
</g>
</g>
<!-- Node7&#45;&gt;Node8 -->
<g id="edge7" class="edge">
<title>Node7&#45;&gt;Node8</title>
<path fill="none" stroke="#63b8ff" d="M668.69,-122.41C671.67,-121.92 674.63,-121.44 677.5,-121 804.58,-101.55 839.24,-113.92 964.5,-85 967.48,-84.31 970.55,-83.49 973.61,-82.59"/>
<polygon fill="#63b8ff" stroke="#63b8ff" points="974.72,-85.91 983.18,-79.54 972.59,-79.24 974.72,-85.91"/>
</g>
<!-- Node9 -->
<g id="node9" class="node">
<title>Node9</title>
<g id="a_node9"><a xlink:title=" ">
<polygon fill="#e0e0e0" stroke="#999999" points="1123.5,-79.5 1055.5,-79.5 1055.5,-60.5 1123.5,-60.5 1123.5,-79.5"/>
<text text-anchor="middle" x="1089.5" y="-67.5" font-family="Helvetica,sans-Serif" font-size="10.00">filesystem</text>
</a>
</g>
</g>
<!-- Node7&#45;&gt;Node9 -->
<g id="edge8" class="edge">
<title>Node7&#45;&gt;Node9</title>
<path fill="none" stroke="#63b8ff" d="M668.68,-122.33C671.66,-121.85 674.63,-121.4 677.5,-121 840.71,-98.32 885.21,-118.71 1046.5,-85 1049.73,-84.33 1053.05,-83.5 1056.36,-82.58"/>
<polygon fill="#63b8ff" stroke="#63b8ff" points="1057.53,-85.88 1066.09,-79.64 1055.51,-79.18 1057.53,-85.88"/>
</g>
<!-- Node10 -->
<g id="node10" class="node">
<title>Node10</title>
<g id="a_node10"><a xlink:title=" ">
<polygon fill="#e0e0e0" stroke="#999999" points="1197,-79.5 1142,-79.5 1142,-60.5 1197,-60.5 1197,-79.5"/>
<text text-anchor="middle" x="1169.5" y="-67.5" font-family="Helvetica,sans-Serif" font-size="10.00">fstream</text>
</a>
</g>
</g>
<!-- Node7&#45;&gt;Node10 -->
<g id="edge9" class="edge">
<title>Node7&#45;&gt;Node10</title>
<path fill="none" stroke="#63b8ff" d="M668.67,-122.27C671.65,-121.8 674.62,-121.37 677.5,-121 878.67,-94.92 934.55,-129.34 1132.5,-85 1135.02,-84.44 1137.6,-83.73 1140.17,-82.95"/>
<polygon fill="#63b8ff" stroke="#63b8ff" points="1141.53,-86.18 1149.85,-79.61 1139.25,-79.56 1141.53,-86.18"/>
</g>
<!-- Node11 -->
<g id="node11" class="node">
<title>Node11</title>
<g id="a_node11"><a xlink:title=" ">
<polygon fill="#e0e0e0" stroke="#999999" points="1263.5,-79.5 1215.5,-79.5 1215.5,-60.5 1263.5,-60.5 1263.5,-79.5"/>
<text text-anchor="middle" x="1239.5" y="-67.5" font-family="Helvetica,sans-Serif" font-size="10.00">gsl/gsl</text>
</a>
</g>
</g>
<!-- Node7&#45;&gt;Node11 -->
<g id="edge10" class="edge">
<title>Node7&#45;&gt;Node11</title>
<path fill="none" stroke="#63b8ff" d="M668.67,-122.23C671.65,-121.78 674.62,-121.36 677.5,-121 911.36,-91.99 977.3,-139.78 1206.5,-85 1208.66,-84.48 1210.87,-83.84 1213.06,-83.11"/>
<polygon fill="#63b8ff" stroke="#63b8ff" points="1214.31,-86.38 1222.4,-79.53 1211.81,-79.84 1214.31,-86.38"/>
</g>
<!-- Node12 -->
<g id="node12" class="node">
<title>Node12</title>
<g id="a_node12"><a xlink:title=" ">
<polygon fill="#e0e0e0" stroke="#999999" points="1329.5,-79.5 1281.5,-79.5 1281.5,-60.5 1329.5,-60.5 1329.5,-79.5"/>
<text text-anchor="middle" x="1305.5" y="-67.5" font-family="Helvetica,sans-Serif" font-size="10.00">mutex</text>
</a>
</g>
</g>
<!-- Node7&#45;&gt;Node12 -->
<g id="edge11" class="edge">
<title>Node7&#45;&gt;Node12</title>
<path fill="none" stroke="#63b8ff" d="M668.66,-122.21C671.65,-121.76 674.62,-121.35 677.5,-121 940.53,-89.37 1014.6,-145.61 1272.5,-85 1274.67,-84.49 1276.87,-83.85 1279.06,-83.13"/>
<polygon fill="#63b8ff" stroke="#63b8ff" points="1280.31,-86.39 1288.41,-79.56 1277.81,-79.86 1280.31,-86.39"/>
</g>
<!-- Node13 -->
<g id="node13" class="node">
<title>Node13</title>
<g id="a_node13"><a xlink:title=" ">
<polygon fill="#e0e0e0" stroke="#999999" points="1401.5,-79.5 1347.5,-79.5 1347.5,-60.5 1401.5,-60.5 1401.5,-79.5"/>
<text text-anchor="middle" x="1374.5" y="-67.5" font-family="Helvetica,sans-Serif" font-size="10.00">random</text>
</a>
</g>
</g>
<!-- Node7&#45;&gt;Node13 -->
<g id="edge12" class="edge">
<title>Node7&#45;&gt;Node13</title>
<path fill="none" stroke="#63b8ff" d="M668.66,-122.19C671.64,-121.74 674.62,-121.34 677.5,-121 969.71,-86.75 1050.91,-147.09 1338.5,-85 1341.02,-84.46 1343.6,-83.76 1346.16,-82.97"/>
<polygon fill="#63b8ff" stroke="#63b8ff" points="1347.53,-86.2 1355.79,-79.57 1345.2,-79.6 1347.53,-86.2"/>
</g>
<!-- Node14 -->
<g id="node14" class="node">
<title>Node14</title>
<g id="a_node14"><a xlink:title=" ">
<polygon fill="#e0e0e0" stroke="#999999" points="185.5,-79.5 145.5,-79.5 145.5,-60.5 185.5,-60.5 185.5,-79.5"/>
<text text-anchor="middle" x="165.5" y="-67.5" font-family="Helvetica,sans-Serif" font-size="10.00">span</text>
</a>
</g>
</g>
<!-- Node7&#45;&gt;Node14 -->
<g id="edge13" class="edge">
<title>Node7&#45;&gt;Node14</title>
<path fill="none" stroke="#63b8ff" d="M592.35,-130C515.51,-130.07 337.27,-125.39 194.5,-85 193.05,-84.59 191.59,-84.11 190.13,-83.59"/>
<polygon fill="#63b8ff" stroke="#63b8ff" points="191.33,-80.29 180.76,-79.59 188.59,-86.73 191.33,-80.29"/>
</g>
<!-- Node15 -->
<g id="node15" class="node">
<title>Node15</title>
<g id="a_node15"><a xlink:title=" ">
<polygon fill="#e0e0e0" stroke="#999999" points="275.5,-79.5 203.5,-79.5 203.5,-60.5 275.5,-60.5 275.5,-79.5"/>
<text text-anchor="middle" x="239.5" y="-67.5" font-family="Helvetica,sans-Serif" font-size="10.00">date/date.h</text>
</a>
</g>
</g>
<!-- Node7&#45;&gt;Node15 -->
<g id="edge16" class="edge">
<title>Node7&#45;&gt;Node15</title>
<path fill="none" stroke="#63b8ff" d="M592.24,-126.76C528.05,-121.69 394.86,-109.07 284.5,-85 281.12,-84.26 277.63,-83.39 274.16,-82.44"/>
<polygon fill="#63b8ff" stroke="#63b8ff" points="275.1,-79.07 264.52,-79.63 273.14,-85.79 275.1,-79.07"/>
</g>
<!-- Node16 -->
<g id="node16" class="node">
<title>Node16</title>
<g id="a_node16"><a xlink:title=" ">
<polygon fill="#e0e0e0" stroke="#999999" points="391.5,-79.5 293.5,-79.5 293.5,-60.5 391.5,-60.5 391.5,-79.5"/>
<text text-anchor="middle" x="342.5" y="-67.5" font-family="Helvetica,sans-Serif" font-size="10.00">pcg_random.hpp</text>
</a>
</g>
</g>
<!-- Node7&#45;&gt;Node16 -->
<g id="edge17" class="edge">
<title>Node7&#45;&gt;Node16</title>
<path fill="none" stroke="#63b8ff" d="M592.14,-122.63C546.39,-114.31 467.67,-99.6 400.5,-85 396.05,-84.03 391.42,-82.99 386.81,-81.91"/>
<polygon fill="#63b8ff" stroke="#63b8ff" points="387.33,-78.44 376.79,-79.55 385.72,-85.25 387.33,-78.44"/>
</g>
<!-- Node17 -->
<g id="node17" class="node">
<title>Node17</title>
<g id="a_node17"><a xlink:title=" ">
<polygon fill="#e0e0e0" stroke="#999999" points="495.5,-79.5 409.5,-79.5 409.5,-60.5 495.5,-60.5 495.5,-79.5"/>
<text text-anchor="middle" x="452.5" y="-67.5" font-family="Helvetica,sans-Serif" font-size="10.00">fmt/ostream.h</text>
</a>
</g>
</g>
<!-- Node7&#45;&gt;Node17 -->
<g id="edge18" class="edge">
<title>Node7&#45;&gt;Node17</title>
<path fill="none" stroke="#63b8ff" d="M604.62,-120.99C573.9,-110.9 522.52,-94.01 488.08,-82.69"/>
<polygon fill="#63b8ff" stroke="#63b8ff" points="489.01,-79.31 478.41,-79.52 486.82,-85.96 489.01,-79.31"/>
</g>
<!-- Node18 -->
<g id="node18" class="node">
<title>Node18</title>
<g id="a_node18"><a xlink:title=" ">
<polygon fill="#e0e0e0" stroke="#999999" points="619.5,-85 513.5,-85 513.5,-55 619.5,-55 619.5,-85"/>
<text text-anchor="start" x="521.5" y="-73" font-family="Helvetica,sans-Serif" font-size="10.00">spdlog/sinks/basic</text>
<text text-anchor="middle" x="566.5" y="-62" font-family="Helvetica,sans-Serif" font-size="10.00">_file_sink.h</text>
</a>
</g>
</g>
<!-- Node7&#45;&gt;Node18 -->
<g id="edge19" class="edge">
<title>Node7&#45;&gt;Node18</title>
<path fill="none" stroke="#63b8ff" d="M621.06,-120.87C612.77,-113.3 600.39,-101.98 589.51,-92.04"/>
<polygon fill="#63b8ff" stroke="#63b8ff" points="591.68,-89.28 581.94,-85.11 586.96,-94.44 591.68,-89.28"/>
</g>
<!-- Node19 -->
<g id="node19" class="node">
<title>Node19</title>
<g id="a_node19"><a xlink:title=" ">
<polygon fill="#e0e0e0" stroke="#999999" points="749,-85 638,-85 638,-55 749,-55 749,-85"/>
<text text-anchor="start" x="646" y="-73" font-family="Helvetica,sans-Serif" font-size="10.00">spdlog/sinks/stdout</text>
<text text-anchor="middle" x="693.5" y="-62" font-family="Helvetica,sans-Serif" font-size="10.00">_color_sinks.h</text>
</a>
</g>
</g>
<!-- Node7&#45;&gt;Node19 -->
<g id="edge20" class="edge">
<title>Node7&#45;&gt;Node19</title>
<path fill="none" stroke="#63b8ff" d="M639.8,-120.87C647.95,-113.3 660.14,-101.98 670.84,-92.04"/>
<polygon fill="#63b8ff" stroke="#63b8ff" points="673.35,-94.48 678.3,-85.11 668.59,-89.35 673.35,-94.48"/>
</g>
<!-- Node20 -->
<g id="node20" class="node">
<title>Node20</title>
<g id="a_node20"><a xlink:title=" ">
<polygon fill="#e0e0e0" stroke="#999999" points="860,-79.5 767,-79.5 767,-60.5 860,-60.5 860,-79.5"/>
<text text-anchor="middle" x="813.5" y="-67.5" font-family="Helvetica,sans-Serif" font-size="10.00">spdlog/spdlog.h</text>
</a>
</g>
</g>
<!-- Node7&#45;&gt;Node20 -->
<g id="edge21" class="edge">
<title>Node7&#45;&gt;Node20</title>
<path fill="none" stroke="#63b8ff" d="M657.11,-120.99C688.69,-110.9 741.51,-94.01 776.92,-82.69"/>
<polygon fill="#63b8ff" stroke="#63b8ff" points="778.4,-85.9 786.86,-79.52 776.27,-79.23 778.4,-85.9"/>
</g>
<!-- Node21 -->
<g id="node21" class="node">
<title>Node21</title>
<g id="a_node21"><a xlink:href="_settings_8hpp.html" target="_top" xlink:title="Global integer and precision settings.">
<polygon fill="white" stroke="#666666" points="955,-79.5 878,-79.5 878,-60.5 955,-60.5 955,-79.5"/>
<text text-anchor="middle" x="916.5" y="-67.5" font-family="Helvetica,sans-Serif" font-size="10.00">Settings.hpp</text>
</a>
</g>
</g>
<!-- Node7&#45;&gt;Node21 -->
<g id="edge22" class="edge">
<title>Node7&#45;&gt;Node21</title>
<path fill="none" stroke="#63b8ff" d="M668.54,-122.53C733.49,-110.6 859.78,-87.35 869.5,-85 872.73,-84.22 876.06,-83.35 879.4,-82.45"/>
<polygon fill="#63b8ff" stroke="#63b8ff" points="880.63,-85.73 889.29,-79.63 878.72,-79 880.63,-85.73"/>
</g>
<!-- Node22 -->
<g id="node22" class="node">
<title>Node22</title>
<g id="a_node22"><a xlink:title=" ">
<polygon fill="#e0e0e0" stroke="#999999" points="929.5,-19 789.5,-19 789.5,0 929.5,0 929.5,-19"/>
<text text-anchor="middle" x="859.5" y="-7" font-family="Helvetica,sans-Serif" font-size="10.00">CGAL/GMP/Gmpzf_type.h</text>
</a>
</g>
</g>
<!-- Node21&#45;&gt;Node22 -->
<g id="edge23" class="edge">
<title>Node21&#45;&gt;Node22</title>
<path fill="none" stroke="#63b8ff" d="M908.09,-60.37C899.42,-51.47 885.7,-37.39 875.04,-26.45"/>
<polygon fill="#63b8ff" stroke="#63b8ff" points="877.43,-23.89 867.95,-19.17 872.42,-28.77 877.43,-23.89"/>
</g>
<!-- Node23 -->
<g id="node23" class="node">
<title>Node23</title>
<g id="a_node23"><a xlink:title=" ">
<polygon fill="#e0e0e0" stroke="#999999" points="997.5,-19 947.5,-19 947.5,0 997.5,0 997.5,-19"/>
<text text-anchor="middle" x="972.5" y="-7" font-family="Helvetica,sans-Serif" font-size="10.00">cstdint</text>
</a>
</g>
</g>
<!-- Node21&#45;&gt;Node23 -->
<g id="edge24" class="edge">
<title>Node21&#45;&gt;Node23</title>
<path fill="none" stroke="#63b8ff" d="M924.76,-60.37C933.28,-51.47 946.76,-37.39 957.23,-26.45"/>
<polygon fill="#63b8ff" stroke="#63b8ff" points="959.82,-28.81 964.2,-19.17 954.76,-23.97 959.82,-28.81"/>
</g>
</g>
</svg>
