<?xml version="1.0" encoding="UTF-8" standalone="no"?>
<!DOCTYPE svg PUBLIC "-//W3C//DTD SVG 1.1//EN"
 "http://www.w3.org/Graphics/SVG/1.1/DTD/svg11.dtd">
<!-- Generated by graphviz version 15.1.0 (20260618.0150)
 -->
<!-- Title: include/Runtime_config.hpp Pages: 1 -->
<!--zoomable 212 -->

<svg id="main" version="1.1" xmlns="http://www.w3.org/2000/svg" xmlns:xlink="http://www.w3.org/1999/xlink" xml:space="preserve" onload="init(evt)">

<style type="text/css"><![CDATA[
.node, .edge {opacity: 0.7;}
.node.selected, .edge.selected {opacity: 1;}
.edge:hover path { stroke: red; }
.edge:hover polygon { stroke: red; fill: red; }
]]></style>

<defs>
  <circle id="rim" cx="0" cy="0" r="7"/>
  <circle id="rim2" cx="0" cy="0" r="3.5"/>
  <g id="zoomPlus">
    <use xlink:href="#rim" fill="#404040"><set attributeName="fill" to="#808080" begin="zoomplus.mouseover" end="zoomplus.mouseout"/></use>
    <path d="M-4,0h8M0,-4v8" fill="none" stroke="white" stroke-width="1.5" pointer-events="none"/>
  </g>
  <g id="zoomMin">
    <use xlink:href="#rim" fill="#404040"><set attributeName="fill" to="#808080" begin="zoomminus.mouseover" end="zoomminus.mouseout"/></use>
    <path d="M-4,0h8" fill="none" stroke="white" stroke-width="1.5" pointer-events="none"/>
  </g>
  <g id="arrowUp" transform="translate(30 24)">
    <use xlink:href="#rim"/>
    <path pointer-events="none" fill="none" stroke="white" stroke-width="1.5" d="M0,-3.0v7 M-2.5,-0.5L0,-3.0L2.5,-0.5"/>
  </g>
  <g id="arrowRight" transform="rotate(90) translate(36 -43)">
    <use xlink:href="#rim"/>
    <path pointer-events="none" fill="none" stroke="white" stroke-width="1.5" d="M0,-3.0v7 M-2.5,-0.5L0,-3.0L2.5,-0.5"/>
  </g>
  <g id="arrowDown" transform="rotate(180) translate(-30 -48)">
    <use xlink:href="#rim"/>
    <path pointer-events="none" fill="none" stroke="white" stroke-width="1.5" d="M0,-3.0v7 M-2.5,-0.5L0,-3.0L2.5,-0.5"/>
  </g>
  <g id="arrowLeft" transform="rotate(270) translate(-36 17)">
    <use xlink:href="#rim"/>
    <path pointer-events="none" fill="none" stroke="white" stroke-width="1.5" d="M0,-3.0v7 M-2.5,-0.5L0,-3.0L2.5,-0.5"/>
  </g>
  <g id="resetDef">
    <use xlink:href="#rim2" fill="#404040"><set attributeName="fill" to="#808080" begin="reset.mouseover" end="reset.mouseout"/></use>
  </g>
</defs>
<script type="application/ecmascript">
var viewWidth = 1480;
var viewHeight = 212;
var sectionId = 'dynsection-0';
</script>
<script type="application/ecmascript" xlink:href="svg.min.js"/>
<svg id="graph" class="graph">
<g id="viewport">
<title>include/Runtime_config.hpp</title>
<!-- Node1 -->
<g id="Node000001" class="node">
<title>Node1</title>
<g id="a_Node000001"><a xlink:title="Validated runtime configuration for CDT++ command&#45;line programs.">
<polygon fill="#999999" stroke="#666666" points="253.88,-203.75 102.88,-203.75 102.88,-183 253.88,-183 253.88,-203.75"/>
<text xml:space="preserve" text-anchor="middle" x="178.38" y="-190.25" font-family="Helvetica,sans-Serif" font-size="10.00">include/Runtime_config.hpp</text>
</a>
</g>
</g>
<!-- Node2 -->
<g id="Node000002" class="node">
<title>Node2</title>
<g id="a_Node000002"><a xlink:title=" ">
<polygon fill="#e0e0e0" stroke="#999999" points="46.75,-147 0,-147 0,-126.25 46.75,-126.25 46.75,-147"/>
<text xml:space="preserve" text-anchor="middle" x="23.38" y="-133.5" font-family="Helvetica,sans-Serif" font-size="10.00">cmath</text>
</a>
</g>
</g>
<!-- Node1&#45;&gt;Node2 -->
<g id="edge1_Node000001_Node000002" class="edge">
<title>Node1&#45;&gt;Node2</title>
<g id="a_edge1_Node000001_Node000002"><a xlink:title=" ">
<path fill="none" stroke="#63b8ff" d="M150.66,-182.59C124.53,-173.35 85.29,-159.49 57.29,-149.61"/>
<polygon fill="#63b8ff" stroke="#63b8ff" points="58.82,-146.43 48.22,-146.4 56.49,-153.03 58.82,-146.43"/>
</a>
</g>
</g>
<!-- Node3 -->
<g id="Node000003" class="node">
<title>Node3</title>
<g id="a_Node000003"><a xlink:title=" ">
<polygon fill="#e0e0e0" stroke="#999999" points="154.25,-20.75 110.5,-20.75 110.5,0 154.25,0 154.25,-20.75"/>
<text xml:space="preserve" text-anchor="middle" x="132.38" y="-7.25" font-family="Helvetica,sans-Serif" font-size="10.00">limits</text>
</a>
</g>
</g>
<!-- Node1&#45;&gt;Node3 -->
<g id="edge2_Node000001_Node000003" class="edge">
<title>Node1&#45;&gt;Node3</title>
<g id="a_edge2_Node000001_Node000003"><a xlink:title=" ">
<path fill="none" stroke="#63b8ff" d="M166.06,-182.69C146.23,-166.23 107.97,-130.6 93.38,-90.25 88.31,-76.25 88.2,-70.71 93.38,-56.75 97.3,-46.16 104.92,-36.39 112.39,-28.64"/>
<polygon fill="#63b8ff" stroke="#63b8ff" points="114.38,-31.59 119.17,-22.14 109.53,-26.54 114.38,-31.59"/>
</a>
</g>
</g>
<!-- Node4 -->
<g id="Node000004" class="node">
<title>Node4</title>
<g id="a_Node000004"><a xlink:title=" ">
<polygon fill="#e0e0e0" stroke="#999999" points="166.38,-83.88 102.38,-83.88 102.38,-63.12 166.38,-63.12 166.38,-83.88"/>
<text xml:space="preserve" text-anchor="middle" x="134.38" y="-70.38" font-family="Helvetica,sans-Serif" font-size="10.00">stdexcept</text>
</a>
</g>
</g>
<!-- Node1&#45;&gt;Node4 -->
<g id="edge3_Node000001_Node000004" class="edge">
<title>Node1&#45;&gt;Node4</title>
<g id="a_edge3_Node000001_Node000004"><a xlink:title=" ">
<path fill="none" stroke="#63b8ff" d="M174.77,-182.73C167.65,-163.65 151.62,-120.71 142.04,-95.02"/>
<polygon fill="#63b8ff" stroke="#63b8ff" points="145.33,-93.84 138.55,-85.7 138.77,-96.29 145.33,-93.84"/>
</a>
</g>
</g>
<!-- Node5 -->
<g id="Node000005" class="node">
<title>Node5</title>
<g id="a_Node000005"><a xlink:title=" ">
<polygon fill="#e0e0e0" stroke="#999999" points="228.25,-83.88 184.5,-83.88 184.5,-63.12 228.25,-63.12 228.25,-83.88"/>
<text xml:space="preserve" text-anchor="middle" x="206.38" y="-70.38" font-family="Helvetica,sans-Serif" font-size="10.00">string</text>
</a>
</g>
</g>
<!-- Node1&#45;&gt;Node5 -->
<g id="edge4_Node000001_Node000005" class="edge">
<title>Node1&#45;&gt;Node5</title>
<g id="a_edge4_Node000001_Node000005"><a xlink:title=" ">
<path fill="none" stroke="#63b8ff" d="M180.67,-182.73C185.18,-163.73 195.31,-121.1 201.42,-95.37"/>
<polygon fill="#63b8ff" stroke="#63b8ff" points="204.8,-96.29 203.7,-85.75 197.99,-94.67 204.8,-96.29"/>
</a>
</g>
</g>
<!-- Node6 -->
<g id="Node000006" class="node">
<title>Node6</title>
<g id="a_Node000006"><a xlink:title=" ">
<polygon fill="#e0e0e0" stroke="#999999" points="707.62,-147 663.12,-147 663.12,-126.25 707.62,-126.25 707.62,-147"/>
<text xml:space="preserve" text-anchor="middle" x="685.38" y="-133.5" font-family="Helvetica,sans-Serif" font-size="10.00">utility</text>
</a>
</g>
</g>
<!-- Node1&#45;&gt;Node6 -->
<g id="edge5_Node000001_Node000006" class="edge">
<title>Node1&#45;&gt;Node6</title>
<g id="a_edge5_Node000001_Node000006"><a xlink:title=" ">
<path fill="none" stroke="#63b8ff" d="M254.06,-189.79C346.23,-185.62 506.62,-175.03 651.94,-147.14"/>
<polygon fill="#63b8ff" stroke="#63b8ff" points="652.19,-150.66 661.33,-145.3 650.85,-143.79 652.19,-150.66"/>
</a>
</g>
</g>
<!-- Node7 -->
<g id="Node000007" class="node">
<title>Node7</title>
<g id="a_Node000007"><a xlink:href="_utilities_8hpp.html" target="_top" xlink:title="Utility functions.">
<polygon fill="white" stroke="#666666" points="645,-147 569.75,-147 569.75,-126.25 645,-126.25 645,-147"/>
<text xml:space="preserve" text-anchor="middle" x="607.38" y="-133.5" font-family="Helvetica,sans-Serif" font-size="10.00">Utilities.hpp</text>
</a>
</g>
</g>
<!-- Node1&#45;&gt;Node7 -->
<g id="edge6_Node000001_Node000007" class="edge">
<title>Node1&#45;&gt;Node7</title>
<g id="a_edge6_Node000001_Node000007"><a xlink:title=" ">
<path fill="none" stroke="#63b8ff" d="M254.08,-182.71C341.76,-171.52 483.66,-153.41 558.14,-143.91"/>
<polygon fill="#63b8ff" stroke="#63b8ff" points="558.51,-147.39 567.99,-142.65 557.63,-140.45 558.51,-147.39"/>
</a>
</g>
</g>
<!-- Node7&#45;&gt;Node4 -->
<g id="edge14_Node000007_Node000004" class="edge">
<title>Node7&#45;&gt;Node4</title>
<g id="a_edge14_Node000007_Node000004"><a xlink:title=" ">
<path fill="none" stroke="#63b8ff" d="M569.25,-134.96C493.27,-132.9 318,-124.5 175.38,-90.25 172.75,-89.62 170.06,-88.86 167.38,-88.02"/>
<polygon fill="#63b8ff" stroke="#63b8ff" points="168.62,-84.75 158.02,-84.75 166.31,-91.35 168.62,-84.75"/>
</a>
</g>
</g>
<!-- Node7&#45;&gt;Node5 -->
<g id="edge15_Node000007_Node000005" class="edge">
<title>Node7&#45;&gt;Node5</title>
<g id="a_edge15_Node000007_Node000005"><a xlink:title=" ">
<path fill="none" stroke="#63b8ff" d="M569.37,-134.5C502.24,-131.71 358.75,-122.21 242.38,-90.25 240.39,-89.7 238.37,-89.07 236.36,-88.37"/>
<polygon fill="#63b8ff" stroke="#63b8ff" points="237.8,-85.18 227.22,-84.77 235.24,-91.69 237.8,-85.18"/>
</a>
</g>
</g>
<!-- Node8 -->
<g id="Node000008" class="node">
<title>Node8</title>
<g id="a_Node000008"><a xlink:title=" ">
<polygon fill="#e0e0e0" stroke="#999999" points="443,-83.88 379.75,-83.88 379.75,-63.12 443,-63.12 443,-83.88"/>
<text xml:space="preserve" text-anchor="middle" x="411.38" y="-70.38" font-family="Helvetica,sans-Serif" font-size="10.00">algorithm</text>
</a>
</g>
</g>
<!-- Node7&#45;&gt;Node8 -->
<g id="edge7_Node000007_Node000008" class="edge">
<title>Node7&#45;&gt;Node8</title>
<g id="a_edge7_Node000007_Node000008"><a xlink:title=" ">
<path fill="none" stroke="#63b8ff" d="M569.88,-125.76C538.09,-117.15 491.41,-103.92 451.38,-90.25 449.58,-89.64 447.74,-88.99 445.9,-88.32"/>
<polygon fill="#63b8ff" stroke="#63b8ff" points="447.36,-85.13 436.77,-84.89 444.9,-91.69 447.36,-85.13"/>
</a>
</g>
</g>
<!-- Node9 -->
<g id="Node000009" class="node">
<title>Node9</title>
<g id="a_Node000009"><a xlink:title=" ">
<polygon fill="#e0e0e0" stroke="#999999" points="527.88,-83.88 460.88,-83.88 460.88,-63.12 527.88,-63.12 527.88,-83.88"/>
<text xml:space="preserve" text-anchor="middle" x="494.38" y="-70.38" font-family="Helvetica,sans-Serif" font-size="10.00">filesystem</text>
</a>
</g>
</g>
<!-- Node7&#45;&gt;Node9 -->
<g id="edge8_Node000007_Node000009" class="edge">
<title>Node7&#45;&gt;Node9</title>
<g id="a_edge8_Node000007_Node000009"><a xlink:title=" ">
<path fill="none" stroke="#63b8ff" d="M589.22,-125.8C571.18,-116.05 543.27,-100.95 522.39,-89.65"/>
<polygon fill="#63b8ff" stroke="#63b8ff" points="524.28,-86.7 513.82,-85.02 520.95,-92.85 524.28,-86.7"/>
</a>
</g>
</g>
<!-- Node10 -->
<g id="Node000010" class="node">
<title>Node10</title>
<g id="a_Node000010"><a xlink:title=" ">
<polygon fill="#e0e0e0" stroke="#999999" points="600.5,-83.88 546.25,-83.88 546.25,-63.12 600.5,-63.12 600.5,-83.88"/>
<text xml:space="preserve" text-anchor="middle" x="573.38" y="-70.38" font-family="Helvetica,sans-Serif" font-size="10.00">fstream</text>
</a>
</g>
</g>
<!-- Node7&#45;&gt;Node10 -->
<g id="edge9_Node000007_Node000010" class="edge">
<title>Node7&#45;&gt;Node10</title>
<g id="a_edge9_Node000007_Node000010"><a xlink:title=" ">
<path fill="none" stroke="#63b8ff" d="M601.91,-125.8C597.18,-117.29 590.18,-104.7 584.29,-94.13"/>
<polygon fill="#63b8ff" stroke="#63b8ff" points="587.37,-92.46 579.45,-85.42 581.25,-95.86 587.37,-92.46"/>
</a>
</g>
</g>
<!-- Node11 -->
<g id="Node000011" class="node">
<title>Node11</title>
<g id="a_Node000011"><a xlink:title=" ">
<polygon fill="#e0e0e0" stroke="#999999" points="666.12,-83.88 618.62,-83.88 618.62,-63.12 666.12,-63.12 666.12,-83.88"/>
<text xml:space="preserve" text-anchor="middle" x="642.38" y="-70.38" font-family="Helvetica,sans-Serif" font-size="10.00">gsl/gsl</text>
</a>
</g>
</g>
<!-- Node7&#45;&gt;Node11 -->
<g id="edge10_Node000007_Node000011" class="edge">
<title>Node7&#45;&gt;Node11</title>
<g id="a_edge10_Node000007_Node000011"><a xlink:title=" ">
<path fill="none" stroke="#63b8ff" d="M613,-125.8C617.93,-117.2 625.23,-104.44 631.33,-93.8"/>
<polygon fill="#63b8ff" stroke="#63b8ff" points="634.2,-95.83 636.13,-85.41 628.12,-92.35 634.2,-95.83"/>
</a>
</g>
</g>
<!-- Node12 -->
<g id="Node000012" class="node">
<title>Node12</title>
<g id="a_Node000012"><a xlink:title=" ">
<polygon fill="#e0e0e0" stroke="#999999" points="732.12,-83.88 684.62,-83.88 684.62,-63.12 732.12,-63.12 732.12,-83.88"/>
<text xml:space="preserve" text-anchor="middle" x="708.38" y="-70.38" font-family="Helvetica,sans-Serif" font-size="10.00">mutex</text>
</a>
</g>
</g>
<!-- Node7&#45;&gt;Node12 -->
<g id="edge11_Node000007_Node000012" class="edge">
<title>Node7&#45;&gt;Node12</title>
<g id="a_edge11_Node000007_Node000012"><a xlink:title=" ">
<path fill="none" stroke="#63b8ff" d="M623.6,-125.8C639.51,-116.18 663.99,-101.36 682.57,-90.12"/>
<polygon fill="#63b8ff" stroke="#63b8ff" points="684.15,-93.25 690.89,-85.08 680.53,-87.26 684.15,-93.25"/>
</a>
</g>
</g>
<!-- Node13 -->
<g id="Node000013" class="node">
<title>Node13</title>
<g id="a_Node000013"><a xlink:title=" ">
<polygon fill="#e0e0e0" stroke="#999999" points="279.12,-20.75 225.62,-20.75 225.62,0 279.12,0 279.12,-20.75"/>
<text xml:space="preserve" text-anchor="middle" x="252.38" y="-7.25" font-family="Helvetica,sans-Serif" font-size="10.00">random</text>
</a>
</g>
</g>
<!-- Node7&#45;&gt;Node13 -->
<g id="edge12_Node000007_Node000013" class="edge">
<title>Node7&#45;&gt;Node13</title>
<g id="a_edge12_Node000007_Node000013"><a xlink:title=" ">
<path fill="none" stroke="#63b8ff" d="M569.52,-135.47C491.98,-134.37 318.78,-127.66 275.38,-90.25 258.86,-76.02 253.87,-50.67 252.53,-32.55"/>
<polygon fill="#63b8ff" stroke="#63b8ff" points="256.03,-32.51 252.14,-22.65 249.03,-32.78 256.03,-32.51"/>
</a>
</g>
</g>
<!-- Node14 -->
<g id="Node000014" class="node">
<title>Node14</title>
<g id="a_Node000014"><a xlink:title=" ">
<polygon fill="#e0e0e0" stroke="#999999" points="789,-83.88 749.75,-83.88 749.75,-63.12 789,-63.12 789,-83.88"/>
<text xml:space="preserve" text-anchor="middle" x="769.38" y="-70.38" font-family="Helvetica,sans-Serif" font-size="10.00">span</text>
</a>
</g>
</g>
<!-- Node7&#45;&gt;Node14 -->
<g id="edge13_Node000007_Node000014" class="edge">
<title>Node7&#45;&gt;Node14</title>
<g id="a_edge13_Node000007_Node000014"><a xlink:title=" ">
<path fill="none" stroke="#63b8ff" d="M642.19,-125.78C669.65,-117.56 708.62,-104.85 741.38,-90.25 741.86,-90.03 742.35,-89.81 742.83,-89.59"/>
<polygon fill="#63b8ff" stroke="#63b8ff" points="744.4,-92.71 751.71,-85.04 741.21,-86.48 744.4,-92.71"/>
</a>
</g>
</g>
<!-- Node15 -->
<g id="Node000015" class="node">
<title>Node15</title>
<g id="a_Node000015"><a xlink:title=" ">
<polygon fill="#e0e0e0" stroke="#999999" points="878.12,-83.88 806.62,-83.88 806.62,-63.12 878.12,-63.12 878.12,-83.88"/>
<text xml:space="preserve" text-anchor="middle" x="842.38" y="-70.38" font-family="Helvetica,sans-Serif" font-size="10.00">date/date.h</text>
</a>
</g>
</g>
<!-- Node7&#45;&gt;Node15 -->
<g id="edge16_Node000007_Node000015" class="edge">
<title>Node7&#45;&gt;Node15</title>
<g id="a_edge16_Node000007_Node000015"><a xlink:title=" ">
<path fill="none" stroke="#63b8ff" d="M645.39,-127.89C684.17,-119.7 745.93,-105.81 798.38,-90.25 800.78,-89.54 803.24,-88.77 805.71,-87.96"/>
<polygon fill="#63b8ff" stroke="#63b8ff" points="806.7,-91.33 815.04,-84.79 804.45,-84.7 806.7,-91.33"/>
</a>
</g>
</g>
<!-- Node16 -->
<g id="Node000016" class="node">
<title>Node16</title>
<g id="a_Node000016"><a xlink:title=" ">
<polygon fill="#e0e0e0" stroke="#999999" points="982.25,-83.88 896.5,-83.88 896.5,-63.12 982.25,-63.12 982.25,-83.88"/>
<text xml:space="preserve" text-anchor="middle" x="939.38" y="-70.38" font-family="Helvetica,sans-Serif" font-size="10.00">fmt/ostream.h</text>
</a>
</g>
</g>
<!-- Node7&#45;&gt;Node16 -->
<g id="edge17_Node000007_Node000016" class="edge">
<title>Node7&#45;&gt;Node16</title>
<g id="a_edge17_Node000007_Node000016"><a xlink:title=" ">
<path fill="none" stroke="#63b8ff" d="M645.31,-127.91C648.38,-127.33 651.43,-126.77 654.38,-126.25 757.56,-108 785.2,-113.5 887.38,-90.25 891.12,-89.4 894.99,-88.42 898.85,-87.37"/>
<polygon fill="#63b8ff" stroke="#63b8ff" points="899.49,-90.83 908.14,-84.72 897.56,-84.1 899.49,-90.83"/>
</a>
</g>
</g>
<!-- Node17 -->
<g id="Node000017" class="node">
<title>Node17</title>
<g id="a_Node000017"><a xlink:title=" ">
<polygon fill="#e0e0e0" stroke="#999999" points="1106,-90.25 1000.75,-90.25 1000.75,-56.75 1106,-56.75 1106,-90.25"/>
<text xml:space="preserve" text-anchor="start" x="1008.75" y="-76.75" font-family="Helvetica,sans-Serif" font-size="10.00">spdlog/sinks/basic</text>
<text xml:space="preserve" text-anchor="middle" x="1053.38" y="-64" font-family="Helvetica,sans-Serif" font-size="10.00">_file_sink.h</text>
</a>
</g>
</g>
<!-- Node7&#45;&gt;Node17 -->
<g id="edge18_Node000007_Node000017" class="edge">
<title>Node7&#45;&gt;Node17</title>
<g id="a_edge18_Node000007_Node000017"><a xlink:title=" ">
<path fill="none" stroke="#63b8ff" d="M645.29,-127.76C648.36,-127.21 651.41,-126.7 654.38,-126.25 799.64,-104.05 841.1,-116.23 989.07,-90.49"/>
<polygon fill="#63b8ff" stroke="#63b8ff" points="989.66,-93.94 998.89,-88.75 988.44,-87.05 989.66,-93.94"/>
</a>
</g>
</g>
<!-- Node18 -->
<g id="Node000018" class="node">
<title>Node18</title>
<g id="a_Node000018"><a xlink:title=" ">
<polygon fill="#e0e0e0" stroke="#999999" points="1234.62,-90.25 1124.12,-90.25 1124.12,-56.75 1234.62,-56.75 1234.62,-90.25"/>
<text xml:space="preserve" text-anchor="start" x="1132.12" y="-76.75" font-family="Helvetica,sans-Serif" font-size="10.00">spdlog/sinks/stdout</text>
<text xml:space="preserve" text-anchor="middle" x="1179.38" y="-64" font-family="Helvetica,sans-Serif" font-size="10.00">_color_sinks.h</text>
</a>
</g>
</g>
<!-- Node7&#45;&gt;Node18 -->
<g id="edge19_Node000007_Node000018" class="edge">
<title>Node7&#45;&gt;Node18</title>
<g id="a_edge19_Node000007_Node000018"><a xlink:title=" ">
<path fill="none" stroke="#63b8ff" d="M645.27,-127.66C648.35,-127.14 651.41,-126.66 654.38,-126.25 854.27,-98.61 910.46,-122.03 1112.34,-90.58"/>
<polygon fill="#63b8ff" stroke="#63b8ff" points="1112.81,-94.05 1122.14,-89.02 1111.72,-87.13 1112.81,-94.05"/>
</a>
</g>
</g>
<!-- Node19 -->
<g id="Node000019" class="node">
<title>Node19</title>
<g id="a_Node000019"><a xlink:title=" ">
<polygon fill="#e0e0e0" stroke="#999999" points="1345.62,-83.88 1253.12,-83.88 1253.12,-63.12 1345.62,-63.12 1345.62,-83.88"/>
<text xml:space="preserve" text-anchor="middle" x="1299.38" y="-70.38" font-family="Helvetica,sans-Serif" font-size="10.00">spdlog/spdlog.h</text>
</a>
</g>
</g>
<!-- Node7&#45;&gt;Node19 -->
<g id="edge20_Node000007_Node000019" class="edge">
<title>Node7&#45;&gt;Node19</title>
<g id="a_edge20_Node000007_Node000019"><a xlink:title=" ">
<path fill="none" stroke="#63b8ff" d="M645.27,-127.61C648.34,-127.1 651.4,-126.64 654.38,-126.25 914.46,-92.52 984.78,-134 1243.38,-90.25 1248.08,-89.45 1252.96,-88.42 1257.78,-87.25"/>
<polygon fill="#63b8ff" stroke="#63b8ff" points="1258.58,-90.66 1267.37,-84.74 1256.81,-83.89 1258.58,-90.66"/>
</a>
</g>
</g>
<!-- Node20 -->
<g id="Node000020" class="node">
<title>Node20</title>
<g id="a_Node000020"><a xlink:href="_random_8hpp.html" target="_top" xlink:title="Run&#45;owned random&#45;number generation and reproducible stream splitting.">
<polygon fill="white" stroke="#666666" points="362.12,-83.88 284.62,-83.88 284.62,-63.12 362.12,-63.12 362.12,-83.88"/>
<text xml:space="preserve" text-anchor="middle" x="323.38" y="-70.38" font-family="Helvetica,sans-Serif" font-size="10.00">Random.hpp</text>
</a>
</g>
</g>
<!-- Node7&#45;&gt;Node20 -->
<g id="edge21_Node000007_Node000020" class="edge">
<title>Node7&#45;&gt;Node20</title>
<g id="a_edge21_Node000007_Node000020"><a xlink:title=" ">
<path fill="none" stroke="#63b8ff" d="M569.26,-129.95C522.14,-122.55 439.67,-108.41 370.38,-90.25 367.43,-89.48 364.41,-88.62 361.38,-87.71"/>
<polygon fill="#63b8ff" stroke="#63b8ff" points="362.56,-84.42 351.97,-84.74 360.45,-91.09 362.56,-84.42"/>
</a>
</g>
</g>
<!-- Node24 -->
<g id="Node000024" class="node">
<title>Node24</title>
<g id="a_Node000024"><a xlink:href="_settings_8hpp.html" target="_top" xlink:title="Global integer and precision settings.">
<polygon fill="white" stroke="#666666" points="1440.75,-83.88 1364,-83.88 1364,-63.12 1440.75,-63.12 1440.75,-83.88"/>
<text xml:space="preserve" text-anchor="middle" x="1402.38" y="-70.38" font-family="Helvetica,sans-Serif" font-size="10.00">Settings.hpp</text>
</a>
</g>
</g>
<!-- Node7&#45;&gt;Node24 -->
<g id="edge27_Node000007_Node000024" class="edge">
<title>Node7&#45;&gt;Node24</title>
<g id="a_edge27_Node000007_Node000024"><a xlink:title=" ">
<path fill="none" stroke="#63b8ff" d="M645.26,-127.58C648.34,-127.07 651.4,-126.62 654.38,-126.25 963.5,-87.68 1048.12,-147.31 1354.38,-90.25 1358.04,-89.57 1361.81,-88.68 1365.55,-87.67"/>
<polygon fill="#63b8ff" stroke="#63b8ff" points="1366.53,-91.03 1375.1,-84.8 1364.51,-84.32 1366.53,-91.03"/>
</a>
</g>
</g>
<!-- Node20&#45;&gt;Node3 -->
<g id="edge24_Node000020_Node000003" class="edge">
<title>Node20&#45;&gt;Node3</title>
<g id="a_edge24_Node000020_Node000003"><a xlink:title=" ">
<path fill="none" stroke="#63b8ff" d="M292.69,-62.68C257.86,-51.53 201.26,-33.42 165.47,-21.97"/>
<polygon fill="#63b8ff" stroke="#63b8ff" points="166.67,-18.67 156.07,-18.96 164.53,-25.34 166.67,-18.67"/>
</a>
</g>
</g>
<!-- Node20&#45;&gt;Node13 -->
<g id="edge25_Node000020_Node000013" class="edge">
<title>Node20&#45;&gt;Node13</title>
<g id="a_edge25_Node000020_Node000013"><a xlink:title=" ">
<path fill="none" stroke="#63b8ff" d="M311.97,-62.68C301.24,-53.45 284.96,-39.43 272.13,-28.38"/>
<polygon fill="#63b8ff" stroke="#63b8ff" points="274.53,-25.83 264.67,-21.96 269.96,-31.13 274.53,-25.83"/>
</a>
</g>
</g>
<!-- Node21 -->
<g id="Node000021" class="node">
<title>Node21</title>
<g id="a_Node000021"><a xlink:title=" ">
<polygon fill="#e0e0e0" stroke="#999999" points="357.12,-20.75 297.62,-20.75 297.62,0 357.12,0 357.12,-20.75"/>
<text xml:space="preserve" text-anchor="middle" x="327.38" y="-7.25" font-family="Helvetica,sans-Serif" font-size="10.00">concepts</text>
</a>
</g>
</g>
<!-- Node20&#45;&gt;Node21 -->
<g id="edge22_Node000020_Node000021" class="edge">
<title>Node20&#45;&gt;Node21</title>
<g id="a_edge22_Node000020_Node000021"><a xlink:title=" ">
<path fill="none" stroke="#63b8ff" d="M324.02,-62.68C324.55,-54.52 325.33,-42.63 326,-32.35"/>
<polygon fill="#63b8ff" stroke="#63b8ff" points="329.49,-32.69 326.65,-22.48 322.5,-32.23 329.49,-32.69"/>
</a>
</g>
</g>
<!-- Node22 -->
<g id="Node000022" class="node">
<title>Node22</title>
<g id="a_Node000022"><a xlink:title=" ">
<polygon fill="#e0e0e0" stroke="#999999" points="924.88,-20.75 875.88,-20.75 875.88,0 924.88,0 924.88,-20.75"/>
<text xml:space="preserve" text-anchor="middle" x="900.38" y="-7.25" font-family="Helvetica,sans-Serif" font-size="10.00">cstdint</text>
</a>
</g>
</g>
<!-- Node20&#45;&gt;Node22 -->
<g id="edge23_Node000020_Node000022" class="edge">
<title>Node20&#45;&gt;Node22</title>
<g id="a_edge23_Node000020_Node000022"><a xlink:title=" ">
<path fill="none" stroke="#63b8ff" d="M348.93,-62.71C355.8,-60.42 363.3,-58.22 370.38,-56.75 553.07,-18.88 777.49,-12.52 864,-11.53"/>
<polygon fill="#63b8ff" stroke="#63b8ff" points="864.03,-15.03 873.99,-11.43 863.96,-8.03 864.03,-15.03"/>
</a>
</g>
</g>
<!-- Node23 -->
<g id="Node000023" class="node">
<title>Node23</title>
<g id="a_Node000023"><a xlink:title=" ">
<polygon fill="#e0e0e0" stroke="#999999" points="471.88,-20.75 374.88,-20.75 374.88,0 471.88,0 471.88,-20.75"/>
<text xml:space="preserve" text-anchor="middle" x="423.38" y="-7.25" font-family="Helvetica,sans-Serif" font-size="10.00">pcg_random.hpp</text>
</a>
</g>
</g>
<!-- Node20&#45;&gt;Node23 -->
<g id="edge26_Node000020_Node000023" class="edge">
<title>Node20&#45;&gt;Node23</title>
<g id="a_edge26_Node000020_Node000023"><a xlink:title=" ">
<path fill="none" stroke="#63b8ff" d="M339.44,-62.68C355.11,-53.1 379.21,-38.37 397.57,-27.15"/>
<polygon fill="#63b8ff" stroke="#63b8ff" points="399.35,-30.16 406.06,-21.96 395.7,-24.19 399.35,-30.16"/>
</a>
</g>
</g>
<!-- Node24&#45;&gt;Node22 -->
<g id="edge29_Node000024_Node000022" class="edge">
<title>Node24&#45;&gt;Node22</title>
<g id="a_edge29_Node000024_Node000022"><a xlink:title=" ">
<path fill="none" stroke="#63b8ff" d="M1376,-62.71C1369.05,-60.44 1361.5,-58.26 1354.38,-56.75 1201.36,-24.4 1014.32,-14.96 936.76,-12.33"/>
<polygon fill="#63b8ff" stroke="#63b8ff" points="936.89,-8.84 926.78,-12.02 936.67,-15.83 936.89,-8.84"/>
</a>
</g>
</g>
<!-- Node25 -->
<g id="Node000025" class="node">
<title>Node25</title>
<g id="a_Node000025"><a xlink:title=" ">
<polygon fill="#e0e0e0" stroke="#999999" points="1471.88,-20.75 1332.88,-20.75 1332.88,0 1471.88,0 1471.88,-20.75"/>
<text xml:space="preserve" text-anchor="middle" x="1402.38" y="-7.25" font-family="Helvetica,sans-Serif" font-size="10.00">CGAL/GMP/Gmpzf_type.h</text>
</a>
</g>
</g>
<!-- Node24&#45;&gt;Node25 -->
<g id="edge28_Node000024_Node000025" class="edge">
<title>Node24&#45;&gt;Node25</title>
<g id="a_edge28_Node000024_Node000025"><a xlink:title=" ">
<path fill="none" stroke="#63b8ff" d="M1402.38,-62.68C1402.38,-54.52 1402.38,-42.63 1402.38,-32.35"/>
<polygon fill="#63b8ff" stroke="#63b8ff" points="1405.88,-32.48 1402.38,-22.48 1398.88,-32.48 1405.88,-32.48"/>
</a>
</g>
</g>
</g>
</svg>

<g id="navigator" transform="translate(0 0)" fill="#404254">
  <rect fill="#f2f5e9" fill-opacity="0.5" stroke="#606060" stroke-width=".5" x="0" y="0" width="60" height="60"/>
  <use id="zoomplus" xlink:href="#zoomPlus" x="17" y="9" onmousedown="handleZoom(evt,'in')"/>
  <use id="zoomminus" xlink:href="#zoomMin" x="42" y="9" onmousedown="handleZoom(evt,'out')"/>
  <use id="reset" xlink:href="#resetDef" x="30" y="36" onmousedown="handleReset()"/>
   <use id="arrowup" xlink:href="#arrowUp" x="0" y="0" onmousedown="handlePan(0,-1)"/>
  <use id="arrowright" xlink:href="#arrowRight" x="0" y="0" onmousedown="handlePan(1,0)"/>
  <use id="arrowdown" xlink:href="#arrowDown" x="0" y="0" onmousedown="handlePan(0,1)"/>
  <use id="arrowleft" xlink:href="#arrowLeft" x="0" y="0" onmousedown="handlePan(-1,0)"/>
</g>
<svg viewBox="0 0 15 15" width="100%" height="30px" preserveAspectRatio="xMaxYMin meet">
 <g id="arrow_out" transform="scale(0.3 0.3)">
  <a xlink:href="_runtime__config_8hpp__incl_org.svg" target="_base">
   <rect id="button" ry="5" rx="5" y="6" x="6" height="38" width="38"
        fill="#f2f5e9" fill-opacity="0.5" stroke="#606060" stroke-width="1.0"/>
   <path id="arrow"
     d="M 11.500037,31.436501 C 11.940474,20.09759 22.043105,11.32322 32.158766,21.979434 L 37.068811,17.246167 C 37.068811,17.246167 37.088388,32 37.088388,32 L 22.160133,31.978069 C 22.160133,31.978069 26.997745,27.140456 26.997745,27.140456 C 18.528582,18.264221 13.291696,25.230495 11.500037,31.436501 z"
     style="fill:#404040;"/>
  </a>
 </g>
</svg>

<style type='text/css'>
<![CDATA[
[data-mouse-over-selected='false'] { opacity: 0.7; }
[data-mouse-over-selected='true']  { opacity: 1.0; }
]]>
</style>
<script type="application/ecmascript"><![CDATA[
document.addEventListener('DOMContentLoaded', (event) => {
  highlightEdges();
  highlightAdjacentNodes();
});
]]></script>
</svg>
