<?xml version="1.0" encoding="UTF-8" standalone="no"?>
<!DOCTYPE svg PUBLIC "-//W3C//DTD SVG 1.1//EN"
 "http://www.w3.org/Graphics/SVG/1.1/DTD/svg11.dtd">
<!-- Generated by graphviz version 15.1.0 (20260618.0150)
 -->
<!-- Title: include/Runtime_config.hpp Pages: 1 -->
<svg width="190pt" height="86pt"
 viewBox="0.00 0.00 190.00 86.00" xmlns="http://www.w3.org/2000/svg" xmlns:xlink="http://www.w3.org/1999/xlink">
<g id="graph0" class="graph" transform="scale(1 1) rotate(0) translate(4 81.5)">
<title>include/Runtime_config.hpp</title>
<!-- Node1 -->
<g id="Node000001" class="node">
<title>Node1</title>
<g id="a_Node000001"><a xlink:title="Validated runtime configuration for CDT++ command&#45;line programs.">
<polygon fill="#999999" stroke="#666666" points="159.75,-77.5 8.75,-77.5 8.75,-56.75 159.75,-56.75 159.75,-77.5"/>
<text xml:space="preserve" text-anchor="middle" x="84.25" y="-64" font-family="Helvetica,sans-Serif" font-size="10.00">include/Runtime_config.hpp</text>
</a>
</g>
</g>
<!-- Node2 -->
<g id="Node000002" class="node">
<title>Node2</title>
<g id="a_Node000002"><a xlink:href="cdt_8cpp.html" target="_top" xlink:title="The main executable.">
<polygon fill="white" stroke="#666666" points="68.5,-20.75 0,-20.75 0,0 68.5,0 68.5,-20.75"/>
<text xml:space="preserve" text-anchor="middle" x="34.25" y="-7.25" font-family="Helvetica,sans-Serif" font-size="10.00">src/cdt.cpp</text>
</a>
</g>
</g>
<!-- Node1&#45;&gt;Node2 -->
<g id="edge1_Node000001_Node000002" class="edge">
<title>Node1&#45;&gt;Node2</title>
<g id="a_edge1_Node000001_Node000002"><a xlink:title=" ">
<path fill="none" stroke="#63b8ff" d="M67.72,-48.02C59.51,-39.03 49.92,-28.53 43.11,-21.08"/>
<polygon fill="#63b8ff" stroke="#63b8ff" points="64.96,-50.2 74.29,-55.22 70.13,-45.47 64.96,-50.2"/>
</a>
</g>
</g>
<!-- Node3 -->
<g id="Node000003" class="node">
<title>Node3</title>
<g id="a_Node000003"><a xlink:href="initialize_8cpp.html" target="_top" xlink:title="Generates initial spacetimes.">
<polygon fill="white" stroke="#666666" points="182,-20.75 86.5,-20.75 86.5,0 182,0 182,-20.75"/>
<text xml:space="preserve" text-anchor="middle" x="134.25" y="-7.25" font-family="Helvetica,sans-Serif" font-size="10.00">src/initialize.cpp</text>
</a>
</g>
</g>
<!-- Node1&#45;&gt;Node3 -->
<g id="edge2_Node000001_Node000003" class="edge">
<title>Node1&#45;&gt;Node3</title>
<g id="a_edge2_Node000001_Node000003"><a xlink:title=" ">
<path fill="none" stroke="#63b8ff" d="M100.78,-48.02C108.99,-39.03 118.58,-28.53 125.39,-21.08"/>
<polygon fill="#63b8ff" stroke="#63b8ff" points="98.37,-45.47 94.21,-55.22 103.54,-50.2 98.37,-45.47"/>
</a>
</g>
</g>
</g>
</svg>
