<?xml version="1.0" encoding="UTF-8" standalone="no"?>
<!DOCTYPE svg PUBLIC "-//W3C//DTD SVG 1.1//EN"
 "http://www.w3.org/Graphics/SVG/1.1/DTD/svg11.dtd">
<!-- Generated by graphviz version 2.43.0 (0)
 -->
<!-- Title: include/S3Action.hpp Pages: 1 -->
<svg width="216pt" height="140pt"
 viewBox="0.00 0.00 216.00 140.00" xmlns="http://www.w3.org/2000/svg" xmlns:xlink="http://www.w3.org/1999/xlink">
<g id="graph0" class="graph" transform="scale(1 1) rotate(0) translate(4 136)">
<title>include/S3Action.hpp</title>
<polygon fill="white" stroke="transparent" points="-4,4 -4,-136 212,-136 212,4 -4,4"/>
<!-- Node1 -->
<g id="node1" class="node">
<title>Node1</title>
<g id="a_node1"><a xlink:title="Calculate S3 bulk actions on 3D Delaunay Triangulations.">
<polygon fill="#bfbfbf" stroke="black" points="26.5,-112.5 26.5,-131.5 145.5,-131.5 145.5,-112.5 26.5,-112.5"/>
<text text-anchor="middle" x="86" y="-119.5" font-family="Helvetica,sans-Serif" font-size="10.00">include/S3Action.hpp</text>
</a>
</g>
</g>
<!-- Node2 -->
<g id="node2" class="node">
<title>Node2</title>
<g id="a_node2"><a xlink:title=" ">
<polygon fill="white" stroke="#bfbfbf" points="22,-56.5 22,-75.5 70,-75.5 70,-56.5 22,-56.5"/>
<text text-anchor="middle" x="46" y="-63.5" font-family="Helvetica,sans-Serif" font-size="10.00">mpfr.h</text>
</a>
</g>
</g>
<!-- Node1&#45;&gt;Node2 -->
<g id="edge1" class="edge">
<title>Node1&#45;&gt;Node2</title>
<path fill="none" stroke="midnightblue" d="M79.39,-112.08C73.74,-104.46 65.46,-93.26 58.55,-83.94"/>
<polygon fill="midnightblue" stroke="midnightblue" points="61.25,-81.7 52.48,-75.75 55.62,-85.87 61.25,-81.7"/>
</g>
<!-- Node3 -->
<g id="node3" class="node">
<title>Node3</title>
<g id="a_node3"><a xlink:href="_settings_8hpp.html" target="_top" xlink:title="Global integer and precision settings.">
<polygon fill="white" stroke="black" points="88.5,-56.5 88.5,-75.5 165.5,-75.5 165.5,-56.5 88.5,-56.5"/>
<text text-anchor="middle" x="127" y="-63.5" font-family="Helvetica,sans-Serif" font-size="10.00">Settings.hpp</text>
</a>
</g>
</g>
<!-- Node1&#45;&gt;Node3 -->
<g id="edge2" class="edge">
<title>Node1&#45;&gt;Node3</title>
<path fill="none" stroke="midnightblue" d="M92.77,-112.08C98.56,-104.46 107.06,-93.26 114.14,-83.94"/>
<polygon fill="midnightblue" stroke="midnightblue" points="117.1,-85.83 120.36,-75.75 111.52,-81.6 117.1,-85.83"/>
</g>
<!-- Node4 -->
<g id="node4" class="node">
<title>Node4</title>
<g id="a_node4"><a xlink:title=" ">
<polygon fill="white" stroke="#bfbfbf" points="0,-0.5 0,-19.5 140,-19.5 140,-0.5 0,-0.5"/>
<text text-anchor="middle" x="70" y="-7.5" font-family="Helvetica,sans-Serif" font-size="10.00">CGAL/GMP/Gmpzf_type.h</text>
</a>
</g>
</g>
<!-- Node3&#45;&gt;Node4 -->
<g id="edge3" class="edge">
<title>Node3&#45;&gt;Node4</title>
<path fill="none" stroke="midnightblue" d="M117.84,-56.32C109.5,-48.42 96.97,-36.55 86.82,-26.94"/>
<polygon fill="midnightblue" stroke="midnightblue" points="88.99,-24.17 79.32,-19.83 84.18,-29.25 88.99,-24.17"/>
</g>
<!-- Node5 -->
<g id="node5" class="node">
<title>Node5</title>
<g id="a_node5"><a xlink:title=" ">
<polygon fill="white" stroke="#bfbfbf" points="158,-0.5 158,-19.5 208,-19.5 208,-0.5 158,-0.5"/>
<text text-anchor="middle" x="183" y="-7.5" font-family="Helvetica,sans-Serif" font-size="10.00">cstdint</text>
</a>
</g>
</g>
<!-- Node3&#45;&gt;Node5 -->
<g id="edge4" class="edge">
<title>Node3&#45;&gt;Node5</title>
<path fill="none" stroke="midnightblue" d="M136,-56.32C144.19,-48.42 156.51,-36.55 166.47,-26.94"/>
<polygon fill="midnightblue" stroke="midnightblue" points="169.07,-29.29 173.84,-19.83 164.21,-24.26 169.07,-29.29"/>
</g>
</g>
</svg>
