<?xml version="1.0" encoding="UTF-8" standalone="no"?>
<!DOCTYPE svg PUBLIC "-//W3C//DTD SVG 1.1//EN"
 "http://www.w3.org/Graphics/SVG/1.1/DTD/svg11.dtd">
<!-- Generated by graphviz version 2.40.1 (20161225.0304)
 -->
<!-- Title: include/S3Action.hpp Pages: 1 -->
<svg width="263pt" height="140pt"
 viewBox="0.00 0.00 263.00 140.00" xmlns="http://www.w3.org/2000/svg" xmlns:xlink="http://www.w3.org/1999/xlink">
<g id="graph0" class="graph" transform="scale(1 1) rotate(0) translate(4 136)">
<title>include/S3Action.hpp</title>
<polygon fill="#ffffff" stroke="transparent" points="-4,4 -4,-136 259,-136 259,4 -4,4"/>
<!-- Node0 -->
<g id="node1" class="node">
<title>Node0</title>
<polygon fill="#bfbfbf" stroke="#000000" points="106.5,-112.5 106.5,-131.5 225.5,-131.5 225.5,-112.5 106.5,-112.5"/>
<text text-anchor="middle" x="166" y="-119.5" font-family="Helvetica,sans-Serif" font-size="10.00" fill="#000000">include/S3Action.hpp</text>
</g>
<!-- Node1 -->
<g id="node2" class="node">
<title>Node1</title>
<g id="a_node2"><a xlink:href="_settings_8hpp.html" target="_top" xlink:title="Global integer and precision settings. ">
<polygon fill="#ffffff" stroke="#000000" points="47.5,-56.5 47.5,-75.5 124.5,-75.5 124.5,-56.5 47.5,-56.5"/>
<text text-anchor="middle" x="86" y="-63.5" font-family="Helvetica,sans-Serif" font-size="10.00" fill="#000000">Settings.hpp</text>
</a>
</g>
</g>
<!-- Node0&#45;&gt;Node1 -->
<g id="edge1" class="edge">
<title>Node0&#45;&gt;Node1</title>
<path fill="none" stroke="#191970" d="M152.0651,-112.2455C139.9053,-103.7337 122.0536,-91.2375 107.9715,-81.3801"/>
<polygon fill="#191970" stroke="#191970" points="109.9747,-78.51 99.7752,-75.6427 105.9605,-84.2447 109.9747,-78.51"/>
</g>
<!-- Node4 -->
<g id="node5" class="node">
<title>Node4</title>
<polygon fill="#ffffff" stroke="#bfbfbf" points="143,-56.5 143,-75.5 189,-75.5 189,-56.5 143,-56.5"/>
<text text-anchor="middle" x="166" y="-63.5" font-family="Helvetica,sans-Serif" font-size="10.00" fill="#000000">cstdio</text>
</g>
<!-- Node0&#45;&gt;Node4 -->
<g id="edge4" class="edge">
<title>Node0&#45;&gt;Node4</title>
<path fill="none" stroke="#191970" d="M166,-112.2455C166,-104.9382 166,-94.6944 166,-85.7046"/>
<polygon fill="#191970" stroke="#191970" points="169.5001,-85.6426 166,-75.6427 162.5001,-85.6427 169.5001,-85.6426"/>
</g>
<!-- Node5 -->
<g id="node6" class="node">
<title>Node5</title>
<polygon fill="#ffffff" stroke="#bfbfbf" points="207,-56.5 207,-75.5 255,-75.5 255,-56.5 207,-56.5"/>
<text text-anchor="middle" x="231" y="-63.5" font-family="Helvetica,sans-Serif" font-size="10.00" fill="#000000">mpfr.h</text>
</g>
<!-- Node0&#45;&gt;Node5 -->
<g id="edge5" class="edge">
<title>Node0&#45;&gt;Node5</title>
<path fill="none" stroke="#191970" d="M177.3221,-112.2455C186.9223,-103.9746 200.8892,-91.9416 212.1695,-82.2232"/>
<polygon fill="#191970" stroke="#191970" points="214.516,-84.8214 219.8076,-75.6427 209.947,-79.5182 214.516,-84.8214"/>
</g>
<!-- Node2 -->
<g id="node3" class="node">
<title>Node2</title>
<polygon fill="#ffffff" stroke="#bfbfbf" points="0,-.5 0,-19.5 86,-19.5 86,-.5 0,-.5"/>
<text text-anchor="middle" x="43" y="-7.5" font-family="Helvetica,sans-Serif" font-size="10.00" fill="#000000">CGAL/Gmpzf.h</text>
</g>
<!-- Node1&#45;&gt;Node2 -->
<g id="edge2" class="edge">
<title>Node1&#45;&gt;Node2</title>
<path fill="none" stroke="#191970" d="M78.51,-56.2455C72.4674,-48.3761 63.8097,-37.101 56.5559,-27.6542"/>
<polygon fill="#191970" stroke="#191970" points="59.2705,-25.4426 50.4042,-19.6427 53.7185,-29.7058 59.2705,-25.4426"/>
</g>
<!-- Node3 -->
<g id="node4" class="node">
<title>Node3</title>
<polygon fill="#ffffff" stroke="#bfbfbf" points="104,-.5 104,-19.5 154,-19.5 154,-.5 104,-.5"/>
<text text-anchor="middle" x="129" y="-7.5" font-family="Helvetica,sans-Serif" font-size="10.00" fill="#000000">cstdint</text>
</g>
<!-- Node1&#45;&gt;Node3 -->
<g id="edge3" class="edge">
<title>Node1&#45;&gt;Node3</title>
<path fill="none" stroke="#191970" d="M93.49,-56.2455C99.5326,-48.3761 108.1903,-37.101 115.4441,-27.6542"/>
<polygon fill="#191970" stroke="#191970" points="118.2815,-29.7058 121.5958,-19.6427 112.7295,-25.4426 118.2815,-29.7058"/>
</g>
</g>
</svg>
