<?xml version="1.0" encoding="UTF-8" standalone="no"?>
<!DOCTYPE svg PUBLIC "-//W3C//DTD SVG 1.1//EN"
 "http://www.w3.org/Graphics/SVG/1.1/DTD/svg11.dtd">
<!-- Generated by graphviz version 2.43.0 (0)
 -->
<!-- Title: include/S3Action.hpp Pages: 1 -->
<svg width="444pt" height="192pt"
 viewBox="0.00 0.00 443.50 192.00" xmlns="http://www.w3.org/2000/svg" xmlns:xlink="http://www.w3.org/1999/xlink">
<g id="graph0" class="graph" transform="scale(1 1) rotate(0) translate(4 188)">
<title>include/S3Action.hpp</title>
<!-- Node1 -->
<g id="node1" class="node">
<title>Node1</title>
<g id="a_node1"><a xlink:title="Calculate S3 bulk actions on 3D Delaunay Triangulations.">
<polygon fill="#999999" stroke="#666666" points="160,-184 41,-184 41,-165 160,-165 160,-184"/>
<text text-anchor="middle" x="100.5" y="-172" font-family="Helvetica,sans-Serif" font-size="10.00">include/S3Action.hpp</text>
</a>
</g>
</g>
<!-- Node2 -->
<g id="node2" class="node">
<title>Node2</title>
<g id="a_node2"><a xlink:title=" ">
<polygon fill="#e0e0e0" stroke="#999999" points="47,-129 0,-129 0,-110 47,-110 47,-129"/>
<text text-anchor="middle" x="23.5" y="-117" font-family="Helvetica,sans-Serif" font-size="10.00">cmath</text>
</a>
</g>
</g>
<!-- Node1&#45;&gt;Node2 -->
<g id="edge1" class="edge">
<title>Node1&#45;&gt;Node2</title>
<path fill="none" stroke="#63b8ff" d="M88.13,-164.98C76.41,-156.92 58.58,-144.65 44.61,-135.03"/>
<polygon fill="#63b8ff" stroke="#63b8ff" points="46.32,-131.96 36.1,-129.17 42.35,-137.72 46.32,-131.96"/>
</g>
<!-- Node3 -->
<g id="node3" class="node">
<title>Node3</title>
<g id="a_node3"><a xlink:title=" ">
<polygon fill="#e0e0e0" stroke="#999999" points="108,-74 43,-74 43,-55 108,-55 108,-74"/>
<text text-anchor="middle" x="75.5" y="-62" font-family="Helvetica,sans-Serif" font-size="10.00">stdexcept</text>
</a>
</g>
</g>
<!-- Node1&#45;&gt;Node3 -->
<g id="edge2" class="edge">
<title>Node1&#45;&gt;Node3</title>
<path fill="none" stroke="#63b8ff" d="M98.45,-164.66C94.39,-147.09 85.21,-107.45 79.77,-83.95"/>
<polygon fill="#63b8ff" stroke="#63b8ff" points="83.17,-83.11 77.5,-74.16 76.35,-84.69 83.17,-83.11"/>
</g>
<!-- Node4 -->
<g id="node4" class="node">
<title>Node4</title>
<g id="a_node4"><a xlink:title=" ">
<polygon fill="#e0e0e0" stroke="#999999" points="149,-129 104,-129 104,-110 149,-110 149,-129"/>
<text text-anchor="middle" x="126.5" y="-117" font-family="Helvetica,sans-Serif" font-size="10.00">utility</text>
</a>
</g>
</g>
<!-- Node1&#45;&gt;Node4 -->
<g id="edge3" class="edge">
<title>Node1&#45;&gt;Node4</title>
<path fill="none" stroke="#63b8ff" d="M104.79,-164.75C108.31,-157.57 113.41,-147.18 117.78,-138.27"/>
<polygon fill="#63b8ff" stroke="#63b8ff" points="121.02,-139.61 122.29,-129.09 114.74,-136.53 121.02,-139.61"/>
</g>
<!-- Node5 -->
<g id="node5" class="node">
<title>Node5</title>
<g id="a_node5"><a xlink:href="_mpfr__value_8hpp.html" target="_top" xlink:title="Scope&#45;owned, value&#45;returning MPFR operations.">
<polygon fill="white" stroke="#666666" points="259.5,-129 167.5,-129 167.5,-110 259.5,-110 259.5,-129"/>
<text text-anchor="middle" x="213.5" y="-117" font-family="Helvetica,sans-Serif" font-size="10.00">Mpfr_value.hpp</text>
</a>
</g>
</g>
<!-- Node1&#45;&gt;Node5 -->
<g id="edge4" class="edge">
<title>Node1&#45;&gt;Node5</title>
<path fill="none" stroke="#63b8ff" d="M118.66,-164.98C136.75,-156.5 164.78,-143.35 185.69,-133.54"/>
<polygon fill="#63b8ff" stroke="#63b8ff" points="187.45,-136.59 195.01,-129.17 184.47,-130.25 187.45,-136.59"/>
</g>
<!-- Node5&#45;&gt;Node3 -->
<g id="edge6" class="edge">
<title>Node5&#45;&gt;Node3</title>
<path fill="none" stroke="#63b8ff" d="M191.33,-109.98C168.73,-101.3 133.44,-87.75 107.75,-77.88"/>
<polygon fill="#63b8ff" stroke="#63b8ff" points="108.67,-74.49 98.08,-74.17 106.16,-81.02 108.67,-74.49"/>
</g>
<!-- Node6 -->
<g id="node6" class="node">
<title>Node6</title>
<g id="a_node6"><a xlink:title=" ">
<polygon fill="#e0e0e0" stroke="#999999" points="211,-74 126,-74 126,-55 211,-55 211,-74"/>
<text text-anchor="middle" x="168.5" y="-62" font-family="Helvetica,sans-Serif" font-size="10.00">CGAL/Gmpfr.h</text>
</a>
</g>
</g>
<!-- Node5&#45;&gt;Node6 -->
<g id="edge5" class="edge">
<title>Node5&#45;&gt;Node6</title>
<path fill="none" stroke="#63b8ff" d="M206.07,-109.75C199.65,-102.18 190.19,-91.05 182.38,-81.84"/>
<polygon fill="#63b8ff" stroke="#63b8ff" points="184.93,-79.45 175.79,-74.09 179.6,-83.98 184.93,-79.45"/>
</g>
<!-- Node7 -->
<g id="node7" class="node">
<title>Node7</title>
<g id="a_node7"><a xlink:title=" ">
<polygon fill="#e0e0e0" stroke="#999999" points="298,-74 229,-74 229,-55 298,-55 298,-74"/>
<text text-anchor="middle" x="263.5" y="-62" font-family="Helvetica,sans-Serif" font-size="10.00">type_traits</text>
</a>
</g>
</g>
<!-- Node5&#45;&gt;Node7 -->
<g id="edge7" class="edge">
<title>Node5&#45;&gt;Node7</title>
<path fill="none" stroke="#63b8ff" d="M221.76,-109.75C228.96,-102.11 239.61,-90.82 248.35,-81.56"/>
<polygon fill="#63b8ff" stroke="#63b8ff" points="251.08,-83.76 255.4,-74.09 245.99,-78.96 251.08,-83.76"/>
</g>
<!-- Node8 -->
<g id="node8" class="node">
<title>Node8</title>
<g id="a_node8"><a xlink:href="_settings_8hpp.html" target="_top" xlink:title="Global integer and precision settings.">
<polygon fill="white" stroke="#666666" points="393,-74 316,-74 316,-55 393,-55 393,-74"/>
<text text-anchor="middle" x="354.5" y="-62" font-family="Helvetica,sans-Serif" font-size="10.00">Settings.hpp</text>
</a>
</g>
</g>
<!-- Node5&#45;&gt;Node8 -->
<g id="edge8" class="edge">
<title>Node5&#45;&gt;Node8</title>
<path fill="none" stroke="#63b8ff" d="M236.15,-109.98C259.35,-101.27 295.62,-87.63 321.9,-77.75"/>
<polygon fill="#63b8ff" stroke="#63b8ff" points="323.3,-80.97 331.43,-74.17 320.84,-74.41 323.3,-80.97"/>
</g>
<!-- Node9 -->
<g id="node9" class="node">
<title>Node9</title>
<g id="a_node9"><a xlink:title=" ">
<polygon fill="#e0e0e0" stroke="#999999" points="367.5,-19 227.5,-19 227.5,0 367.5,0 367.5,-19"/>
<text text-anchor="middle" x="297.5" y="-7" font-family="Helvetica,sans-Serif" font-size="10.00">CGAL/GMP/Gmpzf_type.h</text>
</a>
</g>
</g>
<!-- Node8&#45;&gt;Node9 -->
<g id="edge9" class="edge">
<title>Node8&#45;&gt;Node9</title>
<path fill="none" stroke="#63b8ff" d="M345.34,-54.98C337,-47.23 324.47,-35.58 314.32,-26.14"/>
<polygon fill="#63b8ff" stroke="#63b8ff" points="316.53,-23.42 306.82,-19.17 311.76,-28.54 316.53,-23.42"/>
</g>
<!-- Node10 -->
<g id="node10" class="node">
<title>Node10</title>
<g id="a_node10"><a xlink:title=" ">
<polygon fill="#e0e0e0" stroke="#999999" points="435.5,-19 385.5,-19 385.5,0 435.5,0 435.5,-19"/>
<text text-anchor="middle" x="410.5" y="-7" font-family="Helvetica,sans-Serif" font-size="10.00">cstdint</text>
</a>
</g>
</g>
<!-- Node8&#45;&gt;Node10 -->
<g id="edge10" class="edge">
<title>Node8&#45;&gt;Node10</title>
<path fill="none" stroke="#63b8ff" d="M363.5,-54.98C371.69,-47.23 384.01,-35.58 393.97,-26.14"/>
<polygon fill="#63b8ff" stroke="#63b8ff" points="396.48,-28.59 401.34,-19.17 391.67,-23.5 396.48,-28.59"/>
</g>
</g>
</svg>
