<?xml version="1.0" encoding="UTF-8" standalone="no"?>
<!DOCTYPE svg PUBLIC "-//W3C//DTD SVG 1.1//EN"
 "http://www.w3.org/Graphics/SVG/1.1/DTD/svg11.dtd">
<!-- Generated by graphviz version 2.40.1 (20161225.0304)
 -->
<!-- Title: include/S3Triangulation.hpp Pages: 1 -->
<svg width="1739pt" height="218pt"
 viewBox="0.00 0.00 1738.50 218.00" xmlns="http://www.w3.org/2000/svg" xmlns:xlink="http://www.w3.org/1999/xlink">
<g id="graph0" class="graph" transform="scale(1 1) rotate(0) translate(4 214)">
<title>include/S3Triangulation.hpp</title>
<polygon fill="#ffffff" stroke="transparent" points="-4,4 -4,-214 1734.5,-214 1734.5,4 -4,4"/>
<!-- Node0 -->
<g id="node1" class="node">
<title>Node0</title>
<polygon fill="#bfbfbf" stroke="#000000" points="839.5,-190.5 839.5,-209.5 990.5,-209.5 990.5,-190.5 839.5,-190.5"/>
<text text-anchor="middle" x="915" y="-197.5" font-family="Helvetica,sans-Serif" font-size="10.00" fill="#000000">include/S3Triangulation.hpp</text>
</g>
<!-- Node1 -->
<g id="node2" class="node">
<title>Node1</title>
<polygon fill="#ffffff" stroke="#bfbfbf" points="0,-123.5 0,-142.5 180,-142.5 180,-123.5 0,-123.5"/>
<text text-anchor="middle" x="90" y="-130.5" font-family="Helvetica,sans-Serif" font-size="10.00" fill="#000000">CGAL/Delaunay_triangulation_3.h</text>
</g>
<!-- Node0&#45;&gt;Node1 -->
<g id="edge1" class="edge">
<title>Node0&#45;&gt;Node1</title>
<path fill="none" stroke="#191970" d="M839.3895,-198.8317C707.0023,-195.98 424.8619,-186.3124 189,-154 172.5786,-151.7503 154.8164,-148.307 138.9314,-144.8553"/>
<polygon fill="#191970" stroke="#191970" points="139.3184,-141.3558 128.7967,-142.5982 137.7967,-148.1884 139.3184,-141.3558"/>
</g>
<!-- Node2 -->
<g id="node3" class="node">
<title>Node2</title>
<polygon fill="#ffffff" stroke="#bfbfbf" points="198.5,-112.5 198.5,-153.5 327.5,-153.5 327.5,-112.5 198.5,-112.5"/>
<text text-anchor="start" x="206.5" y="-141.5" font-family="Helvetica,sans-Serif" font-size="10.00" fill="#000000">CGAL/Exact_predicates</text>
<text text-anchor="start" x="206.5" y="-130.5" font-family="Helvetica,sans-Serif" font-size="10.00" fill="#000000">_inexact_constructions</text>
<text text-anchor="middle" x="263" y="-119.5" font-family="Helvetica,sans-Serif" font-size="10.00" fill="#000000">_kernel.h</text>
</g>
<!-- Node0&#45;&gt;Node2 -->
<g id="edge2" class="edge">
<title>Node0&#45;&gt;Node2</title>
<path fill="none" stroke="#191970" d="M839.1106,-198.7135C730.0002,-195.8122 522.542,-186.3721 337.7021,-153.934"/>
<polygon fill="#191970" stroke="#191970" points="338.2615,-150.4787 327.8027,-152.1706 337.0339,-157.3702 338.2615,-150.4787"/>
</g>
<!-- Node3 -->
<g id="node4" class="node">
<title>Node3</title>
<polygon fill="#ffffff" stroke="#bfbfbf" points="346,-118 346,-148 484,-148 484,-118 346,-118"/>
<text text-anchor="start" x="354" y="-136" font-family="Helvetica,sans-Serif" font-size="10.00" fill="#000000">CGAL/Triangulation</text>
<text text-anchor="middle" x="415" y="-125" font-family="Helvetica,sans-Serif" font-size="10.00" fill="#000000">_cell_base_with_info_3.h</text>
</g>
<!-- Node0&#45;&gt;Node3 -->
<g id="edge3" class="edge">
<title>Node0&#45;&gt;Node3</title>
<path fill="none" stroke="#191970" d="M839.3981,-195.2929C754.5509,-189.1929 613.0521,-176.5641 493,-154 487.5731,-152.98 481.9704,-151.777 476.3743,-150.4714"/>
<polygon fill="#191970" stroke="#191970" points="476.8923,-146.9952 466.3479,-148.0278 475.2348,-153.7962 476.8923,-146.9952"/>
</g>
<!-- Node4 -->
<g id="node5" class="node">
<title>Node4</title>
<polygon fill="#ffffff" stroke="#bfbfbf" points="502,-118 502,-148 654,-148 654,-118 502,-118"/>
<text text-anchor="start" x="510" y="-136" font-family="Helvetica,sans-Serif" font-size="10.00" fill="#000000">CGAL/Triangulation</text>
<text text-anchor="middle" x="578" y="-125" font-family="Helvetica,sans-Serif" font-size="10.00" fill="#000000">_vertex_base_with_info_3.h</text>
</g>
<!-- Node0&#45;&gt;Node4 -->
<g id="edge4" class="edge">
<title>Node0&#45;&gt;Node4</title>
<path fill="none" stroke="#191970" d="M857.742,-190.4841C806.7458,-181.7765 730.1795,-168.1318 664,-154 658.6454,-152.8566 653.1157,-151.6248 647.5633,-150.3512"/>
<polygon fill="#191970" stroke="#191970" points="648.1107,-146.8851 637.5773,-148.0239 646.5219,-153.7024 648.1107,-146.8851"/>
</g>
<!-- Node5 -->
<g id="node6" class="node">
<title>Node5</title>
<polygon fill="#ffffff" stroke="#bfbfbf" points="672.5,-123.5 672.5,-142.5 821.5,-142.5 821.5,-123.5 672.5,-123.5"/>
<text text-anchor="middle" x="747" y="-130.5" font-family="Helvetica,sans-Serif" font-size="10.00" fill="#000000">CGAL/point_generators_3.h</text>
</g>
<!-- Node0&#45;&gt;Node5 -->
<g id="edge5" class="edge">
<title>Node0&#45;&gt;Node5</title>
<path fill="none" stroke="#191970" d="M890.9297,-190.4005C861.987,-178.8579 813.2379,-159.4163 780.5983,-146.3993"/>
<polygon fill="#191970" stroke="#191970" points="781.6108,-143.0351 771.0257,-142.5817 779.0177,-149.5371 781.6108,-143.0351"/>
</g>
<!-- Node6 -->
<g id="node7" class="node">
<title>Node6</title>
<g id="a_node7"><a xlink:href="_utilities_8hpp.html" target="_top" xlink:title="Utility functions. ">
<polygon fill="#ffffff" stroke="#000000" points="877,-123.5 877,-142.5 953,-142.5 953,-123.5 877,-123.5"/>
<text text-anchor="middle" x="915" y="-130.5" font-family="Helvetica,sans-Serif" font-size="10.00" fill="#000000">Utilities.hpp</text>
</a>
</g>
</g>
<!-- Node0&#45;&gt;Node6 -->
<g id="edge6" class="edge">
<title>Node0&#45;&gt;Node6</title>
<path fill="none" stroke="#191970" d="M915,-190.4005C915,-180.649 915,-165.2597 915,-152.8695"/>
<polygon fill="#191970" stroke="#191970" points="918.5001,-152.5816 915,-142.5817 911.5001,-152.5817 918.5001,-152.5816"/>
</g>
<!-- Node10 -->
<g id="node11" class="node">
<title>Node10</title>
<polygon fill="#ffffff" stroke="#bfbfbf" points="110,-56.5 110,-75.5 174,-75.5 174,-56.5 110,-56.5"/>
<text text-anchor="middle" x="142" y="-63.5" font-family="Helvetica,sans-Serif" font-size="10.00" fill="#000000">algorithm</text>
</g>
<!-- Node0&#45;&gt;Node10 -->
<g id="edge28" class="edge">
<title>Node0&#45;&gt;Node10</title>
<path fill="none" stroke="#191970" d="M904.7001,-190.341C895.0309,-181.1756 880.2599,-166.9204 868,-154 850.8767,-135.9541 853.3782,-122.8666 831,-112 704.0519,-50.3555 341.6847,-95.1578 184.1914,-75.7948"/>
<polygon fill="#191970" stroke="#191970" points="184.499,-72.3045 174.1185,-74.4248 183.5556,-79.2407 184.499,-72.3045"/>
</g>
<!-- Node18 -->
<g id="node19" class="node">
<title>Node18</title>
<polygon fill="#ffffff" stroke="#bfbfbf" points="1665.5,-56.5 1665.5,-75.5 1730.5,-75.5 1730.5,-56.5 1665.5,-56.5"/>
<text text-anchor="middle" x="1698" y="-63.5" font-family="Helvetica,sans-Serif" font-size="10.00" fill="#000000">stdexcept</text>
</g>
<!-- Node0&#45;&gt;Node18 -->
<g id="edge31" class="edge">
<title>Node0&#45;&gt;Node18</title>
<path fill="none" stroke="#191970" d="M925.2609,-190.3037C934.9024,-181.112 949.6548,-166.8389 962,-154 979.4477,-135.8545 977.2791,-122.837 1000,-112 1129.1404,-50.4049 1496.1278,-95.3881 1655.2572,-75.8963"/>
<polygon fill="#191970" stroke="#191970" points="1655.9941,-79.3285 1665.4335,-74.5173 1655.0541,-72.3919 1655.9941,-79.3285"/>
</g>
<!-- Node28 -->
<g id="node29" class="node">
<title>Node28</title>
<polygon fill="#ffffff" stroke="#bfbfbf" points="1009,-123.5 1009,-142.5 1067,-142.5 1067,-123.5 1009,-123.5"/>
<text text-anchor="middle" x="1038" y="-130.5" font-family="Helvetica,sans-Serif" font-size="10.00" fill="#000000">memory</text>
</g>
<!-- Node0&#45;&gt;Node28 -->
<g id="edge29" class="edge">
<title>Node0&#45;&gt;Node28</title>
<path fill="none" stroke="#191970" d="M932.6229,-190.4005C953.2651,-179.1564 987.668,-160.4166 1011.524,-147.4219"/>
<polygon fill="#191970" stroke="#191970" points="1013.3023,-150.4388 1020.4098,-142.5817 1009.9538,-144.2916 1013.3023,-150.4388"/>
</g>
<!-- Node29 -->
<g id="node30" class="node">
<title>Node29</title>
<polygon fill="#ffffff" stroke="#bfbfbf" points="1085,-123.5 1085,-142.5 1117,-142.5 1117,-123.5 1085,-123.5"/>
<text text-anchor="middle" x="1101" y="-130.5" font-family="Helvetica,sans-Serif" font-size="10.00" fill="#000000">set</text>
</g>
<!-- Node0&#45;&gt;Node29 -->
<g id="edge30" class="edge">
<title>Node0&#45;&gt;Node29</title>
<path fill="none" stroke="#191970" d="M969.3611,-190.4276C1001.6327,-183.3197 1042.6289,-171.7346 1076,-154 1078.6278,-152.6035 1081.2293,-150.8965 1083.7046,-149.0652"/>
<polygon fill="#191970" stroke="#191970" points="1086.0117,-151.6992 1091.4898,-142.6305 1081.5521,-146.3036 1086.0117,-151.6992"/>
</g>
<!-- Node30 -->
<g id="node31" class="node">
<title>Node30</title>
<polygon fill="#ffffff" stroke="#bfbfbf" points="1135.5,-123.5 1135.5,-142.5 1176.5,-142.5 1176.5,-123.5 1135.5,-123.5"/>
<text text-anchor="middle" x="1156" y="-130.5" font-family="Helvetica,sans-Serif" font-size="10.00" fill="#000000">tuple</text>
</g>
<!-- Node0&#45;&gt;Node30 -->
<g id="edge32" class="edge">
<title>Node0&#45;&gt;Node30</title>
<path fill="none" stroke="#191970" d="M990.9789,-190.8762C1032.1669,-184.1129 1083.2408,-172.7213 1126,-154 1129.5271,-152.4557 1133.0643,-150.4668 1136.4095,-148.3301"/>
<polygon fill="#191970" stroke="#191970" points="1138.499,-151.1398 1144.6771,-142.5327 1134.48,-145.4084 1138.499,-151.1398"/>
</g>
<!-- Node31 -->
<g id="node32" class="node">
<title>Node31</title>
<polygon fill="#ffffff" stroke="#bfbfbf" points="1194.5,-123.5 1194.5,-142.5 1239.5,-142.5 1239.5,-123.5 1194.5,-123.5"/>
<text text-anchor="middle" x="1217" y="-130.5" font-family="Helvetica,sans-Serif" font-size="10.00" fill="#000000">utility</text>
</g>
<!-- Node0&#45;&gt;Node31 -->
<g id="edge33" class="edge">
<title>Node0&#45;&gt;Node31</title>
<path fill="none" stroke="#191970" d="M990.6529,-195.8051C1046.342,-190.6788 1123.0034,-179.2914 1186,-154 1189.6535,-152.5332 1193.3133,-150.5852 1196.772,-148.4656"/>
<polygon fill="#191970" stroke="#191970" points="1199.0063,-151.1792 1205.315,-142.6673 1195.0752,-145.3872 1199.0063,-151.1792"/>
</g>
<!-- Node32 -->
<g id="node33" class="node">
<title>Node32</title>
<polygon fill="#ffffff" stroke="#bfbfbf" points="1257.5,-123.5 1257.5,-142.5 1304.5,-142.5 1304.5,-123.5 1257.5,-123.5"/>
<text text-anchor="middle" x="1281" y="-130.5" font-family="Helvetica,sans-Serif" font-size="10.00" fill="#000000">vector</text>
</g>
<!-- Node0&#45;&gt;Node32 -->
<g id="edge34" class="edge">
<title>Node0&#45;&gt;Node32</title>
<path fill="none" stroke="#191970" d="M990.6946,-193.4805C1074.2777,-185.595 1203.1002,-171.2145 1249,-154 1252.947,-152.5197 1256.9028,-150.4835 1260.6207,-148.2579"/>
<polygon fill="#191970" stroke="#191970" points="1262.8349,-150.9891 1269.2321,-142.5436 1258.9645,-145.1564 1262.8349,-150.9891"/>
</g>
<!-- Node7 -->
<g id="node8" class="node">
<title>Node7</title>
<polygon fill="#ffffff" stroke="#bfbfbf" points="192.5,-56.5 192.5,-75.5 275.5,-75.5 275.5,-56.5 192.5,-56.5"/>
<text text-anchor="middle" x="234" y="-63.5" font-family="Helvetica,sans-Serif" font-size="10.00" fill="#000000">CGAL/Timer.h</text>
</g>
<!-- Node6&#45;&gt;Node7 -->
<g id="edge7" class="edge">
<title>Node6&#45;&gt;Node7</title>
<path fill="none" stroke="#191970" d="M895.7267,-123.4871C886.1276,-119.2011 874.2042,-114.5409 863,-112 615.1739,-55.7974 542.1334,-107.4862 285.6611,-75.8952"/>
<polygon fill="#191970" stroke="#191970" points="286.0354,-72.4147 275.6758,-74.6348 285.1587,-79.3596 286.0354,-72.4147"/>
</g>
<!-- Node8 -->
<g id="node9" class="node">
<title>Node8</title>
<polygon fill="#ffffff" stroke="#bfbfbf" points="294,-56.5 294,-75.5 382,-75.5 382,-56.5 294,-56.5"/>
<text text-anchor="middle" x="338" y="-63.5" font-family="Helvetica,sans-Serif" font-size="10.00" fill="#000000">sys/utsname.h</text>
</g>
<!-- Node6&#45;&gt;Node8 -->
<g id="edge8" class="edge">
<title>Node6&#45;&gt;Node8</title>
<path fill="none" stroke="#191970" d="M895.2206,-123.3384C885.7041,-119.1285 873.9964,-114.5753 863,-112 661.7811,-64.8751 602.0414,-101.9546 392.2482,-75.8626"/>
<polygon fill="#191970" stroke="#191970" points="392.5064,-72.3672 382.1435,-74.5718 391.6194,-79.3108 392.5064,-72.3672"/>
</g>
<!-- Node9 -->
<g id="node10" class="node">
<title>Node9</title>
<polygon fill="#ffffff" stroke="#bfbfbf" points="400.5,-56.5 400.5,-75.5 517.5,-75.5 517.5,-56.5 400.5,-56.5"/>
<text text-anchor="middle" x="459" y="-63.5" font-family="Helvetica,sans-Serif" font-size="10.00" fill="#000000">boost/date_time.hpp</text>
</g>
<!-- Node6&#45;&gt;Node9 -->
<g id="edge9" class="edge">
<title>Node6&#45;&gt;Node9</title>
<path fill="none" stroke="#191970" d="M895.1843,-123.4883C885.6598,-119.3113 873.9559,-114.7424 863,-112 720.4372,-76.3142 677.8139,-94.1216 527.6351,-76.0104"/>
<polygon fill="#191970" stroke="#191970" points="527.94,-72.5215 517.5853,-74.7646 527.0787,-79.4684 527.94,-72.5215"/>
</g>
<!-- Node6&#45;&gt;Node10 -->
<g id="edge10" class="edge">
<title>Node6&#45;&gt;Node10</title>
<path fill="none" stroke="#191970" d="M895.7369,-123.4416C886.1402,-119.1449 874.2159,-114.4887 863,-112 570.859,-47.1761 484.3612,-118.4121 184.4207,-75.925"/>
<polygon fill="#191970" stroke="#191970" points="184.5157,-72.4023 174.1173,-74.4329 183.5124,-79.33 184.5157,-72.4023"/>
</g>
<!-- Node11 -->
<g id="node12" class="node">
<title>Node11</title>
<polygon fill="#ffffff" stroke="#bfbfbf" points="536,-56.5 536,-75.5 588,-75.5 588,-56.5 536,-56.5"/>
<text text-anchor="middle" x="562" y="-63.5" font-family="Helvetica,sans-Serif" font-size="10.00" fill="#000000">cassert</text>
</g>
<!-- Node6&#45;&gt;Node11 -->
<g id="edge11" class="edge">
<title>Node6&#45;&gt;Node11</title>
<path fill="none" stroke="#191970" d="M894.6535,-123.4123C885.213,-119.323 873.7278,-114.8472 863,-112 748.1176,-81.5101 714.4193,-99.9613 598,-76 597.9007,-75.9796 597.8013,-75.959 597.7018,-75.9383"/>
<polygon fill="#191970" stroke="#191970" points="598.779,-72.5957 588.2456,-73.7345 597.1901,-79.413 598.779,-72.5957"/>
</g>
<!-- Node12 -->
<g id="node13" class="node">
<title>Node12</title>
<polygon fill="#ffffff" stroke="#bfbfbf" points="606.5,-56.5 606.5,-75.5 655.5,-75.5 655.5,-56.5 606.5,-56.5"/>
<text text-anchor="middle" x="631" y="-63.5" font-family="Helvetica,sans-Serif" font-size="10.00" fill="#000000">cstdlib</text>
</g>
<!-- Node6&#45;&gt;Node12 -->
<g id="edge12" class="edge">
<title>Node6&#45;&gt;Node12</title>
<path fill="none" stroke="#191970" d="M894.0928,-123.4202C884.7367,-119.4314 873.4743,-115.0328 863,-112 780.1065,-87.9988 753.864,-96.0208 665.6916,-75.9354"/>
<polygon fill="#191970" stroke="#191970" points="666.335,-72.4916 655.801,-73.625 664.7426,-79.3081 666.335,-72.4916"/>
</g>
<!-- Node13 -->
<g id="node14" class="node">
<title>Node13</title>
<polygon fill="#ffffff" stroke="#bfbfbf" points="673.5,-56.5 673.5,-75.5 728.5,-75.5 728.5,-56.5 673.5,-56.5"/>
<text text-anchor="middle" x="701" y="-63.5" font-family="Helvetica,sans-Serif" font-size="10.00" fill="#000000">fstream</text>
</g>
<!-- Node6&#45;&gt;Node13 -->
<g id="edge13" class="edge">
<title>Node6&#45;&gt;Node13</title>
<path fill="none" stroke="#191970" d="M892.9294,-123.478C883.7559,-119.6801 872.9469,-115.4097 863,-112 840.0533,-104.134 778.7894,-87.1382 738.5233,-76.1534"/>
<polygon fill="#191970" stroke="#191970" points="739.3429,-72.7492 728.7747,-73.4993 737.5041,-79.5034 739.3429,-72.7492"/>
</g>
<!-- Node14 -->
<g id="node15" class="node">
<title>Node14</title>
<polygon fill="#ffffff" stroke="#bfbfbf" points="747,-56.5 747,-75.5 795,-75.5 795,-56.5 747,-56.5"/>
<text text-anchor="middle" x="771" y="-63.5" font-family="Helvetica,sans-Serif" font-size="10.00" fill="#000000">gsl/gsl</text>
</g>
<!-- Node6&#45;&gt;Node14 -->
<g id="edge14" class="edge">
<title>Node6&#45;&gt;Node14</title>
<path fill="none" stroke="#191970" d="M894.3683,-123.4005C869.8811,-112.0072 828.8532,-92.9178 800.8907,-79.9075"/>
<polygon fill="#191970" stroke="#191970" points="802.1366,-76.6269 791.5934,-75.5817 799.1836,-82.9736 802.1366,-76.6269"/>
</g>
<!-- Node15 -->
<g id="node16" class="node">
<title>Node15</title>
<polygon fill="#ffffff" stroke="#bfbfbf" points="813,-56.5 813,-75.5 873,-75.5 873,-56.5 813,-56.5"/>
<text text-anchor="middle" x="843" y="-63.5" font-family="Helvetica,sans-Serif" font-size="10.00" fill="#000000">iostream</text>
</g>
<!-- Node6&#45;&gt;Node15 -->
<g id="edge15" class="edge">
<title>Node6&#45;&gt;Node15</title>
<path fill="none" stroke="#191970" d="M904.6842,-123.4005C893.2425,-112.7535 874.5785,-95.3856 860.7727,-82.5385"/>
<polygon fill="#191970" stroke="#191970" points="863.0017,-79.8317 853.2967,-75.5817 858.2331,-84.9562 863.0017,-79.8317"/>
</g>
<!-- Node16 -->
<g id="node17" class="node">
<title>Node16</title>
<polygon fill="#ffffff" stroke="#bfbfbf" points="891,-56.5 891,-75.5 939,-75.5 939,-56.5 891,-56.5"/>
<text text-anchor="middle" x="915" y="-63.5" font-family="Helvetica,sans-Serif" font-size="10.00" fill="#000000">mutex</text>
</g>
<!-- Node6&#45;&gt;Node16 -->
<g id="edge16" class="edge">
<title>Node6&#45;&gt;Node16</title>
<path fill="none" stroke="#191970" d="M915,-123.4005C915,-113.649 915,-98.2597 915,-85.8695"/>
<polygon fill="#191970" stroke="#191970" points="918.5001,-85.5816 915,-75.5817 911.5001,-85.5817 918.5001,-85.5816"/>
</g>
<!-- Node17 -->
<g id="node18" class="node">
<title>Node17</title>
<polygon fill="#ffffff" stroke="#bfbfbf" points="957,-56.5 957,-75.5 1011,-75.5 1011,-56.5 957,-56.5"/>
<text text-anchor="middle" x="984" y="-63.5" font-family="Helvetica,sans-Serif" font-size="10.00" fill="#000000">random</text>
</g>
<!-- Node6&#45;&gt;Node17 -->
<g id="edge17" class="edge">
<title>Node6&#45;&gt;Node17</title>
<path fill="none" stroke="#191970" d="M924.886,-123.4005C935.7484,-112.853 953.4035,-95.7096 966.5957,-82.8998"/>
<polygon fill="#191970" stroke="#191970" points="969.3962,-85.059 974.1323,-75.5817 964.5198,-80.037 969.3962,-85.059"/>
</g>
<!-- Node6&#45;&gt;Node18 -->
<g id="edge18" class="edge">
<title>Node6&#45;&gt;Node18</title>
<path fill="none" stroke="#191970" d="M934.2622,-123.4379C943.8588,-119.1403 955.7832,-114.4844 967,-112 1263.5969,-46.3064 1351.2892,-118.9829 1655.4491,-75.9677"/>
<polygon fill="#191970" stroke="#191970" points="1656.0378,-79.4191 1665.4347,-74.5252 1655.0369,-72.491 1656.0378,-79.4191"/>
</g>
<!-- Node19 -->
<g id="node20" class="node">
<title>Node19</title>
<polygon fill="#ffffff" stroke="#bfbfbf" points="1029,-56.5 1029,-75.5 1073,-75.5 1073,-56.5 1029,-56.5"/>
<text text-anchor="middle" x="1051" y="-63.5" font-family="Helvetica,sans-Serif" font-size="10.00" fill="#000000">string</text>
</g>
<!-- Node6&#45;&gt;Node19 -->
<g id="edge19" class="edge">
<title>Node6&#45;&gt;Node19</title>
<path fill="none" stroke="#191970" d="M934.4855,-123.4005C957.5113,-112.0569 996.0228,-93.0844 1022.4232,-80.0783"/>
<polygon fill="#191970" stroke="#191970" points="1024.1269,-83.1407 1031.5507,-75.5817 1021.0334,-76.8613 1024.1269,-83.1407"/>
</g>
<!-- Node20 -->
<g id="node21" class="node">
<title>Node20</title>
<polygon fill="#ffffff" stroke="#bfbfbf" points="1091.5,-56.5 1091.5,-75.5 1156.5,-75.5 1156.5,-56.5 1091.5,-56.5"/>
<text text-anchor="middle" x="1124" y="-63.5" font-family="Helvetica,sans-Serif" font-size="10.00" fill="#000000">typeindex</text>
</g>
<!-- Node6&#45;&gt;Node20 -->
<g id="edge20" class="edge">
<title>Node6&#45;&gt;Node20</title>
<path fill="none" stroke="#191970" d="M937.3402,-123.4142C946.4607,-119.6489 957.1594,-115.4193 967,-112 1005.2507,-98.7091 1049.5908,-85.9549 1081.3742,-77.2619"/>
<polygon fill="#191970" stroke="#191970" points="1082.495,-80.5844 1091.2287,-74.5866 1080.661,-73.8289 1082.495,-80.5844"/>
</g>
<!-- Node21 -->
<g id="node22" class="node">
<title>Node21</title>
<polygon fill="#ffffff" stroke="#bfbfbf" points="1174.5,-56.5 1174.5,-75.5 1233.5,-75.5 1233.5,-56.5 1174.5,-56.5"/>
<text text-anchor="middle" x="1204" y="-63.5" font-family="Helvetica,sans-Serif" font-size="10.00" fill="#000000">date/tz.h</text>
</g>
<!-- Node6&#45;&gt;Node21 -->
<g id="edge21" class="edge">
<title>Node6&#45;&gt;Node21</title>
<path fill="none" stroke="#191970" d="M935.906,-123.4159C945.2618,-119.4262 956.5244,-115.0281 967,-112 1050.3094,-87.9183 1076.423,-94.9017 1164.3227,-76.2287"/>
<polygon fill="#191970" stroke="#191970" points="1165.1562,-79.6293 1174.183,-74.0826 1163.6674,-72.7895 1165.1562,-79.6293"/>
</g>
<!-- Node22 -->
<g id="node23" class="node">
<title>Node22</title>
<polygon fill="#ffffff" stroke="#bfbfbf" points="1252,-56.5 1252,-75.5 1350,-75.5 1350,-56.5 1252,-56.5"/>
<text text-anchor="middle" x="1301" y="-63.5" font-family="Helvetica,sans-Serif" font-size="10.00" fill="#000000">pcg_random.hpp</text>
</g>
<!-- Node6&#45;&gt;Node22 -->
<g id="edge22" class="edge">
<title>Node6&#45;&gt;Node22</title>
<path fill="none" stroke="#191970" d="M935.3395,-123.3859C944.7787,-119.2913 956.2646,-114.8186 967,-112 1083.4956,-81.4135 1118.8329,-93.8102 1241.7896,-76.1042"/>
<polygon fill="#191970" stroke="#191970" points="1242.5948,-79.5233 1251.9752,-74.5981 1241.5708,-72.5986 1242.5948,-79.5233"/>
</g>
<!-- Node23 -->
<g id="node24" class="node">
<title>Node23</title>
<polygon fill="#ffffff" stroke="#bfbfbf" points="1368.5,-56.5 1368.5,-75.5 1447.5,-75.5 1447.5,-56.5 1368.5,-56.5"/>
<text text-anchor="middle" x="1408" y="-63.5" font-family="Helvetica,sans-Serif" font-size="10.00" fill="#000000">fmt/format.h</text>
</g>
<!-- Node6&#45;&gt;Node23 -->
<g id="edge23" class="edge">
<title>Node6&#45;&gt;Node23</title>
<path fill="none" stroke="#191970" d="M934.7973,-123.4138C944.3178,-119.2204 956.0236,-114.6593 967,-112 1133.8811,-71.5682 1184.0618,-100.415 1358.4594,-75.9002"/>
<polygon fill="#191970" stroke="#191970" points="1359.0886,-79.3458 1368.4854,-74.4518 1358.0877,-72.4177 1359.0886,-79.3458"/>
</g>
<!-- Node24 -->
<g id="node25" class="node">
<title>Node24</title>
<polygon fill="#ffffff" stroke="#bfbfbf" points="1466,-56.5 1466,-75.5 1552,-75.5 1552,-56.5 1466,-56.5"/>
<text text-anchor="middle" x="1509" y="-63.5" font-family="Helvetica,sans-Serif" font-size="10.00" fill="#000000">fmt/ostream.h</text>
</g>
<!-- Node6&#45;&gt;Node24 -->
<g id="edge24" class="edge">
<title>Node6&#45;&gt;Node24</title>
<path fill="none" stroke="#191970" d="M934.776,-123.3239C944.2918,-119.1108 955.9998,-114.5591 967,-112 1176.4657,-63.2692 1238.6486,-103.4126 1455.8091,-75.9958"/>
<polygon fill="#191970" stroke="#191970" points="1456.4659,-79.44 1465.9329,-74.6832 1455.5658,-72.4981 1456.4659,-79.44"/>
</g>
<!-- Node25 -->
<g id="node26" class="node">
<title>Node25</title>
<g id="a_node26"><a xlink:href="_settings_8hpp.html" target="_top" xlink:title="Global integer and precision settings. ">
<polygon fill="#ffffff" stroke="#000000" points="1570.5,-56.5 1570.5,-75.5 1647.5,-75.5 1647.5,-56.5 1570.5,-56.5"/>
<text text-anchor="middle" x="1609" y="-63.5" font-family="Helvetica,sans-Serif" font-size="10.00" fill="#000000">Settings.hpp</text>
</a>
</g>
</g>
<!-- Node6&#45;&gt;Node25 -->
<g id="edge25" class="edge">
<title>Node6&#45;&gt;Node25</title>
<path fill="none" stroke="#191970" d="M934.2714,-123.4789C943.8701,-119.1911 955.7937,-114.5315 967,-112 1221.7083,-54.4603 1296.9449,-109.626 1560.0661,-75.9075"/>
<polygon fill="#191970" stroke="#191970" points="1560.8511,-79.3346 1570.3102,-74.5623 1559.9396,-72.3941 1560.8511,-79.3346"/>
</g>
<!-- Node26 -->
<g id="node27" class="node">
<title>Node26</title>
<polygon fill="#ffffff" stroke="#bfbfbf" points="1523,-.5 1523,-19.5 1609,-19.5 1609,-.5 1523,-.5"/>
<text text-anchor="middle" x="1566" y="-7.5" font-family="Helvetica,sans-Serif" font-size="10.00" fill="#000000">CGAL/Gmpzf.h</text>
</g>
<!-- Node25&#45;&gt;Node26 -->
<g id="edge26" class="edge">
<title>Node25&#45;&gt;Node26</title>
<path fill="none" stroke="#191970" d="M1601.51,-56.2455C1595.4674,-48.3761 1586.8097,-37.101 1579.5559,-27.6542"/>
<polygon fill="#191970" stroke="#191970" points="1582.2705,-25.4426 1573.4042,-19.6427 1576.7185,-29.7058 1582.2705,-25.4426"/>
</g>
<!-- Node27 -->
<g id="node28" class="node">
<title>Node27</title>
<polygon fill="#ffffff" stroke="#bfbfbf" points="1627,-.5 1627,-19.5 1677,-19.5 1677,-.5 1627,-.5"/>
<text text-anchor="middle" x="1652" y="-7.5" font-family="Helvetica,sans-Serif" font-size="10.00" fill="#000000">cstdint</text>
</g>
<!-- Node25&#45;&gt;Node27 -->
<g id="edge27" class="edge">
<title>Node25&#45;&gt;Node27</title>
<path fill="none" stroke="#191970" d="M1616.49,-56.2455C1622.5326,-48.3761 1631.1903,-37.101 1638.4441,-27.6542"/>
<polygon fill="#191970" stroke="#191970" points="1641.2815,-29.7058 1644.5958,-19.6427 1635.7295,-25.4426 1641.2815,-29.7058"/>
</g>
</g>
</svg>
