<?xml version="1.0" encoding="UTF-8" standalone="no"?>
<!DOCTYPE svg PUBLIC "-//W3C//DTD SVG 1.1//EN"
 "http://www.w3.org/Graphics/SVG/1.1/DTD/svg11.dtd">
<!-- Generated by graphviz version 2.43.0 (0)
 -->
<!-- Title: tests/S3Action_test.cpp Pages: 1 -->
<!--zoomable 379 -->
<svg id="main" version="1.1" xmlns="http://www.w3.org/2000/svg" xmlns:xlink="http://www.w3.org/1999/xlink" xml:space="preserve" onload="init(evt)">
<style type="text/css"><![CDATA[
.edge:hover path { stroke: red; }
.edge:hover polygon { stroke: red; fill: red; }
]]></style>
<script type="text/javascript"><![CDATA[
var edges = document.getElementsByTagName('g');
if (edges && edges.length) {
  for (var i=0;i<edges.length;i++) {
    if (edges[i].id.substr(0,4)=='edge') {
      edges[i].setAttribute('class','edge');
    }
  }
}
]]></script>
        <defs>
                <circle id="rim" cx="0" cy="0" r="7"/>
                <circle id="rim2" cx="0" cy="0" r="3.5"/>
                <g id="zoomPlus">
                        <use xlink:href="#rim" fill="#404040">
                                <set attributeName="fill" to="#808080" begin="zoomplus.mouseover" end="zoomplus.mouseout"/>
                        </use>
                        <path d="M-4,0h8M0,-4v8" fill="none" stroke="white" stroke-width="1.5" pointer-events="none"/>
                </g>
                <g id="zoomMin">
                        <use xlink:href="#rim" fill="#404040">
                                <set attributeName="fill" to="#808080" begin="zoomminus.mouseover" end="zoomminus.mouseout"/>
                        </use>
                        <path d="M-4,0h8" fill="none" stroke="white" stroke-width="1.5" pointer-events="none"/>
                </g>
                <g id="dirArrow">
                        <path fill="none" stroke="white" stroke-width="1.5" d="M0,-3.0v7 M-2.5,-0.5L0,-3.0L2.5,-0.5"/>
                </g>
               <g id="resetDef">
                       <use xlink:href="#rim2" fill="#404040">
                               <set attributeName="fill" to="#808080" begin="reset.mouseover" end="reset.mouseout"/>
                       </use>
               </g>
        </defs>

<script type="text/javascript">
var viewWidth = 2250;
var viewHeight = 379;
var sectionId = 'dynsection-0';
</script>
<script xlink:href="svgpan.js"/>
<svg id="graph" class="graph">
<g id="viewport">
<title>tests/S3Action_test.cpp</title>
<!-- Node1 -->
<g id="node1" class="node">
<title>Node1</title>
<g id="a_node1"><a xlink:title="Tests for the S3 action functions.">
<polygon fill="#999999" stroke="#666666" points="1616.5,-371 1485.5,-371 1485.5,-352 1616.5,-352 1616.5,-371"/>
<text text-anchor="middle" x="1551" y="-359" font-family="Helvetica,sans-Serif" font-size="10.00">tests/S3Action_test.cpp</text>
</a>
</g>
</g>
<!-- Node2 -->
<g id="node2" class="node">
<title>Node2</title>
<g id="a_node2"><a xlink:href="_s3_action_8hpp.html" target="_top" xlink:title="Calculate S3 bulk actions on 3D Delaunay Triangulations.">
<polygon fill="white" stroke="#666666" points="1456,-316 1376,-316 1376,-297 1456,-297 1456,-316"/>
<text text-anchor="middle" x="1416" y="-304" font-family="Helvetica,sans-Serif" font-size="10.00">S3Action.hpp</text>
</a>
</g>
</g>
<!-- Node1&#45;&gt;Node2 -->
<g id="edge1" class="edge">
<title>Node1&#45;&gt;Node2</title>
<path fill="none" stroke="#63b8ff" d="M1529.31,-351.98C1507.2,-343.3 1472.68,-329.75 1447.55,-319.88"/>
<polygon fill="#63b8ff" stroke="#63b8ff" points="1448.67,-316.57 1438.08,-316.17 1446.11,-323.08 1448.67,-316.57"/>
</g>
<!-- Node7 -->
<g id="node7" class="node">
<title>Node7</title>
<g id="a_node7"><a xlink:title=" ">
<polygon fill="#e0e0e0" stroke="#999999" points="1710.5,-316 1609.5,-316 1609.5,-297 1710.5,-297 1710.5,-316"/>
<text text-anchor="middle" x="1660" y="-304" font-family="Helvetica,sans-Serif" font-size="10.00">doctest/doctest.h</text>
</a>
</g>
</g>
<!-- Node1&#45;&gt;Node7 -->
<g id="edge6" class="edge">
<title>Node1&#45;&gt;Node7</title>
<path fill="none" stroke="#63b8ff" d="M1568.51,-351.98C1585.97,-343.5 1613.01,-330.35 1633.17,-320.54"/>
<polygon fill="#63b8ff" stroke="#63b8ff" points="1634.71,-323.69 1642.17,-316.17 1631.64,-317.4 1634.71,-323.69"/>
</g>
<!-- Node8 -->
<g id="node8" class="node">
<title>Node8</title>
<g id="a_node8"><a xlink:href="_manifold_8hpp.html" target="_top" xlink:title="Data structures for manifolds.">
<polygon fill="white" stroke="#666666" points="1591,-316 1511,-316 1511,-297 1591,-297 1591,-316"/>
<text text-anchor="middle" x="1551" y="-304" font-family="Helvetica,sans-Serif" font-size="10.00">Manifold.hpp</text>
</a>
</g>
</g>
<!-- Node1&#45;&gt;Node8 -->
<g id="edge7" class="edge">
<title>Node1&#45;&gt;Node8</title>
<path fill="none" stroke="#63b8ff" d="M1551,-351.75C1551,-344.8 1551,-334.85 1551,-326.13"/>
<polygon fill="#63b8ff" stroke="#63b8ff" points="1554.5,-326.09 1551,-316.09 1547.5,-326.09 1554.5,-326.09"/>
</g>
<!-- Node3 -->
<g id="node3" class="node">
<title>Node3</title>
<g id="a_node3"><a xlink:title=" ">
<polygon fill="#e0e0e0" stroke="#999999" points="1440,-261 1392,-261 1392,-242 1440,-242 1440,-261"/>
<text text-anchor="middle" x="1416" y="-249" font-family="Helvetica,sans-Serif" font-size="10.00">mpfr.h</text>
</a>
</g>
</g>
<!-- Node2&#45;&gt;Node3 -->
<g id="edge2" class="edge">
<title>Node2&#45;&gt;Node3</title>
<path fill="none" stroke="#63b8ff" d="M1416,-296.75C1416,-289.8 1416,-279.85 1416,-271.13"/>
<polygon fill="#63b8ff" stroke="#63b8ff" points="1419.5,-271.09 1416,-261.09 1412.5,-271.09 1419.5,-271.09"/>
</g>
<!-- Node4 -->
<g id="node4" class="node">
<title>Node4</title>
<g id="a_node4"><a xlink:href="_settings_8hpp.html" target="_top" xlink:title="Global integer and precision settings.">
<polygon fill="white" stroke="#666666" points="1402.5,-85 1325.5,-85 1325.5,-66 1402.5,-66 1402.5,-85"/>
<text text-anchor="middle" x="1364" y="-73" font-family="Helvetica,sans-Serif" font-size="10.00">Settings.hpp</text>
</a>
</g>
</g>
<!-- Node2&#45;&gt;Node4 -->
<g id="edge3" class="edge">
<title>Node2&#45;&gt;Node4</title>
<path fill="none" stroke="#63b8ff" d="M1407.31,-296.84C1399.5,-288.45 1388.43,-274.99 1383,-261 1360.8,-203.83 1361.12,-129.6 1362.73,-95.34"/>
<polygon fill="#63b8ff" stroke="#63b8ff" points="1366.23,-95.52 1363.3,-85.34 1359.24,-95.12 1366.23,-95.52"/>
</g>
<!-- Node5 -->
<g id="node5" class="node">
<title>Node5</title>
<g id="a_node5"><a xlink:title=" ">
<polygon fill="#e0e0e0" stroke="#999999" points="1377,-19 1237,-19 1237,0 1377,0 1377,-19"/>
<text text-anchor="middle" x="1307" y="-7" font-family="Helvetica,sans-Serif" font-size="10.00">CGAL/GMP/Gmpzf_type.h</text>
</a>
</g>
</g>
<!-- Node4&#45;&gt;Node5 -->
<g id="edge4" class="edge">
<title>Node4&#45;&gt;Node5</title>
<path fill="none" stroke="#63b8ff" d="M1356.31,-65.87C1347.52,-56 1332.93,-39.61 1321.89,-27.22"/>
<polygon fill="#63b8ff" stroke="#63b8ff" points="1324.2,-24.55 1314.93,-19.41 1318.97,-29.2 1324.2,-24.55"/>
</g>
<!-- Node6 -->
<g id="node6" class="node">
<title>Node6</title>
<g id="a_node6"><a xlink:title=" ">
<polygon fill="#e0e0e0" stroke="#999999" points="1445,-19 1395,-19 1395,0 1445,0 1445,-19"/>
<text text-anchor="middle" x="1420" y="-7" font-family="Helvetica,sans-Serif" font-size="10.00">cstdint</text>
</a>
</g>
</g>
<!-- Node4&#45;&gt;Node6 -->
<g id="edge5" class="edge">
<title>Node4&#45;&gt;Node6</title>
<path fill="none" stroke="#63b8ff" d="M1371.55,-65.87C1380.19,-56 1394.53,-39.61 1405.37,-27.22"/>
<polygon fill="#63b8ff" stroke="#63b8ff" points="1408.26,-29.24 1412.21,-19.41 1402.99,-24.63 1408.26,-29.24"/>
</g>
<!-- Node9 -->
<g id="node9" class="node">
<title>Node9</title>
<g id="a_node9"><a xlink:title=" ">
<polygon fill="#e0e0e0" stroke="#999999" points="1614.5,-261 1561.5,-261 1561.5,-242 1614.5,-242 1614.5,-261"/>
<text text-anchor="middle" x="1588" y="-249" font-family="Helvetica,sans-Serif" font-size="10.00">cstddef</text>
</a>
</g>
</g>
<!-- Node8&#45;&gt;Node9 -->
<g id="edge8" class="edge">
<title>Node8&#45;&gt;Node9</title>
<path fill="none" stroke="#63b8ff" d="M1557.11,-296.75C1562.28,-289.34 1569.85,-278.5 1576.19,-269.41"/>
<polygon fill="#63b8ff" stroke="#63b8ff" points="1579.15,-271.29 1582,-261.09 1573.41,-267.29 1579.15,-271.29"/>
</g>
<!-- Node10 -->
<g id="node10" class="node">
<title>Node10</title>
<g id="a_node10"><a xlink:title=" ">
<polygon fill="#e0e0e0" stroke="#999999" points="1719,-261 1633,-261 1633,-242 1719,-242 1719,-261"/>
<text text-anchor="middle" x="1676" y="-249" font-family="Helvetica,sans-Serif" font-size="10.00">unordered_set</text>
</a>
</g>
</g>
<!-- Node8&#45;&gt;Node10 -->
<g id="edge9" class="edge">
<title>Node8&#45;&gt;Node10</title>
<path fill="none" stroke="#63b8ff" d="M1571.08,-296.98C1591.37,-288.38 1622.96,-274.99 1646.17,-265.15"/>
<polygon fill="#63b8ff" stroke="#63b8ff" points="1647.71,-268.3 1655.55,-261.17 1644.98,-261.85 1647.71,-268.3"/>
</g>
<!-- Node11 -->
<g id="node11" class="node">
<title>Node11</title>
<g id="a_node11"><a xlink:href="_geometry_8hpp.html" target="_top" xlink:title="Geometric scalars of the Manifold used to calculate the Regge action.">
<polygon fill="white" stroke="#666666" points="1543.5,-261 1458.5,-261 1458.5,-242 1543.5,-242 1543.5,-261"/>
<text text-anchor="middle" x="1501" y="-249" font-family="Helvetica,sans-Serif" font-size="10.00">Geometry.hpp</text>
</a>
</g>
</g>
<!-- Node8&#45;&gt;Node11 -->
<g id="edge10" class="edge">
<title>Node8&#45;&gt;Node11</title>
<path fill="none" stroke="#63b8ff" d="M1542.74,-296.75C1535.54,-289.11 1524.89,-277.82 1516.15,-268.56"/>
<polygon fill="#63b8ff" stroke="#63b8ff" points="1518.51,-265.96 1509.1,-261.09 1513.42,-270.76 1518.51,-265.96"/>
</g>
<!-- Node12 -->
<g id="node12" class="node">
<title>Node12</title>
<g id="a_node12"><a xlink:href="_foliated__triangulation_8hpp.html" target="_top" xlink:title="Create foliated spherical triangulations.">
<polygon fill="white" stroke="#666666" points="1573,-206 1429,-206 1429,-187 1573,-187 1573,-206"/>
<text text-anchor="middle" x="1501" y="-194" font-family="Helvetica,sans-Serif" font-size="10.00">Foliated_triangulation.hpp</text>
</a>
</g>
</g>
<!-- Node11&#45;&gt;Node12 -->
<g id="edge11" class="edge">
<title>Node11&#45;&gt;Node12</title>
<path fill="none" stroke="#63b8ff" d="M1501,-241.75C1501,-234.8 1501,-224.85 1501,-216.13"/>
<polygon fill="#63b8ff" stroke="#63b8ff" points="1504.5,-216.09 1501,-206.09 1497.5,-216.09 1504.5,-216.09"/>
</g>
<!-- Node13 -->
<g id="node13" class="node">
<title>Node13</title>
<g id="a_node13"><a xlink:href="_triangulation__traits_8hpp.html" target="_top" xlink:title="Traits class for particular uses of CGAL.">
<polygon fill="white" stroke="#666666" points="1722.5,-151 1591.5,-151 1591.5,-132 1722.5,-132 1722.5,-151"/>
<text text-anchor="middle" x="1657" y="-139" font-family="Helvetica,sans-Serif" font-size="10.00">Triangulation_traits.hpp</text>
</a>
</g>
</g>
<!-- Node12&#45;&gt;Node13 -->
<g id="edge12" class="edge">
<title>Node12&#45;&gt;Node13</title>
<path fill="none" stroke="#63b8ff" d="M1526.06,-186.98C1552.03,-178.16 1592.81,-164.31 1621.96,-154.41"/>
<polygon fill="#63b8ff" stroke="#63b8ff" points="1623.4,-157.61 1631.74,-151.08 1621.15,-150.99 1623.4,-157.61"/>
</g>
<!-- Node19 -->
<g id="node19" class="node">
<title>Node19</title>
<g id="a_node19"><a xlink:href="_utilities_8hpp.html" target="_top" xlink:title="Utility functions.">
<polygon fill="white" stroke="#666666" points="852,-151 776,-151 776,-132 852,-132 852,-151"/>
<text text-anchor="middle" x="814" y="-139" font-family="Helvetica,sans-Serif" font-size="10.00">Utilities.hpp</text>
</a>
</g>
</g>
<!-- Node12&#45;&gt;Node19 -->
<g id="edge19" class="edge">
<title>Node12&#45;&gt;Node19</title>
<path fill="none" stroke="#63b8ff" d="M1428.78,-189.93C1288.16,-179.08 981.01,-155.38 862.24,-146.22"/>
<polygon fill="#63b8ff" stroke="#63b8ff" points="862.25,-142.71 852.01,-145.43 861.71,-149.69 862.25,-142.71"/>
</g>
<!-- Node13&#45;&gt;Node4 -->
<g id="edge18" class="edge">
<title>Node13&#45;&gt;Node4</title>
<path fill="none" stroke="#63b8ff" d="M1591.42,-132.34C1541.58,-125.24 1471.68,-113.34 1412,-96 1405.42,-94.09 1398.52,-91.59 1392.05,-89.02"/>
<polygon fill="#63b8ff" stroke="#63b8ff" points="1392.95,-85.61 1382.38,-85 1390.27,-92.07 1392.95,-85.61"/>
</g>
<!-- Node14 -->
<g id="node14" class="node">
<title>Node14</title>
<g id="a_node14"><a xlink:title=" ">
<polygon fill="#e0e0e0" stroke="#999999" points="2094,-85 1914,-85 1914,-66 2094,-66 2094,-85"/>
<text text-anchor="middle" x="2004" y="-73" font-family="Helvetica,sans-Serif" font-size="10.00">CGAL/Delaunay_triangulation_3.h</text>
</a>
</g>
</g>
<!-- Node13&#45;&gt;Node14 -->
<g id="edge13" class="edge">
<title>Node13&#45;&gt;Node14</title>
<path fill="none" stroke="#63b8ff" d="M1705.98,-131.96C1756.04,-123.18 1836,-108.98 1905,-96 1920.11,-93.16 1936.49,-89.97 1951.5,-87.01"/>
<polygon fill="#63b8ff" stroke="#63b8ff" points="1952.5,-90.38 1961.64,-85.01 1951.15,-83.51 1952.5,-90.38"/>
</g>
<!-- Node15 -->
<g id="node15" class="node">
<title>Node15</title>
<g id="a_node15"><a xlink:title=" ">
<polygon fill="#e0e0e0" stroke="#999999" points="2241.5,-96 2112.5,-96 2112.5,-55 2241.5,-55 2241.5,-96"/>
<text text-anchor="start" x="2120.5" y="-84" font-family="Helvetica,sans-Serif" font-size="10.00">CGAL/Exact_predicates</text>
<text text-anchor="start" x="2120.5" y="-73" font-family="Helvetica,sans-Serif" font-size="10.00">_inexact_constructions</text>
<text text-anchor="middle" x="2177" y="-62" font-family="Helvetica,sans-Serif" font-size="10.00">_kernel.h</text>
</a>
</g>
</g>
<!-- Node13&#45;&gt;Node15 -->
<g id="edge14" class="edge">
<title>Node13&#45;&gt;Node15</title>
<path fill="none" stroke="#63b8ff" d="M1722.82,-137.2C1808.19,-132.19 1961.77,-120.71 2102.08,-96.01"/>
<polygon fill="#63b8ff" stroke="#63b8ff" points="2102.93,-99.41 2112.16,-94.21 2101.7,-92.52 2102.93,-99.41"/>
</g>
<!-- Node16 -->
<g id="node16" class="node">
<title>Node16</title>
<g id="a_node16"><a xlink:title=" ">
<polygon fill="#e0e0e0" stroke="#999999" points="1569.5,-85 1420.5,-85 1420.5,-66 1569.5,-66 1569.5,-85"/>
<text text-anchor="middle" x="1495" y="-73" font-family="Helvetica,sans-Serif" font-size="10.00">CGAL/point_generators_3.h</text>
</a>
</g>
</g>
<!-- Node13&#45;&gt;Node16 -->
<g id="edge15" class="edge">
<title>Node13&#45;&gt;Node16</title>
<path fill="none" stroke="#63b8ff" d="M1635.15,-131.87C1607.05,-120.77 1558.07,-101.42 1526.1,-88.78"/>
<polygon fill="#63b8ff" stroke="#63b8ff" points="1527.35,-85.52 1516.76,-85.1 1524.77,-92.03 1527.35,-85.52"/>
</g>
<!-- Node17 -->
<g id="node17" class="node">
<title>Node17</title>
<g id="a_node17"><a xlink:title=" ">
<polygon fill="#e0e0e0" stroke="#999999" points="1726,-90.5 1588,-90.5 1588,-60.5 1726,-60.5 1726,-90.5"/>
<text text-anchor="start" x="1596" y="-78.5" font-family="Helvetica,sans-Serif" font-size="10.00">CGAL/Triangulation</text>
<text text-anchor="middle" x="1657" y="-67.5" font-family="Helvetica,sans-Serif" font-size="10.00">_cell_base_with_info_3.h</text>
</a>
</g>
</g>
<!-- Node13&#45;&gt;Node17 -->
<g id="edge16" class="edge">
<title>Node13&#45;&gt;Node17</title>
<path fill="none" stroke="#63b8ff" d="M1657,-131.87C1657,-123.99 1657,-111.95 1657,-101.1"/>
<polygon fill="#63b8ff" stroke="#63b8ff" points="1660.5,-100.86 1657,-90.86 1653.5,-100.86 1660.5,-100.86"/>
</g>
<!-- Node18 -->
<g id="node18" class="node">
<title>Node18</title>
<g id="a_node18"><a xlink:title=" ">
<polygon fill="#e0e0e0" stroke="#999999" points="1896,-90.5 1744,-90.5 1744,-60.5 1896,-60.5 1896,-90.5"/>
<text text-anchor="start" x="1752" y="-78.5" font-family="Helvetica,sans-Serif" font-size="10.00">CGAL/Triangulation</text>
<text text-anchor="middle" x="1820" y="-67.5" font-family="Helvetica,sans-Serif" font-size="10.00">_vertex_base_with_info_3.h</text>
</a>
</g>
</g>
<!-- Node13&#45;&gt;Node18 -->
<g id="edge17" class="edge">
<title>Node13&#45;&gt;Node18</title>
<path fill="none" stroke="#63b8ff" d="M1678.98,-131.87C1703.4,-122.28 1743.48,-106.55 1774.68,-94.3"/>
<polygon fill="#63b8ff" stroke="#63b8ff" points="1776.02,-97.53 1784.05,-90.62 1773.46,-91.01 1776.02,-97.53"/>
</g>
<!-- Node19&#45;&gt;Node4 -->
<g id="edge35" class="edge">
<title>Node19&#45;&gt;Node4</title>
<path fill="none" stroke="#63b8ff" d="M852.09,-140.95C936.77,-141.12 1146.55,-136.96 1316,-96 1323.05,-94.3 1330.42,-91.73 1337.21,-89.02"/>
<polygon fill="#63b8ff" stroke="#63b8ff" points="1338.8,-92.14 1346.64,-85.02 1336.06,-85.7 1338.8,-92.14"/>
</g>
<!-- Node20 -->
<g id="node20" class="node">
<title>Node20</title>
<g id="a_node20"><a xlink:title=" ">
<polygon fill="#e0e0e0" stroke="#999999" points="943,-85 879,-85 879,-66 943,-66 943,-85"/>
<text text-anchor="middle" x="911" y="-73" font-family="Helvetica,sans-Serif" font-size="10.00">algorithm</text>
</a>
</g>
</g>
<!-- Node19&#45;&gt;Node20 -->
<g id="edge20" class="edge">
<title>Node19&#45;&gt;Node20</title>
<path fill="none" stroke="#63b8ff" d="M827.08,-131.87C843.06,-121.32 870.33,-103.34 889.43,-90.73"/>
<polygon fill="#63b8ff" stroke="#63b8ff" points="891.4,-93.63 897.82,-85.2 887.54,-87.78 891.4,-93.63"/>
</g>
<!-- Node21 -->
<g id="node21" class="node">
<title>Node21</title>
<g id="a_node21"><a xlink:title=" ">
<polygon fill="#e0e0e0" stroke="#999999" points="1029,-85 961,-85 961,-66 1029,-66 1029,-85"/>
<text text-anchor="middle" x="995" y="-73" font-family="Helvetica,sans-Serif" font-size="10.00">filesystem</text>
</a>
</g>
</g>
<!-- Node19&#45;&gt;Node21 -->
<g id="edge21" class="edge">
<title>Node19&#45;&gt;Node21</title>
<path fill="none" stroke="#63b8ff" d="M843.68,-132C871.86,-123.67 915.25,-110.2 952,-96 957.26,-93.97 962.79,-91.62 968.07,-89.28"/>
<polygon fill="#63b8ff" stroke="#63b8ff" points="969.55,-92.45 977.2,-85.12 966.65,-86.08 969.55,-92.45"/>
</g>
<!-- Node22 -->
<g id="node22" class="node">
<title>Node22</title>
<g id="a_node22"><a xlink:title=" ">
<polygon fill="#e0e0e0" stroke="#999999" points="1102.5,-85 1047.5,-85 1047.5,-66 1102.5,-66 1102.5,-85"/>
<text text-anchor="middle" x="1075" y="-73" font-family="Helvetica,sans-Serif" font-size="10.00">fstream</text>
</a>
</g>
</g>
<!-- Node19&#45;&gt;Node22 -->
<g id="edge22" class="edge">
<title>Node19&#45;&gt;Node22</title>
<path fill="none" stroke="#63b8ff" d="M852.14,-136.33C897.45,-130.61 974.84,-118.38 1038,-96 1042.71,-94.33 1047.57,-92.15 1052.15,-89.85"/>
<polygon fill="#63b8ff" stroke="#63b8ff" points="1053.87,-92.9 1061.03,-85.09 1050.56,-86.73 1053.87,-92.9"/>
</g>
<!-- Node23 -->
<g id="node23" class="node">
<title>Node23</title>
<g id="a_node23"><a xlink:title=" ">
<polygon fill="#e0e0e0" stroke="#999999" points="1169,-85 1121,-85 1121,-66 1169,-66 1169,-85"/>
<text text-anchor="middle" x="1145" y="-73" font-family="Helvetica,sans-Serif" font-size="10.00">gsl/gsl</text>
</a>
</g>
</g>
<!-- Node19&#45;&gt;Node23 -->
<g id="edge23" class="edge">
<title>Node19&#45;&gt;Node23</title>
<path fill="none" stroke="#63b8ff" d="M852.11,-139.29C909.69,-136.46 1021.62,-127.09 1111,-96 1115.27,-94.52 1119.61,-92.49 1123.69,-90.3"/>
<polygon fill="#63b8ff" stroke="#63b8ff" points="1125.75,-93.16 1132.62,-85.09 1122.22,-87.11 1125.75,-93.16"/>
</g>
<!-- Node24 -->
<g id="node24" class="node">
<title>Node24</title>
<g id="a_node24"><a xlink:title=" ">
<polygon fill="#e0e0e0" stroke="#999999" points="1235,-85 1187,-85 1187,-66 1235,-66 1235,-85"/>
<text text-anchor="middle" x="1211" y="-73" font-family="Helvetica,sans-Serif" font-size="10.00">mutex</text>
</a>
</g>
</g>
<!-- Node19&#45;&gt;Node24 -->
<g id="edge24" class="edge">
<title>Node19&#45;&gt;Node24</title>
<path fill="none" stroke="#63b8ff" d="M852.07,-140.91C919.58,-140.54 1063.92,-134.78 1178,-96 1182.18,-94.58 1186.41,-92.58 1190.39,-90.41"/>
<polygon fill="#63b8ff" stroke="#63b8ff" points="1192.29,-93.35 1199.05,-85.19 1188.68,-87.35 1192.29,-93.35"/>
</g>
<!-- Node25 -->
<g id="node25" class="node">
<title>Node25</title>
<g id="a_node25"><a xlink:title=" ">
<polygon fill="#e0e0e0" stroke="#999999" points="1307,-85 1253,-85 1253,-66 1307,-66 1307,-85"/>
<text text-anchor="middle" x="1280" y="-73" font-family="Helvetica,sans-Serif" font-size="10.00">random</text>
</a>
</g>
</g>
<!-- Node19&#45;&gt;Node25 -->
<g id="edge25" class="edge">
<title>Node19&#45;&gt;Node25</title>
<path fill="none" stroke="#63b8ff" d="M852.3,-138.46C943.48,-133.3 1171.22,-118.5 1244,-96 1248.84,-94.5 1253.77,-92.33 1258.37,-89.97"/>
<polygon fill="#63b8ff" stroke="#63b8ff" points="1260.19,-92.96 1267.21,-85.03 1256.78,-86.85 1260.19,-92.96"/>
</g>
<!-- Node26 -->
<g id="node26" class="node">
<title>Node26</title>
<g id="a_node26"><a xlink:title=" ">
<polygon fill="#e0e0e0" stroke="#999999" points="40,-85 0,-85 0,-66 40,-66 40,-85"/>
<text text-anchor="middle" x="20" y="-73" font-family="Helvetica,sans-Serif" font-size="10.00">span</text>
</a>
</g>
</g>
<!-- Node19&#45;&gt;Node26 -->
<g id="edge26" class="edge">
<title>Node19&#45;&gt;Node26</title>
<path fill="none" stroke="#63b8ff" d="M775.67,-140.93C640.35,-142.02 185.79,-142.1 49,-96 45.33,-94.76 41.7,-92.94 38.3,-90.88"/>
<polygon fill="#63b8ff" stroke="#63b8ff" points="40.24,-87.97 30.02,-85.19 36.28,-93.74 40.24,-87.97"/>
</g>
<!-- Node27 -->
<g id="node27" class="node">
<title>Node27</title>
<g id="a_node27"><a xlink:title=" ">
<polygon fill="#e0e0e0" stroke="#999999" points="123.5,-85 58.5,-85 58.5,-66 123.5,-66 123.5,-85"/>
<text text-anchor="middle" x="91" y="-73" font-family="Helvetica,sans-Serif" font-size="10.00">stdexcept</text>
</a>
</g>
</g>
<!-- Node19&#45;&gt;Node27 -->
<g id="edge27" class="edge">
<title>Node19&#45;&gt;Node27</title>
<path fill="none" stroke="#63b8ff" d="M775.82,-139.85C651.02,-137.43 256.12,-127.43 133,-96 127.01,-94.47 120.83,-92.1 115.12,-89.54"/>
<polygon fill="#63b8ff" stroke="#63b8ff" points="116.58,-86.35 106.05,-85.14 113.52,-92.65 116.58,-86.35"/>
</g>
<!-- Node28 -->
<g id="node28" class="node">
<title>Node28</title>
<g id="a_node28"><a xlink:title=" ">
<polygon fill="#e0e0e0" stroke="#999999" points="186,-85 142,-85 142,-66 186,-66 186,-85"/>
<text text-anchor="middle" x="164" y="-73" font-family="Helvetica,sans-Serif" font-size="10.00">string</text>
</a>
</g>
</g>
<!-- Node19&#45;&gt;Node28 -->
<g id="edge28" class="edge">
<title>Node19&#45;&gt;Node28</title>
<path fill="none" stroke="#63b8ff" d="M775.88,-140.17C658.48,-138.78 303.79,-131.64 195,-96 191.03,-94.7 187.07,-92.79 183.35,-90.66"/>
<polygon fill="#63b8ff" stroke="#63b8ff" points="185.11,-87.63 174.81,-85.15 181.32,-93.51 185.11,-87.63"/>
</g>
<!-- Node29 -->
<g id="node29" class="node">
<title>Node29</title>
<g id="a_node29"><a xlink:title=" ">
<polygon fill="#e0e0e0" stroke="#999999" points="276,-85 204,-85 204,-66 276,-66 276,-85"/>
<text text-anchor="middle" x="240" y="-73" font-family="Helvetica,sans-Serif" font-size="10.00">date/date.h</text>
</a>
</g>
</g>
<!-- Node19&#45;&gt;Node29 -->
<g id="edge29" class="edge">
<title>Node19&#45;&gt;Node29</title>
<path fill="none" stroke="#63b8ff" d="M775.75,-138.89C670.48,-134.22 378.18,-119.44 285,-96 278.5,-94.36 271.74,-91.89 265.49,-89.25"/>
<polygon fill="#63b8ff" stroke="#63b8ff" points="266.77,-85.98 256.22,-85.05 263.89,-92.36 266.77,-85.98"/>
</g>
<!-- Node30 -->
<g id="node30" class="node">
<title>Node30</title>
<g id="a_node30"><a xlink:title=" ">
<polygon fill="#e0e0e0" stroke="#999999" points="392,-85 294,-85 294,-66 392,-66 392,-85"/>
<text text-anchor="middle" x="343" y="-73" font-family="Helvetica,sans-Serif" font-size="10.00">pcg_random.hpp</text>
</a>
</g>
</g>
<!-- Node19&#45;&gt;Node30 -->
<g id="edge30" class="edge">
<title>Node19&#45;&gt;Node30</title>
<path fill="none" stroke="#63b8ff" d="M775.98,-139.16C702.65,-135.96 536.96,-125.81 401,-96 392.2,-94.07 382.86,-91.28 374.31,-88.41"/>
<polygon fill="#63b8ff" stroke="#63b8ff" points="375.31,-85.05 364.72,-85.05 373,-91.66 375.31,-85.05"/>
</g>
<!-- Node31 -->
<g id="node31" class="node">
<title>Node31</title>
<g id="a_node31"><a xlink:title=" ">
<polygon fill="#e0e0e0" stroke="#999999" points="496,-85 410,-85 410,-66 496,-66 496,-85"/>
<text text-anchor="middle" x="453" y="-73" font-family="Helvetica,sans-Serif" font-size="10.00">fmt/ostream.h</text>
</a>
</g>
</g>
<!-- Node19&#45;&gt;Node31 -->
<g id="edge31" class="edge">
<title>Node19&#45;&gt;Node31</title>
<path fill="none" stroke="#63b8ff" d="M775.91,-137.67C717.06,-132.72 600.82,-120.56 505,-96 497.55,-94.09 489.7,-91.48 482.41,-88.79"/>
<polygon fill="#63b8ff" stroke="#63b8ff" points="483.51,-85.46 472.92,-85.13 480.99,-91.99 483.51,-85.46"/>
</g>
<!-- Node32 -->
<g id="node32" class="node">
<title>Node32</title>
<g id="a_node32"><a xlink:title=" ">
<polygon fill="#e0e0e0" stroke="#999999" points="620,-90.5 514,-90.5 514,-60.5 620,-60.5 620,-90.5"/>
<text text-anchor="start" x="522" y="-78.5" font-family="Helvetica,sans-Serif" font-size="10.00">spdlog/sinks/basic</text>
<text text-anchor="middle" x="567" y="-67.5" font-family="Helvetica,sans-Serif" font-size="10.00">_file_sink.h</text>
</a>
</g>
</g>
<!-- Node19&#45;&gt;Node32 -->
<g id="edge32" class="edge">
<title>Node19&#45;&gt;Node32</title>
<path fill="none" stroke="#63b8ff" d="M775.89,-132.14C738.35,-123.71 679.46,-109.99 629,-96 626.05,-95.18 623.03,-94.32 619.99,-93.43"/>
<polygon fill="#63b8ff" stroke="#63b8ff" points="620.83,-90.03 610.25,-90.52 618.83,-96.74 620.83,-90.03"/>
</g>
<!-- Node33 -->
<g id="node33" class="node">
<title>Node33</title>
<g id="a_node33"><a xlink:title=" ">
<polygon fill="#e0e0e0" stroke="#999999" points="749.5,-90.5 638.5,-90.5 638.5,-60.5 749.5,-60.5 749.5,-90.5"/>
<text text-anchor="start" x="646.5" y="-78.5" font-family="Helvetica,sans-Serif" font-size="10.00">spdlog/sinks/stdout</text>
<text text-anchor="middle" x="694" y="-67.5" font-family="Helvetica,sans-Serif" font-size="10.00">_color_sinks.h</text>
</a>
</g>
</g>
<!-- Node19&#45;&gt;Node33 -->
<g id="edge33" class="edge">
<title>Node19&#45;&gt;Node33</title>
<path fill="none" stroke="#63b8ff" d="M797.82,-131.87C780.39,-122.57 752.11,-107.49 729.46,-95.41"/>
<polygon fill="#63b8ff" stroke="#63b8ff" points="730.94,-92.23 720.47,-90.62 727.64,-98.41 730.94,-92.23"/>
</g>
<!-- Node34 -->
<g id="node34" class="node">
<title>Node34</title>
<g id="a_node34"><a xlink:title=" ">
<polygon fill="#e0e0e0" stroke="#999999" points="860.5,-85 767.5,-85 767.5,-66 860.5,-66 860.5,-85"/>
<text text-anchor="middle" x="814" y="-73" font-family="Helvetica,sans-Serif" font-size="10.00">spdlog/spdlog.h</text>
</a>
</g>
</g>
<!-- Node19&#45;&gt;Node34 -->
<g id="edge34" class="edge">
<title>Node19&#45;&gt;Node34</title>
<path fill="none" stroke="#63b8ff" d="M814,-131.87C814,-122.66 814,-107.79 814,-95.77"/>
<polygon fill="#63b8ff" stroke="#63b8ff" points="817.5,-95.41 814,-85.41 810.5,-95.41 817.5,-95.41"/>
</g>
</g>
</svg>
        <g id="navigator" transform="translate(0 0)" fill="#404254">
                <rect fill="#f2f5e9" fill-opacity="0.5" stroke="#606060" stroke-width=".5" x="0" y="0" width="60" height="60"/>
                <use id="zoomplus" xlink:href="#zoomPlus" x="17" y="9" onmousedown="handleZoom(evt,'in')"/>
                <use id="zoomminus" xlink:href="#zoomMin" x="42" y="9" onmousedown="handleZoom(evt,'out')"/>
                <use id="reset" xlink:href="#resetDef" x="30" y="36" onmousedown="handleReset()"/>
                <g id="arrowUp" xlink:href="#dirArrow" transform="translate(30 24)" onmousedown="handlePan(0,-1)">
                  <use xlink:href="#rim" fill="#404040">
                        <set attributeName="fill" to="#808080" begin="arrowUp.mouseover" end="arrowUp.mouseout"/>
                  </use>
                  <path fill="none" stroke="white" stroke-width="1.5" d="M0,-3.0v7 M-2.5,-0.5L0,-3.0L2.5,-0.5"/>
                </g>
                <g id="arrowRight" xlink:href="#dirArrow" transform="rotate(90) translate(36 -43)" onmousedown="handlePan(1,0)">
                  <use xlink:href="#rim" fill="#404040">
                        <set attributeName="fill" to="#808080" begin="arrowRight.mouseover" end="arrowRight.mouseout"/>
                  </use>
                  <path fill="none" stroke="white" stroke-width="1.5" d="M0,-3.0v7 M-2.5,-0.5L0,-3.0L2.5,-0.5"/>
                </g>
                <g id="arrowDown" xlink:href="#dirArrow" transform="rotate(180) translate(-30 -48)" onmousedown="handlePan(0,1)">
                  <use xlink:href="#rim" fill="#404040">
                        <set attributeName="fill" to="#808080" begin="arrowDown.mouseover" end="arrowDown.mouseout"/>
                  </use>
                  <path fill="none" stroke="white" stroke-width="1.5" d="M0,-3.0v7 M-2.5,-0.5L0,-3.0L2.5,-0.5"/>
                </g>
                <g id="arrowLeft" xlink:href="#dirArrow" transform="rotate(270) translate(-36 17)" onmousedown="handlePan(-1,0)">
                  <use xlink:href="#rim" fill="#404040">
                        <set attributeName="fill" to="#808080" begin="arrowLeft.mouseover" end="arrowLeft.mouseout"/>
                  </use>
                  <path fill="none" stroke="white" stroke-width="1.5" d="M0,-3.0v7 M-2.5,-0.5L0,-3.0L2.5,-0.5"/>
                </g>
        </g>
        <svg viewBox="0 0 15 15" width="100%" height="30px" preserveAspectRatio="xMaxYMin meet">
         <g id="arrow_out" transform="scale(0.3 0.3)">
          <a xlink:href="_s3_action__test_8cpp__incl_org.svg" target="_base">
           <rect id="button" ry="5" rx="5" y="6" x="6" height="38" width="38"
                fill="#f2f5e9" fill-opacity="0.5" stroke="#606060" stroke-width="1.0"/>
           <path id="arrow"
             d="M 11.500037,31.436501 C 11.940474,20.09759 22.043105,11.32322 32.158766,21.979434 L 37.068811,17.246167 C 37.068811,17.246167 37.088388,32 37.088388,32 L 22.160133,31.978069 C 22.160133,31.978069 26.997745,27.140456 26.997745,27.140456 C 18.528582,18.264221 13.291696,25.230495 11.500037,31.436501 z"
             style="fill:#404040;"/>
          </a>
         </g>
        </svg>
</svg>
