<?xml version="1.0" encoding="UTF-8" standalone="no"?>
<!DOCTYPE svg PUBLIC "-//W3C//DTD SVG 1.1//EN"
 "http://www.w3.org/Graphics/SVG/1.1/DTD/svg11.dtd">
<!-- Generated by graphviz version 15.1.0 (20260618.0150)
 -->
<!-- Title: include/Settings.hpp Pages: 1 -->
<!--zoomable 452 -->

<svg id="main" version="1.1" xmlns="http://www.w3.org/2000/svg" xmlns:xlink="http://www.w3.org/1999/xlink" xml:space="preserve" onload="init(evt)">

<style type="text/css"><![CDATA[
.node, .edge {opacity: 0.7;}
.node.selected, .edge.selected {opacity: 1;}
.edge:hover path { stroke: red; }
.edge:hover polygon { stroke: red; fill: red; }
]]></style>

<defs>
  <circle id="rim" cx="0" cy="0" r="7"/>
  <circle id="rim2" cx="0" cy="0" r="3.5"/>
  <g id="zoomPlus">
    <use xlink:href="#rim" fill="#404040"><set attributeName="fill" to="#808080" begin="zoomplus.mouseover" end="zoomplus.mouseout"/></use>
    <path d="M-4,0h8M0,-4v8" fill="none" stroke="white" stroke-width="1.5" pointer-events="none"/>
  </g>
  <g id="zoomMin">
    <use xlink:href="#rim" fill="#404040"><set attributeName="fill" to="#808080" begin="zoomminus.mouseover" end="zoomminus.mouseout"/></use>
    <path d="M-4,0h8" fill="none" stroke="white" stroke-width="1.5" pointer-events="none"/>
  </g>
  <g id="arrowUp" transform="translate(30 24)">
    <use xlink:href="#rim"/>
    <path pointer-events="none" fill="none" stroke="white" stroke-width="1.5" d="M0,-3.0v7 M-2.5,-0.5L0,-3.0L2.5,-0.5"/>
  </g>
  <g id="arrowRight" transform="rotate(90) translate(36 -43)">
    <use xlink:href="#rim"/>
    <path pointer-events="none" fill="none" stroke="white" stroke-width="1.5" d="M0,-3.0v7 M-2.5,-0.5L0,-3.0L2.5,-0.5"/>
  </g>
  <g id="arrowDown" transform="rotate(180) translate(-30 -48)">
    <use xlink:href="#rim"/>
    <path pointer-events="none" fill="none" stroke="white" stroke-width="1.5" d="M0,-3.0v7 M-2.5,-0.5L0,-3.0L2.5,-0.5"/>
  </g>
  <g id="arrowLeft" transform="rotate(270) translate(-36 17)">
    <use xlink:href="#rim"/>
    <path pointer-events="none" fill="none" stroke="white" stroke-width="1.5" d="M0,-3.0v7 M-2.5,-0.5L0,-3.0L2.5,-0.5"/>
  </g>
  <g id="resetDef">
    <use xlink:href="#rim2" fill="#404040"><set attributeName="fill" to="#808080" begin="reset.mouseover" end="reset.mouseout"/></use>
  </g>
</defs>
<script type="application/ecmascript">
var viewWidth = 805;
var viewHeight = 452;
var sectionId = 'dynsection-1';
</script>
<script type="application/ecmascript" xlink:href="svg.min.js"/>
<svg id="graph" class="graph">
<g id="viewport">
<title>include/Settings.hpp</title>
<!-- Node1 -->
<g id="Node000001" class="node">
<title>Node1</title>
<g id="a_Node000001"><a xlink:title="Global integer and precision settings.">
<polygon fill="#999999" stroke="#666666" points="483.12,-443.5 368.12,-443.5 368.12,-422.75 483.12,-422.75 483.12,-443.5"/>
<text xml:space="preserve" text-anchor="middle" x="425.62" y="-430" font-family="Helvetica,sans-Serif" font-size="10.00">include/Settings.hpp</text>
</a>
</g>
</g>
<!-- Node2 -->
<g id="Node000002" class="node">
<title>Node2</title>
<g id="a_Node000002"><a xlink:href="_move__tracker_8hpp.html" target="_top" xlink:title="Track ergodic moves.">
<polygon fill="white" stroke="#666666" points="269.88,-317.25 129.38,-317.25 129.38,-296.5 269.88,-296.5 269.88,-317.25"/>
<text xml:space="preserve" text-anchor="middle" x="199.62" y="-303.75" font-family="Helvetica,sans-Serif" font-size="10.00">include/Move_tracker.hpp</text>
</a>
</g>
</g>
<!-- Node1&#45;&gt;Node2 -->
<g id="edge1_Node000001_Node000002" class="edge">
<title>Node1&#45;&gt;Node2</title>
<g id="a_edge1_Node000001_Node000002"><a xlink:title=" ">
<path fill="none" stroke="#63b8ff" d="M364.16,-419.43C337.59,-412.29 306.87,-401.73 281.62,-386.75 249.69,-367.8 220.44,-334.14 207.15,-317.6"/>
<polygon fill="#63b8ff" stroke="#63b8ff" points="363.24,-422.81 373.8,-421.9 364.98,-416.03 363.24,-422.81"/>
</a>
</g>
</g>
<!-- Node9 -->
<g id="Node000009" class="node">
<title>Node9</title>
<g id="a_Node000009"><a xlink:href="_mpfr__value_8hpp.html" target="_top" xlink:title="Scope&#45;owned, value&#45;returning MPFR operations.">
<polygon fill="white" stroke="#666666" points="760.62,-380.38 630.62,-380.38 630.62,-359.62 760.62,-359.62 760.62,-380.38"/>
<text xml:space="preserve" text-anchor="middle" x="695.62" y="-366.88" font-family="Helvetica,sans-Serif" font-size="10.00">include/Mpfr_value.hpp</text>
</a>
</g>
</g>
<!-- Node1&#45;&gt;Node9 -->
<g id="edge10_Node000001_Node000009" class="edge">
<title>Node1&#45;&gt;Node9</title>
<g id="a_edge10_Node000001_Node000009"><a xlink:title=" ">
<path fill="none" stroke="#63b8ff" d="M480.09,-419.79C530.85,-408.3 605.55,-391.39 652.35,-380.8"/>
<polygon fill="#63b8ff" stroke="#63b8ff" points="479.46,-416.35 470.48,-421.97 481.01,-423.18 479.46,-416.35"/>
</a>
</g>
</g>
<!-- Node11 -->
<g id="Node000011" class="node">
<title>Node11</title>
<g id="a_Node000011"><a xlink:href="_triangulation__traits_8hpp.html" target="_top" xlink:title="Traits class for particular uses of CGAL.">
<polygon fill="white" stroke="#666666" points="551.25,-386.75 434,-386.75 434,-353.25 551.25,-353.25 551.25,-386.75"/>
<text xml:space="preserve" text-anchor="start" x="442" y="-373.25" font-family="Helvetica,sans-Serif" font-size="10.00">include/Triangulation</text>
<text xml:space="preserve" text-anchor="middle" x="492.62" y="-360.5" font-family="Helvetica,sans-Serif" font-size="10.00">_traits.hpp</text>
</a>
</g>
</g>
<!-- Node1&#45;&gt;Node11 -->
<g id="edge13_Node000001_Node000011" class="edge">
<title>Node1&#45;&gt;Node11</title>
<g id="a_edge13_Node000001_Node000011"><a xlink:title=" ">
<path fill="none" stroke="#63b8ff" d="M444.75,-414.68C454.21,-406.05 465.56,-395.69 474.83,-387.23"/>
<polygon fill="#63b8ff" stroke="#63b8ff" points="442.54,-411.96 437.51,-421.28 447.25,-417.13 442.54,-411.96"/>
</a>
</g>
</g>
<!-- Node18 -->
<g id="Node000018" class="node">
<title>Node18</title>
<g id="a_Node000018"><a xlink:href="_utilities_8hpp.html" target="_top" xlink:title="Utility functions.">
<polygon fill="white" stroke="#666666" points="404.38,-380.38 290.88,-380.38 290.88,-359.62 404.38,-359.62 404.38,-380.38"/>
<text xml:space="preserve" text-anchor="middle" x="347.62" y="-366.88" font-family="Helvetica,sans-Serif" font-size="10.00">include/Utilities.hpp</text>
</a>
</g>
</g>
<!-- Node1&#45;&gt;Node18 -->
<g id="edge21_Node000001_Node000018" class="edge">
<title>Node1&#45;&gt;Node18</title>
<g id="a_edge21_Node000001_Node000018"><a xlink:title=" ">
<path fill="none" stroke="#63b8ff" d="M404.05,-415.21C389.91,-404.14 371.94,-390.06 360.13,-380.8"/>
<polygon fill="#63b8ff" stroke="#63b8ff" points="401.87,-417.96 411.9,-421.37 406.19,-412.45 401.87,-417.96"/>
</a>
</g>
</g>
<!-- Node3 -->
<g id="Node000003" class="node">
<title>Node3</title>
<g id="a_Node000003"><a xlink:href="_ergodic__moves__3_8hpp.html" target="_top" xlink:title="Pachner moves on 2+1 dimensional foliated Delaunay triangulations.">
<polygon fill="white" stroke="#666666" points="269.88,-147 141.38,-147 141.38,-113.5 269.88,-113.5 269.88,-147"/>
<text xml:space="preserve" text-anchor="start" x="149.38" y="-133.5" font-family="Helvetica,sans-Serif" font-size="10.00">include/Ergodic_moves</text>
<text xml:space="preserve" text-anchor="middle" x="205.62" y="-120.75" font-family="Helvetica,sans-Serif" font-size="10.00">_3.hpp</text>
</a>
</g>
</g>
<!-- Node2&#45;&gt;Node3 -->
<g id="edge2_Node000002_Node000003" class="edge">
<title>Node2&#45;&gt;Node3</title>
<g id="a_edge2_Node000002_Node000003"><a xlink:title=" ">
<path fill="none" stroke="#63b8ff" d="M200.34,-284.98C201.55,-249.71 203.98,-179.13 205.07,-147.38"/>
<polygon fill="#63b8ff" stroke="#63b8ff" points="196.85,-284.61 200.01,-294.73 203.85,-284.85 196.85,-284.61"/>
</a>
</g>
</g>
<!-- Node8 -->
<g id="Node000008" class="node">
<title>Node8</title>
<g id="a_Node000008"><a xlink:href="_move__run_8hpp.html" target="_top" xlink:title="Shared value&#45;oriented orchestration for ergodic&#45;move strategies.">
<polygon fill="white" stroke="#666666" points="123.25,-140.62 0,-140.62 0,-119.88 123.25,-119.88 123.25,-140.62"/>
<text xml:space="preserve" text-anchor="middle" x="61.62" y="-127.12" font-family="Helvetica,sans-Serif" font-size="10.00">include/Move_run.hpp</text>
</a>
</g>
</g>
<!-- Node2&#45;&gt;Node8 -->
<g id="edge7_Node000002_Node000008" class="edge">
<title>Node2&#45;&gt;Node8</title>
<g id="a_edge7_Node000002_Node000008"><a xlink:title=" ">
<path fill="none" stroke="#63b8ff" d="M185.13,-287.53C156.09,-250.78 91.67,-169.27 69.39,-141.07"/>
<polygon fill="#63b8ff" stroke="#63b8ff" points="182.12,-289.37 191.07,-295.05 187.62,-285.03 182.12,-289.37"/>
</a>
</g>
</g>
<!-- Node4 -->
<g id="Node000004" class="node">
<title>Node4</title>
<g id="a_Node000004"><a xlink:href="_metropolis_8hpp.html" target="_top" xlink:title="Perform Metropolis&#45;Hastings algorithm on Delaunay Triangulations.">
<polygon fill="white" stroke="#666666" points="391.12,-77.5 264.12,-77.5 264.12,-56.75 391.12,-56.75 391.12,-77.5"/>
<text xml:space="preserve" text-anchor="middle" x="327.62" y="-64" font-family="Helvetica,sans-Serif" font-size="10.00">include/Metropolis.hpp</text>
</a>
</g>
</g>
<!-- Node3&#45;&gt;Node4 -->
<g id="edge3_Node000003_Node000004" class="edge">
<title>Node3&#45;&gt;Node4</title>
<g id="a_edge3_Node000003_Node000004"><a xlink:title=" ">
<path fill="none" stroke="#63b8ff" d="M248.03,-108C268.45,-97.77 291.94,-86 308.08,-77.92"/>
<polygon fill="#63b8ff" stroke="#63b8ff" points="246.72,-104.74 239.35,-112.35 249.86,-111 246.72,-104.74"/>
</a>
</g>
</g>
<!-- Node6 -->
<g id="Node000006" class="node">
<title>Node6</title>
<g id="a_Node000006"><a xlink:href="_move__command_8hpp.html" target="_top" xlink:title="Do ergodic moves using the Command pattern.">
<polygon fill="white" stroke="#666666" points="245.75,-77.5 89.5,-77.5 89.5,-56.75 245.75,-56.75 245.75,-77.5"/>
<text xml:space="preserve" text-anchor="middle" x="167.62" y="-64" font-family="Helvetica,sans-Serif" font-size="10.00">include/Move_command.hpp</text>
</a>
</g>
</g>
<!-- Node3&#45;&gt;Node6 -->
<g id="edge5_Node000003_Node000006" class="edge">
<title>Node3&#45;&gt;Node6</title>
<g id="a_edge5_Node000003_Node000006"><a xlink:title=" ">
<path fill="none" stroke="#63b8ff" d="M189.58,-103.44C183.98,-94.43 178.03,-84.87 173.74,-77.97"/>
<polygon fill="#63b8ff" stroke="#63b8ff" points="186.59,-105.26 194.84,-111.9 192.53,-101.56 186.59,-105.26"/>
</a>
</g>
</g>
<!-- Node5 -->
<g id="Node000005" class="node">
<title>Node5</title>
<g id="a_Node000005"><a xlink:href="cdt_8cpp.html" target="_top" xlink:title="The main executable.">
<polygon fill="white" stroke="#666666" points="485.88,-20.75 417.38,-20.75 417.38,0 485.88,0 485.88,-20.75"/>
<text xml:space="preserve" text-anchor="middle" x="451.62" y="-7.25" font-family="Helvetica,sans-Serif" font-size="10.00">src/cdt.cpp</text>
</a>
</g>
</g>
<!-- Node4&#45;&gt;Node5 -->
<g id="edge4_Node000004_Node000005" class="edge">
<title>Node4&#45;&gt;Node5</title>
<g id="a_edge4_Node000004_Node000005"><a xlink:title=" ">
<path fill="none" stroke="#63b8ff" d="M360.27,-51.71C382.16,-42.05 410.4,-29.58 429.65,-21.08"/>
<polygon fill="#63b8ff" stroke="#63b8ff" points="358.91,-48.48 351.18,-55.73 361.74,-54.89 358.91,-48.48"/>
</a>
</g>
</g>
<!-- Node7 -->
<g id="Node000007" class="node">
<title>Node7</title>
<g id="a_Node000007"><a xlink:href="_move__always_8hpp.html" target="_top" xlink:title="Randomly selects moves to always perform on triangulations.">
<polygon fill="white" stroke="#666666" points="185.62,-20.75 43.62,-20.75 43.62,0 185.62,0 185.62,-20.75"/>
<text xml:space="preserve" text-anchor="middle" x="114.62" y="-7.25" font-family="Helvetica,sans-Serif" font-size="10.00">include/Move_always.hpp</text>
</a>
</g>
</g>
<!-- Node6&#45;&gt;Node7 -->
<g id="edge6_Node000006_Node000007" class="edge">
<title>Node6&#45;&gt;Node7</title>
<g id="a_edge6_Node000006_Node000007"><a xlink:title=" ">
<path fill="none" stroke="#63b8ff" d="M150.37,-48.3C141.61,-39.25 131.31,-28.61 124.02,-21.08"/>
<polygon fill="#63b8ff" stroke="#63b8ff" points="147.63,-50.5 157.1,-55.25 152.66,-45.63 147.63,-50.5"/>
</a>
</g>
</g>
<!-- Node8&#45;&gt;Node4 -->
<g id="edge8_Node000008_Node000004" class="edge">
<title>Node8&#45;&gt;Node4</title>
<g id="a_edge8_Node000008_Node000004"><a xlink:title=" ">
<path fill="none" stroke="#63b8ff" d="M115.28,-116.92C165.29,-105.43 238.89,-88.52 284.99,-77.92"/>
<polygon fill="#63b8ff" stroke="#63b8ff" points="114.8,-113.44 105.84,-119.09 116.37,-120.26 114.8,-113.44"/>
</a>
</g>
</g>
<!-- Node8&#45;&gt;Node7 -->
<g id="edge9_Node000008_Node000007" class="edge">
<title>Node8&#45;&gt;Node7</title>
<g id="a_edge9_Node000008_Node000007"><a xlink:title=" ">
<path fill="none" stroke="#63b8ff" d="M64.88,-108.39C67.72,-93.48 72.67,-73.23 80.62,-56.75 87.13,-43.27 97.9,-29.81 105.57,-21.08"/>
<polygon fill="#63b8ff" stroke="#63b8ff" points="61.48,-107.51 63.22,-117.96 68.37,-108.7 61.48,-107.51"/>
</a>
</g>
</g>
<!-- Node10 -->
<g id="Node000010" class="node">
<title>Node10</title>
<g id="a_Node000010"><a xlink:href="_s3_action_8hpp.html" target="_top" xlink:title="Calculate S3 bulk actions on 3D Delaunay Triangulations.">
<polygon fill="white" stroke="#666666" points="796.62,-260.5 678.62,-260.5 678.62,-239.75 796.62,-239.75 796.62,-260.5"/>
<text xml:space="preserve" text-anchor="middle" x="737.62" y="-247" font-family="Helvetica,sans-Serif" font-size="10.00">include/S3Action.hpp</text>
</a>
</g>
</g>
<!-- Node9&#45;&gt;Node10 -->
<g id="edge11_Node000009_Node000010" class="edge">
<title>Node9&#45;&gt;Node10</title>
<g id="a_edge11_Node000009_Node000010"><a xlink:title=" ">
<path fill="none" stroke="#63b8ff" d="M715.51,-351.45C724.4,-342.27 733.93,-330.24 738.62,-317.25 745.49,-298.24 742.44,-274.12 739.87,-260.89"/>
<polygon fill="#63b8ff" stroke="#63b8ff" points="713.2,-348.81 708.44,-358.27 718.06,-353.85 713.2,-348.81"/>
</a>
</g>
</g>
<!-- Node10&#45;&gt;Node4 -->
<g id="edge12_Node000010_Node000004" class="edge">
<title>Node10&#45;&gt;Node4</title>
<g id="a_edge12_Node000010_Node000004"><a xlink:title=" ">
<path fill="none" stroke="#63b8ff" d="M718.91,-231.9C703.65,-218.13 681.31,-198.63 660.62,-183 615.98,-149.26 607.37,-134.81 555.62,-113.5 502.63,-91.68 438.28,-80.11 391.47,-74.12"/>
<polygon fill="#63b8ff" stroke="#63b8ff" points="716.14,-234.11 725.9,-238.25 720.85,-228.93 716.14,-234.11"/>
</a>
</g>
</g>
<!-- Node12 -->
<g id="Node000012" class="node">
<title>Node12</title>
<g id="a_Node000012"><a xlink:href="_foliated__triangulation_8hpp.html" target="_top" xlink:title="Create foliated spherical triangulations.">
<polygon fill="white" stroke="#666666" points="583.5,-317.25 401.75,-317.25 401.75,-296.5 583.5,-296.5 583.5,-317.25"/>
<text xml:space="preserve" text-anchor="middle" x="492.62" y="-303.75" font-family="Helvetica,sans-Serif" font-size="10.00">include/Foliated_triangulation.hpp</text>
</a>
</g>
</g>
<!-- Node11&#45;&gt;Node12 -->
<g id="edge14_Node000011_Node000012" class="edge">
<title>Node11&#45;&gt;Node12</title>
<g id="a_edge14_Node000011_Node000012"><a xlink:title=" ">
<path fill="none" stroke="#63b8ff" d="M492.62,-341.44C492.62,-332.96 492.62,-324.17 492.62,-317.72"/>
<polygon fill="#63b8ff" stroke="#63b8ff" points="489.13,-341.43 492.63,-351.43 496.13,-341.43 489.13,-341.43"/>
</a>
</g>
</g>
<!-- Node17 -->
<g id="Node000017" class="node">
<title>Node17</title>
<g id="a_Node000017"><a xlink:href="_formatters_8hpp.html" target="_top" xlink:title="Formatter specializations for various types.">
<polygon fill="white" stroke="#666666" points="729.88,-317.25 601.38,-317.25 601.38,-296.5 729.88,-296.5 729.88,-317.25"/>
<text xml:space="preserve" text-anchor="middle" x="665.62" y="-303.75" font-family="Helvetica,sans-Serif" font-size="10.00">include/Formatters.hpp</text>
</a>
</g>
</g>
<!-- Node11&#45;&gt;Node17 -->
<g id="edge20_Node000011_Node000017" class="edge">
<title>Node11&#45;&gt;Node17</title>
<g id="a_edge20_Node000011_Node000017"><a xlink:title=" ">
<path fill="none" stroke="#63b8ff" d="M549.22,-349C578.96,-338.5 614.09,-326.08 637.92,-317.67"/>
<polygon fill="#63b8ff" stroke="#63b8ff" points="548.22,-345.64 539.96,-352.28 550.55,-352.24 548.22,-345.64"/>
</a>
</g>
</g>
<!-- Node13 -->
<g id="Node000013" class="node">
<title>Node13</title>
<g id="a_Node000013"><a xlink:href="_geometry_8hpp.html" target="_top" xlink:title="Geometric scalars of the Manifold used to calculate the Regge action.">
<polygon fill="white" stroke="#666666" points="538.88,-260.5 416.38,-260.5 416.38,-239.75 538.88,-239.75 538.88,-260.5"/>
<text xml:space="preserve" text-anchor="middle" x="477.62" y="-247" font-family="Helvetica,sans-Serif" font-size="10.00">include/Geometry.hpp</text>
</a>
</g>
</g>
<!-- Node12&#45;&gt;Node13 -->
<g id="edge15_Node000012_Node000013" class="edge">
<title>Node12&#45;&gt;Node13</title>
<g id="a_edge15_Node000012_Node000013"><a xlink:title=" ">
<path fill="none" stroke="#63b8ff" d="M486.96,-285.21C484.67,-276.84 482.13,-267.58 480.28,-260.83"/>
<polygon fill="#63b8ff" stroke="#63b8ff" points="483.53,-285.91 489.54,-294.63 490.28,-284.06 483.53,-285.91"/>
</a>
</g>
</g>
<!-- Node14 -->
<g id="Node000014" class="node">
<title>Node14</title>
<g id="a_Node000014"><a xlink:href="_manifold_8hpp.html" target="_top" xlink:title="Data structures for manifolds.">
<polygon fill="white" stroke="#666666" points="481.62,-203.75 363.62,-203.75 363.62,-183 481.62,-183 481.62,-203.75"/>
<text xml:space="preserve" text-anchor="middle" x="422.62" y="-190.25" font-family="Helvetica,sans-Serif" font-size="10.00">include/Manifold.hpp</text>
</a>
</g>
</g>
<!-- Node13&#45;&gt;Node14 -->
<g id="edge16_Node000013_Node000014" class="edge">
<title>Node13&#45;&gt;Node14</title>
<g id="a_edge16_Node000013_Node000014"><a xlink:title=" ">
<path fill="none" stroke="#63b8ff" d="M459.72,-231.3C450.63,-222.25 439.94,-211.61 432.37,-204.08"/>
<polygon fill="#63b8ff" stroke="#63b8ff" points="457.16,-233.69 466.72,-238.27 462.1,-228.73 457.16,-233.69"/>
</a>
</g>
</g>
<!-- Node14&#45;&gt;Node3 -->
<g id="edge17_Node000014_Node000003" class="edge">
<title>Node14&#45;&gt;Node3</title>
<g id="a_edge17_Node000014_Node000003"><a xlink:title=" ">
<path fill="none" stroke="#63b8ff" d="M377.02,-179.53C343.91,-170.2 298.86,-157.51 263.26,-147.48"/>
<polygon fill="#63b8ff" stroke="#63b8ff" points="375.73,-182.8 386.3,-182.14 377.63,-176.06 375.73,-182.8"/>
</a>
</g>
</g>
<!-- Node15 -->
<g id="Node000015" class="node">
<title>Node15</title>
<g id="a_Node000015"><a xlink:href="cdt-viewer_8cpp.html" target="_top" xlink:title="Views 3D spacetimes.">
<polygon fill="white" stroke="#666666" points="430.5,-140.62 326.75,-140.62 326.75,-119.88 430.5,-119.88 430.5,-140.62"/>
<text xml:space="preserve" text-anchor="middle" x="378.62" y="-127.12" font-family="Helvetica,sans-Serif" font-size="10.00">src/cdt&#45;viewer.cpp</text>
</a>
</g>
</g>
<!-- Node14&#45;&gt;Node15 -->
<g id="edge18_Node000014_Node000015" class="edge">
<title>Node14&#45;&gt;Node15</title>
<g id="a_edge18_Node000014_Node000015"><a xlink:title=" ">
<path fill="none" stroke="#63b8ff" d="M409.01,-173.46C401.23,-162.65 391.8,-149.55 385.53,-140.84"/>
<polygon fill="#63b8ff" stroke="#63b8ff" points="405.99,-175.25 414.67,-181.33 411.67,-171.17 405.99,-175.25"/>
</a>
</g>
</g>
<!-- Node16 -->
<g id="Node000016" class="node">
<title>Node16</title>
<g id="a_Node000016"><a xlink:href="initialize_8cpp.html" target="_top" xlink:title="Generates initial spacetimes.">
<polygon fill="white" stroke="#666666" points="546.38,-140.62 450.88,-140.62 450.88,-119.88 546.38,-119.88 546.38,-140.62"/>
<text xml:space="preserve" text-anchor="middle" x="498.62" y="-127.12" font-family="Helvetica,sans-Serif" font-size="10.00">src/initialize.cpp</text>
</a>
</g>
</g>
<!-- Node14&#45;&gt;Node16 -->
<g id="edge19_Node000014_Node000016" class="edge">
<title>Node14&#45;&gt;Node16</title>
<g id="a_edge19_Node000014_Node000016"><a xlink:title=" ">
<path fill="none" stroke="#63b8ff" d="M443.71,-175.42C457.57,-164.27 475.2,-150.09 486.7,-140.84"/>
<polygon fill="#63b8ff" stroke="#63b8ff" points="441.61,-172.61 436.02,-181.61 446,-178.07 441.61,-172.61"/>
</a>
</g>
</g>
<!-- Node18&#45;&gt;Node2 -->
<g id="edge24_Node000018_Node000002" class="edge">
<title>Node18&#45;&gt;Node2</title>
<g id="a_edge24_Node000018_Node000002"><a xlink:title=" ">
<path fill="none" stroke="#63b8ff" d="M313.47,-354.89C285.86,-343.49 247.7,-327.73 223.34,-317.67"/>
<polygon fill="#63b8ff" stroke="#63b8ff" points="311.87,-358.02 322.45,-358.6 314.54,-351.55 311.87,-358.02"/>
</a>
</g>
</g>
<!-- Node18&#45;&gt;Node4 -->
<g id="edge23_Node000018_Node000004" class="edge">
<title>Node18&#45;&gt;Node4</title>
<g id="a_edge23_Node000018_Node000004"><a xlink:title=" ">
<path fill="none" stroke="#63b8ff" d="M333.82,-349.82C319.02,-327.32 297.62,-288.35 297.62,-251.12 297.62,-251.12 297.62,-251.12 297.62,-192.38 297.62,-148.66 315.39,-98.65 323.58,-77.92"/>
<polygon fill="#63b8ff" stroke="#63b8ff" points="330.85,-351.67 339.39,-357.95 336.63,-347.72 330.85,-351.67"/>
</a>
</g>
</g>
<!-- Node18&#45;&gt;Node12 -->
<g id="edge22_Node000018_Node000012" class="edge">
<title>Node18&#45;&gt;Node12</title>
<g id="a_edge22_Node000018_Node000012"><a xlink:title=" ">
<path fill="none" stroke="#63b8ff" d="M381.45,-354.74C408.47,-343.35 445.63,-327.69 469.39,-317.67"/>
<polygon fill="#63b8ff" stroke="#63b8ff" points="380.17,-351.48 372.32,-358.59 382.89,-357.93 380.17,-351.48"/>
</a>
</g>
</g>
<!-- Node18&#45;&gt;Node15 -->
<g id="edge28_Node000018_Node000015" class="edge">
<title>Node18&#45;&gt;Node15</title>
<g id="a_edge28_Node000018_Node000015"><a xlink:title=" ">
<path fill="none" stroke="#63b8ff" d="M345.76,-348.07C343.25,-313.26 340.56,-241.48 354.62,-183 358.33,-167.59 366.78,-151.23 372.59,-141.12"/>
<polygon fill="#63b8ff" stroke="#63b8ff" points="342.24,-347.94 346.53,-357.63 349.22,-347.38 342.24,-347.94"/>
</a>
</g>
</g>
<!-- Node19 -->
<g id="Node000019" class="node">
<title>Node19</title>
<g id="a_Node000019"><a xlink:href="_runtime__config_8hpp.html" target="_top" xlink:title="Validated runtime configuration for CDT++ command&#45;line programs.">
<polygon fill="white" stroke="#666666" points="651.12,-203.75 500.12,-203.75 500.12,-183 651.12,-183 651.12,-203.75"/>
<text xml:space="preserve" text-anchor="middle" x="575.62" y="-190.25" font-family="Helvetica,sans-Serif" font-size="10.00">include/Runtime_config.hpp</text>
</a>
</g>
</g>
<!-- Node18&#45;&gt;Node19 -->
<g id="edge25_Node000018_Node000019" class="edge">
<title>Node18&#45;&gt;Node19</title>
<g id="a_edge25_Node000018_Node000019"><a xlink:title=" ">
<path fill="none" stroke="#63b8ff" d="M351.59,-348.07C358.15,-319.35 374,-268.07 407.62,-239.75 424.67,-225.4 477.84,-212.52 519.86,-204.18"/>
<polygon fill="#63b8ff" stroke="#63b8ff" points="348.2,-347.21 349.58,-357.71 355.05,-348.64 348.2,-347.21"/>
</a>
</g>
</g>
<!-- Node19&#45;&gt;Node5 -->
<g id="edge26_Node000019_Node000005" class="edge">
<title>Node19&#45;&gt;Node5</title>
<g id="a_edge26_Node000019_Node000005"><a xlink:title=" ">
<path fill="none" stroke="#63b8ff" d="M573.44,-171.32C571,-154.72 565.94,-131.46 555.62,-113.5 532.31,-72.91 488.38,-37.65 465.81,-21.22"/>
<polygon fill="#63b8ff" stroke="#63b8ff" points="569.94,-171.53 574.65,-181.01 576.89,-170.66 569.94,-171.53"/>
</a>
</g>
</g>
<!-- Node19&#45;&gt;Node16 -->
<g id="edge27_Node000019_Node000016" class="edge">
<title>Node19&#45;&gt;Node16</title>
<g id="a_edge27_Node000019_Node000016"><a xlink:title=" ">
<path fill="none" stroke="#63b8ff" d="M554.32,-175.46C540.37,-164.39 522.63,-150.31 510.97,-141.05"/>
<polygon fill="#63b8ff" stroke="#63b8ff" points="552.06,-178.14 562.07,-181.61 556.41,-172.65 552.06,-178.14"/>
</a>
</g>
</g>
</g>
</svg>

<g id="navigator" transform="translate(0 0)" fill="#404254">
  <rect fill="#f2f5e9" fill-opacity="0.5" stroke="#606060" stroke-width=".5" x="0" y="0" width="60" height="60"/>
  <use id="zoomplus" xlink:href="#zoomPlus" x="17" y="9" onmousedown="handleZoom(evt,'in')"/>
  <use id="zoomminus" xlink:href="#zoomMin" x="42" y="9" onmousedown="handleZoom(evt,'out')"/>
  <use id="reset" xlink:href="#resetDef" x="30" y="36" onmousedown="handleReset()"/>
   <use id="arrowup" xlink:href="#arrowUp" x="0" y="0" onmousedown="handlePan(0,-1)"/>
  <use id="arrowright" xlink:href="#arrowRight" x="0" y="0" onmousedown="handlePan(1,0)"/>
  <use id="arrowdown" xlink:href="#arrowDown" x="0" y="0" onmousedown="handlePan(0,1)"/>
  <use id="arrowleft" xlink:href="#arrowLeft" x="0" y="0" onmousedown="handlePan(-1,0)"/>
</g>
<svg viewBox="0 0 15 15" width="100%" height="30px" preserveAspectRatio="xMaxYMin meet">
 <g id="arrow_out" transform="scale(0.3 0.3)">
  <a xlink:href="_settings_8hpp__dep__incl_org.svg" target="_base">
   <rect id="button" ry="5" rx="5" y="6" x="6" height="38" width="38"
        fill="#f2f5e9" fill-opacity="0.5" stroke="#606060" stroke-width="1.0"/>
   <path id="arrow"
     d="M 11.500037,31.436501 C 11.940474,20.09759 22.043105,11.32322 32.158766,21.979434 L 37.068811,17.246167 C 37.068811,17.246167 37.088388,32 37.088388,32 L 22.160133,31.978069 C 22.160133,31.978069 26.997745,27.140456 26.997745,27.140456 C 18.528582,18.264221 13.291696,25.230495 11.500037,31.436501 z"
     style="fill:#404040;"/>
  </a>
 </g>
</svg>

<style type='text/css'>
<![CDATA[
[data-mouse-over-selected='false'] { opacity: 0.7; }
[data-mouse-over-selected='true']  { opacity: 1.0; }
]]>
</style>
<script type="application/ecmascript"><![CDATA[
document.addEventListener('DOMContentLoaded', (event) => {
  highlightEdges();
  highlightAdjacentNodes();
});
]]></script>
</svg>
