<?xml version="1.0" encoding="UTF-8" standalone="no"?>
<!DOCTYPE svg PUBLIC "-//W3C//DTD SVG 1.1//EN"
 "http://www.w3.org/Graphics/SVG/1.1/DTD/svg11.dtd">
<!-- Generated by graphviz version 2.43.0 (0)
 -->
<!-- Title: include/Settings.hpp Pages: 1 -->
<svg width="1616pt" height="587pt"
 viewBox="0.00 0.00 1615.50 587.00" xmlns="http://www.w3.org/2000/svg" xmlns:xlink="http://www.w3.org/1999/xlink">
<g id="graph0" class="graph" transform="scale(1 1) rotate(0) translate(4 583)">
<title>include/Settings.hpp</title>
<polygon fill="white" stroke="transparent" points="-4,4 -4,-583 1611.5,-583 1611.5,4 -4,4"/>
<!-- Node1 -->
<g id="node1" class="node">
<title>Node1</title>
<g id="a_node1"><a xlink:title="Global integer and precision settings.">
<polygon fill="#bfbfbf" stroke="black" points="1161.5,-559.5 1161.5,-578.5 1277.5,-578.5 1277.5,-559.5 1161.5,-559.5"/>
<text text-anchor="middle" x="1219.5" y="-566.5" font-family="Helvetica,sans-Serif" font-size="10.00">include/Settings.hpp</text>
</a>
</g>
</g>
<!-- Node2 -->
<g id="node2" class="node">
<title>Node2</title>
<g id="a_node2"><a xlink:href="_move__tracker_8hpp.html" target="_top" xlink:title="Track ergodic moves.">
<polygon fill="white" stroke="black" points="678,-436.5 678,-455.5 819,-455.5 819,-436.5 678,-436.5"/>
<text text-anchor="middle" x="748.5" y="-443.5" font-family="Helvetica,sans-Serif" font-size="10.00">include/Move_tracker.hpp</text>
</a>
</g>
</g>
<!-- Node1&#45;&gt;Node2 -->
<g id="edge1" class="edge">
<title>Node1&#45;&gt;Node2</title>
<path fill="none" stroke="midnightblue" d="M1168.84,-557.37C1128.31,-548.67 1070.08,-535.77 1019.5,-523 930.67,-500.57 826.59,-470.23 777.25,-455.59"/>
<polygon fill="midnightblue" stroke="midnightblue" points="1168.24,-560.82 1178.75,-559.48 1169.7,-553.97 1168.24,-560.82"/>
</g>
<!-- Node18 -->
<g id="node18" class="node">
<title>Node18</title>
<g id="a_node18"><a xlink:href="_s3_action_8hpp.html" target="_top" xlink:title="Calculate S3 bulk actions on 3D Delaunay Triangulations.">
<polygon fill="white" stroke="black" points="1185,-313.5 1185,-332.5 1304,-332.5 1304,-313.5 1185,-313.5"/>
<text text-anchor="middle" x="1244.5" y="-320.5" font-family="Helvetica,sans-Serif" font-size="10.00">include/S3Action.hpp</text>
</a>
</g>
</g>
<!-- Node1&#45;&gt;Node18 -->
<g id="edge18" class="edge">
<title>Node1&#45;&gt;Node18</title>
<path fill="none" stroke="midnightblue" d="M1249.86,-555.22C1299.35,-532.48 1395.58,-479.73 1432.5,-400 1457.43,-346.17 1368.09,-330.28 1304.11,-325.7"/>
<polygon fill="midnightblue" stroke="midnightblue" points="1248.31,-552.08 1240.62,-559.37 1251.18,-558.47 1248.31,-552.08"/>
</g>
<!-- Node20 -->
<g id="node20" class="node">
<title>Node20</title>
<g id="a_node20"><a xlink:href="_triangulation__traits_8hpp.html" target="_top" xlink:title="Traits class for particular uses of CGAL.">
<polygon fill="white" stroke="black" points="1160.5,-492.5 1160.5,-522.5 1278.5,-522.5 1278.5,-492.5 1160.5,-492.5"/>
<text text-anchor="start" x="1168.5" y="-510.5" font-family="Helvetica,sans-Serif" font-size="10.00">include/Triangulation</text>
<text text-anchor="middle" x="1219.5" y="-499.5" font-family="Helvetica,sans-Serif" font-size="10.00">_traits.hpp</text>
</a>
</g>
</g>
<!-- Node1&#45;&gt;Node20 -->
<g id="edge21" class="edge">
<title>Node1&#45;&gt;Node20</title>
<path fill="none" stroke="midnightblue" d="M1219.5,-549.23C1219.5,-540.59 1219.5,-530.5 1219.5,-522.52"/>
<polygon fill="midnightblue" stroke="midnightblue" points="1216,-549.48 1219.5,-559.48 1223,-549.48 1216,-549.48"/>
</g>
<!-- Node31 -->
<g id="node31" class="node">
<title>Node31</title>
<g id="a_node31"><a xlink:href="_utilities_8hpp.html" target="_top" xlink:title="Utility functions.">
<polygon fill="white" stroke="black" points="1028.5,-498 1028.5,-517 1142.5,-517 1142.5,-498 1028.5,-498"/>
<text text-anchor="middle" x="1085.5" y="-505" font-family="Helvetica,sans-Serif" font-size="10.00">include/Utilities.hpp</text>
</a>
</g>
</g>
<!-- Node1&#45;&gt;Node31 -->
<g id="edge36" class="edge">
<title>Node1&#45;&gt;Node31</title>
<path fill="none" stroke="midnightblue" d="M1190.96,-555.33C1164.95,-543.78 1127.24,-527.03 1104.66,-517.01"/>
<polygon fill="midnightblue" stroke="midnightblue" points="1189.74,-558.62 1200.3,-559.48 1192.58,-552.22 1189.74,-558.62"/>
</g>
<!-- Node32 -->
<g id="node32" class="node">
<title>Node32</title>
<g id="a_node32"><a xlink:href="_settings__test_8cpp.html" target="_top" xlink:title="Global settings on integer types and MPFR precision.">
<polygon fill="white" stroke="black" points="1479.5,-498 1479.5,-517 1607.5,-517 1607.5,-498 1479.5,-498"/>
<text text-anchor="middle" x="1543.5" y="-505" font-family="Helvetica,sans-Serif" font-size="10.00">tests/Settings_test.cpp</text>
</a>
</g>
</g>
<!-- Node1&#45;&gt;Node32 -->
<g id="edge39" class="edge">
<title>Node1&#45;&gt;Node32</title>
<path fill="none" stroke="midnightblue" d="M1276.15,-557.68C1326.02,-548.59 1400.59,-534.97 1465.5,-523 1475.93,-521.08 1487.14,-519 1497.72,-517.03"/>
<polygon fill="midnightblue" stroke="midnightblue" points="1275.42,-554.26 1266.21,-559.5 1276.68,-561.15 1275.42,-554.26"/>
</g>
<!-- Node3 -->
<g id="node3" class="node">
<title>Node3</title>
<g id="a_node3"><a xlink:href="_ergodic__moves__3_8hpp.html" target="_top" xlink:title="Pachner moves on 2+1 dimensional foliated Delaunay triangulations.">
<polygon fill="white" stroke="black" points="226,-246.5 226,-276.5 355,-276.5 355,-246.5 226,-246.5"/>
<text text-anchor="start" x="234" y="-264.5" font-family="Helvetica,sans-Serif" font-size="10.00">include/Ergodic_moves</text>
<text text-anchor="middle" x="290.5" y="-253.5" font-family="Helvetica,sans-Serif" font-size="10.00">_3.hpp</text>
</a>
</g>
</g>
<!-- Node2&#45;&gt;Node3 -->
<g id="edge2" class="edge">
<title>Node2&#45;&gt;Node3</title>
<path fill="none" stroke="midnightblue" d="M710.78,-433.46C683.31,-424.82 645.34,-412.42 612.5,-400 503.9,-358.93 378.11,-302.6 321.23,-276.65"/>
<polygon fill="midnightblue" stroke="midnightblue" points="709.8,-436.82 720.39,-436.46 711.89,-430.14 709.8,-436.82"/>
</g>
<!-- Node17 -->
<g id="node17" class="node">
<title>Node17</title>
<g id="a_node17"><a xlink:href="_move__tracker__test_8cpp.html" target="_top" xlink:title="Tests of MoveTracker, that is, that moves are tracked properly.">
<polygon fill="white" stroke="black" points="373.5,-246.5 373.5,-276.5 483.5,-276.5 483.5,-246.5 373.5,-246.5"/>
<text text-anchor="start" x="381.5" y="-264.5" font-family="Helvetica,sans-Serif" font-size="10.00">tests/Move_tracker</text>
<text text-anchor="middle" x="428.5" y="-253.5" font-family="Helvetica,sans-Serif" font-size="10.00">_test.cpp</text>
</a>
</g>
</g>
<!-- Node2&#45;&gt;Node17 -->
<g id="edge17" class="edge">
<title>Node2&#45;&gt;Node17</title>
<path fill="none" stroke="midnightblue" d="M724.53,-431.33C665.51,-397.67 513.58,-311.02 453.49,-276.75"/>
<polygon fill="midnightblue" stroke="midnightblue" points="723.07,-434.53 733.49,-436.44 726.54,-428.45 723.07,-434.53"/>
</g>
<!-- Node4 -->
<g id="node4" class="node">
<title>Node4</title>
<g id="a_node4"><a xlink:href="_move__command_8hpp.html" target="_top" xlink:title="Do ergodic moves using the Command pattern.">
<polygon fill="white" stroke="black" points="41,-185 41,-204 198,-204 198,-185 41,-185"/>
<text text-anchor="middle" x="119.5" y="-192" font-family="Helvetica,sans-Serif" font-size="10.00">include/Move_command.hpp</text>
</a>
</g>
</g>
<!-- Node3&#45;&gt;Node4 -->
<g id="edge3" class="edge">
<title>Node3&#45;&gt;Node4</title>
<path fill="none" stroke="midnightblue" d="M243.89,-242.78C210.74,-230.18 167.66,-213.81 141.88,-204.01"/>
<polygon fill="midnightblue" stroke="midnightblue" points="242.8,-246.11 253.4,-246.4 245.29,-239.57 242.8,-246.11"/>
</g>
<!-- Node13 -->
<g id="node13" class="node">
<title>Node13</title>
<g id="a_node13"><a xlink:href="bistellar_8cpp.html" target="_top" xlink:title="Example bistellar fip.">
<polygon fill="white" stroke="black" points="883,-185 883,-204 976,-204 976,-185 883,-185"/>
<text text-anchor="middle" x="929.5" y="-192" font-family="Helvetica,sans-Serif" font-size="10.00">src/bistellar.cpp</text>
</a>
</g>
</g>
<!-- Node3&#45;&gt;Node13 -->
<g id="edge13" class="edge">
<title>Node3&#45;&gt;Node13</title>
<path fill="none" stroke="midnightblue" d="M365.03,-246.03C563.44,-218.28 787.47,-203.52 882.8,-198.02"/>
<polygon fill="midnightblue" stroke="midnightblue" points="364.42,-242.58 355.01,-247.45 365.4,-249.52 364.42,-242.58"/>
</g>
<!-- Node14 -->
<g id="node14" class="node">
<title>Node14</title>
<g id="a_node14"><a xlink:href="_apply__move__test_8cpp.html" target="_top" xlink:title="Applying ergodic moves to manifolds.">
<polygon fill="white" stroke="black" points="216,-185 216,-204 365,-204 365,-185 216,-185"/>
<text text-anchor="middle" x="290.5" y="-192" font-family="Helvetica,sans-Serif" font-size="10.00">tests/Apply_move_test.cpp</text>
</a>
</g>
</g>
<!-- Node3&#45;&gt;Node14 -->
<g id="edge14" class="edge">
<title>Node3&#45;&gt;Node14</title>
<path fill="none" stroke="midnightblue" d="M290.5,-236.25C290.5,-225.02 290.5,-212.38 290.5,-204.19"/>
<polygon fill="midnightblue" stroke="midnightblue" points="287,-236.4 290.5,-246.4 294,-236.4 287,-236.4"/>
</g>
<!-- Node15 -->
<g id="node15" class="node">
<title>Node15</title>
<g id="a_node15"><a xlink:href="_ergodic__moves__3__test_8cpp.html" target="_top" xlink:title="Tests for ergodic moves on foliated triangulations.">
<polygon fill="white" stroke="black" points="383.5,-179.5 383.5,-209.5 501.5,-209.5 501.5,-179.5 383.5,-179.5"/>
<text text-anchor="start" x="391.5" y="-197.5" font-family="Helvetica,sans-Serif" font-size="10.00">tests/Ergodic_moves</text>
<text text-anchor="middle" x="442.5" y="-186.5" font-family="Helvetica,sans-Serif" font-size="10.00">_3_test.cpp</text>
</a>
</g>
</g>
<!-- Node3&#45;&gt;Node15 -->
<g id="edge15" class="edge">
<title>Node3&#45;&gt;Node15</title>
<path fill="none" stroke="midnightblue" d="M332.81,-242.41C357.08,-232.03 387.09,-219.2 409.58,-209.58"/>
<polygon fill="midnightblue" stroke="midnightblue" points="331.3,-239.25 323.48,-246.4 334.05,-245.68 331.3,-239.25"/>
</g>
<!-- Node16 -->
<g id="node16" class="node">
<title>Node16</title>
<g id="a_node16"><a xlink:href="_function__ref__test_8cpp.html" target="_top" xlink:title="Tests on function pointers, lambdas, and function_refs.">
<polygon fill="white" stroke="black" points="519.5,-179.5 519.5,-209.5 623.5,-209.5 623.5,-179.5 519.5,-179.5"/>
<text text-anchor="start" x="527.5" y="-197.5" font-family="Helvetica,sans-Serif" font-size="10.00">tests/Function_ref</text>
<text text-anchor="middle" x="571.5" y="-186.5" font-family="Helvetica,sans-Serif" font-size="10.00">_test.cpp</text>
</a>
</g>
</g>
<!-- Node3&#45;&gt;Node16 -->
<g id="edge16" class="edge">
<title>Node3&#45;&gt;Node16</title>
<path fill="none" stroke="midnightblue" d="M361.99,-244.24C405.04,-234.41 460.94,-221.58 510.5,-210 513.36,-209.33 516.3,-208.64 519.26,-207.95"/>
<polygon fill="midnightblue" stroke="midnightblue" points="361.14,-240.84 352.17,-246.48 362.7,-247.67 361.14,-240.84"/>
</g>
<!-- Node5 -->
<g id="node5" class="node">
<title>Node5</title>
<g id="a_node5"><a xlink:href="_move__strategy_8hpp.html" target="_top" xlink:title="Template class for move algorithms (strategies) on manifolds.">
<polygon fill="white" stroke="black" points="46,-118 46,-137 193,-137 193,-118 46,-118"/>
<text text-anchor="middle" x="119.5" y="-125" font-family="Helvetica,sans-Serif" font-size="10.00">include/Move_strategy.hpp</text>
</a>
</g>
</g>
<!-- Node4&#45;&gt;Node5 -->
<g id="edge4" class="edge">
<title>Node4&#45;&gt;Node5</title>
<path fill="none" stroke="midnightblue" d="M119.5,-174.54C119.5,-162.17 119.5,-146.62 119.5,-137.13"/>
<polygon fill="midnightblue" stroke="midnightblue" points="116,-174.73 119.5,-184.73 123,-174.73 116,-174.73"/>
</g>
<!-- Node12 -->
<g id="node12" class="node">
<title>Node12</title>
<g id="a_node12"><a xlink:href="_move__command__test_8cpp.html" target="_top" xlink:title="Tests of MoveCommand, that is, that moves are handled properly.">
<polygon fill="white" stroke="black" points="211,-112.5 211,-142.5 336,-142.5 336,-112.5 211,-112.5"/>
<text text-anchor="start" x="219" y="-130.5" font-family="Helvetica,sans-Serif" font-size="10.00">tests/Move_command</text>
<text text-anchor="middle" x="273.5" y="-119.5" font-family="Helvetica,sans-Serif" font-size="10.00">_test.cpp</text>
</a>
</g>
</g>
<!-- Node4&#45;&gt;Node12 -->
<g id="edge12" class="edge">
<title>Node4&#45;&gt;Node12</title>
<path fill="none" stroke="midnightblue" d="M149.32,-180.91C175.4,-169.91 213.22,-153.94 240.26,-142.53"/>
<polygon fill="midnightblue" stroke="midnightblue" points="147.8,-177.76 139.95,-184.87 150.52,-184.2 147.8,-177.76"/>
</g>
<!-- Node6 -->
<g id="node6" class="node">
<title>Node6</title>
<g id="a_node6"><a xlink:href="_metropolis_8hpp.html" target="_top" xlink:title="Perform Metropolis&#45;Hastings algorithm on Delaunay Triangulations.">
<polygon fill="white" stroke="black" points="250.5,-56.5 250.5,-75.5 378.5,-75.5 378.5,-56.5 250.5,-56.5"/>
<text text-anchor="middle" x="314.5" y="-63.5" font-family="Helvetica,sans-Serif" font-size="10.00">include/Metropolis.hpp</text>
</a>
</g>
</g>
<!-- Node5&#45;&gt;Node6 -->
<g id="edge5" class="edge">
<title>Node5&#45;&gt;Node6</title>
<path fill="none" stroke="midnightblue" d="M157.1,-115.03C194.99,-103.46 252.61,-85.88 286.61,-75.51"/>
<polygon fill="midnightblue" stroke="midnightblue" points="155.98,-111.71 147.44,-117.98 158.02,-118.4 155.98,-111.71"/>
</g>
<!-- Node10 -->
<g id="node10" class="node">
<title>Node10</title>
<g id="a_node10"><a xlink:href="_move__always_8hpp.html" target="_top" xlink:title="Randomly selects moves to always perform on triangulations.">
<polygon fill="white" stroke="black" points="48,-56.5 48,-75.5 191,-75.5 191,-56.5 48,-56.5"/>
<text text-anchor="middle" x="119.5" y="-63.5" font-family="Helvetica,sans-Serif" font-size="10.00">include/Move_always.hpp</text>
</a>
</g>
</g>
<!-- Node5&#45;&gt;Node10 -->
<g id="edge9" class="edge">
<title>Node5&#45;&gt;Node10</title>
<path fill="none" stroke="midnightblue" d="M119.5,-107.82C119.5,-97 119.5,-83.9 119.5,-75.51"/>
<polygon fill="midnightblue" stroke="midnightblue" points="116,-107.98 119.5,-117.98 123,-107.98 116,-107.98"/>
</g>
<!-- Node7 -->
<g id="node7" class="node">
<title>Node7</title>
<g id="a_node7"><a xlink:href="cdt-opt_8cpp.html" target="_top" xlink:title="Outputs values to determine optimizations.">
<polygon fill="white" stroke="black" points="173,-0.5 173,-19.5 262,-19.5 262,-0.5 173,-0.5"/>
<text text-anchor="middle" x="217.5" y="-7.5" font-family="Helvetica,sans-Serif" font-size="10.00">src/cdt&#45;opt.cpp</text>
</a>
</g>
</g>
<!-- Node6&#45;&gt;Node7 -->
<g id="edge6" class="edge">
<title>Node6&#45;&gt;Node7</title>
<path fill="none" stroke="midnightblue" d="M290.16,-51.45C272.26,-41.48 248.45,-28.23 233.05,-19.65"/>
<polygon fill="midnightblue" stroke="midnightblue" points="288.48,-54.52 298.92,-56.32 291.88,-48.4 288.48,-54.52"/>
</g>
<!-- Node8 -->
<g id="node8" class="node">
<title>Node8</title>
<g id="a_node8"><a xlink:href="cdt_8cpp.html" target="_top" xlink:title="The main executable.">
<polygon fill="white" stroke="black" points="280,-0.5 280,-19.5 349,-19.5 349,-0.5 280,-0.5"/>
<text text-anchor="middle" x="314.5" y="-7.5" font-family="Helvetica,sans-Serif" font-size="10.00">src/cdt.cpp</text>
</a>
</g>
</g>
<!-- Node6&#45;&gt;Node8 -->
<g id="edge7" class="edge">
<title>Node6&#45;&gt;Node8</title>
<path fill="none" stroke="midnightblue" d="M314.5,-45.8C314.5,-36.91 314.5,-26.78 314.5,-19.75"/>
<polygon fill="midnightblue" stroke="midnightblue" points="311,-46.08 314.5,-56.08 318,-46.08 311,-46.08"/>
</g>
<!-- Node9 -->
<g id="node9" class="node">
<title>Node9</title>
<g id="a_node9"><a xlink:href="_metropolis__test_8cpp.html" target="_top" xlink:title="Tests for the Metropolis&#45;Hastings algorithm.">
<polygon fill="white" stroke="black" points="367.5,-0.5 367.5,-19.5 507.5,-19.5 507.5,-0.5 367.5,-0.5"/>
<text text-anchor="middle" x="437.5" y="-7.5" font-family="Helvetica,sans-Serif" font-size="10.00">tests/Metropolis_test.cpp</text>
</a>
</g>
</g>
<!-- Node6&#45;&gt;Node9 -->
<g id="edge8" class="edge">
<title>Node6&#45;&gt;Node9</title>
<path fill="none" stroke="midnightblue" d="M343.27,-52.37C366.31,-42.26 397.98,-28.35 418.1,-19.52"/>
<polygon fill="midnightblue" stroke="midnightblue" points="341.74,-49.22 333.99,-56.44 344.55,-55.63 341.74,-49.22"/>
</g>
<!-- Node10&#45;&gt;Node7 -->
<g id="edge10" class="edge">
<title>Node10&#45;&gt;Node7</title>
<path fill="none" stroke="midnightblue" d="M144.09,-51.45C162.18,-41.48 186.23,-28.23 201.79,-19.65"/>
<polygon fill="midnightblue" stroke="midnightblue" points="142.31,-48.43 135.25,-56.32 145.69,-54.56 142.31,-48.43"/>
</g>
<!-- Node11 -->
<g id="node11" class="node">
<title>Node11</title>
<g id="a_node11"><a xlink:href="_move__always__test_8cpp.html" target="_top" xlink:title="Tests for the Move Always algorithm.">
<polygon fill="white" stroke="black" points="0,-0.5 0,-19.5 155,-19.5 155,-0.5 0,-0.5"/>
<text text-anchor="middle" x="77.5" y="-7.5" font-family="Helvetica,sans-Serif" font-size="10.00">tests/Move_always_test.cpp</text>
</a>
</g>
</g>
<!-- Node10&#45;&gt;Node11 -->
<g id="edge11" class="edge">
<title>Node10&#45;&gt;Node11</title>
<path fill="none" stroke="midnightblue" d="M106.39,-48.14C99.07,-38.74 90.26,-27.4 84.31,-19.75"/>
<polygon fill="midnightblue" stroke="midnightblue" points="103.66,-50.34 112.56,-56.08 109.19,-46.04 103.66,-50.34"/>
</g>
<!-- Node18&#45;&gt;Node6 -->
<g id="edge19" class="edge">
<title>Node18&#45;&gt;Node6</title>
<path fill="none" stroke="midnightblue" d="M1239.76,-303.28C1234.45,-286.02 1224.18,-260.89 1206.5,-246 1127.68,-179.6 1084.86,-202.43 984.5,-179 764.57,-127.65 498.76,-90.45 378.78,-74.97"/>
<polygon fill="midnightblue" stroke="midnightblue" points="1236.5,-304.61 1242.56,-313.3 1243.24,-302.73 1236.5,-304.61"/>
</g>
<!-- Node19 -->
<g id="node19" class="node">
<title>Node19</title>
<g id="a_node19"><a xlink:href="_s3_action__test_8cpp.html" target="_top" xlink:title="Tests for the S3 action functions.">
<polygon fill="white" stroke="black" points="1047,-252 1047,-271 1178,-271 1178,-252 1047,-252"/>
<text text-anchor="middle" x="1112.5" y="-259" font-family="Helvetica,sans-Serif" font-size="10.00">tests/S3Action_test.cpp</text>
</a>
</g>
</g>
<!-- Node18&#45;&gt;Node19 -->
<g id="edge20" class="edge">
<title>Node18&#45;&gt;Node19</title>
<path fill="none" stroke="midnightblue" d="M1216.39,-309.33C1190.76,-297.78 1153.61,-281.03 1131.38,-271.01"/>
<polygon fill="midnightblue" stroke="midnightblue" points="1215.03,-312.56 1225.59,-313.48 1217.91,-306.17 1215.03,-312.56"/>
</g>
<!-- Node21 -->
<g id="node21" class="node">
<title>Node21</title>
<g id="a_node21"><a xlink:href="_foliated__triangulation_8hpp.html" target="_top" xlink:title="Create foliated spherical triangulations.">
<polygon fill="white" stroke="black" points="1041.5,-436.5 1041.5,-455.5 1223.5,-455.5 1223.5,-436.5 1041.5,-436.5"/>
<text text-anchor="middle" x="1132.5" y="-443.5" font-family="Helvetica,sans-Serif" font-size="10.00">include/Foliated_triangulation.hpp</text>
</a>
</g>
</g>
<!-- Node20&#45;&gt;Node21 -->
<g id="edge22" class="edge">
<title>Node20&#45;&gt;Node21</title>
<path fill="none" stroke="midnightblue" d="M1190.23,-486.48C1174.91,-476 1156.93,-463.71 1145.16,-455.66"/>
<polygon fill="midnightblue" stroke="midnightblue" points="1188.65,-489.64 1198.88,-492.4 1192.6,-483.87 1188.65,-489.64"/>
</g>
<!-- Node21&#45;&gt;Node13 -->
<g id="edge33" class="edge">
<title>Node21&#45;&gt;Node13</title>
<path fill="none" stroke="midnightblue" d="M1117.05,-428.55C1110.6,-420.57 1103.84,-410.46 1100.5,-400 1096.31,-386.88 1095.44,-381.82 1100.5,-369 1124.98,-306.95 1228.88,-297.51 1186.5,-246 1160.36,-214.22 1042.71,-202.13 976.02,-197.78"/>
<polygon fill="midnightblue" stroke="midnightblue" points="1114.56,-431.02 1123.75,-436.29 1119.85,-426.44 1114.56,-431.02"/>
</g>
<!-- Node22 -->
<g id="node22" class="node">
<title>Node22</title>
<g id="a_node22"><a xlink:href="_geometry_8hpp.html" target="_top" xlink:title="Geometric quantities of Manifold used by MoveAlgorithm.">
<polygon fill="white" stroke="black" points="898,-375 898,-394 1021,-394 1021,-375 898,-375"/>
<text text-anchor="middle" x="959.5" y="-382" font-family="Helvetica,sans-Serif" font-size="10.00">include/Geometry.hpp</text>
</a>
</g>
</g>
<!-- Node21&#45;&gt;Node22 -->
<g id="edge23" class="edge">
<title>Node21&#45;&gt;Node22</title>
<path fill="none" stroke="midnightblue" d="M1097.85,-433.08C1064.22,-421.52 1014.02,-404.25 984.24,-394.01"/>
<polygon fill="midnightblue" stroke="midnightblue" points="1097.12,-436.53 1107.71,-436.48 1099.4,-429.91 1097.12,-436.53"/>
</g>
<!-- Node29 -->
<g id="node29" class="node">
<title>Node29</title>
<g id="a_node29"><a xlink:href="_foliated__triangulation__test_8cpp.html" target="_top" xlink:title="Tests for foliated triangulations.">
<polygon fill="white" stroke="black" points="1109.5,-369.5 1109.5,-399.5 1259.5,-399.5 1259.5,-369.5 1109.5,-369.5"/>
<text text-anchor="start" x="1117.5" y="-387.5" font-family="Helvetica,sans-Serif" font-size="10.00">tests/Foliated_triangulation</text>
<text text-anchor="middle" x="1184.5" y="-376.5" font-family="Helvetica,sans-Serif" font-size="10.00">_test.cpp</text>
</a>
</g>
</g>
<!-- Node21&#45;&gt;Node29 -->
<g id="edge34" class="edge">
<title>Node21&#45;&gt;Node29</title>
<path fill="none" stroke="midnightblue" d="M1146.65,-428.81C1154.66,-419.65 1164.57,-408.3 1172.24,-399.52"/>
<polygon fill="midnightblue" stroke="midnightblue" points="1143.9,-426.64 1139.95,-436.48 1149.17,-431.25 1143.9,-426.64"/>
</g>
<!-- Node30 -->
<g id="node30" class="node">
<title>Node30</title>
<g id="a_node30"><a xlink:href="_tetrahedron__test_8cpp.html" target="_top" xlink:title="Tests for 3D triangulated and foliated tetrahedrons.">
<polygon fill="white" stroke="black" points="1277.5,-375 1277.5,-394 1423.5,-394 1423.5,-375 1277.5,-375"/>
<text text-anchor="middle" x="1350.5" y="-382" font-family="Helvetica,sans-Serif" font-size="10.00">tests/Tetrahedron_test.cpp</text>
</a>
</g>
</g>
<!-- Node21&#45;&gt;Node30 -->
<g id="edge35" class="edge">
<title>Node21&#45;&gt;Node30</title>
<path fill="none" stroke="midnightblue" d="M1173.45,-433.82C1215.8,-422.26 1280.98,-404.47 1319.32,-394.01"/>
<polygon fill="midnightblue" stroke="midnightblue" points="1172.46,-430.47 1163.73,-436.48 1174.3,-437.22 1172.46,-430.47"/>
</g>
<!-- Node23 -->
<g id="node23" class="node">
<title>Node23</title>
<g id="a_node23"><a xlink:href="_manifold_8hpp.html" target="_top" xlink:title="Data structures for manifolds.">
<polygon fill="white" stroke="black" points="638,-313.5 638,-332.5 757,-332.5 757,-313.5 638,-313.5"/>
<text text-anchor="middle" x="697.5" y="-320.5" font-family="Helvetica,sans-Serif" font-size="10.00">include/Manifold.hpp</text>
</a>
</g>
</g>
<!-- Node22&#45;&gt;Node23 -->
<g id="edge24" class="edge">
<title>Node22&#45;&gt;Node23</title>
<path fill="none" stroke="midnightblue" d="M912.2,-372.76C861.38,-361.22 781.63,-343.11 734.97,-332.51"/>
<polygon fill="midnightblue" stroke="midnightblue" points="911.43,-376.17 921.96,-374.98 912.99,-369.35 911.43,-376.17"/>
</g>
<!-- Node28 -->
<g id="node28" class="node">
<title>Node28</title>
<g id="a_node28"><a xlink:href="_geometry__test_8cpp.html" target="_top" xlink:title="Tests of new geometry data structure.">
<polygon fill="white" stroke="black" points="891,-313.5 891,-332.5 1028,-332.5 1028,-313.5 891,-313.5"/>
<text text-anchor="middle" x="959.5" y="-320.5" font-family="Helvetica,sans-Serif" font-size="10.00">tests/Geometry_test.cpp</text>
</a>
</g>
</g>
<!-- Node22&#45;&gt;Node28 -->
<g id="edge32" class="edge">
<title>Node22&#45;&gt;Node28</title>
<path fill="none" stroke="midnightblue" d="M959.5,-364.82C959.5,-354 959.5,-340.9 959.5,-332.51"/>
<polygon fill="midnightblue" stroke="midnightblue" points="956,-364.98 959.5,-374.98 963,-364.98 956,-364.98"/>
</g>
<!-- Node23&#45;&gt;Node3 -->
<g id="edge25" class="edge">
<title>Node23&#45;&gt;Node3</title>
<path fill="none" stroke="midnightblue" d="M627.7,-313.79C560.2,-305.56 455.1,-291.99 364.5,-277 361.4,-276.49 358.23,-275.94 355.03,-275.38"/>
<polygon fill="midnightblue" stroke="midnightblue" points="627.44,-317.28 637.79,-315.01 628.28,-310.33 627.44,-317.28"/>
</g>
<!-- Node23&#45;&gt;Node17 -->
<g id="edge28" class="edge">
<title>Node23&#45;&gt;Node17</title>
<path fill="none" stroke="midnightblue" d="M648.32,-311.3C606.78,-302.24 545.72,-288.87 492.5,-277 489.61,-276.36 486.64,-275.69 483.65,-275.02"/>
<polygon fill="midnightblue" stroke="midnightblue" points="647.67,-314.74 658.18,-313.45 649.16,-307.9 647.67,-314.74"/>
</g>
<!-- Node23&#45;&gt;Node19 -->
<g id="edge29" class="edge">
<title>Node23&#45;&gt;Node19</title>
<path fill="none" stroke="midnightblue" d="M767.52,-313.96C836.39,-305.77 944.43,-292.14 1037.5,-277 1048.23,-275.25 1059.79,-273.14 1070.53,-271.07"/>
<polygon fill="midnightblue" stroke="midnightblue" points="766.75,-310.53 757.23,-315.18 767.58,-317.48 766.75,-310.53"/>
</g>
<!-- Node24 -->
<g id="node24" class="node">
<title>Node24</title>
<g id="a_node24"><a xlink:href="initialize_8cpp.html" target="_top" xlink:title="Generates initial spacetimes.">
<polygon fill="white" stroke="black" points="501.5,-252 501.5,-271 597.5,-271 597.5,-252 501.5,-252"/>
<text text-anchor="middle" x="549.5" y="-259" font-family="Helvetica,sans-Serif" font-size="10.00">src/initialize.cpp</text>
</a>
</g>
</g>
<!-- Node23&#45;&gt;Node24 -->
<g id="edge26" class="edge">
<title>Node23&#45;&gt;Node24</title>
<path fill="none" stroke="midnightblue" d="M666.73,-309.63C637.98,-298.07 595.82,-281.12 570.67,-271.01"/>
<polygon fill="midnightblue" stroke="midnightblue" points="665.71,-312.99 676.3,-313.48 668.32,-306.5 665.71,-312.99"/>
</g>
<!-- Node25 -->
<g id="node25" class="node">
<title>Node25</title>
<g id="a_node25"><a xlink:href="_manifold__test_8cpp.html" target="_top" xlink:title="Tests of new manifold data structure.">
<polygon fill="white" stroke="black" points="616,-252 616,-271 747,-271 747,-252 616,-252"/>
<text text-anchor="middle" x="681.5" y="-259" font-family="Helvetica,sans-Serif" font-size="10.00">tests/Manifold_test.cpp</text>
</a>
</g>
</g>
<!-- Node23&#45;&gt;Node25 -->
<g id="edge27" class="edge">
<title>Node23&#45;&gt;Node25</title>
<path fill="none" stroke="midnightblue" d="M692.57,-303.66C689.64,-292.77 686.07,-279.49 683.79,-271.01"/>
<polygon fill="midnightblue" stroke="midnightblue" points="689.23,-304.73 695.21,-313.48 695.99,-302.91 689.23,-304.73"/>
</g>
<!-- Node26 -->
<g id="node26" class="node">
<title>Node26</title>
<g id="a_node26"><a xlink:href="_utilities__test_8cpp.html" target="_top" xlink:title="Tests on utility functions.">
<polygon fill="white" stroke="black" points="765.5,-252 765.5,-271 891.5,-271 891.5,-252 765.5,-252"/>
<text text-anchor="middle" x="828.5" y="-259" font-family="Helvetica,sans-Serif" font-size="10.00">tests/Utilities_test.cpp</text>
</a>
</g>
</g>
<!-- Node23&#45;&gt;Node26 -->
<g id="edge30" class="edge">
<title>Node23&#45;&gt;Node26</title>
<path fill="none" stroke="midnightblue" d="M725.4,-309.33C750.83,-297.78 787.7,-281.03 809.77,-271.01"/>
<polygon fill="midnightblue" stroke="midnightblue" points="723.93,-306.15 716.27,-313.48 726.82,-312.53 723.93,-306.15"/>
</g>
<!-- Node27 -->
<g id="node27" class="node">
<title>Node27</title>
<g id="a_node27"><a xlink:href="_vertex__test_8cpp.html" target="_top" xlink:title="Tests on points and vertices in foliated Delaunay triangulations.">
<polygon fill="white" stroke="black" points="910,-252 910,-271 1029,-271 1029,-252 910,-252"/>
<text text-anchor="middle" x="969.5" y="-259" font-family="Helvetica,sans-Serif" font-size="10.00">tests/Vertex_test.cpp</text>
</a>
</g>
</g>
<!-- Node23&#45;&gt;Node27 -->
<g id="edge31" class="edge">
<title>Node23&#45;&gt;Node27</title>
<path fill="none" stroke="midnightblue" d="M746.28,-311.33C799.02,-299.79 882.06,-281.63 930.6,-271.01"/>
<polygon fill="midnightblue" stroke="midnightblue" points="745.49,-307.92 736.47,-313.48 746.99,-314.76 745.49,-307.92"/>
</g>
<!-- Node31&#45;&gt;Node2 -->
<g id="edge38" class="edge">
<title>Node31&#45;&gt;Node2</title>
<path fill="none" stroke="midnightblue" d="M1027.09,-496.19C961.86,-484.67 857.46,-466.24 796.69,-455.51"/>
<polygon fill="midnightblue" stroke="midnightblue" points="1026.76,-499.68 1037.22,-497.98 1027.98,-492.79 1026.76,-499.68"/>
</g>
<!-- Node31&#45;&gt;Node21 -->
<g id="edge37" class="edge">
<title>Node31&#45;&gt;Node21</title>
<path fill="none" stroke="midnightblue" d="M1098.66,-489.84C1107.48,-478.67 1118.73,-464.43 1125.78,-455.51"/>
<polygon fill="midnightblue" stroke="midnightblue" points="1095.69,-487.96 1092.23,-497.98 1101.18,-492.3 1095.69,-487.96"/>
</g>
</g>
</svg>
