<?xml version="1.0" encoding="UTF-8" standalone="no"?>
<!DOCTYPE svg PUBLIC "-//W3C//DTD SVG 1.1//EN"
 "http://www.w3.org/Graphics/SVG/1.1/DTD/svg11.dtd">
<!-- Generated by graphviz version 15.1.0 (20260618.0150)
 -->
<!-- Title: include/Settings.hpp Pages: 1 -->
<svg width="767pt" height="452pt"
 viewBox="0.00 0.00 767.00 452.00" xmlns="http://www.w3.org/2000/svg" xmlns:xlink="http://www.w3.org/1999/xlink">
<g id="graph0" class="graph" transform="scale(1 1) rotate(0) translate(4 447.5)">
<title>include/Settings.hpp</title>
<!-- Node1 -->
<g id="Node000001" class="node">
<title>Node1</title>
<g id="a_Node000001"><a xlink:title="Global integer and precision settings.">
<polygon fill="#999999" stroke="#666666" points="402.5,-443.5 287.5,-443.5 287.5,-422.75 402.5,-422.75 402.5,-443.5"/>
<text xml:space="preserve" text-anchor="middle" x="345" y="-430" font-family="Helvetica,sans-Serif" font-size="10.00">include/Settings.hpp</text>
</a>
</g>
</g>
<!-- Node2 -->
<g id="Node000002" class="node">
<title>Node2</title>
<g id="a_Node000002"><a xlink:href="_move__tracker_8hpp.html" target="_top" xlink:title="Track ergodic moves.">
<polygon fill="white" stroke="#666666" points="679.25,-260.5 538.75,-260.5 538.75,-239.75 679.25,-239.75 679.25,-260.5"/>
<text xml:space="preserve" text-anchor="middle" x="609" y="-247" font-family="Helvetica,sans-Serif" font-size="10.00">include/Move_tracker.hpp</text>
</a>
</g>
</g>
<!-- Node1&#45;&gt;Node2 -->
<g id="edge1_Node000001_Node000002" class="edge">
<title>Node1&#45;&gt;Node2</title>
<g id="a_edge1_Node000001_Node000002"><a xlink:title=" ">
<path fill="none" stroke="#63b8ff" d="M414.3,-429.71C490.73,-422.87 610.27,-398.84 666,-317.25 680.7,-295.72 649.92,-273.27 628.13,-260.86"/>
<polygon fill="#63b8ff" stroke="#63b8ff" points="414.07,-426.22 404.39,-430.52 414.64,-433.2 414.07,-426.22"/>
</a>
</g>
</g>
<!-- Node10 -->
<g id="Node000010" class="node">
<title>Node10</title>
<g id="a_Node000010"><a xlink:href="_mpfr__value_8hpp.html" target="_top" xlink:title="Scope&#45;owned, value&#45;returning MPFR operations.">
<polygon fill="white" stroke="#666666" points="188,-380.38 58,-380.38 58,-359.62 188,-359.62 188,-380.38"/>
<text xml:space="preserve" text-anchor="middle" x="123" y="-366.88" font-family="Helvetica,sans-Serif" font-size="10.00">include/Mpfr_value.hpp</text>
</a>
</g>
</g>
<!-- Node1&#45;&gt;Node10 -->
<g id="edge12_Node000001_Node000010" class="edge">
<title>Node1&#45;&gt;Node10</title>
<g id="a_edge12_Node000001_Node000010"><a xlink:title=" ">
<path fill="none" stroke="#63b8ff" d="M298.36,-419.28C256.68,-407.81 196.49,-391.24 158.58,-380.8"/>
<polygon fill="#63b8ff" stroke="#63b8ff" points="297.3,-422.62 307.87,-421.9 299.16,-415.87 297.3,-422.62"/>
</a>
</g>
</g>
<!-- Node12 -->
<g id="Node000012" class="node">
<title>Node12</title>
<g id="a_Node000012"><a xlink:href="_triangulation__traits_8hpp.html" target="_top" xlink:title="Traits class for particular uses of CGAL.">
<polygon fill="white" stroke="#666666" points="478.62,-386.75 361.38,-386.75 361.38,-353.25 478.62,-353.25 478.62,-386.75"/>
<text xml:space="preserve" text-anchor="start" x="369.38" y="-373.25" font-family="Helvetica,sans-Serif" font-size="10.00">include/Triangulation</text>
<text xml:space="preserve" text-anchor="middle" x="420" y="-360.5" font-family="Helvetica,sans-Serif" font-size="10.00">_traits.hpp</text>
</a>
</g>
</g>
<!-- Node1&#45;&gt;Node12 -->
<g id="edge15_Node000001_Node000012" class="edge">
<title>Node1&#45;&gt;Node12</title>
<g id="a_edge15_Node000001_Node000012"><a xlink:title=" ">
<path fill="none" stroke="#63b8ff" d="M365.76,-415.21C376.47,-406.47 389.49,-395.87 400.08,-387.23"/>
<polygon fill="#63b8ff" stroke="#63b8ff" points="363.76,-412.32 358.22,-421.35 368.19,-417.74 363.76,-412.32"/>
</a>
</g>
</g>
<!-- Node19 -->
<g id="Node000019" class="node">
<title>Node19</title>
<g id="a_Node000019"><a xlink:href="_utilities_8hpp.html" target="_top" xlink:title="Utility functions.">
<polygon fill="white" stroke="#666666" points="335.75,-380.38 222.25,-380.38 222.25,-359.62 335.75,-359.62 335.75,-380.38"/>
<text xml:space="preserve" text-anchor="middle" x="279" y="-366.88" font-family="Helvetica,sans-Serif" font-size="10.00">include/Utilities.hpp</text>
</a>
</g>
</g>
<!-- Node1&#45;&gt;Node19 -->
<g id="edge23_Node000001_Node000019" class="edge">
<title>Node1&#45;&gt;Node19</title>
<g id="a_edge23_Node000001_Node000019"><a xlink:title=" ">
<path fill="none" stroke="#63b8ff" d="M325.99,-414.52C314.07,-403.48 299.15,-389.66 289.36,-380.59"/>
<polygon fill="#63b8ff" stroke="#63b8ff" points="323.57,-417.05 333.29,-421.28 328.33,-411.91 323.57,-417.05"/>
</a>
</g>
</g>
<!-- Node3 -->
<g id="Node000003" class="node">
<title>Node3</title>
<g id="a_Node000003"><a xlink:href="_ergodic__moves__3_8hpp.html" target="_top" xlink:title="Pachner moves on 2+1 dimensional foliated Delaunay triangulations.">
<polygon fill="white" stroke="#666666" points="617.25,-147 488.75,-147 488.75,-113.5 617.25,-113.5 617.25,-147"/>
<text xml:space="preserve" text-anchor="start" x="496.75" y="-133.5" font-family="Helvetica,sans-Serif" font-size="10.00">include/Ergodic_moves</text>
<text xml:space="preserve" text-anchor="middle" x="553" y="-120.75" font-family="Helvetica,sans-Serif" font-size="10.00">_3.hpp</text>
</a>
</g>
</g>
<!-- Node2&#45;&gt;Node3 -->
<g id="edge2_Node000002_Node000003" class="edge">
<title>Node2&#45;&gt;Node3</title>
<g id="a_edge2_Node000002_Node000003"><a xlink:title=" ">
<path fill="none" stroke="#63b8ff" d="M562.44,-234.76C547.86,-227.82 533.4,-217.84 525,-203.75 514.15,-185.56 527.14,-162.41 538.81,-147.23"/>
<polygon fill="#63b8ff" stroke="#63b8ff" points="561.04,-237.96 571.61,-238.69 563.8,-231.53 561.04,-237.96"/>
</a>
</g>
</g>
<!-- Node8 -->
<g id="Node000008" class="node">
<title>Node8</title>
<g id="a_Node000008"><a xlink:href="_move__outcome_8hpp.html" target="_top" xlink:title="Structured Pachner&#45;move failures and transition outcomes.">
<polygon fill="white" stroke="#666666" points="684.12,-203.75 533.88,-203.75 533.88,-183 684.12,-183 684.12,-203.75"/>
<text xml:space="preserve" text-anchor="middle" x="609" y="-190.25" font-family="Helvetica,sans-Serif" font-size="10.00">include/Move_outcome.hpp</text>
</a>
</g>
</g>
<!-- Node2&#45;&gt;Node8 -->
<g id="edge7_Node000002_Node000008" class="edge">
<title>Node2&#45;&gt;Node8</title>
<g id="a_edge7_Node000002_Node000008"><a xlink:title=" ">
<path fill="none" stroke="#63b8ff" d="M609,-227.88C609,-219.66 609,-210.68 609,-204.08"/>
<polygon fill="#63b8ff" stroke="#63b8ff" points="605.5,-227.82 609,-237.82 612.5,-227.82 605.5,-227.82"/>
</a>
</g>
</g>
<!-- Node9 -->
<g id="Node000009" class="node">
<title>Node9</title>
<g id="a_Node000009"><a xlink:href="_move__run_8hpp.html" target="_top" xlink:title="Shared value&#45;oriented orchestration for ergodic&#45;move strategies.">
<polygon fill="white" stroke="#666666" points="758.62,-140.62 635.38,-140.62 635.38,-119.88 758.62,-119.88 758.62,-140.62"/>
<text xml:space="preserve" text-anchor="middle" x="697" y="-127.12" font-family="Helvetica,sans-Serif" font-size="10.00">include/Move_run.hpp</text>
</a>
</g>
</g>
<!-- Node2&#45;&gt;Node9 -->
<g id="edge9_Node000002_Node000009" class="edge">
<title>Node2&#45;&gt;Node9</title>
<g id="a_edge9_Node000002_Node000009"><a xlink:title=" ">
<path fill="none" stroke="#63b8ff" d="M653.98,-235.03C668.9,-228.04 683.98,-217.96 693,-203.75 705.29,-184.38 702.13,-155.91 699.27,-141.07"/>
<polygon fill="#63b8ff" stroke="#63b8ff" points="652.98,-231.65 645.15,-238.79 655.72,-238.09 652.98,-231.65"/>
</a>
</g>
</g>
<!-- Node4 -->
<g id="Node000004" class="node">
<title>Node4</title>
<g id="a_Node000004"><a xlink:href="_metropolis_8hpp.html" target="_top" xlink:title="Perform Metropolis&#45;Hastings algorithm on Delaunay Triangulations.">
<polygon fill="white" stroke="#666666" points="288.5,-77.5 161.5,-77.5 161.5,-56.75 288.5,-56.75 288.5,-77.5"/>
<text xml:space="preserve" text-anchor="middle" x="225" y="-64" font-family="Helvetica,sans-Serif" font-size="10.00">include/Metropolis.hpp</text>
</a>
</g>
</g>
<!-- Node3&#45;&gt;Node4 -->
<g id="edge3_Node000003_Node000004" class="edge">
<title>Node3&#45;&gt;Node4</title>
<g id="a_edge3_Node000003_Node000004"><a xlink:title=" ">
<path fill="none" stroke="#63b8ff" d="M477.46,-113.04C405.45,-98.99 333.09,-86.35 283.86,-77.97"/>
<polygon fill="#63b8ff" stroke="#63b8ff" points="476.57,-116.43 487.05,-114.92 477.91,-109.56 476.57,-116.43"/>
</a>
</g>
</g>
<!-- Node6 -->
<g id="Node000006" class="node">
<title>Node6</title>
<g id="a_Node000006"><a xlink:href="_move__command_8hpp.html" target="_top" xlink:title="Do ergodic moves using the Command pattern.">
<polygon fill="white" stroke="#666666" points="640.12,-77.5 483.88,-77.5 483.88,-56.75 640.12,-56.75 640.12,-77.5"/>
<text xml:space="preserve" text-anchor="middle" x="562" y="-64" font-family="Helvetica,sans-Serif" font-size="10.00">include/Move_command.hpp</text>
</a>
</g>
</g>
<!-- Node3&#45;&gt;Node6 -->
<g id="edge5_Node000003_Node000006" class="edge">
<title>Node3&#45;&gt;Node6</title>
<g id="a_edge5_Node000003_Node000006"><a xlink:title=" ">
<path fill="none" stroke="#63b8ff" d="M557.02,-101.98C558.28,-93.41 559.59,-84.5 560.55,-77.97"/>
<polygon fill="#63b8ff" stroke="#63b8ff" points="553.58,-101.29 555.59,-111.69 560.5,-102.31 553.58,-101.29"/>
</a>
</g>
</g>
<!-- Node5 -->
<g id="Node000005" class="node">
<title>Node5</title>
<g id="a_Node000005"><a xlink:href="cdt_8cpp.html" target="_top" xlink:title="The main executable.">
<polygon fill="white" stroke="#666666" points="207.25,-20.75 138.75,-20.75 138.75,0 207.25,0 207.25,-20.75"/>
<text xml:space="preserve" text-anchor="middle" x="173" y="-7.25" font-family="Helvetica,sans-Serif" font-size="10.00">src/cdt.cpp</text>
</a>
</g>
</g>
<!-- Node4&#45;&gt;Node5 -->
<g id="edge4_Node000004_Node000005" class="edge">
<title>Node4&#45;&gt;Node5</title>
<g id="a_edge4_Node000004_Node000005"><a xlink:title=" ">
<path fill="none" stroke="#63b8ff" d="M207.8,-48.02C199.27,-39.03 189.29,-28.53 182.22,-21.08"/>
<polygon fill="#63b8ff" stroke="#63b8ff" points="205.24,-50.4 214.66,-55.24 210.31,-45.58 205.24,-50.4"/>
</a>
</g>
</g>
<!-- Node7 -->
<g id="Node000007" class="node">
<title>Node7</title>
<g id="a_Node000007"><a xlink:href="_move__always_8hpp.html" target="_top" xlink:title="Randomly selects moves to always perform on triangulations.">
<polygon fill="white" stroke="#666666" points="695,-20.75 553,-20.75 553,0 695,0 695,-20.75"/>
<text xml:space="preserve" text-anchor="middle" x="624" y="-7.25" font-family="Helvetica,sans-Serif" font-size="10.00">include/Move_always.hpp</text>
</a>
</g>
</g>
<!-- Node6&#45;&gt;Node7 -->
<g id="edge6_Node000006_Node000007" class="edge">
<title>Node6&#45;&gt;Node7</title>
<g id="a_edge6_Node000006_Node000007"><a xlink:title=" ">
<path fill="none" stroke="#63b8ff" d="M581.55,-48.86C591.93,-39.69 604.31,-28.76 613.01,-21.08"/>
<polygon fill="#63b8ff" stroke="#63b8ff" points="579.4,-46.09 574.22,-55.33 584.03,-51.34 579.4,-46.09"/>
</a>
</g>
</g>
<!-- Node8&#45;&gt;Node3 -->
<g id="edge8_Node000008_Node000003" class="edge">
<title>Node8&#45;&gt;Node3</title>
<g id="a_edge8_Node000008_Node000003"><a xlink:title=" ">
<path fill="none" stroke="#63b8ff" d="M592.28,-174.12C584.52,-165.66 575.38,-155.68 567.87,-147.48"/>
<polygon fill="#63b8ff" stroke="#63b8ff" points="589.64,-176.43 598.98,-181.44 594.81,-171.7 589.64,-176.43"/>
</a>
</g>
</g>
<!-- Node9&#45;&gt;Node4 -->
<g id="edge10_Node000009_Node000004" class="edge">
<title>Node9&#45;&gt;Node4</title>
<g id="a_edge10_Node000009_Node000004"><a xlink:title=" ">
<path fill="none" stroke="#63b8ff" d="M645.4,-117.14C638.89,-115.8 632.3,-114.55 626,-113.5 507.66,-93.74 368.2,-80.11 288.84,-73.25"/>
<polygon fill="#63b8ff" stroke="#63b8ff" points="644.23,-120.47 654.74,-119.12 645.68,-113.62 644.23,-120.47"/>
</a>
</g>
</g>
<!-- Node9&#45;&gt;Node7 -->
<g id="edge11_Node000009_Node000007" class="edge">
<title>Node9&#45;&gt;Node7</title>
<g id="a_edge11_Node000009_Node000007"><a xlink:title=" ">
<path fill="none" stroke="#63b8ff" d="M685.04,-109.94C669.27,-84.47 642.1,-40.61 630.06,-21.15"/>
<polygon fill="#63b8ff" stroke="#63b8ff" points="681.99,-111.66 690.23,-118.32 687.94,-107.97 681.99,-111.66"/>
</a>
</g>
</g>
<!-- Node11 -->
<g id="Node000011" class="node">
<title>Node11</title>
<g id="a_Node000011"><a xlink:href="_s3_action_8hpp.html" target="_top" xlink:title="Calculate S3 bulk actions on 3D Delaunay Triangulations.">
<polygon fill="white" stroke="#666666" points="118,-260.5 0,-260.5 0,-239.75 118,-239.75 118,-260.5"/>
<text xml:space="preserve" text-anchor="middle" x="59" y="-247" font-family="Helvetica,sans-Serif" font-size="10.00">include/S3Action.hpp</text>
</a>
</g>
</g>
<!-- Node10&#45;&gt;Node11 -->
<g id="edge13_Node000010_Node000011" class="edge">
<title>Node10&#45;&gt;Node11</title>
<g id="a_edge13_Node000010_Node000011"><a xlink:title=" ">
<path fill="none" stroke="#63b8ff" d="M112.33,-349.35C98.47,-323.83 74.82,-280.27 64.31,-260.9"/>
<polygon fill="#63b8ff" stroke="#63b8ff" points="109.19,-350.91 117.04,-358.02 115.34,-347.57 109.19,-350.91"/>
</a>
</g>
</g>
<!-- Node11&#45;&gt;Node4 -->
<g id="edge14_Node000011_Node000004" class="edge">
<title>Node11&#45;&gt;Node4</title>
<g id="a_edge14_Node000011_Node000004"><a xlink:title=" ">
<path fill="none" stroke="#63b8ff" d="M44.02,-229.91C35.35,-216.28 27.64,-197.86 36,-183 68.85,-124.6 144.73,-92.44 189.72,-77.88"/>
<polygon fill="#63b8ff" stroke="#63b8ff" points="41.11,-231.85 49.72,-238.01 46.83,-227.82 41.11,-231.85"/>
</a>
</g>
</g>
<!-- Node13 -->
<g id="Node000013" class="node">
<title>Node13</title>
<g id="a_Node000013"><a xlink:href="_foliated__triangulation_8hpp.html" target="_top" xlink:title="Create foliated spherical triangulations.">
<polygon fill="white" stroke="#666666" points="510.88,-317.25 329.12,-317.25 329.12,-296.5 510.88,-296.5 510.88,-317.25"/>
<text xml:space="preserve" text-anchor="middle" x="420" y="-303.75" font-family="Helvetica,sans-Serif" font-size="10.00">include/Foliated_triangulation.hpp</text>
</a>
</g>
</g>
<!-- Node12&#45;&gt;Node13 -->
<g id="edge16_Node000012_Node000013" class="edge">
<title>Node12&#45;&gt;Node13</title>
<g id="a_edge16_Node000012_Node000013"><a xlink:title=" ">
<path fill="none" stroke="#63b8ff" d="M420,-341.44C420,-332.96 420,-324.17 420,-317.72"/>
<polygon fill="#63b8ff" stroke="#63b8ff" points="416.5,-341.43 420,-351.43 423.5,-341.43 416.5,-341.43"/>
</a>
</g>
</g>
<!-- Node18 -->
<g id="Node000018" class="node">
<title>Node18</title>
<g id="a_Node000018"><a xlink:href="_formatters_8hpp.html" target="_top" xlink:title="Formatter specializations for various types.">
<polygon fill="white" stroke="#666666" points="657.25,-317.25 528.75,-317.25 528.75,-296.5 657.25,-296.5 657.25,-317.25"/>
<text xml:space="preserve" text-anchor="middle" x="593" y="-303.75" font-family="Helvetica,sans-Serif" font-size="10.00">include/Formatters.hpp</text>
</a>
</g>
</g>
<!-- Node12&#45;&gt;Node18 -->
<g id="edge22_Node000012_Node000018" class="edge">
<title>Node12&#45;&gt;Node18</title>
<g id="a_edge22_Node000012_Node000018"><a xlink:title=" ">
<path fill="none" stroke="#63b8ff" d="M476.59,-349C506.34,-338.5 541.46,-326.08 565.29,-317.67"/>
<polygon fill="#63b8ff" stroke="#63b8ff" points="475.6,-345.64 467.33,-352.28 477.93,-352.24 475.6,-345.64"/>
</a>
</g>
</g>
<!-- Node14 -->
<g id="Node000014" class="node">
<title>Node14</title>
<g id="a_Node000014"><a xlink:href="_geometry_8hpp.html" target="_top" xlink:title="Geometric scalars of the Manifold used to calculate the Regge action.">
<polygon fill="white" stroke="#666666" points="480.25,-260.5 357.75,-260.5 357.75,-239.75 480.25,-239.75 480.25,-260.5"/>
<text xml:space="preserve" text-anchor="middle" x="419" y="-247" font-family="Helvetica,sans-Serif" font-size="10.00">include/Geometry.hpp</text>
</a>
</g>
</g>
<!-- Node13&#45;&gt;Node14 -->
<g id="edge17_Node000013_Node000014" class="edge">
<title>Node13&#45;&gt;Node14</title>
<g id="a_edge17_Node000013_Node000014"><a xlink:title=" ">
<path fill="none" stroke="#63b8ff" d="M419.61,-284.63C419.46,-276.41 419.3,-267.43 419.18,-260.83"/>
<polygon fill="#63b8ff" stroke="#63b8ff" points="416.11,-284.64 419.79,-294.57 423.11,-284.51 416.11,-284.64"/>
</a>
</g>
</g>
<!-- Node15 -->
<g id="Node000015" class="node">
<title>Node15</title>
<g id="a_Node000015"><a xlink:href="_manifold_8hpp.html" target="_top" xlink:title="Data structures for manifolds.">
<polygon fill="white" stroke="#666666" points="478,-203.75 360,-203.75 360,-183 478,-183 478,-203.75"/>
<text xml:space="preserve" text-anchor="middle" x="419" y="-190.25" font-family="Helvetica,sans-Serif" font-size="10.00">include/Manifold.hpp</text>
</a>
</g>
</g>
<!-- Node14&#45;&gt;Node15 -->
<g id="edge18_Node000014_Node000015" class="edge">
<title>Node14&#45;&gt;Node15</title>
<g id="a_edge18_Node000014_Node000015"><a xlink:title=" ">
<path fill="none" stroke="#63b8ff" d="M419,-227.88C419,-219.66 419,-210.68 419,-204.08"/>
<polygon fill="#63b8ff" stroke="#63b8ff" points="415.5,-227.82 419,-237.82 422.5,-227.82 415.5,-227.82"/>
</a>
</g>
</g>
<!-- Node15&#45;&gt;Node3 -->
<g id="edge19_Node000015_Node000003" class="edge">
<title>Node15&#45;&gt;Node3</title>
<g id="a_edge19_Node000015_Node000003"><a xlink:title=" ">
<path fill="none" stroke="#63b8ff" d="M450.97,-177.79C470.97,-168.67 496.76,-156.9 517.41,-147.48"/>
<polygon fill="#63b8ff" stroke="#63b8ff" points="449.55,-174.59 441.91,-181.93 452.46,-180.96 449.55,-174.59"/>
</a>
</g>
</g>
<!-- Node16 -->
<g id="Node000016" class="node">
<title>Node16</title>
<g id="a_Node000016"><a xlink:href="cdt-viewer_8cpp.html" target="_top" xlink:title="Views 3D spacetimes.">
<polygon fill="white" stroke="#666666" points="470.88,-140.62 367.12,-140.62 367.12,-119.88 470.88,-119.88 470.88,-140.62"/>
<text xml:space="preserve" text-anchor="middle" x="419" y="-127.12" font-family="Helvetica,sans-Serif" font-size="10.00">src/cdt&#45;viewer.cpp</text>
</a>
</g>
</g>
<!-- Node15&#45;&gt;Node16 -->
<g id="edge20_Node000015_Node000016" class="edge">
<title>Node15&#45;&gt;Node16</title>
<g id="a_edge20_Node000015_Node000016"><a xlink:title=" ">
<path fill="none" stroke="#63b8ff" d="M419,-171.11C419,-160.8 419,-148.93 419,-140.84"/>
<polygon fill="#63b8ff" stroke="#63b8ff" points="415.5,-171.04 419,-181.04 422.5,-171.04 415.5,-171.04"/>
</a>
</g>
</g>
<!-- Node17 -->
<g id="Node000017" class="node">
<title>Node17</title>
<g id="a_Node000017"><a xlink:href="initialize_8cpp.html" target="_top" xlink:title="Generates initial spacetimes.">
<polygon fill="white" stroke="#666666" points="348.75,-140.62 253.25,-140.62 253.25,-119.88 348.75,-119.88 348.75,-140.62"/>
<text xml:space="preserve" text-anchor="middle" x="301" y="-127.12" font-family="Helvetica,sans-Serif" font-size="10.00">src/initialize.cpp</text>
</a>
</g>
</g>
<!-- Node15&#45;&gt;Node17 -->
<g id="edge21_Node000015_Node000017" class="edge">
<title>Node15&#45;&gt;Node17</title>
<g id="a_edge21_Node000015_Node000017"><a xlink:title=" ">
<path fill="none" stroke="#63b8ff" d="M389.99,-177.35C368.14,-166.03 338.82,-150.84 319.91,-141.05"/>
<polygon fill="#63b8ff" stroke="#63b8ff" points="388.21,-180.37 398.7,-181.86 391.43,-174.15 388.21,-180.37"/>
</a>
</g>
</g>
<!-- Node19&#45;&gt;Node2 -->
<g id="edge26_Node000019_Node000002" class="edge">
<title>Node19&#45;&gt;Node2</title>
<g id="a_edge26_Node000019_Node000002"><a xlink:title=" ">
<path fill="none" stroke="#63b8ff" d="M285.14,-348.25C291.21,-331.52 302.21,-308.83 320,-296.5 337.69,-284.24 458.65,-268.33 538.37,-258.97"/>
<polygon fill="#63b8ff" stroke="#63b8ff" points="281.83,-347.11 282.03,-357.7 288.48,-349.29 281.83,-347.11"/>
</a>
</g>
</g>
<!-- Node19&#45;&gt;Node4 -->
<g id="edge25_Node000019_Node000004" class="edge">
<title>Node19&#45;&gt;Node4</title>
<g id="a_edge25_Node000019_Node000004"><a xlink:title=" ">
<path fill="none" stroke="#63b8ff" d="M264.31,-350.29C248.32,-328 225,-288.99 225,-251.12 225,-251.12 225,-251.12 225,-192.38 225,-149.66 225,-98.69 225,-77.79"/>
<polygon fill="#63b8ff" stroke="#63b8ff" points="261.34,-352.16 270.13,-358.08 266.95,-347.97 261.34,-352.16"/>
</a>
</g>
</g>
<!-- Node19&#45;&gt;Node13 -->
<g id="edge24_Node000019_Node000013" class="edge">
<title>Node19&#45;&gt;Node13</title>
<g id="a_edge24_Node000019_Node000013"><a xlink:title=" ">
<path fill="none" stroke="#63b8ff" d="M311.89,-354.74C338.17,-343.35 374.3,-327.69 397.4,-317.67"/>
<polygon fill="#63b8ff" stroke="#63b8ff" points="310.83,-351.39 303.04,-358.58 313.61,-357.81 310.83,-351.39"/>
</a>
</g>
</g>
<!-- Node19&#45;&gt;Node16 -->
<g id="edge30_Node000019_Node000016" class="edge">
<title>Node19&#45;&gt;Node16</title>
<g id="a_edge30_Node000019_Node000016"><a xlink:title=" ">
<path fill="none" stroke="#63b8ff" d="M282.66,-348.26C290.03,-311.49 309.6,-233.97 351,-183 365.31,-165.38 386.8,-150.34 401.78,-141.08"/>
<polygon fill="#63b8ff" stroke="#63b8ff" points="279.24,-347.49 280.83,-357.97 286.12,-348.79 279.24,-347.49"/>
</a>
</g>
</g>
<!-- Node20 -->
<g id="Node000020" class="node">
<title>Node20</title>
<g id="a_Node000020"><a xlink:href="_runtime__config_8hpp.html" target="_top" xlink:title="Validated runtime configuration for CDT++ command&#45;line programs.">
<polygon fill="white" stroke="#666666" points="196.5,-203.75 45.5,-203.75 45.5,-183 196.5,-183 196.5,-203.75"/>
<text xml:space="preserve" text-anchor="middle" x="121" y="-190.25" font-family="Helvetica,sans-Serif" font-size="10.00">include/Runtime_config.hpp</text>
</a>
</g>
</g>
<!-- Node19&#45;&gt;Node20 -->
<g id="edge27_Node000019_Node000020" class="edge">
<title>Node19&#45;&gt;Node20</title>
<g id="a_edge27_Node000019_Node000020"><a xlink:title=" ">
<path fill="none" stroke="#63b8ff" d="M254.44,-352.91C240.86,-343.4 224.13,-330.62 211,-317.25 173.95,-279.51 139.86,-225.74 126.72,-204.02"/>
<polygon fill="#63b8ff" stroke="#63b8ff" points="252.2,-355.62 262.43,-358.37 256.15,-349.84 252.2,-355.62"/>
</a>
</g>
</g>
<!-- Node20&#45;&gt;Node5 -->
<g id="edge28_Node000020_Node000005" class="edge">
<title>Node20&#45;&gt;Node5</title>
<g id="a_edge28_Node000020_Node000005"><a xlink:title=" ">
<path fill="none" stroke="#63b8ff" d="M124.36,-171.56C129.03,-144.62 138.46,-96.41 152,-56.75 156.32,-44.1 163.04,-30.25 167.71,-21.22"/>
<polygon fill="#63b8ff" stroke="#63b8ff" points="120.96,-170.71 122.76,-181.15 127.86,-171.87 120.96,-170.71"/>
</a>
</g>
</g>
<!-- Node20&#45;&gt;Node17 -->
<g id="edge29_Node000020_Node000017" class="edge">
<title>Node20&#45;&gt;Node17</title>
<g id="a_edge29_Node000020_Node000017"><a xlink:title=" ">
<path fill="none" stroke="#63b8ff" d="M160.77,-178.87C194.48,-167.42 242,-151.29 272.15,-141.05"/>
<polygon fill="#63b8ff" stroke="#63b8ff" points="159.7,-175.54 151.35,-182.07 161.95,-182.17 159.7,-175.54"/>
</a>
</g>
</g>
</g>
</svg>
