<?xml version="1.0" encoding="UTF-8" standalone="no"?>
<!DOCTYPE svg PUBLIC "-//W3C//DTD SVG 1.1//EN"
 "http://www.w3.org/Graphics/SVG/1.1/DTD/svg11.dtd">
<!-- Generated by graphviz version 2.43.0 (0)
 -->
<!-- Title: include/Settings.hpp Pages: 1 -->
<svg width="1227pt" height="643pt"
 viewBox="0.00 0.00 1227.00 643.00" xmlns="http://www.w3.org/2000/svg" xmlns:xlink="http://www.w3.org/1999/xlink">
<g id="graph0" class="graph" transform="scale(1 1) rotate(0) translate(4 639)">
<title>include/Settings.hpp</title>
<polygon fill="white" stroke="transparent" points="-4,4 -4,-639 1223,-639 1223,4 -4,4"/>
<!-- Node1 -->
<g id="node1" class="node">
<title>Node1</title>
<g id="a_node1"><a xlink:title="Global integer and precision settings.">
<polygon fill="#bfbfbf" stroke="black" points="903,-615.5 903,-634.5 1019,-634.5 1019,-615.5 903,-615.5"/>
<text text-anchor="middle" x="961" y="-622.5" font-family="Helvetica,sans-Serif" font-size="10.00">include/Settings.hpp</text>
</a>
</g>
</g>
<!-- Node2 -->
<g id="node2" class="node">
<title>Node2</title>
<g id="a_node2"><a xlink:href="_triangulation__traits_8hpp.html" target="_top" xlink:title="Traits class for particular uses of CGAL.">
<polygon fill="white" stroke="black" points="815,-548.5 815,-578.5 933,-578.5 933,-548.5 815,-548.5"/>
<text text-anchor="start" x="823" y="-566.5" font-family="Helvetica,sans-Serif" font-size="10.00">include/Triangulation</text>
<text text-anchor="middle" x="874" y="-555.5" font-family="Helvetica,sans-Serif" font-size="10.00">_traits.hpp</text>
</a>
</g>
</g>
<!-- Node1&#45;&gt;Node2 -->
<g id="edge1" class="edge">
<title>Node1&#45;&gt;Node2</title>
<path fill="none" stroke="midnightblue" d="M940.15,-609.74C926.32,-600.28 908.26,-587.93 894.5,-578.52"/>
<polygon fill="midnightblue" stroke="midnightblue" points="938.3,-612.72 948.54,-615.48 942.26,-606.94 938.3,-612.72"/>
</g>
<!-- Node29 -->
<g id="node29" class="node">
<title>Node29</title>
<g id="a_node29"><a xlink:href="_utilities_8hpp.html" target="_top" xlink:title="Utility functions.">
<polygon fill="white" stroke="black" points="683,-554 683,-573 797,-573 797,-554 683,-554"/>
<text text-anchor="middle" x="740" y="-561" font-family="Helvetica,sans-Serif" font-size="10.00">include/Utilities.hpp</text>
</a>
</g>
</g>
<!-- Node1&#45;&gt;Node29 -->
<g id="edge30" class="edge">
<title>Node1&#45;&gt;Node29</title>
<path fill="none" stroke="midnightblue" d="M919.48,-612.82C876.55,-601.26 810.47,-583.47 771.61,-573.01"/>
<polygon fill="midnightblue" stroke="midnightblue" points="918.77,-616.25 929.34,-615.48 920.59,-609.5 918.77,-616.25"/>
</g>
<!-- Node30 -->
<g id="node30" class="node">
<title>Node30</title>
<g id="a_node30"><a xlink:href="_s3_action_8hpp.html" target="_top" xlink:title="Calculate S3 bulk actions on 3D Delaunay Triangulations.">
<polygon fill="white" stroke="black" points="901.5,-369.5 901.5,-388.5 1020.5,-388.5 1020.5,-369.5 901.5,-369.5"/>
<text text-anchor="middle" x="961" y="-376.5" font-family="Helvetica,sans-Serif" font-size="10.00">include/S3Action.hpp</text>
</a>
</g>
</g>
<!-- Node1&#45;&gt;Node30 -->
<g id="edge32" class="edge">
<title>Node1&#45;&gt;Node30</title>
<path fill="none" stroke="midnightblue" d="M961,-605.09C961,-555.57 961,-423.52 961,-388.58"/>
<polygon fill="midnightblue" stroke="midnightblue" points="957.5,-605.32 961,-615.32 964.5,-605.32 957.5,-605.32"/>
</g>
<!-- Node31 -->
<g id="node31" class="node">
<title>Node31</title>
<g id="a_node31"><a xlink:href="cdt-gv_8cpp.html" target="_top" xlink:title="A pipeline from CDT++ to Geomview , a visualizer.">
<polygon fill="white" stroke="black" points="989,-554 989,-573 1073,-573 1073,-554 989,-554"/>
<text text-anchor="middle" x="1031" y="-561" font-family="Helvetica,sans-Serif" font-size="10.00">src/cdt&#45;gv.cpp</text>
</a>
</g>
</g>
<!-- Node1&#45;&gt;Node31 -->
<g id="edge35" class="edge">
<title>Node1&#45;&gt;Node31</title>
<path fill="none" stroke="midnightblue" d="M978.68,-608.97C992.07,-597.59 1009.98,-582.37 1020.99,-573.01"/>
<polygon fill="midnightblue" stroke="midnightblue" points="976.38,-606.33 971.03,-615.48 980.92,-611.67 976.38,-606.33"/>
</g>
<!-- Node32 -->
<g id="node32" class="node">
<title>Node32</title>
<g id="a_node32"><a xlink:href="_settings__test_8cpp.html" target="_top" xlink:title="Global settings on integer types and MPFR precision.">
<polygon fill="white" stroke="black" points="1091,-554 1091,-573 1219,-573 1219,-554 1091,-554"/>
<text text-anchor="middle" x="1155" y="-561" font-family="Helvetica,sans-Serif" font-size="10.00">tests/Settings_test.cpp</text>
</a>
</g>
</g>
<!-- Node1&#45;&gt;Node32 -->
<g id="edge36" class="edge">
<title>Node1&#45;&gt;Node32</title>
<path fill="none" stroke="midnightblue" d="M998.4,-612.53C1036.11,-600.96 1093.43,-583.38 1127.26,-573.01"/>
<polygon fill="midnightblue" stroke="midnightblue" points="997.33,-609.2 988.8,-615.48 999.38,-615.89 997.33,-609.2"/>
</g>
<!-- Node3 -->
<g id="node3" class="node">
<title>Node3</title>
<g id="a_node3"><a xlink:href="_foliated__triangulation_8hpp.html" target="_top" xlink:title="Create foliated spherical triangulations.">
<polygon fill="white" stroke="black" points="649,-492.5 649,-511.5 831,-511.5 831,-492.5 649,-492.5"/>
<text text-anchor="middle" x="740" y="-499.5" font-family="Helvetica,sans-Serif" font-size="10.00">include/Foliated_triangulation.hpp</text>
</a>
</g>
</g>
<!-- Node2&#45;&gt;Node3 -->
<g id="edge2" class="edge">
<title>Node2&#45;&gt;Node3</title>
<path fill="none" stroke="midnightblue" d="M832.85,-544.23C808.45,-533.39 778.65,-520.16 759.5,-511.66"/>
<polygon fill="midnightblue" stroke="midnightblue" points="831.68,-547.54 842.24,-548.4 834.52,-541.14 831.68,-547.54"/>
</g>
<!-- Node4 -->
<g id="node4" class="node">
<title>Node4</title>
<g id="a_node4"><a xlink:href="_geometry_8hpp.html" target="_top" xlink:title="Geometric quantities of Manifold used by MoveAlgorithm.">
<polygon fill="white" stroke="black" points="477.5,-431 477.5,-450 600.5,-450 600.5,-431 477.5,-431"/>
<text text-anchor="middle" x="539" y="-438" font-family="Helvetica,sans-Serif" font-size="10.00">include/Geometry.hpp</text>
</a>
</g>
</g>
<!-- Node3&#45;&gt;Node4 -->
<g id="edge3" class="edge">
<title>Node3&#45;&gt;Node4</title>
<path fill="none" stroke="midnightblue" d="M701.25,-489.53C662.18,-477.96 602.8,-460.38 567.74,-450.01"/>
<polygon fill="midnightblue" stroke="midnightblue" points="700.62,-492.99 711.2,-492.48 702.61,-486.28 700.62,-492.99"/>
</g>
<!-- Node27 -->
<g id="node27" class="node">
<title>Node27</title>
<g id="a_node27"><a xlink:href="_foliated__triangulation__test_8cpp.html" target="_top" xlink:title="Tests for foliated triangulations.">
<polygon fill="white" stroke="black" points="619,-425.5 619,-455.5 769,-455.5 769,-425.5 619,-425.5"/>
<text text-anchor="start" x="627" y="-443.5" font-family="Helvetica,sans-Serif" font-size="10.00">tests/Foliated_triangulation</text>
<text text-anchor="middle" x="694" y="-432.5" font-family="Helvetica,sans-Serif" font-size="10.00">_test.cpp</text>
</a>
</g>
</g>
<!-- Node3&#45;&gt;Node27 -->
<g id="edge28" class="edge">
<title>Node3&#45;&gt;Node27</title>
<path fill="none" stroke="midnightblue" d="M727.27,-484.53C720.22,-475.42 711.56,-464.21 704.84,-455.52"/>
<polygon fill="midnightblue" stroke="midnightblue" points="724.52,-486.7 733.41,-492.48 730.06,-482.42 724.52,-486.7"/>
</g>
<!-- Node28 -->
<g id="node28" class="node">
<title>Node28</title>
<g id="a_node28"><a xlink:href="_tetrahedron__test_8cpp.html" target="_top" xlink:title="Tests for 3D triangulated and foliated tetrahedrons.">
<polygon fill="white" stroke="black" points="787,-431 787,-450 933,-450 933,-431 787,-431"/>
<text text-anchor="middle" x="860" y="-438" font-family="Helvetica,sans-Serif" font-size="10.00">tests/Tetrahedron_test.cpp</text>
</a>
</g>
</g>
<!-- Node3&#45;&gt;Node28 -->
<g id="edge29" class="edge">
<title>Node3&#45;&gt;Node28</title>
<path fill="none" stroke="midnightblue" d="M766.18,-488.02C789.45,-476.48 822.8,-459.94 842.84,-450.01"/>
<polygon fill="midnightblue" stroke="midnightblue" points="764.6,-484.9 757.19,-492.48 767.71,-491.17 764.6,-484.9"/>
</g>
<!-- Node5 -->
<g id="node5" class="node">
<title>Node5</title>
<g id="a_node5"><a xlink:href="_manifold_8hpp.html" target="_top" xlink:title="Data structures for manifolds.">
<polygon fill="white" stroke="black" points="531.5,-369.5 531.5,-388.5 650.5,-388.5 650.5,-369.5 531.5,-369.5"/>
<text text-anchor="middle" x="591" y="-376.5" font-family="Helvetica,sans-Serif" font-size="10.00">include/Manifold.hpp</text>
</a>
</g>
</g>
<!-- Node4&#45;&gt;Node5 -->
<g id="edge4" class="edge">
<title>Node4&#45;&gt;Node5</title>
<path fill="none" stroke="midnightblue" d="M553.27,-423.17C563.08,-411.95 575.69,-397.52 583.56,-388.51"/>
<polygon fill="midnightblue" stroke="midnightblue" points="550.4,-421.14 546.45,-430.98 555.67,-425.75 550.4,-421.14"/>
</g>
<!-- Node26 -->
<g id="node26" class="node">
<title>Node26</title>
<g id="a_node26"><a xlink:href="_geometry__test_8cpp.html" target="_top" xlink:title="Tests of new geometry data structure.">
<polygon fill="white" stroke="black" points="376.5,-369.5 376.5,-388.5 513.5,-388.5 513.5,-369.5 376.5,-369.5"/>
<text text-anchor="middle" x="445" y="-376.5" font-family="Helvetica,sans-Serif" font-size="10.00">tests/Geometry_test.cpp</text>
</a>
</g>
</g>
<!-- Node4&#45;&gt;Node26 -->
<g id="edge27" class="edge">
<title>Node4&#45;&gt;Node26</title>
<path fill="none" stroke="midnightblue" d="M516.77,-425.43C498.65,-413.96 473.65,-398.13 458.44,-388.51"/>
<polygon fill="midnightblue" stroke="midnightblue" points="515.21,-428.58 525.53,-430.98 518.95,-422.67 515.21,-428.58"/>
</g>
<!-- Node6 -->
<g id="node6" class="node">
<title>Node6</title>
<g id="a_node6"><a xlink:href="_move__tracker_8hpp.html" target="_top" xlink:title="Track ergodic moves.">
<polygon fill="white" stroke="black" points="104.5,-313.5 104.5,-332.5 245.5,-332.5 245.5,-313.5 104.5,-313.5"/>
<text text-anchor="middle" x="175" y="-320.5" font-family="Helvetica,sans-Serif" font-size="10.00">include/Move_tracker.hpp</text>
</a>
</g>
</g>
<!-- Node5&#45;&gt;Node6 -->
<g id="edge5" class="edge">
<title>Node5&#45;&gt;Node6</title>
<path fill="none" stroke="midnightblue" d="M521.11,-368.88C417.06,-355.36 308.5,-341.29 240.88,-332.53"/>
<polygon fill="midnightblue" stroke="midnightblue" points="520.79,-372.37 531.16,-370.19 521.7,-365.43 520.79,-372.37"/>
</g>
<!-- Node12 -->
<g id="node12" class="node">
<title>Node12</title>
<g id="a_node12"><a xlink:href="cdt_8cpp.html" target="_top" xlink:title="The main executable.">
<polygon fill="white" stroke="black" points="785.5,-0.5 785.5,-19.5 854.5,-19.5 854.5,-0.5 785.5,-0.5"/>
<text text-anchor="middle" x="820" y="-7.5" font-family="Helvetica,sans-Serif" font-size="10.00">src/cdt.cpp</text>
</a>
</g>
</g>
<!-- Node5&#45;&gt;Node12 -->
<g id="edge21" class="edge">
<title>Node5&#45;&gt;Node12</title>
<path fill="none" stroke="midnightblue" d="M660.55,-370.76C713.27,-363.89 779.97,-351.78 800,-333 823.76,-310.72 820,-295.07 820,-262.5 820,-262.5 820,-262.5 820,-126.5 820,-86.6 820,-38.94 820,-19.69"/>
<polygon fill="midnightblue" stroke="midnightblue" points="660.03,-367.29 650.54,-372.02 660.9,-374.24 660.03,-367.29"/>
</g>
<!-- Node21 -->
<g id="node21" class="node">
<title>Node21</title>
<g id="a_node21"><a xlink:href="initialize_8cpp.html" target="_top" xlink:title="Generates initial spacetimes.">
<polygon fill="white" stroke="black" points="264,-313.5 264,-332.5 360,-332.5 360,-313.5 264,-313.5"/>
<text text-anchor="middle" x="312" y="-320.5" font-family="Helvetica,sans-Serif" font-size="10.00">src/initialize.cpp</text>
</a>
</g>
</g>
<!-- Node5&#45;&gt;Node21 -->
<g id="edge22" class="edge">
<title>Node5&#45;&gt;Node21</title>
<path fill="none" stroke="midnightblue" d="M536.94,-367.54C484.21,-357.33 405,-342 356,-332.52"/>
<polygon fill="midnightblue" stroke="midnightblue" points="536.31,-370.98 546.79,-369.44 537.64,-364.11 536.31,-370.98"/>
</g>
<!-- Node22 -->
<g id="node22" class="node">
<title>Node22</title>
<g id="a_node22"><a xlink:href="_manifold__test_8cpp.html" target="_top" xlink:title="Tests of new manifold data structure.">
<polygon fill="white" stroke="black" points="378.5,-313.5 378.5,-332.5 509.5,-332.5 509.5,-313.5 378.5,-313.5"/>
<text text-anchor="middle" x="444" y="-320.5" font-family="Helvetica,sans-Serif" font-size="10.00">tests/Manifold_test.cpp</text>
</a>
</g>
</g>
<!-- Node5&#45;&gt;Node22 -->
<g id="edge23" class="edge">
<title>Node5&#45;&gt;Node22</title>
<path fill="none" stroke="midnightblue" d="M558.08,-365.91C530.44,-355.75 491.66,-341.51 467.18,-332.52"/>
<polygon fill="midnightblue" stroke="midnightblue" points="557.11,-369.28 567.71,-369.44 559.53,-362.71 557.11,-369.28"/>
</g>
<!-- Node23 -->
<g id="node23" class="node">
<title>Node23</title>
<g id="a_node23"><a xlink:href="_s3_action__test_8cpp.html" target="_top" xlink:title="Tests for the S3 action functions.">
<polygon fill="white" stroke="black" points="848.5,-313.5 848.5,-332.5 979.5,-332.5 979.5,-313.5 848.5,-313.5"/>
<text text-anchor="middle" x="914" y="-320.5" font-family="Helvetica,sans-Serif" font-size="10.00">tests/S3Action_test.cpp</text>
</a>
</g>
</g>
<!-- Node5&#45;&gt;Node23 -->
<g id="edge24" class="edge">
<title>Node5&#45;&gt;Node23</title>
<path fill="none" stroke="midnightblue" d="M652.07,-367.79C713.1,-357.59 805.87,-342.08 863.06,-332.52"/>
<polygon fill="midnightblue" stroke="midnightblue" points="651.47,-364.34 642.18,-369.44 652.62,-371.25 651.47,-364.34"/>
</g>
<!-- Node24 -->
<g id="node24" class="node">
<title>Node24</title>
<g id="a_node24"><a xlink:href="_utilities__test_8cpp.html" target="_top" xlink:title="Tests on utility functions.">
<polygon fill="white" stroke="black" points="528,-313.5 528,-332.5 654,-332.5 654,-313.5 528,-313.5"/>
<text text-anchor="middle" x="591" y="-320.5" font-family="Helvetica,sans-Serif" font-size="10.00">tests/Utilities_test.cpp</text>
</a>
</g>
</g>
<!-- Node5&#45;&gt;Node24 -->
<g id="edge25" class="edge">
<title>Node5&#45;&gt;Node24</title>
<path fill="none" stroke="midnightblue" d="M591,-358.8C591,-349.91 591,-339.78 591,-332.75"/>
<polygon fill="midnightblue" stroke="midnightblue" points="587.5,-359.08 591,-369.08 594.5,-359.08 587.5,-359.08"/>
</g>
<!-- Node25 -->
<g id="node25" class="node">
<title>Node25</title>
<g id="a_node25"><a xlink:href="_vertex__test_8cpp.html" target="_top" xlink:title="Tests on vertices in Delaunay triangulations.">
<polygon fill="white" stroke="black" points="672.5,-313.5 672.5,-332.5 791.5,-332.5 791.5,-313.5 672.5,-313.5"/>
<text text-anchor="middle" x="732" y="-320.5" font-family="Helvetica,sans-Serif" font-size="10.00">tests/Vertex_test.cpp</text>
</a>
</g>
</g>
<!-- Node5&#45;&gt;Node25 -->
<g id="edge26" class="edge">
<title>Node5&#45;&gt;Node25</title>
<path fill="none" stroke="midnightblue" d="M622.93,-365.77C649.41,-355.63 686.39,-341.47 709.76,-332.52"/>
<polygon fill="midnightblue" stroke="midnightblue" points="621.43,-362.6 613.34,-369.44 623.93,-369.14 621.43,-362.6"/>
</g>
<!-- Node7 -->
<g id="node7" class="node">
<title>Node7</title>
<g id="a_node7"><a xlink:href="_ergodic__moves__3_8hpp.html" target="_top" xlink:title="Pachner moves on 2+1 dimensional foliated Delaunay triangulations.">
<polygon fill="white" stroke="black" points="122.5,-246.5 122.5,-276.5 251.5,-276.5 251.5,-246.5 122.5,-246.5"/>
<text text-anchor="start" x="130.5" y="-264.5" font-family="Helvetica,sans-Serif" font-size="10.00">include/Ergodic_moves</text>
<text text-anchor="middle" x="187" y="-253.5" font-family="Helvetica,sans-Serif" font-size="10.00">_3.hpp</text>
</a>
</g>
</g>
<!-- Node6&#45;&gt;Node7 -->
<g id="edge6" class="edge">
<title>Node6&#45;&gt;Node7</title>
<path fill="none" stroke="midnightblue" d="M178.73,-303.53C180.48,-294.81 182.55,-284.59 184.17,-276.52"/>
<polygon fill="midnightblue" stroke="midnightblue" points="175.27,-302.98 176.72,-313.48 182.13,-304.36 175.27,-302.98"/>
</g>
<!-- Node20 -->
<g id="node20" class="node">
<title>Node20</title>
<g id="a_node20"><a xlink:href="_move__tracker__test_8cpp.html" target="_top" xlink:title="Tests of MoveTracker, that is, that moves are tracked properly.">
<polygon fill="white" stroke="black" points="270,-246.5 270,-276.5 380,-276.5 380,-246.5 270,-246.5"/>
<text text-anchor="start" x="278" y="-264.5" font-family="Helvetica,sans-Serif" font-size="10.00">tests/Move_tracker</text>
<text text-anchor="middle" x="325" y="-253.5" font-family="Helvetica,sans-Serif" font-size="10.00">_test.cpp</text>
</a>
</g>
</g>
<!-- Node6&#45;&gt;Node20 -->
<g id="edge20" class="edge">
<title>Node6&#45;&gt;Node20</title>
<path fill="none" stroke="midnightblue" d="M205.96,-309.72C230.31,-300.06 264.24,-286.6 289.65,-276.52"/>
<polygon fill="midnightblue" stroke="midnightblue" points="204.5,-306.53 196.49,-313.48 207.08,-313.04 204.5,-306.53"/>
</g>
<!-- Node8 -->
<g id="node8" class="node">
<title>Node8</title>
<g id="a_node8"><a xlink:href="_move__command_8hpp.html" target="_top" xlink:title="Do ergodic moves using the Command pattern.">
<polygon fill="white" stroke="black" points="259.5,-185 259.5,-204 416.5,-204 416.5,-185 259.5,-185"/>
<text text-anchor="middle" x="338" y="-192" font-family="Helvetica,sans-Serif" font-size="10.00">include/Move_command.hpp</text>
</a>
</g>
</g>
<!-- Node7&#45;&gt;Node8 -->
<g id="edge7" class="edge">
<title>Node7&#45;&gt;Node8</title>
<path fill="none" stroke="midnightblue" d="M229.29,-242.3C258.41,-229.76 295.76,-213.68 318.24,-204.01"/>
<polygon fill="midnightblue" stroke="midnightblue" points="227.57,-239.23 219.76,-246.4 230.33,-245.66 227.57,-239.23"/>
</g>
<!-- Node17 -->
<g id="node17" class="node">
<title>Node17</title>
<g id="a_node17"><a xlink:href="_apply__move__test_8cpp.html" target="_top" xlink:title="Applying ergodic moves to manifolds.">
<polygon fill="white" stroke="black" points="434.5,-185 434.5,-204 583.5,-204 583.5,-185 434.5,-185"/>
<text text-anchor="middle" x="509" y="-192" font-family="Helvetica,sans-Serif" font-size="10.00">tests/Apply_move_test.cpp</text>
</a>
</g>
</g>
<!-- Node7&#45;&gt;Node17 -->
<g id="edge17" class="edge">
<title>Node7&#45;&gt;Node17</title>
<path fill="none" stroke="midnightblue" d="M261.78,-245.41C325.53,-232.53 414.88,-214.5 466.88,-204"/>
<polygon fill="midnightblue" stroke="midnightblue" points="260.88,-242.01 251.77,-247.42 262.27,-248.88 260.88,-242.01"/>
</g>
<!-- Node18 -->
<g id="node18" class="node">
<title>Node18</title>
<g id="a_node18"><a xlink:href="_ergodic__moves__3__test_8cpp.html" target="_top" xlink:title="Tests for ergodic moves on foliated triangulations.">
<polygon fill="white" stroke="black" points="0,-179.5 0,-209.5 118,-209.5 118,-179.5 0,-179.5"/>
<text text-anchor="start" x="8" y="-197.5" font-family="Helvetica,sans-Serif" font-size="10.00">tests/Ergodic_moves</text>
<text text-anchor="middle" x="59" y="-186.5" font-family="Helvetica,sans-Serif" font-size="10.00">_3_test.cpp</text>
</a>
</g>
</g>
<!-- Node7&#45;&gt;Node18 -->
<g id="edge18" class="edge">
<title>Node7&#45;&gt;Node18</title>
<path fill="none" stroke="midnightblue" d="M150.28,-241.85C130.04,-231.58 105.33,-219.03 86.72,-209.58"/>
<polygon fill="midnightblue" stroke="midnightblue" points="148.72,-244.99 159.23,-246.4 151.89,-238.75 148.72,-244.99"/>
</g>
<!-- Node19 -->
<g id="node19" class="node">
<title>Node19</title>
<g id="a_node19"><a xlink:href="_function__ref__test_8cpp_source.html" target="_top" xlink:title=" ">
<polygon fill="white" stroke="black" points="136,-179.5 136,-209.5 240,-209.5 240,-179.5 136,-179.5"/>
<text text-anchor="start" x="144" y="-197.5" font-family="Helvetica,sans-Serif" font-size="10.00">tests/Function_ref</text>
<text text-anchor="middle" x="188" y="-186.5" font-family="Helvetica,sans-Serif" font-size="10.00">_test.cpp</text>
</a>
</g>
</g>
<!-- Node7&#45;&gt;Node19 -->
<g id="edge19" class="edge">
<title>Node7&#45;&gt;Node19</title>
<path fill="none" stroke="midnightblue" d="M187.38,-236.11C187.51,-227.15 187.66,-217.32 187.78,-209.58"/>
<polygon fill="midnightblue" stroke="midnightblue" points="183.87,-236.34 187.22,-246.4 190.87,-236.45 183.87,-236.34"/>
</g>
<!-- Node9 -->
<g id="node9" class="node">
<title>Node9</title>
<g id="a_node9"><a xlink:href="_move__strategy_8hpp.html" target="_top" xlink:title="Template class for move algorithms (strategies) on manifolds.">
<polygon fill="white" stroke="black" points="289.5,-118 289.5,-137 436.5,-137 436.5,-118 289.5,-118"/>
<text text-anchor="middle" x="363" y="-125" font-family="Helvetica,sans-Serif" font-size="10.00">include/Move_strategy.hpp</text>
</a>
</g>
</g>
<!-- Node8&#45;&gt;Node9 -->
<g id="edge8" class="edge">
<title>Node8&#45;&gt;Node9</title>
<path fill="none" stroke="midnightblue" d="M345,-175.29C349.8,-162.81 355.96,-146.81 359.68,-137.13"/>
<polygon fill="midnightblue" stroke="midnightblue" points="341.69,-174.14 341.37,-184.73 348.23,-176.66 341.69,-174.14"/>
</g>
<!-- Node16 -->
<g id="node16" class="node">
<title>Node16</title>
<g id="a_node16"><a xlink:href="_move__command__test_8cpp.html" target="_top" xlink:title="Tests of MoveCommand, that is, that moves are handled properly.">
<polygon fill="white" stroke="black" points="454.5,-112.5 454.5,-142.5 579.5,-142.5 579.5,-112.5 454.5,-112.5"/>
<text text-anchor="start" x="462.5" y="-130.5" font-family="Helvetica,sans-Serif" font-size="10.00">tests/Move_command</text>
<text text-anchor="middle" x="517" y="-119.5" font-family="Helvetica,sans-Serif" font-size="10.00">_test.cpp</text>
</a>
</g>
</g>
<!-- Node8&#45;&gt;Node16 -->
<g id="edge16" class="edge">
<title>Node8&#45;&gt;Node16</title>
<path fill="none" stroke="midnightblue" d="M371.47,-181.35C401.81,-170.33 446.52,-154.09 478.37,-142.53"/>
<polygon fill="midnightblue" stroke="midnightblue" points="369.97,-178.17 361.77,-184.87 372.36,-184.75 369.97,-178.17"/>
</g>
<!-- Node10 -->
<g id="node10" class="node">
<title>Node10</title>
<g id="a_node10"><a xlink:href="_metropolis_8hpp.html" target="_top" xlink:title="Perform Metropolis&#45;Hastings algorithm on Delaunay Triangulations.">
<polygon fill="white" stroke="black" points="631,-56.5 631,-75.5 759,-75.5 759,-56.5 631,-56.5"/>
<text text-anchor="middle" x="695" y="-63.5" font-family="Helvetica,sans-Serif" font-size="10.00">include/Metropolis.hpp</text>
</a>
</g>
</g>
<!-- Node9&#45;&gt;Node10 -->
<g id="edge9" class="edge">
<title>Node9&#45;&gt;Node10</title>
<path fill="none" stroke="midnightblue" d="M420.54,-116.19C484.81,-104.67 587.65,-86.24 647.52,-75.51"/>
<polygon fill="midnightblue" stroke="midnightblue" points="419.79,-112.77 410.57,-117.98 421.03,-119.66 419.79,-112.77"/>
</g>
<!-- Node14 -->
<g id="node14" class="node">
<title>Node14</title>
<g id="a_node14"><a xlink:href="_move__always_8hpp.html" target="_top" xlink:title="Randomly selects moves to always perform on triangulations.">
<polygon fill="white" stroke="black" points="341.5,-56.5 341.5,-75.5 484.5,-75.5 484.5,-56.5 341.5,-56.5"/>
<text text-anchor="middle" x="413" y="-63.5" font-family="Helvetica,sans-Serif" font-size="10.00">include/Move_always.hpp</text>
</a>
</g>
</g>
<!-- Node9&#45;&gt;Node14 -->
<g id="edge13" class="edge">
<title>Node9&#45;&gt;Node14</title>
<path fill="none" stroke="midnightblue" d="M376.72,-110.17C386.15,-98.95 398.28,-84.52 405.85,-75.51"/>
<polygon fill="midnightblue" stroke="midnightblue" points="373.92,-108.07 370.16,-117.98 379.28,-112.57 373.92,-108.07"/>
</g>
<!-- Node11 -->
<g id="node11" class="node">
<title>Node11</title>
<g id="a_node11"><a xlink:href="cdt-opt_8cpp.html" target="_top" xlink:title="Outputs values to determine optimizations.">
<polygon fill="white" stroke="black" points="514.5,-0.5 514.5,-19.5 603.5,-19.5 603.5,-0.5 514.5,-0.5"/>
<text text-anchor="middle" x="559" y="-7.5" font-family="Helvetica,sans-Serif" font-size="10.00">src/cdt&#45;opt.cpp</text>
</a>
</g>
</g>
<!-- Node10&#45;&gt;Node11 -->
<g id="edge10" class="edge">
<title>Node10&#45;&gt;Node11</title>
<path fill="none" stroke="midnightblue" d="M663.87,-52.64C638.34,-42.5 602.89,-28.43 580.45,-19.52"/>
<polygon fill="midnightblue" stroke="midnightblue" points="662.86,-56.01 673.45,-56.44 665.45,-49.5 662.86,-56.01"/>
</g>
<!-- Node10&#45;&gt;Node12 -->
<g id="edge11" class="edge">
<title>Node10&#45;&gt;Node12</title>
<path fill="none" stroke="midnightblue" d="M724.24,-52.37C747.65,-42.26 779.84,-28.35 800.29,-19.52"/>
<polygon fill="midnightblue" stroke="midnightblue" points="722.6,-49.26 714.81,-56.44 725.37,-55.69 722.6,-49.26"/>
</g>
<!-- Node13 -->
<g id="node13" class="node">
<title>Node13</title>
<g id="a_node13"><a xlink:href="_metropolis__test_8cpp.html" target="_top" xlink:title="Tests for the Metropolis&#45;Hastings algorithm.">
<polygon fill="white" stroke="black" points="625,-0.5 625,-19.5 765,-19.5 765,-0.5 625,-0.5"/>
<text text-anchor="middle" x="695" y="-7.5" font-family="Helvetica,sans-Serif" font-size="10.00">tests/Metropolis_test.cpp</text>
</a>
</g>
</g>
<!-- Node10&#45;&gt;Node13 -->
<g id="edge12" class="edge">
<title>Node10&#45;&gt;Node13</title>
<path fill="none" stroke="midnightblue" d="M695,-45.8C695,-36.91 695,-26.78 695,-19.75"/>
<polygon fill="midnightblue" stroke="midnightblue" points="691.5,-46.08 695,-56.08 698.5,-46.08 691.5,-46.08"/>
</g>
<!-- Node14&#45;&gt;Node11 -->
<g id="edge14" class="edge">
<title>Node14&#45;&gt;Node11</title>
<path fill="none" stroke="midnightblue" d="M445.7,-52.91C473.15,-42.75 511.67,-28.51 535.97,-19.52"/>
<polygon fill="midnightblue" stroke="midnightblue" points="444.3,-49.69 436.13,-56.44 446.73,-56.26 444.3,-49.69"/>
</g>
<!-- Node15 -->
<g id="node15" class="node">
<title>Node15</title>
<g id="a_node15"><a xlink:href="_move__always__test_8cpp_source.html" target="_top" xlink:title=" ">
<polygon fill="white" stroke="black" points="335.5,-0.5 335.5,-19.5 490.5,-19.5 490.5,-0.5 335.5,-0.5"/>
<text text-anchor="middle" x="413" y="-7.5" font-family="Helvetica,sans-Serif" font-size="10.00">tests/Move_always_test.cpp</text>
</a>
</g>
</g>
<!-- Node14&#45;&gt;Node15 -->
<g id="edge15" class="edge">
<title>Node14&#45;&gt;Node15</title>
<path fill="none" stroke="midnightblue" d="M413,-45.8C413,-36.91 413,-26.78 413,-19.75"/>
<polygon fill="midnightblue" stroke="midnightblue" points="409.5,-46.08 413,-56.08 416.5,-46.08 409.5,-46.08"/>
</g>
<!-- Node29&#45;&gt;Node3 -->
<g id="edge31" class="edge">
<title>Node29&#45;&gt;Node3</title>
<path fill="none" stroke="midnightblue" d="M740,-543.82C740,-533 740,-519.9 740,-511.51"/>
<polygon fill="midnightblue" stroke="midnightblue" points="736.5,-543.98 740,-553.98 743.5,-543.98 736.5,-543.98"/>
</g>
<!-- Node30&#45;&gt;Node10 -->
<g id="edge33" class="edge">
<title>Node30&#45;&gt;Node10</title>
<path fill="none" stroke="midnightblue" d="M976.27,-361.32C986.42,-348.11 996.59,-329.26 989,-313 929.71,-186.07 769.14,-101.56 713.94,-75.52"/>
<polygon fill="midnightblue" stroke="midnightblue" points="973.5,-359.17 969.79,-369.09 978.88,-363.65 973.5,-359.17"/>
</g>
<!-- Node30&#45;&gt;Node23 -->
<g id="edge34" class="edge">
<title>Node30&#45;&gt;Node23</title>
<path fill="none" stroke="midnightblue" d="M946.58,-361.43C938.34,-351.97 928.35,-340.48 921.62,-332.75"/>
<polygon fill="midnightblue" stroke="midnightblue" points="944.03,-363.84 953.24,-369.08 949.31,-359.24 944.03,-363.84"/>
</g>
</g>
</svg>
