<?xml version="1.0" encoding="UTF-8" standalone="no"?>
<!DOCTYPE svg PUBLIC "-//W3C//DTD SVG 1.1//EN"
 "http://www.w3.org/Graphics/SVG/1.1/DTD/svg11.dtd">
<!-- Generated by graphviz version 2.43.0 (0)
 -->
<!-- Title: include/Settings.hpp Pages: 1 -->
<svg width="1066pt" height="643pt"
 viewBox="0.00 0.00 1065.50 643.00" xmlns="http://www.w3.org/2000/svg" xmlns:xlink="http://www.w3.org/1999/xlink">
<g id="graph0" class="graph" transform="scale(1 1) rotate(0) translate(4 639)">
<title>include/Settings.hpp</title>
<polygon fill="white" stroke="transparent" points="-4,4 -4,-639 1061.5,-639 1061.5,4 -4,4"/>
<!-- Node1 -->
<g id="node1" class="node">
<title>Node1</title>
<g id="a_node1"><a xlink:title="Global integer and precision settings.">
<polygon fill="#bfbfbf" stroke="black" points="605.5,-615.5 605.5,-634.5 721.5,-634.5 721.5,-615.5 605.5,-615.5"/>
<text text-anchor="middle" x="663.5" y="-622.5" font-family="Helvetica,sans-Serif" font-size="10.00">include/Settings.hpp</text>
</a>
</g>
</g>
<!-- Node2 -->
<g id="node2" class="node">
<title>Node2</title>
<g id="a_node2"><a xlink:href="_triangulation__traits_8hpp.html" target="_top" xlink:title="Traits class for particular uses of CGAL.">
<polygon fill="white" stroke="black" points="375.5,-548.5 375.5,-578.5 493.5,-578.5 493.5,-548.5 375.5,-548.5"/>
<text text-anchor="start" x="383.5" y="-566.5" font-family="Helvetica,sans-Serif" font-size="10.00">include/Triangulation</text>
<text text-anchor="middle" x="434.5" y="-555.5" font-family="Helvetica,sans-Serif" font-size="10.00">_traits.hpp</text>
</a>
</g>
</g>
<!-- Node1&#45;&gt;Node2 -->
<g id="edge1" class="edge">
<title>Node1&#45;&gt;Node2</title>
<path fill="none" stroke="midnightblue" d="M620.62,-612.86C583.23,-603.14 528.82,-589.01 488.47,-578.52"/>
<polygon fill="midnightblue" stroke="midnightblue" points="620.13,-616.35 630.69,-615.48 621.89,-609.57 620.13,-616.35"/>
</g>
<!-- Node29 -->
<g id="node29" class="node">
<title>Node29</title>
<g id="a_node29"><a xlink:href="_utilities_8hpp.html" target="_top" xlink:title="Utility functions.">
<polygon fill="white" stroke="black" points="521.5,-554 521.5,-573 635.5,-573 635.5,-554 521.5,-554"/>
<text text-anchor="middle" x="578.5" y="-561" font-family="Helvetica,sans-Serif" font-size="10.00">include/Utilities.hpp</text>
</a>
</g>
</g>
<!-- Node1&#45;&gt;Node29 -->
<g id="edge29" class="edge">
<title>Node1&#45;&gt;Node29</title>
<path fill="none" stroke="midnightblue" d="M642.95,-609.61C626.6,-598.17 604.28,-582.55 590.66,-573.01"/>
<polygon fill="midnightblue" stroke="midnightblue" points="641.12,-612.61 651.32,-615.48 645.14,-606.87 641.12,-612.61"/>
</g>
<!-- Node31 -->
<g id="node31" class="node">
<title>Node31</title>
<g id="a_node31"><a xlink:href="_s3_action_8hpp.html" target="_top" xlink:title="Calculate S3 bulk actions on 3D Delaunay Triangulations.">
<polygon fill="white" stroke="black" points="711,-369.5 711,-388.5 830,-388.5 830,-369.5 711,-369.5"/>
<text text-anchor="middle" x="770.5" y="-376.5" font-family="Helvetica,sans-Serif" font-size="10.00">include/S3Action.hpp</text>
</a>
</g>
</g>
<!-- Node1&#45;&gt;Node31 -->
<g id="edge32" class="edge">
<title>Node1&#45;&gt;Node31</title>
<path fill="none" stroke="midnightblue" d="M666.86,-605.4C669.99,-589.78 675.26,-567.02 682.5,-548 706.87,-484 749.73,-413.09 764.95,-388.75"/>
<polygon fill="midnightblue" stroke="midnightblue" points="663.4,-604.89 664.97,-615.36 670.27,-606.19 663.4,-604.89"/>
</g>
<!-- Node32 -->
<g id="node32" class="node">
<title>Node32</title>
<g id="a_node32"><a xlink:href="cdt-gv_8cpp.html" target="_top" xlink:title="A pipeline from CDT++ to Geomview , a visualizer.">
<polygon fill="white" stroke="black" points="691.5,-554 691.5,-573 775.5,-573 775.5,-554 691.5,-554"/>
<text text-anchor="middle" x="733.5" y="-561" font-family="Helvetica,sans-Serif" font-size="10.00">src/cdt&#45;gv.cpp</text>
</a>
</g>
</g>
<!-- Node1&#45;&gt;Node32 -->
<g id="edge35" class="edge">
<title>Node1&#45;&gt;Node32</title>
<path fill="none" stroke="midnightblue" d="M681.18,-608.97C694.57,-597.59 712.48,-582.37 723.49,-573.01"/>
<polygon fill="midnightblue" stroke="midnightblue" points="678.88,-606.33 673.53,-615.48 683.42,-611.67 678.88,-606.33"/>
</g>
<!-- Node33 -->
<g id="node33" class="node">
<title>Node33</title>
<g id="a_node33"><a xlink:href="_settings__test_8cpp.html" target="_top" xlink:title="Global settings on integer types and MPFR precision.">
<polygon fill="white" stroke="black" points="793.5,-554 793.5,-573 921.5,-573 921.5,-554 793.5,-554"/>
<text text-anchor="middle" x="857.5" y="-561" font-family="Helvetica,sans-Serif" font-size="10.00">tests/Settings_test.cpp</text>
</a>
</g>
</g>
<!-- Node1&#45;&gt;Node33 -->
<g id="edge36" class="edge">
<title>Node1&#45;&gt;Node33</title>
<path fill="none" stroke="midnightblue" d="M700.9,-612.53C738.61,-600.96 795.93,-583.38 829.76,-573.01"/>
<polygon fill="midnightblue" stroke="midnightblue" points="699.83,-609.2 691.3,-615.48 701.88,-615.89 699.83,-609.2"/>
</g>
<!-- Node3 -->
<g id="node3" class="node">
<title>Node3</title>
<g id="a_node3"><a xlink:href="_foliated__triangulation_8hpp.html" target="_top" xlink:title="Create foliated spherical triangulations.">
<polygon fill="white" stroke="black" points="338.5,-492.5 338.5,-511.5 520.5,-511.5 520.5,-492.5 338.5,-492.5"/>
<text text-anchor="middle" x="429.5" y="-499.5" font-family="Helvetica,sans-Serif" font-size="10.00">include/Foliated_triangulation.hpp</text>
</a>
</g>
</g>
<!-- Node2&#45;&gt;Node3 -->
<g id="edge2" class="edge">
<title>Node2&#45;&gt;Node3</title>
<path fill="none" stroke="midnightblue" d="M432.47,-538.29C431.67,-528.86 430.82,-518.65 430.23,-511.66"/>
<polygon fill="midnightblue" stroke="midnightblue" points="428.99,-538.73 433.32,-548.4 435.97,-538.14 428.99,-538.73"/>
</g>
<!-- Node4 -->
<g id="node4" class="node">
<title>Node4</title>
<g id="a_node4"><a xlink:href="_geometry_8hpp.html" target="_top" xlink:title="Geometric quantities of Manifold used by MoveAlgorithm.">
<polygon fill="white" stroke="black" points="440,-431 440,-450 563,-450 563,-431 440,-431"/>
<text text-anchor="middle" x="501.5" y="-438" font-family="Helvetica,sans-Serif" font-size="10.00">include/Geometry.hpp</text>
</a>
</g>
</g>
<!-- Node3&#45;&gt;Node4 -->
<g id="edge3" class="edge">
<title>Node3&#45;&gt;Node4</title>
<path fill="none" stroke="midnightblue" d="M447.68,-485.97C461.46,-474.59 479.88,-459.37 491.2,-450.01"/>
<polygon fill="midnightblue" stroke="midnightblue" points="445.29,-483.41 439.82,-492.48 449.75,-488.8 445.29,-483.41"/>
</g>
<!-- Node27 -->
<g id="node27" class="node">
<title>Node27</title>
<g id="a_node27"><a xlink:href="_foliated__triangulation__test_8cpp.html" target="_top" xlink:title="Tests for foliated triangulations.">
<polygon fill="white" stroke="black" points="107.5,-425.5 107.5,-455.5 257.5,-455.5 257.5,-425.5 107.5,-425.5"/>
<text text-anchor="start" x="115.5" y="-443.5" font-family="Helvetica,sans-Serif" font-size="10.00">tests/Foliated_triangulation</text>
<text text-anchor="middle" x="182.5" y="-432.5" font-family="Helvetica,sans-Serif" font-size="10.00">_test.cpp</text>
</a>
</g>
</g>
<!-- Node3&#45;&gt;Node27 -->
<g id="edge27" class="edge">
<title>Node3&#45;&gt;Node27</title>
<path fill="none" stroke="midnightblue" d="M384.28,-490.11C343.93,-480.39 284.6,-466.1 240.71,-455.52"/>
<polygon fill="midnightblue" stroke="midnightblue" points="383.57,-493.54 394.11,-492.48 385.21,-486.73 383.57,-493.54"/>
</g>
<!-- Node28 -->
<g id="node28" class="node">
<title>Node28</title>
<g id="a_node28"><a xlink:href="_tetrahedron__test_8cpp.html" target="_top" xlink:title="Tests for 3D triangulated and foliated tetrahedrons.">
<polygon fill="white" stroke="black" points="275.5,-431 275.5,-450 421.5,-450 421.5,-431 275.5,-431"/>
<text text-anchor="middle" x="348.5" y="-438" font-family="Helvetica,sans-Serif" font-size="10.00">tests/Tetrahedron_test.cpp</text>
</a>
</g>
</g>
<!-- Node3&#45;&gt;Node28 -->
<g id="edge28" class="edge">
<title>Node3&#45;&gt;Node28</title>
<path fill="none" stroke="midnightblue" d="M409.48,-486.29C393.94,-474.88 372.95,-459.46 360.08,-450.01"/>
<polygon fill="midnightblue" stroke="midnightblue" points="407.76,-489.38 417.89,-492.48 411.91,-483.73 407.76,-489.38"/>
</g>
<!-- Node5 -->
<g id="node5" class="node">
<title>Node5</title>
<g id="a_node5"><a xlink:href="_manifold_8hpp.html" target="_top" xlink:title="Data structures for manifolds.">
<polygon fill="white" stroke="black" points="442,-369.5 442,-388.5 561,-388.5 561,-369.5 442,-369.5"/>
<text text-anchor="middle" x="501.5" y="-376.5" font-family="Helvetica,sans-Serif" font-size="10.00">include/Manifold.hpp</text>
</a>
</g>
</g>
<!-- Node4&#45;&gt;Node5 -->
<g id="edge4" class="edge">
<title>Node4&#45;&gt;Node5</title>
<path fill="none" stroke="midnightblue" d="M501.5,-420.82C501.5,-410 501.5,-396.9 501.5,-388.51"/>
<polygon fill="midnightblue" stroke="midnightblue" points="498,-420.98 501.5,-430.98 505,-420.98 498,-420.98"/>
</g>
<!-- Node26 -->
<g id="node26" class="node">
<title>Node26</title>
<g id="a_node26"><a xlink:href="_geometry__test_8cpp.html" target="_top" xlink:title="Tests of new geometry data structure.">
<polygon fill="white" stroke="black" points="287,-369.5 287,-388.5 424,-388.5 424,-369.5 287,-369.5"/>
<text text-anchor="middle" x="355.5" y="-376.5" font-family="Helvetica,sans-Serif" font-size="10.00">tests/Geometry_test.cpp</text>
</a>
</g>
</g>
<!-- Node4&#45;&gt;Node26 -->
<g id="edge26" class="edge">
<title>Node4&#45;&gt;Node26</title>
<path fill="none" stroke="midnightblue" d="M471.15,-427.13C442.79,-415.57 401.19,-398.62 376.38,-388.51"/>
<polygon fill="midnightblue" stroke="midnightblue" points="470,-430.44 480.58,-430.98 472.64,-423.96 470,-430.44"/>
</g>
<!-- Node6 -->
<g id="node6" class="node">
<title>Node6</title>
<g id="a_node6"><a xlink:href="_move__tracker_8hpp.html" target="_top" xlink:title="Track ergodic moves.">
<polygon fill="white" stroke="black" points="431,-313.5 431,-332.5 572,-332.5 572,-313.5 431,-313.5"/>
<text text-anchor="middle" x="501.5" y="-320.5" font-family="Helvetica,sans-Serif" font-size="10.00">include/Move_tracker.hpp</text>
</a>
</g>
</g>
<!-- Node5&#45;&gt;Node6 -->
<g id="edge5" class="edge">
<title>Node5&#45;&gt;Node6</title>
<path fill="none" stroke="midnightblue" d="M501.5,-358.8C501.5,-349.91 501.5,-339.78 501.5,-332.75"/>
<polygon fill="midnightblue" stroke="midnightblue" points="498,-359.08 501.5,-369.08 505,-359.08 498,-359.08"/>
</g>
<!-- Node21 -->
<g id="node21" class="node">
<title>Node21</title>
<g id="a_node21"><a xlink:href="initialize_8cpp.html" target="_top" xlink:title="Generates initial spacetimes.">
<polygon fill="white" stroke="black" points="590.5,-313.5 590.5,-332.5 686.5,-332.5 686.5,-313.5 590.5,-313.5"/>
<text text-anchor="middle" x="638.5" y="-320.5" font-family="Helvetica,sans-Serif" font-size="10.00">src/initialize.cpp</text>
</a>
</g>
</g>
<!-- Node5&#45;&gt;Node21 -->
<g id="edge21" class="edge">
<title>Node5&#45;&gt;Node21</title>
<path fill="none" stroke="midnightblue" d="M532.52,-365.77C558.26,-355.63 594.19,-341.47 616.89,-332.52"/>
<polygon fill="midnightblue" stroke="midnightblue" points="531.23,-362.52 523.21,-369.44 533.79,-369.03 531.23,-362.52"/>
</g>
<!-- Node22 -->
<g id="node22" class="node">
<title>Node22</title>
<g id="a_node22"><a xlink:href="_manifold__test_8cpp.html" target="_top" xlink:title="Tests of new manifold data structure.">
<polygon fill="white" stroke="black" points="0,-313.5 0,-332.5 131,-332.5 131,-313.5 0,-313.5"/>
<text text-anchor="middle" x="65.5" y="-320.5" font-family="Helvetica,sans-Serif" font-size="10.00">tests/Manifold_test.cpp</text>
</a>
</g>
</g>
<!-- Node5&#45;&gt;Node22 -->
<g id="edge22" class="edge">
<title>Node5&#45;&gt;Node22</title>
<path fill="none" stroke="midnightblue" d="M431.58,-368.89C319.97,-354.8 202.44,-340.5 131.15,-331.9"/>
<polygon fill="midnightblue" stroke="midnightblue" points="431.3,-372.38 441.66,-370.17 432.18,-365.44 431.3,-372.38"/>
</g>
<!-- Node23 -->
<g id="node23" class="node">
<title>Node23</title>
<g id="a_node23"><a xlink:href="_s3_action__test_8cpp.html" target="_top" xlink:title="Tests for the S3 action functions.">
<polygon fill="white" stroke="black" points="705,-313.5 705,-332.5 836,-332.5 836,-313.5 705,-313.5"/>
<text text-anchor="middle" x="770.5" y="-320.5" font-family="Helvetica,sans-Serif" font-size="10.00">tests/S3Action_test.cpp</text>
</a>
</g>
</g>
<!-- Node5&#45;&gt;Node23 -->
<g id="edge23" class="edge">
<title>Node5&#45;&gt;Node23</title>
<path fill="none" stroke="midnightblue" d="M553.94,-367.47C604.78,-357.27 680.94,-341.98 728.08,-332.52"/>
<polygon fill="midnightblue" stroke="midnightblue" points="553.24,-364.04 544.12,-369.44 554.62,-370.91 553.24,-364.04"/>
</g>
<!-- Node24 -->
<g id="node24" class="node">
<title>Node24</title>
<g id="a_node24"><a xlink:href="_utilities__test_8cpp.html" target="_top" xlink:title="Tests on utility functions.">
<polygon fill="white" stroke="black" points="149.5,-313.5 149.5,-332.5 275.5,-332.5 275.5,-313.5 149.5,-313.5"/>
<text text-anchor="middle" x="212.5" y="-320.5" font-family="Helvetica,sans-Serif" font-size="10.00">tests/Utilities_test.cpp</text>
</a>
</g>
</g>
<!-- Node5&#45;&gt;Node24 -->
<g id="edge24" class="edge">
<title>Node5&#45;&gt;Node24</title>
<path fill="none" stroke="midnightblue" d="M445.84,-367.6C391.23,-357.4 308.93,-342.02 258.08,-332.52"/>
<polygon fill="midnightblue" stroke="midnightblue" points="445.23,-371.05 455.71,-369.44 446.52,-364.17 445.23,-371.05"/>
</g>
<!-- Node25 -->
<g id="node25" class="node">
<title>Node25</title>
<g id="a_node25"><a xlink:href="_vertex__test_8cpp.html" target="_top" xlink:title="Tests on vertices in Delaunay triangulations.">
<polygon fill="white" stroke="black" points="294,-313.5 294,-332.5 413,-332.5 413,-313.5 294,-313.5"/>
<text text-anchor="middle" x="353.5" y="-320.5" font-family="Helvetica,sans-Serif" font-size="10.00">tests/Vertex_test.cpp</text>
</a>
</g>
</g>
<!-- Node5&#45;&gt;Node25 -->
<g id="edge25" class="edge">
<title>Node5&#45;&gt;Node25</title>
<path fill="none" stroke="midnightblue" d="M468.35,-365.91C440.53,-355.75 401.48,-341.51 376.84,-332.52"/>
<polygon fill="midnightblue" stroke="midnightblue" points="467.46,-369.3 478.05,-369.44 469.85,-362.73 467.46,-369.3"/>
</g>
<!-- Node7 -->
<g id="node7" class="node">
<title>Node7</title>
<g id="a_node7"><a xlink:href="_ergodic__moves__3_8hpp.html" target="_top" xlink:title="Pachner moves on 2+1 dimensional foliated Delaunay triangulations.">
<polygon fill="white" stroke="black" points="467,-246.5 467,-276.5 596,-276.5 596,-246.5 467,-246.5"/>
<text text-anchor="start" x="475" y="-264.5" font-family="Helvetica,sans-Serif" font-size="10.00">include/Ergodic_moves</text>
<text text-anchor="middle" x="531.5" y="-253.5" font-family="Helvetica,sans-Serif" font-size="10.00">_3.hpp</text>
</a>
</g>
</g>
<!-- Node6&#45;&gt;Node7 -->
<g id="edge6" class="edge">
<title>Node6&#45;&gt;Node7</title>
<path fill="none" stroke="midnightblue" d="M510.38,-304.39C514.86,-295.5 520.23,-284.86 524.43,-276.52"/>
<polygon fill="midnightblue" stroke="midnightblue" points="507.18,-302.97 505.8,-313.48 513.43,-306.12 507.18,-302.97"/>
</g>
<!-- Node20 -->
<g id="node20" class="node">
<title>Node20</title>
<g id="a_node20"><a xlink:href="_move__tracker__test_8cpp.html" target="_top" xlink:title="Tests of MoveTracker, that is, that moves are tracked properly.">
<polygon fill="white" stroke="black" points="338.5,-246.5 338.5,-276.5 448.5,-276.5 448.5,-246.5 338.5,-246.5"/>
<text text-anchor="start" x="346.5" y="-264.5" font-family="Helvetica,sans-Serif" font-size="10.00">tests/Move_tracker</text>
<text text-anchor="middle" x="393.5" y="-253.5" font-family="Helvetica,sans-Serif" font-size="10.00">_test.cpp</text>
</a>
</g>
</g>
<!-- Node6&#45;&gt;Node20 -->
<g id="edge20" class="edge">
<title>Node6&#45;&gt;Node20</title>
<path fill="none" stroke="midnightblue" d="M477.07,-308.54C459.74,-298.99 436.52,-286.2 418.95,-276.52"/>
<polygon fill="midnightblue" stroke="midnightblue" points="475.58,-311.72 486.03,-313.48 478.96,-305.58 475.58,-311.72"/>
</g>
<!-- Node8 -->
<g id="node8" class="node">
<title>Node8</title>
<g id="a_node8"><a xlink:href="_move__command_8hpp.html" target="_top" xlink:title="Do ergodic moves using the Command pattern.">
<polygon fill="white" stroke="black" points="643,-185 643,-204 800,-204 800,-185 643,-185"/>
<text text-anchor="middle" x="721.5" y="-192" font-family="Helvetica,sans-Serif" font-size="10.00">include/Move_command.hpp</text>
</a>
</g>
</g>
<!-- Node7&#45;&gt;Node8 -->
<g id="edge7" class="edge">
<title>Node7&#45;&gt;Node8</title>
<path fill="none" stroke="midnightblue" d="M582.34,-243.11C619.3,-230.46 667.74,-213.89 696.63,-204.01"/>
<polygon fill="midnightblue" stroke="midnightblue" points="581.06,-239.85 572.73,-246.4 583.32,-246.47 581.06,-239.85"/>
</g>
<!-- Node17 -->
<g id="node17" class="node">
<title>Node17</title>
<g id="a_node17"><a xlink:href="_apply__move__test_8cpp.html" target="_top" xlink:title="Applying ergodic moves to manifolds.">
<polygon fill="white" stroke="black" points="217,-185 217,-204 366,-204 366,-185 217,-185"/>
<text text-anchor="middle" x="291.5" y="-192" font-family="Helvetica,sans-Serif" font-size="10.00">tests/Apply_move_test.cpp</text>
</a>
</g>
</g>
<!-- Node7&#45;&gt;Node17 -->
<g id="edge17" class="edge">
<title>Node7&#45;&gt;Node17</title>
<path fill="none" stroke="midnightblue" d="M469.95,-243.83C422.98,-231.11 360.2,-214.11 322.99,-204.03"/>
<polygon fill="midnightblue" stroke="midnightblue" points="469.15,-247.24 479.72,-246.48 470.98,-240.48 469.15,-247.24"/>
</g>
<!-- Node18 -->
<g id="node18" class="node">
<title>Node18</title>
<g id="a_node18"><a xlink:href="_ergodic__moves__3__test_8cpp.html" target="_top" xlink:title="Tests for ergodic moves on foliated triangulations.">
<polygon fill="white" stroke="black" points="384.5,-179.5 384.5,-209.5 502.5,-209.5 502.5,-179.5 384.5,-179.5"/>
<text text-anchor="start" x="392.5" y="-197.5" font-family="Helvetica,sans-Serif" font-size="10.00">tests/Ergodic_moves</text>
<text text-anchor="middle" x="443.5" y="-186.5" font-family="Helvetica,sans-Serif" font-size="10.00">_3_test.cpp</text>
</a>
</g>
</g>
<!-- Node7&#45;&gt;Node18 -->
<g id="edge18" class="edge">
<title>Node7&#45;&gt;Node18</title>
<path fill="none" stroke="midnightblue" d="M504.36,-240.45C490.82,-230.45 474.77,-218.6 462.56,-209.58"/>
<polygon fill="midnightblue" stroke="midnightblue" points="502.28,-243.27 512.41,-246.4 506.44,-237.64 502.28,-243.27"/>
</g>
<!-- Node19 -->
<g id="node19" class="node">
<title>Node19</title>
<g id="a_node19"><a xlink:href="_function__ref__test_8cpp_source.html" target="_top" xlink:title=" ">
<polygon fill="white" stroke="black" points="520.5,-179.5 520.5,-209.5 624.5,-209.5 624.5,-179.5 520.5,-179.5"/>
<text text-anchor="start" x="528.5" y="-197.5" font-family="Helvetica,sans-Serif" font-size="10.00">tests/Function_ref</text>
<text text-anchor="middle" x="572.5" y="-186.5" font-family="Helvetica,sans-Serif" font-size="10.00">_test.cpp</text>
</a>
</g>
</g>
<!-- Node7&#45;&gt;Node19 -->
<g id="edge19" class="edge">
<title>Node7&#45;&gt;Node19</title>
<path fill="none" stroke="midnightblue" d="M545.78,-237.87C551.71,-228.46 558.41,-217.83 563.62,-209.58"/>
<polygon fill="midnightblue" stroke="midnightblue" points="542.77,-236.07 540.4,-246.4 548.69,-239.81 542.77,-236.07"/>
</g>
<!-- Node9 -->
<g id="node9" class="node">
<title>Node9</title>
<g id="a_node9"><a xlink:href="_move__strategy_8hpp.html" target="_top" xlink:title="Template class for move algorithms (strategies) on manifolds.">
<polygon fill="white" stroke="black" points="663,-118 663,-137 810,-137 810,-118 663,-118"/>
<text text-anchor="middle" x="736.5" y="-125" font-family="Helvetica,sans-Serif" font-size="10.00">include/Move_strategy.hpp</text>
</a>
</g>
</g>
<!-- Node8&#45;&gt;Node9 -->
<g id="edge8" class="edge">
<title>Node8&#45;&gt;Node9</title>
<path fill="none" stroke="midnightblue" d="M725.79,-174.91C728.66,-162.49 732.3,-146.72 734.51,-137.13"/>
<polygon fill="midnightblue" stroke="midnightblue" points="722.36,-174.2 723.52,-184.73 729.18,-175.78 722.36,-174.2"/>
</g>
<!-- Node16 -->
<g id="node16" class="node">
<title>Node16</title>
<g id="a_node16"><a xlink:href="_move__command__test_8cpp.html" target="_top" xlink:title="Tests of MoveCommand, that is, that moves are handled properly.">
<polygon fill="white" stroke="black" points="520,-112.5 520,-142.5 645,-142.5 645,-112.5 520,-112.5"/>
<text text-anchor="start" x="528" y="-130.5" font-family="Helvetica,sans-Serif" font-size="10.00">tests/Move_command</text>
<text text-anchor="middle" x="582.5" y="-119.5" font-family="Helvetica,sans-Serif" font-size="10.00">_test.cpp</text>
</a>
</g>
</g>
<!-- Node8&#45;&gt;Node16 -->
<g id="edge16" class="edge">
<title>Node8&#45;&gt;Node16</title>
<path fill="none" stroke="midnightblue" d="M693.96,-180.62C670.44,-169.63 636.69,-153.84 612.5,-142.53"/>
<polygon fill="midnightblue" stroke="midnightblue" points="692.5,-183.8 703.04,-184.87 695.47,-177.46 692.5,-183.8"/>
</g>
<!-- Node10 -->
<g id="node10" class="node">
<title>Node10</title>
<g id="a_node10"><a xlink:href="_metropolis_8hpp.html" target="_top" xlink:title="Perform Metropolis&#45;Hastings algorithm on Delaunay Triangulations.">
<polygon fill="white" stroke="black" points="800.5,-56.5 800.5,-75.5 928.5,-75.5 928.5,-56.5 800.5,-56.5"/>
<text text-anchor="middle" x="864.5" y="-63.5" font-family="Helvetica,sans-Serif" font-size="10.00">include/Metropolis.hpp</text>
</a>
</g>
</g>
<!-- Node9&#45;&gt;Node10 -->
<g id="edge9" class="edge">
<title>Node9&#45;&gt;Node10</title>
<path fill="none" stroke="midnightblue" d="M764.09,-113.67C788.93,-102.13 824.73,-85.49 846.19,-75.51"/>
<polygon fill="midnightblue" stroke="midnightblue" points="762.43,-110.59 754.84,-117.98 765.38,-116.93 762.43,-110.59"/>
</g>
<!-- Node14 -->
<g id="node14" class="node">
<title>Node14</title>
<g id="a_node14"><a xlink:href="_move__always_8hpp.html" target="_top" xlink:title="Randomly selects moves to always perform on triangulations.">
<polygon fill="white" stroke="black" points="639,-56.5 639,-75.5 782,-75.5 782,-56.5 639,-56.5"/>
<text text-anchor="middle" x="710.5" y="-63.5" font-family="Helvetica,sans-Serif" font-size="10.00">include/Move_always.hpp</text>
</a>
</g>
</g>
<!-- Node9&#45;&gt;Node14 -->
<g id="edge13" class="edge">
<title>Node9&#45;&gt;Node14</title>
<path fill="none" stroke="midnightblue" d="M728.63,-108.5C723.85,-97.55 717.96,-84.07 714.22,-75.51"/>
<polygon fill="midnightblue" stroke="midnightblue" points="725.56,-110.21 732.77,-117.98 731.98,-107.41 725.56,-110.21"/>
</g>
<!-- Node11 -->
<g id="node11" class="node">
<title>Node11</title>
<g id="a_node11"><a xlink:href="cdt-opt_8cpp.html" target="_top" xlink:title="Outputs values to determine optimizations.">
<polygon fill="white" stroke="black" points="723,-0.5 723,-19.5 812,-19.5 812,-0.5 723,-0.5"/>
<text text-anchor="middle" x="767.5" y="-7.5" font-family="Helvetica,sans-Serif" font-size="10.00">src/cdt&#45;opt.cpp</text>
</a>
</g>
</g>
<!-- Node10&#45;&gt;Node11 -->
<g id="edge10" class="edge">
<title>Node10&#45;&gt;Node11</title>
<path fill="none" stroke="midnightblue" d="M840.16,-51.45C822.26,-41.48 798.45,-28.23 783.05,-19.65"/>
<polygon fill="midnightblue" stroke="midnightblue" points="838.48,-54.52 848.92,-56.32 841.88,-48.4 838.48,-54.52"/>
</g>
<!-- Node12 -->
<g id="node12" class="node">
<title>Node12</title>
<g id="a_node12"><a xlink:href="cdt_8cpp.html" target="_top" xlink:title="The main executable.">
<polygon fill="white" stroke="black" points="830,-0.5 830,-19.5 899,-19.5 899,-0.5 830,-0.5"/>
<text text-anchor="middle" x="864.5" y="-7.5" font-family="Helvetica,sans-Serif" font-size="10.00">src/cdt.cpp</text>
</a>
</g>
</g>
<!-- Node10&#45;&gt;Node12 -->
<g id="edge11" class="edge">
<title>Node10&#45;&gt;Node12</title>
<path fill="none" stroke="midnightblue" d="M864.5,-45.8C864.5,-36.91 864.5,-26.78 864.5,-19.75"/>
<polygon fill="midnightblue" stroke="midnightblue" points="861,-46.08 864.5,-56.08 868,-46.08 861,-46.08"/>
</g>
<!-- Node13 -->
<g id="node13" class="node">
<title>Node13</title>
<g id="a_node13"><a xlink:href="_metropolis__test_8cpp.html" target="_top" xlink:title="Tests for the Metropolis&#45;Hastings algorithm.">
<polygon fill="white" stroke="black" points="917.5,-0.5 917.5,-19.5 1057.5,-19.5 1057.5,-0.5 917.5,-0.5"/>
<text text-anchor="middle" x="987.5" y="-7.5" font-family="Helvetica,sans-Serif" font-size="10.00">tests/Metropolis_test.cpp</text>
</a>
</g>
</g>
<!-- Node10&#45;&gt;Node13 -->
<g id="edge12" class="edge">
<title>Node10&#45;&gt;Node13</title>
<path fill="none" stroke="midnightblue" d="M893.27,-52.37C916.31,-42.26 947.98,-28.35 968.1,-19.52"/>
<polygon fill="midnightblue" stroke="midnightblue" points="891.74,-49.22 883.99,-56.44 894.55,-55.63 891.74,-49.22"/>
</g>
<!-- Node14&#45;&gt;Node11 -->
<g id="edge14" class="edge">
<title>Node14&#45;&gt;Node11</title>
<path fill="none" stroke="midnightblue" d="M727.12,-49.25C737.23,-39.67 749.78,-27.79 758.18,-19.83"/>
<polygon fill="midnightblue" stroke="midnightblue" points="724.51,-46.91 719.66,-56.32 729.32,-51.99 724.51,-46.91"/>
</g>
<!-- Node15 -->
<g id="node15" class="node">
<title>Node15</title>
<g id="a_node15"><a xlink:href="_move__always__test_8cpp_source.html" target="_top" xlink:title=" ">
<polygon fill="white" stroke="black" points="550,-0.5 550,-19.5 705,-19.5 705,-0.5 550,-0.5"/>
<text text-anchor="middle" x="627.5" y="-7.5" font-family="Helvetica,sans-Serif" font-size="10.00">tests/Move_always_test.cpp</text>
</a>
</g>
</g>
<!-- Node14&#45;&gt;Node15 -->
<g id="edge15" class="edge">
<title>Node14&#45;&gt;Node15</title>
<path fill="none" stroke="midnightblue" d="M688.4,-50.62C673.24,-40.76 653.62,-27.99 640.8,-19.65"/>
<polygon fill="midnightblue" stroke="midnightblue" points="686.87,-53.8 697.16,-56.32 690.69,-47.94 686.87,-53.8"/>
</g>
<!-- Node29&#45;&gt;Node3 -->
<g id="edge30" class="edge">
<title>Node29&#45;&gt;Node3</title>
<path fill="none" stroke="midnightblue" d="M547.53,-550.13C518.58,-538.57 476.13,-521.62 450.81,-511.51"/>
<polygon fill="midnightblue" stroke="midnightblue" points="546.57,-553.52 557.15,-553.98 549.16,-547.02 546.57,-553.52"/>
</g>
<!-- Node30 -->
<g id="node30" class="node">
<title>Node30</title>
<g id="a_node30"><a xlink:href="main_8cpp.html" target="_top" xlink:title="Catch test driver.">
<polygon fill="white" stroke="black" points="539,-492.5 539,-511.5 628,-511.5 628,-492.5 539,-492.5"/>
<text text-anchor="middle" x="583.5" y="-499.5" font-family="Helvetica,sans-Serif" font-size="10.00">tests/main.cpp</text>
</a>
</g>
</g>
<!-- Node29&#45;&gt;Node30 -->
<g id="edge31" class="edge">
<title>Node29&#45;&gt;Node30</title>
<path fill="none" stroke="midnightblue" d="M580.07,-543.82C580.98,-533 582.08,-519.9 582.78,-511.51"/>
<polygon fill="midnightblue" stroke="midnightblue" points="576.57,-543.72 579.22,-553.98 583.54,-544.3 576.57,-543.72"/>
</g>
<!-- Node31&#45;&gt;Node10 -->
<g id="edge33" class="edge">
<title>Node31&#45;&gt;Node10</title>
<path fill="none" stroke="midnightblue" d="M803.55,-365.05C818.35,-357.7 834.84,-347.12 845.5,-333 865.06,-307.1 864.5,-294.95 864.5,-262.5 864.5,-262.5 864.5,-262.5 864.5,-193.5 864.5,-149.14 864.5,-96.02 864.5,-75.59"/>
<polygon fill="midnightblue" stroke="midnightblue" points="801.74,-362.03 794.14,-369.41 804.69,-368.38 801.74,-362.03"/>
</g>
<!-- Node31&#45;&gt;Node23 -->
<g id="edge34" class="edge">
<title>Node31&#45;&gt;Node23</title>
<path fill="none" stroke="midnightblue" d="M770.5,-358.8C770.5,-349.91 770.5,-339.78 770.5,-332.75"/>
<polygon fill="midnightblue" stroke="midnightblue" points="767,-359.08 770.5,-369.08 774,-359.08 767,-359.08"/>
</g>
</g>
</svg>
