<?xml version="1.0" encoding="UTF-8" standalone="no"?>
<!DOCTYPE svg PUBLIC "-//W3C//DTD SVG 1.1//EN"
 "http://www.w3.org/Graphics/SVG/1.1/DTD/svg11.dtd">
<!-- Generated by graphviz version 15.1.0 (20260618.0150)
 -->
<!-- Title: include/Settings.hpp Pages: 1 -->
<svg width="710pt" height="452pt"
 viewBox="0.00 0.00 710.00 452.00" xmlns="http://www.w3.org/2000/svg" xmlns:xlink="http://www.w3.org/1999/xlink">
<g id="graph0" class="graph" transform="scale(1 1) rotate(0) translate(4 447.5)">
<title>include/Settings.hpp</title>
<!-- Node1 -->
<g id="Node000001" class="node">
<title>Node1</title>
<g id="a_Node000001"><a xlink:title="Global integer and precision settings.">
<polygon fill="#999999" stroke="#666666" points="442.74,-443.5 327.74,-443.5 327.74,-422.75 442.74,-422.75 442.74,-443.5"/>
<text xml:space="preserve" text-anchor="middle" x="385.24" y="-430" font-family="Helvetica,sans-Serif" font-size="10.00">include/Settings.hpp</text>
</a>
</g>
</g>
<!-- Node2 -->
<g id="Node000002" class="node">
<title>Node2</title>
<g id="a_Node000002"><a xlink:href="_move__tracker_8hpp.html" target="_top" xlink:title="Track ergodic moves.">
<polygon fill="white" stroke="#666666" points="186.49,-260.5 45.99,-260.5 45.99,-239.75 186.49,-239.75 186.49,-260.5"/>
<text xml:space="preserve" text-anchor="middle" x="116.24" y="-247" font-family="Helvetica,sans-Serif" font-size="10.00">include/Move_tracker.hpp</text>
</a>
</g>
</g>
<!-- Node1&#45;&gt;Node2 -->
<g id="edge1_Node000001_Node000002" class="edge">
<title>Node1&#45;&gt;Node2</title>
<g id="a_edge1_Node000001_Node000002"><a xlink:title=" ">
<path fill="none" stroke="#63b8ff" d="M316.23,-421.5C216.85,-404.6 41.36,-368.21 5.24,-317.25 -14.67,-289.16 29.21,-270.98 67.53,-260.93"/>
<polygon fill="#63b8ff" stroke="#63b8ff" points="315.43,-424.92 325.88,-423.12 316.59,-418.01 315.43,-424.92"/>
</a>
</g>
</g>
<!-- Node10 -->
<g id="Node000010" class="node">
<title>Node10</title>
<g id="a_Node000010"><a xlink:href="_mpfr__value_8hpp.html" target="_top" xlink:title="Scope&#45;owned, value&#45;returning MPFR operations.">
<polygon fill="white" stroke="#666666" points="688.24,-380.38 558.24,-380.38 558.24,-359.62 688.24,-359.62 688.24,-380.38"/>
<text xml:space="preserve" text-anchor="middle" x="623.24" y="-366.88" font-family="Helvetica,sans-Serif" font-size="10.00">include/Mpfr_value.hpp</text>
</a>
</g>
</g>
<!-- Node1&#45;&gt;Node10 -->
<g id="edge12_Node000001_Node000010" class="edge">
<title>Node1&#45;&gt;Node10</title>
<g id="a_edge12_Node000001_Node000010"><a xlink:title=" ">
<path fill="none" stroke="#63b8ff" d="M434.38,-419.5C479.1,-408.02 544.19,-391.3 585.1,-380.8"/>
<polygon fill="#63b8ff" stroke="#63b8ff" points="433.76,-416.05 424.95,-421.93 435.5,-422.83 433.76,-416.05"/>
</a>
</g>
</g>
<!-- Node12 -->
<g id="Node000012" class="node">
<title>Node12</title>
<g id="a_Node000012"><a xlink:href="_triangulation__traits_8hpp.html" target="_top" xlink:title="Traits class for particular uses of CGAL.">
<polygon fill="white" stroke="#666666" points="329.87,-386.75 212.62,-386.75 212.62,-353.25 329.87,-353.25 329.87,-386.75"/>
<text xml:space="preserve" text-anchor="start" x="220.62" y="-373.25" font-family="Helvetica,sans-Serif" font-size="10.00">include/Triangulation</text>
<text xml:space="preserve" text-anchor="middle" x="271.24" y="-360.5" font-family="Helvetica,sans-Serif" font-size="10.00">_traits.hpp</text>
</a>
</g>
</g>
<!-- Node1&#45;&gt;Node12 -->
<g id="edge15_Node000001_Node000012" class="edge">
<title>Node1&#45;&gt;Node12</title>
<g id="a_edge15_Node000001_Node000012"><a xlink:title=" ">
<path fill="none" stroke="#63b8ff" d="M357.09,-417.03C340.22,-407.98 318.76,-396.48 301.52,-387.23"/>
<polygon fill="#63b8ff" stroke="#63b8ff" points="355.13,-419.95 365.59,-421.59 358.43,-413.78 355.13,-419.95"/>
</a>
</g>
</g>
<!-- Node18 -->
<g id="Node000018" class="node">
<title>Node18</title>
<g id="a_Node000018"><a xlink:href="cdt-viewer_8cpp.html" target="_top" xlink:title="Render versioned 3D triangulation fixtures with CGAL and Qt.">
<polygon fill="white" stroke="#666666" points="464.12,-317.25 360.37,-317.25 360.37,-296.5 464.12,-296.5 464.12,-317.25"/>
<text xml:space="preserve" text-anchor="middle" x="412.24" y="-303.75" font-family="Helvetica,sans-Serif" font-size="10.00">src/cdt&#45;viewer.cpp</text>
</a>
</g>
</g>
<!-- Node1&#45;&gt;Node18 -->
<g id="edge30_Node000001_Node000018" class="edge">
<title>Node1&#45;&gt;Node18</title>
<g id="a_edge30_Node000001_Node000018"><a xlink:title=" ">
<path fill="none" stroke="#63b8ff" d="M389.74,-411.43C395.64,-384.26 405.77,-337.68 410.13,-317.58"/>
<polygon fill="#63b8ff" stroke="#63b8ff" points="386.39,-410.38 387.68,-420.9 393.23,-411.87 386.39,-410.38"/>
</a>
</g>
</g>
<!-- Node19 -->
<g id="Node000019" class="node">
<title>Node19</title>
<g id="a_Node000019"><a xlink:href="_utilities_8hpp.html" target="_top" xlink:title="Utility functions.">
<polygon fill="white" stroke="#666666" points="526.99,-380.38 413.49,-380.38 413.49,-359.62 526.99,-359.62 526.99,-380.38"/>
<text xml:space="preserve" text-anchor="middle" x="470.24" y="-366.88" font-family="Helvetica,sans-Serif" font-size="10.00">include/Utilities.hpp</text>
</a>
</g>
</g>
<!-- Node1&#45;&gt;Node19 -->
<g id="edge23_Node000001_Node000019" class="edge">
<title>Node1&#45;&gt;Node19</title>
<g id="a_edge23_Node000001_Node000019"><a xlink:title=" ">
<path fill="none" stroke="#63b8ff" d="M407.87,-415.85C423.4,-404.68 443.5,-390.23 456.62,-380.8"/>
<polygon fill="#63b8ff" stroke="#63b8ff" points="406.2,-412.74 400.13,-421.42 410.29,-418.42 406.2,-412.74"/>
</a>
</g>
</g>
<!-- Node3 -->
<g id="Node000003" class="node">
<title>Node3</title>
<g id="a_Node000003"><a xlink:href="_ergodic__moves__3_8hpp.html" target="_top" xlink:title="Pachner moves on 2+1 dimensional foliated Delaunay triangulations.">
<polygon fill="white" stroke="#666666" points="371.49,-147 242.99,-147 242.99,-113.5 371.49,-113.5 371.49,-147"/>
<text xml:space="preserve" text-anchor="start" x="250.99" y="-133.5" font-family="Helvetica,sans-Serif" font-size="10.00">include/Ergodic_moves</text>
<text xml:space="preserve" text-anchor="middle" x="307.24" y="-120.75" font-family="Helvetica,sans-Serif" font-size="10.00">_3.hpp</text>
</a>
</g>
</g>
<!-- Node2&#45;&gt;Node3 -->
<g id="edge2_Node000002_Node000003" class="edge">
<title>Node2&#45;&gt;Node3</title>
<g id="a_edge2_Node000002_Node000003"><a xlink:title=" ">
<path fill="none" stroke="#63b8ff" d="M198.13,-240.31C225.55,-233.86 254.62,-222.78 276.24,-203.75 292.89,-189.1 300.88,-163.96 304.51,-147.47"/>
<polygon fill="#63b8ff" stroke="#63b8ff" points="197.43,-236.88 188.39,-242.4 198.9,-243.72 197.43,-236.88"/>
</a>
</g>
</g>
<!-- Node8 -->
<g id="Node000008" class="node">
<title>Node8</title>
<g id="a_Node000008"><a xlink:href="_move__outcome_8hpp.html" target="_top" xlink:title="Structured Pachner&#45;move failures and transition outcomes.">
<polygon fill="white" stroke="#666666" points="267.37,-203.75 117.12,-203.75 117.12,-183 267.37,-183 267.37,-203.75"/>
<text xml:space="preserve" text-anchor="middle" x="192.24" y="-190.25" font-family="Helvetica,sans-Serif" font-size="10.00">include/Move_outcome.hpp</text>
</a>
</g>
</g>
<!-- Node2&#45;&gt;Node8 -->
<g id="edge7_Node000002_Node000008" class="edge">
<title>Node2&#45;&gt;Node8</title>
<g id="a_edge7_Node000002_Node000008"><a xlink:title=" ">
<path fill="none" stroke="#63b8ff" d="M139.06,-232.69C152.01,-223.36 167.78,-212 178.77,-204.08"/>
<polygon fill="#63b8ff" stroke="#63b8ff" points="137.13,-229.77 131.06,-238.45 141.22,-235.45 137.13,-229.77"/>
</a>
</g>
</g>
<!-- Node9 -->
<g id="Node000009" class="node">
<title>Node9</title>
<g id="a_Node000009"><a xlink:href="_move__run_8hpp.html" target="_top" xlink:title="Shared value&#45;oriented orchestration for ergodic&#45;move strategies.">
<polygon fill="white" stroke="#666666" points="224.87,-140.62 101.62,-140.62 101.62,-119.88 224.87,-119.88 224.87,-140.62"/>
<text xml:space="preserve" text-anchor="middle" x="163.24" y="-127.12" font-family="Helvetica,sans-Serif" font-size="10.00">include/Move_run.hpp</text>
</a>
</g>
</g>
<!-- Node2&#45;&gt;Node9 -->
<g id="edge9_Node000002_Node000009" class="edge">
<title>Node2&#45;&gt;Node9</title>
<g id="a_edge9_Node000002_Node000009"><a xlink:title=" ">
<path fill="none" stroke="#63b8ff" d="M108.52,-228.71C104.66,-215.23 102,-197.45 108.24,-183 116.1,-164.83 133.82,-150.09 147.04,-141.05"/>
<polygon fill="#63b8ff" stroke="#63b8ff" points="105.07,-229.44 111.54,-237.83 111.71,-227.23 105.07,-229.44"/>
</a>
</g>
</g>
<!-- Node4 -->
<g id="Node000004" class="node">
<title>Node4</title>
<g id="a_Node000004"><a xlink:href="_metropolis_8hpp.html" target="_top" xlink:title="Perform Metropolis&#45;Hastings algorithm on Delaunay Triangulations.">
<polygon fill="white" stroke="#666666" points="532.74,-77.5 405.74,-77.5 405.74,-56.75 532.74,-56.75 532.74,-77.5"/>
<text xml:space="preserve" text-anchor="middle" x="469.24" y="-64" font-family="Helvetica,sans-Serif" font-size="10.00">include/Metropolis.hpp</text>
</a>
</g>
</g>
<!-- Node3&#45;&gt;Node4 -->
<g id="edge3_Node000003_Node000004" class="edge">
<title>Node3&#45;&gt;Node4</title>
<g id="a_edge3_Node000003_Node000004"><a xlink:title=" ">
<path fill="none" stroke="#63b8ff" d="M360.97,-108.98C388.67,-98.53 421.18,-86.26 443.3,-77.92"/>
<polygon fill="#63b8ff" stroke="#63b8ff" points="359.77,-105.69 351.65,-112.5 362.24,-112.24 359.77,-105.69"/>
</a>
</g>
</g>
<!-- Node6 -->
<g id="Node000006" class="node">
<title>Node6</title>
<g id="a_Node000006"><a xlink:href="_move__command_8hpp.html" target="_top" xlink:title="Do ergodic moves using the Command pattern.">
<polygon fill="white" stroke="#666666" points="375.37,-77.5 219.12,-77.5 219.12,-56.75 375.37,-56.75 375.37,-77.5"/>
<text xml:space="preserve" text-anchor="middle" x="297.24" y="-64" font-family="Helvetica,sans-Serif" font-size="10.00">include/Move_command.hpp</text>
</a>
</g>
</g>
<!-- Node3&#45;&gt;Node6 -->
<g id="edge5_Node000003_Node000006" class="edge">
<title>Node3&#45;&gt;Node6</title>
<g id="a_edge5_Node000003_Node000006"><a xlink:title=" ">
<path fill="none" stroke="#63b8ff" d="M302.78,-101.98C301.38,-93.41 299.92,-84.5 298.85,-77.97"/>
<polygon fill="#63b8ff" stroke="#63b8ff" points="299.3,-102.39 304.37,-111.7 306.21,-101.26 299.3,-102.39"/>
</a>
</g>
</g>
<!-- Node5 -->
<g id="Node000005" class="node">
<title>Node5</title>
<g id="a_Node000005"><a xlink:href="cdt_8cpp.html" target="_top" xlink:title="The main executable.">
<polygon fill="white" stroke="#666666" points="579.49,-20.75 510.99,-20.75 510.99,0 579.49,0 579.49,-20.75"/>
<text xml:space="preserve" text-anchor="middle" x="545.24" y="-7.25" font-family="Helvetica,sans-Serif" font-size="10.00">src/cdt.cpp</text>
</a>
</g>
</g>
<!-- Node4&#45;&gt;Node5 -->
<g id="edge4_Node000004_Node000005" class="edge">
<title>Node4&#45;&gt;Node5</title>
<g id="a_edge4_Node000004_Node000005"><a xlink:title=" ">
<path fill="none" stroke="#63b8ff" d="M492.06,-49.69C505.01,-40.36 520.78,-29 531.77,-21.08"/>
<polygon fill="#63b8ff" stroke="#63b8ff" points="490.13,-46.77 484.06,-55.45 494.22,-52.45 490.13,-46.77"/>
</a>
</g>
</g>
<!-- Node7 -->
<g id="Node000007" class="node">
<title>Node7</title>
<g id="a_Node000007"><a xlink:href="_move__always_8hpp.html" target="_top" xlink:title="Randomly selects moves to always perform on triangulations.">
<polygon fill="white" stroke="#666666" points="315.24,-20.75 173.24,-20.75 173.24,0 315.24,0 315.24,-20.75"/>
<text xml:space="preserve" text-anchor="middle" x="244.24" y="-7.25" font-family="Helvetica,sans-Serif" font-size="10.00">include/Move_always.hpp</text>
</a>
</g>
</g>
<!-- Node6&#45;&gt;Node7 -->
<g id="edge6_Node000006_Node000007" class="edge">
<title>Node6&#45;&gt;Node7</title>
<g id="a_edge6_Node000006_Node000007"><a xlink:title=" ">
<path fill="none" stroke="#63b8ff" d="M279.99,-48.3C271.23,-39.25 260.92,-28.61 253.64,-21.08"/>
<polygon fill="#63b8ff" stroke="#63b8ff" points="277.24,-50.5 286.72,-55.25 282.27,-45.63 277.24,-50.5"/>
</a>
</g>
</g>
<!-- Node8&#45;&gt;Node3 -->
<g id="edge8_Node000008_Node000003" class="edge">
<title>Node8&#45;&gt;Node3</title>
<g id="a_edge8_Node000008_Node000003"><a xlink:title=" ">
<path fill="none" stroke="#63b8ff" d="M220.64,-177.28C237.66,-168.23 259.31,-156.73 276.7,-147.48"/>
<polygon fill="#63b8ff" stroke="#63b8ff" points="219.24,-174.06 212.06,-181.84 222.53,-180.24 219.24,-174.06"/>
</a>
</g>
</g>
<!-- Node9&#45;&gt;Node4 -->
<g id="edge10_Node000009_Node000004" class="edge">
<title>Node9&#45;&gt;Node4</title>
<g id="a_edge10_Node000009_Node000004"><a xlink:title=" ">
<path fill="none" stroke="#63b8ff" d="M217.96,-116.95C223.46,-115.77 228.96,-114.6 234.24,-113.5 296.49,-100.59 368.28,-86.9 415.96,-77.98"/>
<polygon fill="#63b8ff" stroke="#63b8ff" points="217.26,-113.52 208.24,-119.08 218.75,-120.36 217.26,-113.52"/>
</a>
</g>
</g>
<!-- Node9&#45;&gt;Node7 -->
<g id="edge11_Node000009_Node000007" class="edge">
<title>Node9&#45;&gt;Node7</title>
<g id="a_edge11_Node000009_Node000007"><a xlink:title=" ">
<path fill="none" stroke="#63b8ff" d="M175.1,-110.19C184.4,-95.43 197.81,-74.57 210.24,-56.75 219.03,-44.16 229.73,-30.06 236.75,-20.97"/>
<polygon fill="#63b8ff" stroke="#63b8ff" points="172.27,-108.11 169.93,-118.45 178.2,-111.83 172.27,-108.11"/>
</a>
</g>
</g>
<!-- Node11 -->
<g id="Node000011" class="node">
<title>Node11</title>
<g id="a_Node000011"><a xlink:href="_s3_action_8hpp.html" target="_top" xlink:title="Calculate S3 bulk actions on 3D Delaunay Triangulations.">
<polygon fill="white" stroke="#666666" points="702.24,-260.5 584.24,-260.5 584.24,-239.75 702.24,-239.75 702.24,-260.5"/>
<text xml:space="preserve" text-anchor="middle" x="643.24" y="-247" font-family="Helvetica,sans-Serif" font-size="10.00">include/S3Action.hpp</text>
</a>
</g>
</g>
<!-- Node10&#45;&gt;Node11 -->
<g id="edge13_Node000010_Node000011" class="edge">
<title>Node10&#45;&gt;Node11</title>
<g id="a_edge13_Node000010_Node000011"><a xlink:title=" ">
<path fill="none" stroke="#63b8ff" d="M626.75,-348.31C631.11,-322.66 638.34,-280.01 641.58,-260.9"/>
<polygon fill="#63b8ff" stroke="#63b8ff" points="623.36,-347.42 625.13,-357.86 630.26,-348.59 623.36,-347.42"/>
</a>
</g>
</g>
<!-- Node11&#45;&gt;Node4 -->
<g id="edge14_Node000011_Node000004" class="edge">
<title>Node11&#45;&gt;Node4</title>
<g id="a_edge14_Node000011_Node000004"><a xlink:title=" ">
<path fill="none" stroke="#63b8ff" d="M653.54,-229.15C658.99,-215.85 663.57,-198.11 658.24,-183 645.05,-145.59 634.74,-136.25 602.24,-113.5 577.36,-96.08 545.22,-84.87 518.77,-77.96"/>
<polygon fill="#63b8ff" stroke="#63b8ff" points="650.4,-227.59 649.38,-238.14 656.75,-230.53 650.4,-227.59"/>
</a>
</g>
</g>
<!-- Node13 -->
<g id="Node000013" class="node">
<title>Node13</title>
<g id="a_Node000013"><a xlink:href="_foliated__triangulation_8hpp.html" target="_top" xlink:title="Create foliated spherical triangulations.">
<polygon fill="white" stroke="#666666" points="342.12,-317.25 160.37,-317.25 160.37,-296.5 342.12,-296.5 342.12,-317.25"/>
<text xml:space="preserve" text-anchor="middle" x="251.24" y="-303.75" font-family="Helvetica,sans-Serif" font-size="10.00">include/Foliated_triangulation.hpp</text>
</a>
</g>
</g>
<!-- Node12&#45;&gt;Node13 -->
<g id="edge16_Node000012_Node000013" class="edge">
<title>Node12&#45;&gt;Node13</title>
<g id="a_edge16_Node000012_Node000013"><a xlink:title=" ">
<path fill="none" stroke="#63b8ff" d="M262.42,-342.02C259.58,-333.37 256.62,-324.32 254.46,-317.72"/>
<polygon fill="#63b8ff" stroke="#63b8ff" points="259.08,-343.09 265.52,-351.5 265.73,-340.91 259.08,-343.09"/>
</a>
</g>
</g>
<!-- Node17 -->
<g id="Node000017" class="node">
<title>Node17</title>
<g id="a_Node000017"><a xlink:href="_formatters_8hpp.html" target="_top" xlink:title="Formatter specializations for various types.">
<polygon fill="white" stroke="#666666" points="142.49,-317.25 13.99,-317.25 13.99,-296.5 142.49,-296.5 142.49,-317.25"/>
<text xml:space="preserve" text-anchor="middle" x="78.24" y="-303.75" font-family="Helvetica,sans-Serif" font-size="10.00">include/Formatters.hpp</text>
</a>
</g>
</g>
<!-- Node12&#45;&gt;Node17 -->
<g id="edge21_Node000012_Node000017" class="edge">
<title>Node12&#45;&gt;Node17</title>
<g id="a_edge21_Node000012_Node000017"><a xlink:title=" ">
<path fill="none" stroke="#63b8ff" d="M209.42,-349.42C175.96,-338.82 136.09,-326.19 109.15,-317.67"/>
<polygon fill="#63b8ff" stroke="#63b8ff" points="208,-352.64 218.59,-352.32 210.11,-345.97 208,-352.64"/>
</a>
</g>
</g>
<!-- Node12&#45;&gt;Node18 -->
<g id="edge22_Node000012_Node000018" class="edge">
<title>Node12&#45;&gt;Node18</title>
<g id="a_edge22_Node000012_Node000018"><a xlink:title=" ">
<path fill="none" stroke="#63b8ff" d="M318.97,-348.31C342.86,-337.95 370.67,-325.9 389.66,-317.67"/>
<polygon fill="#63b8ff" stroke="#63b8ff" points="317.83,-344.99 310.05,-352.18 320.61,-351.41 317.83,-344.99"/>
</a>
</g>
</g>
<!-- Node14 -->
<g id="Node000014" class="node">
<title>Node14</title>
<g id="a_Node000014"><a xlink:href="_geometry_8hpp.html" target="_top" xlink:title="Geometric scalars of the Manifold used to calculate the Regge action.">
<polygon fill="white" stroke="#666666" points="334.49,-260.5 211.99,-260.5 211.99,-239.75 334.49,-239.75 334.49,-260.5"/>
<text xml:space="preserve" text-anchor="middle" x="273.24" y="-247" font-family="Helvetica,sans-Serif" font-size="10.00">include/Geometry.hpp</text>
</a>
</g>
</g>
<!-- Node13&#45;&gt;Node14 -->
<g id="edge17_Node000013_Node000014" class="edge">
<title>Node13&#45;&gt;Node14</title>
<g id="a_edge17_Node000013_Node000014"><a xlink:title=" ">
<path fill="none" stroke="#63b8ff" d="M259.43,-285.49C262.82,-277.05 266.6,-267.66 269.34,-260.83"/>
<polygon fill="#63b8ff" stroke="#63b8ff" points="256.22,-284.1 255.74,-294.68 262.72,-286.71 256.22,-284.1"/>
</a>
</g>
</g>
<!-- Node15 -->
<g id="Node000015" class="node">
<title>Node15</title>
<g id="a_Node000015"><a xlink:href="_manifold_8hpp.html" target="_top" xlink:title="Data structures for manifolds.">
<polygon fill="white" stroke="#666666" points="441.24,-203.75 323.24,-203.75 323.24,-183 441.24,-183 441.24,-203.75"/>
<text xml:space="preserve" text-anchor="middle" x="382.24" y="-190.25" font-family="Helvetica,sans-Serif" font-size="10.00">include/Manifold.hpp</text>
</a>
</g>
</g>
<!-- Node14&#45;&gt;Node15 -->
<g id="edge18_Node000014_Node000015" class="edge">
<title>Node14&#45;&gt;Node15</title>
<g id="a_edge18_Node000014_Node000015"><a xlink:title=" ">
<path fill="none" stroke="#63b8ff" d="M303,-234.18C322.09,-224.59 346.31,-212.42 362.92,-204.08"/>
<polygon fill="#63b8ff" stroke="#63b8ff" points="301.45,-231.04 294.08,-238.66 304.59,-237.3 301.45,-231.04"/>
</a>
</g>
</g>
<!-- Node15&#45;&gt;Node3 -->
<g id="edge19_Node000015_Node000003" class="edge">
<title>Node15&#45;&gt;Node3</title>
<g id="a_edge19_Node000015_Node000003"><a xlink:title=" ">
<path fill="none" stroke="#63b8ff" d="M361.48,-175.46C350.77,-166.72 337.76,-156.12 327.16,-147.48"/>
<polygon fill="#63b8ff" stroke="#63b8ff" points="359.06,-177.99 369.02,-181.6 363.48,-172.57 359.06,-177.99"/>
</a>
</g>
</g>
<!-- Node16 -->
<g id="Node000016" class="node">
<title>Node16</title>
<g id="a_Node000016"><a xlink:href="initialize_8cpp.html" target="_top" xlink:title="Generates initial spacetimes.">
<polygon fill="white" stroke="#666666" points="592.99,-140.62 497.49,-140.62 497.49,-119.88 592.99,-119.88 592.99,-140.62"/>
<text xml:space="preserve" text-anchor="middle" x="545.24" y="-127.12" font-family="Helvetica,sans-Serif" font-size="10.00">src/initialize.cpp</text>
</a>
</g>
</g>
<!-- Node15&#45;&gt;Node16 -->
<g id="edge20_Node000015_Node000016" class="edge">
<title>Node15&#45;&gt;Node16</title>
<g id="a_edge20_Node000015_Node000016"><a xlink:title=" ">
<path fill="none" stroke="#63b8ff" d="M419.06,-178.57C449.53,-167.14 492.05,-151.2 519.12,-141.05"/>
<polygon fill="#63b8ff" stroke="#63b8ff" points="417.98,-175.23 409.85,-182.02 420.44,-181.79 417.98,-175.23"/>
</a>
</g>
</g>
<!-- Node19&#45;&gt;Node4 -->
<g id="edge25_Node000019_Node000004" class="edge">
<title>Node19&#45;&gt;Node4</title>
<g id="a_edge25_Node000019_Node000004"><a xlink:title=" ">
<path fill="none" stroke="#63b8ff" d="M471.73,-348.05C472.33,-338.64 472.95,-327.39 473.24,-317.25 473.51,-308.03 473.32,-305.72 473.24,-296.5 472.5,-211.64 470.2,-109.07 469.47,-77.7"/>
<polygon fill="#63b8ff" stroke="#63b8ff" points="468.25,-347.75 471.06,-357.96 475.23,-348.22 468.25,-347.75"/>
</a>
</g>
</g>
<!-- Node19&#45;&gt;Node13 -->
<g id="edge24_Node000019_Node000013" class="edge">
<title>Node19&#45;&gt;Node13</title>
<g id="a_edge24_Node000019_Node000013"><a xlink:title=" ">
<path fill="none" stroke="#63b8ff" d="M423.97,-356.09C382.86,-344.61 323.66,-328.09 286.34,-317.67"/>
<polygon fill="#63b8ff" stroke="#63b8ff" points="423.03,-359.46 433.6,-358.77 424.91,-352.71 423.03,-359.46"/>
</a>
</g>
</g>
<!-- Node19&#45;&gt;Node18 -->
<g id="edge29_Node000019_Node000018" class="edge">
<title>Node19&#45;&gt;Node18</title>
<g id="a_edge29_Node000019_Node000018"><a xlink:title=" ">
<path fill="none" stroke="#63b8ff" d="M453.23,-351.07C442.8,-340.08 429.86,-326.45 421.35,-317.47"/>
<polygon fill="#63b8ff" stroke="#63b8ff" points="450.46,-353.24 459.88,-358.08 455.54,-348.42 450.46,-353.24"/>
</a>
</g>
</g>
<!-- Node20 -->
<g id="Node000020" class="node">
<title>Node20</title>
<g id="a_Node000020"><a xlink:href="_runtime__config_8hpp.html" target="_top" xlink:title="Validated runtime configuration for CDT++ command&#45;line programs.">
<polygon fill="white" stroke="#666666" points="648.74,-203.75 497.74,-203.75 497.74,-183 648.74,-183 648.74,-203.75"/>
<text xml:space="preserve" text-anchor="middle" x="573.24" y="-190.25" font-family="Helvetica,sans-Serif" font-size="10.00">include/Runtime_config.hpp</text>
</a>
</g>
</g>
<!-- Node19&#45;&gt;Node20 -->
<g id="edge26_Node000019_Node000020" class="edge">
<title>Node19&#45;&gt;Node20</title>
<g id="a_edge26_Node000019_Node000020"><a xlink:title=" ">
<path fill="none" stroke="#63b8ff" d="M484.04,-350.22C490.97,-340.54 499.33,-328.44 506.24,-317.25 531.53,-276.32 557.78,-225.2 568.38,-204.14"/>
<polygon fill="#63b8ff" stroke="#63b8ff" points="481.39,-347.92 478.36,-358.07 487.06,-352.02 481.39,-347.92"/>
</a>
</g>
</g>
<!-- Node20&#45;&gt;Node5 -->
<g id="edge27_Node000020_Node000005" class="edge">
<title>Node20&#45;&gt;Node5</title>
<g id="a_edge27_Node000020_Node000005"><a xlink:title=" ">
<path fill="none" stroke="#63b8ff" d="M588.63,-173.62C594.05,-165.87 599.47,-156.48 602.24,-147 606.42,-132.71 605.99,-127.91 602.24,-113.5 592.58,-76.36 566.12,-38.4 552.93,-21.07"/>
<polygon fill="#63b8ff" stroke="#63b8ff" points="585.89,-171.45 582.65,-181.54 591.47,-175.67 585.89,-171.45"/>
</a>
</g>
</g>
<!-- Node20&#45;&gt;Node16 -->
<g id="edge28_Node000020_Node000016" class="edge">
<title>Node20&#45;&gt;Node16</title>
<g id="a_edge28_Node000020_Node000016"><a xlink:title=" ">
<path fill="none" stroke="#63b8ff" d="M563.97,-172.13C559.14,-161.59 553.47,-149.2 549.64,-140.84"/>
<polygon fill="#63b8ff" stroke="#63b8ff" points="560.77,-173.54 568.11,-181.18 567.13,-170.63 560.77,-173.54"/>
</a>
</g>
</g>
</g>
</svg>
