<?xml version="1.0" encoding="UTF-8" standalone="no"?>
<!DOCTYPE svg PUBLIC "-//W3C//DTD SVG 1.1//EN"
 "http://www.w3.org/Graphics/SVG/1.1/DTD/svg11.dtd">
<!-- Generated by graphviz version 2.43.0 (0)
 -->
<!-- Title: include/Settings.hpp Pages: 1 -->
<!--zoomable 643 -->
<svg id="main" version="1.1" xmlns="http://www.w3.org/2000/svg" xmlns:xlink="http://www.w3.org/1999/xlink" xml:space="preserve" onload="init(evt)">
<style type="text/css"><![CDATA[
.edge:hover path { stroke: red; }
.edge:hover polygon { stroke: red; fill: red; }
]]></style>
<script type="text/javascript"><![CDATA[
var edges = document.getElementsByTagName('g');
if (edges && edges.length) {
  for (var i=0;i<edges.length;i++) {
    if (edges[i].id.substr(0,4)=='edge') {
      edges[i].setAttribute('class','edge');
    }
  }
}
]]></script>
        <defs>
                <circle id="rim" cx="0" cy="0" r="7"/>
                <circle id="rim2" cx="0" cy="0" r="3.5"/>
                <g id="zoomPlus">
                        <use xlink:href="#rim" fill="#404040">
                                <set attributeName="fill" to="#808080" begin="zoomplus.mouseover" end="zoomplus.mouseout"/>
                        </use>
                        <path d="M-4,0h8M0,-4v8" fill="none" stroke="white" stroke-width="1.5" pointer-events="none"/>
                </g>
                <g id="zoomMin">
                        <use xlink:href="#rim" fill="#404040">
                                <set attributeName="fill" to="#808080" begin="zoomminus.mouseover" end="zoomminus.mouseout"/>
                        </use>
                        <path d="M-4,0h8" fill="none" stroke="white" stroke-width="1.5" pointer-events="none"/>
                </g>
                <g id="dirArrow">
                        <path fill="none" stroke="white" stroke-width="1.5" d="M0,-3.0v7 M-2.5,-0.5L0,-3.0L2.5,-0.5"/>
                </g>
               <g id="resetDef">
                       <use xlink:href="#rim2" fill="#404040">
                               <set attributeName="fill" to="#808080" begin="reset.mouseover" end="reset.mouseout"/>
                       </use>
               </g>
        </defs>

<script type="text/javascript">
var viewWidth = 1070;
var viewHeight = 643;
var sectionId = 'dynsection-1';
</script>
<script xlink:href="svgpan.js"/>
<svg id="graph" class="graph">
<g id="viewport">
<title>include/Settings.hpp</title>
<polygon fill="white" stroke="transparent" points="-4,4 -4,-639 1065.5,-639 1065.5,4 -4,4"/>
<!-- Node1 -->
<g id="node1" class="node">
<title>Node1</title>
<g id="a_node1"><a xlink:title="Global integer and precision settings.">
<polygon fill="#bfbfbf" stroke="black" points="541.5,-615.5 541.5,-634.5 657.5,-634.5 657.5,-615.5 541.5,-615.5"/>
<text text-anchor="middle" x="599.5" y="-622.5" font-family="Helvetica,sans-Serif" font-size="10.00">include/Settings.hpp</text>
</a>
</g>
</g>
<!-- Node2 -->
<g id="node2" class="node">
<title>Node2</title>
<g id="a_node2"><a xlink:href="_triangulation__traits_8hpp.html" target="_top" xlink:title="Traits class for particular uses of CGAL.">
<polygon fill="white" stroke="black" points="352.5,-548.5 352.5,-578.5 470.5,-578.5 470.5,-548.5 352.5,-548.5"/>
<text text-anchor="start" x="360.5" y="-566.5" font-family="Helvetica,sans-Serif" font-size="10.00">include/Triangulation</text>
<text text-anchor="middle" x="411.5" y="-555.5" font-family="Helvetica,sans-Serif" font-size="10.00">_traits.hpp</text>
</a>
</g>
</g>
<!-- Node1&#45;&gt;Node2 -->
<g id="edge1" class="edge">
<title>Node1&#45;&gt;Node2</title>
<path fill="none" stroke="midnightblue" d="M562.71,-612.36C532.08,-602.66 488.36,-588.83 455.81,-578.52"/>
<polygon fill="midnightblue" stroke="midnightblue" points="561.97,-615.79 572.56,-615.48 564.09,-609.12 561.97,-615.79"/>
</g>
<!-- Node30 -->
<g id="node30" class="node">
<title>Node30</title>
<g id="a_node30"><a xlink:href="_utilities_8hpp.html" target="_top" xlink:title="Utility functions.">
<polygon fill="white" stroke="black" points="498.5,-554 498.5,-573 612.5,-573 612.5,-554 498.5,-554"/>
<text text-anchor="middle" x="555.5" y="-561" font-family="Helvetica,sans-Serif" font-size="10.00">include/Utilities.hpp</text>
</a>
</g>
</g>
<!-- Node1&#45;&gt;Node30 -->
<g id="edge31" class="edge">
<title>Node1&#45;&gt;Node30</title>
<path fill="none" stroke="midnightblue" d="M587.18,-607.34C578.92,-596.17 568.39,-581.93 561.79,-573.01"/>
<polygon fill="midnightblue" stroke="midnightblue" points="584.44,-609.52 593.2,-615.48 590.06,-605.35 584.44,-609.52"/>
</g>
<!-- Node32 -->
<g id="node32" class="node">
<title>Node32</title>
<g id="a_node32"><a xlink:href="_s3_action_8hpp.html" target="_top" xlink:title="Calculate S3 bulk actions on 3D Delaunay Triangulations.">
<polygon fill="white" stroke="black" points="753,-369.5 753,-388.5 872,-388.5 872,-369.5 753,-369.5"/>
<text text-anchor="middle" x="812.5" y="-376.5" font-family="Helvetica,sans-Serif" font-size="10.00">include/S3Action.hpp</text>
</a>
</g>
</g>
<!-- Node1&#45;&gt;Node32 -->
<g id="edge34" class="edge">
<title>Node1&#45;&gt;Node32</title>
<path fill="none" stroke="midnightblue" d="M612.43,-607.31C624.6,-591.76 643.43,-568.02 660.5,-548 713.83,-485.44 781.39,-413.05 804.4,-388.58"/>
<polygon fill="midnightblue" stroke="midnightblue" points="609.49,-605.39 606.11,-615.43 615.02,-609.69 609.49,-605.39"/>
</g>
<!-- Node33 -->
<g id="node33" class="node">
<title>Node33</title>
<g id="a_node33"><a xlink:href="_settings__test_8cpp.html" target="_top" xlink:title="Global settings on integer types and MPFR precision.">
<polygon fill="white" stroke="black" points="669.5,-554 669.5,-573 797.5,-573 797.5,-554 669.5,-554"/>
<text text-anchor="middle" x="733.5" y="-561" font-family="Helvetica,sans-Serif" font-size="10.00">tests/Settings_test.cpp</text>
</a>
</g>
</g>
<!-- Node1&#45;&gt;Node33 -->
<g id="edge37" class="edge">
<title>Node1&#45;&gt;Node33</title>
<path fill="none" stroke="midnightblue" d="M628.04,-611.33C654.05,-599.78 691.76,-583.03 714.34,-573.01"/>
<polygon fill="midnightblue" stroke="midnightblue" points="626.42,-608.22 618.7,-615.48 629.26,-614.62 626.42,-608.22"/>
</g>
<!-- Node3 -->
<g id="node3" class="node">
<title>Node3</title>
<g id="a_node3"><a xlink:href="_foliated__triangulation_8hpp.html" target="_top" xlink:title="Create foliated spherical triangulations.">
<polygon fill="white" stroke="black" points="309.5,-492.5 309.5,-511.5 491.5,-511.5 491.5,-492.5 309.5,-492.5"/>
<text text-anchor="middle" x="400.5" y="-499.5" font-family="Helvetica,sans-Serif" font-size="10.00">include/Foliated_triangulation.hpp</text>
</a>
</g>
</g>
<!-- Node2&#45;&gt;Node3 -->
<g id="edge2" class="edge">
<title>Node2&#45;&gt;Node3</title>
<path fill="none" stroke="midnightblue" d="M407.02,-538.29C405.28,-528.86 403.39,-518.65 402.1,-511.66"/>
<polygon fill="midnightblue" stroke="midnightblue" points="403.63,-539.2 408.89,-548.4 410.52,-537.93 403.63,-539.2"/>
</g>
<!-- Node4 -->
<g id="node4" class="node">
<title>Node4</title>
<g id="a_node4"><a xlink:href="_geometry_8hpp.html" target="_top" xlink:title="Geometric quantities of Manifold used by MoveAlgorithm.">
<polygon fill="white" stroke="black" points="490,-431 490,-450 613,-450 613,-431 490,-431"/>
<text text-anchor="middle" x="551.5" y="-438" font-family="Helvetica,sans-Serif" font-size="10.00">include/Geometry.hpp</text>
</a>
</g>
</g>
<!-- Node3&#45;&gt;Node4 -->
<g id="edge3" class="edge">
<title>Node3&#45;&gt;Node4</title>
<path fill="none" stroke="midnightblue" d="M431.51,-488.78C460.85,-477.22 504.13,-460.16 529.91,-450.01"/>
<polygon fill="midnightblue" stroke="midnightblue" points="430.16,-485.55 422.13,-492.48 432.72,-492.07 430.16,-485.55"/>
</g>
<!-- Node17 -->
<g id="node17" class="node">
<title>Node17</title>
<g id="a_node17"><a xlink:href="bistellar_8cpp_source.html" target="_top" xlink:title=" ">
<polygon fill="white" stroke="black" points="0,-185 0,-204 93,-204 93,-185 0,-185"/>
<text text-anchor="middle" x="46.5" y="-192" font-family="Helvetica,sans-Serif" font-size="10.00">src/bistellar.cpp</text>
</a>
</g>
</g>
<!-- Node3&#45;&gt;Node17 -->
<g id="edge28" class="edge">
<title>Node3&#45;&gt;Node17</title>
<path fill="none" stroke="midnightblue" d="M311.8,-491.15C197.83,-475.98 14.5,-441.95 14.5,-380 14.5,-380 14.5,-380 14.5,-322 14.5,-276.47 34.23,-224.45 42.7,-204.2"/>
<polygon fill="midnightblue" stroke="midnightblue" points="311.55,-494.65 321.92,-492.47 312.46,-487.71 311.55,-494.65"/>
</g>
<!-- Node28 -->
<g id="node28" class="node">
<title>Node28</title>
<g id="a_node28"><a xlink:href="_foliated__triangulation__test_8cpp.html" target="_top" xlink:title="Tests for foliated triangulations.">
<polygon fill="white" stroke="black" points="157.5,-425.5 157.5,-455.5 307.5,-455.5 307.5,-425.5 157.5,-425.5"/>
<text text-anchor="start" x="165.5" y="-443.5" font-family="Helvetica,sans-Serif" font-size="10.00">tests/Foliated_triangulation</text>
<text text-anchor="middle" x="232.5" y="-432.5" font-family="Helvetica,sans-Serif" font-size="10.00">_test.cpp</text>
</a>
</g>
</g>
<!-- Node3&#45;&gt;Node28 -->
<g id="edge29" class="edge">
<title>Node3&#45;&gt;Node28</title>
<path fill="none" stroke="midnightblue" d="M366.91,-489.1C339.57,-479.42 300.93,-465.74 272.09,-455.52"/>
<polygon fill="midnightblue" stroke="midnightblue" points="365.83,-492.44 376.43,-492.48 368.17,-485.84 365.83,-492.44"/>
</g>
<!-- Node29 -->
<g id="node29" class="node">
<title>Node29</title>
<g id="a_node29"><a xlink:href="_tetrahedron__test_8cpp.html" target="_top" xlink:title="Tests for 3D triangulated and foliated tetrahedrons.">
<polygon fill="white" stroke="black" points="325.5,-431 325.5,-450 471.5,-450 471.5,-431 325.5,-431"/>
<text text-anchor="middle" x="398.5" y="-438" font-family="Helvetica,sans-Serif" font-size="10.00">tests/Tetrahedron_test.cpp</text>
</a>
</g>
</g>
<!-- Node3&#45;&gt;Node29 -->
<g id="edge30" class="edge">
<title>Node3&#45;&gt;Node29</title>
<path fill="none" stroke="midnightblue" d="M399.87,-482.32C399.51,-471.5 399.07,-458.4 398.79,-450.01"/>
<polygon fill="midnightblue" stroke="midnightblue" points="396.38,-482.6 400.21,-492.48 403.38,-482.36 396.38,-482.6"/>
</g>
<!-- Node5 -->
<g id="node5" class="node">
<title>Node5</title>
<g id="a_node5"><a xlink:href="_manifold_8hpp.html" target="_top" xlink:title="Data structures for manifolds.">
<polygon fill="white" stroke="black" points="398,-369.5 398,-388.5 517,-388.5 517,-369.5 398,-369.5"/>
<text text-anchor="middle" x="457.5" y="-376.5" font-family="Helvetica,sans-Serif" font-size="10.00">include/Manifold.hpp</text>
</a>
</g>
</g>
<!-- Node4&#45;&gt;Node5 -->
<g id="edge4" class="edge">
<title>Node4&#45;&gt;Node5</title>
<path fill="none" stroke="midnightblue" d="M529.27,-425.43C511.15,-413.96 486.15,-398.13 470.94,-388.51"/>
<polygon fill="midnightblue" stroke="midnightblue" points="527.71,-428.58 538.03,-430.98 531.45,-422.67 527.71,-428.58"/>
</g>
<!-- Node27 -->
<g id="node27" class="node">
<title>Node27</title>
<g id="a_node27"><a xlink:href="_geometry__test_8cpp.html" target="_top" xlink:title="Tests of new geometry data structure.">
<polygon fill="white" stroke="black" points="535,-369.5 535,-388.5 672,-388.5 672,-369.5 535,-369.5"/>
<text text-anchor="middle" x="603.5" y="-376.5" font-family="Helvetica,sans-Serif" font-size="10.00">tests/Geometry_test.cpp</text>
</a>
</g>
</g>
<!-- Node4&#45;&gt;Node27 -->
<g id="edge27" class="edge">
<title>Node4&#45;&gt;Node27</title>
<path fill="none" stroke="midnightblue" d="M565.77,-423.17C575.58,-411.95 588.19,-397.52 596.06,-388.51"/>
<polygon fill="midnightblue" stroke="midnightblue" points="562.9,-421.14 558.95,-430.98 568.17,-425.75 562.9,-421.14"/>
</g>
<!-- Node6 -->
<g id="node6" class="node">
<title>Node6</title>
<g id="a_node6"><a xlink:href="_move__tracker_8hpp.html" target="_top" xlink:title="Track ergodic moves.">
<polygon fill="white" stroke="black" points="324,-313.5 324,-332.5 465,-332.5 465,-313.5 324,-313.5"/>
<text text-anchor="middle" x="394.5" y="-320.5" font-family="Helvetica,sans-Serif" font-size="10.00">include/Move_tracker.hpp</text>
</a>
</g>
</g>
<!-- Node5&#45;&gt;Node6 -->
<g id="edge5" class="edge">
<title>Node5&#45;&gt;Node6</title>
<path fill="none" stroke="midnightblue" d="M439.46,-362.54C428.23,-352.91 414.18,-340.87 404.81,-332.83"/>
<polygon fill="midnightblue" stroke="midnightblue" points="437.51,-365.47 447.38,-369.32 442.06,-360.16 437.51,-365.47"/>
</g>
<!-- Node22 -->
<g id="node22" class="node">
<title>Node22</title>
<g id="a_node22"><a xlink:href="initialize_8cpp.html" target="_top" xlink:title="Generates initial spacetimes.">
<polygon fill="white" stroke="black" points="483.5,-313.5 483.5,-332.5 579.5,-332.5 579.5,-313.5 483.5,-313.5"/>
<text text-anchor="middle" x="531.5" y="-320.5" font-family="Helvetica,sans-Serif" font-size="10.00">src/initialize.cpp</text>
</a>
</g>
</g>
<!-- Node5&#45;&gt;Node22 -->
<g id="edge22" class="edge">
<title>Node5&#45;&gt;Node22</title>
<path fill="none" stroke="midnightblue" d="M477.53,-363.38C490.91,-353.62 508.06,-341.11 519.39,-332.83"/>
<polygon fill="midnightblue" stroke="midnightblue" points="475.4,-360.6 469.39,-369.32 479.53,-366.26 475.4,-360.6"/>
</g>
<!-- Node23 -->
<g id="node23" class="node">
<title>Node23</title>
<g id="a_node23"><a xlink:href="_manifold__test_8cpp.html" target="_top" xlink:title="Tests of new manifold data structure.">
<polygon fill="white" stroke="black" points="598,-313.5 598,-332.5 729,-332.5 729,-313.5 598,-313.5"/>
<text text-anchor="middle" x="663.5" y="-320.5" font-family="Helvetica,sans-Serif" font-size="10.00">tests/Manifold_test.cpp</text>
</a>
</g>
</g>
<!-- Node5&#45;&gt;Node23 -->
<g id="edge23" class="edge">
<title>Node5&#45;&gt;Node23</title>
<path fill="none" stroke="midnightblue" d="M500.12,-366.83C539.01,-356.63 595.66,-341.78 631.01,-332.52"/>
<polygon fill="midnightblue" stroke="midnightblue" points="498.93,-363.52 490.14,-369.44 500.7,-370.29 498.93,-363.52"/>
</g>
<!-- Node24 -->
<g id="node24" class="node">
<title>Node24</title>
<g id="a_node24"><a xlink:href="_s3_action__test_8cpp.html" target="_top" xlink:title="Tests for the S3 action functions.">
<polygon fill="white" stroke="black" points="747,-313.5 747,-332.5 878,-332.5 878,-313.5 747,-313.5"/>
<text text-anchor="middle" x="812.5" y="-320.5" font-family="Helvetica,sans-Serif" font-size="10.00">tests/S3Action_test.cpp</text>
</a>
</g>
</g>
<!-- Node5&#45;&gt;Node24 -->
<g id="edge24" class="edge">
<title>Node5&#45;&gt;Node24</title>
<path fill="none" stroke="midnightblue" d="M523.79,-367.92C590.86,-357.71 693.39,-342.12 756.51,-332.52"/>
<polygon fill="midnightblue" stroke="midnightblue" points="523.11,-364.48 513.75,-369.44 524.16,-371.4 523.11,-364.48"/>
</g>
<!-- Node25 -->
<g id="node25" class="node">
<title>Node25</title>
<g id="a_node25"><a xlink:href="_utilities__test_8cpp.html" target="_top" xlink:title="Tests on utility functions.">
<polygon fill="white" stroke="black" points="42.5,-313.5 42.5,-332.5 168.5,-332.5 168.5,-313.5 42.5,-313.5"/>
<text text-anchor="middle" x="105.5" y="-320.5" font-family="Helvetica,sans-Serif" font-size="10.00">tests/Utilities_test.cpp</text>
</a>
</g>
</g>
<!-- Node5&#45;&gt;Node25 -->
<g id="edge25" class="edge">
<title>Node5&#45;&gt;Node25</title>
<path fill="none" stroke="midnightblue" d="M391.77,-367.92C325.27,-357.71 223.6,-342.12 161.01,-332.52"/>
<polygon fill="midnightblue" stroke="midnightblue" points="391.31,-371.39 401.72,-369.44 392.37,-364.47 391.31,-371.39"/>
</g>
<!-- Node26 -->
<g id="node26" class="node">
<title>Node26</title>
<g id="a_node26"><a xlink:href="_vertex__test_8cpp.html" target="_top" xlink:title="Tests on points and vertices in foliated Delaunay triangulations.">
<polygon fill="white" stroke="black" points="187,-313.5 187,-332.5 306,-332.5 306,-313.5 187,-313.5"/>
<text text-anchor="middle" x="246.5" y="-320.5" font-family="Helvetica,sans-Serif" font-size="10.00">tests/Vertex_test.cpp</text>
</a>
</g>
</g>
<!-- Node5&#45;&gt;Node26 -->
<g id="edge26" class="edge">
<title>Node5&#45;&gt;Node26</title>
<path fill="none" stroke="midnightblue" d="M414.36,-366.96C374.51,-356.76 316.14,-341.82 279.78,-332.52"/>
<polygon fill="midnightblue" stroke="midnightblue" points="413.51,-370.35 424.07,-369.44 415.25,-363.57 413.51,-370.35"/>
</g>
<!-- Node7 -->
<g id="node7" class="node">
<title>Node7</title>
<g id="a_node7"><a xlink:href="_ergodic__moves__3_8hpp.html" target="_top" xlink:title="Pachner moves on 2+1 dimensional foliated Delaunay triangulations.">
<polygon fill="white" stroke="black" points="267,-246.5 267,-276.5 396,-276.5 396,-246.5 267,-246.5"/>
<text text-anchor="start" x="275" y="-264.5" font-family="Helvetica,sans-Serif" font-size="10.00">include/Ergodic_moves</text>
<text text-anchor="middle" x="331.5" y="-253.5" font-family="Helvetica,sans-Serif" font-size="10.00">_3.hpp</text>
</a>
</g>
</g>
<!-- Node6&#45;&gt;Node7 -->
<g id="edge6" class="edge">
<title>Node6&#45;&gt;Node7</title>
<path fill="none" stroke="midnightblue" d="M377.95,-306.37C368.15,-297.11 355.83,-285.48 346.35,-276.52"/>
<polygon fill="midnightblue" stroke="midnightblue" points="375.8,-309.15 385.47,-313.48 380.61,-304.06 375.8,-309.15"/>
</g>
<!-- Node21 -->
<g id="node21" class="node">
<title>Node21</title>
<g id="a_node21"><a xlink:href="_move__tracker__test_8cpp.html" target="_top" xlink:title="Tests of MoveTracker, that is, that moves are tracked properly.">
<polygon fill="white" stroke="black" points="414.5,-246.5 414.5,-276.5 524.5,-276.5 524.5,-246.5 414.5,-246.5"/>
<text text-anchor="start" x="422.5" y="-264.5" font-family="Helvetica,sans-Serif" font-size="10.00">tests/Move_tracker</text>
<text text-anchor="middle" x="469.5" y="-253.5" font-family="Helvetica,sans-Serif" font-size="10.00">_test.cpp</text>
</a>
</g>
</g>
<!-- Node6&#45;&gt;Node21 -->
<g id="edge21" class="edge">
<title>Node6&#45;&gt;Node21</title>
<path fill="none" stroke="midnightblue" d="M413.16,-307.2C424.99,-297.81 440.19,-285.75 451.82,-276.52"/>
<polygon fill="midnightblue" stroke="midnightblue" points="410.9,-304.52 405.25,-313.48 415.26,-310 410.9,-304.52"/>
</g>
<!-- Node8 -->
<g id="node8" class="node">
<title>Node8</title>
<g id="a_node8"><a xlink:href="_move__command_8hpp.html" target="_top" xlink:title="Do ergodic moves using the Command pattern.">
<polygon fill="white" stroke="black" points="402,-185 402,-204 559,-204 559,-185 402,-185"/>
<text text-anchor="middle" x="480.5" y="-192" font-family="Helvetica,sans-Serif" font-size="10.00">include/Move_command.hpp</text>
</a>
</g>
</g>
<!-- Node7&#45;&gt;Node8 -->
<g id="edge7" class="edge">
<title>Node7&#45;&gt;Node8</title>
<path fill="none" stroke="midnightblue" d="M373.23,-242.3C401.97,-229.76 438.82,-213.68 461,-204.01"/>
<polygon fill="midnightblue" stroke="midnightblue" points="371.6,-239.19 363.83,-246.4 374.4,-245.61 371.6,-239.19"/>
</g>
<!-- Node7&#45;&gt;Node17 -->
<g id="edge17" class="edge">
<title>Node7&#45;&gt;Node17</title>
<path fill="none" stroke="midnightblue" d="M260.15,-244.23C204.2,-231.47 128.54,-214.21 83.89,-204.03"/>
<polygon fill="midnightblue" stroke="midnightblue" points="259.48,-247.66 270.01,-246.48 261.04,-240.84 259.48,-247.66"/>
</g>
<!-- Node18 -->
<g id="node18" class="node">
<title>Node18</title>
<g id="a_node18"><a xlink:href="_apply__move__test_8cpp.html" target="_top" xlink:title="Applying ergodic moves to manifolds.">
<polygon fill="white" stroke="black" points="577,-185 577,-204 726,-204 726,-185 577,-185"/>
<text text-anchor="middle" x="651.5" y="-192" font-family="Helvetica,sans-Serif" font-size="10.00">tests/Apply_move_test.cpp</text>
</a>
</g>
</g>
<!-- Node7&#45;&gt;Node18 -->
<g id="edge18" class="edge">
<title>Node7&#45;&gt;Node18</title>
<path fill="none" stroke="midnightblue" d="M406.17,-245.33C469.36,-232.5 557.65,-214.56 609.27,-204.08"/>
<polygon fill="midnightblue" stroke="midnightblue" points="405.36,-241.93 396.26,-247.35 406.75,-248.79 405.36,-241.93"/>
</g>
<!-- Node19 -->
<g id="node19" class="node">
<title>Node19</title>
<g id="a_node19"><a xlink:href="_ergodic__moves__3__test_8cpp.html" target="_top" xlink:title="Tests for ergodic moves on foliated triangulations.">
<polygon fill="white" stroke="black" points="143.5,-179.5 143.5,-209.5 261.5,-209.5 261.5,-179.5 143.5,-179.5"/>
<text text-anchor="start" x="151.5" y="-197.5" font-family="Helvetica,sans-Serif" font-size="10.00">tests/Ergodic_moves</text>
<text text-anchor="middle" x="202.5" y="-186.5" font-family="Helvetica,sans-Serif" font-size="10.00">_3_test.cpp</text>
</a>
</g>
</g>
<!-- Node7&#45;&gt;Node19 -->
<g id="edge19" class="edge">
<title>Node7&#45;&gt;Node19</title>
<path fill="none" stroke="midnightblue" d="M294.49,-241.85C274.1,-231.58 249.19,-219.03 230.44,-209.58"/>
<polygon fill="midnightblue" stroke="midnightblue" points="293,-245.02 303.51,-246.4 296.15,-238.77 293,-245.02"/>
</g>
<!-- Node20 -->
<g id="node20" class="node">
<title>Node20</title>
<g id="a_node20"><a xlink:href="_function__ref__test_8cpp_source.html" target="_top" xlink:title=" ">
<polygon fill="white" stroke="black" points="279.5,-179.5 279.5,-209.5 383.5,-209.5 383.5,-179.5 279.5,-179.5"/>
<text text-anchor="start" x="287.5" y="-197.5" font-family="Helvetica,sans-Serif" font-size="10.00">tests/Function_ref</text>
<text text-anchor="middle" x="331.5" y="-186.5" font-family="Helvetica,sans-Serif" font-size="10.00">_test.cpp</text>
</a>
</g>
</g>
<!-- Node7&#45;&gt;Node20 -->
<g id="edge20" class="edge">
<title>Node7&#45;&gt;Node20</title>
<path fill="none" stroke="midnightblue" d="M331.5,-236.11C331.5,-227.15 331.5,-217.32 331.5,-209.58"/>
<polygon fill="midnightblue" stroke="midnightblue" points="328,-236.4 331.5,-246.4 335,-236.4 328,-236.4"/>
</g>
<!-- Node9 -->
<g id="node9" class="node">
<title>Node9</title>
<g id="a_node9"><a xlink:href="_move__strategy_8hpp.html" target="_top" xlink:title="Template class for move algorithms (strategies) on manifolds.">
<polygon fill="white" stroke="black" points="600,-118 600,-137 747,-137 747,-118 600,-118"/>
<text text-anchor="middle" x="673.5" y="-125" font-family="Helvetica,sans-Serif" font-size="10.00">include/Move_strategy.hpp</text>
</a>
</g>
</g>
<!-- Node8&#45;&gt;Node9 -->
<g id="edge8" class="edge">
<title>Node8&#45;&gt;Node9</title>
<path fill="none" stroke="midnightblue" d="M515.83,-181.6C554.1,-168.71 614.2,-148.47 648.07,-137.06"/>
<polygon fill="midnightblue" stroke="midnightblue" points="514.49,-178.36 506.13,-184.87 516.72,-184.99 514.49,-178.36"/>
</g>
<!-- Node16 -->
<g id="node16" class="node">
<title>Node16</title>
<g id="a_node16"><a xlink:href="_move__command__test_8cpp.html" target="_top" xlink:title="Tests of MoveCommand, that is, that moves are handled properly.">
<polygon fill="white" stroke="black" points="418,-112.5 418,-142.5 543,-142.5 543,-112.5 418,-112.5"/>
<text text-anchor="start" x="426" y="-130.5" font-family="Helvetica,sans-Serif" font-size="10.00">tests/Move_command</text>
<text text-anchor="middle" x="480.5" y="-119.5" font-family="Helvetica,sans-Serif" font-size="10.00">_test.cpp</text>
</a>
</g>
</g>
<!-- Node8&#45;&gt;Node16 -->
<g id="edge16" class="edge">
<title>Node8&#45;&gt;Node16</title>
<path fill="none" stroke="midnightblue" d="M480.5,-174.41C480.5,-164.22 480.5,-151.9 480.5,-142.59"/>
<polygon fill="midnightblue" stroke="midnightblue" points="477,-174.73 480.5,-184.73 484,-174.73 477,-174.73"/>
</g>
<!-- Node10 -->
<g id="node10" class="node">
<title>Node10</title>
<g id="a_node10"><a xlink:href="_metropolis_8hpp.html" target="_top" xlink:title="Perform Metropolis&#45;Hastings algorithm on Delaunay Triangulations.">
<polygon fill="white" stroke="black" points="804.5,-56.5 804.5,-75.5 932.5,-75.5 932.5,-56.5 804.5,-56.5"/>
<text text-anchor="middle" x="868.5" y="-63.5" font-family="Helvetica,sans-Serif" font-size="10.00">include/Metropolis.hpp</text>
</a>
</g>
</g>
<!-- Node9&#45;&gt;Node10 -->
<g id="edge9" class="edge">
<title>Node9&#45;&gt;Node10</title>
<path fill="none" stroke="midnightblue" d="M711.1,-115.03C748.99,-103.46 806.61,-85.88 840.61,-75.51"/>
<polygon fill="midnightblue" stroke="midnightblue" points="709.98,-111.71 701.44,-117.98 712.02,-118.4 709.98,-111.71"/>
</g>
<!-- Node14 -->
<g id="node14" class="node">
<title>Node14</title>
<g id="a_node14"><a xlink:href="_move__always_8hpp.html" target="_top" xlink:title="Randomly selects moves to always perform on triangulations.">
<polygon fill="white" stroke="black" points="602,-56.5 602,-75.5 745,-75.5 745,-56.5 602,-56.5"/>
<text text-anchor="middle" x="673.5" y="-63.5" font-family="Helvetica,sans-Serif" font-size="10.00">include/Move_always.hpp</text>
</a>
</g>
</g>
<!-- Node9&#45;&gt;Node14 -->
<g id="edge13" class="edge">
<title>Node9&#45;&gt;Node14</title>
<path fill="none" stroke="midnightblue" d="M673.5,-107.82C673.5,-97 673.5,-83.9 673.5,-75.51"/>
<polygon fill="midnightblue" stroke="midnightblue" points="670,-107.98 673.5,-117.98 677,-107.98 670,-107.98"/>
</g>
<!-- Node11 -->
<g id="node11" class="node">
<title>Node11</title>
<g id="a_node11"><a xlink:href="cdt-opt_8cpp.html" target="_top" xlink:title="Outputs values to determine optimizations.">
<polygon fill="white" stroke="black" points="727,-0.5 727,-19.5 816,-19.5 816,-0.5 727,-0.5"/>
<text text-anchor="middle" x="771.5" y="-7.5" font-family="Helvetica,sans-Serif" font-size="10.00">src/cdt&#45;opt.cpp</text>
</a>
</g>
</g>
<!-- Node10&#45;&gt;Node11 -->
<g id="edge10" class="edge">
<title>Node10&#45;&gt;Node11</title>
<path fill="none" stroke="midnightblue" d="M844.16,-51.45C826.26,-41.48 802.45,-28.23 787.05,-19.65"/>
<polygon fill="midnightblue" stroke="midnightblue" points="842.48,-54.52 852.92,-56.32 845.88,-48.4 842.48,-54.52"/>
</g>
<!-- Node12 -->
<g id="node12" class="node">
<title>Node12</title>
<g id="a_node12"><a xlink:href="cdt_8cpp.html" target="_top" xlink:title="The main executable.">
<polygon fill="white" stroke="black" points="834,-0.5 834,-19.5 903,-19.5 903,-0.5 834,-0.5"/>
<text text-anchor="middle" x="868.5" y="-7.5" font-family="Helvetica,sans-Serif" font-size="10.00">src/cdt.cpp</text>
</a>
</g>
</g>
<!-- Node10&#45;&gt;Node12 -->
<g id="edge11" class="edge">
<title>Node10&#45;&gt;Node12</title>
<path fill="none" stroke="midnightblue" d="M868.5,-45.8C868.5,-36.91 868.5,-26.78 868.5,-19.75"/>
<polygon fill="midnightblue" stroke="midnightblue" points="865,-46.08 868.5,-56.08 872,-46.08 865,-46.08"/>
</g>
<!-- Node13 -->
<g id="node13" class="node">
<title>Node13</title>
<g id="a_node13"><a xlink:href="_metropolis__test_8cpp.html" target="_top" xlink:title="Tests for the Metropolis&#45;Hastings algorithm.">
<polygon fill="white" stroke="black" points="921.5,-0.5 921.5,-19.5 1061.5,-19.5 1061.5,-0.5 921.5,-0.5"/>
<text text-anchor="middle" x="991.5" y="-7.5" font-family="Helvetica,sans-Serif" font-size="10.00">tests/Metropolis_test.cpp</text>
</a>
</g>
</g>
<!-- Node10&#45;&gt;Node13 -->
<g id="edge12" class="edge">
<title>Node10&#45;&gt;Node13</title>
<path fill="none" stroke="midnightblue" d="M897.27,-52.37C920.31,-42.26 951.98,-28.35 972.1,-19.52"/>
<polygon fill="midnightblue" stroke="midnightblue" points="895.74,-49.22 887.99,-56.44 898.55,-55.63 895.74,-49.22"/>
</g>
<!-- Node14&#45;&gt;Node11 -->
<g id="edge14" class="edge">
<title>Node14&#45;&gt;Node11</title>
<path fill="none" stroke="midnightblue" d="M698.09,-51.45C716.18,-41.48 740.23,-28.23 755.79,-19.65"/>
<polygon fill="midnightblue" stroke="midnightblue" points="696.31,-48.43 689.25,-56.32 699.69,-54.56 696.31,-48.43"/>
</g>
<!-- Node15 -->
<g id="node15" class="node">
<title>Node15</title>
<g id="a_node15"><a xlink:href="_move__always__test_8cpp_source.html" target="_top" xlink:title=" ">
<polygon fill="white" stroke="black" points="554,-0.5 554,-19.5 709,-19.5 709,-0.5 554,-0.5"/>
<text text-anchor="middle" x="631.5" y="-7.5" font-family="Helvetica,sans-Serif" font-size="10.00">tests/Move_always_test.cpp</text>
</a>
</g>
</g>
<!-- Node14&#45;&gt;Node15 -->
<g id="edge15" class="edge">
<title>Node14&#45;&gt;Node15</title>
<path fill="none" stroke="midnightblue" d="M660.39,-48.14C653.07,-38.74 644.26,-27.4 638.31,-19.75"/>
<polygon fill="midnightblue" stroke="midnightblue" points="657.66,-50.34 666.56,-56.08 663.19,-46.04 657.66,-50.34"/>
</g>
<!-- Node30&#45;&gt;Node3 -->
<g id="edge32" class="edge">
<title>Node30&#45;&gt;Node3</title>
<path fill="none" stroke="midnightblue" d="M523.67,-550.28C493.55,-538.72 449.12,-521.66 422.67,-511.51"/>
<polygon fill="midnightblue" stroke="midnightblue" points="522.7,-553.66 533.29,-553.98 525.21,-547.12 522.7,-553.66"/>
</g>
<!-- Node31 -->
<g id="node31" class="node">
<title>Node31</title>
<g id="a_node31"><a xlink:href="main_8cpp.html" target="_top" xlink:title="Catch test driver.">
<polygon fill="white" stroke="black" points="511,-492.5 511,-511.5 600,-511.5 600,-492.5 511,-492.5"/>
<text text-anchor="middle" x="555.5" y="-499.5" font-family="Helvetica,sans-Serif" font-size="10.00">tests/main.cpp</text>
</a>
</g>
</g>
<!-- Node30&#45;&gt;Node31 -->
<g id="edge33" class="edge">
<title>Node30&#45;&gt;Node31</title>
<path fill="none" stroke="midnightblue" d="M555.5,-543.82C555.5,-533 555.5,-519.9 555.5,-511.51"/>
<polygon fill="midnightblue" stroke="midnightblue" points="552,-543.98 555.5,-553.98 559,-543.98 552,-543.98"/>
</g>
<!-- Node32&#45;&gt;Node10 -->
<g id="edge35" class="edge">
<title>Node32&#45;&gt;Node10</title>
<path fill="none" stroke="midnightblue" d="M845.55,-365.05C860.35,-357.7 876.84,-347.12 887.5,-333 907.06,-307.1 906.5,-294.95 906.5,-262.5 906.5,-262.5 906.5,-262.5 906.5,-193.5 906.5,-147.41 883.07,-95.71 873.01,-75.63"/>
<polygon fill="midnightblue" stroke="midnightblue" points="843.74,-362.03 836.14,-369.41 846.69,-368.38 843.74,-362.03"/>
</g>
<!-- Node32&#45;&gt;Node24 -->
<g id="edge36" class="edge">
<title>Node32&#45;&gt;Node24</title>
<path fill="none" stroke="midnightblue" d="M812.5,-358.8C812.5,-349.91 812.5,-339.78 812.5,-332.75"/>
<polygon fill="midnightblue" stroke="midnightblue" points="809,-359.08 812.5,-369.08 816,-359.08 809,-359.08"/>
</g>
</g>
</svg>
        <g id="navigator" transform="translate(0 0)" fill="#404254">
                <rect fill="#f2f5e9" fill-opacity="0.5" stroke="#606060" stroke-width=".5" x="0" y="0" width="60" height="60"/>
                <use id="zoomplus" xlink:href="#zoomPlus" x="17" y="9" onmousedown="handleZoom(evt,'in')"/>
                <use id="zoomminus" xlink:href="#zoomMin" x="42" y="9" onmousedown="handleZoom(evt,'out')"/>
                <use id="reset" xlink:href="#resetDef" x="30" y="36" onmousedown="handleReset()"/>
                <g id="arrowUp" xlink:href="#dirArrow" transform="translate(30 24)" onmousedown="handlePan(0,-1)">
                  <use xlink:href="#rim" fill="#404040">
                        <set attributeName="fill" to="#808080" begin="arrowUp.mouseover" end="arrowUp.mouseout"/>
                  </use>
                  <path fill="none" stroke="white" stroke-width="1.5" d="M0,-3.0v7 M-2.5,-0.5L0,-3.0L2.5,-0.5"/>
                </g>
                <g id="arrowRight" xlink:href="#dirArrow" transform="rotate(90) translate(36 -43)" onmousedown="handlePan(1,0)">
                  <use xlink:href="#rim" fill="#404040">
                        <set attributeName="fill" to="#808080" begin="arrowRight.mouseover" end="arrowRight.mouseout"/>
                  </use>
                  <path fill="none" stroke="white" stroke-width="1.5" d="M0,-3.0v7 M-2.5,-0.5L0,-3.0L2.5,-0.5"/>
                </g>
                <g id="arrowDown" xlink:href="#dirArrow" transform="rotate(180) translate(-30 -48)" onmousedown="handlePan(0,1)">
                  <use xlink:href="#rim" fill="#404040">
                        <set attributeName="fill" to="#808080" begin="arrowDown.mouseover" end="arrowDown.mouseout"/>
                  </use>
                  <path fill="none" stroke="white" stroke-width="1.5" d="M0,-3.0v7 M-2.5,-0.5L0,-3.0L2.5,-0.5"/>
                </g>
                <g id="arrowLeft" xlink:href="#dirArrow" transform="rotate(270) translate(-36 17)" onmousedown="handlePan(-1,0)">
                  <use xlink:href="#rim" fill="#404040">
                        <set attributeName="fill" to="#808080" begin="arrowLeft.mouseover" end="arrowLeft.mouseout"/>
                  </use>
                  <path fill="none" stroke="white" stroke-width="1.5" d="M0,-3.0v7 M-2.5,-0.5L0,-3.0L2.5,-0.5"/>
                </g>
        </g>
        <svg viewBox="0 0 15 15" width="100%" height="30px" preserveAspectRatio="xMaxYMin meet">
         <g id="arrow_out" transform="scale(0.3 0.3)">
          <a xlink:href="_settings_8hpp__dep__incl_org.svg" target="_base">
           <rect id="button" ry="5" rx="5" y="6" x="6" height="38" width="38"
                fill="#f2f5e9" fill-opacity="0.5" stroke="#606060" stroke-width="1.0"/>
           <path id="arrow"
             d="M 11.500037,31.436501 C 11.940474,20.09759 22.043105,11.32322 32.158766,21.979434 L 37.068811,17.246167 C 37.068811,17.246167 37.088388,32 37.088388,32 L 22.160133,31.978069 C 22.160133,31.978069 26.997745,27.140456 26.997745,27.140456 C 18.528582,18.264221 13.291696,25.230495 11.500037,31.436501 z"
             style="fill:#404040;"/>
          </a>
         </g>
        </svg>
</svg>
