<?xml version="1.0" encoding="UTF-8" standalone="no"?>
<!DOCTYPE svg PUBLIC "-//W3C//DTD SVG 1.1//EN"
 "http://www.w3.org/Graphics/SVG/1.1/DTD/svg11.dtd">
<!-- Generated by graphviz version 2.43.0 (0)
 -->
<!-- Title: include/Settings.hpp Pages: 1 -->
<svg width="1116pt" height="531pt"
 viewBox="0.00 0.00 1116.39 531.00" xmlns="http://www.w3.org/2000/svg" xmlns:xlink="http://www.w3.org/1999/xlink">
<g id="graph0" class="graph" transform="scale(1 1) rotate(0) translate(4 527)">
<title>include/Settings.hpp</title>
<polygon fill="white" stroke="transparent" points="-4,4 -4,-527 1112.39,-527 1112.39,4 -4,4"/>
<!-- Node1 -->
<g id="node1" class="node">
<title>Node1</title>
<g id="a_node1"><a xlink:title="Global integer and precision settings.">
<polygon fill="#bfbfbf" stroke="black" points="381.39,-503.5 381.39,-522.5 497.39,-522.5 497.39,-503.5 381.39,-503.5"/>
<text text-anchor="middle" x="439.39" y="-510.5" font-family="Helvetica,sans-Serif" font-size="10.00">include/Settings.hpp</text>
</a>
</g>
</g>
<!-- Node2 -->
<g id="node2" class="node">
<title>Node2</title>
<g id="a_node2"><a xlink:href="_move__tracker_8hpp.html" target="_top" xlink:title="Track ergodic moves.">
<polygon fill="white" stroke="black" points="283.89,-380.5 283.89,-399.5 424.89,-399.5 424.89,-380.5 283.89,-380.5"/>
<text text-anchor="middle" x="354.39" y="-387.5" font-family="Helvetica,sans-Serif" font-size="10.00">include/Move_tracker.hpp</text>
</a>
</g>
</g>
<!-- Node1&#45;&gt;Node2 -->
<g id="edge1" class="edge">
<title>Node1&#45;&gt;Node2</title>
<path fill="none" stroke="midnightblue" d="M410.9,-498.69C397.66,-491.15 382.8,-480.5 373.39,-467 358.77,-446.02 355.38,-414.87 354.61,-399.8"/>
<polygon fill="midnightblue" stroke="midnightblue" points="409.25,-501.78 419.72,-503.42 412.56,-495.61 409.25,-501.78"/>
</g>
<!-- Node17 -->
<g id="node17" class="node">
<title>Node17</title>
<g id="a_node17"><a xlink:href="_s3_action_8hpp.html" target="_top" xlink:title="Calculate S3 bulk actions on 3D Delaunay Triangulations.">
<polygon fill="white" stroke="black" points="39.89,-257.5 39.89,-276.5 158.89,-276.5 158.89,-257.5 39.89,-257.5"/>
<text text-anchor="middle" x="99.39" y="-264.5" font-family="Helvetica,sans-Serif" font-size="10.00">include/S3Action.hpp</text>
</a>
</g>
</g>
<!-- Node1&#45;&gt;Node17 -->
<g id="edge17" class="edge">
<title>Node1&#45;&gt;Node17</title>
<path fill="none" stroke="midnightblue" d="M412.97,-498.83C396.59,-490.35 375.34,-478.74 357.39,-467 255.62,-400.4 142.82,-305.31 109.29,-276.55"/>
<polygon fill="midnightblue" stroke="midnightblue" points="411.48,-502 421.98,-503.44 414.67,-495.77 411.48,-502"/>
</g>
<!-- Node19 -->
<g id="node19" class="node">
<title>Node19</title>
<g id="a_node19"><a xlink:href="_triangulation__traits_8hpp.html" target="_top" xlink:title="Traits class for particular uses of CGAL.">
<polygon fill="white" stroke="black" points="514.39,-436.5 514.39,-466.5 632.39,-466.5 632.39,-436.5 514.39,-436.5"/>
<text text-anchor="start" x="522.39" y="-454.5" font-family="Helvetica,sans-Serif" font-size="10.00">include/Triangulation</text>
<text text-anchor="middle" x="573.39" y="-443.5" font-family="Helvetica,sans-Serif" font-size="10.00">_traits.hpp</text>
</a>
</g>
</g>
<!-- Node1&#45;&gt;Node19 -->
<g id="edge20" class="edge">
<title>Node1&#45;&gt;Node19</title>
<path fill="none" stroke="midnightblue" d="M467.92,-499.33C489.61,-489.7 519.41,-476.47 541.81,-466.52"/>
<polygon fill="midnightblue" stroke="midnightblue" points="466.31,-496.22 458.59,-503.48 469.15,-502.62 466.31,-496.22"/>
</g>
<!-- Node31 -->
<g id="node31" class="node">
<title>Node31</title>
<g id="a_node31"><a xlink:href="_utilities_8hpp.html" target="_top" xlink:title="Utility functions.">
<polygon fill="white" stroke="black" points="382.39,-442 382.39,-461 496.39,-461 496.39,-442 382.39,-442"/>
<text text-anchor="middle" x="439.39" y="-449" font-family="Helvetica,sans-Serif" font-size="10.00">include/Utilities.hpp</text>
</a>
</g>
</g>
<!-- Node1&#45;&gt;Node31 -->
<g id="edge35" class="edge">
<title>Node1&#45;&gt;Node31</title>
<path fill="none" stroke="midnightblue" d="M439.39,-493.32C439.39,-482.5 439.39,-469.4 439.39,-461.01"/>
<polygon fill="midnightblue" stroke="midnightblue" points="435.89,-493.48 439.39,-503.48 442.89,-493.48 435.89,-493.48"/>
</g>
<!-- Node32 -->
<g id="node32" class="node">
<title>Node32</title>
<g id="a_node32"><a xlink:href="_settings__test_8cpp.html" target="_top" xlink:title="Global settings on integer types and MPFR precision.">
<polygon fill="white" stroke="black" points="650.39,-442 650.39,-461 778.39,-461 778.39,-442 650.39,-442"/>
<text text-anchor="middle" x="714.39" y="-449" font-family="Helvetica,sans-Serif" font-size="10.00">tests/Settings_test.cpp</text>
</a>
</g>
</g>
<!-- Node1&#45;&gt;Node32 -->
<g id="edge39" class="edge">
<title>Node1&#45;&gt;Node32</title>
<path fill="none" stroke="midnightblue" d="M488.7,-501.33C542.04,-489.79 625.99,-471.63 675.06,-461.01"/>
<polygon fill="midnightblue" stroke="midnightblue" points="487.83,-497.94 478.79,-503.48 489.31,-504.78 487.83,-497.94"/>
</g>
<!-- Node3 -->
<g id="node3" class="node">
<title>Node3</title>
<g id="a_node3"><a xlink:href="_ergodic__moves__3_8hpp.html" target="_top" xlink:title="Pachner moves on 2+1 dimensional foliated Delaunay triangulations.">
<polygon fill="white" stroke="black" points="311.89,-190.5 311.89,-220.5 440.89,-220.5 440.89,-190.5 311.89,-190.5"/>
<text text-anchor="start" x="319.89" y="-208.5" font-family="Helvetica,sans-Serif" font-size="10.00">include/Ergodic_moves</text>
<text text-anchor="middle" x="376.39" y="-197.5" font-family="Helvetica,sans-Serif" font-size="10.00">_3.hpp</text>
</a>
</g>
</g>
<!-- Node2&#45;&gt;Node3 -->
<g id="edge2" class="edge">
<title>Node2&#45;&gt;Node3</title>
<path fill="none" stroke="midnightblue" d="M356.7,-369.88C361.13,-333.09 370.76,-253.21 374.68,-220.69"/>
<polygon fill="midnightblue" stroke="midnightblue" points="353.17,-369.85 355.45,-380.2 360.12,-370.69 353.17,-369.85"/>
</g>
<!-- Node16 -->
<g id="node16" class="node">
<title>Node16</title>
<g id="a_node16"><a xlink:href="_move__tracker__test_8cpp.html" target="_top" xlink:title="Tests of MoveTracker, that is, that moves are tracked properly.">
<polygon fill="white" stroke="black" points="183.39,-190.5 183.39,-220.5 293.39,-220.5 293.39,-190.5 183.39,-190.5"/>
<text text-anchor="start" x="191.39" y="-208.5" font-family="Helvetica,sans-Serif" font-size="10.00">tests/Move_tracker</text>
<text text-anchor="middle" x="238.39" y="-197.5" font-family="Helvetica,sans-Serif" font-size="10.00">_test.cpp</text>
</a>
</g>
</g>
<!-- Node2&#45;&gt;Node16 -->
<g id="edge16" class="edge">
<title>Node2&#45;&gt;Node16</title>
<path fill="none" stroke="midnightblue" d="M343.43,-371.75C320.62,-335.87 268.44,-253.77 247.41,-220.69"/>
<polygon fill="midnightblue" stroke="midnightblue" points="340.48,-373.64 348.8,-380.2 346.39,-369.88 340.48,-373.64"/>
</g>
<!-- Node4 -->
<g id="node4" class="node">
<title>Node4</title>
<g id="a_node4"><a xlink:href="_move__command_8hpp.html" target="_top" xlink:title="Do ergodic moves using the Command pattern.">
<polygon fill="white" stroke="black" points="583.89,-129 583.89,-148 740.89,-148 740.89,-129 583.89,-129"/>
<text text-anchor="middle" x="662.39" y="-136" font-family="Helvetica,sans-Serif" font-size="10.00">include/Move_command.hpp</text>
</a>
</g>
</g>
<!-- Node3&#45;&gt;Node4 -->
<g id="edge3" class="edge">
<title>Node3&#45;&gt;Node4</title>
<path fill="none" stroke="midnightblue" d="M447.99,-188.23C504.14,-175.47 580.06,-158.21 624.87,-148.03"/>
<polygon fill="midnightblue" stroke="midnightblue" points="447.07,-184.85 438.1,-190.48 448.62,-191.67 447.07,-184.85"/>
</g>
<!-- Node12 -->
<g id="node12" class="node">
<title>Node12</title>
<g id="a_node12"><a xlink:href="bistellar-flip_8cpp.html" target="_top" xlink:title="Tests and views bistellar flips.">
<polygon fill="white" stroke="black" points="26.89,-129 26.89,-148 139.89,-148 139.89,-129 26.89,-129"/>
<text text-anchor="middle" x="83.39" y="-136" font-family="Helvetica,sans-Serif" font-size="10.00">src/bistellar&#45;flip.cpp</text>
</a>
</g>
</g>
<!-- Node3&#45;&gt;Node12 -->
<g id="edge12" class="edge">
<title>Node3&#45;&gt;Node12</title>
<path fill="none" stroke="midnightblue" d="M303.09,-188.29C258.39,-178.4 200.09,-165.49 148.39,-154 139.7,-152.07 130.36,-149.99 121.54,-148.02"/>
<polygon fill="midnightblue" stroke="midnightblue" points="302.47,-191.74 312.99,-190.48 303.99,-184.91 302.47,-191.74"/>
</g>
<!-- Node13 -->
<g id="node13" class="node">
<title>Node13</title>
<g id="a_node13"><a xlink:href="_apply__move__test_8cpp.html" target="_top" xlink:title="Applying ergodic moves to manifolds.">
<polygon fill="white" stroke="black" points="157.89,-129 157.89,-148 306.89,-148 306.89,-129 157.89,-129"/>
<text text-anchor="middle" x="232.39" y="-136" font-family="Helvetica,sans-Serif" font-size="10.00">tests/Apply_move_test.cpp</text>
</a>
</g>
</g>
<!-- Node3&#45;&gt;Node13 -->
<g id="edge13" class="edge">
<title>Node3&#45;&gt;Node13</title>
<path fill="none" stroke="midnightblue" d="M335.7,-186.13C307.98,-173.62 272.58,-157.64 251.24,-148.01"/>
<polygon fill="midnightblue" stroke="midnightblue" points="334.59,-189.47 345.15,-190.4 337.47,-183.09 334.59,-189.47"/>
</g>
<!-- Node14 -->
<g id="node14" class="node">
<title>Node14</title>
<g id="a_node14"><a xlink:href="_ergodic__moves__3__test_8cpp.html" target="_top" xlink:title="Tests for ergodic moves on foliated triangulations.">
<polygon fill="white" stroke="black" points="325.39,-123.5 325.39,-153.5 443.39,-153.5 443.39,-123.5 325.39,-123.5"/>
<text text-anchor="start" x="333.39" y="-141.5" font-family="Helvetica,sans-Serif" font-size="10.00">tests/Ergodic_moves</text>
<text text-anchor="middle" x="384.39" y="-130.5" font-family="Helvetica,sans-Serif" font-size="10.00">_3_test.cpp</text>
</a>
</g>
</g>
<!-- Node3&#45;&gt;Node14 -->
<g id="edge14" class="edge">
<title>Node3&#45;&gt;Node14</title>
<path fill="none" stroke="midnightblue" d="M379.36,-180.4C380.47,-171.37 381.7,-161.41 382.66,-153.58"/>
<polygon fill="midnightblue" stroke="midnightblue" points="375.88,-180.04 378.13,-190.4 382.82,-180.9 375.88,-180.04"/>
</g>
<!-- Node15 -->
<g id="node15" class="node">
<title>Node15</title>
<g id="a_node15"><a xlink:href="_function__ref__test_8cpp.html" target="_top" xlink:title="Tests on function pointers, lambdas, and function_refs.">
<polygon fill="white" stroke="black" points="461.39,-123.5 461.39,-153.5 565.39,-153.5 565.39,-123.5 461.39,-123.5"/>
<text text-anchor="start" x="469.39" y="-141.5" font-family="Helvetica,sans-Serif" font-size="10.00">tests/Function_ref</text>
<text text-anchor="middle" x="513.39" y="-130.5" font-family="Helvetica,sans-Serif" font-size="10.00">_test.cpp</text>
</a>
</g>
</g>
<!-- Node3&#45;&gt;Node15 -->
<g id="edge15" class="edge">
<title>Node3&#45;&gt;Node15</title>
<path fill="none" stroke="midnightblue" d="M415.4,-185.99C437.12,-175.69 463.72,-163.07 483.72,-153.58"/>
<polygon fill="midnightblue" stroke="midnightblue" points="413.65,-182.95 406.12,-190.4 416.65,-189.27 413.65,-182.95"/>
</g>
<!-- Node5 -->
<g id="node5" class="node">
<title>Node5</title>
<g id="a_node5"><a xlink:href="_metropolis_8hpp.html" target="_top" xlink:title="Perform Metropolis&#45;Hastings algorithm on Delaunay Triangulations.">
<polygon fill="white" stroke="black" points="377.39,-62 377.39,-81 505.39,-81 505.39,-62 377.39,-62"/>
<text text-anchor="middle" x="441.39" y="-69" font-family="Helvetica,sans-Serif" font-size="10.00">include/Metropolis.hpp</text>
</a>
</g>
</g>
<!-- Node4&#45;&gt;Node5 -->
<g id="edge4" class="edge">
<title>Node4&#45;&gt;Node5</title>
<path fill="none" stroke="midnightblue" d="M623.33,-126.01C579.59,-113.15 509.71,-92.59 470.51,-81.06"/>
<polygon fill="midnightblue" stroke="midnightblue" points="622.46,-129.4 633.04,-128.87 624.44,-122.69 622.46,-129.4"/>
</g>
<!-- Node9 -->
<g id="node9" class="node">
<title>Node9</title>
<g id="a_node9"><a xlink:href="_move__always_8hpp.html" target="_top" xlink:title="Randomly selects moves to always perform on triangulations.">
<polygon fill="white" stroke="black" points="666.89,-62 666.89,-81 809.89,-81 809.89,-62 666.89,-62"/>
<text text-anchor="middle" x="738.39" y="-69" font-family="Helvetica,sans-Serif" font-size="10.00">include/Move_always.hpp</text>
</a>
</g>
</g>
<!-- Node4&#45;&gt;Node9 -->
<g id="edge8" class="edge">
<title>Node4&#45;&gt;Node9</title>
<path fill="none" stroke="midnightblue" d="M680.27,-122.21C695.24,-109.41 716.07,-91.59 728.3,-81.13"/>
<polygon fill="midnightblue" stroke="midnightblue" points="677.97,-119.57 672.64,-128.73 682.52,-124.89 677.97,-119.57"/>
</g>
<!-- Node11 -->
<g id="node11" class="node">
<title>Node11</title>
<g id="a_node11"><a xlink:href="_move__command__test_8cpp.html" target="_top" xlink:title="Tests of MoveCommand, that is, that moves are handled properly.">
<polygon fill="white" stroke="black" points="523.89,-56.5 523.89,-86.5 648.89,-86.5 648.89,-56.5 523.89,-56.5"/>
<text text-anchor="start" x="531.89" y="-74.5" font-family="Helvetica,sans-Serif" font-size="10.00">tests/Move_command</text>
<text text-anchor="middle" x="586.39" y="-63.5" font-family="Helvetica,sans-Serif" font-size="10.00">_test.cpp</text>
</a>
</g>
</g>
<!-- Node4&#45;&gt;Node11 -->
<g id="edge11" class="edge">
<title>Node4&#45;&gt;Node11</title>
<path fill="none" stroke="midnightblue" d="M644.18,-121.93C631.62,-111.18 615.04,-97 602.86,-86.59"/>
<polygon fill="midnightblue" stroke="midnightblue" points="642.27,-124.89 652.14,-128.73 646.82,-119.57 642.27,-124.89"/>
</g>
<!-- Node6 -->
<g id="node6" class="node">
<title>Node6</title>
<g id="a_node6"><a xlink:href="cdt-opt_8cpp.html" target="_top" xlink:title="Outputs values to determine optimizations.">
<polygon fill="white" stroke="black" points="547.89,-0.5 547.89,-19.5 636.89,-19.5 636.89,-0.5 547.89,-0.5"/>
<text text-anchor="middle" x="592.39" y="-7.5" font-family="Helvetica,sans-Serif" font-size="10.00">src/cdt&#45;opt.cpp</text>
</a>
</g>
</g>
<!-- Node5&#45;&gt;Node6 -->
<g id="edge5" class="edge">
<title>Node5&#45;&gt;Node6</title>
<path fill="none" stroke="midnightblue" d="M472.4,-58.28C501.74,-46.72 545.03,-29.66 570.8,-19.51"/>
<polygon fill="midnightblue" stroke="midnightblue" points="471.05,-55.05 463.03,-61.98 473.61,-61.57 471.05,-55.05"/>
</g>
<!-- Node7 -->
<g id="node7" class="node">
<title>Node7</title>
<g id="a_node7"><a xlink:href="cdt_8cpp.html" target="_top" xlink:title="The main executable.">
<polygon fill="white" stroke="black" points="289.89,-0.5 289.89,-19.5 358.89,-19.5 358.89,-0.5 289.89,-0.5"/>
<text text-anchor="middle" x="324.39" y="-7.5" font-family="Helvetica,sans-Serif" font-size="10.00">src/cdt.cpp</text>
</a>
</g>
</g>
<!-- Node5&#45;&gt;Node7 -->
<g id="edge6" class="edge">
<title>Node5&#45;&gt;Node7</title>
<path fill="none" stroke="midnightblue" d="M415.57,-57.37C392.89,-45.83 360.57,-29.4 341.12,-19.51"/>
<polygon fill="midnightblue" stroke="midnightblue" points="414.13,-60.56 424.63,-61.98 417.3,-54.32 414.13,-60.56"/>
</g>
<!-- Node8 -->
<g id="node8" class="node">
<title>Node8</title>
<g id="a_node8"><a xlink:href="_metropolis__test_8cpp.html" target="_top" xlink:title="Tests for the Metropolis&#45;Hastings algorithm.">
<polygon fill="white" stroke="black" points="377.39,-0.5 377.39,-19.5 517.39,-19.5 517.39,-0.5 377.39,-0.5"/>
<text text-anchor="middle" x="447.39" y="-7.5" font-family="Helvetica,sans-Serif" font-size="10.00">tests/Metropolis_test.cpp</text>
</a>
</g>
</g>
<!-- Node5&#45;&gt;Node8 -->
<g id="edge7" class="edge">
<title>Node5&#45;&gt;Node8</title>
<path fill="none" stroke="midnightblue" d="M443.28,-51.82C444.37,-41 445.69,-27.9 446.53,-19.51"/>
<polygon fill="midnightblue" stroke="midnightblue" points="439.77,-51.67 442.25,-61.98 446.74,-52.38 439.77,-51.67"/>
</g>
<!-- Node9&#45;&gt;Node6 -->
<g id="edge9" class="edge">
<title>Node9&#45;&gt;Node6</title>
<path fill="none" stroke="midnightblue" d="M708.04,-58.13C679.68,-46.57 638.08,-29.62 613.27,-19.51"/>
<polygon fill="midnightblue" stroke="midnightblue" points="706.89,-61.44 717.47,-61.98 709.53,-54.96 706.89,-61.44"/>
</g>
<!-- Node10 -->
<g id="node10" class="node">
<title>Node10</title>
<g id="a_node10"><a xlink:href="_move__always__test_8cpp.html" target="_top" xlink:title="Tests for the Move Always algorithm.">
<polygon fill="white" stroke="black" points="660.89,-0.5 660.89,-19.5 815.89,-19.5 815.89,-0.5 660.89,-0.5"/>
<text text-anchor="middle" x="738.39" y="-7.5" font-family="Helvetica,sans-Serif" font-size="10.00">tests/Move_always_test.cpp</text>
</a>
</g>
</g>
<!-- Node9&#45;&gt;Node10 -->
<g id="edge10" class="edge">
<title>Node9&#45;&gt;Node10</title>
<path fill="none" stroke="midnightblue" d="M738.39,-51.82C738.39,-41 738.39,-27.9 738.39,-19.51"/>
<polygon fill="midnightblue" stroke="midnightblue" points="734.89,-51.98 738.39,-61.98 741.89,-51.98 734.89,-51.98"/>
</g>
<!-- Node17&#45;&gt;Node5 -->
<g id="edge18" class="edge">
<title>Node17&#45;&gt;Node5</title>
<path fill="none" stroke="midnightblue" d="M64.04,-253.15C49.36,-245.97 33.63,-235.5 24.39,-221 0.93,-184.17 -11.6,-155.65 17.39,-123 40.86,-96.57 264.76,-81.49 377.37,-75.52"/>
<polygon fill="midnightblue" stroke="midnightblue" points="62.9,-256.47 73.45,-257.4 65.78,-250.09 62.9,-256.47"/>
</g>
<!-- Node18 -->
<g id="node18" class="node">
<title>Node18</title>
<g id="a_node18"><a xlink:href="_s3_action__test_8cpp.html" target="_top" xlink:title="Tests for the S3 action functions.">
<polygon fill="white" stroke="black" points="33.89,-196 33.89,-215 164.89,-215 164.89,-196 33.89,-196"/>
<text text-anchor="middle" x="99.39" y="-203" font-family="Helvetica,sans-Serif" font-size="10.00">tests/S3Action_test.cpp</text>
</a>
</g>
</g>
<!-- Node17&#45;&gt;Node18 -->
<g id="edge19" class="edge">
<title>Node17&#45;&gt;Node18</title>
<path fill="none" stroke="midnightblue" d="M99.39,-247.32C99.39,-236.5 99.39,-223.4 99.39,-215.01"/>
<polygon fill="midnightblue" stroke="midnightblue" points="95.89,-247.48 99.39,-257.48 102.89,-247.48 95.89,-247.48"/>
</g>
<!-- Node20 -->
<g id="node20" class="node">
<title>Node20</title>
<g id="a_node20"><a xlink:href="_foliated__triangulation_8hpp.html" target="_top" xlink:title="Create foliated spherical triangulations.">
<polygon fill="white" stroke="black" points="482.39,-380.5 482.39,-399.5 664.39,-399.5 664.39,-380.5 482.39,-380.5"/>
<text text-anchor="middle" x="573.39" y="-387.5" font-family="Helvetica,sans-Serif" font-size="10.00">include/Foliated_triangulation.hpp</text>
</a>
</g>
</g>
<!-- Node19&#45;&gt;Node20 -->
<g id="edge21" class="edge">
<title>Node19&#45;&gt;Node20</title>
<path fill="none" stroke="midnightblue" d="M573.39,-426.29C573.39,-416.86 573.39,-406.65 573.39,-399.66"/>
<polygon fill="midnightblue" stroke="midnightblue" points="569.89,-426.4 573.39,-436.4 576.89,-426.4 569.89,-426.4"/>
</g>
<!-- Node21 -->
<g id="node21" class="node">
<title>Node21</title>
<g id="a_node21"><a xlink:href="_geometry_8hpp.html" target="_top" xlink:title="Geometric scalars of the Manifold used to calculate the Regge action.">
<polygon fill="white" stroke="black" points="714.89,-319 714.89,-338 837.89,-338 837.89,-319 714.89,-319"/>
<text text-anchor="middle" x="776.39" y="-326" font-family="Helvetica,sans-Serif" font-size="10.00">include/Geometry.hpp</text>
</a>
</g>
</g>
<!-- Node20&#45;&gt;Node21 -->
<g id="edge22" class="edge">
<title>Node20&#45;&gt;Node21</title>
<path fill="none" stroke="midnightblue" d="M612.28,-377.6C651.73,-366.04 711.89,-348.41 747.36,-338.01"/>
<polygon fill="midnightblue" stroke="midnightblue" points="611.09,-374.3 602.48,-380.48 613.06,-381.02 611.09,-374.3"/>
</g>
<!-- Node29 -->
<g id="node29" class="node">
<title>Node29</title>
<g id="a_node29"><a xlink:href="_foliated__triangulation__test_8cpp.html" target="_top" xlink:title="Tests for foliated triangulations.">
<polygon fill="white" stroke="black" points="382.39,-313.5 382.39,-343.5 532.39,-343.5 532.39,-313.5 382.39,-313.5"/>
<text text-anchor="start" x="390.39" y="-331.5" font-family="Helvetica,sans-Serif" font-size="10.00">tests/Foliated_triangulation</text>
<text text-anchor="middle" x="457.39" y="-320.5" font-family="Helvetica,sans-Serif" font-size="10.00">_test.cpp</text>
</a>
</g>
</g>
<!-- Node20&#45;&gt;Node29 -->
<g id="edge33" class="edge">
<title>Node20&#45;&gt;Node29</title>
<path fill="none" stroke="midnightblue" d="M547.67,-375.81C529,-366.23 503.77,-353.29 484.73,-343.52"/>
<polygon fill="midnightblue" stroke="midnightblue" points="546.28,-379.03 556.77,-380.48 549.47,-372.8 546.28,-379.03"/>
</g>
<!-- Node30 -->
<g id="node30" class="node">
<title>Node30</title>
<g id="a_node30"><a xlink:href="_tetrahedron__test_8cpp.html" target="_top" xlink:title="Tests for 3D triangulated and foliated tetrahedrons.">
<polygon fill="white" stroke="black" points="550.39,-319 550.39,-338 696.39,-338 696.39,-319 550.39,-319"/>
<text text-anchor="middle" x="623.39" y="-326" font-family="Helvetica,sans-Serif" font-size="10.00">tests/Tetrahedron_test.cpp</text>
</a>
</g>
</g>
<!-- Node20&#45;&gt;Node30 -->
<g id="edge34" class="edge">
<title>Node20&#45;&gt;Node30</title>
<path fill="none" stroke="midnightblue" d="M587.12,-372.67C596.54,-361.45 608.67,-347.02 616.24,-338.01"/>
<polygon fill="midnightblue" stroke="midnightblue" points="584.31,-370.57 580.56,-380.48 589.67,-375.07 584.31,-370.57"/>
</g>
<!-- Node22 -->
<g id="node22" class="node">
<title>Node22</title>
<g id="a_node22"><a xlink:href="_manifold_8hpp.html" target="_top" xlink:title="Data structures for manifolds.">
<polygon fill="white" stroke="black" points="590.89,-257.5 590.89,-276.5 709.89,-276.5 709.89,-257.5 590.89,-257.5"/>
<text text-anchor="middle" x="650.39" y="-264.5" font-family="Helvetica,sans-Serif" font-size="10.00">include/Manifold.hpp</text>
</a>
</g>
</g>
<!-- Node21&#45;&gt;Node22 -->
<g id="edge23" class="edge">
<title>Node21&#45;&gt;Node22</title>
<path fill="none" stroke="midnightblue" d="M749.23,-314.67C724.78,-303.13 689.54,-286.49 668.41,-276.51"/>
<polygon fill="midnightblue" stroke="midnightblue" points="747.8,-317.87 758.34,-318.98 750.79,-311.54 747.8,-317.87"/>
</g>
<!-- Node28 -->
<g id="node28" class="node">
<title>Node28</title>
<g id="a_node28"><a xlink:href="_geometry__test_8cpp.html" target="_top" xlink:title="Tests of new geometry data structure.">
<polygon fill="white" stroke="black" points="727.89,-257.5 727.89,-276.5 864.89,-276.5 864.89,-257.5 727.89,-257.5"/>
<text text-anchor="middle" x="796.39" y="-264.5" font-family="Helvetica,sans-Serif" font-size="10.00">tests/Geometry_test.cpp</text>
</a>
</g>
</g>
<!-- Node21&#45;&gt;Node28 -->
<g id="edge32" class="edge">
<title>Node21&#45;&gt;Node28</title>
<path fill="none" stroke="midnightblue" d="M782.56,-309.16C786.22,-298.27 790.68,-284.99 793.53,-276.51"/>
<polygon fill="midnightblue" stroke="midnightblue" points="779.13,-308.38 779.26,-318.98 785.76,-310.61 779.13,-308.38"/>
</g>
<!-- Node22&#45;&gt;Node3 -->
<g id="edge24" class="edge">
<title>Node22&#45;&gt;Node3</title>
<path fill="none" stroke="midnightblue" d="M601.08,-255.29C556.3,-245.57 489.96,-231.16 440.97,-220.52"/>
<polygon fill="midnightblue" stroke="midnightblue" points="600.62,-258.77 611.13,-257.48 602.1,-251.93 600.62,-258.77"/>
</g>
<!-- Node22&#45;&gt;Node16 -->
<g id="edge28" class="edge">
<title>Node22&#45;&gt;Node16</title>
<path fill="none" stroke="midnightblue" d="M580.62,-258.93C510.15,-251.34 398.29,-238.03 302.39,-221 299.48,-220.48 296.49,-219.92 293.48,-219.33"/>
<polygon fill="midnightblue" stroke="midnightblue" points="580.4,-262.43 590.71,-260.01 581.14,-255.47 580.4,-262.43"/>
</g>
<!-- Node22&#45;&gt;Node18 -->
<g id="edge29" class="edge">
<title>Node22&#45;&gt;Node18</title>
<path fill="none" stroke="midnightblue" d="M580.68,-261.53C487.7,-255.09 318.13,-241.64 174.39,-221 163.1,-219.38 150.93,-217.21 139.75,-215.05"/>
<polygon fill="midnightblue" stroke="midnightblue" points="580.59,-265.03 590.81,-262.23 581.07,-258.05 580.59,-265.03"/>
</g>
<!-- Node23 -->
<g id="node23" class="node">
<title>Node23</title>
<g id="a_node23"><a xlink:href="cdt-viewer_8cpp.html" target="_top" xlink:title="Views 3D spacetimes.">
<polygon fill="white" stroke="black" points="1004.39,-196 1004.39,-215 1108.39,-215 1108.39,-196 1004.39,-196"/>
<text text-anchor="middle" x="1056.39" y="-203" font-family="Helvetica,sans-Serif" font-size="10.00">src/cdt&#45;viewer.cpp</text>
</a>
</g>
</g>
<!-- Node22&#45;&gt;Node23 -->
<g id="edge25" class="edge">
<title>Node22&#45;&gt;Node23</title>
<path fill="none" stroke="midnightblue" d="M720.16,-256.9C820.9,-243.77 995.18,-221.04 995.39,-221 1004.49,-219.33 1014.27,-217.17 1023.28,-215.03"/>
<polygon fill="midnightblue" stroke="midnightblue" points="719.51,-253.46 710.05,-258.22 720.41,-260.4 719.51,-253.46"/>
</g>
<!-- Node24 -->
<g id="node24" class="node">
<title>Node24</title>
<g id="a_node24"><a xlink:href="initialize_8cpp.html" target="_top" xlink:title="Generates initial spacetimes.">
<polygon fill="white" stroke="black" points="890.39,-196 890.39,-215 986.39,-215 986.39,-196 890.39,-196"/>
<text text-anchor="middle" x="938.39" y="-203" font-family="Helvetica,sans-Serif" font-size="10.00">src/initialize.cpp</text>
</a>
</g>
</g>
<!-- Node22&#45;&gt;Node24 -->
<g id="edge26" class="edge">
<title>Node22&#45;&gt;Node24</title>
<path fill="none" stroke="midnightblue" d="M708.3,-255.66C755.14,-247.07 822.71,-234.17 881.39,-221 889.46,-219.19 898.13,-217.07 906.21,-215.02"/>
<polygon fill="midnightblue" stroke="midnightblue" points="707.55,-252.24 698.34,-257.48 708.8,-259.13 707.55,-252.24"/>
</g>
<!-- Node25 -->
<g id="node25" class="node">
<title>Node25</title>
<g id="a_node25"><a xlink:href="_manifold__test_8cpp.html" target="_top" xlink:title="Tests of new manifold data structure.">
<polygon fill="white" stroke="black" points="458.89,-196 458.89,-215 589.89,-215 589.89,-196 458.89,-196"/>
<text text-anchor="middle" x="524.39" y="-203" font-family="Helvetica,sans-Serif" font-size="10.00">tests/Manifold_test.cpp</text>
</a>
</g>
</g>
<!-- Node22&#45;&gt;Node25 -->
<g id="edge27" class="edge">
<title>Node22&#45;&gt;Node25</title>
<path fill="none" stroke="midnightblue" d="M623.23,-253.17C598.78,-241.63 563.54,-224.99 542.41,-215.01"/>
<polygon fill="midnightblue" stroke="midnightblue" points="621.8,-256.37 632.34,-257.48 624.79,-250.04 621.8,-256.37"/>
</g>
<!-- Node26 -->
<g id="node26" class="node">
<title>Node26</title>
<g id="a_node26"><a xlink:href="_utilities__test_8cpp.html" target="_top" xlink:title="Tests on utility functions.">
<polygon fill="white" stroke="black" points="608.39,-196 608.39,-215 734.39,-215 734.39,-196 608.39,-196"/>
<text text-anchor="middle" x="671.39" y="-203" font-family="Helvetica,sans-Serif" font-size="10.00">tests/Utilities_test.cpp</text>
</a>
</g>
</g>
<!-- Node22&#45;&gt;Node26 -->
<g id="edge30" class="edge">
<title>Node22&#45;&gt;Node26</title>
<path fill="none" stroke="midnightblue" d="M656.75,-248C660.61,-237.05 665.37,-223.57 668.39,-215.01"/>
<polygon fill="midnightblue" stroke="midnightblue" points="653.43,-246.88 653.4,-257.48 660.03,-249.21 653.43,-246.88"/>
</g>
<!-- Node27 -->
<g id="node27" class="node">
<title>Node27</title>
<g id="a_node27"><a xlink:href="_vertex__test_8cpp.html" target="_top" xlink:title="Tests on points and vertices in foliated Delaunay triangulations.">
<polygon fill="white" stroke="black" points="752.89,-196 752.89,-215 871.89,-215 871.89,-196 752.89,-196"/>
<text text-anchor="middle" x="812.39" y="-203" font-family="Helvetica,sans-Serif" font-size="10.00">tests/Vertex_test.cpp</text>
</a>
</g>
</g>
<!-- Node22&#45;&gt;Node27 -->
<g id="edge31" class="edge">
<title>Node22&#45;&gt;Node27</title>
<path fill="none" stroke="midnightblue" d="M683.25,-253.93C714.73,-242.37 761.45,-225.21 789.22,-215.01"/>
<polygon fill="midnightblue" stroke="midnightblue" points="681.78,-250.74 673.6,-257.48 684.2,-257.31 681.78,-250.74"/>
</g>
<!-- Node31&#45;&gt;Node2 -->
<g id="edge37" class="edge">
<title>Node31&#45;&gt;Node2</title>
<path fill="none" stroke="midnightblue" d="M418.84,-436.11C402.49,-424.67 380.17,-409.05 366.55,-399.51"/>
<polygon fill="midnightblue" stroke="midnightblue" points="417.01,-439.11 427.21,-441.98 421.03,-433.37 417.01,-439.11"/>
</g>
<!-- Node31&#45;&gt;Node20 -->
<g id="edge36" class="edge">
<title>Node31&#45;&gt;Node20</title>
<path fill="none" stroke="midnightblue" d="M467.93,-437.83C493.95,-426.28 531.66,-409.53 554.23,-399.51"/>
<polygon fill="midnightblue" stroke="midnightblue" points="466.31,-434.72 458.59,-441.98 469.15,-441.12 466.31,-434.72"/>
</g>
<!-- Node31&#45;&gt;Node23 -->
<g id="edge38" class="edge">
<title>Node31&#45;&gt;Node23</title>
<path fill="none" stroke="midnightblue" d="M487.93,-439.81C493.81,-438.52 499.74,-437.23 505.39,-436 659.22,-402.62 705.43,-411.99 847.39,-344 928.87,-304.98 1015.92,-238.6 1045.7,-215.07"/>
<polygon fill="midnightblue" stroke="midnightblue" points="487.14,-436.4 478.12,-441.96 488.64,-443.23 487.14,-436.4"/>
</g>
</g>
</svg>
