<?xml version="1.0" encoding="UTF-8" standalone="no"?>
<!DOCTYPE svg PUBLIC "-//W3C//DTD SVG 1.1//EN"
 "http://www.w3.org/Graphics/SVG/1.1/DTD/svg11.dtd">
<!-- Generated by graphviz version 15.1.0 (20260618.0150)
 -->
<!-- Title: include/Settings.hpp Pages: 1 -->
<!--zoomable 452 -->

<svg id="main" version="1.1" xmlns="http://www.w3.org/2000/svg" xmlns:xlink="http://www.w3.org/1999/xlink" xml:space="preserve" onload="init(evt)">

<style type="text/css"><![CDATA[
.node, .edge {opacity: 0.7;}
.node.selected, .edge.selected {opacity: 1;}
.edge:hover path { stroke: red; }
.edge:hover polygon { stroke: red; fill: red; }
]]></style>

<defs>
  <circle id="rim" cx="0" cy="0" r="7"/>
  <circle id="rim2" cx="0" cy="0" r="3.5"/>
  <g id="zoomPlus">
    <use xlink:href="#rim" fill="#404040"><set attributeName="fill" to="#808080" begin="zoomplus.mouseover" end="zoomplus.mouseout"/></use>
    <path d="M-4,0h8M0,-4v8" fill="none" stroke="white" stroke-width="1.5" pointer-events="none"/>
  </g>
  <g id="zoomMin">
    <use xlink:href="#rim" fill="#404040"><set attributeName="fill" to="#808080" begin="zoomminus.mouseover" end="zoomminus.mouseout"/></use>
    <path d="M-4,0h8" fill="none" stroke="white" stroke-width="1.5" pointer-events="none"/>
  </g>
  <g id="arrowUp" transform="translate(30 24)">
    <use xlink:href="#rim"/>
    <path pointer-events="none" fill="none" stroke="white" stroke-width="1.5" d="M0,-3.0v7 M-2.5,-0.5L0,-3.0L2.5,-0.5"/>
  </g>
  <g id="arrowRight" transform="rotate(90) translate(36 -43)">
    <use xlink:href="#rim"/>
    <path pointer-events="none" fill="none" stroke="white" stroke-width="1.5" d="M0,-3.0v7 M-2.5,-0.5L0,-3.0L2.5,-0.5"/>
  </g>
  <g id="arrowDown" transform="rotate(180) translate(-30 -48)">
    <use xlink:href="#rim"/>
    <path pointer-events="none" fill="none" stroke="white" stroke-width="1.5" d="M0,-3.0v7 M-2.5,-0.5L0,-3.0L2.5,-0.5"/>
  </g>
  <g id="arrowLeft" transform="rotate(270) translate(-36 17)">
    <use xlink:href="#rim"/>
    <path pointer-events="none" fill="none" stroke="white" stroke-width="1.5" d="M0,-3.0v7 M-2.5,-0.5L0,-3.0L2.5,-0.5"/>
  </g>
  <g id="resetDef">
    <use xlink:href="#rim2" fill="#404040"><set attributeName="fill" to="#808080" begin="reset.mouseover" end="reset.mouseout"/></use>
  </g>
</defs>
<script type="application/ecmascript">
var viewWidth = 657;
var viewHeight = 452;
var sectionId = 'dynsection-1';
</script>
<script type="application/ecmascript" xlink:href="svg.min.js"/>
<svg id="graph" class="graph">
<g id="viewport">
<title>include/Settings.hpp</title>
<!-- Node1 -->
<g id="Node000001" class="node">
<title>Node1</title>
<g id="a_Node000001"><a xlink:title="Global integer and precision settings.">
<polygon fill="#999999" stroke="#666666" points="493.75,-443.5 378.75,-443.5 378.75,-422.75 493.75,-422.75 493.75,-443.5"/>
<text xml:space="preserve" text-anchor="middle" x="436.25" y="-430" font-family="Helvetica,sans-Serif" font-size="10.00">include/Settings.hpp</text>
</a>
</g>
</g>
<!-- Node2 -->
<g id="Node000002" class="node">
<title>Node2</title>
<g id="a_Node000002"><a xlink:href="_move__tracker_8hpp.html" target="_top" xlink:title="Track ergodic moves.">
<polygon fill="white" stroke="#666666" points="562.5,-317.25 422,-317.25 422,-296.5 562.5,-296.5 562.5,-317.25"/>
<text xml:space="preserve" text-anchor="middle" x="492.25" y="-303.75" font-family="Helvetica,sans-Serif" font-size="10.00">include/Move_tracker.hpp</text>
</a>
</g>
</g>
<!-- Node1&#45;&gt;Node2 -->
<g id="edge1_Node000001_Node000002" class="edge">
<title>Node1&#45;&gt;Node2</title>
<g id="a_edge1_Node000001_Node000002"><a xlink:title=" ">
<path fill="none" stroke="#63b8ff" d="M447.2,-412.47C451.46,-404.57 456.26,-395.32 460.25,-386.75 471.61,-362.37 482.99,-332.79 488.62,-317.73"/>
<polygon fill="#63b8ff" stroke="#63b8ff" points="444.15,-410.75 442.42,-421.2 450.29,-414.12 444.15,-410.75"/>
</a>
</g>
</g>
<!-- Node8 -->
<g id="Node000008" class="node">
<title>Node8</title>
<g id="a_Node000008"><a xlink:href="_mpfr__value_8hpp.html" target="_top" xlink:title="Scope&#45;owned, value&#45;returning MPFR operations.">
<polygon fill="white" stroke="#666666" points="649.25,-380.38 519.25,-380.38 519.25,-359.62 649.25,-359.62 649.25,-380.38"/>
<text xml:space="preserve" text-anchor="middle" x="584.25" y="-366.88" font-family="Helvetica,sans-Serif" font-size="10.00">include/Mpfr_value.hpp</text>
</a>
</g>
</g>
<!-- Node1&#45;&gt;Node8 -->
<g id="edge7_Node000001_Node000008" class="edge">
<title>Node1&#45;&gt;Node8</title>
<g id="a_edge7_Node000001_Node000008"><a xlink:title=" ">
<path fill="none" stroke="#63b8ff" d="M470.41,-418.02C498.02,-406.61 536.17,-390.86 560.53,-380.8"/>
<polygon fill="#63b8ff" stroke="#63b8ff" points="469.33,-414.67 461.43,-421.73 472.01,-421.14 469.33,-414.67"/>
</a>
</g>
</g>
<!-- Node10 -->
<g id="Node000010" class="node">
<title>Node10</title>
<g id="a_Node000010"><a xlink:href="_triangulation__traits_8hpp.html" target="_top" xlink:title="Traits class for particular uses of CGAL.">
<polygon fill="white" stroke="#666666" points="295.88,-386.75 178.62,-386.75 178.62,-353.25 295.88,-353.25 295.88,-386.75"/>
<text xml:space="preserve" text-anchor="start" x="186.62" y="-373.25" font-family="Helvetica,sans-Serif" font-size="10.00">include/Triangulation</text>
<text xml:space="preserve" text-anchor="middle" x="237.25" y="-360.5" font-family="Helvetica,sans-Serif" font-size="10.00">_traits.hpp</text>
</a>
</g>
</g>
<!-- Node1&#45;&gt;Node10 -->
<g id="edge10_Node000001_Node000010" class="edge">
<title>Node1&#45;&gt;Node10</title>
<g id="a_edge10_Node000001_Node000010"><a xlink:title=" ">
<path fill="none" stroke="#63b8ff" d="M393.63,-419.03C363.35,-409.73 322.47,-397.18 290.1,-387.23"/>
<polygon fill="#63b8ff" stroke="#63b8ff" points="392.24,-422.27 402.83,-421.86 394.3,-415.58 392.24,-422.27"/>
</a>
</g>
</g>
<!-- Node17 -->
<g id="Node000017" class="node">
<title>Node17</title>
<g id="a_Node000017"><a xlink:href="_utilities_8hpp.html" target="_top" xlink:title="Utility functions.">
<polygon fill="white" stroke="#666666" points="451,-380.38 337.5,-380.38 337.5,-359.62 451,-359.62 451,-380.38"/>
<text xml:space="preserve" text-anchor="middle" x="394.25" y="-366.88" font-family="Helvetica,sans-Serif" font-size="10.00">include/Utilities.hpp</text>
</a>
</g>
</g>
<!-- Node1&#45;&gt;Node17 -->
<g id="edge18_Node000001_Node000017" class="edge">
<title>Node1&#45;&gt;Node17</title>
<g id="a_edge18_Node000001_Node000017"><a xlink:title=" ">
<path fill="none" stroke="#63b8ff" d="M423.03,-412.88C415.64,-402.13 406.77,-389.22 400.84,-380.59"/>
<polygon fill="#63b8ff" stroke="#63b8ff" points="420.1,-414.8 428.64,-421.06 425.87,-410.83 420.1,-414.8"/>
</a>
</g>
</g>
<!-- Node3 -->
<g id="Node000003" class="node">
<title>Node3</title>
<g id="a_Node000003"><a xlink:href="_ergodic__moves__3_8hpp.html" target="_top" xlink:title="Pachner moves on 2+1 dimensional foliated Delaunay triangulations.">
<polygon fill="white" stroke="#666666" points="555.5,-147 427,-147 427,-113.5 555.5,-113.5 555.5,-147"/>
<text xml:space="preserve" text-anchor="start" x="435" y="-133.5" font-family="Helvetica,sans-Serif" font-size="10.00">include/Ergodic_moves</text>
<text xml:space="preserve" text-anchor="middle" x="491.25" y="-120.75" font-family="Helvetica,sans-Serif" font-size="10.00">_3.hpp</text>
</a>
</g>
</g>
<!-- Node2&#45;&gt;Node3 -->
<g id="edge2_Node000002_Node000003" class="edge">
<title>Node2&#45;&gt;Node3</title>
<g id="a_edge2_Node000002_Node000003"><a xlink:title=" ">
<path fill="none" stroke="#63b8ff" d="M492.13,-284.98C491.93,-249.71 491.52,-179.13 491.34,-147.38"/>
<polygon fill="#63b8ff" stroke="#63b8ff" points="488.63,-284.74 492.19,-294.72 495.63,-284.7 488.63,-284.74"/>
</a>
</g>
</g>
<!-- Node4 -->
<g id="Node000004" class="node">
<title>Node4</title>
<g id="a_Node000004"><a xlink:href="_metropolis_8hpp.html" target="_top" xlink:title="Perform Metropolis&#45;Hastings algorithm on Delaunay Triangulations.">
<polygon fill="white" stroke="#666666" points="601.75,-77.5 474.75,-77.5 474.75,-56.75 601.75,-56.75 601.75,-77.5"/>
<text xml:space="preserve" text-anchor="middle" x="538.25" y="-64" font-family="Helvetica,sans-Serif" font-size="10.00">include/Metropolis.hpp</text>
</a>
</g>
</g>
<!-- Node3&#45;&gt;Node4 -->
<g id="edge3_Node000003_Node000004" class="edge">
<title>Node3&#45;&gt;Node4</title>
<g id="a_edge3_Node000003_Node000004"><a xlink:title=" ">
<path fill="none" stroke="#63b8ff" d="M510.43,-104.31C517.54,-95.05 525.2,-85.09 530.68,-77.97"/>
<polygon fill="#63b8ff" stroke="#63b8ff" points="507.84,-101.93 504.52,-111.99 513.39,-106.2 507.84,-101.93"/>
</a>
</g>
</g>
<!-- Node6 -->
<g id="Node000006" class="node">
<title>Node6</title>
<g id="a_Node000006"><a xlink:href="_move__command_8hpp.html" target="_top" xlink:title="Do ergodic moves using the Command pattern.">
<polygon fill="white" stroke="#666666" points="456.38,-77.5 300.12,-77.5 300.12,-56.75 456.38,-56.75 456.38,-77.5"/>
<text xml:space="preserve" text-anchor="middle" x="378.25" y="-64" font-family="Helvetica,sans-Serif" font-size="10.00">include/Move_command.hpp</text>
</a>
</g>
</g>
<!-- Node3&#45;&gt;Node6 -->
<g id="edge5_Node000003_Node000006" class="edge">
<title>Node3&#45;&gt;Node6</title>
<g id="a_edge5_Node000003_Node000006"><a xlink:title=" ">
<path fill="none" stroke="#63b8ff" d="M451.19,-107.58C432.46,-97.45 411.09,-85.89 396.35,-77.92"/>
<polygon fill="#63b8ff" stroke="#63b8ff" points="449.47,-110.63 459.93,-112.31 452.8,-104.47 449.47,-110.63"/>
</a>
</g>
</g>
<!-- Node5 -->
<g id="Node000005" class="node">
<title>Node5</title>
<g id="a_Node000005"><a xlink:href="cdt_8cpp.html" target="_top" xlink:title="The main executable.">
<polygon fill="white" stroke="#666666" points="267.5,-20.75 199,-20.75 199,0 267.5,0 267.5,-20.75"/>
<text xml:space="preserve" text-anchor="middle" x="233.25" y="-7.25" font-family="Helvetica,sans-Serif" font-size="10.00">src/cdt.cpp</text>
</a>
</g>
</g>
<!-- Node4&#45;&gt;Node5 -->
<g id="edge4_Node000004_Node000005" class="edge">
<title>Node4&#45;&gt;Node5</title>
<g id="a_edge4_Node000004_Node000005"><a xlink:title=" ">
<path fill="none" stroke="#63b8ff" d="M472.38,-54.3C409.54,-43.02 317.33,-26.47 267.78,-17.57"/>
<polygon fill="#63b8ff" stroke="#63b8ff" points="471.42,-57.68 481.88,-56.01 472.66,-50.79 471.42,-57.68"/>
</a>
</g>
</g>
<!-- Node7 -->
<g id="Node000007" class="node">
<title>Node7</title>
<g id="a_Node000007"><a xlink:href="_move__always_8hpp.html" target="_top" xlink:title="Randomly selects moves to always perform on triangulations.">
<polygon fill="white" stroke="#666666" points="449.25,-20.75 307.25,-20.75 307.25,0 449.25,0 449.25,-20.75"/>
<text xml:space="preserve" text-anchor="middle" x="378.25" y="-7.25" font-family="Helvetica,sans-Serif" font-size="10.00">include/Move_always.hpp</text>
</a>
</g>
</g>
<!-- Node6&#45;&gt;Node7 -->
<g id="edge6_Node000006_Node000007" class="edge">
<title>Node6&#45;&gt;Node7</title>
<g id="a_edge6_Node000006_Node000007"><a xlink:title=" ">
<path fill="none" stroke="#63b8ff" d="M378.25,-44.88C378.25,-36.66 378.25,-27.68 378.25,-21.08"/>
<polygon fill="#63b8ff" stroke="#63b8ff" points="374.75,-44.82 378.25,-54.82 381.75,-44.82 374.75,-44.82"/>
</a>
</g>
</g>
<!-- Node9 -->
<g id="Node000009" class="node">
<title>Node9</title>
<g id="a_Node000009"><a xlink:href="_s3_action_8hpp.html" target="_top" xlink:title="Calculate S3 bulk actions on 3D Delaunay Triangulations.">
<polygon fill="white" stroke="#666666" points="647.25,-260.5 529.25,-260.5 529.25,-239.75 647.25,-239.75 647.25,-260.5"/>
<text xml:space="preserve" text-anchor="middle" x="588.25" y="-247" font-family="Helvetica,sans-Serif" font-size="10.00">include/S3Action.hpp</text>
</a>
</g>
</g>
<!-- Node8&#45;&gt;Node9 -->
<g id="edge8_Node000008_Node000009" class="edge">
<title>Node8&#45;&gt;Node9</title>
<g id="a_edge8_Node000008_Node000009"><a xlink:title=" ">
<path fill="none" stroke="#63b8ff" d="M584.96,-347.96C585.84,-322.27 587.27,-279.92 587.92,-260.9"/>
<polygon fill="#63b8ff" stroke="#63b8ff" points="581.47,-347.73 584.63,-357.84 588.47,-347.97 581.47,-347.73"/>
</a>
</g>
</g>
<!-- Node9&#45;&gt;Node4 -->
<g id="edge9_Node000009_Node000004" class="edge">
<title>Node9&#45;&gt;Node4</title>
<g id="a_edge9_Node000009_Node000004"><a xlink:title=" ">
<path fill="none" stroke="#63b8ff" d="M586.78,-228.11C584.39,-200.95 578.39,-152.51 564.25,-113.5 559.49,-100.35 551.04,-86.6 545.07,-77.73"/>
<polygon fill="#63b8ff" stroke="#63b8ff" points="583.27,-228.09 587.55,-237.78 590.25,-227.54 583.27,-228.09"/>
</a>
</g>
</g>
<!-- Node11 -->
<g id="Node000011" class="node">
<title>Node11</title>
<g id="a_Node000011"><a xlink:href="_foliated__triangulation_8hpp.html" target="_top" xlink:title="Create foliated spherical triangulations.">
<polygon fill="white" stroke="#666666" points="328.12,-317.25 146.38,-317.25 146.38,-296.5 328.12,-296.5 328.12,-317.25"/>
<text xml:space="preserve" text-anchor="middle" x="237.25" y="-303.75" font-family="Helvetica,sans-Serif" font-size="10.00">include/Foliated_triangulation.hpp</text>
</a>
</g>
</g>
<!-- Node10&#45;&gt;Node11 -->
<g id="edge11_Node000010_Node000011" class="edge">
<title>Node10&#45;&gt;Node11</title>
<g id="a_edge11_Node000010_Node000011"><a xlink:title=" ">
<path fill="none" stroke="#63b8ff" d="M237.25,-341.44C237.25,-332.96 237.25,-324.17 237.25,-317.72"/>
<polygon fill="#63b8ff" stroke="#63b8ff" points="233.75,-341.43 237.25,-351.43 240.75,-341.43 233.75,-341.43"/>
</a>
</g>
</g>
<!-- Node16 -->
<g id="Node000016" class="node">
<title>Node16</title>
<g id="a_Node000016"><a xlink:href="_formatters_8hpp.html" target="_top" xlink:title="Formatter specializations for various types.">
<polygon fill="white" stroke="#666666" points="128.5,-317.25 0,-317.25 0,-296.5 128.5,-296.5 128.5,-317.25"/>
<text xml:space="preserve" text-anchor="middle" x="64.25" y="-303.75" font-family="Helvetica,sans-Serif" font-size="10.00">include/Formatters.hpp</text>
</a>
</g>
</g>
<!-- Node10&#45;&gt;Node16 -->
<g id="edge17_Node000010_Node000016" class="edge">
<title>Node10&#45;&gt;Node16</title>
<g id="a_edge17_Node000010_Node000016"><a xlink:title=" ">
<path fill="none" stroke="#63b8ff" d="M180.66,-349C150.91,-338.5 115.79,-326.08 91.96,-317.67"/>
<polygon fill="#63b8ff" stroke="#63b8ff" points="179.32,-352.24 189.92,-352.28 181.65,-345.64 179.32,-352.24"/>
</a>
</g>
</g>
<!-- Node12 -->
<g id="Node000012" class="node">
<title>Node12</title>
<g id="a_Node000012"><a xlink:href="_geometry_8hpp.html" target="_top" xlink:title="Geometric scalars of the Manifold used to calculate the Regge action.">
<polygon fill="white" stroke="#666666" points="313.5,-260.5 191,-260.5 191,-239.75 313.5,-239.75 313.5,-260.5"/>
<text xml:space="preserve" text-anchor="middle" x="252.25" y="-247" font-family="Helvetica,sans-Serif" font-size="10.00">include/Geometry.hpp</text>
</a>
</g>
</g>
<!-- Node11&#45;&gt;Node12 -->
<g id="edge12_Node000011_Node000012" class="edge">
<title>Node11&#45;&gt;Node12</title>
<g id="a_edge12_Node000011_Node000012"><a xlink:title=" ">
<path fill="none" stroke="#63b8ff" d="M242.91,-285.21C245.21,-276.84 247.74,-267.58 249.59,-260.83"/>
<polygon fill="#63b8ff" stroke="#63b8ff" points="239.6,-284.06 240.33,-294.63 246.35,-285.91 239.6,-284.06"/>
</a>
</g>
</g>
<!-- Node13 -->
<g id="Node000013" class="node">
<title>Node13</title>
<g id="a_Node000013"><a xlink:href="_manifold_8hpp.html" target="_top" xlink:title="Data structures for manifolds.">
<polygon fill="white" stroke="#666666" points="366.25,-203.75 248.25,-203.75 248.25,-183 366.25,-183 366.25,-203.75"/>
<text xml:space="preserve" text-anchor="middle" x="307.25" y="-190.25" font-family="Helvetica,sans-Serif" font-size="10.00">include/Manifold.hpp</text>
</a>
</g>
</g>
<!-- Node12&#45;&gt;Node13 -->
<g id="edge13_Node000012_Node000013" class="edge">
<title>Node12&#45;&gt;Node13</title>
<g id="a_edge13_Node000012_Node000013"><a xlink:title=" ">
<path fill="none" stroke="#63b8ff" d="M270.16,-231.3C279.25,-222.25 289.94,-211.61 297.5,-204.08"/>
<polygon fill="#63b8ff" stroke="#63b8ff" points="267.77,-228.73 263.16,-238.27 272.71,-233.69 267.77,-228.73"/>
</a>
</g>
</g>
<!-- Node13&#45;&gt;Node3 -->
<g id="edge14_Node000013_Node000003" class="edge">
<title>Node13&#45;&gt;Node3</title>
<g id="a_edge14_Node000013_Node000003"><a xlink:title=" ">
<path fill="none" stroke="#63b8ff" d="M347.39,-179.04C375.32,-169.76 412.72,-157.34 442.38,-147.48"/>
<polygon fill="#63b8ff" stroke="#63b8ff" points="346.64,-175.6 338.25,-182.08 348.84,-182.25 346.64,-175.6"/>
</a>
</g>
</g>
<!-- Node14 -->
<g id="Node000014" class="node">
<title>Node14</title>
<g id="a_Node000014"><a xlink:href="cdt-viewer_8cpp.html" target="_top" xlink:title="Views 3D spacetimes.">
<polygon fill="white" stroke="#666666" points="408.12,-140.62 304.38,-140.62 304.38,-119.88 408.12,-119.88 408.12,-140.62"/>
<text xml:space="preserve" text-anchor="middle" x="356.25" y="-127.12" font-family="Helvetica,sans-Serif" font-size="10.00">src/cdt&#45;viewer.cpp</text>
</a>
</g>
</g>
<!-- Node13&#45;&gt;Node14 -->
<g id="edge15_Node000013_Node000014" class="edge">
<title>Node13&#45;&gt;Node14</title>
<g id="a_edge15_Node000013_Node000014"><a xlink:title=" ">
<path fill="none" stroke="#63b8ff" d="M322.15,-173.79C330.86,-162.92 341.51,-149.64 348.56,-140.84"/>
<polygon fill="#63b8ff" stroke="#63b8ff" points="319.59,-171.38 316.07,-181.37 325.06,-175.76 319.59,-171.38"/>
</a>
</g>
</g>
<!-- Node15 -->
<g id="Node000015" class="node">
<title>Node15</title>
<g id="a_Node000015"><a xlink:href="initialize_8cpp.html" target="_top" xlink:title="Generates initial spacetimes.">
<polygon fill="white" stroke="#666666" points="285,-140.62 189.5,-140.62 189.5,-119.88 285,-119.88 285,-140.62"/>
<text xml:space="preserve" text-anchor="middle" x="237.25" y="-127.12" font-family="Helvetica,sans-Serif" font-size="10.00">src/initialize.cpp</text>
</a>
</g>
</g>
<!-- Node13&#45;&gt;Node15 -->
<g id="edge16_Node000013_Node000015" class="edge">
<title>Node13&#45;&gt;Node15</title>
<g id="a_edge16_Node000013_Node000015"><a xlink:title=" ">
<path fill="none" stroke="#63b8ff" d="M287.46,-175.1C274.75,-164 258.72,-150 248.24,-140.84"/>
<polygon fill="#63b8ff" stroke="#63b8ff" points="285.03,-177.62 294.86,-181.56 289.63,-172.34 285.03,-177.62"/>
</a>
</g>
</g>
<!-- Node17&#45;&gt;Node2 -->
<g id="edge20_Node000017_Node000002" class="edge">
<title>Node17&#45;&gt;Node2</title>
<g id="a_edge20_Node000017_Node000002"><a xlink:title=" ">
<path fill="none" stroke="#63b8ff" d="M419.59,-353.2C437.59,-341.97 461.2,-327.24 476.54,-317.67"/>
<polygon fill="#63b8ff" stroke="#63b8ff" points="417.91,-350.12 411.28,-358.38 421.62,-356.06 417.91,-350.12"/>
</a>
</g>
</g>
<!-- Node17&#45;&gt;Node11 -->
<g id="edge19_Node000017_Node000011" class="edge">
<title>Node17&#45;&gt;Node11</title>
<g id="a_edge19_Node000017_Node000011"><a xlink:title=" ">
<path fill="none" stroke="#63b8ff" d="M358.4,-355.04C329.08,-343.63 288.37,-327.78 262.41,-317.67"/>
<polygon fill="#63b8ff" stroke="#63b8ff" points="357.03,-358.26 367.61,-358.63 359.57,-351.74 357.03,-358.26"/>
</a>
</g>
</g>
<!-- Node17&#45;&gt;Node14 -->
<g id="edge24_Node000017_Node000014" class="edge">
<title>Node17&#45;&gt;Node14</title>
<g id="a_edge24_Node000017_Node000014"><a xlink:title=" ">
<path fill="none" stroke="#63b8ff" d="M393.8,-347.7C392.68,-312.84 388.78,-241.61 375.25,-183 371.76,-167.89 365.08,-151.18 360.64,-140.95"/>
<polygon fill="#63b8ff" stroke="#63b8ff" points="390.3,-347.76 394.07,-357.67 397.3,-347.57 390.3,-347.76"/>
</a>
</g>
</g>
<!-- Node18 -->
<g id="Node000018" class="node">
<title>Node18</title>
<g id="a_Node000018"><a xlink:href="_runtime__config_8hpp.html" target="_top" xlink:title="Validated runtime configuration for CDT++ command&#45;line programs.">
<polygon fill="white" stroke="#666666" points="229.75,-203.75 78.75,-203.75 78.75,-183 229.75,-183 229.75,-203.75"/>
<text xml:space="preserve" text-anchor="middle" x="154.25" y="-190.25" font-family="Helvetica,sans-Serif" font-size="10.00">include/Runtime_config.hpp</text>
</a>
</g>
</g>
<!-- Node17&#45;&gt;Node18 -->
<g id="edge21_Node000017_Node000018" class="edge">
<title>Node17&#45;&gt;Node18</title>
<g id="a_edge21_Node000017_Node000018"><a xlink:title=" ">
<path fill="none" stroke="#63b8ff" d="M388.38,-348.4C379.13,-319.68 358.38,-267.98 322.25,-239.75 295.94,-219.2 261.04,-207.93 229.87,-201.77"/>
<polygon fill="#63b8ff" stroke="#63b8ff" points="384.96,-349.16 391.22,-357.71 391.66,-347.13 384.96,-349.16"/>
</a>
</g>
</g>
<!-- Node18&#45;&gt;Node5 -->
<g id="edge22_Node000018_Node000005" class="edge">
<title>Node18&#45;&gt;Node5</title>
<g id="a_edge22_Node000018_Node000005"><a xlink:title=" ">
<path fill="none" stroke="#63b8ff" d="M160.02,-171.89C164.79,-155.77 172.09,-132.88 180.25,-113.5 195.06,-78.34 217.27,-38.8 227.6,-20.98"/>
<polygon fill="#63b8ff" stroke="#63b8ff" points="156.72,-170.69 157.31,-181.27 163.45,-172.63 156.72,-170.69"/>
</a>
</g>
</g>
<!-- Node18&#45;&gt;Node15 -->
<g id="edge23_Node000018_Node000015" class="edge">
<title>Node18&#45;&gt;Node15</title>
<g id="a_edge23_Node000018_Node000015"><a xlink:title=" ">
<path fill="none" stroke="#63b8ff" d="M176.78,-175.78C191.88,-164.66 211.25,-150.39 223.95,-141.05"/>
<polygon fill="#63b8ff" stroke="#63b8ff" points="174.78,-172.91 168.8,-181.66 178.93,-178.54 174.78,-172.91"/>
</a>
</g>
</g>
</g>
</svg>

<g id="navigator" transform="translate(0 0)" fill="#404254">
  <rect fill="#f2f5e9" fill-opacity="0.5" stroke="#606060" stroke-width=".5" x="0" y="0" width="60" height="60"/>
  <use id="zoomplus" xlink:href="#zoomPlus" x="17" y="9" onmousedown="handleZoom(evt,'in')"/>
  <use id="zoomminus" xlink:href="#zoomMin" x="42" y="9" onmousedown="handleZoom(evt,'out')"/>
  <use id="reset" xlink:href="#resetDef" x="30" y="36" onmousedown="handleReset()"/>
   <use id="arrowup" xlink:href="#arrowUp" x="0" y="0" onmousedown="handlePan(0,-1)"/>
  <use id="arrowright" xlink:href="#arrowRight" x="0" y="0" onmousedown="handlePan(1,0)"/>
  <use id="arrowdown" xlink:href="#arrowDown" x="0" y="0" onmousedown="handlePan(0,1)"/>
  <use id="arrowleft" xlink:href="#arrowLeft" x="0" y="0" onmousedown="handlePan(-1,0)"/>
</g>
<svg viewBox="0 0 15 15" width="100%" height="30px" preserveAspectRatio="xMaxYMin meet">
 <g id="arrow_out" transform="scale(0.3 0.3)">
  <a xlink:href="_settings_8hpp__dep__incl_org.svg" target="_base">
   <rect id="button" ry="5" rx="5" y="6" x="6" height="38" width="38"
        fill="#f2f5e9" fill-opacity="0.5" stroke="#606060" stroke-width="1.0"/>
   <path id="arrow"
     d="M 11.500037,31.436501 C 11.940474,20.09759 22.043105,11.32322 32.158766,21.979434 L 37.068811,17.246167 C 37.068811,17.246167 37.088388,32 37.088388,32 L 22.160133,31.978069 C 22.160133,31.978069 26.997745,27.140456 26.997745,27.140456 C 18.528582,18.264221 13.291696,25.230495 11.500037,31.436501 z"
     style="fill:#404040;"/>
  </a>
 </g>
</svg>

<style type='text/css'>
<![CDATA[
[data-mouse-over-selected='false'] { opacity: 0.7; }
[data-mouse-over-selected='true']  { opacity: 1.0; }
]]>
</style>
<script type="application/ecmascript"><![CDATA[
document.addEventListener('DOMContentLoaded', (event) => {
  highlightEdges();
  highlightAdjacentNodes();
});
]]></script>
</svg>
