<?xml version="1.0" encoding="UTF-8" standalone="no"?>
<!DOCTYPE svg PUBLIC "-//W3C//DTD SVG 1.1//EN"
 "http://www.w3.org/Graphics/SVG/1.1/DTD/svg11.dtd">
<!-- Generated by graphviz version 2.43.0 (0)
 -->
<!-- Title: include/Settings.hpp Pages: 1 -->
<!--zoomable 587 -->
<svg id="main" version="1.1" xmlns="http://www.w3.org/2000/svg" xmlns:xlink="http://www.w3.org/1999/xlink" xml:space="preserve" onload="init(evt)">
<style type="text/css"><![CDATA[
.edge:hover path { stroke: red; }
.edge:hover polygon { stroke: red; fill: red; }
]]></style>
<script type="text/javascript"><![CDATA[
var edges = document.getElementsByTagName('g');
if (edges && edges.length) {
  for (var i=0;i<edges.length;i++) {
    if (edges[i].id.substr(0,4)=='edge') {
      edges[i].setAttribute('class','edge');
    }
  }
}
]]></script>
        <defs>
                <circle id="rim" cx="0" cy="0" r="7"/>
                <circle id="rim2" cx="0" cy="0" r="3.5"/>
                <g id="zoomPlus">
                        <use xlink:href="#rim" fill="#404040">
                                <set attributeName="fill" to="#808080" begin="zoomplus.mouseover" end="zoomplus.mouseout"/>
                        </use>
                        <path d="M-4,0h8M0,-4v8" fill="none" stroke="white" stroke-width="1.5" pointer-events="none"/>
                </g>
                <g id="zoomMin">
                        <use xlink:href="#rim" fill="#404040">
                                <set attributeName="fill" to="#808080" begin="zoomminus.mouseover" end="zoomminus.mouseout"/>
                        </use>
                        <path d="M-4,0h8" fill="none" stroke="white" stroke-width="1.5" pointer-events="none"/>
                </g>
                <g id="dirArrow">
                        <path fill="none" stroke="white" stroke-width="1.5" d="M0,-3.0v7 M-2.5,-0.5L0,-3.0L2.5,-0.5"/>
                </g>
               <g id="resetDef">
                       <use xlink:href="#rim2" fill="#404040">
                               <set attributeName="fill" to="#808080" begin="reset.mouseover" end="reset.mouseout"/>
                       </use>
               </g>
        </defs>

<script type="text/javascript">
var viewWidth = 1110;
var viewHeight = 587;
var sectionId = 'dynsection-1';
</script>
<script xlink:href="svgpan.js"/>
<svg id="graph" class="graph">
<g id="viewport">
<title>include/Settings.hpp</title>
<polygon fill="white" stroke="transparent" points="-4,4 -4,-583 1106.29,-583 1106.29,4 -4,4"/>
<!-- Node1 -->
<g id="node1" class="node">
<title>Node1</title>
<g id="a_node1"><a xlink:title="Global integer and precision settings.">
<polygon fill="#bfbfbf" stroke="black" points="375.29,-559.5 375.29,-578.5 491.29,-578.5 491.29,-559.5 375.29,-559.5"/>
<text text-anchor="middle" x="433.29" y="-566.5" font-family="Helvetica,sans-Serif" font-size="10.00">include/Settings.hpp</text>
</a>
</g>
</g>
<!-- Node2 -->
<g id="node2" class="node">
<title>Node2</title>
<g id="a_node2"><a xlink:href="_move__tracker_8hpp.html" target="_top" xlink:title="Track ergodic moves.">
<polygon fill="white" stroke="black" points="277.79,-436.5 277.79,-455.5 418.79,-455.5 418.79,-436.5 277.79,-436.5"/>
<text text-anchor="middle" x="348.29" y="-443.5" font-family="Helvetica,sans-Serif" font-size="10.00">include/Move_tracker.hpp</text>
</a>
</g>
</g>
<!-- Node1&#45;&gt;Node2 -->
<g id="edge1" class="edge">
<title>Node1&#45;&gt;Node2</title>
<path fill="none" stroke="midnightblue" d="M404.8,-554.69C391.56,-547.15 376.7,-536.5 367.29,-523 352.67,-502.02 349.28,-470.87 348.51,-455.8"/>
<polygon fill="midnightblue" stroke="midnightblue" points="403.15,-557.78 413.62,-559.42 406.46,-551.61 403.15,-557.78"/>
</g>
<!-- Node17 -->
<g id="node17" class="node">
<title>Node17</title>
<g id="a_node17"><a xlink:href="_s3_action_8hpp.html" target="_top" xlink:title="Calculate S3 bulk actions on 3D Delaunay Triangulations.">
<polygon fill="white" stroke="black" points="33.79,-313.5 33.79,-332.5 152.79,-332.5 152.79,-313.5 33.79,-313.5"/>
<text text-anchor="middle" x="93.29" y="-320.5" font-family="Helvetica,sans-Serif" font-size="10.00">include/S3Action.hpp</text>
</a>
</g>
</g>
<!-- Node1&#45;&gt;Node17 -->
<g id="edge17" class="edge">
<title>Node1&#45;&gt;Node17</title>
<path fill="none" stroke="midnightblue" d="M406.87,-554.83C390.5,-546.35 369.24,-534.74 351.29,-523 249.53,-456.4 136.72,-361.31 103.2,-332.55"/>
<polygon fill="midnightblue" stroke="midnightblue" points="405.39,-558 415.88,-559.44 408.57,-551.77 405.39,-558"/>
</g>
<!-- Node19 -->
<g id="node19" class="node">
<title>Node19</title>
<g id="a_node19"><a xlink:href="_triangulation__traits_8hpp.html" target="_top" xlink:title="Traits class for particular uses of CGAL.">
<polygon fill="white" stroke="black" points="508.29,-492.5 508.29,-522.5 626.29,-522.5 626.29,-492.5 508.29,-492.5"/>
<text text-anchor="start" x="516.29" y="-510.5" font-family="Helvetica,sans-Serif" font-size="10.00">include/Triangulation</text>
<text text-anchor="middle" x="567.29" y="-499.5" font-family="Helvetica,sans-Serif" font-size="10.00">_traits.hpp</text>
</a>
</g>
</g>
<!-- Node1&#45;&gt;Node19 -->
<g id="edge20" class="edge">
<title>Node1&#45;&gt;Node19</title>
<path fill="none" stroke="midnightblue" d="M461.83,-555.33C483.51,-545.7 513.32,-532.47 535.71,-522.52"/>
<polygon fill="midnightblue" stroke="midnightblue" points="460.21,-552.22 452.49,-559.48 463.05,-558.62 460.21,-552.22"/>
</g>
<!-- Node31 -->
<g id="node31" class="node">
<title>Node31</title>
<g id="a_node31"><a xlink:href="_utilities_8hpp.html" target="_top" xlink:title="Utility functions.">
<polygon fill="white" stroke="black" points="376.29,-498 376.29,-517 490.29,-517 490.29,-498 376.29,-498"/>
<text text-anchor="middle" x="433.29" y="-505" font-family="Helvetica,sans-Serif" font-size="10.00">include/Utilities.hpp</text>
</a>
</g>
</g>
<!-- Node1&#45;&gt;Node31 -->
<g id="edge35" class="edge">
<title>Node1&#45;&gt;Node31</title>
<path fill="none" stroke="midnightblue" d="M433.29,-549.32C433.29,-538.5 433.29,-525.4 433.29,-517.01"/>
<polygon fill="midnightblue" stroke="midnightblue" points="429.79,-549.48 433.29,-559.48 436.79,-549.48 429.79,-549.48"/>
</g>
<!-- Node32 -->
<g id="node32" class="node">
<title>Node32</title>
<g id="a_node32"><a xlink:href="_settings__test_8cpp.html" target="_top" xlink:title="Global settings on integer types and MPFR precision.">
<polygon fill="white" stroke="black" points="644.29,-498 644.29,-517 772.29,-517 772.29,-498 644.29,-498"/>
<text text-anchor="middle" x="708.29" y="-505" font-family="Helvetica,sans-Serif" font-size="10.00">tests/Settings_test.cpp</text>
</a>
</g>
</g>
<!-- Node1&#45;&gt;Node32 -->
<g id="edge39" class="edge">
<title>Node1&#45;&gt;Node32</title>
<path fill="none" stroke="midnightblue" d="M482.61,-557.33C535.94,-545.79 619.89,-527.63 668.97,-517.01"/>
<polygon fill="midnightblue" stroke="midnightblue" points="481.73,-553.94 472.7,-559.48 483.21,-560.78 481.73,-553.94"/>
</g>
<!-- Node3 -->
<g id="node3" class="node">
<title>Node3</title>
<g id="a_node3"><a xlink:href="_ergodic__moves__3_8hpp.html" target="_top" xlink:title="Pachner moves on 2+1 dimensional foliated Delaunay triangulations.">
<polygon fill="white" stroke="black" points="305.79,-246.5 305.79,-276.5 434.79,-276.5 434.79,-246.5 305.79,-246.5"/>
<text text-anchor="start" x="313.79" y="-264.5" font-family="Helvetica,sans-Serif" font-size="10.00">include/Ergodic_moves</text>
<text text-anchor="middle" x="370.29" y="-253.5" font-family="Helvetica,sans-Serif" font-size="10.00">_3.hpp</text>
</a>
</g>
</g>
<!-- Node2&#45;&gt;Node3 -->
<g id="edge2" class="edge">
<title>Node2&#45;&gt;Node3</title>
<path fill="none" stroke="midnightblue" d="M350.6,-425.88C355.03,-389.09 364.66,-309.21 368.58,-276.69"/>
<polygon fill="midnightblue" stroke="midnightblue" points="347.08,-425.85 349.36,-436.2 354.03,-426.69 347.08,-425.85"/>
</g>
<!-- Node16 -->
<g id="node16" class="node">
<title>Node16</title>
<g id="a_node16"><a xlink:href="_move__tracker__test_8cpp.html" target="_top" xlink:title="Tests of MoveTracker, that is, that moves are tracked properly.">
<polygon fill="white" stroke="black" points="177.29,-246.5 177.29,-276.5 287.29,-276.5 287.29,-246.5 177.29,-246.5"/>
<text text-anchor="start" x="185.29" y="-264.5" font-family="Helvetica,sans-Serif" font-size="10.00">tests/Move_tracker</text>
<text text-anchor="middle" x="232.29" y="-253.5" font-family="Helvetica,sans-Serif" font-size="10.00">_test.cpp</text>
</a>
</g>
</g>
<!-- Node2&#45;&gt;Node16 -->
<g id="edge16" class="edge">
<title>Node2&#45;&gt;Node16</title>
<path fill="none" stroke="midnightblue" d="M337.33,-427.75C314.52,-391.87 262.34,-309.77 241.32,-276.69"/>
<polygon fill="midnightblue" stroke="midnightblue" points="334.38,-429.64 342.7,-436.2 340.29,-425.88 334.38,-429.64"/>
</g>
<!-- Node4 -->
<g id="node4" class="node">
<title>Node4</title>
<g id="a_node4"><a xlink:href="_move__command_8hpp.html" target="_top" xlink:title="Do ergodic moves using the Command pattern.">
<polygon fill="white" stroke="black" points="452.79,-185 452.79,-204 609.79,-204 609.79,-185 452.79,-185"/>
<text text-anchor="middle" x="531.29" y="-192" font-family="Helvetica,sans-Serif" font-size="10.00">include/Move_command.hpp</text>
</a>
</g>
</g>
<!-- Node3&#45;&gt;Node4 -->
<g id="edge3" class="edge">
<title>Node3&#45;&gt;Node4</title>
<path fill="none" stroke="midnightblue" d="M414.58,-242.62C445.74,-230.04 486.05,-213.77 510.22,-204.01"/>
<polygon fill="midnightblue" stroke="midnightblue" points="413.19,-239.41 405.23,-246.4 415.81,-245.9 413.19,-239.41"/>
</g>
<!-- Node13 -->
<g id="node13" class="node">
<title>Node13</title>
<g id="a_node13"><a xlink:href="_apply__move__test_8cpp.html" target="_top" xlink:title="Applying ergodic moves to manifolds.">
<polygon fill="white" stroke="black" points="26.79,-185 26.79,-204 175.79,-204 175.79,-185 26.79,-185"/>
<text text-anchor="middle" x="101.29" y="-192" font-family="Helvetica,sans-Serif" font-size="10.00">tests/Apply_move_test.cpp</text>
</a>
</g>
</g>
<!-- Node3&#45;&gt;Node13 -->
<g id="edge13" class="edge">
<title>Node3&#45;&gt;Node13</title>
<path fill="none" stroke="midnightblue" d="M302.3,-244.07C249.55,-231.32 178.56,-214.17 136.59,-204.03"/>
<polygon fill="midnightblue" stroke="midnightblue" points="301.71,-247.53 312.26,-246.48 303.36,-240.73 301.71,-247.53"/>
</g>
<!-- Node14 -->
<g id="node14" class="node">
<title>Node14</title>
<g id="a_node14"><a xlink:href="_ergodic__moves__3__test_8cpp.html" target="_top" xlink:title="Tests for ergodic moves on foliated triangulations.">
<polygon fill="white" stroke="black" points="194.29,-179.5 194.29,-209.5 312.29,-209.5 312.29,-179.5 194.29,-179.5"/>
<text text-anchor="start" x="202.29" y="-197.5" font-family="Helvetica,sans-Serif" font-size="10.00">tests/Ergodic_moves</text>
<text text-anchor="middle" x="253.29" y="-186.5" font-family="Helvetica,sans-Serif" font-size="10.00">_3_test.cpp</text>
</a>
</g>
</g>
<!-- Node3&#45;&gt;Node14 -->
<g id="edge14" class="edge">
<title>Node3&#45;&gt;Node14</title>
<path fill="none" stroke="midnightblue" d="M335.98,-241.44C317.62,-231.24 295.41,-218.9 278.63,-209.58"/>
<polygon fill="midnightblue" stroke="midnightblue" points="334.47,-244.6 344.91,-246.4 337.87,-238.48 334.47,-244.6"/>
</g>
<!-- Node15 -->
<g id="node15" class="node">
<title>Node15</title>
<g id="a_node15"><a xlink:href="_function__ref__test_8cpp.html" target="_top" xlink:title="Tests on function pointers, lambdas, and function_refs.">
<polygon fill="white" stroke="black" points="330.29,-179.5 330.29,-209.5 434.29,-209.5 434.29,-179.5 330.29,-179.5"/>
<text text-anchor="start" x="338.29" y="-197.5" font-family="Helvetica,sans-Serif" font-size="10.00">tests/Function_ref</text>
<text text-anchor="middle" x="382.29" y="-186.5" font-family="Helvetica,sans-Serif" font-size="10.00">_test.cpp</text>
</a>
</g>
</g>
<!-- Node3&#45;&gt;Node15 -->
<g id="edge15" class="edge">
<title>Node3&#45;&gt;Node15</title>
<path fill="none" stroke="midnightblue" d="M374.74,-236.4C376.41,-227.37 378.25,-217.41 379.7,-209.58"/>
<polygon fill="midnightblue" stroke="midnightblue" points="371.27,-235.93 372.9,-246.4 378.16,-237.2 371.27,-235.93"/>
</g>
<!-- Node5 -->
<g id="node5" class="node">
<title>Node5</title>
<g id="a_node5"><a xlink:href="_move__strategy_8hpp.html" target="_top" xlink:title="Template class for move algorithms (strategies) on manifolds.">
<polygon fill="white" stroke="black" points="457.79,-118 457.79,-137 604.79,-137 604.79,-118 457.79,-118"/>
<text text-anchor="middle" x="531.29" y="-125" font-family="Helvetica,sans-Serif" font-size="10.00">include/Move_strategy.hpp</text>
</a>
</g>
</g>
<!-- Node4&#45;&gt;Node5 -->
<g id="edge4" class="edge">
<title>Node4&#45;&gt;Node5</title>
<path fill="none" stroke="midnightblue" d="M531.29,-174.54C531.29,-162.17 531.29,-146.62 531.29,-137.13"/>
<polygon fill="midnightblue" stroke="midnightblue" points="527.79,-174.73 531.29,-184.73 534.79,-174.73 527.79,-174.73"/>
</g>
<!-- Node12 -->
<g id="node12" class="node">
<title>Node12</title>
<g id="a_node12"><a xlink:href="_move__command__test_8cpp.html" target="_top" xlink:title="Tests of MoveCommand, that is, that moves are handled properly.">
<polygon fill="white" stroke="black" points="314.79,-112.5 314.79,-142.5 439.79,-142.5 439.79,-112.5 314.79,-112.5"/>
<text text-anchor="start" x="322.79" y="-130.5" font-family="Helvetica,sans-Serif" font-size="10.00">tests/Move_command</text>
<text text-anchor="middle" x="377.29" y="-119.5" font-family="Helvetica,sans-Serif" font-size="10.00">_test.cpp</text>
</a>
</g>
</g>
<!-- Node4&#45;&gt;Node12 -->
<g id="edge12" class="edge">
<title>Node4&#45;&gt;Node12</title>
<path fill="none" stroke="midnightblue" d="M501.47,-180.91C475.4,-169.91 437.57,-153.94 410.53,-142.53"/>
<polygon fill="midnightblue" stroke="midnightblue" points="500.27,-184.2 510.84,-184.87 502.99,-177.76 500.27,-184.2"/>
</g>
<!-- Node6 -->
<g id="node6" class="node">
<title>Node6</title>
<g id="a_node6"><a xlink:href="_metropolis_8hpp.html" target="_top" xlink:title="Perform Metropolis&#45;Hastings algorithm on Delaunay Triangulations.">
<polygon fill="white" stroke="black" points="254.29,-56.5 254.29,-75.5 382.29,-75.5 382.29,-56.5 254.29,-56.5"/>
<text text-anchor="middle" x="318.29" y="-63.5" font-family="Helvetica,sans-Serif" font-size="10.00">include/Metropolis.hpp</text>
</a>
</g>
</g>
<!-- Node5&#45;&gt;Node6 -->
<g id="edge5" class="edge">
<title>Node5&#45;&gt;Node6</title>
<path fill="none" stroke="midnightblue" d="M491.02,-115.25C449.64,-103.69 386.14,-85.95 348.76,-75.51"/>
<polygon fill="midnightblue" stroke="midnightblue" points="490.2,-118.66 500.78,-117.98 492.09,-111.91 490.2,-118.66"/>
</g>
<!-- Node10 -->
<g id="node10" class="node">
<title>Node10</title>
<g id="a_node10"><a xlink:href="_move__always_8hpp.html" target="_top" xlink:title="Randomly selects moves to always perform on triangulations.">
<polygon fill="white" stroke="black" points="459.79,-56.5 459.79,-75.5 602.79,-75.5 602.79,-56.5 459.79,-56.5"/>
<text text-anchor="middle" x="531.29" y="-63.5" font-family="Helvetica,sans-Serif" font-size="10.00">include/Move_always.hpp</text>
</a>
</g>
</g>
<!-- Node5&#45;&gt;Node10 -->
<g id="edge9" class="edge">
<title>Node5&#45;&gt;Node10</title>
<path fill="none" stroke="midnightblue" d="M531.29,-107.82C531.29,-97 531.29,-83.9 531.29,-75.51"/>
<polygon fill="midnightblue" stroke="midnightblue" points="527.79,-107.98 531.29,-117.98 534.79,-107.98 527.79,-107.98"/>
</g>
<!-- Node7 -->
<g id="node7" class="node">
<title>Node7</title>
<g id="a_node7"><a xlink:href="cdt-opt_8cpp.html" target="_top" xlink:title="Outputs values to determine optimizations.">
<polygon fill="white" stroke="black" points="406.79,-0.5 406.79,-19.5 495.79,-19.5 495.79,-0.5 406.79,-0.5"/>
<text text-anchor="middle" x="451.29" y="-7.5" font-family="Helvetica,sans-Serif" font-size="10.00">src/cdt&#45;opt.cpp</text>
</a>
</g>
</g>
<!-- Node6&#45;&gt;Node7 -->
<g id="edge6" class="edge">
<title>Node6&#45;&gt;Node7</title>
<path fill="none" stroke="midnightblue" d="M348.74,-52.64C373.7,-42.5 408.37,-28.43 430.32,-19.52"/>
<polygon fill="midnightblue" stroke="midnightblue" points="347.32,-49.44 339.37,-56.44 349.95,-55.92 347.32,-49.44"/>
</g>
<!-- Node8 -->
<g id="node8" class="node">
<title>Node8</title>
<g id="a_node8"><a xlink:href="cdt_8cpp.html" target="_top" xlink:title="The main executable.">
<polygon fill="white" stroke="black" points="160.79,-0.5 160.79,-19.5 229.79,-19.5 229.79,-0.5 160.79,-0.5"/>
<text text-anchor="middle" x="195.29" y="-7.5" font-family="Helvetica,sans-Serif" font-size="10.00">src/cdt.cpp</text>
</a>
</g>
</g>
<!-- Node6&#45;&gt;Node8 -->
<g id="edge7" class="edge">
<title>Node6&#45;&gt;Node8</title>
<path fill="none" stroke="midnightblue" d="M289.52,-52.37C266.49,-42.26 234.81,-28.35 214.69,-19.52"/>
<polygon fill="midnightblue" stroke="midnightblue" points="288.24,-55.63 298.8,-56.44 291.06,-49.22 288.24,-55.63"/>
</g>
<!-- Node9 -->
<g id="node9" class="node">
<title>Node9</title>
<g id="a_node9"><a xlink:href="_metropolis__test_8cpp.html" target="_top" xlink:title="Tests for the Metropolis&#45;Hastings algorithm.">
<polygon fill="white" stroke="black" points="248.29,-0.5 248.29,-19.5 388.29,-19.5 388.29,-0.5 248.29,-0.5"/>
<text text-anchor="middle" x="318.29" y="-7.5" font-family="Helvetica,sans-Serif" font-size="10.00">tests/Metropolis_test.cpp</text>
</a>
</g>
</g>
<!-- Node6&#45;&gt;Node9 -->
<g id="edge8" class="edge">
<title>Node6&#45;&gt;Node9</title>
<path fill="none" stroke="midnightblue" d="M318.29,-45.8C318.29,-36.91 318.29,-26.78 318.29,-19.75"/>
<polygon fill="midnightblue" stroke="midnightblue" points="314.79,-46.08 318.29,-56.08 321.79,-46.08 314.79,-46.08"/>
</g>
<!-- Node10&#45;&gt;Node7 -->
<g id="edge10" class="edge">
<title>Node10&#45;&gt;Node7</title>
<path fill="none" stroke="midnightblue" d="M509.99,-50.62C495.38,-40.76 476.47,-27.99 464.12,-19.65"/>
<polygon fill="midnightblue" stroke="midnightblue" points="508.19,-53.63 518.44,-56.32 512.11,-47.83 508.19,-53.63"/>
</g>
<!-- Node11 -->
<g id="node11" class="node">
<title>Node11</title>
<g id="a_node11"><a xlink:href="_move__always__test_8cpp.html" target="_top" xlink:title="Tests for the Move Always algorithm.">
<polygon fill="white" stroke="black" points="513.79,-0.5 513.79,-19.5 668.79,-19.5 668.79,-0.5 513.79,-0.5"/>
<text text-anchor="middle" x="591.29" y="-7.5" font-family="Helvetica,sans-Serif" font-size="10.00">tests/Move_always_test.cpp</text>
</a>
</g>
</g>
<!-- Node10&#45;&gt;Node11 -->
<g id="edge11" class="edge">
<title>Node10&#45;&gt;Node11</title>
<path fill="none" stroke="midnightblue" d="M548.48,-49.54C559.17,-39.91 572.55,-27.87 581.48,-19.83"/>
<polygon fill="midnightblue" stroke="midnightblue" points="546.03,-47.03 540.93,-56.32 550.71,-52.24 546.03,-47.03"/>
</g>
<!-- Node17&#45;&gt;Node6 -->
<g id="edge18" class="edge">
<title>Node17&#45;&gt;Node6</title>
<path fill="none" stroke="midnightblue" d="M56.69,-309.21C42.08,-302.11 26.75,-291.68 18.29,-277 -3.45,-239.26 -7.56,-214.77 17.29,-179 70.51,-102.42 182.67,-78.1 254.04,-70.44"/>
<polygon fill="midnightblue" stroke="midnightblue" points="55.54,-312.53 66.1,-313.4 58.39,-306.14 55.54,-312.53"/>
</g>
<!-- Node18 -->
<g id="node18" class="node">
<title>Node18</title>
<g id="a_node18"><a xlink:href="_s3_action__test_8cpp.html" target="_top" xlink:title="Tests for the S3 action functions.">
<polygon fill="white" stroke="black" points="27.79,-252 27.79,-271 158.79,-271 158.79,-252 27.79,-252"/>
<text text-anchor="middle" x="93.29" y="-259" font-family="Helvetica,sans-Serif" font-size="10.00">tests/S3Action_test.cpp</text>
</a>
</g>
</g>
<!-- Node17&#45;&gt;Node18 -->
<g id="edge19" class="edge">
<title>Node17&#45;&gt;Node18</title>
<path fill="none" stroke="midnightblue" d="M93.29,-303.32C93.29,-292.5 93.29,-279.4 93.29,-271.01"/>
<polygon fill="midnightblue" stroke="midnightblue" points="89.79,-303.48 93.29,-313.48 96.79,-303.48 89.79,-303.48"/>
</g>
<!-- Node20 -->
<g id="node20" class="node">
<title>Node20</title>
<g id="a_node20"><a xlink:href="_foliated__triangulation_8hpp.html" target="_top" xlink:title="Create foliated spherical triangulations.">
<polygon fill="white" stroke="black" points="476.29,-436.5 476.29,-455.5 658.29,-455.5 658.29,-436.5 476.29,-436.5"/>
<text text-anchor="middle" x="567.29" y="-443.5" font-family="Helvetica,sans-Serif" font-size="10.00">include/Foliated_triangulation.hpp</text>
</a>
</g>
</g>
<!-- Node19&#45;&gt;Node20 -->
<g id="edge21" class="edge">
<title>Node19&#45;&gt;Node20</title>
<path fill="none" stroke="midnightblue" d="M567.29,-482.29C567.29,-472.86 567.29,-462.65 567.29,-455.66"/>
<polygon fill="midnightblue" stroke="midnightblue" points="563.79,-482.4 567.29,-492.4 570.79,-482.4 563.79,-482.4"/>
</g>
<!-- Node21 -->
<g id="node21" class="node">
<title>Node21</title>
<g id="a_node21"><a xlink:href="_geometry_8hpp.html" target="_top" xlink:title="Geometric quantities of Manifold used by MoveAlgorithm.">
<polygon fill="white" stroke="black" points="708.79,-375 708.79,-394 831.79,-394 831.79,-375 708.79,-375"/>
<text text-anchor="middle" x="770.29" y="-382" font-family="Helvetica,sans-Serif" font-size="10.00">include/Geometry.hpp</text>
</a>
</g>
</g>
<!-- Node20&#45;&gt;Node21 -->
<g id="edge22" class="edge">
<title>Node20&#45;&gt;Node21</title>
<path fill="none" stroke="midnightblue" d="M606.18,-433.6C645.63,-422.04 705.79,-404.41 741.26,-394.01"/>
<polygon fill="midnightblue" stroke="midnightblue" points="604.99,-430.3 596.38,-436.48 606.96,-437.02 604.99,-430.3"/>
</g>
<!-- Node29 -->
<g id="node29" class="node">
<title>Node29</title>
<g id="a_node29"><a xlink:href="_foliated__triangulation__test_8cpp.html" target="_top" xlink:title="Tests for foliated triangulations.">
<polygon fill="white" stroke="black" points="376.29,-369.5 376.29,-399.5 526.29,-399.5 526.29,-369.5 376.29,-369.5"/>
<text text-anchor="start" x="384.29" y="-387.5" font-family="Helvetica,sans-Serif" font-size="10.00">tests/Foliated_triangulation</text>
<text text-anchor="middle" x="451.29" y="-376.5" font-family="Helvetica,sans-Serif" font-size="10.00">_test.cpp</text>
</a>
</g>
</g>
<!-- Node20&#45;&gt;Node29 -->
<g id="edge33" class="edge">
<title>Node20&#45;&gt;Node29</title>
<path fill="none" stroke="midnightblue" d="M541.57,-431.81C522.9,-422.23 497.67,-409.29 478.63,-399.52"/>
<polygon fill="midnightblue" stroke="midnightblue" points="540.18,-435.03 550.67,-436.48 543.37,-428.8 540.18,-435.03"/>
</g>
<!-- Node30 -->
<g id="node30" class="node">
<title>Node30</title>
<g id="a_node30"><a xlink:href="_tetrahedron__test_8cpp.html" target="_top" xlink:title="Tests for 3D triangulated and foliated tetrahedrons.">
<polygon fill="white" stroke="black" points="544.29,-375 544.29,-394 690.29,-394 690.29,-375 544.29,-375"/>
<text text-anchor="middle" x="617.29" y="-382" font-family="Helvetica,sans-Serif" font-size="10.00">tests/Tetrahedron_test.cpp</text>
</a>
</g>
</g>
<!-- Node20&#45;&gt;Node30 -->
<g id="edge34" class="edge">
<title>Node20&#45;&gt;Node30</title>
<path fill="none" stroke="midnightblue" d="M581.02,-428.67C590.44,-417.45 602.57,-403.02 610.14,-394.01"/>
<polygon fill="midnightblue" stroke="midnightblue" points="578.21,-426.57 574.46,-436.48 583.57,-431.07 578.21,-426.57"/>
</g>
<!-- Node22 -->
<g id="node22" class="node">
<title>Node22</title>
<g id="a_node22"><a xlink:href="_manifold_8hpp.html" target="_top" xlink:title="Data structures for manifolds.">
<polygon fill="white" stroke="black" points="584.79,-313.5 584.79,-332.5 703.79,-332.5 703.79,-313.5 584.79,-313.5"/>
<text text-anchor="middle" x="644.29" y="-320.5" font-family="Helvetica,sans-Serif" font-size="10.00">include/Manifold.hpp</text>
</a>
</g>
</g>
<!-- Node21&#45;&gt;Node22 -->
<g id="edge23" class="edge">
<title>Node21&#45;&gt;Node22</title>
<path fill="none" stroke="midnightblue" d="M743.13,-370.67C718.68,-359.13 683.44,-342.49 662.31,-332.51"/>
<polygon fill="midnightblue" stroke="midnightblue" points="741.7,-373.87 752.24,-374.98 744.69,-367.54 741.7,-373.87"/>
</g>
<!-- Node28 -->
<g id="node28" class="node">
<title>Node28</title>
<g id="a_node28"><a xlink:href="_geometry__test_8cpp.html" target="_top" xlink:title="Tests of new geometry data structure.">
<polygon fill="white" stroke="black" points="721.79,-313.5 721.79,-332.5 858.79,-332.5 858.79,-313.5 721.79,-313.5"/>
<text text-anchor="middle" x="790.29" y="-320.5" font-family="Helvetica,sans-Serif" font-size="10.00">tests/Geometry_test.cpp</text>
</a>
</g>
</g>
<!-- Node21&#45;&gt;Node28 -->
<g id="edge32" class="edge">
<title>Node21&#45;&gt;Node28</title>
<path fill="none" stroke="midnightblue" d="M776.46,-365.16C780.12,-354.27 784.58,-340.99 787.43,-332.51"/>
<polygon fill="midnightblue" stroke="midnightblue" points="773.03,-364.38 773.16,-374.98 779.66,-366.61 773.03,-364.38"/>
</g>
<!-- Node22&#45;&gt;Node3 -->
<g id="edge24" class="edge">
<title>Node22&#45;&gt;Node3</title>
<path fill="none" stroke="midnightblue" d="M594.98,-311.29C550.2,-301.57 483.87,-287.16 434.87,-276.52"/>
<polygon fill="midnightblue" stroke="midnightblue" points="594.52,-314.77 605.04,-313.48 596.01,-307.93 594.52,-314.77"/>
</g>
<!-- Node22&#45;&gt;Node16 -->
<g id="edge28" class="edge">
<title>Node22&#45;&gt;Node16</title>
<path fill="none" stroke="midnightblue" d="M574.52,-314.93C504.05,-307.34 392.2,-294.03 296.29,-277 293.38,-276.48 290.39,-275.92 287.39,-275.33"/>
<polygon fill="midnightblue" stroke="midnightblue" points="574.3,-318.43 584.61,-316.01 575.04,-311.47 574.3,-318.43"/>
</g>
<!-- Node22&#45;&gt;Node18 -->
<g id="edge29" class="edge">
<title>Node22&#45;&gt;Node18</title>
<path fill="none" stroke="midnightblue" d="M574.58,-317.53C481.61,-311.09 312.03,-297.64 168.29,-277 157,-275.38 144.84,-273.21 133.65,-271.05"/>
<polygon fill="midnightblue" stroke="midnightblue" points="574.49,-321.03 584.71,-318.23 574.97,-314.05 574.49,-321.03"/>
</g>
<!-- Node23 -->
<g id="node23" class="node">
<title>Node23</title>
<g id="a_node23"><a xlink:href="cdt-viewer_8cpp.html" target="_top" xlink:title="Views 3D spacetimes.">
<polygon fill="white" stroke="black" points="998.29,-252 998.29,-271 1102.29,-271 1102.29,-252 998.29,-252"/>
<text text-anchor="middle" x="1050.29" y="-259" font-family="Helvetica,sans-Serif" font-size="10.00">src/cdt&#45;viewer.cpp</text>
</a>
</g>
</g>
<!-- Node22&#45;&gt;Node23 -->
<g id="edge25" class="edge">
<title>Node22&#45;&gt;Node23</title>
<path fill="none" stroke="midnightblue" d="M714.06,-312.9C814.8,-299.77 989.08,-277.04 989.29,-277 998.39,-275.33 1008.18,-273.17 1017.18,-271.03"/>
<polygon fill="midnightblue" stroke="midnightblue" points="713.41,-309.46 703.95,-314.22 714.32,-316.4 713.41,-309.46"/>
</g>
<!-- Node24 -->
<g id="node24" class="node">
<title>Node24</title>
<g id="a_node24"><a xlink:href="initialize_8cpp.html" target="_top" xlink:title="Generates initial spacetimes.">
<polygon fill="white" stroke="black" points="884.29,-252 884.29,-271 980.29,-271 980.29,-252 884.29,-252"/>
<text text-anchor="middle" x="932.29" y="-259" font-family="Helvetica,sans-Serif" font-size="10.00">src/initialize.cpp</text>
</a>
</g>
</g>
<!-- Node22&#45;&gt;Node24 -->
<g id="edge26" class="edge">
<title>Node22&#45;&gt;Node24</title>
<path fill="none" stroke="midnightblue" d="M702.2,-311.66C749.04,-303.07 816.61,-290.17 875.29,-277 883.36,-275.19 892.03,-273.07 900.12,-271.02"/>
<polygon fill="midnightblue" stroke="midnightblue" points="701.45,-308.24 692.24,-313.48 702.71,-315.13 701.45,-308.24"/>
</g>
<!-- Node25 -->
<g id="node25" class="node">
<title>Node25</title>
<g id="a_node25"><a xlink:href="_manifold__test_8cpp.html" target="_top" xlink:title="Tests of new manifold data structure.">
<polygon fill="white" stroke="black" points="452.79,-252 452.79,-271 583.79,-271 583.79,-252 452.79,-252"/>
<text text-anchor="middle" x="518.29" y="-259" font-family="Helvetica,sans-Serif" font-size="10.00">tests/Manifold_test.cpp</text>
</a>
</g>
</g>
<!-- Node22&#45;&gt;Node25 -->
<g id="edge27" class="edge">
<title>Node22&#45;&gt;Node25</title>
<path fill="none" stroke="midnightblue" d="M617.13,-309.17C592.68,-297.63 557.44,-280.99 536.31,-271.01"/>
<polygon fill="midnightblue" stroke="midnightblue" points="615.7,-312.37 626.24,-313.48 618.69,-306.04 615.7,-312.37"/>
</g>
<!-- Node26 -->
<g id="node26" class="node">
<title>Node26</title>
<g id="a_node26"><a xlink:href="_utilities__test_8cpp.html" target="_top" xlink:title="Tests on utility functions.">
<polygon fill="white" stroke="black" points="602.29,-252 602.29,-271 728.29,-271 728.29,-252 602.29,-252"/>
<text text-anchor="middle" x="665.29" y="-259" font-family="Helvetica,sans-Serif" font-size="10.00">tests/Utilities_test.cpp</text>
</a>
</g>
</g>
<!-- Node22&#45;&gt;Node26 -->
<g id="edge30" class="edge">
<title>Node22&#45;&gt;Node26</title>
<path fill="none" stroke="midnightblue" d="M650.65,-304C654.51,-293.05 659.27,-279.57 662.29,-271.01"/>
<polygon fill="midnightblue" stroke="midnightblue" points="647.33,-302.88 647.3,-313.48 653.93,-305.21 647.33,-302.88"/>
</g>
<!-- Node27 -->
<g id="node27" class="node">
<title>Node27</title>
<g id="a_node27"><a xlink:href="_vertex__test_8cpp.html" target="_top" xlink:title="Tests on points and vertices in foliated Delaunay triangulations.">
<polygon fill="white" stroke="black" points="746.79,-252 746.79,-271 865.79,-271 865.79,-252 746.79,-252"/>
<text text-anchor="middle" x="806.29" y="-259" font-family="Helvetica,sans-Serif" font-size="10.00">tests/Vertex_test.cpp</text>
</a>
</g>
</g>
<!-- Node22&#45;&gt;Node27 -->
<g id="edge31" class="edge">
<title>Node22&#45;&gt;Node27</title>
<path fill="none" stroke="midnightblue" d="M677.15,-309.93C708.64,-298.37 755.36,-281.21 783.13,-271.01"/>
<polygon fill="midnightblue" stroke="midnightblue" points="675.69,-306.74 667.5,-313.48 678.1,-313.31 675.69,-306.74"/>
</g>
<!-- Node31&#45;&gt;Node2 -->
<g id="edge37" class="edge">
<title>Node31&#45;&gt;Node2</title>
<path fill="none" stroke="midnightblue" d="M412.74,-492.11C396.39,-480.67 374.07,-465.05 360.45,-455.51"/>
<polygon fill="midnightblue" stroke="midnightblue" points="410.92,-495.11 421.12,-497.98 414.93,-489.37 410.92,-495.11"/>
</g>
<!-- Node31&#45;&gt;Node20 -->
<g id="edge36" class="edge">
<title>Node31&#45;&gt;Node20</title>
<path fill="none" stroke="midnightblue" d="M461.83,-493.83C487.85,-482.28 525.56,-465.53 548.13,-455.51"/>
<polygon fill="midnightblue" stroke="midnightblue" points="460.21,-490.72 452.49,-497.98 463.05,-497.12 460.21,-490.72"/>
</g>
<!-- Node31&#45;&gt;Node23 -->
<g id="edge38" class="edge">
<title>Node31&#45;&gt;Node23</title>
<path fill="none" stroke="midnightblue" d="M481.83,-495.81C487.71,-494.52 493.64,-493.23 499.29,-492 653.12,-458.62 699.33,-467.99 841.29,-400 922.77,-360.98 1009.82,-294.6 1039.6,-271.07"/>
<polygon fill="midnightblue" stroke="midnightblue" points="481.04,-492.4 472.03,-497.96 482.54,-499.23 481.04,-492.4"/>
</g>
</g>
</svg>
        <g id="navigator" transform="translate(0 0)" fill="#404254">
                <rect fill="#f2f5e9" fill-opacity="0.5" stroke="#606060" stroke-width=".5" x="0" y="0" width="60" height="60"/>
                <use id="zoomplus" xlink:href="#zoomPlus" x="17" y="9" onmousedown="handleZoom(evt,'in')"/>
                <use id="zoomminus" xlink:href="#zoomMin" x="42" y="9" onmousedown="handleZoom(evt,'out')"/>
                <use id="reset" xlink:href="#resetDef" x="30" y="36" onmousedown="handleReset()"/>
                <g id="arrowUp" xlink:href="#dirArrow" transform="translate(30 24)" onmousedown="handlePan(0,-1)">
                  <use xlink:href="#rim" fill="#404040">
                        <set attributeName="fill" to="#808080" begin="arrowUp.mouseover" end="arrowUp.mouseout"/>
                  </use>
                  <path fill="none" stroke="white" stroke-width="1.5" d="M0,-3.0v7 M-2.5,-0.5L0,-3.0L2.5,-0.5"/>
                </g>
                <g id="arrowRight" xlink:href="#dirArrow" transform="rotate(90) translate(36 -43)" onmousedown="handlePan(1,0)">
                  <use xlink:href="#rim" fill="#404040">
                        <set attributeName="fill" to="#808080" begin="arrowRight.mouseover" end="arrowRight.mouseout"/>
                  </use>
                  <path fill="none" stroke="white" stroke-width="1.5" d="M0,-3.0v7 M-2.5,-0.5L0,-3.0L2.5,-0.5"/>
                </g>
                <g id="arrowDown" xlink:href="#dirArrow" transform="rotate(180) translate(-30 -48)" onmousedown="handlePan(0,1)">
                  <use xlink:href="#rim" fill="#404040">
                        <set attributeName="fill" to="#808080" begin="arrowDown.mouseover" end="arrowDown.mouseout"/>
                  </use>
                  <path fill="none" stroke="white" stroke-width="1.5" d="M0,-3.0v7 M-2.5,-0.5L0,-3.0L2.5,-0.5"/>
                </g>
                <g id="arrowLeft" xlink:href="#dirArrow" transform="rotate(270) translate(-36 17)" onmousedown="handlePan(-1,0)">
                  <use xlink:href="#rim" fill="#404040">
                        <set attributeName="fill" to="#808080" begin="arrowLeft.mouseover" end="arrowLeft.mouseout"/>
                  </use>
                  <path fill="none" stroke="white" stroke-width="1.5" d="M0,-3.0v7 M-2.5,-0.5L0,-3.0L2.5,-0.5"/>
                </g>
        </g>
        <svg viewBox="0 0 15 15" width="100%" height="30px" preserveAspectRatio="xMaxYMin meet">
         <g id="arrow_out" transform="scale(0.3 0.3)">
          <a xlink:href="_settings_8hpp__dep__incl_org.svg" target="_base">
           <rect id="button" ry="5" rx="5" y="6" x="6" height="38" width="38"
                fill="#f2f5e9" fill-opacity="0.5" stroke="#606060" stroke-width="1.0"/>
           <path id="arrow"
             d="M 11.500037,31.436501 C 11.940474,20.09759 22.043105,11.32322 32.158766,21.979434 L 37.068811,17.246167 C 37.068811,17.246167 37.088388,32 37.088388,32 L 22.160133,31.978069 C 22.160133,31.978069 26.997745,27.140456 26.997745,27.140456 C 18.528582,18.264221 13.291696,25.230495 11.500037,31.436501 z"
             style="fill:#404040;"/>
          </a>
         </g>
        </svg>
</svg>
