<?xml version="1.0" encoding="UTF-8" standalone="no"?>
<!DOCTYPE svg PUBLIC "-//W3C//DTD SVG 1.1//EN"
 "http://www.w3.org/Graphics/SVG/1.1/DTD/svg11.dtd">
<!-- Generated by graphviz version 2.43.0 (0)
 -->
<!-- Title: include/Settings.hpp Pages: 1 -->
<svg width="1066pt" height="643pt"
 viewBox="0.00 0.00 1065.50 643.00" xmlns="http://www.w3.org/2000/svg" xmlns:xlink="http://www.w3.org/1999/xlink">
<g id="graph0" class="graph" transform="scale(1 1) rotate(0) translate(4 639)">
<title>include/Settings.hpp</title>
<polygon fill="white" stroke="transparent" points="-4,4 -4,-639 1061.5,-639 1061.5,4 -4,4"/>
<!-- Node1 -->
<g id="node1" class="node">
<title>Node1</title>
<g id="a_node1"><a xlink:title="Global integer and precision settings.">
<polygon fill="#bfbfbf" stroke="black" points="597.5,-615.5 597.5,-634.5 713.5,-634.5 713.5,-615.5 597.5,-615.5"/>
<text text-anchor="middle" x="655.5" y="-622.5" font-family="Helvetica,sans-Serif" font-size="10.00">include/Settings.hpp</text>
</a>
</g>
</g>
<!-- Node2 -->
<g id="node2" class="node">
<title>Node2</title>
<g id="a_node2"><a xlink:href="_triangulation__traits_8hpp.html" target="_top" xlink:title="Traits class for particular uses of CGAL.">
<polygon fill="white" stroke="black" points="377.5,-548.5 377.5,-578.5 495.5,-578.5 495.5,-548.5 377.5,-548.5"/>
<text text-anchor="start" x="385.5" y="-566.5" font-family="Helvetica,sans-Serif" font-size="10.00">include/Triangulation</text>
<text text-anchor="middle" x="436.5" y="-555.5" font-family="Helvetica,sans-Serif" font-size="10.00">_traits.hpp</text>
</a>
</g>
</g>
<!-- Node1&#45;&gt;Node2 -->
<g id="edge1" class="edge">
<title>Node1&#45;&gt;Node2</title>
<path fill="none" stroke="midnightblue" d="M614.03,-612.73C578.29,-603.02 526.53,-588.96 488.11,-578.52"/>
<polygon fill="midnightblue" stroke="midnightblue" points="613.55,-616.23 624.12,-615.48 615.39,-609.48 613.55,-616.23"/>
</g>
<!-- Node29 -->
<g id="node29" class="node">
<title>Node29</title>
<g id="a_node29"><a xlink:href="_utilities_8hpp.html" target="_top" xlink:title="Utility functions.">
<polygon fill="white" stroke="black" points="513.5,-554 513.5,-573 627.5,-573 627.5,-554 513.5,-554"/>
<text text-anchor="middle" x="570.5" y="-561" font-family="Helvetica,sans-Serif" font-size="10.00">include/Utilities.hpp</text>
</a>
</g>
</g>
<!-- Node1&#45;&gt;Node29 -->
<g id="edge29" class="edge">
<title>Node1&#45;&gt;Node29</title>
<path fill="none" stroke="midnightblue" d="M634.95,-609.61C618.6,-598.17 596.28,-582.55 582.66,-573.01"/>
<polygon fill="midnightblue" stroke="midnightblue" points="633.12,-612.61 643.32,-615.48 637.14,-606.87 633.12,-612.61"/>
</g>
<!-- Node30 -->
<g id="node30" class="node">
<title>Node30</title>
<g id="a_node30"><a xlink:href="_s3_action_8hpp.html" target="_top" xlink:title="Calculate S3 bulk actions on 3D Delaunay Triangulations.">
<polygon fill="white" stroke="black" points="711,-369.5 711,-388.5 830,-388.5 830,-369.5 711,-369.5"/>
<text text-anchor="middle" x="770.5" y="-376.5" font-family="Helvetica,sans-Serif" font-size="10.00">include/S3Action.hpp</text>
</a>
</g>
</g>
<!-- Node1&#45;&gt;Node30 -->
<g id="edge31" class="edge">
<title>Node1&#45;&gt;Node30</title>
<path fill="none" stroke="midnightblue" d="M658.68,-605.33C661.7,-589.67 666.91,-566.89 674.5,-548 700.55,-483.17 747.64,-412.78 764.39,-388.67"/>
<polygon fill="midnightblue" stroke="midnightblue" points="655.21,-604.86 656.87,-615.33 662.1,-606.11 655.21,-604.86"/>
</g>
<!-- Node31 -->
<g id="node31" class="node">
<title>Node31</title>
<g id="a_node31"><a xlink:href="cdt-gv_8cpp.html" target="_top" xlink:title="A pipeline from CDT++ to Geomview , a visualizer.">
<polygon fill="white" stroke="black" points="683.5,-554 683.5,-573 767.5,-573 767.5,-554 683.5,-554"/>
<text text-anchor="middle" x="725.5" y="-561" font-family="Helvetica,sans-Serif" font-size="10.00">src/cdt&#45;gv.cpp</text>
</a>
</g>
</g>
<!-- Node1&#45;&gt;Node31 -->
<g id="edge34" class="edge">
<title>Node1&#45;&gt;Node31</title>
<path fill="none" stroke="midnightblue" d="M673.18,-608.97C686.57,-597.59 704.48,-582.37 715.49,-573.01"/>
<polygon fill="midnightblue" stroke="midnightblue" points="670.88,-606.33 665.53,-615.48 675.42,-611.67 670.88,-606.33"/>
</g>
<!-- Node32 -->
<g id="node32" class="node">
<title>Node32</title>
<g id="a_node32"><a xlink:href="_settings__test_8cpp.html" target="_top" xlink:title="Global settings on integer types and MPFR precision.">
<polygon fill="white" stroke="black" points="785.5,-554 785.5,-573 913.5,-573 913.5,-554 785.5,-554"/>
<text text-anchor="middle" x="849.5" y="-561" font-family="Helvetica,sans-Serif" font-size="10.00">tests/Settings_test.cpp</text>
</a>
</g>
</g>
<!-- Node1&#45;&gt;Node32 -->
<g id="edge35" class="edge">
<title>Node1&#45;&gt;Node32</title>
<path fill="none" stroke="midnightblue" d="M692.9,-612.53C730.61,-600.96 787.93,-583.38 821.76,-573.01"/>
<polygon fill="midnightblue" stroke="midnightblue" points="691.83,-609.2 683.3,-615.48 693.88,-615.89 691.83,-609.2"/>
</g>
<!-- Node3 -->
<g id="node3" class="node">
<title>Node3</title>
<g id="a_node3"><a xlink:href="_foliated__triangulation_8hpp.html" target="_top" xlink:title="Create foliated spherical triangulations.">
<polygon fill="white" stroke="black" points="345.5,-492.5 345.5,-511.5 527.5,-511.5 527.5,-492.5 345.5,-492.5"/>
<text text-anchor="middle" x="436.5" y="-499.5" font-family="Helvetica,sans-Serif" font-size="10.00">include/Foliated_triangulation.hpp</text>
</a>
</g>
</g>
<!-- Node2&#45;&gt;Node3 -->
<g id="edge2" class="edge">
<title>Node2&#45;&gt;Node3</title>
<path fill="none" stroke="midnightblue" d="M436.5,-538.29C436.5,-528.86 436.5,-518.65 436.5,-511.66"/>
<polygon fill="midnightblue" stroke="midnightblue" points="433,-538.4 436.5,-548.4 440,-538.4 433,-538.4"/>
</g>
<!-- Node4 -->
<g id="node4" class="node">
<title>Node4</title>
<g id="a_node4"><a xlink:href="_geometry_8hpp.html" target="_top" xlink:title="Geometric quantities of Manifold used by MoveAlgorithm.">
<polygon fill="white" stroke="black" points="440,-431 440,-450 563,-450 563,-431 440,-431"/>
<text text-anchor="middle" x="501.5" y="-438" font-family="Helvetica,sans-Serif" font-size="10.00">include/Geometry.hpp</text>
</a>
</g>
</g>
<!-- Node3&#45;&gt;Node4 -->
<g id="edge3" class="edge">
<title>Node3&#45;&gt;Node4</title>
<path fill="none" stroke="midnightblue" d="M453.27,-485.65C465.66,-474.31 482.08,-459.28 492.2,-450.01"/>
<polygon fill="midnightblue" stroke="midnightblue" points="450.83,-483.14 445.81,-492.48 455.55,-488.3 450.83,-483.14"/>
</g>
<!-- Node27 -->
<g id="node27" class="node">
<title>Node27</title>
<g id="a_node27"><a xlink:href="_foliated__triangulation__test_8cpp.html" target="_top" xlink:title="Tests for foliated triangulations.">
<polygon fill="white" stroke="black" points="107.5,-425.5 107.5,-455.5 257.5,-455.5 257.5,-425.5 107.5,-425.5"/>
<text text-anchor="start" x="115.5" y="-443.5" font-family="Helvetica,sans-Serif" font-size="10.00">tests/Foliated_triangulation</text>
<text text-anchor="middle" x="182.5" y="-432.5" font-family="Helvetica,sans-Serif" font-size="10.00">_test.cpp</text>
</a>
</g>
</g>
<!-- Node3&#45;&gt;Node27 -->
<g id="edge27" class="edge">
<title>Node3&#45;&gt;Node27</title>
<path fill="none" stroke="midnightblue" d="M390.26,-490.17C348.76,-480.45 287.59,-466.12 242.36,-455.52"/>
<polygon fill="midnightblue" stroke="midnightblue" points="389.57,-493.6 400.11,-492.48 391.17,-486.79 389.57,-493.6"/>
</g>
<!-- Node28 -->
<g id="node28" class="node">
<title>Node28</title>
<g id="a_node28"><a xlink:href="_tetrahedron__test_8cpp.html" target="_top" xlink:title="Tests for 3D triangulated and foliated tetrahedrons.">
<polygon fill="white" stroke="black" points="275.5,-431 275.5,-450 421.5,-450 421.5,-431 275.5,-431"/>
<text text-anchor="middle" x="348.5" y="-438" font-family="Helvetica,sans-Serif" font-size="10.00">tests/Tetrahedron_test.cpp</text>
</a>
</g>
</g>
<!-- Node3&#45;&gt;Node28 -->
<g id="edge28" class="edge">
<title>Node3&#45;&gt;Node28</title>
<path fill="none" stroke="midnightblue" d="M415.22,-486.61C398.3,-475.17 375.19,-459.55 361.08,-450.01"/>
<polygon fill="midnightblue" stroke="midnightblue" points="413.65,-489.77 423.89,-492.48 417.57,-483.97 413.65,-489.77"/>
</g>
<!-- Node5 -->
<g id="node5" class="node">
<title>Node5</title>
<g id="a_node5"><a xlink:href="_manifold_8hpp.html" target="_top" xlink:title="Data structures for manifolds.">
<polygon fill="white" stroke="black" points="442,-369.5 442,-388.5 561,-388.5 561,-369.5 442,-369.5"/>
<text text-anchor="middle" x="501.5" y="-376.5" font-family="Helvetica,sans-Serif" font-size="10.00">include/Manifold.hpp</text>
</a>
</g>
</g>
<!-- Node4&#45;&gt;Node5 -->
<g id="edge4" class="edge">
<title>Node4&#45;&gt;Node5</title>
<path fill="none" stroke="midnightblue" d="M501.5,-420.82C501.5,-410 501.5,-396.9 501.5,-388.51"/>
<polygon fill="midnightblue" stroke="midnightblue" points="498,-420.98 501.5,-430.98 505,-420.98 498,-420.98"/>
</g>
<!-- Node26 -->
<g id="node26" class="node">
<title>Node26</title>
<g id="a_node26"><a xlink:href="_geometry__test_8cpp.html" target="_top" xlink:title="Tests of new geometry data structure.">
<polygon fill="white" stroke="black" points="287,-369.5 287,-388.5 424,-388.5 424,-369.5 287,-369.5"/>
<text text-anchor="middle" x="355.5" y="-376.5" font-family="Helvetica,sans-Serif" font-size="10.00">tests/Geometry_test.cpp</text>
</a>
</g>
</g>
<!-- Node4&#45;&gt;Node26 -->
<g id="edge26" class="edge">
<title>Node4&#45;&gt;Node26</title>
<path fill="none" stroke="midnightblue" d="M471.15,-427.13C442.79,-415.57 401.19,-398.62 376.38,-388.51"/>
<polygon fill="midnightblue" stroke="midnightblue" points="470,-430.44 480.58,-430.98 472.64,-423.96 470,-430.44"/>
</g>
<!-- Node6 -->
<g id="node6" class="node">
<title>Node6</title>
<g id="a_node6"><a xlink:href="_move__tracker_8hpp.html" target="_top" xlink:title="Track ergodic moves.">
<polygon fill="white" stroke="black" points="431,-313.5 431,-332.5 572,-332.5 572,-313.5 431,-313.5"/>
<text text-anchor="middle" x="501.5" y="-320.5" font-family="Helvetica,sans-Serif" font-size="10.00">include/Move_tracker.hpp</text>
</a>
</g>
</g>
<!-- Node5&#45;&gt;Node6 -->
<g id="edge5" class="edge">
<title>Node5&#45;&gt;Node6</title>
<path fill="none" stroke="midnightblue" d="M501.5,-358.8C501.5,-349.91 501.5,-339.78 501.5,-332.75"/>
<polygon fill="midnightblue" stroke="midnightblue" points="498,-359.08 501.5,-369.08 505,-359.08 498,-359.08"/>
</g>
<!-- Node21 -->
<g id="node21" class="node">
<title>Node21</title>
<g id="a_node21"><a xlink:href="initialize_8cpp.html" target="_top" xlink:title="Generates initial spacetimes.">
<polygon fill="white" stroke="black" points="590.5,-313.5 590.5,-332.5 686.5,-332.5 686.5,-313.5 590.5,-313.5"/>
<text text-anchor="middle" x="638.5" y="-320.5" font-family="Helvetica,sans-Serif" font-size="10.00">src/initialize.cpp</text>
</a>
</g>
</g>
<!-- Node5&#45;&gt;Node21 -->
<g id="edge21" class="edge">
<title>Node5&#45;&gt;Node21</title>
<path fill="none" stroke="midnightblue" d="M532.52,-365.77C558.26,-355.63 594.19,-341.47 616.89,-332.52"/>
<polygon fill="midnightblue" stroke="midnightblue" points="531.23,-362.52 523.21,-369.44 533.79,-369.03 531.23,-362.52"/>
</g>
<!-- Node22 -->
<g id="node22" class="node">
<title>Node22</title>
<g id="a_node22"><a xlink:href="_manifold__test_8cpp.html" target="_top" xlink:title="Tests of new manifold data structure.">
<polygon fill="white" stroke="black" points="0,-313.5 0,-332.5 131,-332.5 131,-313.5 0,-313.5"/>
<text text-anchor="middle" x="65.5" y="-320.5" font-family="Helvetica,sans-Serif" font-size="10.00">tests/Manifold_test.cpp</text>
</a>
</g>
</g>
<!-- Node5&#45;&gt;Node22 -->
<g id="edge22" class="edge">
<title>Node5&#45;&gt;Node22</title>
<path fill="none" stroke="midnightblue" d="M431.58,-368.89C319.97,-354.8 202.44,-340.5 131.15,-331.9"/>
<polygon fill="midnightblue" stroke="midnightblue" points="431.3,-372.38 441.66,-370.17 432.18,-365.44 431.3,-372.38"/>
</g>
<!-- Node23 -->
<g id="node23" class="node">
<title>Node23</title>
<g id="a_node23"><a xlink:href="_s3_action__test_8cpp.html" target="_top" xlink:title="Tests for the S3 action functions.">
<polygon fill="white" stroke="black" points="705,-313.5 705,-332.5 836,-332.5 836,-313.5 705,-313.5"/>
<text text-anchor="middle" x="770.5" y="-320.5" font-family="Helvetica,sans-Serif" font-size="10.00">tests/S3Action_test.cpp</text>
</a>
</g>
</g>
<!-- Node5&#45;&gt;Node23 -->
<g id="edge23" class="edge">
<title>Node5&#45;&gt;Node23</title>
<path fill="none" stroke="midnightblue" d="M553.94,-367.47C604.78,-357.27 680.94,-341.98 728.08,-332.52"/>
<polygon fill="midnightblue" stroke="midnightblue" points="553.24,-364.04 544.12,-369.44 554.62,-370.91 553.24,-364.04"/>
</g>
<!-- Node24 -->
<g id="node24" class="node">
<title>Node24</title>
<g id="a_node24"><a xlink:href="_utilities__test_8cpp.html" target="_top" xlink:title="Tests on utility functions.">
<polygon fill="white" stroke="black" points="149.5,-313.5 149.5,-332.5 275.5,-332.5 275.5,-313.5 149.5,-313.5"/>
<text text-anchor="middle" x="212.5" y="-320.5" font-family="Helvetica,sans-Serif" font-size="10.00">tests/Utilities_test.cpp</text>
</a>
</g>
</g>
<!-- Node5&#45;&gt;Node24 -->
<g id="edge24" class="edge">
<title>Node5&#45;&gt;Node24</title>
<path fill="none" stroke="midnightblue" d="M445.84,-367.6C391.23,-357.4 308.93,-342.02 258.08,-332.52"/>
<polygon fill="midnightblue" stroke="midnightblue" points="445.23,-371.05 455.71,-369.44 446.52,-364.17 445.23,-371.05"/>
</g>
<!-- Node25 -->
<g id="node25" class="node">
<title>Node25</title>
<g id="a_node25"><a xlink:href="_vertex__test_8cpp.html" target="_top" xlink:title="Tests on vertices in Delaunay triangulations.">
<polygon fill="white" stroke="black" points="294,-313.5 294,-332.5 413,-332.5 413,-313.5 294,-313.5"/>
<text text-anchor="middle" x="353.5" y="-320.5" font-family="Helvetica,sans-Serif" font-size="10.00">tests/Vertex_test.cpp</text>
</a>
</g>
</g>
<!-- Node5&#45;&gt;Node25 -->
<g id="edge25" class="edge">
<title>Node5&#45;&gt;Node25</title>
<path fill="none" stroke="midnightblue" d="M468.35,-365.91C440.53,-355.75 401.48,-341.51 376.84,-332.52"/>
<polygon fill="midnightblue" stroke="midnightblue" points="467.46,-369.3 478.05,-369.44 469.85,-362.73 467.46,-369.3"/>
</g>
<!-- Node7 -->
<g id="node7" class="node">
<title>Node7</title>
<g id="a_node7"><a xlink:href="_ergodic__moves__3_8hpp.html" target="_top" xlink:title="Pachner moves on 2+1 dimensional foliated Delaunay triangulations.">
<polygon fill="white" stroke="black" points="464,-246.5 464,-276.5 593,-276.5 593,-246.5 464,-246.5"/>
<text text-anchor="start" x="472" y="-264.5" font-family="Helvetica,sans-Serif" font-size="10.00">include/Ergodic_moves</text>
<text text-anchor="middle" x="528.5" y="-253.5" font-family="Helvetica,sans-Serif" font-size="10.00">_3.hpp</text>
</a>
</g>
</g>
<!-- Node6&#45;&gt;Node7 -->
<g id="edge6" class="edge">
<title>Node6&#45;&gt;Node7</title>
<path fill="none" stroke="midnightblue" d="M509.62,-304.1C513.63,-295.27 518.4,-284.77 522.14,-276.52"/>
<polygon fill="midnightblue" stroke="midnightblue" points="506.31,-302.92 505.37,-313.48 512.69,-305.82 506.31,-302.92"/>
</g>
<!-- Node20 -->
<g id="node20" class="node">
<title>Node20</title>
<g id="a_node20"><a xlink:href="_move__tracker__test_8cpp.html" target="_top" xlink:title="Tests of MoveTracker, that is, that moves are tracked properly.">
<polygon fill="white" stroke="black" points="335.5,-246.5 335.5,-276.5 445.5,-276.5 445.5,-246.5 335.5,-246.5"/>
<text text-anchor="start" x="343.5" y="-264.5" font-family="Helvetica,sans-Serif" font-size="10.00">tests/Move_tracker</text>
<text text-anchor="middle" x="390.5" y="-253.5" font-family="Helvetica,sans-Serif" font-size="10.00">_test.cpp</text>
</a>
</g>
</g>
<!-- Node6&#45;&gt;Node20 -->
<g id="edge20" class="edge">
<title>Node6&#45;&gt;Node20</title>
<path fill="none" stroke="midnightblue" d="M476.39,-308.54C458.58,-298.99 434.71,-286.2 416.66,-276.52"/>
<polygon fill="midnightblue" stroke="midnightblue" points="475.13,-311.84 485.6,-313.48 478.44,-305.67 475.13,-311.84"/>
</g>
<!-- Node8 -->
<g id="node8" class="node">
<title>Node8</title>
<g id="a_node8"><a xlink:href="_move__command_8hpp.html" target="_top" xlink:title="Do ergodic moves using the Command pattern.">
<polygon fill="white" stroke="black" points="626,-185 626,-204 783,-204 783,-185 626,-185"/>
<text text-anchor="middle" x="704.5" y="-192" font-family="Helvetica,sans-Serif" font-size="10.00">include/Move_command.hpp</text>
</a>
</g>
</g>
<!-- Node7&#45;&gt;Node8 -->
<g id="edge7" class="edge">
<title>Node7&#45;&gt;Node8</title>
<path fill="none" stroke="midnightblue" d="M576.47,-242.78C610.6,-230.18 654.93,-213.81 681.47,-204.01"/>
<polygon fill="midnightblue" stroke="midnightblue" points="574.86,-239.65 566.69,-246.4 577.28,-246.21 574.86,-239.65"/>
</g>
<!-- Node17 -->
<g id="node17" class="node">
<title>Node17</title>
<g id="a_node17"><a xlink:href="_apply__move__test_8cpp.html" target="_top" xlink:title="Applying ergodic moves to manifolds.">
<polygon fill="white" stroke="black" points="200,-185 200,-204 349,-204 349,-185 200,-185"/>
<text text-anchor="middle" x="274.5" y="-192" font-family="Helvetica,sans-Serif" font-size="10.00">tests/Apply_move_test.cpp</text>
</a>
</g>
</g>
<!-- Node7&#45;&gt;Node17 -->
<g id="edge17" class="edge">
<title>Node7&#45;&gt;Node17</title>
<path fill="none" stroke="midnightblue" d="M463.98,-243.99C414.21,-231.25 347.37,-214.15 307.83,-204.03"/>
<polygon fill="midnightblue" stroke="midnightblue" points="463.14,-247.39 473.7,-246.48 464.88,-240.61 463.14,-247.39"/>
</g>
<!-- Node18 -->
<g id="node18" class="node">
<title>Node18</title>
<g id="a_node18"><a xlink:href="_ergodic__moves__3__test_8cpp.html" target="_top" xlink:title="Tests for ergodic moves on foliated triangulations.">
<polygon fill="white" stroke="black" points="367.5,-179.5 367.5,-209.5 485.5,-209.5 485.5,-179.5 367.5,-179.5"/>
<text text-anchor="start" x="375.5" y="-197.5" font-family="Helvetica,sans-Serif" font-size="10.00">tests/Ergodic_moves</text>
<text text-anchor="middle" x="426.5" y="-186.5" font-family="Helvetica,sans-Serif" font-size="10.00">_3_test.cpp</text>
</a>
</g>
</g>
<!-- Node7&#45;&gt;Node18 -->
<g id="edge18" class="edge">
<title>Node7&#45;&gt;Node18</title>
<path fill="none" stroke="midnightblue" d="M497.92,-241.02C482.05,-230.9 463.02,-218.77 448.59,-209.58"/>
<polygon fill="midnightblue" stroke="midnightblue" points="496.05,-243.97 506.37,-246.4 499.82,-238.07 496.05,-243.97"/>
</g>
<!-- Node19 -->
<g id="node19" class="node">
<title>Node19</title>
<g id="a_node19"><a xlink:href="_function__ref__test_8cpp_source.html" target="_top" xlink:title=" ">
<polygon fill="white" stroke="black" points="503.5,-179.5 503.5,-209.5 607.5,-209.5 607.5,-179.5 503.5,-179.5"/>
<text text-anchor="start" x="511.5" y="-197.5" font-family="Helvetica,sans-Serif" font-size="10.00">tests/Function_ref</text>
<text text-anchor="middle" x="555.5" y="-186.5" font-family="Helvetica,sans-Serif" font-size="10.00">_test.cpp</text>
</a>
</g>
</g>
<!-- Node7&#45;&gt;Node19 -->
<g id="edge19" class="edge">
<title>Node7&#45;&gt;Node19</title>
<path fill="none" stroke="midnightblue" d="M538.27,-236.99C542.08,-227.8 546.33,-217.58 549.65,-209.58"/>
<polygon fill="midnightblue" stroke="midnightblue" points="534.96,-235.82 534.36,-246.4 541.43,-238.5 534.96,-235.82"/>
</g>
<!-- Node9 -->
<g id="node9" class="node">
<title>Node9</title>
<g id="a_node9"><a xlink:href="_move__strategy_8hpp.html" target="_top" xlink:title="Template class for move algorithms (strategies) on manifolds.">
<polygon fill="white" stroke="black" points="687,-118 687,-137 834,-137 834,-118 687,-118"/>
<text text-anchor="middle" x="760.5" y="-125" font-family="Helvetica,sans-Serif" font-size="10.00">include/Move_strategy.hpp</text>
</a>
</g>
</g>
<!-- Node8&#45;&gt;Node9 -->
<g id="edge8" class="edge">
<title>Node8&#45;&gt;Node9</title>
<path fill="none" stroke="midnightblue" d="M718.6,-177.13C729.55,-164.42 744.3,-147.3 753.07,-137.13"/>
<polygon fill="midnightblue" stroke="midnightblue" points="715.93,-174.87 712.05,-184.73 721.23,-179.44 715.93,-174.87"/>
</g>
<!-- Node16 -->
<g id="node16" class="node">
<title>Node16</title>
<g id="a_node16"><a xlink:href="_move__command__test_8cpp.html" target="_top" xlink:title="Tests of MoveCommand, that is, that moves are handled properly.">
<polygon fill="white" stroke="black" points="544,-112.5 544,-142.5 669,-142.5 669,-112.5 544,-112.5"/>
<text text-anchor="start" x="552" y="-130.5" font-family="Helvetica,sans-Serif" font-size="10.00">tests/Move_command</text>
<text text-anchor="middle" x="606.5" y="-119.5" font-family="Helvetica,sans-Serif" font-size="10.00">_test.cpp</text>
</a>
</g>
</g>
<!-- Node8&#45;&gt;Node16 -->
<g id="edge16" class="edge">
<title>Node8&#45;&gt;Node16</title>
<path fill="none" stroke="midnightblue" d="M682.87,-179.15C666.47,-168.27 644.05,-153.4 627.74,-142.59"/>
<polygon fill="midnightblue" stroke="midnightblue" points="681.02,-182.12 691.28,-184.73 684.88,-176.29 681.02,-182.12"/>
</g>
<!-- Node10 -->
<g id="node10" class="node">
<title>Node10</title>
<g id="a_node10"><a xlink:href="_metropolis_8hpp.html" target="_top" xlink:title="Perform Metropolis&#45;Hastings algorithm on Delaunay Triangulations.">
<polygon fill="white" stroke="black" points="800.5,-56.5 800.5,-75.5 928.5,-75.5 928.5,-56.5 800.5,-56.5"/>
<text text-anchor="middle" x="864.5" y="-63.5" font-family="Helvetica,sans-Serif" font-size="10.00">include/Metropolis.hpp</text>
</a>
</g>
</g>
<!-- Node9&#45;&gt;Node10 -->
<g id="edge9" class="edge">
<title>Node9&#45;&gt;Node10</title>
<path fill="none" stroke="midnightblue" d="M784.27,-112.9C804.38,-101.4 832.57,-85.27 849.63,-75.51"/>
<polygon fill="midnightblue" stroke="midnightblue" points="782.34,-109.97 775.4,-117.98 785.82,-116.05 782.34,-109.97"/>
</g>
<!-- Node14 -->
<g id="node14" class="node">
<title>Node14</title>
<g id="a_node14"><a xlink:href="_move__always_8hpp.html" target="_top" xlink:title="Randomly selects moves to always perform on triangulations.">
<polygon fill="white" stroke="black" points="639,-56.5 639,-75.5 782,-75.5 782,-56.5 639,-56.5"/>
<text text-anchor="middle" x="710.5" y="-63.5" font-family="Helvetica,sans-Serif" font-size="10.00">include/Move_always.hpp</text>
</a>
</g>
</g>
<!-- Node9&#45;&gt;Node14 -->
<g id="edge13" class="edge">
<title>Node9&#45;&gt;Node14</title>
<path fill="none" stroke="midnightblue" d="M746.78,-110.17C737.35,-98.95 725.22,-84.52 717.65,-75.51"/>
<polygon fill="midnightblue" stroke="midnightblue" points="744.22,-112.57 753.34,-117.98 749.58,-108.07 744.22,-112.57"/>
</g>
<!-- Node11 -->
<g id="node11" class="node">
<title>Node11</title>
<g id="a_node11"><a xlink:href="cdt-opt_8cpp.html" target="_top" xlink:title="Outputs values to determine optimizations.">
<polygon fill="white" stroke="black" points="723,-0.5 723,-19.5 812,-19.5 812,-0.5 723,-0.5"/>
<text text-anchor="middle" x="767.5" y="-7.5" font-family="Helvetica,sans-Serif" font-size="10.00">src/cdt&#45;opt.cpp</text>
</a>
</g>
</g>
<!-- Node10&#45;&gt;Node11 -->
<g id="edge10" class="edge">
<title>Node10&#45;&gt;Node11</title>
<path fill="none" stroke="midnightblue" d="M840.16,-51.45C822.26,-41.48 798.45,-28.23 783.05,-19.65"/>
<polygon fill="midnightblue" stroke="midnightblue" points="838.48,-54.52 848.92,-56.32 841.88,-48.4 838.48,-54.52"/>
</g>
<!-- Node12 -->
<g id="node12" class="node">
<title>Node12</title>
<g id="a_node12"><a xlink:href="cdt_8cpp.html" target="_top" xlink:title="The main executable.">
<polygon fill="white" stroke="black" points="830,-0.5 830,-19.5 899,-19.5 899,-0.5 830,-0.5"/>
<text text-anchor="middle" x="864.5" y="-7.5" font-family="Helvetica,sans-Serif" font-size="10.00">src/cdt.cpp</text>
</a>
</g>
</g>
<!-- Node10&#45;&gt;Node12 -->
<g id="edge11" class="edge">
<title>Node10&#45;&gt;Node12</title>
<path fill="none" stroke="midnightblue" d="M864.5,-45.8C864.5,-36.91 864.5,-26.78 864.5,-19.75"/>
<polygon fill="midnightblue" stroke="midnightblue" points="861,-46.08 864.5,-56.08 868,-46.08 861,-46.08"/>
</g>
<!-- Node13 -->
<g id="node13" class="node">
<title>Node13</title>
<g id="a_node13"><a xlink:href="_metropolis__test_8cpp.html" target="_top" xlink:title="Tests for the Metropolis&#45;Hastings algorithm.">
<polygon fill="white" stroke="black" points="917.5,-0.5 917.5,-19.5 1057.5,-19.5 1057.5,-0.5 917.5,-0.5"/>
<text text-anchor="middle" x="987.5" y="-7.5" font-family="Helvetica,sans-Serif" font-size="10.00">tests/Metropolis_test.cpp</text>
</a>
</g>
</g>
<!-- Node10&#45;&gt;Node13 -->
<g id="edge12" class="edge">
<title>Node10&#45;&gt;Node13</title>
<path fill="none" stroke="midnightblue" d="M893.27,-52.37C916.31,-42.26 947.98,-28.35 968.1,-19.52"/>
<polygon fill="midnightblue" stroke="midnightblue" points="891.74,-49.22 883.99,-56.44 894.55,-55.63 891.74,-49.22"/>
</g>
<!-- Node14&#45;&gt;Node11 -->
<g id="edge14" class="edge">
<title>Node14&#45;&gt;Node11</title>
<path fill="none" stroke="midnightblue" d="M727.12,-49.25C737.23,-39.67 749.78,-27.79 758.18,-19.83"/>
<polygon fill="midnightblue" stroke="midnightblue" points="724.51,-46.91 719.66,-56.32 729.32,-51.99 724.51,-46.91"/>
</g>
<!-- Node15 -->
<g id="node15" class="node">
<title>Node15</title>
<g id="a_node15"><a xlink:href="_move__always__test_8cpp_source.html" target="_top" xlink:title=" ">
<polygon fill="white" stroke="black" points="550,-0.5 550,-19.5 705,-19.5 705,-0.5 550,-0.5"/>
<text text-anchor="middle" x="627.5" y="-7.5" font-family="Helvetica,sans-Serif" font-size="10.00">tests/Move_always_test.cpp</text>
</a>
</g>
</g>
<!-- Node14&#45;&gt;Node15 -->
<g id="edge15" class="edge">
<title>Node14&#45;&gt;Node15</title>
<path fill="none" stroke="midnightblue" d="M688.4,-50.62C673.24,-40.76 653.62,-27.99 640.8,-19.65"/>
<polygon fill="midnightblue" stroke="midnightblue" points="686.87,-53.8 697.16,-56.32 690.69,-47.94 686.87,-53.8"/>
</g>
<!-- Node29&#45;&gt;Node3 -->
<g id="edge30" class="edge">
<title>Node29&#45;&gt;Node3</title>
<path fill="none" stroke="midnightblue" d="M541.96,-549.83C515.95,-538.28 478.24,-521.53 455.66,-511.51"/>
<polygon fill="midnightblue" stroke="midnightblue" points="540.74,-553.12 551.3,-553.98 543.58,-546.72 540.74,-553.12"/>
</g>
<!-- Node30&#45;&gt;Node10 -->
<g id="edge32" class="edge">
<title>Node30&#45;&gt;Node10</title>
<path fill="none" stroke="midnightblue" d="M803.55,-365.05C818.35,-357.7 834.84,-347.12 845.5,-333 865.06,-307.1 864.5,-294.95 864.5,-262.5 864.5,-262.5 864.5,-262.5 864.5,-193.5 864.5,-149.14 864.5,-96.02 864.5,-75.59"/>
<polygon fill="midnightblue" stroke="midnightblue" points="801.74,-362.03 794.14,-369.41 804.69,-368.38 801.74,-362.03"/>
</g>
<!-- Node30&#45;&gt;Node23 -->
<g id="edge33" class="edge">
<title>Node30&#45;&gt;Node23</title>
<path fill="none" stroke="midnightblue" d="M770.5,-358.8C770.5,-349.91 770.5,-339.78 770.5,-332.75"/>
<polygon fill="midnightblue" stroke="midnightblue" points="767,-359.08 770.5,-369.08 774,-359.08 767,-359.08"/>
</g>
</g>
</svg>
