<?xml version="1.0" encoding="UTF-8" standalone="no"?>
<!DOCTYPE svg PUBLIC "-//W3C//DTD SVG 1.1//EN"
 "http://www.w3.org/Graphics/SVG/1.1/DTD/svg11.dtd">
<!-- Generated by graphviz version 2.43.0 (0)
 -->
<!-- Title: include/Settings.hpp Pages: 1 -->
<!--zoomable 598 -->
<svg id="main" version="1.1" xmlns="http://www.w3.org/2000/svg" xmlns:xlink="http://www.w3.org/1999/xlink" xml:space="preserve" onload="init(evt)">
<style type="text/css"><![CDATA[
.edge:hover path { stroke: red; }
.edge:hover polygon { stroke: red; fill: red; }
]]></style>
<script type="text/javascript"><![CDATA[
var edges = document.getElementsByTagName('g');
if (edges && edges.length) {
  for (var i=0;i<edges.length;i++) {
    if (edges[i].id.substr(0,4)=='edge') {
      edges[i].setAttribute('class','edge');
    }
  }
}
]]></script>
        <defs>
                <circle id="rim" cx="0" cy="0" r="7"/>
                <circle id="rim2" cx="0" cy="0" r="3.5"/>
                <g id="zoomPlus">
                        <use xlink:href="#rim" fill="#404040">
                                <set attributeName="fill" to="#808080" begin="zoomplus.mouseover" end="zoomplus.mouseout"/>
                        </use>
                        <path d="M-4,0h8M0,-4v8" fill="none" stroke="white" stroke-width="1.5" pointer-events="none"/>
                </g>
                <g id="zoomMin">
                        <use xlink:href="#rim" fill="#404040">
                                <set attributeName="fill" to="#808080" begin="zoomminus.mouseover" end="zoomminus.mouseout"/>
                        </use>
                        <path d="M-4,0h8" fill="none" stroke="white" stroke-width="1.5" pointer-events="none"/>
                </g>
                <g id="dirArrow">
                        <path fill="none" stroke="white" stroke-width="1.5" d="M0,-3.0v7 M-2.5,-0.5L0,-3.0L2.5,-0.5"/>
                </g>
               <g id="resetDef">
                       <use xlink:href="#rim2" fill="#404040">
                               <set attributeName="fill" to="#808080" begin="reset.mouseover" end="reset.mouseout"/>
                       </use>
               </g>
        </defs>

<script type="text/javascript">
var viewWidth = 954;
var viewHeight = 598;
var sectionId = 'dynsection-1';
</script>
<script xlink:href="svgpan.js"/>
<svg id="graph" class="graph">
<g id="viewport">
<title>include/Settings.hpp</title>
<polygon fill="white" stroke="transparent" points="-4,4 -4,-594 949.71,-594 949.71,4 -4,4"/>
<!-- Node1 -->
<g id="node1" class="node">
<title>Node1</title>
<g id="a_node1"><a xlink:title="Global integer and precision settings.">
<polygon fill="#bfbfbf" stroke="black" points="517.21,-570.5 517.21,-589.5 633.21,-589.5 633.21,-570.5 517.21,-570.5"/>
<text text-anchor="middle" x="575.21" y="-577.5" font-family="Helvetica,sans-Serif" font-size="10.00">include/Settings.hpp</text>
</a>
</g>
</g>
<!-- Node2 -->
<g id="node2" class="node">
<title>Node2</title>
<g id="a_node2"><a xlink:href="_triangulation__traits_8hpp.html" target="_top" xlink:title="Traits class for particular uses of CGAL.">
<polygon fill="white" stroke="black" points="382.21,-503.5 382.21,-533.5 500.21,-533.5 500.21,-503.5 382.21,-503.5"/>
<text text-anchor="start" x="390.21" y="-521.5" font-family="Helvetica,sans-Serif" font-size="10.00">include/Triangulation</text>
<text text-anchor="middle" x="441.21" y="-510.5" font-family="Helvetica,sans-Serif" font-size="10.00">_traits.hpp</text>
</a>
</g>
</g>
<!-- Node1&#45;&gt;Node2 -->
<g id="edge1" class="edge">
<title>Node1&#45;&gt;Node2</title>
<path fill="none" stroke="midnightblue" d="M546.68,-566.33C525,-556.7 495.19,-543.47 472.79,-533.52"/>
<polygon fill="midnightblue" stroke="midnightblue" points="545.45,-569.62 556.01,-570.48 548.29,-563.22 545.45,-569.62"/>
</g>
<!-- Node28 -->
<g id="node28" class="node">
<title>Node28</title>
<g id="a_node28"><a xlink:href="_utilities_8hpp.html" target="_top" xlink:title="Utility functions.">
<polygon fill="white" stroke="black" points="518.21,-509 518.21,-528 632.21,-528 632.21,-509 518.21,-509"/>
<text text-anchor="middle" x="575.21" y="-516" font-family="Helvetica,sans-Serif" font-size="10.00">include/Utilities.hpp</text>
</a>
</g>
</g>
<!-- Node1&#45;&gt;Node28 -->
<g id="edge27" class="edge">
<title>Node1&#45;&gt;Node28</title>
<path fill="none" stroke="midnightblue" d="M575.21,-560.32C575.21,-549.5 575.21,-536.4 575.21,-528.01"/>
<polygon fill="midnightblue" stroke="midnightblue" points="571.71,-560.48 575.21,-570.48 578.71,-560.48 571.71,-560.48"/>
</g>
<!-- Node33 -->
<g id="node33" class="node">
<title>Node33</title>
<g id="a_node33"><a xlink:href="_s3_action_8hpp.html" target="_top" xlink:title="Calculate S3 bulk actions on 3D Delaunay Triangulations.">
<polygon fill="white" stroke="black" points="20.71,-324.5 20.71,-343.5 139.71,-343.5 139.71,-324.5 20.71,-324.5"/>
<text text-anchor="middle" x="80.21" y="-331.5" font-family="Helvetica,sans-Serif" font-size="10.00">include/S3Action.hpp</text>
</a>
</g>
</g>
<!-- Node1&#45;&gt;Node33 -->
<g id="edge35" class="edge">
<title>Node1&#45;&gt;Node33</title>
<path fill="none" stroke="midnightblue" d="M506.86,-570.35C466.76,-563.68 415.78,-552.39 373.21,-534 250.72,-481.07 125.36,-374.89 90.01,-343.76"/>
<polygon fill="midnightblue" stroke="midnightblue" points="506.38,-573.82 516.81,-571.95 507.49,-566.9 506.38,-573.82"/>
</g>
<!-- Node34 -->
<g id="node34" class="node">
<title>Node34</title>
<g id="a_node34"><a xlink:href="cdt-gv_8cpp.html" target="_top" xlink:title="A pipeline from CDT++ to Geomview , a visualizer.">
<polygon fill="white" stroke="black" points="650.21,-509 650.21,-528 734.21,-528 734.21,-509 650.21,-509"/>
<text text-anchor="middle" x="692.21" y="-516" font-family="Helvetica,sans-Serif" font-size="10.00">src/cdt&#45;gv.cpp</text>
</a>
</g>
</g>
<!-- Node1&#45;&gt;Node34 -->
<g id="edge38" class="edge">
<title>Node1&#45;&gt;Node34</title>
<path fill="none" stroke="midnightblue" d="M601.03,-565.87C623.71,-554.33 656.03,-537.9 675.48,-528.01"/>
<polygon fill="midnightblue" stroke="midnightblue" points="599.3,-562.82 591.97,-570.48 602.47,-569.06 599.3,-562.82"/>
</g>
<!-- Node35 -->
<g id="node35" class="node">
<title>Node35</title>
<g id="a_node35"><a xlink:href="_settings__test_8cpp.html" target="_top" xlink:title="Global settings on integer types and MPFR precision.">
<polygon fill="white" stroke="black" points="752.21,-509 752.21,-528 880.21,-528 880.21,-509 752.21,-509"/>
<text text-anchor="middle" x="816.21" y="-516" font-family="Helvetica,sans-Serif" font-size="10.00">tests/Settings_test.cpp</text>
</a>
</g>
</g>
<!-- Node1&#45;&gt;Node35 -->
<g id="edge39" class="edge">
<title>Node1&#45;&gt;Node35</title>
<path fill="none" stroke="midnightblue" d="M619.6,-568.04C666.38,-556.49 739.09,-538.54 781.74,-528.01"/>
<polygon fill="midnightblue" stroke="midnightblue" points="618.61,-564.68 609.74,-570.48 620.29,-571.48 618.61,-564.68"/>
</g>
<!-- Node3 -->
<g id="node3" class="node">
<title>Node3</title>
<g id="a_node3"><a xlink:href="_foliated__triangulation_8hpp.html" target="_top" xlink:title="Create foliated spherical triangulations.">
<polygon fill="white" stroke="black" points="417.21,-447.5 417.21,-466.5 599.21,-466.5 599.21,-447.5 417.21,-447.5"/>
<text text-anchor="middle" x="508.21" y="-454.5" font-family="Helvetica,sans-Serif" font-size="10.00">include/Foliated_triangulation.hpp</text>
</a>
</g>
</g>
<!-- Node2&#45;&gt;Node3 -->
<g id="edge2" class="edge">
<title>Node2&#45;&gt;Node3</title>
<path fill="none" stroke="midnightblue" d="M464.75,-496.6C476.32,-486.32 489.65,-474.48 498.46,-466.66"/>
<polygon fill="midnightblue" stroke="midnightblue" points="462.24,-494.14 457.09,-503.4 466.89,-499.38 462.24,-494.14"/>
</g>
<!-- Node4 -->
<g id="node4" class="node">
<title>Node4</title>
<g id="a_node4"><a xlink:href="_geometry_8hpp.html" target="_top" xlink:title="Geometric quantities of Manifold used by MoveAlgorithm.">
<polygon fill="white" stroke="black" points="291.71,-386 291.71,-405 414.71,-405 414.71,-386 291.71,-386"/>
<text text-anchor="middle" x="353.21" y="-393" font-family="Helvetica,sans-Serif" font-size="10.00">include/Geometry.hpp</text>
</a>
</g>
</g>
<!-- Node3&#45;&gt;Node4 -->
<g id="edge3" class="edge">
<title>Node3&#45;&gt;Node4</title>
<path fill="none" stroke="midnightblue" d="M476.38,-443.78C446.26,-432.22 401.83,-415.16 375.38,-405.01"/>
<polygon fill="midnightblue" stroke="midnightblue" points="475.41,-447.16 486,-447.48 477.92,-440.62 475.41,-447.16"/>
</g>
<!-- Node26 -->
<g id="node26" class="node">
<title>Node26</title>
<g id="a_node26"><a xlink:href="_foliated__triangulation__test_8cpp.html" target="_top" xlink:title="Tests for foliated triangulations.">
<polygon fill="white" stroke="black" points="433.21,-380.5 433.21,-410.5 583.21,-410.5 583.21,-380.5 433.21,-380.5"/>
<text text-anchor="start" x="441.21" y="-398.5" font-family="Helvetica,sans-Serif" font-size="10.00">tests/Foliated_triangulation</text>
<text text-anchor="middle" x="508.21" y="-387.5" font-family="Helvetica,sans-Serif" font-size="10.00">_test.cpp</text>
</a>
</g>
</g>
<!-- Node3&#45;&gt;Node26 -->
<g id="edge25" class="edge">
<title>Node3&#45;&gt;Node26</title>
<path fill="none" stroke="midnightblue" d="M508.21,-437.23C508.21,-428.59 508.21,-418.5 508.21,-410.52"/>
<polygon fill="midnightblue" stroke="midnightblue" points="504.71,-437.48 508.21,-447.48 511.71,-437.48 504.71,-437.48"/>
</g>
<!-- Node27 -->
<g id="node27" class="node">
<title>Node27</title>
<g id="a_node27"><a xlink:href="_tetrahedron__test_8cpp.html" target="_top" xlink:title="Tests for 3D triangulated and foliated tetrahedrons.">
<polygon fill="white" stroke="black" points="601.21,-386 601.21,-405 747.21,-405 747.21,-386 601.21,-386"/>
<text text-anchor="middle" x="674.21" y="-393" font-family="Helvetica,sans-Serif" font-size="10.00">tests/Tetrahedron_test.cpp</text>
</a>
</g>
</g>
<!-- Node3&#45;&gt;Node27 -->
<g id="edge26" class="edge">
<title>Node3&#45;&gt;Node27</title>
<path fill="none" stroke="midnightblue" d="M541.46,-444.08C573.72,-432.52 621.89,-415.25 650.47,-405.01"/>
<polygon fill="midnightblue" stroke="midnightblue" points="540.23,-440.81 531.99,-447.48 542.59,-447.4 540.23,-440.81"/>
</g>
<!-- Node5 -->
<g id="node5" class="node">
<title>Node5</title>
<g id="a_node5"><a xlink:href="_manifold_8hpp.html" target="_top" xlink:title="Data structures for manifolds.">
<polygon fill="white" stroke="black" points="381.71,-324.5 381.71,-343.5 500.71,-343.5 500.71,-324.5 381.71,-324.5"/>
<text text-anchor="middle" x="441.21" y="-331.5" font-family="Helvetica,sans-Serif" font-size="10.00">include/Manifold.hpp</text>
</a>
</g>
</g>
<!-- Node4&#45;&gt;Node5 -->
<g id="edge4" class="edge">
<title>Node4&#45;&gt;Node5</title>
<path fill="none" stroke="midnightblue" d="M374.49,-380.11C391.41,-368.67 414.52,-353.05 428.62,-343.51"/>
<polygon fill="midnightblue" stroke="midnightblue" points="372.14,-377.47 365.82,-385.98 376.06,-383.27 372.14,-377.47"/>
</g>
<!-- Node25 -->
<g id="node25" class="node">
<title>Node25</title>
<g id="a_node25"><a xlink:href="_geometry__test_8cpp.html" target="_top" xlink:title="Tests of new geometry data structure.">
<polygon fill="white" stroke="black" points="226.71,-324.5 226.71,-343.5 363.71,-343.5 363.71,-324.5 226.71,-324.5"/>
<text text-anchor="middle" x="295.21" y="-331.5" font-family="Helvetica,sans-Serif" font-size="10.00">tests/Geometry_test.cpp</text>
</a>
</g>
</g>
<!-- Node4&#45;&gt;Node25 -->
<g id="edge24" class="edge">
<title>Node4&#45;&gt;Node25</title>
<path fill="none" stroke="midnightblue" d="M337.61,-378.5C326.63,-367.24 312.37,-352.6 303.5,-343.51"/>
<polygon fill="midnightblue" stroke="midnightblue" points="335.41,-381.26 344.9,-385.98 340.43,-376.37 335.41,-381.26"/>
</g>
<!-- Node6 -->
<g id="node6" class="node">
<title>Node6</title>
<g id="a_node6"><a xlink:href="_ergodic__moves__3_8hpp.html" target="_top" xlink:title="Pachner moves on 2+1 dimensional foliated Delaunay triangulations.">
<polygon fill="white" stroke="black" points="445.71,-257.5 445.71,-287.5 574.71,-287.5 574.71,-257.5 445.71,-257.5"/>
<text text-anchor="start" x="453.71" y="-275.5" font-family="Helvetica,sans-Serif" font-size="10.00">include/Ergodic_moves</text>
<text text-anchor="middle" x="510.21" y="-264.5" font-family="Helvetica,sans-Serif" font-size="10.00">_3.hpp</text>
</a>
</g>
</g>
<!-- Node5&#45;&gt;Node6 -->
<g id="edge5" class="edge">
<title>Node5&#45;&gt;Node6</title>
<path fill="none" stroke="midnightblue" d="M458.7,-317.92C469.53,-308.58 483.35,-296.66 493.95,-287.52"/>
<polygon fill="midnightblue" stroke="midnightblue" points="456.38,-315.29 451.1,-324.48 460.95,-320.6 456.38,-315.29"/>
</g>
<!-- Node20 -->
<g id="node20" class="node">
<title>Node20</title>
<g id="a_node20"><a xlink:href="initialize_8cpp.html" target="_top" xlink:title="Generates initial spacetimes.">
<polygon fill="white" stroke="black" points="593.21,-263 593.21,-282 689.21,-282 689.21,-263 593.21,-263"/>
<text text-anchor="middle" x="641.21" y="-270" font-family="Helvetica,sans-Serif" font-size="10.00">src/initialize.cpp</text>
</a>
</g>
</g>
<!-- Node5&#45;&gt;Node20 -->
<g id="edge19" class="edge">
<title>Node5&#45;&gt;Node20</title>
<path fill="none" stroke="midnightblue" d="M479.77,-321.53C518.64,-309.96 577.73,-292.38 612.61,-282.01"/>
<polygon fill="midnightblue" stroke="midnightblue" points="478.45,-318.27 469.86,-324.48 480.45,-324.98 478.45,-318.27"/>
</g>
<!-- Node21 -->
<g id="node21" class="node">
<title>Node21</title>
<g id="a_node21"><a xlink:href="_manifold__test_8cpp.html" target="_top" xlink:title="Tests of new manifold data structure.">
<polygon fill="white" stroke="black" points="707.71,-263 707.71,-282 838.71,-282 838.71,-263 707.71,-263"/>
<text text-anchor="middle" x="773.21" y="-270" font-family="Helvetica,sans-Serif" font-size="10.00">tests/Manifold_test.cpp</text>
</a>
</g>
</g>
<!-- Node5&#45;&gt;Node21 -->
<g id="edge20" class="edge">
<title>Node5&#45;&gt;Node21</title>
<path fill="none" stroke="midnightblue" d="M501.56,-322.74C553.68,-313.81 630.97,-300.39 698.21,-288 708.38,-286.13 719.32,-284.05 729.61,-282.06"/>
<polygon fill="midnightblue" stroke="midnightblue" points="500.75,-319.33 491.49,-324.47 501.93,-326.23 500.75,-319.33"/>
</g>
<!-- Node22 -->
<g id="node22" class="node">
<title>Node22</title>
<g id="a_node22"><a xlink:href="_s3_action__test_8cpp.html" target="_top" xlink:title="Tests for the S3 action functions.">
<polygon fill="white" stroke="black" points="14.71,-263 14.71,-282 145.71,-282 145.71,-263 14.71,-263"/>
<text text-anchor="middle" x="80.21" y="-270" font-family="Helvetica,sans-Serif" font-size="10.00">tests/S3Action_test.cpp</text>
</a>
</g>
</g>
<!-- Node5&#45;&gt;Node22 -->
<g id="edge21" class="edge">
<title>Node5&#45;&gt;Node22</title>
<path fill="none" stroke="midnightblue" d="M373.18,-322.98C315.16,-314.27 229.59,-301.04 155.21,-288 144.76,-286.17 133.52,-284.07 123,-282.04"/>
<polygon fill="midnightblue" stroke="midnightblue" points="372.91,-326.48 383.32,-324.5 373.95,-319.56 372.91,-326.48"/>
</g>
<!-- Node23 -->
<g id="node23" class="node">
<title>Node23</title>
<g id="a_node23"><a xlink:href="_utilities__test_8cpp.html" target="_top" xlink:title="Tests on utility functions.">
<polygon fill="white" stroke="black" points="164.21,-263 164.21,-282 290.21,-282 290.21,-263 164.21,-263"/>
<text text-anchor="middle" x="227.21" y="-270" font-family="Helvetica,sans-Serif" font-size="10.00">tests/Utilities_test.cpp</text>
</a>
</g>
</g>
<!-- Node5&#45;&gt;Node23 -->
<g id="edge22" class="edge">
<title>Node5&#45;&gt;Node23</title>
<path fill="none" stroke="midnightblue" d="M400.74,-321.75C359.17,-310.19 295.37,-292.45 257.81,-282.01"/>
<polygon fill="midnightblue" stroke="midnightblue" points="399.98,-325.17 410.55,-324.48 401.85,-318.42 399.98,-325.17"/>
</g>
<!-- Node24 -->
<g id="node24" class="node">
<title>Node24</title>
<g id="a_node24"><a xlink:href="_vertex__test_8cpp.html" target="_top" xlink:title="Tests on vertices in Delaunay triangulations.">
<polygon fill="white" stroke="black" points="308.71,-263 308.71,-282 427.71,-282 427.71,-263 308.71,-263"/>
<text text-anchor="middle" x="368.21" y="-270" font-family="Helvetica,sans-Serif" font-size="10.00">tests/Vertex_test.cpp</text>
</a>
</g>
</g>
<!-- Node5&#45;&gt;Node24 -->
<g id="edge23" class="edge">
<title>Node5&#45;&gt;Node24</title>
<path fill="none" stroke="midnightblue" d="M422.77,-317.97C408.81,-306.59 390.13,-291.37 378.65,-282.01"/>
<polygon fill="midnightblue" stroke="midnightblue" points="420.79,-320.87 430.75,-324.48 425.21,-315.44 420.79,-320.87"/>
</g>
<!-- Node7 -->
<g id="node7" class="node">
<title>Node7</title>
<g id="a_node7"><a xlink:href="_move__command_8hpp.html" target="_top" xlink:title="Do ergodic moves using the Command pattern.">
<polygon fill="white" stroke="black" points="588.71,-196 588.71,-215 745.71,-215 745.71,-196 588.71,-196"/>
<text text-anchor="middle" x="667.21" y="-203" font-family="Helvetica,sans-Serif" font-size="10.00">include/Move_command.hpp</text>
</a>
</g>
</g>
<!-- Node6&#45;&gt;Node7 -->
<g id="edge6" class="edge">
<title>Node6&#45;&gt;Node7</title>
<path fill="none" stroke="midnightblue" d="M553.79,-253.46C584.12,-240.9 623.19,-224.72 646.66,-215.01"/>
<polygon fill="midnightblue" stroke="midnightblue" points="552.18,-250.34 544.28,-257.4 554.85,-256.8 552.18,-250.34"/>
</g>
<!-- Node17 -->
<g id="node17" class="node">
<title>Node17</title>
<g id="a_node17"><a xlink:href="_apply__move__test_8cpp.html" target="_top" xlink:title="Applying ergodic moves to manifolds.">
<polygon fill="white" stroke="black" points="162.71,-196 162.71,-215 311.71,-215 311.71,-196 162.71,-196"/>
<text text-anchor="middle" x="237.21" y="-203" font-family="Helvetica,sans-Serif" font-size="10.00">tests/Apply_move_test.cpp</text>
</a>
</g>
</g>
<!-- Node6&#45;&gt;Node17 -->
<g id="edge16" class="edge">
<title>Node6&#45;&gt;Node17</title>
<path fill="none" stroke="midnightblue" d="M441.53,-255.15C387.96,-242.39 315.71,-225.19 273.03,-215.03"/>
<polygon fill="midnightblue" stroke="midnightblue" points="440.77,-258.56 451.31,-257.48 442.39,-251.75 440.77,-258.56"/>
</g>
<!-- Node18 -->
<g id="node18" class="node">
<title>Node18</title>
<g id="a_node18"><a xlink:href="_ergodic__moves__3__test_8cpp.html" target="_top" xlink:title="Tests for ergodic moves on foliated triangulations.">
<polygon fill="white" stroke="black" points="330.21,-190.5 330.21,-220.5 448.21,-220.5 448.21,-190.5 330.21,-190.5"/>
<text text-anchor="start" x="338.21" y="-208.5" font-family="Helvetica,sans-Serif" font-size="10.00">tests/Ergodic_moves</text>
<text text-anchor="middle" x="389.21" y="-197.5" font-family="Helvetica,sans-Serif" font-size="10.00">_3_test.cpp</text>
</a>
</g>
</g>
<!-- Node6&#45;&gt;Node18 -->
<g id="edge17" class="edge">
<title>Node6&#45;&gt;Node18</title>
<path fill="none" stroke="midnightblue" d="M474.98,-252.57C455.95,-242.35 432.84,-229.94 415.41,-220.58"/>
<polygon fill="midnightblue" stroke="midnightblue" points="473.49,-255.75 483.95,-257.4 476.8,-249.58 473.49,-255.75"/>
</g>
<!-- Node19 -->
<g id="node19" class="node">
<title>Node19</title>
<g id="a_node19"><a xlink:href="_function__ref__test_8cpp_source.html" target="_top" xlink:title=" ">
<polygon fill="white" stroke="black" points="466.21,-190.5 466.21,-220.5 570.21,-220.5 570.21,-190.5 466.21,-190.5"/>
<text text-anchor="start" x="474.21" y="-208.5" font-family="Helvetica,sans-Serif" font-size="10.00">tests/Function_ref</text>
<text text-anchor="middle" x="518.21" y="-197.5" font-family="Helvetica,sans-Serif" font-size="10.00">_test.cpp</text>
</a>
</g>
</g>
<!-- Node6&#45;&gt;Node19 -->
<g id="edge18" class="edge">
<title>Node6&#45;&gt;Node19</title>
<path fill="none" stroke="midnightblue" d="M513.17,-247.4C514.29,-238.37 515.51,-228.41 516.48,-220.58"/>
<polygon fill="midnightblue" stroke="midnightblue" points="509.69,-247.04 511.94,-257.4 516.64,-247.9 509.69,-247.04"/>
</g>
<!-- Node8 -->
<g id="node8" class="node">
<title>Node8</title>
<g id="a_node8"><a xlink:href="_move__strategy_8hpp.html" target="_top" xlink:title="Template class for move algorithms (strategies) on manifolds.">
<polygon fill="white" stroke="black" points="597.71,-129 597.71,-148 744.71,-148 744.71,-129 597.71,-129"/>
<text text-anchor="middle" x="671.21" y="-136" font-family="Helvetica,sans-Serif" font-size="10.00">include/Move_strategy.hpp</text>
</a>
</g>
</g>
<!-- Node7&#45;&gt;Node8 -->
<g id="edge7" class="edge">
<title>Node7&#45;&gt;Node8</title>
<path fill="none" stroke="midnightblue" d="M668.38,-185.54C669.14,-173.17 670.09,-157.62 670.68,-148.13"/>
<polygon fill="midnightblue" stroke="midnightblue" points="664.87,-185.54 667.75,-195.73 671.86,-185.97 664.87,-185.54"/>
</g>
<!-- Node16 -->
<g id="node16" class="node">
<title>Node16</title>
<g id="a_node16"><a xlink:href="_move__command__test_8cpp.html" target="_top" xlink:title="Tests of MoveCommand, that is, that moves are handled properly.">
<polygon fill="white" stroke="black" points="454.71,-123.5 454.71,-153.5 579.71,-153.5 579.71,-123.5 454.71,-123.5"/>
<text text-anchor="start" x="462.71" y="-141.5" font-family="Helvetica,sans-Serif" font-size="10.00">tests/Move_command</text>
<text text-anchor="middle" x="517.21" y="-130.5" font-family="Helvetica,sans-Serif" font-size="10.00">_test.cpp</text>
</a>
</g>
</g>
<!-- Node7&#45;&gt;Node16 -->
<g id="edge15" class="edge">
<title>Node7&#45;&gt;Node16</title>
<path fill="none" stroke="midnightblue" d="M637.83,-191.77C612.44,-180.77 575.8,-164.89 549.58,-153.53"/>
<polygon fill="midnightblue" stroke="midnightblue" points="636.72,-195.1 647.29,-195.87 639.51,-188.68 636.72,-195.1"/>
</g>
<!-- Node9 -->
<g id="node9" class="node">
<title>Node9</title>
<g id="a_node9"><a xlink:href="_metropolis_8hpp.html" target="_top" xlink:title="Perform Metropolis&#45;Hastings algorithm on Delaunay Triangulations.">
<polygon fill="white" stroke="black" points="278.21,-62 278.21,-81 406.21,-81 406.21,-62 278.21,-62"/>
<text text-anchor="middle" x="342.21" y="-69" font-family="Helvetica,sans-Serif" font-size="10.00">include/Metropolis.hpp</text>
</a>
</g>
</g>
<!-- Node8&#45;&gt;Node9 -->
<g id="edge8" class="edge">
<title>Node8&#45;&gt;Node9</title>
<path fill="none" stroke="midnightblue" d="M617.85,-126.96C553.1,-114.16 445.18,-92.84 385.39,-81.03"/>
<polygon fill="midnightblue" stroke="midnightblue" points="617.37,-130.43 627.86,-128.94 618.73,-123.56 617.37,-130.43"/>
</g>
<!-- Node12 -->
<g id="node12" class="node">
<title>Node12</title>
<g id="a_node12"><a xlink:href="_move__always_8hpp.html" target="_top" xlink:title="Randomly selects moves to always perform on triangulations.">
<polygon fill="white" stroke="black" points="624.71,-62 624.71,-81 767.71,-81 767.71,-62 624.71,-62"/>
<text text-anchor="middle" x="696.21" y="-69" font-family="Helvetica,sans-Serif" font-size="10.00">include/Move_always.hpp</text>
</a>
</g>
</g>
<!-- Node8&#45;&gt;Node12 -->
<g id="edge11" class="edge">
<title>Node8&#45;&gt;Node12</title>
<path fill="none" stroke="midnightblue" d="M678.21,-119.29C683.01,-106.81 689.17,-90.81 692.89,-81.13"/>
<polygon fill="midnightblue" stroke="midnightblue" points="674.9,-118.14 674.58,-128.73 681.44,-120.66 674.9,-118.14"/>
</g>
<!-- Node10 -->
<g id="node10" class="node">
<title>Node10</title>
<g id="a_node10"><a xlink:href="cdt_8cpp.html" target="_top" xlink:title="The main executable.">
<polygon fill="white" stroke="black" points="381.71,-0.5 381.71,-19.5 450.71,-19.5 450.71,-0.5 381.71,-0.5"/>
<text text-anchor="middle" x="416.21" y="-7.5" font-family="Helvetica,sans-Serif" font-size="10.00">src/cdt.cpp</text>
</a>
</g>
</g>
<!-- Node9&#45;&gt;Node10 -->
<g id="edge9" class="edge">
<title>Node9&#45;&gt;Node10</title>
<path fill="none" stroke="midnightblue" d="M360.9,-55.47C375.05,-44.09 393.98,-28.87 405.63,-19.51"/>
<polygon fill="midnightblue" stroke="midnightblue" points="358.41,-52.98 352.81,-61.98 362.8,-58.44 358.41,-52.98"/>
</g>
<!-- Node11 -->
<g id="node11" class="node">
<title>Node11</title>
<g id="a_node11"><a xlink:href="_metropolis__test_8cpp.html" target="_top" xlink:title="Tests for the Metropolis&#45;Hastings algorithm.">
<polygon fill="white" stroke="black" points="223.21,-0.5 223.21,-19.5 363.21,-19.5 363.21,-0.5 223.21,-0.5"/>
<text text-anchor="middle" x="293.21" y="-7.5" font-family="Helvetica,sans-Serif" font-size="10.00">tests/Metropolis_test.cpp</text>
</a>
</g>
</g>
<!-- Node9&#45;&gt;Node11 -->
<g id="edge10" class="edge">
<title>Node9&#45;&gt;Node11</title>
<path fill="none" stroke="midnightblue" d="M328.76,-54.17C319.52,-42.95 307.63,-28.52 300.22,-19.51"/>
<polygon fill="midnightblue" stroke="midnightblue" points="326.13,-56.48 335.19,-61.98 331.53,-52.03 326.13,-56.48"/>
</g>
<!-- Node13 -->
<g id="node13" class="node">
<title>Node13</title>
<g id="a_node13"><a xlink:href="cdt-opt_8cpp.html" target="_top" xlink:title="Outputs values to determine optimizations.">
<polygon fill="white" stroke="black" points="796.71,-0.5 796.71,-19.5 885.71,-19.5 885.71,-0.5 796.71,-0.5"/>
<text text-anchor="middle" x="841.21" y="-7.5" font-family="Helvetica,sans-Serif" font-size="10.00">src/cdt&#45;opt.cpp</text>
</a>
</g>
</g>
<!-- Node12&#45;&gt;Node13 -->
<g id="edge12" class="edge">
<title>Node12&#45;&gt;Node13</title>
<path fill="none" stroke="midnightblue" d="M726.35,-58.13C754.52,-46.57 795.83,-29.62 820.47,-19.51"/>
<polygon fill="midnightblue" stroke="midnightblue" points="724.91,-54.94 716.98,-61.98 727.56,-61.42 724.91,-54.94"/>
</g>
<!-- Node14 -->
<g id="node14" class="node">
<title>Node14</title>
<g id="a_node14"><a xlink:href="_move__always__test_8cpp_source.html" target="_top" xlink:title=" ">
<polygon fill="white" stroke="black" points="623.71,-0.5 623.71,-19.5 778.71,-19.5 778.71,-0.5 623.71,-0.5"/>
<text text-anchor="middle" x="701.21" y="-7.5" font-family="Helvetica,sans-Serif" font-size="10.00">tests/Move_always_test.cpp</text>
</a>
</g>
</g>
<!-- Node12&#45;&gt;Node14 -->
<g id="edge13" class="edge">
<title>Node12&#45;&gt;Node14</title>
<path fill="none" stroke="midnightblue" d="M697.78,-51.82C698.69,-41 699.79,-27.9 700.49,-19.51"/>
<polygon fill="midnightblue" stroke="midnightblue" points="694.28,-51.72 696.93,-61.98 701.25,-52.3 694.28,-51.72"/>
</g>
<!-- Node15 -->
<g id="node15" class="node">
<title>Node15</title>
<g id="a_node15"><a xlink:href="_simulation_test_8cpp_source.html" target="_top" xlink:title=" ">
<polygon fill="white" stroke="black" points="469.21,-0.5 469.21,-19.5 605.21,-19.5 605.21,-0.5 469.21,-0.5"/>
<text text-anchor="middle" x="537.21" y="-7.5" font-family="Helvetica,sans-Serif" font-size="10.00">tests/SimulationTest.cpp</text>
</a>
</g>
</g>
<!-- Node12&#45;&gt;Node15 -->
<g id="edge14" class="edge">
<title>Node12&#45;&gt;Node15</title>
<path fill="none" stroke="midnightblue" d="M663.96,-58.43C633.06,-46.87 587.2,-29.71 559.95,-19.51"/>
<polygon fill="midnightblue" stroke="midnightblue" points="662.84,-61.75 673.43,-61.98 665.29,-55.19 662.84,-61.75"/>
</g>
<!-- Node28&#45;&gt;Node3 -->
<g id="edge28" class="edge">
<title>Node28&#45;&gt;Node3</title>
<path fill="none" stroke="midnightblue" d="M557.92,-502.15C545.15,-490.81 528.23,-475.78 517.79,-466.51"/>
<polygon fill="midnightblue" stroke="midnightblue" points="555.81,-504.95 565.61,-508.98 560.46,-499.72 555.81,-504.95"/>
</g>
<!-- Node29 -->
<g id="node29" class="node">
<title>Node29</title>
<g id="a_node29"><a xlink:href="_s3_triangulation_8hpp.html" target="_top" xlink:title="Functions on 3D Spherical Delaunay Triangulations.">
<polygon fill="white" stroke="black" points="733.71,-447.5 733.71,-466.5 884.71,-466.5 884.71,-447.5 733.71,-447.5"/>
<text text-anchor="middle" x="809.21" y="-454.5" font-family="Helvetica,sans-Serif" font-size="10.00">include/S3Triangulation.hpp</text>
</a>
</g>
</g>
<!-- Node28&#45;&gt;Node29 -->
<g id="edge29" class="edge">
<title>Node28&#45;&gt;Node29</title>
<path fill="none" stroke="midnightblue" d="M618.59,-506.47C664.03,-494.91 734.42,-477.02 775.74,-466.51"/>
<polygon fill="midnightblue" stroke="midnightblue" points="617.56,-503.12 608.74,-508.98 619.29,-509.9 617.56,-503.12"/>
</g>
<!-- Node30 -->
<g id="node30" class="node">
<title>Node30</title>
<g id="a_node30"><a xlink:href="_simplicial_manifold_8hpp.html" target="_top" xlink:title="Data structures for simplicial manifolds.">
<polygon fill="white" stroke="black" points="778.71,-129 778.71,-148 945.71,-148 945.71,-129 778.71,-129"/>
<text text-anchor="middle" x="862.21" y="-136" font-family="Helvetica,sans-Serif" font-size="10.00">include/SimplicialManifold.hpp</text>
</a>
</g>
</g>
<!-- Node29&#45;&gt;Node30 -->
<g id="edge30" class="edge">
<title>Node29&#45;&gt;Node30</title>
<path fill="none" stroke="midnightblue" d="M823.24,-439.19C840.41,-416.88 867.21,-375.54 867.21,-335 867.21,-335 867.21,-335 867.21,-271.5 867.21,-224.95 864.06,-169.22 862.76,-148.14"/>
<polygon fill="midnightblue" stroke="midnightblue" points="820.29,-437.28 816.79,-447.28 825.76,-441.65 820.29,-437.28"/>
</g>
<!-- Node31 -->
<g id="node31" class="node">
<title>Node31</title>
<g id="a_node31"><a xlink:href="_simulation_8hpp.html" target="_top" xlink:title="Simulation class.">
<polygon fill="white" stroke="black" points="473.21,-62 473.21,-81 601.21,-81 601.21,-62 473.21,-62"/>
<text text-anchor="middle" x="537.21" y="-69" font-family="Helvetica,sans-Serif" font-size="10.00">include/Simulation.hpp</text>
</a>
</g>
</g>
<!-- Node30&#45;&gt;Node31 -->
<g id="edge31" class="edge">
<title>Node30&#45;&gt;Node31</title>
<path fill="none" stroke="midnightblue" d="M809.5,-126.96C745.53,-114.16 638.93,-92.84 579.87,-81.03"/>
<polygon fill="midnightblue" stroke="midnightblue" points="808.89,-130.41 819.39,-128.94 810.27,-123.54 808.89,-130.41"/>
</g>
<!-- Node32 -->
<g id="node32" class="node">
<title>Node32</title>
<g id="a_node32"><a xlink:href="_simplicial_manifold_test_8cpp_source.html" target="_top" xlink:title=" ">
<polygon fill="white" stroke="black" points="795.21,-56.5 795.21,-86.5 929.21,-86.5 929.21,-56.5 795.21,-56.5"/>
<text text-anchor="start" x="803.21" y="-74.5" font-family="Helvetica,sans-Serif" font-size="10.00">tests/SimplicialManifold</text>
<text text-anchor="middle" x="862.21" y="-63.5" font-family="Helvetica,sans-Serif" font-size="10.00">Test.cpp</text>
</a>
</g>
</g>
<!-- Node30&#45;&gt;Node32 -->
<g id="edge34" class="edge">
<title>Node30&#45;&gt;Node32</title>
<path fill="none" stroke="midnightblue" d="M862.21,-118.41C862.21,-108.22 862.21,-95.9 862.21,-86.59"/>
<polygon fill="midnightblue" stroke="midnightblue" points="858.71,-118.73 862.21,-128.73 865.71,-118.73 858.71,-118.73"/>
</g>
<!-- Node31&#45;&gt;Node10 -->
<g id="edge32" class="edge">
<title>Node31&#45;&gt;Node10</title>
<path fill="none" stroke="midnightblue" d="M510.81,-57.52C487.35,-45.98 453.72,-29.44 433.51,-19.51"/>
<polygon fill="midnightblue" stroke="midnightblue" points="509.35,-60.7 519.87,-61.98 512.44,-54.42 509.35,-60.7"/>
</g>
<!-- Node31&#45;&gt;Node15 -->
<g id="edge33" class="edge">
<title>Node31&#45;&gt;Node15</title>
<path fill="none" stroke="midnightblue" d="M537.21,-51.82C537.21,-41 537.21,-27.9 537.21,-19.51"/>
<polygon fill="midnightblue" stroke="midnightblue" points="533.71,-51.98 537.21,-61.98 540.71,-51.98 533.71,-51.98"/>
</g>
<!-- Node33&#45;&gt;Node9 -->
<g id="edge36" class="edge">
<title>Node33&#45;&gt;Node9</title>
<path fill="none" stroke="midnightblue" d="M43.5,-320.27C28.87,-313.18 13.56,-302.74 5.21,-288 -1.58,-276.01 -1.81,-268.85 5.21,-257 70.07,-147.54 225.38,-98.77 300.33,-81.02"/>
<polygon fill="midnightblue" stroke="midnightblue" points="42.37,-323.6 52.93,-324.45 45.21,-317.2 42.37,-323.6"/>
</g>
<!-- Node33&#45;&gt;Node22 -->
<g id="edge37" class="edge">
<title>Node33&#45;&gt;Node22</title>
<path fill="none" stroke="midnightblue" d="M80.21,-314.32C80.21,-303.5 80.21,-290.4 80.21,-282.01"/>
<polygon fill="midnightblue" stroke="midnightblue" points="76.71,-314.48 80.21,-324.48 83.71,-314.48 76.71,-314.48"/>
</g>
</g>
</svg>
        <g id="navigator" transform="translate(0 0)" fill="#404254">
                <rect fill="#f2f5e9" fill-opacity="0.5" stroke="#606060" stroke-width=".5" x="0" y="0" width="60" height="60"/>
                <use id="zoomplus" xlink:href="#zoomPlus" x="17" y="9" onmousedown="handleZoom(evt,'in')"/>
                <use id="zoomminus" xlink:href="#zoomMin" x="42" y="9" onmousedown="handleZoom(evt,'out')"/>
                <use id="reset" xlink:href="#resetDef" x="30" y="36" onmousedown="handleReset()"/>
                <g id="arrowUp" xlink:href="#dirArrow" transform="translate(30 24)" onmousedown="handlePan(0,-1)">
                  <use xlink:href="#rim" fill="#404040">
                        <set attributeName="fill" to="#808080" begin="arrowUp.mouseover" end="arrowUp.mouseout"/>
                  </use>
                  <path fill="none" stroke="white" stroke-width="1.5" d="M0,-3.0v7 M-2.5,-0.5L0,-3.0L2.5,-0.5"/>
                </g>
                <g id="arrowRight" xlink:href="#dirArrow" transform="rotate(90) translate(36 -43)" onmousedown="handlePan(1,0)">
                  <use xlink:href="#rim" fill="#404040">
                        <set attributeName="fill" to="#808080" begin="arrowRight.mouseover" end="arrowRight.mouseout"/>
                  </use>
                  <path fill="none" stroke="white" stroke-width="1.5" d="M0,-3.0v7 M-2.5,-0.5L0,-3.0L2.5,-0.5"/>
                </g>
                <g id="arrowDown" xlink:href="#dirArrow" transform="rotate(180) translate(-30 -48)" onmousedown="handlePan(0,1)">
                  <use xlink:href="#rim" fill="#404040">
                        <set attributeName="fill" to="#808080" begin="arrowDown.mouseover" end="arrowDown.mouseout"/>
                  </use>
                  <path fill="none" stroke="white" stroke-width="1.5" d="M0,-3.0v7 M-2.5,-0.5L0,-3.0L2.5,-0.5"/>
                </g>
                <g id="arrowLeft" xlink:href="#dirArrow" transform="rotate(270) translate(-36 17)" onmousedown="handlePan(-1,0)">
                  <use xlink:href="#rim" fill="#404040">
                        <set attributeName="fill" to="#808080" begin="arrowLeft.mouseover" end="arrowLeft.mouseout"/>
                  </use>
                  <path fill="none" stroke="white" stroke-width="1.5" d="M0,-3.0v7 M-2.5,-0.5L0,-3.0L2.5,-0.5"/>
                </g>
        </g>
        <svg viewBox="0 0 15 15" width="100%" height="30px" preserveAspectRatio="xMaxYMin meet">
         <g id="arrow_out" transform="scale(0.3 0.3)">
          <a xlink:href="_settings_8hpp__dep__incl_org.svg" target="_base">
           <rect id="button" ry="5" rx="5" y="6" x="6" height="38" width="38"
                fill="#f2f5e9" fill-opacity="0.5" stroke="#606060" stroke-width="1.0"/>
           <path id="arrow"
             d="M 11.500037,31.436501 C 11.940474,20.09759 22.043105,11.32322 32.158766,21.979434 L 37.068811,17.246167 C 37.068811,17.246167 37.088388,32 37.088388,32 L 22.160133,31.978069 C 22.160133,31.978069 26.997745,27.140456 26.997745,27.140456 C 18.528582,18.264221 13.291696,25.230495 11.500037,31.436501 z"
             style="fill:#404040;"/>
          </a>
         </g>
        </svg>
</svg>
