<?xml version="1.0" encoding="UTF-8" standalone="no"?>
<!DOCTYPE svg PUBLIC "-//W3C//DTD SVG 1.1//EN"
 "http://www.w3.org/Graphics/SVG/1.1/DTD/svg11.dtd">
<!-- Generated by graphviz version 2.43.0 (0)
 -->
<!-- Title: include/Simulation.hpp Pages: 1 -->
<svg width="1847pt" height="330pt"
 viewBox="0.00 0.00 1847.00 330.00" xmlns="http://www.w3.org/2000/svg" xmlns:xlink="http://www.w3.org/1999/xlink">
<g id="graph0" class="graph" transform="scale(1 1) rotate(0) translate(4 326)">
<title>include/Simulation.hpp</title>
<polygon fill="white" stroke="transparent" points="-4,4 -4,-326 1843,-326 1843,4 -4,4"/>
<!-- Node1 -->
<g id="node1" class="node">
<title>Node1</title>
<g id="a_node1"><a xlink:title="Simulation class.">
<polygon fill="#bfbfbf" stroke="black" points="572.5,-302.5 572.5,-321.5 700.5,-321.5 700.5,-302.5 572.5,-302.5"/>
<text text-anchor="middle" x="636.5" y="-309.5" font-family="Helvetica,sans-Serif" font-size="10.00">include/Simulation.hpp</text>
</a>
</g>
</g>
<!-- Node2 -->
<g id="node2" class="node">
<title>Node2</title>
<g id="a_node2"><a xlink:href="_function__ref_8hpp.html" target="_top" xlink:title="Efficient, type&#45;erasing, non&#45;owning function reference.">
<polygon fill="white" stroke="black" points="242,-190.5 242,-209.5 339,-209.5 339,-190.5 242,-190.5"/>
<text text-anchor="middle" x="290.5" y="-197.5" font-family="Helvetica,sans-Serif" font-size="10.00">Function_ref.hpp</text>
</a>
</g>
</g>
<!-- Node1&#45;&gt;Node2 -->
<g id="edge1" class="edge">
<title>Node1&#45;&gt;Node2</title>
<path fill="none" stroke="midnightblue" d="M609.64,-302.46C548.2,-282.93 397.33,-234.96 327.31,-212.7"/>
<polygon fill="midnightblue" stroke="midnightblue" points="328.17,-209.3 317.58,-209.61 326.05,-215.98 328.17,-209.3"/>
</g>
<!-- Node5 -->
<g id="node5" class="node">
<title>Node5</title>
<g id="a_node5"><a xlink:title=" ">
<polygon fill="white" stroke="#bfbfbf" points="533,-123.5 533,-142.5 578,-142.5 578,-123.5 533,-123.5"/>
<text text-anchor="middle" x="555.5" y="-130.5" font-family="Helvetica,sans-Serif" font-size="10.00">utility</text>
</a>
</g>
</g>
<!-- Node1&#45;&gt;Node5 -->
<g id="edge47" class="edge">
<title>Node1&#45;&gt;Node5</title>
<path fill="none" stroke="midnightblue" d="M632.59,-302.46C620.11,-275.19 581.03,-189.78 563.8,-152.13"/>
<polygon fill="midnightblue" stroke="midnightblue" points="566.9,-150.5 559.56,-142.87 560.54,-153.42 566.9,-150.5"/>
</g>
<!-- Node6 -->
<g id="node6" class="node">
<title>Node6</title>
<g id="a_node6"><a xlink:href="_simplicial_manifold_8hpp.html" target="_top" xlink:title="Data structures for simplicial manifolds.">
<polygon fill="white" stroke="black" points="755.5,-246.5 755.5,-265.5 883.5,-265.5 883.5,-246.5 755.5,-246.5"/>
<text text-anchor="middle" x="819.5" y="-253.5" font-family="Helvetica,sans-Serif" font-size="10.00">SimplicialManifold.hpp</text>
</a>
</g>
</g>
<!-- Node1&#45;&gt;Node6 -->
<g id="edge5" class="edge">
<title>Node1&#45;&gt;Node6</title>
<path fill="none" stroke="midnightblue" d="M665.5,-302.44C696.68,-293.24 746.43,-278.56 780.91,-268.39"/>
<polygon fill="midnightblue" stroke="midnightblue" points="782.04,-271.7 790.64,-265.52 780.06,-264.99 782.04,-271.7"/>
</g>
<!-- Node37 -->
<g id="node37" class="node">
<title>Node37</title>
<g id="a_node37"><a xlink:title=" ">
<polygon fill="white" stroke="#bfbfbf" points="1792,-123.5 1792,-142.5 1839,-142.5 1839,-123.5 1792,-123.5"/>
<text text-anchor="middle" x="1815.5" y="-130.5" font-family="Helvetica,sans-Serif" font-size="10.00">vector</text>
</a>
</g>
</g>
<!-- Node1&#45;&gt;Node37 -->
<g id="edge48" class="edge">
<title>Node1&#45;&gt;Node37</title>
<path fill="none" stroke="midnightblue" d="M700.62,-309.52C858.75,-304.76 1279.27,-285.43 1620.5,-210 1694.88,-193.56 1713.54,-186.37 1782.5,-154 1786.28,-152.23 1790.18,-150.13 1793.91,-147.97"/>
<polygon fill="midnightblue" stroke="midnightblue" points="1795.96,-150.82 1802.69,-142.64 1792.32,-144.84 1795.96,-150.82"/>
</g>
<!-- Node3 -->
<g id="node3" class="node">
<title>Node3</title>
<g id="a_node3"><a xlink:title=" ">
<polygon fill="white" stroke="#bfbfbf" points="621.5,-0.5 621.5,-19.5 671.5,-19.5 671.5,-0.5 621.5,-0.5"/>
<text text-anchor="middle" x="646.5" y="-7.5" font-family="Helvetica,sans-Serif" font-size="10.00">cstdint</text>
</a>
</g>
</g>
<!-- Node2&#45;&gt;Node3 -->
<g id="edge2" class="edge">
<title>Node2&#45;&gt;Node3</title>
<path fill="none" stroke="midnightblue" d="M263.41,-190.36C202.29,-169.57 63.06,-114.16 116.5,-56 149.94,-19.6 498.13,-12.61 611.23,-11.3"/>
<polygon fill="midnightblue" stroke="midnightblue" points="611.46,-14.79 621.42,-11.19 611.39,-7.79 611.46,-14.79"/>
</g>
<!-- Node4 -->
<g id="node4" class="node">
<title>Node4</title>
<g id="a_node4"><a xlink:title=" ">
<polygon fill="white" stroke="#bfbfbf" points="0,-123.5 0,-142.5 69,-142.5 69,-123.5 0,-123.5"/>
<text text-anchor="middle" x="34.5" y="-130.5" font-family="Helvetica,sans-Serif" font-size="10.00">type_traits</text>
</a>
</g>
</g>
<!-- Node2&#45;&gt;Node4 -->
<g id="edge3" class="edge">
<title>Node2&#45;&gt;Node4</title>
<path fill="none" stroke="midnightblue" d="M241.78,-190.88C199.44,-183.24 136.72,-170.51 83.5,-154 76.66,-151.88 69.44,-149.19 62.71,-146.49"/>
<polygon fill="midnightblue" stroke="midnightblue" points="63.88,-143.18 53.3,-142.57 61.19,-149.64 63.88,-143.18"/>
</g>
<!-- Node2&#45;&gt;Node5 -->
<g id="edge4" class="edge">
<title>Node2&#45;&gt;Node5</title>
<path fill="none" stroke="midnightblue" d="M325.42,-190.44C376.98,-177.79 472.8,-154.29 522.96,-141.98"/>
<polygon fill="midnightblue" stroke="midnightblue" points="524.06,-145.31 532.94,-139.53 522.4,-138.52 524.06,-145.31"/>
</g>
<!-- Node6&#45;&gt;Node5 -->
<g id="edge45" class="edge">
<title>Node6&#45;&gt;Node5</title>
<path fill="none" stroke="midnightblue" d="M785.28,-246.43C756.41,-238.64 714.33,-225.93 679.5,-210 635.97,-190.09 628.24,-179.13 587.5,-154 584.39,-152.08 581.13,-150.06 577.91,-148.05"/>
<polygon fill="midnightblue" stroke="midnightblue" points="579.52,-144.93 569.18,-142.6 575.81,-150.87 579.52,-144.93"/>
</g>
<!-- Node7 -->
<g id="node7" class="node">
<title>Node7</title>
<g id="a_node7"><a xlink:href="_s3_triangulation_8hpp.html" target="_top" xlink:title="Functions on 3D Spherical Delaunay Triangulations.">
<polygon fill="white" stroke="black" points="907,-190.5 907,-209.5 1020,-209.5 1020,-190.5 907,-190.5"/>
<text text-anchor="middle" x="963.5" y="-197.5" font-family="Helvetica,sans-Serif" font-size="10.00">S3Triangulation.hpp</text>
</a>
</g>
</g>
<!-- Node6&#45;&gt;Node7 -->
<g id="edge6" class="edge">
<title>Node6&#45;&gt;Node7</title>
<path fill="none" stroke="midnightblue" d="M842.32,-246.44C866.33,-237.44 904.33,-223.19 931.37,-213.05"/>
<polygon fill="midnightblue" stroke="midnightblue" points="932.66,-216.3 940.79,-209.52 930.2,-209.75 932.66,-216.3"/>
</g>
<!-- Node34 -->
<g id="node34" class="node">
<title>Node34</title>
<g id="a_node34"><a xlink:title=" ">
<polygon fill="white" stroke="#bfbfbf" points="1715.5,-123.5 1715.5,-142.5 1773.5,-142.5 1773.5,-123.5 1715.5,-123.5"/>
<text text-anchor="middle" x="1744.5" y="-130.5" font-family="Helvetica,sans-Serif" font-size="10.00">memory</text>
</a>
</g>
</g>
<!-- Node6&#45;&gt;Node34 -->
<g id="edge43" class="edge">
<title>Node6&#45;&gt;Node34</title>
<path fill="none" stroke="midnightblue" d="M883.65,-255.96C1032.23,-256.43 1409.97,-247.48 1707.5,-154 1712.68,-152.37 1717.97,-150 1722.87,-147.46"/>
<polygon fill="midnightblue" stroke="midnightblue" points="1724.68,-150.46 1731.69,-142.51 1721.25,-144.36 1724.68,-150.46"/>
</g>
<!-- Node35 -->
<g id="node35" class="node">
<title>Node35</title>
<g id="a_node35"><a xlink:title=" ">
<polygon fill="white" stroke="#bfbfbf" points="596.5,-123.5 596.5,-142.5 628.5,-142.5 628.5,-123.5 596.5,-123.5"/>
<text text-anchor="middle" x="612.5" y="-130.5" font-family="Helvetica,sans-Serif" font-size="10.00">set</text>
</a>
</g>
</g>
<!-- Node6&#45;&gt;Node35 -->
<g id="edge44" class="edge">
<title>Node6&#45;&gt;Node35</title>
<path fill="none" stroke="midnightblue" d="M794.44,-246.5C772.2,-238.49 739.2,-225.43 712.5,-210 681.42,-192.04 648.95,-165.75 629.74,-149.27"/>
<polygon fill="midnightblue" stroke="midnightblue" points="631.98,-146.57 622.13,-142.66 627.38,-151.86 631.98,-146.57"/>
</g>
<!-- Node6&#45;&gt;Node37 -->
<g id="edge46" class="edge">
<title>Node6&#45;&gt;Node37</title>
<path fill="none" stroke="midnightblue" d="M883.8,-254.62C1010.64,-253.07 1301.79,-245.57 1543.5,-210 1651.44,-194.12 1681.49,-195.23 1782.5,-154 1786.62,-152.32 1790.82,-150.17 1794.78,-147.9"/>
<polygon fill="midnightblue" stroke="midnightblue" points="1796.77,-150.79 1803.45,-142.57 1793.1,-144.82 1796.77,-150.79"/>
</g>
<!-- Node38 -->
<g id="node38" class="node">
<title>Node38</title>
<g id="a_node38"><a xlink:title=" ">
<polygon fill="white" stroke="#bfbfbf" points="721,-190.5 721,-209.5 828,-209.5 828,-190.5 721,-190.5"/>
<text text-anchor="middle" x="774.5" y="-197.5" font-family="Helvetica,sans-Serif" font-size="10.00">boost/optional.hpp</text>
</a>
</g>
</g>
<!-- Node6&#45;&gt;Node38 -->
<g id="edge41" class="edge">
<title>Node6&#45;&gt;Node38</title>
<path fill="none" stroke="midnightblue" d="M812.07,-246.08C805.65,-238.38 796.19,-227.03 788.38,-217.65"/>
<polygon fill="midnightblue" stroke="midnightblue" points="790.88,-215.19 781.79,-209.75 785.51,-219.67 790.88,-215.19"/>
</g>
<!-- Node39 -->
<g id="node39" class="node">
<title>Node39</title>
<g id="a_node39"><a xlink:title=" ">
<polygon fill="white" stroke="#bfbfbf" points="846.5,-190.5 846.5,-209.5 884.5,-209.5 884.5,-190.5 846.5,-190.5"/>
<text text-anchor="middle" x="865.5" y="-197.5" font-family="Helvetica,sans-Serif" font-size="10.00">map</text>
</a>
</g>
</g>
<!-- Node6&#45;&gt;Node39 -->
<g id="edge42" class="edge">
<title>Node6&#45;&gt;Node39</title>
<path fill="none" stroke="midnightblue" d="M827.1,-246.08C833.73,-238.3 843.52,-226.8 851.56,-217.37"/>
<polygon fill="midnightblue" stroke="midnightblue" points="854.23,-219.63 858.05,-209.75 848.9,-215.09 854.23,-219.63"/>
</g>
<!-- Node7&#45;&gt;Node5 -->
<g id="edge39" class="edge">
<title>Node7&#45;&gt;Node5</title>
<path fill="none" stroke="midnightblue" d="M906.96,-191.68C902.41,-191.1 897.88,-190.54 893.5,-190 757.59,-173.27 716.7,-199.39 587.5,-154 583.26,-152.51 578.99,-150.38 575.02,-148.06"/>
<polygon fill="midnightblue" stroke="midnightblue" points="576.73,-145 566.43,-142.53 572.93,-150.89 576.73,-145"/>
</g>
<!-- Node8 -->
<g id="node8" class="node">
<title>Node8</title>
<g id="a_node8"><a xlink:title=" ">
<polygon fill="white" stroke="#bfbfbf" points="876.5,-123.5 876.5,-142.5 1056.5,-142.5 1056.5,-123.5 876.5,-123.5"/>
<text text-anchor="middle" x="966.5" y="-130.5" font-family="Helvetica,sans-Serif" font-size="10.00">CGAL/Delaunay_triangulation_3.h</text>
</a>
</g>
</g>
<!-- Node7&#45;&gt;Node8 -->
<g id="edge7" class="edge">
<title>Node7&#45;&gt;Node8</title>
<path fill="none" stroke="midnightblue" d="M963.9,-190.23C964.35,-180.68 965.06,-165.12 965.63,-152.78"/>
<polygon fill="midnightblue" stroke="midnightblue" points="969.14,-152.78 966.1,-142.63 962.14,-152.46 969.14,-152.78"/>
</g>
<!-- Node9 -->
<g id="node9" class="node">
<title>Node9</title>
<g id="a_node9"><a xlink:title=" ">
<polygon fill="white" stroke="#bfbfbf" points="1075,-112.5 1075,-153.5 1204,-153.5 1204,-112.5 1075,-112.5"/>
<text text-anchor="start" x="1083" y="-141.5" font-family="Helvetica,sans-Serif" font-size="10.00">CGAL/Exact_predicates</text>
<text text-anchor="start" x="1083" y="-130.5" font-family="Helvetica,sans-Serif" font-size="10.00">_inexact_constructions</text>
<text text-anchor="middle" x="1139.5" y="-119.5" font-family="Helvetica,sans-Serif" font-size="10.00">_kernel.h</text>
</a>
</g>
</g>
<!-- Node7&#45;&gt;Node9 -->
<g id="edge8" class="edge">
<title>Node7&#45;&gt;Node9</title>
<path fill="none" stroke="midnightblue" d="M986.87,-190.37C1009.75,-181.92 1045.62,-168.67 1076.84,-157.14"/>
<polygon fill="midnightblue" stroke="midnightblue" points="1078.19,-160.37 1086.36,-153.63 1075.77,-153.81 1078.19,-160.37"/>
</g>
<!-- Node10 -->
<g id="node10" class="node">
<title>Node10</title>
<g id="a_node10"><a xlink:title=" ">
<polygon fill="white" stroke="#bfbfbf" points="1222.5,-118 1222.5,-148 1360.5,-148 1360.5,-118 1222.5,-118"/>
<text text-anchor="start" x="1230.5" y="-136" font-family="Helvetica,sans-Serif" font-size="10.00">CGAL/Triangulation</text>
<text text-anchor="middle" x="1291.5" y="-125" font-family="Helvetica,sans-Serif" font-size="10.00">_cell_base_with_info_3.h</text>
</a>
</g>
</g>
<!-- Node7&#45;&gt;Node10 -->
<g id="edge9" class="edge">
<title>Node7&#45;&gt;Node10</title>
<path fill="none" stroke="midnightblue" d="M1017.37,-190.47C1068.15,-182.15 1146.28,-168.65 1213.5,-154 1218.49,-152.91 1223.65,-151.73 1228.83,-150.49"/>
<polygon fill="midnightblue" stroke="midnightblue" points="1229.87,-153.84 1238.76,-148.08 1228.21,-147.04 1229.87,-153.84"/>
</g>
<!-- Node11 -->
<g id="node11" class="node">
<title>Node11</title>
<g id="a_node11"><a xlink:title=" ">
<polygon fill="white" stroke="#bfbfbf" points="1378.5,-118 1378.5,-148 1530.5,-148 1530.5,-118 1378.5,-118"/>
<text text-anchor="start" x="1386.5" y="-136" font-family="Helvetica,sans-Serif" font-size="10.00">CGAL/Triangulation</text>
<text text-anchor="middle" x="1454.5" y="-125" font-family="Helvetica,sans-Serif" font-size="10.00">_vertex_base_with_info_3.h</text>
</a>
</g>
</g>
<!-- Node7&#45;&gt;Node11 -->
<g id="edge10" class="edge">
<title>Node7&#45;&gt;Node11</title>
<path fill="none" stroke="midnightblue" d="M1020.29,-194.88C1099.07,-188.68 1245.8,-175.33 1369.5,-154 1375.77,-152.92 1382.28,-151.65 1388.77,-150.29"/>
<polygon fill="midnightblue" stroke="midnightblue" points="1389.88,-153.63 1398.92,-148.09 1388.4,-146.79 1389.88,-153.63"/>
</g>
<!-- Node12 -->
<g id="node12" class="node">
<title>Node12</title>
<g id="a_node12"><a xlink:title=" ">
<polygon fill="white" stroke="#bfbfbf" points="1549,-123.5 1549,-142.5 1698,-142.5 1698,-123.5 1549,-123.5"/>
<text text-anchor="middle" x="1623.5" y="-130.5" font-family="Helvetica,sans-Serif" font-size="10.00">CGAL/point_generators_3.h</text>
</a>
</g>
</g>
<!-- Node7&#45;&gt;Node12 -->
<g id="edge11" class="edge">
<title>Node7&#45;&gt;Node12</title>
<path fill="none" stroke="midnightblue" d="M1020.25,-197.49C1123.95,-194.1 1350.74,-183.66 1539.5,-154 1553.66,-151.77 1568.96,-148.42 1582.58,-145.09"/>
<polygon fill="midnightblue" stroke="midnightblue" points="1583.77,-148.4 1592.61,-142.57 1582.06,-141.61 1583.77,-148.4"/>
</g>
<!-- Node13 -->
<g id="node13" class="node">
<title>Node13</title>
<g id="a_node13"><a xlink:href="_utilities_8hpp.html" target="_top" xlink:title="Utility functions.">
<polygon fill="white" stroke="black" points="684.5,-123.5 684.5,-142.5 760.5,-142.5 760.5,-123.5 684.5,-123.5"/>
<text text-anchor="middle" x="722.5" y="-130.5" font-family="Helvetica,sans-Serif" font-size="10.00">Utilities.hpp</text>
</a>
</g>
</g>
<!-- Node7&#45;&gt;Node13 -->
<g id="edge12" class="edge">
<title>Node7&#45;&gt;Node13</title>
<path fill="none" stroke="midnightblue" d="M920.27,-190.43C881.68,-182.36 823.79,-169.27 774.5,-154 767.26,-151.76 759.58,-149.01 752.4,-146.28"/>
<polygon fill="midnightblue" stroke="midnightblue" points="753.61,-143 743.03,-142.62 751.07,-149.52 753.61,-143"/>
</g>
<!-- Node17 -->
<g id="node17" class="node">
<title>Node17</title>
<g id="a_node17"><a xlink:title=" ">
<polygon fill="white" stroke="#bfbfbf" points="125.5,-56.5 125.5,-75.5 189.5,-75.5 189.5,-56.5 125.5,-56.5"/>
<text text-anchor="middle" x="157.5" y="-63.5" font-family="Helvetica,sans-Serif" font-size="10.00">algorithm</text>
</a>
</g>
</g>
<!-- Node7&#45;&gt;Node17 -->
<g id="edge34" class="edge">
<title>Node7&#45;&gt;Node17</title>
<path fill="none" stroke="midnightblue" d="M906.76,-191.12C825.76,-179.74 685.59,-159.45 675.5,-154 653.35,-142.04 660.07,-123.14 637.5,-112 552.39,-69.98 310.55,-89.26 199.65,-75.84"/>
<polygon fill="midnightblue" stroke="midnightblue" points="200.03,-72.36 189.65,-74.49 199.09,-79.3 200.03,-72.36"/>
</g>
<!-- Node25 -->
<g id="node25" class="node">
<title>Node25</title>
<g id="a_node25"><a xlink:title=" ">
<polygon fill="white" stroke="#bfbfbf" points="1680,-56.5 1680,-75.5 1745,-75.5 1745,-56.5 1680,-56.5"/>
<text text-anchor="middle" x="1712.5" y="-63.5" font-family="Helvetica,sans-Serif" font-size="10.00">stdexcept</text>
</a>
</g>
</g>
<!-- Node7&#45;&gt;Node25 -->
<g id="edge37" class="edge">
<title>Node7&#45;&gt;Node25</title>
<path fill="none" stroke="midnightblue" d="M909.86,-190.43C870.14,-182.86 820.87,-170.47 808.5,-154 797.29,-139.07 795.58,-125.47 808.5,-112 840.39,-78.76 1562.48,-81.85 1669.79,-75.53"/>
<polygon fill="midnightblue" stroke="midnightblue" points="1670.24,-79.01 1679.92,-74.69 1669.66,-72.03 1670.24,-79.01"/>
</g>
<!-- Node7&#45;&gt;Node34 -->
<g id="edge35" class="edge">
<title>Node7&#45;&gt;Node34</title>
<path fill="none" stroke="midnightblue" d="M1020.14,-198.73C1170.77,-197.51 1578.55,-190.8 1707.5,-154 1712.72,-152.51 1718.03,-150.2 1722.93,-147.67"/>
<polygon fill="midnightblue" stroke="midnightblue" points="1724.76,-150.66 1731.74,-142.69 1721.31,-144.57 1724.76,-150.66"/>
</g>
<!-- Node7&#45;&gt;Node35 -->
<g id="edge36" class="edge">
<title>Node7&#45;&gt;Node35</title>
<path fill="none" stroke="midnightblue" d="M906.65,-191.7C817.76,-180.18 654.7,-158.64 642.5,-154 638.66,-152.54 634.82,-150.51 631.23,-148.31"/>
<polygon fill="midnightblue" stroke="midnightblue" points="633.2,-145.41 622.96,-142.67 629.25,-151.2 633.2,-145.41"/>
</g>
<!-- Node36 -->
<g id="node36" class="node">
<title>Node36</title>
<g id="a_node36"><a xlink:title=" ">
<polygon fill="white" stroke="#bfbfbf" points="817,-123.5 817,-142.5 858,-142.5 858,-123.5 817,-123.5"/>
<text text-anchor="middle" x="837.5" y="-130.5" font-family="Helvetica,sans-Serif" font-size="10.00">tuple</text>
</a>
</g>
</g>
<!-- Node7&#45;&gt;Node36 -->
<g id="edge38" class="edge">
<title>Node7&#45;&gt;Node36</title>
<path fill="none" stroke="midnightblue" d="M942.83,-190.38C923.08,-181.9 892.68,-168.19 867.5,-154 864.35,-152.23 861.1,-150.23 857.94,-148.21"/>
<polygon fill="midnightblue" stroke="midnightblue" points="859.77,-145.22 849.5,-142.6 855.89,-151.05 859.77,-145.22"/>
</g>
<!-- Node7&#45;&gt;Node37 -->
<g id="edge40" class="edge">
<title>Node7&#45;&gt;Node37</title>
<path fill="none" stroke="midnightblue" d="M1020.07,-199.44C1181.14,-200.15 1639.82,-198.12 1782.5,-154 1787.09,-152.58 1791.69,-150.39 1795.95,-147.97"/>
<polygon fill="midnightblue" stroke="midnightblue" points="1797.98,-150.82 1804.56,-142.51 1794.24,-144.91 1797.98,-150.82"/>
</g>
<!-- Node14 -->
<g id="node14" class="node">
<title>Node14</title>
<g id="a_node14"><a xlink:title=" ">
<polygon fill="white" stroke="#bfbfbf" points="1337,-56.5 1337,-75.5 1420,-75.5 1420,-56.5 1337,-56.5"/>
<text text-anchor="middle" x="1378.5" y="-63.5" font-family="Helvetica,sans-Serif" font-size="10.00">CGAL/Timer.h</text>
</a>
</g>
</g>
<!-- Node13&#45;&gt;Node14 -->
<g id="edge13" class="edge">
<title>Node13&#45;&gt;Node14</title>
<path fill="none" stroke="midnightblue" d="M740.85,-123.38C750.62,-119.19 762.97,-114.53 774.5,-112 1012.21,-59.83 1081.68,-104.64 1326.53,-76.1"/>
<polygon fill="midnightblue" stroke="midnightblue" points="1327.3,-79.53 1336.81,-74.87 1326.47,-72.58 1327.3,-79.53"/>
</g>
<!-- Node15 -->
<g id="node15" class="node">
<title>Node15</title>
<g id="a_node15"><a xlink:title=" ">
<polygon fill="white" stroke="#bfbfbf" points="1438.5,-56.5 1438.5,-75.5 1526.5,-75.5 1526.5,-56.5 1438.5,-56.5"/>
<text text-anchor="middle" x="1482.5" y="-63.5" font-family="Helvetica,sans-Serif" font-size="10.00">sys/utsname.h</text>
</a>
</g>
</g>
<!-- Node13&#45;&gt;Node15 -->
<g id="edge14" class="edge">
<title>Node13&#45;&gt;Node15</title>
<path fill="none" stroke="midnightblue" d="M740.84,-123.33C750.61,-119.13 762.96,-114.47 774.5,-112 1056.38,-51.61 1137.94,-107.18 1428.33,-75.99"/>
<polygon fill="midnightblue" stroke="midnightblue" points="1428.75,-79.46 1438.31,-74.89 1427.98,-72.5 1428.75,-79.46"/>
</g>
<!-- Node16 -->
<g id="node16" class="node">
<title>Node16</title>
<g id="a_node16"><a xlink:title=" ">
<polygon fill="white" stroke="#bfbfbf" points="1545,-56.5 1545,-75.5 1662,-75.5 1662,-56.5 1545,-56.5"/>
<text text-anchor="middle" x="1603.5" y="-63.5" font-family="Helvetica,sans-Serif" font-size="10.00">boost/date_time.hpp</text>
</a>
</g>
</g>
<!-- Node13&#45;&gt;Node16 -->
<g id="edge15" class="edge">
<title>Node13&#45;&gt;Node16</title>
<path fill="none" stroke="midnightblue" d="M740.36,-123.5C750.2,-119.24 762.76,-114.47 774.5,-112 1102.62,-43.02 1196.43,-105.01 1534.85,-75.96"/>
<polygon fill="midnightblue" stroke="midnightblue" points="1535.27,-79.43 1544.93,-75.07 1534.66,-72.46 1535.27,-79.43"/>
</g>
<!-- Node13&#45;&gt;Node17 -->
<g id="edge16" class="edge">
<title>Node13&#45;&gt;Node17</title>
<path fill="none" stroke="midnightblue" d="M704.14,-123.43C694.36,-119.26 682.01,-114.59 670.5,-112 468.47,-66.47 408.51,-105.37 199.71,-75.96"/>
<polygon fill="midnightblue" stroke="midnightblue" points="200.05,-72.47 189.65,-74.5 199.05,-79.4 200.05,-72.47"/>
</g>
<!-- Node18 -->
<g id="node18" class="node">
<title>Node18</title>
<g id="a_node18"><a xlink:title=" ">
<polygon fill="white" stroke="#bfbfbf" points="207.5,-56.5 207.5,-75.5 259.5,-75.5 259.5,-56.5 207.5,-56.5"/>
<text text-anchor="middle" x="233.5" y="-63.5" font-family="Helvetica,sans-Serif" font-size="10.00">cassert</text>
</a>
</g>
</g>
<!-- Node13&#45;&gt;Node18 -->
<g id="edge17" class="edge">
<title>Node13&#45;&gt;Node18</title>
<path fill="none" stroke="midnightblue" d="M704.12,-123.49C694.34,-119.34 681.99,-114.67 670.5,-112 498.93,-72.15 447.15,-105.2 269.7,-75.92"/>
<polygon fill="midnightblue" stroke="midnightblue" points="270.22,-72.46 259.77,-74.24 269.05,-79.36 270.22,-72.46"/>
</g>
<!-- Node19 -->
<g id="node19" class="node">
<title>Node19</title>
<g id="a_node19"><a xlink:title=" ">
<polygon fill="white" stroke="#bfbfbf" points="278,-56.5 278,-75.5 327,-75.5 327,-56.5 278,-56.5"/>
<text text-anchor="middle" x="302.5" y="-63.5" font-family="Helvetica,sans-Serif" font-size="10.00">cstdlib</text>
</a>
</g>
</g>
<!-- Node13&#45;&gt;Node19 -->
<g id="edge18" class="edge">
<title>Node13&#45;&gt;Node19</title>
<path fill="none" stroke="midnightblue" d="M703.62,-123.37C693.91,-119.29 681.78,-114.73 670.5,-112 528.07,-77.58 484.51,-102.66 337.13,-76.04"/>
<polygon fill="midnightblue" stroke="midnightblue" points="337.74,-72.59 327.27,-74.21 336.46,-79.47 337.74,-72.59"/>
</g>
<!-- Node20 -->
<g id="node20" class="node">
<title>Node20</title>
<g id="a_node20"><a xlink:title=" ">
<polygon fill="white" stroke="#bfbfbf" points="345,-56.5 345,-75.5 400,-75.5 400,-56.5 345,-56.5"/>
<text text-anchor="middle" x="372.5" y="-63.5" font-family="Helvetica,sans-Serif" font-size="10.00">fstream</text>
</a>
</g>
</g>
<!-- Node13&#45;&gt;Node20 -->
<g id="edge19" class="edge">
<title>Node13&#45;&gt;Node20</title>
<path fill="none" stroke="midnightblue" d="M703.09,-123.31C693.46,-119.32 681.55,-114.85 670.5,-112 560.2,-83.59 526.38,-97.07 410.3,-75.95"/>
<polygon fill="midnightblue" stroke="midnightblue" points="410.79,-72.48 400.31,-74.09 409.5,-79.36 410.79,-72.48"/>
</g>
<!-- Node21 -->
<g id="node21" class="node">
<title>Node21</title>
<g id="a_node21"><a xlink:title=" ">
<polygon fill="white" stroke="#bfbfbf" points="418.5,-56.5 418.5,-75.5 466.5,-75.5 466.5,-56.5 418.5,-56.5"/>
<text text-anchor="middle" x="442.5" y="-63.5" font-family="Helvetica,sans-Serif" font-size="10.00">gsl/gsl</text>
</a>
</g>
</g>
<!-- Node13&#45;&gt;Node21 -->
<g id="edge20" class="edge">
<title>Node13&#45;&gt;Node21</title>
<path fill="none" stroke="midnightblue" d="M702.54,-123.33C692.99,-119.44 681.3,-115.05 670.5,-112 588.74,-88.94 563.25,-95.11 476.6,-76.07"/>
<polygon fill="midnightblue" stroke="midnightblue" points="477.12,-72.6 466.59,-73.82 475.58,-79.43 477.12,-72.6"/>
</g>
<!-- Node22 -->
<g id="node22" class="node">
<title>Node22</title>
<g id="a_node22"><a xlink:title=" ">
<polygon fill="white" stroke="#bfbfbf" points="484.5,-56.5 484.5,-75.5 544.5,-75.5 544.5,-56.5 484.5,-56.5"/>
<text text-anchor="middle" x="514.5" y="-63.5" font-family="Helvetica,sans-Serif" font-size="10.00">iostream</text>
</a>
</g>
</g>
<!-- Node13&#45;&gt;Node22 -->
<g id="edge21" class="edge">
<title>Node13&#45;&gt;Node22</title>
<path fill="none" stroke="midnightblue" d="M701.4,-123.41C692.01,-119.71 680.77,-115.45 670.5,-112 631.44,-98.88 586.12,-86.07 554.43,-77.5"/>
<polygon fill="midnightblue" stroke="midnightblue" points="555.21,-74.08 544.64,-74.87 553.39,-80.84 555.21,-74.08"/>
</g>
<!-- Node23 -->
<g id="node23" class="node">
<title>Node23</title>
<g id="a_node23"><a xlink:title=" ">
<polygon fill="white" stroke="#bfbfbf" points="562.5,-56.5 562.5,-75.5 610.5,-75.5 610.5,-56.5 562.5,-56.5"/>
<text text-anchor="middle" x="586.5" y="-63.5" font-family="Helvetica,sans-Serif" font-size="10.00">mutex</text>
</a>
</g>
</g>
<!-- Node13&#45;&gt;Node23 -->
<g id="edge22" class="edge">
<title>Node13&#45;&gt;Node23</title>
<path fill="none" stroke="midnightblue" d="M704.44,-123.37C681.27,-112.3 640.87,-92.99 613.9,-80.1"/>
<polygon fill="midnightblue" stroke="midnightblue" points="615.17,-76.82 604.63,-75.67 612.15,-83.14 615.17,-76.82"/>
</g>
<!-- Node24 -->
<g id="node24" class="node">
<title>Node24</title>
<g id="a_node24"><a xlink:title=" ">
<polygon fill="white" stroke="#bfbfbf" points="628.5,-56.5 628.5,-75.5 682.5,-75.5 682.5,-56.5 628.5,-56.5"/>
<text text-anchor="middle" x="655.5" y="-63.5" font-family="Helvetica,sans-Serif" font-size="10.00">random</text>
</a>
</g>
</g>
<!-- Node13&#45;&gt;Node24 -->
<g id="edge23" class="edge">
<title>Node13&#45;&gt;Node24</title>
<path fill="none" stroke="midnightblue" d="M713.46,-123.23C702.82,-112.9 684.92,-95.54 671.82,-82.83"/>
<polygon fill="midnightblue" stroke="midnightblue" points="674.01,-80.08 664.39,-75.63 669.13,-85.1 674.01,-80.08"/>
</g>
<!-- Node13&#45;&gt;Node25 -->
<g id="edge24" class="edge">
<title>Node13&#45;&gt;Node25</title>
<path fill="none" stroke="midnightblue" d="M740.35,-123.47C750.19,-119.19 762.75,-114.43 774.5,-112 1162,-31.98 1273.93,-125.39 1669.91,-75.97"/>
<polygon fill="midnightblue" stroke="midnightblue" points="1670.44,-79.43 1679.92,-74.69 1669.56,-72.48 1670.44,-79.43"/>
</g>
<!-- Node26 -->
<g id="node26" class="node">
<title>Node26</title>
<g id="a_node26"><a xlink:title=" ">
<polygon fill="white" stroke="#bfbfbf" points="700.5,-56.5 700.5,-75.5 744.5,-75.5 744.5,-56.5 700.5,-56.5"/>
<text text-anchor="middle" x="722.5" y="-63.5" font-family="Helvetica,sans-Serif" font-size="10.00">string</text>
</a>
</g>
</g>
<!-- Node13&#45;&gt;Node26 -->
<g id="edge25" class="edge">
<title>Node13&#45;&gt;Node26</title>
<path fill="none" stroke="midnightblue" d="M722.5,-123.23C722.5,-113.68 722.5,-98.12 722.5,-85.78"/>
<polygon fill="midnightblue" stroke="midnightblue" points="726,-85.63 722.5,-75.63 719,-85.63 726,-85.63"/>
</g>
<!-- Node27 -->
<g id="node27" class="node">
<title>Node27</title>
<g id="a_node27"><a xlink:title=" ">
<polygon fill="white" stroke="#bfbfbf" points="763,-56.5 763,-75.5 828,-75.5 828,-56.5 763,-56.5"/>
<text text-anchor="middle" x="795.5" y="-63.5" font-family="Helvetica,sans-Serif" font-size="10.00">typeindex</text>
</a>
</g>
</g>
<!-- Node13&#45;&gt;Node27 -->
<g id="edge26" class="edge">
<title>Node13&#45;&gt;Node27</title>
<path fill="none" stroke="midnightblue" d="M732.35,-123.23C744.06,-112.81 763.82,-95.21 778.12,-82.47"/>
<polygon fill="midnightblue" stroke="midnightblue" points="780.67,-84.89 785.81,-75.63 776.01,-79.66 780.67,-84.89"/>
</g>
<!-- Node28 -->
<g id="node28" class="node">
<title>Node28</title>
<g id="a_node28"><a xlink:title=" ">
<polygon fill="white" stroke="#bfbfbf" points="846,-56.5 846,-75.5 905,-75.5 905,-56.5 846,-56.5"/>
<text text-anchor="middle" x="875.5" y="-63.5" font-family="Helvetica,sans-Serif" font-size="10.00">date/tz.h</text>
</a>
</g>
</g>
<!-- Node13&#45;&gt;Node28 -->
<g id="edge27" class="edge">
<title>Node13&#45;&gt;Node28</title>
<path fill="none" stroke="midnightblue" d="M742.82,-123.37C769.22,-112.15 815.53,-92.48 845.86,-79.59"/>
<polygon fill="midnightblue" stroke="midnightblue" points="847.26,-82.8 855.1,-75.67 844.53,-76.36 847.26,-82.8"/>
</g>
<!-- Node29 -->
<g id="node29" class="node">
<title>Node29</title>
<g id="a_node29"><a xlink:title=" ">
<polygon fill="white" stroke="#bfbfbf" points="923.5,-56.5 923.5,-75.5 1021.5,-75.5 1021.5,-56.5 923.5,-56.5"/>
<text text-anchor="middle" x="972.5" y="-63.5" font-family="Helvetica,sans-Serif" font-size="10.00">pcg_random.hpp</text>
</a>
</g>
</g>
<!-- Node13&#45;&gt;Node29 -->
<g id="edge28" class="edge">
<title>Node13&#45;&gt;Node29</title>
<path fill="none" stroke="midnightblue" d="M743.01,-123.33C752.49,-119.53 763.95,-115.21 774.5,-112 821.76,-97.62 876.6,-85.5 916.57,-77.48"/>
<polygon fill="midnightblue" stroke="midnightblue" points="917.27,-80.91 926.4,-75.52 915.91,-74.04 917.27,-80.91"/>
</g>
<!-- Node30 -->
<g id="node30" class="node">
<title>Node30</title>
<g id="a_node30"><a xlink:title=" ">
<polygon fill="white" stroke="#bfbfbf" points="1040,-56.5 1040,-75.5 1119,-75.5 1119,-56.5 1040,-56.5"/>
<text text-anchor="middle" x="1079.5" y="-63.5" font-family="Helvetica,sans-Serif" font-size="10.00">fmt/format.h</text>
</a>
</g>
</g>
<!-- Node13&#45;&gt;Node30 -->
<g id="edge29" class="edge">
<title>Node13&#45;&gt;Node30</title>
<path fill="none" stroke="midnightblue" d="M741.91,-123.33C751.54,-119.33 763.45,-114.86 774.5,-112 882.69,-83.98 915.31,-93.8 1030.07,-75.98"/>
<polygon fill="midnightblue" stroke="midnightblue" points="1030.62,-79.44 1039.94,-74.41 1029.52,-72.53 1030.62,-79.44"/>
</g>
<!-- Node31 -->
<g id="node31" class="node">
<title>Node31</title>
<g id="a_node31"><a xlink:title=" ">
<polygon fill="white" stroke="#bfbfbf" points="1137.5,-56.5 1137.5,-75.5 1223.5,-75.5 1223.5,-56.5 1137.5,-56.5"/>
<text text-anchor="middle" x="1180.5" y="-63.5" font-family="Helvetica,sans-Serif" font-size="10.00">fmt/ostream.h</text>
</a>
</g>
</g>
<!-- Node13&#45;&gt;Node31 -->
<g id="edge30" class="edge">
<title>Node13&#45;&gt;Node31</title>
<path fill="none" stroke="midnightblue" d="M741.38,-123.34C751.08,-119.26 763.21,-114.69 774.5,-112 925.17,-76.04 969.99,-96.61 1127.37,-76.04"/>
<polygon fill="midnightblue" stroke="midnightblue" points="1127.96,-79.5 1137.41,-74.7 1127.03,-72.56 1127.96,-79.5"/>
</g>
<!-- Node32 -->
<g id="node32" class="node">
<title>Node32</title>
<g id="a_node32"><a xlink:href="_settings_8hpp.html" target="_top" xlink:title="Global integer and precision settings.">
<polygon fill="white" stroke="black" points="1242,-56.5 1242,-75.5 1319,-75.5 1319,-56.5 1242,-56.5"/>
<text text-anchor="middle" x="1280.5" y="-63.5" font-family="Helvetica,sans-Serif" font-size="10.00">Settings.hpp</text>
</a>
</g>
</g>
<!-- Node13&#45;&gt;Node32 -->
<g id="edge31" class="edge">
<title>Node13&#45;&gt;Node32</title>
<path fill="none" stroke="midnightblue" d="M740.87,-123.44C750.64,-119.27 762.99,-114.61 774.5,-112 970.43,-67.61 1028.23,-101.71 1231.67,-75.94"/>
<polygon fill="midnightblue" stroke="midnightblue" points="1232.32,-79.39 1241.78,-74.63 1231.42,-72.45 1232.32,-79.39"/>
</g>
<!-- Node32&#45;&gt;Node3 -->
<g id="edge33" class="edge">
<title>Node32&#45;&gt;Node3</title>
<path fill="none" stroke="midnightblue" d="M1241.79,-57.37C1238.65,-56.86 1235.53,-56.4 1232.5,-56 1024.75,-28.63 773.2,-16.21 681.82,-12.37"/>
<polygon fill="midnightblue" stroke="midnightblue" points="681.87,-8.87 671.73,-11.96 681.58,-15.87 681.87,-8.87"/>
</g>
<!-- Node33 -->
<g id="node33" class="node">
<title>Node33</title>
<g id="a_node33"><a xlink:title=" ">
<polygon fill="white" stroke="#bfbfbf" points="1237.5,-0.5 1237.5,-19.5 1323.5,-19.5 1323.5,-0.5 1237.5,-0.5"/>
<text text-anchor="middle" x="1280.5" y="-7.5" font-family="Helvetica,sans-Serif" font-size="10.00">CGAL/Gmpzf.h</text>
</a>
</g>
</g>
<!-- Node32&#45;&gt;Node33 -->
<g id="edge32" class="edge">
<title>Node32&#45;&gt;Node33</title>
<path fill="none" stroke="midnightblue" d="M1280.5,-56.08C1280.5,-49.01 1280.5,-38.86 1280.5,-29.99"/>
<polygon fill="midnightblue" stroke="midnightblue" points="1284,-29.75 1280.5,-19.75 1277,-29.75 1284,-29.75"/>
</g>
</g>
</svg>
