<?xml version="1.0" encoding="UTF-8" standalone="no"?>
<!DOCTYPE svg PUBLIC "-//W3C//DTD SVG 1.1//EN"
 "http://www.w3.org/Graphics/SVG/1.1/DTD/svg11.dtd">
<!-- Generated by graphviz version 2.40.1 (20161225.0304)
 -->
<!-- Title: include/Simulation.hpp Pages: 1 -->
<svg width="339pt" height="84pt"
 viewBox="0.00 0.00 338.50 84.00" xmlns="http://www.w3.org/2000/svg" xmlns:xlink="http://www.w3.org/1999/xlink">
<g id="graph0" class="graph" transform="scale(1 1) rotate(0) translate(4 80)">
<title>include/Simulation.hpp</title>
<polygon fill="#ffffff" stroke="transparent" points="-4,4 -4,-80 334.5,-80 334.5,4 -4,4"/>
<!-- Node39 -->
<g id="node1" class="node">
<title>Node39</title>
<polygon fill="#bfbfbf" stroke="#000000" points="77.5,-56.5 77.5,-75.5 205.5,-75.5 205.5,-56.5 77.5,-56.5"/>
<text text-anchor="middle" x="141.5" y="-63.5" font-family="Helvetica,sans-Serif" font-size="10.00" fill="#000000">include/Simulation.hpp</text>
</g>
<!-- Node40 -->
<g id="node2" class="node">
<title>Node40</title>
<g id="a_node2"><a xlink:href="cdt-opt_8cpp.html" target="_top" xlink:title="Outputs values to determine optimizations. ">
<polygon fill="#ffffff" stroke="#000000" points="0,-.5 0,-19.5 89,-19.5 89,-.5 0,-.5"/>
<text text-anchor="middle" x="44.5" y="-7.5" font-family="Helvetica,sans-Serif" font-size="10.00" fill="#000000">src/cdt&#45;opt.cpp</text>
</a>
</g>
</g>
<!-- Node39&#45;&gt;Node40 -->
<g id="edge1" class="edge">
<title>Node39&#45;&gt;Node40</title>
<path fill="none" stroke="#191970" d="M115.5984,-51.0465C98.3391,-41.0824 76.1624,-28.2794 61.2025,-19.6427"/>
<polygon fill="#191970" stroke="#191970" points="114.1936,-54.2768 124.6039,-56.2455 117.6935,-48.2146 114.1936,-54.2768"/>
</g>
<!-- Node41 -->
<g id="node3" class="node">
<title>Node41</title>
<g id="a_node3"><a xlink:href="cdt_8cpp.html" target="_top" xlink:title="The main executable. ">
<polygon fill="#ffffff" stroke="#000000" points="107,-.5 107,-19.5 176,-19.5 176,-.5 107,-.5"/>
<text text-anchor="middle" x="141.5" y="-7.5" font-family="Helvetica,sans-Serif" font-size="10.00" fill="#000000">src/cdt.cpp</text>
</a>
</g>
</g>
<!-- Node39&#45;&gt;Node41 -->
<g id="edge2" class="edge">
<title>Node39&#45;&gt;Node41</title>
<path fill="none" stroke="#191970" d="M141.5,-46.1575C141.5,-37.155 141.5,-26.9199 141.5,-19.6427"/>
<polygon fill="#191970" stroke="#191970" points="138.0001,-46.2455 141.5,-56.2455 145.0001,-46.2456 138.0001,-46.2455"/>
</g>
<!-- Node42 -->
<g id="node4" class="node">
<title>Node42</title>
<g id="a_node4"><a xlink:href="_simulation_test_8cpp_source.html" target="_top" xlink:title="tests/SimulationTest.cpp">
<polygon fill="#ffffff" stroke="#000000" points="194.5,-.5 194.5,-19.5 330.5,-19.5 330.5,-.5 194.5,-.5"/>
<text text-anchor="middle" x="262.5" y="-7.5" font-family="Helvetica,sans-Serif" font-size="10.00" fill="#000000">tests/SimulationTest.cpp</text>
</a>
</g>
</g>
<!-- Node39&#45;&gt;Node42 -->
<g id="edge3" class="edge">
<title>Node39&#45;&gt;Node42</title>
<path fill="none" stroke="#191970" d="M171.5104,-52.1109C193.4525,-41.9559 222.6388,-28.4482 241.9708,-19.5011"/>
<polygon fill="#191970" stroke="#191970" points="169.9058,-48.9968 162.3006,-56.3733 172.8459,-55.3494 169.9058,-48.9968"/>
</g>
</g>
</svg>
