<?xml version="1.0" encoding="UTF-8" standalone="no"?>
<!DOCTYPE svg PUBLIC "-//W3C//DTD SVG 1.1//EN"
 "http://www.w3.org/Graphics/SVG/1.1/DTD/svg11.dtd">
<!-- Generated by graphviz version 2.43.0 (0)
 -->
<!-- Title: include/SimplicialManifold.hpp Pages: 1 -->
<!--zoomable 274 -->
<svg id="main" version="1.1" xmlns="http://www.w3.org/2000/svg" xmlns:xlink="http://www.w3.org/1999/xlink" xml:space="preserve" onload="init(evt)">
<style type="text/css"><![CDATA[
.edge:hover path { stroke: red; }
.edge:hover polygon { stroke: red; fill: red; }
]]></style>
<script type="text/javascript"><![CDATA[
var edges = document.getElementsByTagName('g');
if (edges && edges.length) {
  for (var i=0;i<edges.length;i++) {
    if (edges[i].id.substr(0,4)=='edge') {
      edges[i].setAttribute('class','edge');
    }
  }
}
]]></script>
        <defs>
                <circle id="rim" cx="0" cy="0" r="7"/>
                <circle id="rim2" cx="0" cy="0" r="3.5"/>
                <g id="zoomPlus">
                        <use xlink:href="#rim" fill="#404040">
                                <set attributeName="fill" to="#808080" begin="zoomplus.mouseover" end="zoomplus.mouseout"/>
                        </use>
                        <path d="M-4,0h8M0,-4v8" fill="none" stroke="white" stroke-width="1.5" pointer-events="none"/>
                </g>
                <g id="zoomMin">
                        <use xlink:href="#rim" fill="#404040">
                                <set attributeName="fill" to="#808080" begin="zoomminus.mouseover" end="zoomminus.mouseout"/>
                        </use>
                        <path d="M-4,0h8" fill="none" stroke="white" stroke-width="1.5" pointer-events="none"/>
                </g>
                <g id="dirArrow">
                        <path fill="none" stroke="white" stroke-width="1.5" d="M0,-3.0v7 M-2.5,-0.5L0,-3.0L2.5,-0.5"/>
                </g>
               <g id="resetDef">
                       <use xlink:href="#rim2" fill="#404040">
                               <set attributeName="fill" to="#808080" begin="reset.mouseover" end="reset.mouseout"/>
                       </use>
               </g>
        </defs>

<script type="text/javascript">
var viewWidth = 1767;
var viewHeight = 274;
var sectionId = 'dynsection-0';
</script>
<script xlink:href="svgpan.js"/>
<svg id="graph" class="graph">
<g id="viewport">
<title>include/SimplicialManifold.hpp</title>
<polygon fill="white" stroke="transparent" points="-4,4 -4,-270 1763,-270 1763,4 -4,4"/>
<!-- Node1 -->
<g id="node1" class="node">
<title>Node1</title>
<g id="a_node1"><a xlink:title="Data structures for simplicial manifolds.">
<polygon fill="#bfbfbf" stroke="black" points="1445.5,-246.5 1445.5,-265.5 1612.5,-265.5 1612.5,-246.5 1445.5,-246.5"/>
<text text-anchor="middle" x="1529" y="-253.5" font-family="Helvetica,sans-Serif" font-size="10.00">include/SimplicialManifold.hpp</text>
</a>
</g>
</g>
<!-- Node2 -->
<g id="node2" class="node">
<title>Node2</title>
<g id="a_node2"><a xlink:href="_s3_triangulation_8hpp.html" target="_top" xlink:title="Functions on 3D Spherical Delaunay Triangulations.">
<polygon fill="white" stroke="black" points="1017.5,-190.5 1017.5,-209.5 1130.5,-209.5 1130.5,-190.5 1017.5,-190.5"/>
<text text-anchor="middle" x="1074" y="-197.5" font-family="Helvetica,sans-Serif" font-size="10.00">S3Triangulation.hpp</text>
</a>
</g>
</g>
<!-- Node1&#45;&gt;Node2 -->
<g id="edge1" class="edge">
<title>Node1&#45;&gt;Node2</title>
<path fill="none" stroke="midnightblue" d="M1457.15,-246.47C1370.28,-236.16 1225.24,-218.95 1140.73,-208.92"/>
<polygon fill="midnightblue" stroke="midnightblue" points="1141.08,-205.44 1130.73,-207.73 1140.25,-212.39 1141.08,-205.44"/>
</g>
<!-- Node30 -->
<g id="node30" class="node">
<title>Node30</title>
<g id="a_node30"><a xlink:title=" ">
<polygon fill="white" stroke="#bfbfbf" points="1399,-123.5 1399,-142.5 1457,-142.5 1457,-123.5 1399,-123.5"/>
<text text-anchor="middle" x="1428" y="-130.5" font-family="Helvetica,sans-Serif" font-size="10.00">memory</text>
</a>
</g>
</g>
<!-- Node1&#45;&gt;Node30 -->
<g id="edge38" class="edge">
<title>Node1&#45;&gt;Node30</title>
<path fill="none" stroke="midnightblue" d="M1521.74,-246.3C1504.99,-226.24 1463.47,-176.49 1441.74,-150.46"/>
<polygon fill="midnightblue" stroke="midnightblue" points="1444.29,-148.06 1435.2,-142.62 1438.92,-152.54 1444.29,-148.06"/>
</g>
<!-- Node31 -->
<g id="node31" class="node">
<title>Node31</title>
<g id="a_node31"><a xlink:title=" ">
<polygon fill="white" stroke="#bfbfbf" points="1475,-123.5 1475,-142.5 1507,-142.5 1507,-123.5 1475,-123.5"/>
<text text-anchor="middle" x="1491" y="-130.5" font-family="Helvetica,sans-Serif" font-size="10.00">set</text>
</a>
</g>
</g>
<!-- Node1&#45;&gt;Node31 -->
<g id="edge39" class="edge">
<title>Node1&#45;&gt;Node31</title>
<path fill="none" stroke="midnightblue" d="M1526.27,-246.3C1520.1,-226.68 1505.02,-178.64 1496.71,-152.19"/>
<polygon fill="midnightblue" stroke="midnightblue" points="1500.04,-151.12 1493.71,-142.62 1493.37,-153.21 1500.04,-151.12"/>
</g>
<!-- Node33 -->
<g id="node33" class="node">
<title>Node33</title>
<g id="a_node33"><a xlink:title=" ">
<polygon fill="white" stroke="#bfbfbf" points="1525.5,-123.5 1525.5,-142.5 1570.5,-142.5 1570.5,-123.5 1525.5,-123.5"/>
<text text-anchor="middle" x="1548" y="-130.5" font-family="Helvetica,sans-Serif" font-size="10.00">utility</text>
</a>
</g>
</g>
<!-- Node1&#45;&gt;Node33 -->
<g id="edge40" class="edge">
<title>Node1&#45;&gt;Node33</title>
<path fill="none" stroke="midnightblue" d="M1530.37,-246.3C1533.43,-226.76 1540.92,-179.06 1545.09,-152.55"/>
<polygon fill="midnightblue" stroke="midnightblue" points="1548.55,-153.05 1546.65,-142.62 1541.64,-151.96 1548.55,-153.05"/>
</g>
<!-- Node34 -->
<g id="node34" class="node">
<title>Node34</title>
<g id="a_node34"><a xlink:title=" ">
<polygon fill="white" stroke="#bfbfbf" points="1588.5,-123.5 1588.5,-142.5 1635.5,-142.5 1635.5,-123.5 1588.5,-123.5"/>
<text text-anchor="middle" x="1612" y="-130.5" font-family="Helvetica,sans-Serif" font-size="10.00">vector</text>
</a>
</g>
</g>
<!-- Node1&#45;&gt;Node34 -->
<g id="edge41" class="edge">
<title>Node1&#45;&gt;Node34</title>
<path fill="none" stroke="midnightblue" d="M1534.97,-246.3C1548.61,-226.41 1582.26,-177.35 1600.24,-151.15"/>
<polygon fill="midnightblue" stroke="midnightblue" points="1603.31,-152.85 1606.08,-142.62 1597.54,-148.89 1603.31,-152.85"/>
</g>
<!-- Node35 -->
<g id="node35" class="node">
<title>Node35</title>
<g id="a_node35"><a xlink:title=" ">
<polygon fill="white" stroke="#bfbfbf" points="1595.5,-190.5 1595.5,-209.5 1702.5,-209.5 1702.5,-190.5 1595.5,-190.5"/>
<text text-anchor="middle" x="1649" y="-197.5" font-family="Helvetica,sans-Serif" font-size="10.00">boost/optional.hpp</text>
</a>
</g>
</g>
<!-- Node1&#45;&gt;Node35 -->
<g id="edge36" class="edge">
<title>Node1&#45;&gt;Node35</title>
<path fill="none" stroke="midnightblue" d="M1548.01,-246.44C1567.59,-237.64 1598.31,-223.81 1620.73,-213.72"/>
<polygon fill="midnightblue" stroke="midnightblue" points="1622.39,-216.81 1630.07,-209.52 1619.52,-210.43 1622.39,-216.81"/>
</g>
<!-- Node36 -->
<g id="node36" class="node">
<title>Node36</title>
<g id="a_node36"><a xlink:title=" ">
<polygon fill="white" stroke="#bfbfbf" points="1721,-190.5 1721,-209.5 1759,-209.5 1759,-190.5 1721,-190.5"/>
<text text-anchor="middle" x="1740" y="-197.5" font-family="Helvetica,sans-Serif" font-size="10.00">map</text>
</a>
</g>
</g>
<!-- Node1&#45;&gt;Node36 -->
<g id="edge37" class="edge">
<title>Node1&#45;&gt;Node36</title>
<path fill="none" stroke="midnightblue" d="M1567.06,-246.46C1602.11,-238.41 1655.75,-225.64 1710.84,-210.19"/>
<polygon fill="midnightblue" stroke="midnightblue" points="1712.11,-213.47 1720.77,-207.37 1710.2,-206.73 1712.11,-213.47"/>
</g>
<!-- Node3 -->
<g id="node3" class="node">
<title>Node3</title>
<g id="a_node3"><a xlink:title=" ">
<polygon fill="white" stroke="#bfbfbf" points="897,-123.5 897,-142.5 1077,-142.5 1077,-123.5 897,-123.5"/>
<text text-anchor="middle" x="987" y="-130.5" font-family="Helvetica,sans-Serif" font-size="10.00">CGAL/Delaunay_triangulation_3.h</text>
</a>
</g>
</g>
<!-- Node2&#45;&gt;Node3 -->
<g id="edge2" class="edge">
<title>Node2&#45;&gt;Node3</title>
<path fill="none" stroke="midnightblue" d="M1062.27,-190.23C1048.05,-179.61 1023.87,-161.55 1006.76,-148.76"/>
<polygon fill="midnightblue" stroke="midnightblue" points="1008.65,-145.81 998.55,-142.63 1004.46,-151.42 1008.65,-145.81"/>
</g>
<!-- Node4 -->
<g id="node4" class="node">
<title>Node4</title>
<g id="a_node4"><a xlink:title=" ">
<polygon fill="white" stroke="#bfbfbf" points="1095.5,-112.5 1095.5,-153.5 1224.5,-153.5 1224.5,-112.5 1095.5,-112.5"/>
<text text-anchor="start" x="1103.5" y="-141.5" font-family="Helvetica,sans-Serif" font-size="10.00">CGAL/Exact_predicates</text>
<text text-anchor="start" x="1103.5" y="-130.5" font-family="Helvetica,sans-Serif" font-size="10.00">_inexact_constructions</text>
<text text-anchor="middle" x="1160" y="-119.5" font-family="Helvetica,sans-Serif" font-size="10.00">_kernel.h</text>
</a>
</g>
</g>
<!-- Node2&#45;&gt;Node4 -->
<g id="edge3" class="edge">
<title>Node2&#45;&gt;Node4</title>
<path fill="none" stroke="midnightblue" d="M1085.6,-190.23C1095.95,-182.41 1111.63,-170.56 1125.93,-159.75"/>
<polygon fill="midnightblue" stroke="midnightblue" points="1128.28,-162.36 1134.14,-153.54 1124.06,-156.78 1128.28,-162.36"/>
</g>
<!-- Node5 -->
<g id="node5" class="node">
<title>Node5</title>
<g id="a_node5"><a xlink:title=" ">
<polygon fill="white" stroke="#bfbfbf" points="1243,-118 1243,-148 1381,-148 1381,-118 1243,-118"/>
<text text-anchor="start" x="1251" y="-136" font-family="Helvetica,sans-Serif" font-size="10.00">CGAL/Triangulation</text>
<text text-anchor="middle" x="1312" y="-125" font-family="Helvetica,sans-Serif" font-size="10.00">_cell_base_with_info_3.h</text>
</a>
</g>
</g>
<!-- Node2&#45;&gt;Node5 -->
<g id="edge4" class="edge">
<title>Node2&#45;&gt;Node5</title>
<path fill="none" stroke="midnightblue" d="M1105.6,-190.37C1142.55,-180.28 1204.56,-163.34 1250.98,-150.66"/>
<polygon fill="midnightblue" stroke="midnightblue" points="1251.91,-154.04 1260.64,-148.03 1250.07,-147.29 1251.91,-154.04"/>
</g>
<!-- Node6 -->
<g id="node6" class="node">
<title>Node6</title>
<g id="a_node6"><a xlink:title=" ">
<polygon fill="white" stroke="#bfbfbf" points="330,-118 330,-148 482,-148 482,-118 330,-118"/>
<text text-anchor="start" x="338" y="-136" font-family="Helvetica,sans-Serif" font-size="10.00">CGAL/Triangulation</text>
<text text-anchor="middle" x="406" y="-125" font-family="Helvetica,sans-Serif" font-size="10.00">_vertex_base_with_info_3.h</text>
</a>
</g>
</g>
<!-- Node2&#45;&gt;Node6 -->
<g id="edge5" class="edge">
<title>Node2&#45;&gt;Node6</title>
<path fill="none" stroke="midnightblue" d="M1017.39,-197.52C912.83,-194.16 682.6,-183.75 491,-154 484.26,-152.95 477.26,-151.66 470.3,-150.23"/>
<polygon fill="midnightblue" stroke="midnightblue" points="470.68,-146.73 460.17,-148.06 469.21,-153.58 470.68,-146.73"/>
</g>
<!-- Node7 -->
<g id="node7" class="node">
<title>Node7</title>
<g id="a_node7"><a xlink:title=" ">
<polygon fill="white" stroke="#bfbfbf" points="500.5,-123.5 500.5,-142.5 649.5,-142.5 649.5,-123.5 500.5,-123.5"/>
<text text-anchor="middle" x="575" y="-130.5" font-family="Helvetica,sans-Serif" font-size="10.00">CGAL/point_generators_3.h</text>
</a>
</g>
</g>
<!-- Node2&#45;&gt;Node7 -->
<g id="edge6" class="edge">
<title>Node2&#45;&gt;Node7</title>
<path fill="none" stroke="midnightblue" d="M1017.21,-194.85C937.65,-188.57 788.65,-175.09 663,-154 648.33,-151.54 632.43,-148.15 618.24,-144.86"/>
<polygon fill="midnightblue" stroke="midnightblue" points="618.79,-141.4 608.25,-142.5 617.18,-148.21 618.79,-141.4"/>
</g>
<!-- Node8 -->
<g id="node8" class="node">
<title>Node8</title>
<g id="a_node8"><a xlink:href="_utilities_8hpp.html" target="_top" xlink:title="Utility functions.">
<polygon fill="white" stroke="black" points="705,-123.5 705,-142.5 781,-142.5 781,-123.5 705,-123.5"/>
<text text-anchor="middle" x="743" y="-130.5" font-family="Helvetica,sans-Serif" font-size="10.00">Utilities.hpp</text>
</a>
</g>
</g>
<!-- Node2&#45;&gt;Node8 -->
<g id="edge7" class="edge">
<title>Node2&#45;&gt;Node8</title>
<path fill="none" stroke="midnightblue" d="M1017.43,-193.36C960.55,-186.88 870.67,-174.42 795,-154 787.34,-151.93 779.25,-149.14 771.79,-146.29"/>
<polygon fill="midnightblue" stroke="midnightblue" points="773.02,-143.01 762.43,-142.58 770.44,-149.52 773.02,-143.01"/>
</g>
<!-- Node12 -->
<g id="node12" class="node">
<title>Node12</title>
<g id="a_node12"><a xlink:title=" ">
<polygon fill="white" stroke="#bfbfbf" points="0,-56.5 0,-75.5 64,-75.5 64,-56.5 0,-56.5"/>
<text text-anchor="middle" x="32" y="-63.5" font-family="Helvetica,sans-Serif" font-size="10.00">algorithm</text>
</a>
</g>
</g>
<!-- Node2&#45;&gt;Node12 -->
<g id="edge29" class="edge">
<title>Node2&#45;&gt;Node12</title>
<path fill="none" stroke="midnightblue" d="M1017.29,-197.09C925.88,-193.21 750.68,-182.25 696,-154 673.64,-142.44 680.68,-122.91 658,-112 543.38,-56.86 217.75,-92.26 74.16,-75.82"/>
<polygon fill="midnightblue" stroke="midnightblue" points="74.51,-72.34 64.14,-74.55 73.62,-79.28 74.51,-72.34"/>
</g>
<!-- Node20 -->
<g id="node20" class="node">
<title>Node20</title>
<g id="a_node20"><a xlink:title=" ">
<polygon fill="white" stroke="#bfbfbf" points="1554.5,-56.5 1554.5,-75.5 1619.5,-75.5 1619.5,-56.5 1554.5,-56.5"/>
<text text-anchor="middle" x="1587" y="-63.5" font-family="Helvetica,sans-Serif" font-size="10.00">stdexcept</text>
</a>
</g>
</g>
<!-- Node2&#45;&gt;Node20 -->
<g id="edge32" class="edge">
<title>Node2&#45;&gt;Node20</title>
<path fill="none" stroke="midnightblue" d="M1017.3,-196.82C927.79,-191.51 769.62,-173.38 828,-112 881.28,-55.99 1429.75,-84.6 1544.43,-75.68"/>
<polygon fill="midnightblue" stroke="midnightblue" points="1544.82,-79.16 1554.41,-74.66 1544.11,-72.2 1544.82,-79.16"/>
</g>
<!-- Node2&#45;&gt;Node30 -->
<g id="edge30" class="edge">
<title>Node2&#45;&gt;Node30</title>
<path fill="none" stroke="midnightblue" d="M1130.68,-196.76C1194.95,-192.9 1302.22,-182.41 1390,-154 1395.19,-152.32 1400.51,-149.97 1405.47,-147.47"/>
<polygon fill="midnightblue" stroke="midnightblue" points="1407.31,-150.45 1414.43,-142.6 1403.97,-144.3 1407.31,-150.45"/>
</g>
<!-- Node2&#45;&gt;Node31 -->
<g id="edge31" class="edge">
<title>Node2&#45;&gt;Node31</title>
<path fill="none" stroke="midnightblue" d="M1130.82,-196.34C1224.47,-191.32 1406.79,-178.65 1466,-154 1468.98,-152.76 1471.9,-151.05 1474.63,-149.15"/>
<polygon fill="midnightblue" stroke="midnightblue" points="1476.96,-151.77 1482.54,-142.77 1472.56,-146.32 1476.96,-151.77"/>
</g>
<!-- Node32 -->
<g id="node32" class="node">
<title>Node32</title>
<g id="a_node32"><a xlink:title=" ">
<polygon fill="white" stroke="#bfbfbf" points="837.5,-123.5 837.5,-142.5 878.5,-142.5 878.5,-123.5 837.5,-123.5"/>
<text text-anchor="middle" x="858" y="-130.5" font-family="Helvetica,sans-Serif" font-size="10.00">tuple</text>
</a>
</g>
</g>
<!-- Node2&#45;&gt;Node32 -->
<g id="edge33" class="edge">
<title>Node2&#45;&gt;Node32</title>
<path fill="none" stroke="midnightblue" d="M1017.41,-190.63C979.66,-183.77 929.54,-172.19 888,-154 884.41,-152.43 880.77,-150.42 877.34,-148.3"/>
<polygon fill="midnightblue" stroke="midnightblue" points="879.11,-145.27 868.86,-142.59 875.2,-151.08 879.11,-145.27"/>
</g>
<!-- Node2&#45;&gt;Node33 -->
<g id="edge34" class="edge">
<title>Node2&#45;&gt;Node33</title>
<path fill="none" stroke="midnightblue" d="M1130.73,-196.43C1233.46,-191.24 1446.13,-177.93 1516,-154 1520.25,-152.54 1524.53,-150.43 1528.5,-148.12"/>
<polygon fill="midnightblue" stroke="midnightblue" points="1530.59,-150.94 1537.09,-142.57 1526.79,-145.06 1530.59,-150.94"/>
</g>
<!-- Node2&#45;&gt;Node34 -->
<g id="edge35" class="edge">
<title>Node2&#45;&gt;Node34</title>
<path fill="none" stroke="midnightblue" d="M1130.85,-197.27C1244.98,-193.26 1498.06,-181.49 1580,-154 1584.26,-152.57 1588.54,-150.47 1592.52,-148.16"/>
<polygon fill="midnightblue" stroke="midnightblue" points="1594.6,-150.98 1601.1,-142.61 1590.81,-145.1 1594.6,-150.98"/>
</g>
<!-- Node9 -->
<g id="node9" class="node">
<title>Node9</title>
<g id="a_node9"><a xlink:title=" ">
<polygon fill="white" stroke="#bfbfbf" points="1000.5,-56.5 1000.5,-75.5 1083.5,-75.5 1083.5,-56.5 1000.5,-56.5"/>
<text text-anchor="middle" x="1042" y="-63.5" font-family="Helvetica,sans-Serif" font-size="10.00">CGAL/Timer.h</text>
</a>
</g>
</g>
<!-- Node8&#45;&gt;Node9 -->
<g id="edge8" class="edge">
<title>Node8&#45;&gt;Node9</title>
<path fill="none" stroke="midnightblue" d="M762.95,-123.32C772.51,-119.42 784.2,-115.03 795,-112 804.36,-109.37 920.72,-88.54 990.34,-76.16"/>
<polygon fill="midnightblue" stroke="midnightblue" points="991.02,-79.59 1000.25,-74.4 989.79,-72.7 991.02,-79.59"/>
</g>
<!-- Node10 -->
<g id="node10" class="node">
<title>Node10</title>
<g id="a_node10"><a xlink:title=" ">
<polygon fill="white" stroke="#bfbfbf" points="1102,-56.5 1102,-75.5 1190,-75.5 1190,-56.5 1102,-56.5"/>
<text text-anchor="middle" x="1146" y="-63.5" font-family="Helvetica,sans-Serif" font-size="10.00">sys/utsname.h</text>
</a>
</g>
</g>
<!-- Node8&#45;&gt;Node10 -->
<g id="edge9" class="edge">
<title>Node8&#45;&gt;Node10</title>
<path fill="none" stroke="midnightblue" d="M761.9,-123.44C771.61,-119.37 783.74,-114.8 795,-112 920.88,-80.67 958.56,-94.23 1091.65,-75.96"/>
<polygon fill="midnightblue" stroke="midnightblue" points="1092.41,-79.39 1101.82,-74.53 1091.43,-72.46 1092.41,-79.39"/>
</g>
<!-- Node11 -->
<g id="node11" class="node">
<title>Node11</title>
<g id="a_node11"><a xlink:title=" ">
<polygon fill="white" stroke="#bfbfbf" points="1208.5,-56.5 1208.5,-75.5 1325.5,-75.5 1325.5,-56.5 1208.5,-56.5"/>
<text text-anchor="middle" x="1267" y="-63.5" font-family="Helvetica,sans-Serif" font-size="10.00">boost/date_time.hpp</text>
</a>
</g>
</g>
<!-- Node8&#45;&gt;Node11 -->
<g id="edge10" class="edge">
<title>Node8&#45;&gt;Node11</title>
<path fill="none" stroke="midnightblue" d="M761.38,-123.49C771.16,-119.33 783.51,-114.67 795,-112 967.43,-71.99 1018.01,-94.96 1198.33,-76.01"/>
<polygon fill="midnightblue" stroke="midnightblue" points="1198.85,-79.47 1208.41,-74.92 1198.1,-72.51 1198.85,-79.47"/>
</g>
<!-- Node8&#45;&gt;Node12 -->
<g id="edge11" class="edge">
<title>Node8&#45;&gt;Node12</title>
<path fill="none" stroke="midnightblue" d="M724.65,-123.34C714.89,-119.15 702.53,-114.49 691,-112 425.35,-54.63 347.45,-112.17 74.36,-75.94"/>
<polygon fill="midnightblue" stroke="midnightblue" points="74.52,-72.44 64.14,-74.56 73.58,-79.37 74.52,-72.44"/>
</g>
<!-- Node13 -->
<g id="node13" class="node">
<title>Node13</title>
<g id="a_node13"><a xlink:title=" ">
<polygon fill="white" stroke="#bfbfbf" points="1344,-56.5 1344,-75.5 1396,-75.5 1396,-56.5 1344,-56.5"/>
<text text-anchor="middle" x="1370" y="-63.5" font-family="Helvetica,sans-Serif" font-size="10.00">cassert</text>
</a>
</g>
</g>
<!-- Node8&#45;&gt;Node13 -->
<g id="edge12" class="edge">
<title>Node8&#45;&gt;Node13</title>
<path fill="none" stroke="midnightblue" d="M761.35,-123.39C771.13,-119.2 783.48,-114.54 795,-112 1026.26,-61.03 1094.95,-111.84 1333.74,-75.69"/>
<polygon fill="midnightblue" stroke="midnightblue" points="1334.42,-79.12 1343.76,-74.13 1333.35,-72.21 1334.42,-79.12"/>
</g>
<!-- Node14 -->
<g id="node14" class="node">
<title>Node14</title>
<g id="a_node14"><a xlink:title=" ">
<polygon fill="white" stroke="#bfbfbf" points="1414.5,-56.5 1414.5,-75.5 1463.5,-75.5 1463.5,-56.5 1414.5,-56.5"/>
<text text-anchor="middle" x="1439" y="-63.5" font-family="Helvetica,sans-Serif" font-size="10.00">cstdlib</text>
</a>
</g>
</g>
<!-- Node8&#45;&gt;Node14 -->
<g id="edge13" class="edge">
<title>Node8&#45;&gt;Node14</title>
<path fill="none" stroke="midnightblue" d="M761.35,-123.35C771.12,-119.15 783.47,-114.5 795,-112 1057.2,-55.27 1134.94,-117.41 1404.17,-75.76"/>
<polygon fill="midnightblue" stroke="midnightblue" points="1404.91,-79.18 1414.24,-74.17 1403.82,-72.27 1404.91,-79.18"/>
</g>
<!-- Node15 -->
<g id="node15" class="node">
<title>Node15</title>
<g id="a_node15"><a xlink:title=" ">
<polygon fill="white" stroke="#bfbfbf" points="1481.5,-56.5 1481.5,-75.5 1536.5,-75.5 1536.5,-56.5 1481.5,-56.5"/>
<text text-anchor="middle" x="1509" y="-63.5" font-family="Helvetica,sans-Serif" font-size="10.00">fstream</text>
</a>
</g>
</g>
<!-- Node8&#45;&gt;Node15 -->
<g id="edge14" class="edge">
<title>Node8&#45;&gt;Node15</title>
<path fill="none" stroke="midnightblue" d="M761.34,-123.32C771.11,-119.12 783.46,-114.46 795,-112 1086.38,-49.85 1171.97,-118.23 1470.96,-75.83"/>
<polygon fill="midnightblue" stroke="midnightblue" points="1471.83,-79.24 1481.23,-74.34 1470.83,-72.31 1471.83,-79.24"/>
</g>
<!-- Node16 -->
<g id="node16" class="node">
<title>Node16</title>
<g id="a_node16"><a xlink:title=" ">
<polygon fill="white" stroke="#bfbfbf" points="82,-56.5 82,-75.5 130,-75.5 130,-56.5 82,-56.5"/>
<text text-anchor="middle" x="106" y="-63.5" font-family="Helvetica,sans-Serif" font-size="10.00">gsl/gsl</text>
</a>
</g>
</g>
<!-- Node8&#45;&gt;Node16 -->
<g id="edge15" class="edge">
<title>Node8&#45;&gt;Node16</title>
<path fill="none" stroke="midnightblue" d="M724.65,-123.38C714.88,-119.19 702.53,-114.53 691,-112 454.15,-59.99 383.42,-115 140.24,-75.84"/>
<polygon fill="midnightblue" stroke="midnightblue" points="140.46,-72.33 130.03,-74.15 139.32,-79.23 140.46,-72.33"/>
</g>
<!-- Node17 -->
<g id="node17" class="node">
<title>Node17</title>
<g id="a_node17"><a xlink:title=" ">
<polygon fill="white" stroke="#bfbfbf" points="148,-56.5 148,-75.5 208,-75.5 208,-56.5 148,-56.5"/>
<text text-anchor="middle" x="178" y="-63.5" font-family="Helvetica,sans-Serif" font-size="10.00">iostream</text>
</a>
</g>
</g>
<!-- Node8&#45;&gt;Node17 -->
<g id="edge16" class="edge">
<title>Node8&#45;&gt;Node17</title>
<path fill="none" stroke="midnightblue" d="M724.64,-123.43C714.86,-119.26 702.51,-114.59 691,-112 488.11,-66.31 427.74,-106.55 218.24,-75.94"/>
<polygon fill="midnightblue" stroke="midnightblue" points="218.56,-72.45 208.15,-74.43 217.52,-79.37 218.56,-72.45"/>
</g>
<!-- Node18 -->
<g id="node18" class="node">
<title>Node18</title>
<g id="a_node18"><a xlink:title=" ">
<polygon fill="white" stroke="#bfbfbf" points="226,-56.5 226,-75.5 274,-75.5 274,-56.5 226,-56.5"/>
<text text-anchor="middle" x="250" y="-63.5" font-family="Helvetica,sans-Serif" font-size="10.00">mutex</text>
</a>
</g>
</g>
<!-- Node8&#45;&gt;Node18 -->
<g id="edge17" class="edge">
<title>Node8&#45;&gt;Node18</title>
<path fill="none" stroke="midnightblue" d="M724.62,-123.49C714.84,-119.33 702.5,-114.66 691,-112 516.86,-71.67 464.09,-106.76 284.1,-75.86"/>
<polygon fill="midnightblue" stroke="midnightblue" points="284.49,-72.38 274.04,-74.09 283.28,-79.27 284.49,-72.38"/>
</g>
<!-- Node19 -->
<g id="node19" class="node">
<title>Node19</title>
<g id="a_node19"><a xlink:title=" ">
<polygon fill="white" stroke="#bfbfbf" points="292,-56.5 292,-75.5 346,-75.5 346,-56.5 292,-56.5"/>
<text text-anchor="middle" x="319" y="-63.5" font-family="Helvetica,sans-Serif" font-size="10.00">random</text>
</a>
</g>
</g>
<!-- Node8&#45;&gt;Node19 -->
<g id="edge18" class="edge">
<title>Node8&#45;&gt;Node19</title>
<path fill="none" stroke="midnightblue" d="M724.12,-123.37C714.41,-119.29 702.28,-114.72 691,-112 548.15,-77.5 504.73,-101.21 355.99,-75.92"/>
<polygon fill="midnightblue" stroke="midnightblue" points="356.49,-72.46 346.04,-74.19 355.29,-79.35 356.49,-72.46"/>
</g>
<!-- Node8&#45;&gt;Node20 -->
<g id="edge19" class="edge">
<title>Node8&#45;&gt;Node20</title>
<path fill="none" stroke="midnightblue" d="M761.34,-123.3C771.1,-119.09 783.45,-114.43 795,-112 1118.64,-43.85 1212.82,-118.42 1544.04,-76.03"/>
<polygon fill="midnightblue" stroke="midnightblue" points="1544.95,-79.44 1554.41,-74.67 1544.04,-72.5 1544.95,-79.44"/>
</g>
<!-- Node21 -->
<g id="node21" class="node">
<title>Node21</title>
<g id="a_node21"><a xlink:title=" ">
<polygon fill="white" stroke="#bfbfbf" points="364,-56.5 364,-75.5 408,-75.5 408,-56.5 364,-56.5"/>
<text text-anchor="middle" x="386" y="-63.5" font-family="Helvetica,sans-Serif" font-size="10.00">string</text>
</a>
</g>
</g>
<!-- Node8&#45;&gt;Node21 -->
<g id="edge20" class="edge">
<title>Node8&#45;&gt;Node21</title>
<path fill="none" stroke="midnightblue" d="M724.09,-123.48C714.38,-119.43 702.25,-114.86 691,-112 575.1,-82.54 539.1,-100.2 418.26,-75.96"/>
<polygon fill="midnightblue" stroke="midnightblue" points="418.75,-72.49 408.25,-73.9 417.34,-79.35 418.75,-72.49"/>
</g>
<!-- Node22 -->
<g id="node22" class="node">
<title>Node22</title>
<g id="a_node22"><a xlink:title=" ">
<polygon fill="white" stroke="#bfbfbf" points="426.5,-56.5 426.5,-75.5 491.5,-75.5 491.5,-56.5 426.5,-56.5"/>
<text text-anchor="middle" x="459" y="-63.5" font-family="Helvetica,sans-Serif" font-size="10.00">typeindex</text>
</a>
</g>
</g>
<!-- Node8&#45;&gt;Node22 -->
<g id="edge21" class="edge">
<title>Node8&#45;&gt;Node22</title>
<path fill="none" stroke="midnightblue" d="M723.04,-123.35C713.48,-119.46 701.79,-115.07 691,-112 610.91,-89.25 586.4,-92.95 501.47,-76.23"/>
<polygon fill="midnightblue" stroke="midnightblue" points="502.15,-72.8 491.66,-74.26 500.77,-79.66 502.15,-72.8"/>
</g>
<!-- Node23 -->
<g id="node23" class="node">
<title>Node23</title>
<g id="a_node23"><a xlink:title=" ">
<polygon fill="white" stroke="#bfbfbf" points="509.5,-56.5 509.5,-75.5 568.5,-75.5 568.5,-56.5 509.5,-56.5"/>
<text text-anchor="middle" x="539" y="-63.5" font-family="Helvetica,sans-Serif" font-size="10.00">date/tz.h</text>
</a>
</g>
</g>
<!-- Node8&#45;&gt;Node23 -->
<g id="edge22" class="edge">
<title>Node8&#45;&gt;Node23</title>
<path fill="none" stroke="midnightblue" d="M721.89,-123.44C712.49,-119.75 701.26,-115.48 691,-112 653.19,-99.15 609.41,-86.41 578.58,-77.79"/>
<polygon fill="midnightblue" stroke="midnightblue" points="579.21,-74.33 568.64,-75.02 577.34,-81.08 579.21,-74.33"/>
</g>
<!-- Node24 -->
<g id="node24" class="node">
<title>Node24</title>
<g id="a_node24"><a xlink:title=" ">
<polygon fill="white" stroke="#bfbfbf" points="587,-56.5 587,-75.5 685,-75.5 685,-56.5 587,-56.5"/>
<text text-anchor="middle" x="636" y="-63.5" font-family="Helvetica,sans-Serif" font-size="10.00">pcg_random.hpp</text>
</a>
</g>
</g>
<!-- Node8&#45;&gt;Node24 -->
<g id="edge23" class="edge">
<title>Node8&#45;&gt;Node24</title>
<path fill="none" stroke="midnightblue" d="M728.57,-123.23C710.68,-112.37 679.98,-93.72 658.87,-80.89"/>
<polygon fill="midnightblue" stroke="midnightblue" points="660.57,-77.83 650.2,-75.63 656.93,-83.81 660.57,-77.83"/>
</g>
<!-- Node25 -->
<g id="node25" class="node">
<title>Node25</title>
<g id="a_node25"><a xlink:title=" ">
<polygon fill="white" stroke="#bfbfbf" points="703.5,-56.5 703.5,-75.5 782.5,-75.5 782.5,-56.5 703.5,-56.5"/>
<text text-anchor="middle" x="743" y="-63.5" font-family="Helvetica,sans-Serif" font-size="10.00">fmt/format.h</text>
</a>
</g>
</g>
<!-- Node8&#45;&gt;Node25 -->
<g id="edge24" class="edge">
<title>Node8&#45;&gt;Node25</title>
<path fill="none" stroke="midnightblue" d="M743,-123.23C743,-113.68 743,-98.12 743,-85.78"/>
<polygon fill="midnightblue" stroke="midnightblue" points="746.5,-85.63 743,-75.63 739.5,-85.63 746.5,-85.63"/>
</g>
<!-- Node26 -->
<g id="node26" class="node">
<title>Node26</title>
<g id="a_node26"><a xlink:title=" ">
<polygon fill="white" stroke="#bfbfbf" points="801,-56.5 801,-75.5 887,-75.5 887,-56.5 801,-56.5"/>
<text text-anchor="middle" x="844" y="-63.5" font-family="Helvetica,sans-Serif" font-size="10.00">fmt/ostream.h</text>
</a>
</g>
</g>
<!-- Node8&#45;&gt;Node26 -->
<g id="edge25" class="edge">
<title>Node8&#45;&gt;Node26</title>
<path fill="none" stroke="midnightblue" d="M756.62,-123.23C773.43,-112.42 802.23,-93.88 822.14,-81.07"/>
<polygon fill="midnightblue" stroke="midnightblue" points="824.08,-83.98 830.59,-75.63 820.29,-78.1 824.08,-83.98"/>
</g>
<!-- Node27 -->
<g id="node27" class="node">
<title>Node27</title>
<g id="a_node27"><a xlink:href="_settings_8hpp.html" target="_top" xlink:title="Global integer and precision settings.">
<polygon fill="white" stroke="black" points="905.5,-56.5 905.5,-75.5 982.5,-75.5 982.5,-56.5 905.5,-56.5"/>
<text text-anchor="middle" x="944" y="-63.5" font-family="Helvetica,sans-Serif" font-size="10.00">Settings.hpp</text>
</a>
</g>
</g>
<!-- Node8&#45;&gt;Node27 -->
<g id="edge26" class="edge">
<title>Node8&#45;&gt;Node27</title>
<path fill="none" stroke="midnightblue" d="M764.12,-123.47C773.52,-119.78 784.75,-115.51 795,-112 831.4,-99.52 873.41,-87 903.52,-78.35"/>
<polygon fill="midnightblue" stroke="midnightblue" points="904.6,-81.68 913.25,-75.57 902.68,-74.95 904.6,-81.68"/>
</g>
<!-- Node28 -->
<g id="node28" class="node">
<title>Node28</title>
<g id="a_node28"><a xlink:title=" ">
<polygon fill="white" stroke="#bfbfbf" points="858,-0.5 858,-19.5 944,-19.5 944,-0.5 858,-0.5"/>
<text text-anchor="middle" x="901" y="-7.5" font-family="Helvetica,sans-Serif" font-size="10.00">CGAL/Gmpzf.h</text>
</a>
</g>
</g>
<!-- Node27&#45;&gt;Node28 -->
<g id="edge27" class="edge">
<title>Node27&#45;&gt;Node28</title>
<path fill="none" stroke="midnightblue" d="M936.9,-56.08C930.76,-48.38 921.73,-37.03 914.26,-27.65"/>
<polygon fill="midnightblue" stroke="midnightblue" points="916.94,-25.39 907.97,-19.75 911.46,-29.75 916.94,-25.39"/>
</g>
<!-- Node29 -->
<g id="node29" class="node">
<title>Node29</title>
<g id="a_node29"><a xlink:title=" ">
<polygon fill="white" stroke="#bfbfbf" points="962,-0.5 962,-19.5 1012,-19.5 1012,-0.5 962,-0.5"/>
<text text-anchor="middle" x="987" y="-7.5" font-family="Helvetica,sans-Serif" font-size="10.00">cstdint</text>
</a>
</g>
</g>
<!-- Node27&#45;&gt;Node29 -->
<g id="edge28" class="edge">
<title>Node27&#45;&gt;Node29</title>
<path fill="none" stroke="midnightblue" d="M951.1,-56.08C957.24,-48.38 966.27,-37.03 973.74,-27.65"/>
<polygon fill="midnightblue" stroke="midnightblue" points="976.54,-29.75 980.03,-19.75 971.06,-25.39 976.54,-29.75"/>
</g>
</g>
</svg>
        <g id="navigator" transform="translate(0 0)" fill="#404254">
                <rect fill="#f2f5e9" fill-opacity="0.5" stroke="#606060" stroke-width=".5" x="0" y="0" width="60" height="60"/>
                <use id="zoomplus" xlink:href="#zoomPlus" x="17" y="9" onmousedown="handleZoom(evt,'in')"/>
                <use id="zoomminus" xlink:href="#zoomMin" x="42" y="9" onmousedown="handleZoom(evt,'out')"/>
                <use id="reset" xlink:href="#resetDef" x="30" y="36" onmousedown="handleReset()"/>
                <g id="arrowUp" xlink:href="#dirArrow" transform="translate(30 24)" onmousedown="handlePan(0,-1)">
                  <use xlink:href="#rim" fill="#404040">
                        <set attributeName="fill" to="#808080" begin="arrowUp.mouseover" end="arrowUp.mouseout"/>
                  </use>
                  <path fill="none" stroke="white" stroke-width="1.5" d="M0,-3.0v7 M-2.5,-0.5L0,-3.0L2.5,-0.5"/>
                </g>
                <g id="arrowRight" xlink:href="#dirArrow" transform="rotate(90) translate(36 -43)" onmousedown="handlePan(1,0)">
                  <use xlink:href="#rim" fill="#404040">
                        <set attributeName="fill" to="#808080" begin="arrowRight.mouseover" end="arrowRight.mouseout"/>
                  </use>
                  <path fill="none" stroke="white" stroke-width="1.5" d="M0,-3.0v7 M-2.5,-0.5L0,-3.0L2.5,-0.5"/>
                </g>
                <g id="arrowDown" xlink:href="#dirArrow" transform="rotate(180) translate(-30 -48)" onmousedown="handlePan(0,1)">
                  <use xlink:href="#rim" fill="#404040">
                        <set attributeName="fill" to="#808080" begin="arrowDown.mouseover" end="arrowDown.mouseout"/>
                  </use>
                  <path fill="none" stroke="white" stroke-width="1.5" d="M0,-3.0v7 M-2.5,-0.5L0,-3.0L2.5,-0.5"/>
                </g>
                <g id="arrowLeft" xlink:href="#dirArrow" transform="rotate(270) translate(-36 17)" onmousedown="handlePan(-1,0)">
                  <use xlink:href="#rim" fill="#404040">
                        <set attributeName="fill" to="#808080" begin="arrowLeft.mouseover" end="arrowLeft.mouseout"/>
                  </use>
                  <path fill="none" stroke="white" stroke-width="1.5" d="M0,-3.0v7 M-2.5,-0.5L0,-3.0L2.5,-0.5"/>
                </g>
        </g>
        <svg viewBox="0 0 15 15" width="100%" height="30px" preserveAspectRatio="xMaxYMin meet">
         <g id="arrow_out" transform="scale(0.3 0.3)">
          <a xlink:href="_simplicial_manifold_8hpp__incl_org.svg" target="_base">
           <rect id="button" ry="5" rx="5" y="6" x="6" height="38" width="38"
                fill="#f2f5e9" fill-opacity="0.5" stroke="#606060" stroke-width="1.0"/>
           <path id="arrow"
             d="M 11.500037,31.436501 C 11.940474,20.09759 22.043105,11.32322 32.158766,21.979434 L 37.068811,17.246167 C 37.068811,17.246167 37.088388,32 37.088388,32 L 22.160133,31.978069 C 22.160133,31.978069 26.997745,27.140456 26.997745,27.140456 C 18.528582,18.264221 13.291696,25.230495 11.500037,31.436501 z"
             style="fill:#404040;"/>
          </a>
         </g>
        </svg>
</svg>
