<?xml version="1.0" encoding="UTF-8" standalone="no"?>
<!DOCTYPE svg PUBLIC "-//W3C//DTD SVG 1.1//EN"
 "http://www.w3.org/Graphics/SVG/1.1/DTD/svg11.dtd">
<!-- Generated by graphviz version 15.1.0 (20260618.0150)
 -->
<!-- Title: include/Torus_d.hpp Pages: 1 -->
<svg width="595pt" height="86pt"
 viewBox="0.00 0.00 595.00 86.00" xmlns="http://www.w3.org/2000/svg" xmlns:xlink="http://www.w3.org/1999/xlink">
<g id="graph0" class="graph" transform="scale(1 1) rotate(0) translate(4 81.5)">
<title>include/Torus_d.hpp</title>
<!-- Node1 -->
<g id="Node000001" class="node">
<title>Node1</title>
<g id="a_Node000001"><a xlink:title="Functions on d&#45;dimensional torus.">
<polygon fill="#999999" stroke="#666666" points="408,-77.5 296,-77.5 296,-56.75 408,-56.75 408,-77.5"/>
<text xml:space="preserve" text-anchor="middle" x="352" y="-64" font-family="Helvetica,sans-Serif" font-size="10.00">include/Torus_d.hpp</text>
</a>
</g>
</g>
<!-- Node2 -->
<g id="Node000002" class="node">
<title>Node2</title>
<g id="a_Node000002"><a xlink:title=" ">
<polygon fill="#e0e0e0" stroke="#999999" points="112,-20.75 0,-20.75 0,0 112,0 112,-20.75"/>
<text xml:space="preserve" text-anchor="middle" x="56" y="-7.25" font-family="Helvetica,sans-Serif" font-size="10.00">CGAL/Cartesian_d.h</text>
</a>
</g>
</g>
<!-- Node1&#45;&gt;Node2 -->
<g id="edge1_Node000001_Node000002" class="edge">
<title>Node1&#45;&gt;Node2</title>
<g id="a_edge1_Node000001_Node000002"><a xlink:title=" ">
<path fill="none" stroke="#63b8ff" d="M298.74,-56.27C248.7,-47.02 173.74,-33.15 120.38,-23.28"/>
<polygon fill="#63b8ff" stroke="#63b8ff" points="121.29,-19.89 110.82,-21.51 120.02,-26.78 121.29,-19.89"/>
</a>
</g>
</g>
<!-- Node3 -->
<g id="Node000003" class="node">
<title>Node3</title>
<g id="a_Node000003"><a xlink:title=" ">
<polygon fill="#e0e0e0" stroke="#999999" points="260.38,-20.75 129.62,-20.75 129.62,0 260.38,0 260.38,-20.75"/>
<text xml:space="preserve" text-anchor="middle" x="195" y="-7.25" font-family="Helvetica,sans-Serif" font-size="10.00">CGAL/constructions_d.h</text>
</a>
</g>
</g>
<!-- Node1&#45;&gt;Node3 -->
<g id="edge2_Node000001_Node000003" class="edge">
<title>Node1&#45;&gt;Node3</title>
<g id="a_edge2_Node000001_Node000003"><a xlink:title=" ">
<path fill="none" stroke="#63b8ff" d="M323.93,-56.34C298.78,-47.57 261.65,-34.62 233.69,-24.87"/>
<polygon fill="#63b8ff" stroke="#63b8ff" points="235.11,-21.66 224.52,-21.67 232.81,-28.27 235.11,-21.66"/>
</a>
</g>
</g>
<!-- Node4 -->
<g id="Node000004" class="node">
<title>Node4</title>
<g id="a_Node000004"><a xlink:title=" ">
<polygon fill="#e0e0e0" stroke="#999999" points="426,-20.75 278,-20.75 278,0 426,0 426,-20.75"/>
<text xml:space="preserve" text-anchor="middle" x="352" y="-7.25" font-family="Helvetica,sans-Serif" font-size="10.00">CGAL/point_generators_d.h</text>
</a>
</g>
</g>
<!-- Node1&#45;&gt;Node4 -->
<g id="edge3_Node000001_Node000004" class="edge">
<title>Node1&#45;&gt;Node4</title>
<g id="a_edge3_Node000001_Node000004"><a xlink:title=" ">
<path fill="none" stroke="#63b8ff" d="M352,-56.34C352,-49.72 352,-40.72 352,-32.52"/>
<polygon fill="#63b8ff" stroke="#63b8ff" points="355.5,-32.59 352,-22.59 348.5,-32.59 355.5,-32.59"/>
</a>
</g>
</g>
<!-- Node5 -->
<g id="Node000005" class="node">
<title>Node5</title>
<g id="a_Node000005"><a xlink:title=" ">
<polygon fill="#e0e0e0" stroke="#999999" points="522.12,-20.75 443.88,-20.75 443.88,0 522.12,0 522.12,-20.75"/>
<text xml:space="preserve" text-anchor="middle" x="483" y="-7.25" font-family="Helvetica,sans-Serif" font-size="10.00">fmt/format.h</text>
</a>
</g>
</g>
<!-- Node1&#45;&gt;Node5 -->
<g id="edge4_Node000001_Node000005" class="edge">
<title>Node1&#45;&gt;Node5</title>
<g id="a_edge4_Node000001_Node000005"><a xlink:title=" ">
<path fill="none" stroke="#63b8ff" d="M375.42,-56.34C396,-47.73 426.2,-35.11 449.37,-25.43"/>
<polygon fill="#63b8ff" stroke="#63b8ff" points="450.51,-28.75 458.39,-21.66 447.81,-22.29 450.51,-28.75"/>
</a>
</g>
</g>
<!-- Node6 -->
<g id="Node000006" class="node">
<title>Node6</title>
<g id="a_Node000006"><a xlink:title=" ">
<polygon fill="#e0e0e0" stroke="#999999" points="587.38,-20.75 540.62,-20.75 540.62,0 587.38,0 587.38,-20.75"/>
<text xml:space="preserve" text-anchor="middle" x="564" y="-7.25" font-family="Helvetica,sans-Serif" font-size="10.00">vector</text>
</a>
</g>
</g>
<!-- Node1&#45;&gt;Node6 -->
<g id="edge5_Node000001_Node000006" class="edge">
<title>Node1&#45;&gt;Node6</title>
<g id="a_edge5_Node000001_Node000006"><a xlink:title=" ">
<path fill="none" stroke="#63b8ff" d="M392.25,-56.27C426.24,-47.87 476.48,-35.28 529.28,-21.16"/>
<polygon fill="#63b8ff" stroke="#63b8ff" points="530.02,-24.58 538.77,-18.61 528.2,-17.82 530.02,-24.58"/>
</a>
</g>
</g>
</g>
</svg>
