<?xml version="1.0" encoding="UTF-8" standalone="no"?>
<!DOCTYPE svg PUBLIC "-//W3C//DTD SVG 1.1//EN"
 "http://www.w3.org/Graphics/SVG/1.1/DTD/svg11.dtd">
<!-- Generated by graphviz version 2.40.1 (20161225.0304)
 -->
<!-- Title: include/Torus_d.hpp Pages: 1 -->
<svg width="599pt" height="84pt"
 viewBox="0.00 0.00 599.00 84.00" xmlns="http://www.w3.org/2000/svg" xmlns:xlink="http://www.w3.org/1999/xlink">
<g id="graph0" class="graph" transform="scale(1 1) rotate(0) translate(4 80)">
<title>include/Torus_d.hpp</title>
<polygon fill="#ffffff" stroke="transparent" points="-4,4 -4,-80 595,-80 595,4 -4,4"/>
<!-- Node0 -->
<g id="node1" class="node">
<title>Node0</title>
<polygon fill="#bfbfbf" stroke="#000000" points="298,-56.5 298,-75.5 411,-75.5 411,-56.5 298,-56.5"/>
<text text-anchor="middle" x="354.5" y="-63.5" font-family="Helvetica,sans-Serif" font-size="10.00" fill="#000000">include/Torus_d.hpp</text>
</g>
<!-- Node1 -->
<g id="node2" class="node">
<title>Node1</title>
<polygon fill="#ffffff" stroke="#bfbfbf" points="0,-.5 0,-19.5 113,-19.5 113,-.5 0,-.5"/>
<text text-anchor="middle" x="56.5" y="-7.5" font-family="Helvetica,sans-Serif" font-size="10.00" fill="#000000">CGAL/Cartesian_d.h</text>
</g>
<!-- Node0&#45;&gt;Node1 -->
<g id="edge1" class="edge">
<title>Node0&#45;&gt;Node1</title>
<path fill="none" stroke="#191970" d="M303.6106,-56.4369C251.9673,-46.7321 172.0174,-31.708 117.1251,-21.3926"/>
<polygon fill="#191970" stroke="#191970" points="117.6539,-17.9308 107.1795,-19.5237 116.3611,-24.8104 117.6539,-17.9308"/>
</g>
<!-- Node2 -->
<g id="node3" class="node">
<title>Node2</title>
<polygon fill="#ffffff" stroke="#bfbfbf" points="131,-.5 131,-19.5 262,-19.5 262,-.5 131,-.5"/>
<text text-anchor="middle" x="196.5" y="-7.5" font-family="Helvetica,sans-Serif" font-size="10.00" fill="#000000">CGAL/constructions_d.h</text>
</g>
<!-- Node0&#45;&gt;Node2 -->
<g id="edge2" class="edge">
<title>Node0&#45;&gt;Node2</title>
<path fill="none" stroke="#191970" d="M327.3388,-56.3733C301.2933,-47.1419 261.7884,-33.1402 233.0021,-22.9375"/>
<polygon fill="#191970" stroke="#191970" points="233.9015,-19.5429 223.3067,-19.5011 231.563,-26.1408 233.9015,-19.5429"/>
</g>
<!-- Node3 -->
<g id="node4" class="node">
<title>Node3</title>
<polygon fill="#ffffff" stroke="#bfbfbf" points="280,-.5 280,-19.5 429,-19.5 429,-.5 280,-.5"/>
<text text-anchor="middle" x="354.5" y="-7.5" font-family="Helvetica,sans-Serif" font-size="10.00" fill="#000000">CGAL/point_generators_d.h</text>
</g>
<!-- Node0&#45;&gt;Node3 -->
<g id="edge3" class="edge">
<title>Node0&#45;&gt;Node3</title>
<path fill="none" stroke="#191970" d="M354.5,-56.2455C354.5,-48.9382 354.5,-38.6944 354.5,-29.7046"/>
<polygon fill="#191970" stroke="#191970" points="358.0001,-29.6426 354.5,-19.6427 351.0001,-29.6427 358.0001,-29.6426"/>
</g>
<!-- Node4 -->
<g id="node5" class="node">
<title>Node4</title>
<polygon fill="#ffffff" stroke="#bfbfbf" points="447,-.5 447,-19.5 526,-19.5 526,-.5 447,-.5"/>
<text text-anchor="middle" x="486.5" y="-7.5" font-family="Helvetica,sans-Serif" font-size="10.00" fill="#000000">fmt/format.h</text>
</g>
<!-- Node0&#45;&gt;Node4 -->
<g id="edge4" class="edge">
<title>Node0&#45;&gt;Node4</title>
<path fill="none" stroke="#191970" d="M377.1916,-56.3733C398.5711,-47.3032 430.8057,-33.6279 454.7362,-23.4755"/>
<polygon fill="#191970" stroke="#191970" points="456.2656,-26.6287 464.1045,-19.5011 453.5317,-20.1846 456.2656,-26.6287"/>
</g>
<!-- Node5 -->
<g id="node6" class="node">
<title>Node5</title>
<polygon fill="#ffffff" stroke="#bfbfbf" points="544,-.5 544,-19.5 591,-19.5 591,-.5 544,-.5"/>
<text text-anchor="middle" x="567.5" y="-7.5" font-family="Helvetica,sans-Serif" font-size="10.00" fill="#000000">vector</text>
</g>
<!-- Node0&#45;&gt;Node5 -->
<g id="edge5" class="edge">
<title>Node0&#45;&gt;Node5</title>
<path fill="none" stroke="#191970" d="M394.5666,-56.4755C429.1987,-48.0962 480.8109,-35.2601 533.8588,-20.373"/>
<polygon fill="#191970" stroke="#191970" points="535.1058,-23.6577 543.777,-17.57 533.202,-16.9216 535.1058,-23.6577"/>
</g>
</g>
</svg>
