<?xml version="1.0" encoding="UTF-8" standalone="no"?>
<!DOCTYPE svg PUBLIC "-//W3C//DTD SVG 1.1//EN"
 "http://www.w3.org/Graphics/SVG/1.1/DTD/svg11.dtd">
<!-- Generated by graphviz version 2.43.0 (0)
 -->
<!-- Title: include/Triangulation_traits.hpp Pages: 1 -->
<svg width="1400pt" height="467pt"
 viewBox="0.00 0.00 1400.00 467.00" xmlns="http://www.w3.org/2000/svg" xmlns:xlink="http://www.w3.org/1999/xlink">
<g id="graph0" class="graph" transform="scale(1 1) rotate(0) translate(4 463)">
<title>include/Triangulation_traits.hpp</title>
<!-- Node1 -->
<g id="node1" class="node">
<title>Node1</title>
<g id="a_node1"><a xlink:title="Traits class for particular uses of CGAL.">
<polygon fill="#999999" stroke="#666666" points="935,-459 817,-459 817,-429 935,-429 935,-459"/>
<text text-anchor="start" x="825" y="-447" font-family="Helvetica,sans-Serif" font-size="10.00">include/Triangulation</text>
<text text-anchor="middle" x="876" y="-436" font-family="Helvetica,sans-Serif" font-size="10.00">_traits.hpp</text>
</a>
</g>
</g>
<!-- Node2 -->
<g id="node2" class="node">
<title>Node2</title>
<g id="a_node2"><a xlink:href="_foliated__triangulation_8hpp.html" target="_top" xlink:title="Create foliated spherical triangulations.">
<polygon fill="white" stroke="#666666" points="880,-393 698,-393 698,-374 880,-374 880,-393"/>
<text text-anchor="middle" x="789" y="-381" font-family="Helvetica,sans-Serif" font-size="10.00">include/Foliated_triangulation.hpp</text>
</a>
</g>
</g>
<!-- Node1&#45;&gt;Node2 -->
<g id="edge1" class="edge">
<title>Node1&#45;&gt;Node2</title>
<path fill="none" stroke="#63b8ff" d="M846.35,-423.06C831.16,-412.85 813.46,-400.95 801.78,-393.09"/>
<polygon fill="#63b8ff" stroke="#63b8ff" points="844.69,-426.16 854.94,-428.84 848.59,-420.35 844.69,-426.16"/>
</g>
<!-- Node29 -->
<g id="node29" class="node">
<title>Node29</title>
<g id="a_node29"><a xlink:href="_formatters_8hpp.html" target="_top" xlink:title="Formatter specializations for various types.">
<polygon fill="white" stroke="#666666" points="1050.5,-393 921.5,-393 921.5,-374 1050.5,-374 1050.5,-393"/>
<text text-anchor="middle" x="986" y="-381" font-family="Helvetica,sans-Serif" font-size="10.00">include/Formatters.hpp</text>
</a>
</g>
</g>
<!-- Node1&#45;&gt;Node29 -->
<g id="edge29" class="edge">
<title>Node1&#45;&gt;Node29</title>
<path fill="none" stroke="#63b8ff" d="M911.34,-424.21C930.96,-413.77 954.44,-401.29 969.76,-393.14"/>
<polygon fill="#63b8ff" stroke="#63b8ff" points="909.53,-421.2 902.35,-428.99 912.82,-427.38 909.53,-421.2"/>
</g>
<!-- Node3 -->
<g id="node3" class="node">
<title>Node3</title>
<g id="a_node3"><a xlink:href="_geometry_8hpp.html" target="_top" xlink:title="Geometric scalars of the Manifold used to calculate the Regge action.">
<polygon fill="white" stroke="#666666" points="649.5,-332.5 526.5,-332.5 526.5,-313.5 649.5,-313.5 649.5,-332.5"/>
<text text-anchor="middle" x="588" y="-320.5" font-family="Helvetica,sans-Serif" font-size="10.00">include/Geometry.hpp</text>
</a>
</g>
</g>
<!-- Node2&#45;&gt;Node3 -->
<g id="edge2" class="edge">
<title>Node2&#45;&gt;Node3</title>
<path fill="none" stroke="#63b8ff" d="M749.86,-371.11C710.98,-359.79 652.26,-342.7 617.26,-332.52"/>
<polygon fill="#63b8ff" stroke="#63b8ff" points="749.19,-374.56 759.77,-373.99 751.15,-367.84 749.19,-374.56"/>
</g>
<!-- Node27 -->
<g id="node27" class="node">
<title>Node27</title>
<g id="a_node27"><a xlink:href="_foliated__triangulation__test_8cpp.html" target="_top" xlink:title="Tests for foliated triangulations.">
<polygon fill="white" stroke="#666666" points="818,-338 668,-338 668,-308 818,-308 818,-338"/>
<text text-anchor="start" x="676" y="-326" font-family="Helvetica,sans-Serif" font-size="10.00">tests/Foliated_triangulation</text>
<text text-anchor="middle" x="743" y="-315" font-family="Helvetica,sans-Serif" font-size="10.00">_test.cpp</text>
</a>
</g>
</g>
<!-- Node2&#45;&gt;Node27 -->
<g id="edge27" class="edge">
<title>Node2&#45;&gt;Node27</title>
<path fill="none" stroke="#63b8ff" d="M775.93,-365.88C769.04,-357.11 760.67,-346.48 754.1,-338.11"/>
<polygon fill="#63b8ff" stroke="#63b8ff" points="773.28,-368.17 782.21,-373.87 778.78,-363.84 773.28,-368.17"/>
</g>
<!-- Node28 -->
<g id="node28" class="node">
<title>Node28</title>
<g id="a_node28"><a xlink:href="_tetrahedron__test_8cpp.html" target="_top" xlink:title="Tests for 3D triangulated and foliated tetrahedrons.">
<polygon fill="white" stroke="#666666" points="982,-332.5 836,-332.5 836,-313.5 982,-313.5 982,-332.5"/>
<text text-anchor="middle" x="909" y="-320.5" font-family="Helvetica,sans-Serif" font-size="10.00">tests/Tetrahedron_test.cpp</text>
</a>
</g>
</g>
<!-- Node2&#45;&gt;Node28 -->
<g id="edge28" class="edge">
<title>Node2&#45;&gt;Node28</title>
<path fill="none" stroke="#63b8ff" d="M815.7,-369.48C838.83,-358.21 871.61,-342.23 891.53,-332.52"/>
<polygon fill="#63b8ff" stroke="#63b8ff" points="813.9,-366.47 806.45,-373.99 816.97,-372.76 813.9,-366.47"/>
</g>
<!-- Node4 -->
<g id="node4" class="node">
<title>Node4</title>
<g id="a_node4"><a xlink:href="_manifold_8hpp.html" target="_top" xlink:title="Data structures for manifolds.">
<polygon fill="white" stroke="#666666" points="570.5,-272 451.5,-272 451.5,-253 570.5,-253 570.5,-272"/>
<text text-anchor="middle" x="511" y="-260" font-family="Helvetica,sans-Serif" font-size="10.00">include/Manifold.hpp</text>
</a>
</g>
</g>
<!-- Node3&#45;&gt;Node4 -->
<g id="edge3" class="edge">
<title>Node3&#45;&gt;Node4</title>
<path fill="none" stroke="#63b8ff" d="M568.31,-307.04C553.77,-295.99 534.48,-281.34 522.41,-272.17"/>
<polygon fill="#63b8ff" stroke="#63b8ff" points="566.56,-310.11 576.64,-313.37 570.79,-304.53 566.56,-310.11"/>
</g>
<!-- Node26 -->
<g id="node26" class="node">
<title>Node26</title>
<g id="a_node26"><a xlink:href="_geometry__test_8cpp.html" target="_top" xlink:title="Tests of new geometry data structure.">
<polygon fill="white" stroke="#666666" points="725.5,-272 588.5,-272 588.5,-253 725.5,-253 725.5,-272"/>
<text text-anchor="middle" x="657" y="-260" font-family="Helvetica,sans-Serif" font-size="10.00">tests/Geometry_test.cpp</text>
</a>
</g>
</g>
<!-- Node3&#45;&gt;Node26 -->
<g id="edge26" class="edge">
<title>Node3&#45;&gt;Node26</title>
<path fill="none" stroke="#63b8ff" d="M606.02,-306.72C619,-295.71 636.06,-281.25 646.78,-272.17"/>
<polygon fill="#63b8ff" stroke="#63b8ff" points="603.55,-304.23 598.18,-313.37 608.07,-309.57 603.55,-304.23"/>
</g>
<!-- Node5 -->
<g id="node5" class="node">
<title>Node5</title>
<g id="a_node5"><a xlink:href="_ergodic__moves__3_8hpp.html" target="_top" xlink:title="Pachner moves on 2+1 dimensional foliated Delaunay triangulations.">
<polygon fill="white" stroke="#666666" points="1074.5,-217 945.5,-217 945.5,-187 1074.5,-187 1074.5,-217"/>
<text text-anchor="start" x="953.5" y="-205" font-family="Helvetica,sans-Serif" font-size="10.00">include/Ergodic_moves</text>
<text text-anchor="middle" x="1010" y="-194" font-family="Helvetica,sans-Serif" font-size="10.00">_3.hpp</text>
</a>
</g>
</g>
<!-- Node4&#45;&gt;Node5 -->
<g id="edge4" class="edge">
<title>Node4&#45;&gt;Node5</title>
<path fill="none" stroke="#63b8ff" d="M580.8,-252.83C739.18,-235.29 781.41,-239.38 936,-217 939.11,-216.55 942.28,-216.06 945.48,-215.55"/>
<polygon fill="#63b8ff" stroke="#63b8ff" points="580.24,-249.37 570.69,-253.96 581.02,-256.32 580.24,-249.37"/>
</g>
<!-- Node19 -->
<g id="node19" class="node">
<title>Node19</title>
<g id="a_node19"><a xlink:href="cdt-viewer_8cpp.html" target="_top" xlink:title="Views 3D spacetimes.">
<polygon fill="white" stroke="#666666" points="104,-211.5 0,-211.5 0,-192.5 104,-192.5 104,-211.5"/>
<text text-anchor="middle" x="52" y="-199.5" font-family="Helvetica,sans-Serif" font-size="10.00">src/cdt&#45;viewer.cpp</text>
</a>
</g>
</g>
<!-- Node4&#45;&gt;Node19 -->
<g id="edge19" class="edge">
<title>Node4&#45;&gt;Node19</title>
<path fill="none" stroke="#63b8ff" d="M440.96,-256.11C361.19,-249.4 227.14,-236.41 113,-217 104.22,-215.51 94.8,-213.53 86.06,-211.54"/>
<polygon fill="#63b8ff" stroke="#63b8ff" points="441.11,-259.63 451.37,-256.97 441.69,-252.66 441.11,-259.63"/>
</g>
<!-- Node20 -->
<g id="node20" class="node">
<title>Node20</title>
<g id="a_node20"><a xlink:href="initialize_8cpp.html" target="_top" xlink:title="Generates initial spacetimes.">
<polygon fill="white" stroke="#666666" points="218,-211.5 122,-211.5 122,-192.5 218,-192.5 218,-211.5"/>
<text text-anchor="middle" x="170" y="-199.5" font-family="Helvetica,sans-Serif" font-size="10.00">src/initialize.cpp</text>
</a>
</g>
</g>
<!-- Node4&#45;&gt;Node20 -->
<g id="edge20" class="edge">
<title>Node4&#45;&gt;Node20</title>
<path fill="none" stroke="#63b8ff" d="M441.35,-252.28C383.68,-244.24 299.7,-231.6 227,-217 219.11,-215.42 210.66,-213.48 202.75,-211.55"/>
<polygon fill="#63b8ff" stroke="#63b8ff" points="441.06,-255.77 451.45,-253.68 442.02,-248.84 441.06,-255.77"/>
</g>
<!-- Node21 -->
<g id="node21" class="node">
<title>Node21</title>
<g id="a_node21"><a xlink:href="_manifold__test_8cpp.html" target="_top" xlink:title="Tests of new manifold data structure.">
<polygon fill="white" stroke="#666666" points="367.5,-211.5 236.5,-211.5 236.5,-192.5 367.5,-192.5 367.5,-211.5"/>
<text text-anchor="middle" x="302" y="-199.5" font-family="Helvetica,sans-Serif" font-size="10.00">tests/Manifold_test.cpp</text>
</a>
</g>
</g>
<!-- Node4&#45;&gt;Node21 -->
<g id="edge21" class="edge">
<title>Node4&#45;&gt;Node21</title>
<path fill="none" stroke="#63b8ff" d="M470.81,-250.25C430.4,-238.94 368.97,-221.75 332.43,-211.52"/>
<polygon fill="#63b8ff" stroke="#63b8ff" points="470.04,-253.67 480.61,-252.99 471.92,-246.93 470.04,-253.67"/>
</g>
<!-- Node22 -->
<g id="node22" class="node">
<title>Node22</title>
<g id="a_node22"><a xlink:href="_move__tracker__test_8cpp.html" target="_top" xlink:title="Tests of MoveTracker, that is, that moves are tracked properly.">
<polygon fill="white" stroke="#666666" points="496,-217 386,-217 386,-187 496,-187 496,-217"/>
<text text-anchor="start" x="394" y="-205" font-family="Helvetica,sans-Serif" font-size="10.00">tests/Move_tracker</text>
<text text-anchor="middle" x="441" y="-194" font-family="Helvetica,sans-Serif" font-size="10.00">_test.cpp</text>
</a>
</g>
</g>
<!-- Node4&#45;&gt;Node22 -->
<g id="edge22" class="edge">
<title>Node4&#45;&gt;Node22</title>
<path fill="none" stroke="#63b8ff" d="M492.73,-246.23C481.96,-237.23 468.42,-225.91 457.89,-217.11"/>
<polygon fill="#63b8ff" stroke="#63b8ff" points="490.75,-249.14 500.67,-252.87 495.24,-243.77 490.75,-249.14"/>
</g>
<!-- Node23 -->
<g id="node23" class="node">
<title>Node23</title>
<g id="a_node23"><a xlink:href="_s3_action__test_8cpp.html" target="_top" xlink:title="Tests for the S3 action functions.">
<polygon fill="white" stroke="#666666" points="645.5,-211.5 514.5,-211.5 514.5,-192.5 645.5,-192.5 645.5,-211.5"/>
<text text-anchor="middle" x="580" y="-199.5" font-family="Helvetica,sans-Serif" font-size="10.00">tests/S3Action_test.cpp</text>
</a>
</g>
</g>
<!-- Node4&#45;&gt;Node23 -->
<g id="edge23" class="edge">
<title>Node4&#45;&gt;Node23</title>
<path fill="none" stroke="#63b8ff" d="M529.02,-246.22C542,-235.21 559.06,-220.75 569.78,-211.67"/>
<polygon fill="#63b8ff" stroke="#63b8ff" points="526.55,-243.73 521.18,-252.87 531.07,-249.07 526.55,-243.73"/>
</g>
<!-- Node24 -->
<g id="node24" class="node">
<title>Node24</title>
<g id="a_node24"><a xlink:href="_utilities__test_8cpp.html" target="_top" xlink:title="Tests on utility functions.">
<polygon fill="white" stroke="#666666" points="790,-211.5 664,-211.5 664,-192.5 790,-192.5 790,-211.5"/>
<text text-anchor="middle" x="727" y="-199.5" font-family="Helvetica,sans-Serif" font-size="10.00">tests/Utilities_test.cpp</text>
</a>
</g>
</g>
<!-- Node4&#45;&gt;Node24 -->
<g id="edge24" class="edge">
<title>Node4&#45;&gt;Node24</title>
<path fill="none" stroke="#63b8ff" d="M552.27,-250.32C594.04,-239.01 657.7,-221.77 695.55,-211.52"/>
<polygon fill="#63b8ff" stroke="#63b8ff" points="551.15,-247 542.41,-252.99 552.98,-253.76 551.15,-247"/>
</g>
<!-- Node25 -->
<g id="node25" class="node">
<title>Node25</title>
<g id="a_node25"><a xlink:href="_vertex__test_8cpp.html" target="_top" xlink:title="Tests on points and vertices in foliated Delaunay triangulations.">
<polygon fill="white" stroke="#666666" points="927.5,-211.5 808.5,-211.5 808.5,-192.5 927.5,-192.5 927.5,-211.5"/>
<text text-anchor="middle" x="868" y="-199.5" font-family="Helvetica,sans-Serif" font-size="10.00">tests/Vertex_test.cpp</text>
</a>
</g>
</g>
<!-- Node4&#45;&gt;Node25 -->
<g id="edge25" class="edge">
<title>Node4&#45;&gt;Node25</title>
<path fill="none" stroke="#63b8ff" d="M580.93,-251.63C639.34,-243.16 724.76,-230.26 799,-217 808.27,-215.35 818.2,-213.42 827.56,-211.54"/>
<polygon fill="#63b8ff" stroke="#63b8ff" points="580.1,-248.21 570.71,-253.11 581.1,-255.14 580.1,-248.21"/>
</g>
<!-- Node6 -->
<g id="node6" class="node">
<title>Node6</title>
<g id="a_node6"><a xlink:href="_move__command_8hpp.html" target="_top" xlink:title="Do ergodic moves using the Command pattern.">
<polygon fill="white" stroke="#666666" points="713.5,-145.5 556.5,-145.5 556.5,-126.5 713.5,-126.5 713.5,-145.5"/>
<text text-anchor="middle" x="635" y="-133.5" font-family="Helvetica,sans-Serif" font-size="10.00">include/Move_command.hpp</text>
</a>
</g>
</g>
<!-- Node5&#45;&gt;Node6 -->
<g id="edge5" class="edge">
<title>Node5&#45;&gt;Node6</title>
<path fill="none" stroke="#63b8ff" d="M935.59,-186.96C875.33,-176.41 756.4,-156.85 687.34,-145.55"/>
<polygon fill="#63b8ff" stroke="#63b8ff" points="934.99,-190.41 945.44,-188.7 936.2,-183.51 934.99,-190.41"/>
</g>
<!-- Node14 -->
<g id="node14" class="node">
<title>Node14</title>
<g id="a_node14"><a xlink:href="bistellar-flip_8cpp.html" target="_top" xlink:title="Tests and views bistellar flips.">
<polygon fill="white" stroke="#666666" points="844.5,-145.5 731.5,-145.5 731.5,-126.5 844.5,-126.5 844.5,-145.5"/>
<text text-anchor="middle" x="788" y="-133.5" font-family="Helvetica,sans-Serif" font-size="10.00">src/bistellar&#45;flip.cpp</text>
</a>
</g>
</g>
<!-- Node5&#45;&gt;Node14 -->
<g id="edge14" class="edge">
<title>Node5&#45;&gt;Node14</title>
<path fill="none" stroke="#63b8ff" d="M951.48,-184.13C908.39,-171.71 851.59,-155.33 817.54,-145.52"/>
<polygon fill="#63b8ff" stroke="#63b8ff" points="950.7,-187.55 961.28,-186.95 952.64,-180.82 950.7,-187.55"/>
</g>
<!-- Node15 -->
<g id="node15" class="node">
<title>Node15</title>
<g id="a_node15"><a xlink:href="_apply__move__test_8cpp.html" target="_top" xlink:title="Applying ergodic moves to manifolds.">
<polygon fill="white" stroke="#666666" points="1011.5,-145.5 862.5,-145.5 862.5,-126.5 1011.5,-126.5 1011.5,-145.5"/>
<text text-anchor="middle" x="937" y="-133.5" font-family="Helvetica,sans-Serif" font-size="10.00">tests/Apply_move_test.cpp</text>
</a>
</g>
</g>
<!-- Node5&#45;&gt;Node15 -->
<g id="edge15" class="edge">
<title>Node5&#45;&gt;Node15</title>
<path fill="none" stroke="#63b8ff" d="M985.97,-179.93C972.76,-168.35 957.08,-154.61 947.09,-145.84"/>
<polygon fill="#63b8ff" stroke="#63b8ff" points="983.97,-182.84 993.8,-186.8 988.59,-177.57 983.97,-182.84"/>
</g>
<!-- Node16 -->
<g id="node16" class="node">
<title>Node16</title>
<g id="a_node16"><a xlink:href="_bistellar__flip__test_8cpp.html" target="_top" xlink:title="Comprehensive tests for bistellar flip operations.">
<polygon fill="white" stroke="#666666" points="1134,-151 1030,-151 1030,-121 1134,-121 1134,-151"/>
<text text-anchor="start" x="1038" y="-139" font-family="Helvetica,sans-Serif" font-size="10.00">tests/Bistellar_flip</text>
<text text-anchor="middle" x="1082" y="-128" font-family="Helvetica,sans-Serif" font-size="10.00">_test.cpp</text>
</a>
</g>
</g>
<!-- Node5&#45;&gt;Node16 -->
<g id="edge16" class="edge">
<title>Node5&#45;&gt;Node16</title>
<path fill="none" stroke="#63b8ff" d="M1033.71,-179.92C1044.33,-170.49 1056.57,-159.61 1066.07,-151.16"/>
<polygon fill="#63b8ff" stroke="#63b8ff" points="1031.13,-177.54 1025.98,-186.8 1035.78,-182.77 1031.13,-177.54"/>
</g>
<!-- Node17 -->
<g id="node17" class="node">
<title>Node17</title>
<g id="a_node17"><a xlink:href="_ergodic__moves__3__test_8cpp.html" target="_top" xlink:title="Tests for ergodic moves on foliated triangulations.">
<polygon fill="white" stroke="#666666" points="1270,-151 1152,-151 1152,-121 1270,-121 1270,-151"/>
<text text-anchor="start" x="1160" y="-139" font-family="Helvetica,sans-Serif" font-size="10.00">tests/Ergodic_moves</text>
<text text-anchor="middle" x="1211" y="-128" font-family="Helvetica,sans-Serif" font-size="10.00">_3_test.cpp</text>
</a>
</g>
</g>
<!-- Node5&#45;&gt;Node17 -->
<g id="edge17" class="edge">
<title>Node5&#45;&gt;Node17</title>
<path fill="none" stroke="#63b8ff" d="M1063.84,-183.86C1096.12,-173.58 1136.64,-160.68 1166.99,-151.01"/>
<polygon fill="#63b8ff" stroke="#63b8ff" points="1062.58,-180.59 1054.11,-186.95 1064.7,-187.26 1062.58,-180.59"/>
</g>
<!-- Node18 -->
<g id="node18" class="node">
<title>Node18</title>
<g id="a_node18"><a xlink:href="_function__ref__test_8cpp.html" target="_top" xlink:title="Tests on function pointers, lambdas, and function_refs.">
<polygon fill="white" stroke="#666666" points="1392,-151 1288,-151 1288,-121 1392,-121 1392,-151"/>
<text text-anchor="start" x="1296" y="-139" font-family="Helvetica,sans-Serif" font-size="10.00">tests/Function_ref</text>
<text text-anchor="middle" x="1340" y="-128" font-family="Helvetica,sans-Serif" font-size="10.00">_test.cpp</text>
</a>
</g>
</g>
<!-- Node5&#45;&gt;Node18 -->
<g id="edge18" class="edge">
<title>Node5&#45;&gt;Node18</title>
<path fill="none" stroke="#63b8ff" d="M1084.41,-188.03C1138.5,-178.39 1213.43,-164.61 1279,-151 1281.87,-150.4 1284.82,-149.78 1287.79,-149.13"/>
<polygon fill="#63b8ff" stroke="#63b8ff" points="1083.79,-184.59 1074.56,-189.78 1085.01,-191.48 1083.79,-184.59"/>
</g>
<!-- Node7 -->
<g id="node7" class="node">
<title>Node7</title>
<g id="a_node7"><a xlink:href="_metropolis_8hpp.html" target="_top" xlink:title="Perform Metropolis&#45;Hastings algorithm on Delaunay Triangulations.">
<polygon fill="white" stroke="#666666" points="545,-79.5 417,-79.5 417,-60.5 545,-60.5 545,-79.5"/>
<text text-anchor="middle" x="481" y="-67.5" font-family="Helvetica,sans-Serif" font-size="10.00">include/Metropolis.hpp</text>
</a>
</g>
</g>
<!-- Node6&#45;&gt;Node7 -->
<g id="edge6" class="edge">
<title>Node6&#45;&gt;Node7</title>
<path fill="none" stroke="#63b8ff" d="M604.98,-122.52C574.63,-109.91 528.53,-90.75 501.93,-79.7"/>
<polygon fill="#63b8ff" stroke="#63b8ff" points="603.65,-125.76 614.23,-126.37 606.34,-119.3 603.65,-125.76"/>
</g>
<!-- Node11 -->
<g id="node11" class="node">
<title>Node11</title>
<g id="a_node11"><a xlink:href="_move__always_8hpp.html" target="_top" xlink:title="Randomly selects moves to always perform on triangulations.">
<polygon fill="white" stroke="#666666" points="706.5,-79.5 563.5,-79.5 563.5,-60.5 706.5,-60.5 706.5,-79.5"/>
<text text-anchor="middle" x="635" y="-67.5" font-family="Helvetica,sans-Serif" font-size="10.00">include/Move_always.hpp</text>
</a>
</g>
</g>
<!-- Node6&#45;&gt;Node11 -->
<g id="edge10" class="edge">
<title>Node6&#45;&gt;Node11</title>
<path fill="none" stroke="#63b8ff" d="M635,-116.08C635,-104.13 635,-89.22 635,-79.91"/>
<polygon fill="#63b8ff" stroke="#63b8ff" points="631.5,-116.37 635,-126.37 638.5,-116.37 631.5,-116.37"/>
</g>
<!-- Node13 -->
<g id="node13" class="node">
<title>Node13</title>
<g id="a_node13"><a xlink:href="_move__command__test_8cpp.html" target="_top" xlink:title="Tests of MoveCommand, that is, that moves are handled properly.">
<polygon fill="white" stroke="#666666" points="849.5,-85 724.5,-85 724.5,-55 849.5,-55 849.5,-85"/>
<text text-anchor="start" x="732.5" y="-73" font-family="Helvetica,sans-Serif" font-size="10.00">tests/Move_command</text>
<text text-anchor="middle" x="787" y="-62" font-family="Helvetica,sans-Serif" font-size="10.00">_test.cpp</text>
</a>
</g>
</g>
<!-- Node6&#45;&gt;Node13 -->
<g id="edge13" class="edge">
<title>Node6&#45;&gt;Node13</title>
<path fill="none" stroke="#63b8ff" d="M665.01,-122.36C690.5,-111.63 727.04,-96.25 753.48,-85.12"/>
<polygon fill="#63b8ff" stroke="#63b8ff" points="663.36,-119.26 655.5,-126.37 666.07,-125.71 663.36,-119.26"/>
</g>
<!-- Node8 -->
<g id="node8" class="node">
<title>Node8</title>
<g id="a_node8"><a xlink:href="cdt-opt_8cpp.html" target="_top" xlink:title="Outputs values to determine optimizations.">
<polygon fill="white" stroke="#666666" points="658.5,-19 569.5,-19 569.5,0 658.5,0 658.5,-19"/>
<text text-anchor="middle" x="614" y="-7" font-family="Helvetica,sans-Serif" font-size="10.00">src/cdt&#45;opt.cpp</text>
</a>
</g>
</g>
<!-- Node7&#45;&gt;Node8 -->
<g id="edge7" class="edge">
<title>Node7&#45;&gt;Node8</title>
<path fill="none" stroke="#63b8ff" d="M509.57,-56.43C535.25,-45.14 572.27,-28.86 594.64,-19.02"/>
<polygon fill="#63b8ff" stroke="#63b8ff" points="508.08,-53.26 500.34,-60.49 510.9,-59.67 508.08,-53.26"/>
</g>
<!-- Node9 -->
<g id="node9" class="node">
<title>Node9</title>
<g id="a_node9"><a xlink:href="cdt_8cpp.html" target="_top" xlink:title="The main executable.">
<polygon fill="white" stroke="#666666" points="392.5,-19 323.5,-19 323.5,0 392.5,0 392.5,-19"/>
<text text-anchor="middle" x="358" y="-7" font-family="Helvetica,sans-Serif" font-size="10.00">src/cdt.cpp</text>
</a>
</g>
</g>
<!-- Node7&#45;&gt;Node9 -->
<g id="edge8" class="edge">
<title>Node7&#45;&gt;Node9</title>
<path fill="none" stroke="#63b8ff" d="M453.95,-56.13C430.22,-44.85 396.41,-28.77 375.91,-19.02"/>
<polygon fill="#63b8ff" stroke="#63b8ff" points="452.58,-59.36 463.11,-60.49 455.59,-53.04 452.58,-59.36"/>
</g>
<!-- Node10 -->
<g id="node10" class="node">
<title>Node10</title>
<g id="a_node10"><a xlink:href="_metropolis__test_8cpp.html" target="_top" xlink:title="Tests for the Metropolis&#45;Hastings algorithm.">
<polygon fill="white" stroke="#666666" points="551,-19 411,-19 411,0 551,0 551,-19"/>
<text text-anchor="middle" x="481" y="-7" font-family="Helvetica,sans-Serif" font-size="10.00">tests/Metropolis_test.cpp</text>
</a>
</g>
</g>
<!-- Node7&#45;&gt;Node10 -->
<g id="edge9" class="edge">
<title>Node7&#45;&gt;Node10</title>
<path fill="none" stroke="#63b8ff" d="M481,-50.16C481,-39.74 481,-27.3 481,-19.17"/>
<polygon fill="#63b8ff" stroke="#63b8ff" points="477.5,-50.37 481,-60.37 484.5,-50.37 477.5,-50.37"/>
</g>
<!-- Node11&#45;&gt;Node8 -->
<g id="edge11" class="edge">
<title>Node11&#45;&gt;Node8</title>
<path fill="none" stroke="#63b8ff" d="M628.47,-50.82C624.69,-40.28 620.09,-27.48 617.11,-19.17"/>
<polygon fill="#63b8ff" stroke="#63b8ff" points="625.23,-52.14 631.9,-60.37 631.82,-49.77 625.23,-52.14"/>
</g>
<!-- Node12 -->
<g id="node12" class="node">
<title>Node12</title>
<g id="a_node12"><a xlink:href="_move__always__test_8cpp.html" target="_top" xlink:title="Tests for the Move Always algorithm.">
<polygon fill="white" stroke="#666666" points="831.5,-19 676.5,-19 676.5,0 831.5,0 831.5,-19"/>
<text text-anchor="middle" x="754" y="-7" font-family="Helvetica,sans-Serif" font-size="10.00">tests/Move_always_test.cpp</text>
</a>
</g>
</g>
<!-- Node11&#45;&gt;Node12 -->
<g id="edge12" class="edge">
<title>Node11&#45;&gt;Node12</title>
<path fill="none" stroke="#63b8ff" d="M661.48,-55.98C684.41,-44.71 716.93,-28.73 736.68,-19.02"/>
<polygon fill="#63b8ff" stroke="#63b8ff" points="659.73,-52.94 652.3,-60.49 662.82,-59.22 659.73,-52.94"/>
</g>
<!-- Node29&#45;&gt;Node5 -->
<g id="edge30" class="edge">
<title>Node29&#45;&gt;Node5</title>
<path fill="none" stroke="#63b8ff" d="M988.51,-363.72C993.33,-327.65 1003.8,-249.37 1008.1,-217.22"/>
<polygon fill="#63b8ff" stroke="#63b8ff" points="985.01,-363.47 987.16,-373.84 991.95,-364.39 985.01,-363.47"/>
</g>
</g>
</svg>
