<?xml version="1.0" encoding="UTF-8" standalone="no"?>
<!DOCTYPE svg PUBLIC "-//W3C//DTD SVG 1.1//EN"
 "http://www.w3.org/Graphics/SVG/1.1/DTD/svg11.dtd">
<!-- Generated by graphviz version 2.43.0 (0)
 -->
<!-- Title: include/Triangulation_traits.hpp Pages: 1 -->
<svg width="1632pt" height="531pt"
 viewBox="0.00 0.00 1632.00 531.00" xmlns="http://www.w3.org/2000/svg" xmlns:xlink="http://www.w3.org/1999/xlink">
<g id="graph0" class="graph" transform="scale(1 1) rotate(0) translate(4 527)">
<title>include/Triangulation_traits.hpp</title>
<polygon fill="white" stroke="transparent" points="-4,4 -4,-527 1628,-527 1628,4 -4,4"/>
<!-- Node1 -->
<g id="node1" class="node">
<title>Node1</title>
<g id="a_node1"><a xlink:title="Traits class for particular uses of CGAL.">
<polygon fill="#bfbfbf" stroke="black" points="1236.5,-492.5 1236.5,-522.5 1354.5,-522.5 1354.5,-492.5 1236.5,-492.5"/>
<text text-anchor="start" x="1244.5" y="-510.5" font-family="Helvetica,sans-Serif" font-size="10.00">include/Triangulation</text>
<text text-anchor="middle" x="1295.5" y="-499.5" font-family="Helvetica,sans-Serif" font-size="10.00">_traits.hpp</text>
</a>
</g>
</g>
<!-- Node2 -->
<g id="node2" class="node">
<title>Node2</title>
<g id="a_node2"><a xlink:href="_foliated__triangulation_8hpp.html" target="_top" xlink:title="Create foliated spherical triangulations.">
<polygon fill="white" stroke="black" points="1204.5,-436.5 1204.5,-455.5 1386.5,-455.5 1386.5,-436.5 1204.5,-436.5"/>
<text text-anchor="middle" x="1295.5" y="-443.5" font-family="Helvetica,sans-Serif" font-size="10.00">include/Foliated_triangulation.hpp</text>
</a>
</g>
</g>
<!-- Node1&#45;&gt;Node2 -->
<g id="edge1" class="edge">
<title>Node1&#45;&gt;Node2</title>
<path fill="none" stroke="midnightblue" d="M1295.5,-482.29C1295.5,-472.86 1295.5,-462.65 1295.5,-455.66"/>
<polygon fill="midnightblue" stroke="midnightblue" points="1292,-482.4 1295.5,-492.4 1299,-482.4 1292,-482.4"/>
</g>
<!-- Node3 -->
<g id="node3" class="node">
<title>Node3</title>
<g id="a_node3"><a xlink:href="_geometry_8hpp.html" target="_top" xlink:title="Geometric quantities of Manifold used by MoveAlgorithm.">
<polygon fill="white" stroke="black" points="1079,-375 1079,-394 1202,-394 1202,-375 1079,-375"/>
<text text-anchor="middle" x="1140.5" y="-382" font-family="Helvetica,sans-Serif" font-size="10.00">include/Geometry.hpp</text>
</a>
</g>
</g>
<!-- Node2&#45;&gt;Node3 -->
<g id="edge2" class="edge">
<title>Node2&#45;&gt;Node3</title>
<path fill="none" stroke="midnightblue" d="M1263.67,-432.78C1233.55,-421.22 1189.12,-404.16 1162.67,-394.01"/>
<polygon fill="midnightblue" stroke="midnightblue" points="1262.7,-436.16 1273.29,-436.48 1265.21,-429.62 1262.7,-436.16"/>
</g>
<!-- Node27 -->
<g id="node27" class="node">
<title>Node27</title>
<g id="a_node27"><a xlink:href="_foliated__triangulation__test_8cpp.html" target="_top" xlink:title="Tests for foliated triangulations.">
<polygon fill="white" stroke="black" points="1220.5,-369.5 1220.5,-399.5 1370.5,-399.5 1370.5,-369.5 1220.5,-369.5"/>
<text text-anchor="start" x="1228.5" y="-387.5" font-family="Helvetica,sans-Serif" font-size="10.00">tests/Foliated_triangulation</text>
<text text-anchor="middle" x="1295.5" y="-376.5" font-family="Helvetica,sans-Serif" font-size="10.00">_test.cpp</text>
</a>
</g>
</g>
<!-- Node2&#45;&gt;Node27 -->
<g id="edge27" class="edge">
<title>Node2&#45;&gt;Node27</title>
<path fill="none" stroke="midnightblue" d="M1295.5,-426.23C1295.5,-417.59 1295.5,-407.5 1295.5,-399.52"/>
<polygon fill="midnightblue" stroke="midnightblue" points="1292,-426.48 1295.5,-436.48 1299,-426.48 1292,-426.48"/>
</g>
<!-- Node28 -->
<g id="node28" class="node">
<title>Node28</title>
<g id="a_node28"><a xlink:href="_tetrahedron__test_8cpp.html" target="_top" xlink:title="Tests for 3D triangulated and foliated tetrahedrons.">
<polygon fill="white" stroke="black" points="1388.5,-375 1388.5,-394 1534.5,-394 1534.5,-375 1388.5,-375"/>
<text text-anchor="middle" x="1461.5" y="-382" font-family="Helvetica,sans-Serif" font-size="10.00">tests/Tetrahedron_test.cpp</text>
</a>
</g>
</g>
<!-- Node2&#45;&gt;Node28 -->
<g id="edge28" class="edge">
<title>Node2&#45;&gt;Node28</title>
<path fill="none" stroke="midnightblue" d="M1328.75,-433.08C1361.02,-421.52 1409.18,-404.25 1437.76,-394.01"/>
<polygon fill="midnightblue" stroke="midnightblue" points="1327.52,-429.81 1319.28,-436.48 1329.88,-436.4 1327.52,-429.81"/>
</g>
<!-- Node4 -->
<g id="node4" class="node">
<title>Node4</title>
<g id="a_node4"><a xlink:href="_manifold_8hpp.html" target="_top" xlink:title="Data structures for manifolds.">
<polygon fill="white" stroke="black" points="1008,-313.5 1008,-332.5 1127,-332.5 1127,-313.5 1008,-313.5"/>
<text text-anchor="middle" x="1067.5" y="-320.5" font-family="Helvetica,sans-Serif" font-size="10.00">include/Manifold.hpp</text>
</a>
</g>
</g>
<!-- Node3&#45;&gt;Node4 -->
<g id="edge3" class="edge">
<title>Node3&#45;&gt;Node4</title>
<path fill="none" stroke="midnightblue" d="M1122.06,-368.47C1108.1,-357.09 1089.42,-341.87 1077.94,-332.51"/>
<polygon fill="midnightblue" stroke="midnightblue" points="1120.08,-371.37 1130.04,-374.98 1124.5,-365.94 1120.08,-371.37"/>
</g>
<!-- Node26 -->
<g id="node26" class="node">
<title>Node26</title>
<g id="a_node26"><a xlink:href="_geometry__test_8cpp.html" target="_top" xlink:title="Tests of new geometry data structure.">
<polygon fill="white" stroke="black" points="1145,-313.5 1145,-332.5 1282,-332.5 1282,-313.5 1145,-313.5"/>
<text text-anchor="middle" x="1213.5" y="-320.5" font-family="Helvetica,sans-Serif" font-size="10.00">tests/Geometry_test.cpp</text>
</a>
</g>
</g>
<!-- Node3&#45;&gt;Node26 -->
<g id="edge26" class="edge">
<title>Node3&#45;&gt;Node26</title>
<path fill="none" stroke="midnightblue" d="M1158.94,-368.47C1172.9,-357.09 1191.58,-341.87 1203.06,-332.51"/>
<polygon fill="midnightblue" stroke="midnightblue" points="1156.5,-365.94 1150.96,-374.98 1160.92,-371.37 1156.5,-365.94"/>
</g>
<!-- Node5 -->
<g id="node5" class="node">
<title>Node5</title>
<g id="a_node5"><a xlink:href="_ergodic__moves__3_8hpp.html" target="_top" xlink:title="Pachner moves on 2+1 dimensional foliated Delaunay triangulations.">
<polygon fill="white" stroke="black" points="549,-246.5 549,-276.5 678,-276.5 678,-246.5 549,-246.5"/>
<text text-anchor="start" x="557" y="-264.5" font-family="Helvetica,sans-Serif" font-size="10.00">include/Ergodic_moves</text>
<text text-anchor="middle" x="613.5" y="-253.5" font-family="Helvetica,sans-Serif" font-size="10.00">_3.hpp</text>
</a>
</g>
</g>
<!-- Node4&#45;&gt;Node5 -->
<g id="edge4" class="edge">
<title>Node4&#45;&gt;Node5</title>
<path fill="none" stroke="midnightblue" d="M997.76,-315.34C921.38,-307.67 795.38,-293.93 687.5,-277 684.4,-276.51 681.22,-275.99 678.02,-275.44"/>
<polygon fill="midnightblue" stroke="midnightblue" points="997.45,-318.82 1007.74,-316.33 998.14,-311.86 997.45,-318.82"/>
</g>
<!-- Node19 -->
<g id="node19" class="node">
<title>Node19</title>
<g id="a_node19"><a xlink:href="cdt-viewer_8cpp.html" target="_top" xlink:title="Views 3D spacetimes.">
<polygon fill="white" stroke="black" points="696.5,-252 696.5,-271 800.5,-271 800.5,-252 696.5,-252"/>
<text text-anchor="middle" x="748.5" y="-259" font-family="Helvetica,sans-Serif" font-size="10.00">src/cdt&#45;viewer.cpp</text>
</a>
</g>
</g>
<!-- Node4&#45;&gt;Node19 -->
<g id="edge19" class="edge">
<title>Node4&#45;&gt;Node19</title>
<path fill="none" stroke="midnightblue" d="M1002.82,-311.84C950.51,-303.35 875.05,-290.49 809.5,-277 800.86,-275.22 791.59,-273.12 782.94,-271.07"/>
<polygon fill="midnightblue" stroke="midnightblue" points="1002.53,-315.33 1012.96,-313.47 1003.65,-308.42 1002.53,-315.33"/>
</g>
<!-- Node20 -->
<g id="node20" class="node">
<title>Node20</title>
<g id="a_node20"><a xlink:href="initialize_8cpp.html" target="_top" xlink:title="Generates initial spacetimes.">
<polygon fill="white" stroke="black" points="818.5,-252 818.5,-271 914.5,-271 914.5,-252 818.5,-252"/>
<text text-anchor="middle" x="866.5" y="-259" font-family="Helvetica,sans-Serif" font-size="10.00">src/initialize.cpp</text>
</a>
</g>
</g>
<!-- Node4&#45;&gt;Node20 -->
<g id="edge20" class="edge">
<title>Node4&#45;&gt;Node20</title>
<path fill="none" stroke="midnightblue" d="M1028.75,-310.53C989.68,-298.96 930.3,-281.38 895.24,-271.01"/>
<polygon fill="midnightblue" stroke="midnightblue" points="1028.12,-313.99 1038.7,-313.48 1030.11,-307.28 1028.12,-313.99"/>
</g>
<!-- Node21 -->
<g id="node21" class="node">
<title>Node21</title>
<g id="a_node21"><a xlink:href="_manifold__test_8cpp.html" target="_top" xlink:title="Tests of new manifold data structure.">
<polygon fill="white" stroke="black" points="933,-252 933,-271 1064,-271 1064,-252 933,-252"/>
<text text-anchor="middle" x="998.5" y="-259" font-family="Helvetica,sans-Serif" font-size="10.00">tests/Manifold_test.cpp</text>
</a>
</g>
</g>
<!-- Node4&#45;&gt;Node21 -->
<g id="edge21" class="edge">
<title>Node4&#45;&gt;Node21</title>
<path fill="none" stroke="midnightblue" d="M1049.7,-306.65C1036.54,-295.31 1019.12,-280.28 1008.37,-271.01"/>
<polygon fill="midnightblue" stroke="midnightblue" points="1047.76,-309.6 1057.61,-313.48 1052.33,-304.29 1047.76,-309.6"/>
</g>
<!-- Node22 -->
<g id="node22" class="node">
<title>Node22</title>
<g id="a_node22"><a xlink:href="_move__tracker__test_8cpp.html" target="_top" xlink:title="Tests of MoveTracker, that is, that moves are tracked properly.">
<polygon fill="white" stroke="black" points="1082.5,-246.5 1082.5,-276.5 1192.5,-276.5 1192.5,-246.5 1082.5,-246.5"/>
<text text-anchor="start" x="1090.5" y="-264.5" font-family="Helvetica,sans-Serif" font-size="10.00">tests/Move_tracker</text>
<text text-anchor="middle" x="1137.5" y="-253.5" font-family="Helvetica,sans-Serif" font-size="10.00">_test.cpp</text>
</a>
</g>
</g>
<!-- Node4&#45;&gt;Node22 -->
<g id="edge22" class="edge">
<title>Node4&#45;&gt;Node22</title>
<path fill="none" stroke="midnightblue" d="M1085.24,-306.92C1096.23,-297.58 1110.25,-285.66 1121,-276.52"/>
<polygon fill="midnightblue" stroke="midnightblue" points="1082.88,-304.33 1077.53,-313.48 1087.42,-309.67 1082.88,-304.33"/>
</g>
<!-- Node23 -->
<g id="node23" class="node">
<title>Node23</title>
<g id="a_node23"><a xlink:href="_s3_action__test_8cpp.html" target="_top" xlink:title="Tests for the S3 action functions.">
<polygon fill="white" stroke="black" points="1211,-252 1211,-271 1342,-271 1342,-252 1211,-252"/>
<text text-anchor="middle" x="1276.5" y="-259" font-family="Helvetica,sans-Serif" font-size="10.00">tests/S3Action_test.cpp</text>
</a>
</g>
</g>
<!-- Node4&#45;&gt;Node23 -->
<g id="edge23" class="edge">
<title>Node4&#45;&gt;Node23</title>
<path fill="none" stroke="midnightblue" d="M1107.28,-310.68C1147.89,-299.11 1210.01,-281.43 1246.61,-271.01"/>
<polygon fill="midnightblue" stroke="midnightblue" points="1106.1,-307.37 1097.44,-313.48 1108.02,-314.1 1106.1,-307.37"/>
</g>
<!-- Node24 -->
<g id="node24" class="node">
<title>Node24</title>
<g id="a_node24"><a xlink:href="_utilities__test_8cpp.html" target="_top" xlink:title="Tests on utility functions.">
<polygon fill="white" stroke="black" points="1360.5,-252 1360.5,-271 1486.5,-271 1486.5,-252 1360.5,-252"/>
<text text-anchor="middle" x="1423.5" y="-259" font-family="Helvetica,sans-Serif" font-size="10.00">tests/Utilities_test.cpp</text>
</a>
</g>
</g>
<!-- Node4&#45;&gt;Node24 -->
<g id="edge24" class="edge">
<title>Node4&#45;&gt;Node24</title>
<path fill="none" stroke="midnightblue" d="M1135.9,-311.98C1193.5,-303.34 1278.04,-290.21 1351.5,-277 1361.67,-275.17 1372.61,-273.05 1382.81,-271"/>
<polygon fill="midnightblue" stroke="midnightblue" points="1135.19,-308.54 1125.82,-313.48 1136.23,-315.47 1135.19,-308.54"/>
</g>
<!-- Node25 -->
<g id="node25" class="node">
<title>Node25</title>
<g id="a_node25"><a xlink:href="_vertex__test_8cpp.html" target="_top" xlink:title="Tests on points and vertices in foliated Delaunay triangulations.">
<polygon fill="white" stroke="black" points="1505,-252 1505,-271 1624,-271 1624,-252 1505,-252"/>
<text text-anchor="middle" x="1564.5" y="-259" font-family="Helvetica,sans-Serif" font-size="10.00">tests/Vertex_test.cpp</text>
</a>
</g>
</g>
<!-- Node4&#45;&gt;Node25 -->
<g id="edge25" class="edge">
<title>Node4&#45;&gt;Node25</title>
<path fill="none" stroke="midnightblue" d="M1137.53,-312.92C1297.54,-294.9 1340.28,-301.02 1495.5,-277 1505.9,-275.39 1517.1,-273.23 1527.39,-271.06"/>
<polygon fill="midnightblue" stroke="midnightblue" points="1136.86,-309.47 1127.33,-314.09 1137.66,-316.43 1136.86,-309.47"/>
</g>
<!-- Node6 -->
<g id="node6" class="node">
<title>Node6</title>
<g id="a_node6"><a xlink:href="_move__command_8hpp.html" target="_top" xlink:title="Do ergodic moves using the Command pattern.">
<polygon fill="white" stroke="black" points="233,-185 233,-204 390,-204 390,-185 233,-185"/>
<text text-anchor="middle" x="311.5" y="-192" font-family="Helvetica,sans-Serif" font-size="10.00">include/Move_command.hpp</text>
</a>
</g>
</g>
<!-- Node5&#45;&gt;Node6 -->
<g id="edge5" class="edge">
<title>Node5&#45;&gt;Node6</title>
<path fill="none" stroke="midnightblue" d="M538.64,-244.39C479.31,-231.62 398.75,-214.28 351.23,-204.05"/>
<polygon fill="midnightblue" stroke="midnightblue" points="538.2,-247.87 548.71,-246.56 539.67,-241.03 538.2,-247.87"/>
</g>
<!-- Node15 -->
<g id="node15" class="node">
<title>Node15</title>
<g id="a_node15"><a xlink:href="bistellar-flip_8cpp.html" target="_top" xlink:title="Tests and views bistellar flips.">
<polygon fill="white" stroke="black" points="408,-185 408,-204 521,-204 521,-185 408,-185"/>
<text text-anchor="middle" x="464.5" y="-192" font-family="Helvetica,sans-Serif" font-size="10.00">src/bistellar&#45;flip.cpp</text>
</a>
</g>
</g>
<!-- Node5&#45;&gt;Node15 -->
<g id="edge15" class="edge">
<title>Node5&#45;&gt;Node15</title>
<path fill="none" stroke="midnightblue" d="M571.77,-242.3C543.03,-229.76 506.18,-213.68 484,-204.01"/>
<polygon fill="midnightblue" stroke="midnightblue" points="570.6,-245.61 581.17,-246.4 573.4,-239.19 570.6,-245.61"/>
</g>
<!-- Node16 -->
<g id="node16" class="node">
<title>Node16</title>
<g id="a_node16"><a xlink:href="_apply__move__test_8cpp.html" target="_top" xlink:title="Applying ergodic moves to manifolds.">
<polygon fill="white" stroke="black" points="539,-185 539,-204 688,-204 688,-185 539,-185"/>
<text text-anchor="middle" x="613.5" y="-192" font-family="Helvetica,sans-Serif" font-size="10.00">tests/Apply_move_test.cpp</text>
</a>
</g>
</g>
<!-- Node5&#45;&gt;Node16 -->
<g id="edge16" class="edge">
<title>Node5&#45;&gt;Node16</title>
<path fill="none" stroke="midnightblue" d="M613.5,-236.25C613.5,-225.02 613.5,-212.38 613.5,-204.19"/>
<polygon fill="midnightblue" stroke="midnightblue" points="610,-236.4 613.5,-246.4 617,-236.4 610,-236.4"/>
</g>
<!-- Node17 -->
<g id="node17" class="node">
<title>Node17</title>
<g id="a_node17"><a xlink:href="_ergodic__moves__3__test_8cpp.html" target="_top" xlink:title="Tests for ergodic moves on foliated triangulations.">
<polygon fill="white" stroke="black" points="706.5,-179.5 706.5,-209.5 824.5,-209.5 824.5,-179.5 706.5,-179.5"/>
<text text-anchor="start" x="714.5" y="-197.5" font-family="Helvetica,sans-Serif" font-size="10.00">tests/Ergodic_moves</text>
<text text-anchor="middle" x="765.5" y="-186.5" font-family="Helvetica,sans-Serif" font-size="10.00">_3_test.cpp</text>
</a>
</g>
</g>
<!-- Node5&#45;&gt;Node17 -->
<g id="edge17" class="edge">
<title>Node5&#45;&gt;Node17</title>
<path fill="none" stroke="midnightblue" d="M655.81,-242.41C680.08,-232.03 710.09,-219.2 732.58,-209.58"/>
<polygon fill="midnightblue" stroke="midnightblue" points="654.3,-239.25 646.48,-246.4 657.05,-245.68 654.3,-239.25"/>
</g>
<!-- Node18 -->
<g id="node18" class="node">
<title>Node18</title>
<g id="a_node18"><a xlink:href="_function__ref__test_8cpp.html" target="_top" xlink:title="Tests on function pointers, lambdas, and function_refs.">
<polygon fill="white" stroke="black" points="842.5,-179.5 842.5,-209.5 946.5,-209.5 946.5,-179.5 842.5,-179.5"/>
<text text-anchor="start" x="850.5" y="-197.5" font-family="Helvetica,sans-Serif" font-size="10.00">tests/Function_ref</text>
<text text-anchor="middle" x="894.5" y="-186.5" font-family="Helvetica,sans-Serif" font-size="10.00">_test.cpp</text>
</a>
</g>
</g>
<!-- Node5&#45;&gt;Node18 -->
<g id="edge18" class="edge">
<title>Node5&#45;&gt;Node18</title>
<path fill="none" stroke="midnightblue" d="M684.99,-244.24C728.04,-234.41 783.94,-221.58 833.5,-210 836.36,-209.33 839.3,-208.64 842.26,-207.95"/>
<polygon fill="midnightblue" stroke="midnightblue" points="684.14,-240.84 675.17,-246.48 685.7,-247.67 684.14,-240.84"/>
</g>
<!-- Node7 -->
<g id="node7" class="node">
<title>Node7</title>
<g id="a_node7"><a xlink:href="_move__strategy_8hpp.html" target="_top" xlink:title="Template class for move algorithms (strategies) on manifolds.">
<polygon fill="white" stroke="black" points="161,-118 161,-137 308,-137 308,-118 161,-118"/>
<text text-anchor="middle" x="234.5" y="-125" font-family="Helvetica,sans-Serif" font-size="10.00">include/Move_strategy.hpp</text>
</a>
</g>
</g>
<!-- Node6&#45;&gt;Node7 -->
<g id="edge6" class="edge">
<title>Node6&#45;&gt;Node7</title>
<path fill="none" stroke="midnightblue" d="M293.39,-178.21C278.22,-165.41 257.11,-147.59 244.72,-137.13"/>
<polygon fill="midnightblue" stroke="midnightblue" points="291.22,-180.96 301.12,-184.73 295.73,-175.61 291.22,-180.96"/>
</g>
<!-- Node14 -->
<g id="node14" class="node">
<title>Node14</title>
<g id="a_node14"><a xlink:href="_move__command__test_8cpp.html" target="_top" xlink:title="Tests of MoveCommand, that is, that moves are handled properly.">
<polygon fill="white" stroke="black" points="326,-112.5 326,-142.5 451,-142.5 451,-112.5 326,-112.5"/>
<text text-anchor="start" x="334" y="-130.5" font-family="Helvetica,sans-Serif" font-size="10.00">tests/Move_command</text>
<text text-anchor="middle" x="388.5" y="-119.5" font-family="Helvetica,sans-Serif" font-size="10.00">_test.cpp</text>
</a>
</g>
</g>
<!-- Node6&#45;&gt;Node14 -->
<g id="edge14" class="edge">
<title>Node6&#45;&gt;Node14</title>
<path fill="none" stroke="midnightblue" d="M329.58,-178.24C342.36,-167.45 359.36,-153.1 371.81,-142.59"/>
<polygon fill="midnightblue" stroke="midnightblue" points="327.27,-175.61 321.88,-184.73 331.78,-180.96 327.27,-175.61"/>
</g>
<!-- Node8 -->
<g id="node8" class="node">
<title>Node8</title>
<g id="a_node8"><a xlink:href="_metropolis_8hpp.html" target="_top" xlink:title="Perform Metropolis&#45;Hastings algorithm on Delaunay Triangulations.">
<polygon fill="white" stroke="black" points="93.5,-56.5 93.5,-75.5 221.5,-75.5 221.5,-56.5 93.5,-56.5"/>
<text text-anchor="middle" x="157.5" y="-63.5" font-family="Helvetica,sans-Serif" font-size="10.00">include/Metropolis.hpp</text>
</a>
</g>
</g>
<!-- Node7&#45;&gt;Node8 -->
<g id="edge7" class="edge">
<title>Node7&#45;&gt;Node8</title>
<path fill="none" stroke="midnightblue" d="M215.47,-111.79C200.7,-100.38 180.74,-84.96 168.51,-75.51"/>
<polygon fill="midnightblue" stroke="midnightblue" points="213.41,-114.63 223.47,-117.98 217.69,-109.09 213.41,-114.63"/>
</g>
<!-- Node12 -->
<g id="node12" class="node">
<title>Node12</title>
<g id="a_node12"><a xlink:href="_move__always_8hpp.html" target="_top" xlink:title="Randomly selects moves to always perform on triangulations.">
<polygon fill="white" stroke="black" points="240,-56.5 240,-75.5 383,-75.5 383,-56.5 240,-56.5"/>
<text text-anchor="middle" x="311.5" y="-63.5" font-family="Helvetica,sans-Serif" font-size="10.00">include/Move_always.hpp</text>
</a>
</g>
</g>
<!-- Node7&#45;&gt;Node12 -->
<g id="edge11" class="edge">
<title>Node7&#45;&gt;Node12</title>
<path fill="none" stroke="midnightblue" d="M253.53,-111.79C268.3,-100.38 288.26,-84.96 300.49,-75.51"/>
<polygon fill="midnightblue" stroke="midnightblue" points="251.31,-109.09 245.53,-117.98 255.59,-114.63 251.31,-109.09"/>
</g>
<!-- Node9 -->
<g id="node9" class="node">
<title>Node9</title>
<g id="a_node9"><a xlink:href="cdt-opt_8cpp.html" target="_top" xlink:title="Outputs values to determine optimizations.">
<polygon fill="white" stroke="black" points="246,-0.5 246,-19.5 335,-19.5 335,-0.5 246,-0.5"/>
<text text-anchor="middle" x="290.5" y="-7.5" font-family="Helvetica,sans-Serif" font-size="10.00">src/cdt&#45;opt.cpp</text>
</a>
</g>
</g>
<!-- Node8&#45;&gt;Node9 -->
<g id="edge8" class="edge">
<title>Node8&#45;&gt;Node9</title>
<path fill="none" stroke="midnightblue" d="M187.95,-52.64C212.91,-42.5 247.58,-28.43 269.52,-19.52"/>
<polygon fill="midnightblue" stroke="midnightblue" points="186.52,-49.44 178.57,-56.44 189.16,-55.92 186.52,-49.44"/>
</g>
<!-- Node10 -->
<g id="node10" class="node">
<title>Node10</title>
<g id="a_node10"><a xlink:href="cdt_8cpp.html" target="_top" xlink:title="The main executable.">
<polygon fill="white" stroke="black" points="0,-0.5 0,-19.5 69,-19.5 69,-0.5 0,-0.5"/>
<text text-anchor="middle" x="34.5" y="-7.5" font-family="Helvetica,sans-Serif" font-size="10.00">src/cdt.cpp</text>
</a>
</g>
</g>
<!-- Node8&#45;&gt;Node10 -->
<g id="edge9" class="edge">
<title>Node8&#45;&gt;Node10</title>
<path fill="none" stroke="midnightblue" d="M128.73,-52.37C105.69,-42.26 74.02,-28.35 53.9,-19.52"/>
<polygon fill="midnightblue" stroke="midnightblue" points="127.45,-55.63 138.01,-56.44 130.26,-49.22 127.45,-55.63"/>
</g>
<!-- Node11 -->
<g id="node11" class="node">
<title>Node11</title>
<g id="a_node11"><a xlink:href="_metropolis__test_8cpp.html" target="_top" xlink:title="Tests for the Metropolis&#45;Hastings algorithm.">
<polygon fill="white" stroke="black" points="87.5,-0.5 87.5,-19.5 227.5,-19.5 227.5,-0.5 87.5,-0.5"/>
<text text-anchor="middle" x="157.5" y="-7.5" font-family="Helvetica,sans-Serif" font-size="10.00">tests/Metropolis_test.cpp</text>
</a>
</g>
</g>
<!-- Node8&#45;&gt;Node11 -->
<g id="edge10" class="edge">
<title>Node8&#45;&gt;Node11</title>
<path fill="none" stroke="midnightblue" d="M157.5,-45.8C157.5,-36.91 157.5,-26.78 157.5,-19.75"/>
<polygon fill="midnightblue" stroke="midnightblue" points="154,-46.08 157.5,-56.08 161,-46.08 154,-46.08"/>
</g>
<!-- Node12&#45;&gt;Node9 -->
<g id="edge12" class="edge">
<title>Node12&#45;&gt;Node9</title>
<path fill="none" stroke="midnightblue" d="M304.38,-46.69C300.84,-37.59 296.73,-27.01 293.9,-19.75"/>
<polygon fill="midnightblue" stroke="midnightblue" points="301.15,-48.03 308.03,-56.08 307.67,-45.49 301.15,-48.03"/>
</g>
<!-- Node13 -->
<g id="node13" class="node">
<title>Node13</title>
<g id="a_node13"><a xlink:href="_move__always__test_8cpp.html" target="_top" xlink:title="Tests for the Move Always algorithm.">
<polygon fill="white" stroke="black" points="353,-0.5 353,-19.5 508,-19.5 508,-0.5 353,-0.5"/>
<text text-anchor="middle" x="430.5" y="-7.5" font-family="Helvetica,sans-Serif" font-size="10.00">tests/Move_always_test.cpp</text>
</a>
</g>
</g>
<!-- Node12&#45;&gt;Node13 -->
<g id="edge13" class="edge">
<title>Node12&#45;&gt;Node13</title>
<path fill="none" stroke="midnightblue" d="M339.64,-52.23C361.9,-42.13 392.36,-28.31 411.73,-19.52"/>
<polygon fill="midnightblue" stroke="midnightblue" points="338.02,-49.12 330.36,-56.44 340.91,-55.5 338.02,-49.12"/>
</g>
</g>
</svg>
