<?xml version="1.0" encoding="UTF-8" standalone="no"?>
<!DOCTYPE svg PUBLIC "-//W3C//DTD SVG 1.1//EN"
 "http://www.w3.org/Graphics/SVG/1.1/DTD/svg11.dtd">
<!-- Generated by graphviz version 2.43.0 (0)
 -->
<!-- Title: include/Triangulation_traits.hpp Pages: 1 -->
<svg width="972pt" height="173pt"
 viewBox="0.00 0.00 972.00 173.00" xmlns="http://www.w3.org/2000/svg" xmlns:xlink="http://www.w3.org/1999/xlink">
<g id="graph0" class="graph" transform="scale(1 1) rotate(0) translate(4 169)">
<title>include/Triangulation_traits.hpp</title>
<polygon fill="white" stroke="transparent" points="-4,4 -4,-169 968,-169 968,4 -4,4"/>
<!-- Node1 -->
<g id="node1" class="node">
<title>Node1</title>
<g id="a_node1"><a xlink:title="Traits class for particular uses of CGAL.">
<polygon fill="#bfbfbf" stroke="black" points="425,-134.5 425,-164.5 543,-164.5 543,-134.5 425,-134.5"/>
<text text-anchor="start" x="433" y="-152.5" font-family="Helvetica,sans-Serif" font-size="10.00">include/Triangulation</text>
<text text-anchor="middle" x="484" y="-141.5" font-family="Helvetica,sans-Serif" font-size="10.00">_traits.hpp</text>
</a>
</g>
</g>
<!-- Node2 -->
<g id="node2" class="node">
<title>Node2</title>
<g id="a_node2"><a xlink:href="_settings_8hpp.html" target="_top" xlink:title="Global integer and precision settings.">
<polygon fill="white" stroke="black" points="47.5,-67.5 47.5,-86.5 124.5,-86.5 124.5,-67.5 47.5,-67.5"/>
<text text-anchor="middle" x="86" y="-74.5" font-family="Helvetica,sans-Serif" font-size="10.00">Settings.hpp</text>
</a>
</g>
</g>
<!-- Node1&#45;&gt;Node2 -->
<g id="edge1" class="edge">
<title>Node1&#45;&gt;Node2</title>
<path fill="none" stroke="midnightblue" d="M424.86,-144.52C354.52,-138.75 234.02,-125.58 134,-98 127.1,-96.1 119.87,-93.46 113.18,-90.71"/>
<polygon fill="midnightblue" stroke="midnightblue" points="114.42,-87.44 103.85,-86.7 111.66,-93.87 114.42,-87.44"/>
</g>
<!-- Node5 -->
<g id="node5" class="node">
<title>Node5</title>
<g id="a_node5"><a xlink:title=" ">
<polygon fill="white" stroke="#bfbfbf" points="143,-67.5 143,-86.5 323,-86.5 323,-67.5 143,-67.5"/>
<text text-anchor="middle" x="233" y="-74.5" font-family="Helvetica,sans-Serif" font-size="10.00">CGAL/Delaunay_triangulation_3.h</text>
</a>
</g>
</g>
<!-- Node1&#45;&gt;Node5 -->
<g id="edge4" class="edge">
<title>Node1&#45;&gt;Node5</title>
<path fill="none" stroke="midnightblue" d="M434.11,-134.49C386.89,-121.22 316.91,-101.57 273.18,-89.28"/>
<polygon fill="midnightblue" stroke="midnightblue" points="274.03,-85.89 263.46,-86.55 272.14,-92.63 274.03,-85.89"/>
</g>
<!-- Node6 -->
<g id="node6" class="node">
<title>Node6</title>
<g id="a_node6"><a xlink:title=" ">
<polygon fill="white" stroke="#bfbfbf" points="341.5,-56.5 341.5,-97.5 470.5,-97.5 470.5,-56.5 341.5,-56.5"/>
<text text-anchor="start" x="349.5" y="-85.5" font-family="Helvetica,sans-Serif" font-size="10.00">CGAL/Exact_predicates</text>
<text text-anchor="start" x="349.5" y="-74.5" font-family="Helvetica,sans-Serif" font-size="10.00">_inexact_constructions</text>
<text text-anchor="middle" x="406" y="-63.5" font-family="Helvetica,sans-Serif" font-size="10.00">_kernel.h</text>
</a>
</g>
</g>
<!-- Node1&#45;&gt;Node6 -->
<g id="edge5" class="edge">
<title>Node1&#45;&gt;Node6</title>
<path fill="none" stroke="midnightblue" d="M468.22,-134.23C458.74,-125.67 446.39,-114.5 435.19,-104.38"/>
<polygon fill="midnightblue" stroke="midnightblue" points="437.44,-101.7 427.67,-97.59 432.74,-106.89 437.44,-101.7"/>
</g>
<!-- Node7 -->
<g id="node7" class="node">
<title>Node7</title>
<g id="a_node7"><a xlink:title=" ">
<polygon fill="white" stroke="#bfbfbf" points="488.5,-67.5 488.5,-86.5 637.5,-86.5 637.5,-67.5 488.5,-67.5"/>
<text text-anchor="middle" x="563" y="-74.5" font-family="Helvetica,sans-Serif" font-size="10.00">CGAL/point_generators_3.h</text>
</a>
</g>
</g>
<!-- Node1&#45;&gt;Node7 -->
<g id="edge6" class="edge">
<title>Node1&#45;&gt;Node7</title>
<path fill="none" stroke="midnightblue" d="M499.99,-134.23C513.13,-122.5 531.73,-105.9 545.32,-93.78"/>
<polygon fill="midnightblue" stroke="midnightblue" points="547.9,-96.16 553.03,-86.89 543.24,-90.94 547.9,-96.16"/>
</g>
<!-- Node8 -->
<g id="node8" class="node">
<title>Node8</title>
<g id="a_node8"><a xlink:title=" ">
<polygon fill="white" stroke="#bfbfbf" points="656,-62 656,-92 794,-92 794,-62 656,-62"/>
<text text-anchor="start" x="664" y="-80" font-family="Helvetica,sans-Serif" font-size="10.00">CGAL/Triangulation</text>
<text text-anchor="middle" x="725" y="-69" font-family="Helvetica,sans-Serif" font-size="10.00">_cell_base_with_info_3.h</text>
</a>
</g>
</g>
<!-- Node1&#45;&gt;Node8 -->
<g id="edge7" class="edge">
<title>Node1&#45;&gt;Node8</title>
<path fill="none" stroke="midnightblue" d="M531.9,-134.49C570.79,-123.11 625.76,-107.03 667.11,-94.93"/>
<polygon fill="midnightblue" stroke="midnightblue" points="668.16,-98.27 676.78,-92.11 666.2,-91.56 668.16,-98.27"/>
</g>
<!-- Node9 -->
<g id="node9" class="node">
<title>Node9</title>
<g id="a_node9"><a xlink:title=" ">
<polygon fill="white" stroke="#bfbfbf" points="812,-62 812,-92 964,-92 964,-62 812,-62"/>
<text text-anchor="start" x="820" y="-80" font-family="Helvetica,sans-Serif" font-size="10.00">CGAL/Triangulation</text>
<text text-anchor="middle" x="888" y="-69" font-family="Helvetica,sans-Serif" font-size="10.00">_vertex_base_with_info_3.h</text>
</a>
</g>
</g>
<!-- Node1&#45;&gt;Node9 -->
<g id="edge8" class="edge">
<title>Node1&#45;&gt;Node9</title>
<path fill="none" stroke="midnightblue" d="M543.02,-140.49C607.23,-131.47 712.77,-115.73 803,-98 808.81,-96.86 814.83,-95.6 820.86,-94.28"/>
<polygon fill="midnightblue" stroke="midnightblue" points="821.97,-97.62 830.97,-92.03 820.45,-90.79 821.97,-97.62"/>
</g>
<!-- Node3 -->
<g id="node3" class="node">
<title>Node3</title>
<g id="a_node3"><a xlink:title=" ">
<polygon fill="white" stroke="#bfbfbf" points="0,-0.5 0,-19.5 86,-19.5 86,-0.5 0,-0.5"/>
<text text-anchor="middle" x="43" y="-7.5" font-family="Helvetica,sans-Serif" font-size="10.00">CGAL/Gmpzf.h</text>
</a>
</g>
</g>
<!-- Node2&#45;&gt;Node3 -->
<g id="edge2" class="edge">
<title>Node2&#45;&gt;Node3</title>
<path fill="none" stroke="midnightblue" d="M80.2,-67.23C73.62,-57.29 62.74,-40.84 54.44,-28.29"/>
<polygon fill="midnightblue" stroke="midnightblue" points="57.14,-26.04 48.71,-19.63 51.31,-29.9 57.14,-26.04"/>
</g>
<!-- Node4 -->
<g id="node4" class="node">
<title>Node4</title>
<g id="a_node4"><a xlink:title=" ">
<polygon fill="white" stroke="#bfbfbf" points="104,-0.5 104,-19.5 154,-19.5 154,-0.5 104,-0.5"/>
<text text-anchor="middle" x="129" y="-7.5" font-family="Helvetica,sans-Serif" font-size="10.00">cstdint</text>
</a>
</g>
</g>
<!-- Node2&#45;&gt;Node4 -->
<g id="edge3" class="edge">
<title>Node2&#45;&gt;Node4</title>
<path fill="none" stroke="midnightblue" d="M91.8,-67.23C98.38,-57.29 109.26,-40.84 117.56,-28.29"/>
<polygon fill="midnightblue" stroke="midnightblue" points="120.69,-29.9 123.29,-19.63 114.86,-26.04 120.69,-29.9"/>
</g>
</g>
</svg>
