<?xml version="1.0" encoding="UTF-8" standalone="no"?>
<!DOCTYPE svg PUBLIC "-//W3C//DTD SVG 1.1//EN"
 "http://www.w3.org/Graphics/SVG/1.1/DTD/svg11.dtd">
<!-- Generated by graphviz version 15.1.0 (20260618.0150)
 -->
<!-- Title: include/Triangulation_traits.hpp Pages: 1 -->
<svg width="962pt" height="181pt"
 viewBox="0.00 0.00 962.00 181.00" xmlns="http://www.w3.org/2000/svg" xmlns:xlink="http://www.w3.org/1999/xlink">
<g id="graph0" class="graph" transform="scale(1 1) rotate(0) translate(4 176.5)">
<title>include/Triangulation_traits.hpp</title>
<!-- Node1 -->
<g id="Node000001" class="node">
<title>Node1</title>
<g id="a_Node000001"><a xlink:title="Traits class for particular uses of CGAL.">
<polygon fill="#999999" stroke="#666666" points="556.38,-172.5 439.12,-172.5 439.12,-139 556.38,-139 556.38,-172.5"/>
<text xml:space="preserve" text-anchor="start" x="447.12" y="-159" font-family="Helvetica,sans-Serif" font-size="10.00">include/Triangulation</text>
<text xml:space="preserve" text-anchor="middle" x="497.75" y="-146.25" font-family="Helvetica,sans-Serif" font-size="10.00">_traits.hpp</text>
</a>
</g>
</g>
<!-- Node2 -->
<g id="Node000002" class="node">
<title>Node2</title>
<g id="a_Node000002"><a xlink:title=" ">
<polygon fill="#e0e0e0" stroke="#999999" points="179.5,-90.25 0,-90.25 0,-69.5 179.5,-69.5 179.5,-90.25"/>
<text xml:space="preserve" text-anchor="middle" x="89.75" y="-76.75" font-family="Helvetica,sans-Serif" font-size="10.00">CGAL/Delaunay_triangulation_3.h</text>
</a>
</g>
</g>
<!-- Node1&#45;&gt;Node2 -->
<g id="edge1_Node000001_Node000002" class="edge">
<title>Node1&#45;&gt;Node2</title>
<g id="a_edge1_Node000001_Node000002"><a xlink:title=" ">
<path fill="none" stroke="#63b8ff" d="M438.63,-145.82C376.31,-136.18 275.37,-119.92 188.75,-103 173.74,-100.07 157.51,-96.58 142.63,-93.25"/>
<polygon fill="#63b8ff" stroke="#63b8ff" points="143.56,-89.87 133.03,-91.08 142.01,-96.7 143.56,-89.87"/>
</a>
</g>
</g>
<!-- Node3 -->
<g id="Node000003" class="node">
<title>Node3</title>
<g id="a_Node000003"><a xlink:title=" ">
<polygon fill="#e0e0e0" stroke="#999999" points="326,-103 197.5,-103 197.5,-56.75 326,-56.75 326,-103"/>
<text xml:space="preserve" text-anchor="start" x="205.5" y="-89.5" font-family="Helvetica,sans-Serif" font-size="10.00">CGAL/Exact_predicates</text>
<text xml:space="preserve" text-anchor="start" x="205.5" y="-76.75" font-family="Helvetica,sans-Serif" font-size="10.00">_inexact_constructions</text>
<text xml:space="preserve" text-anchor="middle" x="261.75" y="-64" font-family="Helvetica,sans-Serif" font-size="10.00">_kernel.h</text>
</a>
</g>
</g>
<!-- Node1&#45;&gt;Node3 -->
<g id="edge2_Node000001_Node000003" class="edge">
<title>Node1&#45;&gt;Node3</title>
<g id="a_edge2_Node000001_Node000003"><a xlink:title=" ">
<path fill="none" stroke="#63b8ff" d="M445.96,-138.54C414.11,-128.57 372.75,-115.62 337.29,-104.52"/>
<polygon fill="#63b8ff" stroke="#63b8ff" points="338.53,-101.24 327.94,-101.59 336.44,-107.92 338.53,-101.24"/>
</a>
</g>
</g>
<!-- Node4 -->
<g id="Node000004" class="node">
<title>Node4</title>
<g id="a_Node000004"><a xlink:title=" ">
<polygon fill="#e0e0e0" stroke="#999999" points="491.75,-90.25 343.75,-90.25 343.75,-69.5 491.75,-69.5 491.75,-90.25"/>
<text xml:space="preserve" text-anchor="middle" x="417.75" y="-76.75" font-family="Helvetica,sans-Serif" font-size="10.00">CGAL/point_generators_3.h</text>
</a>
</g>
</g>
<!-- Node1&#45;&gt;Node4 -->
<g id="edge3_Node000001_Node000004" class="edge">
<title>Node1&#45;&gt;Node4</title>
<g id="a_edge3_Node000001_Node000004"><a xlink:title=" ">
<path fill="none" stroke="#63b8ff" d="M480.39,-138.72C467.4,-126.72 449.65,-110.33 436.36,-98.06"/>
<polygon fill="#63b8ff" stroke="#63b8ff" points="438.82,-95.57 429.1,-91.36 434.08,-100.71 438.82,-95.57"/>
</a>
</g>
</g>
<!-- Node5 -->
<g id="Node000005" class="node">
<title>Node5</title>
<g id="a_Node000005"><a xlink:title=" ">
<polygon fill="#e0e0e0" stroke="#999999" points="647.5,-96.62 510,-96.62 510,-63.12 647.5,-63.12 647.5,-96.62"/>
<text xml:space="preserve" text-anchor="start" x="518" y="-83.12" font-family="Helvetica,sans-Serif" font-size="10.00">CGAL/Triangulation</text>
<text xml:space="preserve" text-anchor="middle" x="578.75" y="-70.38" font-family="Helvetica,sans-Serif" font-size="10.00">_cell_base_with_info_3.h</text>
</a>
</g>
</g>
<!-- Node1&#45;&gt;Node5 -->
<g id="edge4_Node000001_Node000005" class="edge">
<title>Node1&#45;&gt;Node5</title>
<g id="a_edge4_Node000001_Node000005"><a xlink:title=" ">
<path fill="none" stroke="#63b8ff" d="M515.33,-138.72C526.26,-128.75 540.51,-115.75 552.74,-104.6"/>
<polygon fill="#63b8ff" stroke="#63b8ff" points="555.06,-107.22 560.09,-97.89 550.34,-102.05 555.06,-107.22"/>
</a>
</g>
</g>
<!-- Node6 -->
<g id="Node000006" class="node">
<title>Node6</title>
<g id="a_Node000006"><a xlink:title=" ">
<polygon fill="#e0e0e0" stroke="#999999" points="817.62,-96.62 665.88,-96.62 665.88,-63.12 817.62,-63.12 817.62,-96.62"/>
<text xml:space="preserve" text-anchor="start" x="673.88" y="-83.12" font-family="Helvetica,sans-Serif" font-size="10.00">CGAL/Triangulation</text>
<text xml:space="preserve" text-anchor="middle" x="741.75" y="-70.38" font-family="Helvetica,sans-Serif" font-size="10.00">_vertex_base_with_info_3.h</text>
</a>
</g>
</g>
<!-- Node1&#45;&gt;Node6 -->
<g id="edge5_Node000001_Node000006" class="edge">
<title>Node1&#45;&gt;Node6</title>
<g id="a_edge5_Node000001_Node000006"><a xlink:title=" ">
<path fill="none" stroke="#63b8ff" d="M551.3,-138.54C588.48,-127.28 638.21,-112.22 677.53,-100.32"/>
<polygon fill="#63b8ff" stroke="#63b8ff" points="678.32,-103.74 686.88,-97.49 676.29,-97.04 678.32,-103.74"/>
</a>
</g>
</g>
<!-- Node7 -->
<g id="Node000007" class="node">
<title>Node7</title>
<g id="a_Node000007"><a xlink:href="_settings_8hpp.html" target="_top" xlink:title="Global integer and precision settings.">
<polygon fill="white" stroke="#666666" points="912.12,-90.25 835.38,-90.25 835.38,-69.5 912.12,-69.5 912.12,-90.25"/>
<text xml:space="preserve" text-anchor="middle" x="873.75" y="-76.75" font-family="Helvetica,sans-Serif" font-size="10.00">Settings.hpp</text>
</a>
</g>
</g>
<!-- Node1&#45;&gt;Node7 -->
<g id="edge6_Node000001_Node000007" class="edge">
<title>Node1&#45;&gt;Node7</title>
<g id="a_edge6_Node000001_Node000007"><a xlink:title=" ">
<path fill="none" stroke="#63b8ff" d="M556.83,-150.53C623.57,-144.61 734.86,-131.22 826.75,-103 833,-101.08 839.48,-98.47 845.56,-95.72"/>
<polygon fill="#63b8ff" stroke="#63b8ff" points="847.07,-98.88 854.56,-91.39 844.04,-92.57 847.07,-98.88"/>
</a>
</g>
</g>
<!-- Node8 -->
<g id="Node000008" class="node">
<title>Node8</title>
<g id="a_Node000008"><a xlink:title=" ">
<polygon fill="#e0e0e0" stroke="#999999" points="887.25,-20.75 748.25,-20.75 748.25,0 887.25,0 887.25,-20.75"/>
<text xml:space="preserve" text-anchor="middle" x="817.75" y="-7.25" font-family="Helvetica,sans-Serif" font-size="10.00">CGAL/GMP/Gmpzf_type.h</text>
</a>
</g>
</g>
<!-- Node7&#45;&gt;Node8 -->
<g id="edge7_Node000007_Node000008" class="edge">
<title>Node7&#45;&gt;Node8</title>
<g id="a_edge7_Node000007_Node000008"><a xlink:title=" ">
<path fill="none" stroke="#63b8ff" d="M865.73,-69.2C857.24,-58.98 843.66,-42.6 833.1,-29.88"/>
<polygon fill="#63b8ff" stroke="#63b8ff" points="835.8,-27.65 826.72,-22.19 830.42,-32.12 835.8,-27.65"/>
</a>
</g>
</g>
<!-- Node9 -->
<g id="Node000009" class="node">
<title>Node9</title>
<g id="a_Node000009"><a xlink:title=" ">
<polygon fill="#e0e0e0" stroke="#999999" points="954.25,-20.75 905.25,-20.75 905.25,0 954.25,0 954.25,-20.75"/>
<text xml:space="preserve" text-anchor="middle" x="929.75" y="-7.25" font-family="Helvetica,sans-Serif" font-size="10.00">cstdint</text>
</a>
</g>
</g>
<!-- Node7&#45;&gt;Node9 -->
<g id="edge8_Node000007_Node000009" class="edge">
<title>Node7&#45;&gt;Node9</title>
<g id="a_edge8_Node000007_Node000009"><a xlink:title=" ">
<path fill="none" stroke="#63b8ff" d="M881.77,-69.2C890.26,-58.98 903.84,-42.6 914.4,-29.88"/>
<polygon fill="#63b8ff" stroke="#63b8ff" points="917.08,-32.12 920.78,-22.19 911.7,-27.65 917.08,-32.12"/>
</a>
</g>
</g>
</g>
</svg>
