<?xml version="1.0" encoding="UTF-8" standalone="no"?>
<!DOCTYPE svg PUBLIC "-//W3C//DTD SVG 1.1//EN"
 "http://www.w3.org/Graphics/SVG/1.1/DTD/svg11.dtd">
<!-- Generated by graphviz version 2.43.0 (0)
 -->
<!-- Title: include/Triangulation_traits.hpp Pages: 1 -->
<svg width="1826pt" height="531pt"
 viewBox="0.00 0.00 1825.50 531.00" xmlns="http://www.w3.org/2000/svg" xmlns:xlink="http://www.w3.org/1999/xlink">
<g id="graph0" class="graph" transform="scale(1 1) rotate(0) translate(4 527)">
<title>include/Triangulation_traits.hpp</title>
<polygon fill="white" stroke="transparent" points="-4,4 -4,-527 1821.5,-527 1821.5,4 -4,4"/>
<!-- Node1 -->
<g id="node1" class="node">
<title>Node1</title>
<g id="a_node1"><a xlink:title="Traits class for particular uses of CGAL.">
<polygon fill="#bfbfbf" stroke="black" points="1467.5,-492.5 1467.5,-522.5 1585.5,-522.5 1585.5,-492.5 1467.5,-492.5"/>
<text text-anchor="start" x="1475.5" y="-510.5" font-family="Helvetica,sans-Serif" font-size="10.00">include/Triangulation</text>
<text text-anchor="middle" x="1526.5" y="-499.5" font-family="Helvetica,sans-Serif" font-size="10.00">_traits.hpp</text>
</a>
</g>
</g>
<!-- Node2 -->
<g id="node2" class="node">
<title>Node2</title>
<g id="a_node2"><a xlink:href="_foliated__triangulation_8hpp.html" target="_top" xlink:title="Create foliated spherical triangulations.">
<polygon fill="white" stroke="black" points="1435.5,-436.5 1435.5,-455.5 1617.5,-455.5 1617.5,-436.5 1435.5,-436.5"/>
<text text-anchor="middle" x="1526.5" y="-443.5" font-family="Helvetica,sans-Serif" font-size="10.00">include/Foliated_triangulation.hpp</text>
</a>
</g>
</g>
<!-- Node1&#45;&gt;Node2 -->
<g id="edge1" class="edge">
<title>Node1&#45;&gt;Node2</title>
<path fill="none" stroke="midnightblue" d="M1526.5,-482.29C1526.5,-472.86 1526.5,-462.65 1526.5,-455.66"/>
<polygon fill="midnightblue" stroke="midnightblue" points="1523,-482.4 1526.5,-492.4 1530,-482.4 1523,-482.4"/>
</g>
<!-- Node3 -->
<g id="node3" class="node">
<title>Node3</title>
<g id="a_node3"><a xlink:href="_geometry_8hpp.html" target="_top" xlink:title="Geometric quantities of Manifold used by MoveAlgorithm.">
<polygon fill="white" stroke="black" points="1216,-375 1216,-394 1339,-394 1339,-375 1216,-375"/>
<text text-anchor="middle" x="1277.5" y="-382" font-family="Helvetica,sans-Serif" font-size="10.00">include/Geometry.hpp</text>
</a>
</g>
</g>
<!-- Node2&#45;&gt;Node3 -->
<g id="edge2" class="edge">
<title>Node2&#45;&gt;Node3</title>
<path fill="none" stroke="midnightblue" d="M1480.94,-434.11C1432.61,-422.57 1357.27,-404.56 1313.11,-394.01"/>
<polygon fill="midnightblue" stroke="midnightblue" points="1480.28,-437.56 1490.82,-436.48 1481.91,-430.75 1480.28,-437.56"/>
</g>
<!-- Node15 -->
<g id="node15" class="node">
<title>Node15</title>
<g id="a_node15"><a xlink:href="bistellar_8cpp.html" target="_top" xlink:title="Example bistellar fip.">
<polygon fill="white" stroke="black" points="1131,-185 1131,-204 1224,-204 1224,-185 1131,-185"/>
<text text-anchor="middle" x="1177.5" y="-192" font-family="Helvetica,sans-Serif" font-size="10.00">src/bistellar.cpp</text>
</a>
</g>
</g>
<!-- Node2&#45;&gt;Node15 -->
<g id="edge26" class="edge">
<title>Node2&#45;&gt;Node15</title>
<path fill="none" stroke="midnightblue" d="M1512.45,-428.41C1506.18,-420.28 1499.17,-410.1 1494.5,-400 1464.87,-335.91 1507.1,-294.19 1455.5,-246 1422.65,-215.32 1294.38,-202.69 1224.13,-197.98"/>
<polygon fill="midnightblue" stroke="midnightblue" points="1509.82,-430.72 1518.82,-436.31 1515.27,-426.33 1509.82,-430.72"/>
</g>
<!-- Node26 -->
<g id="node26" class="node">
<title>Node26</title>
<g id="a_node26"><a xlink:href="_foliated__triangulation__test_8cpp.html" target="_top" xlink:title="Tests for foliated triangulations.">
<polygon fill="white" stroke="black" points="1503.5,-369.5 1503.5,-399.5 1653.5,-399.5 1653.5,-369.5 1503.5,-369.5"/>
<text text-anchor="start" x="1511.5" y="-387.5" font-family="Helvetica,sans-Serif" font-size="10.00">tests/Foliated_triangulation</text>
<text text-anchor="middle" x="1578.5" y="-376.5" font-family="Helvetica,sans-Serif" font-size="10.00">_test.cpp</text>
</a>
</g>
</g>
<!-- Node2&#45;&gt;Node26 -->
<g id="edge27" class="edge">
<title>Node2&#45;&gt;Node26</title>
<path fill="none" stroke="midnightblue" d="M1540.65,-428.81C1548.66,-419.65 1558.57,-408.3 1566.24,-399.52"/>
<polygon fill="midnightblue" stroke="midnightblue" points="1537.9,-426.64 1533.95,-436.48 1543.17,-431.25 1537.9,-426.64"/>
</g>
<!-- Node27 -->
<g id="node27" class="node">
<title>Node27</title>
<g id="a_node27"><a xlink:href="_tetrahedron__test_8cpp.html" target="_top" xlink:title="Tests for 3D triangulated and foliated tetrahedrons.">
<polygon fill="white" stroke="black" points="1671.5,-375 1671.5,-394 1817.5,-394 1817.5,-375 1671.5,-375"/>
<text text-anchor="middle" x="1744.5" y="-382" font-family="Helvetica,sans-Serif" font-size="10.00">tests/Tetrahedron_test.cpp</text>
</a>
</g>
</g>
<!-- Node2&#45;&gt;Node27 -->
<g id="edge28" class="edge">
<title>Node2&#45;&gt;Node27</title>
<path fill="none" stroke="midnightblue" d="M1567.45,-433.82C1609.8,-422.26 1674.98,-404.47 1713.32,-394.01"/>
<polygon fill="midnightblue" stroke="midnightblue" points="1566.46,-430.47 1557.73,-436.48 1568.3,-437.22 1566.46,-430.47"/>
</g>
<!-- Node4 -->
<g id="node4" class="node">
<title>Node4</title>
<g id="a_node4"><a xlink:href="_manifold_8hpp.html" target="_top" xlink:title="Data structures for manifolds.">
<polygon fill="white" stroke="black" points="971,-313.5 971,-332.5 1090,-332.5 1090,-313.5 971,-313.5"/>
<text text-anchor="middle" x="1030.5" y="-320.5" font-family="Helvetica,sans-Serif" font-size="10.00">include/Manifold.hpp</text>
</a>
</g>
</g>
<!-- Node3&#45;&gt;Node4 -->
<g id="edge3" class="edge">
<title>Node3&#45;&gt;Node4</title>
<path fill="none" stroke="midnightblue" d="M1232.31,-372.61C1184.37,-361.07 1109.63,-343.06 1065.82,-332.51"/>
<polygon fill="midnightblue" stroke="midnightblue" points="1231.57,-376.04 1242.11,-374.98 1233.21,-369.23 1231.57,-376.04"/>
</g>
<!-- Node25 -->
<g id="node25" class="node">
<title>Node25</title>
<g id="a_node25"><a xlink:href="_geometry__test_8cpp.html" target="_top" xlink:title="Tests of new geometry data structure.">
<polygon fill="white" stroke="black" points="1209,-313.5 1209,-332.5 1346,-332.5 1346,-313.5 1209,-313.5"/>
<text text-anchor="middle" x="1277.5" y="-320.5" font-family="Helvetica,sans-Serif" font-size="10.00">tests/Geometry_test.cpp</text>
</a>
</g>
</g>
<!-- Node3&#45;&gt;Node25 -->
<g id="edge25" class="edge">
<title>Node3&#45;&gt;Node25</title>
<path fill="none" stroke="midnightblue" d="M1277.5,-364.82C1277.5,-354 1277.5,-340.9 1277.5,-332.51"/>
<polygon fill="midnightblue" stroke="midnightblue" points="1274,-364.98 1277.5,-374.98 1281,-364.98 1274,-364.98"/>
</g>
<!-- Node5 -->
<g id="node5" class="node">
<title>Node5</title>
<g id="a_node5"><a xlink:href="_ergodic__moves__3_8hpp.html" target="_top" xlink:title="Pachner moves on 2+1 dimensional foliated Delaunay triangulations.">
<polygon fill="white" stroke="black" points="494,-246.5 494,-276.5 623,-276.5 623,-246.5 494,-246.5"/>
<text text-anchor="start" x="502" y="-264.5" font-family="Helvetica,sans-Serif" font-size="10.00">include/Ergodic_moves</text>
<text text-anchor="middle" x="558.5" y="-253.5" font-family="Helvetica,sans-Serif" font-size="10.00">_3.hpp</text>
</a>
</g>
</g>
<!-- Node4&#45;&gt;Node5 -->
<g id="edge4" class="edge">
<title>Node4&#45;&gt;Node5</title>
<path fill="none" stroke="midnightblue" d="M960.57,-315.82C880.9,-308.38 746.94,-294.65 632.5,-277 629.39,-276.52 626.22,-276 623.02,-275.46"/>
<polygon fill="midnightblue" stroke="midnightblue" points="960.68,-319.35 970.96,-316.78 961.33,-312.38 960.68,-319.35"/>
</g>
<!-- Node19 -->
<g id="node19" class="node">
<title>Node19</title>
<g id="a_node19"><a xlink:href="initialize_8cpp.html" target="_top" xlink:title="Generates initial spacetimes.">
<polygon fill="white" stroke="black" points="641.5,-252 641.5,-271 737.5,-271 737.5,-252 641.5,-252"/>
<text text-anchor="middle" x="689.5" y="-259" font-family="Helvetica,sans-Serif" font-size="10.00">src/initialize.cpp</text>
</a>
</g>
</g>
<!-- Node4&#45;&gt;Node19 -->
<g id="edge19" class="edge">
<title>Node4&#45;&gt;Node19</title>
<path fill="none" stroke="midnightblue" d="M960.82,-312.78C903.13,-304.72 819.15,-291.96 746.5,-277 738.2,-275.29 729.29,-273.17 721.04,-271.07"/>
<polygon fill="midnightblue" stroke="midnightblue" points="960.54,-316.28 970.92,-314.19 961.5,-309.34 960.54,-316.28"/>
</g>
<!-- Node20 -->
<g id="node20" class="node">
<title>Node20</title>
<g id="a_node20"><a xlink:href="_manifold__test_8cpp.html" target="_top" xlink:title="Tests of new manifold data structure.">
<polygon fill="white" stroke="black" points="756,-252 756,-271 887,-271 887,-252 756,-252"/>
<text text-anchor="middle" x="821.5" y="-259" font-family="Helvetica,sans-Serif" font-size="10.00">tests/Manifold_test.cpp</text>
</a>
</g>
</g>
<!-- Node4&#45;&gt;Node20 -->
<g id="edge20" class="edge">
<title>Node4&#45;&gt;Node20</title>
<path fill="none" stroke="midnightblue" d="M990.72,-310.68C950.11,-299.11 887.99,-281.43 851.39,-271.01"/>
<polygon fill="midnightblue" stroke="midnightblue" points="989.98,-314.1 1000.56,-313.48 991.9,-307.37 989.98,-314.1"/>
</g>
<!-- Node21 -->
<g id="node21" class="node">
<title>Node21</title>
<g id="a_node21"><a xlink:href="_move__tracker__test_8cpp.html" target="_top" xlink:title="Tests of MoveTracker, that is, that moves are tracked properly.">
<polygon fill="white" stroke="black" points="905.5,-246.5 905.5,-276.5 1015.5,-276.5 1015.5,-246.5 905.5,-246.5"/>
<text text-anchor="start" x="913.5" y="-264.5" font-family="Helvetica,sans-Serif" font-size="10.00">tests/Move_tracker</text>
<text text-anchor="middle" x="960.5" y="-253.5" font-family="Helvetica,sans-Serif" font-size="10.00">_test.cpp</text>
</a>
</g>
</g>
<!-- Node4&#45;&gt;Node21 -->
<g id="edge21" class="edge">
<title>Node4&#45;&gt;Node21</title>
<path fill="none" stroke="midnightblue" d="M1012.76,-306.92C1001.77,-297.58 987.75,-285.66 977,-276.52"/>
<polygon fill="midnightblue" stroke="midnightblue" points="1010.58,-309.67 1020.47,-313.48 1015.12,-304.33 1010.58,-309.67"/>
</g>
<!-- Node22 -->
<g id="node22" class="node">
<title>Node22</title>
<g id="a_node22"><a xlink:href="_s3_action__test_8cpp.html" target="_top" xlink:title="Tests for the S3 action functions.">
<polygon fill="white" stroke="black" points="1034,-252 1034,-271 1165,-271 1165,-252 1034,-252"/>
<text text-anchor="middle" x="1099.5" y="-259" font-family="Helvetica,sans-Serif" font-size="10.00">tests/S3Action_test.cpp</text>
</a>
</g>
</g>
<!-- Node4&#45;&gt;Node22 -->
<g id="edge22" class="edge">
<title>Node4&#45;&gt;Node22</title>
<path fill="none" stroke="midnightblue" d="M1048.3,-306.65C1061.46,-295.31 1078.88,-280.28 1089.63,-271.01"/>
<polygon fill="midnightblue" stroke="midnightblue" points="1045.67,-304.29 1040.39,-313.48 1050.24,-309.6 1045.67,-304.29"/>
</g>
<!-- Node23 -->
<g id="node23" class="node">
<title>Node23</title>
<g id="a_node23"><a xlink:href="_utilities__test_8cpp.html" target="_top" xlink:title="Tests on utility functions.">
<polygon fill="white" stroke="black" points="1183.5,-252 1183.5,-271 1309.5,-271 1309.5,-252 1183.5,-252"/>
<text text-anchor="middle" x="1246.5" y="-259" font-family="Helvetica,sans-Serif" font-size="10.00">tests/Utilities_test.cpp</text>
</a>
</g>
</g>
<!-- Node4&#45;&gt;Node23 -->
<g id="edge23" class="edge">
<title>Node4&#45;&gt;Node23</title>
<path fill="none" stroke="midnightblue" d="M1071.34,-310.75C1113.31,-299.19 1177.7,-281.45 1215.61,-271.01"/>
<polygon fill="midnightblue" stroke="midnightblue" points="1070.16,-307.44 1061.45,-313.48 1072.02,-314.19 1070.16,-307.44"/>
</g>
<!-- Node24 -->
<g id="node24" class="node">
<title>Node24</title>
<g id="a_node24"><a xlink:href="_vertex__test_8cpp.html" target="_top" xlink:title="Tests on points and vertices in foliated Delaunay triangulations.">
<polygon fill="white" stroke="black" points="1328,-252 1328,-271 1447,-271 1447,-252 1328,-252"/>
<text text-anchor="middle" x="1387.5" y="-259" font-family="Helvetica,sans-Serif" font-size="10.00">tests/Vertex_test.cpp</text>
</a>
</g>
</g>
<!-- Node4&#45;&gt;Node24 -->
<g id="edge24" class="edge">
<title>Node4&#45;&gt;Node24</title>
<path fill="none" stroke="midnightblue" d="M1100.45,-312.11C1158.88,-303.6 1244.3,-290.58 1318.5,-277 1328.25,-275.21 1338.74,-273.11 1348.52,-271.06"/>
<polygon fill="midnightblue" stroke="midnightblue" points="1099.62,-308.7 1090.22,-313.6 1100.62,-315.62 1099.62,-308.7"/>
</g>
<!-- Node6 -->
<g id="node6" class="node">
<title>Node6</title>
<g id="a_node6"><a xlink:href="_move__command_8hpp.html" target="_top" xlink:title="Do ergodic moves using the Command pattern.">
<polygon fill="white" stroke="black" points="233,-185 233,-204 390,-204 390,-185 233,-185"/>
<text text-anchor="middle" x="311.5" y="-192" font-family="Helvetica,sans-Serif" font-size="10.00">include/Move_command.hpp</text>
</a>
</g>
</g>
<!-- Node5&#45;&gt;Node6 -->
<g id="edge5" class="edge">
<title>Node5&#45;&gt;Node6</title>
<path fill="none" stroke="midnightblue" d="M495.46,-243.91C447.09,-231.18 382.28,-214.13 343.91,-204.03"/>
<polygon fill="midnightblue" stroke="midnightblue" points="494.65,-247.32 505.21,-246.48 496.43,-240.55 494.65,-247.32"/>
</g>
<!-- Node5&#45;&gt;Node15 -->
<g id="edge15" class="edge">
<title>Node5&#45;&gt;Node15</title>
<path fill="none" stroke="midnightblue" d="M632.92,-246.04C823.4,-219.08 1037.74,-204.02 1130.65,-198.24"/>
<polygon fill="midnightblue" stroke="midnightblue" points="632.41,-242.58 623.01,-247.46 633.4,-249.51 632.41,-242.58"/>
</g>
<!-- Node16 -->
<g id="node16" class="node">
<title>Node16</title>
<g id="a_node16"><a xlink:href="_apply__move__test_8cpp.html" target="_top" xlink:title="Applying ergodic moves to manifolds.">
<polygon fill="white" stroke="black" points="408,-185 408,-204 557,-204 557,-185 408,-185"/>
<text text-anchor="middle" x="482.5" y="-192" font-family="Helvetica,sans-Serif" font-size="10.00">tests/Apply_move_test.cpp</text>
</a>
</g>
</g>
<!-- Node5&#45;&gt;Node16 -->
<g id="edge16" class="edge">
<title>Node5&#45;&gt;Node16</title>
<path fill="none" stroke="midnightblue" d="M534.15,-239.67C520.11,-227.67 503.22,-213.22 492.67,-204.19"/>
<polygon fill="midnightblue" stroke="midnightblue" points="532.13,-242.56 542.01,-246.4 536.68,-237.24 532.13,-242.56"/>
</g>
<!-- Node17 -->
<g id="node17" class="node">
<title>Node17</title>
<g id="a_node17"><a xlink:href="_ergodic__moves__3__test_8cpp.html" target="_top" xlink:title="Tests for ergodic moves on foliated triangulations.">
<polygon fill="white" stroke="black" points="575.5,-179.5 575.5,-209.5 693.5,-209.5 693.5,-179.5 575.5,-179.5"/>
<text text-anchor="start" x="583.5" y="-197.5" font-family="Helvetica,sans-Serif" font-size="10.00">tests/Ergodic_moves</text>
<text text-anchor="middle" x="634.5" y="-186.5" font-family="Helvetica,sans-Serif" font-size="10.00">_3_test.cpp</text>
</a>
</g>
</g>
<!-- Node5&#45;&gt;Node17 -->
<g id="edge17" class="edge">
<title>Node5&#45;&gt;Node17</title>
<path fill="none" stroke="midnightblue" d="M582.61,-239.88C594.16,-230.01 607.69,-218.43 618.04,-209.58"/>
<polygon fill="midnightblue" stroke="midnightblue" points="580.32,-237.24 574.99,-246.4 584.87,-242.56 580.32,-237.24"/>
</g>
<!-- Node18 -->
<g id="node18" class="node">
<title>Node18</title>
<g id="a_node18"><a xlink:href="_function__ref__test_8cpp.html" target="_top" xlink:title="Tests on function pointers, lambdas, and function_refs.">
<polygon fill="white" stroke="black" points="711.5,-179.5 711.5,-209.5 815.5,-209.5 815.5,-179.5 711.5,-179.5"/>
<text text-anchor="start" x="719.5" y="-197.5" font-family="Helvetica,sans-Serif" font-size="10.00">tests/Function_ref</text>
<text text-anchor="middle" x="763.5" y="-186.5" font-family="Helvetica,sans-Serif" font-size="10.00">_test.cpp</text>
</a>
</g>
</g>
<!-- Node5&#45;&gt;Node18 -->
<g id="edge18" class="edge">
<title>Node5&#45;&gt;Node18</title>
<path fill="none" stroke="midnightblue" d="M612.29,-243.44C645.52,-232.91 687.65,-219.55 719,-209.61"/>
<polygon fill="midnightblue" stroke="midnightblue" points="611.2,-240.12 602.73,-246.48 613.32,-246.79 611.2,-240.12"/>
</g>
<!-- Node7 -->
<g id="node7" class="node">
<title>Node7</title>
<g id="a_node7"><a xlink:href="_move__strategy_8hpp.html" target="_top" xlink:title="Template class for move algorithms (strategies) on manifolds.">
<polygon fill="white" stroke="black" points="161,-118 161,-137 308,-137 308,-118 161,-118"/>
<text text-anchor="middle" x="234.5" y="-125" font-family="Helvetica,sans-Serif" font-size="10.00">include/Move_strategy.hpp</text>
</a>
</g>
</g>
<!-- Node6&#45;&gt;Node7 -->
<g id="edge6" class="edge">
<title>Node6&#45;&gt;Node7</title>
<path fill="none" stroke="midnightblue" d="M293.39,-178.21C278.22,-165.41 257.11,-147.59 244.72,-137.13"/>
<polygon fill="midnightblue" stroke="midnightblue" points="291.22,-180.96 301.12,-184.73 295.73,-175.61 291.22,-180.96"/>
</g>
<!-- Node14 -->
<g id="node14" class="node">
<title>Node14</title>
<g id="a_node14"><a xlink:href="_move__command__test_8cpp.html" target="_top" xlink:title="Tests of MoveCommand, that is, that moves are handled properly.">
<polygon fill="white" stroke="black" points="326,-112.5 326,-142.5 451,-142.5 451,-112.5 326,-112.5"/>
<text text-anchor="start" x="334" y="-130.5" font-family="Helvetica,sans-Serif" font-size="10.00">tests/Move_command</text>
<text text-anchor="middle" x="388.5" y="-119.5" font-family="Helvetica,sans-Serif" font-size="10.00">_test.cpp</text>
</a>
</g>
</g>
<!-- Node6&#45;&gt;Node14 -->
<g id="edge14" class="edge">
<title>Node6&#45;&gt;Node14</title>
<path fill="none" stroke="midnightblue" d="M329.58,-178.24C342.36,-167.45 359.36,-153.1 371.81,-142.59"/>
<polygon fill="midnightblue" stroke="midnightblue" points="327.27,-175.61 321.88,-184.73 331.78,-180.96 327.27,-175.61"/>
</g>
<!-- Node8 -->
<g id="node8" class="node">
<title>Node8</title>
<g id="a_node8"><a xlink:href="_metropolis_8hpp.html" target="_top" xlink:title="Perform Metropolis&#45;Hastings algorithm on Delaunay Triangulations.">
<polygon fill="white" stroke="black" points="93.5,-56.5 93.5,-75.5 221.5,-75.5 221.5,-56.5 93.5,-56.5"/>
<text text-anchor="middle" x="157.5" y="-63.5" font-family="Helvetica,sans-Serif" font-size="10.00">include/Metropolis.hpp</text>
</a>
</g>
</g>
<!-- Node7&#45;&gt;Node8 -->
<g id="edge7" class="edge">
<title>Node7&#45;&gt;Node8</title>
<path fill="none" stroke="midnightblue" d="M215.47,-111.79C200.7,-100.38 180.74,-84.96 168.51,-75.51"/>
<polygon fill="midnightblue" stroke="midnightblue" points="213.41,-114.63 223.47,-117.98 217.69,-109.09 213.41,-114.63"/>
</g>
<!-- Node12 -->
<g id="node12" class="node">
<title>Node12</title>
<g id="a_node12"><a xlink:href="_move__always_8hpp.html" target="_top" xlink:title="Randomly selects moves to always perform on triangulations.">
<polygon fill="white" stroke="black" points="240,-56.5 240,-75.5 383,-75.5 383,-56.5 240,-56.5"/>
<text text-anchor="middle" x="311.5" y="-63.5" font-family="Helvetica,sans-Serif" font-size="10.00">include/Move_always.hpp</text>
</a>
</g>
</g>
<!-- Node7&#45;&gt;Node12 -->
<g id="edge11" class="edge">
<title>Node7&#45;&gt;Node12</title>
<path fill="none" stroke="midnightblue" d="M253.53,-111.79C268.3,-100.38 288.26,-84.96 300.49,-75.51"/>
<polygon fill="midnightblue" stroke="midnightblue" points="251.31,-109.09 245.53,-117.98 255.59,-114.63 251.31,-109.09"/>
</g>
<!-- Node9 -->
<g id="node9" class="node">
<title>Node9</title>
<g id="a_node9"><a xlink:href="cdt-opt_8cpp.html" target="_top" xlink:title="Outputs values to determine optimizations.">
<polygon fill="white" stroke="black" points="246,-0.5 246,-19.5 335,-19.5 335,-0.5 246,-0.5"/>
<text text-anchor="middle" x="290.5" y="-7.5" font-family="Helvetica,sans-Serif" font-size="10.00">src/cdt&#45;opt.cpp</text>
</a>
</g>
</g>
<!-- Node8&#45;&gt;Node9 -->
<g id="edge8" class="edge">
<title>Node8&#45;&gt;Node9</title>
<path fill="none" stroke="midnightblue" d="M187.95,-52.64C212.91,-42.5 247.58,-28.43 269.52,-19.52"/>
<polygon fill="midnightblue" stroke="midnightblue" points="186.52,-49.44 178.57,-56.44 189.16,-55.92 186.52,-49.44"/>
</g>
<!-- Node10 -->
<g id="node10" class="node">
<title>Node10</title>
<g id="a_node10"><a xlink:href="cdt_8cpp.html" target="_top" xlink:title="The main executable.">
<polygon fill="white" stroke="black" points="0,-0.5 0,-19.5 69,-19.5 69,-0.5 0,-0.5"/>
<text text-anchor="middle" x="34.5" y="-7.5" font-family="Helvetica,sans-Serif" font-size="10.00">src/cdt.cpp</text>
</a>
</g>
</g>
<!-- Node8&#45;&gt;Node10 -->
<g id="edge9" class="edge">
<title>Node8&#45;&gt;Node10</title>
<path fill="none" stroke="midnightblue" d="M128.73,-52.37C105.69,-42.26 74.02,-28.35 53.9,-19.52"/>
<polygon fill="midnightblue" stroke="midnightblue" points="127.45,-55.63 138.01,-56.44 130.26,-49.22 127.45,-55.63"/>
</g>
<!-- Node11 -->
<g id="node11" class="node">
<title>Node11</title>
<g id="a_node11"><a xlink:href="_metropolis__test_8cpp.html" target="_top" xlink:title="Tests for the Metropolis&#45;Hastings algorithm.">
<polygon fill="white" stroke="black" points="87.5,-0.5 87.5,-19.5 227.5,-19.5 227.5,-0.5 87.5,-0.5"/>
<text text-anchor="middle" x="157.5" y="-7.5" font-family="Helvetica,sans-Serif" font-size="10.00">tests/Metropolis_test.cpp</text>
</a>
</g>
</g>
<!-- Node8&#45;&gt;Node11 -->
<g id="edge10" class="edge">
<title>Node8&#45;&gt;Node11</title>
<path fill="none" stroke="midnightblue" d="M157.5,-45.8C157.5,-36.91 157.5,-26.78 157.5,-19.75"/>
<polygon fill="midnightblue" stroke="midnightblue" points="154,-46.08 157.5,-56.08 161,-46.08 154,-46.08"/>
</g>
<!-- Node12&#45;&gt;Node9 -->
<g id="edge12" class="edge">
<title>Node12&#45;&gt;Node9</title>
<path fill="none" stroke="midnightblue" d="M304.38,-46.69C300.84,-37.59 296.73,-27.01 293.9,-19.75"/>
<polygon fill="midnightblue" stroke="midnightblue" points="301.15,-48.03 308.03,-56.08 307.67,-45.49 301.15,-48.03"/>
</g>
<!-- Node13 -->
<g id="node13" class="node">
<title>Node13</title>
<g id="a_node13"><a xlink:href="_move__always__test_8cpp.html" target="_top" xlink:title="Tests for the Move Always algorithm.">
<polygon fill="white" stroke="black" points="353,-0.5 353,-19.5 508,-19.5 508,-0.5 353,-0.5"/>
<text text-anchor="middle" x="430.5" y="-7.5" font-family="Helvetica,sans-Serif" font-size="10.00">tests/Move_always_test.cpp</text>
</a>
</g>
</g>
<!-- Node12&#45;&gt;Node13 -->
<g id="edge13" class="edge">
<title>Node12&#45;&gt;Node13</title>
<path fill="none" stroke="midnightblue" d="M339.64,-52.23C361.9,-42.13 392.36,-28.31 411.73,-19.52"/>
<polygon fill="midnightblue" stroke="midnightblue" points="338.02,-49.12 330.36,-56.44 340.91,-55.5 338.02,-49.12"/>
</g>
</g>
</svg>
