<?xml version="1.0" encoding="UTF-8" standalone="no"?>
<!DOCTYPE svg PUBLIC "-//W3C//DTD SVG 1.1//EN"
 "http://www.w3.org/Graphics/SVG/1.1/DTD/svg11.dtd">
<!-- Generated by graphviz version 2.43.0 (0)
 -->
<!-- Title: include/Triangulation_traits.hpp Pages: 1 -->
<!--zoomable 467 -->
<svg id="main" version="1.1" xmlns="http://www.w3.org/2000/svg" xmlns:xlink="http://www.w3.org/1999/xlink" xml:space="preserve" onload="init(evt)">
<style type="text/css"><![CDATA[
.edge:hover path { stroke: red; }
.edge:hover polygon { stroke: red; fill: red; }
]]></style>
<script type="text/javascript"><![CDATA[
var edges = document.getElementsByTagName('g');
if (edges && edges.length) {
  for (var i=0;i<edges.length;i++) {
    if (edges[i].id.substr(0,4)=='edge') {
      edges[i].setAttribute('class','edge');
    }
  }
}
]]></script>
        <defs>
                <circle id="rim" cx="0" cy="0" r="7"/>
                <circle id="rim2" cx="0" cy="0" r="3.5"/>
                <g id="zoomPlus">
                        <use xlink:href="#rim" fill="#404040">
                                <set attributeName="fill" to="#808080" begin="zoomplus.mouseover" end="zoomplus.mouseout"/>
                        </use>
                        <path d="M-4,0h8M0,-4v8" fill="none" stroke="white" stroke-width="1.5" pointer-events="none"/>
                </g>
                <g id="zoomMin">
                        <use xlink:href="#rim" fill="#404040">
                                <set attributeName="fill" to="#808080" begin="zoomminus.mouseover" end="zoomminus.mouseout"/>
                        </use>
                        <path d="M-4,0h8" fill="none" stroke="white" stroke-width="1.5" pointer-events="none"/>
                </g>
                <g id="dirArrow">
                        <path fill="none" stroke="white" stroke-width="1.5" d="M0,-3.0v7 M-2.5,-0.5L0,-3.0L2.5,-0.5"/>
                </g>
               <g id="resetDef">
                       <use xlink:href="#rim2" fill="#404040">
                               <set attributeName="fill" to="#808080" begin="reset.mouseover" end="reset.mouseout"/>
                       </use>
               </g>
        </defs>

<script type="text/javascript">
var viewWidth = 1328;
var viewHeight = 467;
var sectionId = 'dynsection-1';
</script>
<script xlink:href="svgpan.js"/>
<svg id="graph" class="graph">
<g id="viewport">
<title>include/Triangulation_traits.hpp</title>
<!-- Node1 -->
<g id="node1" class="node">
<title>Node1</title>
<g id="a_node1"><a xlink:title="Traits class for particular uses of CGAL.">
<polygon fill="#999999" stroke="#666666" points="935,-459 817,-459 817,-429 935,-429 935,-459"/>
<text text-anchor="start" x="825" y="-447" font-family="Helvetica,sans-Serif" font-size="10.00">include/Triangulation</text>
<text text-anchor="middle" x="876" y="-436" font-family="Helvetica,sans-Serif" font-size="10.00">_traits.hpp</text>
</a>
</g>
</g>
<!-- Node2 -->
<g id="node2" class="node">
<title>Node2</title>
<g id="a_node2"><a xlink:href="_foliated__triangulation_8hpp.html" target="_top" xlink:title="Create foliated spherical triangulations.">
<polygon fill="white" stroke="#666666" points="880,-393 698,-393 698,-374 880,-374 880,-393"/>
<text text-anchor="middle" x="789" y="-381" font-family="Helvetica,sans-Serif" font-size="10.00">include/Foliated_triangulation.hpp</text>
</a>
</g>
</g>
<!-- Node1&#45;&gt;Node2 -->
<g id="edge1" class="edge">
<title>Node1&#45;&gt;Node2</title>
<path fill="none" stroke="#63b8ff" d="M846.35,-423.06C831.16,-412.85 813.46,-400.95 801.78,-393.09"/>
<polygon fill="#63b8ff" stroke="#63b8ff" points="844.69,-426.16 854.94,-428.84 848.59,-420.35 844.69,-426.16"/>
</g>
<!-- Node27 -->
<g id="node27" class="node">
<title>Node27</title>
<g id="a_node27"><a xlink:href="_formatters_8hpp.html" target="_top" xlink:title="Formatter specializations for various types.">
<polygon fill="white" stroke="#666666" points="1050.5,-393 921.5,-393 921.5,-374 1050.5,-374 1050.5,-393"/>
<text text-anchor="middle" x="986" y="-381" font-family="Helvetica,sans-Serif" font-size="10.00">include/Formatters.hpp</text>
</a>
</g>
</g>
<!-- Node1&#45;&gt;Node27 -->
<g id="edge26" class="edge">
<title>Node1&#45;&gt;Node27</title>
<path fill="none" stroke="#63b8ff" d="M911.34,-424.21C930.96,-413.77 954.44,-401.29 969.76,-393.14"/>
<polygon fill="#63b8ff" stroke="#63b8ff" points="909.53,-421.2 902.35,-428.99 912.82,-427.38 909.53,-421.2"/>
</g>
<!-- Node3 -->
<g id="node3" class="node">
<title>Node3</title>
<g id="a_node3"><a xlink:href="_geometry_8hpp.html" target="_top" xlink:title="Geometric scalars of the Manifold used to calculate the Regge action.">
<polygon fill="white" stroke="#666666" points="649.5,-332.5 526.5,-332.5 526.5,-313.5 649.5,-313.5 649.5,-332.5"/>
<text text-anchor="middle" x="588" y="-320.5" font-family="Helvetica,sans-Serif" font-size="10.00">include/Geometry.hpp</text>
</a>
</g>
</g>
<!-- Node2&#45;&gt;Node3 -->
<g id="edge2" class="edge">
<title>Node2&#45;&gt;Node3</title>
<path fill="none" stroke="#63b8ff" d="M749.86,-371.11C710.98,-359.79 652.26,-342.7 617.26,-332.52"/>
<polygon fill="#63b8ff" stroke="#63b8ff" points="749.19,-374.56 759.77,-373.99 751.15,-367.84 749.19,-374.56"/>
</g>
<!-- Node25 -->
<g id="node25" class="node">
<title>Node25</title>
<g id="a_node25"><a xlink:href="_foliated__triangulation__test_8cpp.html" target="_top" xlink:title="Tests for foliated triangulations.">
<polygon fill="white" stroke="#666666" points="818,-338 668,-338 668,-308 818,-308 818,-338"/>
<text text-anchor="start" x="676" y="-326" font-family="Helvetica,sans-Serif" font-size="10.00">tests/Foliated_triangulation</text>
<text text-anchor="middle" x="743" y="-315" font-family="Helvetica,sans-Serif" font-size="10.00">_test.cpp</text>
</a>
</g>
</g>
<!-- Node2&#45;&gt;Node25 -->
<g id="edge24" class="edge">
<title>Node2&#45;&gt;Node25</title>
<path fill="none" stroke="#63b8ff" d="M775.93,-365.88C769.04,-357.11 760.67,-346.48 754.1,-338.11"/>
<polygon fill="#63b8ff" stroke="#63b8ff" points="773.28,-368.17 782.21,-373.87 778.78,-363.84 773.28,-368.17"/>
</g>
<!-- Node26 -->
<g id="node26" class="node">
<title>Node26</title>
<g id="a_node26"><a xlink:href="_tetrahedron__test_8cpp.html" target="_top" xlink:title="Tests for 3D triangulated and foliated tetrahedrons.">
<polygon fill="white" stroke="#666666" points="982,-332.5 836,-332.5 836,-313.5 982,-313.5 982,-332.5"/>
<text text-anchor="middle" x="909" y="-320.5" font-family="Helvetica,sans-Serif" font-size="10.00">tests/Tetrahedron_test.cpp</text>
</a>
</g>
</g>
<!-- Node2&#45;&gt;Node26 -->
<g id="edge25" class="edge">
<title>Node2&#45;&gt;Node26</title>
<path fill="none" stroke="#63b8ff" d="M815.7,-369.48C838.83,-358.21 871.61,-342.23 891.53,-332.52"/>
<polygon fill="#63b8ff" stroke="#63b8ff" points="813.9,-366.47 806.45,-373.99 816.97,-372.76 813.9,-366.47"/>
</g>
<!-- Node4 -->
<g id="node4" class="node">
<title>Node4</title>
<g id="a_node4"><a xlink:href="_manifold_8hpp.html" target="_top" xlink:title="Data structures for manifolds.">
<polygon fill="white" stroke="#666666" points="570.5,-272 451.5,-272 451.5,-253 570.5,-253 570.5,-272"/>
<text text-anchor="middle" x="511" y="-260" font-family="Helvetica,sans-Serif" font-size="10.00">include/Manifold.hpp</text>
</a>
</g>
</g>
<!-- Node3&#45;&gt;Node4 -->
<g id="edge3" class="edge">
<title>Node3&#45;&gt;Node4</title>
<path fill="none" stroke="#63b8ff" d="M568.31,-307.04C553.77,-295.99 534.48,-281.34 522.41,-272.17"/>
<polygon fill="#63b8ff" stroke="#63b8ff" points="566.56,-310.11 576.64,-313.37 570.79,-304.53 566.56,-310.11"/>
</g>
<!-- Node24 -->
<g id="node24" class="node">
<title>Node24</title>
<g id="a_node24"><a xlink:href="_geometry__test_8cpp.html" target="_top" xlink:title="Tests of new geometry data structure.">
<polygon fill="white" stroke="#666666" points="725.5,-272 588.5,-272 588.5,-253 725.5,-253 725.5,-272"/>
<text text-anchor="middle" x="657" y="-260" font-family="Helvetica,sans-Serif" font-size="10.00">tests/Geometry_test.cpp</text>
</a>
</g>
</g>
<!-- Node3&#45;&gt;Node24 -->
<g id="edge23" class="edge">
<title>Node3&#45;&gt;Node24</title>
<path fill="none" stroke="#63b8ff" d="M606.02,-306.72C619,-295.71 636.06,-281.25 646.78,-272.17"/>
<polygon fill="#63b8ff" stroke="#63b8ff" points="603.55,-304.23 598.18,-313.37 608.07,-309.57 603.55,-304.23"/>
</g>
<!-- Node5 -->
<g id="node5" class="node">
<title>Node5</title>
<g id="a_node5"><a xlink:href="_ergodic__moves__3_8hpp.html" target="_top" xlink:title="Pachner moves on 2+1 dimensional foliated Delaunay triangulations.">
<polygon fill="white" stroke="#666666" points="1074.5,-217 945.5,-217 945.5,-187 1074.5,-187 1074.5,-217"/>
<text text-anchor="start" x="953.5" y="-205" font-family="Helvetica,sans-Serif" font-size="10.00">include/Ergodic_moves</text>
<text text-anchor="middle" x="1010" y="-194" font-family="Helvetica,sans-Serif" font-size="10.00">_3.hpp</text>
</a>
</g>
</g>
<!-- Node4&#45;&gt;Node5 -->
<g id="edge4" class="edge">
<title>Node4&#45;&gt;Node5</title>
<path fill="none" stroke="#63b8ff" d="M580.8,-252.83C739.18,-235.29 781.41,-239.38 936,-217 939.11,-216.55 942.28,-216.06 945.48,-215.55"/>
<polygon fill="#63b8ff" stroke="#63b8ff" points="580.24,-249.37 570.69,-253.96 581.02,-256.32 580.24,-249.37"/>
</g>
<!-- Node17 -->
<g id="node17" class="node">
<title>Node17</title>
<g id="a_node17"><a xlink:href="cdt-viewer_8cpp.html" target="_top" xlink:title="Views 3D spacetimes.">
<polygon fill="white" stroke="#666666" points="104,-211.5 0,-211.5 0,-192.5 104,-192.5 104,-211.5"/>
<text text-anchor="middle" x="52" y="-199.5" font-family="Helvetica,sans-Serif" font-size="10.00">src/cdt&#45;viewer.cpp</text>
</a>
</g>
</g>
<!-- Node4&#45;&gt;Node17 -->
<g id="edge16" class="edge">
<title>Node4&#45;&gt;Node17</title>
<path fill="none" stroke="#63b8ff" d="M440.96,-256.11C361.19,-249.4 227.14,-236.41 113,-217 104.22,-215.51 94.8,-213.53 86.06,-211.54"/>
<polygon fill="#63b8ff" stroke="#63b8ff" points="441.11,-259.63 451.37,-256.97 441.69,-252.66 441.11,-259.63"/>
</g>
<!-- Node18 -->
<g id="node18" class="node">
<title>Node18</title>
<g id="a_node18"><a xlink:href="initialize_8cpp.html" target="_top" xlink:title="Generates initial spacetimes.">
<polygon fill="white" stroke="#666666" points="218,-211.5 122,-211.5 122,-192.5 218,-192.5 218,-211.5"/>
<text text-anchor="middle" x="170" y="-199.5" font-family="Helvetica,sans-Serif" font-size="10.00">src/initialize.cpp</text>
</a>
</g>
</g>
<!-- Node4&#45;&gt;Node18 -->
<g id="edge17" class="edge">
<title>Node4&#45;&gt;Node18</title>
<path fill="none" stroke="#63b8ff" d="M441.35,-252.28C383.68,-244.24 299.7,-231.6 227,-217 219.11,-215.42 210.66,-213.48 202.75,-211.55"/>
<polygon fill="#63b8ff" stroke="#63b8ff" points="441.06,-255.77 451.45,-253.68 442.02,-248.84 441.06,-255.77"/>
</g>
<!-- Node19 -->
<g id="node19" class="node">
<title>Node19</title>
<g id="a_node19"><a xlink:href="_manifold__test_8cpp.html" target="_top" xlink:title="Tests of new manifold data structure.">
<polygon fill="white" stroke="#666666" points="367.5,-211.5 236.5,-211.5 236.5,-192.5 367.5,-192.5 367.5,-211.5"/>
<text text-anchor="middle" x="302" y="-199.5" font-family="Helvetica,sans-Serif" font-size="10.00">tests/Manifold_test.cpp</text>
</a>
</g>
</g>
<!-- Node4&#45;&gt;Node19 -->
<g id="edge18" class="edge">
<title>Node4&#45;&gt;Node19</title>
<path fill="none" stroke="#63b8ff" d="M470.81,-250.25C430.4,-238.94 368.97,-221.75 332.43,-211.52"/>
<polygon fill="#63b8ff" stroke="#63b8ff" points="470.04,-253.67 480.61,-252.99 471.92,-246.93 470.04,-253.67"/>
</g>
<!-- Node20 -->
<g id="node20" class="node">
<title>Node20</title>
<g id="a_node20"><a xlink:href="_move__tracker__test_8cpp.html" target="_top" xlink:title="Tests of MoveTracker, that is, that moves are tracked properly.">
<polygon fill="white" stroke="#666666" points="496,-217 386,-217 386,-187 496,-187 496,-217"/>
<text text-anchor="start" x="394" y="-205" font-family="Helvetica,sans-Serif" font-size="10.00">tests/Move_tracker</text>
<text text-anchor="middle" x="441" y="-194" font-family="Helvetica,sans-Serif" font-size="10.00">_test.cpp</text>
</a>
</g>
</g>
<!-- Node4&#45;&gt;Node20 -->
<g id="edge19" class="edge">
<title>Node4&#45;&gt;Node20</title>
<path fill="none" stroke="#63b8ff" d="M492.73,-246.23C481.96,-237.23 468.42,-225.91 457.89,-217.11"/>
<polygon fill="#63b8ff" stroke="#63b8ff" points="490.75,-249.14 500.67,-252.87 495.24,-243.77 490.75,-249.14"/>
</g>
<!-- Node21 -->
<g id="node21" class="node">
<title>Node21</title>
<g id="a_node21"><a xlink:href="_s3_action__test_8cpp.html" target="_top" xlink:title="Tests for the S3 action functions.">
<polygon fill="white" stroke="#666666" points="645.5,-211.5 514.5,-211.5 514.5,-192.5 645.5,-192.5 645.5,-211.5"/>
<text text-anchor="middle" x="580" y="-199.5" font-family="Helvetica,sans-Serif" font-size="10.00">tests/S3Action_test.cpp</text>
</a>
</g>
</g>
<!-- Node4&#45;&gt;Node21 -->
<g id="edge20" class="edge">
<title>Node4&#45;&gt;Node21</title>
<path fill="none" stroke="#63b8ff" d="M529.02,-246.22C542,-235.21 559.06,-220.75 569.78,-211.67"/>
<polygon fill="#63b8ff" stroke="#63b8ff" points="526.55,-243.73 521.18,-252.87 531.07,-249.07 526.55,-243.73"/>
</g>
<!-- Node22 -->
<g id="node22" class="node">
<title>Node22</title>
<g id="a_node22"><a xlink:href="_utilities__test_8cpp.html" target="_top" xlink:title="Tests on utility functions.">
<polygon fill="white" stroke="#666666" points="790,-211.5 664,-211.5 664,-192.5 790,-192.5 790,-211.5"/>
<text text-anchor="middle" x="727" y="-199.5" font-family="Helvetica,sans-Serif" font-size="10.00">tests/Utilities_test.cpp</text>
</a>
</g>
</g>
<!-- Node4&#45;&gt;Node22 -->
<g id="edge21" class="edge">
<title>Node4&#45;&gt;Node22</title>
<path fill="none" stroke="#63b8ff" d="M552.27,-250.32C594.04,-239.01 657.7,-221.77 695.55,-211.52"/>
<polygon fill="#63b8ff" stroke="#63b8ff" points="551.15,-247 542.41,-252.99 552.98,-253.76 551.15,-247"/>
</g>
<!-- Node23 -->
<g id="node23" class="node">
<title>Node23</title>
<g id="a_node23"><a xlink:href="_vertex__test_8cpp.html" target="_top" xlink:title="Tests on points and vertices in foliated Delaunay triangulations.">
<polygon fill="white" stroke="#666666" points="927.5,-211.5 808.5,-211.5 808.5,-192.5 927.5,-192.5 927.5,-211.5"/>
<text text-anchor="middle" x="868" y="-199.5" font-family="Helvetica,sans-Serif" font-size="10.00">tests/Vertex_test.cpp</text>
</a>
</g>
</g>
<!-- Node4&#45;&gt;Node23 -->
<g id="edge22" class="edge">
<title>Node4&#45;&gt;Node23</title>
<path fill="none" stroke="#63b8ff" d="M580.93,-251.63C639.34,-243.16 724.76,-230.26 799,-217 808.27,-215.35 818.2,-213.42 827.56,-211.54"/>
<polygon fill="#63b8ff" stroke="#63b8ff" points="580.1,-248.21 570.71,-253.11 581.1,-255.14 580.1,-248.21"/>
</g>
<!-- Node6 -->
<g id="node6" class="node">
<title>Node6</title>
<g id="a_node6"><a xlink:href="_move__command_8hpp.html" target="_top" xlink:title="Do ergodic moves using the Command pattern.">
<polygon fill="white" stroke="#666666" points="772.5,-145.5 615.5,-145.5 615.5,-126.5 772.5,-126.5 772.5,-145.5"/>
<text text-anchor="middle" x="694" y="-133.5" font-family="Helvetica,sans-Serif" font-size="10.00">include/Move_command.hpp</text>
</a>
</g>
</g>
<!-- Node5&#45;&gt;Node6 -->
<g id="edge5" class="edge">
<title>Node5&#45;&gt;Node6</title>
<path fill="none" stroke="#63b8ff" d="M935.16,-185.84C873.14,-173.28 787.19,-155.87 736.41,-145.59"/>
<polygon fill="#63b8ff" stroke="#63b8ff" points="934.79,-189.34 945.29,-187.89 936.18,-182.48 934.79,-189.34"/>
</g>
<!-- Node13 -->
<g id="node13" class="node">
<title>Node13</title>
<g id="a_node13"><a xlink:href="_apply__move__test_8cpp.html" target="_top" xlink:title="Applying ergodic moves to manifolds.">
<polygon fill="white" stroke="#666666" points="939.5,-145.5 790.5,-145.5 790.5,-126.5 939.5,-126.5 939.5,-145.5"/>
<text text-anchor="middle" x="865" y="-133.5" font-family="Helvetica,sans-Serif" font-size="10.00">tests/Apply_move_test.cpp</text>
</a>
</g>
</g>
<!-- Node5&#45;&gt;Node13 -->
<g id="edge12" class="edge">
<title>Node5&#45;&gt;Node13</title>
<path fill="none" stroke="#63b8ff" d="M968.72,-182.78C941,-170.54 905.74,-154.98 884.3,-145.52"/>
<polygon fill="#63b8ff" stroke="#63b8ff" points="967.62,-186.12 978.18,-186.95 970.44,-179.71 967.62,-186.12"/>
</g>
<!-- Node14 -->
<g id="node14" class="node">
<title>Node14</title>
<g id="a_node14"><a xlink:href="_bistellar__flip__test_8cpp.html" target="_top" xlink:title="Comprehensive tests for bistellar flip operations.">
<polygon fill="white" stroke="#666666" points="1062,-151 958,-151 958,-121 1062,-121 1062,-151"/>
<text text-anchor="start" x="966" y="-139" font-family="Helvetica,sans-Serif" font-size="10.00">tests/Bistellar_flip</text>
<text text-anchor="middle" x="1010" y="-128" font-family="Helvetica,sans-Serif" font-size="10.00">_test.cpp</text>
</a>
</g>
</g>
<!-- Node5&#45;&gt;Node14 -->
<g id="edge13" class="edge">
<title>Node5&#45;&gt;Node14</title>
<path fill="none" stroke="#63b8ff" d="M1010,-176.54C1010,-167.96 1010,-158.61 1010,-151.16"/>
<polygon fill="#63b8ff" stroke="#63b8ff" points="1006.5,-176.8 1010,-186.8 1013.5,-176.8 1006.5,-176.8"/>
</g>
<!-- Node15 -->
<g id="node15" class="node">
<title>Node15</title>
<g id="a_node15"><a xlink:href="_ergodic__moves__3__test_8cpp.html" target="_top" xlink:title="Tests for ergodic moves on foliated triangulations.">
<polygon fill="white" stroke="#666666" points="1198,-151 1080,-151 1080,-121 1198,-121 1198,-151"/>
<text text-anchor="start" x="1088" y="-139" font-family="Helvetica,sans-Serif" font-size="10.00">tests/Ergodic_moves</text>
<text text-anchor="middle" x="1139" y="-128" font-family="Helvetica,sans-Serif" font-size="10.00">_3_test.cpp</text>
</a>
</g>
</g>
<!-- Node5&#45;&gt;Node15 -->
<g id="edge14" class="edge">
<title>Node5&#45;&gt;Node15</title>
<path fill="none" stroke="#63b8ff" d="M1047.54,-182.38C1067.72,-172.36 1092.2,-160.22 1110.76,-151.01"/>
<polygon fill="#63b8ff" stroke="#63b8ff" points="1045.71,-179.38 1038.31,-186.95 1048.82,-185.65 1045.71,-179.38"/>
</g>
<!-- Node16 -->
<g id="node16" class="node">
<title>Node16</title>
<g id="a_node16"><a xlink:href="_function__ref__test_8cpp.html" target="_top" xlink:title="Tests on function pointers, lambdas, and function_refs.">
<polygon fill="white" stroke="#666666" points="1320,-151 1216,-151 1216,-121 1320,-121 1320,-151"/>
<text text-anchor="start" x="1224" y="-139" font-family="Helvetica,sans-Serif" font-size="10.00">tests/Function_ref</text>
<text text-anchor="middle" x="1268" y="-128" font-family="Helvetica,sans-Serif" font-size="10.00">_test.cpp</text>
</a>
</g>
</g>
<!-- Node5&#45;&gt;Node16 -->
<g id="edge15" class="edge">
<title>Node5&#45;&gt;Node16</title>
<path fill="none" stroke="#63b8ff" d="M1076.52,-184.5C1119.91,-173.74 1175.74,-159.89 1215.9,-149.92"/>
<polygon fill="#63b8ff" stroke="#63b8ff" points="1075.48,-181.15 1066.62,-186.95 1077.17,-187.94 1075.48,-181.15"/>
</g>
<!-- Node7 -->
<g id="node7" class="node">
<title>Node7</title>
<g id="a_node7"><a xlink:href="_metropolis_8hpp.html" target="_top" xlink:title="Perform Metropolis&#45;Hastings algorithm on Delaunay Triangulations.">
<polygon fill="white" stroke="#666666" points="598,-79.5 470,-79.5 470,-60.5 598,-60.5 598,-79.5"/>
<text text-anchor="middle" x="534" y="-67.5" font-family="Helvetica,sans-Serif" font-size="10.00">include/Metropolis.hpp</text>
</a>
</g>
</g>
<!-- Node6&#45;&gt;Node7 -->
<g id="edge6" class="edge">
<title>Node6&#45;&gt;Node7</title>
<path fill="none" stroke="#63b8ff" d="M662.78,-122.51C631.15,-109.86 583.08,-90.63 555.49,-79.6"/>
<polygon fill="#63b8ff" stroke="#63b8ff" points="661.84,-125.9 672.42,-126.37 664.44,-119.41 661.84,-125.9"/>
</g>
<!-- Node10 -->
<g id="node10" class="node">
<title>Node10</title>
<g id="a_node10"><a xlink:href="_move__always_8hpp.html" target="_top" xlink:title="Randomly selects moves to always perform on triangulations.">
<polygon fill="white" stroke="#666666" points="765.5,-79.5 622.5,-79.5 622.5,-60.5 765.5,-60.5 765.5,-79.5"/>
<text text-anchor="middle" x="694" y="-67.5" font-family="Helvetica,sans-Serif" font-size="10.00">include/Move_always.hpp</text>
</a>
</g>
</g>
<!-- Node6&#45;&gt;Node10 -->
<g id="edge9" class="edge">
<title>Node6&#45;&gt;Node10</title>
<path fill="none" stroke="#63b8ff" d="M694,-116.08C694,-104.13 694,-89.22 694,-79.91"/>
<polygon fill="#63b8ff" stroke="#63b8ff" points="690.5,-116.37 694,-126.37 697.5,-116.37 690.5,-116.37"/>
</g>
<!-- Node12 -->
<g id="node12" class="node">
<title>Node12</title>
<g id="a_node12"><a xlink:href="_move__command__test_8cpp.html" target="_top" xlink:title="Tests of MoveCommand, that is, that moves are handled properly.">
<polygon fill="white" stroke="#666666" points="908.5,-85 783.5,-85 783.5,-55 908.5,-55 908.5,-85"/>
<text text-anchor="start" x="791.5" y="-73" font-family="Helvetica,sans-Serif" font-size="10.00">tests/Move_command</text>
<text text-anchor="middle" x="846" y="-62" font-family="Helvetica,sans-Serif" font-size="10.00">_test.cpp</text>
</a>
</g>
</g>
<!-- Node6&#45;&gt;Node12 -->
<g id="edge11" class="edge">
<title>Node6&#45;&gt;Node12</title>
<path fill="none" stroke="#63b8ff" d="M724.01,-122.36C749.5,-111.63 786.04,-96.25 812.48,-85.12"/>
<polygon fill="#63b8ff" stroke="#63b8ff" points="722.36,-119.26 714.5,-126.37 725.07,-125.71 722.36,-119.26"/>
</g>
<!-- Node8 -->
<g id="node8" class="node">
<title>Node8</title>
<g id="a_node8"><a xlink:href="cdt_8cpp.html" target="_top" xlink:title="The main executable.">
<polygon fill="white" stroke="#666666" points="445.5,-19 376.5,-19 376.5,0 445.5,0 445.5,-19"/>
<text text-anchor="middle" x="411" y="-7" font-family="Helvetica,sans-Serif" font-size="10.00">src/cdt.cpp</text>
</a>
</g>
</g>
<!-- Node7&#45;&gt;Node8 -->
<g id="edge7" class="edge">
<title>Node7&#45;&gt;Node8</title>
<path fill="none" stroke="#63b8ff" d="M506.95,-56.13C483.22,-44.85 449.41,-28.77 428.91,-19.02"/>
<polygon fill="#63b8ff" stroke="#63b8ff" points="505.58,-59.36 516.11,-60.49 508.59,-53.04 505.58,-59.36"/>
</g>
<!-- Node9 -->
<g id="node9" class="node">
<title>Node9</title>
<g id="a_node9"><a xlink:href="_metropolis__test_8cpp.html" target="_top" xlink:title="Tests for the Metropolis&#45;Hastings algorithm.">
<polygon fill="white" stroke="#666666" points="604,-19 464,-19 464,0 604,0 604,-19"/>
<text text-anchor="middle" x="534" y="-7" font-family="Helvetica,sans-Serif" font-size="10.00">tests/Metropolis_test.cpp</text>
</a>
</g>
</g>
<!-- Node7&#45;&gt;Node9 -->
<g id="edge8" class="edge">
<title>Node7&#45;&gt;Node9</title>
<path fill="none" stroke="#63b8ff" d="M534,-50.16C534,-39.74 534,-27.3 534,-19.17"/>
<polygon fill="#63b8ff" stroke="#63b8ff" points="530.5,-50.37 534,-60.37 537.5,-50.37 530.5,-50.37"/>
</g>
<!-- Node11 -->
<g id="node11" class="node">
<title>Node11</title>
<g id="a_node11"><a xlink:href="_move__always__test_8cpp.html" target="_top" xlink:title="Tests for the Move Always algorithm.">
<polygon fill="white" stroke="#666666" points="777.5,-19 622.5,-19 622.5,0 777.5,0 777.5,-19"/>
<text text-anchor="middle" x="700" y="-7" font-family="Helvetica,sans-Serif" font-size="10.00">tests/Move_always_test.cpp</text>
</a>
</g>
</g>
<!-- Node10&#45;&gt;Node11 -->
<g id="edge10" class="edge">
<title>Node10&#45;&gt;Node11</title>
<path fill="none" stroke="#63b8ff" d="M695.93,-50.16C697,-39.74 698.28,-27.3 699.11,-19.17"/>
<polygon fill="#63b8ff" stroke="#63b8ff" points="692.42,-50.06 694.89,-60.37 699.39,-50.78 692.42,-50.06"/>
</g>
<!-- Node27&#45;&gt;Node5 -->
<g id="edge27" class="edge">
<title>Node27&#45;&gt;Node5</title>
<path fill="none" stroke="#63b8ff" d="M988.51,-363.72C993.33,-327.65 1003.8,-249.37 1008.1,-217.22"/>
<polygon fill="#63b8ff" stroke="#63b8ff" points="985.01,-363.47 987.16,-373.84 991.95,-364.39 985.01,-363.47"/>
</g>
</g>
</svg>
        <g id="navigator" transform="translate(0 0)" fill="#404254">
                <rect fill="#f2f5e9" fill-opacity="0.5" stroke="#606060" stroke-width=".5" x="0" y="0" width="60" height="60"/>
                <use id="zoomplus" xlink:href="#zoomPlus" x="17" y="9" onmousedown="handleZoom(evt,'in')"/>
                <use id="zoomminus" xlink:href="#zoomMin" x="42" y="9" onmousedown="handleZoom(evt,'out')"/>
                <use id="reset" xlink:href="#resetDef" x="30" y="36" onmousedown="handleReset()"/>
                <g id="arrowUp" xlink:href="#dirArrow" transform="translate(30 24)" onmousedown="handlePan(0,-1)">
                  <use xlink:href="#rim" fill="#404040">
                        <set attributeName="fill" to="#808080" begin="arrowUp.mouseover" end="arrowUp.mouseout"/>
                  </use>
                  <path fill="none" stroke="white" stroke-width="1.5" d="M0,-3.0v7 M-2.5,-0.5L0,-3.0L2.5,-0.5"/>
                </g>
                <g id="arrowRight" xlink:href="#dirArrow" transform="rotate(90) translate(36 -43)" onmousedown="handlePan(1,0)">
                  <use xlink:href="#rim" fill="#404040">
                        <set attributeName="fill" to="#808080" begin="arrowRight.mouseover" end="arrowRight.mouseout"/>
                  </use>
                  <path fill="none" stroke="white" stroke-width="1.5" d="M0,-3.0v7 M-2.5,-0.5L0,-3.0L2.5,-0.5"/>
                </g>
                <g id="arrowDown" xlink:href="#dirArrow" transform="rotate(180) translate(-30 -48)" onmousedown="handlePan(0,1)">
                  <use xlink:href="#rim" fill="#404040">
                        <set attributeName="fill" to="#808080" begin="arrowDown.mouseover" end="arrowDown.mouseout"/>
                  </use>
                  <path fill="none" stroke="white" stroke-width="1.5" d="M0,-3.0v7 M-2.5,-0.5L0,-3.0L2.5,-0.5"/>
                </g>
                <g id="arrowLeft" xlink:href="#dirArrow" transform="rotate(270) translate(-36 17)" onmousedown="handlePan(-1,0)">
                  <use xlink:href="#rim" fill="#404040">
                        <set attributeName="fill" to="#808080" begin="arrowLeft.mouseover" end="arrowLeft.mouseout"/>
                  </use>
                  <path fill="none" stroke="white" stroke-width="1.5" d="M0,-3.0v7 M-2.5,-0.5L0,-3.0L2.5,-0.5"/>
                </g>
        </g>
        <svg viewBox="0 0 15 15" width="100%" height="30px" preserveAspectRatio="xMaxYMin meet">
         <g id="arrow_out" transform="scale(0.3 0.3)">
          <a xlink:href="_triangulation__traits_8hpp__dep__incl_org.svg" target="_base">
           <rect id="button" ry="5" rx="5" y="6" x="6" height="38" width="38"
                fill="#f2f5e9" fill-opacity="0.5" stroke="#606060" stroke-width="1.0"/>
           <path id="arrow"
             d="M 11.500037,31.436501 C 11.940474,20.09759 22.043105,11.32322 32.158766,21.979434 L 37.068811,17.246167 C 37.068811,17.246167 37.088388,32 37.088388,32 L 22.160133,31.978069 C 22.160133,31.978069 26.997745,27.140456 26.997745,27.140456 C 18.528582,18.264221 13.291696,25.230495 11.500037,31.436501 z"
             style="fill:#404040;"/>
          </a>
         </g>
        </svg>
</svg>
