<?xml version="1.0" encoding="UTF-8" standalone="no"?>
<!DOCTYPE svg PUBLIC "-//W3C//DTD SVG 1.1//EN"
 "http://www.w3.org/Graphics/SVG/1.1/DTD/svg11.dtd">
<!-- Generated by graphviz version 15.1.0 (20260618.0150)
 -->
<!-- Title: include/Utilities.hpp Pages: 1 -->
<svg width="579pt" height="382pt"
 viewBox="0.00 0.00 579.00 382.00" xmlns="http://www.w3.org/2000/svg" xmlns:xlink="http://www.w3.org/1999/xlink">
<g id="graph0" class="graph" transform="scale(1 1) rotate(0) translate(4 378)">
<title>include/Utilities.hpp</title>
<!-- Node1 -->
<g id="Node000001" class="node">
<title>Node1</title>
<g id="a_Node000001"><a xlink:title="Utility functions.">
<polygon fill="#999999" stroke="#666666" points="344,-374 230.5,-374 230.5,-353.25 344,-353.25 344,-374"/>
<text xml:space="preserve" text-anchor="middle" x="287.25" y="-360.5" font-family="Helvetica,sans-Serif" font-size="10.00">include/Utilities.hpp</text>
</a>
</g>
</g>
<!-- Node2 -->
<g id="Node000002" class="node">
<title>Node2</title>
<g id="a_Node000002"><a xlink:href="_foliated__triangulation_8hpp.html" target="_top" xlink:title="Create foliated spherical triangulations.">
<polygon fill="white" stroke="#666666" points="378.12,-317.25 196.38,-317.25 196.38,-296.5 378.12,-296.5 378.12,-317.25"/>
<text xml:space="preserve" text-anchor="middle" x="287.25" y="-303.75" font-family="Helvetica,sans-Serif" font-size="10.00">include/Foliated_triangulation.hpp</text>
</a>
</g>
</g>
<!-- Node1&#45;&gt;Node2 -->
<g id="edge1_Node000001_Node000002" class="edge">
<title>Node1&#45;&gt;Node2</title>
<g id="a_edge1_Node000001_Node000002"><a xlink:title=" ">
<path fill="none" stroke="#63b8ff" d="M287.25,-341.38C287.25,-333.16 287.25,-324.18 287.25,-317.58"/>
<polygon fill="#63b8ff" stroke="#63b8ff" points="283.75,-341.32 287.25,-351.32 290.75,-341.32 283.75,-341.32"/>
</a>
</g>
</g>
<!-- Node6 -->
<g id="Node000006" class="node">
<title>Node6</title>
<g id="a_Node000006"><a xlink:href="_metropolis_8hpp.html" target="_top" xlink:title="Perform Metropolis&#45;Hastings algorithm on Delaunay Triangulations.">
<polygon fill="white" stroke="#666666" points="570.75,-77.5 443.75,-77.5 443.75,-56.75 570.75,-56.75 570.75,-77.5"/>
<text xml:space="preserve" text-anchor="middle" x="507.25" y="-64" font-family="Helvetica,sans-Serif" font-size="10.00">include/Metropolis.hpp</text>
</a>
</g>
</g>
<!-- Node1&#45;&gt;Node6 -->
<g id="edge11_Node000001_Node000006" class="edge">
<title>Node1&#45;&gt;Node6</title>
<g id="a_edge11_Node000001_Node000006"><a xlink:title=" ">
<path fill="none" stroke="#63b8ff" d="M355.54,-357.19C421.75,-347.75 512.25,-321.91 512.25,-251.12 512.25,-251.12 512.25,-251.12 512.25,-192.38 512.25,-149.63 509.26,-98.68 507.9,-77.79"/>
<polygon fill="#63b8ff" stroke="#63b8ff" points="355.28,-353.7 345.82,-358.48 356.19,-360.64 355.28,-353.7"/>
</a>
</g>
</g>
<!-- Node10 -->
<g id="Node000010" class="node">
<title>Node10</title>
<g id="a_Node000010"><a xlink:href="cdt-viewer_8cpp.html" target="_top" xlink:title="Views 3D spacetimes.">
<polygon fill="white" stroke="#666666" points="273.12,-140.62 169.38,-140.62 169.38,-119.88 273.12,-119.88 273.12,-140.62"/>
<text xml:space="preserve" text-anchor="middle" x="221.25" y="-127.12" font-family="Helvetica,sans-Serif" font-size="10.00">src/cdt&#45;viewer.cpp</text>
</a>
</g>
</g>
<!-- Node1&#45;&gt;Node10 -->
<g id="edge17_Node000001_Node000010" class="edge">
<title>Node1&#45;&gt;Node10</title>
<g id="a_edge17_Node000001_Node000010"><a xlink:title=" ">
<path fill="none" stroke="#63b8ff" d="M228.56,-348.83C212.43,-342.06 196.78,-332.04 187.25,-317.25 154.93,-267.09 170.15,-240.16 187.25,-183 192.12,-166.73 203.93,-150.83 212.26,-141.04"/>
<polygon fill="#63b8ff" stroke="#63b8ff" points="227.16,-352.05 237.75,-352.3 229.62,-345.5 227.16,-352.05"/>
</a>
</g>
</g>
<!-- Node12 -->
<g id="Node000012" class="node">
<title>Node12</title>
<g id="a_Node000012"><a xlink:href="_move__tracker_8hpp.html" target="_top" xlink:title="Track ergodic moves.">
<polygon fill="white" stroke="#666666" points="140.5,-260.5 0,-260.5 0,-239.75 140.5,-239.75 140.5,-260.5"/>
<text xml:space="preserve" text-anchor="middle" x="70.25" y="-247" font-family="Helvetica,sans-Serif" font-size="10.00">include/Move_tracker.hpp</text>
</a>
</g>
</g>
<!-- Node1&#45;&gt;Node12 -->
<g id="edge12_Node000001_Node000012" class="edge">
<title>Node1&#45;&gt;Node12</title>
<g id="a_edge12_Node000001_Node000012"><a xlink:title=" ">
<path fill="none" stroke="#63b8ff" d="M236.16,-349.61C210.69,-342.03 179.92,-331.2 154.25,-317.25 124.9,-301.3 95.29,-275.09 80.3,-260.93"/>
<polygon fill="#63b8ff" stroke="#63b8ff" points="235.05,-352.93 245.63,-352.34 236.99,-346.2 235.05,-352.93"/>
</a>
</g>
</g>
<!-- Node13 -->
<g id="Node000013" class="node">
<title>Node13</title>
<g id="a_Node000013"><a xlink:href="_runtime__config_8hpp.html" target="_top" xlink:title="Validated runtime configuration for CDT++ command&#45;line programs.">
<polygon fill="white" stroke="#666666" points="483.75,-203.75 332.75,-203.75 332.75,-183 483.75,-183 483.75,-203.75"/>
<text xml:space="preserve" text-anchor="middle" x="408.25" y="-190.25" font-family="Helvetica,sans-Serif" font-size="10.00">include/Runtime_config.hpp</text>
</a>
</g>
</g>
<!-- Node1&#45;&gt;Node13 -->
<g id="edge14_Node000001_Node000013" class="edge">
<title>Node1&#45;&gt;Node13</title>
<g id="a_edge14_Node000001_Node000013"><a xlink:title=" ">
<path fill="none" stroke="#63b8ff" d="M341.61,-348.95C358.61,-342.1 375.87,-332 387.25,-317.25 413.82,-282.81 411.61,-226.7 409.44,-204.18"/>
<polygon fill="#63b8ff" stroke="#63b8ff" points="340.72,-345.55 332.54,-352.29 343.13,-352.12 340.72,-345.55"/>
</a>
</g>
</g>
<!-- Node3 -->
<g id="Node000003" class="node">
<title>Node3</title>
<g id="a_Node000003"><a xlink:href="_geometry_8hpp.html" target="_top" xlink:title="Geometric scalars of the Manifold used to calculate the Regge action.">
<polygon fill="white" stroke="#666666" points="333.5,-260.5 211,-260.5 211,-239.75 333.5,-239.75 333.5,-260.5"/>
<text xml:space="preserve" text-anchor="middle" x="272.25" y="-247" font-family="Helvetica,sans-Serif" font-size="10.00">include/Geometry.hpp</text>
</a>
</g>
</g>
<!-- Node2&#45;&gt;Node3 -->
<g id="edge2_Node000002_Node000003" class="edge">
<title>Node2&#45;&gt;Node3</title>
<g id="a_edge2_Node000002_Node000003"><a xlink:title=" ">
<path fill="none" stroke="#63b8ff" d="M281.59,-285.21C279.29,-276.84 276.76,-267.58 274.91,-260.83"/>
<polygon fill="#63b8ff" stroke="#63b8ff" points="278.15,-285.91 284.17,-294.63 284.9,-284.06 278.15,-285.91"/>
</a>
</g>
</g>
<!-- Node4 -->
<g id="Node000004" class="node">
<title>Node4</title>
<g id="a_Node000004"><a xlink:href="_manifold_8hpp.html" target="_top" xlink:title="Data structures for manifolds.">
<polygon fill="white" stroke="#666666" points="314.25,-203.75 196.25,-203.75 196.25,-183 314.25,-183 314.25,-203.75"/>
<text xml:space="preserve" text-anchor="middle" x="255.25" y="-190.25" font-family="Helvetica,sans-Serif" font-size="10.00">include/Manifold.hpp</text>
</a>
</g>
</g>
<!-- Node3&#45;&gt;Node4 -->
<g id="edge3_Node000003_Node000004" class="edge">
<title>Node3&#45;&gt;Node4</title>
<g id="a_edge3_Node000003_Node000004"><a xlink:title=" ">
<path fill="none" stroke="#63b8ff" d="M265.83,-228.46C263.23,-220.09 260.36,-210.83 258.26,-204.08"/>
<polygon fill="#63b8ff" stroke="#63b8ff" points="262.45,-229.38 268.76,-237.89 269.14,-227.3 262.45,-229.38"/>
</a>
</g>
</g>
<!-- Node5 -->
<g id="Node000005" class="node">
<title>Node5</title>
<g id="a_Node000005"><a xlink:href="_ergodic__moves__3_8hpp.html" target="_top" xlink:title="Pachner moves on 2+1 dimensional foliated Delaunay triangulations.">
<polygon fill="white" stroke="#666666" points="151.5,-147 23,-147 23,-113.5 151.5,-113.5 151.5,-147"/>
<text xml:space="preserve" text-anchor="start" x="31" y="-133.5" font-family="Helvetica,sans-Serif" font-size="10.00">include/Ergodic_moves</text>
<text xml:space="preserve" text-anchor="middle" x="87.25" y="-120.75" font-family="Helvetica,sans-Serif" font-size="10.00">_3.hpp</text>
</a>
</g>
</g>
<!-- Node4&#45;&gt;Node5 -->
<g id="edge4_Node000004_Node000005" class="edge">
<title>Node4&#45;&gt;Node5</title>
<g id="a_edge4_Node000004_Node000005"><a xlink:title=" ">
<path fill="none" stroke="#63b8ff" d="M217.58,-178.67C192.19,-169.43 158.6,-157.21 131.87,-147.48"/>
<polygon fill="#63b8ff" stroke="#63b8ff" points="216.24,-181.91 226.84,-182.04 218.63,-175.33 216.24,-181.91"/>
</a>
</g>
</g>
<!-- Node4&#45;&gt;Node10 -->
<g id="edge9_Node000004_Node000010" class="edge">
<title>Node4&#45;&gt;Node10</title>
<g id="a_edge9_Node000004_Node000010"><a xlink:title=" ">
<path fill="none" stroke="#63b8ff" d="M244.36,-172.8C238.42,-162.12 231.33,-149.38 226.59,-140.84"/>
<polygon fill="#63b8ff" stroke="#63b8ff" points="241.13,-174.19 249.05,-181.23 247.25,-170.79 241.13,-174.19"/>
</a>
</g>
</g>
<!-- Node11 -->
<g id="Node000011" class="node">
<title>Node11</title>
<g id="a_Node000011"><a xlink:href="initialize_8cpp.html" target="_top" xlink:title="Generates initial spacetimes.">
<polygon fill="white" stroke="#666666" points="387,-140.62 291.5,-140.62 291.5,-119.88 387,-119.88 387,-140.62"/>
<text xml:space="preserve" text-anchor="middle" x="339.25" y="-127.12" font-family="Helvetica,sans-Serif" font-size="10.00">src/initialize.cpp</text>
</a>
</g>
</g>
<!-- Node4&#45;&gt;Node11 -->
<g id="edge10_Node000004_Node000011" class="edge">
<title>Node4&#45;&gt;Node11</title>
<g id="a_edge10_Node000004_Node000011"><a xlink:title=" ">
<path fill="none" stroke="#63b8ff" d="M278.05,-175.78C293.33,-164.66 312.94,-150.39 325.79,-141.05"/>
<polygon fill="#63b8ff" stroke="#63b8ff" points="276,-172.95 269.97,-181.66 280.12,-178.61 276,-172.95"/>
</a>
</g>
</g>
<!-- Node5&#45;&gt;Node6 -->
<g id="edge5_Node000005_Node000006" class="edge">
<title>Node5&#45;&gt;Node6</title>
<g id="a_edge5_Node000005_Node000006"><a xlink:title=" ">
<path fill="none" stroke="#63b8ff" d="M162.98,-113.11C266.61,-95.53 376.03,-82.36 443.38,-74.88"/>
<polygon fill="#63b8ff" stroke="#63b8ff" points="162.44,-109.65 153.17,-114.79 163.62,-116.55 162.44,-109.65"/>
</a>
</g>
</g>
<!-- Node8 -->
<g id="Node000008" class="node">
<title>Node8</title>
<g id="a_Node000008"><a xlink:href="_move__command_8hpp.html" target="_top" xlink:title="Do ergodic moves using the Command pattern.">
<polygon fill="white" stroke="#666666" points="165.38,-77.5 9.12,-77.5 9.12,-56.75 165.38,-56.75 165.38,-77.5"/>
<text xml:space="preserve" text-anchor="middle" x="87.25" y="-64" font-family="Helvetica,sans-Serif" font-size="10.00">include/Move_command.hpp</text>
</a>
</g>
</g>
<!-- Node5&#45;&gt;Node8 -->
<g id="edge7_Node000005_Node000008" class="edge">
<title>Node5&#45;&gt;Node8</title>
<g id="a_edge7_Node000005_Node000008"><a xlink:title=" ">
<path fill="none" stroke="#63b8ff" d="M87.25,-101.69C87.25,-93.21 87.25,-84.42 87.25,-77.97"/>
<polygon fill="#63b8ff" stroke="#63b8ff" points="83.75,-101.68 87.25,-111.68 90.75,-101.68 83.75,-101.68"/>
</a>
</g>
</g>
<!-- Node7 -->
<g id="Node000007" class="node">
<title>Node7</title>
<g id="a_Node000007"><a xlink:href="cdt_8cpp.html" target="_top" xlink:title="The main executable.">
<polygon fill="white" stroke="#666666" points="495.5,-20.75 427,-20.75 427,0 495.5,0 495.5,-20.75"/>
<text xml:space="preserve" text-anchor="middle" x="461.25" y="-7.25" font-family="Helvetica,sans-Serif" font-size="10.00">src/cdt.cpp</text>
</a>
</g>
</g>
<!-- Node6&#45;&gt;Node7 -->
<g id="edge6_Node000006_Node000007" class="edge">
<title>Node6&#45;&gt;Node7</title>
<g id="a_edge6_Node000006_Node000007"><a xlink:title=" ">
<path fill="none" stroke="#63b8ff" d="M491.8,-47.74C484.3,-38.81 475.6,-28.45 469.4,-21.08"/>
<polygon fill="#63b8ff" stroke="#63b8ff" points="488.94,-49.77 498.05,-55.18 494.3,-45.27 488.94,-49.77"/>
</a>
</g>
</g>
<!-- Node9 -->
<g id="Node000009" class="node">
<title>Node9</title>
<g id="a_Node000009"><a xlink:href="_move__always_8hpp.html" target="_top" xlink:title="Randomly selects moves to always perform on triangulations.">
<polygon fill="white" stroke="#666666" points="158.25,-20.75 16.25,-20.75 16.25,0 158.25,0 158.25,-20.75"/>
<text xml:space="preserve" text-anchor="middle" x="87.25" y="-7.25" font-family="Helvetica,sans-Serif" font-size="10.00">include/Move_always.hpp</text>
</a>
</g>
</g>
<!-- Node8&#45;&gt;Node9 -->
<g id="edge8_Node000008_Node000009" class="edge">
<title>Node8&#45;&gt;Node9</title>
<g id="a_edge8_Node000008_Node000009"><a xlink:title=" ">
<path fill="none" stroke="#63b8ff" d="M87.25,-44.88C87.25,-36.66 87.25,-27.68 87.25,-21.08"/>
<polygon fill="#63b8ff" stroke="#63b8ff" points="83.75,-44.82 87.25,-54.82 90.75,-44.82 83.75,-44.82"/>
</a>
</g>
</g>
<!-- Node12&#45;&gt;Node5 -->
<g id="edge13_Node000012_Node000005" class="edge">
<title>Node12&#45;&gt;Node5</title>
<g id="a_edge13_Node000012_Node000005"><a xlink:title=" ">
<path fill="none" stroke="#63b8ff" d="M73.27,-228.22C76.6,-205.08 81.91,-168.3 84.93,-147.32"/>
<polygon fill="#63b8ff" stroke="#63b8ff" points="69.82,-227.58 71.86,-237.98 76.75,-228.58 69.82,-227.58"/>
</a>
</g>
</g>
<!-- Node13&#45;&gt;Node7 -->
<g id="edge15_Node000013_Node000007" class="edge">
<title>Node13&#45;&gt;Node7</title>
<g id="a_edge15_Node000013_Node000007"><a xlink:title=" ">
<path fill="none" stroke="#63b8ff" d="M410.3,-171.36C413.43,-144.2 420.64,-95.76 435.25,-56.75 440.15,-43.66 448.57,-29.9 454.49,-21.01"/>
<polygon fill="#63b8ff" stroke="#63b8ff" points="406.85,-170.72 409.27,-181.04 413.81,-171.46 406.85,-170.72"/>
</a>
</g>
</g>
<!-- Node13&#45;&gt;Node11 -->
<g id="edge16_Node000013_Node000011" class="edge">
<title>Node13&#45;&gt;Node11</title>
<g id="a_edge16_Node000013_Node000011"><a xlink:title=" ">
<path fill="none" stroke="#63b8ff" d="M388.75,-175.1C376.22,-164 360.41,-150 350.08,-140.84"/>
<polygon fill="#63b8ff" stroke="#63b8ff" points="386.22,-177.54 396.03,-181.55 390.87,-172.3 386.22,-177.54"/>
</a>
</g>
</g>
</g>
</svg>
