<?xml version="1.0" encoding="UTF-8" standalone="no"?>
<!DOCTYPE svg PUBLIC "-//W3C//DTD SVG 1.1//EN"
 "http://www.w3.org/Graphics/SVG/1.1/DTD/svg11.dtd">
<!-- Generated by graphviz version 2.43.0 (0)
 -->
<!-- Title: include/Utilities.hpp Pages: 1 -->
<svg width="1333pt" height="520pt"
 viewBox="0.00 0.00 1332.85 520.00" xmlns="http://www.w3.org/2000/svg" xmlns:xlink="http://www.w3.org/1999/xlink">
<g id="graph0" class="graph" transform="scale(1 1) rotate(0) translate(4 516)">
<title>include/Utilities.hpp</title>
<polygon fill="white" stroke="transparent" points="-4,4 -4,-516 1328.85,-516 1328.85,4 -4,4"/>
<!-- Node1 -->
<g id="node1" class="node">
<title>Node1</title>
<g id="a_node1"><a xlink:title="Utility functions.">
<polygon fill="#bfbfbf" stroke="black" points="376.85,-492.5 376.85,-511.5 490.85,-511.5 490.85,-492.5 376.85,-492.5"/>
<text text-anchor="middle" x="433.85" y="-499.5" font-family="Helvetica,sans-Serif" font-size="10.00">include/Utilities.hpp</text>
</a>
</g>
</g>
<!-- Node2 -->
<g id="node2" class="node">
<title>Node2</title>
<g id="a_node2"><a xlink:href="_foliated__triangulation_8hpp.html" target="_top" xlink:title="Create foliated spherical triangulations.">
<polygon fill="white" stroke="black" points="221.85,-436.5 221.85,-455.5 403.85,-455.5 403.85,-436.5 221.85,-436.5"/>
<text text-anchor="middle" x="312.85" y="-443.5" font-family="Helvetica,sans-Serif" font-size="10.00">include/Foliated_triangulation.hpp</text>
</a>
</g>
</g>
<!-- Node1&#45;&gt;Node2 -->
<g id="edge1" class="edge">
<title>Node1&#45;&gt;Node2</title>
<path fill="none" stroke="midnightblue" d="M405.55,-488.37C382.89,-478.26 351.73,-464.35 331.93,-455.52"/>
<polygon fill="midnightblue" stroke="midnightblue" points="404.12,-491.56 414.68,-492.44 406.97,-485.17 404.12,-491.56"/>
</g>
<!-- Node28 -->
<g id="node28" class="node">
<title>Node28</title>
<g id="a_node28"><a xlink:href="_move__tracker_8hpp.html" target="_top" xlink:title="Track ergodic moves.">
<polygon fill="white" stroke="black" points="710.35,-313.5 710.35,-332.5 851.35,-332.5 851.35,-313.5 710.35,-313.5"/>
<text text-anchor="middle" x="780.85" y="-320.5" font-family="Helvetica,sans-Serif" font-size="10.00">include/Move_tracker.hpp</text>
</a>
</g>
</g>
<!-- Node1&#45;&gt;Node28 -->
<g id="edge29" class="edge">
<title>Node1&#45;&gt;Node28</title>
<path fill="none" stroke="midnightblue" d="M459.71,-487.81C527.25,-453.36 707.65,-361.34 763.88,-332.66"/>
<polygon fill="midnightblue" stroke="midnightblue" points="457.91,-484.8 450.59,-492.46 461.09,-491.04 457.91,-484.8"/>
</g>
<!-- Node3 -->
<g id="node3" class="node">
<title>Node3</title>
<g id="a_node3"><a xlink:href="_geometry_8hpp.html" target="_top" xlink:title="Geometric quantities of Manifold used by MoveAlgorithm.">
<polygon fill="white" stroke="black" points="404.35,-375 404.35,-394 527.35,-394 527.35,-375 404.35,-375"/>
<text text-anchor="middle" x="465.85" y="-382" font-family="Helvetica,sans-Serif" font-size="10.00">include/Geometry.hpp</text>
</a>
</g>
</g>
<!-- Node2&#45;&gt;Node3 -->
<g id="edge2" class="edge">
<title>Node2&#45;&gt;Node3</title>
<path fill="none" stroke="midnightblue" d="M344.27,-432.78C374,-421.22 417.86,-404.16 443.97,-394.01"/>
<polygon fill="midnightblue" stroke="midnightblue" points="342.82,-429.59 334.77,-436.48 345.36,-436.11 342.82,-429.59"/>
</g>
<!-- Node15 -->
<g id="node15" class="node">
<title>Node15</title>
<g id="a_node15"><a xlink:href="bistellar_8cpp.html" target="_top" xlink:title="Example bistellar fip.">
<polygon fill="white" stroke="black" points="268.35,-185 268.35,-204 361.35,-204 361.35,-185 268.35,-185"/>
<text text-anchor="middle" x="314.85" y="-192" font-family="Helvetica,sans-Serif" font-size="10.00">src/bistellar.cpp</text>
</a>
</g>
</g>
<!-- Node2&#45;&gt;Node15 -->
<g id="edge26" class="edge">
<title>Node2&#45;&gt;Node15</title>
<path fill="none" stroke="midnightblue" d="M211.54,-437.22C152.4,-430.72 85.15,-419.31 62.85,-400 9.3,-353.64 -23.78,-300.17 21.85,-246 52.82,-209.24 193.82,-199.24 268.35,-196.52"/>
<polygon fill="midnightblue" stroke="midnightblue" points="211.4,-440.73 221.71,-438.3 212.14,-433.77 211.4,-440.73"/>
</g>
<!-- Node26 -->
<g id="node26" class="node">
<title>Node26</title>
<g id="a_node26"><a xlink:href="_foliated__triangulation__test_8cpp.html" target="_top" xlink:title="Tests for foliated triangulations.">
<polygon fill="white" stroke="black" points="71.85,-369.5 71.85,-399.5 221.85,-399.5 221.85,-369.5 71.85,-369.5"/>
<text text-anchor="start" x="79.85" y="-387.5" font-family="Helvetica,sans-Serif" font-size="10.00">tests/Foliated_triangulation</text>
<text text-anchor="middle" x="146.85" y="-376.5" font-family="Helvetica,sans-Serif" font-size="10.00">_test.cpp</text>
</a>
</g>
</g>
<!-- Node2&#45;&gt;Node26 -->
<g id="edge27" class="edge">
<title>Node2&#45;&gt;Node26</title>
<path fill="none" stroke="midnightblue" d="M279.3,-432.98C252.31,-423.3 214.34,-409.69 185.97,-399.52"/>
<polygon fill="midnightblue" stroke="midnightblue" points="278.47,-436.4 289.07,-436.48 280.84,-429.81 278.47,-436.4"/>
</g>
<!-- Node27 -->
<g id="node27" class="node">
<title>Node27</title>
<g id="a_node27"><a xlink:href="_tetrahedron__test_8cpp.html" target="_top" xlink:title="Tests for 3D triangulated and foliated tetrahedrons.">
<polygon fill="white" stroke="black" points="239.85,-375 239.85,-394 385.85,-394 385.85,-375 239.85,-375"/>
<text text-anchor="middle" x="312.85" y="-382" font-family="Helvetica,sans-Serif" font-size="10.00">tests/Tetrahedron_test.cpp</text>
</a>
</g>
</g>
<!-- Node2&#45;&gt;Node27 -->
<g id="edge28" class="edge">
<title>Node2&#45;&gt;Node27</title>
<path fill="none" stroke="midnightblue" d="M312.85,-426.32C312.85,-415.5 312.85,-402.4 312.85,-394.01"/>
<polygon fill="midnightblue" stroke="midnightblue" points="309.35,-426.48 312.85,-436.48 316.35,-426.48 309.35,-426.48"/>
</g>
<!-- Node4 -->
<g id="node4" class="node">
<title>Node4</title>
<g id="a_node4"><a xlink:href="_manifold_8hpp.html" target="_top" xlink:title="Data structures for manifolds.">
<polygon fill="white" stroke="black" points="447.35,-313.5 447.35,-332.5 566.35,-332.5 566.35,-313.5 447.35,-313.5"/>
<text text-anchor="middle" x="506.85" y="-320.5" font-family="Helvetica,sans-Serif" font-size="10.00">include/Manifold.hpp</text>
</a>
</g>
</g>
<!-- Node3&#45;&gt;Node4 -->
<g id="edge3" class="edge">
<title>Node3&#45;&gt;Node4</title>
<path fill="none" stroke="midnightblue" d="M477.56,-366.51C485.22,-355.39 494.9,-341.34 500.99,-332.51"/>
<polygon fill="midnightblue" stroke="midnightblue" points="474.52,-364.75 471.73,-374.98 480.28,-368.73 474.52,-364.75"/>
</g>
<!-- Node25 -->
<g id="node25" class="node">
<title>Node25</title>
<g id="a_node25"><a xlink:href="_geometry__test_8cpp.html" target="_top" xlink:title="Tests of new geometry data structure.">
<polygon fill="white" stroke="black" points="292.35,-313.5 292.35,-332.5 429.35,-332.5 429.35,-313.5 292.35,-313.5"/>
<text text-anchor="middle" x="360.85" y="-320.5" font-family="Helvetica,sans-Serif" font-size="10.00">tests/Geometry_test.cpp</text>
</a>
</g>
</g>
<!-- Node3&#45;&gt;Node25 -->
<g id="edge25" class="edge">
<title>Node3&#45;&gt;Node25</title>
<path fill="none" stroke="midnightblue" d="M441.85,-369.9C421.55,-358.4 393.09,-342.27 375.87,-332.51"/>
<polygon fill="midnightblue" stroke="midnightblue" points="440.38,-373.09 450.81,-374.98 443.83,-367 440.38,-373.09"/>
</g>
<!-- Node5 -->
<g id="node5" class="node">
<title>Node5</title>
<g id="a_node5"><a xlink:href="_ergodic__moves__3_8hpp.html" target="_top" xlink:title="Pachner moves on 2+1 dimensional foliated Delaunay triangulations.">
<polygon fill="white" stroke="black" points="854.35,-246.5 854.35,-276.5 983.35,-276.5 983.35,-246.5 854.35,-246.5"/>
<text text-anchor="start" x="862.35" y="-264.5" font-family="Helvetica,sans-Serif" font-size="10.00">include/Ergodic_moves</text>
<text text-anchor="middle" x="918.85" y="-253.5" font-family="Helvetica,sans-Serif" font-size="10.00">_3.hpp</text>
</a>
</g>
</g>
<!-- Node4&#45;&gt;Node5 -->
<g id="edge4" class="edge">
<title>Node4&#45;&gt;Node5</title>
<path fill="none" stroke="midnightblue" d="M576.78,-313.96C645.26,-305.78 752.48,-292.18 844.85,-277 847.95,-276.49 851.12,-275.95 854.32,-275.39"/>
<polygon fill="midnightblue" stroke="midnightblue" points="576.06,-310.52 566.54,-315.17 576.89,-317.47 576.06,-310.52"/>
</g>
<!-- Node19 -->
<g id="node19" class="node">
<title>Node19</title>
<g id="a_node19"><a xlink:href="initialize_8cpp.html" target="_top" xlink:title="Generates initial spacetimes.">
<polygon fill="white" stroke="black" points="30.85,-252 30.85,-271 126.85,-271 126.85,-252 30.85,-252"/>
<text text-anchor="middle" x="78.85" y="-259" font-family="Helvetica,sans-Serif" font-size="10.00">src/initialize.cpp</text>
</a>
</g>
</g>
<!-- Node4&#45;&gt;Node19 -->
<g id="edge19" class="edge">
<title>Node4&#45;&gt;Node19</title>
<path fill="none" stroke="midnightblue" d="M436.71,-312.88C301.95,-296.51 265.5,-301.11 135.85,-277 127.22,-275.39 117.95,-273.23 109.45,-271.07"/>
<polygon fill="midnightblue" stroke="midnightblue" points="436.66,-316.41 447.02,-314.15 437.52,-309.46 436.66,-316.41"/>
</g>
<!-- Node20 -->
<g id="node20" class="node">
<title>Node20</title>
<g id="a_node20"><a xlink:href="_manifold__test_8cpp.html" target="_top" xlink:title="Tests of new manifold data structure.">
<polygon fill="white" stroke="black" points="145.35,-252 145.35,-271 276.35,-271 276.35,-252 145.35,-252"/>
<text text-anchor="middle" x="210.85" y="-259" font-family="Helvetica,sans-Serif" font-size="10.00">tests/Manifold_test.cpp</text>
</a>
</g>
</g>
<!-- Node4&#45;&gt;Node20 -->
<g id="edge20" class="edge">
<title>Node4&#45;&gt;Node20</title>
<path fill="none" stroke="midnightblue" d="M454.49,-311.47C397.12,-299.94 306.23,-281.67 253.18,-271.01"/>
<polygon fill="midnightblue" stroke="midnightblue" points="453.95,-314.94 464.44,-313.48 455.33,-308.07 453.95,-314.94"/>
</g>
<!-- Node21 -->
<g id="node21" class="node">
<title>Node21</title>
<g id="a_node21"><a xlink:href="_move__tracker__test_8cpp.html" target="_top" xlink:title="Tests of MoveTracker, that is, that moves are tracked properly.">
<polygon fill="white" stroke="black" points="725.85,-246.5 725.85,-276.5 835.85,-276.5 835.85,-246.5 725.85,-246.5"/>
<text text-anchor="start" x="733.85" y="-264.5" font-family="Helvetica,sans-Serif" font-size="10.00">tests/Move_tracker</text>
<text text-anchor="middle" x="780.85" y="-253.5" font-family="Helvetica,sans-Serif" font-size="10.00">_test.cpp</text>
</a>
</g>
</g>
<!-- Node4&#45;&gt;Node21 -->
<g id="edge21" class="edge">
<title>Node4&#45;&gt;Node21</title>
<path fill="none" stroke="midnightblue" d="M556.72,-311.37C599.08,-302.32 661.48,-288.92 715.85,-277 719.01,-276.31 722.26,-275.59 725.54,-274.87"/>
<polygon fill="midnightblue" stroke="midnightblue" points="555.99,-307.95 546.94,-313.46 557.45,-314.79 555.99,-307.95"/>
</g>
<!-- Node22 -->
<g id="node22" class="node">
<title>Node22</title>
<g id="a_node22"><a xlink:href="_s3_action__test_8cpp.html" target="_top" xlink:title="Tests for the S3 action functions.">
<polygon fill="white" stroke="black" points="294.35,-252 294.35,-271 425.35,-271 425.35,-252 294.35,-252"/>
<text text-anchor="middle" x="359.85" y="-259" font-family="Helvetica,sans-Serif" font-size="10.00">tests/S3Action_test.cpp</text>
</a>
</g>
</g>
<!-- Node4&#45;&gt;Node22 -->
<g id="edge22" class="edge">
<title>Node4&#45;&gt;Node22</title>
<path fill="none" stroke="midnightblue" d="M476.29,-309.63C447.73,-298.07 405.85,-281.12 380.87,-271.01"/>
<polygon fill="midnightblue" stroke="midnightblue" points="475.21,-312.97 485.79,-313.48 477.83,-306.48 475.21,-312.97"/>
</g>
<!-- Node23 -->
<g id="node23" class="node">
<title>Node23</title>
<g id="a_node23"><a xlink:href="_utilities__test_8cpp.html" target="_top" xlink:title="Tests on utility functions.">
<polygon fill="white" stroke="black" points="443.85,-252 443.85,-271 569.85,-271 569.85,-252 443.85,-252"/>
<text text-anchor="middle" x="506.85" y="-259" font-family="Helvetica,sans-Serif" font-size="10.00">tests/Utilities_test.cpp</text>
</a>
</g>
</g>
<!-- Node4&#45;&gt;Node23 -->
<g id="edge23" class="edge">
<title>Node4&#45;&gt;Node23</title>
<path fill="none" stroke="midnightblue" d="M506.85,-303.32C506.85,-292.5 506.85,-279.4 506.85,-271.01"/>
<polygon fill="midnightblue" stroke="midnightblue" points="503.35,-303.48 506.85,-313.48 510.35,-303.48 503.35,-303.48"/>
</g>
<!-- Node24 -->
<g id="node24" class="node">
<title>Node24</title>
<g id="a_node24"><a xlink:href="_vertex__test_8cpp.html" target="_top" xlink:title="Tests on points and vertices in foliated Delaunay triangulations.">
<polygon fill="white" stroke="black" points="588.35,-252 588.35,-271 707.35,-271 707.35,-252 588.35,-252"/>
<text text-anchor="middle" x="647.85" y="-259" font-family="Helvetica,sans-Serif" font-size="10.00">tests/Vertex_test.cpp</text>
</a>
</g>
</g>
<!-- Node4&#45;&gt;Node24 -->
<g id="edge24" class="edge">
<title>Node4&#45;&gt;Node24</title>
<path fill="none" stroke="midnightblue" d="M536.52,-309.48C563.91,-297.92 603.83,-281.08 627.69,-271.01"/>
<polygon fill="midnightblue" stroke="midnightblue" points="534.91,-306.36 527.05,-313.48 537.63,-312.81 534.91,-306.36"/>
</g>
<!-- Node6 -->
<g id="node6" class="node">
<title>Node6</title>
<g id="a_node6"><a xlink:href="_move__command_8hpp.html" target="_top" xlink:title="Do ergodic moves using the Command pattern.">
<polygon fill="white" stroke="black" points="1053.35,-185 1053.35,-204 1210.35,-204 1210.35,-185 1053.35,-185"/>
<text text-anchor="middle" x="1131.85" y="-192" font-family="Helvetica,sans-Serif" font-size="10.00">include/Move_command.hpp</text>
</a>
</g>
</g>
<!-- Node5&#45;&gt;Node6 -->
<g id="edge5" class="edge">
<title>Node5&#45;&gt;Node6</title>
<path fill="none" stroke="midnightblue" d="M974.53,-243.51C1016.09,-230.83 1071.16,-214.02 1103.9,-204.03"/>
<polygon fill="midnightblue" stroke="midnightblue" points="973.35,-240.21 964.81,-246.48 975.39,-246.9 973.35,-240.21"/>
</g>
<!-- Node5&#45;&gt;Node15 -->
<g id="edge15" class="edge">
<title>Node5&#45;&gt;Node15</title>
<path fill="none" stroke="midnightblue" d="M844.17,-246C659.51,-219.63 452.31,-204.36 361.47,-198.39"/>
<polygon fill="midnightblue" stroke="midnightblue" points="843.94,-249.51 854.34,-247.47 844.94,-242.58 843.94,-249.51"/>
</g>
<!-- Node16 -->
<g id="node16" class="node">
<title>Node16</title>
<g id="a_node16"><a xlink:href="_apply__move__test_8cpp.html" target="_top" xlink:title="Applying ergodic moves to manifolds.">
<polygon fill="white" stroke="black" points="627.35,-185 627.35,-204 776.35,-204 776.35,-185 627.35,-185"/>
<text text-anchor="middle" x="701.85" y="-192" font-family="Helvetica,sans-Serif" font-size="10.00">tests/Apply_move_test.cpp</text>
</a>
</g>
</g>
<!-- Node5&#45;&gt;Node16 -->
<g id="edge16" class="edge">
<title>Node5&#45;&gt;Node16</title>
<path fill="none" stroke="midnightblue" d="M862.4,-243.59C820.02,-230.9 763.76,-214.04 730.32,-204.03"/>
<polygon fill="midnightblue" stroke="midnightblue" points="861.45,-246.96 872.03,-246.48 863.46,-240.25 861.45,-246.96"/>
</g>
<!-- Node17 -->
<g id="node17" class="node">
<title>Node17</title>
<g id="a_node17"><a xlink:href="_ergodic__moves__3__test_8cpp.html" target="_top" xlink:title="Tests for ergodic moves on foliated triangulations.">
<polygon fill="white" stroke="black" points="794.85,-179.5 794.85,-209.5 912.85,-209.5 912.85,-179.5 794.85,-179.5"/>
<text text-anchor="start" x="802.85" y="-197.5" font-family="Helvetica,sans-Serif" font-size="10.00">tests/Ergodic_moves</text>
<text text-anchor="middle" x="853.85" y="-186.5" font-family="Helvetica,sans-Serif" font-size="10.00">_3_test.cpp</text>
</a>
</g>
</g>
<!-- Node5&#45;&gt;Node17 -->
<g id="edge17" class="edge">
<title>Node5&#45;&gt;Node17</title>
<path fill="none" stroke="midnightblue" d="M897.66,-239.31C887.91,-229.56 876.61,-218.26 867.93,-209.58"/>
<polygon fill="midnightblue" stroke="midnightblue" points="895.2,-241.8 904.75,-246.4 900.15,-236.85 895.2,-241.8"/>
</g>
<!-- Node18 -->
<g id="node18" class="node">
<title>Node18</title>
<g id="a_node18"><a xlink:href="_function__ref__test_8cpp.html" target="_top" xlink:title="Tests on function pointers, lambdas, and function_refs.">
<polygon fill="white" stroke="black" points="930.85,-179.5 930.85,-209.5 1034.85,-209.5 1034.85,-179.5 930.85,-179.5"/>
<text text-anchor="start" x="938.85" y="-197.5" font-family="Helvetica,sans-Serif" font-size="10.00">tests/Function_ref</text>
<text text-anchor="middle" x="982.85" y="-186.5" font-family="Helvetica,sans-Serif" font-size="10.00">_test.cpp</text>
</a>
</g>
</g>
<!-- Node5&#45;&gt;Node18 -->
<g id="edge18" class="edge">
<title>Node5&#45;&gt;Node18</title>
<path fill="none" stroke="midnightblue" d="M940,-239.02C949.53,-229.34 960.53,-218.17 968.99,-209.58"/>
<polygon fill="midnightblue" stroke="midnightblue" points="937.26,-236.81 932.74,-246.4 942.25,-241.73 937.26,-236.81"/>
</g>
<!-- Node7 -->
<g id="node7" class="node">
<title>Node7</title>
<g id="a_node7"><a xlink:href="_move__strategy_8hpp.html" target="_top" xlink:title="Template class for move algorithms (strategies) on manifolds.">
<polygon fill="white" stroke="black" points="981.35,-118 981.35,-137 1128.35,-137 1128.35,-118 981.35,-118"/>
<text text-anchor="middle" x="1054.85" y="-125" font-family="Helvetica,sans-Serif" font-size="10.00">include/Move_strategy.hpp</text>
</a>
</g>
</g>
<!-- Node6&#45;&gt;Node7 -->
<g id="edge6" class="edge">
<title>Node6&#45;&gt;Node7</title>
<path fill="none" stroke="midnightblue" d="M1113.74,-178.21C1098.57,-165.41 1077.46,-147.59 1065.07,-137.13"/>
<polygon fill="midnightblue" stroke="midnightblue" points="1111.57,-180.96 1121.47,-184.73 1116.08,-175.61 1111.57,-180.96"/>
</g>
<!-- Node14 -->
<g id="node14" class="node">
<title>Node14</title>
<g id="a_node14"><a xlink:href="_move__command__test_8cpp.html" target="_top" xlink:title="Tests of MoveCommand, that is, that moves are handled properly.">
<polygon fill="white" stroke="black" points="1146.35,-112.5 1146.35,-142.5 1271.35,-142.5 1271.35,-112.5 1146.35,-112.5"/>
<text text-anchor="start" x="1154.35" y="-130.5" font-family="Helvetica,sans-Serif" font-size="10.00">tests/Move_command</text>
<text text-anchor="middle" x="1208.85" y="-119.5" font-family="Helvetica,sans-Serif" font-size="10.00">_test.cpp</text>
</a>
</g>
</g>
<!-- Node6&#45;&gt;Node14 -->
<g id="edge14" class="edge">
<title>Node6&#45;&gt;Node14</title>
<path fill="none" stroke="midnightblue" d="M1149.93,-178.24C1162.71,-167.45 1179.71,-153.1 1192.16,-142.59"/>
<polygon fill="midnightblue" stroke="midnightblue" points="1147.62,-175.61 1142.24,-184.73 1152.14,-180.96 1147.62,-175.61"/>
</g>
<!-- Node8 -->
<g id="node8" class="node">
<title>Node8</title>
<g id="a_node8"><a xlink:href="_metropolis_8hpp.html" target="_top" xlink:title="Perform Metropolis&#45;Hastings algorithm on Delaunay Triangulations.">
<polygon fill="white" stroke="black" points="1067.85,-56.5 1067.85,-75.5 1195.85,-75.5 1195.85,-56.5 1067.85,-56.5"/>
<text text-anchor="middle" x="1131.85" y="-63.5" font-family="Helvetica,sans-Serif" font-size="10.00">include/Metropolis.hpp</text>
</a>
</g>
</g>
<!-- Node7&#45;&gt;Node8 -->
<g id="edge7" class="edge">
<title>Node7&#45;&gt;Node8</title>
<path fill="none" stroke="midnightblue" d="M1073.88,-111.79C1088.65,-100.38 1108.61,-84.96 1120.84,-75.51"/>
<polygon fill="midnightblue" stroke="midnightblue" points="1071.66,-109.09 1065.88,-117.98 1075.94,-114.63 1071.66,-109.09"/>
</g>
<!-- Node12 -->
<g id="node12" class="node">
<title>Node12</title>
<g id="a_node12"><a xlink:href="_move__always_8hpp.html" target="_top" xlink:title="Randomly selects moves to always perform on triangulations.">
<polygon fill="white" stroke="black" points="906.35,-56.5 906.35,-75.5 1049.35,-75.5 1049.35,-56.5 906.35,-56.5"/>
<text text-anchor="middle" x="977.85" y="-63.5" font-family="Helvetica,sans-Serif" font-size="10.00">include/Move_always.hpp</text>
</a>
</g>
</g>
<!-- Node7&#45;&gt;Node12 -->
<g id="edge11" class="edge">
<title>Node7&#45;&gt;Node12</title>
<path fill="none" stroke="midnightblue" d="M1035.82,-111.79C1021.05,-100.38 1001.09,-84.96 988.86,-75.51"/>
<polygon fill="midnightblue" stroke="midnightblue" points="1033.77,-114.63 1043.82,-117.98 1038.05,-109.09 1033.77,-114.63"/>
</g>
<!-- Node9 -->
<g id="node9" class="node">
<title>Node9</title>
<g id="a_node9"><a xlink:href="cdt-opt_8cpp.html" target="_top" xlink:title="Outputs values to determine optimizations.">
<polygon fill="white" stroke="black" points="990.35,-0.5 990.35,-19.5 1079.35,-19.5 1079.35,-0.5 990.35,-0.5"/>
<text text-anchor="middle" x="1034.85" y="-7.5" font-family="Helvetica,sans-Serif" font-size="10.00">src/cdt&#45;opt.cpp</text>
</a>
</g>
</g>
<!-- Node8&#45;&gt;Node9 -->
<g id="edge8" class="edge">
<title>Node8&#45;&gt;Node9</title>
<path fill="none" stroke="midnightblue" d="M1107.52,-51.45C1089.61,-41.48 1065.8,-28.23 1050.4,-19.65"/>
<polygon fill="midnightblue" stroke="midnightblue" points="1105.83,-54.52 1116.27,-56.32 1109.23,-48.4 1105.83,-54.52"/>
</g>
<!-- Node10 -->
<g id="node10" class="node">
<title>Node10</title>
<g id="a_node10"><a xlink:href="cdt_8cpp.html" target="_top" xlink:title="The main executable.">
<polygon fill="white" stroke="black" points="1097.35,-0.5 1097.35,-19.5 1166.35,-19.5 1166.35,-0.5 1097.35,-0.5"/>
<text text-anchor="middle" x="1131.85" y="-7.5" font-family="Helvetica,sans-Serif" font-size="10.00">src/cdt.cpp</text>
</a>
</g>
</g>
<!-- Node8&#45;&gt;Node10 -->
<g id="edge9" class="edge">
<title>Node8&#45;&gt;Node10</title>
<path fill="none" stroke="midnightblue" d="M1131.85,-45.8C1131.85,-36.91 1131.85,-26.78 1131.85,-19.75"/>
<polygon fill="midnightblue" stroke="midnightblue" points="1128.35,-46.08 1131.85,-56.08 1135.35,-46.08 1128.35,-46.08"/>
</g>
<!-- Node11 -->
<g id="node11" class="node">
<title>Node11</title>
<g id="a_node11"><a xlink:href="_metropolis__test_8cpp.html" target="_top" xlink:title="Tests for the Metropolis&#45;Hastings algorithm.">
<polygon fill="white" stroke="black" points="1184.85,-0.5 1184.85,-19.5 1324.85,-19.5 1324.85,-0.5 1184.85,-0.5"/>
<text text-anchor="middle" x="1254.85" y="-7.5" font-family="Helvetica,sans-Serif" font-size="10.00">tests/Metropolis_test.cpp</text>
</a>
</g>
</g>
<!-- Node8&#45;&gt;Node11 -->
<g id="edge10" class="edge">
<title>Node8&#45;&gt;Node11</title>
<path fill="none" stroke="midnightblue" d="M1160.62,-52.37C1183.66,-42.26 1215.34,-28.35 1235.45,-19.52"/>
<polygon fill="midnightblue" stroke="midnightblue" points="1159.09,-49.22 1151.34,-56.44 1161.9,-55.63 1159.09,-49.22"/>
</g>
<!-- Node12&#45;&gt;Node9 -->
<g id="edge12" class="edge">
<title>Node12&#45;&gt;Node9</title>
<path fill="none" stroke="midnightblue" d="M994.47,-49.25C1004.59,-39.67 1017.13,-27.79 1025.53,-19.83"/>
<polygon fill="midnightblue" stroke="midnightblue" points="991.86,-46.91 987.01,-56.32 996.68,-51.99 991.86,-46.91"/>
</g>
<!-- Node13 -->
<g id="node13" class="node">
<title>Node13</title>
<g id="a_node13"><a xlink:href="_move__always__test_8cpp.html" target="_top" xlink:title="Tests for the Move Always algorithm.">
<polygon fill="white" stroke="black" points="817.35,-0.5 817.35,-19.5 972.35,-19.5 972.35,-0.5 817.35,-0.5"/>
<text text-anchor="middle" x="894.85" y="-7.5" font-family="Helvetica,sans-Serif" font-size="10.00">tests/Move_always_test.cpp</text>
</a>
</g>
</g>
<!-- Node12&#45;&gt;Node13 -->
<g id="edge13" class="edge">
<title>Node12&#45;&gt;Node13</title>
<path fill="none" stroke="midnightblue" d="M955.75,-50.62C940.59,-40.76 920.97,-27.99 908.15,-19.65"/>
<polygon fill="midnightblue" stroke="midnightblue" points="954.23,-53.8 964.52,-56.32 958.04,-47.94 954.23,-53.8"/>
</g>
<!-- Node28&#45;&gt;Node5 -->
<g id="edge30" class="edge">
<title>Node28&#45;&gt;Node5</title>
<path fill="none" stroke="midnightblue" d="M809.93,-309.46C832.29,-299.82 863.16,-286.51 886.33,-276.52"/>
<polygon fill="midnightblue" stroke="midnightblue" points="808.42,-306.3 800.62,-313.48 811.19,-312.73 808.42,-306.3"/>
</g>
<!-- Node28&#45;&gt;Node21 -->
<g id="edge31" class="edge">
<title>Node28&#45;&gt;Node21</title>
<path fill="none" stroke="midnightblue" d="M780.85,-303.23C780.85,-294.59 780.85,-284.5 780.85,-276.52"/>
<polygon fill="midnightblue" stroke="midnightblue" points="777.35,-303.48 780.85,-313.48 784.35,-303.48 777.35,-303.48"/>
</g>
</g>
</svg>
