<?xml version="1.0" encoding="UTF-8" standalone="no"?>
<!DOCTYPE svg PUBLIC "-//W3C//DTD SVG 1.1//EN"
 "http://www.w3.org/Graphics/SVG/1.1/DTD/svg11.dtd">
<!-- Generated by graphviz version 2.40.1 (20161225.0304)
 -->
<!-- Title: include/Utilities.hpp Pages: 1 -->
<!--zoomable 542 -->
<svg id="main" version="1.1" xmlns="http://www.w3.org/2000/svg" xmlns:xlink="http://www.w3.org/1999/xlink" xml:space="preserve" onload="init(evt)">
<style type="text/css"><![CDATA[
.edge:hover path { stroke: red; }
.edge:hover polygon { stroke: red; fill: red; }
]]></style>
<script type="text/javascript"><![CDATA[
var edges = document.getElementsByTagName('g');
if (edges && edges.length) {
  for (var i=0;i<edges.length;i++) {
    if (edges[i].id.substr(0,4)=='edge') {
      edges[i].setAttribute('class','edge');
    }
  }
}
]]></script>
        <defs>
                <circle id="rim" cx="0" cy="0" r="7"/>
                <circle id="rim2" cx="0" cy="0" r="3.5"/>
                <g id="zoomPlus">
                        <use xlink:href="#rim" fill="#404040">
                                <set attributeName="fill" to="#808080" begin="zoomplus.mouseover" end="zoomplus.mouseout"/>
                        </use>
                        <path d="M-4,0h8M0,-4v8" fill="none" stroke="white" stroke-width="1.5" pointer-events="none"/>
                </g>
                <g id="zoomMin">
                        <use xlink:href="#rim" fill="#404040">
                                <set attributeName="fill" to="#808080" begin="zoomminus.mouseover" end="zoomminus.mouseout"/>
                        </use>
                        <path d="M-4,0h8" fill="none" stroke="white" stroke-width="1.5" pointer-events="none"/>
                </g>
                <g id="dirArrow">
                        <path fill="none" stroke="white" stroke-width="1.5" d="M0,-3.0v7 M-2.5,-0.5L0,-3.0L2.5,-0.5"/>
                </g>
               <g id="resetDef">
                       <use xlink:href="#rim2" fill="#404040">
                               <set attributeName="fill" to="#808080" begin="reset.mouseover" end="reset.mouseout"/>
                       </use>
               </g>
        </defs>

<script type="text/javascript">
var viewWidth = 1058;
var viewHeight = 542;
var sectionId = 'dynsection-1';
</script>
<script xlink:href="svgpan.js"/>
<svg id="graph" class="graph">
<g id="viewport">
<title>include/Utilities.hpp</title>
<polygon fill="#ffffff" stroke="transparent" points="-4,4 -4,-538 1054,-538 1054,4 -4,4"/>
<!-- Node22 -->
<g id="node1" class="node">
<title>Node22</title>
<polygon fill="#bfbfbf" stroke="#000000" points="725,-514.5 725,-533.5 839,-533.5 839,-514.5 725,-514.5"/>
<text text-anchor="middle" x="782" y="-521.5" font-family="Helvetica,sans-Serif" font-size="10.00" fill="#000000">include/Utilities.hpp</text>
</g>
<!-- Node23 -->
<g id="node2" class="node">
<title>Node23</title>
<g id="a_node2"><a xlink:href="_foliated__triangulation_8hpp.html" target="_top" xlink:title="Create foliated spherical triangulations. ">
<polygon fill="#ffffff" stroke="#000000" points="599,-458.5 599,-477.5 781,-477.5 781,-458.5 599,-458.5"/>
<text text-anchor="middle" x="690" y="-465.5" font-family="Helvetica,sans-Serif" font-size="10.00" fill="#000000">include/Foliated_triangulation.hpp</text>
</a>
</g>
</g>
<!-- Node22&#45;&gt;Node23 -->
<g id="edge1" class="edge">
<title>Node22&#45;&gt;Node23</title>
<path fill="none" stroke="#191970" d="M756.9776,-508.769C740.675,-498.8456 719.899,-486.1994 705.8415,-477.6427"/>
<polygon fill="#191970" stroke="#191970" points="755.613,-512.0357 765.9748,-514.2455 759.2527,-506.0563 755.613,-512.0357"/>
</g>
<!-- Node47 -->
<g id="node26" class="node">
<title>Node47</title>
<g id="a_node26"><a xlink:href="_s3_triangulation_8hpp.html" target="_top" xlink:title="Functions on 3D Spherical Delaunay Triangulations. ">
<polygon fill="#ffffff" stroke="#000000" points="817.5,-458.5 817.5,-477.5 968.5,-477.5 968.5,-458.5 817.5,-458.5"/>
<text text-anchor="middle" x="893" y="-465.5" font-family="Helvetica,sans-Serif" font-size="10.00" fill="#000000">include/S3Triangulation.hpp</text>
</a>
</g>
</g>
<!-- Node22&#45;&gt;Node47 -->
<g id="edge25" class="edge">
<title>Node22&#45;&gt;Node47</title>
<path fill="none" stroke="#191970" d="M810.0734,-509.8368C830.1385,-499.7139 856.5922,-486.3679 874.1674,-477.5011"/>
<polygon fill="#191970" stroke="#191970" points="808.4332,-506.7441 801.0816,-514.3733 811.5862,-512.9938 808.4332,-506.7441"/>
</g>
<!-- Node24 -->
<g id="node3" class="node">
<title>Node24</title>
<g id="a_node3"><a xlink:href="_geometry_8hpp.html" target="_top" xlink:title="Data structures for geometry. ">
<polygon fill="#ffffff" stroke="#000000" points="592.5,-397 592.5,-416 715.5,-416 715.5,-397 592.5,-397"/>
<text text-anchor="middle" x="654" y="-404" font-family="Helvetica,sans-Serif" font-size="10.00" fill="#000000">include/Geometry.hpp</text>
</a>
</g>
</g>
<!-- Node23&#45;&gt;Node24 -->
<g id="edge2" class="edge">
<title>Node23&#45;&gt;Node24</title>
<path fill="none" stroke="#191970" d="M679.2209,-449.5857C672.809,-438.632 664.9316,-425.1748 659.7043,-416.2449"/>
<polygon fill="#191970" stroke="#191970" points="676.3026,-451.5286 684.375,-458.3906 682.3437,-447.9923 676.3026,-451.5286"/>
</g>
<!-- Node45 -->
<g id="node24" class="node">
<title>Node45</title>
<g id="a_node24"><a xlink:href="_foliated__triangulation__test_8cpp.html" target="_top" xlink:title="Tests for foliated triangulations. ">
<polygon fill="#ffffff" stroke="#000000" points="734,-391.5 734,-421.5 884,-421.5 884,-391.5 734,-391.5"/>
<text text-anchor="start" x="742" y="-409.5" font-family="Helvetica,sans-Serif" font-size="10.00" fill="#000000">tests/Foliated_triangulation</text>
<text text-anchor="middle" x="809" y="-398.5" font-family="Helvetica,sans-Serif" font-size="10.00" fill="#000000">_test.cpp</text>
</a>
</g>
</g>
<!-- Node23&#45;&gt;Node45 -->
<g id="edge23" class="edge">
<title>Node23&#45;&gt;Node45</title>
<path fill="none" stroke="#191970" d="M717.496,-453.7899C736.184,-444.1318 760.8685,-431.3747 779.8893,-421.5446"/>
<polygon fill="#191970" stroke="#191970" points="715.8706,-450.6901 708.5938,-458.3906 719.0844,-456.9087 715.8706,-450.6901"/>
</g>
<!-- Node46 -->
<g id="node25" class="node">
<title>Node46</title>
<g id="a_node25"><a xlink:href="_tetrahedron__test_8cpp.html" target="_top" xlink:title="Tests for 3D triangulated and foliated tetrahedrons. ">
<polygon fill="#ffffff" stroke="#000000" points="428,-397 428,-416 574,-416 574,-397 428,-397"/>
<text text-anchor="middle" x="501" y="-404" font-family="Helvetica,sans-Serif" font-size="10.00" fill="#000000">tests/Tetrahedron_test.cpp</text>
</a>
</g>
</g>
<!-- Node23&#45;&gt;Node46 -->
<g id="edge24" class="edge">
<title>Node23&#45;&gt;Node46</title>
<path fill="none" stroke="#191970" d="M650.8194,-455.2507C614.9587,-443.5818 562.6946,-426.5752 530.3239,-416.0419"/>
<polygon fill="#191970" stroke="#191970" points="649.8765,-458.6245 660.4688,-458.3906 652.0425,-451.9681 649.8765,-458.6245"/>
</g>
<!-- Node25 -->
<g id="node4" class="node">
<title>Node25</title>
<g id="a_node4"><a xlink:href="_manifold_8hpp.html" target="_top" xlink:title="Data structures for manifolds. ">
<polygon fill="#ffffff" stroke="#000000" points="443,-335.5 443,-354.5 561,-354.5 561,-335.5 443,-335.5"/>
<text text-anchor="middle" x="502" y="-342.5" font-family="Helvetica,sans-Serif" font-size="10.00" fill="#000000">include/Manifold.hpp</text>
</a>
</g>
</g>
<!-- Node24&#45;&gt;Node25 -->
<g id="edge3" class="edge">
<title>Node24&#45;&gt;Node25</title>
<path fill="none" stroke="#191970" d="M620.6231,-392.9955C591.8604,-381.358 551.0605,-364.8501 525.5832,-354.5419"/>
<polygon fill="#191970" stroke="#191970" points="619.6673,-396.3844 630.25,-396.8906 622.2928,-389.8954 619.6673,-396.3844"/>
</g>
<!-- Node44 -->
<g id="node23" class="node">
<title>Node44</title>
<g id="a_node23"><a xlink:href="_geometry__test_8cpp.html" target="_top" xlink:title="Tests of new geometry data structure. ">
<polygon fill="#ffffff" stroke="#000000" points="585.5,-335.5 585.5,-354.5 722.5,-354.5 722.5,-335.5 585.5,-335.5"/>
<text text-anchor="middle" x="654" y="-342.5" font-family="Helvetica,sans-Serif" font-size="10.00" fill="#000000">tests/Geometry_test.cpp</text>
</a>
</g>
</g>
<!-- Node24&#45;&gt;Node44 -->
<g id="edge22" class="edge">
<title>Node24&#45;&gt;Node44</title>
<path fill="none" stroke="#191970" d="M654,-386.7462C654,-376.0519 654,-363.314 654,-354.7449"/>
<polygon fill="#191970" stroke="#191970" points="650.5001,-386.8906 654,-396.8906 657.5001,-386.8907 650.5001,-386.8906"/>
</g>
<!-- Node26 -->
<g id="node5" class="node">
<title>Node26</title>
<g id="a_node5"><a xlink:href="_ergodic__moves__3_8hpp.html" target="_top" xlink:title="Pachner moves on 2+1 dimensional foliated Delaunay triangulations. ">
<polygon fill="#ffffff" stroke="#000000" points="579.5,-268.5 579.5,-298.5 708.5,-298.5 708.5,-268.5 579.5,-268.5"/>
<text text-anchor="start" x="587.5" y="-286.5" font-family="Helvetica,sans-Serif" font-size="10.00" fill="#000000">include/Ergodic_moves</text>
<text text-anchor="middle" x="644" y="-275.5" font-family="Helvetica,sans-Serif" font-size="10.00" fill="#000000">_3.hpp</text>
</a>
</g>
</g>
<!-- Node25&#45;&gt;Node26 -->
<g id="edge4" class="edge">
<title>Node25&#45;&gt;Node26</title>
<path fill="none" stroke="#191970" d="M533.5957,-331.316C556.032,-321.5988 586.1512,-308.5542 609.2629,-298.5446"/>
<polygon fill="#191970" stroke="#191970" points="531.9728,-328.2046 524.1875,-335.3906 534.7549,-334.628 531.9728,-328.2046"/>
</g>
<!-- Node39 -->
<g id="node18" class="node">
<title>Node39</title>
<g id="a_node18"><a xlink:href="initialize_8cpp.html" target="_top" xlink:title="Generates initial spacetimes. ">
<polygon fill="#ffffff" stroke="#000000" points="727,-274 727,-293 823,-293 823,-274 727,-274"/>
<text text-anchor="middle" x="775" y="-281" font-family="Helvetica,sans-Serif" font-size="10.00" fill="#000000">src/initialize.cpp</text>
</a>
</g>
</g>
<!-- Node25&#45;&gt;Node39 -->
<g id="edge17" class="edge">
<title>Node25&#45;&gt;Node39</title>
<path fill="none" stroke="#191970" d="M559.7857,-333.4592C603.1711,-324.5952 663.9756,-311.749 717,-299 724.6005,-297.1726 732.7258,-295.0855 740.416,-293.0478"/>
<polygon fill="#191970" stroke="#191970" points="559.077,-330.0316 549.9762,-335.4562 560.4734,-336.8909 559.077,-330.0316"/>
</g>
<!-- Node40 -->
<g id="node19" class="node">
<title>Node40</title>
<g id="a_node19"><a xlink:href="_manifold__test_8cpp.html" target="_top" xlink:title="Tests of new manifold data structure. ">
<polygon fill="#ffffff" stroke="#000000" points="0,-274 0,-293 130,-293 130,-274 0,-274"/>
<text text-anchor="middle" x="65" y="-281" font-family="Helvetica,sans-Serif" font-size="10.00" fill="#000000">tests/Manifold_test.cpp</text>
</a>
</g>
</g>
<!-- Node25&#45;&gt;Node40 -->
<g id="edge18" class="edge">
<title>Node25&#45;&gt;Node40</title>
<path fill="none" stroke="#191970" d="M432.659,-337.8905C359.4276,-329.9905 240.7187,-316.0695 139,-299 128.7734,-297.2839 117.8116,-295.1508 107.5421,-293.0217"/>
<polygon fill="#191970" stroke="#191970" points="432.3678,-341.3793 442.6839,-338.965 433.1139,-334.4191 432.3678,-341.3793"/>
</g>
<!-- Node41 -->
<g id="node20" class="node">
<title>Node41</title>
<g id="a_node20"><a xlink:href="_s3_action__test_8cpp.html" target="_top" xlink:title="Tests for the S3 action functions. ">
<polygon fill="#ffffff" stroke="#000000" points="148.5,-274 148.5,-293 279.5,-293 279.5,-274 148.5,-274"/>
<text text-anchor="middle" x="214" y="-281" font-family="Helvetica,sans-Serif" font-size="10.00" fill="#000000">tests/S3Action_test.cpp</text>
</a>
</g>
</g>
<!-- Node25&#45;&gt;Node41 -->
<g id="edge19" class="edge">
<title>Node25&#45;&gt;Node41</title>
<path fill="none" stroke="#191970" d="M447.4577,-333.3529C392.8111,-321.6836 309.7015,-303.9363 258.7888,-293.0643"/>
<polygon fill="#191970" stroke="#191970" points="446.8055,-336.7925 457.316,-335.4581 448.2674,-329.9469 446.8055,-336.7925"/>
</g>
<!-- Node42 -->
<g id="node21" class="node">
<title>Node42</title>
<g id="a_node21"><a xlink:href="_utilities__test_8cpp.html" target="_top" xlink:title="Tests on utility functions. ">
<polygon fill="#ffffff" stroke="#000000" points="298,-274 298,-293 424,-293 424,-274 298,-274"/>
<text text-anchor="middle" x="361" y="-281" font-family="Helvetica,sans-Serif" font-size="10.00" fill="#000000">tests/Utilities_test.cpp</text>
</a>
</g>
</g>
<!-- Node25&#45;&gt;Node42 -->
<g id="edge20" class="edge">
<title>Node25&#45;&gt;Node42</title>
<path fill="none" stroke="#191970" d="M470.6884,-331.3428C444.0271,-319.7139 406.4069,-303.3051 382.8765,-293.0419"/>
<polygon fill="#191970" stroke="#191970" points="469.4034,-334.6007 479.9688,-335.3906 472.202,-328.1845 469.4034,-334.6007"/>
</g>
<!-- Node43 -->
<g id="node22" class="node">
<title>Node43</title>
<g id="a_node22"><a xlink:href="_vertex__test_8cpp.html" target="_top" xlink:title="Tests on vertices in Delaunay triangulations. ">
<polygon fill="#ffffff" stroke="#000000" points="442.5,-274 442.5,-293 561.5,-293 561.5,-274 442.5,-274"/>
<text text-anchor="middle" x="502" y="-281" font-family="Helvetica,sans-Serif" font-size="10.00" fill="#000000">tests/Vertex_test.cpp</text>
</a>
</g>
</g>
<!-- Node25&#45;&gt;Node43 -->
<g id="edge21" class="edge">
<title>Node25&#45;&gt;Node43</title>
<path fill="none" stroke="#191970" d="M502,-325.2462C502,-314.5519 502,-301.814 502,-293.2449"/>
<polygon fill="#191970" stroke="#191970" points="498.5001,-325.3906 502,-335.3906 505.5001,-325.3907 498.5001,-325.3906"/>
</g>
<!-- Node27 -->
<g id="node6" class="node">
<title>Node27</title>
<g id="a_node6"><a xlink:href="_move__command_8hpp.html" target="_top" xlink:title="Do ergodic moves using the Command pattern. ">
<polygon fill="#ffffff" stroke="#000000" points="566,-207 566,-226 722,-226 722,-207 566,-207"/>
<text text-anchor="middle" x="644" y="-214" font-family="Helvetica,sans-Serif" font-size="10.00" fill="#000000">include/Move_command.hpp</text>
</a>
</g>
</g>
<!-- Node26&#45;&gt;Node27 -->
<g id="edge5" class="edge">
<title>Node26&#45;&gt;Node27</title>
<path fill="none" stroke="#191970" d="M644,-258.1199C644,-246.9072 644,-234.4031 644,-226.055"/>
<polygon fill="#191970" stroke="#191970" points="640.5001,-258.2966 644,-268.2967 647.5001,-258.2967 640.5001,-258.2966"/>
</g>
<!-- Node36 -->
<g id="node15" class="node">
<title>Node36</title>
<g id="a_node15"><a xlink:href="_apply__move__test_8cpp.html" target="_top" xlink:title="Apply ergodic moves to manifolds. ">
<polygon fill="#ffffff" stroke="#000000" points="740.5,-207 740.5,-226 889.5,-226 889.5,-207 740.5,-207"/>
<text text-anchor="middle" x="815" y="-214" font-family="Helvetica,sans-Serif" font-size="10.00" fill="#000000">tests/Apply_move_test.cpp</text>
</a>
</g>
</g>
<!-- Node26&#45;&gt;Node36 -->
<g id="edge14" class="edge">
<title>Node26&#45;&gt;Node36</title>
<path fill="none" stroke="#191970" d="M692.0156,-264.6869C724.0694,-252.1278 764.8872,-236.1349 790.4885,-226.1039"/>
<polygon fill="#191970" stroke="#191970" points="690.4097,-261.5569 682.3757,-268.4639 692.9634,-268.0745 690.4097,-261.5569"/>
</g>
<!-- Node37 -->
<g id="node16" class="node">
<title>Node37</title>
<g id="a_node16"><a xlink:href="_ergodic__moves__3__test_8cpp.html" target="_top" xlink:title="Tests for ergodic moves on foliated triangulations. ">
<polygon fill="#ffffff" stroke="#000000" points="308,-201.5 308,-231.5 426,-231.5 426,-201.5 308,-201.5"/>
<text text-anchor="start" x="316" y="-219.5" font-family="Helvetica,sans-Serif" font-size="10.00" fill="#000000">tests/Ergodic_moves</text>
<text text-anchor="middle" x="367" y="-208.5" font-family="Helvetica,sans-Serif" font-size="10.00" fill="#000000">_3_test.cpp</text>
</a>
</g>
</g>
<!-- Node26&#45;&gt;Node37 -->
<g id="edge15" class="edge">
<title>Node26&#45;&gt;Node37</title>
<path fill="none" stroke="#191970" d="M572.06,-266.0994C526.6829,-255.1237 468.7998,-241.1231 426.1102,-230.7974"/>
<polygon fill="#191970" stroke="#191970" points="571.2932,-269.5147 581.8358,-268.4639 572.9389,-262.7109 571.2932,-269.5147"/>
</g>
<!-- Node38 -->
<g id="node17" class="node">
<title>Node38</title>
<g id="a_node17"><a xlink:href="_function__ref__test_8cpp_source.html" target="_top" xlink:title="tests/Function_ref\l_test.cpp">
<polygon fill="#ffffff" stroke="#000000" points="444.5,-201.5 444.5,-231.5 547.5,-231.5 547.5,-201.5 444.5,-201.5"/>
<text text-anchor="start" x="452.5" y="-219.5" font-family="Helvetica,sans-Serif" font-size="10.00" fill="#000000">tests/Function_ref</text>
<text text-anchor="middle" x="496" y="-208.5" font-family="Helvetica,sans-Serif" font-size="10.00" fill="#000000">_test.cpp</text>
</a>
</g>
</g>
<!-- Node26&#45;&gt;Node38 -->
<g id="edge16" class="edge">
<title>Node26&#45;&gt;Node38</title>
<path fill="none" stroke="#191970" d="M601.6173,-264.3132C578.6739,-253.9267 550.7366,-241.2794 529.359,-231.6017"/>
<polygon fill="#191970" stroke="#191970" points="600.2325,-267.5282 610.7859,-268.4639 603.1194,-261.1512 600.2325,-267.5282"/>
</g>
<!-- Node28 -->
<g id="node7" class="node">
<title>Node28</title>
<g id="a_node7"><a xlink:href="_move__strategy_8hpp.html" target="_top" xlink:title="Base class for move algorithms on Delaunay Triangulations. ">
<polygon fill="#ffffff" stroke="#000000" points="473,-140 473,-159 619,-159 619,-140 473,-140"/>
<text text-anchor="middle" x="546" y="-147" font-family="Helvetica,sans-Serif" font-size="10.00" fill="#000000">include/Move_strategy.hpp</text>
</a>
</g>
</g>
<!-- Node27&#45;&gt;Node28 -->
<g id="edge6" class="edge">
<title>Node27&#45;&gt;Node28</title>
<path fill="none" stroke="#191970" d="M621.6009,-201.1864C602.6517,-188.2312 576.0864,-170.0693 560.015,-159.0817"/>
<polygon fill="#191970" stroke="#191970" points="619.7285,-204.146 629.959,-206.9005 623.6792,-198.3674 619.7285,-204.146"/>
</g>
<!-- Node35 -->
<g id="node14" class="node">
<title>Node35</title>
<g id="a_node14"><a xlink:href="_move__command__test_8cpp.html" target="_top" xlink:title="Tests for moves. ">
<polygon fill="#ffffff" stroke="#000000" points="637,-134.5 637,-164.5 761,-164.5 761,-134.5 637,-134.5"/>
<text text-anchor="start" x="645" y="-152.5" font-family="Helvetica,sans-Serif" font-size="10.00" fill="#000000">tests/Move_command</text>
<text text-anchor="middle" x="699" y="-141.5" font-family="Helvetica,sans-Serif" font-size="10.00" fill="#000000">_test.cpp</text>
</a>
</g>
</g>
<!-- Node27&#45;&gt;Node35 -->
<g id="edge13" class="edge">
<title>Node27&#45;&gt;Node35</title>
<path fill="none" stroke="#191970" d="M658.3309,-199.0423C667.1246,-188.33 678.2701,-174.7528 686.6687,-164.5218"/>
<polygon fill="#191970" stroke="#191970" points="655.5199,-196.9505 651.8802,-206.9005 660.9304,-201.392 655.5199,-196.9505"/>
</g>
<!-- Node29 -->
<g id="node8" class="node">
<title>Node29</title>
<g id="a_node8"><a xlink:href="_metropolis_8hpp.html" target="_top" xlink:title="Perform Metropolis&#45;Hastings algorithm on Delaunay Triangulations. ">
<polygon fill="#ffffff" stroke="#000000" points="770.5,-73 770.5,-92 897.5,-92 897.5,-73 770.5,-73"/>
<text text-anchor="middle" x="834" y="-80" font-family="Helvetica,sans-Serif" font-size="10.00" fill="#000000">include/Metropolis.hpp</text>
</a>
</g>
</g>
<!-- Node28&#45;&gt;Node29 -->
<g id="edge7" class="edge">
<title>Node28&#45;&gt;Node29</title>
<path fill="none" stroke="#191970" d="M596.9783,-137.6405C652.7608,-124.6633 741.1015,-104.1118 792.7175,-92.1039"/>
<polygon fill="#191970" stroke="#191970" points="595.9043,-134.2968 586.9575,-139.9717 597.4905,-141.1147 595.9043,-134.2968"/>
</g>
<!-- Node32 -->
<g id="node11" class="node">
<title>Node32</title>
<g id="a_node11"><a xlink:href="_move__always_8hpp.html" target="_top" xlink:title="Randomly selects moves to always perform on triangulations. ">
<polygon fill="#ffffff" stroke="#000000" points="464,-73 464,-92 606,-92 606,-73 464,-73"/>
<text text-anchor="middle" x="535" y="-80" font-family="Helvetica,sans-Serif" font-size="10.00" fill="#000000">include/Move_always.hpp</text>
</a>
</g>
</g>
<!-- Node28&#45;&gt;Node32 -->
<g id="edge10" class="edge">
<title>Node28&#45;&gt;Node32</title>
<path fill="none" stroke="#191970" d="M542.7963,-129.9863C540.751,-117.5286 538.1893,-101.9258 536.5731,-92.0817"/>
<polygon fill="#191970" stroke="#191970" points="539.35,-130.5997 544.424,-139.9005 546.2575,-129.4656 539.35,-130.5997"/>
</g>
<!-- Node30 -->
<g id="node9" class="node">
<title>Node30</title>
<g id="a_node9"><a xlink:href="cdt-opt_8cpp.html" target="_top" xlink:title="Outputs values to determine optimizations. ">
<polygon fill="#ffffff" stroke="#000000" points="789.5,-6 789.5,-25 878.5,-25 878.5,-6 789.5,-6"/>
<text text-anchor="middle" x="834" y="-13" font-family="Helvetica,sans-Serif" font-size="10.00" fill="#000000">src/cdt&#45;opt.cpp</text>
</a>
</g>
</g>
<!-- Node29&#45;&gt;Node30 -->
<g id="edge8" class="edge">
<title>Node29&#45;&gt;Node30</title>
<path fill="none" stroke="#191970" d="M834,-62.6079C834,-50.214 834,-34.8263 834,-25.0817"/>
<polygon fill="#191970" stroke="#191970" points="830.5001,-62.9005 834,-72.9005 837.5001,-62.9006 830.5001,-62.9005"/>
</g>
<!-- Node31 -->
<g id="node10" class="node">
<title>Node31</title>
<g id="a_node10"><a xlink:href="cdt_8cpp.html" target="_top" xlink:title="The main executable. ">
<polygon fill="#ffffff" stroke="#000000" points="702.5,-6 702.5,-25 771.5,-25 771.5,-6 702.5,-6"/>
<text text-anchor="middle" x="737" y="-13" font-family="Helvetica,sans-Serif" font-size="10.00" fill="#000000">src/cdt.cpp</text>
</a>
</g>
</g>
<!-- Node29&#45;&gt;Node31 -->
<g id="edge9" class="edge">
<title>Node29&#45;&gt;Node31</title>
<path fill="none" stroke="#191970" d="M811.8295,-67.1864C793.0736,-54.2312 766.7794,-36.0693 750.872,-25.0817"/>
<polygon fill="#191970" stroke="#191970" points="809.8851,-70.097 820.1023,-72.9005 813.8634,-64.3374 809.8851,-70.097"/>
</g>
<!-- Node33 -->
<g id="node12" class="node">
<title>Node33</title>
<g id="a_node12"><a xlink:href="_move__strategies__test_8cpp.html" target="_top" xlink:title="Tests for the Metropolis&#45;Hastings algorithm. ">
<polygon fill="#ffffff" stroke="#000000" points="406,-.5 406,-30.5 530,-30.5 530,-.5 406,-.5"/>
<text text-anchor="start" x="414" y="-18.5" font-family="Helvetica,sans-Serif" font-size="10.00" fill="#000000">tests/Move_strategies</text>
<text text-anchor="middle" x="468" y="-7.5" font-family="Helvetica,sans-Serif" font-size="10.00" fill="#000000">_test.cpp</text>
</a>
</g>
</g>
<!-- Node32&#45;&gt;Node33 -->
<g id="edge11" class="edge">
<title>Node32&#45;&gt;Node33</title>
<path fill="none" stroke="#191970" d="M518.1753,-65.6753C507.3691,-54.8691 493.4553,-40.9553 483.0218,-30.5218"/>
<polygon fill="#191970" stroke="#191970" points="515.8546,-68.3043 525.4005,-72.9005 520.8043,-63.3546 515.8546,-68.3043"/>
</g>
<!-- Node34 -->
<g id="node13" class="node">
<title>Node34</title>
<g id="a_node13"><a xlink:href="_simulation_test_8cpp_source.html" target="_top" xlink:title="tests/SimulationTest.cpp">
<polygon fill="#ffffff" stroke="#000000" points="548,-6 548,-25 684,-25 684,-6 548,-6"/>
<text text-anchor="middle" x="616" y="-13" font-family="Helvetica,sans-Serif" font-size="10.00" fill="#000000">tests/SimulationTest.cpp</text>
</a>
</g>
</g>
<!-- Node32&#45;&gt;Node34 -->
<g id="edge12" class="edge">
<title>Node32&#45;&gt;Node34</title>
<path fill="none" stroke="#191970" d="M554.586,-66.2992C570.1648,-53.4131 591.4332,-35.8207 604.4162,-25.0817"/>
<polygon fill="#191970" stroke="#191970" points="552.0801,-63.8298 546.6053,-72.9005 556.5417,-69.2237 552.0801,-63.8298"/>
</g>
<!-- Node48 -->
<g id="node27" class="node">
<title>Node48</title>
<g id="a_node27"><a xlink:href="_simplicial_manifold_8hpp.html" target="_top" xlink:title="Data structures for simplicial manifolds. ">
<polygon fill="#ffffff" stroke="#000000" points="834,-140 834,-159 1000,-159 1000,-140 834,-140"/>
<text text-anchor="middle" x="917" y="-147" font-family="Helvetica,sans-Serif" font-size="10.00" fill="#000000">include/SimplicialManifold.hpp</text>
</a>
</g>
</g>
<!-- Node47&#45;&gt;Node48 -->
<g id="edge26" class="edge">
<title>Node47&#45;&gt;Node48</title>
<path fill="none" stroke="#191970" d="M899.2011,-448.5599C906.3122,-424.505 917,-382.1686 917,-345 917,-345 917,-345 917,-283.5 917,-236.9722 917,-181.357 917,-159.2517"/>
<polygon fill="#191970" stroke="#191970" points="895.8178,-447.6549 896.2367,-458.2415 902.5111,-449.7043 895.8178,-447.6549"/>
</g>
<!-- Node49 -->
<g id="node28" class="node">
<title>Node49</title>
<g id="a_node28"><a xlink:href="_simulation_8hpp.html" target="_top" xlink:title="Simulation class. ">
<polygon fill="#ffffff" stroke="#000000" points="624,-73 624,-92 752,-92 752,-73 624,-73"/>
<text text-anchor="middle" x="688" y="-80" font-family="Helvetica,sans-Serif" font-size="10.00" fill="#000000">include/Simulation.hpp</text>
</a>
</g>
</g>
<!-- Node48&#45;&gt;Node49 -->
<g id="edge27" class="edge">
<title>Node48&#45;&gt;Node49</title>
<path fill="none" stroke="#191970" d="M874.5425,-137.0779C830.0751,-124.0678 761.1927,-103.9145 720.7493,-92.0817"/>
<polygon fill="#191970" stroke="#191970" points="873.6094,-140.4516 884.1899,-139.9005 875.5751,-133.7332 873.6094,-140.4516"/>
</g>
<!-- Node50 -->
<g id="node29" class="node">
<title>Node50</title>
<g id="a_node29"><a xlink:href="_simplicial_manifold_test_8cpp_source.html" target="_top" xlink:title="tests/SimplicialManifold\lTest.cpp">
<polygon fill="#ffffff" stroke="#000000" points="916,-67.5 916,-97.5 1050,-97.5 1050,-67.5 916,-67.5"/>
<text text-anchor="start" x="924" y="-85.5" font-family="Helvetica,sans-Serif" font-size="10.00" fill="#000000">tests/SimplicialManifold</text>
<text text-anchor="middle" x="983" y="-74.5" font-family="Helvetica,sans-Serif" font-size="10.00" fill="#000000">Test.cpp</text>
</a>
</g>
</g>
<!-- Node48&#45;&gt;Node50 -->
<g id="edge31" class="edge">
<title>Node48&#45;&gt;Node50</title>
<path fill="none" stroke="#191970" d="M933.5736,-132.6753C944.2185,-121.8691 957.9246,-107.9553 968.2024,-97.5218"/>
<polygon fill="#191970" stroke="#191970" points="930.9805,-130.3203 926.4562,-139.9005 935.9673,-135.2327 930.9805,-130.3203"/>
</g>
<!-- Node49&#45;&gt;Node30 -->
<g id="edge28" class="edge">
<title>Node49&#45;&gt;Node30</title>
<path fill="none" stroke="#191970" d="M718.3502,-68.5722C746.7148,-55.5555 788.3107,-36.467 813.1206,-25.0817"/>
<polygon fill="#191970" stroke="#191970" points="716.5471,-65.5486 708.9182,-72.9005 719.4667,-71.9107 716.5471,-65.5486"/>
</g>
<!-- Node49&#45;&gt;Node31 -->
<g id="edge29" class="edge">
<title>Node49&#45;&gt;Node31</title>
<path fill="none" stroke="#191970" d="M701.1786,-64.4803C710.4531,-51.7989 722.5022,-35.3235 729.9925,-25.0817"/>
<polygon fill="#191970" stroke="#191970" points="698.0986,-62.7627 695.0205,-72.9005 703.7488,-66.8949 698.0986,-62.7627"/>
</g>
<!-- Node49&#45;&gt;Node34 -->
<g id="edge30" class="edge">
<title>Node49&#45;&gt;Node34</title>
<path fill="none" stroke="#191970" d="M670.2042,-65.94C656.393,-53.0879 637.7303,-35.7212 626.2967,-25.0817"/>
<polygon fill="#191970" stroke="#191970" points="667.9791,-68.6504 677.6842,-72.9005 672.7478,-63.5259 667.9791,-68.6504"/>
</g>
</g>
</svg>
        <g id="navigator" transform="translate(0 0)" fill="#404254">
                <rect fill="#f2f5e9" fill-opacity="0.5" stroke="#606060" stroke-width=".5" x="0" y="0" width="60" height="60"/>
                <use id="zoomplus" xlink:href="#zoomPlus" x="17" y="9" onmousedown="handleZoom(evt,'in')"/>
                <use id="zoomminus" xlink:href="#zoomMin" x="42" y="9" onmousedown="handleZoom(evt,'out')"/>
                <use id="reset" xlink:href="#resetDef" x="30" y="36" onmousedown="handleReset()"/>
                <g id="arrowUp" xlink:href="#dirArrow" transform="translate(30 24)" onmousedown="handlePan(0,-1)">
                  <use xlink:href="#rim" fill="#404040">
                        <set attributeName="fill" to="#808080" begin="arrowUp.mouseover" end="arrowUp.mouseout"/>
                  </use>
                  <path fill="none" stroke="white" stroke-width="1.5" d="M0,-3.0v7 M-2.5,-0.5L0,-3.0L2.5,-0.5"/>
                </g>
                <g id="arrowRight" xlink:href="#dirArrow" transform="rotate(90) translate(36 -43)" onmousedown="handlePan(1,0)">
                  <use xlink:href="#rim" fill="#404040">
                        <set attributeName="fill" to="#808080" begin="arrowRight.mouseover" end="arrowRight.mouseout"/>
                  </use>
                  <path fill="none" stroke="white" stroke-width="1.5" d="M0,-3.0v7 M-2.5,-0.5L0,-3.0L2.5,-0.5"/>
                </g>
                <g id="arrowDown" xlink:href="#dirArrow" transform="rotate(180) translate(-30 -48)" onmousedown="handlePan(0,1)">
                  <use xlink:href="#rim" fill="#404040">
                        <set attributeName="fill" to="#808080" begin="arrowDown.mouseover" end="arrowDown.mouseout"/>
                  </use>
                  <path fill="none" stroke="white" stroke-width="1.5" d="M0,-3.0v7 M-2.5,-0.5L0,-3.0L2.5,-0.5"/>
                </g>
                <g id="arrowLeft" xlink:href="#dirArrow" transform="rotate(270) translate(-36 17)" onmousedown="handlePan(-1,0)">
                  <use xlink:href="#rim" fill="#404040">
                        <set attributeName="fill" to="#808080" begin="arrowLeft.mouseover" end="arrowLeft.mouseout"/>
                  </use>
                  <path fill="none" stroke="white" stroke-width="1.5" d="M0,-3.0v7 M-2.5,-0.5L0,-3.0L2.5,-0.5"/>
                </g>
        </g>
        <svg viewBox="0 0 15 15" width="100%" height="30px" preserveAspectRatio="xMaxYMin meet">
         <g id="arrow_out" transform="scale(0.3 0.3)">
          <a xlink:href="_utilities_8hpp__dep__incl_org.svg" target="_base">
           <rect id="button" ry="5" rx="5" y="6" x="6" height="38" width="38"
                fill="#f2f5e9" fill-opacity="0.5" stroke="#606060" stroke-width="1.0"/>
           <path id="arrow"
             d="M 11.500037,31.436501 C 11.940474,20.09759 22.043105,11.32322 32.158766,21.979434 L 37.068811,17.246167 C 37.068811,17.246167 37.088388,32 37.088388,32 L 22.160133,31.978069 C 22.160133,31.978069 26.997745,27.140456 26.997745,27.140456 C 18.528582,18.264221 13.291696,25.230495 11.500037,31.436501 z"
             style="fill:#404040;"/>
          </a>
         </g>
        </svg>
</svg>
