<?xml version="1.0" encoding="UTF-8" standalone="no"?>
<!DOCTYPE svg PUBLIC "-//W3C//DTD SVG 1.1//EN"
 "http://www.w3.org/Graphics/SVG/1.1/DTD/svg11.dtd">
<!-- Generated by graphviz version 2.43.0 (0)
 -->
<!-- Title: include/Utilities.hpp Pages: 1 -->
<svg width="1977pt" height="151pt"
 viewBox="0.00 0.00 1976.50 151.00" xmlns="http://www.w3.org/2000/svg" xmlns:xlink="http://www.w3.org/1999/xlink">
<g id="graph0" class="graph" transform="scale(1 1) rotate(0) translate(4 147)">
<title>include/Utilities.hpp</title>
<polygon fill="white" stroke="transparent" points="-4,4 -4,-147 1972.5,-147 1972.5,4 -4,4"/>
<!-- Node1 -->
<g id="node1" class="node">
<title>Node1</title>
<g id="a_node1"><a xlink:title="Utility functions.">
<polygon fill="#bfbfbf" stroke="black" points="797.5,-123.5 797.5,-142.5 911.5,-142.5 911.5,-123.5 797.5,-123.5"/>
<text text-anchor="middle" x="854.5" y="-130.5" font-family="Helvetica,sans-Serif" font-size="10.00">include/Utilities.hpp</text>
</a>
</g>
</g>
<!-- Node2 -->
<g id="node2" class="node">
<title>Node2</title>
<g id="a_node2"><a xlink:title=" ">
<polygon fill="white" stroke="#bfbfbf" points="0,-62 0,-81 83,-81 83,-62 0,-62"/>
<text text-anchor="middle" x="41.5" y="-69" font-family="Helvetica,sans-Serif" font-size="10.00">CGAL/Timer.h</text>
</a>
</g>
</g>
<!-- Node1&#45;&gt;Node2 -->
<g id="edge1" class="edge">
<title>Node1&#45;&gt;Node2</title>
<path fill="none" stroke="midnightblue" d="M797.41,-130.24C644.49,-125.28 228.06,-109.99 92.5,-87 87.6,-86.17 82.49,-85.04 77.49,-83.78"/>
<polygon fill="midnightblue" stroke="midnightblue" points="78.02,-80.3 67.46,-81.06 76.19,-87.06 78.02,-80.3"/>
</g>
<!-- Node3 -->
<g id="node3" class="node">
<title>Node3</title>
<g id="a_node3"><a xlink:title=" ">
<polygon fill="white" stroke="#bfbfbf" points="101.5,-62 101.5,-81 165.5,-81 165.5,-62 101.5,-62"/>
<text text-anchor="middle" x="133.5" y="-69" font-family="Helvetica,sans-Serif" font-size="10.00">algorithm</text>
</a>
</g>
</g>
<!-- Node1&#45;&gt;Node3 -->
<g id="edge2" class="edge">
<title>Node1&#45;&gt;Node3</title>
<path fill="none" stroke="midnightblue" d="M797.4,-130.23C656.1,-125.53 292.99,-111.39 174.5,-87 170.99,-86.28 167.38,-85.33 163.81,-84.25"/>
<polygon fill="midnightblue" stroke="midnightblue" points="164.64,-80.84 154.04,-81 162.43,-87.48 164.64,-80.84"/>
</g>
<!-- Node4 -->
<g id="node4" class="node">
<title>Node4</title>
<g id="a_node4"><a xlink:title=" ">
<polygon fill="white" stroke="#bfbfbf" points="183.5,-62 183.5,-81 235.5,-81 235.5,-62 183.5,-62"/>
<text text-anchor="middle" x="209.5" y="-69" font-family="Helvetica,sans-Serif" font-size="10.00">cassert</text>
</a>
</g>
</g>
<!-- Node1&#45;&gt;Node4 -->
<g id="edge3" class="edge">
<title>Node1&#45;&gt;Node4</title>
<path fill="none" stroke="midnightblue" d="M797.48,-130.11C666.74,-125.41 348.59,-111.72 244.5,-87 241.83,-86.37 239.11,-85.55 236.41,-84.64"/>
<polygon fill="midnightblue" stroke="midnightblue" points="237.53,-81.32 226.94,-81.01 235.02,-87.86 237.53,-81.32"/>
</g>
<!-- Node5 -->
<g id="node5" class="node">
<title>Node5</title>
<g id="a_node5"><a xlink:title=" ">
<polygon fill="white" stroke="#bfbfbf" points="254,-62 254,-81 303,-81 303,-62 254,-62"/>
<text text-anchor="middle" x="278.5" y="-69" font-family="Helvetica,sans-Serif" font-size="10.00">cstdlib</text>
</a>
</g>
</g>
<!-- Node1&#45;&gt;Node5 -->
<g id="edge4" class="edge">
<title>Node1&#45;&gt;Node5</title>
<path fill="none" stroke="midnightblue" d="M797.16,-129.56C677.15,-124.07 403.12,-109.46 312.5,-87 310.14,-86.41 307.72,-85.68 305.33,-84.86"/>
<polygon fill="midnightblue" stroke="midnightblue" points="306.36,-81.51 295.78,-81.13 303.82,-88.03 306.36,-81.51"/>
</g>
<!-- Node6 -->
<g id="node6" class="node">
<title>Node6</title>
<g id="a_node6"><a xlink:title=" ">
<polygon fill="white" stroke="#bfbfbf" points="321.5,-62 321.5,-81 389.5,-81 389.5,-62 321.5,-62"/>
<text text-anchor="middle" x="355.5" y="-69" font-family="Helvetica,sans-Serif" font-size="10.00">filesystem</text>
</a>
</g>
</g>
<!-- Node1&#45;&gt;Node6 -->
<g id="edge5" class="edge">
<title>Node1&#45;&gt;Node6</title>
<path fill="none" stroke="midnightblue" d="M797.35,-130.51C710.34,-127.31 539.85,-117.39 398.5,-87 394.82,-86.21 391.01,-85.21 387.25,-84.1"/>
<polygon fill="midnightblue" stroke="midnightblue" points="388.14,-80.71 377.55,-81 386.01,-87.38 388.14,-80.71"/>
</g>
<!-- Node7 -->
<g id="node7" class="node">
<title>Node7</title>
<g id="a_node7"><a xlink:title=" ">
<polygon fill="white" stroke="#bfbfbf" points="408,-62 408,-81 463,-81 463,-62 408,-62"/>
<text text-anchor="middle" x="435.5" y="-69" font-family="Helvetica,sans-Serif" font-size="10.00">fstream</text>
</a>
</g>
</g>
<!-- Node1&#45;&gt;Node7 -->
<g id="edge6" class="edge">
<title>Node1&#45;&gt;Node7</title>
<path fill="none" stroke="midnightblue" d="M797.37,-129.83C721.96,-125.93 585.54,-115.31 472.5,-87 469.83,-86.33 467.1,-85.52 464.38,-84.63"/>
<polygon fill="midnightblue" stroke="midnightblue" points="465.37,-81.26 454.78,-81.13 462.98,-87.84 465.37,-81.26"/>
</g>
<!-- Node8 -->
<g id="node8" class="node">
<title>Node8</title>
<g id="a_node8"><a xlink:title=" ">
<polygon fill="white" stroke="#bfbfbf" points="481.5,-62 481.5,-81 529.5,-81 529.5,-62 481.5,-62"/>
<text text-anchor="middle" x="505.5" y="-69" font-family="Helvetica,sans-Serif" font-size="10.00">gsl/gsl</text>
</a>
</g>
</g>
<!-- Node1&#45;&gt;Node8 -->
<g id="edge7" class="edge">
<title>Node1&#45;&gt;Node8</title>
<path fill="none" stroke="midnightblue" d="M797.3,-128.55C733.25,-123.62 626.83,-112.18 538.5,-87 536.35,-86.39 534.15,-85.66 531.97,-84.87"/>
<polygon fill="midnightblue" stroke="midnightblue" points="533.22,-81.6 522.64,-81.09 530.59,-88.09 533.22,-81.6"/>
</g>
<!-- Node9 -->
<g id="node9" class="node">
<title>Node9</title>
<g id="a_node9"><a xlink:title=" ">
<polygon fill="white" stroke="#bfbfbf" points="547.5,-62 547.5,-81 607.5,-81 607.5,-62 547.5,-62"/>
<text text-anchor="middle" x="577.5" y="-69" font-family="Helvetica,sans-Serif" font-size="10.00">iostream</text>
</a>
</g>
</g>
<!-- Node1&#45;&gt;Node9 -->
<g id="edge8" class="edge">
<title>Node1&#45;&gt;Node9</title>
<path fill="none" stroke="midnightblue" d="M797.13,-123.94C748.53,-116.45 677.27,-103.91 616.5,-87 613.85,-86.26 611.13,-85.42 608.41,-84.53"/>
<polygon fill="midnightblue" stroke="midnightblue" points="609.34,-81.15 598.74,-81.14 607.02,-87.75 609.34,-81.15"/>
</g>
<!-- Node10 -->
<g id="node10" class="node">
<title>Node10</title>
<g id="a_node10"><a xlink:title=" ">
<polygon fill="white" stroke="#bfbfbf" points="625.5,-62 625.5,-81 673.5,-81 673.5,-62 625.5,-62"/>
<text text-anchor="middle" x="649.5" y="-69" font-family="Helvetica,sans-Serif" font-size="10.00">mutex</text>
</a>
</g>
</g>
<!-- Node1&#45;&gt;Node10 -->
<g id="edge9" class="edge">
<title>Node1&#45;&gt;Node10</title>
<path fill="none" stroke="midnightblue" d="M814.69,-123.47C779.48,-115.48 726.96,-102.47 682.5,-87 680.64,-86.35 678.74,-85.64 676.83,-84.9"/>
<polygon fill="midnightblue" stroke="midnightblue" points="678.03,-81.61 667.45,-81 675.34,-88.07 678.03,-81.61"/>
</g>
<!-- Node11 -->
<g id="node11" class="node">
<title>Node11</title>
<g id="a_node11"><a xlink:title=" ">
<polygon fill="white" stroke="#bfbfbf" points="691.5,-62 691.5,-81 745.5,-81 745.5,-62 691.5,-62"/>
<text text-anchor="middle" x="718.5" y="-69" font-family="Helvetica,sans-Serif" font-size="10.00">random</text>
</a>
</g>
</g>
<!-- Node1&#45;&gt;Node11 -->
<g id="edge10" class="edge">
<title>Node1&#45;&gt;Node11</title>
<path fill="none" stroke="midnightblue" d="M835.01,-123.48C812.09,-113.45 773.81,-96.7 747.42,-85.15"/>
<polygon fill="midnightblue" stroke="midnightblue" points="748.51,-81.81 737.95,-81.01 745.71,-88.22 748.51,-81.81"/>
</g>
<!-- Node12 -->
<g id="node12" class="node">
<title>Node12</title>
<g id="a_node12"><a xlink:title=" ">
<polygon fill="white" stroke="#bfbfbf" points="763.5,-62 763.5,-81 803.5,-81 803.5,-62 763.5,-62"/>
<text text-anchor="middle" x="783.5" y="-69" font-family="Helvetica,sans-Serif" font-size="10.00">span</text>
</a>
</g>
</g>
<!-- Node1&#45;&gt;Node12 -->
<g id="edge11" class="edge">
<title>Node1&#45;&gt;Node12</title>
<path fill="none" stroke="midnightblue" d="M844.33,-123.48C833.15,-114.11 814.98,-98.88 801.41,-87.51"/>
<polygon fill="midnightblue" stroke="midnightblue" points="803.57,-84.75 793.65,-81.01 799.07,-90.11 803.57,-84.75"/>
</g>
<!-- Node13 -->
<g id="node13" class="node">
<title>Node13</title>
<g id="a_node13"><a xlink:title=" ">
<polygon fill="white" stroke="#bfbfbf" points="822,-62 822,-81 887,-81 887,-62 822,-62"/>
<text text-anchor="middle" x="854.5" y="-69" font-family="Helvetica,sans-Serif" font-size="10.00">stdexcept</text>
</a>
</g>
</g>
<!-- Node1&#45;&gt;Node13 -->
<g id="edge12" class="edge">
<title>Node1&#45;&gt;Node13</title>
<path fill="none" stroke="midnightblue" d="M854.5,-123.48C854.5,-115.08 854.5,-101.98 854.5,-91.16"/>
<polygon fill="midnightblue" stroke="midnightblue" points="858,-91.01 854.5,-81.01 851,-91.01 858,-91.01"/>
</g>
<!-- Node14 -->
<g id="node14" class="node">
<title>Node14</title>
<g id="a_node14"><a xlink:title=" ">
<polygon fill="white" stroke="#bfbfbf" points="905.5,-62 905.5,-81 949.5,-81 949.5,-62 905.5,-62"/>
<text text-anchor="middle" x="927.5" y="-69" font-family="Helvetica,sans-Serif" font-size="10.00">string</text>
</a>
</g>
</g>
<!-- Node1&#45;&gt;Node14 -->
<g id="edge13" class="edge">
<title>Node1&#45;&gt;Node14</title>
<path fill="none" stroke="midnightblue" d="M864.96,-123.48C876.45,-114.11 895.13,-98.88 909.09,-87.51"/>
<polygon fill="midnightblue" stroke="midnightblue" points="911.52,-90.04 917.06,-81.01 907.1,-84.61 911.52,-90.04"/>
</g>
<!-- Node15 -->
<g id="node15" class="node">
<title>Node15</title>
<g id="a_node15"><a xlink:title=" ">
<polygon fill="white" stroke="#bfbfbf" points="968,-62 968,-81 1033,-81 1033,-62 968,-62"/>
<text text-anchor="middle" x="1000.5" y="-69" font-family="Helvetica,sans-Serif" font-size="10.00">typeindex</text>
</a>
</g>
</g>
<!-- Node1&#45;&gt;Node15 -->
<g id="edge14" class="edge">
<title>Node1&#45;&gt;Node15</title>
<path fill="none" stroke="midnightblue" d="M875.42,-123.48C900.25,-113.36 941.84,-96.4 970.19,-84.85"/>
<polygon fill="midnightblue" stroke="midnightblue" points="971.68,-88.02 979.62,-81.01 969.04,-81.54 971.68,-88.02"/>
</g>
<!-- Node16 -->
<g id="node16" class="node">
<title>Node16</title>
<g id="a_node16"><a xlink:title=" ">
<polygon fill="white" stroke="#bfbfbf" points="1051,-62 1051,-81 1110,-81 1110,-62 1051,-62"/>
<text text-anchor="middle" x="1080.5" y="-69" font-family="Helvetica,sans-Serif" font-size="10.00">date/tz.h</text>
</a>
</g>
</g>
<!-- Node1&#45;&gt;Node16 -->
<g id="edge15" class="edge">
<title>Node1&#45;&gt;Node16</title>
<path fill="none" stroke="midnightblue" d="M896.11,-123.49C934.26,-115.33 992.15,-102.05 1041.5,-87 1044.07,-86.22 1046.71,-85.36 1049.35,-84.46"/>
<polygon fill="midnightblue" stroke="midnightblue" points="1050.55,-87.75 1058.79,-81.09 1048.2,-81.15 1050.55,-87.75"/>
</g>
<!-- Node17 -->
<g id="node17" class="node">
<title>Node17</title>
<g id="a_node17"><a xlink:title=" ">
<polygon fill="white" stroke="#bfbfbf" points="1128.5,-62 1128.5,-81 1178.5,-81 1178.5,-62 1128.5,-62"/>
<text text-anchor="middle" x="1153.5" y="-69" font-family="Helvetica,sans-Serif" font-size="10.00">chrono</text>
</a>
</g>
</g>
<!-- Node1&#45;&gt;Node17 -->
<g id="edge16" class="edge">
<title>Node1&#45;&gt;Node17</title>
<path fill="none" stroke="midnightblue" d="M911.72,-126C965.76,-119.45 1048.7,-107.13 1118.5,-87 1120.79,-86.34 1123.14,-85.57 1125.48,-84.75"/>
<polygon fill="midnightblue" stroke="midnightblue" points="1126.82,-87.98 1134.89,-81.12 1124.3,-81.45 1126.82,-87.98"/>
</g>
<!-- Node18 -->
<g id="node18" class="node">
<title>Node18</title>
<g id="a_node18"><a xlink:title=" ">
<polygon fill="white" stroke="#bfbfbf" points="1196.5,-62 1196.5,-81 1246.5,-81 1246.5,-62 1196.5,-62"/>
<text text-anchor="middle" x="1221.5" y="-69" font-family="Helvetica,sans-Serif" font-size="10.00">format</text>
</a>
</g>
</g>
<!-- Node1&#45;&gt;Node18 -->
<g id="edge17" class="edge">
<title>Node1&#45;&gt;Node18</title>
<path fill="none" stroke="midnightblue" d="M911.7,-128.95C978.79,-124.3 1092.87,-113.06 1187.5,-87 1189.8,-86.37 1192.14,-85.61 1194.47,-84.79"/>
<polygon fill="midnightblue" stroke="midnightblue" points="1195.81,-88.02 1203.82,-81.1 1193.24,-81.51 1195.81,-88.02"/>
</g>
<!-- Node19 -->
<g id="node19" class="node">
<title>Node19</title>
<g id="a_node19"><a xlink:title=" ">
<polygon fill="white" stroke="#bfbfbf" points="1264.5,-62 1264.5,-81 1362.5,-81 1362.5,-62 1264.5,-62"/>
<text text-anchor="middle" x="1313.5" y="-69" font-family="Helvetica,sans-Serif" font-size="10.00">pcg_random.hpp</text>
</a>
</g>
</g>
<!-- Node1&#45;&gt;Node19 -->
<g id="edge18" class="edge">
<title>Node1&#45;&gt;Node19</title>
<path fill="none" stroke="midnightblue" d="M911.62,-128C989.72,-121.98 1133.99,-108.91 1255.5,-87 1261.05,-86 1266.87,-84.77 1272.57,-83.45"/>
<polygon fill="midnightblue" stroke="midnightblue" points="1273.76,-86.77 1282.66,-81.02 1272.12,-79.96 1273.76,-86.77"/>
</g>
<!-- Node20 -->
<g id="node20" class="node">
<title>Node20</title>
<g id="a_node20"><a xlink:title=" ">
<polygon fill="white" stroke="#bfbfbf" points="1380.5,-62 1380.5,-81 1466.5,-81 1466.5,-62 1380.5,-62"/>
<text text-anchor="middle" x="1423.5" y="-69" font-family="Helvetica,sans-Serif" font-size="10.00">fmt/ostream.h</text>
</a>
</g>
</g>
<!-- Node1&#45;&gt;Node20 -->
<g id="edge19" class="edge">
<title>Node1&#45;&gt;Node20</title>
<path fill="none" stroke="midnightblue" d="M911.57,-130.48C1007.34,-127.16 1206.17,-116.98 1371.5,-87 1376.37,-86.12 1381.45,-84.98 1386.44,-83.73"/>
<polygon fill="midnightblue" stroke="midnightblue" points="1387.7,-87.02 1396.46,-81.06 1385.9,-80.25 1387.7,-87.02"/>
</g>
<!-- Node21 -->
<g id="node21" class="node">
<title>Node21</title>
<g id="a_node21"><a xlink:title=" ">
<polygon fill="white" stroke="#bfbfbf" points="1484.5,-56.5 1484.5,-86.5 1590.5,-86.5 1590.5,-56.5 1484.5,-56.5"/>
<text text-anchor="start" x="1492.5" y="-74.5" font-family="Helvetica,sans-Serif" font-size="10.00">spdlog/sinks/basic</text>
<text text-anchor="middle" x="1537.5" y="-63.5" font-family="Helvetica,sans-Serif" font-size="10.00">_file_sink.h</text>
</a>
</g>
</g>
<!-- Node1&#45;&gt;Node21 -->
<g id="edge20" class="edge">
<title>Node1&#45;&gt;Node21</title>
<path fill="none" stroke="midnightblue" d="M911.77,-130.86C1019.95,-128.05 1261.81,-118.65 1474.08,-87.06"/>
<polygon fill="midnightblue" stroke="midnightblue" points="1474.8,-90.49 1484.17,-85.53 1473.76,-83.57 1474.8,-90.49"/>
</g>
<!-- Node22 -->
<g id="node22" class="node">
<title>Node22</title>
<g id="a_node22"><a xlink:title=" ">
<polygon fill="white" stroke="#bfbfbf" points="1609,-56.5 1609,-86.5 1720,-86.5 1720,-56.5 1609,-56.5"/>
<text text-anchor="start" x="1617" y="-74.5" font-family="Helvetica,sans-Serif" font-size="10.00">spdlog/sinks/stdout</text>
<text text-anchor="middle" x="1664.5" y="-63.5" font-family="Helvetica,sans-Serif" font-size="10.00">_color_sinks.h</text>
</a>
</g>
</g>
<!-- Node1&#45;&gt;Node22 -->
<g id="edge21" class="edge">
<title>Node1&#45;&gt;Node22</title>
<path fill="none" stroke="midnightblue" d="M911.82,-131.64C1035.58,-130.19 1337.02,-123.05 1598.86,-86.91"/>
<polygon fill="midnightblue" stroke="midnightblue" points="1599.52,-90.36 1608.94,-85.51 1598.55,-83.42 1599.52,-90.36"/>
</g>
<!-- Node23 -->
<g id="node23" class="node">
<title>Node23</title>
<g id="a_node23"><a xlink:title=" ">
<polygon fill="white" stroke="#bfbfbf" points="1738,-62 1738,-81 1831,-81 1831,-62 1738,-62"/>
<text text-anchor="middle" x="1784.5" y="-69" font-family="Helvetica,sans-Serif" font-size="10.00">spdlog/spdlog.h</text>
</a>
</g>
</g>
<!-- Node1&#45;&gt;Node23 -->
<g id="edge22" class="edge">
<title>Node1&#45;&gt;Node23</title>
<path fill="none" stroke="midnightblue" d="M911.63,-130.57C1079.64,-126.11 1570.16,-111.32 1728.5,-87 1734.35,-86.1 1740.48,-84.85 1746.44,-83.45"/>
<polygon fill="midnightblue" stroke="midnightblue" points="1747.39,-86.82 1756.24,-81 1745.69,-80.03 1747.39,-86.82"/>
</g>
<!-- Node24 -->
<g id="node24" class="node">
<title>Node24</title>
<g id="a_node24"><a xlink:href="_settings_8hpp.html" target="_top" xlink:title="Global integer and precision settings.">
<polygon fill="white" stroke="black" points="1849,-62 1849,-81 1926,-81 1926,-62 1849,-62"/>
<text text-anchor="middle" x="1887.5" y="-69" font-family="Helvetica,sans-Serif" font-size="10.00">Settings.hpp</text>
</a>
</g>
</g>
<!-- Node1&#45;&gt;Node24 -->
<g id="edge23" class="edge">
<title>Node1&#45;&gt;Node24</title>
<path fill="none" stroke="midnightblue" d="M911.78,-131.29C1094.21,-128.73 1660.18,-118.4 1840.5,-87 1844.97,-86.22 1849.62,-85.14 1854.17,-83.92"/>
<polygon fill="midnightblue" stroke="midnightblue" points="1855.27,-87.24 1863.88,-81.07 1853.3,-80.52 1855.27,-87.24"/>
</g>
<!-- Node25 -->
<g id="node25" class="node">
<title>Node25</title>
<g id="a_node25"><a xlink:title=" ">
<polygon fill="white" stroke="#bfbfbf" points="1760.5,-0.5 1760.5,-19.5 1900.5,-19.5 1900.5,-0.5 1760.5,-0.5"/>
<text text-anchor="middle" x="1830.5" y="-7.5" font-family="Helvetica,sans-Serif" font-size="10.00">CGAL/GMP/Gmpzf_type.h</text>
</a>
</g>
</g>
<!-- Node24&#45;&gt;Node25 -->
<g id="edge24" class="edge">
<title>Node24&#45;&gt;Node25</title>
<path fill="none" stroke="midnightblue" d="M1879.33,-61.98C1870.61,-52.87 1856.6,-38.24 1845.81,-26.98"/>
<polygon fill="midnightblue" stroke="midnightblue" points="1848.1,-24.31 1838.65,-19.51 1843.04,-29.15 1848.1,-24.31"/>
</g>
<!-- Node26 -->
<g id="node26" class="node">
<title>Node26</title>
<g id="a_node26"><a xlink:title=" ">
<polygon fill="white" stroke="#bfbfbf" points="1918.5,-0.5 1918.5,-19.5 1968.5,-19.5 1968.5,-0.5 1918.5,-0.5"/>
<text text-anchor="middle" x="1943.5" y="-7.5" font-family="Helvetica,sans-Serif" font-size="10.00">cstdint</text>
</a>
</g>
</g>
<!-- Node24&#45;&gt;Node26 -->
<g id="edge25" class="edge">
<title>Node24&#45;&gt;Node26</title>
<path fill="none" stroke="midnightblue" d="M1895.52,-61.98C1904.09,-52.87 1917.86,-38.24 1928.46,-26.98"/>
<polygon fill="midnightblue" stroke="midnightblue" points="1931.19,-29.19 1935.49,-19.51 1926.09,-24.39 1931.19,-29.19"/>
</g>
</g>
</svg>
