<?xml version="1.0" encoding="UTF-8" standalone="no"?>
<!DOCTYPE svg PUBLIC "-//W3C//DTD SVG 1.1//EN"
 "http://www.w3.org/Graphics/SVG/1.1/DTD/svg11.dtd">
<!-- Generated by graphviz version 2.43.0 (0)
 -->
<!-- Title: include/Utilities.hpp Pages: 1 -->
<svg width="1926pt" height="151pt"
 viewBox="0.00 0.00 1925.50 151.00" xmlns="http://www.w3.org/2000/svg" xmlns:xlink="http://www.w3.org/1999/xlink">
<g id="graph0" class="graph" transform="scale(1 1) rotate(0) translate(4 147)">
<title>include/Utilities.hpp</title>
<polygon fill="white" stroke="transparent" points="-4,4 -4,-147 1921.5,-147 1921.5,4 -4,4"/>
<!-- Node1 -->
<g id="node1" class="node">
<title>Node1</title>
<g id="a_node1"><a xlink:title="Utility functions.">
<polygon fill="#bfbfbf" stroke="black" points="761.5,-123.5 761.5,-142.5 875.5,-142.5 875.5,-123.5 761.5,-123.5"/>
<text text-anchor="middle" x="818.5" y="-130.5" font-family="Helvetica,sans-Serif" font-size="10.00">include/Utilities.hpp</text>
</a>
</g>
</g>
<!-- Node2 -->
<g id="node2" class="node">
<title>Node2</title>
<g id="a_node2"><a xlink:title=" ">
<polygon fill="white" stroke="#bfbfbf" points="0,-62 0,-81 83,-81 83,-62 0,-62"/>
<text text-anchor="middle" x="41.5" y="-69" font-family="Helvetica,sans-Serif" font-size="10.00">CGAL/Timer.h</text>
</a>
</g>
</g>
<!-- Node1&#45;&gt;Node2 -->
<g id="edge1" class="edge">
<title>Node1&#45;&gt;Node2</title>
<path fill="none" stroke="midnightblue" d="M761.07,-132.61C637.72,-133.02 338.65,-129.11 92.5,-87 87.6,-86.16 82.49,-85.03 77.49,-83.77"/>
<polygon fill="midnightblue" stroke="midnightblue" points="78.03,-80.29 67.46,-81.05 76.19,-87.04 78.03,-80.29"/>
</g>
<!-- Node3 -->
<g id="node3" class="node">
<title>Node3</title>
<g id="a_node3"><a xlink:title=" ">
<polygon fill="white" stroke="#bfbfbf" points="101.5,-62 101.5,-81 165.5,-81 165.5,-62 101.5,-62"/>
<text text-anchor="middle" x="133.5" y="-69" font-family="Helvetica,sans-Serif" font-size="10.00">algorithm</text>
</a>
</g>
</g>
<!-- Node1&#45;&gt;Node3 -->
<g id="edge2" class="edge">
<title>Node1&#45;&gt;Node3</title>
<path fill="none" stroke="midnightblue" d="M761.44,-129.99C625.57,-124.88 285.88,-110.14 174.5,-87 171.07,-86.29 167.54,-85.36 164.05,-84.31"/>
<polygon fill="midnightblue" stroke="midnightblue" points="165.06,-80.96 154.47,-81.14 162.86,-87.6 165.06,-80.96"/>
</g>
<!-- Node4 -->
<g id="node4" class="node">
<title>Node4</title>
<g id="a_node4"><a xlink:title=" ">
<polygon fill="white" stroke="#bfbfbf" points="183.5,-62 183.5,-81 235.5,-81 235.5,-62 183.5,-62"/>
<text text-anchor="middle" x="209.5" y="-69" font-family="Helvetica,sans-Serif" font-size="10.00">cassert</text>
</a>
</g>
</g>
<!-- Node1&#45;&gt;Node4 -->
<g id="edge3" class="edge">
<title>Node1&#45;&gt;Node4</title>
<path fill="none" stroke="midnightblue" d="M761.13,-129.79C635.89,-124.6 341.46,-110.26 244.5,-87 241.98,-86.4 239.41,-85.63 236.86,-84.78"/>
<polygon fill="midnightblue" stroke="midnightblue" points="237.89,-81.43 227.3,-81.14 235.4,-87.97 237.89,-81.43"/>
</g>
<!-- Node5 -->
<g id="node5" class="node">
<title>Node5</title>
<g id="a_node5"><a xlink:title=" ">
<polygon fill="white" stroke="#bfbfbf" points="254,-62 254,-81 303,-81 303,-62 254,-62"/>
<text text-anchor="middle" x="278.5" y="-69" font-family="Helvetica,sans-Serif" font-size="10.00">cstdlib</text>
</a>
</g>
</g>
<!-- Node1&#45;&gt;Node5 -->
<g id="edge4" class="edge">
<title>Node1&#45;&gt;Node5</title>
<path fill="none" stroke="midnightblue" d="M761.38,-132.7C666.62,-132.59 471.61,-126.93 312.5,-87 310.14,-86.41 307.73,-85.67 305.34,-84.85"/>
<polygon fill="midnightblue" stroke="midnightblue" points="306.37,-81.49 295.78,-81.11 303.82,-88.01 306.37,-81.49"/>
</g>
<!-- Node6 -->
<g id="node6" class="node">
<title>Node6</title>
<g id="a_node6"><a xlink:title=" ">
<polygon fill="white" stroke="#bfbfbf" points="321.5,-62 321.5,-81 389.5,-81 389.5,-62 321.5,-62"/>
<text text-anchor="middle" x="355.5" y="-69" font-family="Helvetica,sans-Serif" font-size="10.00">filesystem</text>
</a>
</g>
</g>
<!-- Node1&#45;&gt;Node6 -->
<g id="edge5" class="edge">
<title>Node1&#45;&gt;Node6</title>
<path fill="none" stroke="midnightblue" d="M761.48,-129.84C680.11,-125.86 526.36,-115.05 398.5,-87 395.01,-86.23 391.4,-85.28 387.84,-84.24"/>
<polygon fill="midnightblue" stroke="midnightblue" points="388.59,-80.81 378,-81.12 386.47,-87.48 388.59,-80.81"/>
</g>
<!-- Node7 -->
<g id="node7" class="node">
<title>Node7</title>
<g id="a_node7"><a xlink:title=" ">
<polygon fill="white" stroke="#bfbfbf" points="408,-62 408,-81 463,-81 463,-62 408,-62"/>
<text text-anchor="middle" x="435.5" y="-69" font-family="Helvetica,sans-Serif" font-size="10.00">fstream</text>
</a>
</g>
</g>
<!-- Node1&#45;&gt;Node7 -->
<g id="edge6" class="edge">
<title>Node1&#45;&gt;Node7</title>
<path fill="none" stroke="midnightblue" d="M761.36,-128.85C692.09,-124.06 572.24,-112.62 472.5,-87 469.84,-86.32 467.1,-85.49 464.39,-84.59"/>
<polygon fill="midnightblue" stroke="midnightblue" points="465.39,-81.23 454.79,-81.09 462.98,-87.8 465.39,-81.23"/>
</g>
<!-- Node8 -->
<g id="node8" class="node">
<title>Node8</title>
<g id="a_node8"><a xlink:title=" ">
<polygon fill="white" stroke="#bfbfbf" points="481.5,-62 481.5,-81 529.5,-81 529.5,-62 481.5,-62"/>
<text text-anchor="middle" x="505.5" y="-69" font-family="Helvetica,sans-Serif" font-size="10.00">gsl/gsl</text>
</a>
</g>
</g>
<!-- Node1&#45;&gt;Node8 -->
<g id="edge7" class="edge">
<title>Node1&#45;&gt;Node8</title>
<path fill="none" stroke="midnightblue" d="M761.25,-127.1C703.98,-121.21 613.82,-109.21 538.5,-87 536.35,-86.37 534.16,-85.63 531.98,-84.83"/>
<polygon fill="midnightblue" stroke="midnightblue" points="533.24,-81.56 522.66,-81.03 530.6,-88.04 533.24,-81.56"/>
</g>
<!-- Node9 -->
<g id="node9" class="node">
<title>Node9</title>
<g id="a_node9"><a xlink:title=" ">
<polygon fill="white" stroke="#bfbfbf" points="547.5,-62 547.5,-81 607.5,-81 607.5,-62 547.5,-62"/>
<text text-anchor="middle" x="577.5" y="-69" font-family="Helvetica,sans-Serif" font-size="10.00">iostream</text>
</a>
</g>
</g>
<!-- Node1&#45;&gt;Node9 -->
<g id="edge8" class="edge">
<title>Node1&#45;&gt;Node9</title>
<path fill="none" stroke="midnightblue" d="M771.5,-123.42C730.26,-115.45 668.87,-102.49 616.5,-87 613.86,-86.22 611.15,-85.35 608.44,-84.44"/>
<polygon fill="midnightblue" stroke="midnightblue" points="609.37,-81.06 598.78,-81.01 607.03,-87.65 609.37,-81.06"/>
</g>
<!-- Node10 -->
<g id="node10" class="node">
<title>Node10</title>
<g id="a_node10"><a xlink:title=" ">
<polygon fill="white" stroke="#bfbfbf" points="625.5,-62 625.5,-81 673.5,-81 673.5,-62 625.5,-62"/>
<text text-anchor="middle" x="649.5" y="-69" font-family="Helvetica,sans-Serif" font-size="10.00">mutex</text>
</a>
</g>
</g>
<!-- Node1&#45;&gt;Node10 -->
<g id="edge9" class="edge">
<title>Node1&#45;&gt;Node10</title>
<path fill="none" stroke="midnightblue" d="M790.09,-123.46C762.39,-114.93 719.18,-101.09 682.5,-87 680.89,-86.38 679.25,-85.73 677.6,-85.06"/>
<polygon fill="midnightblue" stroke="midnightblue" points="678.79,-81.76 668.22,-81.09 676.07,-88.21 678.79,-81.76"/>
</g>
<!-- Node11 -->
<g id="node11" class="node">
<title>Node11</title>
<g id="a_node11"><a xlink:title=" ">
<polygon fill="white" stroke="#bfbfbf" points="691.5,-62 691.5,-81 745.5,-81 745.5,-62 691.5,-62"/>
<text text-anchor="middle" x="718.5" y="-69" font-family="Helvetica,sans-Serif" font-size="10.00">random</text>
</a>
</g>
</g>
<!-- Node1&#45;&gt;Node11 -->
<g id="edge10" class="edge">
<title>Node1&#45;&gt;Node11</title>
<path fill="none" stroke="midnightblue" d="M804.17,-123.48C787.84,-113.75 760.9,-97.73 741.59,-86.24"/>
<polygon fill="midnightblue" stroke="midnightblue" points="743.18,-83.11 732.8,-81.01 739.61,-89.13 743.18,-83.11"/>
</g>
<!-- Node12 -->
<g id="node12" class="node">
<title>Node12</title>
<g id="a_node12"><a xlink:title=" ">
<polygon fill="white" stroke="#bfbfbf" points="763.5,-62 763.5,-81 803.5,-81 803.5,-62 763.5,-62"/>
<text text-anchor="middle" x="783.5" y="-69" font-family="Helvetica,sans-Serif" font-size="10.00">span</text>
</a>
</g>
</g>
<!-- Node1&#45;&gt;Node12 -->
<g id="edge11" class="edge">
<title>Node1&#45;&gt;Node12</title>
<path fill="none" stroke="midnightblue" d="M813.49,-123.48C808.34,-114.73 800.19,-100.87 793.68,-89.81"/>
<polygon fill="midnightblue" stroke="midnightblue" points="796.59,-87.85 788.51,-81.01 790.56,-91.4 796.59,-87.85"/>
</g>
<!-- Node13 -->
<g id="node13" class="node">
<title>Node13</title>
<g id="a_node13"><a xlink:title=" ">
<polygon fill="white" stroke="#bfbfbf" points="822,-62 822,-81 887,-81 887,-62 822,-62"/>
<text text-anchor="middle" x="854.5" y="-69" font-family="Helvetica,sans-Serif" font-size="10.00">stdexcept</text>
</a>
</g>
</g>
<!-- Node1&#45;&gt;Node13 -->
<g id="edge12" class="edge">
<title>Node1&#45;&gt;Node13</title>
<path fill="none" stroke="midnightblue" d="M823.66,-123.48C828.95,-114.73 837.34,-100.87 844.03,-89.81"/>
<polygon fill="midnightblue" stroke="midnightblue" points="847.17,-91.38 849.35,-81.01 841.18,-87.75 847.17,-91.38"/>
</g>
<!-- Node14 -->
<g id="node14" class="node">
<title>Node14</title>
<g id="a_node14"><a xlink:title=" ">
<polygon fill="white" stroke="#bfbfbf" points="905.5,-62 905.5,-81 949.5,-81 949.5,-62 905.5,-62"/>
<text text-anchor="middle" x="927.5" y="-69" font-family="Helvetica,sans-Serif" font-size="10.00">string</text>
</a>
</g>
</g>
<!-- Node1&#45;&gt;Node14 -->
<g id="edge13" class="edge">
<title>Node1&#45;&gt;Node14</title>
<path fill="none" stroke="midnightblue" d="M834.12,-123.48C852.09,-113.67 881.82,-97.43 902.91,-85.92"/>
<polygon fill="midnightblue" stroke="midnightblue" points="904.81,-88.87 911.91,-81.01 901.46,-82.73 904.81,-88.87"/>
</g>
<!-- Node15 -->
<g id="node15" class="node">
<title>Node15</title>
<g id="a_node15"><a xlink:title=" ">
<polygon fill="white" stroke="#bfbfbf" points="968,-62 968,-81 1033,-81 1033,-62 968,-62"/>
<text text-anchor="middle" x="1000.5" y="-69" font-family="Helvetica,sans-Serif" font-size="10.00">typeindex</text>
</a>
</g>
</g>
<!-- Node1&#45;&gt;Node15 -->
<g id="edge14" class="edge">
<title>Node1&#45;&gt;Node15</title>
<path fill="none" stroke="midnightblue" d="M845.66,-123.46C873.9,-114.53 919.38,-100.04 958.5,-87 961.09,-86.14 963.76,-85.24 966.45,-84.33"/>
<polygon fill="midnightblue" stroke="midnightblue" points="967.77,-87.57 976.1,-81.02 965.51,-80.95 967.77,-87.57"/>
</g>
<!-- Node16 -->
<g id="node16" class="node">
<title>Node16</title>
<g id="a_node16"><a xlink:title=" ">
<polygon fill="white" stroke="#bfbfbf" points="1051,-62 1051,-81 1110,-81 1110,-62 1051,-62"/>
<text text-anchor="middle" x="1080.5" y="-69" font-family="Helvetica,sans-Serif" font-size="10.00">date/tz.h</text>
</a>
</g>
</g>
<!-- Node1&#45;&gt;Node16 -->
<g id="edge15" class="edge">
<title>Node1&#45;&gt;Node16</title>
<path fill="none" stroke="midnightblue" d="M873.14,-123.44C918.65,-115.72 984.9,-103.12 1041.5,-87 1044.14,-86.25 1046.86,-85.4 1049.58,-84.5"/>
<polygon fill="midnightblue" stroke="midnightblue" points="1050.98,-87.71 1059.24,-81.09 1048.65,-81.11 1050.98,-87.71"/>
</g>
<!-- Node17 -->
<g id="node17" class="node">
<title>Node17</title>
<g id="a_node17"><a xlink:title=" ">
<polygon fill="white" stroke="#bfbfbf" points="1128.5,-62 1128.5,-81 1226.5,-81 1226.5,-62 1128.5,-62"/>
<text text-anchor="middle" x="1177.5" y="-69" font-family="Helvetica,sans-Serif" font-size="10.00">pcg_random.hpp</text>
</a>
</g>
</g>
<!-- Node1&#45;&gt;Node17 -->
<g id="edge16" class="edge">
<title>Node1&#45;&gt;Node17</title>
<path fill="none" stroke="midnightblue" d="M875.72,-125.01C936.29,-117.24 1034.54,-103.58 1118.5,-87 1123.93,-85.93 1129.62,-84.68 1135.23,-83.39"/>
<polygon fill="midnightblue" stroke="midnightblue" points="1136.25,-86.74 1145.16,-81.02 1134.62,-79.93 1136.25,-86.74"/>
</g>
<!-- Node18 -->
<g id="node18" class="node">
<title>Node18</title>
<g id="a_node18"><a xlink:title=" ">
<polygon fill="white" stroke="#bfbfbf" points="1245,-62 1245,-81 1324,-81 1324,-62 1245,-62"/>
<text text-anchor="middle" x="1284.5" y="-69" font-family="Helvetica,sans-Serif" font-size="10.00">fmt/format.h</text>
</a>
</g>
</g>
<!-- Node1&#45;&gt;Node18 -->
<g id="edge17" class="edge">
<title>Node1&#45;&gt;Node18</title>
<path fill="none" stroke="midnightblue" d="M875.65,-129.1C956.45,-124.26 1108.41,-112.45 1235.5,-87 1239.93,-86.11 1244.53,-85.01 1249.06,-83.8"/>
<polygon fill="midnightblue" stroke="midnightblue" points="1250.11,-87.14 1258.78,-81.06 1248.2,-80.41 1250.11,-87.14"/>
</g>
<!-- Node19 -->
<g id="node19" class="node">
<title>Node19</title>
<g id="a_node19"><a xlink:title=" ">
<polygon fill="white" stroke="#bfbfbf" points="1342.5,-62 1342.5,-81 1428.5,-81 1428.5,-62 1342.5,-62"/>
<text text-anchor="middle" x="1385.5" y="-69" font-family="Helvetica,sans-Serif" font-size="10.00">fmt/ostream.h</text>
</a>
</g>
</g>
<!-- Node1&#45;&gt;Node19 -->
<g id="edge18" class="edge">
<title>Node1&#45;&gt;Node19</title>
<path fill="none" stroke="midnightblue" d="M875.6,-130.35C970.94,-126.84 1168.27,-116.41 1332.5,-87 1337.59,-86.09 1342.91,-84.91 1348.12,-83.62"/>
<polygon fill="midnightblue" stroke="midnightblue" points="1349.15,-86.97 1357.93,-81.05 1347.37,-80.2 1349.15,-86.97"/>
</g>
<!-- Node20 -->
<g id="node20" class="node">
<title>Node20</title>
<g id="a_node20"><a xlink:title=" ">
<polygon fill="white" stroke="#bfbfbf" points="1446.5,-56.5 1446.5,-86.5 1552.5,-86.5 1552.5,-56.5 1446.5,-56.5"/>
<text text-anchor="start" x="1454.5" y="-74.5" font-family="Helvetica,sans-Serif" font-size="10.00">spdlog/sinks/basic</text>
<text text-anchor="middle" x="1499.5" y="-63.5" font-family="Helvetica,sans-Serif" font-size="10.00">_file_sink.h</text>
</a>
</g>
</g>
<!-- Node1&#45;&gt;Node20 -->
<g id="edge19" class="edge">
<title>Node1&#45;&gt;Node20</title>
<path fill="none" stroke="midnightblue" d="M875.59,-130.84C983.42,-128.01 1224.5,-118.57 1436.12,-87.05"/>
<polygon fill="midnightblue" stroke="midnightblue" points="1436.8,-90.49 1446.17,-85.53 1435.76,-83.57 1436.8,-90.49"/>
</g>
<!-- Node21 -->
<g id="node21" class="node">
<title>Node21</title>
<g id="a_node21"><a xlink:title=" ">
<polygon fill="white" stroke="#bfbfbf" points="1571,-56.5 1571,-86.5 1682,-86.5 1682,-56.5 1571,-56.5"/>
<text text-anchor="start" x="1579" y="-74.5" font-family="Helvetica,sans-Serif" font-size="10.00">spdlog/sinks/stdout</text>
<text text-anchor="middle" x="1626.5" y="-63.5" font-family="Helvetica,sans-Serif" font-size="10.00">_color_sinks.h</text>
</a>
</g>
</g>
<!-- Node1&#45;&gt;Node21 -->
<g id="edge20" class="edge">
<title>Node1&#45;&gt;Node21</title>
<path fill="none" stroke="midnightblue" d="M875.67,-131.63C999.09,-130.15 1299.73,-122.98 1560.88,-86.91"/>
<polygon fill="midnightblue" stroke="midnightblue" points="1561.52,-90.36 1570.94,-85.5 1560.55,-83.42 1561.52,-90.36"/>
</g>
<!-- Node22 -->
<g id="node22" class="node">
<title>Node22</title>
<g id="a_node22"><a xlink:title=" ">
<polygon fill="white" stroke="#bfbfbf" points="1700,-62 1700,-81 1793,-81 1793,-62 1700,-62"/>
<text text-anchor="middle" x="1746.5" y="-69" font-family="Helvetica,sans-Serif" font-size="10.00">spdlog/spdlog.h</text>
</a>
</g>
</g>
<!-- Node1&#45;&gt;Node22 -->
<g id="edge21" class="edge">
<title>Node1&#45;&gt;Node22</title>
<path fill="none" stroke="midnightblue" d="M875.5,-130.56C1043.13,-126.09 1532.52,-111.27 1690.5,-87 1696.35,-86.1 1702.48,-84.85 1708.44,-83.45"/>
<polygon fill="midnightblue" stroke="midnightblue" points="1709.39,-86.82 1718.24,-81 1707.69,-80.03 1709.39,-86.82"/>
</g>
<!-- Node23 -->
<g id="node23" class="node">
<title>Node23</title>
<g id="a_node23"><a xlink:href="_settings_8hpp.html" target="_top" xlink:title="Global integer and precision settings.">
<polygon fill="white" stroke="black" points="1811,-62 1811,-81 1888,-81 1888,-62 1811,-62"/>
<text text-anchor="middle" x="1849.5" y="-69" font-family="Helvetica,sans-Serif" font-size="10.00">Settings.hpp</text>
</a>
</g>
</g>
<!-- Node1&#45;&gt;Node23 -->
<g id="edge22" class="edge">
<title>Node1&#45;&gt;Node23</title>
<path fill="none" stroke="midnightblue" d="M875.6,-131.24C1057.45,-128.53 1621.64,-117.79 1801.5,-87 1806.06,-86.22 1810.8,-85.14 1815.45,-83.91"/>
<polygon fill="midnightblue" stroke="midnightblue" points="1816.72,-87.19 1825.36,-81.06 1814.78,-80.46 1816.72,-87.19"/>
</g>
<!-- Node24 -->
<g id="node24" class="node">
<title>Node24</title>
<g id="a_node24"><a xlink:title=" ">
<polygon fill="white" stroke="#bfbfbf" points="1763.5,-0.5 1763.5,-19.5 1849.5,-19.5 1849.5,-0.5 1763.5,-0.5"/>
<text text-anchor="middle" x="1806.5" y="-7.5" font-family="Helvetica,sans-Serif" font-size="10.00">CGAL/Gmpzf.h</text>
</a>
</g>
</g>
<!-- Node23&#45;&gt;Node24 -->
<g id="edge23" class="edge">
<title>Node23&#45;&gt;Node24</title>
<path fill="none" stroke="midnightblue" d="M1843.34,-61.98C1836.89,-53.05 1826.6,-38.81 1818.53,-27.64"/>
<polygon fill="midnightblue" stroke="midnightblue" points="1821.34,-25.56 1812.65,-19.51 1815.67,-29.66 1821.34,-25.56"/>
</g>
<!-- Node25 -->
<g id="node25" class="node">
<title>Node25</title>
<g id="a_node25"><a xlink:title=" ">
<polygon fill="white" stroke="#bfbfbf" points="1867.5,-0.5 1867.5,-19.5 1917.5,-19.5 1917.5,-0.5 1867.5,-0.5"/>
<text text-anchor="middle" x="1892.5" y="-7.5" font-family="Helvetica,sans-Serif" font-size="10.00">cstdint</text>
</a>
</g>
</g>
<!-- Node23&#45;&gt;Node25 -->
<g id="edge24" class="edge">
<title>Node23&#45;&gt;Node25</title>
<path fill="none" stroke="midnightblue" d="M1855.66,-61.98C1862.11,-53.05 1872.4,-38.81 1880.47,-27.64"/>
<polygon fill="midnightblue" stroke="midnightblue" points="1883.33,-29.66 1886.35,-19.51 1877.66,-25.56 1883.33,-29.66"/>
</g>
</g>
</svg>
