<?xml version="1.0" encoding="UTF-8" standalone="no"?>
<!DOCTYPE svg PUBLIC "-//W3C//DTD SVG 1.1//EN"
 "http://www.w3.org/Graphics/SVG/1.1/DTD/svg11.dtd">
<!-- Generated by graphviz version 2.43.0 (0)
 -->
<!-- Title: include/Utilities.hpp Pages: 1 -->
<svg width="974pt" height="542pt"
 viewBox="0.00 0.00 973.50 542.00" xmlns="http://www.w3.org/2000/svg" xmlns:xlink="http://www.w3.org/1999/xlink">
<g id="graph0" class="graph" transform="scale(1 1) rotate(0) translate(4 538)">
<title>include/Utilities.hpp</title>
<polygon fill="white" stroke="transparent" points="-4,4 -4,-538 969.5,-538 969.5,4 -4,4"/>
<!-- Node1 -->
<g id="node1" class="node">
<title>Node1</title>
<g id="a_node1"><a xlink:title="Utility functions.">
<polygon fill="#bfbfbf" stroke="black" points="181,-514.5 181,-533.5 295,-533.5 295,-514.5 181,-514.5"/>
<text text-anchor="middle" x="238" y="-521.5" font-family="Helvetica,sans-Serif" font-size="10.00">include/Utilities.hpp</text>
</a>
</g>
</g>
<!-- Node2 -->
<g id="node2" class="node">
<title>Node2</title>
<g id="a_node2"><a xlink:href="_foliated__triangulation_8hpp.html" target="_top" xlink:title="Create foliated spherical triangulations.">
<polygon fill="white" stroke="black" points="257,-458.5 257,-477.5 439,-477.5 439,-458.5 257,-458.5"/>
<text text-anchor="middle" x="348" y="-465.5" font-family="Helvetica,sans-Serif" font-size="10.00">include/Foliated_triangulation.hpp</text>
</a>
</g>
</g>
<!-- Node1&#45;&gt;Node2 -->
<g id="edge1" class="edge">
<title>Node1&#45;&gt;Node2</title>
<path fill="none" stroke="midnightblue" d="M264.76,-509.86C285.16,-499.85 312.67,-486.35 330.37,-477.65"/>
<polygon fill="midnightblue" stroke="midnightblue" points="263.11,-506.78 255.67,-514.32 266.19,-513.06 263.11,-506.78"/>
</g>
<!-- Node26 -->
<g id="node26" class="node">
<title>Node26</title>
<g id="a_node26"><a xlink:href="_s3_triangulation_8hpp.html" target="_top" xlink:title="Functions on 3D Spherical Delaunay Triangulations.">
<polygon fill="white" stroke="black" points="70.5,-458.5 70.5,-477.5 221.5,-477.5 221.5,-458.5 70.5,-458.5"/>
<text text-anchor="middle" x="146" y="-465.5" font-family="Helvetica,sans-Serif" font-size="10.00">include/S3Triangulation.hpp</text>
</a>
</g>
</g>
<!-- Node1&#45;&gt;Node26 -->
<g id="edge26" class="edge">
<title>Node1&#45;&gt;Node26</title>
<path fill="none" stroke="midnightblue" d="M214.45,-509.18C197.52,-499.24 175.22,-486.15 160.74,-477.65"/>
<polygon fill="midnightblue" stroke="midnightblue" points="212.82,-512.28 223.22,-514.32 216.37,-506.24 212.82,-512.28"/>
</g>
<!-- Node3 -->
<g id="node3" class="node">
<title>Node3</title>
<g id="a_node3"><a xlink:href="_geometry_8hpp.html" target="_top" xlink:title="Geometric quantities of Manifold used by MoveAlgorithm.">
<polygon fill="white" stroke="black" points="217.5,-397 217.5,-416 340.5,-416 340.5,-397 217.5,-397"/>
<text text-anchor="middle" x="279" y="-404" font-family="Helvetica,sans-Serif" font-size="10.00">include/Geometry.hpp</text>
</a>
</g>
</g>
<!-- Node2&#45;&gt;Node3 -->
<g id="edge2" class="edge">
<title>Node2&#45;&gt;Node3</title>
<path fill="none" stroke="midnightblue" d="M330.2,-451.65C317.04,-440.31 299.62,-425.28 288.87,-416.01"/>
<polygon fill="midnightblue" stroke="midnightblue" points="328.26,-454.6 338.11,-458.48 332.83,-449.29 328.26,-454.6"/>
</g>
<!-- Node24 -->
<g id="node24" class="node">
<title>Node24</title>
<g id="a_node24"><a xlink:href="_foliated__triangulation__test_8cpp.html" target="_top" xlink:title="Tests for foliated triangulations.">
<polygon fill="white" stroke="black" points="359,-391.5 359,-421.5 509,-421.5 509,-391.5 359,-391.5"/>
<text text-anchor="start" x="367" y="-409.5" font-family="Helvetica,sans-Serif" font-size="10.00">tests/Foliated_triangulation</text>
<text text-anchor="middle" x="434" y="-398.5" font-family="Helvetica,sans-Serif" font-size="10.00">_test.cpp</text>
</a>
</g>
</g>
<!-- Node2&#45;&gt;Node24 -->
<g id="edge24" class="edge">
<title>Node2&#45;&gt;Node24</title>
<path fill="none" stroke="midnightblue" d="M368.61,-452.74C382.28,-443.28 400.13,-430.93 413.73,-421.52"/>
<polygon fill="midnightblue" stroke="midnightblue" points="366.55,-449.91 360.32,-458.48 370.54,-455.66 366.55,-449.91"/>
</g>
<!-- Node25 -->
<g id="node25" class="node">
<title>Node25</title>
<g id="a_node25"><a xlink:href="_tetrahedron__test_8cpp.html" target="_top" xlink:title="Tests for 3D triangulated and foliated tetrahedrons.">
<polygon fill="white" stroke="black" points="527,-397 527,-416 673,-416 673,-397 527,-397"/>
<text text-anchor="middle" x="600" y="-404" font-family="Helvetica,sans-Serif" font-size="10.00">tests/Tetrahedron_test.cpp</text>
</a>
</g>
</g>
<!-- Node2&#45;&gt;Node25 -->
<g id="edge25" class="edge">
<title>Node2&#45;&gt;Node25</title>
<path fill="none" stroke="midnightblue" d="M394.11,-456.11C443.02,-444.57 519.27,-426.56 563.96,-416.01"/>
<polygon fill="midnightblue" stroke="midnightblue" points="393.03,-452.77 384.11,-458.48 394.64,-459.58 393.03,-452.77"/>
</g>
<!-- Node4 -->
<g id="node4" class="node">
<title>Node4</title>
<g id="a_node4"><a xlink:href="_manifold_8hpp.html" target="_top" xlink:title="Data structures for manifolds.">
<polygon fill="white" stroke="black" points="435.5,-335.5 435.5,-354.5 554.5,-354.5 554.5,-335.5 435.5,-335.5"/>
<text text-anchor="middle" x="495" y="-342.5" font-family="Helvetica,sans-Serif" font-size="10.00">include/Manifold.hpp</text>
</a>
</g>
</g>
<!-- Node3&#45;&gt;Node4 -->
<g id="edge3" class="edge">
<title>Node3&#45;&gt;Node4</title>
<path fill="none" stroke="midnightblue" d="M319.84,-394.25C361.81,-382.69 426.2,-364.95 464.11,-354.51"/>
<polygon fill="midnightblue" stroke="midnightblue" points="318.66,-390.94 309.95,-396.98 320.52,-397.69 318.66,-390.94"/>
</g>
<!-- Node23 -->
<g id="node23" class="node">
<title>Node23</title>
<g id="a_node23"><a xlink:href="_geometry__test_8cpp.html" target="_top" xlink:title="Tests of new geometry data structure.">
<polygon fill="white" stroke="black" points="210.5,-335.5 210.5,-354.5 347.5,-354.5 347.5,-335.5 210.5,-335.5"/>
<text text-anchor="middle" x="279" y="-342.5" font-family="Helvetica,sans-Serif" font-size="10.00">tests/Geometry_test.cpp</text>
</a>
</g>
</g>
<!-- Node3&#45;&gt;Node23 -->
<g id="edge23" class="edge">
<title>Node3&#45;&gt;Node23</title>
<path fill="none" stroke="midnightblue" d="M279,-386.82C279,-376 279,-362.9 279,-354.51"/>
<polygon fill="midnightblue" stroke="midnightblue" points="275.5,-386.98 279,-396.98 282.5,-386.98 275.5,-386.98"/>
</g>
<!-- Node5 -->
<g id="node5" class="node">
<title>Node5</title>
<g id="a_node5"><a xlink:href="_ergodic__moves__3_8hpp.html" target="_top" xlink:title="Pachner moves on 2+1 dimensional foliated Delaunay triangulations.">
<polygon fill="white" stroke="black" points="572.5,-268.5 572.5,-298.5 701.5,-298.5 701.5,-268.5 572.5,-268.5"/>
<text text-anchor="start" x="580.5" y="-286.5" font-family="Helvetica,sans-Serif" font-size="10.00">include/Ergodic_moves</text>
<text text-anchor="middle" x="637" y="-275.5" font-family="Helvetica,sans-Serif" font-size="10.00">_3.hpp</text>
</a>
</g>
</g>
<!-- Node4&#45;&gt;Node5 -->
<g id="edge4" class="edge">
<title>Node4&#45;&gt;Node5</title>
<path fill="none" stroke="midnightblue" d="M524.62,-331.59C547.64,-321.94 579.59,-308.56 603.53,-298.52"/>
<polygon fill="midnightblue" stroke="midnightblue" points="523.22,-328.38 515.35,-335.48 525.92,-334.84 523.22,-328.38"/>
</g>
<!-- Node18 -->
<g id="node18" class="node">
<title>Node18</title>
<g id="a_node18"><a xlink:href="initialize_8cpp.html" target="_top" xlink:title="Generates initial spacetimes.">
<polygon fill="white" stroke="black" points="720,-274 720,-293 816,-293 816,-274 720,-274"/>
<text text-anchor="middle" x="768" y="-281" font-family="Helvetica,sans-Serif" font-size="10.00">src/initialize.cpp</text>
</a>
</g>
</g>
<!-- Node4&#45;&gt;Node18 -->
<g id="edge18" class="edge">
<title>Node4&#45;&gt;Node18</title>
<path fill="none" stroke="midnightblue" d="M548.84,-333.46C592.62,-324.73 655.95,-311.73 711,-299 718.96,-297.16 727.51,-295.05 735.51,-293.03"/>
<polygon fill="midnightblue" stroke="midnightblue" points="548.1,-330.04 538.97,-335.42 549.47,-336.91 548.1,-330.04"/>
</g>
<!-- Node19 -->
<g id="node19" class="node">
<title>Node19</title>
<g id="a_node19"><a xlink:href="_manifold__test_8cpp.html" target="_top" xlink:title="Tests of new manifold data structure.">
<polygon fill="white" stroke="black" points="834.5,-274 834.5,-293 965.5,-293 965.5,-274 834.5,-274"/>
<text text-anchor="middle" x="900" y="-281" font-family="Helvetica,sans-Serif" font-size="10.00">tests/Manifold_test.cpp</text>
</a>
</g>
</g>
<!-- Node4&#45;&gt;Node19 -->
<g id="edge19" class="edge">
<title>Node4&#45;&gt;Node19</title>
<path fill="none" stroke="midnightblue" d="M564.77,-335.63C631.68,-327.33 735.46,-313.75 825,-299 835.73,-297.23 847.28,-295.11 858.03,-293.04"/>
<polygon fill="midnightblue" stroke="midnightblue" points="564.26,-332.16 554.76,-336.86 565.12,-339.11 564.26,-332.16"/>
</g>
<!-- Node20 -->
<g id="node20" class="node">
<title>Node20</title>
<g id="a_node20"><a xlink:href="_s3_action__test_8cpp.html" target="_top" xlink:title="Tests for the S3 action functions.">
<polygon fill="white" stroke="black" points="141.5,-274 141.5,-293 272.5,-293 272.5,-274 141.5,-274"/>
<text text-anchor="middle" x="207" y="-281" font-family="Helvetica,sans-Serif" font-size="10.00">tests/S3Action_test.cpp</text>
</a>
</g>
</g>
<!-- Node4&#45;&gt;Node20 -->
<g id="edge20" class="edge">
<title>Node4&#45;&gt;Node20</title>
<path fill="none" stroke="midnightblue" d="M443.7,-333.4C387.87,-321.87 299.69,-303.65 248.19,-293.01"/>
<polygon fill="midnightblue" stroke="midnightblue" points="443.24,-336.88 453.74,-335.48 444.65,-330.02 443.24,-336.88"/>
</g>
<!-- Node21 -->
<g id="node21" class="node">
<title>Node21</title>
<g id="a_node21"><a xlink:href="_utilities__test_8cpp.html" target="_top" xlink:title="Tests on utility functions.">
<polygon fill="white" stroke="black" points="291,-274 291,-293 417,-293 417,-274 291,-274"/>
<text text-anchor="middle" x="354" y="-281" font-family="Helvetica,sans-Serif" font-size="10.00">tests/Utilities_test.cpp</text>
</a>
</g>
</g>
<!-- Node4&#45;&gt;Node21 -->
<g id="edge21" class="edge">
<title>Node4&#45;&gt;Node21</title>
<path fill="none" stroke="midnightblue" d="M465.33,-331.48C437.95,-319.92 398.02,-303.08 374.16,-293.01"/>
<polygon fill="midnightblue" stroke="midnightblue" points="464.22,-334.81 474.8,-335.48 466.95,-328.36 464.22,-334.81"/>
</g>
<!-- Node22 -->
<g id="node22" class="node">
<title>Node22</title>
<g id="a_node22"><a xlink:href="_vertex__test_8cpp.html" target="_top" xlink:title="Tests on vertices in Delaunay triangulations.">
<polygon fill="white" stroke="black" points="435.5,-274 435.5,-293 554.5,-293 554.5,-274 435.5,-274"/>
<text text-anchor="middle" x="495" y="-281" font-family="Helvetica,sans-Serif" font-size="10.00">tests/Vertex_test.cpp</text>
</a>
</g>
</g>
<!-- Node4&#45;&gt;Node22 -->
<g id="edge22" class="edge">
<title>Node4&#45;&gt;Node22</title>
<path fill="none" stroke="midnightblue" d="M495,-325.32C495,-314.5 495,-301.4 495,-293.01"/>
<polygon fill="midnightblue" stroke="midnightblue" points="491.5,-325.48 495,-335.48 498.5,-325.48 491.5,-325.48"/>
</g>
<!-- Node6 -->
<g id="node6" class="node">
<title>Node6</title>
<g id="a_node6"><a xlink:href="_move__command_8hpp.html" target="_top" xlink:title="Do ergodic moves using the Command pattern.">
<polygon fill="white" stroke="black" points="399.5,-207 399.5,-226 556.5,-226 556.5,-207 399.5,-207"/>
<text text-anchor="middle" x="478" y="-214" font-family="Helvetica,sans-Serif" font-size="10.00">include/Move_command.hpp</text>
</a>
</g>
</g>
<!-- Node5&#45;&gt;Node6 -->
<g id="edge5" class="edge">
<title>Node5&#45;&gt;Node6</title>
<path fill="none" stroke="midnightblue" d="M592.87,-264.46C562.15,-251.9 522.58,-235.72 498.81,-226.01"/>
<polygon fill="midnightblue" stroke="midnightblue" points="591.92,-267.85 602.5,-268.4 594.57,-261.37 591.92,-267.85"/>
</g>
<!-- Node15 -->
<g id="node15" class="node">
<title>Node15</title>
<g id="a_node15"><a xlink:href="_apply__move__test_8cpp.html" target="_top" xlink:title="Applying ergodic moves to manifolds.">
<polygon fill="white" stroke="black" points="574.5,-207 574.5,-226 723.5,-226 723.5,-207 574.5,-207"/>
<text text-anchor="middle" x="649" y="-214" font-family="Helvetica,sans-Serif" font-size="10.00">tests/Apply_move_test.cpp</text>
</a>
</g>
</g>
<!-- Node5&#45;&gt;Node15 -->
<g id="edge15" class="edge">
<title>Node5&#45;&gt;Node15</title>
<path fill="none" stroke="midnightblue" d="M641.48,-258.25C643.55,-247.02 645.88,-234.38 647.39,-226.19"/>
<polygon fill="midnightblue" stroke="midnightblue" points="637.98,-257.93 639.6,-268.4 644.86,-259.2 637.98,-257.93"/>
</g>
<!-- Node16 -->
<g id="node16" class="node">
<title>Node16</title>
<g id="a_node16"><a xlink:href="_ergodic__moves__3__test_8cpp.html" target="_top" xlink:title="Tests for ergodic moves on foliated triangulations.">
<polygon fill="white" stroke="black" points="742,-201.5 742,-231.5 860,-231.5 860,-201.5 742,-201.5"/>
<text text-anchor="start" x="750" y="-219.5" font-family="Helvetica,sans-Serif" font-size="10.00">tests/Ergodic_moves</text>
<text text-anchor="middle" x="801" y="-208.5" font-family="Helvetica,sans-Serif" font-size="10.00">_3_test.cpp</text>
</a>
</g>
</g>
<!-- Node5&#45;&gt;Node16 -->
<g id="edge16" class="edge">
<title>Node5&#45;&gt;Node16</title>
<path fill="none" stroke="midnightblue" d="M681.96,-264.68C708.26,-254.26 741,-241.28 765.48,-231.58"/>
<polygon fill="midnightblue" stroke="midnightblue" points="680.59,-261.46 672.59,-268.4 683.17,-267.97 680.59,-261.46"/>
</g>
<!-- Node17 -->
<g id="node17" class="node">
<title>Node17</title>
<g id="a_node17"><a xlink:href="_function__ref__test_8cpp_source.html" target="_top" xlink:title=" ">
<polygon fill="white" stroke="black" points="277,-201.5 277,-231.5 381,-231.5 381,-201.5 277,-201.5"/>
<text text-anchor="start" x="285" y="-219.5" font-family="Helvetica,sans-Serif" font-size="10.00">tests/Function_ref</text>
<text text-anchor="middle" x="329" y="-208.5" font-family="Helvetica,sans-Serif" font-size="10.00">_test.cpp</text>
</a>
</g>
</g>
<!-- Node5&#45;&gt;Node17 -->
<g id="edge17" class="edge">
<title>Node5&#45;&gt;Node17</title>
<path fill="none" stroke="midnightblue" d="M562.56,-267.45C502.56,-255.28 423.07,-239.04 391,-232 387.76,-231.29 384.43,-230.55 381.07,-229.79"/>
<polygon fill="midnightblue" stroke="midnightblue" points="561.9,-270.89 572.39,-269.44 563.29,-264.03 561.9,-270.89"/>
</g>
<!-- Node7 -->
<g id="node7" class="node">
<title>Node7</title>
<g id="a_node7"><a xlink:href="_move__strategy_8hpp.html" target="_top" xlink:title="Template class for move algorithms (strategies) on manifolds.">
<polygon fill="white" stroke="black" points="429.5,-140 429.5,-159 576.5,-159 576.5,-140 429.5,-140"/>
<text text-anchor="middle" x="503" y="-147" font-family="Helvetica,sans-Serif" font-size="10.00">include/Move_strategy.hpp</text>
</a>
</g>
</g>
<!-- Node6&#45;&gt;Node7 -->
<g id="edge6" class="edge">
<title>Node6&#45;&gt;Node7</title>
<path fill="none" stroke="midnightblue" d="M485,-197.29C489.8,-184.81 495.96,-168.81 499.68,-159.13"/>
<polygon fill="midnightblue" stroke="midnightblue" points="481.69,-196.14 481.37,-206.73 488.23,-198.66 481.69,-196.14"/>
</g>
<!-- Node14 -->
<g id="node14" class="node">
<title>Node14</title>
<g id="a_node14"><a xlink:href="_move__command__test_8cpp.html" target="_top" xlink:title="Tests of MoveCommand, that is, that moves are handled properly.">
<polygon fill="white" stroke="black" points="286.5,-134.5 286.5,-164.5 411.5,-164.5 411.5,-134.5 286.5,-134.5"/>
<text text-anchor="start" x="294.5" y="-152.5" font-family="Helvetica,sans-Serif" font-size="10.00">tests/Move_command</text>
<text text-anchor="middle" x="349" y="-141.5" font-family="Helvetica,sans-Serif" font-size="10.00">_test.cpp</text>
</a>
</g>
</g>
<!-- Node6&#45;&gt;Node14 -->
<g id="edge14" class="edge">
<title>Node6&#45;&gt;Node14</title>
<path fill="none" stroke="midnightblue" d="M451.89,-202.34C430.17,-191.4 399.33,-175.86 377.09,-164.65"/>
<polygon fill="midnightblue" stroke="midnightblue" points="450.36,-205.49 460.87,-206.87 453.51,-199.24 450.36,-205.49"/>
</g>
<!-- Node8 -->
<g id="node8" class="node">
<title>Node8</title>
<g id="a_node8"><a xlink:href="_metropolis_8hpp.html" target="_top" xlink:title="Perform Metropolis&#45;Hastings algorithm on Delaunay Triangulations.">
<polygon fill="white" stroke="black" points="298,-73 298,-92 426,-92 426,-73 298,-73"/>
<text text-anchor="middle" x="362" y="-80" font-family="Helvetica,sans-Serif" font-size="10.00">include/Metropolis.hpp</text>
</a>
</g>
</g>
<!-- Node7&#45;&gt;Node8 -->
<g id="edge7" class="edge">
<title>Node7&#45;&gt;Node8</title>
<path fill="none" stroke="midnightblue" d="M475.04,-135.61C447.12,-122.74 404.96,-103.31 380.8,-92.17"/>
<polygon fill="midnightblue" stroke="midnightblue" points="473.73,-138.86 484.28,-139.87 476.66,-132.5 473.73,-138.86"/>
</g>
<!-- Node11 -->
<g id="node11" class="node">
<title>Node11</title>
<g id="a_node11"><a xlink:href="_move__always_8hpp.html" target="_top" xlink:title="Randomly selects moves to always perform on triangulations.">
<polygon fill="white" stroke="black" points="444.5,-73 444.5,-92 587.5,-92 587.5,-73 444.5,-73"/>
<text text-anchor="middle" x="516" y="-80" font-family="Helvetica,sans-Serif" font-size="10.00">include/Move_always.hpp</text>
</a>
</g>
</g>
<!-- Node7&#45;&gt;Node11 -->
<g id="edge10" class="edge">
<title>Node7&#45;&gt;Node11</title>
<path fill="none" stroke="midnightblue" d="M506.72,-129.91C509.2,-117.49 512.36,-101.72 514.27,-92.13"/>
<polygon fill="midnightblue" stroke="midnightblue" points="503.28,-129.24 504.75,-139.73 510.15,-130.61 503.28,-129.24"/>
</g>
<!-- Node9 -->
<g id="node9" class="node">
<title>Node9</title>
<g id="a_node9"><a xlink:href="cdt_8cpp.html" target="_top" xlink:title="The main executable.">
<polygon fill="white" stroke="black" points="50.5,-6 50.5,-25 119.5,-25 119.5,-6 50.5,-6"/>
<text text-anchor="middle" x="85" y="-13" font-family="Helvetica,sans-Serif" font-size="10.00">src/cdt.cpp</text>
</a>
</g>
</g>
<!-- Node8&#45;&gt;Node9 -->
<g id="edge8" class="edge">
<title>Node8&#45;&gt;Node9</title>
<path fill="none" stroke="midnightblue" d="M314.03,-70.71C269.62,-60.65 201.78,-45.12 143,-31 135.13,-29.11 126.67,-27.02 118.71,-25.04"/>
<polygon fill="midnightblue" stroke="midnightblue" points="313.44,-74.16 323.97,-72.95 314.99,-67.33 313.44,-74.16"/>
</g>
<!-- Node10 -->
<g id="node10" class="node">
<title>Node10</title>
<g id="a_node10"><a xlink:href="_move__strategies__test_8cpp.html" target="_top" xlink:title="Tests for the Metropolis&#45;Hastings algorithm.">
<polygon fill="white" stroke="black" points="313.5,-0.5 313.5,-30.5 438.5,-30.5 438.5,-0.5 313.5,-0.5"/>
<text text-anchor="start" x="321.5" y="-18.5" font-family="Helvetica,sans-Serif" font-size="10.00">tests/Move_strategies</text>
<text text-anchor="middle" x="376" y="-7.5" font-family="Helvetica,sans-Serif" font-size="10.00">_test.cpp</text>
</a>
</g>
</g>
<!-- Node8&#45;&gt;Node10 -->
<g id="edge9" class="edge">
<title>Node8&#45;&gt;Node10</title>
<path fill="none" stroke="midnightblue" d="M366.04,-62.74C368.25,-52.49 370.94,-40 372.97,-30.59"/>
<polygon fill="midnightblue" stroke="midnightblue" points="362.57,-62.22 363.89,-72.73 369.42,-63.69 362.57,-62.22"/>
</g>
<!-- Node11&#45;&gt;Node10 -->
<g id="edge12" class="edge">
<title>Node11&#45;&gt;Node10</title>
<path fill="none" stroke="midnightblue" d="M488.26,-68.62C464.58,-57.63 430.58,-41.84 406.21,-30.53"/>
<polygon fill="midnightblue" stroke="midnightblue" points="486.87,-71.83 497.41,-72.87 489.81,-65.48 486.87,-71.83"/>
</g>
<!-- Node12 -->
<g id="node12" class="node">
<title>Node12</title>
<g id="a_node12"><a xlink:href="cdt-opt_8cpp.html" target="_top" xlink:title="Outputs values to determine optimizations.">
<polygon fill="white" stroke="black" points="471.5,-6 471.5,-25 560.5,-25 560.5,-6 471.5,-6"/>
<text text-anchor="middle" x="516" y="-13" font-family="Helvetica,sans-Serif" font-size="10.00">src/cdt&#45;opt.cpp</text>
</a>
</g>
</g>
<!-- Node11&#45;&gt;Node12 -->
<g id="edge11" class="edge">
<title>Node11&#45;&gt;Node12</title>
<path fill="none" stroke="midnightblue" d="M516,-62.54C516,-50.17 516,-34.62 516,-25.13"/>
<polygon fill="midnightblue" stroke="midnightblue" points="512.5,-62.73 516,-72.73 519.5,-62.73 512.5,-62.73"/>
</g>
<!-- Node13 -->
<g id="node13" class="node">
<title>Node13</title>
<g id="a_node13"><a xlink:href="_simulation_test_8cpp_source.html" target="_top" xlink:title=" ">
<polygon fill="white" stroke="black" points="152,-6 152,-25 288,-25 288,-6 152,-6"/>
<text text-anchor="middle" x="220" y="-13" font-family="Helvetica,sans-Serif" font-size="10.00">tests/SimulationTest.cpp</text>
</a>
</g>
</g>
<!-- Node11&#45;&gt;Node13 -->
<g id="edge13" class="edge">
<title>Node11&#45;&gt;Node13</title>
<path fill="none" stroke="midnightblue" d="M466.93,-70.72C408.64,-57.92 312.6,-36.83 259.09,-25.08"/>
<polygon fill="midnightblue" stroke="midnightblue" points="466.48,-74.21 477,-72.94 467.98,-67.37 466.48,-74.21"/>
</g>
<!-- Node27 -->
<g id="node27" class="node">
<title>Node27</title>
<g id="a_node27"><a xlink:href="_simplicial_manifold_8hpp.html" target="_top" xlink:title="Data structures for simplicial manifolds.">
<polygon fill="white" stroke="black" points="29.5,-140 29.5,-159 196.5,-159 196.5,-140 29.5,-140"/>
<text text-anchor="middle" x="113" y="-147" font-family="Helvetica,sans-Serif" font-size="10.00">include/SimplicialManifold.hpp</text>
</a>
</g>
</g>
<!-- Node26&#45;&gt;Node27 -->
<g id="edge27" class="edge">
<title>Node26&#45;&gt;Node27</title>
<path fill="none" stroke="midnightblue" d="M137.92,-449.15C128.15,-425.9 113,-383.76 113,-346 113,-346 113,-346 113,-282.5 113,-235.98 113,-180.24 113,-159.15"/>
<polygon fill="midnightblue" stroke="midnightblue" points="134.75,-450.64 141.95,-458.41 141.17,-447.85 134.75,-450.64"/>
</g>
<!-- Node28 -->
<g id="node28" class="node">
<title>Node28</title>
<g id="a_node28"><a xlink:href="_simulation_8hpp.html" target="_top" xlink:title="Simulation class.">
<polygon fill="white" stroke="black" points="0,-73 0,-92 128,-92 128,-73 0,-73"/>
<text text-anchor="middle" x="64" y="-80" font-family="Helvetica,sans-Serif" font-size="10.00">include/Simulation.hpp</text>
</a>
</g>
</g>
<!-- Node27&#45;&gt;Node28 -->
<g id="edge28" class="edge">
<title>Node27&#45;&gt;Node28</title>
<path fill="none" stroke="midnightblue" d="M100.11,-131.4C90.59,-118.77 78.02,-102.1 70.5,-92.13"/>
<polygon fill="midnightblue" stroke="midnightblue" points="97.58,-133.86 106.39,-139.73 103.17,-129.64 97.58,-133.86"/>
</g>
<!-- Node29 -->
<g id="node29" class="node">
<title>Node29</title>
<g id="a_node29"><a xlink:href="_simplicial_manifold_test_8cpp_source.html" target="_top" xlink:title=" ">
<polygon fill="white" stroke="black" points="146,-67.5 146,-97.5 280,-97.5 280,-67.5 146,-67.5"/>
<text text-anchor="start" x="154" y="-85.5" font-family="Helvetica,sans-Serif" font-size="10.00">tests/SimplicialManifold</text>
<text text-anchor="middle" x="213" y="-74.5" font-family="Helvetica,sans-Serif" font-size="10.00">Test.cpp</text>
</a>
</g>
</g>
<!-- Node27&#45;&gt;Node29 -->
<g id="edge31" class="edge">
<title>Node27&#45;&gt;Node29</title>
<path fill="none" stroke="midnightblue" d="M135.07,-134.15C151.81,-123.27 174.69,-108.4 191.32,-97.59"/>
<polygon fill="midnightblue" stroke="midnightblue" points="132.96,-131.35 126.49,-139.73 136.78,-137.22 132.96,-131.35"/>
</g>
<!-- Node28&#45;&gt;Node9 -->
<g id="edge29" class="edge">
<title>Node28&#45;&gt;Node9</title>
<path fill="none" stroke="midnightblue" d="M70,-62.91C74.02,-50.49 79.11,-34.72 82.21,-25.13"/>
<polygon fill="midnightblue" stroke="midnightblue" points="66.58,-62.14 66.83,-72.73 73.24,-64.29 66.58,-62.14"/>
</g>
<!-- Node28&#45;&gt;Node13 -->
<g id="edge30" class="edge">
<title>Node28&#45;&gt;Node13</title>
<path fill="none" stroke="midnightblue" d="M94.12,-68.95C125.01,-56.08 172.23,-36.4 199.2,-25.17"/>
<polygon fill="midnightblue" stroke="midnightblue" points="92.6,-65.79 84.72,-72.87 95.29,-72.25 92.6,-65.79"/>
</g>
</g>
</svg>
