<?xml version="1.0" encoding="UTF-8" standalone="no"?>
<!DOCTYPE svg PUBLIC "-//W3C//DTD SVG 1.1//EN"
 "http://www.w3.org/Graphics/SVG/1.1/DTD/svg11.dtd">
<!-- Generated by graphviz version 2.43.0 (0)
 -->
<!-- Title: tests/Utilities_test.cpp Pages: 1 -->
<!--zoomable 379 -->
<svg id="main" version="1.1" xmlns="http://www.w3.org/2000/svg" xmlns:xlink="http://www.w3.org/1999/xlink" xml:space="preserve" onload="init(evt)">
<style type="text/css"><![CDATA[
.edge:hover path { stroke: red; }
.edge:hover polygon { stroke: red; fill: red; }
]]></style>
<script type="text/javascript"><![CDATA[
var edges = document.getElementsByTagName('g');
if (edges && edges.length) {
  for (var i=0;i<edges.length;i++) {
    if (edges[i].id.substr(0,4)=='edge') {
      edges[i].setAttribute('class','edge');
    }
  }
}
]]></script>
        <defs>
                <circle id="rim" cx="0" cy="0" r="7"/>
                <circle id="rim2" cx="0" cy="0" r="3.5"/>
                <g id="zoomPlus">
                        <use xlink:href="#rim" fill="#404040">
                                <set attributeName="fill" to="#808080" begin="zoomplus.mouseover" end="zoomplus.mouseout"/>
                        </use>
                        <path d="M-4,0h8M0,-4v8" fill="none" stroke="white" stroke-width="1.5" pointer-events="none"/>
                </g>
                <g id="zoomMin">
                        <use xlink:href="#rim" fill="#404040">
                                <set attributeName="fill" to="#808080" begin="zoomminus.mouseover" end="zoomminus.mouseout"/>
                        </use>
                        <path d="M-4,0h8" fill="none" stroke="white" stroke-width="1.5" pointer-events="none"/>
                </g>
                <g id="dirArrow">
                        <path fill="none" stroke="white" stroke-width="1.5" d="M0,-3.0v7 M-2.5,-0.5L0,-3.0L2.5,-0.5"/>
                </g>
               <g id="resetDef">
                       <use xlink:href="#rim2" fill="#404040">
                               <set attributeName="fill" to="#808080" begin="reset.mouseover" end="reset.mouseout"/>
                       </use>
               </g>
        </defs>

<script type="text/javascript">
var viewWidth = 2342;
var viewHeight = 379;
var sectionId = 'dynsection-0';
</script>
<script xlink:href="svgpan.js"/>
<svg id="graph" class="graph">
<g id="viewport">
<title>tests/Utilities_test.cpp</title>
<!-- Node1 -->
<g id="node1" class="node">
<title>Node1</title>
<g id="a_node1"><a xlink:title="Tests on utility functions.">
<polygon fill="#999999" stroke="#666666" points="308.5,-371 182.5,-371 182.5,-352 308.5,-352 308.5,-371"/>
<text text-anchor="middle" x="245.5" y="-359" font-family="Helvetica,sans-Serif" font-size="10.00">tests/Utilities_test.cpp</text>
</a>
</g>
</g>
<!-- Node2 -->
<g id="node2" class="node">
<title>Node2</title>
<g id="a_node2"><a xlink:title=" ">
<polygon fill="#e0e0e0" stroke="#999999" points="101,-316 0,-316 0,-297 101,-297 101,-316"/>
<text text-anchor="middle" x="50.5" y="-304" font-family="Helvetica,sans-Serif" font-size="10.00">doctest/doctest.h</text>
</a>
</g>
</g>
<!-- Node1&#45;&gt;Node2 -->
<g id="edge1" class="edge">
<title>Node1&#45;&gt;Node2</title>
<path fill="none" stroke="#63b8ff" d="M214.17,-351.98C181.01,-342.97 128.5,-328.7 91.94,-318.76"/>
<polygon fill="#63b8ff" stroke="#63b8ff" points="92.64,-315.33 82.08,-316.08 90.81,-322.08 92.64,-315.33"/>
</g>
<!-- Node3 -->
<g id="node3" class="node">
<title>Node3</title>
<g id="a_node3"><a xlink:title=" ">
<polygon fill="#e0e0e0" stroke="#999999" points="198,-316 119,-316 119,-297 198,-297 198,-316"/>
<text text-anchor="middle" x="158.5" y="-304" font-family="Helvetica,sans-Serif" font-size="10.00">fmt/ranges.h</text>
</a>
</g>
</g>
<!-- Node1&#45;&gt;Node3 -->
<g id="edge2" class="edge">
<title>Node1&#45;&gt;Node3</title>
<path fill="none" stroke="#63b8ff" d="M231.52,-351.98C218.03,-343.77 197.37,-331.18 181.46,-321.49"/>
<polygon fill="#63b8ff" stroke="#63b8ff" points="183.09,-318.38 172.73,-316.17 179.45,-324.36 183.09,-318.38"/>
</g>
<!-- Node4 -->
<g id="node4" class="node">
<title>Node4</title>
<g id="a_node4"><a xlink:title=" ">
<polygon fill="#e0e0e0" stroke="#999999" points="160.5,-85 92.5,-85 92.5,-66 160.5,-66 160.5,-85"/>
<text text-anchor="middle" x="126.5" y="-73" font-family="Helvetica,sans-Serif" font-size="10.00">filesystem</text>
</a>
</g>
</g>
<!-- Node1&#45;&gt;Node4 -->
<g id="edge3" class="edge">
<title>Node1&#45;&gt;Node4</title>
<path fill="none" stroke="#63b8ff" d="M242.94,-351.91C237.75,-333.74 226.5,-290 226.5,-252.5 226.5,-252.5 226.5,-252.5 226.5,-195.5 226.5,-148.3 179.82,-110.05 150.25,-90.55"/>
<polygon fill="#63b8ff" stroke="#63b8ff" points="152.01,-87.52 141.69,-85.11 148.25,-93.43 152.01,-87.52"/>
</g>
<!-- Node5 -->
<g id="node5" class="node">
<title>Node5</title>
<g id="a_node5"><a xlink:title=" ">
<polygon fill="#e0e0e0" stroke="#999999" points="234,-85 179,-85 179,-66 234,-66 234,-85"/>
<text text-anchor="middle" x="206.5" y="-73" font-family="Helvetica,sans-Serif" font-size="10.00">fstream</text>
</a>
</g>
</g>
<!-- Node1&#45;&gt;Node5 -->
<g id="edge4" class="edge">
<title>Node1&#45;&gt;Node5</title>
<path fill="none" stroke="#63b8ff" d="M248.06,-351.91C253.25,-333.74 264.5,-290 264.5,-252.5 264.5,-252.5 264.5,-252.5 264.5,-195.5 264.5,-155.5 237.7,-114.9 220.53,-92.99"/>
<polygon fill="#63b8ff" stroke="#63b8ff" points="223.1,-90.6 214.08,-85.05 217.67,-95.02 223.1,-90.6"/>
</g>
<!-- Node6 -->
<g id="node6" class="node">
<title>Node6</title>
<g id="a_node6"><a xlink:title=" ">
<polygon fill="#e0e0e0" stroke="#999999" points="390,-151 337,-151 337,-132 390,-132 390,-151"/>
<text text-anchor="middle" x="363.5" y="-139" font-family="Helvetica,sans-Serif" font-size="10.00">iterator</text>
</a>
</g>
</g>
<!-- Node1&#45;&gt;Node6 -->
<g id="edge5" class="edge">
<title>Node1&#45;&gt;Node6</title>
<path fill="none" stroke="#63b8ff" d="M252.57,-351.97C259.61,-343.24 270.5,-329.15 278.5,-316 311.56,-261.69 342.27,-192.67 355.98,-160.51"/>
<polygon fill="#63b8ff" stroke="#63b8ff" points="359.29,-161.67 359.96,-151.09 352.84,-158.95 359.29,-161.67"/>
</g>
<!-- Node7 -->
<g id="node7" class="node">
<title>Node7</title>
<g id="a_node7"><a xlink:href="_manifold_8hpp.html" target="_top" xlink:title="Data structures for manifolds.">
<polygon fill="white" stroke="#666666" points="551.5,-316 471.5,-316 471.5,-297 551.5,-297 551.5,-316"/>
<text text-anchor="middle" x="511.5" y="-304" font-family="Helvetica,sans-Serif" font-size="10.00">Manifold.hpp</text>
</a>
</g>
</g>
<!-- Node1&#45;&gt;Node7 -->
<g id="edge6" class="edge">
<title>Node1&#45;&gt;Node7</title>
<path fill="none" stroke="#63b8ff" d="M288.24,-351.98C335.5,-342.57 411.56,-327.41 461.54,-317.45"/>
<polygon fill="#63b8ff" stroke="#63b8ff" points="462.36,-320.86 471.48,-315.47 460.99,-314 462.36,-320.86"/>
</g>
<!-- Node8 -->
<g id="node8" class="node">
<title>Node8</title>
<g id="a_node8"><a xlink:title=" ">
<polygon fill="#e0e0e0" stroke="#999999" points="625,-261 572,-261 572,-242 625,-242 625,-261"/>
<text text-anchor="middle" x="598.5" y="-249" font-family="Helvetica,sans-Serif" font-size="10.00">cstddef</text>
</a>
</g>
</g>
<!-- Node7&#45;&gt;Node8 -->
<g id="edge7" class="edge">
<title>Node7&#45;&gt;Node8</title>
<path fill="none" stroke="#63b8ff" d="M525.48,-296.98C538.97,-288.77 559.63,-276.18 575.54,-266.49"/>
<polygon fill="#63b8ff" stroke="#63b8ff" points="577.55,-269.36 584.27,-261.17 573.91,-263.38 577.55,-269.36"/>
</g>
<!-- Node9 -->
<g id="node9" class="node">
<title>Node9</title>
<g id="a_node9"><a xlink:title=" ">
<polygon fill="#e0e0e0" stroke="#999999" points="499,-151 430,-151 430,-132 499,-132 499,-151"/>
<text text-anchor="middle" x="464.5" y="-139" font-family="Helvetica,sans-Serif" font-size="10.00">type_traits</text>
</a>
</g>
</g>
<!-- Node7&#45;&gt;Node9 -->
<g id="edge8" class="edge">
<title>Node7&#45;&gt;Node9</title>
<path fill="none" stroke="#63b8ff" d="M495.47,-296.95C483.09,-289.35 466.85,-276.97 459.5,-261 444.41,-228.24 452.32,-184.83 458.81,-160.68"/>
<polygon fill="#63b8ff" stroke="#63b8ff" points="462.18,-161.63 461.6,-151.05 455.45,-159.68 462.18,-161.63"/>
</g>
<!-- Node10 -->
<g id="node10" class="node">
<title>Node10</title>
<g id="a_node10"><a xlink:title=" ">
<polygon fill="#e0e0e0" stroke="#999999" points="729.5,-261 643.5,-261 643.5,-242 729.5,-242 729.5,-261"/>
<text text-anchor="middle" x="686.5" y="-249" font-family="Helvetica,sans-Serif" font-size="10.00">unordered_set</text>
</a>
</g>
</g>
<!-- Node7&#45;&gt;Node10 -->
<g id="edge9" class="edge">
<title>Node7&#45;&gt;Node10</title>
<path fill="none" stroke="#63b8ff" d="M539.62,-296.98C569.12,-288.05 615.69,-273.94 648.47,-264.02"/>
<polygon fill="#63b8ff" stroke="#63b8ff" points="649.61,-267.33 658.16,-261.08 647.58,-260.63 649.61,-267.33"/>
</g>
<!-- Node11 -->
<g id="node11" class="node">
<title>Node11</title>
<g id="a_node11"><a xlink:href="_geometry_8hpp.html" target="_top" xlink:title="Geometric scalars of the Manifold used to calculate the Regge action.">
<polygon fill="white" stroke="#666666" points="554,-261 469,-261 469,-242 554,-242 554,-261"/>
<text text-anchor="middle" x="511.5" y="-249" font-family="Helvetica,sans-Serif" font-size="10.00">Geometry.hpp</text>
</a>
</g>
</g>
<!-- Node7&#45;&gt;Node11 -->
<g id="edge10" class="edge">
<title>Node7&#45;&gt;Node11</title>
<path fill="none" stroke="#63b8ff" d="M511.5,-296.75C511.5,-289.8 511.5,-279.85 511.5,-271.13"/>
<polygon fill="#63b8ff" stroke="#63b8ff" points="515,-271.09 511.5,-261.09 508,-271.09 515,-271.09"/>
</g>
<!-- Node11&#45;&gt;Node9 -->
<g id="edge11" class="edge">
<title>Node11&#45;&gt;Node9</title>
<path fill="none" stroke="#63b8ff" d="M507.65,-241.66C499.97,-224.01 482.6,-184.09 472.39,-160.64"/>
<polygon fill="#63b8ff" stroke="#63b8ff" points="475.47,-158.93 468.27,-151.16 469.05,-161.72 475.47,-158.93"/>
</g>
<!-- Node12 -->
<g id="node12" class="node">
<title>Node12</title>
<g id="a_node12"><a xlink:href="_foliated__triangulation_8hpp.html" target="_top" xlink:title="Create foliated spherical triangulations.">
<polygon fill="white" stroke="#666666" points="705.5,-206 561.5,-206 561.5,-187 705.5,-187 705.5,-206"/>
<text text-anchor="middle" x="633.5" y="-194" font-family="Helvetica,sans-Serif" font-size="10.00">Foliated_triangulation.hpp</text>
</a>
</g>
</g>
<!-- Node11&#45;&gt;Node12 -->
<g id="edge12" class="edge">
<title>Node11&#45;&gt;Node12</title>
<path fill="none" stroke="#63b8ff" d="M531.1,-241.98C550.82,-233.42 581.45,-220.11 604.08,-210.28"/>
<polygon fill="#63b8ff" stroke="#63b8ff" points="605.76,-213.37 613.54,-206.17 602.98,-206.94 605.76,-213.37"/>
</g>
<!-- Node12&#45;&gt;Node6 -->
<g id="edge16" class="edge">
<title>Node12&#45;&gt;Node6</title>
<path fill="none" stroke="#63b8ff" d="M590.12,-186.98C537.51,-176.66 449.77,-159.43 400.31,-149.73"/>
<polygon fill="#63b8ff" stroke="#63b8ff" points="400.85,-146.27 390.36,-147.77 399.5,-153.13 400.85,-146.27"/>
</g>
<!-- Node12&#45;&gt;Node9 -->
<g id="edge18" class="edge">
<title>Node12&#45;&gt;Node9</title>
<path fill="none" stroke="#63b8ff" d="M606.35,-186.98C577.97,-178.09 533.27,-164.07 501.64,-154.15"/>
<polygon fill="#63b8ff" stroke="#63b8ff" points="502.45,-150.73 491.87,-151.08 500.36,-157.41 502.45,-150.73"/>
</g>
<!-- Node13 -->
<g id="node13" class="node">
<title>Node13</title>
<g id="a_node13"><a xlink:title=" ">
<polygon fill="#e0e0e0" stroke="#999999" points="316.5,-85 252.5,-85 252.5,-66 316.5,-66 316.5,-85"/>
<text text-anchor="middle" x="284.5" y="-73" font-family="Helvetica,sans-Serif" font-size="10.00">algorithm</text>
</a>
</g>
</g>
<!-- Node12&#45;&gt;Node13 -->
<g id="edge13" class="edge">
<title>Node12&#45;&gt;Node13</title>
<path fill="none" stroke="#63b8ff" d="M616.92,-186.99C584.02,-170.14 513.18,-133.95 507.5,-132 429.52,-105.2 403.78,-121.91 325.5,-96 320.07,-94.2 314.43,-91.86 309.14,-89.43"/>
<polygon fill="#63b8ff" stroke="#63b8ff" points="310.61,-86.25 300.09,-85.04 307.56,-92.55 310.61,-86.25"/>
</g>
<!-- Node14 -->
<g id="node14" class="node">
<title>Node14</title>
<g id="a_node14"><a xlink:title=" ">
<polygon fill="#e0e0e0" stroke="#999999" points="697,-151 650,-151 650,-132 697,-132 697,-151"/>
<text text-anchor="middle" x="673.5" y="-139" font-family="Helvetica,sans-Serif" font-size="10.00">cmath</text>
</a>
</g>
</g>
<!-- Node12&#45;&gt;Node14 -->
<g id="edge14" class="edge">
<title>Node12&#45;&gt;Node14</title>
<path fill="none" stroke="#63b8ff" d="M640.11,-186.75C645.76,-179.26 654.04,-168.28 660.95,-159.13"/>
<polygon fill="#63b8ff" stroke="#63b8ff" points="663.79,-161.18 667.02,-151.09 658.2,-156.96 663.79,-161.18"/>
</g>
<!-- Node15 -->
<g id="node15" class="node">
<title>Node15</title>
<g id="a_node15"><a xlink:title=" ">
<polygon fill="#e0e0e0" stroke="#999999" points="780,-151 715,-151 715,-132 780,-132 780,-151"/>
<text text-anchor="middle" x="747.5" y="-139" font-family="Helvetica,sans-Serif" font-size="10.00">functional</text>
</a>
</g>
</g>
<!-- Node12&#45;&gt;Node15 -->
<g id="edge15" class="edge">
<title>Node12&#45;&gt;Node15</title>
<path fill="none" stroke="#63b8ff" d="M651.82,-186.98C670.16,-178.46 698.61,-165.23 719.73,-155.41"/>
<polygon fill="#63b8ff" stroke="#63b8ff" points="721.26,-158.56 728.85,-151.17 718.31,-152.21 721.26,-158.56"/>
</g>
<!-- Node16 -->
<g id="node16" class="node">
<title>Node16</title>
<g id="a_node16"><a xlink:title=" ">
<polygon fill="#e0e0e0" stroke="#999999" points="842.5,-151 798.5,-151 798.5,-132 842.5,-132 842.5,-151"/>
<text text-anchor="middle" x="820.5" y="-139" font-family="Helvetica,sans-Serif" font-size="10.00">limits</text>
</a>
</g>
</g>
<!-- Node12&#45;&gt;Node16 -->
<g id="edge17" class="edge">
<title>Node12&#45;&gt;Node16</title>
<path fill="none" stroke="#63b8ff" d="M663.54,-186.98C697.84,-177.26 753.71,-161.43 788.72,-151.51"/>
<polygon fill="#63b8ff" stroke="#63b8ff" points="789.77,-154.85 798.43,-148.75 787.86,-148.11 789.77,-154.85"/>
</g>
<!-- Node17 -->
<g id="node17" class="node">
<title>Node17</title>
<g id="a_node17"><a xlink:title=" ">
<polygon fill="#e0e0e0" stroke="#999999" points="906,-151 861,-151 861,-132 906,-132 906,-151"/>
<text text-anchor="middle" x="883.5" y="-139" font-family="Helvetica,sans-Serif" font-size="10.00">utility</text>
</a>
</g>
</g>
<!-- Node12&#45;&gt;Node17 -->
<g id="edge19" class="edge">
<title>Node12&#45;&gt;Node17</title>
<path fill="none" stroke="#63b8ff" d="M679.18,-186.98C721.25,-178.95 785.6,-166.22 850.78,-151.05"/>
<polygon fill="#63b8ff" stroke="#63b8ff" points="851.88,-154.39 860.82,-148.7 850.28,-147.58 851.88,-154.39"/>
</g>
<!-- Node18 -->
<g id="node18" class="node">
<title>Node18</title>
<g id="a_node18"><a xlink:href="_triangulation__traits_8hpp.html" target="_top" xlink:title="Traits class for particular uses of CGAL.">
<polygon fill="white" stroke="#666666" points="1841,-151 1710,-151 1710,-132 1841,-132 1841,-151"/>
<text text-anchor="middle" x="1775.5" y="-139" font-family="Helvetica,sans-Serif" font-size="10.00">Triangulation_traits.hpp</text>
</a>
</g>
</g>
<!-- Node12&#45;&gt;Node18 -->
<g id="edge20" class="edge">
<title>Node12&#45;&gt;Node18</title>
<path fill="none" stroke="#63b8ff" d="M705.8,-192.14C910.24,-182.66 1491.13,-155.7 1699.74,-146.02"/>
<polygon fill="#63b8ff" stroke="#63b8ff" points="1700.16,-149.5 1709.99,-145.54 1699.83,-142.51 1700.16,-149.5"/>
</g>
<!-- Node27 -->
<g id="node27" class="node">
<title>Node27</title>
<g id="a_node27"><a xlink:href="_utilities_8hpp.html" target="_top" xlink:title="Utility functions.">
<polygon fill="white" stroke="#666666" points="631.5,-151 555.5,-151 555.5,-132 631.5,-132 631.5,-151"/>
<text text-anchor="middle" x="593.5" y="-139" font-family="Helvetica,sans-Serif" font-size="10.00">Utilities.hpp</text>
</a>
</g>
</g>
<!-- Node12&#45;&gt;Node27 -->
<g id="edge29" class="edge">
<title>Node12&#45;&gt;Node27</title>
<path fill="none" stroke="#63b8ff" d="M626.89,-186.75C621.24,-179.26 612.96,-168.28 606.05,-159.13"/>
<polygon fill="#63b8ff" stroke="#63b8ff" points="608.8,-156.96 599.98,-151.09 603.21,-161.18 608.8,-156.96"/>
</g>
<!-- Node19 -->
<g id="node19" class="node">
<title>Node19</title>
<g id="a_node19"><a xlink:title=" ">
<polygon fill="#e0e0e0" stroke="#999999" points="1692.5,-85 1512.5,-85 1512.5,-66 1692.5,-66 1692.5,-85"/>
<text text-anchor="middle" x="1602.5" y="-73" font-family="Helvetica,sans-Serif" font-size="10.00">CGAL/Delaunay_triangulation_3.h</text>
</a>
</g>
</g>
<!-- Node18&#45;&gt;Node19 -->
<g id="edge21" class="edge">
<title>Node18&#45;&gt;Node19</title>
<path fill="none" stroke="#63b8ff" d="M1752.17,-131.87C1722.03,-120.72 1669.41,-101.25 1635.27,-88.62"/>
<polygon fill="#63b8ff" stroke="#63b8ff" points="1636.33,-85.28 1625.74,-85.1 1633.9,-91.85 1636.33,-85.28"/>
</g>
<!-- Node20 -->
<g id="node20" class="node">
<title>Node20</title>
<g id="a_node20"><a xlink:title=" ">
<polygon fill="#e0e0e0" stroke="#999999" points="1840,-96 1711,-96 1711,-55 1840,-55 1840,-96"/>
<text text-anchor="start" x="1719" y="-84" font-family="Helvetica,sans-Serif" font-size="10.00">CGAL/Exact_predicates</text>
<text text-anchor="start" x="1719" y="-73" font-family="Helvetica,sans-Serif" font-size="10.00">_inexact_constructions</text>
<text text-anchor="middle" x="1775.5" y="-62" font-family="Helvetica,sans-Serif" font-size="10.00">_kernel.h</text>
</a>
</g>
</g>
<!-- Node18&#45;&gt;Node20 -->
<g id="edge22" class="edge">
<title>Node18&#45;&gt;Node20</title>
<path fill="none" stroke="#63b8ff" d="M1775.5,-131.87C1775.5,-125.22 1775.5,-115.63 1775.5,-106.28"/>
<polygon fill="#63b8ff" stroke="#63b8ff" points="1779,-106.01 1775.5,-96.01 1772,-106.01 1779,-106.01"/>
</g>
<!-- Node21 -->
<g id="node21" class="node">
<title>Node21</title>
<g id="a_node21"><a xlink:title=" ">
<polygon fill="#e0e0e0" stroke="#999999" points="2007,-85 1858,-85 1858,-66 2007,-66 2007,-85"/>
<text text-anchor="middle" x="1932.5" y="-73" font-family="Helvetica,sans-Serif" font-size="10.00">CGAL/point_generators_3.h</text>
</a>
</g>
</g>
<!-- Node18&#45;&gt;Node21 -->
<g id="edge23" class="edge">
<title>Node18&#45;&gt;Node21</title>
<path fill="none" stroke="#63b8ff" d="M1796.67,-131.87C1823.79,-120.82 1870.96,-101.58 1901.96,-88.95"/>
<polygon fill="#63b8ff" stroke="#63b8ff" points="1903.47,-92.11 1911.41,-85.1 1900.83,-85.63 1903.47,-92.11"/>
</g>
<!-- Node22 -->
<g id="node22" class="node">
<title>Node22</title>
<g id="a_node22"><a xlink:title=" ">
<polygon fill="#e0e0e0" stroke="#999999" points="2163.5,-90.5 2025.5,-90.5 2025.5,-60.5 2163.5,-60.5 2163.5,-90.5"/>
<text text-anchor="start" x="2033.5" y="-78.5" font-family="Helvetica,sans-Serif" font-size="10.00">CGAL/Triangulation</text>
<text text-anchor="middle" x="2094.5" y="-67.5" font-family="Helvetica,sans-Serif" font-size="10.00">_cell_base_with_info_3.h</text>
</a>
</g>
</g>
<!-- Node18&#45;&gt;Node22 -->
<g id="edge24" class="edge">
<title>Node18&#45;&gt;Node22</title>
<path fill="none" stroke="#63b8ff" d="M1826.93,-131.96C1875.85,-123.61 1951.43,-110.13 2016.5,-96 2020.92,-95.04 2025.46,-94.01 2030.04,-92.95"/>
<polygon fill="#63b8ff" stroke="#63b8ff" points="2031.13,-96.29 2040.05,-90.57 2029.51,-89.48 2031.13,-96.29"/>
</g>
<!-- Node23 -->
<g id="node23" class="node">
<title>Node23</title>
<g id="a_node23"><a xlink:title=" ">
<polygon fill="#e0e0e0" stroke="#999999" points="2333.5,-90.5 2181.5,-90.5 2181.5,-60.5 2333.5,-60.5 2333.5,-90.5"/>
<text text-anchor="start" x="2189.5" y="-78.5" font-family="Helvetica,sans-Serif" font-size="10.00">CGAL/Triangulation</text>
<text text-anchor="middle" x="2257.5" y="-67.5" font-family="Helvetica,sans-Serif" font-size="10.00">_vertex_base_with_info_3.h</text>
</a>
</g>
</g>
<!-- Node18&#45;&gt;Node23 -->
<g id="edge25" class="edge">
<title>Node18&#45;&gt;Node23</title>
<path fill="none" stroke="#63b8ff" d="M1841.15,-135.45C1920.14,-128.84 2056.61,-115.72 2172.5,-96 2178.33,-95.01 2184.37,-93.86 2190.4,-92.64"/>
<polygon fill="#63b8ff" stroke="#63b8ff" points="2191.46,-95.99 2200.53,-90.51 2190.02,-89.14 2191.46,-95.99"/>
</g>
<!-- Node24 -->
<g id="node24" class="node">
<title>Node24</title>
<g id="a_node24"><a xlink:href="_settings_8hpp.html" target="_top" xlink:title="Global integer and precision settings.">
<polygon fill="white" stroke="#666666" points="1494,-85 1417,-85 1417,-66 1494,-66 1494,-85"/>
<text text-anchor="middle" x="1455.5" y="-73" font-family="Helvetica,sans-Serif" font-size="10.00">Settings.hpp</text>
</a>
</g>
</g>
<!-- Node18&#45;&gt;Node24 -->
<g id="edge26" class="edge">
<title>Node18&#45;&gt;Node24</title>
<path fill="none" stroke="#63b8ff" d="M1709.76,-133.92C1654.1,-127.36 1572.6,-115.42 1503.5,-96 1496.91,-94.15 1489.99,-91.67 1483.53,-89.11"/>
<polygon fill="#63b8ff" stroke="#63b8ff" points="1484.43,-85.69 1473.85,-85.08 1481.74,-92.16 1484.43,-85.69"/>
</g>
<!-- Node25 -->
<g id="node25" class="node">
<title>Node25</title>
<g id="a_node25"><a xlink:title=" ">
<polygon fill="#e0e0e0" stroke="#999999" points="1468.5,-19 1328.5,-19 1328.5,0 1468.5,0 1468.5,-19"/>
<text text-anchor="middle" x="1398.5" y="-7" font-family="Helvetica,sans-Serif" font-size="10.00">CGAL/GMP/Gmpzf_type.h</text>
</a>
</g>
</g>
<!-- Node24&#45;&gt;Node25 -->
<g id="edge27" class="edge">
<title>Node24&#45;&gt;Node25</title>
<path fill="none" stroke="#63b8ff" d="M1447.81,-65.87C1439.02,-56 1424.43,-39.61 1413.39,-27.22"/>
<polygon fill="#63b8ff" stroke="#63b8ff" points="1415.7,-24.55 1406.43,-19.41 1410.47,-29.2 1415.7,-24.55"/>
</g>
<!-- Node26 -->
<g id="node26" class="node">
<title>Node26</title>
<g id="a_node26"><a xlink:title=" ">
<polygon fill="#e0e0e0" stroke="#999999" points="1536.5,-19 1486.5,-19 1486.5,0 1536.5,0 1536.5,-19"/>
<text text-anchor="middle" x="1511.5" y="-7" font-family="Helvetica,sans-Serif" font-size="10.00">cstdint</text>
</a>
</g>
</g>
<!-- Node24&#45;&gt;Node26 -->
<g id="edge28" class="edge">
<title>Node24&#45;&gt;Node26</title>
<path fill="none" stroke="#63b8ff" d="M1463.05,-65.87C1471.69,-56 1486.03,-39.61 1496.87,-27.22"/>
<polygon fill="#63b8ff" stroke="#63b8ff" points="1499.76,-29.24 1503.71,-19.41 1494.49,-24.63 1499.76,-29.24"/>
</g>
<!-- Node27&#45;&gt;Node4 -->
<g id="edge31" class="edge">
<title>Node27&#45;&gt;Node4</title>
<path fill="none" stroke="#63b8ff" d="M555.35,-136.66C452.89,-126.32 178.79,-98.52 169.5,-96 163.52,-94.38 157.32,-92.01 151.56,-89.48"/>
<polygon fill="#63b8ff" stroke="#63b8ff" points="152.92,-86.26 142.38,-85.18 149.95,-92.59 152.92,-86.26"/>
</g>
<!-- Node27&#45;&gt;Node5 -->
<g id="edge32" class="edge">
<title>Node27&#45;&gt;Node5</title>
<path fill="none" stroke="#63b8ff" d="M555.41,-136.44C470.89,-127.3 272.78,-105.24 243.5,-96 238.65,-94.47 233.68,-92.31 229.02,-89.99"/>
<polygon fill="#63b8ff" stroke="#63b8ff" points="230.5,-86.81 220.04,-85.14 227.18,-92.97 230.5,-86.81"/>
</g>
<!-- Node27&#45;&gt;Node13 -->
<g id="edge30" class="edge">
<title>Node27&#45;&gt;Node13</title>
<path fill="none" stroke="#63b8ff" d="M555.29,-134.22C481.91,-122.16 328.24,-96.86 325.5,-96 320.05,-94.29 314.4,-91.98 309.09,-89.56"/>
<polygon fill="#63b8ff" stroke="#63b8ff" points="310.57,-86.38 300.05,-85.16 307.51,-92.68 310.57,-86.38"/>
</g>
<!-- Node27&#45;&gt;Node24 -->
<g id="edge45" class="edge">
<title>Node27&#45;&gt;Node24</title>
<path fill="none" stroke="#63b8ff" d="M631.66,-133.16C634.64,-132.72 637.62,-132.33 640.5,-132 980.03,-93.51 1075.03,-170.59 1408.5,-96 1415.57,-94.42 1422.93,-91.85 1429.67,-89.09"/>
<polygon fill="#63b8ff" stroke="#63b8ff" points="1431.24,-92.22 1438.99,-85 1428.43,-85.81 1431.24,-92.22"/>
</g>
<!-- Node28 -->
<g id="node28" class="node">
<title>Node28</title>
<g id="a_node28"><a xlink:title=" ">
<polygon fill="#e0e0e0" stroke="#999999" points="382.5,-85 334.5,-85 334.5,-66 382.5,-66 382.5,-85"/>
<text text-anchor="middle" x="358.5" y="-73" font-family="Helvetica,sans-Serif" font-size="10.00">gsl/gsl</text>
</a>
</g>
</g>
<!-- Node27&#45;&gt;Node28 -->
<g id="edge33" class="edge">
<title>Node27&#45;&gt;Node28</title>
<path fill="none" stroke="#63b8ff" d="M555.26,-133.57C505.35,-124.27 420.9,-107.58 391.5,-96 387.57,-94.45 383.56,-92.47 379.76,-90.37"/>
<polygon fill="#63b8ff" stroke="#63b8ff" points="381.25,-87.19 370.87,-85.08 377.67,-93.2 381.25,-87.19"/>
</g>
<!-- Node29 -->
<g id="node29" class="node">
<title>Node29</title>
<g id="a_node29"><a xlink:title=" ">
<polygon fill="#e0e0e0" stroke="#999999" points="448.5,-85 400.5,-85 400.5,-66 448.5,-66 448.5,-85"/>
<text text-anchor="middle" x="424.5" y="-73" font-family="Helvetica,sans-Serif" font-size="10.00">mutex</text>
</a>
</g>
</g>
<!-- Node27&#45;&gt;Node29 -->
<g id="edge34" class="edge">
<title>Node27&#45;&gt;Node29</title>
<path fill="none" stroke="#63b8ff" d="M560.88,-131.99C532.85,-124.17 491.68,-111.47 457.5,-96 453.79,-94.32 449.96,-92.33 446.29,-90.27"/>
<polygon fill="#63b8ff" stroke="#63b8ff" points="448.02,-87.23 437.63,-85.15 444.46,-93.25 448.02,-87.23"/>
</g>
<!-- Node30 -->
<g id="node30" class="node">
<title>Node30</title>
<g id="a_node30"><a xlink:title=" ">
<polygon fill="#e0e0e0" stroke="#999999" points="520.5,-85 466.5,-85 466.5,-66 520.5,-66 520.5,-85"/>
<text text-anchor="middle" x="493.5" y="-73" font-family="Helvetica,sans-Serif" font-size="10.00">random</text>
</a>
</g>
</g>
<!-- Node27&#45;&gt;Node30 -->
<g id="edge35" class="edge">
<title>Node27&#45;&gt;Node30</title>
<path fill="none" stroke="#63b8ff" d="M580.01,-131.87C563.54,-121.32 535.43,-103.34 515.74,-90.73"/>
<polygon fill="#63b8ff" stroke="#63b8ff" points="517.4,-87.64 507.09,-85.2 513.63,-93.54 517.4,-87.64"/>
</g>
<!-- Node31 -->
<g id="node31" class="node">
<title>Node31</title>
<g id="a_node31"><a xlink:title=" ">
<polygon fill="#e0e0e0" stroke="#999999" points="578.5,-85 538.5,-85 538.5,-66 578.5,-66 578.5,-85"/>
<text text-anchor="middle" x="558.5" y="-73" font-family="Helvetica,sans-Serif" font-size="10.00">span</text>
</a>
</g>
</g>
<!-- Node27&#45;&gt;Node31 -->
<g id="edge36" class="edge">
<title>Node27&#45;&gt;Node31</title>
<path fill="none" stroke="#63b8ff" d="M588.78,-131.87C583.54,-122.28 574.93,-106.55 568.23,-94.3"/>
<polygon fill="#63b8ff" stroke="#63b8ff" points="571.24,-92.5 563.37,-85.41 565.1,-95.86 571.24,-92.5"/>
</g>
<!-- Node32 -->
<g id="node32" class="node">
<title>Node32</title>
<g id="a_node32"><a xlink:title=" ">
<polygon fill="#e0e0e0" stroke="#999999" points="662,-85 597,-85 597,-66 662,-66 662,-85"/>
<text text-anchor="middle" x="629.5" y="-73" font-family="Helvetica,sans-Serif" font-size="10.00">stdexcept</text>
</a>
</g>
</g>
<!-- Node27&#45;&gt;Node32 -->
<g id="edge37" class="edge">
<title>Node27&#45;&gt;Node32</title>
<path fill="none" stroke="#63b8ff" d="M598.36,-131.87C603.75,-122.28 612.6,-106.55 619.49,-94.3"/>
<polygon fill="#63b8ff" stroke="#63b8ff" points="622.64,-95.84 624.49,-85.41 616.54,-92.41 622.64,-95.84"/>
</g>
<!-- Node33 -->
<g id="node33" class="node">
<title>Node33</title>
<g id="a_node33"><a xlink:title=" ">
<polygon fill="#e0e0e0" stroke="#999999" points="724.5,-85 680.5,-85 680.5,-66 724.5,-66 724.5,-85"/>
<text text-anchor="middle" x="702.5" y="-73" font-family="Helvetica,sans-Serif" font-size="10.00">string</text>
</a>
</g>
</g>
<!-- Node27&#45;&gt;Node33 -->
<g id="edge38" class="edge">
<title>Node27&#45;&gt;Node33</title>
<path fill="none" stroke="#63b8ff" d="M608.61,-131.91C624.18,-123.02 649.12,-108.69 670.5,-96 673.56,-94.19 676.77,-92.26 679.93,-90.34"/>
<polygon fill="#63b8ff" stroke="#63b8ff" points="681.8,-93.3 688.52,-85.11 678.16,-87.32 681.8,-93.3"/>
</g>
<!-- Node34 -->
<g id="node34" class="node">
<title>Node34</title>
<g id="a_node34"><a xlink:title=" ">
<polygon fill="#e0e0e0" stroke="#999999" points="814.5,-85 742.5,-85 742.5,-66 814.5,-66 814.5,-85"/>
<text text-anchor="middle" x="778.5" y="-73" font-family="Helvetica,sans-Serif" font-size="10.00">date/date.h</text>
</a>
</g>
</g>
<!-- Node27&#45;&gt;Node34 -->
<g id="edge39" class="edge">
<title>Node27&#45;&gt;Node34</title>
<path fill="none" stroke="#63b8ff" d="M623.29,-131.98C651.84,-123.6 696,-110.04 733.5,-96 738.98,-93.95 744.76,-91.59 750.29,-89.24"/>
<polygon fill="#63b8ff" stroke="#63b8ff" points="752.07,-92.29 759.84,-85.09 749.28,-85.87 752.07,-92.29"/>
</g>
<!-- Node35 -->
<g id="node35" class="node">
<title>Node35</title>
<g id="a_node35"><a xlink:title=" ">
<polygon fill="#e0e0e0" stroke="#999999" points="930.5,-85 832.5,-85 832.5,-66 930.5,-66 930.5,-85"/>
<text text-anchor="middle" x="881.5" y="-73" font-family="Helvetica,sans-Serif" font-size="10.00">pcg_random.hpp</text>
</a>
</g>
</g>
<!-- Node27&#45;&gt;Node35 -->
<g id="edge40" class="edge">
<title>Node27&#45;&gt;Node35</title>
<path fill="none" stroke="#63b8ff" d="M631.58,-133.42C692.08,-122.13 805.21,-100.82 823.5,-96 831.75,-93.82 840.54,-91.09 848.71,-88.37"/>
<polygon fill="#63b8ff" stroke="#63b8ff" points="849.96,-91.64 858.29,-85.09 847.7,-85.02 849.96,-91.64"/>
</g>
<!-- Node36 -->
<g id="node36" class="node">
<title>Node36</title>
<g id="a_node36"><a xlink:title=" ">
<polygon fill="#e0e0e0" stroke="#999999" points="1034.5,-85 948.5,-85 948.5,-66 1034.5,-66 1034.5,-85"/>
<text text-anchor="middle" x="991.5" y="-73" font-family="Helvetica,sans-Serif" font-size="10.00">fmt/ostream.h</text>
</a>
</g>
</g>
<!-- Node27&#45;&gt;Node36 -->
<g id="edge41" class="edge">
<title>Node27&#45;&gt;Node36</title>
<path fill="none" stroke="#63b8ff" d="M631.69,-133.4C634.67,-132.9 637.63,-132.43 640.5,-132 772.86,-112.08 809.47,-127.72 939.5,-96 947.19,-94.13 955.29,-91.45 962.75,-88.68"/>
<polygon fill="#63b8ff" stroke="#63b8ff" points="964.05,-91.93 972.09,-85.04 961.51,-85.4 964.05,-91.93"/>
</g>
<!-- Node37 -->
<g id="node37" class="node">
<title>Node37</title>
<g id="a_node37"><a xlink:title=" ">
<polygon fill="#e0e0e0" stroke="#999999" points="1158.5,-90.5 1052.5,-90.5 1052.5,-60.5 1158.5,-60.5 1158.5,-90.5"/>
<text text-anchor="start" x="1060.5" y="-78.5" font-family="Helvetica,sans-Serif" font-size="10.00">spdlog/sinks/basic</text>
<text text-anchor="middle" x="1105.5" y="-67.5" font-family="Helvetica,sans-Serif" font-size="10.00">_file_sink.h</text>
</a>
</g>
</g>
<!-- Node27&#45;&gt;Node37 -->
<g id="edge42" class="edge">
<title>Node27&#45;&gt;Node37</title>
<path fill="none" stroke="#63b8ff" d="M631.67,-133.3C634.66,-132.83 637.62,-132.39 640.5,-132 818.71,-107.97 867.15,-131.18 1043.5,-96 1047.37,-95.23 1051.35,-94.3 1055.32,-93.28"/>
<polygon fill="#63b8ff" stroke="#63b8ff" points="1056.43,-96.6 1065.14,-90.57 1054.57,-89.86 1056.43,-96.6"/>
</g>
<!-- Node38 -->
<g id="node38" class="node">
<title>Node38</title>
<g id="a_node38"><a xlink:title=" ">
<polygon fill="#e0e0e0" stroke="#999999" points="1288,-90.5 1177,-90.5 1177,-60.5 1288,-60.5 1288,-90.5"/>
<text text-anchor="start" x="1185" y="-78.5" font-family="Helvetica,sans-Serif" font-size="10.00">spdlog/sinks/stdout</text>
<text text-anchor="middle" x="1232.5" y="-67.5" font-family="Helvetica,sans-Serif" font-size="10.00">_color_sinks.h</text>
</a>
</g>
</g>
<!-- Node27&#45;&gt;Node38 -->
<g id="edge43" class="edge">
<title>Node27&#45;&gt;Node38</title>
<path fill="none" stroke="#63b8ff" d="M631.67,-133.23C634.65,-132.78 637.62,-132.36 640.5,-132 873.48,-103.07 936.52,-137.99 1167.5,-96 1171.86,-95.21 1176.33,-94.23 1180.8,-93.13"/>
<polygon fill="#63b8ff" stroke="#63b8ff" points="1181.74,-96.51 1190.53,-90.58 1179.96,-89.74 1181.74,-96.51"/>
</g>
<!-- Node39 -->
<g id="node39" class="node">
<title>Node39</title>
<g id="a_node39"><a xlink:title=" ">
<polygon fill="#e0e0e0" stroke="#999999" points="1399,-85 1306,-85 1306,-66 1399,-66 1399,-85"/>
<text text-anchor="middle" x="1352.5" y="-73" font-family="Helvetica,sans-Serif" font-size="10.00">spdlog/spdlog.h</text>
</a>
</g>
</g>
<!-- Node27&#45;&gt;Node39 -->
<g id="edge44" class="edge">
<title>Node27&#45;&gt;Node39</title>
<path fill="none" stroke="#63b8ff" d="M631.66,-133.19C634.64,-132.74 637.62,-132.34 640.5,-132 930.5,-97.95 1010.04,-152.57 1296.5,-96 1305.28,-94.27 1314.56,-91.46 1322.99,-88.51"/>
<polygon fill="#63b8ff" stroke="#63b8ff" points="1324.23,-91.78 1332.4,-85.04 1321.81,-85.21 1324.23,-91.78"/>
</g>
</g>
</svg>
        <g id="navigator" transform="translate(0 0)" fill="#404254">
                <rect fill="#f2f5e9" fill-opacity="0.5" stroke="#606060" stroke-width=".5" x="0" y="0" width="60" height="60"/>
                <use id="zoomplus" xlink:href="#zoomPlus" x="17" y="9" onmousedown="handleZoom(evt,'in')"/>
                <use id="zoomminus" xlink:href="#zoomMin" x="42" y="9" onmousedown="handleZoom(evt,'out')"/>
                <use id="reset" xlink:href="#resetDef" x="30" y="36" onmousedown="handleReset()"/>
                <g id="arrowUp" xlink:href="#dirArrow" transform="translate(30 24)" onmousedown="handlePan(0,-1)">
                  <use xlink:href="#rim" fill="#404040">
                        <set attributeName="fill" to="#808080" begin="arrowUp.mouseover" end="arrowUp.mouseout"/>
                  </use>
                  <path fill="none" stroke="white" stroke-width="1.5" d="M0,-3.0v7 M-2.5,-0.5L0,-3.0L2.5,-0.5"/>
                </g>
                <g id="arrowRight" xlink:href="#dirArrow" transform="rotate(90) translate(36 -43)" onmousedown="handlePan(1,0)">
                  <use xlink:href="#rim" fill="#404040">
                        <set attributeName="fill" to="#808080" begin="arrowRight.mouseover" end="arrowRight.mouseout"/>
                  </use>
                  <path fill="none" stroke="white" stroke-width="1.5" d="M0,-3.0v7 M-2.5,-0.5L0,-3.0L2.5,-0.5"/>
                </g>
                <g id="arrowDown" xlink:href="#dirArrow" transform="rotate(180) translate(-30 -48)" onmousedown="handlePan(0,1)">
                  <use xlink:href="#rim" fill="#404040">
                        <set attributeName="fill" to="#808080" begin="arrowDown.mouseover" end="arrowDown.mouseout"/>
                  </use>
                  <path fill="none" stroke="white" stroke-width="1.5" d="M0,-3.0v7 M-2.5,-0.5L0,-3.0L2.5,-0.5"/>
                </g>
                <g id="arrowLeft" xlink:href="#dirArrow" transform="rotate(270) translate(-36 17)" onmousedown="handlePan(-1,0)">
                  <use xlink:href="#rim" fill="#404040">
                        <set attributeName="fill" to="#808080" begin="arrowLeft.mouseover" end="arrowLeft.mouseout"/>
                  </use>
                  <path fill="none" stroke="white" stroke-width="1.5" d="M0,-3.0v7 M-2.5,-0.5L0,-3.0L2.5,-0.5"/>
                </g>
        </g>
        <svg viewBox="0 0 15 15" width="100%" height="30px" preserveAspectRatio="xMaxYMin meet">
         <g id="arrow_out" transform="scale(0.3 0.3)">
          <a xlink:href="_utilities__test_8cpp__incl_org.svg" target="_base">
           <rect id="button" ry="5" rx="5" y="6" x="6" height="38" width="38"
                fill="#f2f5e9" fill-opacity="0.5" stroke="#606060" stroke-width="1.0"/>
           <path id="arrow"
             d="M 11.500037,31.436501 C 11.940474,20.09759 22.043105,11.32322 32.158766,21.979434 L 37.068811,17.246167 C 37.068811,17.246167 37.088388,32 37.088388,32 L 22.160133,31.978069 C 22.160133,31.978069 26.997745,27.140456 26.997745,27.140456 C 18.528582,18.264221 13.291696,25.230495 11.500037,31.436501 z"
             style="fill:#404040;"/>
          </a>
         </g>
        </svg>
</svg>
