<?xml version="1.0" encoding="UTF-8" standalone="no"?>
<!DOCTYPE svg PUBLIC "-//W3C//DTD SVG 1.1//EN"
 "http://www.w3.org/Graphics/SVG/1.1/DTD/svg11.dtd">
<!-- Generated by graphviz version 2.43.0 (0)
 -->
<!-- Title: include/Utilities.hpp Pages: 1 -->
<svg width="2008pt" height="151pt"
 viewBox="0.00 0.00 2007.50 151.00" xmlns="http://www.w3.org/2000/svg" xmlns:xlink="http://www.w3.org/1999/xlink">
<g id="graph0" class="graph" transform="scale(1 1) rotate(0) translate(4 147)">
<title>include/Utilities.hpp</title>
<polygon fill="white" stroke="transparent" points="-4,4 -4,-147 2003.5,-147 2003.5,4 -4,4"/>
<!-- Node1 -->
<g id="node1" class="node">
<title>Node1</title>
<g id="a_node1"><a xlink:title="Utility functions.">
<polygon fill="#bfbfbf" stroke="black" points="855.5,-123.5 855.5,-142.5 969.5,-142.5 969.5,-123.5 855.5,-123.5"/>
<text text-anchor="middle" x="912.5" y="-130.5" font-family="Helvetica,sans-Serif" font-size="10.00">include/Utilities.hpp</text>
</a>
</g>
</g>
<!-- Node2 -->
<g id="node2" class="node">
<title>Node2</title>
<g id="a_node2"><a xlink:title=" ">
<polygon fill="white" stroke="#bfbfbf" points="0,-62 0,-81 83,-81 83,-62 0,-62"/>
<text text-anchor="middle" x="41.5" y="-69" font-family="Helvetica,sans-Serif" font-size="10.00">CGAL/Timer.h</text>
</a>
</g>
</g>
<!-- Node1&#45;&gt;Node2 -->
<g id="edge1" class="edge">
<title>Node1&#45;&gt;Node2</title>
<path fill="none" stroke="midnightblue" d="M855.46,-130.52C694.63,-126.08 239.71,-111.65 92.5,-87 87.41,-86.15 82.1,-84.97 76.92,-83.66"/>
<polygon fill="midnightblue" stroke="midnightblue" points="77.76,-80.26 67.19,-81.01 75.92,-87.01 77.76,-80.26"/>
</g>
<!-- Node3 -->
<g id="node3" class="node">
<title>Node3</title>
<g id="a_node3"><a xlink:title=" ">
<polygon fill="white" stroke="#bfbfbf" points="101.5,-62 101.5,-81 189.5,-81 189.5,-62 101.5,-62"/>
<text text-anchor="middle" x="145.5" y="-69" font-family="Helvetica,sans-Serif" font-size="10.00">sys/utsname.h</text>
</a>
</g>
</g>
<!-- Node1&#45;&gt;Node3 -->
<g id="edge2" class="edge">
<title>Node1&#45;&gt;Node3</title>
<path fill="none" stroke="midnightblue" d="M855.13,-132.34C733.31,-132.19 440.17,-127.24 198.5,-87 193.28,-86.13 187.84,-84.96 182.51,-83.65"/>
<polygon fill="midnightblue" stroke="midnightblue" points="183.06,-80.18 172.5,-81.03 181.28,-86.95 183.06,-80.18"/>
</g>
<!-- Node4 -->
<g id="node4" class="node">
<title>Node4</title>
<g id="a_node4"><a xlink:title=" ">
<polygon fill="white" stroke="#bfbfbf" points="208,-62 208,-81 325,-81 325,-62 208,-62"/>
<text text-anchor="middle" x="266.5" y="-69" font-family="Helvetica,sans-Serif" font-size="10.00">boost/date_time.hpp</text>
</a>
</g>
</g>
<!-- Node1&#45;&gt;Node4 -->
<g id="edge3" class="edge">
<title>Node1&#45;&gt;Node4</title>
<path fill="none" stroke="midnightblue" d="M855.21,-130.05C751.07,-125.96 524.01,-114.46 334.5,-87 327.27,-85.95 319.66,-84.59 312.26,-83.12"/>
<polygon fill="midnightblue" stroke="midnightblue" points="312.84,-79.67 302.34,-81.07 311.42,-86.52 312.84,-79.67"/>
</g>
<!-- Node5 -->
<g id="node5" class="node">
<title>Node5</title>
<g id="a_node5"><a xlink:title=" ">
<polygon fill="white" stroke="#bfbfbf" points="343.5,-62 343.5,-81 407.5,-81 407.5,-62 343.5,-62"/>
<text text-anchor="middle" x="375.5" y="-69" font-family="Helvetica,sans-Serif" font-size="10.00">algorithm</text>
</a>
</g>
</g>
<!-- Node1&#45;&gt;Node5 -->
<g id="edge4" class="edge">
<title>Node1&#45;&gt;Node5</title>
<path fill="none" stroke="midnightblue" d="M855.27,-131.42C762.21,-129.45 572.77,-121.16 416.5,-87 413.08,-86.25 409.55,-85.3 406.06,-84.24"/>
<polygon fill="midnightblue" stroke="midnightblue" points="407.08,-80.89 396.49,-81.05 404.87,-87.53 407.08,-80.89"/>
</g>
<!-- Node6 -->
<g id="node6" class="node">
<title>Node6</title>
<g id="a_node6"><a xlink:title=" ">
<polygon fill="white" stroke="#bfbfbf" points="425.5,-62 425.5,-81 477.5,-81 477.5,-62 425.5,-62"/>
<text text-anchor="middle" x="451.5" y="-69" font-family="Helvetica,sans-Serif" font-size="10.00">cassert</text>
</a>
</g>
</g>
<!-- Node1&#45;&gt;Node6 -->
<g id="edge5" class="edge">
<title>Node1&#45;&gt;Node6</title>
<path fill="none" stroke="midnightblue" d="M855.43,-131.15C772.82,-128.76 615.7,-119.85 486.5,-87 483.99,-86.36 481.42,-85.58 478.88,-84.71"/>
<polygon fill="midnightblue" stroke="midnightblue" points="479.92,-81.36 469.33,-81.04 477.41,-87.89 479.92,-81.36"/>
</g>
<!-- Node7 -->
<g id="node7" class="node">
<title>Node7</title>
<g id="a_node7"><a xlink:title=" ">
<polygon fill="white" stroke="#bfbfbf" points="496,-62 496,-81 545,-81 545,-62 496,-62"/>
<text text-anchor="middle" x="520.5" y="-69" font-family="Helvetica,sans-Serif" font-size="10.00">cstdlib</text>
</a>
</g>
</g>
<!-- Node1&#45;&gt;Node7 -->
<g id="edge6" class="edge">
<title>Node1&#45;&gt;Node7</title>
<path fill="none" stroke="midnightblue" d="M855.23,-129.91C783.54,-126.15 657.49,-115.71 553.5,-87 551.34,-86.4 549.15,-85.69 546.96,-84.91"/>
<polygon fill="midnightblue" stroke="midnightblue" points="548.21,-81.64 537.62,-81.14 545.59,-88.13 548.21,-81.64"/>
</g>
<!-- Node8 -->
<g id="node8" class="node">
<title>Node8</title>
<g id="a_node8"><a xlink:title=" ">
<polygon fill="white" stroke="#bfbfbf" points="563,-62 563,-81 618,-81 618,-62 563,-62"/>
<text text-anchor="middle" x="590.5" y="-69" font-family="Helvetica,sans-Serif" font-size="10.00">fstream</text>
</a>
</g>
</g>
<!-- Node1&#45;&gt;Node8 -->
<g id="edge7" class="edge">
<title>Node1&#45;&gt;Node8</title>
<path fill="none" stroke="midnightblue" d="M855.5,-126.68C797.41,-120.4 705.09,-108.06 627.5,-87 624.91,-86.3 622.24,-85.47 619.59,-84.58"/>
<polygon fill="midnightblue" stroke="midnightblue" points="620.8,-81.29 610.2,-81.13 618.39,-87.86 620.8,-81.29"/>
</g>
<!-- Node9 -->
<g id="node9" class="node">
<title>Node9</title>
<g id="a_node9"><a xlink:title=" ">
<polygon fill="white" stroke="#bfbfbf" points="636.5,-62 636.5,-81 684.5,-81 684.5,-62 636.5,-62"/>
<text text-anchor="middle" x="660.5" y="-69" font-family="Helvetica,sans-Serif" font-size="10.00">gsl/gsl</text>
</a>
</g>
</g>
<!-- Node1&#45;&gt;Node9 -->
<g id="edge8" class="edge">
<title>Node1&#45;&gt;Node9</title>
<path fill="none" stroke="midnightblue" d="M855.39,-123.66C810.7,-116.33 747.31,-104.14 693.5,-87 691.58,-86.39 689.61,-85.7 687.65,-84.96"/>
<polygon fill="midnightblue" stroke="midnightblue" points="688.63,-81.58 678.05,-81.03 685.97,-88.06 688.63,-81.58"/>
</g>
<!-- Node10 -->
<g id="node10" class="node">
<title>Node10</title>
<g id="a_node10"><a xlink:title=" ">
<polygon fill="white" stroke="#bfbfbf" points="702.5,-62 702.5,-81 762.5,-81 762.5,-62 702.5,-62"/>
<text text-anchor="middle" x="732.5" y="-69" font-family="Helvetica,sans-Serif" font-size="10.00">iostream</text>
</a>
</g>
</g>
<!-- Node1&#45;&gt;Node10 -->
<g id="edge9" class="edge">
<title>Node1&#45;&gt;Node10</title>
<path fill="none" stroke="midnightblue" d="M884.28,-123.42C855.72,-114.64 810.36,-100.42 771.5,-87 769.25,-86.22 766.94,-85.41 764.61,-84.58"/>
<polygon fill="midnightblue" stroke="midnightblue" points="765.71,-81.25 755.12,-81.11 763.32,-87.83 765.71,-81.25"/>
</g>
<!-- Node11 -->
<g id="node11" class="node">
<title>Node11</title>
<g id="a_node11"><a xlink:title=" ">
<polygon fill="white" stroke="#bfbfbf" points="780.5,-62 780.5,-81 828.5,-81 828.5,-62 780.5,-62"/>
<text text-anchor="middle" x="804.5" y="-69" font-family="Helvetica,sans-Serif" font-size="10.00">mutex</text>
</a>
</g>
</g>
<!-- Node1&#45;&gt;Node11 -->
<g id="edge10" class="edge">
<title>Node1&#45;&gt;Node11</title>
<path fill="none" stroke="midnightblue" d="M897.03,-123.48C879.22,-113.67 849.76,-97.43 828.87,-85.92"/>
<polygon fill="midnightblue" stroke="midnightblue" points="830.39,-82.77 819.95,-81.01 827.01,-88.9 830.39,-82.77"/>
</g>
<!-- Node12 -->
<g id="node12" class="node">
<title>Node12</title>
<g id="a_node12"><a xlink:title=" ">
<polygon fill="white" stroke="#bfbfbf" points="846.5,-62 846.5,-81 900.5,-81 900.5,-62 846.5,-62"/>
<text text-anchor="middle" x="873.5" y="-69" font-family="Helvetica,sans-Serif" font-size="10.00">random</text>
</a>
</g>
</g>
<!-- Node1&#45;&gt;Node12 -->
<g id="edge11" class="edge">
<title>Node1&#45;&gt;Node12</title>
<path fill="none" stroke="midnightblue" d="M906.91,-123.48C901.12,-114.64 891.91,-100.59 884.63,-89.48"/>
<polygon fill="midnightblue" stroke="midnightblue" points="887.49,-87.45 879.08,-81.01 881.63,-91.29 887.49,-87.45"/>
</g>
<!-- Node13 -->
<g id="node13" class="node">
<title>Node13</title>
<g id="a_node13"><a xlink:title=" ">
<polygon fill="white" stroke="#bfbfbf" points="919,-62 919,-81 984,-81 984,-62 919,-62"/>
<text text-anchor="middle" x="951.5" y="-69" font-family="Helvetica,sans-Serif" font-size="10.00">stdexcept</text>
</a>
</g>
</g>
<!-- Node1&#45;&gt;Node13 -->
<g id="edge12" class="edge">
<title>Node1&#45;&gt;Node13</title>
<path fill="none" stroke="midnightblue" d="M918.09,-123.48C923.88,-114.64 933.09,-100.59 940.37,-89.48"/>
<polygon fill="midnightblue" stroke="midnightblue" points="943.37,-91.29 945.92,-81.01 937.51,-87.45 943.37,-91.29"/>
</g>
<!-- Node14 -->
<g id="node14" class="node">
<title>Node14</title>
<g id="a_node14"><a xlink:title=" ">
<polygon fill="white" stroke="#bfbfbf" points="1002.5,-62 1002.5,-81 1046.5,-81 1046.5,-62 1002.5,-62"/>
<text text-anchor="middle" x="1024.5" y="-69" font-family="Helvetica,sans-Serif" font-size="10.00">string</text>
</a>
</g>
</g>
<!-- Node1&#45;&gt;Node14 -->
<g id="edge13" class="edge">
<title>Node1&#45;&gt;Node14</title>
<path fill="none" stroke="midnightblue" d="M928.55,-123.48C947.09,-113.62 977.84,-97.29 999.52,-85.77"/>
<polygon fill="midnightblue" stroke="midnightblue" points="1001.29,-88.79 1008.48,-81.01 998.01,-82.61 1001.29,-88.79"/>
</g>
<!-- Node15 -->
<g id="node15" class="node">
<title>Node15</title>
<g id="a_node15"><a xlink:title=" ">
<polygon fill="white" stroke="#bfbfbf" points="1065,-62 1065,-81 1130,-81 1130,-62 1065,-62"/>
<text text-anchor="middle" x="1097.5" y="-69" font-family="Helvetica,sans-Serif" font-size="10.00">typeindex</text>
</a>
</g>
</g>
<!-- Node1&#45;&gt;Node15 -->
<g id="edge14" class="edge">
<title>Node1&#45;&gt;Node15</title>
<path fill="none" stroke="midnightblue" d="M940.52,-123.43C969.41,-114.54 1015.71,-100.13 1055.5,-87 1058.09,-86.15 1060.76,-85.25 1063.45,-84.34"/>
<polygon fill="midnightblue" stroke="midnightblue" points="1064.77,-87.59 1073.11,-81.05 1062.51,-80.97 1064.77,-87.59"/>
</g>
<!-- Node16 -->
<g id="node16" class="node">
<title>Node16</title>
<g id="a_node16"><a xlink:title=" ">
<polygon fill="white" stroke="#bfbfbf" points="1148.5,-62 1148.5,-81 1192.5,-81 1192.5,-62 1148.5,-62"/>
<text text-anchor="middle" x="1170.5" y="-69" font-family="Helvetica,sans-Serif" font-size="10.00">ctime</text>
</a>
</g>
</g>
<!-- Node1&#45;&gt;Node16 -->
<g id="edge15" class="edge">
<title>Node1&#45;&gt;Node16</title>
<path fill="none" stroke="midnightblue" d="M969.6,-124.33C1015.85,-117.25 1082.32,-105.06 1138.5,-87 1140.37,-86.4 1142.28,-85.72 1144.19,-84.99"/>
<polygon fill="midnightblue" stroke="midnightblue" points="1145.65,-88.17 1153.51,-81.07 1142.94,-81.72 1145.65,-88.17"/>
</g>
<!-- Node17 -->
<g id="node17" class="node">
<title>Node17</title>
<g id="a_node17"><a xlink:title=" ">
<polygon fill="white" stroke="#bfbfbf" points="1210.5,-62 1210.5,-81 1308.5,-81 1308.5,-62 1210.5,-62"/>
<text text-anchor="middle" x="1259.5" y="-69" font-family="Helvetica,sans-Serif" font-size="10.00">pcg_random.hpp</text>
</a>
</g>
</g>
<!-- Node1&#45;&gt;Node17 -->
<g id="edge16" class="edge">
<title>Node1&#45;&gt;Node17</title>
<path fill="none" stroke="midnightblue" d="M969.53,-124.67C1028.01,-116.79 1121.5,-103.19 1201.5,-87 1206.65,-85.96 1212.02,-84.76 1217.34,-83.51"/>
<polygon fill="midnightblue" stroke="midnightblue" points="1218.51,-86.83 1227.41,-81.07 1216.86,-80.03 1218.51,-86.83"/>
</g>
<!-- Node18 -->
<g id="node18" class="node">
<title>Node18</title>
<g id="a_node18"><a xlink:title=" ">
<polygon fill="white" stroke="#bfbfbf" points="1327,-62 1327,-81 1406,-81 1406,-62 1327,-62"/>
<text text-anchor="middle" x="1366.5" y="-69" font-family="Helvetica,sans-Serif" font-size="10.00">fmt/format.h</text>
</a>
</g>
</g>
<!-- Node1&#45;&gt;Node18 -->
<g id="edge17" class="edge">
<title>Node1&#45;&gt;Node18</title>
<path fill="none" stroke="midnightblue" d="M969.67,-128.85C1048.55,-123.77 1194.93,-111.74 1317.5,-87 1321.92,-86.11 1326.53,-85 1331.06,-83.79"/>
<polygon fill="midnightblue" stroke="midnightblue" points="1332.11,-87.13 1340.78,-81.04 1330.2,-80.39 1332.11,-87.13"/>
</g>
<!-- Node19 -->
<g id="node19" class="node">
<title>Node19</title>
<g id="a_node19"><a xlink:title=" ">
<polygon fill="white" stroke="#bfbfbf" points="1424.5,-62 1424.5,-81 1510.5,-81 1510.5,-62 1424.5,-62"/>
<text text-anchor="middle" x="1467.5" y="-69" font-family="Helvetica,sans-Serif" font-size="10.00">fmt/ostream.h</text>
</a>
</g>
</g>
<!-- Node1&#45;&gt;Node19 -->
<g id="edge18" class="edge">
<title>Node1&#45;&gt;Node19</title>
<path fill="none" stroke="midnightblue" d="M969.78,-130.17C1063.45,-126.45 1254.97,-115.74 1414.5,-87 1419.59,-86.08 1424.9,-84.9 1430.12,-83.61"/>
<polygon fill="midnightblue" stroke="midnightblue" points="1431.15,-86.96 1439.93,-81.04 1429.37,-80.19 1431.15,-86.96"/>
</g>
<!-- Node20 -->
<g id="node20" class="node">
<title>Node20</title>
<g id="a_node20"><a xlink:title=" ">
<polygon fill="white" stroke="#bfbfbf" points="1528.5,-56.5 1528.5,-86.5 1634.5,-86.5 1634.5,-56.5 1528.5,-56.5"/>
<text text-anchor="start" x="1536.5" y="-74.5" font-family="Helvetica,sans-Serif" font-size="10.00">spdlog/sinks/basic</text>
<text text-anchor="middle" x="1581.5" y="-63.5" font-family="Helvetica,sans-Serif" font-size="10.00">_file_sink.h</text>
</a>
</g>
</g>
<!-- Node1&#45;&gt;Node20 -->
<g id="edge19" class="edge">
<title>Node1&#45;&gt;Node20</title>
<path fill="none" stroke="midnightblue" d="M969.74,-130.72C1076.04,-127.71 1311.21,-118.01 1518.03,-87.07"/>
<polygon fill="midnightblue" stroke="midnightblue" points="1518.81,-90.49 1528.17,-85.53 1517.76,-83.57 1518.81,-90.49"/>
</g>
<!-- Node21 -->
<g id="node21" class="node">
<title>Node21</title>
<g id="a_node21"><a xlink:title=" ">
<polygon fill="white" stroke="#bfbfbf" points="1653,-56.5 1653,-86.5 1764,-86.5 1764,-56.5 1653,-56.5"/>
<text text-anchor="start" x="1661" y="-74.5" font-family="Helvetica,sans-Serif" font-size="10.00">spdlog/sinks/stdout</text>
<text text-anchor="middle" x="1708.5" y="-63.5" font-family="Helvetica,sans-Serif" font-size="10.00">_color_sinks.h</text>
</a>
</g>
</g>
<!-- Node1&#45;&gt;Node21 -->
<g id="edge20" class="edge">
<title>Node1&#45;&gt;Node21</title>
<path fill="none" stroke="midnightblue" d="M969.68,-131.55C1091.63,-129.91 1386.32,-122.45 1642.68,-86.94"/>
<polygon fill="midnightblue" stroke="midnightblue" points="1643.52,-90.36 1652.94,-85.5 1642.55,-83.42 1643.52,-90.36"/>
</g>
<!-- Node22 -->
<g id="node22" class="node">
<title>Node22</title>
<g id="a_node22"><a xlink:title=" ">
<polygon fill="white" stroke="#bfbfbf" points="1782,-62 1782,-81 1875,-81 1875,-62 1782,-62"/>
<text text-anchor="middle" x="1828.5" y="-69" font-family="Helvetica,sans-Serif" font-size="10.00">spdlog/spdlog.h</text>
</a>
</g>
</g>
<!-- Node1&#45;&gt;Node22 -->
<g id="edge21" class="edge">
<title>Node1&#45;&gt;Node22</title>
<path fill="none" stroke="midnightblue" d="M969.61,-130.51C1135.75,-125.94 1616.97,-110.95 1772.5,-87 1778.29,-86.11 1784.34,-84.87 1790.24,-83.49"/>
<polygon fill="midnightblue" stroke="midnightblue" points="1791.1,-86.89 1799.95,-81.07 1789.4,-80.09 1791.1,-86.89"/>
</g>
<!-- Node23 -->
<g id="node23" class="node">
<title>Node23</title>
<g id="a_node23"><a xlink:href="_settings_8hpp.html" target="_top" xlink:title="Global integer and precision settings.">
<polygon fill="white" stroke="black" points="1893,-62 1893,-81 1970,-81 1970,-62 1893,-62"/>
<text text-anchor="middle" x="1931.5" y="-69" font-family="Helvetica,sans-Serif" font-size="10.00">Settings.hpp</text>
</a>
</g>
</g>
<!-- Node1&#45;&gt;Node23 -->
<g id="edge22" class="edge">
<title>Node1&#45;&gt;Node23</title>
<path fill="none" stroke="midnightblue" d="M969.54,-131.2C1149.84,-128.4 1706.05,-117.43 1883.5,-87 1888.06,-86.22 1892.8,-85.13 1897.45,-83.91"/>
<polygon fill="midnightblue" stroke="midnightblue" points="1898.72,-87.19 1907.36,-81.06 1896.78,-80.46 1898.72,-87.19"/>
</g>
<!-- Node24 -->
<g id="node24" class="node">
<title>Node24</title>
<g id="a_node24"><a xlink:title=" ">
<polygon fill="white" stroke="#bfbfbf" points="1845.5,-0.5 1845.5,-19.5 1931.5,-19.5 1931.5,-0.5 1845.5,-0.5"/>
<text text-anchor="middle" x="1888.5" y="-7.5" font-family="Helvetica,sans-Serif" font-size="10.00">CGAL/Gmpzf.h</text>
</a>
</g>
</g>
<!-- Node23&#45;&gt;Node24 -->
<g id="edge23" class="edge">
<title>Node23&#45;&gt;Node24</title>
<path fill="none" stroke="midnightblue" d="M1925.34,-61.98C1918.89,-53.05 1908.6,-38.81 1900.53,-27.64"/>
<polygon fill="midnightblue" stroke="midnightblue" points="1903.34,-25.56 1894.65,-19.51 1897.67,-29.66 1903.34,-25.56"/>
</g>
<!-- Node25 -->
<g id="node25" class="node">
<title>Node25</title>
<g id="a_node25"><a xlink:title=" ">
<polygon fill="white" stroke="#bfbfbf" points="1949.5,-0.5 1949.5,-19.5 1999.5,-19.5 1999.5,-0.5 1949.5,-0.5"/>
<text text-anchor="middle" x="1974.5" y="-7.5" font-family="Helvetica,sans-Serif" font-size="10.00">cstdint</text>
</a>
</g>
</g>
<!-- Node23&#45;&gt;Node25 -->
<g id="edge24" class="edge">
<title>Node23&#45;&gt;Node25</title>
<path fill="none" stroke="midnightblue" d="M1937.66,-61.98C1944.11,-53.05 1954.4,-38.81 1962.47,-27.64"/>
<polygon fill="midnightblue" stroke="midnightblue" points="1965.33,-29.66 1968.35,-19.51 1959.66,-25.56 1965.33,-29.66"/>
</g>
</g>
</svg>
