<?xml version="1.0" encoding="UTF-8" standalone="no"?>
<!DOCTYPE svg PUBLIC "-//W3C//DTD SVG 1.1//EN"
 "http://www.w3.org/Graphics/SVG/1.1/DTD/svg11.dtd">
<!-- Generated by graphviz version 2.43.0 (0)
 -->
<!-- Title: include/Utilities.hpp Pages: 1 -->
<!--zoomable 148 -->
<svg id="main" version="1.1" xmlns="http://www.w3.org/2000/svg" xmlns:xlink="http://www.w3.org/1999/xlink" xml:space="preserve" onload="init(evt)">
<style type="text/css"><![CDATA[
.edge:hover path { stroke: red; }
.edge:hover polygon { stroke: red; fill: red; }
]]></style>
<script type="text/javascript"><![CDATA[
var edges = document.getElementsByTagName('g');
if (edges && edges.length) {
  for (var i=0;i<edges.length;i++) {
    if (edges[i].id.substr(0,4)=='edge') {
      edges[i].setAttribute('class','edge');
    }
  }
}
]]></script>
        <defs>
                <circle id="rim" cx="0" cy="0" r="7"/>
                <circle id="rim2" cx="0" cy="0" r="3.5"/>
                <g id="zoomPlus">
                        <use xlink:href="#rim" fill="#404040">
                                <set attributeName="fill" to="#808080" begin="zoomplus.mouseover" end="zoomplus.mouseout"/>
                        </use>
                        <path d="M-4,0h8M0,-4v8" fill="none" stroke="white" stroke-width="1.5" pointer-events="none"/>
                </g>
                <g id="zoomMin">
                        <use xlink:href="#rim" fill="#404040">
                                <set attributeName="fill" to="#808080" begin="zoomminus.mouseover" end="zoomminus.mouseout"/>
                        </use>
                        <path d="M-4,0h8" fill="none" stroke="white" stroke-width="1.5" pointer-events="none"/>
                </g>
                <g id="dirArrow">
                        <path fill="none" stroke="white" stroke-width="1.5" d="M0,-3.0v7 M-2.5,-0.5L0,-3.0L2.5,-0.5"/>
                </g>
               <g id="resetDef">
                       <use xlink:href="#rim2" fill="#404040">
                               <set attributeName="fill" to="#808080" begin="reset.mouseover" end="reset.mouseout"/>
                       </use>
               </g>
        </defs>

<script type="text/javascript">
var viewWidth = 1358;
var viewHeight = 148;
var sectionId = 'dynsection-0';
</script>
<script xlink:href="svgpan.js"/>
<svg id="graph" class="graph">
<g id="viewport">
<title>include/Utilities.hpp</title>
<!-- Node1 -->
<g id="node1" class="node">
<title>Node1</title>
<g id="a_node1"><a xlink:title="Utility functions.">
<polygon fill="#999999" stroke="#666666" points="585,-140 471,-140 471,-121 585,-121 585,-140"/>
<text text-anchor="middle" x="528" y="-128" font-family="Helvetica,sans-Serif" font-size="10.00">include/Utilities.hpp</text>
</a>
</g>
</g>
<!-- Node2 -->
<g id="node2" class="node">
<title>Node2</title>
<g id="a_node2"><a xlink:title=" ">
<polygon fill="#e0e0e0" stroke="#999999" points="68,-79.5 0,-79.5 0,-60.5 68,-60.5 68,-79.5"/>
<text text-anchor="middle" x="34" y="-67.5" font-family="Helvetica,sans-Serif" font-size="10.00">filesystem</text>
</a>
</g>
</g>
<!-- Node1&#45;&gt;Node2 -->
<g id="edge1" class="edge">
<title>Node1&#45;&gt;Node2</title>
<path fill="none" stroke="#63b8ff" d="M470.8,-127.81C384.58,-124.39 216.57,-114.25 77,-85 73.77,-84.32 70.45,-83.49 67.14,-82.58"/>
<polygon fill="#63b8ff" stroke="#63b8ff" points="67.99,-79.18 57.41,-79.64 65.97,-85.88 67.99,-79.18"/>
</g>
<!-- Node3 -->
<g id="node3" class="node">
<title>Node3</title>
<g id="a_node3"><a xlink:title=" ">
<polygon fill="#e0e0e0" stroke="#999999" points="141.5,-79.5 86.5,-79.5 86.5,-60.5 141.5,-60.5 141.5,-79.5"/>
<text text-anchor="middle" x="114" y="-67.5" font-family="Helvetica,sans-Serif" font-size="10.00">fstream</text>
</a>
</g>
</g>
<!-- Node1&#45;&gt;Node3 -->
<g id="edge2" class="edge">
<title>Node1&#45;&gt;Node3</title>
<path fill="none" stroke="#63b8ff" d="M470.71,-127.09C396.14,-122.96 262.24,-112.18 151,-85 148.55,-84.4 146.04,-83.69 143.54,-82.9"/>
<polygon fill="#63b8ff" stroke="#63b8ff" points="144.67,-79.59 134.07,-79.61 142.37,-86.2 144.67,-79.59"/>
</g>
<!-- Node4 -->
<g id="node4" class="node">
<title>Node4</title>
<g id="a_node4"><a xlink:title=" ">
<polygon fill="#e0e0e0" stroke="#999999" points="208,-79.5 160,-79.5 160,-60.5 208,-60.5 208,-79.5"/>
<text text-anchor="middle" x="184" y="-67.5" font-family="Helvetica,sans-Serif" font-size="10.00">gsl/gsl</text>
</a>
</g>
</g>
<!-- Node1&#45;&gt;Node4 -->
<g id="edge3" class="edge">
<title>Node1&#45;&gt;Node4</title>
<path fill="none" stroke="#63b8ff" d="M470.91,-125.78C407.83,-120.66 303.7,-109.15 217,-85 215.11,-84.47 213.19,-83.87 211.27,-83.2"/>
<polygon fill="#63b8ff" stroke="#63b8ff" points="212.44,-79.9 201.85,-79.57 209.92,-86.43 212.44,-79.9"/>
</g>
<!-- Node5 -->
<g id="node5" class="node">
<title>Node5</title>
<g id="a_node5"><a xlink:title=" ">
<polygon fill="#e0e0e0" stroke="#999999" points="274,-79.5 226,-79.5 226,-60.5 274,-60.5 274,-79.5"/>
<text text-anchor="middle" x="250" y="-67.5" font-family="Helvetica,sans-Serif" font-size="10.00">mutex</text>
</a>
</g>
</g>
<!-- Node1&#45;&gt;Node5 -->
<g id="edge4" class="edge">
<title>Node1&#45;&gt;Node5</title>
<path fill="none" stroke="#63b8ff" d="M470.72,-122.75C420.53,-115.98 345.96,-103.82 283,-85 281.32,-84.5 279.61,-83.94 277.89,-83.33"/>
<polygon fill="#63b8ff" stroke="#63b8ff" points="278.82,-79.94 268.24,-79.59 276.29,-86.47 278.82,-79.94"/>
</g>
<!-- Node6 -->
<g id="node6" class="node">
<title>Node6</title>
<g id="a_node6"><a xlink:title=" ">
<polygon fill="#e0e0e0" stroke="#999999" points="346,-79.5 292,-79.5 292,-60.5 346,-60.5 346,-79.5"/>
<text text-anchor="middle" x="319" y="-67.5" font-family="Helvetica,sans-Serif" font-size="10.00">random</text>
</a>
</g>
</g>
<!-- Node1&#45;&gt;Node6 -->
<g id="edge5" class="edge">
<title>Node1&#45;&gt;Node6</title>
<path fill="none" stroke="#63b8ff" d="M489.49,-120.98C454.18,-112.85 400.61,-99.68 355,-85 353.13,-84.4 351.22,-83.75 349.3,-83.08"/>
<polygon fill="#63b8ff" stroke="#63b8ff" points="350.38,-79.75 339.79,-79.57 347.96,-86.31 350.38,-79.75"/>
</g>
<!-- Node7 -->
<g id="node7" class="node">
<title>Node7</title>
<g id="a_node7"><a xlink:title=" ">
<polygon fill="#e0e0e0" stroke="#999999" points="404,-79.5 364,-79.5 364,-60.5 404,-60.5 404,-79.5"/>
<text text-anchor="middle" x="384" y="-67.5" font-family="Helvetica,sans-Serif" font-size="10.00">span</text>
</a>
</g>
</g>
<!-- Node1&#45;&gt;Node7 -->
<g id="edge6" class="edge">
<title>Node1&#45;&gt;Node7</title>
<path fill="none" stroke="#63b8ff" d="M503.99,-120.85C480.56,-112.26 444.03,-98.47 413,-85 412.15,-84.63 411.28,-84.25 410.41,-83.86"/>
<polygon fill="#63b8ff" stroke="#63b8ff" points="411.61,-80.56 401.07,-79.52 408.67,-86.91 411.61,-80.56"/>
</g>
<!-- Node8 -->
<g id="node8" class="node">
<title>Node8</title>
<g id="a_node8"><a xlink:title=" ">
<polygon fill="#e0e0e0" stroke="#999999" points="487.5,-79.5 422.5,-79.5 422.5,-60.5 487.5,-60.5 487.5,-79.5"/>
<text text-anchor="middle" x="455" y="-67.5" font-family="Helvetica,sans-Serif" font-size="10.00">stdexcept</text>
</a>
</g>
</g>
<!-- Node1&#45;&gt;Node8 -->
<g id="edge7" class="edge">
<title>Node1&#45;&gt;Node8</title>
<path fill="none" stroke="#63b8ff" d="M517.23,-120.87C505.8,-111.71 487.52,-97.06 473.72,-86.01"/>
<polygon fill="#63b8ff" stroke="#63b8ff" points="475.81,-83.19 465.82,-79.67 471.43,-88.65 475.81,-83.19"/>
</g>
<!-- Node9 -->
<g id="node9" class="node">
<title>Node9</title>
<g id="a_node9"><a xlink:title=" ">
<polygon fill="#e0e0e0" stroke="#999999" points="550,-79.5 506,-79.5 506,-60.5 550,-60.5 550,-79.5"/>
<text text-anchor="middle" x="528" y="-67.5" font-family="Helvetica,sans-Serif" font-size="10.00">string</text>
</a>
</g>
</g>
<!-- Node1&#45;&gt;Node9 -->
<g id="edge8" class="edge">
<title>Node1&#45;&gt;Node9</title>
<path fill="none" stroke="#63b8ff" d="M528,-120.87C528,-112.75 528,-100.31 528,-89.89"/>
<polygon fill="#63b8ff" stroke="#63b8ff" points="531.5,-89.67 528,-79.67 524.5,-89.67 531.5,-89.67"/>
</g>
<!-- Node10 -->
<g id="node10" class="node">
<title>Node10</title>
<g id="a_node10"><a xlink:title=" ">
<polygon fill="#e0e0e0" stroke="#999999" points="627.5,-79.5 568.5,-79.5 568.5,-60.5 627.5,-60.5 627.5,-79.5"/>
<text text-anchor="middle" x="598" y="-67.5" font-family="Helvetica,sans-Serif" font-size="10.00">date/tz.h</text>
</a>
</g>
</g>
<!-- Node1&#45;&gt;Node10 -->
<g id="edge9" class="edge">
<title>Node1&#45;&gt;Node10</title>
<path fill="none" stroke="#63b8ff" d="M538.33,-120.87C549.19,-111.8 566.49,-97.34 579.67,-86.32"/>
<polygon fill="#63b8ff" stroke="#63b8ff" points="582.2,-88.77 587.63,-79.67 577.71,-83.39 582.2,-88.77"/>
</g>
<!-- Node11 -->
<g id="node11" class="node">
<title>Node11</title>
<g id="a_node11"><a xlink:title=" ">
<polygon fill="#e0e0e0" stroke="#999999" points="744,-79.5 646,-79.5 646,-60.5 744,-60.5 744,-79.5"/>
<text text-anchor="middle" x="695" y="-67.5" font-family="Helvetica,sans-Serif" font-size="10.00">pcg_random.hpp</text>
</a>
</g>
</g>
<!-- Node1&#45;&gt;Node11 -->
<g id="edge10" class="edge">
<title>Node1&#45;&gt;Node11</title>
<path fill="none" stroke="#63b8ff" d="M552.28,-120.99C580.98,-110.94 628.89,-94.16 661.2,-82.84"/>
<polygon fill="#63b8ff" stroke="#63b8ff" points="662.41,-86.13 670.69,-79.52 660.09,-79.52 662.41,-86.13"/>
</g>
<!-- Node12 -->
<g id="node12" class="node">
<title>Node12</title>
<g id="a_node12"><a xlink:title=" ">
<polygon fill="#e0e0e0" stroke="#999999" points="848,-79.5 762,-79.5 762,-60.5 848,-60.5 848,-79.5"/>
<text text-anchor="middle" x="805" y="-67.5" font-family="Helvetica,sans-Serif" font-size="10.00">fmt/ostream.h</text>
</a>
</g>
</g>
<!-- Node1&#45;&gt;Node12 -->
<g id="edge11" class="edge">
<title>Node1&#45;&gt;Node12</title>
<path fill="none" stroke="#63b8ff" d="M576.04,-120.97C621.74,-112.63 692.31,-99.15 753,-85 756.83,-84.11 760.81,-83.13 764.79,-82.12"/>
<polygon fill="#63b8ff" stroke="#63b8ff" points="765.77,-85.48 774.57,-79.56 764.01,-78.7 765.77,-85.48"/>
</g>
<!-- Node13 -->
<g id="node13" class="node">
<title>Node13</title>
<g id="a_node13"><a xlink:title=" ">
<polygon fill="#e0e0e0" stroke="#999999" points="972,-85 866,-85 866,-55 972,-55 972,-85"/>
<text text-anchor="start" x="874" y="-73" font-family="Helvetica,sans-Serif" font-size="10.00">spdlog/sinks/basic</text>
<text text-anchor="middle" x="919" y="-62" font-family="Helvetica,sans-Serif" font-size="10.00">_file_sink.h</text>
</a>
</g>
</g>
<!-- Node1&#45;&gt;Node13 -->
<g id="edge12" class="edge">
<title>Node1&#45;&gt;Node13</title>
<path fill="none" stroke="#63b8ff" d="M585,-123.33C648.67,-116.09 755,-102.97 855.9,-85.1"/>
<polygon fill="#63b8ff" stroke="#63b8ff" points="856.74,-88.51 865.96,-83.3 855.5,-81.61 856.74,-88.51"/>
</g>
<!-- Node14 -->
<g id="node14" class="node">
<title>Node14</title>
<g id="a_node14"><a xlink:title=" ">
<polygon fill="#e0e0e0" stroke="#999999" points="1101.5,-85 990.5,-85 990.5,-55 1101.5,-55 1101.5,-85"/>
<text text-anchor="start" x="998.5" y="-73" font-family="Helvetica,sans-Serif" font-size="10.00">spdlog/sinks/stdout</text>
<text text-anchor="middle" x="1046" y="-62" font-family="Helvetica,sans-Serif" font-size="10.00">_color_sinks.h</text>
</a>
</g>
</g>
<!-- Node1&#45;&gt;Node14 -->
<g id="edge13" class="edge">
<title>Node1&#45;&gt;Node14</title>
<path fill="none" stroke="#63b8ff" d="M585.12,-125.99C669.35,-120.35 831.97,-107.7 980.21,-84.99"/>
<polygon fill="#63b8ff" stroke="#63b8ff" points="981.06,-88.4 990.41,-83.41 979.99,-81.48 981.06,-88.4"/>
</g>
<!-- Node15 -->
<g id="node15" class="node">
<title>Node15</title>
<g id="a_node15"><a xlink:title=" ">
<polygon fill="#e0e0e0" stroke="#999999" points="1212.5,-79.5 1119.5,-79.5 1119.5,-60.5 1212.5,-60.5 1212.5,-79.5"/>
<text text-anchor="middle" x="1166" y="-67.5" font-family="Helvetica,sans-Serif" font-size="10.00">spdlog/spdlog.h</text>
</a>
</g>
</g>
<!-- Node1&#45;&gt;Node15 -->
<g id="edge14" class="edge">
<title>Node1&#45;&gt;Node15</title>
<path fill="none" stroke="#63b8ff" d="M585.38,-128.32C690.21,-125.44 919.44,-115.88 1110,-85 1115.12,-84.17 1120.47,-83.1 1125.73,-81.93"/>
<polygon fill="#63b8ff" stroke="#63b8ff" points="1126.75,-85.28 1135.68,-79.57 1125.14,-78.47 1126.75,-85.28"/>
</g>
<!-- Node16 -->
<g id="node16" class="node">
<title>Node16</title>
<g id="a_node16"><a xlink:href="_settings_8hpp.html" target="_top" xlink:title="Global integer and precision settings.">
<polygon fill="white" stroke="#666666" points="1307.5,-79.5 1230.5,-79.5 1230.5,-60.5 1307.5,-60.5 1307.5,-79.5"/>
<text text-anchor="middle" x="1269" y="-67.5" font-family="Helvetica,sans-Serif" font-size="10.00">Settings.hpp</text>
</a>
</g>
</g>
<!-- Node1&#45;&gt;Node16 -->
<g id="edge15" class="edge">
<title>Node1&#45;&gt;Node16</title>
<path fill="none" stroke="#63b8ff" d="M585.19,-130.17C704.55,-130.61 988.46,-126.72 1222,-85 1225.94,-84.3 1230.02,-83.38 1234.06,-82.35"/>
<polygon fill="#63b8ff" stroke="#63b8ff" points="1235.19,-85.67 1243.88,-79.62 1233.31,-78.92 1235.19,-85.67"/>
</g>
<!-- Node17 -->
<g id="node17" class="node">
<title>Node17</title>
<g id="a_node17"><a xlink:title=" ">
<polygon fill="#e0e0e0" stroke="#999999" points="1282,-19 1142,-19 1142,0 1282,0 1282,-19"/>
<text text-anchor="middle" x="1212" y="-7" font-family="Helvetica,sans-Serif" font-size="10.00">CGAL/GMP/Gmpzf_type.h</text>
</a>
</g>
</g>
<!-- Node16&#45;&gt;Node17 -->
<g id="edge16" class="edge">
<title>Node16&#45;&gt;Node17</title>
<path fill="none" stroke="#63b8ff" d="M1260.59,-60.37C1251.92,-51.47 1238.2,-37.39 1227.54,-26.45"/>
<polygon fill="#63b8ff" stroke="#63b8ff" points="1229.93,-23.89 1220.45,-19.17 1224.92,-28.77 1229.93,-23.89"/>
</g>
<!-- Node18 -->
<g id="node18" class="node">
<title>Node18</title>
<g id="a_node18"><a xlink:title=" ">
<polygon fill="#e0e0e0" stroke="#999999" points="1350,-19 1300,-19 1300,0 1350,0 1350,-19"/>
<text text-anchor="middle" x="1325" y="-7" font-family="Helvetica,sans-Serif" font-size="10.00">cstdint</text>
</a>
</g>
</g>
<!-- Node16&#45;&gt;Node18 -->
<g id="edge17" class="edge">
<title>Node16&#45;&gt;Node18</title>
<path fill="none" stroke="#63b8ff" d="M1277.26,-60.37C1285.78,-51.47 1299.26,-37.39 1309.73,-26.45"/>
<polygon fill="#63b8ff" stroke="#63b8ff" points="1312.32,-28.81 1316.7,-19.17 1307.26,-23.97 1312.32,-28.81"/>
</g>
</g>
</svg>
        <g id="navigator" transform="translate(0 0)" fill="#404254">
                <rect fill="#f2f5e9" fill-opacity="0.5" stroke="#606060" stroke-width=".5" x="0" y="0" width="60" height="60"/>
                <use id="zoomplus" xlink:href="#zoomPlus" x="17" y="9" onmousedown="handleZoom(evt,'in')"/>
                <use id="zoomminus" xlink:href="#zoomMin" x="42" y="9" onmousedown="handleZoom(evt,'out')"/>
                <use id="reset" xlink:href="#resetDef" x="30" y="36" onmousedown="handleReset()"/>
                <g id="arrowUp" xlink:href="#dirArrow" transform="translate(30 24)" onmousedown="handlePan(0,-1)">
                  <use xlink:href="#rim" fill="#404040">
                        <set attributeName="fill" to="#808080" begin="arrowUp.mouseover" end="arrowUp.mouseout"/>
                  </use>
                  <path fill="none" stroke="white" stroke-width="1.5" d="M0,-3.0v7 M-2.5,-0.5L0,-3.0L2.5,-0.5"/>
                </g>
                <g id="arrowRight" xlink:href="#dirArrow" transform="rotate(90) translate(36 -43)" onmousedown="handlePan(1,0)">
                  <use xlink:href="#rim" fill="#404040">
                        <set attributeName="fill" to="#808080" begin="arrowRight.mouseover" end="arrowRight.mouseout"/>
                  </use>
                  <path fill="none" stroke="white" stroke-width="1.5" d="M0,-3.0v7 M-2.5,-0.5L0,-3.0L2.5,-0.5"/>
                </g>
                <g id="arrowDown" xlink:href="#dirArrow" transform="rotate(180) translate(-30 -48)" onmousedown="handlePan(0,1)">
                  <use xlink:href="#rim" fill="#404040">
                        <set attributeName="fill" to="#808080" begin="arrowDown.mouseover" end="arrowDown.mouseout"/>
                  </use>
                  <path fill="none" stroke="white" stroke-width="1.5" d="M0,-3.0v7 M-2.5,-0.5L0,-3.0L2.5,-0.5"/>
                </g>
                <g id="arrowLeft" xlink:href="#dirArrow" transform="rotate(270) translate(-36 17)" onmousedown="handlePan(-1,0)">
                  <use xlink:href="#rim" fill="#404040">
                        <set attributeName="fill" to="#808080" begin="arrowLeft.mouseover" end="arrowLeft.mouseout"/>
                  </use>
                  <path fill="none" stroke="white" stroke-width="1.5" d="M0,-3.0v7 M-2.5,-0.5L0,-3.0L2.5,-0.5"/>
                </g>
        </g>
        <svg viewBox="0 0 15 15" width="100%" height="30px" preserveAspectRatio="xMaxYMin meet">
         <g id="arrow_out" transform="scale(0.3 0.3)">
          <a xlink:href="_utilities_8hpp__incl_org.svg" target="_base">
           <rect id="button" ry="5" rx="5" y="6" x="6" height="38" width="38"
                fill="#f2f5e9" fill-opacity="0.5" stroke="#606060" stroke-width="1.0"/>
           <path id="arrow"
             d="M 11.500037,31.436501 C 11.940474,20.09759 22.043105,11.32322 32.158766,21.979434 L 37.068811,17.246167 C 37.068811,17.246167 37.088388,32 37.088388,32 L 22.160133,31.978069 C 22.160133,31.978069 26.997745,27.140456 26.997745,27.140456 C 18.528582,18.264221 13.291696,25.230495 11.500037,31.436501 z"
             style="fill:#404040;"/>
          </a>
         </g>
        </svg>
</svg>
