<?xml version="1.0" encoding="UTF-8" standalone="no"?>
<!DOCTYPE svg PUBLIC "-//W3C//DTD SVG 1.1//EN"
 "http://www.w3.org/Graphics/SVG/1.1/DTD/svg11.dtd">
<!-- Generated by graphviz version 2.43.0 (0)
 -->
<!-- Title: include/Utilities.hpp Pages: 1 -->
<!--zoomable 151 -->
<svg id="main" version="1.1" xmlns="http://www.w3.org/2000/svg" xmlns:xlink="http://www.w3.org/1999/xlink" xml:space="preserve" onload="init(evt)">
<style type="text/css"><![CDATA[
.edge:hover path { stroke: red; }
.edge:hover polygon { stroke: red; fill: red; }
]]></style>
<script type="text/javascript"><![CDATA[
var edges = document.getElementsByTagName('g');
if (edges && edges.length) {
  for (var i=0;i<edges.length;i++) {
    if (edges[i].id.substr(0,4)=='edge') {
      edges[i].setAttribute('class','edge');
    }
  }
}
]]></script>
        <defs>
                <circle id="rim" cx="0" cy="0" r="7"/>
                <circle id="rim2" cx="0" cy="0" r="3.5"/>
                <g id="zoomPlus">
                        <use xlink:href="#rim" fill="#404040">
                                <set attributeName="fill" to="#808080" begin="zoomplus.mouseover" end="zoomplus.mouseout"/>
                        </use>
                        <path d="M-4,0h8M0,-4v8" fill="none" stroke="white" stroke-width="1.5" pointer-events="none"/>
                </g>
                <g id="zoomMin">
                        <use xlink:href="#rim" fill="#404040">
                                <set attributeName="fill" to="#808080" begin="zoomminus.mouseover" end="zoomminus.mouseout"/>
                        </use>
                        <path d="M-4,0h8" fill="none" stroke="white" stroke-width="1.5" pointer-events="none"/>
                </g>
                <g id="dirArrow">
                        <path fill="none" stroke="white" stroke-width="1.5" d="M0,-3.0v7 M-2.5,-0.5L0,-3.0L2.5,-0.5"/>
                </g>
               <g id="resetDef">
                       <use xlink:href="#rim2" fill="#404040">
                               <set attributeName="fill" to="#808080" begin="reset.mouseover" end="reset.mouseout"/>
                       </use>
               </g>
        </defs>

<script type="text/javascript">
var viewWidth = 1841;
var viewHeight = 151;
var sectionId = 'dynsection-0';
</script>
<script xlink:href="svgpan.js"/>
<svg id="graph" class="graph">
<g id="viewport">
<title>include/Utilities.hpp</title>
<polygon fill="white" stroke="transparent" points="-4,4 -4,-147 1836.5,-147 1836.5,4 -4,4"/>
<!-- Node1 -->
<g id="node1" class="node">
<title>Node1</title>
<g id="a_node1"><a xlink:title="Utility functions.">
<polygon fill="#bfbfbf" stroke="black" points="726.5,-123.5 726.5,-142.5 840.5,-142.5 840.5,-123.5 726.5,-123.5"/>
<text text-anchor="middle" x="783.5" y="-130.5" font-family="Helvetica,sans-Serif" font-size="10.00">include/Utilities.hpp</text>
</a>
</g>
</g>
<!-- Node2 -->
<g id="node2" class="node">
<title>Node2</title>
<g id="a_node2"><a xlink:title=" ">
<polygon fill="white" stroke="#bfbfbf" points="0,-62 0,-81 83,-81 83,-62 0,-62"/>
<text text-anchor="middle" x="41.5" y="-69" font-family="Helvetica,sans-Serif" font-size="10.00">CGAL/Timer.h</text>
</a>
</g>
</g>
<!-- Node1&#45;&gt;Node2 -->
<g id="edge1" class="edge">
<title>Node1&#45;&gt;Node2</title>
<path fill="none" stroke="midnightblue" d="M726.14,-132.35C607.11,-132.19 324.99,-127.15 92.5,-87 87.6,-86.15 82.49,-85.02 77.49,-83.75"/>
<polygon fill="midnightblue" stroke="midnightblue" points="78.03,-80.27 67.46,-81.03 76.19,-87.03 78.03,-80.27"/>
</g>
<!-- Node3 -->
<g id="node3" class="node">
<title>Node3</title>
<g id="a_node3"><a xlink:title=" ">
<polygon fill="white" stroke="#bfbfbf" points="101.5,-62 101.5,-81 165.5,-81 165.5,-62 101.5,-62"/>
<text text-anchor="middle" x="133.5" y="-69" font-family="Helvetica,sans-Serif" font-size="10.00">algorithm</text>
</a>
</g>
</g>
<!-- Node1&#45;&gt;Node3 -->
<g id="edge2" class="edge">
<title>Node1&#45;&gt;Node3</title>
<path fill="none" stroke="midnightblue" d="M726.12,-132.81C617.3,-133.23 373.97,-128.86 174.5,-87 171.07,-86.28 167.54,-85.35 164.05,-84.3"/>
<polygon fill="midnightblue" stroke="midnightblue" points="165.07,-80.95 154.47,-81.12 162.86,-87.59 165.07,-80.95"/>
</g>
<!-- Node4 -->
<g id="node4" class="node">
<title>Node4</title>
<g id="a_node4"><a xlink:title=" ">
<polygon fill="white" stroke="#bfbfbf" points="183.5,-62 183.5,-81 235.5,-81 235.5,-62 183.5,-62"/>
<text text-anchor="middle" x="209.5" y="-69" font-family="Helvetica,sans-Serif" font-size="10.00">cassert</text>
</a>
</g>
</g>
<!-- Node1&#45;&gt;Node4 -->
<g id="edge3" class="edge">
<title>Node1&#45;&gt;Node4</title>
<path fill="none" stroke="midnightblue" d="M726.32,-132.97C626.89,-133.39 416.29,-128.68 244.5,-87 241.98,-86.39 239.41,-85.62 236.86,-84.76"/>
<polygon fill="midnightblue" stroke="midnightblue" points="237.9,-81.41 227.31,-81.12 235.41,-87.95 237.9,-81.41"/>
</g>
<!-- Node5 -->
<g id="node5" class="node">
<title>Node5</title>
<g id="a_node5"><a xlink:title=" ">
<polygon fill="white" stroke="#bfbfbf" points="254,-62 254,-81 303,-81 303,-62 254,-62"/>
<text text-anchor="middle" x="278.5" y="-69" font-family="Helvetica,sans-Serif" font-size="10.00">cstdlib</text>
</a>
</g>
</g>
<!-- Node1&#45;&gt;Node5 -->
<g id="edge4" class="edge">
<title>Node1&#45;&gt;Node5</title>
<path fill="none" stroke="midnightblue" d="M726.35,-132.16C636.75,-131.16 458.38,-124.12 312.5,-87 310.14,-86.4 307.73,-85.66 305.34,-84.83"/>
<polygon fill="midnightblue" stroke="midnightblue" points="306.38,-81.48 295.79,-81.09 303.82,-87.99 306.38,-81.48"/>
</g>
<!-- Node6 -->
<g id="node6" class="node">
<title>Node6</title>
<g id="a_node6"><a xlink:title=" ">
<polygon fill="white" stroke="#bfbfbf" points="321.5,-62 321.5,-81 389.5,-81 389.5,-62 321.5,-62"/>
<text text-anchor="middle" x="355.5" y="-69" font-family="Helvetica,sans-Serif" font-size="10.00">filesystem</text>
</a>
</g>
</g>
<!-- Node1&#45;&gt;Node6 -->
<g id="edge5" class="edge">
<title>Node1&#45;&gt;Node6</title>
<path fill="none" stroke="midnightblue" d="M726.45,-129.06C650.73,-124.32 513.24,-112.75 398.5,-87 395.01,-86.22 391.41,-85.26 387.84,-84.2"/>
<polygon fill="midnightblue" stroke="midnightblue" points="388.6,-80.77 378.01,-81.08 386.48,-87.44 388.6,-80.77"/>
</g>
<!-- Node7 -->
<g id="node7" class="node">
<title>Node7</title>
<g id="a_node7"><a xlink:title=" ">
<polygon fill="white" stroke="#bfbfbf" points="408,-62 408,-81 463,-81 463,-62 408,-62"/>
<text text-anchor="middle" x="435.5" y="-69" font-family="Helvetica,sans-Serif" font-size="10.00">fstream</text>
</a>
</g>
</g>
<!-- Node1&#45;&gt;Node7 -->
<g id="edge6" class="edge">
<title>Node1&#45;&gt;Node7</title>
<path fill="none" stroke="midnightblue" d="M726.25,-127.68C663.25,-122.02 559.39,-109.98 472.5,-87 469.84,-86.3 467.11,-85.46 464.4,-84.55"/>
<polygon fill="midnightblue" stroke="midnightblue" points="465.4,-81.19 454.81,-81.03 462.99,-87.76 465.4,-81.19"/>
</g>
<!-- Node8 -->
<g id="node8" class="node">
<title>Node8</title>
<g id="a_node8"><a xlink:title=" ">
<polygon fill="white" stroke="#bfbfbf" points="481.5,-62 481.5,-81 529.5,-81 529.5,-62 481.5,-62"/>
<text text-anchor="middle" x="505.5" y="-69" font-family="Helvetica,sans-Serif" font-size="10.00">gsl/gsl</text>
</a>
</g>
</g>
<!-- Node1&#45;&gt;Node8 -->
<g id="edge7" class="edge">
<title>Node1&#45;&gt;Node8</title>
<path fill="none" stroke="midnightblue" d="M726.16,-125.3C675.93,-118.54 601.34,-106.29 538.5,-87 536.57,-86.41 534.6,-85.73 532.64,-85.01"/>
<polygon fill="midnightblue" stroke="midnightblue" points="533.61,-81.62 523.02,-81.1 530.97,-88.11 533.61,-81.62"/>
</g>
<!-- Node9 -->
<g id="node9" class="node">
<title>Node9</title>
<g id="a_node9"><a xlink:title=" ">
<polygon fill="white" stroke="#bfbfbf" points="547.5,-62 547.5,-81 607.5,-81 607.5,-62 547.5,-62"/>
<text text-anchor="middle" x="577.5" y="-69" font-family="Helvetica,sans-Serif" font-size="10.00">iostream</text>
</a>
</g>
</g>
<!-- Node1&#45;&gt;Node9 -->
<g id="edge8" class="edge">
<title>Node1&#45;&gt;Node9</title>
<path fill="none" stroke="midnightblue" d="M748.04,-123.46C714.04,-115.03 661.4,-101.36 616.5,-87 614.09,-86.23 611.61,-85.4 609.13,-84.54"/>
<polygon fill="midnightblue" stroke="midnightblue" points="610.24,-81.22 599.65,-81.14 607.88,-87.81 610.24,-81.22"/>
</g>
<!-- Node10 -->
<g id="node10" class="node">
<title>Node10</title>
<g id="a_node10"><a xlink:title=" ">
<polygon fill="white" stroke="#bfbfbf" points="625.5,-62 625.5,-81 673.5,-81 673.5,-62 625.5,-62"/>
<text text-anchor="middle" x="649.5" y="-69" font-family="Helvetica,sans-Serif" font-size="10.00">mutex</text>
</a>
</g>
</g>
<!-- Node1&#45;&gt;Node10 -->
<g id="edge9" class="edge">
<title>Node1&#45;&gt;Node10</title>
<path fill="none" stroke="midnightblue" d="M764.3,-123.48C741.71,-113.45 704,-96.7 678,-85.15"/>
<polygon fill="midnightblue" stroke="midnightblue" points="679.22,-81.87 668.66,-81.01 676.38,-88.27 679.22,-81.87"/>
</g>
<!-- Node11 -->
<g id="node11" class="node">
<title>Node11</title>
<g id="a_node11"><a xlink:title=" ">
<polygon fill="white" stroke="#bfbfbf" points="691.5,-62 691.5,-81 745.5,-81 745.5,-62 691.5,-62"/>
<text text-anchor="middle" x="718.5" y="-69" font-family="Helvetica,sans-Serif" font-size="10.00">random</text>
</a>
</g>
</g>
<!-- Node1&#45;&gt;Node11 -->
<g id="edge10" class="edge">
<title>Node1&#45;&gt;Node11</title>
<path fill="none" stroke="midnightblue" d="M774.19,-123.48C764.05,-114.2 747.64,-99.17 735.25,-87.83"/>
<polygon fill="midnightblue" stroke="midnightblue" points="737.54,-85.18 727.8,-81.01 732.81,-90.34 737.54,-85.18"/>
</g>
<!-- Node12 -->
<g id="node12" class="node">
<title>Node12</title>
<g id="a_node12"><a xlink:title=" ">
<polygon fill="white" stroke="#bfbfbf" points="763.5,-62 763.5,-81 803.5,-81 803.5,-62 763.5,-62"/>
<text text-anchor="middle" x="783.5" y="-69" font-family="Helvetica,sans-Serif" font-size="10.00">span</text>
</a>
</g>
</g>
<!-- Node1&#45;&gt;Node12 -->
<g id="edge11" class="edge">
<title>Node1&#45;&gt;Node12</title>
<path fill="none" stroke="midnightblue" d="M783.5,-123.48C783.5,-115.08 783.5,-101.98 783.5,-91.16"/>
<polygon fill="midnightblue" stroke="midnightblue" points="787,-91.01 783.5,-81.01 780,-91.01 787,-91.01"/>
</g>
<!-- Node13 -->
<g id="node13" class="node">
<title>Node13</title>
<g id="a_node13"><a xlink:title=" ">
<polygon fill="white" stroke="#bfbfbf" points="822,-62 822,-81 887,-81 887,-62 822,-62"/>
<text text-anchor="middle" x="854.5" y="-69" font-family="Helvetica,sans-Serif" font-size="10.00">stdexcept</text>
</a>
</g>
</g>
<!-- Node1&#45;&gt;Node13 -->
<g id="edge12" class="edge">
<title>Node1&#45;&gt;Node13</title>
<path fill="none" stroke="midnightblue" d="M793.67,-123.48C804.85,-114.11 823.02,-98.88 836.59,-87.51"/>
<polygon fill="midnightblue" stroke="midnightblue" points="838.93,-90.11 844.35,-81.01 834.43,-84.75 838.93,-90.11"/>
</g>
<!-- Node14 -->
<g id="node14" class="node">
<title>Node14</title>
<g id="a_node14"><a xlink:title=" ">
<polygon fill="white" stroke="#bfbfbf" points="905.5,-62 905.5,-81 949.5,-81 949.5,-62 905.5,-62"/>
<text text-anchor="middle" x="927.5" y="-69" font-family="Helvetica,sans-Serif" font-size="10.00">string</text>
</a>
</g>
</g>
<!-- Node1&#45;&gt;Node14 -->
<g id="edge13" class="edge">
<title>Node1&#45;&gt;Node14</title>
<path fill="none" stroke="midnightblue" d="M805.51,-123.48C828.17,-114.64 864.47,-100.25 895.5,-87 896.87,-86.42 898.26,-85.81 899.67,-85.2"/>
<polygon fill="midnightblue" stroke="midnightblue" points="901.23,-88.33 908.95,-81.07 898.39,-81.94 901.23,-88.33"/>
</g>
<!-- Node15 -->
<g id="node15" class="node">
<title>Node15</title>
<g id="a_node15"><a xlink:title=" ">
<polygon fill="white" stroke="#bfbfbf" points="968,-62 968,-81 1033,-81 1033,-62 968,-62"/>
<text text-anchor="middle" x="1000.5" y="-69" font-family="Helvetica,sans-Serif" font-size="10.00">typeindex</text>
</a>
</g>
</g>
<!-- Node1&#45;&gt;Node15 -->
<g id="edge14" class="edge">
<title>Node1&#45;&gt;Node15</title>
<path fill="none" stroke="midnightblue" d="M820.27,-123.46C855.85,-114.98 911.18,-101.23 958.5,-87 961.27,-86.17 964.13,-85.27 966.99,-84.34"/>
<polygon fill="midnightblue" stroke="midnightblue" points="968.25,-87.61 976.62,-81.12 966.03,-80.97 968.25,-87.61"/>
</g>
<!-- Node16 -->
<g id="node16" class="node">
<title>Node16</title>
<g id="a_node16"><a xlink:title=" ">
<polygon fill="white" stroke="#bfbfbf" points="1051,-62 1051,-81 1110,-81 1110,-62 1051,-62"/>
<text text-anchor="middle" x="1080.5" y="-69" font-family="Helvetica,sans-Serif" font-size="10.00">date/tz.h</text>
</a>
</g>
</g>
<!-- Node1&#45;&gt;Node16 -->
<g id="edge15" class="edge">
<title>Node1&#45;&gt;Node16</title>
<path fill="none" stroke="midnightblue" d="M840.52,-125.11C893.24,-118.02 973.47,-105.41 1041.5,-87 1044.31,-86.24 1047.2,-85.36 1050.08,-84.41"/>
<polygon fill="midnightblue" stroke="midnightblue" points="1051.41,-87.66 1059.68,-81.04 1049.09,-81.06 1051.41,-87.66"/>
</g>
<!-- Node17 -->
<g id="node17" class="node">
<title>Node17</title>
<g id="a_node17"><a xlink:title=" ">
<polygon fill="white" stroke="#bfbfbf" points="1128.5,-62 1128.5,-81 1226.5,-81 1226.5,-62 1128.5,-62"/>
<text text-anchor="middle" x="1177.5" y="-69" font-family="Helvetica,sans-Serif" font-size="10.00">pcg_random.hpp</text>
</a>
</g>
</g>
<!-- Node1&#45;&gt;Node17 -->
<g id="edge16" class="edge">
<title>Node1&#45;&gt;Node17</title>
<path fill="none" stroke="midnightblue" d="M840.7,-126.21C907.63,-119 1021.64,-105.35 1118.5,-87 1124.01,-85.96 1129.77,-84.72 1135.44,-83.42"/>
<polygon fill="midnightblue" stroke="midnightblue" points="1136.57,-86.75 1145.49,-81.03 1134.95,-79.94 1136.57,-86.75"/>
</g>
<!-- Node18 -->
<g id="node18" class="node">
<title>Node18</title>
<g id="a_node18"><a xlink:title=" ">
<polygon fill="white" stroke="#bfbfbf" points="1244.5,-62 1244.5,-81 1330.5,-81 1330.5,-62 1244.5,-62"/>
<text text-anchor="middle" x="1287.5" y="-69" font-family="Helvetica,sans-Serif" font-size="10.00">fmt/ostream.h</text>
</a>
</g>
</g>
<!-- Node1&#45;&gt;Node18 -->
<g id="edge17" class="edge">
<title>Node1&#45;&gt;Node18</title>
<path fill="none" stroke="midnightblue" d="M840.67,-129.48C926.89,-124.96 1095.02,-113.37 1235.5,-87 1240.31,-86.1 1245.33,-84.96 1250.26,-83.72"/>
<polygon fill="midnightblue" stroke="midnightblue" points="1251.42,-87.03 1260.18,-81.07 1249.62,-80.27 1251.42,-87.03"/>
</g>
<!-- Node19 -->
<g id="node19" class="node">
<title>Node19</title>
<g id="a_node19"><a xlink:title=" ">
<polygon fill="white" stroke="#bfbfbf" points="1348.5,-56.5 1348.5,-86.5 1454.5,-86.5 1454.5,-56.5 1348.5,-56.5"/>
<text text-anchor="start" x="1356.5" y="-74.5" font-family="Helvetica,sans-Serif" font-size="10.00">spdlog/sinks/basic</text>
<text text-anchor="middle" x="1401.5" y="-63.5" font-family="Helvetica,sans-Serif" font-size="10.00">_file_sink.h</text>
</a>
</g>
</g>
<!-- Node1&#45;&gt;Node19 -->
<g id="edge18" class="edge">
<title>Node1&#45;&gt;Node19</title>
<path fill="none" stroke="midnightblue" d="M840.66,-130.18C940.01,-126.41 1151.08,-115.69 1338.15,-87.06"/>
<polygon fill="midnightblue" stroke="midnightblue" points="1338.82,-90.5 1348.16,-85.51 1337.75,-83.58 1338.82,-90.5"/>
</g>
<!-- Node20 -->
<g id="node20" class="node">
<title>Node20</title>
<g id="a_node20"><a xlink:title=" ">
<polygon fill="white" stroke="#bfbfbf" points="1473,-56.5 1473,-86.5 1584,-86.5 1584,-56.5 1473,-56.5"/>
<text text-anchor="start" x="1481" y="-74.5" font-family="Helvetica,sans-Serif" font-size="10.00">spdlog/sinks/stdout</text>
<text text-anchor="middle" x="1528.5" y="-63.5" font-family="Helvetica,sans-Serif" font-size="10.00">_color_sinks.h</text>
</a>
</g>
</g>
<!-- Node1&#45;&gt;Node20 -->
<g id="edge19" class="edge">
<title>Node1&#45;&gt;Node20</title>
<path fill="none" stroke="midnightblue" d="M840.67,-131.17C956.35,-128.86 1226.47,-120.21 1462.77,-86.93"/>
<polygon fill="midnightblue" stroke="midnightblue" points="1463.53,-90.36 1472.93,-85.48 1462.54,-83.43 1463.53,-90.36"/>
</g>
<!-- Node21 -->
<g id="node21" class="node">
<title>Node21</title>
<g id="a_node21"><a xlink:title=" ">
<polygon fill="white" stroke="#bfbfbf" points="1602,-62 1602,-81 1695,-81 1695,-62 1602,-62"/>
<text text-anchor="middle" x="1648.5" y="-69" font-family="Helvetica,sans-Serif" font-size="10.00">spdlog/spdlog.h</text>
</a>
</g>
</g>
<!-- Node1&#45;&gt;Node21 -->
<g id="edge20" class="edge">
<title>Node1&#45;&gt;Node21</title>
<path fill="none" stroke="midnightblue" d="M840.79,-132.68C973.73,-133.43 1313.12,-130.5 1592.5,-87 1598.28,-86.1 1604.34,-84.86 1610.24,-83.48"/>
<polygon fill="midnightblue" stroke="midnightblue" points="1611.1,-86.87 1619.95,-81.05 1609.4,-80.08 1611.1,-86.87"/>
</g>
<!-- Node22 -->
<g id="node22" class="node">
<title>Node22</title>
<g id="a_node22"><a xlink:href="_settings_8hpp.html" target="_top" xlink:title="Global integer and precision settings.">
<polygon fill="white" stroke="black" points="1713,-62 1713,-81 1790,-81 1790,-62 1713,-62"/>
<text text-anchor="middle" x="1751.5" y="-69" font-family="Helvetica,sans-Serif" font-size="10.00">Settings.hpp</text>
</a>
</g>
</g>
<!-- Node1&#45;&gt;Node22 -->
<g id="edge21" class="edge">
<title>Node1&#45;&gt;Node22</title>
<path fill="none" stroke="midnightblue" d="M840.65,-131.08C1014.82,-127.97 1537.27,-116.4 1704.5,-87 1708.97,-86.21 1713.62,-85.13 1718.17,-83.9"/>
<polygon fill="midnightblue" stroke="midnightblue" points="1719.26,-87.23 1727.87,-81.05 1717.29,-80.51 1719.26,-87.23"/>
</g>
<!-- Node23 -->
<g id="node23" class="node">
<title>Node23</title>
<g id="a_node23"><a xlink:title=" ">
<polygon fill="white" stroke="#bfbfbf" points="1624.5,-0.5 1624.5,-19.5 1764.5,-19.5 1764.5,-0.5 1624.5,-0.5"/>
<text text-anchor="middle" x="1694.5" y="-7.5" font-family="Helvetica,sans-Serif" font-size="10.00">CGAL/GMP/Gmpzf_type.h</text>
</a>
</g>
</g>
<!-- Node22&#45;&gt;Node23 -->
<g id="edge22" class="edge">
<title>Node22&#45;&gt;Node23</title>
<path fill="none" stroke="midnightblue" d="M1743.33,-61.98C1734.61,-52.87 1720.6,-38.24 1709.81,-26.98"/>
<polygon fill="midnightblue" stroke="midnightblue" points="1712.1,-24.31 1702.65,-19.51 1707.04,-29.15 1712.1,-24.31"/>
</g>
<!-- Node24 -->
<g id="node24" class="node">
<title>Node24</title>
<g id="a_node24"><a xlink:title=" ">
<polygon fill="white" stroke="#bfbfbf" points="1782.5,-0.5 1782.5,-19.5 1832.5,-19.5 1832.5,-0.5 1782.5,-0.5"/>
<text text-anchor="middle" x="1807.5" y="-7.5" font-family="Helvetica,sans-Serif" font-size="10.00">cstdint</text>
</a>
</g>
</g>
<!-- Node22&#45;&gt;Node24 -->
<g id="edge23" class="edge">
<title>Node22&#45;&gt;Node24</title>
<path fill="none" stroke="midnightblue" d="M1759.52,-61.98C1768.09,-52.87 1781.86,-38.24 1792.46,-26.98"/>
<polygon fill="midnightblue" stroke="midnightblue" points="1795.19,-29.19 1799.49,-19.51 1790.09,-24.39 1795.19,-29.19"/>
</g>
</g>
</svg>
        <g id="navigator" transform="translate(0 0)" fill="#404254">
                <rect fill="#f2f5e9" fill-opacity="0.5" stroke="#606060" stroke-width=".5" x="0" y="0" width="60" height="60"/>
                <use id="zoomplus" xlink:href="#zoomPlus" x="17" y="9" onmousedown="handleZoom(evt,'in')"/>
                <use id="zoomminus" xlink:href="#zoomMin" x="42" y="9" onmousedown="handleZoom(evt,'out')"/>
                <use id="reset" xlink:href="#resetDef" x="30" y="36" onmousedown="handleReset()"/>
                <g id="arrowUp" xlink:href="#dirArrow" transform="translate(30 24)" onmousedown="handlePan(0,-1)">
                  <use xlink:href="#rim" fill="#404040">
                        <set attributeName="fill" to="#808080" begin="arrowUp.mouseover" end="arrowUp.mouseout"/>
                  </use>
                  <path fill="none" stroke="white" stroke-width="1.5" d="M0,-3.0v7 M-2.5,-0.5L0,-3.0L2.5,-0.5"/>
                </g>
                <g id="arrowRight" xlink:href="#dirArrow" transform="rotate(90) translate(36 -43)" onmousedown="handlePan(1,0)">
                  <use xlink:href="#rim" fill="#404040">
                        <set attributeName="fill" to="#808080" begin="arrowRight.mouseover" end="arrowRight.mouseout"/>
                  </use>
                  <path fill="none" stroke="white" stroke-width="1.5" d="M0,-3.0v7 M-2.5,-0.5L0,-3.0L2.5,-0.5"/>
                </g>
                <g id="arrowDown" xlink:href="#dirArrow" transform="rotate(180) translate(-30 -48)" onmousedown="handlePan(0,1)">
                  <use xlink:href="#rim" fill="#404040">
                        <set attributeName="fill" to="#808080" begin="arrowDown.mouseover" end="arrowDown.mouseout"/>
                  </use>
                  <path fill="none" stroke="white" stroke-width="1.5" d="M0,-3.0v7 M-2.5,-0.5L0,-3.0L2.5,-0.5"/>
                </g>
                <g id="arrowLeft" xlink:href="#dirArrow" transform="rotate(270) translate(-36 17)" onmousedown="handlePan(-1,0)">
                  <use xlink:href="#rim" fill="#404040">
                        <set attributeName="fill" to="#808080" begin="arrowLeft.mouseover" end="arrowLeft.mouseout"/>
                  </use>
                  <path fill="none" stroke="white" stroke-width="1.5" d="M0,-3.0v7 M-2.5,-0.5L0,-3.0L2.5,-0.5"/>
                </g>
        </g>
        <svg viewBox="0 0 15 15" width="100%" height="30px" preserveAspectRatio="xMaxYMin meet">
         <g id="arrow_out" transform="scale(0.3 0.3)">
          <a xlink:href="_utilities_8hpp__incl_org.svg" target="_base">
           <rect id="button" ry="5" rx="5" y="6" x="6" height="38" width="38"
                fill="#f2f5e9" fill-opacity="0.5" stroke="#606060" stroke-width="1.0"/>
           <path id="arrow"
             d="M 11.500037,31.436501 C 11.940474,20.09759 22.043105,11.32322 32.158766,21.979434 L 37.068811,17.246167 C 37.068811,17.246167 37.088388,32 37.088388,32 L 22.160133,31.978069 C 22.160133,31.978069 26.997745,27.140456 26.997745,27.140456 C 18.528582,18.264221 13.291696,25.230495 11.500037,31.436501 z"
             style="fill:#404040;"/>
          </a>
         </g>
        </svg>
</svg>
