<?xml version="1.0" encoding="UTF-8" standalone="no"?>
<!DOCTYPE svg PUBLIC "-//W3C//DTD SVG 1.1//EN"
 "http://www.w3.org/Graphics/SVG/1.1/DTD/svg11.dtd">
<!-- Generated by graphviz version 2.43.0 (0)
 -->
<!-- Title: include/Utilities.hpp Pages: 1 -->
<svg width="976pt" height="531pt"
 viewBox="0.00 0.00 975.50 531.00" xmlns="http://www.w3.org/2000/svg" xmlns:xlink="http://www.w3.org/1999/xlink">
<g id="graph0" class="graph" transform="scale(1 1) rotate(0) translate(4 527)">
<title>include/Utilities.hpp</title>
<polygon fill="white" stroke="transparent" points="-4,4 -4,-527 971.5,-527 971.5,4 -4,4"/>
<!-- Node1 -->
<g id="node1" class="node">
<title>Node1</title>
<g id="a_node1"><a xlink:title="Utility functions.">
<polygon fill="#bfbfbf" stroke="black" points="183,-503.5 183,-522.5 297,-522.5 297,-503.5 183,-503.5"/>
<text text-anchor="middle" x="240" y="-510.5" font-family="Helvetica,sans-Serif" font-size="10.00">include/Utilities.hpp</text>
</a>
</g>
</g>
<!-- Node2 -->
<g id="node2" class="node">
<title>Node2</title>
<g id="a_node2"><a xlink:href="_foliated__triangulation_8hpp.html" target="_top" xlink:title="Create foliated spherical triangulations.">
<polygon fill="white" stroke="black" points="259,-447.5 259,-466.5 441,-466.5 441,-447.5 259,-447.5"/>
<text text-anchor="middle" x="350" y="-454.5" font-family="Helvetica,sans-Serif" font-size="10.00">include/Foliated_triangulation.hpp</text>
</a>
</g>
</g>
<!-- Node1&#45;&gt;Node2 -->
<g id="edge1" class="edge">
<title>Node1&#45;&gt;Node2</title>
<path fill="none" stroke="midnightblue" d="M266.76,-498.86C287.16,-488.85 314.67,-475.35 332.37,-466.65"/>
<polygon fill="midnightblue" stroke="midnightblue" points="265.11,-495.78 257.67,-503.32 268.19,-502.06 265.11,-495.78"/>
</g>
<!-- Node27 -->
<g id="node27" class="node">
<title>Node27</title>
<g id="a_node27"><a xlink:href="_s3_triangulation_8hpp.html" target="_top" xlink:title="Functions on 3D Spherical Delaunay Triangulations.">
<polygon fill="white" stroke="black" points="72.5,-447.5 72.5,-466.5 223.5,-466.5 223.5,-447.5 72.5,-447.5"/>
<text text-anchor="middle" x="148" y="-454.5" font-family="Helvetica,sans-Serif" font-size="10.00">include/S3Triangulation.hpp</text>
</a>
</g>
</g>
<!-- Node1&#45;&gt;Node27 -->
<g id="edge26" class="edge">
<title>Node1&#45;&gt;Node27</title>
<path fill="none" stroke="midnightblue" d="M216.45,-498.18C199.52,-488.24 177.22,-475.15 162.74,-466.65"/>
<polygon fill="midnightblue" stroke="midnightblue" points="214.82,-501.28 225.22,-503.32 218.37,-495.24 214.82,-501.28"/>
</g>
<!-- Node3 -->
<g id="node3" class="node">
<title>Node3</title>
<g id="a_node3"><a xlink:href="_geometry_8hpp.html" target="_top" xlink:title="Geometric quantities of Manifold used by MoveAlgorithm.">
<polygon fill="white" stroke="black" points="219.5,-386 219.5,-405 342.5,-405 342.5,-386 219.5,-386"/>
<text text-anchor="middle" x="281" y="-393" font-family="Helvetica,sans-Serif" font-size="10.00">include/Geometry.hpp</text>
</a>
</g>
</g>
<!-- Node2&#45;&gt;Node3 -->
<g id="edge2" class="edge">
<title>Node2&#45;&gt;Node3</title>
<path fill="none" stroke="midnightblue" d="M332.2,-440.65C319.04,-429.31 301.62,-414.28 290.87,-405.01"/>
<polygon fill="midnightblue" stroke="midnightblue" points="330.26,-443.6 340.11,-447.48 334.83,-438.29 330.26,-443.6"/>
</g>
<!-- Node25 -->
<g id="node25" class="node">
<title>Node25</title>
<g id="a_node25"><a xlink:href="_foliated__triangulation__test_8cpp.html" target="_top" xlink:title="Tests for foliated triangulations.">
<polygon fill="white" stroke="black" points="361,-380.5 361,-410.5 511,-410.5 511,-380.5 361,-380.5"/>
<text text-anchor="start" x="369" y="-398.5" font-family="Helvetica,sans-Serif" font-size="10.00">tests/Foliated_triangulation</text>
<text text-anchor="middle" x="436" y="-387.5" font-family="Helvetica,sans-Serif" font-size="10.00">_test.cpp</text>
</a>
</g>
</g>
<!-- Node2&#45;&gt;Node25 -->
<g id="edge24" class="edge">
<title>Node2&#45;&gt;Node25</title>
<path fill="none" stroke="midnightblue" d="M370.61,-441.74C384.28,-432.28 402.13,-419.93 415.73,-410.52"/>
<polygon fill="midnightblue" stroke="midnightblue" points="368.55,-438.91 362.32,-447.48 372.54,-444.66 368.55,-438.91"/>
</g>
<!-- Node26 -->
<g id="node26" class="node">
<title>Node26</title>
<g id="a_node26"><a xlink:href="_tetrahedron__test_8cpp.html" target="_top" xlink:title="Tests for 3D triangulated and foliated tetrahedrons.">
<polygon fill="white" stroke="black" points="529,-386 529,-405 675,-405 675,-386 529,-386"/>
<text text-anchor="middle" x="602" y="-393" font-family="Helvetica,sans-Serif" font-size="10.00">tests/Tetrahedron_test.cpp</text>
</a>
</g>
</g>
<!-- Node2&#45;&gt;Node26 -->
<g id="edge25" class="edge">
<title>Node2&#45;&gt;Node26</title>
<path fill="none" stroke="midnightblue" d="M396.11,-445.11C445.02,-433.57 521.27,-415.56 565.96,-405.01"/>
<polygon fill="midnightblue" stroke="midnightblue" points="395.03,-441.77 386.11,-447.48 396.64,-448.58 395.03,-441.77"/>
</g>
<!-- Node4 -->
<g id="node4" class="node">
<title>Node4</title>
<g id="a_node4"><a xlink:href="_manifold_8hpp.html" target="_top" xlink:title="Data structures for manifolds.">
<polygon fill="white" stroke="black" points="437.5,-324.5 437.5,-343.5 556.5,-343.5 556.5,-324.5 437.5,-324.5"/>
<text text-anchor="middle" x="497" y="-331.5" font-family="Helvetica,sans-Serif" font-size="10.00">include/Manifold.hpp</text>
</a>
</g>
</g>
<!-- Node3&#45;&gt;Node4 -->
<g id="edge3" class="edge">
<title>Node3&#45;&gt;Node4</title>
<path fill="none" stroke="midnightblue" d="M321.84,-383.25C363.81,-371.69 428.2,-353.95 466.11,-343.51"/>
<polygon fill="midnightblue" stroke="midnightblue" points="320.66,-379.94 311.95,-385.98 322.52,-386.69 320.66,-379.94"/>
</g>
<!-- Node24 -->
<g id="node24" class="node">
<title>Node24</title>
<g id="a_node24"><a xlink:href="_geometry__test_8cpp.html" target="_top" xlink:title="Tests of new geometry data structure.">
<polygon fill="white" stroke="black" points="212.5,-324.5 212.5,-343.5 349.5,-343.5 349.5,-324.5 212.5,-324.5"/>
<text text-anchor="middle" x="281" y="-331.5" font-family="Helvetica,sans-Serif" font-size="10.00">tests/Geometry_test.cpp</text>
</a>
</g>
</g>
<!-- Node3&#45;&gt;Node24 -->
<g id="edge23" class="edge">
<title>Node3&#45;&gt;Node24</title>
<path fill="none" stroke="midnightblue" d="M281,-375.82C281,-365 281,-351.9 281,-343.51"/>
<polygon fill="midnightblue" stroke="midnightblue" points="277.5,-375.98 281,-385.98 284.5,-375.98 277.5,-375.98"/>
</g>
<!-- Node5 -->
<g id="node5" class="node">
<title>Node5</title>
<g id="a_node5"><a xlink:href="_ergodic__moves__3_8hpp.html" target="_top" xlink:title="Pachner moves on 2+1 dimensional foliated Delaunay triangulations.">
<polygon fill="white" stroke="black" points="574.5,-257.5 574.5,-287.5 703.5,-287.5 703.5,-257.5 574.5,-257.5"/>
<text text-anchor="start" x="582.5" y="-275.5" font-family="Helvetica,sans-Serif" font-size="10.00">include/Ergodic_moves</text>
<text text-anchor="middle" x="639" y="-264.5" font-family="Helvetica,sans-Serif" font-size="10.00">_3.hpp</text>
</a>
</g>
</g>
<!-- Node4&#45;&gt;Node5 -->
<g id="edge4" class="edge">
<title>Node4&#45;&gt;Node5</title>
<path fill="none" stroke="midnightblue" d="M526.62,-320.59C549.64,-310.94 581.59,-297.56 605.53,-287.52"/>
<polygon fill="midnightblue" stroke="midnightblue" points="525.22,-317.38 517.35,-324.48 527.92,-323.84 525.22,-317.38"/>
</g>
<!-- Node19 -->
<g id="node19" class="node">
<title>Node19</title>
<g id="a_node19"><a xlink:href="initialize_8cpp.html" target="_top" xlink:title="Generates initial spacetimes.">
<polygon fill="white" stroke="black" points="722,-263 722,-282 818,-282 818,-263 722,-263"/>
<text text-anchor="middle" x="770" y="-270" font-family="Helvetica,sans-Serif" font-size="10.00">src/initialize.cpp</text>
</a>
</g>
</g>
<!-- Node4&#45;&gt;Node19 -->
<g id="edge18" class="edge">
<title>Node4&#45;&gt;Node19</title>
<path fill="none" stroke="midnightblue" d="M550.84,-322.46C594.62,-313.73 657.95,-300.73 713,-288 720.96,-286.16 729.51,-284.05 737.51,-282.03"/>
<polygon fill="midnightblue" stroke="midnightblue" points="550.1,-319.04 540.97,-324.42 551.47,-325.91 550.1,-319.04"/>
</g>
<!-- Node20 -->
<g id="node20" class="node">
<title>Node20</title>
<g id="a_node20"><a xlink:href="_manifold__test_8cpp.html" target="_top" xlink:title="Tests of new manifold data structure.">
<polygon fill="white" stroke="black" points="836.5,-263 836.5,-282 967.5,-282 967.5,-263 836.5,-263"/>
<text text-anchor="middle" x="902" y="-270" font-family="Helvetica,sans-Serif" font-size="10.00">tests/Manifold_test.cpp</text>
</a>
</g>
</g>
<!-- Node4&#45;&gt;Node20 -->
<g id="edge19" class="edge">
<title>Node4&#45;&gt;Node20</title>
<path fill="none" stroke="midnightblue" d="M566.77,-324.63C633.68,-316.33 737.46,-302.75 827,-288 837.73,-286.23 849.28,-284.11 860.03,-282.04"/>
<polygon fill="midnightblue" stroke="midnightblue" points="566.26,-321.16 556.76,-325.86 567.12,-328.11 566.26,-321.16"/>
</g>
<!-- Node21 -->
<g id="node21" class="node">
<title>Node21</title>
<g id="a_node21"><a xlink:href="_s3_action__test_8cpp.html" target="_top" xlink:title="Tests for the S3 action functions.">
<polygon fill="white" stroke="black" points="143.5,-263 143.5,-282 274.5,-282 274.5,-263 143.5,-263"/>
<text text-anchor="middle" x="209" y="-270" font-family="Helvetica,sans-Serif" font-size="10.00">tests/S3Action_test.cpp</text>
</a>
</g>
</g>
<!-- Node4&#45;&gt;Node21 -->
<g id="edge20" class="edge">
<title>Node4&#45;&gt;Node21</title>
<path fill="none" stroke="midnightblue" d="M445.7,-322.4C389.87,-310.87 301.69,-292.65 250.19,-282.01"/>
<polygon fill="midnightblue" stroke="midnightblue" points="445.24,-325.88 455.74,-324.48 446.65,-319.02 445.24,-325.88"/>
</g>
<!-- Node22 -->
<g id="node22" class="node">
<title>Node22</title>
<g id="a_node22"><a xlink:href="_utilities__test_8cpp.html" target="_top" xlink:title="Tests on utility functions.">
<polygon fill="white" stroke="black" points="293,-263 293,-282 419,-282 419,-263 293,-263"/>
<text text-anchor="middle" x="356" y="-270" font-family="Helvetica,sans-Serif" font-size="10.00">tests/Utilities_test.cpp</text>
</a>
</g>
</g>
<!-- Node4&#45;&gt;Node22 -->
<g id="edge21" class="edge">
<title>Node4&#45;&gt;Node22</title>
<path fill="none" stroke="midnightblue" d="M467.33,-320.48C439.95,-308.92 400.02,-292.08 376.16,-282.01"/>
<polygon fill="midnightblue" stroke="midnightblue" points="466.22,-323.81 476.8,-324.48 468.95,-317.36 466.22,-323.81"/>
</g>
<!-- Node23 -->
<g id="node23" class="node">
<title>Node23</title>
<g id="a_node23"><a xlink:href="_vertex__test_8cpp.html" target="_top" xlink:title="Tests on vertices in Delaunay triangulations.">
<polygon fill="white" stroke="black" points="437.5,-263 437.5,-282 556.5,-282 556.5,-263 437.5,-263"/>
<text text-anchor="middle" x="497" y="-270" font-family="Helvetica,sans-Serif" font-size="10.00">tests/Vertex_test.cpp</text>
</a>
</g>
</g>
<!-- Node4&#45;&gt;Node23 -->
<g id="edge22" class="edge">
<title>Node4&#45;&gt;Node23</title>
<path fill="none" stroke="midnightblue" d="M497,-314.32C497,-303.5 497,-290.4 497,-282.01"/>
<polygon fill="midnightblue" stroke="midnightblue" points="493.5,-314.48 497,-324.48 500.5,-314.48 493.5,-314.48"/>
</g>
<!-- Node6 -->
<g id="node6" class="node">
<title>Node6</title>
<g id="a_node6"><a xlink:href="_move__command_8hpp.html" target="_top" xlink:title="Do ergodic moves using the Command pattern.">
<polygon fill="white" stroke="black" points="402.5,-196 402.5,-215 559.5,-215 559.5,-196 402.5,-196"/>
<text text-anchor="middle" x="481" y="-203" font-family="Helvetica,sans-Serif" font-size="10.00">include/Move_command.hpp</text>
</a>
</g>
</g>
<!-- Node5&#45;&gt;Node6 -->
<g id="edge5" class="edge">
<title>Node5&#45;&gt;Node6</title>
<path fill="none" stroke="midnightblue" d="M595.15,-253.46C564.62,-240.9 525.3,-224.72 501.68,-215.01"/>
<polygon fill="midnightblue" stroke="midnightblue" points="594.14,-256.83 604.72,-257.4 596.8,-250.35 594.14,-256.83"/>
</g>
<!-- Node16 -->
<g id="node16" class="node">
<title>Node16</title>
<g id="a_node16"><a xlink:href="_apply__move__test_8cpp.html" target="_top" xlink:title="Applying ergodic moves to manifolds.">
<polygon fill="white" stroke="black" points="577.5,-196 577.5,-215 726.5,-215 726.5,-196 577.5,-196"/>
<text text-anchor="middle" x="652" y="-203" font-family="Helvetica,sans-Serif" font-size="10.00">tests/Apply_move_test.cpp</text>
</a>
</g>
</g>
<!-- Node5&#45;&gt;Node16 -->
<g id="edge15" class="edge">
<title>Node5&#45;&gt;Node16</title>
<path fill="none" stroke="midnightblue" d="M643.85,-247.25C646.1,-236.02 648.62,-223.38 650.26,-215.19"/>
<polygon fill="midnightblue" stroke="midnightblue" points="640.35,-246.9 641.82,-257.4 647.21,-248.28 640.35,-246.9"/>
</g>
<!-- Node17 -->
<g id="node17" class="node">
<title>Node17</title>
<g id="a_node17"><a xlink:href="_ergodic__moves__3__test_8cpp.html" target="_top" xlink:title="Tests for ergodic moves on foliated triangulations.">
<polygon fill="white" stroke="black" points="745,-190.5 745,-220.5 863,-220.5 863,-190.5 745,-190.5"/>
<text text-anchor="start" x="753" y="-208.5" font-family="Helvetica,sans-Serif" font-size="10.00">tests/Ergodic_moves</text>
<text text-anchor="middle" x="804" y="-197.5" font-family="Helvetica,sans-Serif" font-size="10.00">_3_test.cpp</text>
</a>
</g>
</g>
<!-- Node5&#45;&gt;Node17 -->
<g id="edge16" class="edge">
<title>Node5&#45;&gt;Node17</title>
<path fill="none" stroke="midnightblue" d="M684.23,-253.68C710.69,-243.26 743.63,-230.28 768.27,-220.58"/>
<polygon fill="midnightblue" stroke="midnightblue" points="682.82,-250.47 674.8,-257.4 685.39,-256.99 682.82,-250.47"/>
</g>
<!-- Node18 -->
<g id="node18" class="node">
<title>Node18</title>
<g id="a_node18"><a xlink:href="_function__ref__test_8cpp_source.html" target="_top" xlink:title=" ">
<polygon fill="white" stroke="black" points="280,-190.5 280,-220.5 384,-220.5 384,-190.5 280,-190.5"/>
<text text-anchor="start" x="288" y="-208.5" font-family="Helvetica,sans-Serif" font-size="10.00">tests/Function_ref</text>
<text text-anchor="middle" x="332" y="-197.5" font-family="Helvetica,sans-Serif" font-size="10.00">_test.cpp</text>
</a>
</g>
</g>
<!-- Node5&#45;&gt;Node18 -->
<g id="edge17" class="edge">
<title>Node5&#45;&gt;Node18</title>
<path fill="none" stroke="midnightblue" d="M564.56,-256.48C504.54,-244.32 425.06,-228.1 393,-221 390.13,-220.36 387.19,-219.7 384.22,-219.02"/>
<polygon fill="midnightblue" stroke="midnightblue" points="563.89,-259.92 574.39,-258.47 565.28,-253.06 563.89,-259.92"/>
</g>
<!-- Node7 -->
<g id="node7" class="node">
<title>Node7</title>
<g id="a_node7"><a xlink:href="_move__strategy_8hpp.html" target="_top" xlink:title="Template class for move algorithms (strategies) on manifolds.">
<polygon fill="white" stroke="black" points="433.5,-129 433.5,-148 580.5,-148 580.5,-129 433.5,-129"/>
<text text-anchor="middle" x="507" y="-136" font-family="Helvetica,sans-Serif" font-size="10.00">include/Move_strategy.hpp</text>
</a>
</g>
</g>
<!-- Node6&#45;&gt;Node7 -->
<g id="edge6" class="edge">
<title>Node6&#45;&gt;Node7</title>
<path fill="none" stroke="midnightblue" d="M488.28,-186.29C493.28,-173.81 499.67,-157.81 503.55,-148.13"/>
<polygon fill="midnightblue" stroke="midnightblue" points="484.97,-185.15 484.51,-195.73 491.47,-187.75 484.97,-185.15"/>
</g>
<!-- Node15 -->
<g id="node15" class="node">
<title>Node15</title>
<g id="a_node15"><a xlink:href="_move__command__test_8cpp.html" target="_top" xlink:title="Tests of MoveCommand, that is, that moves are handled properly.">
<polygon fill="white" stroke="black" points="290.5,-123.5 290.5,-153.5 415.5,-153.5 415.5,-123.5 290.5,-123.5"/>
<text text-anchor="start" x="298.5" y="-141.5" font-family="Helvetica,sans-Serif" font-size="10.00">tests/Move_command</text>
<text text-anchor="middle" x="353" y="-130.5" font-family="Helvetica,sans-Serif" font-size="10.00">_test.cpp</text>
</a>
</g>
</g>
<!-- Node6&#45;&gt;Node15 -->
<g id="edge14" class="edge">
<title>Node6&#45;&gt;Node15</title>
<path fill="none" stroke="midnightblue" d="M454.8,-191.19C433.27,-180.26 402.84,-164.81 380.87,-153.65"/>
<polygon fill="midnightblue" stroke="midnightblue" points="453.5,-194.46 464,-195.87 456.67,-188.22 453.5,-194.46"/>
</g>
<!-- Node8 -->
<g id="node8" class="node">
<title>Node8</title>
<g id="a_node8"><a xlink:href="_metropolis_8hpp.html" target="_top" xlink:title="Perform Metropolis&#45;Hastings algorithm on Delaunay Triangulations.">
<polygon fill="white" stroke="black" points="152,-62 152,-81 280,-81 280,-62 152,-62"/>
<text text-anchor="middle" x="216" y="-69" font-family="Helvetica,sans-Serif" font-size="10.00">include/Metropolis.hpp</text>
</a>
</g>
</g>
<!-- Node7&#45;&gt;Node8 -->
<g id="edge7" class="edge">
<title>Node7&#45;&gt;Node8</title>
<path fill="none" stroke="midnightblue" d="M458.75,-126.72C401.45,-113.92 307.03,-92.83 254.43,-81.08"/>
<polygon fill="midnightblue" stroke="midnightblue" points="458.14,-130.17 468.66,-128.94 459.66,-123.34 458.14,-130.17"/>
</g>
<!-- Node11 -->
<g id="node11" class="node">
<title>Node11</title>
<g id="a_node11"><a xlink:href="_move__always_8hpp.html" target="_top" xlink:title="Randomly selects moves to always perform on triangulations.">
<polygon fill="white" stroke="black" points="449.5,-62 449.5,-81 592.5,-81 592.5,-62 449.5,-62"/>
<text text-anchor="middle" x="521" y="-69" font-family="Helvetica,sans-Serif" font-size="10.00">include/Move_always.hpp</text>
</a>
</g>
</g>
<!-- Node7&#45;&gt;Node11 -->
<g id="edge10" class="edge">
<title>Node7&#45;&gt;Node11</title>
<path fill="none" stroke="midnightblue" d="M511,-118.91C513.68,-106.49 517.08,-90.72 519.14,-81.13"/>
<polygon fill="midnightblue" stroke="midnightblue" points="507.57,-118.22 508.89,-128.73 514.42,-119.69 507.57,-118.22"/>
</g>
<!-- Node9 -->
<g id="node9" class="node">
<title>Node9</title>
<g id="a_node9"><a xlink:href="cdt_8cpp.html" target="_top" xlink:title="The main executable.">
<polygon fill="white" stroke="black" points="206.5,-0.5 206.5,-19.5 275.5,-19.5 275.5,-0.5 206.5,-0.5"/>
<text text-anchor="middle" x="241" y="-7.5" font-family="Helvetica,sans-Serif" font-size="10.00">src/cdt.cpp</text>
</a>
</g>
</g>
<!-- Node8&#45;&gt;Node9 -->
<g id="edge8" class="edge">
<title>Node8&#45;&gt;Node9</title>
<path fill="none" stroke="midnightblue" d="M223.56,-52.5C228.16,-41.55 233.83,-28.07 237.42,-19.51"/>
<polygon fill="midnightblue" stroke="midnightblue" points="220.23,-51.4 219.58,-61.98 226.68,-54.11 220.23,-51.4"/>
</g>
<!-- Node10 -->
<g id="node10" class="node">
<title>Node10</title>
<g id="a_node10"><a xlink:href="_metropolis__test_8cpp.html" target="_top" xlink:title="Tests for the Metropolis&#45;Hastings algorithm.">
<polygon fill="white" stroke="black" points="48,-0.5 48,-19.5 188,-19.5 188,-0.5 48,-0.5"/>
<text text-anchor="middle" x="118" y="-7.5" font-family="Helvetica,sans-Serif" font-size="10.00">tests/Metropolis_test.cpp</text>
</a>
</g>
</g>
<!-- Node8&#45;&gt;Node10 -->
<g id="edge9" class="edge">
<title>Node8&#45;&gt;Node10</title>
<path fill="none" stroke="midnightblue" d="M193.34,-56.74C174.41,-45.25 148.01,-29.22 132.01,-19.51"/>
<polygon fill="midnightblue" stroke="midnightblue" points="191.59,-59.78 201.96,-61.98 195.23,-53.79 191.59,-59.78"/>
</g>
<!-- Node12 -->
<g id="node12" class="node">
<title>Node12</title>
<g id="a_node12"><a xlink:href="cdt-opt_8cpp.html" target="_top" xlink:title="Outputs values to determine optimizations.">
<polygon fill="white" stroke="black" points="621.5,-0.5 621.5,-19.5 710.5,-19.5 710.5,-0.5 621.5,-0.5"/>
<text text-anchor="middle" x="666" y="-7.5" font-family="Helvetica,sans-Serif" font-size="10.00">src/cdt&#45;opt.cpp</text>
</a>
</g>
</g>
<!-- Node11&#45;&gt;Node12 -->
<g id="edge11" class="edge">
<title>Node11&#45;&gt;Node12</title>
<path fill="none" stroke="midnightblue" d="M551.14,-58.13C579.31,-46.57 620.62,-29.62 645.26,-19.51"/>
<polygon fill="midnightblue" stroke="midnightblue" points="549.7,-54.94 541.77,-61.98 552.36,-61.42 549.7,-54.94"/>
</g>
<!-- Node13 -->
<g id="node13" class="node">
<title>Node13</title>
<g id="a_node13"><a xlink:href="_move__always__test_8cpp_source.html" target="_top" xlink:title=" ">
<polygon fill="white" stroke="black" points="448.5,-0.5 448.5,-19.5 603.5,-19.5 603.5,-0.5 448.5,-0.5"/>
<text text-anchor="middle" x="526" y="-7.5" font-family="Helvetica,sans-Serif" font-size="10.00">tests/Move_always_test.cpp</text>
</a>
</g>
</g>
<!-- Node11&#45;&gt;Node13 -->
<g id="edge12" class="edge">
<title>Node11&#45;&gt;Node13</title>
<path fill="none" stroke="midnightblue" d="M522.57,-51.82C523.48,-41 524.58,-27.9 525.28,-19.51"/>
<polygon fill="midnightblue" stroke="midnightblue" points="519.07,-51.72 521.72,-61.98 526.04,-52.3 519.07,-51.72"/>
</g>
<!-- Node14 -->
<g id="node14" class="node">
<title>Node14</title>
<g id="a_node14"><a xlink:href="_simulation_test_8cpp_source.html" target="_top" xlink:title=" ">
<polygon fill="white" stroke="black" points="294,-0.5 294,-19.5 430,-19.5 430,-0.5 294,-0.5"/>
<text text-anchor="middle" x="362" y="-7.5" font-family="Helvetica,sans-Serif" font-size="10.00">tests/SimulationTest.cpp</text>
</a>
</g>
</g>
<!-- Node11&#45;&gt;Node14 -->
<g id="edge13" class="edge">
<title>Node11&#45;&gt;Node14</title>
<path fill="none" stroke="midnightblue" d="M488.75,-58.43C457.85,-46.87 411.99,-29.71 384.74,-19.51"/>
<polygon fill="midnightblue" stroke="midnightblue" points="487.63,-61.75 498.22,-61.98 490.08,-55.19 487.63,-61.75"/>
</g>
<!-- Node28 -->
<g id="node28" class="node">
<title>Node28</title>
<g id="a_node28"><a xlink:href="_simplicial_manifold_8hpp.html" target="_top" xlink:title="Data structures for simplicial manifolds.">
<polygon fill="white" stroke="black" points="31.5,-129 31.5,-148 198.5,-148 198.5,-129 31.5,-129"/>
<text text-anchor="middle" x="115" y="-136" font-family="Helvetica,sans-Serif" font-size="10.00">include/SimplicialManifold.hpp</text>
</a>
</g>
</g>
<!-- Node27&#45;&gt;Node28 -->
<g id="edge27" class="edge">
<title>Node27&#45;&gt;Node28</title>
<path fill="none" stroke="midnightblue" d="M139.92,-438.15C130.15,-414.9 115,-372.76 115,-335 115,-335 115,-335 115,-271.5 115,-224.98 115,-169.24 115,-148.15"/>
<polygon fill="midnightblue" stroke="midnightblue" points="136.75,-439.64 143.95,-447.41 143.17,-436.85 136.75,-439.64"/>
</g>
<!-- Node29 -->
<g id="node29" class="node">
<title>Node29</title>
<g id="a_node29"><a xlink:href="_simulation_8hpp.html" target="_top" xlink:title="Simulation class.">
<polygon fill="white" stroke="black" points="298,-62 298,-81 426,-81 426,-62 298,-62"/>
<text text-anchor="middle" x="362" y="-69" font-family="Helvetica,sans-Serif" font-size="10.00">include/Simulation.hpp</text>
</a>
</g>
</g>
<!-- Node28&#45;&gt;Node29 -->
<g id="edge28" class="edge">
<title>Node28&#45;&gt;Node29</title>
<path fill="none" stroke="midnightblue" d="M157.47,-126.32C206.24,-113.49 285.2,-92.71 329.38,-81.08"/>
<polygon fill="midnightblue" stroke="midnightblue" points="156.32,-123.01 147.54,-128.94 158.11,-129.78 156.32,-123.01"/>
</g>
<!-- Node30 -->
<g id="node30" class="node">
<title>Node30</title>
<g id="a_node30"><a xlink:href="_simplicial_manifold_test_8cpp_source.html" target="_top" xlink:title=" ">
<polygon fill="white" stroke="black" points="0,-56.5 0,-86.5 134,-86.5 134,-56.5 0,-56.5"/>
<text text-anchor="start" x="8" y="-74.5" font-family="Helvetica,sans-Serif" font-size="10.00">tests/SimplicialManifold</text>
<text text-anchor="middle" x="67" y="-63.5" font-family="Helvetica,sans-Serif" font-size="10.00">Test.cpp</text>
</a>
</g>
</g>
<!-- Node28&#45;&gt;Node30 -->
<g id="edge31" class="edge">
<title>Node28&#45;&gt;Node30</title>
<path fill="none" stroke="midnightblue" d="M102.57,-120.67C94.76,-110.09 84.8,-96.6 77.4,-86.59"/>
<polygon fill="midnightblue" stroke="midnightblue" points="99.77,-122.77 108.53,-128.73 105.4,-118.61 99.77,-122.77"/>
</g>
<!-- Node29&#45;&gt;Node9 -->
<g id="edge29" class="edge">
<title>Node29&#45;&gt;Node9</title>
<path fill="none" stroke="midnightblue" d="M335.61,-57.52C312.14,-45.98 278.51,-29.44 258.3,-19.51"/>
<polygon fill="midnightblue" stroke="midnightblue" points="334.15,-60.7 344.66,-61.98 337.23,-54.42 334.15,-60.7"/>
</g>
<!-- Node29&#45;&gt;Node14 -->
<g id="edge30" class="edge">
<title>Node29&#45;&gt;Node14</title>
<path fill="none" stroke="midnightblue" d="M362,-51.82C362,-41 362,-27.9 362,-19.51"/>
<polygon fill="midnightblue" stroke="midnightblue" points="358.5,-51.98 362,-61.98 365.5,-51.98 358.5,-51.98"/>
</g>
</g>
</svg>
