<?xml version="1.0" encoding="UTF-8" standalone="no"?>
<!DOCTYPE svg PUBLIC "-//W3C//DTD SVG 1.1//EN"
 "http://www.w3.org/Graphics/SVG/1.1/DTD/svg11.dtd">
<!-- Generated by graphviz version 2.43.0 (0)
 -->
<!-- Title: include/Utilities.hpp Pages: 1 -->
<svg width="1276pt" height="456pt"
 viewBox="0.00 0.00 1275.50 456.00" xmlns="http://www.w3.org/2000/svg" xmlns:xlink="http://www.w3.org/1999/xlink">
<g id="graph0" class="graph" transform="scale(1 1) rotate(0) translate(4 452)">
<title>include/Utilities.hpp</title>
<!-- Node1 -->
<g id="node1" class="node">
<title>Node1</title>
<g id="a_node1"><a xlink:title="Utility functions.">
<polygon fill="#999999" stroke="#666666" points="883,-448 769,-448 769,-429 883,-429 883,-448"/>
<text text-anchor="middle" x="826" y="-436" font-family="Helvetica,sans-Serif" font-size="10.00">include/Utilities.hpp</text>
</a>
</g>
</g>
<!-- Node2 -->
<g id="node2" class="node">
<title>Node2</title>
<g id="a_node2"><a xlink:href="_foliated__triangulation_8hpp.html" target="_top" xlink:title="Create foliated spherical triangulations.">
<polygon fill="white" stroke="#666666" points="675,-393 493,-393 493,-374 675,-374 675,-393"/>
<text text-anchor="middle" x="584" y="-381" font-family="Helvetica,sans-Serif" font-size="10.00">include/Foliated_triangulation.hpp</text>
</a>
</g>
</g>
<!-- Node1&#45;&gt;Node2 -->
<g id="edge1" class="edge">
<title>Node1&#45;&gt;Node2</title>
<path fill="none" stroke="#63b8ff" d="M777.21,-426.82C731.86,-416.88 665.17,-402.28 623.19,-393.08"/>
<polygon fill="#63b8ff" stroke="#63b8ff" points="776.6,-430.26 787.12,-428.98 778.1,-423.43 776.6,-430.26"/>
</g>
<!-- Node17 -->
<g id="node17" class="node">
<title>Node17</title>
<g id="a_node17"><a xlink:href="cdt-viewer_8cpp.html" target="_top" xlink:title="Views 3D spacetimes.">
<polygon fill="white" stroke="#666666" points="684,-211.5 580,-211.5 580,-192.5 684,-192.5 684,-211.5"/>
<text text-anchor="middle" x="632" y="-199.5" font-family="Helvetica,sans-Serif" font-size="10.00">src/cdt&#45;viewer.cpp</text>
</a>
</g>
</g>
<!-- Node1&#45;&gt;Node17 -->
<g id="edge33" class="edge">
<title>Node1&#45;&gt;Node17</title>
<path fill="none" stroke="#63b8ff" d="M819.21,-419.51C808.72,-393.23 786.76,-343.58 758,-308 723.81,-265.7 670.5,-228.07 645.63,-211.69"/>
<polygon fill="#63b8ff" stroke="#63b8ff" points="815.99,-420.9 822.88,-428.95 822.51,-418.36 815.99,-420.9"/>
</g>
<!-- Node27 -->
<g id="node27" class="node">
<title>Node27</title>
<g id="a_node27"><a xlink:href="_move__tracker_8hpp.html" target="_top" xlink:title="Track ergodic moves.">
<polygon fill="white" stroke="#666666" points="946.5,-272 805.5,-272 805.5,-253 946.5,-253 946.5,-272"/>
<text text-anchor="middle" x="876" y="-260" font-family="Helvetica,sans-Serif" font-size="10.00">include/Move_tracker.hpp</text>
</a>
</g>
</g>
<!-- Node1&#45;&gt;Node27 -->
<g id="edge26" class="edge">
<title>Node1&#45;&gt;Node27</title>
<path fill="none" stroke="#63b8ff" d="M831.44,-418.56C842.2,-381.12 865.81,-298.95 873.52,-272.14"/>
<polygon fill="#63b8ff" stroke="#63b8ff" points="827.95,-418.05 828.55,-428.63 834.67,-419.99 827.95,-418.05"/>
</g>
<!-- Node28 -->
<g id="node28" class="node">
<title>Node28</title>
<g id="a_node28"><a xlink:href="_runtime__config_8hpp.html" target="_top" xlink:title="Validated runtime configuration for CDT++ command&#45;line programs.">
<polygon fill="white" stroke="#666666" points="1119,-272 967,-272 967,-253 1119,-253 1119,-272"/>
<text text-anchor="middle" x="1043" y="-260" font-family="Helvetica,sans-Serif" font-size="10.00">include/Runtime_config.hpp</text>
</a>
</g>
</g>
<!-- Node1&#45;&gt;Node28 -->
<g id="edge29" class="edge">
<title>Node1&#45;&gt;Node28</title>
<path fill="none" stroke="#63b8ff" d="M844.64,-422.56C888.55,-387.34 997.45,-300.03 1032.17,-272.18"/>
<polygon fill="#63b8ff" stroke="#63b8ff" points="842.37,-419.88 836.76,-428.87 846.75,-425.35 842.37,-419.88"/>
</g>
<!-- Node3 -->
<g id="node3" class="node">
<title>Node3</title>
<g id="a_node3"><a xlink:href="_geometry_8hpp.html" target="_top" xlink:title="Geometric scalars of the Manifold used to calculate the Regge action.">
<polygon fill="white" stroke="#666666" points="416.5,-332.5 293.5,-332.5 293.5,-313.5 416.5,-313.5 416.5,-332.5"/>
<text text-anchor="middle" x="355" y="-320.5" font-family="Helvetica,sans-Serif" font-size="10.00">include/Geometry.hpp</text>
</a>
</g>
</g>
<!-- Node2&#45;&gt;Node3 -->
<g id="edge2" class="edge">
<title>Node2&#45;&gt;Node3</title>
<path fill="none" stroke="#63b8ff" d="M540.81,-371.47C496.54,-360.16 428.64,-342.81 388.34,-332.52"/>
<polygon fill="#63b8ff" stroke="#63b8ff" points="540.15,-374.91 550.7,-373.99 541.88,-368.13 540.15,-374.91"/>
</g>
<!-- Node25 -->
<g id="node25" class="node">
<title>Node25</title>
<g id="a_node25"><a xlink:href="_foliated__triangulation__test_8cpp.html" target="_top" xlink:title="Tests for foliated triangulations.">
<polygon fill="white" stroke="#666666" points="585,-338 435,-338 435,-308 585,-308 585,-338"/>
<text text-anchor="start" x="443" y="-326" font-family="Helvetica,sans-Serif" font-size="10.00">tests/Foliated_triangulation</text>
<text text-anchor="middle" x="510" y="-315" font-family="Helvetica,sans-Serif" font-size="10.00">_test.cpp</text>
</a>
</g>
</g>
<!-- Node2&#45;&gt;Node25 -->
<g id="edge24" class="edge">
<title>Node2&#45;&gt;Node25</title>
<path fill="none" stroke="#63b8ff" d="M565.03,-367.5C553.58,-358.45 539.09,-347 527.85,-338.11"/>
<polygon fill="#63b8ff" stroke="#63b8ff" points="563.07,-370.41 573.08,-373.87 567.41,-364.92 563.07,-370.41"/>
</g>
<!-- Node26 -->
<g id="node26" class="node">
<title>Node26</title>
<g id="a_node26"><a xlink:href="_tetrahedron__test_8cpp.html" target="_top" xlink:title="Tests for 3D triangulated and foliated tetrahedrons.">
<polygon fill="white" stroke="#666666" points="749,-332.5 603,-332.5 603,-313.5 749,-313.5 749,-332.5"/>
<text text-anchor="middle" x="676" y="-320.5" font-family="Helvetica,sans-Serif" font-size="10.00">tests/Tetrahedron_test.cpp</text>
</a>
</g>
</g>
<!-- Node2&#45;&gt;Node26 -->
<g id="edge25" class="edge">
<title>Node2&#45;&gt;Node26</title>
<path fill="none" stroke="#63b8ff" d="M606.07,-368.47C623.59,-357.32 647.53,-342.1 662.37,-332.67"/>
<polygon fill="#63b8ff" stroke="#63b8ff" points="604.14,-365.55 597.57,-373.87 607.89,-371.46 604.14,-365.55"/>
</g>
<!-- Node4 -->
<g id="node4" class="node">
<title>Node4</title>
<g id="a_node4"><a xlink:href="_manifold_8hpp.html" target="_top" xlink:title="Data structures for manifolds.">
<polygon fill="white" stroke="#666666" points="556.5,-272 437.5,-272 437.5,-253 556.5,-253 556.5,-272"/>
<text text-anchor="middle" x="497" y="-260" font-family="Helvetica,sans-Serif" font-size="10.00">include/Manifold.hpp</text>
</a>
</g>
</g>
<!-- Node3&#45;&gt;Node4 -->
<g id="edge3" class="edge">
<title>Node3&#45;&gt;Node4</title>
<path fill="none" stroke="#63b8ff" d="M385.14,-309.58C412.57,-298.28 452.34,-281.9 476.33,-272.02"/>
<polygon fill="#63b8ff" stroke="#63b8ff" points="383.56,-306.45 375.65,-313.49 386.23,-312.92 383.56,-306.45"/>
</g>
<!-- Node24 -->
<g id="node24" class="node">
<title>Node24</title>
<g id="a_node24"><a xlink:href="_geometry__test_8cpp.html" target="_top" xlink:title="Tests of new geometry data structure.">
<polygon fill="white" stroke="#666666" points="419.5,-272 282.5,-272 282.5,-253 419.5,-253 419.5,-272"/>
<text text-anchor="middle" x="351" y="-260" font-family="Helvetica,sans-Serif" font-size="10.00">tests/Geometry_test.cpp</text>
</a>
</g>
</g>
<!-- Node3&#45;&gt;Node24 -->
<g id="edge23" class="edge">
<title>Node3&#45;&gt;Node24</title>
<path fill="none" stroke="#63b8ff" d="M353.71,-303.16C353,-292.74 352.15,-280.3 351.59,-272.17"/>
<polygon fill="#63b8ff" stroke="#63b8ff" points="350.24,-303.63 354.41,-313.37 357.22,-303.15 350.24,-303.63"/>
</g>
<!-- Node5 -->
<g id="node5" class="node">
<title>Node5</title>
<g id="a_node5"><a xlink:href="_ergodic__moves__3_8hpp.html" target="_top" xlink:title="Pachner moves on 2+1 dimensional foliated Delaunay triangulations.">
<polygon fill="white" stroke="#666666" points="959.5,-217 830.5,-217 830.5,-187 959.5,-187 959.5,-217"/>
<text text-anchor="start" x="838.5" y="-205" font-family="Helvetica,sans-Serif" font-size="10.00">include/Ergodic_moves</text>
<text text-anchor="middle" x="895" y="-194" font-family="Helvetica,sans-Serif" font-size="10.00">_3.hpp</text>
</a>
</g>
</g>
<!-- Node4&#45;&gt;Node5 -->
<g id="edge4" class="edge">
<title>Node4&#45;&gt;Node5</title>
<path fill="none" stroke="#63b8ff" d="M566.79,-252.95C632.51,-244.65 733.63,-231.25 821,-217 824.1,-216.49 827.26,-215.96 830.46,-215.41"/>
<polygon fill="#63b8ff" stroke="#63b8ff" points="566.04,-249.52 556.55,-254.24 566.91,-256.46 566.04,-249.52"/>
</g>
<!-- Node4&#45;&gt;Node17 -->
<g id="edge16" class="edge">
<title>Node4&#45;&gt;Node17</title>
<path fill="none" stroke="#63b8ff" d="M526,-248.93C552.07,-237.64 589.64,-221.36 612.35,-211.52"/>
<polygon fill="#63b8ff" stroke="#63b8ff" points="524.41,-245.81 516.63,-252.99 527.2,-252.23 524.41,-245.81"/>
</g>
<!-- Node18 -->
<g id="node18" class="node">
<title>Node18</title>
<g id="a_node18"><a xlink:href="initialize_8cpp.html" target="_top" xlink:title="Generates initial spacetimes.">
<polygon fill="white" stroke="#666666" points="1083,-211.5 987,-211.5 987,-192.5 1083,-192.5 1083,-211.5"/>
<text text-anchor="middle" x="1035" y="-199.5" font-family="Helvetica,sans-Serif" font-size="10.00">src/initialize.cpp</text>
</a>
</g>
</g>
<!-- Node4&#45;&gt;Node18 -->
<g id="edge17" class="edge">
<title>Node4&#45;&gt;Node18</title>
<path fill="none" stroke="#63b8ff" d="M566.57,-257.45C658.9,-251.51 826.85,-238.7 969,-217 978.61,-215.53 988.93,-213.55 998.48,-211.53"/>
<polygon fill="#63b8ff" stroke="#63b8ff" points="566.26,-253.97 556.51,-258.09 566.71,-260.95 566.26,-253.97"/>
</g>
<!-- Node19 -->
<g id="node19" class="node">
<title>Node19</title>
<g id="a_node19"><a xlink:href="_manifold__test_8cpp.html" target="_top" xlink:title="Tests of new manifold data structure.">
<polygon fill="white" stroke="#666666" points="412.5,-211.5 281.5,-211.5 281.5,-192.5 412.5,-192.5 412.5,-211.5"/>
<text text-anchor="middle" x="347" y="-199.5" font-family="Helvetica,sans-Serif" font-size="10.00">tests/Manifold_test.cpp</text>
</a>
</g>
</g>
<!-- Node4&#45;&gt;Node19 -->
<g id="edge18" class="edge">
<title>Node4&#45;&gt;Node19</title>
<path fill="none" stroke="#63b8ff" d="M465.54,-249.23C436.55,-237.92 394.29,-221.44 368.84,-211.52"/>
<polygon fill="#63b8ff" stroke="#63b8ff" points="464.6,-252.62 475.19,-252.99 467.14,-246.1 464.6,-252.62"/>
</g>
<!-- Node20 -->
<g id="node20" class="node">
<title>Node20</title>
<g id="a_node20"><a xlink:href="_move__tracker__test_8cpp.html" target="_top" xlink:title="Tests of MoveTracker, that is, that moves are tracked properly.">
<polygon fill="white" stroke="#666666" points="812,-217 702,-217 702,-187 812,-187 812,-217"/>
<text text-anchor="start" x="710" y="-205" font-family="Helvetica,sans-Serif" font-size="10.00">tests/Move_tracker</text>
<text text-anchor="middle" x="757" y="-194" font-family="Helvetica,sans-Serif" font-size="10.00">_test.cpp</text>
</a>
</g>
</g>
<!-- Node4&#45;&gt;Node20 -->
<g id="edge19" class="edge">
<title>Node4&#45;&gt;Node20</title>
<path fill="none" stroke="#63b8ff" d="M544.77,-250.75C589.17,-240.76 655.28,-225.89 701.89,-215.4"/>
<polygon fill="#63b8ff" stroke="#63b8ff" points="543.79,-247.38 534.81,-252.99 545.33,-254.21 543.79,-247.38"/>
</g>
<!-- Node21 -->
<g id="node21" class="node">
<title>Node21</title>
<g id="a_node21"><a xlink:href="_s3_action__test_8cpp.html" target="_top" xlink:title="Tests for the S3 action functions.">
<polygon fill="white" stroke="#666666" points="561.5,-211.5 430.5,-211.5 430.5,-192.5 561.5,-192.5 561.5,-211.5"/>
<text text-anchor="middle" x="496" y="-199.5" font-family="Helvetica,sans-Serif" font-size="10.00">tests/S3Action_test.cpp</text>
</a>
</g>
</g>
<!-- Node4&#45;&gt;Node21 -->
<g id="edge20" class="edge">
<title>Node4&#45;&gt;Node21</title>
<path fill="none" stroke="#63b8ff" d="M496.68,-242.66C496.5,-232.24 496.29,-219.8 496.15,-211.67"/>
<polygon fill="#63b8ff" stroke="#63b8ff" points="493.18,-242.93 496.85,-252.87 500.18,-242.81 493.18,-242.93"/>
</g>
<!-- Node22 -->
<g id="node22" class="node">
<title>Node22</title>
<g id="a_node22"><a xlink:href="_utilities__test_8cpp.html" target="_top" xlink:title="Tests on utility functions.">
<polygon fill="white" stroke="#666666" points="126,-211.5 0,-211.5 0,-192.5 126,-192.5 126,-211.5"/>
<text text-anchor="middle" x="63" y="-199.5" font-family="Helvetica,sans-Serif" font-size="10.00">tests/Utilities_test.cpp</text>
</a>
</g>
</g>
<!-- Node4&#45;&gt;Node22 -->
<g id="edge21" class="edge">
<title>Node4&#45;&gt;Node22</title>
<path fill="none" stroke="#63b8ff" d="M427.14,-252.9C296.1,-236.99 261.42,-237.03 135,-217 125.06,-215.43 114.4,-213.49 104.41,-211.57"/>
<polygon fill="#63b8ff" stroke="#63b8ff" points="426.81,-256.39 437.16,-254.13 427.66,-249.44 426.81,-256.39"/>
</g>
<!-- Node23 -->
<g id="node23" class="node">
<title>Node23</title>
<g id="a_node23"><a xlink:href="_vertex__test_8cpp.html" target="_top" xlink:title="Tests on points and vertices in foliated Delaunay triangulations.">
<polygon fill="white" stroke="#666666" points="263.5,-211.5 144.5,-211.5 144.5,-192.5 263.5,-192.5 263.5,-211.5"/>
<text text-anchor="middle" x="204" y="-199.5" font-family="Helvetica,sans-Serif" font-size="10.00">tests/Vertex_test.cpp</text>
</a>
</g>
</g>
<!-- Node4&#45;&gt;Node23 -->
<g id="edge22" class="edge">
<title>Node4&#45;&gt;Node23</title>
<path fill="none" stroke="#63b8ff" d="M443.46,-251.03C397.86,-242.09 330.6,-228.83 272,-217 263.38,-215.26 254.14,-213.37 245.34,-211.57"/>
<polygon fill="#63b8ff" stroke="#63b8ff" points="442.94,-254.5 453.43,-252.99 444.29,-247.63 442.94,-254.5"/>
</g>
<!-- Node6 -->
<g id="node6" class="node">
<title>Node6</title>
<g id="a_node6"><a xlink:href="_move__command_8hpp.html" target="_top" xlink:title="Do ergodic moves using the Command pattern.">
<polygon fill="white" stroke="#666666" points="802.5,-145.5 645.5,-145.5 645.5,-126.5 802.5,-126.5 802.5,-145.5"/>
<text text-anchor="middle" x="724" y="-133.5" font-family="Helvetica,sans-Serif" font-size="10.00">include/Move_command.hpp</text>
</a>
</g>
</g>
<!-- Node5&#45;&gt;Node6 -->
<g id="edge5" class="edge">
<title>Node5&#45;&gt;Node6</title>
<path fill="none" stroke="#63b8ff" d="M848.02,-183.42C815.08,-171.09 772.49,-155.15 746.76,-145.52"/>
<polygon fill="#63b8ff" stroke="#63b8ff" points="846.88,-186.73 857.47,-186.95 849.33,-180.17 846.88,-186.73"/>
</g>
<!-- Node13 -->
<g id="node13" class="node">
<title>Node13</title>
<g id="a_node13"><a xlink:href="_apply__move__test_8cpp.html" target="_top" xlink:title="Applying ergodic moves to manifolds.">
<polygon fill="white" stroke="#666666" points="969.5,-145.5 820.5,-145.5 820.5,-126.5 969.5,-126.5 969.5,-145.5"/>
<text text-anchor="middle" x="895" y="-133.5" font-family="Helvetica,sans-Serif" font-size="10.00">tests/Apply_move_test.cpp</text>
</a>
</g>
</g>
<!-- Node5&#45;&gt;Node13 -->
<g id="edge12" class="edge">
<title>Node5&#45;&gt;Node13</title>
<path fill="none" stroke="#63b8ff" d="M895,-176.6C895,-165.8 895,-153.78 895,-145.84"/>
<polygon fill="#63b8ff" stroke="#63b8ff" points="891.5,-176.8 895,-186.8 898.5,-176.8 891.5,-176.8"/>
</g>
<!-- Node14 -->
<g id="node14" class="node">
<title>Node14</title>
<g id="a_node14"><a xlink:href="_bistellar__flip__test_8cpp.html" target="_top" xlink:title="Comprehensive tests for bistellar flip operations.">
<polygon fill="white" stroke="#666666" points="1092,-151 988,-151 988,-121 1092,-121 1092,-151"/>
<text text-anchor="start" x="996" y="-139" font-family="Helvetica,sans-Serif" font-size="10.00">tests/Bistellar_flip</text>
<text text-anchor="middle" x="1040" y="-128" font-family="Helvetica,sans-Serif" font-size="10.00">_test.cpp</text>
</a>
</g>
</g>
<!-- Node5&#45;&gt;Node14 -->
<g id="edge13" class="edge">
<title>Node5&#45;&gt;Node14</title>
<path fill="none" stroke="#63b8ff" d="M936.27,-182.78C959.13,-172.69 987.12,-160.34 1008.25,-151.01"/>
<polygon fill="#63b8ff" stroke="#63b8ff" points="934.56,-179.71 926.82,-186.95 937.38,-186.12 934.56,-179.71"/>
</g>
<!-- Node15 -->
<g id="node15" class="node">
<title>Node15</title>
<g id="a_node15"><a xlink:href="_ergodic__moves__3__test_8cpp.html" target="_top" xlink:title="Tests for ergodic moves on foliated triangulations.">
<polygon fill="white" stroke="#666666" points="505,-151 387,-151 387,-121 505,-121 505,-151"/>
<text text-anchor="start" x="395" y="-139" font-family="Helvetica,sans-Serif" font-size="10.00">tests/Ergodic_moves</text>
<text text-anchor="middle" x="446" y="-128" font-family="Helvetica,sans-Serif" font-size="10.00">_3_test.cpp</text>
</a>
</g>
</g>
<!-- Node5&#45;&gt;Node15 -->
<g id="edge14" class="edge">
<title>Node5&#45;&gt;Node15</title>
<path fill="none" stroke="#63b8ff" d="M820.44,-186.99C683.48,-166.51 646.45,-172.36 514,-151 511.14,-150.54 508.23,-150.04 505.28,-149.52"/>
<polygon fill="#63b8ff" stroke="#63b8ff" points="820.06,-190.48 830.47,-188.52 821.11,-183.56 820.06,-190.48"/>
</g>
<!-- Node16 -->
<g id="node16" class="node">
<title>Node16</title>
<g id="a_node16"><a xlink:href="_function__ref__test_8cpp.html" target="_top" xlink:title="Tests on function pointers, lambdas, and function_refs.">
<polygon fill="white" stroke="#666666" points="627,-151 523,-151 523,-121 627,-121 627,-151"/>
<text text-anchor="start" x="531" y="-139" font-family="Helvetica,sans-Serif" font-size="10.00">tests/Function_ref</text>
<text text-anchor="middle" x="575" y="-128" font-family="Helvetica,sans-Serif" font-size="10.00">_test.cpp</text>
</a>
</g>
</g>
<!-- Node5&#45;&gt;Node16 -->
<g id="edge15" class="edge">
<title>Node5&#45;&gt;Node16</title>
<path fill="none" stroke="#63b8ff" d="M820.15,-186.69C750.19,-173.29 653.88,-154.78 636,-151 633.13,-150.39 630.19,-149.76 627.22,-149.11"/>
<polygon fill="#63b8ff" stroke="#63b8ff" points="819.79,-190.18 830.27,-188.63 821.11,-183.31 819.79,-190.18"/>
</g>
<!-- Node7 -->
<g id="node7" class="node">
<title>Node7</title>
<g id="a_node7"><a xlink:href="_metropolis_8hpp.html" target="_top" xlink:title="Perform Metropolis&#45;Hastings algorithm on Delaunay Triangulations.">
<polygon fill="white" stroke="#666666" points="945,-79.5 817,-79.5 817,-60.5 945,-60.5 945,-79.5"/>
<text text-anchor="middle" x="881" y="-67.5" font-family="Helvetica,sans-Serif" font-size="10.00">include/Metropolis.hpp</text>
</a>
</g>
</g>
<!-- Node6&#45;&gt;Node7 -->
<g id="edge6" class="edge">
<title>Node6&#45;&gt;Node7</title>
<path fill="none" stroke="#63b8ff" d="M754.64,-122.51C785.67,-109.86 832.84,-90.63 859.91,-79.6"/>
<polygon fill="#63b8ff" stroke="#63b8ff" points="753.11,-119.35 745.17,-126.37 755.76,-125.83 753.11,-119.35"/>
</g>
<!-- Node10 -->
<g id="node10" class="node">
<title>Node10</title>
<g id="a_node10"><a xlink:href="_move__always_8hpp.html" target="_top" xlink:title="Randomly selects moves to always perform on triangulations.">
<polygon fill="white" stroke="#666666" points="792.5,-79.5 649.5,-79.5 649.5,-60.5 792.5,-60.5 792.5,-79.5"/>
<text text-anchor="middle" x="721" y="-67.5" font-family="Helvetica,sans-Serif" font-size="10.00">include/Move_always.hpp</text>
</a>
</g>
</g>
<!-- Node6&#45;&gt;Node10 -->
<g id="edge9" class="edge">
<title>Node6&#45;&gt;Node10</title>
<path fill="none" stroke="#63b8ff" d="M723.11,-116.08C722.55,-104.13 721.85,-89.22 721.42,-79.91"/>
<polygon fill="#63b8ff" stroke="#63b8ff" points="719.63,-116.54 723.6,-126.37 726.62,-116.22 719.63,-116.54"/>
</g>
<!-- Node12 -->
<g id="node12" class="node">
<title>Node12</title>
<g id="a_node12"><a xlink:href="_move__command__test_8cpp.html" target="_top" xlink:title="Tests of MoveCommand, that is, that moves are handled properly.">
<polygon fill="white" stroke="#666666" points="1088.5,-85 963.5,-85 963.5,-55 1088.5,-55 1088.5,-85"/>
<text text-anchor="start" x="971.5" y="-73" font-family="Helvetica,sans-Serif" font-size="10.00">tests/Move_command</text>
<text text-anchor="middle" x="1026" y="-62" font-family="Helvetica,sans-Serif" font-size="10.00">_test.cpp</text>
</a>
</g>
</g>
<!-- Node6&#45;&gt;Node12 -->
<g id="edge11" class="edge">
<title>Node6&#45;&gt;Node12</title>
<path fill="none" stroke="#63b8ff" d="M774.39,-124.32C826.27,-113.33 907.23,-96.17 963.24,-84.3"/>
<polygon fill="#63b8ff" stroke="#63b8ff" points="773.47,-120.94 764.42,-126.44 774.92,-127.79 773.47,-120.94"/>
</g>
<!-- Node8 -->
<g id="node8" class="node">
<title>Node8</title>
<g id="a_node8"><a xlink:href="cdt_8cpp.html" target="_top" xlink:title="The main executable.">
<polygon fill="white" stroke="#666666" points="1096.5,-19 1027.5,-19 1027.5,0 1096.5,0 1096.5,-19"/>
<text text-anchor="middle" x="1062" y="-7" font-family="Helvetica,sans-Serif" font-size="10.00">src/cdt.cpp</text>
</a>
</g>
</g>
<!-- Node7&#45;&gt;Node8 -->
<g id="edge7" class="edge">
<title>Node7&#45;&gt;Node8</title>
<path fill="none" stroke="#63b8ff" d="M917.15,-57.32C952.15,-46 1004.4,-29.12 1035.65,-19.02"/>
<polygon fill="#63b8ff" stroke="#63b8ff" points="915.76,-54.09 907.32,-60.49 917.91,-60.75 915.76,-54.09"/>
</g>
<!-- Node9 -->
<g id="node9" class="node">
<title>Node9</title>
<g id="a_node9"><a xlink:href="_metropolis__test_8cpp.html" target="_top" xlink:title="Tests for the Metropolis&#45;Hastings algorithm.">
<polygon fill="white" stroke="#666666" points="954,-19 814,-19 814,0 954,0 954,-19"/>
<text text-anchor="middle" x="884" y="-7" font-family="Helvetica,sans-Serif" font-size="10.00">tests/Metropolis_test.cpp</text>
</a>
</g>
</g>
<!-- Node7&#45;&gt;Node9 -->
<g id="edge8" class="edge">
<title>Node7&#45;&gt;Node9</title>
<path fill="none" stroke="#63b8ff" d="M881.97,-50.16C882.5,-39.74 883.14,-27.3 883.56,-19.17"/>
<polygon fill="#63b8ff" stroke="#63b8ff" points="878.46,-50.2 881.44,-60.37 885.45,-50.56 878.46,-50.2"/>
</g>
<!-- Node11 -->
<g id="node11" class="node">
<title>Node11</title>
<g id="a_node11"><a xlink:href="_move__always__test_8cpp.html" target="_top" xlink:title="Tests for the Move Always algorithm.">
<polygon fill="white" stroke="#666666" points="795.5,-19 640.5,-19 640.5,0 795.5,0 795.5,-19"/>
<text text-anchor="middle" x="718" y="-7" font-family="Helvetica,sans-Serif" font-size="10.00">tests/Move_always_test.cpp</text>
</a>
</g>
</g>
<!-- Node10&#45;&gt;Node11 -->
<g id="edge10" class="edge">
<title>Node10&#45;&gt;Node11</title>
<path fill="none" stroke="#63b8ff" d="M720.03,-50.16C719.5,-39.74 718.86,-27.3 718.44,-19.17"/>
<polygon fill="#63b8ff" stroke="#63b8ff" points="716.55,-50.56 720.56,-60.37 723.54,-50.2 716.55,-50.56"/>
</g>
<!-- Node27&#45;&gt;Node5 -->
<g id="edge27" class="edge">
<title>Node27&#45;&gt;Node5</title>
<path fill="none" stroke="#63b8ff" d="M881.94,-243.22C884.67,-234.79 887.87,-224.95 890.42,-217.11"/>
<polygon fill="#63b8ff" stroke="#63b8ff" points="878.56,-242.28 878.8,-252.87 885.22,-244.44 878.56,-242.28"/>
</g>
<!-- Node27&#45;&gt;Node20 -->
<g id="edge28" class="edge">
<title>Node27&#45;&gt;Node20</title>
<path fill="none" stroke="#63b8ff" d="M849.48,-248.46C830.59,-239.18 805.23,-226.71 785.84,-217.18"/>
<polygon fill="#63b8ff" stroke="#63b8ff" points="848.18,-251.72 858.7,-252.99 851.27,-245.44 848.18,-251.72"/>
</g>
<!-- Node28&#45;&gt;Node8 -->
<g id="edge30" class="edge">
<title>Node28&#45;&gt;Node8</title>
<path fill="none" stroke="#63b8ff" d="M1065.36,-246.72C1075.15,-239.04 1085.79,-228.8 1092,-217 1105.79,-190.8 1099,-180.54 1101,-151 1103.89,-108.41 1113.15,-94.91 1098,-55 1092.57,-40.69 1080.64,-27.5 1072,-19.25"/>
<polygon fill="#63b8ff" stroke="#63b8ff" points="1063.1,-244.03 1057.12,-252.78 1067.25,-249.67 1063.1,-244.03"/>
</g>
<!-- Node28&#45;&gt;Node18 -->
<g id="edge31" class="edge">
<title>Node28&#45;&gt;Node18</title>
<path fill="none" stroke="#63b8ff" d="M1040.42,-242.66C1039,-232.24 1037.3,-219.8 1036.19,-211.67"/>
<polygon fill="#63b8ff" stroke="#63b8ff" points="1037,-243.43 1041.82,-252.87 1043.93,-242.49 1037,-243.43"/>
</g>
<!-- Node29 -->
<g id="node29" class="node">
<title>Node29</title>
<g id="a_node29"><a xlink:href="_runtime__config__test_8cpp.html" target="_top" xlink:title="Tests for validated command&#45;line configuration values.">
<polygon fill="white" stroke="#666666" points="1267.5,-217 1148.5,-217 1148.5,-187 1267.5,-187 1267.5,-217"/>
<text text-anchor="start" x="1156.5" y="-205" font-family="Helvetica,sans-Serif" font-size="10.00">tests/Runtime_config</text>
<text text-anchor="middle" x="1208" y="-194" font-family="Helvetica,sans-Serif" font-size="10.00">_test.cpp</text>
</a>
</g>
</g>
<!-- Node28&#45;&gt;Node29 -->
<g id="edge32" class="edge">
<title>Node28&#45;&gt;Node29</title>
<path fill="none" stroke="#63b8ff" d="M1076.61,-249.58C1103.18,-240.16 1140.31,-227 1168.33,-217.06"/>
<polygon fill="#63b8ff" stroke="#63b8ff" points="1075.25,-246.35 1066.99,-252.99 1077.59,-252.95 1075.25,-246.35"/>
</g>
</g>
</svg>
