<?xml version="1.0" encoding="UTF-8" standalone="no"?>
<!DOCTYPE svg PUBLIC "-//W3C//DTD SVG 1.1//EN"
 "http://www.w3.org/Graphics/SVG/1.1/DTD/svg11.dtd">
<!-- Generated by graphviz version 15.1.0 (20260618.0150)
 -->
<!-- Title: include/Utilities.hpp Pages: 1 -->
<svg width="718pt" height="382pt"
 viewBox="0.00 0.00 718.00 382.00" xmlns="http://www.w3.org/2000/svg" xmlns:xlink="http://www.w3.org/1999/xlink">
<g id="graph0" class="graph" transform="scale(1 1) rotate(0) translate(4 378)">
<title>include/Utilities.hpp</title>
<!-- Node1 -->
<g id="Node000001" class="node">
<title>Node1</title>
<g id="a_Node000001"><a xlink:title="Utility functions.">
<polygon fill="#999999" stroke="#666666" points="473.38,-374 359.88,-374 359.88,-353.25 473.38,-353.25 473.38,-374"/>
<text xml:space="preserve" text-anchor="middle" x="416.62" y="-360.5" font-family="Helvetica,sans-Serif" font-size="10.00">include/Utilities.hpp</text>
</a>
</g>
</g>
<!-- Node2 -->
<g id="Node000002" class="node">
<title>Node2</title>
<g id="a_Node000002"><a xlink:href="_foliated__triangulation_8hpp.html" target="_top" xlink:title="Create foliated spherical triangulations.">
<polygon fill="white" stroke="#666666" points="507.5,-317.25 325.75,-317.25 325.75,-296.5 507.5,-296.5 507.5,-317.25"/>
<text xml:space="preserve" text-anchor="middle" x="416.62" y="-303.75" font-family="Helvetica,sans-Serif" font-size="10.00">include/Foliated_triangulation.hpp</text>
</a>
</g>
</g>
<!-- Node1&#45;&gt;Node2 -->
<g id="edge1_Node000001_Node000002" class="edge">
<title>Node1&#45;&gt;Node2</title>
<g id="a_edge1_Node000001_Node000002"><a xlink:title=" ">
<path fill="none" stroke="#63b8ff" d="M416.62,-341.38C416.62,-333.16 416.62,-324.18 416.62,-317.58"/>
<polygon fill="#63b8ff" stroke="#63b8ff" points="413.13,-341.32 416.63,-351.32 420.13,-341.32 413.13,-341.32"/>
</a>
</g>
</g>
<!-- Node6 -->
<g id="Node000006" class="node">
<title>Node6</title>
<g id="a_Node000006"><a xlink:href="_metropolis_8hpp.html" target="_top" xlink:title="Perform Metropolis&#45;Hastings algorithm on Delaunay Triangulations.">
<polygon fill="white" stroke="#666666" points="376.12,-77.5 249.12,-77.5 249.12,-56.75 376.12,-56.75 376.12,-77.5"/>
<text xml:space="preserve" text-anchor="middle" x="312.62" y="-64" font-family="Helvetica,sans-Serif" font-size="10.00">include/Metropolis.hpp</text>
</a>
</g>
</g>
<!-- Node1&#45;&gt;Node6 -->
<g id="edge11_Node000001_Node000006" class="edge">
<title>Node1&#45;&gt;Node6</title>
<g id="a_edge11_Node000001_Node000006"><a xlink:title=" ">
<path fill="none" stroke="#63b8ff" d="M364.9,-348.9C347.44,-341.97 329.21,-331.83 316.62,-317.25 296.64,-294.11 297.62,-281.7 297.62,-251.12 297.62,-251.12 297.62,-251.12 297.62,-192.38 297.62,-149.35 306.6,-98.55 310.66,-77.74"/>
<polygon fill="#63b8ff" stroke="#63b8ff" points="363.59,-352.15 374.19,-352.29 365.99,-345.57 363.59,-352.15"/>
</a>
</g>
</g>
<!-- Node10 -->
<g id="Node000010" class="node">
<title>Node10</title>
<g id="a_Node000010"><a xlink:href="cdt-viewer_8cpp.html" target="_top" xlink:title="Views 3D spacetimes.">
<polygon fill="white" stroke="#666666" points="484.5,-140.62 380.75,-140.62 380.75,-119.88 484.5,-119.88 484.5,-140.62"/>
<text xml:space="preserve" text-anchor="middle" x="432.62" y="-127.12" font-family="Helvetica,sans-Serif" font-size="10.00">src/cdt&#45;viewer.cpp</text>
</a>
</g>
</g>
<!-- Node1&#45;&gt;Node10 -->
<g id="edge20_Node000001_Node000010" class="edge">
<title>Node1&#45;&gt;Node10</title>
<g id="a_edge20_Node000001_Node000010"><a xlink:title=" ">
<path fill="none" stroke="#63b8ff" d="M475.32,-348.83C491.44,-342.06 507.1,-332.04 516.62,-317.25 533.98,-290.31 573.88,-307.98 500.62,-183 489.52,-164.06 468.53,-149.72 452.79,-141"/>
<polygon fill="#63b8ff" stroke="#63b8ff" points="474.25,-345.5 466.13,-352.3 476.72,-352.05 474.25,-345.5"/>
</a>
</g>
</g>
<!-- Node12 -->
<g id="Node000012" class="node">
<title>Node12</title>
<g id="a_Node000012"><a xlink:href="_move__tracker_8hpp.html" target="_top" xlink:title="Track ergodic moves.">
<polygon fill="white" stroke="#666666" points="269.88,-203.75 129.38,-203.75 129.38,-183 269.88,-183 269.88,-203.75"/>
<text xml:space="preserve" text-anchor="middle" x="199.62" y="-190.25" font-family="Helvetica,sans-Serif" font-size="10.00">include/Move_tracker.hpp</text>
</a>
</g>
</g>
<!-- Node1&#45;&gt;Node12 -->
<g id="edge12_Node000001_Node000012" class="edge">
<title>Node1&#45;&gt;Node12</title>
<g id="a_edge12_Node000001_Node000012"><a xlink:title=" ">
<path fill="none" stroke="#63b8ff" d="M352.73,-349.79C329.36,-342.89 303.75,-332.54 283.62,-317.25 241.86,-285.51 213.51,-226.84 203.57,-203.91"/>
<polygon fill="#63b8ff" stroke="#63b8ff" points="351.6,-353.11 362.17,-352.41 353.47,-346.36 351.6,-353.11"/>
</a>
</g>
</g>
<!-- Node14 -->
<g id="Node000014" class="node">
<title>Node14</title>
<g id="a_Node000014"><a xlink:href="_runtime__config_8hpp.html" target="_top" xlink:title="Validated runtime configuration for CDT++ command&#45;line programs.">
<polygon fill="white" stroke="#666666" points="710.12,-203.75 559.12,-203.75 559.12,-183 710.12,-183 710.12,-203.75"/>
<text xml:space="preserve" text-anchor="middle" x="634.62" y="-190.25" font-family="Helvetica,sans-Serif" font-size="10.00">include/Runtime_config.hpp</text>
</a>
</g>
</g>
<!-- Node1&#45;&gt;Node14 -->
<g id="edge17_Node000001_Node000014" class="edge">
<title>Node1&#45;&gt;Node14</title>
<g id="a_edge17_Node000001_Node000014"><a xlink:title=" ">
<path fill="none" stroke="#63b8ff" d="M480.48,-349.73C503.84,-342.82 529.46,-332.49 549.62,-317.25 591.63,-285.5 620.47,-226.84 630.61,-203.91"/>
<polygon fill="#63b8ff" stroke="#63b8ff" points="479.73,-346.3 471.03,-352.35 481.61,-353.05 479.73,-346.3"/>
</a>
</g>
</g>
<!-- Node3 -->
<g id="Node000003" class="node">
<title>Node3</title>
<g id="a_Node000003"><a xlink:href="_geometry_8hpp.html" target="_top" xlink:title="Geometric scalars of the Manifold used to calculate the Regge action.">
<polygon fill="white" stroke="#666666" points="479.88,-260.5 357.38,-260.5 357.38,-239.75 479.88,-239.75 479.88,-260.5"/>
<text xml:space="preserve" text-anchor="middle" x="418.62" y="-247" font-family="Helvetica,sans-Serif" font-size="10.00">include/Geometry.hpp</text>
</a>
</g>
</g>
<!-- Node2&#45;&gt;Node3 -->
<g id="edge2_Node000002_Node000003" class="edge">
<title>Node2&#45;&gt;Node3</title>
<g id="a_edge2_Node000002_Node000003"><a xlink:title=" ">
<path fill="none" stroke="#63b8ff" d="M417.4,-284.63C417.7,-276.41 418.03,-267.43 418.27,-260.83"/>
<polygon fill="#63b8ff" stroke="#63b8ff" points="413.91,-284.45 417.04,-294.57 420.9,-284.71 413.91,-284.45"/>
</a>
</g>
</g>
<!-- Node4 -->
<g id="Node000004" class="node">
<title>Node4</title>
<g id="a_Node000004"><a xlink:href="_manifold_8hpp.html" target="_top" xlink:title="Data structures for manifolds.">
<polygon fill="white" stroke="#666666" points="491.62,-203.75 373.62,-203.75 373.62,-183 491.62,-183 491.62,-203.75"/>
<text xml:space="preserve" text-anchor="middle" x="432.62" y="-190.25" font-family="Helvetica,sans-Serif" font-size="10.00">include/Manifold.hpp</text>
</a>
</g>
</g>
<!-- Node3&#45;&gt;Node4 -->
<g id="edge3_Node000003_Node000004" class="edge">
<title>Node3&#45;&gt;Node4</title>
<g id="a_edge3_Node000003_Node000004"><a xlink:title=" ">
<path fill="none" stroke="#63b8ff" d="M423.91,-228.46C426.05,-220.09 428.42,-210.83 430.14,-204.08"/>
<polygon fill="#63b8ff" stroke="#63b8ff" points="420.59,-227.32 421.5,-237.87 427.37,-229.05 420.59,-227.32"/>
</a>
</g>
</g>
<!-- Node5 -->
<g id="Node000005" class="node">
<title>Node5</title>
<g id="a_Node000005"><a xlink:href="_ergodic__moves__3_8hpp.html" target="_top" xlink:title="Pachner moves on 2+1 dimensional foliated Delaunay triangulations.">
<polygon fill="white" stroke="#666666" points="269.88,-147 141.38,-147 141.38,-113.5 269.88,-113.5 269.88,-147"/>
<text xml:space="preserve" text-anchor="start" x="149.38" y="-133.5" font-family="Helvetica,sans-Serif" font-size="10.00">include/Ergodic_moves</text>
<text xml:space="preserve" text-anchor="middle" x="205.62" y="-120.75" font-family="Helvetica,sans-Serif" font-size="10.00">_3.hpp</text>
</a>
</g>
</g>
<!-- Node4&#45;&gt;Node5 -->
<g id="edge4_Node000004_Node000005" class="edge">
<title>Node4&#45;&gt;Node5</title>
<g id="a_edge4_Node000004_Node000005"><a xlink:title=" ">
<path fill="none" stroke="#63b8ff" d="M385.37,-179.65C350.69,-170.31 303.32,-157.56 265.92,-147.48"/>
<polygon fill="#63b8ff" stroke="#63b8ff" points="384.13,-182.94 394.69,-182.16 385.95,-176.18 384.13,-182.94"/>
</a>
</g>
</g>
<!-- Node4&#45;&gt;Node10 -->
<g id="edge9_Node000004_Node000010" class="edge">
<title>Node4&#45;&gt;Node10</title>
<g id="a_edge9_Node000004_Node000010"><a xlink:title=" ">
<path fill="none" stroke="#63b8ff" d="M432.62,-171.11C432.62,-160.8 432.62,-148.93 432.62,-140.84"/>
<polygon fill="#63b8ff" stroke="#63b8ff" points="429.13,-171.04 432.63,-181.04 436.13,-171.04 429.13,-171.04"/>
</a>
</g>
</g>
<!-- Node11 -->
<g id="Node000011" class="node">
<title>Node11</title>
<g id="a_Node000011"><a xlink:href="initialize_8cpp.html" target="_top" xlink:title="Generates initial spacetimes.">
<polygon fill="white" stroke="#666666" points="599.38,-140.62 503.88,-140.62 503.88,-119.88 599.38,-119.88 599.38,-140.62"/>
<text xml:space="preserve" text-anchor="middle" x="551.62" y="-127.12" font-family="Helvetica,sans-Serif" font-size="10.00">src/initialize.cpp</text>
</a>
</g>
</g>
<!-- Node4&#45;&gt;Node11 -->
<g id="edge10_Node000004_Node000011" class="edge">
<title>Node4&#45;&gt;Node11</title>
<g id="a_edge10_Node000004_Node000011"><a xlink:title=" ">
<path fill="none" stroke="#63b8ff" d="M461.88,-177.35C483.91,-166.03 513.49,-150.84 532.55,-141.05"/>
<polygon fill="#63b8ff" stroke="#63b8ff" points="460.39,-174.18 453.09,-181.86 463.59,-180.41 460.39,-174.18"/>
</a>
</g>
</g>
<!-- Node5&#45;&gt;Node6 -->
<g id="edge5_Node000005_Node000006" class="edge">
<title>Node5&#45;&gt;Node6</title>
<g id="a_edge5_Node000005_Node000006"><a xlink:title=" ">
<path fill="none" stroke="#63b8ff" d="M243.56,-107.58C261.29,-97.45 281.53,-85.89 295.49,-77.92"/>
<polygon fill="#63b8ff" stroke="#63b8ff" points="242.28,-104.28 235.33,-112.28 245.75,-110.36 242.28,-104.28"/>
</a>
</g>
</g>
<!-- Node8 -->
<g id="Node000008" class="node">
<title>Node8</title>
<g id="a_Node000008"><a xlink:href="_move__command_8hpp.html" target="_top" xlink:title="Do ergodic moves using the Command pattern.">
<polygon fill="white" stroke="#666666" points="230.75,-77.5 74.5,-77.5 74.5,-56.75 230.75,-56.75 230.75,-77.5"/>
<text xml:space="preserve" text-anchor="middle" x="152.62" y="-64" font-family="Helvetica,sans-Serif" font-size="10.00">include/Move_command.hpp</text>
</a>
</g>
</g>
<!-- Node5&#45;&gt;Node8 -->
<g id="edge7_Node000005_Node000008" class="edge">
<title>Node5&#45;&gt;Node8</title>
<g id="a_edge7_Node000005_Node000008"><a xlink:title=" ">
<path fill="none" stroke="#63b8ff" d="M184.25,-104.6C176.16,-95.26 167.4,-85.17 161.16,-77.97"/>
<polygon fill="#63b8ff" stroke="#63b8ff" points="181.51,-106.78 190.71,-112.05 186.8,-102.2 181.51,-106.78"/>
</a>
</g>
</g>
<!-- Node7 -->
<g id="Node000007" class="node">
<title>Node7</title>
<g id="a_Node000007"><a xlink:href="cdt_8cpp.html" target="_top" xlink:title="The main executable.">
<polygon fill="white" stroke="#666666" points="507.88,-20.75 439.38,-20.75 439.38,0 507.88,0 507.88,-20.75"/>
<text xml:space="preserve" text-anchor="middle" x="473.62" y="-7.25" font-family="Helvetica,sans-Serif" font-size="10.00">src/cdt.cpp</text>
</a>
</g>
</g>
<!-- Node6&#45;&gt;Node7 -->
<g id="edge6_Node000006_Node000007" class="edge">
<title>Node6&#45;&gt;Node7</title>
<g id="a_edge6_Node000006_Node000007"><a xlink:title=" ">
<path fill="none" stroke="#63b8ff" d="M352.28,-52.64C380.95,-42.89 419.02,-29.94 444.82,-21.17"/>
<polygon fill="#63b8ff" stroke="#63b8ff" points="351.18,-49.32 342.84,-55.85 353.44,-55.94 351.18,-49.32"/>
</a>
</g>
</g>
<!-- Node9 -->
<g id="Node000009" class="node">
<title>Node9</title>
<g id="a_Node000009"><a xlink:href="_move__always_8hpp.html" target="_top" xlink:title="Randomly selects moves to always perform on triangulations.">
<polygon fill="white" stroke="#666666" points="170.62,-20.75 28.62,-20.75 28.62,0 170.62,0 170.62,-20.75"/>
<text xml:space="preserve" text-anchor="middle" x="99.62" y="-7.25" font-family="Helvetica,sans-Serif" font-size="10.00">include/Move_always.hpp</text>
</a>
</g>
</g>
<!-- Node8&#45;&gt;Node9 -->
<g id="edge8_Node000008_Node000009" class="edge">
<title>Node8&#45;&gt;Node9</title>
<g id="a_edge8_Node000008_Node000009"><a xlink:title=" ">
<path fill="none" stroke="#63b8ff" d="M135.37,-48.3C126.61,-39.25 116.31,-28.61 109.02,-21.08"/>
<polygon fill="#63b8ff" stroke="#63b8ff" points="132.63,-50.5 142.1,-55.25 137.66,-45.63 132.63,-50.5"/>
</a>
</g>
</g>
<!-- Node12&#45;&gt;Node5 -->
<g id="edge13_Node000012_Node000005" class="edge">
<title>Node12&#45;&gt;Node5</title>
<g id="a_edge13_Node000012_Node000005"><a xlink:title=" ">
<path fill="none" stroke="#63b8ff" d="M201.69,-171.37C202.45,-163.55 203.31,-154.81 204.03,-147.48"/>
<polygon fill="#63b8ff" stroke="#63b8ff" points="198.23,-170.75 200.74,-181.05 205.2,-171.44 198.23,-170.75"/>
</a>
</g>
</g>
<!-- Node13 -->
<g id="Node000013" class="node">
<title>Node13</title>
<g id="a_Node000013"><a xlink:href="_move__run_8hpp.html" target="_top" xlink:title="Shared value&#45;oriented orchestration for ergodic&#45;move strategies.">
<polygon fill="white" stroke="#666666" points="123.25,-140.62 0,-140.62 0,-119.88 123.25,-119.88 123.25,-140.62"/>
<text xml:space="preserve" text-anchor="middle" x="61.62" y="-127.12" font-family="Helvetica,sans-Serif" font-size="10.00">include/Move_run.hpp</text>
</a>
</g>
</g>
<!-- Node12&#45;&gt;Node13 -->
<g id="edge14_Node000012_Node000013" class="edge">
<title>Node12&#45;&gt;Node13</title>
<g id="a_edge14_Node000012_Node000013"><a xlink:title=" ">
<path fill="none" stroke="#63b8ff" d="M167.09,-177.96C141.4,-166.59 106.25,-151.02 83.74,-141.05"/>
<polygon fill="#63b8ff" stroke="#63b8ff" points="165.51,-181.09 176.07,-181.94 168.34,-174.69 165.51,-181.09"/>
</a>
</g>
</g>
<!-- Node13&#45;&gt;Node6 -->
<g id="edge15_Node000013_Node000006" class="edge">
<title>Node13&#45;&gt;Node6</title>
<g id="a_edge15_Node000013_Node000006"><a xlink:title=" ">
<path fill="none" stroke="#63b8ff" d="M112.85,-116.77C160.03,-105.29 229.07,-88.47 272.4,-77.92"/>
<polygon fill="#63b8ff" stroke="#63b8ff" points="112.31,-113.3 103.42,-119.07 113.97,-120.11 112.31,-113.3"/>
</a>
</g>
</g>
<!-- Node13&#45;&gt;Node9 -->
<g id="edge16_Node000013_Node000009" class="edge">
<title>Node13&#45;&gt;Node9</title>
<g id="a_edge16_Node000013_Node000009"><a xlink:title=" ">
<path fill="none" stroke="#63b8ff" d="M59.62,-108.05C58.97,-93.24 59.62,-73.24 65.62,-56.75 70.68,-42.87 81.48,-29.68 89.56,-21.13"/>
<polygon fill="#63b8ff" stroke="#63b8ff" points="56.12,-108.27 60.32,-118 63.11,-107.78 56.12,-108.27"/>
</a>
</g>
</g>
<!-- Node14&#45;&gt;Node7 -->
<g id="edge18_Node000014_Node000007" class="edge">
<title>Node14&#45;&gt;Node7</title>
<g id="a_edge18_Node000014_Node000007"><a xlink:title=" ">
<path fill="none" stroke="#63b8ff" d="M631.34,-171.67C627.87,-154.79 621.11,-130.96 608.62,-113.5 577.51,-69.99 522.41,-36.73 493.15,-21.14"/>
<polygon fill="#63b8ff" stroke="#63b8ff" points="627.81,-171.85 633.04,-181.06 634.7,-170.59 627.81,-171.85"/>
</a>
</g>
</g>
<!-- Node14&#45;&gt;Node11 -->
<g id="edge19_Node000014_Node000011" class="edge">
<title>Node14&#45;&gt;Node11</title>
<g id="a_edge19_Node000014_Node000011"><a xlink:title=" ">
<path fill="none" stroke="#63b8ff" d="M612.1,-175.78C596.99,-164.66 577.62,-150.39 564.93,-141.05"/>
<polygon fill="#63b8ff" stroke="#63b8ff" points="609.94,-178.54 620.07,-181.66 614.09,-172.91 609.94,-178.54"/>
</a>
</g>
</g>
</g>
</svg>
