<?xml version="1.0" encoding="UTF-8" standalone="no"?>
<!DOCTYPE svg PUBLIC "-//W3C//DTD SVG 1.1//EN"
 "http://www.w3.org/Graphics/SVG/1.1/DTD/svg11.dtd">
<!-- Generated by graphviz version 15.1.0 (20260618.0150)
 -->
<!-- Title: include/Utilities.hpp Pages: 1 -->
<svg width="732pt" height="382pt"
 viewBox="0.00 0.00 732.00 382.00" xmlns="http://www.w3.org/2000/svg" xmlns:xlink="http://www.w3.org/1999/xlink">
<g id="graph0" class="graph" transform="scale(1 1) rotate(0) translate(4 378)">
<title>include/Utilities.hpp</title>
<!-- Node1 -->
<g id="Node000001" class="node">
<title>Node1</title>
<g id="a_Node000001"><a xlink:title="Utility functions.">
<polygon fill="#999999" stroke="#666666" points="483.38,-374 369.88,-374 369.88,-353.25 483.38,-353.25 483.38,-374"/>
<text xml:space="preserve" text-anchor="middle" x="426.62" y="-360.5" font-family="Helvetica,sans-Serif" font-size="10.00">include/Utilities.hpp</text>
</a>
</g>
</g>
<!-- Node2 -->
<g id="Node000002" class="node">
<title>Node2</title>
<g id="a_Node000002"><a xlink:href="_foliated__triangulation_8hpp.html" target="_top" xlink:title="Create foliated spherical triangulations.">
<polygon fill="white" stroke="#666666" points="517.5,-317.25 335.75,-317.25 335.75,-296.5 517.5,-296.5 517.5,-317.25"/>
<text xml:space="preserve" text-anchor="middle" x="426.62" y="-303.75" font-family="Helvetica,sans-Serif" font-size="10.00">include/Foliated_triangulation.hpp</text>
</a>
</g>
</g>
<!-- Node1&#45;&gt;Node2 -->
<g id="edge1_Node000001_Node000002" class="edge">
<title>Node1&#45;&gt;Node2</title>
<g id="a_edge1_Node000001_Node000002"><a xlink:title=" ">
<path fill="none" stroke="#63b8ff" d="M426.62,-341.38C426.62,-333.16 426.62,-324.18 426.62,-317.58"/>
<polygon fill="#63b8ff" stroke="#63b8ff" points="423.13,-341.32 426.63,-351.32 430.13,-341.32 423.13,-341.32"/>
</a>
</g>
</g>
<!-- Node6 -->
<g id="Node000006" class="node">
<title>Node6</title>
<g id="a_Node000006"><a xlink:href="_metropolis_8hpp.html" target="_top" xlink:title="Perform Metropolis&#45;Hastings algorithm on Delaunay Triangulations.">
<polygon fill="white" stroke="#666666" points="381.12,-77.5 254.12,-77.5 254.12,-56.75 381.12,-56.75 381.12,-77.5"/>
<text xml:space="preserve" text-anchor="middle" x="317.62" y="-64" font-family="Helvetica,sans-Serif" font-size="10.00">include/Metropolis.hpp</text>
</a>
</g>
</g>
<!-- Node1&#45;&gt;Node6 -->
<g id="edge11_Node000001_Node000006" class="edge">
<title>Node1&#45;&gt;Node6</title>
<g id="a_edge11_Node000001_Node000006"><a xlink:title=" ">
<path fill="none" stroke="#63b8ff" d="M374.9,-348.9C357.44,-341.97 339.21,-331.83 326.62,-317.25 306.64,-294.11 307.62,-281.7 307.62,-251.12 307.62,-251.12 307.62,-251.12 307.62,-192.38 307.62,-149.53 313.61,-98.63 316.32,-77.77"/>
<polygon fill="#63b8ff" stroke="#63b8ff" points="373.59,-352.15 384.19,-352.29 375.99,-345.57 373.59,-352.15"/>
</a>
</g>
</g>
<!-- Node10 -->
<g id="Node000010" class="node">
<title>Node10</title>
<g id="a_Node000010"><a xlink:href="cdt-viewer_8cpp.html" target="_top" xlink:title="Views 3D spacetimes.">
<polygon fill="white" stroke="#666666" points="494.5,-140.62 390.75,-140.62 390.75,-119.88 494.5,-119.88 494.5,-140.62"/>
<text xml:space="preserve" text-anchor="middle" x="442.62" y="-127.12" font-family="Helvetica,sans-Serif" font-size="10.00">src/cdt&#45;viewer.cpp</text>
</a>
</g>
</g>
<!-- Node1&#45;&gt;Node10 -->
<g id="edge22_Node000001_Node000010" class="edge">
<title>Node1&#45;&gt;Node10</title>
<g id="a_edge22_Node000001_Node000010"><a xlink:title=" ">
<path fill="none" stroke="#63b8ff" d="M485.32,-348.83C501.44,-342.06 517.1,-332.04 526.62,-317.25 543.98,-290.31 583.88,-307.98 510.62,-183 499.52,-164.06 478.53,-149.72 462.79,-141"/>
<polygon fill="#63b8ff" stroke="#63b8ff" points="484.25,-345.5 476.13,-352.3 486.72,-352.05 484.25,-345.5"/>
</a>
</g>
</g>
<!-- Node12 -->
<g id="Node000012" class="node">
<title>Node12</title>
<g id="a_Node000012"><a xlink:href="_move__tracker_8hpp.html" target="_top" xlink:title="Track ergodic moves.">
<polygon fill="white" stroke="#666666" points="223.88,-260.5 83.38,-260.5 83.38,-239.75 223.88,-239.75 223.88,-260.5"/>
<text xml:space="preserve" text-anchor="middle" x="153.62" y="-247" font-family="Helvetica,sans-Serif" font-size="10.00">include/Move_tracker.hpp</text>
</a>
</g>
</g>
<!-- Node1&#45;&gt;Node12 -->
<g id="edge12_Node000001_Node000012" class="edge">
<title>Node1&#45;&gt;Node12</title>
<g id="a_edge12_Node000001_Node000012"><a xlink:title=" ">
<path fill="none" stroke="#63b8ff" d="M383.8,-349.37C357.51,-340.9 323.3,-329.28 293.62,-317.25 249.28,-299.28 198.92,-274.33 172.35,-260.8"/>
<polygon fill="#63b8ff" stroke="#63b8ff" points="382.51,-352.63 393.1,-352.34 384.64,-345.96 382.51,-352.63"/>
</a>
</g>
</g>
<!-- Node15 -->
<g id="Node000015" class="node">
<title>Node15</title>
<g id="a_Node000015"><a xlink:href="_runtime__config_8hpp.html" target="_top" xlink:title="Validated runtime configuration for CDT++ command&#45;line programs.">
<polygon fill="white" stroke="#666666" points="724.12,-203.75 573.12,-203.75 573.12,-183 724.12,-183 724.12,-203.75"/>
<text xml:space="preserve" text-anchor="middle" x="648.62" y="-190.25" font-family="Helvetica,sans-Serif" font-size="10.00">include/Runtime_config.hpp</text>
</a>
</g>
</g>
<!-- Node1&#45;&gt;Node15 -->
<g id="edge19_Node000001_Node000015" class="edge">
<title>Node1&#45;&gt;Node15</title>
<g id="a_edge19_Node000001_Node000015"><a xlink:title=" ">
<path fill="none" stroke="#63b8ff" d="M489.43,-349.76C513,-342.82 539.04,-332.46 559.62,-317.25 602.42,-285.63 633.09,-227.41 644.13,-204.25"/>
<polygon fill="#63b8ff" stroke="#63b8ff" points="488.6,-346.35 479.9,-352.39 490.47,-353.1 488.6,-346.35"/>
</a>
</g>
</g>
<!-- Node3 -->
<g id="Node000003" class="node">
<title>Node3</title>
<g id="a_Node000003"><a xlink:href="_geometry_8hpp.html" target="_top" xlink:title="Geometric scalars of the Manifold used to calculate the Regge action.">
<polygon fill="white" stroke="#666666" points="501.88,-260.5 379.38,-260.5 379.38,-239.75 501.88,-239.75 501.88,-260.5"/>
<text xml:space="preserve" text-anchor="middle" x="440.62" y="-247" font-family="Helvetica,sans-Serif" font-size="10.00">include/Geometry.hpp</text>
</a>
</g>
</g>
<!-- Node2&#45;&gt;Node3 -->
<g id="edge2_Node000002_Node000003" class="edge">
<title>Node2&#45;&gt;Node3</title>
<g id="a_edge2_Node000002_Node000003"><a xlink:title=" ">
<path fill="none" stroke="#63b8ff" d="M431.91,-285.21C434.05,-276.84 436.42,-267.58 438.14,-260.83"/>
<polygon fill="#63b8ff" stroke="#63b8ff" points="428.59,-284.07 429.5,-294.62 435.37,-285.8 428.59,-284.07"/>
</a>
</g>
</g>
<!-- Node4 -->
<g id="Node000004" class="node">
<title>Node4</title>
<g id="a_Node000004"><a xlink:href="_manifold_8hpp.html" target="_top" xlink:title="Data structures for manifolds.">
<polygon fill="white" stroke="#666666" points="501.62,-203.75 383.62,-203.75 383.62,-183 501.62,-183 501.62,-203.75"/>
<text xml:space="preserve" text-anchor="middle" x="442.62" y="-190.25" font-family="Helvetica,sans-Serif" font-size="10.00">include/Manifold.hpp</text>
</a>
</g>
</g>
<!-- Node3&#45;&gt;Node4 -->
<g id="edge3_Node000003_Node000004" class="edge">
<title>Node3&#45;&gt;Node4</title>
<g id="a_edge3_Node000003_Node000004"><a xlink:title=" ">
<path fill="none" stroke="#63b8ff" d="M441.4,-227.88C441.7,-219.66 442.03,-210.68 442.27,-204.08"/>
<polygon fill="#63b8ff" stroke="#63b8ff" points="437.91,-227.7 441.04,-237.82 444.9,-227.96 437.91,-227.7"/>
</a>
</g>
</g>
<!-- Node5 -->
<g id="Node000005" class="node">
<title>Node5</title>
<g id="a_Node000005"><a xlink:href="_ergodic__moves__3_8hpp.html" target="_top" xlink:title="Pachner moves on 2+1 dimensional foliated Delaunay triangulations.">
<polygon fill="white" stroke="#666666" points="269.88,-147 141.38,-147 141.38,-113.5 269.88,-113.5 269.88,-147"/>
<text xml:space="preserve" text-anchor="start" x="149.38" y="-133.5" font-family="Helvetica,sans-Serif" font-size="10.00">include/Ergodic_moves</text>
<text xml:space="preserve" text-anchor="middle" x="205.62" y="-120.75" font-family="Helvetica,sans-Serif" font-size="10.00">_3.hpp</text>
</a>
</g>
</g>
<!-- Node4&#45;&gt;Node5 -->
<g id="edge4_Node000004_Node000005" class="edge">
<title>Node4&#45;&gt;Node5</title>
<g id="a_edge4_Node000004_Node000005"><a xlink:title=" ">
<path fill="none" stroke="#63b8ff" d="M393.76,-179.77C357.51,-170.42 307.79,-157.6 268.57,-147.48"/>
<polygon fill="#63b8ff" stroke="#63b8ff" points="392.52,-183.07 403.08,-182.18 394.27,-176.29 392.52,-183.07"/>
</a>
</g>
</g>
<!-- Node4&#45;&gt;Node10 -->
<g id="edge9_Node000004_Node000010" class="edge">
<title>Node4&#45;&gt;Node10</title>
<g id="a_edge9_Node000004_Node000010"><a xlink:title=" ">
<path fill="none" stroke="#63b8ff" d="M442.62,-171.11C442.62,-160.8 442.62,-148.93 442.62,-140.84"/>
<polygon fill="#63b8ff" stroke="#63b8ff" points="439.13,-171.04 442.63,-181.04 446.13,-171.04 439.13,-171.04"/>
</a>
</g>
</g>
<!-- Node11 -->
<g id="Node000011" class="node">
<title>Node11</title>
<g id="a_Node000011"><a xlink:href="initialize_8cpp.html" target="_top" xlink:title="Generates initial spacetimes.">
<polygon fill="white" stroke="#666666" points="615.38,-140.62 519.88,-140.62 519.88,-119.88 615.38,-119.88 615.38,-140.62"/>
<text xml:space="preserve" text-anchor="middle" x="567.62" y="-127.12" font-family="Helvetica,sans-Serif" font-size="10.00">src/initialize.cpp</text>
</a>
</g>
</g>
<!-- Node4&#45;&gt;Node11 -->
<g id="edge10_Node000004_Node000011" class="edge">
<title>Node4&#45;&gt;Node11</title>
<g id="a_edge10_Node000004_Node000011"><a xlink:title=" ">
<path fill="none" stroke="#63b8ff" d="M473.04,-177.5C496.21,-166.17 527.47,-150.88 547.59,-141.05"/>
<polygon fill="#63b8ff" stroke="#63b8ff" points="471.51,-174.35 464.07,-181.89 474.59,-180.64 471.51,-174.35"/>
</a>
</g>
</g>
<!-- Node5&#45;&gt;Node6 -->
<g id="edge5_Node000005_Node000006" class="edge">
<title>Node5&#45;&gt;Node6</title>
<g id="a_edge5_Node000005_Node000006"><a xlink:title=" ">
<path fill="none" stroke="#63b8ff" d="M245.33,-107.58C263.89,-97.45 285.07,-85.89 299.69,-77.92"/>
<polygon fill="#63b8ff" stroke="#63b8ff" points="243.77,-104.44 236.67,-112.31 247.13,-110.59 243.77,-104.44"/>
</a>
</g>
</g>
<!-- Node8 -->
<g id="Node000008" class="node">
<title>Node8</title>
<g id="a_Node000008"><a xlink:href="_move__command_8hpp.html" target="_top" xlink:title="Do ergodic moves using the Command pattern.">
<polygon fill="white" stroke="#666666" points="235.75,-77.5 79.5,-77.5 79.5,-56.75 235.75,-56.75 235.75,-77.5"/>
<text xml:space="preserve" text-anchor="middle" x="157.62" y="-64" font-family="Helvetica,sans-Serif" font-size="10.00">include/Move_command.hpp</text>
</a>
</g>
</g>
<!-- Node5&#45;&gt;Node8 -->
<g id="edge7_Node000005_Node000008" class="edge">
<title>Node5&#45;&gt;Node8</title>
<g id="a_edge7_Node000005_Node000008"><a xlink:title=" ">
<path fill="none" stroke="#63b8ff" d="M186.04,-104.31C178.77,-95.05 170.95,-85.09 165.35,-77.97"/>
<polygon fill="#63b8ff" stroke="#63b8ff" points="183.15,-106.3 192.08,-112 188.66,-101.97 183.15,-106.3"/>
</a>
</g>
</g>
<!-- Node7 -->
<g id="Node000007" class="node">
<title>Node7</title>
<g id="a_Node000007"><a xlink:href="cdt_8cpp.html" target="_top" xlink:title="The main executable.">
<polygon fill="white" stroke="#666666" points="516.88,-20.75 448.38,-20.75 448.38,0 516.88,0 516.88,-20.75"/>
<text xml:space="preserve" text-anchor="middle" x="482.62" y="-7.25" font-family="Helvetica,sans-Serif" font-size="10.00">src/cdt.cpp</text>
</a>
</g>
</g>
<!-- Node6&#45;&gt;Node7 -->
<g id="edge6_Node000006_Node000007" class="edge">
<title>Node6&#45;&gt;Node7</title>
<g id="a_edge6_Node000006_Node000007"><a xlink:title=" ">
<path fill="none" stroke="#63b8ff" d="M357.87,-52.77C387.3,-43.01 426.55,-29.98 453.1,-21.17"/>
<polygon fill="#63b8ff" stroke="#63b8ff" points="356.95,-49.39 348.56,-55.86 359.15,-56.03 356.95,-49.39"/>
</a>
</g>
</g>
<!-- Node9 -->
<g id="Node000009" class="node">
<title>Node9</title>
<g id="a_Node000009"><a xlink:href="_move__always_8hpp.html" target="_top" xlink:title="Randomly selects moves to always perform on triangulations.">
<polygon fill="white" stroke="#666666" points="175.62,-20.75 33.62,-20.75 33.62,0 175.62,0 175.62,-20.75"/>
<text xml:space="preserve" text-anchor="middle" x="104.62" y="-7.25" font-family="Helvetica,sans-Serif" font-size="10.00">include/Move_always.hpp</text>
</a>
</g>
</g>
<!-- Node8&#45;&gt;Node9 -->
<g id="edge8_Node000008_Node000009" class="edge">
<title>Node8&#45;&gt;Node9</title>
<g id="a_edge8_Node000008_Node000009"><a xlink:title=" ">
<path fill="none" stroke="#63b8ff" d="M140.37,-48.3C131.61,-39.25 121.31,-28.61 114.02,-21.08"/>
<polygon fill="#63b8ff" stroke="#63b8ff" points="137.63,-50.5 147.1,-55.25 142.66,-45.63 137.63,-50.5"/>
</a>
</g>
</g>
<!-- Node12&#45;&gt;Node5 -->
<g id="edge13_Node000012_Node000005" class="edge">
<title>Node12&#45;&gt;Node5</title>
<g id="a_edge13_Node000012_Node000005"><a xlink:title=" ">
<path fill="none" stroke="#63b8ff" d="M135.1,-231.58C123.21,-218.11 111.55,-199.15 120.62,-183 129.6,-167.03 145.71,-155.42 161.52,-147.29"/>
<polygon fill="#63b8ff" stroke="#63b8ff" points="132.24,-233.66 141.68,-238.46 137.3,-228.82 132.24,-233.66"/>
</a>
</g>
</g>
<!-- Node13 -->
<g id="Node000013" class="node">
<title>Node13</title>
<g id="a_Node000013"><a xlink:href="_move__outcome_8hpp.html" target="_top" xlink:title="Structured Pachner&#45;move failures and transition outcomes.">
<polygon fill="white" stroke="#666666" points="279.75,-203.75 129.5,-203.75 129.5,-183 279.75,-183 279.75,-203.75"/>
<text xml:space="preserve" text-anchor="middle" x="204.62" y="-190.25" font-family="Helvetica,sans-Serif" font-size="10.00">include/Move_outcome.hpp</text>
</a>
</g>
</g>
<!-- Node12&#45;&gt;Node13 -->
<g id="edge14_Node000012_Node000013" class="edge">
<title>Node12&#45;&gt;Node13</title>
<g id="a_edge14_Node000012_Node000013"><a xlink:title=" ">
<path fill="none" stroke="#63b8ff" d="M170.49,-231.02C178.86,-222.03 188.65,-211.53 195.59,-204.08"/>
<polygon fill="#63b8ff" stroke="#63b8ff" points="168.03,-228.53 163.77,-238.23 173.15,-233.3 168.03,-228.53"/>
</a>
</g>
</g>
<!-- Node14 -->
<g id="Node000014" class="node">
<title>Node14</title>
<g id="a_Node000014"><a xlink:href="_move__run_8hpp.html" target="_top" xlink:title="Shared value&#45;oriented orchestration for ergodic&#45;move strategies.">
<polygon fill="white" stroke="#666666" points="123.25,-140.62 0,-140.62 0,-119.88 123.25,-119.88 123.25,-140.62"/>
<text xml:space="preserve" text-anchor="middle" x="61.62" y="-127.12" font-family="Helvetica,sans-Serif" font-size="10.00">include/Move_run.hpp</text>
</a>
</g>
</g>
<!-- Node12&#45;&gt;Node14 -->
<g id="edge16_Node000012_Node000014" class="edge">
<title>Node12&#45;&gt;Node14</title>
<g id="a_edge16_Node000012_Node000014"><a xlink:title=" ">
<path fill="none" stroke="#63b8ff" d="M136.83,-230.92C129.51,-222.77 120.94,-212.94 113.62,-203.75 96.26,-181.94 77.61,-154.96 68.06,-140.86"/>
<polygon fill="#63b8ff" stroke="#63b8ff" points="134.1,-233.12 143.41,-238.16 139.28,-228.41 134.1,-233.12"/>
</a>
</g>
</g>
<!-- Node13&#45;&gt;Node5 -->
<g id="edge15_Node000013_Node000005" class="edge">
<title>Node13&#45;&gt;Node5</title>
<g id="a_edge15_Node000013_Node000005"><a xlink:title=" ">
<path fill="none" stroke="#63b8ff" d="M204.97,-171.09C205.1,-163.35 205.24,-154.72 205.36,-147.48"/>
<polygon fill="#63b8ff" stroke="#63b8ff" points="201.47,-170.98 204.81,-181.04 208.47,-171.1 201.47,-170.98"/>
</a>
</g>
</g>
<!-- Node14&#45;&gt;Node6 -->
<g id="edge17_Node000014_Node000006" class="edge">
<title>Node14&#45;&gt;Node6</title>
<g id="a_edge17_Node000014_Node000006"><a xlink:title=" ">
<path fill="none" stroke="#63b8ff" d="M113.87,-116.77C161.99,-105.29 232.41,-88.47 276.6,-77.92"/>
<polygon fill="#63b8ff" stroke="#63b8ff" points="113.14,-113.35 104.23,-119.08 114.77,-120.16 113.14,-113.35"/>
</a>
</g>
</g>
<!-- Node14&#45;&gt;Node9 -->
<g id="edge18_Node000014_Node000009" class="edge">
<title>Node14&#45;&gt;Node9</title>
<g id="a_edge18_Node000014_Node000009"><a xlink:title=" ">
<path fill="none" stroke="#63b8ff" d="M61.41,-107.98C61.94,-93.13 64.02,-73.13 70.62,-56.75 76.15,-43.06 86.87,-29.83 94.8,-21.23"/>
<polygon fill="#63b8ff" stroke="#63b8ff" points="57.91,-107.92 61.29,-117.96 64.91,-108 57.91,-107.92"/>
</a>
</g>
</g>
<!-- Node15&#45;&gt;Node7 -->
<g id="edge20_Node000015_Node000007" class="edge">
<title>Node15&#45;&gt;Node7</title>
<g id="a_edge20_Node000015_Node000007"><a xlink:title=" ">
<path fill="none" stroke="#63b8ff" d="M646.05,-171.6C643.12,-154.67 637.03,-130.83 624.62,-113.5 592.72,-68.93 535.21,-36.44 504.07,-21.15"/>
<polygon fill="#63b8ff" stroke="#63b8ff" points="642.52,-171.63 647.45,-181.01 649.44,-170.61 642.52,-171.63"/>
</a>
</g>
</g>
<!-- Node15&#45;&gt;Node11 -->
<g id="edge21_Node000015_Node000011" class="edge">
<title>Node15&#45;&gt;Node11</title>
<g id="a_edge21_Node000015_Node000011"><a xlink:title=" ">
<path fill="none" stroke="#63b8ff" d="M626.64,-175.78C611.9,-164.66 592.99,-150.39 580.61,-141.05"/>
<polygon fill="#63b8ff" stroke="#63b8ff" points="624.31,-178.41 634.4,-181.64 628.53,-172.83 624.31,-178.41"/>
</a>
</g>
</g>
</g>
</svg>
