<?xml version="1.0" encoding="UTF-8" standalone="no"?>
<!DOCTYPE svg PUBLIC "-//W3C//DTD SVG 1.1//EN"
 "http://www.w3.org/Graphics/SVG/1.1/DTD/svg11.dtd">
<!-- Generated by graphviz version 2.43.0 (0)
 -->
<!-- Title: include/Utilities.hpp Pages: 1 -->
<!--zoomable 542 -->
<svg id="main" version="1.1" xmlns="http://www.w3.org/2000/svg" xmlns:xlink="http://www.w3.org/1999/xlink" xml:space="preserve" onload="init(evt)">
<style type="text/css"><![CDATA[
.edge:hover path { stroke: red; }
.edge:hover polygon { stroke: red; fill: red; }
]]></style>
<script type="text/javascript"><![CDATA[
var edges = document.getElementsByTagName('g');
if (edges && edges.length) {
  for (var i=0;i<edges.length;i++) {
    if (edges[i].id.substr(0,4)=='edge') {
      edges[i].setAttribute('class','edge');
    }
  }
}
]]></script>
        <defs>
                <circle id="rim" cx="0" cy="0" r="7"/>
                <circle id="rim2" cx="0" cy="0" r="3.5"/>
                <g id="zoomPlus">
                        <use xlink:href="#rim" fill="#404040">
                                <set attributeName="fill" to="#808080" begin="zoomplus.mouseover" end="zoomplus.mouseout"/>
                        </use>
                        <path d="M-4,0h8M0,-4v8" fill="none" stroke="white" stroke-width="1.5" pointer-events="none"/>
                </g>
                <g id="zoomMin">
                        <use xlink:href="#rim" fill="#404040">
                                <set attributeName="fill" to="#808080" begin="zoomminus.mouseover" end="zoomminus.mouseout"/>
                        </use>
                        <path d="M-4,0h8" fill="none" stroke="white" stroke-width="1.5" pointer-events="none"/>
                </g>
                <g id="dirArrow">
                        <path fill="none" stroke="white" stroke-width="1.5" d="M0,-3.0v7 M-2.5,-0.5L0,-3.0L2.5,-0.5"/>
                </g>
               <g id="resetDef">
                       <use xlink:href="#rim2" fill="#404040">
                               <set attributeName="fill" to="#808080" begin="reset.mouseover" end="reset.mouseout"/>
                       </use>
               </g>
        </defs>

<script type="text/javascript">
var viewWidth = 1058;
var viewHeight = 542;
var sectionId = 'dynsection-1';
</script>
<script xlink:href="svgpan.js"/>
<svg id="graph" class="graph">
<g id="viewport">
<title>include/Utilities.hpp</title>
<polygon fill="white" stroke="transparent" points="-4,4 -4,-538 1053.5,-538 1053.5,4 -4,4"/>
<!-- Node1 -->
<g id="node1" class="node">
<title>Node1</title>
<g id="a_node1"><a xlink:title="Utility functions.">
<polygon fill="#bfbfbf" stroke="black" points="725.5,-514.5 725.5,-533.5 839.5,-533.5 839.5,-514.5 725.5,-514.5"/>
<text text-anchor="middle" x="782.5" y="-521.5" font-family="Helvetica,sans-Serif" font-size="10.00">include/Utilities.hpp</text>
</a>
</g>
</g>
<!-- Node2 -->
<g id="node2" class="node">
<title>Node2</title>
<g id="a_node2"><a xlink:href="_foliated__triangulation_8hpp.html" target="_top" xlink:title="Create foliated spherical triangulations.">
<polygon fill="white" stroke="black" points="599.5,-458.5 599.5,-477.5 781.5,-477.5 781.5,-458.5 599.5,-458.5"/>
<text text-anchor="middle" x="690.5" y="-465.5" font-family="Helvetica,sans-Serif" font-size="10.00">include/Foliated_triangulation.hpp</text>
</a>
</g>
</g>
<!-- Node1&#45;&gt;Node2 -->
<g id="edge1" class="edge">
<title>Node1&#45;&gt;Node2</title>
<path fill="none" stroke="midnightblue" d="M758.95,-509.18C742.02,-499.24 719.72,-486.15 705.24,-477.65"/>
<polygon fill="midnightblue" stroke="midnightblue" points="757.32,-512.28 767.72,-514.32 760.87,-506.24 757.32,-512.28"/>
</g>
<!-- Node26 -->
<g id="node26" class="node">
<title>Node26</title>
<g id="a_node26"><a xlink:href="_s3_triangulation_8hpp.html" target="_top" xlink:title="Functions on 3D Spherical Delaunay Triangulations.">
<polygon fill="white" stroke="black" points="818,-458.5 818,-477.5 969,-477.5 969,-458.5 818,-458.5"/>
<text text-anchor="middle" x="893.5" y="-465.5" font-family="Helvetica,sans-Serif" font-size="10.00">include/S3Triangulation.hpp</text>
</a>
</g>
</g>
<!-- Node1&#45;&gt;Node26 -->
<g id="edge25" class="edge">
<title>Node1&#45;&gt;Node26</title>
<path fill="none" stroke="midnightblue" d="M809.51,-509.86C830.09,-499.85 857.84,-486.35 875.71,-477.65"/>
<polygon fill="midnightblue" stroke="midnightblue" points="807.8,-506.8 800.33,-514.32 810.86,-513.1 807.8,-506.8"/>
</g>
<!-- Node3 -->
<g id="node3" class="node">
<title>Node3</title>
<g id="a_node3"><a xlink:href="_geometry_8hpp.html" target="_top" xlink:title="Geometric quantities of Manifold used by MoveAlgorithm.">
<polygon fill="white" stroke="black" points="593,-397 593,-416 716,-416 716,-397 593,-397"/>
<text text-anchor="middle" x="654.5" y="-404" font-family="Helvetica,sans-Serif" font-size="10.00">include/Geometry.hpp</text>
</a>
</g>
</g>
<!-- Node2&#45;&gt;Node3 -->
<g id="edge2" class="edge">
<title>Node2&#45;&gt;Node3</title>
<path fill="none" stroke="midnightblue" d="M680.02,-449.67C673.32,-438.61 664.94,-424.75 659.65,-416.01"/>
<polygon fill="midnightblue" stroke="midnightblue" points="677.17,-451.73 685.34,-458.48 683.16,-448.11 677.17,-451.73"/>
</g>
<!-- Node24 -->
<g id="node24" class="node">
<title>Node24</title>
<g id="a_node24"><a xlink:href="_foliated__triangulation__test_8cpp.html" target="_top" xlink:title="Tests for foliated triangulations.">
<polygon fill="white" stroke="black" points="734.5,-391.5 734.5,-421.5 884.5,-421.5 884.5,-391.5 734.5,-391.5"/>
<text text-anchor="start" x="742.5" y="-409.5" font-family="Helvetica,sans-Serif" font-size="10.00">tests/Foliated_triangulation</text>
<text text-anchor="middle" x="809.5" y="-398.5" font-family="Helvetica,sans-Serif" font-size="10.00">_test.cpp</text>
</a>
</g>
</g>
<!-- Node2&#45;&gt;Node24 -->
<g id="edge23" class="edge">
<title>Node2&#45;&gt;Node24</title>
<path fill="none" stroke="midnightblue" d="M716.62,-453.94C735.81,-444.35 761.83,-431.33 781.45,-421.52"/>
<polygon fill="midnightblue" stroke="midnightblue" points="714.93,-450.87 707.55,-458.48 718.06,-457.13 714.93,-450.87"/>
</g>
<!-- Node25 -->
<g id="node25" class="node">
<title>Node25</title>
<g id="a_node25"><a xlink:href="_tetrahedron__test_8cpp.html" target="_top" xlink:title="Tests for 3D triangulated and foliated tetrahedrons.">
<polygon fill="white" stroke="black" points="428.5,-397 428.5,-416 574.5,-416 574.5,-397 428.5,-397"/>
<text text-anchor="middle" x="501.5" y="-404" font-family="Helvetica,sans-Serif" font-size="10.00">tests/Tetrahedron_test.cpp</text>
</a>
</g>
</g>
<!-- Node2&#45;&gt;Node25 -->
<g id="edge24" class="edge">
<title>Node2&#45;&gt;Node25</title>
<path fill="none" stroke="midnightblue" d="M653.59,-455.38C616.85,-443.82 561.35,-426.34 528.53,-416.01"/>
<polygon fill="midnightblue" stroke="midnightblue" points="652.83,-458.81 663.42,-458.48 654.93,-452.13 652.83,-458.81"/>
</g>
<!-- Node4 -->
<g id="node4" class="node">
<title>Node4</title>
<g id="a_node4"><a xlink:href="_manifold_8hpp.html" target="_top" xlink:title="Data structures for manifolds.">
<polygon fill="white" stroke="black" points="443,-335.5 443,-354.5 562,-354.5 562,-335.5 443,-335.5"/>
<text text-anchor="middle" x="502.5" y="-342.5" font-family="Helvetica,sans-Serif" font-size="10.00">include/Manifold.hpp</text>
</a>
</g>
</g>
<!-- Node3&#45;&gt;Node4 -->
<g id="edge3" class="edge">
<title>Node3&#45;&gt;Node4</title>
<path fill="none" stroke="midnightblue" d="M623.29,-393.28C593.75,-381.72 550.18,-364.66 524.24,-354.51"/>
<polygon fill="midnightblue" stroke="midnightblue" points="622.13,-396.59 632.72,-396.98 624.69,-390.07 622.13,-396.59"/>
</g>
<!-- Node23 -->
<g id="node23" class="node">
<title>Node23</title>
<g id="a_node23"><a xlink:href="_geometry__test_8cpp.html" target="_top" xlink:title="Tests of new geometry data structure.">
<polygon fill="white" stroke="black" points="586,-335.5 586,-354.5 723,-354.5 723,-335.5 586,-335.5"/>
<text text-anchor="middle" x="654.5" y="-342.5" font-family="Helvetica,sans-Serif" font-size="10.00">tests/Geometry_test.cpp</text>
</a>
</g>
</g>
<!-- Node3&#45;&gt;Node23 -->
<g id="edge22" class="edge">
<title>Node3&#45;&gt;Node23</title>
<path fill="none" stroke="midnightblue" d="M654.5,-386.82C654.5,-376 654.5,-362.9 654.5,-354.51"/>
<polygon fill="midnightblue" stroke="midnightblue" points="651,-386.98 654.5,-396.98 658,-386.98 651,-386.98"/>
</g>
<!-- Node5 -->
<g id="node5" class="node">
<title>Node5</title>
<g id="a_node5"><a xlink:href="_ergodic__moves__3_8hpp.html" target="_top" xlink:title="Pachner moves on 2+1 dimensional foliated Delaunay triangulations.">
<polygon fill="white" stroke="black" points="580,-268.5 580,-298.5 709,-298.5 709,-268.5 580,-268.5"/>
<text text-anchor="start" x="588" y="-286.5" font-family="Helvetica,sans-Serif" font-size="10.00">include/Ergodic_moves</text>
<text text-anchor="middle" x="644.5" y="-275.5" font-family="Helvetica,sans-Serif" font-size="10.00">_3.hpp</text>
</a>
</g>
</g>
<!-- Node4&#45;&gt;Node5 -->
<g id="edge4" class="edge">
<title>Node4&#45;&gt;Node5</title>
<path fill="none" stroke="midnightblue" d="M532.12,-331.59C555.14,-321.94 587.09,-308.56 611.03,-298.52"/>
<polygon fill="midnightblue" stroke="midnightblue" points="530.72,-328.38 522.85,-335.48 533.42,-334.84 530.72,-328.38"/>
</g>
<!-- Node18 -->
<g id="node18" class="node">
<title>Node18</title>
<g id="a_node18"><a xlink:href="initialize_8cpp.html" target="_top" xlink:title="Generates initial spacetimes.">
<polygon fill="white" stroke="black" points="727.5,-274 727.5,-293 823.5,-293 823.5,-274 727.5,-274"/>
<text text-anchor="middle" x="775.5" y="-281" font-family="Helvetica,sans-Serif" font-size="10.00">src/initialize.cpp</text>
</a>
</g>
</g>
<!-- Node4&#45;&gt;Node18 -->
<g id="edge17" class="edge">
<title>Node4&#45;&gt;Node18</title>
<path fill="none" stroke="midnightblue" d="M555.66,-333.47C599.25,-324.69 662.5,-311.63 717.5,-299 725.59,-297.14 734.29,-295.03 742.43,-293"/>
<polygon fill="midnightblue" stroke="midnightblue" points="554.96,-330.04 545.85,-335.44 556.34,-336.9 554.96,-330.04"/>
</g>
<!-- Node19 -->
<g id="node19" class="node">
<title>Node19</title>
<g id="a_node19"><a xlink:href="_manifold__test_8cpp.html" target="_top" xlink:title="Tests of new manifold data structure.">
<polygon fill="white" stroke="black" points="0,-274 0,-293 131,-293 131,-274 0,-274"/>
<text text-anchor="middle" x="65.5" y="-281" font-family="Helvetica,sans-Serif" font-size="10.00">tests/Manifold_test.cpp</text>
</a>
</g>
</g>
<!-- Node4&#45;&gt;Node19 -->
<g id="edge18" class="edge">
<title>Node4&#45;&gt;Node19</title>
<path fill="none" stroke="midnightblue" d="M432.87,-336.84C359.65,-328.96 241.17,-315.24 139.5,-299 128.77,-297.29 117.22,-295.16 106.51,-293.07"/>
<polygon fill="midnightblue" stroke="midnightblue" points="432.58,-340.33 442.9,-337.91 433.33,-333.37 432.58,-340.33"/>
</g>
<!-- Node20 -->
<g id="node20" class="node">
<title>Node20</title>
<g id="a_node20"><a xlink:href="_s3_action__test_8cpp.html" target="_top" xlink:title="Tests for the S3 action functions.">
<polygon fill="white" stroke="black" points="149,-274 149,-293 280,-293 280,-274 149,-274"/>
<text text-anchor="middle" x="214.5" y="-281" font-family="Helvetica,sans-Serif" font-size="10.00">tests/S3Action_test.cpp</text>
</a>
</g>
</g>
<!-- Node4&#45;&gt;Node20 -->
<g id="edge19" class="edge">
<title>Node4&#45;&gt;Node20</title>
<path fill="none" stroke="midnightblue" d="M451.2,-333.4C395.37,-321.87 307.19,-303.65 255.69,-293.01"/>
<polygon fill="midnightblue" stroke="midnightblue" points="450.74,-336.88 461.24,-335.48 452.15,-330.02 450.74,-336.88"/>
</g>
<!-- Node21 -->
<g id="node21" class="node">
<title>Node21</title>
<g id="a_node21"><a xlink:href="_utilities__test_8cpp.html" target="_top" xlink:title="Tests on utility functions.">
<polygon fill="white" stroke="black" points="298.5,-274 298.5,-293 424.5,-293 424.5,-274 298.5,-274"/>
<text text-anchor="middle" x="361.5" y="-281" font-family="Helvetica,sans-Serif" font-size="10.00">tests/Utilities_test.cpp</text>
</a>
</g>
</g>
<!-- Node4&#45;&gt;Node21 -->
<g id="edge20" class="edge">
<title>Node4&#45;&gt;Node21</title>
<path fill="none" stroke="midnightblue" d="M472.83,-331.48C445.45,-319.92 405.52,-303.08 381.66,-293.01"/>
<polygon fill="midnightblue" stroke="midnightblue" points="471.72,-334.81 482.3,-335.48 474.45,-328.36 471.72,-334.81"/>
</g>
<!-- Node22 -->
<g id="node22" class="node">
<title>Node22</title>
<g id="a_node22"><a xlink:href="_vertex__test_8cpp.html" target="_top" xlink:title="Tests on vertices in Delaunay triangulations.">
<polygon fill="white" stroke="black" points="443,-274 443,-293 562,-293 562,-274 443,-274"/>
<text text-anchor="middle" x="502.5" y="-281" font-family="Helvetica,sans-Serif" font-size="10.00">tests/Vertex_test.cpp</text>
</a>
</g>
</g>
<!-- Node4&#45;&gt;Node22 -->
<g id="edge21" class="edge">
<title>Node4&#45;&gt;Node22</title>
<path fill="none" stroke="midnightblue" d="M502.5,-325.32C502.5,-314.5 502.5,-301.4 502.5,-293.01"/>
<polygon fill="midnightblue" stroke="midnightblue" points="499,-325.48 502.5,-335.48 506,-325.48 499,-325.48"/>
</g>
<!-- Node6 -->
<g id="node6" class="node">
<title>Node6</title>
<g id="a_node6"><a xlink:href="_move__command_8hpp.html" target="_top" xlink:title="Do ergodic moves using the Command pattern.">
<polygon fill="white" stroke="black" points="566,-207 566,-226 723,-226 723,-207 566,-207"/>
<text text-anchor="middle" x="644.5" y="-214" font-family="Helvetica,sans-Serif" font-size="10.00">include/Move_command.hpp</text>
</a>
</g>
</g>
<!-- Node5&#45;&gt;Node6 -->
<g id="edge5" class="edge">
<title>Node5&#45;&gt;Node6</title>
<path fill="none" stroke="midnightblue" d="M644.5,-258.25C644.5,-247.02 644.5,-234.38 644.5,-226.19"/>
<polygon fill="midnightblue" stroke="midnightblue" points="641,-258.4 644.5,-268.4 648,-258.4 641,-258.4"/>
</g>
<!-- Node15 -->
<g id="node15" class="node">
<title>Node15</title>
<g id="a_node15"><a xlink:href="_apply__move__test_8cpp.html" target="_top" xlink:title="Applying ergodic moves to manifolds.">
<polygon fill="white" stroke="black" points="741,-207 741,-226 890,-226 890,-207 741,-207"/>
<text text-anchor="middle" x="815.5" y="-214" font-family="Helvetica,sans-Serif" font-size="10.00">tests/Apply_move_test.cpp</text>
</a>
</g>
</g>
<!-- Node5&#45;&gt;Node15 -->
<g id="edge14" class="edge">
<title>Node5&#45;&gt;Node15</title>
<path fill="none" stroke="midnightblue" d="M691.11,-264.78C724.26,-252.18 767.34,-235.81 793.12,-226.01"/>
<polygon fill="midnightblue" stroke="midnightblue" points="689.71,-261.57 681.6,-268.4 692.2,-268.11 689.71,-261.57"/>
</g>
<!-- Node16 -->
<g id="node16" class="node">
<title>Node16</title>
<g id="a_node16"><a xlink:href="_ergodic__moves__3__test_8cpp.html" target="_top" xlink:title="Tests for ergodic moves on foliated triangulations.">
<polygon fill="white" stroke="black" points="307.5,-201.5 307.5,-231.5 425.5,-231.5 425.5,-201.5 307.5,-201.5"/>
<text text-anchor="start" x="315.5" y="-219.5" font-family="Helvetica,sans-Serif" font-size="10.00">tests/Ergodic_moves</text>
<text text-anchor="middle" x="366.5" y="-208.5" font-family="Helvetica,sans-Serif" font-size="10.00">_3_test.cpp</text>
</a>
</g>
</g>
<!-- Node5&#45;&gt;Node16 -->
<g id="edge15" class="edge">
<title>Node5&#45;&gt;Node16</title>
<path fill="none" stroke="midnightblue" d="M574.66,-266.17C528.8,-255.45 469.47,-241.58 425.89,-231.39"/>
<polygon fill="midnightblue" stroke="midnightblue" points="573.99,-269.61 584.52,-268.48 575.58,-262.79 573.99,-269.61"/>
</g>
<!-- Node17 -->
<g id="node17" class="node">
<title>Node17</title>
<g id="a_node17"><a xlink:href="_function__ref__test_8cpp_source.html" target="_top" xlink:title=" ">
<polygon fill="white" stroke="black" points="443.5,-201.5 443.5,-231.5 547.5,-231.5 547.5,-201.5 443.5,-201.5"/>
<text text-anchor="start" x="451.5" y="-219.5" font-family="Helvetica,sans-Serif" font-size="10.00">tests/Function_ref</text>
<text text-anchor="middle" x="495.5" y="-208.5" font-family="Helvetica,sans-Serif" font-size="10.00">_test.cpp</text>
</a>
</g>
</g>
<!-- Node5&#45;&gt;Node17 -->
<g id="edge16" class="edge">
<title>Node5&#45;&gt;Node17</title>
<path fill="none" stroke="midnightblue" d="M602.71,-264.27C578.98,-253.92 549.72,-241.15 527.77,-231.58"/>
<polygon fill="midnightblue" stroke="midnightblue" points="601.6,-267.61 612.17,-268.4 604.4,-261.19 601.6,-267.61"/>
</g>
<!-- Node7 -->
<g id="node7" class="node">
<title>Node7</title>
<g id="a_node7"><a xlink:href="_move__strategy_8hpp.html" target="_top" xlink:title="Base class for move algorithms on Delaunay Triangulations.">
<polygon fill="white" stroke="black" points="471,-140 471,-159 618,-159 618,-140 471,-140"/>
<text text-anchor="middle" x="544.5" y="-147" font-family="Helvetica,sans-Serif" font-size="10.00">include/Move_strategy.hpp</text>
</a>
</g>
</g>
<!-- Node6&#45;&gt;Node7 -->
<g id="edge6" class="edge">
<title>Node6&#45;&gt;Node7</title>
<path fill="none" stroke="midnightblue" d="M622.61,-201.27C602.81,-188.4 574.31,-169.88 557.77,-159.13"/>
<polygon fill="midnightblue" stroke="midnightblue" points="620.72,-204.22 631.01,-206.73 624.54,-198.35 620.72,-204.22"/>
</g>
<!-- Node14 -->
<g id="node14" class="node">
<title>Node14</title>
<g id="a_node14"><a xlink:href="_move__command__test_8cpp.html" target="_top" xlink:title="Tests of MoveCommand, that is, that moves are handled properly.">
<polygon fill="white" stroke="black" points="636,-134.5 636,-164.5 761,-164.5 761,-134.5 636,-134.5"/>
<text text-anchor="start" x="644" y="-152.5" font-family="Helvetica,sans-Serif" font-size="10.00">tests/Move_command</text>
<text text-anchor="middle" x="698.5" y="-141.5" font-family="Helvetica,sans-Serif" font-size="10.00">_test.cpp</text>
</a>
</g>
</g>
<!-- Node6&#45;&gt;Node14 -->
<g id="edge13" class="edge">
<title>Node6&#45;&gt;Node14</title>
<path fill="none" stroke="midnightblue" d="M658.22,-198.99C667.04,-188.36 678.39,-174.7 686.8,-164.59"/>
<polygon fill="midnightblue" stroke="midnightblue" points="655.48,-196.81 651.78,-206.73 660.87,-201.28 655.48,-196.81"/>
</g>
<!-- Node8 -->
<g id="node8" class="node">
<title>Node8</title>
<g id="a_node8"><a xlink:href="_metropolis_8hpp.html" target="_top" xlink:title="Perform Metropolis&#45;Hastings algorithm on Delaunay Triangulations.">
<polygon fill="white" stroke="black" points="769.5,-73 769.5,-92 897.5,-92 897.5,-73 769.5,-73"/>
<text text-anchor="middle" x="833.5" y="-80" font-family="Helvetica,sans-Serif" font-size="10.00">include/Metropolis.hpp</text>
</a>
</g>
</g>
<!-- Node7&#45;&gt;Node8 -->
<g id="edge7" class="edge">
<title>Node7&#45;&gt;Node8</title>
<path fill="none" stroke="midnightblue" d="M592.41,-137.72C649.32,-124.92 743.09,-103.83 795.34,-92.08"/>
<polygon fill="midnightblue" stroke="midnightblue" points="591.57,-134.33 582.58,-139.94 593.1,-141.16 591.57,-134.33"/>
</g>
<!-- Node11 -->
<g id="node11" class="node">
<title>Node11</title>
<g id="a_node11"><a xlink:href="_move__always_8hpp.html" target="_top" xlink:title="Randomly selects moves to always perform on triangulations.">
<polygon fill="white" stroke="black" points="462,-73 462,-92 605,-92 605,-73 462,-73"/>
<text text-anchor="middle" x="533.5" y="-80" font-family="Helvetica,sans-Serif" font-size="10.00">include/Move_always.hpp</text>
</a>
</g>
</g>
<!-- Node7&#45;&gt;Node11 -->
<g id="edge10" class="edge">
<title>Node7&#45;&gt;Node11</title>
<path fill="none" stroke="midnightblue" d="M541.29,-129.54C539.2,-117.17 536.57,-101.62 534.96,-92.13"/>
<polygon fill="midnightblue" stroke="midnightblue" points="537.9,-130.46 543.02,-139.73 544.8,-129.29 537.9,-130.46"/>
</g>
<!-- Node9 -->
<g id="node9" class="node">
<title>Node9</title>
<g id="a_node9"><a xlink:href="cdt-opt_8cpp.html" target="_top" xlink:title="Outputs values to determine optimizations.">
<polygon fill="white" stroke="black" points="789,-6 789,-25 878,-25 878,-6 789,-6"/>
<text text-anchor="middle" x="833.5" y="-13" font-family="Helvetica,sans-Serif" font-size="10.00">src/cdt&#45;opt.cpp</text>
</a>
</g>
</g>
<!-- Node8&#45;&gt;Node9 -->
<g id="edge8" class="edge">
<title>Node8&#45;&gt;Node9</title>
<path fill="none" stroke="midnightblue" d="M833.5,-62.54C833.5,-50.17 833.5,-34.62 833.5,-25.13"/>
<polygon fill="midnightblue" stroke="midnightblue" points="830,-62.73 833.5,-72.73 837,-62.73 830,-62.73"/>
</g>
<!-- Node10 -->
<g id="node10" class="node">
<title>Node10</title>
<g id="a_node10"><a xlink:href="cdt_8cpp.html" target="_top" xlink:title="The main executable.">
<polygon fill="white" stroke="black" points="702,-6 702,-25 771,-25 771,-6 702,-6"/>
<text text-anchor="middle" x="736.5" y="-13" font-family="Helvetica,sans-Serif" font-size="10.00">src/cdt.cpp</text>
</a>
</g>
</g>
<!-- Node8&#45;&gt;Node10 -->
<g id="edge9" class="edge">
<title>Node8&#45;&gt;Node10</title>
<path fill="none" stroke="midnightblue" d="M812,-67.09C792.81,-54.24 765.35,-35.83 749.37,-25.13"/>
<polygon fill="midnightblue" stroke="midnightblue" points="810.16,-70.07 820.42,-72.73 814.06,-64.26 810.16,-70.07"/>
</g>
<!-- Node12 -->
<g id="node12" class="node">
<title>Node12</title>
<g id="a_node12"><a xlink:href="_move__strategies__test_8cpp.html" target="_top" xlink:title="Tests for the Metropolis&#45;Hastings algorithm.">
<polygon fill="white" stroke="black" points="404,-0.5 404,-30.5 529,-30.5 529,-0.5 404,-0.5"/>
<text text-anchor="start" x="412" y="-18.5" font-family="Helvetica,sans-Serif" font-size="10.00">tests/Move_strategies</text>
<text text-anchor="middle" x="466.5" y="-7.5" font-family="Helvetica,sans-Serif" font-size="10.00">_test.cpp</text>
</a>
</g>
</g>
<!-- Node11&#45;&gt;Node12 -->
<g id="edge11" class="edge">
<title>Node11&#45;&gt;Node12</title>
<path fill="none" stroke="midnightblue" d="M517.13,-65.62C506.09,-54.91 491.65,-40.9 481.02,-30.59"/>
<polygon fill="midnightblue" stroke="midnightblue" points="514.85,-68.28 524.46,-72.73 519.72,-63.26 514.85,-68.28"/>
</g>
<!-- Node13 -->
<g id="node13" class="node">
<title>Node13</title>
<g id="a_node13"><a xlink:href="_simulation_test_8cpp_source.html" target="_top" xlink:title=" ">
<polygon fill="white" stroke="black" points="547.5,-6 547.5,-25 683.5,-25 683.5,-6 547.5,-6"/>
<text text-anchor="middle" x="615.5" y="-13" font-family="Helvetica,sans-Serif" font-size="10.00">tests/SimulationTest.cpp</text>
</a>
</g>
</g>
<!-- Node11&#45;&gt;Node13 -->
<g id="edge12" class="edge">
<title>Node11&#45;&gt;Node13</title>
<path fill="none" stroke="midnightblue" d="M552.78,-66.21C568.94,-53.41 591.42,-35.59 604.62,-25.13"/>
<polygon fill="midnightblue" stroke="midnightblue" points="550.22,-63.78 544.56,-72.73 554.57,-69.26 550.22,-63.78"/>
</g>
<!-- Node27 -->
<g id="node27" class="node">
<title>Node27</title>
<g id="a_node27"><a xlink:href="_simplicial_manifold_8hpp.html" target="_top" xlink:title="Data structures for simplicial manifolds.">
<polygon fill="white" stroke="black" points="834,-140 834,-159 1001,-159 1001,-140 834,-140"/>
<text text-anchor="middle" x="917.5" y="-147" font-family="Helvetica,sans-Serif" font-size="10.00">include/SimplicialManifold.hpp</text>
</a>
</g>
</g>
<!-- Node26&#45;&gt;Node27 -->
<g id="edge26" class="edge">
<title>Node26&#45;&gt;Node27</title>
<path fill="none" stroke="midnightblue" d="M899.47,-448.63C906.58,-425.12 917.5,-382.98 917.5,-346 917.5,-346 917.5,-346 917.5,-282.5 917.5,-235.98 917.5,-180.24 917.5,-159.15"/>
<polygon fill="midnightblue" stroke="midnightblue" points="896.09,-447.72 896.44,-458.31 902.77,-449.82 896.09,-447.72"/>
</g>
<!-- Node28 -->
<g id="node28" class="node">
<title>Node28</title>
<g id="a_node28"><a xlink:href="_simulation_8hpp.html" target="_top" xlink:title="Simulation class.">
<polygon fill="white" stroke="black" points="623.5,-73 623.5,-92 751.5,-92 751.5,-73 623.5,-73"/>
<text text-anchor="middle" x="687.5" y="-80" font-family="Helvetica,sans-Serif" font-size="10.00">include/Simulation.hpp</text>
</a>
</g>
</g>
<!-- Node27&#45;&gt;Node28 -->
<g id="edge27" class="edge">
<title>Node27&#45;&gt;Node28</title>
<path fill="none" stroke="midnightblue" d="M877.13,-137.09C831.63,-124.23 758.69,-103.62 717.8,-92.06"/>
<polygon fill="midnightblue" stroke="midnightblue" points="876.38,-140.52 886.96,-139.87 878.29,-133.78 876.38,-140.52"/>
</g>
<!-- Node29 -->
<g id="node29" class="node">
<title>Node29</title>
<g id="a_node29"><a xlink:href="_simplicial_manifold_test_8cpp_source.html" target="_top" xlink:title=" ">
<polygon fill="white" stroke="black" points="915.5,-67.5 915.5,-97.5 1049.5,-97.5 1049.5,-67.5 915.5,-67.5"/>
<text text-anchor="start" x="923.5" y="-85.5" font-family="Helvetica,sans-Serif" font-size="10.00">tests/SimplicialManifold</text>
<text text-anchor="middle" x="982.5" y="-74.5" font-family="Helvetica,sans-Serif" font-size="10.00">Test.cpp</text>
</a>
</g>
</g>
<!-- Node27&#45;&gt;Node29 -->
<g id="edge31" class="edge">
<title>Node27&#45;&gt;Node29</title>
<path fill="none" stroke="midnightblue" d="M933.38,-132.62C944.09,-121.91 958.1,-107.9 968.41,-97.59"/>
<polygon fill="midnightblue" stroke="midnightblue" points="930.86,-130.19 926.27,-139.73 935.81,-135.14 930.86,-130.19"/>
</g>
<!-- Node28&#45;&gt;Node9 -->
<g id="edge28" class="edge">
<title>Node28&#45;&gt;Node9</title>
<path fill="none" stroke="midnightblue" d="M716.07,-68.78C744.98,-55.91 788.9,-36.35 814.03,-25.17"/>
<polygon fill="midnightblue" stroke="midnightblue" points="714.6,-65.6 706.89,-72.87 717.45,-72 714.6,-65.6"/>
</g>
<!-- Node28&#45;&gt;Node10 -->
<g id="edge29" class="edge">
<title>Node28&#45;&gt;Node10</title>
<path fill="none" stroke="midnightblue" d="M700.39,-64.4C709.91,-51.77 722.48,-35.1 730,-25.13"/>
<polygon fill="midnightblue" stroke="midnightblue" points="697.33,-62.64 694.11,-72.73 702.92,-66.86 697.33,-62.64"/>
</g>
<!-- Node28&#45;&gt;Node13 -->
<g id="edge30" class="edge">
<title>Node28&#45;&gt;Node13</title>
<path fill="none" stroke="midnightblue" d="M670.17,-65.86C656.02,-53.08 636.54,-35.49 625.06,-25.13"/>
<polygon fill="midnightblue" stroke="midnightblue" points="668.02,-68.63 677.79,-72.73 672.71,-63.43 668.02,-68.63"/>
</g>
</g>
</svg>
        <g id="navigator" transform="translate(0 0)" fill="#404254">
                <rect fill="#f2f5e9" fill-opacity="0.5" stroke="#606060" stroke-width=".5" x="0" y="0" width="60" height="60"/>
                <use id="zoomplus" xlink:href="#zoomPlus" x="17" y="9" onmousedown="handleZoom(evt,'in')"/>
                <use id="zoomminus" xlink:href="#zoomMin" x="42" y="9" onmousedown="handleZoom(evt,'out')"/>
                <use id="reset" xlink:href="#resetDef" x="30" y="36" onmousedown="handleReset()"/>
                <g id="arrowUp" xlink:href="#dirArrow" transform="translate(30 24)" onmousedown="handlePan(0,-1)">
                  <use xlink:href="#rim" fill="#404040">
                        <set attributeName="fill" to="#808080" begin="arrowUp.mouseover" end="arrowUp.mouseout"/>
                  </use>
                  <path fill="none" stroke="white" stroke-width="1.5" d="M0,-3.0v7 M-2.5,-0.5L0,-3.0L2.5,-0.5"/>
                </g>
                <g id="arrowRight" xlink:href="#dirArrow" transform="rotate(90) translate(36 -43)" onmousedown="handlePan(1,0)">
                  <use xlink:href="#rim" fill="#404040">
                        <set attributeName="fill" to="#808080" begin="arrowRight.mouseover" end="arrowRight.mouseout"/>
                  </use>
                  <path fill="none" stroke="white" stroke-width="1.5" d="M0,-3.0v7 M-2.5,-0.5L0,-3.0L2.5,-0.5"/>
                </g>
                <g id="arrowDown" xlink:href="#dirArrow" transform="rotate(180) translate(-30 -48)" onmousedown="handlePan(0,1)">
                  <use xlink:href="#rim" fill="#404040">
                        <set attributeName="fill" to="#808080" begin="arrowDown.mouseover" end="arrowDown.mouseout"/>
                  </use>
                  <path fill="none" stroke="white" stroke-width="1.5" d="M0,-3.0v7 M-2.5,-0.5L0,-3.0L2.5,-0.5"/>
                </g>
                <g id="arrowLeft" xlink:href="#dirArrow" transform="rotate(270) translate(-36 17)" onmousedown="handlePan(-1,0)">
                  <use xlink:href="#rim" fill="#404040">
                        <set attributeName="fill" to="#808080" begin="arrowLeft.mouseover" end="arrowLeft.mouseout"/>
                  </use>
                  <path fill="none" stroke="white" stroke-width="1.5" d="M0,-3.0v7 M-2.5,-0.5L0,-3.0L2.5,-0.5"/>
                </g>
        </g>
        <svg viewBox="0 0 15 15" width="100%" height="30px" preserveAspectRatio="xMaxYMin meet">
         <g id="arrow_out" transform="scale(0.3 0.3)">
          <a xlink:href="_utilities_8hpp__dep__incl_org.svg" target="_base">
           <rect id="button" ry="5" rx="5" y="6" x="6" height="38" width="38"
                fill="#f2f5e9" fill-opacity="0.5" stroke="#606060" stroke-width="1.0"/>
           <path id="arrow"
             d="M 11.500037,31.436501 C 11.940474,20.09759 22.043105,11.32322 32.158766,21.979434 L 37.068811,17.246167 C 37.068811,17.246167 37.088388,32 37.088388,32 L 22.160133,31.978069 C 22.160133,31.978069 26.997745,27.140456 26.997745,27.140456 C 18.528582,18.264221 13.291696,25.230495 11.500037,31.436501 z"
             style="fill:#404040;"/>
          </a>
         </g>
        </svg>
</svg>
