<?xml version="1.0" encoding="UTF-8" standalone="no"?>
<!DOCTYPE svg PUBLIC "-//W3C//DTD SVG 1.1//EN"
 "http://www.w3.org/Graphics/SVG/1.1/DTD/svg11.dtd">
<!-- Generated by graphviz version 2.43.0 (0)
 -->
<!-- Title: tests/Vertex_test.cpp Pages: 1 -->
<svg width="2249pt" height="379pt"
 viewBox="0.00 0.00 2249.00 379.00" xmlns="http://www.w3.org/2000/svg" xmlns:xlink="http://www.w3.org/1999/xlink">
<g id="graph0" class="graph" transform="scale(1 1) rotate(0) translate(4 375)">
<title>tests/Vertex_test.cpp</title>
<!-- Node1 -->
<g id="node1" class="node">
<title>Node1</title>
<g id="a_node1"><a xlink:title="Tests on points and vertices in foliated Delaunay triangulations.">
<polygon fill="#999999" stroke="#666666" points="219.5,-371 100.5,-371 100.5,-352 219.5,-352 219.5,-371"/>
<text text-anchor="middle" x="160" y="-359" font-family="Helvetica,sans-Serif" font-size="10.00">tests/Vertex_test.cpp</text>
</a>
</g>
</g>
<!-- Node2 -->
<g id="node2" class="node">
<title>Node2</title>
<g id="a_node2"><a xlink:title=" ">
<polygon fill="#e0e0e0" stroke="#999999" points="102.5,-316 1.5,-316 1.5,-297 102.5,-297 102.5,-316"/>
<text text-anchor="middle" x="52" y="-304" font-family="Helvetica,sans-Serif" font-size="10.00">doctest/doctest.h</text>
</a>
</g>
</g>
<!-- Node1&#45;&gt;Node2 -->
<g id="edge1" class="edge">
<title>Node1&#45;&gt;Node2</title>
<path fill="none" stroke="#63b8ff" d="M142.65,-351.98C125.43,-343.54 98.8,-330.47 78.85,-320.68"/>
<polygon fill="#63b8ff" stroke="#63b8ff" points="80.19,-317.43 69.67,-316.17 77.1,-323.72 80.19,-317.43"/>
</g>
<!-- Node3 -->
<g id="node3" class="node">
<title>Node3</title>
<g id="a_node3"><a xlink:title=" ">
<polygon fill="#e0e0e0" stroke="#999999" points="64,-85 0,-85 0,-66 64,-66 64,-85"/>
<text text-anchor="middle" x="32" y="-73" font-family="Helvetica,sans-Serif" font-size="10.00">algorithm</text>
</a>
</g>
</g>
<!-- Node1&#45;&gt;Node3 -->
<g id="edge2" class="edge">
<title>Node1&#45;&gt;Node3</title>
<path fill="none" stroke="#63b8ff" d="M155.97,-351.75C148,-333.64 131,-290.55 131,-252.5 131,-252.5 131,-252.5 131,-195.5 131,-148.49 84.79,-110.17 55.51,-90.61"/>
<polygon fill="#63b8ff" stroke="#63b8ff" points="57.34,-87.62 47.04,-85.15 53.55,-93.51 57.34,-87.62"/>
</g>
<!-- Node4 -->
<g id="node4" class="node">
<title>Node4</title>
<g id="a_node4"><a xlink:title=" ">
<polygon fill="#e0e0e0" stroke="#999999" points="218.5,-316 159.5,-316 159.5,-297 218.5,-297 218.5,-316"/>
<text text-anchor="middle" x="189" y="-304" font-family="Helvetica,sans-Serif" font-size="10.00">numbers</text>
</a>
</g>
</g>
<!-- Node1&#45;&gt;Node4 -->
<g id="edge3" class="edge">
<title>Node1&#45;&gt;Node4</title>
<path fill="none" stroke="#63b8ff" d="M164.79,-351.75C168.76,-344.49 174.53,-333.95 179.43,-324.98"/>
<polygon fill="#63b8ff" stroke="#63b8ff" points="182.57,-326.54 184.3,-316.09 176.43,-323.18 182.57,-326.54"/>
</g>
<!-- Node5 -->
<g id="node5" class="node">
<title>Node5</title>
<g id="a_node5"><a xlink:href="_manifold_8hpp.html" target="_top" xlink:title="Data structures for manifolds.">
<polygon fill="white" stroke="#666666" points="452,-316 372,-316 372,-297 452,-297 452,-316"/>
<text text-anchor="middle" x="412" y="-304" font-family="Helvetica,sans-Serif" font-size="10.00">Manifold.hpp</text>
</a>
</g>
</g>
<!-- Node1&#45;&gt;Node5 -->
<g id="edge4" class="edge">
<title>Node1&#45;&gt;Node5</title>
<path fill="none" stroke="#63b8ff" d="M200.49,-351.98C244.3,-342.77 314.23,-328.06 361.57,-318.11"/>
<polygon fill="#63b8ff" stroke="#63b8ff" points="362.55,-321.48 371.61,-315.99 361.11,-314.63 362.55,-321.48"/>
</g>
<!-- Node6 -->
<g id="node6" class="node">
<title>Node6</title>
<g id="a_node6"><a xlink:title=" ">
<polygon fill="#e0e0e0" stroke="#999999" points="577.5,-261 524.5,-261 524.5,-242 577.5,-242 577.5,-261"/>
<text text-anchor="middle" x="551" y="-249" font-family="Helvetica,sans-Serif" font-size="10.00">cstddef</text>
</a>
</g>
</g>
<!-- Node5&#45;&gt;Node6 -->
<g id="edge5" class="edge">
<title>Node5&#45;&gt;Node6</title>
<path fill="none" stroke="#63b8ff" d="M434.33,-296.98C457.2,-288.27 492.96,-274.63 518.86,-264.75"/>
<polygon fill="#63b8ff" stroke="#63b8ff" points="520.16,-268 528.26,-261.17 517.67,-261.46 520.16,-268"/>
</g>
<!-- Node7 -->
<g id="node7" class="node">
<title>Node7</title>
<g id="a_node7"><a xlink:title=" ">
<polygon fill="#e0e0e0" stroke="#999999" points="403,-261 317,-261 317,-242 403,-242 403,-261"/>
<text text-anchor="middle" x="360" y="-249" font-family="Helvetica,sans-Serif" font-size="10.00">unordered_set</text>
</a>
</g>
</g>
<!-- Node5&#45;&gt;Node7 -->
<g id="edge6" class="edge">
<title>Node5&#45;&gt;Node7</title>
<path fill="none" stroke="#63b8ff" d="M403.41,-296.75C395.84,-289.03 384.62,-277.6 375.49,-268.28"/>
<polygon fill="#63b8ff" stroke="#63b8ff" points="377.93,-265.78 368.43,-261.09 372.93,-270.68 377.93,-265.78"/>
</g>
<!-- Node8 -->
<g id="node8" class="node">
<title>Node8</title>
<g id="a_node8"><a xlink:href="_geometry_8hpp.html" target="_top" xlink:title="Geometric scalars of the Manifold used to calculate the Regge action.">
<polygon fill="white" stroke="#666666" points="506.5,-261 421.5,-261 421.5,-242 506.5,-242 506.5,-261"/>
<text text-anchor="middle" x="464" y="-249" font-family="Helvetica,sans-Serif" font-size="10.00">Geometry.hpp</text>
</a>
</g>
</g>
<!-- Node5&#45;&gt;Node8 -->
<g id="edge7" class="edge">
<title>Node5&#45;&gt;Node8</title>
<path fill="none" stroke="#63b8ff" d="M420.59,-296.75C428.16,-289.03 439.38,-277.6 448.51,-268.28"/>
<polygon fill="#63b8ff" stroke="#63b8ff" points="451.07,-270.68 455.57,-261.09 446.07,-265.78 451.07,-270.68"/>
</g>
<!-- Node9 -->
<g id="node9" class="node">
<title>Node9</title>
<g id="a_node9"><a xlink:href="_foliated__triangulation_8hpp.html" target="_top" xlink:title="Create foliated spherical triangulations.">
<polygon fill="white" stroke="#666666" points="634,-206 490,-206 490,-187 634,-187 634,-206"/>
<text text-anchor="middle" x="562" y="-194" font-family="Helvetica,sans-Serif" font-size="10.00">Foliated_triangulation.hpp</text>
</a>
</g>
</g>
<!-- Node8&#45;&gt;Node9 -->
<g id="edge8" class="edge">
<title>Node8&#45;&gt;Node9</title>
<path fill="none" stroke="#63b8ff" d="M479.75,-241.98C495.23,-233.61 519.09,-220.7 537.14,-210.95"/>
<polygon fill="#63b8ff" stroke="#63b8ff" points="538.84,-214.01 545.97,-206.17 535.51,-207.85 538.84,-214.01"/>
</g>
<!-- Node10 -->
<g id="node10" class="node">
<title>Node10</title>
<g id="a_node10"><a xlink:href="_triangulation__traits_8hpp.html" target="_top" xlink:title="Traits class for particular uses of CGAL.">
<polygon fill="white" stroke="#666666" points="1707.5,-151 1576.5,-151 1576.5,-132 1707.5,-132 1707.5,-151"/>
<text text-anchor="middle" x="1642" y="-139" font-family="Helvetica,sans-Serif" font-size="10.00">Triangulation_traits.hpp</text>
</a>
</g>
</g>
<!-- Node9&#45;&gt;Node10 -->
<g id="edge9" class="edge">
<title>Node9&#45;&gt;Node10</title>
<path fill="none" stroke="#63b8ff" d="M634.12,-191.96C829.33,-182.38 1366.76,-156.01 1566.2,-146.22"/>
<polygon fill="#63b8ff" stroke="#63b8ff" points="1566.48,-149.71 1576.3,-145.72 1566.14,-142.72 1566.48,-149.71"/>
</g>
<!-- Node19 -->
<g id="node19" class="node">
<title>Node19</title>
<g id="a_node19"><a xlink:href="_utilities_8hpp.html" target="_top" xlink:title="Utility functions.">
<polygon fill="white" stroke="#666666" points="600,-151 524,-151 524,-132 600,-132 600,-151"/>
<text text-anchor="middle" x="562" y="-139" font-family="Helvetica,sans-Serif" font-size="10.00">Utilities.hpp</text>
</a>
</g>
</g>
<!-- Node9&#45;&gt;Node19 -->
<g id="edge18" class="edge">
<title>Node9&#45;&gt;Node19</title>
<path fill="none" stroke="#63b8ff" d="M562,-186.75C562,-179.8 562,-169.85 562,-161.13"/>
<polygon fill="#63b8ff" stroke="#63b8ff" points="565.5,-161.09 562,-151.09 558.5,-161.09 565.5,-161.09"/>
</g>
<!-- Node11 -->
<g id="node11" class="node">
<title>Node11</title>
<g id="a_node11"><a xlink:title=" ">
<polygon fill="#e0e0e0" stroke="#999999" points="2241,-85 2061,-85 2061,-66 2241,-66 2241,-85"/>
<text text-anchor="middle" x="2151" y="-73" font-family="Helvetica,sans-Serif" font-size="10.00">CGAL/Delaunay_triangulation_3.h</text>
</a>
</g>
</g>
<!-- Node10&#45;&gt;Node11 -->
<g id="edge10" class="edge">
<title>Node10&#45;&gt;Node11</title>
<path fill="none" stroke="#63b8ff" d="M1707.55,-135.14C1788.69,-128.11 1930.97,-114.45 2052,-96 2068.19,-93.53 2085.77,-90.26 2101.55,-87.11"/>
<polygon fill="#63b8ff" stroke="#63b8ff" points="2102.53,-90.48 2111.63,-85.06 2101.14,-83.62 2102.53,-90.48"/>
</g>
<!-- Node12 -->
<g id="node12" class="node">
<title>Node12</title>
<g id="a_node12"><a xlink:title=" ">
<polygon fill="#e0e0e0" stroke="#999999" points="1549.5,-96 1420.5,-96 1420.5,-55 1549.5,-55 1549.5,-96"/>
<text text-anchor="start" x="1428.5" y="-84" font-family="Helvetica,sans-Serif" font-size="10.00">CGAL/Exact_predicates</text>
<text text-anchor="start" x="1428.5" y="-73" font-family="Helvetica,sans-Serif" font-size="10.00">_inexact_constructions</text>
<text text-anchor="middle" x="1485" y="-62" font-family="Helvetica,sans-Serif" font-size="10.00">_kernel.h</text>
</a>
</g>
</g>
<!-- Node10&#45;&gt;Node12 -->
<g id="edge11" class="edge">
<title>Node10&#45;&gt;Node12</title>
<path fill="none" stroke="#63b8ff" d="M1620.83,-131.87C1600.76,-123.69 1569.71,-111.03 1542.35,-99.88"/>
<polygon fill="#63b8ff" stroke="#63b8ff" points="1543.44,-96.54 1532.86,-96.01 1540.8,-103.02 1543.44,-96.54"/>
</g>
<!-- Node13 -->
<g id="node13" class="node">
<title>Node13</title>
<g id="a_node13"><a xlink:title=" ">
<polygon fill="#e0e0e0" stroke="#999999" points="1716.5,-85 1567.5,-85 1567.5,-66 1716.5,-66 1716.5,-85"/>
<text text-anchor="middle" x="1642" y="-73" font-family="Helvetica,sans-Serif" font-size="10.00">CGAL/point_generators_3.h</text>
</a>
</g>
</g>
<!-- Node10&#45;&gt;Node13 -->
<g id="edge12" class="edge">
<title>Node10&#45;&gt;Node13</title>
<path fill="none" stroke="#63b8ff" d="M1642,-131.87C1642,-122.66 1642,-107.79 1642,-95.77"/>
<polygon fill="#63b8ff" stroke="#63b8ff" points="1645.5,-95.41 1642,-85.41 1638.5,-95.41 1645.5,-95.41"/>
</g>
<!-- Node14 -->
<g id="node14" class="node">
<title>Node14</title>
<g id="a_node14"><a xlink:title=" ">
<polygon fill="#e0e0e0" stroke="#999999" points="1873,-90.5 1735,-90.5 1735,-60.5 1873,-60.5 1873,-90.5"/>
<text text-anchor="start" x="1743" y="-78.5" font-family="Helvetica,sans-Serif" font-size="10.00">CGAL/Triangulation</text>
<text text-anchor="middle" x="1804" y="-67.5" font-family="Helvetica,sans-Serif" font-size="10.00">_cell_base_with_info_3.h</text>
</a>
</g>
</g>
<!-- Node10&#45;&gt;Node14 -->
<g id="edge13" class="edge">
<title>Node10&#45;&gt;Node14</title>
<path fill="none" stroke="#63b8ff" d="M1663.85,-131.87C1688.11,-122.28 1727.94,-106.55 1758.96,-94.3"/>
<polygon fill="#63b8ff" stroke="#63b8ff" points="1760.26,-97.55 1768.27,-90.62 1757.68,-91.03 1760.26,-97.55"/>
</g>
<!-- Node15 -->
<g id="node15" class="node">
<title>Node15</title>
<g id="a_node15"><a xlink:title=" ">
<polygon fill="#e0e0e0" stroke="#999999" points="2043,-90.5 1891,-90.5 1891,-60.5 2043,-60.5 2043,-90.5"/>
<text text-anchor="start" x="1899" y="-78.5" font-family="Helvetica,sans-Serif" font-size="10.00">CGAL/Triangulation</text>
<text text-anchor="middle" x="1967" y="-67.5" font-family="Helvetica,sans-Serif" font-size="10.00">_vertex_base_with_info_3.h</text>
</a>
</g>
</g>
<!-- Node10&#45;&gt;Node15 -->
<g id="edge14" class="edge">
<title>Node10&#45;&gt;Node15</title>
<path fill="none" stroke="#63b8ff" d="M1691.3,-131.99C1739.9,-123.44 1816.23,-109.64 1882,-96 1886.97,-94.97 1892.09,-93.88 1897.25,-92.75"/>
<polygon fill="#63b8ff" stroke="#63b8ff" points="1898.15,-96.13 1907.16,-90.56 1896.64,-89.3 1898.15,-96.13"/>
</g>
<!-- Node16 -->
<g id="node16" class="node">
<title>Node16</title>
<g id="a_node16"><a xlink:href="_settings_8hpp.html" target="_top" xlink:title="Global integer and precision settings.">
<polygon fill="white" stroke="#666666" points="1402.5,-85 1325.5,-85 1325.5,-66 1402.5,-66 1402.5,-85"/>
<text text-anchor="middle" x="1364" y="-73" font-family="Helvetica,sans-Serif" font-size="10.00">Settings.hpp</text>
</a>
</g>
</g>
<!-- Node10&#45;&gt;Node16 -->
<g id="edge15" class="edge">
<title>Node10&#45;&gt;Node16</title>
<path fill="none" stroke="#63b8ff" d="M1580.69,-131.97C1533.9,-124.66 1468.15,-112.66 1412,-96 1405.55,-94.09 1398.77,-91.62 1392.4,-89.1"/>
<polygon fill="#63b8ff" stroke="#63b8ff" points="1393.43,-85.74 1382.85,-85.15 1390.75,-92.21 1393.43,-85.74"/>
</g>
<!-- Node17 -->
<g id="node17" class="node">
<title>Node17</title>
<g id="a_node17"><a xlink:title=" ">
<polygon fill="#e0e0e0" stroke="#999999" points="1377,-19 1237,-19 1237,0 1377,0 1377,-19"/>
<text text-anchor="middle" x="1307" y="-7" font-family="Helvetica,sans-Serif" font-size="10.00">CGAL/GMP/Gmpzf_type.h</text>
</a>
</g>
</g>
<!-- Node16&#45;&gt;Node17 -->
<g id="edge16" class="edge">
<title>Node16&#45;&gt;Node17</title>
<path fill="none" stroke="#63b8ff" d="M1356.31,-65.87C1347.52,-56 1332.93,-39.61 1321.89,-27.22"/>
<polygon fill="#63b8ff" stroke="#63b8ff" points="1324.2,-24.55 1314.93,-19.41 1318.97,-29.2 1324.2,-24.55"/>
</g>
<!-- Node18 -->
<g id="node18" class="node">
<title>Node18</title>
<g id="a_node18"><a xlink:title=" ">
<polygon fill="#e0e0e0" stroke="#999999" points="1445,-19 1395,-19 1395,0 1445,0 1445,-19"/>
<text text-anchor="middle" x="1420" y="-7" font-family="Helvetica,sans-Serif" font-size="10.00">cstdint</text>
</a>
</g>
</g>
<!-- Node16&#45;&gt;Node18 -->
<g id="edge17" class="edge">
<title>Node16&#45;&gt;Node18</title>
<path fill="none" stroke="#63b8ff" d="M1371.55,-65.87C1380.19,-56 1394.53,-39.61 1405.37,-27.22"/>
<polygon fill="#63b8ff" stroke="#63b8ff" points="1408.26,-29.24 1412.21,-19.41 1402.99,-24.63 1408.26,-29.24"/>
</g>
<!-- Node19&#45;&gt;Node3 -->
<g id="edge19" class="edge">
<title>Node19&#45;&gt;Node3</title>
<path fill="none" stroke="#63b8ff" d="M523.74,-138.76C424.01,-133.95 157.89,-119.25 73,-96 67.3,-94.44 61.42,-92.12 55.95,-89.62"/>
<polygon fill="#63b8ff" stroke="#63b8ff" points="57.21,-86.34 46.7,-85.05 54.11,-92.61 57.21,-86.34"/>
</g>
<!-- Node19&#45;&gt;Node16 -->
<g id="edge34" class="edge">
<title>Node19&#45;&gt;Node16</title>
<path fill="none" stroke="#63b8ff" d="M600.42,-139.89C734,-137.49 1177.55,-127.31 1316,-96 1323.07,-94.4 1330.45,-91.87 1337.24,-89.16"/>
<polygon fill="#63b8ff" stroke="#63b8ff" points="1338.84,-92.29 1346.67,-85.15 1336.1,-85.85 1338.84,-92.29"/>
</g>
<!-- Node20 -->
<g id="node20" class="node">
<title>Node20</title>
<g id="a_node20"><a xlink:title=" ">
<polygon fill="#e0e0e0" stroke="#999999" points="1307,-85 1239,-85 1239,-66 1307,-66 1307,-85"/>
<text text-anchor="middle" x="1273" y="-73" font-family="Helvetica,sans-Serif" font-size="10.00">filesystem</text>
</a>
</g>
</g>
<!-- Node19&#45;&gt;Node20 -->
<g id="edge20" class="edge">
<title>Node19&#45;&gt;Node20</title>
<path fill="none" stroke="#63b8ff" d="M600.3,-139.75C723.63,-137.04 1109.38,-126.3 1230,-96 1236.11,-94.46 1242.43,-92.09 1248.28,-89.53"/>
<polygon fill="#63b8ff" stroke="#63b8ff" points="1250.02,-92.57 1257.56,-85.13 1247.03,-86.25 1250.02,-92.57"/>
</g>
<!-- Node21 -->
<g id="node21" class="node">
<title>Node21</title>
<g id="a_node21"><a xlink:title=" ">
<polygon fill="#e0e0e0" stroke="#999999" points="137.5,-85 82.5,-85 82.5,-66 137.5,-66 137.5,-85"/>
<text text-anchor="middle" x="110" y="-73" font-family="Helvetica,sans-Serif" font-size="10.00">fstream</text>
</a>
</g>
</g>
<!-- Node19&#45;&gt;Node21 -->
<g id="edge21" class="edge">
<title>Node19&#45;&gt;Node21</title>
<path fill="none" stroke="#63b8ff" d="M523.85,-141.15C449.59,-141.39 281.12,-136.89 147,-96 142.05,-94.49 136.99,-92.31 132.26,-89.95"/>
<polygon fill="#63b8ff" stroke="#63b8ff" points="133.63,-86.71 123.18,-85.01 130.29,-92.86 133.63,-86.71"/>
</g>
<!-- Node22 -->
<g id="node22" class="node">
<title>Node22</title>
<g id="a_node22"><a xlink:title=" ">
<polygon fill="#e0e0e0" stroke="#999999" points="204,-85 156,-85 156,-66 204,-66 204,-85"/>
<text text-anchor="middle" x="180" y="-73" font-family="Helvetica,sans-Serif" font-size="10.00">gsl/gsl</text>
</a>
</g>
</g>
<!-- Node19&#45;&gt;Node22 -->
<g id="edge22" class="edge">
<title>Node19&#45;&gt;Node22</title>
<path fill="none" stroke="#63b8ff" d="M523.94,-140.63C458.56,-139.77 321.48,-133.19 213,-96 208.82,-94.57 204.59,-92.57 200.62,-90.39"/>
<polygon fill="#63b8ff" stroke="#63b8ff" points="202.33,-87.33 191.95,-85.17 198.71,-93.33 202.33,-87.33"/>
</g>
<!-- Node23 -->
<g id="node23" class="node">
<title>Node23</title>
<g id="a_node23"><a xlink:title=" ">
<polygon fill="#e0e0e0" stroke="#999999" points="270,-85 222,-85 222,-66 270,-66 270,-85"/>
<text text-anchor="middle" x="246" y="-73" font-family="Helvetica,sans-Serif" font-size="10.00">mutex</text>
</a>
</g>
</g>
<!-- Node19&#45;&gt;Node23 -->
<g id="edge23" class="edge">
<title>Node19&#45;&gt;Node23</title>
<path fill="none" stroke="#63b8ff" d="M523.8,-139.04C468.35,-135.91 363.02,-126.18 279,-96 274.84,-94.51 270.62,-92.48 266.65,-90.29"/>
<polygon fill="#63b8ff" stroke="#63b8ff" points="268.36,-87.23 257.99,-85.08 264.75,-93.23 268.36,-87.23"/>
</g>
<!-- Node24 -->
<g id="node24" class="node">
<title>Node24</title>
<g id="a_node24"><a xlink:title=" ">
<polygon fill="#e0e0e0" stroke="#999999" points="342,-85 288,-85 288,-66 342,-66 342,-85"/>
<text text-anchor="middle" x="315" y="-73" font-family="Helvetica,sans-Serif" font-size="10.00">random</text>
</a>
</g>
</g>
<!-- Node19&#45;&gt;Node24 -->
<g id="edge24" class="edge">
<title>Node19&#45;&gt;Node24</title>
<path fill="none" stroke="#63b8ff" d="M523.73,-135.81C480.73,-129.78 409.33,-117.43 351,-96 346.53,-94.36 341.93,-92.24 337.57,-90"/>
<polygon fill="#63b8ff" stroke="#63b8ff" points="339.03,-86.81 328.58,-85.07 335.66,-92.94 339.03,-86.81"/>
</g>
<!-- Node25 -->
<g id="node25" class="node">
<title>Node25</title>
<g id="a_node25"><a xlink:title=" ">
<polygon fill="#e0e0e0" stroke="#999999" points="400,-85 360,-85 360,-66 400,-66 400,-85"/>
<text text-anchor="middle" x="380" y="-73" font-family="Helvetica,sans-Serif" font-size="10.00">span</text>
</a>
</g>
</g>
<!-- Node19&#45;&gt;Node25 -->
<g id="edge25" class="edge">
<title>Node19&#45;&gt;Node25</title>
<path fill="none" stroke="#63b8ff" d="M523.73,-132.57C492.31,-125.29 447.11,-113.04 410,-96 406.68,-94.48 403.31,-92.62 400.07,-90.67"/>
<polygon fill="#63b8ff" stroke="#63b8ff" points="401.8,-87.63 391.51,-85.11 397.99,-93.5 401.8,-87.63"/>
</g>
<!-- Node26 -->
<g id="node26" class="node">
<title>Node26</title>
<g id="a_node26"><a xlink:title=" ">
<polygon fill="#e0e0e0" stroke="#999999" points="483.5,-85 418.5,-85 418.5,-66 483.5,-66 483.5,-85"/>
<text text-anchor="middle" x="451" y="-73" font-family="Helvetica,sans-Serif" font-size="10.00">stdexcept</text>
</a>
</g>
</g>
<!-- Node19&#45;&gt;Node26 -->
<g id="edge26" class="edge">
<title>Node19&#45;&gt;Node26</title>
<path fill="none" stroke="#63b8ff" d="M547.03,-131.87C528.49,-121.18 496.69,-102.85 474.8,-90.22"/>
<polygon fill="#63b8ff" stroke="#63b8ff" points="476.5,-87.16 466.09,-85.2 473,-93.23 476.5,-87.16"/>
</g>
<!-- Node27 -->
<g id="node27" class="node">
<title>Node27</title>
<g id="a_node27"><a xlink:title=" ">
<polygon fill="#e0e0e0" stroke="#999999" points="546,-85 502,-85 502,-66 546,-66 546,-85"/>
<text text-anchor="middle" x="524" y="-73" font-family="Helvetica,sans-Serif" font-size="10.00">string</text>
</a>
</g>
</g>
<!-- Node19&#45;&gt;Node27 -->
<g id="edge27" class="edge">
<title>Node19&#45;&gt;Node27</title>
<path fill="none" stroke="#63b8ff" d="M556.88,-131.87C551.18,-122.28 541.84,-106.55 534.57,-94.3"/>
<polygon fill="#63b8ff" stroke="#63b8ff" points="537.4,-92.22 529.29,-85.41 531.38,-95.79 537.4,-92.22"/>
</g>
<!-- Node28 -->
<g id="node28" class="node">
<title>Node28</title>
<g id="a_node28"><a xlink:title=" ">
<polygon fill="#e0e0e0" stroke="#999999" points="636,-85 564,-85 564,-66 636,-66 636,-85"/>
<text text-anchor="middle" x="600" y="-73" font-family="Helvetica,sans-Serif" font-size="10.00">date/date.h</text>
</a>
</g>
</g>
<!-- Node19&#45;&gt;Node28 -->
<g id="edge28" class="edge">
<title>Node19&#45;&gt;Node28</title>
<path fill="none" stroke="#63b8ff" d="M567.12,-131.87C572.82,-122.28 582.16,-106.55 589.43,-94.3"/>
<polygon fill="#63b8ff" stroke="#63b8ff" points="592.62,-95.79 594.71,-85.41 586.6,-92.22 592.62,-95.79"/>
</g>
<!-- Node29 -->
<g id="node29" class="node">
<title>Node29</title>
<g id="a_node29"><a xlink:title=" ">
<polygon fill="#e0e0e0" stroke="#999999" points="752,-85 654,-85 654,-66 752,-66 752,-85"/>
<text text-anchor="middle" x="703" y="-73" font-family="Helvetica,sans-Serif" font-size="10.00">pcg_random.hpp</text>
</a>
</g>
</g>
<!-- Node19&#45;&gt;Node29 -->
<g id="edge29" class="edge">
<title>Node19&#45;&gt;Node29</title>
<path fill="none" stroke="#63b8ff" d="M581.02,-131.87C605.09,-120.94 646.77,-102.02 674.61,-89.38"/>
<polygon fill="#63b8ff" stroke="#63b8ff" points="676.18,-92.52 683.84,-85.2 673.28,-86.15 676.18,-92.52"/>
</g>
<!-- Node30 -->
<g id="node30" class="node">
<title>Node30</title>
<g id="a_node30"><a xlink:title=" ">
<polygon fill="#e0e0e0" stroke="#999999" points="856,-85 770,-85 770,-66 856,-66 856,-85"/>
<text text-anchor="middle" x="813" y="-73" font-family="Helvetica,sans-Serif" font-size="10.00">fmt/ostream.h</text>
</a>
</g>
</g>
<!-- Node19&#45;&gt;Node30 -->
<g id="edge30" class="edge">
<title>Node19&#45;&gt;Node30</title>
<path fill="none" stroke="#63b8ff" d="M600.18,-133.6C640.54,-125.92 705.86,-112.42 761,-96 767.95,-93.93 775.31,-91.39 782.24,-88.84"/>
<polygon fill="#63b8ff" stroke="#63b8ff" points="783.87,-91.96 791.97,-85.14 781.38,-85.42 783.87,-91.96"/>
</g>
<!-- Node31 -->
<g id="node31" class="node">
<title>Node31</title>
<g id="a_node31"><a xlink:title=" ">
<polygon fill="#e0e0e0" stroke="#999999" points="980,-90.5 874,-90.5 874,-60.5 980,-60.5 980,-90.5"/>
<text text-anchor="start" x="882" y="-78.5" font-family="Helvetica,sans-Serif" font-size="10.00">spdlog/sinks/basic</text>
<text text-anchor="middle" x="927" y="-67.5" font-family="Helvetica,sans-Serif" font-size="10.00">_file_sink.h</text>
</a>
</g>
</g>
<!-- Node19&#45;&gt;Node31 -->
<g id="edge31" class="edge">
<title>Node19&#45;&gt;Node31</title>
<path fill="none" stroke="#63b8ff" d="M600.15,-136.86C657.95,-130.91 770.94,-117.56 865,-96 868.56,-95.18 872.22,-94.26 875.89,-93.27"/>
<polygon fill="#63b8ff" stroke="#63b8ff" points="876.89,-96.62 885.56,-90.53 874.99,-89.89 876.89,-96.62"/>
</g>
<!-- Node32 -->
<g id="node32" class="node">
<title>Node32</title>
<g id="a_node32"><a xlink:title=" ">
<polygon fill="#e0e0e0" stroke="#999999" points="1109.5,-90.5 998.5,-90.5 998.5,-60.5 1109.5,-60.5 1109.5,-90.5"/>
<text text-anchor="start" x="1006.5" y="-78.5" font-family="Helvetica,sans-Serif" font-size="10.00">spdlog/sinks/stdout</text>
<text text-anchor="middle" x="1054" y="-67.5" font-family="Helvetica,sans-Serif" font-size="10.00">_color_sinks.h</text>
</a>
</g>
</g>
<!-- Node19&#45;&gt;Node32 -->
<g id="edge32" class="edge">
<title>Node19&#45;&gt;Node32</title>
<path fill="none" stroke="#63b8ff" d="M600.06,-138.93C675.11,-135.31 847.22,-124.39 989,-96 993.09,-95.18 997.3,-94.21 1001.51,-93.16"/>
<polygon fill="#63b8ff" stroke="#63b8ff" points="1002.52,-96.51 1011.28,-90.55 1000.72,-89.75 1002.52,-96.51"/>
</g>
<!-- Node33 -->
<g id="node33" class="node">
<title>Node33</title>
<g id="a_node33"><a xlink:title=" ">
<polygon fill="#e0e0e0" stroke="#999999" points="1220.5,-85 1127.5,-85 1127.5,-66 1220.5,-66 1220.5,-85"/>
<text text-anchor="middle" x="1174" y="-73" font-family="Helvetica,sans-Serif" font-size="10.00">spdlog/spdlog.h</text>
</a>
</g>
</g>
<!-- Node19&#45;&gt;Node33 -->
<g id="edge33" class="edge">
<title>Node19&#45;&gt;Node33</title>
<path fill="none" stroke="#63b8ff" d="M600.31,-140.85C691.35,-140.96 927.35,-136.89 1119,-96 1127.45,-94.2 1136.38,-91.43 1144.53,-88.54"/>
<polygon fill="#63b8ff" stroke="#63b8ff" points="1145.84,-91.79 1153.99,-85.01 1143.4,-85.23 1145.84,-91.79"/>
</g>
</g>
</svg>
