<?xml version="1.0" encoding="UTF-8" standalone="no"?>
<!DOCTYPE svg PUBLIC "-//W3C//DTD SVG 1.1//EN"
 "http://www.w3.org/Graphics/SVG/1.1/DTD/svg11.dtd">
<!-- Generated by graphviz version 2.43.0 (0)
 -->
<!-- Title: tests/Vertex_test.cpp Pages: 1 -->
<!--zoomable 379 -->
<svg id="main" version="1.1" xmlns="http://www.w3.org/2000/svg" xmlns:xlink="http://www.w3.org/1999/xlink" xml:space="preserve" onload="init(evt)">
<style type="text/css"><![CDATA[
.edge:hover path { stroke: red; }
.edge:hover polygon { stroke: red; fill: red; }
]]></style>
<script type="text/javascript"><![CDATA[
var edges = document.getElementsByTagName('g');
if (edges && edges.length) {
  for (var i=0;i<edges.length;i++) {
    if (edges[i].id.substr(0,4)=='edge') {
      edges[i].setAttribute('class','edge');
    }
  }
}
]]></script>
        <defs>
                <circle id="rim" cx="0" cy="0" r="7"/>
                <circle id="rim2" cx="0" cy="0" r="3.5"/>
                <g id="zoomPlus">
                        <use xlink:href="#rim" fill="#404040">
                                <set attributeName="fill" to="#808080" begin="zoomplus.mouseover" end="zoomplus.mouseout"/>
                        </use>
                        <path d="M-4,0h8M0,-4v8" fill="none" stroke="white" stroke-width="1.5" pointer-events="none"/>
                </g>
                <g id="zoomMin">
                        <use xlink:href="#rim" fill="#404040">
                                <set attributeName="fill" to="#808080" begin="zoomminus.mouseover" end="zoomminus.mouseout"/>
                        </use>
                        <path d="M-4,0h8" fill="none" stroke="white" stroke-width="1.5" pointer-events="none"/>
                </g>
                <g id="dirArrow">
                        <path fill="none" stroke="white" stroke-width="1.5" d="M0,-3.0v7 M-2.5,-0.5L0,-3.0L2.5,-0.5"/>
                </g>
               <g id="resetDef">
                       <use xlink:href="#rim2" fill="#404040">
                               <set attributeName="fill" to="#808080" begin="reset.mouseover" end="reset.mouseout"/>
                       </use>
               </g>
        </defs>

<script type="text/javascript">
var viewWidth = 2156;
var viewHeight = 379;
var sectionId = 'dynsection-0';
</script>
<script xlink:href="svgpan.js"/>
<svg id="graph" class="graph">
<g id="viewport">
<title>tests/Vertex_test.cpp</title>
<!-- Node1 -->
<g id="node1" class="node">
<title>Node1</title>
<g id="a_node1"><a xlink:title="Tests on points and vertices in foliated Delaunay triangulations.">
<polygon fill="#999999" stroke="#666666" points="777.5,-371 658.5,-371 658.5,-352 777.5,-352 777.5,-371"/>
<text text-anchor="middle" x="718" y="-359" font-family="Helvetica,sans-Serif" font-size="10.00">tests/Vertex_test.cpp</text>
</a>
</g>
</g>
<!-- Node2 -->
<g id="node2" class="node">
<title>Node2</title>
<g id="a_node2"><a xlink:title=" ">
<polygon fill="#e0e0e0" stroke="#999999" points="627.5,-316 526.5,-316 526.5,-297 627.5,-297 627.5,-316"/>
<text text-anchor="middle" x="577" y="-304" font-family="Helvetica,sans-Serif" font-size="10.00">doctest/doctest.h</text>
</a>
</g>
</g>
<!-- Node1&#45;&gt;Node2 -->
<g id="edge1" class="edge">
<title>Node1&#45;&gt;Node2</title>
<path fill="none" stroke="#63b8ff" d="M695.35,-351.98C672.15,-343.27 635.88,-329.63 609.6,-319.75"/>
<polygon fill="#63b8ff" stroke="#63b8ff" points="610.66,-316.41 600.07,-316.17 608.2,-322.97 610.66,-316.41"/>
</g>
<!-- Node3 -->
<g id="node3" class="node">
<title>Node3</title>
<g id="a_node3"><a xlink:title=" ">
<polygon fill="#e0e0e0" stroke="#999999" points="710,-316 646,-316 646,-297 710,-297 710,-316"/>
<text text-anchor="middle" x="678" y="-304" font-family="Helvetica,sans-Serif" font-size="10.00">algorithm</text>
</a>
</g>
</g>
<!-- Node1&#45;&gt;Node3 -->
<g id="edge2" class="edge">
<title>Node1&#45;&gt;Node3</title>
<path fill="none" stroke="#63b8ff" d="M711.39,-351.75C705.74,-344.26 697.46,-333.28 690.55,-324.13"/>
<polygon fill="#63b8ff" stroke="#63b8ff" points="693.3,-321.96 684.48,-316.09 687.71,-326.18 693.3,-321.96"/>
</g>
<!-- Node4 -->
<g id="node4" class="node">
<title>Node4</title>
<g id="a_node4"><a xlink:title=" ">
<polygon fill="#e0e0e0" stroke="#999999" points="787.5,-316 728.5,-316 728.5,-297 787.5,-297 787.5,-316"/>
<text text-anchor="middle" x="758" y="-304" font-family="Helvetica,sans-Serif" font-size="10.00">numbers</text>
</a>
</g>
</g>
<!-- Node1&#45;&gt;Node4 -->
<g id="edge3" class="edge">
<title>Node1&#45;&gt;Node4</title>
<path fill="none" stroke="#63b8ff" d="M724.61,-351.75C730.26,-344.26 738.54,-333.28 745.45,-324.13"/>
<polygon fill="#63b8ff" stroke="#63b8ff" points="748.29,-326.18 751.52,-316.09 742.7,-321.96 748.29,-326.18"/>
</g>
<!-- Node5 -->
<g id="node5" class="node">
<title>Node5</title>
<g id="a_node5"><a xlink:href="_manifold_8hpp.html" target="_top" xlink:title="Data structures for manifolds.">
<polygon fill="white" stroke="#666666" points="886,-316 806,-316 806,-297 886,-297 886,-316"/>
<text text-anchor="middle" x="846" y="-304" font-family="Helvetica,sans-Serif" font-size="10.00">Manifold.hpp</text>
</a>
</g>
</g>
<!-- Node1&#45;&gt;Node5 -->
<g id="edge4" class="edge">
<title>Node1&#45;&gt;Node5</title>
<path fill="none" stroke="#63b8ff" d="M738.57,-351.98C759.43,-343.34 791.97,-329.87 815.77,-320.02"/>
<polygon fill="#63b8ff" stroke="#63b8ff" points="817.16,-323.23 825.06,-316.17 814.48,-316.76 817.16,-323.23"/>
</g>
<!-- Node6 -->
<g id="node6" class="node">
<title>Node6</title>
<g id="a_node6"><a xlink:title=" ">
<polygon fill="#e0e0e0" stroke="#999999" points="784.5,-261 731.5,-261 731.5,-242 784.5,-242 784.5,-261"/>
<text text-anchor="middle" x="758" y="-249" font-family="Helvetica,sans-Serif" font-size="10.00">cstddef</text>
</a>
</g>
</g>
<!-- Node5&#45;&gt;Node6 -->
<g id="edge5" class="edge">
<title>Node5&#45;&gt;Node6</title>
<path fill="none" stroke="#63b8ff" d="M831.86,-296.98C818.21,-288.77 797.31,-276.18 781.22,-266.49"/>
<polygon fill="#63b8ff" stroke="#63b8ff" points="782.77,-263.33 772.4,-261.17 779.16,-269.33 782.77,-263.33"/>
</g>
<!-- Node7 -->
<g id="node7" class="node">
<title>Node7</title>
<g id="a_node7"><a xlink:title=" ">
<polygon fill="#e0e0e0" stroke="#999999" points="889,-261 803,-261 803,-242 889,-242 889,-261"/>
<text text-anchor="middle" x="846" y="-249" font-family="Helvetica,sans-Serif" font-size="10.00">unordered_set</text>
</a>
</g>
</g>
<!-- Node5&#45;&gt;Node7 -->
<g id="edge6" class="edge">
<title>Node5&#45;&gt;Node7</title>
<path fill="none" stroke="#63b8ff" d="M846,-296.75C846,-289.8 846,-279.85 846,-271.13"/>
<polygon fill="#63b8ff" stroke="#63b8ff" points="849.5,-271.09 846,-261.09 842.5,-271.09 849.5,-271.09"/>
</g>
<!-- Node8 -->
<g id="node8" class="node">
<title>Node8</title>
<g id="a_node8"><a xlink:href="_geometry_8hpp.html" target="_top" xlink:title="Geometric scalars of the Manifold used to calculate the Regge action.">
<polygon fill="white" stroke="#666666" points="992.5,-261 907.5,-261 907.5,-242 992.5,-242 992.5,-261"/>
<text text-anchor="middle" x="950" y="-249" font-family="Helvetica,sans-Serif" font-size="10.00">Geometry.hpp</text>
</a>
</g>
</g>
<!-- Node5&#45;&gt;Node8 -->
<g id="edge7" class="edge">
<title>Node5&#45;&gt;Node8</title>
<path fill="none" stroke="#63b8ff" d="M862.71,-296.98C879.21,-288.57 904.7,-275.59 923.88,-265.81"/>
<polygon fill="#63b8ff" stroke="#63b8ff" points="925.67,-268.83 932.99,-261.17 922.49,-262.59 925.67,-268.83"/>
</g>
<!-- Node9 -->
<g id="node9" class="node">
<title>Node9</title>
<g id="a_node9"><a xlink:href="_foliated__triangulation_8hpp.html" target="_top" xlink:title="Create foliated spherical triangulations.">
<polygon fill="white" stroke="#666666" points="1022,-206 878,-206 878,-187 1022,-187 1022,-206"/>
<text text-anchor="middle" x="950" y="-194" font-family="Helvetica,sans-Serif" font-size="10.00">Foliated_triangulation.hpp</text>
</a>
</g>
</g>
<!-- Node8&#45;&gt;Node9 -->
<g id="edge8" class="edge">
<title>Node8&#45;&gt;Node9</title>
<path fill="none" stroke="#63b8ff" d="M950,-241.75C950,-234.8 950,-224.85 950,-216.13"/>
<polygon fill="#63b8ff" stroke="#63b8ff" points="953.5,-216.09 950,-206.09 946.5,-216.09 953.5,-216.09"/>
</g>
<!-- Node10 -->
<g id="node10" class="node">
<title>Node10</title>
<g id="a_node10"><a xlink:href="_triangulation__traits_8hpp.html" target="_top" xlink:title="Traits class for particular uses of CGAL.">
<polygon fill="white" stroke="#666666" points="647.5,-151 516.5,-151 516.5,-132 647.5,-132 647.5,-151"/>
<text text-anchor="middle" x="582" y="-139" font-family="Helvetica,sans-Serif" font-size="10.00">Triangulation_traits.hpp</text>
</a>
</g>
</g>
<!-- Node9&#45;&gt;Node10 -->
<g id="edge9" class="edge">
<title>Node9&#45;&gt;Node10</title>
<path fill="none" stroke="#63b8ff" d="M890.87,-186.98C825.52,-177.57 720.36,-162.43 651.22,-152.47"/>
<polygon fill="#63b8ff" stroke="#63b8ff" points="651.68,-149 641.28,-151.04 650.68,-155.93 651.68,-149"/>
</g>
<!-- Node19 -->
<g id="node19" class="node">
<title>Node19</title>
<g id="a_node19"><a xlink:href="_utilities_8hpp.html" target="_top" xlink:title="Utility functions.">
<polygon fill="white" stroke="#666666" points="1392,-151 1316,-151 1316,-132 1392,-132 1392,-151"/>
<text text-anchor="middle" x="1354" y="-139" font-family="Helvetica,sans-Serif" font-size="10.00">Utilities.hpp</text>
</a>
</g>
</g>
<!-- Node9&#45;&gt;Node19 -->
<g id="edge18" class="edge">
<title>Node9&#45;&gt;Node19</title>
<path fill="none" stroke="#63b8ff" d="M1014.91,-186.98C1096.12,-176.33 1233.31,-158.33 1305.79,-148.82"/>
<polygon fill="#63b8ff" stroke="#63b8ff" points="1306.54,-152.26 1316,-147.49 1305.63,-145.32 1306.54,-152.26"/>
</g>
<!-- Node11 -->
<g id="node11" class="node">
<title>Node11</title>
<g id="a_node11"><a xlink:title=" ">
<polygon fill="#e0e0e0" stroke="#999999" points="180,-85 0,-85 0,-66 180,-66 180,-85"/>
<text text-anchor="middle" x="90" y="-73" font-family="Helvetica,sans-Serif" font-size="10.00">CGAL/Delaunay_triangulation_3.h</text>
</a>
</g>
</g>
<!-- Node10&#45;&gt;Node11 -->
<g id="edge10" class="edge">
<title>Node10&#45;&gt;Node11</title>
<path fill="none" stroke="#63b8ff" d="M516.42,-134.73C438.22,-127.46 303.68,-113.76 189,-96 172.81,-93.49 155.24,-90.22 139.45,-87.07"/>
<polygon fill="#63b8ff" stroke="#63b8ff" points="139.87,-83.58 129.37,-85.02 138.48,-90.44 139.87,-83.58"/>
</g>
<!-- Node12 -->
<g id="node12" class="node">
<title>Node12</title>
<g id="a_node12"><a xlink:title=" ">
<polygon fill="#e0e0e0" stroke="#999999" points="327.5,-96 198.5,-96 198.5,-55 327.5,-55 327.5,-96"/>
<text text-anchor="start" x="206.5" y="-84" font-family="Helvetica,sans-Serif" font-size="10.00">CGAL/Exact_predicates</text>
<text text-anchor="start" x="206.5" y="-73" font-family="Helvetica,sans-Serif" font-size="10.00">_inexact_constructions</text>
<text text-anchor="middle" x="263" y="-62" font-family="Helvetica,sans-Serif" font-size="10.00">_kernel.h</text>
</a>
</g>
</g>
<!-- Node10&#45;&gt;Node12 -->
<g id="edge11" class="edge">
<title>Node10&#45;&gt;Node12</title>
<path fill="none" stroke="#63b8ff" d="M527.51,-131.96C479.74,-124.18 408.22,-111.81 337.75,-96.31"/>
<polygon fill="#63b8ff" stroke="#63b8ff" points="338.33,-92.86 327.81,-94.11 336.81,-99.69 338.33,-92.86"/>
</g>
<!-- Node13 -->
<g id="node13" class="node">
<title>Node13</title>
<g id="a_node13"><a xlink:title=" ">
<polygon fill="#e0e0e0" stroke="#999999" points="494.5,-85 345.5,-85 345.5,-66 494.5,-66 494.5,-85"/>
<text text-anchor="middle" x="420" y="-73" font-family="Helvetica,sans-Serif" font-size="10.00">CGAL/point_generators_3.h</text>
</a>
</g>
</g>
<!-- Node10&#45;&gt;Node13 -->
<g id="edge12" class="edge">
<title>Node10&#45;&gt;Node13</title>
<path fill="none" stroke="#63b8ff" d="M560.15,-131.87C532.05,-120.77 483.07,-101.42 451.1,-88.78"/>
<polygon fill="#63b8ff" stroke="#63b8ff" points="452.35,-85.52 441.76,-85.1 449.77,-92.03 452.35,-85.52"/>
</g>
<!-- Node14 -->
<g id="node14" class="node">
<title>Node14</title>
<g id="a_node14"><a xlink:title=" ">
<polygon fill="#e0e0e0" stroke="#999999" points="651,-90.5 513,-90.5 513,-60.5 651,-60.5 651,-90.5"/>
<text text-anchor="start" x="521" y="-78.5" font-family="Helvetica,sans-Serif" font-size="10.00">CGAL/Triangulation</text>
<text text-anchor="middle" x="582" y="-67.5" font-family="Helvetica,sans-Serif" font-size="10.00">_cell_base_with_info_3.h</text>
</a>
</g>
</g>
<!-- Node10&#45;&gt;Node14 -->
<g id="edge13" class="edge">
<title>Node10&#45;&gt;Node14</title>
<path fill="none" stroke="#63b8ff" d="M582,-131.87C582,-123.99 582,-111.95 582,-101.1"/>
<polygon fill="#63b8ff" stroke="#63b8ff" points="585.5,-100.86 582,-90.86 578.5,-100.86 585.5,-100.86"/>
</g>
<!-- Node15 -->
<g id="node15" class="node">
<title>Node15</title>
<g id="a_node15"><a xlink:title=" ">
<polygon fill="#e0e0e0" stroke="#999999" points="821,-90.5 669,-90.5 669,-60.5 821,-60.5 821,-90.5"/>
<text text-anchor="start" x="677" y="-78.5" font-family="Helvetica,sans-Serif" font-size="10.00">CGAL/Triangulation</text>
<text text-anchor="middle" x="745" y="-67.5" font-family="Helvetica,sans-Serif" font-size="10.00">_vertex_base_with_info_3.h</text>
</a>
</g>
</g>
<!-- Node10&#45;&gt;Node15 -->
<g id="edge14" class="edge">
<title>Node10&#45;&gt;Node15</title>
<path fill="none" stroke="#63b8ff" d="M603.98,-131.87C628.4,-122.28 668.48,-106.55 699.68,-94.3"/>
<polygon fill="#63b8ff" stroke="#63b8ff" points="701.02,-97.53 709.05,-90.62 698.46,-91.01 701.02,-97.53"/>
</g>
<!-- Node16 -->
<g id="node16" class="node">
<title>Node16</title>
<g id="a_node16"><a xlink:href="_settings_8hpp.html" target="_top" xlink:title="Global integer and precision settings.">
<polygon fill="white" stroke="#666666" points="916.5,-85 839.5,-85 839.5,-66 916.5,-66 916.5,-85"/>
<text text-anchor="middle" x="878" y="-73" font-family="Helvetica,sans-Serif" font-size="10.00">Settings.hpp</text>
</a>
</g>
</g>
<!-- Node10&#45;&gt;Node16 -->
<g id="edge15" class="edge">
<title>Node10&#45;&gt;Node16</title>
<path fill="none" stroke="#63b8ff" d="M647.6,-132.53C698.09,-125.49 769.28,-113.57 830,-96 836.58,-94.1 843.49,-91.6 849.95,-89.03"/>
<polygon fill="#63b8ff" stroke="#63b8ff" points="851.73,-92.08 859.63,-85.01 849.05,-85.62 851.73,-92.08"/>
</g>
<!-- Node17 -->
<g id="node17" class="node">
<title>Node17</title>
<g id="a_node17"><a xlink:title=" ">
<polygon fill="#e0e0e0" stroke="#999999" points="891,-19 751,-19 751,0 891,0 891,-19"/>
<text text-anchor="middle" x="821" y="-7" font-family="Helvetica,sans-Serif" font-size="10.00">CGAL/GMP/Gmpzf_type.h</text>
</a>
</g>
</g>
<!-- Node16&#45;&gt;Node17 -->
<g id="edge16" class="edge">
<title>Node16&#45;&gt;Node17</title>
<path fill="none" stroke="#63b8ff" d="M870.31,-65.87C861.52,-56 846.93,-39.61 835.89,-27.22"/>
<polygon fill="#63b8ff" stroke="#63b8ff" points="838.2,-24.55 828.93,-19.41 832.97,-29.2 838.2,-24.55"/>
</g>
<!-- Node18 -->
<g id="node18" class="node">
<title>Node18</title>
<g id="a_node18"><a xlink:title=" ">
<polygon fill="#e0e0e0" stroke="#999999" points="959,-19 909,-19 909,0 959,0 959,-19"/>
<text text-anchor="middle" x="934" y="-7" font-family="Helvetica,sans-Serif" font-size="10.00">cstdint</text>
</a>
</g>
</g>
<!-- Node16&#45;&gt;Node18 -->
<g id="edge17" class="edge">
<title>Node16&#45;&gt;Node18</title>
<path fill="none" stroke="#63b8ff" d="M885.55,-65.87C894.19,-56 908.53,-39.61 919.37,-27.22"/>
<polygon fill="#63b8ff" stroke="#63b8ff" points="922.26,-29.24 926.21,-19.41 916.99,-24.63 922.26,-29.24"/>
</g>
<!-- Node19&#45;&gt;Node16 -->
<g id="edge33" class="edge">
<title>Node19&#45;&gt;Node16</title>
<path fill="none" stroke="#63b8ff" d="M1315.88,-140.12C1240.35,-138.58 1066.79,-131.16 926,-96 919.08,-94.27 911.84,-91.74 905.15,-89.08"/>
<polygon fill="#63b8ff" stroke="#63b8ff" points="906.4,-85.81 895.83,-85.15 903.68,-92.26 906.4,-85.81"/>
</g>
<!-- Node20 -->
<g id="node20" class="node">
<title>Node20</title>
<g id="a_node20"><a xlink:title=" ">
<polygon fill="#e0e0e0" stroke="#999999" points="1003,-85 935,-85 935,-66 1003,-66 1003,-85"/>
<text text-anchor="middle" x="969" y="-73" font-family="Helvetica,sans-Serif" font-size="10.00">filesystem</text>
</a>
</g>
</g>
<!-- Node19&#45;&gt;Node20 -->
<g id="edge19" class="edge">
<title>Node19&#45;&gt;Node20</title>
<path fill="none" stroke="#63b8ff" d="M1315.81,-139.21C1251.82,-136.23 1119.39,-126.6 1012,-96 1006.04,-94.3 999.85,-91.91 994.09,-89.37"/>
<polygon fill="#63b8ff" stroke="#63b8ff" points="995.45,-86.15 984.91,-85.08 992.48,-92.49 995.45,-86.15"/>
</g>
<!-- Node21 -->
<g id="node21" class="node">
<title>Node21</title>
<g id="a_node21"><a xlink:title=" ">
<polygon fill="#e0e0e0" stroke="#999999" points="1076.5,-85 1021.5,-85 1021.5,-66 1076.5,-66 1076.5,-85"/>
<text text-anchor="middle" x="1049" y="-73" font-family="Helvetica,sans-Serif" font-size="10.00">fstream</text>
</a>
</g>
</g>
<!-- Node19&#45;&gt;Node21 -->
<g id="edge20" class="edge">
<title>Node19&#45;&gt;Node21</title>
<path fill="none" stroke="#63b8ff" d="M1315.79,-138.01C1262.95,-133.71 1165.12,-122.64 1086,-96 1081.18,-94.38 1076.22,-92.18 1071.57,-89.85"/>
<polygon fill="#63b8ff" stroke="#63b8ff" points="1073.05,-86.67 1062.58,-85.01 1069.73,-92.83 1073.05,-86.67"/>
</g>
<!-- Node22 -->
<g id="node22" class="node">
<title>Node22</title>
<g id="a_node22"><a xlink:title=" ">
<polygon fill="#e0e0e0" stroke="#999999" points="1143,-85 1095,-85 1095,-66 1143,-66 1143,-85"/>
<text text-anchor="middle" x="1119" y="-73" font-family="Helvetica,sans-Serif" font-size="10.00">gsl/gsl</text>
</a>
</g>
</g>
<!-- Node19&#45;&gt;Node22 -->
<g id="edge21" class="edge">
<title>Node19&#45;&gt;Node22</title>
<path fill="none" stroke="#63b8ff" d="M1315.72,-135.75C1274.28,-129.78 1206.79,-117.59 1152,-96 1148.07,-94.45 1144.06,-92.47 1140.26,-90.37"/>
<polygon fill="#63b8ff" stroke="#63b8ff" points="1141.75,-87.19 1131.37,-85.08 1138.17,-93.2 1141.75,-87.19"/>
</g>
<!-- Node23 -->
<g id="node23" class="node">
<title>Node23</title>
<g id="a_node23"><a xlink:title=" ">
<polygon fill="#e0e0e0" stroke="#999999" points="1209,-85 1161,-85 1161,-66 1209,-66 1209,-85"/>
<text text-anchor="middle" x="1185" y="-73" font-family="Helvetica,sans-Serif" font-size="10.00">mutex</text>
</a>
</g>
</g>
<!-- Node19&#45;&gt;Node23 -->
<g id="edge22" class="edge">
<title>Node19&#45;&gt;Node23</title>
<path fill="none" stroke="#63b8ff" d="M1321.38,-131.99C1293.35,-124.17 1252.18,-111.47 1218,-96 1214.29,-94.32 1210.46,-92.33 1206.79,-90.27"/>
<polygon fill="#63b8ff" stroke="#63b8ff" points="1208.52,-87.23 1198.13,-85.15 1204.96,-93.25 1208.52,-87.23"/>
</g>
<!-- Node24 -->
<g id="node24" class="node">
<title>Node24</title>
<g id="a_node24"><a xlink:title=" ">
<polygon fill="#e0e0e0" stroke="#999999" points="1281,-85 1227,-85 1227,-66 1281,-66 1281,-85"/>
<text text-anchor="middle" x="1254" y="-73" font-family="Helvetica,sans-Serif" font-size="10.00">random</text>
</a>
</g>
</g>
<!-- Node19&#45;&gt;Node24 -->
<g id="edge23" class="edge">
<title>Node19&#45;&gt;Node24</title>
<path fill="none" stroke="#63b8ff" d="M1340.51,-131.87C1324.04,-121.32 1295.93,-103.34 1276.24,-90.73"/>
<polygon fill="#63b8ff" stroke="#63b8ff" points="1277.9,-87.64 1267.59,-85.2 1274.13,-93.54 1277.9,-87.64"/>
</g>
<!-- Node25 -->
<g id="node25" class="node">
<title>Node25</title>
<g id="a_node25"><a xlink:title=" ">
<polygon fill="#e0e0e0" stroke="#999999" points="1339,-85 1299,-85 1299,-66 1339,-66 1339,-85"/>
<text text-anchor="middle" x="1319" y="-73" font-family="Helvetica,sans-Serif" font-size="10.00">span</text>
</a>
</g>
</g>
<!-- Node19&#45;&gt;Node25 -->
<g id="edge24" class="edge">
<title>Node19&#45;&gt;Node25</title>
<path fill="none" stroke="#63b8ff" d="M1349.28,-131.87C1344.04,-122.28 1335.43,-106.55 1328.73,-94.3"/>
<polygon fill="#63b8ff" stroke="#63b8ff" points="1331.74,-92.5 1323.87,-85.41 1325.6,-95.86 1331.74,-92.5"/>
</g>
<!-- Node26 -->
<g id="node26" class="node">
<title>Node26</title>
<g id="a_node26"><a xlink:title=" ">
<polygon fill="#e0e0e0" stroke="#999999" points="1422.5,-85 1357.5,-85 1357.5,-66 1422.5,-66 1422.5,-85"/>
<text text-anchor="middle" x="1390" y="-73" font-family="Helvetica,sans-Serif" font-size="10.00">stdexcept</text>
</a>
</g>
</g>
<!-- Node19&#45;&gt;Node26 -->
<g id="edge25" class="edge">
<title>Node19&#45;&gt;Node26</title>
<path fill="none" stroke="#63b8ff" d="M1358.86,-131.87C1364.25,-122.28 1373.1,-106.55 1379.99,-94.3"/>
<polygon fill="#63b8ff" stroke="#63b8ff" points="1383.14,-95.84 1384.99,-85.41 1377.04,-92.41 1383.14,-95.84"/>
</g>
<!-- Node27 -->
<g id="node27" class="node">
<title>Node27</title>
<g id="a_node27"><a xlink:title=" ">
<polygon fill="#e0e0e0" stroke="#999999" points="1485,-85 1441,-85 1441,-66 1485,-66 1485,-85"/>
<text text-anchor="middle" x="1463" y="-73" font-family="Helvetica,sans-Serif" font-size="10.00">string</text>
</a>
</g>
</g>
<!-- Node19&#45;&gt;Node27 -->
<g id="edge26" class="edge">
<title>Node19&#45;&gt;Node27</title>
<path fill="none" stroke="#63b8ff" d="M1369.36,-132C1385.17,-123.18 1410.47,-108.9 1432,-96 1434.89,-94.27 1437.91,-92.42 1440.89,-90.57"/>
<polygon fill="#63b8ff" stroke="#63b8ff" points="1442.89,-93.45 1449.5,-85.17 1439.17,-87.52 1442.89,-93.45"/>
</g>
<!-- Node28 -->
<g id="node28" class="node">
<title>Node28</title>
<g id="a_node28"><a xlink:title=" ">
<polygon fill="#e0e0e0" stroke="#999999" points="1562.5,-85 1503.5,-85 1503.5,-66 1562.5,-66 1562.5,-85"/>
<text text-anchor="middle" x="1533" y="-73" font-family="Helvetica,sans-Serif" font-size="10.00">date/tz.h</text>
</a>
</g>
</g>
<!-- Node19&#45;&gt;Node28 -->
<g id="edge27" class="edge">
<title>Node19&#45;&gt;Node28</title>
<path fill="none" stroke="#63b8ff" d="M1385.63,-131.97C1414.34,-123.88 1457.61,-110.78 1494,-96 1498.66,-94.11 1503.54,-91.88 1508.19,-89.62"/>
<polygon fill="#63b8ff" stroke="#63b8ff" points="1509.95,-92.66 1517.32,-85.04 1506.81,-86.4 1509.95,-92.66"/>
</g>
<!-- Node29 -->
<g id="node29" class="node">
<title>Node29</title>
<g id="a_node29"><a xlink:title=" ">
<polygon fill="#e0e0e0" stroke="#999999" points="1679,-85 1581,-85 1581,-66 1679,-66 1679,-85"/>
<text text-anchor="middle" x="1630" y="-73" font-family="Helvetica,sans-Serif" font-size="10.00">pcg_random.hpp</text>
</a>
</g>
</g>
<!-- Node19&#45;&gt;Node29 -->
<g id="edge28" class="edge">
<title>Node19&#45;&gt;Node29</title>
<path fill="none" stroke="#63b8ff" d="M1392.14,-134.18C1435.92,-126.59 1509.71,-112.76 1572,-96 1580.24,-93.78 1589.02,-91.04 1597.19,-88.31"/>
<polygon fill="#63b8ff" stroke="#63b8ff" points="1598.45,-91.58 1606.78,-85.04 1596.18,-84.96 1598.45,-91.58"/>
</g>
<!-- Node30 -->
<g id="node30" class="node">
<title>Node30</title>
<g id="a_node30"><a xlink:title=" ">
<polygon fill="#e0e0e0" stroke="#999999" points="1783,-85 1697,-85 1697,-66 1783,-66 1783,-85"/>
<text text-anchor="middle" x="1740" y="-73" font-family="Helvetica,sans-Serif" font-size="10.00">fmt/ostream.h</text>
</a>
</g>
</g>
<!-- Node19&#45;&gt;Node30 -->
<g id="edge29" class="edge">
<title>Node19&#45;&gt;Node30</title>
<path fill="none" stroke="#63b8ff" d="M1392.09,-138.24C1454.66,-133.9 1582.74,-122.39 1688,-96 1695.46,-94.13 1703.32,-91.53 1710.6,-88.84"/>
<polygon fill="#63b8ff" stroke="#63b8ff" points="1712.02,-92.05 1720.09,-85.18 1709.5,-85.52 1712.02,-92.05"/>
</g>
<!-- Node31 -->
<g id="node31" class="node">
<title>Node31</title>
<g id="a_node31"><a xlink:title=" ">
<polygon fill="#e0e0e0" stroke="#999999" points="1907,-90.5 1801,-90.5 1801,-60.5 1907,-60.5 1907,-90.5"/>
<text text-anchor="start" x="1809" y="-78.5" font-family="Helvetica,sans-Serif" font-size="10.00">spdlog/sinks/basic</text>
<text text-anchor="middle" x="1854" y="-67.5" font-family="Helvetica,sans-Serif" font-size="10.00">_file_sink.h</text>
</a>
</g>
</g>
<!-- Node19&#45;&gt;Node31 -->
<g id="edge30" class="edge">
<title>Node19&#45;&gt;Node31</title>
<path fill="none" stroke="#63b8ff" d="M1392.18,-139.23C1468.75,-136.11 1646.2,-126.01 1792,-96 1795.81,-95.22 1799.71,-94.29 1803.62,-93.27"/>
<polygon fill="#63b8ff" stroke="#63b8ff" points="1804.59,-96.64 1813.29,-90.59 1802.72,-89.89 1804.59,-96.64"/>
</g>
<!-- Node32 -->
<g id="node32" class="node">
<title>Node32</title>
<g id="a_node32"><a xlink:title=" ">
<polygon fill="#e0e0e0" stroke="#999999" points="2036.5,-90.5 1925.5,-90.5 1925.5,-60.5 2036.5,-60.5 2036.5,-90.5"/>
<text text-anchor="start" x="1933.5" y="-78.5" font-family="Helvetica,sans-Serif" font-size="10.00">spdlog/sinks/stdout</text>
<text text-anchor="middle" x="1981" y="-67.5" font-family="Helvetica,sans-Serif" font-size="10.00">_color_sinks.h</text>
</a>
</g>
</g>
<!-- Node19&#45;&gt;Node32 -->
<g id="edge31" class="edge">
<title>Node19&#45;&gt;Node32</title>
<path fill="none" stroke="#63b8ff" d="M1392.19,-140.26C1483.52,-139.08 1721.43,-132.46 1916,-96 1920.35,-95.18 1924.83,-94.19 1929.29,-93.08"/>
<polygon fill="#63b8ff" stroke="#63b8ff" points="1930.24,-96.45 1939.01,-90.51 1928.45,-89.68 1930.24,-96.45"/>
</g>
<!-- Node33 -->
<g id="node33" class="node">
<title>Node33</title>
<g id="a_node33"><a xlink:title=" ">
<polygon fill="#e0e0e0" stroke="#999999" points="2147.5,-85 2054.5,-85 2054.5,-66 2147.5,-66 2147.5,-85"/>
<text text-anchor="middle" x="2101" y="-73" font-family="Helvetica,sans-Serif" font-size="10.00">spdlog/spdlog.h</text>
</a>
</g>
</g>
<!-- Node19&#45;&gt;Node33 -->
<g id="edge32" class="edge">
<title>Node19&#45;&gt;Node33</title>
<path fill="none" stroke="#63b8ff" d="M1392.25,-139.43C1518.23,-135.69 1919.37,-121.99 2046,-96 2054.47,-94.26 2063.4,-91.52 2071.54,-88.63"/>
<polygon fill="#63b8ff" stroke="#63b8ff" points="2072.87,-91.87 2081.01,-85.09 2070.42,-85.31 2072.87,-91.87"/>
</g>
</g>
</svg>
        <g id="navigator" transform="translate(0 0)" fill="#404254">
                <rect fill="#f2f5e9" fill-opacity="0.5" stroke="#606060" stroke-width=".5" x="0" y="0" width="60" height="60"/>
                <use id="zoomplus" xlink:href="#zoomPlus" x="17" y="9" onmousedown="handleZoom(evt,'in')"/>
                <use id="zoomminus" xlink:href="#zoomMin" x="42" y="9" onmousedown="handleZoom(evt,'out')"/>
                <use id="reset" xlink:href="#resetDef" x="30" y="36" onmousedown="handleReset()"/>
                <g id="arrowUp" xlink:href="#dirArrow" transform="translate(30 24)" onmousedown="handlePan(0,-1)">
                  <use xlink:href="#rim" fill="#404040">
                        <set attributeName="fill" to="#808080" begin="arrowUp.mouseover" end="arrowUp.mouseout"/>
                  </use>
                  <path fill="none" stroke="white" stroke-width="1.5" d="M0,-3.0v7 M-2.5,-0.5L0,-3.0L2.5,-0.5"/>
                </g>
                <g id="arrowRight" xlink:href="#dirArrow" transform="rotate(90) translate(36 -43)" onmousedown="handlePan(1,0)">
                  <use xlink:href="#rim" fill="#404040">
                        <set attributeName="fill" to="#808080" begin="arrowRight.mouseover" end="arrowRight.mouseout"/>
                  </use>
                  <path fill="none" stroke="white" stroke-width="1.5" d="M0,-3.0v7 M-2.5,-0.5L0,-3.0L2.5,-0.5"/>
                </g>
                <g id="arrowDown" xlink:href="#dirArrow" transform="rotate(180) translate(-30 -48)" onmousedown="handlePan(0,1)">
                  <use xlink:href="#rim" fill="#404040">
                        <set attributeName="fill" to="#808080" begin="arrowDown.mouseover" end="arrowDown.mouseout"/>
                  </use>
                  <path fill="none" stroke="white" stroke-width="1.5" d="M0,-3.0v7 M-2.5,-0.5L0,-3.0L2.5,-0.5"/>
                </g>
                <g id="arrowLeft" xlink:href="#dirArrow" transform="rotate(270) translate(-36 17)" onmousedown="handlePan(-1,0)">
                  <use xlink:href="#rim" fill="#404040">
                        <set attributeName="fill" to="#808080" begin="arrowLeft.mouseover" end="arrowLeft.mouseout"/>
                  </use>
                  <path fill="none" stroke="white" stroke-width="1.5" d="M0,-3.0v7 M-2.5,-0.5L0,-3.0L2.5,-0.5"/>
                </g>
        </g>
        <svg viewBox="0 0 15 15" width="100%" height="30px" preserveAspectRatio="xMaxYMin meet">
         <g id="arrow_out" transform="scale(0.3 0.3)">
          <a xlink:href="_vertex__test_8cpp__incl_org.svg" target="_base">
           <rect id="button" ry="5" rx="5" y="6" x="6" height="38" width="38"
                fill="#f2f5e9" fill-opacity="0.5" stroke="#606060" stroke-width="1.0"/>
           <path id="arrow"
             d="M 11.500037,31.436501 C 11.940474,20.09759 22.043105,11.32322 32.158766,21.979434 L 37.068811,17.246167 C 37.068811,17.246167 37.088388,32 37.088388,32 L 22.160133,31.978069 C 22.160133,31.978069 26.997745,27.140456 26.997745,27.140456 C 18.528582,18.264221 13.291696,25.230495 11.500037,31.436501 z"
             style="fill:#404040;"/>
          </a>
         </g>
        </svg>
</svg>
