<?xml version="1.0" encoding="UTF-8" standalone="no"?>
<!DOCTYPE svg PUBLIC "-//W3C//DTD SVG 1.1//EN"
 "http://www.w3.org/Graphics/SVG/1.1/DTD/svg11.dtd">
<!-- Generated by graphviz version 2.43.0 (0)
 -->
<!-- Title: src/bistellar&#45;flip.cpp Pages: 1 -->
<svg width="2707pt" height="442pt"
 viewBox="0.00 0.00 2706.50 442.00" xmlns="http://www.w3.org/2000/svg" xmlns:xlink="http://www.w3.org/1999/xlink">
<g id="graph0" class="graph" transform="scale(1 1) rotate(0) translate(4 438)">
<title>src/bistellar&#45;flip.cpp</title>
<polygon fill="white" stroke="transparent" points="-4,4 -4,-438 2702.5,-438 2702.5,4 -4,4"/>
<!-- Node1 -->
<g id="node1" class="node">
<title>Node1</title>
<g id="a_node1"><a xlink:title="Tests and views bistellar flips.">
<polygon fill="#bfbfbf" stroke="black" points="625,-414.5 625,-433.5 738,-433.5 738,-414.5 625,-414.5"/>
<text text-anchor="middle" x="681.5" y="-421.5" font-family="Helvetica,sans-Serif" font-size="10.00">src/bistellar&#45;flip.cpp</text>
</a>
</g>
</g>
<!-- Node2 -->
<g id="node2" class="node">
<title>Node2</title>
<g id="a_node2"><a xlink:title=" ">
<polygon fill="white" stroke="#bfbfbf" points="439,-358.5 439,-377.5 534,-377.5 534,-358.5 439,-358.5"/>
<text text-anchor="middle" x="486.5" y="-365.5" font-family="Helvetica,sans-Serif" font-size="10.00">docopt/docopt.h</text>
</a>
</g>
</g>
<!-- Node1&#45;&gt;Node2 -->
<g id="edge1" class="edge">
<title>Node1&#45;&gt;Node2</title>
<path fill="none" stroke="midnightblue" d="M650.6,-414.44C617.23,-405.2 563.91,-390.44 527.15,-380.26"/>
<polygon fill="midnightblue" stroke="midnightblue" points="527.83,-376.81 517.25,-377.52 525.96,-383.56 527.83,-376.81"/>
</g>
<!-- Node3 -->
<g id="node3" class="node">
<title>Node3</title>
<g id="a_node3"><a xlink:title=" ">
<polygon fill="white" stroke="#bfbfbf" points="552,-358.5 552,-377.5 653,-377.5 653,-358.5 552,-358.5"/>
<text text-anchor="middle" x="602.5" y="-365.5" font-family="Helvetica,sans-Serif" font-size="10.00">doctest/doctest.h</text>
</a>
</g>
</g>
<!-- Node1&#45;&gt;Node3 -->
<g id="edge2" class="edge">
<title>Node1&#45;&gt;Node3</title>
<path fill="none" stroke="midnightblue" d="M668.81,-414.32C656.6,-405.98 637.92,-393.21 623.5,-383.35"/>
<polygon fill="midnightblue" stroke="midnightblue" points="625.39,-380.41 615.16,-377.65 621.44,-386.19 625.39,-380.41"/>
</g>
<!-- Node4 -->
<g id="node4" class="node">
<title>Node4</title>
<g id="a_node4"><a xlink:title=" ">
<polygon fill="white" stroke="#bfbfbf" points="0,-67.5 0,-86.5 93,-86.5 93,-67.5 0,-67.5"/>
<text text-anchor="middle" x="46.5" y="-74.5" font-family="Helvetica,sans-Serif" font-size="10.00">spdlog/spdlog.h</text>
</a>
</g>
</g>
<!-- Node1&#45;&gt;Node4 -->
<g id="edge3" class="edge">
<title>Node1&#45;&gt;Node4</title>
<path fill="none" stroke="midnightblue" d="M681.5,-414.44C681.5,-395.94 681.5,-350.81 681.5,-313 681.5,-313 681.5,-313 681.5,-199 681.5,-68.39 228.79,-131.31 102.5,-98 94.2,-95.81 85.38,-92.93 77.25,-90.04"/>
<polygon fill="midnightblue" stroke="midnightblue" points="78.36,-86.72 67.77,-86.56 75.95,-93.29 78.36,-86.72"/>
</g>
<!-- Node5 -->
<g id="node5" class="node">
<title>Node5</title>
<g id="a_node5"><a xlink:title=" ">
<polygon fill="white" stroke="#bfbfbf" points="1757,-358.5 1757,-377.5 1816,-377.5 1816,-358.5 1757,-358.5"/>
<text text-anchor="middle" x="1786.5" y="-365.5" font-family="Helvetica,sans-Serif" font-size="10.00">numbers</text>
</a>
</g>
</g>
<!-- Node1&#45;&gt;Node5 -->
<g id="edge4" class="edge">
<title>Node1&#45;&gt;Node5</title>
<path fill="none" stroke="midnightblue" d="M738.31,-422.03C926.79,-418.6 1531.31,-405.76 1746.77,-377.95"/>
<polygon fill="midnightblue" stroke="midnightblue" points="1747.28,-381.41 1756.73,-376.62 1746.35,-374.48 1747.28,-381.41"/>
</g>
<!-- Node6 -->
<g id="node6" class="node">
<title>Node6</title>
<g id="a_node6"><a xlink:href="_ergodic__moves__3_8hpp.html" target="_top" xlink:title="Pachner moves on 2+1 dimensional foliated Delaunay triangulations.">
<polygon fill="white" stroke="black" points="1616,-358.5 1616,-377.5 1739,-377.5 1739,-358.5 1616,-358.5"/>
<text text-anchor="middle" x="1677.5" y="-365.5" font-family="Helvetica,sans-Serif" font-size="10.00">Ergodic_moves_3.hpp</text>
</a>
</g>
</g>
<!-- Node1&#45;&gt;Node6 -->
<g id="edge5" class="edge">
<title>Node1&#45;&gt;Node6</title>
<path fill="none" stroke="midnightblue" d="M738.26,-419.92C908.86,-410.67 1416.84,-383.13 1605.72,-372.89"/>
<polygon fill="midnightblue" stroke="midnightblue" points="1606.02,-376.38 1615.81,-372.34 1605.64,-369.39 1606.02,-376.38"/>
</g>
<!-- Node7 -->
<g id="node7" class="node">
<title>Node7</title>
<g id="a_node7"><a xlink:title=" ">
<polygon fill="white" stroke="#bfbfbf" points="1809.5,-302.5 1809.5,-321.5 1901.5,-321.5 1901.5,-302.5 1809.5,-302.5"/>
<text text-anchor="middle" x="1855.5" y="-309.5" font-family="Helvetica,sans-Serif" font-size="10.00">tl/expected.hpp</text>
</a>
</g>
</g>
<!-- Node6&#45;&gt;Node7 -->
<g id="edge6" class="edge">
<title>Node6&#45;&gt;Node7</title>
<path fill="none" stroke="midnightblue" d="M1705.7,-358.44C1735.91,-349.28 1784.01,-334.69 1817.53,-324.52"/>
<polygon fill="midnightblue" stroke="midnightblue" points="1818.87,-327.77 1827.43,-321.52 1816.84,-321.07 1818.87,-327.77"/>
</g>
<!-- Node8 -->
<g id="node8" class="node">
<title>Node8</title>
<g id="a_node8"><a xlink:href="_manifold_8hpp.html" target="_top" xlink:title="Data structures for manifolds.">
<polygon fill="white" stroke="black" points="1711.5,-302.5 1711.5,-321.5 1791.5,-321.5 1791.5,-302.5 1711.5,-302.5"/>
<text text-anchor="middle" x="1751.5" y="-309.5" font-family="Helvetica,sans-Serif" font-size="10.00">Manifold.hpp</text>
</a>
</g>
</g>
<!-- Node6&#45;&gt;Node8 -->
<g id="edge7" class="edge">
<title>Node6&#45;&gt;Node8</title>
<path fill="none" stroke="midnightblue" d="M1689.39,-358.32C1700.65,-350.11 1717.79,-337.6 1731.21,-327.81"/>
<polygon fill="midnightblue" stroke="midnightblue" points="1733.38,-330.56 1739.39,-321.83 1729.25,-324.9 1733.38,-330.56"/>
</g>
<!-- Node45 -->
<g id="node45" class="node">
<title>Node45</title>
<g id="a_node45"><a xlink:href="_move__tracker_8hpp.html" target="_top" xlink:title="Track ergodic moves.">
<polygon fill="white" stroke="black" points="1626,-190.5 1626,-209.5 1729,-209.5 1729,-190.5 1626,-190.5"/>
<text text-anchor="middle" x="1677.5" y="-197.5" font-family="Helvetica,sans-Serif" font-size="10.00">Move_tracker.hpp</text>
</a>
</g>
</g>
<!-- Node6&#45;&gt;Node45 -->
<g id="edge46" class="edge">
<title>Node6&#45;&gt;Node45</title>
<path fill="none" stroke="midnightblue" d="M1677.5,-358.08C1677.5,-331.95 1677.5,-255.21 1677.5,-219.58"/>
<polygon fill="midnightblue" stroke="midnightblue" points="1681,-219.57 1677.5,-209.57 1674,-219.57 1681,-219.57"/>
</g>
<!-- Node9 -->
<g id="node9" class="node">
<title>Node9</title>
<g id="a_node9"><a xlink:title=" ">
<polygon fill="white" stroke="#bfbfbf" points="1846,-134.5 1846,-153.5 1899,-153.5 1899,-134.5 1846,-134.5"/>
<text text-anchor="middle" x="1872.5" y="-141.5" font-family="Helvetica,sans-Serif" font-size="10.00">cstddef</text>
</a>
</g>
</g>
<!-- Node8&#45;&gt;Node9 -->
<g id="edge8" class="edge">
<title>Node8&#45;&gt;Node9</title>
<path fill="none" stroke="midnightblue" d="M1753.73,-302.08C1757.24,-289.06 1764.87,-264.4 1776.5,-246 1798.29,-211.52 1833.03,-178.64 1854.2,-160.22"/>
<polygon fill="midnightblue" stroke="midnightblue" points="1856.52,-162.83 1861.85,-153.67 1851.98,-157.51 1856.52,-162.83"/>
</g>
<!-- Node10 -->
<g id="node10" class="node">
<title>Node10</title>
<g id="a_node10"><a xlink:title=" ">
<polygon fill="white" stroke="#bfbfbf" points="1785.5,-246.5 1785.5,-265.5 1871.5,-265.5 1871.5,-246.5 1785.5,-246.5"/>
<text text-anchor="middle" x="1828.5" y="-253.5" font-family="Helvetica,sans-Serif" font-size="10.00">unordered_set</text>
</a>
</g>
</g>
<!-- Node8&#45;&gt;Node10 -->
<g id="edge9" class="edge">
<title>Node8&#45;&gt;Node10</title>
<path fill="none" stroke="midnightblue" d="M1763.87,-302.32C1775.66,-294.06 1793.63,-281.45 1807.64,-271.63"/>
<polygon fill="midnightblue" stroke="midnightblue" points="1809.98,-274.26 1816.16,-265.65 1805.96,-268.53 1809.98,-274.26"/>
</g>
<!-- Node11 -->
<g id="node11" class="node">
<title>Node11</title>
<g id="a_node11"><a xlink:title=" ">
<polygon fill="white" stroke="#bfbfbf" points="1890,-246.5 1890,-265.5 1935,-265.5 1935,-246.5 1890,-246.5"/>
<text text-anchor="middle" x="1912.5" y="-253.5" font-family="Helvetica,sans-Serif" font-size="10.00">utility</text>
</a>
</g>
</g>
<!-- Node8&#45;&gt;Node11 -->
<g id="edge10" class="edge">
<title>Node8&#45;&gt;Node11</title>
<path fill="none" stroke="midnightblue" d="M1777.01,-302.44C1804.97,-293.07 1849.89,-278 1880.27,-267.81"/>
<polygon fill="midnightblue" stroke="midnightblue" points="1881.6,-271.06 1889.97,-264.56 1879.37,-264.42 1881.6,-271.06"/>
</g>
<!-- Node12 -->
<g id="node12" class="node">
<title>Node12</title>
<g id="a_node12"><a xlink:href="_geometry_8hpp.html" target="_top" xlink:title="Geometric scalars of the Manifold used to calculate the Regge action.">
<polygon fill="white" stroke="black" points="1516,-246.5 1516,-265.5 1601,-265.5 1601,-246.5 1516,-246.5"/>
<text text-anchor="middle" x="1558.5" y="-253.5" font-family="Helvetica,sans-Serif" font-size="10.00">Geometry.hpp</text>
</a>
</g>
</g>
<!-- Node8&#45;&gt;Node12 -->
<g id="edge11" class="edge">
<title>Node8&#45;&gt;Node12</title>
<path fill="none" stroke="midnightblue" d="M1720.92,-302.44C1687.89,-293.2 1635.11,-278.44 1598.73,-268.26"/>
<polygon fill="midnightblue" stroke="midnightblue" points="1599.51,-264.84 1588.94,-265.52 1597.63,-271.58 1599.51,-264.84"/>
</g>
<!-- Node13 -->
<g id="node13" class="node">
<title>Node13</title>
<g id="a_node13"><a xlink:href="_foliated__triangulation_8hpp.html" target="_top" xlink:title="Create foliated spherical triangulations.">
<polygon fill="white" stroke="black" points="1439.5,-190.5 1439.5,-209.5 1583.5,-209.5 1583.5,-190.5 1439.5,-190.5"/>
<text text-anchor="middle" x="1511.5" y="-197.5" font-family="Helvetica,sans-Serif" font-size="10.00">Foliated_triangulation.hpp</text>
</a>
</g>
</g>
<!-- Node12&#45;&gt;Node13 -->
<g id="edge12" class="edge">
<title>Node12&#45;&gt;Node13</title>
<path fill="none" stroke="midnightblue" d="M1550.74,-246.08C1543.96,-238.3 1533.96,-226.8 1525.74,-217.37"/>
<polygon fill="midnightblue" stroke="midnightblue" points="1528.32,-215 1519.12,-209.75 1523.04,-219.59 1528.32,-215"/>
</g>
<!-- Node14 -->
<g id="node14" class="node">
<title>Node14</title>
<g id="a_node14"><a xlink:title=" ">
<polygon fill="white" stroke="#bfbfbf" points="1469.5,-134.5 1469.5,-153.5 1529.5,-153.5 1529.5,-134.5 1469.5,-134.5"/>
<text text-anchor="middle" x="1499.5" y="-141.5" font-family="Helvetica,sans-Serif" font-size="10.00">concepts</text>
</a>
</g>
</g>
<!-- Node13&#45;&gt;Node14 -->
<g id="edge13" class="edge">
<title>Node13&#45;&gt;Node14</title>
<path fill="none" stroke="midnightblue" d="M1509.52,-190.08C1507.93,-182.93 1505.64,-172.64 1503.65,-163.69"/>
<polygon fill="midnightblue" stroke="midnightblue" points="1507.03,-162.75 1501.44,-153.75 1500.2,-164.27 1507.03,-162.75"/>
</g>
<!-- Node15 -->
<g id="node15" class="node">
<title>Node15</title>
<g id="a_node15"><a xlink:href="_triangulation__traits_8hpp.html" target="_top" xlink:title="Traits class for particular uses of CGAL.">
<polygon fill="white" stroke="black" points="710,-134.5 710,-153.5 841,-153.5 841,-134.5 710,-134.5"/>
<text text-anchor="middle" x="775.5" y="-141.5" font-family="Helvetica,sans-Serif" font-size="10.00">Triangulation_traits.hpp</text>
</a>
</g>
</g>
<!-- Node13&#45;&gt;Node15 -->
<g id="edge14" class="edge">
<title>Node13&#45;&gt;Node15</title>
<path fill="none" stroke="midnightblue" d="M1439.25,-193.7C1299.68,-183.46 994.2,-161.05 851.62,-150.59"/>
<polygon fill="midnightblue" stroke="midnightblue" points="851.46,-147.06 841.23,-149.82 850.95,-154.04 851.46,-147.06"/>
</g>
<!-- Node24 -->
<g id="node24" class="node">
<title>Node24</title>
<g id="a_node24"><a xlink:href="_utilities_8hpp.html" target="_top" xlink:title="Utility functions.">
<polygon fill="white" stroke="black" points="1585.5,-134.5 1585.5,-153.5 1661.5,-153.5 1661.5,-134.5 1585.5,-134.5"/>
<text text-anchor="middle" x="1623.5" y="-141.5" font-family="Helvetica,sans-Serif" font-size="10.00">Utilities.hpp</text>
</a>
</g>
</g>
<!-- Node13&#45;&gt;Node24 -->
<g id="edge23" class="edge">
<title>Node13&#45;&gt;Node24</title>
<path fill="none" stroke="midnightblue" d="M1529.49,-190.32C1547.54,-181.62 1575.55,-168.12 1596.3,-158.11"/>
<polygon fill="midnightblue" stroke="midnightblue" points="1598.06,-161.15 1605.55,-153.65 1595.02,-154.84 1598.06,-161.15"/>
</g>
<!-- Node16 -->
<g id="node16" class="node">
<title>Node16</title>
<g id="a_node16"><a xlink:title=" ">
<polygon fill="white" stroke="#bfbfbf" points="111.5,-67.5 111.5,-86.5 291.5,-86.5 291.5,-67.5 111.5,-67.5"/>
<text text-anchor="middle" x="201.5" y="-74.5" font-family="Helvetica,sans-Serif" font-size="10.00">CGAL/Delaunay_triangulation_3.h</text>
</a>
</g>
</g>
<!-- Node15&#45;&gt;Node16 -->
<g id="edge15" class="edge">
<title>Node15&#45;&gt;Node16</title>
<path fill="none" stroke="midnightblue" d="M709.59,-135.47C704.82,-134.96 700.09,-134.47 695.5,-134 520.12,-116.15 474.93,-123.49 300.5,-98 283.55,-95.52 265.11,-92.02 248.79,-88.64"/>
<polygon fill="midnightblue" stroke="midnightblue" points="249.45,-85.2 238.94,-86.56 248,-92.05 249.45,-85.2"/>
</g>
<!-- Node17 -->
<g id="node17" class="node">
<title>Node17</title>
<g id="a_node17"><a xlink:title=" ">
<polygon fill="white" stroke="#bfbfbf" points="310,-56.5 310,-97.5 439,-97.5 439,-56.5 310,-56.5"/>
<text text-anchor="start" x="318" y="-85.5" font-family="Helvetica,sans-Serif" font-size="10.00">CGAL/Exact_predicates</text>
<text text-anchor="start" x="318" y="-74.5" font-family="Helvetica,sans-Serif" font-size="10.00">_inexact_constructions</text>
<text text-anchor="middle" x="374.5" y="-63.5" font-family="Helvetica,sans-Serif" font-size="10.00">_kernel.h</text>
</a>
</g>
</g>
<!-- Node15&#45;&gt;Node17 -->
<g id="edge16" class="edge">
<title>Node15&#45;&gt;Node17</title>
<path fill="none" stroke="midnightblue" d="M709.78,-135.02C633.3,-125.56 510.56,-109.81 449.27,-98.19"/>
<polygon fill="midnightblue" stroke="midnightblue" points="449.76,-94.72 439.27,-96.22 448.41,-101.59 449.76,-94.72"/>
</g>
<!-- Node18 -->
<g id="node18" class="node">
<title>Node18</title>
<g id="a_node18"><a xlink:title=" ">
<polygon fill="white" stroke="#bfbfbf" points="457,-67.5 457,-86.5 606,-86.5 606,-67.5 457,-67.5"/>
<text text-anchor="middle" x="531.5" y="-74.5" font-family="Helvetica,sans-Serif" font-size="10.00">CGAL/point_generators_3.h</text>
</a>
</g>
</g>
<!-- Node15&#45;&gt;Node18 -->
<g id="edge17" class="edge">
<title>Node15&#45;&gt;Node18</title>
<path fill="none" stroke="midnightblue" d="M743.35,-134.44C699.74,-122.82 621.75,-102.04 573.53,-89.2"/>
<polygon fill="midnightblue" stroke="midnightblue" points="574.28,-85.78 563.72,-86.58 572.48,-92.54 574.28,-85.78"/>
</g>
<!-- Node19 -->
<g id="node19" class="node">
<title>Node19</title>
<g id="a_node19"><a xlink:title=" ">
<polygon fill="white" stroke="#bfbfbf" points="624.5,-62 624.5,-92 762.5,-92 762.5,-62 624.5,-62"/>
<text text-anchor="start" x="632.5" y="-80" font-family="Helvetica,sans-Serif" font-size="10.00">CGAL/Triangulation</text>
<text text-anchor="middle" x="693.5" y="-69" font-family="Helvetica,sans-Serif" font-size="10.00">_cell_base_with_info_3.h</text>
</a>
</g>
</g>
<!-- Node15&#45;&gt;Node19 -->
<g id="edge18" class="edge">
<title>Node15&#45;&gt;Node19</title>
<path fill="none" stroke="midnightblue" d="M764.44,-134.23C752.93,-125.11 734.5,-110.5 719.31,-98.46"/>
<polygon fill="midnightblue" stroke="midnightblue" points="721.28,-95.56 711.27,-92.09 716.94,-101.04 721.28,-95.56"/>
</g>
<!-- Node20 -->
<g id="node20" class="node">
<title>Node20</title>
<g id="a_node20"><a xlink:title=" ">
<polygon fill="white" stroke="#bfbfbf" points="780.5,-62 780.5,-92 932.5,-92 932.5,-62 780.5,-62"/>
<text text-anchor="start" x="788.5" y="-80" font-family="Helvetica,sans-Serif" font-size="10.00">CGAL/Triangulation</text>
<text text-anchor="middle" x="856.5" y="-69" font-family="Helvetica,sans-Serif" font-size="10.00">_vertex_base_with_info_3.h</text>
</a>
</g>
</g>
<!-- Node15&#45;&gt;Node20 -->
<g id="edge19" class="edge">
<title>Node15&#45;&gt;Node20</title>
<path fill="none" stroke="midnightblue" d="M786.42,-134.23C797.79,-125.11 816,-110.5 831,-98.46"/>
<polygon fill="midnightblue" stroke="midnightblue" points="833.33,-101.08 838.94,-92.09 828.95,-95.62 833.33,-101.08"/>
</g>
<!-- Node21 -->
<g id="node21" class="node">
<title>Node21</title>
<g id="a_node21"><a xlink:href="_settings_8hpp.html" target="_top" xlink:title="Global integer and precision settings.">
<polygon fill="white" stroke="black" points="951,-67.5 951,-86.5 1028,-86.5 1028,-67.5 951,-67.5"/>
<text text-anchor="middle" x="989.5" y="-74.5" font-family="Helvetica,sans-Serif" font-size="10.00">Settings.hpp</text>
</a>
</g>
</g>
<!-- Node15&#45;&gt;Node21 -->
<g id="edge20" class="edge">
<title>Node15&#45;&gt;Node21</title>
<path fill="none" stroke="midnightblue" d="M812.51,-134.43C846.43,-126.24 897.85,-112.94 941.5,-98 947.89,-95.81 954.64,-93.2 961,-90.59"/>
<polygon fill="midnightblue" stroke="midnightblue" points="962.71,-93.67 970.57,-86.56 959.99,-87.22 962.71,-93.67"/>
</g>
<!-- Node22 -->
<g id="node22" class="node">
<title>Node22</title>
<g id="a_node22"><a xlink:title=" ">
<polygon fill="white" stroke="#bfbfbf" points="862.5,-0.5 862.5,-19.5 1002.5,-19.5 1002.5,-0.5 862.5,-0.5"/>
<text text-anchor="middle" x="932.5" y="-7.5" font-family="Helvetica,sans-Serif" font-size="10.00">CGAL/GMP/Gmpzf_type.h</text>
</a>
</g>
</g>
<!-- Node21&#45;&gt;Node22 -->
<g id="edge21" class="edge">
<title>Node21&#45;&gt;Node22</title>
<path fill="none" stroke="midnightblue" d="M981.81,-67.23C972.84,-57 957.81,-39.86 946.7,-27.19"/>
<polygon fill="midnightblue" stroke="midnightblue" points="949.29,-24.84 940.07,-19.63 944.03,-29.45 949.29,-24.84"/>
</g>
<!-- Node23 -->
<g id="node23" class="node">
<title>Node23</title>
<g id="a_node23"><a xlink:title=" ">
<polygon fill="white" stroke="#bfbfbf" points="1020.5,-0.5 1020.5,-19.5 1070.5,-19.5 1070.5,-0.5 1020.5,-0.5"/>
<text text-anchor="middle" x="1045.5" y="-7.5" font-family="Helvetica,sans-Serif" font-size="10.00">cstdint</text>
</a>
</g>
</g>
<!-- Node21&#45;&gt;Node23 -->
<g id="edge22" class="edge">
<title>Node21&#45;&gt;Node23</title>
<path fill="none" stroke="midnightblue" d="M997.05,-67.23C1005.78,-57.1 1020.35,-40.19 1031.24,-27.56"/>
<polygon fill="midnightblue" stroke="midnightblue" points="1034.19,-29.49 1038.07,-19.63 1028.89,-24.92 1034.19,-29.49"/>
</g>
<!-- Node24&#45;&gt;Node4 -->
<g id="edge44" class="edge">
<title>Node24&#45;&gt;Node4</title>
<path fill="none" stroke="midnightblue" d="M1585.47,-138.31C1570.82,-136.68 1553.9,-135.01 1538.5,-134 1219.97,-113.18 416.32,-156.42 102.5,-98 93.45,-96.32 83.92,-93.38 75.33,-90.27"/>
<polygon fill="midnightblue" stroke="midnightblue" points="76.36,-86.92 65.77,-86.6 73.86,-93.45 76.36,-86.92"/>
</g>
<!-- Node24&#45;&gt;Node21 -->
<g id="edge45" class="edge">
<title>Node24&#45;&gt;Node21</title>
<path fill="none" stroke="midnightblue" d="M1585.23,-135.91C1580.61,-135.19 1575.96,-134.53 1571.5,-134 1334.88,-105.64 1268.28,-153.43 1036.5,-98 1029.43,-96.31 1022.07,-93.65 1015.33,-90.82"/>
<polygon fill="midnightblue" stroke="midnightblue" points="1016.56,-87.53 1006,-86.63 1013.69,-93.92 1016.56,-87.53"/>
</g>
<!-- Node25 -->
<g id="node25" class="node">
<title>Node25</title>
<g id="a_node25"><a xlink:title=" ">
<polygon fill="white" stroke="#bfbfbf" points="1046,-67.5 1046,-86.5 1129,-86.5 1129,-67.5 1046,-67.5"/>
<text text-anchor="middle" x="1087.5" y="-74.5" font-family="Helvetica,sans-Serif" font-size="10.00">CGAL/Timer.h</text>
</a>
</g>
</g>
<!-- Node24&#45;&gt;Node25 -->
<g id="edge24" class="edge">
<title>Node24&#45;&gt;Node25</title>
<path fill="none" stroke="midnightblue" d="M1585.22,-135.98C1580.61,-135.25 1575.95,-134.57 1571.5,-134 1379.95,-109.51 1326.6,-141.71 1138.5,-98 1130.64,-96.17 1122.39,-93.36 1114.87,-90.42"/>
<polygon fill="midnightblue" stroke="midnightblue" points="1116.08,-87.13 1105.5,-86.54 1113.41,-93.6 1116.08,-87.13"/>
</g>
<!-- Node26 -->
<g id="node26" class="node">
<title>Node26</title>
<g id="a_node26"><a xlink:title=" ">
<polygon fill="white" stroke="#bfbfbf" points="1147.5,-67.5 1147.5,-86.5 1211.5,-86.5 1211.5,-67.5 1147.5,-67.5"/>
<text text-anchor="middle" x="1179.5" y="-74.5" font-family="Helvetica,sans-Serif" font-size="10.00">algorithm</text>
</a>
</g>
</g>
<!-- Node24&#45;&gt;Node26 -->
<g id="edge25" class="edge">
<title>Node24&#45;&gt;Node26</title>
<path fill="none" stroke="midnightblue" d="M1585.49,-136.11C1580.79,-135.35 1576.04,-134.62 1571.5,-134 1416.15,-112.62 1371.3,-141.04 1220.5,-98 1214.55,-96.3 1208.41,-93.78 1202.75,-91.09"/>
<polygon fill="midnightblue" stroke="midnightblue" points="1204.3,-87.95 1193.8,-86.52 1201.12,-94.18 1204.3,-87.95"/>
</g>
<!-- Node27 -->
<g id="node27" class="node">
<title>Node27</title>
<g id="a_node27"><a xlink:title=" ">
<polygon fill="white" stroke="#bfbfbf" points="1229.5,-67.5 1229.5,-86.5 1281.5,-86.5 1281.5,-67.5 1229.5,-67.5"/>
<text text-anchor="middle" x="1255.5" y="-74.5" font-family="Helvetica,sans-Serif" font-size="10.00">cassert</text>
</a>
</g>
</g>
<!-- Node24&#45;&gt;Node27 -->
<g id="edge26" class="edge">
<title>Node24&#45;&gt;Node27</title>
<path fill="none" stroke="midnightblue" d="M1585.48,-136.22C1580.77,-135.44 1576.03,-134.68 1571.5,-134 1446.99,-115.26 1409.89,-138 1290.5,-98 1285.9,-96.46 1281.22,-94.28 1276.84,-91.93"/>
<polygon fill="midnightblue" stroke="midnightblue" points="1278.29,-88.72 1267.9,-86.68 1274.75,-94.76 1278.29,-88.72"/>
</g>
<!-- Node28 -->
<g id="node28" class="node">
<title>Node28</title>
<g id="a_node28"><a xlink:title=" ">
<polygon fill="white" stroke="#bfbfbf" points="1300,-67.5 1300,-86.5 1349,-86.5 1349,-67.5 1300,-67.5"/>
<text text-anchor="middle" x="1324.5" y="-74.5" font-family="Helvetica,sans-Serif" font-size="10.00">cstdlib</text>
</a>
</g>
</g>
<!-- Node24&#45;&gt;Node28 -->
<g id="edge27" class="edge">
<title>Node24&#45;&gt;Node28</title>
<path fill="none" stroke="midnightblue" d="M1585.45,-136.4C1580.75,-135.59 1576.02,-134.77 1571.5,-134 1476.87,-117.81 1448.7,-130.88 1358.5,-98 1354.04,-96.37 1349.5,-94.16 1345.25,-91.8"/>
<polygon fill="midnightblue" stroke="midnightblue" points="1346.93,-88.72 1336.55,-86.55 1343.31,-94.72 1346.93,-88.72"/>
</g>
<!-- Node29 -->
<g id="node29" class="node">
<title>Node29</title>
<g id="a_node29"><a xlink:title=" ">
<polygon fill="white" stroke="#bfbfbf" points="1367.5,-67.5 1367.5,-86.5 1435.5,-86.5 1435.5,-67.5 1367.5,-67.5"/>
<text text-anchor="middle" x="1401.5" y="-74.5" font-family="Helvetica,sans-Serif" font-size="10.00">filesystem</text>
</a>
</g>
</g>
<!-- Node24&#45;&gt;Node29 -->
<g id="edge28" class="edge">
<title>Node24&#45;&gt;Node29</title>
<path fill="none" stroke="midnightblue" d="M1585.17,-135.56C1548.5,-127.93 1491.91,-114.82 1444.5,-98 1438.73,-95.95 1432.69,-93.41 1427.02,-90.83"/>
<polygon fill="midnightblue" stroke="midnightblue" points="1428.47,-87.65 1417.94,-86.54 1425.48,-93.98 1428.47,-87.65"/>
</g>
<!-- Node30 -->
<g id="node30" class="node">
<title>Node30</title>
<g id="a_node30"><a xlink:title=" ">
<polygon fill="white" stroke="#bfbfbf" points="1454,-67.5 1454,-86.5 1509,-86.5 1509,-67.5 1454,-67.5"/>
<text text-anchor="middle" x="1481.5" y="-74.5" font-family="Helvetica,sans-Serif" font-size="10.00">fstream</text>
</a>
</g>
</g>
<!-- Node24&#45;&gt;Node30 -->
<g id="edge29" class="edge">
<title>Node24&#45;&gt;Node30</title>
<path fill="none" stroke="midnightblue" d="M1601.93,-134.42C1580.52,-125.76 1546.89,-111.72 1518.5,-98 1514.32,-95.98 1509.93,-93.73 1505.7,-91.49"/>
<polygon fill="midnightblue" stroke="midnightblue" points="1507.28,-88.36 1496.82,-86.68 1503.95,-94.52 1507.28,-88.36"/>
</g>
<!-- Node31 -->
<g id="node31" class="node">
<title>Node31</title>
<g id="a_node31"><a xlink:title=" ">
<polygon fill="white" stroke="#bfbfbf" points="1527.5,-67.5 1527.5,-86.5 1575.5,-86.5 1575.5,-67.5 1527.5,-67.5"/>
<text text-anchor="middle" x="1551.5" y="-74.5" font-family="Helvetica,sans-Serif" font-size="10.00">gsl/gsl</text>
</a>
</g>
</g>
<!-- Node24&#45;&gt;Node31 -->
<g id="edge30" class="edge">
<title>Node24&#45;&gt;Node31</title>
<path fill="none" stroke="midnightblue" d="M1613.79,-134.23C1602.24,-123.81 1582.75,-106.21 1568.64,-93.47"/>
<polygon fill="midnightblue" stroke="midnightblue" points="1570.82,-90.73 1561.06,-86.63 1566.13,-95.93 1570.82,-90.73"/>
</g>
<!-- Node32 -->
<g id="node32" class="node">
<title>Node32</title>
<g id="a_node32"><a xlink:title=" ">
<polygon fill="white" stroke="#bfbfbf" points="1593.5,-67.5 1593.5,-86.5 1653.5,-86.5 1653.5,-67.5 1593.5,-67.5"/>
<text text-anchor="middle" x="1623.5" y="-74.5" font-family="Helvetica,sans-Serif" font-size="10.00">iostream</text>
</a>
</g>
</g>
<!-- Node24&#45;&gt;Node32 -->
<g id="edge31" class="edge">
<title>Node24&#45;&gt;Node32</title>
<path fill="none" stroke="midnightblue" d="M1623.5,-134.23C1623.5,-124.68 1623.5,-109.12 1623.5,-96.78"/>
<polygon fill="midnightblue" stroke="midnightblue" points="1627,-96.63 1623.5,-86.63 1620,-96.63 1627,-96.63"/>
</g>
<!-- Node33 -->
<g id="node33" class="node">
<title>Node33</title>
<g id="a_node33"><a xlink:title=" ">
<polygon fill="white" stroke="#bfbfbf" points="1671.5,-67.5 1671.5,-86.5 1719.5,-86.5 1719.5,-67.5 1671.5,-67.5"/>
<text text-anchor="middle" x="1695.5" y="-74.5" font-family="Helvetica,sans-Serif" font-size="10.00">mutex</text>
</a>
</g>
</g>
<!-- Node24&#45;&gt;Node33 -->
<g id="edge32" class="edge">
<title>Node24&#45;&gt;Node33</title>
<path fill="none" stroke="midnightblue" d="M1633.21,-134.23C1644.76,-123.81 1664.25,-106.21 1678.36,-93.47"/>
<polygon fill="midnightblue" stroke="midnightblue" points="1680.87,-95.93 1685.94,-86.63 1676.18,-90.73 1680.87,-95.93"/>
</g>
<!-- Node34 -->
<g id="node34" class="node">
<title>Node34</title>
<g id="a_node34"><a xlink:title=" ">
<polygon fill="white" stroke="#bfbfbf" points="1737.5,-67.5 1737.5,-86.5 1791.5,-86.5 1791.5,-67.5 1737.5,-67.5"/>
<text text-anchor="middle" x="1764.5" y="-74.5" font-family="Helvetica,sans-Serif" font-size="10.00">random</text>
</a>
</g>
</g>
<!-- Node24&#45;&gt;Node34 -->
<g id="edge33" class="edge">
<title>Node24&#45;&gt;Node34</title>
<path fill="none" stroke="midnightblue" d="M1645.11,-134.49C1666.54,-125.88 1700.19,-111.89 1728.5,-98 1732.66,-95.96 1737.01,-93.67 1741.2,-91.4"/>
<polygon fill="midnightblue" stroke="midnightblue" points="1742.93,-94.44 1749.97,-86.52 1739.53,-88.32 1742.93,-94.44"/>
</g>
<!-- Node35 -->
<g id="node35" class="node">
<title>Node35</title>
<g id="a_node35"><a xlink:title=" ">
<polygon fill="white" stroke="#bfbfbf" points="2658.5,-67.5 2658.5,-86.5 2698.5,-86.5 2698.5,-67.5 2658.5,-67.5"/>
<text text-anchor="middle" x="2678.5" y="-74.5" font-family="Helvetica,sans-Serif" font-size="10.00">span</text>
</a>
</g>
</g>
<!-- Node24&#45;&gt;Node35 -->
<g id="edge34" class="edge">
<title>Node24&#45;&gt;Node35</title>
<path fill="none" stroke="midnightblue" d="M1661.76,-135.78C1666.37,-135.08 1671.03,-134.47 1675.5,-134 1890.92,-111.48 2443.93,-166.2 2649.5,-98 2653.44,-96.69 2657.32,-94.68 2660.91,-92.42"/>
<polygon fill="midnightblue" stroke="midnightblue" points="2662.98,-95.24 2669.06,-86.56 2658.9,-89.55 2662.98,-95.24"/>
</g>
<!-- Node36 -->
<g id="node36" class="node">
<title>Node36</title>
<g id="a_node36"><a xlink:title=" ">
<polygon fill="white" stroke="#bfbfbf" points="1810,-67.5 1810,-86.5 1875,-86.5 1875,-67.5 1810,-67.5"/>
<text text-anchor="middle" x="1842.5" y="-74.5" font-family="Helvetica,sans-Serif" font-size="10.00">stdexcept</text>
</a>
</g>
</g>
<!-- Node24&#45;&gt;Node36 -->
<g id="edge35" class="edge">
<title>Node24&#45;&gt;Node36</title>
<path fill="none" stroke="midnightblue" d="M1661.78,-135.53C1698.07,-127.92 1753.83,-114.86 1800.5,-98 1806.01,-96.01 1811.76,-93.54 1817.19,-91.03"/>
<polygon fill="midnightblue" stroke="midnightblue" points="1818.98,-94.05 1826.46,-86.55 1815.93,-87.75 1818.98,-94.05"/>
</g>
<!-- Node37 -->
<g id="node37" class="node">
<title>Node37</title>
<g id="a_node37"><a xlink:title=" ">
<polygon fill="white" stroke="#bfbfbf" points="1893.5,-67.5 1893.5,-86.5 1937.5,-86.5 1937.5,-67.5 1893.5,-67.5"/>
<text text-anchor="middle" x="1915.5" y="-74.5" font-family="Helvetica,sans-Serif" font-size="10.00">string</text>
</a>
</g>
</g>
<!-- Node24&#45;&gt;Node37 -->
<g id="edge36" class="edge">
<title>Node24&#45;&gt;Node37</title>
<path fill="none" stroke="midnightblue" d="M1661.55,-136.41C1666.25,-135.6 1670.99,-134.78 1675.5,-134 1768.38,-117.96 1796.68,-132.24 1884.5,-98 1888.42,-96.47 1892.36,-94.41 1896.06,-92.2"/>
<polygon fill="midnightblue" stroke="midnightblue" points="1898.18,-94.99 1904.61,-86.57 1894.33,-89.15 1898.18,-94.99"/>
</g>
<!-- Node38 -->
<g id="node38" class="node">
<title>Node38</title>
<g id="a_node38"><a xlink:title=" ">
<polygon fill="white" stroke="#bfbfbf" points="1956,-67.5 1956,-86.5 2021,-86.5 2021,-67.5 1956,-67.5"/>
<text text-anchor="middle" x="1988.5" y="-74.5" font-family="Helvetica,sans-Serif" font-size="10.00">typeindex</text>
</a>
</g>
</g>
<!-- Node24&#45;&gt;Node38 -->
<g id="edge37" class="edge">
<title>Node24&#45;&gt;Node38</title>
<path fill="none" stroke="midnightblue" d="M1661.53,-136.24C1666.23,-135.46 1670.97,-134.69 1675.5,-134 1795.61,-115.64 1830.01,-132.54 1946.5,-98 1952.45,-96.24 1958.62,-93.73 1964.33,-91.08"/>
<polygon fill="midnightblue" stroke="midnightblue" points="1965.98,-94.17 1973.4,-86.6 1962.88,-87.89 1965.98,-94.17"/>
</g>
<!-- Node39 -->
<g id="node39" class="node">
<title>Node39</title>
<g id="a_node39"><a xlink:title=" ">
<polygon fill="white" stroke="#bfbfbf" points="2039,-67.5 2039,-86.5 2098,-86.5 2098,-67.5 2039,-67.5"/>
<text text-anchor="middle" x="2068.5" y="-74.5" font-family="Helvetica,sans-Serif" font-size="10.00">date/tz.h</text>
</a>
</g>
</g>
<!-- Node24&#45;&gt;Node39 -->
<g id="edge38" class="edge">
<title>Node24&#45;&gt;Node39</title>
<path fill="none" stroke="midnightblue" d="M1661.51,-136.1C1666.21,-135.34 1670.96,-134.62 1675.5,-134 1832.62,-112.46 1878.66,-143.77 2030.5,-98 2035.81,-96.4 2041.24,-94.04 2046.27,-91.5"/>
<polygon fill="midnightblue" stroke="midnightblue" points="2048.23,-94.42 2055.32,-86.54 2044.87,-88.28 2048.23,-94.42"/>
</g>
<!-- Node40 -->
<g id="node40" class="node">
<title>Node40</title>
<g id="a_node40"><a xlink:title=" ">
<polygon fill="white" stroke="#bfbfbf" points="2116.5,-67.5 2116.5,-86.5 2166.5,-86.5 2166.5,-67.5 2116.5,-67.5"/>
<text text-anchor="middle" x="2141.5" y="-74.5" font-family="Helvetica,sans-Serif" font-size="10.00">chrono</text>
</a>
</g>
</g>
<!-- Node24&#45;&gt;Node40 -->
<g id="edge39" class="edge">
<title>Node24&#45;&gt;Node40</title>
<path fill="none" stroke="midnightblue" d="M1661.78,-135.98C1666.39,-135.25 1671.05,-134.57 1675.5,-134 1866.61,-109.55 1923.87,-156.3 2107.5,-98 2112.1,-96.54 2116.75,-94.36 2121.07,-91.98"/>
<polygon fill="midnightblue" stroke="midnightblue" points="2123.14,-94.82 2129.85,-86.62 2119.49,-88.84 2123.14,-94.82"/>
</g>
<!-- Node41 -->
<g id="node41" class="node">
<title>Node41</title>
<g id="a_node41"><a xlink:title=" ">
<polygon fill="white" stroke="#bfbfbf" points="2184.5,-67.5 2184.5,-86.5 2282.5,-86.5 2282.5,-67.5 2184.5,-67.5"/>
<text text-anchor="middle" x="2233.5" y="-74.5" font-family="Helvetica,sans-Serif" font-size="10.00">pcg_random.hpp</text>
</a>
</g>
</g>
<!-- Node24&#45;&gt;Node41 -->
<g id="edge40" class="edge">
<title>Node24&#45;&gt;Node41</title>
<path fill="none" stroke="midnightblue" d="M1661.77,-135.93C1666.39,-135.21 1671.04,-134.54 1675.5,-134 1896.65,-106.97 1957.23,-142.69 2175.5,-98 2184.75,-96.11 2194.55,-93.13 2203.4,-90.04"/>
<polygon fill="midnightblue" stroke="midnightblue" points="2204.73,-93.28 2212.93,-86.56 2202.33,-86.7 2204.73,-93.28"/>
</g>
<!-- Node42 -->
<g id="node42" class="node">
<title>Node42</title>
<g id="a_node42"><a xlink:title=" ">
<polygon fill="white" stroke="#bfbfbf" points="2300.5,-67.5 2300.5,-86.5 2386.5,-86.5 2386.5,-67.5 2300.5,-67.5"/>
<text text-anchor="middle" x="2343.5" y="-74.5" font-family="Helvetica,sans-Serif" font-size="10.00">fmt/ostream.h</text>
</a>
</g>
</g>
<!-- Node24&#45;&gt;Node42 -->
<g id="edge41" class="edge">
<title>Node24&#45;&gt;Node42</title>
<path fill="none" stroke="midnightblue" d="M1661.77,-135.87C1666.38,-135.16 1671.04,-134.51 1675.5,-134 1947.94,-102.56 2023.44,-155.91 2291.5,-98 2299.61,-96.25 2308.12,-93.42 2315.86,-90.44"/>
<polygon fill="midnightblue" stroke="midnightblue" points="2317.22,-93.67 2325.15,-86.65 2314.57,-87.19 2317.22,-93.67"/>
</g>
<!-- Node43 -->
<g id="node43" class="node">
<title>Node43</title>
<g id="a_node43"><a xlink:title=" ">
<polygon fill="white" stroke="#bfbfbf" points="2404.5,-62 2404.5,-92 2510.5,-92 2510.5,-62 2404.5,-62"/>
<text text-anchor="start" x="2412.5" y="-80" font-family="Helvetica,sans-Serif" font-size="10.00">spdlog/sinks/basic</text>
<text text-anchor="middle" x="2457.5" y="-69" font-family="Helvetica,sans-Serif" font-size="10.00">_file_sink.h</text>
</a>
</g>
</g>
<!-- Node24&#45;&gt;Node43 -->
<g id="edge42" class="edge">
<title>Node24&#45;&gt;Node43</title>
<path fill="none" stroke="midnightblue" d="M1661.76,-135.84C1666.38,-135.13 1671.04,-134.5 1675.5,-134 1993.94,-98.61 2080.33,-155.68 2395.5,-98 2400,-97.18 2404.63,-96.11 2409.23,-94.91"/>
<polygon fill="midnightblue" stroke="midnightblue" points="2410.54,-98.17 2419.2,-92.07 2408.63,-91.44 2410.54,-98.17"/>
</g>
<!-- Node44 -->
<g id="node44" class="node">
<title>Node44</title>
<g id="a_node44"><a xlink:title=" ">
<polygon fill="white" stroke="#bfbfbf" points="2529,-62 2529,-92 2640,-92 2640,-62 2529,-62"/>
<text text-anchor="start" x="2537" y="-80" font-family="Helvetica,sans-Serif" font-size="10.00">spdlog/sinks/stdout</text>
<text text-anchor="middle" x="2584.5" y="-69" font-family="Helvetica,sans-Serif" font-size="10.00">_color_sinks.h</text>
</a>
</g>
</g>
<!-- Node24&#45;&gt;Node44 -->
<g id="edge43" class="edge">
<title>Node24&#45;&gt;Node44</title>
<path fill="none" stroke="midnightblue" d="M1661.76,-135.8C1666.38,-135.11 1671.04,-134.48 1675.5,-134 2048.8,-93.9 2149.5,-161.73 2519.5,-98 2524.53,-97.13 2529.72,-95.99 2534.87,-94.68"/>
<polygon fill="midnightblue" stroke="midnightblue" points="2535.94,-98.02 2544.67,-92.01 2534.1,-91.27 2535.94,-98.02"/>
</g>
<!-- Node45&#45;&gt;Node9 -->
<g id="edge48" class="edge">
<title>Node45&#45;&gt;Node9</title>
<path fill="none" stroke="midnightblue" d="M1708.4,-190.44C1743.05,-180.85 1799.2,-165.3 1835.99,-155.11"/>
<polygon fill="midnightblue" stroke="midnightblue" points="1837.12,-158.43 1845.82,-152.39 1835.25,-151.68 1837.12,-158.43"/>
</g>
<!-- Node45&#45;&gt;Node21 -->
<g id="edge51" class="edge">
<title>Node45&#45;&gt;Node21</title>
<path fill="none" stroke="midnightblue" d="M1657.2,-190.42C1636.68,-181.64 1604.13,-167.41 1576.5,-154 1559.33,-145.67 1556.85,-139.24 1538.5,-134 1323.41,-72.61 1253.93,-150.51 1036.5,-98 1029.43,-96.29 1022.07,-93.63 1015.33,-90.8"/>
<polygon fill="midnightblue" stroke="midnightblue" points="1016.56,-87.51 1006.01,-86.62 1013.7,-93.9 1016.56,-87.51"/>
</g>
<!-- Node45&#45;&gt;Node24 -->
<g id="edge52" class="edge">
<title>Node45&#45;&gt;Node24</title>
<path fill="none" stroke="midnightblue" d="M1668.58,-190.08C1660.72,-182.22 1649.07,-170.57 1639.58,-161.08"/>
<polygon fill="midnightblue" stroke="midnightblue" points="1641.8,-158.35 1632.25,-153.75 1636.85,-163.3 1641.8,-158.35"/>
</g>
<!-- Node45&#45;&gt;Node35 -->
<g id="edge50" class="edge">
<title>Node45&#45;&gt;Node35</title>
<path fill="none" stroke="midnightblue" d="M1678.74,-190.41C1681.35,-175.92 1688.87,-146.92 1708.5,-134 1795.91,-76.48 2550.21,-131.01 2649.5,-98 2653.44,-96.69 2657.32,-94.67 2660.91,-92.41"/>
<polygon fill="midnightblue" stroke="midnightblue" points="2662.98,-95.23 2669.06,-86.56 2658.9,-89.55 2662.98,-95.23"/>
</g>
<!-- Node46 -->
<g id="node46" class="node">
<title>Node46</title>
<g id="a_node46"><a xlink:title=" ">
<polygon fill="white" stroke="#bfbfbf" points="1717.5,-134.5 1717.5,-153.5 1759.5,-153.5 1759.5,-134.5 1717.5,-134.5"/>
<text text-anchor="middle" x="1738.5" y="-141.5" font-family="Helvetica,sans-Serif" font-size="10.00">array</text>
</a>
</g>
</g>
<!-- Node45&#45;&gt;Node46 -->
<g id="edge47" class="edge">
<title>Node45&#45;&gt;Node46</title>
<path fill="none" stroke="midnightblue" d="M1687.3,-190.32C1696.32,-182.34 1709.91,-170.31 1720.82,-160.65"/>
<polygon fill="midnightblue" stroke="midnightblue" points="1723.35,-163.08 1728.52,-153.83 1718.71,-157.84 1723.35,-163.08"/>
</g>
<!-- Node47 -->
<g id="node47" class="node">
<title>Node47</title>
<g id="a_node47"><a xlink:title=" ">
<polygon fill="white" stroke="#bfbfbf" points="1777.5,-134.5 1777.5,-153.5 1827.5,-153.5 1827.5,-134.5 1777.5,-134.5"/>
<text text-anchor="middle" x="1802.5" y="-141.5" font-family="Helvetica,sans-Serif" font-size="10.00">gsl/util</text>
</a>
</g>
</g>
<!-- Node45&#45;&gt;Node47 -->
<g id="edge49" class="edge">
<title>Node45&#45;&gt;Node47</title>
<path fill="none" stroke="midnightblue" d="M1697.31,-190.44C1717.79,-181.6 1749.98,-167.69 1773.36,-157.59"/>
<polygon fill="midnightblue" stroke="midnightblue" points="1774.99,-160.7 1782.79,-153.52 1772.22,-154.27 1774.99,-160.7"/>
</g>
</g>
</svg>
