<?xml version="1.0" encoding="UTF-8" standalone="no"?>
<!DOCTYPE svg PUBLIC "-//W3C//DTD SVG 1.1//EN"
 "http://www.w3.org/Graphics/SVG/1.1/DTD/svg11.dtd">
<!-- Generated by graphviz version 2.43.0 (0)
 -->
<!-- Title: src/bistellar&#45;flip.cpp Pages: 1 -->
<!--zoomable 434 -->
<svg id="main" version="1.1" xmlns="http://www.w3.org/2000/svg" xmlns:xlink="http://www.w3.org/1999/xlink" xml:space="preserve" onload="init(evt)">
<style type="text/css"><![CDATA[
.edge:hover path { stroke: red; }
.edge:hover polygon { stroke: red; fill: red; }
]]></style>
<script type="text/javascript"><![CDATA[
var edges = document.getElementsByTagName('g');
if (edges && edges.length) {
  for (var i=0;i<edges.length;i++) {
    if (edges[i].id.substr(0,4)=='edge') {
      edges[i].setAttribute('class','edge');
    }
  }
}
]]></script>
        <defs>
                <circle id="rim" cx="0" cy="0" r="7"/>
                <circle id="rim2" cx="0" cy="0" r="3.5"/>
                <g id="zoomPlus">
                        <use xlink:href="#rim" fill="#404040">
                                <set attributeName="fill" to="#808080" begin="zoomplus.mouseover" end="zoomplus.mouseout"/>
                        </use>
                        <path d="M-4,0h8M0,-4v8" fill="none" stroke="white" stroke-width="1.5" pointer-events="none"/>
                </g>
                <g id="zoomMin">
                        <use xlink:href="#rim" fill="#404040">
                                <set attributeName="fill" to="#808080" begin="zoomminus.mouseover" end="zoomminus.mouseout"/>
                        </use>
                        <path d="M-4,0h8" fill="none" stroke="white" stroke-width="1.5" pointer-events="none"/>
                </g>
                <g id="dirArrow">
                        <path fill="none" stroke="white" stroke-width="1.5" d="M0,-3.0v7 M-2.5,-0.5L0,-3.0L2.5,-0.5"/>
                </g>
               <g id="resetDef">
                       <use xlink:href="#rim2" fill="#404040">
                               <set attributeName="fill" to="#808080" begin="reset.mouseover" end="reset.mouseout"/>
                       </use>
               </g>
        </defs>

<script type="text/javascript">
var viewWidth = 2157;
var viewHeight = 434;
var sectionId = 'dynsection-0';
</script>
<script xlink:href="svgpan.js"/>
<svg id="graph" class="graph">
<g id="viewport">
<title>src/bistellar&#45;flip.cpp</title>
<!-- Node1 -->
<g id="node1" class="node">
<title>Node1</title>
<g id="a_node1"><a xlink:title="Tests and views bistellar flips.">
<polygon fill="#999999" stroke="#666666" points="608,-426 495,-426 495,-407 608,-407 608,-426"/>
<text text-anchor="middle" x="551.5" y="-414" font-family="Helvetica,sans-Serif" font-size="10.00">src/bistellar&#45;flip.cpp</text>
</a>
</g>
</g>
<!-- Node2 -->
<g id="node2" class="node">
<title>Node2</title>
<g id="a_node2"><a xlink:title=" ">
<polygon fill="#e0e0e0" stroke="#999999" points="478,-371 377,-371 377,-352 478,-352 478,-371"/>
<text text-anchor="middle" x="427.5" y="-359" font-family="Helvetica,sans-Serif" font-size="10.00">doctest/doctest.h</text>
</a>
</g>
</g>
<!-- Node1&#45;&gt;Node2 -->
<g id="edge1" class="edge">
<title>Node1&#45;&gt;Node2</title>
<path fill="none" stroke="#63b8ff" d="M531.58,-406.98C511.45,-398.38 480.12,-384.99 457.09,-375.15"/>
<polygon fill="#63b8ff" stroke="#63b8ff" points="458.36,-371.88 447.79,-371.17 455.6,-378.32 458.36,-371.88"/>
</g>
<!-- Node3 -->
<g id="node3" class="node">
<title>Node3</title>
<g id="a_node3"><a xlink:title=" ">
<polygon fill="#e0e0e0" stroke="#999999" points="93,-85 0,-85 0,-66 93,-66 93,-85"/>
<text text-anchor="middle" x="46.5" y="-73" font-family="Helvetica,sans-Serif" font-size="10.00">spdlog/spdlog.h</text>
</a>
</g>
</g>
<!-- Node1&#45;&gt;Node3 -->
<g id="edge2" class="edge">
<title>Node1&#45;&gt;Node3</title>
<path fill="none" stroke="#63b8ff" d="M545.05,-406.77C532.61,-389.04 506.5,-347.11 506.5,-307.5 506.5,-307.5 506.5,-307.5 506.5,-195.5 506.5,-103.04 191.15,-122.29 102.5,-96 94.88,-93.74 86.77,-91.07 79.15,-88.44"/>
<polygon fill="#63b8ff" stroke="#63b8ff" points="80.1,-85.07 69.5,-85.05 77.77,-91.67 80.1,-85.07"/>
</g>
<!-- Node4 -->
<g id="node4" class="node">
<title>Node4</title>
<g id="a_node4"><a xlink:title=" ">
<polygon fill="#e0e0e0" stroke="#999999" points="735,-371 676,-371 676,-352 735,-352 735,-371"/>
<text text-anchor="middle" x="705.5" y="-359" font-family="Helvetica,sans-Serif" font-size="10.00">numbers</text>
</a>
</g>
</g>
<!-- Node1&#45;&gt;Node4 -->
<g id="edge3" class="edge">
<title>Node1&#45;&gt;Node4</title>
<path fill="none" stroke="#63b8ff" d="M576.24,-406.98C601.87,-398.16 642.13,-384.31 670.91,-374.41"/>
<polygon fill="#63b8ff" stroke="#63b8ff" points="672.25,-377.65 680.56,-371.08 669.97,-371.03 672.25,-377.65"/>
</g>
<!-- Node5 -->
<g id="node5" class="node">
<title>Node5</title>
<g id="a_node5"><a xlink:href="_ergodic__moves__3_8hpp.html" target="_top" xlink:title="Pachner moves on 2+1 dimensional foliated Delaunay triangulations.">
<polygon fill="white" stroke="#666666" points="658,-371 535,-371 535,-352 658,-352 658,-371"/>
<text text-anchor="middle" x="596.5" y="-359" font-family="Helvetica,sans-Serif" font-size="10.00">Ergodic_moves_3.hpp</text>
</a>
</g>
</g>
<!-- Node1&#45;&gt;Node5 -->
<g id="edge4" class="edge">
<title>Node1&#45;&gt;Node5</title>
<path fill="none" stroke="#63b8ff" d="M558.93,-406.75C565.35,-399.18 574.81,-388.05 582.62,-378.84"/>
<polygon fill="#63b8ff" stroke="#63b8ff" points="585.4,-380.98 589.21,-371.09 580.07,-376.45 585.4,-380.98"/>
</g>
<!-- Node6 -->
<g id="node6" class="node">
<title>Node6</title>
<g id="a_node6"><a xlink:title=" ">
<polygon fill="#e0e0e0" stroke="#999999" points="611.5,-316 549.5,-316 549.5,-297 611.5,-297 611.5,-316"/>
<text text-anchor="middle" x="580.5" y="-304" font-family="Helvetica,sans-Serif" font-size="10.00">expected</text>
</a>
</g>
</g>
<!-- Node5&#45;&gt;Node6 -->
<g id="edge5" class="edge">
<title>Node5&#45;&gt;Node6</title>
<path fill="none" stroke="#63b8ff" d="M593.86,-351.75C591.74,-344.72 588.69,-334.62 586.04,-325.84"/>
<polygon fill="#63b8ff" stroke="#63b8ff" points="589.33,-324.65 583.09,-316.09 582.63,-326.67 589.33,-324.65"/>
</g>
<!-- Node7 -->
<g id="node7" class="node">
<title>Node7</title>
<g id="a_node7"><a xlink:href="_manifold_8hpp.html" target="_top" xlink:title="Data structures for manifolds.">
<polygon fill="white" stroke="#666666" points="878.5,-316 798.5,-316 798.5,-297 878.5,-297 878.5,-316"/>
<text text-anchor="middle" x="838.5" y="-304" font-family="Helvetica,sans-Serif" font-size="10.00">Manifold.hpp</text>
</a>
</g>
</g>
<!-- Node5&#45;&gt;Node7 -->
<g id="edge6" class="edge">
<title>Node5&#45;&gt;Node7</title>
<path fill="none" stroke="#63b8ff" d="M635.38,-351.98C677.24,-342.82 743.93,-328.21 789.38,-318.26"/>
<polygon fill="#63b8ff" stroke="#63b8ff" points="790.29,-321.64 799.31,-316.08 788.8,-314.8 790.29,-321.64"/>
</g>
<!-- Node35 -->
<g id="node35" class="node">
<title>Node35</title>
<g id="a_node35"><a xlink:href="_move__tracker_8hpp.html" target="_top" xlink:title="Track ergodic moves.">
<polygon fill="white" stroke="#666666" points="691,-206 588,-206 588,-187 691,-187 691,-206"/>
<text text-anchor="middle" x="639.5" y="-194" font-family="Helvetica,sans-Serif" font-size="10.00">Move_tracker.hpp</text>
</a>
</g>
</g>
<!-- Node5&#45;&gt;Node35 -->
<g id="edge36" class="edge">
<title>Node5&#45;&gt;Node35</title>
<path fill="none" stroke="#63b8ff" d="M602.4,-351.7C607.95,-343.01 616.05,-329.13 620.5,-316 632.05,-281.91 636.67,-239.88 638.44,-216.14"/>
<polygon fill="#63b8ff" stroke="#63b8ff" points="641.94,-216.27 639.11,-206.07 634.96,-215.81 641.94,-216.27"/>
</g>
<!-- Node8 -->
<g id="node8" class="node">
<title>Node8</title>
<g id="a_node8"><a xlink:title=" ">
<polygon fill="#e0e0e0" stroke="#999999" points="907,-151 854,-151 854,-132 907,-132 907,-151"/>
<text text-anchor="middle" x="880.5" y="-139" font-family="Helvetica,sans-Serif" font-size="10.00">cstddef</text>
</a>
</g>
</g>
<!-- Node7&#45;&gt;Node8 -->
<g id="edge7" class="edge">
<title>Node7&#45;&gt;Node8</title>
<path fill="none" stroke="#63b8ff" d="M840.76,-296.74C847.34,-271.2 866.6,-196.43 875.67,-161.23"/>
<polygon fill="#63b8ff" stroke="#63b8ff" points="879.12,-161.86 878.23,-151.31 872.35,-160.12 879.12,-161.86"/>
</g>
<!-- Node9 -->
<g id="node9" class="node">
<title>Node9</title>
<g id="a_node9"><a xlink:title=" ">
<polygon fill="#e0e0e0" stroke="#999999" points="995.5,-261 909.5,-261 909.5,-242 995.5,-242 995.5,-261"/>
<text text-anchor="middle" x="952.5" y="-249" font-family="Helvetica,sans-Serif" font-size="10.00">unordered_set</text>
</a>
</g>
</g>
<!-- Node7&#45;&gt;Node9 -->
<g id="edge8" class="edge">
<title>Node7&#45;&gt;Node9</title>
<path fill="none" stroke="#63b8ff" d="M856.82,-296.98C875.16,-288.46 903.61,-275.23 924.73,-265.41"/>
<polygon fill="#63b8ff" stroke="#63b8ff" points="926.26,-268.56 933.85,-261.17 923.31,-262.21 926.26,-268.56"/>
</g>
<!-- Node10 -->
<g id="node10" class="node">
<title>Node10</title>
<g id="a_node10"><a xlink:href="_geometry_8hpp.html" target="_top" xlink:title="Geometric scalars of the Manifold used to calculate the Regge action.">
<polygon fill="white" stroke="#666666" points="838,-261 753,-261 753,-242 838,-242 838,-261"/>
<text text-anchor="middle" x="795.5" y="-249" font-family="Helvetica,sans-Serif" font-size="10.00">Geometry.hpp</text>
</a>
</g>
</g>
<!-- Node7&#45;&gt;Node10 -->
<g id="edge9" class="edge">
<title>Node7&#45;&gt;Node10</title>
<path fill="none" stroke="#63b8ff" d="M831.4,-296.75C825.33,-289.26 816.41,-278.28 808.99,-269.13"/>
<polygon fill="#63b8ff" stroke="#63b8ff" points="811.49,-266.65 802.47,-261.09 806.05,-271.06 811.49,-266.65"/>
</g>
<!-- Node11 -->
<g id="node11" class="node">
<title>Node11</title>
<g id="a_node11"><a xlink:href="_foliated__triangulation_8hpp.html" target="_top" xlink:title="Create foliated spherical triangulations.">
<polygon fill="white" stroke="#666666" points="853.5,-206 709.5,-206 709.5,-187 853.5,-187 853.5,-206"/>
<text text-anchor="middle" x="781.5" y="-194" font-family="Helvetica,sans-Serif" font-size="10.00">Foliated_triangulation.hpp</text>
</a>
</g>
</g>
<!-- Node10&#45;&gt;Node11 -->
<g id="edge10" class="edge">
<title>Node10&#45;&gt;Node11</title>
<path fill="none" stroke="#63b8ff" d="M793.19,-241.75C791.33,-234.72 788.66,-224.62 786.35,-215.84"/>
<polygon fill="#63b8ff" stroke="#63b8ff" points="789.71,-214.86 783.77,-206.09 782.94,-216.65 789.71,-214.86"/>
</g>
<!-- Node12 -->
<g id="node12" class="node">
<title>Node12</title>
<g id="a_node12"><a xlink:href="_triangulation__traits_8hpp.html" target="_top" xlink:title="Traits class for particular uses of CGAL.">
<polygon fill="white" stroke="#666666" points="1656,-151 1525,-151 1525,-132 1656,-132 1656,-151"/>
<text text-anchor="middle" x="1590.5" y="-139" font-family="Helvetica,sans-Serif" font-size="10.00">Triangulation_traits.hpp</text>
</a>
</g>
</g>
<!-- Node11&#45;&gt;Node12 -->
<g id="edge11" class="edge">
<title>Node11&#45;&gt;Node12</title>
<path fill="none" stroke="#63b8ff" d="M853.65,-190.77C1005.93,-180.8 1358.92,-157.67 1514.51,-147.48"/>
<polygon fill="#63b8ff" stroke="#63b8ff" points="1515.17,-150.94 1524.92,-146.8 1514.71,-143.96 1515.17,-150.94"/>
</g>
<!-- Node21 -->
<g id="node21" class="node">
<title>Node21</title>
<g id="a_node21"><a xlink:href="_utilities_8hpp.html" target="_top" xlink:title="Utility functions.">
<polygon fill="white" stroke="#666666" points="793.5,-151 717.5,-151 717.5,-132 793.5,-132 793.5,-151"/>
<text text-anchor="middle" x="755.5" y="-139" font-family="Helvetica,sans-Serif" font-size="10.00">Utilities.hpp</text>
</a>
</g>
</g>
<!-- Node11&#45;&gt;Node21 -->
<g id="edge20" class="edge">
<title>Node11&#45;&gt;Node21</title>
<path fill="none" stroke="#63b8ff" d="M777.21,-186.75C773.69,-179.57 768.59,-169.18 764.22,-160.27"/>
<polygon fill="#63b8ff" stroke="#63b8ff" points="767.26,-158.53 759.71,-151.09 760.98,-161.61 767.26,-158.53"/>
</g>
<!-- Node13 -->
<g id="node13" class="node">
<title>Node13</title>
<g id="a_node13"><a xlink:title=" ">
<polygon fill="#e0e0e0" stroke="#999999" points="1507.5,-85 1327.5,-85 1327.5,-66 1507.5,-66 1507.5,-85"/>
<text text-anchor="middle" x="1417.5" y="-73" font-family="Helvetica,sans-Serif" font-size="10.00">CGAL/Delaunay_triangulation_3.h</text>
</a>
</g>
</g>
<!-- Node12&#45;&gt;Node13 -->
<g id="edge12" class="edge">
<title>Node12&#45;&gt;Node13</title>
<path fill="none" stroke="#63b8ff" d="M1567.17,-131.87C1537.03,-120.72 1484.41,-101.25 1450.27,-88.62"/>
<polygon fill="#63b8ff" stroke="#63b8ff" points="1451.33,-85.28 1440.74,-85.1 1448.9,-91.85 1451.33,-85.28"/>
</g>
<!-- Node14 -->
<g id="node14" class="node">
<title>Node14</title>
<g id="a_node14"><a xlink:title=" ">
<polygon fill="#e0e0e0" stroke="#999999" points="1655,-96 1526,-96 1526,-55 1655,-55 1655,-96"/>
<text text-anchor="start" x="1534" y="-84" font-family="Helvetica,sans-Serif" font-size="10.00">CGAL/Exact_predicates</text>
<text text-anchor="start" x="1534" y="-73" font-family="Helvetica,sans-Serif" font-size="10.00">_inexact_constructions</text>
<text text-anchor="middle" x="1590.5" y="-62" font-family="Helvetica,sans-Serif" font-size="10.00">_kernel.h</text>
</a>
</g>
</g>
<!-- Node12&#45;&gt;Node14 -->
<g id="edge13" class="edge">
<title>Node12&#45;&gt;Node14</title>
<path fill="none" stroke="#63b8ff" d="M1590.5,-131.87C1590.5,-125.22 1590.5,-115.63 1590.5,-106.28"/>
<polygon fill="#63b8ff" stroke="#63b8ff" points="1594,-106.01 1590.5,-96.01 1587,-106.01 1594,-106.01"/>
</g>
<!-- Node15 -->
<g id="node15" class="node">
<title>Node15</title>
<g id="a_node15"><a xlink:title=" ">
<polygon fill="#e0e0e0" stroke="#999999" points="1822,-85 1673,-85 1673,-66 1822,-66 1822,-85"/>
<text text-anchor="middle" x="1747.5" y="-73" font-family="Helvetica,sans-Serif" font-size="10.00">CGAL/point_generators_3.h</text>
</a>
</g>
</g>
<!-- Node12&#45;&gt;Node15 -->
<g id="edge14" class="edge">
<title>Node12&#45;&gt;Node15</title>
<path fill="none" stroke="#63b8ff" d="M1611.67,-131.87C1638.79,-120.82 1685.96,-101.58 1716.96,-88.95"/>
<polygon fill="#63b8ff" stroke="#63b8ff" points="1718.47,-92.11 1726.41,-85.1 1715.83,-85.63 1718.47,-92.11"/>
</g>
<!-- Node16 -->
<g id="node16" class="node">
<title>Node16</title>
<g id="a_node16"><a xlink:title=" ">
<polygon fill="#e0e0e0" stroke="#999999" points="1978.5,-90.5 1840.5,-90.5 1840.5,-60.5 1978.5,-60.5 1978.5,-90.5"/>
<text text-anchor="start" x="1848.5" y="-78.5" font-family="Helvetica,sans-Serif" font-size="10.00">CGAL/Triangulation</text>
<text text-anchor="middle" x="1909.5" y="-67.5" font-family="Helvetica,sans-Serif" font-size="10.00">_cell_base_with_info_3.h</text>
</a>
</g>
</g>
<!-- Node12&#45;&gt;Node16 -->
<g id="edge15" class="edge">
<title>Node12&#45;&gt;Node16</title>
<path fill="none" stroke="#63b8ff" d="M1641.93,-131.96C1690.85,-123.61 1766.43,-110.13 1831.5,-96 1835.92,-95.04 1840.46,-94.01 1845.04,-92.95"/>
<polygon fill="#63b8ff" stroke="#63b8ff" points="1846.13,-96.29 1855.05,-90.57 1844.51,-89.48 1846.13,-96.29"/>
</g>
<!-- Node17 -->
<g id="node17" class="node">
<title>Node17</title>
<g id="a_node17"><a xlink:title=" ">
<polygon fill="#e0e0e0" stroke="#999999" points="2148.5,-90.5 1996.5,-90.5 1996.5,-60.5 2148.5,-60.5 2148.5,-90.5"/>
<text text-anchor="start" x="2004.5" y="-78.5" font-family="Helvetica,sans-Serif" font-size="10.00">CGAL/Triangulation</text>
<text text-anchor="middle" x="2072.5" y="-67.5" font-family="Helvetica,sans-Serif" font-size="10.00">_vertex_base_with_info_3.h</text>
</a>
</g>
</g>
<!-- Node12&#45;&gt;Node17 -->
<g id="edge16" class="edge">
<title>Node12&#45;&gt;Node17</title>
<path fill="none" stroke="#63b8ff" d="M1656.15,-135.45C1735.14,-128.84 1871.61,-115.72 1987.5,-96 1993.33,-95.01 1999.37,-93.86 2005.4,-92.64"/>
<polygon fill="#63b8ff" stroke="#63b8ff" points="2006.46,-95.99 2015.53,-90.51 2005.02,-89.14 2006.46,-95.99"/>
</g>
<!-- Node18 -->
<g id="node18" class="node">
<title>Node18</title>
<g id="a_node18"><a xlink:href="_settings_8hpp.html" target="_top" xlink:title="Global integer and precision settings.">
<polygon fill="white" stroke="#666666" points="1309,-85 1232,-85 1232,-66 1309,-66 1309,-85"/>
<text text-anchor="middle" x="1270.5" y="-73" font-family="Helvetica,sans-Serif" font-size="10.00">Settings.hpp</text>
</a>
</g>
</g>
<!-- Node12&#45;&gt;Node18 -->
<g id="edge17" class="edge">
<title>Node12&#45;&gt;Node18</title>
<path fill="none" stroke="#63b8ff" d="M1524.76,-133.92C1469.1,-127.36 1387.6,-115.42 1318.5,-96 1311.91,-94.15 1304.99,-91.67 1298.53,-89.11"/>
<polygon fill="#63b8ff" stroke="#63b8ff" points="1299.43,-85.69 1288.85,-85.08 1296.74,-92.16 1299.43,-85.69"/>
</g>
<!-- Node19 -->
<g id="node19" class="node">
<title>Node19</title>
<g id="a_node19"><a xlink:title=" ">
<polygon fill="#e0e0e0" stroke="#999999" points="1283.5,-19 1143.5,-19 1143.5,0 1283.5,0 1283.5,-19"/>
<text text-anchor="middle" x="1213.5" y="-7" font-family="Helvetica,sans-Serif" font-size="10.00">CGAL/GMP/Gmpzf_type.h</text>
</a>
</g>
</g>
<!-- Node18&#45;&gt;Node19 -->
<g id="edge18" class="edge">
<title>Node18&#45;&gt;Node19</title>
<path fill="none" stroke="#63b8ff" d="M1262.81,-65.87C1254.02,-56 1239.43,-39.61 1228.39,-27.22"/>
<polygon fill="#63b8ff" stroke="#63b8ff" points="1230.7,-24.55 1221.43,-19.41 1225.47,-29.2 1230.7,-24.55"/>
</g>
<!-- Node20 -->
<g id="node20" class="node">
<title>Node20</title>
<g id="a_node20"><a xlink:title=" ">
<polygon fill="#e0e0e0" stroke="#999999" points="1351.5,-19 1301.5,-19 1301.5,0 1351.5,0 1351.5,-19"/>
<text text-anchor="middle" x="1326.5" y="-7" font-family="Helvetica,sans-Serif" font-size="10.00">cstdint</text>
</a>
</g>
</g>
<!-- Node18&#45;&gt;Node20 -->
<g id="edge19" class="edge">
<title>Node18&#45;&gt;Node20</title>
<path fill="none" stroke="#63b8ff" d="M1278.05,-65.87C1286.69,-56 1301.03,-39.61 1311.87,-27.22"/>
<polygon fill="#63b8ff" stroke="#63b8ff" points="1314.76,-29.24 1318.71,-19.41 1309.49,-24.63 1314.76,-29.24"/>
</g>
<!-- Node21&#45;&gt;Node3 -->
<g id="edge34" class="edge">
<title>Node21&#45;&gt;Node3</title>
<path fill="none" stroke="#63b8ff" d="M717.22,-133.79C712.61,-133.11 707.95,-132.5 703.5,-132 437.55,-102.38 364.89,-148.49 102.5,-96 93.72,-94.24 84.44,-91.43 76.02,-88.48"/>
<polygon fill="#63b8ff" stroke="#63b8ff" points="77.2,-85.18 66.6,-85.01 74.78,-91.75 77.2,-85.18"/>
</g>
<!-- Node21&#45;&gt;Node18 -->
<g id="edge35" class="edge">
<title>Node21&#45;&gt;Node18</title>
<path fill="none" stroke="#63b8ff" d="M793.62,-134.27C799.27,-133.45 805.03,-132.66 810.5,-132 992.98,-109.95 1043.81,-139.07 1222.5,-96 1229.55,-94.3 1236.92,-91.74 1243.71,-89.02"/>
<polygon fill="#63b8ff" stroke="#63b8ff" points="1245.3,-92.15 1253.14,-85.02 1242.56,-85.71 1245.3,-92.15"/>
</g>
<!-- Node22 -->
<g id="node22" class="node">
<title>Node22</title>
<g id="a_node22"><a xlink:title=" ">
<polygon fill="#e0e0e0" stroke="#999999" points="789.5,-85 721.5,-85 721.5,-66 789.5,-66 789.5,-85"/>
<text text-anchor="middle" x="755.5" y="-73" font-family="Helvetica,sans-Serif" font-size="10.00">filesystem</text>
</a>
</g>
</g>
<!-- Node21&#45;&gt;Node22 -->
<g id="edge21" class="edge">
<title>Node21&#45;&gt;Node22</title>
<path fill="none" stroke="#63b8ff" d="M755.5,-131.87C755.5,-122.66 755.5,-107.79 755.5,-95.77"/>
<polygon fill="#63b8ff" stroke="#63b8ff" points="759,-95.41 755.5,-85.41 752,-95.41 759,-95.41"/>
</g>
<!-- Node23 -->
<g id="node23" class="node">
<title>Node23</title>
<g id="a_node23"><a xlink:title=" ">
<polygon fill="#e0e0e0" stroke="#999999" points="863,-85 808,-85 808,-66 863,-66 863,-85"/>
<text text-anchor="middle" x="835.5" y="-73" font-family="Helvetica,sans-Serif" font-size="10.00">fstream</text>
</a>
</g>
</g>
<!-- Node21&#45;&gt;Node23 -->
<g id="edge22" class="edge">
<title>Node21&#45;&gt;Node23</title>
<path fill="none" stroke="#63b8ff" d="M766.29,-131.87C779.17,-121.56 800.94,-104.15 816.63,-91.59"/>
<polygon fill="#63b8ff" stroke="#63b8ff" points="819,-94.18 824.63,-85.2 814.63,-88.71 819,-94.18"/>
</g>
<!-- Node24 -->
<g id="node24" class="node">
<title>Node24</title>
<g id="a_node24"><a xlink:title=" ">
<polygon fill="#e0e0e0" stroke="#999999" points="929.5,-85 881.5,-85 881.5,-66 929.5,-66 929.5,-85"/>
<text text-anchor="middle" x="905.5" y="-73" font-family="Helvetica,sans-Serif" font-size="10.00">gsl/gsl</text>
</a>
</g>
</g>
<!-- Node21&#45;&gt;Node24 -->
<g id="edge23" class="edge">
<title>Node21&#45;&gt;Node24</title>
<path fill="none" stroke="#63b8ff" d="M782.06,-131.85C806.13,-123.67 842.34,-110.51 872.5,-96 876.17,-94.23 879.98,-92.19 883.64,-90.12"/>
<polygon fill="#63b8ff" stroke="#63b8ff" points="885.47,-93.1 892.3,-85 881.91,-87.07 885.47,-93.1"/>
</g>
<!-- Node25 -->
<g id="node25" class="node">
<title>Node25</title>
<g id="a_node25"><a xlink:title=" ">
<polygon fill="#e0e0e0" stroke="#999999" points="995.5,-85 947.5,-85 947.5,-66 995.5,-66 995.5,-85"/>
<text text-anchor="middle" x="971.5" y="-73" font-family="Helvetica,sans-Serif" font-size="10.00">mutex</text>
</a>
</g>
</g>
<!-- Node21&#45;&gt;Node25 -->
<g id="edge24" class="edge">
<title>Node21&#45;&gt;Node25</title>
<path fill="none" stroke="#63b8ff" d="M793.67,-134.61C831.41,-128 890.34,-115.58 938.5,-96 942.41,-94.41 946.41,-92.41 950.21,-90.3"/>
<polygon fill="#63b8ff" stroke="#63b8ff" points="952.3,-93.13 959.1,-85.01 948.72,-87.12 952.3,-93.13"/>
</g>
<!-- Node26 -->
<g id="node26" class="node">
<title>Node26</title>
<g id="a_node26"><a xlink:title=" ">
<polygon fill="#e0e0e0" stroke="#999999" points="1067.5,-85 1013.5,-85 1013.5,-66 1067.5,-66 1067.5,-85"/>
<text text-anchor="middle" x="1040.5" y="-73" font-family="Helvetica,sans-Serif" font-size="10.00">random</text>
</a>
</g>
</g>
<!-- Node21&#45;&gt;Node26 -->
<g id="edge25" class="edge">
<title>Node21&#45;&gt;Node26</title>
<path fill="none" stroke="#63b8ff" d="M793.71,-134.36C858.53,-123.84 984.92,-102.85 1004.5,-96 1009,-94.43 1013.61,-92.34 1017.97,-90.11"/>
<polygon fill="#63b8ff" stroke="#63b8ff" points="1019.88,-93.06 1026.96,-85.17 1016.51,-86.92 1019.88,-93.06"/>
</g>
<!-- Node27 -->
<g id="node27" class="node">
<title>Node27</title>
<g id="a_node27"><a xlink:title=" ">
<polygon fill="#e0e0e0" stroke="#999999" points="151.5,-85 111.5,-85 111.5,-66 151.5,-66 151.5,-85"/>
<text text-anchor="middle" x="131.5" y="-73" font-family="Helvetica,sans-Serif" font-size="10.00">span</text>
</a>
</g>
</g>
<!-- Node21&#45;&gt;Node27 -->
<g id="edge26" class="edge">
<title>Node21&#45;&gt;Node27</title>
<path fill="none" stroke="#63b8ff" d="M717.22,-133.82C712.61,-133.14 707.95,-132.51 703.5,-132 583.35,-118.23 274.94,-135.08 160.5,-96 156.84,-94.75 153.2,-92.91 149.81,-90.86"/>
<polygon fill="#63b8ff" stroke="#63b8ff" points="151.75,-87.95 141.52,-85.17 147.79,-93.72 151.75,-87.95"/>
</g>
<!-- Node28 -->
<g id="node28" class="node">
<title>Node28</title>
<g id="a_node28"><a xlink:title=" ">
<polygon fill="#e0e0e0" stroke="#999999" points="1151,-85 1086,-85 1086,-66 1151,-66 1151,-85"/>
<text text-anchor="middle" x="1118.5" y="-73" font-family="Helvetica,sans-Serif" font-size="10.00">stdexcept</text>
</a>
</g>
</g>
<!-- Node21&#45;&gt;Node28 -->
<g id="edge27" class="edge">
<title>Node21&#45;&gt;Node28</title>
<path fill="none" stroke="#63b8ff" d="M793.65,-134.51C799.3,-133.65 805.05,-132.79 810.5,-132 928.57,-114.89 962,-129.5 1076.5,-96 1082.19,-94.34 1088.09,-92.01 1093.6,-89.55"/>
<polygon fill="#63b8ff" stroke="#63b8ff" points="1095.46,-92.54 1102.98,-85.07 1092.45,-86.22 1095.46,-92.54"/>
</g>
<!-- Node29 -->
<g id="node29" class="node">
<title>Node29</title>
<g id="a_node29"><a xlink:title=" ">
<polygon fill="#e0e0e0" stroke="#999999" points="1213.5,-85 1169.5,-85 1169.5,-66 1213.5,-66 1213.5,-85"/>
<text text-anchor="middle" x="1191.5" y="-73" font-family="Helvetica,sans-Serif" font-size="10.00">string</text>
</a>
</g>
</g>
<!-- Node21&#45;&gt;Node29 -->
<g id="edge28" class="edge">
<title>Node21&#45;&gt;Node29</title>
<path fill="none" stroke="#63b8ff" d="M793.63,-134.35C799.28,-133.51 805.04,-132.7 810.5,-132 965.6,-112.05 1012.66,-146.97 1160.5,-96 1164.44,-94.64 1168.4,-92.7 1172.11,-90.56"/>
<polygon fill="#63b8ff" stroke="#63b8ff" points="1174.14,-93.41 1180.66,-85.06 1170.35,-87.53 1174.14,-93.41"/>
</g>
<!-- Node30 -->
<g id="node30" class="node">
<title>Node30</title>
<g id="a_node30"><a xlink:title=" ">
<polygon fill="#e0e0e0" stroke="#999999" points="229,-85 170,-85 170,-66 229,-66 229,-85"/>
<text text-anchor="middle" x="199.5" y="-73" font-family="Helvetica,sans-Serif" font-size="10.00">date/tz.h</text>
</a>
</g>
</g>
<!-- Node21&#45;&gt;Node30 -->
<g id="edge29" class="edge">
<title>Node21&#45;&gt;Node30</title>
<path fill="none" stroke="#63b8ff" d="M717.5,-133.91C712.79,-133.2 708.04,-132.55 703.5,-132 497.7,-107.26 438.25,-151.38 238.5,-96 233.17,-94.52 227.7,-92.3 222.61,-89.87"/>
<polygon fill="#63b8ff" stroke="#63b8ff" points="223.9,-86.6 213.41,-85.11 220.68,-92.82 223.9,-86.6"/>
</g>
<!-- Node31 -->
<g id="node31" class="node">
<title>Node31</title>
<g id="a_node31"><a xlink:title=" ">
<polygon fill="#e0e0e0" stroke="#999999" points="345.5,-85 247.5,-85 247.5,-66 345.5,-66 345.5,-85"/>
<text text-anchor="middle" x="296.5" y="-73" font-family="Helvetica,sans-Serif" font-size="10.00">pcg_random.hpp</text>
</a>
</g>
</g>
<!-- Node21&#45;&gt;Node31 -->
<g id="edge30" class="edge">
<title>Node21&#45;&gt;Node31</title>
<path fill="none" stroke="#63b8ff" d="M717.48,-134.02C712.78,-133.3 708.03,-132.6 703.5,-132 548.93,-111.41 506.89,-129.05 354.5,-96 345.69,-94.09 336.36,-91.31 327.81,-88.44"/>
<polygon fill="#63b8ff" stroke="#63b8ff" points="328.81,-85.08 318.21,-85.07 326.49,-91.68 328.81,-85.08"/>
</g>
<!-- Node32 -->
<g id="node32" class="node">
<title>Node32</title>
<g id="a_node32"><a xlink:title=" ">
<polygon fill="#e0e0e0" stroke="#999999" points="449.5,-85 363.5,-85 363.5,-66 449.5,-66 449.5,-85"/>
<text text-anchor="middle" x="406.5" y="-73" font-family="Helvetica,sans-Serif" font-size="10.00">fmt/ostream.h</text>
</a>
</g>
</g>
<!-- Node21&#45;&gt;Node32 -->
<g id="edge31" class="edge">
<title>Node21&#45;&gt;Node32</title>
<path fill="none" stroke="#63b8ff" d="M717.46,-134.21C712.76,-133.45 708.02,-132.7 703.5,-132 594.74,-115.12 565.07,-123.48 458.5,-96 451.05,-94.08 443.2,-91.46 435.92,-88.77"/>
<polygon fill="#63b8ff" stroke="#63b8ff" points="437.02,-85.45 426.43,-85.11 434.5,-91.98 437.02,-85.45"/>
</g>
<!-- Node33 -->
<g id="node33" class="node">
<title>Node33</title>
<g id="a_node33"><a xlink:title=" ">
<polygon fill="#e0e0e0" stroke="#999999" points="573.5,-90.5 467.5,-90.5 467.5,-60.5 573.5,-60.5 573.5,-90.5"/>
<text text-anchor="start" x="475.5" y="-78.5" font-family="Helvetica,sans-Serif" font-size="10.00">spdlog/sinks/basic</text>
<text text-anchor="middle" x="520.5" y="-67.5" font-family="Helvetica,sans-Serif" font-size="10.00">_file_sink.h</text>
</a>
</g>
</g>
<!-- Node21&#45;&gt;Node33 -->
<g id="edge32" class="edge">
<title>Node21&#45;&gt;Node33</title>
<path fill="none" stroke="#63b8ff" d="M720.45,-131.94C685.6,-123.32 630.68,-109.4 583.5,-96 580.57,-95.17 577.56,-94.3 574.53,-93.4"/>
<polygon fill="#63b8ff" stroke="#63b8ff" points="575.41,-90.01 564.82,-90.51 573.4,-96.72 575.41,-90.01"/>
</g>
<!-- Node34 -->
<g id="node34" class="node">
<title>Node34</title>
<g id="a_node34"><a xlink:title=" ">
<polygon fill="#e0e0e0" stroke="#999999" points="703,-90.5 592,-90.5 592,-60.5 703,-60.5 703,-90.5"/>
<text text-anchor="start" x="600" y="-78.5" font-family="Helvetica,sans-Serif" font-size="10.00">spdlog/sinks/stdout</text>
<text text-anchor="middle" x="647.5" y="-67.5" font-family="Helvetica,sans-Serif" font-size="10.00">_color_sinks.h</text>
</a>
</g>
</g>
<!-- Node21&#45;&gt;Node34 -->
<g id="edge33" class="edge">
<title>Node21&#45;&gt;Node34</title>
<path fill="none" stroke="#63b8ff" d="M740.93,-131.87C725.39,-122.66 700.25,-107.76 679.96,-95.74"/>
<polygon fill="#63b8ff" stroke="#63b8ff" points="681.71,-92.7 671.32,-90.62 678.14,-98.72 681.71,-92.7"/>
</g>
<!-- Node35&#45;&gt;Node8 -->
<g id="edge38" class="edge">
<title>Node35&#45;&gt;Node8</title>
<path fill="none" stroke="#63b8ff" d="M678.22,-186.98C723.89,-176.94 799.25,-160.37 843.95,-150.54"/>
<polygon fill="#63b8ff" stroke="#63b8ff" points="844.8,-153.94 853.81,-148.37 843.29,-147.1 844.8,-153.94"/>
</g>
<!-- Node35&#45;&gt;Node18 -->
<g id="edge41" class="edge">
<title>Node35&#45;&gt;Node18</title>
<path fill="none" stroke="#63b8ff" d="M676.89,-186.98C710.25,-178.98 760.21,-166.02 802.5,-151 822.19,-144.01 825.29,-137.28 845.5,-132 1008.35,-89.44 1059.03,-136.1 1222.5,-96 1229.43,-94.3 1236.67,-91.78 1243.36,-89.12"/>
<polygon fill="#63b8ff" stroke="#63b8ff" points="1244.83,-92.3 1252.68,-85.19 1242.11,-85.85 1244.83,-92.3"/>
</g>
<!-- Node35&#45;&gt;Node21 -->
<g id="edge42" class="edge">
<title>Node35&#45;&gt;Node21</title>
<path fill="none" stroke="#63b8ff" d="M658.14,-186.98C676.8,-178.46 705.75,-165.23 727.24,-155.41"/>
<polygon fill="#63b8ff" stroke="#63b8ff" points="728.88,-158.51 736.52,-151.17 725.97,-152.14 728.88,-158.51"/>
</g>
<!-- Node35&#45;&gt;Node27 -->
<g id="edge40" class="edge">
<title>Node35&#45;&gt;Node27</title>
<path fill="none" stroke="#63b8ff" d="M627.36,-186.92C606.58,-172.74 562.4,-144.73 520.5,-132 366.64,-85.26 311.78,-150.51 160.5,-96 156.86,-94.69 153.24,-92.82 149.84,-90.76"/>
<polygon fill="#63b8ff" stroke="#63b8ff" points="151.78,-87.84 141.56,-85.07 147.83,-93.62 151.78,-87.84"/>
</g>
<!-- Node36 -->
<g id="node36" class="node">
<title>Node36</title>
<g id="a_node36"><a xlink:title=" ">
<polygon fill="#e0e0e0" stroke="#999999" points="626.5,-151 584.5,-151 584.5,-132 626.5,-132 626.5,-151"/>
<text text-anchor="middle" x="605.5" y="-139" font-family="Helvetica,sans-Serif" font-size="10.00">array</text>
</a>
</g>
</g>
<!-- Node35&#45;&gt;Node36 -->
<g id="edge37" class="edge">
<title>Node35&#45;&gt;Node36</title>
<path fill="none" stroke="#63b8ff" d="M633.89,-186.75C629.18,-179.42 622.33,-168.73 616.53,-159.7"/>
<polygon fill="#63b8ff" stroke="#63b8ff" points="619.36,-157.62 611.01,-151.09 613.46,-161.4 619.36,-157.62"/>
</g>
<!-- Node37 -->
<g id="node37" class="node">
<title>Node37</title>
<g id="a_node37"><a xlink:title=" ">
<polygon fill="#e0e0e0" stroke="#999999" points="694.5,-151 644.5,-151 644.5,-132 694.5,-132 694.5,-151"/>
<text text-anchor="middle" x="669.5" y="-139" font-family="Helvetica,sans-Serif" font-size="10.00">gsl/util</text>
</a>
</g>
</g>
<!-- Node35&#45;&gt;Node37 -->
<g id="edge39" class="edge">
<title>Node35&#45;&gt;Node37</title>
<path fill="none" stroke="#63b8ff" d="M644.45,-186.75C648.56,-179.49 654.53,-168.95 659.6,-159.98"/>
<polygon fill="#63b8ff" stroke="#63b8ff" points="662.76,-161.52 664.64,-151.09 656.67,-158.07 662.76,-161.52"/>
</g>
</g>
</svg>
        <g id="navigator" transform="translate(0 0)" fill="#404254">
                <rect fill="#f2f5e9" fill-opacity="0.5" stroke="#606060" stroke-width=".5" x="0" y="0" width="60" height="60"/>
                <use id="zoomplus" xlink:href="#zoomPlus" x="17" y="9" onmousedown="handleZoom(evt,'in')"/>
                <use id="zoomminus" xlink:href="#zoomMin" x="42" y="9" onmousedown="handleZoom(evt,'out')"/>
                <use id="reset" xlink:href="#resetDef" x="30" y="36" onmousedown="handleReset()"/>
                <g id="arrowUp" xlink:href="#dirArrow" transform="translate(30 24)" onmousedown="handlePan(0,-1)">
                  <use xlink:href="#rim" fill="#404040">
                        <set attributeName="fill" to="#808080" begin="arrowUp.mouseover" end="arrowUp.mouseout"/>
                  </use>
                  <path fill="none" stroke="white" stroke-width="1.5" d="M0,-3.0v7 M-2.5,-0.5L0,-3.0L2.5,-0.5"/>
                </g>
                <g id="arrowRight" xlink:href="#dirArrow" transform="rotate(90) translate(36 -43)" onmousedown="handlePan(1,0)">
                  <use xlink:href="#rim" fill="#404040">
                        <set attributeName="fill" to="#808080" begin="arrowRight.mouseover" end="arrowRight.mouseout"/>
                  </use>
                  <path fill="none" stroke="white" stroke-width="1.5" d="M0,-3.0v7 M-2.5,-0.5L0,-3.0L2.5,-0.5"/>
                </g>
                <g id="arrowDown" xlink:href="#dirArrow" transform="rotate(180) translate(-30 -48)" onmousedown="handlePan(0,1)">
                  <use xlink:href="#rim" fill="#404040">
                        <set attributeName="fill" to="#808080" begin="arrowDown.mouseover" end="arrowDown.mouseout"/>
                  </use>
                  <path fill="none" stroke="white" stroke-width="1.5" d="M0,-3.0v7 M-2.5,-0.5L0,-3.0L2.5,-0.5"/>
                </g>
                <g id="arrowLeft" xlink:href="#dirArrow" transform="rotate(270) translate(-36 17)" onmousedown="handlePan(-1,0)">
                  <use xlink:href="#rim" fill="#404040">
                        <set attributeName="fill" to="#808080" begin="arrowLeft.mouseover" end="arrowLeft.mouseout"/>
                  </use>
                  <path fill="none" stroke="white" stroke-width="1.5" d="M0,-3.0v7 M-2.5,-0.5L0,-3.0L2.5,-0.5"/>
                </g>
        </g>
        <svg viewBox="0 0 15 15" width="100%" height="30px" preserveAspectRatio="xMaxYMin meet">
         <g id="arrow_out" transform="scale(0.3 0.3)">
          <a xlink:href="bistellar-flip_8cpp__incl_org.svg" target="_base">
           <rect id="button" ry="5" rx="5" y="6" x="6" height="38" width="38"
                fill="#f2f5e9" fill-opacity="0.5" stroke="#606060" stroke-width="1.0"/>
           <path id="arrow"
             d="M 11.500037,31.436501 C 11.940474,20.09759 22.043105,11.32322 32.158766,21.979434 L 37.068811,17.246167 C 37.068811,17.246167 37.088388,32 37.088388,32 L 22.160133,31.978069 C 22.160133,31.978069 26.997745,27.140456 26.997745,27.140456 C 18.528582,18.264221 13.291696,25.230495 11.500037,31.436501 z"
             style="fill:#404040;"/>
          </a>
         </g>
        </svg>
</svg>
