<?xml version="1.0" encoding="UTF-8" standalone="no"?>
<!DOCTYPE svg PUBLIC "-//W3C//DTD SVG 1.1//EN"
 "http://www.w3.org/Graphics/SVG/1.1/DTD/svg11.dtd">
<!-- Generated by graphviz version 2.43.0 (0)
 -->
<!-- Title: src/bistellar&#45;flip.cpp Pages: 1 -->
<svg width="2157pt" height="442pt"
 viewBox="0.00 0.00 2156.50 442.00" xmlns="http://www.w3.org/2000/svg" xmlns:xlink="http://www.w3.org/1999/xlink">
<g id="graph0" class="graph" transform="scale(1 1) rotate(0) translate(4 438)">
<title>src/bistellar&#45;flip.cpp</title>
<polygon fill="white" stroke="transparent" points="-4,4 -4,-438 2152.5,-438 2152.5,4 -4,4"/>
<!-- Node1 -->
<g id="node1" class="node">
<title>Node1</title>
<g id="a_node1"><a xlink:title="Tests and views bistellar flips.">
<polygon fill="#bfbfbf" stroke="black" points="432,-414.5 432,-433.5 545,-433.5 545,-414.5 432,-414.5"/>
<text text-anchor="middle" x="488.5" y="-421.5" font-family="Helvetica,sans-Serif" font-size="10.00">src/bistellar&#45;flip.cpp</text>
</a>
</g>
</g>
<!-- Node2 -->
<g id="node2" class="node">
<title>Node2</title>
<g id="a_node2"><a xlink:title=" ">
<polygon fill="white" stroke="#bfbfbf" points="246,-358.5 246,-377.5 341,-377.5 341,-358.5 246,-358.5"/>
<text text-anchor="middle" x="293.5" y="-365.5" font-family="Helvetica,sans-Serif" font-size="10.00">docopt/docopt.h</text>
</a>
</g>
</g>
<!-- Node1&#45;&gt;Node2 -->
<g id="edge1" class="edge">
<title>Node1&#45;&gt;Node2</title>
<path fill="none" stroke="midnightblue" d="M457.6,-414.44C424.23,-405.2 370.91,-390.44 334.15,-380.26"/>
<polygon fill="midnightblue" stroke="midnightblue" points="334.83,-376.81 324.25,-377.52 332.96,-383.56 334.83,-376.81"/>
</g>
<!-- Node3 -->
<g id="node3" class="node">
<title>Node3</title>
<g id="a_node3"><a xlink:title=" ">
<polygon fill="white" stroke="#bfbfbf" points="359,-358.5 359,-377.5 460,-377.5 460,-358.5 359,-358.5"/>
<text text-anchor="middle" x="409.5" y="-365.5" font-family="Helvetica,sans-Serif" font-size="10.00">doctest/doctest.h</text>
</a>
</g>
</g>
<!-- Node1&#45;&gt;Node3 -->
<g id="edge2" class="edge">
<title>Node1&#45;&gt;Node3</title>
<path fill="none" stroke="midnightblue" d="M475.81,-414.32C463.6,-405.98 444.92,-393.21 430.5,-383.35"/>
<polygon fill="midnightblue" stroke="midnightblue" points="432.39,-380.41 422.16,-377.65 428.44,-386.19 432.39,-380.41"/>
</g>
<!-- Node4 -->
<g id="node4" class="node">
<title>Node4</title>
<g id="a_node4"><a xlink:title=" ">
<polygon fill="white" stroke="#bfbfbf" points="0,-67.5 0,-86.5 93,-86.5 93,-67.5 0,-67.5"/>
<text text-anchor="middle" x="46.5" y="-74.5" font-family="Helvetica,sans-Serif" font-size="10.00">spdlog/spdlog.h</text>
</a>
</g>
</g>
<!-- Node1&#45;&gt;Node4 -->
<g id="edge3" class="edge">
<title>Node1&#45;&gt;Node4</title>
<path fill="none" stroke="midnightblue" d="M488.5,-414.44C488.5,-395.94 488.5,-350.81 488.5,-313 488.5,-313 488.5,-313 488.5,-199 488.5,-21.67 271.94,-150.32 102.5,-98 94.66,-95.58 86.3,-92.74 78.48,-89.96"/>
<polygon fill="midnightblue" stroke="midnightblue" points="79.56,-86.63 68.97,-86.53 77.18,-93.22 79.56,-86.63"/>
</g>
<!-- Node5 -->
<g id="node5" class="node">
<title>Node5</title>
<g id="a_node5"><a xlink:title=" ">
<polygon fill="white" stroke="#bfbfbf" points="658,-358.5 658,-377.5 717,-377.5 717,-358.5 658,-358.5"/>
<text text-anchor="middle" x="687.5" y="-365.5" font-family="Helvetica,sans-Serif" font-size="10.00">numbers</text>
</a>
</g>
</g>
<!-- Node1&#45;&gt;Node5 -->
<g id="edge4" class="edge">
<title>Node1&#45;&gt;Node5</title>
<path fill="none" stroke="midnightblue" d="M520.03,-414.44C554.59,-405.07 610.11,-390 647.66,-379.81"/>
<polygon fill="midnightblue" stroke="midnightblue" points="649.01,-383.07 657.74,-377.08 647.17,-376.32 649.01,-383.07"/>
</g>
<!-- Node6 -->
<g id="node6" class="node">
<title>Node6</title>
<g id="a_node6"><a xlink:href="_ergodic__moves__3_8hpp.html" target="_top" xlink:title="Pachner moves on 2+1 dimensional foliated Delaunay triangulations.">
<polygon fill="white" stroke="black" points="517,-358.5 517,-377.5 640,-377.5 640,-358.5 517,-358.5"/>
<text text-anchor="middle" x="578.5" y="-365.5" font-family="Helvetica,sans-Serif" font-size="10.00">Ergodic_moves_3.hpp</text>
</a>
</g>
</g>
<!-- Node1&#45;&gt;Node6 -->
<g id="edge5" class="edge">
<title>Node1&#45;&gt;Node6</title>
<path fill="none" stroke="midnightblue" d="M502.96,-414.32C517,-405.9 538.55,-392.97 555.04,-383.07"/>
<polygon fill="midnightblue" stroke="midnightblue" points="557.3,-385.8 564.08,-377.65 553.7,-379.8 557.3,-385.8"/>
</g>
<!-- Node7 -->
<g id="node7" class="node">
<title>Node7</title>
<g id="a_node7"><a xlink:title=" ">
<polygon fill="white" stroke="#bfbfbf" points="524.5,-302.5 524.5,-321.5 616.5,-321.5 616.5,-302.5 524.5,-302.5"/>
<text text-anchor="middle" x="570.5" y="-309.5" font-family="Helvetica,sans-Serif" font-size="10.00">tl/expected.hpp</text>
</a>
</g>
</g>
<!-- Node6&#45;&gt;Node7 -->
<g id="edge6" class="edge">
<title>Node6&#45;&gt;Node7</title>
<path fill="none" stroke="midnightblue" d="M577.18,-358.08C576.12,-350.93 574.59,-340.64 573.27,-331.69"/>
<polygon fill="midnightblue" stroke="midnightblue" points="576.72,-331.13 571.8,-321.75 569.8,-332.16 576.72,-331.13"/>
</g>
<!-- Node8 -->
<g id="node8" class="node">
<title>Node8</title>
<g id="a_node8"><a xlink:href="_manifold_8hpp.html" target="_top" xlink:title="Data structures for manifolds.">
<polygon fill="white" stroke="black" points="803.5,-302.5 803.5,-321.5 883.5,-321.5 883.5,-302.5 803.5,-302.5"/>
<text text-anchor="middle" x="843.5" y="-309.5" font-family="Helvetica,sans-Serif" font-size="10.00">Manifold.hpp</text>
</a>
</g>
</g>
<!-- Node6&#45;&gt;Node8 -->
<g id="edge7" class="edge">
<title>Node6&#45;&gt;Node8</title>
<path fill="none" stroke="midnightblue" d="M620.49,-358.44C667.46,-348.87 743.49,-333.38 793.5,-323.19"/>
<polygon fill="midnightblue" stroke="midnightblue" points="794.34,-326.59 803.44,-321.16 792.94,-319.73 794.34,-326.59"/>
</g>
<!-- Node36 -->
<g id="node36" class="node">
<title>Node36</title>
<g id="a_node36"><a xlink:href="_move__tracker_8hpp.html" target="_top" xlink:title="Track ergodic moves.">
<polygon fill="white" stroke="black" points="593,-190.5 593,-209.5 696,-209.5 696,-190.5 593,-190.5"/>
<text text-anchor="middle" x="644.5" y="-197.5" font-family="Helvetica,sans-Serif" font-size="10.00">Move_tracker.hpp</text>
</a>
</g>
</g>
<!-- Node6&#45;&gt;Node36 -->
<g id="edge37" class="edge">
<title>Node6&#45;&gt;Node36</title>
<path fill="none" stroke="midnightblue" d="M591.53,-358.29C602.47,-350.23 617.55,-337.22 625.5,-322 642.67,-289.13 645.26,-244.9 645.17,-220.03"/>
<polygon fill="midnightblue" stroke="midnightblue" points="648.67,-219.73 644.98,-209.8 641.67,-219.86 648.67,-219.73"/>
</g>
<!-- Node9 -->
<g id="node9" class="node">
<title>Node9</title>
<g id="a_node9"><a xlink:title=" ">
<polygon fill="white" stroke="#bfbfbf" points="859,-134.5 859,-153.5 912,-153.5 912,-134.5 859,-134.5"/>
<text text-anchor="middle" x="885.5" y="-141.5" font-family="Helvetica,sans-Serif" font-size="10.00">cstddef</text>
</a>
</g>
</g>
<!-- Node8&#45;&gt;Node9 -->
<g id="edge8" class="edge">
<title>Node8&#45;&gt;Node9</title>
<path fill="none" stroke="midnightblue" d="M845.76,-302.08C852.37,-275.95 871.78,-199.21 880.8,-163.58"/>
<polygon fill="midnightblue" stroke="midnightblue" points="884.27,-164.12 883.33,-153.57 877.49,-162.4 884.27,-164.12"/>
</g>
<!-- Node10 -->
<g id="node10" class="node">
<title>Node10</title>
<g id="a_node10"><a xlink:title=" ">
<polygon fill="white" stroke="#bfbfbf" points="914.5,-246.5 914.5,-265.5 1000.5,-265.5 1000.5,-246.5 914.5,-246.5"/>
<text text-anchor="middle" x="957.5" y="-253.5" font-family="Helvetica,sans-Serif" font-size="10.00">unordered_set</text>
</a>
</g>
</g>
<!-- Node8&#45;&gt;Node10 -->
<g id="edge9" class="edge">
<title>Node8&#45;&gt;Node10</title>
<path fill="none" stroke="midnightblue" d="M861.56,-302.44C880.07,-293.68 909.08,-279.94 930.36,-269.86"/>
<polygon fill="midnightblue" stroke="midnightblue" points="931.98,-272.96 939.52,-265.52 928.99,-266.63 931.98,-272.96"/>
</g>
<!-- Node11 -->
<g id="node11" class="node">
<title>Node11</title>
<g id="a_node11"><a xlink:href="_geometry_8hpp.html" target="_top" xlink:title="Geometric scalars of the Manifold used to calculate the Regge action.">
<polygon fill="white" stroke="black" points="758,-246.5 758,-265.5 843,-265.5 843,-246.5 758,-246.5"/>
<text text-anchor="middle" x="800.5" y="-253.5" font-family="Helvetica,sans-Serif" font-size="10.00">Geometry.hpp</text>
</a>
</g>
</g>
<!-- Node8&#45;&gt;Node11 -->
<g id="edge10" class="edge">
<title>Node8&#45;&gt;Node11</title>
<path fill="none" stroke="midnightblue" d="M836.4,-302.08C830.26,-294.38 821.23,-283.03 813.76,-273.65"/>
<polygon fill="midnightblue" stroke="midnightblue" points="816.44,-271.39 807.47,-265.75 810.96,-275.75 816.44,-271.39"/>
</g>
<!-- Node12 -->
<g id="node12" class="node">
<title>Node12</title>
<g id="a_node12"><a xlink:href="_foliated__triangulation_8hpp.html" target="_top" xlink:title="Create foliated spherical triangulations.">
<polygon fill="white" stroke="black" points="714.5,-190.5 714.5,-209.5 858.5,-209.5 858.5,-190.5 714.5,-190.5"/>
<text text-anchor="middle" x="786.5" y="-197.5" font-family="Helvetica,sans-Serif" font-size="10.00">Foliated_triangulation.hpp</text>
</a>
</g>
</g>
<!-- Node11&#45;&gt;Node12 -->
<g id="edge11" class="edge">
<title>Node11&#45;&gt;Node12</title>
<path fill="none" stroke="midnightblue" d="M798.19,-246.08C796.33,-238.93 793.66,-228.64 791.35,-219.69"/>
<polygon fill="midnightblue" stroke="midnightblue" points="794.67,-218.55 788.77,-209.75 787.89,-220.31 794.67,-218.55"/>
</g>
<!-- Node13 -->
<g id="node13" class="node">
<title>Node13</title>
<g id="a_node13"><a xlink:href="_triangulation__traits_8hpp.html" target="_top" xlink:title="Traits class for particular uses of CGAL.">
<polygon fill="white" stroke="black" points="1525,-134.5 1525,-153.5 1656,-153.5 1656,-134.5 1525,-134.5"/>
<text text-anchor="middle" x="1590.5" y="-141.5" font-family="Helvetica,sans-Serif" font-size="10.00">Triangulation_traits.hpp</text>
</a>
</g>
</g>
<!-- Node12&#45;&gt;Node13 -->
<g id="edge12" class="edge">
<title>Node12&#45;&gt;Node13</title>
<path fill="none" stroke="midnightblue" d="M858.56,-194.16C1009.93,-183.99 1359.73,-160.5 1514.49,-150.11"/>
<polygon fill="midnightblue" stroke="midnightblue" points="1515.1,-153.57 1524.84,-149.41 1514.63,-146.59 1515.1,-153.57"/>
</g>
<!-- Node22 -->
<g id="node22" class="node">
<title>Node22</title>
<g id="a_node22"><a xlink:href="_utilities_8hpp.html" target="_top" xlink:title="Utility functions.">
<polygon fill="white" stroke="black" points="717.5,-134.5 717.5,-153.5 793.5,-153.5 793.5,-134.5 717.5,-134.5"/>
<text text-anchor="middle" x="755.5" y="-141.5" font-family="Helvetica,sans-Serif" font-size="10.00">Utilities.hpp</text>
</a>
</g>
</g>
<!-- Node12&#45;&gt;Node22 -->
<g id="edge21" class="edge">
<title>Node12&#45;&gt;Node22</title>
<path fill="none" stroke="midnightblue" d="M781.38,-190.08C777.09,-182.61 770.84,-171.72 765.56,-162.52"/>
<polygon fill="midnightblue" stroke="midnightblue" points="768.54,-160.68 760.52,-153.75 762.47,-164.17 768.54,-160.68"/>
</g>
<!-- Node14 -->
<g id="node14" class="node">
<title>Node14</title>
<g id="a_node14"><a xlink:title=" ">
<polygon fill="white" stroke="#bfbfbf" points="1327.5,-67.5 1327.5,-86.5 1507.5,-86.5 1507.5,-67.5 1327.5,-67.5"/>
<text text-anchor="middle" x="1417.5" y="-74.5" font-family="Helvetica,sans-Serif" font-size="10.00">CGAL/Delaunay_triangulation_3.h</text>
</a>
</g>
</g>
<!-- Node13&#45;&gt;Node14 -->
<g id="edge13" class="edge">
<title>Node13&#45;&gt;Node14</title>
<path fill="none" stroke="midnightblue" d="M1567.53,-134.37C1537.33,-123.02 1484.1,-103.02 1449.84,-90.15"/>
<polygon fill="midnightblue" stroke="midnightblue" points="1450.88,-86.8 1440.29,-86.56 1448.42,-93.36 1450.88,-86.8"/>
</g>
<!-- Node15 -->
<g id="node15" class="node">
<title>Node15</title>
<g id="a_node15"><a xlink:title=" ">
<polygon fill="white" stroke="#bfbfbf" points="1526,-56.5 1526,-97.5 1655,-97.5 1655,-56.5 1526,-56.5"/>
<text text-anchor="start" x="1534" y="-85.5" font-family="Helvetica,sans-Serif" font-size="10.00">CGAL/Exact_predicates</text>
<text text-anchor="start" x="1534" y="-74.5" font-family="Helvetica,sans-Serif" font-size="10.00">_inexact_constructions</text>
<text text-anchor="middle" x="1590.5" y="-63.5" font-family="Helvetica,sans-Serif" font-size="10.00">_kernel.h</text>
</a>
</g>
</g>
<!-- Node13&#45;&gt;Node15 -->
<g id="edge14" class="edge">
<title>Node13&#45;&gt;Node15</title>
<path fill="none" stroke="midnightblue" d="M1590.5,-134.23C1590.5,-127.36 1590.5,-117.38 1590.5,-107.73"/>
<polygon fill="midnightblue" stroke="midnightblue" points="1594,-107.54 1590.5,-97.54 1587,-107.54 1594,-107.54"/>
</g>
<!-- Node16 -->
<g id="node16" class="node">
<title>Node16</title>
<g id="a_node16"><a xlink:title=" ">
<polygon fill="white" stroke="#bfbfbf" points="1673,-67.5 1673,-86.5 1822,-86.5 1822,-67.5 1673,-67.5"/>
<text text-anchor="middle" x="1747.5" y="-74.5" font-family="Helvetica,sans-Serif" font-size="10.00">CGAL/point_generators_3.h</text>
</a>
</g>
</g>
<!-- Node13&#45;&gt;Node16 -->
<g id="edge15" class="edge">
<title>Node13&#45;&gt;Node16</title>
<path fill="none" stroke="midnightblue" d="M1611.35,-134.37C1638.44,-123.15 1685.96,-103.48 1717.08,-90.59"/>
<polygon fill="midnightblue" stroke="midnightblue" points="1718.66,-93.73 1726.57,-86.67 1715.99,-87.26 1718.66,-93.73"/>
</g>
<!-- Node17 -->
<g id="node17" class="node">
<title>Node17</title>
<g id="a_node17"><a xlink:title=" ">
<polygon fill="white" stroke="#bfbfbf" points="1840.5,-62 1840.5,-92 1978.5,-92 1978.5,-62 1840.5,-62"/>
<text text-anchor="start" x="1848.5" y="-80" font-family="Helvetica,sans-Serif" font-size="10.00">CGAL/Triangulation</text>
<text text-anchor="middle" x="1909.5" y="-69" font-family="Helvetica,sans-Serif" font-size="10.00">_cell_base_with_info_3.h</text>
</a>
</g>
</g>
<!-- Node13&#45;&gt;Node17 -->
<g id="edge16" class="edge">
<title>Node13&#45;&gt;Node17</title>
<path fill="none" stroke="midnightblue" d="M1641.48,-134.49C1690.39,-126.09 1766.25,-112.44 1831.5,-98 1836.49,-96.9 1841.65,-95.7 1846.82,-94.46"/>
<polygon fill="midnightblue" stroke="midnightblue" points="1847.86,-97.81 1856.75,-92.03 1846.2,-91.01 1847.86,-97.81"/>
</g>
<!-- Node18 -->
<g id="node18" class="node">
<title>Node18</title>
<g id="a_node18"><a xlink:title=" ">
<polygon fill="white" stroke="#bfbfbf" points="1996.5,-62 1996.5,-92 2148.5,-92 2148.5,-62 1996.5,-62"/>
<text text-anchor="start" x="2004.5" y="-80" font-family="Helvetica,sans-Serif" font-size="10.00">CGAL/Triangulation</text>
<text text-anchor="middle" x="2072.5" y="-69" font-family="Helvetica,sans-Serif" font-size="10.00">_vertex_base_with_info_3.h</text>
</a>
</g>
</g>
<!-- Node13&#45;&gt;Node18 -->
<g id="edge17" class="edge">
<title>Node13&#45;&gt;Node18</title>
<path fill="none" stroke="midnightblue" d="M1656.17,-137.95C1735.18,-131.32 1871.66,-118.12 1987.5,-98 1993.77,-96.91 2000.28,-95.64 2006.76,-94.28"/>
<polygon fill="midnightblue" stroke="midnightblue" points="2007.88,-97.62 2016.91,-92.07 2006.4,-90.78 2007.88,-97.62"/>
</g>
<!-- Node19 -->
<g id="node19" class="node">
<title>Node19</title>
<g id="a_node19"><a xlink:href="_settings_8hpp.html" target="_top" xlink:title="Global integer and precision settings.">
<polygon fill="white" stroke="black" points="1232,-67.5 1232,-86.5 1309,-86.5 1309,-67.5 1232,-67.5"/>
<text text-anchor="middle" x="1270.5" y="-74.5" font-family="Helvetica,sans-Serif" font-size="10.00">Settings.hpp</text>
</a>
</g>
</g>
<!-- Node13&#45;&gt;Node19 -->
<g id="edge18" class="edge">
<title>Node13&#45;&gt;Node19</title>
<path fill="none" stroke="midnightblue" d="M1524.99,-136.46C1469.31,-129.88 1387.63,-117.83 1318.5,-98 1311.62,-96.03 1304.4,-93.36 1297.71,-90.61"/>
<polygon fill="midnightblue" stroke="midnightblue" points="1298.95,-87.34 1288.38,-86.61 1296.19,-93.77 1298.95,-87.34"/>
</g>
<!-- Node20 -->
<g id="node20" class="node">
<title>Node20</title>
<g id="a_node20"><a xlink:title=" ">
<polygon fill="white" stroke="#bfbfbf" points="1143.5,-0.5 1143.5,-19.5 1283.5,-19.5 1283.5,-0.5 1143.5,-0.5"/>
<text text-anchor="middle" x="1213.5" y="-7.5" font-family="Helvetica,sans-Serif" font-size="10.00">CGAL/GMP/Gmpzf_type.h</text>
</a>
</g>
</g>
<!-- Node19&#45;&gt;Node20 -->
<g id="edge19" class="edge">
<title>Node19&#45;&gt;Node20</title>
<path fill="none" stroke="midnightblue" d="M1262.81,-67.23C1253.84,-57 1238.81,-39.86 1227.7,-27.19"/>
<polygon fill="midnightblue" stroke="midnightblue" points="1230.29,-24.84 1221.07,-19.63 1225.03,-29.45 1230.29,-24.84"/>
</g>
<!-- Node21 -->
<g id="node21" class="node">
<title>Node21</title>
<g id="a_node21"><a xlink:title=" ">
<polygon fill="white" stroke="#bfbfbf" points="1301.5,-0.5 1301.5,-19.5 1351.5,-19.5 1351.5,-0.5 1301.5,-0.5"/>
<text text-anchor="middle" x="1326.5" y="-7.5" font-family="Helvetica,sans-Serif" font-size="10.00">cstdint</text>
</a>
</g>
</g>
<!-- Node19&#45;&gt;Node21 -->
<g id="edge20" class="edge">
<title>Node19&#45;&gt;Node21</title>
<path fill="none" stroke="midnightblue" d="M1278.05,-67.23C1286.78,-57.1 1301.35,-40.19 1312.24,-27.56"/>
<polygon fill="midnightblue" stroke="midnightblue" points="1315.19,-29.49 1319.07,-19.63 1309.89,-24.92 1315.19,-29.49"/>
</g>
<!-- Node22&#45;&gt;Node4 -->
<g id="edge35" class="edge">
<title>Node22&#45;&gt;Node4</title>
<path fill="none" stroke="midnightblue" d="M717.19,-136.54C710.64,-135.58 703.88,-134.69 697.5,-134 434.09,-105.66 362.06,-151.08 102.5,-98 93.56,-96.17 84.11,-93.22 75.58,-90.14"/>
<polygon fill="midnightblue" stroke="midnightblue" points="76.66,-86.81 66.07,-86.53 74.17,-93.35 76.66,-86.81"/>
</g>
<!-- Node22&#45;&gt;Node19 -->
<g id="edge36" class="edge">
<title>Node22&#45;&gt;Node19</title>
<path fill="none" stroke="midnightblue" d="M793.51,-136.73C800.16,-135.74 807.03,-134.79 813.5,-134 994.65,-112 1045.31,-141.61 1222.5,-98 1229.69,-96.23 1237.19,-93.55 1244.07,-90.71"/>
<polygon fill="midnightblue" stroke="midnightblue" points="1245.85,-93.76 1253.6,-86.54 1243.04,-87.34 1245.85,-93.76"/>
</g>
<!-- Node23 -->
<g id="node23" class="node">
<title>Node23</title>
<g id="a_node23"><a xlink:title=" ">
<polygon fill="white" stroke="#bfbfbf" points="721.5,-67.5 721.5,-86.5 789.5,-86.5 789.5,-67.5 721.5,-67.5"/>
<text text-anchor="middle" x="755.5" y="-74.5" font-family="Helvetica,sans-Serif" font-size="10.00">filesystem</text>
</a>
</g>
</g>
<!-- Node22&#45;&gt;Node23 -->
<g id="edge22" class="edge">
<title>Node22&#45;&gt;Node23</title>
<path fill="none" stroke="midnightblue" d="M755.5,-134.23C755.5,-124.68 755.5,-109.12 755.5,-96.78"/>
<polygon fill="midnightblue" stroke="midnightblue" points="759,-96.63 755.5,-86.63 752,-96.63 759,-96.63"/>
</g>
<!-- Node24 -->
<g id="node24" class="node">
<title>Node24</title>
<g id="a_node24"><a xlink:title=" ">
<polygon fill="white" stroke="#bfbfbf" points="808,-67.5 808,-86.5 863,-86.5 863,-67.5 808,-67.5"/>
<text text-anchor="middle" x="835.5" y="-74.5" font-family="Helvetica,sans-Serif" font-size="10.00">fstream</text>
</a>
</g>
</g>
<!-- Node22&#45;&gt;Node24 -->
<g id="edge23" class="edge">
<title>Node22&#45;&gt;Node24</title>
<path fill="none" stroke="midnightblue" d="M766.29,-134.23C779.24,-123.71 801.19,-105.88 816.89,-93.12"/>
<polygon fill="midnightblue" stroke="midnightblue" points="819.33,-95.65 824.88,-86.63 814.91,-90.22 819.33,-95.65"/>
</g>
<!-- Node25 -->
<g id="node25" class="node">
<title>Node25</title>
<g id="a_node25"><a xlink:title=" ">
<polygon fill="white" stroke="#bfbfbf" points="881.5,-67.5 881.5,-86.5 929.5,-86.5 929.5,-67.5 881.5,-67.5"/>
<text text-anchor="middle" x="905.5" y="-74.5" font-family="Helvetica,sans-Serif" font-size="10.00">gsl/gsl</text>
</a>
</g>
</g>
<!-- Node22&#45;&gt;Node25 -->
<g id="edge24" class="edge">
<title>Node22&#45;&gt;Node25</title>
<path fill="none" stroke="midnightblue" d="M781.62,-134.45C805.71,-126.22 842.21,-112.86 872.5,-98 876.25,-96.16 880.13,-94.03 883.86,-91.86"/>
<polygon fill="midnightblue" stroke="midnightblue" points="885.9,-94.71 892.63,-86.53 882.27,-88.73 885.9,-94.71"/>
</g>
<!-- Node26 -->
<g id="node26" class="node">
<title>Node26</title>
<g id="a_node26"><a xlink:title=" ">
<polygon fill="white" stroke="#bfbfbf" points="947.5,-67.5 947.5,-86.5 995.5,-86.5 995.5,-67.5 947.5,-67.5"/>
<text text-anchor="middle" x="971.5" y="-74.5" font-family="Helvetica,sans-Serif" font-size="10.00">mutex</text>
</a>
</g>
</g>
<!-- Node22&#45;&gt;Node26 -->
<g id="edge25" class="edge">
<title>Node22&#45;&gt;Node26</title>
<path fill="none" stroke="midnightblue" d="M793.71,-137.09C831.49,-130.46 890.45,-117.92 938.5,-98 942.61,-96.3 946.8,-94.13 950.77,-91.86"/>
<polygon fill="midnightblue" stroke="midnightblue" points="952.75,-94.75 959.44,-86.53 949.08,-88.79 952.75,-94.75"/>
</g>
<!-- Node27 -->
<g id="node27" class="node">
<title>Node27</title>
<g id="a_node27"><a xlink:title=" ">
<polygon fill="white" stroke="#bfbfbf" points="1013.5,-67.5 1013.5,-86.5 1067.5,-86.5 1067.5,-67.5 1013.5,-67.5"/>
<text text-anchor="middle" x="1040.5" y="-74.5" font-family="Helvetica,sans-Serif" font-size="10.00">random</text>
</a>
</g>
</g>
<!-- Node22&#45;&gt;Node27 -->
<g id="edge26" class="edge">
<title>Node22&#45;&gt;Node27</title>
<path fill="none" stroke="midnightblue" d="M793.72,-136.8C858.55,-126.18 984.95,-104.98 1004.5,-98 1009.22,-96.32 1014.05,-94.06 1018.58,-91.66"/>
<polygon fill="midnightblue" stroke="midnightblue" points="1020.35,-94.68 1027.32,-86.7 1016.9,-88.59 1020.35,-94.68"/>
</g>
<!-- Node28 -->
<g id="node28" class="node">
<title>Node28</title>
<g id="a_node28"><a xlink:title=" ">
<polygon fill="white" stroke="#bfbfbf" points="111.5,-67.5 111.5,-86.5 151.5,-86.5 151.5,-67.5 111.5,-67.5"/>
<text text-anchor="middle" x="131.5" y="-74.5" font-family="Helvetica,sans-Serif" font-size="10.00">span</text>
</a>
</g>
</g>
<!-- Node22&#45;&gt;Node28 -->
<g id="edge27" class="edge">
<title>Node22&#45;&gt;Node28</title>
<path fill="none" stroke="midnightblue" d="M717.19,-136.57C710.63,-135.61 703.88,-134.71 697.5,-134 578.63,-120.82 273.44,-137.36 160.5,-98 156.76,-96.7 153.05,-94.77 149.6,-92.62"/>
<polygon fill="midnightblue" stroke="midnightblue" points="151.41,-89.61 141.23,-86.68 147.36,-95.32 151.41,-89.61"/>
</g>
<!-- Node29 -->
<g id="node29" class="node">
<title>Node29</title>
<g id="a_node29"><a xlink:title=" ">
<polygon fill="white" stroke="#bfbfbf" points="1086,-67.5 1086,-86.5 1151,-86.5 1151,-67.5 1086,-67.5"/>
<text text-anchor="middle" x="1118.5" y="-74.5" font-family="Helvetica,sans-Serif" font-size="10.00">stdexcept</text>
</a>
</g>
</g>
<!-- Node22&#45;&gt;Node29 -->
<g id="edge28" class="edge">
<title>Node22&#45;&gt;Node29</title>
<path fill="none" stroke="midnightblue" d="M793.55,-137C800.2,-135.98 807.05,-134.94 813.5,-134 930.24,-116.95 963.46,-131.76 1076.5,-98 1082.45,-96.22 1088.61,-93.71 1094.33,-91.06"/>
<polygon fill="midnightblue" stroke="midnightblue" points="1095.98,-94.15 1103.4,-86.59 1092.88,-87.87 1095.98,-94.15"/>
</g>
<!-- Node30 -->
<g id="node30" class="node">
<title>Node30</title>
<g id="a_node30"><a xlink:title=" ">
<polygon fill="white" stroke="#bfbfbf" points="1169.5,-67.5 1169.5,-86.5 1213.5,-86.5 1213.5,-67.5 1169.5,-67.5"/>
<text text-anchor="middle" x="1191.5" y="-74.5" font-family="Helvetica,sans-Serif" font-size="10.00">string</text>
</a>
</g>
</g>
<!-- Node22&#45;&gt;Node30 -->
<g id="edge29" class="edge">
<title>Node22&#45;&gt;Node30</title>
<path fill="none" stroke="midnightblue" d="M793.52,-136.82C800.17,-135.82 807.03,-134.84 813.5,-134 967.27,-114.11 1014.23,-149.44 1160.5,-98 1164.53,-96.58 1168.57,-94.55 1172.33,-92.31"/>
<polygon fill="midnightblue" stroke="midnightblue" points="1174.57,-95.02 1180.97,-86.57 1170.7,-89.19 1174.57,-95.02"/>
</g>
<!-- Node31 -->
<g id="node31" class="node">
<title>Node31</title>
<g id="a_node31"><a xlink:title=" ">
<polygon fill="white" stroke="#bfbfbf" points="170,-67.5 170,-86.5 229,-86.5 229,-67.5 170,-67.5"/>
<text text-anchor="middle" x="199.5" y="-74.5" font-family="Helvetica,sans-Serif" font-size="10.00">date/tz.h</text>
</a>
</g>
</g>
<!-- Node22&#45;&gt;Node31 -->
<g id="edge30" class="edge">
<title>Node22&#45;&gt;Node31</title>
<path fill="none" stroke="midnightblue" d="M717.49,-136.68C710.84,-135.7 703.98,-134.76 697.5,-134 494.25,-110.29 435.38,-153.77 238.5,-98 232.92,-96.42 227.2,-94 221.92,-91.4"/>
<polygon fill="midnightblue" stroke="midnightblue" points="223.5,-88.27 213.03,-86.62 220.19,-94.43 223.5,-88.27"/>
</g>
<!-- Node32 -->
<g id="node32" class="node">
<title>Node32</title>
<g id="a_node32"><a xlink:title=" ">
<polygon fill="white" stroke="#bfbfbf" points="247.5,-67.5 247.5,-86.5 345.5,-86.5 345.5,-67.5 247.5,-67.5"/>
<text text-anchor="middle" x="296.5" y="-74.5" font-family="Helvetica,sans-Serif" font-size="10.00">pcg_random.hpp</text>
</a>
</g>
</g>
<!-- Node22&#45;&gt;Node32 -->
<g id="edge31" class="edge">
<title>Node22&#45;&gt;Node32</title>
<path fill="none" stroke="midnightblue" d="M717.48,-136.82C710.83,-135.82 703.97,-134.84 697.5,-134 545.5,-114.24 504.14,-131.2 354.5,-98 345.43,-95.99 335.82,-93.03 327.07,-90"/>
<polygon fill="midnightblue" stroke="midnightblue" points="328.24,-86.7 317.65,-86.59 325.87,-93.28 328.24,-86.7"/>
</g>
<!-- Node33 -->
<g id="node33" class="node">
<title>Node33</title>
<g id="a_node33"><a xlink:title=" ">
<polygon fill="white" stroke="#bfbfbf" points="363.5,-67.5 363.5,-86.5 449.5,-86.5 449.5,-67.5 363.5,-67.5"/>
<text text-anchor="middle" x="406.5" y="-74.5" font-family="Helvetica,sans-Serif" font-size="10.00">fmt/ostream.h</text>
</a>
</g>
</g>
<!-- Node22&#45;&gt;Node33 -->
<g id="edge32" class="edge">
<title>Node22&#45;&gt;Node33</title>
<path fill="none" stroke="midnightblue" d="M717.44,-137.07C710.79,-136.04 703.95,-134.99 697.5,-134 591.31,-117.76 562.36,-125.44 458.5,-98 450.83,-95.97 442.73,-93.19 435.27,-90.35"/>
<polygon fill="midnightblue" stroke="midnightblue" points="436.51,-87.07 425.92,-86.63 433.92,-93.57 436.51,-87.07"/>
</g>
<!-- Node34 -->
<g id="node34" class="node">
<title>Node34</title>
<g id="a_node34"><a xlink:title=" ">
<polygon fill="white" stroke="#bfbfbf" points="467.5,-62 467.5,-92 573.5,-92 573.5,-62 467.5,-62"/>
<text text-anchor="start" x="475.5" y="-80" font-family="Helvetica,sans-Serif" font-size="10.00">spdlog/sinks/basic</text>
<text text-anchor="middle" x="520.5" y="-69" font-family="Helvetica,sans-Serif" font-size="10.00">_file_sink.h</text>
</a>
</g>
</g>
<!-- Node22&#45;&gt;Node34 -->
<g id="edge33" class="edge">
<title>Node22&#45;&gt;Node34</title>
<path fill="none" stroke="midnightblue" d="M720.76,-134.47C685.92,-125.78 630.79,-111.68 583.5,-98 580.2,-97.05 576.82,-96.04 573.41,-95.01"/>
<polygon fill="midnightblue" stroke="midnightblue" points="574.38,-91.65 563.79,-92.07 572.33,-98.34 574.38,-91.65"/>
</g>
<!-- Node35 -->
<g id="node35" class="node">
<title>Node35</title>
<g id="a_node35"><a xlink:title=" ">
<polygon fill="white" stroke="#bfbfbf" points="592,-62 592,-92 703,-92 703,-62 592,-62"/>
<text text-anchor="start" x="600" y="-80" font-family="Helvetica,sans-Serif" font-size="10.00">spdlog/sinks/stdout</text>
<text text-anchor="middle" x="647.5" y="-69" font-family="Helvetica,sans-Serif" font-size="10.00">_color_sinks.h</text>
</a>
</g>
</g>
<!-- Node22&#45;&gt;Node35 -->
<g id="edge34" class="edge">
<title>Node22&#45;&gt;Node35</title>
<path fill="none" stroke="midnightblue" d="M740.93,-134.23C725.29,-124.82 699.92,-109.55 679.57,-97.3"/>
<polygon fill="midnightblue" stroke="midnightblue" points="681.28,-94.25 670.91,-92.09 677.67,-100.24 681.28,-94.25"/>
</g>
<!-- Node36&#45;&gt;Node9 -->
<g id="edge39" class="edge">
<title>Node36&#45;&gt;Node9</title>
<path fill="none" stroke="midnightblue" d="M682.69,-190.44C728.25,-180.24 803.88,-163.29 848.78,-153.23"/>
<polygon fill="midnightblue" stroke="midnightblue" points="849.69,-156.61 858.68,-151.01 848.16,-149.78 849.69,-156.61"/>
</g>
<!-- Node36&#45;&gt;Node19 -->
<g id="edge42" class="edge">
<title>Node36&#45;&gt;Node19</title>
<path fill="none" stroke="midnightblue" d="M678.76,-190.48C711.01,-182.18 760.5,-168.68 802.5,-154 824.32,-146.38 828.08,-139.62 850.5,-134 1011.62,-93.61 1061.38,-138.39 1222.5,-98 1229.68,-96.2 1237.18,-93.5 1244.06,-90.67"/>
<polygon fill="midnightblue" stroke="midnightblue" points="1245.83,-93.71 1253.59,-86.5 1243.03,-87.3 1245.83,-93.71"/>
</g>
<!-- Node36&#45;&gt;Node22 -->
<g id="edge43" class="edge">
<title>Node36&#45;&gt;Node22</title>
<path fill="none" stroke="midnightblue" d="M662.33,-190.32C680.22,-181.62 707.98,-168.12 728.55,-158.11"/>
<polygon fill="midnightblue" stroke="midnightblue" points="730.25,-161.18 737.71,-153.65 727.19,-154.88 730.25,-161.18"/>
</g>
<!-- Node36&#45;&gt;Node28 -->
<g id="edge41" class="edge">
<title>Node36&#45;&gt;Node28</title>
<path fill="none" stroke="midnightblue" d="M629.77,-190.3C604.63,-175.9 551.4,-147.38 502.5,-134 355.08,-93.66 303.85,-151.03 160.5,-98 156.78,-96.62 153.09,-94.66 149.64,-92.5"/>
<polygon fill="midnightblue" stroke="midnightblue" points="151.45,-89.49 141.27,-86.57 147.41,-95.21 151.45,-89.49"/>
</g>
<!-- Node37 -->
<g id="node37" class="node">
<title>Node37</title>
<g id="a_node37"><a xlink:title=" ">
<polygon fill="white" stroke="#bfbfbf" points="578.5,-134.5 578.5,-153.5 620.5,-153.5 620.5,-134.5 578.5,-134.5"/>
<text text-anchor="middle" x="599.5" y="-141.5" font-family="Helvetica,sans-Serif" font-size="10.00">array</text>
</a>
</g>
</g>
<!-- Node36&#45;&gt;Node37 -->
<g id="edge38" class="edge">
<title>Node36&#45;&gt;Node37</title>
<path fill="none" stroke="midnightblue" d="M637.07,-190.08C630.65,-182.38 621.19,-171.03 613.38,-161.65"/>
<polygon fill="midnightblue" stroke="midnightblue" points="615.88,-159.19 606.79,-153.75 610.51,-163.67 615.88,-159.19"/>
</g>
<!-- Node38 -->
<g id="node38" class="node">
<title>Node38</title>
<g id="a_node38"><a xlink:title=" ">
<polygon fill="white" stroke="#bfbfbf" points="638.5,-134.5 638.5,-153.5 688.5,-153.5 688.5,-134.5 638.5,-134.5"/>
<text text-anchor="middle" x="663.5" y="-141.5" font-family="Helvetica,sans-Serif" font-size="10.00">gsl/util</text>
</a>
</g>
</g>
<!-- Node36&#45;&gt;Node38 -->
<g id="edge40" class="edge">
<title>Node36&#45;&gt;Node38</title>
<path fill="none" stroke="midnightblue" d="M647.64,-190.08C650.18,-182.85 653.86,-172.41 657.03,-163.4"/>
<polygon fill="midnightblue" stroke="midnightblue" points="660.4,-164.35 660.42,-153.75 653.8,-162.02 660.4,-164.35"/>
</g>
</g>
</svg>
