<?xml version="1.0" encoding="UTF-8" standalone="no"?>
<!DOCTYPE svg PUBLIC "-//W3C//DTD SVG 1.1//EN"
 "http://www.w3.org/Graphics/SVG/1.1/DTD/svg11.dtd">
<!-- Generated by graphviz version 2.43.0 (0)
 -->
<!-- Title: src/bistellar&#45;flip.cpp Pages: 1 -->
<!--zoomable 442 -->
<svg id="main" version="1.1" xmlns="http://www.w3.org/2000/svg" xmlns:xlink="http://www.w3.org/1999/xlink" xml:space="preserve" onload="init(evt)">
<style type="text/css"><![CDATA[
.edge:hover path { stroke: red; }
.edge:hover polygon { stroke: red; fill: red; }
]]></style>
<script type="text/javascript"><![CDATA[
var edges = document.getElementsByTagName('g');
if (edges && edges.length) {
  for (var i=0;i<edges.length;i++) {
    if (edges[i].id.substr(0,4)=='edge') {
      edges[i].setAttribute('class','edge');
    }
  }
}
]]></script>
        <defs>
                <circle id="rim" cx="0" cy="0" r="7"/>
                <circle id="rim2" cx="0" cy="0" r="3.5"/>
                <g id="zoomPlus">
                        <use xlink:href="#rim" fill="#404040">
                                <set attributeName="fill" to="#808080" begin="zoomplus.mouseover" end="zoomplus.mouseout"/>
                        </use>
                        <path d="M-4,0h8M0,-4v8" fill="none" stroke="white" stroke-width="1.5" pointer-events="none"/>
                </g>
                <g id="zoomMin">
                        <use xlink:href="#rim" fill="#404040">
                                <set attributeName="fill" to="#808080" begin="zoomminus.mouseover" end="zoomminus.mouseout"/>
                        </use>
                        <path d="M-4,0h8" fill="none" stroke="white" stroke-width="1.5" pointer-events="none"/>
                </g>
                <g id="dirArrow">
                        <path fill="none" stroke="white" stroke-width="1.5" d="M0,-3.0v7 M-2.5,-0.5L0,-3.0L2.5,-0.5"/>
                </g>
               <g id="resetDef">
                       <use xlink:href="#rim2" fill="#404040">
                               <set attributeName="fill" to="#808080" begin="reset.mouseover" end="reset.mouseout"/>
                       </use>
               </g>
        </defs>

<script type="text/javascript">
var viewWidth = 2775;
var viewHeight = 442;
var sectionId = 'dynsection-0';
</script>
<script xlink:href="svgpan.js"/>
<svg id="graph" class="graph">
<g id="viewport">
<title>src/bistellar&#45;flip.cpp</title>
<polygon fill="white" stroke="transparent" points="-4,4 -4,-438 2770.5,-438 2770.5,4 -4,4"/>
<!-- Node1 -->
<g id="node1" class="node">
<title>Node1</title>
<g id="a_node1"><a xlink:title="Tests and views bistellar flips.">
<polygon fill="#bfbfbf" stroke="black" points="625,-414.5 625,-433.5 738,-433.5 738,-414.5 625,-414.5"/>
<text text-anchor="middle" x="681.5" y="-421.5" font-family="Helvetica,sans-Serif" font-size="10.00">src/bistellar&#45;flip.cpp</text>
</a>
</g>
</g>
<!-- Node2 -->
<g id="node2" class="node">
<title>Node2</title>
<g id="a_node2"><a xlink:title=" ">
<polygon fill="white" stroke="#bfbfbf" points="439,-358.5 439,-377.5 534,-377.5 534,-358.5 439,-358.5"/>
<text text-anchor="middle" x="486.5" y="-365.5" font-family="Helvetica,sans-Serif" font-size="10.00">docopt/docopt.h</text>
</a>
</g>
</g>
<!-- Node1&#45;&gt;Node2 -->
<g id="edge1" class="edge">
<title>Node1&#45;&gt;Node2</title>
<path fill="none" stroke="midnightblue" d="M650.6,-414.44C617.23,-405.2 563.91,-390.44 527.15,-380.26"/>
<polygon fill="midnightblue" stroke="midnightblue" points="527.83,-376.81 517.25,-377.52 525.96,-383.56 527.83,-376.81"/>
</g>
<!-- Node3 -->
<g id="node3" class="node">
<title>Node3</title>
<g id="a_node3"><a xlink:title=" ">
<polygon fill="white" stroke="#bfbfbf" points="552,-358.5 552,-377.5 653,-377.5 653,-358.5 552,-358.5"/>
<text text-anchor="middle" x="602.5" y="-365.5" font-family="Helvetica,sans-Serif" font-size="10.00">doctest/doctest.h</text>
</a>
</g>
</g>
<!-- Node1&#45;&gt;Node3 -->
<g id="edge2" class="edge">
<title>Node1&#45;&gt;Node3</title>
<path fill="none" stroke="midnightblue" d="M668.81,-414.32C656.6,-405.98 637.92,-393.21 623.5,-383.35"/>
<polygon fill="midnightblue" stroke="midnightblue" points="625.39,-380.41 615.16,-377.65 621.44,-386.19 625.39,-380.41"/>
</g>
<!-- Node4 -->
<g id="node4" class="node">
<title>Node4</title>
<g id="a_node4"><a xlink:title=" ">
<polygon fill="white" stroke="#bfbfbf" points="0,-67.5 0,-86.5 93,-86.5 93,-67.5 0,-67.5"/>
<text text-anchor="middle" x="46.5" y="-74.5" font-family="Helvetica,sans-Serif" font-size="10.00">spdlog/spdlog.h</text>
</a>
</g>
</g>
<!-- Node1&#45;&gt;Node4 -->
<g id="edge3" class="edge">
<title>Node1&#45;&gt;Node4</title>
<path fill="none" stroke="midnightblue" d="M681.5,-414.44C681.5,-395.94 681.5,-350.81 681.5,-313 681.5,-313 681.5,-313 681.5,-199 681.5,-68.39 228.79,-131.31 102.5,-98 94.2,-95.81 85.38,-92.93 77.25,-90.04"/>
<polygon fill="midnightblue" stroke="midnightblue" points="78.36,-86.72 67.77,-86.56 75.95,-93.29 78.36,-86.72"/>
</g>
<!-- Node5 -->
<g id="node5" class="node">
<title>Node5</title>
<g id="a_node5"><a xlink:title=" ">
<polygon fill="white" stroke="#bfbfbf" points="1793,-358.5 1793,-377.5 1852,-377.5 1852,-358.5 1793,-358.5"/>
<text text-anchor="middle" x="1822.5" y="-365.5" font-family="Helvetica,sans-Serif" font-size="10.00">numbers</text>
</a>
</g>
</g>
<!-- Node1&#45;&gt;Node5 -->
<g id="edge4" class="edge">
<title>Node1&#45;&gt;Node5</title>
<path fill="none" stroke="midnightblue" d="M738.17,-422.12C930.73,-418.93 1559.77,-406.61 1782.74,-377.95"/>
<polygon fill="midnightblue" stroke="midnightblue" points="1783.28,-381.41 1792.73,-376.62 1782.36,-374.47 1783.28,-381.41"/>
</g>
<!-- Node6 -->
<g id="node6" class="node">
<title>Node6</title>
<g id="a_node6"><a xlink:href="_ergodic__moves__3_8hpp.html" target="_top" xlink:title="Pachner moves on 2+1 dimensional foliated Delaunay triangulations.">
<polygon fill="white" stroke="black" points="1652,-358.5 1652,-377.5 1775,-377.5 1775,-358.5 1652,-358.5"/>
<text text-anchor="middle" x="1713.5" y="-365.5" font-family="Helvetica,sans-Serif" font-size="10.00">Ergodic_moves_3.hpp</text>
</a>
</g>
</g>
<!-- Node1&#45;&gt;Node6 -->
<g id="edge5" class="edge">
<title>Node1&#45;&gt;Node6</title>
<path fill="none" stroke="midnightblue" d="M738.09,-420.04C913.39,-410.87 1447.29,-382.93 1641.71,-372.76"/>
<polygon fill="midnightblue" stroke="midnightblue" points="1642.02,-376.25 1651.82,-372.23 1641.65,-369.25 1642.02,-376.25"/>
</g>
<!-- Node7 -->
<g id="node7" class="node">
<title>Node7</title>
<g id="a_node7"><a xlink:title=" ">
<polygon fill="white" stroke="#bfbfbf" points="1845.5,-302.5 1845.5,-321.5 1937.5,-321.5 1937.5,-302.5 1845.5,-302.5"/>
<text text-anchor="middle" x="1891.5" y="-309.5" font-family="Helvetica,sans-Serif" font-size="10.00">tl/expected.hpp</text>
</a>
</g>
</g>
<!-- Node6&#45;&gt;Node7 -->
<g id="edge6" class="edge">
<title>Node6&#45;&gt;Node7</title>
<path fill="none" stroke="midnightblue" d="M1741.7,-358.44C1771.91,-349.28 1820.01,-334.69 1853.53,-324.52"/>
<polygon fill="midnightblue" stroke="midnightblue" points="1854.87,-327.77 1863.43,-321.52 1852.84,-321.07 1854.87,-327.77"/>
</g>
<!-- Node8 -->
<g id="node8" class="node">
<title>Node8</title>
<g id="a_node8"><a xlink:href="_manifold_8hpp.html" target="_top" xlink:title="Data structures for manifolds.">
<polygon fill="white" stroke="black" points="1747.5,-302.5 1747.5,-321.5 1827.5,-321.5 1827.5,-302.5 1747.5,-302.5"/>
<text text-anchor="middle" x="1787.5" y="-309.5" font-family="Helvetica,sans-Serif" font-size="10.00">Manifold.hpp</text>
</a>
</g>
</g>
<!-- Node6&#45;&gt;Node8 -->
<g id="edge7" class="edge">
<title>Node6&#45;&gt;Node8</title>
<path fill="none" stroke="midnightblue" d="M1725.39,-358.32C1736.65,-350.11 1753.79,-337.6 1767.21,-327.81"/>
<polygon fill="midnightblue" stroke="midnightblue" points="1769.38,-330.56 1775.39,-321.83 1765.25,-324.9 1769.38,-330.56"/>
</g>
<!-- Node46 -->
<g id="node46" class="node">
<title>Node46</title>
<g id="a_node46"><a xlink:href="_move__tracker_8hpp.html" target="_top" xlink:title="Track ergodic moves.">
<polygon fill="white" stroke="black" points="1662,-190.5 1662,-209.5 1765,-209.5 1765,-190.5 1662,-190.5"/>
<text text-anchor="middle" x="1713.5" y="-197.5" font-family="Helvetica,sans-Serif" font-size="10.00">Move_tracker.hpp</text>
</a>
</g>
</g>
<!-- Node6&#45;&gt;Node46 -->
<g id="edge47" class="edge">
<title>Node6&#45;&gt;Node46</title>
<path fill="none" stroke="midnightblue" d="M1713.5,-358.08C1713.5,-331.95 1713.5,-255.21 1713.5,-219.58"/>
<polygon fill="midnightblue" stroke="midnightblue" points="1717,-219.57 1713.5,-209.57 1710,-219.57 1717,-219.57"/>
</g>
<!-- Node9 -->
<g id="node9" class="node">
<title>Node9</title>
<g id="a_node9"><a xlink:title=" ">
<polygon fill="white" stroke="#bfbfbf" points="1882,-134.5 1882,-153.5 1935,-153.5 1935,-134.5 1882,-134.5"/>
<text text-anchor="middle" x="1908.5" y="-141.5" font-family="Helvetica,sans-Serif" font-size="10.00">cstddef</text>
</a>
</g>
</g>
<!-- Node8&#45;&gt;Node9 -->
<g id="edge8" class="edge">
<title>Node8&#45;&gt;Node9</title>
<path fill="none" stroke="midnightblue" d="M1789.73,-302.08C1793.24,-289.06 1800.87,-264.4 1812.5,-246 1834.29,-211.52 1869.03,-178.64 1890.2,-160.22"/>
<polygon fill="midnightblue" stroke="midnightblue" points="1892.52,-162.83 1897.85,-153.67 1887.98,-157.51 1892.52,-162.83"/>
</g>
<!-- Node10 -->
<g id="node10" class="node">
<title>Node10</title>
<g id="a_node10"><a xlink:title=" ">
<polygon fill="white" stroke="#bfbfbf" points="1821.5,-246.5 1821.5,-265.5 1907.5,-265.5 1907.5,-246.5 1821.5,-246.5"/>
<text text-anchor="middle" x="1864.5" y="-253.5" font-family="Helvetica,sans-Serif" font-size="10.00">unordered_set</text>
</a>
</g>
</g>
<!-- Node8&#45;&gt;Node10 -->
<g id="edge9" class="edge">
<title>Node8&#45;&gt;Node10</title>
<path fill="none" stroke="midnightblue" d="M1799.87,-302.32C1811.66,-294.06 1829.63,-281.45 1843.64,-271.63"/>
<polygon fill="midnightblue" stroke="midnightblue" points="1845.98,-274.26 1852.16,-265.65 1841.96,-268.53 1845.98,-274.26"/>
</g>
<!-- Node11 -->
<g id="node11" class="node">
<title>Node11</title>
<g id="a_node11"><a xlink:title=" ">
<polygon fill="white" stroke="#bfbfbf" points="1926,-246.5 1926,-265.5 1971,-265.5 1971,-246.5 1926,-246.5"/>
<text text-anchor="middle" x="1948.5" y="-253.5" font-family="Helvetica,sans-Serif" font-size="10.00">utility</text>
</a>
</g>
</g>
<!-- Node8&#45;&gt;Node11 -->
<g id="edge10" class="edge">
<title>Node8&#45;&gt;Node11</title>
<path fill="none" stroke="midnightblue" d="M1813.01,-302.44C1840.97,-293.07 1885.89,-278 1916.27,-267.81"/>
<polygon fill="midnightblue" stroke="midnightblue" points="1917.6,-271.06 1925.97,-264.56 1915.37,-264.42 1917.6,-271.06"/>
</g>
<!-- Node12 -->
<g id="node12" class="node">
<title>Node12</title>
<g id="a_node12"><a xlink:href="_geometry_8hpp.html" target="_top" xlink:title="Geometric scalars of the Manifold used to calculate the Regge action.">
<polygon fill="white" stroke="black" points="1552,-246.5 1552,-265.5 1637,-265.5 1637,-246.5 1552,-246.5"/>
<text text-anchor="middle" x="1594.5" y="-253.5" font-family="Helvetica,sans-Serif" font-size="10.00">Geometry.hpp</text>
</a>
</g>
</g>
<!-- Node8&#45;&gt;Node12 -->
<g id="edge11" class="edge">
<title>Node8&#45;&gt;Node12</title>
<path fill="none" stroke="midnightblue" d="M1756.92,-302.44C1723.89,-293.2 1671.11,-278.44 1634.73,-268.26"/>
<polygon fill="midnightblue" stroke="midnightblue" points="1635.51,-264.84 1624.94,-265.52 1633.63,-271.58 1635.51,-264.84"/>
</g>
<!-- Node13 -->
<g id="node13" class="node">
<title>Node13</title>
<g id="a_node13"><a xlink:href="_foliated__triangulation_8hpp.html" target="_top" xlink:title="Create foliated spherical triangulations.">
<polygon fill="white" stroke="black" points="1475.5,-190.5 1475.5,-209.5 1619.5,-209.5 1619.5,-190.5 1475.5,-190.5"/>
<text text-anchor="middle" x="1547.5" y="-197.5" font-family="Helvetica,sans-Serif" font-size="10.00">Foliated_triangulation.hpp</text>
</a>
</g>
</g>
<!-- Node12&#45;&gt;Node13 -->
<g id="edge12" class="edge">
<title>Node12&#45;&gt;Node13</title>
<path fill="none" stroke="midnightblue" d="M1586.74,-246.08C1579.96,-238.3 1569.96,-226.8 1561.74,-217.37"/>
<polygon fill="midnightblue" stroke="midnightblue" points="1564.32,-215 1555.12,-209.75 1559.04,-219.59 1564.32,-215"/>
</g>
<!-- Node14 -->
<g id="node14" class="node">
<title>Node14</title>
<g id="a_node14"><a xlink:title=" ">
<polygon fill="white" stroke="#bfbfbf" points="1505.5,-134.5 1505.5,-153.5 1565.5,-153.5 1565.5,-134.5 1505.5,-134.5"/>
<text text-anchor="middle" x="1535.5" y="-141.5" font-family="Helvetica,sans-Serif" font-size="10.00">concepts</text>
</a>
</g>
</g>
<!-- Node13&#45;&gt;Node14 -->
<g id="edge13" class="edge">
<title>Node13&#45;&gt;Node14</title>
<path fill="none" stroke="midnightblue" d="M1545.52,-190.08C1543.93,-182.93 1541.64,-172.64 1539.65,-163.69"/>
<polygon fill="midnightblue" stroke="midnightblue" points="1543.03,-162.75 1537.44,-153.75 1536.2,-164.27 1543.03,-162.75"/>
</g>
<!-- Node15 -->
<g id="node15" class="node">
<title>Node15</title>
<g id="a_node15"><a xlink:href="_triangulation__traits_8hpp.html" target="_top" xlink:title="Traits class for particular uses of CGAL.">
<polygon fill="white" stroke="black" points="710,-134.5 710,-153.5 841,-153.5 841,-134.5 710,-134.5"/>
<text text-anchor="middle" x="775.5" y="-141.5" font-family="Helvetica,sans-Serif" font-size="10.00">Triangulation_traits.hpp</text>
</a>
</g>
</g>
<!-- Node13&#45;&gt;Node15 -->
<g id="edge14" class="edge">
<title>Node13&#45;&gt;Node15</title>
<path fill="none" stroke="midnightblue" d="M1475.22,-193.94C1329.26,-183.73 1000.57,-160.74 851.54,-150.32"/>
<polygon fill="midnightblue" stroke="midnightblue" points="851.34,-146.8 841.12,-149.59 850.85,-153.78 851.34,-146.8"/>
</g>
<!-- Node24 -->
<g id="node24" class="node">
<title>Node24</title>
<g id="a_node24"><a xlink:href="_utilities_8hpp.html" target="_top" xlink:title="Utility functions.">
<polygon fill="white" stroke="black" points="1621.5,-134.5 1621.5,-153.5 1697.5,-153.5 1697.5,-134.5 1621.5,-134.5"/>
<text text-anchor="middle" x="1659.5" y="-141.5" font-family="Helvetica,sans-Serif" font-size="10.00">Utilities.hpp</text>
</a>
</g>
</g>
<!-- Node13&#45;&gt;Node24 -->
<g id="edge23" class="edge">
<title>Node13&#45;&gt;Node24</title>
<path fill="none" stroke="midnightblue" d="M1565.49,-190.32C1583.54,-181.62 1611.55,-168.12 1632.3,-158.11"/>
<polygon fill="midnightblue" stroke="midnightblue" points="1634.06,-161.15 1641.55,-153.65 1631.02,-154.84 1634.06,-161.15"/>
</g>
<!-- Node16 -->
<g id="node16" class="node">
<title>Node16</title>
<g id="a_node16"><a xlink:title=" ">
<polygon fill="white" stroke="#bfbfbf" points="111.5,-67.5 111.5,-86.5 291.5,-86.5 291.5,-67.5 111.5,-67.5"/>
<text text-anchor="middle" x="201.5" y="-74.5" font-family="Helvetica,sans-Serif" font-size="10.00">CGAL/Delaunay_triangulation_3.h</text>
</a>
</g>
</g>
<!-- Node15&#45;&gt;Node16 -->
<g id="edge15" class="edge">
<title>Node15&#45;&gt;Node16</title>
<path fill="none" stroke="midnightblue" d="M709.59,-135.47C704.82,-134.96 700.09,-134.47 695.5,-134 520.12,-116.15 474.93,-123.49 300.5,-98 283.55,-95.52 265.11,-92.02 248.79,-88.64"/>
<polygon fill="midnightblue" stroke="midnightblue" points="249.45,-85.2 238.94,-86.56 248,-92.05 249.45,-85.2"/>
</g>
<!-- Node17 -->
<g id="node17" class="node">
<title>Node17</title>
<g id="a_node17"><a xlink:title=" ">
<polygon fill="white" stroke="#bfbfbf" points="310,-56.5 310,-97.5 439,-97.5 439,-56.5 310,-56.5"/>
<text text-anchor="start" x="318" y="-85.5" font-family="Helvetica,sans-Serif" font-size="10.00">CGAL/Exact_predicates</text>
<text text-anchor="start" x="318" y="-74.5" font-family="Helvetica,sans-Serif" font-size="10.00">_inexact_constructions</text>
<text text-anchor="middle" x="374.5" y="-63.5" font-family="Helvetica,sans-Serif" font-size="10.00">_kernel.h</text>
</a>
</g>
</g>
<!-- Node15&#45;&gt;Node17 -->
<g id="edge16" class="edge">
<title>Node15&#45;&gt;Node17</title>
<path fill="none" stroke="midnightblue" d="M709.78,-135.02C633.3,-125.56 510.56,-109.81 449.27,-98.19"/>
<polygon fill="midnightblue" stroke="midnightblue" points="449.76,-94.72 439.27,-96.22 448.41,-101.59 449.76,-94.72"/>
</g>
<!-- Node18 -->
<g id="node18" class="node">
<title>Node18</title>
<g id="a_node18"><a xlink:title=" ">
<polygon fill="white" stroke="#bfbfbf" points="457,-67.5 457,-86.5 606,-86.5 606,-67.5 457,-67.5"/>
<text text-anchor="middle" x="531.5" y="-74.5" font-family="Helvetica,sans-Serif" font-size="10.00">CGAL/point_generators_3.h</text>
</a>
</g>
</g>
<!-- Node15&#45;&gt;Node18 -->
<g id="edge17" class="edge">
<title>Node15&#45;&gt;Node18</title>
<path fill="none" stroke="midnightblue" d="M743.35,-134.44C699.74,-122.82 621.75,-102.04 573.53,-89.2"/>
<polygon fill="midnightblue" stroke="midnightblue" points="574.28,-85.78 563.72,-86.58 572.48,-92.54 574.28,-85.78"/>
</g>
<!-- Node19 -->
<g id="node19" class="node">
<title>Node19</title>
<g id="a_node19"><a xlink:title=" ">
<polygon fill="white" stroke="#bfbfbf" points="624.5,-62 624.5,-92 762.5,-92 762.5,-62 624.5,-62"/>
<text text-anchor="start" x="632.5" y="-80" font-family="Helvetica,sans-Serif" font-size="10.00">CGAL/Triangulation</text>
<text text-anchor="middle" x="693.5" y="-69" font-family="Helvetica,sans-Serif" font-size="10.00">_cell_base_with_info_3.h</text>
</a>
</g>
</g>
<!-- Node15&#45;&gt;Node19 -->
<g id="edge18" class="edge">
<title>Node15&#45;&gt;Node19</title>
<path fill="none" stroke="midnightblue" d="M764.44,-134.23C752.93,-125.11 734.5,-110.5 719.31,-98.46"/>
<polygon fill="midnightblue" stroke="midnightblue" points="721.28,-95.56 711.27,-92.09 716.94,-101.04 721.28,-95.56"/>
</g>
<!-- Node20 -->
<g id="node20" class="node">
<title>Node20</title>
<g id="a_node20"><a xlink:title=" ">
<polygon fill="white" stroke="#bfbfbf" points="780.5,-62 780.5,-92 932.5,-92 932.5,-62 780.5,-62"/>
<text text-anchor="start" x="788.5" y="-80" font-family="Helvetica,sans-Serif" font-size="10.00">CGAL/Triangulation</text>
<text text-anchor="middle" x="856.5" y="-69" font-family="Helvetica,sans-Serif" font-size="10.00">_vertex_base_with_info_3.h</text>
</a>
</g>
</g>
<!-- Node15&#45;&gt;Node20 -->
<g id="edge19" class="edge">
<title>Node15&#45;&gt;Node20</title>
<path fill="none" stroke="midnightblue" d="M786.42,-134.23C797.79,-125.11 816,-110.5 831,-98.46"/>
<polygon fill="midnightblue" stroke="midnightblue" points="833.33,-101.08 838.94,-92.09 828.95,-95.62 833.33,-101.08"/>
</g>
<!-- Node21 -->
<g id="node21" class="node">
<title>Node21</title>
<g id="a_node21"><a xlink:href="_settings_8hpp.html" target="_top" xlink:title="Global integer and precision settings.">
<polygon fill="white" stroke="black" points="951,-67.5 951,-86.5 1028,-86.5 1028,-67.5 951,-67.5"/>
<text text-anchor="middle" x="989.5" y="-74.5" font-family="Helvetica,sans-Serif" font-size="10.00">Settings.hpp</text>
</a>
</g>
</g>
<!-- Node15&#45;&gt;Node21 -->
<g id="edge20" class="edge">
<title>Node15&#45;&gt;Node21</title>
<path fill="none" stroke="midnightblue" d="M812.51,-134.43C846.43,-126.24 897.85,-112.94 941.5,-98 947.89,-95.81 954.64,-93.2 961,-90.59"/>
<polygon fill="midnightblue" stroke="midnightblue" points="962.71,-93.67 970.57,-86.56 959.99,-87.22 962.71,-93.67"/>
</g>
<!-- Node22 -->
<g id="node22" class="node">
<title>Node22</title>
<g id="a_node22"><a xlink:title=" ">
<polygon fill="white" stroke="#bfbfbf" points="862.5,-0.5 862.5,-19.5 1002.5,-19.5 1002.5,-0.5 862.5,-0.5"/>
<text text-anchor="middle" x="932.5" y="-7.5" font-family="Helvetica,sans-Serif" font-size="10.00">CGAL/GMP/Gmpzf_type.h</text>
</a>
</g>
</g>
<!-- Node21&#45;&gt;Node22 -->
<g id="edge21" class="edge">
<title>Node21&#45;&gt;Node22</title>
<path fill="none" stroke="midnightblue" d="M981.81,-67.23C972.84,-57 957.81,-39.86 946.7,-27.19"/>
<polygon fill="midnightblue" stroke="midnightblue" points="949.29,-24.84 940.07,-19.63 944.03,-29.45 949.29,-24.84"/>
</g>
<!-- Node23 -->
<g id="node23" class="node">
<title>Node23</title>
<g id="a_node23"><a xlink:title=" ">
<polygon fill="white" stroke="#bfbfbf" points="1020.5,-0.5 1020.5,-19.5 1070.5,-19.5 1070.5,-0.5 1020.5,-0.5"/>
<text text-anchor="middle" x="1045.5" y="-7.5" font-family="Helvetica,sans-Serif" font-size="10.00">cstdint</text>
</a>
</g>
</g>
<!-- Node21&#45;&gt;Node23 -->
<g id="edge22" class="edge">
<title>Node21&#45;&gt;Node23</title>
<path fill="none" stroke="midnightblue" d="M997.05,-67.23C1005.78,-57.1 1020.35,-40.19 1031.24,-27.56"/>
<polygon fill="midnightblue" stroke="midnightblue" points="1034.19,-29.49 1038.07,-19.63 1028.89,-24.92 1034.19,-29.49"/>
</g>
<!-- Node24&#45;&gt;Node4 -->
<g id="edge45" class="edge">
<title>Node24&#45;&gt;Node4</title>
<path fill="none" stroke="midnightblue" d="M1621.47,-138.31C1606.82,-136.68 1589.9,-135 1574.5,-134 1247.98,-112.76 424.2,-157.78 102.5,-98 93.45,-96.32 83.92,-93.38 75.33,-90.27"/>
<polygon fill="midnightblue" stroke="midnightblue" points="76.36,-86.92 65.77,-86.6 73.85,-93.45 76.36,-86.92"/>
</g>
<!-- Node24&#45;&gt;Node21 -->
<g id="edge46" class="edge">
<title>Node24&#45;&gt;Node21</title>
<path fill="none" stroke="midnightblue" d="M1621.23,-135.89C1616.62,-135.18 1611.96,-134.52 1607.5,-134 1354.96,-104.27 1283.93,-156.62 1036.5,-98 1029.43,-96.32 1022.06,-93.67 1015.32,-90.84"/>
<polygon fill="midnightblue" stroke="midnightblue" points="1016.55,-87.55 1006,-86.65 1013.69,-93.94 1016.55,-87.55"/>
</g>
<!-- Node25 -->
<g id="node25" class="node">
<title>Node25</title>
<g id="a_node25"><a xlink:title=" ">
<polygon fill="white" stroke="#bfbfbf" points="1046,-67.5 1046,-86.5 1129,-86.5 1129,-67.5 1046,-67.5"/>
<text text-anchor="middle" x="1087.5" y="-74.5" font-family="Helvetica,sans-Serif" font-size="10.00">CGAL/Timer.h</text>
</a>
</g>
</g>
<!-- Node24&#45;&gt;Node25 -->
<g id="edge24" class="edge">
<title>Node24&#45;&gt;Node25</title>
<path fill="none" stroke="midnightblue" d="M1621.22,-135.95C1616.61,-135.23 1611.95,-134.56 1607.5,-134 1400.05,-108.14 1342.28,-144.68 1138.5,-98 1130.64,-96.2 1122.38,-93.4 1114.86,-90.45"/>
<polygon fill="midnightblue" stroke="midnightblue" points="1116.07,-87.16 1105.5,-86.57 1113.4,-93.63 1116.07,-87.16"/>
</g>
<!-- Node26 -->
<g id="node26" class="node">
<title>Node26</title>
<g id="a_node26"><a xlink:title=" ">
<polygon fill="white" stroke="#bfbfbf" points="1147.5,-67.5 1147.5,-86.5 1211.5,-86.5 1211.5,-67.5 1147.5,-67.5"/>
<text text-anchor="middle" x="1179.5" y="-74.5" font-family="Helvetica,sans-Serif" font-size="10.00">algorithm</text>
</a>
</g>
</g>
<!-- Node24&#45;&gt;Node26 -->
<g id="edge25" class="edge">
<title>Node24&#45;&gt;Node26</title>
<path fill="none" stroke="midnightblue" d="M1621.5,-136.07C1616.79,-135.31 1612.04,-134.6 1607.5,-134 1436.26,-111.25 1386.83,-144.63 1220.5,-98 1214.54,-96.33 1208.4,-93.81 1202.74,-91.13"/>
<polygon fill="midnightblue" stroke="midnightblue" points="1204.29,-87.99 1193.79,-86.56 1201.11,-94.22 1204.29,-87.99"/>
</g>
<!-- Node27 -->
<g id="node27" class="node">
<title>Node27</title>
<g id="a_node27"><a xlink:title=" ">
<polygon fill="white" stroke="#bfbfbf" points="1229.5,-67.5 1229.5,-86.5 1281.5,-86.5 1281.5,-67.5 1229.5,-67.5"/>
<text text-anchor="middle" x="1255.5" y="-74.5" font-family="Helvetica,sans-Serif" font-size="10.00">cassert</text>
</a>
</g>
</g>
<!-- Node24&#45;&gt;Node27 -->
<g id="edge26" class="edge">
<title>Node24&#45;&gt;Node27</title>
<path fill="none" stroke="midnightblue" d="M1621.49,-136.16C1616.78,-135.39 1612.03,-134.65 1607.5,-134 1467.14,-113.9 1425.27,-142.08 1290.5,-98 1285.68,-96.42 1280.79,-94.14 1276.25,-91.67"/>
<polygon fill="midnightblue" stroke="midnightblue" points="1277.95,-88.61 1267.56,-86.52 1274.38,-94.63 1277.95,-88.61"/>
</g>
<!-- Node28 -->
<g id="node28" class="node">
<title>Node28</title>
<g id="a_node28"><a xlink:title=" ">
<polygon fill="white" stroke="#bfbfbf" points="1300,-67.5 1300,-86.5 1349,-86.5 1349,-67.5 1300,-67.5"/>
<text text-anchor="middle" x="1324.5" y="-74.5" font-family="Helvetica,sans-Serif" font-size="10.00">cstdlib</text>
</a>
</g>
</g>
<!-- Node24&#45;&gt;Node28 -->
<g id="edge27" class="edge">
<title>Node24&#45;&gt;Node28</title>
<path fill="none" stroke="midnightblue" d="M1621.46,-136.29C1616.76,-135.5 1612.02,-134.72 1607.5,-134 1497.07,-116.46 1464,-135.04 1358.5,-98 1354.02,-96.43 1349.47,-94.24 1345.22,-91.88"/>
<polygon fill="midnightblue" stroke="midnightblue" points="1346.9,-88.81 1336.53,-86.63 1343.28,-94.8 1346.9,-88.81"/>
</g>
<!-- Node29 -->
<g id="node29" class="node">
<title>Node29</title>
<g id="a_node29"><a xlink:title=" ">
<polygon fill="white" stroke="#bfbfbf" points="1367.5,-67.5 1367.5,-86.5 1435.5,-86.5 1435.5,-67.5 1367.5,-67.5"/>
<text text-anchor="middle" x="1401.5" y="-74.5" font-family="Helvetica,sans-Serif" font-size="10.00">filesystem</text>
</a>
</g>
</g>
<!-- Node24&#45;&gt;Node29 -->
<g id="edge28" class="edge">
<title>Node24&#45;&gt;Node29</title>
<path fill="none" stroke="midnightblue" d="M1621.2,-136.08C1568.58,-126.38 1476.8,-108.73 1444.5,-98 1438.69,-96.07 1432.64,-93.58 1426.96,-91.01"/>
<polygon fill="midnightblue" stroke="midnightblue" points="1428.42,-87.82 1417.88,-86.7 1425.42,-94.15 1428.42,-87.82"/>
</g>
<!-- Node30 -->
<g id="node30" class="node">
<title>Node30</title>
<g id="a_node30"><a xlink:title=" ">
<polygon fill="white" stroke="#bfbfbf" points="1454,-67.5 1454,-86.5 1509,-86.5 1509,-67.5 1454,-67.5"/>
<text text-anchor="middle" x="1481.5" y="-74.5" font-family="Helvetica,sans-Serif" font-size="10.00">fstream</text>
</a>
</g>
</g>
<!-- Node24&#45;&gt;Node30 -->
<g id="edge29" class="edge">
<title>Node24&#45;&gt;Node30</title>
<path fill="none" stroke="midnightblue" d="M1626.96,-134.48C1597.97,-126.46 1554.68,-113.39 1518.5,-98 1514.07,-96.12 1509.47,-93.88 1505.08,-91.59"/>
<polygon fill="midnightblue" stroke="midnightblue" points="1506.41,-88.33 1495.95,-86.63 1503.07,-94.48 1506.41,-88.33"/>
</g>
<!-- Node31 -->
<g id="node31" class="node">
<title>Node31</title>
<g id="a_node31"><a xlink:title=" ">
<polygon fill="white" stroke="#bfbfbf" points="1527.5,-67.5 1527.5,-86.5 1575.5,-86.5 1575.5,-67.5 1527.5,-67.5"/>
<text text-anchor="middle" x="1551.5" y="-74.5" font-family="Helvetica,sans-Serif" font-size="10.00">gsl/gsl</text>
</a>
</g>
</g>
<!-- Node24&#45;&gt;Node31 -->
<g id="edge30" class="edge">
<title>Node24&#45;&gt;Node31</title>
<path fill="none" stroke="midnightblue" d="M1645.11,-134.39C1630,-125.35 1605.57,-110.7 1584.5,-98 1581.21,-96.02 1577.73,-93.92 1574.33,-91.85"/>
<polygon fill="midnightblue" stroke="midnightblue" points="1575.99,-88.77 1565.62,-86.58 1572.36,-94.75 1575.99,-88.77"/>
</g>
<!-- Node32 -->
<g id="node32" class="node">
<title>Node32</title>
<g id="a_node32"><a xlink:title=" ">
<polygon fill="white" stroke="#bfbfbf" points="1593.5,-67.5 1593.5,-86.5 1653.5,-86.5 1653.5,-67.5 1593.5,-67.5"/>
<text text-anchor="middle" x="1623.5" y="-74.5" font-family="Helvetica,sans-Serif" font-size="10.00">iostream</text>
</a>
</g>
</g>
<!-- Node24&#45;&gt;Node32 -->
<g id="edge31" class="edge">
<title>Node24&#45;&gt;Node32</title>
<path fill="none" stroke="midnightblue" d="M1654.64,-134.23C1649.19,-124.39 1640.2,-108.16 1633.28,-95.66"/>
<polygon fill="midnightblue" stroke="midnightblue" points="1636.19,-93.68 1628.28,-86.63 1630.06,-97.07 1636.19,-93.68"/>
</g>
<!-- Node33 -->
<g id="node33" class="node">
<title>Node33</title>
<g id="a_node33"><a xlink:title=" ">
<polygon fill="white" stroke="#bfbfbf" points="1671.5,-67.5 1671.5,-86.5 1719.5,-86.5 1719.5,-67.5 1671.5,-67.5"/>
<text text-anchor="middle" x="1695.5" y="-74.5" font-family="Helvetica,sans-Serif" font-size="10.00">mutex</text>
</a>
</g>
</g>
<!-- Node24&#45;&gt;Node33 -->
<g id="edge32" class="edge">
<title>Node24&#45;&gt;Node33</title>
<path fill="none" stroke="midnightblue" d="M1664.36,-134.23C1669.81,-124.39 1678.8,-108.16 1685.72,-95.66"/>
<polygon fill="midnightblue" stroke="midnightblue" points="1688.94,-97.07 1690.72,-86.63 1682.81,-93.68 1688.94,-97.07"/>
</g>
<!-- Node34 -->
<g id="node34" class="node">
<title>Node34</title>
<g id="a_node34"><a xlink:title=" ">
<polygon fill="white" stroke="#bfbfbf" points="1737.5,-67.5 1737.5,-86.5 1791.5,-86.5 1791.5,-67.5 1737.5,-67.5"/>
<text text-anchor="middle" x="1764.5" y="-74.5" font-family="Helvetica,sans-Serif" font-size="10.00">random</text>
</a>
</g>
</g>
<!-- Node24&#45;&gt;Node34 -->
<g id="edge33" class="edge">
<title>Node24&#45;&gt;Node34</title>
<path fill="none" stroke="midnightblue" d="M1673.66,-134.23C1691.21,-123.37 1721.34,-104.72 1742.06,-91.89"/>
<polygon fill="midnightblue" stroke="midnightblue" points="1743.9,-94.87 1750.56,-86.63 1740.22,-88.91 1743.9,-94.87"/>
</g>
<!-- Node35 -->
<g id="node35" class="node">
<title>Node35</title>
<g id="a_node35"><a xlink:title=" ">
<polygon fill="white" stroke="#bfbfbf" points="2726.5,-67.5 2726.5,-86.5 2766.5,-86.5 2766.5,-67.5 2726.5,-67.5"/>
<text text-anchor="middle" x="2746.5" y="-74.5" font-family="Helvetica,sans-Serif" font-size="10.00">span</text>
</a>
</g>
</g>
<!-- Node24&#45;&gt;Node35 -->
<g id="edge34" class="edge">
<title>Node24&#45;&gt;Node35</title>
<path fill="none" stroke="midnightblue" d="M1697.76,-135.77C1702.37,-135.08 1707.03,-134.46 1711.5,-134 1822.75,-122.44 2611.32,-133.16 2717.5,-98 2721.44,-96.7 2725.32,-94.68 2728.91,-92.42"/>
<polygon fill="midnightblue" stroke="midnightblue" points="2730.98,-95.24 2737.06,-86.57 2726.9,-89.56 2730.98,-95.24"/>
</g>
<!-- Node36 -->
<g id="node36" class="node">
<title>Node36</title>
<g id="a_node36"><a xlink:title=" ">
<polygon fill="white" stroke="#bfbfbf" points="1810,-67.5 1810,-86.5 1875,-86.5 1875,-67.5 1810,-67.5"/>
<text text-anchor="middle" x="1842.5" y="-74.5" font-family="Helvetica,sans-Serif" font-size="10.00">stdexcept</text>
</a>
</g>
</g>
<!-- Node24&#45;&gt;Node36 -->
<g id="edge35" class="edge">
<title>Node24&#45;&gt;Node36</title>
<path fill="none" stroke="midnightblue" d="M1690.45,-134.43C1719.3,-126.14 1763.34,-112.7 1800.5,-98 1805.85,-95.88 1811.48,-93.4 1816.81,-90.91"/>
<polygon fill="midnightblue" stroke="midnightblue" points="1818.47,-93.99 1825.97,-86.51 1815.44,-87.68 1818.47,-93.99"/>
</g>
<!-- Node37 -->
<g id="node37" class="node">
<title>Node37</title>
<g id="a_node37"><a xlink:title=" ">
<polygon fill="white" stroke="#bfbfbf" points="1893.5,-67.5 1893.5,-86.5 1937.5,-86.5 1937.5,-67.5 1893.5,-67.5"/>
<text text-anchor="middle" x="1915.5" y="-74.5" font-family="Helvetica,sans-Serif" font-size="10.00">string</text>
</a>
</g>
</g>
<!-- Node24&#45;&gt;Node37 -->
<g id="edge36" class="edge">
<title>Node24&#45;&gt;Node37</title>
<path fill="none" stroke="midnightblue" d="M1697.88,-136.13C1757.53,-125.34 1867.43,-104.92 1884.5,-98 1888.33,-96.45 1892.2,-94.41 1895.84,-92.22"/>
<polygon fill="midnightblue" stroke="midnightblue" points="1897.84,-95.1 1904.29,-86.69 1894.01,-89.24 1897.84,-95.1"/>
</g>
<!-- Node38 -->
<g id="node38" class="node">
<title>Node38</title>
<g id="a_node38"><a xlink:title=" ">
<polygon fill="white" stroke="#bfbfbf" points="1956,-67.5 1956,-86.5 2021,-86.5 2021,-67.5 1956,-67.5"/>
<text text-anchor="middle" x="1988.5" y="-74.5" font-family="Helvetica,sans-Serif" font-size="10.00">typeindex</text>
</a>
</g>
</g>
<!-- Node24&#45;&gt;Node38 -->
<g id="edge37" class="edge">
<title>Node24&#45;&gt;Node38</title>
<path fill="none" stroke="midnightblue" d="M1697.54,-136.33C1702.24,-135.53 1706.98,-134.74 1711.5,-134 1815.78,-116.99 1845.5,-129.05 1946.5,-98 1952.43,-96.18 1958.59,-93.64 1964.3,-90.99"/>
<polygon fill="midnightblue" stroke="midnightblue" points="1965.95,-94.08 1973.38,-86.53 1962.86,-87.8 1965.95,-94.08"/>
</g>
<!-- Node39 -->
<g id="node39" class="node">
<title>Node39</title>
<g id="a_node39"><a xlink:title=" ">
<polygon fill="white" stroke="#bfbfbf" points="2039,-67.5 2039,-86.5 2098,-86.5 2098,-67.5 2039,-67.5"/>
<text text-anchor="middle" x="2068.5" y="-74.5" font-family="Helvetica,sans-Serif" font-size="10.00">date/tz.h</text>
</a>
</g>
</g>
<!-- Node24&#45;&gt;Node39 -->
<g id="edge38" class="edge">
<title>Node24&#45;&gt;Node39</title>
<path fill="none" stroke="midnightblue" d="M1697.51,-136.15C1702.22,-135.39 1706.97,-134.65 1711.5,-134 1852.74,-113.82 1894.13,-139.95 2030.5,-98 2035.8,-96.37 2041.22,-94 2046.26,-91.46"/>
<polygon fill="midnightblue" stroke="midnightblue" points="2048.22,-94.37 2055.31,-86.5 2044.86,-88.23 2048.22,-94.37"/>
</g>
<!-- Node40 -->
<g id="node40" class="node">
<title>Node40</title>
<g id="a_node40"><a xlink:title=" ">
<polygon fill="white" stroke="#bfbfbf" points="2116.5,-67.5 2116.5,-86.5 2166.5,-86.5 2166.5,-67.5 2116.5,-67.5"/>
<text text-anchor="middle" x="2141.5" y="-74.5" font-family="Helvetica,sans-Serif" font-size="10.00">chrono</text>
</a>
</g>
</g>
<!-- Node24&#45;&gt;Node40 -->
<g id="edge39" class="edge">
<title>Node24&#45;&gt;Node40</title>
<path fill="none" stroke="midnightblue" d="M1697.5,-136.06C1702.21,-135.31 1706.96,-134.6 1711.5,-134 1886.71,-110.91 1939.26,-152.11 2107.5,-98 2112.1,-96.52 2116.74,-94.34 2121.06,-91.95"/>
<polygon fill="midnightblue" stroke="midnightblue" points="2123.13,-94.79 2129.84,-86.6 2119.48,-88.82 2123.13,-94.79"/>
</g>
<!-- Node41 -->
<g id="node41" class="node">
<title>Node41</title>
<g id="a_node41"><a xlink:title=" ">
<polygon fill="white" stroke="#bfbfbf" points="2184.5,-67.5 2184.5,-86.5 2234.5,-86.5 2234.5,-67.5 2184.5,-67.5"/>
<text text-anchor="middle" x="2209.5" y="-74.5" font-family="Helvetica,sans-Serif" font-size="10.00">format</text>
</a>
</g>
</g>
<!-- Node24&#45;&gt;Node41 -->
<g id="edge40" class="edge">
<title>Node24&#45;&gt;Node41</title>
<path fill="none" stroke="midnightblue" d="M1697.78,-135.96C1702.39,-135.23 1707.05,-134.56 1711.5,-134 1916.74,-108.33 1978.18,-160.03 2175.5,-98 2180.11,-96.55 2184.76,-94.38 2189.08,-92"/>
<polygon fill="midnightblue" stroke="midnightblue" points="2191.14,-94.84 2197.86,-86.64 2187.5,-88.86 2191.14,-94.84"/>
</g>
<!-- Node42 -->
<g id="node42" class="node">
<title>Node42</title>
<g id="a_node42"><a xlink:title=" ">
<polygon fill="white" stroke="#bfbfbf" points="2252.5,-67.5 2252.5,-86.5 2350.5,-86.5 2350.5,-67.5 2252.5,-67.5"/>
<text text-anchor="middle" x="2301.5" y="-74.5" font-family="Helvetica,sans-Serif" font-size="10.00">pcg_random.hpp</text>
</a>
</g>
</g>
<!-- Node24&#45;&gt;Node42 -->
<g id="edge41" class="edge">
<title>Node24&#45;&gt;Node42</title>
<path fill="none" stroke="midnightblue" d="M1697.77,-135.91C1702.39,-135.2 1707.04,-134.54 1711.5,-134 1946.8,-105.75 2011.23,-145.04 2243.5,-98 2252.75,-96.13 2262.55,-93.15 2271.41,-90.06"/>
<polygon fill="midnightblue" stroke="midnightblue" points="2272.74,-93.3 2280.93,-86.58 2270.34,-86.73 2272.74,-93.3"/>
</g>
<!-- Node43 -->
<g id="node43" class="node">
<title>Node43</title>
<g id="a_node43"><a xlink:title=" ">
<polygon fill="white" stroke="#bfbfbf" points="2368.5,-67.5 2368.5,-86.5 2454.5,-86.5 2454.5,-67.5 2368.5,-67.5"/>
<text text-anchor="middle" x="2411.5" y="-74.5" font-family="Helvetica,sans-Serif" font-size="10.00">fmt/ostream.h</text>
</a>
</g>
</g>
<!-- Node24&#45;&gt;Node43 -->
<g id="edge42" class="edge">
<title>Node24&#45;&gt;Node43</title>
<path fill="none" stroke="midnightblue" d="M1697.76,-135.86C1702.38,-135.15 1707.04,-134.51 1711.5,-134 1998.09,-101.35 2077.47,-158.51 2359.5,-98 2367.61,-96.26 2376.13,-93.44 2383.86,-90.46"/>
<polygon fill="midnightblue" stroke="midnightblue" points="2385.22,-93.69 2393.16,-86.67 2382.58,-87.2 2385.22,-93.69"/>
</g>
<!-- Node44 -->
<g id="node44" class="node">
<title>Node44</title>
<g id="a_node44"><a xlink:title=" ">
<polygon fill="white" stroke="#bfbfbf" points="2472.5,-62 2472.5,-92 2578.5,-92 2578.5,-62 2472.5,-62"/>
<text text-anchor="start" x="2480.5" y="-80" font-family="Helvetica,sans-Serif" font-size="10.00">spdlog/sinks/basic</text>
<text text-anchor="middle" x="2525.5" y="-69" font-family="Helvetica,sans-Serif" font-size="10.00">_file_sink.h</text>
</a>
</g>
</g>
<!-- Node24&#45;&gt;Node44 -->
<g id="edge43" class="edge">
<title>Node24&#45;&gt;Node44</title>
<path fill="none" stroke="midnightblue" d="M1697.76,-135.83C1702.38,-135.12 1707.04,-134.49 1711.5,-134 2044.1,-97.4 2134.3,-157.88 2463.5,-98 2468,-97.18 2472.63,-96.12 2477.23,-94.92"/>
<polygon fill="midnightblue" stroke="midnightblue" points="2478.54,-98.18 2487.21,-92.09 2476.63,-91.45 2478.54,-98.18"/>
</g>
<!-- Node45 -->
<g id="node45" class="node">
<title>Node45</title>
<g id="a_node45"><a xlink:title=" ">
<polygon fill="white" stroke="#bfbfbf" points="2597,-62 2597,-92 2708,-92 2708,-62 2597,-62"/>
<text text-anchor="start" x="2605" y="-80" font-family="Helvetica,sans-Serif" font-size="10.00">spdlog/sinks/stdout</text>
<text text-anchor="middle" x="2652.5" y="-69" font-family="Helvetica,sans-Serif" font-size="10.00">_color_sinks.h</text>
</a>
</g>
</g>
<!-- Node24&#45;&gt;Node45 -->
<g id="edge44" class="edge">
<title>Node24&#45;&gt;Node45</title>
<path fill="none" stroke="midnightblue" d="M1697.76,-135.8C1702.38,-135.1 1707.04,-134.48 1711.5,-134 2098.97,-92.69 2203.44,-163.84 2587.5,-98 2592.53,-97.14 2597.72,-95.99 2602.87,-94.69"/>
<polygon fill="midnightblue" stroke="midnightblue" points="2603.94,-98.03 2612.67,-92.02 2602.1,-91.27 2603.94,-98.03"/>
</g>
<!-- Node46&#45;&gt;Node9 -->
<g id="edge49" class="edge">
<title>Node46&#45;&gt;Node9</title>
<path fill="none" stroke="midnightblue" d="M1744.4,-190.44C1779.05,-180.85 1835.2,-165.3 1871.99,-155.11"/>
<polygon fill="midnightblue" stroke="midnightblue" points="1873.12,-158.43 1881.82,-152.39 1871.25,-151.68 1873.12,-158.43"/>
</g>
<!-- Node46&#45;&gt;Node21 -->
<g id="edge52" class="edge">
<title>Node46&#45;&gt;Node21</title>
<path fill="none" stroke="midnightblue" d="M1693.2,-190.42C1672.68,-181.64 1640.13,-167.41 1612.5,-154 1595.33,-145.67 1592.86,-139.19 1574.5,-134 1343.9,-68.78 1269.58,-153.7 1036.5,-98 1029.43,-96.31 1022.07,-93.65 1015.33,-90.82"/>
<polygon fill="midnightblue" stroke="midnightblue" points="1016.56,-87.54 1006,-86.64 1013.69,-93.92 1016.56,-87.54"/>
</g>
<!-- Node46&#45;&gt;Node24 -->
<g id="edge53" class="edge">
<title>Node46&#45;&gt;Node24</title>
<path fill="none" stroke="midnightblue" d="M1704.58,-190.08C1696.72,-182.22 1685.07,-170.57 1675.58,-161.08"/>
<polygon fill="midnightblue" stroke="midnightblue" points="1677.8,-158.35 1668.25,-153.75 1672.85,-163.3 1677.8,-158.35"/>
</g>
<!-- Node46&#45;&gt;Node35 -->
<g id="edge51" class="edge">
<title>Node46&#45;&gt;Node35</title>
<path fill="none" stroke="midnightblue" d="M1714.74,-190.41C1717.35,-175.91 1724.86,-146.91 1744.5,-134 1834.91,-74.59 2614.82,-132.07 2717.5,-98 2721.44,-96.69 2725.32,-94.68 2728.91,-92.42"/>
<polygon fill="midnightblue" stroke="midnightblue" points="2730.98,-95.24 2737.06,-86.56 2726.9,-89.55 2730.98,-95.24"/>
</g>
<!-- Node47 -->
<g id="node47" class="node">
<title>Node47</title>
<g id="a_node47"><a xlink:title=" ">
<polygon fill="white" stroke="#bfbfbf" points="1753.5,-134.5 1753.5,-153.5 1795.5,-153.5 1795.5,-134.5 1753.5,-134.5"/>
<text text-anchor="middle" x="1774.5" y="-141.5" font-family="Helvetica,sans-Serif" font-size="10.00">array</text>
</a>
</g>
</g>
<!-- Node46&#45;&gt;Node47 -->
<g id="edge48" class="edge">
<title>Node46&#45;&gt;Node47</title>
<path fill="none" stroke="midnightblue" d="M1723.3,-190.32C1732.32,-182.34 1745.91,-170.31 1756.82,-160.65"/>
<polygon fill="midnightblue" stroke="midnightblue" points="1759.35,-163.08 1764.52,-153.83 1754.71,-157.84 1759.35,-163.08"/>
</g>
<!-- Node48 -->
<g id="node48" class="node">
<title>Node48</title>
<g id="a_node48"><a xlink:title=" ">
<polygon fill="white" stroke="#bfbfbf" points="1813.5,-134.5 1813.5,-153.5 1863.5,-153.5 1863.5,-134.5 1813.5,-134.5"/>
<text text-anchor="middle" x="1838.5" y="-141.5" font-family="Helvetica,sans-Serif" font-size="10.00">gsl/util</text>
</a>
</g>
</g>
<!-- Node46&#45;&gt;Node48 -->
<g id="edge50" class="edge">
<title>Node46&#45;&gt;Node48</title>
<path fill="none" stroke="midnightblue" d="M1733.31,-190.44C1753.79,-181.6 1785.98,-167.69 1809.36,-157.59"/>
<polygon fill="midnightblue" stroke="midnightblue" points="1810.99,-160.7 1818.79,-153.52 1808.22,-154.27 1810.99,-160.7"/>
</g>
</g>
</svg>
        <g id="navigator" transform="translate(0 0)" fill="#404254">
                <rect fill="#f2f5e9" fill-opacity="0.5" stroke="#606060" stroke-width=".5" x="0" y="0" width="60" height="60"/>
                <use id="zoomplus" xlink:href="#zoomPlus" x="17" y="9" onmousedown="handleZoom(evt,'in')"/>
                <use id="zoomminus" xlink:href="#zoomMin" x="42" y="9" onmousedown="handleZoom(evt,'out')"/>
                <use id="reset" xlink:href="#resetDef" x="30" y="36" onmousedown="handleReset()"/>
                <g id="arrowUp" xlink:href="#dirArrow" transform="translate(30 24)" onmousedown="handlePan(0,-1)">
                  <use xlink:href="#rim" fill="#404040">
                        <set attributeName="fill" to="#808080" begin="arrowUp.mouseover" end="arrowUp.mouseout"/>
                  </use>
                  <path fill="none" stroke="white" stroke-width="1.5" d="M0,-3.0v7 M-2.5,-0.5L0,-3.0L2.5,-0.5"/>
                </g>
                <g id="arrowRight" xlink:href="#dirArrow" transform="rotate(90) translate(36 -43)" onmousedown="handlePan(1,0)">
                  <use xlink:href="#rim" fill="#404040">
                        <set attributeName="fill" to="#808080" begin="arrowRight.mouseover" end="arrowRight.mouseout"/>
                  </use>
                  <path fill="none" stroke="white" stroke-width="1.5" d="M0,-3.0v7 M-2.5,-0.5L0,-3.0L2.5,-0.5"/>
                </g>
                <g id="arrowDown" xlink:href="#dirArrow" transform="rotate(180) translate(-30 -48)" onmousedown="handlePan(0,1)">
                  <use xlink:href="#rim" fill="#404040">
                        <set attributeName="fill" to="#808080" begin="arrowDown.mouseover" end="arrowDown.mouseout"/>
                  </use>
                  <path fill="none" stroke="white" stroke-width="1.5" d="M0,-3.0v7 M-2.5,-0.5L0,-3.0L2.5,-0.5"/>
                </g>
                <g id="arrowLeft" xlink:href="#dirArrow" transform="rotate(270) translate(-36 17)" onmousedown="handlePan(-1,0)">
                  <use xlink:href="#rim" fill="#404040">
                        <set attributeName="fill" to="#808080" begin="arrowLeft.mouseover" end="arrowLeft.mouseout"/>
                  </use>
                  <path fill="none" stroke="white" stroke-width="1.5" d="M0,-3.0v7 M-2.5,-0.5L0,-3.0L2.5,-0.5"/>
                </g>
        </g>
        <svg viewBox="0 0 15 15" width="100%" height="30px" preserveAspectRatio="xMaxYMin meet">
         <g id="arrow_out" transform="scale(0.3 0.3)">
          <a xlink:href="bistellar-flip_8cpp__incl_org.svg" target="_base">
           <rect id="button" ry="5" rx="5" y="6" x="6" height="38" width="38"
                fill="#f2f5e9" fill-opacity="0.5" stroke="#606060" stroke-width="1.0"/>
           <path id="arrow"
             d="M 11.500037,31.436501 C 11.940474,20.09759 22.043105,11.32322 32.158766,21.979434 L 37.068811,17.246167 C 37.068811,17.246167 37.088388,32 37.088388,32 L 22.160133,31.978069 C 22.160133,31.978069 26.997745,27.140456 26.997745,27.140456 C 18.528582,18.264221 13.291696,25.230495 11.500037,31.436501 z"
             style="fill:#404040;"/>
          </a>
         </g>
        </svg>
</svg>
