<?xml version="1.0" encoding="UTF-8" standalone="no"?>
<!DOCTYPE svg PUBLIC "-//W3C//DTD SVG 1.1//EN"
 "http://www.w3.org/Graphics/SVG/1.1/DTD/svg11.dtd">
<!-- Generated by graphviz version 2.43.0 (0)
 -->
<!-- Title: src/cdt&#45;opt.cpp Pages: 1 -->
<svg width="2637pt" height="666pt"
 viewBox="0.00 0.00 2637.00 666.00" xmlns="http://www.w3.org/2000/svg" xmlns:xlink="http://www.w3.org/1999/xlink">
<g id="graph0" class="graph" transform="scale(1 1) rotate(0) translate(4 662)">
<title>src/cdt&#45;opt.cpp</title>
<polygon fill="white" stroke="transparent" points="-4,4 -4,-662 2633,-662 2633,4 -4,4"/>
<!-- Node1 -->
<g id="node1" class="node">
<title>Node1</title>
<g id="a_node1"><a xlink:title="Outputs values to determine optimizations.">
<polygon fill="#bfbfbf" stroke="black" points="1570.5,-638.5 1570.5,-657.5 1659.5,-657.5 1659.5,-638.5 1570.5,-638.5"/>
<text text-anchor="middle" x="1615" y="-645.5" font-family="Helvetica,sans-Serif" font-size="10.00">src/cdt&#45;opt.cpp</text>
</a>
</g>
</g>
<!-- Node2 -->
<g id="node2" class="node">
<title>Node2</title>
<g id="a_node2"><a xlink:href="_metropolis_8hpp.html" target="_top" xlink:title="Perform Metropolis&#45;Hastings algorithm on Delaunay Triangulations.">
<polygon fill="white" stroke="black" points="1513.5,-582.5 1513.5,-601.5 1602.5,-601.5 1602.5,-582.5 1513.5,-582.5"/>
<text text-anchor="middle" x="1558" y="-589.5" font-family="Helvetica,sans-Serif" font-size="10.00">Metropolis.hpp</text>
</a>
</g>
</g>
<!-- Node1&#45;&gt;Node2 -->
<g id="edge1" class="edge">
<title>Node1&#45;&gt;Node2</title>
<path fill="none" stroke="midnightblue" d="M1605.84,-638.32C1597.5,-630.42 1584.97,-618.55 1574.82,-608.94"/>
<polygon fill="midnightblue" stroke="midnightblue" points="1576.99,-606.17 1567.32,-601.83 1572.18,-611.25 1576.99,-606.17"/>
</g>
<!-- Node50 -->
<g id="node50" class="node">
<title>Node50</title>
<g id="a_node50"><a xlink:href="_move__always_8hpp.html" target="_top" xlink:title="Randomly selects moves to always perform on triangulations.">
<polygon fill="white" stroke="black" points="1621,-582.5 1621,-601.5 1725,-601.5 1725,-582.5 1621,-582.5"/>
<text text-anchor="middle" x="1673" y="-589.5" font-family="Helvetica,sans-Serif" font-size="10.00">Move_always.hpp</text>
</a>
</g>
</g>
<!-- Node1&#45;&gt;Node50 -->
<g id="edge54" class="edge">
<title>Node1&#45;&gt;Node50</title>
<path fill="none" stroke="midnightblue" d="M1624.32,-638.32C1632.89,-630.34 1645.81,-618.31 1656.19,-608.65"/>
<polygon fill="midnightblue" stroke="midnightblue" points="1658.58,-611.21 1663.51,-601.83 1653.81,-606.09 1658.58,-611.21"/>
</g>
<!-- Node3 -->
<g id="node3" class="node">
<title>Node3</title>
<g id="a_node3"><a xlink:href="_move__strategy_8hpp.html" target="_top" xlink:title="Template class for move algorithms (strategies) on manifolds.">
<polygon fill="white" stroke="black" points="1618.5,-526.5 1618.5,-545.5 1727.5,-545.5 1727.5,-526.5 1618.5,-526.5"/>
<text text-anchor="middle" x="1673" y="-533.5" font-family="Helvetica,sans-Serif" font-size="10.00">Move_strategy.hpp</text>
</a>
</g>
</g>
<!-- Node2&#45;&gt;Node3 -->
<g id="edge2" class="edge">
<title>Node2&#45;&gt;Node3</title>
<path fill="none" stroke="midnightblue" d="M1576.22,-582.44C1594.9,-573.68 1624.16,-559.94 1645.62,-549.86"/>
<polygon fill="midnightblue" stroke="midnightblue" points="1647.3,-552.93 1654.86,-545.52 1644.32,-546.6 1647.3,-552.93"/>
</g>
<!-- Node48 -->
<g id="node48" class="node">
<title>Node48</title>
<g id="a_node48"><a xlink:href="_s3_action_8hpp.html" target="_top" xlink:title="Calculate S3 bulk actions on 3D Delaunay Triangulations.">
<polygon fill="white" stroke="black" points="1211,-526.5 1211,-545.5 1291,-545.5 1291,-526.5 1211,-526.5"/>
<text text-anchor="middle" x="1251" y="-533.5" font-family="Helvetica,sans-Serif" font-size="10.00">S3Action.hpp</text>
</a>
</g>
</g>
<!-- Node2&#45;&gt;Node48 -->
<g id="edge51" class="edge">
<title>Node2&#45;&gt;Node48</title>
<path fill="none" stroke="midnightblue" d="M1513.36,-583.15C1457.04,-573.24 1360.44,-556.25 1301.48,-545.88"/>
<polygon fill="midnightblue" stroke="midnightblue" points="1301.74,-542.37 1291.29,-544.09 1300.53,-549.27 1301.74,-542.37"/>
</g>
<!-- Node4 -->
<g id="node4" class="node">
<title>Node4</title>
<g id="a_node4"><a xlink:href="_move__command_8hpp.html" target="_top" xlink:title="Do ergodic moves using the Command pattern.">
<polygon fill="white" stroke="black" points="1648.5,-470.5 1648.5,-489.5 1767.5,-489.5 1767.5,-470.5 1648.5,-470.5"/>
<text text-anchor="middle" x="1708" y="-477.5" font-family="Helvetica,sans-Serif" font-size="10.00">Move_command.hpp</text>
</a>
</g>
</g>
<!-- Node3&#45;&gt;Node4 -->
<g id="edge3" class="edge">
<title>Node3&#45;&gt;Node4</title>
<path fill="none" stroke="midnightblue" d="M1678.78,-526.08C1683.67,-518.53 1690.83,-507.49 1696.83,-498.23"/>
<polygon fill="midnightblue" stroke="midnightblue" points="1699.83,-500.05 1702.33,-489.75 1693.95,-496.24 1699.83,-500.05"/>
</g>
<!-- Node5 -->
<g id="node5" class="node">
<title>Node5</title>
<g id="a_node5"><a xlink:href="_apply__move_8hpp.html" target="_top" xlink:title="Apply Pachner moves to foliated Delaunay triangulations.">
<polygon fill="white" stroke="black" points="2272,-414.5 2272,-433.5 2370,-433.5 2370,-414.5 2272,-414.5"/>
<text text-anchor="middle" x="2321" y="-421.5" font-family="Helvetica,sans-Serif" font-size="10.00">Apply_move.hpp</text>
</a>
</g>
</g>
<!-- Node4&#45;&gt;Node5 -->
<g id="edge4" class="edge">
<title>Node4&#45;&gt;Node5</title>
<path fill="none" stroke="midnightblue" d="M1767.61,-473.75C1884.87,-463.42 2144.27,-440.57 2261.46,-430.24"/>
<polygon fill="midnightblue" stroke="midnightblue" points="2262.02,-433.71 2271.68,-429.34 2261.41,-426.74 2262.02,-433.71"/>
</g>
<!-- Node11 -->
<g id="node11" class="node">
<title>Node11</title>
<g id="a_node11"><a xlink:href="_ergodic__moves__3_8hpp.html" target="_top" xlink:title="Pachner moves on 2+1 dimensional foliated Delaunay triangulations.">
<polygon fill="white" stroke="black" points="1646.5,-414.5 1646.5,-433.5 1769.5,-433.5 1769.5,-414.5 1646.5,-414.5"/>
<text text-anchor="middle" x="1708" y="-421.5" font-family="Helvetica,sans-Serif" font-size="10.00">Ergodic_moves_3.hpp</text>
</a>
</g>
</g>
<!-- Node4&#45;&gt;Node11 -->
<g id="edge10" class="edge">
<title>Node4&#45;&gt;Node11</title>
<path fill="none" stroke="midnightblue" d="M1708,-470.08C1708,-463.01 1708,-452.86 1708,-443.99"/>
<polygon fill="midnightblue" stroke="midnightblue" points="1711.5,-443.75 1708,-433.75 1704.5,-443.75 1711.5,-443.75"/>
</g>
<!-- Node6 -->
<g id="node6" class="node">
<title>Node6</title>
<g id="a_node6"><a xlink:title=" ">
<polygon fill="white" stroke="#bfbfbf" points="2473.5,-67.5 2473.5,-86.5 2566.5,-86.5 2566.5,-67.5 2473.5,-67.5"/>
<text text-anchor="middle" x="2520" y="-74.5" font-family="Helvetica,sans-Serif" font-size="10.00">spdlog/spdlog.h</text>
</a>
</g>
</g>
<!-- Node5&#45;&gt;Node6 -->
<g id="edge5" class="edge">
<title>Node5&#45;&gt;Node6</title>
<path fill="none" stroke="midnightblue" d="M2369.37,-414.49C2421.77,-402.16 2498,-373.78 2498,-313 2498,-313 2498,-313 2498,-199 2498,-162.14 2508.01,-119.96 2514.52,-96.4"/>
<polygon fill="midnightblue" stroke="midnightblue" points="2517.91,-97.28 2517.3,-86.71 2511.18,-95.36 2517.91,-97.28"/>
</g>
<!-- Node7 -->
<g id="node7" class="node">
<title>Node7</title>
<g id="a_node7"><a xlink:title=" ">
<polygon fill="white" stroke="#bfbfbf" points="2340.5,-358.5 2340.5,-377.5 2405.5,-377.5 2405.5,-358.5 2340.5,-358.5"/>
<text text-anchor="middle" x="2373" y="-365.5" font-family="Helvetica,sans-Serif" font-size="10.00">functional</text>
</a>
</g>
</g>
<!-- Node5&#45;&gt;Node7 -->
<g id="edge6" class="edge">
<title>Node5&#45;&gt;Node7</title>
<path fill="none" stroke="midnightblue" d="M2329.59,-414.08C2337.16,-406.22 2348.38,-394.57 2357.51,-385.08"/>
<polygon fill="midnightblue" stroke="midnightblue" points="2360.16,-387.38 2364.57,-377.75 2355.12,-382.53 2360.16,-387.38"/>
</g>
<!-- Node8 -->
<g id="node8" class="node">
<title>Node8</title>
<g id="a_node8"><a xlink:title=" ">
<polygon fill="white" stroke="#bfbfbf" points="2585,-67.5 2585,-86.5 2629,-86.5 2629,-67.5 2585,-67.5"/>
<text text-anchor="middle" x="2607" y="-74.5" font-family="Helvetica,sans-Serif" font-size="10.00">string</text>
</a>
</g>
</g>
<!-- Node5&#45;&gt;Node8 -->
<g id="edge7" class="edge">
<title>Node5&#45;&gt;Node8</title>
<path fill="none" stroke="midnightblue" d="M2365.75,-414.45C2442.72,-398.47 2592,-361.24 2592,-313 2592,-313 2592,-313 2592,-199 2592,-162.62 2598.76,-120.55 2603.21,-96.83"/>
<polygon fill="midnightblue" stroke="midnightblue" points="2606.69,-97.24 2605.16,-86.76 2599.82,-95.91 2606.69,-97.24"/>
</g>
<!-- Node9 -->
<g id="node9" class="node">
<title>Node9</title>
<g id="a_node9"><a xlink:title=" ">
<polygon fill="white" stroke="#bfbfbf" points="1980,-358.5 1980,-377.5 2072,-377.5 2072,-358.5 1980,-358.5"/>
<text text-anchor="middle" x="2026" y="-365.5" font-family="Helvetica,sans-Serif" font-size="10.00">tl/expected.hpp</text>
</a>
</g>
</g>
<!-- Node5&#45;&gt;Node9 -->
<g id="edge8" class="edge">
<title>Node5&#45;&gt;Node9</title>
<path fill="none" stroke="midnightblue" d="M2274.26,-414.44C2222.1,-404.9 2137.75,-389.46 2082.09,-379.27"/>
<polygon fill="midnightblue" stroke="midnightblue" points="2082.51,-375.79 2072.04,-377.43 2081.25,-382.67 2082.51,-375.79"/>
</g>
<!-- Node10 -->
<g id="node10" class="node">
<title>Node10</title>
<g id="a_node10"><a xlink:title=" ">
<polygon fill="white" stroke="#bfbfbf" points="2217.5,-358.5 2217.5,-377.5 2322.5,-377.5 2322.5,-358.5 2217.5,-358.5"/>
<text text-anchor="middle" x="2270" y="-365.5" font-family="Helvetica,sans-Serif" font-size="10.00">tl/function_ref.hpp</text>
</a>
</g>
</g>
<!-- Node5&#45;&gt;Node10 -->
<g id="edge9" class="edge">
<title>Node5&#45;&gt;Node10</title>
<path fill="none" stroke="midnightblue" d="M2312.58,-414.08C2305.15,-406.22 2294.15,-394.57 2285.19,-385.08"/>
<polygon fill="midnightblue" stroke="midnightblue" points="2287.68,-382.62 2278.26,-377.75 2282.59,-387.42 2287.68,-382.62"/>
</g>
<!-- Node11&#45;&gt;Node9 -->
<g id="edge11" class="edge">
<title>Node11&#45;&gt;Node9</title>
<path fill="none" stroke="midnightblue" d="M1758.39,-414.44C1816,-404.66 1910.06,-388.69 1969.94,-378.52"/>
<polygon fill="midnightblue" stroke="midnightblue" points="1970.7,-381.94 1979.98,-376.82 1969.53,-375.04 1970.7,-381.94"/>
</g>
<!-- Node12 -->
<g id="node12" class="node">
<title>Node12</title>
<g id="a_node12"><a xlink:href="_move__tracker_8hpp.html" target="_top" xlink:title="Track ergodic moves.">
<polygon fill="white" stroke="black" points="1604.5,-358.5 1604.5,-377.5 1707.5,-377.5 1707.5,-358.5 1604.5,-358.5"/>
<text text-anchor="middle" x="1656" y="-365.5" font-family="Helvetica,sans-Serif" font-size="10.00">Move_tracker.hpp</text>
</a>
</g>
</g>
<!-- Node11&#45;&gt;Node12 -->
<g id="edge12" class="edge">
<title>Node11&#45;&gt;Node12</title>
<path fill="none" stroke="midnightblue" d="M1699.41,-414.08C1691.84,-406.22 1680.62,-394.57 1671.49,-385.08"/>
<polygon fill="midnightblue" stroke="midnightblue" points="1673.88,-382.53 1664.43,-377.75 1668.84,-387.38 1673.88,-382.53"/>
</g>
<!-- Node13 -->
<g id="node13" class="node">
<title>Node13</title>
<g id="a_node13"><a xlink:href="_manifold_8hpp.html" target="_top" xlink:title="Data structures for manifolds.">
<polygon fill="white" stroke="black" points="1602,-302.5 1602,-321.5 1682,-321.5 1682,-302.5 1602,-302.5"/>
<text text-anchor="middle" x="1642" y="-309.5" font-family="Helvetica,sans-Serif" font-size="10.00">Manifold.hpp</text>
</a>
</g>
</g>
<!-- Node12&#45;&gt;Node13 -->
<g id="edge13" class="edge">
<title>Node12&#45;&gt;Node13</title>
<path fill="none" stroke="midnightblue" d="M1653.69,-358.08C1651.83,-350.93 1649.16,-340.64 1646.85,-331.69"/>
<polygon fill="midnightblue" stroke="midnightblue" points="1650.17,-330.55 1644.27,-321.75 1643.39,-332.31 1650.17,-330.55"/>
</g>
<!-- Node14 -->
<g id="node14" class="node">
<title>Node14</title>
<g id="a_node14"><a xlink:title=" ">
<polygon fill="white" stroke="#bfbfbf" points="1702.5,-246.5 1702.5,-265.5 1755.5,-265.5 1755.5,-246.5 1702.5,-246.5"/>
<text text-anchor="middle" x="1729" y="-253.5" font-family="Helvetica,sans-Serif" font-size="10.00">cstddef</text>
</a>
</g>
</g>
<!-- Node13&#45;&gt;Node14 -->
<g id="edge14" class="edge">
<title>Node13&#45;&gt;Node14</title>
<path fill="none" stroke="midnightblue" d="M1655.98,-302.32C1669.55,-293.9 1690.38,-280.97 1706.32,-271.07"/>
<polygon fill="midnightblue" stroke="midnightblue" points="1708.41,-273.9 1715.06,-265.65 1704.71,-267.95 1708.41,-273.9"/>
</g>
<!-- Node15 -->
<g id="node15" class="node">
<title>Node15</title>
<g id="a_node15"><a xlink:title=" ">
<polygon fill="white" stroke="#bfbfbf" points="1432,-246.5 1432,-265.5 1518,-265.5 1518,-246.5 1432,-246.5"/>
<text text-anchor="middle" x="1475" y="-253.5" font-family="Helvetica,sans-Serif" font-size="10.00">unordered_set</text>
</a>
</g>
</g>
<!-- Node13&#45;&gt;Node15 -->
<g id="edge15" class="edge">
<title>Node13&#45;&gt;Node15</title>
<path fill="none" stroke="midnightblue" d="M1615.54,-302.44C1587.32,-293.32 1542.46,-278.81 1511.03,-268.65"/>
<polygon fill="midnightblue" stroke="midnightblue" points="1511.93,-265.26 1501.34,-265.52 1509.78,-271.92 1511.93,-265.26"/>
</g>
<!-- Node16 -->
<g id="node16" class="node">
<title>Node16</title>
<g id="a_node16"><a xlink:title=" ">
<polygon fill="white" stroke="#bfbfbf" points="1536.5,-246.5 1536.5,-265.5 1581.5,-265.5 1581.5,-246.5 1536.5,-246.5"/>
<text text-anchor="middle" x="1559" y="-253.5" font-family="Helvetica,sans-Serif" font-size="10.00">utility</text>
</a>
</g>
</g>
<!-- Node13&#45;&gt;Node16 -->
<g id="edge16" class="edge">
<title>Node13&#45;&gt;Node16</title>
<path fill="none" stroke="midnightblue" d="M1628.66,-302.32C1615.84,-293.98 1596.22,-281.21 1581.06,-271.35"/>
<polygon fill="midnightblue" stroke="midnightblue" points="1582.59,-268.17 1572.3,-265.65 1578.78,-274.04 1582.59,-268.17"/>
</g>
<!-- Node17 -->
<g id="node17" class="node">
<title>Node17</title>
<g id="a_node17"><a xlink:href="_geometry_8hpp.html" target="_top" xlink:title="Geometric quantities of Manifold used by MoveAlgorithm.">
<polygon fill="white" stroke="black" points="1599.5,-246.5 1599.5,-265.5 1684.5,-265.5 1684.5,-246.5 1599.5,-246.5"/>
<text text-anchor="middle" x="1642" y="-253.5" font-family="Helvetica,sans-Serif" font-size="10.00">Geometry.hpp</text>
</a>
</g>
</g>
<!-- Node13&#45;&gt;Node17 -->
<g id="edge17" class="edge">
<title>Node13&#45;&gt;Node17</title>
<path fill="none" stroke="midnightblue" d="M1642,-302.08C1642,-295.01 1642,-284.86 1642,-275.99"/>
<polygon fill="midnightblue" stroke="midnightblue" points="1645.5,-275.75 1642,-265.75 1638.5,-275.75 1645.5,-275.75"/>
</g>
<!-- Node18 -->
<g id="node18" class="node">
<title>Node18</title>
<g id="a_node18"><a xlink:href="_foliated__triangulation_8hpp.html" target="_top" xlink:title="Create foliated spherical triangulations.">
<polygon fill="white" stroke="black" points="1501,-190.5 1501,-209.5 1645,-209.5 1645,-190.5 1501,-190.5"/>
<text text-anchor="middle" x="1573" y="-197.5" font-family="Helvetica,sans-Serif" font-size="10.00">Foliated_triangulation.hpp</text>
</a>
</g>
</g>
<!-- Node17&#45;&gt;Node18 -->
<g id="edge18" class="edge">
<title>Node17&#45;&gt;Node18</title>
<path fill="none" stroke="midnightblue" d="M1630.91,-246.32C1620.51,-238.18 1604.74,-225.84 1592.28,-216.09"/>
<polygon fill="midnightblue" stroke="midnightblue" points="1594.32,-213.24 1584.29,-209.83 1590.01,-218.75 1594.32,-213.24"/>
</g>
<!-- Node19 -->
<g id="node19" class="node">
<title>Node19</title>
<g id="a_node19"><a xlink:title=" ">
<polygon fill="white" stroke="#bfbfbf" points="1515,-134.5 1515,-153.5 1575,-153.5 1575,-134.5 1515,-134.5"/>
<text text-anchor="middle" x="1545" y="-141.5" font-family="Helvetica,sans-Serif" font-size="10.00">concepts</text>
</a>
</g>
</g>
<!-- Node18&#45;&gt;Node19 -->
<g id="edge19" class="edge">
<title>Node18&#45;&gt;Node19</title>
<path fill="none" stroke="midnightblue" d="M1568.38,-190.08C1564.54,-182.69 1558.98,-171.95 1554.24,-162.81"/>
<polygon fill="midnightblue" stroke="midnightblue" points="1557.25,-161.02 1549.54,-153.75 1551.03,-164.24 1557.25,-161.02"/>
</g>
<!-- Node20 -->
<g id="node20" class="node">
<title>Node20</title>
<g id="a_node20"><a xlink:href="_triangulation__traits_8hpp.html" target="_top" xlink:title="Traits class for particular uses of CGAL.">
<polygon fill="white" stroke="black" points="524.5,-134.5 524.5,-153.5 655.5,-153.5 655.5,-134.5 524.5,-134.5"/>
<text text-anchor="middle" x="590" y="-141.5" font-family="Helvetica,sans-Serif" font-size="10.00">Triangulation_traits.hpp</text>
</a>
</g>
</g>
<!-- Node18&#45;&gt;Node20 -->
<g id="edge20" class="edge">
<title>Node18&#45;&gt;Node20</title>
<path fill="none" stroke="midnightblue" d="M1500.72,-195.03C1320.02,-185.1 849.96,-159.28 665.69,-149.16"/>
<polygon fill="midnightblue" stroke="midnightblue" points="665.72,-145.65 655.55,-148.6 665.34,-152.64 665.72,-145.65"/>
</g>
<!-- Node29 -->
<g id="node29" class="node">
<title>Node29</title>
<g id="a_node29"><a xlink:href="_utilities_8hpp.html" target="_top" xlink:title="Utility functions.">
<polygon fill="white" stroke="black" points="1593,-134.5 1593,-153.5 1669,-153.5 1669,-134.5 1593,-134.5"/>
<text text-anchor="middle" x="1631" y="-141.5" font-family="Helvetica,sans-Serif" font-size="10.00">Utilities.hpp</text>
</a>
</g>
</g>
<!-- Node18&#45;&gt;Node29 -->
<g id="edge29" class="edge">
<title>Node18&#45;&gt;Node29</title>
<path fill="none" stroke="midnightblue" d="M1582.32,-190.32C1590.89,-182.34 1603.81,-170.31 1614.19,-160.65"/>
<polygon fill="midnightblue" stroke="midnightblue" points="1616.58,-163.21 1621.51,-153.83 1611.81,-158.09 1616.58,-163.21"/>
</g>
<!-- Node21 -->
<g id="node21" class="node">
<title>Node21</title>
<g id="a_node21"><a xlink:title=" ">
<polygon fill="white" stroke="#bfbfbf" points="170,-67.5 170,-86.5 350,-86.5 350,-67.5 170,-67.5"/>
<text text-anchor="middle" x="260" y="-74.5" font-family="Helvetica,sans-Serif" font-size="10.00">CGAL/Delaunay_triangulation_3.h</text>
</a>
</g>
</g>
<!-- Node20&#45;&gt;Node21 -->
<g id="edge21" class="edge">
<title>Node20&#45;&gt;Node21</title>
<path fill="none" stroke="midnightblue" d="M545.7,-134.46C499.18,-125.48 423.92,-110.88 359,-98 343.77,-94.98 327.23,-91.65 312.1,-88.6"/>
<polygon fill="midnightblue" stroke="midnightblue" points="312.39,-85.08 301.9,-86.53 311,-91.94 312.39,-85.08"/>
</g>
<!-- Node22 -->
<g id="node22" class="node">
<title>Node22</title>
<g id="a_node22"><a xlink:title=" ">
<polygon fill="white" stroke="#bfbfbf" points="368.5,-56.5 368.5,-97.5 497.5,-97.5 497.5,-56.5 368.5,-56.5"/>
<text text-anchor="start" x="376.5" y="-85.5" font-family="Helvetica,sans-Serif" font-size="10.00">CGAL/Exact_predicates</text>
<text text-anchor="start" x="376.5" y="-74.5" font-family="Helvetica,sans-Serif" font-size="10.00">_inexact_constructions</text>
<text text-anchor="middle" x="433" y="-63.5" font-family="Helvetica,sans-Serif" font-size="10.00">_kernel.h</text>
</a>
</g>
</g>
<!-- Node20&#45;&gt;Node22 -->
<g id="edge22" class="edge">
<title>Node20&#45;&gt;Node22</title>
<path fill="none" stroke="midnightblue" d="M569.15,-134.37C549.01,-126.03 517.57,-113.01 489.98,-101.59"/>
<polygon fill="midnightblue" stroke="midnightblue" points="490.98,-98.22 480.4,-97.63 488.3,-104.68 490.98,-98.22"/>
</g>
<!-- Node23 -->
<g id="node23" class="node">
<title>Node23</title>
<g id="a_node23"><a xlink:title=" ">
<polygon fill="white" stroke="#bfbfbf" points="515.5,-67.5 515.5,-86.5 664.5,-86.5 664.5,-67.5 515.5,-67.5"/>
<text text-anchor="middle" x="590" y="-74.5" font-family="Helvetica,sans-Serif" font-size="10.00">CGAL/point_generators_3.h</text>
</a>
</g>
</g>
<!-- Node20&#45;&gt;Node23 -->
<g id="edge23" class="edge">
<title>Node20&#45;&gt;Node23</title>
<path fill="none" stroke="midnightblue" d="M590,-134.23C590,-124.68 590,-109.12 590,-96.78"/>
<polygon fill="midnightblue" stroke="midnightblue" points="593.5,-96.63 590,-86.63 586.5,-96.63 593.5,-96.63"/>
</g>
<!-- Node24 -->
<g id="node24" class="node">
<title>Node24</title>
<g id="a_node24"><a xlink:title=" ">
<polygon fill="white" stroke="#bfbfbf" points="683,-62 683,-92 821,-92 821,-62 683,-62"/>
<text text-anchor="start" x="691" y="-80" font-family="Helvetica,sans-Serif" font-size="10.00">CGAL/Triangulation</text>
<text text-anchor="middle" x="752" y="-69" font-family="Helvetica,sans-Serif" font-size="10.00">_cell_base_with_info_3.h</text>
</a>
</g>
</g>
<!-- Node20&#45;&gt;Node24 -->
<g id="edge24" class="edge">
<title>Node20&#45;&gt;Node24</title>
<path fill="none" stroke="midnightblue" d="M611.51,-134.37C635.93,-124.57 676.41,-108.33 707.66,-95.79"/>
<polygon fill="midnightblue" stroke="midnightblue" points="709.06,-99 717.04,-92.03 706.45,-92.5 709.06,-99"/>
</g>
<!-- Node25 -->
<g id="node25" class="node">
<title>Node25</title>
<g id="a_node25"><a xlink:title=" ">
<polygon fill="white" stroke="#bfbfbf" points="0,-62 0,-92 152,-92 152,-62 0,-62"/>
<text text-anchor="start" x="8" y="-80" font-family="Helvetica,sans-Serif" font-size="10.00">CGAL/Triangulation</text>
<text text-anchor="middle" x="76" y="-69" font-family="Helvetica,sans-Serif" font-size="10.00">_vertex_base_with_info_3.h</text>
</a>
</g>
</g>
<!-- Node20&#45;&gt;Node25 -->
<g id="edge25" class="edge">
<title>Node20&#45;&gt;Node25</title>
<path fill="none" stroke="midnightblue" d="M524.24,-138.7C439.74,-132.58 288.74,-119.64 161,-98 154.47,-96.89 147.7,-95.58 140.95,-94.17"/>
<polygon fill="midnightblue" stroke="midnightblue" points="141.63,-90.74 131.12,-92.04 140.15,-97.58 141.63,-90.74"/>
</g>
<!-- Node26 -->
<g id="node26" class="node">
<title>Node26</title>
<g id="a_node26"><a xlink:href="_settings_8hpp.html" target="_top" xlink:title="Global integer and precision settings.">
<polygon fill="white" stroke="black" points="839.5,-67.5 839.5,-86.5 916.5,-86.5 916.5,-67.5 839.5,-67.5"/>
<text text-anchor="middle" x="878" y="-74.5" font-family="Helvetica,sans-Serif" font-size="10.00">Settings.hpp</text>
</a>
</g>
</g>
<!-- Node20&#45;&gt;Node26 -->
<g id="edge26" class="edge">
<title>Node20&#45;&gt;Node26</title>
<path fill="none" stroke="midnightblue" d="M655.56,-134.5C704.31,-127.26 772.11,-115.28 830,-98 836.86,-95.95 844.07,-93.26 850.76,-90.51"/>
<polygon fill="midnightblue" stroke="midnightblue" points="852.28,-93.67 860.09,-86.51 849.52,-87.23 852.28,-93.67"/>
</g>
<!-- Node27 -->
<g id="node27" class="node">
<title>Node27</title>
<g id="a_node27"><a xlink:title=" ">
<polygon fill="white" stroke="#bfbfbf" points="792,-0.5 792,-19.5 878,-19.5 878,-0.5 792,-0.5"/>
<text text-anchor="middle" x="835" y="-7.5" font-family="Helvetica,sans-Serif" font-size="10.00">CGAL/Gmpzf.h</text>
</a>
</g>
</g>
<!-- Node26&#45;&gt;Node27 -->
<g id="edge27" class="edge">
<title>Node26&#45;&gt;Node27</title>
<path fill="none" stroke="midnightblue" d="M872.2,-67.23C865.62,-57.29 854.74,-40.84 846.44,-28.29"/>
<polygon fill="midnightblue" stroke="midnightblue" points="849.14,-26.04 840.71,-19.63 843.31,-29.9 849.14,-26.04"/>
</g>
<!-- Node28 -->
<g id="node28" class="node">
<title>Node28</title>
<g id="a_node28"><a xlink:title=" ">
<polygon fill="white" stroke="#bfbfbf" points="896,-0.5 896,-19.5 946,-19.5 946,-0.5 896,-0.5"/>
<text text-anchor="middle" x="921" y="-7.5" font-family="Helvetica,sans-Serif" font-size="10.00">cstdint</text>
</a>
</g>
</g>
<!-- Node26&#45;&gt;Node28 -->
<g id="edge28" class="edge">
<title>Node26&#45;&gt;Node28</title>
<path fill="none" stroke="midnightblue" d="M883.8,-67.23C890.38,-57.29 901.26,-40.84 909.56,-28.29"/>
<polygon fill="midnightblue" stroke="midnightblue" points="912.69,-29.9 915.29,-19.63 906.86,-26.04 912.69,-29.9"/>
</g>
<!-- Node29&#45;&gt;Node6 -->
<g id="edge49" class="edge">
<title>Node29&#45;&gt;Node6</title>
<path fill="none" stroke="midnightblue" d="M1669.45,-142.43C1811.97,-140.06 2309.79,-129.68 2465,-98 2473.8,-96.2 2483.08,-93.26 2491.46,-90.18"/>
<polygon fill="midnightblue" stroke="midnightblue" points="2492.75,-93.44 2500.8,-86.56 2490.22,-86.91 2492.75,-93.44"/>
</g>
<!-- Node29&#45;&gt;Node8 -->
<g id="edge42" class="edge">
<title>Node29&#45;&gt;Node8</title>
<path fill="none" stroke="midnightblue" d="M1669.15,-142.35C1834.99,-139.38 2488.71,-125.99 2576,-98 2580.25,-96.64 2584.49,-94.53 2588.4,-92.19"/>
<polygon fill="midnightblue" stroke="midnightblue" points="2590.46,-95.02 2596.81,-86.53 2586.56,-89.21 2590.46,-95.02"/>
</g>
<!-- Node29&#45;&gt;Node26 -->
<g id="edge50" class="edge">
<title>Node29&#45;&gt;Node26</title>
<path fill="none" stroke="midnightblue" d="M1592.85,-135.25C1589.86,-134.78 1586.89,-134.35 1584,-134 1293.29,-98.38 1211.52,-163.26 926,-98 918.79,-96.35 911.27,-93.71 904.39,-90.88"/>
<polygon fill="midnightblue" stroke="midnightblue" points="905.42,-87.51 894.86,-86.69 902.61,-93.92 905.42,-87.51"/>
</g>
<!-- Node30 -->
<g id="node30" class="node">
<title>Node30</title>
<g id="a_node30"><a xlink:title=" ">
<polygon fill="white" stroke="#bfbfbf" points="2152.5,-67.5 2152.5,-86.5 2235.5,-86.5 2235.5,-67.5 2152.5,-67.5"/>
<text text-anchor="middle" x="2194" y="-74.5" font-family="Helvetica,sans-Serif" font-size="10.00">CGAL/Timer.h</text>
</a>
</g>
</g>
<!-- Node29&#45;&gt;Node30 -->
<g id="edge30" class="edge">
<title>Node29&#45;&gt;Node30</title>
<path fill="none" stroke="midnightblue" d="M1669.26,-143.43C1755.33,-143.59 1970.28,-139.41 2144,-98 2151.63,-96.18 2159.62,-93.41 2166.93,-90.5"/>
<polygon fill="midnightblue" stroke="midnightblue" points="2168.5,-93.63 2176.36,-86.53 2165.79,-87.18 2168.5,-93.63"/>
</g>
<!-- Node31 -->
<g id="node31" class="node">
<title>Node31</title>
<g id="a_node31"><a xlink:title=" ">
<polygon fill="white" stroke="#bfbfbf" points="2254,-67.5 2254,-86.5 2318,-86.5 2318,-67.5 2254,-67.5"/>
<text text-anchor="middle" x="2286" y="-74.5" font-family="Helvetica,sans-Serif" font-size="10.00">algorithm</text>
</a>
</g>
</g>
<!-- Node29&#45;&gt;Node31 -->
<g id="edge31" class="edge">
<title>Node29&#45;&gt;Node31</title>
<path fill="none" stroke="midnightblue" d="M1669.07,-142.1C1785.5,-139.03 2135.49,-127.54 2245,-98 2250.98,-96.39 2257.12,-93.9 2262.78,-91.21"/>
<polygon fill="midnightblue" stroke="midnightblue" points="2264.42,-94.31 2271.73,-86.63 2261.23,-88.07 2264.42,-94.31"/>
</g>
<!-- Node32 -->
<g id="node32" class="node">
<title>Node32</title>
<g id="a_node32"><a xlink:title=" ">
<polygon fill="white" stroke="#bfbfbf" points="2336,-67.5 2336,-86.5 2388,-86.5 2388,-67.5 2336,-67.5"/>
<text text-anchor="middle" x="2362" y="-74.5" font-family="Helvetica,sans-Serif" font-size="10.00">cassert</text>
</a>
</g>
</g>
<!-- Node29&#45;&gt;Node32 -->
<g id="edge32" class="edge">
<title>Node29&#45;&gt;Node32</title>
<path fill="none" stroke="midnightblue" d="M1669.25,-142.79C1796.15,-141.74 2202.34,-135.45 2327,-98 2331.86,-96.54 2336.76,-94.31 2341.31,-91.85"/>
<polygon fill="midnightblue" stroke="midnightblue" points="2343.19,-94.81 2349.99,-86.68 2339.61,-88.79 2343.19,-94.81"/>
</g>
<!-- Node33 -->
<g id="node33" class="node">
<title>Node33</title>
<g id="a_node33"><a xlink:title=" ">
<polygon fill="white" stroke="#bfbfbf" points="2406.5,-67.5 2406.5,-86.5 2455.5,-86.5 2455.5,-67.5 2406.5,-67.5"/>
<text text-anchor="middle" x="2431" y="-74.5" font-family="Helvetica,sans-Serif" font-size="10.00">cstdlib</text>
</a>
</g>
</g>
<!-- Node29&#45;&gt;Node33 -->
<g id="edge33" class="edge">
<title>Node29&#45;&gt;Node33</title>
<path fill="none" stroke="midnightblue" d="M1669.29,-143.11C1804.48,-143.15 2258.71,-140.05 2397,-98 2401.62,-96.59 2406.28,-94.45 2410.6,-92.07"/>
<polygon fill="midnightblue" stroke="midnightblue" points="2412.67,-94.91 2419.38,-86.7 2409.02,-88.93 2412.67,-94.91"/>
</g>
<!-- Node34 -->
<g id="node34" class="node">
<title>Node34</title>
<g id="a_node34"><a xlink:title=" ">
<polygon fill="white" stroke="#bfbfbf" points="935,-67.5 935,-86.5 1003,-86.5 1003,-67.5 935,-67.5"/>
<text text-anchor="middle" x="969" y="-74.5" font-family="Helvetica,sans-Serif" font-size="10.00">filesystem</text>
</a>
</g>
</g>
<!-- Node29&#45;&gt;Node34 -->
<g id="edge34" class="edge">
<title>Node29&#45;&gt;Node34</title>
<path fill="none" stroke="midnightblue" d="M1592.84,-135.28C1589.86,-134.8 1586.88,-134.37 1584,-134 1331.29,-101.98 1258.86,-160.8 1012,-98 1005.76,-96.41 999.33,-93.93 993.39,-91.25"/>
<polygon fill="midnightblue" stroke="midnightblue" points="994.53,-87.91 984.01,-86.67 991.46,-94.2 994.53,-87.91"/>
</g>
<!-- Node35 -->
<g id="node35" class="node">
<title>Node35</title>
<g id="a_node35"><a xlink:title=" ">
<polygon fill="white" stroke="#bfbfbf" points="1021.5,-67.5 1021.5,-86.5 1076.5,-86.5 1076.5,-67.5 1021.5,-67.5"/>
<text text-anchor="middle" x="1049" y="-74.5" font-family="Helvetica,sans-Serif" font-size="10.00">fstream</text>
</a>
</g>
</g>
<!-- Node29&#45;&gt;Node35 -->
<g id="edge35" class="edge">
<title>Node29&#45;&gt;Node35</title>
<path fill="none" stroke="midnightblue" d="M1592.84,-135.31C1589.86,-134.82 1586.88,-134.38 1584,-134 1363.98,-105.08 1299.03,-160.15 1086,-98 1080.79,-96.48 1075.48,-94.16 1070.58,-91.62"/>
<polygon fill="midnightblue" stroke="midnightblue" points="1072.2,-88.52 1061.77,-86.65 1068.76,-94.61 1072.2,-88.52"/>
</g>
<!-- Node36 -->
<g id="node36" class="node">
<title>Node36</title>
<g id="a_node36"><a xlink:title=" ">
<polygon fill="white" stroke="#bfbfbf" points="1095,-67.5 1095,-86.5 1143,-86.5 1143,-67.5 1095,-67.5"/>
<text text-anchor="middle" x="1119" y="-74.5" font-family="Helvetica,sans-Serif" font-size="10.00">gsl/gsl</text>
</a>
</g>
</g>
<!-- Node29&#45;&gt;Node36 -->
<g id="edge36" class="edge">
<title>Node29&#45;&gt;Node36</title>
<path fill="none" stroke="midnightblue" d="M1592.84,-135.34C1589.85,-134.85 1586.88,-134.39 1584,-134 1393.12,-107.85 1335.25,-157.51 1152,-98 1147.51,-96.54 1142.98,-94.37 1138.79,-91.98"/>
<polygon fill="midnightblue" stroke="midnightblue" points="1140.6,-88.99 1130.27,-86.63 1136.87,-94.91 1140.6,-88.99"/>
</g>
<!-- Node37 -->
<g id="node37" class="node">
<title>Node37</title>
<g id="a_node37"><a xlink:title=" ">
<polygon fill="white" stroke="#bfbfbf" points="1161,-67.5 1161,-86.5 1221,-86.5 1221,-67.5 1161,-67.5"/>
<text text-anchor="middle" x="1191" y="-74.5" font-family="Helvetica,sans-Serif" font-size="10.00">iostream</text>
</a>
</g>
</g>
<!-- Node29&#45;&gt;Node37 -->
<g id="edge37" class="edge">
<title>Node29&#45;&gt;Node37</title>
<path fill="none" stroke="midnightblue" d="M1592.83,-135.4C1589.85,-134.9 1586.88,-134.42 1584,-134 1427.52,-111.11 1381.65,-142.86 1230,-98 1224.44,-96.35 1218.73,-93.91 1213.45,-91.3"/>
<polygon fill="midnightblue" stroke="midnightblue" points="1215.02,-88.17 1204.55,-86.54 1211.72,-94.34 1215.02,-88.17"/>
</g>
<!-- Node38 -->
<g id="node38" class="node">
<title>Node38</title>
<g id="a_node38"><a xlink:title=" ">
<polygon fill="white" stroke="#bfbfbf" points="1239,-67.5 1239,-86.5 1287,-86.5 1287,-67.5 1239,-67.5"/>
<text text-anchor="middle" x="1263" y="-74.5" font-family="Helvetica,sans-Serif" font-size="10.00">mutex</text>
</a>
</g>
</g>
<!-- Node29&#45;&gt;Node38 -->
<g id="edge38" class="edge">
<title>Node29&#45;&gt;Node38</title>
<path fill="none" stroke="midnightblue" d="M1592.82,-135.47C1589.84,-134.95 1586.87,-134.45 1584,-134 1456.59,-113.86 1417.84,-140.36 1296,-98 1291.73,-96.51 1287.42,-94.42 1283.38,-92.15"/>
<polygon fill="midnightblue" stroke="midnightblue" points="1284.96,-89.01 1274.62,-86.7 1281.26,-94.95 1284.96,-89.01"/>
</g>
<!-- Node39 -->
<g id="node39" class="node">
<title>Node39</title>
<g id="a_node39"><a xlink:title=" ">
<polygon fill="white" stroke="#bfbfbf" points="1305,-67.5 1305,-86.5 1359,-86.5 1359,-67.5 1305,-67.5"/>
<text text-anchor="middle" x="1332" y="-74.5" font-family="Helvetica,sans-Serif" font-size="10.00">random</text>
</a>
</g>
</g>
<!-- Node29&#45;&gt;Node39 -->
<g id="edge39" class="edge">
<title>Node29&#45;&gt;Node39</title>
<path fill="none" stroke="midnightblue" d="M1592.79,-135.6C1589.82,-135.05 1586.86,-134.51 1584,-134 1488.2,-116.85 1459.88,-130.1 1368,-98 1363.19,-96.32 1358.27,-94.03 1353.67,-91.59"/>
<polygon fill="midnightblue" stroke="midnightblue" points="1355.25,-88.46 1344.83,-86.54 1351.78,-94.54 1355.25,-88.46"/>
</g>
<!-- Node40 -->
<g id="node40" class="node">
<title>Node40</title>
<g id="a_node40"><a xlink:title=" ">
<polygon fill="white" stroke="#bfbfbf" points="1377,-67.5 1377,-86.5 1417,-86.5 1417,-67.5 1377,-67.5"/>
<text text-anchor="middle" x="1397" y="-74.5" font-family="Helvetica,sans-Serif" font-size="10.00">span</text>
</a>
</g>
</g>
<!-- Node29&#45;&gt;Node40 -->
<g id="edge40" class="edge">
<title>Node29&#45;&gt;Node40</title>
<path fill="none" stroke="midnightblue" d="M1592.87,-135.46C1537.87,-124.45 1441.16,-104.59 1426,-98 1422.59,-96.52 1419.16,-94.61 1415.91,-92.56"/>
<polygon fill="midnightblue" stroke="midnightblue" points="1417.63,-89.5 1407.43,-86.66 1413.64,-95.24 1417.63,-89.5"/>
</g>
<!-- Node41 -->
<g id="node41" class="node">
<title>Node41</title>
<g id="a_node41"><a xlink:title=" ">
<polygon fill="white" stroke="#bfbfbf" points="1435.5,-67.5 1435.5,-86.5 1500.5,-86.5 1500.5,-67.5 1435.5,-67.5"/>
<text text-anchor="middle" x="1468" y="-74.5" font-family="Helvetica,sans-Serif" font-size="10.00">stdexcept</text>
</a>
</g>
</g>
<!-- Node29&#45;&gt;Node41 -->
<g id="edge41" class="edge">
<title>Node29&#45;&gt;Node41</title>
<path fill="none" stroke="midnightblue" d="M1605.47,-134.42C1580.59,-125.87 1541.8,-112.01 1509,-98 1504.03,-95.88 1498.79,-93.46 1493.79,-91.07"/>
<polygon fill="midnightblue" stroke="midnightblue" points="1495.1,-87.81 1484.58,-86.56 1492.02,-94.1 1495.1,-87.81"/>
</g>
<!-- Node42 -->
<g id="node42" class="node">
<title>Node42</title>
<g id="a_node42"><a xlink:title=" ">
<polygon fill="white" stroke="#bfbfbf" points="1518.5,-67.5 1518.5,-86.5 1583.5,-86.5 1583.5,-67.5 1518.5,-67.5"/>
<text text-anchor="middle" x="1551" y="-74.5" font-family="Helvetica,sans-Serif" font-size="10.00">typeindex</text>
</a>
</g>
</g>
<!-- Node29&#45;&gt;Node42 -->
<g id="edge43" class="edge">
<title>Node29&#45;&gt;Node42</title>
<path fill="none" stroke="midnightblue" d="M1620.21,-134.23C1607.26,-123.71 1585.31,-105.88 1569.61,-93.12"/>
<polygon fill="midnightblue" stroke="midnightblue" points="1571.59,-90.22 1561.62,-86.63 1567.17,-95.65 1571.59,-90.22"/>
</g>
<!-- Node43 -->
<g id="node43" class="node">
<title>Node43</title>
<g id="a_node43"><a xlink:title=" ">
<polygon fill="white" stroke="#bfbfbf" points="1601.5,-67.5 1601.5,-86.5 1660.5,-86.5 1660.5,-67.5 1601.5,-67.5"/>
<text text-anchor="middle" x="1631" y="-74.5" font-family="Helvetica,sans-Serif" font-size="10.00">date/tz.h</text>
</a>
</g>
</g>
<!-- Node29&#45;&gt;Node43 -->
<g id="edge44" class="edge">
<title>Node29&#45;&gt;Node43</title>
<path fill="none" stroke="midnightblue" d="M1631,-134.23C1631,-124.68 1631,-109.12 1631,-96.78"/>
<polygon fill="midnightblue" stroke="midnightblue" points="1634.5,-96.63 1631,-86.63 1627.5,-96.63 1634.5,-96.63"/>
</g>
<!-- Node44 -->
<g id="node44" class="node">
<title>Node44</title>
<g id="a_node44"><a xlink:title=" ">
<polygon fill="white" stroke="#bfbfbf" points="1679,-67.5 1679,-86.5 1777,-86.5 1777,-67.5 1679,-67.5"/>
<text text-anchor="middle" x="1728" y="-74.5" font-family="Helvetica,sans-Serif" font-size="10.00">pcg_random.hpp</text>
</a>
</g>
</g>
<!-- Node29&#45;&gt;Node44 -->
<g id="edge45" class="edge">
<title>Node29&#45;&gt;Node44</title>
<path fill="none" stroke="midnightblue" d="M1644.08,-134.23C1660.15,-123.46 1687.63,-105.05 1706.75,-92.24"/>
<polygon fill="midnightblue" stroke="midnightblue" points="1708.77,-95.1 1715.13,-86.63 1704.87,-89.29 1708.77,-95.1"/>
</g>
<!-- Node45 -->
<g id="node45" class="node">
<title>Node45</title>
<g id="a_node45"><a xlink:title=" ">
<polygon fill="white" stroke="#bfbfbf" points="1795,-67.5 1795,-86.5 1881,-86.5 1881,-67.5 1795,-67.5"/>
<text text-anchor="middle" x="1838" y="-74.5" font-family="Helvetica,sans-Serif" font-size="10.00">fmt/ostream.h</text>
</a>
</g>
</g>
<!-- Node29&#45;&gt;Node45 -->
<g id="edge46" class="edge">
<title>Node29&#45;&gt;Node45</title>
<path fill="none" stroke="midnightblue" d="M1663.31,-134.48C1694.83,-125.96 1744.04,-112.13 1786,-98 1792.9,-95.68 1800.23,-92.99 1807.15,-90.36"/>
<polygon fill="midnightblue" stroke="midnightblue" points="1808.84,-93.46 1816.9,-86.58 1806.31,-86.93 1808.84,-93.46"/>
</g>
<!-- Node46 -->
<g id="node46" class="node">
<title>Node46</title>
<g id="a_node46"><a xlink:title=" ">
<polygon fill="white" stroke="#bfbfbf" points="1899,-62 1899,-92 2005,-92 2005,-62 1899,-62"/>
<text text-anchor="start" x="1907" y="-80" font-family="Helvetica,sans-Serif" font-size="10.00">spdlog/sinks/basic</text>
<text text-anchor="middle" x="1952" y="-69" font-family="Helvetica,sans-Serif" font-size="10.00">_file_sink.h</text>
</a>
</g>
</g>
<!-- Node29&#45;&gt;Node46 -->
<g id="edge47" class="edge">
<title>Node29&#45;&gt;Node46</title>
<path fill="none" stroke="midnightblue" d="M1669.09,-138.08C1719.9,-131.14 1812.46,-117.14 1890,-98 1893.78,-97.07 1897.67,-96.02 1901.57,-94.91"/>
<polygon fill="midnightblue" stroke="midnightblue" points="1902.62,-98.25 1911.21,-92.05 1900.63,-91.54 1902.62,-98.25"/>
</g>
<!-- Node47 -->
<g id="node47" class="node">
<title>Node47</title>
<g id="a_node47"><a xlink:title=" ">
<polygon fill="white" stroke="#bfbfbf" points="2023.5,-62 2023.5,-92 2134.5,-92 2134.5,-62 2023.5,-62"/>
<text text-anchor="start" x="2031.5" y="-80" font-family="Helvetica,sans-Serif" font-size="10.00">spdlog/sinks/stdout</text>
<text text-anchor="middle" x="2079" y="-69" font-family="Helvetica,sans-Serif" font-size="10.00">_color_sinks.h</text>
</a>
</g>
</g>
<!-- Node29&#45;&gt;Node47 -->
<g id="edge48" class="edge">
<title>Node29&#45;&gt;Node47</title>
<path fill="none" stroke="midnightblue" d="M1669.15,-140.82C1738.45,-136.35 1889.37,-124.27 2014,-98 2018.41,-97.07 2022.95,-95.97 2027.48,-94.78"/>
<polygon fill="midnightblue" stroke="midnightblue" points="2028.64,-98.09 2037.33,-92.04 2026.76,-91.35 2028.64,-98.09"/>
</g>
<!-- Node48&#45;&gt;Node26 -->
<g id="edge53" class="edge">
<title>Node48&#45;&gt;Node26</title>
<path fill="none" stroke="midnightblue" d="M1235.15,-526.44C1207.88,-510.43 1155,-473.16 1155,-425 1155,-425 1155,-425 1155,-199 1155,-195.66 979.26,-120.87 907.74,-90.58"/>
<polygon fill="midnightblue" stroke="midnightblue" points="908.94,-87.28 898.37,-86.61 906.21,-93.73 908.94,-87.28"/>
</g>
<!-- Node49 -->
<g id="node49" class="node">
<title>Node49</title>
<g id="a_node49"><a xlink:title=" ">
<polygon fill="white" stroke="#bfbfbf" points="1227,-470.5 1227,-489.5 1275,-489.5 1275,-470.5 1227,-470.5"/>
<text text-anchor="middle" x="1251" y="-477.5" font-family="Helvetica,sans-Serif" font-size="10.00">mpfr.h</text>
</a>
</g>
</g>
<!-- Node48&#45;&gt;Node49 -->
<g id="edge52" class="edge">
<title>Node48&#45;&gt;Node49</title>
<path fill="none" stroke="midnightblue" d="M1251,-526.08C1251,-519.01 1251,-508.86 1251,-499.99"/>
<polygon fill="midnightblue" stroke="midnightblue" points="1254.5,-499.75 1251,-489.75 1247.5,-499.75 1254.5,-499.75"/>
</g>
<!-- Node50&#45;&gt;Node3 -->
<g id="edge55" class="edge">
<title>Node50&#45;&gt;Node3</title>
<path fill="none" stroke="midnightblue" d="M1673,-582.08C1673,-575.01 1673,-564.86 1673,-555.99"/>
<polygon fill="midnightblue" stroke="midnightblue" points="1676.5,-555.75 1673,-545.75 1669.5,-555.75 1676.5,-555.75"/>
</g>
</g>
</svg>
