<?xml version="1.0" encoding="UTF-8" standalone="no"?>
<!DOCTYPE svg PUBLIC "-//W3C//DTD SVG 1.1//EN"
 "http://www.w3.org/Graphics/SVG/1.1/DTD/svg11.dtd">
<!-- Generated by graphviz version 2.43.0 (0)
 -->
<!-- Title: src/cdt&#45;opt.cpp Pages: 1 -->
<svg width="2213pt" height="610pt"
 viewBox="0.00 0.00 2212.50 610.00" xmlns="http://www.w3.org/2000/svg" xmlns:xlink="http://www.w3.org/1999/xlink">
<g id="graph0" class="graph" transform="scale(1 1) rotate(0) translate(4 606)">
<title>src/cdt&#45;opt.cpp</title>
<polygon fill="white" stroke="transparent" points="-4,4 -4,-606 2208.5,-606 2208.5,4 -4,4"/>
<!-- Node1 -->
<g id="node1" class="node">
<title>Node1</title>
<g id="a_node1"><a xlink:title="Outputs values to determine optimizations.">
<polygon fill="#bfbfbf" stroke="black" points="1025.5,-582.5 1025.5,-601.5 1114.5,-601.5 1114.5,-582.5 1025.5,-582.5"/>
<text text-anchor="middle" x="1070" y="-589.5" font-family="Helvetica,sans-Serif" font-size="10.00">src/cdt&#45;opt.cpp</text>
</a>
</g>
</g>
<!-- Node2 -->
<g id="node2" class="node">
<title>Node2</title>
<g id="a_node2"><a xlink:href="_metropolis_8hpp.html" target="_top" xlink:title="Perform Metropolis&#45;Hastings algorithm on Delaunay Triangulations.">
<polygon fill="white" stroke="black" points="1083.5,-526.5 1083.5,-545.5 1172.5,-545.5 1172.5,-526.5 1083.5,-526.5"/>
<text text-anchor="middle" x="1128" y="-533.5" font-family="Helvetica,sans-Serif" font-size="10.00">Metropolis.hpp</text>
</a>
</g>
</g>
<!-- Node1&#45;&gt;Node2 -->
<g id="edge1" class="edge">
<title>Node1&#45;&gt;Node2</title>
<path fill="none" stroke="midnightblue" d="M1079.32,-582.32C1087.89,-574.34 1100.81,-562.31 1111.19,-552.65"/>
<polygon fill="midnightblue" stroke="midnightblue" points="1113.58,-555.21 1118.51,-545.83 1108.81,-550.09 1113.58,-555.21"/>
</g>
<!-- Node53 -->
<g id="node50" class="node">
<title>Node53</title>
<g id="a_node50"><a xlink:href="_move__always_8hpp.html" target="_top" xlink:title="Randomly selects moves to always perform on triangulations.">
<polygon fill="white" stroke="black" points="961,-526.5 961,-545.5 1065,-545.5 1065,-526.5 961,-526.5"/>
<text text-anchor="middle" x="1013" y="-533.5" font-family="Helvetica,sans-Serif" font-size="10.00">Move_always.hpp</text>
</a>
</g>
</g>
<!-- Node1&#45;&gt;Node53 -->
<g id="edge58" class="edge">
<title>Node1&#45;&gt;Node53</title>
<path fill="none" stroke="midnightblue" d="M1060.84,-582.32C1052.5,-574.42 1039.97,-562.55 1029.82,-552.94"/>
<polygon fill="midnightblue" stroke="midnightblue" points="1031.99,-550.17 1022.32,-545.83 1027.18,-555.25 1031.99,-550.17"/>
</g>
<!-- Node3 -->
<g id="node3" class="node">
<title>Node3</title>
<g id="a_node3"><a xlink:href="_move__strategy_8hpp.html" target="_top" xlink:title="Template class for move algorithms (strategies) on manifolds.">
<polygon fill="white" stroke="black" points="958.5,-470.5 958.5,-489.5 1067.5,-489.5 1067.5,-470.5 958.5,-470.5"/>
<text text-anchor="middle" x="1013" y="-477.5" font-family="Helvetica,sans-Serif" font-size="10.00">Move_strategy.hpp</text>
</a>
</g>
</g>
<!-- Node2&#45;&gt;Node3 -->
<g id="edge2" class="edge">
<title>Node2&#45;&gt;Node3</title>
<path fill="none" stroke="midnightblue" d="M1109.78,-526.44C1091.1,-517.68 1061.84,-503.94 1040.38,-493.86"/>
<polygon fill="midnightblue" stroke="midnightblue" points="1041.68,-490.6 1031.14,-489.52 1038.7,-496.93 1041.68,-490.6"/>
</g>
<!-- Node51 -->
<g id="node48" class="node">
<title>Node51</title>
<g id="a_node48"><a xlink:href="_s3_action_8hpp.html" target="_top" xlink:title="Calculate S3 bulk actions on 3D Delaunay Triangulations.">
<polygon fill="white" stroke="black" points="1397,-470.5 1397,-489.5 1477,-489.5 1477,-470.5 1397,-470.5"/>
<text text-anchor="middle" x="1437" y="-477.5" font-family="Helvetica,sans-Serif" font-size="10.00">S3Action.hpp</text>
</a>
</g>
</g>
<!-- Node2&#45;&gt;Node51 -->
<g id="edge55" class="edge">
<title>Node2&#45;&gt;Node51</title>
<path fill="none" stroke="midnightblue" d="M1172.6,-527.21C1229.48,-517.27 1327.55,-500.13 1386.93,-489.75"/>
<polygon fill="midnightblue" stroke="midnightblue" points="1387.59,-493.19 1396.84,-488.02 1386.38,-486.29 1387.59,-493.19"/>
</g>
<!-- Node4 -->
<g id="node4" class="node">
<title>Node4</title>
<g id="a_node4"><a xlink:href="_move__command_8hpp.html" target="_top" xlink:title="Do ergodic moves using the Command pattern.">
<polygon fill="white" stroke="black" points="640.5,-414.5 640.5,-433.5 759.5,-433.5 759.5,-414.5 640.5,-414.5"/>
<text text-anchor="middle" x="700" y="-421.5" font-family="Helvetica,sans-Serif" font-size="10.00">Move_command.hpp</text>
</a>
</g>
</g>
<!-- Node3&#45;&gt;Node4 -->
<g id="edge3" class="edge">
<title>Node3&#45;&gt;Node4</title>
<path fill="none" stroke="midnightblue" d="M963.4,-470.44C908,-460.89 818.36,-445.42 759.29,-435.23"/>
<polygon fill="midnightblue" stroke="midnightblue" points="759.81,-431.77 749.36,-433.52 758.62,-438.67 759.81,-431.77"/>
</g>
<!-- Node5 -->
<g id="node5" class="node">
<title>Node5</title>
<g id="a_node5"><a xlink:href="_apply__move_8hpp.html" target="_top" xlink:title="Apply Pachner moves to foliated Delaunay triangulations.">
<polygon fill="white" stroke="black" points="237,-358.5 237,-377.5 335,-377.5 335,-358.5 237,-358.5"/>
<text text-anchor="middle" x="286" y="-365.5" font-family="Helvetica,sans-Serif" font-size="10.00">Apply_move.hpp</text>
</a>
</g>
</g>
<!-- Node4&#45;&gt;Node5 -->
<g id="edge4" class="edge">
<title>Node4&#45;&gt;Node5</title>
<path fill="none" stroke="midnightblue" d="M640.24,-415.21C561.49,-404.93 423.77,-386.97 345.26,-376.73"/>
<polygon fill="midnightblue" stroke="midnightblue" points="345.43,-373.22 335.06,-375.4 344.52,-380.16 345.43,-373.22"/>
</g>
<!-- Node11 -->
<g id="node11" class="node">
<title>Node11</title>
<g id="a_node11"><a xlink:href="_ergodic__moves__3_8hpp.html" target="_top" xlink:title="Pachner moves on 2+1 dimensional foliated Delaunay triangulations.">
<polygon fill="white" stroke="black" points="638.5,-358.5 638.5,-377.5 761.5,-377.5 761.5,-358.5 638.5,-358.5"/>
<text text-anchor="middle" x="700" y="-365.5" font-family="Helvetica,sans-Serif" font-size="10.00">Ergodic_moves_3.hpp</text>
</a>
</g>
</g>
<!-- Node4&#45;&gt;Node11 -->
<g id="edge10" class="edge">
<title>Node4&#45;&gt;Node11</title>
<path fill="none" stroke="midnightblue" d="M700,-414.08C700,-407.01 700,-396.86 700,-387.99"/>
<polygon fill="midnightblue" stroke="midnightblue" points="703.5,-387.75 700,-377.75 696.5,-387.75 703.5,-387.75"/>
</g>
<!-- Node6 -->
<g id="node6" class="node">
<title>Node6</title>
<g id="a_node6"><a xlink:title=" ">
<polygon fill="white" stroke="#bfbfbf" points="62.5,-67.5 62.5,-86.5 155.5,-86.5 155.5,-67.5 62.5,-67.5"/>
<text text-anchor="middle" x="109" y="-74.5" font-family="Helvetica,sans-Serif" font-size="10.00">spdlog/spdlog.h</text>
</a>
</g>
</g>
<!-- Node5&#45;&gt;Node6 -->
<g id="edge5" class="edge">
<title>Node5&#45;&gt;Node6</title>
<path fill="none" stroke="midnightblue" d="M291.56,-358.27C302.55,-340.15 326,-296.83 326,-257 326,-257 326,-257 326,-199 326,-177.7 196.84,-117.25 137.81,-90.73"/>
<polygon fill="midnightblue" stroke="midnightblue" points="139.2,-87.52 128.64,-86.63 136.34,-93.91 139.2,-87.52"/>
</g>
<!-- Node7 -->
<g id="node7" class="node">
<title>Node7</title>
<g id="a_node7"><a xlink:title=" ">
<polygon fill="white" stroke="#bfbfbf" points="70.5,-302.5 70.5,-321.5 135.5,-321.5 135.5,-302.5 70.5,-302.5"/>
<text text-anchor="middle" x="103" y="-309.5" font-family="Helvetica,sans-Serif" font-size="10.00">functional</text>
</a>
</g>
</g>
<!-- Node5&#45;&gt;Node7 -->
<g id="edge6" class="edge">
<title>Node5&#45;&gt;Node7</title>
<path fill="none" stroke="midnightblue" d="M257,-358.44C225.82,-349.24 176.07,-334.56 141.59,-324.39"/>
<polygon fill="midnightblue" stroke="midnightblue" points="142.44,-320.99 131.86,-321.52 140.46,-327.7 142.44,-320.99"/>
</g>
<!-- Node8 -->
<g id="node8" class="node">
<title>Node8</title>
<g id="a_node8"><a xlink:title=" ">
<polygon fill="white" stroke="#bfbfbf" points="0,-67.5 0,-86.5 44,-86.5 44,-67.5 0,-67.5"/>
<text text-anchor="middle" x="22" y="-74.5" font-family="Helvetica,sans-Serif" font-size="10.00">string</text>
</a>
</g>
</g>
<!-- Node5&#45;&gt;Node8 -->
<g id="edge7" class="edge">
<title>Node5&#45;&gt;Node8</title>
<path fill="none" stroke="midnightblue" d="M246.62,-358.49C225.05,-351.91 199.44,-340.68 183,-322 163.12,-299.4 164,-287.1 164,-257 164,-257 164,-257 164,-199 164,-183.19 81.41,-121.12 42.2,-92.54"/>
<polygon fill="midnightblue" stroke="midnightblue" points="44.26,-89.71 34.11,-86.67 40.15,-95.37 44.26,-89.71"/>
</g>
<!-- Node9 -->
<g id="node9" class="node">
<title>Node9</title>
<g id="a_node9"><a xlink:title=" ">
<polygon fill="white" stroke="#bfbfbf" points="505,-302.5 505,-321.5 597,-321.5 597,-302.5 505,-302.5"/>
<text text-anchor="middle" x="551" y="-309.5" font-family="Helvetica,sans-Serif" font-size="10.00">tl/expected.hpp</text>
</a>
</g>
</g>
<!-- Node5&#45;&gt;Node9 -->
<g id="edge8" class="edge">
<title>Node5&#45;&gt;Node9</title>
<path fill="none" stroke="midnightblue" d="M327.99,-358.44C374.41,-348.98 449.23,-333.74 499.24,-323.55"/>
<polygon fill="midnightblue" stroke="midnightblue" points="500.11,-326.94 509.21,-321.52 498.71,-320.08 500.11,-326.94"/>
</g>
<!-- Node10 -->
<g id="node10" class="node">
<title>Node10</title>
<g id="a_node10"><a xlink:title=" ">
<polygon fill="white" stroke="#bfbfbf" points="192.5,-302.5 192.5,-321.5 297.5,-321.5 297.5,-302.5 192.5,-302.5"/>
<text text-anchor="middle" x="245" y="-309.5" font-family="Helvetica,sans-Serif" font-size="10.00">tl/function_ref.hpp</text>
</a>
</g>
</g>
<!-- Node5&#45;&gt;Node10 -->
<g id="edge9" class="edge">
<title>Node5&#45;&gt;Node10</title>
<path fill="none" stroke="midnightblue" d="M279.23,-358.08C273.44,-350.46 264.94,-339.26 257.86,-329.94"/>
<polygon fill="midnightblue" stroke="midnightblue" points="260.48,-327.6 251.64,-321.75 254.9,-331.83 260.48,-327.6"/>
</g>
<!-- Node11&#45;&gt;Node9 -->
<g id="edge11" class="edge">
<title>Node11&#45;&gt;Node9</title>
<path fill="none" stroke="midnightblue" d="M676.39,-358.44C651.54,-349.44 612.23,-335.19 584.25,-325.05"/>
<polygon fill="midnightblue" stroke="midnightblue" points="585.09,-321.63 574.5,-321.52 582.71,-328.21 585.09,-321.63"/>
</g>
<!-- Node12 -->
<g id="node12" class="node">
<title>Node12</title>
<g id="a_node12"><a xlink:href="_manifold_8hpp.html" target="_top" xlink:title="Data structures for manifolds.">
<polygon fill="white" stroke="black" points="762,-302.5 762,-321.5 842,-321.5 842,-302.5 762,-302.5"/>
<text text-anchor="middle" x="802" y="-309.5" font-family="Helvetica,sans-Serif" font-size="10.00">Manifold.hpp</text>
</a>
</g>
</g>
<!-- Node11&#45;&gt;Node12 -->
<g id="edge12" class="edge">
<title>Node11&#45;&gt;Node12</title>
<path fill="none" stroke="midnightblue" d="M716.39,-358.32C732.67,-349.7 757.87,-336.36 776.72,-326.39"/>
<polygon fill="midnightblue" stroke="midnightblue" points="778.45,-329.43 785.65,-321.65 775.18,-323.24 778.45,-329.43"/>
</g>
<!-- Node48 -->
<g id="node45" class="node">
<title>Node48</title>
<g id="a_node45"><a xlink:href="_move__tracker_8hpp.html" target="_top" xlink:title="Track ergodic moves.">
<polygon fill="white" stroke="black" points="659.5,-190.5 659.5,-209.5 762.5,-209.5 762.5,-190.5 659.5,-190.5"/>
<text text-anchor="middle" x="711" y="-197.5" font-family="Helvetica,sans-Serif" font-size="10.00">Move_tracker.hpp</text>
</a>
</g>
</g>
<!-- Node11&#45;&gt;Node48 -->
<g id="edge48" class="edge">
<title>Node11&#45;&gt;Node48</title>
<path fill="none" stroke="midnightblue" d="M700.59,-358.08C702.32,-331.95 707.41,-255.21 709.77,-219.58"/>
<polygon fill="midnightblue" stroke="midnightblue" points="713.26,-219.78 710.43,-209.57 706.28,-219.31 713.26,-219.78"/>
</g>
<!-- Node13 -->
<g id="node13" class="node">
<title>Node13</title>
<g id="a_node13"><a xlink:title=" ">
<polygon fill="white" stroke="#bfbfbf" points="754.5,-134.5 754.5,-153.5 807.5,-153.5 807.5,-134.5 754.5,-134.5"/>
<text text-anchor="middle" x="781" y="-141.5" font-family="Helvetica,sans-Serif" font-size="10.00">cstddef</text>
</a>
</g>
</g>
<!-- Node12&#45;&gt;Node13 -->
<g id="edge13" class="edge">
<title>Node12&#45;&gt;Node13</title>
<path fill="none" stroke="midnightblue" d="M800.87,-302.08C797.57,-275.95 787.86,-199.21 783.35,-163.58"/>
<polygon fill="midnightblue" stroke="midnightblue" points="786.81,-163.05 782.08,-153.57 779.87,-163.93 786.81,-163.05"/>
</g>
<!-- Node14 -->
<g id="node14" class="node">
<title>Node14</title>
<g id="a_node14"><a xlink:title=" ">
<polygon fill="white" stroke="#bfbfbf" points="830,-246.5 830,-265.5 916,-265.5 916,-246.5 830,-246.5"/>
<text text-anchor="middle" x="873" y="-253.5" font-family="Helvetica,sans-Serif" font-size="10.00">unordered_set</text>
</a>
</g>
</g>
<!-- Node12&#45;&gt;Node14 -->
<g id="edge14" class="edge">
<title>Node12&#45;&gt;Node14</title>
<path fill="none" stroke="midnightblue" d="M813.41,-302.32C824.11,-294.18 840.34,-281.84 853.16,-272.09"/>
<polygon fill="midnightblue" stroke="midnightblue" points="855.54,-274.67 861.39,-265.83 851.31,-269.1 855.54,-274.67"/>
</g>
<!-- Node15 -->
<g id="node15" class="node">
<title>Node15</title>
<g id="a_node15"><a xlink:title=" ">
<polygon fill="white" stroke="#bfbfbf" points="728.5,-246.5 728.5,-265.5 773.5,-265.5 773.5,-246.5 728.5,-246.5"/>
<text text-anchor="middle" x="751" y="-253.5" font-family="Helvetica,sans-Serif" font-size="10.00">utility</text>
</a>
</g>
</g>
<!-- Node12&#45;&gt;Node15 -->
<g id="edge15" class="edge">
<title>Node12&#45;&gt;Node15</title>
<path fill="none" stroke="midnightblue" d="M793.58,-302.08C786.15,-294.22 775.15,-282.57 766.19,-273.08"/>
<polygon fill="midnightblue" stroke="midnightblue" points="768.68,-270.62 759.26,-265.75 763.59,-275.42 768.68,-270.62"/>
</g>
<!-- Node16 -->
<g id="node16" class="node">
<title>Node16</title>
<g id="a_node16"><a xlink:href="_geometry_8hpp.html" target="_top" xlink:title="Geometric scalars of the Manifold used to calculate the Regge action.">
<polygon fill="white" stroke="black" points="939.5,-246.5 939.5,-265.5 1024.5,-265.5 1024.5,-246.5 939.5,-246.5"/>
<text text-anchor="middle" x="982" y="-253.5" font-family="Helvetica,sans-Serif" font-size="10.00">Geometry.hpp</text>
</a>
</g>
</g>
<!-- Node12&#45;&gt;Node16 -->
<g id="edge16" class="edge">
<title>Node12&#45;&gt;Node16</title>
<path fill="none" stroke="midnightblue" d="M830.52,-302.44C861.07,-293.28 909.71,-278.69 943.6,-268.52"/>
<polygon fill="midnightblue" stroke="midnightblue" points="945.04,-271.74 953.61,-265.52 943.03,-265.04 945.04,-271.74"/>
</g>
<!-- Node17 -->
<g id="node17" class="node">
<title>Node17</title>
<g id="a_node17"><a xlink:href="_foliated__triangulation_8hpp.html" target="_top" xlink:title="Create foliated spherical triangulations.">
<polygon fill="white" stroke="black" points="913,-190.5 913,-209.5 1057,-209.5 1057,-190.5 913,-190.5"/>
<text text-anchor="middle" x="985" y="-197.5" font-family="Helvetica,sans-Serif" font-size="10.00">Foliated_triangulation.hpp</text>
</a>
</g>
</g>
<!-- Node16&#45;&gt;Node17 -->
<g id="edge17" class="edge">
<title>Node16&#45;&gt;Node17</title>
<path fill="none" stroke="midnightblue" d="M982.5,-246.08C982.89,-239.01 983.45,-228.86 983.95,-219.99"/>
<polygon fill="midnightblue" stroke="midnightblue" points="987.45,-219.93 984.51,-209.75 980.46,-219.54 987.45,-219.93"/>
</g>
<!-- Node18 -->
<g id="node18" class="node">
<title>Node18</title>
<g id="a_node18"><a xlink:title=" ">
<polygon fill="white" stroke="#bfbfbf" points="958,-134.5 958,-153.5 1018,-153.5 1018,-134.5 958,-134.5"/>
<text text-anchor="middle" x="988" y="-141.5" font-family="Helvetica,sans-Serif" font-size="10.00">concepts</text>
</a>
</g>
</g>
<!-- Node17&#45;&gt;Node18 -->
<g id="edge18" class="edge">
<title>Node17&#45;&gt;Node18</title>
<path fill="none" stroke="midnightblue" d="M985.5,-190.08C985.89,-183.01 986.45,-172.86 986.95,-163.99"/>
<polygon fill="midnightblue" stroke="midnightblue" points="990.45,-163.93 987.51,-153.75 983.46,-163.54 990.45,-163.93"/>
</g>
<!-- Node19 -->
<g id="node19" class="node">
<title>Node19</title>
<g id="a_node19"><a xlink:href="_triangulation__traits_8hpp.html" target="_top" xlink:title="Traits class for particular uses of CGAL.">
<polygon fill="white" stroke="red" points="1827.5,-134.5 1827.5,-153.5 1958.5,-153.5 1958.5,-134.5 1827.5,-134.5"/>
<text text-anchor="middle" x="1893" y="-141.5" font-family="Helvetica,sans-Serif" font-size="10.00">Triangulation_traits.hpp</text>
</a>
</g>
</g>
<!-- Node17&#45;&gt;Node19 -->
<g id="edge19" class="edge">
<title>Node17&#45;&gt;Node19</title>
<path fill="none" stroke="midnightblue" d="M1057.01,-194.72C1225.73,-184.68 1645.32,-159.73 1817.47,-149.49"/>
<polygon fill="midnightblue" stroke="midnightblue" points="1817.69,-152.99 1827.46,-148.9 1817.27,-146 1817.69,-152.99"/>
</g>
<!-- Node28 -->
<g id="node25" class="node">
<title>Node28</title>
<g id="a_node25"><a xlink:href="_utilities_8hpp.html" target="_top" xlink:title="Utility functions.">
<polygon fill="white" stroke="black" points="826,-134.5 826,-153.5 902,-153.5 902,-134.5 826,-134.5"/>
<text text-anchor="middle" x="864" y="-141.5" font-family="Helvetica,sans-Serif" font-size="10.00">Utilities.hpp</text>
</a>
</g>
</g>
<!-- Node17&#45;&gt;Node28 -->
<g id="edge25" class="edge">
<title>Node17&#45;&gt;Node28</title>
<path fill="none" stroke="midnightblue" d="M965.83,-190.44C946.09,-181.64 915.11,-167.81 892.51,-157.72"/>
<polygon fill="midnightblue" stroke="midnightblue" points="893.64,-154.4 883.08,-153.52 890.79,-160.79 893.64,-154.4"/>
</g>
<!-- Node20 -->
<g id="node20" class="node">
<title>Node20</title>
<g id="a_node20"><a xlink:title=" ">
<polygon fill="white" stroke="#bfbfbf" points="1877,-67.5 1877,-86.5 2057,-86.5 2057,-67.5 1877,-67.5"/>
<text text-anchor="middle" x="1967" y="-74.5" font-family="Helvetica,sans-Serif" font-size="10.00">CGAL/Delaunay_triangulation_3.h</text>
</a>
</g>
</g>
<!-- Node19&#45;&gt;Node20 -->
<g id="edge20" class="edge">
<title>Node19&#45;&gt;Node20</title>
<path fill="none" stroke="midnightblue" d="M1902.98,-134.23C1914.85,-123.81 1934.89,-106.21 1949.38,-93.47"/>
<polygon fill="midnightblue" stroke="midnightblue" points="1951.97,-95.86 1957.18,-86.63 1947.36,-90.6 1951.97,-95.86"/>
</g>
<!-- Node21 -->
<g id="node21" class="node">
<title>Node21</title>
<g id="a_node21"><a xlink:title=" ">
<polygon fill="white" stroke="#bfbfbf" points="2075.5,-56.5 2075.5,-97.5 2204.5,-97.5 2204.5,-56.5 2075.5,-56.5"/>
<text text-anchor="start" x="2083.5" y="-85.5" font-family="Helvetica,sans-Serif" font-size="10.00">CGAL/Exact_predicates</text>
<text text-anchor="start" x="2083.5" y="-74.5" font-family="Helvetica,sans-Serif" font-size="10.00">_inexact_constructions</text>
<text text-anchor="middle" x="2140" y="-63.5" font-family="Helvetica,sans-Serif" font-size="10.00">_kernel.h</text>
</a>
</g>
</g>
<!-- Node19&#45;&gt;Node21 -->
<g id="edge21" class="edge">
<title>Node19&#45;&gt;Node21</title>
<path fill="none" stroke="midnightblue" d="M1926.19,-134.47C1959.06,-125.99 2011.09,-112.52 2065.59,-98.1"/>
<polygon fill="midnightblue" stroke="midnightblue" points="2066.67,-101.43 2075.44,-95.49 2064.87,-94.67 2066.67,-101.43"/>
</g>
<!-- Node25 -->
<g id="node22" class="node">
<title>Node25</title>
<g id="a_node22"><a xlink:href="_settings_8hpp.html" target="_top" xlink:title="Global integer and precision settings.">
<polygon fill="white" stroke="black" points="1781.5,-67.5 1781.5,-86.5 1858.5,-86.5 1858.5,-67.5 1781.5,-67.5"/>
<text text-anchor="middle" x="1820" y="-74.5" font-family="Helvetica,sans-Serif" font-size="10.00">Settings.hpp</text>
</a>
</g>
</g>
<!-- Node19&#45;&gt;Node25 -->
<g id="edge22" class="edge">
<title>Node19&#45;&gt;Node25</title>
<path fill="none" stroke="midnightblue" d="M1883.15,-134.23C1871.44,-123.81 1851.68,-106.21 1837.38,-93.47"/>
<polygon fill="midnightblue" stroke="midnightblue" points="1839.49,-90.66 1829.69,-86.63 1834.83,-95.89 1839.49,-90.66"/>
</g>
<!-- Node26 -->
<g id="node23" class="node">
<title>Node26</title>
<g id="a_node23"><a xlink:title=" ">
<polygon fill="white" stroke="#bfbfbf" points="1693,-0.5 1693,-19.5 1833,-19.5 1833,-0.5 1693,-0.5"/>
<text text-anchor="middle" x="1763" y="-7.5" font-family="Helvetica,sans-Serif" font-size="10.00">CGAL/GMP/Gmpzf_type.h</text>
</a>
</g>
</g>
<!-- Node25&#45;&gt;Node26 -->
<g id="edge23" class="edge">
<title>Node25&#45;&gt;Node26</title>
<path fill="none" stroke="midnightblue" d="M1812.31,-67.23C1803.34,-57 1788.31,-39.86 1777.2,-27.19"/>
<polygon fill="midnightblue" stroke="midnightblue" points="1779.79,-24.84 1770.57,-19.63 1774.53,-29.45 1779.79,-24.84"/>
</g>
<!-- Node27 -->
<g id="node24" class="node">
<title>Node27</title>
<g id="a_node24"><a xlink:title=" ">
<polygon fill="white" stroke="#bfbfbf" points="1851,-0.5 1851,-19.5 1901,-19.5 1901,-0.5 1851,-0.5"/>
<text text-anchor="middle" x="1876" y="-7.5" font-family="Helvetica,sans-Serif" font-size="10.00">cstdint</text>
</a>
</g>
</g>
<!-- Node25&#45;&gt;Node27 -->
<g id="edge24" class="edge">
<title>Node25&#45;&gt;Node27</title>
<path fill="none" stroke="midnightblue" d="M1827.55,-67.23C1836.28,-57.1 1850.85,-40.19 1861.74,-27.56"/>
<polygon fill="midnightblue" stroke="midnightblue" points="1864.69,-29.49 1868.57,-19.63 1859.39,-24.92 1864.69,-29.49"/>
</g>
<!-- Node28&#45;&gt;Node6 -->
<g id="edge46" class="edge">
<title>Node28&#45;&gt;Node6</title>
<path fill="none" stroke="midnightblue" d="M825.82,-135.38C822.51,-134.86 819.2,-134.39 816,-134 528.32,-99.23 449.05,-155.32 165,-98 156.05,-96.19 146.61,-93.25 138.07,-90.17"/>
<polygon fill="midnightblue" stroke="midnightblue" points="139.15,-86.84 128.56,-86.55 136.66,-93.38 139.15,-86.84"/>
</g>
<!-- Node28&#45;&gt;Node8 -->
<g id="edge38" class="edge">
<title>Node28&#45;&gt;Node8</title>
<path fill="none" stroke="midnightblue" d="M825.82,-135.35C822.51,-134.83 819.2,-134.37 816,-134 647.4,-114.31 214.65,-149.79 53,-98 48.75,-96.64 44.51,-94.53 40.59,-92.19"/>
<polygon fill="midnightblue" stroke="midnightblue" points="42.44,-89.22 32.19,-86.54 38.54,-95.02 42.44,-89.22"/>
</g>
<!-- Node28&#45;&gt;Node25 -->
<g id="edge47" class="edge">
<title>Node28&#45;&gt;Node25</title>
<path fill="none" stroke="midnightblue" d="M902.26,-135.8C906.88,-135.1 911.54,-134.48 916,-134 1105.31,-113.72 1586.13,-139.25 1772,-98 1779.51,-96.33 1787.35,-93.56 1794.45,-90.6"/>
<polygon fill="midnightblue" stroke="midnightblue" points="1795.88,-93.79 1803.59,-86.53 1793.03,-87.4 1795.88,-93.79"/>
</g>
<!-- Node29 -->
<g id="node26" class="node">
<title>Node29</title>
<g id="a_node26"><a xlink:title=" ">
<polygon fill="white" stroke="#bfbfbf" points="1233.5,-67.5 1233.5,-86.5 1316.5,-86.5 1316.5,-67.5 1233.5,-67.5"/>
<text text-anchor="middle" x="1275" y="-74.5" font-family="Helvetica,sans-Serif" font-size="10.00">CGAL/Timer.h</text>
</a>
</g>
</g>
<!-- Node28&#45;&gt;Node29 -->
<g id="edge26" class="edge">
<title>Node28&#45;&gt;Node29</title>
<path fill="none" stroke="midnightblue" d="M902.02,-136.17C906.72,-135.4 911.47,-134.66 916,-134 1052.84,-114.2 1090.98,-131.97 1225,-98 1232.48,-96.1 1240.33,-93.35 1247.53,-90.5"/>
<polygon fill="midnightblue" stroke="midnightblue" points="1248.99,-93.68 1256.87,-86.6 1246.29,-87.22 1248.99,-93.68"/>
</g>
<!-- Node30 -->
<g id="node27" class="node">
<title>Node30</title>
<g id="a_node27"><a xlink:title=" ">
<polygon fill="white" stroke="#bfbfbf" points="1335,-67.5 1335,-86.5 1399,-86.5 1399,-67.5 1335,-67.5"/>
<text text-anchor="middle" x="1367" y="-74.5" font-family="Helvetica,sans-Serif" font-size="10.00">algorithm</text>
</a>
</g>
</g>
<!-- Node28&#45;&gt;Node30 -->
<g id="edge27" class="edge">
<title>Node28&#45;&gt;Node30</title>
<path fill="none" stroke="midnightblue" d="M902.28,-136C906.9,-135.27 911.55,-134.58 916,-134 1097.39,-110.38 1149.74,-146.92 1326,-98 1331.96,-96.34 1338.11,-93.84 1343.77,-91.15"/>
<polygon fill="midnightblue" stroke="midnightblue" points="1345.4,-94.25 1352.71,-86.58 1342.21,-88.01 1345.4,-94.25"/>
</g>
<!-- Node31 -->
<g id="node28" class="node">
<title>Node31</title>
<g id="a_node28"><a xlink:title=" ">
<polygon fill="white" stroke="#bfbfbf" points="1417,-67.5 1417,-86.5 1469,-86.5 1469,-67.5 1417,-67.5"/>
<text text-anchor="middle" x="1443" y="-74.5" font-family="Helvetica,sans-Serif" font-size="10.00">cassert</text>
</a>
</g>
</g>
<!-- Node28&#45;&gt;Node31 -->
<g id="edge28" class="edge">
<title>Node28&#45;&gt;Node31</title>
<path fill="none" stroke="midnightblue" d="M902.27,-135.94C906.89,-135.21 911.54,-134.55 916,-134 1133.62,-107.27 1198.29,-161.97 1408,-98 1412.85,-96.52 1417.76,-94.28 1422.3,-91.82"/>
<polygon fill="midnightblue" stroke="midnightblue" points="1424.18,-94.78 1430.98,-86.65 1420.6,-88.76 1424.18,-94.78"/>
</g>
<!-- Node32 -->
<g id="node29" class="node">
<title>Node32</title>
<g id="a_node29"><a xlink:title=" ">
<polygon fill="white" stroke="#bfbfbf" points="1487.5,-67.5 1487.5,-86.5 1536.5,-86.5 1536.5,-67.5 1487.5,-67.5"/>
<text text-anchor="middle" x="1512" y="-74.5" font-family="Helvetica,sans-Serif" font-size="10.00">cstdlib</text>
</a>
</g>
</g>
<!-- Node28&#45;&gt;Node32 -->
<g id="edge29" class="edge">
<title>Node28&#45;&gt;Node32</title>
<path fill="none" stroke="midnightblue" d="M902.27,-135.9C906.88,-135.18 911.54,-134.53 916,-134 1164.56,-104.62 1238.73,-171.45 1478,-98 1482.62,-96.58 1487.27,-94.43 1491.59,-92.05"/>
<polygon fill="midnightblue" stroke="midnightblue" points="1493.66,-94.89 1500.37,-86.69 1490.01,-88.91 1493.66,-94.89"/>
</g>
<!-- Node33 -->
<g id="node30" class="node">
<title>Node33</title>
<g id="a_node30"><a xlink:title=" ">
<polygon fill="white" stroke="#bfbfbf" points="1555,-67.5 1555,-86.5 1623,-86.5 1623,-67.5 1555,-67.5"/>
<text text-anchor="middle" x="1589" y="-74.5" font-family="Helvetica,sans-Serif" font-size="10.00">filesystem</text>
</a>
</g>
</g>
<!-- Node28&#45;&gt;Node33 -->
<g id="edge30" class="edge">
<title>Node28&#45;&gt;Node33</title>
<path fill="none" stroke="midnightblue" d="M902.27,-135.87C906.88,-135.16 911.54,-134.51 916,-134 1194.63,-102.03 1274,-166.36 1546,-98 1552.24,-96.43 1558.68,-93.96 1564.61,-91.28"/>
<polygon fill="midnightblue" stroke="midnightblue" points="1566.55,-94.22 1574,-86.69 1563.48,-87.94 1566.55,-94.22"/>
</g>
<!-- Node34 -->
<g id="node31" class="node">
<title>Node34</title>
<g id="a_node31"><a xlink:title=" ">
<polygon fill="white" stroke="#bfbfbf" points="1641.5,-67.5 1641.5,-86.5 1696.5,-86.5 1696.5,-67.5 1641.5,-67.5"/>
<text text-anchor="middle" x="1669" y="-74.5" font-family="Helvetica,sans-Serif" font-size="10.00">fstream</text>
</a>
</g>
</g>
<!-- Node28&#45;&gt;Node34 -->
<g id="edge31" class="edge">
<title>Node28&#45;&gt;Node34</title>
<path fill="none" stroke="midnightblue" d="M902.26,-135.84C906.88,-135.13 911.54,-134.5 916,-134 1074.34,-116.38 1478.58,-140.94 1632,-98 1637.31,-96.51 1642.71,-94.16 1647.69,-91.58"/>
<polygon fill="midnightblue" stroke="midnightblue" points="1649.63,-94.51 1656.59,-86.52 1646.16,-88.42 1649.63,-94.51"/>
</g>
<!-- Node35 -->
<g id="node32" class="node">
<title>Node35</title>
<g id="a_node32"><a xlink:title=" ">
<polygon fill="white" stroke="#bfbfbf" points="1715,-67.5 1715,-86.5 1763,-86.5 1763,-67.5 1715,-67.5"/>
<text text-anchor="middle" x="1739" y="-74.5" font-family="Helvetica,sans-Serif" font-size="10.00">gsl/gsl</text>
</a>
</g>
</g>
<!-- Node28&#45;&gt;Node35 -->
<g id="edge32" class="edge">
<title>Node28&#45;&gt;Node35</title>
<path fill="none" stroke="midnightblue" d="M902.26,-135.82C906.88,-135.12 911.54,-134.49 916,-134 1090.71,-114.98 1537.86,-149.13 1706,-98 1710.59,-96.6 1715.2,-94.42 1719.46,-92"/>
<polygon fill="midnightblue" stroke="midnightblue" points="1721.5,-94.85 1728.07,-86.54 1717.75,-88.94 1721.5,-94.85"/>
</g>
<!-- Node36 -->
<g id="node33" class="node">
<title>Node36</title>
<g id="a_node33"><a xlink:title=" ">
<polygon fill="white" stroke="#bfbfbf" points="232,-67.5 232,-86.5 292,-86.5 292,-67.5 232,-67.5"/>
<text text-anchor="middle" x="262" y="-74.5" font-family="Helvetica,sans-Serif" font-size="10.00">iostream</text>
</a>
</g>
</g>
<!-- Node28&#45;&gt;Node36 -->
<g id="edge33" class="edge">
<title>Node28&#45;&gt;Node36</title>
<path fill="none" stroke="midnightblue" d="M825.81,-135.43C822.5,-134.9 819.2,-134.41 816,-134 588.42,-104.81 522.02,-159.6 301,-98 295.41,-96.44 289.69,-94.04 284.41,-91.43"/>
<polygon fill="midnightblue" stroke="midnightblue" points="285.99,-88.3 275.52,-86.65 282.67,-94.47 285.99,-88.3"/>
</g>
<!-- Node37 -->
<g id="node34" class="node">
<title>Node37</title>
<g id="a_node34"><a xlink:title=" ">
<polygon fill="white" stroke="#bfbfbf" points="310,-67.5 310,-86.5 358,-86.5 358,-67.5 310,-67.5"/>
<text text-anchor="middle" x="334" y="-74.5" font-family="Helvetica,sans-Serif" font-size="10.00">mutex</text>
</a>
</g>
</g>
<!-- Node28&#45;&gt;Node37 -->
<g id="edge34" class="edge">
<title>Node28&#45;&gt;Node37</title>
<path fill="none" stroke="midnightblue" d="M825.81,-135.46C822.5,-134.92 819.19,-134.43 816,-134 617.56,-107.52 557.5,-159.54 367,-98 362.5,-96.55 357.98,-94.38 353.79,-92"/>
<polygon fill="midnightblue" stroke="midnightblue" points="355.6,-89 345.27,-86.64 351.87,-94.92 355.6,-89"/>
</g>
<!-- Node38 -->
<g id="node35" class="node">
<title>Node38</title>
<g id="a_node35"><a xlink:title=" ">
<polygon fill="white" stroke="#bfbfbf" points="376,-67.5 376,-86.5 430,-86.5 430,-67.5 376,-67.5"/>
<text text-anchor="middle" x="403" y="-74.5" font-family="Helvetica,sans-Serif" font-size="10.00">random</text>
</a>
</g>
</g>
<!-- Node28&#45;&gt;Node38 -->
<g id="edge35" class="edge">
<title>Node28&#45;&gt;Node38</title>
<path fill="none" stroke="midnightblue" d="M825.8,-135.52C822.49,-134.97 819.19,-134.45 816,-134 649.34,-110.47 599.74,-147.93 439,-98 434.05,-96.46 429.02,-94.2 424.36,-91.73"/>
<polygon fill="midnightblue" stroke="midnightblue" points="425.83,-88.54 415.42,-86.58 422.33,-94.61 425.83,-88.54"/>
</g>
<!-- Node39 -->
<g id="node36" class="node">
<title>Node39</title>
<g id="a_node36"><a xlink:title=" ">
<polygon fill="white" stroke="#bfbfbf" points="174,-67.5 174,-86.5 214,-86.5 214,-67.5 174,-67.5"/>
<text text-anchor="middle" x="194" y="-74.5" font-family="Helvetica,sans-Serif" font-size="10.00">span</text>
</a>
</g>
</g>
<!-- Node28&#45;&gt;Node39 -->
<g id="edge36" class="edge">
<title>Node28&#45;&gt;Node39</title>
<path fill="none" stroke="midnightblue" d="M825.81,-135.4C822.5,-134.87 819.2,-134.4 816,-134 684.98,-117.8 347.8,-141.05 223,-98 219.25,-96.71 215.54,-94.79 212.09,-92.64"/>
<polygon fill="midnightblue" stroke="midnightblue" points="213.9,-89.63 203.72,-86.7 209.85,-95.34 213.9,-89.63"/>
</g>
<!-- Node40 -->
<g id="node37" class="node">
<title>Node40</title>
<g id="a_node37"><a xlink:title=" ">
<polygon fill="white" stroke="#bfbfbf" points="448.5,-67.5 448.5,-86.5 513.5,-86.5 513.5,-67.5 448.5,-67.5"/>
<text text-anchor="middle" x="481" y="-74.5" font-family="Helvetica,sans-Serif" font-size="10.00">stdexcept</text>
</a>
</g>
</g>
<!-- Node28&#45;&gt;Node40 -->
<g id="edge37" class="edge">
<title>Node28&#45;&gt;Node40</title>
<path fill="none" stroke="midnightblue" d="M825.79,-135.61C822.48,-135.04 819.18,-134.49 816,-134 685.91,-113.86 648.23,-135.37 522,-98 516.3,-96.31 510.43,-93.9 504.96,-91.33"/>
<polygon fill="midnightblue" stroke="midnightblue" points="506.21,-88.03 495.7,-86.65 503.05,-94.28 506.21,-88.03"/>
</g>
<!-- Node41 -->
<g id="node38" class="node">
<title>Node41</title>
<g id="a_node38"><a xlink:title=" ">
<polygon fill="white" stroke="#bfbfbf" points="531.5,-67.5 531.5,-86.5 596.5,-86.5 596.5,-67.5 531.5,-67.5"/>
<text text-anchor="middle" x="564" y="-74.5" font-family="Helvetica,sans-Serif" font-size="10.00">typeindex</text>
</a>
</g>
</g>
<!-- Node28&#45;&gt;Node41 -->
<g id="edge39" class="edge">
<title>Node28&#45;&gt;Node41</title>
<path fill="none" stroke="midnightblue" d="M825.76,-135.77C822.46,-135.17 819.17,-134.57 816,-134 722.36,-117.23 695.56,-127.15 605,-98 599.44,-96.21 593.68,-93.79 588.3,-91.26"/>
<polygon fill="midnightblue" stroke="midnightblue" points="589.65,-88.02 579.14,-86.67 586.52,-94.28 589.65,-88.02"/>
</g>
<!-- Node42 -->
<g id="node39" class="node">
<title>Node42</title>
<g id="a_node39"><a xlink:title=" ">
<polygon fill="white" stroke="#bfbfbf" points="614.5,-67.5 614.5,-86.5 673.5,-86.5 673.5,-67.5 614.5,-67.5"/>
<text text-anchor="middle" x="644" y="-74.5" font-family="Helvetica,sans-Serif" font-size="10.00">date/tz.h</text>
</a>
</g>
</g>
<!-- Node28&#45;&gt;Node42 -->
<g id="edge40" class="edge">
<title>Node28&#45;&gt;Node42</title>
<path fill="none" stroke="midnightblue" d="M825.96,-134.63C780.97,-124.53 708.92,-107.72 683,-98 677.96,-96.11 672.74,-93.74 667.8,-91.3"/>
<polygon fill="midnightblue" stroke="midnightblue" points="669.31,-88.13 658.82,-86.62 666.07,-94.34 669.31,-88.13"/>
</g>
<!-- Node43 -->
<g id="node40" class="node">
<title>Node43</title>
<g id="a_node40"><a xlink:title=" ">
<polygon fill="white" stroke="#bfbfbf" points="692,-67.5 692,-86.5 742,-86.5 742,-67.5 692,-67.5"/>
<text text-anchor="middle" x="717" y="-74.5" font-family="Helvetica,sans-Serif" font-size="10.00">chrono</text>
</a>
</g>
</g>
<!-- Node28&#45;&gt;Node43 -->
<g id="edge41" class="edge">
<title>Node28&#45;&gt;Node43</title>
<path fill="none" stroke="midnightblue" d="M839.29,-134.4C816.07,-126.03 780.59,-112.49 751,-98 747.23,-96.16 743.32,-94.05 739.55,-91.91"/>
<polygon fill="midnightblue" stroke="midnightblue" points="741.03,-88.72 730.63,-86.66 737.48,-94.75 741.03,-88.72"/>
</g>
<!-- Node44 -->
<g id="node41" class="node">
<title>Node44</title>
<g id="a_node41"><a xlink:title=" ">
<polygon fill="white" stroke="#bfbfbf" points="760,-67.5 760,-86.5 858,-86.5 858,-67.5 760,-67.5"/>
<text text-anchor="middle" x="809" y="-74.5" font-family="Helvetica,sans-Serif" font-size="10.00">pcg_random.hpp</text>
</a>
</g>
</g>
<!-- Node28&#45;&gt;Node44 -->
<g id="edge42" class="edge">
<title>Node28&#45;&gt;Node44</title>
<path fill="none" stroke="midnightblue" d="M856.58,-134.23C848.01,-124.1 833.7,-107.19 823.01,-94.56"/>
<polygon fill="midnightblue" stroke="midnightblue" points="825.43,-92 816.3,-86.63 820.09,-96.52 825.43,-92"/>
</g>
<!-- Node45 -->
<g id="node42" class="node">
<title>Node45</title>
<g id="a_node42"><a xlink:title=" ">
<polygon fill="white" stroke="#bfbfbf" points="876,-67.5 876,-86.5 962,-86.5 962,-67.5 876,-67.5"/>
<text text-anchor="middle" x="919" y="-74.5" font-family="Helvetica,sans-Serif" font-size="10.00">fmt/ostream.h</text>
</a>
</g>
</g>
<!-- Node28&#45;&gt;Node45 -->
<g id="edge43" class="edge">
<title>Node28&#45;&gt;Node45</title>
<path fill="none" stroke="midnightblue" d="M871.42,-134.23C879.99,-124.1 894.3,-107.19 904.99,-94.56"/>
<polygon fill="midnightblue" stroke="midnightblue" points="907.91,-96.52 911.7,-86.63 902.57,-92 907.91,-96.52"/>
</g>
<!-- Node46 -->
<g id="node43" class="node">
<title>Node46</title>
<g id="a_node43"><a xlink:title=" ">
<polygon fill="white" stroke="#bfbfbf" points="980,-62 980,-92 1086,-92 1086,-62 980,-62"/>
<text text-anchor="start" x="988" y="-80" font-family="Helvetica,sans-Serif" font-size="10.00">spdlog/sinks/basic</text>
<text text-anchor="middle" x="1033" y="-69" font-family="Helvetica,sans-Serif" font-size="10.00">_file_sink.h</text>
</a>
</g>
</g>
<!-- Node28&#45;&gt;Node46 -->
<g id="edge44" class="edge">
<title>Node28&#45;&gt;Node46</title>
<path fill="none" stroke="midnightblue" d="M886.44,-134.37C912.02,-124.53 954.51,-108.19 987.17,-95.63"/>
<polygon fill="midnightblue" stroke="midnightblue" points="988.45,-98.88 996.53,-92.03 985.94,-92.35 988.45,-98.88"/>
</g>
<!-- Node47 -->
<g id="node44" class="node">
<title>Node47</title>
<g id="a_node44"><a xlink:title=" ">
<polygon fill="white" stroke="#bfbfbf" points="1104.5,-62 1104.5,-92 1215.5,-92 1215.5,-62 1104.5,-62"/>
<text text-anchor="start" x="1112.5" y="-80" font-family="Helvetica,sans-Serif" font-size="10.00">spdlog/sinks/stdout</text>
<text text-anchor="middle" x="1160" y="-69" font-family="Helvetica,sans-Serif" font-size="10.00">_color_sinks.h</text>
</a>
</g>
</g>
<!-- Node28&#45;&gt;Node47 -->
<g id="edge45" class="edge">
<title>Node28&#45;&gt;Node47</title>
<path fill="none" stroke="midnightblue" d="M902.17,-136.07C957.95,-125.86 1059.03,-107.01 1095,-98 1098.82,-97.04 1102.75,-96 1106.69,-94.9"/>
<polygon fill="midnightblue" stroke="midnightblue" points="1107.83,-98.21 1116.47,-92.09 1105.9,-91.49 1107.83,-98.21"/>
</g>
<!-- Node48&#45;&gt;Node13 -->
<g id="edge50" class="edge">
<title>Node48&#45;&gt;Node13</title>
<path fill="none" stroke="midnightblue" d="M722.25,-190.32C732.8,-182.18 748.8,-169.84 761.44,-160.09"/>
<polygon fill="midnightblue" stroke="midnightblue" points="763.77,-162.71 769.55,-153.83 759.49,-157.17 763.77,-162.71"/>
</g>
<!-- Node48&#45;&gt;Node25 -->
<g id="edge53" class="edge">
<title>Node48&#45;&gt;Node25</title>
<path fill="none" stroke="midnightblue" d="M762.62,-191.23C803.65,-184.15 862.07,-172.02 911,-154 928.91,-147.4 930.58,-138.98 949,-134 1302.43,-38.43 1414.64,-177.63 1772,-98 1779.51,-96.33 1787.34,-93.55 1794.45,-90.59"/>
<polygon fill="midnightblue" stroke="midnightblue" points="1795.87,-93.79 1803.59,-86.53 1793.03,-87.39 1795.87,-93.79"/>
</g>
<!-- Node48&#45;&gt;Node28 -->
<g id="edge54" class="edge">
<title>Node48&#45;&gt;Node28</title>
<path fill="none" stroke="midnightblue" d="M735.24,-190.44C760.87,-181.4 801.49,-167.06 830.24,-156.92"/>
<polygon fill="midnightblue" stroke="midnightblue" points="831.61,-160.15 839.87,-153.52 829.28,-153.54 831.61,-160.15"/>
</g>
<!-- Node48&#45;&gt;Node39 -->
<g id="edge52" class="edge">
<title>Node48&#45;&gt;Node39</title>
<path fill="none" stroke="midnightblue" d="M659.33,-190.98C550.61,-173.67 301.76,-131.66 223,-98 219.58,-96.54 216.14,-94.64 212.9,-92.6"/>
<polygon fill="midnightblue" stroke="midnightblue" points="214.62,-89.53 204.41,-86.7 210.62,-95.28 214.62,-89.53"/>
</g>
<!-- Node49 -->
<g id="node46" class="node">
<title>Node49</title>
<g id="a_node46"><a xlink:title=" ">
<polygon fill="white" stroke="#bfbfbf" points="626,-134.5 626,-153.5 668,-153.5 668,-134.5 626,-134.5"/>
<text text-anchor="middle" x="647" y="-141.5" font-family="Helvetica,sans-Serif" font-size="10.00">array</text>
</a>
</g>
</g>
<!-- Node48&#45;&gt;Node49 -->
<g id="edge49" class="edge">
<title>Node48&#45;&gt;Node49</title>
<path fill="none" stroke="midnightblue" d="M700.72,-190.32C691.16,-182.26 676.72,-170.08 665.22,-160.37"/>
<polygon fill="midnightblue" stroke="midnightblue" points="667.37,-157.61 657.47,-153.83 662.86,-162.96 667.37,-157.61"/>
</g>
<!-- Node50 -->
<g id="node47" class="node">
<title>Node50</title>
<g id="a_node47"><a xlink:title=" ">
<polygon fill="white" stroke="#bfbfbf" points="686,-134.5 686,-153.5 736,-153.5 736,-134.5 686,-134.5"/>
<text text-anchor="middle" x="711" y="-141.5" font-family="Helvetica,sans-Serif" font-size="10.00">gsl/util</text>
</a>
</g>
</g>
<!-- Node48&#45;&gt;Node50 -->
<g id="edge51" class="edge">
<title>Node48&#45;&gt;Node50</title>
<path fill="none" stroke="midnightblue" d="M711,-190.08C711,-183.01 711,-172.86 711,-163.99"/>
<polygon fill="midnightblue" stroke="midnightblue" points="714.5,-163.75 711,-153.75 707.5,-163.75 714.5,-163.75"/>
</g>
<!-- Node51&#45;&gt;Node25 -->
<g id="edge57" class="edge">
<title>Node51&#45;&gt;Node25</title>
<path fill="none" stroke="midnightblue" d="M1437,-470.44C1437,-451.94 1437,-406.81 1437,-369 1437,-369 1437,-369 1437,-199 1437,-43.49 1625.59,-150.42 1772,-98 1778.25,-95.76 1784.86,-93.16 1791.12,-90.59"/>
<polygon fill="midnightblue" stroke="midnightblue" points="1792.69,-93.73 1800.56,-86.63 1789.98,-87.27 1792.69,-93.73"/>
</g>
<!-- Node52 -->
<g id="node49" class="node">
<title>Node52</title>
<g id="a_node49"><a xlink:title=" ">
<polygon fill="white" stroke="#bfbfbf" points="1465,-414.5 1465,-433.5 1513,-433.5 1513,-414.5 1465,-414.5"/>
<text text-anchor="middle" x="1489" y="-421.5" font-family="Helvetica,sans-Serif" font-size="10.00">mpfr.h</text>
</a>
</g>
</g>
<!-- Node51&#45;&gt;Node52 -->
<g id="edge56" class="edge">
<title>Node51&#45;&gt;Node52</title>
<path fill="none" stroke="midnightblue" d="M1445.59,-470.08C1453.16,-462.22 1464.38,-450.57 1473.51,-441.08"/>
<polygon fill="midnightblue" stroke="midnightblue" points="1476.16,-443.38 1480.57,-433.75 1471.12,-438.53 1476.16,-443.38"/>
</g>
<!-- Node53&#45;&gt;Node3 -->
<g id="edge59" class="edge">
<title>Node53&#45;&gt;Node3</title>
<path fill="none" stroke="midnightblue" d="M1013,-526.08C1013,-519.01 1013,-508.86 1013,-499.99"/>
<polygon fill="midnightblue" stroke="midnightblue" points="1016.5,-499.75 1013,-489.75 1009.5,-499.75 1016.5,-499.75"/>
</g>
</g>
</svg>
