<?xml version="1.0" encoding="UTF-8" standalone="no"?>
<!DOCTYPE svg PUBLIC "-//W3C//DTD SVG 1.1//EN"
 "http://www.w3.org/Graphics/SVG/1.1/DTD/svg11.dtd">
<!-- Generated by graphviz version 2.43.0 (0)
 -->
<!-- Title: src/cdt&#45;viewer.cpp Pages: 1 -->
<!--zoomable 379 -->
<svg id="main" version="1.1" xmlns="http://www.w3.org/2000/svg" xmlns:xlink="http://www.w3.org/1999/xlink" xml:space="preserve" onload="init(evt)">
<style type="text/css"><![CDATA[
.edge:hover path { stroke: red; }
.edge:hover polygon { stroke: red; fill: red; }
]]></style>
<script type="text/javascript"><![CDATA[
var edges = document.getElementsByTagName('g');
if (edges && edges.length) {
  for (var i=0;i<edges.length;i++) {
    if (edges[i].id.substr(0,4)=='edge') {
      edges[i].setAttribute('class','edge');
    }
  }
}
]]></script>
        <defs>
                <circle id="rim" cx="0" cy="0" r="7"/>
                <circle id="rim2" cx="0" cy="0" r="3.5"/>
                <g id="zoomPlus">
                        <use xlink:href="#rim" fill="#404040">
                                <set attributeName="fill" to="#808080" begin="zoomplus.mouseover" end="zoomplus.mouseout"/>
                        </use>
                        <path d="M-4,0h8M0,-4v8" fill="none" stroke="white" stroke-width="1.5" pointer-events="none"/>
                </g>
                <g id="zoomMin">
                        <use xlink:href="#rim" fill="#404040">
                                <set attributeName="fill" to="#808080" begin="zoomminus.mouseover" end="zoomminus.mouseout"/>
                        </use>
                        <path d="M-4,0h8" fill="none" stroke="white" stroke-width="1.5" pointer-events="none"/>
                </g>
                <g id="dirArrow">
                        <path fill="none" stroke="white" stroke-width="1.5" d="M0,-3.0v7 M-2.5,-0.5L0,-3.0L2.5,-0.5"/>
                </g>
               <g id="resetDef">
                       <use xlink:href="#rim2" fill="#404040">
                               <set attributeName="fill" to="#808080" begin="reset.mouseover" end="reset.mouseout"/>
                       </use>
               </g>
        </defs>

<script type="text/javascript">
var viewWidth = 2156;
var viewHeight = 379;
var sectionId = 'dynsection-0';
</script>
<script xlink:href="svgpan.js"/>
<svg id="graph" class="graph">
<g id="viewport">
<title>src/cdt&#45;viewer.cpp</title>
<!-- Node1 -->
<g id="node1" class="node">
<title>Node1</title>
<g id="a_node1"><a xlink:title="Views 3D spacetimes.">
<polygon fill="#999999" stroke="#666666" points="484.5,-371 380.5,-371 380.5,-352 484.5,-352 484.5,-371"/>
<text text-anchor="middle" x="432.5" y="-359" font-family="Helvetica,sans-Serif" font-size="10.00">src/cdt&#45;viewer.cpp</text>
</a>
</g>
</g>
<!-- Node2 -->
<g id="node2" class="node">
<title>Node2</title>
<g id="a_node2"><a xlink:title=" ">
<polygon fill="#e0e0e0" stroke="#999999" points="265.5,-316 107.5,-316 107.5,-297 265.5,-297 265.5,-316"/>
<text text-anchor="middle" x="186.5" y="-304" font-family="Helvetica,sans-Serif" font-size="10.00">CGAL/draw_triangulation_3.h</text>
</a>
</g>
</g>
<!-- Node1&#45;&gt;Node2 -->
<g id="edge1" class="edge">
<title>Node1&#45;&gt;Node2</title>
<path fill="none" stroke="#63b8ff" d="M392.98,-351.98C350.33,-342.8 282.35,-328.15 236.14,-318.19"/>
<polygon fill="#63b8ff" stroke="#63b8ff" points="236.85,-314.77 226.33,-316.08 235.37,-321.61 236.85,-314.77"/>
</g>
<!-- Node3 -->
<g id="node3" class="node">
<title>Node3</title>
<g id="a_node3"><a xlink:title=" ">
<polygon fill="#e0e0e0" stroke="#999999" points="385,-316 284,-316 284,-297 385,-297 385,-316"/>
<text text-anchor="middle" x="334.5" y="-304" font-family="Helvetica,sans-Serif" font-size="10.00">doctest/doctest.h</text>
</a>
</g>
</g>
<!-- Node1&#45;&gt;Node3 -->
<g id="edge2" class="edge">
<title>Node1&#45;&gt;Node3</title>
<path fill="none" stroke="#63b8ff" d="M416.75,-351.98C401.27,-343.61 377.41,-330.7 359.36,-320.95"/>
<polygon fill="#63b8ff" stroke="#63b8ff" points="360.99,-317.85 350.53,-316.17 357.66,-324.01 360.99,-317.85"/>
</g>
<!-- Node4 -->
<g id="node4" class="node">
<title>Node4</title>
<g id="a_node4"><a xlink:title=" ">
<polygon fill="#e0e0e0" stroke="#999999" points="93,-85 0,-85 0,-66 93,-66 93,-85"/>
<text text-anchor="middle" x="46.5" y="-73" font-family="Helvetica,sans-Serif" font-size="10.00">spdlog/spdlog.h</text>
</a>
</g>
</g>
<!-- Node1&#45;&gt;Node4 -->
<g id="edge3" class="edge">
<title>Node1&#45;&gt;Node4</title>
<path fill="none" stroke="#63b8ff" d="M429.94,-351.91C424.75,-333.74 413.5,-290 413.5,-252.5 413.5,-252.5 413.5,-252.5 413.5,-195.5 413.5,-49.95 239.44,-142.44 101.5,-96 94.37,-93.6 86.75,-90.95 79.52,-88.4"/>
<polygon fill="#63b8ff" stroke="#63b8ff" points="80.59,-85.07 70,-85.02 78.25,-91.66 80.59,-85.07"/>
</g>
<!-- Node5 -->
<g id="node5" class="node">
<title>Node5</title>
<g id="a_node5"><a xlink:title=" ">
<polygon fill="#e0e0e0" stroke="#999999" points="730.5,-316 580.5,-316 580.5,-297 730.5,-297 730.5,-316"/>
<text text-anchor="middle" x="655.5" y="-304" font-family="Helvetica,sans-Serif" font-size="10.00">boost/program_options.hpp</text>
</a>
</g>
</g>
<!-- Node1&#45;&gt;Node5 -->
<g id="edge4" class="edge">
<title>Node1&#45;&gt;Node5</title>
<path fill="none" stroke="#63b8ff" d="M468.33,-351.98C506.66,-342.87 567.58,-328.4 609.45,-318.45"/>
<polygon fill="#63b8ff" stroke="#63b8ff" points="610.47,-321.8 619.39,-316.08 608.85,-314.99 610.47,-321.8"/>
</g>
<!-- Node6 -->
<g id="node6" class="node">
<title>Node6</title>
<g id="a_node6"><a xlink:href="_manifold_8hpp.html" target="_top" xlink:title="Data structures for manifolds.">
<polygon fill="white" stroke="#666666" points="562.5,-316 482.5,-316 482.5,-297 562.5,-297 562.5,-316"/>
<text text-anchor="middle" x="522.5" y="-304" font-family="Helvetica,sans-Serif" font-size="10.00">Manifold.hpp</text>
</a>
</g>
</g>
<!-- Node1&#45;&gt;Node6 -->
<g id="edge5" class="edge">
<title>Node1&#45;&gt;Node6</title>
<path fill="none" stroke="#63b8ff" d="M446.96,-351.98C460.92,-343.77 482.29,-331.18 498.75,-321.49"/>
<polygon fill="#63b8ff" stroke="#63b8ff" points="500.94,-324.26 507.78,-316.17 497.38,-318.23 500.94,-324.26"/>
</g>
<!-- Node20 -->
<g id="node20" class="node">
<title>Node20</title>
<g id="a_node20"><a xlink:href="_utilities_8hpp.html" target="_top" xlink:title="Utility functions.">
<polygon fill="white" stroke="#666666" points="590.5,-151 514.5,-151 514.5,-132 590.5,-132 590.5,-151"/>
<text text-anchor="middle" x="552.5" y="-139" font-family="Helvetica,sans-Serif" font-size="10.00">Utilities.hpp</text>
</a>
</g>
</g>
<!-- Node1&#45;&gt;Node20 -->
<g id="edge35" class="edge">
<title>Node1&#45;&gt;Node20</title>
<path fill="none" stroke="#63b8ff" d="M434.13,-351.72C438.13,-331.43 449.69,-280.11 470.5,-242 488.35,-209.31 517.63,-177.09 535.95,-158.53"/>
<polygon fill="#63b8ff" stroke="#63b8ff" points="538.67,-160.76 543.29,-151.23 533.73,-155.8 538.67,-160.76"/>
</g>
<!-- Node7 -->
<g id="node7" class="node">
<title>Node7</title>
<g id="a_node7"><a xlink:title=" ">
<polygon fill="#e0e0e0" stroke="#999999" points="740,-261 687,-261 687,-242 740,-242 740,-261"/>
<text text-anchor="middle" x="713.5" y="-249" font-family="Helvetica,sans-Serif" font-size="10.00">cstddef</text>
</a>
</g>
</g>
<!-- Node6&#45;&gt;Node7 -->
<g id="edge6" class="edge">
<title>Node6&#45;&gt;Node7</title>
<path fill="none" stroke="#63b8ff" d="M553.19,-296.98C586.88,-287.64 640.94,-272.64 676.83,-262.67"/>
<polygon fill="#63b8ff" stroke="#63b8ff" points="678.19,-265.93 686.89,-259.88 676.32,-259.18 678.19,-265.93"/>
</g>
<!-- Node8 -->
<g id="node8" class="node">
<title>Node8</title>
<g id="a_node8"><a xlink:title=" ">
<polygon fill="#e0e0e0" stroke="#999999" points="565.5,-261 479.5,-261 479.5,-242 565.5,-242 565.5,-261"/>
<text text-anchor="middle" x="522.5" y="-249" font-family="Helvetica,sans-Serif" font-size="10.00">unordered_set</text>
</a>
</g>
</g>
<!-- Node6&#45;&gt;Node8 -->
<g id="edge7" class="edge">
<title>Node6&#45;&gt;Node8</title>
<path fill="none" stroke="#63b8ff" d="M522.5,-296.75C522.5,-289.8 522.5,-279.85 522.5,-271.13"/>
<polygon fill="#63b8ff" stroke="#63b8ff" points="526,-271.09 522.5,-261.09 519,-271.09 526,-271.09"/>
</g>
<!-- Node9 -->
<g id="node9" class="node">
<title>Node9</title>
<g id="a_node9"><a xlink:href="_geometry_8hpp.html" target="_top" xlink:title="Geometric scalars of the Manifold used to calculate the Regge action.">
<polygon fill="white" stroke="#666666" points="669,-261 584,-261 584,-242 669,-242 669,-261"/>
<text text-anchor="middle" x="626.5" y="-249" font-family="Helvetica,sans-Serif" font-size="10.00">Geometry.hpp</text>
</a>
</g>
</g>
<!-- Node6&#45;&gt;Node9 -->
<g id="edge8" class="edge">
<title>Node6&#45;&gt;Node9</title>
<path fill="none" stroke="#63b8ff" d="M539.21,-296.98C555.71,-288.57 581.2,-275.59 600.38,-265.81"/>
<polygon fill="#63b8ff" stroke="#63b8ff" points="602.17,-268.83 609.49,-261.17 598.99,-262.59 602.17,-268.83"/>
</g>
<!-- Node10 -->
<g id="node10" class="node">
<title>Node10</title>
<g id="a_node10"><a xlink:href="_foliated__triangulation_8hpp.html" target="_top" xlink:title="Create foliated spherical triangulations.">
<polygon fill="white" stroke="#666666" points="698.5,-206 554.5,-206 554.5,-187 698.5,-187 698.5,-206"/>
<text text-anchor="middle" x="626.5" y="-194" font-family="Helvetica,sans-Serif" font-size="10.00">Foliated_triangulation.hpp</text>
</a>
</g>
</g>
<!-- Node9&#45;&gt;Node10 -->
<g id="edge9" class="edge">
<title>Node9&#45;&gt;Node10</title>
<path fill="none" stroke="#63b8ff" d="M626.5,-241.75C626.5,-234.8 626.5,-224.85 626.5,-216.13"/>
<polygon fill="#63b8ff" stroke="#63b8ff" points="630,-216.09 626.5,-206.09 623,-216.09 630,-216.09"/>
</g>
<!-- Node11 -->
<g id="node11" class="node">
<title>Node11</title>
<g id="a_node11"><a xlink:href="_triangulation__traits_8hpp.html" target="_top" xlink:title="Traits class for particular uses of CGAL.">
<polygon fill="white" stroke="#666666" points="1655,-151 1524,-151 1524,-132 1655,-132 1655,-151"/>
<text text-anchor="middle" x="1589.5" y="-139" font-family="Helvetica,sans-Serif" font-size="10.00">Triangulation_traits.hpp</text>
</a>
</g>
</g>
<!-- Node10&#45;&gt;Node11 -->
<g id="edge10" class="edge">
<title>Node10&#45;&gt;Node11</title>
<path fill="none" stroke="#63b8ff" d="M698.88,-191.52C876.42,-181.75 1332.15,-156.66 1513.45,-146.69"/>
<polygon fill="#63b8ff" stroke="#63b8ff" points="1513.9,-150.17 1523.69,-146.12 1513.52,-143.18 1513.9,-150.17"/>
</g>
<!-- Node10&#45;&gt;Node20 -->
<g id="edge19" class="edge">
<title>Node10&#45;&gt;Node20</title>
<path fill="none" stroke="#63b8ff" d="M614.61,-186.98C603.35,-178.92 586.21,-166.65 572.79,-157.03"/>
<polygon fill="#63b8ff" stroke="#63b8ff" points="574.77,-154.15 564.61,-151.17 570.7,-159.84 574.77,-154.15"/>
</g>
<!-- Node12 -->
<g id="node12" class="node">
<title>Node12</title>
<g id="a_node12"><a xlink:title=" ">
<polygon fill="#e0e0e0" stroke="#999999" points="1506.5,-85 1326.5,-85 1326.5,-66 1506.5,-66 1506.5,-85"/>
<text text-anchor="middle" x="1416.5" y="-73" font-family="Helvetica,sans-Serif" font-size="10.00">CGAL/Delaunay_triangulation_3.h</text>
</a>
</g>
</g>
<!-- Node11&#45;&gt;Node12 -->
<g id="edge11" class="edge">
<title>Node11&#45;&gt;Node12</title>
<path fill="none" stroke="#63b8ff" d="M1566.17,-131.87C1536.03,-120.72 1483.41,-101.25 1449.27,-88.62"/>
<polygon fill="#63b8ff" stroke="#63b8ff" points="1450.33,-85.28 1439.74,-85.1 1447.9,-91.85 1450.33,-85.28"/>
</g>
<!-- Node13 -->
<g id="node13" class="node">
<title>Node13</title>
<g id="a_node13"><a xlink:title=" ">
<polygon fill="#e0e0e0" stroke="#999999" points="1654,-96 1525,-96 1525,-55 1654,-55 1654,-96"/>
<text text-anchor="start" x="1533" y="-84" font-family="Helvetica,sans-Serif" font-size="10.00">CGAL/Exact_predicates</text>
<text text-anchor="start" x="1533" y="-73" font-family="Helvetica,sans-Serif" font-size="10.00">_inexact_constructions</text>
<text text-anchor="middle" x="1589.5" y="-62" font-family="Helvetica,sans-Serif" font-size="10.00">_kernel.h</text>
</a>
</g>
</g>
<!-- Node11&#45;&gt;Node13 -->
<g id="edge12" class="edge">
<title>Node11&#45;&gt;Node13</title>
<path fill="none" stroke="#63b8ff" d="M1589.5,-131.87C1589.5,-125.22 1589.5,-115.63 1589.5,-106.28"/>
<polygon fill="#63b8ff" stroke="#63b8ff" points="1593,-106.01 1589.5,-96.01 1586,-106.01 1593,-106.01"/>
</g>
<!-- Node14 -->
<g id="node14" class="node">
<title>Node14</title>
<g id="a_node14"><a xlink:title=" ">
<polygon fill="#e0e0e0" stroke="#999999" points="1821,-85 1672,-85 1672,-66 1821,-66 1821,-85"/>
<text text-anchor="middle" x="1746.5" y="-73" font-family="Helvetica,sans-Serif" font-size="10.00">CGAL/point_generators_3.h</text>
</a>
</g>
</g>
<!-- Node11&#45;&gt;Node14 -->
<g id="edge13" class="edge">
<title>Node11&#45;&gt;Node14</title>
<path fill="none" stroke="#63b8ff" d="M1610.67,-131.87C1637.79,-120.82 1684.96,-101.58 1715.96,-88.95"/>
<polygon fill="#63b8ff" stroke="#63b8ff" points="1717.47,-92.11 1725.41,-85.1 1714.83,-85.63 1717.47,-92.11"/>
</g>
<!-- Node15 -->
<g id="node15" class="node">
<title>Node15</title>
<g id="a_node15"><a xlink:title=" ">
<polygon fill="#e0e0e0" stroke="#999999" points="1977.5,-90.5 1839.5,-90.5 1839.5,-60.5 1977.5,-60.5 1977.5,-90.5"/>
<text text-anchor="start" x="1847.5" y="-78.5" font-family="Helvetica,sans-Serif" font-size="10.00">CGAL/Triangulation</text>
<text text-anchor="middle" x="1908.5" y="-67.5" font-family="Helvetica,sans-Serif" font-size="10.00">_cell_base_with_info_3.h</text>
</a>
</g>
</g>
<!-- Node11&#45;&gt;Node15 -->
<g id="edge14" class="edge">
<title>Node11&#45;&gt;Node15</title>
<path fill="none" stroke="#63b8ff" d="M1640.93,-131.96C1689.85,-123.61 1765.43,-110.13 1830.5,-96 1834.92,-95.04 1839.46,-94.01 1844.04,-92.95"/>
<polygon fill="#63b8ff" stroke="#63b8ff" points="1845.13,-96.29 1854.05,-90.57 1843.51,-89.48 1845.13,-96.29"/>
</g>
<!-- Node16 -->
<g id="node16" class="node">
<title>Node16</title>
<g id="a_node16"><a xlink:title=" ">
<polygon fill="#e0e0e0" stroke="#999999" points="2147.5,-90.5 1995.5,-90.5 1995.5,-60.5 2147.5,-60.5 2147.5,-90.5"/>
<text text-anchor="start" x="2003.5" y="-78.5" font-family="Helvetica,sans-Serif" font-size="10.00">CGAL/Triangulation</text>
<text text-anchor="middle" x="2071.5" y="-67.5" font-family="Helvetica,sans-Serif" font-size="10.00">_vertex_base_with_info_3.h</text>
</a>
</g>
</g>
<!-- Node11&#45;&gt;Node16 -->
<g id="edge15" class="edge">
<title>Node11&#45;&gt;Node16</title>
<path fill="none" stroke="#63b8ff" d="M1655.15,-135.45C1734.14,-128.84 1870.61,-115.72 1986.5,-96 1992.33,-95.01 1998.37,-93.86 2004.4,-92.64"/>
<polygon fill="#63b8ff" stroke="#63b8ff" points="2005.46,-95.99 2014.53,-90.51 2004.02,-89.14 2005.46,-95.99"/>
</g>
<!-- Node17 -->
<g id="node17" class="node">
<title>Node17</title>
<g id="a_node17"><a xlink:href="_settings_8hpp.html" target="_top" xlink:title="Global integer and precision settings.">
<polygon fill="white" stroke="#666666" points="1308,-85 1231,-85 1231,-66 1308,-66 1308,-85"/>
<text text-anchor="middle" x="1269.5" y="-73" font-family="Helvetica,sans-Serif" font-size="10.00">Settings.hpp</text>
</a>
</g>
</g>
<!-- Node11&#45;&gt;Node17 -->
<g id="edge16" class="edge">
<title>Node11&#45;&gt;Node17</title>
<path fill="none" stroke="#63b8ff" d="M1523.76,-133.92C1468.1,-127.36 1386.6,-115.42 1317.5,-96 1310.91,-94.15 1303.99,-91.67 1297.53,-89.11"/>
<polygon fill="#63b8ff" stroke="#63b8ff" points="1298.43,-85.69 1287.85,-85.08 1295.74,-92.16 1298.43,-85.69"/>
</g>
<!-- Node18 -->
<g id="node18" class="node">
<title>Node18</title>
<g id="a_node18"><a xlink:title=" ">
<polygon fill="#e0e0e0" stroke="#999999" points="1282.5,-19 1142.5,-19 1142.5,0 1282.5,0 1282.5,-19"/>
<text text-anchor="middle" x="1212.5" y="-7" font-family="Helvetica,sans-Serif" font-size="10.00">CGAL/GMP/Gmpzf_type.h</text>
</a>
</g>
</g>
<!-- Node17&#45;&gt;Node18 -->
<g id="edge17" class="edge">
<title>Node17&#45;&gt;Node18</title>
<path fill="none" stroke="#63b8ff" d="M1261.81,-65.87C1253.02,-56 1238.43,-39.61 1227.39,-27.22"/>
<polygon fill="#63b8ff" stroke="#63b8ff" points="1229.7,-24.55 1220.43,-19.41 1224.47,-29.2 1229.7,-24.55"/>
</g>
<!-- Node19 -->
<g id="node19" class="node">
<title>Node19</title>
<g id="a_node19"><a xlink:title=" ">
<polygon fill="#e0e0e0" stroke="#999999" points="1350.5,-19 1300.5,-19 1300.5,0 1350.5,0 1350.5,-19"/>
<text text-anchor="middle" x="1325.5" y="-7" font-family="Helvetica,sans-Serif" font-size="10.00">cstdint</text>
</a>
</g>
</g>
<!-- Node17&#45;&gt;Node19 -->
<g id="edge18" class="edge">
<title>Node17&#45;&gt;Node19</title>
<path fill="none" stroke="#63b8ff" d="M1277.05,-65.87C1285.69,-56 1300.03,-39.61 1310.87,-27.22"/>
<polygon fill="#63b8ff" stroke="#63b8ff" points="1313.76,-29.24 1317.71,-19.41 1308.49,-24.63 1313.76,-29.24"/>
</g>
<!-- Node20&#45;&gt;Node4 -->
<g id="edge33" class="edge">
<title>Node20&#45;&gt;Node4</title>
<path fill="none" stroke="#63b8ff" d="M514.28,-137.93C420.3,-131.4 179.92,-113.5 101.5,-96 93.13,-94.13 84.29,-91.37 76.2,-88.51"/>
<polygon fill="#63b8ff" stroke="#63b8ff" points="77.38,-85.21 66.79,-85.02 74.95,-91.78 77.38,-85.21"/>
</g>
<!-- Node20&#45;&gt;Node17 -->
<g id="edge34" class="edge">
<title>Node20&#45;&gt;Node17</title>
<path fill="none" stroke="#63b8ff" d="M590.81,-139.55C714.18,-136.26 1100.12,-123.93 1221.5,-96 1228.57,-94.37 1235.94,-91.84 1242.73,-89.13"/>
<polygon fill="#63b8ff" stroke="#63b8ff" points="1244.33,-92.25 1252.16,-85.11 1241.59,-85.81 1244.33,-92.25"/>
</g>
<!-- Node21 -->
<g id="node21" class="node">
<title>Node21</title>
<g id="a_node21"><a xlink:title=" ">
<polygon fill="#e0e0e0" stroke="#999999" points="1212.5,-85 1144.5,-85 1144.5,-66 1212.5,-66 1212.5,-85"/>
<text text-anchor="middle" x="1178.5" y="-73" font-family="Helvetica,sans-Serif" font-size="10.00">filesystem</text>
</a>
</g>
</g>
<!-- Node20&#45;&gt;Node21 -->
<g id="edge20" class="edge">
<title>Node20&#45;&gt;Node21</title>
<path fill="none" stroke="#63b8ff" d="M590.59,-139.32C702.98,-135.58 1031.76,-122.6 1135.5,-96 1141.6,-94.44 1147.92,-92.05 1153.77,-89.48"/>
<polygon fill="#63b8ff" stroke="#63b8ff" points="1155.51,-92.53 1163.05,-85.09 1152.52,-86.2 1155.51,-92.53"/>
</g>
<!-- Node22 -->
<g id="node22" class="node">
<title>Node22</title>
<g id="a_node22"><a xlink:title=" ">
<polygon fill="#e0e0e0" stroke="#999999" points="166,-85 111,-85 111,-66 166,-66 166,-85"/>
<text text-anchor="middle" x="138.5" y="-73" font-family="Helvetica,sans-Serif" font-size="10.00">fstream</text>
</a>
</g>
</g>
<!-- Node20&#45;&gt;Node22 -->
<g id="edge21" class="edge">
<title>Node20&#45;&gt;Node22</title>
<path fill="none" stroke="#63b8ff" d="M514.38,-137.78C431.68,-131.6 238.2,-115.48 175.5,-96 170.64,-94.49 165.67,-92.35 161.01,-90.03"/>
<polygon fill="#63b8ff" stroke="#63b8ff" points="162.49,-86.85 152.03,-85.17 159.16,-93.01 162.49,-86.85"/>
</g>
<!-- Node23 -->
<g id="node23" class="node">
<title>Node23</title>
<g id="a_node23"><a xlink:title=" ">
<polygon fill="#e0e0e0" stroke="#999999" points="232.5,-85 184.5,-85 184.5,-66 232.5,-66 232.5,-85"/>
<text text-anchor="middle" x="208.5" y="-73" font-family="Helvetica,sans-Serif" font-size="10.00">gsl/gsl</text>
</a>
</g>
</g>
<!-- Node20&#45;&gt;Node23 -->
<g id="edge22" class="edge">
<title>Node20&#45;&gt;Node23</title>
<path fill="none" stroke="#63b8ff" d="M514.29,-136.91C442.71,-129.88 291.16,-113.45 241.5,-96 237.33,-94.54 233.11,-92.52 229.14,-90.34"/>
<polygon fill="#63b8ff" stroke="#63b8ff" points="230.84,-87.28 220.47,-85.12 227.23,-93.28 230.84,-87.28"/>
</g>
<!-- Node24 -->
<g id="node24" class="node">
<title>Node24</title>
<g id="a_node24"><a xlink:title=" ">
<polygon fill="#e0e0e0" stroke="#999999" points="298.5,-85 250.5,-85 250.5,-66 298.5,-66 298.5,-85"/>
<text text-anchor="middle" x="274.5" y="-73" font-family="Helvetica,sans-Serif" font-size="10.00">mutex</text>
</a>
</g>
</g>
<!-- Node20&#45;&gt;Node24 -->
<g id="edge23" class="edge">
<title>Node20&#45;&gt;Node24</title>
<path fill="none" stroke="#63b8ff" d="M514.46,-137.77C465.33,-133.32 377.78,-122.19 307.5,-96 303.54,-94.53 299.52,-92.59 295.71,-90.5"/>
<polygon fill="#63b8ff" stroke="#63b8ff" points="297.2,-87.32 286.82,-85.2 293.62,-93.33 297.2,-87.32"/>
</g>
<!-- Node25 -->
<g id="node25" class="node">
<title>Node25</title>
<g id="a_node25"><a xlink:title=" ">
<polygon fill="#e0e0e0" stroke="#999999" points="370.5,-85 316.5,-85 316.5,-66 370.5,-66 370.5,-85"/>
<text text-anchor="middle" x="343.5" y="-73" font-family="Helvetica,sans-Serif" font-size="10.00">random</text>
</a>
</g>
</g>
<!-- Node20&#45;&gt;Node25 -->
<g id="edge24" class="edge">
<title>Node20&#45;&gt;Node25</title>
<path fill="none" stroke="#63b8ff" d="M514.2,-133.46C478.58,-126.26 424.39,-113.62 379.5,-96 375.14,-94.29 370.64,-92.17 366.36,-89.96"/>
<polygon fill="#63b8ff" stroke="#63b8ff" points="367.93,-86.83 357.48,-85.11 364.58,-92.97 367.93,-86.83"/>
</g>
<!-- Node26 -->
<g id="node26" class="node">
<title>Node26</title>
<g id="a_node26"><a xlink:title=" ">
<polygon fill="#e0e0e0" stroke="#999999" points="428.5,-85 388.5,-85 388.5,-66 428.5,-66 428.5,-85"/>
<text text-anchor="middle" x="408.5" y="-73" font-family="Helvetica,sans-Serif" font-size="10.00">span</text>
</a>
</g>
</g>
<!-- Node20&#45;&gt;Node26 -->
<g id="edge25" class="edge">
<title>Node20&#45;&gt;Node26</title>
<path fill="none" stroke="#63b8ff" d="M525.27,-131.88C501.49,-123.91 466.35,-111.04 437.5,-96 434.49,-94.43 431.4,-92.61 428.43,-90.73"/>
<polygon fill="#63b8ff" stroke="#63b8ff" points="430.24,-87.74 419.99,-85.09 426.35,-93.56 430.24,-87.74"/>
</g>
<!-- Node27 -->
<g id="node27" class="node">
<title>Node27</title>
<g id="a_node27"><a xlink:title=" ">
<polygon fill="#e0e0e0" stroke="#999999" points="512,-85 447,-85 447,-66 512,-66 512,-85"/>
<text text-anchor="middle" x="479.5" y="-73" font-family="Helvetica,sans-Serif" font-size="10.00">stdexcept</text>
</a>
</g>
</g>
<!-- Node20&#45;&gt;Node27 -->
<g id="edge26" class="edge">
<title>Node20&#45;&gt;Node27</title>
<path fill="none" stroke="#63b8ff" d="M542.65,-131.87C531.07,-121.71 511.62,-104.66 497.36,-92.15"/>
<polygon fill="#63b8ff" stroke="#63b8ff" points="499.48,-89.37 489.66,-85.41 494.87,-94.63 499.48,-89.37"/>
</g>
<!-- Node28 -->
<g id="node28" class="node">
<title>Node28</title>
<g id="a_node28"><a xlink:title=" ">
<polygon fill="#e0e0e0" stroke="#999999" points="574.5,-85 530.5,-85 530.5,-66 574.5,-66 574.5,-85"/>
<text text-anchor="middle" x="552.5" y="-73" font-family="Helvetica,sans-Serif" font-size="10.00">string</text>
</a>
</g>
</g>
<!-- Node20&#45;&gt;Node28 -->
<g id="edge27" class="edge">
<title>Node20&#45;&gt;Node28</title>
<path fill="none" stroke="#63b8ff" d="M552.5,-131.87C552.5,-122.66 552.5,-107.79 552.5,-95.77"/>
<polygon fill="#63b8ff" stroke="#63b8ff" points="556,-95.41 552.5,-85.41 549,-95.41 556,-95.41"/>
</g>
<!-- Node29 -->
<g id="node29" class="node">
<title>Node29</title>
<g id="a_node29"><a xlink:title=" ">
<polygon fill="#e0e0e0" stroke="#999999" points="652,-85 593,-85 593,-66 652,-66 652,-85"/>
<text text-anchor="middle" x="622.5" y="-73" font-family="Helvetica,sans-Serif" font-size="10.00">date/tz.h</text>
</a>
</g>
</g>
<!-- Node20&#45;&gt;Node29 -->
<g id="edge28" class="edge">
<title>Node20&#45;&gt;Node29</title>
<path fill="none" stroke="#63b8ff" d="M561.94,-131.87C573.05,-121.71 591.7,-104.66 605.38,-92.15"/>
<polygon fill="#63b8ff" stroke="#63b8ff" points="607.74,-94.74 612.76,-85.41 603.02,-89.57 607.74,-94.74"/>
</g>
<!-- Node30 -->
<g id="node30" class="node">
<title>Node30</title>
<g id="a_node30"><a xlink:title=" ">
<polygon fill="#e0e0e0" stroke="#999999" points="768.5,-85 670.5,-85 670.5,-66 768.5,-66 768.5,-85"/>
<text text-anchor="middle" x="719.5" y="-73" font-family="Helvetica,sans-Serif" font-size="10.00">pcg_random.hpp</text>
</a>
</g>
</g>
<!-- Node20&#45;&gt;Node30 -->
<g id="edge29" class="edge">
<title>Node20&#45;&gt;Node30</title>
<path fill="none" stroke="#63b8ff" d="M575.02,-131.87C603.99,-120.77 654.48,-101.42 687.44,-88.78"/>
<polygon fill="#63b8ff" stroke="#63b8ff" points="688.98,-91.94 697.07,-85.1 686.48,-85.41 688.98,-91.94"/>
</g>
<!-- Node31 -->
<g id="node31" class="node">
<title>Node31</title>
<g id="a_node31"><a xlink:title=" ">
<polygon fill="#e0e0e0" stroke="#999999" points="872.5,-85 786.5,-85 786.5,-66 872.5,-66 872.5,-85"/>
<text text-anchor="middle" x="829.5" y="-73" font-family="Helvetica,sans-Serif" font-size="10.00">fmt/ostream.h</text>
</a>
</g>
</g>
<!-- Node20&#45;&gt;Node31 -->
<g id="edge30" class="edge">
<title>Node20&#45;&gt;Node31</title>
<path fill="none" stroke="#63b8ff" d="M590.77,-134.89C635.91,-127.82 712.96,-114.35 777.5,-96 784.77,-93.93 792.46,-91.3 799.64,-88.65"/>
<polygon fill="#63b8ff" stroke="#63b8ff" points="800.92,-91.91 809.01,-85.07 798.42,-85.37 800.92,-91.91"/>
</g>
<!-- Node32 -->
<g id="node32" class="node">
<title>Node32</title>
<g id="a_node32"><a xlink:title=" ">
<polygon fill="#e0e0e0" stroke="#999999" points="996.5,-90.5 890.5,-90.5 890.5,-60.5 996.5,-60.5 996.5,-90.5"/>
<text text-anchor="start" x="898.5" y="-78.5" font-family="Helvetica,sans-Serif" font-size="10.00">spdlog/sinks/basic</text>
<text text-anchor="middle" x="943.5" y="-67.5" font-family="Helvetica,sans-Serif" font-size="10.00">_file_sink.h</text>
</a>
</g>
</g>
<!-- Node20&#45;&gt;Node32 -->
<g id="edge31" class="edge">
<title>Node20&#45;&gt;Node32</title>
<path fill="none" stroke="#63b8ff" d="M590.62,-137.47C652.3,-132.09 777.57,-119.2 881.5,-96 885.07,-95.2 888.73,-94.3 892.4,-93.32"/>
<polygon fill="#63b8ff" stroke="#63b8ff" points="893.4,-96.67 902.08,-90.6 891.5,-89.93 893.4,-96.67"/>
</g>
<!-- Node33 -->
<g id="node33" class="node">
<title>Node33</title>
<g id="a_node33"><a xlink:title=" ">
<polygon fill="#e0e0e0" stroke="#999999" points="1126,-90.5 1015,-90.5 1015,-60.5 1126,-60.5 1126,-90.5"/>
<text text-anchor="start" x="1023" y="-78.5" font-family="Helvetica,sans-Serif" font-size="10.00">spdlog/sinks/stdout</text>
<text text-anchor="middle" x="1070.5" y="-67.5" font-family="Helvetica,sans-Serif" font-size="10.00">_color_sinks.h</text>
</a>
</g>
</g>
<!-- Node20&#45;&gt;Node33 -->
<g id="edge32" class="edge">
<title>Node20&#45;&gt;Node33</title>
<path fill="none" stroke="#63b8ff" d="M590.75,-139.24C669.2,-136.11 853.73,-125.93 1005.5,-96 1009.6,-95.19 1013.8,-94.23 1018.01,-93.18"/>
<polygon fill="#63b8ff" stroke="#63b8ff" points="1019.02,-96.54 1027.79,-90.59 1017.23,-89.77 1019.02,-96.54"/>
</g>
</g>
</svg>
        <g id="navigator" transform="translate(0 0)" fill="#404254">
                <rect fill="#f2f5e9" fill-opacity="0.5" stroke="#606060" stroke-width=".5" x="0" y="0" width="60" height="60"/>
                <use id="zoomplus" xlink:href="#zoomPlus" x="17" y="9" onmousedown="handleZoom(evt,'in')"/>
                <use id="zoomminus" xlink:href="#zoomMin" x="42" y="9" onmousedown="handleZoom(evt,'out')"/>
                <use id="reset" xlink:href="#resetDef" x="30" y="36" onmousedown="handleReset()"/>
                <g id="arrowUp" xlink:href="#dirArrow" transform="translate(30 24)" onmousedown="handlePan(0,-1)">
                  <use xlink:href="#rim" fill="#404040">
                        <set attributeName="fill" to="#808080" begin="arrowUp.mouseover" end="arrowUp.mouseout"/>
                  </use>
                  <path fill="none" stroke="white" stroke-width="1.5" d="M0,-3.0v7 M-2.5,-0.5L0,-3.0L2.5,-0.5"/>
                </g>
                <g id="arrowRight" xlink:href="#dirArrow" transform="rotate(90) translate(36 -43)" onmousedown="handlePan(1,0)">
                  <use xlink:href="#rim" fill="#404040">
                        <set attributeName="fill" to="#808080" begin="arrowRight.mouseover" end="arrowRight.mouseout"/>
                  </use>
                  <path fill="none" stroke="white" stroke-width="1.5" d="M0,-3.0v7 M-2.5,-0.5L0,-3.0L2.5,-0.5"/>
                </g>
                <g id="arrowDown" xlink:href="#dirArrow" transform="rotate(180) translate(-30 -48)" onmousedown="handlePan(0,1)">
                  <use xlink:href="#rim" fill="#404040">
                        <set attributeName="fill" to="#808080" begin="arrowDown.mouseover" end="arrowDown.mouseout"/>
                  </use>
                  <path fill="none" stroke="white" stroke-width="1.5" d="M0,-3.0v7 M-2.5,-0.5L0,-3.0L2.5,-0.5"/>
                </g>
                <g id="arrowLeft" xlink:href="#dirArrow" transform="rotate(270) translate(-36 17)" onmousedown="handlePan(-1,0)">
                  <use xlink:href="#rim" fill="#404040">
                        <set attributeName="fill" to="#808080" begin="arrowLeft.mouseover" end="arrowLeft.mouseout"/>
                  </use>
                  <path fill="none" stroke="white" stroke-width="1.5" d="M0,-3.0v7 M-2.5,-0.5L0,-3.0L2.5,-0.5"/>
                </g>
        </g>
        <svg viewBox="0 0 15 15" width="100%" height="30px" preserveAspectRatio="xMaxYMin meet">
         <g id="arrow_out" transform="scale(0.3 0.3)">
          <a xlink:href="cdt-viewer_8cpp__incl_org.svg" target="_base">
           <rect id="button" ry="5" rx="5" y="6" x="6" height="38" width="38"
                fill="#f2f5e9" fill-opacity="0.5" stroke="#606060" stroke-width="1.0"/>
           <path id="arrow"
             d="M 11.500037,31.436501 C 11.940474,20.09759 22.043105,11.32322 32.158766,21.979434 L 37.068811,17.246167 C 37.068811,17.246167 37.088388,32 37.088388,32 L 22.160133,31.978069 C 22.160133,31.978069 26.997745,27.140456 26.997745,27.140456 C 18.528582,18.264221 13.291696,25.230495 11.500037,31.436501 z"
             style="fill:#404040;"/>
          </a>
         </g>
        </svg>
</svg>
