<?xml version="1.0" encoding="UTF-8" standalone="no"?>
<!DOCTYPE svg PUBLIC "-//W3C//DTD SVG 1.1//EN"
 "http://www.w3.org/Graphics/SVG/1.1/DTD/svg11.dtd">
<!-- Generated by graphviz version 2.43.0 (0)
 -->
<!-- Title: src/cdt&#45;gv.cpp Pages: 1 -->
<svg width="1358pt" height="162pt"
 viewBox="0.00 0.00 1358.00 162.00" xmlns="http://www.w3.org/2000/svg" xmlns:xlink="http://www.w3.org/1999/xlink">
<g id="graph0" class="graph" transform="scale(1 1) rotate(0) translate(4 158)">
<title>src/cdt&#45;gv.cpp</title>
<polygon fill="white" stroke="transparent" points="-4,4 -4,-158 1354,-158 1354,4 -4,4"/>
<!-- Node1 -->
<g id="node1" class="node">
<title>Node1</title>
<g id="a_node1"><a xlink:title="A pipeline from CDT++ to Geomview , a visualizer.">
<polygon fill="#bfbfbf" stroke="black" points="810,-134.5 810,-153.5 894,-153.5 894,-134.5 810,-134.5"/>
<text text-anchor="middle" x="852" y="-141.5" font-family="Helvetica,sans-Serif" font-size="10.00">src/cdt&#45;gv.cpp</text>
</a>
</g>
</g>
<!-- Node2 -->
<g id="node2" class="node">
<title>Node2</title>
<g id="a_node2"><a xlink:title=" ">
<polygon fill="white" stroke="#bfbfbf" points="0,-67.5 0,-86.5 180,-86.5 180,-67.5 0,-67.5"/>
<text text-anchor="middle" x="90" y="-74.5" font-family="Helvetica,sans-Serif" font-size="10.00">CGAL/Delaunay_triangulation_3.h</text>
</a>
</g>
</g>
<!-- Node1&#45;&gt;Node2 -->
<g id="edge1" class="edge">
<title>Node1&#45;&gt;Node2</title>
<path fill="none" stroke="midnightblue" d="M809.92,-142.06C704.77,-139.31 422.26,-129.34 189,-98 171.73,-95.68 152.95,-92.15 136.43,-88.69"/>
<polygon fill="midnightblue" stroke="midnightblue" points="136.99,-85.23 126.48,-86.56 135.52,-92.08 136.99,-85.23"/>
</g>
<!-- Node3 -->
<g id="node3" class="node">
<title>Node3</title>
<g id="a_node3"><a xlink:title=" ">
<polygon fill="white" stroke="#bfbfbf" points="198.5,-56.5 198.5,-97.5 327.5,-97.5 327.5,-56.5 198.5,-56.5"/>
<text text-anchor="start" x="206.5" y="-85.5" font-family="Helvetica,sans-Serif" font-size="10.00">CGAL/Exact_predicates</text>
<text text-anchor="start" x="206.5" y="-74.5" font-family="Helvetica,sans-Serif" font-size="10.00">_inexact_constructions</text>
<text text-anchor="middle" x="263" y="-63.5" font-family="Helvetica,sans-Serif" font-size="10.00">_kernel.h</text>
</a>
</g>
</g>
<!-- Node1&#45;&gt;Node3 -->
<g id="edge2" class="edge">
<title>Node1&#45;&gt;Node3</title>
<path fill="none" stroke="midnightblue" d="M809.86,-141.9C723,-139.07 517.75,-129.54 337.65,-98.14"/>
<polygon fill="midnightblue" stroke="midnightblue" points="338.2,-94.69 327.74,-96.39 336.98,-101.58 338.2,-94.69"/>
</g>
<!-- Node4 -->
<g id="node4" class="node">
<title>Node4</title>
<g id="a_node4"><a xlink:title=" ">
<polygon fill="white" stroke="#bfbfbf" points="345.5,-67.5 345.5,-86.5 506.5,-86.5 506.5,-67.5 345.5,-67.5"/>
<text text-anchor="middle" x="426" y="-74.5" font-family="Helvetica,sans-Serif" font-size="10.00">CGAL/IO/Geomview_stream.h</text>
</a>
</g>
</g>
<!-- Node1&#45;&gt;Node4 -->
<g id="edge3" class="edge">
<title>Node1&#45;&gt;Node4</title>
<path fill="none" stroke="midnightblue" d="M809.78,-138.57C745.78,-131.59 620.46,-116.85 515,-98 500.45,-95.4 484.68,-92.04 470.51,-88.81"/>
<polygon fill="midnightblue" stroke="midnightblue" points="471.05,-85.34 460.51,-86.5 469.47,-92.16 471.05,-85.34"/>
</g>
<!-- Node5 -->
<g id="node5" class="node">
<title>Node5</title>
<g id="a_node5"><a xlink:title=" ">
<polygon fill="white" stroke="#bfbfbf" points="524.5,-62 524.5,-92 663.5,-92 663.5,-62 524.5,-62"/>
<text text-anchor="start" x="532.5" y="-80" font-family="Helvetica,sans-Serif" font-size="10.00">CGAL/IO/Triangulation</text>
<text text-anchor="middle" x="594" y="-69" font-family="Helvetica,sans-Serif" font-size="10.00">_geomview_ostream_3.h</text>
</a>
</g>
</g>
<!-- Node1&#45;&gt;Node5 -->
<g id="edge4" class="edge">
<title>Node1&#45;&gt;Node5</title>
<path fill="none" stroke="midnightblue" d="M817.48,-134.43C781.23,-125.43 722.59,-110.81 672,-98 667.61,-96.89 663.09,-95.74 658.53,-94.58"/>
<polygon fill="midnightblue" stroke="midnightblue" points="659.09,-91.11 648.54,-92.03 657.36,-97.89 659.09,-91.11"/>
</g>
<!-- Node6 -->
<g id="node6" class="node">
<title>Node6</title>
<g id="a_node6"><a xlink:title=" ">
<polygon fill="white" stroke="#bfbfbf" points="681.5,-62 681.5,-92 806.5,-92 806.5,-62 681.5,-62"/>
<text text-anchor="start" x="689.5" y="-80" font-family="Helvetica,sans-Serif" font-size="10.00">CGAL/Projection_traits</text>
<text text-anchor="middle" x="744" y="-69" font-family="Helvetica,sans-Serif" font-size="10.00">_xy_3.h</text>
</a>
</g>
</g>
<!-- Node1&#45;&gt;Node6 -->
<g id="edge5" class="edge">
<title>Node1&#45;&gt;Node6</title>
<path fill="none" stroke="midnightblue" d="M837.43,-134.23C821.79,-124.82 796.42,-109.55 776.07,-97.3"/>
<polygon fill="midnightblue" stroke="midnightblue" points="777.78,-94.25 767.41,-92.09 774.17,-100.24 777.78,-94.25"/>
</g>
<!-- Node7 -->
<g id="node7" class="node">
<title>Node7</title>
<g id="a_node7"><a xlink:title=" ">
<polygon fill="white" stroke="#bfbfbf" points="824.5,-67.5 824.5,-86.5 879.5,-86.5 879.5,-67.5 824.5,-67.5"/>
<text text-anchor="middle" x="852" y="-74.5" font-family="Helvetica,sans-Serif" font-size="10.00">fstream</text>
</a>
</g>
</g>
<!-- Node1&#45;&gt;Node7 -->
<g id="edge6" class="edge">
<title>Node1&#45;&gt;Node7</title>
<path fill="none" stroke="midnightblue" d="M852,-134.23C852,-124.68 852,-109.12 852,-96.78"/>
<polygon fill="midnightblue" stroke="midnightblue" points="855.5,-96.63 852,-86.63 848.5,-96.63 855.5,-96.63"/>
</g>
<!-- Node8 -->
<g id="node8" class="node">
<title>Node8</title>
<g id="a_node8"><a xlink:title=" ">
<polygon fill="white" stroke="#bfbfbf" points="898,-67.5 898,-86.5 946,-86.5 946,-67.5 898,-67.5"/>
<text text-anchor="middle" x="922" y="-74.5" font-family="Helvetica,sans-Serif" font-size="10.00">gsl/gsl</text>
</a>
</g>
</g>
<!-- Node1&#45;&gt;Node8 -->
<g id="edge7" class="edge">
<title>Node1&#45;&gt;Node8</title>
<path fill="none" stroke="midnightblue" d="M861.44,-134.23C872.67,-123.81 891.62,-106.21 905.34,-93.47"/>
<polygon fill="midnightblue" stroke="midnightblue" points="907.76,-96 912.71,-86.63 903,-90.87 907.76,-96"/>
</g>
<!-- Node9 -->
<g id="node9" class="node">
<title>Node9</title>
<g id="a_node9"><a xlink:title=" ">
<polygon fill="white" stroke="#bfbfbf" points="964.5,-67.5 964.5,-86.5 1023.5,-86.5 1023.5,-67.5 964.5,-67.5"/>
<text text-anchor="middle" x="994" y="-74.5" font-family="Helvetica,sans-Serif" font-size="10.00">docopt.h</text>
</a>
</g>
</g>
<!-- Node1&#45;&gt;Node9 -->
<g id="edge8" class="edge">
<title>Node1&#45;&gt;Node9</title>
<path fill="none" stroke="midnightblue" d="M872.69,-134.41C893.61,-125.61 926.79,-111.38 955,-98 959.49,-95.87 964.23,-93.53 968.79,-91.21"/>
<polygon fill="midnightblue" stroke="midnightblue" points="970.49,-94.28 977.79,-86.6 967.3,-88.05 970.49,-94.28"/>
</g>
<!-- Node10 -->
<g id="node10" class="node">
<title>Node10</title>
<g id="a_node10"><a xlink:title=" ">
<polygon fill="white" stroke="#bfbfbf" points="1041.5,-67.5 1041.5,-86.5 1120.5,-86.5 1120.5,-67.5 1041.5,-67.5"/>
<text text-anchor="middle" x="1081" y="-74.5" font-family="Helvetica,sans-Serif" font-size="10.00">fmt/format.h</text>
</a>
</g>
</g>
<!-- Node1&#45;&gt;Node10 -->
<g id="edge9" class="edge">
<title>Node1&#45;&gt;Node10</title>
<path fill="none" stroke="midnightblue" d="M893.22,-134.45C930.01,-126.41 985.16,-113.33 1032,-98 1038.69,-95.81 1045.76,-93.14 1052.39,-90.48"/>
<polygon fill="midnightblue" stroke="midnightblue" points="1053.78,-93.69 1061.69,-86.63 1051.11,-87.22 1053.78,-93.69"/>
</g>
<!-- Node11 -->
<g id="node11" class="node">
<title>Node11</title>
<g id="a_node11"><a xlink:title=" ">
<polygon fill="white" stroke="#bfbfbf" points="1139,-67.5 1139,-86.5 1225,-86.5 1225,-67.5 1139,-67.5"/>
<text text-anchor="middle" x="1182" y="-74.5" font-family="Helvetica,sans-Serif" font-size="10.00">fmt/ostream.h</text>
</a>
</g>
</g>
<!-- Node1&#45;&gt;Node11 -->
<g id="edge10" class="edge">
<title>Node1&#45;&gt;Node11</title>
<path fill="none" stroke="midnightblue" d="M894.32,-138.79C949.13,-132.73 1047.33,-119.81 1129,-98 1136.8,-95.92 1145.04,-93.12 1152.64,-90.27"/>
<polygon fill="midnightblue" stroke="midnightblue" points="1154.13,-93.45 1162.18,-86.56 1151.59,-86.92 1154.13,-93.45"/>
</g>
<!-- Node12 -->
<g id="node12" class="node">
<title>Node12</title>
<g id="a_node12"><a xlink:href="_settings_8hpp.html" target="_top" xlink:title="Global integer and precision settings.">
<polygon fill="white" stroke="black" points="1243.5,-67.5 1243.5,-86.5 1320.5,-86.5 1320.5,-67.5 1243.5,-67.5"/>
<text text-anchor="middle" x="1282" y="-74.5" font-family="Helvetica,sans-Serif" font-size="10.00">Settings.hpp</text>
</a>
</g>
</g>
<!-- Node1&#45;&gt;Node12 -->
<g id="edge11" class="edge">
<title>Node1&#45;&gt;Node12</title>
<path fill="none" stroke="midnightblue" d="M894.25,-141.84C965.45,-139.03 1113.36,-129.58 1234,-98 1241.04,-96.16 1248.41,-93.49 1255.2,-90.7"/>
<polygon fill="midnightblue" stroke="midnightblue" points="1256.84,-93.8 1264.63,-86.61 1254.06,-87.38 1256.84,-93.8"/>
</g>
<!-- Node13 -->
<g id="node13" class="node">
<title>Node13</title>
<g id="a_node13"><a xlink:title=" ">
<polygon fill="white" stroke="#bfbfbf" points="1196,-0.5 1196,-19.5 1282,-19.5 1282,-0.5 1196,-0.5"/>
<text text-anchor="middle" x="1239" y="-7.5" font-family="Helvetica,sans-Serif" font-size="10.00">CGAL/Gmpzf.h</text>
</a>
</g>
</g>
<!-- Node12&#45;&gt;Node13 -->
<g id="edge12" class="edge">
<title>Node12&#45;&gt;Node13</title>
<path fill="none" stroke="midnightblue" d="M1276.2,-67.23C1269.62,-57.29 1258.74,-40.84 1250.44,-28.29"/>
<polygon fill="midnightblue" stroke="midnightblue" points="1253.14,-26.04 1244.71,-19.63 1247.31,-29.9 1253.14,-26.04"/>
</g>
<!-- Node14 -->
<g id="node14" class="node">
<title>Node14</title>
<g id="a_node14"><a xlink:title=" ">
<polygon fill="white" stroke="#bfbfbf" points="1300,-0.5 1300,-19.5 1350,-19.5 1350,-0.5 1300,-0.5"/>
<text text-anchor="middle" x="1325" y="-7.5" font-family="Helvetica,sans-Serif" font-size="10.00">cstdint</text>
</a>
</g>
</g>
<!-- Node12&#45;&gt;Node14 -->
<g id="edge13" class="edge">
<title>Node12&#45;&gt;Node14</title>
<path fill="none" stroke="midnightblue" d="M1287.8,-67.23C1294.38,-57.29 1305.26,-40.84 1313.56,-28.29"/>
<polygon fill="midnightblue" stroke="midnightblue" points="1316.69,-29.9 1319.29,-19.63 1310.86,-26.04 1316.69,-29.9"/>
</g>
</g>
</svg>
