<?xml version="1.0" encoding="UTF-8" standalone="no"?>
<!DOCTYPE svg PUBLIC "-//W3C//DTD SVG 1.1//EN"
 "http://www.w3.org/Graphics/SVG/1.1/DTD/svg11.dtd">
<!-- Generated by graphviz version 2.43.0 (0)
 -->
<!-- Title: src/cdt&#45;opt.cpp Pages: 1 -->
<!--zoomable 599 -->
<svg id="main" version="1.1" xmlns="http://www.w3.org/2000/svg" xmlns:xlink="http://www.w3.org/1999/xlink" xml:space="preserve" onload="init(evt)">
<style type="text/css"><![CDATA[
.edge:hover path { stroke: red; }
.edge:hover polygon { stroke: red; fill: red; }
]]></style>
<script type="text/javascript"><![CDATA[
var edges = document.getElementsByTagName('g');
if (edges && edges.length) {
  for (var i=0;i<edges.length;i++) {
    if (edges[i].id.substr(0,4)=='edge') {
      edges[i].setAttribute('class','edge');
    }
  }
}
]]></script>
        <defs>
                <circle id="rim" cx="0" cy="0" r="7"/>
                <circle id="rim2" cx="0" cy="0" r="3.5"/>
                <g id="zoomPlus">
                        <use xlink:href="#rim" fill="#404040">
                                <set attributeName="fill" to="#808080" begin="zoomplus.mouseover" end="zoomplus.mouseout"/>
                        </use>
                        <path d="M-4,0h8M0,-4v8" fill="none" stroke="white" stroke-width="1.5" pointer-events="none"/>
                </g>
                <g id="zoomMin">
                        <use xlink:href="#rim" fill="#404040">
                                <set attributeName="fill" to="#808080" begin="zoomminus.mouseover" end="zoomminus.mouseout"/>
                        </use>
                        <path d="M-4,0h8" fill="none" stroke="white" stroke-width="1.5" pointer-events="none"/>
                </g>
                <g id="dirArrow">
                        <path fill="none" stroke="white" stroke-width="1.5" d="M0,-3.0v7 M-2.5,-0.5L0,-3.0L2.5,-0.5"/>
                </g>
               <g id="resetDef">
                       <use xlink:href="#rim2" fill="#404040">
                               <set attributeName="fill" to="#808080" begin="reset.mouseover" end="reset.mouseout"/>
                       </use>
               </g>
        </defs>

<script type="text/javascript">
var viewWidth = 2141;
var viewHeight = 599;
var sectionId = 'dynsection-0';
</script>
<script xlink:href="svgpan.js"/>
<svg id="graph" class="graph">
<g id="viewport">
<title>src/cdt&#45;opt.cpp</title>
<polygon fill="white" stroke="transparent" points="-4,4 -4,-595 2136.5,-595 2136.5,4 -4,4"/>
<!-- Node1 -->
<g id="node1" class="node">
<title>Node1</title>
<g id="a_node1"><a xlink:title="Outputs values to determine optimizations.">
<polygon fill="#bfbfbf" stroke="black" points="934,-571.5 934,-590.5 1023,-590.5 1023,-571.5 934,-571.5"/>
<text text-anchor="middle" x="978.5" y="-578.5" font-family="Helvetica,sans-Serif" font-size="10.00">src/cdt&#45;opt.cpp</text>
</a>
</g>
</g>
<!-- Node2 -->
<g id="node2" class="node">
<title>Node2</title>
<g id="a_node2"><a xlink:href="_metropolis_8hpp.html" target="_top" xlink:title="Perform Metropolis&#45;Hastings algorithm on Delaunay Triangulations.">
<polygon fill="white" stroke="black" points="992,-515.5 992,-534.5 1081,-534.5 1081,-515.5 992,-515.5"/>
<text text-anchor="middle" x="1036.5" y="-522.5" font-family="Helvetica,sans-Serif" font-size="10.00">Metropolis.hpp</text>
</a>
</g>
</g>
<!-- Node1&#45;&gt;Node2 -->
<g id="edge1" class="edge">
<title>Node1&#45;&gt;Node2</title>
<path fill="none" stroke="midnightblue" d="M987.82,-571.32C996.39,-563.34 1009.31,-551.31 1019.69,-541.65"/>
<polygon fill="midnightblue" stroke="midnightblue" points="1022.08,-544.21 1027.01,-534.83 1017.31,-539.09 1022.08,-544.21"/>
</g>
<!-- Node54 -->
<g id="node50" class="node">
<title>Node54</title>
<g id="a_node50"><a xlink:href="_move__always_8hpp.html" target="_top" xlink:title="Randomly selects moves to always perform on triangulations.">
<polygon fill="white" stroke="black" points="869.5,-515.5 869.5,-534.5 973.5,-534.5 973.5,-515.5 869.5,-515.5"/>
<text text-anchor="middle" x="921.5" y="-522.5" font-family="Helvetica,sans-Serif" font-size="10.00">Move_always.hpp</text>
</a>
</g>
</g>
<!-- Node1&#45;&gt;Node54 -->
<g id="edge58" class="edge">
<title>Node1&#45;&gt;Node54</title>
<path fill="none" stroke="midnightblue" d="M969.34,-571.32C961,-563.42 948.47,-551.55 938.32,-541.94"/>
<polygon fill="midnightblue" stroke="midnightblue" points="940.49,-539.17 930.82,-534.83 935.68,-544.25 940.49,-539.17"/>
</g>
<!-- Node3 -->
<g id="node3" class="node">
<title>Node3</title>
<g id="a_node3"><a xlink:href="_move__strategy_8hpp.html" target="_top" xlink:title="Template class for move algorithms (strategies) on manifolds.">
<polygon fill="white" stroke="black" points="867,-459.5 867,-478.5 976,-478.5 976,-459.5 867,-459.5"/>
<text text-anchor="middle" x="921.5" y="-466.5" font-family="Helvetica,sans-Serif" font-size="10.00">Move_strategy.hpp</text>
</a>
</g>
</g>
<!-- Node2&#45;&gt;Node3 -->
<g id="edge2" class="edge">
<title>Node2&#45;&gt;Node3</title>
<path fill="none" stroke="midnightblue" d="M1018.28,-515.44C999.6,-506.68 970.34,-492.94 948.88,-482.86"/>
<polygon fill="midnightblue" stroke="midnightblue" points="950.18,-479.6 939.64,-478.52 947.2,-485.93 950.18,-479.6"/>
</g>
<!-- Node52 -->
<g id="node48" class="node">
<title>Node52</title>
<g id="a_node48"><a xlink:href="_s3_action_8hpp.html" target="_top" xlink:title="Calculate S3 bulk actions on 3D Delaunay Triangulations.">
<polygon fill="white" stroke="black" points="1108.5,-459.5 1108.5,-478.5 1188.5,-478.5 1188.5,-459.5 1108.5,-459.5"/>
<text text-anchor="middle" x="1148.5" y="-466.5" font-family="Helvetica,sans-Serif" font-size="10.00">S3Action.hpp</text>
</a>
</g>
</g>
<!-- Node2&#45;&gt;Node52 -->
<g id="edge55" class="edge">
<title>Node2&#45;&gt;Node52</title>
<path fill="none" stroke="midnightblue" d="M1054.49,-515.32C1072.54,-506.62 1100.55,-493.12 1121.3,-483.11"/>
<polygon fill="midnightblue" stroke="midnightblue" points="1123.06,-486.15 1130.55,-478.65 1120.02,-479.84 1123.06,-486.15"/>
</g>
<!-- Node4 -->
<g id="node4" class="node">
<title>Node4</title>
<g id="a_node4"><a xlink:href="_move__command_8hpp.html" target="_top" xlink:title="Do ergodic moves using the Command pattern.">
<polygon fill="white" stroke="black" points="750,-403.5 750,-422.5 869,-422.5 869,-403.5 750,-403.5"/>
<text text-anchor="middle" x="809.5" y="-410.5" font-family="Helvetica,sans-Serif" font-size="10.00">Move_command.hpp</text>
</a>
</g>
</g>
<!-- Node3&#45;&gt;Node4 -->
<g id="edge3" class="edge">
<title>Node3&#45;&gt;Node4</title>
<path fill="none" stroke="midnightblue" d="M903.51,-459.32C885.46,-450.62 857.45,-437.12 836.7,-427.11"/>
<polygon fill="midnightblue" stroke="midnightblue" points="837.98,-423.84 827.45,-422.65 834.94,-430.15 837.98,-423.84"/>
</g>
<!-- Node5 -->
<g id="node5" class="node">
<title>Node5</title>
<g id="a_node5"><a xlink:href="_apply__move_8hpp.html" target="_top" xlink:title="Apply Pachner moves to foliated Delaunay triangulations.">
<polygon fill="white" stroke="black" points="186.5,-347.5 186.5,-366.5 284.5,-366.5 284.5,-347.5 186.5,-347.5"/>
<text text-anchor="middle" x="235.5" y="-354.5" font-family="Helvetica,sans-Serif" font-size="10.00">Apply_move.hpp</text>
</a>
</g>
</g>
<!-- Node4&#45;&gt;Node5 -->
<g id="edge4" class="edge">
<title>Node4&#45;&gt;Node5</title>
<path fill="none" stroke="midnightblue" d="M749.97,-406.4C639.81,-396.04 405.38,-373.98 295.14,-363.61"/>
<polygon fill="midnightblue" stroke="midnightblue" points="295.15,-360.1 284.87,-362.64 294.5,-367.07 295.15,-360.1"/>
</g>
<!-- Node11 -->
<g id="node11" class="node">
<title>Node11</title>
<g id="a_node11"><a xlink:href="_ergodic__moves__3_8hpp.html" target="_top" xlink:title="Pachner moves on 2+1 dimensional foliated Delaunay triangulations.">
<polygon fill="white" stroke="black" points="748,-347.5 748,-366.5 871,-366.5 871,-347.5 748,-347.5"/>
<text text-anchor="middle" x="809.5" y="-354.5" font-family="Helvetica,sans-Serif" font-size="10.00">Ergodic_moves_3.hpp</text>
</a>
</g>
</g>
<!-- Node4&#45;&gt;Node11 -->
<g id="edge10" class="edge">
<title>Node4&#45;&gt;Node11</title>
<path fill="none" stroke="midnightblue" d="M809.5,-403.08C809.5,-396.01 809.5,-385.86 809.5,-376.99"/>
<polygon fill="midnightblue" stroke="midnightblue" points="813,-376.75 809.5,-366.75 806,-376.75 813,-376.75"/>
</g>
<!-- Node6 -->
<g id="node6" class="node">
<title>Node6</title>
<g id="a_node6"><a xlink:title=" ">
<polygon fill="white" stroke="#bfbfbf" points="8,-62 8,-81 101,-81 101,-62 8,-62"/>
<text text-anchor="middle" x="54.5" y="-69" font-family="Helvetica,sans-Serif" font-size="10.00">spdlog/spdlog.h</text>
</a>
</g>
</g>
<!-- Node5&#45;&gt;Node6 -->
<g id="edge5" class="edge">
<title>Node5&#45;&gt;Node6</title>
<path fill="none" stroke="midnightblue" d="M232.94,-347.25C227.75,-328.74 216.5,-284.18 216.5,-246 216.5,-246 216.5,-246 216.5,-188 216.5,-130.48 147.95,-98.92 100.03,-83.88"/>
<polygon fill="midnightblue" stroke="midnightblue" points="101.04,-80.53 90.45,-81.01 99.03,-87.24 101.04,-80.53"/>
</g>
<!-- Node7 -->
<g id="node7" class="node">
<title>Node7</title>
<g id="a_node7"><a xlink:title=" ">
<polygon fill="white" stroke="#bfbfbf" points="0,-291.5 0,-310.5 65,-310.5 65,-291.5 0,-291.5"/>
<text text-anchor="middle" x="32.5" y="-298.5" font-family="Helvetica,sans-Serif" font-size="10.00">functional</text>
</a>
</g>
</g>
<!-- Node5&#45;&gt;Node7 -->
<g id="edge6" class="edge">
<title>Node5&#45;&gt;Node7</title>
<path fill="none" stroke="midnightblue" d="M203.33,-347.44C168.44,-338.16 112.61,-323.31 74.33,-313.13"/>
<polygon fill="midnightblue" stroke="midnightblue" points="75.08,-309.7 64.52,-310.52 73.28,-316.47 75.08,-309.7"/>
</g>
<!-- Node8 -->
<g id="node8" class="node">
<title>Node8</title>
<g id="a_node8"><a xlink:title=" ">
<polygon fill="white" stroke="#bfbfbf" points="119.5,-62 119.5,-81 163.5,-81 163.5,-62 119.5,-62"/>
<text text-anchor="middle" x="141.5" y="-69" font-family="Helvetica,sans-Serif" font-size="10.00">string</text>
</a>
</g>
</g>
<!-- Node5&#45;&gt;Node8 -->
<g id="edge7" class="edge">
<title>Node5&#45;&gt;Node8</title>
<path fill="none" stroke="midnightblue" d="M238.06,-347.25C243.25,-328.74 254.5,-284.18 254.5,-246 254.5,-246 254.5,-246 254.5,-188 254.5,-157.2 250.44,-146.47 230.5,-123 221.74,-112.69 191.92,-96.78 169.19,-85.58"/>
<polygon fill="midnightblue" stroke="midnightblue" points="170.49,-82.32 159.96,-81.1 167.43,-88.62 170.49,-82.32"/>
</g>
<!-- Node9 -->
<g id="node9" class="node">
<title>Node9</title>
<g id="a_node9"><a xlink:title=" ">
<polygon fill="white" stroke="#bfbfbf" points="395.5,-291.5 395.5,-310.5 487.5,-310.5 487.5,-291.5 395.5,-291.5"/>
<text text-anchor="middle" x="441.5" y="-298.5" font-family="Helvetica,sans-Serif" font-size="10.00">tl/expected.hpp</text>
</a>
</g>
</g>
<!-- Node5&#45;&gt;Node9 -->
<g id="edge8" class="edge">
<title>Node5&#45;&gt;Node9</title>
<path fill="none" stroke="midnightblue" d="M268.14,-347.44C303.55,-338.16 360.21,-323.31 399.05,-313.13"/>
<polygon fill="midnightblue" stroke="midnightblue" points="400.23,-316.44 409.01,-310.52 398.45,-309.67 400.23,-316.44"/>
</g>
<!-- Node10 -->
<g id="node10" class="node">
<title>Node10</title>
<g id="a_node10"><a xlink:title=" ">
<polygon fill="white" stroke="#bfbfbf" points="83,-291.5 83,-310.5 188,-310.5 188,-291.5 83,-291.5"/>
<text text-anchor="middle" x="135.5" y="-298.5" font-family="Helvetica,sans-Serif" font-size="10.00">tl/function_ref.hpp</text>
</a>
</g>
</g>
<!-- Node5&#45;&gt;Node10 -->
<g id="edge9" class="edge">
<title>Node5&#45;&gt;Node10</title>
<path fill="none" stroke="midnightblue" d="M219.43,-347.32C203.54,-338.74 178.99,-325.49 160.54,-315.52"/>
<polygon fill="midnightblue" stroke="midnightblue" points="161.99,-312.33 151.53,-310.65 158.66,-318.49 161.99,-312.33"/>
</g>
<!-- Node11&#45;&gt;Node9 -->
<g id="edge11" class="edge">
<title>Node11&#45;&gt;Node9</title>
<path fill="none" stroke="midnightblue" d="M751.19,-347.44C681.69,-337.25 566.38,-320.32 497.79,-310.26"/>
<polygon fill="midnightblue" stroke="midnightblue" points="498.01,-306.75 487.61,-308.77 496.99,-313.68 498.01,-306.75"/>
</g>
<!-- Node12 -->
<g id="node12" class="node">
<title>Node12</title>
<g id="a_node12"><a xlink:href="_manifold_8hpp.html" target="_top" xlink:title="Data structures for manifolds.">
<polygon fill="white" stroke="black" points="924.5,-291.5 924.5,-310.5 1004.5,-310.5 1004.5,-291.5 924.5,-291.5"/>
<text text-anchor="middle" x="964.5" y="-298.5" font-family="Helvetica,sans-Serif" font-size="10.00">Manifold.hpp</text>
</a>
</g>
</g>
<!-- Node11&#45;&gt;Node12 -->
<g id="edge12" class="edge">
<title>Node11&#45;&gt;Node12</title>
<path fill="none" stroke="midnightblue" d="M834.06,-347.44C860.02,-338.4 901.17,-324.06 930.3,-313.92"/>
<polygon fill="midnightblue" stroke="midnightblue" points="931.76,-317.11 940.05,-310.52 929.46,-310.5 931.76,-317.11"/>
</g>
<!-- Node49 -->
<g id="node45" class="node">
<title>Node49</title>
<g id="a_node45"><a xlink:href="_move__tracker_8hpp.html" target="_top" xlink:title="Track ergodic moves.">
<polygon fill="white" stroke="black" points="860,-179.5 860,-198.5 963,-198.5 963,-179.5 860,-179.5"/>
<text text-anchor="middle" x="911.5" y="-186.5" font-family="Helvetica,sans-Serif" font-size="10.00">Move_tracker.hpp</text>
</a>
</g>
</g>
<!-- Node11&#45;&gt;Node49 -->
<g id="edge48" class="edge">
<title>Node11&#45;&gt;Node49</title>
<path fill="none" stroke="midnightblue" d="M808.44,-347.44C806.27,-326.23 803.48,-270.43 828.5,-235 839.17,-219.89 856.56,-209.36 872.68,-202.3"/>
<polygon fill="midnightblue" stroke="midnightblue" points="874,-205.54 881.96,-198.54 871.37,-199.05 874,-205.54"/>
</g>
<!-- Node13 -->
<g id="node13" class="node">
<title>Node13</title>
<g id="a_node13"><a xlink:title=" ">
<polygon fill="white" stroke="#bfbfbf" points="951,-123.5 951,-142.5 1004,-142.5 1004,-123.5 951,-123.5"/>
<text text-anchor="middle" x="977.5" y="-130.5" font-family="Helvetica,sans-Serif" font-size="10.00">cstddef</text>
</a>
</g>
</g>
<!-- Node12&#45;&gt;Node13 -->
<g id="edge13" class="edge">
<title>Node12&#45;&gt;Node13</title>
<path fill="none" stroke="midnightblue" d="M972.98,-291.23C980.55,-282.75 991.1,-269.13 995.5,-255 1006.5,-219.65 994.17,-176.34 985.19,-152.3"/>
<polygon fill="midnightblue" stroke="midnightblue" points="988.33,-150.72 981.39,-142.71 981.82,-153.3 988.33,-150.72"/>
</g>
<!-- Node14 -->
<g id="node14" class="node">
<title>Node14</title>
<g id="a_node14"><a xlink:title=" ">
<polygon fill="white" stroke="#bfbfbf" points="837.5,-235.5 837.5,-254.5 923.5,-254.5 923.5,-235.5 837.5,-235.5"/>
<text text-anchor="middle" x="880.5" y="-242.5" font-family="Helvetica,sans-Serif" font-size="10.00">unordered_set</text>
</a>
</g>
</g>
<!-- Node12&#45;&gt;Node14 -->
<g id="edge14" class="edge">
<title>Node12&#45;&gt;Node14</title>
<path fill="none" stroke="midnightblue" d="M951,-291.32C937.9,-282.9 917.79,-269.97 902.39,-260.07"/>
<polygon fill="midnightblue" stroke="midnightblue" points="904.27,-257.12 893.96,-254.65 900.48,-263.01 904.27,-257.12"/>
</g>
<!-- Node15 -->
<g id="node15" class="node">
<title>Node15</title>
<g id="a_node15"><a xlink:title=" ">
<polygon fill="white" stroke="#bfbfbf" points="942,-235.5 942,-254.5 987,-254.5 987,-235.5 942,-235.5"/>
<text text-anchor="middle" x="964.5" y="-242.5" font-family="Helvetica,sans-Serif" font-size="10.00">utility</text>
</a>
</g>
</g>
<!-- Node12&#45;&gt;Node15 -->
<g id="edge15" class="edge">
<title>Node12&#45;&gt;Node15</title>
<path fill="none" stroke="midnightblue" d="M964.5,-291.08C964.5,-284.01 964.5,-273.86 964.5,-264.99"/>
<polygon fill="midnightblue" stroke="midnightblue" points="968,-264.75 964.5,-254.75 961,-264.75 968,-264.75"/>
</g>
<!-- Node16 -->
<g id="node16" class="node">
<title>Node16</title>
<g id="a_node16"><a xlink:href="_geometry_8hpp.html" target="_top" xlink:title="Geometric scalars of the Manifold used to calculate the Regge action.">
<polygon fill="white" stroke="black" points="1070,-235.5 1070,-254.5 1155,-254.5 1155,-235.5 1070,-235.5"/>
<text text-anchor="middle" x="1112.5" y="-242.5" font-family="Helvetica,sans-Serif" font-size="10.00">Geometry.hpp</text>
</a>
</g>
</g>
<!-- Node12&#45;&gt;Node16 -->
<g id="edge16" class="edge">
<title>Node12&#45;&gt;Node16</title>
<path fill="none" stroke="midnightblue" d="M987.95,-291.44C1012.63,-282.44 1051.69,-268.19 1079.48,-258.05"/>
<polygon fill="midnightblue" stroke="midnightblue" points="1080.96,-261.23 1089.16,-254.52 1078.56,-254.66 1080.96,-261.23"/>
</g>
<!-- Node17 -->
<g id="node17" class="node">
<title>Node17</title>
<g id="a_node17"><a xlink:href="_foliated__triangulation_8hpp.html" target="_top" xlink:title="Create foliated spherical triangulations.">
<polygon fill="white" stroke="black" points="1066.5,-179.5 1066.5,-198.5 1210.5,-198.5 1210.5,-179.5 1066.5,-179.5"/>
<text text-anchor="middle" x="1138.5" y="-186.5" font-family="Helvetica,sans-Serif" font-size="10.00">Foliated_triangulation.hpp</text>
</a>
</g>
</g>
<!-- Node16&#45;&gt;Node17 -->
<g id="edge17" class="edge">
<title>Node16&#45;&gt;Node17</title>
<path fill="none" stroke="midnightblue" d="M1116.79,-235.08C1120.35,-227.69 1125.52,-216.95 1129.92,-207.81"/>
<polygon fill="midnightblue" stroke="midnightblue" points="1133.1,-209.28 1134.29,-198.75 1126.79,-206.24 1133.1,-209.28"/>
</g>
<!-- Node18 -->
<g id="node18" class="node">
<title>Node18</title>
<g id="a_node18"><a xlink:title=" ">
<polygon fill="white" stroke="#bfbfbf" points="1154.5,-123.5 1154.5,-142.5 1214.5,-142.5 1214.5,-123.5 1154.5,-123.5"/>
<text text-anchor="middle" x="1184.5" y="-130.5" font-family="Helvetica,sans-Serif" font-size="10.00">concepts</text>
</a>
</g>
</g>
<!-- Node17&#45;&gt;Node18 -->
<g id="edge18" class="edge">
<title>Node17&#45;&gt;Node18</title>
<path fill="none" stroke="midnightblue" d="M1146.1,-179.08C1152.73,-171.3 1162.52,-159.8 1170.56,-150.37"/>
<polygon fill="midnightblue" stroke="midnightblue" points="1173.23,-152.63 1177.05,-142.75 1167.9,-148.09 1173.23,-152.63"/>
</g>
<!-- Node19 -->
<g id="node19" class="node">
<title>Node19</title>
<g id="a_node19"><a xlink:href="_triangulation__traits_8hpp.html" target="_top" xlink:title="Traits class for particular uses of CGAL.">
<polygon fill="white" stroke="red" points="1830,-123.5 1830,-142.5 1961,-142.5 1961,-123.5 1830,-123.5"/>
<text text-anchor="middle" x="1895.5" y="-130.5" font-family="Helvetica,sans-Serif" font-size="10.00">Triangulation_traits.hpp</text>
</a>
</g>
</g>
<!-- Node17&#45;&gt;Node19 -->
<g id="edge19" class="edge">
<title>Node17&#45;&gt;Node19</title>
<path fill="none" stroke="midnightblue" d="M1210.74,-182.85C1354.11,-172.62 1673.34,-149.85 1819.62,-139.41"/>
<polygon fill="midnightblue" stroke="midnightblue" points="1820.13,-142.89 1829.85,-138.68 1819.63,-135.9 1820.13,-142.89"/>
</g>
<!-- Node28 -->
<g id="node24" class="node">
<title>Node28</title>
<g id="a_node24"><a xlink:href="_utilities_8hpp.html" target="_top" xlink:title="Utility functions.">
<polygon fill="white" stroke="black" points="1022.5,-123.5 1022.5,-142.5 1098.5,-142.5 1098.5,-123.5 1022.5,-123.5"/>
<text text-anchor="middle" x="1060.5" y="-130.5" font-family="Helvetica,sans-Serif" font-size="10.00">Utilities.hpp</text>
</a>
</g>
</g>
<!-- Node17&#45;&gt;Node28 -->
<g id="edge24" class="edge">
<title>Node17&#45;&gt;Node28</title>
<path fill="none" stroke="midnightblue" d="M1125.97,-179.32C1113.91,-170.98 1095.47,-158.21 1081.23,-148.35"/>
<polygon fill="midnightblue" stroke="midnightblue" points="1083.22,-145.47 1073,-142.65 1079.23,-151.22 1083.22,-145.47"/>
</g>
<!-- Node20 -->
<g id="node20" class="node">
<title>Node20</title>
<g id="a_node20"><a xlink:title=" ">
<polygon fill="white" stroke="#bfbfbf" points="1952.5,-62 1952.5,-81 2132.5,-81 2132.5,-62 1952.5,-62"/>
<text text-anchor="middle" x="2042.5" y="-69" font-family="Helvetica,sans-Serif" font-size="10.00">CGAL/Delaunay_triangulation_3.h</text>
</a>
</g>
</g>
<!-- Node19&#45;&gt;Node20 -->
<g id="edge20" class="edge">
<title>Node19&#45;&gt;Node20</title>
<path fill="none" stroke="midnightblue" d="M1916.56,-123.48C1941.56,-113.36 1983.44,-96.4 2011.99,-84.85"/>
<polygon fill="midnightblue" stroke="midnightblue" points="2013.52,-88.01 2021.48,-81.01 2010.89,-81.52 2013.52,-88.01"/>
</g>
<!-- Node25 -->
<g id="node21" class="node">
<title>Node25</title>
<g id="a_node21"><a xlink:href="_settings_8hpp.html" target="_top" xlink:title="Global integer and precision settings.">
<polygon fill="white" stroke="black" points="1857,-62 1857,-81 1934,-81 1934,-62 1857,-62"/>
<text text-anchor="middle" x="1895.5" y="-69" font-family="Helvetica,sans-Serif" font-size="10.00">Settings.hpp</text>
</a>
</g>
</g>
<!-- Node19&#45;&gt;Node25 -->
<g id="edge21" class="edge">
<title>Node19&#45;&gt;Node25</title>
<path fill="none" stroke="midnightblue" d="M1895.5,-123.48C1895.5,-115.08 1895.5,-101.98 1895.5,-91.16"/>
<polygon fill="midnightblue" stroke="midnightblue" points="1899,-91.01 1895.5,-81.01 1892,-91.01 1899,-91.01"/>
</g>
<!-- Node26 -->
<g id="node22" class="node">
<title>Node26</title>
<g id="a_node22"><a xlink:title=" ">
<polygon fill="white" stroke="#bfbfbf" points="1768.5,-0.5 1768.5,-19.5 1908.5,-19.5 1908.5,-0.5 1768.5,-0.5"/>
<text text-anchor="middle" x="1838.5" y="-7.5" font-family="Helvetica,sans-Serif" font-size="10.00">CGAL/GMP/Gmpzf_type.h</text>
</a>
</g>
</g>
<!-- Node25&#45;&gt;Node26 -->
<g id="edge22" class="edge">
<title>Node25&#45;&gt;Node26</title>
<path fill="none" stroke="midnightblue" d="M1887.33,-61.98C1878.61,-52.87 1864.6,-38.24 1853.81,-26.98"/>
<polygon fill="midnightblue" stroke="midnightblue" points="1856.1,-24.31 1846.65,-19.51 1851.04,-29.15 1856.1,-24.31"/>
</g>
<!-- Node27 -->
<g id="node23" class="node">
<title>Node27</title>
<g id="a_node23"><a xlink:title=" ">
<polygon fill="white" stroke="#bfbfbf" points="1926.5,-0.5 1926.5,-19.5 1976.5,-19.5 1976.5,-0.5 1926.5,-0.5"/>
<text text-anchor="middle" x="1951.5" y="-7.5" font-family="Helvetica,sans-Serif" font-size="10.00">cstdint</text>
</a>
</g>
</g>
<!-- Node25&#45;&gt;Node27 -->
<g id="edge23" class="edge">
<title>Node25&#45;&gt;Node27</title>
<path fill="none" stroke="midnightblue" d="M1903.52,-61.98C1912.09,-52.87 1925.86,-38.24 1936.46,-26.98"/>
<polygon fill="midnightblue" stroke="midnightblue" points="1939.19,-29.19 1943.49,-19.51 1934.09,-24.39 1939.19,-29.19"/>
</g>
<!-- Node28&#45;&gt;Node6 -->
<g id="edge46" class="edge">
<title>Node28&#45;&gt;Node6</title>
<path fill="none" stroke="midnightblue" d="M1022.32,-124.32C1019.01,-123.81 1015.7,-123.36 1012.5,-123 613.83,-77.91 507.4,-145.62 110.5,-87 104.64,-86.14 98.52,-84.9 92.55,-83.51"/>
<polygon fill="midnightblue" stroke="midnightblue" points="93.3,-80.09 82.75,-81.07 91.6,-86.88 93.3,-80.09"/>
</g>
<!-- Node28&#45;&gt;Node8 -->
<g id="edge37" class="edge">
<title>Node28&#45;&gt;Node8</title>
<path fill="none" stroke="midnightblue" d="M1022.32,-124.33C1019.01,-123.82 1015.7,-123.37 1012.5,-123 826.88,-101.73 353.98,-131.44 172.5,-87 170.51,-86.51 168.49,-85.89 166.49,-85.19"/>
<polygon fill="midnightblue" stroke="midnightblue" points="167.4,-81.77 156.83,-81.13 164.69,-88.23 167.4,-81.77"/>
</g>
<!-- Node28&#45;&gt;Node25 -->
<g id="edge47" class="edge">
<title>Node28&#45;&gt;Node25</title>
<path fill="none" stroke="midnightblue" d="M1098.76,-124.83C1103.38,-124.13 1108.04,-123.49 1112.5,-123 1438.02,-87.01 1525.95,-143.72 1848.5,-87 1852.97,-86.21 1857.62,-85.13 1862.17,-83.9"/>
<polygon fill="midnightblue" stroke="midnightblue" points="1863.26,-87.23 1871.87,-81.05 1861.29,-80.51 1863.26,-87.23"/>
</g>
<!-- Node29 -->
<g id="node25" class="node">
<title>Node29</title>
<g id="a_node25"><a xlink:title=" ">
<polygon fill="white" stroke="#bfbfbf" points="927,-62 927,-81 1010,-81 1010,-62 927,-62"/>
<text text-anchor="middle" x="968.5" y="-69" font-family="Helvetica,sans-Serif" font-size="10.00">CGAL/Timer.h</text>
</a>
</g>
</g>
<!-- Node28&#45;&gt;Node29 -->
<g id="edge25" class="edge">
<title>Node28&#45;&gt;Node29</title>
<path fill="none" stroke="midnightblue" d="M1047.32,-123.48C1032.43,-113.84 1007.96,-98.02 990.23,-86.55"/>
<polygon fill="midnightblue" stroke="midnightblue" points="991.95,-83.5 981.66,-81.01 988.15,-89.38 991.95,-83.5"/>
</g>
<!-- Node30 -->
<g id="node26" class="node">
<title>Node30</title>
<g id="a_node26"><a xlink:title=" ">
<polygon fill="white" stroke="#bfbfbf" points="1028.5,-62 1028.5,-81 1092.5,-81 1092.5,-62 1028.5,-62"/>
<text text-anchor="middle" x="1060.5" y="-69" font-family="Helvetica,sans-Serif" font-size="10.00">algorithm</text>
</a>
</g>
</g>
<!-- Node28&#45;&gt;Node30 -->
<g id="edge26" class="edge">
<title>Node28&#45;&gt;Node30</title>
<path fill="none" stroke="midnightblue" d="M1060.5,-123.48C1060.5,-115.08 1060.5,-101.98 1060.5,-91.16"/>
<polygon fill="midnightblue" stroke="midnightblue" points="1064,-91.01 1060.5,-81.01 1057,-91.01 1064,-91.01"/>
</g>
<!-- Node31 -->
<g id="node27" class="node">
<title>Node31</title>
<g id="a_node27"><a xlink:title=" ">
<polygon fill="white" stroke="#bfbfbf" points="1110.5,-62 1110.5,-81 1162.5,-81 1162.5,-62 1110.5,-62"/>
<text text-anchor="middle" x="1136.5" y="-69" font-family="Helvetica,sans-Serif" font-size="10.00">cassert</text>
</a>
</g>
</g>
<!-- Node28&#45;&gt;Node31 -->
<g id="edge27" class="edge">
<title>Node28&#45;&gt;Node31</title>
<path fill="none" stroke="midnightblue" d="M1071.39,-123.48C1083.47,-114.02 1103.17,-98.6 1117.74,-87.19"/>
<polygon fill="midnightblue" stroke="midnightblue" points="1119.91,-89.93 1125.63,-81.01 1115.6,-84.42 1119.91,-89.93"/>
</g>
<!-- Node32 -->
<g id="node28" class="node">
<title>Node32</title>
<g id="a_node28"><a xlink:title=" ">
<polygon fill="white" stroke="#bfbfbf" points="1181,-62 1181,-81 1230,-81 1230,-62 1181,-62"/>
<text text-anchor="middle" x="1205.5" y="-69" font-family="Helvetica,sans-Serif" font-size="10.00">cstdlib</text>
</a>
</g>
</g>
<!-- Node28&#45;&gt;Node32 -->
<g id="edge28" class="edge">
<title>Node28&#45;&gt;Node32</title>
<path fill="none" stroke="midnightblue" d="M1081.83,-123.49C1104.21,-114.52 1140.4,-99.94 1171.5,-87 1172.91,-86.41 1174.35,-85.81 1175.8,-85.2"/>
<polygon fill="midnightblue" stroke="midnightblue" points="1177.54,-88.27 1185.39,-81.15 1174.82,-81.82 1177.54,-88.27"/>
</g>
<!-- Node33 -->
<g id="node29" class="node">
<title>Node33</title>
<g id="a_node29"><a xlink:title=" ">
<polygon fill="white" stroke="#bfbfbf" points="1248.5,-62 1248.5,-81 1316.5,-81 1316.5,-62 1248.5,-62"/>
<text text-anchor="middle" x="1282.5" y="-69" font-family="Helvetica,sans-Serif" font-size="10.00">filesystem</text>
</a>
</g>
</g>
<!-- Node28&#45;&gt;Node33 -->
<g id="edge29" class="edge">
<title>Node28&#45;&gt;Node33</title>
<path fill="none" stroke="midnightblue" d="M1098.1,-123.46C1134.48,-114.98 1191.08,-101.23 1239.5,-87 1242.43,-86.14 1245.46,-85.21 1248.49,-84.24"/>
<polygon fill="midnightblue" stroke="midnightblue" points="1249.63,-87.55 1258.05,-81.12 1247.46,-80.9 1249.63,-87.55"/>
</g>
<!-- Node34 -->
<g id="node30" class="node">
<title>Node34</title>
<g id="a_node30"><a xlink:title=" ">
<polygon fill="white" stroke="#bfbfbf" points="1335,-62 1335,-81 1390,-81 1390,-62 1335,-62"/>
<text text-anchor="middle" x="1362.5" y="-69" font-family="Helvetica,sans-Serif" font-size="10.00">fstream</text>
</a>
</g>
</g>
<!-- Node28&#45;&gt;Node34 -->
<g id="edge30" class="edge">
<title>Node28&#45;&gt;Node34</title>
<path fill="none" stroke="midnightblue" d="M1098.55,-125.4C1103.25,-124.59 1107.98,-123.77 1112.5,-123 1207.13,-106.81 1232.98,-112.65 1325.5,-87 1328.09,-86.28 1330.75,-85.45 1333.4,-84.55"/>
<polygon fill="midnightblue" stroke="midnightblue" points="1334.61,-87.83 1342.79,-81.09 1332.19,-81.26 1334.61,-87.83"/>
</g>
<!-- Node35 -->
<g id="node31" class="node">
<title>Node35</title>
<g id="a_node31"><a xlink:title=" ">
<polygon fill="white" stroke="#bfbfbf" points="1408.5,-62 1408.5,-81 1456.5,-81 1456.5,-62 1408.5,-62"/>
<text text-anchor="middle" x="1432.5" y="-69" font-family="Helvetica,sans-Serif" font-size="10.00">gsl/gsl</text>
</a>
</g>
</g>
<!-- Node28&#45;&gt;Node35 -->
<g id="edge31" class="edge">
<title>Node28&#45;&gt;Node35</title>
<path fill="none" stroke="midnightblue" d="M1098.52,-125.21C1103.22,-124.43 1107.97,-123.68 1112.5,-123 1239.65,-104.03 1275.58,-121.21 1399.5,-87 1401.66,-86.4 1403.85,-85.69 1406.04,-84.91"/>
<polygon fill="midnightblue" stroke="midnightblue" points="1407.41,-88.13 1415.38,-81.14 1404.79,-81.64 1407.41,-88.13"/>
</g>
<!-- Node36 -->
<g id="node32" class="node">
<title>Node36</title>
<g id="a_node32"><a xlink:title=" ">
<polygon fill="white" stroke="#bfbfbf" points="1474.5,-62 1474.5,-81 1534.5,-81 1534.5,-62 1474.5,-62"/>
<text text-anchor="middle" x="1504.5" y="-69" font-family="Helvetica,sans-Serif" font-size="10.00">iostream</text>
</a>
</g>
</g>
<!-- Node28&#45;&gt;Node36 -->
<g id="edge32" class="edge">
<title>Node28&#45;&gt;Node36</title>
<path fill="none" stroke="midnightblue" d="M1098.51,-125.11C1103.21,-124.35 1107.96,-123.62 1112.5,-123 1268.74,-101.54 1311.91,-122.77 1465.5,-87 1468.57,-86.29 1471.72,-85.39 1474.84,-84.41"/>
<polygon fill="midnightblue" stroke="midnightblue" points="1476.27,-87.62 1484.56,-81.02 1473.96,-81.01 1476.27,-87.62"/>
</g>
<!-- Node37 -->
<g id="node33" class="node">
<title>Node37</title>
<g id="a_node33"><a xlink:title=" ">
<polygon fill="white" stroke="#bfbfbf" points="1552.5,-62 1552.5,-81 1600.5,-81 1600.5,-62 1552.5,-62"/>
<text text-anchor="middle" x="1576.5" y="-69" font-family="Helvetica,sans-Serif" font-size="10.00">mutex</text>
</a>
</g>
</g>
<!-- Node28&#45;&gt;Node37 -->
<g id="edge33" class="edge">
<title>Node28&#45;&gt;Node37</title>
<path fill="none" stroke="midnightblue" d="M1098.78,-124.98C1103.39,-124.25 1108.05,-123.57 1112.5,-123 1303.17,-98.59 1357.19,-134.31 1543.5,-87 1545.8,-86.42 1548.15,-85.68 1550.47,-84.87"/>
<polygon fill="midnightblue" stroke="midnightblue" points="1551.78,-88.11 1559.75,-81.14 1549.17,-81.62 1551.78,-88.11"/>
</g>
<!-- Node38 -->
<g id="node34" class="node">
<title>Node38</title>
<g id="a_node34"><a xlink:title=" ">
<polygon fill="white" stroke="#bfbfbf" points="1618.5,-62 1618.5,-81 1672.5,-81 1672.5,-62 1618.5,-62"/>
<text text-anchor="middle" x="1645.5" y="-69" font-family="Helvetica,sans-Serif" font-size="10.00">random</text>
</a>
</g>
</g>
<!-- Node28&#45;&gt;Node38 -->
<g id="edge34" class="edge">
<title>Node28&#45;&gt;Node38</title>
<path fill="none" stroke="midnightblue" d="M1098.77,-124.93C1103.39,-124.21 1108.04,-123.55 1112.5,-123 1332.33,-96.08 1393.74,-136.97 1609.5,-87 1612.33,-86.34 1615.23,-85.5 1618.09,-84.54"/>
<polygon fill="midnightblue" stroke="midnightblue" points="1619.4,-87.79 1627.54,-81.01 1616.95,-81.23 1619.4,-87.79"/>
</g>
<!-- Node39 -->
<g id="node35" class="node">
<title>Node39</title>
<g id="a_node35"><a xlink:title=" ">
<polygon fill="white" stroke="#bfbfbf" points="181.5,-62 181.5,-81 221.5,-81 221.5,-62 181.5,-62"/>
<text text-anchor="middle" x="201.5" y="-69" font-family="Helvetica,sans-Serif" font-size="10.00">span</text>
</a>
</g>
</g>
<!-- Node28&#45;&gt;Node39 -->
<g id="edge35" class="edge">
<title>Node28&#45;&gt;Node39</title>
<path fill="none" stroke="midnightblue" d="M1022.32,-124.35C1019.01,-123.83 1015.7,-123.37 1012.5,-123 839.7,-102.92 398.84,-130.85 230.5,-87 228.78,-86.55 227.04,-85.99 225.31,-85.36"/>
<polygon fill="midnightblue" stroke="midnightblue" points="226.35,-81.99 215.79,-81.12 223.5,-88.38 226.35,-81.99"/>
</g>
<!-- Node40 -->
<g id="node36" class="node">
<title>Node40</title>
<g id="a_node36"><a xlink:title=" ">
<polygon fill="white" stroke="#bfbfbf" points="1691,-62 1691,-81 1756,-81 1756,-62 1691,-62"/>
<text text-anchor="middle" x="1723.5" y="-69" font-family="Helvetica,sans-Serif" font-size="10.00">stdexcept</text>
</a>
</g>
</g>
<!-- Node28&#45;&gt;Node40 -->
<g id="edge36" class="edge">
<title>Node28&#45;&gt;Node40</title>
<path fill="none" stroke="midnightblue" d="M1098.77,-124.89C1103.38,-124.18 1108.04,-123.53 1112.5,-123 1364.15,-93.35 1433.05,-136.8 1681.5,-87 1685.2,-86.26 1689.01,-85.27 1692.77,-84.16"/>
<polygon fill="midnightblue" stroke="midnightblue" points="1694.02,-87.44 1702.44,-81.01 1691.85,-80.78 1694.02,-87.44"/>
</g>
<!-- Node41 -->
<g id="node37" class="node">
<title>Node41</title>
<g id="a_node37"><a xlink:title=" ">
<polygon fill="white" stroke="#bfbfbf" points="1774,-62 1774,-81 1839,-81 1839,-62 1774,-62"/>
<text text-anchor="middle" x="1806.5" y="-69" font-family="Helvetica,sans-Serif" font-size="10.00">typeindex</text>
</a>
</g>
</g>
<!-- Node28&#45;&gt;Node41 -->
<g id="edge38" class="edge">
<title>Node28&#45;&gt;Node41</title>
<path fill="none" stroke="midnightblue" d="M1098.76,-124.86C1103.38,-124.15 1108.04,-123.51 1112.5,-123 1401.3,-90.16 1480.49,-144.03 1765.5,-87 1769.01,-86.3 1772.63,-85.36 1776.19,-84.29"/>
<polygon fill="midnightblue" stroke="midnightblue" points="1777.58,-87.52 1785.97,-81.05 1775.37,-80.88 1777.58,-87.52"/>
</g>
<!-- Node42 -->
<g id="node38" class="node">
<title>Node42</title>
<g id="a_node38"><a xlink:title=" ">
<polygon fill="white" stroke="#bfbfbf" points="240,-62 240,-81 299,-81 299,-62 240,-62"/>
<text text-anchor="middle" x="269.5" y="-69" font-family="Helvetica,sans-Serif" font-size="10.00">date/tz.h</text>
</a>
</g>
</g>
<!-- Node28&#45;&gt;Node42 -->
<g id="edge39" class="edge">
<title>Node28&#45;&gt;Node42</title>
<path fill="none" stroke="midnightblue" d="M1022.32,-124.36C1019.01,-123.85 1015.7,-123.38 1012.5,-123 701.39,-86.05 615.33,-150.32 308.5,-87 305.25,-86.33 301.9,-85.43 298.61,-84.41"/>
<polygon fill="midnightblue" stroke="midnightblue" points="299.59,-81.05 289,-81.07 297.3,-87.66 299.59,-81.05"/>
</g>
<!-- Node43 -->
<g id="node39" class="node">
<title>Node43</title>
<g id="a_node39"><a xlink:title=" ">
<polygon fill="white" stroke="#bfbfbf" points="317.5,-62 317.5,-81 367.5,-81 367.5,-62 317.5,-62"/>
<text text-anchor="middle" x="342.5" y="-69" font-family="Helvetica,sans-Serif" font-size="10.00">chrono</text>
</a>
</g>
</g>
<!-- Node28&#45;&gt;Node43 -->
<g id="edge40" class="edge">
<title>Node28&#45;&gt;Node43</title>
<path fill="none" stroke="midnightblue" d="M1022.32,-124.38C1019,-123.86 1015.7,-123.39 1012.5,-123 731.45,-88.84 652.17,-151.5 376.5,-87 373.99,-86.41 371.42,-85.65 368.88,-84.78"/>
<polygon fill="midnightblue" stroke="midnightblue" points="369.99,-81.46 359.41,-81.07 367.44,-87.98 369.99,-81.46"/>
</g>
<!-- Node44 -->
<g id="node40" class="node">
<title>Node44</title>
<g id="a_node40"><a xlink:title=" ">
<polygon fill="white" stroke="#bfbfbf" points="385.5,-62 385.5,-81 435.5,-81 435.5,-62 385.5,-62"/>
<text text-anchor="middle" x="410.5" y="-69" font-family="Helvetica,sans-Serif" font-size="10.00">format</text>
</a>
</g>
</g>
<!-- Node28&#45;&gt;Node44 -->
<g id="edge41" class="edge">
<title>Node28&#45;&gt;Node44</title>
<path fill="none" stroke="midnightblue" d="M1022.31,-124.41C1019,-123.88 1015.7,-123.4 1012.5,-123 761.5,-91.63 690.6,-145.46 444.5,-87 441.99,-86.4 439.42,-85.64 436.89,-84.77"/>
<polygon fill="midnightblue" stroke="midnightblue" points="438,-81.44 427.41,-81.05 435.44,-87.96 438,-81.44"/>
</g>
<!-- Node45 -->
<g id="node41" class="node">
<title>Node45</title>
<g id="a_node41"><a xlink:title=" ">
<polygon fill="white" stroke="#bfbfbf" points="453.5,-62 453.5,-81 551.5,-81 551.5,-62 453.5,-62"/>
<text text-anchor="middle" x="502.5" y="-69" font-family="Helvetica,sans-Serif" font-size="10.00">pcg_random.hpp</text>
</a>
</g>
</g>
<!-- Node28&#45;&gt;Node45 -->
<g id="edge42" class="edge">
<title>Node28&#45;&gt;Node45</title>
<path fill="none" stroke="midnightblue" d="M1022.31,-124.46C1019,-123.92 1015.69,-123.43 1012.5,-123 812.74,-96.39 759.38,-119.55 560.5,-87 554.66,-86.04 548.54,-84.79 542.57,-83.43"/>
<polygon fill="midnightblue" stroke="midnightblue" points="543.25,-79.99 532.71,-81.06 541.61,-86.8 543.25,-79.99"/>
</g>
<!-- Node46 -->
<g id="node42" class="node">
<title>Node46</title>
<g id="a_node42"><a xlink:title=" ">
<polygon fill="white" stroke="#bfbfbf" points="569.5,-62 569.5,-81 655.5,-81 655.5,-62 569.5,-62"/>
<text text-anchor="middle" x="612.5" y="-69" font-family="Helvetica,sans-Serif" font-size="10.00">fmt/ostream.h</text>
</a>
</g>
</g>
<!-- Node28&#45;&gt;Node46 -->
<g id="edge43" class="edge">
<title>Node28&#45;&gt;Node46</title>
<path fill="none" stroke="midnightblue" d="M1022.3,-124.54C1018.99,-123.99 1015.69,-123.46 1012.5,-123 858.62,-100.65 817.27,-115.99 664.5,-87 659.69,-86.09 654.68,-84.94 649.74,-83.7"/>
<polygon fill="midnightblue" stroke="midnightblue" points="650.39,-80.25 639.82,-81.05 648.58,-87.01 650.39,-80.25"/>
</g>
<!-- Node47 -->
<g id="node43" class="node">
<title>Node47</title>
<g id="a_node43"><a xlink:title=" ">
<polygon fill="white" stroke="#bfbfbf" points="673.5,-56.5 673.5,-86.5 779.5,-86.5 779.5,-56.5 673.5,-56.5"/>
<text text-anchor="start" x="681.5" y="-74.5" font-family="Helvetica,sans-Serif" font-size="10.00">spdlog/sinks/basic</text>
<text text-anchor="middle" x="726.5" y="-63.5" font-family="Helvetica,sans-Serif" font-size="10.00">_file_sink.h</text>
</a>
</g>
</g>
<!-- Node28&#45;&gt;Node47 -->
<g id="edge44" class="edge">
<title>Node28&#45;&gt;Node47</title>
<path fill="none" stroke="midnightblue" d="M1022.26,-124.74C1018.96,-124.14 1015.67,-123.55 1012.5,-123 916.27,-106.25 889.11,-106.46 789.42,-87.1"/>
<polygon fill="midnightblue" stroke="midnightblue" points="790.03,-83.65 779.55,-85.17 788.69,-90.52 790.03,-83.65"/>
</g>
<!-- Node48 -->
<g id="node44" class="node">
<title>Node48</title>
<g id="a_node44"><a xlink:title=" ">
<polygon fill="white" stroke="#bfbfbf" points="798,-56.5 798,-86.5 909,-86.5 909,-56.5 798,-56.5"/>
<text text-anchor="start" x="806" y="-74.5" font-family="Helvetica,sans-Serif" font-size="10.00">spdlog/sinks/stdout</text>
<text text-anchor="middle" x="853.5" y="-63.5" font-family="Helvetica,sans-Serif" font-size="10.00">_color_sinks.h</text>
</a>
</g>
</g>
<!-- Node28&#45;&gt;Node48 -->
<g id="edge45" class="edge">
<title>Node28&#45;&gt;Node48</title>
<path fill="none" stroke="midnightblue" d="M1030.84,-123.48C999.92,-114.59 950.66,-100.43 911.9,-89.29"/>
<polygon fill="midnightblue" stroke="midnightblue" points="912.86,-85.92 902.29,-86.52 910.93,-92.65 912.86,-85.92"/>
</g>
<!-- Node49&#45;&gt;Node13 -->
<g id="edge50" class="edge">
<title>Node49&#45;&gt;Node13</title>
<path fill="none" stroke="midnightblue" d="M922.1,-179.32C931.96,-171.26 946.85,-159.08 958.72,-149.37"/>
<polygon fill="midnightblue" stroke="midnightblue" points="961.18,-151.88 966.7,-142.83 956.75,-146.46 961.18,-151.88"/>
</g>
<!-- Node49&#45;&gt;Node25 -->
<g id="edge53" class="edge">
<title>Node49&#45;&gt;Node25</title>
<path fill="none" stroke="midnightblue" d="M963.32,-179.88C1003.46,-172.7 1060.03,-160.6 1107.5,-143 1125.39,-136.36 1127.1,-128.05 1145.5,-123 1447.2,-40.21 1540.44,-141.53 1848.5,-87 1852.97,-86.21 1857.61,-85.12 1862.16,-83.89"/>
<polygon fill="midnightblue" stroke="midnightblue" points="1863.26,-87.22 1871.87,-81.04 1861.29,-80.5 1863.26,-87.22"/>
</g>
<!-- Node49&#45;&gt;Node28 -->
<g id="edge54" class="edge">
<title>Node49&#45;&gt;Node28</title>
<path fill="none" stroke="midnightblue" d="M935.11,-179.44C959.96,-170.44 999.27,-156.19 1027.25,-146.05"/>
<polygon fill="midnightblue" stroke="midnightblue" points="1028.79,-149.21 1037,-142.52 1026.41,-142.63 1028.79,-149.21"/>
</g>
<!-- Node49&#45;&gt;Node39 -->
<g id="edge52" class="edge">
<title>Node49&#45;&gt;Node39</title>
<path fill="none" stroke="midnightblue" d="M905.61,-179.27C895.13,-164.57 871.65,-135.26 843.5,-123 718.39,-68.51 362.33,-122.23 230.5,-87 228.78,-86.54 227.04,-85.97 225.32,-85.33"/>
<polygon fill="midnightblue" stroke="midnightblue" points="226.35,-81.96 215.8,-81.08 223.5,-88.35 226.35,-81.96"/>
</g>
<!-- Node50 -->
<g id="node46" class="node">
<title>Node50</title>
<g id="a_node46"><a xlink:title=" ">
<polygon fill="white" stroke="#bfbfbf" points="890.5,-123.5 890.5,-142.5 932.5,-142.5 932.5,-123.5 890.5,-123.5"/>
<text text-anchor="middle" x="911.5" y="-130.5" font-family="Helvetica,sans-Serif" font-size="10.00">array</text>
</a>
</g>
</g>
<!-- Node49&#45;&gt;Node50 -->
<g id="edge49" class="edge">
<title>Node49&#45;&gt;Node50</title>
<path fill="none" stroke="midnightblue" d="M911.5,-179.08C911.5,-172.01 911.5,-161.86 911.5,-152.99"/>
<polygon fill="midnightblue" stroke="midnightblue" points="915,-152.75 911.5,-142.75 908,-152.75 915,-152.75"/>
</g>
<!-- Node51 -->
<g id="node47" class="node">
<title>Node51</title>
<g id="a_node47"><a xlink:title=" ">
<polygon fill="white" stroke="#bfbfbf" points="784.5,-123.5 784.5,-142.5 834.5,-142.5 834.5,-123.5 784.5,-123.5"/>
<text text-anchor="middle" x="809.5" y="-130.5" font-family="Helvetica,sans-Serif" font-size="10.00">gsl/util</text>
</a>
</g>
</g>
<!-- Node49&#45;&gt;Node51 -->
<g id="edge51" class="edge">
<title>Node49&#45;&gt;Node51</title>
<path fill="none" stroke="midnightblue" d="M895.11,-179.32C878.83,-170.7 853.63,-157.36 834.78,-147.39"/>
<polygon fill="midnightblue" stroke="midnightblue" points="836.32,-144.24 825.85,-142.65 833.05,-150.43 836.32,-144.24"/>
</g>
<!-- Node52&#45;&gt;Node25 -->
<g id="edge57" class="edge">
<title>Node52&#45;&gt;Node25</title>
<path fill="none" stroke="midnightblue" d="M1188.57,-466.28C1295.31,-460.62 1578.5,-438.04 1578.5,-358 1578.5,-358 1578.5,-358 1578.5,-188 1578.5,-173.26 1774.54,-110.28 1858.29,-84.04"/>
<polygon fill="midnightblue" stroke="midnightblue" points="1859.42,-87.35 1867.92,-81.03 1857.33,-80.67 1859.42,-87.35"/>
</g>
<!-- Node53 -->
<g id="node49" class="node">
<title>Node53</title>
<g id="a_node49"><a xlink:title=" ">
<polygon fill="white" stroke="#bfbfbf" points="1124.5,-403.5 1124.5,-422.5 1172.5,-422.5 1172.5,-403.5 1124.5,-403.5"/>
<text text-anchor="middle" x="1148.5" y="-410.5" font-family="Helvetica,sans-Serif" font-size="10.00">mpfr.h</text>
</a>
</g>
</g>
<!-- Node52&#45;&gt;Node53 -->
<g id="edge56" class="edge">
<title>Node52&#45;&gt;Node53</title>
<path fill="none" stroke="midnightblue" d="M1148.5,-459.08C1148.5,-452.01 1148.5,-441.86 1148.5,-432.99"/>
<polygon fill="midnightblue" stroke="midnightblue" points="1152,-432.75 1148.5,-422.75 1145,-432.75 1152,-432.75"/>
</g>
<!-- Node54&#45;&gt;Node3 -->
<g id="edge59" class="edge">
<title>Node54&#45;&gt;Node3</title>
<path fill="none" stroke="midnightblue" d="M921.5,-515.08C921.5,-508.01 921.5,-497.86 921.5,-488.99"/>
<polygon fill="midnightblue" stroke="midnightblue" points="925,-488.75 921.5,-478.75 918,-488.75 925,-488.75"/>
</g>
</g>
</svg>
        <g id="navigator" transform="translate(0 0)" fill="#404254">
                <rect fill="#f2f5e9" fill-opacity="0.5" stroke="#606060" stroke-width=".5" x="0" y="0" width="60" height="60"/>
                <use id="zoomplus" xlink:href="#zoomPlus" x="17" y="9" onmousedown="handleZoom(evt,'in')"/>
                <use id="zoomminus" xlink:href="#zoomMin" x="42" y="9" onmousedown="handleZoom(evt,'out')"/>
                <use id="reset" xlink:href="#resetDef" x="30" y="36" onmousedown="handleReset()"/>
                <g id="arrowUp" xlink:href="#dirArrow" transform="translate(30 24)" onmousedown="handlePan(0,-1)">
                  <use xlink:href="#rim" fill="#404040">
                        <set attributeName="fill" to="#808080" begin="arrowUp.mouseover" end="arrowUp.mouseout"/>
                  </use>
                  <path fill="none" stroke="white" stroke-width="1.5" d="M0,-3.0v7 M-2.5,-0.5L0,-3.0L2.5,-0.5"/>
                </g>
                <g id="arrowRight" xlink:href="#dirArrow" transform="rotate(90) translate(36 -43)" onmousedown="handlePan(1,0)">
                  <use xlink:href="#rim" fill="#404040">
                        <set attributeName="fill" to="#808080" begin="arrowRight.mouseover" end="arrowRight.mouseout"/>
                  </use>
                  <path fill="none" stroke="white" stroke-width="1.5" d="M0,-3.0v7 M-2.5,-0.5L0,-3.0L2.5,-0.5"/>
                </g>
                <g id="arrowDown" xlink:href="#dirArrow" transform="rotate(180) translate(-30 -48)" onmousedown="handlePan(0,1)">
                  <use xlink:href="#rim" fill="#404040">
                        <set attributeName="fill" to="#808080" begin="arrowDown.mouseover" end="arrowDown.mouseout"/>
                  </use>
                  <path fill="none" stroke="white" stroke-width="1.5" d="M0,-3.0v7 M-2.5,-0.5L0,-3.0L2.5,-0.5"/>
                </g>
                <g id="arrowLeft" xlink:href="#dirArrow" transform="rotate(270) translate(-36 17)" onmousedown="handlePan(-1,0)">
                  <use xlink:href="#rim" fill="#404040">
                        <set attributeName="fill" to="#808080" begin="arrowLeft.mouseover" end="arrowLeft.mouseout"/>
                  </use>
                  <path fill="none" stroke="white" stroke-width="1.5" d="M0,-3.0v7 M-2.5,-0.5L0,-3.0L2.5,-0.5"/>
                </g>
        </g>
        <svg viewBox="0 0 15 15" width="100%" height="30px" preserveAspectRatio="xMaxYMin meet">
         <g id="arrow_out" transform="scale(0.3 0.3)">
          <a xlink:href="cdt-opt_8cpp__incl_org.svg" target="_base">
           <rect id="button" ry="5" rx="5" y="6" x="6" height="38" width="38"
                fill="#f2f5e9" fill-opacity="0.5" stroke="#606060" stroke-width="1.0"/>
           <path id="arrow"
             d="M 11.500037,31.436501 C 11.940474,20.09759 22.043105,11.32322 32.158766,21.979434 L 37.068811,17.246167 C 37.068811,17.246167 37.088388,32 37.088388,32 L 22.160133,31.978069 C 22.160133,31.978069 26.997745,27.140456 26.997745,27.140456 C 18.528582,18.264221 13.291696,25.230495 11.500037,31.436501 z"
             style="fill:#404040;"/>
          </a>
         </g>
        </svg>
</svg>
