<?xml version="1.0" encoding="UTF-8" standalone="no"?>
<!DOCTYPE svg PUBLIC "-//W3C//DTD SVG 1.1//EN"
 "http://www.w3.org/Graphics/SVG/1.1/DTD/svg11.dtd">
<!-- Generated by graphviz version 2.43.0 (0)
 -->
<!-- Title: src/cdt&#45;opt.cpp Pages: 1 -->
<svg width="2384pt" height="666pt"
 viewBox="0.00 0.00 2383.50 666.00" xmlns="http://www.w3.org/2000/svg" xmlns:xlink="http://www.w3.org/1999/xlink">
<g id="graph0" class="graph" transform="scale(1 1) rotate(0) translate(4 662)">
<title>src/cdt&#45;opt.cpp</title>
<polygon fill="white" stroke="transparent" points="-4,4 -4,-662 2379.5,-662 2379.5,4 -4,4"/>
<!-- Node1 -->
<g id="node1" class="node">
<title>Node1</title>
<g id="a_node1"><a xlink:title="Outputs values to determine optimizations.">
<polygon fill="#bfbfbf" stroke="black" points="1116,-638.5 1116,-657.5 1205,-657.5 1205,-638.5 1116,-638.5"/>
<text text-anchor="middle" x="1160.5" y="-645.5" font-family="Helvetica,sans-Serif" font-size="10.00">src/cdt&#45;opt.cpp</text>
</a>
</g>
</g>
<!-- Node2 -->
<g id="node2" class="node">
<title>Node2</title>
<g id="a_node2"><a xlink:href="_metropolis_8hpp.html" target="_top" xlink:title="Perform Metropolis&#45;Hastings algorithm on Delaunay Triangulations.">
<polygon fill="white" stroke="black" points="1059,-582.5 1059,-601.5 1148,-601.5 1148,-582.5 1059,-582.5"/>
<text text-anchor="middle" x="1103.5" y="-589.5" font-family="Helvetica,sans-Serif" font-size="10.00">Metropolis.hpp</text>
</a>
</g>
</g>
<!-- Node1&#45;&gt;Node2 -->
<g id="edge1" class="edge">
<title>Node1&#45;&gt;Node2</title>
<path fill="none" stroke="midnightblue" d="M1151.34,-638.32C1143,-630.42 1130.47,-618.55 1120.32,-608.94"/>
<polygon fill="midnightblue" stroke="midnightblue" points="1122.49,-606.17 1112.82,-601.83 1117.68,-611.25 1122.49,-606.17"/>
</g>
<!-- Node52 -->
<g id="node50" class="node">
<title>Node52</title>
<g id="a_node50"><a xlink:href="_move__always_8hpp.html" target="_top" xlink:title="Randomly selects moves to always perform on triangulations.">
<polygon fill="white" stroke="black" points="1166.5,-582.5 1166.5,-601.5 1270.5,-601.5 1270.5,-582.5 1166.5,-582.5"/>
<text text-anchor="middle" x="1218.5" y="-589.5" font-family="Helvetica,sans-Serif" font-size="10.00">Move_always.hpp</text>
</a>
</g>
</g>
<!-- Node1&#45;&gt;Node52 -->
<g id="edge55" class="edge">
<title>Node1&#45;&gt;Node52</title>
<path fill="none" stroke="midnightblue" d="M1169.82,-638.32C1178.39,-630.34 1191.31,-618.31 1201.69,-608.65"/>
<polygon fill="midnightblue" stroke="midnightblue" points="1204.08,-611.21 1209.01,-601.83 1199.31,-606.09 1204.08,-611.21"/>
</g>
<!-- Node3 -->
<g id="node3" class="node">
<title>Node3</title>
<g id="a_node3"><a xlink:href="_move__strategy_8hpp.html" target="_top" xlink:title="Template class for move algorithms (strategies) on manifolds.">
<polygon fill="white" stroke="black" points="1164,-526.5 1164,-545.5 1273,-545.5 1273,-526.5 1164,-526.5"/>
<text text-anchor="middle" x="1218.5" y="-533.5" font-family="Helvetica,sans-Serif" font-size="10.00">Move_strategy.hpp</text>
</a>
</g>
</g>
<!-- Node2&#45;&gt;Node3 -->
<g id="edge2" class="edge">
<title>Node2&#45;&gt;Node3</title>
<path fill="none" stroke="midnightblue" d="M1121.72,-582.44C1140.4,-573.68 1169.66,-559.94 1191.12,-549.86"/>
<polygon fill="midnightblue" stroke="midnightblue" points="1192.8,-552.93 1200.36,-545.52 1189.82,-546.6 1192.8,-552.93"/>
</g>
<!-- Node50 -->
<g id="node48" class="node">
<title>Node50</title>
<g id="a_node48"><a xlink:href="_s3_action_8hpp.html" target="_top" xlink:title="Calculate S3 bulk actions on 3D Delaunay Triangulations.">
<polygon fill="white" stroke="black" points="967.5,-526.5 967.5,-545.5 1047.5,-545.5 1047.5,-526.5 967.5,-526.5"/>
<text text-anchor="middle" x="1007.5" y="-533.5" font-family="Helvetica,sans-Serif" font-size="10.00">S3Action.hpp</text>
</a>
</g>
</g>
<!-- Node2&#45;&gt;Node50 -->
<g id="edge52" class="edge">
<title>Node2&#45;&gt;Node50</title>
<path fill="none" stroke="midnightblue" d="M1088.08,-582.32C1072.96,-573.82 1049.68,-560.73 1032.03,-550.8"/>
<polygon fill="midnightblue" stroke="midnightblue" points="1033.32,-547.51 1022.89,-545.65 1029.89,-553.61 1033.32,-547.51"/>
</g>
<!-- Node4 -->
<g id="node4" class="node">
<title>Node4</title>
<g id="a_node4"><a xlink:href="_move__command_8hpp.html" target="_top" xlink:title="Do ergodic moves using the Command pattern.">
<polygon fill="white" stroke="black" points="1257,-470.5 1257,-489.5 1376,-489.5 1376,-470.5 1257,-470.5"/>
<text text-anchor="middle" x="1316.5" y="-477.5" font-family="Helvetica,sans-Serif" font-size="10.00">Move_command.hpp</text>
</a>
</g>
</g>
<!-- Node3&#45;&gt;Node4 -->
<g id="edge3" class="edge">
<title>Node3&#45;&gt;Node4</title>
<path fill="none" stroke="midnightblue" d="M1234.25,-526.32C1249.82,-517.74 1273.88,-504.49 1291.96,-494.52"/>
<polygon fill="midnightblue" stroke="midnightblue" points="1293.72,-497.55 1300.79,-489.65 1290.35,-491.42 1293.72,-497.55"/>
</g>
<!-- Node5 -->
<g id="node5" class="node">
<title>Node5</title>
<g id="a_node5"><a xlink:href="_apply__move_8hpp.html" target="_top" xlink:title="Apply Pachner moves to foliated Delaunay triangulations.">
<polygon fill="white" stroke="black" points="1441.5,-414.5 1441.5,-433.5 1539.5,-433.5 1539.5,-414.5 1441.5,-414.5"/>
<text text-anchor="middle" x="1490.5" y="-421.5" font-family="Helvetica,sans-Serif" font-size="10.00">Apply_move.hpp</text>
</a>
</g>
</g>
<!-- Node4&#45;&gt;Node5 -->
<g id="edge4" class="edge">
<title>Node4&#45;&gt;Node5</title>
<path fill="none" stroke="midnightblue" d="M1344.07,-470.44C1373.6,-461.28 1420.62,-446.69 1453.38,-436.52"/>
<polygon fill="midnightblue" stroke="midnightblue" points="1454.54,-439.82 1463.06,-433.52 1452.47,-433.14 1454.54,-439.82"/>
</g>
<!-- Node11 -->
<g id="node11" class="node">
<title>Node11</title>
<g id="a_node11"><a xlink:href="_ergodic__moves__3_8hpp.html" target="_top" xlink:title="Pachner moves on 2+1 dimensional foliated Delaunay triangulations.">
<polygon fill="white" stroke="black" points="1255,-414.5 1255,-433.5 1378,-433.5 1378,-414.5 1255,-414.5"/>
<text text-anchor="middle" x="1316.5" y="-421.5" font-family="Helvetica,sans-Serif" font-size="10.00">Ergodic_moves_3.hpp</text>
</a>
</g>
</g>
<!-- Node4&#45;&gt;Node11 -->
<g id="edge10" class="edge">
<title>Node4&#45;&gt;Node11</title>
<path fill="none" stroke="midnightblue" d="M1316.5,-470.08C1316.5,-463.01 1316.5,-452.86 1316.5,-443.99"/>
<polygon fill="midnightblue" stroke="midnightblue" points="1320,-443.75 1316.5,-433.75 1313,-443.75 1320,-443.75"/>
</g>
<!-- Node6 -->
<g id="node6" class="node">
<title>Node6</title>
<g id="a_node6"><a xlink:title=" ">
<polygon fill="white" stroke="#bfbfbf" points="2220,-67.5 2220,-86.5 2313,-86.5 2313,-67.5 2220,-67.5"/>
<text text-anchor="middle" x="2266.5" y="-74.5" font-family="Helvetica,sans-Serif" font-size="10.00">spdlog/spdlog.h</text>
</a>
</g>
</g>
<!-- Node5&#45;&gt;Node6 -->
<g id="edge5" class="edge">
<title>Node5&#45;&gt;Node6</title>
<path fill="none" stroke="midnightblue" d="M1539.58,-414.58C1563.66,-408.18 1591.51,-397.09 1610.5,-378 1632.22,-356.17 1634.5,-343.8 1634.5,-313 1634.5,-313 1634.5,-313 1634.5,-199 1634.5,-69.05 2084.86,-131.2 2210.5,-98 2218.8,-95.81 2227.62,-92.93 2235.75,-90.04"/>
<polygon fill="midnightblue" stroke="midnightblue" points="2237.05,-93.29 2245.23,-86.56 2234.63,-86.72 2237.05,-93.29"/>
</g>
<!-- Node7 -->
<g id="node7" class="node">
<title>Node7</title>
<g id="a_node7"><a xlink:title=" ">
<polygon fill="white" stroke="#bfbfbf" points="1536,-358.5 1536,-377.5 1601,-377.5 1601,-358.5 1536,-358.5"/>
<text text-anchor="middle" x="1568.5" y="-365.5" font-family="Helvetica,sans-Serif" font-size="10.00">functional</text>
</a>
</g>
</g>
<!-- Node5&#45;&gt;Node7 -->
<g id="edge6" class="edge">
<title>Node5&#45;&gt;Node7</title>
<path fill="none" stroke="midnightblue" d="M1503.03,-414.32C1515.09,-405.98 1533.53,-393.21 1547.77,-383.35"/>
<polygon fill="midnightblue" stroke="midnightblue" points="1549.77,-386.22 1556,-377.65 1545.78,-380.47 1549.77,-386.22"/>
</g>
<!-- Node8 -->
<g id="node8" class="node">
<title>Node8</title>
<g id="a_node8"><a xlink:title=" ">
<polygon fill="white" stroke="#bfbfbf" points="2331.5,-67.5 2331.5,-86.5 2375.5,-86.5 2375.5,-67.5 2331.5,-67.5"/>
<text text-anchor="middle" x="2353.5" y="-74.5" font-family="Helvetica,sans-Serif" font-size="10.00">string</text>
</a>
</g>
</g>
<!-- Node5&#45;&gt;Node8 -->
<g id="edge7" class="edge">
<title>Node5&#45;&gt;Node8</title>
<path fill="none" stroke="midnightblue" d="M1539.52,-418.79C1678.58,-406.2 2065.5,-366.36 2065.5,-313 2065.5,-313 2065.5,-313 2065.5,-199 2065.5,-76.27 2213.29,-153.99 2322.5,-98 2325.95,-96.23 2329.51,-94.18 2332.92,-92.08"/>
<polygon fill="midnightblue" stroke="midnightblue" points="2334.96,-94.92 2341.46,-86.56 2331.17,-89.04 2334.96,-94.92"/>
</g>
<!-- Node9 -->
<g id="node9" class="node">
<title>Node9</title>
<g id="a_node9"><a xlink:title=" ">
<polygon fill="white" stroke="#bfbfbf" points="1296.5,-358.5 1296.5,-377.5 1388.5,-377.5 1388.5,-358.5 1296.5,-358.5"/>
<text text-anchor="middle" x="1342.5" y="-365.5" font-family="Helvetica,sans-Serif" font-size="10.00">tl/expected.hpp</text>
</a>
</g>
</g>
<!-- Node5&#45;&gt;Node9 -->
<g id="edge8" class="edge">
<title>Node5&#45;&gt;Node9</title>
<path fill="none" stroke="midnightblue" d="M1467.05,-414.44C1442.37,-405.44 1403.31,-391.19 1375.52,-381.05"/>
<polygon fill="midnightblue" stroke="midnightblue" points="1376.44,-377.66 1365.84,-377.52 1374.04,-384.23 1376.44,-377.66"/>
</g>
<!-- Node10 -->
<g id="node10" class="node">
<title>Node10</title>
<g id="a_node10"><a xlink:title=" ">
<polygon fill="white" stroke="#bfbfbf" points="1413,-358.5 1413,-377.5 1518,-377.5 1518,-358.5 1413,-358.5"/>
<text text-anchor="middle" x="1465.5" y="-365.5" font-family="Helvetica,sans-Serif" font-size="10.00">tl/function_ref.hpp</text>
</a>
</g>
</g>
<!-- Node5&#45;&gt;Node10 -->
<g id="edge9" class="edge">
<title>Node5&#45;&gt;Node10</title>
<path fill="none" stroke="midnightblue" d="M1486.37,-414.08C1482.99,-406.77 1478.08,-396.18 1473.88,-387.1"/>
<polygon fill="midnightblue" stroke="midnightblue" points="1476.93,-385.36 1469.55,-377.75 1470.58,-388.3 1476.93,-385.36"/>
</g>
<!-- Node11&#45;&gt;Node9 -->
<g id="edge11" class="edge">
<title>Node11&#45;&gt;Node9</title>
<path fill="none" stroke="midnightblue" d="M1320.79,-414.08C1324.35,-406.69 1329.52,-395.95 1333.92,-386.81"/>
<polygon fill="midnightblue" stroke="midnightblue" points="1337.1,-388.28 1338.29,-377.75 1330.79,-385.24 1337.1,-388.28"/>
</g>
<!-- Node12 -->
<g id="node12" class="node">
<title>Node12</title>
<g id="a_node12"><a xlink:href="_move__tracker_8hpp.html" target="_top" xlink:title="Track ergodic moves.">
<polygon fill="white" stroke="black" points="1159,-358.5 1159,-377.5 1262,-377.5 1262,-358.5 1159,-358.5"/>
<text text-anchor="middle" x="1210.5" y="-365.5" font-family="Helvetica,sans-Serif" font-size="10.00">Move_tracker.hpp</text>
</a>
</g>
</g>
<!-- Node11&#45;&gt;Node12 -->
<g id="edge12" class="edge">
<title>Node11&#45;&gt;Node12</title>
<path fill="none" stroke="midnightblue" d="M1299.47,-414.32C1282.47,-405.66 1256.12,-392.24 1236.51,-382.25"/>
<polygon fill="midnightblue" stroke="midnightblue" points="1237.99,-379.08 1227.49,-377.65 1234.81,-385.31 1237.99,-379.08"/>
</g>
<!-- Node13 -->
<g id="node13" class="node">
<title>Node13</title>
<g id="a_node13"><a xlink:href="_manifold_8hpp.html" target="_top" xlink:title="Data structures for manifolds.">
<polygon fill="white" stroke="black" points="1142.5,-302.5 1142.5,-321.5 1222.5,-321.5 1222.5,-302.5 1142.5,-302.5"/>
<text text-anchor="middle" x="1182.5" y="-309.5" font-family="Helvetica,sans-Serif" font-size="10.00">Manifold.hpp</text>
</a>
</g>
</g>
<!-- Node12&#45;&gt;Node13 -->
<g id="edge13" class="edge">
<title>Node12&#45;&gt;Node13</title>
<path fill="none" stroke="midnightblue" d="M1205.88,-358.08C1202.04,-350.69 1196.48,-339.95 1191.74,-330.81"/>
<polygon fill="midnightblue" stroke="midnightblue" points="1194.75,-329.02 1187.04,-321.75 1188.53,-332.24 1194.75,-329.02"/>
</g>
<!-- Node14 -->
<g id="node14" class="node">
<title>Node14</title>
<g id="a_node14"><a xlink:title=" ">
<polygon fill="white" stroke="#bfbfbf" points="1156,-246.5 1156,-265.5 1209,-265.5 1209,-246.5 1156,-246.5"/>
<text text-anchor="middle" x="1182.5" y="-253.5" font-family="Helvetica,sans-Serif" font-size="10.00">cstddef</text>
</a>
</g>
</g>
<!-- Node13&#45;&gt;Node14 -->
<g id="edge14" class="edge">
<title>Node13&#45;&gt;Node14</title>
<path fill="none" stroke="midnightblue" d="M1182.5,-302.08C1182.5,-295.01 1182.5,-284.86 1182.5,-275.99"/>
<polygon fill="midnightblue" stroke="midnightblue" points="1186,-275.75 1182.5,-265.75 1179,-275.75 1186,-275.75"/>
</g>
<!-- Node15 -->
<g id="node15" class="node">
<title>Node15</title>
<g id="a_node15"><a xlink:title=" ">
<polygon fill="white" stroke="#bfbfbf" points="988.5,-246.5 988.5,-265.5 1074.5,-265.5 1074.5,-246.5 988.5,-246.5"/>
<text text-anchor="middle" x="1031.5" y="-253.5" font-family="Helvetica,sans-Serif" font-size="10.00">unordered_set</text>
</a>
</g>
</g>
<!-- Node13&#45;&gt;Node15 -->
<g id="edge15" class="edge">
<title>Node13&#45;&gt;Node15</title>
<path fill="none" stroke="midnightblue" d="M1158.57,-302.44C1133.28,-293.4 1093.2,-279.06 1064.82,-268.92"/>
<polygon fill="midnightblue" stroke="midnightblue" points="1065.91,-265.59 1055.31,-265.52 1063.55,-272.18 1065.91,-265.59"/>
</g>
<!-- Node16 -->
<g id="node16" class="node">
<title>Node16</title>
<g id="a_node16"><a xlink:title=" ">
<polygon fill="white" stroke="#bfbfbf" points="1093,-246.5 1093,-265.5 1138,-265.5 1138,-246.5 1093,-246.5"/>
<text text-anchor="middle" x="1115.5" y="-253.5" font-family="Helvetica,sans-Serif" font-size="10.00">utility</text>
</a>
</g>
</g>
<!-- Node13&#45;&gt;Node16 -->
<g id="edge16" class="edge">
<title>Node13&#45;&gt;Node16</title>
<path fill="none" stroke="midnightblue" d="M1171.74,-302.32C1161.73,-294.26 1146.61,-282.08 1134.57,-272.37"/>
<polygon fill="midnightblue" stroke="midnightblue" points="1136.44,-269.38 1126.46,-265.83 1132.05,-274.83 1136.44,-269.38"/>
</g>
<!-- Node17 -->
<g id="node17" class="node">
<title>Node17</title>
<g id="a_node17"><a xlink:href="_geometry_8hpp.html" target="_top" xlink:title="Geometric quantities of Manifold used by MoveAlgorithm.">
<polygon fill="white" stroke="black" points="1227,-246.5 1227,-265.5 1312,-265.5 1312,-246.5 1227,-246.5"/>
<text text-anchor="middle" x="1269.5" y="-253.5" font-family="Helvetica,sans-Serif" font-size="10.00">Geometry.hpp</text>
</a>
</g>
</g>
<!-- Node13&#45;&gt;Node17 -->
<g id="edge17" class="edge">
<title>Node13&#45;&gt;Node17</title>
<path fill="none" stroke="midnightblue" d="M1196.48,-302.32C1210.05,-293.9 1230.88,-280.97 1246.82,-271.07"/>
<polygon fill="midnightblue" stroke="midnightblue" points="1248.91,-273.9 1255.56,-265.65 1245.21,-267.95 1248.91,-273.9"/>
</g>
<!-- Node18 -->
<g id="node18" class="node">
<title>Node18</title>
<g id="a_node18"><a xlink:title=" ">
<polygon fill="white" stroke="#bfbfbf" points="1223,-190.5 1223,-209.5 1316,-209.5 1316,-190.5 1223,-190.5"/>
<text text-anchor="middle" x="1269.5" y="-197.5" font-family="Helvetica,sans-Serif" font-size="10.00">__utility/swap.h</text>
</a>
</g>
</g>
<!-- Node17&#45;&gt;Node18 -->
<g id="edge18" class="edge">
<title>Node17&#45;&gt;Node18</title>
<path fill="none" stroke="midnightblue" d="M1269.5,-246.08C1269.5,-239.01 1269.5,-228.86 1269.5,-219.99"/>
<polygon fill="midnightblue" stroke="midnightblue" points="1273,-219.75 1269.5,-209.75 1266,-219.75 1273,-219.75"/>
</g>
<!-- Node19 -->
<g id="node19" class="node">
<title>Node19</title>
<g id="a_node19"><a xlink:title=" ">
<polygon fill="white" stroke="#bfbfbf" points="1158,-190.5 1158,-209.5 1205,-209.5 1205,-190.5 1158,-190.5"/>
<text text-anchor="middle" x="1181.5" y="-197.5" font-family="Helvetica,sans-Serif" font-size="10.00">vector</text>
</a>
</g>
</g>
<!-- Node17&#45;&gt;Node19 -->
<g id="edge19" class="edge">
<title>Node17&#45;&gt;Node19</title>
<path fill="none" stroke="midnightblue" d="M1255.36,-246.32C1241.63,-237.9 1220.56,-224.97 1204.44,-215.07"/>
<polygon fill="midnightblue" stroke="midnightblue" points="1205.96,-211.9 1195.6,-209.65 1202.3,-217.87 1205.96,-211.9"/>
</g>
<!-- Node20 -->
<g id="node20" class="node">
<title>Node20</title>
<g id="a_node20"><a xlink:href="_foliated__triangulation_8hpp.html" target="_top" xlink:title="Create foliated spherical triangulations.">
<polygon fill="white" stroke="black" points="995.5,-190.5 995.5,-209.5 1139.5,-209.5 1139.5,-190.5 995.5,-190.5"/>
<text text-anchor="middle" x="1067.5" y="-197.5" font-family="Helvetica,sans-Serif" font-size="10.00">Foliated_triangulation.hpp</text>
</a>
</g>
</g>
<!-- Node17&#45;&gt;Node20 -->
<g id="edge20" class="edge">
<title>Node17&#45;&gt;Node20</title>
<path fill="none" stroke="midnightblue" d="M1237.49,-246.44C1202.77,-237.16 1147.21,-222.31 1109.12,-212.13"/>
<polygon fill="midnightblue" stroke="midnightblue" points="1109.92,-208.72 1099.36,-209.52 1108.11,-215.48 1109.92,-208.72"/>
</g>
<!-- Node28 -->
<g id="node28" class="node">
<title>Node28</title>
<g id="a_node28"><a xlink:href="_settings_8hpp.html" target="_top" xlink:title="Global integer and precision settings.">
<polygon fill="white" stroke="black" points="839,-67.5 839,-86.5 916,-86.5 916,-67.5 839,-67.5"/>
<text text-anchor="middle" x="877.5" y="-74.5" font-family="Helvetica,sans-Serif" font-size="10.00">Settings.hpp</text>
</a>
</g>
</g>
<!-- Node17&#45;&gt;Node28 -->
<g id="edge51" class="edge">
<title>Node17&#45;&gt;Node28</title>
<path fill="none" stroke="midnightblue" d="M1286.46,-246.41C1308.34,-234.19 1341.76,-210.94 1325.5,-190 1213.36,-45.57 1099.25,-151.83 924.5,-98 918.05,-96.01 911.28,-93.44 904.95,-90.8"/>
<polygon fill="midnightblue" stroke="midnightblue" points="906.04,-87.46 895.47,-86.69 903.25,-93.88 906.04,-87.46"/>
</g>
<!-- Node21 -->
<g id="node21" class="node">
<title>Node21</title>
<g id="a_node21"><a xlink:title=" ">
<polygon fill="white" stroke="#bfbfbf" points="1037.5,-134.5 1037.5,-153.5 1097.5,-153.5 1097.5,-134.5 1037.5,-134.5"/>
<text text-anchor="middle" x="1067.5" y="-141.5" font-family="Helvetica,sans-Serif" font-size="10.00">concepts</text>
</a>
</g>
</g>
<!-- Node20&#45;&gt;Node21 -->
<g id="edge21" class="edge">
<title>Node20&#45;&gt;Node21</title>
<path fill="none" stroke="midnightblue" d="M1067.5,-190.08C1067.5,-183.01 1067.5,-172.86 1067.5,-163.99"/>
<polygon fill="midnightblue" stroke="midnightblue" points="1071,-163.75 1067.5,-153.75 1064,-163.75 1071,-163.75"/>
</g>
<!-- Node22 -->
<g id="node22" class="node">
<title>Node22</title>
<g id="a_node22"><a xlink:href="_triangulation__traits_8hpp.html" target="_top" xlink:title="Traits class for particular uses of CGAL.">
<polygon fill="white" stroke="black" points="518,-134.5 518,-153.5 649,-153.5 649,-134.5 518,-134.5"/>
<text text-anchor="middle" x="583.5" y="-141.5" font-family="Helvetica,sans-Serif" font-size="10.00">Triangulation_traits.hpp</text>
</a>
</g>
</g>
<!-- Node20&#45;&gt;Node22 -->
<g id="edge22" class="edge">
<title>Node20&#45;&gt;Node22</title>
<path fill="none" stroke="midnightblue" d="M995.3,-190.94C905,-180.87 751.13,-163.7 659.21,-153.45"/>
<polygon fill="midnightblue" stroke="midnightblue" points="659.47,-149.95 649.15,-152.32 658.7,-156.91 659.47,-149.95"/>
</g>
<!-- Node31 -->
<g id="node31" class="node">
<title>Node31</title>
<g id="a_node31"><a xlink:href="_utilities_8hpp.html" target="_top" xlink:title="Utility functions.">
<polygon fill="white" stroke="red" points="1465.5,-134.5 1465.5,-153.5 1541.5,-153.5 1541.5,-134.5 1465.5,-134.5"/>
<text text-anchor="middle" x="1503.5" y="-141.5" font-family="Helvetica,sans-Serif" font-size="10.00">Utilities.hpp</text>
</a>
</g>
</g>
<!-- Node20&#45;&gt;Node31 -->
<g id="edge31" class="edge">
<title>Node20&#45;&gt;Node31</title>
<path fill="none" stroke="midnightblue" d="M1136.59,-190.44C1225.63,-179.41 1378.18,-160.52 1455.52,-150.94"/>
<polygon fill="midnightblue" stroke="midnightblue" points="1455.98,-154.41 1465.47,-149.71 1455.12,-147.47 1455.98,-154.41"/>
</g>
<!-- Node23 -->
<g id="node23" class="node">
<title>Node23</title>
<g id="a_node23"><a xlink:title=" ">
<polygon fill="white" stroke="#bfbfbf" points="493.5,-67.5 493.5,-86.5 673.5,-86.5 673.5,-67.5 493.5,-67.5"/>
<text text-anchor="middle" x="583.5" y="-74.5" font-family="Helvetica,sans-Serif" font-size="10.00">CGAL/Delaunay_triangulation_3.h</text>
</a>
</g>
</g>
<!-- Node22&#45;&gt;Node23 -->
<g id="edge23" class="edge">
<title>Node22&#45;&gt;Node23</title>
<path fill="none" stroke="midnightblue" d="M583.5,-134.23C583.5,-124.68 583.5,-109.12 583.5,-96.78"/>
<polygon fill="midnightblue" stroke="midnightblue" points="587,-96.63 583.5,-86.63 580,-96.63 587,-96.63"/>
</g>
<!-- Node24 -->
<g id="node24" class="node">
<title>Node24</title>
<g id="a_node24"><a xlink:title=" ">
<polygon fill="white" stroke="#bfbfbf" points="692,-56.5 692,-97.5 821,-97.5 821,-56.5 692,-56.5"/>
<text text-anchor="start" x="700" y="-85.5" font-family="Helvetica,sans-Serif" font-size="10.00">CGAL/Exact_predicates</text>
<text text-anchor="start" x="700" y="-74.5" font-family="Helvetica,sans-Serif" font-size="10.00">_inexact_constructions</text>
<text text-anchor="middle" x="756.5" y="-63.5" font-family="Helvetica,sans-Serif" font-size="10.00">_kernel.h</text>
</a>
</g>
</g>
<!-- Node22&#45;&gt;Node24 -->
<g id="edge24" class="edge">
<title>Node22&#45;&gt;Node24</title>
<path fill="none" stroke="midnightblue" d="M606.47,-134.37C628.87,-125.95 663.92,-112.79 694.51,-101.29"/>
<polygon fill="midnightblue" stroke="midnightblue" points="696.14,-104.42 704.27,-97.63 693.67,-97.87 696.14,-104.42"/>
</g>
<!-- Node25 -->
<g id="node25" class="node">
<title>Node25</title>
<g id="a_node25"><a xlink:title=" ">
<polygon fill="white" stroke="#bfbfbf" points="0,-67.5 0,-86.5 149,-86.5 149,-67.5 0,-67.5"/>
<text text-anchor="middle" x="74.5" y="-74.5" font-family="Helvetica,sans-Serif" font-size="10.00">CGAL/point_generators_3.h</text>
</a>
</g>
</g>
<!-- Node22&#45;&gt;Node25 -->
<g id="edge25" class="edge">
<title>Node22&#45;&gt;Node25</title>
<path fill="none" stroke="midnightblue" d="M517.98,-138.68C434.2,-132.56 284.84,-119.64 158.5,-98 144.61,-95.62 129.59,-92.29 116.14,-89.03"/>
<polygon fill="midnightblue" stroke="midnightblue" points="116.76,-85.58 106.21,-86.57 115.08,-92.37 116.76,-85.58"/>
</g>
<!-- Node26 -->
<g id="node26" class="node">
<title>Node26</title>
<g id="a_node26"><a xlink:title=" ">
<polygon fill="white" stroke="#bfbfbf" points="167.5,-62 167.5,-92 305.5,-92 305.5,-62 167.5,-62"/>
<text text-anchor="start" x="175.5" y="-80" font-family="Helvetica,sans-Serif" font-size="10.00">CGAL/Triangulation</text>
<text text-anchor="middle" x="236.5" y="-69" font-family="Helvetica,sans-Serif" font-size="10.00">_cell_base_with_info_3.h</text>
</a>
</g>
</g>
<!-- Node22&#45;&gt;Node26 -->
<g id="edge26" class="edge">
<title>Node22&#45;&gt;Node26</title>
<path fill="none" stroke="midnightblue" d="M523.66,-134.49C468.96,-126.35 385.96,-113.11 314.5,-98 309.42,-96.92 304.16,-95.74 298.9,-94.5"/>
<polygon fill="midnightblue" stroke="midnightblue" points="299.34,-91.01 288.8,-92.06 297.7,-97.81 299.34,-91.01"/>
</g>
<!-- Node27 -->
<g id="node27" class="node">
<title>Node27</title>
<g id="a_node27"><a xlink:title=" ">
<polygon fill="white" stroke="#bfbfbf" points="323.5,-62 323.5,-92 475.5,-92 475.5,-62 323.5,-62"/>
<text text-anchor="start" x="331.5" y="-80" font-family="Helvetica,sans-Serif" font-size="10.00">CGAL/Triangulation</text>
<text text-anchor="middle" x="399.5" y="-69" font-family="Helvetica,sans-Serif" font-size="10.00">_vertex_base_with_info_3.h</text>
</a>
</g>
</g>
<!-- Node22&#45;&gt;Node27 -->
<g id="edge27" class="edge">
<title>Node22&#45;&gt;Node27</title>
<path fill="none" stroke="midnightblue" d="M559.07,-134.37C531.1,-124.49 484.56,-108.05 448.94,-95.47"/>
<polygon fill="midnightblue" stroke="midnightblue" points="449.81,-92.06 439.21,-92.03 447.47,-98.66 449.81,-92.06"/>
</g>
<!-- Node22&#45;&gt;Node28 -->
<g id="edge28" class="edge">
<title>Node22&#45;&gt;Node28</title>
<path fill="none" stroke="midnightblue" d="M649.13,-134.89C699.21,-127.77 769.55,-115.75 829.5,-98 836.36,-95.97 843.58,-93.28 850.27,-90.53"/>
<polygon fill="midnightblue" stroke="midnightblue" points="851.78,-93.69 859.6,-86.53 849.03,-87.25 851.78,-93.69"/>
</g>
<!-- Node29 -->
<g id="node29" class="node">
<title>Node29</title>
<g id="a_node29"><a xlink:title=" ">
<polygon fill="white" stroke="#bfbfbf" points="750.5,-0.5 750.5,-19.5 890.5,-19.5 890.5,-0.5 750.5,-0.5"/>
<text text-anchor="middle" x="820.5" y="-7.5" font-family="Helvetica,sans-Serif" font-size="10.00">CGAL/GMP/Gmpzf_type.h</text>
</a>
</g>
</g>
<!-- Node28&#45;&gt;Node29 -->
<g id="edge29" class="edge">
<title>Node28&#45;&gt;Node29</title>
<path fill="none" stroke="midnightblue" d="M869.81,-67.23C860.84,-57 845.81,-39.86 834.7,-27.19"/>
<polygon fill="midnightblue" stroke="midnightblue" points="837.29,-24.84 828.07,-19.63 832.03,-29.45 837.29,-24.84"/>
</g>
<!-- Node30 -->
<g id="node30" class="node">
<title>Node30</title>
<g id="a_node30"><a xlink:title=" ">
<polygon fill="white" stroke="#bfbfbf" points="908.5,-0.5 908.5,-19.5 958.5,-19.5 958.5,-0.5 908.5,-0.5"/>
<text text-anchor="middle" x="933.5" y="-7.5" font-family="Helvetica,sans-Serif" font-size="10.00">cstdint</text>
</a>
</g>
</g>
<!-- Node28&#45;&gt;Node30 -->
<g id="edge30" class="edge">
<title>Node28&#45;&gt;Node30</title>
<path fill="none" stroke="midnightblue" d="M885.05,-67.23C893.78,-57.1 908.35,-40.19 919.24,-27.56"/>
<polygon fill="midnightblue" stroke="midnightblue" points="922.19,-29.49 926.07,-19.63 916.89,-24.92 922.19,-29.49"/>
</g>
<!-- Node31&#45;&gt;Node6 -->
<g id="edge49" class="edge">
<title>Node31&#45;&gt;Node6</title>
<path fill="none" stroke="midnightblue" d="M1541.69,-139.91C1564.55,-138.1 1594.18,-135.82 1620.5,-134 1882.59,-115.92 1953.13,-150.7 2210.5,-98 2219.44,-96.17 2228.89,-93.22 2237.42,-90.14"/>
<polygon fill="midnightblue" stroke="midnightblue" points="2238.83,-93.35 2246.93,-86.52 2236.34,-86.8 2238.83,-93.35"/>
</g>
<!-- Node31&#45;&gt;Node8 -->
<g id="edge44" class="edge">
<title>Node31&#45;&gt;Node8</title>
<path fill="none" stroke="midnightblue" d="M1541.55,-143.48C1682.52,-144.86 2174.53,-146.04 2322.5,-98 2326.75,-96.62 2330.98,-94.51 2334.9,-92.16"/>
<polygon fill="midnightblue" stroke="midnightblue" points="2336.95,-95 2343.3,-86.51 2333.05,-89.19 2336.95,-95"/>
</g>
<!-- Node31&#45;&gt;Node28 -->
<g id="edge50" class="edge">
<title>Node31&#45;&gt;Node28</title>
<path fill="none" stroke="midnightblue" d="M1465.29,-140.37C1340.41,-131.74 950.79,-104.43 924.5,-98 917.44,-96.27 910.08,-93.6 903.34,-90.77"/>
<polygon fill="midnightblue" stroke="midnightblue" points="904.57,-87.48 894.01,-86.59 901.71,-93.87 904.57,-87.48"/>
</g>
<!-- Node32 -->
<g id="node32" class="node">
<title>Node32</title>
<g id="a_node32"><a xlink:title=" ">
<polygon fill="white" stroke="#bfbfbf" points="1812,-67.5 1812,-86.5 1895,-86.5 1895,-67.5 1812,-67.5"/>
<text text-anchor="middle" x="1853.5" y="-74.5" font-family="Helvetica,sans-Serif" font-size="10.00">CGAL/Timer.h</text>
</a>
</g>
</g>
<!-- Node31&#45;&gt;Node32 -->
<g id="edge32" class="edge">
<title>Node31&#45;&gt;Node32</title>
<path fill="none" stroke="midnightblue" d="M1541.82,-140C1599.25,-134.89 1710.72,-122.57 1802.5,-98 1809.95,-96 1817.8,-93.27 1825.05,-90.45"/>
<polygon fill="midnightblue" stroke="midnightblue" points="1826.51,-93.64 1834.47,-86.64 1823.89,-87.15 1826.51,-93.64"/>
</g>
<!-- Node33 -->
<g id="node33" class="node">
<title>Node33</title>
<g id="a_node33"><a xlink:title=" ">
<polygon fill="white" stroke="#bfbfbf" points="1913.5,-67.5 1913.5,-86.5 1977.5,-86.5 1977.5,-67.5 1913.5,-67.5"/>
<text text-anchor="middle" x="1945.5" y="-74.5" font-family="Helvetica,sans-Serif" font-size="10.00">algorithm</text>
</a>
</g>
</g>
<!-- Node31&#45;&gt;Node33 -->
<g id="edge33" class="edge">
<title>Node31&#45;&gt;Node33</title>
<path fill="none" stroke="midnightblue" d="M1541.82,-139.45C1635.35,-130.68 1870.15,-107.98 1904.5,-98 1910.2,-96.34 1916.08,-93.94 1921.55,-91.37"/>
<polygon fill="midnightblue" stroke="midnightblue" points="1923.46,-94.33 1930.81,-86.69 1920.3,-88.08 1923.46,-94.33"/>
</g>
<!-- Node34 -->
<g id="node34" class="node">
<title>Node34</title>
<g id="a_node34"><a xlink:title=" ">
<polygon fill="white" stroke="#bfbfbf" points="1995.5,-67.5 1995.5,-86.5 2047.5,-86.5 2047.5,-67.5 1995.5,-67.5"/>
<text text-anchor="middle" x="2021.5" y="-74.5" font-family="Helvetica,sans-Serif" font-size="10.00">cassert</text>
</a>
</g>
</g>
<!-- Node31&#45;&gt;Node34 -->
<g id="edge34" class="edge">
<title>Node31&#45;&gt;Node34</title>
<path fill="none" stroke="midnightblue" d="M1541.85,-139.87C1652.42,-130.8 1965.37,-104.68 1986.5,-98 1991.33,-96.47 1996.23,-94.21 2000.78,-91.75"/>
<polygon fill="midnightblue" stroke="midnightblue" points="2002.65,-94.7 2009.46,-86.59 1999.08,-88.69 2002.65,-94.7"/>
</g>
<!-- Node35 -->
<g id="node35" class="node">
<title>Node35</title>
<g id="a_node35"><a xlink:title=" ">
<polygon fill="white" stroke="#bfbfbf" points="2066,-67.5 2066,-86.5 2115,-86.5 2115,-67.5 2066,-67.5"/>
<text text-anchor="middle" x="2090.5" y="-74.5" font-family="Helvetica,sans-Serif" font-size="10.00">cstdlib</text>
</a>
</g>
</g>
<!-- Node31&#45;&gt;Node35 -->
<g id="edge35" class="edge">
<title>Node31&#45;&gt;Node35</title>
<path fill="none" stroke="midnightblue" d="M1541.9,-139.99C1666.26,-130.22 2050.34,-99.95 2056.5,-98 2061.11,-96.54 2065.75,-94.37 2070.07,-91.99"/>
<polygon fill="midnightblue" stroke="midnightblue" points="2072.14,-94.83 2078.85,-86.63 2068.49,-88.85 2072.14,-94.83"/>
</g>
<!-- Node36 -->
<g id="node36" class="node">
<title>Node36</title>
<g id="a_node36"><a xlink:title=" ">
<polygon fill="white" stroke="#bfbfbf" points="2133.5,-67.5 2133.5,-86.5 2201.5,-86.5 2201.5,-67.5 2133.5,-67.5"/>
<text text-anchor="middle" x="2167.5" y="-74.5" font-family="Helvetica,sans-Serif" font-size="10.00">filesystem</text>
</a>
</g>
</g>
<!-- Node31&#45;&gt;Node36 -->
<g id="edge36" class="edge">
<title>Node31&#45;&gt;Node36</title>
<path fill="none" stroke="midnightblue" d="M1541.7,-140.01C1564.56,-138.23 1594.19,-135.95 1620.5,-134 1844.46,-117.39 1907.1,-154.28 2124.5,-98 2130.73,-96.39 2137.16,-93.9 2143.1,-91.21"/>
<polygon fill="midnightblue" stroke="midnightblue" points="2145.03,-94.16 2152.48,-86.63 2141.96,-87.87 2145.03,-94.16"/>
</g>
<!-- Node37 -->
<g id="node37" class="node">
<title>Node37</title>
<g id="a_node37"><a xlink:title=" ">
<polygon fill="white" stroke="#bfbfbf" points="934,-67.5 934,-86.5 989,-86.5 989,-67.5 934,-67.5"/>
<text text-anchor="middle" x="961.5" y="-74.5" font-family="Helvetica,sans-Serif" font-size="10.00">fstream</text>
</a>
</g>
</g>
<!-- Node31&#45;&gt;Node37 -->
<g id="edge37" class="edge">
<title>Node31&#45;&gt;Node37</title>
<path fill="none" stroke="midnightblue" d="M1465.12,-140.48C1354.97,-133.12 1042.8,-111.33 998.5,-98 993.3,-96.44 988,-94.09 983.1,-91.56"/>
<polygon fill="midnightblue" stroke="midnightblue" points="984.72,-88.45 974.29,-86.59 981.28,-94.55 984.72,-88.45"/>
</g>
<!-- Node38 -->
<g id="node38" class="node">
<title>Node38</title>
<g id="a_node38"><a xlink:title=" ">
<polygon fill="white" stroke="#bfbfbf" points="1007.5,-67.5 1007.5,-86.5 1055.5,-86.5 1055.5,-67.5 1007.5,-67.5"/>
<text text-anchor="middle" x="1031.5" y="-74.5" font-family="Helvetica,sans-Serif" font-size="10.00">gsl/gsl</text>
</a>
</g>
</g>
<!-- Node31&#45;&gt;Node38 -->
<g id="edge38" class="edge">
<title>Node31&#45;&gt;Node38</title>
<path fill="none" stroke="midnightblue" d="M1465.18,-140.04C1365.28,-132.19 1102.05,-110.59 1064.5,-98 1060.02,-96.5 1055.5,-94.31 1051.31,-91.92"/>
<polygon fill="midnightblue" stroke="midnightblue" points="1053.12,-88.92 1042.79,-86.57 1049.4,-94.85 1053.12,-88.92"/>
</g>
<!-- Node39 -->
<g id="node39" class="node">
<title>Node39</title>
<g id="a_node39"><a xlink:title=" ">
<polygon fill="white" stroke="#bfbfbf" points="1073.5,-67.5 1073.5,-86.5 1133.5,-86.5 1133.5,-67.5 1073.5,-67.5"/>
<text text-anchor="middle" x="1103.5" y="-74.5" font-family="Helvetica,sans-Serif" font-size="10.00">iostream</text>
</a>
</g>
</g>
<!-- Node31&#45;&gt;Node39 -->
<g id="edge39" class="edge">
<title>Node31&#45;&gt;Node39</title>
<path fill="none" stroke="midnightblue" d="M1465.2,-139.93C1385.07,-133.22 1202.18,-116.39 1142.5,-98 1137.18,-96.36 1131.72,-94.03 1126.63,-91.53"/>
<polygon fill="midnightblue" stroke="midnightblue" points="1127.91,-88.25 1117.44,-86.66 1124.64,-94.43 1127.91,-88.25"/>
</g>
<!-- Node40 -->
<g id="node40" class="node">
<title>Node40</title>
<g id="a_node40"><a xlink:title=" ">
<polygon fill="white" stroke="#bfbfbf" points="1151.5,-67.5 1151.5,-86.5 1199.5,-86.5 1199.5,-67.5 1151.5,-67.5"/>
<text text-anchor="middle" x="1175.5" y="-74.5" font-family="Helvetica,sans-Serif" font-size="10.00">mutex</text>
</a>
</g>
</g>
<!-- Node31&#45;&gt;Node40 -->
<g id="edge40" class="edge">
<title>Node31&#45;&gt;Node40</title>
<path fill="none" stroke="midnightblue" d="M1465.07,-141.91C1407.62,-139.24 1296.65,-129.99 1208.5,-98 1204.25,-96.46 1199.95,-94.34 1195.91,-92.05"/>
<polygon fill="midnightblue" stroke="midnightblue" points="1197.49,-88.91 1187.15,-86.61 1193.8,-94.86 1197.49,-88.91"/>
</g>
<!-- Node41 -->
<g id="node41" class="node">
<title>Node41</title>
<g id="a_node41"><a xlink:title=" ">
<polygon fill="white" stroke="#bfbfbf" points="1217.5,-67.5 1217.5,-86.5 1271.5,-86.5 1271.5,-67.5 1217.5,-67.5"/>
<text text-anchor="middle" x="1244.5" y="-74.5" font-family="Helvetica,sans-Serif" font-size="10.00">random</text>
</a>
</g>
</g>
<!-- Node31&#45;&gt;Node41 -->
<g id="edge41" class="edge">
<title>Node31&#45;&gt;Node41</title>
<path fill="none" stroke="midnightblue" d="M1465.44,-138.94C1420.25,-133.3 1343.13,-121.08 1280.5,-98 1275.8,-96.27 1270.98,-93.99 1266.45,-91.58"/>
<polygon fill="midnightblue" stroke="midnightblue" points="1268.13,-88.51 1257.7,-86.63 1264.68,-94.6 1268.13,-88.51"/>
</g>
<!-- Node42 -->
<g id="node42" class="node">
<title>Node42</title>
<g id="a_node42"><a xlink:title=" ">
<polygon fill="white" stroke="#bfbfbf" points="1289.5,-67.5 1289.5,-86.5 1329.5,-86.5 1329.5,-67.5 1289.5,-67.5"/>
<text text-anchor="middle" x="1309.5" y="-74.5" font-family="Helvetica,sans-Serif" font-size="10.00">span</text>
</a>
</g>
</g>
<!-- Node31&#45;&gt;Node42 -->
<g id="edge42" class="edge">
<title>Node31&#45;&gt;Node42</title>
<path fill="none" stroke="midnightblue" d="M1465.18,-136.11C1431.15,-129.16 1380.6,-116.74 1339.5,-98 1335.99,-96.4 1332.43,-94.41 1329.05,-92.31"/>
<polygon fill="midnightblue" stroke="midnightblue" points="1330.93,-89.36 1320.68,-86.7 1327.03,-95.17 1330.93,-89.36"/>
</g>
<!-- Node43 -->
<g id="node43" class="node">
<title>Node43</title>
<g id="a_node43"><a xlink:title=" ">
<polygon fill="white" stroke="#bfbfbf" points="1348,-67.5 1348,-86.5 1413,-86.5 1413,-67.5 1348,-67.5"/>
<text text-anchor="middle" x="1380.5" y="-74.5" font-family="Helvetica,sans-Serif" font-size="10.00">stdexcept</text>
</a>
</g>
</g>
<!-- Node31&#45;&gt;Node43 -->
<g id="edge43" class="edge">
<title>Node31&#45;&gt;Node43</title>
<path fill="none" stroke="midnightblue" d="M1487.17,-134.37C1466.4,-123.39 1430.31,-104.32 1405.93,-91.44"/>
<polygon fill="midnightblue" stroke="midnightblue" points="1407.38,-88.25 1396.9,-86.67 1404.11,-94.43 1407.38,-88.25"/>
</g>
<!-- Node44 -->
<g id="node44" class="node">
<title>Node44</title>
<g id="a_node44"><a xlink:title=" ">
<polygon fill="white" stroke="#bfbfbf" points="1431,-67.5 1431,-86.5 1496,-86.5 1496,-67.5 1431,-67.5"/>
<text text-anchor="middle" x="1463.5" y="-74.5" font-family="Helvetica,sans-Serif" font-size="10.00">typeindex</text>
</a>
</g>
</g>
<!-- Node31&#45;&gt;Node44 -->
<g id="edge45" class="edge">
<title>Node31&#45;&gt;Node44</title>
<path fill="none" stroke="midnightblue" d="M1498.11,-134.23C1491.99,-124.29 1481.86,-107.84 1474.14,-95.29"/>
<polygon fill="midnightblue" stroke="midnightblue" points="1477.03,-93.31 1468.81,-86.63 1471.07,-96.98 1477.03,-93.31"/>
</g>
<!-- Node45 -->
<g id="node45" class="node">
<title>Node45</title>
<g id="a_node45"><a xlink:title=" ">
<polygon fill="white" stroke="#bfbfbf" points="1514,-67.5 1514,-86.5 1573,-86.5 1573,-67.5 1514,-67.5"/>
<text text-anchor="middle" x="1543.5" y="-74.5" font-family="Helvetica,sans-Serif" font-size="10.00">date/tz.h</text>
</a>
</g>
</g>
<!-- Node31&#45;&gt;Node45 -->
<g id="edge46" class="edge">
<title>Node31&#45;&gt;Node45</title>
<path fill="none" stroke="midnightblue" d="M1508.89,-134.23C1515.01,-124.29 1525.14,-107.84 1532.86,-95.29"/>
<polygon fill="midnightblue" stroke="midnightblue" points="1535.93,-96.98 1538.19,-86.63 1529.97,-93.31 1535.93,-96.98"/>
</g>
<!-- Node46 -->
<g id="node46" class="node">
<title>Node46</title>
<g id="a_node46"><a xlink:title=" ">
<polygon fill="white" stroke="#bfbfbf" points="1591.5,-67.5 1591.5,-86.5 1689.5,-86.5 1689.5,-67.5 1591.5,-67.5"/>
<text text-anchor="middle" x="1640.5" y="-74.5" font-family="Helvetica,sans-Serif" font-size="10.00">pcg_random.hpp</text>
</a>
</g>
</g>
<!-- Node31&#45;&gt;Node46 -->
<g id="edge47" class="edge">
<title>Node31&#45;&gt;Node46</title>
<path fill="none" stroke="midnightblue" d="M1521.69,-134.37C1545.03,-123.3 1585.73,-103.99 1612.89,-91.1"/>
<polygon fill="midnightblue" stroke="midnightblue" points="1614.7,-94.12 1622.23,-86.67 1611.7,-87.79 1614.7,-94.12"/>
</g>
<!-- Node47 -->
<g id="node47" class="node">
<title>Node47</title>
<g id="a_node47"><a xlink:title=" ">
<polygon fill="white" stroke="#bfbfbf" points="1707.5,-67.5 1707.5,-86.5 1793.5,-86.5 1793.5,-67.5 1707.5,-67.5"/>
<text text-anchor="middle" x="1750.5" y="-74.5" font-family="Helvetica,sans-Serif" font-size="10.00">fmt/ostream.h</text>
</a>
</g>
</g>
<!-- Node31&#45;&gt;Node47 -->
<g id="edge48" class="edge">
<title>Node31&#45;&gt;Node47</title>
<path fill="none" stroke="midnightblue" d="M1541.66,-135.84C1581.28,-128.03 1644.84,-114.42 1698.5,-98 1705.75,-95.78 1713.43,-93.05 1720.61,-90.32"/>
<polygon fill="midnightblue" stroke="midnightblue" points="1721.94,-93.56 1729.98,-86.66 1719.4,-87.04 1721.94,-93.56"/>
</g>
<!-- Node50&#45;&gt;Node28 -->
<g id="edge54" class="edge">
<title>Node50&#45;&gt;Node28</title>
<path fill="none" stroke="midnightblue" d="M996.11,-526.4C975.13,-509.48 932.5,-469.61 932.5,-425 932.5,-425 932.5,-425 932.5,-199 932.5,-158.84 907.08,-117.37 890.81,-94.92"/>
<polygon fill="midnightblue" stroke="midnightblue" points="893.5,-92.67 884.69,-86.78 887.9,-96.88 893.5,-92.67"/>
</g>
<!-- Node51 -->
<g id="node49" class="node">
<title>Node51</title>
<g id="a_node49"><a xlink:title=" ">
<polygon fill="white" stroke="#bfbfbf" points="983.5,-470.5 983.5,-489.5 1031.5,-489.5 1031.5,-470.5 983.5,-470.5"/>
<text text-anchor="middle" x="1007.5" y="-477.5" font-family="Helvetica,sans-Serif" font-size="10.00">mpfr.h</text>
</a>
</g>
</g>
<!-- Node50&#45;&gt;Node51 -->
<g id="edge53" class="edge">
<title>Node50&#45;&gt;Node51</title>
<path fill="none" stroke="midnightblue" d="M1007.5,-526.08C1007.5,-519.01 1007.5,-508.86 1007.5,-499.99"/>
<polygon fill="midnightblue" stroke="midnightblue" points="1011,-499.75 1007.5,-489.75 1004,-499.75 1011,-499.75"/>
</g>
<!-- Node52&#45;&gt;Node3 -->
<g id="edge56" class="edge">
<title>Node52&#45;&gt;Node3</title>
<path fill="none" stroke="midnightblue" d="M1218.5,-582.08C1218.5,-575.01 1218.5,-564.86 1218.5,-555.99"/>
<polygon fill="midnightblue" stroke="midnightblue" points="1222,-555.75 1218.5,-545.75 1215,-555.75 1222,-555.75"/>
</g>
</g>
</svg>
