<?xml version="1.0" encoding="UTF-8" standalone="no"?>
<!DOCTYPE svg PUBLIC "-//W3C//DTD SVG 1.1//EN"
 "http://www.w3.org/Graphics/SVG/1.1/DTD/svg11.dtd">
<!-- Generated by graphviz version 2.43.0 (0)
 -->
<!-- Title: src/cdt&#45;opt.cpp Pages: 1 -->
<svg width="2591pt" height="666pt"
 viewBox="0.00 0.00 2590.50 666.00" xmlns="http://www.w3.org/2000/svg" xmlns:xlink="http://www.w3.org/1999/xlink">
<g id="graph0" class="graph" transform="scale(1 1) rotate(0) translate(4 662)">
<title>src/cdt&#45;opt.cpp</title>
<polygon fill="white" stroke="transparent" points="-4,4 -4,-662 2586.5,-662 2586.5,4 -4,4"/>
<!-- Node1 -->
<g id="node1" class="node">
<title>Node1</title>
<g id="a_node1"><a xlink:title="Outputs values to determine optimizations.">
<polygon fill="#bfbfbf" stroke="black" points="919,-638.5 919,-657.5 1008,-657.5 1008,-638.5 919,-638.5"/>
<text text-anchor="middle" x="963.5" y="-645.5" font-family="Helvetica,sans-Serif" font-size="10.00">src/cdt&#45;opt.cpp</text>
</a>
</g>
</g>
<!-- Node2 -->
<g id="node2" class="node">
<title>Node2</title>
<g id="a_node2"><a xlink:href="_metropolis_8hpp.html" target="_top" xlink:title="Perform Metropolis&#45;Hastings algorithm on Delaunay Triangulations.">
<polygon fill="white" stroke="black" points="977,-582.5 977,-601.5 1066,-601.5 1066,-582.5 977,-582.5"/>
<text text-anchor="middle" x="1021.5" y="-589.5" font-family="Helvetica,sans-Serif" font-size="10.00">Metropolis.hpp</text>
</a>
</g>
</g>
<!-- Node1&#45;&gt;Node2 -->
<g id="edge1" class="edge">
<title>Node1&#45;&gt;Node2</title>
<path fill="none" stroke="midnightblue" d="M972.82,-638.32C981.39,-630.34 994.31,-618.31 1004.69,-608.65"/>
<polygon fill="midnightblue" stroke="midnightblue" points="1007.08,-611.21 1012.01,-601.83 1002.31,-606.09 1007.08,-611.21"/>
</g>
<!-- Node49 -->
<g id="node49" class="node">
<title>Node49</title>
<g id="a_node49"><a xlink:href="_move__always_8hpp.html" target="_top" xlink:title="Randomly selects moves to always perform on triangulations.">
<polygon fill="white" stroke="black" points="854.5,-582.5 854.5,-601.5 958.5,-601.5 958.5,-582.5 854.5,-582.5"/>
<text text-anchor="middle" x="906.5" y="-589.5" font-family="Helvetica,sans-Serif" font-size="10.00">Move_always.hpp</text>
</a>
</g>
</g>
<!-- Node1&#45;&gt;Node49 -->
<g id="edge53" class="edge">
<title>Node1&#45;&gt;Node49</title>
<path fill="none" stroke="midnightblue" d="M954.34,-638.32C946,-630.42 933.47,-618.55 923.32,-608.94"/>
<polygon fill="midnightblue" stroke="midnightblue" points="925.49,-606.17 915.82,-601.83 920.68,-611.25 925.49,-606.17"/>
</g>
<!-- Node3 -->
<g id="node3" class="node">
<title>Node3</title>
<g id="a_node3"><a xlink:href="_move__strategy_8hpp.html" target="_top" xlink:title="Template class for move algorithms (strategies) on manifolds.">
<polygon fill="white" stroke="black" points="852,-526.5 852,-545.5 961,-545.5 961,-526.5 852,-526.5"/>
<text text-anchor="middle" x="906.5" y="-533.5" font-family="Helvetica,sans-Serif" font-size="10.00">Move_strategy.hpp</text>
</a>
</g>
</g>
<!-- Node2&#45;&gt;Node3 -->
<g id="edge2" class="edge">
<title>Node2&#45;&gt;Node3</title>
<path fill="none" stroke="midnightblue" d="M1003.28,-582.44C984.6,-573.68 955.34,-559.94 933.88,-549.86"/>
<polygon fill="midnightblue" stroke="midnightblue" points="935.18,-546.6 924.64,-545.52 932.2,-552.93 935.18,-546.6"/>
</g>
<!-- Node46 -->
<g id="node46" class="node">
<title>Node46</title>
<g id="a_node46"><a xlink:href="_s3_action_8hpp.html" target="_top" xlink:title="Calculate S3 bulk actions on 3D Delaunay Triangulations.">
<polygon fill="white" stroke="black" points="1400.5,-526.5 1400.5,-545.5 1480.5,-545.5 1480.5,-526.5 1400.5,-526.5"/>
<text text-anchor="middle" x="1440.5" y="-533.5" font-family="Helvetica,sans-Serif" font-size="10.00">S3Action.hpp</text>
</a>
</g>
</g>
<!-- Node2&#45;&gt;Node46 -->
<g id="edge49" class="edge">
<title>Node2&#45;&gt;Node46</title>
<path fill="none" stroke="midnightblue" d="M1066.34,-585.22C1145.1,-575.07 1307.72,-554.11 1390.18,-543.48"/>
<polygon fill="midnightblue" stroke="midnightblue" points="1390.84,-546.93 1400.31,-542.18 1389.95,-539.99 1390.84,-546.93"/>
</g>
<!-- Node4 -->
<g id="node4" class="node">
<title>Node4</title>
<g id="a_node4"><a xlink:href="_move__command_8hpp.html" target="_top" xlink:title="Do ergodic moves using the Command pattern.">
<polygon fill="white" stroke="black" points="351,-470.5 351,-489.5 470,-489.5 470,-470.5 351,-470.5"/>
<text text-anchor="middle" x="410.5" y="-477.5" font-family="Helvetica,sans-Serif" font-size="10.00">Move_command.hpp</text>
</a>
</g>
</g>
<!-- Node3&#45;&gt;Node4 -->
<g id="edge3" class="edge">
<title>Node3&#45;&gt;Node4</title>
<path fill="none" stroke="midnightblue" d="M851.52,-529.01C760.81,-519.14 579.93,-499.45 480.31,-488.6"/>
<polygon fill="midnightblue" stroke="midnightblue" points="480.66,-485.12 470.34,-487.52 479.91,-492.08 480.66,-485.12"/>
</g>
<!-- Node5 -->
<g id="node5" class="node">
<title>Node5</title>
<g id="a_node5"><a xlink:href="_apply__move_8hpp.html" target="_top" xlink:title="Apply Pachner moves to foliated Delaunay triangulations.">
<polygon fill="white" stroke="black" points="195.5,-414.5 195.5,-433.5 293.5,-433.5 293.5,-414.5 195.5,-414.5"/>
<text text-anchor="middle" x="244.5" y="-421.5" font-family="Helvetica,sans-Serif" font-size="10.00">Apply_move.hpp</text>
</a>
</g>
</g>
<!-- Node4&#45;&gt;Node5 -->
<g id="edge4" class="edge">
<title>Node4&#45;&gt;Node5</title>
<path fill="none" stroke="midnightblue" d="M384.2,-470.44C356.15,-461.32 311.56,-446.81 280.32,-436.65"/>
<polygon fill="midnightblue" stroke="midnightblue" points="281.27,-433.28 270.68,-433.52 279.11,-439.94 281.27,-433.28"/>
</g>
<!-- Node11 -->
<g id="node11" class="node">
<title>Node11</title>
<g id="a_node11"><a xlink:href="_ergodic__moves__3_8hpp.html" target="_top" xlink:title="Pachner moves on 2+1 dimensional foliated Delaunay triangulations.">
<polygon fill="white" stroke="black" points="349,-414.5 349,-433.5 472,-433.5 472,-414.5 349,-414.5"/>
<text text-anchor="middle" x="410.5" y="-421.5" font-family="Helvetica,sans-Serif" font-size="10.00">Ergodic_moves_3.hpp</text>
</a>
</g>
</g>
<!-- Node4&#45;&gt;Node11 -->
<g id="edge10" class="edge">
<title>Node4&#45;&gt;Node11</title>
<path fill="none" stroke="midnightblue" d="M410.5,-470.08C410.5,-463.01 410.5,-452.86 410.5,-443.99"/>
<polygon fill="midnightblue" stroke="midnightblue" points="414,-443.75 410.5,-433.75 407,-443.75 414,-443.75"/>
</g>
<!-- Node6 -->
<g id="node6" class="node">
<title>Node6</title>
<g id="a_node6"><a xlink:title=" ">
<polygon fill="white" stroke="#bfbfbf" points="54,-358.5 54,-377.5 119,-377.5 119,-358.5 54,-358.5"/>
<text text-anchor="middle" x="86.5" y="-365.5" font-family="Helvetica,sans-Serif" font-size="10.00">functional</text>
</a>
</g>
</g>
<!-- Node5&#45;&gt;Node6 -->
<g id="edge5" class="edge">
<title>Node5&#45;&gt;Node6</title>
<path fill="none" stroke="midnightblue" d="M219.46,-414.44C192.88,-405.36 150.69,-390.94 120.98,-380.78"/>
<polygon fill="midnightblue" stroke="midnightblue" points="122.01,-377.44 111.42,-377.52 119.75,-384.06 122.01,-377.44"/>
</g>
<!-- Node7 -->
<g id="node7" class="node">
<title>Node7</title>
<g id="a_node7"><a xlink:title=" ">
<polygon fill="white" stroke="#bfbfbf" points="0,-67.5 0,-86.5 93,-86.5 93,-67.5 0,-67.5"/>
<text text-anchor="middle" x="46.5" y="-74.5" font-family="Helvetica,sans-Serif" font-size="10.00">spdlog/spdlog.h</text>
</a>
</g>
</g>
<!-- Node5&#45;&gt;Node7 -->
<g id="edge6" class="edge">
<title>Node5&#45;&gt;Node7</title>
<path fill="none" stroke="midnightblue" d="M228.48,-414.48C200.93,-398.54 147.5,-361.38 147.5,-313 147.5,-313 147.5,-313 147.5,-199 147.5,-150.89 99.86,-111.79 70.02,-92.02"/>
<polygon fill="midnightblue" stroke="midnightblue" points="71.71,-88.95 61.4,-86.51 67.95,-94.85 71.71,-88.95"/>
</g>
<!-- Node8 -->
<g id="node8" class="node">
<title>Node8</title>
<g id="a_node8"><a xlink:title=" ">
<polygon fill="white" stroke="#bfbfbf" points="111.5,-67.5 111.5,-86.5 155.5,-86.5 155.5,-67.5 111.5,-67.5"/>
<text text-anchor="middle" x="133.5" y="-74.5" font-family="Helvetica,sans-Serif" font-size="10.00">string</text>
</a>
</g>
</g>
<!-- Node5&#45;&gt;Node8 -->
<g id="edge7" class="edge">
<title>Node5&#45;&gt;Node8</title>
<path fill="none" stroke="midnightblue" d="M234.57,-414.3C225.52,-405.86 212.4,-392.27 204.5,-378 189.92,-351.67 185.5,-343.1 185.5,-313 185.5,-313 185.5,-313 185.5,-199 185.5,-159.19 161.44,-117.55 146.05,-95"/>
<polygon fill="midnightblue" stroke="midnightblue" points="148.72,-92.7 140.09,-86.56 143,-96.74 148.72,-92.7"/>
</g>
<!-- Node9 -->
<g id="node9" class="node">
<title>Node9</title>
<g id="a_node9"><a xlink:title=" ">
<polygon fill="white" stroke="#bfbfbf" points="343.5,-358.5 343.5,-377.5 435.5,-377.5 435.5,-358.5 343.5,-358.5"/>
<text text-anchor="middle" x="389.5" y="-365.5" font-family="Helvetica,sans-Serif" font-size="10.00">tl/expected.hpp</text>
</a>
</g>
</g>
<!-- Node5&#45;&gt;Node9 -->
<g id="edge8" class="edge">
<title>Node5&#45;&gt;Node9</title>
<path fill="none" stroke="midnightblue" d="M267.48,-414.44C291.66,-405.44 329.92,-391.19 357.15,-381.05"/>
<polygon fill="midnightblue" stroke="midnightblue" points="358.48,-384.29 366.63,-377.52 356.04,-377.73 358.48,-384.29"/>
</g>
<!-- Node10 -->
<g id="node10" class="node">
<title>Node10</title>
<g id="a_node10"><a xlink:title=" ">
<polygon fill="white" stroke="#bfbfbf" points="214,-358.5 214,-377.5 319,-377.5 319,-358.5 214,-358.5"/>
<text text-anchor="middle" x="266.5" y="-365.5" font-family="Helvetica,sans-Serif" font-size="10.00">tl/function_ref.hpp</text>
</a>
</g>
</g>
<!-- Node5&#45;&gt;Node10 -->
<g id="edge9" class="edge">
<title>Node5&#45;&gt;Node10</title>
<path fill="none" stroke="midnightblue" d="M248.13,-414.08C251.11,-406.77 255.43,-396.18 259.12,-387.1"/>
<polygon fill="midnightblue" stroke="midnightblue" points="262.4,-388.33 262.93,-377.75 255.92,-385.69 262.4,-388.33"/>
</g>
<!-- Node11&#45;&gt;Node9 -->
<g id="edge48" class="edge">
<title>Node11&#45;&gt;Node9</title>
<path fill="none" stroke="midnightblue" d="M407.03,-414.08C404.19,-406.77 400.07,-396.18 396.54,-387.1"/>
<polygon fill="midnightblue" stroke="midnightblue" points="399.79,-385.8 392.9,-377.75 393.27,-388.34 399.79,-385.8"/>
</g>
<!-- Node12 -->
<g id="node12" class="node">
<title>Node12</title>
<g id="a_node12"><a xlink:href="_move__tracker_8hpp.html" target="_top" xlink:title="Track ergodic moves.">
<polygon fill="white" stroke="black" points="752,-358.5 752,-377.5 855,-377.5 855,-358.5 752,-358.5"/>
<text text-anchor="middle" x="803.5" y="-365.5" font-family="Helvetica,sans-Serif" font-size="10.00">Move_tracker.hpp</text>
</a>
</g>
</g>
<!-- Node11&#45;&gt;Node12 -->
<g id="edge11" class="edge">
<title>Node11&#45;&gt;Node12</title>
<path fill="none" stroke="midnightblue" d="M472.34,-414.5C545.94,-404.39 668.1,-387.6 741.69,-377.49"/>
<polygon fill="midnightblue" stroke="midnightblue" points="742.31,-380.94 751.74,-376.11 741.36,-374.01 742.31,-380.94"/>
</g>
<!-- Node13 -->
<g id="node13" class="node">
<title>Node13</title>
<g id="a_node13"><a xlink:href="_manifold_8hpp.html" target="_top" xlink:title="Data structures for manifolds.">
<polygon fill="white" stroke="black" points="815.5,-302.5 815.5,-321.5 895.5,-321.5 895.5,-302.5 815.5,-302.5"/>
<text text-anchor="middle" x="855.5" y="-309.5" font-family="Helvetica,sans-Serif" font-size="10.00">Manifold.hpp</text>
</a>
</g>
</g>
<!-- Node12&#45;&gt;Node13 -->
<g id="edge12" class="edge">
<title>Node12&#45;&gt;Node13</title>
<path fill="none" stroke="midnightblue" d="M812.09,-358.08C819.66,-350.22 830.88,-338.57 840.01,-329.08"/>
<polygon fill="midnightblue" stroke="midnightblue" points="842.66,-331.38 847.07,-321.75 837.62,-326.53 842.66,-331.38"/>
</g>
<!-- Node14 -->
<g id="node14" class="node">
<title>Node14</title>
<g id="a_node14"><a xlink:href="_geometry_8hpp.html" target="_top" xlink:title="Geometric quantities of Manifold used by MoveAlgorithm.">
<polygon fill="white" stroke="black" points="726,-246.5 726,-265.5 811,-265.5 811,-246.5 726,-246.5"/>
<text text-anchor="middle" x="768.5" y="-253.5" font-family="Helvetica,sans-Serif" font-size="10.00">Geometry.hpp</text>
</a>
</g>
</g>
<!-- Node13&#45;&gt;Node14 -->
<g id="edge13" class="edge">
<title>Node13&#45;&gt;Node14</title>
<path fill="none" stroke="midnightblue" d="M841.52,-302.32C827.95,-293.9 807.12,-280.97 791.18,-271.07"/>
<polygon fill="midnightblue" stroke="midnightblue" points="792.79,-267.95 782.44,-265.65 789.09,-273.9 792.79,-267.95"/>
</g>
<!-- Node43 -->
<g id="node43" class="node">
<title>Node43</title>
<g id="a_node43"><a xlink:title=" ">
<polygon fill="white" stroke="#bfbfbf" points="829,-246.5 829,-265.5 882,-265.5 882,-246.5 829,-246.5"/>
<text text-anchor="middle" x="855.5" y="-253.5" font-family="Helvetica,sans-Serif" font-size="10.00">cstddef</text>
</a>
</g>
</g>
<!-- Node13&#45;&gt;Node43 -->
<g id="edge45" class="edge">
<title>Node13&#45;&gt;Node43</title>
<path fill="none" stroke="midnightblue" d="M855.5,-302.08C855.5,-295.01 855.5,-284.86 855.5,-275.99"/>
<polygon fill="midnightblue" stroke="midnightblue" points="859,-275.75 855.5,-265.75 852,-275.75 859,-275.75"/>
</g>
<!-- Node44 -->
<g id="node44" class="node">
<title>Node44</title>
<g id="a_node44"><a xlink:title=" ">
<polygon fill="white" stroke="#bfbfbf" points="900.5,-246.5 900.5,-265.5 986.5,-265.5 986.5,-246.5 900.5,-246.5"/>
<text text-anchor="middle" x="943.5" y="-253.5" font-family="Helvetica,sans-Serif" font-size="10.00">unordered_set</text>
</a>
</g>
</g>
<!-- Node13&#45;&gt;Node44 -->
<g id="edge46" class="edge">
<title>Node13&#45;&gt;Node44</title>
<path fill="none" stroke="midnightblue" d="M869.64,-302.32C883.37,-293.9 904.44,-280.97 920.56,-271.07"/>
<polygon fill="midnightblue" stroke="midnightblue" points="922.7,-273.87 929.4,-265.65 919.04,-267.9 922.7,-273.87"/>
</g>
<!-- Node45 -->
<g id="node45" class="node">
<title>Node45</title>
<g id="a_node45"><a xlink:title=" ">
<polygon fill="white" stroke="#bfbfbf" points="1005,-246.5 1005,-265.5 1050,-265.5 1050,-246.5 1005,-246.5"/>
<text text-anchor="middle" x="1027.5" y="-253.5" font-family="Helvetica,sans-Serif" font-size="10.00">utility</text>
</a>
</g>
</g>
<!-- Node13&#45;&gt;Node45 -->
<g id="edge47" class="edge">
<title>Node13&#45;&gt;Node45</title>
<path fill="none" stroke="midnightblue" d="M882.75,-302.44C913.18,-292.89 962.41,-277.44 994.86,-267.25"/>
<polygon fill="midnightblue" stroke="midnightblue" points="996.28,-270.47 1004.77,-264.14 994.18,-263.79 996.28,-270.47"/>
</g>
<!-- Node15 -->
<g id="node15" class="node">
<title>Node15</title>
<g id="a_node15"><a xlink:href="_foliated__triangulation_8hpp.html" target="_top" xlink:title="Create foliated spherical triangulations.">
<polygon fill="white" stroke="black" points="845.5,-190.5 845.5,-209.5 989.5,-209.5 989.5,-190.5 845.5,-190.5"/>
<text text-anchor="middle" x="917.5" y="-197.5" font-family="Helvetica,sans-Serif" font-size="10.00">Foliated_triangulation.hpp</text>
</a>
</g>
</g>
<!-- Node14&#45;&gt;Node15 -->
<g id="edge14" class="edge">
<title>Node14&#45;&gt;Node15</title>
<path fill="none" stroke="midnightblue" d="M792.11,-246.44C816.96,-237.44 856.27,-223.19 884.25,-213.05"/>
<polygon fill="midnightblue" stroke="midnightblue" points="885.79,-216.21 894,-209.52 883.41,-209.63 885.79,-216.21"/>
</g>
<!-- Node16 -->
<g id="node16" class="node">
<title>Node16</title>
<g id="a_node16"><a xlink:href="_triangulation__traits_8hpp.html" target="_top" xlink:title="Traits class for particular uses of CGAL.">
<polygon fill="white" stroke="black" points="1984,-134.5 1984,-153.5 2115,-153.5 2115,-134.5 1984,-134.5"/>
<text text-anchor="middle" x="2049.5" y="-141.5" font-family="Helvetica,sans-Serif" font-size="10.00">Triangulation_traits.hpp</text>
</a>
</g>
</g>
<!-- Node15&#45;&gt;Node16 -->
<g id="edge15" class="edge">
<title>Node15&#45;&gt;Node16</title>
<path fill="none" stroke="midnightblue" d="M989.6,-195.56C1192.42,-185.89 1766.56,-158.5 1973.76,-148.61"/>
<polygon fill="midnightblue" stroke="midnightblue" points="1974.11,-152.1 1983.93,-148.13 1973.78,-145.11 1974.11,-152.1"/>
</g>
<!-- Node25 -->
<g id="node25" class="node">
<title>Node25</title>
<g id="a_node25"><a xlink:href="_utilities_8hpp.html" target="_top" xlink:title="Utility functions.">
<polygon fill="white" stroke="black" points="879.5,-134.5 879.5,-153.5 955.5,-153.5 955.5,-134.5 879.5,-134.5"/>
<text text-anchor="middle" x="917.5" y="-141.5" font-family="Helvetica,sans-Serif" font-size="10.00">Utilities.hpp</text>
</a>
</g>
</g>
<!-- Node15&#45;&gt;Node25 -->
<g id="edge24" class="edge">
<title>Node15&#45;&gt;Node25</title>
<path fill="none" stroke="midnightblue" d="M917.5,-190.08C917.5,-183.01 917.5,-172.86 917.5,-163.99"/>
<polygon fill="midnightblue" stroke="midnightblue" points="921,-163.75 917.5,-153.75 914,-163.75 921,-163.75"/>
</g>
<!-- Node17 -->
<g id="node17" class="node">
<title>Node17</title>
<g id="a_node17"><a xlink:href="_settings_8hpp.html" target="_top" xlink:title="Global integer and precision settings.">
<polygon fill="white" stroke="black" points="2307,-67.5 2307,-86.5 2384,-86.5 2384,-67.5 2307,-67.5"/>
<text text-anchor="middle" x="2345.5" y="-74.5" font-family="Helvetica,sans-Serif" font-size="10.00">Settings.hpp</text>
</a>
</g>
</g>
<!-- Node16&#45;&gt;Node17 -->
<g id="edge16" class="edge">
<title>Node16&#45;&gt;Node17</title>
<path fill="none" stroke="midnightblue" d="M2115.14,-135.02C2165.66,-127.94 2236.86,-115.91 2297.5,-98 2304.36,-95.97 2311.58,-93.28 2318.27,-90.54"/>
<polygon fill="midnightblue" stroke="midnightblue" points="2319.79,-93.69 2327.6,-86.54 2317.03,-87.26 2319.79,-93.69"/>
</g>
<!-- Node20 -->
<g id="node20" class="node">
<title>Node20</title>
<g id="a_node20"><a xlink:title=" ">
<polygon fill="white" stroke="#bfbfbf" points="2402.5,-67.5 2402.5,-86.5 2582.5,-86.5 2582.5,-67.5 2402.5,-67.5"/>
<text text-anchor="middle" x="2492.5" y="-74.5" font-family="Helvetica,sans-Serif" font-size="10.00">CGAL/Delaunay_triangulation_3.h</text>
</a>
</g>
</g>
<!-- Node16&#45;&gt;Node20 -->
<g id="edge19" class="edge">
<title>Node16&#45;&gt;Node20</title>
<path fill="none" stroke="midnightblue" d="M2115.01,-135.8C2184.37,-127.85 2296.95,-114.05 2393.5,-98 2409.82,-95.29 2427.55,-91.86 2443.44,-88.61"/>
<polygon fill="midnightblue" stroke="midnightblue" points="2444.51,-91.96 2453.59,-86.51 2443.09,-85.11 2444.51,-91.96"/>
</g>
<!-- Node21 -->
<g id="node21" class="node">
<title>Node21</title>
<g id="a_node21"><a xlink:title=" ">
<polygon fill="white" stroke="#bfbfbf" points="1833,-56.5 1833,-97.5 1962,-97.5 1962,-56.5 1833,-56.5"/>
<text text-anchor="start" x="1841" y="-85.5" font-family="Helvetica,sans-Serif" font-size="10.00">CGAL/Exact_predicates</text>
<text text-anchor="start" x="1841" y="-74.5" font-family="Helvetica,sans-Serif" font-size="10.00">_inexact_constructions</text>
<text text-anchor="middle" x="1897.5" y="-63.5" font-family="Helvetica,sans-Serif" font-size="10.00">_kernel.h</text>
</a>
</g>
</g>
<!-- Node16&#45;&gt;Node21 -->
<g id="edge20" class="edge">
<title>Node16&#45;&gt;Node21</title>
<path fill="none" stroke="midnightblue" d="M2029.32,-134.37C2009.81,-126.03 1979.38,-113.01 1952.66,-101.59"/>
<polygon fill="midnightblue" stroke="midnightblue" points="1953.96,-98.34 1943.39,-97.63 1951.21,-104.78 1953.96,-98.34"/>
</g>
<!-- Node22 -->
<g id="node22" class="node">
<title>Node22</title>
<g id="a_node22"><a xlink:title=" ">
<polygon fill="white" stroke="#bfbfbf" points="1980.5,-62 1980.5,-92 2118.5,-92 2118.5,-62 1980.5,-62"/>
<text text-anchor="start" x="1988.5" y="-80" font-family="Helvetica,sans-Serif" font-size="10.00">CGAL/Triangulation</text>
<text text-anchor="middle" x="2049.5" y="-69" font-family="Helvetica,sans-Serif" font-size="10.00">_cell_base_with_info_3.h</text>
</a>
</g>
</g>
<!-- Node16&#45;&gt;Node22 -->
<g id="edge21" class="edge">
<title>Node16&#45;&gt;Node22</title>
<path fill="none" stroke="midnightblue" d="M2049.5,-134.23C2049.5,-126.04 2049.5,-113.42 2049.5,-102.21"/>
<polygon fill="midnightblue" stroke="midnightblue" points="2053,-102.09 2049.5,-92.09 2046,-102.09 2053,-102.09"/>
</g>
<!-- Node23 -->
<g id="node23" class="node">
<title>Node23</title>
<g id="a_node23"><a xlink:title=" ">
<polygon fill="white" stroke="#bfbfbf" points="2136.5,-62 2136.5,-92 2288.5,-92 2288.5,-62 2136.5,-62"/>
<text text-anchor="start" x="2144.5" y="-80" font-family="Helvetica,sans-Serif" font-size="10.00">CGAL/Triangulation</text>
<text text-anchor="middle" x="2212.5" y="-69" font-family="Helvetica,sans-Serif" font-size="10.00">_vertex_base_with_info_3.h</text>
</a>
</g>
</g>
<!-- Node16&#45;&gt;Node23 -->
<g id="edge22" class="edge">
<title>Node16&#45;&gt;Node23</title>
<path fill="none" stroke="midnightblue" d="M2071.15,-134.37C2095.71,-124.57 2136.44,-108.33 2167.89,-95.79"/>
<polygon fill="midnightblue" stroke="midnightblue" points="2169.33,-98.98 2177.32,-92.03 2166.74,-92.48 2169.33,-98.98"/>
</g>
<!-- Node24 -->
<g id="node24" class="node">
<title>Node24</title>
<g id="a_node24"><a xlink:title=" ">
<polygon fill="white" stroke="#bfbfbf" points="1666,-67.5 1666,-86.5 1815,-86.5 1815,-67.5 1666,-67.5"/>
<text text-anchor="middle" x="1740.5" y="-74.5" font-family="Helvetica,sans-Serif" font-size="10.00">CGAL/point_generators_3.h</text>
</a>
</g>
</g>
<!-- Node16&#45;&gt;Node24 -->
<g id="edge23" class="edge">
<title>Node16&#45;&gt;Node24</title>
<path fill="none" stroke="midnightblue" d="M2004.15,-134.43C1958.64,-125.71 1886.57,-111.59 1824.5,-98 1811.67,-95.19 1797.79,-91.96 1785.08,-88.93"/>
<polygon fill="midnightblue" stroke="midnightblue" points="1785.71,-85.49 1775.17,-86.55 1784.08,-92.29 1785.71,-85.49"/>
</g>
<!-- Node18 -->
<g id="node18" class="node">
<title>Node18</title>
<g id="a_node18"><a xlink:title=" ">
<polygon fill="white" stroke="#bfbfbf" points="2259.5,-0.5 2259.5,-19.5 2345.5,-19.5 2345.5,-0.5 2259.5,-0.5"/>
<text text-anchor="middle" x="2302.5" y="-7.5" font-family="Helvetica,sans-Serif" font-size="10.00">CGAL/Gmpzf.h</text>
</a>
</g>
</g>
<!-- Node17&#45;&gt;Node18 -->
<g id="edge17" class="edge">
<title>Node17&#45;&gt;Node18</title>
<path fill="none" stroke="midnightblue" d="M2339.7,-67.23C2333.12,-57.29 2322.24,-40.84 2313.94,-28.29"/>
<polygon fill="midnightblue" stroke="midnightblue" points="2316.64,-26.04 2308.21,-19.63 2310.81,-29.9 2316.64,-26.04"/>
</g>
<!-- Node19 -->
<g id="node19" class="node">
<title>Node19</title>
<g id="a_node19"><a xlink:title=" ">
<polygon fill="white" stroke="#bfbfbf" points="2363.5,-0.5 2363.5,-19.5 2413.5,-19.5 2413.5,-0.5 2363.5,-0.5"/>
<text text-anchor="middle" x="2388.5" y="-7.5" font-family="Helvetica,sans-Serif" font-size="10.00">cstdint</text>
</a>
</g>
</g>
<!-- Node17&#45;&gt;Node19 -->
<g id="edge18" class="edge">
<title>Node17&#45;&gt;Node19</title>
<path fill="none" stroke="midnightblue" d="M2351.3,-67.23C2357.88,-57.29 2368.76,-40.84 2377.06,-28.29"/>
<polygon fill="midnightblue" stroke="midnightblue" points="2380.19,-29.9 2382.79,-19.63 2374.36,-26.04 2380.19,-29.9"/>
</g>
<!-- Node25&#45;&gt;Node7 -->
<g id="edge43" class="edge">
<title>Node25&#45;&gt;Node7</title>
<path fill="none" stroke="midnightblue" d="M879.45,-142.35C739.57,-139.73 254.08,-128.58 102.5,-98 93.55,-96.19 84.11,-93.25 75.57,-90.17"/>
<polygon fill="midnightblue" stroke="midnightblue" points="76.65,-86.84 66.06,-86.55 74.16,-93.38 76.65,-86.84"/>
</g>
<!-- Node25&#45;&gt;Node8 -->
<g id="edge35" class="edge">
<title>Node25&#45;&gt;Node8</title>
<path fill="none" stroke="midnightblue" d="M879.34,-143.26C745.66,-143.8 299.39,-142.15 164.5,-98 160.44,-96.67 156.39,-94.68 152.62,-92.45"/>
<polygon fill="midnightblue" stroke="midnightblue" points="154.25,-89.33 143.99,-86.7 150.37,-95.16 154.25,-89.33"/>
</g>
<!-- Node25&#45;&gt;Node17 -->
<g id="edge44" class="edge">
<title>Node25&#45;&gt;Node17</title>
<path fill="none" stroke="midnightblue" d="M955.84,-142.58C1164.95,-140.15 2163.39,-127.1 2297.5,-98 2305.02,-96.37 2312.86,-93.6 2319.96,-90.65"/>
<polygon fill="midnightblue" stroke="midnightblue" points="2321.39,-93.84 2329.1,-86.58 2318.54,-87.45 2321.39,-93.84"/>
</g>
<!-- Node26 -->
<g id="node26" class="node">
<title>Node26</title>
<g id="a_node26"><a xlink:title=" ">
<polygon fill="white" stroke="#bfbfbf" points="501,-67.5 501,-86.5 584,-86.5 584,-67.5 501,-67.5"/>
<text text-anchor="middle" x="542.5" y="-74.5" font-family="Helvetica,sans-Serif" font-size="10.00">CGAL/Timer.h</text>
</a>
</g>
</g>
<!-- Node25&#45;&gt;Node26 -->
<g id="edge25" class="edge">
<title>Node25&#45;&gt;Node26</title>
<path fill="none" stroke="midnightblue" d="M879.02,-140.6C817.74,-136.12 694.59,-124.45 593.5,-98 586.04,-96.05 578.18,-93.32 570.93,-90.51"/>
<polygon fill="midnightblue" stroke="midnightblue" points="572.1,-87.21 561.52,-86.69 569.47,-93.7 572.1,-87.21"/>
</g>
<!-- Node27 -->
<g id="node27" class="node">
<title>Node27</title>
<g id="a_node27"><a xlink:title=" ">
<polygon fill="white" stroke="#bfbfbf" points="602.5,-67.5 602.5,-86.5 666.5,-86.5 666.5,-67.5 602.5,-67.5"/>
<text text-anchor="middle" x="634.5" y="-74.5" font-family="Helvetica,sans-Serif" font-size="10.00">algorithm</text>
</a>
</g>
</g>
<!-- Node25&#45;&gt;Node27 -->
<g id="edge26" class="edge">
<title>Node25&#45;&gt;Node27</title>
<path fill="none" stroke="midnightblue" d="M879.4,-139.14C831.04,-133.51 745.5,-121.11 675.5,-98 669.95,-96.17 664.2,-93.73 658.82,-91.19"/>
<polygon fill="midnightblue" stroke="midnightblue" points="660.17,-87.96 649.66,-86.62 657.04,-94.22 660.17,-87.96"/>
</g>
<!-- Node28 -->
<g id="node28" class="node">
<title>Node28</title>
<g id="a_node28"><a xlink:title=" ">
<polygon fill="white" stroke="#bfbfbf" points="684.5,-67.5 684.5,-86.5 736.5,-86.5 736.5,-67.5 684.5,-67.5"/>
<text text-anchor="middle" x="710.5" y="-74.5" font-family="Helvetica,sans-Serif" font-size="10.00">cassert</text>
</a>
</g>
</g>
<!-- Node25&#45;&gt;Node28 -->
<g id="edge27" class="edge">
<title>Node25&#45;&gt;Node28</title>
<path fill="none" stroke="midnightblue" d="M879.33,-136.03C843.85,-128.84 789.94,-116.14 745.5,-98 741.15,-96.23 736.68,-94.01 732.45,-91.7"/>
<polygon fill="midnightblue" stroke="midnightblue" points="734.12,-88.62 723.71,-86.65 730.62,-94.68 734.12,-88.62"/>
</g>
<!-- Node29 -->
<g id="node29" class="node">
<title>Node29</title>
<g id="a_node29"><a xlink:title=" ">
<polygon fill="white" stroke="#bfbfbf" points="755,-67.5 755,-86.5 804,-86.5 804,-67.5 755,-67.5"/>
<text text-anchor="middle" x="779.5" y="-74.5" font-family="Helvetica,sans-Serif" font-size="10.00">cstdlib</text>
</a>
</g>
</g>
<!-- Node25&#45;&gt;Node29 -->
<g id="edge28" class="edge">
<title>Node25&#45;&gt;Node29</title>
<path fill="none" stroke="midnightblue" d="M895.63,-134.45C874.33,-125.92 841.21,-112.08 813.5,-98 809.76,-96.1 805.86,-93.96 802.1,-91.81"/>
<polygon fill="midnightblue" stroke="midnightblue" points="803.57,-88.62 793.18,-86.57 800.02,-94.65 803.57,-88.62"/>
</g>
<!-- Node30 -->
<g id="node30" class="node">
<title>Node30</title>
<g id="a_node30"><a xlink:title=" ">
<polygon fill="white" stroke="#bfbfbf" points="174,-67.5 174,-86.5 229,-86.5 229,-67.5 174,-67.5"/>
<text text-anchor="middle" x="201.5" y="-74.5" font-family="Helvetica,sans-Serif" font-size="10.00">fstream</text>
</a>
</g>
</g>
<!-- Node25&#45;&gt;Node30 -->
<g id="edge29" class="edge">
<title>Node25&#45;&gt;Node30</title>
<path fill="none" stroke="midnightblue" d="M879.35,-142.6C754.67,-140.98 360.24,-133.12 238.5,-98 233.28,-96.5 227.98,-94.18 223.07,-91.65"/>
<polygon fill="midnightblue" stroke="midnightblue" points="224.69,-88.54 214.26,-86.67 221.25,-94.64 224.69,-88.54"/>
</g>
<!-- Node31 -->
<g id="node31" class="node">
<title>Node31</title>
<g id="a_node31"><a xlink:title=" ">
<polygon fill="white" stroke="#bfbfbf" points="938.5,-67.5 938.5,-86.5 986.5,-86.5 986.5,-67.5 938.5,-67.5"/>
<text text-anchor="middle" x="962.5" y="-74.5" font-family="Helvetica,sans-Serif" font-size="10.00">gsl/gsl</text>
</a>
</g>
</g>
<!-- Node25&#45;&gt;Node31 -->
<g id="edge30" class="edge">
<title>Node25&#45;&gt;Node31</title>
<path fill="none" stroke="midnightblue" d="M923.57,-134.23C930.52,-124.2 942.07,-107.51 950.79,-94.92"/>
<polygon fill="midnightblue" stroke="midnightblue" points="953.71,-96.84 956.53,-86.63 947.96,-92.86 953.71,-96.84"/>
</g>
<!-- Node32 -->
<g id="node32" class="node">
<title>Node32</title>
<g id="a_node32"><a xlink:title=" ">
<polygon fill="white" stroke="#bfbfbf" points="1004.5,-67.5 1004.5,-86.5 1064.5,-86.5 1064.5,-67.5 1004.5,-67.5"/>
<text text-anchor="middle" x="1034.5" y="-74.5" font-family="Helvetica,sans-Serif" font-size="10.00">iostream</text>
</a>
</g>
</g>
<!-- Node25&#45;&gt;Node32 -->
<g id="edge31" class="edge">
<title>Node25&#45;&gt;Node32</title>
<path fill="none" stroke="midnightblue" d="M933.28,-134.23C953.01,-123.27 987.01,-104.38 1010.11,-91.55"/>
<polygon fill="midnightblue" stroke="midnightblue" points="1011.93,-94.54 1018.97,-86.63 1008.53,-88.42 1011.93,-94.54"/>
</g>
<!-- Node33 -->
<g id="node33" class="node">
<title>Node33</title>
<g id="a_node33"><a xlink:title=" ">
<polygon fill="white" stroke="#bfbfbf" points="1082.5,-67.5 1082.5,-86.5 1130.5,-86.5 1130.5,-67.5 1082.5,-67.5"/>
<text text-anchor="middle" x="1106.5" y="-74.5" font-family="Helvetica,sans-Serif" font-size="10.00">mutex</text>
</a>
</g>
</g>
<!-- Node25&#45;&gt;Node33 -->
<g id="edge32" class="edge">
<title>Node25&#45;&gt;Node33</title>
<path fill="none" stroke="midnightblue" d="M955.67,-134.97C987.87,-127.5 1034.77,-114.96 1073.5,-98 1077.5,-96.25 1081.61,-94.09 1085.51,-91.84"/>
<polygon fill="midnightblue" stroke="midnightblue" points="1087.37,-94.81 1094.07,-86.6 1083.72,-88.84 1087.37,-94.81"/>
</g>
<!-- Node34 -->
<g id="node34" class="node">
<title>Node34</title>
<g id="a_node34"><a xlink:title=" ">
<polygon fill="white" stroke="#bfbfbf" points="1148.5,-67.5 1148.5,-86.5 1202.5,-86.5 1202.5,-67.5 1148.5,-67.5"/>
<text text-anchor="middle" x="1175.5" y="-74.5" font-family="Helvetica,sans-Serif" font-size="10.00">random</text>
</a>
</g>
</g>
<!-- Node25&#45;&gt;Node34 -->
<g id="edge33" class="edge">
<title>Node25&#45;&gt;Node34</title>
<path fill="none" stroke="midnightblue" d="M955.79,-138.86C1000.83,-133.18 1077.33,-120.94 1139.5,-98 1144.2,-96.27 1149.02,-93.98 1153.55,-91.58"/>
<polygon fill="midnightblue" stroke="midnightblue" points="1155.32,-94.6 1162.29,-86.62 1151.87,-88.51 1155.32,-94.6"/>
</g>
<!-- Node35 -->
<g id="node35" class="node">
<title>Node35</title>
<g id="a_node35"><a xlink:title=" ">
<polygon fill="white" stroke="#bfbfbf" points="1221,-67.5 1221,-86.5 1286,-86.5 1286,-67.5 1221,-67.5"/>
<text text-anchor="middle" x="1253.5" y="-74.5" font-family="Helvetica,sans-Serif" font-size="10.00">stdexcept</text>
</a>
</g>
</g>
<!-- Node25&#45;&gt;Node35 -->
<g id="edge34" class="edge">
<title>Node25&#45;&gt;Node35</title>
<path fill="none" stroke="midnightblue" d="M955.88,-140.71C1012.79,-136.52 1122.41,-125.38 1211.5,-98 1217.43,-96.18 1223.59,-93.64 1229.3,-90.99"/>
<polygon fill="midnightblue" stroke="midnightblue" points="1230.95,-94.08 1238.38,-86.53 1227.86,-87.8 1230.95,-94.08"/>
</g>
<!-- Node36 -->
<g id="node36" class="node">
<title>Node36</title>
<g id="a_node36"><a xlink:title=" ">
<polygon fill="white" stroke="#bfbfbf" points="1304,-67.5 1304,-86.5 1369,-86.5 1369,-67.5 1304,-67.5"/>
<text text-anchor="middle" x="1336.5" y="-74.5" font-family="Helvetica,sans-Serif" font-size="10.00">typeindex</text>
</a>
</g>
</g>
<!-- Node25&#45;&gt;Node36 -->
<g id="edge36" class="edge">
<title>Node25&#45;&gt;Node36</title>
<path fill="none" stroke="midnightblue" d="M955.63,-142.64C1024.77,-141.08 1174.88,-133.49 1295.5,-98 1301.2,-96.32 1307.08,-93.91 1312.54,-91.34"/>
<polygon fill="midnightblue" stroke="midnightblue" points="1314.45,-94.3 1321.8,-86.66 1311.3,-88.05 1314.45,-94.3"/>
</g>
<!-- Node37 -->
<g id="node37" class="node">
<title>Node37</title>
<g id="a_node37"><a xlink:title=" ">
<polygon fill="white" stroke="#bfbfbf" points="1387,-67.5 1387,-86.5 1446,-86.5 1446,-67.5 1387,-67.5"/>
<text text-anchor="middle" x="1416.5" y="-74.5" font-family="Helvetica,sans-Serif" font-size="10.00">date/tz.h</text>
</a>
</g>
</g>
<!-- Node25&#45;&gt;Node37 -->
<g id="edge37" class="edge">
<title>Node25&#45;&gt;Node37</title>
<path fill="none" stroke="midnightblue" d="M955.7,-141.17C1051.42,-136.28 1299.54,-121.64 1378.5,-98 1383.81,-96.41 1389.24,-94.06 1394.27,-91.52"/>
<polygon fill="midnightblue" stroke="midnightblue" points="1396.24,-94.43 1403.33,-86.56 1392.88,-88.29 1396.24,-94.43"/>
</g>
<!-- Node38 -->
<g id="node38" class="node">
<title>Node38</title>
<g id="a_node38"><a xlink:title=" ">
<polygon fill="white" stroke="#bfbfbf" points="822.5,-67.5 822.5,-86.5 920.5,-86.5 920.5,-67.5 822.5,-67.5"/>
<text text-anchor="middle" x="871.5" y="-74.5" font-family="Helvetica,sans-Serif" font-size="10.00">pcg_random.hpp</text>
</a>
</g>
</g>
<!-- Node25&#45;&gt;Node38 -->
<g id="edge38" class="edge">
<title>Node25&#45;&gt;Node38</title>
<path fill="none" stroke="midnightblue" d="M911.3,-134.23C904.19,-124.2 892.39,-107.51 883.48,-94.92"/>
<polygon fill="midnightblue" stroke="midnightblue" points="886.24,-92.77 877.61,-86.63 880.53,-96.81 886.24,-92.77"/>
</g>
<!-- Node39 -->
<g id="node39" class="node">
<title>Node39</title>
<g id="a_node39"><a xlink:title=" ">
<polygon fill="white" stroke="#bfbfbf" points="1464,-67.5 1464,-86.5 1543,-86.5 1543,-67.5 1464,-67.5"/>
<text text-anchor="middle" x="1503.5" y="-74.5" font-family="Helvetica,sans-Serif" font-size="10.00">fmt/format.h</text>
</a>
</g>
</g>
<!-- Node25&#45;&gt;Node39 -->
<g id="edge39" class="edge">
<title>Node25&#45;&gt;Node39</title>
<path fill="none" stroke="midnightblue" d="M955.62,-141.35C1061.97,-136.51 1360.34,-121.2 1455.5,-98 1462.69,-96.25 1470.2,-93.57 1477.08,-90.73"/>
<polygon fill="midnightblue" stroke="midnightblue" points="1478.85,-93.78 1486.61,-86.56 1476.04,-87.36 1478.85,-93.78"/>
</g>
<!-- Node40 -->
<g id="node40" class="node">
<title>Node40</title>
<g id="a_node40"><a xlink:title=" ">
<polygon fill="white" stroke="#bfbfbf" points="1561.5,-67.5 1561.5,-86.5 1647.5,-86.5 1647.5,-67.5 1561.5,-67.5"/>
<text text-anchor="middle" x="1604.5" y="-74.5" font-family="Helvetica,sans-Serif" font-size="10.00">fmt/ostream.h</text>
</a>
</g>
</g>
<!-- Node25&#45;&gt;Node40 -->
<g id="edge40" class="edge">
<title>Node25&#45;&gt;Node40</title>
<path fill="none" stroke="midnightblue" d="M955.5,-141.78C1074.31,-137.74 1437.61,-123.57 1552.5,-98 1560.6,-96.2 1569.11,-93.36 1576.85,-90.38"/>
<polygon fill="midnightblue" stroke="midnightblue" points="1578.2,-93.61 1586.14,-86.6 1575.56,-87.12 1578.2,-93.61"/>
</g>
<!-- Node41 -->
<g id="node41" class="node">
<title>Node41</title>
<g id="a_node41"><a xlink:title=" ">
<polygon fill="white" stroke="#bfbfbf" points="247.5,-62 247.5,-92 353.5,-92 353.5,-62 247.5,-62"/>
<text text-anchor="start" x="255.5" y="-80" font-family="Helvetica,sans-Serif" font-size="10.00">spdlog/sinks/basic</text>
<text text-anchor="middle" x="300.5" y="-69" font-family="Helvetica,sans-Serif" font-size="10.00">_file_sink.h</text>
</a>
</g>
</g>
<!-- Node25&#45;&gt;Node41 -->
<g id="edge41" class="edge">
<title>Node25&#45;&gt;Node41</title>
<path fill="none" stroke="midnightblue" d="M879.4,-142.93C788.85,-142.1 554.02,-136.12 362.5,-98 358.14,-97.13 353.66,-96.06 349.19,-94.86"/>
<polygon fill="midnightblue" stroke="midnightblue" points="350.07,-91.48 339.5,-92.09 348.15,-98.21 350.07,-91.48"/>
</g>
<!-- Node42 -->
<g id="node42" class="node">
<title>Node42</title>
<g id="a_node42"><a xlink:title=" ">
<polygon fill="white" stroke="#bfbfbf" points="372,-62 372,-92 483,-92 483,-62 372,-62"/>
<text text-anchor="start" x="380" y="-80" font-family="Helvetica,sans-Serif" font-size="10.00">spdlog/sinks/stdout</text>
<text text-anchor="middle" x="427.5" y="-69" font-family="Helvetica,sans-Serif" font-size="10.00">_color_sinks.h</text>
</a>
</g>
</g>
<!-- Node25&#45;&gt;Node42 -->
<g id="edge42" class="edge">
<title>Node25&#45;&gt;Node42</title>
<path fill="none" stroke="midnightblue" d="M879.21,-141.49C804.13,-137.98 632.6,-127.2 491.5,-98 487.08,-97.09 482.54,-95.99 478.01,-94.79"/>
<polygon fill="midnightblue" stroke="midnightblue" points="478.73,-91.36 468.15,-92.02 476.84,-98.1 478.73,-91.36"/>
</g>
<!-- Node46&#45;&gt;Node17 -->
<g id="edge50" class="edge">
<title>Node46&#45;&gt;Node17</title>
<path fill="none" stroke="midnightblue" d="M1480.65,-533.79C1643.28,-528.35 2244.5,-502.97 2244.5,-425 2244.5,-425 2244.5,-425 2244.5,-199 2244.5,-150.89 2292.14,-111.79 2321.98,-92.02"/>
<polygon fill="midnightblue" stroke="midnightblue" points="2324.05,-94.85 2330.6,-86.51 2320.29,-88.95 2324.05,-94.85"/>
</g>
<!-- Node47 -->
<g id="node47" class="node">
<title>Node47</title>
<g id="a_node47"><a xlink:title=" ">
<polygon fill="white" stroke="#bfbfbf" points="1385.5,-470.5 1385.5,-489.5 1431.5,-489.5 1431.5,-470.5 1385.5,-470.5"/>
<text text-anchor="middle" x="1408.5" y="-477.5" font-family="Helvetica,sans-Serif" font-size="10.00">cstdio</text>
</a>
</g>
</g>
<!-- Node46&#45;&gt;Node47 -->
<g id="edge51" class="edge">
<title>Node46&#45;&gt;Node47</title>
<path fill="none" stroke="midnightblue" d="M1435.22,-526.08C1430.79,-518.61 1424.34,-507.72 1418.88,-498.52"/>
<polygon fill="midnightblue" stroke="midnightblue" points="1421.79,-496.57 1413.69,-489.75 1415.77,-500.14 1421.79,-496.57"/>
</g>
<!-- Node48 -->
<g id="node48" class="node">
<title>Node48</title>
<g id="a_node48"><a xlink:title=" ">
<polygon fill="white" stroke="#bfbfbf" points="1449.5,-470.5 1449.5,-489.5 1497.5,-489.5 1497.5,-470.5 1449.5,-470.5"/>
<text text-anchor="middle" x="1473.5" y="-477.5" font-family="Helvetica,sans-Serif" font-size="10.00">mpfr.h</text>
</a>
</g>
</g>
<!-- Node46&#45;&gt;Node48 -->
<g id="edge52" class="edge">
<title>Node46&#45;&gt;Node48</title>
<path fill="none" stroke="midnightblue" d="M1445.95,-526.08C1450.51,-518.61 1457.17,-507.72 1462.79,-498.52"/>
<polygon fill="midnightblue" stroke="midnightblue" points="1465.92,-500.11 1468.15,-489.75 1459.95,-496.46 1465.92,-500.11"/>
</g>
<!-- Node49&#45;&gt;Node3 -->
<g id="edge54" class="edge">
<title>Node49&#45;&gt;Node3</title>
<path fill="none" stroke="midnightblue" d="M906.5,-582.08C906.5,-575.01 906.5,-564.86 906.5,-555.99"/>
<polygon fill="midnightblue" stroke="midnightblue" points="910,-555.75 906.5,-545.75 903,-555.75 910,-555.75"/>
</g>
</g>
</svg>
