<?xml version="1.0" encoding="UTF-8" standalone="no"?>
<!DOCTYPE svg PUBLIC "-//W3C//DTD SVG 1.1//EN"
 "http://www.w3.org/Graphics/SVG/1.1/DTD/svg11.dtd">
<!-- Generated by graphviz version 2.43.0 (0)
 -->
<!-- Title: src/cdt&#45;opt.cpp Pages: 1 -->
<svg width="2312pt" height="610pt"
 viewBox="0.00 0.00 2311.50 610.00" xmlns="http://www.w3.org/2000/svg" xmlns:xlink="http://www.w3.org/1999/xlink">
<g id="graph0" class="graph" transform="scale(1 1) rotate(0) translate(4 606)">
<title>src/cdt&#45;opt.cpp</title>
<polygon fill="white" stroke="transparent" points="-4,4 -4,-606 2307.5,-606 2307.5,4 -4,4"/>
<!-- Node1 -->
<g id="node1" class="node">
<title>Node1</title>
<g id="a_node1"><a xlink:title="Outputs values to determine optimizations.">
<polygon fill="#bfbfbf" stroke="black" points="1035.5,-582.5 1035.5,-601.5 1124.5,-601.5 1124.5,-582.5 1035.5,-582.5"/>
<text text-anchor="middle" x="1080" y="-589.5" font-family="Helvetica,sans-Serif" font-size="10.00">src/cdt&#45;opt.cpp</text>
</a>
</g>
</g>
<!-- Node2 -->
<g id="node2" class="node">
<title>Node2</title>
<g id="a_node2"><a xlink:href="_metropolis_8hpp.html" target="_top" xlink:title="Perform Metropolis&#45;Hastings algorithm on Delaunay Triangulations.">
<polygon fill="white" stroke="black" points="1093.5,-526.5 1093.5,-545.5 1182.5,-545.5 1182.5,-526.5 1093.5,-526.5"/>
<text text-anchor="middle" x="1138" y="-533.5" font-family="Helvetica,sans-Serif" font-size="10.00">Metropolis.hpp</text>
</a>
</g>
</g>
<!-- Node1&#45;&gt;Node2 -->
<g id="edge1" class="edge">
<title>Node1&#45;&gt;Node2</title>
<path fill="none" stroke="midnightblue" d="M1089.32,-582.32C1097.89,-574.34 1110.81,-562.31 1121.19,-552.65"/>
<polygon fill="midnightblue" stroke="midnightblue" points="1123.58,-555.21 1128.51,-545.83 1118.81,-550.09 1123.58,-555.21"/>
</g>
<!-- Node52 -->
<g id="node50" class="node">
<title>Node52</title>
<g id="a_node50"><a xlink:href="_move__always_8hpp.html" target="_top" xlink:title="Randomly selects moves to always perform on triangulations.">
<polygon fill="white" stroke="black" points="971,-526.5 971,-545.5 1075,-545.5 1075,-526.5 971,-526.5"/>
<text text-anchor="middle" x="1023" y="-533.5" font-family="Helvetica,sans-Serif" font-size="10.00">Move_always.hpp</text>
</a>
</g>
</g>
<!-- Node1&#45;&gt;Node52 -->
<g id="edge58" class="edge">
<title>Node1&#45;&gt;Node52</title>
<path fill="none" stroke="midnightblue" d="M1070.84,-582.32C1062.5,-574.42 1049.97,-562.55 1039.82,-552.94"/>
<polygon fill="midnightblue" stroke="midnightblue" points="1041.99,-550.17 1032.32,-545.83 1037.18,-555.25 1041.99,-550.17"/>
</g>
<!-- Node3 -->
<g id="node3" class="node">
<title>Node3</title>
<g id="a_node3"><a xlink:href="_move__strategy_8hpp.html" target="_top" xlink:title="Template class for move algorithms (strategies) on manifolds.">
<polygon fill="white" stroke="black" points="968.5,-470.5 968.5,-489.5 1077.5,-489.5 1077.5,-470.5 968.5,-470.5"/>
<text text-anchor="middle" x="1023" y="-477.5" font-family="Helvetica,sans-Serif" font-size="10.00">Move_strategy.hpp</text>
</a>
</g>
</g>
<!-- Node2&#45;&gt;Node3 -->
<g id="edge2" class="edge">
<title>Node2&#45;&gt;Node3</title>
<path fill="none" stroke="midnightblue" d="M1119.78,-526.44C1101.1,-517.68 1071.84,-503.94 1050.38,-493.86"/>
<polygon fill="midnightblue" stroke="midnightblue" points="1051.68,-490.6 1041.14,-489.52 1048.7,-496.93 1051.68,-490.6"/>
</g>
<!-- Node50 -->
<g id="node48" class="node">
<title>Node50</title>
<g id="a_node48"><a xlink:href="_s3_action_8hpp.html" target="_top" xlink:title="Calculate S3 bulk actions on 3D Delaunay Triangulations.">
<polygon fill="white" stroke="black" points="1394,-470.5 1394,-489.5 1474,-489.5 1474,-470.5 1394,-470.5"/>
<text text-anchor="middle" x="1434" y="-477.5" font-family="Helvetica,sans-Serif" font-size="10.00">S3Action.hpp</text>
</a>
</g>
</g>
<!-- Node2&#45;&gt;Node50 -->
<g id="edge55" class="edge">
<title>Node2&#45;&gt;Node50</title>
<path fill="none" stroke="midnightblue" d="M1182.63,-526.86C1236.61,-517.01 1327.22,-500.48 1383.64,-490.19"/>
<polygon fill="midnightblue" stroke="midnightblue" points="1384.55,-493.58 1393.76,-488.34 1383.3,-486.69 1384.55,-493.58"/>
</g>
<!-- Node4 -->
<g id="node4" class="node">
<title>Node4</title>
<g id="a_node4"><a xlink:href="_move__command_8hpp.html" target="_top" xlink:title="Do ergodic moves using the Command pattern.">
<polygon fill="white" stroke="black" points="663.5,-414.5 663.5,-433.5 782.5,-433.5 782.5,-414.5 663.5,-414.5"/>
<text text-anchor="middle" x="723" y="-421.5" font-family="Helvetica,sans-Serif" font-size="10.00">Move_command.hpp</text>
</a>
</g>
</g>
<!-- Node3&#45;&gt;Node4 -->
<g id="edge3" class="edge">
<title>Node3&#45;&gt;Node4</title>
<path fill="none" stroke="midnightblue" d="M975.46,-470.44C922.47,-460.9 836.8,-445.48 780.18,-435.29"/>
<polygon fill="midnightblue" stroke="midnightblue" points="780.78,-431.84 770.31,-433.52 779.54,-438.73 780.78,-431.84"/>
</g>
<!-- Node5 -->
<g id="node5" class="node">
<title>Node5</title>
<g id="a_node5"><a xlink:href="_apply__move_8hpp.html" target="_top" xlink:title="Apply Pachner moves to foliated Delaunay triangulations.">
<polygon fill="white" stroke="black" points="201,-358.5 201,-377.5 299,-377.5 299,-358.5 201,-358.5"/>
<text text-anchor="middle" x="250" y="-365.5" font-family="Helvetica,sans-Serif" font-size="10.00">Apply_move.hpp</text>
</a>
</g>
</g>
<!-- Node4&#45;&gt;Node5 -->
<g id="edge4" class="edge">
<title>Node4&#45;&gt;Node5</title>
<path fill="none" stroke="midnightblue" d="M663.09,-416.16C572.02,-405.76 399.76,-386.1 309.14,-375.75"/>
<polygon fill="midnightblue" stroke="midnightblue" points="309.37,-372.25 299.03,-374.6 308.57,-379.21 309.37,-372.25"/>
</g>
<!-- Node11 -->
<g id="node11" class="node">
<title>Node11</title>
<g id="a_node11"><a xlink:href="_ergodic__moves__3_8hpp.html" target="_top" xlink:title="Pachner moves on 2+1 dimensional foliated Delaunay triangulations.">
<polygon fill="white" stroke="black" points="661.5,-358.5 661.5,-377.5 784.5,-377.5 784.5,-358.5 661.5,-358.5"/>
<text text-anchor="middle" x="723" y="-365.5" font-family="Helvetica,sans-Serif" font-size="10.00">Ergodic_moves_3.hpp</text>
</a>
</g>
</g>
<!-- Node4&#45;&gt;Node11 -->
<g id="edge10" class="edge">
<title>Node4&#45;&gt;Node11</title>
<path fill="none" stroke="midnightblue" d="M723,-414.08C723,-407.01 723,-396.86 723,-387.99"/>
<polygon fill="midnightblue" stroke="midnightblue" points="726.5,-387.75 723,-377.75 719.5,-387.75 726.5,-387.75"/>
</g>
<!-- Node6 -->
<g id="node6" class="node">
<title>Node6</title>
<g id="a_node6"><a xlink:title=" ">
<polygon fill="white" stroke="#bfbfbf" points="62.5,-67.5 62.5,-86.5 155.5,-86.5 155.5,-67.5 62.5,-67.5"/>
<text text-anchor="middle" x="109" y="-74.5" font-family="Helvetica,sans-Serif" font-size="10.00">spdlog/spdlog.h</text>
</a>
</g>
</g>
<!-- Node5&#45;&gt;Node6 -->
<g id="edge5" class="edge">
<title>Node5&#45;&gt;Node6</title>
<path fill="none" stroke="midnightblue" d="M255.56,-358.27C266.55,-340.15 290,-296.83 290,-257 290,-257 290,-257 290,-199 290,-163.05 190.05,-113.71 138.69,-90.73"/>
<polygon fill="midnightblue" stroke="midnightblue" points="139.97,-87.47 129.41,-86.63 137.14,-93.87 139.97,-87.47"/>
</g>
<!-- Node7 -->
<g id="node7" class="node">
<title>Node7</title>
<g id="a_node7"><a xlink:title=" ">
<polygon fill="white" stroke="#bfbfbf" points="34.5,-302.5 34.5,-321.5 99.5,-321.5 99.5,-302.5 34.5,-302.5"/>
<text text-anchor="middle" x="67" y="-309.5" font-family="Helvetica,sans-Serif" font-size="10.00">functional</text>
</a>
</g>
</g>
<!-- Node5&#45;&gt;Node7 -->
<g id="edge6" class="edge">
<title>Node5&#45;&gt;Node7</title>
<path fill="none" stroke="midnightblue" d="M221,-358.44C189.82,-349.24 140.07,-334.56 105.59,-324.39"/>
<polygon fill="midnightblue" stroke="midnightblue" points="106.44,-320.99 95.86,-321.52 104.46,-327.7 106.44,-320.99"/>
</g>
<!-- Node8 -->
<g id="node8" class="node">
<title>Node8</title>
<g id="a_node8"><a xlink:title=" ">
<polygon fill="white" stroke="#bfbfbf" points="0,-67.5 0,-86.5 44,-86.5 44,-67.5 0,-67.5"/>
<text text-anchor="middle" x="22" y="-74.5" font-family="Helvetica,sans-Serif" font-size="10.00">string</text>
</a>
</g>
</g>
<!-- Node5&#45;&gt;Node8 -->
<g id="edge7" class="edge">
<title>Node5&#45;&gt;Node8</title>
<path fill="none" stroke="midnightblue" d="M210.62,-358.49C189.05,-351.91 163.44,-340.68 147,-322 127.12,-299.4 128,-287.1 128,-257 128,-257 128,-257 128,-199 128,-172.71 70.65,-119.63 40.32,-93.4"/>
<polygon fill="midnightblue" stroke="midnightblue" points="42.43,-90.59 32.55,-86.75 37.88,-95.91 42.43,-90.59"/>
</g>
<!-- Node9 -->
<g id="node9" class="node">
<title>Node9</title>
<g id="a_node9"><a xlink:title=" ">
<polygon fill="white" stroke="#bfbfbf" points="508,-302.5 508,-321.5 600,-321.5 600,-302.5 508,-302.5"/>
<text text-anchor="middle" x="554" y="-309.5" font-family="Helvetica,sans-Serif" font-size="10.00">tl/expected.hpp</text>
</a>
</g>
</g>
<!-- Node5&#45;&gt;Node9 -->
<g id="edge8" class="edge">
<title>Node5&#45;&gt;Node9</title>
<path fill="none" stroke="midnightblue" d="M298.17,-358.44C352.34,-348.82 440.22,-333.21 497.57,-323.02"/>
<polygon fill="midnightblue" stroke="midnightblue" points="498.32,-326.45 507.55,-321.25 497.09,-319.55 498.32,-326.45"/>
</g>
<!-- Node10 -->
<g id="node10" class="node">
<title>Node10</title>
<g id="a_node10"><a xlink:title=" ">
<polygon fill="white" stroke="#bfbfbf" points="156.5,-302.5 156.5,-321.5 261.5,-321.5 261.5,-302.5 156.5,-302.5"/>
<text text-anchor="middle" x="209" y="-309.5" font-family="Helvetica,sans-Serif" font-size="10.00">tl/function_ref.hpp</text>
</a>
</g>
</g>
<!-- Node5&#45;&gt;Node10 -->
<g id="edge9" class="edge">
<title>Node5&#45;&gt;Node10</title>
<path fill="none" stroke="midnightblue" d="M243.23,-358.08C237.44,-350.46 228.94,-339.26 221.86,-329.94"/>
<polygon fill="midnightblue" stroke="midnightblue" points="224.48,-327.6 215.64,-321.75 218.9,-331.83 224.48,-327.6"/>
</g>
<!-- Node11&#45;&gt;Node9 -->
<g id="edge11" class="edge">
<title>Node11&#45;&gt;Node9</title>
<path fill="none" stroke="midnightblue" d="M696.22,-358.44C667.67,-349.32 622.27,-334.81 590.46,-324.65"/>
<polygon fill="midnightblue" stroke="midnightblue" points="591.24,-321.23 580.65,-321.52 589.11,-327.89 591.24,-321.23"/>
</g>
<!-- Node12 -->
<g id="node12" class="node">
<title>Node12</title>
<g id="a_node12"><a xlink:href="_manifold_8hpp.html" target="_top" xlink:title="Data structures for manifolds.">
<polygon fill="white" stroke="black" points="785,-302.5 785,-321.5 865,-321.5 865,-302.5 785,-302.5"/>
<text text-anchor="middle" x="825" y="-309.5" font-family="Helvetica,sans-Serif" font-size="10.00">Manifold.hpp</text>
</a>
</g>
</g>
<!-- Node11&#45;&gt;Node12 -->
<g id="edge12" class="edge">
<title>Node11&#45;&gt;Node12</title>
<path fill="none" stroke="midnightblue" d="M739.39,-358.32C755.67,-349.7 780.87,-336.36 799.72,-326.39"/>
<polygon fill="midnightblue" stroke="midnightblue" points="801.45,-329.43 808.65,-321.65 798.18,-323.24 801.45,-329.43"/>
</g>
<!-- Node47 -->
<g id="node45" class="node">
<title>Node47</title>
<g id="a_node45"><a xlink:href="_move__tracker_8hpp.html" target="_top" xlink:title="Track ergodic moves.">
<polygon fill="white" stroke="black" points="682.5,-190.5 682.5,-209.5 785.5,-209.5 785.5,-190.5 682.5,-190.5"/>
<text text-anchor="middle" x="734" y="-197.5" font-family="Helvetica,sans-Serif" font-size="10.00">Move_tracker.hpp</text>
</a>
</g>
</g>
<!-- Node11&#45;&gt;Node47 -->
<g id="edge48" class="edge">
<title>Node11&#45;&gt;Node47</title>
<path fill="none" stroke="midnightblue" d="M723.59,-358.08C725.32,-331.95 730.41,-255.21 732.77,-219.58"/>
<polygon fill="midnightblue" stroke="midnightblue" points="736.26,-219.78 733.43,-209.57 729.28,-219.31 736.26,-219.78"/>
</g>
<!-- Node13 -->
<g id="node13" class="node">
<title>Node13</title>
<g id="a_node13"><a xlink:title=" ">
<polygon fill="white" stroke="#bfbfbf" points="777.5,-134.5 777.5,-153.5 830.5,-153.5 830.5,-134.5 777.5,-134.5"/>
<text text-anchor="middle" x="804" y="-141.5" font-family="Helvetica,sans-Serif" font-size="10.00">cstddef</text>
</a>
</g>
</g>
<!-- Node12&#45;&gt;Node13 -->
<g id="edge13" class="edge">
<title>Node12&#45;&gt;Node13</title>
<path fill="none" stroke="midnightblue" d="M823.87,-302.08C820.57,-275.95 810.86,-199.21 806.35,-163.58"/>
<polygon fill="midnightblue" stroke="midnightblue" points="809.81,-163.05 805.08,-153.57 802.87,-163.93 809.81,-163.05"/>
</g>
<!-- Node14 -->
<g id="node14" class="node">
<title>Node14</title>
<g id="a_node14"><a xlink:title=" ">
<polygon fill="white" stroke="#bfbfbf" points="853,-246.5 853,-265.5 939,-265.5 939,-246.5 853,-246.5"/>
<text text-anchor="middle" x="896" y="-253.5" font-family="Helvetica,sans-Serif" font-size="10.00">unordered_set</text>
</a>
</g>
</g>
<!-- Node12&#45;&gt;Node14 -->
<g id="edge14" class="edge">
<title>Node12&#45;&gt;Node14</title>
<path fill="none" stroke="midnightblue" d="M836.41,-302.32C847.11,-294.18 863.34,-281.84 876.16,-272.09"/>
<polygon fill="midnightblue" stroke="midnightblue" points="878.54,-274.67 884.39,-265.83 874.31,-269.1 878.54,-274.67"/>
</g>
<!-- Node15 -->
<g id="node15" class="node">
<title>Node15</title>
<g id="a_node15"><a xlink:title=" ">
<polygon fill="white" stroke="#bfbfbf" points="751.5,-246.5 751.5,-265.5 796.5,-265.5 796.5,-246.5 751.5,-246.5"/>
<text text-anchor="middle" x="774" y="-253.5" font-family="Helvetica,sans-Serif" font-size="10.00">utility</text>
</a>
</g>
</g>
<!-- Node12&#45;&gt;Node15 -->
<g id="edge15" class="edge">
<title>Node12&#45;&gt;Node15</title>
<path fill="none" stroke="midnightblue" d="M816.58,-302.08C809.15,-294.22 798.15,-282.57 789.19,-273.08"/>
<polygon fill="midnightblue" stroke="midnightblue" points="791.68,-270.62 782.26,-265.75 786.59,-275.42 791.68,-270.62"/>
</g>
<!-- Node16 -->
<g id="node16" class="node">
<title>Node16</title>
<g id="a_node16"><a xlink:href="_geometry_8hpp.html" target="_top" xlink:title="Geometric scalars of the Manifold used to calculate the Regge action.">
<polygon fill="white" stroke="black" points="962.5,-246.5 962.5,-265.5 1047.5,-265.5 1047.5,-246.5 962.5,-246.5"/>
<text text-anchor="middle" x="1005" y="-253.5" font-family="Helvetica,sans-Serif" font-size="10.00">Geometry.hpp</text>
</a>
</g>
</g>
<!-- Node12&#45;&gt;Node16 -->
<g id="edge16" class="edge">
<title>Node12&#45;&gt;Node16</title>
<path fill="none" stroke="midnightblue" d="M853.52,-302.44C884.07,-293.28 932.71,-278.69 966.6,-268.52"/>
<polygon fill="midnightblue" stroke="midnightblue" points="968.04,-271.74 976.61,-265.52 966.03,-265.04 968.04,-271.74"/>
</g>
<!-- Node17 -->
<g id="node17" class="node">
<title>Node17</title>
<g id="a_node17"><a xlink:href="_foliated__triangulation_8hpp.html" target="_top" xlink:title="Create foliated spherical triangulations.">
<polygon fill="white" stroke="black" points="936,-190.5 936,-209.5 1080,-209.5 1080,-190.5 936,-190.5"/>
<text text-anchor="middle" x="1008" y="-197.5" font-family="Helvetica,sans-Serif" font-size="10.00">Foliated_triangulation.hpp</text>
</a>
</g>
</g>
<!-- Node16&#45;&gt;Node17 -->
<g id="edge17" class="edge">
<title>Node16&#45;&gt;Node17</title>
<path fill="none" stroke="midnightblue" d="M1005.5,-246.08C1005.89,-239.01 1006.45,-228.86 1006.95,-219.99"/>
<polygon fill="midnightblue" stroke="midnightblue" points="1010.45,-219.93 1007.51,-209.75 1003.46,-219.54 1010.45,-219.93"/>
</g>
<!-- Node18 -->
<g id="node18" class="node">
<title>Node18</title>
<g id="a_node18"><a xlink:title=" ">
<polygon fill="white" stroke="#bfbfbf" points="981,-134.5 981,-153.5 1041,-153.5 1041,-134.5 981,-134.5"/>
<text text-anchor="middle" x="1011" y="-141.5" font-family="Helvetica,sans-Serif" font-size="10.00">concepts</text>
</a>
</g>
</g>
<!-- Node17&#45;&gt;Node18 -->
<g id="edge18" class="edge">
<title>Node17&#45;&gt;Node18</title>
<path fill="none" stroke="midnightblue" d="M1008.5,-190.08C1008.89,-183.01 1009.45,-172.86 1009.95,-163.99"/>
<polygon fill="midnightblue" stroke="midnightblue" points="1013.45,-163.93 1010.51,-153.75 1006.46,-163.54 1013.45,-163.93"/>
</g>
<!-- Node19 -->
<g id="node19" class="node">
<title>Node19</title>
<g id="a_node19"><a xlink:href="_triangulation__traits_8hpp.html" target="_top" xlink:title="Traits class for particular uses of CGAL.">
<polygon fill="white" stroke="red" points="1833.5,-134.5 1833.5,-153.5 1964.5,-153.5 1964.5,-134.5 1833.5,-134.5"/>
<text text-anchor="middle" x="1899" y="-141.5" font-family="Helvetica,sans-Serif" font-size="10.00">Triangulation_traits.hpp</text>
</a>
</g>
</g>
<!-- Node17&#45;&gt;Node19 -->
<g id="edge19" class="edge">
<title>Node17&#45;&gt;Node19</title>
<path fill="none" stroke="midnightblue" d="M1080.16,-194.63C1246.21,-184.56 1654.09,-159.84 1823.42,-149.58"/>
<polygon fill="midnightblue" stroke="midnightblue" points="1823.72,-153.07 1833.49,-148.97 1823.3,-146.08 1823.72,-153.07"/>
</g>
<!-- Node28 -->
<g id="node26" class="node">
<title>Node28</title>
<g id="a_node26"><a xlink:href="_utilities_8hpp.html" target="_top" xlink:title="Utility functions.">
<polygon fill="white" stroke="black" points="849,-134.5 849,-153.5 925,-153.5 925,-134.5 849,-134.5"/>
<text text-anchor="middle" x="887" y="-141.5" font-family="Helvetica,sans-Serif" font-size="10.00">Utilities.hpp</text>
</a>
</g>
</g>
<!-- Node17&#45;&gt;Node28 -->
<g id="edge26" class="edge">
<title>Node17&#45;&gt;Node28</title>
<path fill="none" stroke="midnightblue" d="M988.83,-190.44C969.09,-181.64 938.11,-167.81 915.51,-157.72"/>
<polygon fill="midnightblue" stroke="midnightblue" points="916.64,-154.4 906.08,-153.52 913.79,-160.79 916.64,-154.4"/>
</g>
<!-- Node20 -->
<g id="node20" class="node">
<title>Node20</title>
<g id="a_node20"><a xlink:title=" ">
<polygon fill="white" stroke="#bfbfbf" points="1809,-67.5 1809,-86.5 1989,-86.5 1989,-67.5 1809,-67.5"/>
<text text-anchor="middle" x="1899" y="-74.5" font-family="Helvetica,sans-Serif" font-size="10.00">CGAL/Delaunay_triangulation_3.h</text>
</a>
</g>
</g>
<!-- Node19&#45;&gt;Node20 -->
<g id="edge20" class="edge">
<title>Node19&#45;&gt;Node20</title>
<path fill="none" stroke="midnightblue" d="M1899,-134.23C1899,-124.68 1899,-109.12 1899,-96.78"/>
<polygon fill="midnightblue" stroke="midnightblue" points="1902.5,-96.63 1899,-86.63 1895.5,-96.63 1902.5,-96.63"/>
</g>
<!-- Node21 -->
<g id="node21" class="node">
<title>Node21</title>
<g id="a_node21"><a xlink:title=" ">
<polygon fill="white" stroke="#bfbfbf" points="2007.5,-56.5 2007.5,-97.5 2136.5,-97.5 2136.5,-56.5 2007.5,-56.5"/>
<text text-anchor="start" x="2015.5" y="-85.5" font-family="Helvetica,sans-Serif" font-size="10.00">CGAL/Exact_predicates</text>
<text text-anchor="start" x="2015.5" y="-74.5" font-family="Helvetica,sans-Serif" font-size="10.00">_inexact_constructions</text>
<text text-anchor="middle" x="2072" y="-63.5" font-family="Helvetica,sans-Serif" font-size="10.00">_kernel.h</text>
</a>
</g>
</g>
<!-- Node19&#45;&gt;Node21 -->
<g id="edge21" class="edge">
<title>Node19&#45;&gt;Node21</title>
<path fill="none" stroke="midnightblue" d="M1921.97,-134.37C1944.37,-125.95 1979.42,-112.79 2010.01,-101.29"/>
<polygon fill="midnightblue" stroke="midnightblue" points="2011.64,-104.42 2019.77,-97.63 2009.17,-97.87 2011.64,-104.42"/>
</g>
<!-- Node22 -->
<g id="node22" class="node">
<title>Node22</title>
<g id="a_node22"><a xlink:title=" ">
<polygon fill="white" stroke="#bfbfbf" points="2154.5,-67.5 2154.5,-86.5 2303.5,-86.5 2303.5,-67.5 2154.5,-67.5"/>
<text text-anchor="middle" x="2229" y="-74.5" font-family="Helvetica,sans-Serif" font-size="10.00">CGAL/point_generators_3.h</text>
</a>
</g>
</g>
<!-- Node19&#45;&gt;Node22 -->
<g id="edge22" class="edge">
<title>Node19&#45;&gt;Node22</title>
<path fill="none" stroke="midnightblue" d="M1950.73,-134.45C2000.82,-125.96 2078.83,-112.2 2146,-98 2158.93,-95.27 2172.92,-92.01 2185.67,-88.93"/>
<polygon fill="midnightblue" stroke="midnightblue" points="2186.69,-92.28 2195.58,-86.51 2185.03,-85.48 2186.69,-92.28"/>
</g>
<!-- Node25 -->
<g id="node23" class="node">
<title>Node25</title>
<g id="a_node23"><a xlink:href="_settings_8hpp.html" target="_top" xlink:title="Global integer and precision settings.">
<polygon fill="white" stroke="black" points="1713.5,-67.5 1713.5,-86.5 1790.5,-86.5 1790.5,-67.5 1713.5,-67.5"/>
<text text-anchor="middle" x="1752" y="-74.5" font-family="Helvetica,sans-Serif" font-size="10.00">Settings.hpp</text>
</a>
</g>
</g>
<!-- Node19&#45;&gt;Node25 -->
<g id="edge23" class="edge">
<title>Node19&#45;&gt;Node25</title>
<path fill="none" stroke="midnightblue" d="M1879.48,-134.37C1854.22,-123.2 1810,-103.65 1780.86,-90.76"/>
<polygon fill="midnightblue" stroke="midnightblue" points="1782.16,-87.51 1771.6,-86.67 1779.33,-93.91 1782.16,-87.51"/>
</g>
<!-- Node26 -->
<g id="node24" class="node">
<title>Node26</title>
<g id="a_node24"><a xlink:title=" ">
<polygon fill="white" stroke="#bfbfbf" points="1625,-0.5 1625,-19.5 1765,-19.5 1765,-0.5 1625,-0.5"/>
<text text-anchor="middle" x="1695" y="-7.5" font-family="Helvetica,sans-Serif" font-size="10.00">CGAL/GMP/Gmpzf_type.h</text>
</a>
</g>
</g>
<!-- Node25&#45;&gt;Node26 -->
<g id="edge24" class="edge">
<title>Node25&#45;&gt;Node26</title>
<path fill="none" stroke="midnightblue" d="M1744.31,-67.23C1735.34,-57 1720.31,-39.86 1709.2,-27.19"/>
<polygon fill="midnightblue" stroke="midnightblue" points="1711.79,-24.84 1702.57,-19.63 1706.53,-29.45 1711.79,-24.84"/>
</g>
<!-- Node27 -->
<g id="node25" class="node">
<title>Node27</title>
<g id="a_node25"><a xlink:title=" ">
<polygon fill="white" stroke="#bfbfbf" points="1783,-0.5 1783,-19.5 1833,-19.5 1833,-0.5 1783,-0.5"/>
<text text-anchor="middle" x="1808" y="-7.5" font-family="Helvetica,sans-Serif" font-size="10.00">cstdint</text>
</a>
</g>
</g>
<!-- Node25&#45;&gt;Node27 -->
<g id="edge25" class="edge">
<title>Node25&#45;&gt;Node27</title>
<path fill="none" stroke="midnightblue" d="M1759.55,-67.23C1768.28,-57.1 1782.85,-40.19 1793.74,-27.56"/>
<polygon fill="midnightblue" stroke="midnightblue" points="1796.69,-29.49 1800.57,-19.63 1791.39,-24.92 1796.69,-29.49"/>
</g>
<!-- Node28&#45;&gt;Node6 -->
<g id="edge46" class="edge">
<title>Node28&#45;&gt;Node6</title>
<path fill="none" stroke="midnightblue" d="M848.82,-135.37C845.51,-134.85 842.2,-134.38 839,-134 541.15,-98.28 459.11,-157.07 165,-98 156.05,-96.2 146.61,-93.26 138.07,-90.18"/>
<polygon fill="midnightblue" stroke="midnightblue" points="139.15,-86.85 128.56,-86.56 136.66,-93.39 139.15,-86.85"/>
</g>
<!-- Node28&#45;&gt;Node8 -->
<g id="edge39" class="edge">
<title>Node28&#45;&gt;Node8</title>
<path fill="none" stroke="midnightblue" d="M848.82,-135.34C845.51,-134.83 842.2,-134.37 839,-134 665.32,-113.84 219.55,-151.23 53,-98 48.74,-96.64 44.51,-94.54 40.59,-92.2"/>
<polygon fill="midnightblue" stroke="midnightblue" points="42.44,-89.22 32.19,-86.54 38.53,-95.03 42.44,-89.22"/>
</g>
<!-- Node28&#45;&gt;Node25 -->
<g id="edge47" class="edge">
<title>Node28&#45;&gt;Node25</title>
<path fill="none" stroke="midnightblue" d="M925.26,-135.82C929.88,-135.12 934.54,-134.49 939,-134 1277.35,-96.9 1371.9,-172.58 1704,-98 1711.51,-96.31 1719.34,-93.53 1726.45,-90.57"/>
<polygon fill="midnightblue" stroke="midnightblue" points="1727.87,-93.77 1735.59,-86.51 1725.03,-87.37 1727.87,-93.77"/>
</g>
<!-- Node29 -->
<g id="node27" class="node">
<title>Node29</title>
<g id="a_node27"><a xlink:title=" ">
<polygon fill="white" stroke="#bfbfbf" points="1087.5,-67.5 1087.5,-86.5 1170.5,-86.5 1170.5,-67.5 1087.5,-67.5"/>
<text text-anchor="middle" x="1129" y="-74.5" font-family="Helvetica,sans-Serif" font-size="10.00">CGAL/Timer.h</text>
</a>
</g>
</g>
<!-- Node28&#45;&gt;Node29 -->
<g id="edge27" class="edge">
<title>Node28&#45;&gt;Node29</title>
<path fill="none" stroke="midnightblue" d="M925.12,-135.69C963.98,-127.84 1025.81,-114.29 1078,-98 1084.95,-95.83 1092.31,-93.17 1099.21,-90.5"/>
<polygon fill="midnightblue" stroke="midnightblue" points="1100.89,-93.6 1108.89,-86.65 1098.3,-87.1 1100.89,-93.6"/>
</g>
<!-- Node30 -->
<g id="node28" class="node">
<title>Node30</title>
<g id="a_node28"><a xlink:title=" ">
<polygon fill="white" stroke="#bfbfbf" points="1189,-67.5 1189,-86.5 1253,-86.5 1253,-67.5 1189,-67.5"/>
<text text-anchor="middle" x="1221" y="-74.5" font-family="Helvetica,sans-Serif" font-size="10.00">algorithm</text>
</a>
</g>
</g>
<!-- Node28&#45;&gt;Node30 -->
<g id="edge28" class="edge">
<title>Node28&#45;&gt;Node30</title>
<path fill="none" stroke="midnightblue" d="M925.04,-136.31C929.74,-135.52 934.48,-134.73 939,-134 1045.92,-116.76 1076.57,-130.11 1180,-98 1185.67,-96.24 1191.54,-93.79 1197,-91.21"/>
<polygon fill="midnightblue" stroke="midnightblue" points="1198.91,-94.17 1206.27,-86.55 1195.76,-87.92 1198.91,-94.17"/>
</g>
<!-- Node31 -->
<g id="node29" class="node">
<title>Node31</title>
<g id="a_node29"><a xlink:title=" ">
<polygon fill="white" stroke="#bfbfbf" points="1271,-67.5 1271,-86.5 1323,-86.5 1323,-67.5 1271,-67.5"/>
<text text-anchor="middle" x="1297" y="-74.5" font-family="Helvetica,sans-Serif" font-size="10.00">cassert</text>
</a>
</g>
</g>
<!-- Node28&#45;&gt;Node31 -->
<g id="edge29" class="edge">
<title>Node28&#45;&gt;Node31</title>
<path fill="none" stroke="midnightblue" d="M925.01,-136.15C929.72,-135.38 934.46,-134.64 939,-134 1082.01,-113.67 1124.67,-142.76 1262,-98 1266.82,-96.43 1271.71,-94.15 1276.26,-91.68"/>
<polygon fill="midnightblue" stroke="midnightblue" points="1278.13,-94.64 1284.94,-86.53 1274.56,-88.62 1278.13,-94.64"/>
</g>
<!-- Node32 -->
<g id="node30" class="node">
<title>Node32</title>
<g id="a_node30"><a xlink:title=" ">
<polygon fill="white" stroke="#bfbfbf" points="1341.5,-67.5 1341.5,-86.5 1390.5,-86.5 1390.5,-67.5 1341.5,-67.5"/>
<text text-anchor="middle" x="1366" y="-74.5" font-family="Helvetica,sans-Serif" font-size="10.00">cstdlib</text>
</a>
</g>
</g>
<!-- Node28&#45;&gt;Node32 -->
<g id="edge30" class="edge">
<title>Node28&#45;&gt;Node32</title>
<path fill="none" stroke="midnightblue" d="M925,-136.06C929.71,-135.31 934.46,-134.6 939,-134 1112.89,-111.03 1165.05,-151.76 1332,-98 1336.6,-96.52 1341.24,-94.34 1345.56,-91.95"/>
<polygon fill="midnightblue" stroke="midnightblue" points="1347.63,-94.79 1354.34,-86.6 1343.98,-88.81 1347.63,-94.79"/>
</g>
<!-- Node33 -->
<g id="node31" class="node">
<title>Node33</title>
<g id="a_node31"><a xlink:title=" ">
<polygon fill="white" stroke="#bfbfbf" points="1409,-67.5 1409,-86.5 1477,-86.5 1477,-67.5 1409,-67.5"/>
<text text-anchor="middle" x="1443" y="-74.5" font-family="Helvetica,sans-Serif" font-size="10.00">filesystem</text>
</a>
</g>
</g>
<!-- Node28&#45;&gt;Node33 -->
<g id="edge31" class="edge">
<title>Node28&#45;&gt;Node33</title>
<path fill="none" stroke="midnightblue" d="M925.28,-135.96C929.89,-135.23 934.55,-134.56 939,-134 1142.92,-108.45 1201.22,-150.17 1400,-98 1406.22,-96.37 1412.66,-93.87 1418.59,-91.18"/>
<polygon fill="midnightblue" stroke="midnightblue" points="1420.52,-94.13 1427.98,-86.61 1417.45,-87.84 1420.52,-94.13"/>
</g>
<!-- Node34 -->
<g id="node32" class="node">
<title>Node34</title>
<g id="a_node32"><a xlink:title=" ">
<polygon fill="white" stroke="#bfbfbf" points="1495.5,-67.5 1495.5,-86.5 1550.5,-86.5 1550.5,-67.5 1495.5,-67.5"/>
<text text-anchor="middle" x="1523" y="-74.5" font-family="Helvetica,sans-Serif" font-size="10.00">fstream</text>
</a>
</g>
</g>
<!-- Node28&#45;&gt;Node34 -->
<g id="edge32" class="edge">
<title>Node28&#45;&gt;Node34</title>
<path fill="none" stroke="midnightblue" d="M925.27,-135.9C929.89,-135.19 934.54,-134.53 939,-134 1180.93,-105.18 1251.89,-165.48 1486,-98 1491.22,-96.5 1496.52,-94.18 1501.43,-91.65"/>
<polygon fill="midnightblue" stroke="midnightblue" points="1503.25,-94.64 1510.24,-86.67 1499.81,-88.54 1503.25,-94.64"/>
</g>
<!-- Node35 -->
<g id="node33" class="node">
<title>Node35</title>
<g id="a_node33"><a xlink:title=" ">
<polygon fill="white" stroke="#bfbfbf" points="1569,-67.5 1569,-86.5 1617,-86.5 1617,-67.5 1569,-67.5"/>
<text text-anchor="middle" x="1593" y="-74.5" font-family="Helvetica,sans-Serif" font-size="10.00">gsl/gsl</text>
</a>
</g>
</g>
<!-- Node28&#45;&gt;Node35 -->
<g id="edge33" class="edge">
<title>Node28&#45;&gt;Node35</title>
<path fill="none" stroke="midnightblue" d="M925.27,-135.87C929.88,-135.16 934.54,-134.51 939,-134 1076.32,-118.19 1428,-139.03 1560,-98 1564.59,-96.57 1569.19,-94.38 1573.45,-91.96"/>
<polygon fill="midnightblue" stroke="midnightblue" points="1575.48,-94.81 1582.05,-86.5 1571.73,-88.9 1575.48,-94.81"/>
</g>
<!-- Node36 -->
<g id="node34" class="node">
<title>Node36</title>
<g id="a_node34"><a xlink:title=" ">
<polygon fill="white" stroke="#bfbfbf" points="1635,-67.5 1635,-86.5 1695,-86.5 1695,-67.5 1635,-67.5"/>
<text text-anchor="middle" x="1665" y="-74.5" font-family="Helvetica,sans-Serif" font-size="10.00">iostream</text>
</a>
</g>
</g>
<!-- Node28&#45;&gt;Node36 -->
<g id="edge34" class="edge">
<title>Node28&#45;&gt;Node36</title>
<path fill="none" stroke="midnightblue" d="M925.26,-135.85C929.88,-135.14 934.54,-134.5 939,-134 1090.92,-116.93 1478.38,-137.76 1626,-98 1631.69,-96.47 1637.52,-94.03 1642.86,-91.37"/>
<polygon fill="midnightblue" stroke="midnightblue" points="1644.72,-94.35 1651.85,-86.51 1641.39,-88.19 1644.72,-94.35"/>
</g>
<!-- Node37 -->
<g id="node35" class="node">
<title>Node37</title>
<g id="a_node35"><a xlink:title=" ">
<polygon fill="white" stroke="#bfbfbf" points="232,-67.5 232,-86.5 280,-86.5 280,-67.5 232,-67.5"/>
<text text-anchor="middle" x="256" y="-74.5" font-family="Helvetica,sans-Serif" font-size="10.00">mutex</text>
</a>
</g>
</g>
<!-- Node28&#45;&gt;Node37 -->
<g id="edge35" class="edge">
<title>Node28&#45;&gt;Node37</title>
<path fill="none" stroke="midnightblue" d="M848.81,-135.41C845.5,-134.88 842.2,-134.4 839,-134 595.95,-103.37 522.65,-171.59 289,-98 284.49,-96.58 279.96,-94.43 275.77,-92.05"/>
<polygon fill="midnightblue" stroke="midnightblue" points="277.58,-89.05 267.25,-86.68 273.85,-94.97 277.58,-89.05"/>
</g>
<!-- Node38 -->
<g id="node36" class="node">
<title>Node38</title>
<g id="a_node36"><a xlink:title=" ">
<polygon fill="white" stroke="#bfbfbf" points="298,-67.5 298,-86.5 352,-86.5 352,-67.5 298,-67.5"/>
<text text-anchor="middle" x="325" y="-74.5" font-family="Helvetica,sans-Serif" font-size="10.00">random</text>
</a>
</g>
</g>
<!-- Node28&#45;&gt;Node38 -->
<g id="edge36" class="edge">
<title>Node28&#45;&gt;Node38</title>
<path fill="none" stroke="midnightblue" d="M848.81,-135.45C845.5,-134.91 842.19,-134.42 839,-134 627.76,-106.33 565.08,-159.15 361,-98 356.04,-96.51 351,-94.27 346.33,-91.81"/>
<polygon fill="midnightblue" stroke="midnightblue" points="347.81,-88.62 337.4,-86.64 344.3,-94.68 347.81,-88.62"/>
</g>
<!-- Node39 -->
<g id="node37" class="node">
<title>Node39</title>
<g id="a_node37"><a xlink:title=" ">
<polygon fill="white" stroke="#bfbfbf" points="174,-67.5 174,-86.5 214,-86.5 214,-67.5 174,-67.5"/>
<text text-anchor="middle" x="194" y="-74.5" font-family="Helvetica,sans-Serif" font-size="10.00">span</text>
</a>
</g>
</g>
<!-- Node28&#45;&gt;Node39 -->
<g id="edge37" class="edge">
<title>Node28&#45;&gt;Node39</title>
<path fill="none" stroke="midnightblue" d="M848.82,-135.39C845.5,-134.87 842.2,-134.39 839,-134 702.89,-117.33 352.68,-142.57 223,-98 219.08,-96.65 215.2,-94.61 211.62,-92.35"/>
<polygon fill="midnightblue" stroke="midnightblue" points="213.63,-89.48 203.46,-86.5 209.55,-95.17 213.63,-89.48"/>
</g>
<!-- Node40 -->
<g id="node38" class="node">
<title>Node40</title>
<g id="a_node38"><a xlink:title=" ">
<polygon fill="white" stroke="#bfbfbf" points="370.5,-67.5 370.5,-86.5 435.5,-86.5 435.5,-67.5 370.5,-67.5"/>
<text text-anchor="middle" x="403" y="-74.5" font-family="Helvetica,sans-Serif" font-size="10.00">stdexcept</text>
</a>
</g>
</g>
<!-- Node28&#45;&gt;Node40 -->
<g id="edge38" class="edge">
<title>Node28&#45;&gt;Node40</title>
<path fill="none" stroke="midnightblue" d="M848.8,-135.5C845.49,-134.95 842.19,-134.44 839,-134 664.4,-109.73 613.78,-145.42 444,-98 438.04,-96.33 431.9,-93.82 426.24,-91.14"/>
<polygon fill="midnightblue" stroke="midnightblue" points="427.79,-88 417.29,-86.57 424.61,-94.23 427.79,-88"/>
</g>
<!-- Node41 -->
<g id="node39" class="node">
<title>Node41</title>
<g id="a_node39"><a xlink:title=" ">
<polygon fill="white" stroke="#bfbfbf" points="453.5,-67.5 453.5,-86.5 518.5,-86.5 518.5,-67.5 453.5,-67.5"/>
<text text-anchor="middle" x="486" y="-74.5" font-family="Helvetica,sans-Serif" font-size="10.00">typeindex</text>
</a>
</g>
</g>
<!-- Node28&#45;&gt;Node41 -->
<g id="edge40" class="edge">
<title>Node28&#45;&gt;Node41</title>
<path fill="none" stroke="midnightblue" d="M848.79,-135.58C845.48,-135.02 842.19,-134.48 839,-134 700.98,-113.12 660.98,-137.16 527,-98 521.3,-96.33 515.42,-93.93 509.95,-91.36"/>
<polygon fill="midnightblue" stroke="midnightblue" points="511.2,-88.06 500.7,-86.68 508.04,-94.31 511.2,-88.06"/>
</g>
<!-- Node42 -->
<g id="node40" class="node">
<title>Node42</title>
<g id="a_node40"><a xlink:title=" ">
<polygon fill="white" stroke="#bfbfbf" points="536.5,-67.5 536.5,-86.5 595.5,-86.5 595.5,-67.5 536.5,-67.5"/>
<text text-anchor="middle" x="566" y="-74.5" font-family="Helvetica,sans-Serif" font-size="10.00">date/tz.h</text>
</a>
</g>
</g>
<!-- Node28&#45;&gt;Node42 -->
<g id="edge41" class="edge">
<title>Node28&#45;&gt;Node42</title>
<path fill="none" stroke="midnightblue" d="M848.77,-135.71C845.47,-135.12 842.18,-134.54 839,-134 735.28,-116.3 705.1,-130.42 605,-98 599.71,-96.29 594.26,-93.92 589.17,-91.41"/>
<polygon fill="midnightblue" stroke="midnightblue" points="590.45,-88.13 579.97,-86.55 587.18,-94.32 590.45,-88.13"/>
</g>
<!-- Node43 -->
<g id="node41" class="node">
<title>Node43</title>
<g id="a_node41"><a xlink:title=" ">
<polygon fill="white" stroke="#bfbfbf" points="614,-67.5 614,-86.5 712,-86.5 712,-67.5 614,-67.5"/>
<text text-anchor="middle" x="663" y="-74.5" font-family="Helvetica,sans-Serif" font-size="10.00">pcg_random.hpp</text>
</a>
</g>
</g>
<!-- Node28&#45;&gt;Node43 -->
<g id="edge42" class="edge">
<title>Node28&#45;&gt;Node43</title>
<path fill="none" stroke="midnightblue" d="M852.79,-134.44C819.09,-125.85 766.24,-111.91 721,-98 712.89,-95.51 704.22,-92.63 696.11,-89.85"/>
<polygon fill="midnightblue" stroke="midnightblue" points="697.18,-86.51 686.59,-86.54 694.88,-93.13 697.18,-86.51"/>
</g>
<!-- Node44 -->
<g id="node42" class="node">
<title>Node44</title>
<g id="a_node42"><a xlink:title=" ">
<polygon fill="white" stroke="#bfbfbf" points="730,-67.5 730,-86.5 816,-86.5 816,-67.5 730,-67.5"/>
<text text-anchor="middle" x="773" y="-74.5" font-family="Helvetica,sans-Serif" font-size="10.00">fmt/ostream.h</text>
</a>
</g>
</g>
<!-- Node28&#45;&gt;Node44 -->
<g id="edge43" class="edge">
<title>Node28&#45;&gt;Node44</title>
<path fill="none" stroke="midnightblue" d="M871.63,-134.23C852.48,-123.32 819.56,-104.55 797.06,-91.72"/>
<polygon fill="midnightblue" stroke="midnightblue" points="798.55,-88.54 788.13,-86.63 795.08,-94.62 798.55,-88.54"/>
</g>
<!-- Node45 -->
<g id="node43" class="node">
<title>Node45</title>
<g id="a_node43"><a xlink:title=" ">
<polygon fill="white" stroke="#bfbfbf" points="834,-62 834,-92 940,-92 940,-62 834,-62"/>
<text text-anchor="start" x="842" y="-80" font-family="Helvetica,sans-Serif" font-size="10.00">spdlog/sinks/basic</text>
<text text-anchor="middle" x="887" y="-69" font-family="Helvetica,sans-Serif" font-size="10.00">_file_sink.h</text>
</a>
</g>
</g>
<!-- Node28&#45;&gt;Node45 -->
<g id="edge44" class="edge">
<title>Node28&#45;&gt;Node45</title>
<path fill="none" stroke="midnightblue" d="M887,-134.23C887,-126.04 887,-113.42 887,-102.21"/>
<polygon fill="midnightblue" stroke="midnightblue" points="890.5,-102.09 887,-92.09 883.5,-102.09 890.5,-102.09"/>
</g>
<!-- Node46 -->
<g id="node44" class="node">
<title>Node46</title>
<g id="a_node44"><a xlink:title=" ">
<polygon fill="white" stroke="#bfbfbf" points="958.5,-62 958.5,-92 1069.5,-92 1069.5,-62 958.5,-62"/>
<text text-anchor="start" x="966.5" y="-80" font-family="Helvetica,sans-Serif" font-size="10.00">spdlog/sinks/stdout</text>
<text text-anchor="middle" x="1014" y="-69" font-family="Helvetica,sans-Serif" font-size="10.00">_color_sinks.h</text>
</a>
</g>
</g>
<!-- Node28&#45;&gt;Node46 -->
<g id="edge45" class="edge">
<title>Node28&#45;&gt;Node46</title>
<path fill="none" stroke="midnightblue" d="M903.86,-134.37C922.53,-124.81 953.18,-109.13 977.41,-96.72"/>
<polygon fill="midnightblue" stroke="midnightblue" points="979.04,-99.82 986.35,-92.15 975.85,-93.59 979.04,-99.82"/>
</g>
<!-- Node47&#45;&gt;Node13 -->
<g id="edge50" class="edge">
<title>Node47&#45;&gt;Node13</title>
<path fill="none" stroke="midnightblue" d="M745.25,-190.32C755.8,-182.18 771.8,-169.84 784.44,-160.09"/>
<polygon fill="midnightblue" stroke="midnightblue" points="786.77,-162.71 792.55,-153.83 782.49,-157.17 786.77,-162.71"/>
</g>
<!-- Node47&#45;&gt;Node25 -->
<g id="edge53" class="edge">
<title>Node47&#45;&gt;Node25</title>
<path fill="none" stroke="midnightblue" d="M785.62,-191.23C826.65,-184.15 885.07,-172.02 934,-154 951.91,-147.4 953.59,-139.03 972,-134 1286.2,-48.12 1386.26,-169.71 1704,-98 1711.51,-96.31 1719.34,-93.52 1726.44,-90.56"/>
<polygon fill="midnightblue" stroke="midnightblue" points="1727.87,-93.76 1735.59,-86.5 1725.03,-87.36 1727.87,-93.76"/>
</g>
<!-- Node47&#45;&gt;Node28 -->
<g id="edge54" class="edge">
<title>Node47&#45;&gt;Node28</title>
<path fill="none" stroke="midnightblue" d="M758.24,-190.44C783.87,-181.4 824.49,-167.06 853.24,-156.92"/>
<polygon fill="midnightblue" stroke="midnightblue" points="854.61,-160.15 862.87,-153.52 852.28,-153.54 854.61,-160.15"/>
</g>
<!-- Node47&#45;&gt;Node39 -->
<g id="edge52" class="edge">
<title>Node47&#45;&gt;Node39</title>
<path fill="none" stroke="midnightblue" d="M682.3,-195.74C587.72,-188.27 381.92,-165.09 223,-98 219.41,-96.48 215.81,-94.48 212.42,-92.33"/>
<polygon fill="midnightblue" stroke="midnightblue" points="214.33,-89.39 204.13,-86.52 210.31,-95.13 214.33,-89.39"/>
</g>
<!-- Node48 -->
<g id="node46" class="node">
<title>Node48</title>
<g id="a_node46"><a xlink:title=" ">
<polygon fill="white" stroke="#bfbfbf" points="649,-134.5 649,-153.5 691,-153.5 691,-134.5 649,-134.5"/>
<text text-anchor="middle" x="670" y="-141.5" font-family="Helvetica,sans-Serif" font-size="10.00">array</text>
</a>
</g>
</g>
<!-- Node47&#45;&gt;Node48 -->
<g id="edge49" class="edge">
<title>Node47&#45;&gt;Node48</title>
<path fill="none" stroke="midnightblue" d="M723.72,-190.32C714.16,-182.26 699.72,-170.08 688.22,-160.37"/>
<polygon fill="midnightblue" stroke="midnightblue" points="690.37,-157.61 680.47,-153.83 685.86,-162.96 690.37,-157.61"/>
</g>
<!-- Node49 -->
<g id="node47" class="node">
<title>Node49</title>
<g id="a_node47"><a xlink:title=" ">
<polygon fill="white" stroke="#bfbfbf" points="709,-134.5 709,-153.5 759,-153.5 759,-134.5 709,-134.5"/>
<text text-anchor="middle" x="734" y="-141.5" font-family="Helvetica,sans-Serif" font-size="10.00">gsl/util</text>
</a>
</g>
</g>
<!-- Node47&#45;&gt;Node49 -->
<g id="edge51" class="edge">
<title>Node47&#45;&gt;Node49</title>
<path fill="none" stroke="midnightblue" d="M734,-190.08C734,-183.01 734,-172.86 734,-163.99"/>
<polygon fill="midnightblue" stroke="midnightblue" points="737.5,-163.75 734,-153.75 730.5,-163.75 737.5,-163.75"/>
</g>
<!-- Node50&#45;&gt;Node25 -->
<g id="edge57" class="edge">
<title>Node50&#45;&gt;Node25</title>
<path fill="none" stroke="midnightblue" d="M1434,-470.44C1434,-451.94 1434,-406.81 1434,-369 1434,-369 1434,-369 1434,-199 1434,-70.88 1584.85,-145.09 1704,-98 1710.06,-95.6 1716.52,-92.97 1722.67,-90.42"/>
<polygon fill="midnightblue" stroke="midnightblue" points="1724.1,-93.62 1731.98,-86.53 1721.41,-87.16 1724.1,-93.62"/>
</g>
<!-- Node51 -->
<g id="node49" class="node">
<title>Node51</title>
<g id="a_node49"><a xlink:title=" ">
<polygon fill="white" stroke="#bfbfbf" points="1462,-414.5 1462,-433.5 1510,-433.5 1510,-414.5 1462,-414.5"/>
<text text-anchor="middle" x="1486" y="-421.5" font-family="Helvetica,sans-Serif" font-size="10.00">mpfr.h</text>
</a>
</g>
</g>
<!-- Node50&#45;&gt;Node51 -->
<g id="edge56" class="edge">
<title>Node50&#45;&gt;Node51</title>
<path fill="none" stroke="midnightblue" d="M1442.59,-470.08C1450.16,-462.22 1461.38,-450.57 1470.51,-441.08"/>
<polygon fill="midnightblue" stroke="midnightblue" points="1473.16,-443.38 1477.57,-433.75 1468.12,-438.53 1473.16,-443.38"/>
</g>
<!-- Node52&#45;&gt;Node3 -->
<g id="edge59" class="edge">
<title>Node52&#45;&gt;Node3</title>
<path fill="none" stroke="midnightblue" d="M1023,-526.08C1023,-519.01 1023,-508.86 1023,-499.99"/>
<polygon fill="midnightblue" stroke="midnightblue" points="1026.5,-499.75 1023,-489.75 1019.5,-499.75 1026.5,-499.75"/>
</g>
</g>
</svg>
