<?xml version="1.0" encoding="UTF-8" standalone="no"?>
<!DOCTYPE svg PUBLIC "-//W3C//DTD SVG 1.1//EN"
 "http://www.w3.org/Graphics/SVG/1.1/DTD/svg11.dtd">
<!-- Generated by graphviz version 2.40.1 (20161225.0304)
 -->
<!-- Title: src/cdt&#45;opt.cpp Pages: 1 -->
<svg width="2071pt" height="386pt"
 viewBox="0.00 0.00 2071.26 386.00" xmlns="http://www.w3.org/2000/svg" xmlns:xlink="http://www.w3.org/1999/xlink">
<g id="graph0" class="graph" transform="scale(1 1) rotate(0) translate(4 382)">
<title>src/cdt&#45;opt.cpp</title>
<polygon fill="#ffffff" stroke="transparent" points="-4,4 -4,-382 2067.2602,-382 2067.2602,4 -4,4"/>
<!-- Node0 -->
<g id="node1" class="node">
<title>Node0</title>
<polygon fill="#bfbfbf" stroke="#000000" points="281.2602,-358.5 281.2602,-377.5 370.2602,-377.5 370.2602,-358.5 281.2602,-358.5"/>
<text text-anchor="middle" x="325.7602" y="-365.5" font-family="Helvetica,sans-Serif" font-size="10.00" fill="#000000">src/cdt&#45;opt.cpp</text>
</g>
<!-- Node1 -->
<g id="node2" class="node">
<title>Node1</title>
<g id="a_node2"><a xlink:href="_metropolis_8hpp.html" target="_top" xlink:title="Perform Metropolis&#45;Hastings algorithm on Delaunay Triangulations. ">
<polygon fill="#ffffff" stroke="#000000" points="165.2602,-302.5 165.2602,-321.5 254.2602,-321.5 254.2602,-302.5 165.2602,-302.5"/>
<text text-anchor="middle" x="209.7602" y="-309.5" font-family="Helvetica,sans-Serif" font-size="10.00" fill="#000000">Metropolis.hpp</text>
</a>
</g>
</g>
<!-- Node0&#45;&gt;Node1 -->
<g id="edge1" class="edge">
<title>Node0&#45;&gt;Node1</title>
<path fill="none" stroke="#191970" d="M305.8191,-358.3733C287.2816,-349.4241 259.4574,-335.9917 238.5189,-325.8835"/>
<polygon fill="#191970" stroke="#191970" points="239.9682,-322.6967 229.4411,-321.5011 236.925,-329.0006 239.9682,-322.6967"/>
</g>
<!-- Node49 -->
<g id="node20" class="node">
<title>Node49</title>
<g id="a_node20"><a xlink:href="_simulation_8hpp.html" target="_top" xlink:title="Simulation class. ">
<polygon fill="#ffffff" stroke="#000000" points="396.7602,-302.5 396.7602,-321.5 486.7602,-321.5 486.7602,-302.5 396.7602,-302.5"/>
<text text-anchor="middle" x="441.7602" y="-309.5" font-family="Helvetica,sans-Serif" font-size="10.00" fill="#000000">Simulation.hpp</text>
</a>
</g>
</g>
<!-- Node0&#45;&gt;Node49 -->
<g id="edge22" class="edge">
<title>Node0&#45;&gt;Node49</title>
<path fill="none" stroke="#191970" d="M345.7013,-358.3733C364.2388,-349.4241 392.063,-335.9917 413.0015,-325.8835"/>
<polygon fill="#191970" stroke="#191970" points="414.5954,-329.0006 422.0793,-321.5011 411.5521,-322.6967 414.5954,-329.0006"/>
</g>
<!-- Node2 -->
<g id="node3" class="node">
<title>Node2</title>
<g id="a_node3"><a xlink:href="_move__strategy_8hpp.html" target="_top" xlink:title="Base class for move algorithms on Delaunay Triangulations. ">
<polygon fill="#ffffff" stroke="#000000" points="296.7602,-246.5 296.7602,-265.5 404.7602,-265.5 404.7602,-246.5 296.7602,-246.5"/>
<text text-anchor="middle" x="350.7602" y="-253.5" font-family="Helvetica,sans-Serif" font-size="10.00" fill="#000000">Move_strategy.hpp</text>
</a>
</g>
</g>
<!-- Node1&#45;&gt;Node2 -->
<g id="edge2" class="edge">
<title>Node1&#45;&gt;Node2</title>
<path fill="none" stroke="#191970" d="M233.9989,-302.3733C257.0391,-293.2226 291.8816,-279.3844 317.5102,-269.2057"/>
<polygon fill="#191970" stroke="#191970" points="318.8358,-272.4452 326.8377,-265.5011 316.2519,-265.9395 318.8358,-272.4452"/>
</g>
<!-- Node7 -->
<g id="node8" class="node">
<title>Node7</title>
<polygon fill="#ffffff" stroke="#bfbfbf" points="16.2602,-.5 16.2602,-19.5 85.2602,-19.5 85.2602,-.5 16.2602,-.5"/>
<text text-anchor="middle" x="50.7602" y="-7.5" font-family="Helvetica,sans-Serif" font-size="10.00" fill="#000000">type_traits</text>
</g>
<!-- Node1&#45;&gt;Node7 -->
<g id="edge21" class="edge">
<title>Node1&#45;&gt;Node7</title>
<path fill="none" stroke="#191970" d="M165.1391,-306.422C115.7387,-299.3702 40.3454,-285.7232 19.7602,-266 -2.2805,-244.8822 .7602,-230.5246 .7602,-200 .7602,-200 .7602,-200 .7602,-133 .7602,-93.2909 23.4008,-51.3275 38.2116,-28.1244"/>
<polygon fill="#191970" stroke="#191970" points="41.2139,-29.9296 43.8079,-19.6572 35.3741,-26.0699 41.2139,-29.9296"/>
</g>
<!-- Node45 -->
<g id="node14" class="node">
<title>Node45</title>
<g id="a_node14"><a xlink:href="_s3_action_8hpp.html" target="_top" xlink:title="Calculate S3 bulk actions on 3D Delaunay Triangulations. ">
<polygon fill="#ffffff" stroke="#000000" points="169.7602,-246.5 169.7602,-265.5 249.7602,-265.5 249.7602,-246.5 169.7602,-246.5"/>
<text text-anchor="middle" x="209.7602" y="-253.5" font-family="Helvetica,sans-Serif" font-size="10.00" fill="#000000">S3Action.hpp</text>
</a>
</g>
</g>
<!-- Node1&#45;&gt;Node45 -->
<g id="edge14" class="edge">
<title>Node1&#45;&gt;Node45</title>
<path fill="none" stroke="#191970" d="M209.7602,-302.2455C209.7602,-294.9382 209.7602,-284.6944 209.7602,-275.7046"/>
<polygon fill="#191970" stroke="#191970" points="213.2603,-275.6426 209.7602,-265.6427 206.2603,-275.6427 213.2603,-275.6426"/>
</g>
<!-- Node48 -->
<g id="node19" class="node">
<title>Node48</title>
<polygon fill="#ffffff" stroke="#bfbfbf" points="28.7602,-246.5 28.7602,-265.5 78.7602,-265.5 78.7602,-246.5 28.7602,-246.5"/>
<text text-anchor="middle" x="53.7602" y="-253.5" font-family="Helvetica,sans-Serif" font-size="10.00" fill="#000000">atomic</text>
</g>
<!-- Node1&#45;&gt;Node48 -->
<g id="edge20" class="edge">
<title>Node1&#45;&gt;Node48</title>
<path fill="none" stroke="#191970" d="M182.9428,-302.3733C156.8374,-293.0021 117.0372,-278.7148 88.5157,-268.4764"/>
<polygon fill="#191970" stroke="#191970" points="89.5332,-265.123 78.9387,-265.0384 87.1681,-271.7113 89.5332,-265.123"/>
</g>
<!-- Node3 -->
<g id="node4" class="node">
<title>Node3</title>
<g id="a_node4"><a xlink:href="_move__command_8hpp.html" target="_top" xlink:title="Do ergodic moves using the Command pattern. ">
<polygon fill="#ffffff" stroke="#000000" points="291.7602,-190.5 291.7602,-209.5 409.7602,-209.5 409.7602,-190.5 291.7602,-190.5"/>
<text text-anchor="middle" x="350.7602" y="-197.5" font-family="Helvetica,sans-Serif" font-size="10.00" fill="#000000">Move_command.hpp</text>
</a>
</g>
</g>
<!-- Node2&#45;&gt;Node3 -->
<g id="edge3" class="edge">
<title>Node2&#45;&gt;Node3</title>
<path fill="none" stroke="#191970" d="M350.7602,-246.2455C350.7602,-238.9382 350.7602,-228.6944 350.7602,-219.7046"/>
<polygon fill="#191970" stroke="#191970" points="354.2603,-219.6426 350.7602,-209.6427 347.2603,-219.6427 354.2603,-219.6426"/>
</g>
<!-- Node44 -->
<g id="node13" class="node">
<title>Node44</title>
<polygon fill="#ffffff" stroke="#bfbfbf" points="469.7602,-123.5 469.7602,-142.5 527.7602,-142.5 527.7602,-123.5 469.7602,-123.5"/>
<text text-anchor="middle" x="498.7602" y="-130.5" font-family="Helvetica,sans-Serif" font-size="10.00" fill="#000000">memory</text>
</g>
<!-- Node2&#45;&gt;Node44 -->
<g id="edge13" class="edge">
<title>Node2&#45;&gt;Node44</title>
<path fill="none" stroke="#191970" d="M366.4182,-246.4889C380.5577,-237.6518 401.7,-223.8108 418.7602,-210 442.2366,-190.9951 466.9445,-166.4089 482.5817,-150.1932"/>
<polygon fill="#191970" stroke="#191970" points="485.5043,-152.2004 489.8775,-142.5503 480.4409,-147.367 485.5043,-152.2004"/>
</g>
<!-- Node4 -->
<g id="node5" class="node">
<title>Node4</title>
<g id="a_node5"><a xlink:href="_apply__move_8hpp.html" target="_top" xlink:title="Apply Pachner moves to foliated Delaunay triangulations. ">
<polygon fill="#ffffff" stroke="#000000" points="135.7602,-123.5 135.7602,-142.5 233.7602,-142.5 233.7602,-123.5 135.7602,-123.5"/>
<text text-anchor="middle" x="184.7602" y="-130.5" font-family="Helvetica,sans-Serif" font-size="10.00" fill="#000000">Apply_move.hpp</text>
</a>
</g>
</g>
<!-- Node3&#45;&gt;Node4 -->
<g id="edge4" class="edge">
<title>Node3&#45;&gt;Node4</title>
<path fill="none" stroke="#191970" d="M326.9764,-190.4005C298.3783,-178.8579 250.2095,-159.4163 217.9585,-146.3993"/>
<polygon fill="#191970" stroke="#191970" points="219.083,-143.0789 208.4998,-142.5817 216.463,-149.5701 219.083,-143.0789"/>
</g>
<!-- Node10 -->
<g id="node11" class="node">
<title>Node10</title>
<g id="a_node11"><a xlink:href="_ergodic__moves__3_8hpp.html" target="_top" xlink:title="Pachner moves on 2+1 dimensional foliated Delaunay triangulations. ">
<polygon fill="#ffffff" stroke="#000000" points="290.2602,-123.5 290.2602,-142.5 413.2602,-142.5 413.2602,-123.5 290.2602,-123.5"/>
<text text-anchor="middle" x="351.7602" y="-130.5" font-family="Helvetica,sans-Serif" font-size="10.00" fill="#000000">Ergodic_moves_3.hpp</text>
</a>
</g>
</g>
<!-- Node3&#45;&gt;Node10 -->
<g id="edge10" class="edge">
<title>Node3&#45;&gt;Node10</title>
<path fill="none" stroke="#191970" d="M350.9035,-190.4005C351.049,-180.649 351.2787,-165.2597 351.4636,-152.8695"/>
<polygon fill="#191970" stroke="#191970" points="354.9674,-152.6328 351.6172,-142.5817 347.9682,-152.5283 354.9674,-152.6328"/>
</g>
<!-- Node5 -->
<g id="node6" class="node">
<title>Node5</title>
<g id="a_node6"><a xlink:href="_function__ref_8hpp.html" target="_top" xlink:title="Efficient, type&#45;erasing, non&#45;owning function reference. ">
<polygon fill="#ffffff" stroke="#000000" points="40.7602,-56.5 40.7602,-75.5 136.7602,-75.5 136.7602,-56.5 40.7602,-56.5"/>
<text text-anchor="middle" x="88.7602" y="-63.5" font-family="Helvetica,sans-Serif" font-size="10.00" fill="#000000">Function_ref.hpp</text>
</a>
</g>
</g>
<!-- Node4&#45;&gt;Node5 -->
<g id="edge5" class="edge">
<title>Node4&#45;&gt;Node5</title>
<path fill="none" stroke="#191970" d="M171.0057,-123.4005C155.3225,-112.4549 129.4619,-94.4064 110.9244,-81.4688"/>
<polygon fill="#191970" stroke="#191970" points="112.6926,-78.4347 102.4891,-75.5817 108.6864,-84.175 112.6926,-78.4347"/>
</g>
<!-- Node9 -->
<g id="node10" class="node">
<title>Node9</title>
<polygon fill="#ffffff" stroke="#bfbfbf" points="155.2602,-56.5 155.2602,-75.5 220.2602,-75.5 220.2602,-56.5 155.2602,-56.5"/>
<text text-anchor="middle" x="187.7602" y="-63.5" font-family="Helvetica,sans-Serif" font-size="10.00" fill="#000000">functional</text>
</g>
<!-- Node4&#45;&gt;Node9 -->
<g id="edge9" class="edge">
<title>Node4&#45;&gt;Node9</title>
<path fill="none" stroke="#191970" d="M185.19,-123.4005C185.6266,-113.649 186.3157,-98.2597 186.8705,-85.8695"/>
<polygon fill="#191970" stroke="#191970" points="190.3802,-85.7282 187.3312,-75.5817 183.3873,-85.4151 190.3802,-85.7282"/>
</g>
<!-- Node6 -->
<g id="node7" class="node">
<title>Node6</title>
<polygon fill="#ffffff" stroke="#bfbfbf" points="134.7602,-.5 134.7602,-19.5 184.7602,-19.5 184.7602,-.5 134.7602,-.5"/>
<text text-anchor="middle" x="159.7602" y="-7.5" font-family="Helvetica,sans-Serif" font-size="10.00" fill="#000000">cstdint</text>
</g>
<!-- Node5&#45;&gt;Node6 -->
<g id="edge6" class="edge">
<title>Node5&#45;&gt;Node6</title>
<path fill="none" stroke="#191970" d="M101.1274,-56.2455C111.7156,-47.8943 127.1666,-35.7076 139.5495,-25.9408"/>
<polygon fill="#191970" stroke="#191970" points="141.8505,-28.5837 147.5346,-19.6427 137.5155,-23.0875 141.8505,-28.5837"/>
</g>
<!-- Node5&#45;&gt;Node7 -->
<g id="edge7" class="edge">
<title>Node5&#45;&gt;Node7</title>
<path fill="none" stroke="#191970" d="M82.1411,-56.2455C76.8556,-48.4564 69.3061,-37.3308 62.9364,-27.9439"/>
<polygon fill="#191970" stroke="#191970" points="65.8147,-25.9522 57.3034,-19.6427 60.0223,-29.8827 65.8147,-25.9522"/>
</g>
<!-- Node8 -->
<g id="node9" class="node">
<title>Node8</title>
<polygon fill="#ffffff" stroke="#bfbfbf" points="419.2602,-.5 419.2602,-19.5 464.2602,-19.5 464.2602,-.5 419.2602,-.5"/>
<text text-anchor="middle" x="441.7602" y="-7.5" font-family="Helvetica,sans-Serif" font-size="10.00" fill="#000000">utility</text>
</g>
<!-- Node5&#45;&gt;Node8 -->
<g id="edge8" class="edge">
<title>Node5&#45;&gt;Node8</title>
<path fill="none" stroke="#191970" d="M136.951,-57.4774C139.9309,-56.9715 142.8856,-56.4755 145.7602,-56 241.2423,-40.2067 354.3209,-23.067 408.9581,-14.884"/>
<polygon fill="#191970" stroke="#191970" points="409.7114,-18.3104 419.0838,-13.3699 408.6761,-11.3873 409.7114,-18.3104"/>
</g>
<!-- Node11 -->
<g id="node12" class="node">
<title>Node11</title>
<g id="a_node12"><a xlink:href="_manifold_8hpp.html" target="_top" xlink:title="Data structures for manifolds. ">
<polygon fill="#ffffff" stroke="#ff0000" points="333.7602,-56.5 333.7602,-75.5 413.7602,-75.5 413.7602,-56.5 333.7602,-56.5"/>
<text text-anchor="middle" x="373.7602" y="-63.5" font-family="Helvetica,sans-Serif" font-size="10.00" fill="#000000">Manifold.hpp</text>
</a>
</g>
</g>
<!-- Node10&#45;&gt;Node11 -->
<g id="edge11" class="edge">
<title>Node10&#45;&gt;Node11</title>
<path fill="none" stroke="#191970" d="M354.9122,-123.4005C358.1796,-113.45 363.3745,-97.6292 367.4837,-85.1147"/>
<polygon fill="#191970" stroke="#191970" points="370.8195,-86.1745 370.614,-75.5817 364.1689,-83.9907 370.8195,-86.1745"/>
</g>
<!-- Node11&#45;&gt;Node8 -->
<g id="edge12" class="edge">
<title>Node11&#45;&gt;Node8</title>
<path fill="none" stroke="#191970" d="M385.6049,-56.2455C395.6481,-47.9746 410.2596,-35.9416 422.0606,-26.2232"/>
<polygon fill="#191970" stroke="#191970" points="424.5569,-28.7015 430.0512,-19.6427 420.1069,-23.298 424.5569,-28.7015"/>
</g>
<!-- Node33 -->
<g id="node15" class="node">
<title>Node33</title>
<g id="a_node15"><a xlink:href="_settings_8hpp.html" target="_top" xlink:title="Global integer and precision settings. ">
<polygon fill="#ffffff" stroke="#000000" points="238.2602,-56.5 238.2602,-75.5 315.2602,-75.5 315.2602,-56.5 238.2602,-56.5"/>
<text text-anchor="middle" x="276.7602" y="-63.5" font-family="Helvetica,sans-Serif" font-size="10.00" fill="#000000">Settings.hpp</text>
</a>
</g>
</g>
<!-- Node45&#45;&gt;Node33 -->
<g id="edge15" class="edge">
<title>Node45&#45;&gt;Node33</title>
<path fill="none" stroke="#191970" d="M218.316,-246.4726C225.8221,-237.6245 236.4906,-223.7765 242.7602,-210 261.8377,-168.0802 270.8703,-114.2435 274.5703,-85.7456"/>
<polygon fill="#191970" stroke="#191970" points="278.0826,-85.8547 275.8083,-75.5068 271.1332,-85.0143 278.0826,-85.8547"/>
</g>
<!-- Node46 -->
<g id="node17" class="node">
<title>Node46</title>
<polygon fill="#ffffff" stroke="#bfbfbf" points="121.7602,-190.5 121.7602,-209.5 167.7602,-209.5 167.7602,-190.5 121.7602,-190.5"/>
<text text-anchor="middle" x="144.7602" y="-197.5" font-family="Helvetica,sans-Serif" font-size="10.00" fill="#000000">cstdio</text>
</g>
<!-- Node45&#45;&gt;Node46 -->
<g id="edge18" class="edge">
<title>Node45&#45;&gt;Node46</title>
<path fill="none" stroke="#191970" d="M198.438,-246.2455C188.8379,-237.9746 174.871,-225.9416 163.5907,-216.2232"/>
<polygon fill="#191970" stroke="#191970" points="165.8132,-213.5182 155.9526,-209.6427 161.2442,-218.8214 165.8132,-213.5182"/>
</g>
<!-- Node47 -->
<g id="node18" class="node">
<title>Node47</title>
<polygon fill="#ffffff" stroke="#bfbfbf" points="185.7602,-190.5 185.7602,-209.5 233.7602,-209.5 233.7602,-190.5 185.7602,-190.5"/>
<text text-anchor="middle" x="209.7602" y="-197.5" font-family="Helvetica,sans-Serif" font-size="10.00" fill="#000000">mpfr.h</text>
</g>
<!-- Node45&#45;&gt;Node47 -->
<g id="edge19" class="edge">
<title>Node45&#45;&gt;Node47</title>
<path fill="none" stroke="#191970" d="M209.7602,-246.2455C209.7602,-238.9382 209.7602,-228.6944 209.7602,-219.7046"/>
<polygon fill="#191970" stroke="#191970" points="213.2603,-219.6426 209.7602,-209.6427 206.2603,-219.6427 213.2603,-219.6426"/>
</g>
<!-- Node33&#45;&gt;Node6 -->
<g id="edge17" class="edge">
<title>Node33&#45;&gt;Node6</title>
<path fill="none" stroke="#191970" d="M256.6472,-56.3733C237.9498,-47.4241 209.8858,-33.9917 188.7668,-23.8835"/>
<polygon fill="#191970" stroke="#191970" points="190.1419,-20.6614 179.6107,-19.5011 187.1197,-26.9755 190.1419,-20.6614"/>
</g>
<!-- Node34 -->
<g id="node16" class="node">
<title>Node34</title>
<polygon fill="#ffffff" stroke="#bfbfbf" points="233.7602,-.5 233.7602,-19.5 319.7602,-19.5 319.7602,-.5 233.7602,-.5"/>
<text text-anchor="middle" x="276.7602" y="-7.5" font-family="Helvetica,sans-Serif" font-size="10.00" fill="#000000">CGAL/Gmpzf.h</text>
</g>
<!-- Node33&#45;&gt;Node34 -->
<g id="edge16" class="edge">
<title>Node33&#45;&gt;Node34</title>
<path fill="none" stroke="#191970" d="M276.7602,-56.2455C276.7602,-48.9382 276.7602,-38.6944 276.7602,-29.7046"/>
<polygon fill="#191970" stroke="#191970" points="280.2603,-29.6426 276.7602,-19.6427 273.2603,-29.6427 280.2603,-29.6426"/>
</g>
<!-- Node49&#45;&gt;Node5 -->
<g id="edge23" class="edge">
<title>Node49&#45;&gt;Node5</title>
<path fill="none" stroke="#191970" d="M396.7073,-308.3952C327.877,-302.2636 200.3489,-288.2596 160.7602,-266 96.6828,-229.9711 88.7313,-128.9172 88.3574,-85.8476"/>
<polygon fill="#191970" stroke="#191970" points="91.8575,-85.7943 88.404,-75.7782 84.8576,-85.7618 91.8575,-85.7943"/>
</g>
<!-- Node49&#45;&gt;Node8 -->
<g id="edge63" class="edge">
<title>Node49&#45;&gt;Node8</title>
<path fill="none" stroke="#191970" d="M441.7602,-302.4116C441.7602,-283.0538 441.7602,-237.9167 441.7602,-200 441.7602,-200 441.7602,-200 441.7602,-133 441.7602,-96.4994 441.7602,-53.906 441.7602,-29.6285"/>
<polygon fill="#191970" stroke="#191970" points="445.2603,-29.5691 441.7602,-19.5691 438.2603,-29.5692 445.2603,-29.5691"/>
</g>
<!-- Node50 -->
<g id="node21" class="node">
<title>Node50</title>
<g id="a_node21"><a xlink:href="_simplicial_manifold_8hpp.html" target="_top" xlink:title="Data structures for simplicial manifolds. ">
<polygon fill="#ffffff" stroke="#000000" points="1210.7602,-246.5 1210.7602,-265.5 1338.7602,-265.5 1338.7602,-246.5 1210.7602,-246.5"/>
<text text-anchor="middle" x="1274.7602" y="-253.5" font-family="Helvetica,sans-Serif" font-size="10.00" fill="#000000">SimplicialManifold.hpp</text>
</a>
</g>
</g>
<!-- Node49&#45;&gt;Node50 -->
<g id="edge24" class="edge">
<title>Node49&#45;&gt;Node50</title>
<path fill="none" stroke="#191970" d="M486.8412,-308.9693C623.1034,-299.8089 1031.6516,-272.3434 1200.4923,-260.9928"/>
<polygon fill="#191970" stroke="#191970" points="1200.7926,-264.4806 1210.5353,-260.3176 1200.323,-257.4964 1200.7926,-264.4806"/>
</g>
<!-- Node54 -->
<g id="node48" class="node">
<title>Node54</title>
<polygon fill="#ffffff" stroke="#bfbfbf" points="2016.2602,-123.5 2016.2602,-142.5 2063.2602,-142.5 2063.2602,-123.5 2016.2602,-123.5"/>
<text text-anchor="middle" x="2039.7602" y="-130.5" font-family="Helvetica,sans-Serif" font-size="10.00" fill="#000000">vector</text>
</g>
<!-- Node49&#45;&gt;Node54 -->
<g id="edge64" class="edge">
<title>Node49&#45;&gt;Node54</title>
<path fill="none" stroke="#191970" d="M487.0774,-310.7104C619.6443,-306.7204 1018.1406,-293.176 1347.7602,-266 1566.2144,-247.9892 1623.6999,-257.168 1837.7602,-210 1915.0338,-192.9728 1935.283,-187.9432 2006.7602,-154 2010.4503,-152.2476 2014.2284,-150.1592 2017.8494,-147.9895"/>
<polygon fill="#191970" stroke="#191970" points="2019.8175,-150.8858 2026.3869,-142.5735 2016.0677,-144.9749 2019.8175,-150.8858"/>
</g>
<!-- Node50&#45;&gt;Node8 -->
<g id="edge61" class="edge">
<title>Node50&#45;&gt;Node8</title>
<path fill="none" stroke="#191970" d="M1210.442,-253.5196C1092.6281,-247.3035 835.657,-225.9412 632.7602,-154 567.4493,-130.8427 550.9579,-120.4047 497.7602,-76 480.9153,-61.9394 465.0679,-42.4469 454.5602,-28.2932"/>
<polygon fill="#191970" stroke="#191970" points="457.1666,-25.9245 448.4694,-19.8738 451.495,-30.0275 457.1666,-25.9245"/>
</g>
<!-- Node50&#45;&gt;Node44 -->
<g id="edge59" class="edge">
<title>Node50&#45;&gt;Node44</title>
<path fill="none" stroke="#191970" d="M1210.6136,-255.4545C1042.3866,-253.5382 597.5931,-245.1668 541.7602,-210 521.1831,-197.0394 509.5872,-170.5217 503.7489,-152.2581"/>
<polygon fill="#191970" stroke="#191970" points="507.1013,-151.2514 500.9524,-142.6234 500.3787,-153.2027 507.1013,-151.2514"/>
</g>
<!-- Node51 -->
<g id="node22" class="node">
<title>Node51</title>
<g id="a_node22"><a xlink:href="_s3_triangulation_8hpp.html" target="_top" xlink:title="Functions on 3D Spherical Delaunay Triangulations. ">
<polygon fill="#ffffff" stroke="#000000" points="1154.2602,-190.5 1154.2602,-209.5 1267.2602,-209.5 1267.2602,-190.5 1154.2602,-190.5"/>
<text text-anchor="middle" x="1210.7602" y="-197.5" font-family="Helvetica,sans-Serif" font-size="10.00" fill="#000000">S3Triangulation.hpp</text>
</a>
</g>
</g>
<!-- Node50&#45;&gt;Node51 -->
<g id="edge25" class="edge">
<title>Node50&#45;&gt;Node51</title>
<path fill="none" stroke="#191970" d="M1263.6122,-246.2455C1254.2515,-238.0549 1240.6744,-226.1749 1229.6252,-216.5069"/>
<polygon fill="#191970" stroke="#191970" points="1231.6109,-213.5937 1221.7804,-209.6427 1227.0014,-218.8618 1231.6109,-213.5937"/>
</g>
<!-- Node52 -->
<g id="node46" class="node">
<title>Node52</title>
<polygon fill="#ffffff" stroke="#bfbfbf" points="1965.7602,-123.5 1965.7602,-142.5 1997.7602,-142.5 1997.7602,-123.5 1965.7602,-123.5"/>
<text text-anchor="middle" x="1981.7602" y="-130.5" font-family="Helvetica,sans-Serif" font-size="10.00" fill="#000000">set</text>
</g>
<!-- Node50&#45;&gt;Node52 -->
<g id="edge60" class="edge">
<title>Node50&#45;&gt;Node52</title>
<path fill="none" stroke="#191970" d="M1338.8981,-250.115C1485.4232,-236.0654 1840.625,-198.406 1951.7602,-154 1955.3984,-152.5463 1959.0234,-150.5756 1962.4308,-148.421"/>
<polygon fill="#191970" stroke="#191970" points="1964.6468,-151.141 1970.8014,-142.5171 1960.6122,-145.4207 1964.6468,-151.141"/>
</g>
<!-- Node50&#45;&gt;Node54 -->
<g id="edge62" class="edge">
<title>Node50&#45;&gt;Node54</title>
<path fill="none" stroke="#191970" d="M1338.8795,-252.4081C1431.3828,-246.6516 1607.4577,-233.5418 1755.7602,-210 1868.645,-192.0804 1901.1808,-197.7846 2006.7602,-154 2010.6023,-152.4067 2014.4949,-150.3736 2018.194,-148.2025"/>
<polygon fill="#191970" stroke="#191970" points="2020.2941,-151.0147 2026.8513,-142.6929 2016.5357,-145.1092 2020.2941,-151.0147"/>
</g>
<!-- Node55 -->
<g id="node49" class="node">
<title>Node55</title>
<polygon fill="#ffffff" stroke="#bfbfbf" points="1285.2602,-190.5 1285.2602,-209.5 1392.2602,-209.5 1392.2602,-190.5 1285.2602,-190.5"/>
<text text-anchor="middle" x="1338.7602" y="-197.5" font-family="Helvetica,sans-Serif" font-size="10.00" fill="#000000">boost/optional.hpp</text>
</g>
<!-- Node50&#45;&gt;Node55 -->
<g id="edge57" class="edge">
<title>Node50&#45;&gt;Node55</title>
<path fill="none" stroke="#191970" d="M1285.9081,-246.2455C1295.2688,-238.0549 1308.846,-226.1749 1319.8951,-216.5069"/>
<polygon fill="#191970" stroke="#191970" points="1322.519,-218.8618 1327.74,-209.6427 1317.9094,-213.5937 1322.519,-218.8618"/>
</g>
<!-- Node56 -->
<g id="node50" class="node">
<title>Node56</title>
<polygon fill="#ffffff" stroke="#bfbfbf" points="1410.7602,-190.5 1410.7602,-209.5 1448.7602,-209.5 1448.7602,-190.5 1410.7602,-190.5"/>
<text text-anchor="middle" x="1429.7602" y="-197.5" font-family="Helvetica,sans-Serif" font-size="10.00" fill="#000000">map</text>
</g>
<!-- Node50&#45;&gt;Node56 -->
<g id="edge58" class="edge">
<title>Node50&#45;&gt;Node56</title>
<path fill="none" stroke="#191970" d="M1301.4056,-246.3733C1329.1246,-236.3587 1372.383,-220.7298 1400.8978,-210.4277"/>
<polygon fill="#191970" stroke="#191970" points="1402.1036,-213.7136 1410.3193,-207.0238 1399.725,-207.13 1402.1036,-213.7136"/>
</g>
<!-- Node51&#45;&gt;Node8 -->
<g id="edge55" class="edge">
<title>Node51&#45;&gt;Node8</title>
<path fill="none" stroke="#191970" d="M1154.0712,-198.2646C1034.8452,-192.7846 751.4462,-170.0573 536.7602,-76 507.9897,-63.3952 478.9134,-41.5564 460.6444,-26.4719"/>
<polygon fill="#191970" stroke="#191970" points="462.4931,-23.4523 452.5928,-19.6794 457.9793,-28.8027 462.4931,-23.4523"/>
</g>
<!-- Node51&#45;&gt;Node44 -->
<g id="edge51" class="edge">
<title>Node51&#45;&gt;Node44</title>
<path fill="none" stroke="#191970" d="M1154.2229,-199.2974C1043.3191,-197.167 789.7453,-188.582 579.7602,-154 565.9387,-151.7238 551.038,-148.1831 537.8317,-144.6534"/>
<polygon fill="#191970" stroke="#191970" points="538.6793,-141.2566 528.109,-141.9774 536.8217,-148.0056 538.6793,-141.2566"/>
</g>
<!-- Node35 -->
<g id="node23" class="node">
<title>Node35</title>
<polygon fill="#ffffff" stroke="#bfbfbf" points="1088.7602,-123.5 1088.7602,-142.5 1268.7602,-142.5 1268.7602,-123.5 1088.7602,-123.5"/>
<text text-anchor="middle" x="1178.7602" y="-130.5" font-family="Helvetica,sans-Serif" font-size="10.00" fill="#000000">CGAL/Delaunay_triangulation_3.h</text>
</g>
<!-- Node51&#45;&gt;Node35 -->
<g id="edge26" class="edge">
<title>Node51&#45;&gt;Node35</title>
<path fill="none" stroke="#191970" d="M1206.1754,-190.4005C1201.3753,-180.3505 1193.7153,-164.3122 1187.7108,-151.7403"/>
<polygon fill="#191970" stroke="#191970" points="1190.8046,-150.0968 1183.3365,-142.5817 1184.4881,-153.1137 1190.8046,-150.0968"/>
</g>
<!-- Node36 -->
<g id="node24" class="node">
<title>Node36</title>
<polygon fill="#ffffff" stroke="#bfbfbf" points="1287.2602,-112.5 1287.2602,-153.5 1416.2602,-153.5 1416.2602,-112.5 1287.2602,-112.5"/>
<text text-anchor="start" x="1295.2602" y="-141.5" font-family="Helvetica,sans-Serif" font-size="10.00" fill="#000000">CGAL/Exact_predicates</text>
<text text-anchor="start" x="1295.2602" y="-130.5" font-family="Helvetica,sans-Serif" font-size="10.00" fill="#000000">_inexact_constructions</text>
<text text-anchor="middle" x="1351.7602" y="-119.5" font-family="Helvetica,sans-Serif" font-size="10.00" fill="#000000">_kernel.h</text>
</g>
<!-- Node51&#45;&gt;Node36 -->
<g id="edge27" class="edge">
<title>Node51&#45;&gt;Node36</title>
<path fill="none" stroke="#191970" d="M1230.962,-190.4005C1248.7093,-181.9675 1275.3297,-169.318 1299.0677,-158.0383"/>
<polygon fill="#191970" stroke="#191970" points="1300.8111,-161.085 1308.3411,-153.6318 1297.8067,-154.7624 1300.8111,-161.085"/>
</g>
<!-- Node37 -->
<g id="node25" class="node">
<title>Node37</title>
<polygon fill="#ffffff" stroke="#bfbfbf" points="1434.7602,-118 1434.7602,-148 1572.7602,-148 1572.7602,-118 1434.7602,-118"/>
<text text-anchor="start" x="1442.7602" y="-136" font-family="Helvetica,sans-Serif" font-size="10.00" fill="#000000">CGAL/Triangulation</text>
<text text-anchor="middle" x="1503.7602" y="-125" font-family="Helvetica,sans-Serif" font-size="10.00" fill="#000000">_cell_base_with_info_3.h</text>
</g>
<!-- Node51&#45;&gt;Node37 -->
<g id="edge28" class="edge">
<title>Node51&#45;&gt;Node37</title>
<path fill="none" stroke="#191970" d="M1258.7425,-190.4814C1302.4215,-181.6393 1368.6182,-167.7951 1425.7602,-154 1430.1736,-152.9345 1434.7182,-151.8027 1439.2903,-150.6383"/>
<polygon fill="#191970" stroke="#191970" points="1440.4969,-153.9415 1449.3029,-148.0504 1438.7452,-147.1642 1440.4969,-153.9415"/>
</g>
<!-- Node38 -->
<g id="node26" class="node">
<title>Node38</title>
<polygon fill="#ffffff" stroke="#bfbfbf" points="1590.7602,-118 1590.7602,-148 1742.7602,-148 1742.7602,-118 1590.7602,-118"/>
<text text-anchor="start" x="1598.7602" y="-136" font-family="Helvetica,sans-Serif" font-size="10.00" fill="#000000">CGAL/Triangulation</text>
<text text-anchor="middle" x="1666.7602" y="-125" font-family="Helvetica,sans-Serif" font-size="10.00" fill="#000000">_vertex_base_with_info_3.h</text>
</g>
<!-- Node51&#45;&gt;Node38 -->
<g id="edge29" class="edge">
<title>Node51&#45;&gt;Node38</title>
<path fill="none" stroke="#191970" d="M1267.2683,-191.3133C1270.4781,-190.8588 1273.6591,-190.4178 1276.7602,-190 1412.0344,-171.7736 1447.4652,-178.4166 1581.7602,-154 1587.6045,-152.9374 1593.6452,-151.7099 1599.6862,-150.3926"/>
<polygon fill="#191970" stroke="#191970" points="1600.8351,-153.7213 1609.8182,-148.1041 1599.2928,-146.8933 1600.8351,-153.7213"/>
</g>
<!-- Node39 -->
<g id="node27" class="node">
<title>Node39</title>
<polygon fill="#ffffff" stroke="#bfbfbf" points="1761.2602,-123.5 1761.2602,-142.5 1910.2602,-142.5 1910.2602,-123.5 1761.2602,-123.5"/>
<text text-anchor="middle" x="1835.7602" y="-130.5" font-family="Helvetica,sans-Serif" font-size="10.00" fill="#000000">CGAL/point_generators_3.h</text>
</g>
<!-- Node51&#45;&gt;Node39 -->
<g id="edge30" class="edge">
<title>Node51&#45;&gt;Node39</title>
<path fill="none" stroke="#191970" d="M1267.6061,-191.1113C1270.6996,-190.7137 1273.7662,-190.3398 1276.7602,-190 1487.1263,-166.1252 1542.7583,-187.7955 1751.7602,-154 1765.3591,-151.8011 1779.986,-148.4854 1793.1623,-145.1344"/>
<polygon fill="#191970" stroke="#191970" points="1794.1261,-148.5001 1802.9145,-142.5828 1792.3542,-141.728 1794.1261,-148.5001"/>
</g>
<!-- Node14 -->
<g id="node28" class="node">
<title>Node14</title>
<g id="a_node28"><a xlink:href="_utilities_8hpp.html" target="_top" xlink:title="Utility functions. ">
<polygon fill="#ffffff" stroke="#ff0000" points="896.7602,-123.5 896.7602,-142.5 972.7602,-142.5 972.7602,-123.5 896.7602,-123.5"/>
<text text-anchor="middle" x="934.7602" y="-130.5" font-family="Helvetica,sans-Serif" font-size="10.00" fill="#000000">Utilities.hpp</text>
</a>
</g>
</g>
<!-- Node51&#45;&gt;Node14 -->
<g id="edge31" class="edge">
<title>Node51&#45;&gt;Node14</title>
<path fill="none" stroke="#191970" d="M1153.9002,-191.2563C1108.1954,-183.5297 1042.6296,-170.8658 986.7602,-154 979.809,-151.9016 972.4947,-149.2436 965.6188,-146.5301"/>
<polygon fill="#191970" stroke="#191970" points="966.5325,-143.1223 955.9519,-142.5735 963.881,-149.6007 966.5325,-143.1223"/>
</g>
<!-- Node18 -->
<g id="node32" class="node">
<title>Node18</title>
<polygon fill="#ffffff" stroke="#bfbfbf" points="1904.7602,-56.5 1904.7602,-75.5 1968.7602,-75.5 1968.7602,-56.5 1904.7602,-56.5"/>
<text text-anchor="middle" x="1936.7602" y="-63.5" font-family="Helvetica,sans-Serif" font-size="10.00" fill="#000000">algorithm</text>
</g>
<!-- Node51&#45;&gt;Node18 -->
<g id="edge50" class="edge">
<title>Node51&#45;&gt;Node18</title>
<path fill="none" stroke="#191970" d="M1267.5983,-191.0398C1270.6939,-190.6606 1273.763,-190.3103 1276.7602,-190 1347.9362,-182.632 1865.867,-201.0726 1919.7602,-154 1938.8444,-137.3311 1940.5281,-106.2608 1939.2264,-85.8557"/>
<polygon fill="#191970" stroke="#191970" points="1942.7,-85.4083 1938.2877,-75.776 1935.7302,-86.0575 1942.7,-85.4083"/>
</g>
<!-- Node26 -->
<g id="node40" class="node">
<title>Node26</title>
<polygon fill="#ffffff" stroke="#bfbfbf" points="1819.2602,-56.5 1819.2602,-75.5 1884.2602,-75.5 1884.2602,-56.5 1819.2602,-56.5"/>
<text text-anchor="middle" x="1851.7602" y="-63.5" font-family="Helvetica,sans-Serif" font-size="10.00" fill="#000000">stdexcept</text>
</g>
<!-- Node51&#45;&gt;Node26 -->
<g id="edge53" class="edge">
<title>Node51&#45;&gt;Node26</title>
<path fill="none" stroke="#191970" d="M1153.928,-193.9503C1104.1027,-187.3354 1037.1292,-174.805 1020.7602,-154 1009.2178,-139.3297 1007.8652,-125.4968 1020.7602,-112 1049.7991,-81.6059 1707.4476,-82.0137 1808.8312,-75.3699"/>
<polygon fill="#191970" stroke="#191970" points="1809.2175,-78.8493 1818.8569,-74.4524 1808.5796,-71.8784 1809.2175,-78.8493"/>
</g>
<!-- Node51&#45;&gt;Node52 -->
<g id="edge52" class="edge">
<title>Node51&#45;&gt;Node52</title>
<path fill="none" stroke="#191970" d="M1267.5973,-191.0302C1270.6932,-190.6535 1273.7626,-190.3063 1276.7602,-190 1426.1953,-174.7306 1809.75,-202.9603 1951.7602,-154 1955.6388,-152.6628 1959.4682,-150.6654 1963.0269,-148.4255"/>
<polygon fill="#191970" stroke="#191970" points="1965.0852,-151.2565 1971.1887,-142.5963 1961.0169,-145.5601 1965.0852,-151.2565"/>
</g>
<!-- Node53 -->
<g id="node47" class="node">
<title>Node53</title>
<polygon fill="#ffffff" stroke="#bfbfbf" points="1029.2602,-123.5 1029.2602,-142.5 1070.2602,-142.5 1070.2602,-123.5 1029.2602,-123.5"/>
<text text-anchor="middle" x="1049.7602" y="-130.5" font-family="Helvetica,sans-Serif" font-size="10.00" fill="#000000">tuple</text>
</g>
<!-- Node51&#45;&gt;Node53 -->
<g id="edge54" class="edge">
<title>Node51&#45;&gt;Node53</title>
<path fill="none" stroke="#191970" d="M1175.4901,-190.4743C1148.4907,-182.5107 1110.7476,-169.9051 1079.7602,-154 1076.5521,-152.3534 1073.293,-150.4056 1070.1629,-148.3709"/>
<polygon fill="#191970" stroke="#191970" points="1072.0422,-145.4148 1061.8325,-142.5842 1068.0487,-151.1639 1072.0422,-145.4148"/>
</g>
<!-- Node51&#45;&gt;Node54 -->
<g id="edge56" class="edge">
<title>Node51&#45;&gt;Node54</title>
<path fill="none" stroke="#191970" d="M1267.5958,-191.0157C1270.6921,-190.6427 1273.762,-190.3003 1276.7602,-190 1438.371,-173.8137 1851.9841,-203.2383 2006.7602,-154 2011.0555,-152.6336 2015.3419,-150.564 2019.3352,-148.2477"/>
<polygon fill="#191970" stroke="#191970" points="2021.5196,-151.0018 2027.9874,-142.6102 2017.6982,-145.1369 2021.5196,-151.0018"/>
</g>
<!-- Node14&#45;&gt;Node33 -->
<g id="edge49" class="edge">
<title>Node14&#45;&gt;Node33</title>
<path fill="none" stroke="#191970" d="M896.7472,-130.9355C802.0155,-125.4733 547.7103,-108.8641 325.6794,-75.9803"/>
<polygon fill="#191970" stroke="#191970" points="325.8733,-72.4705 315.4656,-74.4526 324.8378,-79.3935 325.8733,-72.4705"/>
</g>
<!-- Node15 -->
<g id="node29" class="node">
<title>Node15</title>
<polygon fill="#ffffff" stroke="#bfbfbf" points="1198.2602,-56.5 1198.2602,-75.5 1281.2602,-75.5 1281.2602,-56.5 1198.2602,-56.5"/>
<text text-anchor="middle" x="1239.7602" y="-63.5" font-family="Helvetica,sans-Serif" font-size="10.00" fill="#000000">CGAL/Timer.h</text>
</g>
<!-- Node14&#45;&gt;Node15 -->
<g id="edge32" class="edge">
<title>Node14&#45;&gt;Node15</title>
<path fill="none" stroke="#191970" d="M955.6612,-123.3987C965.0161,-119.4058 976.2793,-115.01 986.7602,-112 1071.7339,-87.5961 1097.8904,-92.5836 1187.9289,-76.2855"/>
<polygon fill="#191970" stroke="#191970" points="1188.8351,-79.6773 1198.0316,-74.4167 1187.5617,-72.7941 1188.8351,-79.6773"/>
</g>
<!-- Node16 -->
<g id="node30" class="node">
<title>Node16</title>
<polygon fill="#ffffff" stroke="#bfbfbf" points="1299.7602,-56.5 1299.7602,-75.5 1387.7602,-75.5 1387.7602,-56.5 1299.7602,-56.5"/>
<text text-anchor="middle" x="1343.7602" y="-63.5" font-family="Helvetica,sans-Serif" font-size="10.00" fill="#000000">sys/utsname.h</text>
</g>
<!-- Node14&#45;&gt;Node16 -->
<g id="edge33" class="edge">
<title>Node14&#45;&gt;Node16</title>
<path fill="none" stroke="#191970" d="M955.0845,-123.3272C964.5206,-119.2208 976.0083,-114.7551 986.7602,-112 1115.4683,-79.0196 1154.4576,-95.7913 1289.65,-76.0607"/>
<polygon fill="#191970" stroke="#191970" points="1290.1823,-79.5201 1299.5527,-74.5758 1289.1442,-72.5975 1290.1823,-79.5201"/>
</g>
<!-- Node17 -->
<g id="node31" class="node">
<title>Node17</title>
<polygon fill="#ffffff" stroke="#bfbfbf" points="1406.2602,-56.5 1406.2602,-75.5 1523.2602,-75.5 1523.2602,-56.5 1406.2602,-56.5"/>
<text text-anchor="middle" x="1464.7602" y="-63.5" font-family="Helvetica,sans-Serif" font-size="10.00" fill="#000000">boost/date_time.hpp</text>
</g>
<!-- Node14&#45;&gt;Node17 -->
<g id="edge34" class="edge">
<title>Node14&#45;&gt;Node17</title>
<path fill="none" stroke="#191970" d="M954.5528,-123.3941C964.0722,-119.1964 975.7785,-114.6374 986.7602,-112 1161.4994,-70.0341 1213.2699,-96.3525 1396.2349,-75.9753"/>
<polygon fill="#191970" stroke="#191970" points="1396.6468,-79.4511 1406.1836,-74.836 1395.8503,-72.4966 1396.6468,-79.4511"/>
</g>
<!-- Node14&#45;&gt;Node18 -->
<g id="edge35" class="edge">
<title>Node14&#45;&gt;Node18</title>
<path fill="none" stroke="#191970" d="M967.1344,-123.4838C983.1281,-119.1971 1002.8028,-114.5371 1020.7602,-112 1405.2712,-57.6742 1508.9561,-128.2097 1893.7602,-76 1893.9785,-75.9704 1894.1974,-75.9402 1894.4168,-75.9094"/>
<polygon fill="#191970" stroke="#191970" points="1895.2113,-79.3244 1904.4791,-74.1905 1894.0325,-72.4244 1895.2113,-79.3244"/>
</g>
<!-- Node19 -->
<g id="node33" class="node">
<title>Node19</title>
<polygon fill="#ffffff" stroke="#bfbfbf" points="1541.7602,-56.5 1541.7602,-75.5 1593.7602,-75.5 1593.7602,-56.5 1541.7602,-56.5"/>
<text text-anchor="middle" x="1567.7602" y="-63.5" font-family="Helvetica,sans-Serif" font-size="10.00" fill="#000000">cassert</text>
</g>
<!-- Node14&#45;&gt;Node19 -->
<g id="edge36" class="edge">
<title>Node14&#45;&gt;Node19</title>
<path fill="none" stroke="#191970" d="M954.5276,-123.2868C964.0416,-119.0657 975.7505,-114.5179 986.7602,-112 1220.5919,-58.5239 1291.231,-116.0245 1531.4386,-75.8693"/>
<polygon fill="#191970" stroke="#191970" points="1532.2599,-79.2797 1541.526,-74.1426 1531.0789,-72.38 1532.2599,-79.2797"/>
</g>
<!-- Node20 -->
<g id="node34" class="node">
<title>Node20</title>
<polygon fill="#ffffff" stroke="#bfbfbf" points="1612.2602,-56.5 1612.2602,-75.5 1661.2602,-75.5 1661.2602,-56.5 1612.2602,-56.5"/>
<text text-anchor="middle" x="1636.7602" y="-63.5" font-family="Helvetica,sans-Serif" font-size="10.00" fill="#000000">cstdlib</text>
</g>
<!-- Node14&#45;&gt;Node20 -->
<g id="edge37" class="edge">
<title>Node14&#45;&gt;Node20</title>
<path fill="none" stroke="#191970" d="M954.0292,-123.4684C963.6274,-119.178 975.5512,-114.5195 986.7602,-112 1251.0631,-52.5924 1330.6335,-121.2783 1601.8873,-75.7222"/>
<polygon fill="#191970" stroke="#191970" points="1602.7687,-79.1222 1612.0322,-73.9805 1601.5842,-72.2232 1602.7687,-79.1222"/>
</g>
<!-- Node21 -->
<g id="node35" class="node">
<title>Node21</title>
<polygon fill="#ffffff" stroke="#bfbfbf" points="1679.2602,-56.5 1679.2602,-75.5 1734.2602,-75.5 1734.2602,-56.5 1679.2602,-56.5"/>
<text text-anchor="middle" x="1706.7602" y="-63.5" font-family="Helvetica,sans-Serif" font-size="10.00" fill="#000000">fstream</text>
</g>
<!-- Node14&#45;&gt;Node21 -->
<g id="edge38" class="edge">
<title>Node14&#45;&gt;Node21</title>
<path fill="none" stroke="#191970" d="M954.0229,-123.4401C963.6196,-119.143 975.5439,-114.487 986.7602,-112 1280.625,-46.8412 1368.3476,-123.2756 1668.6699,-76.0194"/>
<polygon fill="#191970" stroke="#191970" points="1669.6683,-79.4039 1678.986,-74.361 1668.5572,-72.4927 1669.6683,-79.4039"/>
</g>
<!-- Node22 -->
<g id="node36" class="node">
<title>Node22</title>
<polygon fill="#ffffff" stroke="#bfbfbf" points="1752.7602,-56.5 1752.7602,-75.5 1800.7602,-75.5 1800.7602,-56.5 1752.7602,-56.5"/>
<text text-anchor="middle" x="1776.7602" y="-63.5" font-family="Helvetica,sans-Serif" font-size="10.00" fill="#000000">gsl/gsl</text>
</g>
<!-- Node14&#45;&gt;Node22 -->
<g id="edge39" class="edge">
<title>Node14&#45;&gt;Node22</title>
<path fill="none" stroke="#191970" d="M954.0175,-123.4153C963.6128,-119.1124 975.5377,-114.4586 986.7602,-112 1312.5687,-40.6231 1409.9427,-131.4685 1742.5054,-75.7995"/>
<polygon fill="#191970" stroke="#191970" points="1743.1445,-79.2411 1752.4136,-74.1094 1741.9674,-72.3408 1743.1445,-79.2411"/>
</g>
<!-- Node23 -->
<g id="node37" class="node">
<title>Node23</title>
<polygon fill="#ffffff" stroke="#bfbfbf" points="545.7602,-56.5 545.7602,-75.5 605.7602,-75.5 605.7602,-56.5 545.7602,-56.5"/>
<text text-anchor="middle" x="575.7602" y="-63.5" font-family="Helvetica,sans-Serif" font-size="10.00" fill="#000000">iostream</text>
</g>
<!-- Node14&#45;&gt;Node23 -->
<g id="edge40" class="edge">
<title>Node14&#45;&gt;Node23</title>
<path fill="none" stroke="#191970" d="M896.65,-127.157C838.3141,-118.0072 723.198,-99.1416 615.9594,-76.1419"/>
<polygon fill="#191970" stroke="#191970" points="616.4547,-72.6682 605.9409,-73.976 614.9754,-79.5102 616.4547,-72.6682"/>
</g>
<!-- Node24 -->
<g id="node38" class="node">
<title>Node24</title>
<polygon fill="#ffffff" stroke="#bfbfbf" points="623.7602,-56.5 623.7602,-75.5 671.7602,-75.5 671.7602,-56.5 623.7602,-56.5"/>
<text text-anchor="middle" x="647.7602" y="-63.5" font-family="Helvetica,sans-Serif" font-size="10.00" fill="#000000">mutex</text>
</g>
<!-- Node14&#45;&gt;Node24 -->
<g id="edge41" class="edge">
<title>Node14&#45;&gt;Node24</title>
<path fill="none" stroke="#191970" d="M896.6805,-125.3658C848.7659,-115.5601 763.7761,-97.507 681.8284,-76.1451"/>
<polygon fill="#191970" stroke="#191970" points="682.4137,-72.6801 671.8525,-73.5239 680.6348,-79.4503 682.4137,-72.6801"/>
</g>
<!-- Node25 -->
<g id="node39" class="node">
<title>Node25</title>
<polygon fill="#ffffff" stroke="#bfbfbf" points="689.7602,-56.5 689.7602,-75.5 743.7602,-75.5 743.7602,-56.5 689.7602,-56.5"/>
<text text-anchor="middle" x="716.7602" y="-63.5" font-family="Helvetica,sans-Serif" font-size="10.00" fill="#000000">random</text>
</g>
<!-- Node14&#45;&gt;Node25 -->
<g id="edge42" class="edge">
<title>Node14&#45;&gt;Node25</title>
<path fill="none" stroke="#191970" d="M903.5261,-123.4005C863.8521,-111.2072 795.4975,-90.1991 753.4022,-77.2615"/>
<polygon fill="#191970" stroke="#191970" points="754.3996,-73.9066 743.8126,-74.3143 752.3431,-80.5977 754.3996,-73.9066"/>
</g>
<!-- Node14&#45;&gt;Node26 -->
<g id="edge43" class="edge">
<title>Node14&#45;&gt;Node26</title>
<path fill="none" stroke="#191970" d="M954.0134,-123.3967C963.6078,-119.0894 975.533,-114.4372 986.7602,-112 1341.3222,-35.0307 1445.2758,-124.976 1808.8501,-75.8371"/>
<polygon fill="#191970" stroke="#191970" points="1809.429,-79.2905 1818.8578,-74.4584 1808.4737,-72.356 1809.429,-79.2905"/>
</g>
<!-- Node27 -->
<g id="node41" class="node">
<title>Node27</title>
<polygon fill="#ffffff" stroke="#bfbfbf" points="761.7602,-56.5 761.7602,-75.5 805.7602,-75.5 805.7602,-56.5 761.7602,-56.5"/>
<text text-anchor="middle" x="783.7602" y="-63.5" font-family="Helvetica,sans-Serif" font-size="10.00" fill="#000000">string</text>
</g>
<!-- Node14&#45;&gt;Node27 -->
<g id="edge44" class="edge">
<title>Node14&#45;&gt;Node27</title>
<path fill="none" stroke="#191970" d="M913.1256,-123.4005C887.3358,-111.9574 844.0496,-92.7509 814.7205,-79.7374"/>
<polygon fill="#191970" stroke="#191970" points="815.9148,-76.4383 805.3547,-75.5817 813.0757,-82.8367 815.9148,-76.4383"/>
</g>
<!-- Node28 -->
<g id="node42" class="node">
<title>Node28</title>
<polygon fill="#ffffff" stroke="#bfbfbf" points="824.2602,-56.5 824.2602,-75.5 889.2602,-75.5 889.2602,-56.5 824.2602,-56.5"/>
<text text-anchor="middle" x="856.7602" y="-63.5" font-family="Helvetica,sans-Serif" font-size="10.00" fill="#000000">typeindex</text>
</g>
<!-- Node14&#45;&gt;Node28 -->
<g id="edge45" class="edge">
<title>Node14&#45;&gt;Node28</title>
<path fill="none" stroke="#191970" d="M923.5847,-123.4005C911.0737,-112.6539 890.5916,-95.0603 875.596,-82.1794"/>
<polygon fill="#191970" stroke="#191970" points="877.7813,-79.4426 867.9149,-75.5817 873.2201,-84.7526 877.7813,-79.4426"/>
</g>
<!-- Node29 -->
<g id="node43" class="node">
<title>Node29</title>
<polygon fill="#ffffff" stroke="#bfbfbf" points="907.2602,-56.5 907.2602,-75.5 966.2602,-75.5 966.2602,-56.5 907.2602,-56.5"/>
<text text-anchor="middle" x="936.7602" y="-63.5" font-family="Helvetica,sans-Serif" font-size="10.00" fill="#000000">date/tz.h</text>
</g>
<!-- Node14&#45;&gt;Node29 -->
<g id="edge46" class="edge">
<title>Node14&#45;&gt;Node29</title>
<path fill="none" stroke="#191970" d="M935.0467,-123.4005C935.3378,-113.649 935.7972,-98.2597 936.1671,-85.8695"/>
<polygon fill="#191970" stroke="#191970" points="939.6741,-85.6817 936.4742,-75.5817 932.6773,-85.4727 939.6741,-85.6817"/>
</g>
<!-- Node30 -->
<g id="node44" class="node">
<title>Node30</title>
<polygon fill="#ffffff" stroke="#bfbfbf" points="984.7602,-56.5 984.7602,-75.5 1082.7602,-75.5 1082.7602,-56.5 984.7602,-56.5"/>
<text text-anchor="middle" x="1033.7602" y="-63.5" font-family="Helvetica,sans-Serif" font-size="10.00" fill="#000000">pcg_random.hpp</text>
</g>
<!-- Node14&#45;&gt;Node30 -->
<g id="edge47" class="edge">
<title>Node14&#45;&gt;Node30</title>
<path fill="none" stroke="#191970" d="M948.9445,-123.4005C965.1913,-112.4052 992.0292,-94.2422 1011.1636,-81.2927"/>
<polygon fill="#191970" stroke="#191970" points="1013.2822,-84.0851 1019.6022,-75.5817 1009.3588,-78.2879 1013.2822,-84.0851"/>
</g>
<!-- Node31 -->
<g id="node45" class="node">
<title>Node31</title>
<polygon fill="#ffffff" stroke="#bfbfbf" points="1101.2602,-56.5 1101.2602,-75.5 1180.2602,-75.5 1180.2602,-56.5 1101.2602,-56.5"/>
<text text-anchor="middle" x="1140.7602" y="-63.5" font-family="Helvetica,sans-Serif" font-size="10.00" fill="#000000">fmt/format.h</text>
</g>
<!-- Node14&#45;&gt;Node31 -->
<g id="edge48" class="edge">
<title>Node14&#45;&gt;Node31</title>
<path fill="none" stroke="#191970" d="M957.1096,-123.4404C966.2313,-119.679 976.9286,-115.4451 986.7602,-112 1022.8401,-99.3572 1064.4119,-87.071 1095.2622,-78.3811"/>
<polygon fill="#191970" stroke="#191970" points="1096.6023,-81.6407 1105.2901,-75.5767 1094.7169,-74.8994 1096.6023,-81.6407"/>
</g>
</g>
</svg>
