<?xml version="1.0" encoding="UTF-8" standalone="no"?>
<!DOCTYPE svg PUBLIC "-//W3C//DTD SVG 1.1//EN"
 "http://www.w3.org/Graphics/SVG/1.1/DTD/svg11.dtd">
<!-- Generated by graphviz version 2.43.0 (0)
 -->
<!-- Title: src/cdt&#45;opt.cpp Pages: 1 -->
<svg width="2706pt" height="666pt"
 viewBox="0.00 0.00 2706.00 666.00" xmlns="http://www.w3.org/2000/svg" xmlns:xlink="http://www.w3.org/1999/xlink">
<g id="graph0" class="graph" transform="scale(1 1) rotate(0) translate(4 662)">
<title>src/cdt&#45;opt.cpp</title>
<polygon fill="white" stroke="transparent" points="-4,4 -4,-662 2702,-662 2702,4 -4,4"/>
<!-- Node1 -->
<g id="node1" class="node">
<title>Node1</title>
<g id="a_node1"><a xlink:title="Outputs values to determine optimizations.">
<polygon fill="#bfbfbf" stroke="black" points="1393.5,-638.5 1393.5,-657.5 1482.5,-657.5 1482.5,-638.5 1393.5,-638.5"/>
<text text-anchor="middle" x="1438" y="-645.5" font-family="Helvetica,sans-Serif" font-size="10.00">src/cdt&#45;opt.cpp</text>
</a>
</g>
</g>
<!-- Node2 -->
<g id="node2" class="node">
<title>Node2</title>
<g id="a_node2"><a xlink:href="_metropolis_8hpp.html" target="_top" xlink:title="Perform Metropolis&#45;Hastings algorithm on Delaunay Triangulations.">
<polygon fill="white" stroke="black" points="1451.5,-582.5 1451.5,-601.5 1540.5,-601.5 1540.5,-582.5 1451.5,-582.5"/>
<text text-anchor="middle" x="1496" y="-589.5" font-family="Helvetica,sans-Serif" font-size="10.00">Metropolis.hpp</text>
</a>
</g>
</g>
<!-- Node1&#45;&gt;Node2 -->
<g id="edge1" class="edge">
<title>Node1&#45;&gt;Node2</title>
<path fill="none" stroke="midnightblue" d="M1447.32,-638.32C1455.89,-630.34 1468.81,-618.31 1479.19,-608.65"/>
<polygon fill="midnightblue" stroke="midnightblue" points="1481.58,-611.21 1486.51,-601.83 1476.81,-606.09 1481.58,-611.21"/>
</g>
<!-- Node51 -->
<g id="node50" class="node">
<title>Node51</title>
<g id="a_node50"><a xlink:href="_move__always_8hpp.html" target="_top" xlink:title="Randomly selects moves to always perform on triangulations.">
<polygon fill="white" stroke="black" points="1329,-582.5 1329,-601.5 1433,-601.5 1433,-582.5 1329,-582.5"/>
<text text-anchor="middle" x="1381" y="-589.5" font-family="Helvetica,sans-Serif" font-size="10.00">Move_always.hpp</text>
</a>
</g>
</g>
<!-- Node1&#45;&gt;Node51 -->
<g id="edge53" class="edge">
<title>Node1&#45;&gt;Node51</title>
<path fill="none" stroke="midnightblue" d="M1428.84,-638.32C1420.5,-630.42 1407.97,-618.55 1397.82,-608.94"/>
<polygon fill="midnightblue" stroke="midnightblue" points="1399.99,-606.17 1390.32,-601.83 1395.18,-611.25 1399.99,-606.17"/>
</g>
<!-- Node3 -->
<g id="node3" class="node">
<title>Node3</title>
<g id="a_node3"><a xlink:href="_move__strategy_8hpp.html" target="_top" xlink:title="Template class for move algorithms (strategies) on manifolds.">
<polygon fill="white" stroke="black" points="1326.5,-526.5 1326.5,-545.5 1435.5,-545.5 1435.5,-526.5 1326.5,-526.5"/>
<text text-anchor="middle" x="1381" y="-533.5" font-family="Helvetica,sans-Serif" font-size="10.00">Move_strategy.hpp</text>
</a>
</g>
</g>
<!-- Node2&#45;&gt;Node3 -->
<g id="edge2" class="edge">
<title>Node2&#45;&gt;Node3</title>
<path fill="none" stroke="midnightblue" d="M1477.78,-582.44C1459.1,-573.68 1429.84,-559.94 1408.38,-549.86"/>
<polygon fill="midnightblue" stroke="midnightblue" points="1409.68,-546.6 1399.14,-545.52 1406.7,-552.93 1409.68,-546.6"/>
</g>
<!-- Node48 -->
<g id="node47" class="node">
<title>Node48</title>
<g id="a_node47"><a xlink:href="_s3_action_8hpp.html" target="_top" xlink:title="Calculate S3 bulk actions on 3D Delaunay Triangulations.">
<polygon fill="white" stroke="black" points="1478,-526.5 1478,-545.5 1558,-545.5 1558,-526.5 1478,-526.5"/>
<text text-anchor="middle" x="1518" y="-533.5" font-family="Helvetica,sans-Serif" font-size="10.00">S3Action.hpp</text>
</a>
</g>
</g>
<!-- Node2&#45;&gt;Node48 -->
<g id="edge49" class="edge">
<title>Node2&#45;&gt;Node48</title>
<path fill="none" stroke="midnightblue" d="M1499.63,-582.08C1502.61,-574.77 1506.93,-564.18 1510.62,-555.1"/>
<polygon fill="midnightblue" stroke="midnightblue" points="1513.9,-556.33 1514.43,-545.75 1507.42,-553.69 1513.9,-556.33"/>
</g>
<!-- Node4 -->
<g id="node4" class="node">
<title>Node4</title>
<g id="a_node4"><a xlink:href="_move__command_8hpp.html" target="_top" xlink:title="Do ergodic moves using the Command pattern.">
<polygon fill="white" stroke="black" points="1296.5,-470.5 1296.5,-489.5 1415.5,-489.5 1415.5,-470.5 1296.5,-470.5"/>
<text text-anchor="middle" x="1356" y="-477.5" font-family="Helvetica,sans-Serif" font-size="10.00">Move_command.hpp</text>
</a>
</g>
</g>
<!-- Node3&#45;&gt;Node4 -->
<g id="edge3" class="edge">
<title>Node3&#45;&gt;Node4</title>
<path fill="none" stroke="midnightblue" d="M1376.87,-526.08C1373.49,-518.77 1368.58,-508.18 1364.38,-499.1"/>
<polygon fill="midnightblue" stroke="midnightblue" points="1367.43,-497.36 1360.05,-489.75 1361.08,-500.3 1367.43,-497.36"/>
</g>
<!-- Node5 -->
<g id="node5" class="node">
<title>Node5</title>
<g id="a_node5"><a xlink:href="_apply__move_8hpp.html" target="_top" xlink:title="Apply Pachner moves to foliated Delaunay triangulations.">
<polygon fill="white" stroke="black" points="1117,-414.5 1117,-433.5 1215,-433.5 1215,-414.5 1117,-414.5"/>
<text text-anchor="middle" x="1166" y="-421.5" font-family="Helvetica,sans-Serif" font-size="10.00">Apply_move.hpp</text>
</a>
</g>
</g>
<!-- Node4&#45;&gt;Node5 -->
<g id="edge4" class="edge">
<title>Node4&#45;&gt;Node5</title>
<path fill="none" stroke="midnightblue" d="M1325.89,-470.44C1293.37,-461.2 1241.42,-446.44 1205.61,-436.26"/>
<polygon fill="midnightblue" stroke="midnightblue" points="1206.54,-432.88 1195.97,-433.52 1204.63,-439.62 1206.54,-432.88"/>
</g>
<!-- Node10 -->
<g id="node10" class="node">
<title>Node10</title>
<g id="a_node10"><a xlink:href="_ergodic__moves__3_8hpp.html" target="_top" xlink:title="Pachner moves on 2+1 dimensional foliated Delaunay triangulations.">
<polygon fill="white" stroke="black" points="1294.5,-414.5 1294.5,-433.5 1417.5,-433.5 1417.5,-414.5 1294.5,-414.5"/>
<text text-anchor="middle" x="1356" y="-421.5" font-family="Helvetica,sans-Serif" font-size="10.00">Ergodic_moves_3.hpp</text>
</a>
</g>
</g>
<!-- Node4&#45;&gt;Node10 -->
<g id="edge9" class="edge">
<title>Node4&#45;&gt;Node10</title>
<path fill="none" stroke="midnightblue" d="M1356,-470.08C1356,-463.01 1356,-452.86 1356,-443.99"/>
<polygon fill="midnightblue" stroke="midnightblue" points="1359.5,-443.75 1356,-433.75 1352.5,-443.75 1359.5,-443.75"/>
</g>
<!-- Node6 -->
<g id="node6" class="node">
<title>Node6</title>
<g id="a_node6"><a xlink:title=" ">
<polygon fill="white" stroke="#bfbfbf" points="1030.5,-358.5 1030.5,-377.5 1095.5,-377.5 1095.5,-358.5 1030.5,-358.5"/>
<text text-anchor="middle" x="1063" y="-365.5" font-family="Helvetica,sans-Serif" font-size="10.00">functional</text>
</a>
</g>
</g>
<!-- Node5&#45;&gt;Node6 -->
<g id="edge5" class="edge">
<title>Node5&#45;&gt;Node6</title>
<path fill="none" stroke="midnightblue" d="M1149.45,-414.32C1133.01,-405.7 1107.57,-392.36 1088.53,-382.39"/>
<polygon fill="midnightblue" stroke="midnightblue" points="1089.99,-379.2 1079.51,-377.65 1086.74,-385.4 1089.99,-379.2"/>
</g>
<!-- Node7 -->
<g id="node7" class="node">
<title>Node7</title>
<g id="a_node7"><a xlink:title=" ">
<polygon fill="white" stroke="#bfbfbf" points="0,-67.5 0,-86.5 44,-86.5 44,-67.5 0,-67.5"/>
<text text-anchor="middle" x="22" y="-74.5" font-family="Helvetica,sans-Serif" font-size="10.00">string</text>
</a>
</g>
</g>
<!-- Node5&#45;&gt;Node7 -->
<g id="edge6" class="edge">
<title>Node5&#45;&gt;Node7</title>
<path fill="none" stroke="midnightblue" d="M1116.92,-423.58C981.59,-423.88 613,-415.29 613,-313 613,-313 613,-313 613,-199 613,-72.55 170.63,-144.4 53,-98 49.09,-96.46 45.15,-94.39 41.45,-92.17"/>
<polygon fill="midnightblue" stroke="midnightblue" points="43.18,-89.12 32.9,-86.55 39.33,-94.97 43.18,-89.12"/>
</g>
<!-- Node8 -->
<g id="node8" class="node">
<title>Node8</title>
<g id="a_node8"><a xlink:title=" ">
<polygon fill="white" stroke="#bfbfbf" points="1237,-358.5 1237,-377.5 1329,-377.5 1329,-358.5 1237,-358.5"/>
<text text-anchor="middle" x="1283" y="-365.5" font-family="Helvetica,sans-Serif" font-size="10.00">tl/expected.hpp</text>
</a>
</g>
</g>
<!-- Node5&#45;&gt;Node8 -->
<g id="edge7" class="edge">
<title>Node5&#45;&gt;Node8</title>
<path fill="none" stroke="midnightblue" d="M1184.54,-414.44C1203.62,-405.64 1233.57,-391.81 1255.44,-381.72"/>
<polygon fill="midnightblue" stroke="midnightblue" points="1256.93,-384.88 1264.55,-377.52 1254,-378.53 1256.93,-384.88"/>
</g>
<!-- Node9 -->
<g id="node9" class="node">
<title>Node9</title>
<g id="a_node9"><a xlink:title=" ">
<polygon fill="white" stroke="#bfbfbf" points="1113.5,-358.5 1113.5,-377.5 1218.5,-377.5 1218.5,-358.5 1113.5,-358.5"/>
<text text-anchor="middle" x="1166" y="-365.5" font-family="Helvetica,sans-Serif" font-size="10.00">tl/function_ref.hpp</text>
</a>
</g>
</g>
<!-- Node5&#45;&gt;Node9 -->
<g id="edge8" class="edge">
<title>Node5&#45;&gt;Node9</title>
<path fill="none" stroke="midnightblue" d="M1166,-414.08C1166,-407.01 1166,-396.86 1166,-387.99"/>
<polygon fill="midnightblue" stroke="midnightblue" points="1169.5,-387.75 1166,-377.75 1162.5,-387.75 1169.5,-387.75"/>
</g>
<!-- Node10&#45;&gt;Node8 -->
<g id="edge48" class="edge">
<title>Node10&#45;&gt;Node8</title>
<path fill="none" stroke="midnightblue" d="M1344.27,-414.32C1333.16,-406.11 1316.26,-393.6 1303.02,-383.81"/>
<polygon fill="midnightblue" stroke="midnightblue" points="1305.06,-380.97 1294.94,-377.83 1300.9,-386.59 1305.06,-380.97"/>
</g>
<!-- Node11 -->
<g id="node11" class="node">
<title>Node11</title>
<g id="a_node11"><a xlink:href="_move__tracker_8hpp.html" target="_top" xlink:title="Track ergodic moves.">
<polygon fill="white" stroke="black" points="1347.5,-358.5 1347.5,-377.5 1450.5,-377.5 1450.5,-358.5 1347.5,-358.5"/>
<text text-anchor="middle" x="1399" y="-365.5" font-family="Helvetica,sans-Serif" font-size="10.00">Move_tracker.hpp</text>
</a>
</g>
</g>
<!-- Node10&#45;&gt;Node11 -->
<g id="edge10" class="edge">
<title>Node10&#45;&gt;Node11</title>
<path fill="none" stroke="midnightblue" d="M1363.1,-414.08C1369.24,-406.38 1378.27,-395.03 1385.74,-385.65"/>
<polygon fill="midnightblue" stroke="midnightblue" points="1388.54,-387.75 1392.03,-377.75 1383.06,-383.39 1388.54,-387.75"/>
</g>
<!-- Node12 -->
<g id="node12" class="node">
<title>Node12</title>
<g id="a_node12"><a xlink:href="_manifold_8hpp.html" target="_top" xlink:title="Data structures for manifolds.">
<polygon fill="white" stroke="black" points="1359,-302.5 1359,-321.5 1439,-321.5 1439,-302.5 1359,-302.5"/>
<text text-anchor="middle" x="1399" y="-309.5" font-family="Helvetica,sans-Serif" font-size="10.00">Manifold.hpp</text>
</a>
</g>
</g>
<!-- Node11&#45;&gt;Node12 -->
<g id="edge11" class="edge">
<title>Node11&#45;&gt;Node12</title>
<path fill="none" stroke="midnightblue" d="M1399,-358.08C1399,-351.01 1399,-340.86 1399,-331.99"/>
<polygon fill="midnightblue" stroke="midnightblue" points="1402.5,-331.75 1399,-321.75 1395.5,-331.75 1402.5,-331.75"/>
</g>
<!-- Node13 -->
<g id="node13" class="node">
<title>Node13</title>
<g id="a_node13"><a xlink:href="_geometry_8hpp.html" target="_top" xlink:title="Geometric quantities of Manifold used by MoveAlgorithm.">
<polygon fill="white" stroke="black" points="1210.5,-246.5 1210.5,-265.5 1295.5,-265.5 1295.5,-246.5 1210.5,-246.5"/>
<text text-anchor="middle" x="1253" y="-253.5" font-family="Helvetica,sans-Serif" font-size="10.00">Geometry.hpp</text>
</a>
</g>
</g>
<!-- Node12&#45;&gt;Node13 -->
<g id="edge12" class="edge">
<title>Node12&#45;&gt;Node13</title>
<path fill="none" stroke="midnightblue" d="M1375.87,-302.44C1351.52,-293.44 1312.99,-279.19 1285.58,-269.05"/>
<polygon fill="midnightblue" stroke="midnightblue" points="1286.62,-265.7 1276.03,-265.52 1284.19,-272.27 1286.62,-265.7"/>
</g>
<!-- Node45 -->
<g id="node44" class="node">
<title>Node45</title>
<g id="a_node44"><a xlink:title=" ">
<polygon fill="white" stroke="#bfbfbf" points="1481.5,-246.5 1481.5,-265.5 1534.5,-265.5 1534.5,-246.5 1481.5,-246.5"/>
<text text-anchor="middle" x="1508" y="-253.5" font-family="Helvetica,sans-Serif" font-size="10.00">cstddef</text>
</a>
</g>
</g>
<!-- Node12&#45;&gt;Node45 -->
<g id="edge45" class="edge">
<title>Node12&#45;&gt;Node45</title>
<path fill="none" stroke="midnightblue" d="M1416.51,-302.32C1434.07,-293.62 1461.33,-280.12 1481.53,-270.11"/>
<polygon fill="midnightblue" stroke="midnightblue" points="1483.12,-273.23 1490.53,-265.65 1480.02,-266.96 1483.12,-273.23"/>
</g>
<!-- Node46 -->
<g id="node45" class="node">
<title>Node46</title>
<g id="a_node45"><a xlink:title=" ">
<polygon fill="white" stroke="#bfbfbf" points="1314,-246.5 1314,-265.5 1400,-265.5 1400,-246.5 1314,-246.5"/>
<text text-anchor="middle" x="1357" y="-253.5" font-family="Helvetica,sans-Serif" font-size="10.00">unordered_set</text>
</a>
</g>
</g>
<!-- Node12&#45;&gt;Node46 -->
<g id="edge46" class="edge">
<title>Node12&#45;&gt;Node46</title>
<path fill="none" stroke="midnightblue" d="M1392.06,-302.08C1386.07,-294.38 1377.25,-283.03 1369.95,-273.65"/>
<polygon fill="midnightblue" stroke="midnightblue" points="1372.71,-271.5 1363.81,-265.75 1367.18,-275.79 1372.71,-271.5"/>
</g>
<!-- Node47 -->
<g id="node46" class="node">
<title>Node47</title>
<g id="a_node46"><a xlink:title=" ">
<polygon fill="white" stroke="#bfbfbf" points="1418.5,-246.5 1418.5,-265.5 1463.5,-265.5 1463.5,-246.5 1418.5,-246.5"/>
<text text-anchor="middle" x="1441" y="-253.5" font-family="Helvetica,sans-Serif" font-size="10.00">utility</text>
</a>
</g>
</g>
<!-- Node12&#45;&gt;Node47 -->
<g id="edge47" class="edge">
<title>Node12&#45;&gt;Node47</title>
<path fill="none" stroke="midnightblue" d="M1405.94,-302.08C1411.93,-294.38 1420.75,-283.03 1428.05,-273.65"/>
<polygon fill="midnightblue" stroke="midnightblue" points="1430.82,-275.79 1434.19,-265.75 1425.29,-271.5 1430.82,-275.79"/>
</g>
<!-- Node14 -->
<g id="node14" class="node">
<title>Node14</title>
<g id="a_node14"><a xlink:href="_foliated__triangulation_8hpp.html" target="_top" xlink:title="Create foliated spherical triangulations.">
<polygon fill="white" stroke="black" points="1181,-190.5 1181,-209.5 1325,-209.5 1325,-190.5 1181,-190.5"/>
<text text-anchor="middle" x="1253" y="-197.5" font-family="Helvetica,sans-Serif" font-size="10.00">Foliated_triangulation.hpp</text>
</a>
</g>
</g>
<!-- Node13&#45;&gt;Node14 -->
<g id="edge13" class="edge">
<title>Node13&#45;&gt;Node14</title>
<path fill="none" stroke="midnightblue" d="M1253,-246.08C1253,-239.01 1253,-228.86 1253,-219.99"/>
<polygon fill="midnightblue" stroke="midnightblue" points="1256.5,-219.75 1253,-209.75 1249.5,-219.75 1256.5,-219.75"/>
</g>
<!-- Node15 -->
<g id="node15" class="node">
<title>Node15</title>
<g id="a_node15"><a xlink:href="_triangulation__traits_8hpp.html" target="_top" xlink:title="Traits class for particular uses of CGAL.">
<polygon fill="white" stroke="black" points="2055.5,-134.5 2055.5,-153.5 2186.5,-153.5 2186.5,-134.5 2055.5,-134.5"/>
<text text-anchor="middle" x="2121" y="-141.5" font-family="Helvetica,sans-Serif" font-size="10.00">Triangulation_traits.hpp</text>
</a>
</g>
</g>
<!-- Node14&#45;&gt;Node15 -->
<g id="edge14" class="edge">
<title>Node14&#45;&gt;Node15</title>
<path fill="none" stroke="midnightblue" d="M1325.14,-194.51C1487.42,-184.42 1879.92,-160 2045.41,-149.7"/>
<polygon fill="midnightblue" stroke="midnightblue" points="2045.73,-153.19 2055.5,-149.08 2045.3,-146.2 2045.73,-153.19"/>
</g>
<!-- Node24 -->
<g id="node24" class="node">
<title>Node24</title>
<g id="a_node24"><a xlink:href="_utilities_8hpp.html" target="_top" xlink:title="Utility functions.">
<polygon fill="white" stroke="red" points="1007,-134.5 1007,-153.5 1083,-153.5 1083,-134.5 1007,-134.5"/>
<text text-anchor="middle" x="1045" y="-141.5" font-family="Helvetica,sans-Serif" font-size="10.00">Utilities.hpp</text>
</a>
</g>
</g>
<!-- Node14&#45;&gt;Node24 -->
<g id="edge23" class="edge">
<title>Node14&#45;&gt;Node24</title>
<path fill="none" stroke="midnightblue" d="M1220.04,-190.44C1184.21,-181.14 1126.84,-166.25 1087.61,-156.06"/>
<polygon fill="midnightblue" stroke="midnightblue" points="1088.36,-152.64 1077.8,-153.52 1086.6,-159.42 1088.36,-152.64"/>
</g>
<!-- Node16 -->
<g id="node16" class="node">
<title>Node16</title>
<g id="a_node16"><a xlink:href="_settings_8hpp.html" target="_top" xlink:title="Global integer and precision settings.">
<polygon fill="white" stroke="black" points="1780.5,-67.5 1780.5,-86.5 1857.5,-86.5 1857.5,-67.5 1780.5,-67.5"/>
<text text-anchor="middle" x="1819" y="-74.5" font-family="Helvetica,sans-Serif" font-size="10.00">Settings.hpp</text>
</a>
</g>
</g>
<!-- Node15&#45;&gt;Node16 -->
<g id="edge15" class="edge">
<title>Node15&#45;&gt;Node16</title>
<path fill="none" stroke="midnightblue" d="M2055.37,-135.4C2003.54,-128.44 1929.75,-116.39 1867,-98 1860.13,-95.99 1852.91,-93.3 1846.22,-90.56"/>
<polygon fill="midnightblue" stroke="midnightblue" points="1847.46,-87.28 1836.89,-86.56 1844.71,-93.71 1847.46,-87.28"/>
</g>
<!-- Node19 -->
<g id="node19" class="node">
<title>Node19</title>
<g id="a_node19"><a xlink:title=" ">
<polygon fill="white" stroke="#bfbfbf" points="2214,-67.5 2214,-86.5 2394,-86.5 2394,-67.5 2214,-67.5"/>
<text text-anchor="middle" x="2304" y="-74.5" font-family="Helvetica,sans-Serif" font-size="10.00">CGAL/Delaunay_triangulation_3.h</text>
</a>
</g>
</g>
<!-- Node15&#45;&gt;Node19 -->
<g id="edge18" class="edge">
<title>Node15&#45;&gt;Node19</title>
<path fill="none" stroke="midnightblue" d="M2145.3,-134.37C2177.38,-122.97 2234.03,-102.85 2270.25,-89.99"/>
<polygon fill="midnightblue" stroke="midnightblue" points="2271.64,-93.21 2279.89,-86.56 2269.3,-86.61 2271.64,-93.21"/>
</g>
<!-- Node20 -->
<g id="node20" class="node">
<title>Node20</title>
<g id="a_node20"><a xlink:title=" ">
<polygon fill="white" stroke="#bfbfbf" points="2412.5,-56.5 2412.5,-97.5 2541.5,-97.5 2541.5,-56.5 2412.5,-56.5"/>
<text text-anchor="start" x="2420.5" y="-85.5" font-family="Helvetica,sans-Serif" font-size="10.00">CGAL/Exact_predicates</text>
<text text-anchor="start" x="2420.5" y="-74.5" font-family="Helvetica,sans-Serif" font-size="10.00">_inexact_constructions</text>
<text text-anchor="middle" x="2477" y="-63.5" font-family="Helvetica,sans-Serif" font-size="10.00">_kernel.h</text>
</a>
</g>
</g>
<!-- Node15&#45;&gt;Node20 -->
<g id="edge19" class="edge">
<title>Node15&#45;&gt;Node20</title>
<path fill="none" stroke="midnightblue" d="M2186.61,-134.53C2241.64,-126.97 2322.47,-114.81 2401.94,-98.12"/>
<polygon fill="midnightblue" stroke="midnightblue" points="2403.07,-101.46 2412.12,-95.95 2401.61,-94.61 2403.07,-101.46"/>
</g>
<!-- Node21 -->
<g id="node21" class="node">
<title>Node21</title>
<g id="a_node21"><a xlink:title=" ">
<polygon fill="white" stroke="#bfbfbf" points="2560,-62 2560,-92 2698,-92 2698,-62 2560,-62"/>
<text text-anchor="start" x="2568" y="-80" font-family="Helvetica,sans-Serif" font-size="10.00">CGAL/Triangulation</text>
<text text-anchor="middle" x="2629" y="-69" font-family="Helvetica,sans-Serif" font-size="10.00">_cell_base_with_info_3.h</text>
</a>
</g>
</g>
<!-- Node15&#45;&gt;Node21 -->
<g id="edge20" class="edge">
<title>Node15&#45;&gt;Node21</title>
<path fill="none" stroke="midnightblue" d="M2186.62,-139.14C2271.31,-133.47 2423,-120.98 2551,-98 2556.82,-96.96 2562.84,-95.71 2568.84,-94.36"/>
<polygon fill="midnightblue" stroke="midnightblue" points="2569.95,-97.7 2578.89,-92 2568.35,-90.88 2569.95,-97.7"/>
</g>
<!-- Node22 -->
<g id="node22" class="node">
<title>Node22</title>
<g id="a_node22"><a xlink:title=" ">
<polygon fill="white" stroke="#bfbfbf" points="1876,-62 1876,-92 2028,-92 2028,-62 1876,-62"/>
<text text-anchor="start" x="1884" y="-80" font-family="Helvetica,sans-Serif" font-size="10.00">CGAL/Triangulation</text>
<text text-anchor="middle" x="1952" y="-69" font-family="Helvetica,sans-Serif" font-size="10.00">_vertex_base_with_info_3.h</text>
</a>
</g>
</g>
<!-- Node15&#45;&gt;Node22 -->
<g id="edge21" class="edge">
<title>Node15&#45;&gt;Node22</title>
<path fill="none" stroke="midnightblue" d="M2098.56,-134.37C2072.98,-124.53 2030.49,-108.19 1997.83,-95.63"/>
<polygon fill="midnightblue" stroke="midnightblue" points="1999.06,-92.35 1988.47,-92.03 1996.55,-98.88 1999.06,-92.35"/>
</g>
<!-- Node23 -->
<g id="node23" class="node">
<title>Node23</title>
<g id="a_node23"><a xlink:title=" ">
<polygon fill="white" stroke="#bfbfbf" points="2046.5,-67.5 2046.5,-86.5 2195.5,-86.5 2195.5,-67.5 2046.5,-67.5"/>
<text text-anchor="middle" x="2121" y="-74.5" font-family="Helvetica,sans-Serif" font-size="10.00">CGAL/point_generators_3.h</text>
</a>
</g>
</g>
<!-- Node15&#45;&gt;Node23 -->
<g id="edge22" class="edge">
<title>Node15&#45;&gt;Node23</title>
<path fill="none" stroke="midnightblue" d="M2121,-134.23C2121,-124.68 2121,-109.12 2121,-96.78"/>
<polygon fill="midnightblue" stroke="midnightblue" points="2124.5,-96.63 2121,-86.63 2117.5,-96.63 2124.5,-96.63"/>
</g>
<!-- Node17 -->
<g id="node17" class="node">
<title>Node17</title>
<g id="a_node17"><a xlink:title=" ">
<polygon fill="white" stroke="#bfbfbf" points="1733,-0.5 1733,-19.5 1819,-19.5 1819,-0.5 1733,-0.5"/>
<text text-anchor="middle" x="1776" y="-7.5" font-family="Helvetica,sans-Serif" font-size="10.00">CGAL/Gmpzf.h</text>
</a>
</g>
</g>
<!-- Node16&#45;&gt;Node17 -->
<g id="edge16" class="edge">
<title>Node16&#45;&gt;Node17</title>
<path fill="none" stroke="midnightblue" d="M1813.2,-67.23C1806.62,-57.29 1795.74,-40.84 1787.44,-28.29"/>
<polygon fill="midnightblue" stroke="midnightblue" points="1790.14,-26.04 1781.71,-19.63 1784.31,-29.9 1790.14,-26.04"/>
</g>
<!-- Node18 -->
<g id="node18" class="node">
<title>Node18</title>
<g id="a_node18"><a xlink:title=" ">
<polygon fill="white" stroke="#bfbfbf" points="1837,-0.5 1837,-19.5 1887,-19.5 1887,-0.5 1837,-0.5"/>
<text text-anchor="middle" x="1862" y="-7.5" font-family="Helvetica,sans-Serif" font-size="10.00">cstdint</text>
</a>
</g>
</g>
<!-- Node16&#45;&gt;Node18 -->
<g id="edge17" class="edge">
<title>Node16&#45;&gt;Node18</title>
<path fill="none" stroke="midnightblue" d="M1824.8,-67.23C1831.38,-57.29 1842.26,-40.84 1850.56,-28.29"/>
<polygon fill="midnightblue" stroke="midnightblue" points="1853.69,-29.9 1856.29,-19.63 1847.86,-26.04 1853.69,-29.9"/>
</g>
<!-- Node24&#45;&gt;Node7 -->
<g id="edge36" class="edge">
<title>Node24&#45;&gt;Node7</title>
<path fill="none" stroke="midnightblue" d="M1006.92,-141.83C830.48,-136.33 99.19,-112.75 53,-98 48.74,-96.64 44.51,-94.54 40.59,-92.2"/>
<polygon fill="midnightblue" stroke="midnightblue" points="42.44,-89.22 32.19,-86.54 38.53,-95.03 42.44,-89.22"/>
</g>
<!-- Node24&#45;&gt;Node16 -->
<g id="edge44" class="edge">
<title>Node24&#45;&gt;Node16</title>
<path fill="none" stroke="midnightblue" d="M1083.42,-142.34C1213.89,-139.83 1639.24,-129.37 1772,-98 1779.07,-96.33 1786.44,-93.68 1793.18,-90.84"/>
<polygon fill="midnightblue" stroke="midnightblue" points="1794.81,-93.95 1802.5,-86.66 1791.95,-87.56 1794.81,-93.95"/>
</g>
<!-- Node25 -->
<g id="node25" class="node">
<title>Node25</title>
<g id="a_node25"><a xlink:title=" ">
<polygon fill="white" stroke="#bfbfbf" points="419.5,-67.5 419.5,-86.5 502.5,-86.5 502.5,-67.5 419.5,-67.5"/>
<text text-anchor="middle" x="461" y="-74.5" font-family="Helvetica,sans-Serif" font-size="10.00">CGAL/Timer.h</text>
</a>
</g>
</g>
<!-- Node24&#45;&gt;Node25 -->
<g id="edge24" class="edge">
<title>Node24&#45;&gt;Node25</title>
<path fill="none" stroke="midnightblue" d="M1006.94,-143.53C918.69,-143.95 693.78,-140.37 512,-98 504.14,-96.17 495.89,-93.36 488.37,-90.41"/>
<polygon fill="midnightblue" stroke="midnightblue" points="489.58,-87.12 479,-86.54 486.91,-93.59 489.58,-87.12"/>
</g>
<!-- Node26 -->
<g id="node26" class="node">
<title>Node26</title>
<g id="a_node26"><a xlink:title=" ">
<polygon fill="white" stroke="#bfbfbf" points="521,-67.5 521,-86.5 609,-86.5 609,-67.5 521,-67.5"/>
<text text-anchor="middle" x="565" y="-74.5" font-family="Helvetica,sans-Serif" font-size="10.00">sys/utsname.h</text>
</a>
</g>
</g>
<!-- Node24&#45;&gt;Node26 -->
<g id="edge25" class="edge">
<title>Node24&#45;&gt;Node26</title>
<path fill="none" stroke="midnightblue" d="M1006.75,-142.23C931.37,-140.01 758.71,-131.38 618,-98 609.93,-96.08 601.42,-93.26 593.64,-90.33"/>
<polygon fill="midnightblue" stroke="midnightblue" points="594.85,-87.05 584.26,-86.63 592.28,-93.56 594.85,-87.05"/>
</g>
<!-- Node27 -->
<g id="node27" class="node">
<title>Node27</title>
<g id="a_node27"><a xlink:title=" ">
<polygon fill="white" stroke="#bfbfbf" points="627.5,-67.5 627.5,-86.5 744.5,-86.5 744.5,-67.5 627.5,-67.5"/>
<text text-anchor="middle" x="686" y="-74.5" font-family="Helvetica,sans-Serif" font-size="10.00">boost/date_time.hpp</text>
</a>
</g>
</g>
<!-- Node24&#45;&gt;Node27 -->
<g id="edge26" class="edge">
<title>Node24&#45;&gt;Node27</title>
<path fill="none" stroke="midnightblue" d="M1006.56,-138.7C950.59,-132.08 843.56,-118 754,-98 743.35,-95.62 731.92,-92.49 721.53,-89.42"/>
<polygon fill="midnightblue" stroke="midnightblue" points="722.53,-86.06 711.94,-86.51 720.5,-92.76 722.53,-86.06"/>
</g>
<!-- Node28 -->
<g id="node28" class="node">
<title>Node28</title>
<g id="a_node28"><a xlink:title=" ">
<polygon fill="white" stroke="#bfbfbf" points="763,-67.5 763,-86.5 827,-86.5 827,-67.5 763,-67.5"/>
<text text-anchor="middle" x="795" y="-74.5" font-family="Helvetica,sans-Serif" font-size="10.00">algorithm</text>
</a>
</g>
</g>
<!-- Node24&#45;&gt;Node28 -->
<g id="edge27" class="edge">
<title>Node24&#45;&gt;Node28</title>
<path fill="none" stroke="midnightblue" d="M1006.87,-137.63C964.4,-131 894.05,-118.08 836,-98 830.48,-96.09 824.74,-93.62 819.36,-91.07"/>
<polygon fill="midnightblue" stroke="midnightblue" points="820.71,-87.84 810.2,-86.51 817.59,-94.1 820.71,-87.84"/>
</g>
<!-- Node29 -->
<g id="node29" class="node">
<title>Node29</title>
<g id="a_node29"><a xlink:title=" ">
<polygon fill="white" stroke="#bfbfbf" points="845,-67.5 845,-86.5 897,-86.5 897,-67.5 845,-67.5"/>
<text text-anchor="middle" x="871" y="-74.5" font-family="Helvetica,sans-Serif" font-size="10.00">cassert</text>
</a>
</g>
</g>
<!-- Node24&#45;&gt;Node29 -->
<g id="edge28" class="edge">
<title>Node24&#45;&gt;Node29</title>
<path fill="none" stroke="midnightblue" d="M1012.28,-134.47C983.66,-126.53 941.26,-113.58 906,-98 901.9,-96.19 897.65,-94.03 893.59,-91.81"/>
<polygon fill="midnightblue" stroke="midnightblue" points="895.04,-88.6 884.62,-86.66 891.55,-94.67 895.04,-88.6"/>
</g>
<!-- Node30 -->
<g id="node30" class="node">
<title>Node30</title>
<g id="a_node30"><a xlink:title=" ">
<polygon fill="white" stroke="#bfbfbf" points="915.5,-67.5 915.5,-86.5 964.5,-86.5 964.5,-67.5 915.5,-67.5"/>
<text text-anchor="middle" x="940" y="-74.5" font-family="Helvetica,sans-Serif" font-size="10.00">cstdlib</text>
</a>
</g>
</g>
<!-- Node24&#45;&gt;Node30 -->
<g id="edge29" class="edge">
<title>Node24&#45;&gt;Node30</title>
<path fill="none" stroke="midnightblue" d="M1030.84,-134.23C1013.29,-123.37 983.16,-104.72 962.44,-91.89"/>
<polygon fill="midnightblue" stroke="midnightblue" points="964.28,-88.91 953.94,-86.63 960.6,-94.87 964.28,-88.91"/>
</g>
<!-- Node31 -->
<g id="node31" class="node">
<title>Node31</title>
<g id="a_node31"><a xlink:title=" ">
<polygon fill="white" stroke="#bfbfbf" points="982.5,-67.5 982.5,-86.5 1037.5,-86.5 1037.5,-67.5 982.5,-67.5"/>
<text text-anchor="middle" x="1010" y="-74.5" font-family="Helvetica,sans-Serif" font-size="10.00">fstream</text>
</a>
</g>
</g>
<!-- Node24&#45;&gt;Node31 -->
<g id="edge30" class="edge">
<title>Node24&#45;&gt;Node31</title>
<path fill="none" stroke="midnightblue" d="M1040.28,-134.23C1034.98,-124.39 1026.24,-108.16 1019.51,-95.66"/>
<polygon fill="midnightblue" stroke="midnightblue" points="1022.47,-93.77 1014.65,-86.63 1016.3,-97.09 1022.47,-93.77"/>
</g>
<!-- Node32 -->
<g id="node32" class="node">
<title>Node32</title>
<g id="a_node32"><a xlink:title=" ">
<polygon fill="white" stroke="#bfbfbf" points="1056,-67.5 1056,-86.5 1104,-86.5 1104,-67.5 1056,-67.5"/>
<text text-anchor="middle" x="1080" y="-74.5" font-family="Helvetica,sans-Serif" font-size="10.00">gsl/gsl</text>
</a>
</g>
</g>
<!-- Node24&#45;&gt;Node32 -->
<g id="edge31" class="edge">
<title>Node24&#45;&gt;Node32</title>
<path fill="none" stroke="midnightblue" d="M1049.72,-134.23C1055.02,-124.39 1063.76,-108.16 1070.49,-95.66"/>
<polygon fill="midnightblue" stroke="midnightblue" points="1073.7,-97.09 1075.35,-86.63 1067.53,-93.77 1073.7,-97.09"/>
</g>
<!-- Node33 -->
<g id="node33" class="node">
<title>Node33</title>
<g id="a_node33"><a xlink:title=" ">
<polygon fill="white" stroke="#bfbfbf" points="1122,-67.5 1122,-86.5 1182,-86.5 1182,-67.5 1122,-67.5"/>
<text text-anchor="middle" x="1152" y="-74.5" font-family="Helvetica,sans-Serif" font-size="10.00">iostream</text>
</a>
</g>
</g>
<!-- Node24&#45;&gt;Node33 -->
<g id="edge32" class="edge">
<title>Node24&#45;&gt;Node33</title>
<path fill="none" stroke="midnightblue" d="M1059.43,-134.23C1077.32,-123.37 1108.02,-104.72 1129.13,-91.89"/>
<polygon fill="midnightblue" stroke="midnightblue" points="1131.07,-94.81 1137.8,-86.63 1127.43,-88.83 1131.07,-94.81"/>
</g>
<!-- Node34 -->
<g id="node34" class="node">
<title>Node34</title>
<g id="a_node34"><a xlink:title=" ">
<polygon fill="white" stroke="#bfbfbf" points="1200,-67.5 1200,-86.5 1248,-86.5 1248,-67.5 1200,-67.5"/>
<text text-anchor="middle" x="1224" y="-74.5" font-family="Helvetica,sans-Serif" font-size="10.00">mutex</text>
</a>
</g>
</g>
<!-- Node24&#45;&gt;Node34 -->
<g id="edge33" class="edge">
<title>Node24&#45;&gt;Node34</title>
<path fill="none" stroke="midnightblue" d="M1081.3,-134.47C1111.4,-126.77 1154.95,-114.18 1191,-98 1194.99,-96.21 1199.09,-94.03 1202.98,-91.78"/>
<polygon fill="midnightblue" stroke="midnightblue" points="1204.84,-94.75 1211.55,-86.55 1201.19,-88.78 1204.84,-94.75"/>
</g>
<!-- Node35 -->
<g id="node35" class="node">
<title>Node35</title>
<g id="a_node35"><a xlink:title=" ">
<polygon fill="white" stroke="#bfbfbf" points="1266,-67.5 1266,-86.5 1320,-86.5 1320,-67.5 1266,-67.5"/>
<text text-anchor="middle" x="1293" y="-74.5" font-family="Helvetica,sans-Serif" font-size="10.00">random</text>
</a>
</g>
</g>
<!-- Node24&#45;&gt;Node35 -->
<g id="edge34" class="edge">
<title>Node24&#45;&gt;Node35</title>
<path fill="none" stroke="midnightblue" d="M1083.1,-138.4C1126.3,-132.39 1198.33,-119.96 1257,-98 1261.69,-96.24 1266.51,-93.95 1271.04,-91.55"/>
<polygon fill="midnightblue" stroke="midnightblue" points="1272.81,-94.57 1279.78,-86.59 1269.36,-88.48 1272.81,-94.57"/>
</g>
<!-- Node36 -->
<g id="node36" class="node">
<title>Node36</title>
<g id="a_node36"><a xlink:title=" ">
<polygon fill="white" stroke="#bfbfbf" points="1338.5,-67.5 1338.5,-86.5 1403.5,-86.5 1403.5,-67.5 1338.5,-67.5"/>
<text text-anchor="middle" x="1371" y="-74.5" font-family="Helvetica,sans-Serif" font-size="10.00">stdexcept</text>
</a>
</g>
</g>
<!-- Node24&#45;&gt;Node36 -->
<g id="edge35" class="edge">
<title>Node24&#45;&gt;Node36</title>
<path fill="none" stroke="midnightblue" d="M1083.46,-140.42C1138.81,-135.93 1243.65,-124.47 1329,-98 1334.93,-96.16 1341.09,-93.62 1346.8,-90.97"/>
<polygon fill="midnightblue" stroke="midnightblue" points="1348.44,-94.06 1355.87,-86.51 1345.35,-87.78 1348.44,-94.06"/>
</g>
<!-- Node37 -->
<g id="node37" class="node">
<title>Node37</title>
<g id="a_node37"><a xlink:title=" ">
<polygon fill="white" stroke="#bfbfbf" points="1421.5,-67.5 1421.5,-86.5 1486.5,-86.5 1486.5,-67.5 1421.5,-67.5"/>
<text text-anchor="middle" x="1454" y="-74.5" font-family="Helvetica,sans-Serif" font-size="10.00">typeindex</text>
</a>
</g>
</g>
<!-- Node24&#45;&gt;Node37 -->
<g id="edge37" class="edge">
<title>Node24&#45;&gt;Node37</title>
<path fill="none" stroke="midnightblue" d="M1083.05,-142.34C1150.61,-140.3 1295.36,-131.95 1412,-98 1417.96,-96.27 1424.13,-93.77 1429.84,-91.12"/>
<polygon fill="midnightblue" stroke="midnightblue" points="1431.5,-94.21 1438.91,-86.64 1428.4,-87.94 1431.5,-94.21"/>
</g>
<!-- Node38 -->
<g id="node38" class="node">
<title>Node38</title>
<g id="a_node38"><a xlink:title=" ">
<polygon fill="white" stroke="#bfbfbf" points="1505,-67.5 1505,-86.5 1549,-86.5 1549,-67.5 1505,-67.5"/>
<text text-anchor="middle" x="1527" y="-74.5" font-family="Helvetica,sans-Serif" font-size="10.00">ctime</text>
</a>
</g>
</g>
<!-- Node24&#45;&gt;Node38 -->
<g id="edge38" class="edge">
<title>Node24&#45;&gt;Node38</title>
<path fill="none" stroke="midnightblue" d="M1083.19,-141.49C1177.65,-137.4 1420.05,-124.54 1496,-98 1500.03,-96.59 1504.07,-94.56 1507.84,-92.32"/>
<polygon fill="midnightblue" stroke="midnightblue" points="1510.08,-95.03 1516.47,-86.58 1506.21,-89.2 1510.08,-95.03"/>
</g>
<!-- Node39 -->
<g id="node39" class="node">
<title>Node39</title>
<g id="a_node39"><a xlink:title=" ">
<polygon fill="white" stroke="#bfbfbf" points="1567,-67.5 1567,-86.5 1665,-86.5 1665,-67.5 1567,-67.5"/>
<text text-anchor="middle" x="1616" y="-74.5" font-family="Helvetica,sans-Serif" font-size="10.00">pcg_random.hpp</text>
</a>
</g>
</g>
<!-- Node24&#45;&gt;Node39 -->
<g id="edge39" class="edge">
<title>Node24&#45;&gt;Node39</title>
<path fill="none" stroke="midnightblue" d="M1083.12,-142.82C1168.91,-141.74 1383.33,-135.19 1558,-98 1567.16,-96.05 1576.87,-93.08 1585.67,-90.02"/>
<polygon fill="midnightblue" stroke="midnightblue" points="1586.94,-93.28 1595.14,-86.58 1584.55,-86.71 1586.94,-93.28"/>
</g>
<!-- Node40 -->
<g id="node40" class="node">
<title>Node40</title>
<g id="a_node40"><a xlink:title=" ">
<polygon fill="white" stroke="#bfbfbf" points="1683.5,-67.5 1683.5,-86.5 1762.5,-86.5 1762.5,-67.5 1683.5,-67.5"/>
<text text-anchor="middle" x="1723" y="-74.5" font-family="Helvetica,sans-Serif" font-size="10.00">fmt/format.h</text>
</a>
</g>
</g>
<!-- Node24&#45;&gt;Node40 -->
<g id="edge40" class="edge">
<title>Node24&#45;&gt;Node40</title>
<path fill="none" stroke="midnightblue" d="M1083.08,-141.85C1201.26,-138.03 1560.59,-124.49 1674,-98 1681.5,-96.25 1689.35,-93.5 1696.51,-90.59"/>
<polygon fill="midnightblue" stroke="midnightblue" points="1697.95,-93.78 1705.75,-86.61 1695.18,-87.35 1697.95,-93.78"/>
</g>
<!-- Node41 -->
<g id="node41" class="node">
<title>Node41</title>
<g id="a_node41"><a xlink:title=" ">
<polygon fill="white" stroke="#bfbfbf" points="62,-67.5 62,-86.5 148,-86.5 148,-67.5 62,-67.5"/>
<text text-anchor="middle" x="105" y="-74.5" font-family="Helvetica,sans-Serif" font-size="10.00">fmt/ostream.h</text>
</a>
</g>
</g>
<!-- Node24&#45;&gt;Node41 -->
<g id="edge41" class="edge">
<title>Node24&#45;&gt;Node41</title>
<path fill="none" stroke="midnightblue" d="M1006.87,-141.78C847.73,-136.58 240.86,-115.78 157,-98 148.88,-96.28 140.37,-93.47 132.63,-90.49"/>
<polygon fill="midnightblue" stroke="midnightblue" points="133.92,-87.23 123.34,-86.69 131.27,-93.71 133.92,-87.23"/>
</g>
<!-- Node42 -->
<g id="node42" class="node">
<title>Node42</title>
<g id="a_node42"><a xlink:title=" ">
<polygon fill="white" stroke="#bfbfbf" points="166,-62 166,-92 272,-92 272,-62 166,-62"/>
<text text-anchor="start" x="174" y="-80" font-family="Helvetica,sans-Serif" font-size="10.00">spdlog/sinks/basic</text>
<text text-anchor="middle" x="219" y="-69" font-family="Helvetica,sans-Serif" font-size="10.00">_file_sink.h</text>
</a>
</g>
</g>
<!-- Node24&#45;&gt;Node42 -->
<g id="edge42" class="edge">
<title>Node24&#45;&gt;Node42</title>
<path fill="none" stroke="midnightblue" d="M1006.61,-142.02C872.08,-138.4 422.53,-124.55 281,-98 276.5,-97.16 271.88,-96.08 267.28,-94.86"/>
<polygon fill="midnightblue" stroke="midnightblue" points="267.88,-91.4 257.31,-92.02 265.96,-98.13 267.88,-91.4"/>
</g>
<!-- Node43 -->
<g id="node43" class="node">
<title>Node43</title>
<g id="a_node43"><a xlink:title=" ">
<polygon fill="white" stroke="#bfbfbf" points="290.5,-62 290.5,-92 401.5,-92 401.5,-62 290.5,-62"/>
<text text-anchor="start" x="298.5" y="-80" font-family="Helvetica,sans-Serif" font-size="10.00">spdlog/sinks/stdout</text>
<text text-anchor="middle" x="346" y="-69" font-family="Helvetica,sans-Serif" font-size="10.00">_color_sinks.h</text>
</a>
</g>
</g>
<!-- Node24&#45;&gt;Node43 -->
<g id="edge43" class="edge">
<title>Node24&#45;&gt;Node43</title>
<path fill="none" stroke="midnightblue" d="M1006.67,-143.36C907.23,-143.64 633.17,-140.18 410,-98 405.31,-97.11 400.49,-96 395.69,-94.75"/>
<polygon fill="midnightblue" stroke="midnightblue" points="396.5,-91.34 385.92,-92.04 394.62,-98.09 396.5,-91.34"/>
</g>
<!-- Node48&#45;&gt;Node16 -->
<g id="edge50" class="edge">
<title>Node48&#45;&gt;Node16</title>
<path fill="none" stroke="midnightblue" d="M1533.36,-526.31C1559.77,-510.09 1611,-472.51 1611,-425 1611,-425 1611,-425 1611,-199 1611,-178.37 1734.89,-117.51 1791.44,-90.81"/>
<polygon fill="midnightblue" stroke="midnightblue" points="1792.98,-93.95 1800.54,-86.53 1790,-87.62 1792.98,-93.95"/>
</g>
<!-- Node49 -->
<g id="node48" class="node">
<title>Node49</title>
<g id="a_node48"><a xlink:title=" ">
<polygon fill="white" stroke="#bfbfbf" points="1453,-470.5 1453,-489.5 1499,-489.5 1499,-470.5 1453,-470.5"/>
<text text-anchor="middle" x="1476" y="-477.5" font-family="Helvetica,sans-Serif" font-size="10.00">cstdio</text>
</a>
</g>
</g>
<!-- Node48&#45;&gt;Node49 -->
<g id="edge51" class="edge">
<title>Node48&#45;&gt;Node49</title>
<path fill="none" stroke="midnightblue" d="M1511.06,-526.08C1505.07,-518.38 1496.25,-507.03 1488.95,-497.65"/>
<polygon fill="midnightblue" stroke="midnightblue" points="1491.71,-495.5 1482.81,-489.75 1486.18,-499.79 1491.71,-495.5"/>
</g>
<!-- Node50 -->
<g id="node49" class="node">
<title>Node50</title>
<g id="a_node49"><a xlink:title=" ">
<polygon fill="white" stroke="#bfbfbf" points="1517,-470.5 1517,-489.5 1565,-489.5 1565,-470.5 1517,-470.5"/>
<text text-anchor="middle" x="1541" y="-477.5" font-family="Helvetica,sans-Serif" font-size="10.00">mpfr.h</text>
</a>
</g>
</g>
<!-- Node48&#45;&gt;Node50 -->
<g id="edge52" class="edge">
<title>Node48&#45;&gt;Node50</title>
<path fill="none" stroke="midnightblue" d="M1521.8,-526.08C1524.91,-518.77 1529.42,-508.18 1533.29,-499.1"/>
<polygon fill="midnightblue" stroke="midnightblue" points="1536.57,-500.32 1537.27,-489.75 1530.13,-497.58 1536.57,-500.32"/>
</g>
<!-- Node51&#45;&gt;Node3 -->
<g id="edge54" class="edge">
<title>Node51&#45;&gt;Node3</title>
<path fill="none" stroke="midnightblue" d="M1381,-582.08C1381,-575.01 1381,-564.86 1381,-555.99"/>
<polygon fill="midnightblue" stroke="midnightblue" points="1384.5,-555.75 1381,-545.75 1377.5,-555.75 1384.5,-555.75"/>
</g>
</g>
</svg>
