<?xml version="1.0" encoding="UTF-8" standalone="no"?>
<!DOCTYPE svg PUBLIC "-//W3C//DTD SVG 1.1//EN"
 "http://www.w3.org/Graphics/SVG/1.1/DTD/svg11.dtd">
<!-- Generated by graphviz version 2.43.0 (0)
 -->
<!-- Title: src/cdt&#45;viewer.cpp Pages: 1 -->
<!--zoomable 386 -->
<svg id="main" version="1.1" xmlns="http://www.w3.org/2000/svg" xmlns:xlink="http://www.w3.org/1999/xlink" xml:space="preserve" onload="init(evt)">
<style type="text/css"><![CDATA[
.edge:hover path { stroke: red; }
.edge:hover polygon { stroke: red; fill: red; }
]]></style>
<script type="text/javascript"><![CDATA[
var edges = document.getElementsByTagName('g');
if (edges && edges.length) {
  for (var i=0;i<edges.length;i++) {
    if (edges[i].id.substr(0,4)=='edge') {
      edges[i].setAttribute('class','edge');
    }
  }
}
]]></script>
        <defs>
                <circle id="rim" cx="0" cy="0" r="7"/>
                <circle id="rim2" cx="0" cy="0" r="3.5"/>
                <g id="zoomPlus">
                        <use xlink:href="#rim" fill="#404040">
                                <set attributeName="fill" to="#808080" begin="zoomplus.mouseover" end="zoomplus.mouseout"/>
                        </use>
                        <path d="M-4,0h8M0,-4v8" fill="none" stroke="white" stroke-width="1.5" pointer-events="none"/>
                </g>
                <g id="zoomMin">
                        <use xlink:href="#rim" fill="#404040">
                                <set attributeName="fill" to="#808080" begin="zoomminus.mouseover" end="zoomminus.mouseout"/>
                        </use>
                        <path d="M-4,0h8" fill="none" stroke="white" stroke-width="1.5" pointer-events="none"/>
                </g>
                <g id="dirArrow">
                        <path fill="none" stroke="white" stroke-width="1.5" d="M0,-3.0v7 M-2.5,-0.5L0,-3.0L2.5,-0.5"/>
                </g>
               <g id="resetDef">
                       <use xlink:href="#rim2" fill="#404040">
                               <set attributeName="fill" to="#808080" begin="reset.mouseover" end="reset.mouseout"/>
                       </use>
               </g>
        </defs>

<script type="text/javascript">
var viewWidth = 2637;
var viewHeight = 386;
var sectionId = 'dynsection-0';
</script>
<script xlink:href="svgpan.js"/>
<svg id="graph" class="graph">
<g id="viewport">
<title>src/cdt&#45;viewer.cpp</title>
<polygon fill="white" stroke="transparent" points="-4,4 -4,-382 2632.5,-382 2632.5,4 -4,4"/>
<!-- Node1 -->
<g id="node1" class="node">
<title>Node1</title>
<g id="a_node1"><a xlink:title="Views 3D spacetimes.">
<polygon fill="#bfbfbf" stroke="black" points="670.5,-358.5 670.5,-377.5 774.5,-377.5 774.5,-358.5 670.5,-358.5"/>
<text text-anchor="middle" x="722.5" y="-365.5" font-family="Helvetica,sans-Serif" font-size="10.00">src/cdt&#45;viewer.cpp</text>
</a>
</g>
</g>
<!-- Node2 -->
<g id="node2" class="node">
<title>Node2</title>
<g id="a_node2"><a xlink:title=" ">
<polygon fill="white" stroke="#bfbfbf" points="343.5,-302.5 343.5,-321.5 501.5,-321.5 501.5,-302.5 343.5,-302.5"/>
<text text-anchor="middle" x="422.5" y="-309.5" font-family="Helvetica,sans-Serif" font-size="10.00">CGAL/draw_triangulation_3.h</text>
</a>
</g>
</g>
<!-- Node1&#45;&gt;Node2 -->
<g id="edge1" class="edge">
<title>Node1&#45;&gt;Node2</title>
<path fill="none" stroke="midnightblue" d="M674.96,-358.44C621.97,-348.9 536.3,-333.48 479.68,-323.29"/>
<polygon fill="midnightblue" stroke="midnightblue" points="480.28,-319.84 469.81,-321.52 479.04,-326.73 480.28,-319.84"/>
</g>
<!-- Node3 -->
<g id="node3" class="node">
<title>Node3</title>
<g id="a_node3"><a xlink:title=" ">
<polygon fill="white" stroke="#bfbfbf" points="520,-302.5 520,-321.5 615,-321.5 615,-302.5 520,-302.5"/>
<text text-anchor="middle" x="567.5" y="-309.5" font-family="Helvetica,sans-Serif" font-size="10.00">docopt/docopt.h</text>
</a>
</g>
</g>
<!-- Node1&#45;&gt;Node3 -->
<g id="edge2" class="edge">
<title>Node1&#45;&gt;Node3</title>
<path fill="none" stroke="midnightblue" d="M697.94,-358.44C671.98,-349.4 630.83,-335.06 601.7,-324.92"/>
<polygon fill="midnightblue" stroke="midnightblue" points="602.54,-321.5 591.95,-321.52 600.24,-328.11 602.54,-321.5"/>
</g>
<!-- Node4 -->
<g id="node4" class="node">
<title>Node4</title>
<g id="a_node4"><a xlink:title=" ">
<polygon fill="white" stroke="#bfbfbf" points="633,-302.5 633,-321.5 734,-321.5 734,-302.5 633,-302.5"/>
<text text-anchor="middle" x="683.5" y="-309.5" font-family="Helvetica,sans-Serif" font-size="10.00">doctest/doctest.h</text>
</a>
</g>
</g>
<!-- Node1&#45;&gt;Node4 -->
<g id="edge3" class="edge">
<title>Node1&#45;&gt;Node4</title>
<path fill="none" stroke="midnightblue" d="M716.06,-358.08C710.55,-350.46 702.47,-339.26 695.74,-329.94"/>
<polygon fill="midnightblue" stroke="midnightblue" points="698.51,-327.81 689.82,-321.75 692.84,-331.91 698.51,-327.81"/>
</g>
<!-- Node5 -->
<g id="node5" class="node">
<title>Node5</title>
<g id="a_node5"><a xlink:title=" ">
<polygon fill="white" stroke="#bfbfbf" points="0,-67.5 0,-86.5 93,-86.5 93,-67.5 0,-67.5"/>
<text text-anchor="middle" x="46.5" y="-74.5" font-family="Helvetica,sans-Serif" font-size="10.00">spdlog/spdlog.h</text>
</a>
</g>
</g>
<!-- Node1&#45;&gt;Node5 -->
<g id="edge4" class="edge">
<title>Node1&#45;&gt;Node5</title>
<path fill="none" stroke="midnightblue" d="M728.06,-358.27C739.05,-340.15 762.5,-296.83 762.5,-257 762.5,-257 762.5,-257 762.5,-199 762.5,-50.63 246.36,-134.34 102.5,-98 94.1,-95.88 85.2,-93 77.01,-90.09"/>
<polygon fill="midnightblue" stroke="midnightblue" points="78.07,-86.75 67.48,-86.57 75.65,-93.31 78.07,-86.75"/>
</g>
<!-- Node6 -->
<g id="node6" class="node">
<title>Node6</title>
<g id="a_node6"><a xlink:href="_manifold_8hpp.html" target="_top" xlink:title="Data structures for manifolds.">
<polygon fill="white" stroke="black" points="1363.5,-302.5 1363.5,-321.5 1443.5,-321.5 1443.5,-302.5 1363.5,-302.5"/>
<text text-anchor="middle" x="1403.5" y="-309.5" font-family="Helvetica,sans-Serif" font-size="10.00">Manifold.hpp</text>
</a>
</g>
</g>
<!-- Node1&#45;&gt;Node6 -->
<g id="edge5" class="edge">
<title>Node1&#45;&gt;Node6</title>
<path fill="none" stroke="midnightblue" d="M774.53,-362.87C901.85,-352.78 1227.83,-326.93 1353.27,-316.98"/>
<polygon fill="midnightblue" stroke="midnightblue" points="1353.67,-320.46 1363.36,-316.18 1353.12,-313.48 1353.67,-320.46"/>
</g>
<!-- Node22 -->
<g id="node22" class="node">
<title>Node22</title>
<g id="a_node22"><a xlink:href="_utilities_8hpp.html" target="_top" xlink:title="Utility functions.">
<polygon fill="white" stroke="black" points="790.5,-134.5 790.5,-153.5 866.5,-153.5 866.5,-134.5 790.5,-134.5"/>
<text text-anchor="middle" x="828.5" y="-141.5" font-family="Helvetica,sans-Serif" font-size="10.00">Utilities.hpp</text>
</a>
</g>
</g>
<!-- Node1&#45;&gt;Node22 -->
<g id="edge43" class="edge">
<title>Node1&#45;&gt;Node22</title>
<path fill="none" stroke="midnightblue" d="M736.96,-358.43C749.19,-350.46 766.32,-337.51 776.5,-322 809.98,-271 822.42,-197.91 826.6,-163.83"/>
<polygon fill="midnightblue" stroke="midnightblue" points="830.09,-164.19 827.72,-153.86 823.13,-163.41 830.09,-164.19"/>
</g>
<!-- Node7 -->
<g id="node7" class="node">
<title>Node7</title>
<g id="a_node7"><a xlink:title=" ">
<polygon fill="white" stroke="#bfbfbf" points="1547,-246.5 1547,-265.5 1600,-265.5 1600,-246.5 1547,-246.5"/>
<text text-anchor="middle" x="1573.5" y="-253.5" font-family="Helvetica,sans-Serif" font-size="10.00">cstddef</text>
</a>
</g>
</g>
<!-- Node6&#45;&gt;Node7 -->
<g id="edge6" class="edge">
<title>Node6&#45;&gt;Node7</title>
<path fill="none" stroke="midnightblue" d="M1430.44,-302.44C1459.24,-293.29 1505.1,-278.73 1537.1,-268.56"/>
<polygon fill="midnightblue" stroke="midnightblue" points="1538.5,-271.79 1546.97,-265.43 1536.38,-265.12 1538.5,-271.79"/>
</g>
<!-- Node8 -->
<g id="node8" class="node">
<title>Node8</title>
<g id="a_node8"><a xlink:title=" ">
<polygon fill="white" stroke="#bfbfbf" points="1276.5,-246.5 1276.5,-265.5 1362.5,-265.5 1362.5,-246.5 1276.5,-246.5"/>
<text text-anchor="middle" x="1319.5" y="-253.5" font-family="Helvetica,sans-Serif" font-size="10.00">unordered_set</text>
</a>
</g>
</g>
<!-- Node6&#45;&gt;Node8 -->
<g id="edge7" class="edge">
<title>Node6&#45;&gt;Node8</title>
<path fill="none" stroke="midnightblue" d="M1390,-302.32C1376.9,-293.9 1356.79,-280.97 1341.39,-271.07"/>
<polygon fill="midnightblue" stroke="midnightblue" points="1343.27,-268.12 1332.96,-265.65 1339.48,-274.01 1343.27,-268.12"/>
</g>
<!-- Node9 -->
<g id="node9" class="node">
<title>Node9</title>
<g id="a_node9"><a xlink:title=" ">
<polygon fill="white" stroke="#bfbfbf" points="1381,-246.5 1381,-265.5 1426,-265.5 1426,-246.5 1381,-246.5"/>
<text text-anchor="middle" x="1403.5" y="-253.5" font-family="Helvetica,sans-Serif" font-size="10.00">utility</text>
</a>
</g>
</g>
<!-- Node6&#45;&gt;Node9 -->
<g id="edge8" class="edge">
<title>Node6&#45;&gt;Node9</title>
<path fill="none" stroke="midnightblue" d="M1403.5,-302.08C1403.5,-295.01 1403.5,-284.86 1403.5,-275.99"/>
<polygon fill="midnightblue" stroke="midnightblue" points="1407,-275.75 1403.5,-265.75 1400,-275.75 1407,-275.75"/>
</g>
<!-- Node10 -->
<g id="node10" class="node">
<title>Node10</title>
<g id="a_node10"><a xlink:href="_geometry_8hpp.html" target="_top" xlink:title="Geometric quantities of Manifold used by MoveAlgorithm.">
<polygon fill="white" stroke="black" points="1444,-246.5 1444,-265.5 1529,-265.5 1529,-246.5 1444,-246.5"/>
<text text-anchor="middle" x="1486.5" y="-253.5" font-family="Helvetica,sans-Serif" font-size="10.00">Geometry.hpp</text>
</a>
</g>
</g>
<!-- Node6&#45;&gt;Node10 -->
<g id="edge9" class="edge">
<title>Node6&#45;&gt;Node10</title>
<path fill="none" stroke="midnightblue" d="M1416.84,-302.32C1429.66,-293.98 1449.28,-281.21 1464.44,-271.35"/>
<polygon fill="midnightblue" stroke="midnightblue" points="1466.72,-274.04 1473.2,-265.65 1462.91,-268.17 1466.72,-274.04"/>
</g>
<!-- Node11 -->
<g id="node11" class="node">
<title>Node11</title>
<g id="a_node11"><a xlink:href="_foliated__triangulation_8hpp.html" target="_top" xlink:title="Create foliated spherical triangulations.">
<polygon fill="white" stroke="black" points="1646.5,-190.5 1646.5,-209.5 1790.5,-209.5 1790.5,-190.5 1646.5,-190.5"/>
<text text-anchor="middle" x="1718.5" y="-197.5" font-family="Helvetica,sans-Serif" font-size="10.00">Foliated_triangulation.hpp</text>
</a>
</g>
</g>
<!-- Node10&#45;&gt;Node11 -->
<g id="edge10" class="edge">
<title>Node10&#45;&gt;Node11</title>
<path fill="none" stroke="midnightblue" d="M1523.26,-246.44C1563.56,-237.06 1628.31,-221.99 1672.08,-211.8"/>
<polygon fill="midnightblue" stroke="midnightblue" points="1672.96,-215.19 1681.91,-209.52 1671.38,-208.37 1672.96,-215.19"/>
</g>
<!-- Node12 -->
<g id="node12" class="node">
<title>Node12</title>
<g id="a_node12"><a xlink:title=" ">
<polygon fill="white" stroke="#bfbfbf" points="2034.5,-134.5 2034.5,-153.5 2094.5,-153.5 2094.5,-134.5 2034.5,-134.5"/>
<text text-anchor="middle" x="2064.5" y="-141.5" font-family="Helvetica,sans-Serif" font-size="10.00">concepts</text>
</a>
</g>
</g>
<!-- Node11&#45;&gt;Node12 -->
<g id="edge11" class="edge">
<title>Node11&#45;&gt;Node12</title>
<path fill="none" stroke="midnightblue" d="M1787.66,-190.5C1847.74,-182.73 1937.29,-170.27 2024.27,-154.11"/>
<polygon fill="midnightblue" stroke="midnightblue" points="2025.13,-157.51 2034.32,-152.22 2023.84,-150.63 2025.13,-157.51"/>
</g>
<!-- Node13 -->
<g id="node13" class="node">
<title>Node13</title>
<g id="a_node13"><a xlink:href="_triangulation__traits_8hpp.html" target="_top" xlink:title="Traits class for particular uses of CGAL.">
<polygon fill="white" stroke="black" points="1885,-134.5 1885,-153.5 2016,-153.5 2016,-134.5 1885,-134.5"/>
<text text-anchor="middle" x="1950.5" y="-141.5" font-family="Helvetica,sans-Serif" font-size="10.00">Triangulation_traits.hpp</text>
</a>
</g>
</g>
<!-- Node11&#45;&gt;Node13 -->
<g id="edge12" class="edge">
<title>Node11&#45;&gt;Node13</title>
<path fill="none" stroke="midnightblue" d="M1755.26,-190.44C1795.56,-181.06 1860.31,-165.99 1904.08,-155.8"/>
<polygon fill="midnightblue" stroke="midnightblue" points="1904.96,-159.19 1913.91,-153.52 1903.38,-152.37 1904.96,-159.19"/>
</g>
<!-- Node11&#45;&gt;Node22 -->
<g id="edge21" class="edge">
<title>Node11&#45;&gt;Node22</title>
<path fill="none" stroke="midnightblue" d="M1646.42,-194.63C1470.83,-183.97 1024.52,-156.89 876.8,-147.93"/>
<polygon fill="midnightblue" stroke="midnightblue" points="876.88,-144.43 866.69,-147.32 876.46,-151.42 876.88,-144.43"/>
</g>
<!-- Node14 -->
<g id="node14" class="node">
<title>Node14</title>
<g id="a_node14"><a xlink:title=" ">
<polygon fill="white" stroke="#bfbfbf" points="2448.5,-67.5 2448.5,-86.5 2628.5,-86.5 2628.5,-67.5 2448.5,-67.5"/>
<text text-anchor="middle" x="2538.5" y="-74.5" font-family="Helvetica,sans-Serif" font-size="10.00">CGAL/Delaunay_triangulation_3.h</text>
</a>
</g>
</g>
<!-- Node13&#45;&gt;Node14 -->
<g id="edge13" class="edge">
<title>Node13&#45;&gt;Node14</title>
<path fill="none" stroke="midnightblue" d="M2016.34,-134.98C2019.43,-134.64 2022.5,-134.31 2025.5,-134 2209.21,-114.99 2256.69,-124.33 2439.5,-98 2456.46,-95.56 2474.9,-92.07 2491.21,-88.68"/>
<polygon fill="midnightblue" stroke="midnightblue" points="2492,-92.09 2501.06,-86.6 2490.56,-85.24 2492,-92.09"/>
</g>
<!-- Node15 -->
<g id="node15" class="node">
<title>Node15</title>
<g id="a_node15"><a xlink:title=" ">
<polygon fill="white" stroke="#bfbfbf" points="1808,-56.5 1808,-97.5 1937,-97.5 1937,-56.5 1808,-56.5"/>
<text text-anchor="start" x="1816" y="-85.5" font-family="Helvetica,sans-Serif" font-size="10.00">CGAL/Exact_predicates</text>
<text text-anchor="start" x="1816" y="-74.5" font-family="Helvetica,sans-Serif" font-size="10.00">_inexact_constructions</text>
<text text-anchor="middle" x="1872.5" y="-63.5" font-family="Helvetica,sans-Serif" font-size="10.00">_kernel.h</text>
</a>
</g>
</g>
<!-- Node13&#45;&gt;Node15 -->
<g id="edge14" class="edge">
<title>Node13&#45;&gt;Node15</title>
<path fill="none" stroke="midnightblue" d="M1939.98,-134.23C1930.68,-126.49 1916.64,-114.78 1903.76,-104.05"/>
<polygon fill="midnightblue" stroke="midnightblue" points="1905.87,-101.26 1895.95,-97.54 1901.39,-106.63 1905.87,-101.26"/>
</g>
<!-- Node16 -->
<g id="node16" class="node">
<title>Node16</title>
<g id="a_node16"><a xlink:title=" ">
<polygon fill="white" stroke="#bfbfbf" points="1955,-67.5 1955,-86.5 2104,-86.5 2104,-67.5 1955,-67.5"/>
<text text-anchor="middle" x="2029.5" y="-74.5" font-family="Helvetica,sans-Serif" font-size="10.00">CGAL/point_generators_3.h</text>
</a>
</g>
</g>
<!-- Node13&#45;&gt;Node16 -->
<g id="edge15" class="edge">
<title>Node13&#45;&gt;Node16</title>
<path fill="none" stroke="midnightblue" d="M1961.15,-134.23C1973.95,-123.71 1995.62,-105.88 2011.13,-93.12"/>
<polygon fill="midnightblue" stroke="midnightblue" points="2013.52,-95.68 2019.01,-86.63 2009.07,-90.28 2013.52,-95.68"/>
</g>
<!-- Node17 -->
<g id="node17" class="node">
<title>Node17</title>
<g id="a_node17"><a xlink:title=" ">
<polygon fill="white" stroke="#bfbfbf" points="2122.5,-62 2122.5,-92 2260.5,-92 2260.5,-62 2122.5,-62"/>
<text text-anchor="start" x="2130.5" y="-80" font-family="Helvetica,sans-Serif" font-size="10.00">CGAL/Triangulation</text>
<text text-anchor="middle" x="2191.5" y="-69" font-family="Helvetica,sans-Serif" font-size="10.00">_cell_base_with_info_3.h</text>
</a>
</g>
</g>
<!-- Node13&#45;&gt;Node17 -->
<g id="edge16" class="edge">
<title>Node13&#45;&gt;Node17</title>
<path fill="none" stroke="midnightblue" d="M1982.5,-134.37C2019.92,-124.28 2082.7,-107.34 2129.71,-94.66"/>
<polygon fill="midnightblue" stroke="midnightblue" points="2130.74,-98.01 2139.49,-92.03 2128.92,-91.25 2130.74,-98.01"/>
</g>
<!-- Node18 -->
<g id="node18" class="node">
<title>Node18</title>
<g id="a_node18"><a xlink:title=" ">
<polygon fill="white" stroke="#bfbfbf" points="2278.5,-62 2278.5,-92 2430.5,-92 2430.5,-62 2278.5,-62"/>
<text text-anchor="start" x="2286.5" y="-80" font-family="Helvetica,sans-Serif" font-size="10.00">CGAL/Triangulation</text>
<text text-anchor="middle" x="2354.5" y="-69" font-family="Helvetica,sans-Serif" font-size="10.00">_vertex_base_with_info_3.h</text>
</a>
</g>
</g>
<!-- Node13&#45;&gt;Node18 -->
<g id="edge17" class="edge">
<title>Node13&#45;&gt;Node18</title>
<path fill="none" stroke="midnightblue" d="M2016.07,-134.47C2094.85,-124.09 2222.29,-106.86 2269.5,-98 2275.56,-96.86 2281.84,-95.58 2288.12,-94.23"/>
<polygon fill="midnightblue" stroke="midnightblue" points="2288.95,-97.63 2297.96,-92.06 2287.44,-90.8 2288.95,-97.63"/>
</g>
<!-- Node19 -->
<g id="node19" class="node">
<title>Node19</title>
<g id="a_node19"><a xlink:href="_settings_8hpp.html" target="_top" xlink:title="Global integer and precision settings.">
<polygon fill="white" stroke="black" points="1713,-67.5 1713,-86.5 1790,-86.5 1790,-67.5 1713,-67.5"/>
<text text-anchor="middle" x="1751.5" y="-74.5" font-family="Helvetica,sans-Serif" font-size="10.00">Settings.hpp</text>
</a>
</g>
</g>
<!-- Node13&#45;&gt;Node19 -->
<g id="edge18" class="edge">
<title>Node13&#45;&gt;Node19</title>
<path fill="none" stroke="midnightblue" d="M1918.37,-134.48C1887.58,-126.07 1839.96,-112.41 1799.5,-98 1793.25,-95.77 1786.63,-93.18 1780.37,-90.61"/>
<polygon fill="midnightblue" stroke="midnightblue" points="1781.51,-87.29 1770.94,-86.64 1778.8,-93.74 1781.51,-87.29"/>
</g>
<!-- Node20 -->
<g id="node20" class="node">
<title>Node20</title>
<g id="a_node20"><a xlink:title=" ">
<polygon fill="white" stroke="#bfbfbf" points="1624.5,-0.5 1624.5,-19.5 1764.5,-19.5 1764.5,-0.5 1624.5,-0.5"/>
<text text-anchor="middle" x="1694.5" y="-7.5" font-family="Helvetica,sans-Serif" font-size="10.00">CGAL/GMP/Gmpzf_type.h</text>
</a>
</g>
</g>
<!-- Node19&#45;&gt;Node20 -->
<g id="edge19" class="edge">
<title>Node19&#45;&gt;Node20</title>
<path fill="none" stroke="midnightblue" d="M1743.81,-67.23C1734.84,-57 1719.81,-39.86 1708.7,-27.19"/>
<polygon fill="midnightblue" stroke="midnightblue" points="1711.29,-24.84 1702.07,-19.63 1706.03,-29.45 1711.29,-24.84"/>
</g>
<!-- Node21 -->
<g id="node21" class="node">
<title>Node21</title>
<g id="a_node21"><a xlink:title=" ">
<polygon fill="white" stroke="#bfbfbf" points="1782.5,-0.5 1782.5,-19.5 1832.5,-19.5 1832.5,-0.5 1782.5,-0.5"/>
<text text-anchor="middle" x="1807.5" y="-7.5" font-family="Helvetica,sans-Serif" font-size="10.00">cstdint</text>
</a>
</g>
</g>
<!-- Node19&#45;&gt;Node21 -->
<g id="edge20" class="edge">
<title>Node19&#45;&gt;Node21</title>
<path fill="none" stroke="midnightblue" d="M1759.05,-67.23C1767.78,-57.1 1782.35,-40.19 1793.24,-27.56"/>
<polygon fill="midnightblue" stroke="midnightblue" points="1796.19,-29.49 1800.07,-19.63 1790.89,-24.92 1796.19,-29.49"/>
</g>
<!-- Node22&#45;&gt;Node5 -->
<g id="edge41" class="edge">
<title>Node22&#45;&gt;Node5</title>
<path fill="none" stroke="midnightblue" d="M790.24,-135.85C785.62,-135.14 780.96,-134.5 776.5,-134 478.41,-100.36 396.61,-157.07 102.5,-98 93.55,-96.2 84.11,-93.26 75.57,-90.18"/>
<polygon fill="midnightblue" stroke="midnightblue" points="76.65,-86.85 66.06,-86.56 74.16,-93.39 76.65,-86.85"/>
</g>
<!-- Node22&#45;&gt;Node19 -->
<g id="edge42" class="edge">
<title>Node22&#45;&gt;Node19</title>
<path fill="none" stroke="midnightblue" d="M866.66,-142.81C1013.45,-141.81 1541.56,-135.61 1704.5,-98 1711.58,-96.37 1718.95,-93.73 1725.69,-90.9"/>
<polygon fill="midnightblue" stroke="midnightblue" points="1727.33,-94 1735.01,-86.7 1724.46,-87.61 1727.33,-94"/>
</g>
<!-- Node23 -->
<g id="node23" class="node">
<title>Node23</title>
<g id="a_node23"><a xlink:title=" ">
<polygon fill="white" stroke="#bfbfbf" points="1612,-67.5 1612,-86.5 1695,-86.5 1695,-67.5 1612,-67.5"/>
<text text-anchor="middle" x="1653.5" y="-74.5" font-family="Helvetica,sans-Serif" font-size="10.00">CGAL/Timer.h</text>
</a>
</g>
</g>
<!-- Node22&#45;&gt;Node23 -->
<g id="edge22" class="edge">
<title>Node22&#45;&gt;Node23</title>
<path fill="none" stroke="midnightblue" d="M866.57,-142.41C1002.1,-140.05 1460.61,-129.84 1603.5,-98 1611.15,-96.29 1619.16,-93.56 1626.47,-90.65"/>
<polygon fill="midnightblue" stroke="midnightblue" points="1628.05,-93.78 1635.89,-86.66 1625.32,-87.34 1628.05,-93.78"/>
</g>
<!-- Node24 -->
<g id="node24" class="node">
<title>Node24</title>
<g id="a_node24"><a xlink:title=" ">
<polygon fill="white" stroke="#bfbfbf" points="111.5,-67.5 111.5,-86.5 175.5,-86.5 175.5,-67.5 111.5,-67.5"/>
<text text-anchor="middle" x="143.5" y="-74.5" font-family="Helvetica,sans-Serif" font-size="10.00">algorithm</text>
</a>
</g>
</g>
<!-- Node22&#45;&gt;Node24 -->
<g id="edge23" class="edge">
<title>Node22&#45;&gt;Node24</title>
<path fill="none" stroke="midnightblue" d="M790.23,-135.88C785.62,-135.17 780.96,-134.52 776.5,-134 514.68,-103.48 439.42,-165.08 184.5,-98 178.51,-96.42 172.36,-93.95 166.7,-91.27"/>
<polygon fill="midnightblue" stroke="midnightblue" points="168.26,-88.13 157.76,-86.68 165.06,-94.36 168.26,-88.13"/>
</g>
<!-- Node25 -->
<g id="node25" class="node">
<title>Node25</title>
<g id="a_node25"><a xlink:title=" ">
<polygon fill="white" stroke="#bfbfbf" points="193.5,-67.5 193.5,-86.5 245.5,-86.5 245.5,-67.5 193.5,-67.5"/>
<text text-anchor="middle" x="219.5" y="-74.5" font-family="Helvetica,sans-Serif" font-size="10.00">cassert</text>
</a>
</g>
</g>
<!-- Node22&#45;&gt;Node25 -->
<g id="edge24" class="edge">
<title>Node22&#45;&gt;Node25</title>
<path fill="none" stroke="midnightblue" d="M790.23,-135.92C785.61,-135.2 780.96,-134.54 776.5,-134 545.62,-106.13 477.07,-165.39 254.5,-98 249.65,-96.53 244.74,-94.29 240.2,-91.84"/>
<polygon fill="midnightblue" stroke="midnightblue" points="241.9,-88.78 231.51,-86.67 238.32,-94.79 241.9,-88.78"/>
</g>
<!-- Node26 -->
<g id="node26" class="node">
<title>Node26</title>
<g id="a_node26"><a xlink:title=" ">
<polygon fill="white" stroke="#bfbfbf" points="264,-67.5 264,-86.5 313,-86.5 313,-67.5 264,-67.5"/>
<text text-anchor="middle" x="288.5" y="-74.5" font-family="Helvetica,sans-Serif" font-size="10.00">cstdlib</text>
</a>
</g>
</g>
<!-- Node22&#45;&gt;Node26 -->
<g id="edge25" class="edge">
<title>Node22&#45;&gt;Node26</title>
<path fill="none" stroke="midnightblue" d="M790.22,-135.96C785.61,-135.24 780.95,-134.56 776.5,-134 575.67,-108.71 515.54,-158.87 322.5,-98 317.89,-96.55 313.24,-94.38 308.93,-92"/>
<polygon fill="midnightblue" stroke="midnightblue" points="310.5,-88.86 300.14,-86.64 306.86,-94.83 310.5,-88.86"/>
</g>
<!-- Node27 -->
<g id="node27" class="node">
<title>Node27</title>
<g id="a_node27"><a xlink:title=" ">
<polygon fill="white" stroke="#bfbfbf" points="331.5,-67.5 331.5,-86.5 399.5,-86.5 399.5,-67.5 331.5,-67.5"/>
<text text-anchor="middle" x="365.5" y="-74.5" font-family="Helvetica,sans-Serif" font-size="10.00">filesystem</text>
</a>
</g>
</g>
<!-- Node22&#45;&gt;Node27 -->
<g id="edge26" class="edge">
<title>Node22&#45;&gt;Node27</title>
<path fill="none" stroke="midnightblue" d="M790.49,-136.09C785.79,-135.33 781.04,-134.61 776.5,-134 613.65,-111.97 567.04,-141.27 408.5,-98 402.29,-96.31 395.87,-93.78 389.94,-91.09"/>
<polygon fill="midnightblue" stroke="midnightblue" points="391.07,-87.75 380.55,-86.53 388.01,-94.05 391.07,-87.75"/>
</g>
<!-- Node28 -->
<g id="node28" class="node">
<title>Node28</title>
<g id="a_node28"><a xlink:title=" ">
<polygon fill="white" stroke="#bfbfbf" points="418,-67.5 418,-86.5 473,-86.5 473,-67.5 418,-67.5"/>
<text text-anchor="middle" x="445.5" y="-74.5" font-family="Helvetica,sans-Serif" font-size="10.00">fstream</text>
</a>
</g>
</g>
<!-- Node22&#45;&gt;Node28 -->
<g id="edge27" class="edge">
<title>Node22&#45;&gt;Node28</title>
<path fill="none" stroke="midnightblue" d="M790.48,-136.2C785.78,-135.42 781.03,-134.67 776.5,-134 646.27,-114.77 607.92,-138 482.5,-98 477.54,-96.42 472.48,-94.17 467.75,-91.74"/>
<polygon fill="midnightblue" stroke="midnightblue" points="469.1,-88.49 458.66,-86.68 465.7,-94.61 469.1,-88.49"/>
</g>
<!-- Node29 -->
<g id="node29" class="node">
<title>Node29</title>
<g id="a_node29"><a xlink:title=" ">
<polygon fill="white" stroke="#bfbfbf" points="491.5,-67.5 491.5,-86.5 539.5,-86.5 539.5,-67.5 491.5,-67.5"/>
<text text-anchor="middle" x="515.5" y="-74.5" font-family="Helvetica,sans-Serif" font-size="10.00">gsl/gsl</text>
</a>
</g>
</g>
<!-- Node22&#45;&gt;Node29 -->
<g id="edge28" class="edge">
<title>Node22&#45;&gt;Node29</title>
<path fill="none" stroke="midnightblue" d="M790.46,-136.35C785.76,-135.55 781.02,-134.75 776.5,-134 675.29,-117.25 644.84,-133.25 548.5,-98 544.25,-96.45 539.95,-94.32 535.92,-92.03"/>
<polygon fill="midnightblue" stroke="midnightblue" points="537.5,-88.89 527.15,-86.6 533.81,-94.84 537.5,-88.89"/>
</g>
<!-- Node30 -->
<g id="node30" class="node">
<title>Node30</title>
<g id="a_node30"><a xlink:title=" ">
<polygon fill="white" stroke="#bfbfbf" points="557.5,-67.5 557.5,-86.5 617.5,-86.5 617.5,-67.5 557.5,-67.5"/>
<text text-anchor="middle" x="587.5" y="-74.5" font-family="Helvetica,sans-Serif" font-size="10.00">iostream</text>
</a>
</g>
</g>
<!-- Node22&#45;&gt;Node30 -->
<g id="edge29" class="edge">
<title>Node22&#45;&gt;Node30</title>
<path fill="none" stroke="midnightblue" d="M790.36,-135.71C740.56,-125.98 656.24,-108.74 626.5,-98 621.35,-96.14 616.02,-93.75 611.01,-91.27"/>
<polygon fill="midnightblue" stroke="midnightblue" points="612.4,-88.05 601.92,-86.51 609.16,-94.25 612.4,-88.05"/>
</g>
<!-- Node31 -->
<g id="node31" class="node">
<title>Node31</title>
<g id="a_node31"><a xlink:title=" ">
<polygon fill="white" stroke="#bfbfbf" points="635.5,-67.5 635.5,-86.5 683.5,-86.5 683.5,-67.5 635.5,-67.5"/>
<text text-anchor="middle" x="659.5" y="-74.5" font-family="Helvetica,sans-Serif" font-size="10.00">mutex</text>
</a>
</g>
</g>
<!-- Node22&#45;&gt;Node31 -->
<g id="edge30" class="edge">
<title>Node22&#45;&gt;Node31</title>
<path fill="none" stroke="midnightblue" d="M795.84,-134.44C767.79,-126.56 726.6,-113.73 692.5,-98 688.71,-96.25 684.81,-94.17 681.07,-92.02"/>
<polygon fill="midnightblue" stroke="midnightblue" points="682.66,-88.88 672.3,-86.68 679.02,-94.87 682.66,-88.88"/>
</g>
<!-- Node32 -->
<g id="node32" class="node">
<title>Node32</title>
<g id="a_node32"><a xlink:title=" ">
<polygon fill="white" stroke="#bfbfbf" points="701.5,-67.5 701.5,-86.5 755.5,-86.5 755.5,-67.5 701.5,-67.5"/>
<text text-anchor="middle" x="728.5" y="-74.5" font-family="Helvetica,sans-Serif" font-size="10.00">random</text>
</a>
</g>
</g>
<!-- Node22&#45;&gt;Node32 -->
<g id="edge31" class="edge">
<title>Node22&#45;&gt;Node32</title>
<path fill="none" stroke="midnightblue" d="M815.01,-134.23C798.45,-123.46 770.12,-105.05 750.41,-92.24"/>
<polygon fill="midnightblue" stroke="midnightblue" points="752.06,-89.14 741.77,-86.63 748.25,-95.01 752.06,-89.14"/>
</g>
<!-- Node33 -->
<g id="node33" class="node">
<title>Node33</title>
<g id="a_node33"><a xlink:title=" ">
<polygon fill="white" stroke="#bfbfbf" points="773.5,-67.5 773.5,-86.5 813.5,-86.5 813.5,-67.5 773.5,-67.5"/>
<text text-anchor="middle" x="793.5" y="-74.5" font-family="Helvetica,sans-Serif" font-size="10.00">span</text>
</a>
</g>
</g>
<!-- Node22&#45;&gt;Node33 -->
<g id="edge32" class="edge">
<title>Node22&#45;&gt;Node33</title>
<path fill="none" stroke="midnightblue" d="M823.78,-134.23C818.48,-124.39 809.74,-108.16 803.01,-95.66"/>
<polygon fill="midnightblue" stroke="midnightblue" points="805.97,-93.77 798.15,-86.63 799.8,-97.09 805.97,-93.77"/>
</g>
<!-- Node34 -->
<g id="node34" class="node">
<title>Node34</title>
<g id="a_node34"><a xlink:title=" ">
<polygon fill="white" stroke="#bfbfbf" points="832,-67.5 832,-86.5 897,-86.5 897,-67.5 832,-67.5"/>
<text text-anchor="middle" x="864.5" y="-74.5" font-family="Helvetica,sans-Serif" font-size="10.00">stdexcept</text>
</a>
</g>
</g>
<!-- Node22&#45;&gt;Node34 -->
<g id="edge33" class="edge">
<title>Node22&#45;&gt;Node34</title>
<path fill="none" stroke="midnightblue" d="M833.36,-134.23C838.81,-124.39 847.8,-108.16 854.72,-95.66"/>
<polygon fill="midnightblue" stroke="midnightblue" points="857.94,-97.07 859.72,-86.63 851.81,-93.68 857.94,-97.07"/>
</g>
<!-- Node35 -->
<g id="node35" class="node">
<title>Node35</title>
<g id="a_node35"><a xlink:title=" ">
<polygon fill="white" stroke="#bfbfbf" points="915.5,-67.5 915.5,-86.5 959.5,-86.5 959.5,-67.5 915.5,-67.5"/>
<text text-anchor="middle" x="937.5" y="-74.5" font-family="Helvetica,sans-Serif" font-size="10.00">string</text>
</a>
</g>
</g>
<!-- Node22&#45;&gt;Node35 -->
<g id="edge34" class="edge">
<title>Node22&#45;&gt;Node35</title>
<path fill="none" stroke="midnightblue" d="M843.88,-134.43C859.7,-125.53 885.02,-111.12 906.5,-98 909.6,-96.11 912.85,-94.07 916.03,-92.05"/>
<polygon fill="midnightblue" stroke="midnightblue" points="918.11,-94.87 924.62,-86.51 914.32,-88.99 918.11,-94.87"/>
</g>
<!-- Node36 -->
<g id="node36" class="node">
<title>Node36</title>
<g id="a_node36"><a xlink:title=" ">
<polygon fill="white" stroke="#bfbfbf" points="978,-67.5 978,-86.5 1043,-86.5 1043,-67.5 978,-67.5"/>
<text text-anchor="middle" x="1010.5" y="-74.5" font-family="Helvetica,sans-Serif" font-size="10.00">typeindex</text>
</a>
</g>
</g>
<!-- Node22&#45;&gt;Node36 -->
<g id="edge35" class="edge">
<title>Node22&#45;&gt;Node36</title>
<path fill="none" stroke="midnightblue" d="M858.95,-134.49C887.59,-126.19 931.48,-112.69 968.5,-98 973.85,-95.88 979.47,-93.39 984.81,-90.9"/>
<polygon fill="midnightblue" stroke="midnightblue" points="986.47,-93.98 993.97,-86.5 983.44,-87.67 986.47,-93.98"/>
</g>
<!-- Node37 -->
<g id="node37" class="node">
<title>Node37</title>
<g id="a_node37"><a xlink:title=" ">
<polygon fill="white" stroke="#bfbfbf" points="1061,-67.5 1061,-86.5 1120,-86.5 1120,-67.5 1061,-67.5"/>
<text text-anchor="middle" x="1090.5" y="-74.5" font-family="Helvetica,sans-Serif" font-size="10.00">date/tz.h</text>
</a>
</g>
</g>
<!-- Node22&#45;&gt;Node37 -->
<g id="edge36" class="edge">
<title>Node22&#45;&gt;Node37</title>
<path fill="none" stroke="midnightblue" d="M866.64,-138.72C911.95,-132.86 989.33,-120.44 1052.5,-98 1057.55,-96.21 1062.76,-93.84 1067.65,-91.37"/>
<polygon fill="midnightblue" stroke="midnightblue" points="1069.36,-94.42 1076.5,-86.6 1066.04,-88.26 1069.36,-94.42"/>
</g>
<!-- Node38 -->
<g id="node38" class="node">
<title>Node38</title>
<g id="a_node38"><a xlink:title=" ">
<polygon fill="white" stroke="#bfbfbf" points="1138.5,-67.5 1138.5,-86.5 1236.5,-86.5 1236.5,-67.5 1138.5,-67.5"/>
<text text-anchor="middle" x="1187.5" y="-74.5" font-family="Helvetica,sans-Serif" font-size="10.00">pcg_random.hpp</text>
</a>
</g>
</g>
<!-- Node22&#45;&gt;Node38 -->
<g id="edge37" class="edge">
<title>Node22&#45;&gt;Node38</title>
<path fill="none" stroke="midnightblue" d="M866.95,-139.54C924.6,-133.83 1036.61,-120.75 1129.5,-98 1138.27,-95.85 1147.6,-92.93 1156.15,-89.99"/>
<polygon fill="midnightblue" stroke="midnightblue" points="1157.51,-93.22 1165.75,-86.56 1155.16,-86.62 1157.51,-93.22"/>
</g>
<!-- Node39 -->
<g id="node39" class="node">
<title>Node39</title>
<g id="a_node39"><a xlink:title=" ">
<polygon fill="white" stroke="#bfbfbf" points="1254.5,-67.5 1254.5,-86.5 1340.5,-86.5 1340.5,-67.5 1254.5,-67.5"/>
<text text-anchor="middle" x="1297.5" y="-74.5" font-family="Helvetica,sans-Serif" font-size="10.00">fmt/ostream.h</text>
</a>
</g>
</g>
<!-- Node22&#45;&gt;Node39 -->
<g id="edge38" class="edge">
<title>Node22&#45;&gt;Node39</title>
<path fill="none" stroke="midnightblue" d="M866.73,-142.18C940.82,-139.86 1108.73,-131.08 1245.5,-98 1253.34,-96.1 1261.6,-93.32 1269.16,-90.42"/>
<polygon fill="midnightblue" stroke="midnightblue" points="1270.64,-93.6 1278.62,-86.63 1268.03,-87.11 1270.64,-93.6"/>
</g>
<!-- Node40 -->
<g id="node40" class="node">
<title>Node40</title>
<g id="a_node40"><a xlink:title=" ">
<polygon fill="white" stroke="#bfbfbf" points="1358.5,-62 1358.5,-92 1464.5,-92 1464.5,-62 1358.5,-62"/>
<text text-anchor="start" x="1366.5" y="-80" font-family="Helvetica,sans-Serif" font-size="10.00">spdlog/sinks/basic</text>
<text text-anchor="middle" x="1411.5" y="-69" font-family="Helvetica,sans-Serif" font-size="10.00">_file_sink.h</text>
</a>
</g>
</g>
<!-- Node22&#45;&gt;Node40 -->
<g id="edge39" class="edge">
<title>Node22&#45;&gt;Node40</title>
<path fill="none" stroke="midnightblue" d="M866.51,-142.64C953.09,-141.2 1171.29,-133.96 1349.5,-98 1353.86,-97.12 1358.34,-96.04 1362.81,-94.84"/>
<polygon fill="midnightblue" stroke="midnightblue" points="1363.85,-98.18 1372.5,-92.06 1361.92,-91.45 1363.85,-98.18"/>
</g>
<!-- Node41 -->
<g id="node41" class="node">
<title>Node41</title>
<g id="a_node41"><a xlink:title=" ">
<polygon fill="white" stroke="#bfbfbf" points="1483,-62 1483,-92 1594,-92 1594,-62 1483,-62"/>
<text text-anchor="start" x="1491" y="-80" font-family="Helvetica,sans-Serif" font-size="10.00">spdlog/sinks/stdout</text>
<text text-anchor="middle" x="1538.5" y="-69" font-family="Helvetica,sans-Serif" font-size="10.00">_color_sinks.h</text>
</a>
</g>
</g>
<!-- Node22&#45;&gt;Node41 -->
<g id="edge40" class="edge">
<title>Node22&#45;&gt;Node41</title>
<path fill="none" stroke="midnightblue" d="M866.69,-143.36C967.05,-143.67 1246.17,-140.33 1473.5,-98 1478.26,-97.11 1483.15,-96 1488.03,-94.75"/>
<polygon fill="midnightblue" stroke="midnightblue" points="1489.22,-98.06 1497.94,-92.04 1487.37,-91.3 1489.22,-98.06"/>
</g>
</g>
</svg>
        <g id="navigator" transform="translate(0 0)" fill="#404254">
                <rect fill="#f2f5e9" fill-opacity="0.5" stroke="#606060" stroke-width=".5" x="0" y="0" width="60" height="60"/>
                <use id="zoomplus" xlink:href="#zoomPlus" x="17" y="9" onmousedown="handleZoom(evt,'in')"/>
                <use id="zoomminus" xlink:href="#zoomMin" x="42" y="9" onmousedown="handleZoom(evt,'out')"/>
                <use id="reset" xlink:href="#resetDef" x="30" y="36" onmousedown="handleReset()"/>
                <g id="arrowUp" xlink:href="#dirArrow" transform="translate(30 24)" onmousedown="handlePan(0,-1)">
                  <use xlink:href="#rim" fill="#404040">
                        <set attributeName="fill" to="#808080" begin="arrowUp.mouseover" end="arrowUp.mouseout"/>
                  </use>
                  <path fill="none" stroke="white" stroke-width="1.5" d="M0,-3.0v7 M-2.5,-0.5L0,-3.0L2.5,-0.5"/>
                </g>
                <g id="arrowRight" xlink:href="#dirArrow" transform="rotate(90) translate(36 -43)" onmousedown="handlePan(1,0)">
                  <use xlink:href="#rim" fill="#404040">
                        <set attributeName="fill" to="#808080" begin="arrowRight.mouseover" end="arrowRight.mouseout"/>
                  </use>
                  <path fill="none" stroke="white" stroke-width="1.5" d="M0,-3.0v7 M-2.5,-0.5L0,-3.0L2.5,-0.5"/>
                </g>
                <g id="arrowDown" xlink:href="#dirArrow" transform="rotate(180) translate(-30 -48)" onmousedown="handlePan(0,1)">
                  <use xlink:href="#rim" fill="#404040">
                        <set attributeName="fill" to="#808080" begin="arrowDown.mouseover" end="arrowDown.mouseout"/>
                  </use>
                  <path fill="none" stroke="white" stroke-width="1.5" d="M0,-3.0v7 M-2.5,-0.5L0,-3.0L2.5,-0.5"/>
                </g>
                <g id="arrowLeft" xlink:href="#dirArrow" transform="rotate(270) translate(-36 17)" onmousedown="handlePan(-1,0)">
                  <use xlink:href="#rim" fill="#404040">
                        <set attributeName="fill" to="#808080" begin="arrowLeft.mouseover" end="arrowLeft.mouseout"/>
                  </use>
                  <path fill="none" stroke="white" stroke-width="1.5" d="M0,-3.0v7 M-2.5,-0.5L0,-3.0L2.5,-0.5"/>
                </g>
        </g>
        <svg viewBox="0 0 15 15" width="100%" height="30px" preserveAspectRatio="xMaxYMin meet">
         <g id="arrow_out" transform="scale(0.3 0.3)">
          <a xlink:href="cdt-viewer_8cpp__incl_org.svg" target="_base">
           <rect id="button" ry="5" rx="5" y="6" x="6" height="38" width="38"
                fill="#f2f5e9" fill-opacity="0.5" stroke="#606060" stroke-width="1.0"/>
           <path id="arrow"
             d="M 11.500037,31.436501 C 11.940474,20.09759 22.043105,11.32322 32.158766,21.979434 L 37.068811,17.246167 C 37.068811,17.246167 37.088388,32 37.088388,32 L 22.160133,31.978069 C 22.160133,31.978069 26.997745,27.140456 26.997745,27.140456 C 18.528582,18.264221 13.291696,25.230495 11.500037,31.436501 z"
             style="fill:#404040;"/>
          </a>
         </g>
        </svg>
</svg>
