<?xml version="1.0" encoding="UTF-8" standalone="no"?>
<!DOCTYPE svg PUBLIC "-//W3C//DTD SVG 1.1//EN"
 "http://www.w3.org/Graphics/SVG/1.1/DTD/svg11.dtd">
<!-- Generated by graphviz version 2.43.0 (0)
 -->
<!-- Title: src/cdt&#45;viewer.cpp Pages: 1 -->
<svg width="2161pt" height="386pt"
 viewBox="0.00 0.00 2161.00 386.00" xmlns="http://www.w3.org/2000/svg" xmlns:xlink="http://www.w3.org/1999/xlink">
<g id="graph0" class="graph" transform="scale(1 1) rotate(0) translate(4 382)">
<title>src/cdt&#45;viewer.cpp</title>
<polygon fill="white" stroke="transparent" points="-4,4 -4,-382 2157,-382 2157,4 -4,4"/>
<!-- Node1 -->
<g id="node1" class="node">
<title>Node1</title>
<g id="a_node1"><a xlink:title="Views 3D spacetimes.">
<polygon fill="#bfbfbf" stroke="black" points="327,-358.5 327,-377.5 431,-377.5 431,-358.5 327,-358.5"/>
<text text-anchor="middle" x="379" y="-365.5" font-family="Helvetica,sans-Serif" font-size="10.00">src/cdt&#45;viewer.cpp</text>
</a>
</g>
</g>
<!-- Node2 -->
<g id="node2" class="node">
<title>Node2</title>
<g id="a_node2"><a xlink:title=" ">
<polygon fill="white" stroke="#bfbfbf" points="0,-302.5 0,-321.5 158,-321.5 158,-302.5 0,-302.5"/>
<text text-anchor="middle" x="79" y="-309.5" font-family="Helvetica,sans-Serif" font-size="10.00">CGAL/draw_triangulation_3.h</text>
</a>
</g>
</g>
<!-- Node1&#45;&gt;Node2 -->
<g id="edge1" class="edge">
<title>Node1&#45;&gt;Node2</title>
<path fill="none" stroke="midnightblue" d="M331.46,-358.44C278.47,-348.9 192.8,-333.48 136.18,-323.29"/>
<polygon fill="midnightblue" stroke="midnightblue" points="136.78,-319.84 126.31,-321.52 135.54,-326.73 136.78,-319.84"/>
</g>
<!-- Node3 -->
<g id="node3" class="node">
<title>Node3</title>
<g id="a_node3"><a xlink:title=" ">
<polygon fill="white" stroke="#bfbfbf" points="176.5,-302.5 176.5,-321.5 271.5,-321.5 271.5,-302.5 176.5,-302.5"/>
<text text-anchor="middle" x="224" y="-309.5" font-family="Helvetica,sans-Serif" font-size="10.00">docopt/docopt.h</text>
</a>
</g>
</g>
<!-- Node1&#45;&gt;Node3 -->
<g id="edge2" class="edge">
<title>Node1&#45;&gt;Node3</title>
<path fill="none" stroke="midnightblue" d="M354.44,-358.44C328.48,-349.4 287.33,-335.06 258.2,-324.92"/>
<polygon fill="midnightblue" stroke="midnightblue" points="259.04,-321.5 248.45,-321.52 256.74,-328.11 259.04,-321.5"/>
</g>
<!-- Node4 -->
<g id="node4" class="node">
<title>Node4</title>
<g id="a_node4"><a xlink:title=" ">
<polygon fill="white" stroke="#bfbfbf" points="289.5,-302.5 289.5,-321.5 390.5,-321.5 390.5,-302.5 289.5,-302.5"/>
<text text-anchor="middle" x="340" y="-309.5" font-family="Helvetica,sans-Serif" font-size="10.00">doctest/doctest.h</text>
</a>
</g>
</g>
<!-- Node1&#45;&gt;Node4 -->
<g id="edge3" class="edge">
<title>Node1&#45;&gt;Node4</title>
<path fill="none" stroke="midnightblue" d="M372.56,-358.08C367.05,-350.46 358.97,-339.26 352.24,-329.94"/>
<polygon fill="midnightblue" stroke="midnightblue" points="355.01,-327.81 346.32,-321.75 349.34,-331.91 355.01,-327.81"/>
</g>
<!-- Node5 -->
<g id="node5" class="node">
<title>Node5</title>
<g id="a_node5"><a xlink:title=" ">
<polygon fill="white" stroke="#bfbfbf" points="5.5,-67.5 5.5,-86.5 98.5,-86.5 98.5,-67.5 5.5,-67.5"/>
<text text-anchor="middle" x="52" y="-74.5" font-family="Helvetica,sans-Serif" font-size="10.00">spdlog/spdlog.h</text>
</a>
</g>
</g>
<!-- Node1&#45;&gt;Node5 -->
<g id="edge4" class="edge">
<title>Node1&#45;&gt;Node5</title>
<path fill="none" stroke="midnightblue" d="M384.56,-358.27C395.55,-340.15 419,-296.83 419,-257 419,-257 419,-257 419,-199 419,-53.25 244.84,-145.36 107,-98 99.73,-95.5 91.96,-92.74 84.61,-90.08"/>
<polygon fill="midnightblue" stroke="midnightblue" points="85.54,-86.69 74.95,-86.55 83.14,-93.27 85.54,-86.69"/>
</g>
<!-- Node6 -->
<g id="node6" class="node">
<title>Node6</title>
<g id="a_node6"><a xlink:href="_manifold_8hpp.html" target="_top" xlink:title="Data structures for manifolds.">
<polygon fill="white" stroke="black" points="540,-302.5 540,-321.5 620,-321.5 620,-302.5 540,-302.5"/>
<text text-anchor="middle" x="580" y="-309.5" font-family="Helvetica,sans-Serif" font-size="10.00">Manifold.hpp</text>
</a>
</g>
</g>
<!-- Node1&#45;&gt;Node6 -->
<g id="edge5" class="edge">
<title>Node1&#45;&gt;Node6</title>
<path fill="none" stroke="midnightblue" d="M410.85,-358.44C445.4,-349.16 500.68,-334.31 538.58,-324.13"/>
<polygon fill="midnightblue" stroke="midnightblue" points="539.55,-327.49 548.3,-321.52 537.73,-320.73 539.55,-327.49"/>
</g>
<!-- Node20 -->
<g id="node20" class="node">
<title>Node20</title>
<g id="a_node20"><a xlink:href="_utilities_8hpp.html" target="_top" xlink:title="Utility functions.">
<polygon fill="white" stroke="black" points="520,-134.5 520,-153.5 596,-153.5 596,-134.5 520,-134.5"/>
<text text-anchor="middle" x="558" y="-141.5" font-family="Helvetica,sans-Serif" font-size="10.00">Utilities.hpp</text>
</a>
</g>
</g>
<!-- Node1&#45;&gt;Node20 -->
<g id="edge35" class="edge">
<title>Node1&#45;&gt;Node20</title>
<path fill="none" stroke="midnightblue" d="M391.7,-358.46C403.42,-350.13 420.8,-336.62 433,-322 457.87,-292.2 454.14,-278.07 476,-246 497.5,-214.46 526.35,-180.55 543.47,-161.14"/>
<polygon fill="midnightblue" stroke="midnightblue" points="546.21,-163.33 550.24,-153.53 540.98,-158.68 546.21,-163.33"/>
</g>
<!-- Node7 -->
<g id="node7" class="node">
<title>Node7</title>
<g id="a_node7"><a xlink:title=" ">
<polygon fill="white" stroke="#bfbfbf" points="692.5,-246.5 692.5,-265.5 745.5,-265.5 745.5,-246.5 692.5,-246.5"/>
<text text-anchor="middle" x="719" y="-253.5" font-family="Helvetica,sans-Serif" font-size="10.00">cstddef</text>
</a>
</g>
</g>
<!-- Node6&#45;&gt;Node7 -->
<g id="edge6" class="edge">
<title>Node6&#45;&gt;Node7</title>
<path fill="none" stroke="midnightblue" d="M602.02,-302.44C625.1,-293.48 661.56,-279.31 687.64,-269.18"/>
<polygon fill="midnightblue" stroke="midnightblue" points="689.02,-272.4 697.08,-265.52 686.49,-265.88 689.02,-272.4"/>
</g>
<!-- Node8 -->
<g id="node8" class="node">
<title>Node8</title>
<g id="a_node8"><a xlink:title=" ">
<polygon fill="white" stroke="#bfbfbf" points="485,-246.5 485,-265.5 571,-265.5 571,-246.5 485,-246.5"/>
<text text-anchor="middle" x="528" y="-253.5" font-family="Helvetica,sans-Serif" font-size="10.00">unordered_set</text>
</a>
</g>
</g>
<!-- Node6&#45;&gt;Node8 -->
<g id="edge7" class="edge">
<title>Node6&#45;&gt;Node8</title>
<path fill="none" stroke="midnightblue" d="M571.41,-302.08C563.84,-294.22 552.62,-282.57 543.49,-273.08"/>
<polygon fill="midnightblue" stroke="midnightblue" points="545.88,-270.53 536.43,-265.75 540.84,-275.38 545.88,-270.53"/>
</g>
<!-- Node9 -->
<g id="node9" class="node">
<title>Node9</title>
<g id="a_node9"><a xlink:href="_geometry_8hpp.html" target="_top" xlink:title="Geometric scalars of the Manifold used to calculate the Regge action.">
<polygon fill="white" stroke="black" points="589.5,-246.5 589.5,-265.5 674.5,-265.5 674.5,-246.5 589.5,-246.5"/>
<text text-anchor="middle" x="632" y="-253.5" font-family="Helvetica,sans-Serif" font-size="10.00">Geometry.hpp</text>
</a>
</g>
</g>
<!-- Node6&#45;&gt;Node9 -->
<g id="edge8" class="edge">
<title>Node6&#45;&gt;Node9</title>
<path fill="none" stroke="midnightblue" d="M588.59,-302.08C596.16,-294.22 607.38,-282.57 616.51,-273.08"/>
<polygon fill="midnightblue" stroke="midnightblue" points="619.16,-275.38 623.57,-265.75 614.12,-270.53 619.16,-275.38"/>
</g>
<!-- Node10 -->
<g id="node10" class="node">
<title>Node10</title>
<g id="a_node10"><a xlink:href="_foliated__triangulation_8hpp.html" target="_top" xlink:title="Create foliated spherical triangulations.">
<polygon fill="white" stroke="black" points="560,-190.5 560,-209.5 704,-209.5 704,-190.5 560,-190.5"/>
<text text-anchor="middle" x="632" y="-197.5" font-family="Helvetica,sans-Serif" font-size="10.00">Foliated_triangulation.hpp</text>
</a>
</g>
</g>
<!-- Node9&#45;&gt;Node10 -->
<g id="edge9" class="edge">
<title>Node9&#45;&gt;Node10</title>
<path fill="none" stroke="midnightblue" d="M632,-246.08C632,-239.01 632,-228.86 632,-219.99"/>
<polygon fill="midnightblue" stroke="midnightblue" points="635.5,-219.75 632,-209.75 628.5,-219.75 635.5,-219.75"/>
</g>
<!-- Node11 -->
<g id="node11" class="node">
<title>Node11</title>
<g id="a_node11"><a xlink:href="_triangulation__traits_8hpp.html" target="_top" xlink:title="Traits class for particular uses of CGAL.">
<polygon fill="white" stroke="black" points="1529.5,-134.5 1529.5,-153.5 1660.5,-153.5 1660.5,-134.5 1529.5,-134.5"/>
<text text-anchor="middle" x="1595" y="-141.5" font-family="Helvetica,sans-Serif" font-size="10.00">Triangulation_traits.hpp</text>
</a>
</g>
</g>
<!-- Node10&#45;&gt;Node11 -->
<g id="edge10" class="edge">
<title>Node10&#45;&gt;Node11</title>
<path fill="none" stroke="midnightblue" d="M704.38,-194.94C881.92,-184.99 1337.65,-159.43 1518.95,-149.26"/>
<polygon fill="midnightblue" stroke="midnightblue" points="1519.4,-152.74 1529.19,-148.69 1519.01,-145.76 1519.4,-152.74"/>
</g>
<!-- Node10&#45;&gt;Node20 -->
<g id="edge19" class="edge">
<title>Node10&#45;&gt;Node20</title>
<path fill="none" stroke="midnightblue" d="M620.11,-190.32C608.85,-182.11 591.71,-169.6 578.29,-159.81"/>
<polygon fill="midnightblue" stroke="midnightblue" points="580.25,-156.9 570.11,-153.83 576.12,-162.56 580.25,-156.9"/>
</g>
<!-- Node12 -->
<g id="node12" class="node">
<title>Node12</title>
<g id="a_node12"><a xlink:title=" ">
<polygon fill="white" stroke="#bfbfbf" points="1332,-67.5 1332,-86.5 1512,-86.5 1512,-67.5 1332,-67.5"/>
<text text-anchor="middle" x="1422" y="-74.5" font-family="Helvetica,sans-Serif" font-size="10.00">CGAL/Delaunay_triangulation_3.h</text>
</a>
</g>
</g>
<!-- Node11&#45;&gt;Node12 -->
<g id="edge11" class="edge">
<title>Node11&#45;&gt;Node12</title>
<path fill="none" stroke="midnightblue" d="M1572.03,-134.37C1541.83,-123.02 1488.6,-103.02 1454.34,-90.15"/>
<polygon fill="midnightblue" stroke="midnightblue" points="1455.38,-86.8 1444.79,-86.56 1452.92,-93.36 1455.38,-86.8"/>
</g>
<!-- Node13 -->
<g id="node13" class="node">
<title>Node13</title>
<g id="a_node13"><a xlink:title=" ">
<polygon fill="white" stroke="#bfbfbf" points="1530.5,-56.5 1530.5,-97.5 1659.5,-97.5 1659.5,-56.5 1530.5,-56.5"/>
<text text-anchor="start" x="1538.5" y="-85.5" font-family="Helvetica,sans-Serif" font-size="10.00">CGAL/Exact_predicates</text>
<text text-anchor="start" x="1538.5" y="-74.5" font-family="Helvetica,sans-Serif" font-size="10.00">_inexact_constructions</text>
<text text-anchor="middle" x="1595" y="-63.5" font-family="Helvetica,sans-Serif" font-size="10.00">_kernel.h</text>
</a>
</g>
</g>
<!-- Node11&#45;&gt;Node13 -->
<g id="edge12" class="edge">
<title>Node11&#45;&gt;Node13</title>
<path fill="none" stroke="midnightblue" d="M1595,-134.23C1595,-127.36 1595,-117.38 1595,-107.73"/>
<polygon fill="midnightblue" stroke="midnightblue" points="1598.5,-107.54 1595,-97.54 1591.5,-107.54 1598.5,-107.54"/>
</g>
<!-- Node14 -->
<g id="node14" class="node">
<title>Node14</title>
<g id="a_node14"><a xlink:title=" ">
<polygon fill="white" stroke="#bfbfbf" points="1677.5,-67.5 1677.5,-86.5 1826.5,-86.5 1826.5,-67.5 1677.5,-67.5"/>
<text text-anchor="middle" x="1752" y="-74.5" font-family="Helvetica,sans-Serif" font-size="10.00">CGAL/point_generators_3.h</text>
</a>
</g>
</g>
<!-- Node11&#45;&gt;Node14 -->
<g id="edge13" class="edge">
<title>Node11&#45;&gt;Node14</title>
<path fill="none" stroke="midnightblue" d="M1615.85,-134.37C1642.94,-123.15 1690.46,-103.48 1721.58,-90.59"/>
<polygon fill="midnightblue" stroke="midnightblue" points="1723.16,-93.73 1731.07,-86.67 1720.49,-87.26 1723.16,-93.73"/>
</g>
<!-- Node15 -->
<g id="node15" class="node">
<title>Node15</title>
<g id="a_node15"><a xlink:title=" ">
<polygon fill="white" stroke="#bfbfbf" points="1845,-62 1845,-92 1983,-92 1983,-62 1845,-62"/>
<text text-anchor="start" x="1853" y="-80" font-family="Helvetica,sans-Serif" font-size="10.00">CGAL/Triangulation</text>
<text text-anchor="middle" x="1914" y="-69" font-family="Helvetica,sans-Serif" font-size="10.00">_cell_base_with_info_3.h</text>
</a>
</g>
</g>
<!-- Node11&#45;&gt;Node15 -->
<g id="edge14" class="edge">
<title>Node11&#45;&gt;Node15</title>
<path fill="none" stroke="midnightblue" d="M1645.98,-134.49C1694.89,-126.09 1770.75,-112.44 1836,-98 1840.99,-96.9 1846.15,-95.7 1851.32,-94.46"/>
<polygon fill="midnightblue" stroke="midnightblue" points="1852.36,-97.81 1861.25,-92.03 1850.7,-91.01 1852.36,-97.81"/>
</g>
<!-- Node16 -->
<g id="node16" class="node">
<title>Node16</title>
<g id="a_node16"><a xlink:title=" ">
<polygon fill="white" stroke="#bfbfbf" points="2001,-62 2001,-92 2153,-92 2153,-62 2001,-62"/>
<text text-anchor="start" x="2009" y="-80" font-family="Helvetica,sans-Serif" font-size="10.00">CGAL/Triangulation</text>
<text text-anchor="middle" x="2077" y="-69" font-family="Helvetica,sans-Serif" font-size="10.00">_vertex_base_with_info_3.h</text>
</a>
</g>
</g>
<!-- Node11&#45;&gt;Node16 -->
<g id="edge15" class="edge">
<title>Node11&#45;&gt;Node16</title>
<path fill="none" stroke="midnightblue" d="M1660.67,-137.95C1739.68,-131.32 1876.16,-118.12 1992,-98 1998.27,-96.91 2004.78,-95.64 2011.26,-94.28"/>
<polygon fill="midnightblue" stroke="midnightblue" points="2012.38,-97.62 2021.41,-92.07 2010.9,-90.78 2012.38,-97.62"/>
</g>
<!-- Node17 -->
<g id="node17" class="node">
<title>Node17</title>
<g id="a_node17"><a xlink:href="_settings_8hpp.html" target="_top" xlink:title="Global integer and precision settings.">
<polygon fill="white" stroke="black" points="1236.5,-67.5 1236.5,-86.5 1313.5,-86.5 1313.5,-67.5 1236.5,-67.5"/>
<text text-anchor="middle" x="1275" y="-74.5" font-family="Helvetica,sans-Serif" font-size="10.00">Settings.hpp</text>
</a>
</g>
</g>
<!-- Node11&#45;&gt;Node17 -->
<g id="edge16" class="edge">
<title>Node11&#45;&gt;Node17</title>
<path fill="none" stroke="midnightblue" d="M1529.49,-136.46C1473.81,-129.88 1392.13,-117.83 1323,-98 1316.12,-96.03 1308.9,-93.36 1302.21,-90.61"/>
<polygon fill="midnightblue" stroke="midnightblue" points="1303.45,-87.34 1292.88,-86.61 1300.69,-93.77 1303.45,-87.34"/>
</g>
<!-- Node18 -->
<g id="node18" class="node">
<title>Node18</title>
<g id="a_node18"><a xlink:title=" ">
<polygon fill="white" stroke="#bfbfbf" points="1148,-0.5 1148,-19.5 1288,-19.5 1288,-0.5 1148,-0.5"/>
<text text-anchor="middle" x="1218" y="-7.5" font-family="Helvetica,sans-Serif" font-size="10.00">CGAL/GMP/Gmpzf_type.h</text>
</a>
</g>
</g>
<!-- Node17&#45;&gt;Node18 -->
<g id="edge17" class="edge">
<title>Node17&#45;&gt;Node18</title>
<path fill="none" stroke="midnightblue" d="M1267.31,-67.23C1258.34,-57 1243.31,-39.86 1232.2,-27.19"/>
<polygon fill="midnightblue" stroke="midnightblue" points="1234.79,-24.84 1225.57,-19.63 1229.53,-29.45 1234.79,-24.84"/>
</g>
<!-- Node19 -->
<g id="node19" class="node">
<title>Node19</title>
<g id="a_node19"><a xlink:title=" ">
<polygon fill="white" stroke="#bfbfbf" points="1306,-0.5 1306,-19.5 1356,-19.5 1356,-0.5 1306,-0.5"/>
<text text-anchor="middle" x="1331" y="-7.5" font-family="Helvetica,sans-Serif" font-size="10.00">cstdint</text>
</a>
</g>
</g>
<!-- Node17&#45;&gt;Node19 -->
<g id="edge18" class="edge">
<title>Node17&#45;&gt;Node19</title>
<path fill="none" stroke="midnightblue" d="M1282.55,-67.23C1291.28,-57.1 1305.85,-40.19 1316.74,-27.56"/>
<polygon fill="midnightblue" stroke="midnightblue" points="1319.69,-29.49 1323.57,-19.63 1314.39,-24.92 1319.69,-29.49"/>
</g>
<!-- Node20&#45;&gt;Node5 -->
<g id="edge33" class="edge">
<title>Node20&#45;&gt;Node5</title>
<path fill="none" stroke="midnightblue" d="M519.86,-139.74C418.38,-131 146.8,-107.07 107,-98 98.48,-96.06 89.47,-93.16 81.27,-90.17"/>
<polygon fill="midnightblue" stroke="midnightblue" points="82.34,-86.84 71.75,-86.54 79.85,-93.38 82.34,-86.84"/>
</g>
<!-- Node20&#45;&gt;Node17 -->
<g id="edge34" class="edge">
<title>Node20&#45;&gt;Node17</title>
<path fill="none" stroke="midnightblue" d="M596.32,-142.07C719.72,-138.8 1105.75,-126.51 1227,-98 1234.2,-96.31 1241.71,-93.65 1248.6,-90.81"/>
<polygon fill="midnightblue" stroke="midnightblue" points="1250.38,-93.85 1258.13,-86.63 1247.56,-87.45 1250.38,-93.85"/>
</g>
<!-- Node21 -->
<g id="node21" class="node">
<title>Node21</title>
<g id="a_node21"><a xlink:title=" ">
<polygon fill="white" stroke="#bfbfbf" points="1150,-67.5 1150,-86.5 1218,-86.5 1218,-67.5 1150,-67.5"/>
<text text-anchor="middle" x="1184" y="-74.5" font-family="Helvetica,sans-Serif" font-size="10.00">filesystem</text>
</a>
</g>
</g>
<!-- Node20&#45;&gt;Node21 -->
<g id="edge20" class="edge">
<title>Node20&#45;&gt;Node21</title>
<path fill="none" stroke="midnightblue" d="M596.11,-141.83C708.52,-138.11 1037.4,-125.14 1141,-98 1147.22,-96.37 1153.66,-93.87 1159.59,-91.19"/>
<polygon fill="midnightblue" stroke="midnightblue" points="1161.52,-94.14 1168.98,-86.61 1158.45,-87.84 1161.52,-94.14"/>
</g>
<!-- Node22 -->
<g id="node22" class="node">
<title>Node22</title>
<g id="a_node22"><a xlink:title=" ">
<polygon fill="white" stroke="#bfbfbf" points="116.5,-67.5 116.5,-86.5 171.5,-86.5 171.5,-67.5 116.5,-67.5"/>
<text text-anchor="middle" x="144" y="-74.5" font-family="Helvetica,sans-Serif" font-size="10.00">fstream</text>
</a>
</g>
</g>
<!-- Node20&#45;&gt;Node22 -->
<g id="edge21" class="edge">
<title>Node20&#45;&gt;Node22</title>
<path fill="none" stroke="midnightblue" d="M519.86,-140.27C437.13,-134.06 243.59,-117.86 181,-98 176.04,-96.43 170.98,-94.18 166.25,-91.76"/>
<polygon fill="midnightblue" stroke="midnightblue" points="167.6,-88.5 157.16,-86.69 164.19,-94.62 167.6,-88.5"/>
</g>
<!-- Node23 -->
<g id="node23" class="node">
<title>Node23</title>
<g id="a_node23"><a xlink:title=" ">
<polygon fill="white" stroke="#bfbfbf" points="190,-67.5 190,-86.5 238,-86.5 238,-67.5 190,-67.5"/>
<text text-anchor="middle" x="214" y="-74.5" font-family="Helvetica,sans-Serif" font-size="10.00">gsl/gsl</text>
</a>
</g>
</g>
<!-- Node20&#45;&gt;Node23 -->
<g id="edge22" class="edge">
<title>Node20&#45;&gt;Node23</title>
<path fill="none" stroke="midnightblue" d="M519.77,-139.39C448.16,-132.32 296.56,-115.77 247,-98 242.74,-96.47 238.44,-94.36 234.4,-92.08"/>
<polygon fill="midnightblue" stroke="midnightblue" points="235.98,-88.94 225.64,-86.64 232.29,-94.89 235.98,-88.94"/>
</g>
<!-- Node24 -->
<g id="node24" class="node">
<title>Node24</title>
<g id="a_node24"><a xlink:title=" ">
<polygon fill="white" stroke="#bfbfbf" points="256,-67.5 256,-86.5 304,-86.5 304,-67.5 256,-67.5"/>
<text text-anchor="middle" x="280" y="-74.5" font-family="Helvetica,sans-Serif" font-size="10.00">mutex</text>
</a>
</g>
</g>
<!-- Node20&#45;&gt;Node24 -->
<g id="edge23" class="edge">
<title>Node20&#45;&gt;Node24</title>
<path fill="none" stroke="midnightblue" d="M519.92,-140.3C470.74,-135.85 383.14,-124.66 313,-98 308.77,-96.39 304.48,-94.24 300.45,-91.95"/>
<polygon fill="midnightblue" stroke="midnightblue" points="302.03,-88.81 291.68,-86.52 298.34,-94.76 302.03,-88.81"/>
</g>
<!-- Node25 -->
<g id="node25" class="node">
<title>Node25</title>
<g id="a_node25"><a xlink:title=" ">
<polygon fill="white" stroke="#bfbfbf" points="322,-67.5 322,-86.5 376,-86.5 376,-67.5 322,-67.5"/>
<text text-anchor="middle" x="349" y="-74.5" font-family="Helvetica,sans-Serif" font-size="10.00">random</text>
</a>
</g>
</g>
<!-- Node20&#45;&gt;Node25 -->
<g id="edge24" class="edge">
<title>Node20&#45;&gt;Node25</title>
<path fill="none" stroke="midnightblue" d="M519.66,-135.93C484.01,-128.69 429.8,-115.94 385,-98 380.55,-96.22 375.96,-94 371.61,-91.69"/>
<polygon fill="midnightblue" stroke="midnightblue" points="373.05,-88.48 362.62,-86.64 369.62,-94.59 373.05,-88.48"/>
</g>
<!-- Node26 -->
<g id="node26" class="node">
<title>Node26</title>
<g id="a_node26"><a xlink:title=" ">
<polygon fill="white" stroke="#bfbfbf" points="394,-67.5 394,-86.5 434,-86.5 434,-67.5 394,-67.5"/>
<text text-anchor="middle" x="414" y="-74.5" font-family="Helvetica,sans-Serif" font-size="10.00">span</text>
</a>
</g>
</g>
<!-- Node20&#45;&gt;Node26 -->
<g id="edge25" class="edge">
<title>Node20&#45;&gt;Node26</title>
<path fill="none" stroke="midnightblue" d="M531.2,-134.48C507.39,-126.46 471.97,-113.39 443,-98 439.83,-96.31 436.58,-94.35 433.46,-92.32"/>
<polygon fill="midnightblue" stroke="midnightblue" points="435.41,-89.41 425.19,-86.61 431.43,-95.17 435.41,-89.41"/>
</g>
<!-- Node27 -->
<g id="node27" class="node">
<title>Node27</title>
<g id="a_node27"><a xlink:title=" ">
<polygon fill="white" stroke="#bfbfbf" points="452.5,-67.5 452.5,-86.5 517.5,-86.5 517.5,-67.5 452.5,-67.5"/>
<text text-anchor="middle" x="485" y="-74.5" font-family="Helvetica,sans-Serif" font-size="10.00">stdexcept</text>
</a>
</g>
</g>
<!-- Node20&#45;&gt;Node27 -->
<g id="edge26" class="edge">
<title>Node20&#45;&gt;Node27</title>
<path fill="none" stroke="midnightblue" d="M548.15,-134.23C536.44,-123.81 516.68,-106.21 502.38,-93.47"/>
<polygon fill="midnightblue" stroke="midnightblue" points="504.49,-90.66 494.69,-86.63 499.83,-95.89 504.49,-90.66"/>
</g>
<!-- Node28 -->
<g id="node28" class="node">
<title>Node28</title>
<g id="a_node28"><a xlink:title=" ">
<polygon fill="white" stroke="#bfbfbf" points="536,-67.5 536,-86.5 580,-86.5 580,-67.5 536,-67.5"/>
<text text-anchor="middle" x="558" y="-74.5" font-family="Helvetica,sans-Serif" font-size="10.00">string</text>
</a>
</g>
</g>
<!-- Node20&#45;&gt;Node28 -->
<g id="edge27" class="edge">
<title>Node20&#45;&gt;Node28</title>
<path fill="none" stroke="midnightblue" d="M558,-134.23C558,-124.68 558,-109.12 558,-96.78"/>
<polygon fill="midnightblue" stroke="midnightblue" points="561.5,-96.63 558,-86.63 554.5,-96.63 561.5,-96.63"/>
</g>
<!-- Node29 -->
<g id="node29" class="node">
<title>Node29</title>
<g id="a_node29"><a xlink:title=" ">
<polygon fill="white" stroke="#bfbfbf" points="598.5,-67.5 598.5,-86.5 657.5,-86.5 657.5,-67.5 598.5,-67.5"/>
<text text-anchor="middle" x="628" y="-74.5" font-family="Helvetica,sans-Serif" font-size="10.00">date/tz.h</text>
</a>
</g>
</g>
<!-- Node20&#45;&gt;Node29 -->
<g id="edge28" class="edge">
<title>Node20&#45;&gt;Node29</title>
<path fill="none" stroke="midnightblue" d="M567.44,-134.23C578.67,-123.81 597.62,-106.21 611.34,-93.47"/>
<polygon fill="midnightblue" stroke="midnightblue" points="613.76,-96 618.71,-86.63 609,-90.87 613.76,-96"/>
</g>
<!-- Node30 -->
<g id="node30" class="node">
<title>Node30</title>
<g id="a_node30"><a xlink:title=" ">
<polygon fill="white" stroke="#bfbfbf" points="676,-67.5 676,-86.5 774,-86.5 774,-67.5 676,-67.5"/>
<text text-anchor="middle" x="725" y="-74.5" font-family="Helvetica,sans-Serif" font-size="10.00">pcg_random.hpp</text>
</a>
</g>
</g>
<!-- Node20&#45;&gt;Node30 -->
<g id="edge29" class="edge">
<title>Node20&#45;&gt;Node30</title>
<path fill="none" stroke="midnightblue" d="M580.18,-134.37C609.2,-123.07 660.27,-103.2 693.35,-90.32"/>
<polygon fill="midnightblue" stroke="midnightblue" points="694.95,-93.45 703,-86.56 692.41,-86.93 694.95,-93.45"/>
</g>
<!-- Node31 -->
<g id="node31" class="node">
<title>Node31</title>
<g id="a_node31"><a xlink:title=" ">
<polygon fill="white" stroke="#bfbfbf" points="792,-67.5 792,-86.5 878,-86.5 878,-67.5 792,-67.5"/>
<text text-anchor="middle" x="835" y="-74.5" font-family="Helvetica,sans-Serif" font-size="10.00">fmt/ostream.h</text>
</a>
</g>
</g>
<!-- Node20&#45;&gt;Node31 -->
<g id="edge30" class="edge">
<title>Node20&#45;&gt;Node31</title>
<path fill="none" stroke="midnightblue" d="M596.29,-137.38C641.45,-130.28 718.53,-116.7 783,-98 790.41,-95.85 798.25,-93.1 805.53,-90.33"/>
<polygon fill="midnightblue" stroke="midnightblue" points="807,-93.51 815.02,-86.6 804.44,-87 807,-93.51"/>
</g>
<!-- Node32 -->
<g id="node32" class="node">
<title>Node32</title>
<g id="a_node32"><a xlink:title=" ">
<polygon fill="white" stroke="#bfbfbf" points="896,-62 896,-92 1002,-92 1002,-62 896,-62"/>
<text text-anchor="start" x="904" y="-80" font-family="Helvetica,sans-Serif" font-size="10.00">spdlog/sinks/basic</text>
<text text-anchor="middle" x="949" y="-69" font-family="Helvetica,sans-Serif" font-size="10.00">_file_sink.h</text>
</a>
</g>
</g>
<!-- Node20&#45;&gt;Node32 -->
<g id="edge31" class="edge">
<title>Node20&#45;&gt;Node32</title>
<path fill="none" stroke="midnightblue" d="M596.14,-139.98C657.84,-134.61 783.15,-121.66 887,-98 891.03,-97.08 895.18,-96.02 899.32,-94.87"/>
<polygon fill="midnightblue" stroke="midnightblue" points="900.31,-98.22 908.93,-92.06 898.35,-91.5 900.31,-98.22"/>
</g>
<!-- Node33 -->
<g id="node33" class="node">
<title>Node33</title>
<g id="a_node33"><a xlink:title=" ">
<polygon fill="white" stroke="#bfbfbf" points="1020.5,-62 1020.5,-92 1131.5,-92 1131.5,-62 1020.5,-62"/>
<text text-anchor="start" x="1028.5" y="-80" font-family="Helvetica,sans-Serif" font-size="10.00">spdlog/sinks/stdout</text>
<text text-anchor="middle" x="1076" y="-69" font-family="Helvetica,sans-Serif" font-size="10.00">_color_sinks.h</text>
</a>
</g>
</g>
<!-- Node20&#45;&gt;Node33 -->
<g id="edge32" class="edge">
<title>Node20&#45;&gt;Node33</title>
<path fill="none" stroke="midnightblue" d="M596.26,-141.77C674.75,-138.69 859.34,-128.55 1011,-98 1015.48,-97.1 1020.1,-96.01 1024.7,-94.81"/>
<polygon fill="midnightblue" stroke="midnightblue" points="1026,-98.09 1034.71,-92.05 1024.14,-91.34 1026,-98.09"/>
</g>
</g>
</svg>
