<?xml version="1.0" encoding="UTF-8" standalone="no"?>
<!DOCTYPE svg PUBLIC "-//W3C//DTD SVG 1.1//EN"
 "http://www.w3.org/Graphics/SVG/1.1/DTD/svg11.dtd">
<!-- Generated by graphviz version 2.43.0 (0)
 -->
<!-- Title: src/cdt&#45;opt.cpp Pages: 1 -->
<!--zoomable 386 -->
<svg id="main" version="1.1" xmlns="http://www.w3.org/2000/svg" xmlns:xlink="http://www.w3.org/1999/xlink" xml:space="preserve" onload="init(evt)">
<style type="text/css"><![CDATA[
.edge:hover path { stroke: red; }
.edge:hover polygon { stroke: red; fill: red; }
]]></style>
<script type="text/javascript"><![CDATA[
var edges = document.getElementsByTagName('g');
if (edges && edges.length) {
  for (var i=0;i<edges.length;i++) {
    if (edges[i].id.substr(0,4)=='edge') {
      edges[i].setAttribute('class','edge');
    }
  }
}
]]></script>
        <defs>
                <circle id="rim" cx="0" cy="0" r="7"/>
                <circle id="rim2" cx="0" cy="0" r="3.5"/>
                <g id="zoomPlus">
                        <use xlink:href="#rim" fill="#404040">
                                <set attributeName="fill" to="#808080" begin="zoomplus.mouseover" end="zoomplus.mouseout"/>
                        </use>
                        <path d="M-4,0h8M0,-4v8" fill="none" stroke="white" stroke-width="1.5" pointer-events="none"/>
                </g>
                <g id="zoomMin">
                        <use xlink:href="#rim" fill="#404040">
                                <set attributeName="fill" to="#808080" begin="zoomminus.mouseover" end="zoomminus.mouseout"/>
                        </use>
                        <path d="M-4,0h8" fill="none" stroke="white" stroke-width="1.5" pointer-events="none"/>
                </g>
                <g id="dirArrow">
                        <path fill="none" stroke="white" stroke-width="1.5" d="M0,-3.0v7 M-2.5,-0.5L0,-3.0L2.5,-0.5"/>
                </g>
               <g id="resetDef">
                       <use xlink:href="#rim2" fill="#404040">
                               <set attributeName="fill" to="#808080" begin="reset.mouseover" end="reset.mouseout"/>
                       </use>
               </g>
        </defs>

<script type="text/javascript">
var viewWidth = 2435;
var viewHeight = 386;
var sectionId = 'dynsection-0';
</script>
<script xlink:href="svgpan.js"/>
<svg id="graph" class="graph">
<g id="viewport">
<title>src/cdt&#45;opt.cpp</title>
<polygon fill="white" stroke="transparent" points="-4,4 -4,-382 2430.5,-382 2430.5,4 -4,4"/>
<!-- Node1 -->
<g id="node1" class="node">
<title>Node1</title>
<g id="a_node1"><a xlink:title="Outputs values to determine optimizations.">
<polygon fill="#bfbfbf" stroke="black" points="1873,-358.5 1873,-377.5 1962,-377.5 1962,-358.5 1873,-358.5"/>
<text text-anchor="middle" x="1917.5" y="-365.5" font-family="Helvetica,sans-Serif" font-size="10.00">src/cdt&#45;opt.cpp</text>
</a>
</g>
</g>
<!-- Node2 -->
<g id="node2" class="node">
<title>Node2</title>
<g id="a_node2"><a xlink:href="_metropolis_8hpp.html" target="_top" xlink:title="Perform Metropolis&#45;Hastings algorithm on Delaunay Triangulations.">
<polygon fill="white" stroke="black" points="2039,-302.5 2039,-321.5 2128,-321.5 2128,-302.5 2039,-302.5"/>
<text text-anchor="middle" x="2083.5" y="-309.5" font-family="Helvetica,sans-Serif" font-size="10.00">Metropolis.hpp</text>
</a>
</g>
</g>
<!-- Node1&#45;&gt;Node2 -->
<g id="edge1" class="edge">
<title>Node1&#45;&gt;Node2</title>
<path fill="none" stroke="midnightblue" d="M1943.8,-358.44C1971.85,-349.32 2016.44,-334.81 2047.68,-324.65"/>
<polygon fill="midnightblue" stroke="midnightblue" points="2048.89,-327.94 2057.32,-321.52 2046.73,-321.28 2048.89,-327.94"/>
</g>
<!-- Node52 -->
<g id="node22" class="node">
<title>Node52</title>
<g id="a_node22"><a xlink:href="_simulation_8hpp.html" target="_top" xlink:title="Simulation class.">
<polygon fill="white" stroke="black" points="1728.5,-302.5 1728.5,-321.5 1818.5,-321.5 1818.5,-302.5 1728.5,-302.5"/>
<text text-anchor="middle" x="1773.5" y="-309.5" font-family="Helvetica,sans-Serif" font-size="10.00">Simulation.hpp</text>
</a>
</g>
</g>
<!-- Node1&#45;&gt;Node52 -->
<g id="edge26" class="edge">
<title>Node1&#45;&gt;Node52</title>
<path fill="none" stroke="midnightblue" d="M1894.68,-358.44C1870.67,-349.44 1832.67,-335.19 1805.63,-325.05"/>
<polygon fill="midnightblue" stroke="midnightblue" points="1806.8,-321.75 1796.21,-321.52 1804.34,-328.3 1806.8,-321.75"/>
</g>
<!-- Node3 -->
<g id="node3" class="node">
<title>Node3</title>
<g id="a_node3"><a xlink:href="_move__strategy_8hpp.html" target="_top" xlink:title="Base class for move algorithms on Delaunay Triangulations.">
<polygon fill="white" stroke="black" points="2029,-246.5 2029,-265.5 2138,-265.5 2138,-246.5 2029,-246.5"/>
<text text-anchor="middle" x="2083.5" y="-253.5" font-family="Helvetica,sans-Serif" font-size="10.00">Move_strategy.hpp</text>
</a>
</g>
</g>
<!-- Node2&#45;&gt;Node3 -->
<g id="edge2" class="edge">
<title>Node2&#45;&gt;Node3</title>
<path fill="none" stroke="midnightblue" d="M2083.5,-302.08C2083.5,-295.01 2083.5,-284.86 2083.5,-275.99"/>
<polygon fill="midnightblue" stroke="midnightblue" points="2087,-275.75 2083.5,-265.75 2080,-275.75 2087,-275.75"/>
</g>
<!-- Node8 -->
<g id="node8" class="node">
<title>Node8</title>
<g id="a_node8"><a xlink:title=" ">
<polygon fill="white" stroke="#bfbfbf" points="2133,-0.5 2133,-19.5 2202,-19.5 2202,-0.5 2133,-0.5"/>
<text text-anchor="middle" x="2167.5" y="-7.5" font-family="Helvetica,sans-Serif" font-size="10.00">type_traits</text>
</a>
</g>
</g>
<!-- Node2&#45;&gt;Node8 -->
<g id="edge25" class="edge">
<title>Node2&#45;&gt;Node8</title>
<path fill="none" stroke="midnightblue" d="M2128.15,-311.69C2203.68,-310.28 2348.5,-295.27 2348.5,-201 2348.5,-201 2348.5,-201 2348.5,-132 2348.5,-97.07 2353.01,-80.88 2328.5,-56 2298.19,-25.23 2248.72,-15.03 2212.6,-11.88"/>
<polygon fill="midnightblue" stroke="midnightblue" points="2212.55,-8.36 2202.33,-11.14 2212.05,-15.35 2212.55,-8.36"/>
</g>
<!-- Node48 -->
<g id="node16" class="node">
<title>Node48</title>
<g id="a_node16"><a xlink:href="_s3_action_8hpp.html" target="_top" xlink:title="Calculate S3 bulk actions on 3D Delaunay Triangulations.">
<polygon fill="white" stroke="black" points="1846.5,-246.5 1846.5,-265.5 1926.5,-265.5 1926.5,-246.5 1846.5,-246.5"/>
<text text-anchor="middle" x="1886.5" y="-253.5" font-family="Helvetica,sans-Serif" font-size="10.00">S3Action.hpp</text>
</a>
</g>
</g>
<!-- Node2&#45;&gt;Node48 -->
<g id="edge18" class="edge">
<title>Node2&#45;&gt;Node48</title>
<path fill="none" stroke="midnightblue" d="M2052.28,-302.44C2018.57,-293.2 1964.7,-278.44 1927.57,-268.26"/>
<polygon fill="midnightblue" stroke="midnightblue" points="1928.14,-264.78 1917.57,-265.52 1926.29,-271.54 1928.14,-264.78"/>
</g>
<!-- Node51 -->
<g id="node21" class="node">
<title>Node51</title>
<g id="a_node21"><a xlink:title=" ">
<polygon fill="white" stroke="#bfbfbf" points="2376.5,-246.5 2376.5,-265.5 2426.5,-265.5 2426.5,-246.5 2376.5,-246.5"/>
<text text-anchor="middle" x="2401.5" y="-253.5" font-family="Helvetica,sans-Serif" font-size="10.00">atomic</text>
</a>
</g>
</g>
<!-- Node2&#45;&gt;Node51 -->
<g id="edge24" class="edge">
<title>Node2&#45;&gt;Node51</title>
<path fill="none" stroke="midnightblue" d="M2128.12,-304.74C2183.34,-296.78 2280.16,-282.12 2362.5,-266 2363.77,-265.75 2365.05,-265.49 2366.35,-265.23"/>
<polygon fill="midnightblue" stroke="midnightblue" points="2367.34,-268.59 2376.38,-263.06 2365.86,-261.75 2367.34,-268.59"/>
</g>
<!-- Node4 -->
<g id="node4" class="node">
<title>Node4</title>
<g id="a_node4"><a xlink:href="_move__command_8hpp.html" target="_top" xlink:title="Do ergodic moves using the Command pattern.">
<polygon fill="white" stroke="black" points="2046,-190.5 2046,-209.5 2165,-209.5 2165,-190.5 2046,-190.5"/>
<text text-anchor="middle" x="2105.5" y="-197.5" font-family="Helvetica,sans-Serif" font-size="10.00">Move_command.hpp</text>
</a>
</g>
</g>
<!-- Node3&#45;&gt;Node4 -->
<g id="edge3" class="edge">
<title>Node3&#45;&gt;Node4</title>
<path fill="none" stroke="midnightblue" d="M2087.13,-246.08C2090.11,-238.77 2094.43,-228.18 2098.12,-219.1"/>
<polygon fill="midnightblue" stroke="midnightblue" points="2101.4,-220.33 2101.93,-209.75 2094.92,-217.69 2101.4,-220.33"/>
</g>
<!-- Node47 -->
<g id="node15" class="node">
<title>Node47</title>
<g id="a_node15"><a xlink:title=" ">
<polygon fill="white" stroke="#bfbfbf" points="1649.5,-123.5 1649.5,-142.5 1707.5,-142.5 1707.5,-123.5 1649.5,-123.5"/>
<text text-anchor="middle" x="1678.5" y="-130.5" font-family="Helvetica,sans-Serif" font-size="10.00">memory</text>
</a>
</g>
</g>
<!-- Node3&#45;&gt;Node47 -->
<g id="edge17" class="edge">
<title>Node3&#45;&gt;Node47</title>
<path fill="none" stroke="midnightblue" d="M2070.44,-246.45C2048.58,-232.53 2002.84,-205.03 1960.5,-190 1876.76,-160.27 1773.11,-144.81 1717.74,-138.15"/>
<polygon fill="midnightblue" stroke="midnightblue" points="1717.99,-134.65 1707.66,-136.97 1717.18,-141.61 1717.99,-134.65"/>
</g>
<!-- Node5 -->
<g id="node5" class="node">
<title>Node5</title>
<g id="a_node5"><a xlink:href="_apply__move_8hpp.html" target="_top" xlink:title="Apply Pachner moves to foliated Delaunay triangulations.">
<polygon fill="white" stroke="black" points="2149.5,-123.5 2149.5,-142.5 2247.5,-142.5 2247.5,-123.5 2149.5,-123.5"/>
<text text-anchor="middle" x="2198.5" y="-130.5" font-family="Helvetica,sans-Serif" font-size="10.00">Apply_move.hpp</text>
</a>
</g>
</g>
<!-- Node4&#45;&gt;Node5 -->
<g id="edge4" class="edge">
<title>Node4&#45;&gt;Node5</title>
<path fill="none" stroke="midnightblue" d="M2118.04,-190.23C2133.38,-179.51 2159.56,-161.22 2177.88,-148.41"/>
<polygon fill="midnightblue" stroke="midnightblue" points="2179.96,-151.22 2186.16,-142.63 2175.95,-145.49 2179.96,-151.22"/>
</g>
<!-- Node13 -->
<g id="node13" class="node">
<title>Node13</title>
<g id="a_node13"><a xlink:href="_ergodic__moves__3_8hpp.html" target="_top" xlink:title="Pachner moves on 2+1 dimensional foliated Delaunay triangulations.">
<polygon fill="white" stroke="black" points="2008,-123.5 2008,-142.5 2131,-142.5 2131,-123.5 2008,-123.5"/>
<text text-anchor="middle" x="2069.5" y="-130.5" font-family="Helvetica,sans-Serif" font-size="10.00">Ergodic_moves_3.hpp</text>
</a>
</g>
</g>
<!-- Node4&#45;&gt;Node13 -->
<g id="edge12" class="edge">
<title>Node4&#45;&gt;Node13</title>
<path fill="none" stroke="midnightblue" d="M2100.64,-190.23C2095.19,-180.39 2086.2,-164.16 2079.28,-151.66"/>
<polygon fill="midnightblue" stroke="midnightblue" points="2082.19,-149.68 2074.28,-142.63 2076.06,-153.07 2082.19,-149.68"/>
</g>
<!-- Node6 -->
<g id="node6" class="node">
<title>Node6</title>
<g id="a_node6"><a xlink:href="_function__ref_8hpp.html" target="_top" xlink:title="Efficient, type&#45;erasing, non&#45;owning function reference.">
<polygon fill="white" stroke="black" points="1938,-56.5 1938,-75.5 2035,-75.5 2035,-56.5 1938,-56.5"/>
<text text-anchor="middle" x="1986.5" y="-63.5" font-family="Helvetica,sans-Serif" font-size="10.00">Function_ref.hpp</text>
</a>
</g>
</g>
<!-- Node5&#45;&gt;Node6 -->
<g id="edge5" class="edge">
<title>Node5&#45;&gt;Node6</title>
<path fill="none" stroke="midnightblue" d="M2173.89,-123.41C2163.33,-119.79 2150.84,-115.59 2139.5,-112 2101.43,-99.96 2057.71,-87.2 2026.78,-78.36"/>
<polygon fill="midnightblue" stroke="midnightblue" points="2027.38,-74.89 2016.8,-75.52 2025.46,-81.62 2027.38,-74.89"/>
</g>
<!-- Node10 -->
<g id="node10" class="node">
<title>Node10</title>
<g id="a_node10"><a xlink:title=" ">
<polygon fill="white" stroke="#bfbfbf" points="2255,-56.5 2255,-75.5 2320,-75.5 2320,-56.5 2255,-56.5"/>
<text text-anchor="middle" x="2287.5" y="-63.5" font-family="Helvetica,sans-Serif" font-size="10.00">functional</text>
</a>
</g>
</g>
<!-- Node5&#45;&gt;Node10 -->
<g id="edge9" class="edge">
<title>Node5&#45;&gt;Node10</title>
<path fill="none" stroke="midnightblue" d="M2210.5,-123.23C2225.05,-112.61 2249.78,-94.55 2267.28,-81.76"/>
<polygon fill="midnightblue" stroke="midnightblue" points="2269.68,-84.35 2275.69,-75.63 2265.55,-78.7 2269.68,-84.35"/>
</g>
<!-- Node11 -->
<g id="node11" class="node">
<title>Node11</title>
<g id="a_node11"><a xlink:title=" ">
<polygon fill="white" stroke="#bfbfbf" points="2053,-56.5 2053,-75.5 2126,-75.5 2126,-56.5 2053,-56.5"/>
<text text-anchor="middle" x="2089.5" y="-63.5" font-family="Helvetica,sans-Serif" font-size="10.00">string_view</text>
</a>
</g>
</g>
<!-- Node5&#45;&gt;Node11 -->
<g id="edge10" class="edge">
<title>Node5&#45;&gt;Node11</title>
<path fill="none" stroke="midnightblue" d="M2183.8,-123.23C2165.58,-112.37 2134.3,-93.72 2112.8,-80.89"/>
<polygon fill="midnightblue" stroke="midnightblue" points="2114.35,-77.74 2103.97,-75.63 2110.76,-83.76 2114.35,-77.74"/>
</g>
<!-- Node12 -->
<g id="node12" class="node">
<title>Node12</title>
<g id="a_node12"><a xlink:title=" ">
<polygon fill="white" stroke="#bfbfbf" points="2144.5,-56.5 2144.5,-75.5 2236.5,-75.5 2236.5,-56.5 2144.5,-56.5"/>
<text text-anchor="middle" x="2190.5" y="-63.5" font-family="Helvetica,sans-Serif" font-size="10.00">tl/expected.hpp</text>
</a>
</g>
</g>
<!-- Node5&#45;&gt;Node12 -->
<g id="edge11" class="edge">
<title>Node5&#45;&gt;Node12</title>
<path fill="none" stroke="midnightblue" d="M2197.42,-123.23C2196.25,-113.68 2194.33,-98.12 2192.81,-85.78"/>
<polygon fill="midnightblue" stroke="midnightblue" points="2196.26,-85.12 2191.56,-75.63 2189.31,-85.98 2196.26,-85.12"/>
</g>
<!-- Node7 -->
<g id="node7" class="node">
<title>Node7</title>
<g id="a_node7"><a xlink:title=" ">
<polygon fill="white" stroke="#bfbfbf" points="1724.5,-0.5 1724.5,-19.5 1774.5,-19.5 1774.5,-0.5 1724.5,-0.5"/>
<text text-anchor="middle" x="1749.5" y="-7.5" font-family="Helvetica,sans-Serif" font-size="10.00">cstdint</text>
</a>
</g>
</g>
<!-- Node6&#45;&gt;Node7 -->
<g id="edge6" class="edge">
<title>Node6&#45;&gt;Node7</title>
<path fill="none" stroke="midnightblue" d="M1945.56,-56.44C1906.57,-48.16 1845.99,-35.02 1784.58,-20.19"/>
<polygon fill="midnightblue" stroke="midnightblue" points="1785.27,-16.76 1774.72,-17.8 1783.61,-23.56 1785.27,-16.76"/>
</g>
<!-- Node6&#45;&gt;Node8 -->
<g id="edge7" class="edge">
<title>Node6&#45;&gt;Node8</title>
<path fill="none" stroke="midnightblue" d="M2015.18,-56.44C2046.03,-47.24 2095.23,-32.56 2129.33,-22.39"/>
<polygon fill="midnightblue" stroke="midnightblue" points="2130.37,-25.73 2138.95,-19.52 2128.37,-19.02 2130.37,-25.73"/>
</g>
<!-- Node9 -->
<g id="node9" class="node">
<title>Node9</title>
<g id="a_node9"><a xlink:title=" ">
<polygon fill="white" stroke="#bfbfbf" points="1793,-0.5 1793,-19.5 1838,-19.5 1838,-0.5 1793,-0.5"/>
<text text-anchor="middle" x="1815.5" y="-7.5" font-family="Helvetica,sans-Serif" font-size="10.00">utility</text>
</a>
</g>
</g>
<!-- Node6&#45;&gt;Node9 -->
<g id="edge8" class="edge">
<title>Node6&#45;&gt;Node9</title>
<path fill="none" stroke="midnightblue" d="M1959.4,-56.44C1929.15,-46.89 1880.21,-31.44 1847.95,-21.25"/>
<polygon fill="midnightblue" stroke="midnightblue" points="1848.69,-17.81 1838.1,-18.14 1846.58,-24.49 1848.69,-17.81"/>
</g>
<!-- Node13&#45;&gt;Node11 -->
<g id="edge15" class="edge">
<title>Node13&#45;&gt;Node11</title>
<path fill="none" stroke="midnightblue" d="M2072.2,-123.23C2075.17,-113.59 2080.02,-97.8 2083.84,-85.41"/>
<polygon fill="midnightblue" stroke="midnightblue" points="2087.25,-86.21 2086.85,-75.63 2080.56,-84.16 2087.25,-86.21"/>
</g>
<!-- Node13&#45;&gt;Node12 -->
<g id="edge16" class="edge">
<title>Node13&#45;&gt;Node12</title>
<path fill="none" stroke="midnightblue" d="M2085.82,-123.23C2106.32,-112.22 2141.7,-93.21 2165.59,-80.38"/>
<polygon fill="midnightblue" stroke="midnightblue" points="2167.29,-83.44 2174.44,-75.63 2163.97,-77.28 2167.29,-83.44"/>
</g>
<!-- Node14 -->
<g id="node14" class="node">
<title>Node14</title>
<g id="a_node14"><a xlink:href="_manifold_8hpp.html" target="_top" xlink:title="Data structures for manifolds.">
<polygon fill="white" stroke="red" points="1839.5,-56.5 1839.5,-75.5 1919.5,-75.5 1919.5,-56.5 1839.5,-56.5"/>
<text text-anchor="middle" x="1879.5" y="-63.5" font-family="Helvetica,sans-Serif" font-size="10.00">Manifold.hpp</text>
</a>
</g>
</g>
<!-- Node13&#45;&gt;Node14 -->
<g id="edge13" class="edge">
<title>Node13&#45;&gt;Node14</title>
<path fill="none" stroke="midnightblue" d="M2044.27,-123.37C2010.82,-111.92 1951.64,-91.68 1914.06,-78.82"/>
<polygon fill="midnightblue" stroke="midnightblue" points="1915.13,-75.49 1904.53,-75.56 1912.86,-82.11 1915.13,-75.49"/>
</g>
<!-- Node14&#45;&gt;Node9 -->
<g id="edge14" class="edge">
<title>Node14&#45;&gt;Node9</title>
<path fill="none" stroke="midnightblue" d="M1869.22,-56.32C1859.66,-48.26 1845.22,-36.08 1833.72,-26.37"/>
<polygon fill="midnightblue" stroke="midnightblue" points="1835.87,-23.61 1825.97,-19.83 1831.36,-28.96 1835.87,-23.61"/>
</g>
<!-- Node36 -->
<g id="node17" class="node">
<title>Node36</title>
<g id="a_node17"><a xlink:href="_settings_8hpp.html" target="_top" xlink:title="Global integer and precision settings.">
<polygon fill="white" stroke="black" points="1630,-56.5 1630,-75.5 1707,-75.5 1707,-56.5 1630,-56.5"/>
<text text-anchor="middle" x="1668.5" y="-63.5" font-family="Helvetica,sans-Serif" font-size="10.00">Settings.hpp</text>
</a>
</g>
</g>
<!-- Node48&#45;&gt;Node36 -->
<g id="edge19" class="edge">
<title>Node48&#45;&gt;Node36</title>
<path fill="none" stroke="midnightblue" d="M1875.22,-246.19C1863.82,-237.22 1845.76,-222.86 1830.5,-210 1776.71,-164.68 1714.81,-109.04 1685.54,-82.51"/>
<polygon fill="midnightblue" stroke="midnightblue" points="1687.62,-79.67 1677.86,-75.54 1682.91,-84.85 1687.62,-79.67"/>
</g>
<!-- Node49 -->
<g id="node19" class="node">
<title>Node49</title>
<g id="a_node19"><a xlink:title=" ">
<polygon fill="white" stroke="#bfbfbf" points="1839.5,-190.5 1839.5,-209.5 1885.5,-209.5 1885.5,-190.5 1839.5,-190.5"/>
<text text-anchor="middle" x="1862.5" y="-197.5" font-family="Helvetica,sans-Serif" font-size="10.00">cstdio</text>
</a>
</g>
</g>
<!-- Node48&#45;&gt;Node49 -->
<g id="edge22" class="edge">
<title>Node48&#45;&gt;Node49</title>
<path fill="none" stroke="midnightblue" d="M1882.54,-246.08C1879.29,-238.77 1874.58,-228.18 1870.55,-219.1"/>
<polygon fill="midnightblue" stroke="midnightblue" points="1873.65,-217.47 1866.39,-209.75 1867.25,-220.31 1873.65,-217.47"/>
</g>
<!-- Node50 -->
<g id="node20" class="node">
<title>Node50</title>
<g id="a_node20"><a xlink:title=" ">
<polygon fill="white" stroke="#bfbfbf" points="1903.5,-190.5 1903.5,-209.5 1951.5,-209.5 1951.5,-190.5 1903.5,-190.5"/>
<text text-anchor="middle" x="1927.5" y="-197.5" font-family="Helvetica,sans-Serif" font-size="10.00">mpfr.h</text>
</a>
</g>
</g>
<!-- Node48&#45;&gt;Node50 -->
<g id="edge23" class="edge">
<title>Node48&#45;&gt;Node50</title>
<path fill="none" stroke="midnightblue" d="M1893.27,-246.08C1899.06,-238.46 1907.56,-227.26 1914.64,-217.94"/>
<polygon fill="midnightblue" stroke="midnightblue" points="1917.6,-219.83 1920.86,-209.75 1912.02,-215.6 1917.6,-219.83"/>
</g>
<!-- Node36&#45;&gt;Node7 -->
<g id="edge21" class="edge">
<title>Node36&#45;&gt;Node7</title>
<path fill="none" stroke="midnightblue" d="M1681.51,-56.32C1694.03,-47.98 1713.18,-35.21 1727.97,-25.35"/>
<polygon fill="midnightblue" stroke="midnightblue" points="1730.14,-28.11 1736.52,-19.65 1726.26,-22.29 1730.14,-28.11"/>
</g>
<!-- Node37 -->
<g id="node18" class="node">
<title>Node37</title>
<g id="a_node18"><a xlink:title=" ">
<polygon fill="white" stroke="#bfbfbf" points="1620.5,-0.5 1620.5,-19.5 1706.5,-19.5 1706.5,-0.5 1620.5,-0.5"/>
<text text-anchor="middle" x="1663.5" y="-7.5" font-family="Helvetica,sans-Serif" font-size="10.00">CGAL/Gmpzf.h</text>
</a>
</g>
</g>
<!-- Node36&#45;&gt;Node37 -->
<g id="edge20" class="edge">
<title>Node36&#45;&gt;Node37</title>
<path fill="none" stroke="midnightblue" d="M1667.67,-56.08C1667.02,-49.01 1666.08,-38.86 1665.26,-29.99"/>
<polygon fill="midnightblue" stroke="midnightblue" points="1668.72,-29.39 1664.31,-19.75 1661.75,-30.03 1668.72,-29.39"/>
</g>
<!-- Node52&#45;&gt;Node6 -->
<g id="edge27" class="edge">
<title>Node52&#45;&gt;Node6</title>
<path fill="none" stroke="midnightblue" d="M1818.55,-308.74C1854.07,-304.75 1902.87,-294.1 1935.5,-266 1988.99,-219.94 1990.25,-126.15 1988.08,-85.96"/>
<polygon fill="midnightblue" stroke="midnightblue" points="1991.56,-85.67 1987.39,-75.93 1984.58,-86.15 1991.56,-85.67"/>
</g>
<!-- Node52&#45;&gt;Node9 -->
<g id="edge65" class="edge">
<title>Node52&#45;&gt;Node9</title>
<path fill="none" stroke="midnightblue" d="M1774.71,-302.35C1780.42,-261.54 1804.73,-87.94 1812.85,-29.95"/>
<polygon fill="midnightblue" stroke="midnightblue" points="1816.36,-30.08 1814.28,-19.69 1809.43,-29.11 1816.36,-30.08"/>
</g>
<!-- Node53 -->
<g id="node23" class="node">
<title>Node53</title>
<g id="a_node23"><a xlink:href="_simplicial_manifold_8hpp.html" target="_top" xlink:title="Data structures for simplicial manifolds.">
<polygon fill="white" stroke="black" points="1192.5,-246.5 1192.5,-265.5 1320.5,-265.5 1320.5,-246.5 1192.5,-246.5"/>
<text text-anchor="middle" x="1256.5" y="-253.5" font-family="Helvetica,sans-Serif" font-size="10.00">SimplicialManifold.hpp</text>
</a>
</g>
</g>
<!-- Node52&#45;&gt;Node53 -->
<g id="edge28" class="edge">
<title>Node52&#45;&gt;Node53</title>
<path fill="none" stroke="midnightblue" d="M1728.07,-306.26C1638.8,-296.93 1439.73,-276.14 1330.96,-264.78"/>
<polygon fill="midnightblue" stroke="midnightblue" points="1331.03,-261.27 1320.72,-263.71 1330.31,-268.23 1331.03,-261.27"/>
</g>
<!-- Node57 -->
<g id="node48" class="node">
<title>Node57</title>
<g id="a_node48"><a xlink:title=" ">
<polygon fill="white" stroke="#bfbfbf" points="0,-123.5 0,-142.5 47,-142.5 47,-123.5 0,-123.5"/>
<text text-anchor="middle" x="23.5" y="-130.5" font-family="Helvetica,sans-Serif" font-size="10.00">vector</text>
</a>
</g>
</g>
<!-- Node52&#45;&gt;Node57 -->
<g id="edge66" class="edge">
<title>Node52&#45;&gt;Node57</title>
<path fill="none" stroke="midnightblue" d="M1728.47,-310.16C1502.82,-305.62 493.78,-281.6 189.5,-210 127.07,-195.31 113.63,-183.14 56.5,-154 52.84,-152.14 49.05,-150.02 45.39,-147.88"/>
<polygon fill="midnightblue" stroke="midnightblue" points="47.1,-144.82 36.73,-142.63 43.47,-150.81 47.1,-144.82"/>
</g>
<!-- Node53&#45;&gt;Node9 -->
<g id="edge63" class="edge">
<title>Node53&#45;&gt;Node9</title>
<path fill="none" stroke="midnightblue" d="M1320.67,-247.12C1431.52,-232.5 1653.13,-198.57 1716.5,-154 1762.9,-121.37 1794.51,-59.63 1808.05,-29.07"/>
<polygon fill="midnightblue" stroke="midnightblue" points="1811.36,-30.23 1812.08,-19.66 1804.93,-27.47 1811.36,-30.23"/>
</g>
<!-- Node53&#45;&gt;Node47 -->
<g id="edge61" class="edge">
<title>Node53&#45;&gt;Node47</title>
<path fill="none" stroke="midnightblue" d="M1297.89,-246.46C1368.35,-231.38 1515.63,-197.47 1635.5,-154 1641.01,-152 1646.79,-149.56 1652.26,-147.09"/>
<polygon fill="midnightblue" stroke="midnightblue" points="1654.07,-150.1 1661.63,-142.68 1651.09,-143.77 1654.07,-150.1"/>
</g>
<!-- Node54 -->
<g id="node24" class="node">
<title>Node54</title>
<g id="a_node24"><a xlink:href="_s3_triangulation_8hpp.html" target="_top" xlink:title="Functions on 3D Spherical Delaunay Triangulations.">
<polygon fill="white" stroke="black" points="859,-190.5 859,-209.5 972,-209.5 972,-190.5 859,-190.5"/>
<text text-anchor="middle" x="915.5" y="-197.5" font-family="Helvetica,sans-Serif" font-size="10.00">S3Triangulation.hpp</text>
</a>
</g>
</g>
<!-- Node53&#45;&gt;Node54 -->
<g id="edge29" class="edge">
<title>Node53&#45;&gt;Node54</title>
<path fill="none" stroke="midnightblue" d="M1202.47,-246.44C1141.86,-236.85 1043.64,-221.29 979.3,-211.1"/>
<polygon fill="midnightblue" stroke="midnightblue" points="979.7,-207.62 969.28,-209.52 978.61,-214.54 979.7,-207.62"/>
</g>
<!-- Node55 -->
<g id="node46" class="node">
<title>Node55</title>
<g id="a_node46"><a xlink:title=" ">
<polygon fill="white" stroke="#bfbfbf" points="65.5,-123.5 65.5,-142.5 97.5,-142.5 97.5,-123.5 65.5,-123.5"/>
<text text-anchor="middle" x="81.5" y="-130.5" font-family="Helvetica,sans-Serif" font-size="10.00">set</text>
</a>
</g>
</g>
<!-- Node53&#45;&gt;Node55 -->
<g id="edge62" class="edge">
<title>Node53&#45;&gt;Node55</title>
<path fill="none" stroke="midnightblue" d="M1192.26,-249.37C950.25,-228.18 107.3,-154.32 106.5,-154 103.5,-152.8 100.58,-151.11 97.84,-149.22"/>
<polygon fill="midnightblue" stroke="midnightblue" points="99.91,-146.39 89.93,-142.84 95.51,-151.84 99.91,-146.39"/>
</g>
<!-- Node53&#45;&gt;Node57 -->
<g id="edge64" class="edge">
<title>Node53&#45;&gt;Node57</title>
<path fill="none" stroke="midnightblue" d="M1192.32,-252.08C1067.05,-246.14 781.22,-231.37 541.5,-210 325.37,-190.73 261.79,-224.29 56.5,-154 52.03,-152.47 47.52,-150.26 43.33,-147.87"/>
<polygon fill="midnightblue" stroke="midnightblue" points="45.13,-144.87 34.8,-142.53 41.42,-150.8 45.13,-144.87"/>
</g>
<!-- Node58 -->
<g id="node49" class="node">
<title>Node58</title>
<g id="a_node49"><a xlink:title=" ">
<polygon fill="white" stroke="#bfbfbf" points="1157,-190.5 1157,-209.5 1264,-209.5 1264,-190.5 1157,-190.5"/>
<text text-anchor="middle" x="1210.5" y="-197.5" font-family="Helvetica,sans-Serif" font-size="10.00">boost/optional.hpp</text>
</a>
</g>
</g>
<!-- Node53&#45;&gt;Node58 -->
<g id="edge59" class="edge">
<title>Node53&#45;&gt;Node58</title>
<path fill="none" stroke="midnightblue" d="M1248.9,-246.08C1242.27,-238.3 1232.48,-226.8 1224.44,-217.37"/>
<polygon fill="midnightblue" stroke="midnightblue" points="1227.1,-215.09 1217.95,-209.75 1221.77,-219.63 1227.1,-215.09"/>
</g>
<!-- Node59 -->
<g id="node50" class="node">
<title>Node59</title>
<g id="a_node50"><a xlink:title=" ">
<polygon fill="white" stroke="#bfbfbf" points="1282.5,-190.5 1282.5,-209.5 1320.5,-209.5 1320.5,-190.5 1282.5,-190.5"/>
<text text-anchor="middle" x="1301.5" y="-197.5" font-family="Helvetica,sans-Serif" font-size="10.00">map</text>
</a>
</g>
</g>
<!-- Node53&#45;&gt;Node59 -->
<g id="edge60" class="edge">
<title>Node53&#45;&gt;Node59</title>
<path fill="none" stroke="midnightblue" d="M1263.93,-246.08C1270.35,-238.38 1279.81,-227.03 1287.62,-217.65"/>
<polygon fill="midnightblue" stroke="midnightblue" points="1290.49,-219.67 1294.21,-209.75 1285.12,-215.19 1290.49,-219.67"/>
</g>
<!-- Node54&#45;&gt;Node9 -->
<g id="edge57" class="edge">
<title>Node54&#45;&gt;Node9</title>
<path fill="none" stroke="midnightblue" d="M972.37,-198.38C1106.37,-195.22 1450.62,-177.05 1715.5,-76 1746.87,-64.03 1778.63,-41.14 1797.69,-25.97"/>
<polygon fill="midnightblue" stroke="midnightblue" points="1799.96,-28.64 1805.51,-19.61 1795.54,-23.21 1799.96,-28.64"/>
</g>
<!-- Node54&#45;&gt;Node47 -->
<g id="edge53" class="edge">
<title>Node54&#45;&gt;Node47</title>
<path fill="none" stroke="midnightblue" d="M972.13,-196.67C1130.74,-189.98 1571.96,-170.15 1635.5,-154 1641.74,-152.41 1648.17,-149.93 1654.11,-147.25"/>
<polygon fill="midnightblue" stroke="midnightblue" points="1656.04,-150.2 1663.49,-142.67 1652.97,-143.91 1656.04,-150.2"/>
</g>
<!-- Node38 -->
<g id="node25" class="node">
<title>Node38</title>
<g id="a_node25"><a xlink:title=" ">
<polygon fill="white" stroke="#bfbfbf" points="115.5,-123.5 115.5,-142.5 295.5,-142.5 295.5,-123.5 115.5,-123.5"/>
<text text-anchor="middle" x="205.5" y="-130.5" font-family="Helvetica,sans-Serif" font-size="10.00">CGAL/Delaunay_triangulation_3.h</text>
</a>
</g>
</g>
<!-- Node54&#45;&gt;Node38 -->
<g id="edge30" class="edge">
<title>Node54&#45;&gt;Node38</title>
<path fill="none" stroke="midnightblue" d="M858.65,-195.73C728.24,-188.08 410.67,-168.57 304.5,-154 287.24,-151.63 268.46,-148.09 251.94,-144.64"/>
<polygon fill="midnightblue" stroke="midnightblue" points="252.49,-141.18 241.98,-142.51 251.03,-148.02 252.49,-141.18"/>
</g>
<!-- Node39 -->
<g id="node26" class="node">
<title>Node39</title>
<g id="a_node26"><a xlink:title=" ">
<polygon fill="white" stroke="#bfbfbf" points="314,-112.5 314,-153.5 443,-153.5 443,-112.5 314,-112.5"/>
<text text-anchor="start" x="322" y="-141.5" font-family="Helvetica,sans-Serif" font-size="10.00">CGAL/Exact_predicates</text>
<text text-anchor="start" x="322" y="-130.5" font-family="Helvetica,sans-Serif" font-size="10.00">_inexact_constructions</text>
<text text-anchor="middle" x="378.5" y="-119.5" font-family="Helvetica,sans-Serif" font-size="10.00">_kernel.h</text>
</a>
</g>
</g>
<!-- Node54&#45;&gt;Node39 -->
<g id="edge31" class="edge">
<title>Node54&#45;&gt;Node39</title>
<path fill="none" stroke="midnightblue" d="M858.77,-196.54C772.95,-192.15 604.91,-180.94 453.29,-153.98"/>
<polygon fill="midnightblue" stroke="midnightblue" points="453.79,-150.51 443.33,-152.18 452.55,-157.4 453.79,-150.51"/>
</g>
<!-- Node40 -->
<g id="node27" class="node">
<title>Node40</title>
<g id="a_node27"><a xlink:title=" ">
<polygon fill="white" stroke="#bfbfbf" points="461.5,-118 461.5,-148 599.5,-148 599.5,-118 461.5,-118"/>
<text text-anchor="start" x="469.5" y="-136" font-family="Helvetica,sans-Serif" font-size="10.00">CGAL/Triangulation</text>
<text text-anchor="middle" x="530.5" y="-125" font-family="Helvetica,sans-Serif" font-size="10.00">_cell_base_with_info_3.h</text>
</a>
</g>
</g>
<!-- Node54&#45;&gt;Node40 -->
<g id="edge32" class="edge">
<title>Node54&#45;&gt;Node40</title>
<path fill="none" stroke="midnightblue" d="M858.89,-192.52C797.06,-185.02 695.24,-171.43 608.5,-154 603.1,-152.92 597.52,-151.69 591.94,-150.4"/>
<polygon fill="midnightblue" stroke="midnightblue" points="592.47,-146.93 581.93,-148 590.84,-153.73 592.47,-146.93"/>
</g>
<!-- Node41 -->
<g id="node28" class="node">
<title>Node41</title>
<g id="a_node28"><a xlink:title=" ">
<polygon fill="white" stroke="#bfbfbf" points="617.5,-118 617.5,-148 769.5,-148 769.5,-118 617.5,-118"/>
<text text-anchor="start" x="625.5" y="-136" font-family="Helvetica,sans-Serif" font-size="10.00">CGAL/Triangulation</text>
<text text-anchor="middle" x="693.5" y="-125" font-family="Helvetica,sans-Serif" font-size="10.00">_vertex_base_with_info_3.h</text>
</a>
</g>
</g>
<!-- Node54&#45;&gt;Node41 -->
<g id="edge33" class="edge">
<title>Node54&#45;&gt;Node41</title>
<path fill="none" stroke="midnightblue" d="M886.02,-190.37C851.77,-180.34 794.44,-163.56 751.23,-150.9"/>
<polygon fill="midnightblue" stroke="midnightblue" points="751.99,-147.48 741.41,-148.03 750.02,-154.2 751.99,-147.48"/>
</g>
<!-- Node42 -->
<g id="node29" class="node">
<title>Node42</title>
<g id="a_node29"><a xlink:title=" ">
<polygon fill="white" stroke="#bfbfbf" points="788,-123.5 788,-142.5 937,-142.5 937,-123.5 788,-123.5"/>
<text text-anchor="middle" x="862.5" y="-130.5" font-family="Helvetica,sans-Serif" font-size="10.00">CGAL/point_generators_3.h</text>
</a>
</g>
</g>
<!-- Node54&#45;&gt;Node42 -->
<g id="edge34" class="edge">
<title>Node54&#45;&gt;Node42</title>
<path fill="none" stroke="midnightblue" d="M908.35,-190.23C900.09,-180.1 886.3,-163.19 876,-150.56"/>
<polygon fill="midnightblue" stroke="midnightblue" points="878.57,-148.17 869.53,-142.63 873.14,-152.59 878.57,-148.17"/>
</g>
<!-- Node17 -->
<g id="node30" class="node">
<title>Node17</title>
<g id="a_node30"><a xlink:href="_utilities_8hpp.html" target="_top" xlink:title="Utility functions.">
<polygon fill="white" stroke="red" points="1090.5,-123.5 1090.5,-142.5 1166.5,-142.5 1166.5,-123.5 1090.5,-123.5"/>
<text text-anchor="middle" x="1128.5" y="-130.5" font-family="Helvetica,sans-Serif" font-size="10.00">Utilities.hpp</text>
</a>
</g>
</g>
<!-- Node54&#45;&gt;Node17 -->
<g id="edge35" class="edge">
<title>Node54&#45;&gt;Node17</title>
<path fill="none" stroke="midnightblue" d="M949.7,-190.44C982.49,-182.01 1033.25,-168.33 1076.5,-154 1083.41,-151.71 1090.75,-149.04 1097.67,-146.41"/>
<polygon fill="midnightblue" stroke="midnightblue" points="1099.35,-149.51 1107.41,-142.63 1096.82,-142.98 1099.35,-149.51"/>
</g>
<!-- Node21 -->
<g id="node34" class="node">
<title>Node21</title>
<g id="a_node34"><a xlink:title=" ">
<polygon fill="white" stroke="#bfbfbf" points="488.5,-56.5 488.5,-75.5 552.5,-75.5 552.5,-56.5 488.5,-56.5"/>
<text text-anchor="middle" x="520.5" y="-63.5" font-family="Helvetica,sans-Serif" font-size="10.00">algorithm</text>
</a>
</g>
</g>
<!-- Node54&#45;&gt;Node21 -->
<g id="edge52" class="edge">
<title>Node54&#45;&gt;Node21</title>
<path fill="none" stroke="midnightblue" d="M972.21,-193.59C998.1,-187.96 1026.5,-176.64 1042.5,-154 1053.27,-138.76 1055.2,-125.68 1042.5,-112 1007.65,-74.44 648.25,-82.89 562.66,-75.62"/>
<polygon fill="midnightblue" stroke="midnightblue" points="562.97,-72.13 552.65,-74.51 562.2,-79.09 562.97,-72.13"/>
</g>
<!-- Node29 -->
<g id="node42" class="node">
<title>Node29</title>
<g id="a_node42"><a xlink:title=" ">
<polygon fill="white" stroke="#bfbfbf" points="405,-56.5 405,-75.5 470,-75.5 470,-56.5 405,-56.5"/>
<text text-anchor="middle" x="437.5" y="-63.5" font-family="Helvetica,sans-Serif" font-size="10.00">stdexcept</text>
</a>
</g>
</g>
<!-- Node54&#45;&gt;Node29 -->
<g id="edge55" class="edge">
<title>Node54&#45;&gt;Node29</title>
<path fill="none" stroke="midnightblue" d="M923.4,-190.43C938.18,-173.37 966.66,-134.86 945.5,-112 911.81,-75.6 564.28,-82.69 480.46,-75.6"/>
<polygon fill="midnightblue" stroke="midnightblue" points="480.76,-72.11 470.44,-74.49 480,-79.07 480.76,-72.11"/>
</g>
<!-- Node54&#45;&gt;Node55 -->
<g id="edge54" class="edge">
<title>Node54&#45;&gt;Node55</title>
<path fill="none" stroke="midnightblue" d="M858.96,-195.97C675.89,-186.14 110.9,-155.68 106.5,-154 103.28,-152.77 100.15,-150.96 97.27,-148.93"/>
<polygon fill="midnightblue" stroke="midnightblue" points="99.4,-146.15 89.45,-142.51 94.95,-151.56 99.4,-146.15"/>
</g>
<!-- Node56 -->
<g id="node47" class="node">
<title>Node56</title>
<g id="a_node47"><a xlink:title=" ">
<polygon fill="white" stroke="#bfbfbf" points="993,-123.5 993,-142.5 1034,-142.5 1034,-123.5 993,-123.5"/>
<text text-anchor="middle" x="1013.5" y="-130.5" font-family="Helvetica,sans-Serif" font-size="10.00">tuple</text>
</a>
</g>
</g>
<!-- Node54&#45;&gt;Node56 -->
<g id="edge56" class="edge">
<title>Node54&#45;&gt;Node56</title>
<path fill="none" stroke="midnightblue" d="M928.72,-190.23C944.95,-179.46 972.72,-161.05 992.03,-148.24"/>
<polygon fill="midnightblue" stroke="midnightblue" points="994.09,-151.07 1000.49,-142.63 990.22,-145.24 994.09,-151.07"/>
</g>
<!-- Node54&#45;&gt;Node57 -->
<g id="edge58" class="edge">
<title>Node54&#45;&gt;Node57</title>
<path fill="none" stroke="midnightblue" d="M858.95,-197.64C679.89,-193.1 132.73,-177.46 56.5,-154 51.91,-152.59 47.3,-150.4 43.05,-147.98"/>
<polygon fill="midnightblue" stroke="midnightblue" points="44.76,-144.92 34.44,-142.52 41.01,-150.83 44.76,-144.92"/>
</g>
<!-- Node17&#45;&gt;Node36 -->
<g id="edge51" class="edge">
<title>Node17&#45;&gt;Node36</title>
<path fill="none" stroke="midnightblue" d="M1166.59,-128.61C1247.86,-121.17 1444.49,-102.08 1619.85,-76"/>
<polygon fill="midnightblue" stroke="midnightblue" points="1620.4,-79.45 1629.77,-74.51 1619.36,-72.53 1620.4,-79.45"/>
</g>
<!-- Node18 -->
<g id="node31" class="node">
<title>Node18</title>
<g id="a_node31"><a xlink:title=" ">
<polygon fill="white" stroke="#bfbfbf" points="1216,-56.5 1216,-75.5 1299,-75.5 1299,-56.5 1216,-56.5"/>
<text text-anchor="middle" x="1257.5" y="-63.5" font-family="Helvetica,sans-Serif" font-size="10.00">CGAL/Timer.h</text>
</a>
</g>
</g>
<!-- Node17&#45;&gt;Node18 -->
<g id="edge36" class="edge">
<title>Node17&#45;&gt;Node18</title>
<path fill="none" stroke="midnightblue" d="M1145.63,-123.37C1167.51,-112.34 1205.59,-93.16 1231.17,-80.27"/>
<polygon fill="midnightblue" stroke="midnightblue" points="1232.94,-83.29 1240.3,-75.67 1229.79,-77.04 1232.94,-83.29"/>
</g>
<!-- Node19 -->
<g id="node32" class="node">
<title>Node19</title>
<g id="a_node32"><a xlink:title=" ">
<polygon fill="white" stroke="#bfbfbf" points="1317.5,-56.5 1317.5,-75.5 1405.5,-75.5 1405.5,-56.5 1317.5,-56.5"/>
<text text-anchor="middle" x="1361.5" y="-63.5" font-family="Helvetica,sans-Serif" font-size="10.00">sys/utsname.h</text>
</a>
</g>
</g>
<!-- Node17&#45;&gt;Node19 -->
<g id="edge37" class="edge">
<title>Node17&#45;&gt;Node19</title>
<path fill="none" stroke="midnightblue" d="M1159.44,-123.37C1201.07,-111.75 1275.2,-91.08 1321.16,-78.25"/>
<polygon fill="midnightblue" stroke="midnightblue" points="1322.11,-81.62 1330.8,-75.56 1320.23,-74.88 1322.11,-81.62"/>
</g>
<!-- Node20 -->
<g id="node33" class="node">
<title>Node20</title>
<g id="a_node33"><a xlink:title=" ">
<polygon fill="white" stroke="#bfbfbf" points="1424,-56.5 1424,-75.5 1541,-75.5 1541,-56.5 1424,-56.5"/>
<text text-anchor="middle" x="1482.5" y="-63.5" font-family="Helvetica,sans-Serif" font-size="10.00">boost/date_time.hpp</text>
</a>
</g>
</g>
<!-- Node17&#45;&gt;Node20 -->
<g id="edge38" class="edge">
<title>Node17&#45;&gt;Node20</title>
<path fill="none" stroke="midnightblue" d="M1166.72,-124.98C1229.22,-113.51 1353.57,-90.67 1426.18,-77.34"/>
<polygon fill="midnightblue" stroke="midnightblue" points="1426.87,-80.77 1436.07,-75.52 1425.61,-73.89 1426.87,-80.77"/>
</g>
<!-- Node17&#45;&gt;Node21 -->
<g id="edge39" class="edge">
<title>Node17&#45;&gt;Node21</title>
<path fill="none" stroke="midnightblue" d="M1110.14,-123.4C1100.37,-119.22 1088.02,-114.56 1076.5,-112 855.68,-62.97 790.45,-107.39 562.57,-75.93"/>
<polygon fill="midnightblue" stroke="midnightblue" points="563.04,-72.46 552.65,-74.52 562.06,-79.39 563.04,-72.46"/>
</g>
<!-- Node22 -->
<g id="node35" class="node">
<title>Node22</title>
<g id="a_node35"><a xlink:title=" ">
<polygon fill="white" stroke="#bfbfbf" points="1559.5,-56.5 1559.5,-75.5 1611.5,-75.5 1611.5,-56.5 1559.5,-56.5"/>
<text text-anchor="middle" x="1585.5" y="-63.5" font-family="Helvetica,sans-Serif" font-size="10.00">cassert</text>
</a>
</g>
</g>
<!-- Node17&#45;&gt;Node22 -->
<g id="edge40" class="edge">
<title>Node17&#45;&gt;Node22</title>
<path fill="none" stroke="midnightblue" d="M1166.76,-128.37C1239.31,-121.17 1402.01,-103.53 1549.12,-75.85"/>
<polygon fill="midnightblue" stroke="midnightblue" points="1550.06,-79.24 1559.23,-73.93 1548.75,-72.36 1550.06,-79.24"/>
</g>
<!-- Node23 -->
<g id="node36" class="node">
<title>Node23</title>
<g id="a_node36"><a xlink:title=" ">
<polygon fill="white" stroke="#bfbfbf" points="571,-56.5 571,-75.5 620,-75.5 620,-56.5 571,-56.5"/>
<text text-anchor="middle" x="595.5" y="-63.5" font-family="Helvetica,sans-Serif" font-size="10.00">cstdlib</text>
</a>
</g>
</g>
<!-- Node17&#45;&gt;Node23 -->
<g id="edge41" class="edge">
<title>Node17&#45;&gt;Node23</title>
<path fill="none" stroke="midnightblue" d="M1110.13,-123.45C1100.36,-119.28 1088.01,-114.62 1076.5,-112 884.96,-68.43 827.18,-109.03 630.34,-76.02"/>
<polygon fill="midnightblue" stroke="midnightblue" points="630.7,-72.53 620.25,-74.28 629.52,-79.43 630.7,-72.53"/>
</g>
<!-- Node24 -->
<g id="node37" class="node">
<title>Node24</title>
<g id="a_node37"><a xlink:title=" ">
<polygon fill="white" stroke="#bfbfbf" points="638,-56.5 638,-75.5 693,-75.5 693,-56.5 638,-56.5"/>
<text text-anchor="middle" x="665.5" y="-63.5" font-family="Helvetica,sans-Serif" font-size="10.00">fstream</text>
</a>
</g>
</g>
<!-- Node17&#45;&gt;Node24 -->
<g id="edge42" class="edge">
<title>Node17&#45;&gt;Node24</title>
<path fill="none" stroke="midnightblue" d="M1109.63,-123.32C1099.93,-119.22 1087.8,-114.66 1076.5,-112 917.14,-74.42 869.03,-102.65 703.34,-75.88"/>
<polygon fill="midnightblue" stroke="midnightblue" points="703.73,-72.39 693.29,-74.21 702.58,-79.3 703.73,-72.39"/>
</g>
<!-- Node25 -->
<g id="node38" class="node">
<title>Node25</title>
<g id="a_node38"><a xlink:title=" ">
<polygon fill="white" stroke="#bfbfbf" points="711.5,-56.5 711.5,-75.5 759.5,-75.5 759.5,-56.5 711.5,-56.5"/>
<text text-anchor="middle" x="735.5" y="-63.5" font-family="Helvetica,sans-Serif" font-size="10.00">gsl/gsl</text>
</a>
</g>
</g>
<!-- Node17&#45;&gt;Node25 -->
<g id="edge43" class="edge">
<title>Node17&#45;&gt;Node25</title>
<path fill="none" stroke="midnightblue" d="M1109.61,-123.42C1099.9,-119.35 1087.77,-114.78 1076.5,-112 945.82,-79.78 905.68,-101.15 769.52,-75.91"/>
<polygon fill="midnightblue" stroke="midnightblue" points="770.03,-72.44 759.55,-74.01 768.72,-79.32 770.03,-72.44"/>
</g>
<!-- Node26 -->
<g id="node39" class="node">
<title>Node26</title>
<g id="a_node39"><a xlink:title=" ">
<polygon fill="white" stroke="#bfbfbf" points="777.5,-56.5 777.5,-75.5 837.5,-75.5 837.5,-56.5 777.5,-56.5"/>
<text text-anchor="middle" x="807.5" y="-63.5" font-family="Helvetica,sans-Serif" font-size="10.00">iostream</text>
</a>
</g>
</g>
<!-- Node17&#45;&gt;Node26 -->
<g id="edge44" class="edge">
<title>Node17&#45;&gt;Node26</title>
<path fill="none" stroke="midnightblue" d="M1109.07,-123.4C1099.44,-119.43 1087.53,-114.95 1076.5,-112 979.67,-86.11 949.93,-95.03 847.8,-76.11"/>
<polygon fill="midnightblue" stroke="midnightblue" points="848.17,-72.62 837.69,-74.19 846.86,-79.49 848.17,-72.62"/>
</g>
<!-- Node27 -->
<g id="node40" class="node">
<title>Node27</title>
<g id="a_node40"><a xlink:title=" ">
<polygon fill="white" stroke="#bfbfbf" points="855.5,-56.5 855.5,-75.5 903.5,-75.5 903.5,-56.5 855.5,-56.5"/>
<text text-anchor="middle" x="879.5" y="-63.5" font-family="Helvetica,sans-Serif" font-size="10.00">mutex</text>
</a>
</g>
</g>
<!-- Node17&#45;&gt;Node27 -->
<g id="edge45" class="edge">
<title>Node17&#45;&gt;Node27</title>
<path fill="none" stroke="midnightblue" d="M1108.5,-123.49C1098.93,-119.63 1087.25,-115.23 1076.5,-112 1008.1,-91.47 986.78,-93.59 913.77,-76.19"/>
<polygon fill="midnightblue" stroke="midnightblue" points="914.16,-72.68 903.61,-73.73 912.51,-79.49 914.16,-72.68"/>
</g>
<!-- Node28 -->
<g id="node41" class="node">
<title>Node28</title>
<g id="a_node41"><a xlink:title=" ">
<polygon fill="white" stroke="#bfbfbf" points="921.5,-56.5 921.5,-75.5 975.5,-75.5 975.5,-56.5 921.5,-56.5"/>
<text text-anchor="middle" x="948.5" y="-63.5" font-family="Helvetica,sans-Serif" font-size="10.00">random</text>
</a>
</g>
</g>
<!-- Node17&#45;&gt;Node28 -->
<g id="edge46" class="edge">
<title>Node17&#45;&gt;Node28</title>
<path fill="none" stroke="midnightblue" d="M1106.79,-123.49C1097.49,-119.88 1086.49,-115.67 1076.5,-112 1045.08,-100.44 1009.09,-87.84 983.29,-78.93"/>
<polygon fill="midnightblue" stroke="midnightblue" points="984.19,-75.53 973.59,-75.58 981.91,-82.15 984.19,-75.53"/>
</g>
<!-- Node17&#45;&gt;Node29 -->
<g id="edge47" class="edge">
<title>Node17&#45;&gt;Node29</title>
<path fill="none" stroke="midnightblue" d="M1097.29,-123.43C1081.07,-119.32 1060.85,-114.7 1042.5,-112 797.71,-75.96 729.65,-109.45 480.52,-75.92"/>
<polygon fill="midnightblue" stroke="midnightblue" points="480.82,-72.43 470.43,-74.54 479.87,-79.36 480.82,-72.43"/>
</g>
<!-- Node30 -->
<g id="node43" class="node">
<title>Node30</title>
<g id="a_node43"><a xlink:title=" ">
<polygon fill="white" stroke="#bfbfbf" points="993.5,-56.5 993.5,-75.5 1037.5,-75.5 1037.5,-56.5 993.5,-56.5"/>
<text text-anchor="middle" x="1015.5" y="-63.5" font-family="Helvetica,sans-Serif" font-size="10.00">string</text>
</a>
</g>
</g>
<!-- Node17&#45;&gt;Node30 -->
<g id="edge48" class="edge">
<title>Node17&#45;&gt;Node30</title>
<path fill="none" stroke="midnightblue" d="M1113.26,-123.23C1094.28,-112.32 1061.65,-93.55 1039.35,-80.72"/>
<polygon fill="midnightblue" stroke="midnightblue" points="1040.91,-77.58 1030.5,-75.63 1037.42,-83.65 1040.91,-77.58"/>
</g>
<!-- Node31 -->
<g id="node44" class="node">
<title>Node31</title>
<g id="a_node44"><a xlink:title=" ">
<polygon fill="white" stroke="#bfbfbf" points="1056,-56.5 1056,-75.5 1121,-75.5 1121,-56.5 1056,-56.5"/>
<text text-anchor="middle" x="1088.5" y="-63.5" font-family="Helvetica,sans-Serif" font-size="10.00">typeindex</text>
</a>
</g>
</g>
<!-- Node17&#45;&gt;Node31 -->
<g id="edge49" class="edge">
<title>Node17&#45;&gt;Node31</title>
<path fill="none" stroke="midnightblue" d="M1123.11,-123.23C1116.99,-113.29 1106.86,-96.84 1099.14,-84.29"/>
<polygon fill="midnightblue" stroke="midnightblue" points="1102.03,-82.31 1093.81,-75.63 1096.07,-85.98 1102.03,-82.31"/>
</g>
<!-- Node32 -->
<g id="node45" class="node">
<title>Node32</title>
<g id="a_node45"><a xlink:title=" ">
<polygon fill="white" stroke="#bfbfbf" points="1139,-56.5 1139,-75.5 1198,-75.5 1198,-56.5 1139,-56.5"/>
<text text-anchor="middle" x="1168.5" y="-63.5" font-family="Helvetica,sans-Serif" font-size="10.00">date/tz.h</text>
</a>
</g>
</g>
<!-- Node17&#45;&gt;Node32 -->
<g id="edge50" class="edge">
<title>Node17&#45;&gt;Node32</title>
<path fill="none" stroke="midnightblue" d="M1133.89,-123.23C1140.01,-113.29 1150.14,-96.84 1157.86,-84.29"/>
<polygon fill="midnightblue" stroke="midnightblue" points="1160.93,-85.98 1163.19,-75.63 1154.97,-82.31 1160.93,-85.98"/>
</g>
</g>
</svg>
        <g id="navigator" transform="translate(0 0)" fill="#404254">
                <rect fill="#f2f5e9" fill-opacity="0.5" stroke="#606060" stroke-width=".5" x="0" y="0" width="60" height="60"/>
                <use id="zoomplus" xlink:href="#zoomPlus" x="17" y="9" onmousedown="handleZoom(evt,'in')"/>
                <use id="zoomminus" xlink:href="#zoomMin" x="42" y="9" onmousedown="handleZoom(evt,'out')"/>
                <use id="reset" xlink:href="#resetDef" x="30" y="36" onmousedown="handleReset()"/>
                <g id="arrowUp" xlink:href="#dirArrow" transform="translate(30 24)" onmousedown="handlePan(0,-1)">
                  <use xlink:href="#rim" fill="#404040">
                        <set attributeName="fill" to="#808080" begin="arrowUp.mouseover" end="arrowUp.mouseout"/>
                  </use>
                  <path fill="none" stroke="white" stroke-width="1.5" d="M0,-3.0v7 M-2.5,-0.5L0,-3.0L2.5,-0.5"/>
                </g>
                <g id="arrowRight" xlink:href="#dirArrow" transform="rotate(90) translate(36 -43)" onmousedown="handlePan(1,0)">
                  <use xlink:href="#rim" fill="#404040">
                        <set attributeName="fill" to="#808080" begin="arrowRight.mouseover" end="arrowRight.mouseout"/>
                  </use>
                  <path fill="none" stroke="white" stroke-width="1.5" d="M0,-3.0v7 M-2.5,-0.5L0,-3.0L2.5,-0.5"/>
                </g>
                <g id="arrowDown" xlink:href="#dirArrow" transform="rotate(180) translate(-30 -48)" onmousedown="handlePan(0,1)">
                  <use xlink:href="#rim" fill="#404040">
                        <set attributeName="fill" to="#808080" begin="arrowDown.mouseover" end="arrowDown.mouseout"/>
                  </use>
                  <path fill="none" stroke="white" stroke-width="1.5" d="M0,-3.0v7 M-2.5,-0.5L0,-3.0L2.5,-0.5"/>
                </g>
                <g id="arrowLeft" xlink:href="#dirArrow" transform="rotate(270) translate(-36 17)" onmousedown="handlePan(-1,0)">
                  <use xlink:href="#rim" fill="#404040">
                        <set attributeName="fill" to="#808080" begin="arrowLeft.mouseover" end="arrowLeft.mouseout"/>
                  </use>
                  <path fill="none" stroke="white" stroke-width="1.5" d="M0,-3.0v7 M-2.5,-0.5L0,-3.0L2.5,-0.5"/>
                </g>
        </g>
        <svg viewBox="0 0 15 15" width="100%" height="30px" preserveAspectRatio="xMaxYMin meet">
         <g id="arrow_out" transform="scale(0.3 0.3)">
          <a xlink:href="cdt-opt_8cpp__incl_org.svg" target="_base">
           <rect id="button" ry="5" rx="5" y="6" x="6" height="38" width="38"
                fill="#f2f5e9" fill-opacity="0.5" stroke="#606060" stroke-width="1.0"/>
           <path id="arrow"
             d="M 11.500037,31.436501 C 11.940474,20.09759 22.043105,11.32322 32.158766,21.979434 L 37.068811,17.246167 C 37.068811,17.246167 37.088388,32 37.088388,32 L 22.160133,31.978069 C 22.160133,31.978069 26.997745,27.140456 26.997745,27.140456 C 18.528582,18.264221 13.291696,25.230495 11.500037,31.436501 z"
             style="fill:#404040;"/>
          </a>
         </g>
        </svg>
</svg>
