<?xml version="1.0" encoding="UTF-8" standalone="no"?>
<!DOCTYPE svg PUBLIC "-//W3C//DTD SVG 1.1//EN"
 "http://www.w3.org/Graphics/SVG/1.1/DTD/svg11.dtd">
<!-- Generated by graphviz version 2.43.0 (0)
 -->
<!-- Title: src/cdt.cpp Pages: 1 -->
<svg width="2880pt" height="610pt"
 viewBox="0.00 0.00 2880.00 610.00" xmlns="http://www.w3.org/2000/svg" xmlns:xlink="http://www.w3.org/1999/xlink">
<g id="graph0" class="graph" transform="scale(1 1) rotate(0) translate(4 606)">
<title>src/cdt.cpp</title>
<polygon fill="white" stroke="transparent" points="-4,4 -4,-606 2876,-606 2876,4 -4,4"/>
<!-- Node1 -->
<g id="node1" class="node">
<title>Node1</title>
<g id="a_node1"><a xlink:title="The main executable.">
<polygon fill="#bfbfbf" stroke="black" points="2520,-582.5 2520,-601.5 2589,-601.5 2589,-582.5 2520,-582.5"/>
<text text-anchor="middle" x="2554.5" y="-589.5" font-family="Helvetica,sans-Serif" font-size="10.00">src/cdt.cpp</text>
</a>
</g>
</g>
<!-- Node2 -->
<g id="node2" class="node">
<title>Node2</title>
<g id="a_node2"><a xlink:title=" ">
<polygon fill="white" stroke="#bfbfbf" points="2400,-526.5 2400,-545.5 2507,-545.5 2507,-526.5 2400,-526.5"/>
<text text-anchor="middle" x="2453.5" y="-533.5" font-family="Helvetica,sans-Serif" font-size="10.00">CGAL/Real_timer.h</text>
</a>
</g>
</g>
<!-- Node1&#45;&gt;Node2 -->
<g id="edge1" class="edge">
<title>Node1&#45;&gt;Node2</title>
<path fill="none" stroke="midnightblue" d="M2538.27,-582.32C2522.15,-573.7 2497.2,-560.36 2478.54,-550.39"/>
<polygon fill="midnightblue" stroke="midnightblue" points="2480.16,-547.28 2469.69,-545.65 2476.86,-553.46 2480.16,-547.28"/>
</g>
<!-- Node3 -->
<g id="node3" class="node">
<title>Node3</title>
<g id="a_node3"><a xlink:title=" ">
<polygon fill="white" stroke="#bfbfbf" points="2525,-526.5 2525,-545.5 2584,-545.5 2584,-526.5 2525,-526.5"/>
<text text-anchor="middle" x="2554.5" y="-533.5" font-family="Helvetica,sans-Serif" font-size="10.00">docopt.h</text>
</a>
</g>
</g>
<!-- Node1&#45;&gt;Node3 -->
<g id="edge2" class="edge">
<title>Node1&#45;&gt;Node3</title>
<path fill="none" stroke="midnightblue" d="M2554.5,-582.08C2554.5,-575.01 2554.5,-564.86 2554.5,-555.99"/>
<polygon fill="midnightblue" stroke="midnightblue" points="2558,-555.75 2554.5,-545.75 2551,-555.75 2558,-555.75"/>
</g>
<!-- Node4 -->
<g id="node4" class="node">
<title>Node4</title>
<g id="a_node4"><a xlink:href="_metropolis_8hpp.html" target="_top" xlink:title="Perform Metropolis&#45;Hastings algorithm on Delaunay Triangulations.">
<polygon fill="white" stroke="black" points="2602,-526.5 2602,-545.5 2691,-545.5 2691,-526.5 2602,-526.5"/>
<text text-anchor="middle" x="2646.5" y="-533.5" font-family="Helvetica,sans-Serif" font-size="10.00">Metropolis.hpp</text>
</a>
</g>
</g>
<!-- Node1&#45;&gt;Node4 -->
<g id="edge3" class="edge">
<title>Node1&#45;&gt;Node4</title>
<path fill="none" stroke="midnightblue" d="M2569.28,-582.32C2583.77,-573.82 2606.07,-560.73 2622.99,-550.8"/>
<polygon fill="midnightblue" stroke="midnightblue" points="2624.9,-553.74 2631.76,-545.65 2621.36,-547.7 2624.9,-553.74"/>
</g>
<!-- Node5 -->
<g id="node5" class="node">
<title>Node5</title>
<g id="a_node5"><a xlink:href="_move__strategy_8hpp.html" target="_top" xlink:title="Template class for move algorithms (strategies) on manifolds.">
<polygon fill="white" stroke="black" points="2536,-470.5 2536,-489.5 2645,-489.5 2645,-470.5 2536,-470.5"/>
<text text-anchor="middle" x="2590.5" y="-477.5" font-family="Helvetica,sans-Serif" font-size="10.00">Move_strategy.hpp</text>
</a>
</g>
</g>
<!-- Node4&#45;&gt;Node5 -->
<g id="edge4" class="edge">
<title>Node4&#45;&gt;Node5</title>
<path fill="none" stroke="midnightblue" d="M2637.5,-526.32C2629.31,-518.42 2616.99,-506.55 2607.03,-496.94"/>
<polygon fill="midnightblue" stroke="midnightblue" points="2609.29,-494.26 2599.66,-489.83 2604.43,-499.29 2609.29,-494.26"/>
</g>
<!-- Node51 -->
<g id="node49" class="node">
<title>Node51</title>
<g id="a_node49"><a xlink:href="_s3_action_8hpp.html" target="_top" xlink:title="Calculate S3 bulk actions on 3D Delaunay Triangulations.">
<polygon fill="white" stroke="black" points="2663.5,-470.5 2663.5,-489.5 2743.5,-489.5 2743.5,-470.5 2663.5,-470.5"/>
<text text-anchor="middle" x="2703.5" y="-477.5" font-family="Helvetica,sans-Serif" font-size="10.00">S3Action.hpp</text>
</a>
</g>
</g>
<!-- Node4&#45;&gt;Node51 -->
<g id="edge52" class="edge">
<title>Node4&#45;&gt;Node51</title>
<path fill="none" stroke="midnightblue" d="M2655.66,-526.32C2664,-518.42 2676.53,-506.55 2686.68,-496.94"/>
<polygon fill="midnightblue" stroke="midnightblue" points="2689.32,-499.25 2694.18,-489.83 2684.51,-494.17 2689.32,-499.25"/>
</g>
<!-- Node6 -->
<g id="node6" class="node">
<title>Node6</title>
<g id="a_node6"><a xlink:href="_move__command_8hpp.html" target="_top" xlink:title="Do ergodic moves using the Command pattern.">
<polygon fill="white" stroke="black" points="2531,-414.5 2531,-433.5 2650,-433.5 2650,-414.5 2531,-414.5"/>
<text text-anchor="middle" x="2590.5" y="-421.5" font-family="Helvetica,sans-Serif" font-size="10.00">Move_command.hpp</text>
</a>
</g>
</g>
<!-- Node5&#45;&gt;Node6 -->
<g id="edge5" class="edge">
<title>Node5&#45;&gt;Node6</title>
<path fill="none" stroke="midnightblue" d="M2590.5,-470.08C2590.5,-463.01 2590.5,-452.86 2590.5,-443.99"/>
<polygon fill="midnightblue" stroke="midnightblue" points="2594,-443.75 2590.5,-433.75 2587,-443.75 2594,-443.75"/>
</g>
<!-- Node7 -->
<g id="node7" class="node">
<title>Node7</title>
<g id="a_node7"><a xlink:href="_apply__move_8hpp.html" target="_top" xlink:title="Apply Pachner moves to foliated Delaunay triangulations.">
<polygon fill="white" stroke="black" points="2606.5,-358.5 2606.5,-377.5 2704.5,-377.5 2704.5,-358.5 2606.5,-358.5"/>
<text text-anchor="middle" x="2655.5" y="-365.5" font-family="Helvetica,sans-Serif" font-size="10.00">Apply_move.hpp</text>
</a>
</g>
</g>
<!-- Node6&#45;&gt;Node7 -->
<g id="edge6" class="edge">
<title>Node6&#45;&gt;Node7</title>
<path fill="none" stroke="midnightblue" d="M2600.94,-414.32C2610.65,-406.26 2625.32,-394.08 2637,-384.37"/>
<polygon fill="midnightblue" stroke="midnightblue" points="2639.41,-386.92 2644.87,-377.83 2634.94,-381.53 2639.41,-386.92"/>
</g>
<!-- Node13 -->
<g id="node13" class="node">
<title>Node13</title>
<g id="a_node13"><a xlink:href="_ergodic__moves__3_8hpp.html" target="_top" xlink:title="Pachner moves on 2+1 dimensional foliated Delaunay triangulations.">
<polygon fill="white" stroke="black" points="2465,-358.5 2465,-377.5 2588,-377.5 2588,-358.5 2465,-358.5"/>
<text text-anchor="middle" x="2526.5" y="-365.5" font-family="Helvetica,sans-Serif" font-size="10.00">Ergodic_moves_3.hpp</text>
</a>
</g>
</g>
<!-- Node6&#45;&gt;Node13 -->
<g id="edge12" class="edge">
<title>Node6&#45;&gt;Node13</title>
<path fill="none" stroke="midnightblue" d="M2580.22,-414.32C2570.66,-406.26 2556.22,-394.08 2544.72,-384.37"/>
<polygon fill="midnightblue" stroke="midnightblue" points="2546.87,-381.61 2536.97,-377.83 2542.36,-386.96 2546.87,-381.61"/>
</g>
<!-- Node8 -->
<g id="node8" class="node">
<title>Node8</title>
<g id="a_node8"><a xlink:title=" ">
<polygon fill="white" stroke="#bfbfbf" points="2571,-11.5 2571,-30.5 2664,-30.5 2664,-11.5 2571,-11.5"/>
<text text-anchor="middle" x="2617.5" y="-18.5" font-family="Helvetica,sans-Serif" font-size="10.00">spdlog/spdlog.h</text>
</a>
</g>
</g>
<!-- Node7&#45;&gt;Node8 -->
<g id="edge7" class="edge">
<title>Node7&#45;&gt;Node8</title>
<path fill="none" stroke="midnightblue" d="M2650.22,-358.23C2639.77,-340.04 2617.5,-296.6 2617.5,-257 2617.5,-257 2617.5,-257 2617.5,-143 2617.5,-106.71 2617.5,-64.31 2617.5,-40.56"/>
<polygon fill="midnightblue" stroke="midnightblue" points="2621,-40.51 2617.5,-30.51 2614,-40.51 2621,-40.51"/>
</g>
<!-- Node9 -->
<g id="node9" class="node">
<title>Node9</title>
<g id="a_node9"><a xlink:title=" ">
<polygon fill="white" stroke="#bfbfbf" points="2684,-302.5 2684,-321.5 2749,-321.5 2749,-302.5 2684,-302.5"/>
<text text-anchor="middle" x="2716.5" y="-309.5" font-family="Helvetica,sans-Serif" font-size="10.00">functional</text>
</a>
</g>
</g>
<!-- Node7&#45;&gt;Node9 -->
<g id="edge8" class="edge">
<title>Node7&#45;&gt;Node9</title>
<path fill="none" stroke="midnightblue" d="M2665.3,-358.32C2674.32,-350.34 2687.91,-338.31 2698.82,-328.65"/>
<polygon fill="midnightblue" stroke="midnightblue" points="2701.35,-331.08 2706.52,-321.83 2696.71,-325.84 2701.35,-331.08"/>
</g>
<!-- Node10 -->
<g id="node10" class="node">
<title>Node10</title>
<g id="a_node10"><a xlink:title=" ">
<polygon fill="white" stroke="#bfbfbf" points="2682.5,-11.5 2682.5,-30.5 2726.5,-30.5 2726.5,-11.5 2682.5,-11.5"/>
<text text-anchor="middle" x="2704.5" y="-18.5" font-family="Helvetica,sans-Serif" font-size="10.00">string</text>
</a>
</g>
</g>
<!-- Node7&#45;&gt;Node10 -->
<g id="edge9" class="edge">
<title>Node7&#45;&gt;Node10</title>
<path fill="none" stroke="midnightblue" d="M2655.5,-358.44C2655.5,-339.94 2655.5,-294.81 2655.5,-257 2655.5,-257 2655.5,-257 2655.5,-143 2655.5,-103.54 2678.17,-61.78 2692.67,-39.1"/>
<polygon fill="midnightblue" stroke="midnightblue" points="2695.69,-40.89 2698.29,-30.62 2689.85,-37.02 2695.69,-40.89"/>
</g>
<!-- Node11 -->
<g id="node11" class="node">
<title>Node11</title>
<g id="a_node11"><a xlink:title=" ">
<polygon fill="white" stroke="#bfbfbf" points="2489.5,-302.5 2489.5,-321.5 2581.5,-321.5 2581.5,-302.5 2489.5,-302.5"/>
<text text-anchor="middle" x="2535.5" y="-309.5" font-family="Helvetica,sans-Serif" font-size="10.00">tl/expected.hpp</text>
</a>
</g>
</g>
<!-- Node7&#45;&gt;Node11 -->
<g id="edge10" class="edge">
<title>Node7&#45;&gt;Node11</title>
<path fill="none" stroke="midnightblue" d="M2636.49,-358.44C2616.91,-349.64 2586.19,-335.81 2563.77,-325.72"/>
<polygon fill="midnightblue" stroke="midnightblue" points="2564.98,-322.43 2554.43,-321.52 2562.11,-328.81 2564.98,-322.43"/>
</g>
<!-- Node12 -->
<g id="node12" class="node">
<title>Node12</title>
<g id="a_node12"><a xlink:title=" ">
<polygon fill="white" stroke="#bfbfbf" points="2767,-302.5 2767,-321.5 2872,-321.5 2872,-302.5 2767,-302.5"/>
<text text-anchor="middle" x="2819.5" y="-309.5" font-family="Helvetica,sans-Serif" font-size="10.00">tl/function_ref.hpp</text>
</a>
</g>
</g>
<!-- Node7&#45;&gt;Node12 -->
<g id="edge11" class="edge">
<title>Node7&#45;&gt;Node12</title>
<path fill="none" stroke="midnightblue" d="M2681.49,-358.44C2709.2,-349.32 2753.25,-334.81 2784.12,-324.65"/>
<polygon fill="midnightblue" stroke="midnightblue" points="2785.23,-327.97 2793.64,-321.52 2783.04,-321.32 2785.23,-327.97"/>
</g>
<!-- Node13&#45;&gt;Node11 -->
<g id="edge13" class="edge">
<title>Node13&#45;&gt;Node11</title>
<path fill="none" stroke="midnightblue" d="M2527.99,-358.08C2529.18,-350.93 2530.89,-340.64 2532.38,-331.69"/>
<polygon fill="midnightblue" stroke="midnightblue" points="2535.85,-332.19 2534.04,-321.75 2528.95,-331.04 2535.85,-332.19"/>
</g>
<!-- Node14 -->
<g id="node14" class="node">
<title>Node14</title>
<g id="a_node14"><a xlink:href="_move__tracker_8hpp.html" target="_top" xlink:title="Track ergodic moves.">
<polygon fill="white" stroke="black" points="1533,-302.5 1533,-321.5 1636,-321.5 1636,-302.5 1533,-302.5"/>
<text text-anchor="middle" x="1584.5" y="-309.5" font-family="Helvetica,sans-Serif" font-size="10.00">Move_tracker.hpp</text>
</a>
</g>
</g>
<!-- Node13&#45;&gt;Node14 -->
<g id="edge14" class="edge">
<title>Node13&#45;&gt;Node14</title>
<path fill="none" stroke="midnightblue" d="M2464.69,-363.46C2293.92,-353.67 1816.97,-326.33 1646.26,-316.54"/>
<polygon fill="midnightblue" stroke="midnightblue" points="1646.37,-313.04 1636.18,-315.96 1645.97,-320.03 1646.37,-313.04"/>
</g>
<!-- Node15 -->
<g id="node15" class="node">
<title>Node15</title>
<g id="a_node15"><a xlink:href="_manifold_8hpp.html" target="_top" xlink:title="Data structures for manifolds.">
<polygon fill="white" stroke="black" points="1294.5,-246.5 1294.5,-265.5 1374.5,-265.5 1374.5,-246.5 1294.5,-246.5"/>
<text text-anchor="middle" x="1334.5" y="-253.5" font-family="Helvetica,sans-Serif" font-size="10.00">Manifold.hpp</text>
</a>
</g>
</g>
<!-- Node14&#45;&gt;Node15 -->
<g id="edge15" class="edge">
<title>Node14&#45;&gt;Node15</title>
<path fill="none" stroke="midnightblue" d="M1544.89,-302.44C1501.27,-293.02 1431.1,-277.87 1383.92,-267.68"/>
<polygon fill="midnightblue" stroke="midnightblue" points="1384.44,-264.21 1373.93,-265.52 1382.96,-271.05 1384.44,-264.21"/>
</g>
<!-- Node16 -->
<g id="node16" class="node">
<title>Node16</title>
<g id="a_node16"><a xlink:title=" ">
<polygon fill="white" stroke="#bfbfbf" points="1395,-190.5 1395,-209.5 1448,-209.5 1448,-190.5 1395,-190.5"/>
<text text-anchor="middle" x="1421.5" y="-197.5" font-family="Helvetica,sans-Serif" font-size="10.00">cstddef</text>
</a>
</g>
</g>
<!-- Node15&#45;&gt;Node16 -->
<g id="edge16" class="edge">
<title>Node15&#45;&gt;Node16</title>
<path fill="none" stroke="midnightblue" d="M1348.48,-246.32C1362.05,-237.9 1382.88,-224.97 1398.82,-215.07"/>
<polygon fill="midnightblue" stroke="midnightblue" points="1400.91,-217.9 1407.56,-209.65 1397.21,-211.95 1400.91,-217.9"/>
</g>
<!-- Node17 -->
<g id="node17" class="node">
<title>Node17</title>
<g id="a_node17"><a xlink:title=" ">
<polygon fill="white" stroke="#bfbfbf" points="1124.5,-190.5 1124.5,-209.5 1210.5,-209.5 1210.5,-190.5 1124.5,-190.5"/>
<text text-anchor="middle" x="1167.5" y="-197.5" font-family="Helvetica,sans-Serif" font-size="10.00">unordered_set</text>
</a>
</g>
</g>
<!-- Node15&#45;&gt;Node17 -->
<g id="edge17" class="edge">
<title>Node15&#45;&gt;Node17</title>
<path fill="none" stroke="midnightblue" d="M1308.04,-246.44C1279.82,-237.32 1234.96,-222.81 1203.53,-212.65"/>
<polygon fill="midnightblue" stroke="midnightblue" points="1204.43,-209.26 1193.84,-209.52 1202.28,-215.92 1204.43,-209.26"/>
</g>
<!-- Node18 -->
<g id="node18" class="node">
<title>Node18</title>
<g id="a_node18"><a xlink:title=" ">
<polygon fill="white" stroke="#bfbfbf" points="1229,-190.5 1229,-209.5 1274,-209.5 1274,-190.5 1229,-190.5"/>
<text text-anchor="middle" x="1251.5" y="-197.5" font-family="Helvetica,sans-Serif" font-size="10.00">utility</text>
</a>
</g>
</g>
<!-- Node15&#45;&gt;Node18 -->
<g id="edge18" class="edge">
<title>Node15&#45;&gt;Node18</title>
<path fill="none" stroke="midnightblue" d="M1321.16,-246.32C1308.34,-237.98 1288.72,-225.21 1273.56,-215.35"/>
<polygon fill="midnightblue" stroke="midnightblue" points="1275.09,-212.17 1264.8,-209.65 1271.28,-218.04 1275.09,-212.17"/>
</g>
<!-- Node19 -->
<g id="node19" class="node">
<title>Node19</title>
<g id="a_node19"><a xlink:href="_geometry_8hpp.html" target="_top" xlink:title="Geometric quantities of Manifold used by MoveAlgorithm.">
<polygon fill="white" stroke="black" points="1292,-190.5 1292,-209.5 1377,-209.5 1377,-190.5 1292,-190.5"/>
<text text-anchor="middle" x="1334.5" y="-197.5" font-family="Helvetica,sans-Serif" font-size="10.00">Geometry.hpp</text>
</a>
</g>
</g>
<!-- Node15&#45;&gt;Node19 -->
<g id="edge19" class="edge">
<title>Node15&#45;&gt;Node19</title>
<path fill="none" stroke="midnightblue" d="M1334.5,-246.08C1334.5,-239.01 1334.5,-228.86 1334.5,-219.99"/>
<polygon fill="midnightblue" stroke="midnightblue" points="1338,-219.75 1334.5,-209.75 1331,-219.75 1338,-219.75"/>
</g>
<!-- Node20 -->
<g id="node20" class="node">
<title>Node20</title>
<g id="a_node20"><a xlink:href="_foliated__triangulation_8hpp.html" target="_top" xlink:title="Create foliated spherical triangulations.">
<polygon fill="white" stroke="black" points="1012.5,-134.5 1012.5,-153.5 1156.5,-153.5 1156.5,-134.5 1012.5,-134.5"/>
<text text-anchor="middle" x="1084.5" y="-141.5" font-family="Helvetica,sans-Serif" font-size="10.00">Foliated_triangulation.hpp</text>
</a>
</g>
</g>
<!-- Node19&#45;&gt;Node20 -->
<g id="edge20" class="edge">
<title>Node19&#45;&gt;Node20</title>
<path fill="none" stroke="midnightblue" d="M1294.89,-190.44C1251.27,-181.02 1181.1,-165.87 1133.92,-155.68"/>
<polygon fill="midnightblue" stroke="midnightblue" points="1134.44,-152.21 1123.93,-153.52 1132.96,-159.05 1134.44,-152.21"/>
</g>
<!-- Node21 -->
<g id="node21" class="node">
<title>Node21</title>
<g id="a_node21"><a xlink:title=" ">
<polygon fill="white" stroke="#bfbfbf" points="526.5,-78.5 526.5,-97.5 586.5,-97.5 586.5,-78.5 526.5,-78.5"/>
<text text-anchor="middle" x="556.5" y="-85.5" font-family="Helvetica,sans-Serif" font-size="10.00">concepts</text>
</a>
</g>
</g>
<!-- Node20&#45;&gt;Node21 -->
<g id="edge21" class="edge">
<title>Node20&#45;&gt;Node21</title>
<path fill="none" stroke="midnightblue" d="M1012.45,-139.42C918.79,-134.09 750.04,-122.16 596.73,-97.99"/>
<polygon fill="midnightblue" stroke="midnightblue" points="597.08,-94.5 586.65,-96.38 595.98,-101.42 597.08,-94.5"/>
</g>
<!-- Node22 -->
<g id="node22" class="node">
<title>Node22</title>
<g id="a_node22"><a xlink:href="_triangulation__traits_8hpp.html" target="_top" xlink:title="Traits class for particular uses of CGAL.">
<polygon fill="white" stroke="black" points="605,-78.5 605,-97.5 736,-97.5 736,-78.5 605,-78.5"/>
<text text-anchor="middle" x="670.5" y="-85.5" font-family="Helvetica,sans-Serif" font-size="10.00">Triangulation_traits.hpp</text>
</a>
</g>
</g>
<!-- Node20&#45;&gt;Node22 -->
<g id="edge22" class="edge">
<title>Node20&#45;&gt;Node22</title>
<path fill="none" stroke="midnightblue" d="M1018.9,-134.44C944.71,-124.77 824.1,-109.04 746.04,-98.85"/>
<polygon fill="midnightblue" stroke="midnightblue" points="746.16,-95.34 735.79,-97.52 745.26,-102.28 746.16,-95.34"/>
</g>
<!-- Node31 -->
<g id="node29" class="node">
<title>Node31</title>
<g id="a_node29"><a xlink:href="_utilities_8hpp.html" target="_top" xlink:title="Utility functions.">
<polygon fill="white" stroke="black" points="1823.5,-78.5 1823.5,-97.5 1899.5,-97.5 1899.5,-78.5 1823.5,-78.5"/>
<text text-anchor="middle" x="1861.5" y="-85.5" font-family="Helvetica,sans-Serif" font-size="10.00">Utilities.hpp</text>
</a>
</g>
</g>
<!-- Node20&#45;&gt;Node31 -->
<g id="edge29" class="edge">
<title>Node20&#45;&gt;Node31</title>
<path fill="none" stroke="midnightblue" d="M1156.55,-137.99C1313.14,-127.11 1681.02,-101.54 1813.17,-92.36"/>
<polygon fill="midnightblue" stroke="midnightblue" points="1813.64,-95.83 1823.38,-91.65 1813.16,-88.85 1813.64,-95.83"/>
</g>
<!-- Node23 -->
<g id="node23" class="node">
<title>Node23</title>
<g id="a_node23"><a xlink:title=" ">
<polygon fill="white" stroke="#bfbfbf" points="493.5,-11.5 493.5,-30.5 673.5,-30.5 673.5,-11.5 493.5,-11.5"/>
<text text-anchor="middle" x="583.5" y="-18.5" font-family="Helvetica,sans-Serif" font-size="10.00">CGAL/Delaunay_triangulation_3.h</text>
</a>
</g>
</g>
<!-- Node22&#45;&gt;Node23 -->
<g id="edge23" class="edge">
<title>Node22&#45;&gt;Node23</title>
<path fill="none" stroke="midnightblue" d="M658.77,-78.23C644.55,-67.61 620.37,-49.55 603.26,-36.76"/>
<polygon fill="midnightblue" stroke="midnightblue" points="605.15,-33.81 595.05,-30.63 600.96,-39.42 605.15,-33.81"/>
</g>
<!-- Node24 -->
<g id="node24" class="node">
<title>Node24</title>
<g id="a_node24"><a xlink:title=" ">
<polygon fill="white" stroke="#bfbfbf" points="692,-0.5 692,-41.5 821,-41.5 821,-0.5 692,-0.5"/>
<text text-anchor="start" x="700" y="-29.5" font-family="Helvetica,sans-Serif" font-size="10.00">CGAL/Exact_predicates</text>
<text text-anchor="start" x="700" y="-18.5" font-family="Helvetica,sans-Serif" font-size="10.00">_inexact_constructions</text>
<text text-anchor="middle" x="756.5" y="-7.5" font-family="Helvetica,sans-Serif" font-size="10.00">_kernel.h</text>
</a>
</g>
</g>
<!-- Node22&#45;&gt;Node24 -->
<g id="edge24" class="edge">
<title>Node22&#45;&gt;Node24</title>
<path fill="none" stroke="midnightblue" d="M682.1,-78.23C692.45,-70.41 708.13,-58.56 722.43,-47.75"/>
<polygon fill="midnightblue" stroke="midnightblue" points="724.78,-50.36 730.64,-41.54 720.56,-44.78 724.78,-50.36"/>
</g>
<!-- Node25 -->
<g id="node25" class="node">
<title>Node25</title>
<g id="a_node25"><a xlink:title=" ">
<polygon fill="white" stroke="#bfbfbf" points="0,-11.5 0,-30.5 149,-30.5 149,-11.5 0,-11.5"/>
<text text-anchor="middle" x="74.5" y="-18.5" font-family="Helvetica,sans-Serif" font-size="10.00">CGAL/point_generators_3.h</text>
</a>
</g>
</g>
<!-- Node22&#45;&gt;Node25 -->
<g id="edge25" class="edge">
<title>Node22&#45;&gt;Node25</title>
<path fill="none" stroke="midnightblue" d="M604.67,-78.96C601.57,-78.63 598.5,-78.3 595.5,-78 401.61,-58.39 350.95,-72.66 158.5,-42 144.34,-39.74 129.04,-36.38 115.43,-33.06"/>
<polygon fill="midnightblue" stroke="midnightblue" points="115.94,-29.58 105.39,-30.54 114.24,-36.37 115.94,-29.58"/>
</g>
<!-- Node26 -->
<g id="node26" class="node">
<title>Node26</title>
<g id="a_node26"><a xlink:title=" ">
<polygon fill="white" stroke="#bfbfbf" points="167.5,-6 167.5,-36 305.5,-36 305.5,-6 167.5,-6"/>
<text text-anchor="start" x="175.5" y="-24" font-family="Helvetica,sans-Serif" font-size="10.00">CGAL/Triangulation</text>
<text text-anchor="middle" x="236.5" y="-13" font-family="Helvetica,sans-Serif" font-size="10.00">_cell_base_with_info_3.h</text>
</a>
</g>
</g>
<!-- Node22&#45;&gt;Node26 -->
<g id="edge26" class="edge">
<title>Node22&#45;&gt;Node26</title>
<path fill="none" stroke="midnightblue" d="M604.8,-78.91C505.84,-66.7 328.56,-44.68 314.5,-42 308.87,-40.93 303.04,-39.68 297.22,-38.35"/>
<polygon fill="midnightblue" stroke="midnightblue" points="298.02,-34.95 287.48,-36.05 296.41,-41.76 298.02,-34.95"/>
</g>
<!-- Node27 -->
<g id="node27" class="node">
<title>Node27</title>
<g id="a_node27"><a xlink:title=" ">
<polygon fill="white" stroke="#bfbfbf" points="323.5,-6 323.5,-36 475.5,-36 475.5,-6 323.5,-6"/>
<text text-anchor="start" x="331.5" y="-24" font-family="Helvetica,sans-Serif" font-size="10.00">CGAL/Triangulation</text>
<text text-anchor="middle" x="399.5" y="-13" font-family="Helvetica,sans-Serif" font-size="10.00">_vertex_base_with_info_3.h</text>
</a>
</g>
</g>
<!-- Node22&#45;&gt;Node27 -->
<g id="edge27" class="edge">
<title>Node22&#45;&gt;Node27</title>
<path fill="none" stroke="midnightblue" d="M634.79,-78.44C592.53,-68.3 521.2,-51.19 468.14,-38.46"/>
<polygon fill="midnightblue" stroke="midnightblue" points="468.66,-34.99 458.12,-36.06 467.02,-41.8 468.66,-34.99"/>
</g>
<!-- Node28 -->
<g id="node28" class="node">
<title>Node28</title>
<g id="a_node28"><a xlink:href="_settings_8hpp.html" target="_top" xlink:title="Global integer and precision settings.">
<polygon fill="white" stroke="red" points="839,-11.5 839,-30.5 916,-30.5 916,-11.5 839,-11.5"/>
<text text-anchor="middle" x="877.5" y="-18.5" font-family="Helvetica,sans-Serif" font-size="10.00">Settings.hpp</text>
</a>
</g>
</g>
<!-- Node22&#45;&gt;Node28 -->
<g id="edge28" class="edge">
<title>Node22&#45;&gt;Node28</title>
<path fill="none" stroke="midnightblue" d="M705.3,-78.43C737.76,-70.13 787.37,-56.68 829.5,-42 835.88,-39.78 842.63,-37.15 848.99,-34.53"/>
<polygon fill="midnightblue" stroke="midnightblue" points="850.69,-37.61 858.55,-30.51 847.97,-31.16 850.69,-37.61"/>
</g>
<!-- Node31&#45;&gt;Node8 -->
<g id="edge50" class="edge">
<title>Node31&#45;&gt;Node8</title>
<path fill="none" stroke="midnightblue" d="M1899.75,-85.94C2026.7,-82.22 2433.29,-68.47 2561.5,-42 2570.44,-40.15 2579.88,-37.2 2588.41,-34.12"/>
<polygon fill="midnightblue" stroke="midnightblue" points="2589.82,-37.33 2597.93,-30.51 2587.34,-30.78 2589.82,-37.33"/>
</g>
<!-- Node31&#45;&gt;Node10 -->
<g id="edge42" class="edge">
<title>Node31&#45;&gt;Node10</title>
<path fill="none" stroke="midnightblue" d="M1899.7,-87.46C2040.1,-88.75 2526.97,-89.61 2673.5,-42 2677.75,-40.62 2681.98,-38.51 2685.9,-36.16"/>
<polygon fill="midnightblue" stroke="midnightblue" points="2687.95,-39 2694.3,-30.51 2684.05,-33.19 2687.95,-39"/>
</g>
<!-- Node31&#45;&gt;Node28 -->
<g id="edge51" class="edge">
<title>Node31&#45;&gt;Node28</title>
<path fill="none" stroke="midnightblue" d="M1823.37,-86.92C1670.37,-86.33 1100.78,-81.46 925.5,-42 917.99,-40.31 910.16,-37.53 903.06,-34.57"/>
<polygon fill="midnightblue" stroke="midnightblue" points="904.47,-31.37 893.91,-30.51 901.63,-37.77 904.47,-31.37"/>
</g>
<!-- Node32 -->
<g id="node30" class="node">
<title>Node32</title>
<g id="a_node30"><a xlink:title=" ">
<polygon fill="white" stroke="#bfbfbf" points="1506,-11.5 1506,-30.5 1589,-30.5 1589,-11.5 1506,-11.5"/>
<text text-anchor="middle" x="1547.5" y="-18.5" font-family="Helvetica,sans-Serif" font-size="10.00">CGAL/Timer.h</text>
</a>
</g>
</g>
<!-- Node31&#45;&gt;Node32 -->
<g id="edge30" class="edge">
<title>Node31&#45;&gt;Node32</title>
<path fill="none" stroke="midnightblue" d="M1823.07,-82.92C1771.36,-76.86 1676.82,-63.81 1598.5,-42 1591.07,-39.93 1583.22,-37.16 1575.98,-34.35"/>
<polygon fill="midnightblue" stroke="midnightblue" points="1577.14,-31.05 1566.56,-30.54 1574.52,-37.54 1577.14,-31.05"/>
</g>
<!-- Node33 -->
<g id="node31" class="node">
<title>Node33</title>
<g id="a_node31"><a xlink:title=" ">
<polygon fill="white" stroke="#bfbfbf" points="1607.5,-11.5 1607.5,-30.5 1671.5,-30.5 1671.5,-11.5 1607.5,-11.5"/>
<text text-anchor="middle" x="1639.5" y="-18.5" font-family="Helvetica,sans-Serif" font-size="10.00">algorithm</text>
</a>
</g>
</g>
<!-- Node31&#45;&gt;Node33 -->
<g id="edge31" class="edge">
<title>Node31&#45;&gt;Node33</title>
<path fill="none" stroke="midnightblue" d="M1823.37,-79.95C1786.26,-72.53 1728.58,-59.48 1680.5,-42 1675.1,-40.04 1669.48,-37.58 1664.18,-35.07"/>
<polygon fill="midnightblue" stroke="midnightblue" points="1665.64,-31.89 1655.13,-30.59 1662.53,-38.16 1665.64,-31.89"/>
</g>
<!-- Node34 -->
<g id="node32" class="node">
<title>Node34</title>
<g id="a_node32"><a xlink:title=" ">
<polygon fill="white" stroke="#bfbfbf" points="1689.5,-11.5 1689.5,-30.5 1741.5,-30.5 1741.5,-11.5 1689.5,-11.5"/>
<text text-anchor="middle" x="1715.5" y="-18.5" font-family="Helvetica,sans-Serif" font-size="10.00">cassert</text>
</a>
</g>
</g>
<!-- Node31&#45;&gt;Node34 -->
<g id="edge32" class="edge">
<title>Node31&#45;&gt;Node34</title>
<path fill="none" stroke="midnightblue" d="M1837.71,-78.42C1814.96,-69.96 1779.87,-56.26 1750.5,-42 1746.53,-40.07 1742.4,-37.88 1738.42,-35.68"/>
<polygon fill="midnightblue" stroke="midnightblue" points="1739.99,-32.54 1729.57,-30.61 1736.51,-38.62 1739.99,-32.54"/>
</g>
<!-- Node35 -->
<g id="node33" class="node">
<title>Node35</title>
<g id="a_node33"><a xlink:title=" ">
<polygon fill="white" stroke="#bfbfbf" points="1760,-11.5 1760,-30.5 1809,-30.5 1809,-11.5 1760,-11.5"/>
<text text-anchor="middle" x="1784.5" y="-18.5" font-family="Helvetica,sans-Serif" font-size="10.00">cstdlib</text>
</a>
</g>
</g>
<!-- Node31&#45;&gt;Node35 -->
<g id="edge33" class="edge">
<title>Node31&#45;&gt;Node35</title>
<path fill="none" stroke="midnightblue" d="M1851.12,-78.23C1838.65,-67.71 1817.53,-49.88 1802.41,-37.12"/>
<polygon fill="midnightblue" stroke="midnightblue" points="1804.62,-34.4 1794.72,-30.63 1800.1,-39.75 1804.62,-34.4"/>
</g>
<!-- Node36 -->
<g id="node34" class="node">
<title>Node36</title>
<g id="a_node34"><a xlink:title=" ">
<polygon fill="white" stroke="#bfbfbf" points="1827.5,-11.5 1827.5,-30.5 1895.5,-30.5 1895.5,-11.5 1827.5,-11.5"/>
<text text-anchor="middle" x="1861.5" y="-18.5" font-family="Helvetica,sans-Serif" font-size="10.00">filesystem</text>
</a>
</g>
</g>
<!-- Node31&#45;&gt;Node36 -->
<g id="edge34" class="edge">
<title>Node31&#45;&gt;Node36</title>
<path fill="none" stroke="midnightblue" d="M1861.5,-78.23C1861.5,-68.68 1861.5,-53.12 1861.5,-40.78"/>
<polygon fill="midnightblue" stroke="midnightblue" points="1865,-40.63 1861.5,-30.63 1858,-40.63 1865,-40.63"/>
</g>
<!-- Node37 -->
<g id="node35" class="node">
<title>Node37</title>
<g id="a_node35"><a xlink:title=" ">
<polygon fill="white" stroke="#bfbfbf" points="1914,-11.5 1914,-30.5 1969,-30.5 1969,-11.5 1914,-11.5"/>
<text text-anchor="middle" x="1941.5" y="-18.5" font-family="Helvetica,sans-Serif" font-size="10.00">fstream</text>
</a>
</g>
</g>
<!-- Node31&#45;&gt;Node37 -->
<g id="edge35" class="edge">
<title>Node31&#45;&gt;Node37</title>
<path fill="none" stroke="midnightblue" d="M1872.29,-78.23C1885.24,-67.71 1907.19,-49.88 1922.89,-37.12"/>
<polygon fill="midnightblue" stroke="midnightblue" points="1925.33,-39.65 1930.88,-30.63 1920.91,-34.22 1925.33,-39.65"/>
</g>
<!-- Node38 -->
<g id="node36" class="node">
<title>Node38</title>
<g id="a_node36"><a xlink:title=" ">
<polygon fill="white" stroke="#bfbfbf" points="1987.5,-11.5 1987.5,-30.5 2035.5,-30.5 2035.5,-11.5 1987.5,-11.5"/>
<text text-anchor="middle" x="2011.5" y="-18.5" font-family="Helvetica,sans-Serif" font-size="10.00">gsl/gsl</text>
</a>
</g>
</g>
<!-- Node31&#45;&gt;Node38 -->
<g id="edge36" class="edge">
<title>Node31&#45;&gt;Node38</title>
<path fill="none" stroke="midnightblue" d="M1886.89,-78.49C1910.73,-70.18 1947.17,-56.68 1977.5,-42 1981.28,-40.17 1985.19,-38.07 1988.96,-35.94"/>
<polygon fill="midnightblue" stroke="midnightblue" points="1991.04,-38.78 1997.88,-30.69 1987.49,-32.75 1991.04,-38.78"/>
</g>
<!-- Node39 -->
<g id="node37" class="node">
<title>Node39</title>
<g id="a_node37"><a xlink:title=" ">
<polygon fill="white" stroke="#bfbfbf" points="2053.5,-11.5 2053.5,-30.5 2113.5,-30.5 2113.5,-11.5 2053.5,-11.5"/>
<text text-anchor="middle" x="2083.5" y="-18.5" font-family="Helvetica,sans-Serif" font-size="10.00">iostream</text>
</a>
</g>
</g>
<!-- Node31&#45;&gt;Node39 -->
<g id="edge37" class="edge">
<title>Node31&#45;&gt;Node39</title>
<path fill="none" stroke="midnightblue" d="M1899.78,-80.29C1937.35,-73.07 1995.92,-60.15 2044.5,-42 2049.54,-40.12 2054.77,-37.75 2059.7,-35.31"/>
<polygon fill="midnightblue" stroke="midnightblue" points="2061.43,-38.35 2068.68,-30.63 2058.2,-32.14 2061.43,-38.35"/>
</g>
<!-- Node40 -->
<g id="node38" class="node">
<title>Node40</title>
<g id="a_node38"><a xlink:title=" ">
<polygon fill="white" stroke="#bfbfbf" points="2131.5,-11.5 2131.5,-30.5 2179.5,-30.5 2179.5,-11.5 2131.5,-11.5"/>
<text text-anchor="middle" x="2155.5" y="-18.5" font-family="Helvetica,sans-Serif" font-size="10.00">mutex</text>
</a>
</g>
</g>
<!-- Node31&#45;&gt;Node40 -->
<g id="edge38" class="edge">
<title>Node31&#45;&gt;Node40</title>
<path fill="none" stroke="midnightblue" d="M1899.83,-84.87C1951.76,-80.98 2046.7,-70.34 2122.5,-42 2126.74,-40.42 2131.03,-38.28 2135.06,-35.99"/>
<polygon fill="midnightblue" stroke="midnightblue" points="2137.17,-38.8 2143.83,-30.55 2133.49,-32.84 2137.17,-38.8"/>
</g>
<!-- Node41 -->
<g id="node39" class="node">
<title>Node41</title>
<g id="a_node39"><a xlink:title=" ">
<polygon fill="white" stroke="#bfbfbf" points="2197.5,-11.5 2197.5,-30.5 2251.5,-30.5 2251.5,-11.5 2197.5,-11.5"/>
<text text-anchor="middle" x="2224.5" y="-18.5" font-family="Helvetica,sans-Serif" font-size="10.00">random</text>
</a>
</g>
</g>
<!-- Node31&#45;&gt;Node41 -->
<g id="edge39" class="edge">
<title>Node31&#45;&gt;Node41</title>
<path fill="none" stroke="midnightblue" d="M1899.55,-86.28C1961.6,-84.13 2087.79,-75.59 2188.5,-42 2193.33,-40.39 2198.26,-38.12 2202.86,-35.7"/>
<polygon fill="midnightblue" stroke="midnightblue" points="2204.76,-38.64 2211.71,-30.64 2201.29,-32.57 2204.76,-38.64"/>
</g>
<!-- Node42 -->
<g id="node40" class="node">
<title>Node42</title>
<g id="a_node40"><a xlink:title=" ">
<polygon fill="white" stroke="#bfbfbf" points="2269.5,-11.5 2269.5,-30.5 2309.5,-30.5 2309.5,-11.5 2269.5,-11.5"/>
<text text-anchor="middle" x="2289.5" y="-18.5" font-family="Helvetica,sans-Serif" font-size="10.00">span</text>
</a>
</g>
</g>
<!-- Node31&#45;&gt;Node42 -->
<g id="edge40" class="edge">
<title>Node31&#45;&gt;Node42</title>
<path fill="none" stroke="midnightblue" d="M1899.75,-85.06C1986.33,-80.29 2194.88,-66.55 2260.5,-42 2264.21,-40.61 2267.9,-38.64 2271.35,-36.48"/>
<polygon fill="midnightblue" stroke="midnightblue" points="2273.58,-39.19 2279.73,-30.55 2269.54,-33.47 2273.58,-39.19"/>
</g>
<!-- Node43 -->
<g id="node41" class="node">
<title>Node43</title>
<g id="a_node41"><a xlink:title=" ">
<polygon fill="white" stroke="#bfbfbf" points="2328,-11.5 2328,-30.5 2393,-30.5 2393,-11.5 2328,-11.5"/>
<text text-anchor="middle" x="2360.5" y="-18.5" font-family="Helvetica,sans-Serif" font-size="10.00">stdexcept</text>
</a>
</g>
</g>
<!-- Node31&#45;&gt;Node43 -->
<g id="edge41" class="edge">
<title>Node31&#45;&gt;Node43</title>
<path fill="none" stroke="midnightblue" d="M1899.63,-87.64C1979.09,-88.03 2167.57,-83.98 2318.5,-42 2324.58,-40.31 2330.86,-37.79 2336.66,-35.1"/>
<polygon fill="midnightblue" stroke="midnightblue" points="2338.43,-38.12 2345.83,-30.53 2335.32,-31.86 2338.43,-38.12"/>
</g>
<!-- Node44 -->
<g id="node42" class="node">
<title>Node44</title>
<g id="a_node42"><a xlink:title=" ">
<polygon fill="white" stroke="#bfbfbf" points="2411,-11.5 2411,-30.5 2476,-30.5 2476,-11.5 2411,-11.5"/>
<text text-anchor="middle" x="2443.5" y="-18.5" font-family="Helvetica,sans-Serif" font-size="10.00">typeindex</text>
</a>
</g>
</g>
<!-- Node31&#45;&gt;Node44 -->
<g id="edge43" class="edge">
<title>Node31&#45;&gt;Node44</title>
<path fill="none" stroke="midnightblue" d="M1899.82,-85.6C2006.73,-81.41 2306.59,-67.63 2401.5,-42 2407.59,-40.35 2413.88,-37.85 2419.68,-35.16"/>
<polygon fill="midnightblue" stroke="midnightblue" points="2421.46,-38.19 2428.84,-30.59 2418.33,-31.92 2421.46,-38.19"/>
</g>
<!-- Node45 -->
<g id="node43" class="node">
<title>Node45</title>
<g id="a_node43"><a xlink:title=" ">
<polygon fill="white" stroke="#bfbfbf" points="2494,-11.5 2494,-30.5 2553,-30.5 2553,-11.5 2494,-11.5"/>
<text text-anchor="middle" x="2523.5" y="-18.5" font-family="Helvetica,sans-Serif" font-size="10.00">date/tz.h</text>
</a>
</g>
</g>
<!-- Node31&#45;&gt;Node45 -->
<g id="edge44" class="edge">
<title>Node31&#45;&gt;Node45</title>
<path fill="none" stroke="midnightblue" d="M1899.74,-86.23C2017.53,-83.56 2373.55,-73.06 2484.5,-42 2490.09,-40.44 2495.81,-38.03 2501.08,-35.42"/>
<polygon fill="midnightblue" stroke="midnightblue" points="2502.82,-38.46 2509.98,-30.65 2499.51,-32.29 2502.82,-38.46"/>
</g>
<!-- Node46 -->
<g id="node44" class="node">
<title>Node46</title>
<g id="a_node44"><a xlink:title=" ">
<polygon fill="white" stroke="#bfbfbf" points="934.5,-11.5 934.5,-30.5 1032.5,-30.5 1032.5,-11.5 934.5,-11.5"/>
<text text-anchor="middle" x="983.5" y="-18.5" font-family="Helvetica,sans-Serif" font-size="10.00">pcg_random.hpp</text>
</a>
</g>
</g>
<!-- Node31&#45;&gt;Node46 -->
<g id="edge45" class="edge">
<title>Node31&#45;&gt;Node46</title>
<path fill="none" stroke="midnightblue" d="M1823.23,-86.3C1682.52,-83.53 1194.18,-71.91 1041.5,-42 1032.16,-40.17 1022.27,-37.18 1013.36,-34.06"/>
<polygon fill="midnightblue" stroke="midnightblue" points="1014.38,-30.71 1003.79,-30.55 1011.97,-37.28 1014.38,-30.71"/>
</g>
<!-- Node47 -->
<g id="node45" class="node">
<title>Node47</title>
<g id="a_node45"><a xlink:title=" ">
<polygon fill="white" stroke="#bfbfbf" points="1051,-11.5 1051,-30.5 1130,-30.5 1130,-11.5 1051,-11.5"/>
<text text-anchor="middle" x="1090.5" y="-18.5" font-family="Helvetica,sans-Serif" font-size="10.00">fmt/format.h</text>
</a>
</g>
</g>
<!-- Node31&#45;&gt;Node47 -->
<g id="edge46" class="edge">
<title>Node31&#45;&gt;Node47</title>
<path fill="none" stroke="midnightblue" d="M1823.36,-86.25C1693.84,-83.46 1271.57,-72.21 1139.5,-42 1131.99,-40.28 1124.14,-37.54 1116.98,-34.64"/>
<polygon fill="midnightblue" stroke="midnightblue" points="1118.31,-31.4 1107.74,-30.65 1115.53,-37.82 1118.31,-31.4"/>
</g>
<!-- Node48 -->
<g id="node46" class="node">
<title>Node48</title>
<g id="a_node46"><a xlink:title=" ">
<polygon fill="white" stroke="#bfbfbf" points="1148.5,-11.5 1148.5,-30.5 1234.5,-30.5 1234.5,-11.5 1148.5,-11.5"/>
<text text-anchor="middle" x="1191.5" y="-18.5" font-family="Helvetica,sans-Serif" font-size="10.00">fmt/ostream.h</text>
</a>
</g>
</g>
<!-- Node31&#45;&gt;Node48 -->
<g id="edge47" class="edge">
<title>Node31&#45;&gt;Node48</title>
<path fill="none" stroke="midnightblue" d="M1823.28,-85.69C1706.4,-81.45 1354.91,-66.91 1243.5,-42 1235.4,-40.19 1226.89,-37.35 1219.16,-34.37"/>
<polygon fill="midnightblue" stroke="midnightblue" points="1220.44,-31.11 1209.86,-30.59 1217.81,-37.6 1220.44,-31.11"/>
</g>
<!-- Node49 -->
<g id="node47" class="node">
<title>Node49</title>
<g id="a_node47"><a xlink:title=" ">
<polygon fill="white" stroke="#bfbfbf" points="1252.5,-6 1252.5,-36 1358.5,-36 1358.5,-6 1252.5,-6"/>
<text text-anchor="start" x="1260.5" y="-24" font-family="Helvetica,sans-Serif" font-size="10.00">spdlog/sinks/basic</text>
<text text-anchor="middle" x="1305.5" y="-13" font-family="Helvetica,sans-Serif" font-size="10.00">_file_sink.h</text>
</a>
</g>
</g>
<!-- Node31&#45;&gt;Node49 -->
<g id="edge48" class="edge">
<title>Node31&#45;&gt;Node49</title>
<path fill="none" stroke="midnightblue" d="M1823.28,-86.39C1739.75,-84.42 1534.99,-76.2 1367.5,-42 1363.14,-41.11 1358.66,-40.02 1354.2,-38.82"/>
<polygon fill="midnightblue" stroke="midnightblue" points="1355.09,-35.43 1344.51,-36.03 1353.15,-42.16 1355.09,-35.43"/>
</g>
<!-- Node50 -->
<g id="node48" class="node">
<title>Node50</title>
<g id="a_node48"><a xlink:title=" ">
<polygon fill="white" stroke="#bfbfbf" points="1377,-6 1377,-36 1488,-36 1488,-6 1377,-6"/>
<text text-anchor="start" x="1385" y="-24" font-family="Helvetica,sans-Serif" font-size="10.00">spdlog/sinks/stdout</text>
<text text-anchor="middle" x="1432.5" y="-13" font-family="Helvetica,sans-Serif" font-size="10.00">_color_sinks.h</text>
</a>
</g>
</g>
<!-- Node31&#45;&gt;Node50 -->
<g id="edge49" class="edge">
<title>Node31&#45;&gt;Node50</title>
<path fill="none" stroke="midnightblue" d="M1823.29,-84.57C1756.43,-79.8 1614.14,-67.42 1496.5,-42 1492.16,-41.06 1487.69,-39.96 1483.23,-38.76"/>
<polygon fill="midnightblue" stroke="midnightblue" points="1484.1,-35.37 1473.52,-36.02 1482.19,-42.11 1484.1,-35.37"/>
</g>
<!-- Node52 -->
<g id="node50" class="node">
<title>Node52</title>
<g id="a_node50"><a xlink:title=" ">
<polygon fill="white" stroke="#bfbfbf" points="2679.5,-414.5 2679.5,-433.5 2727.5,-433.5 2727.5,-414.5 2679.5,-414.5"/>
<text text-anchor="middle" x="2703.5" y="-421.5" font-family="Helvetica,sans-Serif" font-size="10.00">mpfr.h</text>
</a>
</g>
</g>
<!-- Node51&#45;&gt;Node52 -->
<g id="edge53" class="edge">
<title>Node51&#45;&gt;Node52</title>
<path fill="none" stroke="midnightblue" d="M2703.5,-470.08C2703.5,-463.01 2703.5,-452.86 2703.5,-443.99"/>
<polygon fill="midnightblue" stroke="midnightblue" points="2707,-443.75 2703.5,-433.75 2700,-443.75 2707,-443.75"/>
</g>
</g>
</svg>
