<?xml version="1.0" encoding="UTF-8" standalone="no"?>
<!DOCTYPE svg PUBLIC "-//W3C//DTD SVG 1.1//EN"
 "http://www.w3.org/Graphics/SVG/1.1/DTD/svg11.dtd">
<!-- Generated by graphviz version 2.43.0 (0)
 -->
<!-- Title: src/cdt.cpp Pages: 1 -->
<svg width="2576pt" height="666pt"
 viewBox="0.00 0.00 2576.00 666.00" xmlns="http://www.w3.org/2000/svg" xmlns:xlink="http://www.w3.org/1999/xlink">
<g id="graph0" class="graph" transform="scale(1 1) rotate(0) translate(4 662)">
<title>src/cdt.cpp</title>
<polygon fill="white" stroke="transparent" points="-4,4 -4,-662 2572,-662 2572,4 -4,4"/>
<!-- Node1 -->
<g id="node1" class="node">
<title>Node1</title>
<g id="a_node1"><a xlink:title="The main executable.">
<polygon fill="#bfbfbf" stroke="black" points="1191.5,-638.5 1191.5,-657.5 1260.5,-657.5 1260.5,-638.5 1191.5,-638.5"/>
<text text-anchor="middle" x="1226" y="-645.5" font-family="Helvetica,sans-Serif" font-size="10.00">src/cdt.cpp</text>
</a>
</g>
</g>
<!-- Node2 -->
<g id="node2" class="node">
<title>Node2</title>
<g id="a_node2"><a xlink:title=" ">
<polygon fill="white" stroke="#bfbfbf" points="1071.5,-582.5 1071.5,-601.5 1178.5,-601.5 1178.5,-582.5 1071.5,-582.5"/>
<text text-anchor="middle" x="1125" y="-589.5" font-family="Helvetica,sans-Serif" font-size="10.00">CGAL/Real_timer.h</text>
</a>
</g>
</g>
<!-- Node1&#45;&gt;Node2 -->
<g id="edge1" class="edge">
<title>Node1&#45;&gt;Node2</title>
<path fill="none" stroke="midnightblue" d="M1209.77,-638.32C1193.65,-629.7 1168.7,-616.36 1150.04,-606.39"/>
<polygon fill="midnightblue" stroke="midnightblue" points="1151.66,-603.28 1141.19,-601.65 1148.36,-609.46 1151.66,-603.28"/>
</g>
<!-- Node3 -->
<g id="node3" class="node">
<title>Node3</title>
<g id="a_node3"><a xlink:title=" ">
<polygon fill="white" stroke="#bfbfbf" points="1196.5,-582.5 1196.5,-601.5 1255.5,-601.5 1255.5,-582.5 1196.5,-582.5"/>
<text text-anchor="middle" x="1226" y="-589.5" font-family="Helvetica,sans-Serif" font-size="10.00">docopt.h</text>
</a>
</g>
</g>
<!-- Node1&#45;&gt;Node3 -->
<g id="edge2" class="edge">
<title>Node1&#45;&gt;Node3</title>
<path fill="none" stroke="midnightblue" d="M1226,-638.08C1226,-631.01 1226,-620.86 1226,-611.99"/>
<polygon fill="midnightblue" stroke="midnightblue" points="1229.5,-611.75 1226,-601.75 1222.5,-611.75 1229.5,-611.75"/>
</g>
<!-- Node4 -->
<g id="node4" class="node">
<title>Node4</title>
<g id="a_node4"><a xlink:href="_metropolis_8hpp.html" target="_top" xlink:title="Perform Metropolis&#45;Hastings algorithm on Delaunay Triangulations.">
<polygon fill="white" stroke="black" points="1273.5,-582.5 1273.5,-601.5 1362.5,-601.5 1362.5,-582.5 1273.5,-582.5"/>
<text text-anchor="middle" x="1318" y="-589.5" font-family="Helvetica,sans-Serif" font-size="10.00">Metropolis.hpp</text>
</a>
</g>
</g>
<!-- Node1&#45;&gt;Node4 -->
<g id="edge3" class="edge">
<title>Node1&#45;&gt;Node4</title>
<path fill="none" stroke="midnightblue" d="M1240.78,-638.32C1255.27,-629.82 1277.57,-616.73 1294.49,-606.8"/>
<polygon fill="midnightblue" stroke="midnightblue" points="1296.4,-609.74 1303.26,-601.65 1292.86,-603.7 1296.4,-609.74"/>
</g>
<!-- Node5 -->
<g id="node5" class="node">
<title>Node5</title>
<g id="a_node5"><a xlink:href="_move__strategy_8hpp.html" target="_top" xlink:title="Template class for move algorithms (strategies) on manifolds.">
<polygon fill="white" stroke="black" points="1199.5,-526.5 1199.5,-545.5 1308.5,-545.5 1308.5,-526.5 1199.5,-526.5"/>
<text text-anchor="middle" x="1254" y="-533.5" font-family="Helvetica,sans-Serif" font-size="10.00">Move_strategy.hpp</text>
</a>
</g>
</g>
<!-- Node4&#45;&gt;Node5 -->
<g id="edge4" class="edge">
<title>Node4&#45;&gt;Node5</title>
<path fill="none" stroke="midnightblue" d="M1307.72,-582.32C1298.16,-574.26 1283.72,-562.08 1272.22,-552.37"/>
<polygon fill="midnightblue" stroke="midnightblue" points="1274.37,-549.61 1264.47,-545.83 1269.86,-554.96 1274.37,-549.61"/>
</g>
<!-- Node50 -->
<g id="node48" class="node">
<title>Node50</title>
<g id="a_node48"><a xlink:href="_s3_action_8hpp.html" target="_top" xlink:title="Calculate S3 bulk actions on 3D Delaunay Triangulations.">
<polygon fill="white" stroke="black" points="1342,-526.5 1342,-545.5 1422,-545.5 1422,-526.5 1342,-526.5"/>
<text text-anchor="middle" x="1382" y="-533.5" font-family="Helvetica,sans-Serif" font-size="10.00">S3Action.hpp</text>
</a>
</g>
</g>
<!-- Node4&#45;&gt;Node50 -->
<g id="edge50" class="edge">
<title>Node4&#45;&gt;Node50</title>
<path fill="none" stroke="midnightblue" d="M1328.28,-582.32C1337.84,-574.26 1352.28,-562.08 1363.78,-552.37"/>
<polygon fill="midnightblue" stroke="midnightblue" points="1366.14,-554.96 1371.53,-545.83 1361.63,-549.61 1366.14,-554.96"/>
</g>
<!-- Node6 -->
<g id="node6" class="node">
<title>Node6</title>
<g id="a_node6"><a xlink:href="_move__command_8hpp.html" target="_top" xlink:title="Do ergodic moves using the Command pattern.">
<polygon fill="white" stroke="black" points="1164.5,-470.5 1164.5,-489.5 1283.5,-489.5 1283.5,-470.5 1164.5,-470.5"/>
<text text-anchor="middle" x="1224" y="-477.5" font-family="Helvetica,sans-Serif" font-size="10.00">Move_command.hpp</text>
</a>
</g>
</g>
<!-- Node5&#45;&gt;Node6 -->
<g id="edge5" class="edge">
<title>Node5&#45;&gt;Node6</title>
<path fill="none" stroke="midnightblue" d="M1249.05,-526.08C1244.9,-518.61 1238.85,-507.72 1233.73,-498.52"/>
<polygon fill="midnightblue" stroke="midnightblue" points="1236.78,-496.79 1228.86,-489.75 1230.66,-500.19 1236.78,-496.79"/>
</g>
<!-- Node7 -->
<g id="node7" class="node">
<title>Node7</title>
<g id="a_node7"><a xlink:href="_apply__move_8hpp.html" target="_top" xlink:title="Apply Pachner moves to foliated Delaunay triangulations.">
<polygon fill="white" stroke="black" points="1044,-414.5 1044,-433.5 1142,-433.5 1142,-414.5 1044,-414.5"/>
<text text-anchor="middle" x="1093" y="-421.5" font-family="Helvetica,sans-Serif" font-size="10.00">Apply_move.hpp</text>
</a>
</g>
</g>
<!-- Node6&#45;&gt;Node7 -->
<g id="edge6" class="edge">
<title>Node6&#45;&gt;Node7</title>
<path fill="none" stroke="midnightblue" d="M1203.24,-470.44C1181.68,-461.56 1147.74,-447.56 1123.21,-437.45"/>
<polygon fill="midnightblue" stroke="midnightblue" points="1124.24,-434.09 1113.66,-433.52 1121.57,-440.56 1124.24,-434.09"/>
</g>
<!-- Node12 -->
<g id="node12" class="node">
<title>Node12</title>
<g id="a_node12"><a xlink:href="_ergodic__moves__3_8hpp.html" target="_top" xlink:title="Pachner moves on 2+1 dimensional foliated Delaunay triangulations.">
<polygon fill="white" stroke="black" points="1162.5,-414.5 1162.5,-433.5 1285.5,-433.5 1285.5,-414.5 1162.5,-414.5"/>
<text text-anchor="middle" x="1224" y="-421.5" font-family="Helvetica,sans-Serif" font-size="10.00">Ergodic_moves_3.hpp</text>
</a>
</g>
</g>
<!-- Node6&#45;&gt;Node12 -->
<g id="edge11" class="edge">
<title>Node6&#45;&gt;Node12</title>
<path fill="none" stroke="midnightblue" d="M1224,-470.08C1224,-463.01 1224,-452.86 1224,-443.99"/>
<polygon fill="midnightblue" stroke="midnightblue" points="1227.5,-443.75 1224,-433.75 1220.5,-443.75 1227.5,-443.75"/>
</g>
<!-- Node8 -->
<g id="node8" class="node">
<title>Node8</title>
<g id="a_node8"><a xlink:title=" ">
<polygon fill="white" stroke="#bfbfbf" points="957.5,-358.5 957.5,-377.5 1022.5,-377.5 1022.5,-358.5 957.5,-358.5"/>
<text text-anchor="middle" x="990" y="-365.5" font-family="Helvetica,sans-Serif" font-size="10.00">functional</text>
</a>
</g>
</g>
<!-- Node7&#45;&gt;Node8 -->
<g id="edge7" class="edge">
<title>Node7&#45;&gt;Node8</title>
<path fill="none" stroke="midnightblue" d="M1076.45,-414.32C1060.01,-405.7 1034.57,-392.36 1015.53,-382.39"/>
<polygon fill="midnightblue" stroke="midnightblue" points="1016.99,-379.2 1006.51,-377.65 1013.74,-385.4 1016.99,-379.2"/>
</g>
<!-- Node9 -->
<g id="node9" class="node">
<title>Node9</title>
<g id="a_node9"><a xlink:title=" ">
<polygon fill="white" stroke="#bfbfbf" points="0,-67.5 0,-86.5 44,-86.5 44,-67.5 0,-67.5"/>
<text text-anchor="middle" x="22" y="-74.5" font-family="Helvetica,sans-Serif" font-size="10.00">string</text>
</a>
</g>
</g>
<!-- Node7&#45;&gt;Node9 -->
<g id="edge8" class="edge">
<title>Node7&#45;&gt;Node9</title>
<path fill="none" stroke="midnightblue" d="M1043.7,-423.04C913.26,-421.81 569,-409.44 569,-313 569,-313 569,-313 569,-199 569,-82.16 161.37,-141.68 53,-98 49.1,-96.43 45.16,-94.35 41.47,-92.12"/>
<polygon fill="midnightblue" stroke="midnightblue" points="43.19,-89.07 32.92,-86.5 39.35,-94.92 43.19,-89.07"/>
</g>
<!-- Node10 -->
<g id="node10" class="node">
<title>Node10</title>
<g id="a_node10"><a xlink:title=" ">
<polygon fill="white" stroke="#bfbfbf" points="1164,-358.5 1164,-377.5 1256,-377.5 1256,-358.5 1164,-358.5"/>
<text text-anchor="middle" x="1210" y="-365.5" font-family="Helvetica,sans-Serif" font-size="10.00">tl/expected.hpp</text>
</a>
</g>
</g>
<!-- Node7&#45;&gt;Node10 -->
<g id="edge9" class="edge">
<title>Node7&#45;&gt;Node10</title>
<path fill="none" stroke="midnightblue" d="M1111.54,-414.44C1130.62,-405.64 1160.57,-391.81 1182.44,-381.72"/>
<polygon fill="midnightblue" stroke="midnightblue" points="1183.93,-384.88 1191.55,-377.52 1181,-378.53 1183.93,-384.88"/>
</g>
<!-- Node11 -->
<g id="node11" class="node">
<title>Node11</title>
<g id="a_node11"><a xlink:title=" ">
<polygon fill="white" stroke="#bfbfbf" points="1040.5,-358.5 1040.5,-377.5 1145.5,-377.5 1145.5,-358.5 1040.5,-358.5"/>
<text text-anchor="middle" x="1093" y="-365.5" font-family="Helvetica,sans-Serif" font-size="10.00">tl/function_ref.hpp</text>
</a>
</g>
</g>
<!-- Node7&#45;&gt;Node11 -->
<g id="edge10" class="edge">
<title>Node7&#45;&gt;Node11</title>
<path fill="none" stroke="midnightblue" d="M1093,-414.08C1093,-407.01 1093,-396.86 1093,-387.99"/>
<polygon fill="midnightblue" stroke="midnightblue" points="1096.5,-387.75 1093,-377.75 1089.5,-387.75 1096.5,-387.75"/>
</g>
<!-- Node12&#45;&gt;Node10 -->
<g id="edge49" class="edge">
<title>Node12&#45;&gt;Node10</title>
<path fill="none" stroke="midnightblue" d="M1221.69,-414.08C1219.83,-406.93 1217.16,-396.64 1214.85,-387.69"/>
<polygon fill="midnightblue" stroke="midnightblue" points="1218.17,-386.55 1212.27,-377.75 1211.39,-388.31 1218.17,-386.55"/>
</g>
<!-- Node13 -->
<g id="node13" class="node">
<title>Node13</title>
<g id="a_node13"><a xlink:href="_move__tracker_8hpp.html" target="_top" xlink:title="Track ergodic moves.">
<polygon fill="white" stroke="black" points="1274.5,-358.5 1274.5,-377.5 1377.5,-377.5 1377.5,-358.5 1274.5,-358.5"/>
<text text-anchor="middle" x="1326" y="-365.5" font-family="Helvetica,sans-Serif" font-size="10.00">Move_tracker.hpp</text>
</a>
</g>
</g>
<!-- Node12&#45;&gt;Node13 -->
<g id="edge12" class="edge">
<title>Node12&#45;&gt;Node13</title>
<path fill="none" stroke="midnightblue" d="M1240.39,-414.32C1256.67,-405.7 1281.87,-392.36 1300.72,-382.39"/>
<polygon fill="midnightblue" stroke="midnightblue" points="1302.45,-385.43 1309.65,-377.65 1299.18,-379.24 1302.45,-385.43"/>
</g>
<!-- Node14 -->
<g id="node14" class="node">
<title>Node14</title>
<g id="a_node14"><a xlink:href="_manifold_8hpp.html" target="_top" xlink:title="Data structures for manifolds.">
<polygon fill="white" stroke="black" points="1286,-302.5 1286,-321.5 1366,-321.5 1366,-302.5 1286,-302.5"/>
<text text-anchor="middle" x="1326" y="-309.5" font-family="Helvetica,sans-Serif" font-size="10.00">Manifold.hpp</text>
</a>
</g>
</g>
<!-- Node13&#45;&gt;Node14 -->
<g id="edge13" class="edge">
<title>Node13&#45;&gt;Node14</title>
<path fill="none" stroke="midnightblue" d="M1326,-358.08C1326,-351.01 1326,-340.86 1326,-331.99"/>
<polygon fill="midnightblue" stroke="midnightblue" points="1329.5,-331.75 1326,-321.75 1322.5,-331.75 1329.5,-331.75"/>
</g>
<!-- Node15 -->
<g id="node15" class="node">
<title>Node15</title>
<g id="a_node15"><a xlink:href="_geometry_8hpp.html" target="_top" xlink:title="Geometric quantities of Manifold used by MoveAlgorithm.">
<polygon fill="white" stroke="black" points="1109.5,-246.5 1109.5,-265.5 1194.5,-265.5 1194.5,-246.5 1109.5,-246.5"/>
<text text-anchor="middle" x="1152" y="-253.5" font-family="Helvetica,sans-Serif" font-size="10.00">Geometry.hpp</text>
</a>
</g>
</g>
<!-- Node14&#45;&gt;Node15 -->
<g id="edge14" class="edge">
<title>Node14&#45;&gt;Node15</title>
<path fill="none" stroke="midnightblue" d="M1298.43,-302.44C1268.9,-293.28 1221.88,-278.69 1189.12,-268.52"/>
<polygon fill="midnightblue" stroke="midnightblue" points="1190.03,-265.14 1179.44,-265.52 1187.96,-271.82 1190.03,-265.14"/>
</g>
<!-- Node47 -->
<g id="node45" class="node">
<title>Node47</title>
<g id="a_node45"><a xlink:title=" ">
<polygon fill="white" stroke="#bfbfbf" points="1380.5,-246.5 1380.5,-265.5 1433.5,-265.5 1433.5,-246.5 1380.5,-246.5"/>
<text text-anchor="middle" x="1407" y="-253.5" font-family="Helvetica,sans-Serif" font-size="10.00">cstddef</text>
</a>
</g>
</g>
<!-- Node14&#45;&gt;Node47 -->
<g id="edge46" class="edge">
<title>Node14&#45;&gt;Node47</title>
<path fill="none" stroke="midnightblue" d="M1339.01,-302.32C1351.53,-293.98 1370.68,-281.21 1385.47,-271.35"/>
<polygon fill="midnightblue" stroke="midnightblue" points="1387.64,-274.11 1394.02,-265.65 1383.76,-268.29 1387.64,-274.11"/>
</g>
<!-- Node48 -->
<g id="node46" class="node">
<title>Node48</title>
<g id="a_node46"><a xlink:title=" ">
<polygon fill="white" stroke="#bfbfbf" points="1213,-246.5 1213,-265.5 1299,-265.5 1299,-246.5 1213,-246.5"/>
<text text-anchor="middle" x="1256" y="-253.5" font-family="Helvetica,sans-Serif" font-size="10.00">unordered_set</text>
</a>
</g>
</g>
<!-- Node14&#45;&gt;Node48 -->
<g id="edge47" class="edge">
<title>Node14&#45;&gt;Node48</title>
<path fill="none" stroke="midnightblue" d="M1314.75,-302.32C1304.2,-294.18 1288.2,-281.84 1275.56,-272.09"/>
<polygon fill="midnightblue" stroke="midnightblue" points="1277.51,-269.17 1267.45,-265.83 1273.23,-274.71 1277.51,-269.17"/>
</g>
<!-- Node49 -->
<g id="node47" class="node">
<title>Node49</title>
<g id="a_node47"><a xlink:title=" ">
<polygon fill="white" stroke="#bfbfbf" points="1317.5,-246.5 1317.5,-265.5 1362.5,-265.5 1362.5,-246.5 1317.5,-246.5"/>
<text text-anchor="middle" x="1340" y="-253.5" font-family="Helvetica,sans-Serif" font-size="10.00">utility</text>
</a>
</g>
</g>
<!-- Node14&#45;&gt;Node49 -->
<g id="edge48" class="edge">
<title>Node14&#45;&gt;Node49</title>
<path fill="none" stroke="midnightblue" d="M1328.31,-302.08C1330.17,-294.93 1332.84,-284.64 1335.15,-275.69"/>
<polygon fill="midnightblue" stroke="midnightblue" points="1338.61,-276.31 1337.73,-265.75 1331.83,-274.55 1338.61,-276.31"/>
</g>
<!-- Node16 -->
<g id="node16" class="node">
<title>Node16</title>
<g id="a_node16"><a xlink:href="_foliated__triangulation_8hpp.html" target="_top" xlink:title="Create foliated spherical triangulations.">
<polygon fill="white" stroke="black" points="1080,-190.5 1080,-209.5 1224,-209.5 1224,-190.5 1080,-190.5"/>
<text text-anchor="middle" x="1152" y="-197.5" font-family="Helvetica,sans-Serif" font-size="10.00">Foliated_triangulation.hpp</text>
</a>
</g>
</g>
<!-- Node15&#45;&gt;Node16 -->
<g id="edge15" class="edge">
<title>Node15&#45;&gt;Node16</title>
<path fill="none" stroke="midnightblue" d="M1152,-246.08C1152,-239.01 1152,-228.86 1152,-219.99"/>
<polygon fill="midnightblue" stroke="midnightblue" points="1155.5,-219.75 1152,-209.75 1148.5,-219.75 1155.5,-219.75"/>
</g>
<!-- Node17 -->
<g id="node17" class="node">
<title>Node17</title>
<g id="a_node17"><a xlink:href="_triangulation__traits_8hpp.html" target="_top" xlink:title="Traits class for particular uses of CGAL.">
<polygon fill="white" stroke="black" points="1938.5,-134.5 1938.5,-153.5 2069.5,-153.5 2069.5,-134.5 1938.5,-134.5"/>
<text text-anchor="middle" x="2004" y="-141.5" font-family="Helvetica,sans-Serif" font-size="10.00">Triangulation_traits.hpp</text>
</a>
</g>
</g>
<!-- Node16&#45;&gt;Node17 -->
<g id="edge16" class="edge">
<title>Node16&#45;&gt;Node17</title>
<path fill="none" stroke="midnightblue" d="M1224.27,-194.42C1383.8,-184.31 1764.79,-160.16 1927.84,-149.83"/>
<polygon fill="midnightblue" stroke="midnightblue" points="1928.5,-153.29 1938.26,-149.17 1928.06,-146.31 1928.5,-153.29"/>
</g>
<!-- Node26 -->
<g id="node26" class="node">
<title>Node26</title>
<g id="a_node26"><a xlink:href="_utilities_8hpp.html" target="_top" xlink:title="Utility functions.">
<polygon fill="white" stroke="red" points="913,-134.5 913,-153.5 989,-153.5 989,-134.5 913,-134.5"/>
<text text-anchor="middle" x="951" y="-141.5" font-family="Helvetica,sans-Serif" font-size="10.00">Utilities.hpp</text>
</a>
</g>
</g>
<!-- Node16&#45;&gt;Node26 -->
<g id="edge25" class="edge">
<title>Node16&#45;&gt;Node26</title>
<path fill="none" stroke="midnightblue" d="M1120.15,-190.44C1085.6,-181.16 1030.32,-166.31 992.42,-156.13"/>
<polygon fill="midnightblue" stroke="midnightblue" points="993.27,-152.73 982.7,-153.52 991.45,-159.49 993.27,-152.73"/>
</g>
<!-- Node18 -->
<g id="node18" class="node">
<title>Node18</title>
<g id="a_node18"><a xlink:href="_settings_8hpp.html" target="_top" xlink:title="Global integer and precision settings.">
<polygon fill="white" stroke="black" points="1651.5,-67.5 1651.5,-86.5 1728.5,-86.5 1728.5,-67.5 1651.5,-67.5"/>
<text text-anchor="middle" x="1690" y="-74.5" font-family="Helvetica,sans-Serif" font-size="10.00">Settings.hpp</text>
</a>
</g>
</g>
<!-- Node17&#45;&gt;Node18 -->
<g id="edge17" class="edge">
<title>Node17&#45;&gt;Node18</title>
<path fill="none" stroke="midnightblue" d="M1938.3,-136.1C1883.89,-129.39 1804.93,-117.33 1738,-98 1731.12,-96.01 1723.9,-93.34 1717.21,-90.59"/>
<polygon fill="midnightblue" stroke="midnightblue" points="1718.45,-87.32 1707.88,-86.59 1715.69,-93.75 1718.45,-87.32"/>
</g>
<!-- Node21 -->
<g id="node21" class="node">
<title>Node21</title>
<g id="a_node21"><a xlink:title=" ">
<polygon fill="white" stroke="#bfbfbf" points="1914,-67.5 1914,-86.5 2094,-86.5 2094,-67.5 1914,-67.5"/>
<text text-anchor="middle" x="2004" y="-74.5" font-family="Helvetica,sans-Serif" font-size="10.00">CGAL/Delaunay_triangulation_3.h</text>
</a>
</g>
</g>
<!-- Node17&#45;&gt;Node21 -->
<g id="edge20" class="edge">
<title>Node17&#45;&gt;Node21</title>
<path fill="none" stroke="midnightblue" d="M2004,-134.23C2004,-124.68 2004,-109.12 2004,-96.78"/>
<polygon fill="midnightblue" stroke="midnightblue" points="2007.5,-96.63 2004,-86.63 2000.5,-96.63 2007.5,-96.63"/>
</g>
<!-- Node22 -->
<g id="node22" class="node">
<title>Node22</title>
<g id="a_node22"><a xlink:title=" ">
<polygon fill="white" stroke="#bfbfbf" points="2112.5,-56.5 2112.5,-97.5 2241.5,-97.5 2241.5,-56.5 2112.5,-56.5"/>
<text text-anchor="start" x="2120.5" y="-85.5" font-family="Helvetica,sans-Serif" font-size="10.00">CGAL/Exact_predicates</text>
<text text-anchor="start" x="2120.5" y="-74.5" font-family="Helvetica,sans-Serif" font-size="10.00">_inexact_constructions</text>
<text text-anchor="middle" x="2177" y="-63.5" font-family="Helvetica,sans-Serif" font-size="10.00">_kernel.h</text>
</a>
</g>
</g>
<!-- Node17&#45;&gt;Node22 -->
<g id="edge21" class="edge">
<title>Node17&#45;&gt;Node22</title>
<path fill="none" stroke="midnightblue" d="M2026.97,-134.37C2049.37,-125.95 2084.42,-112.79 2115.01,-101.29"/>
<polygon fill="midnightblue" stroke="midnightblue" points="2116.64,-104.42 2124.77,-97.63 2114.17,-97.87 2116.64,-104.42"/>
</g>
<!-- Node23 -->
<g id="node23" class="node">
<title>Node23</title>
<g id="a_node23"><a xlink:title=" ">
<polygon fill="white" stroke="#bfbfbf" points="2260,-62 2260,-92 2398,-92 2398,-62 2260,-62"/>
<text text-anchor="start" x="2268" y="-80" font-family="Helvetica,sans-Serif" font-size="10.00">CGAL/Triangulation</text>
<text text-anchor="middle" x="2329" y="-69" font-family="Helvetica,sans-Serif" font-size="10.00">_cell_base_with_info_3.h</text>
</a>
</g>
</g>
<!-- Node17&#45;&gt;Node23 -->
<g id="edge22" class="edge">
<title>Node17&#45;&gt;Node23</title>
<path fill="none" stroke="midnightblue" d="M2057.22,-134.42C2107.39,-126.08 2184.58,-112.55 2251,-98 2255.99,-96.91 2261.15,-95.72 2266.32,-94.48"/>
<polygon fill="midnightblue" stroke="midnightblue" points="2267.37,-97.83 2276.25,-92.06 2265.71,-91.03 2267.37,-97.83"/>
</g>
<!-- Node24 -->
<g id="node24" class="node">
<title>Node24</title>
<g id="a_node24"><a xlink:title=" ">
<polygon fill="white" stroke="#bfbfbf" points="2416,-62 2416,-92 2568,-92 2568,-62 2416,-62"/>
<text text-anchor="start" x="2424" y="-80" font-family="Helvetica,sans-Serif" font-size="10.00">CGAL/Triangulation</text>
<text text-anchor="middle" x="2492" y="-69" font-family="Helvetica,sans-Serif" font-size="10.00">_vertex_base_with_info_3.h</text>
</a>
</g>
</g>
<!-- Node17&#45;&gt;Node24 -->
<g id="edge23" class="edge">
<title>Node17&#45;&gt;Node24</title>
<path fill="none" stroke="midnightblue" d="M2069.6,-138.11C2149.64,-131.58 2288.89,-118.41 2407,-98 2413.27,-96.92 2419.78,-95.65 2426.27,-94.29"/>
<polygon fill="midnightblue" stroke="midnightblue" points="2427.38,-97.63 2436.41,-92.09 2425.9,-90.79 2427.38,-97.63"/>
</g>
<!-- Node25 -->
<g id="node25" class="node">
<title>Node25</title>
<g id="a_node25"><a xlink:title=" ">
<polygon fill="white" stroke="#bfbfbf" points="1746.5,-67.5 1746.5,-86.5 1895.5,-86.5 1895.5,-67.5 1746.5,-67.5"/>
<text text-anchor="middle" x="1821" y="-74.5" font-family="Helvetica,sans-Serif" font-size="10.00">CGAL/point_generators_3.h</text>
</a>
</g>
</g>
<!-- Node17&#45;&gt;Node25 -->
<g id="edge24" class="edge">
<title>Node17&#45;&gt;Node25</title>
<path fill="none" stroke="midnightblue" d="M1979.7,-134.37C1947.62,-122.97 1890.97,-102.85 1854.75,-89.99"/>
<polygon fill="midnightblue" stroke="midnightblue" points="1855.7,-86.61 1845.11,-86.56 1853.36,-93.21 1855.7,-86.61"/>
</g>
<!-- Node19 -->
<g id="node19" class="node">
<title>Node19</title>
<g id="a_node19"><a xlink:title=" ">
<polygon fill="white" stroke="#bfbfbf" points="1604,-0.5 1604,-19.5 1690,-19.5 1690,-0.5 1604,-0.5"/>
<text text-anchor="middle" x="1647" y="-7.5" font-family="Helvetica,sans-Serif" font-size="10.00">CGAL/Gmpzf.h</text>
</a>
</g>
</g>
<!-- Node18&#45;&gt;Node19 -->
<g id="edge18" class="edge">
<title>Node18&#45;&gt;Node19</title>
<path fill="none" stroke="midnightblue" d="M1684.2,-67.23C1677.62,-57.29 1666.74,-40.84 1658.44,-28.29"/>
<polygon fill="midnightblue" stroke="midnightblue" points="1661.14,-26.04 1652.71,-19.63 1655.31,-29.9 1661.14,-26.04"/>
</g>
<!-- Node20 -->
<g id="node20" class="node">
<title>Node20</title>
<g id="a_node20"><a xlink:title=" ">
<polygon fill="white" stroke="#bfbfbf" points="1708,-0.5 1708,-19.5 1758,-19.5 1758,-0.5 1708,-0.5"/>
<text text-anchor="middle" x="1733" y="-7.5" font-family="Helvetica,sans-Serif" font-size="10.00">cstdint</text>
</a>
</g>
</g>
<!-- Node18&#45;&gt;Node20 -->
<g id="edge19" class="edge">
<title>Node18&#45;&gt;Node20</title>
<path fill="none" stroke="midnightblue" d="M1695.8,-67.23C1702.38,-57.29 1713.26,-40.84 1721.56,-28.29"/>
<polygon fill="midnightblue" stroke="midnightblue" points="1724.69,-29.9 1727.29,-19.63 1718.86,-26.04 1724.69,-29.9"/>
</g>
<!-- Node26&#45;&gt;Node9 -->
<g id="edge38" class="edge">
<title>Node26&#45;&gt;Node9</title>
<path fill="none" stroke="midnightblue" d="M912.87,-142.25C752.29,-138.94 135.6,-124.6 53,-98 48.75,-96.63 44.51,-94.52 40.6,-92.18"/>
<polygon fill="midnightblue" stroke="midnightblue" points="42.45,-89.21 32.2,-86.53 38.54,-95.01 42.45,-89.21"/>
</g>
<!-- Node26&#45;&gt;Node18 -->
<g id="edge45" class="edge">
<title>Node26&#45;&gt;Node18</title>
<path fill="none" stroke="midnightblue" d="M989.32,-142.2C1115.51,-139.31 1517.24,-127.93 1643,-98 1650.07,-96.32 1657.43,-93.66 1664.17,-90.83"/>
<polygon fill="midnightblue" stroke="midnightblue" points="1665.81,-93.93 1673.5,-86.64 1662.94,-87.54 1665.81,-93.93"/>
</g>
<!-- Node27 -->
<g id="node27" class="node">
<title>Node27</title>
<g id="a_node27"><a xlink:title=" ">
<polygon fill="white" stroke="#bfbfbf" points="290.5,-67.5 290.5,-86.5 373.5,-86.5 373.5,-67.5 290.5,-67.5"/>
<text text-anchor="middle" x="332" y="-74.5" font-family="Helvetica,sans-Serif" font-size="10.00">CGAL/Timer.h</text>
</a>
</g>
</g>
<!-- Node26&#45;&gt;Node27 -->
<g id="edge26" class="edge">
<title>Node26&#45;&gt;Node27</title>
<path fill="none" stroke="midnightblue" d="M912.77,-141.44C802.34,-136.7 484.34,-121.34 383,-98 375.14,-96.19 366.89,-93.38 359.37,-90.44"/>
<polygon fill="midnightblue" stroke="midnightblue" points="360.58,-87.15 350,-86.56 357.9,-93.62 360.58,-87.15"/>
</g>
<!-- Node28 -->
<g id="node28" class="node">
<title>Node28</title>
<g id="a_node28"><a xlink:title=" ">
<polygon fill="white" stroke="#bfbfbf" points="392,-67.5 392,-86.5 480,-86.5 480,-67.5 392,-67.5"/>
<text text-anchor="middle" x="436" y="-74.5" font-family="Helvetica,sans-Serif" font-size="10.00">sys/utsname.h</text>
</a>
</g>
</g>
<!-- Node26&#45;&gt;Node28 -->
<g id="edge27" class="edge">
<title>Node26&#45;&gt;Node28</title>
<path fill="none" stroke="midnightblue" d="M912.72,-142.66C832.89,-141.22 643.22,-133.94 489,-98 480.92,-96.12 472.41,-93.3 464.63,-90.37"/>
<polygon fill="midnightblue" stroke="midnightblue" points="465.84,-87.09 455.25,-86.67 463.26,-93.6 465.84,-87.09"/>
</g>
<!-- Node29 -->
<g id="node29" class="node">
<title>Node29</title>
<g id="a_node29"><a xlink:title=" ">
<polygon fill="white" stroke="#bfbfbf" points="498.5,-67.5 498.5,-86.5 615.5,-86.5 615.5,-67.5 498.5,-67.5"/>
<text text-anchor="middle" x="557" y="-74.5" font-family="Helvetica,sans-Serif" font-size="10.00">boost/date_time.hpp</text>
</a>
</g>
</g>
<!-- Node26&#45;&gt;Node29 -->
<g id="edge28" class="edge">
<title>Node26&#45;&gt;Node29</title>
<path fill="none" stroke="midnightblue" d="M912.53,-139.56C851.23,-133.67 727.78,-120.08 625,-98 614.24,-95.69 602.7,-92.55 592.24,-89.45"/>
<polygon fill="midnightblue" stroke="midnightblue" points="593.19,-86.08 582.6,-86.51 591.15,-92.77 593.19,-86.08"/>
</g>
<!-- Node30 -->
<g id="node30" class="node">
<title>Node30</title>
<g id="a_node30"><a xlink:title=" ">
<polygon fill="white" stroke="#bfbfbf" points="634,-67.5 634,-86.5 698,-86.5 698,-67.5 634,-67.5"/>
<text text-anchor="middle" x="666" y="-74.5" font-family="Helvetica,sans-Serif" font-size="10.00">algorithm</text>
</a>
</g>
</g>
<!-- Node26&#45;&gt;Node30 -->
<g id="edge29" class="edge">
<title>Node26&#45;&gt;Node30</title>
<path fill="none" stroke="midnightblue" d="M912.58,-139.18C863.83,-133.59 777.58,-121.24 707,-98 701.45,-96.17 695.7,-93.74 690.32,-91.2"/>
<polygon fill="midnightblue" stroke="midnightblue" points="691.67,-87.96 681.16,-86.62 688.54,-94.22 691.67,-87.96"/>
</g>
<!-- Node31 -->
<g id="node31" class="node">
<title>Node31</title>
<g id="a_node31"><a xlink:title=" ">
<polygon fill="white" stroke="#bfbfbf" points="716,-67.5 716,-86.5 768,-86.5 768,-67.5 716,-67.5"/>
<text text-anchor="middle" x="742" y="-74.5" font-family="Helvetica,sans-Serif" font-size="10.00">cassert</text>
</a>
</g>
</g>
<!-- Node26&#45;&gt;Node31 -->
<g id="edge30" class="edge">
<title>Node26&#45;&gt;Node31</title>
<path fill="none" stroke="midnightblue" d="M912.73,-136.16C876.84,-129.03 822.09,-116.33 777,-98 772.65,-96.23 768.18,-94.02 763.95,-91.71"/>
<polygon fill="midnightblue" stroke="midnightblue" points="765.62,-88.63 755.21,-86.66 762.11,-94.69 765.62,-88.63"/>
</g>
<!-- Node32 -->
<g id="node32" class="node">
<title>Node32</title>
<g id="a_node32"><a xlink:title=" ">
<polygon fill="white" stroke="#bfbfbf" points="786.5,-67.5 786.5,-86.5 835.5,-86.5 835.5,-67.5 786.5,-67.5"/>
<text text-anchor="middle" x="811" y="-74.5" font-family="Helvetica,sans-Serif" font-size="10.00">cstdlib</text>
</a>
</g>
</g>
<!-- Node26&#45;&gt;Node32 -->
<g id="edge31" class="edge">
<title>Node26&#45;&gt;Node32</title>
<path fill="none" stroke="midnightblue" d="M928.02,-134.46C906.05,-126.04 872.19,-112.37 844,-98 840.34,-96.14 836.55,-94.02 832.89,-91.88"/>
<polygon fill="midnightblue" stroke="midnightblue" points="834.6,-88.82 824.23,-86.63 830.97,-94.81 834.6,-88.82"/>
</g>
<!-- Node33 -->
<g id="node33" class="node">
<title>Node33</title>
<g id="a_node33"><a xlink:title=" ">
<polygon fill="white" stroke="#bfbfbf" points="853.5,-67.5 853.5,-86.5 908.5,-86.5 908.5,-67.5 853.5,-67.5"/>
<text text-anchor="middle" x="881" y="-74.5" font-family="Helvetica,sans-Serif" font-size="10.00">fstream</text>
</a>
</g>
</g>
<!-- Node26&#45;&gt;Node33 -->
<g id="edge32" class="edge">
<title>Node26&#45;&gt;Node33</title>
<path fill="none" stroke="midnightblue" d="M941.56,-134.23C930.33,-123.81 911.38,-106.21 897.66,-93.47"/>
<polygon fill="midnightblue" stroke="midnightblue" points="900,-90.87 890.29,-86.63 895.24,-96 900,-90.87"/>
</g>
<!-- Node34 -->
<g id="node34" class="node">
<title>Node34</title>
<g id="a_node34"><a xlink:title=" ">
<polygon fill="white" stroke="#bfbfbf" points="927,-67.5 927,-86.5 975,-86.5 975,-67.5 927,-67.5"/>
<text text-anchor="middle" x="951" y="-74.5" font-family="Helvetica,sans-Serif" font-size="10.00">gsl/gsl</text>
</a>
</g>
</g>
<!-- Node26&#45;&gt;Node34 -->
<g id="edge33" class="edge">
<title>Node26&#45;&gt;Node34</title>
<path fill="none" stroke="midnightblue" d="M951,-134.23C951,-124.68 951,-109.12 951,-96.78"/>
<polygon fill="midnightblue" stroke="midnightblue" points="954.5,-96.63 951,-86.63 947.5,-96.63 954.5,-96.63"/>
</g>
<!-- Node35 -->
<g id="node35" class="node">
<title>Node35</title>
<g id="a_node35"><a xlink:title=" ">
<polygon fill="white" stroke="#bfbfbf" points="993,-67.5 993,-86.5 1053,-86.5 1053,-67.5 993,-67.5"/>
<text text-anchor="middle" x="1023" y="-74.5" font-family="Helvetica,sans-Serif" font-size="10.00">iostream</text>
</a>
</g>
</g>
<!-- Node26&#45;&gt;Node35 -->
<g id="edge34" class="edge">
<title>Node26&#45;&gt;Node35</title>
<path fill="none" stroke="midnightblue" d="M960.71,-134.23C972.26,-123.81 991.75,-106.21 1005.86,-93.47"/>
<polygon fill="midnightblue" stroke="midnightblue" points="1008.37,-95.93 1013.44,-86.63 1003.68,-90.73 1008.37,-95.93"/>
</g>
<!-- Node36 -->
<g id="node36" class="node">
<title>Node36</title>
<g id="a_node36"><a xlink:title=" ">
<polygon fill="white" stroke="#bfbfbf" points="1071,-67.5 1071,-86.5 1119,-86.5 1119,-67.5 1071,-67.5"/>
<text text-anchor="middle" x="1095" y="-74.5" font-family="Helvetica,sans-Serif" font-size="10.00">mutex</text>
</a>
</g>
</g>
<!-- Node26&#45;&gt;Node36 -->
<g id="edge35" class="edge">
<title>Node26&#45;&gt;Node36</title>
<path fill="none" stroke="midnightblue" d="M975.31,-134.42C998.13,-126.07 1033.01,-112.55 1062,-98 1065.67,-96.16 1069.47,-94.06 1073.13,-91.92"/>
<polygon fill="midnightblue" stroke="midnightblue" points="1075.05,-94.85 1081.79,-86.67 1071.42,-88.86 1075.05,-94.85"/>
</g>
<!-- Node37 -->
<g id="node37" class="node">
<title>Node37</title>
<g id="a_node37"><a xlink:title=" ">
<polygon fill="white" stroke="#bfbfbf" points="1137,-67.5 1137,-86.5 1191,-86.5 1191,-67.5 1137,-67.5"/>
<text text-anchor="middle" x="1164" y="-74.5" font-family="Helvetica,sans-Serif" font-size="10.00">random</text>
</a>
</g>
</g>
<!-- Node26&#45;&gt;Node37 -->
<g id="edge36" class="edge">
<title>Node26&#45;&gt;Node37</title>
<path fill="none" stroke="midnightblue" d="M989.18,-136.26C1025.64,-129.14 1081.74,-116.37 1128,-98 1132.46,-96.23 1137.05,-94.02 1141.4,-91.71"/>
<polygon fill="midnightblue" stroke="midnightblue" points="1143.39,-94.61 1150.39,-86.66 1139.96,-88.5 1143.39,-94.61"/>
</g>
<!-- Node38 -->
<g id="node38" class="node">
<title>Node38</title>
<g id="a_node38"><a xlink:title=" ">
<polygon fill="white" stroke="#bfbfbf" points="1209.5,-67.5 1209.5,-86.5 1274.5,-86.5 1274.5,-67.5 1209.5,-67.5"/>
<text text-anchor="middle" x="1242" y="-74.5" font-family="Helvetica,sans-Serif" font-size="10.00">stdexcept</text>
</a>
</g>
</g>
<!-- Node26&#45;&gt;Node38 -->
<g id="edge37" class="edge">
<title>Node26&#45;&gt;Node38</title>
<path fill="none" stroke="midnightblue" d="M989.31,-139.27C1038.87,-133.73 1127.45,-121.37 1200,-98 1205.67,-96.17 1211.56,-93.74 1217.07,-91.2"/>
<polygon fill="midnightblue" stroke="midnightblue" points="1219,-94.15 1226.45,-86.62 1215.93,-87.86 1219,-94.15"/>
</g>
<!-- Node39 -->
<g id="node39" class="node">
<title>Node39</title>
<g id="a_node39"><a xlink:title=" ">
<polygon fill="white" stroke="#bfbfbf" points="1292.5,-67.5 1292.5,-86.5 1357.5,-86.5 1357.5,-67.5 1292.5,-67.5"/>
<text text-anchor="middle" x="1325" y="-74.5" font-family="Helvetica,sans-Serif" font-size="10.00">typeindex</text>
</a>
</g>
</g>
<!-- Node26&#45;&gt;Node39 -->
<g id="edge39" class="edge">
<title>Node26&#45;&gt;Node39</title>
<path fill="none" stroke="midnightblue" d="M989.14,-141.65C1051.73,-138.6 1179.59,-128.81 1283,-98 1288.95,-96.23 1295.11,-93.72 1300.83,-91.07"/>
<polygon fill="midnightblue" stroke="midnightblue" points="1302.48,-94.16 1309.9,-86.59 1299.38,-87.88 1302.48,-94.16"/>
</g>
<!-- Node40 -->
<g id="node40" class="node">
<title>Node40</title>
<g id="a_node40"><a xlink:title=" ">
<polygon fill="white" stroke="#bfbfbf" points="1376,-67.5 1376,-86.5 1420,-86.5 1420,-67.5 1376,-67.5"/>
<text text-anchor="middle" x="1398" y="-74.5" font-family="Helvetica,sans-Serif" font-size="10.00">ctime</text>
</a>
</g>
</g>
<!-- Node26&#45;&gt;Node40 -->
<g id="edge40" class="edge">
<title>Node26&#45;&gt;Node40</title>
<path fill="none" stroke="midnightblue" d="M989.04,-141.05C1077.89,-136.16 1296.75,-121.98 1366,-98 1370.25,-96.53 1374.52,-94.41 1378.49,-92.09"/>
<polygon fill="midnightblue" stroke="midnightblue" points="1380.58,-94.92 1387.08,-86.55 1376.78,-89.03 1380.58,-94.92"/>
</g>
<!-- Node41 -->
<g id="node41" class="node">
<title>Node41</title>
<g id="a_node41"><a xlink:title=" ">
<polygon fill="white" stroke="#bfbfbf" points="1438,-67.5 1438,-86.5 1536,-86.5 1536,-67.5 1438,-67.5"/>
<text text-anchor="middle" x="1487" y="-74.5" font-family="Helvetica,sans-Serif" font-size="10.00">pcg_random.hpp</text>
</a>
</g>
</g>
<!-- Node26&#45;&gt;Node41 -->
<g id="edge41" class="edge">
<title>Node26&#45;&gt;Node41</title>
<path fill="none" stroke="midnightblue" d="M989.27,-142.48C1070.96,-140.69 1268.1,-132.79 1429,-98 1438.15,-96.02 1447.86,-93.04 1456.66,-89.98"/>
<polygon fill="midnightblue" stroke="midnightblue" points="1457.93,-93.25 1466.13,-86.55 1455.54,-86.67 1457.93,-93.25"/>
</g>
<!-- Node42 -->
<g id="node42" class="node">
<title>Node42</title>
<g id="a_node42"><a xlink:title=" ">
<polygon fill="white" stroke="#bfbfbf" points="1554.5,-67.5 1554.5,-86.5 1633.5,-86.5 1633.5,-67.5 1554.5,-67.5"/>
<text text-anchor="middle" x="1594" y="-74.5" font-family="Helvetica,sans-Serif" font-size="10.00">fmt/format.h</text>
</a>
</g>
</g>
<!-- Node26&#45;&gt;Node42 -->
<g id="edge42" class="edge">
<title>Node26&#45;&gt;Node42</title>
<path fill="none" stroke="midnightblue" d="M989.36,-141.65C1103.35,-137.41 1438.68,-123.07 1545,-98 1552.5,-96.23 1560.35,-93.47 1567.51,-90.57"/>
<polygon fill="midnightblue" stroke="midnightblue" points="1568.95,-93.76 1576.75,-86.59 1566.18,-87.33 1568.95,-93.76"/>
</g>
<!-- Node43 -->
<g id="node43" class="node">
<title>Node43</title>
<g id="a_node43"><a xlink:title=" ">
<polygon fill="white" stroke="#bfbfbf" points="62,-67.5 62,-86.5 148,-86.5 148,-67.5 62,-67.5"/>
<text text-anchor="middle" x="105" y="-74.5" font-family="Helvetica,sans-Serif" font-size="10.00">fmt/ostream.h</text>
</a>
</g>
</g>
<!-- Node26&#45;&gt;Node43 -->
<g id="edge43" class="edge">
<title>Node26&#45;&gt;Node43</title>
<path fill="none" stroke="midnightblue" d="M912.96,-142.4C775.37,-140 303.96,-129.61 157,-98 148.89,-96.26 140.37,-93.43 132.64,-90.45"/>
<polygon fill="midnightblue" stroke="midnightblue" points="133.93,-87.2 123.34,-86.66 131.28,-93.68 133.93,-87.2"/>
</g>
<!-- Node44 -->
<g id="node44" class="node">
<title>Node44</title>
<g id="a_node44"><a xlink:title=" ">
<polygon fill="white" stroke="#bfbfbf" points="166,-62 166,-92 272,-92 272,-62 166,-62"/>
<text text-anchor="start" x="174" y="-80" font-family="Helvetica,sans-Serif" font-size="10.00">spdlog/sinks/basic</text>
<text text-anchor="middle" x="219" y="-69" font-family="Helvetica,sans-Serif" font-size="10.00">_file_sink.h</text>
</a>
</g>
</g>
<!-- Node26&#45;&gt;Node44 -->
<g id="edge44" class="edge">
<title>Node26&#45;&gt;Node44</title>
<path fill="none" stroke="midnightblue" d="M912.71,-141.66C789.39,-137.16 403.51,-121.5 281,-98 276.57,-97.15 272.01,-96.08 267.48,-94.88"/>
<polygon fill="midnightblue" stroke="midnightblue" points="268.22,-91.45 257.65,-92.07 266.3,-98.18 268.22,-91.45"/>
</g>
<!-- Node50&#45;&gt;Node18 -->
<g id="edge51" class="edge">
<title>Node50&#45;&gt;Node18</title>
<path fill="none" stroke="midnightblue" d="M1408.82,-526.48C1427.2,-519.38 1450.91,-507.57 1466,-490 1485.96,-466.75 1489,-455.64 1489,-425 1489,-425 1489,-425 1489,-199 1489,-178.92 1608.22,-118 1663.03,-91.06"/>
<polygon fill="midnightblue" stroke="midnightblue" points="1664.72,-94.12 1672.16,-86.59 1661.64,-87.84 1664.72,-94.12"/>
</g>
<!-- Node51 -->
<g id="node49" class="node">
<title>Node51</title>
<g id="a_node49"><a xlink:title=" ">
<polygon fill="white" stroke="#bfbfbf" points="1345,-470.5 1345,-489.5 1391,-489.5 1391,-470.5 1345,-470.5"/>
<text text-anchor="middle" x="1368" y="-477.5" font-family="Helvetica,sans-Serif" font-size="10.00">cstdio</text>
</a>
</g>
</g>
<!-- Node50&#45;&gt;Node51 -->
<g id="edge52" class="edge">
<title>Node50&#45;&gt;Node51</title>
<path fill="none" stroke="midnightblue" d="M1379.69,-526.08C1377.83,-518.93 1375.16,-508.64 1372.85,-499.69"/>
<polygon fill="midnightblue" stroke="midnightblue" points="1376.17,-498.55 1370.27,-489.75 1369.39,-500.31 1376.17,-498.55"/>
</g>
<!-- Node52 -->
<g id="node50" class="node">
<title>Node52</title>
<g id="a_node50"><a xlink:title=" ">
<polygon fill="white" stroke="#bfbfbf" points="1409,-470.5 1409,-489.5 1457,-489.5 1457,-470.5 1409,-470.5"/>
<text text-anchor="middle" x="1433" y="-477.5" font-family="Helvetica,sans-Serif" font-size="10.00">mpfr.h</text>
</a>
</g>
</g>
<!-- Node50&#45;&gt;Node52 -->
<g id="edge53" class="edge">
<title>Node50&#45;&gt;Node52</title>
<path fill="none" stroke="midnightblue" d="M1390.42,-526.08C1397.85,-518.22 1408.85,-506.57 1417.81,-497.08"/>
<polygon fill="midnightblue" stroke="midnightblue" points="1420.41,-499.42 1424.74,-489.75 1415.32,-494.62 1420.41,-499.42"/>
</g>
</g>
</svg>
