<?xml version="1.0" encoding="UTF-8" standalone="no"?>
<!DOCTYPE svg PUBLIC "-//W3C//DTD SVG 1.1//EN"
 "http://www.w3.org/Graphics/SVG/1.1/DTD/svg11.dtd">
<!-- Generated by graphviz version 2.43.0 (0)
 -->
<!-- Title: src/cdt.cpp Pages: 1 -->
<svg width="2280pt" height="666pt"
 viewBox="0.00 0.00 2279.50 666.00" xmlns="http://www.w3.org/2000/svg" xmlns:xlink="http://www.w3.org/1999/xlink">
<g id="graph0" class="graph" transform="scale(1 1) rotate(0) translate(4 662)">
<title>src/cdt.cpp</title>
<polygon fill="white" stroke="transparent" points="-4,4 -4,-662 2275.5,-662 2275.5,4 -4,4"/>
<!-- Node1 -->
<g id="node1" class="node">
<title>Node1</title>
<g id="a_node1"><a xlink:title="The main executable.">
<polygon fill="#bfbfbf" stroke="black" points="956,-638.5 956,-657.5 1025,-657.5 1025,-638.5 956,-638.5"/>
<text text-anchor="middle" x="990.5" y="-645.5" font-family="Helvetica,sans-Serif" font-size="10.00">src/cdt.cpp</text>
</a>
</g>
</g>
<!-- Node2 -->
<g id="node2" class="node">
<title>Node2</title>
<g id="a_node2"><a xlink:title=" ">
<polygon fill="white" stroke="#bfbfbf" points="836,-582.5 836,-601.5 943,-601.5 943,-582.5 836,-582.5"/>
<text text-anchor="middle" x="889.5" y="-589.5" font-family="Helvetica,sans-Serif" font-size="10.00">CGAL/Real_timer.h</text>
</a>
</g>
</g>
<!-- Node1&#45;&gt;Node2 -->
<g id="edge1" class="edge">
<title>Node1&#45;&gt;Node2</title>
<path fill="none" stroke="midnightblue" d="M974.27,-638.32C958.15,-629.7 933.2,-616.36 914.54,-606.39"/>
<polygon fill="midnightblue" stroke="midnightblue" points="916.16,-603.28 905.69,-601.65 912.86,-609.46 916.16,-603.28"/>
</g>
<!-- Node3 -->
<g id="node3" class="node">
<title>Node3</title>
<g id="a_node3"><a xlink:title=" ">
<polygon fill="white" stroke="#bfbfbf" points="961,-582.5 961,-601.5 1020,-601.5 1020,-582.5 961,-582.5"/>
<text text-anchor="middle" x="990.5" y="-589.5" font-family="Helvetica,sans-Serif" font-size="10.00">docopt.h</text>
</a>
</g>
</g>
<!-- Node1&#45;&gt;Node3 -->
<g id="edge2" class="edge">
<title>Node1&#45;&gt;Node3</title>
<path fill="none" stroke="midnightblue" d="M990.5,-638.08C990.5,-631.01 990.5,-620.86 990.5,-611.99"/>
<polygon fill="midnightblue" stroke="midnightblue" points="994,-611.75 990.5,-601.75 987,-611.75 994,-611.75"/>
</g>
<!-- Node4 -->
<g id="node4" class="node">
<title>Node4</title>
<g id="a_node4"><a xlink:href="_metropolis_8hpp.html" target="_top" xlink:title="Perform Metropolis&#45;Hastings algorithm on Delaunay Triangulations.">
<polygon fill="white" stroke="black" points="1038,-582.5 1038,-601.5 1127,-601.5 1127,-582.5 1038,-582.5"/>
<text text-anchor="middle" x="1082.5" y="-589.5" font-family="Helvetica,sans-Serif" font-size="10.00">Metropolis.hpp</text>
</a>
</g>
</g>
<!-- Node1&#45;&gt;Node4 -->
<g id="edge3" class="edge">
<title>Node1&#45;&gt;Node4</title>
<path fill="none" stroke="midnightblue" d="M1005.28,-638.32C1019.77,-629.82 1042.07,-616.73 1058.99,-606.8"/>
<polygon fill="midnightblue" stroke="midnightblue" points="1060.9,-609.74 1067.76,-601.65 1057.36,-603.7 1060.9,-609.74"/>
</g>
<!-- Node5 -->
<g id="node5" class="node">
<title>Node5</title>
<g id="a_node5"><a xlink:href="_move__strategy_8hpp.html" target="_top" xlink:title="Template class for move algorithms (strategies) on manifolds.">
<polygon fill="white" stroke="black" points="1100,-526.5 1100,-545.5 1209,-545.5 1209,-526.5 1100,-526.5"/>
<text text-anchor="middle" x="1154.5" y="-533.5" font-family="Helvetica,sans-Serif" font-size="10.00">Move_strategy.hpp</text>
</a>
</g>
</g>
<!-- Node4&#45;&gt;Node5 -->
<g id="edge4" class="edge">
<title>Node4&#45;&gt;Node5</title>
<path fill="none" stroke="midnightblue" d="M1094.07,-582.32C1104.92,-574.18 1121.38,-561.84 1134.38,-552.09"/>
<polygon fill="midnightblue" stroke="midnightblue" points="1136.82,-554.63 1142.72,-545.83 1132.62,-549.03 1136.82,-554.63"/>
</g>
<!-- Node52 -->
<g id="node49" class="node">
<title>Node52</title>
<g id="a_node49"><a xlink:href="_s3_action_8hpp.html" target="_top" xlink:title="Calculate S3 bulk actions on 3D Delaunay Triangulations.">
<polygon fill="white" stroke="black" points="970.5,-526.5 970.5,-545.5 1050.5,-545.5 1050.5,-526.5 970.5,-526.5"/>
<text text-anchor="middle" x="1010.5" y="-533.5" font-family="Helvetica,sans-Serif" font-size="10.00">S3Action.hpp</text>
</a>
</g>
</g>
<!-- Node4&#45;&gt;Node52 -->
<g id="edge53" class="edge">
<title>Node4&#45;&gt;Node52</title>
<path fill="none" stroke="midnightblue" d="M1070.93,-582.32C1060.08,-574.18 1043.62,-561.84 1030.62,-552.09"/>
<polygon fill="midnightblue" stroke="midnightblue" points="1032.38,-549.03 1022.28,-545.83 1028.18,-554.63 1032.38,-549.03"/>
</g>
<!-- Node6 -->
<g id="node6" class="node">
<title>Node6</title>
<g id="a_node6"><a xlink:href="_move__command_8hpp.html" target="_top" xlink:title="Do ergodic moves using the Command pattern.">
<polygon fill="white" stroke="black" points="1208,-470.5 1208,-489.5 1327,-489.5 1327,-470.5 1208,-470.5"/>
<text text-anchor="middle" x="1267.5" y="-477.5" font-family="Helvetica,sans-Serif" font-size="10.00">Move_command.hpp</text>
</a>
</g>
</g>
<!-- Node5&#45;&gt;Node6 -->
<g id="edge5" class="edge">
<title>Node5&#45;&gt;Node6</title>
<path fill="none" stroke="midnightblue" d="M1172.41,-526.44C1190.75,-517.68 1219.51,-503.94 1240.59,-493.86"/>
<polygon fill="midnightblue" stroke="midnightblue" points="1242.17,-496.99 1249.68,-489.52 1239.15,-490.67 1242.17,-496.99"/>
</g>
<!-- Node7 -->
<g id="node7" class="node">
<title>Node7</title>
<g id="a_node7"><a xlink:href="_apply__move_8hpp.html" target="_top" xlink:title="Apply Pachner moves to foliated Delaunay triangulations.">
<polygon fill="white" stroke="black" points="1410.5,-414.5 1410.5,-433.5 1508.5,-433.5 1508.5,-414.5 1410.5,-414.5"/>
<text text-anchor="middle" x="1459.5" y="-421.5" font-family="Helvetica,sans-Serif" font-size="10.00">Apply_move.hpp</text>
</a>
</g>
</g>
<!-- Node6&#45;&gt;Node7 -->
<g id="edge6" class="edge">
<title>Node6&#45;&gt;Node7</title>
<path fill="none" stroke="midnightblue" d="M1297.92,-470.44C1330.78,-461.2 1383.28,-446.44 1419.47,-436.26"/>
<polygon fill="midnightblue" stroke="midnightblue" points="1420.54,-439.59 1429.22,-433.52 1418.65,-432.85 1420.54,-439.59"/>
</g>
<!-- Node13 -->
<g id="node13" class="node">
<title>Node13</title>
<g id="a_node13"><a xlink:href="_ergodic__moves__3_8hpp.html" target="_top" xlink:title="Pachner moves on 2+1 dimensional foliated Delaunay triangulations.">
<polygon fill="white" stroke="black" points="1206,-414.5 1206,-433.5 1329,-433.5 1329,-414.5 1206,-414.5"/>
<text text-anchor="middle" x="1267.5" y="-421.5" font-family="Helvetica,sans-Serif" font-size="10.00">Ergodic_moves_3.hpp</text>
</a>
</g>
</g>
<!-- Node6&#45;&gt;Node13 -->
<g id="edge12" class="edge">
<title>Node6&#45;&gt;Node13</title>
<path fill="none" stroke="midnightblue" d="M1267.5,-470.08C1267.5,-463.01 1267.5,-452.86 1267.5,-443.99"/>
<polygon fill="midnightblue" stroke="midnightblue" points="1271,-443.75 1267.5,-433.75 1264,-443.75 1271,-443.75"/>
</g>
<!-- Node8 -->
<g id="node8" class="node">
<title>Node8</title>
<g id="a_node8"><a xlink:title=" ">
<polygon fill="white" stroke="#bfbfbf" points="2116,-67.5 2116,-86.5 2209,-86.5 2209,-67.5 2116,-67.5"/>
<text text-anchor="middle" x="2162.5" y="-74.5" font-family="Helvetica,sans-Serif" font-size="10.00">spdlog/spdlog.h</text>
</a>
</g>
</g>
<!-- Node7&#45;&gt;Node8 -->
<g id="edge7" class="edge">
<title>Node7&#45;&gt;Node8</title>
<path fill="none" stroke="midnightblue" d="M1502.47,-414.45C1525.31,-407.92 1552.34,-396.74 1570.5,-378 1591.93,-355.88 1594.5,-343.8 1594.5,-313 1594.5,-313 1594.5,-313 1594.5,-199 1594.5,-83.03 1994.7,-128.81 2106.5,-98 2114.71,-95.74 2123.44,-92.86 2131.5,-89.99"/>
<polygon fill="midnightblue" stroke="midnightblue" points="2132.74,-93.27 2140.93,-86.55 2130.34,-86.69 2132.74,-93.27"/>
</g>
<!-- Node9 -->
<g id="node9" class="node">
<title>Node9</title>
<g id="a_node9"><a xlink:title=" ">
<polygon fill="white" stroke="#bfbfbf" points="1496,-358.5 1496,-377.5 1561,-377.5 1561,-358.5 1496,-358.5"/>
<text text-anchor="middle" x="1528.5" y="-365.5" font-family="Helvetica,sans-Serif" font-size="10.00">functional</text>
</a>
</g>
</g>
<!-- Node7&#45;&gt;Node9 -->
<g id="edge8" class="edge">
<title>Node7&#45;&gt;Node9</title>
<path fill="none" stroke="midnightblue" d="M1470.59,-414.32C1480.99,-406.18 1496.76,-393.84 1509.22,-384.09"/>
<polygon fill="midnightblue" stroke="midnightblue" points="1511.49,-386.75 1517.21,-377.83 1507.18,-381.24 1511.49,-386.75"/>
</g>
<!-- Node10 -->
<g id="node10" class="node">
<title>Node10</title>
<g id="a_node10"><a xlink:title=" ">
<polygon fill="white" stroke="#bfbfbf" points="2227.5,-67.5 2227.5,-86.5 2271.5,-86.5 2271.5,-67.5 2227.5,-67.5"/>
<text text-anchor="middle" x="2249.5" y="-74.5" font-family="Helvetica,sans-Serif" font-size="10.00">string</text>
</a>
</g>
</g>
<!-- Node7&#45;&gt;Node10 -->
<g id="edge9" class="edge">
<title>Node7&#45;&gt;Node10</title>
<path fill="none" stroke="midnightblue" d="M1508.78,-422.83C1637.43,-421.08 1973.5,-407.45 1973.5,-313 1973.5,-313 1973.5,-313 1973.5,-199 1973.5,-81.22 2114.14,-152.6 2218.5,-98 2221.94,-96.2 2225.48,-94.14 2228.89,-92.03"/>
<polygon fill="midnightblue" stroke="midnightblue" points="2230.94,-94.87 2237.44,-86.51 2227.14,-88.99 2230.94,-94.87"/>
</g>
<!-- Node11 -->
<g id="node11" class="node">
<title>Node11</title>
<g id="a_node11"><a xlink:title=" ">
<polygon fill="white" stroke="#bfbfbf" points="1256.5,-358.5 1256.5,-377.5 1348.5,-377.5 1348.5,-358.5 1256.5,-358.5"/>
<text text-anchor="middle" x="1302.5" y="-365.5" font-family="Helvetica,sans-Serif" font-size="10.00">tl/expected.hpp</text>
</a>
</g>
</g>
<!-- Node7&#45;&gt;Node11 -->
<g id="edge10" class="edge">
<title>Node7&#45;&gt;Node11</title>
<path fill="none" stroke="midnightblue" d="M1434.62,-414.44C1408.21,-405.36 1366.28,-390.94 1336.76,-380.78"/>
<polygon fill="midnightblue" stroke="midnightblue" points="1337.86,-377.46 1327.26,-377.52 1335.58,-384.08 1337.86,-377.46"/>
</g>
<!-- Node12 -->
<g id="node12" class="node">
<title>Node12</title>
<g id="a_node12"><a xlink:title=" ">
<polygon fill="white" stroke="#bfbfbf" points="1373,-358.5 1373,-377.5 1478,-377.5 1478,-358.5 1373,-358.5"/>
<text text-anchor="middle" x="1425.5" y="-365.5" font-family="Helvetica,sans-Serif" font-size="10.00">tl/function_ref.hpp</text>
</a>
</g>
</g>
<!-- Node7&#45;&gt;Node12 -->
<g id="edge11" class="edge">
<title>Node7&#45;&gt;Node12</title>
<path fill="none" stroke="midnightblue" d="M1453.89,-414.08C1449.13,-406.53 1442.18,-395.49 1436.35,-386.23"/>
<polygon fill="midnightblue" stroke="midnightblue" points="1439.3,-384.35 1431.01,-377.75 1433.38,-388.08 1439.3,-384.35"/>
</g>
<!-- Node13&#45;&gt;Node11 -->
<g id="edge13" class="edge">
<title>Node13&#45;&gt;Node11</title>
<path fill="none" stroke="midnightblue" d="M1273.28,-414.08C1278.17,-406.53 1285.33,-395.49 1291.33,-386.23"/>
<polygon fill="midnightblue" stroke="midnightblue" points="1294.33,-388.05 1296.83,-377.75 1288.45,-384.24 1294.33,-388.05"/>
</g>
<!-- Node14 -->
<g id="node14" class="node">
<title>Node14</title>
<g id="a_node14"><a xlink:href="_move__tracker_8hpp.html" target="_top" xlink:title="Track ergodic moves.">
<polygon fill="white" stroke="black" points="1119,-358.5 1119,-377.5 1222,-377.5 1222,-358.5 1119,-358.5"/>
<text text-anchor="middle" x="1170.5" y="-365.5" font-family="Helvetica,sans-Serif" font-size="10.00">Move_tracker.hpp</text>
</a>
</g>
</g>
<!-- Node13&#45;&gt;Node14 -->
<g id="edge14" class="edge">
<title>Node13&#45;&gt;Node14</title>
<path fill="none" stroke="midnightblue" d="M1251.92,-414.32C1236.5,-405.74 1212.69,-392.49 1194.79,-382.52"/>
<polygon fill="midnightblue" stroke="midnightblue" points="1196.49,-379.46 1186.05,-377.65 1193.08,-385.58 1196.49,-379.46"/>
</g>
<!-- Node15 -->
<g id="node15" class="node">
<title>Node15</title>
<g id="a_node15"><a xlink:href="_manifold_8hpp.html" target="_top" xlink:title="Data structures for manifolds.">
<polygon fill="white" stroke="black" points="1095.5,-302.5 1095.5,-321.5 1175.5,-321.5 1175.5,-302.5 1095.5,-302.5"/>
<text text-anchor="middle" x="1135.5" y="-309.5" font-family="Helvetica,sans-Serif" font-size="10.00">Manifold.hpp</text>
</a>
</g>
</g>
<!-- Node14&#45;&gt;Node15 -->
<g id="edge15" class="edge">
<title>Node14&#45;&gt;Node15</title>
<path fill="none" stroke="midnightblue" d="M1164.72,-358.08C1159.83,-350.53 1152.67,-339.49 1146.67,-330.23"/>
<polygon fill="midnightblue" stroke="midnightblue" points="1149.55,-328.24 1141.17,-321.75 1143.67,-332.05 1149.55,-328.24"/>
</g>
<!-- Node16 -->
<g id="node16" class="node">
<title>Node16</title>
<g id="a_node16"><a xlink:title=" ">
<polygon fill="white" stroke="#bfbfbf" points="1109,-246.5 1109,-265.5 1162,-265.5 1162,-246.5 1109,-246.5"/>
<text text-anchor="middle" x="1135.5" y="-253.5" font-family="Helvetica,sans-Serif" font-size="10.00">cstddef</text>
</a>
</g>
</g>
<!-- Node15&#45;&gt;Node16 -->
<g id="edge16" class="edge">
<title>Node15&#45;&gt;Node16</title>
<path fill="none" stroke="midnightblue" d="M1135.5,-302.08C1135.5,-295.01 1135.5,-284.86 1135.5,-275.99"/>
<polygon fill="midnightblue" stroke="midnightblue" points="1139,-275.75 1135.5,-265.75 1132,-275.75 1139,-275.75"/>
</g>
<!-- Node17 -->
<g id="node17" class="node">
<title>Node17</title>
<g id="a_node17"><a xlink:title=" ">
<polygon fill="white" stroke="#bfbfbf" points="941.5,-246.5 941.5,-265.5 1027.5,-265.5 1027.5,-246.5 941.5,-246.5"/>
<text text-anchor="middle" x="984.5" y="-253.5" font-family="Helvetica,sans-Serif" font-size="10.00">unordered_set</text>
</a>
</g>
</g>
<!-- Node15&#45;&gt;Node17 -->
<g id="edge17" class="edge">
<title>Node15&#45;&gt;Node17</title>
<path fill="none" stroke="midnightblue" d="M1111.57,-302.44C1086.28,-293.4 1046.2,-279.06 1017.82,-268.92"/>
<polygon fill="midnightblue" stroke="midnightblue" points="1018.91,-265.59 1008.31,-265.52 1016.55,-272.18 1018.91,-265.59"/>
</g>
<!-- Node18 -->
<g id="node18" class="node">
<title>Node18</title>
<g id="a_node18"><a xlink:title=" ">
<polygon fill="white" stroke="#bfbfbf" points="1046,-246.5 1046,-265.5 1091,-265.5 1091,-246.5 1046,-246.5"/>
<text text-anchor="middle" x="1068.5" y="-253.5" font-family="Helvetica,sans-Serif" font-size="10.00">utility</text>
</a>
</g>
</g>
<!-- Node15&#45;&gt;Node18 -->
<g id="edge18" class="edge">
<title>Node15&#45;&gt;Node18</title>
<path fill="none" stroke="midnightblue" d="M1124.74,-302.32C1114.73,-294.26 1099.61,-282.08 1087.57,-272.37"/>
<polygon fill="midnightblue" stroke="midnightblue" points="1089.44,-269.38 1079.46,-265.83 1085.05,-274.83 1089.44,-269.38"/>
</g>
<!-- Node19 -->
<g id="node19" class="node">
<title>Node19</title>
<g id="a_node19"><a xlink:href="_geometry_8hpp.html" target="_top" xlink:title="Geometric quantities of Manifold used by MoveAlgorithm.">
<polygon fill="white" stroke="black" points="1180,-246.5 1180,-265.5 1265,-265.5 1265,-246.5 1180,-246.5"/>
<text text-anchor="middle" x="1222.5" y="-253.5" font-family="Helvetica,sans-Serif" font-size="10.00">Geometry.hpp</text>
</a>
</g>
</g>
<!-- Node15&#45;&gt;Node19 -->
<g id="edge19" class="edge">
<title>Node15&#45;&gt;Node19</title>
<path fill="none" stroke="midnightblue" d="M1149.48,-302.32C1163.05,-293.9 1183.88,-280.97 1199.82,-271.07"/>
<polygon fill="midnightblue" stroke="midnightblue" points="1201.91,-273.9 1208.56,-265.65 1198.21,-267.95 1201.91,-273.9"/>
</g>
<!-- Node20 -->
<g id="node20" class="node">
<title>Node20</title>
<g id="a_node20"><a xlink:title=" ">
<polygon fill="white" stroke="#bfbfbf" points="1176,-190.5 1176,-209.5 1269,-209.5 1269,-190.5 1176,-190.5"/>
<text text-anchor="middle" x="1222.5" y="-197.5" font-family="Helvetica,sans-Serif" font-size="10.00">__utility/swap.h</text>
</a>
</g>
</g>
<!-- Node19&#45;&gt;Node20 -->
<g id="edge20" class="edge">
<title>Node19&#45;&gt;Node20</title>
<path fill="none" stroke="midnightblue" d="M1222.5,-246.08C1222.5,-239.01 1222.5,-228.86 1222.5,-219.99"/>
<polygon fill="midnightblue" stroke="midnightblue" points="1226,-219.75 1222.5,-209.75 1219,-219.75 1226,-219.75"/>
</g>
<!-- Node21 -->
<g id="node21" class="node">
<title>Node21</title>
<g id="a_node21"><a xlink:title=" ">
<polygon fill="white" stroke="#bfbfbf" points="1111,-190.5 1111,-209.5 1158,-209.5 1158,-190.5 1111,-190.5"/>
<text text-anchor="middle" x="1134.5" y="-197.5" font-family="Helvetica,sans-Serif" font-size="10.00">vector</text>
</a>
</g>
</g>
<!-- Node19&#45;&gt;Node21 -->
<g id="edge21" class="edge">
<title>Node19&#45;&gt;Node21</title>
<path fill="none" stroke="midnightblue" d="M1208.36,-246.32C1194.63,-237.9 1173.56,-224.97 1157.44,-215.07"/>
<polygon fill="midnightblue" stroke="midnightblue" points="1158.96,-211.9 1148.6,-209.65 1155.3,-217.87 1158.96,-211.9"/>
</g>
<!-- Node22 -->
<g id="node22" class="node">
<title>Node22</title>
<g id="a_node22"><a xlink:href="_foliated__triangulation_8hpp.html" target="_top" xlink:title="Create foliated spherical triangulations.">
<polygon fill="white" stroke="black" points="948.5,-190.5 948.5,-209.5 1092.5,-209.5 1092.5,-190.5 948.5,-190.5"/>
<text text-anchor="middle" x="1020.5" y="-197.5" font-family="Helvetica,sans-Serif" font-size="10.00">Foliated_triangulation.hpp</text>
</a>
</g>
</g>
<!-- Node19&#45;&gt;Node22 -->
<g id="edge22" class="edge">
<title>Node19&#45;&gt;Node22</title>
<path fill="none" stroke="midnightblue" d="M1190.49,-246.44C1155.77,-237.16 1100.21,-222.31 1062.12,-212.13"/>
<polygon fill="midnightblue" stroke="midnightblue" points="1062.92,-208.72 1052.36,-209.52 1061.11,-215.48 1062.92,-208.72"/>
</g>
<!-- Node30 -->
<g id="node30" class="node">
<title>Node30</title>
<g id="a_node30"><a xlink:href="_settings_8hpp.html" target="_top" xlink:title="Global integer and precision settings.">
<polygon fill="white" stroke="black" points="839,-67.5 839,-86.5 916,-86.5 916,-67.5 839,-67.5"/>
<text text-anchor="middle" x="877.5" y="-74.5" font-family="Helvetica,sans-Serif" font-size="10.00">Settings.hpp</text>
</a>
</g>
</g>
<!-- Node19&#45;&gt;Node30 -->
<g id="edge52" class="edge">
<title>Node19&#45;&gt;Node30</title>
<path fill="none" stroke="midnightblue" d="M1239.45,-246.42C1261.31,-234.21 1294.72,-210.97 1278.5,-190 1179.05,-61.41 1078.38,-150.41 924.5,-98 918.22,-95.86 911.6,-93.26 905.37,-90.66"/>
<polygon fill="midnightblue" stroke="midnightblue" points="906.58,-87.37 896.01,-86.63 903.81,-93.8 906.58,-87.37"/>
</g>
<!-- Node23 -->
<g id="node23" class="node">
<title>Node23</title>
<g id="a_node23"><a xlink:title=" ">
<polygon fill="white" stroke="#bfbfbf" points="990.5,-134.5 990.5,-153.5 1050.5,-153.5 1050.5,-134.5 990.5,-134.5"/>
<text text-anchor="middle" x="1020.5" y="-141.5" font-family="Helvetica,sans-Serif" font-size="10.00">concepts</text>
</a>
</g>
</g>
<!-- Node22&#45;&gt;Node23 -->
<g id="edge23" class="edge">
<title>Node22&#45;&gt;Node23</title>
<path fill="none" stroke="midnightblue" d="M1020.5,-190.08C1020.5,-183.01 1020.5,-172.86 1020.5,-163.99"/>
<polygon fill="midnightblue" stroke="midnightblue" points="1024,-163.75 1020.5,-153.75 1017,-163.75 1024,-163.75"/>
</g>
<!-- Node24 -->
<g id="node24" class="node">
<title>Node24</title>
<g id="a_node24"><a xlink:href="_triangulation__traits_8hpp.html" target="_top" xlink:title="Traits class for particular uses of CGAL.">
<polygon fill="white" stroke="black" points="481,-134.5 481,-153.5 612,-153.5 612,-134.5 481,-134.5"/>
<text text-anchor="middle" x="546.5" y="-141.5" font-family="Helvetica,sans-Serif" font-size="10.00">Triangulation_traits.hpp</text>
</a>
</g>
</g>
<!-- Node22&#45;&gt;Node24 -->
<g id="edge24" class="edge">
<title>Node22&#45;&gt;Node24</title>
<path fill="none" stroke="midnightblue" d="M948.25,-190.77C860.16,-180.73 711.97,-163.85 622.3,-153.64"/>
<polygon fill="midnightblue" stroke="midnightblue" points="622.53,-150.14 612.2,-152.49 621.74,-157.09 622.53,-150.14"/>
</g>
<!-- Node33 -->
<g id="node33" class="node">
<title>Node33</title>
<g id="a_node33"><a xlink:href="_utilities_8hpp.html" target="_top" xlink:title="Utility functions.">
<polygon fill="white" stroke="red" points="1425.5,-134.5 1425.5,-153.5 1501.5,-153.5 1501.5,-134.5 1425.5,-134.5"/>
<text text-anchor="middle" x="1463.5" y="-141.5" font-family="Helvetica,sans-Serif" font-size="10.00">Utilities.hpp</text>
</a>
</g>
</g>
<!-- Node22&#45;&gt;Node33 -->
<g id="edge33" class="edge">
<title>Node22&#45;&gt;Node33</title>
<path fill="none" stroke="midnightblue" d="M1090.69,-190.44C1181.41,-179.39 1336.97,-160.42 1415.36,-150.87"/>
<polygon fill="midnightblue" stroke="midnightblue" points="1415.93,-154.32 1425.44,-149.64 1415.09,-147.38 1415.93,-154.32"/>
</g>
<!-- Node25 -->
<g id="node25" class="node">
<title>Node25</title>
<g id="a_node25"><a xlink:title=" ">
<polygon fill="white" stroke="#bfbfbf" points="640.5,-67.5 640.5,-86.5 820.5,-86.5 820.5,-67.5 640.5,-67.5"/>
<text text-anchor="middle" x="730.5" y="-74.5" font-family="Helvetica,sans-Serif" font-size="10.00">CGAL/Delaunay_triangulation_3.h</text>
</a>
</g>
</g>
<!-- Node24&#45;&gt;Node25 -->
<g id="edge25" class="edge">
<title>Node24&#45;&gt;Node25</title>
<path fill="none" stroke="midnightblue" d="M570.93,-134.37C603.19,-122.97 660.15,-102.85 696.57,-89.99"/>
<polygon fill="midnightblue" stroke="midnightblue" points="698,-93.19 706.26,-86.56 695.66,-86.59 698,-93.19"/>
</g>
<!-- Node26 -->
<g id="node26" class="node">
<title>Node26</title>
<g id="a_node26"><a xlink:title=" ">
<polygon fill="white" stroke="#bfbfbf" points="0,-56.5 0,-97.5 129,-97.5 129,-56.5 0,-56.5"/>
<text text-anchor="start" x="8" y="-85.5" font-family="Helvetica,sans-Serif" font-size="10.00">CGAL/Exact_predicates</text>
<text text-anchor="start" x="8" y="-74.5" font-family="Helvetica,sans-Serif" font-size="10.00">_inexact_constructions</text>
<text text-anchor="middle" x="64.5" y="-63.5" font-family="Helvetica,sans-Serif" font-size="10.00">_kernel.h</text>
</a>
</g>
</g>
<!-- Node24&#45;&gt;Node26 -->
<g id="edge26" class="edge">
<title>Node24&#45;&gt;Node26</title>
<path fill="none" stroke="midnightblue" d="M480.86,-138.98C401.81,-133.43 264.95,-121.54 139.43,-98.23"/>
<polygon fill="midnightblue" stroke="midnightblue" points="139.73,-94.73 129.25,-96.31 138.43,-101.6 139.73,-94.73"/>
</g>
<!-- Node27 -->
<g id="node27" class="node">
<title>Node27</title>
<g id="a_node27"><a xlink:title=" ">
<polygon fill="white" stroke="#bfbfbf" points="147,-67.5 147,-86.5 296,-86.5 296,-67.5 147,-67.5"/>
<text text-anchor="middle" x="221.5" y="-74.5" font-family="Helvetica,sans-Serif" font-size="10.00">CGAL/point_generators_3.h</text>
</a>
</g>
</g>
<!-- Node24&#45;&gt;Node27 -->
<g id="edge27" class="edge">
<title>Node24&#45;&gt;Node27</title>
<path fill="none" stroke="midnightblue" d="M496.97,-134.49C448.15,-125.92 371.49,-112.01 305.5,-98 292.54,-95.25 278.52,-92.01 265.71,-88.96"/>
<polygon fill="midnightblue" stroke="midnightblue" points="266.29,-85.5 255.74,-86.56 264.65,-92.3 266.29,-85.5"/>
</g>
<!-- Node28 -->
<g id="node28" class="node">
<title>Node28</title>
<g id="a_node28"><a xlink:title=" ">
<polygon fill="white" stroke="#bfbfbf" points="314.5,-62 314.5,-92 452.5,-92 452.5,-62 314.5,-62"/>
<text text-anchor="start" x="322.5" y="-80" font-family="Helvetica,sans-Serif" font-size="10.00">CGAL/Triangulation</text>
<text text-anchor="middle" x="383.5" y="-69" font-family="Helvetica,sans-Serif" font-size="10.00">_cell_base_with_info_3.h</text>
</a>
</g>
</g>
<!-- Node24&#45;&gt;Node28 -->
<g id="edge28" class="edge">
<title>Node24&#45;&gt;Node28</title>
<path fill="none" stroke="midnightblue" d="M524.85,-134.37C500.29,-124.57 459.56,-108.33 428.11,-95.79"/>
<polygon fill="midnightblue" stroke="midnightblue" points="429.26,-92.48 418.68,-92.03 426.67,-98.98 429.26,-92.48"/>
</g>
<!-- Node29 -->
<g id="node29" class="node">
<title>Node29</title>
<g id="a_node29"><a xlink:title=" ">
<polygon fill="white" stroke="#bfbfbf" points="470.5,-62 470.5,-92 622.5,-92 622.5,-62 470.5,-62"/>
<text text-anchor="start" x="478.5" y="-80" font-family="Helvetica,sans-Serif" font-size="10.00">CGAL/Triangulation</text>
<text text-anchor="middle" x="546.5" y="-69" font-family="Helvetica,sans-Serif" font-size="10.00">_vertex_base_with_info_3.h</text>
</a>
</g>
</g>
<!-- Node24&#45;&gt;Node29 -->
<g id="edge29" class="edge">
<title>Node24&#45;&gt;Node29</title>
<path fill="none" stroke="midnightblue" d="M546.5,-134.23C546.5,-126.04 546.5,-113.42 546.5,-102.21"/>
<polygon fill="midnightblue" stroke="midnightblue" points="550,-102.09 546.5,-92.09 543,-102.09 550,-102.09"/>
</g>
<!-- Node24&#45;&gt;Node30 -->
<g id="edge30" class="edge">
<title>Node24&#45;&gt;Node30</title>
<path fill="none" stroke="midnightblue" d="M612.08,-137.03C670.05,-130.7 756.51,-118.69 829.5,-98 836.39,-96.05 843.61,-93.39 850.3,-90.64"/>
<polygon fill="midnightblue" stroke="midnightblue" points="851.82,-93.8 859.63,-86.64 849.06,-87.37 851.82,-93.8"/>
</g>
<!-- Node31 -->
<g id="node31" class="node">
<title>Node31</title>
<g id="a_node31"><a xlink:title=" ">
<polygon fill="white" stroke="#bfbfbf" points="750.5,-0.5 750.5,-19.5 890.5,-19.5 890.5,-0.5 750.5,-0.5"/>
<text text-anchor="middle" x="820.5" y="-7.5" font-family="Helvetica,sans-Serif" font-size="10.00">CGAL/GMP/Gmpzf_type.h</text>
</a>
</g>
</g>
<!-- Node30&#45;&gt;Node31 -->
<g id="edge31" class="edge">
<title>Node30&#45;&gt;Node31</title>
<path fill="none" stroke="midnightblue" d="M869.81,-67.23C860.84,-57 845.81,-39.86 834.7,-27.19"/>
<polygon fill="midnightblue" stroke="midnightblue" points="837.29,-24.84 828.07,-19.63 832.03,-29.45 837.29,-24.84"/>
</g>
<!-- Node32 -->
<g id="node32" class="node">
<title>Node32</title>
<g id="a_node32"><a xlink:title=" ">
<polygon fill="white" stroke="#bfbfbf" points="908.5,-0.5 908.5,-19.5 958.5,-19.5 958.5,-0.5 908.5,-0.5"/>
<text text-anchor="middle" x="933.5" y="-7.5" font-family="Helvetica,sans-Serif" font-size="10.00">cstdint</text>
</a>
</g>
</g>
<!-- Node30&#45;&gt;Node32 -->
<g id="edge32" class="edge">
<title>Node30&#45;&gt;Node32</title>
<path fill="none" stroke="midnightblue" d="M885.05,-67.23C893.78,-57.1 908.35,-40.19 919.24,-27.56"/>
<polygon fill="midnightblue" stroke="midnightblue" points="922.19,-29.49 926.07,-19.63 916.89,-24.92 922.19,-29.49"/>
</g>
<!-- Node33&#45;&gt;Node8 -->
<g id="edge50" class="edge">
<title>Node33&#45;&gt;Node8</title>
<path fill="none" stroke="midnightblue" d="M1501.7,-139.98C1524.56,-138.19 1554.19,-135.91 1580.5,-134 1814.21,-117.01 1877.11,-145.86 2106.5,-98 2115.36,-96.15 2124.72,-93.22 2133.2,-90.17"/>
<polygon fill="midnightblue" stroke="midnightblue" points="2134.55,-93.4 2142.67,-86.59 2132.08,-86.85 2134.55,-93.4"/>
</g>
<!-- Node33&#45;&gt;Node10 -->
<g id="edge46" class="edge">
<title>Node33&#45;&gt;Node10</title>
<path fill="none" stroke="midnightblue" d="M1501.76,-143.27C1635.79,-143.83 2083.25,-142.26 2218.5,-98 2222.56,-96.67 2226.61,-94.68 2230.38,-92.45"/>
<polygon fill="midnightblue" stroke="midnightblue" points="2232.63,-95.16 2239.02,-86.71 2228.75,-89.33 2232.63,-95.16"/>
</g>
<!-- Node33&#45;&gt;Node30 -->
<g id="edge51" class="edge">
<title>Node33&#45;&gt;Node30</title>
<path fill="none" stroke="midnightblue" d="M1425.49,-140.53C1310.75,-132.97 972.81,-109.97 924.5,-98 917.44,-96.25 910.09,-93.57 903.35,-90.74"/>
<polygon fill="midnightblue" stroke="midnightblue" points="904.58,-87.45 894.02,-86.56 901.72,-93.84 904.58,-87.45"/>
</g>
<!-- Node34 -->
<g id="node34" class="node">
<title>Node34</title>
<g id="a_node34"><a xlink:title=" ">
<polygon fill="white" stroke="#bfbfbf" points="1708,-67.5 1708,-86.5 1791,-86.5 1791,-67.5 1708,-67.5"/>
<text text-anchor="middle" x="1749.5" y="-74.5" font-family="Helvetica,sans-Serif" font-size="10.00">CGAL/Timer.h</text>
</a>
</g>
</g>
<!-- Node33&#45;&gt;Node34 -->
<g id="edge34" class="edge">
<title>Node33&#45;&gt;Node34</title>
<path fill="none" stroke="midnightblue" d="M1501.86,-137.88C1548.81,-131.1 1630.46,-117.67 1698.5,-98 1705.79,-95.89 1713.48,-93.16 1720.63,-90.39"/>
<polygon fill="midnightblue" stroke="midnightblue" points="1721.96,-93.63 1729.93,-86.65 1719.35,-87.13 1721.96,-93.63"/>
</g>
<!-- Node35 -->
<g id="node35" class="node">
<title>Node35</title>
<g id="a_node35"><a xlink:title=" ">
<polygon fill="white" stroke="#bfbfbf" points="1809.5,-67.5 1809.5,-86.5 1873.5,-86.5 1873.5,-67.5 1809.5,-67.5"/>
<text text-anchor="middle" x="1841.5" y="-74.5" font-family="Helvetica,sans-Serif" font-size="10.00">algorithm</text>
</a>
</g>
</g>
<!-- Node33&#45;&gt;Node35 -->
<g id="edge35" class="edge">
<title>Node33&#45;&gt;Node35</title>
<path fill="none" stroke="midnightblue" d="M1501.52,-139.47C1577.43,-132.17 1745.2,-114.7 1800.5,-98 1806.19,-96.28 1812.06,-93.86 1817.52,-91.28"/>
<polygon fill="midnightblue" stroke="midnightblue" points="1819.43,-94.24 1826.78,-86.61 1816.28,-87.99 1819.43,-94.24"/>
</g>
<!-- Node36 -->
<g id="node36" class="node">
<title>Node36</title>
<g id="a_node36"><a xlink:title=" ">
<polygon fill="white" stroke="#bfbfbf" points="1891.5,-67.5 1891.5,-86.5 1943.5,-86.5 1943.5,-67.5 1891.5,-67.5"/>
<text text-anchor="middle" x="1917.5" y="-74.5" font-family="Helvetica,sans-Serif" font-size="10.00">cassert</text>
</a>
</g>
</g>
<!-- Node33&#45;&gt;Node36 -->
<g id="edge36" class="edge">
<title>Node33&#45;&gt;Node36</title>
<path fill="none" stroke="midnightblue" d="M1501.81,-139.79C1598.4,-131.56 1846.74,-109.58 1882.5,-98 1887.32,-96.44 1892.22,-94.16 1896.76,-91.69"/>
<polygon fill="midnightblue" stroke="midnightblue" points="1898.63,-94.65 1905.45,-86.54 1895.06,-88.63 1898.63,-94.65"/>
</g>
<!-- Node37 -->
<g id="node37" class="node">
<title>Node37</title>
<g id="a_node37"><a xlink:title=" ">
<polygon fill="white" stroke="#bfbfbf" points="1962,-67.5 1962,-86.5 2011,-86.5 2011,-67.5 1962,-67.5"/>
<text text-anchor="middle" x="1986.5" y="-74.5" font-family="Helvetica,sans-Serif" font-size="10.00">cstdlib</text>
</a>
</g>
</g>
<!-- Node33&#45;&gt;Node37 -->
<g id="edge37" class="edge">
<title>Node33&#45;&gt;Node37</title>
<path fill="none" stroke="midnightblue" d="M1501.53,-139.96C1612.78,-130.99 1931.1,-104.9 1952.5,-98 1957.1,-96.52 1961.74,-94.34 1966.06,-91.95"/>
<polygon fill="midnightblue" stroke="midnightblue" points="1968.12,-94.79 1974.84,-86.6 1964.48,-88.81 1968.12,-94.79"/>
</g>
<!-- Node38 -->
<g id="node38" class="node">
<title>Node38</title>
<g id="a_node38"><a xlink:title=" ">
<polygon fill="white" stroke="#bfbfbf" points="2029.5,-67.5 2029.5,-86.5 2097.5,-86.5 2097.5,-67.5 2029.5,-67.5"/>
<text text-anchor="middle" x="2063.5" y="-74.5" font-family="Helvetica,sans-Serif" font-size="10.00">filesystem</text>
</a>
</g>
</g>
<!-- Node33&#45;&gt;Node38 -->
<g id="edge38" class="edge">
<title>Node33&#45;&gt;Node38</title>
<path fill="none" stroke="midnightblue" d="M1501.73,-140C1626.51,-130.2 2014.2,-99.66 2020.5,-98 2026.72,-96.36 2033.15,-93.85 2039.08,-91.17"/>
<polygon fill="midnightblue" stroke="midnightblue" points="2041.01,-94.12 2048.47,-86.6 2037.95,-87.83 2041.01,-94.12"/>
</g>
<!-- Node39 -->
<g id="node39" class="node">
<title>Node39</title>
<g id="a_node39"><a xlink:title=" ">
<polygon fill="white" stroke="#bfbfbf" points="934,-67.5 934,-86.5 989,-86.5 989,-67.5 934,-67.5"/>
<text text-anchor="middle" x="961.5" y="-74.5" font-family="Helvetica,sans-Serif" font-size="10.00">fstream</text>
</a>
</g>
</g>
<!-- Node33&#45;&gt;Node39 -->
<g id="edge39" class="edge">
<title>Node33&#45;&gt;Node39</title>
<path fill="none" stroke="midnightblue" d="M1425.22,-140.17C1321.28,-132.37 1038.89,-110.32 998.5,-98 993.31,-96.42 988.01,-94.07 983.11,-91.53"/>
<polygon fill="midnightblue" stroke="midnightblue" points="984.73,-88.42 974.3,-86.57 981.29,-94.52 984.73,-88.42"/>
</g>
<!-- Node40 -->
<g id="node40" class="node">
<title>Node40</title>
<g id="a_node40"><a xlink:title=" ">
<polygon fill="white" stroke="#bfbfbf" points="1007.5,-67.5 1007.5,-86.5 1055.5,-86.5 1055.5,-67.5 1007.5,-67.5"/>
<text text-anchor="middle" x="1031.5" y="-74.5" font-family="Helvetica,sans-Serif" font-size="10.00">gsl/gsl</text>
</a>
</g>
</g>
<!-- Node33&#45;&gt;Node40 -->
<g id="edge40" class="edge">
<title>Node33&#45;&gt;Node40</title>
<path fill="none" stroke="midnightblue" d="M1425.34,-140.79C1338.96,-135.46 1130.81,-120.61 1064.5,-98 1060.03,-96.48 1055.51,-94.27 1051.32,-91.88"/>
<polygon fill="midnightblue" stroke="midnightblue" points="1053.13,-88.88 1042.8,-86.53 1049.41,-94.81 1053.13,-88.88"/>
</g>
<!-- Node41 -->
<g id="node41" class="node">
<title>Node41</title>
<g id="a_node41"><a xlink:title=" ">
<polygon fill="white" stroke="#bfbfbf" points="1073.5,-67.5 1073.5,-86.5 1133.5,-86.5 1133.5,-67.5 1073.5,-67.5"/>
<text text-anchor="middle" x="1103.5" y="-74.5" font-family="Helvetica,sans-Serif" font-size="10.00">iostream</text>
</a>
</g>
</g>
<!-- Node33&#45;&gt;Node41 -->
<g id="edge41" class="edge">
<title>Node33&#45;&gt;Node41</title>
<path fill="none" stroke="midnightblue" d="M1425.03,-141.74C1363.86,-138.82 1241.22,-129.25 1142.5,-98 1137.2,-96.32 1131.74,-93.97 1126.65,-91.47"/>
<polygon fill="midnightblue" stroke="midnightblue" points="1127.93,-88.18 1117.46,-86.6 1124.66,-94.37 1127.93,-88.18"/>
</g>
<!-- Node42 -->
<g id="node42" class="node">
<title>Node42</title>
<g id="a_node42"><a xlink:title=" ">
<polygon fill="white" stroke="#bfbfbf" points="1151.5,-67.5 1151.5,-86.5 1199.5,-86.5 1199.5,-67.5 1151.5,-67.5"/>
<text text-anchor="middle" x="1175.5" y="-74.5" font-family="Helvetica,sans-Serif" font-size="10.00">mutex</text>
</a>
</g>
</g>
<!-- Node33&#45;&gt;Node42 -->
<g id="edge42" class="edge">
<title>Node33&#45;&gt;Node42</title>
<path fill="none" stroke="midnightblue" d="M1425.18,-140.65C1374.26,-136.56 1282.13,-125.7 1208.5,-98 1204.27,-96.41 1199.97,-94.27 1195.94,-91.97"/>
<polygon fill="midnightblue" stroke="midnightblue" points="1197.52,-88.83 1187.17,-86.54 1193.83,-94.78 1197.52,-88.83"/>
</g>
<!-- Node43 -->
<g id="node43" class="node">
<title>Node43</title>
<g id="a_node43"><a xlink:title=" ">
<polygon fill="white" stroke="#bfbfbf" points="1217.5,-67.5 1217.5,-86.5 1271.5,-86.5 1271.5,-67.5 1217.5,-67.5"/>
<text text-anchor="middle" x="1244.5" y="-74.5" font-family="Helvetica,sans-Serif" font-size="10.00">random</text>
</a>
</g>
</g>
<!-- Node33&#45;&gt;Node43 -->
<g id="edge43" class="edge">
<title>Node33&#45;&gt;Node43</title>
<path fill="none" stroke="midnightblue" d="M1425.45,-136.7C1387.79,-129.77 1328.92,-117.01 1280.5,-98 1276.04,-96.25 1271.44,-94.04 1267.09,-91.74"/>
<polygon fill="midnightblue" stroke="midnightblue" points="1268.53,-88.53 1258.1,-86.68 1265.1,-94.63 1268.53,-88.53"/>
</g>
<!-- Node44 -->
<g id="node44" class="node">
<title>Node44</title>
<g id="a_node44"><a xlink:title=" ">
<polygon fill="white" stroke="#bfbfbf" points="1289.5,-67.5 1289.5,-86.5 1329.5,-86.5 1329.5,-67.5 1289.5,-67.5"/>
<text text-anchor="middle" x="1309.5" y="-74.5" font-family="Helvetica,sans-Serif" font-size="10.00">span</text>
</a>
</g>
</g>
<!-- Node33&#45;&gt;Node44 -->
<g id="edge44" class="edge">
<title>Node33&#45;&gt;Node44</title>
<path fill="none" stroke="midnightblue" d="M1433.86,-134.45C1408.21,-126.54 1370.46,-113.65 1339.5,-98 1336.22,-96.34 1332.86,-94.39 1329.63,-92.37"/>
<polygon fill="midnightblue" stroke="midnightblue" points="1331.34,-89.29 1321.07,-86.66 1327.46,-95.12 1331.34,-89.29"/>
</g>
<!-- Node45 -->
<g id="node45" class="node">
<title>Node45</title>
<g id="a_node45"><a xlink:title=" ">
<polygon fill="white" stroke="#bfbfbf" points="1348,-67.5 1348,-86.5 1413,-86.5 1413,-67.5 1348,-67.5"/>
<text text-anchor="middle" x="1380.5" y="-74.5" font-family="Helvetica,sans-Serif" font-size="10.00">stdexcept</text>
</a>
</g>
</g>
<!-- Node33&#45;&gt;Node45 -->
<g id="edge45" class="edge">
<title>Node33&#45;&gt;Node45</title>
<path fill="none" stroke="midnightblue" d="M1452.31,-134.23C1438.87,-123.71 1416.1,-105.88 1399.8,-93.12"/>
<polygon fill="midnightblue" stroke="midnightblue" points="1401.55,-90.04 1391.52,-86.63 1397.23,-95.55 1401.55,-90.04"/>
</g>
<!-- Node46 -->
<g id="node46" class="node">
<title>Node46</title>
<g id="a_node46"><a xlink:title=" ">
<polygon fill="white" stroke="#bfbfbf" points="1431,-67.5 1431,-86.5 1496,-86.5 1496,-67.5 1431,-67.5"/>
<text text-anchor="middle" x="1463.5" y="-74.5" font-family="Helvetica,sans-Serif" font-size="10.00">typeindex</text>
</a>
</g>
</g>
<!-- Node33&#45;&gt;Node46 -->
<g id="edge47" class="edge">
<title>Node33&#45;&gt;Node46</title>
<path fill="none" stroke="midnightblue" d="M1463.5,-134.23C1463.5,-124.68 1463.5,-109.12 1463.5,-96.78"/>
<polygon fill="midnightblue" stroke="midnightblue" points="1467,-96.63 1463.5,-86.63 1460,-96.63 1467,-96.63"/>
</g>
<!-- Node47 -->
<g id="node47" class="node">
<title>Node47</title>
<g id="a_node47"><a xlink:title=" ">
<polygon fill="white" stroke="#bfbfbf" points="1514,-67.5 1514,-86.5 1573,-86.5 1573,-67.5 1514,-67.5"/>
<text text-anchor="middle" x="1543.5" y="-74.5" font-family="Helvetica,sans-Serif" font-size="10.00">date/tz.h</text>
</a>
</g>
</g>
<!-- Node33&#45;&gt;Node47 -->
<g id="edge48" class="edge">
<title>Node33&#45;&gt;Node47</title>
<path fill="none" stroke="midnightblue" d="M1474.29,-134.23C1487.24,-123.71 1509.19,-105.88 1524.89,-93.12"/>
<polygon fill="midnightblue" stroke="midnightblue" points="1527.33,-95.65 1532.88,-86.63 1522.91,-90.22 1527.33,-95.65"/>
</g>
<!-- Node48 -->
<g id="node48" class="node">
<title>Node48</title>
<g id="a_node48"><a xlink:title=" ">
<polygon fill="white" stroke="#bfbfbf" points="1591.5,-67.5 1591.5,-86.5 1689.5,-86.5 1689.5,-67.5 1591.5,-67.5"/>
<text text-anchor="middle" x="1640.5" y="-74.5" font-family="Helvetica,sans-Serif" font-size="10.00">pcg_random.hpp</text>
</a>
</g>
</g>
<!-- Node33&#45;&gt;Node48 -->
<g id="edge49" class="edge">
<title>Node33&#45;&gt;Node48</title>
<path fill="none" stroke="midnightblue" d="M1487,-134.37C1517.9,-123.02 1572.36,-103.02 1607.41,-90.15"/>
<polygon fill="midnightblue" stroke="midnightblue" points="1609,-93.3 1617.18,-86.56 1606.59,-86.73 1609,-93.3"/>
</g>
<!-- Node52&#45;&gt;Node30 -->
<g id="edge55" class="edge">
<title>Node52&#45;&gt;Node30</title>
<path fill="none" stroke="midnightblue" d="M989.67,-526.47C956.53,-511.36 895.5,-476.53 895.5,-425 895.5,-425 895.5,-425 895.5,-199 895.5,-162.5 887.39,-120.47 882.05,-96.79"/>
<polygon fill="midnightblue" stroke="midnightblue" points="885.39,-95.68 879.71,-86.74 878.57,-97.27 885.39,-95.68"/>
</g>
<!-- Node53 -->
<g id="node50" class="node">
<title>Node53</title>
<g id="a_node50"><a xlink:title=" ">
<polygon fill="white" stroke="#bfbfbf" points="986.5,-470.5 986.5,-489.5 1034.5,-489.5 1034.5,-470.5 986.5,-470.5"/>
<text text-anchor="middle" x="1010.5" y="-477.5" font-family="Helvetica,sans-Serif" font-size="10.00">mpfr.h</text>
</a>
</g>
</g>
<!-- Node52&#45;&gt;Node53 -->
<g id="edge54" class="edge">
<title>Node52&#45;&gt;Node53</title>
<path fill="none" stroke="midnightblue" d="M1010.5,-526.08C1010.5,-519.01 1010.5,-508.86 1010.5,-499.99"/>
<polygon fill="midnightblue" stroke="midnightblue" points="1014,-499.75 1010.5,-489.75 1007,-499.75 1014,-499.75"/>
</g>
</g>
</svg>
