<?xml version="1.0" encoding="UTF-8" standalone="no"?>
<!DOCTYPE svg PUBLIC "-//W3C//DTD SVG 1.1//EN"
 "http://www.w3.org/Graphics/SVG/1.1/DTD/svg11.dtd">
<!-- Generated by graphviz version 2.43.0 (0)
 -->
<!-- Title: src/cdt.cpp Pages: 1 -->
<!--zoomable 554 -->
<svg id="main" version="1.1" xmlns="http://www.w3.org/2000/svg" xmlns:xlink="http://www.w3.org/1999/xlink" xml:space="preserve" onload="init(evt)">
<style type="text/css"><![CDATA[
.edge:hover path { stroke: red; }
.edge:hover polygon { stroke: red; fill: red; }
]]></style>
<script type="text/javascript"><![CDATA[
var edges = document.getElementsByTagName('g');
if (edges && edges.length) {
  for (var i=0;i<edges.length;i++) {
    if (edges[i].id.substr(0,4)=='edge') {
      edges[i].setAttribute('class','edge');
    }
  }
}
]]></script>
        <defs>
                <circle id="rim" cx="0" cy="0" r="7"/>
                <circle id="rim2" cx="0" cy="0" r="3.5"/>
                <g id="zoomPlus">
                        <use xlink:href="#rim" fill="#404040">
                                <set attributeName="fill" to="#808080" begin="zoomplus.mouseover" end="zoomplus.mouseout"/>
                        </use>
                        <path d="M-4,0h8M0,-4v8" fill="none" stroke="white" stroke-width="1.5" pointer-events="none"/>
                </g>
                <g id="zoomMin">
                        <use xlink:href="#rim" fill="#404040">
                                <set attributeName="fill" to="#808080" begin="zoomminus.mouseover" end="zoomminus.mouseout"/>
                        </use>
                        <path d="M-4,0h8" fill="none" stroke="white" stroke-width="1.5" pointer-events="none"/>
                </g>
                <g id="dirArrow">
                        <path fill="none" stroke="white" stroke-width="1.5" d="M0,-3.0v7 M-2.5,-0.5L0,-3.0L2.5,-0.5"/>
                </g>
               <g id="resetDef">
                       <use xlink:href="#rim2" fill="#404040">
                               <set attributeName="fill" to="#808080" begin="reset.mouseover" end="reset.mouseout"/>
                       </use>
               </g>
        </defs>

<script type="text/javascript">
var viewWidth = 2156;
var viewHeight = 554;
var sectionId = 'dynsection-0';
</script>
<script xlink:href="svgpan.js"/>
<svg id="graph" class="graph">
<g id="viewport">
<title>src/cdt.cpp</title>
<polygon fill="white" stroke="transparent" points="-4,4 -4,-550 2151.5,-550 2151.5,4 -4,4"/>
<!-- Node1 -->
<g id="node1" class="node">
<title>Node1</title>
<g id="a_node1"><a xlink:title="The main executable.">
<polygon fill="#bfbfbf" stroke="black" points="443,-526.5 443,-545.5 512,-545.5 512,-526.5 443,-526.5"/>
<text text-anchor="middle" x="477.5" y="-533.5" font-family="Helvetica,sans-Serif" font-size="10.00">src/cdt.cpp</text>
</a>
</g>
</g>
<!-- Node2 -->
<g id="node2" class="node">
<title>Node2</title>
<g id="a_node2"><a xlink:title=" ">
<polygon fill="white" stroke="#bfbfbf" points="305,-470.5 305,-489.5 412,-489.5 412,-470.5 305,-470.5"/>
<text text-anchor="middle" x="358.5" y="-477.5" font-family="Helvetica,sans-Serif" font-size="10.00">CGAL/Real_timer.h</text>
</a>
</g>
</g>
<!-- Node1&#45;&gt;Node2 -->
<g id="edge1" class="edge">
<title>Node1&#45;&gt;Node2</title>
<path fill="none" stroke="midnightblue" d="M458.64,-526.44C439.23,-517.64 408.77,-503.81 386.54,-493.72"/>
<polygon fill="midnightblue" stroke="midnightblue" points="387.82,-490.46 377.27,-489.52 384.93,-496.84 387.82,-490.46"/>
</g>
<!-- Node3 -->
<g id="node3" class="node">
<title>Node3</title>
<g id="a_node3"><a xlink:title=" ">
<polygon fill="white" stroke="#bfbfbf" points="430,-470.5 430,-489.5 525,-489.5 525,-470.5 430,-470.5"/>
<text text-anchor="middle" x="477.5" y="-477.5" font-family="Helvetica,sans-Serif" font-size="10.00">docopt/docopt.h</text>
</a>
</g>
</g>
<!-- Node1&#45;&gt;Node3 -->
<g id="edge2" class="edge">
<title>Node1&#45;&gt;Node3</title>
<path fill="none" stroke="midnightblue" d="M477.5,-526.08C477.5,-519.01 477.5,-508.86 477.5,-499.99"/>
<polygon fill="midnightblue" stroke="midnightblue" points="481,-499.75 477.5,-489.75 474,-499.75 481,-499.75"/>
</g>
<!-- Node4 -->
<g id="node4" class="node">
<title>Node4</title>
<g id="a_node4"><a xlink:href="_metropolis_8hpp.html" target="_top" xlink:title="Perform Metropolis&#45;Hastings algorithm on Delaunay Triangulations.">
<polygon fill="white" stroke="black" points="543,-470.5 543,-489.5 632,-489.5 632,-470.5 543,-470.5"/>
<text text-anchor="middle" x="587.5" y="-477.5" font-family="Helvetica,sans-Serif" font-size="10.00">Metropolis.hpp</text>
</a>
</g>
</g>
<!-- Node1&#45;&gt;Node4 -->
<g id="edge3" class="edge">
<title>Node1&#45;&gt;Node4</title>
<path fill="none" stroke="midnightblue" d="M495.17,-526.32C512.89,-517.62 540.4,-504.12 560.79,-494.11"/>
<polygon fill="midnightblue" stroke="midnightblue" points="562.44,-497.2 569.87,-489.65 559.35,-490.92 562.44,-497.2"/>
</g>
<!-- Node5 -->
<g id="node5" class="node">
<title>Node5</title>
<g id="a_node5"><a xlink:href="_move__command_8hpp.html" target="_top" xlink:title="Do ergodic moves using the Command pattern.">
<polygon fill="white" stroke="black" points="348,-414.5 348,-433.5 467,-433.5 467,-414.5 348,-414.5"/>
<text text-anchor="middle" x="407.5" y="-421.5" font-family="Helvetica,sans-Serif" font-size="10.00">Move_command.hpp</text>
</a>
</g>
</g>
<!-- Node4&#45;&gt;Node5 -->
<g id="edge4" class="edge">
<title>Node4&#45;&gt;Node5</title>
<path fill="none" stroke="midnightblue" d="M558.98,-470.44C528.43,-461.28 479.79,-446.69 445.9,-436.52"/>
<polygon fill="midnightblue" stroke="midnightblue" points="446.47,-433.04 435.89,-433.52 444.46,-439.74 446.47,-433.04"/>
</g>
<!-- Node42 -->
<g id="node42" class="node">
<title>Node42</title>
<g id="a_node42"><a xlink:href="_move__strategy_8hpp.html" target="_top" xlink:title="Template class for move algorithms (strategies) on manifolds.">
<polygon fill="white" stroke="black" points="533,-414.5 533,-433.5 642,-433.5 642,-414.5 533,-414.5"/>
<text text-anchor="middle" x="587.5" y="-421.5" font-family="Helvetica,sans-Serif" font-size="10.00">Move_strategy.hpp</text>
</a>
</g>
</g>
<!-- Node4&#45;&gt;Node42 -->
<g id="edge49" class="edge">
<title>Node4&#45;&gt;Node42</title>
<path fill="none" stroke="midnightblue" d="M587.5,-470.08C587.5,-463.01 587.5,-452.86 587.5,-443.99"/>
<polygon fill="midnightblue" stroke="midnightblue" points="591,-443.75 587.5,-433.75 584,-443.75 591,-443.75"/>
</g>
<!-- Node43 -->
<g id="node43" class="node">
<title>Node43</title>
<g id="a_node43"><a xlink:href="_s3_action_8hpp.html" target="_top" xlink:title="Calculate S3 bulk actions on 3D Delaunay Triangulations.">
<polygon fill="white" stroke="black" points="969.5,-414.5 969.5,-433.5 1049.5,-433.5 1049.5,-414.5 969.5,-414.5"/>
<text text-anchor="middle" x="1009.5" y="-421.5" font-family="Helvetica,sans-Serif" font-size="10.00">S3Action.hpp</text>
</a>
</g>
</g>
<!-- Node4&#45;&gt;Node43 -->
<g id="edge50" class="edge">
<title>Node4&#45;&gt;Node43</title>
<path fill="none" stroke="midnightblue" d="M632.26,-473.27C711.58,-463.12 876.23,-442.05 959.28,-431.43"/>
<polygon fill="midnightblue" stroke="midnightblue" points="959.76,-434.89 969.24,-430.15 958.87,-427.95 959.76,-434.89"/>
</g>
<!-- Node6 -->
<g id="node6" class="node">
<title>Node6</title>
<g id="a_node6"><a xlink:href="_apply__move_8hpp.html" target="_top" xlink:title="Apply Pachner moves to foliated Delaunay triangulations.">
<polygon fill="white" stroke="black" points="166.5,-358.5 166.5,-377.5 264.5,-377.5 264.5,-358.5 166.5,-358.5"/>
<text text-anchor="middle" x="215.5" y="-365.5" font-family="Helvetica,sans-Serif" font-size="10.00">Apply_move.hpp</text>
</a>
</g>
</g>
<!-- Node5&#45;&gt;Node6 -->
<g id="edge5" class="edge">
<title>Node5&#45;&gt;Node6</title>
<path fill="none" stroke="midnightblue" d="M377.08,-414.44C344.22,-405.2 291.72,-390.44 255.53,-380.26"/>
<polygon fill="midnightblue" stroke="midnightblue" points="256.35,-376.85 245.78,-377.52 254.46,-383.59 256.35,-376.85"/>
</g>
<!-- Node11 -->
<g id="node11" class="node">
<title>Node11</title>
<g id="a_node11"><a xlink:href="_ergodic__moves__3_8hpp.html" target="_top" xlink:title="Pachner moves on 2+1 dimensional foliated Delaunay triangulations.">
<polygon fill="white" stroke="black" points="346,-358.5 346,-377.5 469,-377.5 469,-358.5 346,-358.5"/>
<text text-anchor="middle" x="407.5" y="-365.5" font-family="Helvetica,sans-Serif" font-size="10.00">Ergodic_moves_3.hpp</text>
</a>
</g>
</g>
<!-- Node5&#45;&gt;Node11 -->
<g id="edge10" class="edge">
<title>Node5&#45;&gt;Node11</title>
<path fill="none" stroke="midnightblue" d="M407.5,-414.08C407.5,-407.01 407.5,-396.86 407.5,-387.99"/>
<polygon fill="midnightblue" stroke="midnightblue" points="411,-387.75 407.5,-377.75 404,-387.75 411,-387.75"/>
</g>
<!-- Node7 -->
<g id="node7" class="node">
<title>Node7</title>
<g id="a_node7"><a xlink:title=" ">
<polygon fill="white" stroke="#bfbfbf" points="0,-67.5 0,-86.5 93,-86.5 93,-67.5 0,-67.5"/>
<text text-anchor="middle" x="46.5" y="-74.5" font-family="Helvetica,sans-Serif" font-size="10.00">spdlog/spdlog.h</text>
</a>
</g>
</g>
<!-- Node6&#45;&gt;Node7 -->
<g id="edge6" class="edge">
<title>Node6&#45;&gt;Node7</title>
<path fill="none" stroke="midnightblue" d="M184.25,-358.42C141.9,-344.66 71.5,-313.31 71.5,-257 71.5,-257 71.5,-257 71.5,-199 71.5,-161.96 60.13,-119.85 52.72,-96.35"/>
<polygon fill="midnightblue" stroke="midnightblue" points="56,-95.1 49.57,-86.68 49.34,-97.27 56,-95.1"/>
</g>
<!-- Node8 -->
<g id="node8" class="node">
<title>Node8</title>
<g id="a_node8"><a xlink:title=" ">
<polygon fill="white" stroke="#bfbfbf" points="111.5,-67.5 111.5,-86.5 155.5,-86.5 155.5,-67.5 111.5,-67.5"/>
<text text-anchor="middle" x="133.5" y="-74.5" font-family="Helvetica,sans-Serif" font-size="10.00">string</text>
</a>
</g>
</g>
<!-- Node6&#45;&gt;Node8 -->
<g id="edge7" class="edge">
<title>Node6&#45;&gt;Node8</title>
<path fill="none" stroke="midnightblue" d="M198.1,-358.44C184.14,-350.72 165.03,-338.12 153.5,-322 135.92,-297.41 133.5,-287.23 133.5,-257 133.5,-257 133.5,-257 133.5,-199 133.5,-162.71 133.5,-120.31 133.5,-96.56"/>
<polygon fill="midnightblue" stroke="midnightblue" points="137,-96.51 133.5,-86.51 130,-96.51 137,-96.51"/>
</g>
<!-- Node9 -->
<g id="node9" class="node">
<title>Node9</title>
<g id="a_node9"><a xlink:title=" ">
<polygon fill="white" stroke="#bfbfbf" points="287.5,-302.5 287.5,-321.5 379.5,-321.5 379.5,-302.5 287.5,-302.5"/>
<text text-anchor="middle" x="333.5" y="-309.5" font-family="Helvetica,sans-Serif" font-size="10.00">tl/expected.hpp</text>
</a>
</g>
</g>
<!-- Node6&#45;&gt;Node9 -->
<g id="edge8" class="edge">
<title>Node6&#45;&gt;Node9</title>
<path fill="none" stroke="midnightblue" d="M234.2,-358.44C253.44,-349.64 283.65,-335.81 305.7,-325.72"/>
<polygon fill="midnightblue" stroke="midnightblue" points="307.25,-328.86 314.89,-321.52 304.34,-322.5 307.25,-328.86"/>
</g>
<!-- Node10 -->
<g id="node10" class="node">
<title>Node10</title>
<g id="a_node10"><a xlink:title=" ">
<polygon fill="white" stroke="#bfbfbf" points="163,-302.5 163,-321.5 268,-321.5 268,-302.5 163,-302.5"/>
<text text-anchor="middle" x="215.5" y="-309.5" font-family="Helvetica,sans-Serif" font-size="10.00">tl/function_ref.hpp</text>
</a>
</g>
</g>
<!-- Node6&#45;&gt;Node10 -->
<g id="edge9" class="edge">
<title>Node6&#45;&gt;Node10</title>
<path fill="none" stroke="midnightblue" d="M215.5,-358.08C215.5,-351.01 215.5,-340.86 215.5,-331.99"/>
<polygon fill="midnightblue" stroke="midnightblue" points="219,-331.75 215.5,-321.75 212,-331.75 219,-331.75"/>
</g>
<!-- Node11&#45;&gt;Node9 -->
<g id="edge11" class="edge">
<title>Node11&#45;&gt;Node9</title>
<path fill="none" stroke="midnightblue" d="M395.61,-358.32C384.35,-350.11 367.21,-337.6 353.79,-327.81"/>
<polygon fill="midnightblue" stroke="midnightblue" points="355.75,-324.9 345.61,-321.83 351.62,-330.56 355.75,-324.9"/>
</g>
<!-- Node12 -->
<g id="node12" class="node">
<title>Node12</title>
<g id="a_node12"><a xlink:href="_manifold_8hpp.html" target="_top" xlink:title="Data structures for manifolds.">
<polygon fill="white" stroke="black" points="474.5,-302.5 474.5,-321.5 554.5,-321.5 554.5,-302.5 474.5,-302.5"/>
<text text-anchor="middle" x="514.5" y="-309.5" font-family="Helvetica,sans-Serif" font-size="10.00">Manifold.hpp</text>
</a>
</g>
</g>
<!-- Node11&#45;&gt;Node12 -->
<g id="edge12" class="edge">
<title>Node11&#45;&gt;Node12</title>
<path fill="none" stroke="midnightblue" d="M424.69,-358.32C441.85,-349.66 468.45,-336.24 488.25,-326.25"/>
<polygon fill="midnightblue" stroke="midnightblue" points="490,-329.28 497.35,-321.65 486.85,-323.04 490,-329.28"/>
</g>
<!-- Node39 -->
<g id="node39" class="node">
<title>Node39</title>
<g id="a_node39"><a xlink:href="_move__tracker_8hpp.html" target="_top" xlink:title="Track ergodic moves.">
<polygon fill="white" stroke="black" points="418,-190.5 418,-209.5 521,-209.5 521,-190.5 418,-190.5"/>
<text text-anchor="middle" x="469.5" y="-197.5" font-family="Helvetica,sans-Serif" font-size="10.00">Move_tracker.hpp</text>
</a>
</g>
</g>
<!-- Node11&#45;&gt;Node39 -->
<g id="edge42" class="edge">
<title>Node11&#45;&gt;Node39</title>
<path fill="none" stroke="midnightblue" d="M407.14,-358.26C406.64,-337.58 407.46,-284.5 426.5,-246 432.15,-234.58 441.71,-224.13 450.39,-216.19"/>
<polygon fill="midnightblue" stroke="midnightblue" points="452.7,-218.82 457.97,-209.63 448.12,-213.52 452.7,-218.82"/>
</g>
<!-- Node13 -->
<g id="node13" class="node">
<title>Node13</title>
<g id="a_node13"><a xlink:title=" ">
<polygon fill="white" stroke="#bfbfbf" points="514,-134.5 514,-153.5 567,-153.5 567,-134.5 514,-134.5"/>
<text text-anchor="middle" x="540.5" y="-141.5" font-family="Helvetica,sans-Serif" font-size="10.00">cstddef</text>
</a>
</g>
</g>
<!-- Node12&#45;&gt;Node13 -->
<g id="edge13" class="edge">
<title>Node12&#45;&gt;Node13</title>
<path fill="none" stroke="midnightblue" d="M518.38,-302.23C522.16,-293.31 527.71,-278.97 530.5,-266 538.16,-230.41 540.04,-187.76 540.45,-163.78"/>
<polygon fill="midnightblue" stroke="midnightblue" points="543.95,-163.65 540.55,-153.62 536.95,-163.58 543.95,-163.65"/>
</g>
<!-- Node14 -->
<g id="node14" class="node">
<title>Node14</title>
<g id="a_node14"><a xlink:title=" ">
<polygon fill="white" stroke="#bfbfbf" points="435.5,-246.5 435.5,-265.5 521.5,-265.5 521.5,-246.5 435.5,-246.5"/>
<text text-anchor="middle" x="478.5" y="-253.5" font-family="Helvetica,sans-Serif" font-size="10.00">unordered_set</text>
</a>
</g>
</g>
<!-- Node12&#45;&gt;Node14 -->
<g id="edge14" class="edge">
<title>Node12&#45;&gt;Node14</title>
<path fill="none" stroke="midnightblue" d="M508.56,-302.08C503.52,-294.53 496.16,-283.49 489.99,-274.23"/>
<polygon fill="midnightblue" stroke="midnightblue" points="492.79,-272.13 484.33,-265.75 486.97,-276.01 492.79,-272.13"/>
</g>
<!-- Node15 -->
<g id="node15" class="node">
<title>Node15</title>
<g id="a_node15"><a xlink:href="_geometry_8hpp.html" target="_top" xlink:title="Geometric scalars of the Manifold used to calculate the Regge action.">
<polygon fill="white" stroke="black" points="592,-246.5 592,-265.5 677,-265.5 677,-246.5 592,-246.5"/>
<text text-anchor="middle" x="634.5" y="-253.5" font-family="Helvetica,sans-Serif" font-size="10.00">Geometry.hpp</text>
</a>
</g>
</g>
<!-- Node12&#45;&gt;Node15 -->
<g id="edge15" class="edge">
<title>Node12&#45;&gt;Node15</title>
<path fill="none" stroke="midnightblue" d="M533.51,-302.44C553.09,-293.64 583.81,-279.81 606.23,-269.72"/>
<polygon fill="midnightblue" stroke="midnightblue" points="607.89,-272.81 615.57,-265.52 605.02,-266.43 607.89,-272.81"/>
</g>
<!-- Node16 -->
<g id="node16" class="node">
<title>Node16</title>
<g id="a_node16"><a xlink:href="_foliated__triangulation_8hpp.html" target="_top" xlink:title="Create foliated spherical triangulations.">
<polygon fill="white" stroke="black" points="577.5,-190.5 577.5,-209.5 721.5,-209.5 721.5,-190.5 577.5,-190.5"/>
<text text-anchor="middle" x="649.5" y="-197.5" font-family="Helvetica,sans-Serif" font-size="10.00">Foliated_triangulation.hpp</text>
</a>
</g>
</g>
<!-- Node15&#45;&gt;Node16 -->
<g id="edge16" class="edge">
<title>Node15&#45;&gt;Node16</title>
<path fill="none" stroke="midnightblue" d="M636.98,-246.08C638.99,-238.85 641.89,-228.41 644.39,-219.4"/>
<polygon fill="midnightblue" stroke="midnightblue" points="647.76,-220.32 647.07,-209.75 641.02,-218.45 647.76,-220.32"/>
</g>
<!-- Node17 -->
<g id="node17" class="node">
<title>Node17</title>
<g id="a_node17"><a xlink:href="_triangulation__traits_8hpp.html" target="_top" xlink:title="Traits class for particular uses of CGAL.">
<polygon fill="white" stroke="black" points="1524,-134.5 1524,-153.5 1655,-153.5 1655,-134.5 1524,-134.5"/>
<text text-anchor="middle" x="1589.5" y="-141.5" font-family="Helvetica,sans-Serif" font-size="10.00">Triangulation_traits.hpp</text>
</a>
</g>
</g>
<!-- Node16&#45;&gt;Node17 -->
<g id="edge17" class="edge">
<title>Node16&#45;&gt;Node17</title>
<path fill="none" stroke="midnightblue" d="M721.7,-194.85C895.55,-184.86 1336.15,-159.55 1513.66,-149.36"/>
<polygon fill="midnightblue" stroke="midnightblue" points="1513.92,-152.85 1523.7,-148.78 1513.52,-145.86 1513.92,-152.85"/>
</g>
<!-- Node26 -->
<g id="node26" class="node">
<title>Node26</title>
<g id="a_node26"><a xlink:href="_utilities_8hpp.html" target="_top" xlink:title="Utility functions.">
<polygon fill="white" stroke="black" points="585.5,-134.5 585.5,-153.5 661.5,-153.5 661.5,-134.5 585.5,-134.5"/>
<text text-anchor="middle" x="623.5" y="-141.5" font-family="Helvetica,sans-Serif" font-size="10.00">Utilities.hpp</text>
</a>
</g>
</g>
<!-- Node16&#45;&gt;Node26 -->
<g id="edge26" class="edge">
<title>Node16&#45;&gt;Node26</title>
<path fill="none" stroke="midnightblue" d="M645.21,-190.08C641.65,-182.69 636.48,-171.95 632.08,-162.81"/>
<polygon fill="midnightblue" stroke="midnightblue" points="635.21,-161.24 627.71,-153.75 628.9,-164.28 635.21,-161.24"/>
</g>
<!-- Node18 -->
<g id="node18" class="node">
<title>Node18</title>
<g id="a_node18"><a xlink:title=" ">
<polygon fill="white" stroke="#bfbfbf" points="1326.5,-67.5 1326.5,-86.5 1506.5,-86.5 1506.5,-67.5 1326.5,-67.5"/>
<text text-anchor="middle" x="1416.5" y="-74.5" font-family="Helvetica,sans-Serif" font-size="10.00">CGAL/Delaunay_triangulation_3.h</text>
</a>
</g>
</g>
<!-- Node17&#45;&gt;Node18 -->
<g id="edge18" class="edge">
<title>Node17&#45;&gt;Node18</title>
<path fill="none" stroke="midnightblue" d="M1566.53,-134.37C1536.33,-123.02 1483.1,-103.02 1448.84,-90.15"/>
<polygon fill="midnightblue" stroke="midnightblue" points="1449.88,-86.8 1439.29,-86.56 1447.42,-93.36 1449.88,-86.8"/>
</g>
<!-- Node19 -->
<g id="node19" class="node">
<title>Node19</title>
<g id="a_node19"><a xlink:title=" ">
<polygon fill="white" stroke="#bfbfbf" points="1525,-56.5 1525,-97.5 1654,-97.5 1654,-56.5 1525,-56.5"/>
<text text-anchor="start" x="1533" y="-85.5" font-family="Helvetica,sans-Serif" font-size="10.00">CGAL/Exact_predicates</text>
<text text-anchor="start" x="1533" y="-74.5" font-family="Helvetica,sans-Serif" font-size="10.00">_inexact_constructions</text>
<text text-anchor="middle" x="1589.5" y="-63.5" font-family="Helvetica,sans-Serif" font-size="10.00">_kernel.h</text>
</a>
</g>
</g>
<!-- Node17&#45;&gt;Node19 -->
<g id="edge19" class="edge">
<title>Node17&#45;&gt;Node19</title>
<path fill="none" stroke="midnightblue" d="M1589.5,-134.23C1589.5,-127.36 1589.5,-117.38 1589.5,-107.73"/>
<polygon fill="midnightblue" stroke="midnightblue" points="1593,-107.54 1589.5,-97.54 1586,-107.54 1593,-107.54"/>
</g>
<!-- Node20 -->
<g id="node20" class="node">
<title>Node20</title>
<g id="a_node20"><a xlink:title=" ">
<polygon fill="white" stroke="#bfbfbf" points="1672,-67.5 1672,-86.5 1821,-86.5 1821,-67.5 1672,-67.5"/>
<text text-anchor="middle" x="1746.5" y="-74.5" font-family="Helvetica,sans-Serif" font-size="10.00">CGAL/point_generators_3.h</text>
</a>
</g>
</g>
<!-- Node17&#45;&gt;Node20 -->
<g id="edge20" class="edge">
<title>Node17&#45;&gt;Node20</title>
<path fill="none" stroke="midnightblue" d="M1610.35,-134.37C1637.44,-123.15 1684.96,-103.48 1716.08,-90.59"/>
<polygon fill="midnightblue" stroke="midnightblue" points="1717.66,-93.73 1725.57,-86.67 1714.99,-87.26 1717.66,-93.73"/>
</g>
<!-- Node21 -->
<g id="node21" class="node">
<title>Node21</title>
<g id="a_node21"><a xlink:title=" ">
<polygon fill="white" stroke="#bfbfbf" points="1839.5,-62 1839.5,-92 1977.5,-92 1977.5,-62 1839.5,-62"/>
<text text-anchor="start" x="1847.5" y="-80" font-family="Helvetica,sans-Serif" font-size="10.00">CGAL/Triangulation</text>
<text text-anchor="middle" x="1908.5" y="-69" font-family="Helvetica,sans-Serif" font-size="10.00">_cell_base_with_info_3.h</text>
</a>
</g>
</g>
<!-- Node17&#45;&gt;Node21 -->
<g id="edge21" class="edge">
<title>Node17&#45;&gt;Node21</title>
<path fill="none" stroke="midnightblue" d="M1640.48,-134.49C1689.39,-126.09 1765.25,-112.44 1830.5,-98 1835.49,-96.9 1840.65,-95.7 1845.82,-94.46"/>
<polygon fill="midnightblue" stroke="midnightblue" points="1846.86,-97.81 1855.75,-92.03 1845.2,-91.01 1846.86,-97.81"/>
</g>
<!-- Node22 -->
<g id="node22" class="node">
<title>Node22</title>
<g id="a_node22"><a xlink:title=" ">
<polygon fill="white" stroke="#bfbfbf" points="1995.5,-62 1995.5,-92 2147.5,-92 2147.5,-62 1995.5,-62"/>
<text text-anchor="start" x="2003.5" y="-80" font-family="Helvetica,sans-Serif" font-size="10.00">CGAL/Triangulation</text>
<text text-anchor="middle" x="2071.5" y="-69" font-family="Helvetica,sans-Serif" font-size="10.00">_vertex_base_with_info_3.h</text>
</a>
</g>
</g>
<!-- Node17&#45;&gt;Node22 -->
<g id="edge22" class="edge">
<title>Node17&#45;&gt;Node22</title>
<path fill="none" stroke="midnightblue" d="M1655.17,-137.95C1734.18,-131.32 1870.66,-118.12 1986.5,-98 1992.77,-96.91 1999.28,-95.64 2005.76,-94.28"/>
<polygon fill="midnightblue" stroke="midnightblue" points="2006.88,-97.62 2015.91,-92.07 2005.4,-90.78 2006.88,-97.62"/>
</g>
<!-- Node23 -->
<g id="node23" class="node">
<title>Node23</title>
<g id="a_node23"><a xlink:href="_settings_8hpp.html" target="_top" xlink:title="Global integer and precision settings.">
<polygon fill="white" stroke="black" points="1231,-67.5 1231,-86.5 1308,-86.5 1308,-67.5 1231,-67.5"/>
<text text-anchor="middle" x="1269.5" y="-74.5" font-family="Helvetica,sans-Serif" font-size="10.00">Settings.hpp</text>
</a>
</g>
</g>
<!-- Node17&#45;&gt;Node23 -->
<g id="edge23" class="edge">
<title>Node17&#45;&gt;Node23</title>
<path fill="none" stroke="midnightblue" d="M1523.99,-136.46C1468.31,-129.88 1386.63,-117.83 1317.5,-98 1310.62,-96.03 1303.4,-93.36 1296.71,-90.61"/>
<polygon fill="midnightblue" stroke="midnightblue" points="1297.95,-87.34 1287.38,-86.61 1295.19,-93.77 1297.95,-87.34"/>
</g>
<!-- Node24 -->
<g id="node24" class="node">
<title>Node24</title>
<g id="a_node24"><a xlink:title=" ">
<polygon fill="white" stroke="#bfbfbf" points="1142.5,-0.5 1142.5,-19.5 1282.5,-19.5 1282.5,-0.5 1142.5,-0.5"/>
<text text-anchor="middle" x="1212.5" y="-7.5" font-family="Helvetica,sans-Serif" font-size="10.00">CGAL/GMP/Gmpzf_type.h</text>
</a>
</g>
</g>
<!-- Node23&#45;&gt;Node24 -->
<g id="edge24" class="edge">
<title>Node23&#45;&gt;Node24</title>
<path fill="none" stroke="midnightblue" d="M1261.81,-67.23C1252.84,-57 1237.81,-39.86 1226.7,-27.19"/>
<polygon fill="midnightblue" stroke="midnightblue" points="1229.29,-24.84 1220.07,-19.63 1224.03,-29.45 1229.29,-24.84"/>
</g>
<!-- Node25 -->
<g id="node25" class="node">
<title>Node25</title>
<g id="a_node25"><a xlink:title=" ">
<polygon fill="white" stroke="#bfbfbf" points="1300.5,-0.5 1300.5,-19.5 1350.5,-19.5 1350.5,-0.5 1300.5,-0.5"/>
<text text-anchor="middle" x="1325.5" y="-7.5" font-family="Helvetica,sans-Serif" font-size="10.00">cstdint</text>
</a>
</g>
</g>
<!-- Node23&#45;&gt;Node25 -->
<g id="edge25" class="edge">
<title>Node23&#45;&gt;Node25</title>
<path fill="none" stroke="midnightblue" d="M1277.05,-67.23C1285.78,-57.1 1300.35,-40.19 1311.24,-27.56"/>
<polygon fill="midnightblue" stroke="midnightblue" points="1314.19,-29.49 1318.07,-19.63 1308.89,-24.92 1314.19,-29.49"/>
</g>
<!-- Node26&#45;&gt;Node7 -->
<g id="edge40" class="edge">
<title>Node26&#45;&gt;Node7</title>
<path fill="none" stroke="midnightblue" d="M585.31,-135.45C582,-134.91 578.69,-134.42 575.5,-134 366.47,-106.53 308.72,-141.85 102.5,-98 93.65,-96.12 84.29,-93.18 75.81,-90.13"/>
<polygon fill="midnightblue" stroke="midnightblue" points="76.93,-86.81 66.34,-86.55 74.46,-93.36 76.93,-86.81"/>
</g>
<!-- Node26&#45;&gt;Node8 -->
<g id="edge34" class="edge">
<title>Node26&#45;&gt;Node8</title>
<path fill="none" stroke="midnightblue" d="M585.3,-135.49C581.99,-134.94 578.69,-134.44 575.5,-134 393.84,-109.07 337.96,-157.45 164.5,-98 160.46,-96.61 156.42,-94.59 152.65,-92.36"/>
<polygon fill="midnightblue" stroke="midnightblue" points="154.28,-89.24 144.01,-86.62 150.4,-95.07 154.28,-89.24"/>
</g>
<!-- Node26&#45;&gt;Node23 -->
<g id="edge41" class="edge">
<title>Node26&#45;&gt;Node23</title>
<path fill="none" stroke="midnightblue" d="M661.7,-140.84C784.96,-133.75 1167.27,-110.98 1221.5,-98 1228.7,-96.28 1236.21,-93.61 1243.09,-90.77"/>
<polygon fill="midnightblue" stroke="midnightblue" points="1244.87,-93.82 1252.62,-86.6 1242.05,-87.41 1244.87,-93.82"/>
</g>
<!-- Node27 -->
<g id="node27" class="node">
<title>Node27</title>
<g id="a_node27"><a xlink:title=" ">
<polygon fill="white" stroke="#bfbfbf" points="938.5,-67.5 938.5,-86.5 1006.5,-86.5 1006.5,-67.5 938.5,-67.5"/>
<text text-anchor="middle" x="972.5" y="-74.5" font-family="Helvetica,sans-Serif" font-size="10.00">filesystem</text>
</a>
</g>
</g>
<!-- Node26&#45;&gt;Node27 -->
<g id="edge27" class="edge">
<title>Node26&#45;&gt;Node27</title>
<path fill="none" stroke="midnightblue" d="M661.8,-140.8C720.32,-136.66 835.06,-125.53 928.5,-98 934.84,-96.13 941.44,-93.52 947.55,-90.8"/>
<polygon fill="midnightblue" stroke="midnightblue" points="949.06,-93.95 956.62,-86.53 946.08,-87.62 949.06,-93.95"/>
</g>
<!-- Node28 -->
<g id="node28" class="node">
<title>Node28</title>
<g id="a_node28"><a xlink:title=" ">
<polygon fill="white" stroke="#bfbfbf" points="1025,-67.5 1025,-86.5 1080,-86.5 1080,-67.5 1025,-67.5"/>
<text text-anchor="middle" x="1052.5" y="-74.5" font-family="Helvetica,sans-Serif" font-size="10.00">fstream</text>
</a>
</g>
</g>
<!-- Node26&#45;&gt;Node28 -->
<g id="edge28" class="edge">
<title>Node26&#45;&gt;Node28</title>
<path fill="none" stroke="midnightblue" d="M661.55,-140.48C746.64,-134.54 949.99,-118.62 1015.5,-98 1020.68,-96.37 1025.97,-94 1030.87,-91.46"/>
<polygon fill="midnightblue" stroke="midnightblue" points="1032.68,-94.45 1039.68,-86.5 1029.25,-88.35 1032.68,-94.45"/>
</g>
<!-- Node29 -->
<g id="node29" class="node">
<title>Node29</title>
<g id="a_node29"><a xlink:title=" ">
<polygon fill="white" stroke="#bfbfbf" points="1098.5,-67.5 1098.5,-86.5 1146.5,-86.5 1146.5,-67.5 1098.5,-67.5"/>
<text text-anchor="middle" x="1122.5" y="-74.5" font-family="Helvetica,sans-Serif" font-size="10.00">gsl/gsl</text>
</a>
</g>
</g>
<!-- Node26&#45;&gt;Node29 -->
<g id="edge29" class="edge">
<title>Node26&#45;&gt;Node29</title>
<path fill="none" stroke="midnightblue" d="M661.85,-141.49C758.56,-137.35 1010.34,-124.28 1089.5,-98 1093.98,-96.51 1098.5,-94.32 1102.7,-91.94"/>
<polygon fill="midnightblue" stroke="midnightblue" points="1104.61,-94.87 1111.22,-86.59 1100.89,-88.94 1104.61,-94.87"/>
</g>
<!-- Node30 -->
<g id="node30" class="node">
<title>Node30</title>
<g id="a_node30"><a xlink:title=" ">
<polygon fill="white" stroke="#bfbfbf" points="1164.5,-67.5 1164.5,-86.5 1212.5,-86.5 1212.5,-67.5 1164.5,-67.5"/>
<text text-anchor="middle" x="1188.5" y="-74.5" font-family="Helvetica,sans-Serif" font-size="10.00">mutex</text>
</a>
</g>
</g>
<!-- Node26&#45;&gt;Node30 -->
<g id="edge30" class="edge">
<title>Node26&#45;&gt;Node30</title>
<path fill="none" stroke="midnightblue" d="M661.51,-140.79C775.39,-134.04 1108.84,-113.18 1155.5,-98 1159.99,-96.54 1164.52,-94.36 1168.71,-91.98"/>
<polygon fill="midnightblue" stroke="midnightblue" points="1170.63,-94.91 1177.23,-86.62 1166.9,-88.98 1170.63,-94.91"/>
</g>
<!-- Node31 -->
<g id="node31" class="node">
<title>Node31</title>
<g id="a_node31"><a xlink:title=" ">
<polygon fill="white" stroke="#bfbfbf" points="231.5,-67.5 231.5,-86.5 285.5,-86.5 285.5,-67.5 231.5,-67.5"/>
<text text-anchor="middle" x="258.5" y="-74.5" font-family="Helvetica,sans-Serif" font-size="10.00">random</text>
</a>
</g>
</g>
<!-- Node26&#45;&gt;Node31 -->
<g id="edge31" class="edge">
<title>Node26&#45;&gt;Node31</title>
<path fill="none" stroke="midnightblue" d="M585.28,-135.63C581.98,-135.05 578.68,-134.5 575.5,-134 451.13,-114.39 414.13,-137.28 294.5,-98 289.66,-96.41 284.73,-94.16 280.12,-91.73"/>
<polygon fill="midnightblue" stroke="midnightblue" points="281.7,-88.6 271.28,-86.67 278.22,-94.68 281.7,-88.6"/>
</g>
<!-- Node32 -->
<g id="node32" class="node">
<title>Node32</title>
<g id="a_node32"><a xlink:title=" ">
<polygon fill="white" stroke="#bfbfbf" points="173.5,-67.5 173.5,-86.5 213.5,-86.5 213.5,-67.5 173.5,-67.5"/>
<text text-anchor="middle" x="193.5" y="-74.5" font-family="Helvetica,sans-Serif" font-size="10.00">span</text>
</a>
</g>
</g>
<!-- Node26&#45;&gt;Node32 -->
<g id="edge32" class="edge">
<title>Node26&#45;&gt;Node32</title>
<path fill="none" stroke="midnightblue" d="M585.3,-135.54C581.99,-134.98 578.69,-134.46 575.5,-134 419.42,-111.45 370.5,-152.47 222.5,-98 218.78,-96.63 215.08,-94.67 211.64,-92.51"/>
<polygon fill="midnightblue" stroke="midnightblue" points="213.45,-89.5 203.26,-86.58 209.4,-95.22 213.45,-89.5"/>
</g>
<!-- Node33 -->
<g id="node33" class="node">
<title>Node33</title>
<g id="a_node33"><a xlink:title=" ">
<polygon fill="white" stroke="#bfbfbf" points="304,-67.5 304,-86.5 369,-86.5 369,-67.5 304,-67.5"/>
<text text-anchor="middle" x="336.5" y="-74.5" font-family="Helvetica,sans-Serif" font-size="10.00">stdexcept</text>
</a>
</g>
</g>
<!-- Node26&#45;&gt;Node33 -->
<g id="edge33" class="edge">
<title>Node26&#45;&gt;Node33</title>
<path fill="none" stroke="midnightblue" d="M585.25,-135.81C581.95,-135.19 578.67,-134.59 575.5,-134 487.54,-117.76 462.49,-125.87 377.5,-98 371.95,-96.18 366.19,-93.75 360.81,-91.21"/>
<polygon fill="midnightblue" stroke="midnightblue" points="362.17,-87.97 351.66,-86.63 359.04,-94.23 362.17,-87.97"/>
</g>
<!-- Node34 -->
<g id="node34" class="node">
<title>Node34</title>
<g id="a_node34"><a xlink:title=" ">
<polygon fill="white" stroke="#bfbfbf" points="387,-67.5 387,-86.5 446,-86.5 446,-67.5 387,-67.5"/>
<text text-anchor="middle" x="416.5" y="-74.5" font-family="Helvetica,sans-Serif" font-size="10.00">date/tz.h</text>
</a>
</g>
</g>
<!-- Node26&#45;&gt;Node34 -->
<g id="edge35" class="edge">
<title>Node26&#45;&gt;Node34</title>
<path fill="none" stroke="midnightblue" d="M585.41,-135.22C550.87,-127.61 498.89,-114.72 455.5,-98 450.48,-96.07 445.26,-93.68 440.33,-91.23"/>
<polygon fill="midnightblue" stroke="midnightblue" points="441.83,-88.06 431.34,-86.55 438.6,-94.27 441.83,-88.06"/>
</g>
<!-- Node35 -->
<g id="node35" class="node">
<title>Node35</title>
<g id="a_node35"><a xlink:title=" ">
<polygon fill="white" stroke="#bfbfbf" points="464.5,-67.5 464.5,-86.5 562.5,-86.5 562.5,-67.5 464.5,-67.5"/>
<text text-anchor="middle" x="513.5" y="-74.5" font-family="Helvetica,sans-Serif" font-size="10.00">pcg_random.hpp</text>
</a>
</g>
</g>
<!-- Node26&#45;&gt;Node35 -->
<g id="edge36" class="edge">
<title>Node26&#45;&gt;Node35</title>
<path fill="none" stroke="midnightblue" d="M608.66,-134.23C590.19,-123.32 558.43,-104.55 536.72,-91.72"/>
<polygon fill="midnightblue" stroke="midnightblue" points="538.49,-88.7 528.1,-86.63 534.93,-94.73 538.49,-88.7"/>
</g>
<!-- Node36 -->
<g id="node36" class="node">
<title>Node36</title>
<g id="a_node36"><a xlink:title=" ">
<polygon fill="white" stroke="#bfbfbf" points="580.5,-67.5 580.5,-86.5 666.5,-86.5 666.5,-67.5 580.5,-67.5"/>
<text text-anchor="middle" x="623.5" y="-74.5" font-family="Helvetica,sans-Serif" font-size="10.00">fmt/ostream.h</text>
</a>
</g>
</g>
<!-- Node26&#45;&gt;Node36 -->
<g id="edge37" class="edge">
<title>Node26&#45;&gt;Node36</title>
<path fill="none" stroke="midnightblue" d="M623.5,-134.23C623.5,-124.68 623.5,-109.12 623.5,-96.78"/>
<polygon fill="midnightblue" stroke="midnightblue" points="627,-96.63 623.5,-86.63 620,-96.63 627,-96.63"/>
</g>
<!-- Node37 -->
<g id="node37" class="node">
<title>Node37</title>
<g id="a_node37"><a xlink:title=" ">
<polygon fill="white" stroke="#bfbfbf" points="684.5,-62 684.5,-92 790.5,-92 790.5,-62 684.5,-62"/>
<text text-anchor="start" x="692.5" y="-80" font-family="Helvetica,sans-Serif" font-size="10.00">spdlog/sinks/basic</text>
<text text-anchor="middle" x="737.5" y="-69" font-family="Helvetica,sans-Serif" font-size="10.00">_file_sink.h</text>
</a>
</g>
</g>
<!-- Node26&#45;&gt;Node37 -->
<g id="edge38" class="edge">
<title>Node26&#45;&gt;Node37</title>
<path fill="none" stroke="midnightblue" d="M638.87,-134.23C655.47,-124.77 682.4,-109.41 703.94,-97.14"/>
<polygon fill="midnightblue" stroke="midnightblue" points="705.84,-100.08 712.79,-92.09 702.37,-94 705.84,-100.08"/>
</g>
<!-- Node38 -->
<g id="node38" class="node">
<title>Node38</title>
<g id="a_node38"><a xlink:title=" ">
<polygon fill="white" stroke="#bfbfbf" points="809,-62 809,-92 920,-92 920,-62 809,-62"/>
<text text-anchor="start" x="817" y="-80" font-family="Helvetica,sans-Serif" font-size="10.00">spdlog/sinks/stdout</text>
<text text-anchor="middle" x="864.5" y="-69" font-family="Helvetica,sans-Serif" font-size="10.00">_color_sinks.h</text>
</a>
</g>
</g>
<!-- Node26&#45;&gt;Node38 -->
<g id="edge39" class="edge">
<title>Node26&#45;&gt;Node38</title>
<path fill="none" stroke="midnightblue" d="M659.03,-134.45C694.67,-125.75 751.08,-111.63 799.5,-98 803,-97.01 806.6,-95.98 810.23,-94.91"/>
<polygon fill="midnightblue" stroke="midnightblue" points="811.24,-98.26 819.83,-92.06 809.24,-91.55 811.24,-98.26"/>
</g>
<!-- Node39&#45;&gt;Node13 -->
<g id="edge44" class="edge">
<title>Node39&#45;&gt;Node13</title>
<path fill="none" stroke="midnightblue" d="M480.91,-190.32C491.61,-182.18 507.84,-169.84 520.66,-160.09"/>
<polygon fill="midnightblue" stroke="midnightblue" points="523.04,-162.67 528.89,-153.83 518.81,-157.1 523.04,-162.67"/>
</g>
<!-- Node39&#45;&gt;Node23 -->
<g id="edge47" class="edge">
<title>Node39&#45;&gt;Node23</title>
<path fill="none" stroke="midnightblue" d="M521.13,-192.86C679.83,-173.87 1153.91,-116.28 1221.5,-98 1228.53,-96.1 1235.89,-93.41 1242.68,-90.62"/>
<polygon fill="midnightblue" stroke="midnightblue" points="1244.32,-93.73 1252.11,-86.54 1241.54,-87.3 1244.32,-93.73"/>
</g>
<!-- Node39&#45;&gt;Node26 -->
<g id="edge48" class="edge">
<title>Node39&#45;&gt;Node26</title>
<path fill="none" stroke="midnightblue" d="M493.9,-190.44C519.7,-181.4 560.58,-167.06 589.52,-156.92"/>
<polygon fill="midnightblue" stroke="midnightblue" points="590.93,-160.13 599.21,-153.52 588.62,-153.52 590.93,-160.13"/>
</g>
<!-- Node39&#45;&gt;Node32 -->
<g id="edge46" class="edge">
<title>Node39&#45;&gt;Node32</title>
<path fill="none" stroke="midnightblue" d="M443.42,-190.43C397.44,-174.86 299.51,-139.67 222.5,-98 219.34,-96.29 216.1,-94.31 212.99,-92.27"/>
<polygon fill="midnightblue" stroke="midnightblue" points="214.93,-89.36 204.71,-86.57 210.96,-95.13 214.93,-89.36"/>
</g>
<!-- Node40 -->
<g id="node40" class="node">
<title>Node40</title>
<g id="a_node40"><a xlink:title=" ">
<polygon fill="white" stroke="#bfbfbf" points="385.5,-134.5 385.5,-153.5 427.5,-153.5 427.5,-134.5 385.5,-134.5"/>
<text text-anchor="middle" x="406.5" y="-141.5" font-family="Helvetica,sans-Serif" font-size="10.00">array</text>
</a>
</g>
</g>
<!-- Node39&#45;&gt;Node40 -->
<g id="edge43" class="edge">
<title>Node39&#45;&gt;Node40</title>
<path fill="none" stroke="midnightblue" d="M459.38,-190.32C449.97,-182.26 435.76,-170.08 424.43,-160.37"/>
<polygon fill="midnightblue" stroke="midnightblue" points="426.68,-157.68 416.81,-153.83 422.12,-163 426.68,-157.68"/>
</g>
<!-- Node41 -->
<g id="node41" class="node">
<title>Node41</title>
<g id="a_node41"><a xlink:title=" ">
<polygon fill="white" stroke="#bfbfbf" points="445.5,-134.5 445.5,-153.5 495.5,-153.5 495.5,-134.5 445.5,-134.5"/>
<text text-anchor="middle" x="470.5" y="-141.5" font-family="Helvetica,sans-Serif" font-size="10.00">gsl/util</text>
</a>
</g>
</g>
<!-- Node39&#45;&gt;Node41 -->
<g id="edge45" class="edge">
<title>Node39&#45;&gt;Node41</title>
<path fill="none" stroke="midnightblue" d="M469.67,-190.08C469.8,-183.01 469.98,-172.86 470.15,-163.99"/>
<polygon fill="midnightblue" stroke="midnightblue" points="473.65,-163.81 470.34,-153.75 466.65,-163.68 473.65,-163.81"/>
</g>
<!-- Node43&#45;&gt;Node23 -->
<g id="edge52" class="edge">
<title>Node43&#45;&gt;Node23</title>
<path fill="none" stroke="midnightblue" d="M1009.5,-414.44C1009.5,-395.94 1009.5,-350.81 1009.5,-313 1009.5,-313 1009.5,-313 1009.5,-199 1009.5,-192.68 1173.01,-120.29 1240.7,-90.59"/>
<polygon fill="midnightblue" stroke="midnightblue" points="1242.2,-93.75 1249.96,-86.53 1239.39,-87.34 1242.2,-93.75"/>
</g>
<!-- Node44 -->
<g id="node44" class="node">
<title>Node44</title>
<g id="a_node44"><a xlink:title=" ">
<polygon fill="white" stroke="#bfbfbf" points="1037.5,-358.5 1037.5,-377.5 1085.5,-377.5 1085.5,-358.5 1037.5,-358.5"/>
<text text-anchor="middle" x="1061.5" y="-365.5" font-family="Helvetica,sans-Serif" font-size="10.00">mpfr.h</text>
</a>
</g>
</g>
<!-- Node43&#45;&gt;Node44 -->
<g id="edge51" class="edge">
<title>Node43&#45;&gt;Node44</title>
<path fill="none" stroke="midnightblue" d="M1018.09,-414.08C1025.66,-406.22 1036.88,-394.57 1046.01,-385.08"/>
<polygon fill="midnightblue" stroke="midnightblue" points="1048.66,-387.38 1053.07,-377.75 1043.62,-382.53 1048.66,-387.38"/>
</g>
</g>
</svg>
        <g id="navigator" transform="translate(0 0)" fill="#404254">
                <rect fill="#f2f5e9" fill-opacity="0.5" stroke="#606060" stroke-width=".5" x="0" y="0" width="60" height="60"/>
                <use id="zoomplus" xlink:href="#zoomPlus" x="17" y="9" onmousedown="handleZoom(evt,'in')"/>
                <use id="zoomminus" xlink:href="#zoomMin" x="42" y="9" onmousedown="handleZoom(evt,'out')"/>
                <use id="reset" xlink:href="#resetDef" x="30" y="36" onmousedown="handleReset()"/>
                <g id="arrowUp" xlink:href="#dirArrow" transform="translate(30 24)" onmousedown="handlePan(0,-1)">
                  <use xlink:href="#rim" fill="#404040">
                        <set attributeName="fill" to="#808080" begin="arrowUp.mouseover" end="arrowUp.mouseout"/>
                  </use>
                  <path fill="none" stroke="white" stroke-width="1.5" d="M0,-3.0v7 M-2.5,-0.5L0,-3.0L2.5,-0.5"/>
                </g>
                <g id="arrowRight" xlink:href="#dirArrow" transform="rotate(90) translate(36 -43)" onmousedown="handlePan(1,0)">
                  <use xlink:href="#rim" fill="#404040">
                        <set attributeName="fill" to="#808080" begin="arrowRight.mouseover" end="arrowRight.mouseout"/>
                  </use>
                  <path fill="none" stroke="white" stroke-width="1.5" d="M0,-3.0v7 M-2.5,-0.5L0,-3.0L2.5,-0.5"/>
                </g>
                <g id="arrowDown" xlink:href="#dirArrow" transform="rotate(180) translate(-30 -48)" onmousedown="handlePan(0,1)">
                  <use xlink:href="#rim" fill="#404040">
                        <set attributeName="fill" to="#808080" begin="arrowDown.mouseover" end="arrowDown.mouseout"/>
                  </use>
                  <path fill="none" stroke="white" stroke-width="1.5" d="M0,-3.0v7 M-2.5,-0.5L0,-3.0L2.5,-0.5"/>
                </g>
                <g id="arrowLeft" xlink:href="#dirArrow" transform="rotate(270) translate(-36 17)" onmousedown="handlePan(-1,0)">
                  <use xlink:href="#rim" fill="#404040">
                        <set attributeName="fill" to="#808080" begin="arrowLeft.mouseover" end="arrowLeft.mouseout"/>
                  </use>
                  <path fill="none" stroke="white" stroke-width="1.5" d="M0,-3.0v7 M-2.5,-0.5L0,-3.0L2.5,-0.5"/>
                </g>
        </g>
        <svg viewBox="0 0 15 15" width="100%" height="30px" preserveAspectRatio="xMaxYMin meet">
         <g id="arrow_out" transform="scale(0.3 0.3)">
          <a xlink:href="cdt_8cpp__incl_org.svg" target="_base">
           <rect id="button" ry="5" rx="5" y="6" x="6" height="38" width="38"
                fill="#f2f5e9" fill-opacity="0.5" stroke="#606060" stroke-width="1.0"/>
           <path id="arrow"
             d="M 11.500037,31.436501 C 11.940474,20.09759 22.043105,11.32322 32.158766,21.979434 L 37.068811,17.246167 C 37.068811,17.246167 37.088388,32 37.088388,32 L 22.160133,31.978069 C 22.160133,31.978069 26.997745,27.140456 26.997745,27.140456 C 18.528582,18.264221 13.291696,25.230495 11.500037,31.436501 z"
             style="fill:#404040;"/>
          </a>
         </g>
        </svg>
</svg>
