<?xml version="1.0" encoding="UTF-8" standalone="no"?>
<!DOCTYPE svg PUBLIC "-//W3C//DTD SVG 1.1//EN"
 "http://www.w3.org/Graphics/SVG/1.1/DTD/svg11.dtd">
<!-- Generated by graphviz version 2.43.0 (0)
 -->
<!-- Title: src/cdt.cpp Pages: 1 -->
<svg width="2065pt" height="599pt"
 viewBox="0.00 0.00 2064.50 599.00" xmlns="http://www.w3.org/2000/svg" xmlns:xlink="http://www.w3.org/1999/xlink">
<g id="graph0" class="graph" transform="scale(1 1) rotate(0) translate(4 595)">
<title>src/cdt.cpp</title>
<polygon fill="white" stroke="transparent" points="-4,4 -4,-595 2060.5,-595 2060.5,4 -4,4"/>
<!-- Node1 -->
<g id="node1" class="node">
<title>Node1</title>
<g id="a_node1"><a xlink:title="The main executable.">
<polygon fill="#bfbfbf" stroke="black" points="937,-571.5 937,-590.5 1006,-590.5 1006,-571.5 937,-571.5"/>
<text text-anchor="middle" x="971.5" y="-578.5" font-family="Helvetica,sans-Serif" font-size="10.00">src/cdt.cpp</text>
</a>
</g>
</g>
<!-- Node2 -->
<g id="node2" class="node">
<title>Node2</title>
<g id="a_node2"><a xlink:title=" ">
<polygon fill="white" stroke="#bfbfbf" points="817,-515.5 817,-534.5 924,-534.5 924,-515.5 817,-515.5"/>
<text text-anchor="middle" x="870.5" y="-522.5" font-family="Helvetica,sans-Serif" font-size="10.00">CGAL/Real_timer.h</text>
</a>
</g>
</g>
<!-- Node1&#45;&gt;Node2 -->
<g id="edge1" class="edge">
<title>Node1&#45;&gt;Node2</title>
<path fill="none" stroke="midnightblue" d="M955.27,-571.32C939.15,-562.7 914.2,-549.36 895.54,-539.39"/>
<polygon fill="midnightblue" stroke="midnightblue" points="897.16,-536.28 886.69,-534.65 893.86,-542.46 897.16,-536.28"/>
</g>
<!-- Node3 -->
<g id="node3" class="node">
<title>Node3</title>
<g id="a_node3"><a xlink:title=" ">
<polygon fill="white" stroke="#bfbfbf" points="942,-515.5 942,-534.5 1001,-534.5 1001,-515.5 942,-515.5"/>
<text text-anchor="middle" x="971.5" y="-522.5" font-family="Helvetica,sans-Serif" font-size="10.00">docopt.h</text>
</a>
</g>
</g>
<!-- Node1&#45;&gt;Node3 -->
<g id="edge2" class="edge">
<title>Node1&#45;&gt;Node3</title>
<path fill="none" stroke="midnightblue" d="M971.5,-571.08C971.5,-564.01 971.5,-553.86 971.5,-544.99"/>
<polygon fill="midnightblue" stroke="midnightblue" points="975,-544.75 971.5,-534.75 968,-544.75 975,-544.75"/>
</g>
<!-- Node4 -->
<g id="node4" class="node">
<title>Node4</title>
<g id="a_node4"><a xlink:href="_metropolis_8hpp.html" target="_top" xlink:title="Perform Metropolis&#45;Hastings algorithm on Delaunay Triangulations.">
<polygon fill="white" stroke="black" points="1019,-515.5 1019,-534.5 1108,-534.5 1108,-515.5 1019,-515.5"/>
<text text-anchor="middle" x="1063.5" y="-522.5" font-family="Helvetica,sans-Serif" font-size="10.00">Metropolis.hpp</text>
</a>
</g>
</g>
<!-- Node1&#45;&gt;Node4 -->
<g id="edge3" class="edge">
<title>Node1&#45;&gt;Node4</title>
<path fill="none" stroke="midnightblue" d="M986.28,-571.32C1000.77,-562.82 1023.07,-549.73 1039.99,-539.8"/>
<polygon fill="midnightblue" stroke="midnightblue" points="1041.9,-542.74 1048.76,-534.65 1038.36,-536.7 1041.9,-542.74"/>
</g>
<!-- Node5 -->
<g id="node5" class="node">
<title>Node5</title>
<g id="a_node5"><a xlink:href="_move__strategy_8hpp.html" target="_top" xlink:title="Template class for move algorithms (strategies) on manifolds.">
<polygon fill="white" stroke="black" points="816,-459.5 816,-478.5 925,-478.5 925,-459.5 816,-459.5"/>
<text text-anchor="middle" x="870.5" y="-466.5" font-family="Helvetica,sans-Serif" font-size="10.00">Move_strategy.hpp</text>
</a>
</g>
</g>
<!-- Node4&#45;&gt;Node5 -->
<g id="edge4" class="edge">
<title>Node4&#45;&gt;Node5</title>
<path fill="none" stroke="midnightblue" d="M1032.92,-515.44C999.89,-506.2 947.11,-491.44 910.73,-481.26"/>
<polygon fill="midnightblue" stroke="midnightblue" points="911.51,-477.84 900.94,-478.52 909.63,-484.58 911.51,-477.84"/>
</g>
<!-- Node53 -->
<g id="node49" class="node">
<title>Node53</title>
<g id="a_node49"><a xlink:href="_s3_action_8hpp.html" target="_top" xlink:title="Calculate S3 bulk actions on 3D Delaunay Triangulations.">
<polygon fill="white" stroke="black" points="1217.5,-459.5 1217.5,-478.5 1297.5,-478.5 1297.5,-459.5 1217.5,-459.5"/>
<text text-anchor="middle" x="1257.5" y="-466.5" font-family="Helvetica,sans-Serif" font-size="10.00">S3Action.hpp</text>
</a>
</g>
</g>
<!-- Node4&#45;&gt;Node53 -->
<g id="edge56" class="edge">
<title>Node4&#45;&gt;Node53</title>
<path fill="none" stroke="midnightblue" d="M1094.24,-515.44C1127.44,-506.2 1180.49,-491.44 1217.06,-481.26"/>
<polygon fill="midnightblue" stroke="midnightblue" points="1218.21,-484.57 1226.9,-478.52 1216.33,-477.83 1218.21,-484.57"/>
</g>
<!-- Node6 -->
<g id="node6" class="node">
<title>Node6</title>
<g id="a_node6"><a xlink:href="_move__command_8hpp.html" target="_top" xlink:title="Do ergodic moves using the Command pattern.">
<polygon fill="white" stroke="black" points="712,-403.5 712,-422.5 831,-422.5 831,-403.5 712,-403.5"/>
<text text-anchor="middle" x="771.5" y="-410.5" font-family="Helvetica,sans-Serif" font-size="10.00">Move_command.hpp</text>
</a>
</g>
</g>
<!-- Node5&#45;&gt;Node6 -->
<g id="edge5" class="edge">
<title>Node5&#45;&gt;Node6</title>
<path fill="none" stroke="midnightblue" d="M854.59,-459.32C838.86,-450.74 814.56,-437.49 796.29,-427.52"/>
<polygon fill="midnightblue" stroke="midnightblue" points="797.82,-424.37 787.37,-422.65 794.47,-430.52 797.82,-424.37"/>
</g>
<!-- Node7 -->
<g id="node7" class="node">
<title>Node7</title>
<g id="a_node7"><a xlink:href="_apply__move_8hpp.html" target="_top" xlink:title="Apply Pachner moves to foliated Delaunay triangulations.">
<polygon fill="white" stroke="black" points="197.5,-347.5 197.5,-366.5 295.5,-366.5 295.5,-347.5 197.5,-347.5"/>
<text text-anchor="middle" x="246.5" y="-354.5" font-family="Helvetica,sans-Serif" font-size="10.00">Apply_move.hpp</text>
</a>
</g>
</g>
<!-- Node6&#45;&gt;Node7 -->
<g id="edge6" class="edge">
<title>Node6&#45;&gt;Node7</title>
<path fill="none" stroke="midnightblue" d="M711.79,-405.86C610.58,-395.45 406.56,-374.46 305.7,-364.09"/>
<polygon fill="midnightblue" stroke="midnightblue" points="305.99,-360.6 295.68,-363.06 305.27,-367.56 305.99,-360.6"/>
</g>
<!-- Node13 -->
<g id="node13" class="node">
<title>Node13</title>
<g id="a_node13"><a xlink:href="_ergodic__moves__3_8hpp.html" target="_top" xlink:title="Pachner moves on 2+1 dimensional foliated Delaunay triangulations.">
<polygon fill="white" stroke="black" points="710,-347.5 710,-366.5 833,-366.5 833,-347.5 710,-347.5"/>
<text text-anchor="middle" x="771.5" y="-354.5" font-family="Helvetica,sans-Serif" font-size="10.00">Ergodic_moves_3.hpp</text>
</a>
</g>
</g>
<!-- Node6&#45;&gt;Node13 -->
<g id="edge12" class="edge">
<title>Node6&#45;&gt;Node13</title>
<path fill="none" stroke="midnightblue" d="M771.5,-403.08C771.5,-396.01 771.5,-385.86 771.5,-376.99"/>
<polygon fill="midnightblue" stroke="midnightblue" points="775,-376.75 771.5,-366.75 768,-376.75 775,-376.75"/>
</g>
<!-- Node8 -->
<g id="node8" class="node">
<title>Node8</title>
<g id="a_node8"><a xlink:title=" ">
<polygon fill="white" stroke="#bfbfbf" points="0,-62 0,-81 93,-81 93,-62 0,-62"/>
<text text-anchor="middle" x="46.5" y="-69" font-family="Helvetica,sans-Serif" font-size="10.00">spdlog/spdlog.h</text>
</a>
</g>
</g>
<!-- Node7&#45;&gt;Node8 -->
<g id="edge7" class="edge">
<title>Node7&#45;&gt;Node8</title>
<path fill="none" stroke="midnightblue" d="M243.94,-347.25C238.75,-328.74 227.5,-284.18 227.5,-246 227.5,-246 227.5,-246 227.5,-188 227.5,-152.81 129.02,-106.69 77.34,-84.91"/>
<polygon fill="midnightblue" stroke="midnightblue" points="78.55,-81.62 67.97,-81.02 75.86,-88.09 78.55,-81.62"/>
</g>
<!-- Node9 -->
<g id="node9" class="node">
<title>Node9</title>
<g id="a_node9"><a xlink:title=" ">
<polygon fill="white" stroke="#bfbfbf" points="11,-291.5 11,-310.5 76,-310.5 76,-291.5 11,-291.5"/>
<text text-anchor="middle" x="43.5" y="-298.5" font-family="Helvetica,sans-Serif" font-size="10.00">functional</text>
</a>
</g>
</g>
<!-- Node7&#45;&gt;Node9 -->
<g id="edge8" class="edge">
<title>Node7&#45;&gt;Node9</title>
<path fill="none" stroke="midnightblue" d="M214.33,-347.44C179.44,-338.16 123.61,-323.31 85.33,-313.13"/>
<polygon fill="midnightblue" stroke="midnightblue" points="86.08,-309.7 75.52,-310.52 84.28,-316.47 86.08,-309.7"/>
</g>
<!-- Node10 -->
<g id="node10" class="node">
<title>Node10</title>
<g id="a_node10"><a xlink:title=" ">
<polygon fill="white" stroke="#bfbfbf" points="111.5,-62 111.5,-81 155.5,-81 155.5,-62 111.5,-62"/>
<text text-anchor="middle" x="133.5" y="-69" font-family="Helvetica,sans-Serif" font-size="10.00">string</text>
</a>
</g>
</g>
<!-- Node7&#45;&gt;Node10 -->
<g id="edge9" class="edge">
<title>Node7&#45;&gt;Node10</title>
<path fill="none" stroke="midnightblue" d="M249.06,-347.25C254.25,-328.74 265.5,-284.18 265.5,-246 265.5,-246 265.5,-246 265.5,-188 265.5,-157.2 262.35,-145.67 241.5,-123 241.5,-123 193.15,-100.39 161.15,-85.43"/>
<polygon fill="midnightblue" stroke="midnightblue" points="162.36,-82.13 151.82,-81.07 159.4,-88.47 162.36,-82.13"/>
</g>
<!-- Node11 -->
<g id="node11" class="node">
<title>Node11</title>
<g id="a_node11"><a xlink:title=" ">
<polygon fill="white" stroke="#bfbfbf" points="425.5,-291.5 425.5,-310.5 517.5,-310.5 517.5,-291.5 425.5,-291.5"/>
<text text-anchor="middle" x="471.5" y="-298.5" font-family="Helvetica,sans-Serif" font-size="10.00">tl/expected.hpp</text>
</a>
</g>
</g>
<!-- Node7&#45;&gt;Node11 -->
<g id="edge10" class="edge">
<title>Node7&#45;&gt;Node11</title>
<path fill="none" stroke="midnightblue" d="M282.15,-347.44C321.16,-338.08 383.77,-323.06 426.22,-312.87"/>
<polygon fill="midnightblue" stroke="midnightblue" points="427.11,-316.25 436.01,-310.52 425.47,-309.45 427.11,-316.25"/>
</g>
<!-- Node12 -->
<g id="node12" class="node">
<title>Node12</title>
<g id="a_node12"><a xlink:title=" ">
<polygon fill="white" stroke="#bfbfbf" points="94,-291.5 94,-310.5 199,-310.5 199,-291.5 94,-291.5"/>
<text text-anchor="middle" x="146.5" y="-298.5" font-family="Helvetica,sans-Serif" font-size="10.00">tl/function_ref.hpp</text>
</a>
</g>
</g>
<!-- Node7&#45;&gt;Node12 -->
<g id="edge11" class="edge">
<title>Node7&#45;&gt;Node12</title>
<path fill="none" stroke="midnightblue" d="M230.43,-347.32C214.54,-338.74 189.99,-325.49 171.54,-315.52"/>
<polygon fill="midnightblue" stroke="midnightblue" points="172.99,-312.33 162.53,-310.65 169.66,-318.49 172.99,-312.33"/>
</g>
<!-- Node13&#45;&gt;Node11 -->
<g id="edge13" class="edge">
<title>Node13&#45;&gt;Node11</title>
<path fill="none" stroke="midnightblue" d="M723.96,-347.44C670.66,-337.85 584.29,-322.3 527.69,-312.11"/>
<polygon fill="midnightblue" stroke="midnightblue" points="528.29,-308.67 517.83,-310.34 527.05,-315.56 528.29,-308.67"/>
</g>
<!-- Node14 -->
<g id="node14" class="node">
<title>Node14</title>
<g id="a_node14"><a xlink:href="_manifold_8hpp.html" target="_top" xlink:title="Data structures for manifolds.">
<polygon fill="white" stroke="black" points="886.5,-291.5 886.5,-310.5 966.5,-310.5 966.5,-291.5 886.5,-291.5"/>
<text text-anchor="middle" x="926.5" y="-298.5" font-family="Helvetica,sans-Serif" font-size="10.00">Manifold.hpp</text>
</a>
</g>
</g>
<!-- Node13&#45;&gt;Node14 -->
<g id="edge14" class="edge">
<title>Node13&#45;&gt;Node14</title>
<path fill="none" stroke="midnightblue" d="M796.06,-347.44C822.02,-338.4 863.17,-324.06 892.3,-313.92"/>
<polygon fill="midnightblue" stroke="midnightblue" points="893.76,-317.11 902.05,-310.52 891.46,-310.5 893.76,-317.11"/>
</g>
<!-- Node50 -->
<g id="node46" class="node">
<title>Node50</title>
<g id="a_node46"><a xlink:href="_move__tracker_8hpp.html" target="_top" xlink:title="Track ergodic moves.">
<polygon fill="white" stroke="black" points="822,-179.5 822,-198.5 925,-198.5 925,-179.5 822,-179.5"/>
<text text-anchor="middle" x="873.5" y="-186.5" font-family="Helvetica,sans-Serif" font-size="10.00">Move_tracker.hpp</text>
</a>
</g>
</g>
<!-- Node13&#45;&gt;Node50 -->
<g id="edge49" class="edge">
<title>Node13&#45;&gt;Node50</title>
<path fill="none" stroke="midnightblue" d="M770.44,-347.44C768.27,-326.23 765.48,-270.43 790.5,-235 801.17,-219.89 818.56,-209.36 834.68,-202.3"/>
<polygon fill="midnightblue" stroke="midnightblue" points="836,-205.54 843.96,-198.54 833.37,-199.05 836,-205.54"/>
</g>
<!-- Node15 -->
<g id="node15" class="node">
<title>Node15</title>
<g id="a_node15"><a xlink:title=" ">
<polygon fill="white" stroke="#bfbfbf" points="913,-123.5 913,-142.5 966,-142.5 966,-123.5 913,-123.5"/>
<text text-anchor="middle" x="939.5" y="-130.5" font-family="Helvetica,sans-Serif" font-size="10.00">cstddef</text>
</a>
</g>
</g>
<!-- Node14&#45;&gt;Node15 -->
<g id="edge15" class="edge">
<title>Node14&#45;&gt;Node15</title>
<path fill="none" stroke="midnightblue" d="M934.98,-291.23C942.55,-282.75 953.1,-269.13 957.5,-255 968.5,-219.65 956.17,-176.34 947.19,-152.3"/>
<polygon fill="midnightblue" stroke="midnightblue" points="950.33,-150.72 943.39,-142.71 943.82,-153.3 950.33,-150.72"/>
</g>
<!-- Node16 -->
<g id="node16" class="node">
<title>Node16</title>
<g id="a_node16"><a xlink:title=" ">
<polygon fill="white" stroke="#bfbfbf" points="799.5,-235.5 799.5,-254.5 885.5,-254.5 885.5,-235.5 799.5,-235.5"/>
<text text-anchor="middle" x="842.5" y="-242.5" font-family="Helvetica,sans-Serif" font-size="10.00">unordered_set</text>
</a>
</g>
</g>
<!-- Node14&#45;&gt;Node16 -->
<g id="edge16" class="edge">
<title>Node14&#45;&gt;Node16</title>
<path fill="none" stroke="midnightblue" d="M913,-291.32C899.9,-282.9 879.79,-269.97 864.39,-260.07"/>
<polygon fill="midnightblue" stroke="midnightblue" points="866.27,-257.12 855.96,-254.65 862.48,-263.01 866.27,-257.12"/>
</g>
<!-- Node17 -->
<g id="node17" class="node">
<title>Node17</title>
<g id="a_node17"><a xlink:title=" ">
<polygon fill="white" stroke="#bfbfbf" points="904,-235.5 904,-254.5 949,-254.5 949,-235.5 904,-235.5"/>
<text text-anchor="middle" x="926.5" y="-242.5" font-family="Helvetica,sans-Serif" font-size="10.00">utility</text>
</a>
</g>
</g>
<!-- Node14&#45;&gt;Node17 -->
<g id="edge17" class="edge">
<title>Node14&#45;&gt;Node17</title>
<path fill="none" stroke="midnightblue" d="M926.5,-291.08C926.5,-284.01 926.5,-273.86 926.5,-264.99"/>
<polygon fill="midnightblue" stroke="midnightblue" points="930,-264.75 926.5,-254.75 923,-264.75 930,-264.75"/>
</g>
<!-- Node18 -->
<g id="node18" class="node">
<title>Node18</title>
<g id="a_node18"><a xlink:href="_geometry_8hpp.html" target="_top" xlink:title="Geometric scalars of the Manifold used to calculate the Regge action.">
<polygon fill="white" stroke="black" points="1032,-235.5 1032,-254.5 1117,-254.5 1117,-235.5 1032,-235.5"/>
<text text-anchor="middle" x="1074.5" y="-242.5" font-family="Helvetica,sans-Serif" font-size="10.00">Geometry.hpp</text>
</a>
</g>
</g>
<!-- Node14&#45;&gt;Node18 -->
<g id="edge18" class="edge">
<title>Node14&#45;&gt;Node18</title>
<path fill="none" stroke="midnightblue" d="M949.95,-291.44C974.63,-282.44 1013.69,-268.19 1041.48,-258.05"/>
<polygon fill="midnightblue" stroke="midnightblue" points="1042.96,-261.23 1051.16,-254.52 1040.56,-254.66 1042.96,-261.23"/>
</g>
<!-- Node19 -->
<g id="node19" class="node">
<title>Node19</title>
<g id="a_node19"><a xlink:href="_foliated__triangulation_8hpp.html" target="_top" xlink:title="Create foliated spherical triangulations.">
<polygon fill="white" stroke="black" points="1028.5,-179.5 1028.5,-198.5 1172.5,-198.5 1172.5,-179.5 1028.5,-179.5"/>
<text text-anchor="middle" x="1100.5" y="-186.5" font-family="Helvetica,sans-Serif" font-size="10.00">Foliated_triangulation.hpp</text>
</a>
</g>
</g>
<!-- Node18&#45;&gt;Node19 -->
<g id="edge19" class="edge">
<title>Node18&#45;&gt;Node19</title>
<path fill="none" stroke="midnightblue" d="M1078.79,-235.08C1082.35,-227.69 1087.52,-216.95 1091.92,-207.81"/>
<polygon fill="midnightblue" stroke="midnightblue" points="1095.1,-209.28 1096.29,-198.75 1088.79,-206.24 1095.1,-209.28"/>
</g>
<!-- Node20 -->
<g id="node20" class="node">
<title>Node20</title>
<g id="a_node20"><a xlink:title=" ">
<polygon fill="white" stroke="#bfbfbf" points="1116.5,-123.5 1116.5,-142.5 1176.5,-142.5 1176.5,-123.5 1116.5,-123.5"/>
<text text-anchor="middle" x="1146.5" y="-130.5" font-family="Helvetica,sans-Serif" font-size="10.00">concepts</text>
</a>
</g>
</g>
<!-- Node19&#45;&gt;Node20 -->
<g id="edge20" class="edge">
<title>Node19&#45;&gt;Node20</title>
<path fill="none" stroke="midnightblue" d="M1108.1,-179.08C1114.73,-171.3 1124.52,-159.8 1132.56,-150.37"/>
<polygon fill="midnightblue" stroke="midnightblue" points="1135.23,-152.63 1139.05,-142.75 1129.9,-148.09 1135.23,-152.63"/>
</g>
<!-- Node21 -->
<g id="node21" class="node">
<title>Node21</title>
<g id="a_node21"><a xlink:href="_triangulation__traits_8hpp.html" target="_top" xlink:title="Traits class for particular uses of CGAL.">
<polygon fill="white" stroke="red" points="1754,-123.5 1754,-142.5 1885,-142.5 1885,-123.5 1754,-123.5"/>
<text text-anchor="middle" x="1819.5" y="-130.5" font-family="Helvetica,sans-Serif" font-size="10.00">Triangulation_traits.hpp</text>
</a>
</g>
</g>
<!-- Node19&#45;&gt;Node21 -->
<g id="edge21" class="edge">
<title>Node19&#45;&gt;Node21</title>
<path fill="none" stroke="midnightblue" d="M1172.73,-182.58C1309.35,-172.31 1604.37,-150.16 1743.7,-139.69"/>
<polygon fill="midnightblue" stroke="midnightblue" points="1744.15,-143.17 1753.86,-138.93 1743.63,-136.19 1744.15,-143.17"/>
</g>
<!-- Node30 -->
<g id="node26" class="node">
<title>Node30</title>
<g id="a_node26"><a xlink:href="_utilities_8hpp.html" target="_top" xlink:title="Utility functions.">
<polygon fill="white" stroke="black" points="984.5,-123.5 984.5,-142.5 1060.5,-142.5 1060.5,-123.5 984.5,-123.5"/>
<text text-anchor="middle" x="1022.5" y="-130.5" font-family="Helvetica,sans-Serif" font-size="10.00">Utilities.hpp</text>
</a>
</g>
</g>
<!-- Node19&#45;&gt;Node30 -->
<g id="edge26" class="edge">
<title>Node19&#45;&gt;Node30</title>
<path fill="none" stroke="midnightblue" d="M1087.97,-179.32C1075.91,-170.98 1057.47,-158.21 1043.23,-148.35"/>
<polygon fill="midnightblue" stroke="midnightblue" points="1045.22,-145.47 1035,-142.65 1041.23,-151.22 1045.22,-145.47"/>
</g>
<!-- Node22 -->
<g id="node22" class="node">
<title>Node22</title>
<g id="a_node22"><a xlink:title=" ">
<polygon fill="white" stroke="#bfbfbf" points="1876.5,-62 1876.5,-81 2056.5,-81 2056.5,-62 1876.5,-62"/>
<text text-anchor="middle" x="1966.5" y="-69" font-family="Helvetica,sans-Serif" font-size="10.00">CGAL/Delaunay_triangulation_3.h</text>
</a>
</g>
</g>
<!-- Node21&#45;&gt;Node22 -->
<g id="edge22" class="edge">
<title>Node21&#45;&gt;Node22</title>
<path fill="none" stroke="midnightblue" d="M1840.56,-123.48C1865.56,-113.36 1907.44,-96.4 1935.99,-84.85"/>
<polygon fill="midnightblue" stroke="midnightblue" points="1937.52,-88.01 1945.48,-81.01 1934.89,-81.52 1937.52,-88.01"/>
</g>
<!-- Node27 -->
<g id="node23" class="node">
<title>Node27</title>
<g id="a_node23"><a xlink:href="_settings_8hpp.html" target="_top" xlink:title="Global integer and precision settings.">
<polygon fill="white" stroke="black" points="1781,-62 1781,-81 1858,-81 1858,-62 1781,-62"/>
<text text-anchor="middle" x="1819.5" y="-69" font-family="Helvetica,sans-Serif" font-size="10.00">Settings.hpp</text>
</a>
</g>
</g>
<!-- Node21&#45;&gt;Node27 -->
<g id="edge23" class="edge">
<title>Node21&#45;&gt;Node27</title>
<path fill="none" stroke="midnightblue" d="M1819.5,-123.48C1819.5,-115.08 1819.5,-101.98 1819.5,-91.16"/>
<polygon fill="midnightblue" stroke="midnightblue" points="1823,-91.01 1819.5,-81.01 1816,-91.01 1823,-91.01"/>
</g>
<!-- Node28 -->
<g id="node24" class="node">
<title>Node28</title>
<g id="a_node24"><a xlink:title=" ">
<polygon fill="white" stroke="#bfbfbf" points="1692.5,-0.5 1692.5,-19.5 1832.5,-19.5 1832.5,-0.5 1692.5,-0.5"/>
<text text-anchor="middle" x="1762.5" y="-7.5" font-family="Helvetica,sans-Serif" font-size="10.00">CGAL/GMP/Gmpzf_type.h</text>
</a>
</g>
</g>
<!-- Node27&#45;&gt;Node28 -->
<g id="edge24" class="edge">
<title>Node27&#45;&gt;Node28</title>
<path fill="none" stroke="midnightblue" d="M1811.33,-61.98C1802.61,-52.87 1788.6,-38.24 1777.81,-26.98"/>
<polygon fill="midnightblue" stroke="midnightblue" points="1780.1,-24.31 1770.65,-19.51 1775.04,-29.15 1780.1,-24.31"/>
</g>
<!-- Node29 -->
<g id="node25" class="node">
<title>Node29</title>
<g id="a_node25"><a xlink:title=" ">
<polygon fill="white" stroke="#bfbfbf" points="1850.5,-0.5 1850.5,-19.5 1900.5,-19.5 1900.5,-0.5 1850.5,-0.5"/>
<text text-anchor="middle" x="1875.5" y="-7.5" font-family="Helvetica,sans-Serif" font-size="10.00">cstdint</text>
</a>
</g>
</g>
<!-- Node27&#45;&gt;Node29 -->
<g id="edge25" class="edge">
<title>Node27&#45;&gt;Node29</title>
<path fill="none" stroke="midnightblue" d="M1827.52,-61.98C1836.09,-52.87 1849.86,-38.24 1860.46,-26.98"/>
<polygon fill="midnightblue" stroke="midnightblue" points="1863.19,-29.19 1867.49,-19.51 1858.09,-24.39 1863.19,-29.19"/>
</g>
<!-- Node30&#45;&gt;Node8 -->
<g id="edge47" class="edge">
<title>Node30&#45;&gt;Node8</title>
<path fill="none" stroke="midnightblue" d="M984.32,-124.33C981.01,-123.82 977.7,-123.36 974.5,-123 589.1,-79.14 486.18,-143.93 102.5,-87 96.65,-86.13 90.52,-84.89 84.55,-83.5"/>
<polygon fill="midnightblue" stroke="midnightblue" points="85.3,-80.08 74.75,-81.06 83.6,-86.87 85.3,-80.08"/>
</g>
<!-- Node30&#45;&gt;Node10 -->
<g id="edge39" class="edge">
<title>Node30&#45;&gt;Node10</title>
<path fill="none" stroke="midnightblue" d="M984.32,-124.34C981.01,-123.83 977.7,-123.37 974.5,-123 795.51,-102.35 339.47,-130 164.5,-87 162.51,-86.51 160.49,-85.89 158.49,-85.18"/>
<polygon fill="midnightblue" stroke="midnightblue" points="159.41,-81.77 148.83,-81.12 156.69,-88.22 159.41,-81.77"/>
</g>
<!-- Node30&#45;&gt;Node27 -->
<g id="edge48" class="edge">
<title>Node30&#45;&gt;Node27</title>
<path fill="none" stroke="midnightblue" d="M1060.76,-124.84C1065.38,-124.14 1070.04,-123.5 1074.5,-123 1383.21,-88.45 1466.63,-141.2 1772.5,-87 1776.97,-86.21 1781.61,-85.12 1786.16,-83.89"/>
<polygon fill="midnightblue" stroke="midnightblue" points="1787.26,-87.22 1795.87,-81.04 1785.29,-80.5 1787.26,-87.22"/>
</g>
<!-- Node31 -->
<g id="node27" class="node">
<title>Node31</title>
<g id="a_node27"><a xlink:title=" ">
<polygon fill="white" stroke="#bfbfbf" points="851,-62 851,-81 934,-81 934,-62 851,-62"/>
<text text-anchor="middle" x="892.5" y="-69" font-family="Helvetica,sans-Serif" font-size="10.00">CGAL/Timer.h</text>
</a>
</g>
</g>
<!-- Node30&#45;&gt;Node31 -->
<g id="edge27" class="edge">
<title>Node30&#45;&gt;Node31</title>
<path fill="none" stroke="midnightblue" d="M1003.87,-123.48C982.06,-113.49 945.7,-96.85 920.48,-85.31"/>
<polygon fill="midnightblue" stroke="midnightblue" points="921.64,-81.99 911.09,-81.01 918.73,-88.35 921.64,-81.99"/>
</g>
<!-- Node32 -->
<g id="node28" class="node">
<title>Node32</title>
<g id="a_node28"><a xlink:title=" ">
<polygon fill="white" stroke="#bfbfbf" points="952.5,-62 952.5,-81 1016.5,-81 1016.5,-62 952.5,-62"/>
<text text-anchor="middle" x="984.5" y="-69" font-family="Helvetica,sans-Serif" font-size="10.00">algorithm</text>
</a>
</g>
</g>
<!-- Node30&#45;&gt;Node32 -->
<g id="edge28" class="edge">
<title>Node30&#45;&gt;Node32</title>
<path fill="none" stroke="midnightblue" d="M1017.06,-123.48C1011.41,-114.64 1002.44,-100.59 995.34,-89.48"/>
<polygon fill="midnightblue" stroke="midnightblue" points="998.27,-87.55 989.93,-81.01 992.37,-91.32 998.27,-87.55"/>
</g>
<!-- Node33 -->
<g id="node29" class="node">
<title>Node33</title>
<g id="a_node29"><a xlink:title=" ">
<polygon fill="white" stroke="#bfbfbf" points="1034.5,-62 1034.5,-81 1086.5,-81 1086.5,-62 1034.5,-62"/>
<text text-anchor="middle" x="1060.5" y="-69" font-family="Helvetica,sans-Serif" font-size="10.00">cassert</text>
</a>
</g>
</g>
<!-- Node30&#45;&gt;Node33 -->
<g id="edge29" class="edge">
<title>Node30&#45;&gt;Node33</title>
<path fill="none" stroke="midnightblue" d="M1027.94,-123.48C1033.59,-114.64 1042.56,-100.59 1049.66,-89.48"/>
<polygon fill="midnightblue" stroke="midnightblue" points="1052.63,-91.32 1055.07,-81.01 1046.73,-87.55 1052.63,-91.32"/>
</g>
<!-- Node34 -->
<g id="node30" class="node">
<title>Node34</title>
<g id="a_node30"><a xlink:title=" ">
<polygon fill="white" stroke="#bfbfbf" points="1105,-62 1105,-81 1154,-81 1154,-62 1105,-62"/>
<text text-anchor="middle" x="1129.5" y="-69" font-family="Helvetica,sans-Serif" font-size="10.00">cstdlib</text>
</a>
</g>
</g>
<!-- Node30&#45;&gt;Node34 -->
<g id="edge30" class="edge">
<title>Node30&#45;&gt;Node34</title>
<path fill="none" stroke="midnightblue" d="M1037.83,-123.48C1055.47,-113.67 1084.66,-97.43 1105.36,-85.92"/>
<polygon fill="midnightblue" stroke="midnightblue" points="1107.16,-88.93 1114.2,-81.01 1103.76,-82.81 1107.16,-88.93"/>
</g>
<!-- Node35 -->
<g id="node31" class="node">
<title>Node35</title>
<g id="a_node31"><a xlink:title=" ">
<polygon fill="white" stroke="#bfbfbf" points="1172.5,-62 1172.5,-81 1240.5,-81 1240.5,-62 1172.5,-62"/>
<text text-anchor="middle" x="1206.5" y="-69" font-family="Helvetica,sans-Serif" font-size="10.00">filesystem</text>
</a>
</g>
</g>
<!-- Node30&#45;&gt;Node35 -->
<g id="edge31" class="edge">
<title>Node30&#45;&gt;Node35</title>
<path fill="none" stroke="midnightblue" d="M1049.36,-123.43C1077.56,-114.42 1123.17,-99.8 1162.5,-87 1165.22,-86.11 1168.04,-85.19 1170.88,-84.26"/>
<polygon fill="midnightblue" stroke="midnightblue" points="1172.04,-87.56 1180.45,-81.12 1169.86,-80.91 1172.04,-87.56"/>
</g>
<!-- Node36 -->
<g id="node32" class="node">
<title>Node36</title>
<g id="a_node32"><a xlink:title=" ">
<polygon fill="white" stroke="#bfbfbf" points="1259,-62 1259,-81 1314,-81 1314,-62 1259,-62"/>
<text text-anchor="middle" x="1286.5" y="-69" font-family="Helvetica,sans-Serif" font-size="10.00">fstream</text>
</a>
</g>
</g>
<!-- Node30&#45;&gt;Node36 -->
<g id="edge32" class="edge">
<title>Node30&#45;&gt;Node36</title>
<path fill="none" stroke="midnightblue" d="M1060.55,-125.3C1115.58,-115.48 1214.6,-97.21 1249.5,-87 1251.93,-86.29 1254.43,-85.48 1256.92,-84.62"/>
<polygon fill="midnightblue" stroke="midnightblue" points="1258.2,-87.88 1266.37,-81.14 1255.78,-81.32 1258.2,-87.88"/>
</g>
<!-- Node37 -->
<g id="node33" class="node">
<title>Node37</title>
<g id="a_node33"><a xlink:title=" ">
<polygon fill="white" stroke="#bfbfbf" points="1332.5,-62 1332.5,-81 1380.5,-81 1380.5,-62 1332.5,-62"/>
<text text-anchor="middle" x="1356.5" y="-69" font-family="Helvetica,sans-Serif" font-size="10.00">gsl/gsl</text>
</a>
</g>
</g>
<!-- Node30&#45;&gt;Node37 -->
<g id="edge33" class="edge">
<title>Node30&#45;&gt;Node37</title>
<path fill="none" stroke="midnightblue" d="M1060.54,-125.29C1065.24,-124.5 1069.98,-123.72 1074.5,-123 1184.93,-105.46 1216,-117.77 1323.5,-87 1325.65,-86.38 1327.84,-85.66 1330.03,-84.86"/>
<polygon fill="midnightblue" stroke="midnightblue" points="1331.41,-88.08 1339.36,-81.08 1328.78,-81.59 1331.41,-88.08"/>
</g>
<!-- Node38 -->
<g id="node34" class="node">
<title>Node38</title>
<g id="a_node34"><a xlink:title=" ">
<polygon fill="white" stroke="#bfbfbf" points="1398.5,-62 1398.5,-81 1458.5,-81 1458.5,-62 1398.5,-62"/>
<text text-anchor="middle" x="1428.5" y="-69" font-family="Helvetica,sans-Serif" font-size="10.00">iostream</text>
</a>
</g>
</g>
<!-- Node30&#45;&gt;Node38 -->
<g id="edge34" class="edge">
<title>Node30&#45;&gt;Node38</title>
<path fill="none" stroke="midnightblue" d="M1060.52,-125.16C1065.22,-124.39 1069.97,-123.65 1074.5,-123 1213.98,-102.98 1252.46,-119.79 1389.5,-87 1392.49,-86.28 1395.57,-85.4 1398.62,-84.43"/>
<polygon fill="midnightblue" stroke="midnightblue" points="1399.85,-87.71 1408.14,-81.13 1397.55,-81.1 1399.85,-87.71"/>
</g>
<!-- Node39 -->
<g id="node35" class="node">
<title>Node39</title>
<g id="a_node35"><a xlink:title=" ">
<polygon fill="white" stroke="#bfbfbf" points="1476.5,-62 1476.5,-81 1524.5,-81 1524.5,-62 1476.5,-62"/>
<text text-anchor="middle" x="1500.5" y="-69" font-family="Helvetica,sans-Serif" font-size="10.00">mutex</text>
</a>
</g>
</g>
<!-- Node30&#45;&gt;Node39 -->
<g id="edge35" class="edge">
<title>Node30&#45;&gt;Node39</title>
<path fill="none" stroke="midnightblue" d="M1060.5,-125.06C1065.21,-124.31 1069.96,-123.6 1074.5,-123 1248.39,-100.03 1297.67,-130.85 1467.5,-87 1469.8,-86.41 1472.14,-85.67 1474.47,-84.85"/>
<polygon fill="midnightblue" stroke="midnightblue" points="1475.78,-88.09 1483.75,-81.11 1473.16,-81.6 1475.78,-88.09"/>
</g>
<!-- Node40 -->
<g id="node36" class="node">
<title>Node40</title>
<g id="a_node36"><a xlink:title=" ">
<polygon fill="white" stroke="#bfbfbf" points="1542.5,-62 1542.5,-81 1596.5,-81 1596.5,-62 1542.5,-62"/>
<text text-anchor="middle" x="1569.5" y="-69" font-family="Helvetica,sans-Serif" font-size="10.00">random</text>
</a>
</g>
</g>
<!-- Node30&#45;&gt;Node40 -->
<g id="edge36" class="edge">
<title>Node30&#45;&gt;Node40</title>
<path fill="none" stroke="midnightblue" d="M1060.78,-124.96C1065.39,-124.23 1070.05,-123.56 1074.5,-123 1277.53,-97.52 1334.29,-133.77 1533.5,-87 1536.18,-86.37 1538.91,-85.58 1541.62,-84.68"/>
<polygon fill="midnightblue" stroke="midnightblue" points="1543.01,-87.9 1551.17,-81.14 1540.57,-81.34 1543.01,-87.9"/>
</g>
<!-- Node41 -->
<g id="node37" class="node">
<title>Node41</title>
<g id="a_node37"><a xlink:title=" ">
<polygon fill="white" stroke="#bfbfbf" points="173.5,-62 173.5,-81 213.5,-81 213.5,-62 173.5,-62"/>
<text text-anchor="middle" x="193.5" y="-69" font-family="Helvetica,sans-Serif" font-size="10.00">span</text>
</a>
</g>
</g>
<!-- Node30&#45;&gt;Node41 -->
<g id="edge37" class="edge">
<title>Node30&#45;&gt;Node41</title>
<path fill="none" stroke="midnightblue" d="M984.32,-124.35C981.01,-123.84 977.7,-123.37 974.5,-123 808.33,-103.54 384.36,-129.32 222.5,-87 220.78,-86.55 219.04,-85.99 217.31,-85.35"/>
<polygon fill="midnightblue" stroke="midnightblue" points="218.35,-81.98 207.79,-81.12 215.5,-88.38 218.35,-81.98"/>
</g>
<!-- Node42 -->
<g id="node38" class="node">
<title>Node42</title>
<g id="a_node38"><a xlink:title=" ">
<polygon fill="white" stroke="#bfbfbf" points="1615,-62 1615,-81 1680,-81 1680,-62 1615,-62"/>
<text text-anchor="middle" x="1647.5" y="-69" font-family="Helvetica,sans-Serif" font-size="10.00">stdexcept</text>
</a>
</g>
</g>
<!-- Node30&#45;&gt;Node42 -->
<g id="edge38" class="edge">
<title>Node30&#45;&gt;Node42</title>
<path fill="none" stroke="midnightblue" d="M1060.77,-124.91C1065.39,-124.2 1070.04,-123.54 1074.5,-123 1309.35,-94.79 1373.68,-134.01 1605.5,-87 1609.01,-86.29 1612.62,-85.36 1616.2,-84.31"/>
<polygon fill="midnightblue" stroke="midnightblue" points="1617.57,-87.55 1626.01,-81.14 1615.41,-80.89 1617.57,-87.55"/>
</g>
<!-- Node43 -->
<g id="node39" class="node">
<title>Node43</title>
<g id="a_node39"><a xlink:title=" ">
<polygon fill="white" stroke="#bfbfbf" points="1698,-62 1698,-81 1763,-81 1763,-62 1698,-62"/>
<text text-anchor="middle" x="1730.5" y="-69" font-family="Helvetica,sans-Serif" font-size="10.00">typeindex</text>
</a>
</g>
</g>
<!-- Node30&#45;&gt;Node43 -->
<g id="edge40" class="edge">
<title>Node30&#45;&gt;Node43</title>
<path fill="none" stroke="midnightblue" d="M1060.77,-124.87C1065.38,-124.16 1070.04,-123.51 1074.5,-123 1346.5,-91.6 1421.11,-141.18 1689.5,-87 1693.01,-86.29 1696.63,-85.35 1700.19,-84.28"/>
<polygon fill="midnightblue" stroke="midnightblue" points="1701.57,-87.51 1709.96,-81.04 1699.37,-80.87 1701.57,-87.51"/>
</g>
<!-- Node44 -->
<g id="node40" class="node">
<title>Node44</title>
<g id="a_node40"><a xlink:title=" ">
<polygon fill="white" stroke="#bfbfbf" points="232,-62 232,-81 291,-81 291,-62 232,-62"/>
<text text-anchor="middle" x="261.5" y="-69" font-family="Helvetica,sans-Serif" font-size="10.00">date/tz.h</text>
</a>
</g>
</g>
<!-- Node30&#45;&gt;Node44 -->
<g id="edge41" class="edge">
<title>Node30&#45;&gt;Node44</title>
<path fill="none" stroke="midnightblue" d="M984.32,-124.37C981.01,-123.85 977.7,-123.38 974.5,-123 676.65,-87.28 594.22,-147.97 300.5,-87 297.25,-86.32 293.9,-85.42 290.61,-84.4"/>
<polygon fill="midnightblue" stroke="midnightblue" points="291.59,-81.04 281,-81.07 289.3,-87.65 291.59,-81.04"/>
</g>
<!-- Node45 -->
<g id="node41" class="node">
<title>Node45</title>
<g id="a_node41"><a xlink:title=" ">
<polygon fill="white" stroke="#bfbfbf" points="309.5,-62 309.5,-81 359.5,-81 359.5,-62 309.5,-62"/>
<text text-anchor="middle" x="334.5" y="-69" font-family="Helvetica,sans-Serif" font-size="10.00">chrono</text>
</a>
</g>
</g>
<!-- Node30&#45;&gt;Node45 -->
<g id="edge42" class="edge">
<title>Node30&#45;&gt;Node45</title>
<path fill="none" stroke="midnightblue" d="M984.32,-124.39C981,-123.87 977.7,-123.39 974.5,-123 706.71,-90.07 631.13,-148.83 368.5,-87 365.99,-86.41 363.42,-85.64 360.89,-84.78"/>
<polygon fill="midnightblue" stroke="midnightblue" points="362,-81.45 351.41,-81.06 359.44,-87.97 362,-81.45"/>
</g>
<!-- Node46 -->
<g id="node42" class="node">
<title>Node46</title>
<g id="a_node42"><a xlink:title=" ">
<polygon fill="white" stroke="#bfbfbf" points="377.5,-62 377.5,-81 475.5,-81 475.5,-62 377.5,-62"/>
<text text-anchor="middle" x="426.5" y="-69" font-family="Helvetica,sans-Serif" font-size="10.00">pcg_random.hpp</text>
</a>
</g>
</g>
<!-- Node30&#45;&gt;Node46 -->
<g id="edge43" class="edge">
<title>Node30&#45;&gt;Node46</title>
<path fill="none" stroke="midnightblue" d="M984.31,-124.44C981,-123.91 977.69,-123.42 974.5,-123 757.96,-94.83 700.1,-121.61 484.5,-87 478.59,-86.05 472.4,-84.79 466.36,-83.42"/>
<polygon fill="midnightblue" stroke="midnightblue" points="466.94,-79.96 456.4,-81.02 465.3,-86.76 466.94,-79.96"/>
</g>
<!-- Node47 -->
<g id="node43" class="node">
<title>Node47</title>
<g id="a_node43"><a xlink:title=" ">
<polygon fill="white" stroke="#bfbfbf" points="493.5,-62 493.5,-81 579.5,-81 579.5,-62 493.5,-62"/>
<text text-anchor="middle" x="536.5" y="-69" font-family="Helvetica,sans-Serif" font-size="10.00">fmt/ostream.h</text>
</a>
</g>
</g>
<!-- Node30&#45;&gt;Node47 -->
<g id="edge44" class="edge">
<title>Node30&#45;&gt;Node47</title>
<path fill="none" stroke="midnightblue" d="M984.3,-124.51C980.99,-123.96 977.69,-123.45 974.5,-123 803.87,-99.1 757.94,-118.26 588.5,-87 583.63,-86.1 578.55,-84.96 573.57,-83.7"/>
<polygon fill="midnightblue" stroke="midnightblue" points="574.11,-80.23 563.54,-81.03 572.3,-86.99 574.11,-80.23"/>
</g>
<!-- Node48 -->
<g id="node44" class="node">
<title>Node48</title>
<g id="a_node44"><a xlink:title=" ">
<polygon fill="white" stroke="#bfbfbf" points="597.5,-56.5 597.5,-86.5 703.5,-86.5 703.5,-56.5 597.5,-56.5"/>
<text text-anchor="start" x="605.5" y="-74.5" font-family="Helvetica,sans-Serif" font-size="10.00">spdlog/sinks/basic</text>
<text text-anchor="middle" x="650.5" y="-63.5" font-family="Helvetica,sans-Serif" font-size="10.00">_file_sink.h</text>
</a>
</g>
</g>
<!-- Node30&#45;&gt;Node48 -->
<g id="edge45" class="edge">
<title>Node30&#45;&gt;Node48</title>
<path fill="none" stroke="midnightblue" d="M984.28,-124.66C980.97,-124.08 977.68,-123.52 974.5,-123 861.65,-104.68 829.8,-108.19 713.54,-87.08"/>
<polygon fill="midnightblue" stroke="midnightblue" points="714,-83.61 703.53,-85.25 712.73,-90.5 714,-83.61"/>
</g>
<!-- Node49 -->
<g id="node45" class="node">
<title>Node49</title>
<g id="a_node45"><a xlink:title=" ">
<polygon fill="white" stroke="#bfbfbf" points="722,-56.5 722,-86.5 833,-86.5 833,-56.5 722,-56.5"/>
<text text-anchor="start" x="730" y="-74.5" font-family="Helvetica,sans-Serif" font-size="10.00">spdlog/sinks/stdout</text>
<text text-anchor="middle" x="777.5" y="-63.5" font-family="Helvetica,sans-Serif" font-size="10.00">_color_sinks.h</text>
</a>
</g>
</g>
<!-- Node30&#45;&gt;Node49 -->
<g id="edge46" class="edge">
<title>Node30&#45;&gt;Node49</title>
<path fill="none" stroke="midnightblue" d="M987.4,-123.48C949.92,-114.37 889.68,-99.74 843.33,-88.49"/>
<polygon fill="midnightblue" stroke="midnightblue" points="843.91,-85.03 833.36,-86.07 842.25,-91.83 843.91,-85.03"/>
</g>
<!-- Node50&#45;&gt;Node15 -->
<g id="edge51" class="edge">
<title>Node50&#45;&gt;Node15</title>
<path fill="none" stroke="midnightblue" d="M884.1,-179.32C893.96,-171.26 908.85,-159.08 920.72,-149.37"/>
<polygon fill="midnightblue" stroke="midnightblue" points="923.18,-151.88 928.7,-142.83 918.75,-146.46 923.18,-151.88"/>
</g>
<!-- Node50&#45;&gt;Node27 -->
<g id="edge54" class="edge">
<title>Node50&#45;&gt;Node27</title>
<path fill="none" stroke="midnightblue" d="M925.32,-179.88C965.46,-172.7 1022.03,-160.6 1069.5,-143 1087.39,-136.36 1089.1,-128.08 1107.5,-123 1392.82,-44.26 1481.12,-139.02 1772.5,-87 1776.97,-86.2 1781.61,-85.11 1786.16,-83.88"/>
<polygon fill="midnightblue" stroke="midnightblue" points="1787.26,-87.2 1795.87,-81.03 1785.29,-80.49 1787.26,-87.2"/>
</g>
<!-- Node50&#45;&gt;Node30 -->
<g id="edge55" class="edge">
<title>Node50&#45;&gt;Node30</title>
<path fill="none" stroke="midnightblue" d="M897.11,-179.44C921.96,-170.44 961.27,-156.19 989.25,-146.05"/>
<polygon fill="midnightblue" stroke="midnightblue" points="990.79,-149.21 999,-142.52 988.41,-142.63 990.79,-149.21"/>
</g>
<!-- Node50&#45;&gt;Node41 -->
<g id="edge53" class="edge">
<title>Node50&#45;&gt;Node41</title>
<path fill="none" stroke="midnightblue" d="M867.61,-179.28C857.12,-164.59 833.63,-135.3 805.5,-123 686.57,-70.99 347.85,-120.7 222.5,-87 220.78,-86.54 219.04,-85.97 217.32,-85.33"/>
<polygon fill="midnightblue" stroke="midnightblue" points="218.36,-81.96 207.8,-81.07 215.5,-88.35 218.36,-81.96"/>
</g>
<!-- Node51 -->
<g id="node47" class="node">
<title>Node51</title>
<g id="a_node47"><a xlink:title=" ">
<polygon fill="white" stroke="#bfbfbf" points="852.5,-123.5 852.5,-142.5 894.5,-142.5 894.5,-123.5 852.5,-123.5"/>
<text text-anchor="middle" x="873.5" y="-130.5" font-family="Helvetica,sans-Serif" font-size="10.00">array</text>
</a>
</g>
</g>
<!-- Node50&#45;&gt;Node51 -->
<g id="edge50" class="edge">
<title>Node50&#45;&gt;Node51</title>
<path fill="none" stroke="midnightblue" d="M873.5,-179.08C873.5,-172.01 873.5,-161.86 873.5,-152.99"/>
<polygon fill="midnightblue" stroke="midnightblue" points="877,-152.75 873.5,-142.75 870,-152.75 877,-152.75"/>
</g>
<!-- Node52 -->
<g id="node48" class="node">
<title>Node52</title>
<g id="a_node48"><a xlink:title=" ">
<polygon fill="white" stroke="#bfbfbf" points="746.5,-123.5 746.5,-142.5 796.5,-142.5 796.5,-123.5 746.5,-123.5"/>
<text text-anchor="middle" x="771.5" y="-130.5" font-family="Helvetica,sans-Serif" font-size="10.00">gsl/util</text>
</a>
</g>
</g>
<!-- Node50&#45;&gt;Node52 -->
<g id="edge52" class="edge">
<title>Node50&#45;&gt;Node52</title>
<path fill="none" stroke="midnightblue" d="M857.11,-179.32C840.83,-170.7 815.63,-157.36 796.78,-147.39"/>
<polygon fill="midnightblue" stroke="midnightblue" points="798.32,-144.24 787.85,-142.65 795.05,-150.43 798.32,-144.24"/>
</g>
<!-- Node53&#45;&gt;Node27 -->
<g id="edge58" class="edge">
<title>Node53&#45;&gt;Node27</title>
<path fill="none" stroke="midnightblue" d="M1297.58,-462.74C1353.06,-452.96 1446.5,-426.34 1446.5,-358 1446.5,-358 1446.5,-358 1446.5,-188 1446.5,-187.73 1687.45,-113.28 1782.03,-84.07"/>
<polygon fill="midnightblue" stroke="midnightblue" points="1783.25,-87.36 1791.77,-81.06 1781.18,-80.67 1783.25,-87.36"/>
</g>
<!-- Node54 -->
<g id="node50" class="node">
<title>Node54</title>
<g id="a_node50"><a xlink:title=" ">
<polygon fill="white" stroke="#bfbfbf" points="1233.5,-403.5 1233.5,-422.5 1281.5,-422.5 1281.5,-403.5 1233.5,-403.5"/>
<text text-anchor="middle" x="1257.5" y="-410.5" font-family="Helvetica,sans-Serif" font-size="10.00">mpfr.h</text>
</a>
</g>
</g>
<!-- Node53&#45;&gt;Node54 -->
<g id="edge57" class="edge">
<title>Node53&#45;&gt;Node54</title>
<path fill="none" stroke="midnightblue" d="M1257.5,-459.08C1257.5,-452.01 1257.5,-441.86 1257.5,-432.99"/>
<polygon fill="midnightblue" stroke="midnightblue" points="1261,-432.75 1257.5,-422.75 1254,-432.75 1261,-432.75"/>
</g>
</g>
</svg>
