<?xml version="1.0" encoding="UTF-8" standalone="no"?>
<!DOCTYPE svg PUBLIC "-//W3C//DTD SVG 1.1//EN"
 "http://www.w3.org/Graphics/SVG/1.1/DTD/svg11.dtd">
<!-- Generated by graphviz version 2.43.0 (0)
 -->
<!-- Title: src/cdt.cpp Pages: 1 -->
<!--zoomable 386 -->
<svg id="main" version="1.1" xmlns="http://www.w3.org/2000/svg" xmlns:xlink="http://www.w3.org/1999/xlink" xml:space="preserve" onload="init(evt)">
<style type="text/css"><![CDATA[
.edge:hover path { stroke: red; }
.edge:hover polygon { stroke: red; fill: red; }
]]></style>
<script type="text/javascript"><![CDATA[
var edges = document.getElementsByTagName('g');
if (edges && edges.length) {
  for (var i=0;i<edges.length;i++) {
    if (edges[i].id.substr(0,4)=='edge') {
      edges[i].setAttribute('class','edge');
    }
  }
}
]]></script>
        <defs>
                <circle id="rim" cx="0" cy="0" r="7"/>
                <circle id="rim2" cx="0" cy="0" r="3.5"/>
                <g id="zoomPlus">
                        <use xlink:href="#rim" fill="#404040">
                                <set attributeName="fill" to="#808080" begin="zoomplus.mouseover" end="zoomplus.mouseout"/>
                        </use>
                        <path d="M-4,0h8M0,-4v8" fill="none" stroke="white" stroke-width="1.5" pointer-events="none"/>
                </g>
                <g id="zoomMin">
                        <use xlink:href="#rim" fill="#404040">
                                <set attributeName="fill" to="#808080" begin="zoomminus.mouseover" end="zoomminus.mouseout"/>
                        </use>
                        <path d="M-4,0h8" fill="none" stroke="white" stroke-width="1.5" pointer-events="none"/>
                </g>
                <g id="dirArrow">
                        <path fill="none" stroke="white" stroke-width="1.5" d="M0,-3.0v7 M-2.5,-0.5L0,-3.0L2.5,-0.5"/>
                </g>
               <g id="resetDef">
                       <use xlink:href="#rim2" fill="#404040">
                               <set attributeName="fill" to="#808080" begin="reset.mouseover" end="reset.mouseout"/>
                       </use>
               </g>
        </defs>

<script type="text/javascript">
var viewWidth = 1856;
var viewHeight = 386;
var sectionId = 'dynsection-0';
</script>
<script xlink:href="svgpan.js"/>
<svg id="graph" class="graph">
<g id="viewport">
<title>src/cdt.cpp</title>
<polygon fill="white" stroke="transparent" points="-4,4 -4,-382 1851.5,-382 1851.5,4 -4,4"/>
<!-- Node1 -->
<g id="node1" class="node">
<title>Node1</title>
<g id="a_node1"><a xlink:title="The main executable.">
<polygon fill="#bfbfbf" stroke="black" points="548,-358.5 548,-377.5 617,-377.5 617,-358.5 548,-358.5"/>
<text text-anchor="middle" x="582.5" y="-365.5" font-family="Helvetica,sans-Serif" font-size="10.00">src/cdt.cpp</text>
</a>
</g>
</g>
<!-- Node2 -->
<g id="node2" class="node">
<title>Node2</title>
<g id="a_node2"><a xlink:title=" ">
<polygon fill="white" stroke="#bfbfbf" points="211,-302.5 211,-321.5 318,-321.5 318,-302.5 211,-302.5"/>
<text text-anchor="middle" x="264.5" y="-309.5" font-family="Helvetica,sans-Serif" font-size="10.00">CGAL/Real_timer.h</text>
</a>
</g>
</g>
<!-- Node1&#45;&gt;Node2 -->
<g id="edge1" class="edge">
<title>Node1&#45;&gt;Node2</title>
<path fill="none" stroke="midnightblue" d="M547.86,-361.12C494.38,-352.04 391,-334.48 324.99,-323.27"/>
<polygon fill="midnightblue" stroke="midnightblue" points="325.18,-319.75 314.73,-321.53 324,-326.65 325.18,-319.75"/>
</g>
<!-- Node3 -->
<g id="node3" class="node">
<title>Node3</title>
<g id="a_node3"><a xlink:title=" ">
<polygon fill="white" stroke="#bfbfbf" points="1799.5,-56.5 1799.5,-75.5 1847.5,-75.5 1847.5,-56.5 1799.5,-56.5"/>
<text text-anchor="middle" x="1823.5" y="-63.5" font-family="Helvetica,sans-Serif" font-size="10.00">gsl/gsl</text>
</a>
</g>
</g>
<!-- Node1&#45;&gt;Node3 -->
<g id="edge2" class="edge">
<title>Node1&#45;&gt;Node3</title>
<path fill="none" stroke="midnightblue" d="M617.2,-365.78C817.75,-358.51 1819.5,-319.09 1819.5,-257 1819.5,-257 1819.5,-257 1819.5,-199 1819.5,-158.64 1821.39,-111.37 1822.57,-85.78"/>
<polygon fill="midnightblue" stroke="midnightblue" points="1826.08,-85.8 1823.06,-75.65 1819.08,-85.47 1826.08,-85.8"/>
</g>
<!-- Node4 -->
<g id="node4" class="node">
<title>Node4</title>
<g id="a_node4"><a xlink:title=" ">
<polygon fill="white" stroke="#bfbfbf" points="1740,-123.5 1740,-142.5 1787,-142.5 1787,-123.5 1740,-123.5"/>
<text text-anchor="middle" x="1763.5" y="-130.5" font-family="Helvetica,sans-Serif" font-size="10.00">vector</text>
</a>
</g>
</g>
<!-- Node1&#45;&gt;Node4 -->
<g id="edge3" class="edge">
<title>Node1&#45;&gt;Node4</title>
<path fill="none" stroke="midnightblue" d="M617.05,-365.12C759.24,-356.46 1311.42,-313.74 1730.5,-154 1734.73,-152.39 1739.02,-150.24 1743.05,-147.94"/>
<polygon fill="midnightblue" stroke="midnightblue" points="1745.16,-150.75 1751.82,-142.51 1741.47,-144.8 1745.16,-150.75"/>
</g>
<!-- Node5 -->
<g id="node5" class="node">
<title>Node5</title>
<g id="a_node5"><a xlink:title=" ">
<polygon fill="white" stroke="#bfbfbf" points="600,-302.5 600,-321.5 659,-321.5 659,-302.5 600,-302.5"/>
<text text-anchor="middle" x="629.5" y="-309.5" font-family="Helvetica,sans-Serif" font-size="10.00">docopt.h</text>
</a>
</g>
</g>
<!-- Node1&#45;&gt;Node5 -->
<g id="edge4" class="edge">
<title>Node1&#45;&gt;Node5</title>
<path fill="none" stroke="midnightblue" d="M590.26,-358.08C597.04,-350.3 607.04,-338.8 615.26,-329.37"/>
<polygon fill="midnightblue" stroke="midnightblue" points="617.96,-331.59 621.88,-321.75 612.68,-327 617.96,-331.59"/>
</g>
<!-- Node6 -->
<g id="node6" class="node">
<title>Node6</title>
<g id="a_node6"><a xlink:href="_metropolis_8hpp.html" target="_top" xlink:title="Perform Metropolis&#45;Hastings algorithm on Delaunay Triangulations.">
<polygon fill="white" stroke="black" points="336,-302.5 336,-321.5 425,-321.5 425,-302.5 336,-302.5"/>
<text text-anchor="middle" x="380.5" y="-309.5" font-family="Helvetica,sans-Serif" font-size="10.00">Metropolis.hpp</text>
</a>
</g>
</g>
<!-- Node1&#45;&gt;Node6 -->
<g id="edge5" class="edge">
<title>Node1&#45;&gt;Node6</title>
<path fill="none" stroke="midnightblue" d="M550.49,-358.44C515.77,-349.16 460.21,-334.31 422.12,-324.13"/>
<polygon fill="midnightblue" stroke="midnightblue" points="422.92,-320.72 412.36,-321.52 421.11,-327.48 422.92,-320.72"/>
</g>
<!-- Node52 -->
<g id="node24" class="node">
<title>Node52</title>
<g id="a_node24"><a xlink:href="_simulation_8hpp.html" target="_top" xlink:title="Simulation class.">
<polygon fill="white" stroke="black" points="491.5,-302.5 491.5,-321.5 581.5,-321.5 581.5,-302.5 491.5,-302.5"/>
<text text-anchor="middle" x="536.5" y="-309.5" font-family="Helvetica,sans-Serif" font-size="10.00">Simulation.hpp</text>
</a>
</g>
</g>
<!-- Node1&#45;&gt;Node52 -->
<g id="edge25" class="edge">
<title>Node1&#45;&gt;Node52</title>
<path fill="none" stroke="midnightblue" d="M574.9,-358.08C568.27,-350.3 558.48,-338.8 550.44,-329.37"/>
<polygon fill="midnightblue" stroke="midnightblue" points="553.1,-327.09 543.95,-321.75 547.77,-331.63 553.1,-327.09"/>
</g>
<!-- Node7 -->
<g id="node7" class="node">
<title>Node7</title>
<g id="a_node7"><a xlink:href="_move__strategy_8hpp.html" target="_top" xlink:title="Template class for move algorithms (strategies) on manifolds.">
<polygon fill="white" stroke="black" points="111,-246.5 111,-265.5 220,-265.5 220,-246.5 111,-246.5"/>
<text text-anchor="middle" x="165.5" y="-253.5" font-family="Helvetica,sans-Serif" font-size="10.00">Move_strategy.hpp</text>
</a>
</g>
</g>
<!-- Node6&#45;&gt;Node7 -->
<g id="edge6" class="edge">
<title>Node6&#45;&gt;Node7</title>
<path fill="none" stroke="midnightblue" d="M346.43,-302.44C309.32,-293.12 249.84,-278.18 209.29,-268"/>
<polygon fill="midnightblue" stroke="midnightblue" points="209.96,-264.56 199.41,-265.52 208.25,-271.35 209.96,-264.56"/>
</g>
<!-- Node49 -->
<g id="node19" class="node">
<title>Node49</title>
<g id="a_node19"><a xlink:href="_s3_action_8hpp.html" target="_top" xlink:title="Calculate S3 bulk actions on 3D Delaunay Triangulations.">
<polygon fill="white" stroke="black" points="256.5,-246.5 256.5,-265.5 336.5,-265.5 336.5,-246.5 256.5,-246.5"/>
<text text-anchor="middle" x="296.5" y="-253.5" font-family="Helvetica,sans-Serif" font-size="10.00">S3Action.hpp</text>
</a>
</g>
</g>
<!-- Node6&#45;&gt;Node49 -->
<g id="edge19" class="edge">
<title>Node6&#45;&gt;Node49</title>
<path fill="none" stroke="midnightblue" d="M367,-302.32C353.9,-293.9 333.79,-280.97 318.39,-271.07"/>
<polygon fill="midnightblue" stroke="midnightblue" points="320.27,-268.12 309.96,-265.65 316.48,-274.01 320.27,-268.12"/>
</g>
<!-- Node8 -->
<g id="node8" class="node">
<title>Node8</title>
<g id="a_node8"><a xlink:href="_move__command_8hpp.html" target="_top" xlink:title="Do ergodic moves using the Command pattern.">
<polygon fill="white" stroke="black" points="87,-190.5 87,-209.5 206,-209.5 206,-190.5 87,-190.5"/>
<text text-anchor="middle" x="146.5" y="-197.5" font-family="Helvetica,sans-Serif" font-size="10.00">Move_command.hpp</text>
</a>
</g>
</g>
<!-- Node7&#45;&gt;Node8 -->
<g id="edge7" class="edge">
<title>Node7&#45;&gt;Node8</title>
<path fill="none" stroke="midnightblue" d="M162.36,-246.08C159.82,-238.85 156.14,-228.41 152.97,-219.4"/>
<polygon fill="midnightblue" stroke="midnightblue" points="156.2,-218.02 149.58,-209.75 149.6,-220.35 156.2,-218.02"/>
</g>
<!-- Node9 -->
<g id="node9" class="node">
<title>Node9</title>
<g id="a_node9"><a xlink:href="_apply__move_8hpp.html" target="_top" xlink:title="Apply Pachner moves to foliated Delaunay triangulations.">
<polygon fill="white" stroke="black" points="220.5,-123.5 220.5,-142.5 318.5,-142.5 318.5,-123.5 220.5,-123.5"/>
<text text-anchor="middle" x="269.5" y="-130.5" font-family="Helvetica,sans-Serif" font-size="10.00">Apply_move.hpp</text>
</a>
</g>
</g>
<!-- Node8&#45;&gt;Node9 -->
<g id="edge8" class="edge">
<title>Node8&#45;&gt;Node9</title>
<path fill="none" stroke="midnightblue" d="M162.83,-190.37C183.6,-179.39 219.69,-160.32 244.07,-147.44"/>
<polygon fill="midnightblue" stroke="midnightblue" points="245.89,-150.43 253.1,-142.67 242.62,-144.25 245.89,-150.43"/>
</g>
<!-- Node17 -->
<g id="node17" class="node">
<title>Node17</title>
<g id="a_node17"><a xlink:href="_ergodic__moves__3_8hpp.html" target="_top" xlink:title="Pachner moves on 2+1 dimensional foliated Delaunay triangulations.">
<polygon fill="white" stroke="black" points="79,-123.5 79,-142.5 202,-142.5 202,-123.5 79,-123.5"/>
<text text-anchor="middle" x="140.5" y="-130.5" font-family="Helvetica,sans-Serif" font-size="10.00">Ergodic_moves_3.hpp</text>
</a>
</g>
</g>
<!-- Node8&#45;&gt;Node17 -->
<g id="edge16" class="edge">
<title>Node8&#45;&gt;Node17</title>
<path fill="none" stroke="midnightblue" d="M145.69,-190.23C144.81,-180.68 143.37,-165.12 142.23,-152.78"/>
<polygon fill="midnightblue" stroke="midnightblue" points="145.7,-152.26 141.3,-142.63 138.73,-152.91 145.7,-152.26"/>
</g>
<!-- Node10 -->
<g id="node10" class="node">
<title>Node10</title>
<g id="a_node10"><a xlink:href="_function__ref_8hpp.html" target="_top" xlink:title="Efficient, type&#45;erasing, non&#45;owning function reference.">
<polygon fill="white" stroke="black" points="315,-56.5 315,-75.5 412,-75.5 412,-56.5 315,-56.5"/>
<text text-anchor="middle" x="363.5" y="-63.5" font-family="Helvetica,sans-Serif" font-size="10.00">Function_ref.hpp</text>
</a>
</g>
</g>
<!-- Node9&#45;&gt;Node10 -->
<g id="edge9" class="edge">
<title>Node9&#45;&gt;Node10</title>
<path fill="none" stroke="midnightblue" d="M282.18,-123.23C297.68,-112.51 324.14,-94.22 342.66,-81.41"/>
<polygon fill="midnightblue" stroke="midnightblue" points="344.79,-84.19 351.02,-75.63 340.81,-78.44 344.79,-84.19"/>
</g>
<!-- Node14 -->
<g id="node14" class="node">
<title>Node14</title>
<g id="a_node14"><a xlink:title=" ">
<polygon fill="white" stroke="#bfbfbf" points="232,-56.5 232,-75.5 297,-75.5 297,-56.5 232,-56.5"/>
<text text-anchor="middle" x="264.5" y="-63.5" font-family="Helvetica,sans-Serif" font-size="10.00">functional</text>
</a>
</g>
</g>
<!-- Node9&#45;&gt;Node14 -->
<g id="edge13" class="edge">
<title>Node9&#45;&gt;Node14</title>
<path fill="none" stroke="midnightblue" d="M268.83,-123.23C268.09,-113.68 266.89,-98.12 265.94,-85.78"/>
<polygon fill="midnightblue" stroke="midnightblue" points="269.42,-85.33 265.16,-75.63 262.44,-85.87 269.42,-85.33"/>
</g>
<!-- Node15 -->
<g id="node15" class="node">
<title>Node15</title>
<g id="a_node15"><a xlink:title=" ">
<polygon fill="white" stroke="#bfbfbf" points="544.5,-56.5 544.5,-75.5 588.5,-75.5 588.5,-56.5 544.5,-56.5"/>
<text text-anchor="middle" x="566.5" y="-63.5" font-family="Helvetica,sans-Serif" font-size="10.00">string</text>
</a>
</g>
</g>
<!-- Node9&#45;&gt;Node15 -->
<g id="edge14" class="edge">
<title>Node9&#45;&gt;Node15</title>
<path fill="none" stroke="midnightblue" d="M308.63,-123.44C367.97,-110.45 479.59,-86.02 534.43,-74.02"/>
<polygon fill="midnightblue" stroke="midnightblue" points="535.28,-77.42 544.3,-71.86 533.78,-70.58 535.28,-77.42"/>
</g>
<!-- Node16 -->
<g id="node16" class="node">
<title>Node16</title>
<g id="a_node16"><a xlink:title=" ">
<polygon fill="white" stroke="#bfbfbf" points="121.5,-56.5 121.5,-75.5 213.5,-75.5 213.5,-56.5 121.5,-56.5"/>
<text text-anchor="middle" x="167.5" y="-63.5" font-family="Helvetica,sans-Serif" font-size="10.00">tl/expected.hpp</text>
</a>
</g>
</g>
<!-- Node9&#45;&gt;Node16 -->
<g id="edge15" class="edge">
<title>Node9&#45;&gt;Node16</title>
<path fill="none" stroke="midnightblue" d="M255.74,-123.23C238.77,-112.42 209.69,-93.88 189.57,-81.07"/>
<polygon fill="midnightblue" stroke="midnightblue" points="191.35,-78.05 181.04,-75.63 187.59,-83.95 191.35,-78.05"/>
</g>
<!-- Node11 -->
<g id="node11" class="node">
<title>Node11</title>
<g id="a_node11"><a xlink:title=" ">
<polygon fill="white" stroke="#bfbfbf" points="508.5,-0.5 508.5,-19.5 558.5,-19.5 558.5,-0.5 508.5,-0.5"/>
<text text-anchor="middle" x="533.5" y="-7.5" font-family="Helvetica,sans-Serif" font-size="10.00">cstdint</text>
</a>
</g>
</g>
<!-- Node10&#45;&gt;Node11 -->
<g id="edge10" class="edge">
<title>Node10&#45;&gt;Node11</title>
<path fill="none" stroke="midnightblue" d="M390.44,-56.44C419.67,-47.16 466.45,-32.3 498.5,-22.12"/>
<polygon fill="midnightblue" stroke="midnightblue" points="499.88,-25.35 508.35,-18.99 497.76,-18.68 499.88,-25.35"/>
</g>
<!-- Node12 -->
<g id="node12" class="node">
<title>Node12</title>
<g id="a_node12"><a xlink:title=" ">
<polygon fill="white" stroke="#bfbfbf" points="329,-0.5 329,-19.5 398,-19.5 398,-0.5 329,-0.5"/>
<text text-anchor="middle" x="363.5" y="-7.5" font-family="Helvetica,sans-Serif" font-size="10.00">type_traits</text>
</a>
</g>
</g>
<!-- Node10&#45;&gt;Node12 -->
<g id="edge11" class="edge">
<title>Node10&#45;&gt;Node12</title>
<path fill="none" stroke="midnightblue" d="M363.5,-56.08C363.5,-49.01 363.5,-38.86 363.5,-29.99"/>
<polygon fill="midnightblue" stroke="midnightblue" points="367,-29.75 363.5,-19.75 360,-29.75 367,-29.75"/>
</g>
<!-- Node13 -->
<g id="node13" class="node">
<title>Node13</title>
<g id="a_node13"><a xlink:title=" ">
<polygon fill="white" stroke="#bfbfbf" points="431,-0.5 431,-19.5 476,-19.5 476,-0.5 431,-0.5"/>
<text text-anchor="middle" x="453.5" y="-7.5" font-family="Helvetica,sans-Serif" font-size="10.00">utility</text>
</a>
</g>
</g>
<!-- Node10&#45;&gt;Node13 -->
<g id="edge12" class="edge">
<title>Node10&#45;&gt;Node13</title>
<path fill="none" stroke="midnightblue" d="M377.96,-56.32C392,-47.9 413.55,-34.97 430.04,-25.07"/>
<polygon fill="midnightblue" stroke="midnightblue" points="432.3,-27.8 439.08,-19.65 428.7,-21.8 432.3,-27.8"/>
</g>
<!-- Node17&#45;&gt;Node16 -->
<g id="edge18" class="edge">
<title>Node17&#45;&gt;Node16</title>
<path fill="none" stroke="midnightblue" d="M144.14,-123.23C148.19,-113.49 154.84,-97.48 160.01,-85.03"/>
<polygon fill="midnightblue" stroke="midnightblue" points="163.31,-86.2 163.92,-75.63 156.85,-83.52 163.31,-86.2"/>
</g>
<!-- Node18 -->
<g id="node18" class="node">
<title>Node18</title>
<g id="a_node18"><a xlink:href="_move__tracker_8hpp.html" target="_top" xlink:title="Track ergodic moves.">
<polygon fill="white" stroke="red" points="0,-56.5 0,-75.5 103,-75.5 103,-56.5 0,-56.5"/>
<text text-anchor="middle" x="51.5" y="-63.5" font-family="Helvetica,sans-Serif" font-size="10.00">Move_tracker.hpp</text>
</a>
</g>
</g>
<!-- Node17&#45;&gt;Node18 -->
<g id="edge17" class="edge">
<title>Node17&#45;&gt;Node18</title>
<path fill="none" stroke="midnightblue" d="M128.5,-123.23C113.95,-112.61 89.22,-94.55 71.72,-81.76"/>
<polygon fill="midnightblue" stroke="midnightblue" points="73.45,-78.7 63.31,-75.63 69.32,-84.35 73.45,-78.7"/>
</g>
<!-- Node23 -->
<g id="node20" class="node">
<title>Node23</title>
<g id="a_node20"><a xlink:href="_settings_8hpp.html" target="_top" xlink:title="Global integer and precision settings.">
<polygon fill="white" stroke="black" points="607,-56.5 607,-75.5 684,-75.5 684,-56.5 607,-56.5"/>
<text text-anchor="middle" x="645.5" y="-63.5" font-family="Helvetica,sans-Serif" font-size="10.00">Settings.hpp</text>
</a>
</g>
</g>
<!-- Node49&#45;&gt;Node23 -->
<g id="edge20" class="edge">
<title>Node49&#45;&gt;Node23</title>
<path fill="none" stroke="midnightblue" d="M306.21,-246.3C334.03,-221.81 417.17,-151.48 497.5,-112 529.09,-96.48 567.12,-85.05 596.72,-77.6"/>
<polygon fill="midnightblue" stroke="midnightblue" points="597.93,-80.91 606.81,-75.13 596.27,-74.11 597.93,-80.91"/>
</g>
<!-- Node50 -->
<g id="node22" class="node">
<title>Node50</title>
<g id="a_node22"><a xlink:title=" ">
<polygon fill="white" stroke="#bfbfbf" points="224.5,-190.5 224.5,-209.5 270.5,-209.5 270.5,-190.5 224.5,-190.5"/>
<text text-anchor="middle" x="247.5" y="-197.5" font-family="Helvetica,sans-Serif" font-size="10.00">cstdio</text>
</a>
</g>
</g>
<!-- Node49&#45;&gt;Node50 -->
<g id="edge23" class="edge">
<title>Node49&#45;&gt;Node50</title>
<path fill="none" stroke="midnightblue" d="M288.41,-246.08C281.34,-238.3 270.91,-226.8 262.35,-217.37"/>
<polygon fill="midnightblue" stroke="midnightblue" points="264.75,-214.8 255.44,-209.75 259.57,-219.51 264.75,-214.8"/>
</g>
<!-- Node51 -->
<g id="node23" class="node">
<title>Node51</title>
<g id="a_node23"><a xlink:title=" ">
<polygon fill="white" stroke="#bfbfbf" points="288.5,-190.5 288.5,-209.5 336.5,-209.5 336.5,-190.5 288.5,-190.5"/>
<text text-anchor="middle" x="312.5" y="-197.5" font-family="Helvetica,sans-Serif" font-size="10.00">mpfr.h</text>
</a>
</g>
</g>
<!-- Node49&#45;&gt;Node51 -->
<g id="edge24" class="edge">
<title>Node49&#45;&gt;Node51</title>
<path fill="none" stroke="midnightblue" d="M299.14,-246.08C301.29,-238.85 304.38,-228.41 307.05,-219.4"/>
<polygon fill="midnightblue" stroke="midnightblue" points="310.42,-220.33 309.91,-209.75 303.71,-218.34 310.42,-220.33"/>
</g>
<!-- Node23&#45;&gt;Node11 -->
<g id="edge22" class="edge">
<title>Node23&#45;&gt;Node11</title>
<path fill="none" stroke="midnightblue" d="M627.51,-56.32C609.46,-47.62 581.45,-34.12 560.7,-24.11"/>
<polygon fill="midnightblue" stroke="midnightblue" points="561.98,-20.84 551.45,-19.65 558.94,-27.15 561.98,-20.84"/>
</g>
<!-- Node24 -->
<g id="node21" class="node">
<title>Node24</title>
<g id="a_node21"><a xlink:title=" ">
<polygon fill="white" stroke="#bfbfbf" points="602.5,-0.5 602.5,-19.5 688.5,-19.5 688.5,-0.5 602.5,-0.5"/>
<text text-anchor="middle" x="645.5" y="-7.5" font-family="Helvetica,sans-Serif" font-size="10.00">CGAL/Gmpzf.h</text>
</a>
</g>
</g>
<!-- Node23&#45;&gt;Node24 -->
<g id="edge21" class="edge">
<title>Node23&#45;&gt;Node24</title>
<path fill="none" stroke="midnightblue" d="M645.5,-56.08C645.5,-49.01 645.5,-38.86 645.5,-29.99"/>
<polygon fill="midnightblue" stroke="midnightblue" points="649,-29.75 645.5,-19.75 642,-29.75 649,-29.75"/>
</g>
<!-- Node52&#45;&gt;Node4 -->
<g id="edge65" class="edge">
<title>Node52&#45;&gt;Node4</title>
<path fill="none" stroke="midnightblue" d="M581.5,-303.51C584.88,-302.99 588.25,-302.48 591.5,-302 595.45,-301.42 1726.74,-155.32 1730.5,-154 1734.77,-152.5 1739.08,-150.41 1743.11,-148.13"/>
<polygon fill="midnightblue" stroke="midnightblue" points="1745.23,-150.94 1751.88,-142.69 1741.54,-144.99 1745.23,-150.94"/>
</g>
<!-- Node52&#45;&gt;Node10 -->
<g id="edge26" class="edge">
<title>Node52&#45;&gt;Node10</title>
<path fill="none" stroke="midnightblue" d="M491.31,-309.75C457.74,-306.26 413.6,-295.78 388.5,-266 344.38,-213.66 353.28,-124.35 359.79,-85.72"/>
<polygon fill="midnightblue" stroke="midnightblue" points="363.24,-86.31 361.59,-75.84 356.35,-85.05 363.24,-86.31"/>
</g>
<!-- Node52&#45;&gt;Node13 -->
<g id="edge64" class="edge">
<title>Node52&#45;&gt;Node13</title>
<path fill="none" stroke="midnightblue" d="M532.02,-302.36C516.73,-272.21 466.91,-168.51 455.5,-76 453.6,-60.57 453.16,-42.94 453.17,-29.94"/>
<polygon fill="midnightblue" stroke="midnightblue" points="456.67,-29.9 453.26,-19.87 449.67,-29.84 456.67,-29.9"/>
</g>
<!-- Node53 -->
<g id="node25" class="node">
<title>Node53</title>
<g id="a_node25"><a xlink:href="_simplicial_manifold_8hpp.html" target="_top" xlink:title="Data structures for simplicial manifolds.">
<polygon fill="white" stroke="black" points="568.5,-246.5 568.5,-265.5 696.5,-265.5 696.5,-246.5 568.5,-246.5"/>
<text text-anchor="middle" x="632.5" y="-253.5" font-family="Helvetica,sans-Serif" font-size="10.00">SimplicialManifold.hpp</text>
</a>
</g>
</g>
<!-- Node52&#45;&gt;Node53 -->
<g id="edge27" class="edge">
<title>Node52&#45;&gt;Node53</title>
<path fill="none" stroke="midnightblue" d="M551.92,-302.32C567.04,-293.82 590.32,-280.73 607.97,-270.8"/>
<polygon fill="midnightblue" stroke="midnightblue" points="610.11,-273.61 617.11,-265.65 606.68,-267.51 610.11,-273.61"/>
</g>
<!-- Node53&#45;&gt;Node4 -->
<g id="edge63" class="edge">
<title>Node53&#45;&gt;Node4</title>
<path fill="none" stroke="midnightblue" d="M696.88,-249.13C931.53,-227.71 1727.4,-155.02 1730.5,-154 1734.99,-152.52 1739.51,-150.34 1743.7,-147.95"/>
<polygon fill="midnightblue" stroke="midnightblue" points="1745.62,-150.88 1752.22,-142.6 1741.89,-144.96 1745.62,-150.88"/>
</g>
<!-- Node53&#45;&gt;Node13 -->
<g id="edge62" class="edge">
<title>Node53&#45;&gt;Node13</title>
<path fill="none" stroke="midnightblue" d="M614.77,-246.46C585.91,-231.66 528.84,-198.52 497.5,-154 470.04,-115 459.34,-58.38 455.48,-29.48"/>
<polygon fill="midnightblue" stroke="midnightblue" points="458.95,-29.05 454.28,-19.54 452,-29.88 458.95,-29.05"/>
</g>
<!-- Node54 -->
<g id="node26" class="node">
<title>Node54</title>
<g id="a_node26"><a xlink:href="_s3_triangulation_8hpp.html" target="_top" xlink:title="Functions on 3D Spherical Delaunay Triangulations.">
<polygon fill="white" stroke="black" points="980,-190.5 980,-209.5 1093,-209.5 1093,-190.5 980,-190.5"/>
<text text-anchor="middle" x="1036.5" y="-197.5" font-family="Helvetica,sans-Serif" font-size="10.00">S3Triangulation.hpp</text>
</a>
</g>
</g>
<!-- Node53&#45;&gt;Node54 -->
<g id="edge28" class="edge">
<title>Node53&#45;&gt;Node54</title>
<path fill="none" stroke="midnightblue" d="M696.52,-246.44C771.1,-236.47 893.77,-220.08 969.58,-209.94"/>
<polygon fill="midnightblue" stroke="midnightblue" points="970.51,-213.35 979.96,-208.56 969.58,-206.41 970.51,-213.35"/>
</g>
<!-- Node55 -->
<g id="node46" class="node">
<title>Node55</title>
<g id="a_node46"><a xlink:title=" ">
<polygon fill="white" stroke="#bfbfbf" points="506.5,-123.5 506.5,-142.5 564.5,-142.5 564.5,-123.5 506.5,-123.5"/>
<text text-anchor="middle" x="535.5" y="-130.5" font-family="Helvetica,sans-Serif" font-size="10.00">memory</text>
</a>
</g>
</g>
<!-- Node53&#45;&gt;Node55 -->
<g id="edge60" class="edge">
<title>Node53&#45;&gt;Node55</title>
<path fill="none" stroke="midnightblue" d="M625.52,-246.3C609.44,-226.24 569.56,-176.49 548.7,-150.46"/>
<polygon fill="midnightblue" stroke="midnightblue" points="551.4,-148.24 542.41,-142.62 545.94,-152.61 551.4,-148.24"/>
</g>
<!-- Node56 -->
<g id="node47" class="node">
<title>Node56</title>
<g id="a_node47"><a xlink:title=" ">
<polygon fill="white" stroke="#bfbfbf" points="582.5,-123.5 582.5,-142.5 614.5,-142.5 614.5,-123.5 582.5,-123.5"/>
<text text-anchor="middle" x="598.5" y="-130.5" font-family="Helvetica,sans-Serif" font-size="10.00">set</text>
</a>
</g>
</g>
<!-- Node53&#45;&gt;Node56 -->
<g id="edge61" class="edge">
<title>Node53&#45;&gt;Node56</title>
<path fill="none" stroke="midnightblue" d="M627.59,-246.32C622.79,-237.45 615.62,-223.17 611.5,-210 605.58,-191.06 602.16,-168.58 600.32,-153"/>
<polygon fill="midnightblue" stroke="midnightblue" points="603.76,-152.18 599.22,-142.61 596.8,-152.92 603.76,-152.18"/>
</g>
<!-- Node58 -->
<g id="node49" class="node">
<title>Node58</title>
<g id="a_node49"><a xlink:title=" ">
<polygon fill="white" stroke="#bfbfbf" points="620,-190.5 620,-209.5 727,-209.5 727,-190.5 620,-190.5"/>
<text text-anchor="middle" x="673.5" y="-197.5" font-family="Helvetica,sans-Serif" font-size="10.00">boost/optional.hpp</text>
</a>
</g>
</g>
<!-- Node53&#45;&gt;Node58 -->
<g id="edge58" class="edge">
<title>Node53&#45;&gt;Node58</title>
<path fill="none" stroke="midnightblue" d="M639.27,-246.08C645.06,-238.46 653.56,-227.26 660.64,-217.94"/>
<polygon fill="midnightblue" stroke="midnightblue" points="663.6,-219.83 666.86,-209.75 658.02,-215.6 663.6,-219.83"/>
</g>
<!-- Node59 -->
<g id="node50" class="node">
<title>Node59</title>
<g id="a_node50"><a xlink:title=" ">
<polygon fill="white" stroke="#bfbfbf" points="745.5,-190.5 745.5,-209.5 783.5,-209.5 783.5,-190.5 745.5,-190.5"/>
<text text-anchor="middle" x="764.5" y="-197.5" font-family="Helvetica,sans-Serif" font-size="10.00">map</text>
</a>
</g>
</g>
<!-- Node53&#45;&gt;Node59 -->
<g id="edge59" class="edge">
<title>Node53&#45;&gt;Node59</title>
<path fill="none" stroke="midnightblue" d="M653.42,-246.44C675.75,-237.31 711.28,-222.77 736.12,-212.61"/>
<polygon fill="midnightblue" stroke="midnightblue" points="737.47,-215.84 745.4,-208.82 734.82,-209.36 737.47,-215.84"/>
</g>
<!-- Node54&#45;&gt;Node4 -->
<g id="edge57" class="edge">
<title>Node54&#45;&gt;Node4</title>
<path fill="none" stroke="midnightblue" d="M1093.26,-194.85C1114.92,-193.29 1139.85,-191.53 1162.5,-190 1288.69,-181.49 1609.83,-191.87 1730.5,-154 1735.01,-152.59 1739.54,-150.43 1743.73,-148.05"/>
<polygon fill="midnightblue" stroke="midnightblue" points="1745.65,-150.98 1752.25,-142.69 1741.92,-145.06 1745.65,-150.98"/>
</g>
<!-- Node54&#45;&gt;Node13 -->
<g id="edge56" class="edge">
<title>Node54&#45;&gt;Node13</title>
<path fill="none" stroke="midnightblue" d="M979.87,-197.03C889.08,-193.08 715.66,-182.02 661.5,-154 639.14,-142.43 644.11,-126.46 623.5,-112 588.91,-87.73 571.98,-97.34 535.5,-76 510.93,-61.63 485.72,-40.5 469.85,-26.27"/>
<polygon fill="midnightblue" stroke="midnightblue" points="472.21,-23.68 462.46,-19.53 467.49,-28.85 472.21,-23.68"/>
</g>
<!-- Node25 -->
<g id="node27" class="node">
<title>Node25</title>
<g id="a_node27"><a xlink:title=" ">
<polygon fill="white" stroke="#bfbfbf" points="1237.5,-123.5 1237.5,-142.5 1417.5,-142.5 1417.5,-123.5 1237.5,-123.5"/>
<text text-anchor="middle" x="1327.5" y="-130.5" font-family="Helvetica,sans-Serif" font-size="10.00">CGAL/Delaunay_triangulation_3.h</text>
</a>
</g>
</g>
<!-- Node54&#45;&gt;Node25 -->
<g id="edge29" class="edge">
<title>Node54&#45;&gt;Node25</title>
<path fill="none" stroke="midnightblue" d="M1074.84,-190.44C1127.4,-178.7 1221.82,-157.61 1279.16,-144.8"/>
<polygon fill="midnightblue" stroke="midnightblue" points="1280.08,-148.18 1289.07,-142.58 1278.55,-141.35 1280.08,-148.18"/>
</g>
<!-- Node26 -->
<g id="node28" class="node">
<title>Node26</title>
<g id="a_node28"><a xlink:title=" ">
<polygon fill="white" stroke="#bfbfbf" points="1436,-112.5 1436,-153.5 1565,-153.5 1565,-112.5 1436,-112.5"/>
<text text-anchor="start" x="1444" y="-141.5" font-family="Helvetica,sans-Serif" font-size="10.00">CGAL/Exact_predicates</text>
<text text-anchor="start" x="1444" y="-130.5" font-family="Helvetica,sans-Serif" font-size="10.00">_inexact_constructions</text>
<text text-anchor="middle" x="1500.5" y="-119.5" font-family="Helvetica,sans-Serif" font-size="10.00">_kernel.h</text>
</a>
</g>
</g>
<!-- Node54&#45;&gt;Node26 -->
<g id="edge30" class="edge">
<title>Node54&#45;&gt;Node26</title>
<path fill="none" stroke="midnightblue" d="M1093.09,-195.13C1167.32,-189.47 1301.7,-177.19 1425.61,-154.02"/>
<polygon fill="midnightblue" stroke="midnightblue" points="1426.48,-157.42 1435.66,-152.11 1425.18,-150.54 1426.48,-157.42"/>
</g>
<!-- Node27 -->
<g id="node29" class="node">
<title>Node27</title>
<g id="a_node29"><a xlink:title=" ">
<polygon fill="white" stroke="#bfbfbf" points="1583.5,-118 1583.5,-148 1721.5,-148 1721.5,-118 1583.5,-118"/>
<text text-anchor="start" x="1591.5" y="-136" font-family="Helvetica,sans-Serif" font-size="10.00">CGAL/Triangulation</text>
<text text-anchor="middle" x="1652.5" y="-125" font-family="Helvetica,sans-Serif" font-size="10.00">_cell_base_with_info_3.h</text>
</a>
</g>
</g>
<!-- Node54&#45;&gt;Node27 -->
<g id="edge31" class="edge">
<title>Node54&#45;&gt;Node27</title>
<path fill="none" stroke="midnightblue" d="M1093.42,-194.78C1222.12,-185.17 1528,-161.85 1574.5,-154 1580.56,-152.98 1586.84,-151.72 1593.09,-150.33"/>
<polygon fill="midnightblue" stroke="midnightblue" points="1593.89,-153.73 1602.83,-148.06 1592.3,-146.92 1593.89,-153.73"/>
</g>
<!-- Node28 -->
<g id="node30" class="node">
<title>Node28</title>
<g id="a_node30"><a xlink:title=" ">
<polygon fill="white" stroke="#bfbfbf" points="670.5,-118 670.5,-148 822.5,-148 822.5,-118 670.5,-118"/>
<text text-anchor="start" x="678.5" y="-136" font-family="Helvetica,sans-Serif" font-size="10.00">CGAL/Triangulation</text>
<text text-anchor="middle" x="746.5" y="-125" font-family="Helvetica,sans-Serif" font-size="10.00">_vertex_base_with_info_3.h</text>
</a>
</g>
</g>
<!-- Node54&#45;&gt;Node28 -->
<g id="edge32" class="edge">
<title>Node54&#45;&gt;Node28</title>
<path fill="none" stroke="midnightblue" d="M996.98,-190.42C955.86,-181.46 889.63,-166.94 832.5,-154 827.27,-152.81 821.86,-151.58 816.42,-150.33"/>
<polygon fill="midnightblue" stroke="midnightblue" points="817.16,-146.91 806.63,-148.07 815.58,-153.73 817.16,-146.91"/>
</g>
<!-- Node29 -->
<g id="node31" class="node">
<title>Node29</title>
<g id="a_node31"><a xlink:title=" ">
<polygon fill="white" stroke="#bfbfbf" points="841,-123.5 841,-142.5 990,-142.5 990,-123.5 841,-123.5"/>
<text text-anchor="middle" x="915.5" y="-130.5" font-family="Helvetica,sans-Serif" font-size="10.00">CGAL/point_generators_3.h</text>
</a>
</g>
</g>
<!-- Node54&#45;&gt;Node29 -->
<g id="edge33" class="edge">
<title>Node54&#45;&gt;Node29</title>
<path fill="none" stroke="midnightblue" d="M1020.18,-190.23C999.68,-179.22 964.3,-160.21 940.41,-147.38"/>
<polygon fill="midnightblue" stroke="midnightblue" points="942.03,-144.28 931.56,-142.63 938.71,-150.44 942.03,-144.28"/>
</g>
<!-- Node30 -->
<g id="node32" class="node">
<title>Node30</title>
<g id="a_node32"><a xlink:href="_utilities_8hpp.html" target="_top" xlink:title="Utility functions.">
<polygon fill="white" stroke="red" points="1083.5,-123.5 1083.5,-142.5 1159.5,-142.5 1159.5,-123.5 1083.5,-123.5"/>
<text text-anchor="middle" x="1121.5" y="-130.5" font-family="Helvetica,sans-Serif" font-size="10.00">Utilities.hpp</text>
</a>
</g>
</g>
<!-- Node54&#45;&gt;Node30 -->
<g id="edge34" class="edge">
<title>Node54&#45;&gt;Node30</title>
<path fill="none" stroke="midnightblue" d="M1047.96,-190.23C1061.86,-179.61 1085.48,-161.55 1102.19,-148.76"/>
<polygon fill="midnightblue" stroke="midnightblue" points="1104.4,-151.48 1110.22,-142.63 1100.15,-145.92 1104.4,-151.48"/>
</g>
<!-- Node34 -->
<g id="node36" class="node">
<title>Node34</title>
<g id="a_node36"><a xlink:title=" ">
<polygon fill="white" stroke="#bfbfbf" points="785.5,-56.5 785.5,-75.5 849.5,-75.5 849.5,-56.5 785.5,-56.5"/>
<text text-anchor="middle" x="817.5" y="-63.5" font-family="Helvetica,sans-Serif" font-size="10.00">algorithm</text>
</a>
</g>
</g>
<!-- Node54&#45;&gt;Node34 -->
<g id="edge51" class="edge">
<title>Node54&#45;&gt;Node34</title>
<path fill="none" stroke="midnightblue" d="M1039.06,-190.34C1043.58,-173.13 1050.75,-134.35 1031.5,-112 980.54,-52.82 935.91,-92.18 859.5,-76 859.4,-75.98 859.3,-75.96 859.2,-75.94"/>
<polygon fill="midnightblue" stroke="midnightblue" points="860.11,-72.55 849.6,-73.9 858.65,-79.4 860.11,-72.55"/>
</g>
<!-- Node41 -->
<g id="node43" class="node">
<title>Node41</title>
<g id="a_node43"><a xlink:title=" ">
<polygon fill="white" stroke="#bfbfbf" points="702,-56.5 702,-75.5 767,-75.5 767,-56.5 702,-56.5"/>
<text text-anchor="middle" x="734.5" y="-63.5" font-family="Helvetica,sans-Serif" font-size="10.00">stdexcept</text>
</a>
</g>
</g>
<!-- Node54&#45;&gt;Node41 -->
<g id="edge54" class="edge">
<title>Node54&#45;&gt;Node41</title>
<path fill="none" stroke="midnightblue" d="M1035.57,-190.44C1033.14,-172.71 1024.96,-131.94 999.5,-112 922.93,-52.04 878.03,-91.85 776.98,-75.87"/>
<polygon fill="midnightblue" stroke="midnightblue" points="777.48,-72.4 767.03,-74.14 776.28,-79.3 777.48,-72.4"/>
</g>
<!-- Node54&#45;&gt;Node55 -->
<g id="edge52" class="edge">
<title>Node54&#45;&gt;Node55</title>
<path fill="none" stroke="midnightblue" d="M979.75,-196.22C873.41,-190.57 648.16,-176.34 573.5,-154 568.19,-152.41 562.76,-150.06 557.73,-147.52"/>
<polygon fill="midnightblue" stroke="midnightblue" points="559.12,-144.3 548.67,-142.56 555.76,-150.43 559.12,-144.3"/>
</g>
<!-- Node54&#45;&gt;Node56 -->
<g id="edge53" class="edge">
<title>Node54&#45;&gt;Node56</title>
<path fill="none" stroke="midnightblue" d="M979.91,-196.08C883.5,-190.54 691.7,-176.99 628.5,-154 624.58,-152.57 620.66,-150.53 617.01,-148.29"/>
<polygon fill="midnightblue" stroke="midnightblue" points="618.88,-145.33 608.66,-142.56 614.92,-151.1 618.88,-145.33"/>
</g>
<!-- Node57 -->
<g id="node48" class="node">
<title>Node57</title>
<g id="a_node48"><a xlink:title=" ">
<polygon fill="white" stroke="#bfbfbf" points="1178,-123.5 1178,-142.5 1219,-142.5 1219,-123.5 1178,-123.5"/>
<text text-anchor="middle" x="1198.5" y="-130.5" font-family="Helvetica,sans-Serif" font-size="10.00">tuple</text>
</a>
</g>
</g>
<!-- Node54&#45;&gt;Node57 -->
<g id="edge55" class="edge">
<title>Node54&#45;&gt;Node57</title>
<path fill="none" stroke="midnightblue" d="M1069.17,-190.43C1096.47,-182.67 1136.04,-170.01 1168.5,-154 1171.96,-152.29 1175.49,-150.25 1178.86,-148.13"/>
<polygon fill="midnightblue" stroke="midnightblue" points="1180.88,-150.99 1187.24,-142.52 1176.98,-145.18 1180.88,-150.99"/>
</g>
<!-- Node30&#45;&gt;Node3 -->
<g id="edge42" class="edge">
<title>Node30&#45;&gt;Node3</title>
<path fill="none" stroke="midnightblue" d="M1138.36,-123.33C1147.36,-119.13 1158.77,-114.47 1169.5,-112 1435.62,-50.71 1515.71,-118.91 1789.25,-75.82"/>
<polygon fill="midnightblue" stroke="midnightblue" points="1790.16,-79.22 1799.48,-74.17 1789.05,-72.31 1790.16,-79.22"/>
</g>
<!-- Node30&#45;&gt;Node15 -->
<g id="edge47" class="edge">
<title>Node30&#45;&gt;Node15</title>
<path fill="none" stroke="midnightblue" d="M1083.41,-125.02C1059.4,-120.81 1027.71,-115.57 999.5,-112 825.19,-89.92 776.25,-107.69 598.69,-75.65"/>
<polygon fill="midnightblue" stroke="midnightblue" points="599.22,-72.19 588.76,-73.83 597.96,-79.07 599.22,-72.19"/>
</g>
<!-- Node30&#45;&gt;Node23 -->
<g id="edge50" class="edge">
<title>Node30&#45;&gt;Node23</title>
<path fill="none" stroke="midnightblue" d="M1083.38,-125.29C1059.35,-121.18 1027.66,-115.96 999.5,-112 867.08,-93.37 830.57,-96.47 694.23,-76.01"/>
<polygon fill="midnightblue" stroke="midnightblue" points="694.65,-72.54 684.23,-74.5 693.6,-79.46 694.65,-72.54"/>
</g>
<!-- Node31 -->
<g id="node33" class="node">
<title>Node31</title>
<g id="a_node33"><a xlink:title=" ">
<polygon fill="white" stroke="#bfbfbf" points="945,-56.5 945,-75.5 1028,-75.5 1028,-56.5 945,-56.5"/>
<text text-anchor="middle" x="986.5" y="-63.5" font-family="Helvetica,sans-Serif" font-size="10.00">CGAL/Timer.h</text>
</a>
</g>
</g>
<!-- Node30&#45;&gt;Node31 -->
<g id="edge35" class="edge">
<title>Node30&#45;&gt;Node31</title>
<path fill="none" stroke="midnightblue" d="M1103.57,-123.37C1080.58,-112.3 1040.47,-92.99 1013.7,-80.1"/>
<polygon fill="midnightblue" stroke="midnightblue" points="1015.03,-76.85 1004.5,-75.67 1011.99,-83.16 1015.03,-76.85"/>
</g>
<!-- Node32 -->
<g id="node34" class="node">
<title>Node32</title>
<g id="a_node34"><a xlink:title=" ">
<polygon fill="white" stroke="#bfbfbf" points="1046.5,-56.5 1046.5,-75.5 1134.5,-75.5 1134.5,-56.5 1046.5,-56.5"/>
<text text-anchor="middle" x="1090.5" y="-63.5" font-family="Helvetica,sans-Serif" font-size="10.00">sys/utsname.h</text>
</a>
</g>
</g>
<!-- Node30&#45;&gt;Node32 -->
<g id="edge36" class="edge">
<title>Node30&#45;&gt;Node32</title>
<path fill="none" stroke="midnightblue" d="M1117.32,-123.23C1112.62,-113.39 1104.88,-97.16 1098.92,-84.66"/>
<polygon fill="midnightblue" stroke="midnightblue" points="1102.08,-83.15 1094.61,-75.63 1095.76,-86.16 1102.08,-83.15"/>
</g>
<!-- Node33 -->
<g id="node35" class="node">
<title>Node33</title>
<g id="a_node35"><a xlink:title=" ">
<polygon fill="white" stroke="#bfbfbf" points="1153,-56.5 1153,-75.5 1270,-75.5 1270,-56.5 1153,-56.5"/>
<text text-anchor="middle" x="1211.5" y="-63.5" font-family="Helvetica,sans-Serif" font-size="10.00">boost/date_time.hpp</text>
</a>
</g>
</g>
<!-- Node30&#45;&gt;Node33 -->
<g id="edge37" class="edge">
<title>Node30&#45;&gt;Node33</title>
<path fill="none" stroke="midnightblue" d="M1133.64,-123.23C1148.35,-112.61 1173.36,-94.55 1191.06,-81.76"/>
<polygon fill="midnightblue" stroke="midnightblue" points="1193.5,-84.32 1199.55,-75.63 1189.4,-78.64 1193.5,-84.32"/>
</g>
<!-- Node30&#45;&gt;Node34 -->
<g id="edge38" class="edge">
<title>Node30&#45;&gt;Node34</title>
<path fill="none" stroke="midnightblue" d="M1102.05,-123.47C1092.41,-119.51 1080.5,-115.03 1069.5,-112 978.2,-86.88 952.48,-93.92 859.5,-76 859.4,-75.98 859.3,-75.96 859.2,-75.94"/>
<polygon fill="midnightblue" stroke="midnightblue" points="860.07,-72.55 849.58,-74.02 858.69,-79.41 860.07,-72.55"/>
</g>
<!-- Node35 -->
<g id="node37" class="node">
<title>Node35</title>
<g id="a_node37"><a xlink:title=" ">
<polygon fill="white" stroke="#bfbfbf" points="1288.5,-56.5 1288.5,-75.5 1340.5,-75.5 1340.5,-56.5 1288.5,-56.5"/>
<text text-anchor="middle" x="1314.5" y="-63.5" font-family="Helvetica,sans-Serif" font-size="10.00">cassert</text>
</a>
</g>
</g>
<!-- Node30&#45;&gt;Node35 -->
<g id="edge39" class="edge">
<title>Node30&#45;&gt;Node35</title>
<path fill="none" stroke="midnightblue" d="M1140.95,-123.41C1149.62,-119.71 1159.99,-115.45 1169.5,-112 1206.18,-98.7 1248.93,-85.73 1278.46,-77.16"/>
<polygon fill="midnightblue" stroke="midnightblue" points="1279.68,-80.45 1288.32,-74.32 1277.75,-73.73 1279.68,-80.45"/>
</g>
<!-- Node36 -->
<g id="node38" class="node">
<title>Node36</title>
<g id="a_node38"><a xlink:title=" ">
<polygon fill="white" stroke="#bfbfbf" points="1359,-56.5 1359,-75.5 1408,-75.5 1408,-56.5 1359,-56.5"/>
<text text-anchor="middle" x="1383.5" y="-63.5" font-family="Helvetica,sans-Serif" font-size="10.00">cstdlib</text>
</a>
</g>
</g>
<!-- Node30&#45;&gt;Node36 -->
<g id="edge40" class="edge">
<title>Node30&#45;&gt;Node36</title>
<path fill="none" stroke="midnightblue" d="M1139.88,-123.34C1148.69,-119.45 1159.48,-115.06 1169.5,-112 1244.49,-89.12 1268.19,-94 1348.57,-76.07"/>
<polygon fill="midnightblue" stroke="midnightblue" points="1349.69,-79.4 1358.66,-73.76 1348.13,-72.58 1349.69,-79.4"/>
</g>
<!-- Node37 -->
<g id="node39" class="node">
<title>Node37</title>
<g id="a_node39"><a xlink:title=" ">
<polygon fill="white" stroke="#bfbfbf" points="1426,-56.5 1426,-75.5 1481,-75.5 1481,-56.5 1426,-56.5"/>
<text text-anchor="middle" x="1453.5" y="-63.5" font-family="Helvetica,sans-Serif" font-size="10.00">fstream</text>
</a>
</g>
</g>
<!-- Node30&#45;&gt;Node37 -->
<g id="edge41" class="edge">
<title>Node30&#45;&gt;Node37</title>
<path fill="none" stroke="midnightblue" d="M1139.36,-123.3C1148.23,-119.31 1159.23,-114.84 1169.5,-112 1273.71,-83.22 1306.32,-96.68 1415.55,-76.21"/>
<polygon fill="midnightblue" stroke="midnightblue" points="1416.5,-79.59 1425.65,-74.26 1415.17,-72.71 1416.5,-79.59"/>
</g>
<!-- Node38 -->
<g id="node40" class="node">
<title>Node38</title>
<g id="a_node40"><a xlink:title=" ">
<polygon fill="white" stroke="#bfbfbf" points="1499.5,-56.5 1499.5,-75.5 1559.5,-75.5 1559.5,-56.5 1499.5,-56.5"/>
<text text-anchor="middle" x="1529.5" y="-63.5" font-family="Helvetica,sans-Serif" font-size="10.00">iostream</text>
</a>
</g>
</g>
<!-- Node30&#45;&gt;Node38 -->
<g id="edge43" class="edge">
<title>Node30&#45;&gt;Node38</title>
<path fill="none" stroke="midnightblue" d="M1138.87,-123.36C1147.81,-119.28 1159.01,-114.71 1169.5,-112 1305.36,-76.84 1347.12,-99.13 1489.37,-75.99"/>
<polygon fill="midnightblue" stroke="midnightblue" points="1490.05,-79.42 1499.34,-74.32 1488.9,-72.52 1490.05,-79.42"/>
</g>
<!-- Node39 -->
<g id="node41" class="node">
<title>Node39</title>
<g id="a_node41"><a xlink:title=" ">
<polygon fill="white" stroke="#bfbfbf" points="1577.5,-56.5 1577.5,-75.5 1625.5,-75.5 1625.5,-56.5 1577.5,-56.5"/>
<text text-anchor="middle" x="1601.5" y="-63.5" font-family="Helvetica,sans-Serif" font-size="10.00">mutex</text>
</a>
</g>
</g>
<!-- Node30&#45;&gt;Node39 -->
<g id="edge44" class="edge">
<title>Node30&#45;&gt;Node39</title>
<path fill="none" stroke="midnightblue" d="M1138.4,-123.47C1147.41,-119.31 1158.81,-114.64 1169.5,-112 1339.23,-70.04 1391.38,-106.19 1567.61,-75.83"/>
<polygon fill="midnightblue" stroke="midnightblue" points="1568.22,-79.27 1577.46,-74.08 1567,-72.38 1568.22,-79.27"/>
</g>
<!-- Node40 -->
<g id="node42" class="node">
<title>Node40</title>
<g id="a_node42"><a xlink:title=" ">
<polygon fill="white" stroke="#bfbfbf" points="1643.5,-56.5 1643.5,-75.5 1697.5,-75.5 1697.5,-56.5 1643.5,-56.5"/>
<text text-anchor="middle" x="1670.5" y="-63.5" font-family="Helvetica,sans-Serif" font-size="10.00">random</text>
</a>
</g>
</g>
<!-- Node30&#45;&gt;Node40 -->
<g id="edge45" class="edge">
<title>Node30&#45;&gt;Node40</title>
<path fill="none" stroke="midnightblue" d="M1138.38,-123.41C1147.39,-119.24 1158.79,-114.58 1169.5,-112 1367.89,-64.29 1428.03,-107.85 1633.58,-75.85"/>
<polygon fill="midnightblue" stroke="midnightblue" points="1634.15,-79.31 1643.47,-74.27 1633.05,-72.39 1634.15,-79.31"/>
</g>
<!-- Node30&#45;&gt;Node41 -->
<g id="edge46" class="edge">
<title>Node30&#45;&gt;Node41</title>
<path fill="none" stroke="midnightblue" d="M1086.15,-123.47C1069.61,-119.66 1049.61,-115.29 1031.5,-112 922.07,-92.15 890.94,-95.77 777.18,-76"/>
<polygon fill="midnightblue" stroke="midnightblue" points="777.47,-72.49 767.01,-74.21 776.26,-79.39 777.47,-72.49"/>
</g>
<!-- Node42 -->
<g id="node44" class="node">
<title>Node42</title>
<g id="a_node44"><a xlink:title=" ">
<polygon fill="white" stroke="#bfbfbf" points="1716,-56.5 1716,-75.5 1781,-75.5 1781,-56.5 1716,-56.5"/>
<text text-anchor="middle" x="1748.5" y="-63.5" font-family="Helvetica,sans-Serif" font-size="10.00">typeindex</text>
</a>
</g>
</g>
<!-- Node30&#45;&gt;Node42 -->
<g id="edge48" class="edge">
<title>Node30&#45;&gt;Node42</title>
<path fill="none" stroke="midnightblue" d="M1138.37,-123.37C1147.37,-119.18 1158.78,-114.52 1169.5,-112 1399.17,-58.01 1467.74,-107.75 1705.58,-75.9"/>
<polygon fill="midnightblue" stroke="midnightblue" points="1706.13,-79.35 1715.56,-74.53 1705.18,-72.42 1706.13,-79.35"/>
</g>
<!-- Node43 -->
<g id="node45" class="node">
<title>Node43</title>
<g id="a_node45"><a xlink:title=" ">
<polygon fill="white" stroke="#bfbfbf" points="868,-56.5 868,-75.5 927,-75.5 927,-56.5 868,-56.5"/>
<text text-anchor="middle" x="897.5" y="-63.5" font-family="Helvetica,sans-Serif" font-size="10.00">date/tz.h</text>
</a>
</g>
</g>
<!-- Node30&#45;&gt;Node43 -->
<g id="edge49" class="edge">
<title>Node30&#45;&gt;Node43</title>
<path fill="none" stroke="midnightblue" d="M1100.94,-123.49C1091.46,-119.72 1080,-115.38 1069.5,-112 1045.09,-104.14 979.89,-87.52 937.15,-76.83"/>
<polygon fill="midnightblue" stroke="midnightblue" points="937.88,-73.4 927.33,-74.38 936.19,-80.2 937.88,-73.4"/>
</g>
</g>
</svg>
        <g id="navigator" transform="translate(0 0)" fill="#404254">
                <rect fill="#f2f5e9" fill-opacity="0.5" stroke="#606060" stroke-width=".5" x="0" y="0" width="60" height="60"/>
                <use id="zoomplus" xlink:href="#zoomPlus" x="17" y="9" onmousedown="handleZoom(evt,'in')"/>
                <use id="zoomminus" xlink:href="#zoomMin" x="42" y="9" onmousedown="handleZoom(evt,'out')"/>
                <use id="reset" xlink:href="#resetDef" x="30" y="36" onmousedown="handleReset()"/>
                <g id="arrowUp" xlink:href="#dirArrow" transform="translate(30 24)" onmousedown="handlePan(0,-1)">
                  <use xlink:href="#rim" fill="#404040">
                        <set attributeName="fill" to="#808080" begin="arrowUp.mouseover" end="arrowUp.mouseout"/>
                  </use>
                  <path fill="none" stroke="white" stroke-width="1.5" d="M0,-3.0v7 M-2.5,-0.5L0,-3.0L2.5,-0.5"/>
                </g>
                <g id="arrowRight" xlink:href="#dirArrow" transform="rotate(90) translate(36 -43)" onmousedown="handlePan(1,0)">
                  <use xlink:href="#rim" fill="#404040">
                        <set attributeName="fill" to="#808080" begin="arrowRight.mouseover" end="arrowRight.mouseout"/>
                  </use>
                  <path fill="none" stroke="white" stroke-width="1.5" d="M0,-3.0v7 M-2.5,-0.5L0,-3.0L2.5,-0.5"/>
                </g>
                <g id="arrowDown" xlink:href="#dirArrow" transform="rotate(180) translate(-30 -48)" onmousedown="handlePan(0,1)">
                  <use xlink:href="#rim" fill="#404040">
                        <set attributeName="fill" to="#808080" begin="arrowDown.mouseover" end="arrowDown.mouseout"/>
                  </use>
                  <path fill="none" stroke="white" stroke-width="1.5" d="M0,-3.0v7 M-2.5,-0.5L0,-3.0L2.5,-0.5"/>
                </g>
                <g id="arrowLeft" xlink:href="#dirArrow" transform="rotate(270) translate(-36 17)" onmousedown="handlePan(-1,0)">
                  <use xlink:href="#rim" fill="#404040">
                        <set attributeName="fill" to="#808080" begin="arrowLeft.mouseover" end="arrowLeft.mouseout"/>
                  </use>
                  <path fill="none" stroke="white" stroke-width="1.5" d="M0,-3.0v7 M-2.5,-0.5L0,-3.0L2.5,-0.5"/>
                </g>
        </g>
        <svg viewBox="0 0 15 15" width="100%" height="30px" preserveAspectRatio="xMaxYMin meet">
         <g id="arrow_out" transform="scale(0.3 0.3)">
          <a xlink:href="cdt_8cpp__incl_org.svg" target="_base">
           <rect id="button" ry="5" rx="5" y="6" x="6" height="38" width="38"
                fill="#f2f5e9" fill-opacity="0.5" stroke="#606060" stroke-width="1.0"/>
           <path id="arrow"
             d="M 11.500037,31.436501 C 11.940474,20.09759 22.043105,11.32322 32.158766,21.979434 L 37.068811,17.246167 C 37.068811,17.246167 37.088388,32 37.088388,32 L 22.160133,31.978069 C 22.160133,31.978069 26.997745,27.140456 26.997745,27.140456 C 18.528582,18.264221 13.291696,25.230495 11.500037,31.436501 z"
             style="fill:#404040;"/>
          </a>
         </g>
        </svg>
</svg>
