<?xml version="1.0" encoding="UTF-8" standalone="no"?>
<!DOCTYPE svg PUBLIC "-//W3C//DTD SVG 1.1//EN"
 "http://www.w3.org/Graphics/SVG/1.1/DTD/svg11.dtd">
<!-- Generated by graphviz version 2.43.0 (0)
 -->
<!-- Title: src/cdt.cpp Pages: 1 -->
<svg width="2023pt" height="386pt"
 viewBox="0.00 0.00 2022.50 386.00" xmlns="http://www.w3.org/2000/svg" xmlns:xlink="http://www.w3.org/1999/xlink">
<g id="graph0" class="graph" transform="scale(1 1) rotate(0) translate(4 382)">
<title>src/cdt.cpp</title>
<polygon fill="white" stroke="transparent" points="-4,4 -4,-382 2018.5,-382 2018.5,4 -4,4"/>
<!-- Node1 -->
<g id="node1" class="node">
<title>Node1</title>
<g id="a_node1"><a xlink:title="The main executable.">
<polygon fill="#bfbfbf" stroke="black" points="991,-358.5 991,-377.5 1060,-377.5 1060,-358.5 991,-358.5"/>
<text text-anchor="middle" x="1025.5" y="-365.5" font-family="Helvetica,sans-Serif" font-size="10.00">src/cdt.cpp</text>
</a>
</g>
</g>
<!-- Node2 -->
<g id="node2" class="node">
<title>Node2</title>
<g id="a_node2"><a xlink:title=" ">
<polygon fill="white" stroke="#bfbfbf" points="0,-302.5 0,-321.5 107,-321.5 107,-302.5 0,-302.5"/>
<text text-anchor="middle" x="53.5" y="-309.5" font-family="Helvetica,sans-Serif" font-size="10.00">CGAL/Real_timer.h</text>
</a>
</g>
</g>
<!-- Node1&#45;&gt;Node2 -->
<g id="edge1" class="edge">
<title>Node1&#45;&gt;Node2</title>
<path fill="none" stroke="midnightblue" d="M990.94,-366.3C870.7,-363.64 459.53,-352.73 121.5,-322 120.2,-321.88 118.88,-321.76 117.56,-321.63"/>
<polygon fill="midnightblue" stroke="midnightblue" points="117.59,-318.11 107.28,-320.53 116.85,-325.07 117.59,-318.11"/>
</g>
<!-- Node3 -->
<g id="node3" class="node">
<title>Node3</title>
<g id="a_node3"><a xlink:title=" ">
<polygon fill="white" stroke="#bfbfbf" points="1468.5,-56.5 1468.5,-75.5 1516.5,-75.5 1516.5,-56.5 1468.5,-56.5"/>
<text text-anchor="middle" x="1492.5" y="-63.5" font-family="Helvetica,sans-Serif" font-size="10.00">gsl/gsl</text>
</a>
</g>
</g>
<!-- Node1&#45;&gt;Node3 -->
<g id="edge2" class="edge">
<title>Node1&#45;&gt;Node3</title>
<path fill="none" stroke="midnightblue" d="M1060.15,-366.24C1168.14,-362.93 1491.5,-345.63 1491.5,-257 1491.5,-257 1491.5,-257 1491.5,-199 1491.5,-158.66 1491.97,-111.38 1492.27,-85.78"/>
<polygon fill="midnightblue" stroke="midnightblue" points="1495.77,-85.69 1492.39,-75.65 1488.77,-85.61 1495.77,-85.69"/>
</g>
<!-- Node4 -->
<g id="node4" class="node">
<title>Node4</title>
<g id="a_node4"><a xlink:title=" ">
<polygon fill="white" stroke="#bfbfbf" points="145,-123.5 145,-142.5 192,-142.5 192,-123.5 145,-123.5"/>
<text text-anchor="middle" x="168.5" y="-130.5" font-family="Helvetica,sans-Serif" font-size="10.00">vector</text>
</a>
</g>
</g>
<!-- Node1&#45;&gt;Node4 -->
<g id="edge3" class="edge">
<title>Node1&#45;&gt;Node4</title>
<path fill="none" stroke="midnightblue" d="M990.93,-366.24C906.19,-363.89 681.58,-354.83 497.5,-322 404.94,-305.49 379.64,-303.67 293.5,-266 250.34,-247.12 234.67,-245.33 203.5,-210 188.68,-193.2 179.01,-169.06 173.67,-152.52"/>
<polygon fill="midnightblue" stroke="midnightblue" points="177.01,-151.47 170.77,-142.9 170.31,-153.49 177.01,-151.47"/>
</g>
<!-- Node5 -->
<g id="node5" class="node">
<title>Node5</title>
<g id="a_node5"><a xlink:title=" ">
<polygon fill="white" stroke="#bfbfbf" points="1701,-302.5 1701,-321.5 1760,-321.5 1760,-302.5 1701,-302.5"/>
<text text-anchor="middle" x="1730.5" y="-309.5" font-family="Helvetica,sans-Serif" font-size="10.00">docopt.h</text>
</a>
</g>
</g>
<!-- Node1&#45;&gt;Node5 -->
<g id="edge4" class="edge">
<title>Node1&#45;&gt;Node5</title>
<path fill="none" stroke="midnightblue" d="M1060.08,-366.68C1157.81,-365.34 1444.39,-358.47 1690.51,-322.07"/>
<polygon fill="midnightblue" stroke="midnightblue" points="1691.35,-325.49 1700.72,-320.54 1690.31,-318.57 1691.35,-325.49"/>
</g>
<!-- Node6 -->
<g id="node6" class="node">
<title>Node6</title>
<g id="a_node6"><a xlink:href="_metropolis_8hpp.html" target="_top" xlink:title="Perform Metropolis&#45;Hastings algorithm on Delaunay Triangulations.">
<polygon fill="white" stroke="black" points="1594,-302.5 1594,-321.5 1683,-321.5 1683,-302.5 1594,-302.5"/>
<text text-anchor="middle" x="1638.5" y="-309.5" font-family="Helvetica,sans-Serif" font-size="10.00">Metropolis.hpp</text>
</a>
</g>
</g>
<!-- Node1&#45;&gt;Node6 -->
<g id="edge5" class="edge">
<title>Node1&#45;&gt;Node6</title>
<path fill="none" stroke="midnightblue" d="M1060.21,-363.94C1161.96,-354.98 1460.02,-328.72 1583.72,-317.83"/>
<polygon fill="midnightblue" stroke="midnightblue" points="1584.08,-321.31 1593.73,-316.94 1583.46,-314.33 1584.08,-321.31"/>
</g>
<!-- Node53 -->
<g id="node24" class="node">
<title>Node53</title>
<g id="a_node24"><a xlink:href="_simulation_8hpp.html" target="_top" xlink:title="Simulation class.">
<polygon fill="white" stroke="black" points="506.5,-302.5 506.5,-321.5 596.5,-321.5 596.5,-302.5 506.5,-302.5"/>
<text text-anchor="middle" x="551.5" y="-309.5" font-family="Helvetica,sans-Serif" font-size="10.00">Simulation.hpp</text>
</a>
</g>
</g>
<!-- Node1&#45;&gt;Node53 -->
<g id="edge26" class="edge">
<title>Node1&#45;&gt;Node53</title>
<path fill="none" stroke="midnightblue" d="M990.65,-363.03C909.08,-353.74 705.25,-330.52 606.65,-319.28"/>
<polygon fill="midnightblue" stroke="midnightblue" points="606.92,-315.79 596.59,-318.14 606.12,-322.75 606.92,-315.79"/>
</g>
<!-- Node7 -->
<g id="node7" class="node">
<title>Node7</title>
<g id="a_node7"><a xlink:href="_move__strategy_8hpp.html" target="_top" xlink:title="Base class for move algorithms on Delaunay Triangulations.">
<polygon fill="white" stroke="black" points="1528,-246.5 1528,-265.5 1637,-265.5 1637,-246.5 1528,-246.5"/>
<text text-anchor="middle" x="1582.5" y="-253.5" font-family="Helvetica,sans-Serif" font-size="10.00">Move_strategy.hpp</text>
</a>
</g>
</g>
<!-- Node6&#45;&gt;Node7 -->
<g id="edge6" class="edge">
<title>Node6&#45;&gt;Node7</title>
<path fill="none" stroke="midnightblue" d="M1629.5,-302.32C1621.31,-294.42 1608.99,-282.55 1599.03,-272.94"/>
<polygon fill="midnightblue" stroke="midnightblue" points="1601.29,-270.26 1591.66,-265.83 1596.43,-275.29 1601.29,-270.26"/>
</g>
<!-- Node12 -->
<g id="node12" class="node">
<title>Node12</title>
<g id="a_node12"><a xlink:title=" ">
<polygon fill="white" stroke="#bfbfbf" points="1863,-0.5 1863,-19.5 1932,-19.5 1932,-0.5 1863,-0.5"/>
<text text-anchor="middle" x="1897.5" y="-7.5" font-family="Helvetica,sans-Serif" font-size="10.00">type_traits</text>
</a>
</g>
</g>
<!-- Node6&#45;&gt;Node12 -->
<g id="edge25" class="edge">
<title>Node6&#45;&gt;Node12</title>
<path fill="none" stroke="midnightblue" d="M1671.24,-302.48C1748.66,-281.89 1936.5,-229.02 1936.5,-201 1936.5,-201 1936.5,-201 1936.5,-132 1936.5,-93.55 1918.44,-51.39 1906.9,-28.38"/>
<polygon fill="midnightblue" stroke="midnightblue" points="1910,-26.76 1902.28,-19.5 1903.79,-29.99 1910,-26.76"/>
</g>
<!-- Node49 -->
<g id="node18" class="node">
<title>Node49</title>
<g id="a_node18"><a xlink:href="_s3_action_8hpp.html" target="_top" xlink:title="Calculate S3 bulk actions on 3D Delaunay Triangulations.">
<polygon fill="white" stroke="black" points="1669.5,-246.5 1669.5,-265.5 1749.5,-265.5 1749.5,-246.5 1669.5,-246.5"/>
<text text-anchor="middle" x="1709.5" y="-253.5" font-family="Helvetica,sans-Serif" font-size="10.00">S3Action.hpp</text>
</a>
</g>
</g>
<!-- Node6&#45;&gt;Node49 -->
<g id="edge18" class="edge">
<title>Node6&#45;&gt;Node49</title>
<path fill="none" stroke="midnightblue" d="M1649.91,-302.32C1660.61,-294.18 1676.84,-281.84 1689.66,-272.09"/>
<polygon fill="midnightblue" stroke="midnightblue" points="1692.04,-274.67 1697.89,-265.83 1687.81,-269.1 1692.04,-274.67"/>
</g>
<!-- Node52 -->
<g id="node23" class="node">
<title>Node52</title>
<g id="a_node23"><a xlink:title=" ">
<polygon fill="white" stroke="#bfbfbf" points="1964.5,-246.5 1964.5,-265.5 2014.5,-265.5 2014.5,-246.5 1964.5,-246.5"/>
<text text-anchor="middle" x="1989.5" y="-253.5" font-family="Helvetica,sans-Serif" font-size="10.00">atomic</text>
</a>
</g>
</g>
<!-- Node6&#45;&gt;Node52 -->
<g id="edge24" class="edge">
<title>Node6&#45;&gt;Node52</title>
<path fill="none" stroke="midnightblue" d="M1683.27,-303.44C1686.4,-302.95 1689.49,-302.46 1692.5,-302 1806.94,-284.48 1836.65,-287.04 1950.5,-266 1951.77,-265.77 1953.06,-265.52 1954.36,-265.26"/>
<polygon fill="midnightblue" stroke="midnightblue" points="1955.33,-268.63 1964.39,-263.14 1953.88,-261.78 1955.33,-268.63"/>
</g>
<!-- Node8 -->
<g id="node8" class="node">
<title>Node8</title>
<g id="a_node8"><a xlink:href="_move__command_8hpp.html" target="_top" xlink:title="Do ergodic moves using the Command pattern.">
<polygon fill="white" stroke="black" points="1523,-190.5 1523,-209.5 1642,-209.5 1642,-190.5 1523,-190.5"/>
<text text-anchor="middle" x="1582.5" y="-197.5" font-family="Helvetica,sans-Serif" font-size="10.00">Move_command.hpp</text>
</a>
</g>
</g>
<!-- Node7&#45;&gt;Node8 -->
<g id="edge7" class="edge">
<title>Node7&#45;&gt;Node8</title>
<path fill="none" stroke="midnightblue" d="M1582.5,-246.08C1582.5,-239.01 1582.5,-228.86 1582.5,-219.99"/>
<polygon fill="midnightblue" stroke="midnightblue" points="1586,-219.75 1582.5,-209.75 1579,-219.75 1586,-219.75"/>
</g>
<!-- Node48 -->
<g id="node17" class="node">
<title>Node48</title>
<g id="a_node17"><a xlink:title=" ">
<polygon fill="white" stroke="#bfbfbf" points="1405.5,-123.5 1405.5,-142.5 1463.5,-142.5 1463.5,-123.5 1405.5,-123.5"/>
<text text-anchor="middle" x="1434.5" y="-130.5" font-family="Helvetica,sans-Serif" font-size="10.00">memory</text>
</a>
</g>
</g>
<!-- Node7&#45;&gt;Node48 -->
<g id="edge17" class="edge">
<title>Node7&#45;&gt;Node48</title>
<path fill="none" stroke="midnightblue" d="M1567.93,-246.39C1553.8,-237.81 1532,-223.93 1514.5,-210 1490.76,-191.11 1465.77,-166.5 1450.17,-150.48"/>
<polygon fill="midnightblue" stroke="midnightblue" points="1452.38,-147.73 1442.92,-142.96 1447.34,-152.59 1452.38,-147.73"/>
</g>
<!-- Node9 -->
<g id="node9" class="node">
<title>Node9</title>
<g id="a_node9"><a xlink:href="_apply__move_8hpp.html" target="_top" xlink:title="Apply Pachner moves to foliated Delaunay triangulations.">
<polygon fill="white" stroke="black" points="1711.5,-123.5 1711.5,-142.5 1809.5,-142.5 1809.5,-123.5 1711.5,-123.5"/>
<text text-anchor="middle" x="1760.5" y="-130.5" font-family="Helvetica,sans-Serif" font-size="10.00">Apply_move.hpp</text>
</a>
</g>
</g>
<!-- Node8&#45;&gt;Node9 -->
<g id="edge8" class="edge">
<title>Node8&#45;&gt;Node9</title>
<path fill="none" stroke="midnightblue" d="M1606.14,-190.37C1637.21,-179.02 1691.97,-159.02 1727.22,-146.15"/>
<polygon fill="midnightblue" stroke="midnightblue" points="1728.86,-149.28 1737.05,-142.56 1726.45,-142.71 1728.86,-149.28"/>
</g>
<!-- Node15 -->
<g id="node15" class="node">
<title>Node15</title>
<g id="a_node15"><a xlink:href="_ergodic__moves__3_8hpp.html" target="_top" xlink:title="Pachner moves on 2+1 dimensional foliated Delaunay triangulations.">
<polygon fill="white" stroke="black" points="1520,-123.5 1520,-142.5 1643,-142.5 1643,-123.5 1520,-123.5"/>
<text text-anchor="middle" x="1581.5" y="-130.5" font-family="Helvetica,sans-Serif" font-size="10.00">Ergodic_moves_3.hpp</text>
</a>
</g>
</g>
<!-- Node8&#45;&gt;Node15 -->
<g id="edge14" class="edge">
<title>Node8&#45;&gt;Node15</title>
<path fill="none" stroke="midnightblue" d="M1582.37,-190.23C1582.22,-180.68 1581.98,-165.12 1581.79,-152.78"/>
<polygon fill="midnightblue" stroke="midnightblue" points="1585.29,-152.57 1581.63,-142.63 1578.29,-152.68 1585.29,-152.57"/>
</g>
<!-- Node10 -->
<g id="node10" class="node">
<title>Node10</title>
<g id="a_node10"><a xlink:href="_function__ref_8hpp.html" target="_top" xlink:title="Efficient, type&#45;erasing, non&#45;owning function reference.">
<polygon fill="white" stroke="black" points="1811,-56.5 1811,-75.5 1908,-75.5 1908,-56.5 1811,-56.5"/>
<text text-anchor="middle" x="1859.5" y="-63.5" font-family="Helvetica,sans-Serif" font-size="10.00">Function_ref.hpp</text>
</a>
</g>
</g>
<!-- Node9&#45;&gt;Node10 -->
<g id="edge9" class="edge">
<title>Node9&#45;&gt;Node10</title>
<path fill="none" stroke="midnightblue" d="M1773.85,-123.23C1790.25,-112.46 1818.3,-94.05 1837.81,-81.24"/>
<polygon fill="midnightblue" stroke="midnightblue" points="1839.92,-84.04 1846.36,-75.63 1836.08,-78.19 1839.92,-84.04"/>
</g>
<!-- Node14 -->
<g id="node14" class="node">
<title>Node14</title>
<g id="a_node14"><a xlink:title=" ">
<polygon fill="white" stroke="#bfbfbf" points="1728,-56.5 1728,-75.5 1793,-75.5 1793,-56.5 1728,-56.5"/>
<text text-anchor="middle" x="1760.5" y="-63.5" font-family="Helvetica,sans-Serif" font-size="10.00">functional</text>
</a>
</g>
</g>
<!-- Node9&#45;&gt;Node14 -->
<g id="edge13" class="edge">
<title>Node9&#45;&gt;Node14</title>
<path fill="none" stroke="midnightblue" d="M1760.5,-123.23C1760.5,-113.68 1760.5,-98.12 1760.5,-85.78"/>
<polygon fill="midnightblue" stroke="midnightblue" points="1764,-85.63 1760.5,-75.63 1757,-85.63 1764,-85.63"/>
</g>
<!-- Node11 -->
<g id="node11" class="node">
<title>Node11</title>
<g id="a_node11"><a xlink:title=" ">
<polygon fill="white" stroke="#bfbfbf" points="1782.5,-0.5 1782.5,-19.5 1832.5,-19.5 1832.5,-0.5 1782.5,-0.5"/>
<text text-anchor="middle" x="1807.5" y="-7.5" font-family="Helvetica,sans-Serif" font-size="10.00">cstdint</text>
</a>
</g>
</g>
<!-- Node10&#45;&gt;Node11 -->
<g id="edge10" class="edge">
<title>Node10&#45;&gt;Node11</title>
<path fill="none" stroke="midnightblue" d="M1850.91,-56.08C1843.34,-48.22 1832.12,-36.57 1822.99,-27.08"/>
<polygon fill="midnightblue" stroke="midnightblue" points="1825.38,-24.53 1815.93,-19.75 1820.34,-29.38 1825.38,-24.53"/>
</g>
<!-- Node10&#45;&gt;Node12 -->
<g id="edge11" class="edge">
<title>Node10&#45;&gt;Node12</title>
<path fill="none" stroke="midnightblue" d="M1865.77,-56.08C1871.14,-48.46 1879.02,-37.26 1885.58,-27.94"/>
<polygon fill="midnightblue" stroke="midnightblue" points="1888.45,-29.94 1891.34,-19.75 1882.72,-25.91 1888.45,-29.94"/>
</g>
<!-- Node13 -->
<g id="node13" class="node">
<title>Node13</title>
<g id="a_node13"><a xlink:title=" ">
<polygon fill="white" stroke="#bfbfbf" points="259,-0.5 259,-19.5 304,-19.5 304,-0.5 259,-0.5"/>
<text text-anchor="middle" x="281.5" y="-7.5" font-family="Helvetica,sans-Serif" font-size="10.00">utility</text>
</a>
</g>
</g>
<!-- Node10&#45;&gt;Node13 -->
<g id="edge12" class="edge">
<title>Node10&#45;&gt;Node13</title>
<path fill="none" stroke="midnightblue" d="M1810.73,-56.88C1807.95,-56.55 1805.19,-56.25 1802.5,-56 1499.01,-27.67 506.77,-13.85 314.08,-11.4"/>
<polygon fill="midnightblue" stroke="midnightblue" points="314.07,-7.9 304.02,-11.27 313.98,-14.9 314.07,-7.9"/>
</g>
<!-- Node16 -->
<g id="node16" class="node">
<title>Node16</title>
<g id="a_node16"><a xlink:href="_manifold_8hpp.html" target="_top" xlink:title="Data structures for manifolds.">
<polygon fill="white" stroke="red" points="1534.5,-56.5 1534.5,-75.5 1614.5,-75.5 1614.5,-56.5 1534.5,-56.5"/>
<text text-anchor="middle" x="1574.5" y="-63.5" font-family="Helvetica,sans-Serif" font-size="10.00">Manifold.hpp</text>
</a>
</g>
</g>
<!-- Node15&#45;&gt;Node16 -->
<g id="edge15" class="edge">
<title>Node15&#45;&gt;Node16</title>
<path fill="none" stroke="midnightblue" d="M1580.56,-123.23C1579.53,-113.68 1577.85,-98.12 1576.52,-85.78"/>
<polygon fill="midnightblue" stroke="midnightblue" points="1579.98,-85.2 1575.43,-75.63 1573.02,-85.94 1579.98,-85.2"/>
</g>
<!-- Node16&#45;&gt;Node13 -->
<g id="edge16" class="edge">
<title>Node16&#45;&gt;Node13</title>
<path fill="none" stroke="midnightblue" d="M1534.46,-57.16C1531.43,-56.71 1528.42,-56.32 1525.5,-56 1280.74,-29.24 486.12,-14.47 314.41,-11.54"/>
<polygon fill="midnightblue" stroke="midnightblue" points="314.29,-8.04 304.23,-11.37 314.17,-15.04 314.29,-8.04"/>
</g>
<!-- Node37 -->
<g id="node19" class="node">
<title>Node37</title>
<g id="a_node19"><a xlink:href="_settings_8hpp.html" target="_top" xlink:title="Global integer and precision settings.">
<polygon fill="white" stroke="black" points="1633,-56.5 1633,-75.5 1710,-75.5 1710,-56.5 1633,-56.5"/>
<text text-anchor="middle" x="1671.5" y="-63.5" font-family="Helvetica,sans-Serif" font-size="10.00">Settings.hpp</text>
</a>
</g>
</g>
<!-- Node49&#45;&gt;Node37 -->
<g id="edge19" class="edge">
<title>Node49&#45;&gt;Node37</title>
<path fill="none" stroke="midnightblue" d="M1704.99,-246.28C1700.6,-237.4 1694.06,-223.09 1690.5,-210 1678.64,-166.44 1674.06,-113.33 1672.39,-85.71"/>
<polygon fill="midnightblue" stroke="midnightblue" points="1675.88,-85.33 1671.84,-75.54 1668.89,-85.71 1675.88,-85.33"/>
</g>
<!-- Node50 -->
<g id="node21" class="node">
<title>Node50</title>
<g id="a_node21"><a xlink:title=" ">
<polygon fill="white" stroke="#bfbfbf" points="1765.5,-190.5 1765.5,-209.5 1811.5,-209.5 1811.5,-190.5 1765.5,-190.5"/>
<text text-anchor="middle" x="1788.5" y="-197.5" font-family="Helvetica,sans-Serif" font-size="10.00">cstdio</text>
</a>
</g>
</g>
<!-- Node49&#45;&gt;Node50 -->
<g id="edge22" class="edge">
<title>Node49&#45;&gt;Node50</title>
<path fill="none" stroke="midnightblue" d="M1722.19,-246.32C1734.4,-237.98 1753.08,-225.21 1767.5,-215.35"/>
<polygon fill="midnightblue" stroke="midnightblue" points="1769.56,-218.19 1775.84,-209.65 1765.61,-212.41 1769.56,-218.19"/>
</g>
<!-- Node51 -->
<g id="node22" class="node">
<title>Node51</title>
<g id="a_node22"><a xlink:title=" ">
<polygon fill="white" stroke="#bfbfbf" points="1699.5,-190.5 1699.5,-209.5 1747.5,-209.5 1747.5,-190.5 1699.5,-190.5"/>
<text text-anchor="middle" x="1723.5" y="-197.5" font-family="Helvetica,sans-Serif" font-size="10.00">mpfr.h</text>
</a>
</g>
</g>
<!-- Node49&#45;&gt;Node51 -->
<g id="edge23" class="edge">
<title>Node49&#45;&gt;Node51</title>
<path fill="none" stroke="midnightblue" d="M1711.81,-246.08C1713.67,-238.93 1716.34,-228.64 1718.65,-219.69"/>
<polygon fill="midnightblue" stroke="midnightblue" points="1722.11,-220.31 1721.23,-209.75 1715.33,-218.55 1722.11,-220.31"/>
</g>
<!-- Node37&#45;&gt;Node11 -->
<g id="edge21" class="edge">
<title>Node37&#45;&gt;Node11</title>
<path fill="none" stroke="midnightblue" d="M1693.05,-56.44C1715.53,-47.52 1750.99,-33.44 1776.48,-23.32"/>
<polygon fill="midnightblue" stroke="midnightblue" points="1778.05,-26.46 1786.05,-19.52 1775.47,-19.95 1778.05,-26.46"/>
</g>
<!-- Node38 -->
<g id="node20" class="node">
<title>Node38</title>
<g id="a_node20"><a xlink:title=" ">
<polygon fill="white" stroke="#bfbfbf" points="1628.5,-0.5 1628.5,-19.5 1714.5,-19.5 1714.5,-0.5 1628.5,-0.5"/>
<text text-anchor="middle" x="1671.5" y="-7.5" font-family="Helvetica,sans-Serif" font-size="10.00">CGAL/Gmpzf.h</text>
</a>
</g>
</g>
<!-- Node37&#45;&gt;Node38 -->
<g id="edge20" class="edge">
<title>Node37&#45;&gt;Node38</title>
<path fill="none" stroke="midnightblue" d="M1671.5,-56.08C1671.5,-49.01 1671.5,-38.86 1671.5,-29.99"/>
<polygon fill="midnightblue" stroke="midnightblue" points="1675,-29.75 1671.5,-19.75 1668,-29.75 1675,-29.75"/>
</g>
<!-- Node53&#45;&gt;Node4 -->
<g id="edge66" class="edge">
<title>Node53&#45;&gt;Node4</title>
<path fill="none" stroke="midnightblue" d="M506.31,-305.47C440.26,-295.6 315.74,-270.04 228.5,-210 206.39,-194.78 188.52,-168.98 178.2,-151.72"/>
<polygon fill="midnightblue" stroke="midnightblue" points="181.03,-149.63 173.02,-142.69 174.96,-153.11 181.03,-149.63"/>
</g>
<!-- Node53&#45;&gt;Node10 -->
<g id="edge27" class="edge">
<title>Node53&#45;&gt;Node10</title>
<path fill="none" stroke="midnightblue" d="M596.53,-311.14C802.49,-311.51 1649.4,-310.33 1758.5,-266 1792.9,-252.02 1801.05,-241.63 1820.5,-210 1845.02,-170.12 1854.39,-114.7 1857.75,-85.97"/>
<polygon fill="midnightblue" stroke="midnightblue" points="1861.26,-86.03 1858.83,-75.72 1854.3,-85.3 1861.26,-86.03"/>
</g>
<!-- Node53&#45;&gt;Node13 -->
<g id="edge65" class="edge">
<title>Node53&#45;&gt;Node13</title>
<path fill="none" stroke="midnightblue" d="M506.45,-311.75C412.84,-310.46 200.57,-291.88 135.5,-154 107.12,-93.86 198.55,-45.13 249.57,-23.34"/>
<polygon fill="midnightblue" stroke="midnightblue" points="251,-26.54 258.89,-19.47 248.31,-20.07 251,-26.54"/>
</g>
<!-- Node54 -->
<g id="node25" class="node">
<title>Node54</title>
<g id="a_node25"><a xlink:href="_simplicial_manifold_8hpp.html" target="_top" xlink:title="Data structures for simplicial manifolds.">
<polygon fill="white" stroke="black" points="487.5,-246.5 487.5,-265.5 615.5,-265.5 615.5,-246.5 487.5,-246.5"/>
<text text-anchor="middle" x="551.5" y="-253.5" font-family="Helvetica,sans-Serif" font-size="10.00">SimplicialManifold.hpp</text>
</a>
</g>
</g>
<!-- Node53&#45;&gt;Node54 -->
<g id="edge28" class="edge">
<title>Node53&#45;&gt;Node54</title>
<path fill="none" stroke="midnightblue" d="M551.5,-302.08C551.5,-295.01 551.5,-284.86 551.5,-275.99"/>
<polygon fill="midnightblue" stroke="midnightblue" points="555,-275.75 551.5,-265.75 548,-275.75 555,-275.75"/>
</g>
<!-- Node54&#45;&gt;Node4 -->
<g id="edge64" class="edge">
<title>Node54&#45;&gt;Node4</title>
<path fill="none" stroke="midnightblue" d="M487.36,-254.34C427.18,-251.6 335.87,-241.87 263.5,-210 231.32,-195.83 200.81,-167.94 183.41,-150.17"/>
<polygon fill="midnightblue" stroke="midnightblue" points="185.82,-147.63 176.39,-142.81 180.76,-152.46 185.82,-147.63"/>
</g>
<!-- Node54&#45;&gt;Node13 -->
<g id="edge63" class="edge">
<title>Node54&#45;&gt;Node13</title>
<path fill="none" stroke="midnightblue" d="M487.36,-255C413.66,-251.1 295.69,-232.11 239.5,-154 211.14,-114.58 246.94,-56.1 268.07,-27.69"/>
<polygon fill="midnightblue" stroke="midnightblue" points="270.98,-29.65 274.31,-19.59 265.43,-25.37 270.98,-29.65"/>
</g>
<!-- Node54&#45;&gt;Node48 -->
<g id="edge61" class="edge">
<title>Node54&#45;&gt;Node48</title>
<path fill="none" stroke="midnightblue" d="M615.68,-255.21C759.1,-254 1115.06,-241.59 1396.5,-154 1401.71,-152.38 1407.04,-150.05 1412,-147.56"/>
<polygon fill="midnightblue" stroke="midnightblue" points="1413.84,-150.54 1420.95,-142.69 1410.5,-144.39 1413.84,-150.54"/>
</g>
<!-- Node55 -->
<g id="node26" class="node">
<title>Node55</title>
<g id="a_node26"><a xlink:href="_s3_triangulation_8hpp.html" target="_top" xlink:title="Functions on 3D Spherical Delaunay Triangulations.">
<polygon fill="white" stroke="black" points="681,-190.5 681,-209.5 794,-209.5 794,-190.5 681,-190.5"/>
<text text-anchor="middle" x="737.5" y="-197.5" font-family="Helvetica,sans-Serif" font-size="10.00">S3Triangulation.hpp</text>
</a>
</g>
</g>
<!-- Node54&#45;&gt;Node55 -->
<g id="edge29" class="edge">
<title>Node54&#45;&gt;Node55</title>
<path fill="none" stroke="midnightblue" d="M580.97,-246.44C612.67,-237.24 663.23,-222.56 698.27,-212.39"/>
<polygon fill="midnightblue" stroke="midnightblue" points="699.54,-215.67 708.17,-209.52 697.59,-208.94 699.54,-215.67"/>
</g>
<!-- Node56 -->
<g id="node47" class="node">
<title>Node56</title>
<g id="a_node47"><a xlink:title=" ">
<polygon fill="white" stroke="#bfbfbf" points="248.5,-123.5 248.5,-142.5 280.5,-142.5 280.5,-123.5 248.5,-123.5"/>
<text text-anchor="middle" x="264.5" y="-130.5" font-family="Helvetica,sans-Serif" font-size="10.00">set</text>
</a>
</g>
</g>
<!-- Node54&#45;&gt;Node56 -->
<g id="edge62" class="edge">
<title>Node54&#45;&gt;Node56</title>
<path fill="none" stroke="midnightblue" d="M551.56,-246.29C551.15,-232.16 548.13,-204.34 531.5,-190 450.81,-120.43 393.86,-192.46 294.5,-154 290.67,-152.52 286.83,-150.48 283.24,-148.27"/>
<polygon fill="midnightblue" stroke="midnightblue" points="285.21,-145.38 274.97,-142.64 281.27,-151.16 285.21,-145.38"/>
</g>
<!-- Node58 -->
<g id="node49" class="node">
<title>Node58</title>
<g id="a_node49"><a xlink:title=" ">
<polygon fill="white" stroke="#bfbfbf" points="416,-190.5 416,-209.5 523,-209.5 523,-190.5 416,-190.5"/>
<text text-anchor="middle" x="469.5" y="-197.5" font-family="Helvetica,sans-Serif" font-size="10.00">boost/optional.hpp</text>
</a>
</g>
</g>
<!-- Node54&#45;&gt;Node58 -->
<g id="edge59" class="edge">
<title>Node54&#45;&gt;Node58</title>
<path fill="none" stroke="midnightblue" d="M538.33,-246.32C525.65,-237.98 506.27,-225.21 491.29,-215.35"/>
<polygon fill="midnightblue" stroke="midnightblue" points="492.92,-212.23 482.64,-209.65 489.07,-218.08 492.92,-212.23"/>
</g>
<!-- Node59 -->
<g id="node50" class="node">
<title>Node59</title>
<g id="a_node50"><a xlink:title=" ">
<polygon fill="white" stroke="#bfbfbf" points="812.5,-190.5 812.5,-209.5 850.5,-209.5 850.5,-190.5 812.5,-190.5"/>
<text text-anchor="middle" x="831.5" y="-197.5" font-family="Helvetica,sans-Serif" font-size="10.00">map</text>
</a>
</g>
</g>
<!-- Node54&#45;&gt;Node59 -->
<g id="edge60" class="edge">
<title>Node54&#45;&gt;Node59</title>
<path fill="none" stroke="midnightblue" d="M610.76,-246.49C661.9,-238.65 737.55,-225.84 802.5,-210 802.6,-209.98 802.7,-209.95 802.8,-209.93"/>
<polygon fill="midnightblue" stroke="midnightblue" points="803.53,-213.36 812.25,-207.34 801.68,-206.6 803.53,-213.36"/>
</g>
<!-- Node55&#45;&gt;Node4 -->
<g id="edge58" class="edge">
<title>Node55&#45;&gt;Node4</title>
<path fill="none" stroke="midnightblue" d="M680.65,-197.27C587.69,-193.68 397.65,-183.16 239.5,-154 227.13,-151.72 213.8,-148.24 202.07,-144.83"/>
<polygon fill="midnightblue" stroke="midnightblue" points="202.82,-141.4 192.23,-141.87 200.8,-148.1 202.82,-141.4"/>
</g>
<!-- Node55&#45;&gt;Node13 -->
<g id="edge57" class="edge">
<title>Node55&#45;&gt;Node13</title>
<path fill="none" stroke="midnightblue" d="M680.96,-196.13C574.96,-190.26 354.58,-175.6 327.5,-154 289.36,-123.57 282.4,-61.24 281.41,-29.89"/>
<polygon fill="midnightblue" stroke="midnightblue" points="284.91,-29.47 281.28,-19.52 277.91,-29.57 284.91,-29.47"/>
</g>
<!-- Node55&#45;&gt;Node48 -->
<g id="edge53" class="edge">
<title>Node55&#45;&gt;Node48</title>
<path fill="none" stroke="midnightblue" d="M794.35,-190.97C797.44,-190.62 800.51,-190.29 803.5,-190 1066.27,-164.14 1142.21,-225.08 1396.5,-154 1401.84,-152.51 1407.28,-150.2 1412.32,-147.67"/>
<polygon fill="midnightblue" stroke="midnightblue" points="1414.29,-150.58 1421.37,-142.69 1410.92,-144.44 1414.29,-150.58"/>
</g>
<!-- Node39 -->
<g id="node27" class="node">
<title>Node39</title>
<g id="a_node27"><a xlink:title=" ">
<polygon fill="white" stroke="#bfbfbf" points="1059.5,-123.5 1059.5,-142.5 1239.5,-142.5 1239.5,-123.5 1059.5,-123.5"/>
<text text-anchor="middle" x="1149.5" y="-130.5" font-family="Helvetica,sans-Serif" font-size="10.00">CGAL/Delaunay_triangulation_3.h</text>
</a>
</g>
</g>
<!-- Node55&#45;&gt;Node39 -->
<g id="edge30" class="edge">
<title>Node55&#45;&gt;Node39</title>
<path fill="none" stroke="midnightblue" d="M794.2,-191.24C870.58,-180.72 1002.49,-162.29 1050.5,-154 1066.52,-151.23 1083.91,-147.85 1099.59,-144.65"/>
<polygon fill="midnightblue" stroke="midnightblue" points="1100.53,-148.04 1109.62,-142.59 1099.12,-141.18 1100.53,-148.04"/>
</g>
<!-- Node40 -->
<g id="node28" class="node">
<title>Node40</title>
<g id="a_node28"><a xlink:title=" ">
<polygon fill="white" stroke="#bfbfbf" points="1258,-112.5 1258,-153.5 1387,-153.5 1387,-112.5 1258,-112.5"/>
<text text-anchor="start" x="1266" y="-141.5" font-family="Helvetica,sans-Serif" font-size="10.00">CGAL/Exact_predicates</text>
<text text-anchor="start" x="1266" y="-130.5" font-family="Helvetica,sans-Serif" font-size="10.00">_inexact_constructions</text>
<text text-anchor="middle" x="1322.5" y="-119.5" font-family="Helvetica,sans-Serif" font-size="10.00">_kernel.h</text>
</a>
</g>
</g>
<!-- Node55&#45;&gt;Node40 -->
<g id="edge31" class="edge">
<title>Node55&#45;&gt;Node40</title>
<path fill="none" stroke="midnightblue" d="M794,-191.09C797.21,-190.7 800.4,-190.34 803.5,-190 997.49,-168.94 1051.24,-187.39 1247.61,-153.98"/>
<polygon fill="midnightblue" stroke="midnightblue" points="1248.42,-157.39 1257.68,-152.24 1247.23,-150.49 1248.42,-157.39"/>
</g>
<!-- Node41 -->
<g id="node29" class="node">
<title>Node41</title>
<g id="a_node29"><a xlink:title=" ">
<polygon fill="white" stroke="#bfbfbf" points="336.5,-118 336.5,-148 474.5,-148 474.5,-118 336.5,-118"/>
<text text-anchor="start" x="344.5" y="-136" font-family="Helvetica,sans-Serif" font-size="10.00">CGAL/Triangulation</text>
<text text-anchor="middle" x="405.5" y="-125" font-family="Helvetica,sans-Serif" font-size="10.00">_cell_base_with_info_3.h</text>
</a>
</g>
</g>
<!-- Node55&#45;&gt;Node41 -->
<g id="edge32" class="edge">
<title>Node55&#45;&gt;Node41</title>
<path fill="none" stroke="midnightblue" d="M682.27,-190.45C630.66,-182.17 551.56,-168.73 483.5,-154 478.5,-152.92 473.34,-151.74 468.17,-150.51"/>
<polygon fill="midnightblue" stroke="midnightblue" points="468.78,-147.06 458.24,-148.1 467.13,-153.86 468.78,-147.06"/>
</g>
<!-- Node42 -->
<g id="node30" class="node">
<title>Node42</title>
<g id="a_node30"><a xlink:title=" ">
<polygon fill="white" stroke="#bfbfbf" points="492.5,-118 492.5,-148 644.5,-148 644.5,-118 492.5,-118"/>
<text text-anchor="start" x="500.5" y="-136" font-family="Helvetica,sans-Serif" font-size="10.00">CGAL/Triangulation</text>
<text text-anchor="middle" x="568.5" y="-125" font-family="Helvetica,sans-Serif" font-size="10.00">_vertex_base_with_info_3.h</text>
</a>
</g>
</g>
<!-- Node55&#45;&gt;Node42 -->
<g id="edge33" class="edge">
<title>Node55&#45;&gt;Node42</title>
<path fill="none" stroke="midnightblue" d="M715.06,-190.37C689.48,-180.53 646.99,-164.19 614.33,-151.63"/>
<polygon fill="midnightblue" stroke="midnightblue" points="615.56,-148.35 604.97,-148.03 613.05,-154.88 615.56,-148.35"/>
</g>
<!-- Node43 -->
<g id="node31" class="node">
<title>Node43</title>
<g id="a_node31"><a xlink:title=" ">
<polygon fill="white" stroke="#bfbfbf" points="663,-123.5 663,-142.5 812,-142.5 812,-123.5 663,-123.5"/>
<text text-anchor="middle" x="737.5" y="-130.5" font-family="Helvetica,sans-Serif" font-size="10.00">CGAL/point_generators_3.h</text>
</a>
</g>
</g>
<!-- Node55&#45;&gt;Node43 -->
<g id="edge34" class="edge">
<title>Node55&#45;&gt;Node43</title>
<path fill="none" stroke="midnightblue" d="M737.5,-190.23C737.5,-180.68 737.5,-165.12 737.5,-152.78"/>
<polygon fill="midnightblue" stroke="midnightblue" points="741,-152.63 737.5,-142.63 734,-152.63 741,-152.63"/>
</g>
<!-- Node19 -->
<g id="node32" class="node">
<title>Node19</title>
<g id="a_node32"><a xlink:href="_utilities_8hpp.html" target="_top" xlink:title="Utility functions.">
<polygon fill="white" stroke="red" points="965.5,-123.5 965.5,-142.5 1041.5,-142.5 1041.5,-123.5 965.5,-123.5"/>
<text text-anchor="middle" x="1003.5" y="-130.5" font-family="Helvetica,sans-Serif" font-size="10.00">Utilities.hpp</text>
</a>
</g>
</g>
<!-- Node55&#45;&gt;Node19 -->
<g id="edge35" class="edge">
<title>Node55&#45;&gt;Node19</title>
<path fill="none" stroke="midnightblue" d="M793.8,-190.43C838.26,-182.93 901.58,-170.63 955.5,-154 962.22,-151.93 969.3,-149.26 975.9,-146.56"/>
<polygon fill="midnightblue" stroke="midnightblue" points="977.28,-149.77 985.11,-142.63 974.54,-143.33 977.28,-149.77"/>
</g>
<!-- Node23 -->
<g id="node36" class="node">
<title>Node23</title>
<g id="a_node36"><a xlink:title=" ">
<polygon fill="white" stroke="#bfbfbf" points="309.5,-56.5 309.5,-75.5 373.5,-75.5 373.5,-56.5 309.5,-56.5"/>
<text text-anchor="middle" x="341.5" y="-63.5" font-family="Helvetica,sans-Serif" font-size="10.00">algorithm</text>
</a>
</g>
</g>
<!-- Node55&#45;&gt;Node23 -->
<g id="edge52" class="edge">
<title>Node55&#45;&gt;Node23</title>
<path fill="none" stroke="midnightblue" d="M769.68,-190.49C788.04,-183.8 809.52,-172.45 820.5,-154 830.05,-137.96 833.15,-125.73 820.5,-112 788.97,-77.77 463.51,-82.67 383.6,-75.62"/>
<polygon fill="midnightblue" stroke="midnightblue" points="383.99,-72.14 373.65,-74.48 383.19,-79.1 383.99,-72.14"/>
</g>
<!-- Node30 -->
<g id="node43" class="node">
<title>Node30</title>
<g id="a_node43"><a xlink:title=" ">
<polygon fill="white" stroke="#bfbfbf" points="392,-56.5 392,-75.5 457,-75.5 457,-56.5 392,-56.5"/>
<text text-anchor="middle" x="424.5" y="-63.5" font-family="Helvetica,sans-Serif" font-size="10.00">stdexcept</text>
</a>
</g>
</g>
<!-- Node55&#45;&gt;Node30 -->
<g id="edge55" class="edge">
<title>Node55&#45;&gt;Node30</title>
<path fill="none" stroke="midnightblue" d="M794.25,-191C816.56,-184.77 840.02,-173.7 853.5,-154 864.05,-138.6 866.07,-125.8 853.5,-112 825.87,-81.69 540.82,-82.47 467.33,-75.74"/>
<polygon fill="midnightblue" stroke="midnightblue" points="467.45,-72.23 457.11,-74.54 466.63,-79.18 467.45,-72.23"/>
</g>
<!-- Node55&#45;&gt;Node56 -->
<g id="edge54" class="edge">
<title>Node55&#45;&gt;Node56</title>
<path fill="none" stroke="midnightblue" d="M680.93,-194.79C569.66,-186.28 330.06,-166.76 294.5,-154 290.57,-152.59 286.65,-150.56 283,-148.32"/>
<polygon fill="midnightblue" stroke="midnightblue" points="284.87,-145.36 274.65,-142.58 280.91,-151.13 284.87,-145.36"/>
</g>
<!-- Node57 -->
<g id="node48" class="node">
<title>Node57</title>
<g id="a_node48"><a xlink:title=" ">
<polygon fill="white" stroke="#bfbfbf" points="906,-123.5 906,-142.5 947,-142.5 947,-123.5 906,-123.5"/>
<text text-anchor="middle" x="926.5" y="-130.5" font-family="Helvetica,sans-Serif" font-size="10.00">tuple</text>
</a>
</g>
</g>
<!-- Node55&#45;&gt;Node57 -->
<g id="edge56" class="edge">
<title>Node55&#45;&gt;Node57</title>
<path fill="none" stroke="midnightblue" d="M775.7,-190.49C807.4,-182.81 853.3,-170.23 891.5,-154 895.82,-152.16 900.28,-149.92 904.51,-147.6"/>
<polygon fill="midnightblue" stroke="midnightblue" points="906.34,-150.59 913.25,-142.55 902.84,-144.52 906.34,-150.59"/>
</g>
<!-- Node19&#45;&gt;Node3 -->
<g id="edge43" class="edge">
<title>Node19&#45;&gt;Node3</title>
<path fill="none" stroke="midnightblue" d="M1020.02,-123.45C1028.84,-119.29 1040,-114.62 1050.5,-112 1224.33,-68.53 1277.94,-106.7 1458.37,-75.86"/>
<polygon fill="midnightblue" stroke="midnightblue" points="1459.22,-79.27 1468.46,-74.09 1458.01,-72.37 1459.22,-79.27"/>
</g>
<!-- Node19&#45;&gt;Node37 -->
<g id="edge51" class="edge">
<title>Node19&#45;&gt;Node37</title>
<path fill="none" stroke="midnightblue" d="M1020,-123.35C1028.8,-119.15 1039.97,-114.49 1050.5,-112 1295.53,-53.97 1368.38,-106.16 1622.51,-75.94"/>
<polygon fill="midnightblue" stroke="midnightblue" points="1623.29,-79.37 1632.79,-74.68 1622.44,-72.42 1623.29,-79.37"/>
</g>
<!-- Node20 -->
<g id="node33" class="node">
<title>Node20</title>
<g id="a_node33"><a xlink:title=" ">
<polygon fill="white" stroke="#bfbfbf" points="552,-56.5 552,-75.5 635,-75.5 635,-56.5 552,-56.5"/>
<text text-anchor="middle" x="593.5" y="-63.5" font-family="Helvetica,sans-Serif" font-size="10.00">CGAL/Timer.h</text>
</a>
</g>
</g>
<!-- Node19&#45;&gt;Node20 -->
<g id="edge36" class="edge">
<title>Node19&#45;&gt;Node20</title>
<path fill="none" stroke="midnightblue" d="M986.13,-123.38C977.19,-119.3 965.98,-114.73 955.5,-112 824.01,-77.72 784.05,-95.23 645.37,-76.02"/>
<polygon fill="midnightblue" stroke="midnightblue" points="645.61,-72.52 635.22,-74.57 644.62,-79.45 645.61,-72.52"/>
</g>
<!-- Node21 -->
<g id="node34" class="node">
<title>Node21</title>
<g id="a_node34"><a xlink:title=" ">
<polygon fill="white" stroke="#bfbfbf" points="653.5,-56.5 653.5,-75.5 741.5,-75.5 741.5,-56.5 653.5,-56.5"/>
<text text-anchor="middle" x="697.5" y="-63.5" font-family="Helvetica,sans-Serif" font-size="10.00">sys/utsname.h</text>
</a>
</g>
</g>
<!-- Node19&#45;&gt;Node21 -->
<g id="edge37" class="edge">
<title>Node19&#45;&gt;Node21</title>
<path fill="none" stroke="midnightblue" d="M985.61,-123.43C976.72,-119.46 965.73,-114.98 955.5,-112 950.61,-110.57 825.99,-89.07 751.76,-76.31"/>
<polygon fill="midnightblue" stroke="midnightblue" points="752.09,-72.82 741.64,-74.57 750.91,-79.71 752.09,-72.82"/>
</g>
<!-- Node22 -->
<g id="node35" class="node">
<title>Node22</title>
<g id="a_node35"><a xlink:title=" ">
<polygon fill="white" stroke="#bfbfbf" points="760,-56.5 760,-75.5 877,-75.5 877,-56.5 760,-56.5"/>
<text text-anchor="middle" x="818.5" y="-63.5" font-family="Helvetica,sans-Serif" font-size="10.00">boost/date_time.hpp</text>
</a>
</g>
</g>
<!-- Node19&#45;&gt;Node22 -->
<g id="edge38" class="edge">
<title>Node19&#45;&gt;Node22</title>
<path fill="none" stroke="midnightblue" d="M984.02,-123.48C975.35,-119.79 964.98,-115.52 955.5,-112 922.27,-99.64 883.88,-87.19 856.21,-78.52"/>
<polygon fill="midnightblue" stroke="midnightblue" points="857.12,-75.14 846.53,-75.51 855.04,-81.82 857.12,-75.14"/>
</g>
<!-- Node19&#45;&gt;Node23 -->
<g id="edge39" class="edge">
<title>Node19&#45;&gt;Node23</title>
<path fill="none" stroke="midnightblue" d="M986.63,-123.35C977.63,-119.16 966.23,-114.5 955.5,-112 710.26,-54.9 637.12,-109.97 383.89,-75.96"/>
<polygon fill="midnightblue" stroke="midnightblue" points="384.03,-72.44 373.64,-74.54 383.07,-79.38 384.03,-72.44"/>
</g>
<!-- Node24 -->
<g id="node37" class="node">
<title>Node24</title>
<g id="a_node37"><a xlink:title=" ">
<polygon fill="white" stroke="#bfbfbf" points="895.5,-56.5 895.5,-75.5 947.5,-75.5 947.5,-56.5 895.5,-56.5"/>
<text text-anchor="middle" x="921.5" y="-63.5" font-family="Helvetica,sans-Serif" font-size="10.00">cassert</text>
</a>
</g>
</g>
<!-- Node19&#45;&gt;Node24 -->
<g id="edge40" class="edge">
<title>Node19&#45;&gt;Node24</title>
<path fill="none" stroke="midnightblue" d="M992.44,-123.23C979.16,-112.71 956.67,-94.88 940.57,-82.12"/>
<polygon fill="midnightblue" stroke="midnightblue" points="942.39,-79.1 932.38,-75.63 938.05,-84.58 942.39,-79.1"/>
</g>
<!-- Node25 -->
<g id="node38" class="node">
<title>Node25</title>
<g id="a_node38"><a xlink:title=" ">
<polygon fill="white" stroke="#bfbfbf" points="966,-56.5 966,-75.5 1015,-75.5 1015,-56.5 966,-56.5"/>
<text text-anchor="middle" x="990.5" y="-63.5" font-family="Helvetica,sans-Serif" font-size="10.00">cstdlib</text>
</a>
</g>
</g>
<!-- Node19&#45;&gt;Node25 -->
<g id="edge41" class="edge">
<title>Node19&#45;&gt;Node25</title>
<path fill="none" stroke="midnightblue" d="M1001.75,-123.23C999.84,-113.68 996.72,-98.12 994.26,-85.78"/>
<polygon fill="midnightblue" stroke="midnightblue" points="997.62,-84.75 992.23,-75.63 990.75,-86.12 997.62,-84.75"/>
</g>
<!-- Node26 -->
<g id="node39" class="node">
<title>Node26</title>
<g id="a_node39"><a xlink:title=" ">
<polygon fill="white" stroke="#bfbfbf" points="1033,-56.5 1033,-75.5 1088,-75.5 1088,-56.5 1033,-56.5"/>
<text text-anchor="middle" x="1060.5" y="-63.5" font-family="Helvetica,sans-Serif" font-size="10.00">fstream</text>
</a>
</g>
</g>
<!-- Node19&#45;&gt;Node26 -->
<g id="edge42" class="edge">
<title>Node19&#45;&gt;Node26</title>
<path fill="none" stroke="midnightblue" d="M1011.19,-123.23C1020.16,-113 1035.19,-95.86 1046.3,-83.19"/>
<polygon fill="midnightblue" stroke="midnightblue" points="1048.97,-85.45 1052.93,-75.63 1043.71,-80.84 1048.97,-85.45"/>
</g>
<!-- Node27 -->
<g id="node40" class="node">
<title>Node27</title>
<g id="a_node40"><a xlink:title=" ">
<polygon fill="white" stroke="#bfbfbf" points="1106.5,-56.5 1106.5,-75.5 1166.5,-75.5 1166.5,-56.5 1106.5,-56.5"/>
<text text-anchor="middle" x="1136.5" y="-63.5" font-family="Helvetica,sans-Serif" font-size="10.00">iostream</text>
</a>
</g>
</g>
<!-- Node19&#45;&gt;Node27 -->
<g id="edge44" class="edge">
<title>Node19&#45;&gt;Node27</title>
<path fill="none" stroke="midnightblue" d="M1021.16,-123.37C1043.82,-112.3 1083.33,-92.99 1109.7,-80.1"/>
<polygon fill="midnightblue" stroke="midnightblue" points="1111.32,-83.2 1118.77,-75.67 1108.24,-76.91 1111.32,-83.2"/>
</g>
<!-- Node28 -->
<g id="node41" class="node">
<title>Node28</title>
<g id="a_node41"><a xlink:title=" ">
<polygon fill="white" stroke="#bfbfbf" points="1184.5,-56.5 1184.5,-75.5 1232.5,-75.5 1232.5,-56.5 1184.5,-56.5"/>
<text text-anchor="middle" x="1208.5" y="-63.5" font-family="Helvetica,sans-Serif" font-size="10.00">mutex</text>
</a>
</g>
</g>
<!-- Node19&#45;&gt;Node28 -->
<g id="edge45" class="edge">
<title>Node19&#45;&gt;Node28</title>
<path fill="none" stroke="midnightblue" d="M1022.04,-123.48C1030.61,-119.7 1040.97,-115.37 1050.5,-112 1062.26,-107.84 1131.76,-88.35 1174.57,-76.42"/>
<polygon fill="midnightblue" stroke="midnightblue" points="1175.61,-79.76 1184.31,-73.71 1173.74,-73.02 1175.61,-79.76"/>
</g>
<!-- Node29 -->
<g id="node42" class="node">
<title>Node29</title>
<g id="a_node42"><a xlink:title=" ">
<polygon fill="white" stroke="#bfbfbf" points="1250.5,-56.5 1250.5,-75.5 1304.5,-75.5 1304.5,-56.5 1250.5,-56.5"/>
<text text-anchor="middle" x="1277.5" y="-63.5" font-family="Helvetica,sans-Serif" font-size="10.00">random</text>
</a>
</g>
</g>
<!-- Node19&#45;&gt;Node29 -->
<g id="edge46" class="edge">
<title>Node19&#45;&gt;Node29</title>
<path fill="none" stroke="midnightblue" d="M1021.02,-123.48C1029.72,-119.52 1040.49,-115.04 1050.5,-112 1130.18,-87.85 1155.31,-93.98 1240.57,-76.07"/>
<polygon fill="midnightblue" stroke="midnightblue" points="1241.37,-79.48 1250.41,-73.95 1239.9,-72.63 1241.37,-79.48"/>
</g>
<!-- Node19&#45;&gt;Node30 -->
<g id="edge47" class="edge">
<title>Node19&#45;&gt;Node30</title>
<path fill="none" stroke="midnightblue" d="M986.62,-123.4C977.62,-119.22 966.21,-114.55 955.5,-112 746.3,-62.12 683.48,-106.12 467.18,-76.04"/>
<polygon fill="midnightblue" stroke="midnightblue" points="467.49,-72.54 457.1,-74.6 466.5,-79.47 467.49,-72.54"/>
</g>
<!-- Node31 -->
<g id="node44" class="node">
<title>Node31</title>
<g id="a_node44"><a xlink:title=" ">
<polygon fill="white" stroke="#bfbfbf" points="1322.5,-56.5 1322.5,-75.5 1366.5,-75.5 1366.5,-56.5 1322.5,-56.5"/>
<text text-anchor="middle" x="1344.5" y="-63.5" font-family="Helvetica,sans-Serif" font-size="10.00">string</text>
</a>
</g>
</g>
<!-- Node19&#45;&gt;Node31 -->
<g id="edge48" class="edge">
<title>Node19&#45;&gt;Node31</title>
<path fill="none" stroke="midnightblue" d="M1020.51,-123.46C1029.27,-119.4 1040.24,-114.83 1050.5,-112 1161.12,-81.48 1196.18,-99.46 1312.26,-75.97"/>
<polygon fill="midnightblue" stroke="midnightblue" points="1313.17,-79.35 1322.25,-73.88 1311.74,-72.5 1313.17,-79.35"/>
</g>
<!-- Node32 -->
<g id="node45" class="node">
<title>Node32</title>
<g id="a_node45"><a xlink:title=" ">
<polygon fill="white" stroke="#bfbfbf" points="1385,-56.5 1385,-75.5 1450,-75.5 1450,-56.5 1385,-56.5"/>
<text text-anchor="middle" x="1417.5" y="-63.5" font-family="Helvetica,sans-Serif" font-size="10.00">typeindex</text>
</a>
</g>
</g>
<!-- Node19&#45;&gt;Node32 -->
<g id="edge49" class="edge">
<title>Node19&#45;&gt;Node32</title>
<path fill="none" stroke="midnightblue" d="M1020.48,-123.35C1029.24,-119.26 1040.21,-114.7 1050.5,-112 1187.92,-75.98 1230.15,-98.2 1374.43,-75.99"/>
<polygon fill="midnightblue" stroke="midnightblue" points="1375.22,-79.41 1384.54,-74.39 1374.12,-72.5 1375.22,-79.41"/>
</g>
<!-- Node33 -->
<g id="node46" class="node">
<title>Node33</title>
<g id="a_node46"><a xlink:title=" ">
<polygon fill="white" stroke="#bfbfbf" points="475,-56.5 475,-75.5 534,-75.5 534,-56.5 475,-56.5"/>
<text text-anchor="middle" x="504.5" y="-63.5" font-family="Helvetica,sans-Serif" font-size="10.00">date/tz.h</text>
</a>
</g>
</g>
<!-- Node19&#45;&gt;Node33 -->
<g id="edge50" class="edge">
<title>Node19&#45;&gt;Node33</title>
<path fill="none" stroke="midnightblue" d="M986.61,-123.46C977.6,-119.29 966.2,-114.63 955.5,-112 779.71,-68.82 726.28,-104.02 544.19,-76.05"/>
<polygon fill="midnightblue" stroke="midnightblue" points="544.71,-72.59 534.29,-74.49 543.62,-79.51 544.71,-72.59"/>
</g>
</g>
</svg>
