<?xml version="1.0" encoding="UTF-8" standalone="no"?>
<!DOCTYPE svg PUBLIC "-//W3C//DTD SVG 1.1//EN"
 "http://www.w3.org/Graphics/SVG/1.1/DTD/svg11.dtd">
<!-- Generated by graphviz version 2.43.0 (0)
 -->
<!-- Title: src/cdt.cpp Pages: 1 -->
<!--zoomable 599 -->
<svg id="main" version="1.1" xmlns="http://www.w3.org/2000/svg" xmlns:xlink="http://www.w3.org/1999/xlink" xml:space="preserve" onload="init(evt)">
<style type="text/css"><![CDATA[
.edge:hover path { stroke: red; }
.edge:hover polygon { stroke: red; fill: red; }
]]></style>
<script type="text/javascript"><![CDATA[
var edges = document.getElementsByTagName('g');
if (edges && edges.length) {
  for (var i=0;i<edges.length;i++) {
    if (edges[i].id.substr(0,4)=='edge') {
      edges[i].setAttribute('class','edge');
    }
  }
}
]]></script>
        <defs>
                <circle id="rim" cx="0" cy="0" r="7"/>
                <circle id="rim2" cx="0" cy="0" r="3.5"/>
                <g id="zoomPlus">
                        <use xlink:href="#rim" fill="#404040">
                                <set attributeName="fill" to="#808080" begin="zoomplus.mouseover" end="zoomplus.mouseout"/>
                        </use>
                        <path d="M-4,0h8M0,-4v8" fill="none" stroke="white" stroke-width="1.5" pointer-events="none"/>
                </g>
                <g id="zoomMin">
                        <use xlink:href="#rim" fill="#404040">
                                <set attributeName="fill" to="#808080" begin="zoomminus.mouseover" end="zoomminus.mouseout"/>
                        </use>
                        <path d="M-4,0h8" fill="none" stroke="white" stroke-width="1.5" pointer-events="none"/>
                </g>
                <g id="dirArrow">
                        <path fill="none" stroke="white" stroke-width="1.5" d="M0,-3.0v7 M-2.5,-0.5L0,-3.0L2.5,-0.5"/>
                </g>
               <g id="resetDef">
                       <use xlink:href="#rim2" fill="#404040">
                               <set attributeName="fill" to="#808080" begin="reset.mouseover" end="reset.mouseout"/>
                       </use>
               </g>
        </defs>

<script type="text/javascript">
var viewWidth = 1976;
var viewHeight = 599;
var sectionId = 'dynsection-0';
</script>
<script xlink:href="svgpan.js"/>
<svg id="graph" class="graph">
<g id="viewport">
<title>src/cdt.cpp</title>
<polygon fill="white" stroke="transparent" points="-4,4 -4,-595 1972,-595 1972,4 -4,4"/>
<!-- Node1 -->
<g id="node1" class="node">
<title>Node1</title>
<g id="a_node1"><a xlink:title="The main executable.">
<polygon fill="#bfbfbf" stroke="black" points="1446.5,-571.5 1446.5,-590.5 1515.5,-590.5 1515.5,-571.5 1446.5,-571.5"/>
<text text-anchor="middle" x="1481" y="-578.5" font-family="Helvetica,sans-Serif" font-size="10.00">src/cdt.cpp</text>
</a>
</g>
</g>
<!-- Node2 -->
<g id="node2" class="node">
<title>Node2</title>
<g id="a_node2"><a xlink:title=" ">
<polygon fill="white" stroke="#bfbfbf" points="1326.5,-515.5 1326.5,-534.5 1433.5,-534.5 1433.5,-515.5 1326.5,-515.5"/>
<text text-anchor="middle" x="1380" y="-522.5" font-family="Helvetica,sans-Serif" font-size="10.00">CGAL/Real_timer.h</text>
</a>
</g>
</g>
<!-- Node1&#45;&gt;Node2 -->
<g id="edge1" class="edge">
<title>Node1&#45;&gt;Node2</title>
<path fill="none" stroke="midnightblue" d="M1464.77,-571.32C1448.65,-562.7 1423.7,-549.36 1405.04,-539.39"/>
<polygon fill="midnightblue" stroke="midnightblue" points="1406.66,-536.28 1396.19,-534.65 1403.36,-542.46 1406.66,-536.28"/>
</g>
<!-- Node3 -->
<g id="node3" class="node">
<title>Node3</title>
<g id="a_node3"><a xlink:title=" ">
<polygon fill="white" stroke="#bfbfbf" points="1451.5,-515.5 1451.5,-534.5 1510.5,-534.5 1510.5,-515.5 1451.5,-515.5"/>
<text text-anchor="middle" x="1481" y="-522.5" font-family="Helvetica,sans-Serif" font-size="10.00">docopt.h</text>
</a>
</g>
</g>
<!-- Node1&#45;&gt;Node3 -->
<g id="edge2" class="edge">
<title>Node1&#45;&gt;Node3</title>
<path fill="none" stroke="midnightblue" d="M1481,-571.08C1481,-564.01 1481,-553.86 1481,-544.99"/>
<polygon fill="midnightblue" stroke="midnightblue" points="1484.5,-544.75 1481,-534.75 1477.5,-544.75 1484.5,-544.75"/>
</g>
<!-- Node4 -->
<g id="node4" class="node">
<title>Node4</title>
<g id="a_node4"><a xlink:href="_metropolis_8hpp.html" target="_top" xlink:title="Perform Metropolis&#45;Hastings algorithm on Delaunay Triangulations.">
<polygon fill="white" stroke="black" points="1528.5,-515.5 1528.5,-534.5 1617.5,-534.5 1617.5,-515.5 1528.5,-515.5"/>
<text text-anchor="middle" x="1573" y="-522.5" font-family="Helvetica,sans-Serif" font-size="10.00">Metropolis.hpp</text>
</a>
</g>
</g>
<!-- Node1&#45;&gt;Node4 -->
<g id="edge3" class="edge">
<title>Node1&#45;&gt;Node4</title>
<path fill="none" stroke="midnightblue" d="M1495.78,-571.32C1510.27,-562.82 1532.57,-549.73 1549.49,-539.8"/>
<polygon fill="midnightblue" stroke="midnightblue" points="1551.4,-542.74 1558.26,-534.65 1547.86,-536.7 1551.4,-542.74"/>
</g>
<!-- Node5 -->
<g id="node5" class="node">
<title>Node5</title>
<g id="a_node5"><a xlink:href="_move__strategy_8hpp.html" target="_top" xlink:title="Template class for move algorithms (strategies) on manifolds.">
<polygon fill="white" stroke="black" points="1414.5,-459.5 1414.5,-478.5 1523.5,-478.5 1523.5,-459.5 1414.5,-459.5"/>
<text text-anchor="middle" x="1469" y="-466.5" font-family="Helvetica,sans-Serif" font-size="10.00">Move_strategy.hpp</text>
</a>
</g>
</g>
<!-- Node4&#45;&gt;Node5 -->
<g id="edge4" class="edge">
<title>Node4&#45;&gt;Node5</title>
<path fill="none" stroke="midnightblue" d="M1556.29,-515.32C1539.69,-506.7 1514,-493.36 1494.78,-483.39"/>
<polygon fill="midnightblue" stroke="midnightblue" points="1496.16,-480.16 1485.67,-478.65 1492.93,-486.37 1496.16,-480.16"/>
</g>
<!-- Node54 -->
<g id="node49" class="node">
<title>Node54</title>
<g id="a_node49"><a xlink:href="_s3_action_8hpp.html" target="_top" xlink:title="Calculate S3 bulk actions on 3D Delaunay Triangulations.">
<polygon fill="white" stroke="black" points="1637,-459.5 1637,-478.5 1717,-478.5 1717,-459.5 1637,-459.5"/>
<text text-anchor="middle" x="1677" y="-466.5" font-family="Helvetica,sans-Serif" font-size="10.00">S3Action.hpp</text>
</a>
</g>
</g>
<!-- Node4&#45;&gt;Node54 -->
<g id="edge56" class="edge">
<title>Node4&#45;&gt;Node54</title>
<path fill="none" stroke="midnightblue" d="M1589.71,-515.32C1606.31,-506.7 1632,-493.36 1651.22,-483.39"/>
<polygon fill="midnightblue" stroke="midnightblue" points="1653.07,-486.37 1660.33,-478.65 1649.84,-480.16 1653.07,-486.37"/>
</g>
<!-- Node6 -->
<g id="node6" class="node">
<title>Node6</title>
<g id="a_node6"><a xlink:href="_move__command_8hpp.html" target="_top" xlink:title="Do ergodic moves using the Command pattern.">
<polygon fill="white" stroke="black" points="974.5,-403.5 974.5,-422.5 1093.5,-422.5 1093.5,-403.5 974.5,-403.5"/>
<text text-anchor="middle" x="1034" y="-410.5" font-family="Helvetica,sans-Serif" font-size="10.00">Move_command.hpp</text>
</a>
</g>
</g>
<!-- Node5&#45;&gt;Node6 -->
<g id="edge5" class="edge">
<title>Node5&#45;&gt;Node6</title>
<path fill="none" stroke="midnightblue" d="M1414.35,-461.22C1335.55,-451.43 1190.02,-433.37 1103.62,-422.64"/>
<polygon fill="midnightblue" stroke="midnightblue" points="1104,-419.16 1093.65,-421.4 1103.14,-426.11 1104,-419.16"/>
</g>
<!-- Node7 -->
<g id="node7" class="node">
<title>Node7</title>
<g id="a_node7"><a xlink:href="_apply__move_8hpp.html" target="_top" xlink:title="Apply Pachner moves to foliated Delaunay triangulations.">
<polygon fill="white" stroke="black" points="491,-347.5 491,-366.5 589,-366.5 589,-347.5 491,-347.5"/>
<text text-anchor="middle" x="540" y="-354.5" font-family="Helvetica,sans-Serif" font-size="10.00">Apply_move.hpp</text>
</a>
</g>
</g>
<!-- Node6&#45;&gt;Node7 -->
<g id="edge6" class="edge">
<title>Node6&#45;&gt;Node7</title>
<path fill="none" stroke="midnightblue" d="M974.41,-405.49C879.21,-395.08 693.9,-374.82 599.04,-364.45"/>
<polygon fill="midnightblue" stroke="midnightblue" points="599.37,-360.97 589.04,-363.36 598.6,-367.93 599.37,-360.97"/>
</g>
<!-- Node13 -->
<g id="node13" class="node">
<title>Node13</title>
<g id="a_node13"><a xlink:href="_ergodic__moves__3_8hpp.html" target="_top" xlink:title="Pachner moves on 2+1 dimensional foliated Delaunay triangulations.">
<polygon fill="white" stroke="black" points="972.5,-347.5 972.5,-366.5 1095.5,-366.5 1095.5,-347.5 972.5,-347.5"/>
<text text-anchor="middle" x="1034" y="-354.5" font-family="Helvetica,sans-Serif" font-size="10.00">Ergodic_moves_3.hpp</text>
</a>
</g>
</g>
<!-- Node6&#45;&gt;Node13 -->
<g id="edge12" class="edge">
<title>Node6&#45;&gt;Node13</title>
<path fill="none" stroke="midnightblue" d="M1034,-403.08C1034,-396.01 1034,-385.86 1034,-376.99"/>
<polygon fill="midnightblue" stroke="midnightblue" points="1037.5,-376.75 1034,-366.75 1030.5,-376.75 1037.5,-376.75"/>
</g>
<!-- Node8 -->
<g id="node8" class="node">
<title>Node8</title>
<g id="a_node8"><a xlink:title=" ">
<polygon fill="white" stroke="#bfbfbf" points="62.5,-62 62.5,-81 155.5,-81 155.5,-62 62.5,-62"/>
<text text-anchor="middle" x="109" y="-69" font-family="Helvetica,sans-Serif" font-size="10.00">spdlog/spdlog.h</text>
</a>
</g>
</g>
<!-- Node7&#45;&gt;Node8 -->
<g id="edge7" class="edge">
<title>Node7&#45;&gt;Node8</title>
<path fill="none" stroke="midnightblue" d="M490.95,-353.18C382.12,-345.57 130,-319.97 130,-246 130,-246 130,-246 130,-188 130,-153.3 120.71,-113.68 114.49,-91.02"/>
<polygon fill="midnightblue" stroke="midnightblue" points="117.77,-89.75 111.66,-81.1 111.04,-91.67 117.77,-89.75"/>
</g>
<!-- Node9 -->
<g id="node9" class="node">
<title>Node9</title>
<g id="a_node9"><a xlink:title=" ">
<polygon fill="white" stroke="#bfbfbf" points="455.5,-291.5 455.5,-310.5 520.5,-310.5 520.5,-291.5 455.5,-291.5"/>
<text text-anchor="middle" x="488" y="-298.5" font-family="Helvetica,sans-Serif" font-size="10.00">functional</text>
</a>
</g>
</g>
<!-- Node7&#45;&gt;Node9 -->
<g id="edge8" class="edge">
<title>Node7&#45;&gt;Node9</title>
<path fill="none" stroke="midnightblue" d="M531.41,-347.08C523.84,-339.22 512.62,-327.57 503.49,-318.08"/>
<polygon fill="midnightblue" stroke="midnightblue" points="505.88,-315.53 496.43,-310.75 500.84,-320.38 505.88,-315.53"/>
</g>
<!-- Node10 -->
<g id="node10" class="node">
<title>Node10</title>
<g id="a_node10"><a xlink:title=" ">
<polygon fill="white" stroke="#bfbfbf" points="0,-62 0,-81 44,-81 44,-62 0,-62"/>
<text text-anchor="middle" x="22" y="-69" font-family="Helvetica,sans-Serif" font-size="10.00">string</text>
</a>
</g>
</g>
<!-- Node7&#45;&gt;Node10 -->
<g id="edge9" class="edge">
<title>Node7&#45;&gt;Node10</title>
<path fill="none" stroke="midnightblue" d="M490.64,-355.75C362.65,-353.77 30,-339.63 30,-246 30,-246 30,-246 30,-188 30,-153.78 26.46,-114 24.09,-91.18"/>
<polygon fill="midnightblue" stroke="midnightblue" points="27.57,-90.75 23.01,-81.18 20.61,-91.5 27.57,-90.75"/>
</g>
<!-- Node11 -->
<g id="node11" class="node">
<title>Node11</title>
<g id="a_node11"><a xlink:title=" ">
<polygon fill="white" stroke="#bfbfbf" points="810,-291.5 810,-310.5 902,-310.5 902,-291.5 810,-291.5"/>
<text text-anchor="middle" x="856" y="-298.5" font-family="Helvetica,sans-Serif" font-size="10.00">tl/expected.hpp</text>
</a>
</g>
</g>
<!-- Node7&#45;&gt;Node11 -->
<g id="edge10" class="edge">
<title>Node7&#45;&gt;Node11</title>
<path fill="none" stroke="midnightblue" d="M589.03,-347.62C646.06,-337.88 740.02,-321.82 799.9,-311.59"/>
<polygon fill="midnightblue" stroke="midnightblue" points="800.68,-315.01 809.94,-309.87 799.5,-308.11 800.68,-315.01"/>
</g>
<!-- Node12 -->
<g id="node12" class="node">
<title>Node12</title>
<g id="a_node12"><a xlink:title=" ">
<polygon fill="white" stroke="#bfbfbf" points="538.5,-291.5 538.5,-310.5 643.5,-310.5 643.5,-291.5 538.5,-291.5"/>
<text text-anchor="middle" x="591" y="-298.5" font-family="Helvetica,sans-Serif" font-size="10.00">tl/function_ref.hpp</text>
</a>
</g>
</g>
<!-- Node7&#45;&gt;Node12 -->
<g id="edge11" class="edge">
<title>Node7&#45;&gt;Node12</title>
<path fill="none" stroke="midnightblue" d="M548.42,-347.08C555.85,-339.22 566.85,-327.57 575.81,-318.08"/>
<polygon fill="midnightblue" stroke="midnightblue" points="578.41,-320.42 582.74,-310.75 573.32,-315.62 578.41,-320.42"/>
</g>
<!-- Node13&#45;&gt;Node11 -->
<g id="edge13" class="edge">
<title>Node13&#45;&gt;Node11</title>
<path fill="none" stroke="midnightblue" d="M1005.8,-347.44C975.59,-338.28 927.49,-323.69 893.97,-313.52"/>
<polygon fill="midnightblue" stroke="midnightblue" points="894.66,-310.07 884.07,-310.52 892.63,-316.77 894.66,-310.07"/>
</g>
<!-- Node14 -->
<g id="node14" class="node">
<title>Node14</title>
<g id="a_node14"><a xlink:href="_manifold_8hpp.html" target="_top" xlink:title="Data structures for manifolds.">
<polygon fill="white" stroke="black" points="994,-291.5 994,-310.5 1074,-310.5 1074,-291.5 994,-291.5"/>
<text text-anchor="middle" x="1034" y="-298.5" font-family="Helvetica,sans-Serif" font-size="10.00">Manifold.hpp</text>
</a>
</g>
</g>
<!-- Node13&#45;&gt;Node14 -->
<g id="edge14" class="edge">
<title>Node13&#45;&gt;Node14</title>
<path fill="none" stroke="midnightblue" d="M1034,-347.08C1034,-340.01 1034,-329.86 1034,-320.99"/>
<polygon fill="midnightblue" stroke="midnightblue" points="1037.5,-320.75 1034,-310.75 1030.5,-320.75 1037.5,-320.75"/>
</g>
<!-- Node51 -->
<g id="node46" class="node">
<title>Node51</title>
<g id="a_node46"><a xlink:href="_move__tracker_8hpp.html" target="_top" xlink:title="Track ergodic moves.">
<polygon fill="white" stroke="black" points="1187.5,-179.5 1187.5,-198.5 1290.5,-198.5 1290.5,-179.5 1187.5,-179.5"/>
<text text-anchor="middle" x="1239" y="-186.5" font-family="Helvetica,sans-Serif" font-size="10.00">Move_tracker.hpp</text>
</a>
</g>
</g>
<!-- Node13&#45;&gt;Node51 -->
<g id="edge49" class="edge">
<title>Node13&#45;&gt;Node51</title>
<path fill="none" stroke="midnightblue" d="M1044.73,-347.31C1077.81,-320.53 1178.45,-239.03 1220.36,-205.09"/>
<polygon fill="midnightblue" stroke="midnightblue" points="1222.8,-207.62 1228.37,-198.61 1218.4,-202.18 1222.8,-207.62"/>
</g>
<!-- Node15 -->
<g id="node15" class="node">
<title>Node15</title>
<g id="a_node15"><a xlink:title=" ">
<polygon fill="white" stroke="#bfbfbf" points="1157.5,-123.5 1157.5,-142.5 1210.5,-142.5 1210.5,-123.5 1157.5,-123.5"/>
<text text-anchor="middle" x="1184" y="-130.5" font-family="Helvetica,sans-Serif" font-size="10.00">cstddef</text>
</a>
</g>
</g>
<!-- Node14&#45;&gt;Node15 -->
<g id="edge15" class="edge">
<title>Node14&#45;&gt;Node15</title>
<path fill="none" stroke="midnightblue" d="M1047.49,-291.29C1060.03,-282.85 1078.84,-269.26 1093,-255 1126.2,-221.58 1157.51,-175.65 1173.31,-151.11"/>
<polygon fill="midnightblue" stroke="midnightblue" points="1176.34,-152.86 1178.75,-142.54 1170.43,-149.11 1176.34,-152.86"/>
</g>
<!-- Node16 -->
<g id="node16" class="node">
<title>Node16</title>
<g id="a_node16"><a xlink:title=" ">
<polygon fill="white" stroke="#bfbfbf" points="832,-235.5 832,-254.5 918,-254.5 918,-235.5 832,-235.5"/>
<text text-anchor="middle" x="875" y="-242.5" font-family="Helvetica,sans-Serif" font-size="10.00">unordered_set</text>
</a>
</g>
</g>
<!-- Node14&#45;&gt;Node16 -->
<g id="edge16" class="edge">
<title>Node14&#45;&gt;Node16</title>
<path fill="none" stroke="midnightblue" d="M1008.81,-291.44C982.06,-282.36 939.6,-267.94 909.69,-257.78"/>
<polygon fill="midnightblue" stroke="midnightblue" points="910.67,-254.42 900.08,-254.52 908.42,-261.05 910.67,-254.42"/>
</g>
<!-- Node17 -->
<g id="node17" class="node">
<title>Node17</title>
<g id="a_node17"><a xlink:title=" ">
<polygon fill="white" stroke="#bfbfbf" points="936.5,-235.5 936.5,-254.5 981.5,-254.5 981.5,-235.5 936.5,-235.5"/>
<text text-anchor="middle" x="959" y="-242.5" font-family="Helvetica,sans-Serif" font-size="10.00">utility</text>
</a>
</g>
</g>
<!-- Node14&#45;&gt;Node17 -->
<g id="edge17" class="edge">
<title>Node14&#45;&gt;Node17</title>
<path fill="none" stroke="midnightblue" d="M1021.95,-291.32C1010.54,-283.11 993.17,-270.6 979.57,-260.81"/>
<polygon fill="midnightblue" stroke="midnightblue" points="981.43,-257.84 971.27,-254.83 977.34,-263.52 981.43,-257.84"/>
</g>
<!-- Node18 -->
<g id="node18" class="node">
<title>Node18</title>
<g id="a_node18"><a xlink:href="_geometry_8hpp.html" target="_top" xlink:title="Geometric scalars of the Manifold used to calculate the Regge action.">
<polygon fill="white" stroke="black" points="999.5,-235.5 999.5,-254.5 1084.5,-254.5 1084.5,-235.5 999.5,-235.5"/>
<text text-anchor="middle" x="1042" y="-242.5" font-family="Helvetica,sans-Serif" font-size="10.00">Geometry.hpp</text>
</a>
</g>
</g>
<!-- Node14&#45;&gt;Node18 -->
<g id="edge18" class="edge">
<title>Node14&#45;&gt;Node18</title>
<path fill="none" stroke="midnightblue" d="M1035.32,-291.08C1036.38,-283.93 1037.91,-273.64 1039.23,-264.69"/>
<polygon fill="midnightblue" stroke="midnightblue" points="1042.7,-265.16 1040.7,-254.75 1035.78,-264.13 1042.7,-265.16"/>
</g>
<!-- Node19 -->
<g id="node19" class="node">
<title>Node19</title>
<g id="a_node19"><a xlink:href="_foliated__triangulation_8hpp.html" target="_top" xlink:title="Create foliated spherical triangulations.">
<polygon fill="white" stroke="black" points="918,-179.5 918,-198.5 1062,-198.5 1062,-179.5 918,-179.5"/>
<text text-anchor="middle" x="990" y="-186.5" font-family="Helvetica,sans-Serif" font-size="10.00">Foliated_triangulation.hpp</text>
</a>
</g>
</g>
<!-- Node18&#45;&gt;Node19 -->
<g id="edge19" class="edge">
<title>Node18&#45;&gt;Node19</title>
<path fill="none" stroke="midnightblue" d="M1033.41,-235.08C1025.84,-227.22 1014.62,-215.57 1005.49,-206.08"/>
<polygon fill="midnightblue" stroke="midnightblue" points="1007.88,-203.53 998.43,-198.75 1002.84,-208.38 1007.88,-203.53"/>
</g>
<!-- Node20 -->
<g id="node20" class="node">
<title>Node20</title>
<g id="a_node20"><a xlink:title=" ">
<polygon fill="white" stroke="#bfbfbf" points="836,-123.5 836,-142.5 896,-142.5 896,-123.5 836,-123.5"/>
<text text-anchor="middle" x="866" y="-130.5" font-family="Helvetica,sans-Serif" font-size="10.00">concepts</text>
</a>
</g>
</g>
<!-- Node19&#45;&gt;Node20 -->
<g id="edge20" class="edge">
<title>Node19&#45;&gt;Node20</title>
<path fill="none" stroke="midnightblue" d="M970.35,-179.44C950.04,-170.6 918.1,-156.69 894.9,-146.59"/>
<polygon fill="midnightblue" stroke="midnightblue" points="896.12,-143.3 885.56,-142.52 893.33,-149.72 896.12,-143.3"/>
</g>
<!-- Node21 -->
<g id="node21" class="node">
<title>Node21</title>
<g id="a_node21"><a xlink:href="_triangulation__traits_8hpp.html" target="_top" xlink:title="Traits class for particular uses of CGAL.">
<polygon fill="white" stroke="red" points="1008.5,-123.5 1008.5,-142.5 1139.5,-142.5 1139.5,-123.5 1008.5,-123.5"/>
<text text-anchor="middle" x="1074" y="-130.5" font-family="Helvetica,sans-Serif" font-size="10.00">Triangulation_traits.hpp</text>
</a>
</g>
</g>
<!-- Node19&#45;&gt;Node21 -->
<g id="edge21" class="edge">
<title>Node19&#45;&gt;Node21</title>
<path fill="none" stroke="midnightblue" d="M1003.5,-179.32C1016.6,-170.9 1036.71,-157.97 1052.11,-148.07"/>
<polygon fill="midnightblue" stroke="midnightblue" points="1054.02,-151.01 1060.54,-142.65 1050.23,-145.12 1054.02,-151.01"/>
</g>
<!-- Node30 -->
<g id="node25" class="node">
<title>Node30</title>
<g id="a_node25"><a xlink:href="_utilities_8hpp.html" target="_top" xlink:title="Utility functions.">
<polygon fill="white" stroke="black" points="914,-123.5 914,-142.5 990,-142.5 990,-123.5 914,-123.5"/>
<text text-anchor="middle" x="952" y="-130.5" font-family="Helvetica,sans-Serif" font-size="10.00">Utilities.hpp</text>
</a>
</g>
</g>
<!-- Node19&#45;&gt;Node30 -->
<g id="edge25" class="edge">
<title>Node19&#45;&gt;Node30</title>
<path fill="none" stroke="midnightblue" d="M983.73,-179.08C978.36,-171.46 970.48,-160.26 963.92,-150.94"/>
<polygon fill="midnightblue" stroke="midnightblue" points="966.78,-148.91 958.16,-142.75 961.05,-152.94 966.78,-148.91"/>
</g>
<!-- Node27 -->
<g id="node22" class="node">
<title>Node27</title>
<g id="a_node22"><a xlink:href="_settings_8hpp.html" target="_top" xlink:title="Global integer and precision settings.">
<polygon fill="white" stroke="black" points="1848.5,-62 1848.5,-81 1925.5,-81 1925.5,-62 1848.5,-62"/>
<text text-anchor="middle" x="1887" y="-69" font-family="Helvetica,sans-Serif" font-size="10.00">Settings.hpp</text>
</a>
</g>
</g>
<!-- Node21&#45;&gt;Node27 -->
<g id="edge22" class="edge">
<title>Node21&#45;&gt;Node27</title>
<path fill="none" stroke="midnightblue" d="M1139.74,-123.77C1142.53,-123.49 1145.29,-123.23 1148,-123 1454.38,-96.42 1536.05,-139.85 1839,-87 1843.56,-86.2 1848.3,-85.11 1852.94,-83.88"/>
<polygon fill="midnightblue" stroke="midnightblue" points="1854.21,-87.16 1862.86,-81.03 1852.28,-80.43 1854.21,-87.16"/>
</g>
<!-- Node28 -->
<g id="node23" class="node">
<title>Node28</title>
<g id="a_node23"><a xlink:title=" ">
<polygon fill="white" stroke="#bfbfbf" points="1760,-0.5 1760,-19.5 1900,-19.5 1900,-0.5 1760,-0.5"/>
<text text-anchor="middle" x="1830" y="-7.5" font-family="Helvetica,sans-Serif" font-size="10.00">CGAL/GMP/Gmpzf_type.h</text>
</a>
</g>
</g>
<!-- Node27&#45;&gt;Node28 -->
<g id="edge23" class="edge">
<title>Node27&#45;&gt;Node28</title>
<path fill="none" stroke="midnightblue" d="M1878.83,-61.98C1870.11,-52.87 1856.1,-38.24 1845.31,-26.98"/>
<polygon fill="midnightblue" stroke="midnightblue" points="1847.6,-24.31 1838.15,-19.51 1842.54,-29.15 1847.6,-24.31"/>
</g>
<!-- Node29 -->
<g id="node24" class="node">
<title>Node29</title>
<g id="a_node24"><a xlink:title=" ">
<polygon fill="white" stroke="#bfbfbf" points="1918,-0.5 1918,-19.5 1968,-19.5 1968,-0.5 1918,-0.5"/>
<text text-anchor="middle" x="1943" y="-7.5" font-family="Helvetica,sans-Serif" font-size="10.00">cstdint</text>
</a>
</g>
</g>
<!-- Node27&#45;&gt;Node29 -->
<g id="edge24" class="edge">
<title>Node27&#45;&gt;Node29</title>
<path fill="none" stroke="midnightblue" d="M1895.02,-61.98C1903.59,-52.87 1917.36,-38.24 1927.96,-26.98"/>
<polygon fill="midnightblue" stroke="midnightblue" points="1930.69,-29.19 1934.99,-19.51 1925.59,-24.39 1930.69,-29.19"/>
</g>
<!-- Node30&#45;&gt;Node8 -->
<g id="edge47" class="edge">
<title>Node30&#45;&gt;Node8</title>
<path fill="none" stroke="midnightblue" d="M913.85,-124.23C910.86,-123.76 907.89,-123.34 905,-123 577.61,-83.9 489.86,-137.3 164,-87 158.39,-86.13 152.52,-84.93 146.8,-83.57"/>
<polygon fill="midnightblue" stroke="midnightblue" points="147.29,-80.09 136.74,-81.02 145.57,-86.87 147.29,-80.09"/>
</g>
<!-- Node30&#45;&gt;Node10 -->
<g id="edge38" class="edge">
<title>Node30&#45;&gt;Node10</title>
<path fill="none" stroke="midnightblue" d="M913.85,-124.21C910.87,-123.75 907.89,-123.34 905,-123 716.76,-101.12 237.08,-132.02 53,-87 51.01,-86.51 48.99,-85.89 46.99,-85.19"/>
<polygon fill="midnightblue" stroke="midnightblue" points="47.9,-81.77 37.33,-81.13 45.19,-88.23 47.9,-81.77"/>
</g>
<!-- Node30&#45;&gt;Node27 -->
<g id="edge48" class="edge">
<title>Node30&#45;&gt;Node27</title>
<path fill="none" stroke="midnightblue" d="M990.15,-124.21C993.13,-123.75 996.11,-123.34 999,-123 1370.16,-79.75 1470.59,-149.52 1839,-87 1843.56,-86.23 1848.3,-85.15 1852.95,-83.92"/>
<polygon fill="midnightblue" stroke="midnightblue" points="1854.22,-87.2 1862.86,-81.08 1852.29,-80.47 1854.22,-87.2"/>
</g>
<!-- Node31 -->
<g id="node26" class="node">
<title>Node31</title>
<g id="a_node26"><a xlink:title=" ">
<polygon fill="white" stroke="#bfbfbf" points="1536.5,-62 1536.5,-81 1619.5,-81 1619.5,-62 1536.5,-62"/>
<text text-anchor="middle" x="1578" y="-69" font-family="Helvetica,sans-Serif" font-size="10.00">CGAL/Timer.h</text>
</a>
</g>
</g>
<!-- Node30&#45;&gt;Node31 -->
<g id="edge26" class="edge">
<title>Node30&#45;&gt;Node31</title>
<path fill="none" stroke="midnightblue" d="M990.16,-124.29C993.14,-123.81 996.12,-123.37 999,-123 1232.27,-92.83 1295.28,-127.38 1527,-87 1531.9,-86.15 1537,-85.01 1542.01,-83.74"/>
<polygon fill="midnightblue" stroke="midnightblue" points="1543.3,-87.01 1552.04,-81.01 1541.47,-80.26 1543.3,-87.01"/>
</g>
<!-- Node32 -->
<g id="node27" class="node">
<title>Node32</title>
<g id="a_node27"><a xlink:title=" ">
<polygon fill="white" stroke="#bfbfbf" points="1638,-62 1638,-81 1702,-81 1702,-62 1638,-62"/>
<text text-anchor="middle" x="1670" y="-69" font-family="Helvetica,sans-Serif" font-size="10.00">algorithm</text>
</a>
</g>
</g>
<!-- Node30&#45;&gt;Node32 -->
<g id="edge27" class="edge">
<title>Node30&#45;&gt;Node32</title>
<path fill="none" stroke="midnightblue" d="M990.15,-124.26C993.14,-123.79 996.11,-123.36 999,-123 1276.89,-88.59 1353.28,-141.2 1628,-87 1631.7,-86.27 1635.52,-85.29 1639.27,-84.18"/>
<polygon fill="midnightblue" stroke="midnightblue" points="1640.52,-87.46 1648.95,-81.04 1638.35,-80.8 1640.52,-87.46"/>
</g>
<!-- Node33 -->
<g id="node28" class="node">
<title>Node33</title>
<g id="a_node28"><a xlink:title=" ">
<polygon fill="white" stroke="#bfbfbf" points="1720,-62 1720,-81 1772,-81 1772,-62 1720,-62"/>
<text text-anchor="middle" x="1746" y="-69" font-family="Helvetica,sans-Serif" font-size="10.00">cassert</text>
</a>
</g>
</g>
<!-- Node30&#45;&gt;Node33 -->
<g id="edge28" class="edge">
<title>Node30&#45;&gt;Node33</title>
<path fill="none" stroke="midnightblue" d="M990.15,-124.24C993.14,-123.77 996.11,-123.35 999,-123 1313.58,-85.11 1401.9,-156.65 1711,-87 1713.67,-86.4 1716.41,-85.61 1719.11,-84.7"/>
<polygon fill="midnightblue" stroke="midnightblue" points="1720.48,-87.92 1728.58,-81.09 1717.99,-81.38 1720.48,-87.92"/>
</g>
<!-- Node34 -->
<g id="node29" class="node">
<title>Node34</title>
<g id="a_node29"><a xlink:title=" ">
<polygon fill="white" stroke="#bfbfbf" points="173.5,-62 173.5,-81 222.5,-81 222.5,-62 173.5,-62"/>
<text text-anchor="middle" x="198" y="-69" font-family="Helvetica,sans-Serif" font-size="10.00">cstdlib</text>
</a>
</g>
</g>
<!-- Node30&#45;&gt;Node34 -->
<g id="edge29" class="edge">
<title>Node30&#45;&gt;Node34</title>
<path fill="none" stroke="midnightblue" d="M913.85,-124.25C910.86,-123.78 907.89,-123.35 905,-123 607.66,-86.75 523.77,-154.79 232,-87 229.48,-86.42 226.92,-85.66 224.38,-84.79"/>
<polygon fill="midnightblue" stroke="midnightblue" points="225.49,-81.47 214.9,-81.08 222.94,-87.99 225.49,-81.47"/>
</g>
<!-- Node35 -->
<g id="node30" class="node">
<title>Node35</title>
<g id="a_node30"><a xlink:title=" ">
<polygon fill="white" stroke="#bfbfbf" points="241,-62 241,-81 309,-81 309,-62 241,-62"/>
<text text-anchor="middle" x="275" y="-69" font-family="Helvetica,sans-Serif" font-size="10.00">filesystem</text>
</a>
</g>
</g>
<!-- Node30&#45;&gt;Node35 -->
<g id="edge30" class="edge">
<title>Node30&#45;&gt;Node35</title>
<path fill="none" stroke="midnightblue" d="M913.85,-124.27C910.86,-123.8 907.89,-123.36 905,-123 645.67,-90.35 574.51,-137.2 318,-87 314.11,-86.24 310.09,-85.22 306.14,-84.07"/>
<polygon fill="midnightblue" stroke="midnightblue" points="307.16,-80.72 296.57,-81.01 305.04,-87.39 307.16,-80.72"/>
</g>
<!-- Node36 -->
<g id="node31" class="node">
<title>Node36</title>
<g id="a_node31"><a xlink:title=" ">
<polygon fill="white" stroke="#bfbfbf" points="327.5,-62 327.5,-81 382.5,-81 382.5,-62 327.5,-62"/>
<text text-anchor="middle" x="355" y="-69" font-family="Helvetica,sans-Serif" font-size="10.00">fstream</text>
</a>
</g>
</g>
<!-- Node30&#45;&gt;Node36 -->
<g id="edge31" class="edge">
<title>Node30&#45;&gt;Node36</title>
<path fill="none" stroke="midnightblue" d="M913.84,-124.3C910.86,-123.82 907.88,-123.38 905,-123 678.36,-93.45 614.96,-137.28 392,-87 389,-86.32 385.92,-85.44 382.89,-84.45"/>
<polygon fill="midnightblue" stroke="midnightblue" points="384.07,-81.16 373.48,-81.01 381.67,-87.73 384.07,-81.16"/>
</g>
<!-- Node37 -->
<g id="node32" class="node">
<title>Node37</title>
<g id="a_node32"><a xlink:title=" ">
<polygon fill="white" stroke="#bfbfbf" points="401,-62 401,-81 449,-81 449,-62 401,-62"/>
<text text-anchor="middle" x="425" y="-69" font-family="Helvetica,sans-Serif" font-size="10.00">gsl/gsl</text>
</a>
</g>
</g>
<!-- Node30&#45;&gt;Node37 -->
<g id="edge32" class="edge">
<title>Node30&#45;&gt;Node37</title>
<path fill="none" stroke="midnightblue" d="M913.84,-124.33C910.85,-123.84 907.88,-123.39 905,-123 707.5,-96.22 651.25,-135.77 458,-87 455.7,-86.42 453.35,-85.69 451.02,-84.87"/>
<polygon fill="midnightblue" stroke="midnightblue" points="452.33,-81.62 441.74,-81.15 449.72,-88.12 452.33,-81.62"/>
</g>
<!-- Node38 -->
<g id="node33" class="node">
<title>Node38</title>
<g id="a_node33"><a xlink:title=" ">
<polygon fill="white" stroke="#bfbfbf" points="467,-62 467,-81 527,-81 527,-62 467,-62"/>
<text text-anchor="middle" x="497" y="-69" font-family="Helvetica,sans-Serif" font-size="10.00">iostream</text>
</a>
</g>
</g>
<!-- Node30&#45;&gt;Node38 -->
<g id="edge33" class="edge">
<title>Node30&#45;&gt;Node38</title>
<path fill="none" stroke="midnightblue" d="M913.83,-124.39C910.85,-123.88 907.88,-123.42 905,-123 741.91,-99.48 696.57,-124.02 536,-87 532.93,-86.29 529.78,-85.41 526.66,-84.42"/>
<polygon fill="midnightblue" stroke="midnightblue" points="527.53,-81.02 516.94,-81.04 525.23,-87.63 527.53,-81.02"/>
</g>
<!-- Node39 -->
<g id="node34" class="node">
<title>Node39</title>
<g id="a_node34"><a xlink:title=" ">
<polygon fill="white" stroke="#bfbfbf" points="545,-62 545,-81 593,-81 593,-62 545,-62"/>
<text text-anchor="middle" x="569" y="-69" font-family="Helvetica,sans-Serif" font-size="10.00">mutex</text>
</a>
</g>
</g>
<!-- Node30&#45;&gt;Node39 -->
<g id="edge34" class="edge">
<title>Node30&#45;&gt;Node39</title>
<path fill="none" stroke="midnightblue" d="M913.82,-124.45C910.84,-123.94 907.87,-123.45 905,-123 770.99,-102.23 732.84,-122.67 602,-87 599.71,-86.38 597.37,-85.62 595.05,-84.78"/>
<polygon fill="midnightblue" stroke="midnightblue" points="596.36,-81.53 585.78,-81.02 593.73,-88.02 596.36,-81.53"/>
</g>
<!-- Node40 -->
<g id="node35" class="node">
<title>Node40</title>
<g id="a_node35"><a xlink:title=" ">
<polygon fill="white" stroke="#bfbfbf" points="611,-62 611,-81 665,-81 665,-62 611,-62"/>
<text text-anchor="middle" x="638" y="-69" font-family="Helvetica,sans-Serif" font-size="10.00">random</text>
</a>
</g>
</g>
<!-- Node30&#45;&gt;Node40 -->
<g id="edge35" class="edge">
<title>Node30&#45;&gt;Node40</title>
<path fill="none" stroke="midnightblue" d="M913.8,-124.57C910.83,-124.03 907.86,-123.5 905,-123 802.63,-105.23 774.18,-114.59 674,-87 671.5,-86.31 668.94,-85.5 666.39,-84.62"/>
<polygon fill="midnightblue" stroke="midnightblue" points="667.37,-81.25 656.78,-81 664.9,-87.8 667.37,-81.25"/>
</g>
<!-- Node41 -->
<g id="node36" class="node">
<title>Node41</title>
<g id="a_node36"><a xlink:title=" ">
<polygon fill="white" stroke="#bfbfbf" points="1790,-62 1790,-81 1830,-81 1830,-62 1790,-62"/>
<text text-anchor="middle" x="1810" y="-69" font-family="Helvetica,sans-Serif" font-size="10.00">span</text>
</a>
</g>
</g>
<!-- Node30&#45;&gt;Node41 -->
<g id="edge36" class="edge">
<title>Node30&#45;&gt;Node41</title>
<path fill="none" stroke="midnightblue" d="M990.15,-124.22C993.14,-123.76 996.11,-123.34 999,-123 1171.76,-102.59 1612.66,-130.85 1781,-87 1782.72,-86.55 1784.46,-85.99 1786.19,-85.36"/>
<polygon fill="midnightblue" stroke="midnightblue" points="1788,-88.38 1795.71,-81.12 1785.15,-81.99 1788,-88.38"/>
</g>
<!-- Node42 -->
<g id="node37" class="node">
<title>Node42</title>
<g id="a_node37"><a xlink:title=" ">
<polygon fill="white" stroke="#bfbfbf" points="683.5,-62 683.5,-81 748.5,-81 748.5,-62 683.5,-62"/>
<text text-anchor="middle" x="716" y="-69" font-family="Helvetica,sans-Serif" font-size="10.00">stdexcept</text>
</a>
</g>
</g>
<!-- Node30&#45;&gt;Node42 -->
<g id="edge37" class="edge">
<title>Node30&#45;&gt;Node42</title>
<path fill="none" stroke="midnightblue" d="M913.93,-124.54C874.38,-116.49 810.87,-102.69 757,-87 754.21,-86.19 751.34,-85.29 748.47,-84.36"/>
<polygon fill="midnightblue" stroke="midnightblue" points="749.43,-80.99 738.84,-81.09 747.18,-87.62 749.43,-80.99"/>
</g>
<!-- Node43 -->
<g id="node38" class="node">
<title>Node43</title>
<g id="a_node38"><a xlink:title=" ">
<polygon fill="white" stroke="#bfbfbf" points="766.5,-62 766.5,-81 831.5,-81 831.5,-62 766.5,-62"/>
<text text-anchor="middle" x="799" y="-69" font-family="Helvetica,sans-Serif" font-size="10.00">typeindex</text>
</a>
</g>
</g>
<!-- Node30&#45;&gt;Node43 -->
<g id="edge39" class="edge">
<title>Node30&#45;&gt;Node43</title>
<path fill="none" stroke="midnightblue" d="M930.08,-123.48C903.95,-113.31 860.09,-96.26 830.37,-84.7"/>
<polygon fill="midnightblue" stroke="midnightblue" points="831.47,-81.37 820.88,-81.01 828.93,-87.9 831.47,-81.37"/>
</g>
<!-- Node44 -->
<g id="node39" class="node">
<title>Node44</title>
<g id="a_node39"><a xlink:title=" ">
<polygon fill="white" stroke="#bfbfbf" points="849.5,-62 849.5,-81 908.5,-81 908.5,-62 849.5,-62"/>
<text text-anchor="middle" x="879" y="-69" font-family="Helvetica,sans-Serif" font-size="10.00">date/tz.h</text>
</a>
</g>
</g>
<!-- Node30&#45;&gt;Node44 -->
<g id="edge40" class="edge">
<title>Node30&#45;&gt;Node44</title>
<path fill="none" stroke="midnightblue" d="M941.54,-123.48C930.05,-114.11 911.37,-98.88 897.41,-87.51"/>
<polygon fill="midnightblue" stroke="midnightblue" points="899.4,-84.61 889.44,-81.01 894.98,-90.04 899.4,-84.61"/>
</g>
<!-- Node45 -->
<g id="node40" class="node">
<title>Node45</title>
<g id="a_node40"><a xlink:title=" ">
<polygon fill="white" stroke="#bfbfbf" points="927,-62 927,-81 977,-81 977,-62 927,-62"/>
<text text-anchor="middle" x="952" y="-69" font-family="Helvetica,sans-Serif" font-size="10.00">chrono</text>
</a>
</g>
</g>
<!-- Node30&#45;&gt;Node45 -->
<g id="edge41" class="edge">
<title>Node30&#45;&gt;Node45</title>
<path fill="none" stroke="midnightblue" d="M952,-123.48C952,-115.08 952,-101.98 952,-91.16"/>
<polygon fill="midnightblue" stroke="midnightblue" points="955.5,-91.01 952,-81.01 948.5,-91.01 955.5,-91.01"/>
</g>
<!-- Node46 -->
<g id="node41" class="node">
<title>Node46</title>
<g id="a_node41"><a xlink:title=" ">
<polygon fill="white" stroke="#bfbfbf" points="995,-62 995,-81 1045,-81 1045,-62 995,-62"/>
<text text-anchor="middle" x="1020" y="-69" font-family="Helvetica,sans-Serif" font-size="10.00">format</text>
</a>
</g>
</g>
<!-- Node30&#45;&gt;Node46 -->
<g id="edge42" class="edge">
<title>Node30&#45;&gt;Node46</title>
<path fill="none" stroke="midnightblue" d="M961.74,-123.48C972.35,-114.2 989.52,-99.17 1002.48,-87.83"/>
<polygon fill="midnightblue" stroke="midnightblue" points="1005.05,-90.23 1010.28,-81.01 1000.44,-84.96 1005.05,-90.23"/>
</g>
<!-- Node47 -->
<g id="node42" class="node">
<title>Node47</title>
<g id="a_node42"><a xlink:title=" ">
<polygon fill="white" stroke="#bfbfbf" points="1063,-62 1063,-81 1161,-81 1161,-62 1063,-62"/>
<text text-anchor="middle" x="1112" y="-69" font-family="Helvetica,sans-Serif" font-size="10.00">pcg_random.hpp</text>
</a>
</g>
</g>
<!-- Node30&#45;&gt;Node47 -->
<g id="edge43" class="edge">
<title>Node30&#45;&gt;Node47</title>
<path fill="none" stroke="midnightblue" d="M974.92,-123.48C1002.37,-113.27 1048.52,-96.11 1079.6,-84.55"/>
<polygon fill="midnightblue" stroke="midnightblue" points="1080.97,-87.78 1089.12,-81.01 1078.53,-81.21 1080.97,-87.78"/>
</g>
<!-- Node48 -->
<g id="node43" class="node">
<title>Node48</title>
<g id="a_node43"><a xlink:title=" ">
<polygon fill="white" stroke="#bfbfbf" points="1179,-62 1179,-81 1265,-81 1265,-62 1179,-62"/>
<text text-anchor="middle" x="1222" y="-69" font-family="Helvetica,sans-Serif" font-size="10.00">fmt/ostream.h</text>
</a>
</g>
</g>
<!-- Node30&#45;&gt;Node48 -->
<g id="edge44" class="edge">
<title>Node30&#45;&gt;Node48</title>
<path fill="none" stroke="midnightblue" d="M990.18,-124.45C1043.2,-113.9 1136.39,-95.15 1170,-87 1174.15,-85.99 1178.47,-84.89 1182.77,-83.75"/>
<polygon fill="midnightblue" stroke="midnightblue" points="1183.93,-87.06 1192.67,-81.06 1182.1,-80.3 1183.93,-87.06"/>
</g>
<!-- Node49 -->
<g id="node44" class="node">
<title>Node49</title>
<g id="a_node44"><a xlink:title=" ">
<polygon fill="white" stroke="#bfbfbf" points="1283,-56.5 1283,-86.5 1389,-86.5 1389,-56.5 1283,-56.5"/>
<text text-anchor="start" x="1291" y="-74.5" font-family="Helvetica,sans-Serif" font-size="10.00">spdlog/sinks/basic</text>
<text text-anchor="middle" x="1336" y="-63.5" font-family="Helvetica,sans-Serif" font-size="10.00">_file_sink.h</text>
</a>
</g>
</g>
<!-- Node30&#45;&gt;Node49 -->
<g id="edge45" class="edge">
<title>Node30&#45;&gt;Node49</title>
<path fill="none" stroke="midnightblue" d="M990.19,-124.49C993.16,-123.97 996.13,-123.46 999,-123 1117.49,-103.92 1150.97,-108.78 1272.87,-87.09"/>
<polygon fill="midnightblue" stroke="midnightblue" points="1273.75,-90.49 1282.97,-85.27 1272.51,-83.6 1273.75,-90.49"/>
</g>
<!-- Node50 -->
<g id="node45" class="node">
<title>Node50</title>
<g id="a_node45"><a xlink:title=" ">
<polygon fill="white" stroke="#bfbfbf" points="1407.5,-56.5 1407.5,-86.5 1518.5,-86.5 1518.5,-56.5 1407.5,-56.5"/>
<text text-anchor="start" x="1415.5" y="-74.5" font-family="Helvetica,sans-Serif" font-size="10.00">spdlog/sinks/stdout</text>
<text text-anchor="middle" x="1463" y="-63.5" font-family="Helvetica,sans-Serif" font-size="10.00">_color_sinks.h</text>
</a>
</g>
</g>
<!-- Node30&#45;&gt;Node50 -->
<g id="edge46" class="edge">
<title>Node30&#45;&gt;Node50</title>
<path fill="none" stroke="midnightblue" d="M990.17,-124.36C993.15,-123.87 996.12,-123.4 999,-123 1172.14,-98.67 1220.34,-113.87 1397.51,-86.93"/>
<polygon fill="midnightblue" stroke="midnightblue" points="1398.07,-90.38 1407.42,-85.4 1397,-83.46 1398.07,-90.38"/>
</g>
<!-- Node51&#45;&gt;Node15 -->
<g id="edge51" class="edge">
<title>Node51&#45;&gt;Node15</title>
<path fill="none" stroke="midnightblue" d="M1229.92,-179.08C1221.83,-171.14 1209.8,-159.34 1200.09,-149.8"/>
<polygon fill="midnightblue" stroke="midnightblue" points="1202.5,-147.26 1192.91,-142.75 1197.6,-152.25 1202.5,-147.26"/>
</g>
<!-- Node51&#45;&gt;Node27 -->
<g id="edge54" class="edge">
<title>Node51&#45;&gt;Node27</title>
<path fill="none" stroke="midnightblue" d="M1290.8,-181.53C1395.29,-167.99 1638.44,-133.97 1839,-87 1842.94,-86.08 1847.03,-85.01 1851.09,-83.89"/>
<polygon fill="midnightblue" stroke="midnightblue" points="1852.38,-87.16 1861,-81.01 1850.43,-80.43 1852.38,-87.16"/>
</g>
<!-- Node51&#45;&gt;Node30 -->
<g id="edge55" class="edge">
<title>Node51&#45;&gt;Node30</title>
<path fill="none" stroke="midnightblue" d="M1192.98,-179.43C1146.74,-170.8 1073.14,-157.03 1000.06,-143.19"/>
<polygon fill="midnightblue" stroke="midnightblue" points="1000.69,-139.75 990.22,-141.33 999.39,-146.63 1000.69,-139.75"/>
</g>
<!-- Node51&#45;&gt;Node41 -->
<g id="edge53" class="edge">
<title>Node51&#45;&gt;Node41</title>
<path fill="none" stroke="midnightblue" d="M1238.66,-179.15C1238.65,-164.81 1240.96,-136.71 1258,-123 1348.76,-49.97 1668.61,-117.65 1781,-87 1782.72,-86.53 1784.45,-85.96 1786.18,-85.31"/>
<polygon fill="midnightblue" stroke="midnightblue" points="1788,-88.33 1795.7,-81.05 1785.14,-81.94 1788,-88.33"/>
</g>
<!-- Node52 -->
<g id="node47" class="node">
<title>Node52</title>
<g id="a_node47"><a xlink:title=" ">
<polygon fill="white" stroke="#bfbfbf" points="1267,-123.5 1267,-142.5 1309,-142.5 1309,-123.5 1267,-123.5"/>
<text text-anchor="middle" x="1288" y="-130.5" font-family="Helvetica,sans-Serif" font-size="10.00">array</text>
</a>
</g>
</g>
<!-- Node51&#45;&gt;Node52 -->
<g id="edge50" class="edge">
<title>Node51&#45;&gt;Node52</title>
<path fill="none" stroke="midnightblue" d="M1247.09,-179.08C1254.16,-171.3 1264.59,-159.8 1273.15,-150.37"/>
<polygon fill="midnightblue" stroke="midnightblue" points="1275.93,-152.51 1280.06,-142.75 1270.75,-147.8 1275.93,-152.51"/>
</g>
<!-- Node53 -->
<g id="node48" class="node">
<title>Node53</title>
<g id="a_node48"><a xlink:title=" ">
<polygon fill="white" stroke="#bfbfbf" points="1327,-123.5 1327,-142.5 1377,-142.5 1377,-123.5 1327,-123.5"/>
<text text-anchor="middle" x="1352" y="-130.5" font-family="Helvetica,sans-Serif" font-size="10.00">gsl/util</text>
</a>
</g>
</g>
<!-- Node51&#45;&gt;Node53 -->
<g id="edge52" class="edge">
<title>Node51&#45;&gt;Node53</title>
<path fill="none" stroke="midnightblue" d="M1256.91,-179.44C1275.25,-170.68 1304.01,-156.94 1325.09,-146.86"/>
<polygon fill="midnightblue" stroke="midnightblue" points="1326.67,-149.99 1334.18,-142.52 1323.65,-143.67 1326.67,-149.99"/>
</g>
<!-- Node54&#45;&gt;Node27 -->
<g id="edge58" class="edge">
<title>Node54&#45;&gt;Node27</title>
<path fill="none" stroke="midnightblue" d="M1693.79,-459.32C1722.04,-443.37 1776,-406.56 1776,-358 1776,-358 1776,-358 1776,-188 1776,-139.91 1826.65,-104.08 1859.52,-85.9"/>
<polygon fill="midnightblue" stroke="midnightblue" points="1861.48,-88.82 1868.67,-81.04 1858.2,-82.64 1861.48,-88.82"/>
</g>
<!-- Node55 -->
<g id="node50" class="node">
<title>Node55</title>
<g id="a_node50"><a xlink:title=" ">
<polygon fill="white" stroke="#bfbfbf" points="1653,-403.5 1653,-422.5 1701,-422.5 1701,-403.5 1653,-403.5"/>
<text text-anchor="middle" x="1677" y="-410.5" font-family="Helvetica,sans-Serif" font-size="10.00">mpfr.h</text>
</a>
</g>
</g>
<!-- Node54&#45;&gt;Node55 -->
<g id="edge57" class="edge">
<title>Node54&#45;&gt;Node55</title>
<path fill="none" stroke="midnightblue" d="M1677,-459.08C1677,-452.01 1677,-441.86 1677,-432.99"/>
<polygon fill="midnightblue" stroke="midnightblue" points="1680.5,-432.75 1677,-422.75 1673.5,-432.75 1680.5,-432.75"/>
</g>
</g>
</svg>
        <g id="navigator" transform="translate(0 0)" fill="#404254">
                <rect fill="#f2f5e9" fill-opacity="0.5" stroke="#606060" stroke-width=".5" x="0" y="0" width="60" height="60"/>
                <use id="zoomplus" xlink:href="#zoomPlus" x="17" y="9" onmousedown="handleZoom(evt,'in')"/>
                <use id="zoomminus" xlink:href="#zoomMin" x="42" y="9" onmousedown="handleZoom(evt,'out')"/>
                <use id="reset" xlink:href="#resetDef" x="30" y="36" onmousedown="handleReset()"/>
                <g id="arrowUp" xlink:href="#dirArrow" transform="translate(30 24)" onmousedown="handlePan(0,-1)">
                  <use xlink:href="#rim" fill="#404040">
                        <set attributeName="fill" to="#808080" begin="arrowUp.mouseover" end="arrowUp.mouseout"/>
                  </use>
                  <path fill="none" stroke="white" stroke-width="1.5" d="M0,-3.0v7 M-2.5,-0.5L0,-3.0L2.5,-0.5"/>
                </g>
                <g id="arrowRight" xlink:href="#dirArrow" transform="rotate(90) translate(36 -43)" onmousedown="handlePan(1,0)">
                  <use xlink:href="#rim" fill="#404040">
                        <set attributeName="fill" to="#808080" begin="arrowRight.mouseover" end="arrowRight.mouseout"/>
                  </use>
                  <path fill="none" stroke="white" stroke-width="1.5" d="M0,-3.0v7 M-2.5,-0.5L0,-3.0L2.5,-0.5"/>
                </g>
                <g id="arrowDown" xlink:href="#dirArrow" transform="rotate(180) translate(-30 -48)" onmousedown="handlePan(0,1)">
                  <use xlink:href="#rim" fill="#404040">
                        <set attributeName="fill" to="#808080" begin="arrowDown.mouseover" end="arrowDown.mouseout"/>
                  </use>
                  <path fill="none" stroke="white" stroke-width="1.5" d="M0,-3.0v7 M-2.5,-0.5L0,-3.0L2.5,-0.5"/>
                </g>
                <g id="arrowLeft" xlink:href="#dirArrow" transform="rotate(270) translate(-36 17)" onmousedown="handlePan(-1,0)">
                  <use xlink:href="#rim" fill="#404040">
                        <set attributeName="fill" to="#808080" begin="arrowLeft.mouseover" end="arrowLeft.mouseout"/>
                  </use>
                  <path fill="none" stroke="white" stroke-width="1.5" d="M0,-3.0v7 M-2.5,-0.5L0,-3.0L2.5,-0.5"/>
                </g>
        </g>
        <svg viewBox="0 0 15 15" width="100%" height="30px" preserveAspectRatio="xMaxYMin meet">
         <g id="arrow_out" transform="scale(0.3 0.3)">
          <a xlink:href="cdt_8cpp__incl_org.svg" target="_base">
           <rect id="button" ry="5" rx="5" y="6" x="6" height="38" width="38"
                fill="#f2f5e9" fill-opacity="0.5" stroke="#606060" stroke-width="1.0"/>
           <path id="arrow"
             d="M 11.500037,31.436501 C 11.940474,20.09759 22.043105,11.32322 32.158766,21.979434 L 37.068811,17.246167 C 37.068811,17.246167 37.088388,32 37.088388,32 L 22.160133,31.978069 C 22.160133,31.978069 26.997745,27.140456 26.997745,27.140456 C 18.528582,18.264221 13.291696,25.230495 11.500037,31.436501 z"
             style="fill:#404040;"/>
          </a>
         </g>
        </svg>
</svg>
