<?xml version="1.0" encoding="UTF-8" standalone="no"?>
<!DOCTYPE svg PUBLIC "-//W3C//DTD SVG 1.1//EN"
 "http://www.w3.org/Graphics/SVG/1.1/DTD/svg11.dtd">
<!-- Generated by graphviz version 2.40.1 (20161225.0304)
 -->
<!-- Title: src/cdt.cpp Pages: 1 -->
<!--zoomable 386 -->
<svg id="main" version="1.1" xmlns="http://www.w3.org/2000/svg" xmlns:xlink="http://www.w3.org/1999/xlink" xml:space="preserve" onload="init(evt)">
<style type="text/css"><![CDATA[
.edge:hover path { stroke: red; }
.edge:hover polygon { stroke: red; fill: red; }
]]></style>
<script type="text/javascript"><![CDATA[
var edges = document.getElementsByTagName('g');
if (edges && edges.length) {
  for (var i=0;i<edges.length;i++) {
    if (edges[i].id.substr(0,4)=='edge') {
      edges[i].setAttribute('class','edge');
    }
  }
}
]]></script>
        <defs>
                <circle id="rim" cx="0" cy="0" r="7"/>
                <circle id="rim2" cx="0" cy="0" r="3.5"/>
                <g id="zoomPlus">
                        <use xlink:href="#rim" fill="#404040">
                                <set attributeName="fill" to="#808080" begin="zoomplus.mouseover" end="zoomplus.mouseout"/>
                        </use>
                        <path d="M-4,0h8M0,-4v8" fill="none" stroke="white" stroke-width="1.5" pointer-events="none"/>
                </g>
                <g id="zoomMin">
                        <use xlink:href="#rim" fill="#404040">
                                <set attributeName="fill" to="#808080" begin="zoomminus.mouseover" end="zoomminus.mouseout"/>
                        </use>
                        <path d="M-4,0h8" fill="none" stroke="white" stroke-width="1.5" pointer-events="none"/>
                </g>
                <g id="dirArrow">
                        <path fill="none" stroke="white" stroke-width="1.5" d="M0,-3.0v7 M-2.5,-0.5L0,-3.0L2.5,-0.5"/>
                </g>
               <g id="resetDef">
                       <use xlink:href="#rim2" fill="#404040">
                               <set attributeName="fill" to="#808080" begin="reset.mouseover" end="reset.mouseout"/>
                       </use>
               </g>
        </defs>

<script type="text/javascript">
var viewWidth = 2022;
var viewHeight = 386;
var sectionId = 'dynsection-0';
</script>
<script xlink:href="svgpan.js"/>
<svg id="graph" class="graph">
<g id="viewport">
<title>src/cdt.cpp</title>
<polygon fill="#ffffff" stroke="transparent" points="-4,4 -4,-382 2017.5,-382 2017.5,4 -4,4"/>
<!-- Node0 -->
<g id="node1" class="node">
<title>Node0</title>
<polygon fill="#bfbfbf" stroke="#000000" points="991,-358.5 991,-377.5 1060,-377.5 1060,-358.5 991,-358.5"/>
<text text-anchor="middle" x="1025.5" y="-365.5" font-family="Helvetica,sans-Serif" font-size="10.00" fill="#000000">src/cdt.cpp</text>
</g>
<!-- Node1 -->
<g id="node2" class="node">
<title>Node1</title>
<polygon fill="#ffffff" stroke="#bfbfbf" points="0,-302.5 0,-321.5 107,-321.5 107,-302.5 0,-302.5"/>
<text text-anchor="middle" x="53.5" y="-309.5" font-family="Helvetica,sans-Serif" font-size="10.00" fill="#000000">CGAL/Real_timer.h</text>
</g>
<!-- Node0&#45;&gt;Node1 -->
<g id="edge1" class="edge">
<title>Node0&#45;&gt;Node1</title>
<path fill="none" stroke="#191970" d="M990.9269,-367.4249C870.6315,-365.1718 459.2957,-355.3559 121.5,-322 120.1975,-321.8714 118.8818,-321.7354 117.5563,-321.593"/>
<polygon fill="#191970" stroke="#191970" points="117.6025,-318.0746 107.2635,-320.3887 116.789,-325.0272 117.6025,-318.0746"/>
</g>
<!-- Node2 -->
<g id="node3" class="node">
<title>Node2</title>
<polygon fill="#ffffff" stroke="#bfbfbf" points="1468.5,-56.5 1468.5,-75.5 1516.5,-75.5 1516.5,-56.5 1468.5,-56.5"/>
<text text-anchor="middle" x="1492.5" y="-63.5" font-family="Helvetica,sans-Serif" font-size="10.00" fill="#000000">gsl/gsl</text>
</g>
<!-- Node0&#45;&gt;Node2 -->
<g id="edge2" class="edge">
<title>Node0&#45;&gt;Node2</title>
<path fill="none" stroke="#191970" d="M1060.145,-367.0955C1168.1417,-363.3478 1491.5,-344.7191 1491.5,-256 1491.5,-256 1491.5,-256 1491.5,-200 1491.5,-159.4688 1491.9631,-112.0436 1492.259,-85.8792"/>
<polygon fill="#191970" stroke="#191970" points="1495.7602,-85.7918 1492.3774,-75.7516 1488.7607,-85.71 1495.7602,-85.7918"/>
</g>
<!-- Node3 -->
<g id="node4" class="node">
<title>Node3</title>
<polygon fill="#ffffff" stroke="#bfbfbf" points="145,-123.5 145,-142.5 192,-142.5 192,-123.5 145,-123.5"/>
<text text-anchor="middle" x="168.5" y="-130.5" font-family="Helvetica,sans-Serif" font-size="10.00" fill="#000000">vector</text>
</g>
<!-- Node0&#45;&gt;Node3 -->
<g id="edge3" class="edge">
<title>Node0&#45;&gt;Node3</title>
<path fill="none" stroke="#191970" d="M990.9321,-367.1496C906.1867,-364.5975 681.5829,-355.0044 497.5,-322 404.9549,-305.4075 379.6437,-303.6719 293.5,-266 250.3359,-247.1237 234.5789,-245.4056 203.5,-210 188.7196,-193.1619 179.1247,-169.0427 173.7846,-152.3029"/>
<polygon fill="#191970" stroke="#191970" points="177.0809,-151.1081 170.878,-142.5188 170.3707,-153.1015 177.0809,-151.1081"/>
</g>
<!-- Node4 -->
<g id="node5" class="node">
<title>Node4</title>
<polygon fill="#ffffff" stroke="#bfbfbf" points="1701,-302.5 1701,-321.5 1760,-321.5 1760,-302.5 1701,-302.5"/>
<text text-anchor="middle" x="1730.5" y="-309.5" font-family="Helvetica,sans-Serif" font-size="10.00" fill="#000000">docopt.h</text>
</g>
<!-- Node0&#45;&gt;Node4 -->
<g id="edge4" class="edge">
<title>Node0&#45;&gt;Node4</title>
<path fill="none" stroke="#191970" d="M1060.204,-366.4726C1176.098,-361.2397 1549.932,-343.2622 1690.6269,-321.9999"/>
<polygon fill="#191970" stroke="#191970" points="1691.4144,-325.4189 1700.7438,-320.3976 1690.3194,-318.505 1691.4144,-325.4189"/>
</g>
<!-- Node5 -->
<g id="node6" class="node">
<title>Node5</title>
<g id="a_node6"><a xlink:href="_metropolis_8hpp.html" target="_top" xlink:title="Perform Metropolis&#45;Hastings algorithm on Delaunay Triangulations. ">
<polygon fill="#ffffff" stroke="#000000" points="1594,-302.5 1594,-321.5 1683,-321.5 1683,-302.5 1594,-302.5"/>
<text text-anchor="middle" x="1638.5" y="-309.5" font-family="Helvetica,sans-Serif" font-size="10.00" fill="#000000">Metropolis.hpp</text>
</a>
</g>
</g>
<!-- Node0&#45;&gt;Node5 -->
<g id="edge5" class="edge">
<title>Node0&#45;&gt;Node5</title>
<path fill="none" stroke="#191970" d="M1060.2139,-364.8287C1161.9558,-355.5342 1460.0244,-328.3045 1583.7206,-317.0043"/>
<polygon fill="#191970" stroke="#191970" points="1584.091,-320.4851 1593.7311,-316.0898 1583.4542,-313.5142 1584.091,-320.4851"/>
</g>
<!-- Node52 -->
<g id="node24" class="node">
<title>Node52</title>
<g id="a_node24"><a xlink:href="_simulation_8hpp.html" target="_top" xlink:title="Simulation class. ">
<polygon fill="#ffffff" stroke="#000000" points="506.5,-302.5 506.5,-321.5 596.5,-321.5 596.5,-302.5 506.5,-302.5"/>
<text text-anchor="middle" x="551.5" y="-309.5" font-family="Helvetica,sans-Serif" font-size="10.00" fill="#000000">Simulation.hpp</text>
</a>
</g>
</g>
<!-- Node0&#45;&gt;Node52 -->
<g id="edge26" class="edge">
<title>Node0&#45;&gt;Node52</title>
<path fill="none" stroke="#191970" d="M990.6456,-363.8822C909.082,-354.246 705.2547,-330.1651 606.6487,-318.5155"/>
<polygon fill="#191970" stroke="#191970" points="606.927,-315.0241 596.5854,-317.3265 606.1056,-321.9757 606.927,-315.0241"/>
</g>
<!-- Node6 -->
<g id="node7" class="node">
<title>Node6</title>
<g id="a_node7"><a xlink:href="_move__strategy_8hpp.html" target="_top" xlink:title="Base class for move algorithms on Delaunay Triangulations. ">
<polygon fill="#ffffff" stroke="#000000" points="1528.5,-246.5 1528.5,-265.5 1636.5,-265.5 1636.5,-246.5 1528.5,-246.5"/>
<text text-anchor="middle" x="1582.5" y="-253.5" font-family="Helvetica,sans-Serif" font-size="10.00" fill="#000000">Move_strategy.hpp</text>
</a>
</g>
</g>
<!-- Node5&#45;&gt;Node6 -->
<g id="edge6" class="edge">
<title>Node5&#45;&gt;Node6</title>
<path fill="none" stroke="#191970" d="M1628.7455,-302.2455C1620.6352,-294.1352 1608.9075,-282.4075 1599.2919,-272.7919"/>
<polygon fill="#191970" stroke="#191970" points="1601.6887,-270.2389 1592.1427,-265.6427 1596.7389,-275.1887 1601.6887,-270.2389"/>
</g>
<!-- Node11 -->
<g id="node12" class="node">
<title>Node11</title>
<polygon fill="#ffffff" stroke="#bfbfbf" points="1863,-.5 1863,-19.5 1932,-19.5 1932,-.5 1863,-.5"/>
<text text-anchor="middle" x="1897.5" y="-7.5" font-family="Helvetica,sans-Serif" font-size="10.00" fill="#000000">type_traits</text>
</g>
<!-- Node5&#45;&gt;Node11 -->
<g id="edge25" class="edge">
<title>Node5&#45;&gt;Node11</title>
<path fill="none" stroke="#191970" d="M1674.0301,-302.4661C1752.8635,-280.8108 1935.5,-227.6568 1935.5,-200 1935.5,-200 1935.5,-200 1935.5,-133 1935.5,-94.6461 1918.4248,-52.4423 1907.1666,-28.7843"/>
<polygon fill="#191970" stroke="#191970" points="1910.1861,-26.9938 1902.6248,-19.5723 1903.9077,-30.0892 1910.1861,-26.9938"/>
</g>
<!-- Node48 -->
<g id="node18" class="node">
<title>Node48</title>
<g id="a_node18"><a xlink:href="_s3_action_8hpp.html" target="_top" xlink:title="Calculate S3 bulk actions on 3D Delaunay Triangulations. ">
<polygon fill="#ffffff" stroke="#000000" points="1669.5,-246.5 1669.5,-265.5 1749.5,-265.5 1749.5,-246.5 1669.5,-246.5"/>
<text text-anchor="middle" x="1709.5" y="-253.5" font-family="Helvetica,sans-Serif" font-size="10.00" fill="#000000">S3Action.hpp</text>
</a>
</g>
</g>
<!-- Node5&#45;&gt;Node48 -->
<g id="edge18" class="edge">
<title>Node5&#45;&gt;Node48</title>
<path fill="none" stroke="#191970" d="M1650.8673,-302.2455C1661.4554,-293.8943 1676.9064,-281.7076 1689.2893,-271.9408"/>
<polygon fill="#191970" stroke="#191970" points="1691.5903,-274.5837 1697.2745,-265.6427 1687.2553,-269.0875 1691.5903,-274.5837"/>
</g>
<!-- Node51 -->
<g id="node23" class="node">
<title>Node51</title>
<polygon fill="#ffffff" stroke="#bfbfbf" points="1963.5,-246.5 1963.5,-265.5 2013.5,-265.5 2013.5,-246.5 1963.5,-246.5"/>
<text text-anchor="middle" x="1988.5" y="-253.5" font-family="Helvetica,sans-Serif" font-size="10.00" fill="#000000">atomic</text>
</g>
<!-- Node5&#45;&gt;Node51 -->
<g id="edge24" class="edge">
<title>Node5&#45;&gt;Node51</title>
<path fill="none" stroke="#191970" d="M1683.2627,-303.5541C1686.3862,-303.0129 1689.4885,-302.4895 1692.5,-302 1806.3432,-283.4947 1836.3505,-288.3584 1949.5,-266 1950.7729,-265.7485 1952.0662,-265.4809 1953.3704,-265.2008"/>
<polygon fill="#191970" stroke="#191970" points="1954.4681,-268.5392 1963.4191,-262.8708 1952.8869,-261.7201 1954.4681,-268.5392"/>
</g>
<!-- Node7 -->
<g id="node8" class="node">
<title>Node7</title>
<g id="a_node8"><a xlink:href="_move__command_8hpp.html" target="_top" xlink:title="Do ergodic moves using the Command pattern. ">
<polygon fill="#ffffff" stroke="#000000" points="1523.5,-190.5 1523.5,-209.5 1641.5,-209.5 1641.5,-190.5 1523.5,-190.5"/>
<text text-anchor="middle" x="1582.5" y="-197.5" font-family="Helvetica,sans-Serif" font-size="10.00" fill="#000000">Move_command.hpp</text>
</a>
</g>
</g>
<!-- Node6&#45;&gt;Node7 -->
<g id="edge7" class="edge">
<title>Node6&#45;&gt;Node7</title>
<path fill="none" stroke="#191970" d="M1582.5,-246.2455C1582.5,-238.9382 1582.5,-228.6944 1582.5,-219.7046"/>
<polygon fill="#191970" stroke="#191970" points="1586.0001,-219.6426 1582.5,-209.6427 1579.0001,-219.6427 1586.0001,-219.6426"/>
</g>
<!-- Node47 -->
<g id="node17" class="node">
<title>Node47</title>
<polygon fill="#ffffff" stroke="#bfbfbf" points="1405.5,-123.5 1405.5,-142.5 1463.5,-142.5 1463.5,-123.5 1405.5,-123.5"/>
<text text-anchor="middle" x="1434.5" y="-130.5" font-family="Helvetica,sans-Serif" font-size="10.00" fill="#000000">memory</text>
</g>
<!-- Node6&#45;&gt;Node47 -->
<g id="edge17" class="edge">
<title>Node6&#45;&gt;Node47</title>
<path fill="none" stroke="#191970" d="M1566.842,-246.4889C1552.7025,-237.6518 1531.5602,-223.8108 1514.5,-210 1491.0236,-190.9951 1466.3157,-166.4089 1450.6785,-150.1932"/>
<polygon fill="#191970" stroke="#191970" points="1452.8193,-147.367 1443.3826,-142.5503 1447.7559,-152.2004 1452.8193,-147.367"/>
</g>
<!-- Node8 -->
<g id="node9" class="node">
<title>Node8</title>
<g id="a_node9"><a xlink:href="_apply__move_8hpp.html" target="_top" xlink:title="Apply Pachner moves to foliated Delaunay triangulations. ">
<polygon fill="#ffffff" stroke="#000000" points="1711.5,-123.5 1711.5,-142.5 1809.5,-142.5 1809.5,-123.5 1711.5,-123.5"/>
<text text-anchor="middle" x="1760.5" y="-130.5" font-family="Helvetica,sans-Serif" font-size="10.00" fill="#000000">Apply_move.hpp</text>
</a>
</g>
</g>
<!-- Node7&#45;&gt;Node8 -->
<g id="edge8" class="edge">
<title>Node7&#45;&gt;Node8</title>
<path fill="none" stroke="#191970" d="M1608.0031,-190.4005C1638.8007,-178.8082 1690.765,-159.2486 1725.3481,-146.2313"/>
<polygon fill="#191970" stroke="#191970" points="1726.9183,-149.3801 1735.0442,-142.5817 1724.4523,-142.8288 1726.9183,-149.3801"/>
</g>
<!-- Node14 -->
<g id="node15" class="node">
<title>Node14</title>
<g id="a_node15"><a xlink:href="_ergodic__moves__3_8hpp.html" target="_top" xlink:title="Pachner moves on 2+1 dimensional foliated Delaunay triangulations. ">
<polygon fill="#ffffff" stroke="#000000" points="1520,-123.5 1520,-142.5 1643,-142.5 1643,-123.5 1520,-123.5"/>
<text text-anchor="middle" x="1581.5" y="-130.5" font-family="Helvetica,sans-Serif" font-size="10.00" fill="#000000">Ergodic_moves_3.hpp</text>
</a>
</g>
</g>
<!-- Node7&#45;&gt;Node14 -->
<g id="edge14" class="edge">
<title>Node7&#45;&gt;Node14</title>
<path fill="none" stroke="#191970" d="M1582.3567,-190.4005C1582.2112,-180.649 1581.9815,-165.2597 1581.7966,-152.8695"/>
<polygon fill="#191970" stroke="#191970" points="1585.292,-152.5283 1581.643,-142.5817 1578.2927,-152.6328 1585.292,-152.5283"/>
</g>
<!-- Node9 -->
<g id="node10" class="node">
<title>Node9</title>
<g id="a_node10"><a xlink:href="_function__ref_8hpp.html" target="_top" xlink:title="Efficient, type&#45;erasing, non&#45;owning function reference. ">
<polygon fill="#ffffff" stroke="#000000" points="1811.5,-56.5 1811.5,-75.5 1907.5,-75.5 1907.5,-56.5 1811.5,-56.5"/>
<text text-anchor="middle" x="1859.5" y="-63.5" font-family="Helvetica,sans-Serif" font-size="10.00" fill="#000000">Function_ref.hpp</text>
</a>
</g>
</g>
<!-- Node8&#45;&gt;Node9 -->
<g id="edge9" class="edge">
<title>Node8&#45;&gt;Node9</title>
<path fill="none" stroke="#191970" d="M1774.6843,-123.4005C1790.9311,-112.4052 1817.7691,-94.2422 1836.9034,-81.2927"/>
<polygon fill="#191970" stroke="#191970" points="1839.022,-84.0851 1845.342,-75.5817 1835.0986,-78.2879 1839.022,-84.0851"/>
</g>
<!-- Node13 -->
<g id="node14" class="node">
<title>Node13</title>
<polygon fill="#ffffff" stroke="#bfbfbf" points="1728,-56.5 1728,-75.5 1793,-75.5 1793,-56.5 1728,-56.5"/>
<text text-anchor="middle" x="1760.5" y="-63.5" font-family="Helvetica,sans-Serif" font-size="10.00" fill="#000000">functional</text>
</g>
<!-- Node8&#45;&gt;Node13 -->
<g id="edge13" class="edge">
<title>Node8&#45;&gt;Node13</title>
<path fill="none" stroke="#191970" d="M1760.5,-123.4005C1760.5,-113.649 1760.5,-98.2597 1760.5,-85.8695"/>
<polygon fill="#191970" stroke="#191970" points="1764.0001,-85.5816 1760.5,-75.5817 1757.0001,-85.5817 1764.0001,-85.5816"/>
</g>
<!-- Node10 -->
<g id="node11" class="node">
<title>Node10</title>
<polygon fill="#ffffff" stroke="#bfbfbf" points="1782.5,-.5 1782.5,-19.5 1832.5,-19.5 1832.5,-.5 1782.5,-.5"/>
<text text-anchor="middle" x="1807.5" y="-7.5" font-family="Helvetica,sans-Serif" font-size="10.00" fill="#000000">cstdint</text>
</g>
<!-- Node9&#45;&gt;Node10 -->
<g id="edge10" class="edge">
<title>Node9&#45;&gt;Node10</title>
<path fill="none" stroke="#191970" d="M1850.4423,-56.2455C1842.9858,-48.2155 1832.2366,-36.6394 1823.3583,-27.0781"/>
<polygon fill="#191970" stroke="#191970" points="1825.8232,-24.589 1816.4539,-19.6427 1820.6937,-29.3522 1825.8232,-24.589"/>
</g>
<!-- Node9&#45;&gt;Node11 -->
<g id="edge11" class="edge">
<title>Node9&#45;&gt;Node11</title>
<path fill="none" stroke="#191970" d="M1866.1191,-56.2455C1871.4046,-48.4564 1878.9541,-37.3308 1885.3238,-27.9439"/>
<polygon fill="#191970" stroke="#191970" points="1888.2379,-29.8827 1890.9568,-19.6427 1882.4455,-25.9522 1888.2379,-29.8827"/>
</g>
<!-- Node12 -->
<g id="node13" class="node">
<title>Node12</title>
<polygon fill="#ffffff" stroke="#bfbfbf" points="259,-.5 259,-19.5 304,-19.5 304,-.5 259,-.5"/>
<text text-anchor="middle" x="281.5" y="-7.5" font-family="Helvetica,sans-Serif" font-size="10.00" fill="#000000">utility</text>
</g>
<!-- Node9&#45;&gt;Node12 -->
<g id="edge12" class="edge">
<title>Node9&#45;&gt;Node12</title>
<path fill="none" stroke="#191970" d="M1811.3657,-57.0554C1808.3718,-56.6542 1805.3985,-56.2965 1802.5,-56 1499.2651,-24.9768 506.8234,-12.5059 314.0915,-10.3485"/>
<polygon fill="#191970" stroke="#191970" points="314.0661,-6.8481 304.028,-10.2372 313.9886,-13.8477 314.0661,-6.8481"/>
</g>
<!-- Node15 -->
<g id="node16" class="node">
<title>Node15</title>
<g id="a_node16"><a xlink:href="_manifold_8hpp.html" target="_top" xlink:title="Data structures for manifolds. ">
<polygon fill="#ffffff" stroke="#ff0000" points="1534.5,-56.5 1534.5,-75.5 1614.5,-75.5 1614.5,-56.5 1534.5,-56.5"/>
<text text-anchor="middle" x="1574.5" y="-63.5" font-family="Helvetica,sans-Serif" font-size="10.00" fill="#000000">Manifold.hpp</text>
</a>
</g>
</g>
<!-- Node14&#45;&gt;Node15 -->
<g id="edge15" class="edge">
<title>Node14&#45;&gt;Node15</title>
<path fill="none" stroke="#191970" d="M1580.4971,-123.4005C1579.4783,-113.649 1577.8704,-98.2597 1576.5759,-85.8695"/>
<polygon fill="#191970" stroke="#191970" points="1580.0213,-85.1638 1575.5011,-75.5817 1573.0592,-85.8912 1580.0213,-85.1638"/>
</g>
<!-- Node15&#45;&gt;Node12 -->
<g id="edge16" class="edge">
<title>Node15&#45;&gt;Node12</title>
<path fill="none" stroke="#191970" d="M1534.476,-57.2739C1531.4479,-56.7849 1528.4311,-56.3509 1525.5,-56 1281.0167,-26.7339 486.1852,-13.1228 314.4194,-10.4843"/>
<polygon fill="#191970" stroke="#191970" points="314.2915,-6.982 304.2395,-10.3296 314.1851,-13.9812 314.2915,-6.982"/>
</g>
<!-- Node36 -->
<g id="node19" class="node">
<title>Node36</title>
<g id="a_node19"><a xlink:href="_settings_8hpp.html" target="_top" xlink:title="Global integer and precision settings. ">
<polygon fill="#ffffff" stroke="#000000" points="1633,-56.5 1633,-75.5 1710,-75.5 1710,-56.5 1633,-56.5"/>
<text text-anchor="middle" x="1671.5" y="-63.5" font-family="Helvetica,sans-Serif" font-size="10.00" fill="#000000">Settings.hpp</text>
</a>
</g>
</g>
<!-- Node48&#45;&gt;Node36 -->
<g id="edge19" class="edge">
<title>Node48&#45;&gt;Node36</title>
<path fill="none" stroke="#191970" d="M1704.6623,-246.3871C1700.2773,-237.2543 1693.984,-223.0212 1690.5,-210 1678.8709,-166.5378 1674.2226,-113.7117 1672.4732,-85.6849"/>
<polygon fill="#191970" stroke="#191970" points="1675.9622,-85.3891 1671.9046,-75.6021 1668.9733,-85.7834 1675.9622,-85.3891"/>
</g>
<!-- Node49 -->
<g id="node21" class="node">
<title>Node49</title>
<polygon fill="#ffffff" stroke="#bfbfbf" points="1765.5,-190.5 1765.5,-209.5 1811.5,-209.5 1811.5,-190.5 1765.5,-190.5"/>
<text text-anchor="middle" x="1788.5" y="-197.5" font-family="Helvetica,sans-Serif" font-size="10.00" fill="#000000">cstdio</text>
</g>
<!-- Node48&#45;&gt;Node49 -->
<g id="edge22" class="edge">
<title>Node48&#45;&gt;Node49</title>
<path fill="none" stroke="#191970" d="M1723.2607,-246.2455C1735.1552,-237.814 1752.565,-225.4729 1766.4085,-215.6598"/>
<polygon fill="#191970" stroke="#191970" points="1768.7628,-218.2811 1774.8969,-209.6427 1764.7146,-212.5704 1768.7628,-218.2811"/>
</g>
<!-- Node50 -->
<g id="node22" class="node">
<title>Node50</title>
<polygon fill="#ffffff" stroke="#bfbfbf" points="1699.5,-190.5 1699.5,-209.5 1747.5,-209.5 1747.5,-190.5 1699.5,-190.5"/>
<text text-anchor="middle" x="1723.5" y="-197.5" font-family="Helvetica,sans-Serif" font-size="10.00" fill="#000000">mpfr.h</text>
</g>
<!-- Node48&#45;&gt;Node50 -->
<g id="edge23" class="edge">
<title>Node48&#45;&gt;Node50</title>
<path fill="none" stroke="#191970" d="M1711.9386,-246.2455C1713.7855,-238.8579 1716.3828,-228.4689 1718.6478,-219.4087"/>
<polygon fill="#191970" stroke="#191970" points="1722.0594,-220.193 1721.0893,-209.6427 1715.2684,-218.4952 1722.0594,-220.193"/>
</g>
<!-- Node36&#45;&gt;Node10 -->
<g id="edge21" class="edge">
<title>Node36&#45;&gt;Node10</title>
<path fill="none" stroke="#191970" d="M1694.8792,-56.3733C1717.0045,-47.2629 1750.4134,-33.5062 1775.1019,-23.3404"/>
<polygon fill="#191970" stroke="#191970" points="1776.5117,-26.5451 1784.4258,-19.5011 1773.8464,-20.0723 1776.5117,-26.5451"/>
</g>
<!-- Node37 -->
<g id="node20" class="node">
<title>Node37</title>
<polygon fill="#ffffff" stroke="#bfbfbf" points="1628.5,-.5 1628.5,-19.5 1714.5,-19.5 1714.5,-.5 1628.5,-.5"/>
<text text-anchor="middle" x="1671.5" y="-7.5" font-family="Helvetica,sans-Serif" font-size="10.00" fill="#000000">CGAL/Gmpzf.h</text>
</g>
<!-- Node36&#45;&gt;Node37 -->
<g id="edge20" class="edge">
<title>Node36&#45;&gt;Node37</title>
<path fill="none" stroke="#191970" d="M1671.5,-56.2455C1671.5,-48.9382 1671.5,-38.6944 1671.5,-29.7046"/>
<polygon fill="#191970" stroke="#191970" points="1675.0001,-29.6426 1671.5,-19.6427 1668.0001,-29.6427 1675.0001,-29.6426"/>
</g>
<!-- Node52&#45;&gt;Node3 -->
<g id="edge66" class="edge">
<title>Node52&#45;&gt;Node3</title>
<path fill="none" stroke="#191970" d="M506.2574,-306.3828C440.1405,-296.3674 315.5405,-270.4937 228.5,-210 206.4252,-194.6579 188.6704,-168.7652 178.3573,-151.2873"/>
<polygon fill="#191970" stroke="#191970" points="181.3889,-149.5378 173.4133,-142.5635 175.2989,-152.9892 181.3889,-149.5378"/>
</g>
<!-- Node52&#45;&gt;Node9 -->
<g id="edge27" class="edge">
<title>Node52&#45;&gt;Node9</title>
<path fill="none" stroke="#191970" d="M596.8382,-311.1383C809.918,-306.9784 1703.7777,-288.2603 1758.5,-266 1792.8949,-252.0086 1801.0808,-241.649 1820.5,-210 1844.8947,-170.242 1854.2676,-115.1572 1857.6811,-85.9864"/>
<polygon fill="#191970" stroke="#191970" points="1861.1835,-86.1468 1858.7467,-75.836 1854.2217,-85.416 1861.1835,-86.1468"/>
</g>
<!-- Node52&#45;&gt;Node12 -->
<g id="edge65" class="edge">
<title>Node52&#45;&gt;Node12</title>
<path fill="none" stroke="#191970" d="M506.2969,-309.1407C453.6712,-304.6429 364.8598,-293.3925 293.5,-266 213.1416,-235.1532 172.2358,-231.8426 135.5,-154 107.0227,-93.657 198.497,-44.4873 249.5502,-22.4739"/>
<polygon fill="#191970" stroke="#191970" points="251.0084,-25.6577 258.8746,-18.5603 248.2993,-19.2032 251.0084,-25.6577"/>
</g>
<!-- Node53 -->
<g id="node25" class="node">
<title>Node53</title>
<g id="a_node25"><a xlink:href="_simplicial_manifold_8hpp.html" target="_top" xlink:title="Data structures for simplicial manifolds. ">
<polygon fill="#ffffff" stroke="#000000" points="487.5,-246.5 487.5,-265.5 615.5,-265.5 615.5,-246.5 487.5,-246.5"/>
<text text-anchor="middle" x="551.5" y="-253.5" font-family="Helvetica,sans-Serif" font-size="10.00" fill="#000000">SimplicialManifold.hpp</text>
</a>
</g>
</g>
<!-- Node52&#45;&gt;Node53 -->
<g id="edge28" class="edge">
<title>Node52&#45;&gt;Node53</title>
<path fill="none" stroke="#191970" d="M551.5,-302.2455C551.5,-294.9382 551.5,-284.6944 551.5,-275.7046"/>
<polygon fill="#191970" stroke="#191970" points="555.0001,-275.6426 551.5,-265.6427 548.0001,-275.6427 555.0001,-275.6426"/>
</g>
<!-- Node53&#45;&gt;Node3 -->
<g id="edge64" class="edge">
<title>Node53&#45;&gt;Node3</title>
<path fill="none" stroke="#191970" d="M487.2161,-249.6448C414.9005,-241.813 302.4557,-227.3851 263.5,-210 231.7246,-195.8193 201.6964,-168.2347 184.2028,-150.2218"/>
<polygon fill="#191970" stroke="#191970" points="186.5017,-147.5591 177.0859,-142.7017 181.4175,-152.3706 186.5017,-147.5591"/>
</g>
<!-- Node53&#45;&gt;Node12 -->
<g id="edge63" class="edge">
<title>Node53&#45;&gt;Node12</title>
<path fill="none" stroke="#191970" d="M498.9375,-246.4974C418.3038,-230.7259 270.1591,-196.6178 239.5,-154 211.2466,-114.7263 246.1201,-56.6172 267.3767,-27.6942"/>
<polygon fill="#191970" stroke="#191970" points="270.1828,-29.7864 273.4515,-19.7083 264.6115,-25.5483 270.1828,-29.7864"/>
</g>
<!-- Node53&#45;&gt;Node47 -->
<g id="edge61" class="edge">
<title>Node53&#45;&gt;Node47</title>
<path fill="none" stroke="#191970" d="M615.5962,-251.4563C786.6303,-238.8257 1250.7051,-201.1035 1396.5,-154 1401.5701,-152.3619 1406.7375,-150.0274 1411.562,-147.5058"/>
<polygon fill="#191970" stroke="#191970" points="1413.3216,-150.5317 1420.3009,-142.5604 1409.8741,-144.4395 1413.3216,-150.5317"/>
</g>
<!-- Node54 -->
<g id="node26" class="node">
<title>Node54</title>
<g id="a_node26"><a xlink:href="_s3_triangulation_8hpp.html" target="_top" xlink:title="Functions on 3D Spherical Delaunay Triangulations. ">
<polygon fill="#ffffff" stroke="#000000" points="681,-190.5 681,-209.5 794,-209.5 794,-190.5 681,-190.5"/>
<text text-anchor="middle" x="737.5" y="-197.5" font-family="Helvetica,sans-Serif" font-size="10.00" fill="#000000">S3Triangulation.hpp</text>
</a>
</g>
</g>
<!-- Node53&#45;&gt;Node54 -->
<g id="edge29" class="edge">
<title>Node53&#45;&gt;Node54</title>
<path fill="none" stroke="#191970" d="M583.4745,-246.3733C614.6713,-236.9807 662.271,-222.6496 696.2932,-212.4064"/>
<polygon fill="#191970" stroke="#191970" points="697.3763,-215.7355 705.9427,-209.5011 695.3582,-209.0327 697.3763,-215.7355"/>
</g>
<!-- Node55 -->
<g id="node47" class="node">
<title>Node55</title>
<polygon fill="#ffffff" stroke="#bfbfbf" points="248.5,-123.5 248.5,-142.5 280.5,-142.5 280.5,-123.5 248.5,-123.5"/>
<text text-anchor="middle" x="264.5" y="-130.5" font-family="Helvetica,sans-Serif" font-size="10.00" fill="#000000">set</text>
</g>
<!-- Node53&#45;&gt;Node55 -->
<g id="edge62" class="edge">
<title>Node53&#45;&gt;Node55</title>
<path fill="none" stroke="#191970" d="M551.5821,-246.2195C551.1322,-231.605 547.9732,-204.2642 531.5,-190 450.9572,-120.2578 393.4123,-193.5913 294.5,-154 290.8627,-152.5441 287.2381,-150.5723 283.8309,-148.4172"/>
<polygon fill="#191970" stroke="#191970" points="285.6495,-145.4169 275.4602,-142.5134 281.6149,-151.1373 285.6495,-145.4169"/>
</g>
<!-- Node57 -->
<g id="node49" class="node">
<title>Node57</title>
<polygon fill="#ffffff" stroke="#bfbfbf" points="416,-190.5 416,-209.5 523,-209.5 523,-190.5 416,-190.5"/>
<text text-anchor="middle" x="469.5" y="-197.5" font-family="Helvetica,sans-Serif" font-size="10.00" fill="#000000">boost/optional.hpp</text>
</g>
<!-- Node53&#45;&gt;Node57 -->
<g id="edge59" class="edge">
<title>Node53&#45;&gt;Node57</title>
<path fill="none" stroke="#191970" d="M537.2167,-246.2455C524.753,-237.7337 506.4549,-225.2375 492.0208,-215.3801"/>
<polygon fill="#191970" stroke="#191970" points="493.8515,-212.392 483.6196,-209.6427 489.9038,-218.1726 493.8515,-212.392"/>
</g>
<!-- Node58 -->
<g id="node50" class="node">
<title>Node58</title>
<polygon fill="#ffffff" stroke="#bfbfbf" points="812.5,-190.5 812.5,-209.5 850.5,-209.5 850.5,-190.5 812.5,-190.5"/>
<text text-anchor="middle" x="831.5" y="-197.5" font-family="Helvetica,sans-Serif" font-size="10.00" fill="#000000">map</text>
</g>
<!-- Node53&#45;&gt;Node58 -->
<g id="edge60" class="edge">
<title>Node53&#45;&gt;Node58</title>
<path fill="none" stroke="#191970" d="M615.5252,-246.9945C666.597,-239.1587 739.7233,-226.4755 802.5,-210 802.5998,-209.9738 802.6998,-209.9474 802.7999,-209.9209"/>
<polygon fill="#191970" stroke="#191970" points="803.7064,-213.3031 812.2814,-207.0804 801.6975,-206.5975 803.7064,-213.3031"/>
</g>
<!-- Node54&#45;&gt;Node3 -->
<g id="edge58" class="edge">
<title>Node54&#45;&gt;Node3</title>
<path fill="none" stroke="#191970" d="M680.7405,-196.1604C568.6958,-188.3499 322.7414,-169.9953 239.5,-154 227.1005,-151.6174 213.7635,-147.9715 202.0338,-144.3825"/>
<polygon fill="#191970" stroke="#191970" points="202.7936,-140.952 192.2037,-141.2764 200.6844,-147.6268 202.7936,-140.952"/>
</g>
<!-- Node54&#45;&gt;Node12 -->
<g id="edge57" class="edge">
<title>Node54&#45;&gt;Node12</title>
<path fill="none" stroke="#191970" d="M680.9574,-196.9834C574.955,-190.8486 354.559,-175.6427 327.5,-154 289.5326,-123.6324 282.4265,-61.81 281.3986,-29.958"/>
<polygon fill="#191970" stroke="#191970" points="284.8944,-29.6408 281.249,-19.6929 277.8952,-29.7429 284.8944,-29.6408"/>
</g>
<!-- Node54&#45;&gt;Node47 -->
<g id="edge53" class="edge">
<title>Node54&#45;&gt;Node47</title>
<path fill="none" stroke="#191970" d="M794.3399,-191.0569C797.435,-190.6733 800.5036,-190.3173 803.5,-190 934.7863,-176.0973 1269.7218,-190.8331 1396.5,-154 1401.7048,-152.4878 1406.9837,-150.1684 1411.8845,-147.6144"/>
<polygon fill="#191970" stroke="#191970" points="1413.777,-150.5642 1420.7239,-142.5647 1410.3047,-144.4861 1413.777,-150.5642"/>
</g>
<!-- Node38 -->
<g id="node27" class="node">
<title>Node38</title>
<polygon fill="#ffffff" stroke="#bfbfbf" points="1059.5,-123.5 1059.5,-142.5 1239.5,-142.5 1239.5,-123.5 1059.5,-123.5"/>
<text text-anchor="middle" x="1149.5" y="-130.5" font-family="Helvetica,sans-Serif" font-size="10.00" fill="#000000">CGAL/Delaunay_triangulation_3.h</text>
</g>
<!-- Node54&#45;&gt;Node38 -->
<g id="edge30" class="edge">
<title>Node54&#45;&gt;Node38</title>
<path fill="none" stroke="#191970" d="M794.0225,-191.4146C797.2286,-190.9342 800.4049,-190.46 803.5,-190 913.2322,-173.6904 941.2932,-173.5201 1050.5,-154 1065.6771,-151.2872 1082.0814,-147.9668 1097.0885,-144.774"/>
<polygon fill="#191970" stroke="#191970" points="1098.1827,-148.1187 1107.2225,-142.5931 1096.7099,-141.2754 1098.1827,-148.1187"/>
</g>
<!-- Node39 -->
<g id="node28" class="node">
<title>Node39</title>
<polygon fill="#ffffff" stroke="#bfbfbf" points="1258,-112.5 1258,-153.5 1387,-153.5 1387,-112.5 1258,-112.5"/>
<text text-anchor="start" x="1266" y="-141.5" font-family="Helvetica,sans-Serif" font-size="10.00" fill="#000000">CGAL/Exact_predicates</text>
<text text-anchor="start" x="1266" y="-130.5" font-family="Helvetica,sans-Serif" font-size="10.00" fill="#000000">_inexact_constructions</text>
<text text-anchor="middle" x="1322.5" y="-119.5" font-family="Helvetica,sans-Serif" font-size="10.00" fill="#000000">_kernel.h</text>
</g>
<!-- Node54&#45;&gt;Node39 -->
<g id="edge31" class="edge">
<title>Node54&#45;&gt;Node39</title>
<path fill="none" stroke="#191970" d="M794.348,-191.1297C797.441,-190.7274 800.5069,-190.3474 803.5,-190 997.3286,-167.5034 1051.4456,-188.5316 1247.6374,-153.9644"/>
<polygon fill="#191970" stroke="#191970" points="1248.4687,-157.3714 1257.6964,-152.1657 1247.2365,-150.4807 1248.4687,-157.3714"/>
</g>
<!-- Node40 -->
<g id="node29" class="node">
<title>Node40</title>
<polygon fill="#ffffff" stroke="#bfbfbf" points="336.5,-118 336.5,-148 474.5,-148 474.5,-118 336.5,-118"/>
<text text-anchor="start" x="344.5" y="-136" font-family="Helvetica,sans-Serif" font-size="10.00" fill="#000000">CGAL/Triangulation</text>
<text text-anchor="middle" x="405.5" y="-125" font-family="Helvetica,sans-Serif" font-size="10.00" fill="#000000">_cell_base_with_info_3.h</text>
</g>
<!-- Node54&#45;&gt;Node40 -->
<g id="edge32" class="edge">
<title>Node54&#45;&gt;Node40</title>
<path fill="none" stroke="#191970" d="M680.9831,-191.1598C629.3283,-182.75 550.944,-169.1581 483.5,-154 478.7881,-152.941 473.9324,-151.7869 469.0568,-150.5824"/>
<polygon fill="#191970" stroke="#191970" points="469.614,-147.1132 459.061,-148.0537 467.8972,-153.8994 469.614,-147.1132"/>
</g>
<!-- Node41 -->
<g id="node30" class="node">
<title>Node41</title>
<polygon fill="#ffffff" stroke="#bfbfbf" points="492.5,-118 492.5,-148 644.5,-148 644.5,-118 492.5,-118"/>
<text text-anchor="start" x="500.5" y="-136" font-family="Helvetica,sans-Serif" font-size="10.00" fill="#000000">CGAL/Triangulation</text>
<text text-anchor="middle" x="568.5" y="-125" font-family="Helvetica,sans-Serif" font-size="10.00" fill="#000000">_vertex_base_with_info_3.h</text>
</g>
<!-- Node54&#45;&gt;Node41 -->
<g id="edge33" class="edge">
<title>Node54&#45;&gt;Node41</title>
<path fill="none" stroke="#191970" d="M713.2864,-190.4005C687.9762,-180.3663 647.609,-164.3627 615.9203,-151.7997"/>
<polygon fill="#191970" stroke="#191970" points="616.9768,-148.4536 606.3907,-148.0218 614.3969,-154.9609 616.9768,-148.4536"/>
</g>
<!-- Node42 -->
<g id="node31" class="node">
<title>Node42</title>
<polygon fill="#ffffff" stroke="#bfbfbf" points="663,-123.5 663,-142.5 812,-142.5 812,-123.5 663,-123.5"/>
<text text-anchor="middle" x="737.5" y="-130.5" font-family="Helvetica,sans-Serif" font-size="10.00" fill="#000000">CGAL/point_generators_3.h</text>
</g>
<!-- Node54&#45;&gt;Node42 -->
<g id="edge34" class="edge">
<title>Node54&#45;&gt;Node42</title>
<path fill="none" stroke="#191970" d="M737.5,-190.4005C737.5,-180.649 737.5,-165.2597 737.5,-152.8695"/>
<polygon fill="#191970" stroke="#191970" points="741.0001,-152.5816 737.5,-142.5817 734.0001,-152.5817 741.0001,-152.5816"/>
</g>
<!-- Node18 -->
<g id="node32" class="node">
<title>Node18</title>
<g id="a_node32"><a xlink:href="_utilities_8hpp.html" target="_top" xlink:title="Utility functions. ">
<polygon fill="#ffffff" stroke="#ff0000" points="965.5,-123.5 965.5,-142.5 1041.5,-142.5 1041.5,-123.5 965.5,-123.5"/>
<text text-anchor="middle" x="1003.5" y="-130.5" font-family="Helvetica,sans-Serif" font-size="10.00" fill="#000000">Utilities.hpp</text>
</a>
</g>
</g>
<!-- Node54&#45;&gt;Node18 -->
<g id="edge35" class="edge">
<title>Node54&#45;&gt;Node18</title>
<path fill="none" stroke="#191970" d="M794.3296,-191.2893C838.8119,-183.6895 901.9056,-171.1787 955.5,-154 961.8665,-151.9593 968.5339,-149.3594 974.8047,-146.6895"/>
<polygon fill="#191970" stroke="#191970" points="976.5108,-149.7617 984.2321,-142.5068 973.6719,-143.3632 976.5108,-149.7617"/>
</g>
<!-- Node22 -->
<g id="node36" class="node">
<title>Node22</title>
<polygon fill="#ffffff" stroke="#bfbfbf" points="309.5,-56.5 309.5,-75.5 373.5,-75.5 373.5,-56.5 309.5,-56.5"/>
<text text-anchor="middle" x="341.5" y="-63.5" font-family="Helvetica,sans-Serif" font-size="10.00" fill="#000000">algorithm</text>
</g>
<!-- Node54&#45;&gt;Node22 -->
<g id="edge52" class="edge">
<title>Node54&#45;&gt;Node22</title>
<path fill="none" stroke="#191970" d="M771.3965,-190.4632C789.3701,-183.4893 809.8802,-172.0275 820.5,-154 829.9746,-137.9166 833.1472,-125.7293 820.5,-112 788.9667,-77.7686 463.433,-83.1812 383.5678,-75.567"/>
<polygon fill="#191970" stroke="#191970" points="383.9842,-72.092 373.6312,-74.3428 383.1282,-79.0394 383.9842,-72.092"/>
</g>
<!-- Node29 -->
<g id="node43" class="node">
<title>Node29</title>
<polygon fill="#ffffff" stroke="#bfbfbf" points="392,-56.5 392,-75.5 457,-75.5 457,-56.5 392,-56.5"/>
<text text-anchor="middle" x="424.5" y="-63.5" font-family="Helvetica,sans-Serif" font-size="10.00" fill="#000000">stdexcept</text>
</g>
<!-- Node54&#45;&gt;Node29 -->
<g id="edge55" class="edge">
<title>Node54&#45;&gt;Node29</title>
<path fill="none" stroke="#191970" d="M794.2855,-191.504C816.5981,-185.0813 840.0494,-173.8034 853.5,-154 863.9881,-138.5583 866.0748,-125.7956 853.5,-112 825.8715,-81.6893 540.746,-82.9147 467.3013,-75.6954"/>
<polygon fill="#191970" stroke="#191970" points="467.4443,-72.1857 457.0843,-74.4043 466.5666,-79.1305 467.4443,-72.1857"/>
</g>
<!-- Node54&#45;&gt;Node55 -->
<g id="edge54" class="edge">
<title>Node54&#45;&gt;Node55</title>
<path fill="none" stroke="#191970" d="M680.9012,-195.7203C569.5909,-187.0709 329.9077,-167.2103 294.5,-154 290.8293,-152.6305 287.1874,-150.7034 283.7732,-148.5666"/>
<polygon fill="#191970" stroke="#191970" points="285.592,-145.5664 275.4038,-142.6593 281.5554,-151.2853 285.592,-145.5664"/>
</g>
<!-- Node56 -->
<g id="node48" class="node">
<title>Node56</title>
<polygon fill="#ffffff" stroke="#bfbfbf" points="906,-123.5 906,-142.5 947,-142.5 947,-123.5 906,-123.5"/>
<text text-anchor="middle" x="926.5" y="-130.5" font-family="Helvetica,sans-Serif" font-size="10.00" fill="#000000">tuple</text>
</g>
<!-- Node54&#45;&gt;Node56 -->
<g id="edge56" class="edge">
<title>Node54&#45;&gt;Node56</title>
<path fill="none" stroke="#191970" d="M779.6865,-190.4355C811.217,-182.567 854.9907,-170.1005 891.5,-154 895.5118,-152.2308 899.629,-150.09 903.5662,-147.8607"/>
<polygon fill="#191970" stroke="#191970" points="905.5138,-150.7739 912.2922,-142.6312 901.9154,-144.7696 905.5138,-150.7739"/>
</g>
<!-- Node18&#45;&gt;Node2 -->
<g id="edge43" class="edge">
<title>Node18&#45;&gt;Node2</title>
<path fill="none" stroke="#191970" d="M1021.2919,-123.365C1029.8746,-119.161 1040.4655,-114.605 1050.5,-112 1223.9349,-66.976 1278.3753,-109.0664 1458.4263,-75.8137"/>
<polygon fill="#191970" stroke="#191970" points="1459.3228,-79.206 1468.4936,-73.9007 1458.016,-72.3291 1459.3228,-79.206"/>
</g>
<!-- Node18&#45;&gt;Node36 -->
<g id="edge51" class="edge">
<title>Node18&#45;&gt;Node36</title>
<path fill="none" stroke="#191970" d="M1020.8215,-123.4705C1029.4743,-119.1806 1040.2601,-114.5218 1050.5,-112 1294.9992,-51.7857 1368.6828,-108.57 1622.5376,-75.9121"/>
<polygon fill="#191970" stroke="#191970" points="1623.3539,-79.3348 1632.8092,-74.5548 1622.4368,-72.3951 1623.3539,-79.3348"/>
</g>
<!-- Node19 -->
<g id="node33" class="node">
<title>Node19</title>
<polygon fill="#ffffff" stroke="#bfbfbf" points="552,-56.5 552,-75.5 635,-75.5 635,-56.5 552,-56.5"/>
<text text-anchor="middle" x="593.5" y="-63.5" font-family="Helvetica,sans-Serif" font-size="10.00" fill="#000000">CGAL/Timer.h</text>
</g>
<!-- Node18&#45;&gt;Node19 -->
<g id="edge36" class="edge">
<title>Node18&#45;&gt;Node19</title>
<path fill="none" stroke="#191970" d="M985.2741,-123.4965C976.4967,-119.3213 965.6862,-114.7515 955.5,-112 824.3177,-76.5646 783.8781,-96.4184 645.3479,-75.9945"/>
<polygon fill="#191970" stroke="#191970" points="645.6139,-72.4949 635.2016,-74.4531 644.5624,-79.4155 645.6139,-72.4949"/>
</g>
<!-- Node20 -->
<g id="node34" class="node">
<title>Node20</title>
<polygon fill="#ffffff" stroke="#bfbfbf" points="653.5,-56.5 653.5,-75.5 741.5,-75.5 741.5,-56.5 653.5,-56.5"/>
<text text-anchor="middle" x="697.5" y="-63.5" font-family="Helvetica,sans-Serif" font-size="10.00" fill="#000000">sys/utsname.h</text>
</g>
<!-- Node18&#45;&gt;Node20 -->
<g id="edge37" class="edge">
<title>Node18&#45;&gt;Node20</title>
<path fill="none" stroke="#191970" d="M984.2811,-123.3356C975.6596,-119.3311 965.2529,-114.9436 955.5,-112 869.9673,-86.1847 843.3204,-92.1163 751.7139,-76.168"/>
<polygon fill="#191970" stroke="#191970" points="752.1976,-72.6991 741.7386,-74.3902 750.9694,-79.5906 752.1976,-72.6991"/>
</g>
<!-- Node21 -->
<g id="node35" class="node">
<title>Node21</title>
<polygon fill="#ffffff" stroke="#bfbfbf" points="760,-56.5 760,-75.5 877,-75.5 877,-56.5 760,-56.5"/>
<text text-anchor="middle" x="818.5" y="-63.5" font-family="Helvetica,sans-Serif" font-size="10.00" fill="#000000">boost/date_time.hpp</text>
</g>
<!-- Node18&#45;&gt;Node21 -->
<g id="edge38" class="edge">
<title>Node18&#45;&gt;Node21</title>
<path fill="none" stroke="#191970" d="M982.6386,-123.3938C974.2712,-119.667 964.4956,-115.4702 955.5,-112 923.4983,-99.6549 886.6058,-87.3765 859.1726,-78.6142"/>
<polygon fill="#191970" stroke="#191970" points="860.1104,-75.2399 849.5201,-75.5515 857.9933,-81.9121 860.1104,-75.2399"/>
</g>
<!-- Node18&#45;&gt;Node22 -->
<g id="edge39" class="edge">
<title>Node18&#45;&gt;Node22</title>
<path fill="none" stroke="#191970" d="M985.7873,-123.4742C976.945,-119.1851 965.9317,-114.5261 955.5,-112 710.7682,-52.738 636.7139,-112.7563 383.8529,-75.9307"/>
<polygon fill="#191970" stroke="#191970" points="384.0293,-72.4183 373.6219,-74.4024 382.995,-79.3415 384.0293,-72.4183"/>
</g>
<!-- Node23 -->
<g id="node37" class="node">
<title>Node23</title>
<polygon fill="#ffffff" stroke="#bfbfbf" points="895.5,-56.5 895.5,-75.5 947.5,-75.5 947.5,-56.5 895.5,-56.5"/>
<text text-anchor="middle" x="921.5" y="-63.5" font-family="Helvetica,sans-Serif" font-size="10.00" fill="#000000">cassert</text>
</g>
<!-- Node18&#45;&gt;Node23 -->
<g id="edge40" class="edge">
<title>Node18&#45;&gt;Node23</title>
<path fill="none" stroke="#191970" d="M991.7514,-123.4005C978.5989,-112.6539 957.0664,-95.0603 941.3017,-82.1794"/>
<polygon fill="#191970" stroke="#191970" points="943.1852,-79.1986 933.2268,-75.5817 938.7561,-84.6193 943.1852,-79.1986"/>
</g>
<!-- Node24 -->
<g id="node38" class="node">
<title>Node24</title>
<polygon fill="#ffffff" stroke="#bfbfbf" points="966,-56.5 966,-75.5 1015,-75.5 1015,-56.5 966,-56.5"/>
<text text-anchor="middle" x="990.5" y="-63.5" font-family="Helvetica,sans-Serif" font-size="10.00" fill="#000000">cstdlib</text>
</g>
<!-- Node18&#45;&gt;Node24 -->
<g id="edge41" class="edge">
<title>Node18&#45;&gt;Node24</title>
<path fill="none" stroke="#191970" d="M1001.6374,-123.4005C999.726,-113.5495 996.6983,-97.9451 994.2819,-85.4912"/>
<polygon fill="#191970" stroke="#191970" points="997.6999,-84.7319 992.3591,-75.5817 990.8281,-86.0653 997.6999,-84.7319"/>
</g>
<!-- Node25 -->
<g id="node39" class="node">
<title>Node25</title>
<polygon fill="#ffffff" stroke="#bfbfbf" points="1033,-56.5 1033,-75.5 1088,-75.5 1088,-56.5 1033,-56.5"/>
<text text-anchor="middle" x="1060.5" y="-63.5" font-family="Helvetica,sans-Serif" font-size="10.00" fill="#000000">fstream</text>
</g>
<!-- Node18&#45;&gt;Node25 -->
<g id="edge42" class="edge">
<title>Node18&#45;&gt;Node25</title>
<path fill="none" stroke="#191970" d="M1011.6667,-123.4005C1020.5554,-112.9525 1034.95,-96.0325 1045.8131,-83.2635"/>
<polygon fill="#191970" stroke="#191970" points="1048.5344,-85.4662 1052.3484,-75.5817 1043.2028,-80.9303 1048.5344,-85.4662"/>
</g>
<!-- Node26 -->
<g id="node40" class="node">
<title>Node26</title>
<polygon fill="#ffffff" stroke="#bfbfbf" points="1106.5,-56.5 1106.5,-75.5 1166.5,-75.5 1166.5,-56.5 1106.5,-56.5"/>
<text text-anchor="middle" x="1136.5" y="-63.5" font-family="Helvetica,sans-Serif" font-size="10.00" fill="#000000">iostream</text>
</g>
<!-- Node18&#45;&gt;Node26 -->
<g id="edge44" class="edge">
<title>Node18&#45;&gt;Node26</title>
<path fill="none" stroke="#191970" d="M1022.5557,-123.4005C1044.9748,-112.1067 1082.4054,-93.2506 1108.2132,-80.2497"/>
<polygon fill="#191970" stroke="#191970" points="1110.1235,-83.2065 1117.4797,-75.5817 1106.9742,-76.9549 1110.1235,-83.2065"/>
</g>
<!-- Node27 -->
<g id="node41" class="node">
<title>Node27</title>
<polygon fill="#ffffff" stroke="#bfbfbf" points="1184.5,-56.5 1184.5,-75.5 1232.5,-75.5 1232.5,-56.5 1184.5,-56.5"/>
<text text-anchor="middle" x="1208.5" y="-63.5" font-family="Helvetica,sans-Serif" font-size="10.00" fill="#000000">mutex</text>
</g>
<!-- Node18&#45;&gt;Node27 -->
<g id="edge45" class="edge">
<title>Node18&#45;&gt;Node27</title>
<path fill="none" stroke="#191970" d="M1023.3727,-123.3804C1031.6525,-119.5676 1041.434,-115.3125 1050.5,-112 1101.9389,-93.2056 1118.339,-92.4157 1174.5841,-76.2121"/>
<polygon fill="#191970" stroke="#191970" points="1175.7431,-79.5199 1184.361,-73.3568 1173.7808,-72.8006 1175.7431,-79.5199"/>
</g>
<!-- Node28 -->
<g id="node42" class="node">
<title>Node28</title>
<polygon fill="#ffffff" stroke="#bfbfbf" points="1250.5,-56.5 1250.5,-75.5 1304.5,-75.5 1304.5,-56.5 1250.5,-56.5"/>
<text text-anchor="middle" x="1277.5" y="-63.5" font-family="Helvetica,sans-Serif" font-size="10.00" fill="#000000">random</text>
</g>
<!-- Node18&#45;&gt;Node28 -->
<g id="edge46" class="edge">
<title>Node18&#45;&gt;Node28</title>
<path fill="none" stroke="#191970" d="M1022.3155,-123.3788C1030.7569,-119.3822 1040.9471,-114.9891 1050.5,-112 1129.9632,-87.1362 1155.5235,-94.9461 1240.6103,-76.0259"/>
<polygon fill="#191970" stroke="#191970" points="1241.4663,-79.4206 1250.4362,-73.7822 1239.908,-72.5962 1241.4663,-79.4206"/>
</g>
<!-- Node18&#45;&gt;Node29 -->
<g id="edge47" class="edge">
<title>Node18&#45;&gt;Node29</title>
<path fill="none" stroke="#191970" d="M985.3239,-123.3045C976.5573,-119.0872 965.7416,-114.5375 955.5,-112 746.7524,-60.2797 683.1249,-108.483 467.1426,-76.0164"/>
<polygon fill="#191970" stroke="#191970" points="467.4921,-72.529 457.075,-74.4617 466.4236,-79.447 467.4921,-72.529"/>
</g>
<!-- Node30 -->
<g id="node44" class="node">
<title>Node30</title>
<polygon fill="#ffffff" stroke="#bfbfbf" points="1322.5,-56.5 1322.5,-75.5 1366.5,-75.5 1366.5,-56.5 1322.5,-56.5"/>
<text text-anchor="middle" x="1344.5" y="-63.5" font-family="Helvetica,sans-Serif" font-size="10.00" fill="#000000">string</text>
</g>
<!-- Node18&#45;&gt;Node30 -->
<g id="edge48" class="edge">
<title>Node18&#45;&gt;Node30</title>
<path fill="none" stroke="#191970" d="M1021.7972,-123.3661C1030.3113,-119.2675 1040.7031,-114.7972 1050.5,-112 1160.8434,-80.4951 1196.5226,-101.0164 1312.3201,-75.9128"/>
<polygon fill="#191970" stroke="#191970" points="1313.2846,-79.2836 1322.2795,-73.6852 1311.7566,-72.4524 1313.2846,-79.2836"/>
</g>
<!-- Node31 -->
<g id="node45" class="node">
<title>Node31</title>
<polygon fill="#ffffff" stroke="#bfbfbf" points="1385,-56.5 1385,-75.5 1450,-75.5 1450,-56.5 1385,-56.5"/>
<text text-anchor="middle" x="1417.5" y="-63.5" font-family="Helvetica,sans-Serif" font-size="10.00" fill="#000000">typeindex</text>
</g>
<!-- Node18&#45;&gt;Node31 -->
<g id="edge49" class="edge">
<title>Node18&#45;&gt;Node31</title>
<path fill="none" stroke="#191970" d="M1021.3188,-123.4662C1029.9074,-119.2844 1040.4955,-114.7178 1050.5,-112 1187.595,-74.7568 1230.4,-99.6988 1374.4709,-75.9623"/>
<polygon fill="#191970" stroke="#191970" points="1375.292,-79.3731 1384.5646,-74.2477 1374.1196,-72.4719 1375.292,-79.3731"/>
</g>
<!-- Node32 -->
<g id="node46" class="node">
<title>Node32</title>
<polygon fill="#ffffff" stroke="#bfbfbf" points="475,-56.5 475,-75.5 534,-75.5 534,-56.5 475,-56.5"/>
<text text-anchor="middle" x="504.5" y="-63.5" font-family="Helvetica,sans-Serif" font-size="10.00" fill="#000000">date/tz.h</text>
</g>
<!-- Node18&#45;&gt;Node32 -->
<g id="edge50" class="edge">
<title>Node18&#45;&gt;Node32</title>
<path fill="none" stroke="#191970" d="M985.3082,-123.3669C976.5381,-119.1633 965.7241,-114.6072 955.5,-112 780.1001,-67.273 725.9283,-106.1421 544.1466,-76.0292"/>
<polygon fill="#191970" stroke="#191970" points="544.7108,-72.5749 534.265,-74.3456 543.5351,-79.4755 544.7108,-72.5749"/>
</g>
</g>
</svg>
        <g id="navigator" transform="translate(0 0)" fill="#404254">
                <rect fill="#f2f5e9" fill-opacity="0.5" stroke="#606060" stroke-width=".5" x="0" y="0" width="60" height="60"/>
                <use id="zoomplus" xlink:href="#zoomPlus" x="17" y="9" onmousedown="handleZoom(evt,'in')"/>
                <use id="zoomminus" xlink:href="#zoomMin" x="42" y="9" onmousedown="handleZoom(evt,'out')"/>
                <use id="reset" xlink:href="#resetDef" x="30" y="36" onmousedown="handleReset()"/>
                <g id="arrowUp" xlink:href="#dirArrow" transform="translate(30 24)" onmousedown="handlePan(0,-1)">
                  <use xlink:href="#rim" fill="#404040">
                        <set attributeName="fill" to="#808080" begin="arrowUp.mouseover" end="arrowUp.mouseout"/>
                  </use>
                  <path fill="none" stroke="white" stroke-width="1.5" d="M0,-3.0v7 M-2.5,-0.5L0,-3.0L2.5,-0.5"/>
                </g>
                <g id="arrowRight" xlink:href="#dirArrow" transform="rotate(90) translate(36 -43)" onmousedown="handlePan(1,0)">
                  <use xlink:href="#rim" fill="#404040">
                        <set attributeName="fill" to="#808080" begin="arrowRight.mouseover" end="arrowRight.mouseout"/>
                  </use>
                  <path fill="none" stroke="white" stroke-width="1.5" d="M0,-3.0v7 M-2.5,-0.5L0,-3.0L2.5,-0.5"/>
                </g>
                <g id="arrowDown" xlink:href="#dirArrow" transform="rotate(180) translate(-30 -48)" onmousedown="handlePan(0,1)">
                  <use xlink:href="#rim" fill="#404040">
                        <set attributeName="fill" to="#808080" begin="arrowDown.mouseover" end="arrowDown.mouseout"/>
                  </use>
                  <path fill="none" stroke="white" stroke-width="1.5" d="M0,-3.0v7 M-2.5,-0.5L0,-3.0L2.5,-0.5"/>
                </g>
                <g id="arrowLeft" xlink:href="#dirArrow" transform="rotate(270) translate(-36 17)" onmousedown="handlePan(-1,0)">
                  <use xlink:href="#rim" fill="#404040">
                        <set attributeName="fill" to="#808080" begin="arrowLeft.mouseover" end="arrowLeft.mouseout"/>
                  </use>
                  <path fill="none" stroke="white" stroke-width="1.5" d="M0,-3.0v7 M-2.5,-0.5L0,-3.0L2.5,-0.5"/>
                </g>
        </g>
        <svg viewBox="0 0 15 15" width="100%" height="30px" preserveAspectRatio="xMaxYMin meet">
         <g id="arrow_out" transform="scale(0.3 0.3)">
          <a xlink:href="cdt_8cpp__incl_org.svg" target="_base">
           <rect id="button" ry="5" rx="5" y="6" x="6" height="38" width="38"
                fill="#f2f5e9" fill-opacity="0.5" stroke="#606060" stroke-width="1.0"/>
           <path id="arrow"
             d="M 11.500037,31.436501 C 11.940474,20.09759 22.043105,11.32322 32.158766,21.979434 L 37.068811,17.246167 C 37.068811,17.246167 37.088388,32 37.088388,32 L 22.160133,31.978069 C 22.160133,31.978069 26.997745,27.140456 26.997745,27.140456 C 18.528582,18.264221 13.291696,25.230495 11.500037,31.436501 z"
             style="fill:#404040;"/>
          </a>
         </g>
        </svg>
</svg>
