<?xml version="1.0" encoding="UTF-8" standalone="no"?>
<!DOCTYPE svg PUBLIC "-//W3C//DTD SVG 1.1//EN"
 "http://www.w3.org/Graphics/SVG/1.1/DTD/svg11.dtd">
<!-- Generated by graphviz version 2.43.0 (0)
 -->
<!-- Title: src/cdt.cpp Pages: 1 -->
<!--zoomable 555 -->
<svg id="main" version="1.1" xmlns="http://www.w3.org/2000/svg" xmlns:xlink="http://www.w3.org/1999/xlink" xml:space="preserve" onload="init(evt)">
<style type="text/css"><![CDATA[
.edge:hover path { stroke: red; }
.edge:hover polygon { stroke: red; fill: red; }
]]></style>
<script type="text/javascript"><![CDATA[
var edges = document.getElementsByTagName('g');
if (edges && edges.length) {
  for (var i=0;i<edges.length;i++) {
    if (edges[i].id.substr(0,4)=='edge') {
      edges[i].setAttribute('class','edge');
    }
  }
}
]]></script>
        <defs>
                <circle id="rim" cx="0" cy="0" r="7"/>
                <circle id="rim2" cx="0" cy="0" r="3.5"/>
                <g id="zoomPlus">
                        <use xlink:href="#rim" fill="#404040">
                                <set attributeName="fill" to="#808080" begin="zoomplus.mouseover" end="zoomplus.mouseout"/>
                        </use>
                        <path d="M-4,0h8M0,-4v8" fill="none" stroke="white" stroke-width="1.5" pointer-events="none"/>
                </g>
                <g id="zoomMin">
                        <use xlink:href="#rim" fill="#404040">
                                <set attributeName="fill" to="#808080" begin="zoomminus.mouseover" end="zoomminus.mouseout"/>
                        </use>
                        <path d="M-4,0h8" fill="none" stroke="white" stroke-width="1.5" pointer-events="none"/>
                </g>
                <g id="dirArrow">
                        <path fill="none" stroke="white" stroke-width="1.5" d="M0,-3.0v7 M-2.5,-0.5L0,-3.0L2.5,-0.5"/>
                </g>
               <g id="resetDef">
                       <use xlink:href="#rim2" fill="#404040">
                               <set attributeName="fill" to="#808080" begin="reset.mouseover" end="reset.mouseout"/>
                       </use>
               </g>
        </defs>

<script type="text/javascript">
var viewWidth = 2082;
var viewHeight = 555;
var sectionId = 'dynsection-0';
</script>
<script xlink:href="svgpan.js"/>
<svg id="graph" class="graph">
<g id="viewport">
<title>src/cdt.cpp</title>
<!-- Node1 -->
<g id="node1" class="node">
<title>Node1</title>
<g id="a_node1"><a xlink:title="The main executable.">
<polygon fill="#999999" stroke="#666666" points="1044.5,-547 975.5,-547 975.5,-528 1044.5,-528 1044.5,-547"/>
<text text-anchor="middle" x="1010" y="-535" font-family="Helvetica,sans-Serif" font-size="10.00">src/cdt.cpp</text>
</a>
</g>
</g>
<!-- Node2 -->
<g id="node2" class="node">
<title>Node2</title>
<g id="a_node2"><a xlink:title=" ">
<polygon fill="#e0e0e0" stroke="#999999" points="865.5,-492 758.5,-492 758.5,-473 865.5,-473 865.5,-492"/>
<text text-anchor="middle" x="812" y="-480" font-family="Helvetica,sans-Serif" font-size="10.00">CGAL/Real_timer.h</text>
</a>
</g>
</g>
<!-- Node1&#45;&gt;Node2 -->
<g id="edge1" class="edge">
<title>Node1&#45;&gt;Node2</title>
<path fill="none" stroke="#63b8ff" d="M978.19,-527.98C944.51,-518.97 891.2,-504.7 854.08,-494.76"/>
<polygon fill="#63b8ff" stroke="#63b8ff" points="854.63,-491.29 844.06,-492.08 852.82,-498.05 854.63,-491.29"/>
</g>
<!-- Node3 -->
<g id="node3" class="node">
<title>Node3</title>
<g id="a_node3"><a xlink:title=" ">
<polygon fill="#e0e0e0" stroke="#999999" points="1034,-492 884,-492 884,-473 1034,-473 1034,-492"/>
<text text-anchor="middle" x="959" y="-480" font-family="Helvetica,sans-Serif" font-size="10.00">boost/program_options.hpp</text>
</a>
</g>
</g>
<!-- Node1&#45;&gt;Node3 -->
<g id="edge2" class="edge">
<title>Node1&#45;&gt;Node3</title>
<path fill="none" stroke="#63b8ff" d="M1001.58,-527.75C994.23,-520.11 983.37,-508.82 974.46,-499.56"/>
<polygon fill="#63b8ff" stroke="#63b8ff" points="976.72,-496.87 967.26,-492.09 971.68,-501.72 976.72,-496.87"/>
</g>
<!-- Node4 -->
<g id="node4" class="node">
<title>Node4</title>
<g id="a_node4"><a xlink:href="_metropolis_8hpp.html" target="_top" xlink:title="Perform Metropolis&#45;Hastings algorithm on Delaunay Triangulations.">
<polygon fill="white" stroke="#666666" points="1287.5,-492 1198.5,-492 1198.5,-473 1287.5,-473 1287.5,-492"/>
<text text-anchor="middle" x="1243" y="-480" font-family="Helvetica,sans-Serif" font-size="10.00">Metropolis.hpp</text>
</a>
</g>
</g>
<!-- Node1&#45;&gt;Node4 -->
<g id="edge3" class="edge">
<title>Node1&#45;&gt;Node4</title>
<path fill="none" stroke="#63b8ff" d="M1044.63,-528.62C1084.7,-519.51 1150.9,-504.45 1195.7,-494.26"/>
<polygon fill="#63b8ff" stroke="#63b8ff" points="1196.5,-497.67 1205.47,-492.04 1194.95,-490.84 1196.5,-497.67"/>
</g>
<!-- Node13 -->
<g id="node13" class="node">
<title>Node13</title>
<g id="a_node13"><a xlink:title=" ">
<polygon fill="#e0e0e0" stroke="#999999" points="1084.5,-321.5 1039.5,-321.5 1039.5,-302.5 1084.5,-302.5 1084.5,-321.5"/>
<text text-anchor="middle" x="1062" y="-309.5" font-family="Helvetica,sans-Serif" font-size="10.00">utility</text>
</a>
</g>
</g>
<!-- Node1&#45;&gt;Node13 -->
<g id="edge61" class="edge">
<title>Node1&#45;&gt;Node13</title>
<path fill="none" stroke="#63b8ff" d="M1018.68,-527.83C1026.49,-519.45 1037.55,-505.98 1043,-492 1064.54,-436.79 1064.59,-365.15 1063.17,-331.72"/>
<polygon fill="#63b8ff" stroke="#63b8ff" points="1066.66,-331.38 1062.64,-321.58 1059.67,-331.74 1066.66,-331.38"/>
</g>
<!-- Node5 -->
<g id="node5" class="node">
<title>Node5</title>
<g id="a_node5"><a xlink:title=" ">
<polygon fill="#e0e0e0" stroke="#999999" points="2073.5,-85 2008.5,-85 2008.5,-66 2073.5,-66 2073.5,-85"/>
<text text-anchor="middle" x="2041" y="-73" font-family="Helvetica,sans-Serif" font-size="10.00">stdexcept</text>
</a>
</g>
</g>
<!-- Node4&#45;&gt;Node5 -->
<g id="edge4" class="edge">
<title>Node4&#45;&gt;Node5</title>
<path fill="none" stroke="#63b8ff" d="M1287.74,-480.05C1453.48,-474.11 2023,-448.26 2023,-373.5 2023,-373.5 2023,-373.5 2023,-195.5 2023,-159.59 2031.11,-118.26 2036.45,-94.97"/>
<polygon fill="#63b8ff" stroke="#63b8ff" points="2039.89,-95.63 2038.79,-85.09 2033.08,-94.01 2039.89,-95.63"/>
</g>
<!-- Node6 -->
<g id="node6" class="node">
<title>Node6</title>
<g id="a_node6"><a xlink:href="_move__command_8hpp.html" target="_top" xlink:title="Do ergodic moves using the Command pattern.">
<polygon fill="white" stroke="#666666" points="1434.5,-437 1315.5,-437 1315.5,-418 1434.5,-418 1434.5,-437"/>
<text text-anchor="middle" x="1375" y="-425" font-family="Helvetica,sans-Serif" font-size="10.00">Move_command.hpp</text>
</a>
</g>
</g>
<!-- Node4&#45;&gt;Node6 -->
<g id="edge5" class="edge">
<title>Node4&#45;&gt;Node6</title>
<path fill="none" stroke="#63b8ff" d="M1264.21,-472.98C1285.73,-464.34 1319.28,-450.87 1343.83,-441.02"/>
<polygon fill="#63b8ff" stroke="#63b8ff" points="1345.43,-444.14 1353.41,-437.17 1342.82,-437.65 1345.43,-444.14"/>
</g>
<!-- Node50 -->
<g id="node48" class="node">
<title>Node50</title>
<g id="a_node48"><a xlink:href="_move__strategy_8hpp.html" target="_top" xlink:title="Template class for move algorithms (strategies) on manifolds.">
<polygon fill="white" stroke="#666666" points="1297.5,-437 1188.5,-437 1188.5,-418 1297.5,-418 1297.5,-437"/>
<text text-anchor="middle" x="1243" y="-425" font-family="Helvetica,sans-Serif" font-size="10.00">Move_strategy.hpp</text>
</a>
</g>
</g>
<!-- Node4&#45;&gt;Node50 -->
<g id="edge57" class="edge">
<title>Node4&#45;&gt;Node50</title>
<path fill="none" stroke="#63b8ff" d="M1243,-472.75C1243,-465.8 1243,-455.85 1243,-447.13"/>
<polygon fill="#63b8ff" stroke="#63b8ff" points="1246.5,-447.09 1243,-437.09 1239.5,-447.09 1246.5,-447.09"/>
</g>
<!-- Node51 -->
<g id="node49" class="node">
<title>Node51</title>
<g id="a_node49"><a xlink:href="_s3_action_8hpp.html" target="_top" xlink:title="Calculate S3 bulk actions on 3D Delaunay Triangulations.">
<polygon fill="white" stroke="#666666" points="1170,-437 1090,-437 1090,-418 1170,-418 1170,-437"/>
<text text-anchor="middle" x="1130" y="-425" font-family="Helvetica,sans-Serif" font-size="10.00">S3Action.hpp</text>
</a>
</g>
</g>
<!-- Node4&#45;&gt;Node51 -->
<g id="edge58" class="edge">
<title>Node4&#45;&gt;Node51</title>
<path fill="none" stroke="#63b8ff" d="M1224.84,-472.98C1206.75,-464.5 1178.72,-451.35 1157.81,-441.54"/>
<polygon fill="#63b8ff" stroke="#63b8ff" points="1159.03,-438.25 1148.49,-437.17 1156.05,-444.59 1159.03,-438.25"/>
</g>
<!-- Node7 -->
<g id="node7" class="node">
<title>Node7</title>
<g id="a_node7"><a xlink:href="_apply__move_8hpp.html" target="_top" xlink:title="Apply Pachner moves to foliated Delaunay triangulations.">
<polygon fill="white" stroke="#666666" points="1557,-382 1459,-382 1459,-363 1557,-363 1557,-382"/>
<text text-anchor="middle" x="1508" y="-370" font-family="Helvetica,sans-Serif" font-size="10.00">Apply_move.hpp</text>
</a>
</g>
</g>
<!-- Node6&#45;&gt;Node7 -->
<g id="edge6" class="edge">
<title>Node6&#45;&gt;Node7</title>
<path fill="none" stroke="#63b8ff" d="M1396.37,-417.98C1418.15,-409.3 1452.16,-395.75 1476.92,-385.88"/>
<polygon fill="#63b8ff" stroke="#63b8ff" points="1478.25,-389.12 1486.24,-382.17 1475.66,-382.62 1478.25,-389.12"/>
</g>
<!-- Node14 -->
<g id="node14" class="node">
<title>Node14</title>
<g id="a_node14"><a xlink:href="_ergodic__moves__3_8hpp.html" target="_top" xlink:title="Pachner moves on 2+1 dimensional foliated Delaunay triangulations.">
<polygon fill="white" stroke="#666666" points="1398.5,-382 1275.5,-382 1275.5,-363 1398.5,-363 1398.5,-382"/>
<text text-anchor="middle" x="1337" y="-370" font-family="Helvetica,sans-Serif" font-size="10.00">Ergodic_moves_3.hpp</text>
</a>
</g>
</g>
<!-- Node6&#45;&gt;Node14 -->
<g id="edge13" class="edge">
<title>Node6&#45;&gt;Node14</title>
<path fill="none" stroke="#63b8ff" d="M1368.73,-417.75C1363.41,-410.34 1355.64,-399.5 1349.12,-390.41"/>
<polygon fill="#63b8ff" stroke="#63b8ff" points="1351.83,-388.18 1343.16,-382.09 1346.14,-392.26 1351.83,-388.18"/>
</g>
<!-- Node8 -->
<g id="node8" class="node">
<title>Node8</title>
<g id="a_node8"><a xlink:title=" ">
<polygon fill="#e0e0e0" stroke="#999999" points="1990.5,-85 1897.5,-85 1897.5,-66 1990.5,-66 1990.5,-85"/>
<text text-anchor="middle" x="1944" y="-73" font-family="Helvetica,sans-Serif" font-size="10.00">spdlog/spdlog.h</text>
</a>
</g>
</g>
<!-- Node7&#45;&gt;Node8 -->
<g id="edge7" class="edge">
<title>Node7&#45;&gt;Node8</title>
<path fill="none" stroke="#63b8ff" d="M1557.12,-366.97C1662.14,-355.93 1899,-323.19 1899,-252.5 1899,-252.5 1899,-252.5 1899,-195.5 1899,-157.21 1919.63,-116.21 1932.96,-93.73"/>
<polygon fill="#63b8ff" stroke="#63b8ff" points="1936.05,-95.39 1938.3,-85.03 1930.08,-91.72 1936.05,-95.39"/>
</g>
<!-- Node9 -->
<g id="node9" class="node">
<title>Node9</title>
<g id="a_node9"><a xlink:title=" ">
<polygon fill="#e0e0e0" stroke="#999999" points="1685,-327 1559,-327 1559,-297 1685,-297 1685,-327"/>
<text text-anchor="start" x="1567" y="-315" font-family="Helvetica,sans-Serif" font-size="10.00">boost/compat/function</text>
<text text-anchor="middle" x="1622" y="-304" font-family="Helvetica,sans-Serif" font-size="10.00">_ref.hpp</text>
</a>
</g>
</g>
<!-- Node7&#45;&gt;Node9 -->
<g id="edge8" class="edge">
<title>Node7&#45;&gt;Node9</title>
<path fill="none" stroke="#63b8ff" d="M1524.82,-362.87C1540.72,-354.71 1565.1,-342.2 1585.47,-331.75"/>
<polygon fill="#63b8ff" stroke="#63b8ff" points="1587.2,-334.79 1594.49,-327.11 1584,-328.57 1587.2,-334.79"/>
</g>
<!-- Node10 -->
<g id="node10" class="node">
<title>Node10</title>
<g id="a_node10"><a xlink:title=" ">
<polygon fill="#e0e0e0" stroke="#999999" points="1457,-321.5 1395,-321.5 1395,-302.5 1457,-302.5 1457,-321.5"/>
<text text-anchor="middle" x="1426" y="-309.5" font-family="Helvetica,sans-Serif" font-size="10.00">expected</text>
</a>
</g>
</g>
<!-- Node7&#45;&gt;Node10 -->
<g id="edge9" class="edge">
<title>Node7&#45;&gt;Node10</title>
<path fill="none" stroke="#63b8ff" d="M1495.9,-362.87C1482.94,-353.62 1462.14,-338.78 1446.6,-327.69"/>
<polygon fill="#63b8ff" stroke="#63b8ff" points="1448.32,-324.63 1438.15,-321.67 1444.26,-330.32 1448.32,-324.63"/>
</g>
<!-- Node11 -->
<g id="node11" class="node">
<title>Node11</title>
<g id="a_node11"><a xlink:title=" ">
<polygon fill="#e0e0e0" stroke="#999999" points="1540.5,-321.5 1475.5,-321.5 1475.5,-302.5 1540.5,-302.5 1540.5,-321.5"/>
<text text-anchor="middle" x="1508" y="-309.5" font-family="Helvetica,sans-Serif" font-size="10.00">functional</text>
</a>
</g>
</g>
<!-- Node7&#45;&gt;Node11 -->
<g id="edge10" class="edge">
<title>Node7&#45;&gt;Node11</title>
<path fill="none" stroke="#63b8ff" d="M1508,-362.87C1508,-354.75 1508,-342.31 1508,-331.89"/>
<polygon fill="#63b8ff" stroke="#63b8ff" points="1511.5,-331.67 1508,-321.67 1504.5,-331.67 1511.5,-331.67"/>
</g>
<!-- Node12 -->
<g id="node12" class="node">
<title>Node12</title>
<g id="a_node12"><a xlink:title=" ">
<polygon fill="#e0e0e0" stroke="#999999" points="1879,-85 1835,-85 1835,-66 1879,-66 1879,-85"/>
<text text-anchor="middle" x="1857" y="-73" font-family="Helvetica,sans-Serif" font-size="10.00">string</text>
</a>
</g>
</g>
<!-- Node7&#45;&gt;Node12 -->
<g id="edge11" class="edge">
<title>Node7&#45;&gt;Node12</title>
<path fill="none" stroke="#63b8ff" d="M1557.15,-368.58C1627.36,-361.45 1748,-336.91 1748,-252.5 1748,-252.5 1748,-252.5 1748,-195.5 1748,-169.12 1806.97,-117.17 1838.16,-91.53"/>
<polygon fill="#63b8ff" stroke="#63b8ff" points="1840.6,-94.06 1846.15,-85.04 1836.18,-88.63 1840.6,-94.06"/>
</g>
<!-- Node7&#45;&gt;Node13 -->
<g id="edge12" class="edge">
<title>Node7&#45;&gt;Node13</title>
<path fill="none" stroke="#63b8ff" d="M1458.82,-367.06C1356.75,-357.73 1128.54,-336.18 1094,-327 1092.11,-326.5 1090.19,-325.9 1088.27,-325.24"/>
<polygon fill="#63b8ff" stroke="#63b8ff" points="1089.51,-321.96 1078.92,-321.55 1086.94,-328.48 1089.51,-321.96"/>
</g>
<!-- Node14&#45;&gt;Node10 -->
<g id="edge14" class="edge">
<title>Node14&#45;&gt;Node10</title>
<path fill="none" stroke="#63b8ff" d="M1350.13,-362.87C1364.33,-353.54 1387.2,-338.51 1404.12,-327.38"/>
<polygon fill="#63b8ff" stroke="#63b8ff" points="1406.38,-330.08 1412.81,-321.67 1402.53,-324.24 1406.38,-330.08"/>
</g>
<!-- Node15 -->
<g id="node15" class="node">
<title>Node15</title>
<g id="a_node15"><a xlink:href="_formatters_8hpp.html" target="_top" xlink:title="Formatter specializations for various types.">
<polygon fill="white" stroke="#666666" points="1193.5,-321.5 1102.5,-321.5 1102.5,-302.5 1193.5,-302.5 1193.5,-321.5"/>
<text text-anchor="middle" x="1148" y="-309.5" font-family="Helvetica,sans-Serif" font-size="10.00">Formatters.hpp</text>
</a>
</g>
</g>
<!-- Node14&#45;&gt;Node15 -->
<g id="edge15" class="edge">
<title>Node14&#45;&gt;Node15</title>
<path fill="none" stroke="#63b8ff" d="M1309.52,-362.99C1276.76,-352.86 1221.88,-335.87 1185.31,-324.55"/>
<polygon fill="#63b8ff" stroke="#63b8ff" points="1186.1,-321.13 1175.52,-321.52 1184.03,-327.82 1186.1,-321.13"/>
</g>
<!-- Node28 -->
<g id="node28" class="node">
<title>Node28</title>
<g id="a_node28"><a xlink:href="_manifold_8hpp.html" target="_top" xlink:title="Data structures for manifolds.">
<polygon fill="white" stroke="#666666" points="1377,-321.5 1297,-321.5 1297,-302.5 1377,-302.5 1377,-321.5"/>
<text text-anchor="middle" x="1337" y="-309.5" font-family="Helvetica,sans-Serif" font-size="10.00">Manifold.hpp</text>
</a>
</g>
</g>
<!-- Node14&#45;&gt;Node28 -->
<g id="edge28" class="edge">
<title>Node14&#45;&gt;Node28</title>
<path fill="none" stroke="#63b8ff" d="M1337,-362.87C1337,-354.75 1337,-342.31 1337,-331.89"/>
<polygon fill="#63b8ff" stroke="#63b8ff" points="1340.5,-331.67 1337,-321.67 1333.5,-331.67 1340.5,-331.67"/>
</g>
<!-- Node46 -->
<g id="node44" class="node">
<title>Node46</title>
<g id="a_node44"><a xlink:href="_move__tracker_8hpp.html" target="_top" xlink:title="Track ergodic moves.">
<polygon fill="white" stroke="#666666" points="977.5,-206 874.5,-206 874.5,-187 977.5,-187 977.5,-206"/>
<text text-anchor="middle" x="926" y="-194" font-family="Helvetica,sans-Serif" font-size="10.00">Move_tracker.hpp</text>
</a>
</g>
</g>
<!-- Node14&#45;&gt;Node46 -->
<g id="edge49" class="edge">
<title>Node14&#45;&gt;Node46</title>
<path fill="none" stroke="#63b8ff" d="M1327.43,-362.73C1298.31,-336.22 1210.61,-257.74 1176,-242 1115.62,-214.54 1039.85,-203.99 987.64,-199.95"/>
<polygon fill="#63b8ff" stroke="#63b8ff" points="987.75,-196.45 977.52,-199.23 987.25,-203.43 987.75,-196.45"/>
</g>
<!-- Node16 -->
<g id="node16" class="node">
<title>Node16</title>
<g id="a_node16"><a xlink:title=" ">
<polygon fill="#e0e0e0" stroke="#999999" points="1069.5,-261 1002.5,-261 1002.5,-242 1069.5,-242 1069.5,-261"/>
<text text-anchor="middle" x="1036" y="-249" font-family="Helvetica,sans-Serif" font-size="10.00">fmt/core.h</text>
</a>
</g>
</g>
<!-- Node15&#45;&gt;Node16 -->
<g id="edge16" class="edge">
<title>Node15&#45;&gt;Node16</title>
<path fill="none" stroke="#63b8ff" d="M1131.47,-302.37C1113.03,-292.73 1082.96,-277.03 1061.49,-265.81"/>
<polygon fill="#63b8ff" stroke="#63b8ff" points="1063.08,-262.69 1052.59,-261.17 1059.84,-268.9 1063.08,-262.69"/>
</g>
<!-- Node17 -->
<g id="node17" class="node">
<title>Node17</title>
<g id="a_node17"><a xlink:title=" ">
<polygon fill="#e0e0e0" stroke="#999999" points="1166.5,-261 1087.5,-261 1087.5,-242 1166.5,-242 1166.5,-261"/>
<text text-anchor="middle" x="1127" y="-249" font-family="Helvetica,sans-Serif" font-size="10.00">fmt/format.h</text>
</a>
</g>
</g>
<!-- Node15&#45;&gt;Node17 -->
<g id="edge17" class="edge">
<title>Node15&#45;&gt;Node17</title>
<path fill="none" stroke="#63b8ff" d="M1144.9,-302.37C1141.92,-294.07 1137.33,-281.28 1133.54,-270.72"/>
<polygon fill="#63b8ff" stroke="#63b8ff" points="1136.78,-269.4 1130.11,-261.17 1130.2,-271.76 1136.78,-269.4"/>
</g>
<!-- Node18 -->
<g id="node18" class="node">
<title>Node18</title>
<g id="a_node18"><a xlink:title=" ">
<polygon fill="#e0e0e0" stroke="#999999" points="984,-261 928,-261 928,-242 984,-242 984,-261"/>
<text text-anchor="middle" x="956" y="-249" font-family="Helvetica,sans-Serif" font-size="10.00">sstream</text>
</a>
</g>
</g>
<!-- Node15&#45;&gt;Node18 -->
<g id="edge18" class="edge">
<title>Node15&#45;&gt;Node18</title>
<path fill="none" stroke="#63b8ff" d="M1120.08,-302.49C1086.81,-292.36 1031.05,-275.37 993.9,-264.05"/>
<polygon fill="#63b8ff" stroke="#63b8ff" points="994.54,-260.58 983.95,-261.02 992.5,-267.28 994.54,-260.58"/>
</g>
<!-- Node19 -->
<g id="node19" class="node">
<title>Node19</title>
<g id="a_node19"><a xlink:href="_triangulation__traits_8hpp.html" target="_top" xlink:title="Traits class for particular uses of CGAL.">
<polygon fill="white" stroke="#666666" points="994.5,-151 863.5,-151 863.5,-132 994.5,-132 994.5,-151"/>
<text text-anchor="middle" x="929" y="-139" font-family="Helvetica,sans-Serif" font-size="10.00">Triangulation_traits.hpp</text>
</a>
</g>
</g>
<!-- Node15&#45;&gt;Node19 -->
<g id="edge19" class="edge">
<title>Node15&#45;&gt;Node19</title>
<path fill="none" stroke="#63b8ff" d="M1156.56,-302.37C1169.02,-288.73 1189.31,-261.71 1176,-242 1138.05,-185.8 1062.49,-161.33 1004.88,-150.69"/>
<polygon fill="#63b8ff" stroke="#63b8ff" points="1005.16,-147.19 994.71,-148.92 1003.96,-154.08 1005.16,-147.19"/>
</g>
<!-- Node20 -->
<g id="node20" class="node">
<title>Node20</title>
<g id="a_node20"><a xlink:title=" ">
<polygon fill="#e0e0e0" stroke="#999999" points="689,-85 509,-85 509,-66 689,-66 689,-85"/>
<text text-anchor="middle" x="599" y="-73" font-family="Helvetica,sans-Serif" font-size="10.00">CGAL/Delaunay_triangulation_3.h</text>
</a>
</g>
</g>
<!-- Node19&#45;&gt;Node20 -->
<g id="edge20" class="edge">
<title>Node19&#45;&gt;Node20</title>
<path fill="none" stroke="#63b8ff" d="M884.27,-131.94C837.73,-123.02 762.74,-108.61 698,-96 683.19,-93.12 667.14,-89.96 652.36,-87.05"/>
<polygon fill="#63b8ff" stroke="#63b8ff" points="652.85,-83.58 642.36,-85.08 651.5,-90.45 652.85,-83.58"/>
</g>
<!-- Node21 -->
<g id="node21" class="node">
<title>Node21</title>
<g id="a_node21"><a xlink:title=" ">
<polygon fill="#e0e0e0" stroke="#999999" points="836.5,-96 707.5,-96 707.5,-55 836.5,-55 836.5,-96"/>
<text text-anchor="start" x="715.5" y="-84" font-family="Helvetica,sans-Serif" font-size="10.00">CGAL/Exact_predicates</text>
<text text-anchor="start" x="715.5" y="-73" font-family="Helvetica,sans-Serif" font-size="10.00">_inexact_constructions</text>
<text text-anchor="middle" x="772" y="-62" font-family="Helvetica,sans-Serif" font-size="10.00">_kernel.h</text>
</a>
</g>
</g>
<!-- Node19&#45;&gt;Node21 -->
<g id="edge21" class="edge">
<title>Node19&#45;&gt;Node21</title>
<path fill="none" stroke="#63b8ff" d="M907.83,-131.87C887.76,-123.69 856.71,-111.03 829.35,-99.88"/>
<polygon fill="#63b8ff" stroke="#63b8ff" points="830.44,-96.54 819.86,-96.01 827.8,-103.02 830.44,-96.54"/>
</g>
<!-- Node22 -->
<g id="node22" class="node">
<title>Node22</title>
<g id="a_node22"><a xlink:title=" ">
<polygon fill="#e0e0e0" stroke="#999999" points="1003.5,-85 854.5,-85 854.5,-66 1003.5,-66 1003.5,-85"/>
<text text-anchor="middle" x="929" y="-73" font-family="Helvetica,sans-Serif" font-size="10.00">CGAL/point_generators_3.h</text>
</a>
</g>
</g>
<!-- Node19&#45;&gt;Node22 -->
<g id="edge22" class="edge">
<title>Node19&#45;&gt;Node22</title>
<path fill="none" stroke="#63b8ff" d="M929,-131.87C929,-122.66 929,-107.79 929,-95.77"/>
<polygon fill="#63b8ff" stroke="#63b8ff" points="932.5,-95.41 929,-85.41 925.5,-95.41 932.5,-95.41"/>
</g>
<!-- Node23 -->
<g id="node23" class="node">
<title>Node23</title>
<g id="a_node23"><a xlink:title=" ">
<polygon fill="#e0e0e0" stroke="#999999" points="321,-90.5 183,-90.5 183,-60.5 321,-60.5 321,-90.5"/>
<text text-anchor="start" x="191" y="-78.5" font-family="Helvetica,sans-Serif" font-size="10.00">CGAL/Triangulation</text>
<text text-anchor="middle" x="252" y="-67.5" font-family="Helvetica,sans-Serif" font-size="10.00">_cell_base_with_info_3.h</text>
</a>
</g>
</g>
<!-- Node19&#45;&gt;Node23 -->
<g id="edge23" class="edge">
<title>Node19&#45;&gt;Node23</title>
<path fill="none" stroke="#63b8ff" d="M863.17,-132.87C860.07,-132.57 857,-132.27 854,-132 621.52,-110.85 560.57,-132.45 330,-96 324.26,-95.09 318.32,-93.96 312.4,-92.71"/>
<polygon fill="#63b8ff" stroke="#63b8ff" points="313.02,-89.26 302.5,-90.5 311.5,-96.1 313.02,-89.26"/>
</g>
<!-- Node24 -->
<g id="node24" class="node">
<title>Node24</title>
<g id="a_node24"><a xlink:title=" ">
<polygon fill="#e0e0e0" stroke="#999999" points="491,-90.5 339,-90.5 339,-60.5 491,-60.5 491,-90.5"/>
<text text-anchor="start" x="347" y="-78.5" font-family="Helvetica,sans-Serif" font-size="10.00">CGAL/Triangulation</text>
<text text-anchor="middle" x="415" y="-67.5" font-family="Helvetica,sans-Serif" font-size="10.00">_vertex_base_with_info_3.h</text>
</a>
</g>
</g>
<!-- Node19&#45;&gt;Node24 -->
<g id="edge24" class="edge">
<title>Node19&#45;&gt;Node24</title>
<path fill="none" stroke="#63b8ff" d="M863.15,-132.99C860.06,-132.66 857,-132.32 854,-132 696.76,-115.1 656.04,-121.73 500,-96 494.16,-95.04 488.13,-93.91 482.09,-92.7"/>
<polygon fill="#63b8ff" stroke="#63b8ff" points="482.46,-89.21 471.96,-90.59 481.04,-96.06 482.46,-89.21"/>
</g>
<!-- Node25 -->
<g id="node25" class="node">
<title>Node25</title>
<g id="a_node25"><a xlink:href="_settings_8hpp.html" target="_top" xlink:title="Global integer and precision settings.">
<polygon fill="white" stroke="#666666" points="164.5,-85 87.5,-85 87.5,-66 164.5,-66 164.5,-85"/>
<text text-anchor="middle" x="126" y="-73" font-family="Helvetica,sans-Serif" font-size="10.00">Settings.hpp</text>
</a>
</g>
</g>
<!-- Node19&#45;&gt;Node25 -->
<g id="edge25" class="edge">
<title>Node19&#45;&gt;Node25</title>
<path fill="none" stroke="#63b8ff" d="M863.17,-132.81C860.07,-132.52 857,-132.25 854,-132 552.39,-106.95 469.39,-161.87 174,-96 166.92,-94.42 159.54,-91.9 152.75,-89.19"/>
<polygon fill="#63b8ff" stroke="#63b8ff" points="153.9,-85.88 143.33,-85.17 151.15,-92.32 153.9,-85.88"/>
</g>
<!-- Node26 -->
<g id="node26" class="node">
<title>Node26</title>
<g id="a_node26"><a xlink:title=" ">
<polygon fill="#e0e0e0" stroke="#999999" points="140,-19 0,-19 0,0 140,0 140,-19"/>
<text text-anchor="middle" x="70" y="-7" font-family="Helvetica,sans-Serif" font-size="10.00">CGAL/GMP/Gmpzf_type.h</text>
</a>
</g>
</g>
<!-- Node25&#45;&gt;Node26 -->
<g id="edge26" class="edge">
<title>Node25&#45;&gt;Node26</title>
<path fill="none" stroke="#63b8ff" d="M118.45,-65.87C109.81,-56 95.47,-39.61 84.63,-27.22"/>
<polygon fill="#63b8ff" stroke="#63b8ff" points="87.01,-24.63 77.79,-19.41 81.74,-29.24 87.01,-24.63"/>
</g>
<!-- Node27 -->
<g id="node27" class="node">
<title>Node27</title>
<g id="a_node27"><a xlink:title=" ">
<polygon fill="#e0e0e0" stroke="#999999" points="208,-19 158,-19 158,0 208,0 208,-19"/>
<text text-anchor="middle" x="183" y="-7" font-family="Helvetica,sans-Serif" font-size="10.00">cstdint</text>
</a>
</g>
</g>
<!-- Node25&#45;&gt;Node27 -->
<g id="edge27" class="edge">
<title>Node25&#45;&gt;Node27</title>
<path fill="none" stroke="#63b8ff" d="M133.69,-65.87C142.48,-56 157.07,-39.61 168.11,-27.22"/>
<polygon fill="#63b8ff" stroke="#63b8ff" points="171.03,-29.2 175.07,-19.41 165.8,-24.55 171.03,-29.2"/>
</g>
<!-- Node29 -->
<g id="node29" class="node">
<title>Node29</title>
<g id="a_node29"><a xlink:title=" ">
<polygon fill="#e0e0e0" stroke="#999999" points="1421.5,-151 1368.5,-151 1368.5,-132 1421.5,-132 1421.5,-151"/>
<text text-anchor="middle" x="1395" y="-139" font-family="Helvetica,sans-Serif" font-size="10.00">cstddef</text>
</a>
</g>
</g>
<!-- Node28&#45;&gt;Node29 -->
<g id="edge29" class="edge">
<title>Node28&#45;&gt;Node29</title>
<path fill="none" stroke="#63b8ff" d="M1344.43,-302.42C1352.24,-292.92 1364.32,-276.87 1371,-261 1385.07,-227.58 1391.08,-185.31 1393.5,-161.35"/>
<polygon fill="#63b8ff" stroke="#63b8ff" points="1397.01,-161.45 1394.42,-151.17 1390.03,-160.82 1397.01,-161.45"/>
</g>
<!-- Node30 -->
<g id="node30" class="node">
<title>Node30</title>
<g id="a_node30"><a xlink:title=" ">
<polygon fill="#e0e0e0" stroke="#999999" points="1509,-261 1423,-261 1423,-242 1509,-242 1509,-261"/>
<text text-anchor="middle" x="1466" y="-249" font-family="Helvetica,sans-Serif" font-size="10.00">unordered_set</text>
</a>
</g>
</g>
<!-- Node28&#45;&gt;Node30 -->
<g id="edge30" class="edge">
<title>Node28&#45;&gt;Node30</title>
<path fill="none" stroke="#63b8ff" d="M1355.76,-302.49C1377.35,-292.7 1413.03,-276.52 1437.93,-265.23"/>
<polygon fill="#63b8ff" stroke="#63b8ff" points="1439.56,-268.33 1447.22,-261.02 1436.67,-261.96 1439.56,-268.33"/>
</g>
<!-- Node31 -->
<g id="node31" class="node">
<title>Node31</title>
<g id="a_node31"><a xlink:href="_geometry_8hpp.html" target="_top" xlink:title="Geometric scalars of the Manifold used to calculate the Regge action.">
<polygon fill="white" stroke="#666666" points="1361.5,-261 1276.5,-261 1276.5,-242 1361.5,-242 1361.5,-261"/>
<text text-anchor="middle" x="1319" y="-249" font-family="Helvetica,sans-Serif" font-size="10.00">Geometry.hpp</text>
</a>
</g>
</g>
<!-- Node28&#45;&gt;Node31 -->
<g id="edge31" class="edge">
<title>Node28&#45;&gt;Node31</title>
<path fill="none" stroke="#63b8ff" d="M1334.34,-302.37C1331.82,-294.16 1327.94,-281.54 1324.71,-271.05"/>
<polygon fill="#63b8ff" stroke="#63b8ff" points="1327.95,-269.7 1321.67,-261.17 1321.26,-271.75 1327.95,-269.7"/>
</g>
<!-- Node32 -->
<g id="node32" class="node">
<title>Node32</title>
<g id="a_node32"><a xlink:href="_foliated__triangulation_8hpp.html" target="_top" xlink:title="Create foliated spherical triangulations.">
<polygon fill="white" stroke="#666666" points="1367,-206 1223,-206 1223,-187 1367,-187 1367,-206"/>
<text text-anchor="middle" x="1295" y="-194" font-family="Helvetica,sans-Serif" font-size="10.00">Foliated_triangulation.hpp</text>
</a>
</g>
</g>
<!-- Node31&#45;&gt;Node32 -->
<g id="edge32" class="edge">
<title>Node31&#45;&gt;Node32</title>
<path fill="none" stroke="#63b8ff" d="M1315.04,-241.75C1311.79,-234.57 1307.08,-224.18 1303.05,-215.27"/>
<polygon fill="#63b8ff" stroke="#63b8ff" points="1306.2,-213.75 1298.89,-206.09 1299.83,-216.64 1306.2,-213.75"/>
</g>
<!-- Node32&#45;&gt;Node19 -->
<g id="edge33" class="edge">
<title>Node32&#45;&gt;Node19</title>
<path fill="none" stroke="#63b8ff" d="M1236.2,-186.98C1171.33,-177.59 1067.04,-162.49 998.26,-152.53"/>
<polygon fill="#63b8ff" stroke="#63b8ff" points="998.36,-149.01 987.96,-151.04 997.36,-155.94 998.36,-149.01"/>
</g>
<!-- Node33 -->
<g id="node33" class="node">
<title>Node33</title>
<g id="a_node33"><a xlink:href="_utilities_8hpp.html" target="_top" xlink:title="Utility functions.">
<polygon fill="#fff0f0" stroke="red" points="1350,-151 1274,-151 1274,-132 1350,-132 1350,-151"/>
<text text-anchor="middle" x="1312" y="-139" font-family="Helvetica,sans-Serif" font-size="10.00">Utilities.hpp</text>
</a>
</g>
</g>
<!-- Node32&#45;&gt;Node33 -->
<g id="edge34" class="edge">
<title>Node32&#45;&gt;Node33</title>
<path fill="none" stroke="#63b8ff" d="M1297.81,-186.75C1300.06,-179.72 1303.3,-169.62 1306.12,-160.84"/>
<polygon fill="#63b8ff" stroke="#63b8ff" points="1309.52,-161.68 1309.25,-151.09 1302.86,-159.54 1309.52,-161.68"/>
</g>
<!-- Node33&#45;&gt;Node5 -->
<g id="edge42" class="edge">
<title>Node33&#45;&gt;Node5</title>
<path fill="none" stroke="#63b8ff" d="M1350.19,-133.31C1353.5,-132.82 1356.81,-132.37 1360,-132 1642.99,-99.1 1723.97,-166.5 2000,-96 2005.73,-94.54 2011.62,-92.26 2017.08,-89.77"/>
<polygon fill="#63b8ff" stroke="#63b8ff" points="2018.93,-92.76 2026.34,-85.18 2015.83,-86.48 2018.93,-92.76"/>
</g>
<!-- Node33&#45;&gt;Node8 -->
<g id="edge47" class="edge">
<title>Node33&#45;&gt;Node8</title>
<path fill="none" stroke="#63b8ff" d="M1350.2,-133.36C1353.51,-132.85 1356.81,-132.39 1360,-132 1593.47,-103.45 1657.55,-143.09 1888,-96 1896.6,-94.24 1905.69,-91.49 1913.99,-88.6"/>
<polygon fill="#63b8ff" stroke="#63b8ff" points="1915.44,-91.8 1923.63,-85.07 1913.03,-85.22 1915.44,-91.8"/>
</g>
<!-- Node33&#45;&gt;Node12 -->
<g id="edge43" class="edge">
<title>Node33&#45;&gt;Node12</title>
<path fill="none" stroke="#63b8ff" d="M1350.2,-133.39C1353.51,-132.88 1356.81,-132.4 1360,-132 1566.08,-105.86 1628.77,-161.21 1826,-96 1829.96,-94.69 1833.93,-92.77 1837.64,-90.64"/>
<polygon fill="#63b8ff" stroke="#63b8ff" points="1839.67,-93.49 1846.18,-85.14 1835.88,-87.61 1839.67,-93.49"/>
</g>
<!-- Node33&#45;&gt;Node25 -->
<g id="edge48" class="edge">
<title>Node33&#45;&gt;Node25</title>
<path fill="none" stroke="#63b8ff" d="M1273.93,-139.38C1082.14,-133.7 228.87,-107.84 174,-96 166.79,-94.45 159.28,-91.89 152.4,-89.13"/>
<polygon fill="#63b8ff" stroke="#63b8ff" points="153.44,-85.77 142.87,-85.03 150.67,-92.2 153.44,-85.77"/>
</g>
<!-- Node34 -->
<g id="node34" class="node">
<title>Node34</title>
<g id="a_node34"><a xlink:title=" ">
<polygon fill="#e0e0e0" stroke="#999999" points="1731,-85 1667,-85 1667,-66 1731,-66 1731,-85"/>
<text text-anchor="middle" x="1699" y="-73" font-family="Helvetica,sans-Serif" font-size="10.00">algorithm</text>
</a>
</g>
</g>
<!-- Node33&#45;&gt;Node34 -->
<g id="edge35" class="edge">
<title>Node33&#45;&gt;Node34</title>
<path fill="none" stroke="#63b8ff" d="M1350.22,-133.54C1353.52,-132.99 1356.82,-132.47 1360,-132 1491.95,-112.36 1529.87,-133.14 1658,-96 1663.58,-94.38 1669.35,-92.08 1674.74,-89.62"/>
<polygon fill="#63b8ff" stroke="#63b8ff" points="1676.45,-92.68 1683.89,-85.13 1673.37,-86.39 1676.45,-92.68"/>
</g>
<!-- Node35 -->
<g id="node35" class="node">
<title>Node35</title>
<g id="a_node35"><a xlink:title=" ">
<polygon fill="#e0e0e0" stroke="#999999" points="1817,-85 1749,-85 1749,-66 1817,-66 1817,-85"/>
<text text-anchor="middle" x="1783" y="-73" font-family="Helvetica,sans-Serif" font-size="10.00">filesystem</text>
</a>
</g>
</g>
<!-- Node33&#45;&gt;Node35 -->
<g id="edge36" class="edge">
<title>Node33&#45;&gt;Node35</title>
<path fill="none" stroke="#63b8ff" d="M1350.21,-133.45C1353.51,-132.92 1356.81,-132.43 1360,-132 1528.1,-109.19 1576.06,-139.63 1740,-96 1746.09,-94.38 1752.4,-91.97 1758.25,-89.4"/>
<polygon fill="#63b8ff" stroke="#63b8ff" points="1759.98,-92.45 1767.54,-85.02 1757,-86.12 1759.98,-92.45"/>
</g>
<!-- Node36 -->
<g id="node36" class="node">
<title>Node36</title>
<g id="a_node36"><a xlink:title=" ">
<polygon fill="#e0e0e0" stroke="#999999" points="1134.5,-85 1079.5,-85 1079.5,-66 1134.5,-66 1134.5,-85"/>
<text text-anchor="middle" x="1107" y="-73" font-family="Helvetica,sans-Serif" font-size="10.00">fstream</text>
</a>
</g>
</g>
<!-- Node33&#45;&gt;Node36 -->
<g id="edge37" class="edge">
<title>Node33&#45;&gt;Node36</title>
<path fill="none" stroke="#63b8ff" d="M1273.86,-132.98C1239.29,-125.56 1187.29,-112.89 1144,-96 1139.54,-94.26 1134.93,-92.12 1130.53,-89.91"/>
<polygon fill="#63b8ff" stroke="#63b8ff" points="1131.88,-86.66 1121.41,-85.07 1128.6,-92.85 1131.88,-86.66"/>
</g>
<!-- Node37 -->
<g id="node37" class="node">
<title>Node37</title>
<g id="a_node37"><a xlink:title=" ">
<polygon fill="#e0e0e0" stroke="#999999" points="1201,-85 1153,-85 1153,-66 1201,-66 1201,-85"/>
<text text-anchor="middle" x="1177" y="-73" font-family="Helvetica,sans-Serif" font-size="10.00">gsl/gsl</text>
</a>
</g>
</g>
<!-- Node33&#45;&gt;Node37 -->
<g id="edge38" class="edge">
<title>Node33&#45;&gt;Node37</title>
<path fill="none" stroke="#63b8ff" d="M1290.15,-131.88C1269.25,-123.42 1237.01,-109.81 1210,-96 1206.54,-94.23 1202.94,-92.25 1199.44,-90.25"/>
<polygon fill="#63b8ff" stroke="#63b8ff" points="1200.99,-87.1 1190.6,-85.04 1197.44,-93.13 1200.99,-87.1"/>
</g>
<!-- Node38 -->
<g id="node38" class="node">
<title>Node38</title>
<g id="a_node38"><a xlink:title=" ">
<polygon fill="#e0e0e0" stroke="#999999" points="1267,-85 1219,-85 1219,-66 1267,-66 1267,-85"/>
<text text-anchor="middle" x="1243" y="-73" font-family="Helvetica,sans-Serif" font-size="10.00">mutex</text>
</a>
</g>
</g>
<!-- Node33&#45;&gt;Node38 -->
<g id="edge39" class="edge">
<title>Node33&#45;&gt;Node38</title>
<path fill="none" stroke="#63b8ff" d="M1302.69,-131.87C1291.85,-121.81 1273.7,-104.98 1260.26,-92.51"/>
<polygon fill="#63b8ff" stroke="#63b8ff" points="1262.31,-89.64 1252.6,-85.41 1257.55,-94.77 1262.31,-89.64"/>
</g>
<!-- Node39 -->
<g id="node39" class="node">
<title>Node39</title>
<g id="a_node39"><a xlink:title=" ">
<polygon fill="#e0e0e0" stroke="#999999" points="1339,-85 1285,-85 1285,-66 1339,-66 1339,-85"/>
<text text-anchor="middle" x="1312" y="-73" font-family="Helvetica,sans-Serif" font-size="10.00">random</text>
</a>
</g>
</g>
<!-- Node33&#45;&gt;Node39 -->
<g id="edge40" class="edge">
<title>Node33&#45;&gt;Node39</title>
<path fill="none" stroke="#63b8ff" d="M1312,-131.87C1312,-122.66 1312,-107.79 1312,-95.77"/>
<polygon fill="#63b8ff" stroke="#63b8ff" points="1315.5,-95.41 1312,-85.41 1308.5,-95.41 1315.5,-95.41"/>
</g>
<!-- Node40 -->
<g id="node40" class="node">
<title>Node40</title>
<g id="a_node40"><a xlink:title=" ">
<polygon fill="#e0e0e0" stroke="#999999" points="1061,-85 1021,-85 1021,-66 1061,-66 1061,-85"/>
<text text-anchor="middle" x="1041" y="-73" font-family="Helvetica,sans-Serif" font-size="10.00">span</text>
</a>
</g>
</g>
<!-- Node33&#45;&gt;Node40 -->
<g id="edge41" class="edge">
<title>Node33&#45;&gt;Node40</title>
<path fill="none" stroke="#63b8ff" d="M1273.99,-138.1C1225.39,-134 1139.37,-123.27 1071,-96 1067.38,-94.56 1063.74,-92.65 1060.3,-90.6"/>
<polygon fill="#63b8ff" stroke="#63b8ff" points="1062.1,-87.59 1051.82,-85.02 1058.25,-93.44 1062.1,-87.59"/>
</g>
<!-- Node41 -->
<g id="node41" class="node">
<title>Node41</title>
<g id="a_node41"><a xlink:title=" ">
<polygon fill="#e0e0e0" stroke="#999999" points="1429,-85 1357,-85 1357,-66 1429,-66 1429,-85"/>
<text text-anchor="middle" x="1393" y="-73" font-family="Helvetica,sans-Serif" font-size="10.00">date/date.h</text>
</a>
</g>
</g>
<!-- Node33&#45;&gt;Node41 -->
<g id="edge44" class="edge">
<title>Node33&#45;&gt;Node41</title>
<path fill="none" stroke="#63b8ff" d="M1322.92,-131.87C1335.97,-121.56 1358.01,-104.15 1373.9,-91.59"/>
<polygon fill="#63b8ff" stroke="#63b8ff" points="1376.31,-94.14 1381.99,-85.2 1371.97,-88.65 1376.31,-94.14"/>
</g>
<!-- Node42 -->
<g id="node42" class="node">
<title>Node42</title>
<g id="a_node42"><a xlink:title=" ">
<polygon fill="#e0e0e0" stroke="#999999" points="1545,-85 1447,-85 1447,-66 1545,-66 1545,-85"/>
<text text-anchor="middle" x="1496" y="-73" font-family="Helvetica,sans-Serif" font-size="10.00">pcg_random.hpp</text>
</a>
</g>
</g>
<!-- Node33&#45;&gt;Node42 -->
<g id="edge45" class="edge">
<title>Node33&#45;&gt;Node42</title>
<path fill="none" stroke="#63b8ff" d="M1336.82,-131.87C1369,-120.67 1425.32,-101.08 1461.62,-88.46"/>
<polygon fill="#63b8ff" stroke="#63b8ff" points="1462.99,-91.69 1471.28,-85.1 1460.69,-85.08 1462.99,-91.69"/>
</g>
<!-- Node43 -->
<g id="node43" class="node">
<title>Node43</title>
<g id="a_node43"><a xlink:title=" ">
<polygon fill="#e0e0e0" stroke="#999999" points="1649,-85 1563,-85 1563,-66 1649,-66 1649,-85"/>
<text text-anchor="middle" x="1606" y="-73" font-family="Helvetica,sans-Serif" font-size="10.00">fmt/ostream.h</text>
</a>
</g>
</g>
<!-- Node33&#45;&gt;Node43 -->
<g id="edge46" class="edge">
<title>Node33&#45;&gt;Node43</title>
<path fill="none" stroke="#63b8ff" d="M1350.01,-133.69C1415.65,-121.91 1544.22,-98.71 1554,-96 1561.28,-93.98 1568.98,-91.37 1576.16,-88.72"/>
<polygon fill="#63b8ff" stroke="#63b8ff" points="1577.44,-91.98 1585.53,-85.13 1574.94,-85.44 1577.44,-91.98"/>
</g>
<!-- Node46&#45;&gt;Node25 -->
<g id="edge55" class="edge">
<title>Node46&#45;&gt;Node25</title>
<path fill="none" stroke="#63b8ff" d="M874.48,-187.61C833.51,-180.49 775.11,-168.44 726,-151 708.21,-144.68 706.21,-136.98 688,-132 467.1,-71.63 397.08,-147.74 174,-96 166.94,-94.36 159.56,-91.82 152.77,-89.11"/>
<polygon fill="#63b8ff" stroke="#63b8ff" points="153.92,-85.79 143.34,-85.1 151.18,-92.23 153.92,-85.79"/>
</g>
<!-- Node46&#45;&gt;Node29 -->
<g id="edge51" class="edge">
<title>Node46&#45;&gt;Node29</title>
<path fill="none" stroke="#63b8ff" d="M977.61,-192.37C1057.25,-187.05 1214.97,-174.64 1358.47,-150.86"/>
<polygon fill="#63b8ff" stroke="#63b8ff" points="1359.06,-154.31 1368.34,-149.2 1357.9,-147.41 1359.06,-154.31"/>
</g>
<!-- Node46&#45;&gt;Node33 -->
<g id="edge56" class="edge">
<title>Node46&#45;&gt;Node33</title>
<path fill="none" stroke="#63b8ff" d="M977.66,-188.41C1052.55,-178.12 1190.31,-159.21 1263.43,-149.17"/>
<polygon fill="#63b8ff" stroke="#63b8ff" points="1264.3,-152.58 1273.73,-147.75 1263.35,-145.65 1264.3,-152.58"/>
</g>
<!-- Node46&#45;&gt;Node40 -->
<g id="edge54" class="edge">
<title>Node46&#45;&gt;Node40</title>
<path fill="none" stroke="#63b8ff" d="M947.84,-186.97C964.62,-179.53 987.48,-167.35 1003,-151 1018.41,-134.76 1029.05,-111.05 1035.07,-94.76"/>
<polygon fill="#63b8ff" stroke="#63b8ff" points="1038.38,-95.88 1038.36,-85.29 1031.77,-93.58 1038.38,-95.88"/>
</g>
<!-- Node47 -->
<g id="node45" class="node">
<title>Node47</title>
<g id="a_node45"><a xlink:title=" ">
<polygon fill="#e0e0e0" stroke="#999999" points="777,-151 735,-151 735,-132 777,-132 777,-151"/>
<text text-anchor="middle" x="756" y="-139" font-family="Helvetica,sans-Serif" font-size="10.00">array</text>
</a>
</g>
</g>
<!-- Node46&#45;&gt;Node47 -->
<g id="edge50" class="edge">
<title>Node46&#45;&gt;Node47</title>
<path fill="none" stroke="#63b8ff" d="M898.69,-186.98C868.11,-177.45 818.69,-162.04 786.77,-152.09"/>
<polygon fill="#63b8ff" stroke="#63b8ff" points="787.66,-148.7 777.07,-149.07 785.58,-155.39 787.66,-148.7"/>
</g>
<!-- Node48 -->
<g id="node46" class="node">
<title>Node48</title>
<g id="a_node46"><a xlink:title=" ">
<polygon fill="#e0e0e0" stroke="#999999" points="845,-151 795,-151 795,-132 845,-132 845,-151"/>
<text text-anchor="middle" x="820" y="-139" font-family="Helvetica,sans-Serif" font-size="10.00">gsl/util</text>
</a>
</g>
</g>
<!-- Node46&#45;&gt;Node48 -->
<g id="edge52" class="edge">
<title>Node46&#45;&gt;Node48</title>
<path fill="none" stroke="#63b8ff" d="M908.97,-186.98C892.07,-178.54 865.94,-165.47 846.36,-155.68"/>
<polygon fill="#63b8ff" stroke="#63b8ff" points="847.85,-152.51 837.34,-151.17 844.72,-158.77 847.85,-152.51"/>
</g>
<!-- Node49 -->
<g id="node47" class="node">
<title>Node49</title>
<g id="a_node47"><a xlink:title=" ">
<polygon fill="#e0e0e0" stroke="#999999" points="679,-151 623,-151 623,-132 679,-132 679,-151"/>
<text text-anchor="middle" x="651" y="-139" font-family="Helvetica,sans-Serif" font-size="10.00">numeric</text>
</a>
</g>
</g>
<!-- Node46&#45;&gt;Node49 -->
<g id="edge53" class="edge">
<title>Node46&#45;&gt;Node49</title>
<path fill="none" stroke="#63b8ff" d="M880.43,-186.95C833.44,-178.1 758.06,-163.8 693,-151 691.73,-150.75 690.43,-150.49 689.13,-150.23"/>
<polygon fill="#63b8ff" stroke="#63b8ff" points="689.5,-146.74 679.01,-148.21 688.13,-153.6 689.5,-146.74"/>
</g>
<!-- Node51&#45;&gt;Node25 -->
<g id="edge60" class="edge">
<title>Node51&#45;&gt;Node25</title>
<path fill="none" stroke="#63b8ff" d="M1089.74,-424.85C931.51,-417.84 361,-387.39 361,-313 361,-313 361,-313 361,-195.5 361,-184.05 217.16,-117.68 154.55,-89.33"/>
<polygon fill="#63b8ff" stroke="#63b8ff" points="155.79,-86.05 145.23,-85.12 152.9,-92.43 155.79,-86.05"/>
</g>
<!-- Node52 -->
<g id="node50" class="node">
<title>Node52</title>
<g id="a_node50"><a xlink:title=" ">
<polygon fill="#e0e0e0" stroke="#999999" points="1154,-382 1106,-382 1106,-363 1154,-363 1154,-382"/>
<text text-anchor="middle" x="1130" y="-370" font-family="Helvetica,sans-Serif" font-size="10.00">mpfr.h</text>
</a>
</g>
</g>
<!-- Node51&#45;&gt;Node52 -->
<g id="edge59" class="edge">
<title>Node51&#45;&gt;Node52</title>
<path fill="none" stroke="#63b8ff" d="M1130,-417.75C1130,-410.8 1130,-400.85 1130,-392.13"/>
<polygon fill="#63b8ff" stroke="#63b8ff" points="1133.5,-392.09 1130,-382.09 1126.5,-392.09 1133.5,-392.09"/>
</g>
</g>
</svg>
        <g id="navigator" transform="translate(0 0)" fill="#404254">
                <rect fill="#f2f5e9" fill-opacity="0.5" stroke="#606060" stroke-width=".5" x="0" y="0" width="60" height="60"/>
                <use id="zoomplus" xlink:href="#zoomPlus" x="17" y="9" onmousedown="handleZoom(evt,'in')"/>
                <use id="zoomminus" xlink:href="#zoomMin" x="42" y="9" onmousedown="handleZoom(evt,'out')"/>
                <use id="reset" xlink:href="#resetDef" x="30" y="36" onmousedown="handleReset()"/>
                <g id="arrowUp" xlink:href="#dirArrow" transform="translate(30 24)" onmousedown="handlePan(0,-1)">
                  <use xlink:href="#rim" fill="#404040">
                        <set attributeName="fill" to="#808080" begin="arrowUp.mouseover" end="arrowUp.mouseout"/>
                  </use>
                  <path fill="none" stroke="white" stroke-width="1.5" d="M0,-3.0v7 M-2.5,-0.5L0,-3.0L2.5,-0.5"/>
                </g>
                <g id="arrowRight" xlink:href="#dirArrow" transform="rotate(90) translate(36 -43)" onmousedown="handlePan(1,0)">
                  <use xlink:href="#rim" fill="#404040">
                        <set attributeName="fill" to="#808080" begin="arrowRight.mouseover" end="arrowRight.mouseout"/>
                  </use>
                  <path fill="none" stroke="white" stroke-width="1.5" d="M0,-3.0v7 M-2.5,-0.5L0,-3.0L2.5,-0.5"/>
                </g>
                <g id="arrowDown" xlink:href="#dirArrow" transform="rotate(180) translate(-30 -48)" onmousedown="handlePan(0,1)">
                  <use xlink:href="#rim" fill="#404040">
                        <set attributeName="fill" to="#808080" begin="arrowDown.mouseover" end="arrowDown.mouseout"/>
                  </use>
                  <path fill="none" stroke="white" stroke-width="1.5" d="M0,-3.0v7 M-2.5,-0.5L0,-3.0L2.5,-0.5"/>
                </g>
                <g id="arrowLeft" xlink:href="#dirArrow" transform="rotate(270) translate(-36 17)" onmousedown="handlePan(-1,0)">
                  <use xlink:href="#rim" fill="#404040">
                        <set attributeName="fill" to="#808080" begin="arrowLeft.mouseover" end="arrowLeft.mouseout"/>
                  </use>
                  <path fill="none" stroke="white" stroke-width="1.5" d="M0,-3.0v7 M-2.5,-0.5L0,-3.0L2.5,-0.5"/>
                </g>
        </g>
        <svg viewBox="0 0 15 15" width="100%" height="30px" preserveAspectRatio="xMaxYMin meet">
         <g id="arrow_out" transform="scale(0.3 0.3)">
          <a xlink:href="cdt_8cpp__incl_org.svg" target="_base">
           <rect id="button" ry="5" rx="5" y="6" x="6" height="38" width="38"
                fill="#f2f5e9" fill-opacity="0.5" stroke="#606060" stroke-width="1.0"/>
           <path id="arrow"
             d="M 11.500037,31.436501 C 11.940474,20.09759 22.043105,11.32322 32.158766,21.979434 L 37.068811,17.246167 C 37.068811,17.246167 37.088388,32 37.088388,32 L 22.160133,31.978069 C 22.160133,31.978069 26.997745,27.140456 26.997745,27.140456 C 18.528582,18.264221 13.291696,25.230495 11.500037,31.436501 z"
             style="fill:#404040;"/>
          </a>
         </g>
        </svg>
</svg>
