<?xml version="1.0" encoding="UTF-8" standalone="no"?>
<!DOCTYPE svg PUBLIC "-//W3C//DTD SVG 1.1//EN"
 "http://www.w3.org/Graphics/SVG/1.1/DTD/svg11.dtd">
<!-- Generated by graphviz version 2.43.0 (0)
 -->
<!-- Title: manifolds::Manifold&lt; 3 &gt; Pages: 1 -->
<svg width="774pt" height="915pt"
 viewBox="0.00 0.00 773.50 915.00" xmlns="http://www.w3.org/2000/svg" xmlns:xlink="http://www.w3.org/1999/xlink">
<g id="graph0" class="graph" transform="scale(1 1) rotate(0) translate(4 911)">
<title>manifolds::Manifold&lt; 3 &gt;</title>
<polygon fill="white" stroke="transparent" points="-4,4 -4,-911 769.5,-911 769.5,4 -4,4"/>
<!-- Node1 -->
<g id="node1" class="node">
<title>Node1</title>
<g id="a_node1"><a xlink:title="3D Manifold">
<polygon fill="#bfbfbf" stroke="black" points="199,-0.5 199,-200.5 342,-200.5 342,-0.5 199,-0.5"/>
<text text-anchor="middle" x="270.5" y="-188.5" font-family="Helvetica,sans-Serif" font-size="10.00">manifolds::Manifold&lt; 3 &gt;</text>
<polyline fill="none" stroke="black" points="199,-181.5 342,-181.5 "/>
<text text-anchor="start" x="207" y="-169.5" font-family="Helvetica,sans-Serif" font-size="10.00">+ dimension</text>
<text text-anchor="start" x="207" y="-158.5" font-family="Helvetica,sans-Serif" font-size="10.00">+ topology</text>
<polyline fill="none" stroke="black" points="199,-151.5 342,-151.5 "/>
<text text-anchor="start" x="207" y="-139.5" font-family="Helvetica,sans-Serif" font-size="10.00">+ Manifold()</text>
<text text-anchor="start" x="207" y="-128.5" font-family="Helvetica,sans-Serif" font-size="10.00">+ Manifold()</text>
<text text-anchor="start" x="207" y="-117.5" font-family="Helvetica,sans-Serif" font-size="10.00">+ Manifold()</text>
<text text-anchor="start" x="207" y="-106.5" font-family="Helvetica,sans-Serif" font-size="10.00">+ Manifold()</text>
<text text-anchor="start" x="207" y="-95.5" font-family="Helvetica,sans-Serif" font-size="10.00">+ Manifold()</text>
<text text-anchor="start" x="207" y="-84.5" font-family="Helvetica,sans-Serif" font-size="10.00">+ Manifold()</text>
<text text-anchor="start" x="207" y="-73.5" font-family="Helvetica,sans-Serif" font-size="10.00">+ ~Manifold()</text>
<text text-anchor="start" x="207" y="-62.5" font-family="Helvetica,sans-Serif" font-size="10.00">+ check_simplices()</text>
<text text-anchor="start" x="207" y="-51.5" font-family="Helvetica,sans-Serif" font-size="10.00">+ degree()</text>
<text text-anchor="start" x="207" y="-40.5" font-family="Helvetica,sans-Serif" font-size="10.00">+ dimensionality()</text>
<text text-anchor="start" x="207" y="-29.5" font-family="Helvetica,sans-Serif" font-size="10.00">and 44 more...</text>
<text text-anchor="start" x="207" y="-18.5" font-family="Helvetica,sans-Serif" font-size="10.00">&#45; update_geometry()</text>
<text text-anchor="start" x="207" y="-7.5" font-family="Helvetica,sans-Serif" font-size="10.00">&#45; update_triangulation()</text>
</a>
</g>
</g>
<!-- Node2 -->
<g id="node2" class="node">
<title>Node2</title>
<g id="a_node2"><a xlink:href="struct_geometry_3_013_01_4.html" target="_top" xlink:title="3D Geometry">
<polygon fill="white" stroke="black" points="177.5,-298 177.5,-465 271.5,-465 271.5,-298 177.5,-298"/>
<text text-anchor="middle" x="224.5" y="-453" font-family="Helvetica,sans-Serif" font-size="10.00">Geometry&lt; 3 &gt;</text>
<polyline fill="none" stroke="black" points="177.5,-446 271.5,-446 "/>
<text text-anchor="start" x="185.5" y="-434" font-family="Helvetica,sans-Serif" font-size="10.00">+ N0</text>
<text text-anchor="start" x="185.5" y="-423" font-family="Helvetica,sans-Serif" font-size="10.00">+ N1</text>
<text text-anchor="start" x="185.5" y="-412" font-family="Helvetica,sans-Serif" font-size="10.00">+ N1_SL</text>
<text text-anchor="start" x="185.5" y="-401" font-family="Helvetica,sans-Serif" font-size="10.00">+ N1_TL</text>
<text text-anchor="start" x="185.5" y="-390" font-family="Helvetica,sans-Serif" font-size="10.00">+ N2</text>
<text text-anchor="start" x="185.5" y="-379" font-family="Helvetica,sans-Serif" font-size="10.00">+ N3</text>
<text text-anchor="start" x="185.5" y="-368" font-family="Helvetica,sans-Serif" font-size="10.00">+ N3_13</text>
<text text-anchor="start" x="185.5" y="-357" font-family="Helvetica,sans-Serif" font-size="10.00">+ N3_22</text>
<text text-anchor="start" x="185.5" y="-346" font-family="Helvetica,sans-Serif" font-size="10.00">+ N3_31</text>
<text text-anchor="start" x="185.5" y="-335" font-family="Helvetica,sans-Serif" font-size="10.00">+ N3_31_13</text>
<polyline fill="none" stroke="black" points="177.5,-328 271.5,-328 "/>
<text text-anchor="start" x="185.5" y="-316" font-family="Helvetica,sans-Serif" font-size="10.00">+ Geometry()</text>
<text text-anchor="start" x="185.5" y="-305" font-family="Helvetica,sans-Serif" font-size="10.00">+ Geometry()</text>
</a>
</g>
</g>
<!-- Node2&#45;&gt;Node1 -->
<g id="edge1" class="edge">
<title>Node2&#45;&gt;Node1</title>
<path fill="none" stroke="#404040" d="M236.91,-297.87C240.82,-272.54 245.23,-244.61 249.5,-219 249.86,-216.83 250.23,-214.64 250.6,-212.44"/>
<polygon fill="none" stroke="#404040" points="250.62,-212.35 247.68,-205.76 252.63,-200.52 255.57,-207.1 250.62,-212.35"/>
<text text-anchor="middle" x="284.5" y="-222" font-family="Helvetica,sans-Serif" font-size="10.00"> &#45;m_geometry</text>
</g>
<!-- Node3 -->
<g id="node3" class="node">
<title>Node3</title>
<g id="a_node3"><a xlink:href="classfoliated__triangulations_1_1_foliated_triangulation_3_013_01_4.html" target="_top" xlink:title="3D Foliated triangulation">
<polygon fill="white" stroke="black" points="290,-248.5 290,-514.5 443,-514.5 443,-248.5 290,-248.5"/>
<text text-anchor="start" x="298" y="-502.5" font-family="Helvetica,sans-Serif" font-size="10.00">foliated_triangulations</text>
<text text-anchor="middle" x="366.5" y="-491.5" font-family="Helvetica,sans-Serif" font-size="10.00">::FoliatedTriangulation&lt; 3 &gt;</text>
<polyline fill="none" stroke="black" points="290,-484.5 443,-484.5 "/>
<text text-anchor="start" x="298" y="-472.5" font-family="Helvetica,sans-Serif" font-size="10.00">&#45; m_foliation_spacing</text>
<text text-anchor="start" x="298" y="-461.5" font-family="Helvetica,sans-Serif" font-size="10.00">&#45; m_initial_radius</text>
<text text-anchor="start" x="298" y="-450.5" font-family="Helvetica,sans-Serif" font-size="10.00">&#45; m_max_timevalue</text>
<text text-anchor="start" x="298" y="-439.5" font-family="Helvetica,sans-Serif" font-size="10.00">&#45; m_min_timevalue</text>
<text text-anchor="start" x="298" y="-428.5" font-family="Helvetica,sans-Serif" font-size="10.00">&#45; m_triangulation</text>
<polyline fill="none" stroke="black" points="290,-421.5 443,-421.5 "/>
<text text-anchor="start" x="298" y="-409.5" font-family="Helvetica,sans-Serif" font-size="10.00">+ FoliatedTriangulation()</text>
<text text-anchor="start" x="298" y="-398.5" font-family="Helvetica,sans-Serif" font-size="10.00">+ FoliatedTriangulation()</text>
<text text-anchor="start" x="298" y="-387.5" font-family="Helvetica,sans-Serif" font-size="10.00">+ FoliatedTriangulation()</text>
<text text-anchor="start" x="298" y="-376.5" font-family="Helvetica,sans-Serif" font-size="10.00">+ FoliatedTriangulation()</text>
<text text-anchor="start" x="298" y="-365.5" font-family="Helvetica,sans-Serif" font-size="10.00">+ FoliatedTriangulation()</text>
<text text-anchor="start" x="298" y="-354.5" font-family="Helvetica,sans-Serif" font-size="10.00">+ FoliatedTriangulation()</text>
<text text-anchor="start" x="298" y="-343.5" font-family="Helvetica,sans-Serif" font-size="10.00">+ ~FoliatedTriangulation()</text>
<text text-anchor="start" x="298" y="-332.5" font-family="Helvetica,sans-Serif" font-size="10.00">+ check_all_cells()</text>
<text text-anchor="start" x="298" y="-321.5" font-family="Helvetica,sans-Serif" font-size="10.00">+ check_all_vertices()</text>
<text text-anchor="start" x="298" y="-310.5" font-family="Helvetica,sans-Serif" font-size="10.00">+ degree()</text>
<text text-anchor="start" x="298" y="-299.5" font-family="Helvetica,sans-Serif" font-size="10.00">and 45 more...</text>
<text text-anchor="start" x="298" y="-288.5" font-family="Helvetica,sans-Serif" font-size="10.00">&#45; classify_cells()</text>
<text text-anchor="start" x="298" y="-277.5" font-family="Helvetica,sans-Serif" font-size="10.00">&#45; classify_vertices()</text>
<text text-anchor="start" x="298" y="-266.5" font-family="Helvetica,sans-Serif" font-size="10.00">&#45; collect_edges()</text>
<text text-anchor="start" x="298" y="-255.5" font-family="Helvetica,sans-Serif" font-size="10.00">&#45; collect_faces()</text>
</a>
</g>
</g>
<!-- Node3&#45;&gt;Node1 -->
<g id="edge2" class="edge">
<title>Node3&#45;&gt;Node1</title>
<path fill="none" stroke="#404040" d="M329.36,-248.35C326.15,-238.37 322.85,-228.5 319.5,-219 318.67,-216.64 317.81,-214.26 316.94,-211.86"/>
<polygon fill="none" stroke="#404040" points="316.92,-211.8 311.07,-207.58 312.73,-200.56 318.57,-204.79 316.92,-211.8"/>
<text text-anchor="middle" x="365" y="-222" font-family="Helvetica,sans-Serif" font-size="10.00"> &#45;m_triangulation</text>
</g>
<!-- Node4 -->
<g id="node4" class="node">
<title>Node4</title>
<g id="a_node4"><a xlink:title=" ">
<polygon fill="white" stroke="#bfbfbf" points="0,-606.5 0,-674.5 111,-674.5 111,-606.5 0,-606.5"/>
<text text-anchor="start" x="8" y="-662.5" font-family="Helvetica,sans-Serif" font-size="10.00">std::vector&lt; Vertex</text>
<text text-anchor="middle" x="55.5" y="-651.5" font-family="Helvetica,sans-Serif" font-size="10.00">_handle &gt;</text>
<polyline fill="none" stroke="#bfbfbf" points="0,-644.5 111,-644.5 "/>
<text text-anchor="start" x="8" y="-632.5" font-family="Helvetica,sans-Serif" font-size="10.00">+ elements</text>
<polyline fill="none" stroke="#bfbfbf" points="0,-625.5 111,-625.5 "/>
<text text-anchor="middle" x="55.5" y="-613.5" font-family="Helvetica,sans-Serif" font-size="10.00"> </text>
</a>
</g>
</g>
<!-- Node4&#45;&gt;Node3 -->
<g id="edge3" class="edge">
<title>Node4&#45;&gt;Node3</title>
<path fill="none" stroke="#404040" d="M85.63,-606.31C109.51,-582.13 145.01,-550.64 182.5,-533 219.44,-515.62 240.25,-535.87 279.43,-514.52"/>
<polygon fill="none" stroke="#404040" points="279.58,-514.42 282.6,-507.87 289.81,-508.14 286.79,-514.69 279.58,-514.42"/>
<text text-anchor="middle" x="213" y="-552.5" font-family="Helvetica,sans-Serif" font-size="10.00"> &#45;m_vertices</text>
</g>
<!-- Node5 -->
<g id="node5" class="node">
<title>Node5</title>
<g id="a_node5"><a xlink:title=" ">
<polygon fill="white" stroke="#bfbfbf" points="318,-744.5 318,-801.5 415,-801.5 415,-744.5 318,-744.5"/>
<text text-anchor="middle" x="366.5" y="-789.5" font-family="Helvetica,sans-Serif" font-size="10.00">std::vector&lt; T &gt;</text>
<polyline fill="none" stroke="#bfbfbf" points="318,-782.5 415,-782.5 "/>
<text text-anchor="middle" x="366.5" y="-770.5" font-family="Helvetica,sans-Serif" font-size="10.00"> </text>
<polyline fill="none" stroke="#bfbfbf" points="318,-763.5 415,-763.5 "/>
<text text-anchor="middle" x="366.5" y="-751.5" font-family="Helvetica,sans-Serif" font-size="10.00"> </text>
</a>
</g>
</g>
<!-- Node5&#45;&gt;Node4 -->
<g id="edge4" class="edge">
<title>Node5&#45;&gt;Node4</title>
<path fill="none" stroke="orange" d="M307.49,-766.72C263.97,-761.04 204.27,-749.44 156.5,-726 130.43,-713.21 105.37,-692.31 86.74,-674.5"/>
<polygon fill="orange" stroke="orange" points="307.27,-770.22 317.63,-767.97 308.13,-763.27 307.27,-770.22"/>
<text text-anchor="middle" x="204.5" y="-712.5" font-family="Helvetica,sans-Serif" font-size="10.00"> &lt; Vertex_handle &gt;</text>
</g>
<!-- Node7 -->
<g id="node7" class="node">
<title>Node7</title>
<g id="a_node7"><a xlink:title=" ">
<polygon fill="white" stroke="#bfbfbf" points="129.5,-612 129.5,-669 277.5,-669 277.5,-612 129.5,-612"/>
<text text-anchor="middle" x="203.5" y="-657" font-family="Helvetica,sans-Serif" font-size="10.00">std::vector&lt; Cell_handle &gt;</text>
<polyline fill="none" stroke="#bfbfbf" points="129.5,-650 277.5,-650 "/>
<text text-anchor="start" x="137.5" y="-638" font-family="Helvetica,sans-Serif" font-size="10.00">+ elements</text>
<polyline fill="none" stroke="#bfbfbf" points="129.5,-631 277.5,-631 "/>
<text text-anchor="middle" x="203.5" y="-619" font-family="Helvetica,sans-Serif" font-size="10.00"> </text>
</a>
</g>
</g>
<!-- Node5&#45;&gt;Node7 -->
<g id="edge7" class="edge">
<title>Node5&#45;&gt;Node7</title>
<path fill="none" stroke="orange" d="M308.8,-745.19C298.64,-739.45 288.46,-732.99 279.5,-726 258.5,-709.62 238.51,-687.02 224.31,-669.31"/>
<polygon fill="orange" stroke="orange" points="307.23,-748.32 317.69,-750.04 310.58,-742.18 307.23,-748.32"/>
<text text-anchor="middle" x="321" y="-712.5" font-family="Helvetica,sans-Serif" font-size="10.00"> &lt; Cell_handle &gt;</text>
</g>
<!-- Node10 -->
<g id="node10" class="node">
<title>Node10</title>
<g id="a_node10"><a xlink:title=" ">
<polygon fill="white" stroke="#bfbfbf" points="295.5,-606.5 295.5,-674.5 437.5,-674.5 437.5,-606.5 295.5,-606.5"/>
<text text-anchor="start" x="303.5" y="-662.5" font-family="Helvetica,sans-Serif" font-size="10.00">std::vector&lt; Edge_handle</text>
<text text-anchor="middle" x="366.5" y="-651.5" font-family="Helvetica,sans-Serif" font-size="10.00">_t&lt; 3 &gt; &gt;</text>
<polyline fill="none" stroke="#bfbfbf" points="295.5,-644.5 437.5,-644.5 "/>
<text text-anchor="start" x="303.5" y="-632.5" font-family="Helvetica,sans-Serif" font-size="10.00">+ elements</text>
<polyline fill="none" stroke="#bfbfbf" points="295.5,-625.5 437.5,-625.5 "/>
<text text-anchor="middle" x="366.5" y="-613.5" font-family="Helvetica,sans-Serif" font-size="10.00"> </text>
</a>
</g>
</g>
<!-- Node5&#45;&gt;Node10 -->
<g id="edge12" class="edge">
<title>Node5&#45;&gt;Node10</title>
<path fill="none" stroke="orange" d="M366.5,-734.3C366.5,-715.45 366.5,-692.86 366.5,-674.68"/>
<polygon fill="orange" stroke="orange" points="363,-734.32 366.5,-744.32 370,-734.32 363,-734.32"/>
<text text-anchor="middle" x="429.5" y="-712.5" font-family="Helvetica,sans-Serif" font-size="10.00"> &lt; Edge_handle_t&lt; 3 &gt; &gt;</text>
</g>
<!-- Node11 -->
<g id="node11" class="node">
<title>Node11</title>
<g id="a_node11"><a xlink:title=" ">
<polygon fill="white" stroke="#bfbfbf" points="455.5,-606.5 455.5,-674.5 595.5,-674.5 595.5,-606.5 455.5,-606.5"/>
<text text-anchor="start" x="463.5" y="-662.5" font-family="Helvetica,sans-Serif" font-size="10.00">std::vector&lt; Face_handle</text>
<text text-anchor="middle" x="525.5" y="-651.5" font-family="Helvetica,sans-Serif" font-size="10.00">_t&lt; 3 &gt; &gt;</text>
<polyline fill="none" stroke="#bfbfbf" points="455.5,-644.5 595.5,-644.5 "/>
<text text-anchor="start" x="463.5" y="-632.5" font-family="Helvetica,sans-Serif" font-size="10.00">+ elements</text>
<polyline fill="none" stroke="#bfbfbf" points="455.5,-625.5 595.5,-625.5 "/>
<text text-anchor="middle" x="525.5" y="-613.5" font-family="Helvetica,sans-Serif" font-size="10.00"> </text>
</a>
</g>
</g>
<!-- Node5&#45;&gt;Node11 -->
<g id="edge14" class="edge">
<title>Node5&#45;&gt;Node11</title>
<path fill="none" stroke="orange" d="M424.76,-763.04C449.69,-756.52 477.39,-745.3 496.5,-726 510.03,-712.34 517.26,-692.08 521.12,-674.83"/>
<polygon fill="orange" stroke="orange" points="423.91,-759.65 415.01,-765.4 425.55,-766.45 423.91,-759.65"/>
<text text-anchor="middle" x="573.5" y="-712.5" font-family="Helvetica,sans-Serif" font-size="10.00"> &lt; Face_handle_t&lt; 3 &gt; &gt;</text>
</g>
<!-- Node6 -->
<g id="node6" class="node">
<title>Node6</title>
<g id="a_node6"><a xlink:title=" ">
<polygon fill="white" stroke="#bfbfbf" points="416,-849.5 416,-906.5 445,-906.5 445,-849.5 416,-849.5"/>
<text text-anchor="middle" x="430.5" y="-894.5" font-family="Helvetica,sans-Serif" font-size="10.00">T</text>
<polyline fill="none" stroke="#bfbfbf" points="416,-887.5 445,-887.5 "/>
<text text-anchor="middle" x="430.5" y="-875.5" font-family="Helvetica,sans-Serif" font-size="10.00"> </text>
<polyline fill="none" stroke="#bfbfbf" points="416,-868.5 445,-868.5 "/>
<text text-anchor="middle" x="430.5" y="-856.5" font-family="Helvetica,sans-Serif" font-size="10.00"> </text>
</a>
</g>
</g>
<!-- Node6&#45;&gt;Node5 -->
<g id="edge5" class="edge">
<title>Node6&#45;&gt;Node5</title>
<path fill="none" stroke="#404040" d="M415.98,-853.63C408.34,-841.33 398.78,-825.95 390.1,-811.99"/>
<polygon fill="none" stroke="#404040" points="390.02,-811.86 383.46,-808.87 383.69,-801.67 390.25,-804.65 390.02,-811.86"/>
<text text-anchor="middle" x="429.5" y="-823" font-family="Helvetica,sans-Serif" font-size="10.00"> +elements</text>
</g>
<!-- Node9 -->
<g id="node9" class="node">
<title>Node9</title>
<g id="a_node9"><a xlink:title=" ">
<polygon fill="white" stroke="#bfbfbf" points="518.5,-744.5 518.5,-801.5 644.5,-801.5 644.5,-744.5 518.5,-744.5"/>
<text text-anchor="middle" x="581.5" y="-789.5" font-family="Helvetica,sans-Serif" font-size="10.00">std::multimap&lt; K, T &gt;</text>
<polyline fill="none" stroke="#bfbfbf" points="518.5,-782.5 644.5,-782.5 "/>
<text text-anchor="start" x="526.5" y="-770.5" font-family="Helvetica,sans-Serif" font-size="10.00">+ keys</text>
<polyline fill="none" stroke="#bfbfbf" points="518.5,-763.5 644.5,-763.5 "/>
<text text-anchor="middle" x="581.5" y="-751.5" font-family="Helvetica,sans-Serif" font-size="10.00"> </text>
</a>
</g>
</g>
<!-- Node6&#45;&gt;Node9 -->
<g id="edge10" class="edge">
<title>Node6&#45;&gt;Node9</title>
<path fill="none" stroke="#404040" d="M445.25,-866.94C464.99,-853.47 500.98,-828.92 531.02,-808.44"/>
<polygon fill="none" stroke="#404040" points="531.03,-808.43 533.73,-801.74 540.94,-801.67 538.24,-808.35 531.03,-808.43"/>
<text text-anchor="middle" x="540.5" y="-823" font-family="Helvetica,sans-Serif" font-size="10.00"> +elements</text>
</g>
<!-- Node7&#45;&gt;Node3 -->
<g id="edge6" class="edge">
<title>Node7&#45;&gt;Node3</title>
<path fill="none" stroke="#404040" d="M220.94,-612C236.22,-587.91 259.61,-551.03 283.2,-513.84"/>
<polygon fill="none" stroke="#404040" points="283.42,-513.48 283.26,-506.28 289.85,-503.35 290.02,-510.56 283.42,-513.48"/>
<text text-anchor="middle" x="304.5" y="-569" font-family="Helvetica,sans-Serif" font-size="10.00"> &#45;m_cells</text>
<text text-anchor="middle" x="304.5" y="-558" font-family="Helvetica,sans-Serif" font-size="10.00">&#45;m_one_three</text>
<text text-anchor="middle" x="304.5" y="-547" font-family="Helvetica,sans-Serif" font-size="10.00">&#45;m_three_one</text>
<text text-anchor="middle" x="304.5" y="-536" font-family="Helvetica,sans-Serif" font-size="10.00">&#45;m_two_two</text>
</g>
<!-- Node8 -->
<g id="node8" class="node">
<title>Node8</title>
<g id="a_node8"><a xlink:title=" ">
<polygon fill="white" stroke="#bfbfbf" points="614,-595.5 614,-685.5 723,-685.5 723,-595.5 614,-595.5"/>
<text text-anchor="start" x="622" y="-673.5" font-family="Helvetica,sans-Serif" font-size="10.00">std::multimap&lt; Int</text>
<text text-anchor="start" x="622" y="-662.5" font-family="Helvetica,sans-Serif" font-size="10.00">_precision, Facet_t</text>
<text text-anchor="middle" x="668.5" y="-651.5" font-family="Helvetica,sans-Serif" font-size="10.00">&lt; 3 &gt; &gt;</text>
<polyline fill="none" stroke="#bfbfbf" points="614,-644.5 723,-644.5 "/>
<text text-anchor="start" x="622" y="-632.5" font-family="Helvetica,sans-Serif" font-size="10.00">+ elements</text>
<text text-anchor="start" x="622" y="-621.5" font-family="Helvetica,sans-Serif" font-size="10.00">+ keys</text>
<polyline fill="none" stroke="#bfbfbf" points="614,-614.5 723,-614.5 "/>
<text text-anchor="middle" x="668.5" y="-602.5" font-family="Helvetica,sans-Serif" font-size="10.00"> </text>
</a>
</g>
</g>
<!-- Node8&#45;&gt;Node3 -->
<g id="edge8" class="edge">
<title>Node8&#45;&gt;Node3</title>
<path fill="none" stroke="#404040" d="M619.03,-595.4C597.22,-576.1 571.21,-553.28 547.5,-533 516.68,-506.64 482.56,-478.1 452.33,-453.03"/>
<polygon fill="none" stroke="#404040" points="452.32,-453.02 445.15,-452.28 443.08,-445.37 450.25,-446.12 452.32,-453.02"/>
<text text-anchor="middle" x="650" y="-552.5" font-family="Helvetica,sans-Serif" font-size="10.00"> &#45;m_spacelike_facets</text>
</g>
<!-- Node9&#45;&gt;Node8 -->
<g id="edge9" class="edge">
<title>Node9&#45;&gt;Node8</title>
<path fill="none" stroke="orange" d="M634.87,-737.4C638.43,-733.83 641.7,-730.02 644.5,-726 652.78,-714.11 658.22,-699.41 661.79,-685.62"/>
<polygon fill="orange" stroke="orange" points="632.26,-735.05 627.25,-744.39 636.99,-740.21 632.26,-735.05"/>
<text text-anchor="start" x="656.5" y="-718" font-family="Helvetica,sans-Serif" font-size="10.00"> &lt; Int_precision, Facet</text>
<text text-anchor="middle" x="711" y="-707" font-family="Helvetica,sans-Serif" font-size="10.00">_t&lt; 3 &gt; &gt;</text>
</g>
<!-- Node10&#45;&gt;Node3 -->
<g id="edge11" class="edge">
<title>Node10&#45;&gt;Node3</title>
<path fill="none" stroke="#404040" d="M366.5,-606.43C366.5,-585.52 366.5,-556.88 366.5,-527.07"/>
<polygon fill="none" stroke="#404040" points="366.5,-526.7 362.5,-520.7 366.5,-514.7 370.5,-520.7 366.5,-526.7"/>
<text text-anchor="middle" x="416.5" y="-563.5" font-family="Helvetica,sans-Serif" font-size="10.00"> &#45;m_edges</text>
<text text-anchor="middle" x="416.5" y="-552.5" font-family="Helvetica,sans-Serif" font-size="10.00">&#45;m_spacelike_edges</text>
<text text-anchor="middle" x="416.5" y="-541.5" font-family="Helvetica,sans-Serif" font-size="10.00">&#45;m_timelike_edges</text>
</g>
<!-- Node11&#45;&gt;Node3 -->
<g id="edge13" class="edge">
<title>Node11&#45;&gt;Node3</title>
<path fill="none" stroke="#404040" d="M509.71,-606.28C499.25,-584.97 484.85,-556.91 470.5,-533 463.99,-522.16 456.99,-511.05 449.81,-500.02"/>
<polygon fill="none" stroke="#404040" points="449.77,-499.95 443.13,-497.13 443.18,-489.92 449.81,-492.74 449.77,-499.95"/>
<text text-anchor="middle" x="519" y="-552.5" font-family="Helvetica,sans-Serif" font-size="10.00"> &#45;m_faces</text>
</g>
</g>
</svg>
