<?xml version="1.0" encoding="UTF-8" standalone="no"?>
<!DOCTYPE svg PUBLIC "-//W3C//DTD SVG 1.1//EN"
 "http://www.w3.org/Graphics/SVG/1.1/DTD/svg11.dtd">
<!-- Generated by graphviz version 2.43.0 (0)
 -->
<!-- Title: MoveCommand&lt; ManifoldType, FunctionType &gt; Pages: 1 -->
<!--zoomable 513 -->
<svg id="main" version="1.1" xmlns="http://www.w3.org/2000/svg" xmlns:xlink="http://www.w3.org/1999/xlink" xml:space="preserve" onload="init(evt)">
<style type="text/css"><![CDATA[
.edge:hover path { stroke: red; }
.edge:hover polygon { stroke: red; fill: red; }
]]></style>
<script type="text/javascript"><![CDATA[
var edges = document.getElementsByTagName('g');
if (edges && edges.length) {
  for (var i=0;i<edges.length;i++) {
    if (edges[i].id.substr(0,4)=='edge') {
      edges[i].setAttribute('class','edge');
    }
  }
}
]]></script>
        <defs>
                <circle id="rim" cx="0" cy="0" r="7"/>
                <circle id="rim2" cx="0" cy="0" r="3.5"/>
                <g id="zoomPlus">
                        <use xlink:href="#rim" fill="#404040">
                                <set attributeName="fill" to="#808080" begin="zoomplus.mouseover" end="zoomplus.mouseout"/>
                        </use>
                        <path d="M-4,0h8M0,-4v8" fill="none" stroke="white" stroke-width="1.5" pointer-events="none"/>
                </g>
                <g id="zoomMin">
                        <use xlink:href="#rim" fill="#404040">
                                <set attributeName="fill" to="#808080" begin="zoomminus.mouseover" end="zoomminus.mouseout"/>
                        </use>
                        <path d="M-4,0h8" fill="none" stroke="white" stroke-width="1.5" pointer-events="none"/>
                </g>
                <g id="dirArrow">
                        <path fill="none" stroke="white" stroke-width="1.5" d="M0,-3.0v7 M-2.5,-0.5L0,-3.0L2.5,-0.5"/>
                </g>
               <g id="resetDef">
                       <use xlink:href="#rim2" fill="#404040">
                               <set attributeName="fill" to="#808080" begin="reset.mouseover" end="reset.mouseout"/>
                       </use>
               </g>
        </defs>

<script type="text/javascript">
var viewWidth = 337;
var viewHeight = 513;
var sectionId = 'dynsection-0';
</script>
<script xlink:href="svgpan.js"/>
<svg id="graph" class="graph">
<g id="viewport">
<title>MoveCommand&lt; ManifoldType, FunctionType &gt;</title>
<polygon fill="white" stroke="transparent" points="-4,4 -4,-509 333,-509 333,4 -4,4"/>
<!-- Node1 -->
<g id="node1" class="node">
<title>Node1</title>
<g id="a_node1"><a xlink:title=" ">
<polygon fill="#bfbfbf" stroke="black" points="64.5,-0.5 64.5,-145.5 237.5,-145.5 237.5,-0.5 64.5,-0.5"/>
<text text-anchor="start" x="72.5" y="-133.5" font-family="Helvetica,sans-Serif" font-size="10.00">MoveCommand&lt; ManifoldType,</text>
<text text-anchor="middle" x="151" y="-122.5" font-family="Helvetica,sans-Serif" font-size="10.00"> FunctionType &gt;</text>
<polyline fill="none" stroke="black" points="64.5,-115.5 237.5,-115.5 "/>
<text text-anchor="start" x="72.5" y="-103.5" font-family="Helvetica,sans-Serif" font-size="10.00">&#45; m_manifold</text>
<polyline fill="none" stroke="black" points="64.5,-96.5 237.5,-96.5 "/>
<text text-anchor="start" x="72.5" y="-84.5" font-family="Helvetica,sans-Serif" font-size="10.00">+ MoveCommand()</text>
<text text-anchor="start" x="72.5" y="-73.5" font-family="Helvetica,sans-Serif" font-size="10.00">+ MoveCommand()</text>
<text text-anchor="start" x="72.5" y="-62.5" font-family="Helvetica,sans-Serif" font-size="10.00">+ enqueue()</text>
<text text-anchor="start" x="72.5" y="-51.5" font-family="Helvetica,sans-Serif" font-size="10.00">+ execute()</text>
<text text-anchor="start" x="72.5" y="-40.5" font-family="Helvetica,sans-Serif" font-size="10.00">+ get_manifold()</text>
<text text-anchor="start" x="72.5" y="-29.5" font-family="Helvetica,sans-Serif" font-size="10.00">+ get_results()</text>
<text text-anchor="start" x="72.5" y="-18.5" font-family="Helvetica,sans-Serif" font-size="10.00">+ move()</text>
<text text-anchor="start" x="72.5" y="-7.5" font-family="Helvetica,sans-Serif" font-size="10.00">+ size()</text>
</a>
</g>
</g>
<!-- Node2 -->
<g id="node2" class="node">
<title>Node2</title>
<g id="a_node2"><a xlink:title=" ">
<polygon fill="white" stroke="#bfbfbf" points="72,-193.5 72,-272.5 230,-272.5 230,-193.5 72,-193.5"/>
<text text-anchor="start" x="80" y="-260.5" font-family="Helvetica,sans-Serif" font-size="10.00">std::deque&lt; function</text>
<text text-anchor="start" x="80" y="-249.5" font-family="Helvetica,sans-Serif" font-size="10.00">_ref&lt; ManifoldType(Manifold</text>
<text text-anchor="middle" x="151" y="-238.5" font-family="Helvetica,sans-Serif" font-size="10.00">Type &amp;)&gt; &gt;</text>
<polyline fill="none" stroke="#bfbfbf" points="72,-231.5 230,-231.5 "/>
<text text-anchor="middle" x="151" y="-219.5" font-family="Helvetica,sans-Serif" font-size="10.00"> </text>
<polyline fill="none" stroke="#bfbfbf" points="72,-212.5 230,-212.5 "/>
<text text-anchor="middle" x="151" y="-200.5" font-family="Helvetica,sans-Serif" font-size="10.00"> </text>
</a>
</g>
</g>
<!-- Node2&#45;&gt;Node1 -->
<g id="edge1" class="edge">
<title>Node2&#45;&gt;Node1</title>
<path fill="none" stroke="#404040" d="M151,-193.35C151,-182.52 151,-170.31 151,-157.94"/>
<polygon fill="none" stroke="#404040" points="151,-157.57 147,-151.57 151,-145.57 155,-151.57 151,-157.57"/>
<text text-anchor="middle" x="178.5" y="-167" font-family="Helvetica,sans-Serif" font-size="10.00"> &#45;m_moves</text>
</g>
<!-- Node3 -->
<g id="node3" class="node">
<title>Node3</title>
<g id="a_node3"><a xlink:href="classfunction__ref.html" target="_top" xlink:title=" ">
<polygon fill="white" stroke="black" points="5,-331.5 5,-399.5 157,-399.5 157,-331.5 5,-331.5"/>
<text text-anchor="start" x="13" y="-387.5" font-family="Helvetica,sans-Serif" font-size="10.00">function_ref&lt; ManifoldType</text>
<text text-anchor="middle" x="81" y="-376.5" font-family="Helvetica,sans-Serif" font-size="10.00">(ManifoldType &amp;)&gt;</text>
<polyline fill="none" stroke="black" points="5,-369.5 157,-369.5 "/>
<text text-anchor="middle" x="81" y="-357.5" font-family="Helvetica,sans-Serif" font-size="10.00"> </text>
<polyline fill="none" stroke="black" points="5,-350.5 157,-350.5 "/>
<text text-anchor="middle" x="81" y="-338.5" font-family="Helvetica,sans-Serif" font-size="10.00"> </text>
</a>
</g>
</g>
<!-- Node3&#45;&gt;Node2 -->
<g id="edge2" class="edge">
<title>Node3&#45;&gt;Node2</title>
<path fill="none" stroke="#404040" d="M98.85,-331.23C106.61,-316.75 115.88,-299.48 124.43,-283.54"/>
<polygon fill="none" stroke="#404040" points="124.53,-283.34 123.85,-276.16 130.21,-272.77 130.9,-279.94 124.53,-283.34"/>
<text text-anchor="middle" x="150" y="-299.5" font-family="Helvetica,sans-Serif" font-size="10.00"> +elements</text>
</g>
<!-- Node4 -->
<g id="node4" class="node">
<title>Node4</title>
<g id="a_node4"><a xlink:href="classfunction__ref.html" target="_top" xlink:title=" ">
<polygon fill="white" stroke="black" points="0,-447.5 0,-504.5 110,-504.5 110,-447.5 0,-447.5"/>
<text text-anchor="middle" x="55" y="-492.5" font-family="Helvetica,sans-Serif" font-size="10.00">function_ref&lt; Fn &gt;</text>
<polyline fill="none" stroke="black" points="0,-485.5 110,-485.5 "/>
<text text-anchor="middle" x="55" y="-473.5" font-family="Helvetica,sans-Serif" font-size="10.00"> </text>
<polyline fill="none" stroke="black" points="0,-466.5 110,-466.5 "/>
<text text-anchor="middle" x="55" y="-454.5" font-family="Helvetica,sans-Serif" font-size="10.00"> </text>
</a>
</g>
</g>
<!-- Node4&#45;&gt;Node3 -->
<g id="edge3" class="edge">
<title>Node4&#45;&gt;Node3</title>
<path fill="none" stroke="orange" d="M62.59,-437.42C63.99,-430.93 65.49,-424.26 67,-418 68.43,-412.05 70.06,-405.75 71.68,-399.67"/>
<polygon fill="orange" stroke="orange" points="59.13,-436.88 60.48,-447.39 65.97,-438.33 59.13,-436.88"/>
<text text-anchor="middle" x="153" y="-421" font-family="Helvetica,sans-Serif" font-size="10.00"> &lt; ManifoldType(ManifoldType &amp;)&gt;</text>
</g>
<!-- Node5 -->
<g id="node5" class="node">
<title>Node5</title>
<g id="a_node5"><a xlink:title="STL class.">
<polygon fill="white" stroke="#bfbfbf" points="188,-337 188,-394 284,-394 284,-337 188,-337"/>
<text text-anchor="middle" x="236" y="-382" font-family="Helvetica,sans-Serif" font-size="10.00">std::deque&lt; T &gt;</text>
<polyline fill="none" stroke="#bfbfbf" points="188,-375 284,-375 "/>
<text text-anchor="middle" x="236" y="-363" font-family="Helvetica,sans-Serif" font-size="10.00"> </text>
<polyline fill="none" stroke="#bfbfbf" points="188,-356 284,-356 "/>
<text text-anchor="middle" x="236" y="-344" font-family="Helvetica,sans-Serif" font-size="10.00"> </text>
</a>
</g>
</g>
<!-- Node5&#45;&gt;Node2 -->
<g id="edge4" class="edge">
<title>Node5&#45;&gt;Node2</title>
<path fill="none" stroke="orange" d="M212.3,-328.12C201.03,-310.81 187.54,-290.1 176.09,-272.53"/>
<polygon fill="orange" stroke="orange" points="209.58,-330.36 217.97,-336.82 215.45,-326.53 209.58,-330.36"/>
<text text-anchor="start" x="202" y="-305" font-family="Helvetica,sans-Serif" font-size="10.00"> &lt; function_ref&lt; Manifold</text>
<text text-anchor="middle" x="265.5" y="-294" font-family="Helvetica,sans-Serif" font-size="10.00">Type(ManifoldType &amp;)&gt; &gt;</text>
</g>
<!-- Node6 -->
<g id="node6" class="node">
<title>Node6</title>
<g id="a_node6"><a xlink:title=" ">
<polygon fill="white" stroke="#bfbfbf" points="235.5,-447.5 235.5,-504.5 264.5,-504.5 264.5,-447.5 235.5,-447.5"/>
<text text-anchor="middle" x="250" y="-492.5" font-family="Helvetica,sans-Serif" font-size="10.00">T</text>
<polyline fill="none" stroke="#bfbfbf" points="235.5,-485.5 264.5,-485.5 "/>
<text text-anchor="middle" x="250" y="-473.5" font-family="Helvetica,sans-Serif" font-size="10.00"> </text>
<polyline fill="none" stroke="#bfbfbf" points="235.5,-466.5 264.5,-466.5 "/>
<text text-anchor="middle" x="250" y="-454.5" font-family="Helvetica,sans-Serif" font-size="10.00"> </text>
</a>
</g>
</g>
<!-- Node6&#45;&gt;Node5 -->
<g id="edge5" class="edge">
<title>Node6&#45;&gt;Node5</title>
<path fill="none" stroke="#404040" d="M246.43,-447.34C244.82,-434.84 242.88,-419.84 241.12,-406.18"/>
<polygon fill="none" stroke="#404040" points="241.1,-406.01 236.36,-400.57 239.56,-394.11 244.3,-399.55 241.1,-406.01"/>
<text text-anchor="middle" x="273" y="-421" font-family="Helvetica,sans-Serif" font-size="10.00"> +elements</text>
</g>
</g>
</svg>
        <g id="navigator" transform="translate(0 0)" fill="#404254">
                <rect fill="#f2f5e9" fill-opacity="0.5" stroke="#606060" stroke-width=".5" x="0" y="0" width="60" height="60"/>
                <use id="zoomplus" xlink:href="#zoomPlus" x="17" y="9" onmousedown="handleZoom(evt,'in')"/>
                <use id="zoomminus" xlink:href="#zoomMin" x="42" y="9" onmousedown="handleZoom(evt,'out')"/>
                <use id="reset" xlink:href="#resetDef" x="30" y="36" onmousedown="handleReset()"/>
                <g id="arrowUp" xlink:href="#dirArrow" transform="translate(30 24)" onmousedown="handlePan(0,-1)">
                  <use xlink:href="#rim" fill="#404040">
                        <set attributeName="fill" to="#808080" begin="arrowUp.mouseover" end="arrowUp.mouseout"/>
                  </use>
                  <path fill="none" stroke="white" stroke-width="1.5" d="M0,-3.0v7 M-2.5,-0.5L0,-3.0L2.5,-0.5"/>
                </g>
                <g id="arrowRight" xlink:href="#dirArrow" transform="rotate(90) translate(36 -43)" onmousedown="handlePan(1,0)">
                  <use xlink:href="#rim" fill="#404040">
                        <set attributeName="fill" to="#808080" begin="arrowRight.mouseover" end="arrowRight.mouseout"/>
                  </use>
                  <path fill="none" stroke="white" stroke-width="1.5" d="M0,-3.0v7 M-2.5,-0.5L0,-3.0L2.5,-0.5"/>
                </g>
                <g id="arrowDown" xlink:href="#dirArrow" transform="rotate(180) translate(-30 -48)" onmousedown="handlePan(0,1)">
                  <use xlink:href="#rim" fill="#404040">
                        <set attributeName="fill" to="#808080" begin="arrowDown.mouseover" end="arrowDown.mouseout"/>
                  </use>
                  <path fill="none" stroke="white" stroke-width="1.5" d="M0,-3.0v7 M-2.5,-0.5L0,-3.0L2.5,-0.5"/>
                </g>
                <g id="arrowLeft" xlink:href="#dirArrow" transform="rotate(270) translate(-36 17)" onmousedown="handlePan(-1,0)">
                  <use xlink:href="#rim" fill="#404040">
                        <set attributeName="fill" to="#808080" begin="arrowLeft.mouseover" end="arrowLeft.mouseout"/>
                  </use>
                  <path fill="none" stroke="white" stroke-width="1.5" d="M0,-3.0v7 M-2.5,-0.5L0,-3.0L2.5,-0.5"/>
                </g>
        </g>
        <svg viewBox="0 0 15 15" width="100%" height="30px" preserveAspectRatio="xMaxYMin meet">
         <g id="arrow_out" transform="scale(0.3 0.3)">
          <a xlink:href="class_move_command__coll__graph_org.svg" target="_base">
           <rect id="button" ry="5" rx="5" y="6" x="6" height="38" width="38"
                fill="#f2f5e9" fill-opacity="0.5" stroke="#606060" stroke-width="1.0"/>
           <path id="arrow"
             d="M 11.500037,31.436501 C 11.940474,20.09759 22.043105,11.32322 32.158766,21.979434 L 37.068811,17.246167 C 37.068811,17.246167 37.088388,32 37.088388,32 L 22.160133,31.978069 C 22.160133,31.978069 26.997745,27.140456 26.997745,27.140456 C 18.528582,18.264221 13.291696,25.230495 11.500037,31.436501 z"
             style="fill:#404040;"/>
          </a>
         </g>
        </svg>
</svg>
