<?xml version="1.0" encoding="UTF-8" standalone="no"?>
<!DOCTYPE svg PUBLIC "-//W3C//DTD SVG 1.1//EN"
 "http://www.w3.org/Graphics/SVG/1.1/DTD/svg11.dtd">
<!-- Generated by graphviz version 2.43.0 (0)
 -->
<!-- Title: E Pages: 1 -->
<svg width="182pt" height="371pt"
 viewBox="0.00 0.00 182.00 371.00" xmlns="http://www.w3.org/2000/svg" xmlns:xlink="http://www.w3.org/1999/xlink">
<g id="graph0" class="graph" transform="scale(1 1) rotate(0) translate(4 367)">
<title>E</title>
<!-- Node1 -->
<g id="node1" class="node">
<title>Node1</title>
<g id="a_node1"><a xlink:title=" ">
<polygon fill="#999999" stroke="#666666" points="0,-0.5 0,-57.5 29,-57.5 29,-0.5 0,-0.5"/>
<text text-anchor="middle" x="14.5" y="-45.5" font-family="Helvetica,sans-Serif" font-size="10.00">E</text>
<polyline fill="none" stroke="#666666" points="0,-38.5 29,-38.5 "/>
<text text-anchor="middle" x="14.5" y="-26.5" font-family="Helvetica,sans-Serif" font-size="10.00"> </text>
<polyline fill="none" stroke="#666666" points="0,-19.5 29,-19.5 "/>
<text text-anchor="middle" x="14.5" y="-7.5" font-family="Helvetica,sans-Serif" font-size="10.00"> </text>
</a>
</g>
</g>
<!-- Node2 -->
<g id="node2" class="node">
<title>Node2</title>
<g id="a_node2"><a xlink:href="class_d.html" target="_top" xlink:title=" ">
<polygon fill="white" stroke="#bfbfbf" points="39,-105.5 39,-162.5 68,-162.5 68,-105.5 39,-105.5"/>
<text text-anchor="middle" x="53.5" y="-150.5" font-family="Helvetica,sans-Serif" font-size="10.00">D</text>
<polyline fill="none" stroke="#bfbfbf" points="39,-143.5 68,-143.5 "/>
<text text-anchor="middle" x="53.5" y="-131.5" font-family="Helvetica,sans-Serif" font-size="10.00"> </text>
<polyline fill="none" stroke="#bfbfbf" points="39,-124.5 68,-124.5 "/>
<text text-anchor="middle" x="53.5" y="-112.5" font-family="Helvetica,sans-Serif" font-size="10.00"> </text>
</a>
</g>
</g>
<!-- Node2&#45;&gt;Node1 -->
<g id="edge1" class="edge">
<title>Node2&#45;&gt;Node1</title>
<path fill="none" stroke="#63b8ff" d="M34.14,-99.74C32.07,-95.53 30.13,-91.21 28.5,-87 24.9,-77.69 22,-67.15 19.8,-57.69"/>
<polygon fill="none" stroke="#63b8ff" points="31.09,-101.46 38.8,-108.73 37.31,-98.24 31.09,-101.46"/>
</g>
<!-- Node5 -->
<g id="node5" class="node">
<title>Node5</title>
<g id="a_node5"><a xlink:href="class_c.html" target="_top" xlink:title=" ">
<polygon fill="white" stroke="#bfbfbf" points="89,-0.5 89,-57.5 118,-57.5 118,-0.5 89,-0.5"/>
<text text-anchor="middle" x="103.5" y="-45.5" font-family="Helvetica,sans-Serif" font-size="10.00">C</text>
<polyline fill="none" stroke="#bfbfbf" points="89,-38.5 118,-38.5 "/>
<text text-anchor="middle" x="103.5" y="-26.5" font-family="Helvetica,sans-Serif" font-size="10.00"> </text>
<polyline fill="none" stroke="#bfbfbf" points="89,-19.5 118,-19.5 "/>
<text text-anchor="middle" x="103.5" y="-7.5" font-family="Helvetica,sans-Serif" font-size="10.00"> </text>
</a>
</g>
</g>
<!-- Node2&#45;&gt;Node5 -->
<g id="edge8" class="edge">
<title>Node2&#45;&gt;Node5</title>
<path fill="none" stroke="#404040" d="M42.65,-105.33C40.52,-95.67 40.1,-85 44.5,-76 51.6,-61.47 65.75,-50.19 78.41,-42.44"/>
<polygon fill="none" stroke="#404040" points="78.48,-42.4 81.76,-35.98 88.95,-36.54 85.67,-42.96 78.48,-42.4"/>
<text text-anchor="middle" x="61" y="-79" font-family="Helvetica,sans-Serif" font-size="10.00"> +m_d</text>
</g>
<!-- Node3 -->
<g id="node3" class="node">
<title>Node3</title>
<g id="a_node3"><a xlink:href="class_a.html" target="_top" xlink:title=" ">
<polygon fill="white" stroke="#bfbfbf" points="82,-305.5 82,-362.5 111,-362.5 111,-305.5 82,-305.5"/>
<text text-anchor="middle" x="96.5" y="-350.5" font-family="Helvetica,sans-Serif" font-size="10.00">A</text>
<polyline fill="none" stroke="#bfbfbf" points="82,-343.5 111,-343.5 "/>
<text text-anchor="middle" x="96.5" y="-331.5" font-family="Helvetica,sans-Serif" font-size="10.00"> </text>
<polyline fill="none" stroke="#bfbfbf" points="82,-324.5 111,-324.5 "/>
<text text-anchor="middle" x="96.5" y="-312.5" font-family="Helvetica,sans-Serif" font-size="10.00"> </text>
</a>
</g>
</g>
<!-- Node3&#45;&gt;Node2 -->
<g id="edge2" class="edge">
<title>Node3&#45;&gt;Node2</title>
<path fill="none" stroke="darkgreen" d="M83.99,-295.79C80.26,-283.82 76.4,-270.43 73.5,-258 65.92,-225.56 60.23,-187.63 56.89,-162.57"/>
<polygon fill="none" stroke="darkgreen" points="80.7,-297 87.07,-305.46 87.37,-294.87 80.7,-297"/>
</g>
<!-- Node3&#45;&gt;Node3 -->
<g id="edge3" class="edge">
<title>Node3&#45;&gt;Node3</title>
<path fill="none" stroke="#404040" d="M111.21,-343.06C120.32,-345.25 129,-342.23 129,-334 129,-329.76 126.69,-326.9 123.21,-325.43"/>
<polygon fill="none" stroke="#404040" points="123.2,-325.43 117.04,-329.18 111.21,-324.94 117.36,-321.19 123.2,-325.43"/>
<text text-anchor="middle" x="151.5" y="-331.5" font-family="Helvetica,sans-Serif" font-size="10.00"> +m_self</text>
</g>
<!-- Node4 -->
<g id="node4" class="node">
<title>Node4</title>
<g id="a_node4"><a xlink:href="class_b.html" target="_top" xlink:title=" ">
<polygon fill="white" stroke="#bfbfbf" points="82,-200.5 82,-257.5 111,-257.5 111,-200.5 82,-200.5"/>
<text text-anchor="middle" x="96.5" y="-245.5" font-family="Helvetica,sans-Serif" font-size="10.00">B</text>
<polyline fill="none" stroke="#bfbfbf" points="82,-238.5 111,-238.5 "/>
<text text-anchor="middle" x="96.5" y="-226.5" font-family="Helvetica,sans-Serif" font-size="10.00"> </text>
<polyline fill="none" stroke="#bfbfbf" points="82,-219.5 111,-219.5 "/>
<text text-anchor="middle" x="96.5" y="-207.5" font-family="Helvetica,sans-Serif" font-size="10.00"> </text>
</a>
</g>
</g>
<!-- Node3&#45;&gt;Node4 -->
<g id="edge5" class="edge">
<title>Node3&#45;&gt;Node4</title>
<path fill="none" stroke="#404040" d="M96.5,-305.4C96.5,-294.55 96.5,-281.87 96.5,-270.05"/>
<polygon fill="none" stroke="#404040" points="96.5,-269.68 92.5,-263.68 96.5,-257.68 100.5,-263.68 96.5,-269.68"/>
<text text-anchor="middle" x="113" y="-279" font-family="Helvetica,sans-Serif" font-size="10.00"> +m_a</text>
</g>
<!-- Node3&#45;&gt;Node5 -->
<g id="edge7" class="edge">
<title>Node3&#45;&gt;Node5</title>
<path fill="none" stroke="#63b8ff" d="M118.46,-311.84C124.53,-304.6 130.32,-296.03 133.5,-287 135.12,-282.39 133.65,-280.89 133.5,-276 130.83,-186.99 140.63,-162.97 121.5,-76 120.17,-69.97 118.17,-63.69 115.97,-57.78"/>
<polygon fill="none" stroke="#63b8ff" points="115.48,-309.92 111.35,-319.67 120.66,-314.62 115.48,-309.92"/>
</g>
<!-- Node4&#45;&gt;Node2 -->
<g id="edge4" class="edge">
<title>Node4&#45;&gt;Node2</title>
<path fill="none" stroke="#8b1a1a" d="M79.45,-191.12C75.07,-181.65 70.43,-171.62 66.31,-162.71"/>
<polygon fill="none" stroke="#8b1a1a" points="76.34,-192.74 83.72,-200.35 82.7,-189.8 76.34,-192.74"/>
</g>
<!-- Node5&#45;&gt;Node2 -->
<g id="edge6" class="edge">
<title>Node5&#45;&gt;Node2</title>
<path fill="none" stroke="#404040" d="M93.95,-57.68C90.39,-67.14 86.09,-77.67 81.5,-87 79.38,-91.31 76.98,-95.75 74.5,-100.08"/>
<polygon fill="none" stroke="#404040" points="74.42,-100.21 74.79,-107.41 68.28,-110.52 67.91,-103.32 74.42,-100.21"/>
<text text-anchor="middle" x="101.5" y="-79" font-family="Helvetica,sans-Serif" font-size="10.00"> +m_c</text>
</g>
</g>
</svg>
