<?xml version="1.0" encoding="UTF-8" standalone="no"?>
<!DOCTYPE svg PUBLIC "-//W3C//DTD SVG 1.1//EN"
 "http://www.w3.org/Graphics/SVG/1.1/DTD/svg11.dtd">
<!-- Generated by graphviz version 2.43.0 (0)
 -->
<!-- Title: MoveCommand&lt; ManifoldType, ExpectedType, FunctionType &gt; Pages: 1 -->
<svg width="520pt" height="579pt"
 viewBox="0.00 0.00 520.00 579.00" xmlns="http://www.w3.org/2000/svg" xmlns:xlink="http://www.w3.org/1999/xlink">
<g id="graph0" class="graph" transform="scale(1 1) rotate(0) translate(4 575)">
<title>MoveCommand&lt; ManifoldType, ExpectedType, FunctionType &gt;</title>
<polygon fill="white" stroke="transparent" points="-4,4 -4,-575 516,-575 516,4 -4,4"/>
<!-- Node1 -->
<g id="node1" class="node">
<title>Node1</title>
<g id="a_node1"><a xlink:title=" ">
<polygon fill="#bfbfbf" stroke="black" points="43.5,-0.5 43.5,-156.5 216.5,-156.5 216.5,-0.5 43.5,-0.5"/>
<text text-anchor="start" x="51.5" y="-144.5" font-family="Helvetica,sans-Serif" font-size="10.00">MoveCommand&lt; ManifoldType,</text>
<text text-anchor="middle" x="130" y="-133.5" font-family="Helvetica,sans-Serif" font-size="10.00"> ExpectedType, FunctionType &gt;</text>
<polyline fill="none" stroke="black" points="43.5,-126.5 216.5,-126.5 "/>
<text text-anchor="start" x="51.5" y="-114.5" font-family="Helvetica,sans-Serif" font-size="10.00">&#45; m_manifold</text>
<polyline fill="none" stroke="black" points="43.5,-107.5 216.5,-107.5 "/>
<text text-anchor="start" x="51.5" y="-95.5" font-family="Helvetica,sans-Serif" font-size="10.00">+ MoveCommand()</text>
<text text-anchor="start" x="51.5" y="-84.5" font-family="Helvetica,sans-Serif" font-size="10.00">+ MoveCommand()</text>
<text text-anchor="start" x="51.5" y="-73.5" font-family="Helvetica,sans-Serif" font-size="10.00">+ enqueue()</text>
<text text-anchor="start" x="51.5" y="-62.5" font-family="Helvetica,sans-Serif" font-size="10.00">+ execute()</text>
<text text-anchor="start" x="51.5" y="-51.5" font-family="Helvetica,sans-Serif" font-size="10.00">+ get_manifold()</text>
<text text-anchor="start" x="51.5" y="-40.5" font-family="Helvetica,sans-Serif" font-size="10.00">+ get_results()</text>
<text text-anchor="start" x="51.5" y="-29.5" font-family="Helvetica,sans-Serif" font-size="10.00">+ parse_unexpected()</text>
<text text-anchor="start" x="51.5" y="-18.5" font-family="Helvetica,sans-Serif" font-size="10.00">+ print_errors()</text>
<text text-anchor="start" x="51.5" y="-7.5" font-family="Helvetica,sans-Serif" font-size="10.00">+ size()</text>
</a>
</g>
</g>
<!-- Node2 -->
<g id="node2" class="node">
<title>Node2</title>
<g id="a_node2"><a xlink:title=" ">
<polygon fill="white" stroke="#bfbfbf" points="0,-221 0,-278 110,-278 110,-221 0,-221"/>
<text text-anchor="middle" x="55" y="-266" font-family="Helvetica,sans-Serif" font-size="10.00">std::array&lt; int, 5 &gt;</text>
<polyline fill="none" stroke="#bfbfbf" points="0,-259 110,-259 "/>
<text text-anchor="start" x="8" y="-247" font-family="Helvetica,sans-Serif" font-size="10.00">+ elements</text>
<polyline fill="none" stroke="#bfbfbf" points="0,-240 110,-240 "/>
<text text-anchor="middle" x="55" y="-228" font-family="Helvetica,sans-Serif" font-size="10.00"> </text>
</a>
</g>
</g>
<!-- Node2&#45;&gt;Node1 -->
<g id="edge1" class="edge">
<title>Node2&#45;&gt;Node1</title>
<path fill="none" stroke="#404040" d="M66.42,-220.84C72.18,-207.02 79.35,-190.08 86,-175 87.08,-172.56 88.18,-170.08 89.29,-167.59"/>
<polygon fill="none" stroke="#404040" points="89.33,-167.49 88.14,-160.38 94.24,-156.54 95.44,-163.66 89.33,-167.49"/>
<text text-anchor="middle" x="130" y="-178" font-family="Helvetica,sans-Serif" font-size="10.00"> &#45;m_failed_moves</text>
</g>
<!-- Node3 -->
<g id="node3" class="node">
<title>Node3</title>
<g id="a_node3"><a xlink:title="STL class.">
<polygon fill="white" stroke="#bfbfbf" points="9,-375.5 9,-432.5 101,-432.5 101,-375.5 9,-375.5"/>
<text text-anchor="middle" x="55" y="-420.5" font-family="Helvetica,sans-Serif" font-size="10.00">std::array&lt; T &gt;</text>
<polyline fill="none" stroke="#bfbfbf" points="9,-413.5 101,-413.5 "/>
<text text-anchor="middle" x="55" y="-401.5" font-family="Helvetica,sans-Serif" font-size="10.00"> </text>
<polyline fill="none" stroke="#bfbfbf" points="9,-394.5 101,-394.5 "/>
<text text-anchor="middle" x="55" y="-382.5" font-family="Helvetica,sans-Serif" font-size="10.00"> </text>
</a>
</g>
</g>
<!-- Node3&#45;&gt;Node2 -->
<g id="edge2" class="edge">
<title>Node3&#45;&gt;Node2</title>
<path fill="none" stroke="orange" d="M55,-365.14C55,-338.17 55,-302.51 55,-278.17"/>
<polygon fill="orange" stroke="orange" points="51.5,-365.38 55,-375.38 58.5,-365.38 51.5,-365.38"/>
<text text-anchor="middle" x="80.5" y="-327" font-family="Helvetica,sans-Serif" font-size="10.00"> &lt; int, 5 &gt;</text>
</g>
<!-- Node4 -->
<g id="node4" class="node">
<title>Node4</title>
<g id="a_node4"><a xlink:title=" ">
<polygon fill="white" stroke="#bfbfbf" points="93.5,-513.5 93.5,-570.5 122.5,-570.5 122.5,-513.5 93.5,-513.5"/>
<text text-anchor="middle" x="108" y="-558.5" font-family="Helvetica,sans-Serif" font-size="10.00">T</text>
<polyline fill="none" stroke="#bfbfbf" points="93.5,-551.5 122.5,-551.5 "/>
<text text-anchor="middle" x="108" y="-539.5" font-family="Helvetica,sans-Serif" font-size="10.00"> </text>
<polyline fill="none" stroke="#bfbfbf" points="93.5,-532.5 122.5,-532.5 "/>
<text text-anchor="middle" x="108" y="-520.5" font-family="Helvetica,sans-Serif" font-size="10.00"> </text>
</a>
</g>
</g>
<!-- Node4&#45;&gt;Node3 -->
<g id="edge3" class="edge">
<title>Node4&#45;&gt;Node3</title>
<path fill="none" stroke="#404040" d="M93.3,-526.06C85.8,-517.6 77.19,-506.45 72,-495 64.96,-479.46 60.83,-461.13 58.42,-445.08"/>
<polygon fill="none" stroke="#404040" points="58.37,-444.7 53.63,-439.27 56.82,-432.8 61.56,-438.24 58.37,-444.7"/>
<text text-anchor="middle" x="101" y="-476" font-family="Helvetica,sans-Serif" font-size="10.00"> +elements</text>
</g>
<!-- Node8 -->
<g id="node8" class="node">
<title>Node8</title>
<g id="a_node8"><a xlink:title="STL class.">
<polygon fill="white" stroke="#bfbfbf" points="119,-375.5 119,-432.5 215,-432.5 215,-375.5 119,-375.5"/>
<text text-anchor="middle" x="167" y="-420.5" font-family="Helvetica,sans-Serif" font-size="10.00">std::deque&lt; T &gt;</text>
<polyline fill="none" stroke="#bfbfbf" points="119,-413.5 215,-413.5 "/>
<text text-anchor="middle" x="167" y="-401.5" font-family="Helvetica,sans-Serif" font-size="10.00"> </text>
<polyline fill="none" stroke="#bfbfbf" points="119,-394.5 215,-394.5 "/>
<text text-anchor="middle" x="167" y="-382.5" font-family="Helvetica,sans-Serif" font-size="10.00"> </text>
</a>
</g>
</g>
<!-- Node4&#45;&gt;Node8 -->
<g id="edge8" class="edge">
<title>Node4&#45;&gt;Node8</title>
<path fill="none" stroke="#404040" d="M121.52,-513.39C124.38,-507.36 127.34,-500.99 130,-495 137.32,-478.51 144.98,-460.12 151.41,-444.28"/>
<polygon fill="none" stroke="#404040" points="151.57,-443.87 150.11,-436.81 156.06,-432.74 157.53,-439.8 151.57,-443.87"/>
<text text-anchor="middle" x="173" y="-476" font-family="Helvetica,sans-Serif" font-size="10.00"> +elements</text>
</g>
<!-- Node5 -->
<g id="node5" class="node">
<title>Node5</title>
<g id="a_node5"><a xlink:title=" ">
<polygon fill="white" stroke="#bfbfbf" points="128,-204.5 128,-294.5 286,-294.5 286,-204.5 128,-204.5"/>
<text text-anchor="start" x="136" y="-282.5" font-family="Helvetica,sans-Serif" font-size="10.00">std::deque&lt; function</text>
<text text-anchor="start" x="136" y="-271.5" font-family="Helvetica,sans-Serif" font-size="10.00">_ref&lt; tl::expected&lt; Manifold</text>
<text text-anchor="start" x="136" y="-260.5" font-family="Helvetica,sans-Serif" font-size="10.00">Type, std::string_view &gt;</text>
<text text-anchor="middle" x="207" y="-249.5" font-family="Helvetica,sans-Serif" font-size="10.00">(ManifoldType &amp;)&gt; &gt;</text>
<polyline fill="none" stroke="#bfbfbf" points="128,-242.5 286,-242.5 "/>
<text text-anchor="middle" x="207" y="-230.5" font-family="Helvetica,sans-Serif" font-size="10.00"> </text>
<polyline fill="none" stroke="#bfbfbf" points="128,-223.5 286,-223.5 "/>
<text text-anchor="middle" x="207" y="-211.5" font-family="Helvetica,sans-Serif" font-size="10.00"> </text>
</a>
</g>
</g>
<!-- Node5&#45;&gt;Node1 -->
<g id="edge4" class="edge">
<title>Node5&#45;&gt;Node1</title>
<path fill="none" stroke="#404040" d="M187.18,-204.16C182.85,-194.54 178.29,-184.42 174,-175 172.89,-172.57 171.77,-170.11 170.64,-167.62"/>
<polygon fill="none" stroke="#404040" points="170.59,-167.53 164.46,-163.73 165.61,-156.61 171.74,-160.41 170.59,-167.53"/>
<text text-anchor="middle" x="206.5" y="-178" font-family="Helvetica,sans-Serif" font-size="10.00"> &#45;m_moves</text>
</g>
<!-- Node6 -->
<g id="node6" class="node">
<title>Node6</title>
<g id="a_node6"><a xlink:href="classfunction__ref.html" target="_top" xlink:title=" ">
<polygon fill="white" stroke="black" points="311,-364.5 311,-443.5 459,-443.5 459,-364.5 311,-364.5"/>
<text text-anchor="start" x="319" y="-431.5" font-family="Helvetica,sans-Serif" font-size="10.00">function_ref&lt; tl::expected</text>
<text text-anchor="start" x="319" y="-420.5" font-family="Helvetica,sans-Serif" font-size="10.00">&lt; ManifoldType, std::string</text>
<text text-anchor="middle" x="385" y="-409.5" font-family="Helvetica,sans-Serif" font-size="10.00">_view &gt;(ManifoldType &amp;)&gt;</text>
<polyline fill="none" stroke="black" points="311,-402.5 459,-402.5 "/>
<text text-anchor="middle" x="385" y="-390.5" font-family="Helvetica,sans-Serif" font-size="10.00"> </text>
<polyline fill="none" stroke="black" points="311,-383.5 459,-383.5 "/>
<text text-anchor="middle" x="385" y="-371.5" font-family="Helvetica,sans-Serif" font-size="10.00"> </text>
</a>
</g>
</g>
<!-- Node6&#45;&gt;Node5 -->
<g id="edge5" class="edge">
<title>Node6&#45;&gt;Node5</title>
<path fill="none" stroke="#404040" d="M383.43,-364.33C380.89,-346.89 375.23,-327.09 363,-313 345.91,-293.31 321.75,-279.75 297.53,-270.44"/>
<polygon fill="none" stroke="#404040" points="297.35,-270.38 290.35,-272.12 286.05,-266.33 293.05,-264.59 297.35,-270.38"/>
<text text-anchor="middle" x="408" y="-327" font-family="Helvetica,sans-Serif" font-size="10.00"> +elements</text>
</g>
<!-- Node7 -->
<g id="node7" class="node">
<title>Node7</title>
<g id="a_node7"><a xlink:href="classfunction__ref.html" target="_top" xlink:title=" ">
<polygon fill="white" stroke="black" points="330,-513.5 330,-570.5 440,-570.5 440,-513.5 330,-513.5"/>
<text text-anchor="middle" x="385" y="-558.5" font-family="Helvetica,sans-Serif" font-size="10.00">function_ref&lt; Fn &gt;</text>
<polyline fill="none" stroke="black" points="330,-551.5 440,-551.5 "/>
<text text-anchor="middle" x="385" y="-539.5" font-family="Helvetica,sans-Serif" font-size="10.00"> </text>
<polyline fill="none" stroke="black" points="330,-532.5 440,-532.5 "/>
<text text-anchor="middle" x="385" y="-520.5" font-family="Helvetica,sans-Serif" font-size="10.00"> </text>
</a>
</g>
</g>
<!-- Node7&#45;&gt;Node6 -->
<g id="edge6" class="edge">
<title>Node7&#45;&gt;Node6</title>
<path fill="none" stroke="orange" d="M385,-503.3C385,-484.69 385,-462.28 385,-443.56"/>
<polygon fill="orange" stroke="orange" points="381.5,-503.48 385,-513.48 388.5,-503.48 381.5,-503.48"/>
<text text-anchor="start" x="385" y="-487" font-family="Helvetica,sans-Serif" font-size="10.00"> &lt; tl::expected&lt; Manifold</text>
<text text-anchor="start" x="385" y="-476" font-family="Helvetica,sans-Serif" font-size="10.00">Type, std::string_view</text>
<text text-anchor="middle" x="448.5" y="-465" font-family="Helvetica,sans-Serif" font-size="10.00"> &gt;(ManifoldType &amp;)&gt;</text>
</g>
<!-- Node8&#45;&gt;Node5 -->
<g id="edge7" class="edge">
<title>Node8&#45;&gt;Node5</title>
<path fill="none" stroke="orange" d="M162.91,-365C162.3,-348.69 163.14,-329.61 168,-313 169.83,-306.74 172.48,-300.49 175.55,-294.5"/>
<polygon fill="orange" stroke="orange" points="159.43,-365.47 163.49,-375.26 166.42,-365.08 159.43,-365.47"/>
<text text-anchor="start" x="168" y="-338" font-family="Helvetica,sans-Serif" font-size="10.00"> &lt; function_ref&lt; tl</text>
<text text-anchor="start" x="168" y="-327" font-family="Helvetica,sans-Serif" font-size="10.00">::expected&lt; ManifoldType,</text>
<text text-anchor="middle" x="265.5" y="-316" font-family="Helvetica,sans-Serif" font-size="10.00"> std::string_view &gt;(ManifoldType &amp;)&gt; &gt;</text>
</g>
</g>
</svg>
