<?xml version="1.0" encoding="UTF-8" standalone="no"?>
<!DOCTYPE svg PUBLIC "-//W3C//DTD SVG 1.1//EN"
 "http://www.w3.org/Graphics/SVG/1.1/DTD/svg11.dtd">
<!-- Generated by graphviz version 2.43.0 (0)
 -->
<!-- Title: function_ref&lt; Fn &gt; Pages: 1 -->
<svg width="428pt" height="193pt"
 viewBox="0.00 0.00 428.00 193.00" xmlns="http://www.w3.org/2000/svg" xmlns:xlink="http://www.w3.org/1999/xlink">
<g id="graph0" class="graph" transform="scale(1 1) rotate(0) translate(4 189)">
<title>function_ref&lt; Fn &gt;</title>
<polygon fill="white" stroke="transparent" points="-4,4 -4,-189 424,-189 424,4 -4,4"/>
<!-- Node1 -->
<g id="node1" class="node">
<title>Node1</title>
<g id="a_node1"><a xlink:title=" ">
<polygon fill="#bfbfbf" stroke="black" points="116,-127.5 116,-184.5 226,-184.5 226,-127.5 116,-127.5"/>
<text text-anchor="middle" x="171" y="-172.5" font-family="Helvetica,sans-Serif" font-size="10.00">function_ref&lt; Fn &gt;</text>
<polyline fill="none" stroke="black" points="116,-165.5 226,-165.5 "/>
<text text-anchor="middle" x="171" y="-153.5" font-family="Helvetica,sans-Serif" font-size="10.00"> </text>
<polyline fill="none" stroke="black" points="116,-146.5 226,-146.5 "/>
<text text-anchor="middle" x="171" y="-134.5" font-family="Helvetica,sans-Serif" font-size="10.00"> </text>
</a>
</g>
</g>
<!-- Node2 -->
<g id="node2" class="node">
<title>Node2</title>
<g id="a_node2"><a xlink:href="classfunction__ref.html" target="_top" xlink:title=" ">
<polygon fill="white" stroke="black" points="0,-0.5 0,-68.5 166,-68.5 166,-0.5 0,-0.5"/>
<text text-anchor="start" x="8" y="-56.5" font-family="Helvetica,sans-Serif" font-size="10.00">function_ref&lt; Simplicial</text>
<text text-anchor="middle" x="83" y="-45.5" font-family="Helvetica,sans-Serif" font-size="10.00">Manifold(SimplicialManifold)&gt;</text>
<polyline fill="none" stroke="black" points="0,-38.5 166,-38.5 "/>
<text text-anchor="middle" x="83" y="-26.5" font-family="Helvetica,sans-Serif" font-size="10.00"> </text>
<polyline fill="none" stroke="black" points="0,-19.5 166,-19.5 "/>
<text text-anchor="middle" x="83" y="-7.5" font-family="Helvetica,sans-Serif" font-size="10.00"> </text>
</a>
</g>
</g>
<!-- Node1&#45;&gt;Node2 -->
<g id="edge1" class="edge">
<title>Node1&#45;&gt;Node2</title>
<path fill="none" stroke="orange" d="M139.18,-119.36C136.35,-115.91 133.58,-112.42 131,-109 121.35,-96.23 111.54,-81.57 103.33,-68.72"/>
<polygon fill="orange" stroke="orange" points="136.72,-121.88 145.83,-127.29 142.09,-117.38 136.72,-121.88"/>
<text text-anchor="start" x="131" y="-101" font-family="Helvetica,sans-Serif" font-size="10.00"> &lt; SimplicialManifold</text>
<text text-anchor="middle" x="184.5" y="-90" font-family="Helvetica,sans-Serif" font-size="10.00">(SimplicialManifold)&gt;</text>
</g>
<!-- Node3 -->
<g id="node3" class="node">
<title>Node3</title>
<g id="a_node3"><a xlink:href="classfunction__ref.html" target="_top" xlink:title=" ">
<polygon fill="white" stroke="black" points="184,-0.5 184,-68.5 336,-68.5 336,-0.5 184,-0.5"/>
<text text-anchor="start" x="192" y="-56.5" font-family="Helvetica,sans-Serif" font-size="10.00">function_ref&lt; ManifoldType</text>
<text text-anchor="middle" x="260" y="-45.5" font-family="Helvetica,sans-Serif" font-size="10.00">(ManifoldType &amp;)&gt;</text>
<polyline fill="none" stroke="black" points="184,-38.5 336,-38.5 "/>
<text text-anchor="middle" x="260" y="-26.5" font-family="Helvetica,sans-Serif" font-size="10.00"> </text>
<polyline fill="none" stroke="black" points="184,-19.5 336,-19.5 "/>
<text text-anchor="middle" x="260" y="-7.5" font-family="Helvetica,sans-Serif" font-size="10.00"> </text>
</a>
</g>
</g>
<!-- Node1&#45;&gt;Node3 -->
<g id="edge2" class="edge">
<title>Node1&#45;&gt;Node3</title>
<path fill="none" stroke="orange" d="M227.59,-120.74C231.42,-117.08 234.96,-113.17 238,-109 246.55,-97.27 251.81,-82.2 255.03,-68.77"/>
<polygon fill="orange" stroke="orange" points="225.15,-118.22 219.91,-127.43 229.75,-123.49 225.15,-118.22"/>
<text text-anchor="middle" x="334" y="-95.5" font-family="Helvetica,sans-Serif" font-size="10.00"> &lt; ManifoldType(ManifoldType &amp;)&gt;</text>
</g>
</g>
</svg>
