<?xml version="1.0" encoding="UTF-8" standalone="no"?>
<!DOCTYPE svg PUBLIC "-//W3C//DTD SVG 1.1//EN"
 "http://www.w3.org/Graphics/SVG/1.1/DTD/svg11.dtd">
<!-- Generated by graphviz version 2.43.0 (0)
 -->
<!-- Title: MoveStrategy&lt; Strategies::METROPOLIS, ManifoldType &gt; Pages: 1 -->
<svg width="240pt" height="529pt"
 viewBox="0.00 0.00 240.00 529.00" xmlns="http://www.w3.org/2000/svg" xmlns:xlink="http://www.w3.org/1999/xlink">
<g id="graph0" class="graph" transform="scale(1 1) rotate(0) translate(4 525)">
<title>MoveStrategy&lt; Strategies::METROPOLIS, ManifoldType &gt;</title>
<!-- Node1 -->
<g id="node1" class="node">
<title>Node1</title>
<g id="a_node1"><a xlink:title="Metropolis&#45;Hastings algorithm strategy.">
<polygon fill="#999999" stroke="#666666" points="0,-0.5 0,-299.5 168,-299.5 168,-0.5 0,-0.5"/>
<text text-anchor="start" x="8" y="-287.5" font-family="Helvetica,sans-Serif" font-size="10.00">MoveStrategy&lt; Strategies</text>
<text text-anchor="middle" x="84" y="-276.5" font-family="Helvetica,sans-Serif" font-size="10.00">::METROPOLIS, ManifoldType &gt;</text>
<polyline fill="none" stroke="#666666" points="0,-269.5 168,-269.5 "/>
<text text-anchor="start" x="8" y="-257.5" font-family="Helvetica,sans-Serif" font-size="10.00">&#45; m_accepted_moves</text>
<text text-anchor="start" x="8" y="-246.5" font-family="Helvetica,sans-Serif" font-size="10.00">&#45; m_Alpha</text>
<text text-anchor="start" x="8" y="-235.5" font-family="Helvetica,sans-Serif" font-size="10.00">&#45; m_attempted_moves</text>
<text text-anchor="start" x="8" y="-224.5" font-family="Helvetica,sans-Serif" font-size="10.00">&#45; m_checkpoint</text>
<text text-anchor="start" x="8" y="-213.5" font-family="Helvetica,sans-Serif" font-size="10.00">&#45; m_failed_moves</text>
<text text-anchor="start" x="8" y="-202.5" font-family="Helvetica,sans-Serif" font-size="10.00">&#45; m_K</text>
<text text-anchor="start" x="8" y="-191.5" font-family="Helvetica,sans-Serif" font-size="10.00">&#45; m_Lambda</text>
<text text-anchor="start" x="8" y="-180.5" font-family="Helvetica,sans-Serif" font-size="10.00">&#45; m_passes</text>
<text text-anchor="start" x="8" y="-169.5" font-family="Helvetica,sans-Serif" font-size="10.00">&#45; m_proposed_moves</text>
<text text-anchor="start" x="8" y="-158.5" font-family="Helvetica,sans-Serif" font-size="10.00">&#45; m_rejected_moves</text>
<text text-anchor="start" x="8" y="-147.5" font-family="Helvetica,sans-Serif" font-size="10.00">&#45; m_succeeded_moves</text>
<text text-anchor="start" x="8" y="-136.5" font-family="Helvetica,sans-Serif" font-size="10.00">&#45; m_write_files</text>
<polyline fill="none" stroke="#666666" points="0,-129.5 168,-129.5 "/>
<text text-anchor="start" x="8" y="-117.5" font-family="Helvetica,sans-Serif" font-size="10.00">+ MoveStrategy()</text>
<text text-anchor="start" x="8" y="-106.5" font-family="Helvetica,sans-Serif" font-size="10.00">+ MoveStrategy()</text>
<text text-anchor="start" x="8" y="-95.5" font-family="Helvetica,sans-Serif" font-size="10.00">+ Alpha()</text>
<text text-anchor="start" x="8" y="-84.5" font-family="Helvetica,sans-Serif" font-size="10.00">+ CalculateA1()</text>
<text text-anchor="start" x="8" y="-73.5" font-family="Helvetica,sans-Serif" font-size="10.00">+ CalculateA2()</text>
<text text-anchor="start" x="8" y="-62.5" font-family="Helvetica,sans-Serif" font-size="10.00">+ catch()</text>
<text text-anchor="start" x="8" y="-51.5" font-family="Helvetica,sans-Serif" font-size="10.00">+ checkpoint()</text>
<text text-anchor="start" x="8" y="-40.5" font-family="Helvetica,sans-Serif" font-size="10.00">+ get_accepted()</text>
<text text-anchor="start" x="8" y="-29.5" font-family="Helvetica,sans-Serif" font-size="10.00">+ get_attempted()</text>
<text text-anchor="start" x="8" y="-18.5" font-family="Helvetica,sans-Serif" font-size="10.00">+ get_failed()</text>
<text text-anchor="start" x="8" y="-7.5" font-family="Helvetica,sans-Serif" font-size="10.00">and 11 more...</text>
</a>
</g>
</g>
<!-- Node2 -->
<g id="node2" class="node">
<title>Node2</title>
<g id="a_node2"><a xlink:href="struct_geometry.html" target="_top" xlink:title=" ">
<polygon fill="white" stroke="#666666" points="13,-347.5 13,-415.5 155,-415.5 155,-347.5 13,-347.5"/>
<text text-anchor="start" x="21" y="-403.5" font-family="Helvetica,sans-Serif" font-size="10.00">Geometry&lt; ManifoldType</text>
<text text-anchor="middle" x="84" y="-392.5" font-family="Helvetica,sans-Serif" font-size="10.00">::dimension &gt;</text>
<polyline fill="none" stroke="#666666" points="13,-385.5 155,-385.5 "/>
<text text-anchor="middle" x="84" y="-373.5" font-family="Helvetica,sans-Serif" font-size="10.00"> </text>
<polyline fill="none" stroke="#666666" points="13,-366.5 155,-366.5 "/>
<text text-anchor="middle" x="84" y="-354.5" font-family="Helvetica,sans-Serif" font-size="10.00"> </text>
</a>
</g>
</g>
<!-- Node2&#45;&gt;Node1 -->
<g id="edge1" class="edge">
<title>Node2&#45;&gt;Node1</title>
<path fill="none" stroke="#404040" d="M84,-347.13C84,-336.85 84,-324.77 84,-311.75"/>
<polygon fill="none" stroke="#404040" points="84,-311.55 80,-305.55 84,-299.55 88,-305.55 84,-311.55"/>
<text text-anchor="middle" x="119" y="-321" font-family="Helvetica,sans-Serif" font-size="10.00"> &#45;m_geometry</text>
</g>
<!-- Node3 -->
<g id="node3" class="node">
<title>Node3</title>
<g id="a_node3"><a xlink:href="struct_geometry.html" target="_top" xlink:title=" ">
<polygon fill="white" stroke="#666666" points="14.5,-463.5 14.5,-520.5 153.5,-520.5 153.5,-463.5 14.5,-463.5"/>
<text text-anchor="middle" x="84" y="-508.5" font-family="Helvetica,sans-Serif" font-size="10.00">Geometry&lt; dimension &gt;</text>
<polyline fill="none" stroke="#666666" points="14.5,-501.5 153.5,-501.5 "/>
<text text-anchor="middle" x="84" y="-489.5" font-family="Helvetica,sans-Serif" font-size="10.00"> </text>
<polyline fill="none" stroke="#666666" points="14.5,-482.5 153.5,-482.5 "/>
<text text-anchor="middle" x="84" y="-470.5" font-family="Helvetica,sans-Serif" font-size="10.00"> </text>
</a>
</g>
</g>
<!-- Node3&#45;&gt;Node2 -->
<g id="edge2" class="edge">
<title>Node3&#45;&gt;Node2</title>
<path fill="none" stroke="orange" d="M84,-452.99C84,-440.77 84,-427.35 84,-415.52"/>
<polygon fill="orange" stroke="orange" points="80.5,-453.34 84,-463.34 87.5,-453.34 80.5,-453.34"/>
<text text-anchor="middle" x="158" y="-437" font-family="Helvetica,sans-Serif" font-size="10.00"> &lt; ManifoldType::dimension &gt;</text>
</g>
</g>
</svg>
