<?xml version="1.0" encoding="UTF-8" standalone="no"?>
<!DOCTYPE svg PUBLIC "-//W3C//DTD SVG 1.1//EN"
 "http://www.w3.org/Graphics/SVG/1.1/DTD/svg11.dtd">
<!-- Generated by graphviz version 2.43.0 (0)
 -->
<!-- Title: FoliatedTriangulations::FoliatedTriangulation&lt; 3 &gt; Pages: 1 -->
<!--zoomable 700 -->
<svg id="main" version="1.1" xmlns="http://www.w3.org/2000/svg" xmlns:xlink="http://www.w3.org/1999/xlink" xml:space="preserve" onload="init(evt)">
<style type="text/css"><![CDATA[
.edge:hover path { stroke: red; }
.edge:hover polygon { stroke: red; fill: red; }
]]></style>
<script type="text/javascript"><![CDATA[
var edges = document.getElementsByTagName('g');
if (edges && edges.length) {
  for (var i=0;i<edges.length;i++) {
    if (edges[i].id.substr(0,4)=='edge') {
      edges[i].setAttribute('class','edge');
    }
  }
}
]]></script>
        <defs>
                <circle id="rim" cx="0" cy="0" r="7"/>
                <circle id="rim2" cx="0" cy="0" r="3.5"/>
                <g id="zoomPlus">
                        <use xlink:href="#rim" fill="#404040">
                                <set attributeName="fill" to="#808080" begin="zoomplus.mouseover" end="zoomplus.mouseout"/>
                        </use>
                        <path d="M-4,0h8M0,-4v8" fill="none" stroke="white" stroke-width="1.5" pointer-events="none"/>
                </g>
                <g id="zoomMin">
                        <use xlink:href="#rim" fill="#404040">
                                <set attributeName="fill" to="#808080" begin="zoomminus.mouseover" end="zoomminus.mouseout"/>
                        </use>
                        <path d="M-4,0h8" fill="none" stroke="white" stroke-width="1.5" pointer-events="none"/>
                </g>
                <g id="dirArrow">
                        <path fill="none" stroke="white" stroke-width="1.5" d="M0,-3.0v7 M-2.5,-0.5L0,-3.0L2.5,-0.5"/>
                </g>
               <g id="resetDef">
                       <use xlink:href="#rim2" fill="#404040">
                               <set attributeName="fill" to="#808080" begin="reset.mouseover" end="reset.mouseout"/>
                       </use>
               </g>
        </defs>

<script type="text/javascript">
var viewWidth = 763;
var viewHeight = 700;
var sectionId = 'dynsection-0';
</script>
<script xlink:href="svgpan.js"/>
<svg id="graph" class="graph">
<g id="viewport">
<title>FoliatedTriangulations::FoliatedTriangulation&lt; 3 &gt;</title>
<polygon fill="white" stroke="transparent" points="-4,4 -4,-696 758.5,-696 758.5,4 -4,4"/>
<!-- Node1 -->
<g id="node1" class="node">
<title>Node1</title>
<g id="a_node1"><a xlink:title="3D Triangulation">
<polygon fill="#bfbfbf" stroke="black" points="282,-0.5 282,-299.5 435,-299.5 435,-0.5 282,-0.5"/>
<text text-anchor="start" x="290" y="-287.5" font-family="Helvetica,sans-Serif" font-size="10.00">FoliatedTriangulations</text>
<text text-anchor="middle" x="358.5" y="-276.5" font-family="Helvetica,sans-Serif" font-size="10.00">::FoliatedTriangulation&lt; 3 &gt;</text>
<polyline fill="none" stroke="black" points="282,-269.5 435,-269.5 "/>
<text text-anchor="start" x="290" y="-257.5" font-family="Helvetica,sans-Serif" font-size="10.00">&#45; m_foliation_spacing</text>
<text text-anchor="start" x="290" y="-246.5" font-family="Helvetica,sans-Serif" font-size="10.00">&#45; m_initial_radius</text>
<text text-anchor="start" x="290" y="-235.5" font-family="Helvetica,sans-Serif" font-size="10.00">&#45; m_max_timevalue</text>
<text text-anchor="start" x="290" y="-224.5" font-family="Helvetica,sans-Serif" font-size="10.00">&#45; m_min_timevalue</text>
<text text-anchor="start" x="290" y="-213.5" font-family="Helvetica,sans-Serif" font-size="10.00">&#45; m_triangulation</text>
<polyline fill="none" stroke="black" points="282,-206.5 435,-206.5 "/>
<text text-anchor="start" x="290" y="-194.5" font-family="Helvetica,sans-Serif" font-size="10.00">+ FoliatedTriangulation()</text>
<text text-anchor="start" x="290" y="-183.5" font-family="Helvetica,sans-Serif" font-size="10.00">+ FoliatedTriangulation()</text>
<text text-anchor="start" x="290" y="-172.5" font-family="Helvetica,sans-Serif" font-size="10.00">+ FoliatedTriangulation()</text>
<text text-anchor="start" x="290" y="-161.5" font-family="Helvetica,sans-Serif" font-size="10.00">+ FoliatedTriangulation()</text>
<text text-anchor="start" x="290" y="-150.5" font-family="Helvetica,sans-Serif" font-size="10.00">+ FoliatedTriangulation()</text>
<text text-anchor="start" x="290" y="-139.5" font-family="Helvetica,sans-Serif" font-size="10.00">+ FoliatedTriangulation()</text>
<text text-anchor="start" x="290" y="-128.5" font-family="Helvetica,sans-Serif" font-size="10.00">+ ~FoliatedTriangulation()</text>
<text text-anchor="start" x="290" y="-117.5" font-family="Helvetica,sans-Serif" font-size="10.00">+ check_all_cells()</text>
<text text-anchor="start" x="290" y="-106.5" font-family="Helvetica,sans-Serif" font-size="10.00">+ check_all_vertices()</text>
<text text-anchor="start" x="290" y="-95.5" font-family="Helvetica,sans-Serif" font-size="10.00">+ check_vertices()</text>
<text text-anchor="start" x="290" y="-84.5" font-family="Helvetica,sans-Serif" font-size="10.00">and 48 more...</text>
<text text-anchor="start" x="290" y="-73.5" font-family="Helvetica,sans-Serif" font-size="10.00">&#45; classify_cells()</text>
<text text-anchor="start" x="290" y="-62.5" font-family="Helvetica,sans-Serif" font-size="10.00">&#45; collect_cells()</text>
<text text-anchor="start" x="290" y="-51.5" font-family="Helvetica,sans-Serif" font-size="10.00">&#45; collect_edges()</text>
<text text-anchor="start" x="290" y="-40.5" font-family="Helvetica,sans-Serif" font-size="10.00">&#45; collect_faces()</text>
<text text-anchor="start" x="290" y="-29.5" font-family="Helvetica,sans-Serif" font-size="10.00">&#45; collect_vertices()</text>
<text text-anchor="start" x="290" y="-18.5" font-family="Helvetica,sans-Serif" font-size="10.00">&#45; fix_timeslices()</text>
<text text-anchor="start" x="290" y="-7.5" font-family="Helvetica,sans-Serif" font-size="10.00">&#45; make_triangulation()</text>
</a>
</g>
</g>
<!-- Node2 -->
<g id="node2" class="node">
<title>Node2</title>
<g id="a_node2"><a xlink:title=" ">
<polygon fill="white" stroke="#bfbfbf" points="0,-391.5 0,-459.5 111,-459.5 111,-391.5 0,-391.5"/>
<text text-anchor="start" x="8" y="-447.5" font-family="Helvetica,sans-Serif" font-size="10.00">std::vector&lt; Vertex</text>
<text text-anchor="middle" x="55.5" y="-436.5" font-family="Helvetica,sans-Serif" font-size="10.00">_handle_t&lt; 3 &gt; &gt;</text>
<polyline fill="none" stroke="#bfbfbf" points="0,-429.5 111,-429.5 "/>
<text text-anchor="start" x="8" y="-417.5" font-family="Helvetica,sans-Serif" font-size="10.00">+ elements</text>
<polyline fill="none" stroke="#bfbfbf" points="0,-410.5 111,-410.5 "/>
<text text-anchor="middle" x="55.5" y="-398.5" font-family="Helvetica,sans-Serif" font-size="10.00"> </text>
</a>
</g>
</g>
<!-- Node2&#45;&gt;Node1 -->
<g id="edge1" class="edge">
<title>Node2&#45;&gt;Node1</title>
<path fill="none" stroke="#404040" d="M92.35,-391.24C136.9,-351.02 213.32,-282.05 272.87,-228.29"/>
<polygon fill="none" stroke="#404040" points="272.99,-228.18 274.77,-221.19 281.9,-220.14 280.13,-227.13 272.99,-228.18"/>
<text text-anchor="middle" x="197.5" y="-337.5" font-family="Helvetica,sans-Serif" font-size="10.00"> &#45;m_points</text>
</g>
<!-- Node3 -->
<g id="node3" class="node">
<title>Node3</title>
<g id="a_node3"><a xlink:title="STL class.">
<polygon fill="white" stroke="#bfbfbf" points="310,-529.5 310,-586.5 407,-586.5 407,-529.5 310,-529.5"/>
<text text-anchor="middle" x="358.5" y="-574.5" font-family="Helvetica,sans-Serif" font-size="10.00">std::vector&lt; T &gt;</text>
<polyline fill="none" stroke="#bfbfbf" points="310,-567.5 407,-567.5 "/>
<text text-anchor="middle" x="358.5" y="-555.5" font-family="Helvetica,sans-Serif" font-size="10.00"> </text>
<polyline fill="none" stroke="#bfbfbf" points="310,-548.5 407,-548.5 "/>
<text text-anchor="middle" x="358.5" y="-536.5" font-family="Helvetica,sans-Serif" font-size="10.00"> </text>
</a>
</g>
</g>
<!-- Node3&#45;&gt;Node2 -->
<g id="edge2" class="edge">
<title>Node3&#45;&gt;Node2</title>
<path fill="none" stroke="orange" d="M299.59,-551.66C235.76,-544.92 138.94,-531.66 108.5,-511 90.3,-498.65 77.12,-477.76 68.45,-459.84"/>
<polygon fill="orange" stroke="orange" points="299.62,-555.18 309.93,-552.72 300.34,-548.21 299.62,-555.18"/>
<text text-anchor="start" x="108.5" y="-503" font-family="Helvetica,sans-Serif" font-size="10.00"> &lt; Vertex_handle_t&lt;</text>
<text text-anchor="middle" x="159.5" y="-492" font-family="Helvetica,sans-Serif" font-size="10.00"> 3 &gt; &gt;</text>
</g>
<!-- Node7 -->
<g id="node7" class="node">
<title>Node7</title>
<g id="a_node7"><a xlink:title=" ">
<polygon fill="white" stroke="#bfbfbf" points="129.5,-391.5 129.5,-459.5 271.5,-459.5 271.5,-391.5 129.5,-391.5"/>
<text text-anchor="start" x="137.5" y="-447.5" font-family="Helvetica,sans-Serif" font-size="10.00">std::vector&lt; Edge_handle</text>
<text text-anchor="middle" x="200.5" y="-436.5" font-family="Helvetica,sans-Serif" font-size="10.00">_t&lt; 3 &gt; &gt;</text>
<polyline fill="none" stroke="#bfbfbf" points="129.5,-429.5 271.5,-429.5 "/>
<text text-anchor="start" x="137.5" y="-417.5" font-family="Helvetica,sans-Serif" font-size="10.00">+ elements</text>
<polyline fill="none" stroke="#bfbfbf" points="129.5,-410.5 271.5,-410.5 "/>
<text text-anchor="middle" x="200.5" y="-398.5" font-family="Helvetica,sans-Serif" font-size="10.00"> </text>
</a>
</g>
</g>
<!-- Node3&#45;&gt;Node7 -->
<g id="edge8" class="edge">
<title>Node3&#45;&gt;Node7</title>
<path fill="none" stroke="orange" d="M300.14,-548.14C275.2,-541.64 247.51,-530.4 228.5,-511 215.09,-497.31 208.1,-477.06 204.46,-459.81"/>
<polygon fill="orange" stroke="orange" points="299.36,-551.55 309.9,-550.48 301,-544.74 299.36,-551.55"/>
<text text-anchor="middle" x="291.5" y="-497.5" font-family="Helvetica,sans-Serif" font-size="10.00"> &lt; Edge_handle_t&lt; 3 &gt; &gt;</text>
</g>
<!-- Node8 -->
<g id="node8" class="node">
<title>Node8</title>
<g id="a_node8"><a xlink:title=" ">
<polygon fill="white" stroke="#bfbfbf" points="290,-391.5 290,-459.5 427,-459.5 427,-391.5 290,-391.5"/>
<text text-anchor="start" x="298" y="-447.5" font-family="Helvetica,sans-Serif" font-size="10.00">std::vector&lt; Cell_handle</text>
<text text-anchor="middle" x="358.5" y="-436.5" font-family="Helvetica,sans-Serif" font-size="10.00">_t&lt; 3 &gt; &gt;</text>
<polyline fill="none" stroke="#bfbfbf" points="290,-429.5 427,-429.5 "/>
<text text-anchor="start" x="298" y="-417.5" font-family="Helvetica,sans-Serif" font-size="10.00">+ elements</text>
<polyline fill="none" stroke="#bfbfbf" points="290,-410.5 427,-410.5 "/>
<text text-anchor="middle" x="358.5" y="-398.5" font-family="Helvetica,sans-Serif" font-size="10.00"> </text>
</a>
</g>
</g>
<!-- Node3&#45;&gt;Node8 -->
<g id="edge10" class="edge">
<title>Node3&#45;&gt;Node8</title>
<path fill="none" stroke="orange" d="M358.5,-519.3C358.5,-500.45 358.5,-477.86 358.5,-459.68"/>
<polygon fill="orange" stroke="orange" points="355,-519.32 358.5,-529.32 362,-519.32 355,-519.32"/>
<text text-anchor="middle" x="419" y="-497.5" font-family="Helvetica,sans-Serif" font-size="10.00"> &lt; Cell_handle_t&lt; 3 &gt; &gt;</text>
</g>
<!-- Node9 -->
<g id="node9" class="node">
<title>Node9</title>
<g id="a_node9"><a xlink:title=" ">
<polygon fill="white" stroke="#bfbfbf" points="445.5,-391.5 445.5,-459.5 585.5,-459.5 585.5,-391.5 445.5,-391.5"/>
<text text-anchor="start" x="453.5" y="-447.5" font-family="Helvetica,sans-Serif" font-size="10.00">std::vector&lt; Face_handle</text>
<text text-anchor="middle" x="515.5" y="-436.5" font-family="Helvetica,sans-Serif" font-size="10.00">_t&lt; 3 &gt; &gt;</text>
<polyline fill="none" stroke="#bfbfbf" points="445.5,-429.5 585.5,-429.5 "/>
<text text-anchor="start" x="453.5" y="-417.5" font-family="Helvetica,sans-Serif" font-size="10.00">+ elements</text>
<polyline fill="none" stroke="#bfbfbf" points="445.5,-410.5 585.5,-410.5 "/>
<text text-anchor="middle" x="515.5" y="-398.5" font-family="Helvetica,sans-Serif" font-size="10.00"> </text>
</a>
</g>
</g>
<!-- Node3&#45;&gt;Node9 -->
<g id="edge12" class="edge">
<title>Node3&#45;&gt;Node9</title>
<path fill="none" stroke="orange" d="M416.86,-546.53C440.1,-539.79 465.53,-528.8 483.5,-511 497.32,-497.31 505.26,-477.06 509.77,-459.81"/>
<polygon fill="orange" stroke="orange" points="415.81,-543.19 407.07,-549.17 417.63,-549.95 415.81,-543.19"/>
<text text-anchor="middle" x="561.5" y="-497.5" font-family="Helvetica,sans-Serif" font-size="10.00"> &lt; Face_handle_t&lt; 3 &gt; &gt;</text>
</g>
<!-- Node4 -->
<g id="node4" class="node">
<title>Node4</title>
<g id="a_node4"><a xlink:title=" ">
<polygon fill="white" stroke="#bfbfbf" points="408,-634.5 408,-691.5 437,-691.5 437,-634.5 408,-634.5"/>
<text text-anchor="middle" x="422.5" y="-679.5" font-family="Helvetica,sans-Serif" font-size="10.00">T</text>
<polyline fill="none" stroke="#bfbfbf" points="408,-672.5 437,-672.5 "/>
<text text-anchor="middle" x="422.5" y="-660.5" font-family="Helvetica,sans-Serif" font-size="10.00"> </text>
<polyline fill="none" stroke="#bfbfbf" points="408,-653.5 437,-653.5 "/>
<text text-anchor="middle" x="422.5" y="-641.5" font-family="Helvetica,sans-Serif" font-size="10.00"> </text>
</a>
</g>
</g>
<!-- Node4&#45;&gt;Node3 -->
<g id="edge3" class="edge">
<title>Node4&#45;&gt;Node3</title>
<path fill="none" stroke="#404040" d="M407.98,-638.63C400.34,-626.33 390.78,-610.95 382.1,-596.99"/>
<polygon fill="none" stroke="#404040" points="382.02,-596.86 375.46,-593.87 375.69,-586.67 382.25,-589.65 382.02,-596.86"/>
<text text-anchor="middle" x="421.5" y="-608" font-family="Helvetica,sans-Serif" font-size="10.00"> +elements</text>
</g>
<!-- Node6 -->
<g id="node6" class="node">
<title>Node6</title>
<g id="a_node6"><a xlink:title="STL class.">
<polygon fill="white" stroke="#bfbfbf" points="505.5,-529.5 505.5,-586.5 631.5,-586.5 631.5,-529.5 505.5,-529.5"/>
<text text-anchor="middle" x="568.5" y="-574.5" font-family="Helvetica,sans-Serif" font-size="10.00">std::multimap&lt; K, T &gt;</text>
<polyline fill="none" stroke="#bfbfbf" points="505.5,-567.5 631.5,-567.5 "/>
<text text-anchor="start" x="513.5" y="-555.5" font-family="Helvetica,sans-Serif" font-size="10.00">+ keys</text>
<polyline fill="none" stroke="#bfbfbf" points="505.5,-548.5 631.5,-548.5 "/>
<text text-anchor="middle" x="568.5" y="-536.5" font-family="Helvetica,sans-Serif" font-size="10.00"> </text>
</a>
</g>
</g>
<!-- Node4&#45;&gt;Node6 -->
<g id="edge6" class="edge">
<title>Node4&#45;&gt;Node6</title>
<path fill="none" stroke="#404040" d="M437.03,-651.75C456.13,-638.27 490.64,-613.93 519.5,-593.57"/>
<polygon fill="none" stroke="#404040" points="519.64,-593.47 522.24,-586.74 529.45,-586.55 526.85,-593.28 519.64,-593.47"/>
<text text-anchor="middle" x="529.5" y="-608" font-family="Helvetica,sans-Serif" font-size="10.00"> +elements</text>
</g>
<!-- Node5 -->
<g id="node5" class="node">
<title>Node5</title>
<g id="a_node5"><a xlink:title=" ">
<polygon fill="white" stroke="#bfbfbf" points="604,-380.5 604,-470.5 713,-470.5 713,-380.5 604,-380.5"/>
<text text-anchor="start" x="612" y="-458.5" font-family="Helvetica,sans-Serif" font-size="10.00">std::multimap&lt; Int</text>
<text text-anchor="start" x="612" y="-447.5" font-family="Helvetica,sans-Serif" font-size="10.00">_precision, Facet_t</text>
<text text-anchor="middle" x="658.5" y="-436.5" font-family="Helvetica,sans-Serif" font-size="10.00">&lt; 3 &gt; &gt;</text>
<polyline fill="none" stroke="#bfbfbf" points="604,-429.5 713,-429.5 "/>
<text text-anchor="start" x="612" y="-417.5" font-family="Helvetica,sans-Serif" font-size="10.00">+ elements</text>
<text text-anchor="start" x="612" y="-406.5" font-family="Helvetica,sans-Serif" font-size="10.00">+ keys</text>
<polyline fill="none" stroke="#bfbfbf" points="604,-399.5 713,-399.5 "/>
<text text-anchor="middle" x="658.5" y="-387.5" font-family="Helvetica,sans-Serif" font-size="10.00"> </text>
</a>
</g>
</g>
<!-- Node5&#45;&gt;Node1 -->
<g id="edge4" class="edge">
<title>Node5&#45;&gt;Node1</title>
<path fill="none" stroke="#404040" d="M609.97,-380.25C565.29,-339.52 498,-278.18 444.27,-229.19"/>
<polygon fill="none" stroke="#404040" points="443.96,-228.91 436.83,-227.82 435.09,-220.82 442.22,-221.91 443.96,-228.91"/>
<text text-anchor="middle" x="638" y="-337.5" font-family="Helvetica,sans-Serif" font-size="10.00"> &#45;m_spacelike_facets</text>
</g>
<!-- Node6&#45;&gt;Node5 -->
<g id="edge5" class="edge">
<title>Node6&#45;&gt;Node5</title>
<path fill="none" stroke="orange" d="M623.7,-522.33C627.31,-518.79 630.63,-515 633.5,-511 641.96,-499.18 647.58,-484.5 651.31,-470.7"/>
<polygon fill="orange" stroke="orange" points="621.08,-519.98 615.97,-529.26 625.75,-525.19 621.08,-519.98"/>
<text text-anchor="start" x="645.5" y="-503" font-family="Helvetica,sans-Serif" font-size="10.00"> &lt; Int_precision, Facet</text>
<text text-anchor="middle" x="700" y="-492" font-family="Helvetica,sans-Serif" font-size="10.00">_t&lt; 3 &gt; &gt;</text>
</g>
<!-- Node7&#45;&gt;Node1 -->
<g id="edge7" class="edge">
<title>Node7&#45;&gt;Node1</title>
<path fill="none" stroke="#404040" d="M216.31,-391.48C226.71,-370.25 240.86,-342.2 254.5,-318 261.25,-306.03 268.44,-293.69 275.78,-281.41"/>
<polygon fill="none" stroke="#404040" points="275.78,-281.39 275.45,-274.19 281.96,-271.11 282.3,-278.31 275.78,-281.39"/>
<text text-anchor="middle" x="304.5" y="-348.5" font-family="Helvetica,sans-Serif" font-size="10.00"> &#45;m_edges</text>
<text text-anchor="middle" x="304.5" y="-337.5" font-family="Helvetica,sans-Serif" font-size="10.00">&#45;m_timelike_edges</text>
<text text-anchor="middle" x="304.5" y="-326.5" font-family="Helvetica,sans-Serif" font-size="10.00">&#45;m_spacelike_edges</text>
</g>
<!-- Node8&#45;&gt;Node1 -->
<g id="edge9" class="edge">
<title>Node8&#45;&gt;Node1</title>
<path fill="none" stroke="#404040" d="M358.5,-391.24C358.5,-370.44 358.5,-341.95 358.5,-311.85"/>
<polygon fill="none" stroke="#404040" points="358.5,-311.79 354.5,-305.79 358.5,-299.79 362.5,-305.79 358.5,-311.79"/>
<text text-anchor="middle" x="392.5" y="-354" font-family="Helvetica,sans-Serif" font-size="10.00"> &#45;m_cells</text>
<text text-anchor="middle" x="392.5" y="-343" font-family="Helvetica,sans-Serif" font-size="10.00">&#45;m_one_three</text>
<text text-anchor="middle" x="392.5" y="-332" font-family="Helvetica,sans-Serif" font-size="10.00">&#45;m_three_one</text>
<text text-anchor="middle" x="392.5" y="-321" font-family="Helvetica,sans-Serif" font-size="10.00">&#45;m_two_two</text>
</g>
<!-- Node9&#45;&gt;Node1 -->
<g id="edge11" class="edge">
<title>Node9&#45;&gt;Node1</title>
<path fill="none" stroke="#404040" d="M496.41,-391.24C482.27,-366.62 461.96,-331.22 441.24,-295.14"/>
<polygon fill="none" stroke="#404040" points="441.08,-294.85 434.62,-291.64 435.1,-284.45 441.56,-287.66 441.08,-294.85"/>
<text text-anchor="middle" x="503" y="-337.5" font-family="Helvetica,sans-Serif" font-size="10.00"> &#45;m_faces</text>
</g>
</g>
</svg>
        <g id="navigator" transform="translate(0 0)" fill="#404254">
                <rect fill="#f2f5e9" fill-opacity="0.5" stroke="#606060" stroke-width=".5" x="0" y="0" width="60" height="60"/>
                <use id="zoomplus" xlink:href="#zoomPlus" x="17" y="9" onmousedown="handleZoom(evt,'in')"/>
                <use id="zoomminus" xlink:href="#zoomMin" x="42" y="9" onmousedown="handleZoom(evt,'out')"/>
                <use id="reset" xlink:href="#resetDef" x="30" y="36" onmousedown="handleReset()"/>
                <g id="arrowUp" xlink:href="#dirArrow" transform="translate(30 24)" onmousedown="handlePan(0,-1)">
                  <use xlink:href="#rim" fill="#404040">
                        <set attributeName="fill" to="#808080" begin="arrowUp.mouseover" end="arrowUp.mouseout"/>
                  </use>
                  <path fill="none" stroke="white" stroke-width="1.5" d="M0,-3.0v7 M-2.5,-0.5L0,-3.0L2.5,-0.5"/>
                </g>
                <g id="arrowRight" xlink:href="#dirArrow" transform="rotate(90) translate(36 -43)" onmousedown="handlePan(1,0)">
                  <use xlink:href="#rim" fill="#404040">
                        <set attributeName="fill" to="#808080" begin="arrowRight.mouseover" end="arrowRight.mouseout"/>
                  </use>
                  <path fill="none" stroke="white" stroke-width="1.5" d="M0,-3.0v7 M-2.5,-0.5L0,-3.0L2.5,-0.5"/>
                </g>
                <g id="arrowDown" xlink:href="#dirArrow" transform="rotate(180) translate(-30 -48)" onmousedown="handlePan(0,1)">
                  <use xlink:href="#rim" fill="#404040">
                        <set attributeName="fill" to="#808080" begin="arrowDown.mouseover" end="arrowDown.mouseout"/>
                  </use>
                  <path fill="none" stroke="white" stroke-width="1.5" d="M0,-3.0v7 M-2.5,-0.5L0,-3.0L2.5,-0.5"/>
                </g>
                <g id="arrowLeft" xlink:href="#dirArrow" transform="rotate(270) translate(-36 17)" onmousedown="handlePan(-1,0)">
                  <use xlink:href="#rim" fill="#404040">
                        <set attributeName="fill" to="#808080" begin="arrowLeft.mouseover" end="arrowLeft.mouseout"/>
                  </use>
                  <path fill="none" stroke="white" stroke-width="1.5" d="M0,-3.0v7 M-2.5,-0.5L0,-3.0L2.5,-0.5"/>
                </g>
        </g>
        <svg viewBox="0 0 15 15" width="100%" height="30px" preserveAspectRatio="xMaxYMin meet">
         <g id="arrow_out" transform="scale(0.3 0.3)">
          <a xlink:href="class_foliated_triangulations_1_1_foliated_triangulation_3_013_01_4__coll__graph_org.svg" target="_base">
           <rect id="button" ry="5" rx="5" y="6" x="6" height="38" width="38"
                fill="#f2f5e9" fill-opacity="0.5" stroke="#606060" stroke-width="1.0"/>
           <path id="arrow"
             d="M 11.500037,31.436501 C 11.940474,20.09759 22.043105,11.32322 32.158766,21.979434 L 37.068811,17.246167 C 37.068811,17.246167 37.088388,32 37.088388,32 L 22.160133,31.978069 C 22.160133,31.978069 26.997745,27.140456 26.997745,27.140456 C 18.528582,18.264221 13.291696,25.230495 11.500037,31.436501 z"
             style="fill:#404040;"/>
          </a>
         </g>
        </svg>
</svg>
