<?xml version="1.0" encoding="UTF-8" standalone="no"?>
<!DOCTYPE svg PUBLIC "-//W3C//DTD SVG 1.1//EN"
 "http://www.w3.org/Graphics/SVG/1.1/DTD/svg11.dtd">
<!-- Generated by graphviz version 2.43.0 (0)
 -->
<!-- Title: manifolds::Manifold&lt; 3 &gt; Pages: 1 -->
<!--zoomable 915 -->
<svg id="main" version="1.1" xmlns="http://www.w3.org/2000/svg" xmlns:xlink="http://www.w3.org/1999/xlink" xml:space="preserve" onload="init(evt)">
<style type="text/css"><![CDATA[
.edge:hover path { stroke: red; }
.edge:hover polygon { stroke: red; fill: red; }
]]></style>
<script type="text/javascript"><![CDATA[
var edges = document.getElementsByTagName('g');
if (edges && edges.length) {
  for (var i=0;i<edges.length;i++) {
    if (edges[i].id.substr(0,4)=='edge') {
      edges[i].setAttribute('class','edge');
    }
  }
}
]]></script>
        <defs>
                <circle id="rim" cx="0" cy="0" r="7"/>
                <circle id="rim2" cx="0" cy="0" r="3.5"/>
                <g id="zoomPlus">
                        <use xlink:href="#rim" fill="#404040">
                                <set attributeName="fill" to="#808080" begin="zoomplus.mouseover" end="zoomplus.mouseout"/>
                        </use>
                        <path d="M-4,0h8M0,-4v8" fill="none" stroke="white" stroke-width="1.5" pointer-events="none"/>
                </g>
                <g id="zoomMin">
                        <use xlink:href="#rim" fill="#404040">
                                <set attributeName="fill" to="#808080" begin="zoomminus.mouseover" end="zoomminus.mouseout"/>
                        </use>
                        <path d="M-4,0h8" fill="none" stroke="white" stroke-width="1.5" pointer-events="none"/>
                </g>
                <g id="dirArrow">
                        <path fill="none" stroke="white" stroke-width="1.5" d="M0,-3.0v7 M-2.5,-0.5L0,-3.0L2.5,-0.5"/>
                </g>
               <g id="resetDef">
                       <use xlink:href="#rim2" fill="#404040">
                               <set attributeName="fill" to="#808080" begin="reset.mouseover" end="reset.mouseout"/>
                       </use>
               </g>
        </defs>

<script type="text/javascript">
var viewWidth = 773;
var viewHeight = 915;
var sectionId = 'dynsection-0';
</script>
<script xlink:href="svgpan.js"/>
<svg id="graph" class="graph">
<g id="viewport">
<title>manifolds::Manifold&lt; 3 &gt;</title>
<!-- Node1 -->
<g id="node1" class="node">
<title>Node1</title>
<g id="a_node1"><a xlink:title="3D Manifold">
<polygon fill="#999999" stroke="#666666" points="365,-0.5 365,-200.5 508,-200.5 508,-0.5 365,-0.5"/>
<text text-anchor="middle" x="436.5" y="-188.5" font-family="Helvetica,sans-Serif" font-size="10.00">manifolds::Manifold&lt; 3 &gt;</text>
<polyline fill="none" stroke="#666666" points="365,-181.5 508,-181.5 "/>
<text text-anchor="start" x="373" y="-169.5" font-family="Helvetica,sans-Serif" font-size="10.00">+ dimension</text>
<text text-anchor="start" x="373" y="-158.5" font-family="Helvetica,sans-Serif" font-size="10.00">+ topology</text>
<polyline fill="none" stroke="#666666" points="365,-151.5 508,-151.5 "/>
<text text-anchor="start" x="373" y="-139.5" font-family="Helvetica,sans-Serif" font-size="10.00">+ Manifold()</text>
<text text-anchor="start" x="373" y="-128.5" font-family="Helvetica,sans-Serif" font-size="10.00">+ Manifold()</text>
<text text-anchor="start" x="373" y="-117.5" font-family="Helvetica,sans-Serif" font-size="10.00">+ Manifold()</text>
<text text-anchor="start" x="373" y="-106.5" font-family="Helvetica,sans-Serif" font-size="10.00">+ Manifold()</text>
<text text-anchor="start" x="373" y="-95.5" font-family="Helvetica,sans-Serif" font-size="10.00">+ Manifold()</text>
<text text-anchor="start" x="373" y="-84.5" font-family="Helvetica,sans-Serif" font-size="10.00">+ Manifold()</text>
<text text-anchor="start" x="373" y="-73.5" font-family="Helvetica,sans-Serif" font-size="10.00">+ ~Manifold()</text>
<text text-anchor="start" x="373" y="-62.5" font-family="Helvetica,sans-Serif" font-size="10.00">+ check_simplices()</text>
<text text-anchor="start" x="373" y="-51.5" font-family="Helvetica,sans-Serif" font-size="10.00">+ degree()</text>
<text text-anchor="start" x="373" y="-40.5" font-family="Helvetica,sans-Serif" font-size="10.00">+ dimensionality()</text>
<text text-anchor="start" x="373" y="-29.5" font-family="Helvetica,sans-Serif" font-size="10.00">and 44 more...</text>
<text text-anchor="start" x="373" y="-18.5" font-family="Helvetica,sans-Serif" font-size="10.00">&#45; update_geometry()</text>
<text text-anchor="start" x="373" y="-7.5" font-family="Helvetica,sans-Serif" font-size="10.00">&#45; update_triangulation()</text>
</a>
</g>
</g>
<!-- Node2 -->
<g id="node2" class="node">
<title>Node2</title>
<g id="a_node2"><a xlink:href="classfoliated__triangulations_1_1_foliated_triangulation_3_013_01_4.html" target="_top" xlink:title="3D Foliated triangulation">
<polygon fill="white" stroke="#666666" points="289,-248.5 289,-514.5 442,-514.5 442,-248.5 289,-248.5"/>
<text text-anchor="start" x="297" y="-502.5" font-family="Helvetica,sans-Serif" font-size="10.00">foliated_triangulations</text>
<text text-anchor="middle" x="365.5" y="-491.5" font-family="Helvetica,sans-Serif" font-size="10.00">::FoliatedTriangulation&lt; 3 &gt;</text>
<polyline fill="none" stroke="#666666" points="289,-484.5 442,-484.5 "/>
<text text-anchor="start" x="297" y="-472.5" font-family="Helvetica,sans-Serif" font-size="10.00">&#45; m_foliation_spacing</text>
<text text-anchor="start" x="297" y="-461.5" font-family="Helvetica,sans-Serif" font-size="10.00">&#45; m_initial_radius</text>
<text text-anchor="start" x="297" y="-450.5" font-family="Helvetica,sans-Serif" font-size="10.00">&#45; m_max_timevalue</text>
<text text-anchor="start" x="297" y="-439.5" font-family="Helvetica,sans-Serif" font-size="10.00">&#45; m_min_timevalue</text>
<text text-anchor="start" x="297" y="-428.5" font-family="Helvetica,sans-Serif" font-size="10.00">&#45; m_triangulation</text>
<polyline fill="none" stroke="#666666" points="289,-421.5 442,-421.5 "/>
<text text-anchor="start" x="297" y="-409.5" font-family="Helvetica,sans-Serif" font-size="10.00">+ FoliatedTriangulation()</text>
<text text-anchor="start" x="297" y="-398.5" font-family="Helvetica,sans-Serif" font-size="10.00">+ FoliatedTriangulation()</text>
<text text-anchor="start" x="297" y="-387.5" font-family="Helvetica,sans-Serif" font-size="10.00">+ FoliatedTriangulation()</text>
<text text-anchor="start" x="297" y="-376.5" font-family="Helvetica,sans-Serif" font-size="10.00">+ FoliatedTriangulation()</text>
<text text-anchor="start" x="297" y="-365.5" font-family="Helvetica,sans-Serif" font-size="10.00">+ FoliatedTriangulation()</text>
<text text-anchor="start" x="297" y="-354.5" font-family="Helvetica,sans-Serif" font-size="10.00">+ FoliatedTriangulation()</text>
<text text-anchor="start" x="297" y="-343.5" font-family="Helvetica,sans-Serif" font-size="10.00">+ ~FoliatedTriangulation()</text>
<text text-anchor="start" x="297" y="-332.5" font-family="Helvetica,sans-Serif" font-size="10.00">+ check_all_cells()</text>
<text text-anchor="start" x="297" y="-321.5" font-family="Helvetica,sans-Serif" font-size="10.00">+ check_all_vertices()</text>
<text text-anchor="start" x="297" y="-310.5" font-family="Helvetica,sans-Serif" font-size="10.00">+ degree()</text>
<text text-anchor="start" x="297" y="-299.5" font-family="Helvetica,sans-Serif" font-size="10.00">and 45 more...</text>
<text text-anchor="start" x="297" y="-288.5" font-family="Helvetica,sans-Serif" font-size="10.00">&#45; classify_cells()</text>
<text text-anchor="start" x="297" y="-277.5" font-family="Helvetica,sans-Serif" font-size="10.00">&#45; classify_vertices()</text>
<text text-anchor="start" x="297" y="-266.5" font-family="Helvetica,sans-Serif" font-size="10.00">&#45; collect_edges()</text>
<text text-anchor="start" x="297" y="-255.5" font-family="Helvetica,sans-Serif" font-size="10.00">&#45; collect_faces()</text>
</a>
</g>
</g>
<!-- Node2&#45;&gt;Node1 -->
<g id="edge1" class="edge">
<title>Node2&#45;&gt;Node1</title>
<path fill="none" stroke="#404040" d="M393.25,-248.08C395.61,-238.22 398.04,-228.44 400.5,-219 401.06,-216.85 401.64,-214.68 402.22,-212.49"/>
<polygon fill="none" stroke="#404040" points="402.29,-212.27 400.02,-205.42 405.47,-200.7 407.73,-207.54 402.29,-212.27"/>
<text text-anchor="middle" x="443" y="-222" font-family="Helvetica,sans-Serif" font-size="10.00"> &#45;m_triangulation</text>
</g>
<!-- Node3 -->
<g id="node3" class="node">
<title>Node3</title>
<g id="a_node3"><a xlink:title=" ">
<polygon fill="white" stroke="#666666" points="0,-606.5 0,-674.5 111,-674.5 111,-606.5 0,-606.5"/>
<text text-anchor="start" x="8" y="-662.5" font-family="Helvetica,sans-Serif" font-size="10.00">std::vector&lt; Vertex</text>
<text text-anchor="middle" x="55.5" y="-651.5" font-family="Helvetica,sans-Serif" font-size="10.00">_handle &gt;</text>
<polyline fill="none" stroke="#666666" points="0,-644.5 111,-644.5 "/>
<text text-anchor="start" x="8" y="-632.5" font-family="Helvetica,sans-Serif" font-size="10.00">+ elements</text>
<polyline fill="none" stroke="#666666" points="0,-625.5 111,-625.5 "/>
<text text-anchor="middle" x="55.5" y="-613.5" font-family="Helvetica,sans-Serif" font-size="10.00"> </text>
</a>
</g>
</g>
<!-- Node3&#45;&gt;Node2 -->
<g id="edge2" class="edge">
<title>Node3&#45;&gt;Node2</title>
<path fill="none" stroke="#404040" d="M94.89,-606.3C119.93,-585.24 153.06,-557.45 182.5,-533 214.05,-506.8 248.77,-478.19 279.42,-453.01"/>
<polygon fill="none" stroke="#404040" points="279.52,-452.93 281.62,-446.03 288.79,-445.31 286.69,-452.21 279.52,-452.93"/>
<text text-anchor="middle" x="213" y="-552.5" font-family="Helvetica,sans-Serif" font-size="10.00"> &#45;m_vertices</text>
</g>
<!-- Node4 -->
<g id="node4" class="node">
<title>Node4</title>
<g id="a_node4"><a xlink:title=" ">
<polygon fill="white" stroke="#666666" points="317,-744.5 317,-801.5 414,-801.5 414,-744.5 317,-744.5"/>
<text text-anchor="middle" x="365.5" y="-789.5" font-family="Helvetica,sans-Serif" font-size="10.00">std::vector&lt; T &gt;</text>
<polyline fill="none" stroke="#666666" points="317,-782.5 414,-782.5 "/>
<text text-anchor="middle" x="365.5" y="-770.5" font-family="Helvetica,sans-Serif" font-size="10.00"> </text>
<polyline fill="none" stroke="#666666" points="317,-763.5 414,-763.5 "/>
<text text-anchor="middle" x="365.5" y="-751.5" font-family="Helvetica,sans-Serif" font-size="10.00"> </text>
</a>
</g>
</g>
<!-- Node4&#45;&gt;Node3 -->
<g id="edge3" class="edge">
<title>Node4&#45;&gt;Node3</title>
<path fill="none" stroke="orange" d="M306.77,-766.67C263.45,-760.97 204.04,-749.36 156.5,-726 130.65,-713.3 105.77,-692.63 87.18,-674.91"/>
<polygon fill="orange" stroke="orange" points="306.5,-770.16 316.86,-767.93 307.37,-763.21 306.5,-770.16"/>
<text text-anchor="middle" x="204.5" y="-712.5" font-family="Helvetica,sans-Serif" font-size="10.00"> &lt; Vertex_handle &gt;</text>
</g>
<!-- Node6 -->
<g id="node6" class="node">
<title>Node6</title>
<g id="a_node6"><a xlink:title=" ">
<polygon fill="white" stroke="#666666" points="129.5,-612 129.5,-669 277.5,-669 277.5,-612 129.5,-612"/>
<text text-anchor="middle" x="203.5" y="-657" font-family="Helvetica,sans-Serif" font-size="10.00">std::vector&lt; Cell_handle &gt;</text>
<polyline fill="none" stroke="#666666" points="129.5,-650 277.5,-650 "/>
<text text-anchor="start" x="137.5" y="-638" font-family="Helvetica,sans-Serif" font-size="10.00">+ elements</text>
<polyline fill="none" stroke="#666666" points="129.5,-631 277.5,-631 "/>
<text text-anchor="middle" x="203.5" y="-619" font-family="Helvetica,sans-Serif" font-size="10.00"> </text>
</a>
</g>
</g>
<!-- Node4&#45;&gt;Node6 -->
<g id="edge6" class="edge">
<title>Node4&#45;&gt;Node6</title>
<path fill="none" stroke="orange" d="M307.76,-745.24C297.61,-739.49 287.44,-733.02 278.5,-726 257.67,-709.65 237.95,-687.04 223.97,-669.33"/>
<polygon fill="orange" stroke="orange" points="306.19,-748.37 316.65,-750.09 309.55,-742.23 306.19,-748.37"/>
<text text-anchor="middle" x="320" y="-712.5" font-family="Helvetica,sans-Serif" font-size="10.00"> &lt; Cell_handle &gt;</text>
</g>
<!-- Node7 -->
<g id="node7" class="node">
<title>Node7</title>
<g id="a_node7"><a xlink:title=" ">
<polygon fill="white" stroke="#666666" points="295.5,-606.5 295.5,-674.5 435.5,-674.5 435.5,-606.5 295.5,-606.5"/>
<text text-anchor="start" x="303.5" y="-662.5" font-family="Helvetica,sans-Serif" font-size="10.00">std::vector&lt; Face_handle</text>
<text text-anchor="middle" x="365.5" y="-651.5" font-family="Helvetica,sans-Serif" font-size="10.00">_t&lt; 3 &gt; &gt;</text>
<polyline fill="none" stroke="#666666" points="295.5,-644.5 435.5,-644.5 "/>
<text text-anchor="start" x="303.5" y="-632.5" font-family="Helvetica,sans-Serif" font-size="10.00">+ elements</text>
<polyline fill="none" stroke="#666666" points="295.5,-625.5 435.5,-625.5 "/>
<text text-anchor="middle" x="365.5" y="-613.5" font-family="Helvetica,sans-Serif" font-size="10.00"> </text>
</a>
</g>
</g>
<!-- Node4&#45;&gt;Node7 -->
<g id="edge8" class="edge">
<title>Node4&#45;&gt;Node7</title>
<path fill="none" stroke="orange" d="M365.5,-734.3C365.5,-715.45 365.5,-692.86 365.5,-674.68"/>
<polygon fill="orange" stroke="orange" points="362,-734.32 365.5,-744.32 369,-734.32 362,-734.32"/>
<text text-anchor="middle" x="427.5" y="-712.5" font-family="Helvetica,sans-Serif" font-size="10.00"> &lt; Face_handle_t&lt; 3 &gt; &gt;</text>
</g>
<!-- Node10 -->
<g id="node10" class="node">
<title>Node10</title>
<g id="a_node10"><a xlink:title=" ">
<polygon fill="white" stroke="#666666" points="453.5,-606.5 453.5,-674.5 595.5,-674.5 595.5,-606.5 453.5,-606.5"/>
<text text-anchor="start" x="461.5" y="-662.5" font-family="Helvetica,sans-Serif" font-size="10.00">std::vector&lt; Edge_handle</text>
<text text-anchor="middle" x="524.5" y="-651.5" font-family="Helvetica,sans-Serif" font-size="10.00">_t&lt; 3 &gt; &gt;</text>
<polyline fill="none" stroke="#666666" points="453.5,-644.5 595.5,-644.5 "/>
<text text-anchor="start" x="461.5" y="-632.5" font-family="Helvetica,sans-Serif" font-size="10.00">+ elements</text>
<polyline fill="none" stroke="#666666" points="453.5,-625.5 595.5,-625.5 "/>
<text text-anchor="middle" x="524.5" y="-613.5" font-family="Helvetica,sans-Serif" font-size="10.00"> </text>
</a>
</g>
</g>
<!-- Node4&#45;&gt;Node10 -->
<g id="edge13" class="edge">
<title>Node4&#45;&gt;Node10</title>
<path fill="none" stroke="orange" d="M423.87,-762.34C448.07,-755.7 474.8,-744.58 493.5,-726 507.25,-712.34 514.95,-692.09 519.24,-674.84"/>
<polygon fill="orange" stroke="orange" points="422.87,-758.98 414.04,-764.83 424.6,-765.76 422.87,-758.98"/>
<text text-anchor="middle" x="571.5" y="-712.5" font-family="Helvetica,sans-Serif" font-size="10.00"> &lt; Edge_handle_t&lt; 3 &gt; &gt;</text>
</g>
<!-- Node5 -->
<g id="node5" class="node">
<title>Node5</title>
<g id="a_node5"><a xlink:title=" ">
<polygon fill="white" stroke="#bfbfbf" points="415,-849.5 415,-906.5 444,-906.5 444,-849.5 415,-849.5"/>
<text text-anchor="middle" x="429.5" y="-894.5" font-family="Helvetica,sans-Serif" font-size="10.00">T</text>
<polyline fill="none" stroke="#bfbfbf" points="415,-887.5 444,-887.5 "/>
<text text-anchor="middle" x="429.5" y="-875.5" font-family="Helvetica,sans-Serif" font-size="10.00"> </text>
<polyline fill="none" stroke="#bfbfbf" points="415,-868.5 444,-868.5 "/>
<text text-anchor="middle" x="429.5" y="-856.5" font-family="Helvetica,sans-Serif" font-size="10.00"> </text>
</a>
</g>
</g>
<!-- Node5&#45;&gt;Node4 -->
<g id="edge4" class="edge">
<title>Node5&#45;&gt;Node4</title>
<path fill="none" stroke="#404040" d="M414.98,-853.63C407.34,-841.33 397.78,-825.95 389.1,-811.99"/>
<polygon fill="none" stroke="#404040" points="389.02,-811.86 382.46,-808.87 382.69,-801.67 389.25,-804.65 389.02,-811.86"/>
<text text-anchor="middle" x="427.5" y="-823" font-family="Helvetica,sans-Serif" font-size="10.00"> +elements</text>
</g>
<!-- Node9 -->
<g id="node9" class="node">
<title>Node9</title>
<g id="a_node9"><a xlink:title=" ">
<polygon fill="white" stroke="#666666" points="515.5,-744.5 515.5,-801.5 641.5,-801.5 641.5,-744.5 515.5,-744.5"/>
<text text-anchor="middle" x="578.5" y="-789.5" font-family="Helvetica,sans-Serif" font-size="10.00">std::multimap&lt; K, T &gt;</text>
<polyline fill="none" stroke="#666666" points="515.5,-782.5 641.5,-782.5 "/>
<text text-anchor="start" x="523.5" y="-770.5" font-family="Helvetica,sans-Serif" font-size="10.00">+ keys</text>
<polyline fill="none" stroke="#666666" points="515.5,-763.5 641.5,-763.5 "/>
<text text-anchor="middle" x="578.5" y="-751.5" font-family="Helvetica,sans-Serif" font-size="10.00"> </text>
</a>
</g>
</g>
<!-- Node5&#45;&gt;Node9 -->
<g id="edge11" class="edge">
<title>Node5&#45;&gt;Node9</title>
<path fill="none" stroke="#404040" d="M444.06,-866.94C463.45,-853.53 498.74,-829.14 528.3,-808.7"/>
<polygon fill="none" stroke="#404040" points="528.61,-808.49 531.27,-801.79 538.48,-801.67 535.82,-808.37 528.61,-808.49"/>
<text text-anchor="middle" x="536.5" y="-823" font-family="Helvetica,sans-Serif" font-size="10.00"> +elements</text>
</g>
<!-- Node6&#45;&gt;Node2 -->
<g id="edge5" class="edge">
<title>Node6&#45;&gt;Node2</title>
<path fill="none" stroke="#404040" d="M220.84,-612C235.95,-588.03 259.04,-551.4 282.36,-514.39"/>
<polygon fill="none" stroke="#404040" points="282.54,-514.1 282.36,-506.89 288.94,-503.95 289.13,-511.16 282.54,-514.1"/>
<text text-anchor="middle" x="304.5" y="-569" font-family="Helvetica,sans-Serif" font-size="10.00"> &#45;m_cells</text>
<text text-anchor="middle" x="304.5" y="-558" font-family="Helvetica,sans-Serif" font-size="10.00">&#45;m_one_three</text>
<text text-anchor="middle" x="304.5" y="-547" font-family="Helvetica,sans-Serif" font-size="10.00">&#45;m_three_one</text>
<text text-anchor="middle" x="304.5" y="-536" font-family="Helvetica,sans-Serif" font-size="10.00">&#45;m_two_two</text>
</g>
<!-- Node7&#45;&gt;Node2 -->
<g id="edge7" class="edge">
<title>Node7&#45;&gt;Node2</title>
<path fill="none" stroke="#404040" d="M365.5,-606.43C365.5,-585.52 365.5,-556.88 365.5,-527.07"/>
<polygon fill="none" stroke="#404040" points="365.5,-526.7 361.5,-520.7 365.5,-514.7 369.5,-520.7 365.5,-526.7"/>
<text text-anchor="middle" x="390" y="-552.5" font-family="Helvetica,sans-Serif" font-size="10.00"> &#45;m_faces</text>
</g>
<!-- Node8 -->
<g id="node8" class="node">
<title>Node8</title>
<g id="a_node8"><a xlink:title=" ">
<polygon fill="white" stroke="#666666" points="614,-595.5 614,-685.5 723,-685.5 723,-595.5 614,-595.5"/>
<text text-anchor="start" x="622" y="-673.5" font-family="Helvetica,sans-Serif" font-size="10.00">std::multimap&lt; Int</text>
<text text-anchor="start" x="622" y="-662.5" font-family="Helvetica,sans-Serif" font-size="10.00">_precision, Facet_t</text>
<text text-anchor="middle" x="668.5" y="-651.5" font-family="Helvetica,sans-Serif" font-size="10.00">&lt; 3 &gt; &gt;</text>
<polyline fill="none" stroke="#666666" points="614,-644.5 723,-644.5 "/>
<text text-anchor="start" x="622" y="-632.5" font-family="Helvetica,sans-Serif" font-size="10.00">+ elements</text>
<text text-anchor="start" x="622" y="-621.5" font-family="Helvetica,sans-Serif" font-size="10.00">+ keys</text>
<polyline fill="none" stroke="#666666" points="614,-614.5 723,-614.5 "/>
<text text-anchor="middle" x="668.5" y="-602.5" font-family="Helvetica,sans-Serif" font-size="10.00"> </text>
</a>
</g>
</g>
<!-- Node8&#45;&gt;Node2 -->
<g id="edge9" class="edge">
<title>Node8&#45;&gt;Node2</title>
<path fill="none" stroke="#404040" d="M645.16,-595.3C630.97,-572.91 610.71,-547.47 585.5,-533 536.54,-504.89 506.12,-542.07 452.69,-514.52"/>
<polygon fill="none" stroke="#404040" points="452.44,-514.37 445.24,-514.82 442.06,-508.35 449.26,-507.9 452.44,-514.37"/>
<text text-anchor="middle" x="682" y="-552.5" font-family="Helvetica,sans-Serif" font-size="10.00"> &#45;m_spacelike_facets</text>
</g>
<!-- Node9&#45;&gt;Node8 -->
<g id="edge10" class="edge">
<title>Node9&#45;&gt;Node8</title>
<path fill="none" stroke="orange" d="M634.31,-737.71C638.07,-734.07 641.54,-730.16 644.5,-726 652.91,-714.2 658.38,-699.53 661.94,-685.73"/>
<polygon fill="orange" stroke="orange" points="631.93,-735.14 626.77,-744.39 636.57,-740.38 631.93,-735.14"/>
<text text-anchor="start" x="655.5" y="-718" font-family="Helvetica,sans-Serif" font-size="10.00"> &lt; Int_precision, Facet</text>
<text text-anchor="middle" x="710" y="-707" font-family="Helvetica,sans-Serif" font-size="10.00">_t&lt; 3 &gt; &gt;</text>
</g>
<!-- Node10&#45;&gt;Node2 -->
<g id="edge12" class="edge">
<title>Node10&#45;&gt;Node2</title>
<path fill="none" stroke="#404040" d="M504.04,-606.43C489.6,-583.08 469.2,-550.12 448.49,-516.64"/>
<polygon fill="none" stroke="#404040" points="448.37,-516.44 441.81,-513.45 442.05,-506.24 448.61,-509.24 448.37,-516.44"/>
<text text-anchor="middle" x="531.5" y="-563.5" font-family="Helvetica,sans-Serif" font-size="10.00"> &#45;m_edges</text>
<text text-anchor="middle" x="531.5" y="-552.5" font-family="Helvetica,sans-Serif" font-size="10.00">&#45;m_spacelike_edges</text>
<text text-anchor="middle" x="531.5" y="-541.5" font-family="Helvetica,sans-Serif" font-size="10.00">&#45;m_timelike_edges</text>
</g>
<!-- Node11 -->
<g id="node11" class="node">
<title>Node11</title>
<g id="a_node11"><a xlink:href="struct_geometry_3_013_01_4.html" target="_top" xlink:title="3D Geometry">
<polygon fill="white" stroke="#666666" points="460.5,-298 460.5,-465 554.5,-465 554.5,-298 460.5,-298"/>
<text text-anchor="middle" x="507.5" y="-453" font-family="Helvetica,sans-Serif" font-size="10.00">Geometry&lt; 3 &gt;</text>
<polyline fill="none" stroke="#666666" points="460.5,-446 554.5,-446 "/>
<text text-anchor="start" x="468.5" y="-434" font-family="Helvetica,sans-Serif" font-size="10.00">+ N0</text>
<text text-anchor="start" x="468.5" y="-423" font-family="Helvetica,sans-Serif" font-size="10.00">+ N1</text>
<text text-anchor="start" x="468.5" y="-412" font-family="Helvetica,sans-Serif" font-size="10.00">+ N1_SL</text>
<text text-anchor="start" x="468.5" y="-401" font-family="Helvetica,sans-Serif" font-size="10.00">+ N1_TL</text>
<text text-anchor="start" x="468.5" y="-390" font-family="Helvetica,sans-Serif" font-size="10.00">+ N2</text>
<text text-anchor="start" x="468.5" y="-379" font-family="Helvetica,sans-Serif" font-size="10.00">+ N3</text>
<text text-anchor="start" x="468.5" y="-368" font-family="Helvetica,sans-Serif" font-size="10.00">+ N3_13</text>
<text text-anchor="start" x="468.5" y="-357" font-family="Helvetica,sans-Serif" font-size="10.00">+ N3_22</text>
<text text-anchor="start" x="468.5" y="-346" font-family="Helvetica,sans-Serif" font-size="10.00">+ N3_31</text>
<text text-anchor="start" x="468.5" y="-335" font-family="Helvetica,sans-Serif" font-size="10.00">+ N3_31_13</text>
<polyline fill="none" stroke="#666666" points="460.5,-328 554.5,-328 "/>
<text text-anchor="start" x="468.5" y="-316" font-family="Helvetica,sans-Serif" font-size="10.00">+ Geometry()</text>
<text text-anchor="start" x="468.5" y="-305" font-family="Helvetica,sans-Serif" font-size="10.00">+ Geometry()</text>
</a>
</g>
</g>
<!-- Node11&#45;&gt;Node1 -->
<g id="edge14" class="edge">
<title>Node11&#45;&gt;Node1</title>
<path fill="none" stroke="#404040" d="M500.44,-297.93C497.14,-272.35 492.36,-244.26 485.5,-219 484.88,-216.72 484.23,-214.43 483.55,-212.12"/>
<polygon fill="none" stroke="#404040" points="483.51,-212 477.89,-207.48 479.9,-200.55 485.52,-205.07 483.51,-212"/>
<text text-anchor="middle" x="522.5" y="-222" font-family="Helvetica,sans-Serif" font-size="10.00"> &#45;m_geometry</text>
</g>
</g>
</svg>
        <g id="navigator" transform="translate(0 0)" fill="#404254">
                <rect fill="#f2f5e9" fill-opacity="0.5" stroke="#606060" stroke-width=".5" x="0" y="0" width="60" height="60"/>
                <use id="zoomplus" xlink:href="#zoomPlus" x="17" y="9" onmousedown="handleZoom(evt,'in')"/>
                <use id="zoomminus" xlink:href="#zoomMin" x="42" y="9" onmousedown="handleZoom(evt,'out')"/>
                <use id="reset" xlink:href="#resetDef" x="30" y="36" onmousedown="handleReset()"/>
                <g id="arrowUp" xlink:href="#dirArrow" transform="translate(30 24)" onmousedown="handlePan(0,-1)">
                  <use xlink:href="#rim" fill="#404040">
                        <set attributeName="fill" to="#808080" begin="arrowUp.mouseover" end="arrowUp.mouseout"/>
                  </use>
                  <path fill="none" stroke="white" stroke-width="1.5" d="M0,-3.0v7 M-2.5,-0.5L0,-3.0L2.5,-0.5"/>
                </g>
                <g id="arrowRight" xlink:href="#dirArrow" transform="rotate(90) translate(36 -43)" onmousedown="handlePan(1,0)">
                  <use xlink:href="#rim" fill="#404040">
                        <set attributeName="fill" to="#808080" begin="arrowRight.mouseover" end="arrowRight.mouseout"/>
                  </use>
                  <path fill="none" stroke="white" stroke-width="1.5" d="M0,-3.0v7 M-2.5,-0.5L0,-3.0L2.5,-0.5"/>
                </g>
                <g id="arrowDown" xlink:href="#dirArrow" transform="rotate(180) translate(-30 -48)" onmousedown="handlePan(0,1)">
                  <use xlink:href="#rim" fill="#404040">
                        <set attributeName="fill" to="#808080" begin="arrowDown.mouseover" end="arrowDown.mouseout"/>
                  </use>
                  <path fill="none" stroke="white" stroke-width="1.5" d="M0,-3.0v7 M-2.5,-0.5L0,-3.0L2.5,-0.5"/>
                </g>
                <g id="arrowLeft" xlink:href="#dirArrow" transform="rotate(270) translate(-36 17)" onmousedown="handlePan(-1,0)">
                  <use xlink:href="#rim" fill="#404040">
                        <set attributeName="fill" to="#808080" begin="arrowLeft.mouseover" end="arrowLeft.mouseout"/>
                  </use>
                  <path fill="none" stroke="white" stroke-width="1.5" d="M0,-3.0v7 M-2.5,-0.5L0,-3.0L2.5,-0.5"/>
                </g>
        </g>
        <svg viewBox="0 0 15 15" width="100%" height="30px" preserveAspectRatio="xMaxYMin meet">
         <g id="arrow_out" transform="scale(0.3 0.3)">
          <a xlink:href="classmanifolds_1_1_manifold_3_013_01_4__coll__graph_org.svg" target="_base">
           <rect id="button" ry="5" rx="5" y="6" x="6" height="38" width="38"
                fill="#f2f5e9" fill-opacity="0.5" stroke="#606060" stroke-width="1.0"/>
           <path id="arrow"
             d="M 11.500037,31.436501 C 11.940474,20.09759 22.043105,11.32322 32.158766,21.979434 L 37.068811,17.246167 C 37.068811,17.246167 37.088388,32 37.088388,32 L 22.160133,31.978069 C 22.160133,31.978069 26.997745,27.140456 26.997745,27.140456 C 18.528582,18.264221 13.291696,25.230495 11.500037,31.436501 z"
             style="fill:#404040;"/>
          </a>
         </g>
        </svg>
</svg>
