<?xml version="1.0" encoding="UTF-8" standalone="no"?>
<!DOCTYPE svg PUBLIC "-//W3C//DTD SVG 1.1//EN"
 "http://www.w3.org/Graphics/SVG/1.1/DTD/svg11.dtd">
<!-- Generated by graphviz version 2.43.0 (0)
 -->
<!-- Title: foliated_triangulations::FoliatedTriangulation&lt; 3 &gt; Pages: 1 -->
<!--zoomable 656 -->
<svg id="main" version="1.1" xmlns="http://www.w3.org/2000/svg" xmlns:xlink="http://www.w3.org/1999/xlink" xml:space="preserve" onload="init(evt)">
<style type="text/css"><![CDATA[
.edge:hover path { stroke: red; }
.edge:hover polygon { stroke: red; fill: red; }
]]></style>
<script type="text/javascript"><![CDATA[
var edges = document.getElementsByTagName('g');
if (edges && edges.length) {
  for (var i=0;i<edges.length;i++) {
    if (edges[i].id.substr(0,4)=='edge') {
      edges[i].setAttribute('class','edge');
    }
  }
}
]]></script>
        <defs>
                <circle id="rim" cx="0" cy="0" r="7"/>
                <circle id="rim2" cx="0" cy="0" r="3.5"/>
                <g id="zoomPlus">
                        <use xlink:href="#rim" fill="#404040">
                                <set attributeName="fill" to="#808080" begin="zoomplus.mouseover" end="zoomplus.mouseout"/>
                        </use>
                        <path d="M-4,0h8M0,-4v8" fill="none" stroke="white" stroke-width="1.5" pointer-events="none"/>
                </g>
                <g id="zoomMin">
                        <use xlink:href="#rim" fill="#404040">
                                <set attributeName="fill" to="#808080" begin="zoomminus.mouseover" end="zoomminus.mouseout"/>
                        </use>
                        <path d="M-4,0h8" fill="none" stroke="white" stroke-width="1.5" pointer-events="none"/>
                </g>
                <g id="dirArrow">
                        <path fill="none" stroke="white" stroke-width="1.5" d="M0,-3.0v7 M-2.5,-0.5L0,-3.0L2.5,-0.5"/>
                </g>
               <g id="resetDef">
                       <use xlink:href="#rim2" fill="#404040">
                               <set attributeName="fill" to="#808080" begin="reset.mouseover" end="reset.mouseout"/>
                       </use>
               </g>
        </defs>

<script type="text/javascript">
var viewWidth = 763;
var viewHeight = 656;
var sectionId = 'dynsection-0';
</script>
<script xlink:href="svgpan.js"/>
<svg id="graph" class="graph">
<g id="viewport">
<title>foliated_triangulations::FoliatedTriangulation&lt; 3 &gt;</title>
<polygon fill="white" stroke="transparent" points="-4,4 -4,-652 758.5,-652 758.5,4 -4,4"/>
<!-- Node1 -->
<g id="node1" class="node">
<title>Node1</title>
<g id="a_node1"><a xlink:title="3D Triangulation">
<polygon fill="#bfbfbf" stroke="black" points="282,-0.5 282,-255.5 435,-255.5 435,-0.5 282,-0.5"/>
<text text-anchor="start" x="290" y="-243.5" font-family="Helvetica,sans-Serif" font-size="10.00">foliated_triangulations</text>
<text text-anchor="middle" x="358.5" y="-232.5" font-family="Helvetica,sans-Serif" font-size="10.00">::FoliatedTriangulation&lt; 3 &gt;</text>
<polyline fill="none" stroke="black" points="282,-225.5 435,-225.5 "/>
<text text-anchor="start" x="290" y="-213.5" font-family="Helvetica,sans-Serif" font-size="10.00">&#45; m_foliation_spacing</text>
<text text-anchor="start" x="290" y="-202.5" font-family="Helvetica,sans-Serif" font-size="10.00">&#45; m_initial_radius</text>
<text text-anchor="start" x="290" y="-191.5" font-family="Helvetica,sans-Serif" font-size="10.00">&#45; m_max_timevalue</text>
<text text-anchor="start" x="290" y="-180.5" font-family="Helvetica,sans-Serif" font-size="10.00">&#45; m_min_timevalue</text>
<text text-anchor="start" x="290" y="-169.5" font-family="Helvetica,sans-Serif" font-size="10.00">&#45; m_triangulation</text>
<polyline fill="none" stroke="black" points="282,-162.5 435,-162.5 "/>
<text text-anchor="start" x="290" y="-150.5" font-family="Helvetica,sans-Serif" font-size="10.00">+ FoliatedTriangulation()</text>
<text text-anchor="start" x="290" y="-139.5" font-family="Helvetica,sans-Serif" font-size="10.00">+ FoliatedTriangulation()</text>
<text text-anchor="start" x="290" y="-128.5" font-family="Helvetica,sans-Serif" font-size="10.00">+ FoliatedTriangulation()</text>
<text text-anchor="start" x="290" y="-117.5" font-family="Helvetica,sans-Serif" font-size="10.00">+ FoliatedTriangulation()</text>
<text text-anchor="start" x="290" y="-106.5" font-family="Helvetica,sans-Serif" font-size="10.00">+ FoliatedTriangulation()</text>
<text text-anchor="start" x="290" y="-95.5" font-family="Helvetica,sans-Serif" font-size="10.00">+ FoliatedTriangulation()</text>
<text text-anchor="start" x="290" y="-84.5" font-family="Helvetica,sans-Serif" font-size="10.00">+ ~FoliatedTriangulation()</text>
<text text-anchor="start" x="290" y="-73.5" font-family="Helvetica,sans-Serif" font-size="10.00">+ check_all_cells()</text>
<text text-anchor="start" x="290" y="-62.5" font-family="Helvetica,sans-Serif" font-size="10.00">+ check_all_vertices()</text>
<text text-anchor="start" x="290" y="-51.5" font-family="Helvetica,sans-Serif" font-size="10.00">+ degree()</text>
<text text-anchor="start" x="290" y="-40.5" font-family="Helvetica,sans-Serif" font-size="10.00">and 45 more...</text>
<text text-anchor="start" x="290" y="-29.5" font-family="Helvetica,sans-Serif" font-size="10.00">&#45; classify_cells()</text>
<text text-anchor="start" x="290" y="-18.5" font-family="Helvetica,sans-Serif" font-size="10.00">&#45; collect_edges()</text>
<text text-anchor="start" x="290" y="-7.5" font-family="Helvetica,sans-Serif" font-size="10.00">&#45; collect_faces()</text>
</a>
</g>
</g>
<!-- Node2 -->
<g id="node2" class="node">
<title>Node2</title>
<g id="a_node2"><a xlink:title=" ">
<polygon fill="white" stroke="#bfbfbf" points="0,-347.5 0,-415.5 111,-415.5 111,-347.5 0,-347.5"/>
<text text-anchor="start" x="8" y="-403.5" font-family="Helvetica,sans-Serif" font-size="10.00">std::vector&lt; Vertex</text>
<text text-anchor="middle" x="55.5" y="-392.5" font-family="Helvetica,sans-Serif" font-size="10.00">_handle_t&lt; 3 &gt; &gt;</text>
<polyline fill="none" stroke="#bfbfbf" points="0,-385.5 111,-385.5 "/>
<text text-anchor="start" x="8" y="-373.5" font-family="Helvetica,sans-Serif" font-size="10.00">+ elements</text>
<polyline fill="none" stroke="#bfbfbf" points="0,-366.5 111,-366.5 "/>
<text text-anchor="middle" x="55.5" y="-354.5" font-family="Helvetica,sans-Serif" font-size="10.00"> </text>
</a>
</g>
</g>
<!-- Node2&#45;&gt;Node1 -->
<g id="edge1" class="edge">
<title>Node2&#45;&gt;Node1</title>
<path fill="none" stroke="#404040" d="M91.8,-347.33C115.37,-326.04 146.9,-297.99 175.5,-274 206.47,-248.03 241.07,-220.29 271.78,-196.1"/>
<polygon fill="none" stroke="#404040" points="272.17,-195.79 274.42,-188.94 281.61,-188.38 279.36,-195.23 272.17,-195.79"/>
<text text-anchor="middle" x="201.5" y="-293.5" font-family="Helvetica,sans-Serif" font-size="10.00"> &#45;m_points</text>
</g>
<!-- Node3 -->
<g id="node3" class="node">
<title>Node3</title>
<g id="a_node3"><a xlink:title="STL class.">
<polygon fill="white" stroke="#bfbfbf" points="310,-485.5 310,-542.5 407,-542.5 407,-485.5 310,-485.5"/>
<text text-anchor="middle" x="358.5" y="-530.5" font-family="Helvetica,sans-Serif" font-size="10.00">std::vector&lt; T &gt;</text>
<polyline fill="none" stroke="#bfbfbf" points="310,-523.5 407,-523.5 "/>
<text text-anchor="middle" x="358.5" y="-511.5" font-family="Helvetica,sans-Serif" font-size="10.00"> </text>
<polyline fill="none" stroke="#bfbfbf" points="310,-504.5 407,-504.5 "/>
<text text-anchor="middle" x="358.5" y="-492.5" font-family="Helvetica,sans-Serif" font-size="10.00"> </text>
</a>
</g>
</g>
<!-- Node3&#45;&gt;Node2 -->
<g id="edge2" class="edge">
<title>Node3&#45;&gt;Node2</title>
<path fill="none" stroke="orange" d="M299.59,-507.66C235.76,-500.92 138.94,-487.66 108.5,-467 90.3,-454.65 77.12,-433.76 68.45,-415.84"/>
<polygon fill="orange" stroke="orange" points="299.62,-511.18 309.93,-508.72 300.34,-504.21 299.62,-511.18"/>
<text text-anchor="start" x="108.5" y="-459" font-family="Helvetica,sans-Serif" font-size="10.00"> &lt; Vertex_handle_t&lt;</text>
<text text-anchor="middle" x="159.5" y="-448" font-family="Helvetica,sans-Serif" font-size="10.00"> 3 &gt; &gt;</text>
</g>
<!-- Node7 -->
<g id="node7" class="node">
<title>Node7</title>
<g id="a_node7"><a xlink:title=" ">
<polygon fill="white" stroke="#bfbfbf" points="129.5,-347.5 129.5,-415.5 271.5,-415.5 271.5,-347.5 129.5,-347.5"/>
<text text-anchor="start" x="137.5" y="-403.5" font-family="Helvetica,sans-Serif" font-size="10.00">std::vector&lt; Edge_handle</text>
<text text-anchor="middle" x="200.5" y="-392.5" font-family="Helvetica,sans-Serif" font-size="10.00">_t&lt; 3 &gt; &gt;</text>
<polyline fill="none" stroke="#bfbfbf" points="129.5,-385.5 271.5,-385.5 "/>
<text text-anchor="start" x="137.5" y="-373.5" font-family="Helvetica,sans-Serif" font-size="10.00">+ elements</text>
<polyline fill="none" stroke="#bfbfbf" points="129.5,-366.5 271.5,-366.5 "/>
<text text-anchor="middle" x="200.5" y="-354.5" font-family="Helvetica,sans-Serif" font-size="10.00"> </text>
</a>
</g>
</g>
<!-- Node3&#45;&gt;Node7 -->
<g id="edge8" class="edge">
<title>Node3&#45;&gt;Node7</title>
<path fill="none" stroke="orange" d="M300.14,-504.14C275.2,-497.64 247.51,-486.4 228.5,-467 215.09,-453.31 208.1,-433.06 204.46,-415.81"/>
<polygon fill="orange" stroke="orange" points="299.36,-507.55 309.9,-506.48 301,-500.74 299.36,-507.55"/>
<text text-anchor="middle" x="291.5" y="-453.5" font-family="Helvetica,sans-Serif" font-size="10.00"> &lt; Edge_handle_t&lt; 3 &gt; &gt;</text>
</g>
<!-- Node8 -->
<g id="node8" class="node">
<title>Node8</title>
<g id="a_node8"><a xlink:title=" ">
<polygon fill="white" stroke="#bfbfbf" points="290,-347.5 290,-415.5 427,-415.5 427,-347.5 290,-347.5"/>
<text text-anchor="start" x="298" y="-403.5" font-family="Helvetica,sans-Serif" font-size="10.00">std::vector&lt; Cell_handle</text>
<text text-anchor="middle" x="358.5" y="-392.5" font-family="Helvetica,sans-Serif" font-size="10.00">_t&lt; 3 &gt; &gt;</text>
<polyline fill="none" stroke="#bfbfbf" points="290,-385.5 427,-385.5 "/>
<text text-anchor="start" x="298" y="-373.5" font-family="Helvetica,sans-Serif" font-size="10.00">+ elements</text>
<polyline fill="none" stroke="#bfbfbf" points="290,-366.5 427,-366.5 "/>
<text text-anchor="middle" x="358.5" y="-354.5" font-family="Helvetica,sans-Serif" font-size="10.00"> </text>
</a>
</g>
</g>
<!-- Node3&#45;&gt;Node8 -->
<g id="edge10" class="edge">
<title>Node3&#45;&gt;Node8</title>
<path fill="none" stroke="orange" d="M358.5,-475.3C358.5,-456.45 358.5,-433.86 358.5,-415.68"/>
<polygon fill="orange" stroke="orange" points="355,-475.32 358.5,-485.32 362,-475.32 355,-475.32"/>
<text text-anchor="middle" x="419" y="-453.5" font-family="Helvetica,sans-Serif" font-size="10.00"> &lt; Cell_handle_t&lt; 3 &gt; &gt;</text>
</g>
<!-- Node9 -->
<g id="node9" class="node">
<title>Node9</title>
<g id="a_node9"><a xlink:title=" ">
<polygon fill="white" stroke="#bfbfbf" points="445.5,-347.5 445.5,-415.5 585.5,-415.5 585.5,-347.5 445.5,-347.5"/>
<text text-anchor="start" x="453.5" y="-403.5" font-family="Helvetica,sans-Serif" font-size="10.00">std::vector&lt; Face_handle</text>
<text text-anchor="middle" x="515.5" y="-392.5" font-family="Helvetica,sans-Serif" font-size="10.00">_t&lt; 3 &gt; &gt;</text>
<polyline fill="none" stroke="#bfbfbf" points="445.5,-385.5 585.5,-385.5 "/>
<text text-anchor="start" x="453.5" y="-373.5" font-family="Helvetica,sans-Serif" font-size="10.00">+ elements</text>
<polyline fill="none" stroke="#bfbfbf" points="445.5,-366.5 585.5,-366.5 "/>
<text text-anchor="middle" x="515.5" y="-354.5" font-family="Helvetica,sans-Serif" font-size="10.00"> </text>
</a>
</g>
</g>
<!-- Node3&#45;&gt;Node9 -->
<g id="edge12" class="edge">
<title>Node3&#45;&gt;Node9</title>
<path fill="none" stroke="orange" d="M416.86,-502.53C440.1,-495.79 465.53,-484.8 483.5,-467 497.32,-453.31 505.26,-433.06 509.77,-415.81"/>
<polygon fill="orange" stroke="orange" points="415.81,-499.19 407.07,-505.17 417.63,-505.95 415.81,-499.19"/>
<text text-anchor="middle" x="561.5" y="-453.5" font-family="Helvetica,sans-Serif" font-size="10.00"> &lt; Face_handle_t&lt; 3 &gt; &gt;</text>
</g>
<!-- Node4 -->
<g id="node4" class="node">
<title>Node4</title>
<g id="a_node4"><a xlink:title=" ">
<polygon fill="white" stroke="#bfbfbf" points="408,-590.5 408,-647.5 437,-647.5 437,-590.5 408,-590.5"/>
<text text-anchor="middle" x="422.5" y="-635.5" font-family="Helvetica,sans-Serif" font-size="10.00">T</text>
<polyline fill="none" stroke="#bfbfbf" points="408,-628.5 437,-628.5 "/>
<text text-anchor="middle" x="422.5" y="-616.5" font-family="Helvetica,sans-Serif" font-size="10.00"> </text>
<polyline fill="none" stroke="#bfbfbf" points="408,-609.5 437,-609.5 "/>
<text text-anchor="middle" x="422.5" y="-597.5" font-family="Helvetica,sans-Serif" font-size="10.00"> </text>
</a>
</g>
</g>
<!-- Node4&#45;&gt;Node3 -->
<g id="edge3" class="edge">
<title>Node4&#45;&gt;Node3</title>
<path fill="none" stroke="#404040" d="M407.98,-594.63C400.34,-582.33 390.78,-566.95 382.1,-552.99"/>
<polygon fill="none" stroke="#404040" points="382.02,-552.86 375.46,-549.87 375.69,-542.67 382.25,-545.65 382.02,-552.86"/>
<text text-anchor="middle" x="421.5" y="-564" font-family="Helvetica,sans-Serif" font-size="10.00"> +elements</text>
</g>
<!-- Node6 -->
<g id="node6" class="node">
<title>Node6</title>
<g id="a_node6"><a xlink:title="STL class.">
<polygon fill="white" stroke="#bfbfbf" points="505.5,-485.5 505.5,-542.5 631.5,-542.5 631.5,-485.5 505.5,-485.5"/>
<text text-anchor="middle" x="568.5" y="-530.5" font-family="Helvetica,sans-Serif" font-size="10.00">std::multimap&lt; K, T &gt;</text>
<polyline fill="none" stroke="#bfbfbf" points="505.5,-523.5 631.5,-523.5 "/>
<text text-anchor="start" x="513.5" y="-511.5" font-family="Helvetica,sans-Serif" font-size="10.00">+ keys</text>
<polyline fill="none" stroke="#bfbfbf" points="505.5,-504.5 631.5,-504.5 "/>
<text text-anchor="middle" x="568.5" y="-492.5" font-family="Helvetica,sans-Serif" font-size="10.00"> </text>
</a>
</g>
</g>
<!-- Node4&#45;&gt;Node6 -->
<g id="edge6" class="edge">
<title>Node4&#45;&gt;Node6</title>
<path fill="none" stroke="#404040" d="M437.03,-607.75C456.13,-594.27 490.64,-569.93 519.5,-549.57"/>
<polygon fill="none" stroke="#404040" points="519.64,-549.47 522.24,-542.74 529.45,-542.55 526.85,-549.28 519.64,-549.47"/>
<text text-anchor="middle" x="529.5" y="-564" font-family="Helvetica,sans-Serif" font-size="10.00"> +elements</text>
</g>
<!-- Node5 -->
<g id="node5" class="node">
<title>Node5</title>
<g id="a_node5"><a xlink:title=" ">
<polygon fill="white" stroke="#bfbfbf" points="604,-336.5 604,-426.5 713,-426.5 713,-336.5 604,-336.5"/>
<text text-anchor="start" x="612" y="-414.5" font-family="Helvetica,sans-Serif" font-size="10.00">std::multimap&lt; Int</text>
<text text-anchor="start" x="612" y="-403.5" font-family="Helvetica,sans-Serif" font-size="10.00">_precision, Facet_t</text>
<text text-anchor="middle" x="658.5" y="-392.5" font-family="Helvetica,sans-Serif" font-size="10.00">&lt; 3 &gt; &gt;</text>
<polyline fill="none" stroke="#bfbfbf" points="604,-385.5 713,-385.5 "/>
<text text-anchor="start" x="612" y="-373.5" font-family="Helvetica,sans-Serif" font-size="10.00">+ elements</text>
<text text-anchor="start" x="612" y="-362.5" font-family="Helvetica,sans-Serif" font-size="10.00">+ keys</text>
<polyline fill="none" stroke="#bfbfbf" points="604,-355.5 713,-355.5 "/>
<text text-anchor="middle" x="658.5" y="-343.5" font-family="Helvetica,sans-Serif" font-size="10.00"> </text>
</a>
</g>
</g>
<!-- Node5&#45;&gt;Node1 -->
<g id="edge4" class="edge">
<title>Node5&#45;&gt;Node1</title>
<path fill="none" stroke="#404040" d="M605.9,-336.4C561.28,-298.99 496.39,-244.6 444.26,-200.9"/>
<polygon fill="none" stroke="#404040" points="444.21,-200.86 437.04,-200.07 435.02,-193.15 442.18,-193.94 444.21,-200.86"/>
<text text-anchor="middle" x="630" y="-293.5" font-family="Helvetica,sans-Serif" font-size="10.00"> &#45;m_spacelike_facets</text>
</g>
<!-- Node6&#45;&gt;Node5 -->
<g id="edge5" class="edge">
<title>Node6&#45;&gt;Node5</title>
<path fill="none" stroke="orange" d="M623.7,-478.33C627.31,-474.79 630.63,-471 633.5,-467 641.96,-455.18 647.58,-440.5 651.31,-426.7"/>
<polygon fill="orange" stroke="orange" points="621.08,-475.98 615.97,-485.26 625.75,-481.19 621.08,-475.98"/>
<text text-anchor="start" x="645.5" y="-459" font-family="Helvetica,sans-Serif" font-size="10.00"> &lt; Int_precision, Facet</text>
<text text-anchor="middle" x="700" y="-448" font-family="Helvetica,sans-Serif" font-size="10.00">_t&lt; 3 &gt; &gt;</text>
</g>
<!-- Node7&#45;&gt;Node1 -->
<g id="edge7" class="edge">
<title>Node7&#45;&gt;Node1</title>
<path fill="none" stroke="#404040" d="M215.78,-347.17C225.96,-325.81 240.08,-297.74 254.5,-274 260.9,-263.47 267.82,-252.7 274.95,-242.04"/>
<polygon fill="none" stroke="#404040" points="275.11,-241.79 275.16,-234.58 281.83,-231.85 281.78,-239.06 275.11,-241.79"/>
<text text-anchor="middle" x="304.5" y="-304.5" font-family="Helvetica,sans-Serif" font-size="10.00"> &#45;m_edges</text>
<text text-anchor="middle" x="304.5" y="-293.5" font-family="Helvetica,sans-Serif" font-size="10.00">&#45;m_timelike_edges</text>
<text text-anchor="middle" x="304.5" y="-282.5" font-family="Helvetica,sans-Serif" font-size="10.00">&#45;m_spacelike_edges</text>
</g>
<!-- Node8&#45;&gt;Node1 -->
<g id="edge9" class="edge">
<title>Node8&#45;&gt;Node1</title>
<path fill="none" stroke="#404040" d="M358.5,-347.36C358.5,-326.38 358.5,-297.67 358.5,-267.97"/>
<polygon fill="none" stroke="#404040" points="358.5,-267.66 354.5,-261.66 358.5,-255.66 362.5,-261.66 358.5,-267.66"/>
<text text-anchor="middle" x="392.5" y="-310" font-family="Helvetica,sans-Serif" font-size="10.00"> &#45;m_cells</text>
<text text-anchor="middle" x="392.5" y="-299" font-family="Helvetica,sans-Serif" font-size="10.00">&#45;m_one_three</text>
<text text-anchor="middle" x="392.5" y="-288" font-family="Helvetica,sans-Serif" font-size="10.00">&#45;m_three_one</text>
<text text-anchor="middle" x="392.5" y="-277" font-family="Helvetica,sans-Serif" font-size="10.00">&#45;m_two_two</text>
</g>
<!-- Node9&#45;&gt;Node1 -->
<g id="edge11" class="edge">
<title>Node9&#45;&gt;Node1</title>
<path fill="none" stroke="#404040" d="M494.81,-347.36C480.84,-324.98 461.38,-293.8 441.53,-262.01"/>
<polygon fill="none" stroke="#404040" points="441.43,-261.85 434.86,-258.88 435.08,-251.67 441.65,-254.64 441.43,-261.85"/>
<text text-anchor="middle" x="498" y="-293.5" font-family="Helvetica,sans-Serif" font-size="10.00"> &#45;m_faces</text>
</g>
</g>
</svg>
        <g id="navigator" transform="translate(0 0)" fill="#404254">
                <rect fill="#f2f5e9" fill-opacity="0.5" stroke="#606060" stroke-width=".5" x="0" y="0" width="60" height="60"/>
                <use id="zoomplus" xlink:href="#zoomPlus" x="17" y="9" onmousedown="handleZoom(evt,'in')"/>
                <use id="zoomminus" xlink:href="#zoomMin" x="42" y="9" onmousedown="handleZoom(evt,'out')"/>
                <use id="reset" xlink:href="#resetDef" x="30" y="36" onmousedown="handleReset()"/>
                <g id="arrowUp" xlink:href="#dirArrow" transform="translate(30 24)" onmousedown="handlePan(0,-1)">
                  <use xlink:href="#rim" fill="#404040">
                        <set attributeName="fill" to="#808080" begin="arrowUp.mouseover" end="arrowUp.mouseout"/>
                  </use>
                  <path fill="none" stroke="white" stroke-width="1.5" d="M0,-3.0v7 M-2.5,-0.5L0,-3.0L2.5,-0.5"/>
                </g>
                <g id="arrowRight" xlink:href="#dirArrow" transform="rotate(90) translate(36 -43)" onmousedown="handlePan(1,0)">
                  <use xlink:href="#rim" fill="#404040">
                        <set attributeName="fill" to="#808080" begin="arrowRight.mouseover" end="arrowRight.mouseout"/>
                  </use>
                  <path fill="none" stroke="white" stroke-width="1.5" d="M0,-3.0v7 M-2.5,-0.5L0,-3.0L2.5,-0.5"/>
                </g>
                <g id="arrowDown" xlink:href="#dirArrow" transform="rotate(180) translate(-30 -48)" onmousedown="handlePan(0,1)">
                  <use xlink:href="#rim" fill="#404040">
                        <set attributeName="fill" to="#808080" begin="arrowDown.mouseover" end="arrowDown.mouseout"/>
                  </use>
                  <path fill="none" stroke="white" stroke-width="1.5" d="M0,-3.0v7 M-2.5,-0.5L0,-3.0L2.5,-0.5"/>
                </g>
                <g id="arrowLeft" xlink:href="#dirArrow" transform="rotate(270) translate(-36 17)" onmousedown="handlePan(-1,0)">
                  <use xlink:href="#rim" fill="#404040">
                        <set attributeName="fill" to="#808080" begin="arrowLeft.mouseover" end="arrowLeft.mouseout"/>
                  </use>
                  <path fill="none" stroke="white" stroke-width="1.5" d="M0,-3.0v7 M-2.5,-0.5L0,-3.0L2.5,-0.5"/>
                </g>
        </g>
        <svg viewBox="0 0 15 15" width="100%" height="30px" preserveAspectRatio="xMaxYMin meet">
         <g id="arrow_out" transform="scale(0.3 0.3)">
          <a xlink:href="classfoliated__triangulations_1_1_foliated_triangulation_3_013_01_4__coll__graph_org.svg" target="_base">
           <rect id="button" ry="5" rx="5" y="6" x="6" height="38" width="38"
                fill="#f2f5e9" fill-opacity="0.5" stroke="#606060" stroke-width="1.0"/>
           <path id="arrow"
             d="M 11.500037,31.436501 C 11.940474,20.09759 22.043105,11.32322 32.158766,21.979434 L 37.068811,17.246167 C 37.068811,17.246167 37.088388,32 37.088388,32 L 22.160133,31.978069 C 22.160133,31.978069 26.997745,27.140456 26.997745,27.140456 C 18.528582,18.264221 13.291696,25.230495 11.500037,31.436501 z"
             style="fill:#404040;"/>
          </a>
         </g>
        </svg>
</svg>
