<?xml version="1.0" encoding="UTF-8" standalone="no"?>
<!DOCTYPE svg PUBLIC "-//W3C//DTD SVG 1.1//EN"
 "http://www.w3.org/Graphics/SVG/1.1/DTD/svg11.dtd">
<!-- Generated by graphviz version 15.1.0 (20260618.0150)
 -->
<!-- Title: cdt::manifolds::Manifold&lt; 3 &gt; Pages: 1 -->
<svg width="1148pt" height="1152pt"
 viewBox="0.00 0.00 1148.00 1152.00" xmlns="http://www.w3.org/2000/svg" xmlns:xlink="http://www.w3.org/1999/xlink">
<g id="graph0" class="graph" transform="scale(1 1) rotate(0) translate(4 1148.25)">
<title>cdt::manifolds::Manifold&lt; 3 &gt;</title>
<!-- Node1 -->
<g id="Node000001" class="node">
<title>Node1</title>
<g id="a_Node000001"><a xlink:title="3D Manifold">
<polygon fill="#999999" stroke="none" points="959.25,-238.5 804.25,-238.5 804.25,0 959.25,0 959.25,-238.5"/>
<text xml:space="preserve" text-anchor="start" x="808.25" y="-224.75" font-family="Helvetica,sans-Serif" font-size="10.00">cdt::manifolds::Manifold&lt; 3 &gt;</text>
<text xml:space="preserve" text-anchor="start" x="820" y="-208" font-family="Helvetica,sans-Serif" font-size="10.00">+</text>
<text xml:space="preserve" text-anchor="start" x="844" y="-208" font-family="Helvetica,sans-Serif" font-size="10.00">dimension</text>
<text xml:space="preserve" text-anchor="start" x="820" y="-191.25" font-family="Helvetica,sans-Serif" font-size="10.00">+</text>
<text xml:space="preserve" text-anchor="start" x="844" y="-191.25" font-family="Helvetica,sans-Serif" font-size="10.00">topology</text>
<text xml:space="preserve" text-anchor="start" x="820" y="-174.5" font-family="Helvetica,sans-Serif" font-size="10.00">+</text>
<text xml:space="preserve" text-anchor="start" x="844" y="-174.5" font-family="Helvetica,sans-Serif" font-size="10.00">Manifold()</text>
<text xml:space="preserve" text-anchor="start" x="820" y="-157.75" font-family="Helvetica,sans-Serif" font-size="10.00">+</text>
<text xml:space="preserve" text-anchor="start" x="844" y="-157.75" font-family="Helvetica,sans-Serif" font-size="10.00">Manifold()</text>
<text xml:space="preserve" text-anchor="start" x="820" y="-141" font-family="Helvetica,sans-Serif" font-size="10.00">+</text>
<text xml:space="preserve" text-anchor="start" x="844" y="-141" font-family="Helvetica,sans-Serif" font-size="10.00">Manifold()</text>
<text xml:space="preserve" text-anchor="start" x="820" y="-124.25" font-family="Helvetica,sans-Serif" font-size="10.00">+</text>
<text xml:space="preserve" text-anchor="start" x="844" y="-124.25" font-family="Helvetica,sans-Serif" font-size="10.00">Manifold()</text>
<text xml:space="preserve" text-anchor="start" x="820" y="-107.5" font-family="Helvetica,sans-Serif" font-size="10.00">+</text>
<text xml:space="preserve" text-anchor="start" x="844" y="-107.5" font-family="Helvetica,sans-Serif" font-size="10.00">Manifold()</text>
<text xml:space="preserve" text-anchor="start" x="820" y="-90.75" font-family="Helvetica,sans-Serif" font-size="10.00">+</text>
<text xml:space="preserve" text-anchor="start" x="844" y="-90.75" font-family="Helvetica,sans-Serif" font-size="10.00">Manifold()</text>
<text xml:space="preserve" text-anchor="start" x="820" y="-74" font-family="Helvetica,sans-Serif" font-size="10.00">+</text>
<text xml:space="preserve" text-anchor="start" x="844" y="-74" font-family="Helvetica,sans-Serif" font-size="10.00">Manifold()</text>
<text xml:space="preserve" text-anchor="start" x="820" y="-57.25" font-family="Helvetica,sans-Serif" font-size="10.00">+</text>
<text xml:space="preserve" text-anchor="start" x="844" y="-57.25" font-family="Helvetica,sans-Serif" font-size="10.00">~Manifold()</text>
<text xml:space="preserve" text-anchor="start" x="820" y="-40.5" font-family="Helvetica,sans-Serif" font-size="10.00">+</text>
<text xml:space="preserve" text-anchor="start" x="844" y="-40.5" font-family="Helvetica,sans-Serif" font-size="10.00">check_simplices()</text>
<text xml:space="preserve" text-anchor="start" x="820" y="-23.75" font-family="Helvetica,sans-Serif" font-size="10.00">+</text>
<text xml:space="preserve" text-anchor="start" x="844" y="-23.75" font-family="Helvetica,sans-Serif" font-size="10.00">check_vertices()</text>
<text xml:space="preserve" text-anchor="start" x="844" y="-7" font-family="Helvetica,sans-Serif" font-size="10.00">and 34 more...</text>
<polygon fill="#666666" stroke="#666666" points="804.25,-219.75 804.25,-219.75 959.25,-219.75 959.25,-219.75 804.25,-219.75"/>
<polygon fill="#666666" stroke="#666666" points="804.25,-186.25 804.25,-186.25 842,-186.25 842,-186.25 804.25,-186.25"/>
<polygon fill="#666666" stroke="#666666" points="842,-186.25 842,-186.25 959.25,-186.25 959.25,-186.25 842,-186.25"/>
<polygon fill="none" stroke="#666666" points="804.25,0 804.25,-238.5 959.25,-238.5 959.25,0 804.25,0"/>
</a>
</g>
</g>
<!-- Node2 -->
<g id="Node000002" class="node">
<title>Node2</title>
<g id="a_Node000002"><a xlink:href="classcdt_1_1foliated__triangulations_1_1_foliated_triangulation_3_013_01_4.html" target="_top" xlink:title="3D Foliated triangulation">
<polygon fill="white" stroke="none" points="613,-728.75 468.5,-728.75 468.5,-293.25 613,-293.25 613,-728.75"/>
<text xml:space="preserve" text-anchor="start" x="472.5" y="-715" font-family="Helvetica,sans-Serif" font-size="10.00">cdt::foliated_triangulations</text>
<text xml:space="preserve" text-anchor="start" x="472.5" y="-702.25" font-family="Helvetica,sans-Serif" font-size="10.00">::FoliatedTriangulation&lt; 3 &gt;</text>
<text xml:space="preserve" text-anchor="start" x="475.25" y="-685.5" font-family="Helvetica,sans-Serif" font-size="10.00">&#45;</text>
<text xml:space="preserve" text-anchor="start" x="485.75" y="-685.5" font-family="Helvetica,sans-Serif" font-size="10.00">m_foliation_spacing</text>
<text xml:space="preserve" text-anchor="start" x="475.25" y="-668.75" font-family="Helvetica,sans-Serif" font-size="10.00">&#45;</text>
<text xml:space="preserve" text-anchor="start" x="485.75" y="-668.75" font-family="Helvetica,sans-Serif" font-size="10.00">m_initial_radius</text>
<text xml:space="preserve" text-anchor="start" x="475.25" y="-652" font-family="Helvetica,sans-Serif" font-size="10.00">&#45;</text>
<text xml:space="preserve" text-anchor="start" x="485.75" y="-652" font-family="Helvetica,sans-Serif" font-size="10.00">m_max_timevalue</text>
<text xml:space="preserve" text-anchor="start" x="475.25" y="-635.25" font-family="Helvetica,sans-Serif" font-size="10.00">&#45;</text>
<text xml:space="preserve" text-anchor="start" x="485.75" y="-635.25" font-family="Helvetica,sans-Serif" font-size="10.00">m_min_timevalue</text>
<text xml:space="preserve" text-anchor="start" x="473" y="-618.5" font-family="Helvetica,sans-Serif" font-size="10.00">+</text>
<text xml:space="preserve" text-anchor="start" x="485.75" y="-618.5" font-family="Helvetica,sans-Serif" font-size="10.00">FoliatedTriangulation()</text>
<text xml:space="preserve" text-anchor="start" x="473" y="-601.75" font-family="Helvetica,sans-Serif" font-size="10.00">+</text>
<text xml:space="preserve" text-anchor="start" x="485.75" y="-601.75" font-family="Helvetica,sans-Serif" font-size="10.00">FoliatedTriangulation()</text>
<text xml:space="preserve" text-anchor="start" x="473" y="-585" font-family="Helvetica,sans-Serif" font-size="10.00">+</text>
<text xml:space="preserve" text-anchor="start" x="485.75" y="-585" font-family="Helvetica,sans-Serif" font-size="10.00">FoliatedTriangulation()</text>
<text xml:space="preserve" text-anchor="start" x="473" y="-568.25" font-family="Helvetica,sans-Serif" font-size="10.00">+</text>
<text xml:space="preserve" text-anchor="start" x="485.75" y="-568.25" font-family="Helvetica,sans-Serif" font-size="10.00">FoliatedTriangulation()</text>
<text xml:space="preserve" text-anchor="start" x="473" y="-551.5" font-family="Helvetica,sans-Serif" font-size="10.00">+</text>
<text xml:space="preserve" text-anchor="start" x="485.75" y="-551.5" font-family="Helvetica,sans-Serif" font-size="10.00">FoliatedTriangulation()</text>
<text xml:space="preserve" text-anchor="start" x="473" y="-534.75" font-family="Helvetica,sans-Serif" font-size="10.00">+</text>
<text xml:space="preserve" text-anchor="start" x="485.75" y="-534.75" font-family="Helvetica,sans-Serif" font-size="10.00">FoliatedTriangulation()</text>
<text xml:space="preserve" text-anchor="start" x="473" y="-518" font-family="Helvetica,sans-Serif" font-size="10.00">+</text>
<text xml:space="preserve" text-anchor="start" x="485.75" y="-518" font-family="Helvetica,sans-Serif" font-size="10.00">FoliatedTriangulation()</text>
<text xml:space="preserve" text-anchor="start" x="473" y="-501.25" font-family="Helvetica,sans-Serif" font-size="10.00">+</text>
<text xml:space="preserve" text-anchor="start" x="485.75" y="-501.25" font-family="Helvetica,sans-Serif" font-size="10.00">~FoliatedTriangulation()</text>
<text xml:space="preserve" text-anchor="start" x="473" y="-484.5" font-family="Helvetica,sans-Serif" font-size="10.00">+</text>
<text xml:space="preserve" text-anchor="start" x="485.75" y="-484.5" font-family="Helvetica,sans-Serif" font-size="10.00">check_all_cells()</text>
<text xml:space="preserve" text-anchor="start" x="473" y="-467.75" font-family="Helvetica,sans-Serif" font-size="10.00">+</text>
<text xml:space="preserve" text-anchor="start" x="485.75" y="-467.75" font-family="Helvetica,sans-Serif" font-size="10.00">check_all_vertices()</text>
<text xml:space="preserve" text-anchor="start" x="485.75" y="-451" font-family="Helvetica,sans-Serif" font-size="10.00">and 35 more...</text>
<text xml:space="preserve" text-anchor="start" x="475.25" y="-434.25" font-family="Helvetica,sans-Serif" font-size="10.00">&#45;</text>
<text xml:space="preserve" text-anchor="start" x="485.75" y="-434.25" font-family="Helvetica,sans-Serif" font-size="10.00">FoliatedTriangulation()</text>
<text xml:space="preserve" text-anchor="start" x="475.25" y="-417.5" font-family="Helvetica,sans-Serif" font-size="10.00">&#45;</text>
<text xml:space="preserve" text-anchor="start" x="485.75" y="-417.5" font-family="Helvetica,sans-Serif" font-size="10.00">classify_cells()</text>
<text xml:space="preserve" text-anchor="start" x="475.25" y="-400.75" font-family="Helvetica,sans-Serif" font-size="10.00">&#45;</text>
<text xml:space="preserve" text-anchor="start" x="485.75" y="-400.75" font-family="Helvetica,sans-Serif" font-size="10.00">classify_vertices()</text>
<text xml:space="preserve" text-anchor="start" x="475.25" y="-384" font-family="Helvetica,sans-Serif" font-size="10.00">&#45;</text>
<text xml:space="preserve" text-anchor="start" x="485.75" y="-384" font-family="Helvetica,sans-Serif" font-size="10.00">collect_edges()</text>
<text xml:space="preserve" text-anchor="start" x="475.25" y="-367.25" font-family="Helvetica,sans-Serif" font-size="10.00">&#45;</text>
<text xml:space="preserve" text-anchor="start" x="485.75" y="-367.25" font-family="Helvetica,sans-Serif" font-size="10.00">collect_faces()</text>
<text xml:space="preserve" text-anchor="start" x="475.25" y="-350.5" font-family="Helvetica,sans-Serif" font-size="10.00">&#45;</text>
<text xml:space="preserve" text-anchor="start" x="485.75" y="-350.5" font-family="Helvetica,sans-Serif" font-size="10.00">triangulation()</text>
<text xml:space="preserve" text-anchor="start" x="475.25" y="-333.75" font-family="Helvetica,sans-Serif" font-size="10.00">&#45;</text>
<text xml:space="preserve" text-anchor="start" x="485.75" y="-333.75" font-family="Helvetica,sans-Serif" font-size="10.00">triangulation()</text>
<text xml:space="preserve" text-anchor="start" x="475.25" y="-317" font-family="Helvetica,sans-Serif" font-size="10.00">&#45;</text>
<text xml:space="preserve" text-anchor="start" x="485.75" y="-317" font-family="Helvetica,sans-Serif" font-size="10.00">cache_spacelike_facets()</text>
<text xml:space="preserve" text-anchor="start" x="475.25" y="-300.25" font-family="Helvetica,sans-Serif" font-size="10.00">&#45;</text>
<text xml:space="preserve" text-anchor="start" x="485.75" y="-300.25" font-family="Helvetica,sans-Serif" font-size="10.00">require_nonempty()</text>
<polygon fill="#666666" stroke="#666666" points="468.5,-697.25 468.5,-697.25 613,-697.25 613,-697.25 468.5,-697.25"/>
<polygon fill="#666666" stroke="#666666" points="468.5,-630.25 468.5,-630.25 483.75,-630.25 483.75,-630.25 468.5,-630.25"/>
<polygon fill="#666666" stroke="#666666" points="483.75,-630.25 483.75,-630.25 613,-630.25 613,-630.25 483.75,-630.25"/>
<polygon fill="none" stroke="#666666" points="468.5,-293.25 468.5,-728.75 613,-728.75 613,-293.25 468.5,-293.25"/>
</a>
</g>
</g>
<!-- Node2&#45;&gt;Node1 -->
<g id="edge1_Node000001_Node000002" class="edge">
<title>Node2&#45;&gt;Node1</title>
<g id="a_edge1_Node000001_Node000002"><a xlink:title=" ">
<path fill="none" stroke="#63b8ff" d="M612.65,-427.82C666.09,-366.75 739.21,-283.17 795.74,-218.56"/>
<polygon fill="none" stroke="#63b8ff" points="795.82,-218.47 796.76,-211.32 803.72,-209.44 802.78,-216.59 795.82,-218.47"/>
</a>
</g>
<text xml:space="preserve" text-anchor="start" x="764.72" y="-262.5" font-family="Helvetica,sans-Serif" font-size="10.00" fill="grey">&#45;m_triangulation</text>
</g>
<!-- Node3 -->
<g id="Node000003" class="node">
<title>Node3</title>
<g id="a_Node000003"><a xlink:title=" ">
<polygon fill="white" stroke="none" points="110.38,-907.12 1.12,-907.12 1.12,-840.12 110.38,-840.12 110.38,-907.12"/>
<text xml:space="preserve" text-anchor="start" x="5.12" y="-893.38" font-family="Helvetica,sans-Serif" font-size="10.00">cdt::detail::Delaunay</text>
<text xml:space="preserve" text-anchor="start" x="26.5" y="-880.62" font-family="Helvetica,sans-Serif" font-size="10.00">_state&lt; 3 &gt;</text>
<text xml:space="preserve" text-anchor="start" x="54.25" y="-863.88" font-family="Helvetica,sans-Serif" font-size="10.00"> </text>
<text xml:space="preserve" text-anchor="start" x="54.25" y="-847.12" font-family="Helvetica,sans-Serif" font-size="10.00"> </text>
<polygon fill="#666666" stroke="#666666" points="1.12,-875.62 1.12,-875.62 110.38,-875.62 110.38,-875.62 1.12,-875.62"/>
<polygon fill="#666666" stroke="#666666" points="1.12,-858.88 1.12,-858.88 110.38,-858.88 110.38,-858.88 1.12,-858.88"/>
<polygon fill="none" stroke="#666666" points="1.12,-840.12 1.12,-907.12 110.38,-907.12 110.38,-840.12 1.12,-840.12"/>
</a>
</g>
</g>
<!-- Node3&#45;&gt;Node2 -->
<g id="edge2_Node000002_Node000003" class="edge">
<title>Node3&#45;&gt;Node2</title>
<g id="a_edge2_Node000002_Node000003"><a xlink:title=" ">
<path fill="none" stroke="#63b8ff" d="M67.38,-840.24C78.53,-812.75 97.59,-773.59 124,-746.75 220.15,-649.03 365.6,-579.72 456.78,-542.82"/>
<polygon fill="none" stroke="#63b8ff" points="456.75,-542.83 460.83,-536.89 467.89,-538.38 463.8,-544.32 456.75,-542.83"/>
</a>
</g>
<text xml:space="preserve" text-anchor="start" x="127" y="-777.88" font-family="Helvetica,sans-Serif" font-size="10.00" fill="grey">&#45;m_delaunay_state</text>
</g>
<!-- Node4 -->
<g id="Node000004" class="node">
<title>Node4</title>
<g id="a_Node000004"><a xlink:title=" ">
<polygon fill="white" stroke="none" points="111.5,-1035.25 0,-1035.25 0,-968.25 111.5,-968.25 111.5,-1035.25"/>
<text xml:space="preserve" text-anchor="start" x="4" y="-1021.5" font-family="Helvetica,sans-Serif" font-size="10.00">cdt::detail::Delaunay</text>
<text xml:space="preserve" text-anchor="start" x="4" y="-1008.75" font-family="Helvetica,sans-Serif" font-size="10.00">_state&lt; dimension &gt;</text>
<text xml:space="preserve" text-anchor="start" x="54.25" y="-992" font-family="Helvetica,sans-Serif" font-size="10.00"> </text>
<text xml:space="preserve" text-anchor="start" x="54.25" y="-975.25" font-family="Helvetica,sans-Serif" font-size="10.00"> </text>
<polygon fill="#666666" stroke="#666666" points="0,-1003.75 0,-1003.75 111.5,-1003.75 111.5,-1003.75 0,-1003.75"/>
<polygon fill="#666666" stroke="#666666" points="0,-987 0,-987 111.5,-987 111.5,-987 0,-987"/>
<polygon fill="none" stroke="#666666" points="0,-968.25 0,-1035.25 111.5,-1035.25 111.5,-968.25 0,-968.25"/>
</a>
</g>
</g>
<!-- Node4&#45;&gt;Node3 -->
<g id="edge3_Node000003_Node000004" class="edge">
<title>Node4&#45;&gt;Node3</title>
<g id="a_edge3_Node000003_Node000004"><a xlink:title=" ">
<path fill="none" stroke="orange" d="M55.75,-956.76C55.75,-940.39 55.75,-922.13 55.75,-907"/>
<polygon fill="orange" stroke="orange" points="52.25,-956.76 55.75,-966.76 59.25,-956.76 52.25,-956.76"/>
</a>
</g>
<text xml:space="preserve" text-anchor="start" x="58.75" y="-937.5" font-family="Helvetica,sans-Serif" font-size="10.00" fill="grey">&lt; 3 &gt;</text>
</g>
<!-- Node5 -->
<g id="Node000005" class="node">
<title>Node5</title>
<g id="a_Node000005"><a xlink:title=" ">
<polygon fill="white" stroke="none" points="231,-907.12 128.5,-907.12 128.5,-840.12 231,-840.12 231,-907.12"/>
<text xml:space="preserve" text-anchor="start" x="132.5" y="-893.38" font-family="Helvetica,sans-Serif" font-size="10.00">std::vector&lt; Vertex</text>
<text xml:space="preserve" text-anchor="start" x="155" y="-880.62" font-family="Helvetica,sans-Serif" font-size="10.00">_handle &gt;</text>
<text xml:space="preserve" text-anchor="start" x="141.62" y="-863.88" font-family="Helvetica,sans-Serif" font-size="10.00">+</text>
<text xml:space="preserve" text-anchor="start" x="163" y="-863.88" font-family="Helvetica,sans-Serif" font-size="10.00">elements</text>
<text xml:space="preserve" text-anchor="start" x="178.25" y="-847.12" font-family="Helvetica,sans-Serif" font-size="10.00"> </text>
<polygon fill="#666666" stroke="#666666" points="128.5,-875.62 128.5,-875.62 231,-875.62 231,-875.62 128.5,-875.62"/>
<polygon fill="#666666" stroke="#666666" points="128.5,-858.88 128.5,-858.88 161,-858.88 161,-858.88 128.5,-858.88"/>
<polygon fill="#666666" stroke="#666666" points="161,-858.88 161,-858.88 231,-858.88 231,-858.88 161,-858.88"/>
<polygon fill="none" stroke="#666666" points="128.5,-840.12 128.5,-907.12 231,-907.12 231,-840.12 128.5,-840.12"/>
</a>
</g>
</g>
<!-- Node5&#45;&gt;Node2 -->
<g id="edge4_Node000002_Node000005" class="edge">
<title>Node5&#45;&gt;Node2</title>
<g id="a_edge4_Node000002_Node000005"><a xlink:title=" ">
<path fill="none" stroke="#63b8ff" d="M205.93,-840.2C227.29,-814.25 258.62,-777.28 288,-746.75 342.91,-689.7 408.53,-628.95 459.14,-583.55"/>
<polygon fill="none" stroke="#63b8ff" points="459.12,-583.57 460.93,-576.59 468.06,-575.57 466.26,-582.55 459.12,-583.57"/>
</a>
</g>
<text xml:space="preserve" text-anchor="start" x="291" y="-777.88" font-family="Helvetica,sans-Serif" font-size="10.00" fill="grey">&#45;m_vertices</text>
</g>
<!-- Node6 -->
<g id="Node000006" class="node">
<title>Node6</title>
<g id="a_Node000006"><a xlink:title=" ">
<polygon fill="white" stroke="none" points="503.88,-1028.88 415.62,-1028.88 415.62,-974.62 503.88,-974.62 503.88,-1028.88"/>
<text xml:space="preserve" text-anchor="start" x="419.62" y="-1015.12" font-family="Helvetica,sans-Serif" font-size="10.00">std::vector&lt; T &gt;</text>
<text xml:space="preserve" text-anchor="start" x="458.25" y="-998.38" font-family="Helvetica,sans-Serif" font-size="10.00"> </text>
<text xml:space="preserve" text-anchor="start" x="458.25" y="-981.62" font-family="Helvetica,sans-Serif" font-size="10.00"> </text>
<polygon fill="#666666" stroke="#666666" points="415.62,-1010.12 415.62,-1010.12 503.88,-1010.12 503.88,-1010.12 415.62,-1010.12"/>
<polygon fill="#666666" stroke="#666666" points="415.62,-993.38 415.62,-993.38 503.88,-993.38 503.88,-993.38 415.62,-993.38"/>
<polygon fill="none" stroke="#666666" points="415.62,-974.62 415.62,-1028.88 503.88,-1028.88 503.88,-974.62 415.62,-974.62"/>
</a>
</g>
</g>
<!-- Node6&#45;&gt;Node5 -->
<g id="edge5_Node000005_Node000006" class="edge">
<title>Node6&#45;&gt;Node5</title>
<g id="a_edge5_Node000005_Node000006"><a xlink:title=" ">
<path fill="none" stroke="orange" d="M404.68,-996.02C360.75,-990.29 298.94,-977.71 251.5,-950.25 232.7,-939.37 215.76,-922.07 203.07,-906.76"/>
<polygon fill="orange" stroke="orange" points="404.15,-999.48 414.5,-997.22 405,-992.53 404.15,-999.48"/>
</a>
</g>
<text xml:space="preserve" text-anchor="start" x="254.5" y="-937.5" font-family="Helvetica,sans-Serif" font-size="10.00" fill="grey">&lt; Vertex_handle &gt;</text>
</g>
<!-- Node8 -->
<g id="Node000008" class="node">
<title>Node8</title>
<g id="a_Node000008"><a xlink:title=" ">
<polygon fill="white" stroke="none" points="388.38,-900.75 249.12,-900.75 249.12,-846.5 388.38,-846.5 388.38,-900.75"/>
<text xml:space="preserve" text-anchor="start" x="253.12" y="-887" font-family="Helvetica,sans-Serif" font-size="10.00">std::vector&lt; Cell_handle &gt;</text>
<text xml:space="preserve" text-anchor="start" x="271.44" y="-870.25" font-family="Helvetica,sans-Serif" font-size="10.00">+</text>
<text xml:space="preserve" text-anchor="start" x="302" y="-870.25" font-family="Helvetica,sans-Serif" font-size="10.00">elements</text>
<text xml:space="preserve" text-anchor="start" x="317.25" y="-853.5" font-family="Helvetica,sans-Serif" font-size="10.00"> </text>
<polygon fill="#666666" stroke="#666666" points="249.12,-882 249.12,-882 388.38,-882 388.38,-882 249.12,-882"/>
<polygon fill="#666666" stroke="#666666" points="249.12,-865.25 249.12,-865.25 300,-865.25 300,-865.25 249.12,-865.25"/>
<polygon fill="#666666" stroke="#666666" points="300,-865.25 300,-865.25 388.38,-865.25 388.38,-865.25 300,-865.25"/>
<polygon fill="none" stroke="#666666" points="249.12,-846.5 249.12,-900.75 388.38,-900.75 388.38,-846.5 249.12,-846.5"/>
</a>
</g>
</g>
<!-- Node6&#45;&gt;Node8 -->
<g id="edge8_Node000008_Node000006" class="edge">
<title>Node6&#45;&gt;Node8</title>
<g id="a_edge8_Node000008_Node000006"><a xlink:title=" ">
<path fill="none" stroke="orange" d="M405.77,-975.58C393.34,-968.4 380.72,-959.87 370.25,-950.25 354.81,-936.06 341.6,-916.4 332.43,-900.68"/>
<polygon fill="orange" stroke="orange" points="403.87,-978.53 414.32,-980.31 407.26,-972.4 403.87,-978.53"/>
</a>
</g>
<text xml:space="preserve" text-anchor="start" x="373.25" y="-937.5" font-family="Helvetica,sans-Serif" font-size="10.00" fill="grey">&lt; Cell_handle &gt;</text>
</g>
<!-- Node9 -->
<g id="Node000009" class="node">
<title>Node9</title>
<g id="a_Node000009"><a xlink:title=" ">
<polygon fill="white" stroke="none" points="537.25,-907.12 406.25,-907.12 406.25,-840.12 537.25,-840.12 537.25,-907.12"/>
<text xml:space="preserve" text-anchor="start" x="410.25" y="-893.38" font-family="Helvetica,sans-Serif" font-size="10.00">std::vector&lt; Face_handle</text>
<text xml:space="preserve" text-anchor="start" x="447.38" y="-880.62" font-family="Helvetica,sans-Serif" font-size="10.00">_t&lt; 3 &gt; &gt;</text>
<text xml:space="preserve" text-anchor="start" x="426.5" y="-863.88" font-family="Helvetica,sans-Serif" font-size="10.00">+</text>
<text xml:space="preserve" text-anchor="start" x="455" y="-863.88" font-family="Helvetica,sans-Serif" font-size="10.00">elements</text>
<text xml:space="preserve" text-anchor="start" x="470.25" y="-847.12" font-family="Helvetica,sans-Serif" font-size="10.00"> </text>
<polygon fill="#666666" stroke="#666666" points="406.25,-875.62 406.25,-875.62 537.25,-875.62 537.25,-875.62 406.25,-875.62"/>
<polygon fill="#666666" stroke="#666666" points="406.25,-858.88 406.25,-858.88 453,-858.88 453,-858.88 406.25,-858.88"/>
<polygon fill="#666666" stroke="#666666" points="453,-858.88 453,-858.88 537.25,-858.88 537.25,-858.88 453,-858.88"/>
<polygon fill="none" stroke="#666666" points="406.25,-840.12 406.25,-907.12 537.25,-907.12 537.25,-840.12 406.25,-840.12"/>
</a>
</g>
</g>
<!-- Node6&#45;&gt;Node9 -->
<g id="edge10_Node000009_Node000006" class="edge">
<title>Node6&#45;&gt;Node9</title>
<g id="a_edge10_Node000009_Node000006"><a xlink:title=" ">
<path fill="none" stroke="orange" d="M459.08,-963.47C459.22,-953.1 459.68,-941.84 460.75,-931.5 461.58,-923.5 462.96,-914.94 464.47,-906.96"/>
<polygon fill="orange" stroke="orange" points="455.58,-963.18 459.05,-973.19 462.58,-963.21 455.58,-963.18"/>
</a>
</g>
<text xml:space="preserve" text-anchor="start" x="463.75" y="-937.5" font-family="Helvetica,sans-Serif" font-size="10.00" fill="grey">&lt; Face_handle_t&lt; 3 &gt; &gt;</text>
</g>
<!-- Node10 -->
<g id="Node000010" class="node">
<title>Node10</title>
<g id="a_Node000010"><a xlink:title=" ">
<polygon fill="white" stroke="none" points="662.62,-907.12 554.88,-907.12 554.88,-840.12 662.62,-840.12 662.62,-907.12"/>
<text xml:space="preserve" text-anchor="start" x="558.88" y="-893.38" font-family="Helvetica,sans-Serif" font-size="10.00">std::vector&lt; Volume</text>
<text xml:space="preserve" text-anchor="start" x="587.75" y="-880.62" font-family="Helvetica,sans-Serif" font-size="10.00">_entry &gt;</text>
<text xml:space="preserve" text-anchor="start" x="569.31" y="-863.88" font-family="Helvetica,sans-Serif" font-size="10.00">+</text>
<text xml:space="preserve" text-anchor="start" x="592" y="-863.88" font-family="Helvetica,sans-Serif" font-size="10.00">elements</text>
<text xml:space="preserve" text-anchor="start" x="607.25" y="-847.12" font-family="Helvetica,sans-Serif" font-size="10.00"> </text>
<polygon fill="#666666" stroke="#666666" points="554.88,-875.62 554.88,-875.62 662.62,-875.62 662.62,-875.62 554.88,-875.62"/>
<polygon fill="#666666" stroke="#666666" points="554.88,-858.88 554.88,-858.88 590,-858.88 590,-858.88 554.88,-858.88"/>
<polygon fill="#666666" stroke="#666666" points="590,-858.88 590,-858.88 662.62,-858.88 662.62,-858.88 590,-858.88"/>
<polygon fill="none" stroke="#666666" points="554.88,-840.12 554.88,-907.12 662.62,-907.12 662.62,-840.12 554.88,-840.12"/>
</a>
</g>
</g>
<!-- Node6&#45;&gt;Node10 -->
<g id="edge12_Node000010_Node000006" class="edge">
<title>Node6&#45;&gt;Node10</title>
<g id="a_edge12_Node000010_Node000006"><a xlink:title=" ">
<path fill="none" stroke="orange" d="M514.52,-990.53C539.66,-983.23 567.98,-970.9 586.75,-950.25 597.51,-938.41 603.03,-921.6 605.85,-906.83"/>
<polygon fill="orange" stroke="orange" points="513.82,-987.1 505.07,-993.06 515.63,-993.86 513.82,-987.1"/>
</a>
</g>
<text xml:space="preserve" text-anchor="start" x="601.08" y="-937.5" font-family="Helvetica,sans-Serif" font-size="10.00" fill="grey">&lt; Volume_entry &gt;</text>
</g>
<!-- Node11 -->
<g id="Node000011" class="node">
<title>Node11</title>
<g id="a_Node000011"><a xlink:title=" ">
<polygon fill="white" stroke="none" points="814.38,-907.12 681.12,-907.12 681.12,-840.12 814.38,-840.12 814.38,-907.12"/>
<text xml:space="preserve" text-anchor="start" x="685.12" y="-893.38" font-family="Helvetica,sans-Serif" font-size="10.00">std::vector&lt; Edge_handle</text>
<text xml:space="preserve" text-anchor="start" x="723.38" y="-880.62" font-family="Helvetica,sans-Serif" font-size="10.00">_t&lt; 3 &gt; &gt;</text>
<text xml:space="preserve" text-anchor="start" x="701.94" y="-863.88" font-family="Helvetica,sans-Serif" font-size="10.00">+</text>
<text xml:space="preserve" text-anchor="start" x="731" y="-863.88" font-family="Helvetica,sans-Serif" font-size="10.00">elements</text>
<text xml:space="preserve" text-anchor="start" x="746.25" y="-847.12" font-family="Helvetica,sans-Serif" font-size="10.00"> </text>
<polygon fill="#666666" stroke="#666666" points="681.12,-875.62 681.12,-875.62 814.38,-875.62 814.38,-875.62 681.12,-875.62"/>
<polygon fill="#666666" stroke="#666666" points="681.12,-858.88 681.12,-858.88 729,-858.88 729,-858.88 681.12,-858.88"/>
<polygon fill="#666666" stroke="#666666" points="729,-858.88 729,-858.88 814.38,-858.88 814.38,-858.88 729,-858.88"/>
<polygon fill="none" stroke="#666666" points="681.12,-840.12 681.12,-907.12 814.38,-907.12 814.38,-840.12 681.12,-840.12"/>
</a>
</g>
</g>
<!-- Node6&#45;&gt;Node11 -->
<g id="edge14_Node000011_Node000006" class="edge">
<title>Node6&#45;&gt;Node11</title>
<g id="a_edge14_Node000011_Node000006"><a xlink:title=" ">
<path fill="none" stroke="orange" d="M514.75,-1000.66C566.18,-998.07 643.06,-987.49 697.75,-950.25 713.36,-939.62 725.32,-922.34 733.63,-906.98"/>
<polygon fill="orange" stroke="orange" points="514.9,-997.15 505.05,-1001.06 515.19,-1004.15 514.9,-997.15"/>
</a>
</g>
<text xml:space="preserve" text-anchor="start" x="720.32" y="-937.5" font-family="Helvetica,sans-Serif" font-size="10.00" fill="grey">&lt; Edge_handle_t&lt; 3 &gt; &gt;</text>
</g>
<!-- Node7 -->
<g id="Node000007" class="node">
<title>Node7</title>
<g id="a_Node000007"><a xlink:title=" ">
<polygon fill="white" stroke="none" points="466.75,-1144.25 452.75,-1144.25 452.75,-1090 466.75,-1090 466.75,-1144.25"/>
<text xml:space="preserve" text-anchor="start" x="456.75" y="-1130.5" font-family="Helvetica,sans-Serif" font-size="10.00">T</text>
<text xml:space="preserve" text-anchor="start" x="458.25" y="-1113.75" font-family="Helvetica,sans-Serif" font-size="10.00"> </text>
<text xml:space="preserve" text-anchor="start" x="458.25" y="-1097" font-family="Helvetica,sans-Serif" font-size="10.00"> </text>
<polygon fill="#bfbfbf" stroke="#bfbfbf" points="452.75,-1125.5 452.75,-1125.5 466.75,-1125.5 466.75,-1125.5 452.75,-1125.5"/>
<polygon fill="#bfbfbf" stroke="#bfbfbf" points="452.75,-1108.75 452.75,-1108.75 466.75,-1108.75 466.75,-1108.75 452.75,-1108.75"/>
<polygon fill="none" stroke="#bfbfbf" points="452.75,-1090 452.75,-1144.25 466.75,-1144.25 466.75,-1090 452.75,-1090"/>
</a>
</g>
</g>
<!-- Node7&#45;&gt;Node6 -->
<g id="edge6_Node000006_Node000007" class="edge">
<title>Node7&#45;&gt;Node6</title>
<g id="a_edge6_Node000006_Node000007"><a xlink:title=" ">
<path fill="none" stroke="#63b8ff" d="M459.75,-1090.11C459.75,-1075.71 459.75,-1057.53 459.75,-1041.48"/>
<polygon fill="none" stroke="#63b8ff" points="459.75,-1041.54 455.75,-1035.54 459.75,-1029.54 463.75,-1035.54 459.75,-1041.54"/>
</a>
</g>
<text xml:space="preserve" text-anchor="start" x="462.75" y="-1059.25" font-family="Helvetica,sans-Serif" font-size="10.00" fill="grey">+elements</text>
</g>
<!-- Node8&#45;&gt;Node2 -->
<g id="edge7_Node000002_Node000008" class="edge">
<title>Node8&#45;&gt;Node2</title>
<g id="a_edge7_Node000002_Node000008"><a xlink:title=" ">
<path fill="none" stroke="#63b8ff" d="M334.72,-846.69C361.11,-803.82 415.51,-715.44 461.79,-640.26"/>
<polygon fill="none" stroke="#63b8ff" points="461.79,-640.26 461.53,-633.06 468.08,-630.04 468.34,-637.25 461.79,-640.26"/>
</a>
</g>
<text xml:space="preserve" text-anchor="start" x="393.56" y="-803" font-family="Helvetica,sans-Serif" font-size="10.00" fill="grey">&#45;m_cells</text>
<text xml:space="preserve" text-anchor="start" x="393.56" y="-786.25" font-family="Helvetica,sans-Serif" font-size="10.00" fill="grey">&#45;m_one_three</text>
<text xml:space="preserve" text-anchor="start" x="393.56" y="-769.5" font-family="Helvetica,sans-Serif" font-size="10.00" fill="grey">&#45;m_three_one</text>
<text xml:space="preserve" text-anchor="start" x="393.56" y="-752.75" font-family="Helvetica,sans-Serif" font-size="10.00" fill="grey">&#45;m_two_two</text>
</g>
<!-- Node9&#45;&gt;Node2 -->
<g id="edge9_Node000002_Node000009" class="edge">
<title>Node9&#45;&gt;Node2</title>
<g id="a_edge9_Node000002_Node000009"><a xlink:title=" ">
<path fill="none" stroke="#63b8ff" d="M477.93,-840.3C482.58,-816.05 489.39,-780.43 496.84,-741.5"/>
<polygon fill="none" stroke="#63b8ff" points="496.85,-741.42 494.05,-734.78 499.11,-729.64 501.91,-736.28 496.85,-741.42"/>
</a>
</g>
<text xml:space="preserve" text-anchor="start" x="497.07" y="-777.88" font-family="Helvetica,sans-Serif" font-size="10.00" fill="grey">&#45;m_faces</text>
</g>
<!-- Node10&#45;&gt;Node2 -->
<g id="edge11_Node000002_Node000010" class="edge">
<title>Node10&#45;&gt;Node2</title>
<g id="a_edge11_Node000002_Node000010"><a xlink:title=" ">
<path fill="none" stroke="#63b8ff" d="M602.66,-840.3C598.08,-816.05 591.37,-780.43 584.02,-741.5"/>
<polygon fill="none" stroke="#63b8ff" points="584.01,-741.43 578.97,-736.27 581.79,-729.64 586.83,-734.79 584.01,-741.43"/>
</a>
</g>
<text xml:space="preserve" text-anchor="start" x="600.35" y="-777.88" font-family="Helvetica,sans-Serif" font-size="10.00" fill="grey">&#45;m_spacelike_facets</text>
</g>
<!-- Node11&#45;&gt;Node2 -->
<g id="edge13_Node000002_Node000011" class="edge">
<title>Node11&#45;&gt;Node2</title>
<g id="a_edge13_Node000002_Node000011"><a xlink:title=" ">
<path fill="none" stroke="#63b8ff" d="M739.76,-840.31C732.67,-814.25 721.06,-777.09 705.75,-746.75 682.16,-700.01 650.13,-652.08 620.57,-611.81"/>
<polygon fill="none" stroke="#63b8ff" points="620.59,-611.85 613.8,-609.41 613.44,-602.2 620.23,-604.64 620.59,-611.85"/>
</a>
</g>
<text xml:space="preserve" text-anchor="start" x="735.01" y="-794.62" font-family="Helvetica,sans-Serif" font-size="10.00" fill="grey">&#45;m_edges</text>
<text xml:space="preserve" text-anchor="start" x="735.01" y="-777.88" font-family="Helvetica,sans-Serif" font-size="10.00" fill="grey">&#45;m_spacelike_edges</text>
<text xml:space="preserve" text-anchor="start" x="735.01" y="-761.12" font-family="Helvetica,sans-Serif" font-size="10.00" fill="grey">&#45;m_timelike_edges</text>
</g>
<!-- Node12 -->
<g id="Node000012" class="node">
<title>Node12</title>
<g id="a_Node000012"><a xlink:href="classcdt_1_1foliated__triangulations_1_1_foliated_triangulation.html" target="_top" xlink:title=" ">
<polygon fill="white" stroke="none" points="971.38,-913.5 832.12,-913.5 832.12,-833.75 971.38,-833.75 971.38,-913.5"/>
<text xml:space="preserve" text-anchor="start" x="836.12" y="-899.75" font-family="Helvetica,sans-Serif" font-size="10.00">cdt::foliated_triangulations</text>
<text xml:space="preserve" text-anchor="start" x="836.12" y="-887" font-family="Helvetica,sans-Serif" font-size="10.00">::FoliatedTriangulation&lt;</text>
<text xml:space="preserve" text-anchor="start" x="869.12" y="-874.25" font-family="Helvetica,sans-Serif" font-size="10.00"> dimension &gt;</text>
<text xml:space="preserve" text-anchor="start" x="900.25" y="-857.5" font-family="Helvetica,sans-Serif" font-size="10.00"> </text>
<text xml:space="preserve" text-anchor="start" x="900.25" y="-840.75" font-family="Helvetica,sans-Serif" font-size="10.00"> </text>
<polygon fill="#666666" stroke="#666666" points="832.12,-869.25 832.12,-869.25 971.38,-869.25 971.38,-869.25 832.12,-869.25"/>
<polygon fill="#666666" stroke="#666666" points="832.12,-852.5 832.12,-852.5 971.38,-852.5 971.38,-852.5 832.12,-852.5"/>
<polygon fill="none" stroke="#666666" points="832.12,-833.75 832.12,-913.5 971.38,-913.5 971.38,-833.75 832.12,-833.75"/>
</a>
</g>
</g>
<!-- Node12&#45;&gt;Node2 -->
<g id="edge15_Node000002_Node000012" class="edge">
<title>Node12&#45;&gt;Node2</title>
<g id="a_edge15_Node000002_Node000012"><a xlink:title=" ">
<path fill="none" stroke="orange" d="M884.06,-823.39C873.76,-798.82 859.15,-769.55 840.75,-746.75 836.25,-741.17 700.05,-635.33 612.73,-567.69"/>
<polygon fill="orange" stroke="orange" points="880.77,-824.6 887.78,-832.55 887.26,-821.97 880.77,-824.6"/>
</a>
</g>
<text xml:space="preserve" text-anchor="start" x="883.54" y="-777.88" font-family="Helvetica,sans-Serif" font-size="10.00" fill="grey">&lt; 3 &gt;</text>
</g>
<!-- Node13 -->
<g id="Node000013" class="node">
<title>Node13</title>
<g id="a_Node000013"><a xlink:href="structcdt_1_1_geometry_3_013_01_4.html" target="_top" xlink:title="3D Geometry">
<polygon fill="white" stroke="none" points="934.88,-621.88 828.62,-621.88 828.62,-400.12 934.88,-400.12 934.88,-621.88"/>
<text xml:space="preserve" text-anchor="start" x="832.62" y="-608.12" font-family="Helvetica,sans-Serif" font-size="10.00">cdt::Geometry&lt; 3 &gt;</text>
<text xml:space="preserve" text-anchor="start" x="840.06" y="-591.38" font-family="Helvetica,sans-Serif" font-size="10.00">+</text>
<text xml:space="preserve" text-anchor="start" x="859.75" y="-591.38" font-family="Helvetica,sans-Serif" font-size="10.00">N0</text>
<text xml:space="preserve" text-anchor="start" x="840.06" y="-574.62" font-family="Helvetica,sans-Serif" font-size="10.00">+</text>
<text xml:space="preserve" text-anchor="start" x="859.75" y="-574.62" font-family="Helvetica,sans-Serif" font-size="10.00">N1</text>
<text xml:space="preserve" text-anchor="start" x="840.06" y="-557.88" font-family="Helvetica,sans-Serif" font-size="10.00">+</text>
<text xml:space="preserve" text-anchor="start" x="859.75" y="-557.88" font-family="Helvetica,sans-Serif" font-size="10.00">N1_SL</text>
<text xml:space="preserve" text-anchor="start" x="840.06" y="-541.12" font-family="Helvetica,sans-Serif" font-size="10.00">+</text>
<text xml:space="preserve" text-anchor="start" x="859.75" y="-541.12" font-family="Helvetica,sans-Serif" font-size="10.00">N1_TL</text>
<text xml:space="preserve" text-anchor="start" x="840.06" y="-524.38" font-family="Helvetica,sans-Serif" font-size="10.00">+</text>
<text xml:space="preserve" text-anchor="start" x="859.75" y="-524.38" font-family="Helvetica,sans-Serif" font-size="10.00">N2</text>
<text xml:space="preserve" text-anchor="start" x="840.06" y="-507.62" font-family="Helvetica,sans-Serif" font-size="10.00">+</text>
<text xml:space="preserve" text-anchor="start" x="859.75" y="-507.62" font-family="Helvetica,sans-Serif" font-size="10.00">N3</text>
<text xml:space="preserve" text-anchor="start" x="840.06" y="-490.88" font-family="Helvetica,sans-Serif" font-size="10.00">+</text>
<text xml:space="preserve" text-anchor="start" x="859.75" y="-490.88" font-family="Helvetica,sans-Serif" font-size="10.00">N3_13</text>
<text xml:space="preserve" text-anchor="start" x="840.06" y="-474.12" font-family="Helvetica,sans-Serif" font-size="10.00">+</text>
<text xml:space="preserve" text-anchor="start" x="859.75" y="-474.12" font-family="Helvetica,sans-Serif" font-size="10.00">N3_22</text>
<text xml:space="preserve" text-anchor="start" x="840.06" y="-457.38" font-family="Helvetica,sans-Serif" font-size="10.00">+</text>
<text xml:space="preserve" text-anchor="start" x="859.75" y="-457.38" font-family="Helvetica,sans-Serif" font-size="10.00">N3_31</text>
<text xml:space="preserve" text-anchor="start" x="840.06" y="-440.62" font-family="Helvetica,sans-Serif" font-size="10.00">+</text>
<text xml:space="preserve" text-anchor="start" x="859.75" y="-440.62" font-family="Helvetica,sans-Serif" font-size="10.00">N3_31_13</text>
<text xml:space="preserve" text-anchor="start" x="840.06" y="-423.88" font-family="Helvetica,sans-Serif" font-size="10.00">+</text>
<text xml:space="preserve" text-anchor="start" x="859.75" y="-423.88" font-family="Helvetica,sans-Serif" font-size="10.00">Geometry()</text>
<text xml:space="preserve" text-anchor="start" x="840.06" y="-407.12" font-family="Helvetica,sans-Serif" font-size="10.00">+</text>
<text xml:space="preserve" text-anchor="start" x="859.75" y="-407.12" font-family="Helvetica,sans-Serif" font-size="10.00">Geometry()</text>
<polygon fill="#666666" stroke="#666666" points="828.62,-603.12 828.62,-603.12 934.88,-603.12 934.88,-603.12 828.62,-603.12"/>
<polygon fill="#666666" stroke="#666666" points="828.62,-435.62 828.62,-435.62 857.75,-435.62 857.75,-435.62 828.62,-435.62"/>
<polygon fill="#666666" stroke="#666666" points="857.75,-435.62 857.75,-435.62 934.88,-435.62 934.88,-435.62 857.75,-435.62"/>
<polygon fill="none" stroke="#666666" points="828.62,-400.12 828.62,-621.88 934.88,-621.88 934.88,-400.12 828.62,-400.12"/>
</a>
</g>
</g>
<!-- Node13&#45;&gt;Node1 -->
<g id="edge16_Node000001_Node000013" class="edge">
<title>Node13&#45;&gt;Node1</title>
<g id="a_edge16_Node000001_Node000013"><a xlink:title=" ">
<path fill="none" stroke="#63b8ff" d="M881.75,-400.14C881.75,-353.84 881.75,-299.59 881.75,-251.24"/>
<polygon fill="none" stroke="#63b8ff" points="881.75,-251.33 877.75,-245.33 881.75,-239.33 885.75,-245.33 881.75,-251.33"/>
</a>
</g>
<text xml:space="preserve" text-anchor="start" x="884.75" y="-262.5" font-family="Helvetica,sans-Serif" font-size="10.00" fill="grey">&#45;m_geometry</text>
</g>
<!-- Node14 -->
<g id="Node000014" class="node">
<title>Node14</title>
<g id="a_Node000014"><a xlink:href="structcdt_1_1_geometry.html" target="_top" xlink:title=" ">
<polygon fill="white" stroke="none" points="1140.38,-900.75 989.12,-900.75 989.12,-846.5 1140.38,-846.5 1140.38,-900.75"/>
<text xml:space="preserve" text-anchor="start" x="993.12" y="-887" font-family="Helvetica,sans-Serif" font-size="10.00">cdt::Geometry&lt; dimension &gt;</text>
<text xml:space="preserve" text-anchor="start" x="1063.25" y="-870.25" font-family="Helvetica,sans-Serif" font-size="10.00"> </text>
<text xml:space="preserve" text-anchor="start" x="1063.25" y="-853.5" font-family="Helvetica,sans-Serif" font-size="10.00"> </text>
<polygon fill="#666666" stroke="#666666" points="989.12,-882 989.12,-882 1140.38,-882 1140.38,-882 989.12,-882"/>
<polygon fill="#666666" stroke="#666666" points="989.12,-865.25 989.12,-865.25 1140.38,-865.25 1140.38,-865.25 989.12,-865.25"/>
<polygon fill="none" stroke="#666666" points="989.12,-846.5 989.12,-900.75 1140.38,-900.75 1140.38,-846.5 989.12,-846.5"/>
</a>
</g>
</g>
<!-- Node14&#45;&gt;Node13 -->
<g id="edge17_Node000013_Node000014" class="edge">
<title>Node14&#45;&gt;Node13</title>
<g id="a_edge17_Node000013_Node000014"><a xlink:title=" ">
<path fill="none" stroke="orange" d="M1028.77,-838.5C1001.84,-811.14 965.98,-770.53 943.75,-728.75 926.19,-695.75 913.11,-657.21 903.6,-621.85"/>
<polygon fill="orange" stroke="orange" points="1026.2,-840.88 1035.74,-845.48 1031.15,-835.93 1026.2,-840.88"/>
</a>
</g>
<text xml:space="preserve" text-anchor="start" x="1009.49" y="-777.88" font-family="Helvetica,sans-Serif" font-size="10.00" fill="grey">&lt; 3 &gt;</text>
</g>
<!-- Node15 -->
<g id="Node000015" class="node">
<title>Node15</title>
<g id="a_Node000015"><a xlink:href="classcdt_1_1manifolds_1_1_manifold.html" target="_top" xlink:title=" ">
<polygon fill="white" stroke="none" points="1079,-544.5 952.5,-544.5 952.5,-477.5 1079,-477.5 1079,-544.5"/>
<text xml:space="preserve" text-anchor="start" x="956.5" y="-530.75" font-family="Helvetica,sans-Serif" font-size="10.00">cdt::manifolds::Manifold</text>
<text xml:space="preserve" text-anchor="start" x="979" y="-518" font-family="Helvetica,sans-Serif" font-size="10.00">&lt; dimension &gt;</text>
<text xml:space="preserve" text-anchor="start" x="1014.25" y="-501.25" font-family="Helvetica,sans-Serif" font-size="10.00"> </text>
<text xml:space="preserve" text-anchor="start" x="1014.25" y="-484.5" font-family="Helvetica,sans-Serif" font-size="10.00"> </text>
<polygon fill="#666666" stroke="#666666" points="952.5,-513 952.5,-513 1079,-513 1079,-513 952.5,-513"/>
<polygon fill="#666666" stroke="#666666" points="952.5,-496.25 952.5,-496.25 1079,-496.25 1079,-496.25 952.5,-496.25"/>
<polygon fill="none" stroke="#666666" points="952.5,-477.5 952.5,-544.5 1079,-544.5 1079,-477.5 952.5,-477.5"/>
</a>
</g>
</g>
<!-- Node15&#45;&gt;Node1 -->
<g id="edge18_Node000001_Node000015" class="edge">
<title>Node15&#45;&gt;Node1</title>
<g id="a_edge18_Node000001_Node000015"><a xlink:title=" ">
<path fill="none" stroke="orange" d="M1009.6,-466.18C1001.51,-414.75 985.02,-327.46 957.75,-256.5 955.42,-250.43 952.86,-244.3 950.13,-238.18"/>
<polygon fill="orange" stroke="orange" points="1006.14,-466.67 1011.11,-476.03 1013.05,-465.61 1006.14,-466.67"/>
</a>
</g>
<text xml:space="preserve" text-anchor="start" x="965.61" y="-262.5" font-family="Helvetica,sans-Serif" font-size="10.00" fill="grey">&lt; 3 &gt;</text>
</g>
</g>
</svg>
