<?xml version="1.0" encoding="UTF-8" standalone="no"?>
<!DOCTYPE svg PUBLIC "-//W3C//DTD SVG 1.1//EN"
 "http://www.w3.org/Graphics/SVG/1.1/DTD/svg11.dtd">
<!-- Generated by graphviz version 15.1.0 (20260618.0150)
 -->
<!-- Title: move_tracker::MoveTracker&lt; ManifoldType &gt; Pages: 1 -->
<svg width="209pt" height="599pt"
 viewBox="0.00 0.00 209.00 599.00" xmlns="http://www.w3.org/2000/svg" xmlns:xlink="http://www.w3.org/1999/xlink">
<g id="graph0" class="graph" transform="scale(1 1) rotate(0) translate(4 595)">
<title>move_tracker::MoveTracker&lt; ManifoldType &gt;</title>
<!-- Node1 -->
<g id="Node000001" class="node">
<title>Node1</title>
<g id="a_Node000001"><a xlink:title="The data and methods to track ergodic moves.">
<polygon fill="#999999" stroke="none" points="143,-234.5 0.75,-234.5 0.75,0 143,0 143,-234.5"/>
<text xml:space="preserve" text-anchor="start" x="4.75" y="-220.75" font-family="Helvetica,sans-Serif" font-size="10.00">move_tracker::MoveTracker</text>
<text xml:space="preserve" text-anchor="start" x="28" y="-208" font-family="Helvetica,sans-Serif" font-size="10.00">&lt; ManifoldType &gt;</text>
<text xml:space="preserve" text-anchor="start" x="70.38" y="-191.25" font-family="Helvetica,sans-Serif" font-size="10.00"> </text>
<text xml:space="preserve" text-anchor="start" x="12.75" y="-174.5" font-family="Helvetica,sans-Serif" font-size="10.00">+</text>
<text xml:space="preserve" text-anchor="start" x="33" y="-174.5" font-family="Helvetica,sans-Serif" font-size="10.00">four_four_moves()</text>
<text xml:space="preserve" text-anchor="start" x="12.75" y="-157.75" font-family="Helvetica,sans-Serif" font-size="10.00">+</text>
<text xml:space="preserve" text-anchor="start" x="33" y="-157.75" font-family="Helvetica,sans-Serif" font-size="10.00">four_four_moves()</text>
<text xml:space="preserve" text-anchor="start" x="12.75" y="-141" font-family="Helvetica,sans-Serif" font-size="10.00">+</text>
<text xml:space="preserve" text-anchor="start" x="33" y="-141" font-family="Helvetica,sans-Serif" font-size="10.00">moves_view()</text>
<text xml:space="preserve" text-anchor="start" x="12.75" y="-124.25" font-family="Helvetica,sans-Serif" font-size="10.00">+</text>
<text xml:space="preserve" text-anchor="start" x="33" y="-124.25" font-family="Helvetica,sans-Serif" font-size="10.00">operator+=()</text>
<text xml:space="preserve" text-anchor="start" x="12.75" y="-107.5" font-family="Helvetica,sans-Serif" font-size="10.00">+</text>
<text xml:space="preserve" text-anchor="start" x="33" y="-107.5" font-family="Helvetica,sans-Serif" font-size="10.00">operator[]()</text>
<text xml:space="preserve" text-anchor="start" x="12.75" y="-90.75" font-family="Helvetica,sans-Serif" font-size="10.00">+</text>
<text xml:space="preserve" text-anchor="start" x="33" y="-90.75" font-family="Helvetica,sans-Serif" font-size="10.00">operator[]()</text>
<text xml:space="preserve" text-anchor="start" x="12.75" y="-74" font-family="Helvetica,sans-Serif" font-size="10.00">+</text>
<text xml:space="preserve" text-anchor="start" x="33" y="-74" font-family="Helvetica,sans-Serif" font-size="10.00">operator[]()</text>
<text xml:space="preserve" text-anchor="start" x="12.75" y="-57.25" font-family="Helvetica,sans-Serif" font-size="10.00">+</text>
<text xml:space="preserve" text-anchor="start" x="33" y="-57.25" font-family="Helvetica,sans-Serif" font-size="10.00">reset()</text>
<text xml:space="preserve" text-anchor="start" x="12.75" y="-40.5" font-family="Helvetica,sans-Serif" font-size="10.00">+</text>
<text xml:space="preserve" text-anchor="start" x="33" y="-40.5" font-family="Helvetica,sans-Serif" font-size="10.00">six_two_moves()</text>
<text xml:space="preserve" text-anchor="start" x="12.75" y="-23.75" font-family="Helvetica,sans-Serif" font-size="10.00">+</text>
<text xml:space="preserve" text-anchor="start" x="33" y="-23.75" font-family="Helvetica,sans-Serif" font-size="10.00">six_two_moves()</text>
<text xml:space="preserve" text-anchor="start" x="33" y="-7" font-family="Helvetica,sans-Serif" font-size="10.00">and 8 more...</text>
<polygon fill="#666666" stroke="#666666" points="0.75,-203 0.75,-203 143,-203 143,-203 0.75,-203"/>
<polygon fill="#666666" stroke="#666666" points="0.75,-186.25 0.75,-186.25 143,-186.25 143,-186.25 0.75,-186.25"/>
<polygon fill="none" stroke="#666666" points="0.75,0 0.75,-234.5 143,-234.5 143,0 0.75,0"/>
</a>
</g>
</g>
<!-- Node2 -->
<g id="Node000002" class="node">
<title>Node2</title>
<g id="a_Node000002"><a xlink:title=" ">
<polygon fill="white" stroke="none" points="143.75,-356.25 0,-356.25 0,-289.25 143.75,-289.25 143.75,-356.25"/>
<text xml:space="preserve" text-anchor="start" x="4" y="-342.5" font-family="Helvetica,sans-Serif" font-size="10.00">std::array&lt; Int_precision,</text>
<text xml:space="preserve" text-anchor="start" x="4" y="-329.75" font-family="Helvetica,sans-Serif" font-size="10.00"> NUMBER_OF_3D_MOVES &gt;</text>
<text xml:space="preserve" text-anchor="start" x="23.44" y="-313" font-family="Helvetica,sans-Serif" font-size="10.00">+</text>
<text xml:space="preserve" text-anchor="start" x="55.12" y="-313" font-family="Helvetica,sans-Serif" font-size="10.00">elements</text>
<text xml:space="preserve" text-anchor="start" x="70.38" y="-296.25" font-family="Helvetica,sans-Serif" font-size="10.00"> </text>
<polygon fill="#666666" stroke="#666666" points="0,-324.75 0,-324.75 143.75,-324.75 143.75,-324.75 0,-324.75"/>
<polygon fill="#666666" stroke="#666666" points="0,-308 0,-308 53.12,-308 53.12,-308 0,-308"/>
<polygon fill="#666666" stroke="#666666" points="53.12,-308 53.12,-308 143.75,-308 143.75,-308 53.12,-308"/>
<polygon fill="none" stroke="#666666" points="0,-289.25 0,-356.25 143.75,-356.25 143.75,-289.25 0,-289.25"/>
</a>
</g>
</g>
<!-- Node2&#45;&gt;Node1 -->
<g id="edge1_Node000001_Node000002" class="edge">
<title>Node2&#45;&gt;Node1</title>
<g id="a_edge1_Node000001_Node000002"><a xlink:title=" ">
<path fill="none" stroke="#63b8ff" d="M71.88,-289.5C71.88,-277.3 71.88,-262.54 71.88,-246.87"/>
<polygon fill="none" stroke="#63b8ff" points="71.88,-247.03 67.88,-241.03 71.88,-235.03 75.88,-241.03 71.88,-247.03"/>
</a>
</g>
<text xml:space="preserve" text-anchor="start" x="74.88" y="-258.5" font-family="Helvetica,sans-Serif" font-size="10.00" fill="grey">&#45;moves</text>
</g>
<!-- Node3 -->
<g id="Node000003" class="node">
<title>Node3</title>
<g id="a_Node000003"><a xlink:title=" ">
<polygon fill="white" stroke="none" points="113.38,-482 30.38,-482 30.38,-427.75 113.38,-427.75 113.38,-482"/>
<text xml:space="preserve" text-anchor="start" x="34.38" y="-468.25" font-family="Helvetica,sans-Serif" font-size="10.00">std::array&lt; T &gt;</text>
<text xml:space="preserve" text-anchor="start" x="70.38" y="-451.5" font-family="Helvetica,sans-Serif" font-size="10.00"> </text>
<text xml:space="preserve" text-anchor="start" x="70.38" y="-434.75" font-family="Helvetica,sans-Serif" font-size="10.00"> </text>
<polygon fill="#666666" stroke="#666666" points="30.38,-463.25 30.38,-463.25 113.38,-463.25 113.38,-463.25 30.38,-463.25"/>
<polygon fill="#666666" stroke="#666666" points="30.38,-446.5 30.38,-446.5 113.38,-446.5 113.38,-446.5 30.38,-446.5"/>
<polygon fill="none" stroke="#666666" points="30.38,-427.75 30.38,-482 113.38,-482 113.38,-427.75 30.38,-427.75"/>
</a>
</g>
</g>
<!-- Node3&#45;&gt;Node2 -->
<g id="edge2_Node000002_Node000003" class="edge">
<title>Node3&#45;&gt;Node2</title>
<g id="a_edge2_Node000002_Node000003"><a xlink:title=" ">
<path fill="none" stroke="orange" d="M71.88,-416.56C71.88,-397.5 71.88,-374.51 71.88,-356.19"/>
<polygon fill="orange" stroke="orange" points="68.38,-416.34 71.88,-426.34 75.38,-416.34 68.38,-416.34"/>
</a>
</g>
<text xml:space="preserve" text-anchor="start" x="74.88" y="-397" font-family="Helvetica,sans-Serif" font-size="10.00" fill="grey">&lt; Int_precision, NUMBER</text>
<text xml:space="preserve" text-anchor="start" x="74.88" y="-380.25" font-family="Helvetica,sans-Serif" font-size="10.00" fill="grey">  _OF_3D_MOVES &gt;</text>
</g>
<!-- Node4 -->
<g id="Node000004" class="node">
<title>Node4</title>
<g id="a_Node000004"><a xlink:title=" ">
<polygon fill="white" stroke="none" points="78.88,-591 64.88,-591 64.88,-536.75 78.88,-536.75 78.88,-591"/>
<text xml:space="preserve" text-anchor="start" x="68.88" y="-577.25" font-family="Helvetica,sans-Serif" font-size="10.00">T</text>
<text xml:space="preserve" text-anchor="start" x="70.38" y="-560.5" font-family="Helvetica,sans-Serif" font-size="10.00"> </text>
<text xml:space="preserve" text-anchor="start" x="70.38" y="-543.75" font-family="Helvetica,sans-Serif" font-size="10.00"> </text>
<polygon fill="#bfbfbf" stroke="#bfbfbf" points="64.88,-572.25 64.88,-572.25 78.88,-572.25 78.88,-572.25 64.88,-572.25"/>
<polygon fill="#bfbfbf" stroke="#bfbfbf" points="64.88,-555.5 64.88,-555.5 78.88,-555.5 78.88,-555.5 64.88,-555.5"/>
<polygon fill="none" stroke="#bfbfbf" points="64.88,-536.75 64.88,-591 78.88,-591 78.88,-536.75 64.88,-536.75"/>
</a>
</g>
</g>
<!-- Node4&#45;&gt;Node3 -->
<g id="edge3_Node000003_Node000004" class="edge">
<title>Node4&#45;&gt;Node3</title>
<g id="a_edge3_Node000003_Node000004"><a xlink:title=" ">
<path fill="none" stroke="#63b8ff" d="M71.88,-536.97C71.88,-524.32 71.88,-508.83 71.88,-494.79"/>
<polygon fill="none" stroke="#63b8ff" points="71.88,-494.81 67.88,-488.81 71.88,-482.81 75.88,-488.81 71.88,-494.81"/>
</a>
</g>
<text xml:space="preserve" text-anchor="start" x="74.88" y="-506" font-family="Helvetica,sans-Serif" font-size="10.00" fill="grey">+elements</text>
</g>
</g>
</svg>
