<?xml version="1.0" encoding="UTF-8" standalone="no"?>
<!DOCTYPE svg PUBLIC "-//W3C//DTD SVG 1.1//EN"
 "http://www.w3.org/Graphics/SVG/1.1/DTD/svg11.dtd">
<!-- Generated by graphviz version 15.1.0 (20260618.0150)
 -->
<!-- Title: MoveStrategy&lt; Strategies::METROPOLIS, ManifoldType &gt; Pages: 1 -->
<svg width="567pt" height="976pt"
 viewBox="0.00 0.00 567.00 976.00" xmlns="http://www.w3.org/2000/svg" xmlns:xlink="http://www.w3.org/1999/xlink">
<g id="graph0" class="graph" transform="scale(1 1) rotate(0) translate(4 971.75)">
<title>MoveStrategy&lt; Strategies::METROPOLIS, ManifoldType &gt;</title>
<!-- Node1 -->
<g id="Node000001" class="node">
<title>Node1</title>
<g id="a_Node000001"><a xlink:title="Metropolis&#45;Hastings algorithm strategy.">
<polygon fill="#999999" stroke="none" points="341.38,-552.75 181.88,-552.75 181.88,0 341.38,0 341.38,-552.75"/>
<text xml:space="preserve" text-anchor="start" x="185.88" y="-539" font-family="Helvetica,sans-Serif" font-size="10.00">MoveStrategy&lt; Strategies</text>
<text xml:space="preserve" text-anchor="start" x="185.88" y="-526.25" font-family="Helvetica,sans-Serif" font-size="10.00">::METROPOLIS, ManifoldType &gt;</text>
<text xml:space="preserve" text-anchor="start" x="192.75" y="-509.5" font-family="Helvetica,sans-Serif" font-size="10.00">&#45;</text>
<text xml:space="preserve" text-anchor="start" x="207.38" y="-509.5" font-family="Helvetica,sans-Serif" font-size="10.00">m_accepted_moves</text>
<text xml:space="preserve" text-anchor="start" x="192.75" y="-492.75" font-family="Helvetica,sans-Serif" font-size="10.00">&#45;</text>
<text xml:space="preserve" text-anchor="start" x="207.38" y="-492.75" font-family="Helvetica,sans-Serif" font-size="10.00">m_Alpha</text>
<text xml:space="preserve" text-anchor="start" x="192.75" y="-476" font-family="Helvetica,sans-Serif" font-size="10.00">&#45;</text>
<text xml:space="preserve" text-anchor="start" x="207.38" y="-476" font-family="Helvetica,sans-Serif" font-size="10.00">m_attempted_moves</text>
<text xml:space="preserve" text-anchor="start" x="192.75" y="-459.25" font-family="Helvetica,sans-Serif" font-size="10.00">&#45;</text>
<text xml:space="preserve" text-anchor="start" x="207.38" y="-459.25" font-family="Helvetica,sans-Serif" font-size="10.00">m_checkpoint</text>
<text xml:space="preserve" text-anchor="start" x="192.75" y="-442.5" font-family="Helvetica,sans-Serif" font-size="10.00">&#45;</text>
<text xml:space="preserve" text-anchor="start" x="207.38" y="-442.5" font-family="Helvetica,sans-Serif" font-size="10.00">m_failed_moves</text>
<text xml:space="preserve" text-anchor="start" x="192.75" y="-425.75" font-family="Helvetica,sans-Serif" font-size="10.00">&#45;</text>
<text xml:space="preserve" text-anchor="start" x="207.38" y="-425.75" font-family="Helvetica,sans-Serif" font-size="10.00">m_K</text>
<text xml:space="preserve" text-anchor="start" x="192.75" y="-409" font-family="Helvetica,sans-Serif" font-size="10.00">&#45;</text>
<text xml:space="preserve" text-anchor="start" x="207.38" y="-409" font-family="Helvetica,sans-Serif" font-size="10.00">m_Lambda</text>
<text xml:space="preserve" text-anchor="start" x="192.75" y="-392.25" font-family="Helvetica,sans-Serif" font-size="10.00">&#45;</text>
<text xml:space="preserve" text-anchor="start" x="207.38" y="-392.25" font-family="Helvetica,sans-Serif" font-size="10.00">m_passes</text>
<text xml:space="preserve" text-anchor="start" x="192.75" y="-375.5" font-family="Helvetica,sans-Serif" font-size="10.00">&#45;</text>
<text xml:space="preserve" text-anchor="start" x="207.38" y="-375.5" font-family="Helvetica,sans-Serif" font-size="10.00">m_proposed_moves</text>
<text xml:space="preserve" text-anchor="start" x="192.75" y="-358.75" font-family="Helvetica,sans-Serif" font-size="10.00">&#45;</text>
<text xml:space="preserve" text-anchor="start" x="207.38" y="-358.75" font-family="Helvetica,sans-Serif" font-size="10.00">m_rejected_moves</text>
<text xml:space="preserve" text-anchor="start" x="192.75" y="-342" font-family="Helvetica,sans-Serif" font-size="10.00">&#45;</text>
<text xml:space="preserve" text-anchor="start" x="207.38" y="-342" font-family="Helvetica,sans-Serif" font-size="10.00">m_succeeded_moves</text>
<text xml:space="preserve" text-anchor="start" x="192.75" y="-325.25" font-family="Helvetica,sans-Serif" font-size="10.00">&#45;</text>
<text xml:space="preserve" text-anchor="start" x="207.38" y="-325.25" font-family="Helvetica,sans-Serif" font-size="10.00">m_transition_count</text>
<text xml:space="preserve" text-anchor="start" x="192.75" y="-308.5" font-family="Helvetica,sans-Serif" font-size="10.00">&#45;</text>
<text xml:space="preserve" text-anchor="start" x="207.38" y="-308.5" font-family="Helvetica,sans-Serif" font-size="10.00">m_transition_trace</text>
<text xml:space="preserve" text-anchor="start" x="192.75" y="-291.75" font-family="Helvetica,sans-Serif" font-size="10.00">&#45;</text>
<text xml:space="preserve" text-anchor="start" x="207.38" y="-291.75" font-family="Helvetica,sans-Serif" font-size="10.00">m_write_files</text>
<text xml:space="preserve" text-anchor="start" x="190.5" y="-275" font-family="Helvetica,sans-Serif" font-size="10.00">+</text>
<text xml:space="preserve" text-anchor="start" x="207.38" y="-275" font-family="Helvetica,sans-Serif" font-size="10.00">MoveStrategy()</text>
<text xml:space="preserve" text-anchor="start" x="190.5" y="-258.25" font-family="Helvetica,sans-Serif" font-size="10.00">+</text>
<text xml:space="preserve" text-anchor="start" x="207.38" y="-258.25" font-family="Helvetica,sans-Serif" font-size="10.00">MoveStrategy()</text>
<text xml:space="preserve" text-anchor="start" x="190.5" y="-241.5" font-family="Helvetica,sans-Serif" font-size="10.00">+</text>
<text xml:space="preserve" text-anchor="start" x="207.38" y="-241.5" font-family="Helvetica,sans-Serif" font-size="10.00">MoveStrategy()</text>
<text xml:space="preserve" text-anchor="start" x="190.5" y="-224.75" font-family="Helvetica,sans-Serif" font-size="10.00">+</text>
<text xml:space="preserve" text-anchor="start" x="207.38" y="-224.75" font-family="Helvetica,sans-Serif" font-size="10.00">MoveStrategy()</text>
<text xml:space="preserve" text-anchor="start" x="190.5" y="-208" font-family="Helvetica,sans-Serif" font-size="10.00">+</text>
<text xml:space="preserve" text-anchor="start" x="207.38" y="-208" font-family="Helvetica,sans-Serif" font-size="10.00">acceptance_probability()</text>
<text xml:space="preserve" text-anchor="start" x="190.5" y="-191.25" font-family="Helvetica,sans-Serif" font-size="10.00">+</text>
<text xml:space="preserve" text-anchor="start" x="207.38" y="-191.25" font-family="Helvetica,sans-Serif" font-size="10.00">Alpha()</text>
<text xml:space="preserve" text-anchor="start" x="190.5" y="-174.5" font-family="Helvetica,sans-Serif" font-size="10.00">+</text>
<text xml:space="preserve" text-anchor="start" x="207.38" y="-174.5" font-family="Helvetica,sans-Serif" font-size="10.00">attempt_transition()</text>
<text xml:space="preserve" text-anchor="start" x="190.5" y="-157.75" font-family="Helvetica,sans-Serif" font-size="10.00">+</text>
<text xml:space="preserve" text-anchor="start" x="207.38" y="-157.75" font-family="Helvetica,sans-Serif" font-size="10.00">CalculateA2()</text>
<text xml:space="preserve" text-anchor="start" x="190.5" y="-141" font-family="Helvetica,sans-Serif" font-size="10.00">+</text>
<text xml:space="preserve" text-anchor="start" x="207.38" y="-141" font-family="Helvetica,sans-Serif" font-size="10.00">checkpoint()</text>
<text xml:space="preserve" text-anchor="start" x="190.5" y="-124.25" font-family="Helvetica,sans-Serif" font-size="10.00">+</text>
<text xml:space="preserve" text-anchor="start" x="207.38" y="-124.25" font-family="Helvetica,sans-Serif" font-size="10.00">get_accepted()</text>
<text xml:space="preserve" text-anchor="start" x="207.38" y="-107.5" font-family="Helvetica,sans-Serif" font-size="10.00">and 18 more...</text>
<text xml:space="preserve" text-anchor="start" x="190.5" y="-90.75" font-family="Helvetica,sans-Serif" font-size="10.00">+</text>
<text xml:space="preserve" text-anchor="start" x="207.38" y="-90.75" font-family="Helvetica,sans-Serif" font-size="10.00">CalculateA1()</text>
<text xml:space="preserve" text-anchor="start" x="190.5" y="-74" font-family="Helvetica,sans-Serif" font-size="10.00">+</text>
<text xml:space="preserve" text-anchor="start" x="207.38" y="-74" font-family="Helvetica,sans-Serif" font-size="10.00">proposal_probability()</text>
<text xml:space="preserve" text-anchor="start" x="190.5" y="-57.25" font-family="Helvetica,sans-Serif" font-size="10.00">+</text>
<text xml:space="preserve" text-anchor="start" x="207.38" y="-57.25" font-family="Helvetica,sans-Serif" font-size="10.00">proposal_site_count()</text>
<text xml:space="preserve" text-anchor="start" x="190.5" y="-40.5" font-family="Helvetica,sans-Serif" font-size="10.00">+</text>
<text xml:space="preserve" text-anchor="start" x="207.38" y="-40.5" font-family="Helvetica,sans-Serif" font-size="10.00">reverse_move()</text>
<text xml:space="preserve" text-anchor="start" x="192.75" y="-23.75" font-family="Helvetica,sans-Serif" font-size="10.00">&#45;</text>
<text xml:space="preserve" text-anchor="start" x="207.38" y="-23.75" font-family="Helvetica,sans-Serif" font-size="10.00">propose_candidate()</text>
<text xml:space="preserve" text-anchor="start" x="192.75" y="-7" font-family="Helvetica,sans-Serif" font-size="10.00">&#45;</text>
<text xml:space="preserve" text-anchor="start" x="207.38" y="-7" font-family="Helvetica,sans-Serif" font-size="10.00">record_transition()</text>
<polygon fill="#666666" stroke="#666666" points="181.88,-521.25 181.88,-521.25 341.38,-521.25 341.38,-521.25 181.88,-521.25"/>
<polygon fill="#666666" stroke="#666666" points="181.88,-286.75 181.88,-286.75 205.38,-286.75 205.38,-286.75 181.88,-286.75"/>
<polygon fill="#666666" stroke="#666666" points="205.38,-286.75 205.38,-286.75 341.38,-286.75 341.38,-286.75 205.38,-286.75"/>
<polygon fill="none" stroke="#666666" points="181.88,0 181.88,-552.75 341.38,-552.75 341.38,0 181.88,0"/>
</a>
</g>
</g>
<!-- Node2 -->
<g id="Node000002" class="node">
<title>Node2</title>
<g id="a_Node000002"><a xlink:href="struct_geometry.html" target="_top" xlink:title=" ">
<polygon fill="white" stroke="none" points="133.25,-775 0,-775 0,-708 133.25,-708 133.25,-775"/>
<text xml:space="preserve" text-anchor="start" x="4" y="-761.25" font-family="Helvetica,sans-Serif" font-size="10.00">Geometry&lt; ManifoldType</text>
<text xml:space="preserve" text-anchor="start" x="32.5" y="-748.5" font-family="Helvetica,sans-Serif" font-size="10.00">::dimension &gt;</text>
<text xml:space="preserve" text-anchor="start" x="65.12" y="-731.75" font-family="Helvetica,sans-Serif" font-size="10.00"> </text>
<text xml:space="preserve" text-anchor="start" x="65.12" y="-715" font-family="Helvetica,sans-Serif" font-size="10.00"> </text>
<polygon fill="#666666" stroke="#666666" points="0,-743.5 0,-743.5 133.25,-743.5 133.25,-743.5 0,-743.5"/>
<polygon fill="#666666" stroke="#666666" points="0,-726.75 0,-726.75 133.25,-726.75 133.25,-726.75 0,-726.75"/>
<polygon fill="none" stroke="#666666" points="0,-708 0,-775 133.25,-775 133.25,-708 0,-708"/>
</a>
</g>
</g>
<!-- Node2&#45;&gt;Node1 -->
<g id="edge1_Node000001_Node000002" class="edge">
<title>Node2&#45;&gt;Node1</title>
<g id="a_edge1_Node000001_Node000002"><a xlink:title=" ">
<path fill="none" stroke="#63b8ff" d="M80.18,-708.3C100.37,-660.35 139.95,-566.36 177,-478.37"/>
<polygon fill="none" stroke="#63b8ff" points="176.96,-478.45 175.61,-471.36 181.62,-467.39 182.98,-474.47 176.96,-478.45"/>
</a>
</g>
<text xml:space="preserve" text-anchor="start" x="138.26" y="-585.12" font-family="Helvetica,sans-Serif" font-size="10.00" fill="grey">&#45;m_geometry</text>
</g>
<!-- Node3 -->
<g id="Node000003" class="node">
<title>Node3</title>
<g id="a_Node000003"><a xlink:href="struct_geometry.html" target="_top" xlink:title=" ">
<polygon fill="white" stroke="none" points="131.75,-967.75 1.5,-967.75 1.5,-913.5 131.75,-913.5 131.75,-967.75"/>
<text xml:space="preserve" text-anchor="start" x="5.5" y="-954" font-family="Helvetica,sans-Serif" font-size="10.00">Geometry&lt; dimension &gt;</text>
<text xml:space="preserve" text-anchor="start" x="65.12" y="-937.25" font-family="Helvetica,sans-Serif" font-size="10.00"> </text>
<text xml:space="preserve" text-anchor="start" x="65.12" y="-920.5" font-family="Helvetica,sans-Serif" font-size="10.00"> </text>
<polygon fill="#666666" stroke="#666666" points="1.5,-949 1.5,-949 131.75,-949 131.75,-949 1.5,-949"/>
<polygon fill="#666666" stroke="#666666" points="1.5,-932.25 1.5,-932.25 131.75,-932.25 131.75,-932.25 1.5,-932.25"/>
<polygon fill="none" stroke="#666666" points="1.5,-913.5 1.5,-967.75 131.75,-967.75 131.75,-913.5 1.5,-913.5"/>
</a>
</g>
</g>
<!-- Node3&#45;&gt;Node2 -->
<g id="edge2_Node000002_Node000003" class="edge">
<title>Node3&#45;&gt;Node2</title>
<g id="a_edge2_Node000002_Node000003"><a xlink:title=" ">
<path fill="none" stroke="orange" d="M66.62,-902.63C66.62,-865.82 66.62,-809.9 66.62,-774.82"/>
<polygon fill="orange" stroke="orange" points="63.13,-902.34 66.63,-912.34 70.13,-902.34 63.13,-902.34"/>
</a>
</g>
<text xml:space="preserve" text-anchor="start" x="69.62" y="-882.75" font-family="Helvetica,sans-Serif" font-size="10.00" fill="grey">&lt; ManifoldType::dimension &gt;</text>
</g>
<!-- Node4 -->
<g id="Node000004" class="node">
<title>Node4</title>
<g id="a_Node000004"><a xlink:href="classcdt_1_1_random.html" target="_top" xlink:title="A run&#45;owned PCG engine with a recorded seed and stream identifier.">
<polygon fill="white" stroke="none" points="245.5,-852.38 151.75,-852.38 151.75,-630.62 245.5,-630.62 245.5,-852.38"/>
<text xml:space="preserve" text-anchor="start" x="167.88" y="-838.62" font-family="Helvetica,sans-Serif" font-size="10.00">cdt::Random</text>
<text xml:space="preserve" text-anchor="start" x="158" y="-821.88" font-family="Helvetica,sans-Serif" font-size="10.00">&#45;</text>
<text xml:space="preserve" text-anchor="start" x="168" y="-821.88" font-family="Helvetica,sans-Serif" font-size="10.00">m_engine</text>
<text xml:space="preserve" text-anchor="start" x="158" y="-805.12" font-family="Helvetica,sans-Serif" font-size="10.00">&#45;</text>
<text xml:space="preserve" text-anchor="start" x="168" y="-805.12" font-family="Helvetica,sans-Serif" font-size="10.00">m_seed</text>
<text xml:space="preserve" text-anchor="start" x="158" y="-788.38" font-family="Helvetica,sans-Serif" font-size="10.00">&#45;</text>
<text xml:space="preserve" text-anchor="start" x="168" y="-788.38" font-family="Helvetica,sans-Serif" font-size="10.00">m_stream</text>
<text xml:space="preserve" text-anchor="start" x="155.75" y="-771.62" font-family="Helvetica,sans-Serif" font-size="10.00">+</text>
<text xml:space="preserve" text-anchor="start" x="168" y="-771.62" font-family="Helvetica,sans-Serif" font-size="10.00">Random()</text>
<text xml:space="preserve" text-anchor="start" x="155.75" y="-754.88" font-family="Helvetica,sans-Serif" font-size="10.00">+</text>
<text xml:space="preserve" text-anchor="start" x="168" y="-754.88" font-family="Helvetica,sans-Serif" font-size="10.00">Random()</text>
<text xml:space="preserve" text-anchor="start" x="155.75" y="-738.12" font-family="Helvetica,sans-Serif" font-size="10.00">+</text>
<text xml:space="preserve" text-anchor="start" x="168" y="-738.12" font-family="Helvetica,sans-Serif" font-size="10.00">operator()()</text>
<text xml:space="preserve" text-anchor="start" x="155.75" y="-721.38" font-family="Helvetica,sans-Serif" font-size="10.00">+</text>
<text xml:space="preserve" text-anchor="start" x="168" y="-721.38" font-family="Helvetica,sans-Serif" font-size="10.00">seed()</text>
<text xml:space="preserve" text-anchor="start" x="155.75" y="-704.62" font-family="Helvetica,sans-Serif" font-size="10.00">+</text>
<text xml:space="preserve" text-anchor="start" x="168" y="-704.62" font-family="Helvetica,sans-Serif" font-size="10.00">split()</text>
<text xml:space="preserve" text-anchor="start" x="155.75" y="-687.88" font-family="Helvetica,sans-Serif" font-size="10.00">+</text>
<text xml:space="preserve" text-anchor="start" x="168" y="-687.88" font-family="Helvetica,sans-Serif" font-size="10.00">stream()</text>
<text xml:space="preserve" text-anchor="start" x="155.75" y="-671.12" font-family="Helvetica,sans-Serif" font-size="10.00">+</text>
<text xml:space="preserve" text-anchor="start" x="168" y="-671.12" font-family="Helvetica,sans-Serif" font-size="10.00">max()</text>
<text xml:space="preserve" text-anchor="start" x="155.75" y="-654.38" font-family="Helvetica,sans-Serif" font-size="10.00">+</text>
<text xml:space="preserve" text-anchor="start" x="168" y="-654.38" font-family="Helvetica,sans-Serif" font-size="10.00">min()</text>
<text xml:space="preserve" text-anchor="start" x="158" y="-637.62" font-family="Helvetica,sans-Serif" font-size="10.00">&#45;</text>
<text xml:space="preserve" text-anchor="start" x="168" y="-637.62" font-family="Helvetica,sans-Serif" font-size="10.00">entropy_seed()</text>
<polygon fill="#666666" stroke="#666666" points="151.75,-833.62 151.75,-833.62 245.5,-833.62 245.5,-833.62 151.75,-833.62"/>
<polygon fill="#666666" stroke="#666666" points="151.75,-783.38 151.75,-783.38 166,-783.38 166,-783.38 151.75,-783.38"/>
<polygon fill="#666666" stroke="#666666" points="166,-783.38 166,-783.38 245.5,-783.38 245.5,-783.38 166,-783.38"/>
<polygon fill="none" stroke="#666666" points="151.75,-630.62 151.75,-852.38 245.5,-852.38 245.5,-630.62 151.75,-630.62"/>
</a>
</g>
</g>
<!-- Node4&#45;&gt;Node1 -->
<g id="edge3_Node000001_Node000004" class="edge">
<title>Node4&#45;&gt;Node1</title>
<g id="a_edge3_Node000001_Node000004"><a xlink:title=" ">
<path fill="none" stroke="#63b8ff" d="M213.56,-630.75C216.33,-610.32 219.35,-588.13 222.48,-565.15"/>
<polygon fill="none" stroke="#63b8ff" points="222.49,-565.09 219.33,-558.61 224.1,-553.2 227.26,-559.69 222.49,-565.09"/>
</a>
</g>
<text xml:space="preserve" text-anchor="start" x="223.8" y="-585.12" font-family="Helvetica,sans-Serif" font-size="10.00" fill="grey">&#45;m_generator</text>
</g>
<!-- Node5 -->
<g id="Node000005" class="node">
<title>Node5</title>
<g id="a_Node000005"><a xlink:href="structutilities_1_1_reproducibility__metadata.html" target="_top" xlink:title="Provenance recorded next to every stochastic triangulation.">
<polygon fill="white" stroke="none" points="387.75,-858.75 263.5,-858.75 263.5,-624.25 387.75,-624.25 387.75,-858.75"/>
<text xml:space="preserve" text-anchor="start" x="267.5" y="-845" font-family="Helvetica,sans-Serif" font-size="10.00">utilities::Reproducibility</text>
<text xml:space="preserve" text-anchor="start" x="299.38" y="-832.25" font-family="Helvetica,sans-Serif" font-size="10.00">_metadata</text>
<text xml:space="preserve" text-anchor="start" x="269.5" y="-815.5" font-family="Helvetica,sans-Serif" font-size="10.00">+</text>
<text xml:space="preserve" text-anchor="start" x="283.75" y="-815.5" font-family="Helvetica,sans-Serif" font-size="10.00">actual_edges</text>
<text xml:space="preserve" text-anchor="start" x="269.5" y="-798.75" font-family="Helvetica,sans-Serif" font-size="10.00">+</text>
<text xml:space="preserve" text-anchor="start" x="283.75" y="-798.75" font-family="Helvetica,sans-Serif" font-size="10.00">actual_faces</text>
<text xml:space="preserve" text-anchor="start" x="269.5" y="-782" font-family="Helvetica,sans-Serif" font-size="10.00">+</text>
<text xml:space="preserve" text-anchor="start" x="283.75" y="-782" font-family="Helvetica,sans-Serif" font-size="10.00">actual_simplices</text>
<text xml:space="preserve" text-anchor="start" x="269.5" y="-765.25" font-family="Helvetica,sans-Serif" font-size="10.00">+</text>
<text xml:space="preserve" text-anchor="start" x="283.75" y="-765.25" font-family="Helvetica,sans-Serif" font-size="10.00">actual_vertices</text>
<text xml:space="preserve" text-anchor="start" x="269.5" y="-748.5" font-family="Helvetica,sans-Serif" font-size="10.00">+</text>
<text xml:space="preserve" text-anchor="start" x="283.75" y="-748.5" font-family="Helvetica,sans-Serif" font-size="10.00">alpha</text>
<text xml:space="preserve" text-anchor="start" x="269.5" y="-731.75" font-family="Helvetica,sans-Serif" font-size="10.00">+</text>
<text xml:space="preserve" text-anchor="start" x="283.75" y="-731.75" font-family="Helvetica,sans-Serif" font-size="10.00">artifact</text>
<text xml:space="preserve" text-anchor="start" x="269.5" y="-715" font-family="Helvetica,sans-Serif" font-size="10.00">+</text>
<text xml:space="preserve" text-anchor="start" x="283.75" y="-715" font-family="Helvetica,sans-Serif" font-size="10.00">checkpoint_interval</text>
<text xml:space="preserve" text-anchor="start" x="269.5" y="-698.25" font-family="Helvetica,sans-Serif" font-size="10.00">+</text>
<text xml:space="preserve" text-anchor="start" x="283.75" y="-698.25" font-family="Helvetica,sans-Serif" font-size="10.00">completed_passes</text>
<text xml:space="preserve" text-anchor="start" x="269.5" y="-681.5" font-family="Helvetica,sans-Serif" font-size="10.00">+</text>
<text xml:space="preserve" text-anchor="start" x="283.75" y="-681.5" font-family="Helvetica,sans-Serif" font-size="10.00">configured_passes</text>
<text xml:space="preserve" text-anchor="start" x="269.5" y="-664.75" font-family="Helvetica,sans-Serif" font-size="10.00">+</text>
<text xml:space="preserve" text-anchor="start" x="283.75" y="-664.75" font-family="Helvetica,sans-Serif" font-size="10.00">desired_simplices</text>
<text xml:space="preserve" text-anchor="start" x="283.75" y="-648" font-family="Helvetica,sans-Serif" font-size="10.00">and 16 more...</text>
<text xml:space="preserve" text-anchor="start" x="324.12" y="-631.25" font-family="Helvetica,sans-Serif" font-size="10.00"> </text>
<polygon fill="#666666" stroke="#666666" points="263.5,-827.25 263.5,-827.25 387.75,-827.25 387.75,-827.25 263.5,-827.25"/>
<polygon fill="#666666" stroke="#666666" points="263.5,-643 263.5,-643 281.75,-643 281.75,-643 263.5,-643"/>
<polygon fill="#666666" stroke="#666666" points="281.75,-643 281.75,-643 387.75,-643 387.75,-643 281.75,-643"/>
<polygon fill="none" stroke="#666666" points="263.5,-624.25 263.5,-858.75 387.75,-858.75 387.75,-624.25 263.5,-624.25"/>
</a>
</g>
</g>
<!-- Node5&#45;&gt;Node1 -->
<g id="edge4_Node000001_Node000005" class="edge">
<title>Node5&#45;&gt;Node1</title>
<g id="a_edge4_Node000001_Node000005"><a xlink:title=" ">
<path fill="none" stroke="#63b8ff" d="M309.6,-624.53C307.02,-605.89 304.26,-585.91 301.41,-565.29"/>
<polygon fill="none" stroke="#63b8ff" points="301.39,-565.16 296.61,-559.77 299.75,-553.28 304.54,-558.67 301.39,-565.16"/>
</a>
</g>
<text xml:space="preserve" text-anchor="start" x="309.71" y="-585.12" font-family="Helvetica,sans-Serif" font-size="10.00" fill="grey">&#45;m_reproducibility</text>
</g>
<!-- Node6 -->
<g id="Node000006" class="node">
<title>Node6</title>
<g id="a_Node000006"><a xlink:href="class_move_strategy.html" target="_top" xlink:title="Select a move algorithm.">
<polygon fill="white" stroke="none" points="545.25,-775 406,-775 406,-708 545.25,-708 545.25,-775"/>
<text xml:space="preserve" text-anchor="start" x="410" y="-761.25" font-family="Helvetica,sans-Serif" font-size="10.00">MoveStrategy&lt; strategies,</text>
<text xml:space="preserve" text-anchor="start" x="435.88" y="-748.5" font-family="Helvetica,sans-Serif" font-size="10.00"> ManifoldType &gt;</text>
<text xml:space="preserve" text-anchor="start" x="474.12" y="-731.75" font-family="Helvetica,sans-Serif" font-size="10.00"> </text>
<text xml:space="preserve" text-anchor="start" x="474.12" y="-715" font-family="Helvetica,sans-Serif" font-size="10.00"> </text>
<polygon fill="#666666" stroke="#666666" points="406,-743.5 406,-743.5 545.25,-743.5 545.25,-743.5 406,-743.5"/>
<polygon fill="#666666" stroke="#666666" points="406,-726.75 406,-726.75 545.25,-726.75 545.25,-726.75 406,-726.75"/>
<polygon fill="none" stroke="#666666" points="406,-708 406,-775 545.25,-775 545.25,-708 406,-708"/>
</a>
</g>
</g>
<!-- Node6&#45;&gt;Node1 -->
<g id="edge5_Node000001_Node000006" class="edge">
<title>Node6&#45;&gt;Node1</title>
<g id="a_edge5_Node000001_Node000006"><a xlink:title=" ">
<path fill="none" stroke="orange" d="M458.74,-697.36C445.01,-662.85 424.84,-613.36 405.62,-570.75 385.56,-526.27 362.73,-478.57 341.25,-434.83"/>
<polygon fill="orange" stroke="orange" points="455.46,-698.59 462.4,-706.6 461.97,-696.01 455.46,-698.59"/>
</a>
</g>
<text xml:space="preserve" text-anchor="start" x="422.78" y="-593.5" font-family="Helvetica,sans-Serif" font-size="10.00" fill="grey">&lt; Strategies::METROPOLIS,</text>
<text xml:space="preserve" text-anchor="start" x="422.78" y="-576.75" font-family="Helvetica,sans-Serif" font-size="10.00" fill="grey">   ManifoldType &gt;</text>
</g>
</g>
</svg>
