<?xml version="1.0" encoding="UTF-8" standalone="no"?>
<!DOCTYPE svg PUBLIC "-//W3C//DTD SVG 1.1//EN"
 "http://www.w3.org/Graphics/SVG/1.1/DTD/svg11.dtd">
<!-- Generated by graphviz version 15.1.0 (20260618.0150)
 -->
<!-- Title: cdt::MoveCommand&lt; ManifoldType, ResultType &gt; Pages: 1 -->
<!--zoomable 716 -->

<svg id="main" version="1.1" xmlns="http://www.w3.org/2000/svg" xmlns:xlink="http://www.w3.org/1999/xlink" xml:space="preserve" onload="init(evt)">

<style type="text/css"><![CDATA[
.node, .edge {opacity: 0.7;}
.node.selected, .edge.selected {opacity: 1;}
.edge:hover path { stroke: red; }
.edge:hover polygon { stroke: red; fill: red; }
]]></style>

<defs>
  <circle id="rim" cx="0" cy="0" r="7"/>
  <circle id="rim2" cx="0" cy="0" r="3.5"/>
  <g id="zoomPlus">
    <use xlink:href="#rim" fill="#404040"><set attributeName="fill" to="#808080" begin="zoomplus.mouseover" end="zoomplus.mouseout"/></use>
    <path d="M-4,0h8M0,-4v8" fill="none" stroke="white" stroke-width="1.5" pointer-events="none"/>
  </g>
  <g id="zoomMin">
    <use xlink:href="#rim" fill="#404040"><set attributeName="fill" to="#808080" begin="zoomminus.mouseover" end="zoomminus.mouseout"/></use>
    <path d="M-4,0h8" fill="none" stroke="white" stroke-width="1.5" pointer-events="none"/>
  </g>
  <g id="arrowUp" transform="translate(30 24)">
    <use xlink:href="#rim"/>
    <path pointer-events="none" fill="none" stroke="white" stroke-width="1.5" d="M0,-3.0v7 M-2.5,-0.5L0,-3.0L2.5,-0.5"/>
  </g>
  <g id="arrowRight" transform="rotate(90) translate(36 -43)">
    <use xlink:href="#rim"/>
    <path pointer-events="none" fill="none" stroke="white" stroke-width="1.5" d="M0,-3.0v7 M-2.5,-0.5L0,-3.0L2.5,-0.5"/>
  </g>
  <g id="arrowDown" transform="rotate(180) translate(-30 -48)">
    <use xlink:href="#rim"/>
    <path pointer-events="none" fill="none" stroke="white" stroke-width="1.5" d="M0,-3.0v7 M-2.5,-0.5L0,-3.0L2.5,-0.5"/>
  </g>
  <g id="arrowLeft" transform="rotate(270) translate(-36 17)">
    <use xlink:href="#rim"/>
    <path pointer-events="none" fill="none" stroke="white" stroke-width="1.5" d="M0,-3.0v7 M-2.5,-0.5L0,-3.0L2.5,-0.5"/>
  </g>
  <g id="resetDef">
    <use xlink:href="#rim2" fill="#404040"><set attributeName="fill" to="#808080" begin="reset.mouseover" end="reset.mouseout"/></use>
  </g>
</defs>
<script type="application/ecmascript">
var viewWidth = 206;
var viewHeight = 716;
var sectionId = 'dynsection-0';
</script>
<script type="application/ecmascript" xlink:href="svg.min.js"/>
<svg id="graph" class="graph">
<g id="viewport">
<title>cdt::MoveCommand&lt; ManifoldType, ResultType &gt;</title>
<!-- Node1 -->
<g id="Node000001" class="node">
<title>Node1</title>
<g id="a_Node000001"><a xlink:title=" ">
<polygon fill="#999999" stroke="none" points="160.25,-351.75 0,-351.75 0,0 160.25,0 160.25,-351.75"/>
<text xml:space="preserve" text-anchor="start" x="4" y="-338" font-family="Helvetica,sans-Serif" font-size="10.00">cdt::MoveCommand&lt; Manifold</text>
<text xml:space="preserve" text-anchor="start" x="33.62" y="-325.25" font-family="Helvetica,sans-Serif" font-size="10.00">Type, ResultType &gt;</text>
<text xml:space="preserve" text-anchor="start" x="13.69" y="-308.5" font-family="Helvetica,sans-Serif" font-size="10.00">&#45;</text>
<text xml:space="preserve" text-anchor="start" x="31.12" y="-308.5" font-family="Helvetica,sans-Serif" font-size="10.00">m_attempted</text>
<text xml:space="preserve" text-anchor="start" x="13.69" y="-291.75" font-family="Helvetica,sans-Serif" font-size="10.00">&#45;</text>
<text xml:space="preserve" text-anchor="start" x="31.12" y="-291.75" font-family="Helvetica,sans-Serif" font-size="10.00">m_failed</text>
<text xml:space="preserve" text-anchor="start" x="13.69" y="-275" font-family="Helvetica,sans-Serif" font-size="10.00">&#45;</text>
<text xml:space="preserve" text-anchor="start" x="31.12" y="-275" font-family="Helvetica,sans-Serif" font-size="10.00">m_manifold</text>
<text xml:space="preserve" text-anchor="start" x="13.69" y="-258.25" font-family="Helvetica,sans-Serif" font-size="10.00">&#45;</text>
<text xml:space="preserve" text-anchor="start" x="31.12" y="-258.25" font-family="Helvetica,sans-Serif" font-size="10.00">m_succeeded</text>
<text xml:space="preserve" text-anchor="start" x="11.44" y="-241.5" font-family="Helvetica,sans-Serif" font-size="10.00">+</text>
<text xml:space="preserve" text-anchor="start" x="31.12" y="-241.5" font-family="Helvetica,sans-Serif" font-size="10.00">MoveCommand()</text>
<text xml:space="preserve" text-anchor="start" x="11.44" y="-224.75" font-family="Helvetica,sans-Serif" font-size="10.00">+</text>
<text xml:space="preserve" text-anchor="start" x="31.12" y="-224.75" font-family="Helvetica,sans-Serif" font-size="10.00">MoveCommand()</text>
<text xml:space="preserve" text-anchor="start" x="11.44" y="-208" font-family="Helvetica,sans-Serif" font-size="10.00">+</text>
<text xml:space="preserve" text-anchor="start" x="31.12" y="-208" font-family="Helvetica,sans-Serif" font-size="10.00">enqueue()</text>
<text xml:space="preserve" text-anchor="start" x="11.44" y="-191.25" font-family="Helvetica,sans-Serif" font-size="10.00">+</text>
<text xml:space="preserve" text-anchor="start" x="31.12" y="-191.25" font-family="Helvetica,sans-Serif" font-size="10.00">execute()</text>
<text xml:space="preserve" text-anchor="start" x="11.44" y="-174.5" font-family="Helvetica,sans-Serif" font-size="10.00">+</text>
<text xml:space="preserve" text-anchor="start" x="31.12" y="-174.5" font-family="Helvetica,sans-Serif" font-size="10.00">get_attempted()</text>
<text xml:space="preserve" text-anchor="start" x="11.44" y="-157.75" font-family="Helvetica,sans-Serif" font-size="10.00">+</text>
<text xml:space="preserve" text-anchor="start" x="31.12" y="-157.75" font-family="Helvetica,sans-Serif" font-size="10.00">get_const_results()</text>
<text xml:space="preserve" text-anchor="start" x="11.44" y="-141" font-family="Helvetica,sans-Serif" font-size="10.00">+</text>
<text xml:space="preserve" text-anchor="start" x="31.12" y="-141" font-family="Helvetica,sans-Serif" font-size="10.00">get_failed()</text>
<text xml:space="preserve" text-anchor="start" x="11.44" y="-124.25" font-family="Helvetica,sans-Serif" font-size="10.00">+</text>
<text xml:space="preserve" text-anchor="start" x="31.12" y="-124.25" font-family="Helvetica,sans-Serif" font-size="10.00">get_results()</text>
<text xml:space="preserve" text-anchor="start" x="11.44" y="-107.5" font-family="Helvetica,sans-Serif" font-size="10.00">+</text>
<text xml:space="preserve" text-anchor="start" x="31.12" y="-107.5" font-family="Helvetica,sans-Serif" font-size="10.00">get_succeeded()</text>
<text xml:space="preserve" text-anchor="start" x="11.44" y="-90.75" font-family="Helvetica,sans-Serif" font-size="10.00">+</text>
<text xml:space="preserve" text-anchor="start" x="31.12" y="-90.75" font-family="Helvetica,sans-Serif" font-size="10.00">print_attempts()</text>
<text xml:space="preserve" text-anchor="start" x="11.44" y="-74" font-family="Helvetica,sans-Serif" font-size="10.00">+</text>
<text xml:space="preserve" text-anchor="start" x="31.12" y="-74" font-family="Helvetica,sans-Serif" font-size="10.00">print_errors()</text>
<text xml:space="preserve" text-anchor="start" x="11.44" y="-57.25" font-family="Helvetica,sans-Serif" font-size="10.00">+</text>
<text xml:space="preserve" text-anchor="start" x="31.12" y="-57.25" font-family="Helvetica,sans-Serif" font-size="10.00">print_successful()</text>
<text xml:space="preserve" text-anchor="start" x="11.44" y="-40.5" font-family="Helvetica,sans-Serif" font-size="10.00">+</text>
<text xml:space="preserve" text-anchor="start" x="31.12" y="-40.5" font-family="Helvetica,sans-Serif" font-size="10.00">reset_counters()</text>
<text xml:space="preserve" text-anchor="start" x="11.44" y="-23.75" font-family="Helvetica,sans-Serif" font-size="10.00">+</text>
<text xml:space="preserve" text-anchor="start" x="31.12" y="-23.75" font-family="Helvetica,sans-Serif" font-size="10.00">size()</text>
<text xml:space="preserve" text-anchor="start" x="11.44" y="-7" font-family="Helvetica,sans-Serif" font-size="10.00">+</text>
<text xml:space="preserve" text-anchor="start" x="31.12" y="-7" font-family="Helvetica,sans-Serif" font-size="10.00">apply_random_move()</text>
<polygon fill="#666666" stroke="#666666" points="0,-320.25 0,-320.25 160.25,-320.25 160.25,-320.25 0,-320.25"/>
<polygon fill="#666666" stroke="#666666" points="0,-253.25 0,-253.25 29.12,-253.25 29.12,-253.25 0,-253.25"/>
<polygon fill="#666666" stroke="#666666" points="29.12,-253.25 29.12,-253.25 160.25,-253.25 160.25,-253.25 29.12,-253.25"/>
<polygon fill="none" stroke="#666666" points="0,0 0,-351.75 160.25,-351.75 160.25,0 0,0"/>
</a>
</g>
</g>
<!-- Node2 -->
<g id="Node000002" class="node">
<title>Node2</title>
<g id="a_Node000002"><a xlink:title=" ">
<polygon fill="white" stroke="none" points="148.62,-473.5 11.62,-473.5 11.62,-406.5 148.62,-406.5 148.62,-473.5"/>
<text xml:space="preserve" text-anchor="start" x="15.62" y="-459.75" font-family="Helvetica,sans-Serif" font-size="10.00">std::deque&lt; move_tracker</text>
<text xml:space="preserve" text-anchor="start" x="44.12" y="-447" font-family="Helvetica,sans-Serif" font-size="10.00">::move_type &gt;</text>
<text xml:space="preserve" text-anchor="start" x="33.38" y="-430.25" font-family="Helvetica,sans-Serif" font-size="10.00">+</text>
<text xml:space="preserve" text-anchor="start" x="63.38" y="-430.25" font-family="Helvetica,sans-Serif" font-size="10.00">elements</text>
<text xml:space="preserve" text-anchor="start" x="78.62" y="-413.5" font-family="Helvetica,sans-Serif" font-size="10.00"> </text>
<polygon fill="#666666" stroke="#666666" points="11.62,-442 11.62,-442 148.62,-442 148.62,-442 11.62,-442"/>
<polygon fill="#666666" stroke="#666666" points="11.62,-425.25 11.62,-425.25 61.38,-425.25 61.38,-425.25 11.62,-425.25"/>
<polygon fill="#666666" stroke="#666666" points="61.38,-425.25 61.38,-425.25 148.62,-425.25 148.62,-425.25 61.38,-425.25"/>
<polygon fill="none" stroke="#666666" points="11.62,-406.5 11.62,-473.5 148.62,-473.5 148.62,-406.5 11.62,-406.5"/>
</a>
</g>
</g>
<!-- Node2&#45;&gt;Node1 -->
<g id="edge1_Node000001_Node000002" class="edge">
<title>Node2&#45;&gt;Node1</title>
<g id="a_edge1_Node000001_Node000002"><a xlink:title=" ">
<path fill="none" stroke="#63b8ff" d="M80.12,-406.6C80.12,-394.71 80.12,-380.25 80.12,-364.43"/>
<polygon fill="none" stroke="#63b8ff" points="80.13,-364.38 76.13,-358.38 80.13,-352.38 84.13,-358.38 80.13,-364.38"/>
</a>
</g>
<text xml:space="preserve" text-anchor="start" x="83.12" y="-375.75" font-family="Helvetica,sans-Serif" font-size="10.00" fill="grey">&#45;m_moves</text>
</g>
<!-- Node3 -->
<g id="Node000003" class="node">
<title>Node3</title>
<g id="a_Node000003"><a xlink:title=" ">
<polygon fill="white" stroke="none" points="123.88,-599.25 36.38,-599.25 36.38,-545 123.88,-545 123.88,-599.25"/>
<text xml:space="preserve" text-anchor="start" x="40.38" y="-585.5" font-family="Helvetica,sans-Serif" font-size="10.00">std::deque&lt; T &gt;</text>
<text xml:space="preserve" text-anchor="start" x="78.62" y="-568.75" font-family="Helvetica,sans-Serif" font-size="10.00"> </text>
<text xml:space="preserve" text-anchor="start" x="78.62" y="-552" font-family="Helvetica,sans-Serif" font-size="10.00"> </text>
<polygon fill="#666666" stroke="#666666" points="36.38,-580.5 36.38,-580.5 123.88,-580.5 123.88,-580.5 36.38,-580.5"/>
<polygon fill="#666666" stroke="#666666" points="36.38,-563.75 36.38,-563.75 123.88,-563.75 123.88,-563.75 36.38,-563.75"/>
<polygon fill="none" stroke="#666666" points="36.38,-545 36.38,-599.25 123.88,-599.25 123.88,-545 36.38,-545"/>
</a>
</g>
</g>
<!-- Node3&#45;&gt;Node2 -->
<g id="edge2_Node000002_Node000003" class="edge">
<title>Node3&#45;&gt;Node2</title>
<g id="a_edge2_Node000002_Node000003"><a xlink:title=" ">
<path fill="none" stroke="orange" d="M80.12,-533.81C80.12,-514.75 80.12,-491.76 80.12,-473.44"/>
<polygon fill="orange" stroke="orange" points="76.63,-533.59 80.13,-543.59 83.63,-533.59 76.63,-533.59"/>
</a>
</g>
<text xml:space="preserve" text-anchor="start" x="83.12" y="-514.25" font-family="Helvetica,sans-Serif" font-size="10.00" fill="grey">&lt; move_tracker::move</text>
<text xml:space="preserve" text-anchor="start" x="83.12" y="-497.5" font-family="Helvetica,sans-Serif" font-size="10.00" fill="grey">  _type &gt;</text>
</g>
<!-- Node4 -->
<g id="Node000004" class="node">
<title>Node4</title>
<g id="a_Node000004"><a xlink:title=" ">
<polygon fill="white" stroke="none" points="87.12,-708.25 73.12,-708.25 73.12,-654 87.12,-654 87.12,-708.25"/>
<text xml:space="preserve" text-anchor="start" x="77.12" y="-694.5" font-family="Helvetica,sans-Serif" font-size="10.00">T</text>
<text xml:space="preserve" text-anchor="start" x="78.62" y="-677.75" font-family="Helvetica,sans-Serif" font-size="10.00"> </text>
<text xml:space="preserve" text-anchor="start" x="78.62" y="-661" font-family="Helvetica,sans-Serif" font-size="10.00"> </text>
<polygon fill="#bfbfbf" stroke="#bfbfbf" points="73.12,-689.5 73.12,-689.5 87.12,-689.5 87.12,-689.5 73.12,-689.5"/>
<polygon fill="#bfbfbf" stroke="#bfbfbf" points="73.12,-672.75 73.12,-672.75 87.12,-672.75 87.12,-672.75 73.12,-672.75"/>
<polygon fill="none" stroke="#bfbfbf" points="73.12,-654 73.12,-708.25 87.12,-708.25 87.12,-654 73.12,-654"/>
</a>
</g>
</g>
<!-- Node4&#45;&gt;Node3 -->
<g id="edge3_Node000003_Node000004" class="edge">
<title>Node4&#45;&gt;Node3</title>
<g id="a_edge3_Node000003_Node000004"><a xlink:title=" ">
<path fill="none" stroke="#63b8ff" d="M80.12,-654.22C80.12,-641.57 80.12,-626.08 80.12,-612.04"/>
<polygon fill="none" stroke="#63b8ff" points="80.13,-612.06 76.13,-606.06 80.13,-600.06 84.13,-606.06 80.13,-612.06"/>
</a>
</g>
<text xml:space="preserve" text-anchor="start" x="83.12" y="-623.25" font-family="Helvetica,sans-Serif" font-size="10.00" fill="grey">+elements</text>
</g>
</g>
</svg>

<g id="navigator" transform="translate(0 0)" fill="#404254">
  <rect fill="#f2f5e9" fill-opacity="0.5" stroke="#606060" stroke-width=".5" x="0" y="0" width="60" height="60"/>
  <use id="zoomplus" xlink:href="#zoomPlus" x="17" y="9" onmousedown="handleZoom(evt,'in')"/>
  <use id="zoomminus" xlink:href="#zoomMin" x="42" y="9" onmousedown="handleZoom(evt,'out')"/>
  <use id="reset" xlink:href="#resetDef" x="30" y="36" onmousedown="handleReset()"/>
   <use id="arrowup" xlink:href="#arrowUp" x="0" y="0" onmousedown="handlePan(0,-1)"/>
  <use id="arrowright" xlink:href="#arrowRight" x="0" y="0" onmousedown="handlePan(1,0)"/>
  <use id="arrowdown" xlink:href="#arrowDown" x="0" y="0" onmousedown="handlePan(0,1)"/>
  <use id="arrowleft" xlink:href="#arrowLeft" x="0" y="0" onmousedown="handlePan(-1,0)"/>
</g>
<svg viewBox="0 0 15 15" width="100%" height="30px" preserveAspectRatio="xMaxYMin meet">
 <g id="arrow_out" transform="scale(0.3 0.3)">
  <a xlink:href="classcdt_1_1_move_command__coll__graph_org.svg" target="_base">
   <rect id="button" ry="5" rx="5" y="6" x="6" height="38" width="38"
        fill="#f2f5e9" fill-opacity="0.5" stroke="#606060" stroke-width="1.0"/>
   <path id="arrow"
     d="M 11.500037,31.436501 C 11.940474,20.09759 22.043105,11.32322 32.158766,21.979434 L 37.068811,17.246167 C 37.068811,17.246167 37.088388,32 37.088388,32 L 22.160133,31.978069 C 22.160133,31.978069 26.997745,27.140456 26.997745,27.140456 C 18.528582,18.264221 13.291696,25.230495 11.500037,31.436501 z"
     style="fill:#404040;"/>
  </a>
 </g>
</svg>

<style type='text/css'>
<![CDATA[
[data-mouse-over-selected='false'] { opacity: 0.7; }
[data-mouse-over-selected='true']  { opacity: 1.0; }
]]>
</style>
<script type="application/ecmascript"><![CDATA[
document.addEventListener('DOMContentLoaded', (event) => {
  highlightEdges();
  highlightAdjacentNodes();
});
]]></script>
</svg>
