<?xml version="1.0" encoding="UTF-8" standalone="no"?>
<!DOCTYPE svg PUBLIC "-//W3C//DTD SVG 1.1//EN"
 "http://www.w3.org/Graphics/SVG/1.1/DTD/svg11.dtd">
<!-- Generated by graphviz version 15.1.0 (20260618.0150)
 -->
<!-- Title: MoveStrategy&lt; Strategies::MOVE_ALWAYS, ManifoldType &gt; Pages: 1 -->
<!--zoomable 620 -->

<svg id="main" version="1.1" xmlns="http://www.w3.org/2000/svg" xmlns:xlink="http://www.w3.org/1999/xlink" xml:space="preserve" onload="init(evt)">

<style type="text/css"><![CDATA[
.node, .edge {opacity: 0.7;}
.node.selected, .edge.selected {opacity: 1;}
.edge:hover path { stroke: red; }
.edge:hover polygon { stroke: red; fill: red; }
]]></style>

<defs>
  <circle id="rim" cx="0" cy="0" r="7"/>
  <circle id="rim2" cx="0" cy="0" r="3.5"/>
  <g id="zoomPlus">
    <use xlink:href="#rim" fill="#404040"><set attributeName="fill" to="#808080" begin="zoomplus.mouseover" end="zoomplus.mouseout"/></use>
    <path d="M-4,0h8M0,-4v8" fill="none" stroke="white" stroke-width="1.5" pointer-events="none"/>
  </g>
  <g id="zoomMin">
    <use xlink:href="#rim" fill="#404040"><set attributeName="fill" to="#808080" begin="zoomminus.mouseover" end="zoomminus.mouseout"/></use>
    <path d="M-4,0h8" fill="none" stroke="white" stroke-width="1.5" pointer-events="none"/>
  </g>
  <g id="arrowUp" transform="translate(30 24)">
    <use xlink:href="#rim"/>
    <path pointer-events="none" fill="none" stroke="white" stroke-width="1.5" d="M0,-3.0v7 M-2.5,-0.5L0,-3.0L2.5,-0.5"/>
  </g>
  <g id="arrowRight" transform="rotate(90) translate(36 -43)">
    <use xlink:href="#rim"/>
    <path pointer-events="none" fill="none" stroke="white" stroke-width="1.5" d="M0,-3.0v7 M-2.5,-0.5L0,-3.0L2.5,-0.5"/>
  </g>
  <g id="arrowDown" transform="rotate(180) translate(-30 -48)">
    <use xlink:href="#rim"/>
    <path pointer-events="none" fill="none" stroke="white" stroke-width="1.5" d="M0,-3.0v7 M-2.5,-0.5L0,-3.0L2.5,-0.5"/>
  </g>
  <g id="arrowLeft" transform="rotate(270) translate(-36 17)">
    <use xlink:href="#rim"/>
    <path pointer-events="none" fill="none" stroke="white" stroke-width="1.5" d="M0,-3.0v7 M-2.5,-0.5L0,-3.0L2.5,-0.5"/>
  </g>
  <g id="resetDef">
    <use xlink:href="#rim2" fill="#404040"><set attributeName="fill" to="#808080" begin="reset.mouseover" end="reset.mouseout"/></use>
  </g>
</defs>
<script type="application/ecmascript">
var viewWidth = 302;
var viewHeight = 620;
var sectionId = 'dynsection-1';
</script>
<script type="application/ecmascript" xlink:href="svg.min.js"/>
<svg id="graph" class="graph">
<g id="viewport">
<title>MoveStrategy&lt; Strategies::MOVE_ALWAYS, ManifoldType &gt;</title>
<!-- Node1 -->
<g id="Node000001" class="node">
<title>Node1</title>
<g id="a_Node000001"><a xlink:title="The Move Always algorithm.">
<polygon fill="#999999" stroke="none" points="198.5,-318.25 29.25,-318.25 29.25,0 198.5,0 198.5,-318.25"/>
<text xml:space="preserve" text-anchor="start" x="33.25" y="-304.5" font-family="Helvetica,sans-Serif" font-size="10.00">MoveStrategy&lt; Strategies</text>
<text xml:space="preserve" text-anchor="start" x="33.25" y="-291.75" font-family="Helvetica,sans-Serif" font-size="10.00">::MOVE_ALWAYS, ManifoldType &gt;</text>
<text xml:space="preserve" text-anchor="start" x="46.69" y="-275" font-family="Helvetica,sans-Serif" font-size="10.00">&#45;</text>
<text xml:space="preserve" text-anchor="start" x="67.88" y="-275" font-family="Helvetica,sans-Serif" font-size="10.00">m_attempted_moves</text>
<text xml:space="preserve" text-anchor="start" x="46.69" y="-258.25" font-family="Helvetica,sans-Serif" font-size="10.00">&#45;</text>
<text xml:space="preserve" text-anchor="start" x="67.88" y="-258.25" font-family="Helvetica,sans-Serif" font-size="10.00">m_checkpoint</text>
<text xml:space="preserve" text-anchor="start" x="46.69" y="-241.5" font-family="Helvetica,sans-Serif" font-size="10.00">&#45;</text>
<text xml:space="preserve" text-anchor="start" x="67.88" y="-241.5" font-family="Helvetica,sans-Serif" font-size="10.00">m_failed_moves</text>
<text xml:space="preserve" text-anchor="start" x="46.69" y="-224.75" font-family="Helvetica,sans-Serif" font-size="10.00">&#45;</text>
<text xml:space="preserve" text-anchor="start" x="67.88" y="-224.75" font-family="Helvetica,sans-Serif" font-size="10.00">m_passes</text>
<text xml:space="preserve" text-anchor="start" x="46.69" y="-208" font-family="Helvetica,sans-Serif" font-size="10.00">&#45;</text>
<text xml:space="preserve" text-anchor="start" x="67.88" y="-208" font-family="Helvetica,sans-Serif" font-size="10.00">m_successful_moves</text>
<text xml:space="preserve" text-anchor="start" x="44.44" y="-191.25" font-family="Helvetica,sans-Serif" font-size="10.00">+</text>
<text xml:space="preserve" text-anchor="start" x="67.88" y="-191.25" font-family="Helvetica,sans-Serif" font-size="10.00">MoveStrategy()</text>
<text xml:space="preserve" text-anchor="start" x="44.44" y="-174.5" font-family="Helvetica,sans-Serif" font-size="10.00">+</text>
<text xml:space="preserve" text-anchor="start" x="67.88" y="-174.5" font-family="Helvetica,sans-Serif" font-size="10.00">MoveStrategy()</text>
<text xml:space="preserve" text-anchor="start" x="44.44" y="-157.75" font-family="Helvetica,sans-Serif" font-size="10.00">+</text>
<text xml:space="preserve" text-anchor="start" x="67.88" y="-157.75" font-family="Helvetica,sans-Serif" font-size="10.00">MoveStrategy()</text>
<text xml:space="preserve" text-anchor="start" x="44.44" y="-141" font-family="Helvetica,sans-Serif" font-size="10.00">+</text>
<text xml:space="preserve" text-anchor="start" x="67.88" y="-141" font-family="Helvetica,sans-Serif" font-size="10.00">MoveStrategy()</text>
<text xml:space="preserve" text-anchor="start" x="44.44" y="-124.25" font-family="Helvetica,sans-Serif" font-size="10.00">+</text>
<text xml:space="preserve" text-anchor="start" x="67.88" y="-124.25" font-family="Helvetica,sans-Serif" font-size="10.00">checkpoint()</text>
<text xml:space="preserve" text-anchor="start" x="44.44" y="-107.5" font-family="Helvetica,sans-Serif" font-size="10.00">+</text>
<text xml:space="preserve" text-anchor="start" x="67.88" y="-107.5" font-family="Helvetica,sans-Serif" font-size="10.00">get_attempted()</text>
<text xml:space="preserve" text-anchor="start" x="44.44" y="-90.75" font-family="Helvetica,sans-Serif" font-size="10.00">+</text>
<text xml:space="preserve" text-anchor="start" x="67.88" y="-90.75" font-family="Helvetica,sans-Serif" font-size="10.00">get_failed()</text>
<text xml:space="preserve" text-anchor="start" x="44.44" y="-74" font-family="Helvetica,sans-Serif" font-size="10.00">+</text>
<text xml:space="preserve" text-anchor="start" x="67.88" y="-74" font-family="Helvetica,sans-Serif" font-size="10.00">get_succeeded()</text>
<text xml:space="preserve" text-anchor="start" x="44.44" y="-57.25" font-family="Helvetica,sans-Serif" font-size="10.00">+</text>
<text xml:space="preserve" text-anchor="start" x="67.88" y="-57.25" font-family="Helvetica,sans-Serif" font-size="10.00">operator()()</text>
<text xml:space="preserve" text-anchor="start" x="44.44" y="-40.5" font-family="Helvetica,sans-Serif" font-size="10.00">+</text>
<text xml:space="preserve" text-anchor="start" x="67.88" y="-40.5" font-family="Helvetica,sans-Serif" font-size="10.00">passes()</text>
<text xml:space="preserve" text-anchor="start" x="44.44" y="-23.75" font-family="Helvetica,sans-Serif" font-size="10.00">+</text>
<text xml:space="preserve" text-anchor="start" x="67.88" y="-23.75" font-family="Helvetica,sans-Serif" font-size="10.00">print_results()</text>
<text xml:space="preserve" text-anchor="start" x="44.44" y="-7" font-family="Helvetica,sans-Serif" font-size="10.00">+</text>
<text xml:space="preserve" text-anchor="start" x="67.88" y="-7" font-family="Helvetica,sans-Serif" font-size="10.00">seed()</text>
<polygon fill="#666666" stroke="#666666" points="29.25,-286.75 29.25,-286.75 198.5,-286.75 198.5,-286.75 29.25,-286.75"/>
<polygon fill="#666666" stroke="#666666" points="29.25,-203 29.25,-203 65.88,-203 65.88,-203 29.25,-203"/>
<polygon fill="#666666" stroke="#666666" points="65.88,-203 65.88,-203 198.5,-203 198.5,-203 65.88,-203"/>
<polygon fill="none" stroke="#666666" points="29.25,0 29.25,-318.25 198.5,-318.25 198.5,0 29.25,0"/>
</a>
</g>
</g>
<!-- Node2 -->
<g id="Node000002" class="node">
<title>Node2</title>
<g id="a_Node000002"><a xlink:href="classcdt_1_1_random.html" target="_top" xlink:title="A run&#45;owned PCG engine with a recorded seed and stream identifier.">
<polygon fill="white" stroke="none" points="93.75,-611.5 0,-611.5 0,-389.75 93.75,-389.75 93.75,-611.5"/>
<text xml:space="preserve" text-anchor="start" x="16.12" y="-597.75" font-family="Helvetica,sans-Serif" font-size="10.00">cdt::Random</text>
<text xml:space="preserve" text-anchor="start" x="6.25" y="-581" font-family="Helvetica,sans-Serif" font-size="10.00">&#45;</text>
<text xml:space="preserve" text-anchor="start" x="16.25" y="-581" font-family="Helvetica,sans-Serif" font-size="10.00">m_engine</text>
<text xml:space="preserve" text-anchor="start" x="6.25" y="-564.25" font-family="Helvetica,sans-Serif" font-size="10.00">&#45;</text>
<text xml:space="preserve" text-anchor="start" x="16.25" y="-564.25" font-family="Helvetica,sans-Serif" font-size="10.00">m_seed</text>
<text xml:space="preserve" text-anchor="start" x="6.25" y="-547.5" font-family="Helvetica,sans-Serif" font-size="10.00">&#45;</text>
<text xml:space="preserve" text-anchor="start" x="16.25" y="-547.5" font-family="Helvetica,sans-Serif" font-size="10.00">m_stream</text>
<text xml:space="preserve" text-anchor="start" x="4" y="-530.75" font-family="Helvetica,sans-Serif" font-size="10.00">+</text>
<text xml:space="preserve" text-anchor="start" x="16.25" y="-530.75" font-family="Helvetica,sans-Serif" font-size="10.00">Random()</text>
<text xml:space="preserve" text-anchor="start" x="4" y="-514" font-family="Helvetica,sans-Serif" font-size="10.00">+</text>
<text xml:space="preserve" text-anchor="start" x="16.25" y="-514" font-family="Helvetica,sans-Serif" font-size="10.00">Random()</text>
<text xml:space="preserve" text-anchor="start" x="4" y="-497.25" font-family="Helvetica,sans-Serif" font-size="10.00">+</text>
<text xml:space="preserve" text-anchor="start" x="16.25" y="-497.25" font-family="Helvetica,sans-Serif" font-size="10.00">operator()()</text>
<text xml:space="preserve" text-anchor="start" x="4" y="-480.5" font-family="Helvetica,sans-Serif" font-size="10.00">+</text>
<text xml:space="preserve" text-anchor="start" x="16.25" y="-480.5" font-family="Helvetica,sans-Serif" font-size="10.00">seed()</text>
<text xml:space="preserve" text-anchor="start" x="4" y="-463.75" font-family="Helvetica,sans-Serif" font-size="10.00">+</text>
<text xml:space="preserve" text-anchor="start" x="16.25" y="-463.75" font-family="Helvetica,sans-Serif" font-size="10.00">split()</text>
<text xml:space="preserve" text-anchor="start" x="4" y="-447" font-family="Helvetica,sans-Serif" font-size="10.00">+</text>
<text xml:space="preserve" text-anchor="start" x="16.25" y="-447" font-family="Helvetica,sans-Serif" font-size="10.00">stream()</text>
<text xml:space="preserve" text-anchor="start" x="4" y="-430.25" font-family="Helvetica,sans-Serif" font-size="10.00">+</text>
<text xml:space="preserve" text-anchor="start" x="16.25" y="-430.25" font-family="Helvetica,sans-Serif" font-size="10.00">max()</text>
<text xml:space="preserve" text-anchor="start" x="4" y="-413.5" font-family="Helvetica,sans-Serif" font-size="10.00">+</text>
<text xml:space="preserve" text-anchor="start" x="16.25" y="-413.5" font-family="Helvetica,sans-Serif" font-size="10.00">min()</text>
<text xml:space="preserve" text-anchor="start" x="6.25" y="-396.75" font-family="Helvetica,sans-Serif" font-size="10.00">&#45;</text>
<text xml:space="preserve" text-anchor="start" x="16.25" y="-396.75" font-family="Helvetica,sans-Serif" font-size="10.00">entropy_seed()</text>
<polygon fill="#666666" stroke="#666666" points="0,-592.75 0,-592.75 93.75,-592.75 93.75,-592.75 0,-592.75"/>
<polygon fill="#666666" stroke="#666666" points="0,-542.5 0,-542.5 14.25,-542.5 14.25,-542.5 0,-542.5"/>
<polygon fill="#666666" stroke="#666666" points="14.25,-542.5 14.25,-542.5 93.75,-542.5 93.75,-542.5 14.25,-542.5"/>
<polygon fill="none" stroke="#666666" points="0,-389.75 0,-611.5 93.75,-611.5 93.75,-389.75 0,-389.75"/>
</a>
</g>
</g>
<!-- Node2&#45;&gt;Node1 -->
<g id="edge1_Node000001_Node000002" class="edge">
<title>Node2&#45;&gt;Node1</title>
<g id="a_edge1_Node000001_Node000002"><a xlink:title=" ">
<path fill="none" stroke="#63b8ff" d="M68.54,-389.87C72.29,-370.86 76.27,-350.69 80.25,-330.52"/>
<polygon fill="none" stroke="#63b8ff" points="80.23,-330.62 77.47,-323.96 82.55,-318.85 85.31,-325.51 80.23,-330.62"/>
</a>
</g>
<text xml:space="preserve" text-anchor="start" x="81.37" y="-350.62" font-family="Helvetica,sans-Serif" font-size="10.00" fill="grey">&#45;m_random</text>
</g>
<!-- Node3 -->
<g id="Node000003" class="node">
<title>Node3</title>
<g id="a_Node000003"><a xlink:href="class_move_strategy.html" target="_top" xlink:title="Select a move algorithm.">
<polygon fill="white" stroke="none" points="251.5,-534.12 112.25,-534.12 112.25,-467.12 251.5,-467.12 251.5,-534.12"/>
<text xml:space="preserve" text-anchor="start" x="116.25" y="-520.38" font-family="Helvetica,sans-Serif" font-size="10.00">MoveStrategy&lt; strategies,</text>
<text xml:space="preserve" text-anchor="start" x="142.12" y="-507.62" font-family="Helvetica,sans-Serif" font-size="10.00"> ManifoldType &gt;</text>
<text xml:space="preserve" text-anchor="start" x="180.38" y="-490.88" font-family="Helvetica,sans-Serif" font-size="10.00"> </text>
<text xml:space="preserve" text-anchor="start" x="180.38" y="-474.12" font-family="Helvetica,sans-Serif" font-size="10.00"> </text>
<polygon fill="#666666" stroke="#666666" points="112.25,-502.62 112.25,-502.62 251.5,-502.62 251.5,-502.62 112.25,-502.62"/>
<polygon fill="#666666" stroke="#666666" points="112.25,-485.88 112.25,-485.88 251.5,-485.88 251.5,-485.88 112.25,-485.88"/>
<polygon fill="none" stroke="#666666" points="112.25,-467.12 112.25,-534.12 251.5,-534.12 251.5,-467.12 112.25,-467.12"/>
</a>
</g>
</g>
<!-- Node3&#45;&gt;Node1 -->
<g id="edge2_Node000001_Node000003" class="edge">
<title>Node3&#45;&gt;Node1</title>
<g id="a_edge2_Node000001_Node000003"><a xlink:title=" ">
<path fill="none" stroke="orange" d="M173.24,-456.53C166.17,-421.2 155.69,-368.9 145.5,-318.03"/>
<polygon fill="orange" stroke="orange" points="169.72,-456.78 175.12,-465.9 176.59,-455.4 169.72,-456.78"/>
</a>
</g>
<text xml:space="preserve" text-anchor="start" x="158.97" y="-359" font-family="Helvetica,sans-Serif" font-size="10.00" fill="grey">&lt; Strategies::MOVE</text>
<text xml:space="preserve" text-anchor="start" x="158.97" y="-342.25" font-family="Helvetica,sans-Serif" font-size="10.00" fill="grey">  _ALWAYS, ManifoldType &gt;</text>
</g>
</g>
</svg>

<g id="navigator" transform="translate(0 0)" fill="#404254">
  <rect fill="#f2f5e9" fill-opacity="0.5" stroke="#606060" stroke-width=".5" x="0" y="0" width="60" height="60"/>
  <use id="zoomplus" xlink:href="#zoomPlus" x="17" y="9" onmousedown="handleZoom(evt,'in')"/>
  <use id="zoomminus" xlink:href="#zoomMin" x="42" y="9" onmousedown="handleZoom(evt,'out')"/>
  <use id="reset" xlink:href="#resetDef" x="30" y="36" onmousedown="handleReset()"/>
   <use id="arrowup" xlink:href="#arrowUp" x="0" y="0" onmousedown="handlePan(0,-1)"/>
  <use id="arrowright" xlink:href="#arrowRight" x="0" y="0" onmousedown="handlePan(1,0)"/>
  <use id="arrowdown" xlink:href="#arrowDown" x="0" y="0" onmousedown="handlePan(0,1)"/>
  <use id="arrowleft" xlink:href="#arrowLeft" x="0" y="0" onmousedown="handlePan(-1,0)"/>
</g>
<svg viewBox="0 0 15 15" width="100%" height="30px" preserveAspectRatio="xMaxYMin meet">
 <g id="arrow_out" transform="scale(0.3 0.3)">
  <a xlink:href="class_move_strategy_3_01_strategies_1_1_m_o_v_e___a_l_w_a_y_s_00_01_manifold_type_01_4__coll__graph_org.svg" target="_base">
   <rect id="button" ry="5" rx="5" y="6" x="6" height="38" width="38"
        fill="#f2f5e9" fill-opacity="0.5" stroke="#606060" stroke-width="1.0"/>
   <path id="arrow"
     d="M 11.500037,31.436501 C 11.940474,20.09759 22.043105,11.32322 32.158766,21.979434 L 37.068811,17.246167 C 37.068811,17.246167 37.088388,32 37.088388,32 L 22.160133,31.978069 C 22.160133,31.978069 26.997745,27.140456 26.997745,27.140456 C 18.528582,18.264221 13.291696,25.230495 11.500037,31.436501 z"
     style="fill:#404040;"/>
  </a>
 </g>
</svg>

<style type='text/css'>
<![CDATA[
[data-mouse-over-selected='false'] { opacity: 0.7; }
[data-mouse-over-selected='true']  { opacity: 1.0; }
]]>
</style>
<script type="application/ecmascript"><![CDATA[
document.addEventListener('DOMContentLoaded', (event) => {
  highlightEdges();
  highlightAdjacentNodes();
});
]]></script>
</svg>
