<?xml version="1.0" encoding="UTF-8" standalone="no"?>
<!DOCTYPE svg PUBLIC "-//W3C//DTD SVG 1.1//EN"
 "http://www.w3.org/Graphics/SVG/1.1/DTD/svg11.dtd">
<!-- Generated by graphviz version 2.43.0 (0)
 -->
<!-- Title: move_tracker::MoveTracker&lt; ManifoldType &gt; Pages: 1 -->
<svg width="255pt" height="546pt"
 viewBox="0.00 0.00 254.50 546.00" xmlns="http://www.w3.org/2000/svg" xmlns:xlink="http://www.w3.org/1999/xlink">
<g id="graph0" class="graph" transform="scale(1 1) rotate(0) translate(4 542)">
<title>move_tracker::MoveTracker&lt; ManifoldType &gt;</title>
<polygon fill="white" stroke="transparent" points="-4,4 -4,-542 250.5,-542 250.5,4 -4,4"/>
<!-- Node1 -->
<g id="node1" class="node">
<title>Node1</title>
<g id="a_node1"><a xlink:title="The data and methods to track ergodic moves.">
<polygon fill="#bfbfbf" stroke="black" points="24,-0.5 24,-178.5 175,-178.5 175,-0.5 24,-0.5"/>
<text text-anchor="start" x="32" y="-166.5" font-family="Helvetica,sans-Serif" font-size="10.00">move_tracker::MoveTracker</text>
<text text-anchor="middle" x="99.5" y="-155.5" font-family="Helvetica,sans-Serif" font-size="10.00">&lt; ManifoldType &gt;</text>
<polyline fill="none" stroke="black" points="24,-148.5 175,-148.5 "/>
<text text-anchor="middle" x="99.5" y="-136.5" font-family="Helvetica,sans-Serif" font-size="10.00"> </text>
<polyline fill="none" stroke="black" points="24,-129.5 175,-129.5 "/>
<text text-anchor="start" x="32" y="-117.5" font-family="Helvetica,sans-Serif" font-size="10.00">+ eight_two_moves()</text>
<text text-anchor="start" x="32" y="-106.5" font-family="Helvetica,sans-Serif" font-size="10.00">+ eight_two_moves()</text>
<text text-anchor="start" x="32" y="-95.5" font-family="Helvetica,sans-Serif" font-size="10.00">+ four_four_moves()</text>
<text text-anchor="start" x="32" y="-84.5" font-family="Helvetica,sans-Serif" font-size="10.00">+ four_four_moves()</text>
<text text-anchor="start" x="32" y="-73.5" font-family="Helvetica,sans-Serif" font-size="10.00">+ four_six_moves()</text>
<text text-anchor="start" x="32" y="-62.5" font-family="Helvetica,sans-Serif" font-size="10.00">+ four_six_moves()</text>
<text text-anchor="start" x="32" y="-51.5" font-family="Helvetica,sans-Serif" font-size="10.00">+ four_two_moves()</text>
<text text-anchor="start" x="32" y="-40.5" font-family="Helvetica,sans-Serif" font-size="10.00">+ four_two_moves()</text>
<text text-anchor="start" x="32" y="-29.5" font-family="Helvetica,sans-Serif" font-size="10.00">+ moves_view()</text>
<text text-anchor="start" x="32" y="-18.5" font-family="Helvetica,sans-Serif" font-size="10.00">+ operator+=()</text>
<text text-anchor="start" x="32" y="-7.5" font-family="Helvetica,sans-Serif" font-size="10.00">and 21 more...</text>
</a>
</g>
</g>
<!-- Node2 -->
<g id="node2" class="node">
<title>Node2</title>
<g id="a_node2"><a xlink:title=" ">
<polygon fill="white" stroke="#bfbfbf" points="0,-226.5 0,-305.5 199,-305.5 199,-226.5 0,-226.5"/>
<text text-anchor="start" x="8" y="-293.5" font-family="Helvetica,sans-Serif" font-size="10.00">std::array&lt; Int_precision,</text>
<text text-anchor="start" x="8" y="-282.5" font-family="Helvetica,sans-Serif" font-size="10.00"> moves_per_dimension(ManifoldType</text>
<text text-anchor="middle" x="99.5" y="-271.5" font-family="Helvetica,sans-Serif" font-size="10.00">::dimension)&gt;</text>
<polyline fill="none" stroke="#bfbfbf" points="0,-264.5 199,-264.5 "/>
<text text-anchor="start" x="8" y="-252.5" font-family="Helvetica,sans-Serif" font-size="10.00">+ elements</text>
<polyline fill="none" stroke="#bfbfbf" points="0,-245.5 199,-245.5 "/>
<text text-anchor="middle" x="99.5" y="-233.5" font-family="Helvetica,sans-Serif" font-size="10.00"> </text>
</a>
</g>
</g>
<!-- Node2&#45;&gt;Node1 -->
<g id="edge1" class="edge">
<title>Node2&#45;&gt;Node1</title>
<path fill="none" stroke="#404040" d="M99.5,-226.27C99.5,-215.54 99.5,-203.38 99.5,-190.85"/>
<polygon fill="none" stroke="#404040" points="99.5,-190.75 95.5,-184.75 99.5,-178.75 103.5,-184.75 99.5,-190.75"/>
<text text-anchor="middle" x="119.5" y="-200" font-family="Helvetica,sans-Serif" font-size="10.00"> &#45;moves</text>
</g>
<!-- Node3 -->
<g id="node3" class="node">
<title>Node3</title>
<g id="a_node3"><a xlink:title=" ">
<polygon fill="white" stroke="#bfbfbf" points="53.5,-375.5 53.5,-432.5 145.5,-432.5 145.5,-375.5 53.5,-375.5"/>
<text text-anchor="middle" x="99.5" y="-420.5" font-family="Helvetica,sans-Serif" font-size="10.00">std::array&lt; T &gt;</text>
<polyline fill="none" stroke="#bfbfbf" points="53.5,-413.5 145.5,-413.5 "/>
<text text-anchor="middle" x="99.5" y="-401.5" font-family="Helvetica,sans-Serif" font-size="10.00"> </text>
<polyline fill="none" stroke="#bfbfbf" points="53.5,-394.5 145.5,-394.5 "/>
<text text-anchor="middle" x="99.5" y="-382.5" font-family="Helvetica,sans-Serif" font-size="10.00"> </text>
</a>
</g>
</g>
<!-- Node3&#45;&gt;Node2 -->
<g id="edge2" class="edge">
<title>Node3&#45;&gt;Node2</title>
<path fill="none" stroke="orange" d="M99.5,-365.3C99.5,-346.69 99.5,-324.28 99.5,-305.56"/>
<polygon fill="orange" stroke="orange" points="96,-365.48 99.5,-375.48 103,-365.48 96,-365.48"/>
<text text-anchor="start" x="99.5" y="-349" font-family="Helvetica,sans-Serif" font-size="10.00"> &lt; Int_precision, moves</text>
<text text-anchor="start" x="99.5" y="-338" font-family="Helvetica,sans-Serif" font-size="10.00">_per_dimension(ManifoldType</text>
<text text-anchor="middle" x="173" y="-327" font-family="Helvetica,sans-Serif" font-size="10.00">::dimension)&gt;</text>
</g>
<!-- Node4 -->
<g id="node4" class="node">
<title>Node4</title>
<g id="a_node4"><a xlink:title=" ">
<polygon fill="white" stroke="#bfbfbf" points="85,-480.5 85,-537.5 114,-537.5 114,-480.5 85,-480.5"/>
<text text-anchor="middle" x="99.5" y="-525.5" font-family="Helvetica,sans-Serif" font-size="10.00">T</text>
<polyline fill="none" stroke="#bfbfbf" points="85,-518.5 114,-518.5 "/>
<text text-anchor="middle" x="99.5" y="-506.5" font-family="Helvetica,sans-Serif" font-size="10.00"> </text>
<polyline fill="none" stroke="#bfbfbf" points="85,-499.5 114,-499.5 "/>
<text text-anchor="middle" x="99.5" y="-487.5" font-family="Helvetica,sans-Serif" font-size="10.00"> </text>
</a>
</g>
</g>
<!-- Node4&#45;&gt;Node3 -->
<g id="edge3" class="edge">
<title>Node4&#45;&gt;Node3</title>
<path fill="none" stroke="#404040" d="M99.5,-480.4C99.5,-469.55 99.5,-456.87 99.5,-445.05"/>
<polygon fill="none" stroke="#404040" points="99.5,-444.68 95.5,-438.68 99.5,-432.68 103.5,-438.68 99.5,-444.68"/>
<text text-anchor="middle" x="128.5" y="-454" font-family="Helvetica,sans-Serif" font-size="10.00"> +elements</text>
</g>
</g>
</svg>
