<?xml version="1.0" encoding="UTF-8" standalone="no"?>
<!DOCTYPE svg PUBLIC "-//W3C//DTD SVG 1.1//EN"
 "http://www.w3.org/Graphics/SVG/1.1/DTD/svg11.dtd">
<!-- Generated by graphviz version 2.40.1 (20161225.0304)
 -->
<!-- Title: Manifold&lt; 3 &gt; Pages: 1 -->
<!--zoomable 1091 -->
<svg id="main" version="1.1" xmlns="http://www.w3.org/2000/svg" xmlns:xlink="http://www.w3.org/1999/xlink" xml:space="preserve" onload="init(evt)">
<style type="text/css"><![CDATA[
.edge:hover path { stroke: red; }
.edge:hover polygon { stroke: red; fill: red; }
]]></style>
<script type="text/javascript"><![CDATA[
var edges = document.getElementsByTagName('g');
if (edges && edges.length) {
  for (var i=0;i<edges.length;i++) {
    if (edges[i].id.substr(0,4)=='edge') {
      edges[i].setAttribute('class','edge');
    }
  }
}
]]></script>
        <defs>
                <circle id="rim" cx="0" cy="0" r="7"/>
                <circle id="rim2" cx="0" cy="0" r="3.5"/>
                <g id="zoomPlus">
                        <use xlink:href="#rim" fill="#404040">
                                <set attributeName="fill" to="#808080" begin="zoomplus.mouseover" end="zoomplus.mouseout"/>
                        </use>
                        <path d="M-4,0h8M0,-4v8" fill="none" stroke="white" stroke-width="1.5" pointer-events="none"/>
                </g>
                <g id="zoomMin">
                        <use xlink:href="#rim" fill="#404040">
                                <set attributeName="fill" to="#808080" begin="zoomminus.mouseover" end="zoomminus.mouseout"/>
                        </use>
                        <path d="M-4,0h8" fill="none" stroke="white" stroke-width="1.5" pointer-events="none"/>
                </g>
                <g id="dirArrow">
                        <path fill="none" stroke="white" stroke-width="1.5" d="M0,-3.0v7 M-2.5,-0.5L0,-3.0L2.5,-0.5"/>
                </g>
               <g id="resetDef">
                       <use xlink:href="#rim2" fill="#404040">
                               <set attributeName="fill" to="#808080" begin="reset.mouseover" end="reset.mouseout"/>
                       </use>
               </g>
        </defs>

<script type="text/javascript">
var viewWidth = 798;
var viewHeight = 1091;
var sectionId = 'dynsection-0';
</script>
<script xlink:href="svgpan.js"/>
<svg id="graph" class="graph">
<g id="viewport">
<title>Manifold&lt; 3 &gt;</title>
<polygon fill="#ffffff" stroke="transparent" points="-4,4 -4,-1087 794,-1087 794,4 -4,4"/>
<!-- Node1 -->
<g id="node1" class="node">
<title>Node1</title>
<polygon fill="#bfbfbf" stroke="#000000" points="178,-.5 178,-233.5 336,-233.5 336,-.5 178,-.5"/>
<text text-anchor="middle" x="257" y="-221.5" font-family="Helvetica,sans-Serif" font-size="10.00" fill="#000000">Manifold&lt; 3 &gt;</text>
<polyline fill="none" stroke="#000000" points="178,-214.5 336,-214.5 "/>
<text text-anchor="middle" x="257" y="-202.5" font-family="Helvetica,sans-Serif" font-size="10.00" fill="#000000"> </text>
<polyline fill="none" stroke="#000000" points="178,-195.5 336,-195.5 "/>
<text text-anchor="start" x="186" y="-183.5" font-family="Helvetica,sans-Serif" font-size="10.00" fill="#000000">+ Manifold()</text>
<text text-anchor="start" x="186" y="-172.5" font-family="Helvetica,sans-Serif" font-size="10.00" fill="#000000">+ Manifold()</text>
<text text-anchor="start" x="186" y="-161.5" font-family="Helvetica,sans-Serif" font-size="10.00" fill="#000000">+ Manifold()</text>
<text text-anchor="start" x="186" y="-150.5" font-family="Helvetica,sans-Serif" font-size="10.00" fill="#000000">+ Manifold()</text>
<text text-anchor="start" x="186" y="-139.5" font-family="Helvetica,sans-Serif" font-size="10.00" fill="#000000">+ Manifold()</text>
<text text-anchor="start" x="186" y="-128.5" font-family="Helvetica,sans-Serif" font-size="10.00" fill="#000000">+ Manifold()</text>
<text text-anchor="start" x="186" y="-117.5" font-family="Helvetica,sans-Serif" font-size="10.00" fill="#000000">+ ~Manifold()</text>
<text text-anchor="start" x="186" y="-106.5" font-family="Helvetica,sans-Serif" font-size="10.00" fill="#000000">+ are_all_vertex_timevalues</text>
<text text-anchor="start" x="186" y="-95.5" font-family="Helvetica,sans-Serif" font-size="10.00" fill="#000000">_valid()</text>
<text text-anchor="start" x="186" y="-84.5" font-family="Helvetica,sans-Serif" font-size="10.00" fill="#000000">+ are_vertex_timevalues</text>
<text text-anchor="start" x="186" y="-73.5" font-family="Helvetica,sans-Serif" font-size="10.00" fill="#000000">_valid()</text>
<text text-anchor="start" x="186" y="-62.5" font-family="Helvetica,sans-Serif" font-size="10.00" fill="#000000">+ check_simplices()</text>
<text text-anchor="start" x="186" y="-51.5" font-family="Helvetica,sans-Serif" font-size="10.00" fill="#000000">and 36 more...</text>
<text text-anchor="start" x="186" y="-40.5" font-family="Helvetica,sans-Serif" font-size="10.00" fill="#000000">+ are_simplex_types_valid()</text>
<text text-anchor="start" x="186" y="-29.5" font-family="Helvetica,sans-Serif" font-size="10.00" fill="#000000">+ get_vertices_from_cells()</text>
<text text-anchor="start" x="186" y="-18.5" font-family="Helvetica,sans-Serif" font-size="10.00" fill="#000000">&#45; update_geometry()</text>
<text text-anchor="start" x="186" y="-7.5" font-family="Helvetica,sans-Serif" font-size="10.00" fill="#000000">&#45; update_triangulation()</text>
</g>
<!-- Node2 -->
<g id="node2" class="node">
<title>Node2</title>
<g id="a_node2"><a xlink:href="struct_geometry_3_013_01_4.html" target="_top" xlink:title="3D Geometry ">
<polygon fill="#ffffff" stroke="#000000" points="164,-413.5 164,-580.5 258,-580.5 258,-413.5 164,-413.5"/>
<text text-anchor="middle" x="211" y="-568.5" font-family="Helvetica,sans-Serif" font-size="10.00" fill="#000000">Geometry&lt; 3 &gt;</text>
<polyline fill="none" stroke="#000000" points="164,-561.5 258,-561.5 "/>
<text text-anchor="start" x="172" y="-549.5" font-family="Helvetica,sans-Serif" font-size="10.00" fill="#000000">+ N0</text>
<text text-anchor="start" x="172" y="-538.5" font-family="Helvetica,sans-Serif" font-size="10.00" fill="#000000">+ N1</text>
<text text-anchor="start" x="172" y="-527.5" font-family="Helvetica,sans-Serif" font-size="10.00" fill="#000000">+ N1_SL</text>
<text text-anchor="start" x="172" y="-516.5" font-family="Helvetica,sans-Serif" font-size="10.00" fill="#000000">+ N1_TL</text>
<text text-anchor="start" x="172" y="-505.5" font-family="Helvetica,sans-Serif" font-size="10.00" fill="#000000">+ N2</text>
<text text-anchor="start" x="172" y="-494.5" font-family="Helvetica,sans-Serif" font-size="10.00" fill="#000000">+ N3</text>
<text text-anchor="start" x="172" y="-483.5" font-family="Helvetica,sans-Serif" font-size="10.00" fill="#000000">+ N3_13</text>
<text text-anchor="start" x="172" y="-472.5" font-family="Helvetica,sans-Serif" font-size="10.00" fill="#000000">+ N3_22</text>
<text text-anchor="start" x="172" y="-461.5" font-family="Helvetica,sans-Serif" font-size="10.00" fill="#000000">+ N3_31</text>
<text text-anchor="start" x="172" y="-450.5" font-family="Helvetica,sans-Serif" font-size="10.00" fill="#000000">+ N3_31_13</text>
<polyline fill="none" stroke="#000000" points="164,-443.5 258,-443.5 "/>
<text text-anchor="start" x="172" y="-431.5" font-family="Helvetica,sans-Serif" font-size="10.00" fill="#000000">+ Geometry()</text>
<text text-anchor="start" x="172" y="-420.5" font-family="Helvetica,sans-Serif" font-size="10.00" fill="#000000">+ Geometry()</text>
</a>
</g>
</g>
<!-- Node2&#45;&gt;Node1 -->
<g id="edge1" class="edge">
<title>Node2&#45;&gt;Node1</title>
<path fill="none" stroke="#404040" d="M217.8723,-413.2212C222.0946,-365.8228 228.027,-305.5047 235,-252 235.269,-249.9359 235.5454,-247.8549 235.8283,-245.7605"/>
<polygon fill="none" stroke="#404040" points="235.8603,-245.53 232.7257,-239.0358 237.5146,-233.6445 240.6493,-240.1387 235.8603,-245.53"/>
<text text-anchor="middle" x="270" y="-255" font-family="Helvetica,sans-Serif" font-size="10.00" fill="#000000"> &#45;m_geometry</text>
</g>
<!-- Node3 -->
<g id="node3" class="node">
<title>Node3</title>
<g id="a_node3"><a xlink:href="class_foliated_triangulation_3_013_01_4.html" target="_top" xlink:title="3D Triangulation ">
<polygon fill="#ffffff" stroke="#000000" points="276.5,-281.5 276.5,-712.5 423.5,-712.5 423.5,-281.5 276.5,-281.5"/>
<text text-anchor="middle" x="350" y="-700.5" font-family="Helvetica,sans-Serif" font-size="10.00" fill="#000000">FoliatedTriangulation&lt; 3 &gt;</text>
<polyline fill="none" stroke="#000000" points="276.5,-693.5 423.5,-693.5 "/>
<text text-anchor="start" x="284.5" y="-681.5" font-family="Helvetica,sans-Serif" font-size="10.00" fill="#000000">&#45; m_foliation_spacing</text>
<text text-anchor="start" x="284.5" y="-670.5" font-family="Helvetica,sans-Serif" font-size="10.00" fill="#000000">&#45; m_initial_radius</text>
<text text-anchor="start" x="284.5" y="-659.5" font-family="Helvetica,sans-Serif" font-size="10.00" fill="#000000">&#45; m_max_timevalue</text>
<text text-anchor="start" x="284.5" y="-648.5" font-family="Helvetica,sans-Serif" font-size="10.00" fill="#000000">&#45; m_min_timevalue</text>
<text text-anchor="start" x="284.5" y="-637.5" font-family="Helvetica,sans-Serif" font-size="10.00" fill="#000000">&#45; m_triangulation</text>
<polyline fill="none" stroke="#000000" points="276.5,-630.5 423.5,-630.5 "/>
<text text-anchor="start" x="284.5" y="-618.5" font-family="Helvetica,sans-Serif" font-size="10.00" fill="#000000">+ FoliatedTriangulation()</text>
<text text-anchor="start" x="284.5" y="-607.5" font-family="Helvetica,sans-Serif" font-size="10.00" fill="#000000">+ FoliatedTriangulation()</text>
<text text-anchor="start" x="284.5" y="-596.5" font-family="Helvetica,sans-Serif" font-size="10.00" fill="#000000">+ FoliatedTriangulation()</text>
<text text-anchor="start" x="284.5" y="-585.5" font-family="Helvetica,sans-Serif" font-size="10.00" fill="#000000">+ FoliatedTriangulation()</text>
<text text-anchor="start" x="284.5" y="-574.5" font-family="Helvetica,sans-Serif" font-size="10.00" fill="#000000">+ FoliatedTriangulation()</text>
<text text-anchor="start" x="284.5" y="-563.5" font-family="Helvetica,sans-Serif" font-size="10.00" fill="#000000">+ FoliatedTriangulation()</text>
<text text-anchor="start" x="284.5" y="-552.5" font-family="Helvetica,sans-Serif" font-size="10.00" fill="#000000">+ ~FoliatedTriangulation()</text>
<text text-anchor="start" x="284.5" y="-541.5" font-family="Helvetica,sans-Serif" font-size="10.00" fill="#000000">+ check_all_cells()</text>
<text text-anchor="start" x="284.5" y="-530.5" font-family="Helvetica,sans-Serif" font-size="10.00" fill="#000000">+ check_all_vertices()</text>
<text text-anchor="start" x="284.5" y="-519.5" font-family="Helvetica,sans-Serif" font-size="10.00" fill="#000000">+ check_timeslices()</text>
<text text-anchor="start" x="284.5" y="-508.5" font-family="Helvetica,sans-Serif" font-size="10.00" fill="#000000">and 48 more...</text>
<text text-anchor="start" x="284.5" y="-497.5" font-family="Helvetica,sans-Serif" font-size="10.00" fill="#000000">+ check_cells()</text>
<text text-anchor="start" x="284.5" y="-486.5" font-family="Helvetica,sans-Serif" font-size="10.00" fill="#000000">+ classify_edge()</text>
<text text-anchor="start" x="284.5" y="-475.5" font-family="Helvetica,sans-Serif" font-size="10.00" fill="#000000">+ expected_cell_type()</text>
<text text-anchor="start" x="284.5" y="-464.5" font-family="Helvetica,sans-Serif" font-size="10.00" fill="#000000">+ filter_cells()</text>
<text text-anchor="start" x="284.5" y="-453.5" font-family="Helvetica,sans-Serif" font-size="10.00" fill="#000000">+ fix_cells()</text>
<text text-anchor="start" x="284.5" y="-442.5" font-family="Helvetica,sans-Serif" font-size="10.00" fill="#000000">+ is_cell_type_correct()</text>
<text text-anchor="start" x="284.5" y="-431.5" font-family="Helvetica,sans-Serif" font-size="10.00" fill="#000000">+ print_cells()</text>
<text text-anchor="start" x="284.5" y="-420.5" font-family="Helvetica,sans-Serif" font-size="10.00" fill="#000000">+ squared_radius()</text>
<text text-anchor="start" x="284.5" y="-409.5" font-family="Helvetica,sans-Serif" font-size="10.00" fill="#000000">&#45; classify_cells()</text>
<text text-anchor="start" x="284.5" y="-398.5" font-family="Helvetica,sans-Serif" font-size="10.00" fill="#000000">&#45; collect_cells()</text>
<text text-anchor="start" x="284.5" y="-387.5" font-family="Helvetica,sans-Serif" font-size="10.00" fill="#000000">&#45; collect_edges()</text>
<text text-anchor="start" x="284.5" y="-376.5" font-family="Helvetica,sans-Serif" font-size="10.00" fill="#000000">&#45; collect_faces()</text>
<text text-anchor="start" x="284.5" y="-365.5" font-family="Helvetica,sans-Serif" font-size="10.00" fill="#000000">&#45; collect_vertices()</text>
<text text-anchor="start" x="284.5" y="-354.5" font-family="Helvetica,sans-Serif" font-size="10.00" fill="#000000">&#45; fix_timeslices()</text>
<text text-anchor="start" x="284.5" y="-343.5" font-family="Helvetica,sans-Serif" font-size="10.00" fill="#000000">&#45; make_triangulation()</text>
<text text-anchor="start" x="284.5" y="-332.5" font-family="Helvetica,sans-Serif" font-size="10.00" fill="#000000">&#45; filter_edges()</text>
<text text-anchor="start" x="284.5" y="-321.5" font-family="Helvetica,sans-Serif" font-size="10.00" fill="#000000">&#45; find_max_timevalue()</text>
<text text-anchor="start" x="284.5" y="-310.5" font-family="Helvetica,sans-Serif" font-size="10.00" fill="#000000">&#45; find_min_timevalue()</text>
<text text-anchor="start" x="284.5" y="-299.5" font-family="Helvetica,sans-Serif" font-size="10.00" fill="#000000">&#45; make_foliated_sphere()</text>
<text text-anchor="start" x="284.5" y="-288.5" font-family="Helvetica,sans-Serif" font-size="10.00" fill="#000000">&#45; volume_per_timeslice()</text>
</a>
</g>
</g>
<!-- Node3&#45;&gt;Node1 -->
<g id="edge2" class="edge">
<title>Node3&#45;&gt;Node1</title>
<path fill="none" stroke="#404040" d="M312.4182,-281.4552C310.0465,-271.4674 307.5728,-261.6081 305,-252 304.4219,-249.8412 303.8253,-247.6677 303.2122,-245.483"/>
<polygon fill="none" stroke="#404040" points="303.1408,-245.2375 297.6233,-240.5945 299.787,-233.7157 305.3045,-238.3587 303.1408,-245.2375"/>
<text text-anchor="middle" x="349.5" y="-255" font-family="Helvetica,sans-Serif" font-size="10.00" fill="#000000"> &#45;m_triangulation</text>
</g>
<!-- Node4 -->
<g id="node4" class="node">
<title>Node4</title>
<polygon fill="#ffffff" stroke="#bfbfbf" points="0,-793.5 0,-872.5 120,-872.5 120,-793.5 0,-793.5"/>
<text text-anchor="start" x="8" y="-860.5" font-family="Helvetica,sans-Serif" font-size="10.00" fill="#000000">std::multimap&lt; Int</text>
<text text-anchor="middle" x="60" y="-849.5" font-family="Helvetica,sans-Serif" font-size="10.00" fill="#000000">_precision, Facet_3 &gt;</text>
<polyline fill="none" stroke="#bfbfbf" points="0,-842.5 120,-842.5 "/>
<text text-anchor="start" x="8" y="-830.5" font-family="Helvetica,sans-Serif" font-size="10.00" fill="#000000">+ elements</text>
<text text-anchor="start" x="8" y="-819.5" font-family="Helvetica,sans-Serif" font-size="10.00" fill="#000000">+ keys</text>
<polyline fill="none" stroke="#bfbfbf" points="0,-812.5 120,-812.5 "/>
<text text-anchor="middle" x="60" y="-800.5" font-family="Helvetica,sans-Serif" font-size="10.00" fill="#000000"> </text>
</g>
<!-- Node4&#45;&gt;Node3 -->
<g id="edge3" class="edge">
<title>Node4&#45;&gt;Node3</title>
<path fill="none" stroke="#404040" d="M75.6113,-793.2981C86.3933,-771.2797 102.9722,-745.4929 126,-731 179.4673,-697.3495 217.304,-752.0054 267,-713 267.0988,-712.9225 267.1974,-712.8448 267.2959,-712.7671"/>
<polygon fill="none" stroke="#404040" points="267.0306,-712.9955 268.9676,-706.0494 276.1244,-705.1659 274.1874,-712.112 267.0306,-712.9955"/>
<text text-anchor="middle" x="178" y="-750.5" font-family="Helvetica,sans-Serif" font-size="10.00" fill="#000000"> &#45;m_spacelike_facets</text>
</g>
<!-- Node5 -->
<g id="node5" class="node">
<title>Node5</title>
<g id="a_node5"><a xlink:title="STL class. ">
<polygon fill="#ffffff" stroke="#bfbfbf" points="78,-920.5 78,-977.5 204,-977.5 204,-920.5 78,-920.5"/>
<text text-anchor="middle" x="141" y="-965.5" font-family="Helvetica,sans-Serif" font-size="10.00" fill="#000000">std::multimap&lt; K, T &gt;</text>
<polyline fill="none" stroke="#bfbfbf" points="78,-958.5 204,-958.5 "/>
<text text-anchor="start" x="86" y="-946.5" font-family="Helvetica,sans-Serif" font-size="10.00" fill="#000000">+ keys</text>
<polyline fill="none" stroke="#bfbfbf" points="78,-939.5 204,-939.5 "/>
<text text-anchor="middle" x="141" y="-927.5" font-family="Helvetica,sans-Serif" font-size="10.00" fill="#000000"> </text>
</a>
</g>
</g>
<!-- Node5&#45;&gt;Node4 -->
<g id="edge4" class="edge">
<title>Node5&#45;&gt;Node4</title>
<path fill="none" stroke="#ffa500" d="M74.9434,-913.4763C71.5587,-909.9466 68.5228,-906.1253 66,-902 60.6676,-893.2806 58.2148,-882.7445 57.3172,-872.5594"/>
<polygon fill="#ffa500" stroke="#ffa500" points="72.6131,-916.0886 82.3281,-920.3159 77.3697,-910.9529 72.6131,-916.0886"/>
<text text-anchor="middle" x="131.5" y="-894" font-family="Helvetica,sans-Serif" font-size="10.00" fill="#000000"> &lt; Int_precision, Facet_3 &gt;</text>
</g>
<!-- Node6 -->
<g id="node6" class="node">
<title>Node6</title>
<polygon fill="#ffffff" stroke="#bfbfbf" points="190.5,-1025.5 190.5,-1082.5 219.5,-1082.5 219.5,-1025.5 190.5,-1025.5"/>
<text text-anchor="middle" x="205" y="-1070.5" font-family="Helvetica,sans-Serif" font-size="10.00" fill="#000000">T</text>
<polyline fill="none" stroke="#bfbfbf" points="190.5,-1063.5 219.5,-1063.5 "/>
<text text-anchor="middle" x="205" y="-1051.5" font-family="Helvetica,sans-Serif" font-size="10.00" fill="#000000"> </text>
<polyline fill="none" stroke="#bfbfbf" points="190.5,-1044.5 219.5,-1044.5 "/>
<text text-anchor="middle" x="205" y="-1032.5" font-family="Helvetica,sans-Serif" font-size="10.00" fill="#000000"> </text>
</g>
<!-- Node6&#45;&gt;Node5 -->
<g id="edge5" class="edge">
<title>Node6&#45;&gt;Node5</title>
<path fill="none" stroke="#404040" d="M190.4774,-1030.1739C182.8951,-1017.7341 173.4242,-1002.196 164.8042,-988.0537"/>
<polygon fill="none" stroke="#404040" points="164.6691,-987.8321 158.1308,-984.7907 158.4235,-977.5855 164.9619,-980.627 164.6691,-987.8321"/>
<text text-anchor="middle" x="204" y="-999" font-family="Helvetica,sans-Serif" font-size="10.00" fill="#000000"> +elements</text>
</g>
<!-- Node8 -->
<g id="node8" class="node">
<title>Node8</title>
<g id="a_node8"><a xlink:title="STL class. ">
<polygon fill="#ffffff" stroke="#bfbfbf" points="301.5,-920.5 301.5,-977.5 398.5,-977.5 398.5,-920.5 301.5,-920.5"/>
<text text-anchor="middle" x="350" y="-965.5" font-family="Helvetica,sans-Serif" font-size="10.00" fill="#000000">std::vector&lt; T &gt;</text>
<polyline fill="none" stroke="#bfbfbf" points="301.5,-958.5 398.5,-958.5 "/>
<text text-anchor="middle" x="350" y="-946.5" font-family="Helvetica,sans-Serif" font-size="10.00" fill="#000000"> </text>
<polyline fill="none" stroke="#bfbfbf" points="301.5,-939.5 398.5,-939.5 "/>
<text text-anchor="middle" x="350" y="-927.5" font-family="Helvetica,sans-Serif" font-size="10.00" fill="#000000"> </text>
</a>
</g>
</g>
<!-- Node6&#45;&gt;Node8 -->
<g id="edge8" class="edge">
<title>Node6&#45;&gt;Node8</title>
<path fill="none" stroke="#404040" d="M219.7013,-1043.3542C238.572,-1029.6893 272.2674,-1005.2891 300.6647,-984.7256"/>
<polygon fill="none" stroke="#404040" points="300.7359,-984.674 303.2495,-977.9152 310.4552,-977.6359 307.9416,-984.3947 300.7359,-984.674"/>
<text text-anchor="middle" x="311" y="-999" font-family="Helvetica,sans-Serif" font-size="10.00" fill="#000000"> +elements</text>
</g>
<!-- Node7 -->
<g id="node7" class="node">
<title>Node7</title>
<polygon fill="#ffffff" stroke="#bfbfbf" points="138.5,-799 138.5,-867 249.5,-867 249.5,-799 138.5,-799"/>
<text text-anchor="start" x="146.5" y="-855" font-family="Helvetica,sans-Serif" font-size="10.00" fill="#000000">std::vector&lt; Vertex</text>
<text text-anchor="middle" x="194" y="-844" font-family="Helvetica,sans-Serif" font-size="10.00" fill="#000000">_handle_3 &gt;</text>
<polyline fill="none" stroke="#bfbfbf" points="138.5,-837 249.5,-837 "/>
<text text-anchor="start" x="146.5" y="-825" font-family="Helvetica,sans-Serif" font-size="10.00" fill="#000000">+ elements</text>
<polyline fill="none" stroke="#bfbfbf" points="138.5,-818 249.5,-818 "/>
<text text-anchor="middle" x="194" y="-806" font-family="Helvetica,sans-Serif" font-size="10.00" fill="#000000"> </text>
</g>
<!-- Node7&#45;&gt;Node3 -->
<g id="edge6" class="edge">
<title>Node7&#45;&gt;Node3</title>
<path fill="none" stroke="#404040" d="M217.1066,-798.7546C232.3969,-775.243 252.2676,-742.9842 267,-713 268.4449,-710.0592 269.8821,-707.0865 271.3104,-704.0869"/>
<polygon fill="none" stroke="#404040" points="271.3569,-703.9874 270.2762,-696.8577 276.4418,-693.118 277.5225,-700.2477 271.3569,-703.9874"/>
<text text-anchor="middle" x="283" y="-750.5" font-family="Helvetica,sans-Serif" font-size="10.00" fill="#000000"> &#45;m_points</text>
</g>
<!-- Node8&#45;&gt;Node7 -->
<g id="edge7" class="edge">
<title>Node8&#45;&gt;Node7</title>
<path fill="none" stroke="#ffa500" d="M292.0636,-931.9335C273.7888,-924.6833 254.3762,-914.8651 239,-902 227.7023,-892.5473 218.2111,-879.5313 210.9016,-867.3496"/>
<polygon fill="#ffa500" stroke="#ffa500" points="290.8973,-935.2343 301.4889,-935.4933 293.3706,-928.6858 290.8973,-935.2343"/>
<text text-anchor="middle" x="292.5" y="-894" font-family="Helvetica,sans-Serif" font-size="10.00" fill="#000000"> &lt; Vertex_handle_3 &gt;</text>
</g>
<!-- Node9 -->
<g id="node9" class="node">
<title>Node9</title>
<polygon fill="#ffffff" stroke="#bfbfbf" points="268,-804.5 268,-861.5 432,-861.5 432,-804.5 268,-804.5"/>
<text text-anchor="middle" x="350" y="-849.5" font-family="Helvetica,sans-Serif" font-size="10.00" fill="#000000">std::vector&lt; Edge_handle_3 &gt;</text>
<polyline fill="none" stroke="#bfbfbf" points="268,-842.5 432,-842.5 "/>
<text text-anchor="start" x="276" y="-830.5" font-family="Helvetica,sans-Serif" font-size="10.00" fill="#000000">+ elements</text>
<polyline fill="none" stroke="#bfbfbf" points="268,-823.5 432,-823.5 "/>
<text text-anchor="middle" x="350" y="-811.5" font-family="Helvetica,sans-Serif" font-size="10.00" fill="#000000"> </text>
</g>
<!-- Node8&#45;&gt;Node9 -->
<g id="edge10" class="edge">
<title>Node8&#45;&gt;Node9</title>
<path fill="none" stroke="#ffa500" d="M350,-910.2769C350,-894.4213 350,-876.397 350,-861.7463"/>
<polygon fill="#ffa500" stroke="#ffa500" points="346.5001,-910.3258 350,-920.3258 353.5001,-910.3259 346.5001,-910.3258"/>
<text text-anchor="middle" x="400" y="-894" font-family="Helvetica,sans-Serif" font-size="10.00" fill="#000000"> &lt; Edge_handle_3 &gt;</text>
</g>
<!-- Node10 -->
<g id="node10" class="node">
<title>Node10</title>
<polygon fill="#ffffff" stroke="#bfbfbf" points="450.5,-804.5 450.5,-861.5 609.5,-861.5 609.5,-804.5 450.5,-804.5"/>
<text text-anchor="middle" x="530" y="-849.5" font-family="Helvetica,sans-Serif" font-size="10.00" fill="#000000">std::vector&lt; Cell_handle_3 &gt;</text>
<polyline fill="none" stroke="#bfbfbf" points="450.5,-842.5 609.5,-842.5 "/>
<text text-anchor="start" x="458.5" y="-830.5" font-family="Helvetica,sans-Serif" font-size="10.00" fill="#000000">+ elements</text>
<polyline fill="none" stroke="#bfbfbf" points="450.5,-823.5 609.5,-823.5 "/>
<text text-anchor="middle" x="530" y="-811.5" font-family="Helvetica,sans-Serif" font-size="10.00" fill="#000000"> </text>
</g>
<!-- Node8&#45;&gt;Node10 -->
<g id="edge12" class="edge">
<title>Node8&#45;&gt;Node10</title>
<path fill="none" stroke="#ffa500" d="M408.2098,-926.5459C423.6114,-919.5848 439.8708,-911.2733 454,-902 471.4317,-890.5592 488.8044,-875.1635 502.531,-861.8176"/>
<polygon fill="#ffa500" stroke="#ffa500" points="406.503,-923.473 398.7578,-930.7022 409.3207,-929.8808 406.503,-923.473"/>
<text text-anchor="middle" x="515" y="-894" font-family="Helvetica,sans-Serif" font-size="10.00" fill="#000000"> &lt; Cell_handle_3 &gt;</text>
</g>
<!-- Node11 -->
<g id="node11" class="node">
<title>Node11</title>
<polygon fill="#ffffff" stroke="#bfbfbf" points="628,-804.5 628,-861.5 790,-861.5 790,-804.5 628,-804.5"/>
<text text-anchor="middle" x="709" y="-849.5" font-family="Helvetica,sans-Serif" font-size="10.00" fill="#000000">std::vector&lt; Face_handle_3 &gt;</text>
<polyline fill="none" stroke="#bfbfbf" points="628,-842.5 790,-842.5 "/>
<text text-anchor="start" x="636" y="-830.5" font-family="Helvetica,sans-Serif" font-size="10.00" fill="#000000">+ elements</text>
<polyline fill="none" stroke="#bfbfbf" points="628,-823.5 790,-823.5 "/>
<text text-anchor="middle" x="709" y="-811.5" font-family="Helvetica,sans-Serif" font-size="10.00" fill="#000000"> </text>
</g>
<!-- Node8&#45;&gt;Node11 -->
<g id="edge14" class="edge">
<title>Node8&#45;&gt;Node11</title>
<path fill="none" stroke="#ffa500" d="M408.466,-940.118C452.5105,-932.511 513.9939,-919.9244 566,-902 597.2731,-891.2215 630.6486,-875.3867 657.2839,-861.6042"/>
<polygon fill="#ffa500" stroke="#ffa500" points="407.7788,-936.6844 398.5036,-941.8052 408.9477,-943.5862 407.7788,-936.6844"/>
<text text-anchor="middle" x="643.5" y="-894" font-family="Helvetica,sans-Serif" font-size="10.00" fill="#000000"> &lt; Face_handle_3 &gt;</text>
</g>
<!-- Node9&#45;&gt;Node3 -->
<g id="edge9" class="edge">
<title>Node9&#45;&gt;Node3</title>
<path fill="none" stroke="#404040" d="M350,-804.3528C350,-784.6518 350,-756.4356 350,-724.9917"/>
<polygon fill="none" stroke="#404040" points="350.0001,-724.7935 346,-718.7935 350,-712.7935 354,-718.7935 350.0001,-724.7935"/>
<text text-anchor="middle" x="400" y="-761.5" font-family="Helvetica,sans-Serif" font-size="10.00" fill="#000000"> &#45;m_edges</text>
<text text-anchor="middle" x="400" y="-750.5" font-family="Helvetica,sans-Serif" font-size="10.00" fill="#000000">&#45;m_timelike_edges</text>
<text text-anchor="middle" x="400" y="-739.5" font-family="Helvetica,sans-Serif" font-size="10.00" fill="#000000">&#45;m_spacelike_edges</text>
</g>
<!-- Node10&#45;&gt;Node3 -->
<g id="edge11" class="edge">
<title>Node10&#45;&gt;Node3</title>
<path fill="none" stroke="#404040" d="M514.6533,-804.3528C495.5652,-768.7217 461.5559,-705.2376 429.3822,-645.1802"/>
<polygon fill="none" stroke="#404040" points="429.2772,-644.984 422.9179,-641.584 423.6105,-634.4062 429.9698,-637.8062 429.2772,-644.984"/>
<text text-anchor="middle" x="530" y="-767" font-family="Helvetica,sans-Serif" font-size="10.00" fill="#000000"> &#45;m_cells</text>
<text text-anchor="middle" x="530" y="-756" font-family="Helvetica,sans-Serif" font-size="10.00" fill="#000000">&#45;m_one_three</text>
<text text-anchor="middle" x="530" y="-745" font-family="Helvetica,sans-Serif" font-size="10.00" fill="#000000">&#45;m_three_one</text>
<text text-anchor="middle" x="530" y="-734" font-family="Helvetica,sans-Serif" font-size="10.00" fill="#000000">&#45;m_two_two</text>
</g>
<!-- Node11&#45;&gt;Node3 -->
<g id="edge13" class="edge">
<title>Node11&#45;&gt;Node3</title>
<path fill="none" stroke="#404040" d="M678.3919,-804.3528C624.5126,-753.9254 511.0261,-647.7096 432.6705,-574.3741"/>
<polygon fill="none" stroke="#404040" points="432.5345,-574.2467 425.4205,-573.0672 423.7731,-566.0467 430.8871,-567.2263 432.5345,-574.2467"/>
<text text-anchor="middle" x="665.5" y="-750.5" font-family="Helvetica,sans-Serif" font-size="10.00" fill="#000000"> &#45;m_faces</text>
</g>
</g>
</svg>
        <g id="navigator" transform="translate(0 0)" fill="#404254">
                <rect fill="#f2f5e9" fill-opacity="0.5" stroke="#606060" stroke-width=".5" x="0" y="0" width="60" height="60"/>
                <use id="zoomplus" xlink:href="#zoomPlus" x="17" y="9" onmousedown="handleZoom(evt,'in')"/>
                <use id="zoomminus" xlink:href="#zoomMin" x="42" y="9" onmousedown="handleZoom(evt,'out')"/>
                <use id="reset" xlink:href="#resetDef" x="30" y="36" onmousedown="handleReset()"/>
                <g id="arrowUp" xlink:href="#dirArrow" transform="translate(30 24)" onmousedown="handlePan(0,-1)">
                  <use xlink:href="#rim" fill="#404040">
                        <set attributeName="fill" to="#808080" begin="arrowUp.mouseover" end="arrowUp.mouseout"/>
                  </use>
                  <path fill="none" stroke="white" stroke-width="1.5" d="M0,-3.0v7 M-2.5,-0.5L0,-3.0L2.5,-0.5"/>
                </g>
                <g id="arrowRight" xlink:href="#dirArrow" transform="rotate(90) translate(36 -43)" onmousedown="handlePan(1,0)">
                  <use xlink:href="#rim" fill="#404040">
                        <set attributeName="fill" to="#808080" begin="arrowRight.mouseover" end="arrowRight.mouseout"/>
                  </use>
                  <path fill="none" stroke="white" stroke-width="1.5" d="M0,-3.0v7 M-2.5,-0.5L0,-3.0L2.5,-0.5"/>
                </g>
                <g id="arrowDown" xlink:href="#dirArrow" transform="rotate(180) translate(-30 -48)" onmousedown="handlePan(0,1)">
                  <use xlink:href="#rim" fill="#404040">
                        <set attributeName="fill" to="#808080" begin="arrowDown.mouseover" end="arrowDown.mouseout"/>
                  </use>
                  <path fill="none" stroke="white" stroke-width="1.5" d="M0,-3.0v7 M-2.5,-0.5L0,-3.0L2.5,-0.5"/>
                </g>
                <g id="arrowLeft" xlink:href="#dirArrow" transform="rotate(270) translate(-36 17)" onmousedown="handlePan(-1,0)">
                  <use xlink:href="#rim" fill="#404040">
                        <set attributeName="fill" to="#808080" begin="arrowLeft.mouseover" end="arrowLeft.mouseout"/>
                  </use>
                  <path fill="none" stroke="white" stroke-width="1.5" d="M0,-3.0v7 M-2.5,-0.5L0,-3.0L2.5,-0.5"/>
                </g>
        </g>
        <svg viewBox="0 0 15 15" width="100%" height="30px" preserveAspectRatio="xMaxYMin meet">
         <g id="arrow_out" transform="scale(0.3 0.3)">
          <a xlink:href="class_manifold_3_013_01_4__coll__graph_org.svg" target="_base">
           <rect id="button" ry="5" rx="5" y="6" x="6" height="38" width="38"
                fill="#f2f5e9" fill-opacity="0.5" stroke="#606060" stroke-width="1.0"/>
           <path id="arrow"
             d="M 11.500037,31.436501 C 11.940474,20.09759 22.043105,11.32322 32.158766,21.979434 L 37.068811,17.246167 C 37.068811,17.246167 37.088388,32 37.088388,32 L 22.160133,31.978069 C 22.160133,31.978069 26.997745,27.140456 26.997745,27.140456 C 18.528582,18.264221 13.291696,25.230495 11.500037,31.436501 z"
             style="fill:#404040;"/>
          </a>
         </g>
        </svg>
</svg>
