<?xml version="1.0" encoding="UTF-8" standalone="no"?>
<!DOCTYPE svg PUBLIC "-//W3C//DTD SVG 1.1//EN"
 "http://www.w3.org/Graphics/SVG/1.1/DTD/svg11.dtd">
<!-- Generated by graphviz version 2.43.0 (0)
 -->
<!-- Title: MoveCommand&lt; ManifoldType, ExpectedType, FunctionType &gt; Pages: 1 -->
<svg width="210pt" height="612pt"
 viewBox="0.00 0.00 209.50 612.00" xmlns="http://www.w3.org/2000/svg" xmlns:xlink="http://www.w3.org/1999/xlink">
<g id="graph0" class="graph" transform="scale(1 1) rotate(0) translate(4 608)">
<title>MoveCommand&lt; ManifoldType, ExpectedType, FunctionType &gt;</title>
<polygon fill="white" stroke="transparent" points="-4,4 -4,-608 205.5,-608 205.5,4 -4,4"/>
<!-- Node1 -->
<g id="node1" class="node">
<title>Node1</title>
<g id="a_node1"><a xlink:title=" ">
<polygon fill="#bfbfbf" stroke="black" points="0,-0.5 0,-255.5 173,-255.5 173,-0.5 0,-0.5"/>
<text text-anchor="start" x="8" y="-243.5" font-family="Helvetica,sans-Serif" font-size="10.00">MoveCommand&lt; ManifoldType,</text>
<text text-anchor="middle" x="86.5" y="-232.5" font-family="Helvetica,sans-Serif" font-size="10.00"> ExpectedType, FunctionType &gt;</text>
<polyline fill="none" stroke="black" points="0,-225.5 173,-225.5 "/>
<text text-anchor="start" x="8" y="-213.5" font-family="Helvetica,sans-Serif" font-size="10.00">&#45; m_attempted</text>
<text text-anchor="start" x="8" y="-202.5" font-family="Helvetica,sans-Serif" font-size="10.00">&#45; m_failed</text>
<text text-anchor="start" x="8" y="-191.5" font-family="Helvetica,sans-Serif" font-size="10.00">&#45; m_manifold</text>
<text text-anchor="start" x="8" y="-180.5" font-family="Helvetica,sans-Serif" font-size="10.00">&#45; m_succeeded</text>
<polyline fill="none" stroke="black" points="0,-173.5 173,-173.5 "/>
<text text-anchor="start" x="8" y="-161.5" font-family="Helvetica,sans-Serif" font-size="10.00">+ MoveCommand()</text>
<text text-anchor="start" x="8" y="-150.5" font-family="Helvetica,sans-Serif" font-size="10.00">+ MoveCommand()</text>
<text text-anchor="start" x="8" y="-139.5" font-family="Helvetica,sans-Serif" font-size="10.00">+ as_move_function()</text>
<text text-anchor="start" x="8" y="-128.5" font-family="Helvetica,sans-Serif" font-size="10.00">+ enqueue()</text>
<text text-anchor="start" x="8" y="-117.5" font-family="Helvetica,sans-Serif" font-size="10.00">+ execute()</text>
<text text-anchor="start" x="8" y="-106.5" font-family="Helvetica,sans-Serif" font-size="10.00">+ get_attempted()</text>
<text text-anchor="start" x="8" y="-95.5" font-family="Helvetica,sans-Serif" font-size="10.00">+ get_const_results()</text>
<text text-anchor="start" x="8" y="-84.5" font-family="Helvetica,sans-Serif" font-size="10.00">+ get_failed()</text>
<text text-anchor="start" x="8" y="-73.5" font-family="Helvetica,sans-Serif" font-size="10.00">+ get_results()</text>
<text text-anchor="start" x="8" y="-62.5" font-family="Helvetica,sans-Serif" font-size="10.00">+ get_succeeded()</text>
<text text-anchor="start" x="8" y="-51.5" font-family="Helvetica,sans-Serif" font-size="10.00">+ print_attempts()</text>
<text text-anchor="start" x="8" y="-40.5" font-family="Helvetica,sans-Serif" font-size="10.00">+ print_errors()</text>
<text text-anchor="start" x="8" y="-29.5" font-family="Helvetica,sans-Serif" font-size="10.00">+ print_successful()</text>
<text text-anchor="start" x="8" y="-18.5" font-family="Helvetica,sans-Serif" font-size="10.00">+ reset_counters()</text>
<text text-anchor="start" x="8" y="-7.5" font-family="Helvetica,sans-Serif" font-size="10.00">+ size()</text>
</a>
</g>
</g>
<!-- Node2 -->
<g id="node2" class="node">
<title>Node2</title>
<g id="a_node2"><a xlink:title=" ">
<polygon fill="white" stroke="#bfbfbf" points="13.5,-314.5 13.5,-382.5 159.5,-382.5 159.5,-314.5 13.5,-314.5"/>
<text text-anchor="start" x="21.5" y="-370.5" font-family="Helvetica,sans-Serif" font-size="10.00">std::deque&lt; move_tracker</text>
<text text-anchor="middle" x="86.5" y="-359.5" font-family="Helvetica,sans-Serif" font-size="10.00">::move_type &gt;</text>
<polyline fill="none" stroke="#bfbfbf" points="13.5,-352.5 159.5,-352.5 "/>
<text text-anchor="start" x="21.5" y="-340.5" font-family="Helvetica,sans-Serif" font-size="10.00">+ elements</text>
<polyline fill="none" stroke="#bfbfbf" points="13.5,-333.5 159.5,-333.5 "/>
<text text-anchor="middle" x="86.5" y="-321.5" font-family="Helvetica,sans-Serif" font-size="10.00"> </text>
</a>
</g>
</g>
<!-- Node2&#45;&gt;Node1 -->
<g id="edge1" class="edge">
<title>Node2&#45;&gt;Node1</title>
<path fill="none" stroke="#404040" d="M86.5,-314.31C86.5,-301.12 86.5,-284.99 86.5,-267.81"/>
<polygon fill="none" stroke="#404040" points="86.5,-267.77 82.5,-261.77 86.5,-255.77 90.5,-261.77 86.5,-267.77"/>
<text text-anchor="middle" x="134.5" y="-288" font-family="Helvetica,sans-Serif" font-size="10.00"> &#45;m_moves</text>
<text text-anchor="middle" x="134.5" y="-277" font-family="Helvetica,sans-Serif" font-size="10.00">&#45;m_moves_to_retry</text>
</g>
<!-- Node3 -->
<g id="node3" class="node">
<title>Node3</title>
<g id="a_node3"><a xlink:title="STL class.">
<polygon fill="white" stroke="#bfbfbf" points="38.5,-441.5 38.5,-498.5 134.5,-498.5 134.5,-441.5 38.5,-441.5"/>
<text text-anchor="middle" x="86.5" y="-486.5" font-family="Helvetica,sans-Serif" font-size="10.00">std::deque&lt; T &gt;</text>
<polyline fill="none" stroke="#bfbfbf" points="38.5,-479.5 134.5,-479.5 "/>
<text text-anchor="middle" x="86.5" y="-467.5" font-family="Helvetica,sans-Serif" font-size="10.00"> </text>
<polyline fill="none" stroke="#bfbfbf" points="38.5,-460.5 134.5,-460.5 "/>
<text text-anchor="middle" x="86.5" y="-448.5" font-family="Helvetica,sans-Serif" font-size="10.00"> </text>
</a>
</g>
</g>
<!-- Node3&#45;&gt;Node2 -->
<g id="edge2" class="edge">
<title>Node3&#45;&gt;Node2</title>
<path fill="none" stroke="orange" d="M86.5,-430.95C86.5,-415.4 86.5,-397.58 86.5,-382.59"/>
<polygon fill="orange" stroke="orange" points="83,-431.28 86.5,-441.28 90,-431.28 83,-431.28"/>
<text text-anchor="start" x="86.5" y="-415" font-family="Helvetica,sans-Serif" font-size="10.00"> &lt; move_tracker::move</text>
<text text-anchor="middle" x="144" y="-404" font-family="Helvetica,sans-Serif" font-size="10.00">_type &gt;</text>
</g>
<!-- Node4 -->
<g id="node4" class="node">
<title>Node4</title>
<g id="a_node4"><a xlink:title=" ">
<polygon fill="white" stroke="#bfbfbf" points="72,-546.5 72,-603.5 101,-603.5 101,-546.5 72,-546.5"/>
<text text-anchor="middle" x="86.5" y="-591.5" font-family="Helvetica,sans-Serif" font-size="10.00">T</text>
<polyline fill="none" stroke="#bfbfbf" points="72,-584.5 101,-584.5 "/>
<text text-anchor="middle" x="86.5" y="-572.5" font-family="Helvetica,sans-Serif" font-size="10.00"> </text>
<polyline fill="none" stroke="#bfbfbf" points="72,-565.5 101,-565.5 "/>
<text text-anchor="middle" x="86.5" y="-553.5" font-family="Helvetica,sans-Serif" font-size="10.00"> </text>
</a>
</g>
</g>
<!-- Node4&#45;&gt;Node3 -->
<g id="edge3" class="edge">
<title>Node4&#45;&gt;Node3</title>
<path fill="none" stroke="#404040" d="M86.5,-546.4C86.5,-535.55 86.5,-522.87 86.5,-511.05"/>
<polygon fill="none" stroke="#404040" points="86.5,-510.68 82.5,-504.68 86.5,-498.68 90.5,-504.68 86.5,-510.68"/>
<text text-anchor="middle" x="115.5" y="-520" font-family="Helvetica,sans-Serif" font-size="10.00"> +elements</text>
</g>
</g>
</svg>
