<?xml version="1.0" encoding="UTF-8" standalone="no"?>
<!DOCTYPE svg PUBLIC "-//W3C//DTD SVG 1.1//EN"
 "http://www.w3.org/Graphics/SVG/1.1/DTD/svg11.dtd">
<!-- Generated by graphviz version 2.40.1 (20161225.0304)
 -->
<!-- Title: Move_tracker&lt; dimension &gt; Pages: 1 -->
<svg width="252pt" height="469pt"
 viewBox="0.00 0.00 251.50 469.00" xmlns="http://www.w3.org/2000/svg" xmlns:xlink="http://www.w3.org/1999/xlink">
<g id="graph0" class="graph" transform="scale(1 1) rotate(0) translate(4 465)">
<title>Move_tracker&lt; dimension &gt;</title>
<polygon fill="#ffffff" stroke="transparent" points="-4,4 -4,-465 247.5,-465 247.5,4 -4,4"/>
<!-- Node1 -->
<g id="node1" class="node">
<title>Node1</title>
<polygon fill="#bfbfbf" stroke="#000000" points="20.5,-.5 20.5,-123.5 176.5,-123.5 176.5,-.5 20.5,-.5"/>
<text text-anchor="middle" x="98.5" y="-111.5" font-family="Helvetica,sans-Serif" font-size="10.00" fill="#000000">Move_tracker&lt; dimension &gt;</text>
<polyline fill="none" stroke="#000000" points="20.5,-104.5 176.5,-104.5 "/>
<text text-anchor="middle" x="98.5" y="-92.5" font-family="Helvetica,sans-Serif" font-size="10.00" fill="#000000"> </text>
<polyline fill="none" stroke="#000000" points="20.5,-85.5 176.5,-85.5 "/>
<text text-anchor="start" x="28.5" y="-73.5" font-family="Helvetica,sans-Serif" font-size="10.00" fill="#000000">+ four_four_moves()</text>
<text text-anchor="start" x="28.5" y="-62.5" font-family="Helvetica,sans-Serif" font-size="10.00" fill="#000000">+ operator[]()</text>
<text text-anchor="start" x="28.5" y="-51.5" font-family="Helvetica,sans-Serif" font-size="10.00" fill="#000000">+ six_two_moves()</text>
<text text-anchor="start" x="28.5" y="-40.5" font-family="Helvetica,sans-Serif" font-size="10.00" fill="#000000">+ three_two_moves()</text>
<text text-anchor="start" x="28.5" y="-29.5" font-family="Helvetica,sans-Serif" font-size="10.00" fill="#000000">+ two_four_moves()</text>
<text text-anchor="start" x="28.5" y="-18.5" font-family="Helvetica,sans-Serif" font-size="10.00" fill="#000000">+ two_six_moves()</text>
<text text-anchor="start" x="28.5" y="-7.5" font-family="Helvetica,sans-Serif" font-size="10.00" fill="#000000">+ two_three_moves()</text>
</g>
<!-- Node2 -->
<g id="node2" class="node">
<title>Node2</title>
<polygon fill="#ffffff" stroke="#bfbfbf" points="0,-171.5 0,-239.5 197,-239.5 197,-171.5 0,-171.5"/>
<text text-anchor="start" x="8" y="-227.5" font-family="Helvetica,sans-Serif" font-size="10.00" fill="#000000">std::array&lt; Int_precision,</text>
<text text-anchor="middle" x="98.5" y="-216.5" font-family="Helvetica,sans-Serif" font-size="10.00" fill="#000000"> moves_per_dimension(dimension)&gt;</text>
<polyline fill="none" stroke="#bfbfbf" points="0,-209.5 197,-209.5 "/>
<text text-anchor="start" x="8" y="-197.5" font-family="Helvetica,sans-Serif" font-size="10.00" fill="#000000">+ elements</text>
<polyline fill="none" stroke="#bfbfbf" points="0,-190.5 197,-190.5 "/>
<text text-anchor="middle" x="98.5" y="-178.5" font-family="Helvetica,sans-Serif" font-size="10.00" fill="#000000"> </text>
</g>
<!-- Node2&#45;&gt;Node1 -->
<g id="edge1" class="edge">
<title>Node2&#45;&gt;Node1</title>
<path fill="none" stroke="#404040" d="M98.5,-171.4925C98.5,-160.6267 98.5,-148.1465 98.5,-135.5911"/>
<polygon fill="none" stroke="#404040" points="98.5001,-135.5807 94.5,-129.5807 98.5,-123.5807 102.5,-129.5806 98.5001,-135.5807"/>
<text text-anchor="middle" x="118.5" y="-145" font-family="Helvetica,sans-Serif" font-size="10.00" fill="#000000"> &#45;moves</text>
</g>
<!-- Node3 -->
<g id="node3" class="node">
<title>Node3</title>
<g id="a_node3"><a xlink:title="STL class. ">
<polygon fill="#ffffff" stroke="#bfbfbf" points="52.5,-298.5 52.5,-355.5 144.5,-355.5 144.5,-298.5 52.5,-298.5"/>
<text text-anchor="middle" x="98.5" y="-343.5" font-family="Helvetica,sans-Serif" font-size="10.00" fill="#000000">std::array&lt; T &gt;</text>
<polyline fill="none" stroke="#bfbfbf" points="52.5,-336.5 144.5,-336.5 "/>
<text text-anchor="middle" x="98.5" y="-324.5" font-family="Helvetica,sans-Serif" font-size="10.00" fill="#000000"> </text>
<polyline fill="none" stroke="#bfbfbf" points="52.5,-317.5 144.5,-317.5 "/>
<text text-anchor="middle" x="98.5" y="-305.5" font-family="Helvetica,sans-Serif" font-size="10.00" fill="#000000"> </text>
</a>
</g>
</g>
<!-- Node3&#45;&gt;Node2 -->
<g id="edge2" class="edge">
<title>Node3&#45;&gt;Node2</title>
<path fill="none" stroke="#ffa500" d="M98.5,-287.8733C98.5,-272.3628 98.5,-254.6896 98.5,-239.7007"/>
<polygon fill="#ffa500" stroke="#ffa500" points="95.0001,-288.2062 98.5,-298.2062 102.0001,-288.2062 95.0001,-288.2062"/>
<text text-anchor="start" x="98.5" y="-272" font-family="Helvetica,sans-Serif" font-size="10.00" fill="#000000"> &lt; Int_precision, moves</text>
<text text-anchor="middle" x="171" y="-261" font-family="Helvetica,sans-Serif" font-size="10.00" fill="#000000">_per_dimension(dimension)&gt;</text>
</g>
<!-- Node4 -->
<g id="node4" class="node">
<title>Node4</title>
<polygon fill="#ffffff" stroke="#bfbfbf" points="84,-403.5 84,-460.5 113,-460.5 113,-403.5 84,-403.5"/>
<text text-anchor="middle" x="98.5" y="-448.5" font-family="Helvetica,sans-Serif" font-size="10.00" fill="#000000">T</text>
<polyline fill="none" stroke="#bfbfbf" points="84,-441.5 113,-441.5 "/>
<text text-anchor="middle" x="98.5" y="-429.5" font-family="Helvetica,sans-Serif" font-size="10.00" fill="#000000"> </text>
<polyline fill="none" stroke="#bfbfbf" points="84,-422.5 113,-422.5 "/>
<text text-anchor="middle" x="98.5" y="-410.5" font-family="Helvetica,sans-Serif" font-size="10.00" fill="#000000"> </text>
</g>
<!-- Node4&#45;&gt;Node3 -->
<g id="edge3" class="edge">
<title>Node4&#45;&gt;Node3</title>
<path fill="none" stroke="#404040" d="M98.5,-403.3083C98.5,-392.4281 98.5,-379.817 98.5,-368.0192"/>
<polygon fill="none" stroke="#404040" points="98.5001,-367.657 94.5,-361.6571 98.5,-355.657 102.5,-361.657 98.5001,-367.657"/>
<text text-anchor="middle" x="127.5" y="-377" font-family="Helvetica,sans-Serif" font-size="10.00" fill="#000000"> +elements</text>
</g>
</g>
</svg>
