<?xml version="1.0" encoding="UTF-8" standalone="no"?>
<!DOCTYPE svg PUBLIC "-//W3C//DTD SVG 1.1//EN"
 "http://www.w3.org/Graphics/SVG/1.1/DTD/svg11.dtd">
<!-- Generated by graphviz version 2.43.0 (0)
 -->
<!-- Title: D Pages: 1 -->
<svg width="135pt" height="371pt"
 viewBox="0.00 0.00 134.59 371.00" xmlns="http://www.w3.org/2000/svg" xmlns:xlink="http://www.w3.org/1999/xlink">
<g id="graph0" class="graph" transform="scale(1 1) rotate(0) translate(4 367)">
<title>D</title>
<!-- Node1 -->
<g id="node1" class="node">
<title>Node1</title>
<g id="a_node1"><a xlink:title=" ">
<polygon fill="#999999" stroke="#666666" points="13.59,-105.5 13.59,-162.5 42.59,-162.5 42.59,-105.5 13.59,-105.5"/>
<text text-anchor="middle" x="28.09" y="-150.5" font-family="Helvetica,sans-Serif" font-size="10.00">D</text>
<polyline fill="none" stroke="#666666" points="13.59,-143.5 42.59,-143.5 "/>
<text text-anchor="middle" x="28.09" y="-131.5" font-family="Helvetica,sans-Serif" font-size="10.00"> </text>
<polyline fill="none" stroke="#666666" points="13.59,-124.5 42.59,-124.5 "/>
<text text-anchor="middle" x="28.09" y="-112.5" font-family="Helvetica,sans-Serif" font-size="10.00"> </text>
</a>
</g>
</g>
<!-- Node4 -->
<g id="node4" class="node">
<title>Node4</title>
<g id="a_node4"><a xlink:href="class_c.html" target="_top" xlink:title=" ">
<polygon fill="white" stroke="#bfbfbf" points="35.59,-0.5 35.59,-57.5 64.59,-57.5 64.59,-0.5 35.59,-0.5"/>
<text text-anchor="middle" x="50.09" y="-45.5" font-family="Helvetica,sans-Serif" font-size="10.00">C</text>
<polyline fill="none" stroke="#bfbfbf" points="35.59,-38.5 64.59,-38.5 "/>
<text text-anchor="middle" x="50.09" y="-26.5" font-family="Helvetica,sans-Serif" font-size="10.00"> </text>
<polyline fill="none" stroke="#bfbfbf" points="35.59,-19.5 64.59,-19.5 "/>
<text text-anchor="middle" x="50.09" y="-7.5" font-family="Helvetica,sans-Serif" font-size="10.00"> </text>
</a>
</g>
</g>
<!-- Node1&#45;&gt;Node4 -->
<g id="edge7" class="edge">
<title>Node1&#45;&gt;Node4</title>
<path fill="none" stroke="#404040" d="M13.24,-117.12C4.45,-105.74 -3.88,-90.01 2.09,-76 7.02,-64.46 16.41,-54.43 25.59,-46.7"/>
<polygon fill="none" stroke="#404040" points="25.75,-46.59 28.06,-39.76 35.25,-39.26 32.94,-46.09 25.75,-46.59"/>
<text text-anchor="middle" x="18.59" y="-79" font-family="Helvetica,sans-Serif" font-size="10.00"> +m_d</text>
</g>
<!-- Node2 -->
<g id="node2" class="node">
<title>Node2</title>
<g id="a_node2"><a xlink:href="class_a.html" target="_top" xlink:title=" ">
<polygon fill="white" stroke="#bfbfbf" points="34.59,-305.5 34.59,-362.5 63.59,-362.5 63.59,-305.5 34.59,-305.5"/>
<text text-anchor="middle" x="49.09" y="-350.5" font-family="Helvetica,sans-Serif" font-size="10.00">A</text>
<polyline fill="none" stroke="#bfbfbf" points="34.59,-343.5 63.59,-343.5 "/>
<text text-anchor="middle" x="49.09" y="-331.5" font-family="Helvetica,sans-Serif" font-size="10.00"> </text>
<polyline fill="none" stroke="#bfbfbf" points="34.59,-324.5 63.59,-324.5 "/>
<text text-anchor="middle" x="49.09" y="-312.5" font-family="Helvetica,sans-Serif" font-size="10.00"> </text>
</a>
</g>
</g>
<!-- Node2&#45;&gt;Node1 -->
<g id="edge1" class="edge">
<title>Node2&#45;&gt;Node1</title>
<path fill="none" stroke="darkgreen" d="M36.47,-295.64C33.04,-283.75 29.8,-270.45 28.09,-258 23.62,-225.42 24.53,-187.53 25.96,-162.5"/>
<polygon fill="none" stroke="darkgreen" points="33.13,-296.68 39.37,-305.25 39.83,-294.66 33.13,-296.68"/>
</g>
<!-- Node2&#45;&gt;Node2 -->
<g id="edge2" class="edge">
<title>Node2&#45;&gt;Node2</title>
<path fill="none" stroke="#404040" d="M63.8,-343.06C72.92,-345.25 81.59,-342.23 81.59,-334 81.59,-329.76 79.29,-326.9 75.8,-325.43"/>
<polygon fill="none" stroke="#404040" points="75.79,-325.43 69.63,-329.18 63.8,-324.94 69.96,-321.19 75.79,-325.43"/>
<text text-anchor="middle" x="104.09" y="-331.5" font-family="Helvetica,sans-Serif" font-size="10.00"> +m_self</text>
</g>
<!-- Node3 -->
<g id="node3" class="node">
<title>Node3</title>
<g id="a_node3"><a xlink:href="class_b.html" target="_top" xlink:title=" ">
<polygon fill="white" stroke="#bfbfbf" points="37.59,-200.5 37.59,-257.5 66.59,-257.5 66.59,-200.5 37.59,-200.5"/>
<text text-anchor="middle" x="52.09" y="-245.5" font-family="Helvetica,sans-Serif" font-size="10.00">B</text>
<polyline fill="none" stroke="#bfbfbf" points="37.59,-238.5 66.59,-238.5 "/>
<text text-anchor="middle" x="52.09" y="-226.5" font-family="Helvetica,sans-Serif" font-size="10.00"> </text>
<polyline fill="none" stroke="#bfbfbf" points="37.59,-219.5 66.59,-219.5 "/>
<text text-anchor="middle" x="52.09" y="-207.5" font-family="Helvetica,sans-Serif" font-size="10.00"> </text>
</a>
</g>
</g>
<!-- Node2&#45;&gt;Node3 -->
<g id="edge4" class="edge">
<title>Node2&#45;&gt;Node3</title>
<path fill="none" stroke="#404040" d="M49.43,-305.45C49.59,-296.1 49.8,-285.6 50.09,-276 50.16,-273.97 50.23,-271.88 50.3,-269.78"/>
<polygon fill="none" stroke="#404040" points="50.3,-269.72 46.54,-263.56 50.77,-257.73 54.53,-263.88 50.3,-269.72"/>
<text text-anchor="middle" x="66.59" y="-279" font-family="Helvetica,sans-Serif" font-size="10.00"> +m_a</text>
</g>
<!-- Node2&#45;&gt;Node4 -->
<g id="edge6" class="edge">
<title>Node2&#45;&gt;Node4</title>
<path fill="none" stroke="#63b8ff" d="M70.41,-310.1C75.58,-303.18 80.38,-295.22 83.09,-287 84.62,-282.36 83.18,-280.89 83.09,-276 81.54,-187.07 100.22,-161.61 76.09,-76 73.65,-67.35 69.27,-58.58 64.79,-51.05"/>
<polygon fill="none" stroke="#63b8ff" points="67.39,-308.28 63.82,-318.25 72.83,-312.68 67.39,-308.28"/>
</g>
<!-- Node3&#45;&gt;Node1 -->
<g id="edge3" class="edge">
<title>Node3&#45;&gt;Node1</title>
<path fill="none" stroke="#8b1a1a" d="M42.42,-190.53C40.03,-181.24 37.5,-171.44 35.24,-162.71"/>
<polygon fill="none" stroke="#8b1a1a" points="39.07,-191.54 44.96,-200.35 45.85,-189.79 39.07,-191.54"/>
</g>
<!-- Node4&#45;&gt;Node1 -->
<g id="edge5" class="edge">
<title>Node4&#45;&gt;Node1</title>
<path fill="none" stroke="#404040" d="M44.18,-57.68C41.84,-68.66 39.1,-81.48 36.55,-93.41"/>
<polygon fill="none" stroke="#404040" points="36.5,-93.66 39.15,-100.37 33.99,-105.4 31.33,-98.69 36.5,-93.66"/>
<text text-anchor="middle" x="56.09" y="-79" font-family="Helvetica,sans-Serif" font-size="10.00"> +m_c</text>
</g>
</g>
</svg>
