<?xml version="1.0" encoding="UTF-8" standalone="no"?>
<!DOCTYPE svg PUBLIC "-//W3C//DTD SVG 1.1//EN"
 "http://www.w3.org/Graphics/SVG/1.1/DTD/svg11.dtd">
<!-- Generated by graphviz version 2.40.1 (20161225.0304)
 -->
<!-- Title: FoliatedTriangulation&lt; 3 &gt; Pages: 1 -->
<!--zoomable 810 -->
<svg id="main" version="1.1" xmlns="http://www.w3.org/2000/svg" xmlns:xlink="http://www.w3.org/1999/xlink" xml:space="preserve" onload="init(evt)">
<style type="text/css"><![CDATA[
.edge:hover path { stroke: red; }
.edge:hover polygon { stroke: red; fill: red; }
]]></style>
<script type="text/javascript"><![CDATA[
var edges = document.getElementsByTagName('g');
if (edges && edges.length) {
  for (var i=0;i<edges.length;i++) {
    if (edges[i].id.substr(0,4)=='edge') {
      edges[i].setAttribute('class','edge');
    }
  }
}
]]></script>
        <defs>
                <circle id="rim" cx="0" cy="0" r="7"/>
                <circle id="rim2" cx="0" cy="0" r="3.5"/>
                <g id="zoomPlus">
                        <use xlink:href="#rim" fill="#404040">
                                <set attributeName="fill" to="#808080" begin="zoomplus.mouseover" end="zoomplus.mouseout"/>
                        </use>
                        <path d="M-4,0h8M0,-4v8" fill="none" stroke="white" stroke-width="1.5" pointer-events="none"/>
                </g>
                <g id="zoomMin">
                        <use xlink:href="#rim" fill="#404040">
                                <set attributeName="fill" to="#808080" begin="zoomminus.mouseover" end="zoomminus.mouseout"/>
                        </use>
                        <path d="M-4,0h8" fill="none" stroke="white" stroke-width="1.5" pointer-events="none"/>
                </g>
                <g id="dirArrow">
                        <path fill="none" stroke="white" stroke-width="1.5" d="M0,-3.0v7 M-2.5,-0.5L0,-3.0L2.5,-0.5"/>
                </g>
               <g id="resetDef">
                       <use xlink:href="#rim2" fill="#404040">
                               <set attributeName="fill" to="#808080" begin="reset.mouseover" end="reset.mouseout"/>
                       </use>
               </g>
        </defs>

<script type="text/javascript">
var viewWidth = 753;
var viewHeight = 810;
var sectionId = 'dynsection-0';
</script>
<script xlink:href="svgpan.js"/>
<svg id="graph" class="graph">
<g id="viewport">
<title>FoliatedTriangulation&lt; 3 &gt;</title>
<polygon fill="#ffffff" stroke="transparent" points="-4,4 -4,-806 749,-806 749,4 -4,4"/>
<!-- Node1 -->
<g id="node1" class="node">
<title>Node1</title>
<polygon fill="#bfbfbf" stroke="#000000" points="301,-.5 301,-431.5 448,-431.5 448,-.5 301,-.5"/>
<text text-anchor="middle" x="374.5" y="-419.5" font-family="Helvetica,sans-Serif" font-size="10.00" fill="#000000">FoliatedTriangulation&lt; 3 &gt;</text>
<polyline fill="none" stroke="#000000" points="301,-412.5 448,-412.5 "/>
<text text-anchor="start" x="309" y="-400.5" font-family="Helvetica,sans-Serif" font-size="10.00" fill="#000000">&#45; m_foliation_spacing</text>
<text text-anchor="start" x="309" y="-389.5" font-family="Helvetica,sans-Serif" font-size="10.00" fill="#000000">&#45; m_initial_radius</text>
<text text-anchor="start" x="309" y="-378.5" font-family="Helvetica,sans-Serif" font-size="10.00" fill="#000000">&#45; m_max_timevalue</text>
<text text-anchor="start" x="309" y="-367.5" font-family="Helvetica,sans-Serif" font-size="10.00" fill="#000000">&#45; m_min_timevalue</text>
<text text-anchor="start" x="309" y="-356.5" font-family="Helvetica,sans-Serif" font-size="10.00" fill="#000000">&#45; m_triangulation</text>
<polyline fill="none" stroke="#000000" points="301,-349.5 448,-349.5 "/>
<text text-anchor="start" x="309" y="-337.5" font-family="Helvetica,sans-Serif" font-size="10.00" fill="#000000">+ FoliatedTriangulation()</text>
<text text-anchor="start" x="309" y="-326.5" font-family="Helvetica,sans-Serif" font-size="10.00" fill="#000000">+ FoliatedTriangulation()</text>
<text text-anchor="start" x="309" y="-315.5" font-family="Helvetica,sans-Serif" font-size="10.00" fill="#000000">+ FoliatedTriangulation()</text>
<text text-anchor="start" x="309" y="-304.5" font-family="Helvetica,sans-Serif" font-size="10.00" fill="#000000">+ FoliatedTriangulation()</text>
<text text-anchor="start" x="309" y="-293.5" font-family="Helvetica,sans-Serif" font-size="10.00" fill="#000000">+ FoliatedTriangulation()</text>
<text text-anchor="start" x="309" y="-282.5" font-family="Helvetica,sans-Serif" font-size="10.00" fill="#000000">+ FoliatedTriangulation()</text>
<text text-anchor="start" x="309" y="-271.5" font-family="Helvetica,sans-Serif" font-size="10.00" fill="#000000">+ ~FoliatedTriangulation()</text>
<text text-anchor="start" x="309" y="-260.5" font-family="Helvetica,sans-Serif" font-size="10.00" fill="#000000">+ are_vertex_timevalues</text>
<text text-anchor="start" x="309" y="-249.5" font-family="Helvetica,sans-Serif" font-size="10.00" fill="#000000">_correct()</text>
<text text-anchor="start" x="309" y="-238.5" font-family="Helvetica,sans-Serif" font-size="10.00" fill="#000000">+ check_timeslices()</text>
<text text-anchor="start" x="309" y="-227.5" font-family="Helvetica,sans-Serif" font-size="10.00" fill="#000000">+ check_vertices()</text>
<text text-anchor="start" x="309" y="-216.5" font-family="Helvetica,sans-Serif" font-size="10.00" fill="#000000">and 46 more...</text>
<text text-anchor="start" x="309" y="-205.5" font-family="Helvetica,sans-Serif" font-size="10.00" fill="#000000">+ check_cells()</text>
<text text-anchor="start" x="309" y="-194.5" font-family="Helvetica,sans-Serif" font-size="10.00" fill="#000000">+ classify_edge()</text>
<text text-anchor="start" x="309" y="-183.5" font-family="Helvetica,sans-Serif" font-size="10.00" fill="#000000">+ expected_cell_type()</text>
<text text-anchor="start" x="309" y="-172.5" font-family="Helvetica,sans-Serif" font-size="10.00" fill="#000000">+ filter_cells()</text>
<text text-anchor="start" x="309" y="-161.5" font-family="Helvetica,sans-Serif" font-size="10.00" fill="#000000">+ is_cell_type_correct()</text>
<text text-anchor="start" x="309" y="-150.5" font-family="Helvetica,sans-Serif" font-size="10.00" fill="#000000">+ print_cells()</text>
<text text-anchor="start" x="309" y="-139.5" font-family="Helvetica,sans-Serif" font-size="10.00" fill="#000000">+ squared_radius()</text>
<text text-anchor="start" x="309" y="-128.5" font-family="Helvetica,sans-Serif" font-size="10.00" fill="#000000">&#45; classify_cells()</text>
<text text-anchor="start" x="309" y="-117.5" font-family="Helvetica,sans-Serif" font-size="10.00" fill="#000000">&#45; collect_cells()</text>
<text text-anchor="start" x="309" y="-106.5" font-family="Helvetica,sans-Serif" font-size="10.00" fill="#000000">&#45; collect_edges()</text>
<text text-anchor="start" x="309" y="-95.5" font-family="Helvetica,sans-Serif" font-size="10.00" fill="#000000">&#45; collect_faces()</text>
<text text-anchor="start" x="309" y="-84.5" font-family="Helvetica,sans-Serif" font-size="10.00" fill="#000000">&#45; collect_vertices()</text>
<text text-anchor="start" x="309" y="-73.5" font-family="Helvetica,sans-Serif" font-size="10.00" fill="#000000">&#45; fix_timeslices()</text>
<text text-anchor="start" x="309" y="-62.5" font-family="Helvetica,sans-Serif" font-size="10.00" fill="#000000">&#45; make_triangulation()</text>
<text text-anchor="start" x="309" y="-51.5" font-family="Helvetica,sans-Serif" font-size="10.00" fill="#000000">&#45; filter_edges()</text>
<text text-anchor="start" x="309" y="-40.5" font-family="Helvetica,sans-Serif" font-size="10.00" fill="#000000">&#45; find_max_timevalue()</text>
<text text-anchor="start" x="309" y="-29.5" font-family="Helvetica,sans-Serif" font-size="10.00" fill="#000000">&#45; find_min_timevalue()</text>
<text text-anchor="start" x="309" y="-18.5" font-family="Helvetica,sans-Serif" font-size="10.00" fill="#000000">&#45; make_foliated_sphere()</text>
<text text-anchor="start" x="309" y="-7.5" font-family="Helvetica,sans-Serif" font-size="10.00" fill="#000000">&#45; volume_per_timeslice()</text>
</g>
<!-- Node2 -->
<g id="node2" class="node">
<title>Node2</title>
<polygon fill="#ffffff" stroke="#bfbfbf" points="0,-523.5 0,-580.5 151,-580.5 151,-523.5 0,-523.5"/>
<text text-anchor="middle" x="75.5" y="-568.5" font-family="Helvetica,sans-Serif" font-size="10.00" fill="#000000">std::vector&lt; Face_handle &gt;</text>
<polyline fill="none" stroke="#bfbfbf" points="0,-561.5 151,-561.5 "/>
<text text-anchor="start" x="8" y="-549.5" font-family="Helvetica,sans-Serif" font-size="10.00" fill="#000000">+ elements</text>
<polyline fill="none" stroke="#bfbfbf" points="0,-542.5 151,-542.5 "/>
<text text-anchor="middle" x="75.5" y="-530.5" font-family="Helvetica,sans-Serif" font-size="10.00" fill="#000000"> </text>
</g>
<!-- Node2&#45;&gt;Node1 -->
<g id="edge1" class="edge">
<title>Node2&#45;&gt;Node1</title>
<path fill="none" stroke="#404040" d="M100.9926,-523.3528C142.9763,-476.1738 228.4151,-380.1623 292.6916,-307.9319"/>
<polygon fill="none" stroke="#404040" points="292.8403,-307.7647 293.8408,-300.6233 300.8177,-298.8002 299.8172,-305.9416 292.8403,-307.7647"/>
<text text-anchor="middle" x="189" y="-469.5" font-family="Helvetica,sans-Serif" font-size="10.00" fill="#000000"> &#45;m_faces</text>
</g>
<!-- Node3 -->
<g id="node3" class="node">
<title>Node3</title>
<g id="a_node3"><a xlink:title="STL class. ">
<polygon fill="#ffffff" stroke="#bfbfbf" points="326,-639.5 326,-696.5 423,-696.5 423,-639.5 326,-639.5"/>
<text text-anchor="middle" x="374.5" y="-684.5" font-family="Helvetica,sans-Serif" font-size="10.00" fill="#000000">std::vector&lt; T &gt;</text>
<polyline fill="none" stroke="#bfbfbf" points="326,-677.5 423,-677.5 "/>
<text text-anchor="middle" x="374.5" y="-665.5" font-family="Helvetica,sans-Serif" font-size="10.00" fill="#000000"> </text>
<polyline fill="none" stroke="#bfbfbf" points="326,-658.5 423,-658.5 "/>
<text text-anchor="middle" x="374.5" y="-646.5" font-family="Helvetica,sans-Serif" font-size="10.00" fill="#000000"> </text>
</a>
</g>
</g>
<!-- Node3&#45;&gt;Node2 -->
<g id="edge2" class="edge">
<title>Node3&#45;&gt;Node2</title>
<path fill="none" stroke="#ffa500" d="M315.9087,-660.2129C275.008,-653.3603 219.8409,-641.2345 174.5,-621 151.3509,-610.6692 127.9679,-594.6893 109.7438,-580.7085"/>
<polygon fill="#ffa500" stroke="#ffa500" points="315.5545,-663.7011 325.9851,-661.8433 316.6725,-656.7909 315.5545,-663.7011"/>
<text text-anchor="middle" x="217.5" y="-613" font-family="Helvetica,sans-Serif" font-size="10.00" fill="#000000"> &lt; Face_handle &gt;</text>
</g>
<!-- Node5 -->
<g id="node5" class="node">
<title>Node5</title>
<polygon fill="#ffffff" stroke="#bfbfbf" points="169,-518 169,-586 280,-586 280,-518 169,-518"/>
<text text-anchor="start" x="177" y="-574" font-family="Helvetica,sans-Serif" font-size="10.00" fill="#000000">std::vector&lt; Vertex</text>
<text text-anchor="middle" x="224.5" y="-563" font-family="Helvetica,sans-Serif" font-size="10.00" fill="#000000">_handle &gt;</text>
<polyline fill="none" stroke="#bfbfbf" points="169,-556 280,-556 "/>
<text text-anchor="start" x="177" y="-544" font-family="Helvetica,sans-Serif" font-size="10.00" fill="#000000">+ elements</text>
<polyline fill="none" stroke="#bfbfbf" points="169,-537 280,-537 "/>
<text text-anchor="middle" x="224.5" y="-525" font-family="Helvetica,sans-Serif" font-size="10.00" fill="#000000"> </text>
</g>
<!-- Node3&#45;&gt;Node5 -->
<g id="edge5" class="edge">
<title>Node3&#45;&gt;Node5</title>
<path fill="none" stroke="#ffa500" d="M316.3718,-646.6955C301.8276,-639.8018 286.8633,-631.236 274.5,-621 262.7631,-611.2827 252.3768,-598.215 244.1541,-586.066"/>
<polygon fill="#ffa500" stroke="#ffa500" points="315.2842,-650.0452 325.8373,-650.9851 318.1736,-643.6694 315.2842,-650.0452"/>
<text text-anchor="middle" x="322.5" y="-613" font-family="Helvetica,sans-Serif" font-size="10.00" fill="#000000"> &lt; Vertex_handle &gt;</text>
</g>
<!-- Node6 -->
<g id="node6" class="node">
<title>Node6</title>
<polygon fill="#ffffff" stroke="#bfbfbf" points="298,-523.5 298,-580.5 451,-580.5 451,-523.5 298,-523.5"/>
<text text-anchor="middle" x="374.5" y="-568.5" font-family="Helvetica,sans-Serif" font-size="10.00" fill="#000000">std::vector&lt; Edge_handle &gt;</text>
<polyline fill="none" stroke="#bfbfbf" points="298,-561.5 451,-561.5 "/>
<text text-anchor="start" x="306" y="-549.5" font-family="Helvetica,sans-Serif" font-size="10.00" fill="#000000">+ elements</text>
<polyline fill="none" stroke="#bfbfbf" points="298,-542.5 451,-542.5 "/>
<text text-anchor="middle" x="374.5" y="-530.5" font-family="Helvetica,sans-Serif" font-size="10.00" fill="#000000"> </text>
</g>
<!-- Node3&#45;&gt;Node6 -->
<g id="edge7" class="edge">
<title>Node3&#45;&gt;Node6</title>
<path fill="none" stroke="#ffa500" d="M374.5,-629.2769C374.5,-613.4213 374.5,-595.397 374.5,-580.7463"/>
<polygon fill="#ffa500" stroke="#ffa500" points="371.0001,-629.3258 374.5,-639.3258 378.0001,-629.3259 371.0001,-629.3258"/>
<text text-anchor="middle" x="418.5" y="-613" font-family="Helvetica,sans-Serif" font-size="10.00" fill="#000000"> &lt; Edge_handle &gt;</text>
</g>
<!-- Node7 -->
<g id="node7" class="node">
<title>Node7</title>
<polygon fill="#ffffff" stroke="#bfbfbf" points="469.5,-523.5 469.5,-580.5 617.5,-580.5 617.5,-523.5 469.5,-523.5"/>
<text text-anchor="middle" x="543.5" y="-568.5" font-family="Helvetica,sans-Serif" font-size="10.00" fill="#000000">std::vector&lt; Cell_handle &gt;</text>
<polyline fill="none" stroke="#bfbfbf" points="469.5,-561.5 617.5,-561.5 "/>
<text text-anchor="start" x="477.5" y="-549.5" font-family="Helvetica,sans-Serif" font-size="10.00" fill="#000000">+ elements</text>
<polyline fill="none" stroke="#bfbfbf" points="469.5,-542.5 617.5,-542.5 "/>
<text text-anchor="middle" x="543.5" y="-530.5" font-family="Helvetica,sans-Serif" font-size="10.00" fill="#000000"> </text>
</g>
<!-- Node3&#45;&gt;Node7 -->
<g id="edge9" class="edge">
<title>Node3&#45;&gt;Node7</title>
<path fill="none" stroke="#ffa500" d="M432.0097,-641.5195C443.746,-635.3213 455.7764,-628.3598 466.5,-621 483.6678,-609.2175 501.0871,-593.9457 515.005,-580.7659"/>
<polygon fill="#ffa500" stroke="#ffa500" points="430.4023,-638.4104 423.1187,-646.1046 433.6107,-644.6319 430.4023,-638.4104"/>
<text text-anchor="middle" x="522" y="-613" font-family="Helvetica,sans-Serif" font-size="10.00" fill="#000000"> &lt; Cell_handle &gt;</text>
</g>
<!-- Node4 -->
<g id="node4" class="node">
<title>Node4</title>
<polygon fill="#ffffff" stroke="#bfbfbf" points="424,-744.5 424,-801.5 453,-801.5 453,-744.5 424,-744.5"/>
<text text-anchor="middle" x="438.5" y="-789.5" font-family="Helvetica,sans-Serif" font-size="10.00" fill="#000000">T</text>
<polyline fill="none" stroke="#bfbfbf" points="424,-782.5 453,-782.5 "/>
<text text-anchor="middle" x="438.5" y="-770.5" font-family="Helvetica,sans-Serif" font-size="10.00" fill="#000000"> </text>
<polyline fill="none" stroke="#bfbfbf" points="424,-763.5 453,-763.5 "/>
<text text-anchor="middle" x="438.5" y="-751.5" font-family="Helvetica,sans-Serif" font-size="10.00" fill="#000000"> </text>
</g>
<!-- Node4&#45;&gt;Node3 -->
<g id="edge3" class="edge">
<title>Node4&#45;&gt;Node3</title>
<path fill="none" stroke="#404040" d="M423.9774,-749.1739C416.3951,-736.7341 406.9242,-721.196 398.3042,-707.0537"/>
<polygon fill="none" stroke="#404040" points="398.1691,-706.8321 391.6308,-703.7907 391.9235,-696.5855 398.4619,-699.627 398.1691,-706.8321"/>
<text text-anchor="middle" x="437.5" y="-718" font-family="Helvetica,sans-Serif" font-size="10.00" fill="#000000"> +elements</text>
</g>
<!-- Node9 -->
<g id="node9" class="node">
<title>Node9</title>
<g id="a_node9"><a xlink:title="STL class. ">
<polygon fill="#ffffff" stroke="#bfbfbf" points="484.5,-639.5 484.5,-696.5 610.5,-696.5 610.5,-639.5 484.5,-639.5"/>
<text text-anchor="middle" x="547.5" y="-684.5" font-family="Helvetica,sans-Serif" font-size="10.00" fill="#000000">std::multimap&lt; K, T &gt;</text>
<polyline fill="none" stroke="#bfbfbf" points="484.5,-677.5 610.5,-677.5 "/>
<text text-anchor="start" x="492.5" y="-665.5" font-family="Helvetica,sans-Serif" font-size="10.00" fill="#000000">+ keys</text>
<polyline fill="none" stroke="#bfbfbf" points="484.5,-658.5 610.5,-658.5 "/>
<text text-anchor="middle" x="547.5" y="-646.5" font-family="Helvetica,sans-Serif" font-size="10.00" fill="#000000"> </text>
</a>
</g>
</g>
<!-- Node4&#45;&gt;Node9 -->
<g id="edge12" class="edge">
<title>Node4&#45;&gt;Node9</title>
<path fill="none" stroke="#404040" d="M453.2002,-758.8392C467.4472,-745.1151 489.6726,-723.7053 508.9687,-705.1173"/>
<polygon fill="none" stroke="#404040" points="509.2303,-704.8653 510.7765,-697.8219 517.8727,-696.54 516.3266,-703.5835 509.2303,-704.8653"/>
<text text-anchor="middle" x="525.5" y="-718" font-family="Helvetica,sans-Serif" font-size="10.00" fill="#000000"> +elements</text>
</g>
<!-- Node5&#45;&gt;Node1 -->
<g id="edge4" class="edge">
<title>Node5&#45;&gt;Node1</title>
<path fill="none" stroke="#404040" d="M239.7083,-517.9335C253.3207,-487.4416 274.3902,-440.2459 295.8585,-392.1569"/>
<polygon fill="none" stroke="#404040" points="295.9874,-391.8682 294.7807,-384.7587 300.8792,-380.9105 302.0859,-388.02 295.9874,-391.8682"/>
<text text-anchor="middle" x="295.5" y="-469.5" font-family="Helvetica,sans-Serif" font-size="10.00" fill="#000000"> &#45;m_points</text>
</g>
<!-- Node6&#45;&gt;Node1 -->
<g id="edge6" class="edge">
<title>Node6&#45;&gt;Node1</title>
<path fill="none" stroke="#404040" d="M374.5,-523.3528C374.5,-503.6518 374.5,-475.4356 374.5,-443.9917"/>
<polygon fill="none" stroke="#404040" points="374.5001,-443.7935 370.5,-437.7935 374.5,-431.7935 378.5,-437.7935 374.5001,-443.7935"/>
<text text-anchor="middle" x="424.5" y="-480.5" font-family="Helvetica,sans-Serif" font-size="10.00" fill="#000000"> &#45;m_edges</text>
<text text-anchor="middle" x="424.5" y="-469.5" font-family="Helvetica,sans-Serif" font-size="10.00" fill="#000000">&#45;m_timelike_edges</text>
<text text-anchor="middle" x="424.5" y="-458.5" font-family="Helvetica,sans-Serif" font-size="10.00" fill="#000000">&#45;m_spacelike_edges</text>
</g>
<!-- Node7&#45;&gt;Node1 -->
<g id="edge8" class="edge">
<title>Node7&#45;&gt;Node1</title>
<path fill="none" stroke="#404040" d="M529.0912,-523.3528C512.0686,-489.5092 482.4071,-430.5372 453.5885,-373.241"/>
<polygon fill="none" stroke="#404040" points="453.4227,-372.9113 447.1532,-369.3485 448.0306,-362.191 454.3001,-365.7538 453.4227,-372.9113"/>
<text text-anchor="middle" x="545.5" y="-486" font-family="Helvetica,sans-Serif" font-size="10.00" fill="#000000"> &#45;m_cells</text>
<text text-anchor="middle" x="545.5" y="-475" font-family="Helvetica,sans-Serif" font-size="10.00" fill="#000000">&#45;m_one_three</text>
<text text-anchor="middle" x="545.5" y="-464" font-family="Helvetica,sans-Serif" font-size="10.00" fill="#000000">&#45;m_three_one</text>
<text text-anchor="middle" x="545.5" y="-453" font-family="Helvetica,sans-Serif" font-size="10.00" fill="#000000">&#45;m_two_two</text>
</g>
<!-- Node8 -->
<g id="node8" class="node">
<title>Node8</title>
<polygon fill="#ffffff" stroke="#bfbfbf" points="636,-512.5 636,-591.5 745,-591.5 745,-512.5 636,-512.5"/>
<text text-anchor="start" x="644" y="-579.5" font-family="Helvetica,sans-Serif" font-size="10.00" fill="#000000">std::multimap&lt; Int</text>
<text text-anchor="middle" x="690.5" y="-568.5" font-family="Helvetica,sans-Serif" font-size="10.00" fill="#000000">_precision, Facet &gt;</text>
<polyline fill="none" stroke="#bfbfbf" points="636,-561.5 745,-561.5 "/>
<text text-anchor="start" x="644" y="-549.5" font-family="Helvetica,sans-Serif" font-size="10.00" fill="#000000">+ elements</text>
<text text-anchor="start" x="644" y="-538.5" font-family="Helvetica,sans-Serif" font-size="10.00" fill="#000000">+ keys</text>
<polyline fill="none" stroke="#bfbfbf" points="636,-531.5 745,-531.5 "/>
<text text-anchor="middle" x="690.5" y="-519.5" font-family="Helvetica,sans-Serif" font-size="10.00" fill="#000000"> </text>
</g>
<!-- Node8&#45;&gt;Node1 -->
<g id="edge10" class="edge">
<title>Node8&#45;&gt;Node1</title>
<path fill="none" stroke="#404040" d="M653.3216,-512.4685C605.231,-461.3342 520.0988,-370.8139 456.5151,-303.206"/>
<polygon fill="none" stroke="#404040" points="456.3076,-302.9853 449.2832,-301.3549 448.0864,-294.2438 455.1108,-295.8742 456.3076,-302.9853"/>
<text text-anchor="middle" x="682.5" y="-469.5" font-family="Helvetica,sans-Serif" font-size="10.00" fill="#000000"> &#45;m_spacelike_facets</text>
</g>
<!-- Node9&#45;&gt;Node8 -->
<g id="edge11" class="edge">
<title>Node9&#45;&gt;Node8</title>
<path fill="none" stroke="#ffa500" d="M591.0132,-632.7026C607.0567,-619.6883 625.3324,-604.8632 641.8045,-591.5012"/>
<polygon fill="#ffa500" stroke="#ffa500" points="588.4095,-630.3079 582.8483,-639.3258 592.8194,-635.7442 588.4095,-630.3079"/>
<text text-anchor="middle" x="679.5" y="-613" font-family="Helvetica,sans-Serif" font-size="10.00" fill="#000000"> &lt; Int_precision, Facet &gt;</text>
</g>
</g>
</svg>
        <g id="navigator" transform="translate(0 0)" fill="#404254">
                <rect fill="#f2f5e9" fill-opacity="0.5" stroke="#606060" stroke-width=".5" x="0" y="0" width="60" height="60"/>
                <use id="zoomplus" xlink:href="#zoomPlus" x="17" y="9" onmousedown="handleZoom(evt,'in')"/>
                <use id="zoomminus" xlink:href="#zoomMin" x="42" y="9" onmousedown="handleZoom(evt,'out')"/>
                <use id="reset" xlink:href="#resetDef" x="30" y="36" onmousedown="handleReset()"/>
                <g id="arrowUp" xlink:href="#dirArrow" transform="translate(30 24)" onmousedown="handlePan(0,-1)">
                  <use xlink:href="#rim" fill="#404040">
                        <set attributeName="fill" to="#808080" begin="arrowUp.mouseover" end="arrowUp.mouseout"/>
                  </use>
                  <path fill="none" stroke="white" stroke-width="1.5" d="M0,-3.0v7 M-2.5,-0.5L0,-3.0L2.5,-0.5"/>
                </g>
                <g id="arrowRight" xlink:href="#dirArrow" transform="rotate(90) translate(36 -43)" onmousedown="handlePan(1,0)">
                  <use xlink:href="#rim" fill="#404040">
                        <set attributeName="fill" to="#808080" begin="arrowRight.mouseover" end="arrowRight.mouseout"/>
                  </use>
                  <path fill="none" stroke="white" stroke-width="1.5" d="M0,-3.0v7 M-2.5,-0.5L0,-3.0L2.5,-0.5"/>
                </g>
                <g id="arrowDown" xlink:href="#dirArrow" transform="rotate(180) translate(-30 -48)" onmousedown="handlePan(0,1)">
                  <use xlink:href="#rim" fill="#404040">
                        <set attributeName="fill" to="#808080" begin="arrowDown.mouseover" end="arrowDown.mouseout"/>
                  </use>
                  <path fill="none" stroke="white" stroke-width="1.5" d="M0,-3.0v7 M-2.5,-0.5L0,-3.0L2.5,-0.5"/>
                </g>
                <g id="arrowLeft" xlink:href="#dirArrow" transform="rotate(270) translate(-36 17)" onmousedown="handlePan(-1,0)">
                  <use xlink:href="#rim" fill="#404040">
                        <set attributeName="fill" to="#808080" begin="arrowLeft.mouseover" end="arrowLeft.mouseout"/>
                  </use>
                  <path fill="none" stroke="white" stroke-width="1.5" d="M0,-3.0v7 M-2.5,-0.5L0,-3.0L2.5,-0.5"/>
                </g>
        </g>
        <svg viewBox="0 0 15 15" width="100%" height="30px" preserveAspectRatio="xMaxYMin meet">
         <g id="arrow_out" transform="scale(0.3 0.3)">
          <a xlink:href="class_foliated_triangulation_3_013_01_4__coll__graph_org.svg" target="_base">
           <rect id="button" ry="5" rx="5" y="6" x="6" height="38" width="38"
                fill="#f2f5e9" fill-opacity="0.5" stroke="#606060" stroke-width="1.0"/>
           <path id="arrow"
             d="M 11.500037,31.436501 C 11.940474,20.09759 22.043105,11.32322 32.158766,21.979434 L 37.068811,17.246167 C 37.068811,17.246167 37.088388,32 37.088388,32 L 22.160133,31.978069 C 22.160133,31.978069 26.997745,27.140456 26.997745,27.140456 C 18.528582,18.264221 13.291696,25.230495 11.500037,31.436501 z"
             style="fill:#404040;"/>
          </a>
         </g>
        </svg>
</svg>
