<?xml version="1.0" encoding="UTF-8" standalone="no"?>
<!DOCTYPE svg PUBLIC "-//W3C//DTD SVG 1.1//EN"
 "http://www.w3.org/Graphics/SVG/1.1/DTD/svg11.dtd">
<!-- Generated by graphviz version 15.1.0 (20260618.0150)
 -->
<!-- Title: cdt::foliated_triangulations::FoliatedTriangulation&lt; 3 &gt; Pages: 1 -->
<svg width="851pt" height="813pt"
 viewBox="0.00 0.00 851.00 813.00" xmlns="http://www.w3.org/2000/svg" xmlns:xlink="http://www.w3.org/1999/xlink">
<g id="graph0" class="graph" transform="scale(1 1) rotate(0) translate(4 808.75)">
<title>cdt::foliated_triangulations::FoliatedTriangulation&lt; 3 &gt;</title>
<!-- Node1 -->
<g id="Node000001" class="node">
<title>Node1</title>
<g id="a_Node000001"><a xlink:title="3D Foliated triangulation">
<polygon fill="#999999" stroke="none" points="484.5,-402 340,-402 340,0 484.5,0 484.5,-402"/>
<text xml:space="preserve" text-anchor="start" x="344" y="-388.25" font-family="Helvetica,sans-Serif" font-size="10.00">cdt::foliated_triangulations</text>
<text xml:space="preserve" text-anchor="start" x="344" y="-375.5" font-family="Helvetica,sans-Serif" font-size="10.00">::FoliatedTriangulation&lt; 3 &gt;</text>
<text xml:space="preserve" text-anchor="start" x="346.75" y="-358.75" font-family="Helvetica,sans-Serif" font-size="10.00">&#45;</text>
<text xml:space="preserve" text-anchor="start" x="357.25" y="-358.75" font-family="Helvetica,sans-Serif" font-size="10.00">m_foliation_spacing</text>
<text xml:space="preserve" text-anchor="start" x="346.75" y="-342" font-family="Helvetica,sans-Serif" font-size="10.00">&#45;</text>
<text xml:space="preserve" text-anchor="start" x="357.25" y="-342" font-family="Helvetica,sans-Serif" font-size="10.00">m_initial_radius</text>
<text xml:space="preserve" text-anchor="start" x="346.75" y="-325.25" font-family="Helvetica,sans-Serif" font-size="10.00">&#45;</text>
<text xml:space="preserve" text-anchor="start" x="357.25" y="-325.25" font-family="Helvetica,sans-Serif" font-size="10.00">m_max_timevalue</text>
<text xml:space="preserve" text-anchor="start" x="346.75" y="-308.5" font-family="Helvetica,sans-Serif" font-size="10.00">&#45;</text>
<text xml:space="preserve" text-anchor="start" x="357.25" y="-308.5" font-family="Helvetica,sans-Serif" font-size="10.00">m_min_timevalue</text>
<text xml:space="preserve" text-anchor="start" x="346.75" y="-291.75" font-family="Helvetica,sans-Serif" font-size="10.00">&#45;</text>
<text xml:space="preserve" text-anchor="start" x="357.25" y="-291.75" font-family="Helvetica,sans-Serif" font-size="10.00">m_triangulation</text>
<text xml:space="preserve" text-anchor="start" x="344.5" y="-275" font-family="Helvetica,sans-Serif" font-size="10.00">+</text>
<text xml:space="preserve" text-anchor="start" x="357.25" y="-275" font-family="Helvetica,sans-Serif" font-size="10.00">FoliatedTriangulation()</text>
<text xml:space="preserve" text-anchor="start" x="344.5" y="-258.25" font-family="Helvetica,sans-Serif" font-size="10.00">+</text>
<text xml:space="preserve" text-anchor="start" x="357.25" y="-258.25" font-family="Helvetica,sans-Serif" font-size="10.00">FoliatedTriangulation()</text>
<text xml:space="preserve" text-anchor="start" x="344.5" y="-241.5" font-family="Helvetica,sans-Serif" font-size="10.00">+</text>
<text xml:space="preserve" text-anchor="start" x="357.25" y="-241.5" font-family="Helvetica,sans-Serif" font-size="10.00">FoliatedTriangulation()</text>
<text xml:space="preserve" text-anchor="start" x="344.5" y="-224.75" font-family="Helvetica,sans-Serif" font-size="10.00">+</text>
<text xml:space="preserve" text-anchor="start" x="357.25" y="-224.75" font-family="Helvetica,sans-Serif" font-size="10.00">FoliatedTriangulation()</text>
<text xml:space="preserve" text-anchor="start" x="344.5" y="-208" font-family="Helvetica,sans-Serif" font-size="10.00">+</text>
<text xml:space="preserve" text-anchor="start" x="357.25" y="-208" font-family="Helvetica,sans-Serif" font-size="10.00">FoliatedTriangulation()</text>
<text xml:space="preserve" text-anchor="start" x="344.5" y="-191.25" font-family="Helvetica,sans-Serif" font-size="10.00">+</text>
<text xml:space="preserve" text-anchor="start" x="357.25" y="-191.25" font-family="Helvetica,sans-Serif" font-size="10.00">FoliatedTriangulation()</text>
<text xml:space="preserve" text-anchor="start" x="344.5" y="-174.5" font-family="Helvetica,sans-Serif" font-size="10.00">+</text>
<text xml:space="preserve" text-anchor="start" x="357.25" y="-174.5" font-family="Helvetica,sans-Serif" font-size="10.00">FoliatedTriangulation()</text>
<text xml:space="preserve" text-anchor="start" x="344.5" y="-157.75" font-family="Helvetica,sans-Serif" font-size="10.00">+</text>
<text xml:space="preserve" text-anchor="start" x="357.25" y="-157.75" font-family="Helvetica,sans-Serif" font-size="10.00">~FoliatedTriangulation()</text>
<text xml:space="preserve" text-anchor="start" x="344.5" y="-141" font-family="Helvetica,sans-Serif" font-size="10.00">+</text>
<text xml:space="preserve" text-anchor="start" x="357.25" y="-141" font-family="Helvetica,sans-Serif" font-size="10.00">check_all_cells()</text>
<text xml:space="preserve" text-anchor="start" x="344.5" y="-124.25" font-family="Helvetica,sans-Serif" font-size="10.00">+</text>
<text xml:space="preserve" text-anchor="start" x="357.25" y="-124.25" font-family="Helvetica,sans-Serif" font-size="10.00">check_all_vertices()</text>
<text xml:space="preserve" text-anchor="start" x="357.25" y="-107.5" font-family="Helvetica,sans-Serif" font-size="10.00">and 35 more...</text>
<text xml:space="preserve" text-anchor="start" x="346.75" y="-90.75" font-family="Helvetica,sans-Serif" font-size="10.00">&#45;</text>
<text xml:space="preserve" text-anchor="start" x="357.25" y="-90.75" font-family="Helvetica,sans-Serif" font-size="10.00">classify_cells()</text>
<text xml:space="preserve" text-anchor="start" x="346.75" y="-74" font-family="Helvetica,sans-Serif" font-size="10.00">&#45;</text>
<text xml:space="preserve" text-anchor="start" x="357.25" y="-74" font-family="Helvetica,sans-Serif" font-size="10.00">classify_vertices()</text>
<text xml:space="preserve" text-anchor="start" x="346.75" y="-57.25" font-family="Helvetica,sans-Serif" font-size="10.00">&#45;</text>
<text xml:space="preserve" text-anchor="start" x="357.25" y="-57.25" font-family="Helvetica,sans-Serif" font-size="10.00">collect_edges()</text>
<text xml:space="preserve" text-anchor="start" x="346.75" y="-40.5" font-family="Helvetica,sans-Serif" font-size="10.00">&#45;</text>
<text xml:space="preserve" text-anchor="start" x="357.25" y="-40.5" font-family="Helvetica,sans-Serif" font-size="10.00">collect_faces()</text>
<text xml:space="preserve" text-anchor="start" x="346.75" y="-23.75" font-family="Helvetica,sans-Serif" font-size="10.00">&#45;</text>
<text xml:space="preserve" text-anchor="start" x="357.25" y="-23.75" font-family="Helvetica,sans-Serif" font-size="10.00">cache_spacelike_facets()</text>
<text xml:space="preserve" text-anchor="start" x="346.75" y="-7" font-family="Helvetica,sans-Serif" font-size="10.00">&#45;</text>
<text xml:space="preserve" text-anchor="start" x="357.25" y="-7" font-family="Helvetica,sans-Serif" font-size="10.00">require_nonempty()</text>
<polygon fill="#666666" stroke="#666666" points="340,-370.5 340,-370.5 484.5,-370.5 484.5,-370.5 340,-370.5"/>
<polygon fill="#666666" stroke="#666666" points="340,-286.75 340,-286.75 355.25,-286.75 355.25,-286.75 340,-286.75"/>
<polygon fill="#666666" stroke="#666666" points="355.25,-286.75 355.25,-286.75 484.5,-286.75 484.5,-286.75 355.25,-286.75"/>
<polygon fill="none" stroke="#666666" points="340,0 340,-402 484.5,-402 484.5,0 340,0"/>
</a>
</g>
</g>
<!-- Node2 -->
<g id="Node000002" class="node">
<title>Node2</title>
<g id="a_Node000002"><a xlink:title=" ">
<polygon fill="white" stroke="none" points="102.5,-580.38 0,-580.38 0,-513.38 102.5,-513.38 102.5,-580.38"/>
<text xml:space="preserve" text-anchor="start" x="4" y="-566.62" font-family="Helvetica,sans-Serif" font-size="10.00">std::vector&lt; Vertex</text>
<text xml:space="preserve" text-anchor="start" x="26.5" y="-553.88" font-family="Helvetica,sans-Serif" font-size="10.00">_handle &gt;</text>
<text xml:space="preserve" text-anchor="start" x="13.12" y="-537.12" font-family="Helvetica,sans-Serif" font-size="10.00">+</text>
<text xml:space="preserve" text-anchor="start" x="34.5" y="-537.12" font-family="Helvetica,sans-Serif" font-size="10.00">elements</text>
<text xml:space="preserve" text-anchor="start" x="49.75" y="-520.38" font-family="Helvetica,sans-Serif" font-size="10.00"> </text>
<polygon fill="#666666" stroke="#666666" points="0,-548.88 0,-548.88 102.5,-548.88 102.5,-548.88 0,-548.88"/>
<polygon fill="#666666" stroke="#666666" points="0,-532.12 0,-532.12 32.5,-532.12 32.5,-532.12 0,-532.12"/>
<polygon fill="#666666" stroke="#666666" points="32.5,-532.12 32.5,-532.12 102.5,-532.12 102.5,-532.12 32.5,-532.12"/>
<polygon fill="none" stroke="#666666" points="0,-513.38 0,-580.38 102.5,-580.38 102.5,-513.38 0,-513.38"/>
</a>
</g>
</g>
<!-- Node2&#45;&gt;Node1 -->
<g id="edge1_Node000001_Node000002" class="edge">
<title>Node2&#45;&gt;Node1</title>
<g id="a_edge1_Node000001_Node000002"><a xlink:title=" ">
<path fill="none" stroke="#63b8ff" d="M76.91,-513.42C98.1,-487.29 129.46,-450.08 159.5,-420 213.62,-365.8 279.24,-309.45 330.05,-267.62"/>
<polygon fill="none" stroke="#63b8ff" points="330.04,-267.63 332.14,-260.73 339.32,-260.02 337.21,-266.92 330.04,-267.63"/>
</a>
</g>
<text xml:space="preserve" text-anchor="start" x="162.5" y="-451.12" font-family="Helvetica,sans-Serif" font-size="10.00" fill="grey">&#45;m_vertices</text>
</g>
<!-- Node3 -->
<g id="Node000003" class="node">
<title>Node3</title>
<g id="a_Node000003"><a xlink:title=" ">
<polygon fill="white" stroke="none" points="375.38,-695.75 287.12,-695.75 287.12,-641.5 375.38,-641.5 375.38,-695.75"/>
<text xml:space="preserve" text-anchor="start" x="291.12" y="-682" font-family="Helvetica,sans-Serif" font-size="10.00">std::vector&lt; T &gt;</text>
<text xml:space="preserve" text-anchor="start" x="329.75" y="-665.25" font-family="Helvetica,sans-Serif" font-size="10.00"> </text>
<text xml:space="preserve" text-anchor="start" x="329.75" y="-648.5" font-family="Helvetica,sans-Serif" font-size="10.00"> </text>
<polygon fill="#666666" stroke="#666666" points="287.12,-677 287.12,-677 375.38,-677 375.38,-677 287.12,-677"/>
<polygon fill="#666666" stroke="#666666" points="287.12,-660.25 287.12,-660.25 375.38,-660.25 375.38,-660.25 287.12,-660.25"/>
<polygon fill="none" stroke="#666666" points="287.12,-641.5 287.12,-695.75 375.38,-695.75 375.38,-641.5 287.12,-641.5"/>
</a>
</g>
</g>
<!-- Node3&#45;&gt;Node2 -->
<g id="edge2_Node000002_Node000003" class="edge">
<title>Node3&#45;&gt;Node2</title>
<g id="a_edge2_Node000002_Node000003"><a xlink:title=" ">
<path fill="none" stroke="orange" d="M275.91,-665.04C231.76,-660.92 169.65,-650.36 122,-623.5 103.2,-612.91 86.48,-595.63 74.02,-580.26"/>
<polygon fill="orange" stroke="orange" points="275.52,-668.52 285.78,-665.87 276.11,-661.55 275.52,-668.52"/>
</a>
</g>
<text xml:space="preserve" text-anchor="start" x="125" y="-610.75" font-family="Helvetica,sans-Serif" font-size="10.00" fill="grey">&lt; Vertex_handle &gt;</text>
</g>
<!-- Node5 -->
<g id="Node000005" class="node">
<title>Node5</title>
<g id="a_Node000005"><a xlink:title=" ">
<polygon fill="white" stroke="none" points="259.88,-574 120.62,-574 120.62,-519.75 259.88,-519.75 259.88,-574"/>
<text xml:space="preserve" text-anchor="start" x="124.62" y="-560.25" font-family="Helvetica,sans-Serif" font-size="10.00">std::vector&lt; Cell_handle &gt;</text>
<text xml:space="preserve" text-anchor="start" x="142.94" y="-543.5" font-family="Helvetica,sans-Serif" font-size="10.00">+</text>
<text xml:space="preserve" text-anchor="start" x="173.5" y="-543.5" font-family="Helvetica,sans-Serif" font-size="10.00">elements</text>
<text xml:space="preserve" text-anchor="start" x="188.75" y="-526.75" font-family="Helvetica,sans-Serif" font-size="10.00"> </text>
<polygon fill="#666666" stroke="#666666" points="120.62,-555.25 120.62,-555.25 259.88,-555.25 259.88,-555.25 120.62,-555.25"/>
<polygon fill="#666666" stroke="#666666" points="120.62,-538.5 120.62,-538.5 171.5,-538.5 171.5,-538.5 120.62,-538.5"/>
<polygon fill="#666666" stroke="#666666" points="171.5,-538.5 171.5,-538.5 259.88,-538.5 259.88,-538.5 171.5,-538.5"/>
<polygon fill="none" stroke="#666666" points="120.62,-519.75 120.62,-574 259.88,-574 259.88,-519.75 120.62,-519.75"/>
</a>
</g>
</g>
<!-- Node3&#45;&gt;Node5 -->
<g id="edge5_Node000005_Node000003" class="edge">
<title>Node3&#45;&gt;Node5</title>
<g id="a_edge5_Node000005_Node000003"><a xlink:title=" ">
<path fill="none" stroke="orange" d="M277.19,-646.55C264.77,-640.25 252.17,-632.56 241.75,-623.5 225.8,-609.64 212.53,-589.77 203.45,-573.88"/>
<polygon fill="orange" stroke="orange" points="275.64,-649.69 286.17,-650.86 278.67,-643.38 275.64,-649.69"/>
</a>
</g>
<text xml:space="preserve" text-anchor="start" x="244.75" y="-610.75" font-family="Helvetica,sans-Serif" font-size="10.00" fill="grey">&lt; Cell_handle &gt;</text>
</g>
<!-- Node6 -->
<g id="Node000006" class="node">
<title>Node6</title>
<g id="a_Node000006"><a xlink:title=" ">
<polygon fill="white" stroke="none" points="408.75,-580.38 277.75,-580.38 277.75,-513.38 408.75,-513.38 408.75,-580.38"/>
<text xml:space="preserve" text-anchor="start" x="281.75" y="-566.62" font-family="Helvetica,sans-Serif" font-size="10.00">std::vector&lt; Face_handle</text>
<text xml:space="preserve" text-anchor="start" x="318.88" y="-553.88" font-family="Helvetica,sans-Serif" font-size="10.00">_t&lt; 3 &gt; &gt;</text>
<text xml:space="preserve" text-anchor="start" x="298" y="-537.12" font-family="Helvetica,sans-Serif" font-size="10.00">+</text>
<text xml:space="preserve" text-anchor="start" x="326.5" y="-537.12" font-family="Helvetica,sans-Serif" font-size="10.00">elements</text>
<text xml:space="preserve" text-anchor="start" x="341.75" y="-520.38" font-family="Helvetica,sans-Serif" font-size="10.00"> </text>
<polygon fill="#666666" stroke="#666666" points="277.75,-548.88 277.75,-548.88 408.75,-548.88 408.75,-548.88 277.75,-548.88"/>
<polygon fill="#666666" stroke="#666666" points="277.75,-532.12 277.75,-532.12 324.5,-532.12 324.5,-532.12 277.75,-532.12"/>
<polygon fill="#666666" stroke="#666666" points="324.5,-532.12 324.5,-532.12 408.75,-532.12 408.75,-532.12 324.5,-532.12"/>
<polygon fill="none" stroke="#666666" points="277.75,-513.38 277.75,-580.38 408.75,-580.38 408.75,-513.38 277.75,-513.38"/>
</a>
</g>
</g>
<!-- Node3&#45;&gt;Node6 -->
<g id="edge7_Node000006_Node000003" class="edge">
<title>Node3&#45;&gt;Node6</title>
<g id="a_edge7_Node000006_Node000003"><a xlink:title=" ">
<path fill="none" stroke="orange" d="M330.77,-630.14C330.96,-621.77 331.4,-612.94 332.25,-604.75 333.08,-596.75 334.47,-588.19 335.98,-580.21"/>
<polygon fill="orange" stroke="orange" points="327.27,-630.01 330.66,-640.05 334.27,-630.09 327.27,-630.01"/>
</a>
</g>
<text xml:space="preserve" text-anchor="start" x="335.25" y="-610.75" font-family="Helvetica,sans-Serif" font-size="10.00" fill="grey">&lt; Face_handle_t&lt; 3 &gt; &gt;</text>
</g>
<!-- Node7 -->
<g id="Node000007" class="node">
<title>Node7</title>
<g id="a_Node000007"><a xlink:title=" ">
<polygon fill="white" stroke="none" points="534.12,-580.38 426.38,-580.38 426.38,-513.38 534.12,-513.38 534.12,-580.38"/>
<text xml:space="preserve" text-anchor="start" x="430.38" y="-566.62" font-family="Helvetica,sans-Serif" font-size="10.00">std::vector&lt; Volume</text>
<text xml:space="preserve" text-anchor="start" x="459.25" y="-553.88" font-family="Helvetica,sans-Serif" font-size="10.00">_entry &gt;</text>
<text xml:space="preserve" text-anchor="start" x="440.81" y="-537.12" font-family="Helvetica,sans-Serif" font-size="10.00">+</text>
<text xml:space="preserve" text-anchor="start" x="463.5" y="-537.12" font-family="Helvetica,sans-Serif" font-size="10.00">elements</text>
<text xml:space="preserve" text-anchor="start" x="478.75" y="-520.38" font-family="Helvetica,sans-Serif" font-size="10.00"> </text>
<polygon fill="#666666" stroke="#666666" points="426.38,-548.88 426.38,-548.88 534.12,-548.88 534.12,-548.88 426.38,-548.88"/>
<polygon fill="#666666" stroke="#666666" points="426.38,-532.12 426.38,-532.12 461.5,-532.12 461.5,-532.12 426.38,-532.12"/>
<polygon fill="#666666" stroke="#666666" points="461.5,-532.12 461.5,-532.12 534.12,-532.12 534.12,-532.12 461.5,-532.12"/>
<polygon fill="none" stroke="#666666" points="426.38,-513.38 426.38,-580.38 534.12,-580.38 534.12,-513.38 426.38,-513.38"/>
</a>
</g>
</g>
<!-- Node3&#45;&gt;Node7 -->
<g id="edge9_Node000007_Node000003" class="edge">
<title>Node3&#45;&gt;Node7</title>
<g id="a_edge9_Node000007_Node000003"><a xlink:title=" ">
<path fill="none" stroke="orange" d="M386.51,-660.18C411.47,-654.15 439.5,-643.24 458.25,-623.5 469.27,-611.9 474.81,-595.11 477.58,-580.29"/>
<polygon fill="orange" stroke="orange" points="385.81,-656.75 376.78,-662.3 387.3,-663.59 385.81,-656.75"/>
</a>
</g>
<text xml:space="preserve" text-anchor="start" x="472.8" y="-610.75" font-family="Helvetica,sans-Serif" font-size="10.00" fill="grey">&lt; Volume_entry &gt;</text>
</g>
<!-- Node8 -->
<g id="Node000008" class="node">
<title>Node8</title>
<g id="a_Node000008"><a xlink:title=" ">
<polygon fill="white" stroke="none" points="685.88,-580.38 552.62,-580.38 552.62,-513.38 685.88,-513.38 685.88,-580.38"/>
<text xml:space="preserve" text-anchor="start" x="556.62" y="-566.62" font-family="Helvetica,sans-Serif" font-size="10.00">std::vector&lt; Edge_handle</text>
<text xml:space="preserve" text-anchor="start" x="594.88" y="-553.88" font-family="Helvetica,sans-Serif" font-size="10.00">_t&lt; 3 &gt; &gt;</text>
<text xml:space="preserve" text-anchor="start" x="573.44" y="-537.12" font-family="Helvetica,sans-Serif" font-size="10.00">+</text>
<text xml:space="preserve" text-anchor="start" x="602.5" y="-537.12" font-family="Helvetica,sans-Serif" font-size="10.00">elements</text>
<text xml:space="preserve" text-anchor="start" x="617.75" y="-520.38" font-family="Helvetica,sans-Serif" font-size="10.00"> </text>
<polygon fill="#666666" stroke="#666666" points="552.62,-548.88 552.62,-548.88 685.88,-548.88 685.88,-548.88 552.62,-548.88"/>
<polygon fill="#666666" stroke="#666666" points="552.62,-532.12 552.62,-532.12 600.5,-532.12 600.5,-532.12 552.62,-532.12"/>
<polygon fill="#666666" stroke="#666666" points="600.5,-532.12 600.5,-532.12 685.88,-532.12 685.88,-532.12 600.5,-532.12"/>
<polygon fill="none" stroke="#666666" points="552.62,-513.38 552.62,-580.38 685.88,-580.38 685.88,-513.38 552.62,-513.38"/>
</a>
</g>
</g>
<!-- Node3&#45;&gt;Node8 -->
<g id="edge11_Node000008_Node000003" class="edge">
<title>Node3&#45;&gt;Node8</title>
<g id="a_edge11_Node000008_Node000003"><a xlink:title=" ">
<path fill="none" stroke="orange" d="M386.7,-662.49C447.67,-655.96 540.88,-643.13 570.25,-623.5 585.99,-612.98 597.8,-595.51 605.87,-580.01"/>
<polygon fill="orange" stroke="orange" points="386.43,-659 376.85,-663.51 387.16,-665.96 386.43,-659"/>
</a>
</g>
<text xml:space="preserve" text-anchor="start" x="592.69" y="-610.75" font-family="Helvetica,sans-Serif" font-size="10.00" fill="grey">&lt; Edge_handle_t&lt; 3 &gt; &gt;</text>
</g>
<!-- Node4 -->
<g id="Node000004" class="node">
<title>Node4</title>
<g id="a_Node000004"><a xlink:title=" ">
<polygon fill="white" stroke="none" points="338.25,-804.75 324.25,-804.75 324.25,-750.5 338.25,-750.5 338.25,-804.75"/>
<text xml:space="preserve" text-anchor="start" x="328.25" y="-791" font-family="Helvetica,sans-Serif" font-size="10.00">T</text>
<text xml:space="preserve" text-anchor="start" x="329.75" y="-774.25" font-family="Helvetica,sans-Serif" font-size="10.00"> </text>
<text xml:space="preserve" text-anchor="start" x="329.75" y="-757.5" font-family="Helvetica,sans-Serif" font-size="10.00"> </text>
<polygon fill="#bfbfbf" stroke="#bfbfbf" points="324.25,-786 324.25,-786 338.25,-786 338.25,-786 324.25,-786"/>
<polygon fill="#bfbfbf" stroke="#bfbfbf" points="324.25,-769.25 324.25,-769.25 338.25,-769.25 338.25,-769.25 324.25,-769.25"/>
<polygon fill="none" stroke="#bfbfbf" points="324.25,-750.5 324.25,-804.75 338.25,-804.75 338.25,-750.5 324.25,-750.5"/>
</a>
</g>
</g>
<!-- Node4&#45;&gt;Node3 -->
<g id="edge3_Node000003_Node000004" class="edge">
<title>Node4&#45;&gt;Node3</title>
<g id="a_edge3_Node000003_Node000004"><a xlink:title=" ">
<path fill="none" stroke="#63b8ff" d="M331.25,-750.72C331.25,-738.07 331.25,-722.58 331.25,-708.54"/>
<polygon fill="none" stroke="#63b8ff" points="331.25,-708.56 327.25,-702.56 331.25,-696.56 335.25,-702.56 331.25,-708.56"/>
</a>
</g>
<text xml:space="preserve" text-anchor="start" x="334.25" y="-719.75" font-family="Helvetica,sans-Serif" font-size="10.00" fill="grey">+elements</text>
</g>
<!-- Node5&#45;&gt;Node1 -->
<g id="edge4_Node000001_Node000005" class="edge">
<title>Node5&#45;&gt;Node1</title>
<g id="a_edge4_Node000001_Node000005"><a xlink:title=" ">
<path fill="none" stroke="#63b8ff" d="M206.94,-520.03C233.55,-478.8 287.29,-395.56 333.11,-324.58"/>
<polygon fill="none" stroke="#63b8ff" points="333.11,-324.59 333,-317.38 339.62,-314.51 339.72,-321.72 333.11,-324.59"/>
</a>
</g>
<text xml:space="preserve" text-anchor="start" x="271.39" y="-476.25" font-family="Helvetica,sans-Serif" font-size="10.00" fill="grey">&#45;m_cells</text>
<text xml:space="preserve" text-anchor="start" x="271.39" y="-459.5" font-family="Helvetica,sans-Serif" font-size="10.00" fill="grey">&#45;m_one_three</text>
<text xml:space="preserve" text-anchor="start" x="271.39" y="-442.75" font-family="Helvetica,sans-Serif" font-size="10.00" fill="grey">&#45;m_three_one</text>
<text xml:space="preserve" text-anchor="start" x="271.39" y="-426" font-family="Helvetica,sans-Serif" font-size="10.00" fill="grey">&#45;m_two_two</text>
</g>
<!-- Node6&#45;&gt;Node1 -->
<g id="edge6_Node000001_Node000006" class="edge">
<title>Node6&#45;&gt;Node1</title>
<g id="a_edge6_Node000001_Node000006"><a xlink:title=" ">
<path fill="none" stroke="#63b8ff" d="M349.74,-513.52C354.65,-489.08 361.84,-453.21 369.63,-414.41"/>
<polygon fill="none" stroke="#63b8ff" points="369.64,-414.38 366.89,-407.71 372,-402.61 374.74,-409.28 369.64,-414.38"/>
</a>
</g>
<text xml:space="preserve" text-anchor="start" x="370.54" y="-451.12" font-family="Helvetica,sans-Serif" font-size="10.00" fill="grey">&#45;m_faces</text>
</g>
<!-- Node7&#45;&gt;Node1 -->
<g id="edge8_Node000001_Node000007" class="edge">
<title>Node7&#45;&gt;Node1</title>
<g id="a_edge8_Node000001_Node000007"><a xlink:title=" ">
<path fill="none" stroke="#63b8ff" d="M473.85,-513.52C469.02,-489.08 461.92,-453.21 454.25,-414.41"/>
<polygon fill="none" stroke="#63b8ff" points="454.25,-414.38 449.16,-409.27 451.92,-402.61 457.01,-407.72 454.25,-414.38"/>
</a>
</g>
<text xml:space="preserve" text-anchor="start" x="471.85" y="-451.12" font-family="Helvetica,sans-Serif" font-size="10.00" fill="grey">&#45;m_spacelike_facets</text>
</g>
<!-- Node8&#45;&gt;Node1 -->
<g id="edge10_Node000001_Node000008" class="edge">
<title>Node8&#45;&gt;Node1</title>
<g id="a_edge10_Node000001_Node000008"><a xlink:title=" ">
<path fill="none" stroke="#63b8ff" d="M611.55,-513.41C604.62,-487.27 593.09,-450.06 577.25,-420 553.94,-375.77 521.88,-331.03 492.21,-293.68"/>
<polygon fill="none" stroke="#63b8ff" points="492.4,-293.92 485.52,-291.74 484.89,-284.56 491.76,-286.73 492.4,-293.92"/>
</a>
</g>
<text xml:space="preserve" text-anchor="start" x="606.91" y="-467.88" font-family="Helvetica,sans-Serif" font-size="10.00" fill="grey">&#45;m_edges</text>
<text xml:space="preserve" text-anchor="start" x="606.91" y="-451.12" font-family="Helvetica,sans-Serif" font-size="10.00" fill="grey">&#45;m_spacelike_edges</text>
<text xml:space="preserve" text-anchor="start" x="606.91" y="-434.38" font-family="Helvetica,sans-Serif" font-size="10.00" fill="grey">&#45;m_timelike_edges</text>
</g>
<!-- Node9 -->
<g id="Node000009" class="node">
<title>Node9</title>
<g id="a_Node000009"><a xlink:href="classcdt_1_1foliated__triangulations_1_1_foliated_triangulation.html" target="_top" xlink:title=" ">
<polygon fill="white" stroke="none" points="842.88,-586.75 703.62,-586.75 703.62,-507 842.88,-507 842.88,-586.75"/>
<text xml:space="preserve" text-anchor="start" x="707.62" y="-573" font-family="Helvetica,sans-Serif" font-size="10.00">cdt::foliated_triangulations</text>
<text xml:space="preserve" text-anchor="start" x="707.62" y="-560.25" font-family="Helvetica,sans-Serif" font-size="10.00">::FoliatedTriangulation&lt;</text>
<text xml:space="preserve" text-anchor="start" x="740.62" y="-547.5" font-family="Helvetica,sans-Serif" font-size="10.00"> dimension &gt;</text>
<text xml:space="preserve" text-anchor="start" x="771.75" y="-530.75" font-family="Helvetica,sans-Serif" font-size="10.00"> </text>
<text xml:space="preserve" text-anchor="start" x="771.75" y="-514" font-family="Helvetica,sans-Serif" font-size="10.00"> </text>
<polygon fill="#666666" stroke="#666666" points="703.62,-542.5 703.62,-542.5 842.88,-542.5 842.88,-542.5 703.62,-542.5"/>
<polygon fill="#666666" stroke="#666666" points="703.62,-525.75 703.62,-525.75 842.88,-525.75 842.88,-525.75 703.62,-525.75"/>
<polygon fill="none" stroke="#666666" points="703.62,-507 703.62,-586.75 842.88,-586.75 842.88,-507 703.62,-507"/>
</a>
</g>
</g>
<!-- Node9&#45;&gt;Node1 -->
<g id="edge12_Node000001_Node000009" class="edge">
<title>Node9&#45;&gt;Node1</title>
<g id="a_edge12_Node000001_Node000009"><a xlink:title=" ">
<path fill="none" stroke="orange" d="M756.45,-496.61C746.44,-471.9 732.01,-442.53 713.25,-420 648.74,-342.53 550.84,-278.41 484.35,-240.21"/>
<polygon fill="orange" stroke="orange" points="753.15,-497.78 760.05,-505.82 759.67,-495.24 753.15,-497.78"/>
</a>
</g>
<text xml:space="preserve" text-anchor="start" x="755.92" y="-451.12" font-family="Helvetica,sans-Serif" font-size="10.00" fill="grey">&lt; 3 &gt;</text>
</g>
</g>
</svg>
