<?xml version="1.0" encoding="UTF-8" standalone="no"?>
<!DOCTYPE svg PUBLIC "-//W3C//DTD SVG 1.1//EN"
 "http://www.w3.org/Graphics/SVG/1.1/DTD/svg11.dtd">
<!-- Generated by graphviz version 2.40.1 (20161225.0304)
 -->
<!-- Title: Manifold&lt; 3 &gt; Pages: 1 -->
<svg width="764pt" height="1091pt"
 viewBox="0.00 0.00 763.50 1091.00" xmlns="http://www.w3.org/2000/svg" xmlns:xlink="http://www.w3.org/1999/xlink">
<g id="graph0" class="graph" transform="scale(1 1) rotate(0) translate(4 1087)">
<title>Manifold&lt; 3 &gt;</title>
<polygon fill="#ffffff" stroke="transparent" points="-4,4 -4,-1087 759.5,-1087 759.5,4 -4,4"/>
<!-- Node1 -->
<g id="node1" class="node">
<title>Node1</title>
<polygon fill="#bfbfbf" stroke="#000000" points="202.5,-.5 202.5,-233.5 360.5,-233.5 360.5,-.5 202.5,-.5"/>
<text text-anchor="middle" x="281.5" y="-221.5" font-family="Helvetica,sans-Serif" font-size="10.00" fill="#000000">Manifold&lt; 3 &gt;</text>
<polyline fill="none" stroke="#000000" points="202.5,-214.5 360.5,-214.5 "/>
<text text-anchor="middle" x="281.5" y="-202.5" font-family="Helvetica,sans-Serif" font-size="10.00" fill="#000000"> </text>
<polyline fill="none" stroke="#000000" points="202.5,-195.5 360.5,-195.5 "/>
<text text-anchor="start" x="210.5" y="-183.5" font-family="Helvetica,sans-Serif" font-size="10.00" fill="#000000">+ Manifold()</text>
<text text-anchor="start" x="210.5" y="-172.5" font-family="Helvetica,sans-Serif" font-size="10.00" fill="#000000">+ Manifold()</text>
<text text-anchor="start" x="210.5" y="-161.5" font-family="Helvetica,sans-Serif" font-size="10.00" fill="#000000">+ Manifold()</text>
<text text-anchor="start" x="210.5" y="-150.5" font-family="Helvetica,sans-Serif" font-size="10.00" fill="#000000">+ Manifold()</text>
<text text-anchor="start" x="210.5" y="-139.5" font-family="Helvetica,sans-Serif" font-size="10.00" fill="#000000">+ Manifold()</text>
<text text-anchor="start" x="210.5" y="-128.5" font-family="Helvetica,sans-Serif" font-size="10.00" fill="#000000">+ Manifold()</text>
<text text-anchor="start" x="210.5" y="-117.5" font-family="Helvetica,sans-Serif" font-size="10.00" fill="#000000">+ ~Manifold()</text>
<text text-anchor="start" x="210.5" y="-106.5" font-family="Helvetica,sans-Serif" font-size="10.00" fill="#000000">+ are_all_vertex_timevalues</text>
<text text-anchor="start" x="210.5" y="-95.5" font-family="Helvetica,sans-Serif" font-size="10.00" fill="#000000">_valid()</text>
<text text-anchor="start" x="210.5" y="-84.5" font-family="Helvetica,sans-Serif" font-size="10.00" fill="#000000">+ are_vertex_timevalues</text>
<text text-anchor="start" x="210.5" y="-73.5" font-family="Helvetica,sans-Serif" font-size="10.00" fill="#000000">_valid()</text>
<text text-anchor="start" x="210.5" y="-62.5" font-family="Helvetica,sans-Serif" font-size="10.00" fill="#000000">+ check_simplices()</text>
<text text-anchor="start" x="210.5" y="-51.5" font-family="Helvetica,sans-Serif" font-size="10.00" fill="#000000">and 36 more...</text>
<text text-anchor="start" x="210.5" y="-40.5" font-family="Helvetica,sans-Serif" font-size="10.00" fill="#000000">+ are_simplex_types_valid()</text>
<text text-anchor="start" x="210.5" y="-29.5" font-family="Helvetica,sans-Serif" font-size="10.00" fill="#000000">+ get_vertices_from_cells()</text>
<text text-anchor="start" x="210.5" y="-18.5" font-family="Helvetica,sans-Serif" font-size="10.00" fill="#000000">&#45; update_geometry()</text>
<text text-anchor="start" x="210.5" y="-7.5" font-family="Helvetica,sans-Serif" font-size="10.00" fill="#000000">&#45; update_triangulation()</text>
</g>
<!-- Node2 -->
<g id="node2" class="node">
<title>Node2</title>
<g id="a_node2"><a xlink:href="struct_geometry_3_013_01_4.html" target="_top" xlink:title="3D Geometry ">
<polygon fill="#ffffff" stroke="#000000" points="188.5,-413.5 188.5,-580.5 282.5,-580.5 282.5,-413.5 188.5,-413.5"/>
<text text-anchor="middle" x="235.5" y="-568.5" font-family="Helvetica,sans-Serif" font-size="10.00" fill="#000000">Geometry&lt; 3 &gt;</text>
<polyline fill="none" stroke="#000000" points="188.5,-561.5 282.5,-561.5 "/>
<text text-anchor="start" x="196.5" y="-549.5" font-family="Helvetica,sans-Serif" font-size="10.00" fill="#000000">+ N0</text>
<text text-anchor="start" x="196.5" y="-538.5" font-family="Helvetica,sans-Serif" font-size="10.00" fill="#000000">+ N1</text>
<text text-anchor="start" x="196.5" y="-527.5" font-family="Helvetica,sans-Serif" font-size="10.00" fill="#000000">+ N1_SL</text>
<text text-anchor="start" x="196.5" y="-516.5" font-family="Helvetica,sans-Serif" font-size="10.00" fill="#000000">+ N1_TL</text>
<text text-anchor="start" x="196.5" y="-505.5" font-family="Helvetica,sans-Serif" font-size="10.00" fill="#000000">+ N2</text>
<text text-anchor="start" x="196.5" y="-494.5" font-family="Helvetica,sans-Serif" font-size="10.00" fill="#000000">+ N3</text>
<text text-anchor="start" x="196.5" y="-483.5" font-family="Helvetica,sans-Serif" font-size="10.00" fill="#000000">+ N3_13</text>
<text text-anchor="start" x="196.5" y="-472.5" font-family="Helvetica,sans-Serif" font-size="10.00" fill="#000000">+ N3_22</text>
<text text-anchor="start" x="196.5" y="-461.5" font-family="Helvetica,sans-Serif" font-size="10.00" fill="#000000">+ N3_31</text>
<text text-anchor="start" x="196.5" y="-450.5" font-family="Helvetica,sans-Serif" font-size="10.00" fill="#000000">+ N3_31_13</text>
<polyline fill="none" stroke="#000000" points="188.5,-443.5 282.5,-443.5 "/>
<text text-anchor="start" x="196.5" y="-431.5" font-family="Helvetica,sans-Serif" font-size="10.00" fill="#000000">+ Geometry()</text>
<text text-anchor="start" x="196.5" y="-420.5" font-family="Helvetica,sans-Serif" font-size="10.00" fill="#000000">+ Geometry()</text>
</a>
</g>
</g>
<!-- Node2&#45;&gt;Node1 -->
<g id="edge1" class="edge">
<title>Node2&#45;&gt;Node1</title>
<path fill="none" stroke="#404040" d="M242.3723,-413.2212C246.5946,-365.8228 252.527,-305.5047 259.5,-252 259.769,-249.9359 260.0454,-247.8549 260.3283,-245.7605"/>
<polygon fill="none" stroke="#404040" points="260.3603,-245.53 257.2257,-239.0358 262.0146,-233.6445 265.1493,-240.1387 260.3603,-245.53"/>
<text text-anchor="middle" x="294.5" y="-255" font-family="Helvetica,sans-Serif" font-size="10.00" fill="#000000"> &#45;m_geometry</text>
</g>
<!-- Node3 -->
<g id="node3" class="node">
<title>Node3</title>
<g id="a_node3"><a xlink:href="class_foliated_triangulation_3_013_01_4.html" target="_top" xlink:title="3D Triangulation ">
<polygon fill="#ffffff" stroke="#000000" points="301,-281.5 301,-712.5 448,-712.5 448,-281.5 301,-281.5"/>
<text text-anchor="middle" x="374.5" y="-700.5" font-family="Helvetica,sans-Serif" font-size="10.00" fill="#000000">FoliatedTriangulation&lt; 3 &gt;</text>
<polyline fill="none" stroke="#000000" points="301,-693.5 448,-693.5 "/>
<text text-anchor="start" x="309" y="-681.5" font-family="Helvetica,sans-Serif" font-size="10.00" fill="#000000">&#45; m_foliation_spacing</text>
<text text-anchor="start" x="309" y="-670.5" font-family="Helvetica,sans-Serif" font-size="10.00" fill="#000000">&#45; m_initial_radius</text>
<text text-anchor="start" x="309" y="-659.5" font-family="Helvetica,sans-Serif" font-size="10.00" fill="#000000">&#45; m_max_timevalue</text>
<text text-anchor="start" x="309" y="-648.5" font-family="Helvetica,sans-Serif" font-size="10.00" fill="#000000">&#45; m_min_timevalue</text>
<text text-anchor="start" x="309" y="-637.5" font-family="Helvetica,sans-Serif" font-size="10.00" fill="#000000">&#45; m_triangulation</text>
<polyline fill="none" stroke="#000000" points="301,-630.5 448,-630.5 "/>
<text text-anchor="start" x="309" y="-618.5" font-family="Helvetica,sans-Serif" font-size="10.00" fill="#000000">+ FoliatedTriangulation()</text>
<text text-anchor="start" x="309" y="-607.5" font-family="Helvetica,sans-Serif" font-size="10.00" fill="#000000">+ FoliatedTriangulation()</text>
<text text-anchor="start" x="309" y="-596.5" font-family="Helvetica,sans-Serif" font-size="10.00" fill="#000000">+ FoliatedTriangulation()</text>
<text text-anchor="start" x="309" y="-585.5" font-family="Helvetica,sans-Serif" font-size="10.00" fill="#000000">+ FoliatedTriangulation()</text>
<text text-anchor="start" x="309" y="-574.5" font-family="Helvetica,sans-Serif" font-size="10.00" fill="#000000">+ FoliatedTriangulation()</text>
<text text-anchor="start" x="309" y="-563.5" font-family="Helvetica,sans-Serif" font-size="10.00" fill="#000000">+ FoliatedTriangulation()</text>
<text text-anchor="start" x="309" y="-552.5" font-family="Helvetica,sans-Serif" font-size="10.00" fill="#000000">+ ~FoliatedTriangulation()</text>
<text text-anchor="start" x="309" y="-541.5" font-family="Helvetica,sans-Serif" font-size="10.00" fill="#000000">+ check_all_cells()</text>
<text text-anchor="start" x="309" y="-530.5" font-family="Helvetica,sans-Serif" font-size="10.00" fill="#000000">+ check_all_vertices()</text>
<text text-anchor="start" x="309" y="-519.5" font-family="Helvetica,sans-Serif" font-size="10.00" fill="#000000">+ check_timeslices()</text>
<text text-anchor="start" x="309" y="-508.5" font-family="Helvetica,sans-Serif" font-size="10.00" fill="#000000">and 47 more...</text>
<text text-anchor="start" x="309" y="-497.5" font-family="Helvetica,sans-Serif" font-size="10.00" fill="#000000">+ check_cells()</text>
<text text-anchor="start" x="309" y="-486.5" font-family="Helvetica,sans-Serif" font-size="10.00" fill="#000000">+ classify_edge()</text>
<text text-anchor="start" x="309" y="-475.5" font-family="Helvetica,sans-Serif" font-size="10.00" fill="#000000">+ expected_cell_type()</text>
<text text-anchor="start" x="309" y="-464.5" font-family="Helvetica,sans-Serif" font-size="10.00" fill="#000000">+ filter_cells()</text>
<text text-anchor="start" x="309" y="-453.5" font-family="Helvetica,sans-Serif" font-size="10.00" fill="#000000">+ fix_cells()</text>
<text text-anchor="start" x="309" y="-442.5" font-family="Helvetica,sans-Serif" font-size="10.00" fill="#000000">+ is_cell_type_correct()</text>
<text text-anchor="start" x="309" y="-431.5" font-family="Helvetica,sans-Serif" font-size="10.00" fill="#000000">+ print_cells()</text>
<text text-anchor="start" x="309" y="-420.5" font-family="Helvetica,sans-Serif" font-size="10.00" fill="#000000">+ squared_radius()</text>
<text text-anchor="start" x="309" y="-409.5" font-family="Helvetica,sans-Serif" font-size="10.00" fill="#000000">&#45; classify_cells()</text>
<text text-anchor="start" x="309" y="-398.5" font-family="Helvetica,sans-Serif" font-size="10.00" fill="#000000">&#45; collect_cells()</text>
<text text-anchor="start" x="309" y="-387.5" font-family="Helvetica,sans-Serif" font-size="10.00" fill="#000000">&#45; collect_edges()</text>
<text text-anchor="start" x="309" y="-376.5" font-family="Helvetica,sans-Serif" font-size="10.00" fill="#000000">&#45; collect_faces()</text>
<text text-anchor="start" x="309" y="-365.5" font-family="Helvetica,sans-Serif" font-size="10.00" fill="#000000">&#45; collect_vertices()</text>
<text text-anchor="start" x="309" y="-354.5" font-family="Helvetica,sans-Serif" font-size="10.00" fill="#000000">&#45; fix_timeslices()</text>
<text text-anchor="start" x="309" y="-343.5" font-family="Helvetica,sans-Serif" font-size="10.00" fill="#000000">&#45; make_triangulation()</text>
<text text-anchor="start" x="309" y="-332.5" font-family="Helvetica,sans-Serif" font-size="10.00" fill="#000000">&#45; filter_edges()</text>
<text text-anchor="start" x="309" y="-321.5" font-family="Helvetica,sans-Serif" font-size="10.00" fill="#000000">&#45; find_max_timevalue()</text>
<text text-anchor="start" x="309" y="-310.5" font-family="Helvetica,sans-Serif" font-size="10.00" fill="#000000">&#45; find_min_timevalue()</text>
<text text-anchor="start" x="309" y="-299.5" font-family="Helvetica,sans-Serif" font-size="10.00" fill="#000000">&#45; make_foliated_sphere()</text>
<text text-anchor="start" x="309" y="-288.5" font-family="Helvetica,sans-Serif" font-size="10.00" fill="#000000">&#45; volume_per_timeslice()</text>
</a>
</g>
</g>
<!-- Node3&#45;&gt;Node1 -->
<g id="edge2" class="edge">
<title>Node3&#45;&gt;Node1</title>
<path fill="none" stroke="#404040" d="M336.9182,-281.4552C334.5465,-271.4674 332.0728,-261.6081 329.5,-252 328.9219,-249.8412 328.3253,-247.6677 327.7122,-245.483"/>
<polygon fill="none" stroke="#404040" points="327.6408,-245.2375 322.1233,-240.5945 324.287,-233.7157 329.8045,-238.3587 327.6408,-245.2375"/>
<text text-anchor="middle" x="374" y="-255" font-family="Helvetica,sans-Serif" font-size="10.00" fill="#000000"> &#45;m_triangulation</text>
</g>
<!-- Node4 -->
<g id="node4" class="node">
<title>Node4</title>
<polygon fill="#ffffff" stroke="#bfbfbf" points="0,-804.5 0,-861.5 151,-861.5 151,-804.5 0,-804.5"/>
<text text-anchor="middle" x="75.5" y="-849.5" font-family="Helvetica,sans-Serif" font-size="10.00" fill="#000000">std::vector&lt; Face_handle &gt;</text>
<polyline fill="none" stroke="#bfbfbf" points="0,-842.5 151,-842.5 "/>
<text text-anchor="start" x="8" y="-830.5" font-family="Helvetica,sans-Serif" font-size="10.00" fill="#000000">+ elements</text>
<polyline fill="none" stroke="#bfbfbf" points="0,-823.5 151,-823.5 "/>
<text text-anchor="middle" x="75.5" y="-811.5" font-family="Helvetica,sans-Serif" font-size="10.00" fill="#000000"> </text>
</g>
<!-- Node4&#45;&gt;Node3 -->
<g id="edge3" class="edge">
<title>Node4&#45;&gt;Node3</title>
<path fill="none" stroke="#404040" d="M104.3839,-804.4247C129.5487,-781.1627 168.0944,-749.2869 207.5,-731 242.1333,-714.9278 262.4833,-737.8155 291.5,-713 291.6002,-712.9143 291.7002,-712.8285 291.8002,-712.7426"/>
<polygon fill="none" stroke="#404040" points="291.985,-712.5698 293.6371,-705.5505 300.7519,-704.3758 299.0998,-711.3951 291.985,-712.5698"/>
<text text-anchor="middle" x="232" y="-750.5" font-family="Helvetica,sans-Serif" font-size="10.00" fill="#000000"> &#45;m_faces</text>
</g>
<!-- Node5 -->
<g id="node5" class="node">
<title>Node5</title>
<g id="a_node5"><a xlink:title="STL class. ">
<polygon fill="#ffffff" stroke="#bfbfbf" points="326,-920.5 326,-977.5 423,-977.5 423,-920.5 326,-920.5"/>
<text text-anchor="middle" x="374.5" y="-965.5" font-family="Helvetica,sans-Serif" font-size="10.00" fill="#000000">std::vector&lt; T &gt;</text>
<polyline fill="none" stroke="#bfbfbf" points="326,-958.5 423,-958.5 "/>
<text text-anchor="middle" x="374.5" y="-946.5" font-family="Helvetica,sans-Serif" font-size="10.00" fill="#000000"> </text>
<polyline fill="none" stroke="#bfbfbf" points="326,-939.5 423,-939.5 "/>
<text text-anchor="middle" x="374.5" y="-927.5" font-family="Helvetica,sans-Serif" font-size="10.00" fill="#000000"> </text>
</a>
</g>
</g>
<!-- Node5&#45;&gt;Node4 -->
<g id="edge4" class="edge">
<title>Node5&#45;&gt;Node4</title>
<path fill="none" stroke="#ffa500" d="M315.9087,-941.2129C275.008,-934.3603 219.8409,-922.2345 174.5,-902 151.3509,-891.6692 127.9679,-875.6893 109.7438,-861.7085"/>
<polygon fill="#ffa500" stroke="#ffa500" points="315.5545,-944.7011 325.9851,-942.8433 316.6725,-937.7909 315.5545,-944.7011"/>
<text text-anchor="middle" x="217.5" y="-894" font-family="Helvetica,sans-Serif" font-size="10.00" fill="#000000"> &lt; Face_handle &gt;</text>
</g>
<!-- Node7 -->
<g id="node7" class="node">
<title>Node7</title>
<polygon fill="#ffffff" stroke="#bfbfbf" points="169,-799 169,-867 280,-867 280,-799 169,-799"/>
<text text-anchor="start" x="177" y="-855" font-family="Helvetica,sans-Serif" font-size="10.00" fill="#000000">std::vector&lt; Vertex</text>
<text text-anchor="middle" x="224.5" y="-844" font-family="Helvetica,sans-Serif" font-size="10.00" fill="#000000">_handle &gt;</text>
<polyline fill="none" stroke="#bfbfbf" points="169,-837 280,-837 "/>
<text text-anchor="start" x="177" y="-825" font-family="Helvetica,sans-Serif" font-size="10.00" fill="#000000">+ elements</text>
<polyline fill="none" stroke="#bfbfbf" points="169,-818 280,-818 "/>
<text text-anchor="middle" x="224.5" y="-806" font-family="Helvetica,sans-Serif" font-size="10.00" fill="#000000"> </text>
</g>
<!-- Node5&#45;&gt;Node7 -->
<g id="edge7" class="edge">
<title>Node5&#45;&gt;Node7</title>
<path fill="none" stroke="#ffa500" d="M316.3718,-927.6955C301.8276,-920.8018 286.8633,-912.236 274.5,-902 262.7631,-892.2827 252.3768,-879.215 244.1541,-867.066"/>
<polygon fill="#ffa500" stroke="#ffa500" points="315.2842,-931.0452 325.8373,-931.9851 318.1736,-924.6694 315.2842,-931.0452"/>
<text text-anchor="middle" x="322.5" y="-894" font-family="Helvetica,sans-Serif" font-size="10.00" fill="#000000"> &lt; Vertex_handle &gt;</text>
</g>
<!-- Node8 -->
<g id="node8" class="node">
<title>Node8</title>
<polygon fill="#ffffff" stroke="#bfbfbf" points="298,-804.5 298,-861.5 451,-861.5 451,-804.5 298,-804.5"/>
<text text-anchor="middle" x="374.5" y="-849.5" font-family="Helvetica,sans-Serif" font-size="10.00" fill="#000000">std::vector&lt; Edge_handle &gt;</text>
<polyline fill="none" stroke="#bfbfbf" points="298,-842.5 451,-842.5 "/>
<text text-anchor="start" x="306" y="-830.5" font-family="Helvetica,sans-Serif" font-size="10.00" fill="#000000">+ elements</text>
<polyline fill="none" stroke="#bfbfbf" points="298,-823.5 451,-823.5 "/>
<text text-anchor="middle" x="374.5" y="-811.5" font-family="Helvetica,sans-Serif" font-size="10.00" fill="#000000"> </text>
</g>
<!-- Node5&#45;&gt;Node8 -->
<g id="edge9" class="edge">
<title>Node5&#45;&gt;Node8</title>
<path fill="none" stroke="#ffa500" d="M374.5,-910.2769C374.5,-894.4213 374.5,-876.397 374.5,-861.7463"/>
<polygon fill="#ffa500" stroke="#ffa500" points="371.0001,-910.3258 374.5,-920.3258 378.0001,-910.3259 371.0001,-910.3258"/>
<text text-anchor="middle" x="418.5" y="-894" font-family="Helvetica,sans-Serif" font-size="10.00" fill="#000000"> &lt; Edge_handle &gt;</text>
</g>
<!-- Node9 -->
<g id="node9" class="node">
<title>Node9</title>
<polygon fill="#ffffff" stroke="#bfbfbf" points="469.5,-804.5 469.5,-861.5 617.5,-861.5 617.5,-804.5 469.5,-804.5"/>
<text text-anchor="middle" x="543.5" y="-849.5" font-family="Helvetica,sans-Serif" font-size="10.00" fill="#000000">std::vector&lt; Cell_handle &gt;</text>
<polyline fill="none" stroke="#bfbfbf" points="469.5,-842.5 617.5,-842.5 "/>
<text text-anchor="start" x="477.5" y="-830.5" font-family="Helvetica,sans-Serif" font-size="10.00" fill="#000000">+ elements</text>
<polyline fill="none" stroke="#bfbfbf" points="469.5,-823.5 617.5,-823.5 "/>
<text text-anchor="middle" x="543.5" y="-811.5" font-family="Helvetica,sans-Serif" font-size="10.00" fill="#000000"> </text>
</g>
<!-- Node5&#45;&gt;Node9 -->
<g id="edge11" class="edge">
<title>Node5&#45;&gt;Node9</title>
<path fill="none" stroke="#ffa500" d="M432.0097,-922.5195C443.746,-916.3213 455.7764,-909.3598 466.5,-902 483.6678,-890.2175 501.0871,-874.9457 515.005,-861.7659"/>
<polygon fill="#ffa500" stroke="#ffa500" points="430.4023,-919.4104 423.1187,-927.1046 433.6107,-925.6319 430.4023,-919.4104"/>
<text text-anchor="middle" x="522" y="-894" font-family="Helvetica,sans-Serif" font-size="10.00" fill="#000000"> &lt; Cell_handle &gt;</text>
</g>
<!-- Node6 -->
<g id="node6" class="node">
<title>Node6</title>
<polygon fill="#ffffff" stroke="#bfbfbf" points="424,-1025.5 424,-1082.5 453,-1082.5 453,-1025.5 424,-1025.5"/>
<text text-anchor="middle" x="438.5" y="-1070.5" font-family="Helvetica,sans-Serif" font-size="10.00" fill="#000000">T</text>
<polyline fill="none" stroke="#bfbfbf" points="424,-1063.5 453,-1063.5 "/>
<text text-anchor="middle" x="438.5" y="-1051.5" font-family="Helvetica,sans-Serif" font-size="10.00" fill="#000000"> </text>
<polyline fill="none" stroke="#bfbfbf" points="424,-1044.5 453,-1044.5 "/>
<text text-anchor="middle" x="438.5" y="-1032.5" font-family="Helvetica,sans-Serif" font-size="10.00" fill="#000000"> </text>
</g>
<!-- Node6&#45;&gt;Node5 -->
<g id="edge5" class="edge">
<title>Node6&#45;&gt;Node5</title>
<path fill="none" stroke="#404040" d="M423.9774,-1030.1739C416.3951,-1017.7341 406.9242,-1002.196 398.3042,-988.0537"/>
<polygon fill="none" stroke="#404040" points="398.1691,-987.8321 391.6308,-984.7907 391.9235,-977.5855 398.4619,-980.627 398.1691,-987.8321"/>
<text text-anchor="middle" x="437.5" y="-999" font-family="Helvetica,sans-Serif" font-size="10.00" fill="#000000"> +elements</text>
</g>
<!-- Node11 -->
<g id="node11" class="node">
<title>Node11</title>
<g id="a_node11"><a xlink:title="STL class. ">
<polygon fill="#ffffff" stroke="#bfbfbf" points="516.5,-920.5 516.5,-977.5 642.5,-977.5 642.5,-920.5 516.5,-920.5"/>
<text text-anchor="middle" x="579.5" y="-965.5" font-family="Helvetica,sans-Serif" font-size="10.00" fill="#000000">std::multimap&lt; K, T &gt;</text>
<polyline fill="none" stroke="#bfbfbf" points="516.5,-958.5 642.5,-958.5 "/>
<text text-anchor="start" x="524.5" y="-946.5" font-family="Helvetica,sans-Serif" font-size="10.00" fill="#000000">+ keys</text>
<polyline fill="none" stroke="#bfbfbf" points="516.5,-939.5 642.5,-939.5 "/>
<text text-anchor="middle" x="579.5" y="-927.5" font-family="Helvetica,sans-Serif" font-size="10.00" fill="#000000"> </text>
</a>
</g>
</g>
<!-- Node6&#45;&gt;Node11 -->
<g id="edge14" class="edge">
<title>Node6&#45;&gt;Node11</title>
<path fill="none" stroke="#404040" d="M453.0584,-1043.1586C471.4195,-1029.4854 503.9097,-1005.2906 531.3569,-984.8512"/>
<polygon fill="none" stroke="#404040" points="531.5808,-984.6845 534.004,-977.8927 541.2054,-977.5173 538.7822,-984.3091 531.5808,-984.6845"/>
<text text-anchor="middle" x="542.5" y="-999" font-family="Helvetica,sans-Serif" font-size="10.00" fill="#000000"> +elements</text>
</g>
<!-- Node7&#45;&gt;Node3 -->
<g id="edge6" class="edge">
<title>Node7&#45;&gt;Node3</title>
<path fill="none" stroke="#404040" d="M245.332,-798.7656C259.288,-775.124 277.5838,-742.7107 291.5,-713 292.9777,-709.8451 294.4505,-706.6562 295.9171,-703.439"/>
<polygon fill="none" stroke="#404040" points="295.9587,-703.3463 294.7696,-696.2339 300.8775,-692.4007 302.0666,-699.5131 295.9587,-703.3463"/>
<text text-anchor="middle" x="308.5" y="-750.5" font-family="Helvetica,sans-Serif" font-size="10.00" fill="#000000"> &#45;m_points</text>
</g>
<!-- Node8&#45;&gt;Node3 -->
<g id="edge8" class="edge">
<title>Node8&#45;&gt;Node3</title>
<path fill="none" stroke="#404040" d="M374.5,-804.3528C374.5,-784.6518 374.5,-756.4356 374.5,-724.9917"/>
<polygon fill="none" stroke="#404040" points="374.5001,-724.7935 370.5,-718.7935 374.5,-712.7935 378.5,-718.7935 374.5001,-724.7935"/>
<text text-anchor="middle" x="424.5" y="-761.5" font-family="Helvetica,sans-Serif" font-size="10.00" fill="#000000"> &#45;m_edges</text>
<text text-anchor="middle" x="424.5" y="-750.5" font-family="Helvetica,sans-Serif" font-size="10.00" fill="#000000">&#45;m_timelike_edges</text>
<text text-anchor="middle" x="424.5" y="-739.5" font-family="Helvetica,sans-Serif" font-size="10.00" fill="#000000">&#45;m_spacelike_edges</text>
</g>
<!-- Node9&#45;&gt;Node3 -->
<g id="edge10" class="edge">
<title>Node9&#45;&gt;Node3</title>
<path fill="none" stroke="#404040" d="M529.0912,-804.3528C512.0686,-770.5092 482.4071,-711.5372 453.5885,-654.241"/>
<polygon fill="none" stroke="#404040" points="453.4227,-653.9113 447.1532,-650.3485 448.0306,-643.191 454.3001,-646.7538 453.4227,-653.9113"/>
<text text-anchor="middle" x="545.5" y="-767" font-family="Helvetica,sans-Serif" font-size="10.00" fill="#000000"> &#45;m_cells</text>
<text text-anchor="middle" x="545.5" y="-756" font-family="Helvetica,sans-Serif" font-size="10.00" fill="#000000">&#45;m_one_three</text>
<text text-anchor="middle" x="545.5" y="-745" font-family="Helvetica,sans-Serif" font-size="10.00" fill="#000000">&#45;m_three_one</text>
<text text-anchor="middle" x="545.5" y="-734" font-family="Helvetica,sans-Serif" font-size="10.00" fill="#000000">&#45;m_two_two</text>
</g>
<!-- Node10 -->
<g id="node10" class="node">
<title>Node10</title>
<polygon fill="#ffffff" stroke="#bfbfbf" points="636,-793.5 636,-872.5 745,-872.5 745,-793.5 636,-793.5"/>
<text text-anchor="start" x="644" y="-860.5" font-family="Helvetica,sans-Serif" font-size="10.00" fill="#000000">std::multimap&lt; Int</text>
<text text-anchor="middle" x="690.5" y="-849.5" font-family="Helvetica,sans-Serif" font-size="10.00" fill="#000000">_precision, Facet &gt;</text>
<polyline fill="none" stroke="#bfbfbf" points="636,-842.5 745,-842.5 "/>
<text text-anchor="start" x="644" y="-830.5" font-family="Helvetica,sans-Serif" font-size="10.00" fill="#000000">+ elements</text>
<text text-anchor="start" x="644" y="-819.5" font-family="Helvetica,sans-Serif" font-size="10.00" fill="#000000">+ keys</text>
<polyline fill="none" stroke="#bfbfbf" points="636,-812.5 745,-812.5 "/>
<text text-anchor="middle" x="690.5" y="-800.5" font-family="Helvetica,sans-Serif" font-size="10.00" fill="#000000"> </text>
</g>
<!-- Node10&#45;&gt;Node3 -->
<g id="edge12" class="edge">
<title>Node10&#45;&gt;Node3</title>
<path fill="none" stroke="#404040" d="M653.3216,-793.4685C605.231,-742.3342 520.0988,-651.8139 456.5151,-584.206"/>
<polygon fill="none" stroke="#404040" points="456.3076,-583.9853 449.2832,-582.3549 448.0864,-575.2438 455.1108,-576.8742 456.3076,-583.9853"/>
<text text-anchor="middle" x="682.5" y="-750.5" font-family="Helvetica,sans-Serif" font-size="10.00" fill="#000000"> &#45;m_spacelike_facets</text>
</g>
<!-- Node11&#45;&gt;Node10 -->
<g id="edge13" class="edge">
<title>Node11&#45;&gt;Node10</title>
<path fill="none" stroke="#ffa500" d="M613.9296,-913.0196C626.1557,-900.2427 639.9839,-885.7916 652.4918,-872.7203"/>
<polygon fill="#ffa500" stroke="#ffa500" points="611.3231,-910.681 606.9382,-920.3258 616.3807,-915.5205 611.3231,-910.681"/>
<text text-anchor="middle" x="695.5" y="-894" font-family="Helvetica,sans-Serif" font-size="10.00" fill="#000000"> &lt; Int_precision, Facet &gt;</text>
</g>
</g>
</svg>
