<?xml version="1.0" encoding="UTF-8" standalone="no"?>
<!DOCTYPE svg PUBLIC "-//W3C//DTD SVG 1.1//EN"
 "http://www.w3.org/Graphics/SVG/1.1/DTD/svg11.dtd">
<!-- Generated by graphviz version 2.43.0 (0)
 -->
<!-- Title: manifolds::Manifold&lt; 4 &gt; Pages: 1 -->
<svg width="151pt" height="226pt"
 viewBox="0.00 0.00 151.00 226.00" xmlns="http://www.w3.org/2000/svg" xmlns:xlink="http://www.w3.org/1999/xlink">
<g id="graph0" class="graph" transform="scale(1 1) rotate(0) translate(4 222)">
<title>manifolds::Manifold&lt; 4 &gt;</title>
<polygon fill="white" stroke="transparent" points="-4,4 -4,-222 147,-222 147,4 -4,4"/>
<!-- Node1 -->
<g id="node1" class="node">
<title>Node1</title>
<g id="a_node1"><a xlink:title="4D Manifold">
<polygon fill="#bfbfbf" stroke="black" points="0,-0.5 0,-68.5 143,-68.5 143,-0.5 0,-0.5"/>
<text text-anchor="middle" x="71.5" y="-56.5" font-family="Helvetica,sans-Serif" font-size="10.00">manifolds::Manifold&lt; 4 &gt;</text>
<polyline fill="none" stroke="black" points="0,-49.5 143,-49.5 "/>
<text text-anchor="start" x="8" y="-37.5" font-family="Helvetica,sans-Serif" font-size="10.00">+ dimension</text>
<text text-anchor="start" x="8" y="-26.5" font-family="Helvetica,sans-Serif" font-size="10.00">+ topology</text>
<polyline fill="none" stroke="black" points="0,-19.5 143,-19.5 "/>
<text text-anchor="middle" x="71.5" y="-7.5" font-family="Helvetica,sans-Serif" font-size="10.00"> </text>
</a>
</g>
</g>
<!-- Node2 -->
<g id="node2" class="node">
<title>Node2</title>
<g id="a_node2"><a xlink:href="struct_geometry_3_014_01_4.html" target="_top" xlink:title=" ">
<polygon fill="white" stroke="black" points="24.5,-116.5 24.5,-217.5 118.5,-217.5 118.5,-116.5 24.5,-116.5"/>
<text text-anchor="middle" x="71.5" y="-205.5" font-family="Helvetica,sans-Serif" font-size="10.00">Geometry&lt; 4 &gt;</text>
<polyline fill="none" stroke="black" points="24.5,-198.5 118.5,-198.5 "/>
<text text-anchor="start" x="32.5" y="-186.5" font-family="Helvetica,sans-Serif" font-size="10.00">+ N0</text>
<text text-anchor="start" x="32.5" y="-175.5" font-family="Helvetica,sans-Serif" font-size="10.00">+ N1</text>
<text text-anchor="start" x="32.5" y="-164.5" font-family="Helvetica,sans-Serif" font-size="10.00">+ N2</text>
<text text-anchor="start" x="32.5" y="-153.5" font-family="Helvetica,sans-Serif" font-size="10.00">+ N3</text>
<text text-anchor="start" x="32.5" y="-142.5" font-family="Helvetica,sans-Serif" font-size="10.00">+ N4</text>
<polyline fill="none" stroke="black" points="24.5,-135.5 118.5,-135.5 "/>
<text text-anchor="middle" x="71.5" y="-123.5" font-family="Helvetica,sans-Serif" font-size="10.00"> </text>
</a>
</g>
</g>
<!-- Node2&#45;&gt;Node1 -->
<g id="edge1" class="edge">
<title>Node2&#45;&gt;Node1</title>
<path fill="none" stroke="#404040" d="M71.5,-116.29C71.5,-104.55 71.5,-92.09 71.5,-80.57"/>
<polygon fill="none" stroke="#404040" points="71.5,-80.51 67.5,-74.51 71.5,-68.51 75.5,-74.51 71.5,-80.51"/>
<text text-anchor="middle" x="106.5" y="-90" font-family="Helvetica,sans-Serif" font-size="10.00"> &#45;m_geometry</text>
</g>
</g>
</svg>
