<?xml version="1.0" encoding="UTF-8" standalone="no"?>
<!DOCTYPE svg PUBLIC "-//W3C//DTD SVG 1.1//EN"
 "http://www.w3.org/Graphics/SVG/1.1/DTD/svg11.dtd">
<!-- Generated by graphviz version 15.1.0 (20260618.0150)
 -->
<!-- Title: cdt::foliated_triangulations::FoliatedTriangulation&lt; 3 &gt; Pages: 1 -->
<!--zoomable 889 -->

<svg id="main" version="1.1" xmlns="http://www.w3.org/2000/svg" xmlns:xlink="http://www.w3.org/1999/xlink" xml:space="preserve" onload="init(evt)">

<style type="text/css"><![CDATA[
.node, .edge {opacity: 0.7;}
.node.selected, .edge.selected {opacity: 1;}
.edge:hover path { stroke: red; }
.edge:hover polygon { stroke: red; fill: red; }
]]></style>

<defs>
  <circle id="rim" cx="0" cy="0" r="7"/>
  <circle id="rim2" cx="0" cy="0" r="3.5"/>
  <g id="zoomPlus">
    <use xlink:href="#rim" fill="#404040"><set attributeName="fill" to="#808080" begin="zoomplus.mouseover" end="zoomplus.mouseout"/></use>
    <path d="M-4,0h8M0,-4v8" fill="none" stroke="white" stroke-width="1.5" pointer-events="none"/>
  </g>
  <g id="zoomMin">
    <use xlink:href="#rim" fill="#404040"><set attributeName="fill" to="#808080" begin="zoomminus.mouseover" end="zoomminus.mouseout"/></use>
    <path d="M-4,0h8" fill="none" stroke="white" stroke-width="1.5" pointer-events="none"/>
  </g>
  <g id="arrowUp" transform="translate(30 24)">
    <use xlink:href="#rim"/>
    <path pointer-events="none" fill="none" stroke="white" stroke-width="1.5" d="M0,-3.0v7 M-2.5,-0.5L0,-3.0L2.5,-0.5"/>
  </g>
  <g id="arrowRight" transform="rotate(90) translate(36 -43)">
    <use xlink:href="#rim"/>
    <path pointer-events="none" fill="none" stroke="white" stroke-width="1.5" d="M0,-3.0v7 M-2.5,-0.5L0,-3.0L2.5,-0.5"/>
  </g>
  <g id="arrowDown" transform="rotate(180) translate(-30 -48)">
    <use xlink:href="#rim"/>
    <path pointer-events="none" fill="none" stroke="white" stroke-width="1.5" d="M0,-3.0v7 M-2.5,-0.5L0,-3.0L2.5,-0.5"/>
  </g>
  <g id="arrowLeft" transform="rotate(270) translate(-36 17)">
    <use xlink:href="#rim"/>
    <path pointer-events="none" fill="none" stroke="white" stroke-width="1.5" d="M0,-3.0v7 M-2.5,-0.5L0,-3.0L2.5,-0.5"/>
  </g>
  <g id="resetDef">
    <use xlink:href="#rim2" fill="#404040"><set attributeName="fill" to="#808080" begin="reset.mouseover" end="reset.mouseout"/></use>
  </g>
</defs>
<script type="application/ecmascript">
var viewWidth = 945;
var viewHeight = 889;
var sectionId = 'dynsection-1';
</script>
<script type="application/ecmascript" xlink:href="svg.min.js"/>
<svg id="graph" class="graph">
<g id="viewport">
<title>cdt::foliated_triangulations::FoliatedTriangulation&lt; 3 &gt;</title>
<!-- Node1 -->
<g id="Node000001" class="node">
<title>Node1</title>
<g id="a_Node000001"><a xlink:title="3D Foliated triangulation">
<polygon fill="#999999" stroke="none" points="529.38,-465 380.12,-465 380.12,0 529.38,0 529.38,-465"/>
<text xml:space="preserve" text-anchor="start" x="386.5" y="-451.25" font-family="Helvetica,sans-Serif" font-size="10.00">cdt::foliated_triangulations</text>
<text xml:space="preserve" text-anchor="start" x="386.5" y="-438.5" font-family="Helvetica,sans-Serif" font-size="10.00">::FoliatedTriangulation&lt; 3 &gt;</text>
<text xml:space="preserve" text-anchor="start" x="386.38" y="-421.75" font-family="Helvetica,sans-Serif" font-size="10.00">&#45;</text>
<text xml:space="preserve" text-anchor="start" x="396.38" y="-421.75" font-family="Helvetica,sans-Serif" font-size="10.00">m_foliation_spacing</text>
<text xml:space="preserve" text-anchor="start" x="386.38" y="-405" font-family="Helvetica,sans-Serif" font-size="10.00">&#45;</text>
<text xml:space="preserve" text-anchor="start" x="396.38" y="-405" font-family="Helvetica,sans-Serif" font-size="10.00">m_initial_radius</text>
<text xml:space="preserve" text-anchor="start" x="386.38" y="-388.25" font-family="Helvetica,sans-Serif" font-size="10.00">&#45;</text>
<text xml:space="preserve" text-anchor="start" x="396.38" y="-388.25" font-family="Helvetica,sans-Serif" font-size="10.00">m_max_timevalue</text>
<text xml:space="preserve" text-anchor="start" x="386.38" y="-371.5" font-family="Helvetica,sans-Serif" font-size="10.00">&#45;</text>
<text xml:space="preserve" text-anchor="start" x="396.38" y="-371.5" font-family="Helvetica,sans-Serif" font-size="10.00">m_min_timevalue</text>
<text xml:space="preserve" text-anchor="start" x="384.12" y="-354.75" font-family="Helvetica,sans-Serif" font-size="10.00">+</text>
<text xml:space="preserve" text-anchor="start" x="396.38" y="-354.75" font-family="Helvetica,sans-Serif" font-size="10.00">FoliatedTriangulation()</text>
<text xml:space="preserve" text-anchor="start" x="384.12" y="-338" font-family="Helvetica,sans-Serif" font-size="10.00">+</text>
<text xml:space="preserve" text-anchor="start" x="396.38" y="-338" font-family="Helvetica,sans-Serif" font-size="10.00">FoliatedTriangulation()</text>
<text xml:space="preserve" text-anchor="start" x="384.12" y="-321.25" font-family="Helvetica,sans-Serif" font-size="10.00">+</text>
<text xml:space="preserve" text-anchor="start" x="396.38" y="-321.25" font-family="Helvetica,sans-Serif" font-size="10.00">FoliatedTriangulation()</text>
<text xml:space="preserve" text-anchor="start" x="384.12" y="-304.5" font-family="Helvetica,sans-Serif" font-size="10.00">+</text>
<text xml:space="preserve" text-anchor="start" x="396.38" y="-304.5" font-family="Helvetica,sans-Serif" font-size="10.00">FoliatedTriangulation()</text>
<text xml:space="preserve" text-anchor="start" x="384.12" y="-287.75" font-family="Helvetica,sans-Serif" font-size="10.00">+</text>
<text xml:space="preserve" text-anchor="start" x="396.38" y="-287.75" font-family="Helvetica,sans-Serif" font-size="10.00">FoliatedTriangulation()</text>
<text xml:space="preserve" text-anchor="start" x="384.12" y="-271" font-family="Helvetica,sans-Serif" font-size="10.00">+</text>
<text xml:space="preserve" text-anchor="start" x="396.38" y="-271" font-family="Helvetica,sans-Serif" font-size="10.00">FoliatedTriangulation()</text>
<text xml:space="preserve" text-anchor="start" x="384.12" y="-254.25" font-family="Helvetica,sans-Serif" font-size="10.00">+</text>
<text xml:space="preserve" text-anchor="start" x="396.38" y="-254.25" font-family="Helvetica,sans-Serif" font-size="10.00">FoliatedTriangulation()</text>
<text xml:space="preserve" text-anchor="start" x="384.12" y="-237.5" font-family="Helvetica,sans-Serif" font-size="10.00">+</text>
<text xml:space="preserve" text-anchor="start" x="396.38" y="-237.5" font-family="Helvetica,sans-Serif" font-size="10.00">~FoliatedTriangulation()</text>
<text xml:space="preserve" text-anchor="start" x="384.12" y="-220.75" font-family="Helvetica,sans-Serif" font-size="10.00">+</text>
<text xml:space="preserve" text-anchor="start" x="396.38" y="-220.75" font-family="Helvetica,sans-Serif" font-size="10.00">check_all_cells()</text>
<text xml:space="preserve" text-anchor="start" x="384.12" y="-204" font-family="Helvetica,sans-Serif" font-size="10.00">+</text>
<text xml:space="preserve" text-anchor="start" x="396.38" y="-204" font-family="Helvetica,sans-Serif" font-size="10.00">check_all_vertices()</text>
<text xml:space="preserve" text-anchor="start" x="396.38" y="-187.25" font-family="Helvetica,sans-Serif" font-size="10.00">and 37 more...</text>
<text xml:space="preserve" text-anchor="start" x="386.38" y="-170.5" font-family="Helvetica,sans-Serif" font-size="10.00">&#45;</text>
<text xml:space="preserve" text-anchor="start" x="396.38" y="-170.5" font-family="Helvetica,sans-Serif" font-size="10.00">FoliatedTriangulation()</text>
<text xml:space="preserve" text-anchor="start" x="386.38" y="-153.75" font-family="Helvetica,sans-Serif" font-size="10.00">&#45;</text>
<text xml:space="preserve" text-anchor="start" x="396.38" y="-153.75" font-family="Helvetica,sans-Serif" font-size="10.00">classify_cells()</text>
<text xml:space="preserve" text-anchor="start" x="386.38" y="-137" font-family="Helvetica,sans-Serif" font-size="10.00">&#45;</text>
<text xml:space="preserve" text-anchor="start" x="396.38" y="-137" font-family="Helvetica,sans-Serif" font-size="10.00">classify_vertices()</text>
<text xml:space="preserve" text-anchor="start" x="386.38" y="-120.25" font-family="Helvetica,sans-Serif" font-size="10.00">&#45;</text>
<text xml:space="preserve" text-anchor="start" x="396.38" y="-120.25" font-family="Helvetica,sans-Serif" font-size="10.00">collect_faces()</text>
<text xml:space="preserve" text-anchor="start" x="386.38" y="-103.5" font-family="Helvetica,sans-Serif" font-size="10.00">&#45;</text>
<text xml:space="preserve" text-anchor="start" x="396.38" y="-103.5" font-family="Helvetica,sans-Serif" font-size="10.00">has_consistent_derived</text>
<text xml:space="preserve" text-anchor="start" x="396.38" y="-90.75" font-family="Helvetica,sans-Serif" font-size="10.00">_state()</text>
<text xml:space="preserve" text-anchor="start" x="386.38" y="-74" font-family="Helvetica,sans-Serif" font-size="10.00">&#45;</text>
<text xml:space="preserve" text-anchor="start" x="396.38" y="-74" font-family="Helvetica,sans-Serif" font-size="10.00">has_consistent_structure()</text>
<text xml:space="preserve" text-anchor="start" x="386.38" y="-57.25" font-family="Helvetica,sans-Serif" font-size="10.00">&#45;</text>
<text xml:space="preserve" text-anchor="start" x="396.38" y="-57.25" font-family="Helvetica,sans-Serif" font-size="10.00">triangulation()</text>
<text xml:space="preserve" text-anchor="start" x="386.38" y="-40.5" font-family="Helvetica,sans-Serif" font-size="10.00">&#45;</text>
<text xml:space="preserve" text-anchor="start" x="396.38" y="-40.5" font-family="Helvetica,sans-Serif" font-size="10.00">triangulation()</text>
<text xml:space="preserve" text-anchor="start" x="386.38" y="-23.75" font-family="Helvetica,sans-Serif" font-size="10.00">&#45;</text>
<text xml:space="preserve" text-anchor="start" x="396.38" y="-23.75" font-family="Helvetica,sans-Serif" font-size="10.00">cache_spacelike_facets()</text>
<text xml:space="preserve" text-anchor="start" x="386.38" y="-7" font-family="Helvetica,sans-Serif" font-size="10.00">&#45;</text>
<text xml:space="preserve" text-anchor="start" x="396.38" y="-7" font-family="Helvetica,sans-Serif" font-size="10.00">require_nonempty()</text>
<polygon fill="#666666" stroke="#666666" points="380.12,-433.5 380.12,-433.5 529.38,-433.5 529.38,-433.5 380.12,-433.5"/>
<polygon fill="#666666" stroke="#666666" points="380.12,-366.5 380.12,-366.5 394.38,-366.5 394.38,-366.5 380.12,-366.5"/>
<polygon fill="#666666" stroke="#666666" points="394.38,-366.5 394.38,-366.5 529.38,-366.5 529.38,-366.5 394.38,-366.5"/>
<polygon fill="none" stroke="#666666" points="380.12,0 380.12,-465 529.38,-465 529.38,0 380.12,0"/>
</a>
</g>
</g>
<!-- Node2 -->
<g id="Node000002" class="node">
<title>Node2</title>
<g id="a_Node000002"><a xlink:title=" ">
<polygon fill="white" stroke="none" points="110.38,-643.38 1.12,-643.38 1.12,-576.38 110.38,-576.38 110.38,-643.38"/>
<text xml:space="preserve" text-anchor="start" x="5.12" y="-629.62" font-family="Helvetica,sans-Serif" font-size="10.00">cdt::detail::Delaunay</text>
<text xml:space="preserve" text-anchor="start" x="26.5" y="-616.88" font-family="Helvetica,sans-Serif" font-size="10.00">_state&lt; 3 &gt;</text>
<text xml:space="preserve" text-anchor="start" x="54.25" y="-600.12" font-family="Helvetica,sans-Serif" font-size="10.00"> </text>
<text xml:space="preserve" text-anchor="start" x="54.25" y="-583.38" font-family="Helvetica,sans-Serif" font-size="10.00"> </text>
<polygon fill="#666666" stroke="#666666" points="1.12,-611.88 1.12,-611.88 110.38,-611.88 110.38,-611.88 1.12,-611.88"/>
<polygon fill="#666666" stroke="#666666" points="1.12,-595.12 1.12,-595.12 110.38,-595.12 110.38,-595.12 1.12,-595.12"/>
<polygon fill="none" stroke="#666666" points="1.12,-576.38 1.12,-643.38 110.38,-643.38 110.38,-576.38 1.12,-576.38"/>
</a>
</g>
</g>
<!-- Node2&#45;&gt;Node1 -->
<g id="edge1_Node000001_Node000002" class="edge">
<title>Node2&#45;&gt;Node1</title>
<g id="a_edge1_Node000001_Node000002"><a xlink:title=" ">
<path fill="none" stroke="#63b8ff" d="M68.06,-576.5C79.35,-549.56 97.97,-511.19 122,-483 193.07,-399.64 296.76,-327.46 369.46,-282.48"/>
<polygon fill="none" stroke="#63b8ff" points="369.4,-282.51 372.43,-275.97 379.63,-276.24 376.61,-282.79 369.4,-282.51"/>
</a>
</g>
<text xml:space="preserve" text-anchor="start" x="125" y="-514.12" font-family="Helvetica,sans-Serif" font-size="10.00" fill="grey">&#45;m_delaunay_state</text>
</g>
<!-- Node3 -->
<g id="Node000003" class="node">
<title>Node3</title>
<g id="a_Node000003"><a xlink:title=" ">
<polygon fill="white" stroke="none" points="111.5,-771.5 0,-771.5 0,-704.5 111.5,-704.5 111.5,-771.5"/>
<text xml:space="preserve" text-anchor="start" x="4" y="-757.75" font-family="Helvetica,sans-Serif" font-size="10.00">cdt::detail::Delaunay</text>
<text xml:space="preserve" text-anchor="start" x="4" y="-745" font-family="Helvetica,sans-Serif" font-size="10.00">_state&lt; dimension &gt;</text>
<text xml:space="preserve" text-anchor="start" x="54.25" y="-728.25" font-family="Helvetica,sans-Serif" font-size="10.00"> </text>
<text xml:space="preserve" text-anchor="start" x="54.25" y="-711.5" font-family="Helvetica,sans-Serif" font-size="10.00"> </text>
<polygon fill="#666666" stroke="#666666" points="0,-740 0,-740 111.5,-740 111.5,-740 0,-740"/>
<polygon fill="#666666" stroke="#666666" points="0,-723.25 0,-723.25 111.5,-723.25 111.5,-723.25 0,-723.25"/>
<polygon fill="none" stroke="#666666" points="0,-704.5 0,-771.5 111.5,-771.5 111.5,-704.5 0,-704.5"/>
</a>
</g>
</g>
<!-- Node3&#45;&gt;Node2 -->
<g id="edge2_Node000002_Node000003" class="edge">
<title>Node3&#45;&gt;Node2</title>
<g id="a_edge2_Node000002_Node000003"><a xlink:title=" ">
<path fill="none" stroke="orange" d="M55.75,-693.01C55.75,-676.64 55.75,-658.38 55.75,-643.25"/>
<polygon fill="orange" stroke="orange" points="52.25,-693.01 55.75,-703.01 59.25,-693.01 52.25,-693.01"/>
</a>
</g>
<text xml:space="preserve" text-anchor="start" x="58.75" y="-673.75" font-family="Helvetica,sans-Serif" font-size="10.00" fill="grey">&lt; 3 &gt;</text>
</g>
<!-- Node4 -->
<g id="Node000004" class="node">
<title>Node4</title>
<g id="a_Node000004"><a xlink:title=" ">
<polygon fill="white" stroke="none" points="231,-643.38 128.5,-643.38 128.5,-576.38 231,-576.38 231,-643.38"/>
<text xml:space="preserve" text-anchor="start" x="132.5" y="-629.62" font-family="Helvetica,sans-Serif" font-size="10.00">std::vector&lt; Vertex</text>
<text xml:space="preserve" text-anchor="start" x="155" y="-616.88" font-family="Helvetica,sans-Serif" font-size="10.00">_handle &gt;</text>
<text xml:space="preserve" text-anchor="start" x="141.62" y="-600.12" font-family="Helvetica,sans-Serif" font-size="10.00">+</text>
<text xml:space="preserve" text-anchor="start" x="163" y="-600.12" font-family="Helvetica,sans-Serif" font-size="10.00">elements</text>
<text xml:space="preserve" text-anchor="start" x="178.25" y="-583.38" font-family="Helvetica,sans-Serif" font-size="10.00"> </text>
<polygon fill="#666666" stroke="#666666" points="128.5,-611.88 128.5,-611.88 231,-611.88 231,-611.88 128.5,-611.88"/>
<polygon fill="#666666" stroke="#666666" points="128.5,-595.12 128.5,-595.12 161,-595.12 161,-595.12 128.5,-595.12"/>
<polygon fill="#666666" stroke="#666666" points="161,-595.12 161,-595.12 231,-595.12 231,-595.12 161,-595.12"/>
<polygon fill="none" stroke="#666666" points="128.5,-576.38 128.5,-643.38 231,-643.38 231,-576.38 128.5,-576.38"/>
</a>
</g>
</g>
<!-- Node4&#45;&gt;Node1 -->
<g id="edge3_Node000001_Node000004" class="edge">
<title>Node4&#45;&gt;Node1</title>
<g id="a_edge3_Node000001_Node000004"><a xlink:title=" ">
<path fill="none" stroke="#63b8ff" d="M203.43,-576.55C240.73,-525.64 314.88,-424.42 373.02,-345.07"/>
<polygon fill="none" stroke="#63b8ff" points="372.76,-345.42 373.08,-338.21 379.85,-335.74 379.53,-342.94 372.76,-345.42"/>
</a>
</g>
<text xml:space="preserve" text-anchor="start" x="271.7" y="-514.12" font-family="Helvetica,sans-Serif" font-size="10.00" fill="grey">&#45;m_vertices</text>
</g>
<!-- Node5 -->
<g id="Node000005" class="node">
<title>Node5</title>
<g id="a_Node000005"><a xlink:title=" ">
<polygon fill="white" stroke="none" points="498.88,-765.12 410.62,-765.12 410.62,-710.88 498.88,-710.88 498.88,-765.12"/>
<text xml:space="preserve" text-anchor="start" x="414.62" y="-751.38" font-family="Helvetica,sans-Serif" font-size="10.00">std::vector&lt; T &gt;</text>
<text xml:space="preserve" text-anchor="start" x="453.25" y="-734.62" font-family="Helvetica,sans-Serif" font-size="10.00"> </text>
<text xml:space="preserve" text-anchor="start" x="453.25" y="-717.88" font-family="Helvetica,sans-Serif" font-size="10.00"> </text>
<polygon fill="#666666" stroke="#666666" points="410.62,-746.38 410.62,-746.38 498.88,-746.38 498.88,-746.38 410.62,-746.38"/>
<polygon fill="#666666" stroke="#666666" points="410.62,-729.62 410.62,-729.62 498.88,-729.62 498.88,-729.62 410.62,-729.62"/>
<polygon fill="none" stroke="#666666" points="410.62,-710.88 410.62,-765.12 498.88,-765.12 498.88,-710.88 410.62,-710.88"/>
</a>
</g>
</g>
<!-- Node5&#45;&gt;Node4 -->
<g id="edge4_Node000004_Node000005" class="edge">
<title>Node5&#45;&gt;Node4</title>
<g id="a_edge4_Node000004_Node000005"><a xlink:title=" ">
<path fill="none" stroke="orange" d="M399.73,-732.58C355.89,-727.03 294.31,-714.54 247.5,-686.5 229.35,-675.63 213.33,-658.33 201.43,-643.03"/>
<polygon fill="orange" stroke="orange" points="399.19,-736.04 409.53,-733.73 400.01,-729.09 399.19,-736.04"/>
</a>
</g>
<text xml:space="preserve" text-anchor="start" x="250.5" y="-673.75" font-family="Helvetica,sans-Serif" font-size="10.00" fill="grey">&lt; Vertex_handle &gt;</text>
</g>
<!-- Node7 -->
<g id="Node000007" class="node">
<title>Node7</title>
<g id="a_Node000007"><a xlink:title=" ">
<polygon fill="white" stroke="none" points="388.38,-637 249.12,-637 249.12,-582.75 388.38,-582.75 388.38,-637"/>
<text xml:space="preserve" text-anchor="start" x="253.12" y="-623.25" font-family="Helvetica,sans-Serif" font-size="10.00">std::vector&lt; Cell_handle &gt;</text>
<text xml:space="preserve" text-anchor="start" x="271.44" y="-606.5" font-family="Helvetica,sans-Serif" font-size="10.00">+</text>
<text xml:space="preserve" text-anchor="start" x="302" y="-606.5" font-family="Helvetica,sans-Serif" font-size="10.00">elements</text>
<text xml:space="preserve" text-anchor="start" x="317.25" y="-589.75" font-family="Helvetica,sans-Serif" font-size="10.00"> </text>
<polygon fill="#666666" stroke="#666666" points="249.12,-618.25 249.12,-618.25 388.38,-618.25 388.38,-618.25 249.12,-618.25"/>
<polygon fill="#666666" stroke="#666666" points="249.12,-601.5 249.12,-601.5 300,-601.5 300,-601.5 249.12,-601.5"/>
<polygon fill="#666666" stroke="#666666" points="300,-601.5 300,-601.5 388.38,-601.5 388.38,-601.5 300,-601.5"/>
<polygon fill="none" stroke="#666666" points="249.12,-582.75 249.12,-637 388.38,-637 388.38,-582.75 249.12,-582.75"/>
</a>
</g>
</g>
<!-- Node5&#45;&gt;Node7 -->
<g id="edge7_Node000007_Node000005" class="edge">
<title>Node5&#45;&gt;Node7</title>
<g id="a_edge7_Node000007_Node000005"><a xlink:title=" ">
<path fill="none" stroke="orange" d="M400.81,-712.38C388.28,-705.15 375.59,-696.46 365.25,-686.5 350.6,-672.39 338.69,-652.72 330.6,-636.98"/>
<polygon fill="orange" stroke="orange" points="399.01,-715.38 409.46,-717.14 402.38,-709.25 399.01,-715.38"/>
</a>
</g>
<text xml:space="preserve" text-anchor="start" x="368.25" y="-673.75" font-family="Helvetica,sans-Serif" font-size="10.00" fill="grey">&lt; Cell_handle &gt;</text>
</g>
<!-- Node8 -->
<g id="Node000008" class="node">
<title>Node8</title>
<g id="a_Node000008"><a xlink:title=" ">
<polygon fill="white" stroke="none" points="503,-643.38 406.5,-643.38 406.5,-576.38 503,-576.38 503,-643.38"/>
<text xml:space="preserve" text-anchor="start" x="410.5" y="-629.62" font-family="Helvetica,sans-Serif" font-size="10.00">std::vector&lt; Facet</text>
<text xml:space="preserve" text-anchor="start" x="430.38" y="-616.88" font-family="Helvetica,sans-Serif" font-size="10.00">_t&lt; 3 &gt; &gt;</text>
<text xml:space="preserve" text-anchor="start" x="418.12" y="-600.12" font-family="Helvetica,sans-Serif" font-size="10.00">+</text>
<text xml:space="preserve" text-anchor="start" x="438" y="-600.12" font-family="Helvetica,sans-Serif" font-size="10.00">elements</text>
<text xml:space="preserve" text-anchor="start" x="453.25" y="-583.38" font-family="Helvetica,sans-Serif" font-size="10.00"> </text>
<polygon fill="#666666" stroke="#666666" points="406.5,-611.88 406.5,-611.88 503,-611.88 503,-611.88 406.5,-611.88"/>
<polygon fill="#666666" stroke="#666666" points="406.5,-595.12 406.5,-595.12 436,-595.12 436,-595.12 406.5,-595.12"/>
<polygon fill="#666666" stroke="#666666" points="436,-595.12 436,-595.12 503,-595.12 503,-595.12 436,-595.12"/>
<polygon fill="none" stroke="#666666" points="406.5,-576.38 406.5,-643.38 503,-643.38 503,-576.38 406.5,-576.38"/>
</a>
</g>
</g>
<!-- Node5&#45;&gt;Node8 -->
<g id="edge9_Node000008_Node000005" class="edge">
<title>Node5&#45;&gt;Node8</title>
<g id="a_edge9_Node000008_Node000005"><a xlink:title=" ">
<path fill="none" stroke="orange" d="M454.75,-699.87C454.75,-681.8 454.75,-660.29 454.75,-642.94"/>
<polygon fill="orange" stroke="orange" points="451.25,-699.66 454.75,-709.66 458.25,-699.66 451.25,-699.66"/>
</a>
</g>
<text xml:space="preserve" text-anchor="start" x="457.75" y="-673.75" font-family="Helvetica,sans-Serif" font-size="10.00" fill="grey">&lt; Facet_t&lt; 3 &gt; &gt;</text>
</g>
<!-- Node9 -->
<g id="Node000009" class="node">
<title>Node9</title>
<g id="a_Node000009"><a xlink:title=" ">
<polygon fill="white" stroke="none" points="628.62,-643.38 520.88,-643.38 520.88,-576.38 628.62,-576.38 628.62,-643.38"/>
<text xml:space="preserve" text-anchor="start" x="524.88" y="-629.62" font-family="Helvetica,sans-Serif" font-size="10.00">std::vector&lt; Volume</text>
<text xml:space="preserve" text-anchor="start" x="553.75" y="-616.88" font-family="Helvetica,sans-Serif" font-size="10.00">_entry &gt;</text>
<text xml:space="preserve" text-anchor="start" x="535.31" y="-600.12" font-family="Helvetica,sans-Serif" font-size="10.00">+</text>
<text xml:space="preserve" text-anchor="start" x="558" y="-600.12" font-family="Helvetica,sans-Serif" font-size="10.00">elements</text>
<text xml:space="preserve" text-anchor="start" x="573.25" y="-583.38" font-family="Helvetica,sans-Serif" font-size="10.00"> </text>
<polygon fill="#666666" stroke="#666666" points="520.88,-611.88 520.88,-611.88 628.62,-611.88 628.62,-611.88 520.88,-611.88"/>
<polygon fill="#666666" stroke="#666666" points="520.88,-595.12 520.88,-595.12 556,-595.12 556,-595.12 520.88,-595.12"/>
<polygon fill="#666666" stroke="#666666" points="556,-595.12 556,-595.12 628.62,-595.12 628.62,-595.12 556,-595.12"/>
<polygon fill="none" stroke="#666666" points="520.88,-576.38 520.88,-643.38 628.62,-643.38 628.62,-576.38 520.88,-576.38"/>
</a>
</g>
</g>
<!-- Node5&#45;&gt;Node9 -->
<g id="edge11_Node000009_Node000005" class="edge">
<title>Node5&#45;&gt;Node9</title>
<g id="a_edge11_Node000009_Node000005"><a xlink:title=" ">
<path fill="none" stroke="orange" d="M509.02,-717.09C523.89,-709.45 538.89,-699.38 549.75,-686.5 560,-674.34 566.09,-657.85 569.68,-643.37"/>
<polygon fill="orange" stroke="orange" points="507.65,-713.86 500.16,-721.35 510.68,-720.17 507.65,-713.86"/>
</a>
</g>
<text xml:space="preserve" text-anchor="start" x="564.11" y="-673.75" font-family="Helvetica,sans-Serif" font-size="10.00" fill="grey">&lt; Volume_entry &gt;</text>
</g>
<!-- Node10 -->
<g id="Node000010" class="node">
<title>Node10</title>
<g id="a_Node000010"><a xlink:title=" ">
<polygon fill="white" stroke="none" points="780.38,-643.38 647.12,-643.38 647.12,-576.38 780.38,-576.38 780.38,-643.38"/>
<text xml:space="preserve" text-anchor="start" x="651.12" y="-629.62" font-family="Helvetica,sans-Serif" font-size="10.00">std::vector&lt; Edge_handle</text>
<text xml:space="preserve" text-anchor="start" x="689.38" y="-616.88" font-family="Helvetica,sans-Serif" font-size="10.00">_t&lt; 3 &gt; &gt;</text>
<text xml:space="preserve" text-anchor="start" x="667.94" y="-600.12" font-family="Helvetica,sans-Serif" font-size="10.00">+</text>
<text xml:space="preserve" text-anchor="start" x="697" y="-600.12" font-family="Helvetica,sans-Serif" font-size="10.00">elements</text>
<text xml:space="preserve" text-anchor="start" x="712.25" y="-583.38" font-family="Helvetica,sans-Serif" font-size="10.00"> </text>
<polygon fill="#666666" stroke="#666666" points="647.12,-611.88 647.12,-611.88 780.38,-611.88 780.38,-611.88 647.12,-611.88"/>
<polygon fill="#666666" stroke="#666666" points="647.12,-595.12 647.12,-595.12 695,-595.12 695,-595.12 647.12,-595.12"/>
<polygon fill="#666666" stroke="#666666" points="695,-595.12 695,-595.12 780.38,-595.12 780.38,-595.12 695,-595.12"/>
<polygon fill="none" stroke="#666666" points="647.12,-576.38 647.12,-643.38 780.38,-643.38 780.38,-576.38 647.12,-576.38"/>
</a>
</g>
</g>
<!-- Node5&#45;&gt;Node10 -->
<g id="edge13_Node000010_Node000005" class="edge">
<title>Node5&#45;&gt;Node10</title>
<g id="a_edge13_Node000010_Node000005"><a xlink:title=" ">
<path fill="none" stroke="orange" d="M509.97,-734.03C554.12,-729.31 615.83,-717.23 660.75,-686.5 676.63,-675.64 689.27,-658.34 698.21,-643.03"/>
<polygon fill="orange" stroke="orange" points="509.71,-730.54 500.09,-734.98 510.38,-737.51 509.71,-730.54"/>
</a>
</g>
<text xml:space="preserve" text-anchor="start" x="683.92" y="-673.75" font-family="Helvetica,sans-Serif" font-size="10.00" fill="grey">&lt; Edge_handle_t&lt; 3 &gt; &gt;</text>
</g>
<!-- Node6 -->
<g id="Node000006" class="node">
<title>Node6</title>
<g id="a_Node000006"><a xlink:title=" ">
<polygon fill="white" stroke="none" points="461.75,-880.5 447.75,-880.5 447.75,-826.25 461.75,-826.25 461.75,-880.5"/>
<text xml:space="preserve" text-anchor="start" x="451.75" y="-866.75" font-family="Helvetica,sans-Serif" font-size="10.00">T</text>
<text xml:space="preserve" text-anchor="start" x="453.25" y="-850" font-family="Helvetica,sans-Serif" font-size="10.00"> </text>
<text xml:space="preserve" text-anchor="start" x="453.25" y="-833.25" font-family="Helvetica,sans-Serif" font-size="10.00"> </text>
<polygon fill="#bfbfbf" stroke="#bfbfbf" points="447.75,-861.75 447.75,-861.75 461.75,-861.75 461.75,-861.75 447.75,-861.75"/>
<polygon fill="#bfbfbf" stroke="#bfbfbf" points="447.75,-845 447.75,-845 461.75,-845 461.75,-845 447.75,-845"/>
<polygon fill="none" stroke="#bfbfbf" points="447.75,-826.25 447.75,-880.5 461.75,-880.5 461.75,-826.25 447.75,-826.25"/>
</a>
</g>
</g>
<!-- Node6&#45;&gt;Node5 -->
<g id="edge5_Node000005_Node000006" class="edge">
<title>Node6&#45;&gt;Node5</title>
<g id="a_edge5_Node000005_Node000006"><a xlink:title=" ">
<path fill="none" stroke="#63b8ff" d="M454.75,-826.36C454.75,-811.96 454.75,-793.78 454.75,-777.73"/>
<polygon fill="none" stroke="#63b8ff" points="454.75,-777.79 450.75,-771.79 454.75,-765.79 458.75,-771.79 454.75,-777.79"/>
</a>
</g>
<text xml:space="preserve" text-anchor="start" x="457.75" y="-795.5" font-family="Helvetica,sans-Serif" font-size="10.00" fill="grey">+elements</text>
</g>
<!-- Node7&#45;&gt;Node1 -->
<g id="edge6_Node000001_Node000007" class="edge">
<title>Node7&#45;&gt;Node1</title>
<g id="a_edge6_Node000001_Node000007"><a xlink:title=" ">
<path fill="none" stroke="#63b8ff" d="M328.21,-582.78C338.68,-553.87 356.63,-504.33 375.77,-451.49"/>
<polygon fill="none" stroke="#63b8ff" points="375.74,-451.58 374.02,-444.58 379.83,-440.3 381.54,-447.3 375.74,-451.58"/>
</a>
</g>
<text xml:space="preserve" text-anchor="start" x="365.74" y="-539.25" font-family="Helvetica,sans-Serif" font-size="10.00" fill="grey">&#45;m_cells</text>
<text xml:space="preserve" text-anchor="start" x="365.74" y="-522.5" font-family="Helvetica,sans-Serif" font-size="10.00" fill="grey">&#45;m_one_three</text>
<text xml:space="preserve" text-anchor="start" x="365.74" y="-505.75" font-family="Helvetica,sans-Serif" font-size="10.00" fill="grey">&#45;m_three_one</text>
<text xml:space="preserve" text-anchor="start" x="365.74" y="-489" font-family="Helvetica,sans-Serif" font-size="10.00" fill="grey">&#45;m_two_two</text>
</g>
<!-- Node8&#45;&gt;Node1 -->
<g id="edge8_Node000001_Node000008" class="edge">
<title>Node8&#45;&gt;Node1</title>
<g id="a_edge8_Node000001_Node000008"><a xlink:title=" ">
<path fill="none" stroke="#63b8ff" d="M454.75,-576.55C454.75,-552.31 454.75,-516.69 454.75,-477.44"/>
<polygon fill="none" stroke="#63b8ff" points="454.75,-477.48 450.75,-471.48 454.75,-465.48 458.75,-471.48 454.75,-477.48"/>
</a>
</g>
<text xml:space="preserve" text-anchor="start" x="457.75" y="-514.12" font-family="Helvetica,sans-Serif" font-size="10.00" fill="grey">&#45;m_faces</text>
</g>
<!-- Node9&#45;&gt;Node1 -->
<g id="edge10_Node000001_Node000009" class="edge">
<title>Node9&#45;&gt;Node1</title>
<g id="a_edge10_Node000001_Node000009"><a xlink:title=" ">
<path fill="none" stroke="#63b8ff" d="M564.42,-576.55C556.64,-552.21 545.18,-516.38 532.57,-476.93"/>
<polygon fill="none" stroke="#63b8ff" points="532.55,-476.87 526.91,-472.37 528.9,-465.44 534.53,-469.94 532.55,-476.87"/>
</a>
</g>
<text xml:space="preserve" text-anchor="start" x="557.63" y="-514.12" font-family="Helvetica,sans-Serif" font-size="10.00" fill="grey">&#45;m_spacelike_facets</text>
</g>
<!-- Node10&#45;&gt;Node1 -->
<g id="edge12_Node000001_Node000010" class="edge">
<title>Node10&#45;&gt;Node1</title>
<g id="a_edge12_Node000001_Node000010"><a xlink:title=" ">
<path fill="none" stroke="#63b8ff" d="M704.4,-576.51C696.07,-550.26 682.46,-512.85 664.75,-483 629.41,-423.44 579.9,-363.83 537.83,-317.82"/>
<polygon fill="none" stroke="#63b8ff" points="537.99,-318 530.98,-316.3 529.85,-309.17 536.86,-310.87 537.99,-318"/>
</a>
</g>
<text xml:space="preserve" text-anchor="start" x="698.23" y="-530.88" font-family="Helvetica,sans-Serif" font-size="10.00" fill="grey">&#45;m_edges</text>
<text xml:space="preserve" text-anchor="start" x="698.23" y="-514.12" font-family="Helvetica,sans-Serif" font-size="10.00" fill="grey">&#45;m_spacelike_edges</text>
<text xml:space="preserve" text-anchor="start" x="698.23" y="-497.38" font-family="Helvetica,sans-Serif" font-size="10.00" fill="grey">&#45;m_timelike_edges</text>
</g>
<!-- Node11 -->
<g id="Node000011" class="node">
<title>Node11</title>
<g id="a_Node000011"><a xlink:href="classcdt_1_1foliated__triangulations_1_1_foliated_triangulation.html" target="_top" xlink:title=" ">
<polygon fill="white" stroke="none" points="937.38,-649.75 798.12,-649.75 798.12,-570 937.38,-570 937.38,-649.75"/>
<text xml:space="preserve" text-anchor="start" x="802.12" y="-636" font-family="Helvetica,sans-Serif" font-size="10.00">cdt::foliated_triangulations</text>
<text xml:space="preserve" text-anchor="start" x="802.12" y="-623.25" font-family="Helvetica,sans-Serif" font-size="10.00">::FoliatedTriangulation&lt;</text>
<text xml:space="preserve" text-anchor="start" x="835.12" y="-610.5" font-family="Helvetica,sans-Serif" font-size="10.00"> dimension &gt;</text>
<text xml:space="preserve" text-anchor="start" x="866.25" y="-593.75" font-family="Helvetica,sans-Serif" font-size="10.00"> </text>
<text xml:space="preserve" text-anchor="start" x="866.25" y="-577" font-family="Helvetica,sans-Serif" font-size="10.00"> </text>
<polygon fill="#666666" stroke="#666666" points="798.12,-605.5 798.12,-605.5 937.38,-605.5 937.38,-605.5 798.12,-605.5"/>
<polygon fill="#666666" stroke="#666666" points="798.12,-588.75 798.12,-588.75 937.38,-588.75 937.38,-588.75 798.12,-588.75"/>
<polygon fill="none" stroke="#666666" points="798.12,-570 798.12,-649.75 937.38,-649.75 937.38,-570 798.12,-570"/>
</a>
</g>
</g>
<!-- Node11&#45;&gt;Node1 -->
<g id="edge14_Node000001_Node000011" class="edge">
<title>Node11&#45;&gt;Node1</title>
<g id="a_edge14_Node000001_Node000011"><a xlink:title=" ">
<path fill="none" stroke="orange" d="M849.43,-559.93C838.61,-535.15 823.19,-505.61 803.75,-483 724.95,-391.38 605.85,-315.67 529.18,-272.51"/>
<polygon fill="orange" stroke="orange" points="846.08,-560.98 853.2,-568.83 852.52,-558.25 846.08,-560.98"/>
</a>
</g>
<text xml:space="preserve" text-anchor="start" x="848.48" y="-514.12" font-family="Helvetica,sans-Serif" font-size="10.00" fill="grey">&lt; 3 &gt;</text>
</g>
</g>
</svg>

<g id="navigator" transform="translate(0 0)" fill="#404254">
  <rect fill="#f2f5e9" fill-opacity="0.5" stroke="#606060" stroke-width=".5" x="0" y="0" width="60" height="60"/>
  <use id="zoomplus" xlink:href="#zoomPlus" x="17" y="9" onmousedown="handleZoom(evt,'in')"/>
  <use id="zoomminus" xlink:href="#zoomMin" x="42" y="9" onmousedown="handleZoom(evt,'out')"/>
  <use id="reset" xlink:href="#resetDef" x="30" y="36" onmousedown="handleReset()"/>
   <use id="arrowup" xlink:href="#arrowUp" x="0" y="0" onmousedown="handlePan(0,-1)"/>
  <use id="arrowright" xlink:href="#arrowRight" x="0" y="0" onmousedown="handlePan(1,0)"/>
  <use id="arrowdown" xlink:href="#arrowDown" x="0" y="0" onmousedown="handlePan(0,1)"/>
  <use id="arrowleft" xlink:href="#arrowLeft" x="0" y="0" onmousedown="handlePan(-1,0)"/>
</g>
<svg viewBox="0 0 15 15" width="100%" height="30px" preserveAspectRatio="xMaxYMin meet">
 <g id="arrow_out" transform="scale(0.3 0.3)">
  <a xlink:href="classcdt_1_1foliated__triangulations_1_1_foliated_triangulation_3_013_01_4__coll__graph_org.svg" target="_base">
   <rect id="button" ry="5" rx="5" y="6" x="6" height="38" width="38"
        fill="#f2f5e9" fill-opacity="0.5" stroke="#606060" stroke-width="1.0"/>
   <path id="arrow"
     d="M 11.500037,31.436501 C 11.940474,20.09759 22.043105,11.32322 32.158766,21.979434 L 37.068811,17.246167 C 37.068811,17.246167 37.088388,32 37.088388,32 L 22.160133,31.978069 C 22.160133,31.978069 26.997745,27.140456 26.997745,27.140456 C 18.528582,18.264221 13.291696,25.230495 11.500037,31.436501 z"
     style="fill:#404040;"/>
  </a>
 </g>
</svg>

<style type='text/css'>
<![CDATA[
[data-mouse-over-selected='false'] { opacity: 0.7; }
[data-mouse-over-selected='true']  { opacity: 1.0; }
]]>
</style>
<script type="application/ecmascript"><![CDATA[
document.addEventListener('DOMContentLoaded', (event) => {
  highlightEdges();
  highlightAdjacentNodes();
});
]]></script>
</svg>
