<?xml version="1.0" encoding="UTF-8" standalone="no"?>
<!DOCTYPE svg PUBLIC "-//W3C//DTD SVG 1.1//EN"
 "http://www.w3.org/Graphics/SVG/1.1/DTD/svg11.dtd">
<!-- Generated by graphviz version 2.43.0 (0)
 -->
<!-- Title: move_tracker::MoveTracker&lt; ManifoldType &gt; Pages: 1 -->
<svg width="255pt" height="590pt"
 viewBox="0.00 0.00 254.50 590.00" xmlns="http://www.w3.org/2000/svg" xmlns:xlink="http://www.w3.org/1999/xlink">
<g id="graph0" class="graph" transform="scale(1 1) rotate(0) translate(4 586)">
<title>move_tracker::MoveTracker&lt; ManifoldType &gt;</title>
<polygon fill="white" stroke="transparent" points="-4,4 -4,-586 250.5,-586 250.5,4 -4,4"/>
<!-- Node1 -->
<g id="node1" class="node">
<title>Node1</title>
<g id="a_node1"><a xlink:title="The data and methods to track ergodic moves.">
<polygon fill="#bfbfbf" stroke="black" points="24,-0.5 24,-222.5 175,-222.5 175,-0.5 24,-0.5"/>
<text text-anchor="start" x="32" y="-210.5" font-family="Helvetica,sans-Serif" font-size="10.00">move_tracker::MoveTracker</text>
<text text-anchor="middle" x="99.5" y="-199.5" font-family="Helvetica,sans-Serif" font-size="10.00">&lt; ManifoldType &gt;</text>
<polyline fill="none" stroke="black" points="24,-192.5 175,-192.5 "/>
<text text-anchor="middle" x="99.5" y="-180.5" font-family="Helvetica,sans-Serif" font-size="10.00"> </text>
<polyline fill="none" stroke="black" points="24,-173.5 175,-173.5 "/>
<text text-anchor="start" x="32" y="-161.5" font-family="Helvetica,sans-Serif" font-size="10.00">+ eight_two_moves()</text>
<text text-anchor="start" x="32" y="-150.5" font-family="Helvetica,sans-Serif" font-size="10.00">+ four_four_moves()</text>
<text text-anchor="start" x="32" y="-139.5" font-family="Helvetica,sans-Serif" font-size="10.00">+ four_six_moves()</text>
<text text-anchor="start" x="32" y="-128.5" font-family="Helvetica,sans-Serif" font-size="10.00">+ four_two_moves()</text>
<text text-anchor="start" x="32" y="-117.5" font-family="Helvetica,sans-Serif" font-size="10.00">+ operator+=()</text>
<text text-anchor="start" x="32" y="-106.5" font-family="Helvetica,sans-Serif" font-size="10.00">+ operator[]()</text>
<text text-anchor="start" x="32" y="-95.5" font-family="Helvetica,sans-Serif" font-size="10.00">+ operator[]()</text>
<text text-anchor="start" x="32" y="-84.5" font-family="Helvetica,sans-Serif" font-size="10.00">+ six_four_moves()</text>
<text text-anchor="start" x="32" y="-73.5" font-family="Helvetica,sans-Serif" font-size="10.00">+ six_two_moves()</text>
<text text-anchor="start" x="32" y="-62.5" font-family="Helvetica,sans-Serif" font-size="10.00">+ three_three_moves()</text>
<text text-anchor="start" x="32" y="-51.5" font-family="Helvetica,sans-Serif" font-size="10.00">+ three_two_moves()</text>
<text text-anchor="start" x="32" y="-40.5" font-family="Helvetica,sans-Serif" font-size="10.00">+ two_eight_moves()</text>
<text text-anchor="start" x="32" y="-29.5" font-family="Helvetica,sans-Serif" font-size="10.00">+ two_four_moves()</text>
<text text-anchor="start" x="32" y="-18.5" font-family="Helvetica,sans-Serif" font-size="10.00">+ two_six_moves()</text>
<text text-anchor="start" x="32" y="-7.5" font-family="Helvetica,sans-Serif" font-size="10.00">+ two_three_moves()</text>
</a>
</g>
</g>
<!-- Node2 -->
<g id="node2" class="node">
<title>Node2</title>
<g id="a_node2"><a xlink:title=" ">
<polygon fill="white" stroke="#bfbfbf" points="0,-270.5 0,-349.5 199,-349.5 199,-270.5 0,-270.5"/>
<text text-anchor="start" x="8" y="-337.5" font-family="Helvetica,sans-Serif" font-size="10.00">std::array&lt; Int_precision,</text>
<text text-anchor="start" x="8" y="-326.5" font-family="Helvetica,sans-Serif" font-size="10.00"> moves_per_dimension(ManifoldType</text>
<text text-anchor="middle" x="99.5" y="-315.5" font-family="Helvetica,sans-Serif" font-size="10.00">::dimension)&gt;</text>
<polyline fill="none" stroke="#bfbfbf" points="0,-308.5 199,-308.5 "/>
<text text-anchor="start" x="8" y="-296.5" font-family="Helvetica,sans-Serif" font-size="10.00">+ elements</text>
<polyline fill="none" stroke="#bfbfbf" points="0,-289.5 199,-289.5 "/>
<text text-anchor="middle" x="99.5" y="-277.5" font-family="Helvetica,sans-Serif" font-size="10.00"> </text>
</a>
</g>
</g>
<!-- Node2&#45;&gt;Node1 -->
<g id="edge1" class="edge">
<title>Node2&#45;&gt;Node1</title>
<path fill="none" stroke="#404040" d="M99.5,-270.18C99.5,-259.58 99.5,-247.51 99.5,-234.87"/>
<polygon fill="none" stroke="#404040" points="99.5,-234.61 95.5,-228.61 99.5,-222.61 103.5,-228.61 99.5,-234.61"/>
<text text-anchor="middle" x="122" y="-244" font-family="Helvetica,sans-Serif" font-size="10.00"> +moves</text>
</g>
<!-- Node3 -->
<g id="node3" class="node">
<title>Node3</title>
<g id="a_node3"><a xlink:title="STL class.">
<polygon fill="white" stroke="#bfbfbf" points="53.5,-419.5 53.5,-476.5 145.5,-476.5 145.5,-419.5 53.5,-419.5"/>
<text text-anchor="middle" x="99.5" y="-464.5" font-family="Helvetica,sans-Serif" font-size="10.00">std::array&lt; T &gt;</text>
<polyline fill="none" stroke="#bfbfbf" points="53.5,-457.5 145.5,-457.5 "/>
<text text-anchor="middle" x="99.5" y="-445.5" font-family="Helvetica,sans-Serif" font-size="10.00"> </text>
<polyline fill="none" stroke="#bfbfbf" points="53.5,-438.5 145.5,-438.5 "/>
<text text-anchor="middle" x="99.5" y="-426.5" font-family="Helvetica,sans-Serif" font-size="10.00"> </text>
</a>
</g>
</g>
<!-- Node3&#45;&gt;Node2 -->
<g id="edge2" class="edge">
<title>Node3&#45;&gt;Node2</title>
<path fill="none" stroke="orange" d="M99.5,-409.3C99.5,-390.69 99.5,-368.28 99.5,-349.56"/>
<polygon fill="orange" stroke="orange" points="96,-409.48 99.5,-419.48 103,-409.48 96,-409.48"/>
<text text-anchor="start" x="99.5" y="-393" font-family="Helvetica,sans-Serif" font-size="10.00"> &lt; Int_precision, moves</text>
<text text-anchor="start" x="99.5" y="-382" font-family="Helvetica,sans-Serif" font-size="10.00">_per_dimension(ManifoldType</text>
<text text-anchor="middle" x="173" y="-371" font-family="Helvetica,sans-Serif" font-size="10.00">::dimension)&gt;</text>
</g>
<!-- Node4 -->
<g id="node4" class="node">
<title>Node4</title>
<g id="a_node4"><a xlink:title=" ">
<polygon fill="white" stroke="#bfbfbf" points="85,-524.5 85,-581.5 114,-581.5 114,-524.5 85,-524.5"/>
<text text-anchor="middle" x="99.5" y="-569.5" font-family="Helvetica,sans-Serif" font-size="10.00">T</text>
<polyline fill="none" stroke="#bfbfbf" points="85,-562.5 114,-562.5 "/>
<text text-anchor="middle" x="99.5" y="-550.5" font-family="Helvetica,sans-Serif" font-size="10.00"> </text>
<polyline fill="none" stroke="#bfbfbf" points="85,-543.5 114,-543.5 "/>
<text text-anchor="middle" x="99.5" y="-531.5" font-family="Helvetica,sans-Serif" font-size="10.00"> </text>
</a>
</g>
</g>
<!-- Node4&#45;&gt;Node3 -->
<g id="edge3" class="edge">
<title>Node4&#45;&gt;Node3</title>
<path fill="none" stroke="#404040" d="M99.5,-524.4C99.5,-513.55 99.5,-500.87 99.5,-489.05"/>
<polygon fill="none" stroke="#404040" points="99.5,-488.68 95.5,-482.68 99.5,-476.68 103.5,-482.68 99.5,-488.68"/>
<text text-anchor="middle" x="128.5" y="-498" font-family="Helvetica,sans-Serif" font-size="10.00"> +elements</text>
</g>
</g>
</svg>
