<?xml version="1.0" encoding="UTF-8" standalone="no"?>
<!DOCTYPE svg PUBLIC "-//W3C//DTD SVG 1.1//EN"
 "http://www.w3.org/Graphics/SVG/1.1/DTD/svg11.dtd">
<!-- Generated by graphviz version 2.43.0 (0)
 -->
<!-- Title: foliated_triangulations::FoliatedTriangulation&lt; 3 &gt; Pages: 1 -->
<svg width="763pt" height="678pt"
 viewBox="0.00 0.00 762.50 678.00" xmlns="http://www.w3.org/2000/svg" xmlns:xlink="http://www.w3.org/1999/xlink">
<g id="graph0" class="graph" transform="scale(1 1) rotate(0) translate(4 674)">
<title>foliated_triangulations::FoliatedTriangulation&lt; 3 &gt;</title>
<polygon fill="white" stroke="transparent" points="-4,4 -4,-674 758.5,-674 758.5,4 -4,4"/>
<!-- Node1 -->
<g id="node1" class="node">
<title>Node1</title>
<g id="a_node1"><a xlink:title="3D Triangulation">
<polygon fill="#bfbfbf" stroke="black" points="282,-0.5 282,-277.5 435,-277.5 435,-0.5 282,-0.5"/>
<text text-anchor="start" x="290" y="-265.5" font-family="Helvetica,sans-Serif" font-size="10.00">foliated_triangulations</text>
<text text-anchor="middle" x="358.5" y="-254.5" font-family="Helvetica,sans-Serif" font-size="10.00">::FoliatedTriangulation&lt; 3 &gt;</text>
<polyline fill="none" stroke="black" points="282,-247.5 435,-247.5 "/>
<text text-anchor="start" x="290" y="-235.5" font-family="Helvetica,sans-Serif" font-size="10.00">&#45; m_foliation_spacing</text>
<text text-anchor="start" x="290" y="-224.5" font-family="Helvetica,sans-Serif" font-size="10.00">&#45; m_initial_radius</text>
<text text-anchor="start" x="290" y="-213.5" font-family="Helvetica,sans-Serif" font-size="10.00">&#45; m_max_timevalue</text>
<text text-anchor="start" x="290" y="-202.5" font-family="Helvetica,sans-Serif" font-size="10.00">&#45; m_min_timevalue</text>
<text text-anchor="start" x="290" y="-191.5" font-family="Helvetica,sans-Serif" font-size="10.00">&#45; m_triangulation</text>
<polyline fill="none" stroke="black" points="282,-184.5 435,-184.5 "/>
<text text-anchor="start" x="290" y="-172.5" font-family="Helvetica,sans-Serif" font-size="10.00">+ FoliatedTriangulation()</text>
<text text-anchor="start" x="290" y="-161.5" font-family="Helvetica,sans-Serif" font-size="10.00">+ FoliatedTriangulation()</text>
<text text-anchor="start" x="290" y="-150.5" font-family="Helvetica,sans-Serif" font-size="10.00">+ FoliatedTriangulation()</text>
<text text-anchor="start" x="290" y="-139.5" font-family="Helvetica,sans-Serif" font-size="10.00">+ FoliatedTriangulation()</text>
<text text-anchor="start" x="290" y="-128.5" font-family="Helvetica,sans-Serif" font-size="10.00">+ FoliatedTriangulation()</text>
<text text-anchor="start" x="290" y="-117.5" font-family="Helvetica,sans-Serif" font-size="10.00">+ FoliatedTriangulation()</text>
<text text-anchor="start" x="290" y="-106.5" font-family="Helvetica,sans-Serif" font-size="10.00">+ ~FoliatedTriangulation()</text>
<text text-anchor="start" x="290" y="-95.5" font-family="Helvetica,sans-Serif" font-size="10.00">+ check_all_cells()</text>
<text text-anchor="start" x="290" y="-84.5" font-family="Helvetica,sans-Serif" font-size="10.00">+ check_all_vertices()</text>
<text text-anchor="start" x="290" y="-73.5" font-family="Helvetica,sans-Serif" font-size="10.00">+ degree()</text>
<text text-anchor="start" x="290" y="-62.5" font-family="Helvetica,sans-Serif" font-size="10.00">and 48 more...</text>
<text text-anchor="start" x="290" y="-51.5" font-family="Helvetica,sans-Serif" font-size="10.00">&#45; classify_cells()</text>
<text text-anchor="start" x="290" y="-40.5" font-family="Helvetica,sans-Serif" font-size="10.00">&#45; collect_cells()</text>
<text text-anchor="start" x="290" y="-29.5" font-family="Helvetica,sans-Serif" font-size="10.00">&#45; collect_edges()</text>
<text text-anchor="start" x="290" y="-18.5" font-family="Helvetica,sans-Serif" font-size="10.00">&#45; collect_faces()</text>
<text text-anchor="start" x="290" y="-7.5" font-family="Helvetica,sans-Serif" font-size="10.00">&#45; collect_vertices()</text>
</a>
</g>
</g>
<!-- Node2 -->
<g id="node2" class="node">
<title>Node2</title>
<g id="a_node2"><a xlink:title=" ">
<polygon fill="white" stroke="#bfbfbf" points="0,-369.5 0,-437.5 111,-437.5 111,-369.5 0,-369.5"/>
<text text-anchor="start" x="8" y="-425.5" font-family="Helvetica,sans-Serif" font-size="10.00">std::vector&lt; Vertex</text>
<text text-anchor="middle" x="55.5" y="-414.5" font-family="Helvetica,sans-Serif" font-size="10.00">_handle_t&lt; 3 &gt; &gt;</text>
<polyline fill="none" stroke="#bfbfbf" points="0,-407.5 111,-407.5 "/>
<text text-anchor="start" x="8" y="-395.5" font-family="Helvetica,sans-Serif" font-size="10.00">+ elements</text>
<polyline fill="none" stroke="#bfbfbf" points="0,-388.5 111,-388.5 "/>
<text text-anchor="middle" x="55.5" y="-376.5" font-family="Helvetica,sans-Serif" font-size="10.00"> </text>
</a>
</g>
</g>
<!-- Node2&#45;&gt;Node1 -->
<g id="edge1" class="edge">
<title>Node2&#45;&gt;Node1</title>
<path fill="none" stroke="#404040" d="M92.36,-369.44C116.01,-348.32 147.44,-320.4 175.5,-296 206.9,-268.69 241.6,-238.99 272.26,-212.91"/>
<polygon fill="none" stroke="#404040" points="272.49,-212.71 274.47,-205.77 281.64,-204.94 279.66,-211.87 272.49,-212.71"/>
<text text-anchor="middle" x="201.5" y="-315.5" font-family="Helvetica,sans-Serif" font-size="10.00"> &#45;m_points</text>
</g>
<!-- Node3 -->
<g id="node3" class="node">
<title>Node3</title>
<g id="a_node3"><a xlink:title="STL class.">
<polygon fill="white" stroke="#bfbfbf" points="310,-507.5 310,-564.5 407,-564.5 407,-507.5 310,-507.5"/>
<text text-anchor="middle" x="358.5" y="-552.5" font-family="Helvetica,sans-Serif" font-size="10.00">std::vector&lt; T &gt;</text>
<polyline fill="none" stroke="#bfbfbf" points="310,-545.5 407,-545.5 "/>
<text text-anchor="middle" x="358.5" y="-533.5" font-family="Helvetica,sans-Serif" font-size="10.00"> </text>
<polyline fill="none" stroke="#bfbfbf" points="310,-526.5 407,-526.5 "/>
<text text-anchor="middle" x="358.5" y="-514.5" font-family="Helvetica,sans-Serif" font-size="10.00"> </text>
</a>
</g>
</g>
<!-- Node3&#45;&gt;Node2 -->
<g id="edge2" class="edge">
<title>Node3&#45;&gt;Node2</title>
<path fill="none" stroke="orange" d="M299.59,-529.66C235.76,-522.92 138.94,-509.66 108.5,-489 90.3,-476.65 77.12,-455.76 68.45,-437.84"/>
<polygon fill="orange" stroke="orange" points="299.62,-533.18 309.93,-530.72 300.34,-526.21 299.62,-533.18"/>
<text text-anchor="start" x="108.5" y="-481" font-family="Helvetica,sans-Serif" font-size="10.00"> &lt; Vertex_handle_t&lt;</text>
<text text-anchor="middle" x="159.5" y="-470" font-family="Helvetica,sans-Serif" font-size="10.00"> 3 &gt; &gt;</text>
</g>
<!-- Node7 -->
<g id="node7" class="node">
<title>Node7</title>
<g id="a_node7"><a xlink:title=" ">
<polygon fill="white" stroke="#bfbfbf" points="129.5,-369.5 129.5,-437.5 271.5,-437.5 271.5,-369.5 129.5,-369.5"/>
<text text-anchor="start" x="137.5" y="-425.5" font-family="Helvetica,sans-Serif" font-size="10.00">std::vector&lt; Edge_handle</text>
<text text-anchor="middle" x="200.5" y="-414.5" font-family="Helvetica,sans-Serif" font-size="10.00">_t&lt; 3 &gt; &gt;</text>
<polyline fill="none" stroke="#bfbfbf" points="129.5,-407.5 271.5,-407.5 "/>
<text text-anchor="start" x="137.5" y="-395.5" font-family="Helvetica,sans-Serif" font-size="10.00">+ elements</text>
<polyline fill="none" stroke="#bfbfbf" points="129.5,-388.5 271.5,-388.5 "/>
<text text-anchor="middle" x="200.5" y="-376.5" font-family="Helvetica,sans-Serif" font-size="10.00"> </text>
</a>
</g>
</g>
<!-- Node3&#45;&gt;Node7 -->
<g id="edge8" class="edge">
<title>Node3&#45;&gt;Node7</title>
<path fill="none" stroke="orange" d="M300.14,-526.14C275.2,-519.64 247.51,-508.4 228.5,-489 215.09,-475.31 208.1,-455.06 204.46,-437.81"/>
<polygon fill="orange" stroke="orange" points="299.36,-529.55 309.9,-528.48 301,-522.74 299.36,-529.55"/>
<text text-anchor="middle" x="291.5" y="-475.5" font-family="Helvetica,sans-Serif" font-size="10.00"> &lt; Edge_handle_t&lt; 3 &gt; &gt;</text>
</g>
<!-- Node8 -->
<g id="node8" class="node">
<title>Node8</title>
<g id="a_node8"><a xlink:title=" ">
<polygon fill="white" stroke="#bfbfbf" points="290,-369.5 290,-437.5 427,-437.5 427,-369.5 290,-369.5"/>
<text text-anchor="start" x="298" y="-425.5" font-family="Helvetica,sans-Serif" font-size="10.00">std::vector&lt; Cell_handle</text>
<text text-anchor="middle" x="358.5" y="-414.5" font-family="Helvetica,sans-Serif" font-size="10.00">_t&lt; 3 &gt; &gt;</text>
<polyline fill="none" stroke="#bfbfbf" points="290,-407.5 427,-407.5 "/>
<text text-anchor="start" x="298" y="-395.5" font-family="Helvetica,sans-Serif" font-size="10.00">+ elements</text>
<polyline fill="none" stroke="#bfbfbf" points="290,-388.5 427,-388.5 "/>
<text text-anchor="middle" x="358.5" y="-376.5" font-family="Helvetica,sans-Serif" font-size="10.00"> </text>
</a>
</g>
</g>
<!-- Node3&#45;&gt;Node8 -->
<g id="edge10" class="edge">
<title>Node3&#45;&gt;Node8</title>
<path fill="none" stroke="orange" d="M358.5,-497.3C358.5,-478.45 358.5,-455.86 358.5,-437.68"/>
<polygon fill="orange" stroke="orange" points="355,-497.32 358.5,-507.32 362,-497.32 355,-497.32"/>
<text text-anchor="middle" x="419" y="-475.5" font-family="Helvetica,sans-Serif" font-size="10.00"> &lt; Cell_handle_t&lt; 3 &gt; &gt;</text>
</g>
<!-- Node9 -->
<g id="node9" class="node">
<title>Node9</title>
<g id="a_node9"><a xlink:title=" ">
<polygon fill="white" stroke="#bfbfbf" points="445.5,-369.5 445.5,-437.5 585.5,-437.5 585.5,-369.5 445.5,-369.5"/>
<text text-anchor="start" x="453.5" y="-425.5" font-family="Helvetica,sans-Serif" font-size="10.00">std::vector&lt; Face_handle</text>
<text text-anchor="middle" x="515.5" y="-414.5" font-family="Helvetica,sans-Serif" font-size="10.00">_t&lt; 3 &gt; &gt;</text>
<polyline fill="none" stroke="#bfbfbf" points="445.5,-407.5 585.5,-407.5 "/>
<text text-anchor="start" x="453.5" y="-395.5" font-family="Helvetica,sans-Serif" font-size="10.00">+ elements</text>
<polyline fill="none" stroke="#bfbfbf" points="445.5,-388.5 585.5,-388.5 "/>
<text text-anchor="middle" x="515.5" y="-376.5" font-family="Helvetica,sans-Serif" font-size="10.00"> </text>
</a>
</g>
</g>
<!-- Node3&#45;&gt;Node9 -->
<g id="edge12" class="edge">
<title>Node3&#45;&gt;Node9</title>
<path fill="none" stroke="orange" d="M416.86,-524.53C440.1,-517.79 465.53,-506.8 483.5,-489 497.32,-475.31 505.26,-455.06 509.77,-437.81"/>
<polygon fill="orange" stroke="orange" points="415.81,-521.19 407.07,-527.17 417.63,-527.95 415.81,-521.19"/>
<text text-anchor="middle" x="561.5" y="-475.5" font-family="Helvetica,sans-Serif" font-size="10.00"> &lt; Face_handle_t&lt; 3 &gt; &gt;</text>
</g>
<!-- Node4 -->
<g id="node4" class="node">
<title>Node4</title>
<g id="a_node4"><a xlink:title=" ">
<polygon fill="white" stroke="#bfbfbf" points="408,-612.5 408,-669.5 437,-669.5 437,-612.5 408,-612.5"/>
<text text-anchor="middle" x="422.5" y="-657.5" font-family="Helvetica,sans-Serif" font-size="10.00">T</text>
<polyline fill="none" stroke="#bfbfbf" points="408,-650.5 437,-650.5 "/>
<text text-anchor="middle" x="422.5" y="-638.5" font-family="Helvetica,sans-Serif" font-size="10.00"> </text>
<polyline fill="none" stroke="#bfbfbf" points="408,-631.5 437,-631.5 "/>
<text text-anchor="middle" x="422.5" y="-619.5" font-family="Helvetica,sans-Serif" font-size="10.00"> </text>
</a>
</g>
</g>
<!-- Node4&#45;&gt;Node3 -->
<g id="edge3" class="edge">
<title>Node4&#45;&gt;Node3</title>
<path fill="none" stroke="#404040" d="M407.98,-616.63C400.34,-604.33 390.78,-588.95 382.1,-574.99"/>
<polygon fill="none" stroke="#404040" points="382.02,-574.86 375.46,-571.87 375.69,-564.67 382.25,-567.65 382.02,-574.86"/>
<text text-anchor="middle" x="421.5" y="-586" font-family="Helvetica,sans-Serif" font-size="10.00"> +elements</text>
</g>
<!-- Node6 -->
<g id="node6" class="node">
<title>Node6</title>
<g id="a_node6"><a xlink:title="STL class.">
<polygon fill="white" stroke="#bfbfbf" points="505.5,-507.5 505.5,-564.5 631.5,-564.5 631.5,-507.5 505.5,-507.5"/>
<text text-anchor="middle" x="568.5" y="-552.5" font-family="Helvetica,sans-Serif" font-size="10.00">std::multimap&lt; K, T &gt;</text>
<polyline fill="none" stroke="#bfbfbf" points="505.5,-545.5 631.5,-545.5 "/>
<text text-anchor="start" x="513.5" y="-533.5" font-family="Helvetica,sans-Serif" font-size="10.00">+ keys</text>
<polyline fill="none" stroke="#bfbfbf" points="505.5,-526.5 631.5,-526.5 "/>
<text text-anchor="middle" x="568.5" y="-514.5" font-family="Helvetica,sans-Serif" font-size="10.00"> </text>
</a>
</g>
</g>
<!-- Node4&#45;&gt;Node6 -->
<g id="edge6" class="edge">
<title>Node4&#45;&gt;Node6</title>
<path fill="none" stroke="#404040" d="M437.03,-629.75C456.13,-616.27 490.64,-591.93 519.5,-571.57"/>
<polygon fill="none" stroke="#404040" points="519.64,-571.47 522.24,-564.74 529.45,-564.55 526.85,-571.28 519.64,-571.47"/>
<text text-anchor="middle" x="529.5" y="-586" font-family="Helvetica,sans-Serif" font-size="10.00"> +elements</text>
</g>
<!-- Node5 -->
<g id="node5" class="node">
<title>Node5</title>
<g id="a_node5"><a xlink:title=" ">
<polygon fill="white" stroke="#bfbfbf" points="604,-358.5 604,-448.5 713,-448.5 713,-358.5 604,-358.5"/>
<text text-anchor="start" x="612" y="-436.5" font-family="Helvetica,sans-Serif" font-size="10.00">std::multimap&lt; Int</text>
<text text-anchor="start" x="612" y="-425.5" font-family="Helvetica,sans-Serif" font-size="10.00">_precision, Facet_t</text>
<text text-anchor="middle" x="658.5" y="-414.5" font-family="Helvetica,sans-Serif" font-size="10.00">&lt; 3 &gt; &gt;</text>
<polyline fill="none" stroke="#bfbfbf" points="604,-407.5 713,-407.5 "/>
<text text-anchor="start" x="612" y="-395.5" font-family="Helvetica,sans-Serif" font-size="10.00">+ elements</text>
<text text-anchor="start" x="612" y="-384.5" font-family="Helvetica,sans-Serif" font-size="10.00">+ keys</text>
<polyline fill="none" stroke="#bfbfbf" points="604,-377.5 713,-377.5 "/>
<text text-anchor="middle" x="658.5" y="-365.5" font-family="Helvetica,sans-Serif" font-size="10.00"> </text>
</a>
</g>
</g>
<!-- Node5&#45;&gt;Node1 -->
<g id="edge4" class="edge">
<title>Node5&#45;&gt;Node1</title>
<path fill="none" stroke="#404040" d="M607.95,-358.27C563.28,-319.18 497.18,-261.35 444.25,-215.03"/>
<polygon fill="none" stroke="#404040" points="444.24,-215.02 437.09,-214.08 435.2,-207.12 442.35,-208.06 444.24,-215.02"/>
<text text-anchor="middle" x="638" y="-315.5" font-family="Helvetica,sans-Serif" font-size="10.00"> &#45;m_spacelike_facets</text>
</g>
<!-- Node6&#45;&gt;Node5 -->
<g id="edge5" class="edge">
<title>Node6&#45;&gt;Node5</title>
<path fill="none" stroke="orange" d="M623.7,-500.33C627.31,-496.79 630.63,-493 633.5,-489 641.96,-477.18 647.58,-462.5 651.31,-448.7"/>
<polygon fill="orange" stroke="orange" points="621.08,-497.98 615.97,-507.26 625.75,-503.19 621.08,-497.98"/>
<text text-anchor="start" x="645.5" y="-481" font-family="Helvetica,sans-Serif" font-size="10.00"> &lt; Int_precision, Facet</text>
<text text-anchor="middle" x="700" y="-470" font-family="Helvetica,sans-Serif" font-size="10.00">_t&lt; 3 &gt; &gt;</text>
</g>
<!-- Node7&#45;&gt;Node1 -->
<g id="edge7" class="edge">
<title>Node7&#45;&gt;Node1</title>
<path fill="none" stroke="#404040" d="M216.06,-369.33C226.35,-348.04 240.49,-319.99 254.5,-296 261.04,-284.81 268.05,-273.33 275.25,-261.91"/>
<polygon fill="none" stroke="#404040" points="275.45,-261.59 275.3,-254.38 281.89,-251.46 282.05,-258.67 275.45,-261.59"/>
<text text-anchor="middle" x="304.5" y="-326.5" font-family="Helvetica,sans-Serif" font-size="10.00"> &#45;m_edges</text>
<text text-anchor="middle" x="304.5" y="-315.5" font-family="Helvetica,sans-Serif" font-size="10.00">&#45;m_timelike_edges</text>
<text text-anchor="middle" x="304.5" y="-304.5" font-family="Helvetica,sans-Serif" font-size="10.00">&#45;m_spacelike_edges</text>
</g>
<!-- Node8&#45;&gt;Node1 -->
<g id="edge9" class="edge">
<title>Node8&#45;&gt;Node1</title>
<path fill="none" stroke="#404040" d="M358.5,-369.25C358.5,-348.4 358.5,-319.87 358.5,-290.02"/>
<polygon fill="none" stroke="#404040" points="358.5,-289.63 354.5,-283.63 358.5,-277.63 362.5,-283.63 358.5,-289.63"/>
<text text-anchor="middle" x="392.5" y="-332" font-family="Helvetica,sans-Serif" font-size="10.00"> &#45;m_cells</text>
<text text-anchor="middle" x="392.5" y="-321" font-family="Helvetica,sans-Serif" font-size="10.00">&#45;m_one_three</text>
<text text-anchor="middle" x="392.5" y="-310" font-family="Helvetica,sans-Serif" font-size="10.00">&#45;m_three_one</text>
<text text-anchor="middle" x="392.5" y="-299" font-family="Helvetica,sans-Serif" font-size="10.00">&#45;m_two_two</text>
</g>
<!-- Node9&#45;&gt;Node1 -->
<g id="edge11" class="edge">
<title>Node9&#45;&gt;Node1</title>
<path fill="none" stroke="#404040" d="M495.62,-369.25C481.56,-345.75 461.67,-312.5 441.4,-278.6"/>
<polygon fill="none" stroke="#404040" points="441.26,-278.36 434.74,-275.27 435.1,-268.07 441.61,-271.16 441.26,-278.36"/>
<text text-anchor="middle" x="503" y="-315.5" font-family="Helvetica,sans-Serif" font-size="10.00"> &#45;m_faces</text>
</g>
</g>
</svg>
