<?xml version="1.0" encoding="UTF-8" standalone="no"?>
<!DOCTYPE svg PUBLIC "-//W3C//DTD SVG 1.1//EN"
 "http://www.w3.org/Graphics/SVG/1.1/DTD/svg11.dtd">
<!-- Generated by graphviz version 2.40.1 (20161225.0304)
 -->
<!-- Title: FoliatedTriangulations::FoliatedTriangulation&lt; 3 &gt; Pages: 1 -->
<svg width="798pt" height="678pt"
 viewBox="0.00 0.00 798.00 678.00" xmlns="http://www.w3.org/2000/svg" xmlns:xlink="http://www.w3.org/1999/xlink">
<g id="graph0" class="graph" transform="scale(1 1) rotate(0) translate(4 674)">
<title>FoliatedTriangulations::FoliatedTriangulation&lt; 3 &gt;</title>
<polygon fill="#ffffff" stroke="transparent" points="-4,4 -4,-674 794,-674 794,4 -4,4"/>
<!-- Node1 -->
<g id="node1" class="node">
<title>Node1</title>
<polygon fill="#bfbfbf" stroke="#000000" points="273.5,-.5 273.5,-299.5 426.5,-299.5 426.5,-.5 273.5,-.5"/>
<text text-anchor="start" x="281.5" y="-287.5" font-family="Helvetica,sans-Serif" font-size="10.00" fill="#000000">FoliatedTriangulations</text>
<text text-anchor="middle" x="350" y="-276.5" font-family="Helvetica,sans-Serif" font-size="10.00" fill="#000000">::FoliatedTriangulation&lt; 3 &gt;</text>
<polyline fill="none" stroke="#000000" points="273.5,-269.5 426.5,-269.5 "/>
<text text-anchor="start" x="281.5" y="-257.5" font-family="Helvetica,sans-Serif" font-size="10.00" fill="#000000">&#45; m_foliation_spacing</text>
<text text-anchor="start" x="281.5" y="-246.5" font-family="Helvetica,sans-Serif" font-size="10.00" fill="#000000">&#45; m_initial_radius</text>
<text text-anchor="start" x="281.5" y="-235.5" font-family="Helvetica,sans-Serif" font-size="10.00" fill="#000000">&#45; m_max_timevalue</text>
<text text-anchor="start" x="281.5" y="-224.5" font-family="Helvetica,sans-Serif" font-size="10.00" fill="#000000">&#45; m_min_timevalue</text>
<text text-anchor="start" x="281.5" y="-213.5" font-family="Helvetica,sans-Serif" font-size="10.00" fill="#000000">&#45; m_triangulation</text>
<polyline fill="none" stroke="#000000" points="273.5,-206.5 426.5,-206.5 "/>
<text text-anchor="start" x="281.5" y="-194.5" font-family="Helvetica,sans-Serif" font-size="10.00" fill="#000000">+ FoliatedTriangulation()</text>
<text text-anchor="start" x="281.5" y="-183.5" font-family="Helvetica,sans-Serif" font-size="10.00" fill="#000000">+ FoliatedTriangulation()</text>
<text text-anchor="start" x="281.5" y="-172.5" font-family="Helvetica,sans-Serif" font-size="10.00" fill="#000000">+ FoliatedTriangulation()</text>
<text text-anchor="start" x="281.5" y="-161.5" font-family="Helvetica,sans-Serif" font-size="10.00" fill="#000000">+ FoliatedTriangulation()</text>
<text text-anchor="start" x="281.5" y="-150.5" font-family="Helvetica,sans-Serif" font-size="10.00" fill="#000000">+ FoliatedTriangulation()</text>
<text text-anchor="start" x="281.5" y="-139.5" font-family="Helvetica,sans-Serif" font-size="10.00" fill="#000000">+ FoliatedTriangulation()</text>
<text text-anchor="start" x="281.5" y="-128.5" font-family="Helvetica,sans-Serif" font-size="10.00" fill="#000000">+ ~FoliatedTriangulation()</text>
<text text-anchor="start" x="281.5" y="-117.5" font-family="Helvetica,sans-Serif" font-size="10.00" fill="#000000">+ check_all_cells()</text>
<text text-anchor="start" x="281.5" y="-106.5" font-family="Helvetica,sans-Serif" font-size="10.00" fill="#000000">+ check_all_vertices()</text>
<text text-anchor="start" x="281.5" y="-95.5" font-family="Helvetica,sans-Serif" font-size="10.00" fill="#000000">+ check_timeslices()</text>
<text text-anchor="start" x="281.5" y="-84.5" font-family="Helvetica,sans-Serif" font-size="10.00" fill="#000000">and 48 more...</text>
<text text-anchor="start" x="281.5" y="-73.5" font-family="Helvetica,sans-Serif" font-size="10.00" fill="#000000">&#45; classify_cells()</text>
<text text-anchor="start" x="281.5" y="-62.5" font-family="Helvetica,sans-Serif" font-size="10.00" fill="#000000">&#45; collect_cells()</text>
<text text-anchor="start" x="281.5" y="-51.5" font-family="Helvetica,sans-Serif" font-size="10.00" fill="#000000">&#45; collect_edges()</text>
<text text-anchor="start" x="281.5" y="-40.5" font-family="Helvetica,sans-Serif" font-size="10.00" fill="#000000">&#45; collect_faces()</text>
<text text-anchor="start" x="281.5" y="-29.5" font-family="Helvetica,sans-Serif" font-size="10.00" fill="#000000">&#45; collect_vertices()</text>
<text text-anchor="start" x="281.5" y="-18.5" font-family="Helvetica,sans-Serif" font-size="10.00" fill="#000000">&#45; fix_timeslices()</text>
<text text-anchor="start" x="281.5" y="-7.5" font-family="Helvetica,sans-Serif" font-size="10.00" fill="#000000">&#45; make_triangulation()</text>
</g>
<!-- Node2 -->
<g id="node2" class="node">
<title>Node2</title>
<polygon fill="#ffffff" stroke="#bfbfbf" points="0,-380.5 0,-459.5 120,-459.5 120,-380.5 0,-380.5"/>
<text text-anchor="start" x="8" y="-447.5" font-family="Helvetica,sans-Serif" font-size="10.00" fill="#000000">std::multimap&lt; Int</text>
<text text-anchor="middle" x="60" y="-436.5" font-family="Helvetica,sans-Serif" font-size="10.00" fill="#000000">_precision, Facet_3 &gt;</text>
<polyline fill="none" stroke="#bfbfbf" points="0,-429.5 120,-429.5 "/>
<text text-anchor="start" x="8" y="-417.5" font-family="Helvetica,sans-Serif" font-size="10.00" fill="#000000">+ elements</text>
<text text-anchor="start" x="8" y="-406.5" font-family="Helvetica,sans-Serif" font-size="10.00" fill="#000000">+ keys</text>
<polyline fill="none" stroke="#bfbfbf" points="0,-399.5 120,-399.5 "/>
<text text-anchor="middle" x="60" y="-387.5" font-family="Helvetica,sans-Serif" font-size="10.00" fill="#000000"> </text>
</g>
<!-- Node2&#45;&gt;Node1 -->
<g id="edge1" class="edge">
<title>Node2&#45;&gt;Node1</title>
<path fill="none" stroke="#404040" d="M78.5381,-380.1942C88.9976,-360.2225 103.3144,-336.4276 120,-318 161.3473,-272.3361 216.9194,-231.331 263.0803,-201.2641"/>
<polygon fill="none" stroke="#404040" points="263.2918,-201.1279 266.1718,-194.5169 273.382,-194.6326 270.502,-201.2437 263.2918,-201.1279"/>
<text text-anchor="middle" x="172" y="-337.5" font-family="Helvetica,sans-Serif" font-size="10.00" fill="#000000"> &#45;m_spacelike_facets</text>
</g>
<!-- Node3 -->
<g id="node3" class="node">
<title>Node3</title>
<g id="a_node3"><a xlink:title="STL class. ">
<polygon fill="#ffffff" stroke="#bfbfbf" points="80,-507.5 80,-564.5 206,-564.5 206,-507.5 80,-507.5"/>
<text text-anchor="middle" x="143" y="-552.5" font-family="Helvetica,sans-Serif" font-size="10.00" fill="#000000">std::multimap&lt; K, T &gt;</text>
<polyline fill="none" stroke="#bfbfbf" points="80,-545.5 206,-545.5 "/>
<text text-anchor="start" x="88" y="-533.5" font-family="Helvetica,sans-Serif" font-size="10.00" fill="#000000">+ keys</text>
<polyline fill="none" stroke="#bfbfbf" points="80,-526.5 206,-526.5 "/>
<text text-anchor="middle" x="143" y="-514.5" font-family="Helvetica,sans-Serif" font-size="10.00" fill="#000000"> </text>
</a>
</g>
</g>
<!-- Node3&#45;&gt;Node2 -->
<g id="edge2" class="edge">
<title>Node3&#45;&gt;Node2</title>
<path fill="none" stroke="#ffa500" d="M74.999,-500.422C71.5997,-496.9129 68.547,-493.1103 66,-489 60.6164,-480.3121 58.1464,-469.7866 57.2486,-459.6016"/>
<polygon fill="#ffa500" stroke="#ffa500" points="72.6759,-503.0404 82.4125,-507.2177 77.406,-497.8804 72.6759,-503.0404"/>
<text text-anchor="middle" x="131.5" y="-481" font-family="Helvetica,sans-Serif" font-size="10.00" fill="#000000"> &lt; Int_precision, Facet_3 &gt;</text>
</g>
<!-- Node4 -->
<g id="node4" class="node">
<title>Node4</title>
<polygon fill="#ffffff" stroke="#bfbfbf" points="192.5,-612.5 192.5,-669.5 221.5,-669.5 221.5,-612.5 192.5,-612.5"/>
<text text-anchor="middle" x="207" y="-657.5" font-family="Helvetica,sans-Serif" font-size="10.00" fill="#000000">T</text>
<polyline fill="none" stroke="#bfbfbf" points="192.5,-650.5 221.5,-650.5 "/>
<text text-anchor="middle" x="207" y="-638.5" font-family="Helvetica,sans-Serif" font-size="10.00" fill="#000000"> </text>
<polyline fill="none" stroke="#bfbfbf" points="192.5,-631.5 221.5,-631.5 "/>
<text text-anchor="middle" x="207" y="-619.5" font-family="Helvetica,sans-Serif" font-size="10.00" fill="#000000"> </text>
</g>
<!-- Node4&#45;&gt;Node3 -->
<g id="edge3" class="edge">
<title>Node4&#45;&gt;Node3</title>
<path fill="none" stroke="#404040" d="M192.4774,-617.1739C184.8951,-604.7341 175.4242,-589.196 166.8042,-575.0537"/>
<polygon fill="none" stroke="#404040" points="166.6691,-574.8321 160.1308,-571.7907 160.4235,-564.5855 166.9619,-567.627 166.6691,-574.8321"/>
<text text-anchor="middle" x="206" y="-586" font-family="Helvetica,sans-Serif" font-size="10.00" fill="#000000"> +elements</text>
</g>
<!-- Node6 -->
<g id="node6" class="node">
<title>Node6</title>
<g id="a_node6"><a xlink:title="STL class. ">
<polygon fill="#ffffff" stroke="#bfbfbf" points="301.5,-507.5 301.5,-564.5 398.5,-564.5 398.5,-507.5 301.5,-507.5"/>
<text text-anchor="middle" x="350" y="-552.5" font-family="Helvetica,sans-Serif" font-size="10.00" fill="#000000">std::vector&lt; T &gt;</text>
<polyline fill="none" stroke="#bfbfbf" points="301.5,-545.5 398.5,-545.5 "/>
<text text-anchor="middle" x="350" y="-533.5" font-family="Helvetica,sans-Serif" font-size="10.00" fill="#000000"> </text>
<polyline fill="none" stroke="#bfbfbf" points="301.5,-526.5 398.5,-526.5 "/>
<text text-anchor="middle" x="350" y="-514.5" font-family="Helvetica,sans-Serif" font-size="10.00" fill="#000000"> </text>
</a>
</g>
</g>
<!-- Node4&#45;&gt;Node6 -->
<g id="edge6" class="edge">
<title>Node4&#45;&gt;Node6</title>
<path fill="none" stroke="#404040" d="M221.7649,-630.1586C240.3865,-616.4854 273.3375,-592.2906 301.174,-571.8512"/>
<polygon fill="none" stroke="#404040" points="301.4896,-571.6196 303.9585,-564.8442 311.1622,-564.5173 308.6933,-571.2926 301.4896,-571.6196"/>
<text text-anchor="middle" x="312" y="-586" font-family="Helvetica,sans-Serif" font-size="10.00" fill="#000000"> +elements</text>
</g>
<!-- Node5 -->
<g id="node5" class="node">
<title>Node5</title>
<polygon fill="#ffffff" stroke="#bfbfbf" points="138.5,-386 138.5,-454 249.5,-454 249.5,-386 138.5,-386"/>
<text text-anchor="start" x="146.5" y="-442" font-family="Helvetica,sans-Serif" font-size="10.00" fill="#000000">std::vector&lt; Vertex</text>
<text text-anchor="middle" x="194" y="-431" font-family="Helvetica,sans-Serif" font-size="10.00" fill="#000000">_handle_3 &gt;</text>
<polyline fill="none" stroke="#bfbfbf" points="138.5,-424 249.5,-424 "/>
<text text-anchor="start" x="146.5" y="-412" font-family="Helvetica,sans-Serif" font-size="10.00" fill="#000000">+ elements</text>
<polyline fill="none" stroke="#bfbfbf" points="138.5,-405 249.5,-405 "/>
<text text-anchor="middle" x="194" y="-393" font-family="Helvetica,sans-Serif" font-size="10.00" fill="#000000"> </text>
</g>
<!-- Node5&#45;&gt;Node1 -->
<g id="edge4" class="edge">
<title>Node5&#45;&gt;Node1</title>
<path fill="none" stroke="#404040" d="M213.7575,-385.8043C227.6146,-361.8209 247.1696,-327.9757 267.1506,-293.3932"/>
<polygon fill="none" stroke="#404040" points="267.356,-293.0375 266.8943,-285.8412 273.3594,-282.6471 273.8212,-289.8435 267.356,-293.0375"/>
<text text-anchor="middle" x="275" y="-337.5" font-family="Helvetica,sans-Serif" font-size="10.00" fill="#000000"> &#45;m_points</text>
</g>
<!-- Node6&#45;&gt;Node5 -->
<g id="edge5" class="edge">
<title>Node6&#45;&gt;Node5</title>
<path fill="none" stroke="#ffa500" d="M292.0636,-518.9335C273.7888,-511.6833 254.3762,-501.8651 239,-489 227.7023,-479.5473 218.2111,-466.5313 210.9016,-454.3496"/>
<polygon fill="#ffa500" stroke="#ffa500" points="290.8973,-522.2343 301.4889,-522.4933 293.3706,-515.6858 290.8973,-522.2343"/>
<text text-anchor="middle" x="292.5" y="-481" font-family="Helvetica,sans-Serif" font-size="10.00" fill="#000000"> &lt; Vertex_handle_3 &gt;</text>
</g>
<!-- Node7 -->
<g id="node7" class="node">
<title>Node7</title>
<polygon fill="#ffffff" stroke="#bfbfbf" points="268,-391.5 268,-448.5 432,-448.5 432,-391.5 268,-391.5"/>
<text text-anchor="middle" x="350" y="-436.5" font-family="Helvetica,sans-Serif" font-size="10.00" fill="#000000">std::vector&lt; Edge_handle_3 &gt;</text>
<polyline fill="none" stroke="#bfbfbf" points="268,-429.5 432,-429.5 "/>
<text text-anchor="start" x="276" y="-417.5" font-family="Helvetica,sans-Serif" font-size="10.00" fill="#000000">+ elements</text>
<polyline fill="none" stroke="#bfbfbf" points="268,-410.5 432,-410.5 "/>
<text text-anchor="middle" x="350" y="-398.5" font-family="Helvetica,sans-Serif" font-size="10.00" fill="#000000"> </text>
</g>
<!-- Node6&#45;&gt;Node7 -->
<g id="edge8" class="edge">
<title>Node6&#45;&gt;Node7</title>
<path fill="none" stroke="#ffa500" d="M350,-497.2769C350,-481.4213 350,-463.397 350,-448.7463"/>
<polygon fill="#ffa500" stroke="#ffa500" points="346.5001,-497.3258 350,-507.3258 353.5001,-497.3259 346.5001,-497.3258"/>
<text text-anchor="middle" x="400" y="-481" font-family="Helvetica,sans-Serif" font-size="10.00" fill="#000000"> &lt; Edge_handle_3 &gt;</text>
</g>
<!-- Node8 -->
<g id="node8" class="node">
<title>Node8</title>
<polygon fill="#ffffff" stroke="#bfbfbf" points="450.5,-391.5 450.5,-448.5 609.5,-448.5 609.5,-391.5 450.5,-391.5"/>
<text text-anchor="middle" x="530" y="-436.5" font-family="Helvetica,sans-Serif" font-size="10.00" fill="#000000">std::vector&lt; Cell_handle_3 &gt;</text>
<polyline fill="none" stroke="#bfbfbf" points="450.5,-429.5 609.5,-429.5 "/>
<text text-anchor="start" x="458.5" y="-417.5" font-family="Helvetica,sans-Serif" font-size="10.00" fill="#000000">+ elements</text>
<polyline fill="none" stroke="#bfbfbf" points="450.5,-410.5 609.5,-410.5 "/>
<text text-anchor="middle" x="530" y="-398.5" font-family="Helvetica,sans-Serif" font-size="10.00" fill="#000000"> </text>
</g>
<!-- Node6&#45;&gt;Node8 -->
<g id="edge10" class="edge">
<title>Node6&#45;&gt;Node8</title>
<path fill="none" stroke="#ffa500" d="M408.2098,-513.5459C423.6114,-506.5848 439.8708,-498.2733 454,-489 471.4317,-477.5592 488.8044,-462.1635 502.531,-448.8176"/>
<polygon fill="#ffa500" stroke="#ffa500" points="406.503,-510.473 398.7578,-517.7022 409.3207,-516.8808 406.503,-510.473"/>
<text text-anchor="middle" x="515" y="-481" font-family="Helvetica,sans-Serif" font-size="10.00" fill="#000000"> &lt; Cell_handle_3 &gt;</text>
</g>
<!-- Node9 -->
<g id="node9" class="node">
<title>Node9</title>
<polygon fill="#ffffff" stroke="#bfbfbf" points="628,-391.5 628,-448.5 790,-448.5 790,-391.5 628,-391.5"/>
<text text-anchor="middle" x="709" y="-436.5" font-family="Helvetica,sans-Serif" font-size="10.00" fill="#000000">std::vector&lt; Face_handle_3 &gt;</text>
<polyline fill="none" stroke="#bfbfbf" points="628,-429.5 790,-429.5 "/>
<text text-anchor="start" x="636" y="-417.5" font-family="Helvetica,sans-Serif" font-size="10.00" fill="#000000">+ elements</text>
<polyline fill="none" stroke="#bfbfbf" points="628,-410.5 790,-410.5 "/>
<text text-anchor="middle" x="709" y="-398.5" font-family="Helvetica,sans-Serif" font-size="10.00" fill="#000000"> </text>
</g>
<!-- Node6&#45;&gt;Node9 -->
<g id="edge12" class="edge">
<title>Node6&#45;&gt;Node9</title>
<path fill="none" stroke="#ffa500" d="M408.466,-527.118C452.5105,-519.511 513.9939,-506.9244 566,-489 597.2731,-478.2215 630.6486,-462.3867 657.2839,-448.6042"/>
<polygon fill="#ffa500" stroke="#ffa500" points="407.7788,-523.6844 398.5036,-528.8052 408.9477,-530.5862 407.7788,-523.6844"/>
<text text-anchor="middle" x="643.5" y="-481" font-family="Helvetica,sans-Serif" font-size="10.00" fill="#000000"> &lt; Face_handle_3 &gt;</text>
</g>
<!-- Node7&#45;&gt;Node1 -->
<g id="edge7" class="edge">
<title>Node7&#45;&gt;Node1</title>
<path fill="none" stroke="#404040" d="M350,-391.3609C350,-371.2322 350,-342.5123 350,-311.8674"/>
<polygon fill="none" stroke="#404040" points="350.0001,-311.5776 346,-305.5776 350,-299.5776 354,-305.5775 350.0001,-311.5776"/>
<text text-anchor="middle" x="400" y="-348.5" font-family="Helvetica,sans-Serif" font-size="10.00" fill="#000000"> &#45;m_edges</text>
<text text-anchor="middle" x="400" y="-337.5" font-family="Helvetica,sans-Serif" font-size="10.00" fill="#000000">&#45;m_timelike_edges</text>
<text text-anchor="middle" x="400" y="-326.5" font-family="Helvetica,sans-Serif" font-size="10.00" fill="#000000">&#45;m_spacelike_edges</text>
</g>
<!-- Node8&#45;&gt;Node1 -->
<g id="edge9" class="edge">
<title>Node8&#45;&gt;Node1</title>
<path fill="none" stroke="#404040" d="M510.9073,-391.3609C492.1886,-363.2828 462.3253,-318.4879 433.3801,-275.0702"/>
<polygon fill="none" stroke="#404040" points="433.295,-274.9424 426.6385,-272.1689 426.6385,-264.9578 433.2949,-267.7313 433.295,-274.9424"/>
<text text-anchor="middle" x="526" y="-354" font-family="Helvetica,sans-Serif" font-size="10.00" fill="#000000"> &#45;m_cells</text>
<text text-anchor="middle" x="526" y="-343" font-family="Helvetica,sans-Serif" font-size="10.00" fill="#000000">&#45;m_one_three</text>
<text text-anchor="middle" x="526" y="-332" font-family="Helvetica,sans-Serif" font-size="10.00" fill="#000000">&#45;m_three_one</text>
<text text-anchor="middle" x="526" y="-321" font-family="Helvetica,sans-Serif" font-size="10.00" fill="#000000">&#45;m_two_two</text>
</g>
<!-- Node9&#45;&gt;Node1 -->
<g id="edge11" class="edge">
<title>Node9&#45;&gt;Node1</title>
<path fill="none" stroke="#404040" d="M670.9206,-391.3609C615.5699,-349.7322 511.361,-271.3579 436.699,-215.2053"/>
<polygon fill="none" stroke="#404040" points="436.4186,-214.9945 429.2191,-214.5849 426.8282,-207.7817 434.0277,-208.1913 436.4186,-214.9945"/>
<text text-anchor="middle" x="656.5" y="-337.5" font-family="Helvetica,sans-Serif" font-size="10.00" fill="#000000"> &#45;m_faces</text>
</g>
</g>
</svg>
