<?xml version="1.0" encoding="UTF-8" standalone="no"?>
<!DOCTYPE svg PUBLIC "-//W3C//DTD SVG 1.1//EN"
 "http://www.w3.org/Graphics/SVG/1.1/DTD/svg11.dtd">
<!-- Generated by graphviz version 2.43.0 (0)
 -->
<!-- Title: manifolds::Manifold&lt; 3 &gt; Pages: 1 -->
<!--zoomable 893 -->
<svg id="main" version="1.1" xmlns="http://www.w3.org/2000/svg" xmlns:xlink="http://www.w3.org/1999/xlink" xml:space="preserve" onload="init(evt)">
<style type="text/css"><![CDATA[
.edge:hover path { stroke: red; }
.edge:hover polygon { stroke: red; fill: red; }
]]></style>
<script type="text/javascript"><![CDATA[
var edges = document.getElementsByTagName('g');
if (edges && edges.length) {
  for (var i=0;i<edges.length;i++) {
    if (edges[i].id.substr(0,4)=='edge') {
      edges[i].setAttribute('class','edge');
    }
  }
}
]]></script>
        <defs>
                <circle id="rim" cx="0" cy="0" r="7"/>
                <circle id="rim2" cx="0" cy="0" r="3.5"/>
                <g id="zoomPlus">
                        <use xlink:href="#rim" fill="#404040">
                                <set attributeName="fill" to="#808080" begin="zoomplus.mouseover" end="zoomplus.mouseout"/>
                        </use>
                        <path d="M-4,0h8M0,-4v8" fill="none" stroke="white" stroke-width="1.5" pointer-events="none"/>
                </g>
                <g id="zoomMin">
                        <use xlink:href="#rim" fill="#404040">
                                <set attributeName="fill" to="#808080" begin="zoomminus.mouseover" end="zoomminus.mouseout"/>
                        </use>
                        <path d="M-4,0h8" fill="none" stroke="white" stroke-width="1.5" pointer-events="none"/>
                </g>
                <g id="dirArrow">
                        <path fill="none" stroke="white" stroke-width="1.5" d="M0,-3.0v7 M-2.5,-0.5L0,-3.0L2.5,-0.5"/>
                </g>
               <g id="resetDef">
                       <use xlink:href="#rim2" fill="#404040">
                               <set attributeName="fill" to="#808080" begin="reset.mouseover" end="reset.mouseout"/>
                       </use>
               </g>
        </defs>

<script type="text/javascript">
var viewWidth = 763;
var viewHeight = 893;
var sectionId = 'dynsection-0';
</script>
<script xlink:href="svgpan.js"/>
<svg id="graph" class="graph">
<g id="viewport">
<title>manifolds::Manifold&lt; 3 &gt;</title>
<polygon fill="white" stroke="transparent" points="-4,4 -4,-889 758.5,-889 758.5,4 -4,4"/>
<!-- Node1 -->
<g id="node1" class="node">
<title>Node1</title>
<g id="a_node1"><a xlink:title="3D Manifold">
<polygon fill="#bfbfbf" stroke="black" points="191,-0.5 191,-189.5 334,-189.5 334,-0.5 191,-0.5"/>
<text text-anchor="middle" x="262.5" y="-177.5" font-family="Helvetica,sans-Serif" font-size="10.00">manifolds::Manifold&lt; 3 &gt;</text>
<polyline fill="none" stroke="black" points="191,-170.5 334,-170.5 "/>
<text text-anchor="start" x="199" y="-158.5" font-family="Helvetica,sans-Serif" font-size="10.00">+ dimension</text>
<polyline fill="none" stroke="black" points="191,-151.5 334,-151.5 "/>
<text text-anchor="start" x="199" y="-139.5" font-family="Helvetica,sans-Serif" font-size="10.00">+ Manifold()</text>
<text text-anchor="start" x="199" y="-128.5" font-family="Helvetica,sans-Serif" font-size="10.00">+ Manifold()</text>
<text text-anchor="start" x="199" y="-117.5" font-family="Helvetica,sans-Serif" font-size="10.00">+ Manifold()</text>
<text text-anchor="start" x="199" y="-106.5" font-family="Helvetica,sans-Serif" font-size="10.00">+ Manifold()</text>
<text text-anchor="start" x="199" y="-95.5" font-family="Helvetica,sans-Serif" font-size="10.00">+ Manifold()</text>
<text text-anchor="start" x="199" y="-84.5" font-family="Helvetica,sans-Serif" font-size="10.00">+ Manifold()</text>
<text text-anchor="start" x="199" y="-73.5" font-family="Helvetica,sans-Serif" font-size="10.00">+ ~Manifold()</text>
<text text-anchor="start" x="199" y="-62.5" font-family="Helvetica,sans-Serif" font-size="10.00">+ check_simplices()</text>
<text text-anchor="start" x="199" y="-51.5" font-family="Helvetica,sans-Serif" font-size="10.00">+ degree()</text>
<text text-anchor="start" x="199" y="-40.5" font-family="Helvetica,sans-Serif" font-size="10.00">+ dim()</text>
<text text-anchor="start" x="199" y="-29.5" font-family="Helvetica,sans-Serif" font-size="10.00">and 40 more...</text>
<text text-anchor="start" x="199" y="-18.5" font-family="Helvetica,sans-Serif" font-size="10.00">&#45; update_geometry()</text>
<text text-anchor="start" x="199" y="-7.5" font-family="Helvetica,sans-Serif" font-size="10.00">&#45; update_triangulation()</text>
</a>
</g>
</g>
<!-- Node2 -->
<g id="node2" class="node">
<title>Node2</title>
<g id="a_node2"><a xlink:href="struct_geometry_3_013_01_4.html" target="_top" xlink:title="3D Geometry">
<polygon fill="white" stroke="black" points="169.5,-281.5 169.5,-448.5 263.5,-448.5 263.5,-281.5 169.5,-281.5"/>
<text text-anchor="middle" x="216.5" y="-436.5" font-family="Helvetica,sans-Serif" font-size="10.00">Geometry&lt; 3 &gt;</text>
<polyline fill="none" stroke="black" points="169.5,-429.5 263.5,-429.5 "/>
<text text-anchor="start" x="177.5" y="-417.5" font-family="Helvetica,sans-Serif" font-size="10.00">+ N0</text>
<text text-anchor="start" x="177.5" y="-406.5" font-family="Helvetica,sans-Serif" font-size="10.00">+ N1</text>
<text text-anchor="start" x="177.5" y="-395.5" font-family="Helvetica,sans-Serif" font-size="10.00">+ N1_SL</text>
<text text-anchor="start" x="177.5" y="-384.5" font-family="Helvetica,sans-Serif" font-size="10.00">+ N1_TL</text>
<text text-anchor="start" x="177.5" y="-373.5" font-family="Helvetica,sans-Serif" font-size="10.00">+ N2</text>
<text text-anchor="start" x="177.5" y="-362.5" font-family="Helvetica,sans-Serif" font-size="10.00">+ N3</text>
<text text-anchor="start" x="177.5" y="-351.5" font-family="Helvetica,sans-Serif" font-size="10.00">+ N3_13</text>
<text text-anchor="start" x="177.5" y="-340.5" font-family="Helvetica,sans-Serif" font-size="10.00">+ N3_22</text>
<text text-anchor="start" x="177.5" y="-329.5" font-family="Helvetica,sans-Serif" font-size="10.00">+ N3_31</text>
<text text-anchor="start" x="177.5" y="-318.5" font-family="Helvetica,sans-Serif" font-size="10.00">+ N3_31_13</text>
<polyline fill="none" stroke="black" points="169.5,-311.5 263.5,-311.5 "/>
<text text-anchor="start" x="177.5" y="-299.5" font-family="Helvetica,sans-Serif" font-size="10.00">+ Geometry()</text>
<text text-anchor="start" x="177.5" y="-288.5" font-family="Helvetica,sans-Serif" font-size="10.00">+ Geometry()</text>
</a>
</g>
</g>
<!-- Node2&#45;&gt;Node1 -->
<g id="edge1" class="edge">
<title>Node2&#45;&gt;Node1</title>
<path fill="none" stroke="#404040" d="M229.33,-281.35C233.12,-257.65 237.37,-231.78 241.5,-208 241.86,-205.96 242.22,-203.89 242.58,-201.81"/>
<polygon fill="none" stroke="#404040" points="242.62,-201.59 239.74,-194.98 244.73,-189.77 247.61,-196.38 242.62,-201.59"/>
<text text-anchor="middle" x="276.5" y="-211" font-family="Helvetica,sans-Serif" font-size="10.00"> &#45;m_geometry</text>
</g>
<!-- Node3 -->
<g id="node3" class="node">
<title>Node3</title>
<g id="a_node3"><a xlink:href="classfoliated__triangulations_1_1_foliated_triangulation_3_013_01_4.html" target="_top" xlink:title="3D Triangulation">
<polygon fill="white" stroke="black" points="282,-237.5 282,-492.5 435,-492.5 435,-237.5 282,-237.5"/>
<text text-anchor="start" x="290" y="-480.5" font-family="Helvetica,sans-Serif" font-size="10.00">foliated_triangulations</text>
<text text-anchor="middle" x="358.5" y="-469.5" font-family="Helvetica,sans-Serif" font-size="10.00">::FoliatedTriangulation&lt; 3 &gt;</text>
<polyline fill="none" stroke="black" points="282,-462.5 435,-462.5 "/>
<text text-anchor="start" x="290" y="-450.5" font-family="Helvetica,sans-Serif" font-size="10.00">&#45; m_foliation_spacing</text>
<text text-anchor="start" x="290" y="-439.5" font-family="Helvetica,sans-Serif" font-size="10.00">&#45; m_initial_radius</text>
<text text-anchor="start" x="290" y="-428.5" font-family="Helvetica,sans-Serif" font-size="10.00">&#45; m_max_timevalue</text>
<text text-anchor="start" x="290" y="-417.5" font-family="Helvetica,sans-Serif" font-size="10.00">&#45; m_min_timevalue</text>
<text text-anchor="start" x="290" y="-406.5" font-family="Helvetica,sans-Serif" font-size="10.00">&#45; m_triangulation</text>
<polyline fill="none" stroke="black" points="282,-399.5 435,-399.5 "/>
<text text-anchor="start" x="290" y="-387.5" font-family="Helvetica,sans-Serif" font-size="10.00">+ FoliatedTriangulation()</text>
<text text-anchor="start" x="290" y="-376.5" font-family="Helvetica,sans-Serif" font-size="10.00">+ FoliatedTriangulation()</text>
<text text-anchor="start" x="290" y="-365.5" font-family="Helvetica,sans-Serif" font-size="10.00">+ FoliatedTriangulation()</text>
<text text-anchor="start" x="290" y="-354.5" font-family="Helvetica,sans-Serif" font-size="10.00">+ FoliatedTriangulation()</text>
<text text-anchor="start" x="290" y="-343.5" font-family="Helvetica,sans-Serif" font-size="10.00">+ FoliatedTriangulation()</text>
<text text-anchor="start" x="290" y="-332.5" font-family="Helvetica,sans-Serif" font-size="10.00">+ FoliatedTriangulation()</text>
<text text-anchor="start" x="290" y="-321.5" font-family="Helvetica,sans-Serif" font-size="10.00">+ ~FoliatedTriangulation()</text>
<text text-anchor="start" x="290" y="-310.5" font-family="Helvetica,sans-Serif" font-size="10.00">+ check_all_cells()</text>
<text text-anchor="start" x="290" y="-299.5" font-family="Helvetica,sans-Serif" font-size="10.00">+ check_all_vertices()</text>
<text text-anchor="start" x="290" y="-288.5" font-family="Helvetica,sans-Serif" font-size="10.00">+ degree()</text>
<text text-anchor="start" x="290" y="-277.5" font-family="Helvetica,sans-Serif" font-size="10.00">and 44 more...</text>
<text text-anchor="start" x="290" y="-266.5" font-family="Helvetica,sans-Serif" font-size="10.00">&#45; classify_cells()</text>
<text text-anchor="start" x="290" y="-255.5" font-family="Helvetica,sans-Serif" font-size="10.00">&#45; collect_edges()</text>
<text text-anchor="start" x="290" y="-244.5" font-family="Helvetica,sans-Serif" font-size="10.00">&#45; collect_faces()</text>
</a>
</g>
</g>
<!-- Node3&#45;&gt;Node1 -->
<g id="edge2" class="edge">
<title>Node3&#45;&gt;Node1</title>
<path fill="none" stroke="#404040" d="M321.68,-237.14C318.38,-227.23 314.97,-217.42 311.5,-208 310.68,-205.76 309.83,-203.5 308.96,-201.23"/>
<polygon fill="none" stroke="#404040" points="308.86,-200.95 302.95,-196.82 304.5,-189.77 310.41,-193.91 308.86,-200.95"/>
<text text-anchor="middle" x="357" y="-211" font-family="Helvetica,sans-Serif" font-size="10.00"> &#45;m_triangulation</text>
</g>
<!-- Node4 -->
<g id="node4" class="node">
<title>Node4</title>
<g id="a_node4"><a xlink:title=" ">
<polygon fill="white" stroke="#bfbfbf" points="0,-584.5 0,-652.5 111,-652.5 111,-584.5 0,-584.5"/>
<text text-anchor="start" x="8" y="-640.5" font-family="Helvetica,sans-Serif" font-size="10.00">std::vector&lt; Vertex</text>
<text text-anchor="middle" x="55.5" y="-629.5" font-family="Helvetica,sans-Serif" font-size="10.00">_handle_t&lt; 3 &gt; &gt;</text>
<polyline fill="none" stroke="#bfbfbf" points="0,-622.5 111,-622.5 "/>
<text text-anchor="start" x="8" y="-610.5" font-family="Helvetica,sans-Serif" font-size="10.00">+ elements</text>
<polyline fill="none" stroke="#bfbfbf" points="0,-603.5 111,-603.5 "/>
<text text-anchor="middle" x="55.5" y="-591.5" font-family="Helvetica,sans-Serif" font-size="10.00"> </text>
</a>
</g>
</g>
<!-- Node4&#45;&gt;Node3 -->
<g id="edge3" class="edge">
<title>Node4&#45;&gt;Node3</title>
<path fill="none" stroke="#404040" d="M83.02,-584.25C104.96,-560.04 137.84,-528.54 173.5,-511 210.57,-492.77 231.67,-513.7 271.64,-492.38"/>
<polygon fill="none" stroke="#404040" points="271.65,-492.37 274.73,-485.86 281.93,-486.19 278.85,-492.71 271.65,-492.37"/>
<text text-anchor="middle" x="199.5" y="-530.5" font-family="Helvetica,sans-Serif" font-size="10.00"> &#45;m_points</text>
</g>
<!-- Node5 -->
<g id="node5" class="node">
<title>Node5</title>
<g id="a_node5"><a xlink:title="STL class.">
<polygon fill="white" stroke="#bfbfbf" points="310,-722.5 310,-779.5 407,-779.5 407,-722.5 310,-722.5"/>
<text text-anchor="middle" x="358.5" y="-767.5" font-family="Helvetica,sans-Serif" font-size="10.00">std::vector&lt; T &gt;</text>
<polyline fill="none" stroke="#bfbfbf" points="310,-760.5 407,-760.5 "/>
<text text-anchor="middle" x="358.5" y="-748.5" font-family="Helvetica,sans-Serif" font-size="10.00"> </text>
<polyline fill="none" stroke="#bfbfbf" points="310,-741.5 407,-741.5 "/>
<text text-anchor="middle" x="358.5" y="-729.5" font-family="Helvetica,sans-Serif" font-size="10.00"> </text>
</a>
</g>
</g>
<!-- Node5&#45;&gt;Node4 -->
<g id="edge4" class="edge">
<title>Node5&#45;&gt;Node4</title>
<path fill="none" stroke="orange" d="M299.59,-744.66C235.76,-737.92 138.94,-724.66 108.5,-704 90.3,-691.65 77.12,-670.76 68.45,-652.84"/>
<polygon fill="orange" stroke="orange" points="299.62,-748.18 309.93,-745.72 300.34,-741.21 299.62,-748.18"/>
<text text-anchor="start" x="108.5" y="-696" font-family="Helvetica,sans-Serif" font-size="10.00"> &lt; Vertex_handle_t&lt;</text>
<text text-anchor="middle" x="159.5" y="-685" font-family="Helvetica,sans-Serif" font-size="10.00"> 3 &gt; &gt;</text>
</g>
<!-- Node9 -->
<g id="node9" class="node">
<title>Node9</title>
<g id="a_node9"><a xlink:title=" ">
<polygon fill="white" stroke="#bfbfbf" points="129.5,-584.5 129.5,-652.5 271.5,-652.5 271.5,-584.5 129.5,-584.5"/>
<text text-anchor="start" x="137.5" y="-640.5" font-family="Helvetica,sans-Serif" font-size="10.00">std::vector&lt; Edge_handle</text>
<text text-anchor="middle" x="200.5" y="-629.5" font-family="Helvetica,sans-Serif" font-size="10.00">_t&lt; 3 &gt; &gt;</text>
<polyline fill="none" stroke="#bfbfbf" points="129.5,-622.5 271.5,-622.5 "/>
<text text-anchor="start" x="137.5" y="-610.5" font-family="Helvetica,sans-Serif" font-size="10.00">+ elements</text>
<polyline fill="none" stroke="#bfbfbf" points="129.5,-603.5 271.5,-603.5 "/>
<text text-anchor="middle" x="200.5" y="-591.5" font-family="Helvetica,sans-Serif" font-size="10.00"> </text>
</a>
</g>
</g>
<!-- Node5&#45;&gt;Node9 -->
<g id="edge10" class="edge">
<title>Node5&#45;&gt;Node9</title>
<path fill="none" stroke="orange" d="M300.14,-741.14C275.2,-734.64 247.51,-723.4 228.5,-704 215.09,-690.31 208.1,-670.06 204.46,-652.81"/>
<polygon fill="orange" stroke="orange" points="299.36,-744.55 309.9,-743.48 301,-737.74 299.36,-744.55"/>
<text text-anchor="middle" x="291.5" y="-690.5" font-family="Helvetica,sans-Serif" font-size="10.00"> &lt; Edge_handle_t&lt; 3 &gt; &gt;</text>
</g>
<!-- Node10 -->
<g id="node10" class="node">
<title>Node10</title>
<g id="a_node10"><a xlink:title=" ">
<polygon fill="white" stroke="#bfbfbf" points="290,-584.5 290,-652.5 427,-652.5 427,-584.5 290,-584.5"/>
<text text-anchor="start" x="298" y="-640.5" font-family="Helvetica,sans-Serif" font-size="10.00">std::vector&lt; Cell_handle</text>
<text text-anchor="middle" x="358.5" y="-629.5" font-family="Helvetica,sans-Serif" font-size="10.00">_t&lt; 3 &gt; &gt;</text>
<polyline fill="none" stroke="#bfbfbf" points="290,-622.5 427,-622.5 "/>
<text text-anchor="start" x="298" y="-610.5" font-family="Helvetica,sans-Serif" font-size="10.00">+ elements</text>
<polyline fill="none" stroke="#bfbfbf" points="290,-603.5 427,-603.5 "/>
<text text-anchor="middle" x="358.5" y="-591.5" font-family="Helvetica,sans-Serif" font-size="10.00"> </text>
</a>
</g>
</g>
<!-- Node5&#45;&gt;Node10 -->
<g id="edge12" class="edge">
<title>Node5&#45;&gt;Node10</title>
<path fill="none" stroke="orange" d="M358.5,-712.3C358.5,-693.45 358.5,-670.86 358.5,-652.68"/>
<polygon fill="orange" stroke="orange" points="355,-712.32 358.5,-722.32 362,-712.32 355,-712.32"/>
<text text-anchor="middle" x="419" y="-690.5" font-family="Helvetica,sans-Serif" font-size="10.00"> &lt; Cell_handle_t&lt; 3 &gt; &gt;</text>
</g>
<!-- Node11 -->
<g id="node11" class="node">
<title>Node11</title>
<g id="a_node11"><a xlink:title=" ">
<polygon fill="white" stroke="#bfbfbf" points="445.5,-584.5 445.5,-652.5 585.5,-652.5 585.5,-584.5 445.5,-584.5"/>
<text text-anchor="start" x="453.5" y="-640.5" font-family="Helvetica,sans-Serif" font-size="10.00">std::vector&lt; Face_handle</text>
<text text-anchor="middle" x="515.5" y="-629.5" font-family="Helvetica,sans-Serif" font-size="10.00">_t&lt; 3 &gt; &gt;</text>
<polyline fill="none" stroke="#bfbfbf" points="445.5,-622.5 585.5,-622.5 "/>
<text text-anchor="start" x="453.5" y="-610.5" font-family="Helvetica,sans-Serif" font-size="10.00">+ elements</text>
<polyline fill="none" stroke="#bfbfbf" points="445.5,-603.5 585.5,-603.5 "/>
<text text-anchor="middle" x="515.5" y="-591.5" font-family="Helvetica,sans-Serif" font-size="10.00"> </text>
</a>
</g>
</g>
<!-- Node5&#45;&gt;Node11 -->
<g id="edge14" class="edge">
<title>Node5&#45;&gt;Node11</title>
<path fill="none" stroke="orange" d="M416.86,-739.53C440.1,-732.79 465.53,-721.8 483.5,-704 497.32,-690.31 505.26,-670.06 509.77,-652.81"/>
<polygon fill="orange" stroke="orange" points="415.81,-736.19 407.07,-742.17 417.63,-742.95 415.81,-736.19"/>
<text text-anchor="middle" x="561.5" y="-690.5" font-family="Helvetica,sans-Serif" font-size="10.00"> &lt; Face_handle_t&lt; 3 &gt; &gt;</text>
</g>
<!-- Node6 -->
<g id="node6" class="node">
<title>Node6</title>
<g id="a_node6"><a xlink:title=" ">
<polygon fill="white" stroke="#bfbfbf" points="408,-827.5 408,-884.5 437,-884.5 437,-827.5 408,-827.5"/>
<text text-anchor="middle" x="422.5" y="-872.5" font-family="Helvetica,sans-Serif" font-size="10.00">T</text>
<polyline fill="none" stroke="#bfbfbf" points="408,-865.5 437,-865.5 "/>
<text text-anchor="middle" x="422.5" y="-853.5" font-family="Helvetica,sans-Serif" font-size="10.00"> </text>
<polyline fill="none" stroke="#bfbfbf" points="408,-846.5 437,-846.5 "/>
<text text-anchor="middle" x="422.5" y="-834.5" font-family="Helvetica,sans-Serif" font-size="10.00"> </text>
</a>
</g>
</g>
<!-- Node6&#45;&gt;Node5 -->
<g id="edge5" class="edge">
<title>Node6&#45;&gt;Node5</title>
<path fill="none" stroke="#404040" d="M407.98,-831.63C400.34,-819.33 390.78,-803.95 382.1,-789.99"/>
<polygon fill="none" stroke="#404040" points="382.02,-789.86 375.46,-786.87 375.69,-779.67 382.25,-782.65 382.02,-789.86"/>
<text text-anchor="middle" x="421.5" y="-801" font-family="Helvetica,sans-Serif" font-size="10.00"> +elements</text>
</g>
<!-- Node8 -->
<g id="node8" class="node">
<title>Node8</title>
<g id="a_node8"><a xlink:title="STL class.">
<polygon fill="white" stroke="#bfbfbf" points="508.5,-722.5 508.5,-779.5 634.5,-779.5 634.5,-722.5 508.5,-722.5"/>
<text text-anchor="middle" x="571.5" y="-767.5" font-family="Helvetica,sans-Serif" font-size="10.00">std::multimap&lt; K, T &gt;</text>
<polyline fill="none" stroke="#bfbfbf" points="508.5,-760.5 634.5,-760.5 "/>
<text text-anchor="start" x="516.5" y="-748.5" font-family="Helvetica,sans-Serif" font-size="10.00">+ keys</text>
<polyline fill="none" stroke="#bfbfbf" points="508.5,-741.5 634.5,-741.5 "/>
<text text-anchor="middle" x="571.5" y="-729.5" font-family="Helvetica,sans-Serif" font-size="10.00"> </text>
</a>
</g>
</g>
<!-- Node6&#45;&gt;Node8 -->
<g id="edge8" class="edge">
<title>Node6&#45;&gt;Node8</title>
<path fill="none" stroke="#404040" d="M437.06,-844.94C456.45,-831.53 491.74,-807.14 521.3,-786.7"/>
<polygon fill="none" stroke="#404040" points="521.61,-786.49 524.27,-779.79 531.48,-779.67 528.82,-786.37 521.61,-786.49"/>
<text text-anchor="middle" x="530.5" y="-801" font-family="Helvetica,sans-Serif" font-size="10.00"> +elements</text>
</g>
<!-- Node7 -->
<g id="node7" class="node">
<title>Node7</title>
<g id="a_node7"><a xlink:title=" ">
<polygon fill="white" stroke="#bfbfbf" points="604,-573.5 604,-663.5 713,-663.5 713,-573.5 604,-573.5"/>
<text text-anchor="start" x="612" y="-651.5" font-family="Helvetica,sans-Serif" font-size="10.00">std::multimap&lt; Int</text>
<text text-anchor="start" x="612" y="-640.5" font-family="Helvetica,sans-Serif" font-size="10.00">_precision, Facet_t</text>
<text text-anchor="middle" x="658.5" y="-629.5" font-family="Helvetica,sans-Serif" font-size="10.00">&lt; 3 &gt; &gt;</text>
<polyline fill="none" stroke="#bfbfbf" points="604,-622.5 713,-622.5 "/>
<text text-anchor="start" x="612" y="-610.5" font-family="Helvetica,sans-Serif" font-size="10.00">+ elements</text>
<text text-anchor="start" x="612" y="-599.5" font-family="Helvetica,sans-Serif" font-size="10.00">+ keys</text>
<polyline fill="none" stroke="#bfbfbf" points="604,-592.5 713,-592.5 "/>
<text text-anchor="middle" x="658.5" y="-580.5" font-family="Helvetica,sans-Serif" font-size="10.00"> </text>
</a>
</g>
</g>
<!-- Node7&#45;&gt;Node3 -->
<g id="edge6" class="edge">
<title>Node7&#45;&gt;Node3</title>
<path fill="none" stroke="#404040" d="M605.9,-573.4C561.28,-535.99 496.39,-481.6 444.26,-437.9"/>
<polygon fill="none" stroke="#404040" points="444.21,-437.86 437.04,-437.07 435.02,-430.15 442.18,-430.94 444.21,-437.86"/>
<text text-anchor="middle" x="630" y="-530.5" font-family="Helvetica,sans-Serif" font-size="10.00"> &#45;m_spacelike_facets</text>
</g>
<!-- Node8&#45;&gt;Node7 -->
<g id="edge7" class="edge">
<title>Node8&#45;&gt;Node7</title>
<path fill="none" stroke="orange" d="M623.98,-715.3C627.48,-711.75 630.72,-707.98 633.5,-704 641.83,-692.09 647.42,-677.38 651.15,-663.59"/>
<polygon fill="orange" stroke="orange" points="621.43,-712.89 616.46,-722.25 626.18,-718.03 621.43,-712.89"/>
<text text-anchor="start" x="645.5" y="-696" font-family="Helvetica,sans-Serif" font-size="10.00"> &lt; Int_precision, Facet</text>
<text text-anchor="middle" x="700" y="-685" font-family="Helvetica,sans-Serif" font-size="10.00">_t&lt; 3 &gt; &gt;</text>
</g>
<!-- Node9&#45;&gt;Node3 -->
<g id="edge9" class="edge">
<title>Node9&#45;&gt;Node3</title>
<path fill="none" stroke="#404040" d="M214.06,-584.28C223.74,-562.46 237.95,-533.83 254.5,-511 261.14,-501.84 265.3,-501.72 272.5,-493 273.09,-492.29 273.68,-491.57 274.26,-490.85"/>
<polygon fill="none" stroke="#404040" points="274.4,-490.68 275.01,-483.5 281.88,-481.3 281.27,-488.48 274.4,-490.68"/>
<text text-anchor="middle" x="304.5" y="-541.5" font-family="Helvetica,sans-Serif" font-size="10.00"> &#45;m_edges</text>
<text text-anchor="middle" x="304.5" y="-530.5" font-family="Helvetica,sans-Serif" font-size="10.00">&#45;m_timelike_edges</text>
<text text-anchor="middle" x="304.5" y="-519.5" font-family="Helvetica,sans-Serif" font-size="10.00">&#45;m_spacelike_edges</text>
</g>
<!-- Node10&#45;&gt;Node3 -->
<g id="edge11" class="edge">
<title>Node10&#45;&gt;Node3</title>
<path fill="none" stroke="#404040" d="M358.5,-584.36C358.5,-563.38 358.5,-534.67 358.5,-504.97"/>
<polygon fill="none" stroke="#404040" points="358.5,-504.66 354.5,-498.66 358.5,-492.66 362.5,-498.66 358.5,-504.66"/>
<text text-anchor="middle" x="392.5" y="-547" font-family="Helvetica,sans-Serif" font-size="10.00"> &#45;m_cells</text>
<text text-anchor="middle" x="392.5" y="-536" font-family="Helvetica,sans-Serif" font-size="10.00">&#45;m_one_three</text>
<text text-anchor="middle" x="392.5" y="-525" font-family="Helvetica,sans-Serif" font-size="10.00">&#45;m_three_one</text>
<text text-anchor="middle" x="392.5" y="-514" font-family="Helvetica,sans-Serif" font-size="10.00">&#45;m_two_two</text>
</g>
<!-- Node11&#45;&gt;Node3 -->
<g id="edge13" class="edge">
<title>Node11&#45;&gt;Node3</title>
<path fill="none" stroke="#404040" d="M494.81,-584.36C480.84,-561.98 461.38,-530.8 441.53,-499.01"/>
<polygon fill="none" stroke="#404040" points="441.43,-498.85 434.86,-495.88 435.08,-488.67 441.65,-491.64 441.43,-498.85"/>
<text text-anchor="middle" x="498" y="-530.5" font-family="Helvetica,sans-Serif" font-size="10.00"> &#45;m_faces</text>
</g>
</g>
</svg>
        <g id="navigator" transform="translate(0 0)" fill="#404254">
                <rect fill="#f2f5e9" fill-opacity="0.5" stroke="#606060" stroke-width=".5" x="0" y="0" width="60" height="60"/>
                <use id="zoomplus" xlink:href="#zoomPlus" x="17" y="9" onmousedown="handleZoom(evt,'in')"/>
                <use id="zoomminus" xlink:href="#zoomMin" x="42" y="9" onmousedown="handleZoom(evt,'out')"/>
                <use id="reset" xlink:href="#resetDef" x="30" y="36" onmousedown="handleReset()"/>
                <g id="arrowUp" xlink:href="#dirArrow" transform="translate(30 24)" onmousedown="handlePan(0,-1)">
                  <use xlink:href="#rim" fill="#404040">
                        <set attributeName="fill" to="#808080" begin="arrowUp.mouseover" end="arrowUp.mouseout"/>
                  </use>
                  <path fill="none" stroke="white" stroke-width="1.5" d="M0,-3.0v7 M-2.5,-0.5L0,-3.0L2.5,-0.5"/>
                </g>
                <g id="arrowRight" xlink:href="#dirArrow" transform="rotate(90) translate(36 -43)" onmousedown="handlePan(1,0)">
                  <use xlink:href="#rim" fill="#404040">
                        <set attributeName="fill" to="#808080" begin="arrowRight.mouseover" end="arrowRight.mouseout"/>
                  </use>
                  <path fill="none" stroke="white" stroke-width="1.5" d="M0,-3.0v7 M-2.5,-0.5L0,-3.0L2.5,-0.5"/>
                </g>
                <g id="arrowDown" xlink:href="#dirArrow" transform="rotate(180) translate(-30 -48)" onmousedown="handlePan(0,1)">
                  <use xlink:href="#rim" fill="#404040">
                        <set attributeName="fill" to="#808080" begin="arrowDown.mouseover" end="arrowDown.mouseout"/>
                  </use>
                  <path fill="none" stroke="white" stroke-width="1.5" d="M0,-3.0v7 M-2.5,-0.5L0,-3.0L2.5,-0.5"/>
                </g>
                <g id="arrowLeft" xlink:href="#dirArrow" transform="rotate(270) translate(-36 17)" onmousedown="handlePan(-1,0)">
                  <use xlink:href="#rim" fill="#404040">
                        <set attributeName="fill" to="#808080" begin="arrowLeft.mouseover" end="arrowLeft.mouseout"/>
                  </use>
                  <path fill="none" stroke="white" stroke-width="1.5" d="M0,-3.0v7 M-2.5,-0.5L0,-3.0L2.5,-0.5"/>
                </g>
        </g>
        <svg viewBox="0 0 15 15" width="100%" height="30px" preserveAspectRatio="xMaxYMin meet">
         <g id="arrow_out" transform="scale(0.3 0.3)">
          <a xlink:href="classmanifolds_1_1_manifold_3_013_01_4__coll__graph_org.svg" target="_base">
           <rect id="button" ry="5" rx="5" y="6" x="6" height="38" width="38"
                fill="#f2f5e9" fill-opacity="0.5" stroke="#606060" stroke-width="1.0"/>
           <path id="arrow"
             d="M 11.500037,31.436501 C 11.940474,20.09759 22.043105,11.32322 32.158766,21.979434 L 37.068811,17.246167 C 37.068811,17.246167 37.088388,32 37.088388,32 L 22.160133,31.978069 C 22.160133,31.978069 26.997745,27.140456 26.997745,27.140456 C 18.528582,18.264221 13.291696,25.230495 11.500037,31.436501 z"
             style="fill:#404040;"/>
          </a>
         </g>
        </svg>
</svg>
