<?xml version="1.0" encoding="UTF-8" standalone="no"?>
<!DOCTYPE svg PUBLIC "-//W3C//DTD SVG 1.1//EN"
 "http://www.w3.org/Graphics/SVG/1.1/DTD/svg11.dtd">
<!-- Generated by graphviz version 2.43.0 (0)
 -->
<!-- Title: C Pages: 1 -->
<svg width="69pt" height="160pt"
 viewBox="0.00 0.00 69.00 160.00" xmlns="http://www.w3.org/2000/svg" xmlns:xlink="http://www.w3.org/1999/xlink">
<g id="graph0" class="graph" transform="scale(1 1) rotate(0) translate(4 156)">
<title>C</title>
<!-- Node1 -->
<g id="node1" class="node">
<title>Node1</title>
<g id="a_node1"><a xlink:title=" ">
<polygon fill="#999999" stroke="#666666" points="6,-0.5 6,-57.5 55,-57.5 55,-0.5 6,-0.5"/>
<text text-anchor="middle" x="30.5" y="-45.5" font-family="Helvetica,sans-Serif" font-size="10.00">C</text>
<polyline fill="none" stroke="#666666" points="6,-38.5 55,-38.5 "/>
<text text-anchor="start" x="14" y="-26.5" font-family="Helvetica,sans-Serif" font-size="10.00">+ m_d</text>
<polyline fill="none" stroke="#666666" points="6,-19.5 55,-19.5 "/>
<text text-anchor="middle" x="30.5" y="-7.5" font-family="Helvetica,sans-Serif" font-size="10.00"> </text>
</a>
</g>
</g>
<!-- Node2 -->
<g id="node2" class="node">
<title>Node2</title>
<g id="a_node2"><a xlink:href="class_a.html" target="_top" xlink:title=" ">
<polygon fill="white" stroke="#bfbfbf" points="0,-94.5 0,-151.5 61,-151.5 61,-94.5 0,-94.5"/>
<text text-anchor="middle" x="30.5" y="-139.5" font-family="Helvetica,sans-Serif" font-size="10.00">A</text>
<polyline fill="none" stroke="#bfbfbf" points="0,-132.5 61,-132.5 "/>
<text text-anchor="start" x="8" y="-120.5" font-family="Helvetica,sans-Serif" font-size="10.00">+ m_self</text>
<polyline fill="none" stroke="#bfbfbf" points="0,-113.5 61,-113.5 "/>
<text text-anchor="middle" x="30.5" y="-101.5" font-family="Helvetica,sans-Serif" font-size="10.00"> </text>
</a>
</g>
</g>
<!-- Node2&#45;&gt;Node1 -->
<g id="edge1" class="edge">
<title>Node2&#45;&gt;Node1</title>
<path fill="none" stroke="#63b8ff" d="M30.5,-84.21C30.5,-75.29 30.5,-65.95 30.5,-57.58"/>
<polygon fill="none" stroke="#63b8ff" points="27,-84.4 30.5,-94.4 34,-84.4 27,-84.4"/>
</g>
</g>
</svg>
