<?xml version="1.0" encoding="UTF-8" standalone="no"?>
<!DOCTYPE svg PUBLIC "-//W3C//DTD SVG 1.1//EN"
 "http://www.w3.org/Graphics/SVG/1.1/DTD/svg11.dtd">
<!-- Generated by graphviz version 2.43.0 (0)
 -->
<!-- Title: function_ref&lt; Fn &gt; Pages: 1 -->
<svg width="385pt" height="215pt"
 viewBox="0.00 0.00 385.00 215.00" xmlns="http://www.w3.org/2000/svg" xmlns:xlink="http://www.w3.org/1999/xlink">
<g id="graph0" class="graph" transform="scale(1 1) rotate(0) translate(4 211)">
<title>function_ref&lt; Fn &gt;</title>
<polygon fill="white" stroke="transparent" points="-4,4 -4,-211 381,-211 381,4 -4,4"/>
<!-- Node1 -->
<g id="node1" class="node">
<title>Node1</title>
<g id="a_node1"><a xlink:title=" ">
<polygon fill="#bfbfbf" stroke="black" points="115,-149.5 115,-206.5 225,-206.5 225,-149.5 115,-149.5"/>
<text text-anchor="middle" x="170" y="-194.5" font-family="Helvetica,sans-Serif" font-size="10.00">function_ref&lt; Fn &gt;</text>
<polyline fill="none" stroke="black" points="115,-187.5 225,-187.5 "/>
<text text-anchor="middle" x="170" y="-175.5" font-family="Helvetica,sans-Serif" font-size="10.00"> </text>
<polyline fill="none" stroke="black" points="115,-168.5 225,-168.5 "/>
<text text-anchor="middle" x="170" y="-156.5" font-family="Helvetica,sans-Serif" font-size="10.00"> </text>
</a>
</g>
</g>
<!-- Node2 -->
<g id="node2" class="node">
<title>Node2</title>
<g id="a_node2"><a xlink:href="classfunction__ref.html" target="_top" xlink:title=" ">
<polygon fill="white" stroke="black" points="0,-6 0,-74 166,-74 166,-6 0,-6"/>
<text text-anchor="start" x="8" y="-62" font-family="Helvetica,sans-Serif" font-size="10.00">function_ref&lt; Simplicial</text>
<text text-anchor="middle" x="83" y="-51" font-family="Helvetica,sans-Serif" font-size="10.00">Manifold(SimplicialManifold)&gt;</text>
<polyline fill="none" stroke="black" points="0,-44 166,-44 "/>
<text text-anchor="middle" x="83" y="-32" font-family="Helvetica,sans-Serif" font-size="10.00"> </text>
<polyline fill="none" stroke="black" points="0,-25 166,-25 "/>
<text text-anchor="middle" x="83" y="-13" font-family="Helvetica,sans-Serif" font-size="10.00"> </text>
</a>
</g>
</g>
<!-- Node1&#45;&gt;Node2 -->
<g id="edge1" class="edge">
<title>Node1&#45;&gt;Node2</title>
<path fill="none" stroke="orange" d="M136.72,-141.4C134,-137.97 131.38,-134.48 129,-131 116.81,-113.19 105.71,-91.72 97.48,-74.21"/>
<polygon fill="orange" stroke="orange" points="134.14,-143.76 143.22,-149.22 139.53,-139.29 134.14,-143.76"/>
<text text-anchor="start" x="129" y="-117.5" font-family="Helvetica,sans-Serif" font-size="10.00"> &lt; SimplicialManifold</text>
<text text-anchor="middle" x="182.5" y="-106.5" font-family="Helvetica,sans-Serif" font-size="10.00">(SimplicialManifold)&gt;</text>
</g>
<!-- Node3 -->
<g id="node3" class="node">
<title>Node3</title>
<g id="a_node3"><a xlink:href="classfunction__ref.html" target="_top" xlink:title=" ">
<polygon fill="white" stroke="black" points="184,-0.5 184,-79.5 332,-79.5 332,-0.5 184,-0.5"/>
<text text-anchor="start" x="192" y="-67.5" font-family="Helvetica,sans-Serif" font-size="10.00">function_ref&lt; tl::expected</text>
<text text-anchor="start" x="192" y="-56.5" font-family="Helvetica,sans-Serif" font-size="10.00">&lt; ManifoldType, std::string</text>
<text text-anchor="middle" x="258" y="-45.5" font-family="Helvetica,sans-Serif" font-size="10.00">_view &gt;(ManifoldType &amp;)&gt;</text>
<polyline fill="none" stroke="black" points="184,-38.5 332,-38.5 "/>
<text text-anchor="middle" x="258" y="-26.5" font-family="Helvetica,sans-Serif" font-size="10.00"> </text>
<polyline fill="none" stroke="black" points="184,-19.5 332,-19.5 "/>
<text text-anchor="middle" x="258" y="-7.5" font-family="Helvetica,sans-Serif" font-size="10.00"> </text>
</a>
</g>
</g>
<!-- Node1&#45;&gt;Node3 -->
<g id="edge2" class="edge">
<title>Node1&#45;&gt;Node3</title>
<path fill="none" stroke="orange" d="M226.45,-142.37C229.99,-138.83 233.23,-135.04 236,-131 246.28,-116.01 251.77,-96.72 254.7,-79.84"/>
<polygon fill="orange" stroke="orange" points="223.88,-139.97 218.82,-149.28 228.58,-145.16 223.88,-139.97"/>
<text text-anchor="start" x="250" y="-123" font-family="Helvetica,sans-Serif" font-size="10.00"> &lt; tl::expected&lt; Manifold</text>
<text text-anchor="start" x="250" y="-112" font-family="Helvetica,sans-Serif" font-size="10.00">Type, std::string_view</text>
<text text-anchor="middle" x="313.5" y="-101" font-family="Helvetica,sans-Serif" font-size="10.00"> &gt;(ManifoldType &amp;)&gt;</text>
</g>
</g>
</svg>
