<?xml version="1.0" encoding="UTF-8" standalone="no"?>
<!DOCTYPE svg PUBLIC "-//W3C//DTD SVG 1.1//EN"
 "http://www.w3.org/Graphics/SVG/1.1/DTD/svg11.dtd">
<!-- Generated by graphviz version 2.43.0 (0)
 -->
<!-- Title: MoveCommand&lt; ManifoldType, ExpectedType, FunctionType &gt; Pages: 1 -->
<svg width="500pt" height="568pt"
 viewBox="0.00 0.00 500.00 568.00" xmlns="http://www.w3.org/2000/svg" xmlns:xlink="http://www.w3.org/1999/xlink">
<g id="graph0" class="graph" transform="scale(1 1) rotate(0) translate(4 564)">
<title>MoveCommand&lt; ManifoldType, ExpectedType, FunctionType &gt;</title>
<polygon fill="white" stroke="transparent" points="-4,4 -4,-564 496,-564 496,4 -4,4"/>
<!-- Node1 -->
<g id="node1" class="node">
<title>Node1</title>
<g id="a_node1"><a xlink:title=" ">
<polygon fill="#bfbfbf" stroke="black" points="56.5,-0.5 56.5,-156.5 229.5,-156.5 229.5,-0.5 56.5,-0.5"/>
<text text-anchor="start" x="64.5" y="-144.5" font-family="Helvetica,sans-Serif" font-size="10.00">MoveCommand&lt; ManifoldType,</text>
<text text-anchor="middle" x="143" y="-133.5" font-family="Helvetica,sans-Serif" font-size="10.00"> ExpectedType, FunctionType &gt;</text>
<polyline fill="none" stroke="black" points="56.5,-126.5 229.5,-126.5 "/>
<text text-anchor="start" x="64.5" y="-114.5" font-family="Helvetica,sans-Serif" font-size="10.00">&#45; m_manifold</text>
<polyline fill="none" stroke="black" points="56.5,-107.5 229.5,-107.5 "/>
<text text-anchor="start" x="64.5" y="-95.5" font-family="Helvetica,sans-Serif" font-size="10.00">+ MoveCommand()</text>
<text text-anchor="start" x="64.5" y="-84.5" font-family="Helvetica,sans-Serif" font-size="10.00">+ MoveCommand()</text>
<text text-anchor="start" x="64.5" y="-73.5" font-family="Helvetica,sans-Serif" font-size="10.00">+ enqueue()</text>
<text text-anchor="start" x="64.5" y="-62.5" font-family="Helvetica,sans-Serif" font-size="10.00">+ execute()</text>
<text text-anchor="start" x="64.5" y="-51.5" font-family="Helvetica,sans-Serif" font-size="10.00">+ get_manifold()</text>
<text text-anchor="start" x="64.5" y="-40.5" font-family="Helvetica,sans-Serif" font-size="10.00">+ get_results()</text>
<text text-anchor="start" x="64.5" y="-29.5" font-family="Helvetica,sans-Serif" font-size="10.00">+ parse_unexpected()</text>
<text text-anchor="start" x="64.5" y="-18.5" font-family="Helvetica,sans-Serif" font-size="10.00">+ print_errors()</text>
<text text-anchor="start" x="64.5" y="-7.5" font-family="Helvetica,sans-Serif" font-size="10.00">+ size()</text>
</a>
</g>
</g>
<!-- Node2 -->
<g id="node2" class="node">
<title>Node2</title>
<g id="a_node2"><a xlink:title=" ">
<polygon fill="white" stroke="#bfbfbf" points="0,-215.5 0,-272.5 110,-272.5 110,-215.5 0,-215.5"/>
<text text-anchor="middle" x="55" y="-260.5" font-family="Helvetica,sans-Serif" font-size="10.00">std::array&lt; int, 5 &gt;</text>
<polyline fill="none" stroke="#bfbfbf" points="0,-253.5 110,-253.5 "/>
<text text-anchor="start" x="8" y="-241.5" font-family="Helvetica,sans-Serif" font-size="10.00">+ elements</text>
<polyline fill="none" stroke="#bfbfbf" points="0,-234.5 110,-234.5 "/>
<text text-anchor="middle" x="55" y="-222.5" font-family="Helvetica,sans-Serif" font-size="10.00"> </text>
</a>
</g>
</g>
<!-- Node2&#45;&gt;Node1 -->
<g id="edge1" class="edge">
<title>Node2&#45;&gt;Node1</title>
<path fill="none" stroke="#404040" d="M69.93,-215.26C77.16,-201.83 86.28,-184.88 95.61,-167.55"/>
<polygon fill="none" stroke="#404040" points="95.74,-167.31 95.06,-160.13 101.43,-156.74 102.1,-163.92 95.74,-167.31"/>
<text text-anchor="middle" x="136" y="-178" font-family="Helvetica,sans-Serif" font-size="10.00"> &#45;m_failed_moves</text>
</g>
<!-- Node3 -->
<g id="node3" class="node">
<title>Node3</title>
<g id="a_node3"><a xlink:title="STL class.">
<polygon fill="white" stroke="#bfbfbf" points="9,-364.5 9,-421.5 101,-421.5 101,-364.5 9,-364.5"/>
<text text-anchor="middle" x="55" y="-409.5" font-family="Helvetica,sans-Serif" font-size="10.00">std::array&lt; T &gt;</text>
<polyline fill="none" stroke="#bfbfbf" points="9,-402.5 101,-402.5 "/>
<text text-anchor="middle" x="55" y="-390.5" font-family="Helvetica,sans-Serif" font-size="10.00"> </text>
<polyline fill="none" stroke="#bfbfbf" points="9,-383.5 101,-383.5 "/>
<text text-anchor="middle" x="55" y="-371.5" font-family="Helvetica,sans-Serif" font-size="10.00"> </text>
</a>
</g>
</g>
<!-- Node3&#45;&gt;Node2 -->
<g id="edge2" class="edge">
<title>Node3&#45;&gt;Node2</title>
<path fill="none" stroke="orange" d="M55,-354.28C55,-328.74 55,-295.59 55,-272.53"/>
<polygon fill="orange" stroke="orange" points="51.5,-354.35 55,-364.35 58.5,-354.35 51.5,-354.35"/>
<text text-anchor="middle" x="80.5" y="-316" font-family="Helvetica,sans-Serif" font-size="10.00"> &lt; int, 5 &gt;</text>
</g>
<!-- Node4 -->
<g id="node4" class="node">
<title>Node4</title>
<g id="a_node4"><a xlink:title=" ">
<polygon fill="white" stroke="#bfbfbf" points="93.5,-502.5 93.5,-559.5 122.5,-559.5 122.5,-502.5 93.5,-502.5"/>
<text text-anchor="middle" x="108" y="-547.5" font-family="Helvetica,sans-Serif" font-size="10.00">T</text>
<polyline fill="none" stroke="#bfbfbf" points="93.5,-540.5 122.5,-540.5 "/>
<text text-anchor="middle" x="108" y="-528.5" font-family="Helvetica,sans-Serif" font-size="10.00"> </text>
<polyline fill="none" stroke="#bfbfbf" points="93.5,-521.5 122.5,-521.5 "/>
<text text-anchor="middle" x="108" y="-509.5" font-family="Helvetica,sans-Serif" font-size="10.00"> </text>
</a>
</g>
</g>
<!-- Node4&#45;&gt;Node3 -->
<g id="edge3" class="edge">
<title>Node4&#45;&gt;Node3</title>
<path fill="none" stroke="#404040" d="M93.3,-515.06C85.8,-506.6 77.19,-495.45 72,-484 64.96,-468.46 60.83,-450.13 58.42,-434.08"/>
<polygon fill="none" stroke="#404040" points="58.37,-433.7 53.63,-428.27 56.82,-421.8 61.56,-427.24 58.37,-433.7"/>
<text text-anchor="middle" x="101" y="-465" font-family="Helvetica,sans-Serif" font-size="10.00"> +elements</text>
</g>
<!-- Node8 -->
<g id="node8" class="node">
<title>Node8</title>
<g id="a_node8"><a xlink:title="STL class.">
<polygon fill="white" stroke="#bfbfbf" points="119,-364.5 119,-421.5 215,-421.5 215,-364.5 119,-364.5"/>
<text text-anchor="middle" x="167" y="-409.5" font-family="Helvetica,sans-Serif" font-size="10.00">std::deque&lt; T &gt;</text>
<polyline fill="none" stroke="#bfbfbf" points="119,-402.5 215,-402.5 "/>
<text text-anchor="middle" x="167" y="-390.5" font-family="Helvetica,sans-Serif" font-size="10.00"> </text>
<polyline fill="none" stroke="#bfbfbf" points="119,-383.5 215,-383.5 "/>
<text text-anchor="middle" x="167" y="-371.5" font-family="Helvetica,sans-Serif" font-size="10.00"> </text>
</a>
</g>
</g>
<!-- Node4&#45;&gt;Node8 -->
<g id="edge8" class="edge">
<title>Node4&#45;&gt;Node8</title>
<path fill="none" stroke="#404040" d="M121.52,-502.39C124.38,-496.36 127.34,-489.99 130,-484 137.32,-467.51 144.98,-449.12 151.41,-433.28"/>
<polygon fill="none" stroke="#404040" points="151.57,-432.87 150.11,-425.81 156.06,-421.74 157.53,-428.8 151.57,-432.87"/>
<text text-anchor="middle" x="173" y="-465" font-family="Helvetica,sans-Serif" font-size="10.00"> +elements</text>
</g>
<!-- Node5 -->
<g id="node5" class="node">
<title>Node5</title>
<g id="a_node5"><a xlink:title=" ">
<polygon fill="white" stroke="#bfbfbf" points="128,-204.5 128,-283.5 336,-283.5 336,-204.5 128,-204.5"/>
<text text-anchor="start" x="136" y="-271.5" font-family="Helvetica,sans-Serif" font-size="10.00">std::deque&lt; function</text>
<text text-anchor="start" x="136" y="-260.5" font-family="Helvetica,sans-Serif" font-size="10.00">_ref&lt; tl::expected&lt; Manifold</text>
<text text-anchor="middle" x="232" y="-249.5" font-family="Helvetica,sans-Serif" font-size="10.00">Type, std::string &gt;(ManifoldType &amp;)&gt; &gt;</text>
<polyline fill="none" stroke="#bfbfbf" points="128,-242.5 336,-242.5 "/>
<text text-anchor="middle" x="232" y="-230.5" font-family="Helvetica,sans-Serif" font-size="10.00"> </text>
<polyline fill="none" stroke="#bfbfbf" points="128,-223.5 336,-223.5 "/>
<text text-anchor="middle" x="232" y="-211.5" font-family="Helvetica,sans-Serif" font-size="10.00"> </text>
</a>
</g>
</g>
<!-- Node5&#45;&gt;Node1 -->
<g id="edge4" class="edge">
<title>Node5&#45;&gt;Node1</title>
<path fill="none" stroke="#404040" d="M210.91,-204.25C204.8,-193.04 197.88,-180.32 190.84,-167.39"/>
<polygon fill="none" stroke="#404040" points="190.66,-167.05 184.27,-163.69 184.92,-156.51 191.3,-159.86 190.66,-167.05"/>
<text text-anchor="middle" x="228.5" y="-178" font-family="Helvetica,sans-Serif" font-size="10.00"> &#45;m_moves</text>
</g>
<!-- Node6 -->
<g id="node6" class="node">
<title>Node6</title>
<g id="a_node6"><a xlink:href="classfunction__ref.html" target="_top" xlink:title=" ">
<polygon fill="white" stroke="black" points="282,-353.5 282,-432.5 430,-432.5 430,-353.5 282,-353.5"/>
<text text-anchor="start" x="290" y="-420.5" font-family="Helvetica,sans-Serif" font-size="10.00">function_ref&lt; tl::expected</text>
<text text-anchor="start" x="290" y="-409.5" font-family="Helvetica,sans-Serif" font-size="10.00">&lt; ManifoldType, std::string</text>
<text text-anchor="middle" x="356" y="-398.5" font-family="Helvetica,sans-Serif" font-size="10.00"> &gt;(ManifoldType &amp;)&gt;</text>
<polyline fill="none" stroke="black" points="282,-391.5 430,-391.5 "/>
<text text-anchor="middle" x="356" y="-379.5" font-family="Helvetica,sans-Serif" font-size="10.00"> </text>
<polyline fill="none" stroke="black" points="282,-372.5 430,-372.5 "/>
<text text-anchor="middle" x="356" y="-360.5" font-family="Helvetica,sans-Serif" font-size="10.00"> </text>
</a>
</g>
</g>
<!-- Node6&#45;&gt;Node5 -->
<g id="edge5" class="edge">
<title>Node6&#45;&gt;Node5</title>
<path fill="none" stroke="#404040" d="M353.45,-353.12C350.68,-336.04 345.1,-316.59 334,-302 331.26,-298.4 328.22,-294.99 324.96,-291.77"/>
<polygon fill="none" stroke="#404040" points="324.82,-291.65 317.68,-290.66 315.85,-283.69 322.99,-284.68 324.82,-291.65"/>
<text text-anchor="middle" x="379" y="-316" font-family="Helvetica,sans-Serif" font-size="10.00"> +elements</text>
</g>
<!-- Node7 -->
<g id="node7" class="node">
<title>Node7</title>
<g id="a_node7"><a xlink:href="classfunction__ref.html" target="_top" xlink:title=" ">
<polygon fill="white" stroke="black" points="301,-502.5 301,-559.5 411,-559.5 411,-502.5 301,-502.5"/>
<text text-anchor="middle" x="356" y="-547.5" font-family="Helvetica,sans-Serif" font-size="10.00">function_ref&lt; Fn &gt;</text>
<polyline fill="none" stroke="black" points="301,-540.5 411,-540.5 "/>
<text text-anchor="middle" x="356" y="-528.5" font-family="Helvetica,sans-Serif" font-size="10.00"> </text>
<polyline fill="none" stroke="black" points="301,-521.5 411,-521.5 "/>
<text text-anchor="middle" x="356" y="-509.5" font-family="Helvetica,sans-Serif" font-size="10.00"> </text>
</a>
</g>
</g>
<!-- Node7&#45;&gt;Node6 -->
<g id="edge6" class="edge">
<title>Node7&#45;&gt;Node6</title>
<path fill="none" stroke="orange" d="M356,-492.3C356,-473.69 356,-451.28 356,-432.56"/>
<polygon fill="orange" stroke="orange" points="352.5,-492.48 356,-502.48 359.5,-492.48 352.5,-492.48"/>
<text text-anchor="start" x="356" y="-476" font-family="Helvetica,sans-Serif" font-size="10.00"> &lt; tl::expected&lt; Manifold</text>
<text text-anchor="start" x="356" y="-465" font-family="Helvetica,sans-Serif" font-size="10.00">Type, std::string &gt;(Manifold</text>
<text text-anchor="middle" x="424" y="-454" font-family="Helvetica,sans-Serif" font-size="10.00">Type &amp;)&gt;</text>
</g>
<!-- Node8&#45;&gt;Node5 -->
<g id="edge7" class="edge">
<title>Node8&#45;&gt;Node5</title>
<path fill="none" stroke="orange" d="M160.75,-354.37C159.62,-337.65 160.66,-318.14 168,-302 171.02,-295.36 175.23,-289.18 180.06,-283.52"/>
<polygon fill="orange" stroke="orange" points="157.27,-354.74 161.7,-364.37 164.24,-354.08 157.27,-354.74"/>
<text text-anchor="start" x="168" y="-327" font-family="Helvetica,sans-Serif" font-size="10.00"> &lt; function_ref&lt; tl</text>
<text text-anchor="start" x="168" y="-316" font-family="Helvetica,sans-Serif" font-size="10.00">::expected&lt; ManifoldType,</text>
<text text-anchor="middle" x="251" y="-305" font-family="Helvetica,sans-Serif" font-size="10.00"> std::string &gt;(ManifoldType &amp;)&gt; &gt;</text>
</g>
</g>
</svg>
