<?xml version="1.0" encoding="UTF-8" standalone="no"?>
<!DOCTYPE svg PUBLIC "-//W3C//DTD SVG 1.1//EN"
 "http://www.w3.org/Graphics/SVG/1.1/DTD/svg11.dtd">
<!-- Generated by graphviz version 2.43.0 (0)
 -->
<!-- Title: move_tracker::MoveTracker&lt; ManifoldType &gt; Pages: 1 -->
<svg width="211pt" height="524pt"
 viewBox="0.00 0.00 211.00 524.00" xmlns="http://www.w3.org/2000/svg" xmlns:xlink="http://www.w3.org/1999/xlink">
<g id="graph0" class="graph" transform="scale(1 1) rotate(0) translate(4 520)">
<title>move_tracker::MoveTracker&lt; ManifoldType &gt;</title>
<!-- Node1 -->
<g id="node1" class="node">
<title>Node1</title>
<g id="a_node1"><a xlink:title="The data and methods to track ergodic moves.">
<polygon fill="#999999" stroke="#666666" points="0.5,-0.5 0.5,-178.5 151.5,-178.5 151.5,-0.5 0.5,-0.5"/>
<text text-anchor="start" x="8.5" y="-166.5" font-family="Helvetica,sans-Serif" font-size="10.00">move_tracker::MoveTracker</text>
<text text-anchor="middle" x="76" y="-155.5" font-family="Helvetica,sans-Serif" font-size="10.00">&lt; ManifoldType &gt;</text>
<polyline fill="none" stroke="#666666" points="0.5,-148.5 151.5,-148.5 "/>
<text text-anchor="middle" x="76" y="-136.5" font-family="Helvetica,sans-Serif" font-size="10.00"> </text>
<polyline fill="none" stroke="#666666" points="0.5,-129.5 151.5,-129.5 "/>
<text text-anchor="start" x="8.5" y="-117.5" font-family="Helvetica,sans-Serif" font-size="10.00">+ four_four_moves()</text>
<text text-anchor="start" x="8.5" y="-106.5" font-family="Helvetica,sans-Serif" font-size="10.00">+ four_four_moves()</text>
<text text-anchor="start" x="8.5" y="-95.5" font-family="Helvetica,sans-Serif" font-size="10.00">+ moves_view()</text>
<text text-anchor="start" x="8.5" y="-84.5" font-family="Helvetica,sans-Serif" font-size="10.00">+ operator+=()</text>
<text text-anchor="start" x="8.5" y="-73.5" font-family="Helvetica,sans-Serif" font-size="10.00">+ operator[]()</text>
<text text-anchor="start" x="8.5" y="-62.5" font-family="Helvetica,sans-Serif" font-size="10.00">+ operator[]()</text>
<text text-anchor="start" x="8.5" y="-51.5" font-family="Helvetica,sans-Serif" font-size="10.00">+ operator[]()</text>
<text text-anchor="start" x="8.5" y="-40.5" font-family="Helvetica,sans-Serif" font-size="10.00">+ reset()</text>
<text text-anchor="start" x="8.5" y="-29.5" font-family="Helvetica,sans-Serif" font-size="10.00">+ six_two_moves()</text>
<text text-anchor="start" x="8.5" y="-18.5" font-family="Helvetica,sans-Serif" font-size="10.00">+ six_two_moves()</text>
<text text-anchor="start" x="8.5" y="-7.5" font-family="Helvetica,sans-Serif" font-size="10.00">and 8 more...</text>
</a>
</g>
</g>
<!-- Node2 -->
<g id="node2" class="node">
<title>Node2</title>
<g id="a_node2"><a xlink:title=" ">
<polygon fill="white" stroke="#666666" points="0,-226.5 0,-294.5 152,-294.5 152,-226.5 0,-226.5"/>
<text text-anchor="start" x="8" y="-282.5" font-family="Helvetica,sans-Serif" font-size="10.00">std::array&lt; Int_precision,</text>
<text text-anchor="middle" x="76" y="-271.5" font-family="Helvetica,sans-Serif" font-size="10.00"> NUMBER_OF_3D_MOVES &gt;</text>
<polyline fill="none" stroke="#666666" points="0,-264.5 152,-264.5 "/>
<text text-anchor="start" x="8" y="-252.5" font-family="Helvetica,sans-Serif" font-size="10.00">+ elements</text>
<polyline fill="none" stroke="#666666" points="0,-245.5 152,-245.5 "/>
<text text-anchor="middle" x="76" y="-233.5" font-family="Helvetica,sans-Serif" font-size="10.00"> </text>
</a>
</g>
</g>
<!-- Node2&#45;&gt;Node1 -->
<g id="edge1" class="edge">
<title>Node2&#45;&gt;Node1</title>
<path fill="none" stroke="#404040" d="M76,-226.11C76,-215.69 76,-203.6 76,-191.02"/>
<polygon fill="none" stroke="#404040" points="76,-190.85 72,-184.85 76,-178.85 80,-184.85 76,-190.85"/>
<text text-anchor="middle" x="96" y="-200" font-family="Helvetica,sans-Serif" font-size="10.00"> &#45;moves</text>
</g>
<!-- Node3 -->
<g id="node3" class="node">
<title>Node3</title>
<g id="a_node3"><a xlink:title=" ">
<polygon fill="white" stroke="#666666" points="30,-353.5 30,-410.5 122,-410.5 122,-353.5 30,-353.5"/>
<text text-anchor="middle" x="76" y="-398.5" font-family="Helvetica,sans-Serif" font-size="10.00">std::array&lt; T &gt;</text>
<polyline fill="none" stroke="#666666" points="30,-391.5 122,-391.5 "/>
<text text-anchor="middle" x="76" y="-379.5" font-family="Helvetica,sans-Serif" font-size="10.00"> </text>
<polyline fill="none" stroke="#666666" points="30,-372.5 122,-372.5 "/>
<text text-anchor="middle" x="76" y="-360.5" font-family="Helvetica,sans-Serif" font-size="10.00"> </text>
</a>
</g>
</g>
<!-- Node3&#45;&gt;Node2 -->
<g id="edge2" class="edge">
<title>Node3&#45;&gt;Node2</title>
<path fill="none" stroke="orange" d="M76,-342.95C76,-327.4 76,-309.58 76,-294.59"/>
<polygon fill="orange" stroke="orange" points="72.5,-343.28 76,-353.28 79.5,-343.28 72.5,-343.28"/>
<text text-anchor="start" x="76" y="-327" font-family="Helvetica,sans-Serif" font-size="10.00"> &lt; Int_precision, NUMBER</text>
<text text-anchor="middle" x="139.5" y="-316" font-family="Helvetica,sans-Serif" font-size="10.00">_OF_3D_MOVES &gt;</text>
</g>
<!-- Node4 -->
<g id="node4" class="node">
<title>Node4</title>
<g id="a_node4"><a xlink:title=" ">
<polygon fill="white" stroke="#bfbfbf" points="61.5,-458.5 61.5,-515.5 90.5,-515.5 90.5,-458.5 61.5,-458.5"/>
<text text-anchor="middle" x="76" y="-503.5" font-family="Helvetica,sans-Serif" font-size="10.00">T</text>
<polyline fill="none" stroke="#bfbfbf" points="61.5,-496.5 90.5,-496.5 "/>
<text text-anchor="middle" x="76" y="-484.5" font-family="Helvetica,sans-Serif" font-size="10.00"> </text>
<polyline fill="none" stroke="#bfbfbf" points="61.5,-477.5 90.5,-477.5 "/>
<text text-anchor="middle" x="76" y="-465.5" font-family="Helvetica,sans-Serif" font-size="10.00"> </text>
</a>
</g>
</g>
<!-- Node4&#45;&gt;Node3 -->
<g id="edge3" class="edge">
<title>Node4&#45;&gt;Node3</title>
<path fill="none" stroke="#404040" d="M76,-458.4C76,-447.55 76,-434.87 76,-423.05"/>
<polygon fill="none" stroke="#404040" points="76,-422.68 72,-416.68 76,-410.68 80,-416.68 76,-422.68"/>
<text text-anchor="middle" x="105" y="-432" font-family="Helvetica,sans-Serif" font-size="10.00"> +elements</text>
</g>
</g>
</svg>
