<?xml version="1.0" encoding="UTF-8" standalone="no"?>
<!DOCTYPE svg PUBLIC "-//W3C//DTD SVG 1.1//EN"
 "http://www.w3.org/Graphics/SVG/1.1/DTD/svg11.dtd">
<!-- Generated by graphviz version 2.40.1 (20161225.0304)
 -->
<!-- Title: Simulation&lt; element &gt; Pages: 1 -->
<svg width="141pt" height="392pt"
 viewBox="0.00 0.00 141.00 392.00" xmlns="http://www.w3.org/2000/svg" xmlns:xlink="http://www.w3.org/1999/xlink">
<g id="graph0" class="graph" transform="scale(1 1) rotate(0) translate(4 388)">
<title>Simulation&lt; element &gt;</title>
<polygon fill="#ffffff" stroke="transparent" points="-4,4 -4,-388 137,-388 137,4 -4,4"/>
<!-- Node1 -->
<g id="node1" class="node">
<title>Node1</title>
<polygon fill="#bfbfbf" stroke="#000000" points="0,-.5 0,-68.5 132,-68.5 132,-.5 0,-.5"/>
<text text-anchor="middle" x="66" y="-56.5" font-family="Helvetica,sans-Serif" font-size="10.00" fill="#000000">Simulation&lt; element &gt;</text>
<polyline fill="none" stroke="#000000" points="0,-49.5 132,-49.5 "/>
<text text-anchor="middle" x="66" y="-37.5" font-family="Helvetica,sans-Serif" font-size="10.00" fill="#000000"> </text>
<polyline fill="none" stroke="#000000" points="0,-30.5 132,-30.5 "/>
<text text-anchor="start" x="8" y="-18.5" font-family="Helvetica,sans-Serif" font-size="10.00" fill="#000000">+ queue()</text>
<text text-anchor="start" x="8" y="-7.5" font-family="Helvetica,sans-Serif" font-size="10.00" fill="#000000">+ start()</text>
</g>
<!-- Node2 -->
<g id="node2" class="node">
<title>Node2</title>
<polygon fill="#ffffff" stroke="#bfbfbf" points=".5,-116.5 .5,-173.5 131.5,-173.5 131.5,-116.5 .5,-116.5"/>
<text text-anchor="middle" x="66" y="-161.5" font-family="Helvetica,sans-Serif" font-size="10.00" fill="#000000">std::vector&lt; element &gt;</text>
<polyline fill="none" stroke="#bfbfbf" points=".5,-154.5 131.5,-154.5 "/>
<text text-anchor="start" x="8.5" y="-142.5" font-family="Helvetica,sans-Serif" font-size="10.00" fill="#000000">+ elements</text>
<polyline fill="none" stroke="#bfbfbf" points=".5,-135.5 131.5,-135.5 "/>
<text text-anchor="middle" x="66" y="-123.5" font-family="Helvetica,sans-Serif" font-size="10.00" fill="#000000"> </text>
</g>
<!-- Node2&#45;&gt;Node1 -->
<g id="edge1" class="edge">
<title>Node2&#45;&gt;Node1</title>
<path fill="none" stroke="#404040" d="M66,-116.2559C66,-105.4349 66,-92.8362 66,-80.8169"/>
<polygon fill="none" stroke="#404040" points="66.0001,-80.6001 62,-74.6001 66,-68.6001 70,-74.6 66.0001,-80.6001"/>
<text text-anchor="middle" x="87.5" y="-90" font-family="Helvetica,sans-Serif" font-size="10.00" fill="#000000"> &#45;queue_</text>
</g>
<!-- Node3 -->
<g id="node3" class="node">
<title>Node3</title>
<g id="a_node3"><a xlink:title="STL class. ">
<polygon fill="#ffffff" stroke="#bfbfbf" points="17.5,-221.5 17.5,-278.5 114.5,-278.5 114.5,-221.5 17.5,-221.5"/>
<text text-anchor="middle" x="66" y="-266.5" font-family="Helvetica,sans-Serif" font-size="10.00" fill="#000000">std::vector&lt; T &gt;</text>
<polyline fill="none" stroke="#bfbfbf" points="17.5,-259.5 114.5,-259.5 "/>
<text text-anchor="middle" x="66" y="-247.5" font-family="Helvetica,sans-Serif" font-size="10.00" fill="#000000"> </text>
<polyline fill="none" stroke="#bfbfbf" points="17.5,-240.5 114.5,-240.5 "/>
<text text-anchor="middle" x="66" y="-228.5" font-family="Helvetica,sans-Serif" font-size="10.00" fill="#000000"> </text>
</a>
</g>
</g>
<!-- Node3&#45;&gt;Node2 -->
<g id="edge2" class="edge">
<title>Node3&#45;&gt;Node2</title>
<path fill="none" stroke="#ffa500" d="M66,-211.192C66,-198.7605 66,-185.2278 66,-173.657"/>
<polygon fill="#ffa500" stroke="#ffa500" points="62.5001,-211.3083 66,-221.3083 69.5001,-211.3083 62.5001,-211.3083"/>
<text text-anchor="middle" x="99.5" y="-195" font-family="Helvetica,sans-Serif" font-size="10.00" fill="#000000"> &lt; element &gt;</text>
</g>
<!-- Node4 -->
<g id="node4" class="node">
<title>Node4</title>
<polygon fill="#ffffff" stroke="#bfbfbf" points="51.5,-326.5 51.5,-383.5 80.5,-383.5 80.5,-326.5 51.5,-326.5"/>
<text text-anchor="middle" x="66" y="-371.5" font-family="Helvetica,sans-Serif" font-size="10.00" fill="#000000">T</text>
<polyline fill="none" stroke="#bfbfbf" points="51.5,-364.5 80.5,-364.5 "/>
<text text-anchor="middle" x="66" y="-352.5" font-family="Helvetica,sans-Serif" font-size="10.00" fill="#000000"> </text>
<polyline fill="none" stroke="#bfbfbf" points="51.5,-345.5 80.5,-345.5 "/>
<text text-anchor="middle" x="66" y="-333.5" font-family="Helvetica,sans-Serif" font-size="10.00" fill="#000000"> </text>
</g>
<!-- Node4&#45;&gt;Node3 -->
<g id="edge3" class="edge">
<title>Node4&#45;&gt;Node3</title>
<path fill="none" stroke="#404040" d="M66,-326.3083C66,-315.4281 66,-302.817 66,-291.0192"/>
<polygon fill="none" stroke="#404040" points="66.0001,-290.657 62,-284.6571 66,-278.657 70,-284.657 66.0001,-290.657"/>
<text text-anchor="middle" x="95" y="-300" font-family="Helvetica,sans-Serif" font-size="10.00" fill="#000000"> +elements</text>
</g>
</g>
</svg>
