<?xml version="1.0" encoding="UTF-8" standalone="no"?>
<!DOCTYPE svg PUBLIC "-//W3C//DTD SVG 1.1//EN"
 "http://www.w3.org/Graphics/SVG/1.1/DTD/svg11.dtd">
<!-- Generated by graphviz version 2.43.0 (0)
 -->
<!-- Title: MoveStrategy&lt; METROPOLIS, ManifoldType &gt; Pages: 1 -->
<svg width="237pt" height="474pt"
 viewBox="0.00 0.00 237.00 474.00" xmlns="http://www.w3.org/2000/svg" xmlns:xlink="http://www.w3.org/1999/xlink">
<g id="graph0" class="graph" transform="scale(1 1) rotate(0) translate(4 470)">
<title>MoveStrategy&lt; METROPOLIS, ManifoldType &gt;</title>
<polygon fill="white" stroke="transparent" points="-4,4 -4,-470 233,-470 233,4 -4,4"/>
<!-- Node1 -->
<g id="node1" class="node">
<title>Node1</title>
<g id="a_node1"><a xlink:title="Metropolis&#45;Hastings algorithm strategy.">
<polygon fill="#bfbfbf" stroke="black" points="0,-0.5 0,-244.5 162,-244.5 162,-0.5 0,-0.5"/>
<text text-anchor="start" x="8" y="-232.5" font-family="Helvetica,sans-Serif" font-size="10.00">MoveStrategy&lt; METROPOLIS,</text>
<text text-anchor="middle" x="81" y="-221.5" font-family="Helvetica,sans-Serif" font-size="10.00"> ManifoldType &gt;</text>
<polyline fill="none" stroke="black" points="0,-214.5 162,-214.5 "/>
<text text-anchor="start" x="8" y="-202.5" font-family="Helvetica,sans-Serif" font-size="10.00">&#45; m_Alpha</text>
<text text-anchor="start" x="8" y="-191.5" font-family="Helvetica,sans-Serif" font-size="10.00">&#45; m_attempted_moves</text>
<text text-anchor="start" x="8" y="-180.5" font-family="Helvetica,sans-Serif" font-size="10.00">&#45; m_checkpoint</text>
<text text-anchor="start" x="8" y="-169.5" font-family="Helvetica,sans-Serif" font-size="10.00">&#45; m_failed_moves</text>
<text text-anchor="start" x="8" y="-158.5" font-family="Helvetica,sans-Serif" font-size="10.00">&#45; m_K</text>
<text text-anchor="start" x="8" y="-147.5" font-family="Helvetica,sans-Serif" font-size="10.00">&#45; m_Lambda</text>
<text text-anchor="start" x="8" y="-136.5" font-family="Helvetica,sans-Serif" font-size="10.00">&#45; m_passes</text>
<polyline fill="none" stroke="black" points="0,-129.5 162,-129.5 "/>
<text text-anchor="start" x="8" y="-117.5" font-family="Helvetica,sans-Serif" font-size="10.00">+ MoveStrategy()</text>
<text text-anchor="start" x="8" y="-106.5" font-family="Helvetica,sans-Serif" font-size="10.00">+ MoveStrategy()</text>
<text text-anchor="start" x="8" y="-95.5" font-family="Helvetica,sans-Serif" font-size="10.00">+ MoveStrategy()</text>
<text text-anchor="start" x="8" y="-84.5" font-family="Helvetica,sans-Serif" font-size="10.00">+ MoveStrategy()</text>
<text text-anchor="start" x="8" y="-73.5" font-family="Helvetica,sans-Serif" font-size="10.00">+ ~MoveStrategy()</text>
<text text-anchor="start" x="8" y="-62.5" font-family="Helvetica,sans-Serif" font-size="10.00">+ Alpha()</text>
<text text-anchor="start" x="8" y="-51.5" font-family="Helvetica,sans-Serif" font-size="10.00">+ attempt_move()</text>
<text text-anchor="start" x="8" y="-40.5" font-family="Helvetica,sans-Serif" font-size="10.00">+ CalculateA1()</text>
<text text-anchor="start" x="8" y="-29.5" font-family="Helvetica,sans-Serif" font-size="10.00">+ CalculateA2()</text>
<text text-anchor="start" x="8" y="-18.5" font-family="Helvetica,sans-Serif" font-size="10.00">+ Checkpoint()</text>
<text text-anchor="start" x="8" y="-7.5" font-family="Helvetica,sans-Serif" font-size="10.00">and 7 more...</text>
</a>
</g>
</g>
<!-- Node2 -->
<g id="node2" class="node">
<title>Node2</title>
<g id="a_node2"><a xlink:href="struct_geometry.html" target="_top" xlink:title=" ">
<polygon fill="white" stroke="black" points="10,-292.5 10,-360.5 152,-360.5 152,-292.5 10,-292.5"/>
<text text-anchor="start" x="18" y="-348.5" font-family="Helvetica,sans-Serif" font-size="10.00">Geometry&lt; ManifoldType</text>
<text text-anchor="middle" x="81" y="-337.5" font-family="Helvetica,sans-Serif" font-size="10.00">::dimension &gt;</text>
<polyline fill="none" stroke="black" points="10,-330.5 152,-330.5 "/>
<text text-anchor="middle" x="81" y="-318.5" font-family="Helvetica,sans-Serif" font-size="10.00"> </text>
<polyline fill="none" stroke="black" points="10,-311.5 152,-311.5 "/>
<text text-anchor="middle" x="81" y="-299.5" font-family="Helvetica,sans-Serif" font-size="10.00"> </text>
</a>
</g>
</g>
<!-- Node2&#45;&gt;Node1 -->
<g id="edge1" class="edge">
<title>Node2&#45;&gt;Node1</title>
<path fill="none" stroke="#404040" d="M81,-292.14C81,-281.76 81,-269.62 81,-256.69"/>
<polygon fill="none" stroke="#404040" points="81,-256.62 77,-250.62 81,-244.62 85,-250.62 81,-256.62"/>
<text text-anchor="middle" x="116" y="-266" font-family="Helvetica,sans-Serif" font-size="10.00"> &#45;m_geometry</text>
</g>
<!-- Node3 -->
<g id="node3" class="node">
<title>Node3</title>
<g id="a_node3"><a xlink:href="struct_geometry.html" target="_top" xlink:title=" ">
<polygon fill="white" stroke="black" points="11.5,-408.5 11.5,-465.5 150.5,-465.5 150.5,-408.5 11.5,-408.5"/>
<text text-anchor="middle" x="81" y="-453.5" font-family="Helvetica,sans-Serif" font-size="10.00">Geometry&lt; dimension &gt;</text>
<polyline fill="none" stroke="black" points="11.5,-446.5 150.5,-446.5 "/>
<text text-anchor="middle" x="81" y="-434.5" font-family="Helvetica,sans-Serif" font-size="10.00"> </text>
<polyline fill="none" stroke="black" points="11.5,-427.5 150.5,-427.5 "/>
<text text-anchor="middle" x="81" y="-415.5" font-family="Helvetica,sans-Serif" font-size="10.00"> </text>
</a>
</g>
</g>
<!-- Node3&#45;&gt;Node2 -->
<g id="edge2" class="edge">
<title>Node3&#45;&gt;Node2</title>
<path fill="none" stroke="orange" d="M81,-397.99C81,-385.77 81,-372.35 81,-360.52"/>
<polygon fill="orange" stroke="orange" points="77.5,-398.34 81,-408.34 84.5,-398.34 77.5,-398.34"/>
<text text-anchor="middle" x="155" y="-382" font-family="Helvetica,sans-Serif" font-size="10.00"> &lt; ManifoldType::dimension &gt;</text>
</g>
</g>
</svg>
