<?xml version="1.0" encoding="UTF-8" standalone="no"?>
<!DOCTYPE svg PUBLIC "-//W3C//DTD SVG 1.1//EN"
 "http://www.w3.org/Graphics/SVG/1.1/DTD/svg11.dtd">
<!-- Generated by graphviz version 15.1.0 (20260618.0150)
 -->
<!-- Title: cdt::foliated_triangulations::FoliatedTriangulation&lt; 3 &gt; Pages: 1 -->
<!--zoomable 859 -->

<svg id="main" version="1.1" xmlns="http://www.w3.org/2000/svg" xmlns:xlink="http://www.w3.org/1999/xlink" xml:space="preserve" onload="init(evt)">

<style type="text/css"><![CDATA[
.node, .edge {opacity: 0.7;}
.node.selected, .edge.selected {opacity: 1;}
.edge:hover path { stroke: red; }
.edge:hover polygon { stroke: red; fill: red; }
]]></style>

<defs>
  <circle id="rim" cx="0" cy="0" r="7"/>
  <circle id="rim2" cx="0" cy="0" r="3.5"/>
  <g id="zoomPlus">
    <use xlink:href="#rim" fill="#404040"><set attributeName="fill" to="#808080" begin="zoomplus.mouseover" end="zoomplus.mouseout"/></use>
    <path d="M-4,0h8M0,-4v8" fill="none" stroke="white" stroke-width="1.5" pointer-events="none"/>
  </g>
  <g id="zoomMin">
    <use xlink:href="#rim" fill="#404040"><set attributeName="fill" to="#808080" begin="zoomminus.mouseover" end="zoomminus.mouseout"/></use>
    <path d="M-4,0h8" fill="none" stroke="white" stroke-width="1.5" pointer-events="none"/>
  </g>
  <g id="arrowUp" transform="translate(30 24)">
    <use xlink:href="#rim"/>
    <path pointer-events="none" fill="none" stroke="white" stroke-width="1.5" d="M0,-3.0v7 M-2.5,-0.5L0,-3.0L2.5,-0.5"/>
  </g>
  <g id="arrowRight" transform="rotate(90) translate(36 -43)">
    <use xlink:href="#rim"/>
    <path pointer-events="none" fill="none" stroke="white" stroke-width="1.5" d="M0,-3.0v7 M-2.5,-0.5L0,-3.0L2.5,-0.5"/>
  </g>
  <g id="arrowDown" transform="rotate(180) translate(-30 -48)">
    <use xlink:href="#rim"/>
    <path pointer-events="none" fill="none" stroke="white" stroke-width="1.5" d="M0,-3.0v7 M-2.5,-0.5L0,-3.0L2.5,-0.5"/>
  </g>
  <g id="arrowLeft" transform="rotate(270) translate(-36 17)">
    <use xlink:href="#rim"/>
    <path pointer-events="none" fill="none" stroke="white" stroke-width="1.5" d="M0,-3.0v7 M-2.5,-0.5L0,-3.0L2.5,-0.5"/>
  </g>
  <g id="resetDef">
    <use xlink:href="#rim2" fill="#404040"><set attributeName="fill" to="#808080" begin="reset.mouseover" end="reset.mouseout"/></use>
  </g>
</defs>
<script type="application/ecmascript">
var viewWidth = 979;
var viewHeight = 859;
var sectionId = 'dynsection-1';
</script>
<script type="application/ecmascript" xlink:href="svg.min.js"/>
<svg id="graph" class="graph">
<g id="viewport">
<title>cdt::foliated_triangulations::FoliatedTriangulation&lt; 3 &gt;</title>
<!-- Node1 -->
<g id="Node000001" class="node">
<title>Node1</title>
<g id="a_Node000001"><a xlink:title="3D Foliated triangulation">
<polygon fill="#999999" stroke="none" points="544,-435.5 399.5,-435.5 399.5,0 544,0 544,-435.5"/>
<text xml:space="preserve" text-anchor="start" x="403.5" y="-421.75" font-family="Helvetica,sans-Serif" font-size="10.00">cdt::foliated_triangulations</text>
<text xml:space="preserve" text-anchor="start" x="403.5" y="-409" font-family="Helvetica,sans-Serif" font-size="10.00">::FoliatedTriangulation&lt; 3 &gt;</text>
<text xml:space="preserve" text-anchor="start" x="406.25" y="-392.25" font-family="Helvetica,sans-Serif" font-size="10.00">&#45;</text>
<text xml:space="preserve" text-anchor="start" x="416.75" y="-392.25" font-family="Helvetica,sans-Serif" font-size="10.00">m_foliation_spacing</text>
<text xml:space="preserve" text-anchor="start" x="406.25" y="-375.5" font-family="Helvetica,sans-Serif" font-size="10.00">&#45;</text>
<text xml:space="preserve" text-anchor="start" x="416.75" y="-375.5" font-family="Helvetica,sans-Serif" font-size="10.00">m_initial_radius</text>
<text xml:space="preserve" text-anchor="start" x="406.25" y="-358.75" font-family="Helvetica,sans-Serif" font-size="10.00">&#45;</text>
<text xml:space="preserve" text-anchor="start" x="416.75" y="-358.75" font-family="Helvetica,sans-Serif" font-size="10.00">m_max_timevalue</text>
<text xml:space="preserve" text-anchor="start" x="406.25" y="-342" font-family="Helvetica,sans-Serif" font-size="10.00">&#45;</text>
<text xml:space="preserve" text-anchor="start" x="416.75" y="-342" font-family="Helvetica,sans-Serif" font-size="10.00">m_min_timevalue</text>
<text xml:space="preserve" text-anchor="start" x="404" y="-325.25" font-family="Helvetica,sans-Serif" font-size="10.00">+</text>
<text xml:space="preserve" text-anchor="start" x="416.75" y="-325.25" font-family="Helvetica,sans-Serif" font-size="10.00">FoliatedTriangulation()</text>
<text xml:space="preserve" text-anchor="start" x="404" y="-308.5" font-family="Helvetica,sans-Serif" font-size="10.00">+</text>
<text xml:space="preserve" text-anchor="start" x="416.75" y="-308.5" font-family="Helvetica,sans-Serif" font-size="10.00">FoliatedTriangulation()</text>
<text xml:space="preserve" text-anchor="start" x="404" y="-291.75" font-family="Helvetica,sans-Serif" font-size="10.00">+</text>
<text xml:space="preserve" text-anchor="start" x="416.75" y="-291.75" font-family="Helvetica,sans-Serif" font-size="10.00">FoliatedTriangulation()</text>
<text xml:space="preserve" text-anchor="start" x="404" y="-275" font-family="Helvetica,sans-Serif" font-size="10.00">+</text>
<text xml:space="preserve" text-anchor="start" x="416.75" y="-275" font-family="Helvetica,sans-Serif" font-size="10.00">FoliatedTriangulation()</text>
<text xml:space="preserve" text-anchor="start" x="404" y="-258.25" font-family="Helvetica,sans-Serif" font-size="10.00">+</text>
<text xml:space="preserve" text-anchor="start" x="416.75" y="-258.25" font-family="Helvetica,sans-Serif" font-size="10.00">FoliatedTriangulation()</text>
<text xml:space="preserve" text-anchor="start" x="404" y="-241.5" font-family="Helvetica,sans-Serif" font-size="10.00">+</text>
<text xml:space="preserve" text-anchor="start" x="416.75" y="-241.5" font-family="Helvetica,sans-Serif" font-size="10.00">FoliatedTriangulation()</text>
<text xml:space="preserve" text-anchor="start" x="404" y="-224.75" font-family="Helvetica,sans-Serif" font-size="10.00">+</text>
<text xml:space="preserve" text-anchor="start" x="416.75" y="-224.75" font-family="Helvetica,sans-Serif" font-size="10.00">FoliatedTriangulation()</text>
<text xml:space="preserve" text-anchor="start" x="404" y="-208" font-family="Helvetica,sans-Serif" font-size="10.00">+</text>
<text xml:space="preserve" text-anchor="start" x="416.75" y="-208" font-family="Helvetica,sans-Serif" font-size="10.00">~FoliatedTriangulation()</text>
<text xml:space="preserve" text-anchor="start" x="404" y="-191.25" font-family="Helvetica,sans-Serif" font-size="10.00">+</text>
<text xml:space="preserve" text-anchor="start" x="416.75" y="-191.25" font-family="Helvetica,sans-Serif" font-size="10.00">check_all_cells()</text>
<text xml:space="preserve" text-anchor="start" x="404" y="-174.5" font-family="Helvetica,sans-Serif" font-size="10.00">+</text>
<text xml:space="preserve" text-anchor="start" x="416.75" y="-174.5" font-family="Helvetica,sans-Serif" font-size="10.00">check_all_vertices()</text>
<text xml:space="preserve" text-anchor="start" x="416.75" y="-157.75" font-family="Helvetica,sans-Serif" font-size="10.00">and 35 more...</text>
<text xml:space="preserve" text-anchor="start" x="406.25" y="-141" font-family="Helvetica,sans-Serif" font-size="10.00">&#45;</text>
<text xml:space="preserve" text-anchor="start" x="416.75" y="-141" font-family="Helvetica,sans-Serif" font-size="10.00">FoliatedTriangulation()</text>
<text xml:space="preserve" text-anchor="start" x="406.25" y="-124.25" font-family="Helvetica,sans-Serif" font-size="10.00">&#45;</text>
<text xml:space="preserve" text-anchor="start" x="416.75" y="-124.25" font-family="Helvetica,sans-Serif" font-size="10.00">classify_cells()</text>
<text xml:space="preserve" text-anchor="start" x="406.25" y="-107.5" font-family="Helvetica,sans-Serif" font-size="10.00">&#45;</text>
<text xml:space="preserve" text-anchor="start" x="416.75" y="-107.5" font-family="Helvetica,sans-Serif" font-size="10.00">classify_vertices()</text>
<text xml:space="preserve" text-anchor="start" x="406.25" y="-90.75" font-family="Helvetica,sans-Serif" font-size="10.00">&#45;</text>
<text xml:space="preserve" text-anchor="start" x="416.75" y="-90.75" font-family="Helvetica,sans-Serif" font-size="10.00">collect_edges()</text>
<text xml:space="preserve" text-anchor="start" x="406.25" y="-74" font-family="Helvetica,sans-Serif" font-size="10.00">&#45;</text>
<text xml:space="preserve" text-anchor="start" x="416.75" y="-74" font-family="Helvetica,sans-Serif" font-size="10.00">collect_faces()</text>
<text xml:space="preserve" text-anchor="start" x="406.25" y="-57.25" font-family="Helvetica,sans-Serif" font-size="10.00">&#45;</text>
<text xml:space="preserve" text-anchor="start" x="416.75" y="-57.25" font-family="Helvetica,sans-Serif" font-size="10.00">triangulation()</text>
<text xml:space="preserve" text-anchor="start" x="406.25" y="-40.5" font-family="Helvetica,sans-Serif" font-size="10.00">&#45;</text>
<text xml:space="preserve" text-anchor="start" x="416.75" y="-40.5" font-family="Helvetica,sans-Serif" font-size="10.00">triangulation()</text>
<text xml:space="preserve" text-anchor="start" x="406.25" y="-23.75" font-family="Helvetica,sans-Serif" font-size="10.00">&#45;</text>
<text xml:space="preserve" text-anchor="start" x="416.75" y="-23.75" font-family="Helvetica,sans-Serif" font-size="10.00">cache_spacelike_facets()</text>
<text xml:space="preserve" text-anchor="start" x="406.25" y="-7" font-family="Helvetica,sans-Serif" font-size="10.00">&#45;</text>
<text xml:space="preserve" text-anchor="start" x="416.75" y="-7" font-family="Helvetica,sans-Serif" font-size="10.00">require_nonempty()</text>
<polygon fill="#666666" stroke="#666666" points="399.5,-404 399.5,-404 544,-404 544,-404 399.5,-404"/>
<polygon fill="#666666" stroke="#666666" points="399.5,-337 399.5,-337 414.75,-337 414.75,-337 399.5,-337"/>
<polygon fill="#666666" stroke="#666666" points="414.75,-337 414.75,-337 544,-337 544,-337 414.75,-337"/>
<polygon fill="none" stroke="#666666" points="399.5,0 399.5,-435.5 544,-435.5 544,0 399.5,0"/>
</a>
</g>
</g>
<!-- Node2 -->
<g id="Node000002" class="node">
<title>Node2</title>
<g id="a_Node000002"><a xlink:title=" ">
<polygon fill="white" stroke="none" points="110.38,-613.88 1.12,-613.88 1.12,-546.88 110.38,-546.88 110.38,-613.88"/>
<text xml:space="preserve" text-anchor="start" x="5.12" y="-600.12" font-family="Helvetica,sans-Serif" font-size="10.00">cdt::detail::Delaunay</text>
<text xml:space="preserve" text-anchor="start" x="26.5" y="-587.38" font-family="Helvetica,sans-Serif" font-size="10.00">_state&lt; 3 &gt;</text>
<text xml:space="preserve" text-anchor="start" x="54.25" y="-570.62" font-family="Helvetica,sans-Serif" font-size="10.00"> </text>
<text xml:space="preserve" text-anchor="start" x="54.25" y="-553.88" font-family="Helvetica,sans-Serif" font-size="10.00"> </text>
<polygon fill="#666666" stroke="#666666" points="1.12,-582.38 1.12,-582.38 110.38,-582.38 110.38,-582.38 1.12,-582.38"/>
<polygon fill="#666666" stroke="#666666" points="1.12,-565.62 1.12,-565.62 110.38,-565.62 110.38,-565.62 1.12,-565.62"/>
<polygon fill="none" stroke="#666666" points="1.12,-546.88 1.12,-613.88 110.38,-613.88 110.38,-546.88 1.12,-546.88"/>
</a>
</g>
</g>
<!-- Node2&#45;&gt;Node1 -->
<g id="edge1_Node000001_Node000002" class="edge">
<title>Node2&#45;&gt;Node1</title>
<g id="a_edge1_Node000001_Node000002"><a xlink:title=" ">
<path fill="none" stroke="#63b8ff" d="M66.99,-546.92C77.56,-519.74 95.45,-481.09 120,-453.5 196.52,-367.5 311.25,-298.79 388.69,-258.45"/>
<polygon fill="none" stroke="#63b8ff" points="388.36,-258.61 391.86,-252.31 399.03,-253.11 395.53,-259.42 388.36,-258.61"/>
</a>
</g>
<text xml:space="preserve" text-anchor="start" x="123" y="-484.62" font-family="Helvetica,sans-Serif" font-size="10.00" fill="grey">&#45;m_delaunay_state</text>
</g>
<!-- Node3 -->
<g id="Node000003" class="node">
<title>Node3</title>
<g id="a_Node000003"><a xlink:title=" ">
<polygon fill="white" stroke="none" points="111.5,-742 0,-742 0,-675 111.5,-675 111.5,-742"/>
<text xml:space="preserve" text-anchor="start" x="4" y="-728.25" font-family="Helvetica,sans-Serif" font-size="10.00">cdt::detail::Delaunay</text>
<text xml:space="preserve" text-anchor="start" x="4" y="-715.5" font-family="Helvetica,sans-Serif" font-size="10.00">_state&lt; dimension &gt;</text>
<text xml:space="preserve" text-anchor="start" x="54.25" y="-698.75" font-family="Helvetica,sans-Serif" font-size="10.00"> </text>
<text xml:space="preserve" text-anchor="start" x="54.25" y="-682" font-family="Helvetica,sans-Serif" font-size="10.00"> </text>
<polygon fill="#666666" stroke="#666666" points="0,-710.5 0,-710.5 111.5,-710.5 111.5,-710.5 0,-710.5"/>
<polygon fill="#666666" stroke="#666666" points="0,-693.75 0,-693.75 111.5,-693.75 111.5,-693.75 0,-693.75"/>
<polygon fill="none" stroke="#666666" points="0,-675 0,-742 111.5,-742 111.5,-675 0,-675"/>
</a>
</g>
</g>
<!-- Node3&#45;&gt;Node2 -->
<g id="edge2_Node000002_Node000003" class="edge">
<title>Node3&#45;&gt;Node2</title>
<g id="a_edge2_Node000002_Node000003"><a xlink:title=" ">
<path fill="none" stroke="orange" d="M55.75,-663.51C55.75,-647.14 55.75,-628.88 55.75,-613.75"/>
<polygon fill="orange" stroke="orange" points="52.25,-663.51 55.75,-673.51 59.25,-663.51 52.25,-663.51"/>
</a>
</g>
<text xml:space="preserve" text-anchor="start" x="58.75" y="-644.25" font-family="Helvetica,sans-Serif" font-size="10.00" fill="grey">&lt; 3 &gt;</text>
</g>
<!-- Node4 -->
<g id="Node000004" class="node">
<title>Node4</title>
<g id="a_Node000004"><a xlink:title=" ">
<polygon fill="white" stroke="none" points="231,-613.88 128.5,-613.88 128.5,-546.88 231,-546.88 231,-613.88"/>
<text xml:space="preserve" text-anchor="start" x="132.5" y="-600.12" font-family="Helvetica,sans-Serif" font-size="10.00">std::vector&lt; Vertex</text>
<text xml:space="preserve" text-anchor="start" x="155" y="-587.38" font-family="Helvetica,sans-Serif" font-size="10.00">_handle &gt;</text>
<text xml:space="preserve" text-anchor="start" x="141.62" y="-570.62" font-family="Helvetica,sans-Serif" font-size="10.00">+</text>
<text xml:space="preserve" text-anchor="start" x="163" y="-570.62" font-family="Helvetica,sans-Serif" font-size="10.00">elements</text>
<text xml:space="preserve" text-anchor="start" x="178.25" y="-553.88" font-family="Helvetica,sans-Serif" font-size="10.00"> </text>
<polygon fill="#666666" stroke="#666666" points="128.5,-582.38 128.5,-582.38 231,-582.38 231,-582.38 128.5,-582.38"/>
<polygon fill="#666666" stroke="#666666" points="128.5,-565.62 128.5,-565.62 161,-565.62 161,-565.62 128.5,-565.62"/>
<polygon fill="#666666" stroke="#666666" points="161,-565.62 161,-565.62 231,-565.62 231,-565.62 161,-565.62"/>
<polygon fill="none" stroke="#666666" points="128.5,-546.88 128.5,-613.88 231,-613.88 231,-546.88 128.5,-546.88"/>
</a>
</g>
</g>
<!-- Node4&#45;&gt;Node1 -->
<g id="edge3_Node000001_Node000004" class="edge">
<title>Node4&#45;&gt;Node1</title>
<g id="a_edge3_Node000001_Node000004"><a xlink:title=" ">
<path fill="none" stroke="#63b8ff" d="M204.23,-547.06C223.71,-521.49 251.8,-484.97 277,-453.5 314.08,-407.19 356,-356.46 391.42,-314.05"/>
<polygon fill="none" stroke="#63b8ff" points="391.3,-314.19 392.08,-307.02 399,-304.98 398.22,-312.15 391.3,-314.19"/>
</a>
</g>
<text xml:space="preserve" text-anchor="start" x="280" y="-484.62" font-family="Helvetica,sans-Serif" font-size="10.00" fill="grey">&#45;m_vertices</text>
</g>
<!-- Node5 -->
<g id="Node000005" class="node">
<title>Node5</title>
<g id="a_Node000005"><a xlink:title=" ">
<polygon fill="white" stroke="none" points="503.88,-735.62 415.62,-735.62 415.62,-681.38 503.88,-681.38 503.88,-735.62"/>
<text xml:space="preserve" text-anchor="start" x="419.62" y="-721.88" font-family="Helvetica,sans-Serif" font-size="10.00">std::vector&lt; T &gt;</text>
<text xml:space="preserve" text-anchor="start" x="458.25" y="-705.12" font-family="Helvetica,sans-Serif" font-size="10.00"> </text>
<text xml:space="preserve" text-anchor="start" x="458.25" y="-688.38" font-family="Helvetica,sans-Serif" font-size="10.00"> </text>
<polygon fill="#666666" stroke="#666666" points="415.62,-716.88 415.62,-716.88 503.88,-716.88 503.88,-716.88 415.62,-716.88"/>
<polygon fill="#666666" stroke="#666666" points="415.62,-700.12 415.62,-700.12 503.88,-700.12 503.88,-700.12 415.62,-700.12"/>
<polygon fill="none" stroke="#666666" points="415.62,-681.38 415.62,-735.62 503.88,-735.62 503.88,-681.38 415.62,-681.38"/>
</a>
</g>
</g>
<!-- Node5&#45;&gt;Node4 -->
<g id="edge4_Node000004_Node000005" class="edge">
<title>Node5&#45;&gt;Node4</title>
<g id="a_edge4_Node000004_Node000005"><a xlink:title=" ">
<path fill="none" stroke="orange" d="M404.68,-702.77C360.75,-697.04 298.94,-684.46 251.5,-657 232.7,-646.12 215.76,-628.82 203.07,-613.51"/>
<polygon fill="orange" stroke="orange" points="404.15,-706.23 414.5,-703.97 405,-699.28 404.15,-706.23"/>
</a>
</g>
<text xml:space="preserve" text-anchor="start" x="254.5" y="-644.25" font-family="Helvetica,sans-Serif" font-size="10.00" fill="grey">&lt; Vertex_handle &gt;</text>
</g>
<!-- Node7 -->
<g id="Node000007" class="node">
<title>Node7</title>
<g id="a_Node000007"><a xlink:title=" ">
<polygon fill="white" stroke="none" points="388.38,-607.5 249.12,-607.5 249.12,-553.25 388.38,-553.25 388.38,-607.5"/>
<text xml:space="preserve" text-anchor="start" x="253.12" y="-593.75" font-family="Helvetica,sans-Serif" font-size="10.00">std::vector&lt; Cell_handle &gt;</text>
<text xml:space="preserve" text-anchor="start" x="271.44" y="-577" font-family="Helvetica,sans-Serif" font-size="10.00">+</text>
<text xml:space="preserve" text-anchor="start" x="302" y="-577" font-family="Helvetica,sans-Serif" font-size="10.00">elements</text>
<text xml:space="preserve" text-anchor="start" x="317.25" y="-560.25" font-family="Helvetica,sans-Serif" font-size="10.00"> </text>
<polygon fill="#666666" stroke="#666666" points="249.12,-588.75 249.12,-588.75 388.38,-588.75 388.38,-588.75 249.12,-588.75"/>
<polygon fill="#666666" stroke="#666666" points="249.12,-572 249.12,-572 300,-572 300,-572 249.12,-572"/>
<polygon fill="#666666" stroke="#666666" points="300,-572 300,-572 388.38,-572 388.38,-572 300,-572"/>
<polygon fill="none" stroke="#666666" points="249.12,-553.25 249.12,-607.5 388.38,-607.5 388.38,-553.25 249.12,-553.25"/>
</a>
</g>
</g>
<!-- Node5&#45;&gt;Node7 -->
<g id="edge7_Node000007_Node000005" class="edge">
<title>Node5&#45;&gt;Node7</title>
<g id="a_edge7_Node000007_Node000005"><a xlink:title=" ">
<path fill="none" stroke="orange" d="M405.77,-682.33C393.34,-675.15 380.72,-666.62 370.25,-657 354.81,-642.81 341.6,-623.15 332.43,-607.43"/>
<polygon fill="orange" stroke="orange" points="403.87,-685.28 414.32,-687.06 407.26,-679.15 403.87,-685.28"/>
</a>
</g>
<text xml:space="preserve" text-anchor="start" x="373.25" y="-644.25" font-family="Helvetica,sans-Serif" font-size="10.00" fill="grey">&lt; Cell_handle &gt;</text>
</g>
<!-- Node8 -->
<g id="Node000008" class="node">
<title>Node8</title>
<g id="a_Node000008"><a xlink:title=" ">
<polygon fill="white" stroke="none" points="537.25,-613.88 406.25,-613.88 406.25,-546.88 537.25,-546.88 537.25,-613.88"/>
<text xml:space="preserve" text-anchor="start" x="410.25" y="-600.12" font-family="Helvetica,sans-Serif" font-size="10.00">std::vector&lt; Face_handle</text>
<text xml:space="preserve" text-anchor="start" x="447.38" y="-587.38" font-family="Helvetica,sans-Serif" font-size="10.00">_t&lt; 3 &gt; &gt;</text>
<text xml:space="preserve" text-anchor="start" x="426.5" y="-570.62" font-family="Helvetica,sans-Serif" font-size="10.00">+</text>
<text xml:space="preserve" text-anchor="start" x="455" y="-570.62" font-family="Helvetica,sans-Serif" font-size="10.00">elements</text>
<text xml:space="preserve" text-anchor="start" x="470.25" y="-553.88" font-family="Helvetica,sans-Serif" font-size="10.00"> </text>
<polygon fill="#666666" stroke="#666666" points="406.25,-582.38 406.25,-582.38 537.25,-582.38 537.25,-582.38 406.25,-582.38"/>
<polygon fill="#666666" stroke="#666666" points="406.25,-565.62 406.25,-565.62 453,-565.62 453,-565.62 406.25,-565.62"/>
<polygon fill="#666666" stroke="#666666" points="453,-565.62 453,-565.62 537.25,-565.62 537.25,-565.62 453,-565.62"/>
<polygon fill="none" stroke="#666666" points="406.25,-546.88 406.25,-613.88 537.25,-613.88 537.25,-546.88 406.25,-546.88"/>
</a>
</g>
</g>
<!-- Node5&#45;&gt;Node8 -->
<g id="edge9_Node000008_Node000005" class="edge">
<title>Node5&#45;&gt;Node8</title>
<g id="a_edge9_Node000008_Node000005"><a xlink:title=" ">
<path fill="none" stroke="orange" d="M459.08,-670.22C459.22,-659.85 459.68,-648.59 460.75,-638.25 461.58,-630.25 462.96,-621.69 464.47,-613.71"/>
<polygon fill="orange" stroke="orange" points="455.58,-669.93 459.05,-679.94 462.58,-669.96 455.58,-669.93"/>
</a>
</g>
<text xml:space="preserve" text-anchor="start" x="463.75" y="-644.25" font-family="Helvetica,sans-Serif" font-size="10.00" fill="grey">&lt; Face_handle_t&lt; 3 &gt; &gt;</text>
</g>
<!-- Node9 -->
<g id="Node000009" class="node">
<title>Node9</title>
<g id="a_Node000009"><a xlink:title=" ">
<polygon fill="white" stroke="none" points="662.62,-613.88 554.88,-613.88 554.88,-546.88 662.62,-546.88 662.62,-613.88"/>
<text xml:space="preserve" text-anchor="start" x="558.88" y="-600.12" font-family="Helvetica,sans-Serif" font-size="10.00">std::vector&lt; Volume</text>
<text xml:space="preserve" text-anchor="start" x="587.75" y="-587.38" font-family="Helvetica,sans-Serif" font-size="10.00">_entry &gt;</text>
<text xml:space="preserve" text-anchor="start" x="569.31" y="-570.62" font-family="Helvetica,sans-Serif" font-size="10.00">+</text>
<text xml:space="preserve" text-anchor="start" x="592" y="-570.62" font-family="Helvetica,sans-Serif" font-size="10.00">elements</text>
<text xml:space="preserve" text-anchor="start" x="607.25" y="-553.88" font-family="Helvetica,sans-Serif" font-size="10.00"> </text>
<polygon fill="#666666" stroke="#666666" points="554.88,-582.38 554.88,-582.38 662.62,-582.38 662.62,-582.38 554.88,-582.38"/>
<polygon fill="#666666" stroke="#666666" points="554.88,-565.62 554.88,-565.62 590,-565.62 590,-565.62 554.88,-565.62"/>
<polygon fill="#666666" stroke="#666666" points="590,-565.62 590,-565.62 662.62,-565.62 662.62,-565.62 590,-565.62"/>
<polygon fill="none" stroke="#666666" points="554.88,-546.88 554.88,-613.88 662.62,-613.88 662.62,-546.88 554.88,-546.88"/>
</a>
</g>
</g>
<!-- Node5&#45;&gt;Node9 -->
<g id="edge11_Node000009_Node000005" class="edge">
<title>Node5&#45;&gt;Node9</title>
<g id="a_edge11_Node000009_Node000005"><a xlink:title=" ">
<path fill="none" stroke="orange" d="M514.52,-697.28C539.66,-689.98 567.98,-677.65 586.75,-657 597.51,-645.16 603.03,-628.35 605.85,-613.58"/>
<polygon fill="orange" stroke="orange" points="513.82,-693.85 505.07,-699.81 515.63,-700.61 513.82,-693.85"/>
</a>
</g>
<text xml:space="preserve" text-anchor="start" x="601.08" y="-644.25" font-family="Helvetica,sans-Serif" font-size="10.00" fill="grey">&lt; Volume_entry &gt;</text>
</g>
<!-- Node10 -->
<g id="Node000010" class="node">
<title>Node10</title>
<g id="a_Node000010"><a xlink:title=" ">
<polygon fill="white" stroke="none" points="814.38,-613.88 681.12,-613.88 681.12,-546.88 814.38,-546.88 814.38,-613.88"/>
<text xml:space="preserve" text-anchor="start" x="685.12" y="-600.12" font-family="Helvetica,sans-Serif" font-size="10.00">std::vector&lt; Edge_handle</text>
<text xml:space="preserve" text-anchor="start" x="723.38" y="-587.38" font-family="Helvetica,sans-Serif" font-size="10.00">_t&lt; 3 &gt; &gt;</text>
<text xml:space="preserve" text-anchor="start" x="701.94" y="-570.62" font-family="Helvetica,sans-Serif" font-size="10.00">+</text>
<text xml:space="preserve" text-anchor="start" x="731" y="-570.62" font-family="Helvetica,sans-Serif" font-size="10.00">elements</text>
<text xml:space="preserve" text-anchor="start" x="746.25" y="-553.88" font-family="Helvetica,sans-Serif" font-size="10.00"> </text>
<polygon fill="#666666" stroke="#666666" points="681.12,-582.38 681.12,-582.38 814.38,-582.38 814.38,-582.38 681.12,-582.38"/>
<polygon fill="#666666" stroke="#666666" points="681.12,-565.62 681.12,-565.62 729,-565.62 729,-565.62 681.12,-565.62"/>
<polygon fill="#666666" stroke="#666666" points="729,-565.62 729,-565.62 814.38,-565.62 814.38,-565.62 729,-565.62"/>
<polygon fill="none" stroke="#666666" points="681.12,-546.88 681.12,-613.88 814.38,-613.88 814.38,-546.88 681.12,-546.88"/>
</a>
</g>
</g>
<!-- Node5&#45;&gt;Node10 -->
<g id="edge13_Node000010_Node000005" class="edge">
<title>Node5&#45;&gt;Node10</title>
<g id="a_edge13_Node000010_Node000005"><a xlink:title=" ">
<path fill="none" stroke="orange" d="M514.75,-707.41C566.18,-704.82 643.06,-694.24 697.75,-657 713.36,-646.37 725.32,-629.09 733.63,-613.73"/>
<polygon fill="orange" stroke="orange" points="514.9,-703.9 505.05,-707.81 515.19,-710.9 514.9,-703.9"/>
</a>
</g>
<text xml:space="preserve" text-anchor="start" x="720.32" y="-644.25" font-family="Helvetica,sans-Serif" font-size="10.00" fill="grey">&lt; Edge_handle_t&lt; 3 &gt; &gt;</text>
</g>
<!-- Node6 -->
<g id="Node000006" class="node">
<title>Node6</title>
<g id="a_Node000006"><a xlink:title=" ">
<polygon fill="white" stroke="none" points="466.75,-851 452.75,-851 452.75,-796.75 466.75,-796.75 466.75,-851"/>
<text xml:space="preserve" text-anchor="start" x="456.75" y="-837.25" font-family="Helvetica,sans-Serif" font-size="10.00">T</text>
<text xml:space="preserve" text-anchor="start" x="458.25" y="-820.5" font-family="Helvetica,sans-Serif" font-size="10.00"> </text>
<text xml:space="preserve" text-anchor="start" x="458.25" y="-803.75" font-family="Helvetica,sans-Serif" font-size="10.00"> </text>
<polygon fill="#bfbfbf" stroke="#bfbfbf" points="452.75,-832.25 452.75,-832.25 466.75,-832.25 466.75,-832.25 452.75,-832.25"/>
<polygon fill="#bfbfbf" stroke="#bfbfbf" points="452.75,-815.5 452.75,-815.5 466.75,-815.5 466.75,-815.5 452.75,-815.5"/>
<polygon fill="none" stroke="#bfbfbf" points="452.75,-796.75 452.75,-851 466.75,-851 466.75,-796.75 452.75,-796.75"/>
</a>
</g>
</g>
<!-- Node6&#45;&gt;Node5 -->
<g id="edge5_Node000005_Node000006" class="edge">
<title>Node6&#45;&gt;Node5</title>
<g id="a_edge5_Node000005_Node000006"><a xlink:title=" ">
<path fill="none" stroke="#63b8ff" d="M459.75,-796.86C459.75,-782.46 459.75,-764.28 459.75,-748.23"/>
<polygon fill="none" stroke="#63b8ff" points="459.75,-748.29 455.75,-742.29 459.75,-736.29 463.75,-742.29 459.75,-748.29"/>
</a>
</g>
<text xml:space="preserve" text-anchor="start" x="462.75" y="-766" font-family="Helvetica,sans-Serif" font-size="10.00" fill="grey">+elements</text>
</g>
<!-- Node7&#45;&gt;Node1 -->
<g id="edge6_Node000001_Node000007" class="edge">
<title>Node7&#45;&gt;Node1</title>
<g id="a_edge6_Node000001_Node000007"><a xlink:title=" ">
<path fill="none" stroke="#63b8ff" d="M329.75,-553.44C343.72,-520.51 369.09,-460.72 394.56,-400.7"/>
<polygon fill="none" stroke="#63b8ff" points="394.61,-400.57 393.27,-393.49 399.3,-389.53 400.63,-396.61 394.61,-400.57"/>
</a>
</g>
<text xml:space="preserve" text-anchor="start" x="371.24" y="-509.75" font-family="Helvetica,sans-Serif" font-size="10.00" fill="grey">&#45;m_cells</text>
<text xml:space="preserve" text-anchor="start" x="371.24" y="-493" font-family="Helvetica,sans-Serif" font-size="10.00" fill="grey">&#45;m_one_three</text>
<text xml:space="preserve" text-anchor="start" x="371.24" y="-476.25" font-family="Helvetica,sans-Serif" font-size="10.00" fill="grey">&#45;m_three_one</text>
<text xml:space="preserve" text-anchor="start" x="371.24" y="-459.5" font-family="Helvetica,sans-Serif" font-size="10.00" fill="grey">&#45;m_two_two</text>
</g>
<!-- Node8&#45;&gt;Node1 -->
<g id="edge8_Node000001_Node000008" class="edge">
<title>Node8&#45;&gt;Node1</title>
<g id="a_edge8_Node000001_Node000008"><a xlink:title=" ">
<path fill="none" stroke="#63b8ff" d="M471.75,-547.05C471.75,-522.85 471.75,-487.33 471.75,-448.5"/>
<polygon fill="none" stroke="#63b8ff" points="471.75,-448.4 467.75,-442.4 471.75,-436.4 475.75,-442.4 471.75,-448.4"/>
</a>
</g>
<text xml:space="preserve" text-anchor="start" x="474.75" y="-484.62" font-family="Helvetica,sans-Serif" font-size="10.00" fill="grey">&#45;m_faces</text>
</g>
<!-- Node9&#45;&gt;Node1 -->
<g id="edge10_Node000001_Node000009" class="edge">
<title>Node9&#45;&gt;Node1</title>
<g id="a_edge10_Node000001_Node000009"><a xlink:title=" ">
<path fill="none" stroke="#63b8ff" d="M596.47,-547.05C585.1,-517.12 567.16,-469.9 548.39,-420.5"/>
<polygon fill="none" stroke="#63b8ff" points="548.45,-420.64 542.58,-416.45 544.19,-409.43 550.06,-413.61 548.45,-420.64"/>
</a>
</g>
<text xml:space="preserve" text-anchor="start" x="588.78" y="-484.62" font-family="Helvetica,sans-Serif" font-size="10.00" fill="grey">&#45;m_spacelike_facets</text>
</g>
<!-- Node10&#45;&gt;Node1 -->
<g id="edge12_Node000001_Node000010" class="edge">
<title>Node10&#45;&gt;Node1</title>
<g id="a_edge12_Node000001_Node000010"><a xlink:title=" ">
<path fill="none" stroke="#63b8ff" d="M738.07,-547C729.33,-520.57 714.9,-482.93 695.75,-453.5 656.16,-392.65 599.66,-333.58 553.31,-289.91"/>
<polygon fill="none" stroke="#63b8ff" points="553.32,-289.91 546.2,-288.74 544.55,-281.72 551.66,-282.89 553.32,-289.91"/>
</a>
</g>
<text xml:space="preserve" text-anchor="start" x="731.32" y="-501.38" font-family="Helvetica,sans-Serif" font-size="10.00" fill="grey">&#45;m_edges</text>
<text xml:space="preserve" text-anchor="start" x="731.32" y="-484.62" font-family="Helvetica,sans-Serif" font-size="10.00" fill="grey">&#45;m_spacelike_edges</text>
<text xml:space="preserve" text-anchor="start" x="731.32" y="-467.88" font-family="Helvetica,sans-Serif" font-size="10.00" fill="grey">&#45;m_timelike_edges</text>
</g>
<!-- Node11 -->
<g id="Node000011" class="node">
<title>Node11</title>
<g id="a_Node000011"><a xlink:href="classcdt_1_1foliated__triangulations_1_1_foliated_triangulation.html" target="_top" xlink:title=" ">
<polygon fill="white" stroke="none" points="971.38,-620.25 832.12,-620.25 832.12,-540.5 971.38,-540.5 971.38,-620.25"/>
<text xml:space="preserve" text-anchor="start" x="836.12" y="-606.5" font-family="Helvetica,sans-Serif" font-size="10.00">cdt::foliated_triangulations</text>
<text xml:space="preserve" text-anchor="start" x="836.12" y="-593.75" font-family="Helvetica,sans-Serif" font-size="10.00">::FoliatedTriangulation&lt;</text>
<text xml:space="preserve" text-anchor="start" x="869.12" y="-581" font-family="Helvetica,sans-Serif" font-size="10.00"> dimension &gt;</text>
<text xml:space="preserve" text-anchor="start" x="900.25" y="-564.25" font-family="Helvetica,sans-Serif" font-size="10.00"> </text>
<text xml:space="preserve" text-anchor="start" x="900.25" y="-547.5" font-family="Helvetica,sans-Serif" font-size="10.00"> </text>
<polygon fill="#666666" stroke="#666666" points="832.12,-576 832.12,-576 971.38,-576 971.38,-576 832.12,-576"/>
<polygon fill="#666666" stroke="#666666" points="832.12,-559.25 832.12,-559.25 971.38,-559.25 971.38,-559.25 832.12,-559.25"/>
<polygon fill="none" stroke="#666666" points="832.12,-540.5 832.12,-620.25 971.38,-620.25 971.38,-540.5 832.12,-540.5"/>
</a>
</g>
</g>
<!-- Node11&#45;&gt;Node1 -->
<g id="edge14_Node000001_Node000011" class="edge">
<title>Node11&#45;&gt;Node1</title>
<g id="a_edge14_Node000001_Node000011"><a xlink:title=" ">
<path fill="none" stroke="orange" d="M884.01,-530.28C873.31,-505.34 857.83,-475.69 837.75,-453.5 753.42,-360.3 623.97,-289.03 543.75,-250.59"/>
<polygon fill="orange" stroke="orange" points="880.67,-531.35 887.73,-539.25 887.13,-528.68 880.67,-531.35"/>
</a>
</g>
<text xml:space="preserve" text-anchor="start" x="882.98" y="-484.62" font-family="Helvetica,sans-Serif" font-size="10.00" fill="grey">&lt; 3 &gt;</text>
</g>
</g>
</svg>

<g id="navigator" transform="translate(0 0)" fill="#404254">
  <rect fill="#f2f5e9" fill-opacity="0.5" stroke="#606060" stroke-width=".5" x="0" y="0" width="60" height="60"/>
  <use id="zoomplus" xlink:href="#zoomPlus" x="17" y="9" onmousedown="handleZoom(evt,'in')"/>
  <use id="zoomminus" xlink:href="#zoomMin" x="42" y="9" onmousedown="handleZoom(evt,'out')"/>
  <use id="reset" xlink:href="#resetDef" x="30" y="36" onmousedown="handleReset()"/>
   <use id="arrowup" xlink:href="#arrowUp" x="0" y="0" onmousedown="handlePan(0,-1)"/>
  <use id="arrowright" xlink:href="#arrowRight" x="0" y="0" onmousedown="handlePan(1,0)"/>
  <use id="arrowdown" xlink:href="#arrowDown" x="0" y="0" onmousedown="handlePan(0,1)"/>
  <use id="arrowleft" xlink:href="#arrowLeft" x="0" y="0" onmousedown="handlePan(-1,0)"/>
</g>
<svg viewBox="0 0 15 15" width="100%" height="30px" preserveAspectRatio="xMaxYMin meet">
 <g id="arrow_out" transform="scale(0.3 0.3)">
  <a xlink:href="classcdt_1_1foliated__triangulations_1_1_foliated_triangulation_3_013_01_4__coll__graph_org.svg" target="_base">
   <rect id="button" ry="5" rx="5" y="6" x="6" height="38" width="38"
        fill="#f2f5e9" fill-opacity="0.5" stroke="#606060" stroke-width="1.0"/>
   <path id="arrow"
     d="M 11.500037,31.436501 C 11.940474,20.09759 22.043105,11.32322 32.158766,21.979434 L 37.068811,17.246167 C 37.068811,17.246167 37.088388,32 37.088388,32 L 22.160133,31.978069 C 22.160133,31.978069 26.997745,27.140456 26.997745,27.140456 C 18.528582,18.264221 13.291696,25.230495 11.500037,31.436501 z"
     style="fill:#404040;"/>
  </a>
 </g>
</svg>

<style type='text/css'>
<![CDATA[
[data-mouse-over-selected='false'] { opacity: 0.7; }
[data-mouse-over-selected='true']  { opacity: 1.0; }
]]>
</style>
<script type="application/ecmascript"><![CDATA[
document.addEventListener('DOMContentLoaded', (event) => {
  highlightEdges();
  highlightAdjacentNodes();
});
]]></script>
</svg>
