<?xml version="1.0" encoding="UTF-8" standalone="no"?>
<!DOCTYPE svg PUBLIC "-//W3C//DTD SVG 1.1//EN"
 "http://www.w3.org/Graphics/SVG/1.1/DTD/svg11.dtd">
<!-- Generated by graphviz version 2.43.0 (0)
 -->
<!-- Title: foliated_triangulations::FoliatedTriangulation&lt; 3 &gt; Pages: 1 -->
<!--zoomable 656 -->
<svg id="main" version="1.1" xmlns="http://www.w3.org/2000/svg" xmlns:xlink="http://www.w3.org/1999/xlink" xml:space="preserve" onload="init(evt)">
<style type="text/css"><![CDATA[
.edge:hover path { stroke: red; }
.edge:hover polygon { stroke: red; fill: red; }
]]></style>
<script type="text/javascript"><![CDATA[
var edges = document.getElementsByTagName('g');
if (edges && edges.length) {
  for (var i=0;i<edges.length;i++) {
    if (edges[i].id.substr(0,4)=='edge') {
      edges[i].setAttribute('class','edge');
    }
  }
}
]]></script>
        <defs>
                <circle id="rim" cx="0" cy="0" r="7"/>
                <circle id="rim2" cx="0" cy="0" r="3.5"/>
                <g id="zoomPlus">
                        <use xlink:href="#rim" fill="#404040">
                                <set attributeName="fill" to="#808080" begin="zoomplus.mouseover" end="zoomplus.mouseout"/>
                        </use>
                        <path d="M-4,0h8M0,-4v8" fill="none" stroke="white" stroke-width="1.5" pointer-events="none"/>
                </g>
                <g id="zoomMin">
                        <use xlink:href="#rim" fill="#404040">
                                <set attributeName="fill" to="#808080" begin="zoomminus.mouseover" end="zoomminus.mouseout"/>
                        </use>
                        <path d="M-4,0h8" fill="none" stroke="white" stroke-width="1.5" pointer-events="none"/>
                </g>
                <g id="dirArrow">
                        <path fill="none" stroke="white" stroke-width="1.5" d="M0,-3.0v7 M-2.5,-0.5L0,-3.0L2.5,-0.5"/>
                </g>
               <g id="resetDef">
                       <use xlink:href="#rim2" fill="#404040">
                               <set attributeName="fill" to="#808080" begin="reset.mouseover" end="reset.mouseout"/>
                       </use>
               </g>
        </defs>

<script type="text/javascript">
var viewWidth = 747;
var viewHeight = 656;
var sectionId = 'dynsection-0';
</script>
<script xlink:href="svgpan.js"/>
<svg id="graph" class="graph">
<g id="viewport">
<title>foliated_triangulations::FoliatedTriangulation&lt; 3 &gt;</title>
<!-- Node1 -->
<g id="node1" class="node">
<title>Node1</title>
<g id="a_node1"><a xlink:title="3D Foliated triangulation">
<polygon fill="#999999" stroke="#666666" points="289,-0.5 289,-288.5 442,-288.5 442,-0.5 289,-0.5"/>
<text text-anchor="start" x="297" y="-276.5" font-family="Helvetica,sans-Serif" font-size="10.00">foliated_triangulations</text>
<text text-anchor="middle" x="365.5" y="-265.5" font-family="Helvetica,sans-Serif" font-size="10.00">::FoliatedTriangulation&lt; 3 &gt;</text>
<polyline fill="none" stroke="#666666" points="289,-258.5 442,-258.5 "/>
<text text-anchor="start" x="297" y="-246.5" font-family="Helvetica,sans-Serif" font-size="10.00">&#45; m_foliation_spacing</text>
<text text-anchor="start" x="297" y="-235.5" font-family="Helvetica,sans-Serif" font-size="10.00">&#45; m_initial_radius</text>
<text text-anchor="start" x="297" y="-224.5" font-family="Helvetica,sans-Serif" font-size="10.00">&#45; m_max_timevalue</text>
<text text-anchor="start" x="297" y="-213.5" font-family="Helvetica,sans-Serif" font-size="10.00">&#45; m_min_timevalue</text>
<text text-anchor="start" x="297" y="-202.5" font-family="Helvetica,sans-Serif" font-size="10.00">&#45; m_triangulation</text>
<polyline fill="none" stroke="#666666" points="289,-195.5 442,-195.5 "/>
<text text-anchor="start" x="297" y="-183.5" font-family="Helvetica,sans-Serif" font-size="10.00">+ FoliatedTriangulation()</text>
<text text-anchor="start" x="297" y="-172.5" font-family="Helvetica,sans-Serif" font-size="10.00">+ FoliatedTriangulation()</text>
<text text-anchor="start" x="297" y="-161.5" font-family="Helvetica,sans-Serif" font-size="10.00">+ FoliatedTriangulation()</text>
<text text-anchor="start" x="297" y="-150.5" font-family="Helvetica,sans-Serif" font-size="10.00">+ FoliatedTriangulation()</text>
<text text-anchor="start" x="297" y="-139.5" font-family="Helvetica,sans-Serif" font-size="10.00">+ FoliatedTriangulation()</text>
<text text-anchor="start" x="297" y="-128.5" font-family="Helvetica,sans-Serif" font-size="10.00">+ FoliatedTriangulation()</text>
<text text-anchor="start" x="297" y="-117.5" font-family="Helvetica,sans-Serif" font-size="10.00">+ ~FoliatedTriangulation()</text>
<text text-anchor="start" x="297" y="-106.5" font-family="Helvetica,sans-Serif" font-size="10.00">+ check_all_cells()</text>
<text text-anchor="start" x="297" y="-95.5" font-family="Helvetica,sans-Serif" font-size="10.00">+ check_all_vertices()</text>
<text text-anchor="start" x="297" y="-84.5" font-family="Helvetica,sans-Serif" font-size="10.00">+ delaunay_snapshot()</text>
<text text-anchor="start" x="297" y="-73.5" font-family="Helvetica,sans-Serif" font-size="10.00">and 34 more...</text>
<text text-anchor="start" x="297" y="-62.5" font-family="Helvetica,sans-Serif" font-size="10.00">&#45; classify_cells()</text>
<text text-anchor="start" x="297" y="-51.5" font-family="Helvetica,sans-Serif" font-size="10.00">&#45; classify_vertices()</text>
<text text-anchor="start" x="297" y="-40.5" font-family="Helvetica,sans-Serif" font-size="10.00">&#45; collect_edges()</text>
<text text-anchor="start" x="297" y="-29.5" font-family="Helvetica,sans-Serif" font-size="10.00">&#45; collect_faces()</text>
<text text-anchor="start" x="297" y="-18.5" font-family="Helvetica,sans-Serif" font-size="10.00">&#45; cache_spacelike_facets()</text>
<text text-anchor="start" x="297" y="-7.5" font-family="Helvetica,sans-Serif" font-size="10.00">&#45; require_nonempty()</text>
</a>
</g>
</g>
<!-- Node2 -->
<g id="node2" class="node">
<title>Node2</title>
<g id="a_node2"><a xlink:title=" ">
<polygon fill="white" stroke="#666666" points="0,-369.5 0,-437.5 111,-437.5 111,-369.5 0,-369.5"/>
<text text-anchor="start" x="8" y="-425.5" font-family="Helvetica,sans-Serif" font-size="10.00">std::vector&lt; Vertex</text>
<text text-anchor="middle" x="55.5" y="-414.5" font-family="Helvetica,sans-Serif" font-size="10.00">_handle &gt;</text>
<polyline fill="none" stroke="#666666" points="0,-407.5 111,-407.5 "/>
<text text-anchor="start" x="8" y="-395.5" font-family="Helvetica,sans-Serif" font-size="10.00">+ elements</text>
<polyline fill="none" stroke="#666666" points="0,-388.5 111,-388.5 "/>
<text text-anchor="middle" x="55.5" y="-376.5" font-family="Helvetica,sans-Serif" font-size="10.00"> </text>
</a>
</g>
</g>
<!-- Node2&#45;&gt;Node1 -->
<g id="edge1" class="edge">
<title>Node2&#45;&gt;Node1</title>
<path fill="none" stroke="#404040" d="M95.39,-369.43C141.65,-331.08 219.24,-266.76 279.42,-216.86"/>
<polygon fill="none" stroke="#404040" points="279.69,-216.64 281.75,-209.73 288.92,-208.98 286.86,-215.89 279.69,-216.64"/>
<text text-anchor="middle" x="196" y="-326.5" font-family="Helvetica,sans-Serif" font-size="10.00"> &#45;m_vertices</text>
</g>
<!-- Node3 -->
<g id="node3" class="node">
<title>Node3</title>
<g id="a_node3"><a xlink:title=" ">
<polygon fill="white" stroke="#666666" points="316,-485.5 316,-542.5 413,-542.5 413,-485.5 316,-485.5"/>
<text text-anchor="middle" x="364.5" y="-530.5" font-family="Helvetica,sans-Serif" font-size="10.00">std::vector&lt; T &gt;</text>
<polyline fill="none" stroke="#666666" points="316,-523.5 413,-523.5 "/>
<text text-anchor="middle" x="364.5" y="-511.5" font-family="Helvetica,sans-Serif" font-size="10.00"> </text>
<polyline fill="none" stroke="#666666" points="316,-504.5 413,-504.5 "/>
<text text-anchor="middle" x="364.5" y="-492.5" font-family="Helvetica,sans-Serif" font-size="10.00"> </text>
</a>
</g>
</g>
<!-- Node3&#45;&gt;Node2 -->
<g id="edge2" class="edge">
<title>Node3&#45;&gt;Node2</title>
<path fill="none" stroke="orange" d="M305.71,-504.33C264.88,-497.17 209.72,-485.18 163.5,-467 143.74,-459.23 123.29,-448.25 105.56,-437.65"/>
<polygon fill="orange" stroke="orange" points="305.32,-507.82 315.77,-506.05 306.5,-500.92 305.32,-507.82"/>
<text text-anchor="middle" x="211.5" y="-459" font-family="Helvetica,sans-Serif" font-size="10.00"> &lt; Vertex_handle &gt;</text>
</g>
<!-- Node5 -->
<g id="node5" class="node">
<title>Node5</title>
<g id="a_node5"><a xlink:title=" ">
<polygon fill="white" stroke="#666666" points="129.5,-375 129.5,-432 277.5,-432 277.5,-375 129.5,-375"/>
<text text-anchor="middle" x="203.5" y="-420" font-family="Helvetica,sans-Serif" font-size="10.00">std::vector&lt; Cell_handle &gt;</text>
<polyline fill="none" stroke="#666666" points="129.5,-413 277.5,-413 "/>
<text text-anchor="start" x="137.5" y="-401" font-family="Helvetica,sans-Serif" font-size="10.00">+ elements</text>
<polyline fill="none" stroke="#666666" points="129.5,-394 277.5,-394 "/>
<text text-anchor="middle" x="203.5" y="-382" font-family="Helvetica,sans-Serif" font-size="10.00"> </text>
</a>
</g>
</g>
<!-- Node3&#45;&gt;Node5 -->
<g id="edge5" class="edge">
<title>Node3&#45;&gt;Node5</title>
<path fill="none" stroke="orange" d="M306.9,-484.29C297.22,-478.87 287.42,-473.01 278.5,-467 263.04,-456.58 247.02,-443.58 233.77,-432.13"/>
<polygon fill="orange" stroke="orange" points="305.27,-487.39 315.73,-489.13 308.64,-481.25 305.27,-487.39"/>
<text text-anchor="middle" x="320" y="-459" font-family="Helvetica,sans-Serif" font-size="10.00"> &lt; Cell_handle &gt;</text>
</g>
<!-- Node6 -->
<g id="node6" class="node">
<title>Node6</title>
<g id="a_node6"><a xlink:title=" ">
<polygon fill="white" stroke="#666666" points="295.5,-369.5 295.5,-437.5 435.5,-437.5 435.5,-369.5 295.5,-369.5"/>
<text text-anchor="start" x="303.5" y="-425.5" font-family="Helvetica,sans-Serif" font-size="10.00">std::vector&lt; Face_handle</text>
<text text-anchor="middle" x="365.5" y="-414.5" font-family="Helvetica,sans-Serif" font-size="10.00">_t&lt; 3 &gt; &gt;</text>
<polyline fill="none" stroke="#666666" points="295.5,-407.5 435.5,-407.5 "/>
<text text-anchor="start" x="303.5" y="-395.5" font-family="Helvetica,sans-Serif" font-size="10.00">+ elements</text>
<polyline fill="none" stroke="#666666" points="295.5,-388.5 435.5,-388.5 "/>
<text text-anchor="middle" x="365.5" y="-376.5" font-family="Helvetica,sans-Serif" font-size="10.00"> </text>
</a>
</g>
</g>
<!-- Node3&#45;&gt;Node6 -->
<g id="edge7" class="edge">
<title>Node3&#45;&gt;Node6</title>
<path fill="none" stroke="orange" d="M364.85,-474.99C364.96,-462.77 365.09,-449.35 365.2,-437.52"/>
<polygon fill="orange" stroke="orange" points="361.35,-475.31 364.75,-485.34 368.35,-475.37 361.35,-475.31"/>
<text text-anchor="middle" x="427.5" y="-459" font-family="Helvetica,sans-Serif" font-size="10.00"> &lt; Face_handle_t&lt; 3 &gt; &gt;</text>
</g>
<!-- Node7 -->
<g id="node7" class="node">
<title>Node7</title>
<g id="a_node7"><a xlink:title=" ">
<polygon fill="white" stroke="#666666" points="453.5,-369.5 453.5,-437.5 569.5,-437.5 569.5,-369.5 453.5,-369.5"/>
<text text-anchor="start" x="461.5" y="-425.5" font-family="Helvetica,sans-Serif" font-size="10.00">std::vector&lt; Volume</text>
<text text-anchor="middle" x="511.5" y="-414.5" font-family="Helvetica,sans-Serif" font-size="10.00">_entry &gt;</text>
<polyline fill="none" stroke="#666666" points="453.5,-407.5 569.5,-407.5 "/>
<text text-anchor="start" x="461.5" y="-395.5" font-family="Helvetica,sans-Serif" font-size="10.00">+ elements</text>
<polyline fill="none" stroke="#666666" points="453.5,-388.5 569.5,-388.5 "/>
<text text-anchor="middle" x="511.5" y="-376.5" font-family="Helvetica,sans-Serif" font-size="10.00"> </text>
</a>
</g>
</g>
<!-- Node3&#45;&gt;Node7 -->
<g id="edge9" class="edge">
<title>Node3&#45;&gt;Node7</title>
<path fill="none" stroke="orange" d="M423.07,-502.74C446.34,-496.03 471.74,-485.01 489.5,-467 497.33,-459.05 502.39,-448.16 505.65,-437.69"/>
<polygon fill="orange" stroke="orange" points="422.01,-499.4 413.25,-505.36 423.82,-506.16 422.01,-499.4"/>
<text text-anchor="middle" x="544.5" y="-459" font-family="Helvetica,sans-Serif" font-size="10.00"> &lt; Volume_entry &gt;</text>
</g>
<!-- Node8 -->
<g id="node8" class="node">
<title>Node8</title>
<g id="a_node8"><a xlink:title=" ">
<polygon fill="white" stroke="#666666" points="587.5,-369.5 587.5,-437.5 729.5,-437.5 729.5,-369.5 587.5,-369.5"/>
<text text-anchor="start" x="595.5" y="-425.5" font-family="Helvetica,sans-Serif" font-size="10.00">std::vector&lt; Edge_handle</text>
<text text-anchor="middle" x="658.5" y="-414.5" font-family="Helvetica,sans-Serif" font-size="10.00">_t&lt; 3 &gt; &gt;</text>
<polyline fill="none" stroke="#666666" points="587.5,-407.5 729.5,-407.5 "/>
<text text-anchor="start" x="595.5" y="-395.5" font-family="Helvetica,sans-Serif" font-size="10.00">+ elements</text>
<polyline fill="none" stroke="#666666" points="587.5,-388.5 729.5,-388.5 "/>
<text text-anchor="middle" x="658.5" y="-376.5" font-family="Helvetica,sans-Serif" font-size="10.00"> </text>
</a>
</g>
</g>
<!-- Node3&#45;&gt;Node8 -->
<g id="edge11" class="edge">
<title>Node3&#45;&gt;Node8</title>
<path fill="none" stroke="orange" d="M423.27,-510.64C471.93,-506.56 541.58,-495.69 595.5,-467 609.1,-459.76 621.69,-448.64 631.98,-437.78"/>
<polygon fill="orange" stroke="orange" points="422.93,-507.16 413.22,-511.41 423.46,-514.14 422.93,-507.16"/>
<text text-anchor="middle" x="675.5" y="-459" font-family="Helvetica,sans-Serif" font-size="10.00"> &lt; Edge_handle_t&lt; 3 &gt; &gt;</text>
</g>
<!-- Node4 -->
<g id="node4" class="node">
<title>Node4</title>
<g id="a_node4"><a xlink:title=" ">
<polygon fill="white" stroke="#bfbfbf" points="350,-590.5 350,-647.5 379,-647.5 379,-590.5 350,-590.5"/>
<text text-anchor="middle" x="364.5" y="-635.5" font-family="Helvetica,sans-Serif" font-size="10.00">T</text>
<polyline fill="none" stroke="#bfbfbf" points="350,-628.5 379,-628.5 "/>
<text text-anchor="middle" x="364.5" y="-616.5" font-family="Helvetica,sans-Serif" font-size="10.00"> </text>
<polyline fill="none" stroke="#bfbfbf" points="350,-609.5 379,-609.5 "/>
<text text-anchor="middle" x="364.5" y="-597.5" font-family="Helvetica,sans-Serif" font-size="10.00"> </text>
</a>
</g>
</g>
<!-- Node4&#45;&gt;Node3 -->
<g id="edge3" class="edge">
<title>Node4&#45;&gt;Node3</title>
<path fill="none" stroke="#404040" d="M364.5,-590.4C364.5,-579.55 364.5,-566.87 364.5,-555.05"/>
<polygon fill="none" stroke="#404040" points="364.5,-554.68 360.5,-548.68 364.5,-542.68 368.5,-548.68 364.5,-554.68"/>
<text text-anchor="middle" x="393.5" y="-564" font-family="Helvetica,sans-Serif" font-size="10.00"> +elements</text>
</g>
<!-- Node5&#45;&gt;Node1 -->
<g id="edge4" class="edge">
<title>Node5&#45;&gt;Node1</title>
<path fill="none" stroke="#404040" d="M220.84,-375C235.95,-351.03 259.04,-314.4 282.36,-277.39"/>
<polygon fill="none" stroke="#404040" points="282.54,-277.1 282.36,-269.89 288.94,-266.95 289.13,-274.16 282.54,-277.1"/>
<text text-anchor="middle" x="295.5" y="-343" font-family="Helvetica,sans-Serif" font-size="10.00"> &#45;m_cells</text>
<text text-anchor="middle" x="295.5" y="-332" font-family="Helvetica,sans-Serif" font-size="10.00">&#45;m_one_three</text>
<text text-anchor="middle" x="295.5" y="-321" font-family="Helvetica,sans-Serif" font-size="10.00">&#45;m_three_one</text>
<text text-anchor="middle" x="295.5" y="-310" font-family="Helvetica,sans-Serif" font-size="10.00">&#45;m_two_two</text>
</g>
<!-- Node6&#45;&gt;Node1 -->
<g id="edge6" class="edge">
<title>Node6&#45;&gt;Node1</title>
<path fill="none" stroke="#404040" d="M365.5,-369.43C365.5,-351.11 365.5,-326.87 365.5,-301.11"/>
<polygon fill="none" stroke="#404040" points="365.5,-300.77 361.5,-294.77 365.5,-288.77 369.5,-294.77 365.5,-300.77"/>
<text text-anchor="middle" x="390" y="-326.5" font-family="Helvetica,sans-Serif" font-size="10.00"> &#45;m_faces</text>
</g>
<!-- Node7&#45;&gt;Node1 -->
<g id="edge8" class="edge">
<title>Node7&#45;&gt;Node1</title>
<path fill="none" stroke="#404040" d="M492.71,-369.43C480.93,-348.69 464.84,-320.36 448.05,-290.82"/>
<polygon fill="none" stroke="#404040" points="448.02,-290.76 441.58,-287.52 442.1,-280.33 448.54,-283.57 448.02,-290.76"/>
<text text-anchor="middle" x="532" y="-326.5" font-family="Helvetica,sans-Serif" font-size="10.00"> &#45;m_spacelike_facets</text>
</g>
<!-- Node8&#45;&gt;Node1 -->
<g id="edge10" class="edge">
<title>Node8&#45;&gt;Node1</title>
<path fill="none" stroke="#404040" d="M637.4,-369.15C624.32,-349.85 606.44,-325.75 587.5,-307 546.81,-266.73 495.43,-228.69 452.34,-199.66"/>
<polygon fill="none" stroke="#404040" points="452.13,-199.52 444.92,-199.51 442.15,-192.85 449.36,-192.86 452.13,-199.52"/>
<text text-anchor="middle" x="673.5" y="-337.5" font-family="Helvetica,sans-Serif" font-size="10.00"> &#45;m_edges</text>
<text text-anchor="middle" x="673.5" y="-326.5" font-family="Helvetica,sans-Serif" font-size="10.00">&#45;m_spacelike_edges</text>
<text text-anchor="middle" x="673.5" y="-315.5" font-family="Helvetica,sans-Serif" font-size="10.00">&#45;m_timelike_edges</text>
</g>
</g>
</svg>
        <g id="navigator" transform="translate(0 0)" fill="#404254">
                <rect fill="#f2f5e9" fill-opacity="0.5" stroke="#606060" stroke-width=".5" x="0" y="0" width="60" height="60"/>
                <use id="zoomplus" xlink:href="#zoomPlus" x="17" y="9" onmousedown="handleZoom(evt,'in')"/>
                <use id="zoomminus" xlink:href="#zoomMin" x="42" y="9" onmousedown="handleZoom(evt,'out')"/>
                <use id="reset" xlink:href="#resetDef" x="30" y="36" onmousedown="handleReset()"/>
                <g id="arrowUp" xlink:href="#dirArrow" transform="translate(30 24)" onmousedown="handlePan(0,-1)">
                  <use xlink:href="#rim" fill="#404040">
                        <set attributeName="fill" to="#808080" begin="arrowUp.mouseover" end="arrowUp.mouseout"/>
                  </use>
                  <path fill="none" stroke="white" stroke-width="1.5" d="M0,-3.0v7 M-2.5,-0.5L0,-3.0L2.5,-0.5"/>
                </g>
                <g id="arrowRight" xlink:href="#dirArrow" transform="rotate(90) translate(36 -43)" onmousedown="handlePan(1,0)">
                  <use xlink:href="#rim" fill="#404040">
                        <set attributeName="fill" to="#808080" begin="arrowRight.mouseover" end="arrowRight.mouseout"/>
                  </use>
                  <path fill="none" stroke="white" stroke-width="1.5" d="M0,-3.0v7 M-2.5,-0.5L0,-3.0L2.5,-0.5"/>
                </g>
                <g id="arrowDown" xlink:href="#dirArrow" transform="rotate(180) translate(-30 -48)" onmousedown="handlePan(0,1)">
                  <use xlink:href="#rim" fill="#404040">
                        <set attributeName="fill" to="#808080" begin="arrowDown.mouseover" end="arrowDown.mouseout"/>
                  </use>
                  <path fill="none" stroke="white" stroke-width="1.5" d="M0,-3.0v7 M-2.5,-0.5L0,-3.0L2.5,-0.5"/>
                </g>
                <g id="arrowLeft" xlink:href="#dirArrow" transform="rotate(270) translate(-36 17)" onmousedown="handlePan(-1,0)">
                  <use xlink:href="#rim" fill="#404040">
                        <set attributeName="fill" to="#808080" begin="arrowLeft.mouseover" end="arrowLeft.mouseout"/>
                  </use>
                  <path fill="none" stroke="white" stroke-width="1.5" d="M0,-3.0v7 M-2.5,-0.5L0,-3.0L2.5,-0.5"/>
                </g>
        </g>
        <svg viewBox="0 0 15 15" width="100%" height="30px" preserveAspectRatio="xMaxYMin meet">
         <g id="arrow_out" transform="scale(0.3 0.3)">
          <a xlink:href="classfoliated__triangulations_1_1_foliated_triangulation_3_013_01_4__coll__graph_org.svg" target="_base">
           <rect id="button" ry="5" rx="5" y="6" x="6" height="38" width="38"
                fill="#f2f5e9" fill-opacity="0.5" stroke="#606060" stroke-width="1.0"/>
           <path id="arrow"
             d="M 11.500037,31.436501 C 11.940474,20.09759 22.043105,11.32322 32.158766,21.979434 L 37.068811,17.246167 C 37.068811,17.246167 37.088388,32 37.088388,32 L 22.160133,31.978069 C 22.160133,31.978069 26.997745,27.140456 26.997745,27.140456 C 18.528582,18.264221 13.291696,25.230495 11.500037,31.436501 z"
             style="fill:#404040;"/>
          </a>
         </g>
        </svg>
</svg>
