<?xml version="1.0" encoding="UTF-8" standalone="no"?>
<!DOCTYPE svg PUBLIC "-//W3C//DTD SVG 1.1//EN"
 "http://www.w3.org/Graphics/SVG/1.1/DTD/svg11.dtd">
<!-- Generated by graphviz version 2.43.0 (0)
 -->
<!-- Title: Tag Pages: 1 -->
<svg width="92pt" height="160pt"
 viewBox="0.00 0.00 92.00 160.00" xmlns="http://www.w3.org/2000/svg" xmlns:xlink="http://www.w3.org/1999/xlink">
<g id="graph0" class="graph" transform="scale(1 1) rotate(0) translate(4 156)">
<title>Tag</title>
<!-- Node1 -->
<g id="node1" class="node">
<title>Node1</title>
<g id="a_node1"><a xlink:title=" ">
<polygon fill="#999999" stroke="#666666" points="3,-0.5 3,-57.5 81,-57.5 81,-0.5 3,-0.5"/>
<text text-anchor="middle" x="42" y="-45.5" font-family="Helvetica,sans-Serif" font-size="10.00">Tag</text>
<polyline fill="none" stroke="#666666" points="3,-38.5 81,-38.5 "/>
<text text-anchor="middle" x="42" y="-26.5" font-family="Helvetica,sans-Serif" font-size="10.00"> </text>
<polyline fill="none" stroke="#666666" points="3,-19.5 81,-19.5 "/>
<text text-anchor="start" x="11" y="-7.5" font-family="Helvetica,sans-Serif" font-size="10.00">+ example()</text>
</a>
</g>
</g>
<!-- Node2 -->
<g id="node2" class="node">
<title>Node2</title>
<g id="a_node2"><a xlink:href="class_example___test.html" target="_top" xlink:title=" ">
<polygon fill="white" stroke="#666666" points="0,-94.5 0,-151.5 84,-151.5 84,-94.5 0,-94.5"/>
<text text-anchor="middle" x="42" y="-139.5" font-family="Helvetica,sans-Serif" font-size="10.00">Example_Test</text>
<polyline fill="none" stroke="#666666" points="0,-132.5 84,-132.5 "/>
<text text-anchor="middle" x="42" y="-120.5" font-family="Helvetica,sans-Serif" font-size="10.00"> </text>
<polyline fill="none" stroke="#666666" points="0,-113.5 84,-113.5 "/>
<text text-anchor="start" x="8" y="-101.5" font-family="Helvetica,sans-Serif" font-size="10.00">+ example()</text>
</a>
</g>
</g>
<!-- Node2&#45;&gt;Node1 -->
<g id="edge1" class="edge">
<title>Node2&#45;&gt;Node1</title>
<path fill="none" stroke="#63b8ff" d="M42,-84.21C42,-75.29 42,-65.95 42,-57.58"/>
<polygon fill="none" stroke="#63b8ff" points="38.5,-84.4 42,-94.4 45.5,-84.4 38.5,-84.4"/>
</g>
</g>
</svg>
