<?xml version="1.0" encoding="UTF-8" standalone="no"?>
<!DOCTYPE svg PUBLIC "-//W3C//DTD SVG 1.1//EN"
 "http://www.w3.org/Graphics/SVG/1.1/DTD/svg11.dtd">
<!-- Generated by graphviz version 15.1.0 (20260618.0150)
 -->
<!-- Title: cdt::MoveStrategy&lt; strategies, ManifoldType &gt; Pages: 1 -->
<!--zoomable 679 -->

<svg id="main" version="1.1" xmlns="http://www.w3.org/2000/svg" xmlns:xlink="http://www.w3.org/1999/xlink" xml:space="preserve" onload="init(evt)">

<style type="text/css"><![CDATA[
.node, .edge {opacity: 0.7;}
.node.selected, .edge.selected {opacity: 1;}
.edge:hover path { stroke: red; }
.edge:hover polygon { stroke: red; fill: red; }
]]></style>

<defs>
  <circle id="rim" cx="0" cy="0" r="7"/>
  <circle id="rim2" cx="0" cy="0" r="3.5"/>
  <g id="zoomPlus">
    <use xlink:href="#rim" fill="#404040"><set attributeName="fill" to="#808080" begin="zoomplus.mouseover" end="zoomplus.mouseout"/></use>
    <path d="M-4,0h8M0,-4v8" fill="none" stroke="white" stroke-width="1.5" pointer-events="none"/>
  </g>
  <g id="zoomMin">
    <use xlink:href="#rim" fill="#404040"><set attributeName="fill" to="#808080" begin="zoomminus.mouseover" end="zoomminus.mouseout"/></use>
    <path d="M-4,0h8" fill="none" stroke="white" stroke-width="1.5" pointer-events="none"/>
  </g>
  <g id="arrowUp" transform="translate(30 24)">
    <use xlink:href="#rim"/>
    <path pointer-events="none" fill="none" stroke="white" stroke-width="1.5" d="M0,-3.0v7 M-2.5,-0.5L0,-3.0L2.5,-0.5"/>
  </g>
  <g id="arrowRight" transform="rotate(90) translate(36 -43)">
    <use xlink:href="#rim"/>
    <path pointer-events="none" fill="none" stroke="white" stroke-width="1.5" d="M0,-3.0v7 M-2.5,-0.5L0,-3.0L2.5,-0.5"/>
  </g>
  <g id="arrowDown" transform="rotate(180) translate(-30 -48)">
    <use xlink:href="#rim"/>
    <path pointer-events="none" fill="none" stroke="white" stroke-width="1.5" d="M0,-3.0v7 M-2.5,-0.5L0,-3.0L2.5,-0.5"/>
  </g>
  <g id="arrowLeft" transform="rotate(270) translate(-36 17)">
    <use xlink:href="#rim"/>
    <path pointer-events="none" fill="none" stroke="white" stroke-width="1.5" d="M0,-3.0v7 M-2.5,-0.5L0,-3.0L2.5,-0.5"/>
  </g>
  <g id="resetDef">
    <use xlink:href="#rim2" fill="#404040"><set attributeName="fill" to="#808080" begin="reset.mouseover" end="reset.mouseout"/></use>
  </g>
</defs>
<script type="application/ecmascript">
var viewWidth = 700;
var viewHeight = 679;
var sectionId = 'dynsection-0';
</script>
<script type="application/ecmascript" xlink:href="svg.min.js"/>
<svg id="graph" class="graph">
<g id="viewport">
<title>cdt::MoveStrategy&lt; strategies, ManifoldType &gt;</title>
<!-- Node1 -->
<g id="Node000001" class="node">
<title>Node1</title>
<g id="a_Node000001"><a xlink:title="Select a move algorithm.">
<polygon fill="#999999" stroke="none" points="374.38,-670.5 232.12,-670.5 232.12,-603.5 374.38,-603.5 374.38,-670.5"/>
<text xml:space="preserve" text-anchor="start" x="236.12" y="-656.75" font-family="Helvetica,sans-Serif" font-size="10.00">cdt::MoveStrategy&lt;</text>
<text xml:space="preserve" text-anchor="start" x="236.12" y="-644" font-family="Helvetica,sans-Serif" font-size="10.00"> strategies, ManifoldType &gt;</text>
<text xml:space="preserve" text-anchor="start" x="301.75" y="-627.25" font-family="Helvetica,sans-Serif" font-size="10.00"> </text>
<text xml:space="preserve" text-anchor="start" x="301.75" y="-610.5" font-family="Helvetica,sans-Serif" font-size="10.00"> </text>
<polygon fill="#666666" stroke="#666666" points="232.12,-639 232.12,-639 374.38,-639 374.38,-639 232.12,-639"/>
<polygon fill="#666666" stroke="#666666" points="232.12,-622.25 232.12,-622.25 374.38,-622.25 374.38,-622.25 232.12,-622.25"/>
<polygon fill="none" stroke="#666666" points="232.12,-603.5 232.12,-670.5 374.38,-670.5 374.38,-603.5 232.12,-603.5"/>
</a>
</g>
</g>
<!-- Node2 -->
<g id="Node000002" class="node">
<title>Node2</title>
<g id="a_Node000002"><a xlink:href="classcdt_1_1_move_strategy.html" target="_top" xlink:title=" ">
<polygon fill="white" stroke="none" points="132.5,-297.5 0,-297.5 0,-217.75 132.5,-217.75 132.5,-297.5"/>
<text xml:space="preserve" text-anchor="start" x="4" y="-283.75" font-family="Helvetica,sans-Serif" font-size="10.00">cdt::MoveStrategy&lt;</text>
<text xml:space="preserve" text-anchor="start" x="4" y="-271" font-family="Helvetica,sans-Serif" font-size="10.00"> Strategies::METROPOLIS,</text>
<text xml:space="preserve" text-anchor="start" x="4.75" y="-258.25" font-family="Helvetica,sans-Serif" font-size="10.00"> manifolds::Manifold_3 &gt;</text>
<text xml:space="preserve" text-anchor="start" x="64.75" y="-241.5" font-family="Helvetica,sans-Serif" font-size="10.00"> </text>
<text xml:space="preserve" text-anchor="start" x="64.75" y="-224.75" font-family="Helvetica,sans-Serif" font-size="10.00"> </text>
<polygon fill="#666666" stroke="#666666" points="0,-253.25 0,-253.25 132.5,-253.25 132.5,-253.25 0,-253.25"/>
<polygon fill="#666666" stroke="#666666" points="0,-236.5 0,-236.5 132.5,-236.5 132.5,-236.5 0,-236.5"/>
<polygon fill="none" stroke="#666666" points="0,-217.75 0,-297.5 132.5,-297.5 132.5,-217.75 0,-217.75"/>
</a>
</g>
</g>
<!-- Node1&#45;&gt;Node2 -->
<g id="edge1_Node000001_Node000002" class="edge">
<title>Node1&#45;&gt;Node2</title>
<g id="a_edge1_Node000001_Node000002"><a xlink:title=" ">
<path fill="none" stroke="orange" d="M221.12,-627.42C166.36,-619.85 101.29,-606.67 83.5,-585.5 14.5,-503.38 37.87,-364.66 54.91,-297.44"/>
<polygon fill="orange" stroke="orange" points="220.39,-630.85 230.77,-628.7 221.32,-623.91 220.39,-630.85"/>
</a>
</g>
<text xml:space="preserve" text-anchor="start" x="86.5" y="-564.38" font-family="Helvetica,sans-Serif" font-size="10.00" fill="grey">&lt; Strategies::METROPOLIS,</text>
<text xml:space="preserve" text-anchor="start" x="86.5" y="-547.62" font-family="Helvetica,sans-Serif" font-size="10.00" fill="grey">   manifolds::Manifold_3 &gt;</text>
</g>
<!-- Node3 -->
<g id="Node000003" class="node">
<title>Node3</title>
<g id="a_Node000003"><a xlink:href="classcdt_1_1_move_strategy.html" target="_top" xlink:title=" ">
<polygon fill="white" stroke="none" points="295.38,-297.5 153.12,-297.5 153.12,-217.75 295.38,-217.75 295.38,-297.5"/>
<text xml:space="preserve" text-anchor="start" x="157.12" y="-283.75" font-family="Helvetica,sans-Serif" font-size="10.00">cdt::MoveStrategy&lt;</text>
<text xml:space="preserve" text-anchor="start" x="157.12" y="-271" font-family="Helvetica,sans-Serif" font-size="10.00"> Strategies::MOVE_ALWAYS,</text>
<text xml:space="preserve" text-anchor="start" x="162.75" y="-258.25" font-family="Helvetica,sans-Serif" font-size="10.00"> manifolds::Manifold_3 &gt;</text>
<text xml:space="preserve" text-anchor="start" x="222.75" y="-241.5" font-family="Helvetica,sans-Serif" font-size="10.00"> </text>
<text xml:space="preserve" text-anchor="start" x="222.75" y="-224.75" font-family="Helvetica,sans-Serif" font-size="10.00"> </text>
<polygon fill="#666666" stroke="#666666" points="153.12,-253.25 153.12,-253.25 295.38,-253.25 295.38,-253.25 153.12,-253.25"/>
<polygon fill="#666666" stroke="#666666" points="153.12,-236.5 153.12,-236.5 295.38,-236.5 295.38,-236.5 153.12,-236.5"/>
<polygon fill="none" stroke="#666666" points="153.12,-217.75 153.12,-297.5 295.38,-297.5 295.38,-217.75 153.12,-217.75"/>
</a>
</g>
</g>
<!-- Node1&#45;&gt;Node3 -->
<g id="edge2_Node000001_Node000003" class="edge">
<title>Node1&#45;&gt;Node3</title>
<g id="a_edge2_Node000001_Node000003"><a xlink:title=" ">
<path fill="none" stroke="orange" d="M250.78,-595.01C248.59,-591.97 246.63,-588.8 245,-585.5 198.05,-490.73 208.37,-361.12 217.52,-297.32"/>
<polygon fill="orange" stroke="orange" points="247.92,-597.04 256.99,-602.52 253.32,-592.59 247.92,-597.04"/>
</a>
</g>
<text xml:space="preserve" text-anchor="start" x="248" y="-572.75" font-family="Helvetica,sans-Serif" font-size="10.00" fill="grey">&lt; Strategies::MOVE</text>
<text xml:space="preserve" text-anchor="start" x="248" y="-556" font-family="Helvetica,sans-Serif" font-size="10.00" fill="grey">  _ALWAYS, manifolds::</text>
<text xml:space="preserve" text-anchor="start" x="248" y="-539.25" font-family="Helvetica,sans-Serif" font-size="10.00" fill="grey">  Manifold_3 &gt;</text>
</g>
<!-- Node4 -->
<g id="Node000004" class="node">
<title>Node4</title>
<g id="a_Node000004"><a xlink:href="classcdt_1_1_move_strategy_3_01_strategies_1_1_m_e_t_r_o_p_o_l_i_s_00_01_manifold_type_01_4.html" target="_top" xlink:title="Metropolis&#45;Hastings algorithm strategy.">
<polygon fill="white" stroke="none" points="454.75,-515.25 313.75,-515.25 313.75,0 454.75,0 454.75,-515.25"/>
<text xml:space="preserve" text-anchor="start" x="322" y="-501.5" font-family="Helvetica,sans-Serif" font-size="10.00">cdt::MoveStrategy&lt;</text>
<text xml:space="preserve" text-anchor="start" x="322" y="-488.75" font-family="Helvetica,sans-Serif" font-size="10.00"> Strategies::METROPOLIS,</text>
<text xml:space="preserve" text-anchor="start" x="344.5" y="-476" font-family="Helvetica,sans-Serif" font-size="10.00"> ManifoldType &gt;</text>
<text xml:space="preserve" text-anchor="start" x="320" y="-459.25" font-family="Helvetica,sans-Serif" font-size="10.00">&#45;</text>
<text xml:space="preserve" text-anchor="start" x="330" y="-459.25" font-family="Helvetica,sans-Serif" font-size="10.00">m_accepted_moves</text>
<text xml:space="preserve" text-anchor="start" x="320" y="-442.5" font-family="Helvetica,sans-Serif" font-size="10.00">&#45;</text>
<text xml:space="preserve" text-anchor="start" x="330" y="-442.5" font-family="Helvetica,sans-Serif" font-size="10.00">m_Alpha</text>
<text xml:space="preserve" text-anchor="start" x="320" y="-425.75" font-family="Helvetica,sans-Serif" font-size="10.00">&#45;</text>
<text xml:space="preserve" text-anchor="start" x="330" y="-425.75" font-family="Helvetica,sans-Serif" font-size="10.00">m_attempted_moves</text>
<text xml:space="preserve" text-anchor="start" x="320" y="-409" font-family="Helvetica,sans-Serif" font-size="10.00">&#45;</text>
<text xml:space="preserve" text-anchor="start" x="330" y="-409" font-family="Helvetica,sans-Serif" font-size="10.00">m_checkpoint</text>
<text xml:space="preserve" text-anchor="start" x="320" y="-392.25" font-family="Helvetica,sans-Serif" font-size="10.00">&#45;</text>
<text xml:space="preserve" text-anchor="start" x="330" y="-392.25" font-family="Helvetica,sans-Serif" font-size="10.00">m_failed_moves</text>
<text xml:space="preserve" text-anchor="start" x="320" y="-375.5" font-family="Helvetica,sans-Serif" font-size="10.00">&#45;</text>
<text xml:space="preserve" text-anchor="start" x="330" y="-375.5" font-family="Helvetica,sans-Serif" font-size="10.00">m_generator</text>
<text xml:space="preserve" text-anchor="start" x="320" y="-358.75" font-family="Helvetica,sans-Serif" font-size="10.00">&#45;</text>
<text xml:space="preserve" text-anchor="start" x="330" y="-358.75" font-family="Helvetica,sans-Serif" font-size="10.00">m_geometry</text>
<text xml:space="preserve" text-anchor="start" x="320" y="-342" font-family="Helvetica,sans-Serif" font-size="10.00">&#45;</text>
<text xml:space="preserve" text-anchor="start" x="330" y="-342" font-family="Helvetica,sans-Serif" font-size="10.00">m_K</text>
<text xml:space="preserve" text-anchor="start" x="320" y="-325.25" font-family="Helvetica,sans-Serif" font-size="10.00">&#45;</text>
<text xml:space="preserve" text-anchor="start" x="330" y="-325.25" font-family="Helvetica,sans-Serif" font-size="10.00">m_Lambda</text>
<text xml:space="preserve" text-anchor="start" x="320" y="-308.5" font-family="Helvetica,sans-Serif" font-size="10.00">&#45;</text>
<text xml:space="preserve" text-anchor="start" x="330" y="-308.5" font-family="Helvetica,sans-Serif" font-size="10.00">m_passes</text>
<text xml:space="preserve" text-anchor="start" x="330" y="-291.75" font-family="Helvetica,sans-Serif" font-size="10.00">and 7 more...</text>
<text xml:space="preserve" text-anchor="start" x="317.75" y="-275" font-family="Helvetica,sans-Serif" font-size="10.00">+</text>
<text xml:space="preserve" text-anchor="start" x="330" y="-275" font-family="Helvetica,sans-Serif" font-size="10.00">MoveStrategy()</text>
<text xml:space="preserve" text-anchor="start" x="317.75" y="-258.25" font-family="Helvetica,sans-Serif" font-size="10.00">+</text>
<text xml:space="preserve" text-anchor="start" x="330" y="-258.25" font-family="Helvetica,sans-Serif" font-size="10.00">MoveStrategy()</text>
<text xml:space="preserve" text-anchor="start" x="317.75" y="-241.5" font-family="Helvetica,sans-Serif" font-size="10.00">+</text>
<text xml:space="preserve" text-anchor="start" x="330" y="-241.5" font-family="Helvetica,sans-Serif" font-size="10.00">MoveStrategy()</text>
<text xml:space="preserve" text-anchor="start" x="317.75" y="-224.75" font-family="Helvetica,sans-Serif" font-size="10.00">+</text>
<text xml:space="preserve" text-anchor="start" x="330" y="-224.75" font-family="Helvetica,sans-Serif" font-size="10.00">MoveStrategy()</text>
<text xml:space="preserve" text-anchor="start" x="317.75" y="-208" font-family="Helvetica,sans-Serif" font-size="10.00">+</text>
<text xml:space="preserve" text-anchor="start" x="330" y="-208" font-family="Helvetica,sans-Serif" font-size="10.00">acceptance_probability()</text>
<text xml:space="preserve" text-anchor="start" x="317.75" y="-191.25" font-family="Helvetica,sans-Serif" font-size="10.00">+</text>
<text xml:space="preserve" text-anchor="start" x="330" y="-191.25" font-family="Helvetica,sans-Serif" font-size="10.00">Alpha()</text>
<text xml:space="preserve" text-anchor="start" x="317.75" y="-174.5" font-family="Helvetica,sans-Serif" font-size="10.00">+</text>
<text xml:space="preserve" text-anchor="start" x="330" y="-174.5" font-family="Helvetica,sans-Serif" font-size="10.00">attempt_transition()</text>
<text xml:space="preserve" text-anchor="start" x="317.75" y="-157.75" font-family="Helvetica,sans-Serif" font-size="10.00">+</text>
<text xml:space="preserve" text-anchor="start" x="330" y="-157.75" font-family="Helvetica,sans-Serif" font-size="10.00">CalculateA2()</text>
<text xml:space="preserve" text-anchor="start" x="317.75" y="-141" font-family="Helvetica,sans-Serif" font-size="10.00">+</text>
<text xml:space="preserve" text-anchor="start" x="330" y="-141" font-family="Helvetica,sans-Serif" font-size="10.00">checkpoint()</text>
<text xml:space="preserve" text-anchor="start" x="317.75" y="-124.25" font-family="Helvetica,sans-Serif" font-size="10.00">+</text>
<text xml:space="preserve" text-anchor="start" x="330" y="-124.25" font-family="Helvetica,sans-Serif" font-size="10.00">get_accepted()</text>
<text xml:space="preserve" text-anchor="start" x="330" y="-107.5" font-family="Helvetica,sans-Serif" font-size="10.00">and 18 more...</text>
<text xml:space="preserve" text-anchor="start" x="317.75" y="-90.75" font-family="Helvetica,sans-Serif" font-size="10.00">+</text>
<text xml:space="preserve" text-anchor="start" x="330" y="-90.75" font-family="Helvetica,sans-Serif" font-size="10.00">CalculateA1()</text>
<text xml:space="preserve" text-anchor="start" x="317.75" y="-74" font-family="Helvetica,sans-Serif" font-size="10.00">+</text>
<text xml:space="preserve" text-anchor="start" x="330" y="-74" font-family="Helvetica,sans-Serif" font-size="10.00">proposal_probability()</text>
<text xml:space="preserve" text-anchor="start" x="317.75" y="-57.25" font-family="Helvetica,sans-Serif" font-size="10.00">+</text>
<text xml:space="preserve" text-anchor="start" x="330" y="-57.25" font-family="Helvetica,sans-Serif" font-size="10.00">proposal_site_count()</text>
<text xml:space="preserve" text-anchor="start" x="317.75" y="-40.5" font-family="Helvetica,sans-Serif" font-size="10.00">+</text>
<text xml:space="preserve" text-anchor="start" x="330" y="-40.5" font-family="Helvetica,sans-Serif" font-size="10.00">reverse_move()</text>
<text xml:space="preserve" text-anchor="start" x="320" y="-23.75" font-family="Helvetica,sans-Serif" font-size="10.00">&#45;</text>
<text xml:space="preserve" text-anchor="start" x="330" y="-23.75" font-family="Helvetica,sans-Serif" font-size="10.00">propose_candidate()</text>
<text xml:space="preserve" text-anchor="start" x="320" y="-7" font-family="Helvetica,sans-Serif" font-size="10.00">&#45;</text>
<text xml:space="preserve" text-anchor="start" x="330" y="-7" font-family="Helvetica,sans-Serif" font-size="10.00">record_transition()</text>
<polygon fill="#666666" stroke="#666666" points="313.75,-471 313.75,-471 454.75,-471 454.75,-471 313.75,-471"/>
<polygon fill="#666666" stroke="#666666" points="313.75,-286.75 313.75,-286.75 328,-286.75 328,-286.75 313.75,-286.75"/>
<polygon fill="#666666" stroke="#666666" points="328,-286.75 328,-286.75 454.75,-286.75 454.75,-286.75 328,-286.75"/>
<polygon fill="none" stroke="#666666" points="313.75,0 313.75,-515.25 454.75,-515.25 454.75,0 313.75,0"/>
</a>
</g>
</g>
<!-- Node1&#45;&gt;Node4 -->
<g id="edge3_Node000001_Node000004" class="edge">
<title>Node1&#45;&gt;Node4</title>
<g id="a_edge3_Node000001_Node000004"><a xlink:title=" ">
<path fill="none" stroke="orange" d="M355.47,-594.98C357.66,-591.95 359.61,-588.79 361.25,-585.5 372.22,-563.48 380.15,-539.57 385.74,-515.04"/>
<polygon fill="orange" stroke="orange" points="352.95,-592.54 349.28,-602.48 358.34,-597 352.95,-592.54"/>
</a>
</g>
<text xml:space="preserve" text-anchor="start" x="383.27" y="-564.38" font-family="Helvetica,sans-Serif" font-size="10.00" fill="grey">&lt; Strategies::METROPOLIS,</text>
<text xml:space="preserve" text-anchor="start" x="383.27" y="-547.62" font-family="Helvetica,sans-Serif" font-size="10.00" fill="grey">   ManifoldType &gt;</text>
</g>
<!-- Node5 -->
<g id="Node000005" class="node">
<title>Node5</title>
<g id="a_Node000005"><a xlink:href="classcdt_1_1_move_strategy_3_01_strategies_1_1_m_o_v_e___a_l_w_a_y_s_00_01_manifold_type_01_4.html" target="_top" xlink:title="The Move Always algorithm.">
<polygon fill="white" stroke="none" points="616.38,-431.5 474.12,-431.5 474.12,-83.75 616.38,-83.75 616.38,-431.5"/>
<text xml:space="preserve" text-anchor="start" x="478.12" y="-417.75" font-family="Helvetica,sans-Serif" font-size="10.00">cdt::MoveStrategy&lt;</text>
<text xml:space="preserve" text-anchor="start" x="478.12" y="-405" font-family="Helvetica,sans-Serif" font-size="10.00"> Strategies::MOVE_ALWAYS,</text>
<text xml:space="preserve" text-anchor="start" x="505.5" y="-392.25" font-family="Helvetica,sans-Serif" font-size="10.00"> ManifoldType &gt;</text>
<text xml:space="preserve" text-anchor="start" x="484.81" y="-375.5" font-family="Helvetica,sans-Serif" font-size="10.00">&#45;</text>
<text xml:space="preserve" text-anchor="start" x="499.25" y="-375.5" font-family="Helvetica,sans-Serif" font-size="10.00">m_attempted_moves</text>
<text xml:space="preserve" text-anchor="start" x="484.81" y="-358.75" font-family="Helvetica,sans-Serif" font-size="10.00">&#45;</text>
<text xml:space="preserve" text-anchor="start" x="499.25" y="-358.75" font-family="Helvetica,sans-Serif" font-size="10.00">m_checkpoint</text>
<text xml:space="preserve" text-anchor="start" x="484.81" y="-342" font-family="Helvetica,sans-Serif" font-size="10.00">&#45;</text>
<text xml:space="preserve" text-anchor="start" x="499.25" y="-342" font-family="Helvetica,sans-Serif" font-size="10.00">m_failed_moves</text>
<text xml:space="preserve" text-anchor="start" x="484.81" y="-325.25" font-family="Helvetica,sans-Serif" font-size="10.00">&#45;</text>
<text xml:space="preserve" text-anchor="start" x="499.25" y="-325.25" font-family="Helvetica,sans-Serif" font-size="10.00">m_passes</text>
<text xml:space="preserve" text-anchor="start" x="484.81" y="-308.5" font-family="Helvetica,sans-Serif" font-size="10.00">&#45;</text>
<text xml:space="preserve" text-anchor="start" x="499.25" y="-308.5" font-family="Helvetica,sans-Serif" font-size="10.00">m_random</text>
<text xml:space="preserve" text-anchor="start" x="484.81" y="-291.75" font-family="Helvetica,sans-Serif" font-size="10.00">&#45;</text>
<text xml:space="preserve" text-anchor="start" x="499.25" y="-291.75" font-family="Helvetica,sans-Serif" font-size="10.00">m_successful_moves</text>
<text xml:space="preserve" text-anchor="start" x="482.56" y="-275" font-family="Helvetica,sans-Serif" font-size="10.00">+</text>
<text xml:space="preserve" text-anchor="start" x="499.25" y="-275" font-family="Helvetica,sans-Serif" font-size="10.00">MoveStrategy()</text>
<text xml:space="preserve" text-anchor="start" x="482.56" y="-258.25" font-family="Helvetica,sans-Serif" font-size="10.00">+</text>
<text xml:space="preserve" text-anchor="start" x="499.25" y="-258.25" font-family="Helvetica,sans-Serif" font-size="10.00">MoveStrategy()</text>
<text xml:space="preserve" text-anchor="start" x="482.56" y="-241.5" font-family="Helvetica,sans-Serif" font-size="10.00">+</text>
<text xml:space="preserve" text-anchor="start" x="499.25" y="-241.5" font-family="Helvetica,sans-Serif" font-size="10.00">MoveStrategy()</text>
<text xml:space="preserve" text-anchor="start" x="482.56" y="-224.75" font-family="Helvetica,sans-Serif" font-size="10.00">+</text>
<text xml:space="preserve" text-anchor="start" x="499.25" y="-224.75" font-family="Helvetica,sans-Serif" font-size="10.00">MoveStrategy()</text>
<text xml:space="preserve" text-anchor="start" x="482.56" y="-208" font-family="Helvetica,sans-Serif" font-size="10.00">+</text>
<text xml:space="preserve" text-anchor="start" x="499.25" y="-208" font-family="Helvetica,sans-Serif" font-size="10.00">checkpoint()</text>
<text xml:space="preserve" text-anchor="start" x="482.56" y="-191.25" font-family="Helvetica,sans-Serif" font-size="10.00">+</text>
<text xml:space="preserve" text-anchor="start" x="499.25" y="-191.25" font-family="Helvetica,sans-Serif" font-size="10.00">get_attempted()</text>
<text xml:space="preserve" text-anchor="start" x="482.56" y="-174.5" font-family="Helvetica,sans-Serif" font-size="10.00">+</text>
<text xml:space="preserve" text-anchor="start" x="499.25" y="-174.5" font-family="Helvetica,sans-Serif" font-size="10.00">get_failed()</text>
<text xml:space="preserve" text-anchor="start" x="482.56" y="-157.75" font-family="Helvetica,sans-Serif" font-size="10.00">+</text>
<text xml:space="preserve" text-anchor="start" x="499.25" y="-157.75" font-family="Helvetica,sans-Serif" font-size="10.00">get_succeeded()</text>
<text xml:space="preserve" text-anchor="start" x="482.56" y="-141" font-family="Helvetica,sans-Serif" font-size="10.00">+</text>
<text xml:space="preserve" text-anchor="start" x="499.25" y="-141" font-family="Helvetica,sans-Serif" font-size="10.00">operator()()</text>
<text xml:space="preserve" text-anchor="start" x="482.56" y="-124.25" font-family="Helvetica,sans-Serif" font-size="10.00">+</text>
<text xml:space="preserve" text-anchor="start" x="499.25" y="-124.25" font-family="Helvetica,sans-Serif" font-size="10.00">passes()</text>
<text xml:space="preserve" text-anchor="start" x="482.56" y="-107.5" font-family="Helvetica,sans-Serif" font-size="10.00">+</text>
<text xml:space="preserve" text-anchor="start" x="499.25" y="-107.5" font-family="Helvetica,sans-Serif" font-size="10.00">print_results()</text>
<text xml:space="preserve" text-anchor="start" x="482.56" y="-90.75" font-family="Helvetica,sans-Serif" font-size="10.00">+</text>
<text xml:space="preserve" text-anchor="start" x="499.25" y="-90.75" font-family="Helvetica,sans-Serif" font-size="10.00">seed()</text>
<polygon fill="#666666" stroke="#666666" points="474.12,-387.25 474.12,-387.25 616.38,-387.25 616.38,-387.25 474.12,-387.25"/>
<polygon fill="#666666" stroke="#666666" points="474.12,-286.75 474.12,-286.75 497.25,-286.75 497.25,-286.75 474.12,-286.75"/>
<polygon fill="#666666" stroke="#666666" points="497.25,-286.75 497.25,-286.75 616.38,-286.75 616.38,-286.75 497.25,-286.75"/>
<polygon fill="none" stroke="#666666" points="474.12,-83.75 474.12,-431.5 616.38,-431.5 616.38,-83.75 474.12,-83.75"/>
</a>
</g>
</g>
<!-- Node1&#45;&gt;Node5 -->
<g id="edge4_Node000001_Node000005" class="edge">
<title>Node1&#45;&gt;Node5</title>
<g id="a_edge4_Node000001_Node000005"><a xlink:title=" ">
<path fill="none" stroke="orange" d="M385.38,-627.35C440.16,-619.76 505.29,-606.56 523.25,-585.5 559.14,-543.42 570.94,-486.13 571.77,-431.27"/>
<polygon fill="orange" stroke="orange" points="385.18,-623.85 375.73,-628.64 386.11,-630.79 385.18,-623.85"/>
</a>
</g>
<text xml:space="preserve" text-anchor="start" x="556.77" y="-564.38" font-family="Helvetica,sans-Serif" font-size="10.00" fill="grey">&lt; Strategies::MOVE</text>
<text xml:space="preserve" text-anchor="start" x="556.77" y="-547.62" font-family="Helvetica,sans-Serif" font-size="10.00" fill="grey">  _ALWAYS, ManifoldType &gt;</text>
</g>
</g>
</svg>

<g id="navigator" transform="translate(0 0)" fill="#404254">
  <rect fill="#f2f5e9" fill-opacity="0.5" stroke="#606060" stroke-width=".5" x="0" y="0" width="60" height="60"/>
  <use id="zoomplus" xlink:href="#zoomPlus" x="17" y="9" onmousedown="handleZoom(evt,'in')"/>
  <use id="zoomminus" xlink:href="#zoomMin" x="42" y="9" onmousedown="handleZoom(evt,'out')"/>
  <use id="reset" xlink:href="#resetDef" x="30" y="36" onmousedown="handleReset()"/>
   <use id="arrowup" xlink:href="#arrowUp" x="0" y="0" onmousedown="handlePan(0,-1)"/>
  <use id="arrowright" xlink:href="#arrowRight" x="0" y="0" onmousedown="handlePan(1,0)"/>
  <use id="arrowdown" xlink:href="#arrowDown" x="0" y="0" onmousedown="handlePan(0,1)"/>
  <use id="arrowleft" xlink:href="#arrowLeft" x="0" y="0" onmousedown="handlePan(-1,0)"/>
</g>
<svg viewBox="0 0 15 15" width="100%" height="30px" preserveAspectRatio="xMaxYMin meet">
 <g id="arrow_out" transform="scale(0.3 0.3)">
  <a xlink:href="classcdt_1_1_move_strategy__inherit__graph_org.svg" target="_base">
   <rect id="button" ry="5" rx="5" y="6" x="6" height="38" width="38"
        fill="#f2f5e9" fill-opacity="0.5" stroke="#606060" stroke-width="1.0"/>
   <path id="arrow"
     d="M 11.500037,31.436501 C 11.940474,20.09759 22.043105,11.32322 32.158766,21.979434 L 37.068811,17.246167 C 37.068811,17.246167 37.088388,32 37.088388,32 L 22.160133,31.978069 C 22.160133,31.978069 26.997745,27.140456 26.997745,27.140456 C 18.528582,18.264221 13.291696,25.230495 11.500037,31.436501 z"
     style="fill:#404040;"/>
  </a>
 </g>
</svg>

<style type='text/css'>
<![CDATA[
[data-mouse-over-selected='false'] { opacity: 0.7; }
[data-mouse-over-selected='true']  { opacity: 1.0; }
]]>
</style>
<script type="application/ecmascript"><![CDATA[
document.addEventListener('DOMContentLoaded', (event) => {
  highlightEdges();
  highlightAdjacentNodes();
});
]]></script>
</svg>
