<?xml version="1.0" encoding="UTF-8" standalone="no"?>
<!DOCTYPE svg PUBLIC "-//W3C//DTD SVG 1.1//EN"
 "http://www.w3.org/Graphics/SVG/1.1/DTD/svg11.dtd">
<!-- Generated by graphviz version 2.40.1 (20161225.0304)
 -->
<!-- Title: FoliatedTriangulation&lt; 3 &gt; Pages: 1 -->
<svg width="798pt" height="810pt"
 viewBox="0.00 0.00 798.00 810.00" xmlns="http://www.w3.org/2000/svg" xmlns:xlink="http://www.w3.org/1999/xlink">
<g id="graph0" class="graph" transform="scale(1 1) rotate(0) translate(4 806)">
<title>FoliatedTriangulation&lt; 3 &gt;</title>
<polygon fill="#ffffff" stroke="transparent" points="-4,4 -4,-806 794,-806 794,4 -4,4"/>
<!-- Node1 -->
<g id="node1" class="node">
<title>Node1</title>
<polygon fill="#bfbfbf" stroke="#000000" points="276.5,-.5 276.5,-431.5 423.5,-431.5 423.5,-.5 276.5,-.5"/>
<text text-anchor="middle" x="350" y="-419.5" font-family="Helvetica,sans-Serif" font-size="10.00" fill="#000000">FoliatedTriangulation&lt; 3 &gt;</text>
<polyline fill="none" stroke="#000000" points="276.5,-412.5 423.5,-412.5 "/>
<text text-anchor="start" x="284.5" y="-400.5" font-family="Helvetica,sans-Serif" font-size="10.00" fill="#000000">&#45; m_foliation_spacing</text>
<text text-anchor="start" x="284.5" y="-389.5" font-family="Helvetica,sans-Serif" font-size="10.00" fill="#000000">&#45; m_initial_radius</text>
<text text-anchor="start" x="284.5" y="-378.5" font-family="Helvetica,sans-Serif" font-size="10.00" fill="#000000">&#45; m_max_timevalue</text>
<text text-anchor="start" x="284.5" y="-367.5" font-family="Helvetica,sans-Serif" font-size="10.00" fill="#000000">&#45; m_min_timevalue</text>
<text text-anchor="start" x="284.5" y="-356.5" font-family="Helvetica,sans-Serif" font-size="10.00" fill="#000000">&#45; m_triangulation</text>
<polyline fill="none" stroke="#000000" points="276.5,-349.5 423.5,-349.5 "/>
<text text-anchor="start" x="284.5" y="-337.5" font-family="Helvetica,sans-Serif" font-size="10.00" fill="#000000">+ FoliatedTriangulation()</text>
<text text-anchor="start" x="284.5" y="-326.5" font-family="Helvetica,sans-Serif" font-size="10.00" fill="#000000">+ FoliatedTriangulation()</text>
<text text-anchor="start" x="284.5" y="-315.5" font-family="Helvetica,sans-Serif" font-size="10.00" fill="#000000">+ FoliatedTriangulation()</text>
<text text-anchor="start" x="284.5" y="-304.5" font-family="Helvetica,sans-Serif" font-size="10.00" fill="#000000">+ FoliatedTriangulation()</text>
<text text-anchor="start" x="284.5" y="-293.5" font-family="Helvetica,sans-Serif" font-size="10.00" fill="#000000">+ FoliatedTriangulation()</text>
<text text-anchor="start" x="284.5" y="-282.5" font-family="Helvetica,sans-Serif" font-size="10.00" fill="#000000">+ FoliatedTriangulation()</text>
<text text-anchor="start" x="284.5" y="-271.5" font-family="Helvetica,sans-Serif" font-size="10.00" fill="#000000">+ ~FoliatedTriangulation()</text>
<text text-anchor="start" x="284.5" y="-260.5" font-family="Helvetica,sans-Serif" font-size="10.00" fill="#000000">+ check_all_cells()</text>
<text text-anchor="start" x="284.5" y="-249.5" font-family="Helvetica,sans-Serif" font-size="10.00" fill="#000000">+ check_all_vertices()</text>
<text text-anchor="start" x="284.5" y="-238.5" font-family="Helvetica,sans-Serif" font-size="10.00" fill="#000000">+ check_timeslices()</text>
<text text-anchor="start" x="284.5" y="-227.5" font-family="Helvetica,sans-Serif" font-size="10.00" fill="#000000">and 48 more...</text>
<text text-anchor="start" x="284.5" y="-216.5" font-family="Helvetica,sans-Serif" font-size="10.00" fill="#000000">+ check_cells()</text>
<text text-anchor="start" x="284.5" y="-205.5" font-family="Helvetica,sans-Serif" font-size="10.00" fill="#000000">+ classify_edge()</text>
<text text-anchor="start" x="284.5" y="-194.5" font-family="Helvetica,sans-Serif" font-size="10.00" fill="#000000">+ expected_cell_type()</text>
<text text-anchor="start" x="284.5" y="-183.5" font-family="Helvetica,sans-Serif" font-size="10.00" fill="#000000">+ filter_cells()</text>
<text text-anchor="start" x="284.5" y="-172.5" font-family="Helvetica,sans-Serif" font-size="10.00" fill="#000000">+ fix_cells()</text>
<text text-anchor="start" x="284.5" y="-161.5" font-family="Helvetica,sans-Serif" font-size="10.00" fill="#000000">+ is_cell_type_correct()</text>
<text text-anchor="start" x="284.5" y="-150.5" font-family="Helvetica,sans-Serif" font-size="10.00" fill="#000000">+ print_cells()</text>
<text text-anchor="start" x="284.5" y="-139.5" font-family="Helvetica,sans-Serif" font-size="10.00" fill="#000000">+ squared_radius()</text>
<text text-anchor="start" x="284.5" y="-128.5" font-family="Helvetica,sans-Serif" font-size="10.00" fill="#000000">&#45; classify_cells()</text>
<text text-anchor="start" x="284.5" y="-117.5" font-family="Helvetica,sans-Serif" font-size="10.00" fill="#000000">&#45; collect_cells()</text>
<text text-anchor="start" x="284.5" y="-106.5" font-family="Helvetica,sans-Serif" font-size="10.00" fill="#000000">&#45; collect_edges()</text>
<text text-anchor="start" x="284.5" y="-95.5" font-family="Helvetica,sans-Serif" font-size="10.00" fill="#000000">&#45; collect_faces()</text>
<text text-anchor="start" x="284.5" y="-84.5" font-family="Helvetica,sans-Serif" font-size="10.00" fill="#000000">&#45; collect_vertices()</text>
<text text-anchor="start" x="284.5" y="-73.5" font-family="Helvetica,sans-Serif" font-size="10.00" fill="#000000">&#45; fix_timeslices()</text>
<text text-anchor="start" x="284.5" y="-62.5" font-family="Helvetica,sans-Serif" font-size="10.00" fill="#000000">&#45; make_triangulation()</text>
<text text-anchor="start" x="284.5" y="-51.5" font-family="Helvetica,sans-Serif" font-size="10.00" fill="#000000">&#45; filter_edges()</text>
<text text-anchor="start" x="284.5" y="-40.5" font-family="Helvetica,sans-Serif" font-size="10.00" fill="#000000">&#45; find_max_timevalue()</text>
<text text-anchor="start" x="284.5" y="-29.5" font-family="Helvetica,sans-Serif" font-size="10.00" fill="#000000">&#45; find_min_timevalue()</text>
<text text-anchor="start" x="284.5" y="-18.5" font-family="Helvetica,sans-Serif" font-size="10.00" fill="#000000">&#45; make_foliated_sphere()</text>
<text text-anchor="start" x="284.5" y="-7.5" font-family="Helvetica,sans-Serif" font-size="10.00" fill="#000000">&#45; volume_per_timeslice()</text>
</g>
<!-- Node2 -->
<g id="node2" class="node">
<title>Node2</title>
<polygon fill="#ffffff" stroke="#bfbfbf" points="0,-512.5 0,-591.5 120,-591.5 120,-512.5 0,-512.5"/>
<text text-anchor="start" x="8" y="-579.5" font-family="Helvetica,sans-Serif" font-size="10.00" fill="#000000">std::multimap&lt; Int</text>
<text text-anchor="middle" x="60" y="-568.5" font-family="Helvetica,sans-Serif" font-size="10.00" fill="#000000">_precision, Facet_3 &gt;</text>
<polyline fill="none" stroke="#bfbfbf" points="0,-561.5 120,-561.5 "/>
<text text-anchor="start" x="8" y="-549.5" font-family="Helvetica,sans-Serif" font-size="10.00" fill="#000000">+ elements</text>
<text text-anchor="start" x="8" y="-538.5" font-family="Helvetica,sans-Serif" font-size="10.00" fill="#000000">+ keys</text>
<polyline fill="none" stroke="#bfbfbf" points="0,-531.5 120,-531.5 "/>
<text text-anchor="middle" x="60" y="-519.5" font-family="Helvetica,sans-Serif" font-size="10.00" fill="#000000"> </text>
</g>
<!-- Node2&#45;&gt;Node1 -->
<g id="edge1" class="edge">
<title>Node2&#45;&gt;Node1</title>
<path fill="none" stroke="#404040" d="M78.5515,-512.1506C88.4564,-492.6206 101.5713,-469.2285 116,-450 160.5429,-390.6396 219.7128,-331.6056 267.4075,-287.6824"/>
<polygon fill="none" stroke="#404040" points="267.6257,-287.4828 269.3522,-280.4814 276.4791,-279.3823 274.7526,-286.3837 267.6257,-287.4828"/>
<text text-anchor="middle" x="168" y="-469.5" font-family="Helvetica,sans-Serif" font-size="10.00" fill="#000000"> &#45;m_spacelike_facets</text>
</g>
<!-- Node3 -->
<g id="node3" class="node">
<title>Node3</title>
<g id="a_node3"><a xlink:title="STL class. ">
<polygon fill="#ffffff" stroke="#bfbfbf" points="80,-639.5 80,-696.5 206,-696.5 206,-639.5 80,-639.5"/>
<text text-anchor="middle" x="143" y="-684.5" font-family="Helvetica,sans-Serif" font-size="10.00" fill="#000000">std::multimap&lt; K, T &gt;</text>
<polyline fill="none" stroke="#bfbfbf" points="80,-677.5 206,-677.5 "/>
<text text-anchor="start" x="88" y="-665.5" font-family="Helvetica,sans-Serif" font-size="10.00" fill="#000000">+ keys</text>
<polyline fill="none" stroke="#bfbfbf" points="80,-658.5 206,-658.5 "/>
<text text-anchor="middle" x="143" y="-646.5" font-family="Helvetica,sans-Serif" font-size="10.00" fill="#000000"> </text>
</a>
</g>
</g>
<!-- Node3&#45;&gt;Node2 -->
<g id="edge2" class="edge">
<title>Node3&#45;&gt;Node2</title>
<path fill="none" stroke="#ffa500" d="M74.999,-632.422C71.5997,-628.9129 68.547,-625.1103 66,-621 60.6164,-612.3121 58.1464,-601.7866 57.2486,-591.6016"/>
<polygon fill="#ffa500" stroke="#ffa500" points="72.6759,-635.0404 82.4125,-639.2177 77.406,-629.8804 72.6759,-635.0404"/>
<text text-anchor="middle" x="131.5" y="-613" font-family="Helvetica,sans-Serif" font-size="10.00" fill="#000000"> &lt; Int_precision, Facet_3 &gt;</text>
</g>
<!-- Node4 -->
<g id="node4" class="node">
<title>Node4</title>
<polygon fill="#ffffff" stroke="#bfbfbf" points="192.5,-744.5 192.5,-801.5 221.5,-801.5 221.5,-744.5 192.5,-744.5"/>
<text text-anchor="middle" x="207" y="-789.5" font-family="Helvetica,sans-Serif" font-size="10.00" fill="#000000">T</text>
<polyline fill="none" stroke="#bfbfbf" points="192.5,-782.5 221.5,-782.5 "/>
<text text-anchor="middle" x="207" y="-770.5" font-family="Helvetica,sans-Serif" font-size="10.00" fill="#000000"> </text>
<polyline fill="none" stroke="#bfbfbf" points="192.5,-763.5 221.5,-763.5 "/>
<text text-anchor="middle" x="207" y="-751.5" font-family="Helvetica,sans-Serif" font-size="10.00" fill="#000000"> </text>
</g>
<!-- Node4&#45;&gt;Node3 -->
<g id="edge3" class="edge">
<title>Node4&#45;&gt;Node3</title>
<path fill="none" stroke="#404040" d="M192.4774,-749.1739C184.8951,-736.7341 175.4242,-721.196 166.8042,-707.0537"/>
<polygon fill="none" stroke="#404040" points="166.6691,-706.8321 160.1308,-703.7907 160.4235,-696.5855 166.9619,-699.627 166.6691,-706.8321"/>
<text text-anchor="middle" x="206" y="-718" font-family="Helvetica,sans-Serif" font-size="10.00" fill="#000000"> +elements</text>
</g>
<!-- Node6 -->
<g id="node6" class="node">
<title>Node6</title>
<g id="a_node6"><a xlink:title="STL class. ">
<polygon fill="#ffffff" stroke="#bfbfbf" points="301.5,-639.5 301.5,-696.5 398.5,-696.5 398.5,-639.5 301.5,-639.5"/>
<text text-anchor="middle" x="350" y="-684.5" font-family="Helvetica,sans-Serif" font-size="10.00" fill="#000000">std::vector&lt; T &gt;</text>
<polyline fill="none" stroke="#bfbfbf" points="301.5,-677.5 398.5,-677.5 "/>
<text text-anchor="middle" x="350" y="-665.5" font-family="Helvetica,sans-Serif" font-size="10.00" fill="#000000"> </text>
<polyline fill="none" stroke="#bfbfbf" points="301.5,-658.5 398.5,-658.5 "/>
<text text-anchor="middle" x="350" y="-646.5" font-family="Helvetica,sans-Serif" font-size="10.00" fill="#000000"> </text>
</a>
</g>
</g>
<!-- Node4&#45;&gt;Node6 -->
<g id="edge6" class="edge">
<title>Node4&#45;&gt;Node6</title>
<path fill="none" stroke="#404040" d="M221.7649,-762.1586C240.3865,-748.4854 273.3375,-724.2906 301.174,-703.8512"/>
<polygon fill="none" stroke="#404040" points="301.4896,-703.6196 303.9585,-696.8442 311.1622,-696.5173 308.6933,-703.2926 301.4896,-703.6196"/>
<text text-anchor="middle" x="312" y="-718" font-family="Helvetica,sans-Serif" font-size="10.00" fill="#000000"> +elements</text>
</g>
<!-- Node5 -->
<g id="node5" class="node">
<title>Node5</title>
<polygon fill="#ffffff" stroke="#bfbfbf" points="138.5,-518 138.5,-586 249.5,-586 249.5,-518 138.5,-518"/>
<text text-anchor="start" x="146.5" y="-574" font-family="Helvetica,sans-Serif" font-size="10.00" fill="#000000">std::vector&lt; Vertex</text>
<text text-anchor="middle" x="194" y="-563" font-family="Helvetica,sans-Serif" font-size="10.00" fill="#000000">_handle_3 &gt;</text>
<polyline fill="none" stroke="#bfbfbf" points="138.5,-556 249.5,-556 "/>
<text text-anchor="start" x="146.5" y="-544" font-family="Helvetica,sans-Serif" font-size="10.00" fill="#000000">+ elements</text>
<polyline fill="none" stroke="#bfbfbf" points="138.5,-537 249.5,-537 "/>
<text text-anchor="middle" x="194" y="-525" font-family="Helvetica,sans-Serif" font-size="10.00" fill="#000000"> </text>
</g>
<!-- Node5&#45;&gt;Node1 -->
<g id="edge4" class="edge">
<title>Node5&#45;&gt;Node1</title>
<path fill="none" stroke="#404040" d="M209.8166,-517.9335C224.6105,-486.0697 247.8732,-435.9654 271.2282,-385.6623"/>
<polygon fill="none" stroke="#404040" points="271.314,-385.4773 270.2127,-378.3508 276.3674,-374.5932 277.4688,-381.7197 271.314,-385.4773"/>
<text text-anchor="middle" x="267" y="-469.5" font-family="Helvetica,sans-Serif" font-size="10.00" fill="#000000"> &#45;m_points</text>
</g>
<!-- Node6&#45;&gt;Node5 -->
<g id="edge5" class="edge">
<title>Node6&#45;&gt;Node5</title>
<path fill="none" stroke="#ffa500" d="M292.0636,-650.9335C273.7888,-643.6833 254.3762,-633.8651 239,-621 227.7023,-611.5473 218.2111,-598.5313 210.9016,-586.3496"/>
<polygon fill="#ffa500" stroke="#ffa500" points="290.8973,-654.2343 301.4889,-654.4933 293.3706,-647.6858 290.8973,-654.2343"/>
<text text-anchor="middle" x="292.5" y="-613" font-family="Helvetica,sans-Serif" font-size="10.00" fill="#000000"> &lt; Vertex_handle_3 &gt;</text>
</g>
<!-- Node7 -->
<g id="node7" class="node">
<title>Node7</title>
<polygon fill="#ffffff" stroke="#bfbfbf" points="268,-523.5 268,-580.5 432,-580.5 432,-523.5 268,-523.5"/>
<text text-anchor="middle" x="350" y="-568.5" font-family="Helvetica,sans-Serif" font-size="10.00" fill="#000000">std::vector&lt; Edge_handle_3 &gt;</text>
<polyline fill="none" stroke="#bfbfbf" points="268,-561.5 432,-561.5 "/>
<text text-anchor="start" x="276" y="-549.5" font-family="Helvetica,sans-Serif" font-size="10.00" fill="#000000">+ elements</text>
<polyline fill="none" stroke="#bfbfbf" points="268,-542.5 432,-542.5 "/>
<text text-anchor="middle" x="350" y="-530.5" font-family="Helvetica,sans-Serif" font-size="10.00" fill="#000000"> </text>
</g>
<!-- Node6&#45;&gt;Node7 -->
<g id="edge8" class="edge">
<title>Node6&#45;&gt;Node7</title>
<path fill="none" stroke="#ffa500" d="M350,-629.2769C350,-613.4213 350,-595.397 350,-580.7463"/>
<polygon fill="#ffa500" stroke="#ffa500" points="346.5001,-629.3258 350,-639.3258 353.5001,-629.3259 346.5001,-629.3258"/>
<text text-anchor="middle" x="400" y="-613" font-family="Helvetica,sans-Serif" font-size="10.00" fill="#000000"> &lt; Edge_handle_3 &gt;</text>
</g>
<!-- Node8 -->
<g id="node8" class="node">
<title>Node8</title>
<polygon fill="#ffffff" stroke="#bfbfbf" points="450.5,-523.5 450.5,-580.5 609.5,-580.5 609.5,-523.5 450.5,-523.5"/>
<text text-anchor="middle" x="530" y="-568.5" font-family="Helvetica,sans-Serif" font-size="10.00" fill="#000000">std::vector&lt; Cell_handle_3 &gt;</text>
<polyline fill="none" stroke="#bfbfbf" points="450.5,-561.5 609.5,-561.5 "/>
<text text-anchor="start" x="458.5" y="-549.5" font-family="Helvetica,sans-Serif" font-size="10.00" fill="#000000">+ elements</text>
<polyline fill="none" stroke="#bfbfbf" points="450.5,-542.5 609.5,-542.5 "/>
<text text-anchor="middle" x="530" y="-530.5" font-family="Helvetica,sans-Serif" font-size="10.00" fill="#000000"> </text>
</g>
<!-- Node6&#45;&gt;Node8 -->
<g id="edge10" class="edge">
<title>Node6&#45;&gt;Node8</title>
<path fill="none" stroke="#ffa500" d="M408.2098,-645.5459C423.6114,-638.5848 439.8708,-630.2733 454,-621 471.4317,-609.5592 488.8044,-594.1635 502.531,-580.8176"/>
<polygon fill="#ffa500" stroke="#ffa500" points="406.503,-642.473 398.7578,-649.7022 409.3207,-648.8808 406.503,-642.473"/>
<text text-anchor="middle" x="515" y="-613" font-family="Helvetica,sans-Serif" font-size="10.00" fill="#000000"> &lt; Cell_handle_3 &gt;</text>
</g>
<!-- Node9 -->
<g id="node9" class="node">
<title>Node9</title>
<polygon fill="#ffffff" stroke="#bfbfbf" points="628,-523.5 628,-580.5 790,-580.5 790,-523.5 628,-523.5"/>
<text text-anchor="middle" x="709" y="-568.5" font-family="Helvetica,sans-Serif" font-size="10.00" fill="#000000">std::vector&lt; Face_handle_3 &gt;</text>
<polyline fill="none" stroke="#bfbfbf" points="628,-561.5 790,-561.5 "/>
<text text-anchor="start" x="636" y="-549.5" font-family="Helvetica,sans-Serif" font-size="10.00" fill="#000000">+ elements</text>
<polyline fill="none" stroke="#bfbfbf" points="628,-542.5 790,-542.5 "/>
<text text-anchor="middle" x="709" y="-530.5" font-family="Helvetica,sans-Serif" font-size="10.00" fill="#000000"> </text>
</g>
<!-- Node6&#45;&gt;Node9 -->
<g id="edge12" class="edge">
<title>Node6&#45;&gt;Node9</title>
<path fill="none" stroke="#ffa500" d="M408.466,-659.118C452.5105,-651.511 513.9939,-638.9244 566,-621 597.2731,-610.2215 630.6486,-594.3867 657.2839,-580.6042"/>
<polygon fill="#ffa500" stroke="#ffa500" points="407.7788,-655.6844 398.5036,-660.8052 408.9477,-662.5862 407.7788,-655.6844"/>
<text text-anchor="middle" x="643.5" y="-613" font-family="Helvetica,sans-Serif" font-size="10.00" fill="#000000"> &lt; Face_handle_3 &gt;</text>
</g>
<!-- Node7&#45;&gt;Node1 -->
<g id="edge7" class="edge">
<title>Node7&#45;&gt;Node1</title>
<path fill="none" stroke="#404040" d="M350,-523.3528C350,-503.6518 350,-475.4356 350,-443.9917"/>
<polygon fill="none" stroke="#404040" points="350.0001,-443.7935 346,-437.7935 350,-431.7935 354,-437.7935 350.0001,-443.7935"/>
<text text-anchor="middle" x="400" y="-480.5" font-family="Helvetica,sans-Serif" font-size="10.00" fill="#000000"> &#45;m_edges</text>
<text text-anchor="middle" x="400" y="-469.5" font-family="Helvetica,sans-Serif" font-size="10.00" fill="#000000">&#45;m_timelike_edges</text>
<text text-anchor="middle" x="400" y="-458.5" font-family="Helvetica,sans-Serif" font-size="10.00" fill="#000000">&#45;m_spacelike_edges</text>
</g>
<!-- Node8&#45;&gt;Node1 -->
<g id="edge9" class="edge">
<title>Node8&#45;&gt;Node1</title>
<path fill="none" stroke="#404040" d="M514.6533,-523.3528C495.5652,-487.7217 461.5559,-424.2376 429.3822,-364.1802"/>
<polygon fill="none" stroke="#404040" points="429.2772,-363.984 422.9179,-360.584 423.6105,-353.4062 429.9698,-356.8062 429.2772,-363.984"/>
<text text-anchor="middle" x="530" y="-486" font-family="Helvetica,sans-Serif" font-size="10.00" fill="#000000"> &#45;m_cells</text>
<text text-anchor="middle" x="530" y="-475" font-family="Helvetica,sans-Serif" font-size="10.00" fill="#000000">&#45;m_one_three</text>
<text text-anchor="middle" x="530" y="-464" font-family="Helvetica,sans-Serif" font-size="10.00" fill="#000000">&#45;m_three_one</text>
<text text-anchor="middle" x="530" y="-453" font-family="Helvetica,sans-Serif" font-size="10.00" fill="#000000">&#45;m_two_two</text>
</g>
<!-- Node9&#45;&gt;Node1 -->
<g id="edge11" class="edge">
<title>Node9&#45;&gt;Node1</title>
<path fill="none" stroke="#404040" d="M678.3919,-523.3528C624.5126,-472.9254 511.0261,-366.7096 432.6705,-293.3741"/>
<polygon fill="none" stroke="#404040" points="432.5345,-293.2467 425.4205,-292.0672 423.7731,-285.0467 430.8871,-286.2263 432.5345,-293.2467"/>
<text text-anchor="middle" x="665.5" y="-469.5" font-family="Helvetica,sans-Serif" font-size="10.00" fill="#000000"> &#45;m_faces</text>
</g>
</g>
</svg>
