<?xml version="1.0" encoding="UTF-8" standalone="no"?>
<!DOCTYPE svg PUBLIC "-//W3C//DTD SVG 1.1//EN"
 "http://www.w3.org/Graphics/SVG/1.1/DTD/svg11.dtd">
<!-- Generated by graphviz version 2.43.0 (0)
 -->
<!-- Title: A Pages: 1 -->
<svg width="124pt" height="254pt"
 viewBox="0.00 0.00 123.50 254.00" xmlns="http://www.w3.org/2000/svg" xmlns:xlink="http://www.w3.org/1999/xlink">
<g id="graph0" class="graph" transform="scale(1 1) rotate(0) translate(4 250)">
<title>A</title>
<!-- Node1 -->
<g id="node1" class="node">
<title>Node1</title>
<g id="a_node1"><a xlink:title=" ">
<polygon fill="#999999" stroke="#666666" points="27,-188.5 27,-245.5 88,-245.5 88,-188.5 27,-188.5"/>
<text text-anchor="middle" x="57.5" y="-233.5" font-family="Helvetica,sans-Serif" font-size="10.00">A</text>
<polyline fill="none" stroke="#666666" points="27,-226.5 88,-226.5 "/>
<text text-anchor="start" x="35" y="-214.5" font-family="Helvetica,sans-Serif" font-size="10.00">+ m_self</text>
<polyline fill="none" stroke="#666666" points="27,-207.5 88,-207.5 "/>
<text text-anchor="middle" x="57.5" y="-195.5" font-family="Helvetica,sans-Serif" font-size="10.00"> </text>
</a>
</g>
</g>
<!-- Node2 -->
<g id="node2" class="node">
<title>Node2</title>
<g id="a_node2"><a xlink:href="class_c.html" target="_top" xlink:title=" ">
<polygon fill="white" stroke="#bfbfbf" points="0,-94.5 0,-151.5 49,-151.5 49,-94.5 0,-94.5"/>
<text text-anchor="middle" x="24.5" y="-139.5" font-family="Helvetica,sans-Serif" font-size="10.00">C</text>
<polyline fill="none" stroke="#bfbfbf" points="0,-132.5 49,-132.5 "/>
<text text-anchor="start" x="8" y="-120.5" font-family="Helvetica,sans-Serif" font-size="10.00">+ m_d</text>
<polyline fill="none" stroke="#bfbfbf" points="0,-113.5 49,-113.5 "/>
<text text-anchor="middle" x="24.5" y="-101.5" font-family="Helvetica,sans-Serif" font-size="10.00"> </text>
</a>
</g>
</g>
<!-- Node1&#45;&gt;Node2 -->
<g id="edge1" class="edge">
<title>Node1&#45;&gt;Node2</title>
<path fill="none" stroke="#63b8ff" d="M44.15,-178.79C40.89,-169.7 37.46,-160.13 34.39,-151.58"/>
<polygon fill="none" stroke="#63b8ff" points="40.93,-180.17 47.6,-188.4 47.52,-177.8 40.93,-180.17"/>
</g>
<!-- Node3 -->
<g id="node3" class="node">
<title>Node3</title>
<g id="a_node3"><a xlink:href="class_d.html" target="_top" xlink:title=" ">
<polygon fill="white" stroke="#bfbfbf" points="67.5,-94.5 67.5,-151.5 115.5,-151.5 115.5,-94.5 67.5,-94.5"/>
<text text-anchor="middle" x="91.5" y="-139.5" font-family="Helvetica,sans-Serif" font-size="10.00">D</text>
<polyline fill="none" stroke="#bfbfbf" points="67.5,-132.5 115.5,-132.5 "/>
<text text-anchor="start" x="75.5" y="-120.5" font-family="Helvetica,sans-Serif" font-size="10.00">+ m_c</text>
<polyline fill="none" stroke="#bfbfbf" points="67.5,-113.5 115.5,-113.5 "/>
<text text-anchor="middle" x="91.5" y="-101.5" font-family="Helvetica,sans-Serif" font-size="10.00"> </text>
</a>
</g>
</g>
<!-- Node1&#45;&gt;Node3 -->
<g id="edge2" class="edge">
<title>Node1&#45;&gt;Node3</title>
<path fill="none" stroke="darkgreen" d="M71.25,-178.79C74.61,-169.7 78.15,-160.13 81.31,-151.58"/>
<polygon fill="none" stroke="darkgreen" points="67.88,-177.8 67.7,-188.4 74.45,-180.23 67.88,-177.8"/>
</g>
<!-- Node4 -->
<g id="node4" class="node">
<title>Node4</title>
<g id="a_node4"><a xlink:href="class_e.html" target="_top" xlink:title=" ">
<polygon fill="white" stroke="#bfbfbf" points="77,-0.5 77,-57.5 106,-57.5 106,-0.5 77,-0.5"/>
<text text-anchor="middle" x="91.5" y="-45.5" font-family="Helvetica,sans-Serif" font-size="10.00">E</text>
<polyline fill="none" stroke="#bfbfbf" points="77,-38.5 106,-38.5 "/>
<text text-anchor="middle" x="91.5" y="-26.5" font-family="Helvetica,sans-Serif" font-size="10.00"> </text>
<polyline fill="none" stroke="#bfbfbf" points="77,-19.5 106,-19.5 "/>
<text text-anchor="middle" x="91.5" y="-7.5" font-family="Helvetica,sans-Serif" font-size="10.00"> </text>
</a>
</g>
</g>
<!-- Node3&#45;&gt;Node4 -->
<g id="edge3" class="edge">
<title>Node3&#45;&gt;Node4</title>
<path fill="none" stroke="#63b8ff" d="M91.5,-84.21C91.5,-75.29 91.5,-65.95 91.5,-57.58"/>
<polygon fill="none" stroke="#63b8ff" points="88,-84.4 91.5,-94.4 95,-84.4 88,-84.4"/>
</g>
</g>
</svg>
