<?xml version="1.0" encoding="UTF-8" standalone="no"?>
<!DOCTYPE svg PUBLIC "-//W3C//DTD SVG 1.1//EN"
 "http://www.w3.org/Graphics/SVG/1.1/DTD/svg11.dtd">
<!-- Generated by graphviz version 15.1.0 (20260618.0150)
 -->
<!-- Title: MoveStrategy&lt; strategies, ManifoldType &gt; Pages: 1 -->
<!--zoomable 666 -->

<svg id="main" version="1.1" xmlns="http://www.w3.org/2000/svg" xmlns:xlink="http://www.w3.org/1999/xlink" xml:space="preserve" onload="init(evt)">

<style type="text/css"><![CDATA[
.node, .edge {opacity: 0.7;}
.node.selected, .edge.selected {opacity: 1;}
.edge:hover path { stroke: red; }
.edge:hover polygon { stroke: red; fill: red; }
]]></style>

<defs>
  <circle id="rim" cx="0" cy="0" r="7"/>
  <circle id="rim2" cx="0" cy="0" r="3.5"/>
  <g id="zoomPlus">
    <use xlink:href="#rim" fill="#404040"><set attributeName="fill" to="#808080" begin="zoomplus.mouseover" end="zoomplus.mouseout"/></use>
    <path d="M-4,0h8M0,-4v8" fill="none" stroke="white" stroke-width="1.5" pointer-events="none"/>
  </g>
  <g id="zoomMin">
    <use xlink:href="#rim" fill="#404040"><set attributeName="fill" to="#808080" begin="zoomminus.mouseover" end="zoomminus.mouseout"/></use>
    <path d="M-4,0h8" fill="none" stroke="white" stroke-width="1.5" pointer-events="none"/>
  </g>
  <g id="arrowUp" transform="translate(30 24)">
    <use xlink:href="#rim"/>
    <path pointer-events="none" fill="none" stroke="white" stroke-width="1.5" d="M0,-3.0v7 M-2.5,-0.5L0,-3.0L2.5,-0.5"/>
  </g>
  <g id="arrowRight" transform="rotate(90) translate(36 -43)">
    <use xlink:href="#rim"/>
    <path pointer-events="none" fill="none" stroke="white" stroke-width="1.5" d="M0,-3.0v7 M-2.5,-0.5L0,-3.0L2.5,-0.5"/>
  </g>
  <g id="arrowDown" transform="rotate(180) translate(-30 -48)">
    <use xlink:href="#rim"/>
    <path pointer-events="none" fill="none" stroke="white" stroke-width="1.5" d="M0,-3.0v7 M-2.5,-0.5L0,-3.0L2.5,-0.5"/>
  </g>
  <g id="arrowLeft" transform="rotate(270) translate(-36 17)">
    <use xlink:href="#rim"/>
    <path pointer-events="none" fill="none" stroke="white" stroke-width="1.5" d="M0,-3.0v7 M-2.5,-0.5L0,-3.0L2.5,-0.5"/>
  </g>
  <g id="resetDef">
    <use xlink:href="#rim2" fill="#404040"><set attributeName="fill" to="#808080" begin="reset.mouseover" end="reset.mouseout"/></use>
  </g>
</defs>
<script type="application/ecmascript">
var viewWidth = 691;
var viewHeight = 666;
var sectionId = 'dynsection-0';
</script>
<script type="application/ecmascript" xlink:href="svg.min.js"/>
<svg id="graph" class="graph">
<g id="viewport">
<title>MoveStrategy&lt; strategies, ManifoldType &gt;</title>
<!-- Node1 -->
<g id="Node000001" class="node">
<title>Node1</title>
<g id="a_Node000001"><a xlink:title="Select a move algorithm.">
<polygon fill="#999999" stroke="none" points="382.12,-657.75 242.88,-657.75 242.88,-590.75 382.12,-590.75 382.12,-657.75"/>
<text xml:space="preserve" text-anchor="start" x="246.88" y="-644" font-family="Helvetica,sans-Serif" font-size="10.00">MoveStrategy&lt; strategies,</text>
<text xml:space="preserve" text-anchor="start" x="272.75" y="-631.25" font-family="Helvetica,sans-Serif" font-size="10.00"> ManifoldType &gt;</text>
<text xml:space="preserve" text-anchor="start" x="311" y="-614.5" font-family="Helvetica,sans-Serif" font-size="10.00"> </text>
<text xml:space="preserve" text-anchor="start" x="311" y="-597.75" font-family="Helvetica,sans-Serif" font-size="10.00"> </text>
<polygon fill="#666666" stroke="#666666" points="242.88,-626.25 242.88,-626.25 382.12,-626.25 382.12,-626.25 242.88,-626.25"/>
<polygon fill="#666666" stroke="#666666" points="242.88,-609.5 242.88,-609.5 382.12,-609.5 382.12,-609.5 242.88,-609.5"/>
<polygon fill="none" stroke="#666666" points="242.88,-590.75 242.88,-657.75 382.12,-657.75 382.12,-590.75 242.88,-590.75"/>
</a>
</g>
</g>
<!-- Node2 -->
<g id="Node000002" class="node">
<title>Node2</title>
<g id="a_Node000002"><a xlink:href="class_move_strategy.html" target="_top" xlink:title=" ">
<polygon fill="white" stroke="none" points="137,-291.12 0,-291.12 0,-211.38 137,-211.38 137,-291.12"/>
<text xml:space="preserve" text-anchor="start" x="4" y="-277.38" font-family="Helvetica,sans-Serif" font-size="10.00">MoveStrategy&lt; Strategies</text>
<text xml:space="preserve" text-anchor="start" x="4" y="-264.62" font-family="Helvetica,sans-Serif" font-size="10.00">::METROPOLIS, manifolds</text>
<text xml:space="preserve" text-anchor="start" x="32.88" y="-251.88" font-family="Helvetica,sans-Serif" font-size="10.00">::Manifold_3 &gt;</text>
<text xml:space="preserve" text-anchor="start" x="67" y="-235.12" font-family="Helvetica,sans-Serif" font-size="10.00"> </text>
<text xml:space="preserve" text-anchor="start" x="67" y="-218.38" font-family="Helvetica,sans-Serif" font-size="10.00"> </text>
<polygon fill="#666666" stroke="#666666" points="0,-246.88 0,-246.88 137,-246.88 137,-246.88 0,-246.88"/>
<polygon fill="#666666" stroke="#666666" points="0,-230.12 0,-230.12 137,-230.12 137,-230.12 0,-230.12"/>
<polygon fill="none" stroke="#666666" points="0,-211.38 0,-291.12 137,-291.12 137,-211.38 0,-211.38"/>
</a>
</g>
</g>
<!-- Node1&#45;&gt;Node2 -->
<g id="edge1_Node000001_Node000002" class="edge">
<title>Node1&#45;&gt;Node2</title>
<g id="a_edge1_Node000001_Node000002"><a xlink:title=" ">
<path fill="none" stroke="orange" d="M231.93,-617.42C168.79,-610.98 88.3,-597.98 67.75,-572.75 1.68,-491.65 33.05,-356.82 54.38,-290.91"/>
<polygon fill="orange" stroke="orange" points="231.3,-620.88 241.59,-618.36 231.98,-613.91 231.3,-620.88"/>
</a>
</g>
<text xml:space="preserve" text-anchor="start" x="70.75" y="-551.62" font-family="Helvetica,sans-Serif" font-size="10.00" fill="grey">&lt; Strategies::METROPOLIS,</text>
<text xml:space="preserve" text-anchor="start" x="70.75" y="-534.88" font-family="Helvetica,sans-Serif" font-size="10.00" fill="grey">   manifolds::Manifold_3 &gt;</text>
</g>
<!-- Node3 -->
<g id="Node000003" class="node">
<title>Node3</title>
<g id="a_Node000003"><a xlink:href="class_move_strategy.html" target="_top" xlink:title=" ">
<polygon fill="white" stroke="none" points="298.25,-291.12 156.75,-291.12 156.75,-211.38 298.25,-211.38 298.25,-291.12"/>
<text xml:space="preserve" text-anchor="start" x="160.75" y="-277.38" font-family="Helvetica,sans-Serif" font-size="10.00">MoveStrategy&lt; Strategies</text>
<text xml:space="preserve" text-anchor="start" x="160.75" y="-264.62" font-family="Helvetica,sans-Serif" font-size="10.00">::MOVE_ALWAYS, manifolds</text>
<text xml:space="preserve" text-anchor="start" x="191.88" y="-251.88" font-family="Helvetica,sans-Serif" font-size="10.00">::Manifold_3 &gt;</text>
<text xml:space="preserve" text-anchor="start" x="226" y="-235.12" font-family="Helvetica,sans-Serif" font-size="10.00"> </text>
<text xml:space="preserve" text-anchor="start" x="226" y="-218.38" font-family="Helvetica,sans-Serif" font-size="10.00"> </text>
<polygon fill="#666666" stroke="#666666" points="156.75,-246.88 156.75,-246.88 298.25,-246.88 298.25,-246.88 156.75,-246.88"/>
<polygon fill="#666666" stroke="#666666" points="156.75,-230.12 156.75,-230.12 298.25,-230.12 298.25,-230.12 156.75,-230.12"/>
<polygon fill="none" stroke="#666666" points="156.75,-211.38 156.75,-291.12 298.25,-291.12 298.25,-211.38 156.75,-211.38"/>
</a>
</g>
</g>
<!-- Node1&#45;&gt;Node3 -->
<g id="edge2_Node000001_Node000003" class="edge">
<title>Node1&#45;&gt;Node3</title>
<g id="a_edge2_Node000001_Node000003"><a xlink:title=" ">
<path fill="none" stroke="orange" d="M237.47,-583C234.75,-579.8 232.31,-576.39 230.25,-572.75 179.4,-482.76 200.89,-354.63 216.52,-291.08"/>
<polygon fill="orange" stroke="orange" points="234.72,-585.19 244.23,-589.86 239.71,-580.28 234.72,-585.19"/>
</a>
</g>
<text xml:space="preserve" text-anchor="start" x="233.25" y="-560" font-family="Helvetica,sans-Serif" font-size="10.00" fill="grey">&lt; Strategies::MOVE</text>
<text xml:space="preserve" text-anchor="start" x="233.25" y="-543.25" font-family="Helvetica,sans-Serif" font-size="10.00" fill="grey">  _ALWAYS, manifolds::</text>
<text xml:space="preserve" text-anchor="start" x="233.25" y="-526.5" font-family="Helvetica,sans-Serif" font-size="10.00" fill="grey">  Manifold_3 &gt;</text>
</g>
<!-- Node4 -->
<g id="Node000004" class="node">
<title>Node4</title>
<g id="a_Node000004"><a xlink:href="class_move_strategy_3_01_strategies_1_1_m_e_t_r_o_p_o_l_i_s_00_01_manifold_type_01_4.html" target="_top" xlink:title="Metropolis&#45;Hastings algorithm strategy.">
<polygon fill="white" stroke="none" points="476.25,-502.5 316.75,-502.5 316.75,0 476.25,0 476.25,-502.5"/>
<text xml:space="preserve" text-anchor="start" x="320.75" y="-488.75" font-family="Helvetica,sans-Serif" font-size="10.00">MoveStrategy&lt; Strategies</text>
<text xml:space="preserve" text-anchor="start" x="320.75" y="-476" font-family="Helvetica,sans-Serif" font-size="10.00">::METROPOLIS, ManifoldType &gt;</text>
<text xml:space="preserve" text-anchor="start" x="327.62" y="-459.25" font-family="Helvetica,sans-Serif" font-size="10.00">&#45;</text>
<text xml:space="preserve" text-anchor="start" x="342.25" y="-459.25" font-family="Helvetica,sans-Serif" font-size="10.00">m_accepted_moves</text>
<text xml:space="preserve" text-anchor="start" x="327.62" y="-442.5" font-family="Helvetica,sans-Serif" font-size="10.00">&#45;</text>
<text xml:space="preserve" text-anchor="start" x="342.25" y="-442.5" font-family="Helvetica,sans-Serif" font-size="10.00">m_Alpha</text>
<text xml:space="preserve" text-anchor="start" x="327.62" y="-425.75" font-family="Helvetica,sans-Serif" font-size="10.00">&#45;</text>
<text xml:space="preserve" text-anchor="start" x="342.25" y="-425.75" font-family="Helvetica,sans-Serif" font-size="10.00">m_attempted_moves</text>
<text xml:space="preserve" text-anchor="start" x="327.62" y="-409" font-family="Helvetica,sans-Serif" font-size="10.00">&#45;</text>
<text xml:space="preserve" text-anchor="start" x="342.25" y="-409" font-family="Helvetica,sans-Serif" font-size="10.00">m_checkpoint</text>
<text xml:space="preserve" text-anchor="start" x="327.62" y="-392.25" font-family="Helvetica,sans-Serif" font-size="10.00">&#45;</text>
<text xml:space="preserve" text-anchor="start" x="342.25" y="-392.25" font-family="Helvetica,sans-Serif" font-size="10.00">m_failed_moves</text>
<text xml:space="preserve" text-anchor="start" x="327.62" y="-375.5" font-family="Helvetica,sans-Serif" font-size="10.00">&#45;</text>
<text xml:space="preserve" text-anchor="start" x="342.25" y="-375.5" font-family="Helvetica,sans-Serif" font-size="10.00">m_generator</text>
<text xml:space="preserve" text-anchor="start" x="327.62" y="-358.75" font-family="Helvetica,sans-Serif" font-size="10.00">&#45;</text>
<text xml:space="preserve" text-anchor="start" x="342.25" y="-358.75" font-family="Helvetica,sans-Serif" font-size="10.00">m_geometry</text>
<text xml:space="preserve" text-anchor="start" x="327.62" y="-342" font-family="Helvetica,sans-Serif" font-size="10.00">&#45;</text>
<text xml:space="preserve" text-anchor="start" x="342.25" y="-342" font-family="Helvetica,sans-Serif" font-size="10.00">m_K</text>
<text xml:space="preserve" text-anchor="start" x="327.62" y="-325.25" font-family="Helvetica,sans-Serif" font-size="10.00">&#45;</text>
<text xml:space="preserve" text-anchor="start" x="342.25" y="-325.25" font-family="Helvetica,sans-Serif" font-size="10.00">m_Lambda</text>
<text xml:space="preserve" text-anchor="start" x="327.62" y="-308.5" font-family="Helvetica,sans-Serif" font-size="10.00">&#45;</text>
<text xml:space="preserve" text-anchor="start" x="342.25" y="-308.5" font-family="Helvetica,sans-Serif" font-size="10.00">m_passes</text>
<text xml:space="preserve" text-anchor="start" x="342.25" y="-291.75" font-family="Helvetica,sans-Serif" font-size="10.00">and 7 more...</text>
<text xml:space="preserve" text-anchor="start" x="325.38" y="-275" font-family="Helvetica,sans-Serif" font-size="10.00">+</text>
<text xml:space="preserve" text-anchor="start" x="342.25" y="-275" font-family="Helvetica,sans-Serif" font-size="10.00">MoveStrategy()</text>
<text xml:space="preserve" text-anchor="start" x="325.38" y="-258.25" font-family="Helvetica,sans-Serif" font-size="10.00">+</text>
<text xml:space="preserve" text-anchor="start" x="342.25" y="-258.25" font-family="Helvetica,sans-Serif" font-size="10.00">MoveStrategy()</text>
<text xml:space="preserve" text-anchor="start" x="325.38" y="-241.5" font-family="Helvetica,sans-Serif" font-size="10.00">+</text>
<text xml:space="preserve" text-anchor="start" x="342.25" y="-241.5" font-family="Helvetica,sans-Serif" font-size="10.00">MoveStrategy()</text>
<text xml:space="preserve" text-anchor="start" x="325.38" y="-224.75" font-family="Helvetica,sans-Serif" font-size="10.00">+</text>
<text xml:space="preserve" text-anchor="start" x="342.25" y="-224.75" font-family="Helvetica,sans-Serif" font-size="10.00">MoveStrategy()</text>
<text xml:space="preserve" text-anchor="start" x="325.38" y="-208" font-family="Helvetica,sans-Serif" font-size="10.00">+</text>
<text xml:space="preserve" text-anchor="start" x="342.25" y="-208" font-family="Helvetica,sans-Serif" font-size="10.00">acceptance_probability()</text>
<text xml:space="preserve" text-anchor="start" x="325.38" y="-191.25" font-family="Helvetica,sans-Serif" font-size="10.00">+</text>
<text xml:space="preserve" text-anchor="start" x="342.25" y="-191.25" font-family="Helvetica,sans-Serif" font-size="10.00">Alpha()</text>
<text xml:space="preserve" text-anchor="start" x="325.38" y="-174.5" font-family="Helvetica,sans-Serif" font-size="10.00">+</text>
<text xml:space="preserve" text-anchor="start" x="342.25" y="-174.5" font-family="Helvetica,sans-Serif" font-size="10.00">attempt_transition()</text>
<text xml:space="preserve" text-anchor="start" x="325.38" y="-157.75" font-family="Helvetica,sans-Serif" font-size="10.00">+</text>
<text xml:space="preserve" text-anchor="start" x="342.25" y="-157.75" font-family="Helvetica,sans-Serif" font-size="10.00">CalculateA2()</text>
<text xml:space="preserve" text-anchor="start" x="325.38" y="-141" font-family="Helvetica,sans-Serif" font-size="10.00">+</text>
<text xml:space="preserve" text-anchor="start" x="342.25" y="-141" font-family="Helvetica,sans-Serif" font-size="10.00">checkpoint()</text>
<text xml:space="preserve" text-anchor="start" x="325.38" y="-124.25" font-family="Helvetica,sans-Serif" font-size="10.00">+</text>
<text xml:space="preserve" text-anchor="start" x="342.25" y="-124.25" font-family="Helvetica,sans-Serif" font-size="10.00">get_accepted()</text>
<text xml:space="preserve" text-anchor="start" x="342.25" y="-107.5" font-family="Helvetica,sans-Serif" font-size="10.00">and 18 more...</text>
<text xml:space="preserve" text-anchor="start" x="325.38" y="-90.75" font-family="Helvetica,sans-Serif" font-size="10.00">+</text>
<text xml:space="preserve" text-anchor="start" x="342.25" y="-90.75" font-family="Helvetica,sans-Serif" font-size="10.00">CalculateA1()</text>
<text xml:space="preserve" text-anchor="start" x="325.38" y="-74" font-family="Helvetica,sans-Serif" font-size="10.00">+</text>
<text xml:space="preserve" text-anchor="start" x="342.25" y="-74" font-family="Helvetica,sans-Serif" font-size="10.00">proposal_probability()</text>
<text xml:space="preserve" text-anchor="start" x="325.38" y="-57.25" font-family="Helvetica,sans-Serif" font-size="10.00">+</text>
<text xml:space="preserve" text-anchor="start" x="342.25" y="-57.25" font-family="Helvetica,sans-Serif" font-size="10.00">proposal_site_count()</text>
<text xml:space="preserve" text-anchor="start" x="325.38" y="-40.5" font-family="Helvetica,sans-Serif" font-size="10.00">+</text>
<text xml:space="preserve" text-anchor="start" x="342.25" y="-40.5" font-family="Helvetica,sans-Serif" font-size="10.00">reverse_move()</text>
<text xml:space="preserve" text-anchor="start" x="327.62" y="-23.75" font-family="Helvetica,sans-Serif" font-size="10.00">&#45;</text>
<text xml:space="preserve" text-anchor="start" x="342.25" y="-23.75" font-family="Helvetica,sans-Serif" font-size="10.00">propose_candidate()</text>
<text xml:space="preserve" text-anchor="start" x="327.62" y="-7" font-family="Helvetica,sans-Serif" font-size="10.00">&#45;</text>
<text xml:space="preserve" text-anchor="start" x="342.25" y="-7" font-family="Helvetica,sans-Serif" font-size="10.00">record_transition()</text>
<polygon fill="#666666" stroke="#666666" points="316.75,-471 316.75,-471 476.25,-471 476.25,-471 316.75,-471"/>
<polygon fill="#666666" stroke="#666666" points="316.75,-286.75 316.75,-286.75 340.25,-286.75 340.25,-286.75 316.75,-286.75"/>
<polygon fill="#666666" stroke="#666666" points="340.25,-286.75 340.25,-286.75 476.25,-286.75 476.25,-286.75 340.25,-286.75"/>
<polygon fill="none" stroke="#666666" points="316.75,0 316.75,-502.5 476.25,-502.5 476.25,0 316.75,0"/>
</a>
</g>
</g>
<!-- Node1&#45;&gt;Node4 -->
<g id="edge3_Node000001_Node000004" class="edge">
<title>Node1&#45;&gt;Node4</title>
<g id="a_edge3_Node000001_Node000004"><a xlink:title=" ">
<path fill="none" stroke="orange" d="M346.26,-581.5C347.84,-578.62 349.28,-575.69 350.5,-572.75 359.77,-550.43 367.23,-526.56 373.22,-502.3"/>
<polygon fill="orange" stroke="orange" points="343.45,-579.38 341.19,-589.74 349.41,-583.05 343.45,-579.38"/>
</a>
</g>
<text xml:space="preserve" text-anchor="start" x="370.72" y="-551.62" font-family="Helvetica,sans-Serif" font-size="10.00" fill="grey">&lt; Strategies::METROPOLIS,</text>
<text xml:space="preserve" text-anchor="start" x="370.72" y="-534.88" font-family="Helvetica,sans-Serif" font-size="10.00" fill="grey">   ManifoldType &gt;</text>
</g>
<!-- Node5 -->
<g id="Node000005" class="node">
<title>Node5</title>
<g id="a_Node000005"><a xlink:href="class_move_strategy_3_01_strategies_1_1_m_o_v_e___a_l_w_a_y_s_00_01_manifold_type_01_4.html" target="_top" xlink:title="The Move Always algorithm.">
<polygon fill="white" stroke="none" points="663.12,-418.75 493.88,-418.75 493.88,-83.75 663.12,-83.75 663.12,-418.75"/>
<text xml:space="preserve" text-anchor="start" x="497.88" y="-405" font-family="Helvetica,sans-Serif" font-size="10.00">MoveStrategy&lt; Strategies</text>
<text xml:space="preserve" text-anchor="start" x="497.88" y="-392.25" font-family="Helvetica,sans-Serif" font-size="10.00">::MOVE_ALWAYS, ManifoldType &gt;</text>
<text xml:space="preserve" text-anchor="start" x="511.31" y="-375.5" font-family="Helvetica,sans-Serif" font-size="10.00">&#45;</text>
<text xml:space="preserve" text-anchor="start" x="532.5" y="-375.5" font-family="Helvetica,sans-Serif" font-size="10.00">m_attempted_moves</text>
<text xml:space="preserve" text-anchor="start" x="511.31" y="-358.75" font-family="Helvetica,sans-Serif" font-size="10.00">&#45;</text>
<text xml:space="preserve" text-anchor="start" x="532.5" y="-358.75" font-family="Helvetica,sans-Serif" font-size="10.00">m_checkpoint</text>
<text xml:space="preserve" text-anchor="start" x="511.31" y="-342" font-family="Helvetica,sans-Serif" font-size="10.00">&#45;</text>
<text xml:space="preserve" text-anchor="start" x="532.5" y="-342" font-family="Helvetica,sans-Serif" font-size="10.00">m_failed_moves</text>
<text xml:space="preserve" text-anchor="start" x="511.31" y="-325.25" font-family="Helvetica,sans-Serif" font-size="10.00">&#45;</text>
<text xml:space="preserve" text-anchor="start" x="532.5" y="-325.25" font-family="Helvetica,sans-Serif" font-size="10.00">m_passes</text>
<text xml:space="preserve" text-anchor="start" x="511.31" y="-308.5" font-family="Helvetica,sans-Serif" font-size="10.00">&#45;</text>
<text xml:space="preserve" text-anchor="start" x="532.5" y="-308.5" font-family="Helvetica,sans-Serif" font-size="10.00">m_random</text>
<text xml:space="preserve" text-anchor="start" x="511.31" y="-291.75" font-family="Helvetica,sans-Serif" font-size="10.00">&#45;</text>
<text xml:space="preserve" text-anchor="start" x="532.5" y="-291.75" font-family="Helvetica,sans-Serif" font-size="10.00">m_successful_moves</text>
<text xml:space="preserve" text-anchor="start" x="509.06" y="-275" font-family="Helvetica,sans-Serif" font-size="10.00">+</text>
<text xml:space="preserve" text-anchor="start" x="532.5" y="-275" font-family="Helvetica,sans-Serif" font-size="10.00">MoveStrategy()</text>
<text xml:space="preserve" text-anchor="start" x="509.06" y="-258.25" font-family="Helvetica,sans-Serif" font-size="10.00">+</text>
<text xml:space="preserve" text-anchor="start" x="532.5" y="-258.25" font-family="Helvetica,sans-Serif" font-size="10.00">MoveStrategy()</text>
<text xml:space="preserve" text-anchor="start" x="509.06" y="-241.5" font-family="Helvetica,sans-Serif" font-size="10.00">+</text>
<text xml:space="preserve" text-anchor="start" x="532.5" y="-241.5" font-family="Helvetica,sans-Serif" font-size="10.00">MoveStrategy()</text>
<text xml:space="preserve" text-anchor="start" x="509.06" y="-224.75" font-family="Helvetica,sans-Serif" font-size="10.00">+</text>
<text xml:space="preserve" text-anchor="start" x="532.5" y="-224.75" font-family="Helvetica,sans-Serif" font-size="10.00">MoveStrategy()</text>
<text xml:space="preserve" text-anchor="start" x="509.06" y="-208" font-family="Helvetica,sans-Serif" font-size="10.00">+</text>
<text xml:space="preserve" text-anchor="start" x="532.5" y="-208" font-family="Helvetica,sans-Serif" font-size="10.00">checkpoint()</text>
<text xml:space="preserve" text-anchor="start" x="509.06" y="-191.25" font-family="Helvetica,sans-Serif" font-size="10.00">+</text>
<text xml:space="preserve" text-anchor="start" x="532.5" y="-191.25" font-family="Helvetica,sans-Serif" font-size="10.00">get_attempted()</text>
<text xml:space="preserve" text-anchor="start" x="509.06" y="-174.5" font-family="Helvetica,sans-Serif" font-size="10.00">+</text>
<text xml:space="preserve" text-anchor="start" x="532.5" y="-174.5" font-family="Helvetica,sans-Serif" font-size="10.00">get_failed()</text>
<text xml:space="preserve" text-anchor="start" x="509.06" y="-157.75" font-family="Helvetica,sans-Serif" font-size="10.00">+</text>
<text xml:space="preserve" text-anchor="start" x="532.5" y="-157.75" font-family="Helvetica,sans-Serif" font-size="10.00">get_succeeded()</text>
<text xml:space="preserve" text-anchor="start" x="509.06" y="-141" font-family="Helvetica,sans-Serif" font-size="10.00">+</text>
<text xml:space="preserve" text-anchor="start" x="532.5" y="-141" font-family="Helvetica,sans-Serif" font-size="10.00">operator()()</text>
<text xml:space="preserve" text-anchor="start" x="509.06" y="-124.25" font-family="Helvetica,sans-Serif" font-size="10.00">+</text>
<text xml:space="preserve" text-anchor="start" x="532.5" y="-124.25" font-family="Helvetica,sans-Serif" font-size="10.00">passes()</text>
<text xml:space="preserve" text-anchor="start" x="509.06" y="-107.5" font-family="Helvetica,sans-Serif" font-size="10.00">+</text>
<text xml:space="preserve" text-anchor="start" x="532.5" y="-107.5" font-family="Helvetica,sans-Serif" font-size="10.00">print_results()</text>
<text xml:space="preserve" text-anchor="start" x="509.06" y="-90.75" font-family="Helvetica,sans-Serif" font-size="10.00">+</text>
<text xml:space="preserve" text-anchor="start" x="532.5" y="-90.75" font-family="Helvetica,sans-Serif" font-size="10.00">seed()</text>
<polygon fill="#666666" stroke="#666666" points="493.88,-387.25 493.88,-387.25 663.12,-387.25 663.12,-387.25 493.88,-387.25"/>
<polygon fill="#666666" stroke="#666666" points="493.88,-286.75 493.88,-286.75 530.5,-286.75 530.5,-286.75 493.88,-286.75"/>
<polygon fill="#666666" stroke="#666666" points="530.5,-286.75 530.5,-286.75 663.12,-286.75 663.12,-286.75 530.5,-286.75"/>
<polygon fill="none" stroke="#666666" points="493.88,-83.75 493.88,-418.75 663.12,-418.75 663.12,-83.75 493.88,-83.75"/>
</a>
</g>
</g>
<!-- Node1&#45;&gt;Node5 -->
<g id="edge4_Node000001_Node000005" class="edge">
<title>Node1&#45;&gt;Node5</title>
<g id="a_edge4_Node000001_Node000005"><a xlink:title=" ">
<path fill="none" stroke="orange" d="M393.32,-611.46C440.56,-602.93 494.04,-589.9 510.5,-572.75 549.9,-531.72 568.89,-473.84 577.41,-418.54"/>
<polygon fill="orange" stroke="orange" points="392.84,-607.99 383.59,-613.16 394.05,-614.88 392.84,-607.99"/>
</a>
</g>
<text xml:space="preserve" text-anchor="start" x="548.45" y="-551.62" font-family="Helvetica,sans-Serif" font-size="10.00" fill="grey">&lt; Strategies::MOVE</text>
<text xml:space="preserve" text-anchor="start" x="548.45" y="-534.88" font-family="Helvetica,sans-Serif" font-size="10.00" fill="grey">  _ALWAYS, ManifoldType &gt;</text>
</g>
</g>
</svg>

<g id="navigator" transform="translate(0 0)" fill="#404254">
  <rect fill="#f2f5e9" fill-opacity="0.5" stroke="#606060" stroke-width=".5" x="0" y="0" width="60" height="60"/>
  <use id="zoomplus" xlink:href="#zoomPlus" x="17" y="9" onmousedown="handleZoom(evt,'in')"/>
  <use id="zoomminus" xlink:href="#zoomMin" x="42" y="9" onmousedown="handleZoom(evt,'out')"/>
  <use id="reset" xlink:href="#resetDef" x="30" y="36" onmousedown="handleReset()"/>
   <use id="arrowup" xlink:href="#arrowUp" x="0" y="0" onmousedown="handlePan(0,-1)"/>
  <use id="arrowright" xlink:href="#arrowRight" x="0" y="0" onmousedown="handlePan(1,0)"/>
  <use id="arrowdown" xlink:href="#arrowDown" x="0" y="0" onmousedown="handlePan(0,1)"/>
  <use id="arrowleft" xlink:href="#arrowLeft" x="0" y="0" onmousedown="handlePan(-1,0)"/>
</g>
<svg viewBox="0 0 15 15" width="100%" height="30px" preserveAspectRatio="xMaxYMin meet">
 <g id="arrow_out" transform="scale(0.3 0.3)">
  <a xlink:href="class_move_strategy__inherit__graph_org.svg" target="_base">
   <rect id="button" ry="5" rx="5" y="6" x="6" height="38" width="38"
        fill="#f2f5e9" fill-opacity="0.5" stroke="#606060" stroke-width="1.0"/>
   <path id="arrow"
     d="M 11.500037,31.436501 C 11.940474,20.09759 22.043105,11.32322 32.158766,21.979434 L 37.068811,17.246167 C 37.068811,17.246167 37.088388,32 37.088388,32 L 22.160133,31.978069 C 22.160133,31.978069 26.997745,27.140456 26.997745,27.140456 C 18.528582,18.264221 13.291696,25.230495 11.500037,31.436501 z"
     style="fill:#404040;"/>
  </a>
 </g>
</svg>

<style type='text/css'>
<![CDATA[
[data-mouse-over-selected='false'] { opacity: 0.7; }
[data-mouse-over-selected='true']  { opacity: 1.0; }
]]>
</style>
<script type="application/ecmascript"><![CDATA[
document.addEventListener('DOMContentLoaded', (event) => {
  highlightEdges();
  highlightAdjacentNodes();
});
]]></script>
</svg>
