<?xml version="1.0" encoding="UTF-8" standalone="no"?>
<!DOCTYPE svg PUBLIC "-//W3C//DTD SVG 1.1//EN"
 "http://www.w3.org/Graphics/SVG/1.1/DTD/svg11.dtd">
<!-- Generated by graphviz version 2.43.0 (0)
 -->
<!-- Title: MoveCommand&lt; ManifoldType, ExpectedType, FunctionType &gt; Pages: 1 -->
<svg width="520pt" height="590pt"
 viewBox="0.00 0.00 520.00 590.00" xmlns="http://www.w3.org/2000/svg" xmlns:xlink="http://www.w3.org/1999/xlink">
<g id="graph0" class="graph" transform="scale(1 1) rotate(0) translate(4 586)">
<title>MoveCommand&lt; ManifoldType, ExpectedType, FunctionType &gt;</title>
<polygon fill="white" stroke="transparent" points="-4,4 -4,-586 516,-586 516,4 -4,4"/>
<!-- Node1 -->
<g id="node1" class="node">
<title>Node1</title>
<g id="a_node1"><a xlink:title=" ">
<polygon fill="#bfbfbf" stroke="black" points="43.5,-0.5 43.5,-167.5 216.5,-167.5 216.5,-0.5 43.5,-0.5"/>
<text text-anchor="start" x="51.5" y="-155.5" font-family="Helvetica,sans-Serif" font-size="10.00">MoveCommand&lt; ManifoldType,</text>
<text text-anchor="middle" x="130" y="-144.5" font-family="Helvetica,sans-Serif" font-size="10.00"> ExpectedType, FunctionType &gt;</text>
<polyline fill="none" stroke="black" points="43.5,-137.5 216.5,-137.5 "/>
<text text-anchor="start" x="51.5" y="-125.5" font-family="Helvetica,sans-Serif" font-size="10.00">&#45; m_manifold</text>
<polyline fill="none" stroke="black" points="43.5,-118.5 216.5,-118.5 "/>
<text text-anchor="start" x="51.5" y="-106.5" font-family="Helvetica,sans-Serif" font-size="10.00">+ MoveCommand()</text>
<text text-anchor="start" x="51.5" y="-95.5" font-family="Helvetica,sans-Serif" font-size="10.00">+ MoveCommand()</text>
<text text-anchor="start" x="51.5" y="-84.5" font-family="Helvetica,sans-Serif" font-size="10.00">+ enqueue()</text>
<text text-anchor="start" x="51.5" y="-73.5" font-family="Helvetica,sans-Serif" font-size="10.00">+ execute()</text>
<text text-anchor="start" x="51.5" y="-62.5" font-family="Helvetica,sans-Serif" font-size="10.00">+ get_manifold()</text>
<text text-anchor="start" x="51.5" y="-51.5" font-family="Helvetica,sans-Serif" font-size="10.00">+ get_results()</text>
<text text-anchor="start" x="51.5" y="-40.5" font-family="Helvetica,sans-Serif" font-size="10.00">+ move()</text>
<text text-anchor="start" x="51.5" y="-29.5" font-family="Helvetica,sans-Serif" font-size="10.00">+ parse_unexpected()</text>
<text text-anchor="start" x="51.5" y="-18.5" font-family="Helvetica,sans-Serif" font-size="10.00">+ print_errors()</text>
<text text-anchor="start" x="51.5" y="-7.5" font-family="Helvetica,sans-Serif" font-size="10.00">+ size()</text>
</a>
</g>
</g>
<!-- Node2 -->
<g id="node2" class="node">
<title>Node2</title>
<g id="a_node2"><a xlink:title=" ">
<polygon fill="white" stroke="#bfbfbf" points="0,-232 0,-289 110,-289 110,-232 0,-232"/>
<text text-anchor="middle" x="55" y="-277" font-family="Helvetica,sans-Serif" font-size="10.00">std::array&lt; int, 5 &gt;</text>
<polyline fill="none" stroke="#bfbfbf" points="0,-270 110,-270 "/>
<text text-anchor="start" x="8" y="-258" font-family="Helvetica,sans-Serif" font-size="10.00">+ elements</text>
<polyline fill="none" stroke="#bfbfbf" points="0,-251 110,-251 "/>
<text text-anchor="middle" x="55" y="-239" font-family="Helvetica,sans-Serif" font-size="10.00"> </text>
</a>
</g>
</g>
<!-- Node2&#45;&gt;Node1 -->
<g id="edge1" class="edge">
<title>Node2&#45;&gt;Node1</title>
<path fill="none" stroke="#404040" d="M66.55,-231.89C72.35,-218.09 79.51,-201.15 86,-186 87,-183.67 88.02,-181.3 89.04,-178.92"/>
<polygon fill="none" stroke="#404040" points="89.15,-178.66 87.85,-171.57 93.9,-167.64 95.2,-174.74 89.15,-178.66"/>
<text text-anchor="middle" x="130" y="-189" font-family="Helvetica,sans-Serif" font-size="10.00"> &#45;m_failed_moves</text>
</g>
<!-- Node3 -->
<g id="node3" class="node">
<title>Node3</title>
<g id="a_node3"><a xlink:title="STL class.">
<polygon fill="white" stroke="#bfbfbf" points="9,-386.5 9,-443.5 101,-443.5 101,-386.5 9,-386.5"/>
<text text-anchor="middle" x="55" y="-431.5" font-family="Helvetica,sans-Serif" font-size="10.00">std::array&lt; T &gt;</text>
<polyline fill="none" stroke="#bfbfbf" points="9,-424.5 101,-424.5 "/>
<text text-anchor="middle" x="55" y="-412.5" font-family="Helvetica,sans-Serif" font-size="10.00"> </text>
<polyline fill="none" stroke="#bfbfbf" points="9,-405.5 101,-405.5 "/>
<text text-anchor="middle" x="55" y="-393.5" font-family="Helvetica,sans-Serif" font-size="10.00"> </text>
</a>
</g>
</g>
<!-- Node3&#45;&gt;Node2 -->
<g id="edge2" class="edge">
<title>Node3&#45;&gt;Node2</title>
<path fill="none" stroke="orange" d="M55,-376.14C55,-349.17 55,-313.51 55,-289.17"/>
<polygon fill="orange" stroke="orange" points="51.5,-376.38 55,-386.38 58.5,-376.38 51.5,-376.38"/>
<text text-anchor="middle" x="80.5" y="-338" font-family="Helvetica,sans-Serif" font-size="10.00"> &lt; int, 5 &gt;</text>
</g>
<!-- Node4 -->
<g id="node4" class="node">
<title>Node4</title>
<g id="a_node4"><a xlink:title=" ">
<polygon fill="white" stroke="#bfbfbf" points="93.5,-524.5 93.5,-581.5 122.5,-581.5 122.5,-524.5 93.5,-524.5"/>
<text text-anchor="middle" x="108" y="-569.5" font-family="Helvetica,sans-Serif" font-size="10.00">T</text>
<polyline fill="none" stroke="#bfbfbf" points="93.5,-562.5 122.5,-562.5 "/>
<text text-anchor="middle" x="108" y="-550.5" font-family="Helvetica,sans-Serif" font-size="10.00"> </text>
<polyline fill="none" stroke="#bfbfbf" points="93.5,-543.5 122.5,-543.5 "/>
<text text-anchor="middle" x="108" y="-531.5" font-family="Helvetica,sans-Serif" font-size="10.00"> </text>
</a>
</g>
</g>
<!-- Node4&#45;&gt;Node3 -->
<g id="edge3" class="edge">
<title>Node4&#45;&gt;Node3</title>
<path fill="none" stroke="#404040" d="M93.3,-537.06C85.8,-528.6 77.19,-517.45 72,-506 64.96,-490.46 60.83,-472.13 58.42,-456.08"/>
<polygon fill="none" stroke="#404040" points="58.37,-455.7 53.63,-450.27 56.82,-443.8 61.56,-449.24 58.37,-455.7"/>
<text text-anchor="middle" x="101" y="-487" font-family="Helvetica,sans-Serif" font-size="10.00"> +elements</text>
</g>
<!-- Node8 -->
<g id="node8" class="node">
<title>Node8</title>
<g id="a_node8"><a xlink:title="STL class.">
<polygon fill="white" stroke="#bfbfbf" points="119,-386.5 119,-443.5 215,-443.5 215,-386.5 119,-386.5"/>
<text text-anchor="middle" x="167" y="-431.5" font-family="Helvetica,sans-Serif" font-size="10.00">std::deque&lt; T &gt;</text>
<polyline fill="none" stroke="#bfbfbf" points="119,-424.5 215,-424.5 "/>
<text text-anchor="middle" x="167" y="-412.5" font-family="Helvetica,sans-Serif" font-size="10.00"> </text>
<polyline fill="none" stroke="#bfbfbf" points="119,-405.5 215,-405.5 "/>
<text text-anchor="middle" x="167" y="-393.5" font-family="Helvetica,sans-Serif" font-size="10.00"> </text>
</a>
</g>
</g>
<!-- Node4&#45;&gt;Node8 -->
<g id="edge8" class="edge">
<title>Node4&#45;&gt;Node8</title>
<path fill="none" stroke="#404040" d="M121.52,-524.39C124.38,-518.36 127.34,-511.99 130,-506 137.32,-489.51 144.98,-471.12 151.41,-455.28"/>
<polygon fill="none" stroke="#404040" points="151.57,-454.87 150.11,-447.81 156.06,-443.74 157.53,-450.8 151.57,-454.87"/>
<text text-anchor="middle" x="173" y="-487" font-family="Helvetica,sans-Serif" font-size="10.00"> +elements</text>
</g>
<!-- Node5 -->
<g id="node5" class="node">
<title>Node5</title>
<g id="a_node5"><a xlink:title=" ">
<polygon fill="white" stroke="#bfbfbf" points="128,-215.5 128,-305.5 286,-305.5 286,-215.5 128,-215.5"/>
<text text-anchor="start" x="136" y="-293.5" font-family="Helvetica,sans-Serif" font-size="10.00">std::deque&lt; function</text>
<text text-anchor="start" x="136" y="-282.5" font-family="Helvetica,sans-Serif" font-size="10.00">_ref&lt; tl::expected&lt; Manifold</text>
<text text-anchor="start" x="136" y="-271.5" font-family="Helvetica,sans-Serif" font-size="10.00">Type, std::string_view &gt;</text>
<text text-anchor="middle" x="207" y="-260.5" font-family="Helvetica,sans-Serif" font-size="10.00">(ManifoldType &amp;)&gt; &gt;</text>
<polyline fill="none" stroke="#bfbfbf" points="128,-253.5 286,-253.5 "/>
<text text-anchor="middle" x="207" y="-241.5" font-family="Helvetica,sans-Serif" font-size="10.00"> </text>
<polyline fill="none" stroke="#bfbfbf" points="128,-234.5 286,-234.5 "/>
<text text-anchor="middle" x="207" y="-222.5" font-family="Helvetica,sans-Serif" font-size="10.00"> </text>
</a>
</g>
</g>
<!-- Node5&#45;&gt;Node1 -->
<g id="edge4" class="edge">
<title>Node5&#45;&gt;Node1</title>
<path fill="none" stroke="#404040" d="M187.57,-215.47C182.61,-204.22 177.08,-191.69 171.47,-178.98"/>
<polygon fill="none" stroke="#404040" points="171.37,-178.76 165.29,-174.88 166.53,-167.78 172.61,-171.65 171.37,-178.76"/>
<text text-anchor="middle" x="205.5" y="-189" font-family="Helvetica,sans-Serif" font-size="10.00"> &#45;m_moves</text>
</g>
<!-- Node6 -->
<g id="node6" class="node">
<title>Node6</title>
<g id="a_node6"><a xlink:href="classfunction__ref.html" target="_top" xlink:title=" ">
<polygon fill="white" stroke="black" points="311,-375.5 311,-454.5 459,-454.5 459,-375.5 311,-375.5"/>
<text text-anchor="start" x="319" y="-442.5" font-family="Helvetica,sans-Serif" font-size="10.00">function_ref&lt; tl::expected</text>
<text text-anchor="start" x="319" y="-431.5" font-family="Helvetica,sans-Serif" font-size="10.00">&lt; ManifoldType, std::string</text>
<text text-anchor="middle" x="385" y="-420.5" font-family="Helvetica,sans-Serif" font-size="10.00">_view &gt;(ManifoldType &amp;)&gt;</text>
<polyline fill="none" stroke="black" points="311,-413.5 459,-413.5 "/>
<text text-anchor="middle" x="385" y="-401.5" font-family="Helvetica,sans-Serif" font-size="10.00"> </text>
<polyline fill="none" stroke="black" points="311,-394.5 459,-394.5 "/>
<text text-anchor="middle" x="385" y="-382.5" font-family="Helvetica,sans-Serif" font-size="10.00"> </text>
</a>
</g>
</g>
<!-- Node6&#45;&gt;Node5 -->
<g id="edge5" class="edge">
<title>Node6&#45;&gt;Node5</title>
<path fill="none" stroke="#404040" d="M383.43,-375.33C380.89,-357.89 375.23,-338.09 363,-324 345.91,-304.31 321.75,-290.75 297.53,-281.44"/>
<polygon fill="none" stroke="#404040" points="297.35,-281.38 290.35,-283.12 286.05,-277.33 293.05,-275.59 297.35,-281.38"/>
<text text-anchor="middle" x="408" y="-338" font-family="Helvetica,sans-Serif" font-size="10.00"> +elements</text>
</g>
<!-- Node7 -->
<g id="node7" class="node">
<title>Node7</title>
<g id="a_node7"><a xlink:href="classfunction__ref.html" target="_top" xlink:title=" ">
<polygon fill="white" stroke="black" points="330,-524.5 330,-581.5 440,-581.5 440,-524.5 330,-524.5"/>
<text text-anchor="middle" x="385" y="-569.5" font-family="Helvetica,sans-Serif" font-size="10.00">function_ref&lt; Fn &gt;</text>
<polyline fill="none" stroke="black" points="330,-562.5 440,-562.5 "/>
<text text-anchor="middle" x="385" y="-550.5" font-family="Helvetica,sans-Serif" font-size="10.00"> </text>
<polyline fill="none" stroke="black" points="330,-543.5 440,-543.5 "/>
<text text-anchor="middle" x="385" y="-531.5" font-family="Helvetica,sans-Serif" font-size="10.00"> </text>
</a>
</g>
</g>
<!-- Node7&#45;&gt;Node6 -->
<g id="edge6" class="edge">
<title>Node7&#45;&gt;Node6</title>
<path fill="none" stroke="orange" d="M385,-514.3C385,-495.69 385,-473.28 385,-454.56"/>
<polygon fill="orange" stroke="orange" points="381.5,-514.48 385,-524.48 388.5,-514.48 381.5,-514.48"/>
<text text-anchor="start" x="385" y="-498" font-family="Helvetica,sans-Serif" font-size="10.00"> &lt; tl::expected&lt; Manifold</text>
<text text-anchor="start" x="385" y="-487" font-family="Helvetica,sans-Serif" font-size="10.00">Type, std::string_view</text>
<text text-anchor="middle" x="448.5" y="-476" font-family="Helvetica,sans-Serif" font-size="10.00"> &gt;(ManifoldType &amp;)&gt;</text>
</g>
<!-- Node8&#45;&gt;Node5 -->
<g id="edge7" class="edge">
<title>Node8&#45;&gt;Node5</title>
<path fill="none" stroke="orange" d="M162.91,-376C162.3,-359.69 163.14,-340.61 168,-324 169.83,-317.74 172.48,-311.49 175.55,-305.5"/>
<polygon fill="orange" stroke="orange" points="159.43,-376.47 163.49,-386.26 166.42,-376.08 159.43,-376.47"/>
<text text-anchor="start" x="168" y="-349" font-family="Helvetica,sans-Serif" font-size="10.00"> &lt; function_ref&lt; tl</text>
<text text-anchor="start" x="168" y="-338" font-family="Helvetica,sans-Serif" font-size="10.00">::expected&lt; ManifoldType,</text>
<text text-anchor="middle" x="265.5" y="-327" font-family="Helvetica,sans-Serif" font-size="10.00"> std::string_view &gt;(ManifoldType &amp;)&gt; &gt;</text>
</g>
</g>
</svg>
