<?xml version="1.0" encoding="UTF-8" standalone="no"?>
<!DOCTYPE svg PUBLIC "-//W3C//DTD SVG 1.1//EN"
 "http://www.w3.org/Graphics/SVG/1.1/DTD/svg11.dtd">
<!-- Generated by graphviz version 2.43.0 (0)
 -->
<!-- Title: FoliatedTriangulations::FoliatedTriangulation&lt; 3 &gt; Pages: 1 -->
<!--zoomable 689 -->
<svg id="main" version="1.1" xmlns="http://www.w3.org/2000/svg" xmlns:xlink="http://www.w3.org/1999/xlink" xml:space="preserve" onload="init(evt)">
<style type="text/css"><![CDATA[
.edge:hover path { stroke: red; }
.edge:hover polygon { stroke: red; fill: red; }
]]></style>
<script type="text/javascript"><![CDATA[
var edges = document.getElementsByTagName('g');
if (edges && edges.length) {
  for (var i=0;i<edges.length;i++) {
    if (edges[i].id.substr(0,4)=='edge') {
      edges[i].setAttribute('class','edge');
    }
  }
}
]]></script>
        <defs>
                <circle id="rim" cx="0" cy="0" r="7"/>
                <circle id="rim2" cx="0" cy="0" r="3.5"/>
                <g id="zoomPlus">
                        <use xlink:href="#rim" fill="#404040">
                                <set attributeName="fill" to="#808080" begin="zoomplus.mouseover" end="zoomplus.mouseout"/>
                        </use>
                        <path d="M-4,0h8M0,-4v8" fill="none" stroke="white" stroke-width="1.5" pointer-events="none"/>
                </g>
                <g id="zoomMin">
                        <use xlink:href="#rim" fill="#404040">
                                <set attributeName="fill" to="#808080" begin="zoomminus.mouseover" end="zoomminus.mouseout"/>
                        </use>
                        <path d="M-4,0h8" fill="none" stroke="white" stroke-width="1.5" pointer-events="none"/>
                </g>
                <g id="dirArrow">
                        <path fill="none" stroke="white" stroke-width="1.5" d="M0,-3.0v7 M-2.5,-0.5L0,-3.0L2.5,-0.5"/>
                </g>
               <g id="resetDef">
                       <use xlink:href="#rim2" fill="#404040">
                               <set attributeName="fill" to="#808080" begin="reset.mouseover" end="reset.mouseout"/>
                       </use>
               </g>
        </defs>

<script type="text/javascript">
var viewWidth = 763;
var viewHeight = 689;
var sectionId = 'dynsection-0';
</script>
<script xlink:href="svgpan.js"/>
<svg id="graph" class="graph">
<g id="viewport">
<title>FoliatedTriangulations::FoliatedTriangulation&lt; 3 &gt;</title>
<polygon fill="white" stroke="transparent" points="-4,4 -4,-685 759,-685 759,4 -4,4"/>
<!-- Node1 -->
<g id="node1" class="node">
<title>Node1</title>
<g id="a_node1"><a xlink:title="3D Triangulation">
<polygon fill="#bfbfbf" stroke="black" points="297.5,-0.5 297.5,-299.5 450.5,-299.5 450.5,-0.5 297.5,-0.5"/>
<text text-anchor="start" x="305.5" y="-287.5" font-family="Helvetica,sans-Serif" font-size="10.00">FoliatedTriangulations</text>
<text text-anchor="middle" x="374" y="-276.5" font-family="Helvetica,sans-Serif" font-size="10.00">::FoliatedTriangulation&lt; 3 &gt;</text>
<polyline fill="none" stroke="black" points="297.5,-269.5 450.5,-269.5 "/>
<text text-anchor="start" x="305.5" y="-257.5" font-family="Helvetica,sans-Serif" font-size="10.00">&#45; m_foliation_spacing</text>
<text text-anchor="start" x="305.5" y="-246.5" font-family="Helvetica,sans-Serif" font-size="10.00">&#45; m_initial_radius</text>
<text text-anchor="start" x="305.5" y="-235.5" font-family="Helvetica,sans-Serif" font-size="10.00">&#45; m_max_timevalue</text>
<text text-anchor="start" x="305.5" y="-224.5" font-family="Helvetica,sans-Serif" font-size="10.00">&#45; m_min_timevalue</text>
<text text-anchor="start" x="305.5" y="-213.5" font-family="Helvetica,sans-Serif" font-size="10.00">&#45; m_triangulation</text>
<polyline fill="none" stroke="black" points="297.5,-206.5 450.5,-206.5 "/>
<text text-anchor="start" x="305.5" y="-194.5" font-family="Helvetica,sans-Serif" font-size="10.00">+ FoliatedTriangulation()</text>
<text text-anchor="start" x="305.5" y="-183.5" font-family="Helvetica,sans-Serif" font-size="10.00">+ FoliatedTriangulation()</text>
<text text-anchor="start" x="305.5" y="-172.5" font-family="Helvetica,sans-Serif" font-size="10.00">+ FoliatedTriangulation()</text>
<text text-anchor="start" x="305.5" y="-161.5" font-family="Helvetica,sans-Serif" font-size="10.00">+ FoliatedTriangulation()</text>
<text text-anchor="start" x="305.5" y="-150.5" font-family="Helvetica,sans-Serif" font-size="10.00">+ FoliatedTriangulation()</text>
<text text-anchor="start" x="305.5" y="-139.5" font-family="Helvetica,sans-Serif" font-size="10.00">+ FoliatedTriangulation()</text>
<text text-anchor="start" x="305.5" y="-128.5" font-family="Helvetica,sans-Serif" font-size="10.00">+ ~FoliatedTriangulation()</text>
<text text-anchor="start" x="305.5" y="-117.5" font-family="Helvetica,sans-Serif" font-size="10.00">+ check_all_cells()</text>
<text text-anchor="start" x="305.5" y="-106.5" font-family="Helvetica,sans-Serif" font-size="10.00">+ check_all_vertices()</text>
<text text-anchor="start" x="305.5" y="-95.5" font-family="Helvetica,sans-Serif" font-size="10.00">+ check_vertices()</text>
<text text-anchor="start" x="305.5" y="-84.5" font-family="Helvetica,sans-Serif" font-size="10.00">and 48 more...</text>
<text text-anchor="start" x="305.5" y="-73.5" font-family="Helvetica,sans-Serif" font-size="10.00">&#45; classify_cells()</text>
<text text-anchor="start" x="305.5" y="-62.5" font-family="Helvetica,sans-Serif" font-size="10.00">&#45; collect_cells()</text>
<text text-anchor="start" x="305.5" y="-51.5" font-family="Helvetica,sans-Serif" font-size="10.00">&#45; collect_edges()</text>
<text text-anchor="start" x="305.5" y="-40.5" font-family="Helvetica,sans-Serif" font-size="10.00">&#45; collect_faces()</text>
<text text-anchor="start" x="305.5" y="-29.5" font-family="Helvetica,sans-Serif" font-size="10.00">&#45; collect_vertices()</text>
<text text-anchor="start" x="305.5" y="-18.5" font-family="Helvetica,sans-Serif" font-size="10.00">&#45; fix_timeslices()</text>
<text text-anchor="start" x="305.5" y="-7.5" font-family="Helvetica,sans-Serif" font-size="10.00">&#45; make_triangulation()</text>
</a>
</g>
</g>
<!-- Node2 -->
<g id="node2" class="node">
<title>Node2</title>
<g id="a_node2"><a xlink:title=" ">
<polygon fill="white" stroke="#bfbfbf" points="0,-386 0,-454 140,-454 140,-386 0,-386"/>
<text text-anchor="start" x="8" y="-442" font-family="Helvetica,sans-Serif" font-size="10.00">std::vector&lt; Face_handle</text>
<text text-anchor="middle" x="70" y="-431" font-family="Helvetica,sans-Serif" font-size="10.00">&lt; 3 &gt; &gt;</text>
<polyline fill="none" stroke="#bfbfbf" points="0,-424 140,-424 "/>
<text text-anchor="start" x="8" y="-412" font-family="Helvetica,sans-Serif" font-size="10.00">+ elements</text>
<polyline fill="none" stroke="#bfbfbf" points="0,-405 140,-405 "/>
<text text-anchor="middle" x="70" y="-393" font-family="Helvetica,sans-Serif" font-size="10.00"> </text>
</a>
</g>
</g>
<!-- Node2&#45;&gt;Node1 -->
<g id="edge1" class="edge">
<title>Node2&#45;&gt;Node1</title>
<path fill="none" stroke="#404040" d="M107.58,-385.87C152.46,-346.31 228.92,-278.9 288.45,-226.42"/>
<polygon fill="none" stroke="#404040" points="288.48,-226.4 290.33,-219.43 297.48,-218.46 295.62,-225.43 288.48,-226.4"/>
<text text-anchor="middle" x="202.5" y="-337.5" font-family="Helvetica,sans-Serif" font-size="10.00"> &#45;m_faces</text>
</g>
<!-- Node3 -->
<g id="node3" class="node">
<title>Node3</title>
<g id="a_node3"><a xlink:title="STL class.">
<polygon fill="white" stroke="#bfbfbf" points="320.5,-518.5 320.5,-575.5 417.5,-575.5 417.5,-518.5 320.5,-518.5"/>
<text text-anchor="middle" x="369" y="-563.5" font-family="Helvetica,sans-Serif" font-size="10.00">std::vector&lt; T &gt;</text>
<polyline fill="none" stroke="#bfbfbf" points="320.5,-556.5 417.5,-556.5 "/>
<text text-anchor="middle" x="369" y="-544.5" font-family="Helvetica,sans-Serif" font-size="10.00"> </text>
<polyline fill="none" stroke="#bfbfbf" points="320.5,-537.5 417.5,-537.5 "/>
<text text-anchor="middle" x="369" y="-525.5" font-family="Helvetica,sans-Serif" font-size="10.00"> </text>
</a>
</g>
</g>
<!-- Node3&#45;&gt;Node2 -->
<g id="edge2" class="edge">
<title>Node3&#45;&gt;Node2</title>
<path fill="none" stroke="orange" d="M310.47,-540.83C246.35,-534.21 148.52,-521.02 118,-500 101.87,-488.9 90.22,-470.43 82.43,-454.15"/>
<polygon fill="orange" stroke="orange" points="310.16,-544.32 320.46,-541.84 310.86,-537.35 310.16,-544.32"/>
<text text-anchor="middle" x="175.5" y="-486.5" font-family="Helvetica,sans-Serif" font-size="10.00"> &lt; Face_handle&lt; 3 &gt; &gt;</text>
</g>
<!-- Node5 -->
<g id="node5" class="node">
<title>Node5</title>
<g id="a_node5"><a xlink:title=" ">
<polygon fill="white" stroke="#bfbfbf" points="158,-386 158,-454 300,-454 300,-386 158,-386"/>
<text text-anchor="start" x="166" y="-442" font-family="Helvetica,sans-Serif" font-size="10.00">std::vector&lt; Edge_handle</text>
<text text-anchor="middle" x="229" y="-431" font-family="Helvetica,sans-Serif" font-size="10.00">&lt; 3 &gt; &gt;</text>
<polyline fill="none" stroke="#bfbfbf" points="158,-424 300,-424 "/>
<text text-anchor="start" x="166" y="-412" font-family="Helvetica,sans-Serif" font-size="10.00">+ elements</text>
<polyline fill="none" stroke="#bfbfbf" points="158,-405 300,-405 "/>
<text text-anchor="middle" x="229" y="-393" font-family="Helvetica,sans-Serif" font-size="10.00"> </text>
</a>
</g>
</g>
<!-- Node3&#45;&gt;Node5 -->
<g id="edge5" class="edge">
<title>Node3&#45;&gt;Node5</title>
<path fill="none" stroke="orange" d="M310.57,-535.56C288.48,-528.84 264.88,-517.87 249,-500 237.91,-487.52 232.8,-469.76 230.5,-454.24"/>
<polygon fill="orange" stroke="orange" points="309.67,-538.94 320.24,-538.27 311.56,-532.2 309.67,-538.94"/>
<text text-anchor="middle" x="307.5" y="-486.5" font-family="Helvetica,sans-Serif" font-size="10.00"> &lt; Edge_handle&lt; 3 &gt; &gt;</text>
</g>
<!-- Node6 -->
<g id="node6" class="node">
<title>Node6</title>
<g id="a_node6"><a xlink:title=" ">
<polygon fill="white" stroke="#bfbfbf" points="318.5,-386 318.5,-454 429.5,-454 429.5,-386 318.5,-386"/>
<text text-anchor="start" x="326.5" y="-442" font-family="Helvetica,sans-Serif" font-size="10.00">std::vector&lt; Vertex</text>
<text text-anchor="middle" x="374" y="-431" font-family="Helvetica,sans-Serif" font-size="10.00">_handle&lt; 3 &gt; &gt;</text>
<polyline fill="none" stroke="#bfbfbf" points="318.5,-424 429.5,-424 "/>
<text text-anchor="start" x="326.5" y="-412" font-family="Helvetica,sans-Serif" font-size="10.00">+ elements</text>
<polyline fill="none" stroke="#bfbfbf" points="318.5,-405 429.5,-405 "/>
<text text-anchor="middle" x="374" y="-393" font-family="Helvetica,sans-Serif" font-size="10.00"> </text>
</a>
</g>
</g>
<!-- Node3&#45;&gt;Node6 -->
<g id="edge7" class="edge">
<title>Node3&#45;&gt;Node6</title>
<path fill="none" stroke="orange" d="M369.19,-507.96C369.34,-498.19 369.59,-487.7 370,-478 370.33,-470.27 370.83,-461.96 371.36,-454.14"/>
<polygon fill="orange" stroke="orange" points="365.69,-508.16 369.06,-518.2 372.68,-508.24 365.69,-508.16"/>
<text text-anchor="middle" x="432" y="-486.5" font-family="Helvetica,sans-Serif" font-size="10.00"> &lt; Vertex_handle&lt; 3 &gt; &gt;</text>
</g>
<!-- Node9 -->
<g id="node9" class="node">
<title>Node9</title>
<g id="a_node9"><a xlink:title=" ">
<polygon fill="white" stroke="#bfbfbf" points="447.5,-386 447.5,-454 584.5,-454 584.5,-386 447.5,-386"/>
<text text-anchor="start" x="455.5" y="-442" font-family="Helvetica,sans-Serif" font-size="10.00">std::vector&lt; Cell_handle</text>
<text text-anchor="middle" x="516" y="-431" font-family="Helvetica,sans-Serif" font-size="10.00">&lt; 3 &gt; &gt;</text>
<polyline fill="none" stroke="#bfbfbf" points="447.5,-424 584.5,-424 "/>
<text text-anchor="start" x="455.5" y="-412" font-family="Helvetica,sans-Serif" font-size="10.00">+ elements</text>
<polyline fill="none" stroke="#bfbfbf" points="447.5,-405 584.5,-405 "/>
<text text-anchor="middle" x="516" y="-393" font-family="Helvetica,sans-Serif" font-size="10.00"> </text>
</a>
</g>
</g>
<!-- Node3&#45;&gt;Node9 -->
<g id="edge12" class="edge">
<title>Node3&#45;&gt;Node9</title>
<path fill="none" stroke="orange" d="M427.61,-536.47C451.14,-529.87 476.72,-518.74 494,-500 505.39,-487.65 510.95,-469.9 513.64,-454.35"/>
<polygon fill="orange" stroke="orange" points="426.49,-533.15 417.68,-539.03 428.24,-539.92 426.49,-533.15"/>
<text text-anchor="middle" x="563" y="-486.5" font-family="Helvetica,sans-Serif" font-size="10.00"> &lt; Cell_handle&lt; 3 &gt; &gt;</text>
</g>
<!-- Node4 -->
<g id="node4" class="node">
<title>Node4</title>
<g id="a_node4"><a xlink:title=" ">
<polygon fill="white" stroke="#bfbfbf" points="418.5,-623.5 418.5,-680.5 447.5,-680.5 447.5,-623.5 418.5,-623.5"/>
<text text-anchor="middle" x="433" y="-668.5" font-family="Helvetica,sans-Serif" font-size="10.00">T</text>
<polyline fill="none" stroke="#bfbfbf" points="418.5,-661.5 447.5,-661.5 "/>
<text text-anchor="middle" x="433" y="-649.5" font-family="Helvetica,sans-Serif" font-size="10.00"> </text>
<polyline fill="none" stroke="#bfbfbf" points="418.5,-642.5 447.5,-642.5 "/>
<text text-anchor="middle" x="433" y="-630.5" font-family="Helvetica,sans-Serif" font-size="10.00"> </text>
</a>
</g>
</g>
<!-- Node4&#45;&gt;Node3 -->
<g id="edge3" class="edge">
<title>Node4&#45;&gt;Node3</title>
<path fill="none" stroke="#404040" d="M418.48,-627.63C410.84,-615.33 401.28,-599.95 392.6,-585.99"/>
<polygon fill="none" stroke="#404040" points="392.52,-585.86 385.96,-582.87 386.19,-575.67 392.75,-578.65 392.52,-585.86"/>
<text text-anchor="middle" x="432" y="-597" font-family="Helvetica,sans-Serif" font-size="10.00"> +elements</text>
</g>
<!-- Node8 -->
<g id="node8" class="node">
<title>Node8</title>
<g id="a_node8"><a xlink:title="STL class.">
<polygon fill="white" stroke="#bfbfbf" points="512,-518.5 512,-575.5 638,-575.5 638,-518.5 512,-518.5"/>
<text text-anchor="middle" x="575" y="-563.5" font-family="Helvetica,sans-Serif" font-size="10.00">std::multimap&lt; K, T &gt;</text>
<polyline fill="none" stroke="#bfbfbf" points="512,-556.5 638,-556.5 "/>
<text text-anchor="start" x="520" y="-544.5" font-family="Helvetica,sans-Serif" font-size="10.00">+ keys</text>
<polyline fill="none" stroke="#bfbfbf" points="512,-537.5 638,-537.5 "/>
<text text-anchor="middle" x="575" y="-525.5" font-family="Helvetica,sans-Serif" font-size="10.00"> </text>
</a>
</g>
</g>
<!-- Node4&#45;&gt;Node8 -->
<g id="edge10" class="edge">
<title>Node4&#45;&gt;Node8</title>
<path fill="none" stroke="#404040" d="M447.66,-640.37C466.28,-626.86 499.32,-602.89 527.08,-582.76"/>
<polygon fill="none" stroke="#404040" points="527.32,-582.59 529.83,-575.82 537.03,-575.54 534.52,-582.3 527.32,-582.59"/>
<text text-anchor="middle" x="538" y="-597" font-family="Helvetica,sans-Serif" font-size="10.00"> +elements</text>
</g>
<!-- Node5&#45;&gt;Node1 -->
<g id="edge4" class="edge">
<title>Node5&#45;&gt;Node1</title>
<path fill="none" stroke="#404040" d="M240.9,-385.61C248.43,-365.62 258.83,-339.92 270,-318 276.55,-305.15 283.76,-292 291.25,-279"/>
<polygon fill="none" stroke="#404040" points="291.26,-278.97 290.83,-271.78 297.3,-268.61 297.74,-275.8 291.26,-278.97"/>
<text text-anchor="middle" x="320" y="-348.5" font-family="Helvetica,sans-Serif" font-size="10.00"> &#45;m_edges</text>
<text text-anchor="middle" x="320" y="-337.5" font-family="Helvetica,sans-Serif" font-size="10.00">&#45;m_timelike_edges</text>
<text text-anchor="middle" x="320" y="-326.5" font-family="Helvetica,sans-Serif" font-size="10.00">&#45;m_spacelike_edges</text>
</g>
<!-- Node6&#45;&gt;Node1 -->
<g id="edge6" class="edge">
<title>Node6&#45;&gt;Node1</title>
<path fill="none" stroke="#404040" d="M374,-385.87C374,-366.26 374,-339.82 374,-311.74"/>
<polygon fill="none" stroke="#404040" points="374,-311.62 370,-305.62 374,-299.62 378,-305.62 374,-311.62"/>
<text text-anchor="middle" x="400" y="-337.5" font-family="Helvetica,sans-Serif" font-size="10.00"> &#45;m_points</text>
</g>
<!-- Node7 -->
<g id="node7" class="node">
<title>Node7</title>
<g id="a_node7"><a xlink:title=" ">
<polygon fill="white" stroke="#bfbfbf" points="602.5,-380.5 602.5,-459.5 739.5,-459.5 739.5,-380.5 602.5,-380.5"/>
<text text-anchor="start" x="610.5" y="-447.5" font-family="Helvetica,sans-Serif" font-size="10.00">std::multimap&lt; Int</text>
<text text-anchor="middle" x="671" y="-436.5" font-family="Helvetica,sans-Serif" font-size="10.00">_precision, Facet&lt; 3 &gt; &gt;</text>
<polyline fill="none" stroke="#bfbfbf" points="602.5,-429.5 739.5,-429.5 "/>
<text text-anchor="start" x="610.5" y="-417.5" font-family="Helvetica,sans-Serif" font-size="10.00">+ elements</text>
<text text-anchor="start" x="610.5" y="-406.5" font-family="Helvetica,sans-Serif" font-size="10.00">+ keys</text>
<polyline fill="none" stroke="#bfbfbf" points="602.5,-399.5 739.5,-399.5 "/>
<text text-anchor="middle" x="671" y="-387.5" font-family="Helvetica,sans-Serif" font-size="10.00"> </text>
</a>
</g>
</g>
<!-- Node7&#45;&gt;Node1 -->
<g id="edge8" class="edge">
<title>Node7&#45;&gt;Node1</title>
<path fill="none" stroke="#404040" d="M628.13,-380.32C584.23,-340.7 514.79,-278.04 459.59,-228.23"/>
<polygon fill="none" stroke="#404040" points="459.41,-228.07 452.28,-227.02 450.5,-220.03 457.64,-221.08 459.41,-228.07"/>
<text text-anchor="middle" x="658.5" y="-337.5" font-family="Helvetica,sans-Serif" font-size="10.00"> &#45;m_spacelike_facets</text>
</g>
<!-- Node8&#45;&gt;Node7 -->
<g id="edge9" class="edge">
<title>Node8&#45;&gt;Node7</title>
<path fill="none" stroke="orange" d="M621.41,-511.56C625.2,-507.87 628.8,-503.99 632,-500 641.66,-487.94 649.76,-473.1 656.04,-459.55"/>
<polygon fill="orange" stroke="orange" points="618.93,-509.09 613.92,-518.42 623.66,-514.25 618.93,-509.09"/>
<text text-anchor="start" x="646" y="-492" font-family="Helvetica,sans-Serif" font-size="10.00"> &lt; Int_precision, Facet</text>
<text text-anchor="middle" x="700.5" y="-481" font-family="Helvetica,sans-Serif" font-size="10.00">&lt; 3 &gt; &gt;</text>
</g>
<!-- Node9&#45;&gt;Node1 -->
<g id="edge11" class="edge">
<title>Node9&#45;&gt;Node1</title>
<path fill="none" stroke="#404040" d="M498.45,-385.87C487.39,-365.01 472.24,-336.41 456.31,-306.34"/>
<polygon fill="none" stroke="#404040" points="456.26,-306.26 449.92,-302.83 450.65,-295.66 456.99,-299.08 456.26,-306.26"/>
<text text-anchor="middle" x="520" y="-354" font-family="Helvetica,sans-Serif" font-size="10.00"> &#45;m_cells</text>
<text text-anchor="middle" x="520" y="-343" font-family="Helvetica,sans-Serif" font-size="10.00">&#45;m_one_three</text>
<text text-anchor="middle" x="520" y="-332" font-family="Helvetica,sans-Serif" font-size="10.00">&#45;m_three_one</text>
<text text-anchor="middle" x="520" y="-321" font-family="Helvetica,sans-Serif" font-size="10.00">&#45;m_two_two</text>
</g>
</g>
</svg>
        <g id="navigator" transform="translate(0 0)" fill="#404254">
                <rect fill="#f2f5e9" fill-opacity="0.5" stroke="#606060" stroke-width=".5" x="0" y="0" width="60" height="60"/>
                <use id="zoomplus" xlink:href="#zoomPlus" x="17" y="9" onmousedown="handleZoom(evt,'in')"/>
                <use id="zoomminus" xlink:href="#zoomMin" x="42" y="9" onmousedown="handleZoom(evt,'out')"/>
                <use id="reset" xlink:href="#resetDef" x="30" y="36" onmousedown="handleReset()"/>
                <g id="arrowUp" xlink:href="#dirArrow" transform="translate(30 24)" onmousedown="handlePan(0,-1)">
                  <use xlink:href="#rim" fill="#404040">
                        <set attributeName="fill" to="#808080" begin="arrowUp.mouseover" end="arrowUp.mouseout"/>
                  </use>
                  <path fill="none" stroke="white" stroke-width="1.5" d="M0,-3.0v7 M-2.5,-0.5L0,-3.0L2.5,-0.5"/>
                </g>
                <g id="arrowRight" xlink:href="#dirArrow" transform="rotate(90) translate(36 -43)" onmousedown="handlePan(1,0)">
                  <use xlink:href="#rim" fill="#404040">
                        <set attributeName="fill" to="#808080" begin="arrowRight.mouseover" end="arrowRight.mouseout"/>
                  </use>
                  <path fill="none" stroke="white" stroke-width="1.5" d="M0,-3.0v7 M-2.5,-0.5L0,-3.0L2.5,-0.5"/>
                </g>
                <g id="arrowDown" xlink:href="#dirArrow" transform="rotate(180) translate(-30 -48)" onmousedown="handlePan(0,1)">
                  <use xlink:href="#rim" fill="#404040">
                        <set attributeName="fill" to="#808080" begin="arrowDown.mouseover" end="arrowDown.mouseout"/>
                  </use>
                  <path fill="none" stroke="white" stroke-width="1.5" d="M0,-3.0v7 M-2.5,-0.5L0,-3.0L2.5,-0.5"/>
                </g>
                <g id="arrowLeft" xlink:href="#dirArrow" transform="rotate(270) translate(-36 17)" onmousedown="handlePan(-1,0)">
                  <use xlink:href="#rim" fill="#404040">
                        <set attributeName="fill" to="#808080" begin="arrowLeft.mouseover" end="arrowLeft.mouseout"/>
                  </use>
                  <path fill="none" stroke="white" stroke-width="1.5" d="M0,-3.0v7 M-2.5,-0.5L0,-3.0L2.5,-0.5"/>
                </g>
        </g>
        <svg viewBox="0 0 15 15" width="100%" height="30px" preserveAspectRatio="xMaxYMin meet">
         <g id="arrow_out" transform="scale(0.3 0.3)">
          <a xlink:href="class_foliated_triangulations_1_1_foliated_triangulation_3_013_01_4__coll__graph_org.svg" target="_base">
           <rect id="button" ry="5" rx="5" y="6" x="6" height="38" width="38"
                fill="#f2f5e9" fill-opacity="0.5" stroke="#606060" stroke-width="1.0"/>
           <path id="arrow"
             d="M 11.500037,31.436501 C 11.940474,20.09759 22.043105,11.32322 32.158766,21.979434 L 37.068811,17.246167 C 37.068811,17.246167 37.088388,32 37.088388,32 L 22.160133,31.978069 C 22.160133,31.978069 26.997745,27.140456 26.997745,27.140456 C 18.528582,18.264221 13.291696,25.230495 11.500037,31.436501 z"
             style="fill:#404040;"/>
          </a>
         </g>
        </svg>
</svg>
