<?xml version="1.0" encoding="UTF-8" standalone="no"?>
<!DOCTYPE svg PUBLIC "-//W3C//DTD SVG 1.1//EN"
 "http://www.w3.org/Graphics/SVG/1.1/DTD/svg11.dtd">
<!-- Generated by graphviz version 15.1.0 (20260618.0150)
 -->
<!-- Title: manifolds::Manifold&lt; 3 &gt; Pages: 1 -->
<!--zoomable 1106 -->

<svg id="main" version="1.1" xmlns="http://www.w3.org/2000/svg" xmlns:xlink="http://www.w3.org/1999/xlink" xml:space="preserve" onload="init(evt)">

<style type="text/css"><![CDATA[
.node, .edge {opacity: 0.7;}
.node.selected, .edge.selected {opacity: 1;}
.edge:hover path { stroke: red; }
.edge:hover polygon { stroke: red; fill: red; }
]]></style>

<defs>
  <circle id="rim" cx="0" cy="0" r="7"/>
  <circle id="rim2" cx="0" cy="0" r="3.5"/>
  <g id="zoomPlus">
    <use xlink:href="#rim" fill="#404040"><set attributeName="fill" to="#808080" begin="zoomplus.mouseover" end="zoomplus.mouseout"/></use>
    <path d="M-4,0h8M0,-4v8" fill="none" stroke="white" stroke-width="1.5" pointer-events="none"/>
  </g>
  <g id="zoomMin">
    <use xlink:href="#rim" fill="#404040"><set attributeName="fill" to="#808080" begin="zoomminus.mouseover" end="zoomminus.mouseout"/></use>
    <path d="M-4,0h8" fill="none" stroke="white" stroke-width="1.5" pointer-events="none"/>
  </g>
  <g id="arrowUp" transform="translate(30 24)">
    <use xlink:href="#rim"/>
    <path pointer-events="none" fill="none" stroke="white" stroke-width="1.5" d="M0,-3.0v7 M-2.5,-0.5L0,-3.0L2.5,-0.5"/>
  </g>
  <g id="arrowRight" transform="rotate(90) translate(36 -43)">
    <use xlink:href="#rim"/>
    <path pointer-events="none" fill="none" stroke="white" stroke-width="1.5" d="M0,-3.0v7 M-2.5,-0.5L0,-3.0L2.5,-0.5"/>
  </g>
  <g id="arrowDown" transform="rotate(180) translate(-30 -48)">
    <use xlink:href="#rim"/>
    <path pointer-events="none" fill="none" stroke="white" stroke-width="1.5" d="M0,-3.0v7 M-2.5,-0.5L0,-3.0L2.5,-0.5"/>
  </g>
  <g id="arrowLeft" transform="rotate(270) translate(-36 17)">
    <use xlink:href="#rim"/>
    <path pointer-events="none" fill="none" stroke="white" stroke-width="1.5" d="M0,-3.0v7 M-2.5,-0.5L0,-3.0L2.5,-0.5"/>
  </g>
  <g id="resetDef">
    <use xlink:href="#rim2" fill="#404040"><set attributeName="fill" to="#808080" begin="reset.mouseover" end="reset.mouseout"/></use>
  </g>
</defs>
<script type="application/ecmascript">
var viewWidth = 978;
var viewHeight = 1106;
var sectionId = 'dynsection-1';
</script>
<script type="application/ecmascript" xlink:href="svg.min.js"/>
<svg id="graph" class="graph">
<g id="viewport">
<title>manifolds::Manifold&lt; 3 &gt;</title>
<!-- Node1 -->
<g id="Node000001" class="node">
<title>Node1</title>
<g id="a_Node000001"><a xlink:title="3D Manifold">
<polygon fill="#999999" stroke="none" points="826.25,-238.5 692.25,-238.5 692.25,0 826.25,0 826.25,-238.5"/>
<text xml:space="preserve" text-anchor="start" x="696.25" y="-224.75" font-family="Helvetica,sans-Serif" font-size="10.00">manifolds::Manifold&lt; 3 &gt;</text>
<text xml:space="preserve" text-anchor="start" x="702.75" y="-208" font-family="Helvetica,sans-Serif" font-size="10.00">+</text>
<text xml:space="preserve" text-anchor="start" x="721.5" y="-208" font-family="Helvetica,sans-Serif" font-size="10.00">dimension</text>
<text xml:space="preserve" text-anchor="start" x="702.75" y="-191.25" font-family="Helvetica,sans-Serif" font-size="10.00">+</text>
<text xml:space="preserve" text-anchor="start" x="721.5" y="-191.25" font-family="Helvetica,sans-Serif" font-size="10.00">topology</text>
<text xml:space="preserve" text-anchor="start" x="702.75" y="-174.5" font-family="Helvetica,sans-Serif" font-size="10.00">+</text>
<text xml:space="preserve" text-anchor="start" x="721.5" y="-174.5" font-family="Helvetica,sans-Serif" font-size="10.00">Manifold()</text>
<text xml:space="preserve" text-anchor="start" x="702.75" y="-157.75" font-family="Helvetica,sans-Serif" font-size="10.00">+</text>
<text xml:space="preserve" text-anchor="start" x="721.5" y="-157.75" font-family="Helvetica,sans-Serif" font-size="10.00">Manifold()</text>
<text xml:space="preserve" text-anchor="start" x="702.75" y="-141" font-family="Helvetica,sans-Serif" font-size="10.00">+</text>
<text xml:space="preserve" text-anchor="start" x="721.5" y="-141" font-family="Helvetica,sans-Serif" font-size="10.00">Manifold()</text>
<text xml:space="preserve" text-anchor="start" x="702.75" y="-124.25" font-family="Helvetica,sans-Serif" font-size="10.00">+</text>
<text xml:space="preserve" text-anchor="start" x="721.5" y="-124.25" font-family="Helvetica,sans-Serif" font-size="10.00">Manifold()</text>
<text xml:space="preserve" text-anchor="start" x="702.75" y="-107.5" font-family="Helvetica,sans-Serif" font-size="10.00">+</text>
<text xml:space="preserve" text-anchor="start" x="721.5" y="-107.5" font-family="Helvetica,sans-Serif" font-size="10.00">Manifold()</text>
<text xml:space="preserve" text-anchor="start" x="702.75" y="-90.75" font-family="Helvetica,sans-Serif" font-size="10.00">+</text>
<text xml:space="preserve" text-anchor="start" x="721.5" y="-90.75" font-family="Helvetica,sans-Serif" font-size="10.00">Manifold()</text>
<text xml:space="preserve" text-anchor="start" x="702.75" y="-74" font-family="Helvetica,sans-Serif" font-size="10.00">+</text>
<text xml:space="preserve" text-anchor="start" x="721.5" y="-74" font-family="Helvetica,sans-Serif" font-size="10.00">Manifold()</text>
<text xml:space="preserve" text-anchor="start" x="702.75" y="-57.25" font-family="Helvetica,sans-Serif" font-size="10.00">+</text>
<text xml:space="preserve" text-anchor="start" x="721.5" y="-57.25" font-family="Helvetica,sans-Serif" font-size="10.00">~Manifold()</text>
<text xml:space="preserve" text-anchor="start" x="702.75" y="-40.5" font-family="Helvetica,sans-Serif" font-size="10.00">+</text>
<text xml:space="preserve" text-anchor="start" x="721.5" y="-40.5" font-family="Helvetica,sans-Serif" font-size="10.00">check_simplices()</text>
<text xml:space="preserve" text-anchor="start" x="702.75" y="-23.75" font-family="Helvetica,sans-Serif" font-size="10.00">+</text>
<text xml:space="preserve" text-anchor="start" x="721.5" y="-23.75" font-family="Helvetica,sans-Serif" font-size="10.00">check_vertices()</text>
<text xml:space="preserve" text-anchor="start" x="721.5" y="-7" font-family="Helvetica,sans-Serif" font-size="10.00">and 34 more...</text>
<polygon fill="#666666" stroke="#666666" points="692.25,-219.75 692.25,-219.75 826.25,-219.75 826.25,-219.75 692.25,-219.75"/>
<polygon fill="#666666" stroke="#666666" points="692.25,-186.25 692.25,-186.25 719.5,-186.25 719.5,-186.25 692.25,-186.25"/>
<polygon fill="#666666" stroke="#666666" points="719.5,-186.25 719.5,-186.25 826.25,-186.25 826.25,-186.25 719.5,-186.25"/>
<polygon fill="none" stroke="#666666" points="692.25,0 692.25,-238.5 826.25,-238.5 826.25,0 692.25,0"/>
</a>
</g>
</g>
<!-- Node2 -->
<g id="Node000002" class="node">
<title>Node2</title>
<g id="a_Node000002"><a xlink:href="classfoliated__triangulations_1_1_foliated_triangulation_3_013_01_4.html" target="_top" xlink:title="3D Foliated triangulation">
<polygon fill="white" stroke="none" points="552.5,-695.25 408,-695.25 408,-293.25 552.5,-293.25 552.5,-695.25"/>
<text xml:space="preserve" text-anchor="start" x="412" y="-681.5" font-family="Helvetica,sans-Serif" font-size="10.00">foliated_triangulations</text>
<text xml:space="preserve" text-anchor="start" x="412" y="-668.75" font-family="Helvetica,sans-Serif" font-size="10.00">::FoliatedTriangulation&lt; 3 &gt;</text>
<text xml:space="preserve" text-anchor="start" x="414.75" y="-652" font-family="Helvetica,sans-Serif" font-size="10.00">&#45;</text>
<text xml:space="preserve" text-anchor="start" x="425.25" y="-652" font-family="Helvetica,sans-Serif" font-size="10.00">m_foliation_spacing</text>
<text xml:space="preserve" text-anchor="start" x="414.75" y="-635.25" font-family="Helvetica,sans-Serif" font-size="10.00">&#45;</text>
<text xml:space="preserve" text-anchor="start" x="425.25" y="-635.25" font-family="Helvetica,sans-Serif" font-size="10.00">m_initial_radius</text>
<text xml:space="preserve" text-anchor="start" x="414.75" y="-618.5" font-family="Helvetica,sans-Serif" font-size="10.00">&#45;</text>
<text xml:space="preserve" text-anchor="start" x="425.25" y="-618.5" font-family="Helvetica,sans-Serif" font-size="10.00">m_max_timevalue</text>
<text xml:space="preserve" text-anchor="start" x="414.75" y="-601.75" font-family="Helvetica,sans-Serif" font-size="10.00">&#45;</text>
<text xml:space="preserve" text-anchor="start" x="425.25" y="-601.75" font-family="Helvetica,sans-Serif" font-size="10.00">m_min_timevalue</text>
<text xml:space="preserve" text-anchor="start" x="414.75" y="-585" font-family="Helvetica,sans-Serif" font-size="10.00">&#45;</text>
<text xml:space="preserve" text-anchor="start" x="425.25" y="-585" font-family="Helvetica,sans-Serif" font-size="10.00">m_triangulation</text>
<text xml:space="preserve" text-anchor="start" x="412.5" y="-568.25" font-family="Helvetica,sans-Serif" font-size="10.00">+</text>
<text xml:space="preserve" text-anchor="start" x="425.25" y="-568.25" font-family="Helvetica,sans-Serif" font-size="10.00">FoliatedTriangulation()</text>
<text xml:space="preserve" text-anchor="start" x="412.5" y="-551.5" font-family="Helvetica,sans-Serif" font-size="10.00">+</text>
<text xml:space="preserve" text-anchor="start" x="425.25" y="-551.5" font-family="Helvetica,sans-Serif" font-size="10.00">FoliatedTriangulation()</text>
<text xml:space="preserve" text-anchor="start" x="412.5" y="-534.75" font-family="Helvetica,sans-Serif" font-size="10.00">+</text>
<text xml:space="preserve" text-anchor="start" x="425.25" y="-534.75" font-family="Helvetica,sans-Serif" font-size="10.00">FoliatedTriangulation()</text>
<text xml:space="preserve" text-anchor="start" x="412.5" y="-518" font-family="Helvetica,sans-Serif" font-size="10.00">+</text>
<text xml:space="preserve" text-anchor="start" x="425.25" y="-518" font-family="Helvetica,sans-Serif" font-size="10.00">FoliatedTriangulation()</text>
<text xml:space="preserve" text-anchor="start" x="412.5" y="-501.25" font-family="Helvetica,sans-Serif" font-size="10.00">+</text>
<text xml:space="preserve" text-anchor="start" x="425.25" y="-501.25" font-family="Helvetica,sans-Serif" font-size="10.00">FoliatedTriangulation()</text>
<text xml:space="preserve" text-anchor="start" x="412.5" y="-484.5" font-family="Helvetica,sans-Serif" font-size="10.00">+</text>
<text xml:space="preserve" text-anchor="start" x="425.25" y="-484.5" font-family="Helvetica,sans-Serif" font-size="10.00">FoliatedTriangulation()</text>
<text xml:space="preserve" text-anchor="start" x="412.5" y="-467.75" font-family="Helvetica,sans-Serif" font-size="10.00">+</text>
<text xml:space="preserve" text-anchor="start" x="425.25" y="-467.75" font-family="Helvetica,sans-Serif" font-size="10.00">FoliatedTriangulation()</text>
<text xml:space="preserve" text-anchor="start" x="412.5" y="-451" font-family="Helvetica,sans-Serif" font-size="10.00">+</text>
<text xml:space="preserve" text-anchor="start" x="425.25" y="-451" font-family="Helvetica,sans-Serif" font-size="10.00">~FoliatedTriangulation()</text>
<text xml:space="preserve" text-anchor="start" x="412.5" y="-434.25" font-family="Helvetica,sans-Serif" font-size="10.00">+</text>
<text xml:space="preserve" text-anchor="start" x="425.25" y="-434.25" font-family="Helvetica,sans-Serif" font-size="10.00">check_all_cells()</text>
<text xml:space="preserve" text-anchor="start" x="412.5" y="-417.5" font-family="Helvetica,sans-Serif" font-size="10.00">+</text>
<text xml:space="preserve" text-anchor="start" x="425.25" y="-417.5" font-family="Helvetica,sans-Serif" font-size="10.00">check_all_vertices()</text>
<text xml:space="preserve" text-anchor="start" x="425.25" y="-400.75" font-family="Helvetica,sans-Serif" font-size="10.00">and 35 more...</text>
<text xml:space="preserve" text-anchor="start" x="414.75" y="-384" font-family="Helvetica,sans-Serif" font-size="10.00">&#45;</text>
<text xml:space="preserve" text-anchor="start" x="425.25" y="-384" font-family="Helvetica,sans-Serif" font-size="10.00">classify_cells()</text>
<text xml:space="preserve" text-anchor="start" x="414.75" y="-367.25" font-family="Helvetica,sans-Serif" font-size="10.00">&#45;</text>
<text xml:space="preserve" text-anchor="start" x="425.25" y="-367.25" font-family="Helvetica,sans-Serif" font-size="10.00">classify_vertices()</text>
<text xml:space="preserve" text-anchor="start" x="414.75" y="-350.5" font-family="Helvetica,sans-Serif" font-size="10.00">&#45;</text>
<text xml:space="preserve" text-anchor="start" x="425.25" y="-350.5" font-family="Helvetica,sans-Serif" font-size="10.00">collect_edges()</text>
<text xml:space="preserve" text-anchor="start" x="414.75" y="-333.75" font-family="Helvetica,sans-Serif" font-size="10.00">&#45;</text>
<text xml:space="preserve" text-anchor="start" x="425.25" y="-333.75" font-family="Helvetica,sans-Serif" font-size="10.00">collect_faces()</text>
<text xml:space="preserve" text-anchor="start" x="414.75" y="-317" font-family="Helvetica,sans-Serif" font-size="10.00">&#45;</text>
<text xml:space="preserve" text-anchor="start" x="425.25" y="-317" font-family="Helvetica,sans-Serif" font-size="10.00">cache_spacelike_facets()</text>
<text xml:space="preserve" text-anchor="start" x="414.75" y="-300.25" font-family="Helvetica,sans-Serif" font-size="10.00">&#45;</text>
<text xml:space="preserve" text-anchor="start" x="425.25" y="-300.25" font-family="Helvetica,sans-Serif" font-size="10.00">require_nonempty()</text>
<polygon fill="#666666" stroke="#666666" points="408,-663.75 408,-663.75 552.5,-663.75 552.5,-663.75 408,-663.75"/>
<polygon fill="#666666" stroke="#666666" points="408,-580 408,-580 423.25,-580 423.25,-580 408,-580"/>
<polygon fill="#666666" stroke="#666666" points="423.25,-580 423.25,-580 552.5,-580 552.5,-580 423.25,-580"/>
<polygon fill="none" stroke="#666666" points="408,-293.25 408,-695.25 552.5,-695.25 552.5,-293.25 408,-293.25"/>
</a>
</g>
</g>
<!-- Node2&#45;&gt;Node1 -->
<g id="edge1_Node000001_Node000002" class="edge">
<title>Node2&#45;&gt;Node1</title>
<g id="a_edge1_Node000001_Node000002"><a xlink:title=" ">
<path fill="none" stroke="#63b8ff" d="M552.46,-396.71C593.04,-342.46 643.6,-274.87 684.57,-220.09"/>
<polygon fill="none" stroke="#63b8ff" points="684.64,-220 685.03,-212.8 691.83,-210.39 691.44,-217.59 684.64,-220"/>
</a>
</g>
<text xml:space="preserve" text-anchor="start" x="655.94" y="-262.5" font-family="Helvetica,sans-Serif" font-size="10.00" fill="grey">&#45;m_triangulation</text>
</g>
<!-- Node3 -->
<g id="Node000003" class="node">
<title>Node3</title>
<g id="a_Node000003"><a xlink:title=" ">
<polygon fill="white" stroke="none" points="102.5,-873.62 0,-873.62 0,-806.62 102.5,-806.62 102.5,-873.62"/>
<text xml:space="preserve" text-anchor="start" x="4" y="-859.88" font-family="Helvetica,sans-Serif" font-size="10.00">std::vector&lt; Vertex</text>
<text xml:space="preserve" text-anchor="start" x="26.5" y="-847.12" font-family="Helvetica,sans-Serif" font-size="10.00">_handle &gt;</text>
<text xml:space="preserve" text-anchor="start" x="13.12" y="-830.38" font-family="Helvetica,sans-Serif" font-size="10.00">+</text>
<text xml:space="preserve" text-anchor="start" x="34.5" y="-830.38" font-family="Helvetica,sans-Serif" font-size="10.00">elements</text>
<text xml:space="preserve" text-anchor="start" x="49.75" y="-813.62" font-family="Helvetica,sans-Serif" font-size="10.00"> </text>
<polygon fill="#666666" stroke="#666666" points="0,-842.12 0,-842.12 102.5,-842.12 102.5,-842.12 0,-842.12"/>
<polygon fill="#666666" stroke="#666666" points="0,-825.38 0,-825.38 32.5,-825.38 32.5,-825.38 0,-825.38"/>
<polygon fill="#666666" stroke="#666666" points="32.5,-825.38 32.5,-825.38 102.5,-825.38 102.5,-825.38 32.5,-825.38"/>
<polygon fill="none" stroke="#666666" points="0,-806.62 0,-873.62 102.5,-873.62 102.5,-806.62 0,-806.62"/>
</a>
</g>
</g>
<!-- Node3&#45;&gt;Node2 -->
<g id="edge2_Node000002_Node000003" class="edge">
<title>Node3&#45;&gt;Node2</title>
<g id="a_edge2_Node000002_Node000003"><a xlink:title=" ">
<path fill="none" stroke="#63b8ff" d="M77.4,-806.76C99.67,-780.18 133.26,-742.31 166.5,-713.25 239.7,-649.26 331.95,-587.07 397.42,-545.61"/>
<polygon fill="none" stroke="#63b8ff" points="397.19,-545.76 400.13,-539.17 407.34,-539.36 404.4,-545.94 397.19,-545.76"/>
</a>
</g>
<text xml:space="preserve" text-anchor="start" x="169.5" y="-744.38" font-family="Helvetica,sans-Serif" font-size="10.00" fill="grey">&#45;m_vertices</text>
</g>
<!-- Node4 -->
<g id="Node000004" class="node">
<title>Node4</title>
<g id="a_Node000004"><a xlink:title=" ">
<polygon fill="white" stroke="none" points="375.38,-989 287.12,-989 287.12,-934.75 375.38,-934.75 375.38,-989"/>
<text xml:space="preserve" text-anchor="start" x="291.12" y="-975.25" font-family="Helvetica,sans-Serif" font-size="10.00">std::vector&lt; T &gt;</text>
<text xml:space="preserve" text-anchor="start" x="329.75" y="-958.5" font-family="Helvetica,sans-Serif" font-size="10.00"> </text>
<text xml:space="preserve" text-anchor="start" x="329.75" y="-941.75" font-family="Helvetica,sans-Serif" font-size="10.00"> </text>
<polygon fill="#666666" stroke="#666666" points="287.12,-970.25 287.12,-970.25 375.38,-970.25 375.38,-970.25 287.12,-970.25"/>
<polygon fill="#666666" stroke="#666666" points="287.12,-953.5 287.12,-953.5 375.38,-953.5 375.38,-953.5 287.12,-953.5"/>
<polygon fill="none" stroke="#666666" points="287.12,-934.75 287.12,-989 375.38,-989 375.38,-934.75 287.12,-934.75"/>
</a>
</g>
</g>
<!-- Node4&#45;&gt;Node3 -->
<g id="edge3_Node000003_Node000004" class="edge">
<title>Node4&#45;&gt;Node3</title>
<g id="a_edge3_Node000003_Node000004"><a xlink:title=" ">
<path fill="none" stroke="orange" d="M275.91,-958.29C231.76,-954.17 169.65,-943.61 122,-916.75 103.2,-906.16 86.48,-888.88 74.02,-873.51"/>
<polygon fill="orange" stroke="orange" points="275.52,-961.77 285.78,-959.12 276.11,-954.8 275.52,-961.77"/>
</a>
</g>
<text xml:space="preserve" text-anchor="start" x="125" y="-904" font-family="Helvetica,sans-Serif" font-size="10.00" fill="grey">&lt; Vertex_handle &gt;</text>
</g>
<!-- Node6 -->
<g id="Node000006" class="node">
<title>Node6</title>
<g id="a_Node000006"><a xlink:title=" ">
<polygon fill="white" stroke="none" points="259.88,-867.25 120.62,-867.25 120.62,-813 259.88,-813 259.88,-867.25"/>
<text xml:space="preserve" text-anchor="start" x="124.62" y="-853.5" font-family="Helvetica,sans-Serif" font-size="10.00">std::vector&lt; Cell_handle &gt;</text>
<text xml:space="preserve" text-anchor="start" x="142.94" y="-836.75" font-family="Helvetica,sans-Serif" font-size="10.00">+</text>
<text xml:space="preserve" text-anchor="start" x="173.5" y="-836.75" font-family="Helvetica,sans-Serif" font-size="10.00">elements</text>
<text xml:space="preserve" text-anchor="start" x="188.75" y="-820" font-family="Helvetica,sans-Serif" font-size="10.00"> </text>
<polygon fill="#666666" stroke="#666666" points="120.62,-848.5 120.62,-848.5 259.88,-848.5 259.88,-848.5 120.62,-848.5"/>
<polygon fill="#666666" stroke="#666666" points="120.62,-831.75 120.62,-831.75 171.5,-831.75 171.5,-831.75 120.62,-831.75"/>
<polygon fill="#666666" stroke="#666666" points="171.5,-831.75 171.5,-831.75 259.88,-831.75 259.88,-831.75 171.5,-831.75"/>
<polygon fill="none" stroke="#666666" points="120.62,-813 120.62,-867.25 259.88,-867.25 259.88,-813 120.62,-813"/>
</a>
</g>
</g>
<!-- Node4&#45;&gt;Node6 -->
<g id="edge6_Node000006_Node000004" class="edge">
<title>Node4&#45;&gt;Node6</title>
<g id="a_edge6_Node000006_Node000004"><a xlink:title=" ">
<path fill="none" stroke="orange" d="M277.19,-939.8C264.77,-933.5 252.17,-925.81 241.75,-916.75 225.8,-902.89 212.53,-883.02 203.45,-867.13"/>
<polygon fill="orange" stroke="orange" points="275.64,-942.94 286.17,-944.11 278.67,-936.63 275.64,-942.94"/>
</a>
</g>
<text xml:space="preserve" text-anchor="start" x="244.75" y="-904" font-family="Helvetica,sans-Serif" font-size="10.00" fill="grey">&lt; Cell_handle &gt;</text>
</g>
<!-- Node7 -->
<g id="Node000007" class="node">
<title>Node7</title>
<g id="a_Node000007"><a xlink:title=" ">
<polygon fill="white" stroke="none" points="408.75,-873.62 277.75,-873.62 277.75,-806.62 408.75,-806.62 408.75,-873.62"/>
<text xml:space="preserve" text-anchor="start" x="281.75" y="-859.88" font-family="Helvetica,sans-Serif" font-size="10.00">std::vector&lt; Face_handle</text>
<text xml:space="preserve" text-anchor="start" x="318.88" y="-847.12" font-family="Helvetica,sans-Serif" font-size="10.00">_t&lt; 3 &gt; &gt;</text>
<text xml:space="preserve" text-anchor="start" x="298" y="-830.38" font-family="Helvetica,sans-Serif" font-size="10.00">+</text>
<text xml:space="preserve" text-anchor="start" x="326.5" y="-830.38" font-family="Helvetica,sans-Serif" font-size="10.00">elements</text>
<text xml:space="preserve" text-anchor="start" x="341.75" y="-813.62" font-family="Helvetica,sans-Serif" font-size="10.00"> </text>
<polygon fill="#666666" stroke="#666666" points="277.75,-842.12 277.75,-842.12 408.75,-842.12 408.75,-842.12 277.75,-842.12"/>
<polygon fill="#666666" stroke="#666666" points="277.75,-825.38 277.75,-825.38 324.5,-825.38 324.5,-825.38 277.75,-825.38"/>
<polygon fill="#666666" stroke="#666666" points="324.5,-825.38 324.5,-825.38 408.75,-825.38 408.75,-825.38 324.5,-825.38"/>
<polygon fill="none" stroke="#666666" points="277.75,-806.62 277.75,-873.62 408.75,-873.62 408.75,-806.62 277.75,-806.62"/>
</a>
</g>
</g>
<!-- Node4&#45;&gt;Node7 -->
<g id="edge8_Node000007_Node000004" class="edge">
<title>Node4&#45;&gt;Node7</title>
<g id="a_edge8_Node000007_Node000004"><a xlink:title=" ">
<path fill="none" stroke="orange" d="M330.77,-923.39C330.96,-915.02 331.4,-906.19 332.25,-898 333.08,-890 334.47,-881.44 335.98,-873.46"/>
<polygon fill="orange" stroke="orange" points="327.27,-923.26 330.66,-933.3 334.27,-923.34 327.27,-923.26"/>
</a>
</g>
<text xml:space="preserve" text-anchor="start" x="335.25" y="-904" font-family="Helvetica,sans-Serif" font-size="10.00" fill="grey">&lt; Face_handle_t&lt; 3 &gt; &gt;</text>
</g>
<!-- Node8 -->
<g id="Node000008" class="node">
<title>Node8</title>
<g id="a_Node000008"><a xlink:title=" ">
<polygon fill="white" stroke="none" points="534.12,-873.62 426.38,-873.62 426.38,-806.62 534.12,-806.62 534.12,-873.62"/>
<text xml:space="preserve" text-anchor="start" x="430.38" y="-859.88" font-family="Helvetica,sans-Serif" font-size="10.00">std::vector&lt; Volume</text>
<text xml:space="preserve" text-anchor="start" x="459.25" y="-847.12" font-family="Helvetica,sans-Serif" font-size="10.00">_entry &gt;</text>
<text xml:space="preserve" text-anchor="start" x="440.81" y="-830.38" font-family="Helvetica,sans-Serif" font-size="10.00">+</text>
<text xml:space="preserve" text-anchor="start" x="463.5" y="-830.38" font-family="Helvetica,sans-Serif" font-size="10.00">elements</text>
<text xml:space="preserve" text-anchor="start" x="478.75" y="-813.62" font-family="Helvetica,sans-Serif" font-size="10.00"> </text>
<polygon fill="#666666" stroke="#666666" points="426.38,-842.12 426.38,-842.12 534.12,-842.12 534.12,-842.12 426.38,-842.12"/>
<polygon fill="#666666" stroke="#666666" points="426.38,-825.38 426.38,-825.38 461.5,-825.38 461.5,-825.38 426.38,-825.38"/>
<polygon fill="#666666" stroke="#666666" points="461.5,-825.38 461.5,-825.38 534.12,-825.38 534.12,-825.38 461.5,-825.38"/>
<polygon fill="none" stroke="#666666" points="426.38,-806.62 426.38,-873.62 534.12,-873.62 534.12,-806.62 426.38,-806.62"/>
</a>
</g>
</g>
<!-- Node4&#45;&gt;Node8 -->
<g id="edge10_Node000008_Node000004" class="edge">
<title>Node4&#45;&gt;Node8</title>
<g id="a_edge10_Node000008_Node000004"><a xlink:title=" ">
<path fill="none" stroke="orange" d="M386.51,-953.43C411.47,-947.4 439.5,-936.49 458.25,-916.75 469.27,-905.15 474.81,-888.36 477.58,-873.54"/>
<polygon fill="orange" stroke="orange" points="385.81,-950 376.78,-955.55 387.3,-956.84 385.81,-950"/>
</a>
</g>
<text xml:space="preserve" text-anchor="start" x="472.8" y="-904" font-family="Helvetica,sans-Serif" font-size="10.00" fill="grey">&lt; Volume_entry &gt;</text>
</g>
<!-- Node9 -->
<g id="Node000009" class="node">
<title>Node9</title>
<g id="a_Node000009"><a xlink:title=" ">
<polygon fill="white" stroke="none" points="685.88,-873.62 552.62,-873.62 552.62,-806.62 685.88,-806.62 685.88,-873.62"/>
<text xml:space="preserve" text-anchor="start" x="556.62" y="-859.88" font-family="Helvetica,sans-Serif" font-size="10.00">std::vector&lt; Edge_handle</text>
<text xml:space="preserve" text-anchor="start" x="594.88" y="-847.12" font-family="Helvetica,sans-Serif" font-size="10.00">_t&lt; 3 &gt; &gt;</text>
<text xml:space="preserve" text-anchor="start" x="573.44" y="-830.38" font-family="Helvetica,sans-Serif" font-size="10.00">+</text>
<text xml:space="preserve" text-anchor="start" x="602.5" y="-830.38" font-family="Helvetica,sans-Serif" font-size="10.00">elements</text>
<text xml:space="preserve" text-anchor="start" x="617.75" y="-813.62" font-family="Helvetica,sans-Serif" font-size="10.00"> </text>
<polygon fill="#666666" stroke="#666666" points="552.62,-842.12 552.62,-842.12 685.88,-842.12 685.88,-842.12 552.62,-842.12"/>
<polygon fill="#666666" stroke="#666666" points="552.62,-825.38 552.62,-825.38 600.5,-825.38 600.5,-825.38 552.62,-825.38"/>
<polygon fill="#666666" stroke="#666666" points="600.5,-825.38 600.5,-825.38 685.88,-825.38 685.88,-825.38 600.5,-825.38"/>
<polygon fill="none" stroke="#666666" points="552.62,-806.62 552.62,-873.62 685.88,-873.62 685.88,-806.62 552.62,-806.62"/>
</a>
</g>
</g>
<!-- Node4&#45;&gt;Node9 -->
<g id="edge12_Node000009_Node000004" class="edge">
<title>Node4&#45;&gt;Node9</title>
<g id="a_edge12_Node000009_Node000004"><a xlink:title=" ">
<path fill="none" stroke="orange" d="M386.7,-955.74C447.67,-949.21 540.88,-936.38 570.25,-916.75 585.99,-906.23 597.8,-888.76 605.87,-873.26"/>
<polygon fill="orange" stroke="orange" points="386.43,-952.25 376.85,-956.76 387.16,-959.21 386.43,-952.25"/>
</a>
</g>
<text xml:space="preserve" text-anchor="start" x="592.69" y="-904" font-family="Helvetica,sans-Serif" font-size="10.00" fill="grey">&lt; Edge_handle_t&lt; 3 &gt; &gt;</text>
</g>
<!-- Node5 -->
<g id="Node000005" class="node">
<title>Node5</title>
<g id="a_Node000005"><a xlink:title=" ">
<polygon fill="white" stroke="none" points="338.25,-1098 324.25,-1098 324.25,-1043.75 338.25,-1043.75 338.25,-1098"/>
<text xml:space="preserve" text-anchor="start" x="328.25" y="-1084.25" font-family="Helvetica,sans-Serif" font-size="10.00">T</text>
<text xml:space="preserve" text-anchor="start" x="329.75" y="-1067.5" font-family="Helvetica,sans-Serif" font-size="10.00"> </text>
<text xml:space="preserve" text-anchor="start" x="329.75" y="-1050.75" font-family="Helvetica,sans-Serif" font-size="10.00"> </text>
<polygon fill="#bfbfbf" stroke="#bfbfbf" points="324.25,-1079.25 324.25,-1079.25 338.25,-1079.25 338.25,-1079.25 324.25,-1079.25"/>
<polygon fill="#bfbfbf" stroke="#bfbfbf" points="324.25,-1062.5 324.25,-1062.5 338.25,-1062.5 338.25,-1062.5 324.25,-1062.5"/>
<polygon fill="none" stroke="#bfbfbf" points="324.25,-1043.75 324.25,-1098 338.25,-1098 338.25,-1043.75 324.25,-1043.75"/>
</a>
</g>
</g>
<!-- Node5&#45;&gt;Node4 -->
<g id="edge4_Node000004_Node000005" class="edge">
<title>Node5&#45;&gt;Node4</title>
<g id="a_edge4_Node000004_Node000005"><a xlink:title=" ">
<path fill="none" stroke="#63b8ff" d="M331.25,-1043.97C331.25,-1031.32 331.25,-1015.83 331.25,-1001.79"/>
<polygon fill="none" stroke="#63b8ff" points="331.25,-1001.81 327.25,-995.81 331.25,-989.81 335.25,-995.81 331.25,-1001.81"/>
</a>
</g>
<text xml:space="preserve" text-anchor="start" x="334.25" y="-1013" font-family="Helvetica,sans-Serif" font-size="10.00" fill="grey">+elements</text>
</g>
<!-- Node6&#45;&gt;Node2 -->
<g id="edge5_Node000002_Node000006" class="edge">
<title>Node6&#45;&gt;Node2</title>
<g id="a_edge5_Node000002_Node000006"><a xlink:title=" ">
<path fill="none" stroke="#63b8ff" d="M209.83,-813.23C229.41,-787.54 260.58,-747.21 288.75,-713.25 324.33,-670.35 364.91,-623.82 399.54,-584.81"/>
<polygon fill="none" stroke="#63b8ff" points="399.64,-584.7 400.63,-577.56 407.61,-575.73 406.61,-582.87 399.64,-584.7"/>
</a>
</g>
<text xml:space="preserve" text-anchor="start" x="291.75" y="-769.5" font-family="Helvetica,sans-Serif" font-size="10.00" fill="grey">&#45;m_cells</text>
<text xml:space="preserve" text-anchor="start" x="291.75" y="-752.75" font-family="Helvetica,sans-Serif" font-size="10.00" fill="grey">&#45;m_one_three</text>
<text xml:space="preserve" text-anchor="start" x="291.75" y="-736" font-family="Helvetica,sans-Serif" font-size="10.00" fill="grey">&#45;m_three_one</text>
<text xml:space="preserve" text-anchor="start" x="291.75" y="-719.25" font-family="Helvetica,sans-Serif" font-size="10.00" fill="grey">&#45;m_two_two</text>
</g>
<!-- Node7&#45;&gt;Node2 -->
<g id="edge7_Node000002_Node000007" class="edge">
<title>Node7&#45;&gt;Node2</title>
<g id="a_edge7_Node000002_Node000007"><a xlink:title=" ">
<path fill="none" stroke="#63b8ff" d="M356.14,-806.77C367.47,-778.32 384.99,-734.36 403.32,-688.35"/>
<polygon fill="none" stroke="#63b8ff" points="403.34,-688.29 401.85,-681.23 407.79,-677.14 409.28,-684.19 403.34,-688.29"/>
</a>
</g>
<text xml:space="preserve" text-anchor="start" x="394.47" y="-744.38" font-family="Helvetica,sans-Serif" font-size="10.00" fill="grey">&#45;m_faces</text>
</g>
<!-- Node8&#45;&gt;Node2 -->
<g id="edge9_Node000002_Node000008" class="edge">
<title>Node8&#45;&gt;Node2</title>
<g id="a_edge9_Node000002_Node000008"><a xlink:title=" ">
<path fill="none" stroke="#63b8ff" d="M480.25,-806.77C480.25,-782.39 480.25,-746.61 480.25,-707.91"/>
<polygon fill="none" stroke="#63b8ff" points="480.25,-707.88 476.25,-701.88 480.25,-695.88 484.25,-701.88 480.25,-707.88"/>
</a>
</g>
<text xml:space="preserve" text-anchor="start" x="483.25" y="-744.38" font-family="Helvetica,sans-Serif" font-size="10.00" fill="grey">&#45;m_spacelike_facets</text>
</g>
<!-- Node9&#45;&gt;Node2 -->
<g id="edge11_Node000002_Node000009" class="edge">
<title>Node9&#45;&gt;Node2</title>
<g id="a_edge11_Node000002_Node000009"><a xlink:title=" ">
<path fill="none" stroke="#63b8ff" d="M614,-806.7C609.3,-780.9 601.42,-744.15 590.25,-713.25 581.17,-688.13 569.89,-662.16 558.05,-637.29"/>
<polygon fill="none" stroke="#63b8ff" points="558,-637.18 551.79,-633.52 552.78,-626.38 558.99,-630.04 558,-637.18"/>
</a>
</g>
<text xml:space="preserve" text-anchor="start" x="611.89" y="-761.12" font-family="Helvetica,sans-Serif" font-size="10.00" fill="grey">&#45;m_edges</text>
<text xml:space="preserve" text-anchor="start" x="611.89" y="-744.38" font-family="Helvetica,sans-Serif" font-size="10.00" fill="grey">&#45;m_spacelike_edges</text>
<text xml:space="preserve" text-anchor="start" x="611.89" y="-727.62" font-family="Helvetica,sans-Serif" font-size="10.00" fill="grey">&#45;m_timelike_edges</text>
</g>
<!-- Node10 -->
<g id="Node000010" class="node">
<title>Node10</title>
<g id="a_Node000010"><a xlink:href="classfoliated__triangulations_1_1_foliated_triangulation.html" target="_top" xlink:title=" ">
<polygon fill="white" stroke="none" points="822.38,-880 704.12,-880 704.12,-800.25 822.38,-800.25 822.38,-880"/>
<text xml:space="preserve" text-anchor="start" x="708.12" y="-866.25" font-family="Helvetica,sans-Serif" font-size="10.00">foliated_triangulations</text>
<text xml:space="preserve" text-anchor="start" x="708.12" y="-853.5" font-family="Helvetica,sans-Serif" font-size="10.00">::FoliatedTriangulation</text>
<text xml:space="preserve" text-anchor="start" x="726.5" y="-840.75" font-family="Helvetica,sans-Serif" font-size="10.00">&lt; dimension &gt;</text>
<text xml:space="preserve" text-anchor="start" x="761.75" y="-824" font-family="Helvetica,sans-Serif" font-size="10.00"> </text>
<text xml:space="preserve" text-anchor="start" x="761.75" y="-807.25" font-family="Helvetica,sans-Serif" font-size="10.00"> </text>
<polygon fill="#666666" stroke="#666666" points="704.12,-835.75 704.12,-835.75 822.38,-835.75 822.38,-835.75 704.12,-835.75"/>
<polygon fill="#666666" stroke="#666666" points="704.12,-819 704.12,-819 822.38,-819 822.38,-819 704.12,-819"/>
<polygon fill="none" stroke="#666666" points="704.12,-800.25 704.12,-880 822.38,-880 822.38,-800.25 704.12,-800.25"/>
</a>
</g>
</g>
<!-- Node10&#45;&gt;Node2 -->
<g id="edge13_Node000002_Node000010" class="edge">
<title>Node10&#45;&gt;Node2</title>
<g id="a_edge13_Node000002_Node000010"><a xlink:title=" ">
<path fill="none" stroke="orange" d="M751.55,-789.47C744.37,-765.19 733.56,-736.3 718.25,-713.25 673.84,-646.39 604.61,-586.09 552.24,-545.95"/>
<polygon fill="orange" stroke="orange" points="748.1,-790.14 754.19,-798.81 754.84,-788.24 748.1,-790.14"/>
</a>
</g>
<text xml:space="preserve" text-anchor="start" x="752.33" y="-744.38" font-family="Helvetica,sans-Serif" font-size="10.00" fill="grey">&lt; 3 &gt;</text>
</g>
<!-- Node11 -->
<g id="Node000011" class="node">
<title>Node11</title>
<g id="a_Node000011"><a xlink:href="struct_geometry_3_013_01_4.html" target="_top" xlink:title="3D Geometry">
<polygon fill="white" stroke="none" points="801.88,-605.12 716.62,-605.12 716.62,-383.38 801.88,-383.38 801.88,-605.12"/>
<text xml:space="preserve" text-anchor="start" x="720.62" y="-591.38" font-family="Helvetica,sans-Serif" font-size="10.00">Geometry&lt; 3 &gt;</text>
<text xml:space="preserve" text-anchor="start" x="722.81" y="-574.62" font-family="Helvetica,sans-Serif" font-size="10.00">+</text>
<text xml:space="preserve" text-anchor="start" x="737.25" y="-574.62" font-family="Helvetica,sans-Serif" font-size="10.00">N0</text>
<text xml:space="preserve" text-anchor="start" x="722.81" y="-557.88" font-family="Helvetica,sans-Serif" font-size="10.00">+</text>
<text xml:space="preserve" text-anchor="start" x="737.25" y="-557.88" font-family="Helvetica,sans-Serif" font-size="10.00">N1</text>
<text xml:space="preserve" text-anchor="start" x="722.81" y="-541.12" font-family="Helvetica,sans-Serif" font-size="10.00">+</text>
<text xml:space="preserve" text-anchor="start" x="737.25" y="-541.12" font-family="Helvetica,sans-Serif" font-size="10.00">N1_SL</text>
<text xml:space="preserve" text-anchor="start" x="722.81" y="-524.38" font-family="Helvetica,sans-Serif" font-size="10.00">+</text>
<text xml:space="preserve" text-anchor="start" x="737.25" y="-524.38" font-family="Helvetica,sans-Serif" font-size="10.00">N1_TL</text>
<text xml:space="preserve" text-anchor="start" x="722.81" y="-507.62" font-family="Helvetica,sans-Serif" font-size="10.00">+</text>
<text xml:space="preserve" text-anchor="start" x="737.25" y="-507.62" font-family="Helvetica,sans-Serif" font-size="10.00">N2</text>
<text xml:space="preserve" text-anchor="start" x="722.81" y="-490.88" font-family="Helvetica,sans-Serif" font-size="10.00">+</text>
<text xml:space="preserve" text-anchor="start" x="737.25" y="-490.88" font-family="Helvetica,sans-Serif" font-size="10.00">N3</text>
<text xml:space="preserve" text-anchor="start" x="722.81" y="-474.12" font-family="Helvetica,sans-Serif" font-size="10.00">+</text>
<text xml:space="preserve" text-anchor="start" x="737.25" y="-474.12" font-family="Helvetica,sans-Serif" font-size="10.00">N3_13</text>
<text xml:space="preserve" text-anchor="start" x="722.81" y="-457.38" font-family="Helvetica,sans-Serif" font-size="10.00">+</text>
<text xml:space="preserve" text-anchor="start" x="737.25" y="-457.38" font-family="Helvetica,sans-Serif" font-size="10.00">N3_22</text>
<text xml:space="preserve" text-anchor="start" x="722.81" y="-440.62" font-family="Helvetica,sans-Serif" font-size="10.00">+</text>
<text xml:space="preserve" text-anchor="start" x="737.25" y="-440.62" font-family="Helvetica,sans-Serif" font-size="10.00">N3_31</text>
<text xml:space="preserve" text-anchor="start" x="722.81" y="-423.88" font-family="Helvetica,sans-Serif" font-size="10.00">+</text>
<text xml:space="preserve" text-anchor="start" x="737.25" y="-423.88" font-family="Helvetica,sans-Serif" font-size="10.00">N3_31_13</text>
<text xml:space="preserve" text-anchor="start" x="722.81" y="-407.12" font-family="Helvetica,sans-Serif" font-size="10.00">+</text>
<text xml:space="preserve" text-anchor="start" x="737.25" y="-407.12" font-family="Helvetica,sans-Serif" font-size="10.00">Geometry()</text>
<text xml:space="preserve" text-anchor="start" x="722.81" y="-390.38" font-family="Helvetica,sans-Serif" font-size="10.00">+</text>
<text xml:space="preserve" text-anchor="start" x="737.25" y="-390.38" font-family="Helvetica,sans-Serif" font-size="10.00">Geometry()</text>
<polygon fill="#666666" stroke="#666666" points="716.62,-586.38 716.62,-586.38 801.88,-586.38 801.88,-586.38 716.62,-586.38"/>
<polygon fill="#666666" stroke="#666666" points="716.62,-418.88 716.62,-418.88 735.25,-418.88 735.25,-418.88 716.62,-418.88"/>
<polygon fill="#666666" stroke="#666666" points="735.25,-418.88 735.25,-418.88 801.88,-418.88 801.88,-418.88 735.25,-418.88"/>
<polygon fill="none" stroke="#666666" points="716.62,-383.38 716.62,-605.12 801.88,-605.12 801.88,-383.38 716.62,-383.38"/>
</a>
</g>
</g>
<!-- Node11&#45;&gt;Node1 -->
<g id="edge14_Node000001_Node000011" class="edge">
<title>Node11&#45;&gt;Node1</title>
<g id="a_edge14_Node000001_Node000011"><a xlink:title=" ">
<path fill="none" stroke="#63b8ff" d="M759.25,-383.61C759.25,-342.13 759.25,-294.5 759.25,-251.25"/>
<polygon fill="none" stroke="#63b8ff" points="759.25,-251.18 755.25,-245.18 759.25,-239.18 763.25,-245.18 759.25,-251.18"/>
</a>
</g>
<text xml:space="preserve" text-anchor="start" x="762.25" y="-262.5" font-family="Helvetica,sans-Serif" font-size="10.00" fill="grey">&#45;m_geometry</text>
</g>
<!-- Node12 -->
<g id="Node000012" class="node">
<title>Node12</title>
<g id="a_Node000012"><a xlink:href="struct_geometry.html" target="_top" xlink:title=" ">
<polygon fill="white" stroke="none" points="970.38,-867.25 840.12,-867.25 840.12,-813 970.38,-813 970.38,-867.25"/>
<text xml:space="preserve" text-anchor="start" x="844.12" y="-853.5" font-family="Helvetica,sans-Serif" font-size="10.00">Geometry&lt; dimension &gt;</text>
<text xml:space="preserve" text-anchor="start" x="903.75" y="-836.75" font-family="Helvetica,sans-Serif" font-size="10.00"> </text>
<text xml:space="preserve" text-anchor="start" x="903.75" y="-820" font-family="Helvetica,sans-Serif" font-size="10.00"> </text>
<polygon fill="#666666" stroke="#666666" points="840.12,-848.5 840.12,-848.5 970.38,-848.5 970.38,-848.5 840.12,-848.5"/>
<polygon fill="#666666" stroke="#666666" points="840.12,-831.75 840.12,-831.75 970.38,-831.75 970.38,-831.75 840.12,-831.75"/>
<polygon fill="none" stroke="#666666" points="840.12,-813 840.12,-867.25 970.38,-867.25 970.38,-813 840.12,-813"/>
</a>
</g>
</g>
<!-- Node12&#45;&gt;Node11 -->
<g id="edge15_Node000011_Node000012" class="edge">
<title>Node12&#45;&gt;Node11</title>
<g id="a_edge15_Node000011_Node000012"><a xlink:title=" ">
<path fill="none" stroke="orange" d="M877.3,-804.14C856.17,-776.13 827.88,-735.09 810.25,-695.25 797.71,-666.91 787.82,-634.88 780.22,-604.9"/>
<polygon fill="orange" stroke="orange" points="874.39,-806.09 883.25,-811.91 879.95,-801.84 874.39,-806.09"/>
</a>
</g>
<text xml:space="preserve" text-anchor="start" x="862.59" y="-744.38" font-family="Helvetica,sans-Serif" font-size="10.00" fill="grey">&lt; 3 &gt;</text>
</g>
<!-- Node13 -->
<g id="Node000013" class="node">
<title>Node13</title>
<g id="a_Node000013"><a xlink:href="classmanifolds_1_1_manifold.html" target="_top" xlink:title=" ">
<polygon fill="white" stroke="none" points="925,-527.75 819.5,-527.75 819.5,-460.75 925,-460.75 925,-527.75"/>
<text xml:space="preserve" text-anchor="start" x="823.5" y="-514" font-family="Helvetica,sans-Serif" font-size="10.00">manifolds::Manifold</text>
<text xml:space="preserve" text-anchor="start" x="835.5" y="-501.25" font-family="Helvetica,sans-Serif" font-size="10.00">&lt; dimension &gt;</text>
<text xml:space="preserve" text-anchor="start" x="870.75" y="-484.5" font-family="Helvetica,sans-Serif" font-size="10.00"> </text>
<text xml:space="preserve" text-anchor="start" x="870.75" y="-467.75" font-family="Helvetica,sans-Serif" font-size="10.00"> </text>
<polygon fill="#666666" stroke="#666666" points="819.5,-496.25 819.5,-496.25 925,-496.25 925,-496.25 819.5,-496.25"/>
<polygon fill="#666666" stroke="#666666" points="819.5,-479.5 819.5,-479.5 925,-479.5 925,-479.5 819.5,-479.5"/>
<polygon fill="none" stroke="#666666" points="819.5,-460.75 819.5,-527.75 925,-527.75 925,-460.75 819.5,-460.75"/>
</a>
</g>
</g>
<!-- Node13&#45;&gt;Node1 -->
<g id="edge16_Node000001_Node000013" class="edge">
<title>Node13&#45;&gt;Node1</title>
<g id="a_edge16_Node000001_Node000013"><a xlink:title=" ">
<path fill="none" stroke="orange" d="M870.05,-449.69C866.56,-401.34 857.67,-321.54 835.25,-256.5 832.6,-248.82 829.53,-241.07 826.17,-233.36"/>
<polygon fill="orange" stroke="orange" points="866.54,-449.73 870.71,-459.48 873.53,-449.26 866.54,-449.73"/>
</a>
</g>
<text xml:space="preserve" text-anchor="start" x="844.15" y="-262.5" font-family="Helvetica,sans-Serif" font-size="10.00" fill="grey">&lt; 3 &gt;</text>
</g>
</g>
</svg>

<g id="navigator" transform="translate(0 0)" fill="#404254">
  <rect fill="#f2f5e9" fill-opacity="0.5" stroke="#606060" stroke-width=".5" x="0" y="0" width="60" height="60"/>
  <use id="zoomplus" xlink:href="#zoomPlus" x="17" y="9" onmousedown="handleZoom(evt,'in')"/>
  <use id="zoomminus" xlink:href="#zoomMin" x="42" y="9" onmousedown="handleZoom(evt,'out')"/>
  <use id="reset" xlink:href="#resetDef" x="30" y="36" onmousedown="handleReset()"/>
   <use id="arrowup" xlink:href="#arrowUp" x="0" y="0" onmousedown="handlePan(0,-1)"/>
  <use id="arrowright" xlink:href="#arrowRight" x="0" y="0" onmousedown="handlePan(1,0)"/>
  <use id="arrowdown" xlink:href="#arrowDown" x="0" y="0" onmousedown="handlePan(0,1)"/>
  <use id="arrowleft" xlink:href="#arrowLeft" x="0" y="0" onmousedown="handlePan(-1,0)"/>
</g>
<svg viewBox="0 0 15 15" width="100%" height="30px" preserveAspectRatio="xMaxYMin meet">
 <g id="arrow_out" transform="scale(0.3 0.3)">
  <a xlink:href="classmanifolds_1_1_manifold_3_013_01_4__coll__graph_org.svg" target="_base">
   <rect id="button" ry="5" rx="5" y="6" x="6" height="38" width="38"
        fill="#f2f5e9" fill-opacity="0.5" stroke="#606060" stroke-width="1.0"/>
   <path id="arrow"
     d="M 11.500037,31.436501 C 11.940474,20.09759 22.043105,11.32322 32.158766,21.979434 L 37.068811,17.246167 C 37.068811,17.246167 37.088388,32 37.088388,32 L 22.160133,31.978069 C 22.160133,31.978069 26.997745,27.140456 26.997745,27.140456 C 18.528582,18.264221 13.291696,25.230495 11.500037,31.436501 z"
     style="fill:#404040;"/>
  </a>
 </g>
</svg>

<style type='text/css'>
<![CDATA[
[data-mouse-over-selected='false'] { opacity: 0.7; }
[data-mouse-over-selected='true']  { opacity: 1.0; }
]]>
</style>
<script type="application/ecmascript"><![CDATA[
document.addEventListener('DOMContentLoaded', (event) => {
  highlightEdges();
  highlightAdjacentNodes();
});
]]></script>
</svg>
