<?xml version="1.0" encoding="UTF-8" standalone="no"?>
<!DOCTYPE svg PUBLIC "-//W3C//DTD SVG 1.1//EN"
 "http://www.w3.org/Graphics/SVG/1.1/DTD/svg11.dtd">
<!-- Generated by graphviz version 2.43.0 (0)
 -->
<!-- Title: tests/main.cpp Pages: 1 -->
<svg width="1781pt" height="207pt"
 viewBox="0.00 0.00 1780.50 207.00" xmlns="http://www.w3.org/2000/svg" xmlns:xlink="http://www.w3.org/1999/xlink">
<g id="graph0" class="graph" transform="scale(1 1) rotate(0) translate(4 203)">
<title>tests/main.cpp</title>
<polygon fill="white" stroke="transparent" points="-4,4 -4,-203 1776.5,-203 1776.5,4 -4,4"/>
<!-- Node1 -->
<g id="node1" class="node">
<title>Node1</title>
<g id="a_node1"><a xlink:title="Catch test driver.">
<polygon fill="#bfbfbf" stroke="black" points="754,-179.5 754,-198.5 843,-198.5 843,-179.5 754,-179.5"/>
<text text-anchor="middle" x="798.5" y="-186.5" font-family="Helvetica,sans-Serif" font-size="10.00">tests/main.cpp</text>
</a>
</g>
</g>
<!-- Node2 -->
<g id="node2" class="node">
<title>Node2</title>
<g id="a_node2"><a xlink:href="_utilities_8hpp.html" target="_top" xlink:title="Utility functions.">
<polygon fill="white" stroke="black" points="707.5,-123.5 707.5,-142.5 783.5,-142.5 783.5,-123.5 707.5,-123.5"/>
<text text-anchor="middle" x="745.5" y="-130.5" font-family="Helvetica,sans-Serif" font-size="10.00">Utilities.hpp</text>
</a>
</g>
</g>
<!-- Node1&#45;&gt;Node2 -->
<g id="edge1" class="edge">
<title>Node1&#45;&gt;Node2</title>
<path fill="none" stroke="midnightblue" d="M789.75,-179.08C782.03,-171.22 770.6,-159.57 761.28,-150.08"/>
<polygon fill="midnightblue" stroke="midnightblue" points="763.59,-147.44 754.09,-142.75 758.6,-152.34 763.59,-147.44"/>
</g>
<!-- Node25 -->
<g id="node25" class="node">
<title>Node25</title>
<g id="a_node25"><a xlink:title=" ">
<polygon fill="white" stroke="#bfbfbf" points="802,-123.5 802,-142.5 901,-142.5 901,-123.5 802,-123.5"/>
<text text-anchor="middle" x="851.5" y="-130.5" font-family="Helvetica,sans-Serif" font-size="10.00">catch2/catch.hpp</text>
</a>
</g>
</g>
<!-- Node1&#45;&gt;Node25 -->
<g id="edge24" class="edge">
<title>Node1&#45;&gt;Node25</title>
<path fill="none" stroke="midnightblue" d="M807.25,-179.08C814.97,-171.22 826.4,-159.57 835.72,-150.08"/>
<polygon fill="midnightblue" stroke="midnightblue" points="838.4,-152.34 842.91,-142.75 833.41,-147.44 838.4,-152.34"/>
</g>
<!-- Node3 -->
<g id="node3" class="node">
<title>Node3</title>
<g id="a_node3"><a xlink:title=" ">
<polygon fill="white" stroke="#bfbfbf" points="0,-62 0,-81 83,-81 83,-62 0,-62"/>
<text text-anchor="middle" x="41.5" y="-69" font-family="Helvetica,sans-Serif" font-size="10.00">CGAL/Timer.h</text>
</a>
</g>
</g>
<!-- Node2&#45;&gt;Node3 -->
<g id="edge2" class="edge">
<title>Node2&#45;&gt;Node3</title>
<path fill="none" stroke="midnightblue" d="M707.26,-132.13C606.1,-131.88 323.38,-127.32 92.5,-87 87.6,-86.14 82.5,-85 77.49,-83.74"/>
<polygon fill="midnightblue" stroke="midnightblue" points="78.03,-80.26 67.46,-81.01 76.2,-87.01 78.03,-80.26"/>
</g>
<!-- Node4 -->
<g id="node4" class="node">
<title>Node4</title>
<g id="a_node4"><a xlink:title=" ">
<polygon fill="white" stroke="#bfbfbf" points="101.5,-62 101.5,-81 165.5,-81 165.5,-62 101.5,-62"/>
<text text-anchor="middle" x="133.5" y="-69" font-family="Helvetica,sans-Serif" font-size="10.00">algorithm</text>
</a>
</g>
</g>
<!-- Node2&#45;&gt;Node4 -->
<g id="edge3" class="edge">
<title>Node2&#45;&gt;Node4</title>
<path fill="none" stroke="midnightblue" d="M707.26,-132.41C614.7,-132.65 371.71,-128.89 174.5,-87 171.07,-86.27 167.54,-85.33 164.05,-84.28"/>
<polygon fill="midnightblue" stroke="midnightblue" points="165.07,-80.93 154.48,-81.1 162.87,-87.57 165.07,-80.93"/>
</g>
<!-- Node5 -->
<g id="node5" class="node">
<title>Node5</title>
<g id="a_node5"><a xlink:title=" ">
<polygon fill="white" stroke="#bfbfbf" points="183.5,-62 183.5,-81 235.5,-81 235.5,-62 183.5,-62"/>
<text text-anchor="middle" x="209.5" y="-69" font-family="Helvetica,sans-Serif" font-size="10.00">cassert</text>
</a>
</g>
</g>
<!-- Node2&#45;&gt;Node5 -->
<g id="edge4" class="edge">
<title>Node2&#45;&gt;Node5</title>
<path fill="none" stroke="midnightblue" d="M707.47,-132.47C622.91,-132.69 413.47,-128.56 244.5,-87 241.99,-86.38 239.42,-85.61 236.87,-84.75"/>
<polygon fill="midnightblue" stroke="midnightblue" points="237.9,-81.4 227.31,-81.1 235.41,-87.94 237.9,-81.4"/>
</g>
<!-- Node6 -->
<g id="node6" class="node">
<title>Node6</title>
<g id="a_node6"><a xlink:title=" ">
<polygon fill="white" stroke="#bfbfbf" points="254,-62 254,-81 303,-81 303,-62 254,-62"/>
<text text-anchor="middle" x="278.5" y="-69" font-family="Helvetica,sans-Serif" font-size="10.00">cstdlib</text>
</a>
</g>
</g>
<!-- Node2&#45;&gt;Node6 -->
<g id="edge5" class="edge">
<title>Node2&#45;&gt;Node6</title>
<path fill="none" stroke="midnightblue" d="M707.35,-131.98C630.91,-131.1 454.12,-124.73 311.5,-87 309.2,-86.39 306.86,-85.65 304.54,-84.82"/>
<polygon fill="midnightblue" stroke="midnightblue" points="305.85,-81.57 295.26,-81.07 303.22,-88.06 305.85,-81.57"/>
</g>
<!-- Node7 -->
<g id="node7" class="node">
<title>Node7</title>
<g id="a_node7"><a xlink:title=" ">
<polygon fill="white" stroke="#bfbfbf" points="321,-62 321,-81 376,-81 376,-62 321,-62"/>
<text text-anchor="middle" x="348.5" y="-69" font-family="Helvetica,sans-Serif" font-size="10.00">fstream</text>
</a>
</g>
</g>
<!-- Node2&#45;&gt;Node7 -->
<g id="edge6" class="edge">
<title>Node2&#45;&gt;Node7</title>
<path fill="none" stroke="midnightblue" d="M707.35,-130.35C640.99,-126.8 500.42,-116.21 385.5,-87 382.83,-86.32 380.1,-85.5 377.39,-84.6"/>
<polygon fill="midnightblue" stroke="midnightblue" points="378.38,-81.24 367.79,-81.11 375.98,-87.82 378.38,-81.24"/>
</g>
<!-- Node8 -->
<g id="node8" class="node">
<title>Node8</title>
<g id="a_node8"><a xlink:title=" ">
<polygon fill="white" stroke="#bfbfbf" points="394.5,-62 394.5,-81 442.5,-81 442.5,-62 394.5,-62"/>
<text text-anchor="middle" x="418.5" y="-69" font-family="Helvetica,sans-Serif" font-size="10.00">gsl/gsl</text>
</a>
</g>
</g>
<!-- Node2&#45;&gt;Node8 -->
<g id="edge7" class="edge">
<title>Node2&#45;&gt;Node8</title>
<path fill="none" stroke="midnightblue" d="M707.22,-129.36C650.45,-124.72 541,-113.02 451.5,-87 449.35,-86.38 447.16,-85.64 444.98,-84.84"/>
<polygon fill="midnightblue" stroke="midnightblue" points="446.23,-81.58 435.65,-81.05 443.6,-88.06 446.23,-81.58"/>
</g>
<!-- Node9 -->
<g id="node9" class="node">
<title>Node9</title>
<g id="a_node9"><a xlink:title=" ">
<polygon fill="white" stroke="#bfbfbf" points="460.5,-62 460.5,-81 520.5,-81 520.5,-62 460.5,-62"/>
<text text-anchor="middle" x="490.5" y="-69" font-family="Helvetica,sans-Serif" font-size="10.00">iostream</text>
</a>
</g>
</g>
<!-- Node2&#45;&gt;Node9 -->
<g id="edge8" class="edge">
<title>Node2&#45;&gt;Node9</title>
<path fill="none" stroke="midnightblue" d="M707.23,-125.82C663.72,-118.39 590.78,-104.67 529.5,-87 526.86,-86.24 524.14,-85.38 521.43,-84.48"/>
<polygon fill="midnightblue" stroke="midnightblue" points="522.36,-81.1 511.76,-81.06 520.03,-87.7 522.36,-81.1"/>
</g>
<!-- Node10 -->
<g id="node10" class="node">
<title>Node10</title>
<g id="a_node10"><a xlink:title=" ">
<polygon fill="white" stroke="#bfbfbf" points="538.5,-62 538.5,-81 586.5,-81 586.5,-62 538.5,-62"/>
<text text-anchor="middle" x="562.5" y="-69" font-family="Helvetica,sans-Serif" font-size="10.00">mutex</text>
</a>
</g>
</g>
<!-- Node2&#45;&gt;Node10 -->
<g id="edge9" class="edge">
<title>Node2&#45;&gt;Node10</title>
<path fill="none" stroke="midnightblue" d="M712.94,-123.47C682.3,-115.16 635.3,-101.65 595.5,-87 593.84,-86.39 592.15,-85.74 590.46,-85.06"/>
<polygon fill="midnightblue" stroke="midnightblue" points="591.41,-81.67 580.84,-81.03 588.71,-88.13 591.41,-81.67"/>
</g>
<!-- Node11 -->
<g id="node11" class="node">
<title>Node11</title>
<g id="a_node11"><a xlink:title=" ">
<polygon fill="white" stroke="#bfbfbf" points="604.5,-62 604.5,-81 658.5,-81 658.5,-62 604.5,-62"/>
<text text-anchor="middle" x="631.5" y="-69" font-family="Helvetica,sans-Serif" font-size="10.00">random</text>
</a>
</g>
</g>
<!-- Node2&#45;&gt;Node11 -->
<g id="edge10" class="edge">
<title>Node2&#45;&gt;Node11</title>
<path fill="none" stroke="midnightblue" d="M729.17,-123.48C710.29,-113.62 678.99,-97.29 656.92,-85.77"/>
<polygon fill="midnightblue" stroke="midnightblue" points="658.29,-82.53 647.8,-81.01 655.05,-88.74 658.29,-82.53"/>
</g>
<!-- Node12 -->
<g id="node12" class="node">
<title>Node12</title>
<g id="a_node12"><a xlink:title=" ">
<polygon fill="white" stroke="#bfbfbf" points="677,-62 677,-81 742,-81 742,-62 677,-62"/>
<text text-anchor="middle" x="709.5" y="-69" font-family="Helvetica,sans-Serif" font-size="10.00">stdexcept</text>
</a>
</g>
</g>
<!-- Node2&#45;&gt;Node12 -->
<g id="edge11" class="edge">
<title>Node2&#45;&gt;Node12</title>
<path fill="none" stroke="midnightblue" d="M740.34,-123.48C735.05,-114.73 726.66,-100.87 719.97,-89.81"/>
<polygon fill="midnightblue" stroke="midnightblue" points="722.82,-87.75 714.65,-81.01 716.83,-91.38 722.82,-87.75"/>
</g>
<!-- Node13 -->
<g id="node13" class="node">
<title>Node13</title>
<g id="a_node13"><a xlink:title=" ">
<polygon fill="white" stroke="#bfbfbf" points="760.5,-62 760.5,-81 804.5,-81 804.5,-62 760.5,-62"/>
<text text-anchor="middle" x="782.5" y="-69" font-family="Helvetica,sans-Serif" font-size="10.00">string</text>
</a>
</g>
</g>
<!-- Node2&#45;&gt;Node13 -->
<g id="edge12" class="edge">
<title>Node2&#45;&gt;Node13</title>
<path fill="none" stroke="midnightblue" d="M750.8,-123.48C756.24,-114.73 764.86,-100.87 771.74,-89.81"/>
<polygon fill="midnightblue" stroke="midnightblue" points="774.9,-91.35 777.21,-81.01 768.96,-87.65 774.9,-91.35"/>
</g>
<!-- Node14 -->
<g id="node14" class="node">
<title>Node14</title>
<g id="a_node14"><a xlink:title=" ">
<polygon fill="white" stroke="#bfbfbf" points="823,-62 823,-81 888,-81 888,-62 823,-62"/>
<text text-anchor="middle" x="855.5" y="-69" font-family="Helvetica,sans-Serif" font-size="10.00">typeindex</text>
</a>
</g>
</g>
<!-- Node2&#45;&gt;Node14 -->
<g id="edge13" class="edge">
<title>Node2&#45;&gt;Node14</title>
<path fill="none" stroke="midnightblue" d="M761.26,-123.48C779.48,-113.62 809.67,-97.29 830.97,-85.77"/>
<polygon fill="midnightblue" stroke="midnightblue" points="832.64,-88.85 839.77,-81.01 829.31,-82.69 832.64,-88.85"/>
</g>
<!-- Node15 -->
<g id="node15" class="node">
<title>Node15</title>
<g id="a_node15"><a xlink:title=" ">
<polygon fill="white" stroke="#bfbfbf" points="906,-62 906,-81 965,-81 965,-62 906,-62"/>
<text text-anchor="middle" x="935.5" y="-69" font-family="Helvetica,sans-Serif" font-size="10.00">date/tz.h</text>
</a>
</g>
</g>
<!-- Node2&#45;&gt;Node15 -->
<g id="edge14" class="edge">
<title>Node2&#45;&gt;Node15</title>
<path fill="none" stroke="midnightblue" d="M776.34,-123.46C806.99,-114.81 855.25,-100.8 896.5,-87 898.9,-86.2 901.37,-85.34 903.85,-84.47"/>
<polygon fill="midnightblue" stroke="midnightblue" points="905.11,-87.73 913.32,-81.04 902.72,-81.15 905.11,-87.73"/>
</g>
<!-- Node16 -->
<g id="node16" class="node">
<title>Node16</title>
<g id="a_node16"><a xlink:title=" ">
<polygon fill="white" stroke="#bfbfbf" points="983.5,-62 983.5,-81 1081.5,-81 1081.5,-62 983.5,-62"/>
<text text-anchor="middle" x="1032.5" y="-69" font-family="Helvetica,sans-Serif" font-size="10.00">pcg_random.hpp</text>
</a>
</g>
</g>
<!-- Node2&#45;&gt;Node16 -->
<g id="edge15" class="edge">
<title>Node2&#45;&gt;Node16</title>
<path fill="none" stroke="midnightblue" d="M783.56,-124.71C838.64,-114.12 937.85,-94.89 973.5,-87 978.52,-85.89 983.77,-84.67 988.98,-83.44"/>
<polygon fill="midnightblue" stroke="midnightblue" points="989.97,-86.8 998.87,-81.05 988.32,-79.99 989.97,-86.8"/>
</g>
<!-- Node17 -->
<g id="node17" class="node">
<title>Node17</title>
<g id="a_node17"><a xlink:title=" ">
<polygon fill="white" stroke="#bfbfbf" points="1100,-62 1100,-81 1179,-81 1179,-62 1100,-62"/>
<text text-anchor="middle" x="1139.5" y="-69" font-family="Helvetica,sans-Serif" font-size="10.00">fmt/format.h</text>
</a>
</g>
</g>
<!-- Node2&#45;&gt;Node17 -->
<g id="edge16" class="edge">
<title>Node2&#45;&gt;Node17</title>
<path fill="none" stroke="midnightblue" d="M783.68,-124.46C786.66,-123.94 789.63,-123.45 792.5,-123 924.31,-102.44 959.86,-114.02 1090.5,-87 1094.75,-86.12 1099.17,-85.05 1103.53,-83.89"/>
<polygon fill="midnightblue" stroke="midnightblue" points="1104.84,-87.15 1113.51,-81.07 1102.94,-80.42 1104.84,-87.15"/>
</g>
<!-- Node18 -->
<g id="node18" class="node">
<title>Node18</title>
<g id="a_node18"><a xlink:title=" ">
<polygon fill="white" stroke="#bfbfbf" points="1197.5,-62 1197.5,-81 1283.5,-81 1283.5,-62 1197.5,-62"/>
<text text-anchor="middle" x="1240.5" y="-69" font-family="Helvetica,sans-Serif" font-size="10.00">fmt/ostream.h</text>
</a>
</g>
</g>
<!-- Node2&#45;&gt;Node18 -->
<g id="edge17" class="edge">
<title>Node2&#45;&gt;Node18</title>
<path fill="none" stroke="midnightblue" d="M783.67,-124.37C786.65,-123.87 789.62,-123.41 792.5,-123 967.06,-98.39 1014.03,-118.38 1187.5,-87 1192.59,-86.08 1197.9,-84.9 1203.12,-83.61"/>
<polygon fill="midnightblue" stroke="midnightblue" points="1204.15,-86.96 1212.93,-81.03 1202.37,-80.18 1204.15,-86.96"/>
</g>
<!-- Node19 -->
<g id="node19" class="node">
<title>Node19</title>
<g id="a_node19"><a xlink:title=" ">
<polygon fill="white" stroke="#bfbfbf" points="1301.5,-56.5 1301.5,-86.5 1407.5,-86.5 1407.5,-56.5 1301.5,-56.5"/>
<text text-anchor="start" x="1309.5" y="-74.5" font-family="Helvetica,sans-Serif" font-size="10.00">spdlog/sinks/basic</text>
<text text-anchor="middle" x="1354.5" y="-63.5" font-family="Helvetica,sans-Serif" font-size="10.00">_file_sink.h</text>
</a>
</g>
</g>
<!-- Node2&#45;&gt;Node19 -->
<g id="edge18" class="edge">
<title>Node2&#45;&gt;Node19</title>
<path fill="none" stroke="midnightblue" d="M783.66,-124.3C786.64,-123.82 789.62,-123.38 792.5,-123 1010.17,-94.42 1070.47,-119.71 1291.22,-87.03"/>
<polygon fill="midnightblue" stroke="midnightblue" points="1291.8,-90.48 1301.17,-85.54 1290.76,-83.56 1291.8,-90.48"/>
</g>
<!-- Node20 -->
<g id="node20" class="node">
<title>Node20</title>
<g id="a_node20"><a xlink:title=" ">
<polygon fill="white" stroke="#bfbfbf" points="1426,-56.5 1426,-86.5 1537,-86.5 1537,-56.5 1426,-56.5"/>
<text text-anchor="start" x="1434" y="-74.5" font-family="Helvetica,sans-Serif" font-size="10.00">spdlog/sinks/stdout</text>
<text text-anchor="middle" x="1481.5" y="-63.5" font-family="Helvetica,sans-Serif" font-size="10.00">_color_sinks.h</text>
</a>
</g>
</g>
<!-- Node2&#45;&gt;Node20 -->
<g id="edge19" class="edge">
<title>Node2&#45;&gt;Node20</title>
<path fill="none" stroke="midnightblue" d="M783.65,-124.26C786.64,-123.79 789.61,-123.36 792.5,-123 1064.95,-89.2 1139.62,-124.52 1416.02,-86.88"/>
<polygon fill="midnightblue" stroke="midnightblue" points="1416.51,-90.35 1425.94,-85.52 1415.55,-83.42 1416.51,-90.35"/>
</g>
<!-- Node21 -->
<g id="node21" class="node">
<title>Node21</title>
<g id="a_node21"><a xlink:title=" ">
<polygon fill="white" stroke="#bfbfbf" points="1555,-62 1555,-81 1648,-81 1648,-62 1555,-62"/>
<text text-anchor="middle" x="1601.5" y="-69" font-family="Helvetica,sans-Serif" font-size="10.00">spdlog/spdlog.h</text>
</a>
</g>
</g>
<!-- Node2&#45;&gt;Node21 -->
<g id="edge20" class="edge">
<title>Node2&#45;&gt;Node21</title>
<path fill="none" stroke="midnightblue" d="M783.65,-124.23C786.64,-123.76 789.61,-123.34 792.5,-123 1125.2,-83.39 1214.24,-137.26 1545.5,-87 1551.35,-86.11 1557.48,-84.86 1563.44,-83.47"/>
<polygon fill="midnightblue" stroke="midnightblue" points="1564.39,-86.84 1573.25,-81.02 1562.7,-80.05 1564.39,-86.84"/>
</g>
<!-- Node22 -->
<g id="node22" class="node">
<title>Node22</title>
<g id="a_node22"><a xlink:href="_settings_8hpp.html" target="_top" xlink:title="Global integer and precision settings.">
<polygon fill="white" stroke="black" points="1666,-62 1666,-81 1743,-81 1743,-62 1666,-62"/>
<text text-anchor="middle" x="1704.5" y="-69" font-family="Helvetica,sans-Serif" font-size="10.00">Settings.hpp</text>
</a>
</g>
</g>
<!-- Node2&#45;&gt;Node22 -->
<g id="edge21" class="edge">
<title>Node2&#45;&gt;Node22</title>
<path fill="none" stroke="midnightblue" d="M783.65,-124.21C786.63,-123.75 789.61,-123.33 792.5,-123 1174.28,-78.74 1277.55,-151.08 1656.5,-87 1661.07,-86.23 1665.81,-85.15 1670.45,-83.93"/>
<polygon fill="midnightblue" stroke="midnightblue" points="1671.72,-87.21 1680.36,-81.08 1669.79,-80.48 1671.72,-87.21"/>
</g>
<!-- Node23 -->
<g id="node23" class="node">
<title>Node23</title>
<g id="a_node23"><a xlink:title=" ">
<polygon fill="white" stroke="#bfbfbf" points="1618.5,-0.5 1618.5,-19.5 1704.5,-19.5 1704.5,-0.5 1618.5,-0.5"/>
<text text-anchor="middle" x="1661.5" y="-7.5" font-family="Helvetica,sans-Serif" font-size="10.00">CGAL/Gmpzf.h</text>
</a>
</g>
</g>
<!-- Node22&#45;&gt;Node23 -->
<g id="edge22" class="edge">
<title>Node22&#45;&gt;Node23</title>
<path fill="none" stroke="midnightblue" d="M1698.34,-61.98C1691.89,-53.05 1681.6,-38.81 1673.53,-27.64"/>
<polygon fill="midnightblue" stroke="midnightblue" points="1676.34,-25.56 1667.65,-19.51 1670.67,-29.66 1676.34,-25.56"/>
</g>
<!-- Node24 -->
<g id="node24" class="node">
<title>Node24</title>
<g id="a_node24"><a xlink:title=" ">
<polygon fill="white" stroke="#bfbfbf" points="1722.5,-0.5 1722.5,-19.5 1772.5,-19.5 1772.5,-0.5 1722.5,-0.5"/>
<text text-anchor="middle" x="1747.5" y="-7.5" font-family="Helvetica,sans-Serif" font-size="10.00">cstdint</text>
</a>
</g>
</g>
<!-- Node22&#45;&gt;Node24 -->
<g id="edge23" class="edge">
<title>Node22&#45;&gt;Node24</title>
<path fill="none" stroke="midnightblue" d="M1710.66,-61.98C1717.11,-53.05 1727.4,-38.81 1735.47,-27.64"/>
<polygon fill="midnightblue" stroke="midnightblue" points="1738.33,-29.66 1741.35,-19.51 1732.66,-25.56 1738.33,-29.66"/>
</g>
</g>
</svg>
