<?xml version="1.0" encoding="UTF-8" standalone="no"?>
<!DOCTYPE svg PUBLIC "-//W3C//DTD SVG 1.1//EN"
 "http://www.w3.org/Graphics/SVG/1.1/DTD/svg11.dtd">
<!-- Generated by graphviz version 2.43.0 (0)
 -->
<!-- Title: tests/main.cpp Pages: 1 -->
<svg width="1925pt" height="207pt"
 viewBox="0.00 0.00 1925.00 207.00" xmlns="http://www.w3.org/2000/svg" xmlns:xlink="http://www.w3.org/1999/xlink">
<g id="graph0" class="graph" transform="scale(1 1) rotate(0) translate(4 203)">
<title>tests/main.cpp</title>
<polygon fill="white" stroke="transparent" points="-4,4 -4,-203 1921,-203 1921,4 -4,4"/>
<!-- Node1 -->
<g id="node1" class="node">
<title>Node1</title>
<g id="a_node1"><a xlink:title="Catch test driver.">
<polygon fill="#bfbfbf" stroke="black" points="826.5,-179.5 826.5,-198.5 915.5,-198.5 915.5,-179.5 826.5,-179.5"/>
<text text-anchor="middle" x="871" y="-186.5" font-family="Helvetica,sans-Serif" font-size="10.00">tests/main.cpp</text>
</a>
</g>
</g>
<!-- Node2 -->
<g id="node2" class="node">
<title>Node2</title>
<g id="a_node2"><a xlink:href="_utilities_8hpp.html" target="_top" xlink:title="Utility functions.">
<polygon fill="white" stroke="black" points="780,-123.5 780,-142.5 856,-142.5 856,-123.5 780,-123.5"/>
<text text-anchor="middle" x="818" y="-130.5" font-family="Helvetica,sans-Serif" font-size="10.00">Utilities.hpp</text>
</a>
</g>
</g>
<!-- Node1&#45;&gt;Node2 -->
<g id="edge1" class="edge">
<title>Node1&#45;&gt;Node2</title>
<path fill="none" stroke="midnightblue" d="M862.25,-179.08C854.53,-171.22 843.1,-159.57 833.78,-150.08"/>
<polygon fill="midnightblue" stroke="midnightblue" points="836.09,-147.44 826.59,-142.75 831.1,-152.34 836.09,-147.44"/>
</g>
<!-- Node27 -->
<g id="node27" class="node">
<title>Node27</title>
<g id="a_node27"><a xlink:title=" ">
<polygon fill="white" stroke="#bfbfbf" points="874.5,-123.5 874.5,-142.5 973.5,-142.5 973.5,-123.5 874.5,-123.5"/>
<text text-anchor="middle" x="924" y="-130.5" font-family="Helvetica,sans-Serif" font-size="10.00">catch2/catch.hpp</text>
</a>
</g>
</g>
<!-- Node1&#45;&gt;Node27 -->
<g id="edge26" class="edge">
<title>Node1&#45;&gt;Node27</title>
<path fill="none" stroke="midnightblue" d="M879.75,-179.08C887.47,-171.22 898.9,-159.57 908.22,-150.08"/>
<polygon fill="midnightblue" stroke="midnightblue" points="910.9,-152.34 915.41,-142.75 905.91,-147.44 910.9,-152.34"/>
</g>
<!-- Node3 -->
<g id="node3" class="node">
<title>Node3</title>
<g id="a_node3"><a xlink:title=" ">
<polygon fill="white" stroke="#bfbfbf" points="0,-62 0,-81 64,-81 64,-62 0,-62"/>
<text text-anchor="middle" x="32" y="-69" font-family="Helvetica,sans-Serif" font-size="10.00">algorithm</text>
</a>
</g>
</g>
<!-- Node2&#45;&gt;Node3 -->
<g id="edge2" class="edge">
<title>Node2&#45;&gt;Node3</title>
<path fill="none" stroke="midnightblue" d="M779.62,-131.1C647.24,-127.76 210.31,-114.85 73,-87 69.49,-86.29 65.87,-85.34 62.31,-84.27"/>
<polygon fill="midnightblue" stroke="midnightblue" points="63.13,-80.86 52.54,-81.03 60.93,-87.5 63.13,-80.86"/>
</g>
<!-- Node4 -->
<g id="node4" class="node">
<title>Node4</title>
<g id="a_node4"><a xlink:title=" ">
<polygon fill="white" stroke="#bfbfbf" points="82,-62 82,-81 134,-81 134,-62 82,-62"/>
<text text-anchor="middle" x="108" y="-69" font-family="Helvetica,sans-Serif" font-size="10.00">cassert</text>
</a>
</g>
</g>
<!-- Node2&#45;&gt;Node4 -->
<g id="edge3" class="edge">
<title>Node2&#45;&gt;Node4</title>
<path fill="none" stroke="midnightblue" d="M779.77,-131.09C655.75,-127.86 265.51,-115.64 143,-87 140.33,-86.38 137.6,-85.57 134.9,-84.66"/>
<polygon fill="midnightblue" stroke="midnightblue" points="136.02,-81.34 125.43,-81.03 133.52,-87.88 136.02,-81.34"/>
</g>
<!-- Node5 -->
<g id="node5" class="node">
<title>Node5</title>
<g id="a_node5"><a xlink:title=" ">
<polygon fill="white" stroke="#bfbfbf" points="152.5,-62 152.5,-81 235.5,-81 235.5,-62 152.5,-62"/>
<text text-anchor="middle" x="194" y="-69" font-family="Helvetica,sans-Serif" font-size="10.00">CGAL/Timer.h</text>
</a>
</g>
</g>
<!-- Node2&#45;&gt;Node5 -->
<g id="edge4" class="edge">
<title>Node2&#45;&gt;Node5</title>
<path fill="none" stroke="midnightblue" d="M779.71,-131.68C686.99,-130.34 443.38,-123.33 244,-87 239.25,-86.13 234.3,-85 229.45,-83.74"/>
<polygon fill="midnightblue" stroke="midnightblue" points="230.28,-80.34 219.71,-81.04 228.41,-87.09 230.28,-80.34"/>
</g>
<!-- Node6 -->
<g id="node6" class="node">
<title>Node6</title>
<g id="a_node6"><a xlink:title=" ">
<polygon fill="white" stroke="#bfbfbf" points="253.5,-62 253.5,-81 302.5,-81 302.5,-62 253.5,-62"/>
<text text-anchor="middle" x="278" y="-69" font-family="Helvetica,sans-Serif" font-size="10.00">cstdlib</text>
</a>
</g>
</g>
<!-- Node2&#45;&gt;Node6 -->
<g id="edge5" class="edge">
<title>Node2&#45;&gt;Node6</title>
<path fill="none" stroke="midnightblue" d="M779.88,-132.65C694.62,-133.23 482.65,-129.83 312,-87 309.64,-86.41 307.23,-85.67 304.84,-84.85"/>
<polygon fill="midnightblue" stroke="midnightblue" points="305.87,-81.49 295.28,-81.11 303.32,-88.01 305.87,-81.49"/>
</g>
<!-- Node7 -->
<g id="node7" class="node">
<title>Node7</title>
<g id="a_node7"><a xlink:title=" ">
<polygon fill="white" stroke="#bfbfbf" points="321,-62 321,-81 389,-81 389,-62 321,-62"/>
<text text-anchor="middle" x="355" y="-69" font-family="Helvetica,sans-Serif" font-size="10.00">filesystem</text>
</a>
</g>
</g>
<!-- Node2&#45;&gt;Node7 -->
<g id="edge6" class="edge">
<title>Node2&#45;&gt;Node7</title>
<path fill="none" stroke="midnightblue" d="M779.91,-130.7C705.63,-127.56 536.6,-117.41 398,-87 394.51,-86.23 390.9,-85.28 387.34,-84.24"/>
<polygon fill="midnightblue" stroke="midnightblue" points="388.09,-80.81 377.5,-81.12 385.97,-87.48 388.09,-80.81"/>
</g>
<!-- Node8 -->
<g id="node8" class="node">
<title>Node8</title>
<g id="a_node8"><a xlink:title=" ">
<polygon fill="white" stroke="#bfbfbf" points="407.5,-62 407.5,-81 462.5,-81 462.5,-62 407.5,-62"/>
<text text-anchor="middle" x="435" y="-69" font-family="Helvetica,sans-Serif" font-size="10.00">fstream</text>
</a>
</g>
</g>
<!-- Node2&#45;&gt;Node8 -->
<g id="edge7" class="edge">
<title>Node2&#45;&gt;Node8</title>
<path fill="none" stroke="midnightblue" d="M779.8,-130.08C715.4,-126.17 581.57,-115.14 472,-87 469.34,-86.32 466.6,-85.49 463.89,-84.59"/>
<polygon fill="midnightblue" stroke="midnightblue" points="464.89,-81.23 454.29,-81.09 462.48,-87.8 464.89,-81.23"/>
</g>
<!-- Node9 -->
<g id="node9" class="node">
<title>Node9</title>
<g id="a_node9"><a xlink:title=" ">
<polygon fill="white" stroke="#bfbfbf" points="481,-62 481,-81 529,-81 529,-62 481,-62"/>
<text text-anchor="middle" x="505" y="-69" font-family="Helvetica,sans-Serif" font-size="10.00">gsl/gsl</text>
</a>
</g>
</g>
<!-- Node2&#45;&gt;Node9 -->
<g id="edge8" class="edge">
<title>Node2&#45;&gt;Node9</title>
<path fill="none" stroke="midnightblue" d="M779.73,-128.96C725.17,-123.92 622.3,-111.85 538,-87 535.85,-86.37 533.66,-85.63 531.48,-84.83"/>
<polygon fill="midnightblue" stroke="midnightblue" points="532.74,-81.56 522.16,-81.03 530.1,-88.04 532.74,-81.56"/>
</g>
<!-- Node10 -->
<g id="node10" class="node">
<title>Node10</title>
<g id="a_node10"><a xlink:title=" ">
<polygon fill="white" stroke="#bfbfbf" points="547,-62 547,-81 607,-81 607,-62 547,-62"/>
<text text-anchor="middle" x="577" y="-69" font-family="Helvetica,sans-Serif" font-size="10.00">iostream</text>
</a>
</g>
</g>
<!-- Node2&#45;&gt;Node10 -->
<g id="edge9" class="edge">
<title>Node2&#45;&gt;Node10</title>
<path fill="none" stroke="midnightblue" d="M779.63,-125.07C738.7,-117.31 672.16,-103.61 616,-87 613.36,-86.22 610.65,-85.35 607.94,-84.44"/>
<polygon fill="midnightblue" stroke="midnightblue" points="608.87,-81.06 598.28,-81.01 606.53,-87.65 608.87,-81.06"/>
</g>
<!-- Node11 -->
<g id="node11" class="node">
<title>Node11</title>
<g id="a_node11"><a xlink:title=" ">
<polygon fill="white" stroke="#bfbfbf" points="625,-62 625,-81 673,-81 673,-62 625,-62"/>
<text text-anchor="middle" x="649" y="-69" font-family="Helvetica,sans-Serif" font-size="10.00">mutex</text>
</a>
</g>
</g>
<!-- Node2&#45;&gt;Node11 -->
<g id="edge10" class="edge">
<title>Node2&#45;&gt;Node11</title>
<path fill="none" stroke="midnightblue" d="M789.59,-123.46C761.89,-114.93 718.68,-101.09 682,-87 680.39,-86.38 678.75,-85.73 677.1,-85.06"/>
<polygon fill="midnightblue" stroke="midnightblue" points="678.29,-81.76 667.72,-81.09 675.57,-88.21 678.29,-81.76"/>
</g>
<!-- Node12 -->
<g id="node12" class="node">
<title>Node12</title>
<g id="a_node12"><a xlink:title=" ">
<polygon fill="white" stroke="#bfbfbf" points="691,-62 691,-81 745,-81 745,-62 691,-62"/>
<text text-anchor="middle" x="718" y="-69" font-family="Helvetica,sans-Serif" font-size="10.00">random</text>
</a>
</g>
</g>
<!-- Node2&#45;&gt;Node12 -->
<g id="edge11" class="edge">
<title>Node2&#45;&gt;Node12</title>
<path fill="none" stroke="midnightblue" d="M803.67,-123.48C787.34,-113.75 760.4,-97.73 741.09,-86.24"/>
<polygon fill="midnightblue" stroke="midnightblue" points="742.68,-83.11 732.3,-81.01 739.11,-89.13 742.68,-83.11"/>
</g>
<!-- Node13 -->
<g id="node13" class="node">
<title>Node13</title>
<g id="a_node13"><a xlink:title=" ">
<polygon fill="white" stroke="#bfbfbf" points="763,-62 763,-81 803,-81 803,-62 763,-62"/>
<text text-anchor="middle" x="783" y="-69" font-family="Helvetica,sans-Serif" font-size="10.00">span</text>
</a>
</g>
</g>
<!-- Node2&#45;&gt;Node13 -->
<g id="edge12" class="edge">
<title>Node2&#45;&gt;Node13</title>
<path fill="none" stroke="midnightblue" d="M812.99,-123.48C807.84,-114.73 799.69,-100.87 793.18,-89.81"/>
<polygon fill="midnightblue" stroke="midnightblue" points="796.09,-87.85 788.01,-81.01 790.06,-91.4 796.09,-87.85"/>
</g>
<!-- Node14 -->
<g id="node14" class="node">
<title>Node14</title>
<g id="a_node14"><a xlink:title=" ">
<polygon fill="white" stroke="#bfbfbf" points="821.5,-62 821.5,-81 886.5,-81 886.5,-62 821.5,-62"/>
<text text-anchor="middle" x="854" y="-69" font-family="Helvetica,sans-Serif" font-size="10.00">stdexcept</text>
</a>
</g>
</g>
<!-- Node2&#45;&gt;Node14 -->
<g id="edge13" class="edge">
<title>Node2&#45;&gt;Node14</title>
<path fill="none" stroke="midnightblue" d="M823.16,-123.48C828.45,-114.73 836.84,-100.87 843.53,-89.81"/>
<polygon fill="midnightblue" stroke="midnightblue" points="846.67,-91.38 848.85,-81.01 840.68,-87.75 846.67,-91.38"/>
</g>
<!-- Node15 -->
<g id="node15" class="node">
<title>Node15</title>
<g id="a_node15"><a xlink:title=" ">
<polygon fill="white" stroke="#bfbfbf" points="905,-62 905,-81 949,-81 949,-62 905,-62"/>
<text text-anchor="middle" x="927" y="-69" font-family="Helvetica,sans-Serif" font-size="10.00">string</text>
</a>
</g>
</g>
<!-- Node2&#45;&gt;Node15 -->
<g id="edge14" class="edge">
<title>Node2&#45;&gt;Node15</title>
<path fill="none" stroke="midnightblue" d="M833.62,-123.48C851.59,-113.67 881.32,-97.43 902.41,-85.92"/>
<polygon fill="midnightblue" stroke="midnightblue" points="904.31,-88.87 911.41,-81.01 900.96,-82.73 904.31,-88.87"/>
</g>
<!-- Node16 -->
<g id="node16" class="node">
<title>Node16</title>
<g id="a_node16"><a xlink:title=" ">
<polygon fill="white" stroke="#bfbfbf" points="967.5,-62 967.5,-81 1032.5,-81 1032.5,-62 967.5,-62"/>
<text text-anchor="middle" x="1000" y="-69" font-family="Helvetica,sans-Serif" font-size="10.00">typeindex</text>
</a>
</g>
</g>
<!-- Node2&#45;&gt;Node16 -->
<g id="edge15" class="edge">
<title>Node2&#45;&gt;Node16</title>
<path fill="none" stroke="midnightblue" d="M845.16,-123.46C873.4,-114.53 918.88,-100.04 958,-87 960.59,-86.14 963.26,-85.24 965.95,-84.33"/>
<polygon fill="midnightblue" stroke="midnightblue" points="967.27,-87.57 975.6,-81.02 965.01,-80.95 967.27,-87.57"/>
</g>
<!-- Node17 -->
<g id="node17" class="node">
<title>Node17</title>
<g id="a_node17"><a xlink:title=" ">
<polygon fill="white" stroke="#bfbfbf" points="1050.5,-62 1050.5,-81 1109.5,-81 1109.5,-62 1050.5,-62"/>
<text text-anchor="middle" x="1080" y="-69" font-family="Helvetica,sans-Serif" font-size="10.00">date/tz.h</text>
</a>
</g>
</g>
<!-- Node2&#45;&gt;Node17 -->
<g id="edge16" class="edge">
<title>Node2&#45;&gt;Node17</title>
<path fill="none" stroke="midnightblue" d="M856.37,-124.6C915.38,-113.16 1023.48,-91.99 1041,-87 1043.64,-86.25 1046.36,-85.4 1049.08,-84.5"/>
<polygon fill="midnightblue" stroke="midnightblue" points="1050.48,-87.71 1058.74,-81.09 1048.15,-81.11 1050.48,-87.71"/>
</g>
<!-- Node18 -->
<g id="node18" class="node">
<title>Node18</title>
<g id="a_node18"><a xlink:title=" ">
<polygon fill="white" stroke="#bfbfbf" points="1128,-62 1128,-81 1226,-81 1226,-62 1128,-62"/>
<text text-anchor="middle" x="1177" y="-69" font-family="Helvetica,sans-Serif" font-size="10.00">pcg_random.hpp</text>
</a>
</g>
</g>
<!-- Node2&#45;&gt;Node18 -->
<g id="edge17" class="edge">
<title>Node2&#45;&gt;Node18</title>
<path fill="none" stroke="midnightblue" d="M856.19,-124.53C859.17,-123.99 862.13,-123.48 865,-123 977.03,-104.31 1006.49,-108.58 1118,-87 1123.44,-85.95 1129.12,-84.72 1134.73,-83.43"/>
<polygon fill="midnightblue" stroke="midnightblue" points="1135.75,-86.78 1144.67,-81.06 1134.13,-79.97 1135.75,-86.78"/>
</g>
<!-- Node19 -->
<g id="node19" class="node">
<title>Node19</title>
<g id="a_node19"><a xlink:title=" ">
<polygon fill="white" stroke="#bfbfbf" points="1244.5,-62 1244.5,-81 1323.5,-81 1323.5,-62 1244.5,-62"/>
<text text-anchor="middle" x="1284" y="-69" font-family="Helvetica,sans-Serif" font-size="10.00">fmt/format.h</text>
</a>
</g>
</g>
<!-- Node2&#45;&gt;Node19 -->
<g id="edge18" class="edge">
<title>Node2&#45;&gt;Node19</title>
<path fill="none" stroke="midnightblue" d="M856.17,-124.39C859.15,-123.88 862.12,-123.41 865,-123 1028.53,-99.44 1072.83,-118.58 1235,-87 1239.48,-86.13 1244.14,-85.02 1248.72,-83.81"/>
<polygon fill="midnightblue" stroke="midnightblue" points="1249.87,-87.12 1258.54,-81.03 1247.97,-80.38 1249.87,-87.12"/>
</g>
<!-- Node20 -->
<g id="node20" class="node">
<title>Node20</title>
<g id="a_node20"><a xlink:title=" ">
<polygon fill="white" stroke="#bfbfbf" points="1342,-62 1342,-81 1428,-81 1428,-62 1342,-62"/>
<text text-anchor="middle" x="1385" y="-69" font-family="Helvetica,sans-Serif" font-size="10.00">fmt/ostream.h</text>
</a>
</g>
</g>
<!-- Node2&#45;&gt;Node20 -->
<g id="edge19" class="edge">
<title>Node2&#45;&gt;Node20</title>
<path fill="none" stroke="midnightblue" d="M856.16,-124.32C859.15,-123.83 862.12,-123.39 865,-123 1071.33,-95.38 1126.9,-122.63 1332,-87 1337.15,-86.1 1342.53,-84.93 1347.8,-83.63"/>
<polygon fill="midnightblue" stroke="midnightblue" points="1348.93,-86.95 1357.72,-81.03 1347.16,-80.18 1348.93,-86.95"/>
</g>
<!-- Node21 -->
<g id="node21" class="node">
<title>Node21</title>
<g id="a_node21"><a xlink:title=" ">
<polygon fill="white" stroke="#bfbfbf" points="1446,-56.5 1446,-86.5 1552,-86.5 1552,-56.5 1446,-56.5"/>
<text text-anchor="start" x="1454" y="-74.5" font-family="Helvetica,sans-Serif" font-size="10.00">spdlog/sinks/basic</text>
<text text-anchor="middle" x="1499" y="-63.5" font-family="Helvetica,sans-Serif" font-size="10.00">_file_sink.h</text>
</a>
</g>
</g>
<!-- Node2&#45;&gt;Node21 -->
<g id="edge20" class="edge">
<title>Node2&#45;&gt;Node21</title>
<path fill="none" stroke="midnightblue" d="M856.16,-124.28C859.14,-123.8 862.12,-123.37 865,-123 1114.37,-91.4 1183.19,-123.27 1435.46,-87.06"/>
<polygon fill="midnightblue" stroke="midnightblue" points="1436.28,-90.47 1445.67,-85.57 1435.27,-83.55 1436.28,-90.47"/>
</g>
<!-- Node22 -->
<g id="node22" class="node">
<title>Node22</title>
<g id="a_node22"><a xlink:title=" ">
<polygon fill="white" stroke="#bfbfbf" points="1570.5,-56.5 1570.5,-86.5 1681.5,-86.5 1681.5,-56.5 1570.5,-56.5"/>
<text text-anchor="start" x="1578.5" y="-74.5" font-family="Helvetica,sans-Serif" font-size="10.00">spdlog/sinks/stdout</text>
<text text-anchor="middle" x="1626" y="-63.5" font-family="Helvetica,sans-Serif" font-size="10.00">_color_sinks.h</text>
</a>
</g>
</g>
<!-- Node2&#45;&gt;Node22 -->
<g id="edge21" class="edge">
<title>Node2&#45;&gt;Node22</title>
<path fill="none" stroke="midnightblue" d="M856.15,-124.24C859.14,-123.77 862.11,-123.35 865,-123 1169.2,-86.18 1252.32,-127.95 1560.33,-86.9"/>
<polygon fill="midnightblue" stroke="midnightblue" points="1561,-90.34 1570.44,-85.54 1560.06,-83.41 1561,-90.34"/>
</g>
<!-- Node23 -->
<g id="node23" class="node">
<title>Node23</title>
<g id="a_node23"><a xlink:title=" ">
<polygon fill="white" stroke="#bfbfbf" points="1699.5,-62 1699.5,-81 1792.5,-81 1792.5,-62 1699.5,-62"/>
<text text-anchor="middle" x="1746" y="-69" font-family="Helvetica,sans-Serif" font-size="10.00">spdlog/spdlog.h</text>
</a>
</g>
</g>
<!-- Node2&#45;&gt;Node23 -->
<g id="edge22" class="edge">
<title>Node2&#45;&gt;Node23</title>
<path fill="none" stroke="midnightblue" d="M856.15,-124.21C859.13,-123.75 862.11,-123.34 865,-123 1229.53,-80.37 1327.02,-141.3 1690,-87 1695.85,-86.12 1701.98,-84.88 1707.94,-83.49"/>
<polygon fill="midnightblue" stroke="midnightblue" points="1708.89,-86.86 1717.75,-81.05 1707.2,-80.07 1708.89,-86.86"/>
</g>
<!-- Node24 -->
<g id="node24" class="node">
<title>Node24</title>
<g id="a_node24"><a xlink:href="_settings_8hpp.html" target="_top" xlink:title="Global integer and precision settings.">
<polygon fill="white" stroke="black" points="1810.5,-62 1810.5,-81 1887.5,-81 1887.5,-62 1810.5,-62"/>
<text text-anchor="middle" x="1849" y="-69" font-family="Helvetica,sans-Serif" font-size="10.00">Settings.hpp</text>
</a>
</g>
</g>
<!-- Node2&#45;&gt;Node24 -->
<g id="edge23" class="edge">
<title>Node2&#45;&gt;Node24</title>
<path fill="none" stroke="midnightblue" d="M856.15,-124.2C859.13,-123.74 862.11,-123.33 865,-123 1278.61,-75.72 1390.41,-155.75 1801,-87 1805.57,-86.24 1810.31,-85.16 1814.95,-83.94"/>
<polygon fill="midnightblue" stroke="midnightblue" points="1816.22,-87.22 1824.87,-81.1 1814.29,-80.49 1816.22,-87.22"/>
</g>
<!-- Node25 -->
<g id="node25" class="node">
<title>Node25</title>
<g id="a_node25"><a xlink:title=" ">
<polygon fill="white" stroke="#bfbfbf" points="1763,-0.5 1763,-19.5 1849,-19.5 1849,-0.5 1763,-0.5"/>
<text text-anchor="middle" x="1806" y="-7.5" font-family="Helvetica,sans-Serif" font-size="10.00">CGAL/Gmpzf.h</text>
</a>
</g>
</g>
<!-- Node24&#45;&gt;Node25 -->
<g id="edge24" class="edge">
<title>Node24&#45;&gt;Node25</title>
<path fill="none" stroke="midnightblue" d="M1842.84,-61.98C1836.39,-53.05 1826.1,-38.81 1818.03,-27.64"/>
<polygon fill="midnightblue" stroke="midnightblue" points="1820.84,-25.56 1812.15,-19.51 1815.17,-29.66 1820.84,-25.56"/>
</g>
<!-- Node26 -->
<g id="node26" class="node">
<title>Node26</title>
<g id="a_node26"><a xlink:title=" ">
<polygon fill="white" stroke="#bfbfbf" points="1867,-0.5 1867,-19.5 1917,-19.5 1917,-0.5 1867,-0.5"/>
<text text-anchor="middle" x="1892" y="-7.5" font-family="Helvetica,sans-Serif" font-size="10.00">cstdint</text>
</a>
</g>
</g>
<!-- Node24&#45;&gt;Node26 -->
<g id="edge25" class="edge">
<title>Node24&#45;&gt;Node26</title>
<path fill="none" stroke="midnightblue" d="M1855.16,-61.98C1861.61,-53.05 1871.9,-38.81 1879.97,-27.64"/>
<polygon fill="midnightblue" stroke="midnightblue" points="1882.83,-29.66 1885.85,-19.51 1877.16,-25.56 1882.83,-29.66"/>
</g>
</g>
</svg>
