<?xml version="1.0" encoding="UTF-8" standalone="no"?>
<!DOCTYPE svg PUBLIC "-//W3C//DTD SVG 1.1//EN"
 "http://www.w3.org/Graphics/SVG/1.1/DTD/svg11.dtd">
<!-- Generated by graphviz version 2.43.0 (0)
 -->
<!-- Title: tests/main.cpp Pages: 1 -->
<!--zoomable 207 -->
<svg id="main" version="1.1" xmlns="http://www.w3.org/2000/svg" xmlns:xlink="http://www.w3.org/1999/xlink" xml:space="preserve" onload="init(evt)">
<style type="text/css"><![CDATA[
.edge:hover path { stroke: red; }
.edge:hover polygon { stroke: red; fill: red; }
]]></style>
<script type="text/javascript"><![CDATA[
var edges = document.getElementsByTagName('g');
if (edges && edges.length) {
  for (var i=0;i<edges.length;i++) {
    if (edges[i].id.substr(0,4)=='edge') {
      edges[i].setAttribute('class','edge');
    }
  }
}
]]></script>
        <defs>
                <circle id="rim" cx="0" cy="0" r="7"/>
                <circle id="rim2" cx="0" cy="0" r="3.5"/>
                <g id="zoomPlus">
                        <use xlink:href="#rim" fill="#404040">
                                <set attributeName="fill" to="#808080" begin="zoomplus.mouseover" end="zoomplus.mouseout"/>
                        </use>
                        <path d="M-4,0h8M0,-4v8" fill="none" stroke="white" stroke-width="1.5" pointer-events="none"/>
                </g>
                <g id="zoomMin">
                        <use xlink:href="#rim" fill="#404040">
                                <set attributeName="fill" to="#808080" begin="zoomminus.mouseover" end="zoomminus.mouseout"/>
                        </use>
                        <path d="M-4,0h8" fill="none" stroke="white" stroke-width="1.5" pointer-events="none"/>
                </g>
                <g id="dirArrow">
                        <path fill="none" stroke="white" stroke-width="1.5" d="M0,-3.0v7 M-2.5,-0.5L0,-3.0L2.5,-0.5"/>
                </g>
               <g id="resetDef">
                       <use xlink:href="#rim2" fill="#404040">
                               <set attributeName="fill" to="#808080" begin="reset.mouseover" end="reset.mouseout"/>
                       </use>
               </g>
        </defs>

<script type="text/javascript">
var viewWidth = 2023;
var viewHeight = 207;
var sectionId = 'dynsection-0';
</script>
<script xlink:href="svgpan.js"/>
<svg id="graph" class="graph">
<g id="viewport">
<title>tests/main.cpp</title>
<polygon fill="white" stroke="transparent" points="-4,4 -4,-203 2018.5,-203 2018.5,4 -4,4"/>
<!-- Node1 -->
<g id="node1" class="node">
<title>Node1</title>
<g id="a_node1"><a xlink:title="Catch test driver.">
<polygon fill="#bfbfbf" stroke="black" points="921,-179.5 921,-198.5 1010,-198.5 1010,-179.5 921,-179.5"/>
<text text-anchor="middle" x="965.5" y="-186.5" font-family="Helvetica,sans-Serif" font-size="10.00">tests/main.cpp</text>
</a>
</g>
</g>
<!-- Node2 -->
<g id="node2" class="node">
<title>Node2</title>
<g id="a_node2"><a xlink:href="_utilities_8hpp.html" target="_top" xlink:title="Utility functions.">
<polygon fill="white" stroke="black" points="874.5,-123.5 874.5,-142.5 950.5,-142.5 950.5,-123.5 874.5,-123.5"/>
<text text-anchor="middle" x="912.5" y="-130.5" font-family="Helvetica,sans-Serif" font-size="10.00">Utilities.hpp</text>
</a>
</g>
</g>
<!-- Node1&#45;&gt;Node2 -->
<g id="edge1" class="edge">
<title>Node1&#45;&gt;Node2</title>
<path fill="none" stroke="midnightblue" d="M956.75,-179.08C949.03,-171.22 937.6,-159.57 928.28,-150.08"/>
<polygon fill="midnightblue" stroke="midnightblue" points="930.59,-147.44 921.09,-142.75 925.6,-152.34 930.59,-147.44"/>
</g>
<!-- Node27 -->
<g id="node27" class="node">
<title>Node27</title>
<g id="a_node27"><a xlink:title=" ">
<polygon fill="white" stroke="#bfbfbf" points="969,-123.5 969,-142.5 1068,-142.5 1068,-123.5 969,-123.5"/>
<text text-anchor="middle" x="1018.5" y="-130.5" font-family="Helvetica,sans-Serif" font-size="10.00">catch2/catch.hpp</text>
</a>
</g>
</g>
<!-- Node1&#45;&gt;Node27 -->
<g id="edge26" class="edge">
<title>Node1&#45;&gt;Node27</title>
<path fill="none" stroke="midnightblue" d="M974.25,-179.08C981.97,-171.22 993.4,-159.57 1002.72,-150.08"/>
<polygon fill="midnightblue" stroke="midnightblue" points="1005.4,-152.34 1009.91,-142.75 1000.41,-147.44 1005.4,-152.34"/>
</g>
<!-- Node3 -->
<g id="node3" class="node">
<title>Node3</title>
<g id="a_node3"><a xlink:title=" ">
<polygon fill="white" stroke="#bfbfbf" points="0,-62 0,-81 83,-81 83,-62 0,-62"/>
<text text-anchor="middle" x="41.5" y="-69" font-family="Helvetica,sans-Serif" font-size="10.00">CGAL/Timer.h</text>
</a>
</g>
</g>
<!-- Node2&#45;&gt;Node3 -->
<g id="edge2" class="edge">
<title>Node2&#45;&gt;Node3</title>
<path fill="none" stroke="midnightblue" d="M874.28,-131.03C733.75,-127.29 245.95,-112.7 92.5,-87 87.41,-86.15 82.1,-84.97 76.92,-83.66"/>
<polygon fill="midnightblue" stroke="midnightblue" points="77.76,-80.26 67.19,-81.01 75.92,-87.01 77.76,-80.26"/>
</g>
<!-- Node4 -->
<g id="node4" class="node">
<title>Node4</title>
<g id="a_node4"><a xlink:title=" ">
<polygon fill="white" stroke="#bfbfbf" points="101.5,-62 101.5,-81 189.5,-81 189.5,-62 101.5,-62"/>
<text text-anchor="middle" x="145.5" y="-69" font-family="Helvetica,sans-Serif" font-size="10.00">sys/utsname.h</text>
</a>
</g>
</g>
<!-- Node2&#45;&gt;Node4 -->
<g id="edge3" class="edge">
<title>Node2&#45;&gt;Node4</title>
<path fill="none" stroke="midnightblue" d="M874.26,-132.32C766.92,-132.63 453.95,-129.53 198.5,-87 193.28,-86.13 187.84,-84.96 182.51,-83.65"/>
<polygon fill="midnightblue" stroke="midnightblue" points="183.06,-80.18 172.5,-81.03 181.28,-86.95 183.06,-80.18"/>
</g>
<!-- Node5 -->
<g id="node5" class="node">
<title>Node5</title>
<g id="a_node5"><a xlink:title=" ">
<polygon fill="white" stroke="#bfbfbf" points="208,-62 208,-81 325,-81 325,-62 208,-62"/>
<text text-anchor="middle" x="266.5" y="-69" font-family="Helvetica,sans-Serif" font-size="10.00">boost/date_time.hpp</text>
</a>
</g>
</g>
<!-- Node2&#45;&gt;Node5 -->
<g id="edge4" class="edge">
<title>Node2&#45;&gt;Node5</title>
<path fill="none" stroke="midnightblue" d="M874.44,-130.78C781.67,-127.43 536.71,-116.3 334.5,-87 327.27,-85.95 319.66,-84.59 312.26,-83.12"/>
<polygon fill="midnightblue" stroke="midnightblue" points="312.84,-79.67 302.34,-81.07 311.42,-86.52 312.84,-79.67"/>
</g>
<!-- Node6 -->
<g id="node6" class="node">
<title>Node6</title>
<g id="a_node6"><a xlink:title=" ">
<polygon fill="white" stroke="#bfbfbf" points="343.5,-62 343.5,-81 407.5,-81 407.5,-62 343.5,-62"/>
<text text-anchor="middle" x="375.5" y="-69" font-family="Helvetica,sans-Serif" font-size="10.00">algorithm</text>
</a>
</g>
</g>
<!-- Node2&#45;&gt;Node6 -->
<g id="edge5" class="edge">
<title>Node2&#45;&gt;Node6</title>
<path fill="none" stroke="midnightblue" d="M874.37,-131.76C790.55,-130.54 584.38,-123.7 416.5,-87 413.08,-86.25 409.55,-85.3 406.06,-84.24"/>
<polygon fill="midnightblue" stroke="midnightblue" points="407.08,-80.89 396.49,-81.05 404.87,-87.53 407.08,-80.89"/>
</g>
<!-- Node7 -->
<g id="node7" class="node">
<title>Node7</title>
<g id="a_node7"><a xlink:title=" ">
<polygon fill="white" stroke="#bfbfbf" points="425.5,-62 425.5,-81 477.5,-81 477.5,-62 425.5,-62"/>
<text text-anchor="middle" x="451.5" y="-69" font-family="Helvetica,sans-Serif" font-size="10.00">cassert</text>
</a>
</g>
</g>
<!-- Node2&#45;&gt;Node7 -->
<g id="edge6" class="edge">
<title>Node2&#45;&gt;Node7</title>
<path fill="none" stroke="midnightblue" d="M874.25,-131.62C798.87,-130.06 626.33,-122.56 486.5,-87 483.99,-86.36 481.42,-85.58 478.88,-84.71"/>
<polygon fill="midnightblue" stroke="midnightblue" points="479.92,-81.36 469.33,-81.04 477.41,-87.89 479.92,-81.36"/>
</g>
<!-- Node8 -->
<g id="node8" class="node">
<title>Node8</title>
<g id="a_node8"><a xlink:title=" ">
<polygon fill="white" stroke="#bfbfbf" points="496,-62 496,-81 545,-81 545,-62 496,-62"/>
<text text-anchor="middle" x="520.5" y="-69" font-family="Helvetica,sans-Serif" font-size="10.00">cstdlib</text>
</a>
</g>
</g>
<!-- Node2&#45;&gt;Node8 -->
<g id="edge7" class="edge">
<title>Node2&#45;&gt;Node8</title>
<path fill="none" stroke="midnightblue" d="M874.33,-130.82C807.96,-127.99 667.48,-118.47 553.5,-87 551.34,-86.4 549.15,-85.69 546.96,-84.91"/>
<polygon fill="midnightblue" stroke="midnightblue" points="548.21,-81.64 537.62,-81.14 545.59,-88.13 548.21,-81.64"/>
</g>
<!-- Node9 -->
<g id="node9" class="node">
<title>Node9</title>
<g id="a_node9"><a xlink:title=" ">
<polygon fill="white" stroke="#bfbfbf" points="563,-62 563,-81 618,-81 618,-62 563,-62"/>
<text text-anchor="middle" x="590.5" y="-69" font-family="Helvetica,sans-Serif" font-size="10.00">fstream</text>
</a>
</g>
</g>
<!-- Node2&#45;&gt;Node9 -->
<g id="edge8" class="edge">
<title>Node2&#45;&gt;Node9</title>
<path fill="none" stroke="midnightblue" d="M874.15,-128.61C818.89,-123.13 714.03,-110.49 627.5,-87 624.91,-86.3 622.24,-85.47 619.59,-84.58"/>
<polygon fill="midnightblue" stroke="midnightblue" points="620.8,-81.29 610.2,-81.13 618.39,-87.86 620.8,-81.29"/>
</g>
<!-- Node10 -->
<g id="node10" class="node">
<title>Node10</title>
<g id="a_node10"><a xlink:title=" ">
<polygon fill="white" stroke="#bfbfbf" points="636.5,-62 636.5,-81 684.5,-81 684.5,-62 636.5,-62"/>
<text text-anchor="middle" x="660.5" y="-69" font-family="Helvetica,sans-Serif" font-size="10.00">gsl/gsl</text>
</a>
</g>
</g>
<!-- Node2&#45;&gt;Node10 -->
<g id="edge9" class="edge">
<title>Node2&#45;&gt;Node10</title>
<path fill="none" stroke="midnightblue" d="M874.29,-126.66C830.09,-119.91 755.45,-106.73 693.5,-87 691.58,-86.39 689.61,-85.7 687.65,-84.96"/>
<polygon fill="midnightblue" stroke="midnightblue" points="688.63,-81.58 678.05,-81.03 685.97,-88.06 688.63,-81.58"/>
</g>
<!-- Node11 -->
<g id="node11" class="node">
<title>Node11</title>
<g id="a_node11"><a xlink:title=" ">
<polygon fill="white" stroke="#bfbfbf" points="702.5,-62 702.5,-81 762.5,-81 762.5,-62 702.5,-62"/>
<text text-anchor="middle" x="732.5" y="-69" font-family="Helvetica,sans-Serif" font-size="10.00">iostream</text>
</a>
</g>
</g>
<!-- Node2&#45;&gt;Node11 -->
<g id="edge10" class="edge">
<title>Node2&#45;&gt;Node11</title>
<path fill="none" stroke="midnightblue" d="M884.28,-123.42C855.72,-114.64 810.36,-100.42 771.5,-87 769.25,-86.22 766.94,-85.41 764.61,-84.58"/>
<polygon fill="midnightblue" stroke="midnightblue" points="765.71,-81.25 755.12,-81.11 763.32,-87.83 765.71,-81.25"/>
</g>
<!-- Node12 -->
<g id="node12" class="node">
<title>Node12</title>
<g id="a_node12"><a xlink:title=" ">
<polygon fill="white" stroke="#bfbfbf" points="780.5,-62 780.5,-81 828.5,-81 828.5,-62 780.5,-62"/>
<text text-anchor="middle" x="804.5" y="-69" font-family="Helvetica,sans-Serif" font-size="10.00">mutex</text>
</a>
</g>
</g>
<!-- Node2&#45;&gt;Node12 -->
<g id="edge11" class="edge">
<title>Node2&#45;&gt;Node12</title>
<path fill="none" stroke="midnightblue" d="M897.03,-123.48C879.22,-113.67 849.76,-97.43 828.87,-85.92"/>
<polygon fill="midnightblue" stroke="midnightblue" points="830.39,-82.77 819.95,-81.01 827.01,-88.9 830.39,-82.77"/>
</g>
<!-- Node13 -->
<g id="node13" class="node">
<title>Node13</title>
<g id="a_node13"><a xlink:title=" ">
<polygon fill="white" stroke="#bfbfbf" points="846.5,-62 846.5,-81 900.5,-81 900.5,-62 846.5,-62"/>
<text text-anchor="middle" x="873.5" y="-69" font-family="Helvetica,sans-Serif" font-size="10.00">random</text>
</a>
</g>
</g>
<!-- Node2&#45;&gt;Node13 -->
<g id="edge12" class="edge">
<title>Node2&#45;&gt;Node13</title>
<path fill="none" stroke="midnightblue" d="M906.91,-123.48C901.12,-114.64 891.91,-100.59 884.63,-89.48"/>
<polygon fill="midnightblue" stroke="midnightblue" points="887.49,-87.45 879.08,-81.01 881.63,-91.29 887.49,-87.45"/>
</g>
<!-- Node14 -->
<g id="node14" class="node">
<title>Node14</title>
<g id="a_node14"><a xlink:title=" ">
<polygon fill="white" stroke="#bfbfbf" points="919,-62 919,-81 984,-81 984,-62 919,-62"/>
<text text-anchor="middle" x="951.5" y="-69" font-family="Helvetica,sans-Serif" font-size="10.00">stdexcept</text>
</a>
</g>
</g>
<!-- Node2&#45;&gt;Node14 -->
<g id="edge13" class="edge">
<title>Node2&#45;&gt;Node14</title>
<path fill="none" stroke="midnightblue" d="M918.09,-123.48C923.88,-114.64 933.09,-100.59 940.37,-89.48"/>
<polygon fill="midnightblue" stroke="midnightblue" points="943.37,-91.29 945.92,-81.01 937.51,-87.45 943.37,-91.29"/>
</g>
<!-- Node15 -->
<g id="node15" class="node">
<title>Node15</title>
<g id="a_node15"><a xlink:title=" ">
<polygon fill="white" stroke="#bfbfbf" points="1002.5,-62 1002.5,-81 1046.5,-81 1046.5,-62 1002.5,-62"/>
<text text-anchor="middle" x="1024.5" y="-69" font-family="Helvetica,sans-Serif" font-size="10.00">string</text>
</a>
</g>
</g>
<!-- Node2&#45;&gt;Node15 -->
<g id="edge14" class="edge">
<title>Node2&#45;&gt;Node15</title>
<path fill="none" stroke="midnightblue" d="M928.55,-123.48C947.09,-113.62 977.84,-97.29 999.52,-85.77"/>
<polygon fill="midnightblue" stroke="midnightblue" points="1001.29,-88.79 1008.48,-81.01 998.01,-82.61 1001.29,-88.79"/>
</g>
<!-- Node16 -->
<g id="node16" class="node">
<title>Node16</title>
<g id="a_node16"><a xlink:title=" ">
<polygon fill="white" stroke="#bfbfbf" points="1065,-62 1065,-81 1130,-81 1130,-62 1065,-62"/>
<text text-anchor="middle" x="1097.5" y="-69" font-family="Helvetica,sans-Serif" font-size="10.00">typeindex</text>
</a>
</g>
</g>
<!-- Node2&#45;&gt;Node16 -->
<g id="edge15" class="edge">
<title>Node2&#45;&gt;Node16</title>
<path fill="none" stroke="midnightblue" d="M940.52,-123.43C969.41,-114.54 1015.71,-100.13 1055.5,-87 1058.09,-86.15 1060.76,-85.25 1063.45,-84.34"/>
<polygon fill="midnightblue" stroke="midnightblue" points="1064.77,-87.59 1073.11,-81.05 1062.51,-80.97 1064.77,-87.59"/>
</g>
<!-- Node17 -->
<g id="node17" class="node">
<title>Node17</title>
<g id="a_node17"><a xlink:title=" ">
<polygon fill="white" stroke="#bfbfbf" points="1148,-62 1148,-81 1207,-81 1207,-62 1148,-62"/>
<text text-anchor="middle" x="1177.5" y="-69" font-family="Helvetica,sans-Serif" font-size="10.00">date/tz.h</text>
</a>
</g>
</g>
<!-- Node2&#45;&gt;Node17 -->
<g id="edge16" class="edge">
<title>Node2&#45;&gt;Node17</title>
<path fill="none" stroke="midnightblue" d="M950.94,-124.51C1013.06,-112.39 1129.5,-89.55 1138.5,-87 1141.15,-86.25 1143.87,-85.4 1146.58,-84.5"/>
<polygon fill="midnightblue" stroke="midnightblue" points="1147.98,-87.72 1156.25,-81.1 1145.65,-81.12 1147.98,-87.72"/>
</g>
<!-- Node18 -->
<g id="node18" class="node">
<title>Node18</title>
<g id="a_node18"><a xlink:title=" ">
<polygon fill="white" stroke="#bfbfbf" points="1225.5,-62 1225.5,-81 1323.5,-81 1323.5,-62 1225.5,-62"/>
<text text-anchor="middle" x="1274.5" y="-69" font-family="Helvetica,sans-Serif" font-size="10.00">pcg_random.hpp</text>
</a>
</g>
</g>
<!-- Node2&#45;&gt;Node18 -->
<g id="edge17" class="edge">
<title>Node2&#45;&gt;Node18</title>
<path fill="none" stroke="midnightblue" d="M950.69,-124.52C953.67,-123.99 956.63,-123.48 959.5,-123 1072.85,-104.19 1102.68,-108.74 1215.5,-87 1220.94,-85.95 1226.63,-84.72 1232.23,-83.43"/>
<polygon fill="midnightblue" stroke="midnightblue" points="1233.25,-86.79 1242.17,-81.07 1231.63,-79.98 1233.25,-86.79"/>
</g>
<!-- Node19 -->
<g id="node19" class="node">
<title>Node19</title>
<g id="a_node19"><a xlink:title=" ">
<polygon fill="white" stroke="#bfbfbf" points="1342,-62 1342,-81 1421,-81 1421,-62 1342,-62"/>
<text text-anchor="middle" x="1381.5" y="-69" font-family="Helvetica,sans-Serif" font-size="10.00">fmt/format.h</text>
</a>
</g>
</g>
<!-- Node2&#45;&gt;Node19 -->
<g id="edge18" class="edge">
<title>Node2&#45;&gt;Node19</title>
<path fill="none" stroke="midnightblue" d="M950.67,-124.38C953.65,-123.88 956.62,-123.41 959.5,-123 1124.36,-99.31 1169.01,-118.77 1332.5,-87 1336.98,-86.13 1341.64,-85.02 1346.22,-83.81"/>
<polygon fill="midnightblue" stroke="midnightblue" points="1347.37,-87.12 1356.04,-81.04 1345.47,-80.39 1347.37,-87.12"/>
</g>
<!-- Node20 -->
<g id="node20" class="node">
<title>Node20</title>
<g id="a_node20"><a xlink:title=" ">
<polygon fill="white" stroke="#bfbfbf" points="1439.5,-62 1439.5,-81 1525.5,-81 1525.5,-62 1439.5,-62"/>
<text text-anchor="middle" x="1482.5" y="-69" font-family="Helvetica,sans-Serif" font-size="10.00">fmt/ostream.h</text>
</a>
</g>
</g>
<!-- Node2&#45;&gt;Node20 -->
<g id="edge19" class="edge">
<title>Node2&#45;&gt;Node20</title>
<path fill="none" stroke="midnightblue" d="M950.66,-124.32C953.65,-123.83 956.62,-123.39 959.5,-123 1167.16,-95.26 1223.08,-122.8 1429.5,-87 1434.65,-86.11 1440.03,-84.93 1445.3,-83.63"/>
<polygon fill="midnightblue" stroke="midnightblue" points="1446.43,-86.96 1455.22,-81.03 1444.66,-80.18 1446.43,-86.96"/>
</g>
<!-- Node21 -->
<g id="node21" class="node">
<title>Node21</title>
<g id="a_node21"><a xlink:title=" ">
<polygon fill="white" stroke="#bfbfbf" points="1543.5,-56.5 1543.5,-86.5 1649.5,-86.5 1649.5,-56.5 1543.5,-56.5"/>
<text text-anchor="start" x="1551.5" y="-74.5" font-family="Helvetica,sans-Serif" font-size="10.00">spdlog/sinks/basic</text>
<text text-anchor="middle" x="1596.5" y="-63.5" font-family="Helvetica,sans-Serif" font-size="10.00">_file_sink.h</text>
</a>
</g>
</g>
<!-- Node2&#45;&gt;Node21 -->
<g id="edge20" class="edge">
<title>Node2&#45;&gt;Node21</title>
<path fill="none" stroke="midnightblue" d="M950.65,-124.27C953.64,-123.8 956.62,-123.37 959.5,-123 1210.18,-91.28 1279.36,-123.42 1532.91,-87.06"/>
<polygon fill="midnightblue" stroke="midnightblue" points="1533.78,-90.47 1543.17,-85.57 1532.77,-83.55 1533.78,-90.47"/>
</g>
<!-- Node22 -->
<g id="node22" class="node">
<title>Node22</title>
<g id="a_node22"><a xlink:title=" ">
<polygon fill="white" stroke="#bfbfbf" points="1668,-56.5 1668,-86.5 1779,-86.5 1779,-56.5 1668,-56.5"/>
<text text-anchor="start" x="1676" y="-74.5" font-family="Helvetica,sans-Serif" font-size="10.00">spdlog/sinks/stdout</text>
<text text-anchor="middle" x="1723.5" y="-63.5" font-family="Helvetica,sans-Serif" font-size="10.00">_color_sinks.h</text>
</a>
</g>
</g>
<!-- Node2&#45;&gt;Node22 -->
<g id="edge21" class="edge">
<title>Node2&#45;&gt;Node22</title>
<path fill="none" stroke="midnightblue" d="M950.65,-124.24C953.64,-123.77 956.61,-123.35 959.5,-123 1265.01,-86.06 1348.49,-128.09 1657.79,-86.91"/>
<polygon fill="midnightblue" stroke="midnightblue" points="1658.5,-90.34 1667.94,-85.54 1657.56,-83.41 1658.5,-90.34"/>
</g>
<!-- Node23 -->
<g id="node23" class="node">
<title>Node23</title>
<g id="a_node23"><a xlink:title=" ">
<polygon fill="white" stroke="#bfbfbf" points="1797,-62 1797,-81 1890,-81 1890,-62 1797,-62"/>
<text text-anchor="middle" x="1843.5" y="-69" font-family="Helvetica,sans-Serif" font-size="10.00">spdlog/spdlog.h</text>
</a>
</g>
</g>
<!-- Node2&#45;&gt;Node23 -->
<g id="edge22" class="edge">
<title>Node2&#45;&gt;Node23</title>
<path fill="none" stroke="midnightblue" d="M950.65,-124.21C953.63,-123.75 956.61,-123.34 959.5,-123 1325.36,-80.25 1423.2,-141.47 1787.5,-87 1793.35,-86.12 1799.48,-84.88 1805.44,-83.49"/>
<polygon fill="midnightblue" stroke="midnightblue" points="1806.39,-86.86 1815.25,-81.05 1804.7,-80.07 1806.39,-86.86"/>
</g>
<!-- Node24 -->
<g id="node24" class="node">
<title>Node24</title>
<g id="a_node24"><a xlink:href="_settings_8hpp.html" target="_top" xlink:title="Global integer and precision settings.">
<polygon fill="white" stroke="black" points="1908,-62 1908,-81 1985,-81 1985,-62 1908,-62"/>
<text text-anchor="middle" x="1946.5" y="-69" font-family="Helvetica,sans-Serif" font-size="10.00">Settings.hpp</text>
</a>
</g>
</g>
<!-- Node2&#45;&gt;Node24 -->
<g id="edge23" class="edge">
<title>Node2&#45;&gt;Node24</title>
<path fill="none" stroke="midnightblue" d="M950.65,-124.2C953.63,-123.74 956.61,-123.33 959.5,-123 1374.44,-75.59 1486.59,-155.95 1898.5,-87 1903.07,-86.24 1907.81,-85.16 1912.45,-83.94"/>
<polygon fill="midnightblue" stroke="midnightblue" points="1913.72,-87.22 1922.37,-81.1 1911.79,-80.49 1913.72,-87.22"/>
</g>
<!-- Node25 -->
<g id="node25" class="node">
<title>Node25</title>
<g id="a_node25"><a xlink:title=" ">
<polygon fill="white" stroke="#bfbfbf" points="1860.5,-0.5 1860.5,-19.5 1946.5,-19.5 1946.5,-0.5 1860.5,-0.5"/>
<text text-anchor="middle" x="1903.5" y="-7.5" font-family="Helvetica,sans-Serif" font-size="10.00">CGAL/Gmpzf.h</text>
</a>
</g>
</g>
<!-- Node24&#45;&gt;Node25 -->
<g id="edge24" class="edge">
<title>Node24&#45;&gt;Node25</title>
<path fill="none" stroke="midnightblue" d="M1940.34,-61.98C1933.89,-53.05 1923.6,-38.81 1915.53,-27.64"/>
<polygon fill="midnightblue" stroke="midnightblue" points="1918.34,-25.56 1909.65,-19.51 1912.67,-29.66 1918.34,-25.56"/>
</g>
<!-- Node26 -->
<g id="node26" class="node">
<title>Node26</title>
<g id="a_node26"><a xlink:title=" ">
<polygon fill="white" stroke="#bfbfbf" points="1964.5,-0.5 1964.5,-19.5 2014.5,-19.5 2014.5,-0.5 1964.5,-0.5"/>
<text text-anchor="middle" x="1989.5" y="-7.5" font-family="Helvetica,sans-Serif" font-size="10.00">cstdint</text>
</a>
</g>
</g>
<!-- Node24&#45;&gt;Node26 -->
<g id="edge25" class="edge">
<title>Node24&#45;&gt;Node26</title>
<path fill="none" stroke="midnightblue" d="M1952.66,-61.98C1959.11,-53.05 1969.4,-38.81 1977.47,-27.64"/>
<polygon fill="midnightblue" stroke="midnightblue" points="1980.33,-29.66 1983.35,-19.51 1974.66,-25.56 1980.33,-29.66"/>
</g>
</g>
</svg>
        <g id="navigator" transform="translate(0 0)" fill="#404254">
                <rect fill="#f2f5e9" fill-opacity="0.5" stroke="#606060" stroke-width=".5" x="0" y="0" width="60" height="60"/>
                <use id="zoomplus" xlink:href="#zoomPlus" x="17" y="9" onmousedown="handleZoom(evt,'in')"/>
                <use id="zoomminus" xlink:href="#zoomMin" x="42" y="9" onmousedown="handleZoom(evt,'out')"/>
                <use id="reset" xlink:href="#resetDef" x="30" y="36" onmousedown="handleReset()"/>
                <g id="arrowUp" xlink:href="#dirArrow" transform="translate(30 24)" onmousedown="handlePan(0,-1)">
                  <use xlink:href="#rim" fill="#404040">
                        <set attributeName="fill" to="#808080" begin="arrowUp.mouseover" end="arrowUp.mouseout"/>
                  </use>
                  <path fill="none" stroke="white" stroke-width="1.5" d="M0,-3.0v7 M-2.5,-0.5L0,-3.0L2.5,-0.5"/>
                </g>
                <g id="arrowRight" xlink:href="#dirArrow" transform="rotate(90) translate(36 -43)" onmousedown="handlePan(1,0)">
                  <use xlink:href="#rim" fill="#404040">
                        <set attributeName="fill" to="#808080" begin="arrowRight.mouseover" end="arrowRight.mouseout"/>
                  </use>
                  <path fill="none" stroke="white" stroke-width="1.5" d="M0,-3.0v7 M-2.5,-0.5L0,-3.0L2.5,-0.5"/>
                </g>
                <g id="arrowDown" xlink:href="#dirArrow" transform="rotate(180) translate(-30 -48)" onmousedown="handlePan(0,1)">
                  <use xlink:href="#rim" fill="#404040">
                        <set attributeName="fill" to="#808080" begin="arrowDown.mouseover" end="arrowDown.mouseout"/>
                  </use>
                  <path fill="none" stroke="white" stroke-width="1.5" d="M0,-3.0v7 M-2.5,-0.5L0,-3.0L2.5,-0.5"/>
                </g>
                <g id="arrowLeft" xlink:href="#dirArrow" transform="rotate(270) translate(-36 17)" onmousedown="handlePan(-1,0)">
                  <use xlink:href="#rim" fill="#404040">
                        <set attributeName="fill" to="#808080" begin="arrowLeft.mouseover" end="arrowLeft.mouseout"/>
                  </use>
                  <path fill="none" stroke="white" stroke-width="1.5" d="M0,-3.0v7 M-2.5,-0.5L0,-3.0L2.5,-0.5"/>
                </g>
        </g>
        <svg viewBox="0 0 15 15" width="100%" height="30px" preserveAspectRatio="xMaxYMin meet">
         <g id="arrow_out" transform="scale(0.3 0.3)">
          <a xlink:href="main_8cpp__incl_org.svg" target="_base">
           <rect id="button" ry="5" rx="5" y="6" x="6" height="38" width="38"
                fill="#f2f5e9" fill-opacity="0.5" stroke="#606060" stroke-width="1.0"/>
           <path id="arrow"
             d="M 11.500037,31.436501 C 11.940474,20.09759 22.043105,11.32322 32.158766,21.979434 L 37.068811,17.246167 C 37.068811,17.246167 37.088388,32 37.088388,32 L 22.160133,31.978069 C 22.160133,31.978069 26.997745,27.140456 26.997745,27.140456 C 18.528582,18.264221 13.291696,25.230495 11.500037,31.436501 z"
             style="fill:#404040;"/>
          </a>
         </g>
        </svg>
</svg>
