<?xml version="1.0" encoding="UTF-8" standalone="no"?>
<!DOCTYPE svg PUBLIC "-//W3C//DTD SVG 1.1//EN"
 "http://www.w3.org/Graphics/SVG/1.1/DTD/svg11.dtd">
<!-- Generated by graphviz version 2.40.1 (20161225.0304)
 -->
<!-- Title: SimplicialManifold Pages: 1 -->
<!--zoomable 855 -->
<svg id="main" version="1.1" xmlns="http://www.w3.org/2000/svg" xmlns:xlink="http://www.w3.org/1999/xlink" xml:space="preserve" onload="init(evt)">
<style type="text/css"><![CDATA[
.edge:hover path { stroke: red; }
.edge:hover polygon { stroke: red; fill: red; }
]]></style>
<script type="text/javascript"><![CDATA[
var edges = document.getElementsByTagName('g');
if (edges && edges.length) {
  for (var i=0;i<edges.length;i++) {
    if (edges[i].id.substr(0,4)=='edge') {
      edges[i].setAttribute('class','edge');
    }
  }
}
]]></script>
        <defs>
                <circle id="rim" cx="0" cy="0" r="7"/>
                <circle id="rim2" cx="0" cy="0" r="3.5"/>
                <g id="zoomPlus">
                        <use xlink:href="#rim" fill="#404040">
                                <set attributeName="fill" to="#808080" begin="zoomplus.mouseover" end="zoomplus.mouseout"/>
                        </use>
                        <path d="M-4,0h8M0,-4v8" fill="none" stroke="white" stroke-width="1.5" pointer-events="none"/>
                </g>
                <g id="zoomMin">
                        <use xlink:href="#rim" fill="#404040">
                                <set attributeName="fill" to="#808080" begin="zoomminus.mouseover" end="zoomminus.mouseout"/>
                        </use>
                        <path d="M-4,0h8" fill="none" stroke="white" stroke-width="1.5" pointer-events="none"/>
                </g>
                <g id="dirArrow">
                        <path fill="none" stroke="white" stroke-width="1.5" d="M0,-3.0v7 M-2.5,-0.5L0,-3.0L2.5,-0.5"/>
                </g>
               <g id="resetDef">
                       <use xlink:href="#rim2" fill="#404040">
                               <set attributeName="fill" to="#808080" begin="reset.mouseover" end="reset.mouseout"/>
                       </use>
               </g>
        </defs>

<script type="text/javascript">
var viewWidth = 560;
var viewHeight = 855;
var sectionId = 'dynsection-0';
</script>
<script xlink:href="svgpan.js"/>
<svg id="graph" class="graph">
<g id="viewport">
<title>SimplicialManifold</title>
<polygon fill="#ffffff" stroke="transparent" points="-4,4 -4,-851 556,-851 556,4 -4,4"/>
<!-- Node1 -->
<g id="node1" class="node">
<title>Node1</title>
<polygon fill="#bfbfbf" stroke="#000000" points="102,-.5 102,-156.5 236,-156.5 236,-.5 102,-.5"/>
<text text-anchor="middle" x="169" y="-144.5" font-family="Helvetica,sans-Serif" font-size="10.00" fill="#000000">SimplicialManifold</text>
<polyline fill="none" stroke="#000000" points="102,-137.5 236,-137.5 "/>
<text text-anchor="middle" x="169" y="-125.5" font-family="Helvetica,sans-Serif" font-size="10.00" fill="#000000"> </text>
<polyline fill="none" stroke="#000000" points="102,-118.5 236,-118.5 "/>
<text text-anchor="start" x="110" y="-106.5" font-family="Helvetica,sans-Serif" font-size="10.00" fill="#000000">+ SimplicialManifold()</text>
<text text-anchor="start" x="110" y="-95.5" font-family="Helvetica,sans-Serif" font-size="10.00" fill="#000000">+ SimplicialManifold()</text>
<text text-anchor="start" x="110" y="-84.5" font-family="Helvetica,sans-Serif" font-size="10.00" fill="#000000">+ SimplicialManifold()</text>
<text text-anchor="start" x="110" y="-73.5" font-family="Helvetica,sans-Serif" font-size="10.00" fill="#000000">+ SimplicialManifold()</text>
<text text-anchor="start" x="110" y="-62.5" font-family="Helvetica,sans-Serif" font-size="10.00" fill="#000000">+ SimplicialManifold()</text>
<text text-anchor="start" x="110" y="-51.5" font-family="Helvetica,sans-Serif" font-size="10.00" fill="#000000">+ ~SimplicialManifold()</text>
<text text-anchor="start" x="110" y="-40.5" font-family="Helvetica,sans-Serif" font-size="10.00" fill="#000000">+ operator=()</text>
<text text-anchor="start" x="110" y="-29.5" font-family="Helvetica,sans-Serif" font-size="10.00" fill="#000000">+ operator=()</text>
<text text-anchor="start" x="110" y="-18.5" font-family="Helvetica,sans-Serif" font-size="10.00" fill="#000000">+ reconcile()</text>
<text text-anchor="start" x="110" y="-7.5" font-family="Helvetica,sans-Serif" font-size="10.00" fill="#000000">+ update()</text>
</g>
<!-- Node2 -->
<g id="node2" class="node">
<title>Node2</title>
<polygon fill="#ffffff" stroke="#bfbfbf" points="0,-210 0,-267 164,-267 164,-210 0,-210"/>
<text text-anchor="middle" x="82" y="-255" font-family="Helvetica,sans-Serif" font-size="10.00" fill="#000000">std::unique_ptr&lt; Delaunay3 &gt;</text>
<polyline fill="none" stroke="#bfbfbf" points="0,-248 164,-248 "/>
<text text-anchor="start" x="8" y="-236" font-family="Helvetica,sans-Serif" font-size="10.00" fill="#000000">+ ptr</text>
<polyline fill="none" stroke="#bfbfbf" points="0,-229 164,-229 "/>
<text text-anchor="start" x="8" y="-217" font-family="Helvetica,sans-Serif" font-size="10.00" fill="#000000">+ operator&#45;&gt;()</text>
</g>
<!-- Node2&#45;&gt;Node1 -->
<g id="edge1" class="edge">
<title>Node2&#45;&gt;Node1</title>
<path fill="none" stroke="#404040" d="M97.5539,-209.8952C104.1857,-197.6988 112.3203,-182.7386 120.6954,-167.3361"/>
<polygon fill="none" stroke="#404040" points="120.784,-167.1729 120.1361,-159.991 126.5165,-156.6306 127.1644,-163.8126 120.784,-167.1729"/>
<text text-anchor="middle" x="152" y="-178" font-family="Helvetica,sans-Serif" font-size="10.00" fill="#000000"> +triangulation</text>
</g>
<!-- Node3 -->
<g id="node3" class="node">
<title>Node3</title>
<g id="a_node3"><a xlink:title="STL class. ">
<polygon fill="#ffffff" stroke="#bfbfbf" points="23,-381 23,-438 141,-438 141,-381 23,-381"/>
<text text-anchor="middle" x="82" y="-426" font-family="Helvetica,sans-Serif" font-size="10.00" fill="#000000">std::unique_ptr&lt; T &gt;</text>
<polyline fill="none" stroke="#bfbfbf" points="23,-419 141,-419 "/>
<text text-anchor="middle" x="82" y="-407" font-family="Helvetica,sans-Serif" font-size="10.00" fill="#000000"> </text>
<polyline fill="none" stroke="#bfbfbf" points="23,-400 141,-400 "/>
<text text-anchor="start" x="31" y="-388" font-family="Helvetica,sans-Serif" font-size="10.00" fill="#000000">+ operator&#45;&gt;()</text>
</a>
</g>
</g>
<!-- Node3&#45;&gt;Node2 -->
<g id="edge2" class="edge">
<title>Node3&#45;&gt;Node2</title>
<path fill="none" stroke="#ffa500" d="M82,-370.7146C82,-339.2509 82,-295.6082 82,-267.2149"/>
<polygon fill="#ffa500" stroke="#ffa500" points="78.5001,-370.8784 82,-380.8784 85.5001,-370.8785 78.5001,-370.8784"/>
<text text-anchor="middle" x="121.5" y="-294" font-family="Helvetica,sans-Serif" font-size="10.00" fill="#000000"> &lt; Delaunay3 &gt;</text>
</g>
<!-- Node5 -->
<g id="node5" class="node">
<title>Node5</title>
<polygon fill="#ffffff" stroke="#bfbfbf" points="182.5,-204.5 182.5,-272.5 331.5,-272.5 331.5,-204.5 182.5,-204.5"/>
<text text-anchor="start" x="190.5" y="-260.5" font-family="Helvetica,sans-Serif" font-size="10.00" fill="#000000">std::unique_ptr&lt; Geometry</text>
<text text-anchor="middle" x="257" y="-249.5" font-family="Helvetica,sans-Serif" font-size="10.00" fill="#000000">Info &gt;</text>
<polyline fill="none" stroke="#bfbfbf" points="182.5,-242.5 331.5,-242.5 "/>
<text text-anchor="middle" x="257" y="-230.5" font-family="Helvetica,sans-Serif" font-size="10.00" fill="#000000"> </text>
<polyline fill="none" stroke="#bfbfbf" points="182.5,-223.5 331.5,-223.5 "/>
<text text-anchor="start" x="190.5" y="-211.5" font-family="Helvetica,sans-Serif" font-size="10.00" fill="#000000">+ operator&#45;&gt;()</text>
</g>
<!-- Node3&#45;&gt;Node5 -->
<g id="edge13" class="edge">
<title>Node3&#45;&gt;Node5</title>
<path fill="none" stroke="#ffa500" d="M111.2148,-372.7981C131.3641,-348.4579 159.397,-316.4385 187,-291 193.8141,-284.7202 201.3553,-278.4523 208.8902,-272.5471"/>
<polygon fill="#ffa500" stroke="#ffa500" points="108.3366,-370.788 104.6958,-380.7376 113.7466,-375.2301 108.3366,-370.788"/>
<text text-anchor="middle" x="234" y="-294" font-family="Helvetica,sans-Serif" font-size="10.00" fill="#000000"> &lt; GeometryInfo &gt;</text>
</g>
<!-- Node4 -->
<g id="node4" class="node">
<title>Node4</title>
<polygon fill="#ffffff" stroke="#bfbfbf" points="76.5,-789.5 76.5,-846.5 105.5,-846.5 105.5,-789.5 76.5,-789.5"/>
<text text-anchor="middle" x="91" y="-834.5" font-family="Helvetica,sans-Serif" font-size="10.00" fill="#000000">T</text>
<polyline fill="none" stroke="#bfbfbf" points="76.5,-827.5 105.5,-827.5 "/>
<text text-anchor="middle" x="91" y="-815.5" font-family="Helvetica,sans-Serif" font-size="10.00" fill="#000000"> </text>
<polyline fill="none" stroke="#bfbfbf" points="76.5,-808.5 105.5,-808.5 "/>
<text text-anchor="middle" x="91" y="-796.5" font-family="Helvetica,sans-Serif" font-size="10.00" fill="#000000"> </text>
</g>
<!-- Node4&#45;&gt;Node3 -->
<g id="edge3" class="edge">
<title>Node4&#45;&gt;Node3</title>
<path fill="none" stroke="#404040" d="M90.3671,-789.2751C88.797,-718.0065 84.7183,-532.8812 82.8989,-450.302"/>
<polygon fill="none" stroke="#404040" points="82.8966,-450.1903 78.7653,-444.2799 82.6322,-438.1932 86.7634,-444.1036 82.8966,-450.1903"/>
<text text-anchor="middle" x="100.5" y="-658" font-family="Helvetica,sans-Serif" font-size="10.00" fill="#000000"> +ptr</text>
</g>
<!-- Node8 -->
<g id="node8" class="node">
<title>Node8</title>
<g id="a_node8"><a xlink:title="STL class. ">
<polygon fill="#ffffff" stroke="#bfbfbf" points="177.5,-684.5 177.5,-741.5 274.5,-741.5 274.5,-684.5 177.5,-684.5"/>
<text text-anchor="middle" x="226" y="-729.5" font-family="Helvetica,sans-Serif" font-size="10.00" fill="#000000">std::vector&lt; T &gt;</text>
<polyline fill="none" stroke="#bfbfbf" points="177.5,-722.5 274.5,-722.5 "/>
<text text-anchor="middle" x="226" y="-710.5" font-family="Helvetica,sans-Serif" font-size="10.00" fill="#000000"> </text>
<polyline fill="none" stroke="#bfbfbf" points="177.5,-703.5 274.5,-703.5 "/>
<text text-anchor="middle" x="226" y="-691.5" font-family="Helvetica,sans-Serif" font-size="10.00" fill="#000000"> </text>
</a>
</g>
</g>
<!-- Node4&#45;&gt;Node8 -->
<g id="edge8" class="edge">
<title>Node4&#45;&gt;Node8</title>
<path fill="none" stroke="#404040" d="M105.7044,-806.5633C123.338,-792.8483 153.7517,-769.1931 179.5852,-749.1004"/>
<polygon fill="none" stroke="#404040" points="179.7534,-748.9696 182.0337,-742.1285 189.2256,-741.6023 186.9453,-748.4434 179.7534,-748.9696"/>
<text text-anchor="middle" x="191" y="-763" font-family="Helvetica,sans-Serif" font-size="10.00" fill="#000000"> +elements</text>
</g>
<!-- Node5&#45;&gt;Node1 -->
<g id="edge4" class="edge">
<title>Node5&#45;&gt;Node1</title>
<path fill="none" stroke="#404040" d="M238.1218,-204.176C232.0646,-193.163 225.0523,-180.4132 217.8646,-167.3448"/>
<polygon fill="none" stroke="#404040" points="217.8607,-167.3375 211.4642,-164.0079 212.0776,-156.8229 218.474,-160.1525 217.8607,-167.3375"/>
<text text-anchor="middle" x="255.5" y="-178" font-family="Helvetica,sans-Serif" font-size="10.00" fill="#000000"> +geometry</text>
</g>
<!-- Node6 -->
<g id="node6" class="node">
<title>Node6</title>
<g id="a_node6"><a xlink:href="struct_geometry_info.html" target="_top" xlink:title="{GeometryInfo\n|&#45; spacelike_facets\l&#45; timevalues\l|+ GeometryInfo()\l+ GeometryInfo()\l+ GeometryInfo()\l+ GeometryInfo()\l+ ~GeometryInfo()\l+ getSpacelike_facets()\l+ getTimevalues()\l+ max_timevalue()\l+ min_timevalue()\l+ N0()\land 12 more...\l}">
<polygon fill="#ffffff" stroke="#000000" points="241,-320.5 241,-498.5 375,-498.5 375,-320.5 241,-320.5"/>
<text text-anchor="middle" x="308" y="-486.5" font-family="Helvetica,sans-Serif" font-size="10.00" fill="#000000">GeometryInfo</text>
<polyline fill="none" stroke="#000000" points="241,-479.5 375,-479.5 "/>
<text text-anchor="start" x="249" y="-467.5" font-family="Helvetica,sans-Serif" font-size="10.00" fill="#000000">&#45; spacelike_facets</text>
<text text-anchor="start" x="249" y="-456.5" font-family="Helvetica,sans-Serif" font-size="10.00" fill="#000000">&#45; timevalues</text>
<polyline fill="none" stroke="#000000" points="241,-449.5 375,-449.5 "/>
<text text-anchor="start" x="249" y="-437.5" font-family="Helvetica,sans-Serif" font-size="10.00" fill="#000000">+ GeometryInfo()</text>
<text text-anchor="start" x="249" y="-426.5" font-family="Helvetica,sans-Serif" font-size="10.00" fill="#000000">+ GeometryInfo()</text>
<text text-anchor="start" x="249" y="-415.5" font-family="Helvetica,sans-Serif" font-size="10.00" fill="#000000">+ GeometryInfo()</text>
<text text-anchor="start" x="249" y="-404.5" font-family="Helvetica,sans-Serif" font-size="10.00" fill="#000000">+ GeometryInfo()</text>
<text text-anchor="start" x="249" y="-393.5" font-family="Helvetica,sans-Serif" font-size="10.00" fill="#000000">+ ~GeometryInfo()</text>
<text text-anchor="start" x="249" y="-382.5" font-family="Helvetica,sans-Serif" font-size="10.00" fill="#000000">+ getSpacelike_facets()</text>
<text text-anchor="start" x="249" y="-371.5" font-family="Helvetica,sans-Serif" font-size="10.00" fill="#000000">+ getTimevalues()</text>
<text text-anchor="start" x="249" y="-360.5" font-family="Helvetica,sans-Serif" font-size="10.00" fill="#000000">+ max_timevalue()</text>
<text text-anchor="start" x="249" y="-349.5" font-family="Helvetica,sans-Serif" font-size="10.00" fill="#000000">+ min_timevalue()</text>
<text text-anchor="start" x="249" y="-338.5" font-family="Helvetica,sans-Serif" font-size="10.00" fill="#000000">+ N0()</text>
<text text-anchor="start" x="249" y="-327.5" font-family="Helvetica,sans-Serif" font-size="10.00" fill="#000000">and 12 more...</text>
</a>
</g>
</g>
<!-- Node6&#45;&gt;Node5 -->
<g id="edge5" class="edge">
<title>Node6&#45;&gt;Node5</title>
<path fill="none" stroke="#404040" d="M293.7034,-320.395C291.212,-310.3619 288.3275,-300.3819 285,-291 284.1163,-288.5083 283.1293,-285.99 282.0687,-283.4755"/>
<polygon fill="none" stroke="#404040" points="282.0639,-283.4649 275.9187,-279.6918 277.0381,-272.5681 283.1833,-276.3412 282.0639,-283.4649"/>
<text text-anchor="middle" x="300.5" y="-294" font-family="Helvetica,sans-Serif" font-size="10.00" fill="#000000"> +ptr</text>
</g>
<!-- Node7 -->
<g id="node7" class="node">
<title>Node7</title>
<polygon fill="#ffffff" stroke="#bfbfbf" points="103.5,-568.5 103.5,-636.5 214.5,-636.5 214.5,-568.5 103.5,-568.5"/>
<text text-anchor="start" x="111.5" y="-624.5" font-family="Helvetica,sans-Serif" font-size="10.00" fill="#000000">std::vector&lt; Vertex</text>
<text text-anchor="middle" x="159" y="-613.5" font-family="Helvetica,sans-Serif" font-size="10.00" fill="#000000">_handle &gt;</text>
<polyline fill="none" stroke="#bfbfbf" points="103.5,-606.5 214.5,-606.5 "/>
<text text-anchor="start" x="111.5" y="-594.5" font-family="Helvetica,sans-Serif" font-size="10.00" fill="#000000">+ elements</text>
<polyline fill="none" stroke="#bfbfbf" points="103.5,-587.5 214.5,-587.5 "/>
<text text-anchor="middle" x="159" y="-575.5" font-family="Helvetica,sans-Serif" font-size="10.00" fill="#000000"> </text>
</g>
<!-- Node7&#45;&gt;Node6 -->
<g id="edge6" class="edge">
<title>Node7&#45;&gt;Node6</title>
<path fill="none" stroke="#404040" d="M185.2952,-568.4397C198.819,-550.9223 216.0568,-528.5942 233.3083,-506.2483"/>
<polygon fill="none" stroke="#404040" points="233.3586,-506.1831 233.859,-498.9894 240.6918,-496.6844 240.1914,-503.8782 233.3586,-506.1831"/>
<text text-anchor="middle" x="247" y="-531" font-family="Helvetica,sans-Serif" font-size="10.00" fill="#000000"> &#45;vertices</text>
</g>
<!-- Node8&#45;&gt;Node7 -->
<g id="edge7" class="edge">
<title>Node8&#45;&gt;Node7</title>
<path fill="none" stroke="#ffa500" d="M190.2835,-676.5028C187.6547,-673.0747 185.1827,-669.5508 183,-666 177.4453,-656.9639 172.83,-646.4329 169.18,-636.575"/>
<polygon fill="#ffa500" stroke="#ffa500" points="187.6065,-678.7582 196.6395,-684.295 193.0309,-674.3337 187.6065,-678.7582"/>
<text text-anchor="middle" x="231" y="-658" font-family="Helvetica,sans-Serif" font-size="10.00" fill="#000000"> &lt; Vertex_handle &gt;</text>
</g>
<!-- Node9 -->
<g id="node9" class="node">
<title>Node9</title>
<polygon fill="#ffffff" stroke="#bfbfbf" points="232.5,-574 232.5,-631 385.5,-631 385.5,-574 232.5,-574"/>
<text text-anchor="middle" x="309" y="-619" font-family="Helvetica,sans-Serif" font-size="10.00" fill="#000000">std::vector&lt; Edge_handle &gt;</text>
<polyline fill="none" stroke="#bfbfbf" points="232.5,-612 385.5,-612 "/>
<text text-anchor="start" x="240.5" y="-600" font-family="Helvetica,sans-Serif" font-size="10.00" fill="#000000">+ elements</text>
<polyline fill="none" stroke="#bfbfbf" points="232.5,-593 385.5,-593 "/>
<text text-anchor="middle" x="309" y="-581" font-family="Helvetica,sans-Serif" font-size="10.00" fill="#000000"> </text>
</g>
<!-- Node8&#45;&gt;Node9 -->
<g id="edge10" class="edge">
<title>Node8&#45;&gt;Node9</title>
<path fill="none" stroke="#ffa500" d="M269.4335,-677.2642C272.8612,-673.6327 276.109,-669.856 279,-666 286.8992,-655.4642 293.4728,-642.5164 298.4334,-631.0668"/>
<polygon fill="#ffa500" stroke="#ffa500" points="266.7999,-674.9479 262.2019,-684.493 271.7487,-679.8986 266.7999,-674.9479"/>
<text text-anchor="middle" x="329" y="-658" font-family="Helvetica,sans-Serif" font-size="10.00" fill="#000000"> &lt; Edge_handle &gt;</text>
</g>
<!-- Node10 -->
<g id="node10" class="node">
<title>Node10</title>
<polygon fill="#ffffff" stroke="#bfbfbf" points="404,-574 404,-631 552,-631 552,-574 404,-574"/>
<text text-anchor="middle" x="478" y="-619" font-family="Helvetica,sans-Serif" font-size="10.00" fill="#000000">std::vector&lt; Cell_handle &gt;</text>
<polyline fill="none" stroke="#bfbfbf" points="404,-612 552,-612 "/>
<text text-anchor="start" x="412" y="-600" font-family="Helvetica,sans-Serif" font-size="10.00" fill="#000000">+ elements</text>
<polyline fill="none" stroke="#bfbfbf" points="404,-593 552,-593 "/>
<text text-anchor="middle" x="478" y="-581" font-family="Helvetica,sans-Serif" font-size="10.00" fill="#000000"> </text>
</g>
<!-- Node8&#45;&gt;Node10 -->
<g id="edge12" class="edge">
<title>Node8&#45;&gt;Node10</title>
<path fill="none" stroke="#ffa500" d="M284.6186,-698.5801C313.1453,-690.6092 347.5524,-679.5591 377,-666 397.8833,-656.3843 419.6452,-643.169 437.5977,-631.2834"/>
<polygon fill="#ffa500" stroke="#ffa500" points="283.5124,-695.254 274.7914,-701.2701 285.3607,-702.0056 283.5124,-695.254"/>
<text text-anchor="middle" x="438.5" y="-658" font-family="Helvetica,sans-Serif" font-size="10.00" fill="#000000"> &lt; Cell_handle &gt;</text>
</g>
<!-- Node9&#45;&gt;Node6 -->
<g id="edge9" class="edge">
<title>Node9&#45;&gt;Node6</title>
<path fill="none" stroke="#404040" d="M308.8503,-573.6059C308.7621,-556.5918 308.6448,-533.943 308.5255,-510.9198"/>
<polygon fill="none" stroke="#404040" points="308.5254,-510.8737 304.4943,-504.8945 308.4631,-498.8738 312.4942,-504.853 308.5254,-510.8737"/>
<text text-anchor="middle" x="352" y="-536.5" font-family="Helvetica,sans-Serif" font-size="10.00" fill="#000000"> &#45;spacelike_edges</text>
<text text-anchor="middle" x="352" y="-525.5" font-family="Helvetica,sans-Serif" font-size="10.00" fill="#000000">&#45;timelike_edges</text>
</g>
<!-- Node10&#45;&gt;Node6 -->
<g id="edge11" class="edge">
<title>Node10&#45;&gt;Node6</title>
<path fill="none" stroke="#404040" d="M452.5493,-573.6059C434.0781,-552.6357 408.0672,-523.1057 383.192,-494.8651"/>
<polygon fill="none" stroke="#404040" points="383.0983,-494.7587 376.1308,-492.9002 375.1666,-485.7538 382.1341,-487.6123 383.0983,-494.7587"/>
<text text-anchor="middle" x="455" y="-542" font-family="Helvetica,sans-Serif" font-size="10.00" fill="#000000"> &#45;one_three</text>
<text text-anchor="middle" x="455" y="-531" font-family="Helvetica,sans-Serif" font-size="10.00" fill="#000000">&#45;two_two</text>
<text text-anchor="middle" x="455" y="-520" font-family="Helvetica,sans-Serif" font-size="10.00" fill="#000000">&#45;three_one</text>
</g>
</g>
</svg>
        <g id="navigator" transform="translate(0 0)" fill="#404254">
                <rect fill="#f2f5e9" fill-opacity="0.5" stroke="#606060" stroke-width=".5" x="0" y="0" width="60" height="60"/>
                <use id="zoomplus" xlink:href="#zoomPlus" x="17" y="9" onmousedown="handleZoom(evt,'in')"/>
                <use id="zoomminus" xlink:href="#zoomMin" x="42" y="9" onmousedown="handleZoom(evt,'out')"/>
                <use id="reset" xlink:href="#resetDef" x="30" y="36" onmousedown="handleReset()"/>
                <g id="arrowUp" xlink:href="#dirArrow" transform="translate(30 24)" onmousedown="handlePan(0,-1)">
                  <use xlink:href="#rim" fill="#404040">
                        <set attributeName="fill" to="#808080" begin="arrowUp.mouseover" end="arrowUp.mouseout"/>
                  </use>
                  <path fill="none" stroke="white" stroke-width="1.5" d="M0,-3.0v7 M-2.5,-0.5L0,-3.0L2.5,-0.5"/>
                </g>
                <g id="arrowRight" xlink:href="#dirArrow" transform="rotate(90) translate(36 -43)" onmousedown="handlePan(1,0)">
                  <use xlink:href="#rim" fill="#404040">
                        <set attributeName="fill" to="#808080" begin="arrowRight.mouseover" end="arrowRight.mouseout"/>
                  </use>
                  <path fill="none" stroke="white" stroke-width="1.5" d="M0,-3.0v7 M-2.5,-0.5L0,-3.0L2.5,-0.5"/>
                </g>
                <g id="arrowDown" xlink:href="#dirArrow" transform="rotate(180) translate(-30 -48)" onmousedown="handlePan(0,1)">
                  <use xlink:href="#rim" fill="#404040">
                        <set attributeName="fill" to="#808080" begin="arrowDown.mouseover" end="arrowDown.mouseout"/>
                  </use>
                  <path fill="none" stroke="white" stroke-width="1.5" d="M0,-3.0v7 M-2.5,-0.5L0,-3.0L2.5,-0.5"/>
                </g>
                <g id="arrowLeft" xlink:href="#dirArrow" transform="rotate(270) translate(-36 17)" onmousedown="handlePan(-1,0)">
                  <use xlink:href="#rim" fill="#404040">
                        <set attributeName="fill" to="#808080" begin="arrowLeft.mouseover" end="arrowLeft.mouseout"/>
                  </use>
                  <path fill="none" stroke="white" stroke-width="1.5" d="M0,-3.0v7 M-2.5,-0.5L0,-3.0L2.5,-0.5"/>
                </g>
        </g>
        <svg viewBox="0 0 15 15" width="100%" height="30px" preserveAspectRatio="xMaxYMin meet">
         <g id="arrow_out" transform="scale(0.3 0.3)">
          <a xlink:href="struct_simplicial_manifold__coll__graph_org.svg" target="_base">
           <rect id="button" ry="5" rx="5" y="6" x="6" height="38" width="38"
                fill="#f2f5e9" fill-opacity="0.5" stroke="#606060" stroke-width="1.0"/>
           <path id="arrow"
             d="M 11.500037,31.436501 C 11.940474,20.09759 22.043105,11.32322 32.158766,21.979434 L 37.068811,17.246167 C 37.068811,17.246167 37.088388,32 37.088388,32 L 22.160133,31.978069 C 22.160133,31.978069 26.997745,27.140456 26.997745,27.140456 C 18.528582,18.264221 13.291696,25.230495 11.500037,31.436501 z"
             style="fill:#404040;"/>
          </a>
         </g>
        </svg>
</svg>
