<?xml version="1.0" encoding="UTF-8" standalone="no"?>
<!DOCTYPE svg PUBLIC "-//W3C//DTD SVG 1.1//EN"
 "http://www.w3.org/Graphics/SVG/1.1/DTD/svg11.dtd">
<!-- Generated by graphviz version 2.43.0 (0)
 -->
<!-- Title: Object Pages: 1 -->
<svg width="128pt" height="276pt"
 viewBox="0.00 0.00 128.00 276.00" xmlns="http://www.w3.org/2000/svg" xmlns:xlink="http://www.w3.org/1999/xlink">
<g id="graph0" class="graph" transform="scale(1 1) rotate(0) translate(4 272)">
<title>Object</title>
<!-- Node1 -->
<g id="node1" class="node">
<title>Node1</title>
<g id="a_node1"><a xlink:title=" ">
<polygon fill="#999999" stroke="#666666" points="21,-199.5 21,-267.5 98,-267.5 98,-199.5 21,-199.5"/>
<text text-anchor="middle" x="59.5" y="-255.5" font-family="Helvetica,sans-Serif" font-size="10.00">Object</text>
<polyline fill="none" stroke="#666666" points="21,-248.5 98,-248.5 "/>
<text text-anchor="start" x="29" y="-236.5" font-family="Helvetica,sans-Serif" font-size="10.00">&#45; ref</text>
<polyline fill="none" stroke="#666666" points="21,-229.5 98,-229.5 "/>
<text text-anchor="start" x="29" y="-217.5" font-family="Helvetica,sans-Serif" font-size="10.00">+ objRef()</text>
<text text-anchor="start" x="29" y="-206.5" font-family="Helvetica,sans-Serif" font-size="10.00">+ objUnref()</text>
</a>
</g>
</g>
<!-- Node2 -->
<g id="node2" class="node">
<title>Node2</title>
<g id="a_node2"><a xlink:href="struct_vehicle.html" target="_top" xlink:title=" ">
<polygon fill="white" stroke="#666666" points="12.5,-94.5 12.5,-162.5 106.5,-162.5 106.5,-94.5 12.5,-94.5"/>
<text text-anchor="middle" x="59.5" y="-150.5" font-family="Helvetica,sans-Serif" font-size="10.00">Vehicle</text>
<polyline fill="none" stroke="#666666" points="12.5,-143.5 106.5,-143.5 "/>
<text text-anchor="start" x="20.5" y="-131.5" font-family="Helvetica,sans-Serif" font-size="10.00"># base</text>
<polyline fill="none" stroke="#666666" points="12.5,-124.5 106.5,-124.5 "/>
<text text-anchor="start" x="20.5" y="-112.5" font-family="Helvetica,sans-Serif" font-size="10.00">+ vehicleStart()</text>
<text text-anchor="start" x="20.5" y="-101.5" font-family="Helvetica,sans-Serif" font-size="10.00">+ vehicleStop()</text>
</a>
</g>
</g>
<!-- Node1&#45;&gt;Node2 -->
<g id="edge1" class="edge">
<title>Node1&#45;&gt;Node2</title>
<path fill="none" stroke="#63b8ff" d="M59.5,-189.14C59.5,-180.26 59.5,-171.04 59.5,-162.59"/>
<polygon fill="none" stroke="#63b8ff" points="56,-189.34 59.5,-199.34 63,-189.34 56,-189.34"/>
</g>
<!-- Node3 -->
<g id="node3" class="node">
<title>Node3</title>
<g id="a_node3"><a xlink:href="struct_car.html" target="_top" xlink:title=" ">
<polygon fill="white" stroke="#666666" points="0,-0.5 0,-57.5 51,-57.5 51,-0.5 0,-0.5"/>
<text text-anchor="middle" x="25.5" y="-45.5" font-family="Helvetica,sans-Serif" font-size="10.00">Car</text>
<polyline fill="none" stroke="#666666" points="0,-38.5 51,-38.5 "/>
<text text-anchor="start" x="8" y="-26.5" font-family="Helvetica,sans-Serif" font-size="10.00"># base</text>
<polyline fill="none" stroke="#666666" points="0,-19.5 51,-19.5 "/>
<text text-anchor="middle" x="25.5" y="-7.5" font-family="Helvetica,sans-Serif" font-size="10.00"> </text>
</a>
</g>
</g>
<!-- Node2&#45;&gt;Node3 -->
<g id="edge2" class="edge">
<title>Node2&#45;&gt;Node3</title>
<path fill="none" stroke="#63b8ff" d="M44.69,-85.04C41.47,-75.8 38.15,-66.27 35.19,-57.78"/>
<polygon fill="none" stroke="#63b8ff" points="41.39,-86.2 47.99,-94.49 48,-83.9 41.39,-86.2"/>
</g>
<!-- Node4 -->
<g id="node4" class="node">
<title>Node4</title>
<g id="a_node4"><a xlink:href="struct_truck.html" target="_top" xlink:title=" ">
<polygon fill="white" stroke="#666666" points="69,-0.5 69,-57.5 120,-57.5 120,-0.5 69,-0.5"/>
<text text-anchor="middle" x="94.5" y="-45.5" font-family="Helvetica,sans-Serif" font-size="10.00">Truck</text>
<polyline fill="none" stroke="#666666" points="69,-38.5 120,-38.5 "/>
<text text-anchor="start" x="77" y="-26.5" font-family="Helvetica,sans-Serif" font-size="10.00"># base</text>
<polyline fill="none" stroke="#666666" points="69,-19.5 120,-19.5 "/>
<text text-anchor="middle" x="94.5" y="-7.5" font-family="Helvetica,sans-Serif" font-size="10.00"> </text>
</a>
</g>
</g>
<!-- Node2&#45;&gt;Node4 -->
<g id="edge3" class="edge">
<title>Node2&#45;&gt;Node4</title>
<path fill="none" stroke="#63b8ff" d="M74.74,-85.04C78.06,-75.8 81.48,-66.27 84.53,-57.78"/>
<polygon fill="none" stroke="#63b8ff" points="71.43,-83.9 71.35,-94.49 78.02,-86.26 71.43,-83.9"/>
</g>
</g>
</svg>
