<?xml version="1.0" encoding="UTF-8" standalone="no"?>
<!DOCTYPE svg PUBLIC "-//W3C//DTD SVG 1.1//EN"
 "http://www.w3.org/Graphics/SVG/1.1/DTD/svg11.dtd">
<!-- Generated by graphviz version 15.1.0 (20260618.0150)
 -->
<!-- Title: Geometry&lt; 3 &gt; Pages: 1 -->
<svg width="138pt" height="339pt"
 viewBox="0.00 0.00 138.00 339.00" xmlns="http://www.w3.org/2000/svg" xmlns:xlink="http://www.w3.org/1999/xlink">

<svg id="main" version="1.1" xmlns="http://www.w3.org/2000/svg" xmlns:xlink="http://www.w3.org/1999/xlink" xml:space="preserve">

<style type="text/css"><![CDATA[
.node, .edge {opacity: 0.7;}
.node.selected, .edge.selected {opacity: 1;}
.edge:hover path { stroke: red; }
.edge:hover polygon { stroke: red; fill: red; }
]]></style>
<script type="application/ecmascript" xlink:href="svg.min.js"/>
<svg id="graph" class="graph">
<g id="graph0" class="graph" transform="scale(1 1) rotate(0) translate(4 334.75)">
<title>Geometry&lt; 3 &gt;</title>
<!-- Node1 -->
<g id="Node000001" class="node">
<title>Node1</title>
<g id="a_Node000001"><a xlink:title="3D Geometry">
<polygon fill="#999999" stroke="none" points="107.75,-221.75 22.5,-221.75 22.5,0 107.75,0 107.75,-221.75"/>
<text xml:space="preserve" text-anchor="start" x="26.5" y="-208" font-family="Helvetica,sans-Serif" font-size="10.00">Geometry&lt; 3 &gt;</text>
<text xml:space="preserve" text-anchor="start" x="28.69" y="-191.25" font-family="Helvetica,sans-Serif" font-size="10.00">+</text>
<text xml:space="preserve" text-anchor="start" x="43.12" y="-191.25" font-family="Helvetica,sans-Serif" font-size="10.00">N0</text>
<text xml:space="preserve" text-anchor="start" x="28.69" y="-174.5" font-family="Helvetica,sans-Serif" font-size="10.00">+</text>
<text xml:space="preserve" text-anchor="start" x="43.12" y="-174.5" font-family="Helvetica,sans-Serif" font-size="10.00">N1</text>
<text xml:space="preserve" text-anchor="start" x="28.69" y="-157.75" font-family="Helvetica,sans-Serif" font-size="10.00">+</text>
<text xml:space="preserve" text-anchor="start" x="43.12" y="-157.75" font-family="Helvetica,sans-Serif" font-size="10.00">N1_SL</text>
<text xml:space="preserve" text-anchor="start" x="28.69" y="-141" font-family="Helvetica,sans-Serif" font-size="10.00">+</text>
<text xml:space="preserve" text-anchor="start" x="43.12" y="-141" font-family="Helvetica,sans-Serif" font-size="10.00">N1_TL</text>
<text xml:space="preserve" text-anchor="start" x="28.69" y="-124.25" font-family="Helvetica,sans-Serif" font-size="10.00">+</text>
<text xml:space="preserve" text-anchor="start" x="43.12" y="-124.25" font-family="Helvetica,sans-Serif" font-size="10.00">N2</text>
<text xml:space="preserve" text-anchor="start" x="28.69" y="-107.5" font-family="Helvetica,sans-Serif" font-size="10.00">+</text>
<text xml:space="preserve" text-anchor="start" x="43.12" y="-107.5" font-family="Helvetica,sans-Serif" font-size="10.00">N3</text>
<text xml:space="preserve" text-anchor="start" x="28.69" y="-90.75" font-family="Helvetica,sans-Serif" font-size="10.00">+</text>
<text xml:space="preserve" text-anchor="start" x="43.12" y="-90.75" font-family="Helvetica,sans-Serif" font-size="10.00">N3_13</text>
<text xml:space="preserve" text-anchor="start" x="28.69" y="-74" font-family="Helvetica,sans-Serif" font-size="10.00">+</text>
<text xml:space="preserve" text-anchor="start" x="43.12" y="-74" font-family="Helvetica,sans-Serif" font-size="10.00">N3_22</text>
<text xml:space="preserve" text-anchor="start" x="28.69" y="-57.25" font-family="Helvetica,sans-Serif" font-size="10.00">+</text>
<text xml:space="preserve" text-anchor="start" x="43.12" y="-57.25" font-family="Helvetica,sans-Serif" font-size="10.00">N3_31</text>
<text xml:space="preserve" text-anchor="start" x="28.69" y="-40.5" font-family="Helvetica,sans-Serif" font-size="10.00">+</text>
<text xml:space="preserve" text-anchor="start" x="43.12" y="-40.5" font-family="Helvetica,sans-Serif" font-size="10.00">N3_31_13</text>
<text xml:space="preserve" text-anchor="start" x="28.69" y="-23.75" font-family="Helvetica,sans-Serif" font-size="10.00">+</text>
<text xml:space="preserve" text-anchor="start" x="43.12" y="-23.75" font-family="Helvetica,sans-Serif" font-size="10.00">Geometry()</text>
<text xml:space="preserve" text-anchor="start" x="28.69" y="-7" font-family="Helvetica,sans-Serif" font-size="10.00">+</text>
<text xml:space="preserve" text-anchor="start" x="43.12" y="-7" font-family="Helvetica,sans-Serif" font-size="10.00">Geometry()</text>
<polygon fill="#666666" stroke="#666666" points="22.5,-203 22.5,-203 107.75,-203 107.75,-203 22.5,-203"/>
<polygon fill="#666666" stroke="#666666" points="22.5,-35.5 22.5,-35.5 41.12,-35.5 41.12,-35.5 22.5,-35.5"/>
<polygon fill="#666666" stroke="#666666" points="41.12,-35.5 41.12,-35.5 107.75,-35.5 107.75,-35.5 41.12,-35.5"/>
<polygon fill="none" stroke="#666666" points="22.5,0 22.5,-221.75 107.75,-221.75 107.75,0 22.5,0"/>
</a>
</g>
</g>
<!-- Node2 -->
<g id="Node000002" class="node">
<title>Node2</title>
<g id="a_Node000002"><a xlink:href="struct_geometry.html" target="_top" xlink:title=" ">
<polygon fill="white" stroke="none" points="130.25,-330.75 0,-330.75 0,-276.5 130.25,-276.5 130.25,-330.75"/>
<text xml:space="preserve" text-anchor="start" x="4" y="-317" font-family="Helvetica,sans-Serif" font-size="10.00">Geometry&lt; dimension &gt;</text>
<text xml:space="preserve" text-anchor="start" x="63.62" y="-300.25" font-family="Helvetica,sans-Serif" font-size="10.00"> </text>
<text xml:space="preserve" text-anchor="start" x="63.62" y="-283.5" font-family="Helvetica,sans-Serif" font-size="10.00"> </text>
<polygon fill="#666666" stroke="#666666" points="0,-312 0,-312 130.25,-312 130.25,-312 0,-312"/>
<polygon fill="#666666" stroke="#666666" points="0,-295.25 0,-295.25 130.25,-295.25 130.25,-295.25 0,-295.25"/>
<polygon fill="none" stroke="#666666" points="0,-276.5 0,-330.75 130.25,-330.75 130.25,-276.5 0,-276.5"/>
</a>
</g>
</g>
<!-- Node2&#45;&gt;Node1 -->
<g id="edge1_Node000001_Node000002" class="edge">
<title>Node2&#45;&gt;Node1</title>
<g id="a_edge1_Node000001_Node000002"><a xlink:title=" ">
<path fill="none" stroke="orange" d="M65.12,-265.35C65.12,-252.46 65.12,-237.28 65.12,-221.56"/>
<polygon fill="orange" stroke="orange" points="61.63,-264.99 65.13,-274.99 68.63,-264.99 61.63,-264.99"/>
</a>
</g>
<text xml:space="preserve" text-anchor="start" x="68.12" y="-245.75" font-family="Helvetica,sans-Serif" font-size="10.00" fill="grey">&lt; 3 &gt;</text>
</g>
</g>
</svg>
</svg>

<style type='text/css'>
<![CDATA[
[data-mouse-over-selected='false'] { opacity: 0.7; }
[data-mouse-over-selected='true']  { opacity: 1.0; }
]]>
</style>
<script type="application/ecmascript"><![CDATA[
document.addEventListener('DOMContentLoaded', (event) => {
  highlightEdges();
  highlightAdjacentNodes();
});
]]></script>
</svg>
