<?xml version="1.0" encoding="UTF-8" standalone="no"?>
<!DOCTYPE svg PUBLIC "-//W3C//DTD SVG 1.1//EN"
 "http://www.w3.org/Graphics/SVG/1.1/DTD/svg11.dtd">
<!-- Generated by graphviz version 2.43.0 (0)
 -->
<!-- Title: Vehicle Pages: 1 -->
<svg width="102pt" height="193pt"
 viewBox="0.00 0.00 102.00 193.00" xmlns="http://www.w3.org/2000/svg" xmlns:xlink="http://www.w3.org/1999/xlink">
<g id="graph0" class="graph" transform="scale(1 1) rotate(0) translate(4 189)">
<title>Vehicle</title>
<!-- Node1 -->
<g id="node1" class="node">
<title>Node1</title>
<g id="a_node1"><a xlink:title=" ">
<polygon fill="#999999" stroke="#666666" points="0,-0.5 0,-68.5 94,-68.5 94,-0.5 0,-0.5"/>
<text text-anchor="middle" x="47" y="-56.5" font-family="Helvetica,sans-Serif" font-size="10.00">Vehicle</text>
<polyline fill="none" stroke="#666666" points="0,-49.5 94,-49.5 "/>
<text text-anchor="middle" x="47" y="-37.5" font-family="Helvetica,sans-Serif" font-size="10.00"> </text>
<polyline fill="none" stroke="#666666" points="0,-30.5 94,-30.5 "/>
<text text-anchor="start" x="8" y="-18.5" font-family="Helvetica,sans-Serif" font-size="10.00">+ vehicleStart()</text>
<text text-anchor="start" x="8" y="-7.5" font-family="Helvetica,sans-Serif" font-size="10.00">+ vehicleStop()</text>
</a>
</g>
</g>
<!-- Node2 -->
<g id="node2" class="node">
<title>Node2</title>
<g id="a_node2"><a xlink:href="struct_object.html" target="_top" xlink:title=" ">
<polygon fill="white" stroke="#666666" points="8.5,-116.5 8.5,-184.5 85.5,-184.5 85.5,-116.5 8.5,-116.5"/>
<text text-anchor="middle" x="47" y="-172.5" font-family="Helvetica,sans-Serif" font-size="10.00">Object</text>
<polyline fill="none" stroke="#666666" points="8.5,-165.5 85.5,-165.5 "/>
<text text-anchor="start" x="16.5" y="-153.5" font-family="Helvetica,sans-Serif" font-size="10.00">&#45; ref</text>
<polyline fill="none" stroke="#666666" points="8.5,-146.5 85.5,-146.5 "/>
<text text-anchor="start" x="16.5" y="-134.5" font-family="Helvetica,sans-Serif" font-size="10.00">+ objRef()</text>
<text text-anchor="start" x="16.5" y="-123.5" font-family="Helvetica,sans-Serif" font-size="10.00">+ objUnref()</text>
</a>
</g>
</g>
<!-- Node2&#45;&gt;Node1 -->
<g id="edge1" class="edge">
<title>Node2&#45;&gt;Node1</title>
<path fill="none" stroke="#63b8ff" d="M45.2,-106.2C45.12,-103.43 45.05,-100.68 45,-98 44.81,-88.45 44.99,-78.08 45.31,-68.58"/>
<polygon fill="none" stroke="#63b8ff" points="41.7,-106.38 45.52,-116.26 48.7,-106.15 41.7,-106.38"/>
</g>
<!-- Node2&#45;&gt;Node1 -->
<g id="edge2" class="edge">
<title>Node2&#45;&gt;Node1</title>
<path fill="none" stroke="#404040" d="M47,-116.22C47,-105.1 47,-92.51 47,-80.64"/>
<polygon fill="none" stroke="#404040" points="47,-80.62 43,-74.62 47,-68.62 51,-74.62 47,-80.62"/>
<text text-anchor="middle" x="64.5" y="-90" font-family="Helvetica,sans-Serif" font-size="10.00"> #base</text>
</g>
</g>
</svg>
