<?xml version="1.0" encoding="UTF-8" standalone="no"?>
<!DOCTYPE svg PUBLIC "-//W3C//DTD SVG 1.1//EN"
 "http://www.w3.org/Graphics/SVG/1.1/DTD/svg11.dtd">
<!-- Generated by graphviz version 15.1.0 (20260618.0150)
 -->
<!-- Title: Geometry&lt; dimension &gt; Pages: 1 -->
<svg width="293pt" height="339pt"
 viewBox="0.00 0.00 293.00 339.00" xmlns="http://www.w3.org/2000/svg" xmlns:xlink="http://www.w3.org/1999/xlink">

<svg id="main" version="1.1" xmlns="http://www.w3.org/2000/svg" xmlns:xlink="http://www.w3.org/1999/xlink" xml:space="preserve">

<style type="text/css"><![CDATA[
.node, .edge {opacity: 0.7;}
.node.selected, .edge.selected {opacity: 1;}
.edge:hover path { stroke: red; }
.edge:hover polygon { stroke: red; fill: red; }
]]></style>
<script type="application/ecmascript" xlink:href="svg.min.js"/>
<svg id="graph" class="graph">
<g id="graph0" class="graph" transform="scale(1 1) rotate(0) translate(4 334.75)">
<title>Geometry&lt; dimension &gt;</title>
<!-- Node1 -->
<g id="Node000001" class="node">
<title>Node1</title>
<g id="a_Node000001"><a xlink:title=" ">
<polygon fill="#999999" stroke="none" points="170.75,-330.75 40.5,-330.75 40.5,-276.5 170.75,-276.5 170.75,-330.75"/>
<text xml:space="preserve" text-anchor="start" x="44.5" y="-317" font-family="Helvetica,sans-Serif" font-size="10.00">Geometry&lt; dimension &gt;</text>
<text xml:space="preserve" text-anchor="start" x="104.12" y="-300.25" font-family="Helvetica,sans-Serif" font-size="10.00"> </text>
<text xml:space="preserve" text-anchor="start" x="104.12" y="-283.5" font-family="Helvetica,sans-Serif" font-size="10.00"> </text>
<polygon fill="#666666" stroke="#666666" points="40.5,-312 40.5,-312 170.75,-312 170.75,-312 40.5,-312"/>
<polygon fill="#666666" stroke="#666666" points="40.5,-295.25 40.5,-295.25 170.75,-295.25 170.75,-295.25 40.5,-295.25"/>
<polygon fill="none" stroke="#666666" points="40.5,-276.5 40.5,-330.75 170.75,-330.75 170.75,-276.5 40.5,-276.5"/>
</a>
</g>
</g>
<!-- Node2 -->
<g id="Node000002" class="node">
<title>Node2</title>
<g id="a_Node000002"><a xlink:href="struct_geometry_3_013_01_4.html" target="_top" xlink:title="3D Geometry">
<polygon fill="white" stroke="none" points="85.25,-221.75 0,-221.75 0,0 85.25,0 85.25,-221.75"/>
<text xml:space="preserve" text-anchor="start" x="4" y="-208" font-family="Helvetica,sans-Serif" font-size="10.00">Geometry&lt; 3 &gt;</text>
<text xml:space="preserve" text-anchor="start" x="6.19" y="-191.25" font-family="Helvetica,sans-Serif" font-size="10.00">+</text>
<text xml:space="preserve" text-anchor="start" x="20.62" y="-191.25" font-family="Helvetica,sans-Serif" font-size="10.00">N0</text>
<text xml:space="preserve" text-anchor="start" x="6.19" y="-174.5" font-family="Helvetica,sans-Serif" font-size="10.00">+</text>
<text xml:space="preserve" text-anchor="start" x="20.62" y="-174.5" font-family="Helvetica,sans-Serif" font-size="10.00">N1</text>
<text xml:space="preserve" text-anchor="start" x="6.19" y="-157.75" font-family="Helvetica,sans-Serif" font-size="10.00">+</text>
<text xml:space="preserve" text-anchor="start" x="20.62" y="-157.75" font-family="Helvetica,sans-Serif" font-size="10.00">N1_SL</text>
<text xml:space="preserve" text-anchor="start" x="6.19" y="-141" font-family="Helvetica,sans-Serif" font-size="10.00">+</text>
<text xml:space="preserve" text-anchor="start" x="20.62" y="-141" font-family="Helvetica,sans-Serif" font-size="10.00">N1_TL</text>
<text xml:space="preserve" text-anchor="start" x="6.19" y="-124.25" font-family="Helvetica,sans-Serif" font-size="10.00">+</text>
<text xml:space="preserve" text-anchor="start" x="20.62" y="-124.25" font-family="Helvetica,sans-Serif" font-size="10.00">N2</text>
<text xml:space="preserve" text-anchor="start" x="6.19" y="-107.5" font-family="Helvetica,sans-Serif" font-size="10.00">+</text>
<text xml:space="preserve" text-anchor="start" x="20.62" y="-107.5" font-family="Helvetica,sans-Serif" font-size="10.00">N3</text>
<text xml:space="preserve" text-anchor="start" x="6.19" y="-90.75" font-family="Helvetica,sans-Serif" font-size="10.00">+</text>
<text xml:space="preserve" text-anchor="start" x="20.62" y="-90.75" font-family="Helvetica,sans-Serif" font-size="10.00">N3_13</text>
<text xml:space="preserve" text-anchor="start" x="6.19" y="-74" font-family="Helvetica,sans-Serif" font-size="10.00">+</text>
<text xml:space="preserve" text-anchor="start" x="20.62" y="-74" font-family="Helvetica,sans-Serif" font-size="10.00">N3_22</text>
<text xml:space="preserve" text-anchor="start" x="6.19" y="-57.25" font-family="Helvetica,sans-Serif" font-size="10.00">+</text>
<text xml:space="preserve" text-anchor="start" x="20.62" y="-57.25" font-family="Helvetica,sans-Serif" font-size="10.00">N3_31</text>
<text xml:space="preserve" text-anchor="start" x="6.19" y="-40.5" font-family="Helvetica,sans-Serif" font-size="10.00">+</text>
<text xml:space="preserve" text-anchor="start" x="20.62" y="-40.5" font-family="Helvetica,sans-Serif" font-size="10.00">N3_31_13</text>
<text xml:space="preserve" text-anchor="start" x="6.19" y="-23.75" font-family="Helvetica,sans-Serif" font-size="10.00">+</text>
<text xml:space="preserve" text-anchor="start" x="20.62" y="-23.75" font-family="Helvetica,sans-Serif" font-size="10.00">Geometry()</text>
<text xml:space="preserve" text-anchor="start" x="6.19" y="-7" font-family="Helvetica,sans-Serif" font-size="10.00">+</text>
<text xml:space="preserve" text-anchor="start" x="20.62" y="-7" font-family="Helvetica,sans-Serif" font-size="10.00">Geometry()</text>
<polygon fill="#666666" stroke="#666666" points="0,-203 0,-203 85.25,-203 85.25,-203 0,-203"/>
<polygon fill="#666666" stroke="#666666" points="0,-35.5 0,-35.5 18.62,-35.5 18.62,-35.5 0,-35.5"/>
<polygon fill="#666666" stroke="#666666" points="18.62,-35.5 18.62,-35.5 85.25,-35.5 85.25,-35.5 18.62,-35.5"/>
<polygon fill="none" stroke="#666666" points="0,0 0,-221.75 85.25,-221.75 85.25,0 0,0"/>
</a>
</g>
</g>
<!-- Node1&#45;&gt;Node2 -->
<g id="edge1_Node000001_Node000002" class="edge">
<title>Node1&#45;&gt;Node2</title>
<g id="a_edge1_Node000001_Node000002"><a xlink:title=" ">
<path fill="none" stroke="orange" d="M93.45,-265.75C89.16,-252.77 84.1,-237.44 78.85,-221.56"/>
<polygon fill="orange" stroke="orange" points="90.06,-266.67 96.52,-275.06 96.71,-264.47 90.06,-266.67"/>
</a>
</g>
<text xml:space="preserve" text-anchor="start" x="93.4" y="-245.75" font-family="Helvetica,sans-Serif" font-size="10.00" fill="grey">&lt; 3 &gt;</text>
</g>
<!-- Node3 -->
<g id="Node000003" class="node">
<title>Node3</title>
<g id="a_Node000003"><a xlink:href="struct_geometry.html" target="_top" xlink:title=" ">
<polygon fill="white" stroke="none" points="236.25,-144.38 103,-144.38 103,-77.38 236.25,-77.38 236.25,-144.38"/>
<text xml:space="preserve" text-anchor="start" x="107" y="-130.62" font-family="Helvetica,sans-Serif" font-size="10.00">Geometry&lt; ManifoldType</text>
<text xml:space="preserve" text-anchor="start" x="135.5" y="-117.88" font-family="Helvetica,sans-Serif" font-size="10.00">::dimension &gt;</text>
<text xml:space="preserve" text-anchor="start" x="168.12" y="-101.12" font-family="Helvetica,sans-Serif" font-size="10.00"> </text>
<text xml:space="preserve" text-anchor="start" x="168.12" y="-84.38" font-family="Helvetica,sans-Serif" font-size="10.00"> </text>
<polygon fill="#666666" stroke="#666666" points="103,-112.88 103,-112.88 236.25,-112.88 236.25,-112.88 103,-112.88"/>
<polygon fill="#666666" stroke="#666666" points="103,-96.12 103,-96.12 236.25,-96.12 236.25,-96.12 103,-96.12"/>
<polygon fill="none" stroke="#666666" points="103,-77.38 103,-144.38 236.25,-144.38 236.25,-77.38 103,-77.38"/>
</a>
</g>
</g>
<!-- Node1&#45;&gt;Node3 -->
<g id="edge2_Node000001_Node000003" class="edge">
<title>Node1&#45;&gt;Node3</title>
<g id="a_edge2_Node000001_Node000003"><a xlink:title=" ">
<path fill="none" stroke="orange" d="M125.16,-266.61C126.4,-263.89 127.57,-261.17 128.62,-258.5 143.74,-220.28 155.62,-174.39 162.62,-144.25"/>
<polygon fill="orange" stroke="orange" points="122.04,-265.03 120.83,-275.55 128.34,-268.08 122.04,-265.03"/>
</a>
</g>
<text xml:space="preserve" text-anchor="start" x="137.43" y="-245.75" font-family="Helvetica,sans-Serif" font-size="10.00" fill="grey">&lt; ManifoldType::dimension &gt;</text>
</g>
</g>
</svg>
</svg>

<style type='text/css'>
<![CDATA[
[data-mouse-over-selected='false'] { opacity: 0.7; }
[data-mouse-over-selected='true']  { opacity: 1.0; }
]]>
</style>
<script type="application/ecmascript"><![CDATA[
document.addEventListener('DOMContentLoaded', (event) => {
  highlightEdges();
  highlightAdjacentNodes();
});
]]></script>
</svg>
