<?xml version="1.0" encoding="UTF-8" standalone="no"?>
<!DOCTYPE svg PUBLIC "-//W3C//DTD SVG 1.1//EN"
 "http://www.w3.org/Graphics/SVG/1.1/DTD/svg11.dtd">
<!-- Generated by graphviz version 2.43.0 (0)
 -->
<!-- Title: Move_tracker&lt; ManifoldType &gt; Pages: 1 -->
<svg width="255pt" height="557pt"
 viewBox="0.00 0.00 254.50 557.00" xmlns="http://www.w3.org/2000/svg" xmlns:xlink="http://www.w3.org/1999/xlink">
<g id="graph0" class="graph" transform="scale(1 1) rotate(0) translate(4 553)">
<title>Move_tracker&lt; ManifoldType &gt;</title>
<polygon fill="white" stroke="transparent" points="-4,4 -4,-553 250.5,-553 250.5,4 -4,4"/>
<!-- Node1 -->
<g id="node1" class="node">
<title>Node1</title>
<g id="a_node1"><a xlink:title="The data and methods to track ergodic moves.">
<polygon fill="#bfbfbf" stroke="black" points="14.5,-0.5 14.5,-189.5 184.5,-189.5 184.5,-0.5 14.5,-0.5"/>
<text text-anchor="middle" x="99.5" y="-177.5" font-family="Helvetica,sans-Serif" font-size="10.00">Move_tracker&lt; ManifoldType &gt;</text>
<polyline fill="none" stroke="black" points="14.5,-170.5 184.5,-170.5 "/>
<text text-anchor="middle" x="99.5" y="-158.5" font-family="Helvetica,sans-Serif" font-size="10.00"> </text>
<polyline fill="none" stroke="black" points="14.5,-151.5 184.5,-151.5 "/>
<text text-anchor="start" x="22.5" y="-139.5" font-family="Helvetica,sans-Serif" font-size="10.00">+ eight_two_moves()</text>
<text text-anchor="start" x="22.5" y="-128.5" font-family="Helvetica,sans-Serif" font-size="10.00">+ four_four_moves()</text>
<text text-anchor="start" x="22.5" y="-117.5" font-family="Helvetica,sans-Serif" font-size="10.00">+ four_six_moves()</text>
<text text-anchor="start" x="22.5" y="-106.5" font-family="Helvetica,sans-Serif" font-size="10.00">+ four_two_moves()</text>
<text text-anchor="start" x="22.5" y="-95.5" font-family="Helvetica,sans-Serif" font-size="10.00">+ operator[]()</text>
<text text-anchor="start" x="22.5" y="-84.5" font-family="Helvetica,sans-Serif" font-size="10.00">+ six_four_moves()</text>
<text text-anchor="start" x="22.5" y="-73.5" font-family="Helvetica,sans-Serif" font-size="10.00">+ six_two_moves()</text>
<text text-anchor="start" x="22.5" y="-62.5" font-family="Helvetica,sans-Serif" font-size="10.00">+ three_three_moves()</text>
<text text-anchor="start" x="22.5" y="-51.5" font-family="Helvetica,sans-Serif" font-size="10.00">+ three_two_moves()</text>
<text text-anchor="start" x="22.5" y="-40.5" font-family="Helvetica,sans-Serif" font-size="10.00">+ two_eight_moves()</text>
<text text-anchor="start" x="22.5" y="-29.5" font-family="Helvetica,sans-Serif" font-size="10.00">+ two_four_moves()</text>
<text text-anchor="start" x="22.5" y="-18.5" font-family="Helvetica,sans-Serif" font-size="10.00">+ two_six_moves()</text>
<text text-anchor="start" x="22.5" y="-7.5" font-family="Helvetica,sans-Serif" font-size="10.00">+ two_three_moves()</text>
</a>
</g>
</g>
<!-- Node2 -->
<g id="node2" class="node">
<title>Node2</title>
<g id="a_node2"><a xlink:title=" ">
<polygon fill="white" stroke="#bfbfbf" points="0,-237.5 0,-316.5 199,-316.5 199,-237.5 0,-237.5"/>
<text text-anchor="start" x="8" y="-304.5" font-family="Helvetica,sans-Serif" font-size="10.00">std::array&lt; Int_precision,</text>
<text text-anchor="start" x="8" y="-293.5" font-family="Helvetica,sans-Serif" font-size="10.00"> moves_per_dimension(ManifoldType</text>
<text text-anchor="middle" x="99.5" y="-282.5" font-family="Helvetica,sans-Serif" font-size="10.00">::dimension)&gt;</text>
<polyline fill="none" stroke="#bfbfbf" points="0,-275.5 199,-275.5 "/>
<text text-anchor="start" x="8" y="-263.5" font-family="Helvetica,sans-Serif" font-size="10.00">+ elements</text>
<polyline fill="none" stroke="#bfbfbf" points="0,-256.5 199,-256.5 "/>
<text text-anchor="middle" x="99.5" y="-244.5" font-family="Helvetica,sans-Serif" font-size="10.00"> </text>
</a>
</g>
</g>
<!-- Node2&#45;&gt;Node1 -->
<g id="edge1" class="edge">
<title>Node2&#45;&gt;Node1</title>
<path fill="none" stroke="#404040" d="M99.5,-237.39C99.5,-226.66 99.5,-214.47 99.5,-201.85"/>
<polygon fill="none" stroke="#404040" points="99.5,-201.66 95.5,-195.66 99.5,-189.66 103.5,-195.66 99.5,-201.66"/>
<text text-anchor="middle" x="122" y="-211" font-family="Helvetica,sans-Serif" font-size="10.00"> +moves</text>
</g>
<!-- Node3 -->
<g id="node3" class="node">
<title>Node3</title>
<g id="a_node3"><a xlink:title="STL class.">
<polygon fill="white" stroke="#bfbfbf" points="53.5,-386.5 53.5,-443.5 145.5,-443.5 145.5,-386.5 53.5,-386.5"/>
<text text-anchor="middle" x="99.5" y="-431.5" font-family="Helvetica,sans-Serif" font-size="10.00">std::array&lt; T &gt;</text>
<polyline fill="none" stroke="#bfbfbf" points="53.5,-424.5 145.5,-424.5 "/>
<text text-anchor="middle" x="99.5" y="-412.5" font-family="Helvetica,sans-Serif" font-size="10.00"> </text>
<polyline fill="none" stroke="#bfbfbf" points="53.5,-405.5 145.5,-405.5 "/>
<text text-anchor="middle" x="99.5" y="-393.5" font-family="Helvetica,sans-Serif" font-size="10.00"> </text>
</a>
</g>
</g>
<!-- Node3&#45;&gt;Node2 -->
<g id="edge2" class="edge">
<title>Node3&#45;&gt;Node2</title>
<path fill="none" stroke="orange" d="M99.5,-376.3C99.5,-357.69 99.5,-335.28 99.5,-316.56"/>
<polygon fill="orange" stroke="orange" points="96,-376.48 99.5,-386.48 103,-376.48 96,-376.48"/>
<text text-anchor="start" x="99.5" y="-360" font-family="Helvetica,sans-Serif" font-size="10.00"> &lt; Int_precision, moves</text>
<text text-anchor="start" x="99.5" y="-349" font-family="Helvetica,sans-Serif" font-size="10.00">_per_dimension(ManifoldType</text>
<text text-anchor="middle" x="173" y="-338" font-family="Helvetica,sans-Serif" font-size="10.00">::dimension)&gt;</text>
</g>
<!-- Node4 -->
<g id="node4" class="node">
<title>Node4</title>
<g id="a_node4"><a xlink:title=" ">
<polygon fill="white" stroke="#bfbfbf" points="85,-491.5 85,-548.5 114,-548.5 114,-491.5 85,-491.5"/>
<text text-anchor="middle" x="99.5" y="-536.5" font-family="Helvetica,sans-Serif" font-size="10.00">T</text>
<polyline fill="none" stroke="#bfbfbf" points="85,-529.5 114,-529.5 "/>
<text text-anchor="middle" x="99.5" y="-517.5" font-family="Helvetica,sans-Serif" font-size="10.00"> </text>
<polyline fill="none" stroke="#bfbfbf" points="85,-510.5 114,-510.5 "/>
<text text-anchor="middle" x="99.5" y="-498.5" font-family="Helvetica,sans-Serif" font-size="10.00"> </text>
</a>
</g>
</g>
<!-- Node4&#45;&gt;Node3 -->
<g id="edge3" class="edge">
<title>Node4&#45;&gt;Node3</title>
<path fill="none" stroke="#404040" d="M99.5,-491.4C99.5,-480.55 99.5,-467.87 99.5,-456.05"/>
<polygon fill="none" stroke="#404040" points="99.5,-455.68 95.5,-449.68 99.5,-443.68 103.5,-449.68 99.5,-455.68"/>
<text text-anchor="middle" x="128.5" y="-465" font-family="Helvetica,sans-Serif" font-size="10.00"> +elements</text>
</g>
</g>
</svg>
