<?xml version="1.0" encoding="UTF-8" standalone="no"?>
<!DOCTYPE svg PUBLIC "-//W3C//DTD SVG 1.1//EN"
 "http://www.w3.org/Graphics/SVG/1.1/DTD/svg11.dtd">
<!-- Generated by graphviz version 15.1.0 (20260618.0150)
 -->
<!-- Title: cdt::ergodic_moves::MoveError Pages: 1 -->
<svg width="111pt" height="142pt"
 viewBox="0.00 0.00 111.00 142.00" xmlns="http://www.w3.org/2000/svg" xmlns:xlink="http://www.w3.org/1999/xlink">
<g id="graph0" class="graph" transform="scale(1 1) rotate(0) translate(4 138)">
<title>cdt::ergodic_moves::MoveError</title>
<!-- Node1 -->
<g id="Node000001" class="node">
<title>Node1</title>
<g id="a_Node000001"><a xlink:title="Typed error returned by move preparation or private execution.">
<polygon fill="#999999" stroke="none" points="103.25,-134 0,-134 0,0 103.25,0 103.25,-134"/>
<text xml:space="preserve" text-anchor="start" x="4" y="-120.25" font-family="Helvetica,sans-Serif" font-size="10.00">cdt::ergodic_moves</text>
<text xml:space="preserve" text-anchor="start" x="23.5" y="-107.5" font-family="Helvetica,sans-Serif" font-size="10.00">::MoveError</text>
<text xml:space="preserve" text-anchor="start" x="4.31" y="-90.75" font-family="Helvetica,sans-Serif" font-size="10.00">+</text>
<text xml:space="preserve" text-anchor="start" x="16.88" y="-90.75" font-family="Helvetica,sans-Serif" font-size="10.00">category</text>
<text xml:space="preserve" text-anchor="start" x="4.31" y="-74" font-family="Helvetica,sans-Serif" font-size="10.00">+</text>
<text xml:space="preserve" text-anchor="start" x="16.88" y="-74" font-family="Helvetica,sans-Serif" font-size="10.00">requested_move</text>
<text xml:space="preserve" text-anchor="start" x="4.31" y="-57.25" font-family="Helvetica,sans-Serif" font-size="10.00">+</text>
<text xml:space="preserve" text-anchor="start" x="16.88" y="-57.25" font-family="Helvetica,sans-Serif" font-size="10.00">message()</text>
<text xml:space="preserve" text-anchor="start" x="4.31" y="-40.5" font-family="Helvetica,sans-Serif" font-size="10.00">+</text>
<text xml:space="preserve" text-anchor="start" x="16.88" y="-40.5" font-family="Helvetica,sans-Serif" font-size="10.00">move()</text>
<text xml:space="preserve" text-anchor="start" x="4.31" y="-23.75" font-family="Helvetica,sans-Serif" font-size="10.00">+</text>
<text xml:space="preserve" text-anchor="start" x="16.88" y="-23.75" font-family="Helvetica,sans-Serif" font-size="10.00">operator==()</text>
<text xml:space="preserve" text-anchor="start" x="4.31" y="-7" font-family="Helvetica,sans-Serif" font-size="10.00">+</text>
<text xml:space="preserve" text-anchor="start" x="16.88" y="-7" font-family="Helvetica,sans-Serif" font-size="10.00">reason()</text>
<polygon fill="#666666" stroke="#666666" points="0,-102.5 0,-102.5 103.25,-102.5 103.25,-102.5 0,-102.5"/>
<polygon fill="#666666" stroke="#666666" points="0,-69 0,-69 14.88,-69 14.88,-69 0,-69"/>
<polygon fill="#666666" stroke="#666666" points="14.88,-69 14.88,-69 103.25,-69 103.25,-69 14.88,-69"/>
<polygon fill="none" stroke="#666666" points="0,0 0,-134 103.25,-134 103.25,0 0,0"/>
</a>
</g>
</g>
</g>
</svg>
