<?xml version="1.0" encoding="UTF-8" standalone="no"?>
<!DOCTYPE svg PUBLIC "-//W3C//DTD SVG 1.1//EN"
 "http://www.w3.org/Graphics/SVG/1.1/DTD/svg11.dtd">
<!-- Generated by graphviz version 2.40.1 (20161225.0304)
 -->
<!-- Title: GeometryInfo Pages: 1 -->
<svg width="457pt" height="535pt"
 viewBox="0.00 0.00 456.50 535.00" xmlns="http://www.w3.org/2000/svg" xmlns:xlink="http://www.w3.org/1999/xlink">
<g id="graph0" class="graph" transform="scale(1 1) rotate(0) translate(4 531)">
<title>GeometryInfo</title>
<polygon fill="#ffffff" stroke="transparent" points="-4,4 -4,-531 452.5,-531 452.5,4 -4,4"/>
<!-- Node1 -->
<g id="node1" class="node">
<title>Node1</title>
<polygon fill="#bfbfbf" stroke="#000000" points="138.5,-.5 138.5,-178.5 272.5,-178.5 272.5,-.5 138.5,-.5"/>
<text text-anchor="middle" x="205.5" y="-166.5" font-family="Helvetica,sans-Serif" font-size="10.00" fill="#000000">GeometryInfo</text>
<polyline fill="none" stroke="#000000" points="138.5,-159.5 272.5,-159.5 "/>
<text text-anchor="start" x="146.5" y="-147.5" font-family="Helvetica,sans-Serif" font-size="10.00" fill="#000000">&#45; spacelike_facets</text>
<text text-anchor="start" x="146.5" y="-136.5" font-family="Helvetica,sans-Serif" font-size="10.00" fill="#000000">&#45; timevalues</text>
<polyline fill="none" stroke="#000000" points="138.5,-129.5 272.5,-129.5 "/>
<text text-anchor="start" x="146.5" y="-117.5" font-family="Helvetica,sans-Serif" font-size="10.00" fill="#000000">+ GeometryInfo()</text>
<text text-anchor="start" x="146.5" y="-106.5" font-family="Helvetica,sans-Serif" font-size="10.00" fill="#000000">+ GeometryInfo()</text>
<text text-anchor="start" x="146.5" y="-95.5" font-family="Helvetica,sans-Serif" font-size="10.00" fill="#000000">+ GeometryInfo()</text>
<text text-anchor="start" x="146.5" y="-84.5" font-family="Helvetica,sans-Serif" font-size="10.00" fill="#000000">+ GeometryInfo()</text>
<text text-anchor="start" x="146.5" y="-73.5" font-family="Helvetica,sans-Serif" font-size="10.00" fill="#000000">+ ~GeometryInfo()</text>
<text text-anchor="start" x="146.5" y="-62.5" font-family="Helvetica,sans-Serif" font-size="10.00" fill="#000000">+ getSpacelike_facets()</text>
<text text-anchor="start" x="146.5" y="-51.5" font-family="Helvetica,sans-Serif" font-size="10.00" fill="#000000">+ getTimevalues()</text>
<text text-anchor="start" x="146.5" y="-40.5" font-family="Helvetica,sans-Serif" font-size="10.00" fill="#000000">+ max_timevalue()</text>
<text text-anchor="start" x="146.5" y="-29.5" font-family="Helvetica,sans-Serif" font-size="10.00" fill="#000000">+ min_timevalue()</text>
<text text-anchor="start" x="146.5" y="-18.5" font-family="Helvetica,sans-Serif" font-size="10.00" fill="#000000">+ N0()</text>
<text text-anchor="start" x="146.5" y="-7.5" font-family="Helvetica,sans-Serif" font-size="10.00" fill="#000000">and 12 more...</text>
</g>
<!-- Node2 -->
<g id="node2" class="node">
<title>Node2</title>
<polygon fill="#ffffff" stroke="#bfbfbf" points="0,-248.5 0,-316.5 111,-316.5 111,-248.5 0,-248.5"/>
<text text-anchor="start" x="8" y="-304.5" font-family="Helvetica,sans-Serif" font-size="10.00" fill="#000000">std::vector&lt; Vertex</text>
<text text-anchor="middle" x="55.5" y="-293.5" font-family="Helvetica,sans-Serif" font-size="10.00" fill="#000000">_handle &gt;</text>
<polyline fill="none" stroke="#bfbfbf" points="0,-286.5 111,-286.5 "/>
<text text-anchor="start" x="8" y="-274.5" font-family="Helvetica,sans-Serif" font-size="10.00" fill="#000000">+ elements</text>
<polyline fill="none" stroke="#bfbfbf" points="0,-267.5 111,-267.5 "/>
<text text-anchor="middle" x="55.5" y="-255.5" font-family="Helvetica,sans-Serif" font-size="10.00" fill="#000000"> </text>
</g>
<!-- Node2&#45;&gt;Node1 -->
<g id="edge1" class="edge">
<title>Node2&#45;&gt;Node1</title>
<path fill="none" stroke="#404040" d="M81.9717,-248.4397C95.7335,-230.7329 113.3154,-208.1109 130.8703,-185.5236"/>
<polygon fill="none" stroke="#404040" points="131.017,-185.3348 131.5406,-178.1427 138.3809,-175.8599 137.8572,-183.052 131.017,-185.3348"/>
<text text-anchor="middle" x="145.5" y="-211" font-family="Helvetica,sans-Serif" font-size="10.00" fill="#000000"> &#45;vertices</text>
</g>
<!-- Node3 -->
<g id="node3" class="node">
<title>Node3</title>
<g id="a_node3"><a xlink:title="STL class. ">
<polygon fill="#ffffff" stroke="#bfbfbf" points="157,-364.5 157,-421.5 254,-421.5 254,-364.5 157,-364.5"/>
<text text-anchor="middle" x="205.5" y="-409.5" font-family="Helvetica,sans-Serif" font-size="10.00" fill="#000000">std::vector&lt; T &gt;</text>
<polyline fill="none" stroke="#bfbfbf" points="157,-402.5 254,-402.5 "/>
<text text-anchor="middle" x="205.5" y="-390.5" font-family="Helvetica,sans-Serif" font-size="10.00" fill="#000000"> </text>
<polyline fill="none" stroke="#bfbfbf" points="157,-383.5 254,-383.5 "/>
<text text-anchor="middle" x="205.5" y="-371.5" font-family="Helvetica,sans-Serif" font-size="10.00" fill="#000000"> </text>
</a>
</g>
</g>
<!-- Node3&#45;&gt;Node2 -->
<g id="edge2" class="edge">
<title>Node3&#45;&gt;Node2</title>
<path fill="none" stroke="#ffa500" d="M147.4324,-371.2557C132.9521,-364.3835 118.0037,-355.9381 105.5,-346 95.1745,-337.7931 85.6904,-327.0516 77.8221,-316.7435"/>
<polygon fill="#ffa500" stroke="#ffa500" points="146.2987,-374.5852 156.85,-375.5445 149.1998,-368.2147 146.2987,-374.5852"/>
<text text-anchor="middle" x="153.5" y="-338" font-family="Helvetica,sans-Serif" font-size="10.00" fill="#000000"> &lt; Vertex_handle &gt;</text>
</g>
<!-- Node5 -->
<g id="node5" class="node">
<title>Node5</title>
<polygon fill="#ffffff" stroke="#bfbfbf" points="129,-254 129,-311 282,-311 282,-254 129,-254"/>
<text text-anchor="middle" x="205.5" y="-299" font-family="Helvetica,sans-Serif" font-size="10.00" fill="#000000">std::vector&lt; Edge_handle &gt;</text>
<polyline fill="none" stroke="#bfbfbf" points="129,-292 282,-292 "/>
<text text-anchor="start" x="137" y="-280" font-family="Helvetica,sans-Serif" font-size="10.00" fill="#000000">+ elements</text>
<polyline fill="none" stroke="#bfbfbf" points="129,-273 282,-273 "/>
<text text-anchor="middle" x="205.5" y="-261" font-family="Helvetica,sans-Serif" font-size="10.00" fill="#000000"> </text>
</g>
<!-- Node3&#45;&gt;Node5 -->
<g id="edge5" class="edge">
<title>Node3&#45;&gt;Node5</title>
<path fill="none" stroke="#ffa500" d="M205.5,-353.845C205.5,-339.7511 205.5,-324.1262 205.5,-311.1002"/>
<polygon fill="#ffa500" stroke="#ffa500" points="202.0001,-354.2559 205.5,-364.2559 209.0001,-354.2559 202.0001,-354.2559"/>
<text text-anchor="middle" x="249.5" y="-338" font-family="Helvetica,sans-Serif" font-size="10.00" fill="#000000"> &lt; Edge_handle &gt;</text>
</g>
<!-- Node6 -->
<g id="node6" class="node">
<title>Node6</title>
<polygon fill="#ffffff" stroke="#bfbfbf" points="300.5,-254 300.5,-311 448.5,-311 448.5,-254 300.5,-254"/>
<text text-anchor="middle" x="374.5" y="-299" font-family="Helvetica,sans-Serif" font-size="10.00" fill="#000000">std::vector&lt; Cell_handle &gt;</text>
<polyline fill="none" stroke="#bfbfbf" points="300.5,-292 448.5,-292 "/>
<text text-anchor="start" x="308.5" y="-280" font-family="Helvetica,sans-Serif" font-size="10.00" fill="#000000">+ elements</text>
<polyline fill="none" stroke="#bfbfbf" points="300.5,-273 448.5,-273 "/>
<text text-anchor="middle" x="374.5" y="-261" font-family="Helvetica,sans-Serif" font-size="10.00" fill="#000000"> </text>
</g>
<!-- Node3&#45;&gt;Node6 -->
<g id="edge7" class="edge">
<title>Node3&#45;&gt;Node6</title>
<path fill="none" stroke="#ffa500" d="M263.5101,-365.7939C275.0326,-359.7194 286.8525,-352.9905 297.5,-346 313.2883,-335.6344 329.5912,-322.5839 343.1082,-311.014"/>
<polygon fill="#ffa500" stroke="#ffa500" points="261.6409,-362.82 254.3612,-370.5177 264.8524,-369.0398 261.6409,-362.82"/>
<text text-anchor="middle" x="355" y="-338" font-family="Helvetica,sans-Serif" font-size="10.00" fill="#000000"> &lt; Cell_handle &gt;</text>
</g>
<!-- Node4 -->
<g id="node4" class="node">
<title>Node4</title>
<polygon fill="#ffffff" stroke="#bfbfbf" points="191,-469.5 191,-526.5 220,-526.5 220,-469.5 191,-469.5"/>
<text text-anchor="middle" x="205.5" y="-514.5" font-family="Helvetica,sans-Serif" font-size="10.00" fill="#000000">T</text>
<polyline fill="none" stroke="#bfbfbf" points="191,-507.5 220,-507.5 "/>
<text text-anchor="middle" x="205.5" y="-495.5" font-family="Helvetica,sans-Serif" font-size="10.00" fill="#000000"> </text>
<polyline fill="none" stroke="#bfbfbf" points="191,-488.5 220,-488.5 "/>
<text text-anchor="middle" x="205.5" y="-476.5" font-family="Helvetica,sans-Serif" font-size="10.00" fill="#000000"> </text>
</g>
<!-- Node4&#45;&gt;Node3 -->
<g id="edge3" class="edge">
<title>Node4&#45;&gt;Node3</title>
<path fill="none" stroke="#404040" d="M205.5,-469.3083C205.5,-458.4281 205.5,-445.817 205.5,-434.0192"/>
<polygon fill="none" stroke="#404040" points="205.5001,-433.657 201.5,-427.6571 205.5,-421.657 209.5,-427.657 205.5001,-433.657"/>
<text text-anchor="middle" x="234.5" y="-443" font-family="Helvetica,sans-Serif" font-size="10.00" fill="#000000"> +elements</text>
</g>
<!-- Node5&#45;&gt;Node1 -->
<g id="edge4" class="edge">
<title>Node5&#45;&gt;Node1</title>
<path fill="none" stroke="#404040" d="M205.5,-253.6059C205.5,-236.5918 205.5,-213.943 205.5,-190.9198"/>
<polygon fill="none" stroke="#404040" points="205.5001,-190.8738 201.5,-184.8739 205.5,-178.8738 209.5,-184.8738 205.5001,-190.8738"/>
<text text-anchor="middle" x="249.5" y="-216.5" font-family="Helvetica,sans-Serif" font-size="10.00" fill="#000000"> &#45;spacelike_edges</text>
<text text-anchor="middle" x="249.5" y="-205.5" font-family="Helvetica,sans-Serif" font-size="10.00" fill="#000000">&#45;timelike_edges</text>
</g>
<!-- Node6&#45;&gt;Node1 -->
<g id="edge6" class="edge">
<title>Node6&#45;&gt;Node1</title>
<path fill="none" stroke="#404040" d="M349.199,-253.6059C330.9195,-232.7306 305.2124,-203.3728 280.5855,-175.2485"/>
<polygon fill="none" stroke="#404040" points="280.5438,-175.2009 273.5818,-173.3221 272.6384,-166.1729 279.6005,-168.0518 280.5438,-175.2009"/>
<text text-anchor="middle" x="353.5" y="-222" font-family="Helvetica,sans-Serif" font-size="10.00" fill="#000000"> &#45;one_three</text>
<text text-anchor="middle" x="353.5" y="-211" font-family="Helvetica,sans-Serif" font-size="10.00" fill="#000000">&#45;two_two</text>
<text text-anchor="middle" x="353.5" y="-200" font-family="Helvetica,sans-Serif" font-size="10.00" fill="#000000">&#45;three_one</text>
</g>
</g>
</svg>
