<?xml version="1.0" encoding="UTF-8" standalone="no"?>
<!DOCTYPE svg PUBLIC "-//W3C//DTD SVG 1.1//EN"
 "http://www.w3.org/Graphics/SVG/1.1/DTD/svg11.dtd">
<!-- Generated by graphviz version 2.43.0 (0)
 -->
<!-- Title: Car Pages: 1 -->
<svg width="102pt" height="276pt"
 viewBox="0.00 0.00 102.00 276.00" xmlns="http://www.w3.org/2000/svg" xmlns:xlink="http://www.w3.org/1999/xlink">
<g id="graph0" class="graph" transform="scale(1 1) rotate(0) translate(4 272)">
<title>Car</title>
<!-- Node1 -->
<g id="node1" class="node">
<title>Node1</title>
<g id="a_node1"><a xlink:title=" ">
<polygon fill="#999999" stroke="#666666" points="21.5,-0.5 21.5,-57.5 72.5,-57.5 72.5,-0.5 21.5,-0.5"/>
<text text-anchor="middle" x="47" y="-45.5" font-family="Helvetica,sans-Serif" font-size="10.00">Car</text>
<polyline fill="none" stroke="#666666" points="21.5,-38.5 72.5,-38.5 "/>
<text text-anchor="start" x="29.5" y="-26.5" font-family="Helvetica,sans-Serif" font-size="10.00"># base</text>
<polyline fill="none" stroke="#666666" points="21.5,-19.5 72.5,-19.5 "/>
<text text-anchor="middle" x="47" y="-7.5" font-family="Helvetica,sans-Serif" font-size="10.00"> </text>
</a>
</g>
</g>
<!-- Node2 -->
<g id="node2" class="node">
<title>Node2</title>
<g id="a_node2"><a xlink:href="struct_vehicle.html" target="_top" xlink:title=" ">
<polygon fill="white" stroke="#666666" points="0,-94.5 0,-162.5 94,-162.5 94,-94.5 0,-94.5"/>
<text text-anchor="middle" x="47" y="-150.5" font-family="Helvetica,sans-Serif" font-size="10.00">Vehicle</text>
<polyline fill="none" stroke="#666666" points="0,-143.5 94,-143.5 "/>
<text text-anchor="start" x="8" y="-131.5" font-family="Helvetica,sans-Serif" font-size="10.00"># base</text>
<polyline fill="none" stroke="#666666" points="0,-124.5 94,-124.5 "/>
<text text-anchor="start" x="8" y="-112.5" font-family="Helvetica,sans-Serif" font-size="10.00">+ vehicleStart()</text>
<text text-anchor="start" x="8" y="-101.5" font-family="Helvetica,sans-Serif" font-size="10.00">+ vehicleStop()</text>
</a>
</g>
</g>
<!-- Node2&#45;&gt;Node1 -->
<g id="edge1" class="edge">
<title>Node2&#45;&gt;Node1</title>
<path fill="none" stroke="#63b8ff" d="M47,-84.45C47,-75.4 47,-66.09 47,-57.78"/>
<polygon fill="none" stroke="#63b8ff" points="43.5,-84.49 47,-94.49 50.5,-84.49 43.5,-84.49"/>
</g>
<!-- Node3 -->
<g id="node3" class="node">
<title>Node3</title>
<g id="a_node3"><a xlink:href="struct_object.html" target="_top" xlink:title=" ">
<polygon fill="white" stroke="#666666" points="8.5,-199.5 8.5,-267.5 85.5,-267.5 85.5,-199.5 8.5,-199.5"/>
<text text-anchor="middle" x="47" y="-255.5" font-family="Helvetica,sans-Serif" font-size="10.00">Object</text>
<polyline fill="none" stroke="#666666" points="8.5,-248.5 85.5,-248.5 "/>
<text text-anchor="start" x="16.5" y="-236.5" font-family="Helvetica,sans-Serif" font-size="10.00">&#45; ref</text>
<polyline fill="none" stroke="#666666" points="8.5,-229.5 85.5,-229.5 "/>
<text text-anchor="start" x="16.5" y="-217.5" font-family="Helvetica,sans-Serif" font-size="10.00">+ objRef()</text>
<text text-anchor="start" x="16.5" y="-206.5" font-family="Helvetica,sans-Serif" font-size="10.00">+ objUnref()</text>
</a>
</g>
</g>
<!-- Node3&#45;&gt;Node2 -->
<g id="edge2" class="edge">
<title>Node3&#45;&gt;Node2</title>
<path fill="none" stroke="#63b8ff" d="M47,-189.14C47,-180.26 47,-171.04 47,-162.59"/>
<polygon fill="none" stroke="#63b8ff" points="43.5,-189.34 47,-199.34 50.5,-189.34 43.5,-189.34"/>
</g>
</g>
</svg>
